<svg version="1.2" xmlns="http://www.w3.org/2000/svg" viewBox="0 0 1000 1000" width="1000" height="1000">
	<title>LakeSturgeon</title>
	<style>
		.s0 { fill: #443b31 } 
		.s1 { opacity: 1;fill: #3f3e3b } 
		.s2 { fill: #4c3f34 } 
		.s3 { fill: #393229 } 
		.s4 { fill: #2a2d2d } 
		.s5 { fill: #3d362e } 
		.s6 { fill: #544639 } 
		.s7 { opacity: 1;fill: #323332 } 
		.s8 { fill: #332d26 } 
		.s9 { opacity: 1;fill: #33383a } 
		.s10 { fill: #8e7f71 } 
		.s11 { fill: #282624 } 
		.s12 { fill: #64584e } 
		.s13 { fill: #56504d } 
		.s14 { opacity: 1;fill: #d0c5bb } 
		.s15 { fill: #5c5042 } 
		.s16 { opacity: 1;fill: #3f4244 } 
		.s17 { fill: #706459 } 
		.s18 { fill: #4c4944 } 
		.s19 { opacity: 1;fill: #373f45 } 
		.s20 { fill: #a29386 } 
		.s21 { fill: #705b50 } 
		.s22 { fill: #b5a79b } 
		.s23 { opacity: 1;fill: #595c5d } 
		.s24 { fill: #ac9d90 } 
		.s25 { fill: #656667 } 
		.s26 { opacity: 1;fill: #474b4f } 
		.s27 { fill: #7d695c } 
		.s28 { fill: #c8bcb1 } 
		.s29 { opacity: 1;fill: #ddd2c9 } 
		.s30 { fill: #bdb3a9 } 
		.s31 { fill: #c1b3a6 } 
		.s32 { fill: #897363 } 
		.s33 { fill: #9b8a7b } 
		.s34 { fill: #807166 } 
		.s35 { fill: #614d3f } 
		.s36 { fill: #64604d } 
		.s37 { opacity: 1;fill: #53544d } 
		.s38 { fill: #7d7463 } 
		.s39 { fill: #231f1c } 
		.s40 { fill: #958882 } 
		.s41 { fill: #756d72 } 
		.s42 { opacity: .1;fill: #161616 } 
		.s43 { fill: #100c0b } 
		.s44 { opacity: .3;fill: #181818 } 
		.s45 { opacity: 1;fill: #6a493a } 
		.s46 { fill: #636a4d } 
		.s47 { opacity: .7;fill: #22201f } 
		.s48 { opacity: .9;fill: #2a2928 } 
		.s49 { opacity: .8;fill: #393a3c } 
		.s50 { opacity: 1;fill: #505d46 } 
		.s51 { opacity: .7;fill: #373531 } 
		.s52 { opacity: 1;fill: #aca299 } 
		.s53 { opacity: .5;fill: #1a1919 } 
		.s54 { opacity: .6;fill: #1d1c1c } 
		.s55 { opacity: 1;fill: #9a927d } 
		.s56 { fill: #727a66 } 
		.s57 { opacity: .5;fill: #2b2927 } 
		.s58 { opacity: .2;fill: #262725 } 
		.s59 { opacity: .5;fill: #35443c } 
		.s60 { opacity: .4;fill: #3d3333 } 
		.s61 { opacity: 1;fill: #a35d50 } 
		.s62 { opacity: 1;fill: #e4dcd5 } 
		.s63 { opacity: .9;fill: #595f7a } 
		.s64 { opacity: .4;fill: #292522 } 
		.s65 { opacity: 1;fill: #61764b } 
		.s66 { opacity: .9;fill: #5ea25e } 
		.s67 { opacity: .3;fill: #282be6 } 
		.s68 { opacity: .5;fill: #292d6b } 
		.s69 { opacity: .6;fill: #6e5f54 } 
		.s70 { opacity: .7;fill: #2f28e6 } 
		.s71 { opacity: .3;fill: #2dc34d } 
		.s72 { opacity: .6;fill: #20e725 } 
		.s73 { opacity: .4;fill: #1a15ca } 
		.s74 { opacity: .8;fill: #827472 } 
		.s75 { opacity: .9;fill: #443ec0 } 
		.s76 { opacity: .5;fill: #343b20 } 
		.s77 { opacity: .2;fill: #24264a } 
		.s78 { opacity: .4;fill: #d2d9dd } 
		.s79 { opacity: .5;fill: #701f1b } 
		.s80 { opacity: .4;fill: #af753e } 
		.s81 { opacity: .4;fill: #269c11 } 
		.s82 { opacity: .5;fill: #27d9d7 } 
		.s83 { opacity: .1;fill: #1616ae } 
	</style>
	<g id="Background">
		<path id="Path 0" fill-rule="evenodd" class="s0" d="m751 438l-1-3v-2.8l1-0.2h5l0.3 2.3-0.8 4zm-482 26.9l3.3 0.3 0.7 2.5 1.3 1.3h2.7l2.3-3h2.2l1.8 1 0.2 1 7 2 2.3-0.8 2.5-3.7 4.2-1.5 0.3-1 1.9-1 3.1-3.5h1.2l1 0.5 0.5 8.7 5.5 0.3v3h-15.3l-0.2-1h-1.2l-0.3 1.7-2.7 0.5-0.3 0.8h-4l-2.5-2h-7.5l-6 0.2v5.3l-2 2.5-6.5-1h-27l-1-1h-3.2l-3 1.5-0.3 3 2 2.5v2.5l-1.5 3h-1.5l-0.2-3-2.3-1.3-0.5-1.7v-7.3l3-1.2h26.5l1.3 1h3l2-0.8 1.2-4.2h3l1.8-1.8zm55 2l8.5-0.7 2.7 2.5 3.5 1.2h1.3l2.7-3h3.8l2.5 1.8 7 0.2 1.2-2.5 3.3-0.5 4.5 2h2.5l3.7-1.2 2.3-5 2.7-2.8 3.5 0.5 0.5 5.3 2 1.2 0.3 1h4l2.2-3h4.3l1.2-2h0.8l2.2 0.3 1 1.7h4.8l0.7-1h6.8l1.5 5-8.8 0.3-1.2 1.2h-1.3l0.3 4.5v2h-6l-1.5-1h-5.5l-0.3-1.2-2-0.3-0.7 3 0.7 1.5h2.3l1.2 2.5 4.3 1 6.2 3h3.3v2.5h-4l-6-1-1.5-1h-4.3l-1.2 1h-2.3l-3.2-2h-4.5v-7.7l-2.3-0.8-3.5 1-4.2 2.8v3.2l1.5 2.8 3.5 0.7v4h-3.5l-2.5-2h-2v-3l-2.5-1.2-1.5-2.3-2-0.5h-3.3l-0.2 1h-1.8l-1.7 2-2.8 0.8-0.7 1.2-2-0.2-0.5-6.5 2.2-2.3h1.8l0.7-0.7 0.3-5-1.3-1-4-0.3-2.2 2h-14.8l-2.5-1.7zm597-4h2.5l3.5-3.3 2-0.7 3.3 0.5 1 2-1.3 3-0.2 1.2-1.3 0.8-3-1.5h-3.2l-2.3 1.7v2.3h-4.5l0.3-2.3zm-345.1 7l0.6-4h3.5v4zm-389 1v-4h9l0.2 5.8 1.8 2 0.5 5.2 0.7 1 4-1h4.8l5.5 1 0.7 1h2.8l2-2 3 0.8v3.7l-1 1.5h-3.5l-3.5-2h-18v-7.2l-1.5-0.8-4.5 0.3v7.2l0.7 1.5h5.3l0.5 3.3 3.7 1.2 1.8 3 15.5 0.5 2 1.3v0.7l-1.3 1h-18.2l-3-3.7-5-0.3-1.5-2-2.5-1h-2.8l-1.5 2-3.5-2.7-1.7-2.8 0.7-1.5 1.5-0.2 0.3-3.5-3-1.3-2-3v-8h3.5l1.5 0.8v6.7l2 2h2.5l1-2.5zm22.5 0l1.7-3 6.8 1v3.5l1 1.5v3l-6.5-1.2-1-2-1.8-0.5zm376.5 3l4.8-0.5 3-3.5h1.7l1.3 0.5 1.5 2.7 4.5 2.8 1 3 5.7-0.5 2-2.5h4.5v4l-2 0.2-1 2.8h-9l-2.7-2.3-1.5-2.5-5-0.2-0.8 2h-4.7l-1.8-0.8-1.2-1.5zm-114 8l4.5-0.5 3.2-2.2 1.3-2.8 0.2-4.2 10.8-0.3v3.5l1 2.5h7l-0.3 2.3-1.2 1.2-5.8 1.5h-3.2l-4-2.5-3.3-0.5-1.2 0.8v3.2h-2.3l-0.2 1h-6.5zm-332-8v-1l4.2 0.3 0.3 1.7v8l-0.8 2.3-4.5 3.7h-3.2l-1.5-0.7-1.3-2.3-3.2-1.2-0.5-1.8 0.7-1h5.3l2 0.5 0.5-2.5 1.7-0.7zm404.5 3l1.5-2.8 3.5-0.2 1.5 1v3h-6zm175.5 5v-6h3l2 1.2 1 2.8-1 2-4 1zm-90.5-5l4-0.5 2.5 1.7v1.8h-5.7zm-111 1l-0.5 3h-4l-1-1.5v-2.5h3.5zm140.5 3l0.7-2.8 4.3-1 6.5 0.8 2.2 1.5 0.3 1 3 0.5-1 4h-2.5l-5-2h-4.8l-1-1.5zm-251 1l0.3-1.3 2.7-0.7h5l2 1v2h-6l-1.5-1zm40.5 1v-1.3l2-0.7h4l1.5 1v2h-7zm235.5-1h2l1-1h14v2l-1 1h-6.2l-2.8 2h-5.2l-1.5-1.3zm-575 6v-2.7l3-1.3 0.5-2h10.5v1l-0.3 2.3-5.5 3.7zm55-2l1.5-1.7 5.5 3 1 2.2-2.7 0.5-0.3 1-2.2-1.5zm710.5 14.5v-1.5l2.2-2 1-3.5 1.5-0.7 1.5-3.8 1.5-0.5 0.8 0.5-1 5.8 0.5 7.7 0.7 1.5h0.8l-2 7h-3.3l-0.7-1.5v-4.7l-3-0.8zm-819.8 3.3l6.5-3.8 1.2 0.8 0.5 4 1.3 0.7-0.8 2-6.5 0.5-2.2-2.7zm49.2 10.2v-7l3 0.3 2 1.7v4l-1 1zm-75.5 13l0.3-1.5 3.2-1.5h5.5l3.5 2h4l2-1.5 1.8 0.3 0.2 4.2-8.2-0.5-2.8-1.5h-3.7l-3 2h-1.8l-0.7-0.2zm698-2.5l4.5-0.5 0.5 4.7 2.5 1.3h3v4h-6v-2.3l-3-2.2zm32.5 11.5v-5h6v4zm-109 5.5v-2l-2-2v-3l6.2 2.5 0.5 0.7 0.3 5.3h-0.8l-1-1.3zm-65.7-1.5l-0.8-0.7-0.5-4.3h8l1 5zm199.8-1l4.5-0.2 1 2.7-2.5 1.3v2.2h-3.3l-0.2 1h-5.5v-7zm-510 15v-6l5.2 0.8 0.5 2.5 4 1.7 0.8 2.8 2.5 2-0.3 8.5-0.7 0.7h-3v-5l1-1.5v-3.2l-1.3-1-4.7-0.3-3.3-0.5zm-60 5v-2.2l-2-2.8v-2h3l0.5 1 2.3 0.5 1.2 1.5-0.5 5.5h-2.5l-0.7-1.2zm52 26l-0.3-6.3-2.7-0.7-9.5 0.7-0.8-0.5-0.2-2.5-2.8-3-1.5-0.5-0.2-13.2h3l3.7 1.5 2.5 7.2 3 0.5 2.5 1.8 2 4.5 2.5 1 1.8 1.7v3.8l-0.8 3.7z"/>
		<path id="Path 1" fill-rule="evenodd" class="s1" d="m973 403.8l1.8-1.1 1.2 2h1.8l0.9 1.3-1.7 3-2.8 4.5-4 3.5-0.2-1.8-2-0.7v-7l1.7-2zm-7.5 18l-1.2-1-6-1.5-0.8-1.3v-3h1.5l3.8 2 3 0.3 2.5 2.2zm-586-1.5h4.8l-1.3 3.8-2 1h-3v-3l-1.5-1zm-63.5 3.2l1.8-0.5 4.5 0.3-0.3 2.7-2.5 2h-2.5zm87-0.5v3h-3v-3zm8 4v-3.5h2.8l0.2 3.5zm99 4v-1.5l1.3 0.8-0.3 0.7zm436 10l-1-4v-4.7l3-2.3 2.5 1 0.3 1.3 1.2 0.7 0.5 3.8 1 0.2-0.2 1.8-4.3 4.2zm-196 8.5v-5.2l1-1.3h4.3l1 5 4.2 9h-4.3l-0.2 2h-4v-9zm165-1.5v-2.2l2.3-2.3 3.5 0.3v3.2l-1.8 2h-3.5zm-66 28v-5l2-1 3.3-0.2 7-6.5 3.2-0.3 0.8-1h3l5-3 9.9-1.5 5-5.7 4.3-1.8 3.8-4h4.7l0.8 2h10.2v5.5l-0.7 2-1 0.3-2 2.7-3.3 0.5v-3.7l-1.2-1-3-0.3-3.5 1.8-1.5 1.7-9.5 4.8-4 4.2-6 2.5-5.5 6.8-4.5 1.5-3.8 2.7h-9.3l-2.4-2.5-1.3-0.2zm-219-27v-1.8l3.5 0.3-0.5 1zm8 5v-5l3 1 5 0.2 4 1.5 0.8 1.3h3.7l4.5 1.2v3.8h-4.7l-5.3-1.5-6.5-0.5-1-1h-3zm-511 7l4.3-2.5 22.2-6.3 0.3 1.5 6.5 2.5 2.5 2.3 4 0.7 0.5 0.8h3.2l2-0.5 0.8-1h3.2l1.5 0.7 0.3 2 1.7 1.8h7v8h-3.7l-0.3 2h-2v-4.3l-1.5-0.7h-3.5v-0.8l-1.5-0.7-5.5-0.5-0.2-1-2.3-0.5-0.2-2-4-0.5-0.3 3-4 0.2v4.3l-9.7-0.5-0.3 3.5 1.5 0.2 0.8 1.5-1.3 0.8h-4.5l-0.2-1.8-4.3-0.2-0.2-2.5-3.8-0.5-1-2.8-1.8-1.7-5.2-0.8-1-1.7zm279 2v-2.8l2.8-4 0.2-3.2 3.8 0.5 0.2 2.5-0.2 1.7-2.3 3.3v2zm-16 1l0.3-3.8 2-2.7 2.7 0.5v4h-0.7l-1.3 2zm368-2l4.3-1.5 2 3 0.2 1.7-1.5 0.8h-4l-1-1zm-188 2l3.8-2h2.2l0.5 4-0.5 4h-7zm-458.5 5.7l6.8-5.2 2.7-1 1 0.7-0.5 9.8 2.8 3-1.3 1v4h-10.5l-1.5-1.5v-4.8l3-2.7v-2zm468.5-3.8l3-1 3 0.8v4.2h-6zm-81 4h6l1.5-2 0.8 1h2.2l1.8 1h10.2l1.5 1.8 3.5 1.2-0.5 2-4.2 1-0.8 2h-2.5l-2-1h-3.5l-0.2-1-2.3-1h-10.5v-1.7l-1.2-1-5.8-0.3 0.5-1.7zm215 1l2.8-1h3.2l2.8 1 0.7 2-0.5 3h-3l-6-2zm-615.3 5.7l5.8-3 0.5 3.8-1 1.7v2.8l-4 2h-3v-2l1.7-1.8zm-19.7 10l4-1 3.5 3.3h3l1 1-1 2.5-7 0.5-3.8 3.2-2.2 0.8h-5.3l-3.5 1.5-0.7 1v5.5l-2.8 0.5-1.2-0.8-0.5-4-1.3-0.7 10-9 5.5-3.8zm800 29.3l-3-1-0.7-1.8-1.5-1-0.8-7.5 2-0.7 3 0.7v4.8l0.8 1.5h3.2l2-7 4.5 1-0.2 2.2-2 0.8-1.3 2.7-0.2 3.5-1.8 1v0.8zm37-4v-1.8l1-0.7 1 1.5v1zm-166.5 10v-1l3.3 0.5-0.8 0.5zm1 0.7l1.5-0.5v1zm-527.5 25.3l1-1.5v-13.3l1.3-2.2 6.5 0.2 1.2 1.8v12l-1 0.2v2.3l1.5 4 8 0.5 1.5-2v-2l3 1-1 6.5 1 3.2 2 0.3 0.3 13.2 1.5 0.5 2.7 3 0.3 2.5 0.7 0.5 9.5-0.7 2.8 0.7 0.2 6.3v6l-1 0.7v3.8l2.3 5 11.2 0.5 1 0.5 0.5 2.5h3l0.5-3 0.5-1 5.5-0.5 0.8 2.5 1 6.7 4 5.5-2.3 0.8v-1.8l-0.7-0.5-5.3-1-0.2-1-1.8-0.7h-2.7l-0.8 1.5h-1.7l-0.8 0.7-0.2 2-2.5 1.8-0.3 1.5-1-0.5-0.5-1h-1.2l-5.5-4-5.8-5-3.5-1.8-2.2-1.7 1.7-2v-1.5l-1-1v-7.8l-3.7-2.2v-1.3l-1.3-0.7-2 0.2v1.8h-1.7l-0.5 1.7-1.5 0.3-2.3 2-8-5-0.5-1h-1l-9.2-8.3-2.5-0.7-7.8-6.3-2.2-2.7-0.5-1.5-4-2.8-1.5-1.2-0.3-1.3-3-2.2 1.5-1 5.5 0.5 3.5-0.5 1.3 0.2 0.7 1.3h2.5l0.5-5.5 3-1 0.8-1zm353.2-13.5l3.8-1.5 2.7 0.5 0.3 1.5 0.5 4.2 0.7 0.8h1.8l-0.5 3.5-1.5 1.5zm56.2 0.5l0.5-1h2.5l1.3 11.2 5.2 5v4.8h-6.2l-4.3-3-2.7 0.2-0.8 0.8h-3.5l-1.2-3.3-1.3-0.7v-5.3l0.8-0.5 0.5-2.7 4.7-0.5h4l0.8-0.8zm-438 9.3l1-3.3 2.7 0.5 0.8 1.5h3.5l0.5 1h2l0.7 1h2.3l0.5 1.8 1.5 0.2v4l-4.3 0.5-0.7 1.5-7-1v-7.5zm666.5 0.5v-3l1-0.5 2.5 1.5 0.2 2.5zm-610 5.3l7.3-0.3 1-1.2h1.2l1-2.8 1.5-0.7 9 0.5 2 1.2v7.3l-5 0.2v4.3l1 3.2 7.3 3.8 5.7 0.5v5l-1 0.2v0.8l-4 0.2v2.8l-1 2.5 0.3 4.5 1 1.2 2.7 0.8 0.3 1.7 1.2 1.5 6.5 1-0.5 2.8h-4.5l-0.2-1-1.5-0.8-4.3-0.2v-2l-2.5-0.8-0.5-2-2-1-0.2-1.7-3.8-0.5v-3.8l-1.7-1.7-2.5-1-2-4.5-2.5-1.8-3-0.5-2.5-7.2-3.8-1.5zm501 6v-3.3l0.8-1.2 4.2-0.5 3.8 1 1.2 3-1.5 6.5-2.5-0.3-2-1.2v-3.3zm42 1.5l1.3-1.7 1.7 2 1.5 5.2h-2.5l-0.2-2.5-1.8-0.5zm-20 0l4.3 1 0.7 1.5v4h-3.7l-0.3 1h-1zm-175 4.5v-3h2l2 2 2.8 0.5 0.2 3.5h-4.5l-0.7-1.7z"/>
		<path id="Path 2" class="s2" d="m922 469v-2.3l2.3-1.7h3.2l3 1.5-0.3 1.7-0.9 0.3-2.3 3.3-1.3-2.3zm-609-1h4l0.8-2h4.8l1.4 1 0.3 3.3 2.5 1.7h14.8l2.2-2 4 0.3 1.2 1-0.2 5-0.8 0.7h-1.7l-2.3 2.3 0.5 6.5 2 0.2 0.8-1.2 2.7-0.8 1.8-2h1.7l0.3-1h3.2l2 0.5 1.5 2.3 2.5 1.2v3h-1l-1.5-1h-2.5v-3l-1-0.7h-2.7l-2 1-2 1.7-2 5-0.8 0.3v1.7l-1.5 0.3-2.5-1.3h-2.2l-1.8-1.7-0.5-2.3-0.7-3.5-2.3-1.5v-2.2l-1.5-0.8h-4.2l-2.3 3h-4.2l-0.8-1.5v-3.2l1-0.8v-4.5l-2.2-0.5-0.8-1-7.5 0.5-0.5-1zm-94 12l-2 2h-2.7l-0.8-1-5.5-1h-4.7l-4 1-0.8-1-0.5-5.2-1.7-2-0.3-5.8h2.5l2.3 1 0.2 1.8 2.3 1.2h6.3l0.2 2.3 1.8 0.5 1 2 6.5 1.2zm181.9-6l-0.2-4.5h1.2l1.3-1.2 8.7-0.3 4 2v2.5l-2 2.5h-1.7l-1.3 1.3-2.5-1.3zm-105-2.2l0.3-1.8h1.2l0.3 1zm273.5 3.3l0.5-5h6 4 6v4l0.2 3.7 1.3 1.5 1.7 0.8h4.8l0.7-2 5 0.2 1.5 2.5 2.8 2.3h9l1-2.8 2-0.2 1 0.5v3l-1 3.5h-8.8l-3.2-1v-1.3l-1.3-1.2-3.2-1.5h-4.8l-0.7 1h-3.8l-1.2 2-8.5-0.5-1 1-2.5 0.5-0.5-1.5-1.3-0.8-0.2-2-3.3-2.5zm-304.9 3l6.4 1 2-2.5v-5.2l6-0.3v4l1 1.5h9 4 3l3 1.8v2.7l-2.2 4.3-2 0.7h-5.5l-1-1.7-3.3-0.3-0.7-1.2-8.3-0.8-1.5-1-3.2 0.5-0.3 1-1.7 0.5h-2.3l-0.7-1.7-1.5-0.5zm262-5l3.2-0.8 1-1.2h5.3 3v2l1.5 3.7 4 0.3 0.5 1h6l1 3-1 3h-5l-2-2-4 1h-10.3l-3.5 3.5v1.5l-1.5 0.5-0.2 1.5h-3l-1.8-2-4.2-2h-3.5-4-2.8l-2.2 2h-7v-2.3l-1.5-0.7-13.5-1v-3.3l1.2-0.7 3.3 0.5 4 2.5h3.2l5.8-1.5 1.2-1.3 0.3-2.2v-3h10.5l2.2 1 0.3 1v2.5l1 1.5h4l0.5-3h2.5l0.7-2 4.3-1zm-340 2l-1 2.5h-2.5l-2-2v-2.5h2l1.7 2zm42.5 14.5h1.5l1.5-3v-2.5l-2-2.5 0.3-3 3-1.5h3.2l1 1-2.7 1-1.8 2.2 1.5 8-0.2 4.5-1.3 1.3h-9v-1.8l0.8-0.7 3-0.3zm418-4.5l-0.3-1-1.7-0.7-4-0.3-0.5-3 2.7 1h15.8l2.7 0.5 1 1.5h4.8l5 2h2.5l1-4h7l1 1 0.2 2.8 1.5 1.2h5.3l2.7-2h6.3l1-1h3.2l3-1.7 0.8-1.3h5l2 1.3v0.7l-1 3h-2l-2.5-1-1.5 1.5h-1.8l-2.5 2-0.2 2h-2.3l-2.2-0.5-2.3 0.3-0.2 0.7h-15.5v-0.7l-1.5-0.8h-3.8l-1.7 1-13-0.5-0.3-2.5-3.7-0.5zm74-2l4-1 1-2h5.5l1.5 1v4l-2.5 0.3-1.3 2.5-1.2 0.2-3.8-1-0.5-1.2-2.7-0.8zm-318 1.5l1.7-0.2 1-1.8 2.3-0.5h2.5l1.5 1v3h-3.3l-0.7 1h-5zm53-0.5v-2h2.5l2.2 1 0.3 2v0.5h-4.3zm-347 4l8.3 1 5.5-3.7 0.2-2.3h6.5l0.5 1.8 3.3 1.2 1.2 2.3 1.5 0.7h3.3l4.5-3.7 0.7-2.3 2.5 0.3 3 3.7 0.8 3.8 2.7 1.2 5-0.5 3 1.3 1 1.2h1.5v7l-3.5 1h-13l-3-2.2-0.7-1.5-2.8-0.3v-2.7l-1.5-2-4.5-0.3-4.2-1-2-4.5-1.3-0.5h-2.2l-2 1-6.3 6h-3.5l-2-2h-4.5v-3.7zm328-2v-1.3l2.3-1.7h5.2l-1 2.5zm-66 0h2l1.3-1.5 1.7-0.5h1v5l-1 2h-2-2.5l-0.5-1zm15 0l1.3-1h4.2l1.5 1v3h-2.7l-2 1.7-2.3 0.3zm-202.2 5l1.5-2h2.7l2.5 1 1.5 2 0.3 8.7-2.8 1.5-1-0.2-0.5-2.3-1.2-1zm-99.8 11l2.3-0.2 9-9.8 5 0.5 0.7 2.5 0.3 4 3.7 5.3 3.3 1.2 1.7 1.8v1.2l-1 0.5-2-1.7-3-0.3-2-1.2-1.2-2.8-3-2.7-5 0.2v0.8l-3.8 3.2 0.3 5.3 3.7 2.7 2.5 0.5 0.3 1-0.8 1h-2-8v-2.7l-2-3.3v-4.2l0.8-0.5zm810-2l1.7-0.8 3.5-5.2h3.8v1l-0.3 1.7-2.2 1.5-1.3 5.3-2.2 1.5h-3zm-719.3 2l0.3-1.3 5.5 1 1.5 1.3-0.3 1 1.5 1.5 0.3 2-2.5 1.7v3.8l-0.8 1.7-1.7-0.7-1.5-5.3-2.3-2.7zm-110.5 3.5l2.8-0.5h3l0.2 3 1.8 1.5 0.5 1.5h3.5l0.5 2.2 1.2 0.5 1.3 2 0.5 3.3-0.5 2h-3-7l-0.5-3.5-0.8-0.5-2.2-3.8-2 0.8v2h-3v-3.8l-1.3-1h-1.7l-0.5-1.2v-2l6.5-0.5zm661 19.2l1.2-0.2 1.5 5 3 2.2v2.3l-0.2 0.5-5.8-1-1-1.5-0.2-5.3zm-145.3 6.3l1-1.3 1.5-0.2 7.3 0.7 1.2 1v1.8 2h-8l-0.2-1.5-2.8-0.5zm243.8-1l2.2-0.5 2.8 1.5 1.2 2-2.7-0.5-3-1.5zm-58.8 5v-4h3v4h-2zm-502 10l-1-4.8-3-2.2v-3.8l0.8-0.5h1.2l3.5 0.8 5.5 1.7 1 1 1-0.2 5.8 2.2 1.7 0.8 1.3 7.2 3.2 2 0.3 3 1.5 1 0.2 1.5 1.3 1.3 5 0.2v3.3l-0.3 5.7v3.3l-0.7 0.5-0.3 2h-8v-4h3l0.8-0.8 0.2-8.5-2.5-2-0.7-2.7-4-1.8-0.5-2.5-5.3-0.7v-1.3l-2-1.2zm581-5.8v-1l2-1.2 3.8 0.7 0.2 1 1 0.3v3.2z"/>
		<path id="Path 3" class="s3" d="m751 443v-5l4.5 0.3-0.3 4.7zm181.1 5h3.5l1.2-1 4 0.2 1.8 3-5 5.8-0.8-0.3-0.5-2.2-4.5-0.5-2 2-0.7 4-2 0.8-3.5 3.2h-2.5v-1.3l3.2-1.9 2.5-3.1 0.3-3.2-2-1.5v-1.7l0.7-0.8h1.3l1.7-1.5zm-617 7h7l5.3-4 4 0.5v2.3l1 1.2 7.5-0.7 1.2 0.7h5l1.8-2 8.2-2 9 1 1.8-1h4.2l1 1 3 0.5 0.5 1.5-0.2 1.8-3 2.5-0.5 3-1.8 1.7-3.5-0.2-0.5-6-0.7-0.5-7.8-1.3-1-1-5.7 1-2.5 1.3-2.5 3.5v2l-1 1.5-3.5 2.7h-3l-1.3-1.2-0.2-2.3-1.3-0.5-4.2 1-0.3 1h-4.7l-1-1.3-0.3-3-1.5-0.7-3.2 0.5-0.5 1.3-1.5 0.4-2.5 2.8h-3l-0.8-3.8 2.5-2.7zm71-3l0.3-1h3.7l1 1v2.5l-1.5 1.5-3-0.2zm-133 5h5l1.3-1.3 5.7-0.2 1 0.5 0.8 2h2.5l3.5-3.8 3.5-2.3 3 0.5 1.2 2.5 5.5-0.5 3-2 7-0.5 2.3 3h3.7l-0.2 3.3-2 1.3-0.8 1.4-3.7 0.1v1.2l-2.5 1.8-2.3 3-3.7-0.3-0.8-1.3v-5.2l-0.7-0.7-6.3-0.5-0.5-2.3-2-0.8-2.7 0.1-3 2.5-1.8 3v3.5l-1.2 4.2-1.8 1.8-3-0.1v-1-4l-2-1-4 0.3v3.8l-1.5 1h-7.2l-0.3 5h-19v-2l-1.5-2h-4.2l-1.3 3h-3l-1-1.6v-3.4-9.1h3.5l2.5-2 8 1 3.5-2.5h4l2 1.5h3.5l0.5 6.8 1.5 1 2.5 0.2 3.5-4zm169 0v2.5l-1.2 2.8-0.8 0.8-3.2-0.1-0.8-1.4v-5.5l4.5-0.1zm29 2l2 1h2.3l3.5-3.2 2.2 1v7.3l-1.7 0.5-1.5 1.7-2.8 0.8h-8.7l-0.3 1h-3.7l-1.3-2.5 1-5.5h6.5zm-248 4l6-1v3.5l-1 1.5h-4.2l-1.8-1.5v-2.5zm232-1l-0.2 2.7-1.3 1.3h-3.7l-0.8-4h3zm176.5 13.9l-0.5-4.7 1-1.3v-2h7v5h-1.7l-1.3 3zm-446.5-3.2v-3.8h4l2 1.3v2.3l-1 1.4-1.7 0.1-0.3 1.2-2-1zm236 3.3v-2l7.5 1 2.5 1.2v3.8l-2.7 0.7-0.3 1.3-2.2 0.5-1 1.7-1.8 0.3h-3.2l-6.3-3-4.2-1-1.3-2.5v-3h5.5l1.5 1 0.5 4.2 5.5 0.8 1-1.5v-2.8zm15 4v-3.8l1-1.4 3.5-0.8 1.5 0.8v1.2l1 7h-5v-2zm22-4v-1l1.3-1 21 0.3 2.2 1.4 2.3 0.3 1.2 2 5.3 0.5 0.7 0.8v2.7 3l-1.5 1h-3l-1.5-1h-5l-0.2-2-2.3-1h-2.5l-1.5-1h-4l-2 0.7v1.3h-4-5.2l-2.3 1.8v1.2h-4.5l-0.5-1 0.3-2.3 5.5-2.5zm245 5l-1-6 4.5 1 0.5 5-1 1h-2zm-312.1 5l-3.4-0.7-1.5-2.8v-3.2l4.2-2.8 3.5-1 2.3 0.8v7.7l-1.8 0.5-1.2 1.5zm-175-1h-5.3l-0.7-1.5v-7.2l4.5-0.3 1.5 0.8v7.2zm505-4v-3.5l7 0.5v2l-0.8 1.3-3 1.7h-3.2zm-613 1.5l3.2-2.5h1.3l0.5 2-1 2h-3.5zm47.5-0.5l0.5-1.7 2-0.3-0.5 2.5zm748.5 2l3-0.2 2 1v2.7l-1 1-0.3 4.3-2.7 1.5 0.2 4.5 1.5 1.2h7.3v5h-5.5l-4.5-1h-0.8l-0.7-1.5-0.5-7.7 1-5.8-0.8-0.5 1.5-2.2zm-663 2v3.5l-1 1.5h-12.5l-4.7-1.3-0.8-1.7v-4h12l3.5 2zm-125.2 28l-0.3-1-2.5-0.5-3.7-2.8-0.3-5.2 3.8-3.3v-0.7l5-0.3 3 2.8 1.2 2.7 2 1.3v7zm-63 0l5.3-1.5 0.7-1 7.3-3 1 1.5v6 8.5l-2 1.5h-4l-3.5-2h-2.5v-3l-1-0.5-2 0.2v3.3l-3.3 1.5-0.2 1.5h-4.3l-0.5 0.7-2 0.8-0.2-2.3-1-1 0.7-1.5 1.5-0.7h3.3l0.7-1 2.8-0.5 1.5-2-0.3-3.8zm741.3 15v-3.7l1.2-1.3h4.8l2 5-2-0.5-0.5 0.5zm-37 1l7.5-0.5 1 1 8.5 0.5 0.2-1h1.8l3 1v5l-0.3 2h-8.7l-0.8-1h-2l-3.2-1.5h-5l-1.5-0.2-0.5-1.3zm50 15v-2.2l2.5-1.3 1.5 1.8v2.7h-3.3zm-504 17.1l-4.5-0.3-0.5-5.8 4.8 0.3 1.2 1v3.2z"/>
		<path id="Path 4" fill-rule="evenodd" class="s4" d="m695.8 432.5l8.5-6.5 10.7-5.8 17.3-7.2 10.2-3h4.5v7.5l-9.7 1-5.8 1.8-1.7 1.2-3.5 0.5-2.3 3.5 1 6.3v7.2l-4 3.8 0.3 4 2 1 0.2 2 7 0.2 9.8-4h5.7l3 3.5-0.2 4.8-1.8 1.7-5 0.3v4.7l-2.5 3.5-3.7 0.5-2.8-2h-6.2l-1.8 3-5 0.8v3.2h-3.2l-2.8 1-1-1v-4.8l-1.2-1-4.5-0.2-0.5 2.3-3.8 2.2v2.5l-2.5 0.2-0.5 4.8h-4v-4.3l-1.5-0.7h-3.2l-1.8 1h-3.5l-2.5-1h-10.5l-1.5-0.8-0.5-2.2v-4.8l2-2.2-1.5-6.8 6.5-3 1 0.5v2.8l-1 1.3 0.3 3.5 0.5 0.7h2.2v2.5l1.3 2.8 3.7 0.7 1-1.5 0.3-2.5 5.5-1.7 0.2-3.3v-7l1.3-1h6.7v2l-1 1 0.5 5.3 4.3 1.2 1.2 2 3.8 0.3 2.2-1.8 5.5 0.8 1 1.2h5.5l0.8-0.7 0.2-3.5-0.7-0.8-5.5-3.7-2.8-0.3-7.2-0.5-1-1.2-0.3-2.3 0.8-2 1.7-0.5 1-1.2 2-0.3 3.5-0.5 2.5-3-0.2-3.8-3.8-0.7-1.5-1h-9.5l-3-2zm237.8-11l4.5-2.8 11.5-5 0.2 3.5-2.5 3-2.5 2.5-3.7 0.3h-7zm-608.8 4.3l2.2-1.1 1 2.3h18l2.3 0.3 0.2 0.7-1 1-11.2 0.5-2.5 0.5-0.8 1-13.2-1-2.3 1.5-6.7 1-0.8 0.8v2.7l1.3 2 13.2 1 2.3-0.8 1.5-1.7 4.2-0.5 5.5 3.5 2.3 0.3 2.2 3.7 8 0.7 1 0.8v2l-0.5 1-3.7 0.2-0.8 0.8h-5.5l-0.7-1.5-1.8-0.5h-3.7l-1.3 1.5-23.5-1-4.7 0.5-0.8 1h-7.5l0.3-3.5 4.5-1.3 0.2-5-4.7-3-3-0.2-2.3 3.3v2.2l1 1.5-0.2 3.3-3 2.2-0.8 1.5-12.2-0.5-6 1.5h-11.8v-2l-3.5-1.5-18.5 0.5 0.5-1.8 2.5-0.2 1-1h23.8l1.5-1 11-0.3 0.7-1.2v-3.3l-1.2-2.2-8.5-4.8-0.3-3.2 3.8-0.5 7.7-0.8 1.8 2.5 2.2 0.8h4.8l1.2-1v-2.3l4.5 0.3 1.8-1 7.2-1.3v2.8l2 2.5 11-1.5 1-1.5h2.5l2.5-2zm66.8 1.3l1-1.1h10.5l0.5 1.1 8.5-0.1-0.3 6.3-2.7 1.5v4.3l1 1-0.3 4.2-0.7 0.8h-3.8l-1.2 1.4-4.8 1.6-0.7 1h-3.5l-4.8-0.5-0.2 2.5h-3.8l-0.2 1h-5.5l-0.5-1.6-4-1.4-0.5-2 0.2-1.6 4.8 0.1 0.2-1 7.5-2.5h4.8l0.7-2 2-0.8 0.5-2.8 1.8-1.9v-3.3l-2.3-1-3.7-0.3zm353.5 7.8h-4l-1.8-0.8-0.2-5.7 7-0.2v3.5l-1 1.2zm-325 1.3v-5l4.7 0.5 0.3 3-1 1.5zm58 8.9h1l0.7-1.5 4-2.5h7.8l0.5 3h1.5l1-1h2.7l3-2h15.3l8.5 0.5 5.2 1.3 19.8 0.2 5 1.8 2.5 2.2h1.2l3-2 4.5 0.3 0.8 1 2.5 0.5 11.7 1 1.3 1.2h10l6.5 1 7 3h5.5l0.5 0.8 5.7 0.7h7.5l4 1 1 1.5h12.8v2l-1 1.3v4.7l-1 1-5.5-1h-6.3l-0.2 1h-8.5l-1.5-2.5-2-1.5-2 1h-4l-1.5-1h-7.5v-4.7l-1.5-1.3h-2.8l-0.7 4.5 0.5 1.3 2.5 1.2v2l-7.3 1-0.5-2-1-0.7-7.2-0.3-3.3-0.5-1.7-1.5h-1.8l-0.2 1h-2.3l-3.7 2h-4l-1-1h-6v-2l1-1.5v-2.5l-2.8-0.5-0.5-1.5-2-1.7-5-0.3-2.5 1.5v0.8l-3.5 0.7-2-2.7-5.7-0.5-1.8-3.5-7.7 0.7-0.8-1.5-2.2-1.5h-5.3l-1.7 2-5.3 2-0.2 1-2.3-0.2-1-3.8-2.7-1h-2.8l-2.2 1h-6.3l-2.7 1.5-6.8 0.5-1 1h-6.2zm-267 9v-1.7l0.7-0.8 4.8-0.5 3.7-1.5 1.8 0.5v3h-4.3l-0.7 1zm564 111l0.2-1h8.8v5l-3.3-0.5-3.7-1.5h-2z"/>
		<path id="Path 5" class="s5" d="m752 418v-9l3.5 1.3 2 1.9 0.3 8.6-0.8 5.7v0.5h-5zm188 19v-9.3l1-1.7 6.3 0.5 0.7 3.5-3 2.3v4.7l1 4h-3v-2.7zm-35 22l3.3-0.5 2-2.8 1-0.2 0.7-2v-5.5h3l0.5 1h2.5v3l-3 1.7-7.7 7.8v0.7l-2.5 1.3-0.5 1-2.3 0.5v-2.3l2.8-2.5zm-603-4l4-1 0.7-1.2 3-1.8h3.8l1.5 0.8v3.2l-0.5 2.5-2.5 2.8 0.7 3.7h3l2.5-2.7 1.5-0.5 0.5-1.3 3.3-0.5 1.5 0.8 0.2 3 1 1.2h4.8l0.2-1 4.3-1 1.2 0.5 0.3 2.3 1.2 1.2h3l3.5-2.7 1-1.5v-2l2.5-3.5 2.5-1.3 5.8-1 1 1 7.7 1.3 0.8 0.5 0.5 6 3.5 0.2 1.7-1.7 0.5-3 3-2.5 0.3-1.8 4-0.5 1-1.5h5.5l0.5 3.8 3 0.2 1.5-1.5v-2.5h4l5.2 0.8 1.5 2.2h3.5l2.5-2h1.3l-0.3 3.3-2.7 4v2.7h-2.3l-0.7 1h-4.8l-1-1.7-2.2-0.3v-4l-2.8-0.5-2 2.8-0.2 3.7h-1.3l-2.2 3h-4l-0.3-1-2-1.2-0.5-5.3-3.5-0.5-2.7 2.8-2.3 5-3.7 1.2h-2.5l-4.5-2-3.3 0.5-1.2 2.5-7-0.2-2.5-1.8h-3.8l-2.7 3h-1.3l-3.5-1.2-2.7-2.5-8.5 0.7-1.5-1h-4.8l-0.7 2h-4l-5.5-0.2-0.5-8.8-1-0.5h-1.3l-3 3.5-2 1-0.2 1-4.3 1.5-2.5 3.8-2.2 0.7-7-2-0.3-1-1.7-1h-2.3l-2.2 3h-2.8l-1.2-1.2-0.8-2.5-3.2-0.3v-3.5l1.7-3 3-2.5h2.8l2 0.8 0.5 2.2 6.2 0.5 0.8 0.8v5.2l0.7 1.3 3.8 0.2 2.2-3 2.5-1.7v-1.3h3.8l0.7-1.5 2-1.2zm149-1h1l2-3h4l0.8 1v4.7l-3.5 3.3h-2.3l-2-1zm478 5l0.8-4 2-2 4.5 0.5 0.5 2.2 0.7 0.3-3 4.5-1.2 1-1-2zm-518.5 4v-2l2.2-3.3 0.3-1.7h3v5.5l0.7 1.5h3.3l0.7-0.8 1.3-2.7v-2.5l4.7 0.2 0.5 3.5 1.8 1.3 0.7 4h3.8l1.2-1.3 0.3-2.7 1.2-0.3 1.5-2.7 3.5 0.2 0.8 1.8-1 5.5 1.2 2.5h3.8l0.2-1h8.8l2.7-0.8 1.5-1.7 1.8-0.5 1.5 0.5 0.7 2.5h9.3l1.9 1.5 2.6 0.5 3.2-0.3 2.3-1.7h2.5l1.4 1h4.5l3.3-2.5 3.3-0.5 1.5 0.7v3.3l-5.5 0.2-0.5 1.8h-1l-10.8 0.2-0.2 4.3-1.3 2.7-3.2 2.3-4.5 0.5v-2.8l-0.8-0.7-5.2-0.5-1.3-2-2.2-0.3-2.3-1.5-21-0.2-1.2 1v1h-16v-1.3l-1.5-0.7-3.5 0.7-1 1.5v3.8h-5v-3.8l1.2-1.2h1.8l2-2.5v-2.5l-4-2zm-165.6-5l2-1h6v5l-3.5 4-2.5-0.3-1.5-1zm-36 4l1.8-2.5 5.7-0.5 1.5 1v9l-6.7-1-1.8 3h-6.2l-2.3-1.2-0.2-1.8-2.3-1h-2.5-9v-4h6l1.3-1h3.2l1.3 1h3.2v2.5l1.8 1.5h4.2l1-1.5zm-88 1.5l6-2.5v2l1 1.8 5.3 0.7 1.7 1.8 1 2.7v4l-1.5 1h-4.7l-3.5 2h-2l-2.8-3 0.5-9.7zm385.6 4.5l0.2-2.5 1-1.5 2-1h4.2l1.8 2 7.5 0.5 1 1v2.7l1 0.8h3.5l3-2.5 3.5 0.2 0.7 0.5v2.8h-5.2l-1 1.2-3.3 0.8-3.5-1.3-1.5-1.7h-10.2l-1.8-1h-2.2zm32.5 3l2.7-0.5 2-1.5 7.5 1 3.5-1.8 1.5-2.7 2.8-2.5h6l1 1h4l-1 6-3 1.2v1.8h-3.8l-0.2 1h-8.3l-2.7 1-1.5-1-3.5 0.2-1.5 2.8-4-0.3-1.5-3.7zm44-6v-2l7.2 0.2 1 0.8 0.5 2 7.3-1 1 1 5-0.5 5 0.5 2 2v2l-1 1.2 0.5 4.8-2 2.5-5.8 0.5-1-3-4.5-2.8-1.5-2.7-1.2-0.5h-1.8l-3 3.5-4.7 0.5v-4-4.3zm-425 4.5v-4.2l4-0.3h2v2.5l1 1.5v3.8zm11-0.5v-3l5.5 0.5 1.5 0.7v0.8 8l2 3 3 1.2-0.3 3.5-1.5 0.3-0.7 1.5-7.8-6.8-2.7-3.5 0.2-1.2h1.8l1-1.5v-2.3zm450-1l0.5-2h8.5v3.5l0.7 1.5h3.8l0.7-1h8.3l3.7 3h16.3l0.7 1h10.8l2.5 1h6.5l1 6h-7l-3-0.5-0.3-1-2.2-1.5-6.5-0.7-4.3 1-0.7 2.7h-15.8l-2.7-1h-4.5v-1.7l-2.5-1.8-4 0.5h-5.5l-1.8-3.5-3.2-0.5zm-371 7l0.2-5h7.3l1.5-1 6 1v1l-1.3 4.3-2 0.7h-3l-1.2-1zm-29-1h3l1.2-3h4.3l1.5 2v2l-3 1.3v7.2l0.5 1.8 2.2 1.2 0.3 3-1.3 2.8-3 0.2-0.7 0.8v1.7h-4.5v-0.7l-2-1.3-15.5-0.5-1.8-3-3.7-1.2-0.5-3.3v-1h6v4l0.7 1.8 4.8 1.2h12.5l1-1.5v-3.5l1-1.5v-3.7l-3-0.8v-3zm169 4h-2.3l-0.7-1.5 0.7-3 2 0.3 0.3 1.2zm320 0l3-4h3l6 2v6h-5v-0.7l-2-1.3h-5zm-15.5 3l0.2-1.7 2-1 1.3-2.3h4l1 1.5v3.5zm-604.5 1.5l0.5 1.5h3.5l1-2h4v2l-0.8 2.8-2 0.2-3.7 3-1-1h-3l-3.5-3.2 1.7-2zm-56 41.5v-3.3l2-0.2 1 0.5v3zm596 16v-3.8l2-1.7 2.5 0.5 0.3 4.2-0.8 0.8zm-44 5l1.5-1.5 0.5-3.5h6l1 0.5v2l2 2.5 0.3 3.7 1.5 1.8 0.7 2.7 1.5 0.8v5 3h-2.2l-0.8 0.7-4.7-5.3-3.5-4.9-1-2.8-1-0.5zm199.5 1l0.2-1h3.3l0.7 1h3.3l3.7 8.5-2.7-0.5-0.3-3.2-7-2.3zm-586 6.5l0.5-0.5 7 1v6l-1.5 1-4.7-5.8-1.3-0.4zm85.5 13.5l-5.7-0.5-7.3-3.8-1-3.3v-4.2l5-0.2 0.8 1.5 3.2 0.5 0.5 5.7 4.5 0.2zm-17 19.1l2.3-0.3 0.7-3.8 3.8 0.5 0.2 1.8 2 1 0.5 2 2.5 0.7v2l-2 1.3 0.3 6.5 4 4.2h3.2l-0.5 3h-3l-0.5-2.5-1-0.5-11.2-0.5-2.3-5v-3.7l1-0.8zm18 15v-9h4.5v2.5l1.3 3.3-0.3 2.7z"/>
		<path id="Path 6" fill-rule="evenodd" class="s6" d="m912.5 481v-3l3.8-5 1.2-4h4.5l3.8 0.5 1.2 2.3-1.2 3.2-1.5 1-0.5 2h-6l-2.8 3zm-616.5-9.3l1.8-0.7h15.2l0.5 1 7.5-0.5 0.8 1 2.2 0.5v4.5l-1 0.8v3.2l0.8 1.5h4.2l2.3-3h4.2l1.5 0.8v2.2l-5.5 0.3-0.5 5.2-4.3 0.8-0.7 0.7h-3l-4-2.5h-4v-3.3l-1.2-1-6.5-0.2-0.3 2h-2.8l-0.2 2.3-2.3 0.2-1.2 1.3-0.5 2.2-4.3 0.5-0.2 1.5h-6.5l-0.8-1h-3.2l-2.3-2.8-2.2-0.5-2.5-2.7-3.8 1-1.2 3h-6.3l-1.2 1h-1.5l-2-1v-2l-2-0.8-0.8-2.2-3.5-0.5-3.2-1.5h-4.3l-0.2 3 1 4 1 1v4.5l-1.5 1.5-5-1h-7.3l-1 1-9.5 0.5-3.2 1.5h-8.8l-3.2 2.3h-4l-0.7 0.7-4.5 0.5-2.3 2.5h-2.3l-0.7-3.2-1.3-1h-1.5l-0.2-8.8 5 0.3 3 3.7h18.3l1.2-1h13.5l1.2-1.2 0.3-4.5-1.5-8 1.7-2.3 2.8-1h27l0.2 2.8 1.5 0.5 0.8 1.7h2.2l1.8-0.5 0.2-1 3.3-0.5 1.5 1 8.3 0.8 0.7 1.2 3.2 0.3 1 1.7h5.5l2-0.7 2.3-4.3v-2.7l-3-1.8h-3v-3.5l0.2-0.7zm-7 4.7h-9l-1-1.5v-4h7.5l2.5 2zm599 0.5l0.3-2.7 2.5-3 1.2-0.3 0.5 1-0.2 2.8-2.5 2zm-272-1l1.2-3h1.8l3.2 0.5 1.8 3.5h5.5l0.7 3h10.3l0.5 3 4 0.2 1.7 0.8 0.3 1v3h-12l-1-1.8-2.5-0.5-0.8-2-3.2-0.2-2-1.5h-5.8l-0.5 3.7-1.2 1.3h-2l1-3.5v-3l-1-0.5zm-65-1l2.7-1h8.3l0.2 2.7 1.3 1.3h2.5l1-3h2.5l2.2 4.2 3.3 2.5 0.2 2 1.3 0.8 0.5 1.5 2.5-0.5 1-1 8.5 0.5 1.2-2h3.8l0.7-1h4.8l3.2 1.5 1.3 1.2v1.3h-6.8l-0.5 1.7-1.7 1.3h-21.5l-3-1h-5.3l-2.2 1h-2.8l-0.2 2h-9.8l-3.2-1-1.5-1h-4.8l-0.7 1h-2.5l-1.3-1.3-5.2-0.7h-4.8v-1.5l3.5-3.5h10.3l4-1 2 2h5l1-3-1-3zm-139 11v-3h11l2.5 2h6.5l0.5 1h4.5l6.5-0.5 1-2.5h4l0.5 1h7l0.7 1.5h4.3v5l1.2 1.5v0.2l-1 0.8h-5.2l-0.3-3.3-2.7-1.7h-6.8l-0.2 3h-7l-2 0.7-5-0.7h-3.3l-2.7-1v-1.5l-1.5-1-8.3 0.5-0.2 1h-2v-2.3zm-64.5 7v-1.8l0.7-0.2 2-5 2-1.8 2-0.9h2.8l1 0.7v6l-3.8 0.3-1.2 2.7-2 0.5zm131-8l0.2-1h2.3l13.5 1 1.5 0.8v2.2l-5 1-0.3-1.3-2.2-0.7h-7.5l-2-0.5zm225 4.5l0.2-2 2.5-2h1.8l1.5-1.5 2.5 1v6.5l-0.5 0.5h-4.5l-1.3-1.8zm17.5 3.5v-1.7l-2.5-0.8-0.5-1v-3l1.3-1.2 1.7-0.3 2.8 0.8 0.5 1.2 3.7 1v4.5l-3 0.5zm-64-3v-4l3.8 0.5 0.2 2.5v1zm246.1 0.3l3.2-3.3 3.5-0.2 0.3 6-1.8 0.2-1.2 2h-4zm-796 1.8h4.5l2 2h3.5l6.2-6 2-1h2.3l1.2 0.5 2 4.5 4.3 1-0.3 5.3-0.7 0.7h-2l-4-1.3-0.5-2.2-1-0.5-6.8 0.3-5.7 4v3.7l-1 1.3 1 2.9-0.3 4.3-1.2 1.5h-3.5v-4l1-0.5v-1.3l-1.8-1.7-3.2-1.3-3.8-5.2-0.2-4h4l0.7-0.7v-1.8zm51.5-0.5l-5 0.5-2.7-1.2-0.8-3.8h2l5.8 2.5zm249.5-4.5l-0.3 3.3-2.2 2.2-2.3 0.5h-2l-1.7-1.3-0.5-4.7zm341.9 7l0.1-7 4.2 0.3 1.8 1.5v2.2l-1 0.8v3.5l-2.3-0.3zm-388-4v-2h3l2.5 2h3.5l0.5 1h2.5v4h-7.5zm312-0.5l1.8-1h3.7l1.5 0.8v0.7l0.5 3.8 2.8 0.7 2.5 1.8 1.2 2.5 2 1.2-0.2 2h-10.3v-1.5l-3.2-3.2-2.3-0.3zm-288 1.5l2.3-0.2 2-1.8h2.7l-0.2 3.8-1.8 2.2h-4.2l-0.8-2zm310.5-1l0.3-0.7 2.2-0.3v2h-2zm-33 9l0.5-5 6.8 0.5 0.2 3v4.5h-3zm-522.5 3.5v-4.5l2.8 0.3 0.7 1.5 3 2.2h13l3.5-1h0.5l-0.2 2.8-1.8 1.7-7.5 1.5-1.5-1h-2.5l-6.5-2h-2.2zm-65 2.5l3.7-1 2.5-2h1.8l-0.3 2.3-0.7 0.5v4.2l2 3.3v2.7l-1 0.3v3.5l-4.5 0.2-0.5-3.2-1.3-2-1.2-0.5-0.5-2.3zm-30 3.5l1.2-1.2 7.5-3.5v1.5l2.3 2.7v2h-2.5l-1-1-6.5 1zm851-3.5v2h-3v-2zm-873.3 22.8l0.5-0.8h4.2l0.3 1.7 0.7 0.3h1.8l3-2h3.7l2.8 1.5 8.2 0.5 1.3 1-1.8 2.5h-1.5l-2-1.5-9.7-1-1.5 4.5-1.5-0.5-4.8-1.5-0.7-1.5h-1l-1.8-0.3zm810.8 6.5l4.3-2.2h5.7l1.5 1v4l-2 1.3v0.9l-7-2.7-0.7-1-1.5-0.3zm-75.5 1.8l6-1h1l0.2 1.5 1.8 0.5v5h-6l-0.3-0.8-2.7-0.9-0.3-2.3zm15 8l1-5h3v7h-3zm-481.8 12.3l-4.9-0.3-1.3-1.3-0.2-1.5-1.5-1-0.3-3-3.2-2-1.3-7.2 4 0.5 5 1.5 0.5 0.7 1.5-0.2 0.5 0.7 1.5 12.8zm-10.2 15.7v-0.7l1-0.3h8v5.8l-0.8 1.5-2 0.2-1-2-1.5-0.2-1-1.8-2.2-0.7z"/>
		<path id="Path 7" fill-rule="evenodd" class="s7" d="m747.8 409.3l4.2-0.3v9h-3l-2-0.5v-7.5zm201.8 4.5l7.2-3 0.8 4.2v3l0.7 1.3 6 1.5 1.3 1-12 15.2-1-0.2-0.5-3.8-1.3-0.7-0.2-1.3-2.5-1-0.8-3.5-6.2-0.5v-3l3.7-0.2 2.5-2.5 2.5-3zm-603.5 13.2v-4h8l0.3 1.3 1.5 0.7h5l0.5 1h10l2.7-1h7v3l-1.7 1h-7.5l-6.3-1h-17l-0.2-0.7zm40-3l1.5-1h4.5l0.5 3-1 1h-5.5zm-83 1.7l4-1.2 9-1 1 4.5-1 1.5-11 1.5-2-2.5zm24-1.3l6-0.2v2.7h-5l-1-2.2zm-45.3 2.5h6.8l1 0.7v2.3l-1.3 1h-4.7l-2.3-0.8-1.7-2.5zm113.2 22h3.5l0.8-1 4.7-1.5 1.3-1.5h3.7l0.8-0.7 0.2-4.3-1-1v-4.2l2.8-1.5 0.2-6.3h2l2.5 1h3.5v8h-2.5l-0.2-1-3.3-1-3 1.3v2.2l1.5 2.8 3.8 1.2 0.7 1.5h1.3l1-1h3l1.5-1 3.5 0.3 0.7 0.5 0.3 3.5 1 0.2 1 2 3.5-0.2 1-1.3 7.7 1 3 1.5 2.3-0.2 0.5-1.3h4.2l1.5 1v3l-2 3h-1l-1.5-1h-3.5l-1 1h-1.7l-2.8-0.7-1-1.3-5.5 0.3-1.5 1-0.5 8.7h-3l-1.7-1.2-0.5-3.5-4.8-0.3-1.5-1h-7.5l-0.2-2.5-3.8-0.5h-1.2l-2.5 2h-3.5l-1.5-2.2-5.3-0.8zm-129-19.7l2-0.3 0.3 3.3 8.5 4.7 1.2 2.3v3.2l-0.7 1.3-11 0.2-1.5 1h-8.8l0.3-2h4.7l4.5-1 3.3-2.2 0.2-4-3-3.3zm171.3 2.8l-1.3 0.5-0.5-1.5h0.5l1.3 0.2zm-148.3 18l0.8-1.5 3-2.2 0.2-3.3-1-1.5v-2.2l2.3-3.3 3 0.3 4.7 3-0.2 5-4.5 1.2-0.3 3.5-1 0.3v2.7l-7 0.5zm631.8-3h2.7l4.8-4.7 11.7-5.3 3 1.3v2.7l-7.2 1-3.5 2.5-0.3 3.5h-3.2l-1.8 1.5h-1.2l-0.8 0.8v1.7h-7v-3h1zm-426.2-4l-1 1h-1.5l-0.5-3 2.7 0.3zm-333.5 6.5l3.8-2 14-4.5 0.2 2-1.2 1.5-7.5 5-8.5 0.5zm26 13.5l0.2-5 3.5-2.5 4-0.5 2.5-1.5h2.5l4.5-2.5 8.5-2.5 12.5-1.5 2.5-1h4l5-2h3.8l0.5 1-1 1-2.5 0.2-0.5 1.8-15 2-1.8-0.5-3.7 1.5-4.8 0.5-0.7 0.7v1.8l-2.8 0.2-5 4.8-0.2 4h-4.3l-1.2-1h-3.3l-1.2 1zm271-12l1.7-2.8 3.3-1.2 1.2-1.8 2-0.7 9.8-0.5 2 1-1 6-3.3 0.5-1.7 1.7v4.8l-3 0.2v3.3l0.7 1.5 6.5 0.7 1.5 2.3 4.5 0.2 0.3 1.8-2.3 1.7-3.2 0.3-2.5-0.5-2-1.5h-9.3l-0.7-2.5-1.5-0.5v-7.3l-2.3-1v-4.7zm262 19v-3.3l5-0.7 1.8-3h6.2l2.8 2 3.7-0.5 2.5-3.5v-4.8l5-0.2 1.8-1.8 0.2-4.7h1l2 0.5v9l1.3 4.5 2 0.2 0.7 1.3h2l1 1h4l1.5-0.8 1.3 3 0.2 2.8h-5l-6.7 0.5-0.3 6.2-3 0.3-0.7-0.8-4.3-0.7-0.5-0.5-6.5 0.5-2.2-0.8h-5l-0.8-1.2-3.5-1.5h-4l-0.7-2zm-8-11v-1.8l2.5-0.7 1.2-1.3 0.3-3.2 2.7 0.2 5.5 3.8 0.8 0.7-0.3 3.5-0.7 0.8h-5.5l-1-1.3zm-43-4l2.5-0.7 1.5 6.7-2 2.3v4.7l-6-1v-3.7l-1.8-1.5-21.2-2.8v-2l0.5-1 6.5 0.5 5.2 1.5h8.8l1.5-2.7zm12 5h5l1.2-2 2-1h3.8l-0.3 3.2-5.5 1.8-0.2 2.5-1 1.5-3.8-0.8-1.2-2.7zm-105 2l0.2-1h1.8l1.7 1.5 3.3 0.5v2l-3 1h-3.5zm23 1l2-1h4v3.5l-5 0.5-1-1zm11 0h4l2-1 2 1.5 1.5 2.5-0.5 2h-7l-2-2zm-446 2l2.5-0.5 2.2 0.5 0.3 1v3h-4l-1-1.5zm547 6l0.2-1h1.8l1 1v3h-3zm-618.5 9l0.7-1 5.5-2.3v3.5l-1.7 1.8h-4zm112.5 73l0.7-1.5 4.3-0.5 2 1v2l2 2.7v2.3l-3.5 0.5-5.5-0.5zm546.5 5l0.5-2 4 0.7v3.3h-0.8zm-468 43h-3.2l-4-4.3-0.3-6.5 2-1.2 4.3 0.2 1.5 0.8 0.2 1v9zm9.5 14l2.3-0.8 1.7 4v1.8l1 0.7v1.5l-2 1-3.7-0.7-0.3-6.3zm-14 3.5l1-1 0.3-2 5 0.3 0.7 1.5 1 0.2v4l-1.7-0.2-1-1-3.8-1z"/>
		<path id="Path 8" class="s8" d="m746 428l2.8-3 0.2-7h3v9l-1 0.3v4.7l-1 0.2v2.8l1 3v5l-1 1.3v5.2h-1l-3-3.5v-1.5l1.3-0.8 0.7-2.7v-2.8l-1.7-3.2-1.3-0.3v-1.9l1-1.3zm-365-3l2-1h3v3l-1 1h-4zm551 23l0.3-3.5 3.5-2.5 7.2-1h3l3 2-6.5 7.3-1.8-3-4-0.3-1.2 1zm-635 1h7.5l0.8-1 4.7-0.5 23.5 1 1.2-1.5h3.8l1.8 0.5 0.7 1.5h5.5l0.8-0.7 3.7-0.3 0.5-1h24l0.5 2 4 1.5 0.5 1.5-1 1.5-4 0.5-0.5-1.5-3-0.5-1-1h-4.3l-1.7 1-9-1-8.3 2-1.7 2h-5l-1.2-0.8-7.5 0.8-1-1.3v-2.2l-4-0.5-5.3 4h-7v-3.2l-1.5-0.8h-3.8l-3 1.8-0.7 1.2-4 1h-3.8l-2.2-3v-2.7zm93 2l0.2-2.5 4.8 0.5v3h-4zm-131 0h11.8l5.9-1.5 12.3 0.5v2.5l-3 2-5.5 0.5-1.3-2.5-3-0.5-3.5 2.2-3.5 3.8h-2.5l-0.7-2-1-0.5-5.8 0.2-1.2 1.3h-5-6l-2 1h-3.5l-2-1.5h-4l-3.5 2.5-8-1-2.5 2h-3.5l-1.5-1-5.8 0.5-1.7 2.5-6 1 0.2-4 5-4.8 2.8-0.2h6l0.7-1h4.3l0.7 2h9.5l3.3-1.8 10 0.8 3.5-1.8h8.7zm173.1 11l0.5-8.8 1.5-0.9 5.5-0.3 1 1.3 2.7 0.7h1.8l1-1h3.5l1.5 1v5l-2.5 2h-6.5l-0.8-1.7-3.5-0.3-1.5 2.8-1.2 0.2zm469.9 3l2.3-0.5 0.5-1 2.5-1.2v-0.8l7.8-7.7 3-1.8h7l2 1.5-0.3 3.3-2.5 3-3.2 2v1.2l-3.3 3.8-0.2 2.2-1.3 4-3.7 5v3l-0.8 2.3-1.7 1.5-0.3 2-3.5 0.2-3.2 3.3v3.7h-3.8l-3.5 5.3-1.7 0.7h-7.3l-1.5-1.2-0.2-4.5 2.7-1.5 0.3-4.3 1-1v-2.7l-2-1v-2.8l1-4 1.7-0.2 2.5-2 0.3-2.8h1.5l4.2-4.7zm-430-7h17l2.3-2h1.7l1 0.5 0.5 1.5h7.8l3-2h1.2l3 3h4.5l3.3-2h1.7l3.8 3.5 4 0.5 2 3h2.7l2.8-2.5 4.2-0.5 2 0.7 0.8 3.3h3.7l2.8-3.3 2.5-0.2 1.5-1.5 7.2 1v2l-2.7 2.5-1.5 2.7-3.5 1.8-7.5-1-2 1.5-2.8 0.5h-3v-2.8l-0.7-0.5-3.5-0.2-3 2.5h-3.5l-1-0.8v-2.7l-1-1-7.5-0.5-1.8-2h-4.2l-2 1-1 1.5-0.3 2.5-1.5 2h-6v-3.3l-1.5-0.7-3.2 0.5-3.3 2.5h-4.5l-1.5-1h-2.5l-0.2-1.8-4.5-0.2-1.5-2.3-6.5-0.7-0.8-1.5v-3.3zm133 7.5v-3.5h3.5l1.5 1v3zm-348 3.5v-3.7l4-0.3 2 1v4zm371-3l0.3-1h6.2l5.5 1 1-1 9.8 2h14.2l6 1 0.5 2.3 1.5 0.7h10.5l2.5 1h3.5l1.8-1h3.2l1.5 0.8v4.2l-1.2 2.3-2 1-0.3 1.7h-5.5l-0.5-5-4.5-1h-6.5l-2.5-1h-10.7l-0.8-1h-16.2l-3.8-3h-8.2l-0.8 1h-3.7l-0.8-1.5zm72 10l0.5-4.7 2.5-0.3h8v3l-3 4-7-0.5zm-575.8 1h2l3.5-2h4.8l1.5-1h4l-0.3 5.3-1.7 0.7-2 0.3-0.5 1.7h-5.3l-0.7 1h-6.5v-1-4zm276.8-1l0.9 0.8v2.7l-1 1.5-5.5-0.7-0.5-4.3zm22 7l-1-7h16l-0.2 4.3-5.5 2.5-0.3 2.2h-6.5zm480 30h7.3l-2.5 3h-4.8zm-877.2 3.3l5-0.5 0.3 3.7-1.5 2-2.8 0.5-0.7 1h-3.3l-1.5 0.8-0.7 1.5h-1.8l0.3-3.3 1.2-1.2-0.2-0.8 2.7-2.5zm745.3 4l10.2-0.2 0.3 0.7-1.5 1v2.3h-4.8l-1.2 1.2v3.8l-2.3 0.5-0.7 1.5h-3-3-6l-3-1h-1.8l-0.2 1-8.5-0.5-1-1-7.5 0.5h-3l-2.5-1.3-0.5-4.7 6.7-1.8 10.3-1.5 1.5 0.3v1l-3.5 1.5-0.8 2h5.3l1.7 1.5h5.8l7.5-1.5 2.2-1.3 0.3-3 0.2-0.7z"/>
		<path id="Path 9" fill-rule="evenodd" class="s9" d="m922.8 426.5l5.7-3.3 5-1.7 0.5 1.5h7v3l-1 1.7v9.3l-11.7 5.2-4.8 4.8h-2.7v-3.3l-3.5-0.2-2.3 2.2v2.3h-13.2l-0.8-2v-1.8l3.5-1.7 2.5-2.5h2.5l7.3-4.8 3.5-1 2.5-2.2 1.2-3v-1.5zm-568.8-3.5l0.8-1h4.7l1.5 1-0.2 2h-5l-1.5-0.8zm-19.8 0.5l4.5-0.5h7.3v4h-13v-2.7zm85.8 7.5v-3h7l2.7 2 5.8 1 0.5 1.5 1.2-0.5 5.5 0.2 2.3 2.8h2l1-1.5v-2.5h3.5l1.5 1 0.2 3.2 3.8 2.3 8-0.5 3 1.2 5.2 0.5 6.5-1.7h15.3l2.7-1 8.5 1 3.8-0.5 2.5 1.2 5.5 0.3 0.5 1h10.5l11.5-0.5 2.5 1 1.5-0.5 7 2h6.5l2 1h13.5l0.7 1h3.8l0.2 1 2 1 7.8 0.5 7.7 1.5h6.8l0.7 2h7.8l9.5 3h8.5l0.2 1.2 2 0.8h6.8l0.5 1h3l1 1-0.5 1h-12.8l-1-1.5-4-1h-7.5l-5.7-0.8-0.5-0.7h-5.5l-7-3-6.5-1h-10l-1.3-1.3-11.7-1-2.5-0.5-0.8-1-4.5-0.2-3 2h-1.2l-2.5-2.3-5-1.7-19.8-0.3-5.2-1.2-8.5-0.5h-15.3l-3 2h-2.7l-0.3-1.8-2.7-0.2h-7.8l-4 2.5-0.7 1.5h-1l-2-1-9.8 0.5-2 0.7-1.2 1.8-3.3 1.2-1.7 2.8h-4v-3l-1.5-1h-4.3l-0.5 1.2-2.2 0.3-3-1.5-7.8-1-1 1.2-3.5 0.3-1-2-1-0.3-0.2-3.5-0.8-0.5-3.5-0.2-1.5 1h-3l-1 1h-1.2l-0.8-1.5-3.7-1.3-1.5-2.7v-2.3l3-1.2 3.2 1 0.3 1h6.5l1-1.5-0.3-3zm-162-1l5.8-0.8h2.2v3.3l3 3.3-0.2 4-3.3 2.2-4.5 1h-4.7l-0.3 2h-15l-0.5-1h-3.7l-5 2h-4l-2.5 1-12.5 1.5-8.5 2.5-4.5 2.5h-2.5l-2.5 1.5-4 0.5-3.5 2.5-0.3 5h-7l-1.7-1.8-0.3-2-1.5-0.7h-3.2l-0.8 1-2 0.5h-3.2l-0.5-0.8-4-0.7-2.5-2.3-6.5-2.5-0.3-1.5 7.5-2.7 0.8 2.5 8.5-0.5 7.5-5 1.2-1.5-0.2-2 9.7-3 1.8 0.5 2.7-0.5-0.7 3.5-2.3 2h-1.7l-2 1.5 0.2 4.8 2.5 0.2 0.8-1h3.2l11-4 7.3-1 1-1 13-0.5 6.5-1.5 3.5-2h5.7l4.5 1 2.3-1 11.5-1.5 0.7-1v-2.3l-2-2.7zm276.5 2l2.3-0.3 1 1-0.8 1.3h-2zm178.5 12v-2.5l2-2v-3.5l3.8 0.7 0.2 3.8-2.5 3zm-35 7.3l6.3-8.3 3.5-3 1.2 0.8 1 5.7 1.3 2.8 1.7 0.7v7h-3.7l-2 1-1.3 2h-7.2l-0.5-0.7-0.3-3.5 1-1.3v-2.7zm23-2.3l0.3-1h6.2l0.3 2.3 1 1.2 7.2 0.5-0.2 3.3-1.3 1.2-2.5 0.8v1.7l-2.2 1.8-3.8-0.3-1.2-2-4.3-1.2-0.5-5.3 1-1zm-42 9v-3.7l5.5 1-1.5 2.7zm99 7h-2l-0.7-1.2-2-0.3-1.3-4.5h4l0.5 2.8 1.5 0.2zm-596 0l0.3-3 4 0.5 0.2 2-2.5 0.5zm48 86v-4h3l2 1.5v3.5h-3zm38 8l-2-0.2-1-3.3 1-6.5h3.5l1.5 1v9zm531 5v-4l4 0.5v3.5zm13 1.3l3-0.3 1-2h2.5v4.5l-2.7 1.3-3.8 0.2zm-192.3 1.5l1.8-1.7h4.5l2.3 2.5 0.7 2.2 2 1 1 2.5v3.8l-1 1.5-2.7-2.3zm18.5 19l3.2-4.7 0.3-2.5 1-0.8 0.2-8.5 1-0.2h4.5l4.3 4.5 0.2 1.5-0.2 6.2-1.8 1.8h-2.7l0.2 5.2 0.8 0.8h4.7l3.3-3h4.2l1.8 1.5-2 6.2-1 0.8-1 0.5-5.3-0.5-2.5-0.3-6.5-3.7-4-2.8h-0.5zm23.3-10.8l0.5-0.4 4.5 1.5-1 3-3.5-0.5zm-365.6 42.5l0.3-1.5 2.5-1.8 0.3-2 0.7-0.7h1.8l0.7-1.5h2.8l1.7 0.7 0.3 1 5.2 1 0.8 0.5v1.8l-1 1.2 0.2 6.3-3-0.5-2.2-0.5v-4l-1-0.3-0.8-1.5-5-0.2-0.2 2-1 1z"/>
		<path id="Path 10" class="s10" d="m865 492l3.8-0.3 2.5-2.7 3.7 0.8-0.3 4.5-1.9 0.7-1.6 2.8-0.9 0.2-0.3 3-1.8 1-2.5-1.7-0.7-6.3zm-113 7.8l0.8-4.8 2.2 0.3 2.3 1.2 0.7 1.5v3h-4zm-416-1.7l0.3-0.8 2.7-0.2 1.7 2-1.7 2h-3zm277 0l1.2-1h1.8l1.5 1h2.5l0.7 4h2.5l3.3-2.5 2.3 1.2 1.5 2 2.7 0.3 7-1 1.3 1h4.7 2v2 3l-7.8-1-0.2 1.2-12.8 0.5-0.9-0.7h-3.3l-1.5-1h-4.5l-1.5-1h-0.7l-0.3 1h-3.5v-3l1.8-0.8zm-254.8 1.8l2-1.8 9.8 1v5.5l1.2 2h0.8v2.5h-5v-2.2l-0.8-0.5-6.7-0.5-0.5-5.5zm224.2 1.2h4.5l2.3-2h4.7 6 3l3 0.8v3l-6.2 0.2-5.5-1h-3.5l-1.5 0.5-0.5 1.3-1.5 0.2 0.5 7 1 1.8 1.2 0.5 1 2.2 2.8 0.3 1 1.2 1.5 0.3 2.2 4.2 5.5 2.3 7.5 0.2 2.3-1.7 0.5-5.3h2.2l5.5 2.3-0.2 1.5-2 2 0.7 2.7-0.5 4.5h-6-3.7l-0.8-1v-1.5l-1-0.5h-6.5l-1.5-1.5-3.7-0.3-0.8-0.7v-1.8l-1.2-2.2-3.8-0.5-1.2-2-3-1.7v-1.3l-1-0.7-7.3-0.3-0.2-1h-1.5l-1.3-1h-4.2l-0.3 4.5 0.8 1.5h1.2l0.3 4.8 2 1.7 0.7 2v4.5l-1.7 0.3-4.3-0.3-0.2-0.7 1.2-0.3 3.3-0.7-0.3-1.5-2.2-2-1.8-3-4.7 0.2-1.8-1h-8l-0.5-1v-4.8l2.8-0.9 1.5-1.5 0.2-2.3-3.2-0.5-0.8 1h-3.7l-1.8-1h-2.2l-1.8-4 0.3-2h4.2l1.3 1.5 8 0.7 3.5 1.8h6l2.5-0.8 0.7-7 2.5-0.2 1.5 0.2 1.8 1.8h3.7zm-101.5-1l3-0.3 2 0.8 0.8 1.2-0.8 0.8v2.5h-5zm-186.5 1h3.5l1-1h5l0.8 2h3.2l1-1 2 0.7v1.3l-5 3h-4l-1-1h-7zm26 1l0.8-2h4.7v2.8l-4 0.2zm-49.5 0h3l1-1 9.5 0.3 1 3.7-1 1.2-3.5 0.5v5.3l-2 0.3v1.7h-1.5l-1-1-5.5 0.5-0.7-2-2.8-0.5-0.5-6.3 0.8-0.5 0.2-2.2zm244 3l1.5-0.5 1.8-2.5 12.2 1 2.5-2 2.8 0.3 1.2 1.7 1.3 0.3 0.7 1.7h1v2h-3.7l-1.3-1-3.2 1-9.5-1-1.8 2.5-1.2 0.5h-4.3zm-57 2v-5h5v3l-1.7 0.8-0.8 1.2zm33-3l4.8-0.7 1-1.3h1.2 5l0.8 2h5.2v4h-3.5l-1.2-1.7-4-0.3-2.3 4h-3.2l-3.3-2.3zm161 1.1v-3.1l3.8 0.6 0.7 1.9zm-216-0.9l3.3 0.5 0.5 1.5h4.2l0.8-2.5 1.2-0.5h4 1v2l-3.2 0.5-0.3 2h-1.2l-1.3 1.5h-9.5v-1l-1.5-0.5v-2.8zm343.8-0.8l3.2-0.2 1.8 2h6.2l0.5 2h-1.2l-1.3 2-1 0.3v1.2l-16.7 0.5-3.3 1h-2v-1.8l-3-1.2h-2.7l-0.5 2.8-4 0.2-2 1h-7.5l-0.5 0.8-8.8 0.2-0.2-3 2.5-2.8v-1.9l5.5-0.3 1-1h1.2 5l2-1h4l3.3 1.8 0.7 1.2h8 6.5l3.3-2.8zm53.2 0.8l0.3-1h1.7 5l1 0.5 1 2.5v4l-7-0.5-0.7-2-1-0.3zm-20.5 4.5v-1.2l-1.8-1-0.2-2.8 8.5 0.5v4l-0.5 1zm-16.5-1.5l0.2-3 2.8 0.3v2.7zm-412.1 1l0.1-2.2 1.7-0.8h4.8l2.5 2 12.5-1 1.2 0.8 6.3 0.2v3h-1-3l-2.5-1h-11-11zm291-1l0.7-1h1.8l4.5 1.5 8-0.5 1 1.5 1.5 0.5h2.5l1-1h21l1-1h3l1.7 2v1.3l-1 1-2.7 1.2h-2.3l-1.7 1.5h-4.3l-2.5 1.8-4.7 0.2h-11l-2-0.5-1.5-2-3.3-0.2-1.2-1.3h-7.8l-1.7-1zm-439 7l4-0.5 1-1.5v-2h3l1.5 1-0.3 2.3-2 1.2-0.2 1.5h-2.8l-2.2 3-2.8 0.3-0.2 4.8-3.3-0.1-0.7-3 1-5h2zm-96 3l4.5 3h3.7l1.5-1 1.5-3.5 10.8-0.5 2.7-2h3.8l1 0.5 0.7 4.5-2.2 3.3v2l-6 1.8v-5.8l-1.5-0.8h-3.8l-5 1.3-3.2 3.3-8.5-1.1-2.8 0.1-1.2 1.2v2.8l-2 0.2v3.8 2.5h-1.8l-1.7 2h-1.8l-1.7 2.5-7 0.5-2.8-0.5-1-1 0.3-1.5 1.7-0.3 1.5-1.7h1.8l2.5-1.5h3l1.2-1.3-0.2-1.7v-4.8l-1.3-0.7-2-4.5 0.5-1h1.8 2l1 1h3.2l2.3-1zm156 5v-2.3l1-1.3v-4.5l3 0.1 0.2 2.5 0.8 0.5-0.3 3.5-1.2 1.4zm-38 1.1l2.5-0.5 1.2-1.6 5.3 0.1 0.5 1-0.5 3-6 2-2.3 0.5-0.7 1v4.5l-4-0.8-1-1v-3.5l2-0.7 2.7-2.8zm580.5 0l2.3-0.3 1 2.3h5.2v3h-13.7l-0.5-1 0.2-2.3 2.5-1.5zm-819.8 2.3h1.8l1 1 0.2 2.3 2-0.8 0.3 3 1.7 0.3-4.2 0.5v2h-1l-2-3.5zm680.3 1.7l2 0.3 1.5 1.2 1.7 2v0.3l-5.2-3zm-619 2l1.5-0.3 2.5 3.3v3.7l-2 0.3h-2.3l-1-1.5 0.5-5zm68 1.5l0.8-1 2.5-0.5h4.7v2.5h0.8l0.7 1.5 3 0.5 4.5 0.7v3.8l-1 0.2v0.8h-3.5l-1.2-1.3-5.5-0.2-1.3-1.5h-2.5v-1l-1.7-1.8zm35 1.5l4.5-2.5 3.7 0.5 1.8-0.5 1.5 2.5 1 6-2.8-1h-5.5l-0.2 1h-4zm447.5-1.5l2.5-0.7v4.2l-0.5 1-2.5-0.5-4.3-3 0.8-0.5 3 0.5zm-533.3 2.8l1-2.3 6.2-1 7.3 3 0.2 1v2l-4 1-6-1h-2.7zm74.2-0.7l3.3-2.3 3.2 1.8v5h-3.5l-0.2-0.8-2-0.2zm187.2 8.5l0.5-1h3.3v1zm7.2 0v-1h5.5v1h-0.2-3zm-285 6.2v-0.2h1.2l-0.5 0.5z"/>
		<path id="Path 11" class="s11" d="m725 439v-7.3l-1-6.2 2.3-3.5 3.5-0.5 1.7-1.3 5.8-1.7 9.7-1 2 0.5-0.2 7-2.8 3-7 0.3 0.3 5.7 1.7 0.7h4l1.3 0.3 1.7 3.3v2.7l-0.7 2.8-1.3 0.7v1.5h-3l1-6.5-1.5-1-13.7-0.5-1.5 1zm-344.1-11h4.1l1-1h5.5l0.5 3 3.7 0.3 2.3 1v3.2l-1.8 2-0.5 2.8-2 0.7-0.7 2h-4.8l-7.5 2.5-0.2 1h-4.8l-0.2 1.5h-24v-2l-1-0.7-8-0.8-2.3-3.8-2.2-0.2-5.5-3.5-4.3 0.5-1.5 1.8-2.2 0.7-13.3-1-1.2-2v-2.8l0.7-0.7 6.8-1 2.2-1.5 13.3 1 0.7-1 2.5-0.5 11.3-0.5 1-1h17l6.2 1h7.5zm96 23h6.3l1-1 6.7-0.5 2.8-1.5h6.2l2.3-1h2.7l2.8 1 1 3.8 2.2 0.2 0.3-1 5.2-2 1.8-2h5.2l2.3 1.5 0.7 1.5 7.8-0.8 1.7 3.5 5.8 0.6 2 2.7 3.5-0.8v-0.7l2.5-1.5 5 0.2 2 1.8 0.5 1.5 2.7 0.5v2.5l-1 1.5-7.2-1-1.5 1.5-2.5 0.2-2.8 3.3h-3.7l-0.8-3.3-2-0.7-4.2 0.5-2.8 2.5h-2.7l-2-3-4-0.5-3.8-3.5h-1.7l-3.3 2h-4.5l-3-3h-1.2l-3 2h-7.8l-0.5-1.5-1-0.5h-1.7l-2.3 2h-17v-4.8l1.8-1.7zm-240-3l18.5-0.5 3.5 1.5v2l-1.3 1.2h-8.7l-3.5 1.8-10-0.8-3.3 1.8h-9.5l-0.7-2v-3zm362 15l-2.5-1.3-0.5-1.2 0.7-4.5h2.8l1.5 1.2v4.8zm42 2v-4.8l1-1.2 21.2 2.7 1.8 1.5v3.8h-14.3zm62 6v-2.5l3.8-2.3 0.5-2.2 4.5 0.2 1.2 1v4.8h-1.7l-0.3 1zm51 6.8l0.3-6.3 6.7-0.5-0.7 3h-1.5l-0.8 1.2 1.3 2.8z"/>
		<path id="Path 12" class="s12" d="m866 484v-1.8l0.8-0.7 3.7-1 7.3-6.5 1.2-2.3 5.3-3 2-2.2 4.5 0.5 1.2 1.3v2.7l-1.2 0.2-2.5 3-0.3 2.8-1 4h-3.5l-0.5-4.3-3.8-0.7-8.7 9.5-4.5 0.5zm-717-9l1.2-0.8 2.8 1.8 0.2 2.2 1.3 1.5 1.2 0.3 0.5 1.2 5.5 3.5 0.8 1.3h1.5l2.7 3.5-1.2 0.7-0.3 3.5-1.2 0.3h-1.5l-1-1.3-3-1.2-0.8-2-5.7-2.5v-3.3l-1.3-1.5zm763.5 6h2.5l2.8-3h6l-1 1-0.3 2.5-2.5 3.5h-3.7l-1.3 2.5v3.5l-1 0.3v1.5h-4l-0.2-6 0.2-2 1.8-1.5zm-99.3 2.5l4.8-0.3v4.8l-0.8 1-3.5 1h-4.7l0.5-5.8 0.7-0.2zm-510.2 3.7l0.2-2.2h2.8l1.7 3h5.3v6l-1 1h-2l-1.8-1.3-1-3.2-3-3zm209 2.7v-4h3.5l4.3 2 1.7 2h3l0.3 2.3 0.7 0.2-0.5 2.5h-3.7l-2.5-3.5-4.8-0.5zm-21-1l5-1h7v5l-11-1-1-1zm128.5 1.5l2.3-2.5h6.7l3.3 1.3 0.2 0.7v3l1 5.5v4.5l-2.7-0.2-1.5-2-2.3-1.3-1-2.7-1.5-0.3-0.2-2.5-1.8-1.5-2.5-0.5zm15.5-0.5v-2h12l3 1.5v2.5l-1 1h-1.7l-1.3 3-6.7-1-0.5 3h-2.8l-1-5zm219.5-1l5.5-1v4.5l-8.2 3.3-1.5 3.5-1.8 1.8h-3l-3.5-2 0.3-2 5-0.6 2.2-0.9 2-2.3 1.5-0.3zm-480.4 2h1.9l1-2 3.8 0.3 2.5 2.3 0.5 1.4 2.2 0.1 0.8 2h4.2v2l-1 3h-6v-2.5l-2.5-2.5-7.5 1v-1zm39 0v-1.8l1-0.2h2v3h-3zm55 0l7.5-1 0.8-1h4.7l1.3 2h1.2l-0.5 3h-9.7l-1.8 1-1.2-1.5-2.3-0.5zm115 1v-3h12v2l-1.5 1.5-3.5 0.5h-5.7zm-158 0v-1.8l1-0.2 2.7 1h3.3v3 3h-2.8l-0.2 2h-4zm122 1v-3l3.2 1h9.8l2 2v4h-5.8l-0.2 1h-3.8l-1-1.8-2.2-0.2v-1.5zm-293 2.5l0.2-4.5h6.3l0.5 2h2v3.5l-1 1.5h-5l-0.3-2zm183-3.8l2-0.7h7l0.5 1h3.5l2.8 0.2 1.2 1v3.8h-1.7l-0.5 1.7-1.8 1.3h-4v-1.8l-1.5-1.2-5.5 0.5v-2.5l-2-1zm269 9.2v-7.7l1-1.3h4.5 0.5l1 2v2.5l-2 1.8-0.2 2.7zm51.2-4.5l1.5-2 2.3-0.5 2.2 0.3 0.8 2.7-6 1zm139.7 8.5l2.3-1.5 1.2-5.2 2.3-1.5 0.2-1.8h4l3.3 4.8 3.2 0.7 0.8 1 2.5-0.2-0.5 5.2 0.7 3-1 0.8v1.7l-5.7 1h-7.3l-2.2-1.2-0.3-2.5-3.5-2.3zm-226-7.5l3-0.5 2.3 0.3 3.2 3.2v1.5h-8.5zm49 2.5l3.8-0.7 0.5 1.5 1 0.5 0.2 1.7-1.5 2h-3v-1.7l-1-0.8zm20.3-0.5l2.7-0.2 0.5 1 3.3 0.5 0.2 4.2h-1.2l-1 1-5.5 0.3-0.3-1.3v-4.5zm-506.2 2.5h9.7l3.5-2h3.8l1 1.5-0.8 5.3-1.7 1.2h-5.5-3l-5.8-1-1.2-2zm455.7 0l0.3-2h6.5l1.5 0.5v1.5l-1.5 0.8-0.5 3.2h-1.5l-2-1.5h-2zm-559.8 2v-2.2l2-0.3 1.5 0.5v1l-0.5 1zm89 3l0.3-4h4.7v3l-1.2 0.5-0.8 1.5h-2.5zm-97 6h-1.5l-2.2-2.5-0.3-5.2h5v6.2zm-69 3v-3.7l1.5-1.3v-1h2.5l0.5 1.3h1.8l1.2 1v3.7l-1.5 3h-2l-2.5-0.7zm31 2.7v-3.5l1-0.2h8l1 3v2h-5.5l-1.5-1zm783 2.2l0.3-2h6.7 3l-1 1.3v5.2l-1 1.5h-3.2l-1.8-1-0.2-1-2.3-0.5zm-662.5 5l0.3-1.8 4-1.2 0.2-3h3l5.5 2h2.5v4l-2 0.3 0.5 4.7 1 1-1.5 3h-2l-1.2-1.8-3.8-0.2v-3l-5-1.8zm38.5-3l0.3-0.4h2.2l0.5 3.5h-1.7l-1.3-1.1zm352 9.1v-4h1l2 1v3zm296 2l-0.7-1.3-3-0.5v-4.2l5 0.5 0.5 1.2 1.2 0.5v1.8l-1 2zm-289-3h4.3l3.2-2 0.8 1h3.7v4l-4.5 3.2-2.5-1.2h-3v-1.5l-1.7-0.8-0.3-1.7zm169 0l0.8-1.5 2.2-0.5h5.5l0.5 5-1 5h-1-3l-3.7-0.5-2.3-1.5v-1.8l1.8-1.5zm-737.3 3.5l1.5-4.5 9.8 1 2 1.5-0.3 3.5-6.7 0.3zm585.2-0.5l1.3-3.3h4l1 0.8-3.3 4h-2.5zm138 12l-4.2-2.3-0.3-2-2.2-1-0.3-2.8h8.8l0.2 2.3 2.8 1 0.2 0.8v4z"/>
		<path id="Path 13" class="s13" d="m293 473v3.5h-4v-3.5zm525 10.3l3.5-0.8 3 2.5h4l2 1.2-0.3 2-1.4 0.5-2.8 3.3-2 0.7 0.2 4 1.5 0.5 0.5 1-1.5 0.8v0.7l2.3 1.3-0.3 2.5-7.7 0.5-8.5-0.5h-1.3l-0.7-1.8-0.2-3h-3l-1.5 0.8v1.2l0.7 1 1.5 0.3v2l-7 0.2-2.8-0.2-0.2-2-1-0.5-0.5-3-2.5-1-6-0.5v-3.8l-0.8-0.7-8-0.5-0.2 6-6.5 0.5-3.5-1.5h-3l-0.8-2.8-2.2-0.2v-2h6l0.5-1-0.2-1.8-3.5-0.2-0.5-1.3-2-1-0.3-2.7 12 1.5 5 2.5h8l3 1.7 4.5 0.3 1 0.7 8.3 0.3 6.2-1h4.7l3.5-1 0.8-1zm19 15.3v-2.6l0.7-0.7 3.5-1 2-1.5 6.8-1.8 1.7-1.7 2.8-0.3-1.5 4-1.5 0.3-2 2.2-2.3 1-5 0.5-0.2 2h-2zm-94.8-3.5l1.3-1h4.5l0.5 6-1.8 0.8-3.2-0.5-0.5-1v-3zm144.8 24l1.9-2.5v-3.5l1-3.3 1.8-0.5 2.2-2.2h3l3.5 2.2 0.3 2.5 2.2 1.3v3l-0.5 1-2 0.7-0.2 4-2.3 2.3h-5.5l-4.7-1zm-25.5-10l4-0.8 1.7 1.3 0.8 3.2 1.2 0.5 0.5 1.3 4 1.5 0.3 3h-6.8l-0.2 2h-4-4.5l-0.5-1v-3.8l2-1.7v-2.3l1.2-1zm-676.5 12.5l3.3-0.2 1.5 2.2h2.2l2 1.5v3l-1 1.5-1.7 0.5-3.8-0.5v-1.2l-1.5-1.3-1-2.5zm54.3 2.5v0.5h-1v-0.5zm-19.8 8l-1-1-0.5-4.7 2-0.3 2 0.5 0.5 1.5-1 1.3-0.2 2.5zm560-3l0.5-0.5 2 0.5 3.5 5-1.5 0.7v4.3h-5l1-5zm-142.8 4.7l2-3 2 1.5-0.5 1.5zm-42.7-0.7l0.3-1h0.7 3 4l0.3 1.7 1.7 0.8v1.5l-2.7 1.5-1.3 2.5h-1l-3-0.8-2-3.7zm151.5 23.3l0.5-5.1-3.2-4.7-2-1-0.3-2.5-1.2-0.8-0.3-6.7h5l3.3 1.5h2l0.7 1 0.3 2.7 2.2 1 0.3 2 4.2 2.3v5l-4.2 0.5-0.8 1.2v3.3l-0.5 2-2.7-1.3-2.3 0.3zm-91.5-10.3h-2.7l-1-0.7-0.8-1.3 0.5-2.5 3.3 0.3 1 1.2zm108 0v-4h6l0.5 1.3 1.5 0.7h4l1 2v5.5l-1 1.3v3.2h-3v-0.5-4.2l-1.3-1.3-5.7-0.5-1.5-0.2z"/>
		<path id="Path 14" class="s14" d="m622 519.3l1-0.3h3l1.5 3.8 0.3 4 2.7 1.5v2.2l-1 1-3-0.5-2.8-1.5v-3.2l-3.2-0.8-0.8-2.7 2-2zm80.5 9.2l1-0.5 0.5-2.7 1.8-2 4.8-3 2.7-0.8 10-0.2-0.3 5.2-2 1-3.7 0.5-0.5 3.3-2.3 1.2-2.5 0.3-2.7 1.5-5-1.8zm-65.5 0l0.5-4.5 3.3-3 7.2 0.5 2.8 1.5h6.7l3.5-3 23 0.5 4.5 1 2.8 1.5 0.7 3.5-8 0.8-0.2-3.5-4.3-0.8-2.5 1v3.8l-1 0.5-0.5 0.2-12.5 0.5-1.8 1h-1.9l-8.1-0.2-5.5 0.2h-1l-3.5-1.2zm-319.4 13l-0.6-3 1.8-3.5 4.7-0.5 0.8-1.5 2.5 0.2 0.2 0.8h3.5l0.8-1h7.7l1.5-2.3 2.8-1 1.5-1.7 5.7 0.2 2 2.8h8l2.3-1h4l3-2h11.7l2 2h4l9-1 1.8-0.8 0.5-1.2 22 0.5 8.7-0.5 6 1 1.5-1.3 8.5-0.7 0.8-0.8 16.7-0.2 1.5 1h12.5l0.5-0.8h4.3l2.5-1.2h3.2l2 1h7l5.8 2 9.2-1 2 1 3.8 0.2 1.2 1.8h3.3l2.5-1.5 5.2-0.5 3.5 1v3l-23 0.2-7.7 0.8-1.3 0.7h-0.2l-0.8-0.2v-3l-2.5-1.5h-17.2l-1.3 2h-3l-0.7-1.3-2.8-0.7-15.5-1-2.5 1h-7l-3.5 1.5-6 0.2-2.5 1.3h-8.2l-0.8 1-1.5 0.2 0.3 4.5-1.3 0.5-4.2-0.5 0.2-3.5-1.2-1.5-17.5-1.7-5.5 2-3 2.5-4 0.5-0.8 0.7 0.3 3.3-5.5 1h-6.8-2v-5l-3.5-1-5.7 0.2-1.3 1.3-0.5 4.5h-0.5-3.2l-0.5 1-5.8-0.3-1.5 0.8-14.5-0.3-3.7-0.2-3.5 0.7-2-0.2zm253.5-11.5v-3.8l0.7-0.5 2.3 2 0.2 1.5zm-542 9.5v-2.7l3.3-2.8 1.5 0.5 6.2 1.8-0.2 1-1.8 1.7-3 1.3v1.7l-2.2-0.5-3.8-1.7zm268 3.2v-2l1-1.5 3.3-0.2 1-1 3.5-1 5.5 0.5 0.7 0.7v3.8l-3 0.7-1.2 0.3-10.5-0.3zm-196-2l1-0.7h6l1 1v5.5l-3.8-0.5-2-2.5-2-0.8zm28.5 4.3l2.8-0.3 2.5-1.2h7.7l1-1.5h2.5 11l4.3 2h4.7l0.3 2.7 1.7 1.8v2.2l-2.5 0.3-6 0.2-4.7-1 1-1v-2.2l-1.8-0.5-0.7-1.3-3.3-0.2-2 1.5-2.7 0.5-8-0.5-2.3 1.2v3l-6.7-0.7 0.5-4.5z"/>
		<path id="Path 15" class="s15" d="m562 474l0.3-1h3.7l1 2-1 3h-2.5l-1.3-1.3zm-417.4 9.1l-0.1-8h4.5l1.8 7.2 1.2 1.5v3.3h-2l-3-3.8zm19.5 3h-1.5l-0.7-1.2-5.5-3.5-0.5-1.3-1.3-0.2-1.2-1.5-0.3-2.3 3.5 2 2.5 0.3 0.5 1.2 2.8 1.5 0.7 1.8 2.5 1.5zm720-2l-0.5-3h3.5v2.7zm-266 3l1.3-1.3 0.5-3.7h5.7l2 1.5 3.3 0.3 0.7 2 2.5 0.5 1 1.7v2h-3l-0.2-0.7-3.3-1.3h-6.7l-2.3 2.5-1.2-0.7zm127-4l1-0.3 4 1.3v3l-4.5-0.3zm-552.8 17.8l1.5-0.1 1.3 1 0.7 3.3h2.3l2.2-2.5 4.5-0.5 0.8-0.8h4l3.2-2.2h8.8l3.2-1.5 9.5-0.5 1-1h7.3l5 1 1.5-1.5v-4.5l-1-1-1-4 0.2-3h4.3l3.2 1.5 3.5 0.5 0.8 2.2 2 0.8v2l-0.5 1h-6.3l-0.2 4.5-1.5 0.2v1.8l-1.5 2.5h-3.8l-3.5 2h-9.7l-2.5-2h-4.8l-2.7 3h-4.8l-0.2 4h-2.8l-1 1-0.2 2h-2.8l-0.7 1.5-1.3 0.5-0.2 3-2 0.2v3.8h-7.8l-2.2-0.5-1.8-1.8-2.2-0.2v-3.8l-1.3-1h-1.7l-1.5-9.5zm113.7-15.7l0.3-2 6.5 0.2 1.2 1v3.3l-1 0.5h-5.2zm24 3.5l0.5-5.3 5.5-0.2 2.2 1.5 0.8 3.5-8 0.5zm47 0.5v-5h3.5l3.2 2h2.3v5 2h-2.3l-0.5-1.5-2.5-2.3zm484-1l0.3-3.5 4.7-0.5v2l-1 0.8v1.2zm-400-2.5v-0.5h5l1.5 1h3l1.5-1h6.5l0.5 1.5 2 0.5v2h-4.7l-0.8 1-7.5 1h-3.7l-1.5 1h-0.5l-1.3-1.5zm186 2.5v-3l10 1v4 2h-7v-2.5zm-375 2l1.3-3 3.7-1 2.5 2.8 2.3 0.5 2.2 2.7v5h-8.5v-1.2l-3.2-2zm237.5 0l-1-1-0.5-3h4v4zm-151.5 0v-3h2.5l1.5 1v2zm92 2v-4h3l2.7 1.7 0.3 3.3-2 0.2-1.3-1zm81-1v-3l5.3 0.8 1.2 1.2h2.5l0.8-1h4.7l1.5 1v3h-2.7l-1.8 3h-3.5l-2.2-1-3.5-3.7zm130-1v-1l13 0.5v7.5l-3 0.5-0.3-3-6.7-0.5-2.8-2zm38 1l2.3-0.8v-0.7h2.2l2.3 0.7 1.2 1.8-1 1.2v7.8l-0.5 1h-7.5v-1.5l-1-1.5-0.5 1h-6.5l-2-1.3-1.2-2.5-2.5-1.7-2.8-0.8-0.5-3.7h15.5l0.5 1zm-404.5 2l0.3-1.5 4.2-0.5v2.5l-1 1.5h-2.5zm460.5 2.2v-3.5l1-0.7 5 1v2l-2.2 0.5-1.5 2zm-409-2l1.5-0.3 3.5 0.5-0.8 2.8-2.7 1.2-1.3-1.2zm386 5.2l7-0.5 1.3 1.5-1.3 1v4.5h-5.5v-1.2l-1.5-1.3zm-656 12.5h-3.5l-0.5-1.5-1.7-1.5-0.3-3h6zm-29-1l6.5-1 1 1v1l-1.5 1.3v3.7h-6zm199 20.6l-0.2 0.7-3.3 1.2h-3.5l-2-4v-2.7l1.3-1.3h1l3.7 0.5 1.3 1h1.7zm336.5-1l0.5-3.2 2.5-0.5 1.3 1.2 8.2 1v4h-0.7l-0.3 1h-3v-1.7l-1.2-1zm-8.3 1.7l1.8-0.2h4v2l-3.8 1.5-1.2-0.5-0.3-1zm193.8 3.7v-4h3l-0.3 2.8-1.7 1.5zm0 7v-5h1l2.2 1.5 3.8 0.5-1 5h-4l-1.5-0.8z"/>
		<path id="Path 16" class="s16" d="m956.8 410.8l4.2-1.3 0.5 3 1.3 2h5.2l2 0.7 0.3 1.8-2 2.5-2.5-2.3-3-0.2-3.8-2h-1.5zm-556.8 12.2v3h-5v-3zm3 3v-3l8 0.5v3.5h-7.5zm10.8-2.5l4.7-0.5 2 1.5h4.3l10.7-0.2 0.8 0.5-0.3 3.2v3h-0.5l-5.7-1-2.8-2h-7-3.5l-2.5-1zm34.3 0.5l4.3-0.2 4.5 2.2h2.7l1 1-1.5 5h-6l-1.5-1h-3.5-3.2l-2.8-1-1-2v-3zm303 8v-4.7l1-0.3h5l-0.2 3.3-0.8 1.7zm-275.5-4l11.3-0.5 0.7 0.5 1.5 1h8 3l10 0.5v1.5 5.5l-3.7 0.5-8.5-1-2.8 1h-10v-2h1l0.5-1-0.5-2.5-2.7-0.5-0.3 3h-7zm436.5 3.5l5-2-0.2 3.3-1.3 1.2h-3.5zm-394 0.5l7.5-0.5 3.5 1.5v6h-10.5l-0.5-1zm38.8 2l1.7-0.5 1 0.5 0.3 1.5-1.8 0.8v4.7h-6.5l-7-2-1.5-3v-2l13.5 0.5zm333.3 10l3.7-1.7 2-2 3.2-0.8 1.5-1.7 3.8-1 3.5-2.8 0.2 2-1 4-2.5 2.5-3.5 1.8v1.7h-4.7l-3.8 4-4.2 1.8-5 5.7-10 1.5-5 3h-3l-0.8 1-3.2 0.3-7 6.5-3.3 0.2-2 1v5l-4.5-0.2-3-2.5-0.2-1.3 4.5-2.2 0.5 0.2 4-4.5 4-1.2 4.5-4 4.7-1.5 4-3.5 4.3-1.3 3.7-2.7 3-1 0.5 2.7h3l1.3-3 3.7-0.5 2.3-1.2 0.7-1.3zm-311.9-1l0.9-5h4.5 3.3l1.2 2.8v4.7l-7.7-0.5-2-1zm24.5 4v-1.5l2.2-1.7 0.3-2.5 3.2 0.2 2.8 1.5v6h-7.8zm17.5-2.2l0.5-0.3 3.5 0.3 1.8 2-1.3 2.7-3.7 0.5-0.8-1.5zm10 4.3l3-0.5 0.5-1 2.8 1.5h1.7v5h-6.7l-2-0.8-0.3-1.2v-2.8zm126 10l0.3-2h4.2l1.8 3.5-4.3 1.5-1.5-0.2zm-651.5 14.7l7-4 2.5 1.3v2l-3 2.7v4.8l-7 1.5v-2.8l1-1.7zm835.5 60.2l-1.7-1.2-0.3-3.5 1.8 0.2 2.5 1.3 1 1.2-1.3 2zm-213.2 9.5l0.2-2.2 2.5-1 1.8 0.2 1 2.3-1.5 2.5-1 0.2zm-518.8-1.5l2.5-0.5 0.3 1.3 2.2 1.7v2.5h-3l-1.5-0.2-0.5-1.8zm35 6v2l-1.5 2-8-0.5-1.5-4v-2.2l1-0.3 4.8 0.3 1.2 1.7zm356 11v-5l-1.5-0.7-0.7-2.8-1.5-1.7-0.3-3.8h3l0.3 4.8 1.5 0.7 1.5 2.3 2.5 1.7v1l4 3.5 2.7 8h3.5l0.8-0.7 0.2-4.3-0.7-1.7-2.3-1.3-1.7-2.5-1.3-3.5v-2.7h5.3l2 1.2 0.2 1.3 2.3 1.7 0.7 2.3 5.8 4.7 1.2 2.3 2 0.7 0.5 3-0.5 1.5h-4.5l-0.2-3.5-4-0.5-1.3 1.8-0.5 5.7-1 0.8-0.2 2-1.8 1.7h-3v-3.7l-1-2.5-2-1-0.7-2.3-2.3-2.5-0.2-3.5-2.8-0.5-2-2zm-384-10.5l1.3-1.5h1.7l1 1h4l-0.2 5-0.8 1-3 1-1.2-1.5-2.3-0.5-0.5-1zm413 4.5l0.8-0.7 2.7-0.3 4.3 3h6.2v6h-2l-6-1-5.2-1.7zm160 8h4.5l1.5-1 1.7 0.5 0.3 2.5-1 2-3 0.2-4-1.2zm-146 13.5v-2.5l5.7 0.2-1.2 3.8zm-392 14.5v-1.8l2-0.2 1.2 0.7v1.3z"/>
		<path id="Path 17" class="s17" d="m866 486l4.5-0.5 8.8-9.5 3.7 0.8 0.5 4.2 0.5 3-0.3 2.3-1.5 2.2-1.5 0.5-1.5 3.8-1.5 0.7-1 3.5-2.2 2v1.5l-4.5 0.5 0.2-3 1-0.3 1.5-2.7 2-0.7 0.3-4.5-3.8-0.8-2.5 2.8-3.7 0.2v-4-1.2zm49 5v-3.5l1.2-2.5h3.8l-0.5 3.7-1.5 2.3zm-584-2.5l8-0.5 0.5 2.2 1.7 1.8h2.3l2.5 1.2 0.2 3 1.3 1.3-2.3 1.7-4.5-0.2-1.7-2-2.8 0.2-0.2 0.8-3.3 0.5-0.7 4-6 0.2v-2.8-4h3l1.7-1.7zm20.1 5l1.9-0.5 1.3-2.8 3.7-0.2h4l4.5 5h3.5v4l-9.7-1-2 1.7-2.5 1.5-2.8-2-1.5-2.5-1.2-0.5zm163.5 3.5l-0.5-6 4.7 0.5 2.5 3.5h3.8l0.5-2.5 5.5-1.5 2.2 0.3 3.5 3.7 2.3 1v2l-5.8-1-0.2 2h-3.8l-0.7 1.5-3.5 0.5-4.8-3.7zm68.5-5l1.3 1h5.7l3.5-0.5 1.5-1.5 3.5 1h10.5l1 2v3l-7-1h-3l-4.2-0.5-0.3-1h-2.7l-1.8 1.5h-7.5l-0.2-0.8-5.5-1.2-0.8 0.5v3.5h-2-6l-2-0.5v-3.5l4.5-0.5 0.8-1 2.5-0.5zm-176 6h2l3.2-3.3 0.8-2.7h3 1v3l1 1v4.3l-4.8 1.2-1.2 2.5h-4.3l-0.2-0.8-3-1.2h-6.5l0.5-4zm85-3v-3l11 1h6v6l-6 0.5h-2.3l-1-2.5-1.5-1.3zm233-1.9l3-0.6 1.8 0.5 2.2 2h7v3l-7 0.5-7-0.5zm117 6l3.5 2h3l1.8-1.7 1.5-3.5 8.2-3.3 2 1.5-0.5 2.5-6.2 2.5-4.5 4.5-0.8 2.5h-5-3l-1-2.5-1-0.5v-4zm65-4l1.3-2 1.7-0.2h4l0.8 2.2h2.2l0.3 2.8-0.5 3.5-2.5 0.2-0.8-1-3.2-0.7zm-441 0v-1.8l2-0.2 2.2 0.5 1.3 1.5 1.7-1h9.8v3.5l-2 0.2v2.3 5h-2.3l-1.2-1h-5.3l-0.2 2h-2v-2.5l-2-1.3-1-2.2zm76.5 1l1.7-3h2.8l2 1.5v1.5l-6.5 1zm-232.5-1h2l1-1h2.5l-0.3 2.8-1.5 0.7-0.7 1.5h-3zm64 1l7.5-1 2.5 2.5v2.5h-10v-1zm-123 4l1.5-2.5v-1.7l1.5-0.3 2.7 0.5 0.3 2v3h-1.8l-0.2 0.8 0.2 4.5 0.5 0.7h3.3v3l-1 0.8v3.2l-2 0.5-5-2.5-5.5-1-1.5-1v-2h5.5l1.7-1.3 0.8-5.2zm33-3h3l0.2-1h0.8l8.7 0.8 2.3 1.5v1.7l-1 1h-3.5l-1.8-1.7-2-0.3-0.7 1h-2.3l-1 1.3h-2.2l-9.5-0.3v-2l0.5-2zm166 3l1.7-1.3 0.5-1.7h1.8l1 0.5v2.5l-1.5 2.5-2.5 0.5h-1zm106-2l0.2-1h5.8l0.2 1.3 1.8 0.7v3h-1.5l-2-1.5h-4.5zm202 0l6-1h3l3.5 1.5 0.5 4.5-1 1.3v2.7h-8l-0.8-1.3-3.2-1.7v-3zm-490 2l0.2-1h2.8v3h-3zm480.5 0l3.5-0.3 2 1.3v3l-2 1h-5l-0.3-4.3zm-593.5 7l7.5-1.5 1.8-1.7 0.2-2.8h6.5l1.5 1h2.3v4h-4l-3.3 2.5-4.7 1.5-0.8 1-5.2 1-1.3-0.2-0.5-2.8zm651-5l2.5-0.2 0.8 1.7-3.3 0.5zm-672.5 1l7.5-0.5 1.3 1.5h2.2l6.5 2v2.5l-3.7 1-7-0.5-0.3 5-12.7-1-0.3 4h-1.7l-0.5 1-2-2-0.8-3 1-1.5v-6.2l1.3-1.3h5.7 3zm584.5 1l0.8-1.5h1.2l1 0.8v1.7 2h-3zm-502.9 6l0.2-2 1-1h2.7l0.5 1h2.5v2l-0.2 1.3-2.8 2v5.2l1 1.5v2h-2.5l-5.5-2v-4l2.3-1.5zm639 1h1.5l1.2-1.7 2.3-0.3 0.2-1 2 0.3 0.3 0.7-0.3 2.3-1.2 1v2.2l-2 1.8v3.7h-5v-2-2l1-1.5zm-664 3.8l1-3h1.7l1.3 1v3.7l-3.5 0.5zm-126.5 1.3v-2l2-0.8 2.2 3.8h-3.2zm106.7 2h4.3l1.5-2.8 1.2-1.2h1.3l1.7 0.7 1.3 2 1.7 0.8 1.8 4v3l1 2.5h-11l-1.8-2-3.5-0.5-1.7-1.3v-2zm-90.8 1l4.5-0.2 3 0.2 1.5 1h5.5v1 4l-1.2 0.5-0.8 1.5h-1.7l-1.5 1.8-5.3-0.8-0.7-1.2-1.3 0.5v1.5l-1.5 0.2-1-3.5v-4.5zm23.5 2v-2l13.8 0.3 1.2 1v3.7h-5.5l-2-2h-6.5zm125 5v-1.5l-1.7-0.7-0.3-2.8h5l0.8 3-0.8 2zm374 3v-2h6.5l1 0.5v1.5l-3.2 2h-4.3zm224.3-1l6.5-1 0.5 1h13.7l0.8 1h1.2v4.8l-3 0.2v-1l-1.5-1h-5.7l-4.3 2.3-4.5-1v-0.3l-1.2-2-2.8-1.5zm-670.2 1l0.8-1 2-0.2 1.5 1.2 0.2 4.5-3-0.5-0.7-1.5h-0.8zm409.3 2l-0.3-1.2 0.7 0.2h3l-0.2 1zm165.5 3.5l0.2-0.5h3l1 5.5-1 1.3v1.7l-1.7 0.3-1-2.3-1.8-0.2-0.5-2.3 1.3-0.2zm-359.3 6.5l0.1-1h2.5 2l-0.3 0.7zm-335.5 5v-2.7l1 0.2 1 3.5v0.5h-1.2z"/>
		<path id="Path 18" class="s18" d="m962.3 408.8l1 0.4 4.7-1.7v7h-5.2l-1.3-2-0.5-3zm-113.2 67.2l0.5 1.3 1.2 0.2 2.5 2.5h9.3l3.7-2.7 4.5-1.5 5.5-6.8 6-2.5 4-4.2 9.5-4.8 1.5-1.7 3.5-1.8 3 0.3 1.3 1v3.7l-0.3 1.3-2.7 2.5v2.2l-3.8 2.3-4.2 4.7h-1.5l-0.5-1v-2.7l-1.3-1.3-4.5-0.5-2 2.3-5.2 3-1.3 2.2-7.2 6.5-3.8 1-0.7 0.8v1.7l-4.8 0.5-0.2 3.5h-1l-5.5 1-2.8 0.3-1.7 1.7-6.8 1.8-2 1.5-3.5 1-0.7 0.7v2.5h-2.3l-0.5 0.8h-4l-4-1-0.5-1-1.5-0.5-0.2-4 2-0.8 2.7-3.2 1.5-0.5 0.3-2-2-1.3h-4l-3-2.5 1.5-1.5 18.2-9 0.3 1.3 3 2.5zm-713-2v-4l3.7 0.5 0.3 2.5v1zm430-1v-1.8l3-1.2h1l-0.5 5h-2.5zm-383 0l0.2-2h3.8l-0.5 4h-1.8zm317 5h-7l-1-2.5v-3.5h1l5.8 0.2 1.2 1v1.8zm223-2l0.5-3h4l3.5 1.5 0.8 1.2h5l2.2 0.8v4.5h-6l-1.5-1h-5.5l-1-2.8zm-619 6l7-1.5 1.5 1.5-0.5 2-3 1.3v2.7l-2 0.3v3.7l-1.2 0.5v1.8l-0.8 0.7h-4l-0.7-2.5-5-0.5-9 9.8-2.3 0.2h-1.7l-2.5 2-3.8 1h-6-3v-5.5l0.8-1 3.5-1.5h5.2l2.3-0.7 3.7-3.3 7-0.5 1-2.5 3.8-3 2-0.2 0.7-2.8h3zm608 3h2l1-3h5l1 1v2l-1.7 0.3-1.3 1.2v3l0.5 1 2.5 0.8v1.7l-1 1h-7l-1-2v-0.5zm38 2v-3h1 10l0.3 2.8 2 1 0.5 1.2 3.5 0.3 0.2 1.7-0.5 1h-6l-5-1v-2.2l-1.7-1.5zm-22 1l1.2-0.3 1.3-2.5 2.5-0.2h5.2l0.3 2.5 4.5 1.7 0.5 4.8-1.3 1h-3.2-7l-2.3-2-1.7-0.5zm49 10l0.2-6 8 0.5 0.8 0.7v3.8h-2.8l-0.5 1h-4.7zm93 3l4.5-0.5 0.5 3.5-2 0.7 0.7 7.5 1.5 1 0.8 1.8 3 1v3h-2-3l-0.3-3-4-1.5-0.5-1.3-1.2-0.5-0.8-3.2-1.7-1.3v-1.2l1.2-0.8 0.3-2.2 1.2-0.8v-1.2zm13 15v-0.8l1.8-1 0.2-3.5 1.3-2.7 2-0.8 0.2-2.2h5.5v2l-2.2 2.2-1.8 0.5-1 3.3v3.5l-2 2.5h-4zm-702.8-1.3l0.8-1.7v-3.8l2.5-1.7 1.3 0.5 2 4.7h0.7l0.3 2.5 2.2-0.5 0.5 2.3 3.5-0.5 2.3 0.2 1.7 1.8 2.3 0.5h7.7l1 1-0.2 3-4 1.2-0.3 1.8h-5.2l-0.8-1h-4.5l-2-1.5h-2.2l-1.5-2.3-3.3 0.3-1.7-4-1.8-0.8zm59 9.3l3.8-1v2l-3.8-0.5zm-11.2 2h3l0.7-2h3.3 3.2v0.5l-1.2 1.2v2.8l2 4h3.5l3.2-1.3 0.3-0.7 7 0.7 1 1 4 0.8 1.7 0.7-0.7 0.5v3.8l3 2.2 1 4.8-1.5 0.7-1 2.8h-1.3l-1 1.2-7.2 0.3-1.5-1h-3.5l-3-1-4-1-1.3-1.8-4.7-0.2v-12l-1.3-1.8-6.5-0.2-1.2 2.2v13.3l-1 1.5h-4l-1-1v-6l-2.3-2 0.3-4h2l1.5-3 1.7-0.3 0.3-2.5 1-1.2h4.5zm393.9 9.5l3.3-4h0.5l4.3 3-2 1.7v3.8l-4.8 0.5-1-0.8zm14.8-1.7h3.5l0.5-1.5 4 1 3.2 1.2v3l2 2v2l-0.5 2.5 0.8 1.3 1 0.7h2.7l-0.5 5-0.2 1.8-1.3 0.7v2.5l-1 0.3-0.7 8.5-0.8 1h-0.7l-1-3-2.8-1.5-3-0.3v-6-4.7l-5.2-5-1.3-11.3zm-45.7 1.3v-2h3v2.5l2 3.7 3 0.8v3.5l-1 1.5h-3l-2-2.5v-2l-1-0.5zm255-1l3-0.3h4l4.5 3 2.5 0.3 0.2 2.2 1.8 1v1l-1 0.5v3l-2-0.5-8-2v-3.2l-1-0.3-0.3-1-3.7-0.7zm-62 5v-4.3l1.5-0.7 3 4.7zm-61 1.8l1-1.3v-3.5h1l4 2 0.5 2.3-2.5 1-0.3 2.2-2.2-1zm-518 3.3v-2h3v3h-2.3zm552 7v-5h5l0.5 3.2 1.5 0.3v5.5h-2l-1.2-3zm17 5v-3.3l1-1.2v-5.5h3 5.5l1.2 2.5 7 2.2 0.3 3.3h-4.8l-1.2 2v3h-1.8l-1.2 1.5-4-0.5-0.8-1.5-4.2-1zm-1.8 9.2l-0.2-5.2h2v5zm-483.3 23l-6.5-1-1.2-1.5-0.3-1.8-2.7-0.7-1-1.3-0.3-4.5 1-2.5v-2.7l4-0.3 0.5 1.8 2.3 0.7 1 1.8 1.5 0.2 1 2 2-0.2v3l-1 0.2-0.3 3.5zm-45 4.8l2.3-2 1.5-0.3 0.5-1.7h1.7 3.3l3.7 2.2v7.8l1 1v1.5l-1.7 2-5-4.3-2.5-3.2-2.8-2h-1.5z"/>
		<path id="Path 19" class="s19" d="m917 429.5l1.3-1.3 4.5-1.7 1.2 1v1.5l-1.3 3-2.5 2.3-3.5 1-7.2 4.7h-2.5l1-4h2.8l1.2-2h3.5l1.3-1.3zm-464.1 2.5l6.1 0.1 1.5-5h5l9.5 0.2 0.5 0.8 0.5 6 7-0.1 0.7 1.1 1.3-0.1v2h-5.3l-6.5 1.8-5.2-0.5-3-1.3-8 0.5-3.8-2.2zm-17-1v-3h5l1 2 2.8 1h3.2v2.5l-1 1.5h-2l-2.2-2.8-5.5-0.2v-0.8zm-186.3-0.2l3.8-0.8 4.5 0.1v3.5l2 2.7v2.3l-0.8 0.9-11.5 1.6-2.2 0.9-4.5-1h-5.8l-3.5 2-6.5 1.5-13 0.5-1 1-7.2 1-11 4h-3.3l-0.7 1-2.5-0.2-0.3-4.8 2-1.5h1.8l2.2-2 0.8-3.5h3.5 5.5l11-3.2 2.2-0.5 1.5 0.5 5.5-1.3 6.8-1.5 4.5-0.7 6.7-0.3 9.3-1.5zm279.2 2.3l5.5-1 0.5 2h2l0.8-1.3 3.2 0.8 2 0.5v2l1.5 3-1.5 0.5-2.5-1-11.5 0.5zm158.8 7l5-5.5 3-2 5.2 0.5 3 2h9.5l1.5 1v3.5l-2 2v2.5l-2 0.3-1 1.2-1.7 0.5-0.8 2h-6.2l-0.3 1h-6.7l-1.3 1-1.7-0.7-1.3-2.8-1-5.8zm-76.7 9v-6h2.5l2.5 1.8h4v3.7l0.7 1.5 3.8-0.5 1.2-2.7 4.3 0.5v1.7l-1 0.3v2.7h-8.5zm-400.5 92.5l0.2-2.5h5l2.3 2v6h-1.8l-1.2 1.5-2-1.5v-2.5l-2.3-1.7zm385.5 21.3l0.8-0.8h2.2l1.8 1.2 0.7 1.8-1.7 1.7-3.5-3zm188 6.3v-5h4l4 1.2v3.8l-1.8 0.2h-2zm-172 8h3l1.8-1.7 0.2-2 1-0.8 0.5-5.7 1.3-1.8 4 0.5 0.2 3.5-1 0.3-0.2 8.5-1 0.7-0.3 2.5-3.2 4.8-1-0.3-6.3-7zm31.3 10.5l-1.8-1.5h-4.2l-3.3 3h-4.7l-0.8-0.7-0.2-5.3h2.7l1.8-1.7 0.2-6.3h8.5l0.5 3.5 3.5 0.5v4.3z"/>
		<path id="Path 20" class="s20" d="m355.8 501.3l2.4-1.6 0.8 0.5 0.5 5.5 6.7 0.5 0.8 0.5v2.3h-8-1.8l-0.7-0.8-0.5-3.2zm-39.8 1.7l1.8-1h2.7l1.5 1 4-0.2 6-0.3h4l-0.7 4-2.3 3.5-3.5-0.2-3.5-3.5-4.2 0.2-0.8 0.8v3.7l1 1.3-0.2 4.5-1.8 1.2h-2.2l-0.8 1.5-2.7 0.5-0.3 2-5.2 1.5-0.3 1-3.2 1-2.8 2.3-9.2 0.7-2.5 1.5-6.3-1-0.5-2-4-3-8.7 1-1.8 3.5-2.7 0.5-1.3 1.3-1 4.2-3.5-0.7v-6.8l6-2 0.5-3h2l1.3-1.2 2.7-0.8h5.5 4l0.3 2.8 4.2 3.2 12.3-0.7 0.5-1 2.5-1.3 0.5-1.2 2.7-1.3h2l4.3-4.5 6.2-0.5 0.5-4-1-0.2-0.2-1-1.8-0.3zm295.1 4l-0.3 13.3-0.8 0.7h-3.7l-0.8-0.2-1-4-1.7-2.3-10.3-2.2-1.5-2.8v-3.7l3.3-3.8 5.5 1 6.2-0.2 5 1.2zm-139-1l0.3-2h5.2l1.3 1h2.2 5l2.8 0.5v1.3l1.2 0.7v2.5h-3.2l-0.8 2h-3l-1.5-0.2-1.7-2.5-4.8-0.3-3-0.5zm26 4l2.3-4 4 0.3 1.2 1.7h3.5l4 1v4h-7.5l-1-1-6.5 1zm-126-1v-2.5h2l10 1.5 0.5 1h11l0.5 2h9l2.8 1h4.2 4 2l1.3 1h6l1-1h6.7l2.3-1.2 0.2-1.8h9.5l1.3-1.5h1.2l0.5 1.5v4h-8-2.2l-0.8 1h-4.7l-0.3 2h-14.5l-1-1h-5.5l-7.5-2-4 0.3-0.5 1.5-11.2-0.3-1.3-1.5h-11.5v-2.7zm251 5h-3.5l-2.2-2-0.3-5h4.5l1.5 1 0.5 3zm165-3.5v-1.3l1-0.2 1.3-2h1.2 4.5 3 6.5l1.5 0.7v1.3 2.5l-16.7 0.5zm30.5-1.5l0.5-1h2.5l1.5 1v2h-4zm-294 2l0.2-1h3.3l3.2 1.7 0.8 1.3h3.2l1-1 7.3-1 0.7 0.2 1.3 3.5 2.7 2 1.3 3 2.7 1.3h2.8l0.5 1h8l1.7 1-1 1.7-13.2-0.7h-1.5v-1.8l-3.3-0.7-2.5-3.5-4.2-1-7.5-0.3-0.3-1.5-1.5-1-5-0.2zm-281.5 5l0.3-1.5 2-1.3 0.2-2.2 5.5 1 5 2.5v4l-3.7 1-0.8 1-6 2h-2.2zm-109 14l6 1 1.7-2.8 2.8-0.2 1.5 0.5 0.7 2h1.3l0.2 2.7 1.8 1.8v1l-1 1-2.8 0.2-0.2 0.8-2.5-0.8-0.8-1-3.5-0.5-5.2-3.2zm-22 6v-2l4.5 0.5-0.3 1.5zm325 1l0.5-0.8 2.5-0.5 4.3 0.3-0.5 1h-2.8-3.7zm-335 3v-4l6 1v3zm62-1v-0.8l1-0.2 3.7 1 0.3 1v2h-3l-1.8-0.8zm15-0.7l4-0.3h4l0.3 5 2 1.8-1.8 2.2-0.7 4-2.8 0.5-2-0.5 1-8-1.2-2.2-2.8-0.8zm-134.5 6.3l3.8-0.5 3.7 0.7-2.5 1.3-0.7 0.2h-0.8v-0.2h-0.2l-1-0.8z"/>
		<path id="Path 21" class="s21" d="m299 491l0.5-2.3 1.3-1.2 2.2-0.3 1.2 0.3 3 3 1 3.3 1.8 1.2v4h-1-4.8l-0.2 1h-5v-1.8l-2.3-1.4-8.7-0.8v-3h6.5l1 2h2.5l1-1.5zm14-3l1-0.5h4l4 2.5h3v4h-9.5-2.5zm-149 6l1.2-0.3 0.3-3.5 1.2-0.7 2.3 1.5 3.2 4.3 2.8 5.5-0.3 1.2h-2.2l-1.5-1h-6.5-0.5zm345-1l0.5-3h2.5l2 1 0.5 6-1.5 2h-4zm-102 5l1.2-5 2-2h2.8v1l-0.8 2.8-3.2 3.2zm76-4l0.5-3h7.5l1 1v3l-2 1.8v2.7l-0.3 2.5-3-0.3-0.7-1.2-2-0.8v-1.5l-1-0.7zm163 2l1.2-3h1.8l1-1h7l1 6h-5.8l-0.2 4-4 1h-2zm-190-3h5.2l1-0.8h0.5l1.3 2.8v5h-1l-1.5-1h-3.3l-0.2 1h-3v-2.5l-1-0.5v-3.8zm106 4v-4h3.5l1.5 1v3.5h-1.3l-1.7 1.5-1.8-0.7zm71 1.5l-1-5.5h3l1 5zm-262.9 0.5l-0.1-4h4v1 3zm21-2l6.5-1 1 2-0.5 4-0.7 1.8-5 0.2-1.5-1.3-0.8-2.7zm31 4h2l1-2h4l-0.2 3.3-2.5 1.7-0.3 1-3-0.2-1-1.3zm405 0h2l1.3-1.7h4l0.7 0.7v3h-1.7l-0.3 1-6.2-0.5zm-121.5 1l0.5-1h4.7l0.3 2.3-5 0.7zm-481.5 4h3l0.2-1h6.8l1.2 2 5.8 1v2h-1.8l-3.2 2h-4.3l-2.2-1h-4.5l-3-1v-2l0.7-1.5zm-73 2.5v-2.5h2.5l1.5 1v2zm107 5.5l1.3 1h3.7l1-1.5v-2.5h3.5l2.8 0.5 0.7 2-3 2.8-1 4.7h-5.2l-0.3-1h-3.5l-2-1.5v-4zm-201 5h2l1.5-3h3l1 1h3.3l0.7 0.5 0.5 3.5 1 5.8 4 0.2 0.8-2 1-0.2 0.2-3.8h3v4.5l1 3.5-0.7 0.5-0.5 5-2.3 0.3-1-0.8h-6.2l-2.5 1-1.8 2.3-2.5-0.8-1.2 0.5h-2.8l-0.5-1v-5.7l-2-0.8 1-2zm37 1v-2h6.5l2.5 1v2h-9zm151.5 2.5l6-2 0.5 3-1.7 2.3-4.3 0.2zm340 3.3l0.8-2.8h4.7l2.8 0.3 2.2 1.2 0.8 0.8-0.8 0.5v2.2h-1l-8.2-1z"/>
		<path id="Path 22" class="s22" d="m327 519h6.5l1.8-2 1.9-0.5 1.1-1.5 4.2-1.5 1.2-1.3 0.3-3 2.8-0.9 3.7-4.3 5.5 1 0.5 3.3 0.7 0.7h1.8l0.7 4h15.3 11.5l1.2 1.5 11.3 0.3 0.7 2.2h5.8l1 1-0.3 1.8-1.2 1.2h-1.8l-1.2 1h-4-4l-1.5-1h-2.8l-3.2-1.5-7.8-1.5-1.2-1-7.5 0.5-2.3 1.5h-2.5l-1.2 2-3-0.3-1-1.5-1.5-0.2-2.5-2-6.8-0.5-2 0.2-1 1.3-5.7-0.8-0.8 1-2.5 0.8-0.5 1.8-1.7 1.7h-1.3l-0.7 1.5h-6.3l-0.2 1h-1.8l-1.2-1h-3.3l-1 1-5.5 0.5-1.7 2.3v3.2h-3.3l-3 2-7.2-0.3h-0.3l-0.2 0.8-1.8 0.5-5.2 1h-5.8l-0.2 1h-2l-1-0.5-3.8 0.5-0.5 3.3-5.7-2.3v-4.8l2-0.2 3-0.5 1.5-1.5h5.5l0.5-1 6.2 1 2.5-1.5 9.3-0.8 2.7-2.2 3.3-1 0.2-1 5.3-1.5h3l1.2-1.5 6-0.3 1-1.2zm313.1-10.8l0.4 0.8 8 2h5.8l3.5-1 2.5-2h7.2l0.8 1.3 3.7 1.7 0.5 3.5 4.3 1 5.2 0.5 0.3-1h2.2l1.3-1.7 3.2 0.2 1.5 2 2 0.5h11l-0.2 1.8-2.5 2-6.8 0.2-7.5-2h-14.7l-7.3-1.5v-1.5l-3-1.5h-3.2l-5.3 1.5-8.5-3h-6l-7.5 2.8-4 0.2 0.3-6.2zm167 0.7l5.5-0.5 6 0.5 0.5 2h4 4.5l2.7 1.5 1.5 2 7.5 1.3 0.8 0.5v1.7l-0.5 1.5-8.5 0.5-0.3-3.5-5.7-3-4-0.5-14-1.5zm-359 4l0.5 1h7l4 2h3.5l1.2-2h8.8l1.7-2.2 0.3-2.8 4.7 0.3 1.8 2.5 1.5 0.2v2h-5.8l-0.5 2.5-2.2 2.5h-10.3l-1 1h-1.5l-1.2-1h-8.3l-0.2 3h-9.8v-0.7l-3-0.3-2 0.5-0.7 1.5h-7.5v-2l-1.5-1-7.5 0.5-2-0.7-0.5-1.8v-2h14.5l2.2 1h4.3l1.5-2v-2zm297.8 0.8l0.4-0.8h7.5l2-1 4-0.2 0.5 0.7v1.8l-2.2 2v3.7l-1.3 1.5h-1.2l0.7-0.5-3.5 0.5-3.2-0.5-1.5-0.2v-3.3l-2-1.2zm-256.8 1.2h4l1 1h9.5l1.8-1.2 0.2-1.8h7.5 2.5l4 2.8 9 2.2 3.5 2 12 2 3.5 3h1.5l0.5-1h1.5v6l-1 0.3v0.7l-5 0.5-2-0.5-0.7-5.5-3.8-1.5h-9v-1.7l-2.7-1.5-8.8-1.8v-1.2l-1.5-0.8h-4.2l-6 3-15.3-1-1.7-0.7zm236 1l0.2-2.5 2.8 0.5v2zm-16.8-0.3l2.5-1.7h4.3v2l-2.3 1.7-4.2 0.3zm118 9.2l6.7-0.2-0.2 2.2-6.5 1-1-0.5zm-737.3 10.5v-5.5l2.5 0.8 1.5 1.7 4.3 0.8 2 2.7h2.7v4l-1 0.8-5.7-1.5-1-1.3-2.3-0.5-1.5-1.7zm38 1.5l1.8-2.5h1.7l1.8-2h1.7l5.3 3.2 3.5 0.5 0.7 1 2.5 0.8v4h-2.5l-1.5-1h-4l-0.2-2.5-3.3-1.5h-2.7l-2 3.7-2.8 2.3h-9.5l-1.5-1h-2l-1.5-1h-3.5l-1-1v-3l4-1h4.3l1 1 2.7 0.5 0.5 3h6zm60 1l0.3-1h5.5l2.7 1v3l-1 3.2-0.7 3-2.3-0.2-0.2-1-2-1.3-2-1.7zm-21 6v-2h3 5.5l5 1.2 0.5 3.3-1 1.5v3.2h-3.8l-0.2-5-1.3-1.5z"/>
		<path id="Path 23" class="s23" d="m374 422l2.3-1h0.2l1.5 1v3h-4zm377 56l3-0.3 5.3 0.3 8.7 0.5 19.5 4 8.5 1 8.3 0.8 5.2-0.1-0.5 5.8-6.3 1-8.2-0.2-1-0.8-4.5-0.2-3-1.8h-8l-5-2.5-12-1.5h-10zm-2.5 22l-0.5-6h2l2.7 1-0.7 4.8zm-540.5 18.9v-3.7l2-0.2 0.5 1h1.5v4h-3zm711-3h3l0.5-0.8 3.2 2.8 3.5 3.7 2.8 1.8-0.3 1 1.8 1v0.7l-1.5 1v2.8l1.2 3.2 0.8 0.3 0.5 4.2 2.7 1.8 2.3 5.2 0.2 3 5.3 1.3h1l0.2 4.2 1.5 0.5 0.5 1 3.8 0.3 2-1h3l0.7 0.7 0.3 3.3-0.8 0.5-0.5 3.2-1 1-3.2 0.8-0.8-3.5-2.7-1h-4.8l-0.2 1h-2.8l-2.2 1.2v4.8l-6-0.3-3-0.2v-3.8l-2.8-1.5-2.2-0.2-0.5-5.3-1.5-1.7v-5.5l-1-1.5v-4.8l2.7-2 0.3-3.2-4-11-3-2.8-8.3-0.2-0.9 1.2h-4l-0.5 1-1.5 0.3-0.8 1.5h-2.7l-0.8 1.5-1.5 0.7-1.2 3.5-1.8 0.3v-1.8l-1.2-0.5-0.5-1.2-5-0.5v4.2l3 0.5 0.7 1.3 0.3 3.2 1.7 0.5v4.3h-5l-3-1-1-1.8-3.7-2.7-8.3-2.8-0.7-2-2.3-0.2-0.5-2-3-2.3-0.2-1.7-1.8-1.3-0.5-3.2h4l0.5 3.5 2.3 0.5 0.2 1 1.8 1h3.2l1-1.5v-5.3l1-1.2h2 4 4l0.8 4 4.7 1h5.5l2.3-2.3 0.2-4 2-0.7 0.5-1h4.8l1 2h9.2zm-725 12v-3h4.5l0.8 1-0.8 1.5zm515.3 4.2l2.7-1.5 2.5-0.2 3 2.2 3.3 0.5 0.2 1 2.8 1 0.2 0.8v3.5l-1 1.2-4-1.5-2-0.2-2.2-1.5-1-1.5-3-1.3-2-1.2zm-227.3 0.7h4.5v1h-3.5l-1-0.2zm-279 9l0.5-4.3 2.3-1.5 0.5-1.2 3.2-0.5 1.5-1.5 3.8 0.2 1.2 1.8-0.2 4h-5l-0.3 2.5-2.5 0.5h-3zm531 0.5v-1.8l1-1.2-1-5.5h3l0.5 1.2 1.5 0.3 0.3 6.7 1.2 0.8 0.3 2.4 2 1.1 3.2 4.7-0.5 5h-0.5l-1.5-1-0.5-0.3-1.2-1.7-2.5-0.8-0.5-1.2-4.8-2.8v-2.2l1-0.8v-1.7zm128-1.3v-1l-1.7-1-0.3-2.2 8.3 1.3 2.2 2.7h4.5l2.3 1 3.7 2.7v6.3l-2.5-0.5-3-1.5-5.5-0.8-3-1.7-1-0.8-1.2-0.5-0.3-2.5zm-803 5.5l0.3-1 4 0.3 0.2 1h-3.7zm705 8.3v-5.6l5.7 0.5 1.3 1.3v4.2zm30 2.5l-1.8-0.7-0.2-2.8 2.7 0.5 0.5 1.3zm-155 10.5h-1.7l-2.8 2-1-0.3-0.5-4 1-2.7v-3l6 1z"/>
		<path id="Path 24" class="s24" d="m347.5 497.5l2.8-1.3 1.2 0.6 1.5 2.5-3.8 2.5-1.9 0.2-1.6 2h-5l-1.2 0.8-0.5 7.2-1.3 2.3-3.2 1.4-1 1.3h-6.3l-0.2 2h-1.8l-0.9 1.3-6 0.2-1.3 1.5h-3l0.3-2 2.7-0.5 0.8-1.5h2.2l1.7-1.3 0.3-4.5-1-1.2v-3.8l0.7-0.7 4.3-0.3 3.5 3.5 3.5 0.3 2.3-3.5 0.7-4v-1.5h3l1.8-2 4.5 0.2zm304.4 7.5l4.6-0.5 3.5 1.8 0.2 1.7-2.5 2-3.5 1h-5.7l-8-2-0.5-0.7 0.2-1.3 7.8 1h3l0.5-3zm-29 9l0.5-3-0.5-3h3.2l1 0.8-0.2 6.3v2.9l-1 0.3v0.8l-3-0.1zm-175-5h5l3.7 1.6 0.5 1.4h3.8l1.7-1.9 7.8-0.1 1.5-1.5 3 0.5-0.3 2.8-1.7 2.3h-8.8l-1.2 2h-3.5l-4-2h-7l-0.5-1zm274.7 0l10.3-0.5 2.2 2.5h1.5l0.3 3h-9l-2.8-0.5-0.2 2.5h-10v-2l1.7-1.5h2.3l2.7-1.3 1-1zm-347.7 4h-15.3l-0.7-4h8 5l3 1.3zm138 0v-4h2 4.2l0.5 2h4.8l0.7 3 5 0.2 1.5 1 0.3 1.5 7.5 0.3 4.2 1 2.5 3.5 3.3 0.7v1.8l-0.5 1h-1.5l-3.5-3-12-2-3.5-2-9-2.3-4-2.8zm310-2v-2h7l3.5 3 3 1 6.5 0.5 1.7 2-1.2 2-3.5 0.5v-1.7l-0.8-0.5-7.5-1.3-1.5-2-2.7-1.5zm-340 1h3l0.7-2h3.3l3.2 3h4.8l6.5-1 1 1-0.3 1.8-1.7 1.2h-9.5l-1-1h-4-4.5l-1.5-1zm202.7 1.3l-1.2 1.7h-2.3l-0.2 1-5.3-0.5-4.2-1-0.5-3.5h3l1.7 1h7.8zm-286.8 1.5l0.5-1.5 4-0.2 7.5 2v3h-4.5l-1-1h-5.7zm33 1.3l0.2-2.1h4.8l0.7-1h2.3v2l-1.5 2h-4.3zm-167.5 18.6l1-4.3 1.3-1.3 2.7-0.5 1.8-3.5 8.7-1 4 3 0.5 2-0.5 1h-5.5l-0.2-1.7-4-0.3-0.3 4-2 0.3v4.7l-1 0.3-1-1zm-182.5 1.5l2-0.3 2 0.8-0.5 2-4.2 0.5zm-42 0.2l6.7-0.2 1.5 2.2-8.5-1zm106 1.8l0.3-0.8 2.7-0.2 1-1h2.5l1.3 1.5 5.5 0.2 1.2 1.3h3.5l0.3 2.2 1.7 0.8v2h-4.7l-4.3-2h-11zm-26-0.5l7-0.5-0.5 3.5h-6zm49 4.5v-2h10l2.8 0.7 1.2 2.3-1 8-2.7 0.2h-0.3v-3.2l1-1.5-0.5-3.3-5-1.2z"/>
		<path id="Path 25" class="s25" d="m271 502v-3h4v2l-1 1zm487 18l9-0.3 4 0.6-2.8 0.2-0.2 0.8-11.3 0.2zm94 3l0.3-3h0.8 5l0.5 1h4.5l0.5 3.3 1.7 1.2 0.3 1.8 3 2.2 0.5 2 2.2 0.2 0.8 2 8.2 2.8 3.8 2.8 1 1.7 3 1v5.5l2 2 2.2 0.5 0.3 1h5l2.7 1.5 0.8 1.5h5l2-2.5v-3.5l-0.8-0.7-11.8-2.3-2.2-1.8-0.2-1.2v-4.3l-1.8-0.5-0.2-3.2h2l1-2 1.7-0.2 1.3-3.5 1.5-0.8 0.7-1.5h2.8l0.7-1.5 1.5-0.2 0.5-1h4l1-1.3 8.3 0.3 3 2.7 4 11-0.3 3.3-2.7 2v4.7l1 1.5v5.5l1.5 1.8 0.5 5.2-1 0.5v4.8l-2.8-0.3-4-1.3-1.2-0.9v-3.3l-1-1.8-4.5-2.7-1 0.3-1.5 3.5v2.2l-5.5-1.5-16.5-5.5-2.8-1.3-1-1.4-1.2-0.3v-6.3l-3.8-2.7-2.2-1h-4.5l-2.3-2.8-8.2-1.2-2.5-0.3-4.5-3h-4v-4.7l3.2 0.2 2.3 1.8h2.5l0.7-0.8 0.3-2.7-2-1.5h-2zm-658 5l4.5-0.5 0.7-1.5h5.3l1.5 2.3 5 1.7v3l-1.5 1.5-3.3 0.5-0.5 1.3-2.2 1.5-0.5 4.2-0.5 1h-3.5l-0.8-1.5-2.7-0.5v-3l-1-6-1.5-2.5zm419.9 6l0.1-4h6l0.2 0.8-1.2 3.2zm-532.5 14l-4.3 0.5-1.2-1.5 5 0.2 0.7 0.3z"/>
		<path id="Path 26" class="s26" d="m975.8 402l4-0.3 0.2 2.8-1.2 1.5-1-1.2h-1.8l-1.2-2zm-610.3 20.9l5.8-0.9h2.7v3l-2.8 1h-10l-0.5-1 0.3-2zm27 3l-0.5-3h3v3zm43.5 2l0.2-3.3 4.8 0.3v3zm74 3h1l0.2-0.8 3.8 1.5 3 0.3v6l-5.5-0.3-2.5-1.2zm-27 3l0.3-3 2.7 0.5 0.5 2.5-0.5 1h-1-1.3zm424.8 0l2.5-2.3 1.7-0.2v2.5l-1.2 2h-2.8zm-349.7 7v-4.8l1.7-0.7 8.8 0.7v0.8h5.5 4.5l0.5 1-1 5h-3.8l-0.7-1h-13.5zm30-0.3l9.7-0.2 7.3 0.7-0.3 2.5-2.2 1.8v1.5h-6.8l-7.7-1.5zm290.5 9.5l5.2-3.3 2.8-0.5 2-2.2 1.5-0.3v3l-0.8 1.3-2.2 1.2-3.8 0.5-1.2 3h-3zm-139.5 26.3l6.5-0.5 0.5 0.5v6.2l-1 0.3-3.3-0.3-1.7-1-1-0.7zm180 39.5v-2.5h1.5l2 1.7-0.5 0.8zm-36 0v3h-4v-3zm57 17.9l2 0.1 1.2-2 3.8 2 0.2 0.2 3.3 3.3 1 0.2 2 4.5 1 0.3-0.3 0.7 1.8 1.8 0.7 4 0.3 5h-3v-3.8l-0.8-0.7-7.2-0.5h-1v-5l-2.8-1.3-0.2-4-2-2.7zm-341 6h1l1.2-2.5 2.8-1.5h3l2.5 1.2 0.2 3.5 2.8 2.5 2 3.5 3.7 0.5 1 1.8h2.8l1.2 0.7 1.3 3.3h3.5l0.7 5.2 5.3 1.8v3l-1 2.7 0.5 4 1 0.3 2.7-2h1.8l2 1 1 3v2.5l-0.5 0.5h-8.5l-0.3-1.5-4.2-4.5 0.5-1.5-0.5-3-2-0.8-1.3-2.2-5.7-4.8-0.8-2.2-2.2-1.8-0.3-1.2-2-1.3h-5.2v2.8l1.2 3.5 1.8 2.5 2.2 1.2 0.8 1.8-0.3 4.2-0.7 0.8h-3.5l-2.8-8-4-3.5v-1l-2.5-1.8-1.5-2.2-1.5-0.8-0.2-4.7 1-1.5zm133.2 2.7l1.8-0.2 1 1.2v1.8l-1 0.7v2.3l-1.8-1.3h-1.5l-0.7-1-0.3-0.2v-0.5l1-0.3zm39.8 17.3l-1-4h3v1.5 2.5zm11 0.5l1.2-1.5h1.8l2 1.2v0.8 3h-4-1z"/>
		<path id="Path 27" class="s27" d="m616 493l3.5-1 2.5 0.5 1.8 1.5 0.2 2.5h-2.3l-0.7 1.5h-1-2.5l-1.5-1zm104 1l1-1h4v5l-1.3 1.3-3.7 0.7v-1.8zm-410 5l3 0.1 0.8-1.6 1.4-0.7 0.3-2.8h9.5l1 0.5v1.5 4h-4.8l-0.7 2h-2.8l-1.7 1h-5v-1.2l-2-0.8v-2zm267-1v-3.5l0.7-0.5 5.5 1.3 0.3 0.7h7.5l1.7-1.5h2.8l0.2 1-1.7 1.3v2.3h-4.8l-2.2 1.9-4.5 0.1v-1.3l-2-1.5zm-87 1.5v-2.8l2-1.7 6.3 0.8 1.4 1.2 1.1 2.5h2.2v2.5h-5v-3l-2.5-1h-2.8l-1.2 1.5zm52.5-2.5l6.5-1 2.2 0.2 1 1.8h3.8v2.5l-10.3 0.5-2.7 4h-3-1l-0.7-1.8-1.3-0.2-1.2-1.8-2.8-0.2v-2l0.3-2 5.7 1h2.5zm-113.5 2l0.3-2h2.7l2.5 1 4.5-0.5 5.5-0.5 1.5 1.3v1.7 3l-1.3 0.5-0.7 2.5h-4.3l-0.5-1.5-3.2-0.5-0.3-2.3-3-0.2-2.7 3.8v2.7l-1 1h-5v-1.8l-1.5-1.2h-9.3l-0.2 1-6.2-0.3-1.3-0.7-12.5 1-2.5-2h-4.7l-1.8 0.7v2.3l-10-1.5v-6.5h10 6l0.8 2.8 1.5 1.2 5-0.2 0.7-1.8h6.5l3 1.3 0.3 0.7h4.2l1.3-2.5 4.7-1.2 4 0.7v2.5l1 1.3 3 0.2 0.3-1 2.5-1.7zm134.9 0l1.8-1.5h1.2l2 0.5-1 4h-1.2l-1 1h-1.3l-0.5-1zm-306.9 2l-0.1-3h5v2l-1 1h-2zm75 1.5l0.8-4 3.2-0.5v3 1.5zm301-4l3-0.5h2.8v1.7l1.2 2.3-7 1zm19 3.5l0.3-4h5.7l0.8 1h4.7l4.5 3h3 8.5 10.3l0.7 2.5-0.5 2.5-8 0.5-4.5-1.5h-1.7l-0.8 1-7.5-1-0.2-1.8-3.3-0.2-4 2.2-3.5-1.7-0.7-2zm182.2-2.8l0.5-0.8 2.3 0.1 3 0.5v4h-5v-3zm-383.3 3.7l2.5-0.5 1.5-2.5h3v2 5h-4.2l-2.8-2zm12-1v-2h1 3l1 2.3 2 1.2v2.5h-4l-0.2-0.7-2.8-0.3zm295.1-1l-0.1 3h-4v-3zm33 4v-1.8l0.8-0.7 3.2-1 1 0.5 0.3 2-0.3 3h-4.5zm-95 1l0.5-3.3 1.5-0.7h7.5l0.5 2 5-0.8h1.5l0.5 0.8h5v3l-1 1h-21zm29.5-3l6.5-0.5 1.5 1.2v1.3l-0.5 3.5-10.2 0.5-1.8-2v-2h3zm44.5 4v-2.8l1-1.2h8.3l0.5 0.2v1l-3.3 2.8zm76 8.3l-1-9.3h5v2l1.5 2.8 2.5 0.2v3.5l-1 1.5h-2zm-602-7.3v2h-3v-2zm-104 6l0.3-5 7 0.5-1.8 3.5h-2.7l-0.8 2h-2zm80 6l-1-1.5v-5.2l2.8-2 0.2-1.3 3 1.1 4.5-0.1 2.3 1h4.2v2l-2 2h-2-8.7l-0.3 4zm51-6.5l5.5-0.5 1 1h1.5v6h-5.5l-2.7 0.8-1.3 1.3-2-0.1-0.5-1 1-4.7zm-19.5 7l0.8-1 3.7-1 2 1.5v3l-0.2 1.3-2.8 2.7-2 0.7v3.5l-7-0.7v-4.5l4.3-0.3 1.7-2.2zm339.5 2.5v-3l3.8 0.5 1.2 2.3v1.7l-2.2-1.2zm-497 2v-4h9l1 1h6.5l2 2h5.5l4 1v3l-11.5-1-4.5-2zm30 6v-3h4l0.2 1.7-1.2 1.3zm-73.8-1l5.8-0.5 2 0.7v5.8h-1.8l-0.7 1-1.5 1-5.8 0.2-1.5-2.2 0.3-3.5h1.5zm14.7 7.2l1.8-2.2 2.5-1h6.2l1 0.7-0.2 2-2.5 1-3.5 0.3-0.5 0.7-3.8-0.2zm-25.2 9l0.5-1.8 3.5 0.5 0.7-0.5 2.3 0.8-2.3 0.5-0.7 0.5-3-0.5-0.3 0.7z"/>
		<path id="Path 28" class="s28" d="m768 512l3.3-1 16.7-0.5 2.3 1.5 16.7-0.5 14 1.5 0.3 3.3 3.7 2v1.7l0.3 4.5 1 0.5-1 2.5-1 0.8-4.5-0.3-4.3-3.8h-1l-0.2-0.2-0.8-0.3 0.3-0.7h-1.5l-2-2.8-1.3-0.2-0.7-1-3.8-1-16 0.5-5 0.2-0.5 0.8-0.7-0.5-1 1-10.3 0.2-4-0.5zm-141 6h7.5l0.8-1.5 1.5-0.7 4.7-0.8 7.3 2.5 4.2 0.5h4.5l2.3-1 4.7-0.5 7.3 1.5h14.7l7.5 2 1 6-3 0.5-0.7-3.5-2.8-1.5-4.5-1-23-0.5-3.5 3h-6.7l-2.8-1.5-7.2-0.5-3.3 3-0.5 4.5-2-1h-2.2l0.2 2.3-2.5 0.7v-2.2l-2.7-1.5-0.3-4-1.5-3.8v-0.7zm81.5 0l4.3-0.3 2.2-1.7h10 3 3l1 1 4.3 0.7 1.7 1.3-0.2 3.3-6.8 1.7-4.5 0.5-1.2 0.3-2.3-0.3 0.3-5.3-10 0.3-2.8 0.7-4.7 3-1.8 2-0.5 2.8-1 0.5-1.5-1.3v-3.4l0.8-1.3 1.5-1.8 4.2-1.2zm131.5 0l3.5-0.5 1.5 0.8 0.3 1.7-0.5 1-4 1.8-2.3 0.2 1.5-1.5-0.5-2zm-388 4l9.5 0.5 2.8 1.5h8l3.7-0.5 3.3-3.5h4.2l1 1 6.5 1 1.8 1h7.7l1.3 1h4.7l0.3-1 2.2-1h2l1.8 1h5.2l3.5 1h8 9l3.8 1.5 0.7 5.5-2.7 0.3-7.3-0.3v-3l-3.5-1-5.2 0.5-2.5 1.5h-3.3l-1.2-1.8-3.8-0.2-2-1-9.2 1-5.8-2h-7l-2-1h-3.2l-2.5 1.3h-4.3l-0.5 0.7h-12.5l-1.5-1-16.8 0.3-0.7 0.7-8.5 0.8-1.5 1.2-6-1-8.7 0.5-22.1-0.5-0.4 1.3-1.8 0.7-9 1h-4l-2-2h-11.7l-3 2h-4l-2.3 1h-8l-2-2.8-5.7-0.2-1.5 1.8-2.8 0.9-1.5 2.3h-7.7l-0.8 1h-3.5l-0.2-0.7-2.5-0.3-0.8 1.5-4.7 0.5-1.8 3.5 0.5 3h-1.7l-0.8 0.8-3-0.3v-3.8l-0.7-0.7-5.5-0.5-3.5 1-1 1-3.3 0.2-1 1.5v2l-3.2-1h-2.3l-1 0.8-1.5 0.2-0.5-0.7-5-1.5-0.5-4.5h2l0.3-1h5.7l5.3-1 1.7-0.5 0.3-0.8h0.2l7.3 0.3 3-2h3.2 6.8l1.2-1h3.5l1.3 1h2.2l5-2 0.8-1h5.7l1.8-1.3v-2.5l1-2.2h11.7l2.3 1.5 0.5 1.3 1.5 0.2 0.7 2 1.5 1h2.5l1.3-2 2.2-0.5 2.3-3 3-1.5 10 1.3 1 1.2 3 0.2 1 2.3h7.2l1-1h4 5l6.3-2h10.7l0.5 1h4.8l3.7-1h7.5l0.5 1h4l1.3-2zm-430.6 11.5l0.1-2 4.2-0.5h1l0.8 1.5 4.7 1.5-3.2 2.8v2.7l-4.5-2.8zm87.5 13.1v-5.5h3.5l1.5 1v4.5l-1.3 1.7zm20.5-1.5v-1.5l3.5-1.5 0.3-0.7 4.7-0.3h4l1.5 1-1 1.5h-7.7l-2.5 1.3zm38.5 5.7v-2.3l-1.8-1.7-0.2-2.8 7.7 0.8 1.3 1.5 0.2 5z"/>
		<path id="Path 29" class="s29" d="m565.3 523l4.7-0.3 1.8 3-0.8 0.6v3.7l-1.2 0.2-1-0.2h-3l-1-1.5-0.5-3.8zm111.7 4.8v-3.8l2.5-1 4.3 0.8 0.2 3.5-3.7-0.3zm-251.8 9l-0.2-4.5 1.5-0.2 0.7-1h8.3l2.5-1.3 6-0.2 3.5-1.5h7l2.5-1 15.5 1 2.7 0.7 0.8 1.3h3l1.2-2h17.3l2.5 1.5v3l-10.3 0.5h-3.2-4.5l-5.3 0.2-0.2 0.8-5.5 0.2-1-0.2v-3l-2-1-9.8-1-2.2 1 0.7 5.3-0.5 0.2-6.7 0.2-5.3 0.3-4.2-0.3-2.5 0.5-0.5 0.8zm-37 2.2l-0.3-3.2 0.8-0.8 4-0.5 3-2.5 5.5-2 17.5 1.8 1.2 1.5-0.2 3.5-0.8 0.2h-3.7l-1.3 0.8-4 0.2-21 1zm-25.2 1l0.5-4.5 1.2-1.2 5.8-0.3 3.5 1v5h-2.5-5.5zm-277-3.5l0.7-1h2.3l1.5 0.3 1.5 1.7 2.2 0.5 1 1.3 5.8 1.5 0.2 2 2 0.7 2 2.5-1 1-2.2 1.5-12-1.2v-5.3l-2.5-2-1.8 0.3-1.2 2.2-3.5 0.8v3.7 0.3l-5-0.3-1 0.3-2.8-0.3-2.7-1 0.2-7.2 0.5-0.8 3.5-0.2 0.5 1.2h7l4.3-0.5zm-24.8 0.5l1.3-0.5 2.5 0.8 1 1.2-2 2.5h-4.3l-1 1-6 0.5-0.2 2.3h-0.5l-3.8-0.8-3.7 0.5-0.8 0.5-3.5-0.5-0.5 1.8-0.2 0.7h-1.5l-1-3.5-1-0.2-1-1.3v-1.7l3-1.3 1.7-1.7 8.5 1 5.8-0.3 1.5-1 1.2 1 0.3 1.5 2.2 0.3zm73.8 13.8v-3.1l2.2-1.2 8 0.5 2.8-0.5 2-1.5 3.2 0.2 0.8 1.3 1.7 0.5v2.2l-1 1-5 1.3-10.5-0.5h-3.7z"/>
		<path id="Path 30" class="s30" d="m653 515l5.3-1.5h3.2l3 1.5v1.5l-4.8 0.5-2.2 1h-4.5zm-201 7l0.3-3h8.2l1.3 1h1.5l1-1h10.2l2.3-2.5 0.5-2.5h5.7l1.5 1h4.5l0.3 3.3 1.7 0.7v3l-6.5-1-1-1h-4.2l-3.3 3.5-3.7 0.5h-8l-2.8-1.5zm392.8-6.5l1.2-0.2 5 0.7v2l-1 1.5-2 0.5h-2.8l-0.2-1.7-1.5-0.8zm-532.8 15.5v-3.2l1.8-2.3 5.5-0.5 1-1h3.2l1.3 1h1.7l0.3-1h6.2l0.8-1.5h1.2l1.8-1.7 0.5-1.8 2.5-0.7 0.7-1 5.8 0.7 1-1.2 2-0.3 6.7 0.5 2.5 2 1.5 0.3 1 1.5 3 0.2 1.3-2h2.5l2.2-1.5 7.5-0.5 1.3 1 7.7 1.5 3.3 1.5h2.7l1.5 1v3l-1 1h-7.2l-1-2.3-3-0.2-1-1.3-10-1.2-3 1.5-2.3 3-2.2 0.5-1.3 2h-2.5l-1.5-1-0.7-2-1.5-0.2-0.5-1.3-2.3-1.5h-11.7l-1 2.3v2.5l-1.8 1.2h-5.7l-0.8 1-5 2h-2.2l-1.3-1h-3.5l-1.2 1zm86-9h4l1.2-1h1.8l1.2-1.2 0.3-1.8h4.5 6.5l0.5 1.8 2 0.7v2.5h-10.8l-6.2 2h-5zm120 1v-4l8.7 1.8 2.8 1.5v1.7h-8zm-436.5 5.8v-1.5l1.2-0.5 0.8 1.2 5.2 0.8 0.3 1.2v5.5h-2.3l-0.7 1-2-0.7v-3.8zm196.2 10.5l0.5-3.2 3.8-0.5 1 0.5 0.5 4.5-4-0.5z"/>
		<path id="Path 31" class="s31" d="m627 515l4-0.3 7.5-2.7h6l8.5 3v3l-4.3-0.5-7.2-2.5-4.8 0.8-1.5 0.7-0.7 1.5h-7.5zm133.3-2.5l5.7-0.5h2l-1 7.8-9 0.2v-3.7l2.2-2zm64.8 7.5v-1.8l-3.8-2-0.2-3.2 4 0.5 5.7 3 0.3 3.5zm-88-6l8.7-0.3 0.3 2.5 2 1.3v3.2l-10.3 1.5 0.3-3.2-1.8-1.3-4.2-0.7-1-1h-3v-2zm-33.5 2l4.7-0.3 0.3 2.3-1 1.5-4.3 1.2-1.5 1.8-0.7 1.2v3.5l-2-0.2-0.8-0.3-1-0.7h-2.2l-1-6 6.7-0.3 2.5-2zm-212.5 3l15.3 1 6-3h4.2l1.5 0.8v1.2 4h-5.2l-1.8-1h-2l-2.2 1-0.3 1h-4.7l-1.3-1h-7.7l-1.8-1zm-71 1.5l7.5-0.5 1.5 1v2l-3.7 1h-4.8l-0.5-1zm16.5 2.5l0.8-1.5 2-0.5 3 0.3v0.7l-1.3 2h-4zm-38.5-1v3h-4v-3zm-283.9 20h1.9l1.5 1h9.5l2.8-2.2 2-3.8h2.7l3.3 1.5 0.2 2.5-4.7 0.3-0.3 0.7-3.5 1.5v1.5l-0.7 0.5-0.5 4.5h-4.5l-8.5-0.5-2.5-1.2 1.2-1.8zm9.5 8.5l-2-0.2h2.3z"/>
		<path id="Path 32" class="s32" d="m713 496.5v-2.5h7v4.3zm-119 2.5v-2.3l1.8-1.3 4.2 0.6v3zm9 0v-3l7 1 0.5 1h2.5l-0.3 5.2-1.7 0.7-5-1.2v-3zm17-1h1l0.7-1.5h2.3l1.5 0.2 1 2.8-3.3 2.5h-2.5zm-56 4l0.5 1h1.3l1-1h1.2l1-4h6v3l-2.5 0.3-0.7 7-2.5 0.7h-6l-3.5-1.8-8-0.7-1.3-1.5h-4.2l-0.3 2h-6v-2h3l2.8-4 10.3-0.5h4.4l2 1.5zm-106-2l0.3-1h3.2l1.5 1v2h-5zm-8 0v3h-4v-3zm-20 8v-2.8l2.8-3.7 3 0.3 0.2 2.2-2 0.8v2.7zm218.1-5l4-1v3h-0.5-3.5zm12 3.2l4-2.2 3.2 0.2 0.3 1.8v2h-7.3zm30 0.7l0.5-2.5h2l2 1.5h1.5v2l-1 1h-2.5l-1.5-0.5zm-277 0l0.3-1h9.2l1.5 1.3v1.7l-8 1h-3zm429 3v-4h3l1 9.3-1.2 0.2-1.8-2v-3zm-563 4v-1.7l2-0.3h14l2 1.3v0.7 4.5l-1 1.3v2.2h-8.2l-1.5-1.7-3.3-0.3h-4zm294 4h-1.2l-0.8-1.5 0.3-4.5h4.2l1.3 1h1.5l0.2 1-0.5 1-2.2 0.5zm-446.1-1l0.3-4 12.8 1v1 2h-4.5l-2.3 1h-3.2l-1-1zm96 3l0.2-4h8.8l-1 5h-5-2.5zm35 3v-3h3.5l0.2 1-1.2 1.5zm-169.3 5.8l1.5-1.8h1.8l0.7-1.5 1.3-0.5h12l4.5 2 11.5 1h2v3l-2.5 1.5h-1.8l-1.5 1.8-1.7 0.2-4.5-0.5-0.3-1-7.2-3-6.3 1-1 2.3-4.2-0.8-1.5-1.7-2.5-0.8z"/>
		<path id="Path 33" class="s33" d="m779.3 503l-1.3-5h4.8l0.2 5-3.2 0.3zm26.7-1.1l-1.5-0.2-0.7-1v-1.3l1.5-0.7h3l0.2 3zm-320 3v-2.5l0.8-0.7 3 0.2 1.2 2 0.5 3.8 3.3 2.2h3.2v3h-4.7l-3.3-3v-2.5l-1.2-0.8v-1.2zm136 14.3l-5.5-2.3h-2.3l-0.5 5.2-2.2 1.8-7.5-0.3-5.5-2.2-2.3-4.3-1.5-0.2-1-1.3-2.7-0.2-1-2.3-1.3-0.5-1-1.7-0.5-7 1.5-0.3 0.5-1.2 1.5-0.5h3.5l-3.2 3.7v3.8l1.5 2.7 10.2 2.3 1.8 2.2 1 4 0.7 0.3h3.8l0.7-0.8 0.3-13.2h3.5l0.2-1h0.8l1.5 1 0.2 5 2.3 2h3.5v5zm184-15.3l3.2-0.5h1.3l0.2 2.8 1.8 1v1.2l-5.5 0.5v-1.2l-1.5-0.8h-6.5v-2.7zm13 0l7.7-0.5 6.3 0.5 0.2 3.2 1 0.3 0.8 2 7 0.5 1 0.5v3l-6.5-0.5-3-1-3.5-3h-7l-1.5-1h-2.5zm-310 4v-4h3.5l2.5 1v4h-2zm-61.5-0.5l0.2-2 3.3-0.5 2.7 2h4.3 2.5l0.7-1.3 1.8-0.7 2.7 0.2 0.3 0.8h4 2v2.5l-1.5 1.5h-7.8l-1.7 2h-3.8l-0.5-1.5-3.7-1.5h-5zm200.5 0.5v-3h3.5l-0.5 3zm-128.8 1l1.3-0.5 1.7-2.5 9.5 1 3.3-1 1.2 1h3.8 6l1.7 4h2.3l1.7 1h3.8l0.7-1 3.3 0.5-0.3 2.2-1.5 1.5-2.7 1v4.8h-2.8l-2.7-1.3-1.3-3-2.7-2-1.3-3.5-0.7-0.2-7.3 1-1 1h-3.2l-0.8-1.3-3.2-1.7h-3.3l-0.2 1h-4.8zm148.3-1v-2l7.5 1v4h-3l-3.8-1.8zm-237.5 0l4-0.5 1.5 0.5v1l-0.2 1.8-2.3 1.2h-6.7l-1 1h-6l-1.3-1h-2v-2l8-1h5zm-18 4h-4.2l-2.8-1h-9l-0.5-2h11l2.5 1h3zm347.8-0.2l0.5-2.8h2.7l3 1.3v1.7l-5.7 0.5zm-459.8 2.3l0.3-2 7.5-0.5 1.5-1.5h6.7l1.8 0.2 0.2 1 1 0.3-0.5 4-6.2 0.5-4.3 4.5h-2l-2.7 1.2-0.5 1.3-2.5 1.2-0.5 1-12.3 0.8-4.2-3.3-0.3-2.7 3.3 0.2 1.5 1.8h8.2 3.5l1.3-1.5 0.2-3.5-0.7-0.5zm-65 10l0.2-4.8 2.8-0.2 2.2-3h2.8l0.2 6.5-0.2 0.5-3.8 1h-1zm618-8v2h-2v-2zm-717 10v-2.8l1.3-1.2h2.7l-0.2 2.7-1.8 1.3zm122 7v-4.5l0.8-1 2.2-0.5v6.7h-1.2zm-181.5 1.8l2.2-0.3 1 1.5h2.3l-0.8 3h-7l-0.5-1.2 2.5-1zm-21 2.2l0.8-1h1.7l0.5 1h2.8l-2 2.8-2.3-0.3-0.2-1.5z"/>
		<path id="Path 34" class="s34" d="m914 492.8v-1.6l1-0.2h3l-0.5 3.5-0.5 0.5h-2.3zm-64 13.2l0.8-2.5 4.5-4.5 6.3-2.5 0.4-2.5h3l0.8 6.3 2.5 1.7v1.3l-1.3 0.7-0.2 2.3-1.3 0.7v1.3l-4 0.7-0.2-0.7-2-0.3-0.3 1-2.2 0.3-1.2 1.7h-1.5l-2.5-0.2-1.5-2.8zm-247.1-10v3h-3v-3zm-94 3h4l1.5-2 5.8 0.3 4.7 3.7 3.5-0.5 0.8-1.5h3.7v2l-2.5 2-12.2-1-1.8 2.5-1.5 0.5-2.5-1h-3.5-5.2l-0.8-2v-2.5zm-28 1v-2.2l2-0.3 1 0.8v1.5zm9-0.5h1.5l1.3-1.5h2.7l2.5 1v3h-1.2l-1 1.2-4.8 0.8-1.2-2zm85 1.5v-3h2l3.5 0.2 2 1.5v1.3l-0.5 2h-3.8l-1.7-1.8zm195.5-2.5l6.5-0.5h1l1.2 5h-8.2zm-486 2.8h2.2l1-1.3h2.3l0.7-1 2 0.3 1.8 1.7-0.5 4h-8.5zm87.5 5.3h-0.8l-1.2-2v-5.5h4v1 6.5zm-113-5.5h2l1-1h6v2l-0.3 2.2-0.7 0.5 0.5 6.3h-3.5l-1.5-1h-3.5v-3zm-104 8l0.5 2.7 1.2 0.3 5.3-1 0.7-1 4.8-1.5 3.2-2.5h4l2.3 2.7 1.5 5.3h-1.3l-1.2 1.2-1.5 2.8h-4.3l-0.7-4.5-1-0.5h-3.8l-2.7 2-10.8 0.5-1.5 3.5-1.5 1h-3.7l-4.5-3v-2h2l0.7-2h2.8l1.7-3.5 3.8-1zm81 3l3.2-2h1.8v2l-1 1.5-4 0.5zm337 6l2.7-2.5 2.3-0.5 0.5-1 7.2 0.2 1 0.8v1.2l3 1.8 1.3 2v3h-4.8l-0.7 2.7-2.5 0.5-0.5 3.3-1.5 0.2-1 1.3h-4v-4.5l-0.8-2-2-1.8zm275.1 2l1.9-0.5 1-1.5h2v2h-0.7l-0.3 3h-4zm-215 9.8l-0.2-2.3h2.2l2 1 4.3 0.3 3.5 1.2-5-0.2-1 1-2 3-1.3 0.2h-2.5zm-455 7.3v-5h5v6l-4 0.2z"/>
		<path id="Path 35" class="s35" d="m733 485v-4h6l1 0.8v1.7l-1.8 1.5zm-339.9 4l-0.1-3 6 1 0.5 4.8 1.8 1.2h2l2.2-0.5 2.3-2.3 0.2-3.2 0.8-1h3.2l2 0.8v2.2l-1 0.3v1.7h-2.7l-2 2-1.3 5h-8.5l-1-2-6.5 1v-2l1.8-2.3zm110-1l2.2-2h2.8l0.5 3 1 1-0.5 3h-6zm92 1l1.7-1.2 0.5-1.8h6.8l3.2 1h8.8 2l0.2 2.8 1.3 0.8v1.4l-3.5 1.1h-2.5v-1.6l-1-0.4h-3.3l-0.2 1h-10.5l-3.5-1zm-114 0v-2h7.5l2.2 0.7 0.3 1.3v2h-7.5-1.3zm-65 0l0.3-1 8.2-0.5 1.5 1v1.5l-1 0.2v1.8h-8-1zm30 2l0.3-3h3.7v4h-3.5zm78.5-1l0.3-1.5 1.5-0.5h4.7v3l-5.5 1.5-0.7-0.3zm35.5 1l0.2-2h2.8l2.2-1h5.3l3 1h9.5v3h-8.3l-2.5 0.5-0.7 1-4.5 0.5-1.5-1h-3.5zm-235-1l0.7-0.8 4.3-0.7h1l-0.3 5.8-1.7 1.7h-3v-1.5l-1-0.5zm374 1v-2l2.2 0.5v0.8zm-438.5 0l0.5-1 2 1v2h-2zm396.5 1v-2h4l0.3 2 2.7 2-0.5 5h-4.7l-0.8-1zm-225 2v-3l5 0.7v2.3zm-323 18.9l3.5 0.1 1.3-1.5 0.2-4.3-1-3 1-1.2v-3.8l5.8-4 6.7-0.2 1 0.5 0.5 2.2 4 1.3v2.5l-2 0.2v2.3h-5.7l-1.3 1.2h-5l0.3 5.3 2.2 2.5h1.5l0.8 3 2 2 2 4.5-2 0.5-0.8 2h-2l-4-1v-3.8l-1.2-1-13.8-0.2-2.5-1h-6.5l-1-3h2l0.8-1h8.2 4zm529.8-15l0.5-3 6.8 1v7h-4.8l-1.2-1-1.3-2.3zm57.8 2l0.5-1 1 1.5zm-649.5 24.5v-8.5h6l1.5 2.3 2.5 0.7v8.5l-1 2-5.8 0.5-1.2-1-0.3-4.2zm29-3.5l-0.2 3.7-1 0.3-0.8 2-4-0.3-1-5.7z"/>
		<path id="Path 36" class="s36" d="m263 491h1.5l1.3-1h6.2l0.2 3.8 3.3 2v1.2l-0.5 2h-4-2.8l-0.2 1h-6v-2l1-1.5v-3.5zm372-1v3h-3v-3zm-172.3 2l1.6-1h3.7v2l-2 0.3v1.7h-2l-1.2-2.7zm146.2 0l0.3-1h3.2l1 0.5v1.5l-0.5 1h-3zm-191 8.2v-4.2l-1-1v-3h8v7l-1 2h-2zm14-3.3v-3h5l2 1v2.5l-4.5 0.5zm-208 6l2.8-3h4.7l2.5 2v3h-6.7l-0.3 1h-3zm-14 12l0.3-3 1.2-0.5 0.8-1.5h2.7l-0.7 4.5-2.3 1.5h-1.5zm48-1v-3.2l1-0.8h3.5l1.5 1v2.5l-1 1.5h-3.7zm-38 8v-2h3l0.5 1h2.5l0.2 2.8 1.8 0.7v1.5l-1 2h-4.5l-0.5-1.5-2-0.5zm-98 3h2l0.7-2 2-0.5 1.3 0.8v4.7h-4-2zm40 0l6-1.7 1.7 1.2 3.5 0.5 1.8 2-0.3 3.3-3.2 2.2-4.8 0.5-1.7 1.3-4.5-0.8-0.3-4.5-1.5-1.2zm436 7v-3h4v2 1z"/>
		<path id="Path 37" class="s37" d="m746 482.8v-6.3l4.3 0.7 0.7 0.8v6h-1zm-34.5 9.2l0.5-0.5v0.5zm198.8 21l5.7-1h2l1 1.5v2.5l-1 2h-9.3l-1-2zm34.8 36l-5.3-1.2-0.2-3-2.3-5.3-2.7-1.7-0.5-4.3-0.8-0.2-1.2-3.3v-2.7l1.5-1 2.7 1.2 1.8 1.8 0.2 3.5 1.8 1.2v2l2 2.8 0.2 4 2.8 1.2zm-335.5-11.7l4.5-3.3h5l0.5 1.5h2.5l0.2 4.3 1 0.7-0.5 2.8-0.7 0.5v5.2h-2.8l-1-1.7-3.7-0.5-2-3.5-2.8-2.5zm-406.9 5.7l0.4-1h2v2h-2zm751.5 11l-2 1-3.7-0.2-0.5-1-1.5-0.5-0.3-4.3 7.3 0.5 0.7 0.8zm-168 5v-3l1.3-2h4.7l0.3 2.7 1.7 0.8v2.5l-1.5 1h-4.5v-0.8zm-25.5 2.5l1.5-6.5h2l7 0.5v0.5l1 4 0.3 5.3-1 0.2h-2l-8.3-3.2-0.2-0.3zm-121.5 6.5l1-7h2l3 0.3 2.7 1.5 1 3h0.8l0.2 1.5-0.7 0.5-0.3 2-1 2.5-5.7-0.3-1-3z"/>
		<path id="Path 38" class="s38" d="m610 494h3l0.5-1h2.5v4h-1.8l-1.2 1h-2.5l-0.5-1zm129 4v-3h3.3l0.7 1.3v3l-2.8 0.2zm43.8 0l0.5-1h2.8l6 0.5 2.5 1 0.5 3-3.3 1-0.7 0.8v1.7h-6.3l-1.7-2zm-478.8 2l0.3-1h4.7v2l-1 1h-3.2zm-45 7h-3.3l-0.5-0.8-0.2-4.5 0.2-0.7h1.8 2zm473.9 1.5l0.6-3.5h5.5l0.2 1.3v1.9l-2.5 2.8h-1.5zm86.8 19.5l4.5 0.3 1-0.8 1 0.5-0.3 1.5-2.2 0.5-2-0.2z"/>
		<path id="Path 39" class="s39" d="m725 439h2.3l1.5-1 13.7 0.5 1.5 1-1 6.5h-2.7l-9.8 4-7-0.3-0.2-1.9-2-1.1-0.3-4zm-556 52l0.3-0.9 2.7-0.6 5.3 4.8 3.2 7.5-5.5-1-2.7-5.5zm583.7 30.5l3.5-0.5-0.8 0.5h1.3l11.2-0.2-0.2 3-2.3 1.2-7.5 1.5h-5.7l-1.8-1.5 1-0.5h-1.2l-1-1 1.2-1.2 1.5 0.5v-1-0.3zm-558.2 22.8l3.5 0.2v7.5l-0.5 0.5-2.2-1.5h-8.5l0.7-4 1.8-2.3 2 1.3 0.2 1 2.3 0.2z"/>
		<path id="Path 40" class="s40" d="m827 501l-2.3-1.3v-0.7l1.5-0.8 4 1.1-1.2 1.7zm-533 4h7l1 1h4l5-3h5v7h-6.8l-1.5 1.5-7.5 0.5-0.2 2h-3v-0.8l-2-1.2h-14v-5.3l3.5-0.5 1-1.2zm118 7v-2h1 3v2zm-272 10l8.5 1 3.2-3.3 5-1.2h3.8l1.5 0.7v5.8l-3.3 2.8-2 0.2-0.7 1h-4.8l-2.5 0.5-0.7 1h-1.3l-0.7-2-1.5-0.5-2.8 0.2-1.7 2.8-6-1v-3.8l2-0.2h2l1.7-1.3zm700.8 0.8l4-1.8 0.5-0.9h2.8v3l-1 1.9-5.3 0.1zm-220.7 7.2l0.5-4.5 3.2 0.7v3.3l2.8 1.5-0.8 0.5h-0.5l-1-0.7h-4zm94.5 0.5l2.3-1.3 0.5-3.3 3.7-0.5v5l0.8 1.6-1 1.2-3.3-0.5zm-549.5 3.8l1.8-1.3 4.7-0.5 0.8 3.5 2 0.3 0.2 0.7h3.5l1 1.3v1.7h-10l-0.2-1-3.8-1zm197.5 6.8v-1h0.5 3v1h-0.7zm-32.8 0.7l3.5-0.7 3.8 0.2-0.5 0.8-6.5 0.5zm-266.3 5.2l-0.2-1h6.2l2.8 1h-4.3-3.5z"/>
		<path id="Path 41" class="s41" d="m847 525l1-2h4l2 3h2l2 1.5-0.3 2.8-0.7 0.7h-2.5l-2.3-1.7-3.2-0.3h-1.3l-0.7-1zm-672.3 5.3l0.3-3.3h11l1.5 1.3v1.2l-4.5 2.5h-5zm546 3l1-1.2h2.2l1 1.5v2.5h-1l-0.2-0.8-2.8-1zm-244.2 0.8l0.2-0.8 5.3-0.2v0.7zm291.5 3l-1.8-0.5-0.2-1.5h2l1 0.3v1.7zm-354 0.8l1.2-0.8h3.8v1zm479 4.3l0.2 1.2 2.3 1.8 11.7 2.2 0.8 0.8v3.5l-2 2.5h-5l-0.8-1.5-2.7-1.5h-5l-0.3-1-2.2-0.5-2-2v-5.5zm-788.8 5l1-1 3.8 0.5 3.7 1.7 2.5 1.3-0.2 0.7-8.8-2.5zm803.8 14v-2.2l1.5-3.5 1-0.3 4.5 2.8 1 1.7v3.3h-3.5z"/>
		<path id="Path 42" class="s42" d="m973 403.8v-3.8h3.8l-1 2-1 0.7zm7 0.8l1.5-0.5v4l-4.5 1 1.7-3zm-219.8 69.5l5.1-0.8 0.2 3.8-4.7-0.5-2.8-1.3 0.8-1.2zm-743.3 61v-5.8l1.5 0.8 2 3.5 0.7 1.5zm629.3-3.5l4.8-0.3 0.7 0.8 2.3-0.3 0.2 5.3-6.2-2.5-3.3-1.3-1-1.2zm-123.7 0.7l0.5-0.2h11.7v1.2h-12.2zm-478.1 13.5l2.3-0.5 1 0.8 0.3 0.2-3.3 1.3h-0.2zm-11.5 19.2l2-0.2 0.5 1.7-0.5 1.5-0.8 0.5 0.5 2.5 1.5-1 1.5 0.3-1.2-0.5v-0.8l1.2-0.2 1.8 1-1 2.5-1.8 1.7-1.5 0.5-2.2-1.2-1.8-2.8-2.5-0.5 1-1.5z"/>
		<path id="Path 43" class="s43" d="m150.3 474.3l-0.8-1.6-1.5-0.2 0.2-3.5 9.8 0.5 7 3.2 1 1.5 2 1 2.7 3.5 7.8 6.8 1.7 2.7 3.5 2.8 3 7.7 1.3 1 0.5 2.3 1 0.2 1.5 9.5-1 3-2.3 0.5-0.2-2.5h-0.8l-2-4.7-1.2-0.5-0.3-2-1.5-1.5 0.3-1-1.5-1.3-3.3-7.5-5.2-4.7-1-2.3-5.5-3-2.5-1.5-0.8-1.7-2.7-1.5-0.5-1.3-2.5-0.2-3.5-2z"/>
		<path id="Path 44" class="s44" d="m379.5 420.3l1.8-1.3h3.5l1.2 1 0.3 2 1.2 0.2v0.8l-1.5 1h-3l1.3-3.8zm86 6.8v-1h7.5l2.5 1-0.6 0.2z"/>
		<path id="Path 45" class="s45" d="m740 483.5h1.5l0.3-0.8 3.2 0.3 0.5 3.8 4.5 0.2v7h-2-4.5l-0.5-4.8-4.5-1.7-0.3-2.5zm-277.7 8.8v-0.3h0.5v0.2zm-330.3 6.8h2l0.8-0.8 0.2-5.2 4.5 0.2 1.5 2v2.8 4.5l-7.5 0.5v-1l-1.5-0.5zm578.8 2l0.3-2.8 2-1.7 7 1.7v1.8 2.5h-1.3l-0.7 1.5h-5l-0.5-0.8h-1.5zm13-1.7l1.2-1.3 7 0.5v4l-6.5 0.5-0.2-1.7-1-0.5zm-608.8 51l0.2-0.8 8.6 0.5v0.3h-2.3l2 0.2v0.5l-7.8-0.2z"/>
		<path id="Path 46" class="s46" d="m860 492.5v-4.5h1 4v4 2h-3zm-576 4.5v-5h3.3l0.7 1v3h-0.7l-0.3 1zm255 1v-2h3.5v1l-1 1zm57 30v-2.3l0.8-0.5 3.7 0.3 1.5 1.5v2h-4z"/>
		<path id="Path 47" class="s47" d="m962.3 408.8l7.5-3.3-1.8 2-4.7 1.7zm-388.3 27.5v0.8h-5.5v-0.8zm271.8 33.5l3-4.2h1.5l-4 4.5zm-86.5 8.2l-1.3-2.7 2.8 1.2 4.7 0.5 2.8 0.5-0.3 1zm-715.3 77.3l0.3-1.3 1.8 0.3 3 5.2-1.3 2 0.3 1.3-1.3-2z"/>
		<path id="Path 48" class="s48" d="m760.3 474l0.7-3h5v1.5l-0.7 0.8zm50 9.9l1.7-1 1.3 0.5zm-769.8 62.5l0.3-0.7 3 0.5 0.7-0.5v1.7l-0.8 2.3-1.7-1-0.2-1-1.3-0.3zm731.8 18.8l1.7-0.3h1v2l-2.2-0.2-1.5-1.3z"/>
		<path id="Path 49" class="s49" d="m918 512v-1l1.3 0.8 1.2 1.7h-1.5zm-136.8 8l1.1-1 0.7 0.5 0.5-0.8 5-0.2v0.8l-1.7 0.7h-4l-1.3 0.8zm-219.8 10.2l3.6-0.5 0.2 1.3-3.7-0.3zm84.2-0.2l5.5-0.3-0.2 1.5-4.8 0.3zm-159.2 3h3.2l0.3 1h-3.5zm-42.3 3l5.3-0.3v1.3h-3.5-2.3zm-409.3 10.2l1.1-0.2 0.7 1.5h1.3l0.5 6.7-0.5 0.8h-3.3l-1-1.3 0.5-6.2zm5 11.2l1.8-0.5 1.2 11.3-0.2 1.7-0.8 0.3-1.7 3.7h-1.5l-0.3-1.7 1-2.5 0.5-8zm-11.5 9.2l3.3-5.7h2.2l-1 4-3.2 3.5z"/>
		<path id="Path 50" class="s50" d="m557 530l4.5 0.3v0.5l-2 0.2h-2z"/>
		<path id="Path 51" class="s51" d="m79 486.8l0.8-1.3 5-1.8-1.8 2zm559.8 44l1-1 5 0.3h1l0.5 1.5-2.5 0.5 1 1.2-4-1zm-128.3 2.3v-1h5.3l0.5 0.7zm-114.5 7l0.2-1h2.3l0.7 0.8zm-71.5 3.2l1-1.5 2.3-0.2 2 0.2 0.2 0.8v0.5zm329.5 2.7l0.3-3h0.7l0.5 0.5-0.7 6.8-1.3 0.7zm-622.2 15l2-7.2 1 1.2h3.2l2 2.5v4.3l-1.2 0.2-1 3.8-0.5-1.3h-1l0.5-4.5-1.5-0.2-1.3 1.2zm-3 9l-4 1.3 0.5-2.8 3.3-1.7 1.2 1.7z"/>
		<path id="Path 52" class="s52" d="m327 519l0.3-2h6.2l1-1.3 3.3-1.4 1.2-2.3 0.5-7.3 1.3-0.7h5l1.4-2 2.1-0.3 3.7-2.5 2.8 2 0.2 3.8-5.5-1-3.8 4.3-2.7 0.9-0.3 3-1.2 1.3-4.3 1.5-1 1.5-2 0.5-1.7 2zm84-1v-3h5.5l1 1v2zm140 12v-6l13.3 0.7 0.4 3.8 1 1.5-0.7-0.2-3.5 0.5-4.5-0.3-3 0.5zm-277 2l0.2-4 4 0.3 0.3 1.7-1.5 1.5z"/>
		<path id="Path 53" class="s53" d="m757.5 412.3l0.5-0.6 1 1.3-0.8 7.7h-0.4zm-430.6 11.5l0.8-0.7 6.5-0.3v0.8l-1.2 0.7-6 0.3zm97.7 0.2l1-1 10 0.8-0.2 0.5-10.8 0.2zm34.8 2h6v1h-5zm81.5 7.5v-0.7l15.7 1.2-0.2 0.5-13.5-0.5zm37.5 3.5l0.5-0.5 4.5 0.5v1h-4.5zm19 2.8h7.7l3 1.2v0.5l-3.2-0.2-7.3-0.8zm23 4.8v-0.8l4.3 0.3 1.7 1.7h6.3l3.5 2.3 13.2 2 1 1.5-0.5 0.2-4-1.5-5-0.2-3-1h-1.7l-2.8-1.5-3.5-0.3-4.2-0.5-1.8-2zm183.5 38.5l8-0.2v0.2l-1.7 1-0.8 0.3h-5.2zm-13 36l11-0.3 3.7 0.3 1 1v0.5l-15.7-0.5zm-749.3 35.5l-1.5-4 0.2-3 1.3 0.2 0.2 1 1.8 1 0.7-2.2h0.3v3.2l1.2 1.8v1.7l-1.7-0.2-0.3 1.2zm247.8 45l0.2-2.7h0.8l1 5.2h-1.3z"/>
		<path id="Path 54" class="s54" d="m975.8 402l1-2h3.2l0.3 1.3 1.2 0.2v2.5l-1.5 0.5-0.2-2.8zm-687.3 25.1l7.3-0.1-1.8 1-4.5-0.2zm187 0l12 0.2v0.8l-0.7-0.5-11.3 0.5-0.5-0.8zm-203.8 1l2.1-1h8l-2.3 0.8-7.7 0.7zm-49.5 6.8l6.7-0.8-6.7 1.5zm351.7 1.5l4-0.5 1 0.8-0.5 0.5h-4.5zm-377.5 2.7l6.8-0.5 2.5-1.5 7.2-0.2-11 3.2h-5.5zm387-1v-1h4l1.5 2.5 8.5 0.3 0.3 0.7-9.8 0.3-1.2-2.8zm24.7 3.5v-0.5l5.3 0.5 2.7 2.5 4.3-0.2v0.7l-0.5 0.3h-4l-2.5-1.8h-2.5zm157.7 29.5l-0.2-2.7 1 0.5 0.5 1.7v1l-1.3 1zm46 11.8l11-1.8-1.5 1.5-3.5 0.8-4.7 0.2-1.3-0.5zm-16 0.8v-1l8 0.5 0.3 1.2zm-779 39.3h1l0.7-2.2 1.3-0.5 0.2 0.7-1.2 1.3-0.3 3.2-0.2 4.8-1.5-0.8zm763 1.3v-2.3l1.5-1 0.2 0.8-0.7 2.7 0.7 3 6.5 9 3 6.5-0.2 0.5-1.5-1.7-1-2.8-3-4.8-3.5-5zm-125 19.1l-0.3-5.3 1 0.2 0.3 1.3-0.5 4.2zm-471 8.5l2.7-0.5h8.5l2.3 1.5v1.3l1.2 0.5 4.8 5.7 3 2.3 0.2 1.2-1.7-0.7-9.8-10.8-15 1v-0.5zm-135.5 13h1.3l0.5-1.2 1 0.5 1.7 4.7-0.2 5.8-1.5-0.5v-2.3zm599.2 7.8l1-2.5 1 0.2-4.3 13.3v-4.3l1-3zm-13.7 22.3l5.2 0.5 1-0.5-0.7 1.5-4-0.3z"/>
		<path id="Path 55" class="s55" d="m463.3 534.5h2.7v0.3l-2.5 0.2z"/>
		<path id="Path 56" class="s56" d="m721 525.5l2-1 2.3 0.3-1.5 1.9 0.2 5.3h-2.3l-0.7-1.5zm4 10.5v-2.5l5.8 1-0.5 3.3-1.3 0.2z"/>
		<path id="Path 57" class="s57" d="m742.5 410l5-1.5 0.3 0.8-0.8 0.7zm-395 12.3l7-1.1 0.3 0.8-0.8 1h-6.5zm18-0.3l5.3-0.5 0.5 0.5-5.8 1zm-47.8 1l6-1.2 0.5 2.2 0.5 1.8-2.7 0.2 0.2-2.7zm117.8 1.2l0.3-0.5 12.2 0.3-7 1-4.7-0.3zm-171.8 4.3l8-0.5v0.5l-3.7 0.5-2 0.2h-2.3zm236.3-0.5v1h-3v-1zm-266.6 5.3l0.8-0.8 5.5-1 10-0.7-0.2 0.7-9.3 1.5zm281.5-2.2l10-0.3 4.3 1 1.5-0.7 6-0.3 4.2 2v0.8l-3.2-0.8-1-1-2.3 0.3-5.5 1-3.5-1.5-7.5 0.5-3-0.3zm-299.8 5.3l1.1-0.8 6-0.7v0.8l-5.5 1.2zm552.7 42.3l0.2-1 7.3 0.7 10.5 2.8 10 1.5v1l-8.5-1zm-742.3 37.7l5-2.3h2l-2 1.8zm762.8 3l2.5-0.3v1l-4 0.5-0.3-0.5zm2.5 24.1l0.3-0.6 0.7 0.8 1 5.5 2.5 3.5 3.5 9.2-0.5 5.8v-4.5l-1.5-5.3-1.7-2-0.5-1.2-3.8-8.5zm68 1.7v-0.7l2 0.5 3.8 0.5 1.2 0.5 1 0.7 3 1.8 5.5 0.7 3 1.5-0.2 1-3.8-1.5h-3.5l-3.7-2.2-2.5-0.5-1.3-1.3h-3.5zm-209.5 20.8l0.8-1 0.2 3.2-0.7 2-1-0.2 0.2-2 0.8-0.5zm-354.3 48.5l-3.9-5.5-1-6.8h1.2l0.5 5.5 4 5.8 1.5 5.5 1.3 0.7v3.5l-0.8 0.8-2-0.3v-0.2l2-1v-1.5l-1-0.8v-1.7z"/>
		<path id="Path 58" class="s58" d="m338.8 423l-0.3-0.8 5.5 0.1-0.3 0.7zm69.8 117v-1h1.2l3.3 0.3-0.8 0.7zm-27.2 1.5l3.2-0.7 0.3 1zm517.3 17.7l2-0.2 1.7 1-0.2 0.5-3-0.5zm-143.5 1.2l0.2-0.5h0.8l2 1.3 2.5 0.2 0.2 0.5h-1.5l-3.5-0.5zm-134.5 27.3l-3.2-1.5-3.8-4.3-1.7-0.5-3.5-3.8-0.5-1.5h0.5l2.7 2.3 6.3 7 1 0.2z"/>
		<path id="Path 59" class="s59" d="m354.5 421.3l5-0.1v0.8h-4.8zm16.3 0.2l5.5-0.5-2.3 1h-2.7zm546.3 73.5l0.5-0.5h1.2l-0.2 3-0.8 0.3h-0.5zm-110.2 25h2.2l1.3 0.2 2 2.8-0.3 0.5-5.2-3zm-109.3 7.7l0.8-1 0.7 0.3v0.7l5.3 3 1.5 1.8h-0.8l-4.7-2.5v-0.8l-2.3-0.2zm-231.5 7.2l5-0.5v0.5l-0.2 1h-4.8zm-29 3l0.3-1h3.7v0.8zm286.5 4.5l-4.5-2v-1.3l4 1.5 1.5 1.8zm-358.5-0.5l0.3-1h0.7 2.3l0.5 1zm-67.8 0.7l10.5 0.3-0.2 1-9 0.5-2.8-1zm-232.7 4.2h3.5l0.2 0.8h-3.5zm10.5 0.2l1-0.2 1.3 1.5 4.2-0.5v0.2 0.8h-1-5.7zm31 1.7l0.2-1.2 8.8 2.5 0.7 0.5-0.2 0.5-5.5-0.8-1.3-1.2zm-11 0.2l1.3-0.5 3.5 0.5v0.8h-4.8zm783.3 2.2l0.2-1 2.5 0.5 1.3 0.3 1 1.5-1 0.2zm8 3.5l-0.3-1 16.5 5.5-0.2 0.5-1.8-1-2 0.3-7.2-2-0.5-1-3.8-0.3zm26.3 8.5v-0.7h3.5l1.2 1-0.5 0.7h-2.7zm-621.5 7.5l0.2-2 0.8-0.5v9l-1.3 1.5-0.2 2.3h-0.3v-3l0.8-1.5zm-255.8 3.5l1.5-0.5 0.8 2-1.8 0.5zm216 24.7h-1l-0.7-1.5-1.3-0.2-3-2.8h-1.2l-0.8-1.5-2-0.2v-1l-1.2-0.3-2-2-2.8-1-0.7-1.5-2.5-1.2v-0.8l-3.8-2.2-3-3h-1l-1.5-2 2.5 0.7 9.3 8.3h1l0.5 1 8 5 0.5 1h1.5l2.7 2zm14 11.7l-7-5 0.3-0.7 3.5 1.7 5.7 5h-1z"/>
		<path id="Path 60" class="s60" d="m343.8 423l0.2-0.8 3.5 0.1v0.7h-1.5zm46.2 0v-0.7l22.3 0.2v1h-1.3l-8-0.5h-3-5-3zm367.1 4l-0.1-0.5h0.8l-0.3 3.5-0.7 0.3zm166.7 51l0.5-2 1.5-1.1 0.3 0.8-1 1-0.5 2.5-1 0.5-0.5 3.3-1 0.7-1.5 5h-1l0.5-3.7 2.5-3.5 0.2-2.5zm-7 23.2l0.5-3.5h0.5v3 8l1.5 3-1.2-0.7-1-1.5-0.8-3zm-135.2 19.5l1.2-0.8h4l0.3 0.5h-3.5l-1.8 1zm30.5 2.8l0.3-0.5h1.5l-0.3 0.7 0.8 0.3 0.2 0.2 0.5 1-2.5-0.5zm121.5 2.8v-0.8l-1.7-1 0.2-1 4 3 0.3 1zm-374 4.8l2-0.3 3.7 0.3 0.3 0.7-6.5 0.3zm383.7 1l-1-1.3 2.8 0.5 2.7 2.8-0.5 0.2-0.2-0.2zm-461 3l0.7-1h3.5 3.5l1 0.5zm-41.2 2h2.7 2.3l-0.3 0.7h-4.7zm-39.8 3.5v-1.5h7.3v1zm-11.5-0.5h3.7l-0.2 0.8h-4.5zm-18.3 1l4.3-0.3 4 0.8-8.8 0.5 0.3-1zm357.5 5.2l-2.5-1.7h-1.3l-1.7-2h1l2.2 1 3 2v0.5l-0.2 0.5h-0.3zm-421.2-3.3l1.2-0.2 13.3 0.7-4 0.8-10.8-0.3zm-260 3h0.3v0.3h-0.3zm1 0.2l0.8-0.2h2.7v0.7zm11 0.8h3.8 1l0.2 0.7h-4.2zm671 0.5v-0.2h1.5l1.7 1.2 4.8 2.8 0.5 1.2 2.5 0.8 1.2 1.7-7.2-3.2zm-644.3 1.7l5-0.5 0.3 0.5zm15 0l3.2-0.2-1.5 1.2h-1.7zm855.5 4.8l-0.3-5 1 1v3.7l1 1.5 0.3 2.5-0.8 0.5-0.7 4.8-4.3 1.7-3.5 0.3 2.8-1.5 3.2-0.8 1-1 0.5-3.2 0.8-0.5-0.3-3.3zm-841.5-2.7l0.3-0.5 7.7 0.2 1.3 0.8-8.5 0.2zm766.7 1.8l1-0.3 2.8 1.3 0.2 1-1.7-0.3zm-274.5 23.3l-3.8-4.5-4.2-2.8-4.5-5.5-1.3-0.5-0.5-1.7-2.2-2.3v-1.5l4.7 5.3 0.3 1 3.5 3 8.5 9.5zm-573.8-15.3l1.3-1.2 1.5 0.2-0.5 4.5-1.3 0.3-2 0.2zm726.8 2l0.2-0.7 8.3 3.2-0.3 0.8-2.5-0.3-1.2-1.2-2-0.3-0.3-1zm156 1.5l0.5-0.7 4 1.2-0.2 0.5-1.3 0.3-0.2-0.8zm-144.3 3l0.3-0.7 2.2 0.2h2l3.8 1.5-4-0.2v-0.5l-1.5 0.5z"/>
		<path id="Path 61" class="s61" d="m740 483.5v-1.8l1.8 1.1-0.3 0.7z"/>
		<path id="Path 62" class="s62" d="m831 520l8.5-0.5 0.5 2-1.5 1.5-3 0.3-2.5 1.4-6.8 0.3-1-0.5-0.2-4.5zm-374.3 15.3l-0.7-5.3 2.3-1 9.7 1 2 1v3l-4 0.5h-2.7l-3.8-0.3zm-404.3 9.5l0.3-2.2 6-0.5 1-1h4.3l2-2.5 3.7 0.2-0.2 7.3h-6.3l-4-0.3zm28.5 2.3v-3.8l3.5-0.7 1.3-2.3 1.7-0.2 2.5 2v5.2l-7.7-0.2z"/>
		<path id="Path 63" class="s63" d="m179.3 551.3l2.7-0.3 2 0.5-3.8 1-1-0.2zm759.8 14.7v-4.7l2.3-1.3h2.7l0.3-1h4.7l2.8 1 0.7 3.5-2.7 1.5h-0.8zm-15-0.7v-4.8l1-0.5 2.3 0.3 2.7 1.5v3.7z"/>
		<path id="Path 64" class="s64" d="m747.5 408.5l5-0.5 3.3 1.5 2.2 2.3-0.5 0.5-2-2-3.5-1.3-4.3 0.3zm9.6 17.9l0.7-5.7h0.5l-0.5 5.8zm-397.5-4.5v-0.8l1.5 0.8h4.5v1h-4.5zm-25.3 0.7l4.3-0.5 0.3 0.8-4.5 0.5zm55.7-0.5v0.7h-2.5v-0.7zm22.3 0.2l5.7-0.5 4.2 2h2.5v0.5h-4.2l-2-1.5-4.8 0.5h-1.5zm-88 1.5l2.8-0.2v0.7 0.3l-2.3 1zm163.3 4v-0.8l1.5 0.8h8v1h-8zm12.5 1v-1l11 0.2 4 2.8v0.7l-3.8-1.5-1.2-0.7zm-246.5 1l6.2-1.5h4v0.7l-5.7 0.8zm306.3 5.5l-0.3-1.5 1.2 1 17.3 0.7-4 0.5h-5.5zm-371.3 4.5l8-1v1h-3.5l-2.7 0.5zm461.5 11.8l0.5-0.3 5.7 1 1 1h4.3l7.5 1.5-4.5 0.3-5.5-1-4.5-1.3h-3.8zm171 78.3l1 0.2-0.2-0.5 2 0.3 0.5 1 3 1.5 2.7 0.5v0.2 1l-4.5-2.2h-1.5zm-784.2 44l1.8-1.8 0.2 1.8h1.5l-1.2 2h-1.5zm252.2 14.2v-3.2h1.5l-0.5 9 0.5 2.7h-0.7l-1.3-3.2v-2.5z"/>
		<path id="Path 65" class="s65" d="m464 500v-5h2l1 5z"/>
		<path id="Path 66" class="s66" d="m135.5 551h3.8l-0.3 1-2.5 0.5z"/>
		<path id="Path 67" class="s67" d="m497.5 534l3.5-0.5h0.3v1zm-404.8 15.3l1.5-0.6 0.8 0.5v0.8l-2.3 0.2zm682.5 19.1l1.5-0.6v0.5 0.5z"/>
		<path id="Path 68" class="s68" d="m659 530.8l0.3-0.8h1.9l0.6 0.8zm-366.1 24.7l0.3-0.5v0.5zm-0.7 0.8l0.2-0.3h0.3l0.5 2.3v1.2h-1zm610 3.8l0.2-0.5 5.5 1.5 4.5 1.7v0.8l-4.5-0.8-6-2.2zm36.8 6l10-1v1l-8.3 0.5-1 0.2v0.8l-6.7-1v-0.8zm-170 0.3l0.2-0.8h2l1.5 1.3-0.2 0.7-2.5-0.2z"/>
		<path id="Path 69" class="s69" d="m756.8 430.3l0.7-0.3v3h-1l-0.2 1.2-0.3-2.2zm161.3 60.7l1.5-2.2h1l-0.3 1.7h-1l-0.5 4h-1.2zm-103 34.3l-0.5-1h1l4.2 3.7 2 1.8 0.3 0.5-1-0.3-2.8-1.2v-0.8zm-123 1.3l3-0.5h2.3l1 0.7-0.8 1h-7.7l-2 1.3-2.5-0.5-6 1-4.8-0.3-1.7 1.3-11 0.2-0.5-0.7 1.7-1 12.5-0.5 0.5-0.3 1-0.5 3.3-0.7 3.7 0.2zm244.3 1l-0.3-1 1 1.3 2 0.2 0.8 1.5-1.8-0.2zm-367.5 2.5l1 0.2 0.3 0.8 4.2 0.2 0.5 1.8-0.5 0.2-0.5-1-3.7 0.5-4.5-1-0.3-0.7h3.3zm82.2 1.2l0.3-1.5 8 0.3-0.3 0.7-5 1-2.2 0.3zm-108-0.3l2 0.5 5-0.5v-0.7l1-0.3 3 0.5 3-0.5 0.5 1h2l-0.5 1-11.3 0.3-3.7 0.2-3.8-0.2-0.2-0.3 0.2-0.7zm-53.2 2l10.2-0.5 0.8 0.2h0.2v0.8l-3.5 0.5-0.2 0.7-6.3-0.2-1-0.5zm-468.5 2l-0.7-1.5h1l3 3.2 4.5 2.8v0.2l0.5 1h-1.5l-1.5-1.7-2.3-0.5-0.5-2zm455.3-1l5.5-0.3 1 0.3-0.8 1-2.5 0.5-2.2-0.5h-6.5v-0.5-0.3zm-13 1l2.5-0.2v0.2 1h-0.3l-3-0.2zm-14 0.7l6.8-0.2v0.7l-2.5 0.3v1h-4.3v-0.5zm-30.5 1.2l0.8-0.2 4.2 0.5 1.3-0.5 11.7 0.2h0.3l-0.3 1-1.7 1-1.8-0.5-20.5 0.8-3.2-0.3 0.2-1 4-0.2 5 0.2zm-43 3h6.8l5.5-1h0.7l0.8 1-1 0.8-4 1-0.3-1-3.2 0.7h-1.5l-4-0.7zm-24.5 1.5l1.5-0.8 5.7 0.3h3.8 2.7l-0.2 1h-4.3-7.5l-0.2 1-1.8-1zm17.3 0.5l-0.5-1h3l-0.3 1zm-336.8 0l0.8-0.5 2.3 0.5 1 1.2v2.8l-1 0.2v-2.7zm36.2 5.7l-0.2-0.7h4.2l2.8 0.2-0.3 1.8h-1.2v-0.8l-1-0.2zm55.5 2.2h4.5l6.7 0.8 0.5 0.2 1 1.5v0.5l-2-1-9.7-0.2-1.3-0.8v-0.5l0.3-0.2zm26 1.5l5-1.3 4.7 1 6-0.2 0.8 1v0.2h-1-0.5-2-7.5l-6.3 1.3zm63 17.5l-3-1.5-1.5-2.8 4 2.8z"/>
		<path id="Path 70" class="s70" d="m48 562.8l-0.3-1.3 1.3-2v1.5l1.5 0.3-0.3 2-0.5 1.2h-1.2z"/>
		<path id="Path 71" class="s71" d="m538.3 533.3v-1.3h1.2l0.8 0.3v1zm-21.8-0.3l3.3-0.2v0.5h-3.3zm430.8 1.2l0.5-0.2 1.5 0.7 1.2 2.8zm-610.5 8.2l6-0.2v1h-6zm392.8 4l0.2-0.5 0.3 0.2 0.7 1v0.3zm-551.3 5.7h1l1 0.3v0.5l-2 0.2zm-7.2 1l0.5-1h1.7v1zm118 31.8l0.3-3.5 1-0.3h0.2v3.8z"/>
		<path id="Path 72" class="s72" d="m36.5 569v0.8l1.3 0.4-1.6-0.2-1.4 1-0.6-2.5 0.8-0.5z"/>
		<path id="Path 73" class="s73" d="m52.3 546.8v-0.8l1.7 0.5 0.3 0.8-1.3 0.2zm738 22.5v1h-2v-1z"/>
		<path id="Path 74" class="s74" d="m788.5 518.5l16-0.5 3.8 1 0.7 1h-2.3l-0.9-1-3.8-0.3-11 0.3-2.5 0.3zm-84.3 12.2v-0.2l5 1.7-0.5 1.3 2 1.2-0.7 0.3-2.8-0.5-0.2-0.8 0.5-0.5-1.8-0.7zm-171.2 0.2l7.2 0.3-0.2 0.7h-0.5-1.3v1.3h-1l-0.5-1-2 1v-1.3h-11.7l-0.5 0.3-2.8-0.3v0.8l-3.2 0.2-0.3-0.2-0.5-0.8h-5.2v1l-3.3-0.2-0.7 0.7h-2-2.3-1-0.2v-0.7l1.2-0.8 7.8-0.7zm-67 3.5l4-0.5 1 0.2v0.3l-5 0.5v-0.3zm-9.3 0.8l2.8-1 3.7 0.2 0.3 0.5-0.8 0.8-1.7 0.7h-0.8l-4-0.2v-0.8zm-67.7 3.8l21-1-0.3 1h-1.2-7.3v1.5h-1.7l-0.3-0.8-0.7-0.7h-2.3l-0.2 1h-2.5-3.8zm-359.4 1.7l-0.6-1 3.8 1.8-0.8 0.5h-2.2zm307.5 0.5l14.5 0.2-0.3 0.5h-0.5l-3.7 0.3h-4.3l-6 0.2-0.2-0.5zm-25 0.8l3 0.2 0.7-0.7h1.8 10.2l-2.2 0.2-1 1.5h-1.5l-0.5 0.3h-0.3l-13.2-0.8zm-21.5 0.5l1-0.7h2.2l3.3 1h0.2l-1.5 0.7h-1.5l-3.2-0.2zm-241 3.5l2.5-1.3h0.5l6.7 1-0.2 1-5-0.2-1.8-0.5zm-11.5 1h1.5l0.3-0.8 0.7 0.3v1l-0.2 3 1.5 4v2.5l-1.8 0.5-2-2.5 0.5-0.8-0.5-6.7zm43.8 0.5l0.5-0.5 7.7 0.2 12 1.3 2.3-1.5 2 0.7-0.3 1.3h-1.2l-3.3 0.2h-1.7l-3.5-0.5-1.3 0.5-0.7-0.5-1.5 0.5h-1l-0.3-0.5-5 0.5-1.5-0.2-3.5-0.8v-0.2zm83.8 3.5l2.5-0.3 7.2 0.5h3.8 0.2v1h-1-4l-0.5 1h-0.5v-1h-1.7l-0.5 1h-0.3l-3-1-0.5-0.2h-0.5-0.2-0.3zm-29 1.5l2.5-0.5 0.3-1 10.5 0.5-0.8 2-1 0.5-3.5-0.5-3.5-1-2.5 0.5h-2z"/>
		<path id="Path 75" class="s75" d="m750.5 525.5h-5.3l0.8-2 3.5-1.5h2.5v0.3l-1.5 0.5-1.3 1.2 1 1h1.3z"/>
		<path id="Path 76" class="s76" d="m830 534.3v-1l4.5 1 0.3 1 1.4 0.2 0.8 1 7 2.8 7 3 8 2v0.7l-7.8-1.7zm-539 9l3.3 0.2-2.3 0.8 1.3 9.7v0.5 0.5l-0.3 0.5-0.2 0.5h-0.3zm455.6 13.8l2.2-0.3 2.7 1.3 3.8 2-0.3 0.5-5.2-1.5-1.5-1.3h-1.5z"/>
		<path id="Path 77" fill-rule="evenodd" class="s77" d="m933.3 461.5l1.2-1-1.2 3.8-1.3 0.2zm-1.2 62l-2.8-1.7-3.5-3.8h1.8l0.7 1.5 3.8 3zm-388 9l3.7-0.3-0.5 0.8-3.2 0.2zm163 1.3l-2-0.5v-0.8h0.7l1.8 0.8zm-200.5-0.3l0.7-0.7 3.3 0.2 5.7-0.2 0.3 0.2v0.3zm-35.8 2.5l0.3-1h6.5v0.7zm-9.8 0.5l1.8-0.7 3 0.2zm-4.8-0.2l4 0.2-6.5 1v-1zm-10.5 1.5l0.3-0.7h3.5v0.5zm-49.8 2.2l3.3-0.2 0.2 0.7-6.2 0.3 0.2-0.8zm-49 2.3l3.8-0.3-0.8 1.3h-3zm-293 4.3l5 0.2 0.8 0.2 0.7 0.8-6.2-0.5zm119.7 6.8l0.5-1h4v1zm-35.2-0.3l2.5-0.5 3.5 1zm-96.8 4v-2.5l2.3 0.8 2.7 5.5-3.2-0.6-0.5 8.1zm703.2-0.8h-1.3l-0.2-1zm-707.3 9.5l1-3.7 1.3-0.3-0.5 8-1.8-1zm883.3-0.2l0.2-0.5 2.8 0.2 6 0.3 3 0.2v0.8l-10-0.3zm-296 25l-2.3-0.2-0.5-1-1.2-0.3v-1.2zm-358.3 21.4l-1.4-0.2v-0.7zm8.2 5l-2-0.5-1.5-1.5-2-0.3-0.7-1.2-1.8-0.5-0.2-1h1l5.5 4h1.2zm10.3 4.2l-4.3-0.7-0.5-1.3 3.8 1zm10.7 2.3l-5.5-0.3-1.2-1.2 3 0.5 3.7 0.7z"/>
		<path id="Path 78" class="s78" d="m155.3 552.3h7.4 2 0.5v1l-9.2-0.3z"/>
		<path id="Path 79" class="s79" d="m519.8 532.8v-0.8l2.7 0.3v1h-2.7zm190.2 2.2l0.8-0.2 3 1.2 1 1.5h-2v-0.7l-2.8-0.8zm-357 8l0.3-1h7.5l-2.5 1zm-253.3 7v-0.7h1.8v1zm192.2 15.2l0.3-5.7h1l-0.3 4.5zm-257-0.5l1.3-0.3h1l0.5 1.3v3l-1.3 0.2-1.5-1 0.5-1.5z"/>
		<path id="Path 80" class="s80" d="m330 542.5l6.5-0.5 0.3 0.5v0.8l-6.8-0.3zm-163.8 9.8l0.3-0.3h0.3v1.2h-1.5v-1z"/>
		<path id="Path 81" class="s81" d="m760.8 563l-1.5-1h1.5l0.2 0.3z"/>
		<path id="Path 82" class="s82" d="m504.5 533.5l-0.8 1h-1.4l-0.1-1z"/>
		<path id="Path 83" fill-rule="evenodd" class="s83" d="m917.8 497.8l0.7-0.3-0.7 3.2zm-377.5 34.5l-0.8-0.2h0.5zm0 0l3.8 0.2v0.8h-3.8zm-193.2 10v1h-4.3v-1zm-176.2 11h-3v-1zm122 2.7l0.2-0.5h0.3v2.8z"/>
		<path id="Path 84" class="s0" d="m151.8 495l2.9 0.3 0.8 0.7v2l-0.5 1h-3.5l-0.5-3.3z"/>
		<path id="Path 85" class="s2" d="m374.8 467l4.2 1.3v3.7l-0.8 1.7-3.2 0.5-1-1.7v-4.5zm-15.5 5l4 0.5 0.7 0.7v2.8l-0.7 1.8-1.5 0.7-4.3-0.5-0.5-4.3z"/>
		<path id="Path 86" class="s5" d="m236 458l2.8 0.3 1.2 1.2-0.2 3.3-1.3 1.2-3.2-0.2-0.8-0.5-0.5-3.3 0.8-1.5z"/>
		<path id="Path 87" class="s11" d="m909 466l0.3-3.3 3.5-3.2 3.2 0.5v3l-1.8 3.3-1.7 1.7h-2.5v-1.5z"/>
		<path id="Path 88" class="s16" d="m146.8 458l1.4 0.3 0.3 0.7-0.5 1h-1zm85.5 110h1.7l1.5 1-0.5 3-2.7-0.2-0.8-2z"/>
		<path id="Path 89" class="s23" d="m910.3 538l3.5 0.3 1.7 1.7-1.5 2.5-3.2-0.2-0.8-1.8z"/>
		<path id="Path 90" class="s31" d="m298.3 532.5h0.2v0.3h-0.3z"/>
		<path id="Path 91" class="s39" d="m364.8 431l11.2 1.8 6.2-0.1 1.3 1.8-1 2-4.5-0.5-3.8 2.3-3 0.5-0.5 2-2 1.2h-12.2l-2.5-1.2-2.8-4v-3.3l3-1.5h7.5zm545.3 37l-0.2 4.8-8.8 9.2-4.7-0.2-0.8-3.8 1-1 0.8-3 1.7-0.5 0.3-1 1-0.2v-1.3l2-2 1.2-0.2 2.3-2.8h3.2l1 0.5z"/>
		<path id="Path 92" class="s58" d="m412.8 538.8h0.2v0.2h-0.3z"/>
		<path id="Path 93" class="s59" d="m94.8 548.8h0.2v0.2h-0.2zm3.2 0h0.3v0.3h-0.3z"/>
		<path id="Path 94" class="s60" d="m48 545.8h0.3v0.2h-0.3z"/>
		<path id="Path 95" class="s69" d="m814.3 524h0.2v0.3h-0.2z"/>
		<path id="Path 96" class="s71" d="m947 534h0.3v0.3h-0.3zm-218 12.2h0.3v0.3h-0.3z"/>
		<path id="Path 97" class="s74" d="m500.8 532.5h0.2v0.3h-0.3z"/>
		<path id="Path 98" class="s80" d="m80.5 549h1v-0.8l3.5 0.8z"/>
	</g>
</svg>