<svg version="1.2" xmlns="http://www.w3.org/2000/svg" viewBox="0 0 1000 1000" width="1000" height="1000">
	<title>Alosa_pseudoharengus</title>
	<style>
		.s0 { fill: #eee7db } 
		.s1 { fill: #ede4d4 } 
		.s2 { fill: #ede9e2 } 
		.s3 { fill: #e8e6dd } 
		.s4 { fill: #c7bfa5 } 
		.s5 { fill: #ebe2ce } 
		.s6 { fill: #c1b89e } 
		.s7 { fill: #cec5ac } 
		.s8 { fill: #dad2bb } 
		.s9 { fill: #d5ccb3 } 
		.s10 { fill: #e1ddcc } 
		.s11 { fill: #e7e2d4 } 
		.s12 { fill: #e6ddc9 } 
		.s13 { fill: #dfd8c1 } 
		.s14 { fill: #c3c0ab } 
		.s15 { fill: #dbd8c7 } 
		.s16 { fill: #bbb7a3 } 
		.s17 { fill: #d4d1be } 
		.s18 { fill: #d4c4a7 } 
		.s19 { fill: #e5dabc } 
		.s20 { fill: #c8c7b2 } 
		.s21 { fill: #deded1 } 
		.s22 { fill: #cdbea0 } 
		.s23 { fill: #cdcbb8 } 
		.s24 { fill: #e2e5dd } 
		.s25 { fill: #e2e2d5 } 
		.s26 { fill: #e1d3b5 } 
		.s27 { fill: #c8b799 } 
		.s28 { fill: #e8dfc3 } 
		.s29 { fill: #dbcbae } 
		.s30 { fill: #b3ae9b } 
		.s31 { fill: #c6cdc0 } 
		.s32 { fill: #d5d8cd } 
		.s33 { fill: #babeaf } 
		.s34 { fill: #cfd2c5 } 
		.s35 { fill: #b3b7ab } 
		.s36 { fill: #aaaea4 } 
		.s37 { fill: #766455 } 
		.s38 { fill: #a2937e } 
		.s39 { fill: #a7a597 } 
		.s40 { fill: #7a776e } 
		.s41 { fill: #6a675f } 
		.s42 { fill: #605046 } 
		.s43 { fill: #6e574a } 
		.s44 { fill: #58453b } 
		.s45 { fill: #675e54 } 
		.s46 { fill: #bbb297 } 
		.s47 { fill: #e9ebe6 } 
		.s48 { fill: #b7ac93 } 
		.s49 { fill: #bdc2bb } 
		.s50 { fill: #4e4944 } 
		.s51 { fill: #eeefeb } 
		.s52 { fill: #b1a790 } 
		.s53 { fill: #c3b191 } 
		.s54 { fill: #bfc8b6 } 
		.s55 { fill: #403d38 } 
		.s56 { fill: #beab8c } 
		.s57 { fill: #382f2a } 
		.s58 { fill: #979386 } 
		.s59 { fill: #150f0f } 
		.s60 { fill: #928473 } 
		.s61 { fill: #aaa18e } 
		.s62 { fill: #2d2521 } 
		.s63 { fill: #978b7a } 
		.s64 { fill: #837667 } 
		.s65 { fill: #9ca29c } 
		.s66 { fill: #9f9888 } 
		.s67 { fill: #a09e91 } 
		.s68 { fill: #aa9c85 } 
		.s69 { fill: #766f64 } 
		.s70 { fill: #7b6d5e } 
		.s71 { fill: #8c7d6d } 
		.s72 { fill: #918d80 } 
		.s73 { fill: #211817 } 
		.s74 { fill: #8a8579 } 
		.s75 { fill: #b1a288 } 
		.s76 { fill: #baa384 } 
		.s77 { fill: #9a998f } 
		.s78 { fill: #909790 } 
		.s79 { fill: #847e73 } 
		.s80 { fill: #4d3a34 } 
		.s81 { fill: #b0977a } 
		.s82 { fill: #828680 } 
		.s83 { fill: #836a58 } 
		.s84 { fill: #898e88 } 
		.s85 { fill: #6d706a } 
		.s86 { fill: #7b7f79 } 
		.s87 { fill: #5c5c56 } 
		.s88 { fill: #45342f } 
		.s89 { fill: #56554f } 
		.s90 { fill: #9f8b74 } 
		.s91 { fill: #947a64 } 
		.s92 { fill: #9e846b } 
		.s93 { fill: #8a7260 } 
	</style>
	<g id="Background">
		<path id="Path 4" fill-rule="evenodd" class="s0" d="m367 414v-3l5 1v2l-2 2zm-152 19l1-5 4 1-1 4zm262 31l2-12 4 2 1 6-2 5zm-40-6l3-3 4 2v5l-1 2h-4zm116 10l7-4 1 8-2 6h-3l-3-6zm41 16l-4-1-1-8 6-3 2 4zm33-4v-6l5-2 3 8-2 4-5-1zm-26-4l6-1 1 7h-7zm17 10l3-1 5 1-1 15-3 1-3-2zm-482 2l5-1 2 4-2 11-7-1zm606 10l6-5 3 4-1 5-6 4h-2zm-244-2l8-2-1 16-2 3-5-1zm258 2l7-3 1 3v4l-6 2zm134 0l4-2h8l-2 4-9 1h-1zm-14 8l8-2h7l1 4-5 1h-11zm-279 8l-1-8 6-1 1 9zm-59 12l3-1 1-6 8 2 2 8v17l-8 2h-6l-4-4-2-14v-3zm-201 10l4-10h4l3 16 1 8h-6l-5-5zm15 6l2-14 5 2 1 7h9l6 4 5 5 1 15 5 1 1 10-3 14 12 7-2 11-13 6-3 12-12-2v-17l5-3 3-1-2-4-2-22-6-6-8-1v-15l-4-3zm118-8l5-4h9l4 4v15h4l8 1v4l5 4-1 7 6 1 13 5 3-14h5l1 3-2 10-6 5v13l-2 12h-5l-3-1-2 5-8 1-6 2-1 5-12-5-8-1-4-4-2 9-11-3-2 8h-4v-10l8-4-2-8v-2h10l6-12v-4l-6-3-2-16 4-9v-4l-4-1v-8zm124 4l3-1 5 7h10v12l4 4v4l-4 11-15 1-1-1v-19l-5-13zm-24 4l1-4h5v2l-2 2zm-128 6l-1-8h4v8zm63-3l2-5h7v12l-6 1-3-2zm113 7l2-12h6l3 5v5l-5 3zm-214 1l4-6 10-5h7l4 5h5l5 7 3 4v5l-4 2v7l-4 3v24l10 7v12l-6 3v3h-13l-6 4-5-34-4-4v-14l-6-2zm254 1v-8h8v8l-1 2h-6zm-18-1v-5h7l3 6-2 4h-4zm-322-3h8l9 2 1 10 5 17 7-5 4 2v20h-6l-2 4h-6l-5-12-8-2-3-5v-16l-4-3zm514 14v-2l9 1 17 12-5 1-4-2-9-5zm-642 16v-10h4l6 6v6l-2 18h-6l2-17zm352-7v-3h8l-1 8h-5zm364 0l4-1 10 4 1 2-2 6 9 8v3h-4l-9-6-9-5-4-4v-3h6zm-450 17l-6-2v-6l6 2zm-146 0v-5l10 1v4zm583 1v-3h2l7 4v3zm-583 13v-8h10l2 10h5l5 6h6l4 3v15l-12 1-3-4h-6l-5-6-2-13zm612-4l2-2 9 6-5 2z"/>
		<path id="Path 6" class="s1" d="m492 452l4-3 2 3v4h-6zm38 8l4-2 2 2v6 6h-2l-4-3zm15 4l3-1 2 5v4l-6 3-2-3v-6zm41 41l-6-8 4-11 6 6v2l-3 2 2 8zm-466-5l2-5h5l-1 7-1 2zm514 9l3-3 7 2-1 8h-7l-2-3zm110 13v-8l8 2-1 8zm40-5l2-1 3 4h-4zm-232 12l6-3 6 7 1 11 5-2h4v8l6 3v12l4 4v7 7l4 1v8l-16-1v-7l-4-4-11 3h-1l-1-14-3-1v-22zm42 9l-5-3-1-7h6l3 6v3zm-55 18l-1-8h6v6zm-282 12l1-16 20 4 22-2v2l-2 11 6 1 6 17v5 6 8l-2 15-5 1h-5l-2-5-6-4-4-5h-6l-10-4-9-3-21-8-2-11 2-2 11 2 4 5h4l-1-7zm627-5l-2-5 7 2 1 4zm-533 5l5-2 8 1 6 6 2 22-1 3h-6l-7-10h-6v-12l-4-2zm173 20v-13l6-5 12 3 2 5h5v6l-19 4zm-80 30v-12l-10-7v-24l4-3h6v8l6 2v6l6 2 1 4h3l2 8-8 4v10l-4 4zm-48-25l8-3h6l4 4 5 34-3 6h-4l-2-4h-13l-1-4h-7l-2-4h-9l3-12 13-6zm108 12l8-1-1 6h-5zm-30 11l3-10 8 1 4 17h-9-6z"/>
		<path id="Path 7" class="s2" d="m498 316l8-5 5 3-8 5h-1zm444 112l5-2 5 1v5l-12 3-2-3 1-2zm-454 32l4-4h6v6l-2 4h-6zm-120 19l-4-4v-7l4-4 4 7zm7-8l2-5h5v12h-5zm15 11l2-16 5 2v6l-3 8zm90 5l1-11 6-2v14zm-28-10l6-1v8h-6zm52 37l2-3 6 2v9 7l3 2-1 9h-7l-2 5-5 5-8-1v-10l-4-2v-3-7l4-3h4l1 3 4-1zm374-1l5-1h4l8 1 1 5-9 1 7 3 2 2-1 12-11-2-5-2v-4h4l-3-4v-4l4-2-6-1zm-814 15l2-9 6-2 7 5-8 6-1 5zm396 0l3-4h6l1 4v6l-2 1-8-3zm-84 4l6-2v17l4 2v13l-5-1-1-15-5-5zm12 16v-13l4-4 5 4 9-3 4 4h5l3-4h10l8 5-2 10h-5l-4-5h-7l-10 5-4 6h-3l-4-5zm63-7l3-2 4 1v6l-6 4h-2zm178 4l5-3 6 3v3 5l-3 5-3 2-5-4v-6zm-161 12l-4-3v-8l4-3 4 1v4zm-127 5l2-12h6v16h-6zm558 1l-1-13 5 1 9 4 5 4-6 2 3 5v3l-4-1-8-4zm-281-3v-8l6 1 3 11h-7zm-176-4l6-2h4l-2 18-5-1-3-8v-5zm-46 37l-12-7 3-14 6 1 1 3h8l2 14zm-254-9v-6h5l5 4-4 1zm56 16l2-18h6v6l7 4-1 3zm116-4v-6h6v6zm52 7l-1-5h6v2zm-28 9v-12h6v4 6l6 10h12l-1 10h-19v-15zm40 18v-8h9l2 4h7l1 4-1 4h-6z"/>
		<path id="Path 8" fill-rule="evenodd" class="s3" d="m513 337l5-1 1 6-2 3-5 1v-7zm11 6l10-1-1 4-3 3-6 2-2-5zm-12 8l4-2 3 5-3 3h-2zm10 5l9-4h3l1 6-2 3-9 3-2-7zm5 15l6-4 2 3-3 3-6-1zm-274 55l-1-5 4 1v4zm-15 3v-6l4 2-1 4zm110 22l2-6 4-1 1 2-1 13h-6zm-48 6l3-12 3 1-1 12zm-47-8l4-3 2 5-3 7-2-2zm108-1l5-2 1 6-2 7-5-1zm-37 11v-8l4-4 3 7-1 5zm47-7l2-4 5 2v6l-5 3zm53 4l4-8 5 2v8l-2 4-7-2zm-26-2l1-4h7v4l-2 5h-5zm64 4l1-4h7l-1 11-1 3-5-1zm40 4l3-6h5l2 4-1 7-2 2h-3zm16-2l4-2 2 6h-5zm-238 12v-4l5-3 1 7-1 4h-4zm295 1l5-5 4 2-2 12-5-2-2-5zm-173 1l1-2 5 2v6l-1 1-5-1zm38 8l1-6 6-3 3 11 2 13 4 1h8v8l5 1 3-13 7-5 1 7v9l4 2v23h-9v-13l-5 1-1 6h-6l-3 4-7 2-7-6h-6l-4-4 2-12-6-4-2-5-4 1v4l-2 2-8-6-4 2h-6v-10l2-4 7 4 5-3 14 1zm72 31l-4-25v-11l4-3 8 18v8l-1 10 5 2v10l-2 8h-5l-1-7-4-1zm387-32l4-3h4l7 5 6 1v5l-4 2-10 1h-4zm-855 6l4-1v4l-4 1zm351 3l1-3h4l2 5-2 6h-5zm277 2l2-5h6l3 5-4 6h-5zm-14 0l3-4h7v4l-2 4h-7zm29 0l1-3 6-1 1 3-2 6h-5zm15 10l-1-11 7 1-1 10zm28 4l-2-10 3-4h4l3 6-2 7zm-206-6l3-4h5l-2 12-6-2zm244-2l1-2h4l2 5-1 5h-4l-2-4zm12 3l2-4h5l1 4-2 8-5-2zm14 1l2-2 4 1v4l-5 1zm-208 3l3-1 3 2 2 22h-6zm118 5l8-3 1 1v10h-8zm-673 5l3-4 8 5 14 13v7l-16-4-3-3zm20 3l-1-5 8-2h11l3 3v3l-6 2-2 9zm478 4v-8l3-3 6 5v10l-6 1zm-359 4v-4l8-8h2l10 4-2 15 2 6-6 6h-4l-4 5-9 5-8 1 1-30zm254-10v-2h6v6h-2zm68 8v-6h4v6zm-82 4v-8h9l-1 8zm-324 17v-4l16-14h8v5l2 12-9 7h-8l-7-4zm130 18l1-1h5l2 4-2 7-7-2zm-122 17l1-4h9v6h-1l-8-1zm36 1l4-5h1l7 2v6l-4 3h-7zm98-4l4-1 2 4-2 4-4-1zm-68 33l2-4 6-1v3h5l-3 4-4-1zm143 10l5-1 1 1-1 10-2 2h-4v-4zm58 10l1-10h4l12 2v10h-17z"/>
		<path id="Path 9" class="s4" d="m443 402l4-4h1l2 6-2 3-3 4-6 1-1-3zm135 10l3-2h5l3 2 4 8-4 5-9 2zm-72 2l5-1v3l-1 2h-3l-2-2zm458 20l2-8h16l2 3v5l-4 2v3h3l-17 21-8-8v-8l6-4zm-93 22l6-3 2 3-4 3h-3zm6 6l13-6 1 5 1 11-3 2-6-4 1-4h-6zm-570 0l5-5 6 1 6 1h6l1 4-1 11 2 3 1 9 1 12v4h-10-6-6v-8l2-9-4-2v-5-4-8l-3-1zm47-2l6-2 5 1 3 5-4 4v7l4 4 4 10-4 7h-4l-2-6h-6l-2-2zm96 2l4 2 4-6h4l1 9 5 1v4 12l6-1 5 4v2l-7 5-3 13-5-1v-8-6l-4-1-2-7v-8l-6 1-9-13 1-2zm-56 20l3-8h5v6l5 1 1 7-2 4h-4l-2-5h-4zm168-2l4-2 6 2h5l5 2 2 4-4 11 6 8 2 23 1 7 5 3-3 5-15-3v-2l-5-12 1-11-4-2v-14l-6-14zm-140 3l18-1-6 8-14-1-2-5zm177 3l2-4h7l2 3 8 1 1 14 3 2v13l4 3 2 10v10l-2 2h-6l-1-4 1-10-8-2h-3l-6-10-1-9-6 1 1 8 3 18-3 2-3-6-2-22-3-2-2-8 3-2 6 2 4-4zm228 4l3-1v2l-3 1zm-140 2l1 5h5l2-6h6l1 11 2 8 1 8h8 5l2 4h4l4 19-8 7-15-4-4-6h-5l-6-4v-16l4-2v-4l-8-2-2-2-8 2h-5l-3-6-2-8 2-4h4l2 6h5l4-6zm43 14l6-1 6 1h2v8 8h-18l1-13zm-87 10l1-8h2l1 1-2 9zm-147 2l2-6 5 1 1 1-3 12-4 1-1-3zm320 6v-8l7 1 2 4-2 7zm-793 6h2l-2-10h3l9 14v1l-3 1 1 3h-3zm298 0v-2h5l2 3-2 11-5-2zm-261 12l4-6 11 7 2 3-17-2zm820-4v-2h4v2 2zm26 4l9-2 2 4-5 11-9-4v-3l3-1zm-15 40l-7-6-2-7 2-6 6 1 7 4 9 5 2 4h-6v3l4 4-4 8-7-4 1-4zm43 1l3-3 15-1 10 13v12 17l4 3v4l-6 6-14-10v-2l5-1 2-5-8-3-8-9-2-5-4-7zm-437 29l1-5 6-2 2 5h5l3 2 2 8v6h-4l-1 5h-4l-1 3h-1l-1-5 2-4-6-1zm-191 20l2-2 3 2-2 5-3-1z"/>
		<path id="Path 10" class="s5" d="m400 446l5-6 1 10h-7zm146 38l6 1v7l-2 1-4-3zm-22 8l1-4h4l4 4-1 4h-5zm98 10l3-1 9 8v4l-5 5h-3l-4-3zm-216 30v-4h4 8v4l-3 4h-5zm-80 10l2-11 5 2v3l-1 8h-5zm-22 8v-6h4l6 8h4v10l4 3v16l3 5h-5l-10-1-6-17v-12zm82-1l2-1h9l4 5-1 7-1 9-6 4-6-1-1-10zm16 27l2-2 6 2v14h-6zm-151 4l1-2h6l1 7h-4zm-69 17l2-17h6l4 3-2 17h-3zm340 3l2-12h6v10l-2 2zm-212-4v-6h4v6zm34 4l2-4h6l-1 7-7 1z"/>
		<path id="Path 11" class="s6" d="m499 398l4-1v6l-4 3-6 2-1-4zm18 0l4-1 4 5-2 2-4 1-2-6zm-11 6l5-2 1 6-1 2-6 2h-2l-1-4zm-84 16l-5-1v-5h4zm-91 16l4-11 5 2v8l-2 3-4 1zm609-1l12-3 12 2v6l-6 4v8l-4 2h-8v-6l-6-2-1-7zm-688 14v-5l4-4h4v10l-1 1-2-5-4 3zm613 10l6-3 1 3-2 3h-4zm-441 1l7 2 2-4h4l2 6h4l9 13v7h-2l-3-11-6 3-1 6-18 1v-5-12zm-80 0l4-1h6v1 28h-16l-5-2-1-9 2-3 1-11 2-3zm38 6l4-6h5l1 6-2 16v7l-7-1-1-10zm95-2l5 1 2-5h4l2 6h6l2-4h4l4 7h3l3 1v4l-4 3v11l4 25-6-2-1-1 1-16-8 2h-4l-1-3h-4l-2-5v-14l-6 2-1 11h-1l-5-4v-9l-6-2v-4l1-3zm412 10l3-2h6l5 6-4 3h-9zm-360 14v-12h5l2 3v13h-3zm65-4l3-8h3 1v6l-2 4h-4zm-302-6l6-1 6 2v7l-12-1zm249 14l1-8h4v6l4 3v5h-4zm112 5l1-5h4l1 4-3 3zm-129 25v-10l-5-2 1-10h4v6l6 2 2 3-3 3v8zm339-6l-1-3h5v3zm49 39l5-11 3 3 3 8-3 4h-3zm18 25v-15l5-3 17 17-15 1-3 3zm-795-4l3-6 7 1 3 5-1 2h-5zm393 24l2-2 2 5h-4zm-16 4l2-5 3 1v5l3 1-2 6h-4l-3-2zm-230 10l3-2 5 1 4 4 1 9 3 1v1l-1 3-4 1-12-11v-3zm678 20l6-6v-4h7l2 5 6 1 1 2 1 7v6l4 2v-2l2 7h-1l-3-2-2 3h-1l-2-2 1-2-6-3-5-5-3 2h-2l-5-4z"/>
		<path id="Path 12" class="s7" d="m536 384l11-3v8l3 1 3 18-3 3-8 2-2-5 2-3-7 1-1-4 4-4-2-2zm-86 26l4-2 4 3v2l-9-1zm62 1l5-1 2 3-4 3h-4v-3zm-95 29l7-13h2l2 5v4 6 6l-4 8h-4v-6l-5-2zm-83-1l4-1 6 6v6l4 1v5l-4 1v3h-7l-1-6-2-12zm590 7l4-6 11-1 1 7v8 10h-10zm-40 4l13-7v4 1l-13 5zm-414 4l1-4h6 2v2l-2 12-8 1zm41 13l1-7h6l1 4h5l5 12v12h-4l-1 4h-4l-8-18v-4zm-104 14l1-1h8l2 4 2 5-5 3-7-4zm-17 8v-7h4l2 5-1 3zm66 9l-4-1-2-13h2 6l2 7zm184-6l1-4h7l-1 9-1 1h-4zm-108 4l1-4h3 5l5 6h4l2 2-1 7 8 2 4 4 3 12 5 1 5 12h-5l-1 4-5 2-1-11-6-7-6 3-2-8-8-2-4-3-6-5-2-3zm-48 11l-4-2v-9h8l1 4zm172-8l3-3h7l2 8-8 5v5h-4v-6zm57 19v-10l7 2-2 8zm-44 2l2-10h5l1 6-7 5zm-324 6v-4h6l3 6-2 14h-4zm267 11l-4-2 1-11h3l1 12zm-159-7l7-2v4h-6-1zm-337 17l3-1h7v6l-1 4-8 11h-1v-13l-4-3zm441 36l11-3 4 4v7l-14 1zm-186 15l1-3 2 4-3 1zm-103 28v-10h2l6 3 5 2 12 11-1 9 1 4-5 5-2-1v-6l-13-9zm30 1v-7h5l-1 8h-4zm2 9l2-4h4v4l-1 5-5 1v-1z"/>
		<path id="Path 13" class="s8" d="m912 454l7-8h5l6 18-1 9-6 4h-7l-4-2v-10-6zm-606 24v-4h4v4zm26-1l-2-3h4zm-253 30l-6-6 1-7h4l3 5 7 5v4h-6zm750-1l3-7 4 1v7l-3 2zm-733 12l10-1 6 6-2 4h-8v-3l-6-3zm708 2v-2h4l2 6h6l7 4v4l-1 4h-18zm-376 12v-12h2 6l4 4 1 16 1 8v6h-3l-5-7 2-10zm467 4l1-12h8l4 5-2 13v5l-3 1-9-4v-4zm-217 18v-12h9l3 8-6 6zm-496 16l4-2 4 2v10h-6l-4-2zm696 12l-13-6 1-4 13 8zm50 10l-9-8 2-6 9 2 4 3-3 9zm0 14l5-2h4l8 9 1 9v2l-4-1v4l-19-11 1-9zm-675 21l15-1 5 8 13 9v6l-5 4-10-9h-10l-4 4-13-12 5-7zm44 4l1-3h4v4l-2 4h-3zm12 6l2-5h3 6v7l-4 2-7 1z"/>
		<path id="Path 14" class="s9" d="m465 397l7-4 3 5-4 4-5 2-2-5zm101 17v-2h12l2 15v1h-6l-8 1h-3v-4l5-5-6-1zm-296 10v-8h3l1 6zm262-4l6-1 1 3-1 1-10 3 1-4zm-176 12l3-5 4 1 1 10-4 8h-5l-1-2v-4zm84 23v-10h4l8 1h2v4l-4 12h-6v-5zm500 9v-10h6 8v9l-1 1zm-215 14h5v2l-4 1zm-99 8l2-3 5 1 2 2v5l5 1 2 6h4v10h-2l-7-2-3 3-9-8zm237 9l7-1v4l-6 1h-6l3-4zm-698 23l2-6-2-7 10 5 3 4-8 8v4h-4zm-136-4v-6l5 3-3 4zm474-1l2-3 1 1-2 3zm174 3l8-2 5 4v16l6 4v10l-2 2h-4l-3-8h-9l-8-6-1-4 1-11zm-208 8l1-6 5-1v11h-5zm403 0l-3-4h7v4zm-49 4l2-7 6 1 1 10h-2-7zm-439-2l7-1 1 1v5l-4 4v13l-2 1-4-2v-17zm-76 18v-8h4l6 14v2h-4zm308 20v-4h2l2 4zm-478 6l2-9 11 3v7l3 1v4h-6l-3-5zm28 27v-8l4-1 8 2v7l-4 1h-3zm-16 2v-7h6v7zm107 49l4-4h10l10 9-8 7-13-5-2-3z"/>
		<path id="Path 15" class="s10" d="m473 350l8-6h2l-1 9-9 5-2-5zm25 22l5-2 4 6-5 5h-2l-5-5zm-49 13l5-5 5 4-6 6h-2zm458 76l5-2v6zm-491 19v-2h6v5l-4 1zm120 12v-13h6v5l-1 8zm54 0l5-6h4l1 6-4 4-6-2zm-415 18l-3-7 4-3 4 5v9h-2zm129 18l1-4h5l2 6v6h-4l-4-3zm324 10v-10h6v10zm-516 6l-2-12h8v7l-5 5zm-9 10l9-3 4 3v13l-5 4h-6l-1-2v-9l-5-5zm61 8l4-2 6 4 1 5-2 3-4 1h-5zm433 14l15-1 4-11h4 7l7 4v4 7 5l-7 10-5-4h-8-6l-12-6zm-77 30l-3-1v-5h5 6v3zm-271 23l-1-5h4l1 3z"/>
		<path id="Path 16" class="s11" d="m534 352l2-3 8 1v2l1 15h-5v-5l1-4h-6zm-242 68v-5h4v5zm158 42l4-12h4v8l-4 6zm-120 12l1-11h4l-1 11zm86-2l1-5 5-1v12h-6zm149 0l8-6 2 7v2l-3 5-6-2zm-91 11l-6 1v-12l6 2zm147 2l2-5h4l1 3-2 3zm-64 7l5-7 6 14v14l4 2-1 11-5-1-3-12-4-4-8-2 1-7 5-3zm-223 6l-1-12 5 2v10zm306-6l-5-1v-5h6v2zm-152 4l1-3h4l1 3v4h-5zm172 18v-5l8-5 3 6-2 10h-5zm16-4l8-2 2 2-1 4-8 2zm44 0l7-1-1 13h-2-4l-2-4zm-301 10l2-4h3l4 4v12h-10v-4zm389-2v-2h8v8h-6zm-530 18v-14l10 2v12l-4 3zm335 0l-1-12 8 2-1 10zm-301 0v-6h9v10l5 2 1 2-1 6h-8zm-11-2l3-1 4 3v8h-4l-3-1v-5zm-150 30l7-2h6v11l-10-1-3-1zm-30 4l1-1 8 2v6l-3 3-6-4zm469 8l6-1 1 1-1 8h-6zm338 19v-3h3l4 7zm-412 25l-2-8h4v6z"/>
		<path id="Path 17" class="s12" d="m825 506l-5-1 2-7h2zm-178 3l9-1v6l2 10-6 3v5l-6 2-4-2 3-14zm220 7v-3h2 9v4zm-611 27l9-7h13l6 3 4-3 8 2 4 12v4l-22 2-20-4-2-4zm192 11v-4h2 2v4zm-208 24v-8h12v8l-1 2zm39 38l1-2h2l-1 4z"/>
		<path id="Path 18" class="s13" d="m562 393l6-1h4l9 18-3 2h-12zm-147 44l-5 5-3-8h8zm43 3l7-1v8l-2 3h-5-4v-4zm11 5l2-5 6 2v8h-6zm-375 26h-4v-4l6-3 2 4zm800 25l-7-2 3-13h9l3 11v4zm-24-2l3-1h7l1 3-8 2h-3zm14 10l-2-6h8v3l-1 3zm-232 28v-5l6-3 4 8h7l1 4-4 10h-8zm-260-1v-5h4 7l3 2v4l-9 3zm8 29l1-7h3v7zm265-4l1-2h12l6 2v8 6l-3 6h-11v-7l-4-3zm-31 23v-7h6v4zm-530 3v-6h8v7h-2zm161 29v-3h3l11 4 1 2-1 2h-3l-6-2zm681 11l-1-9 8 3-2 5z"/>
		<path id="Path 19" class="s14" d="m431 389l4-5h3l2 2-1 3-4 4-7 4zm51 8l8-6h2l1 7-5 5-10 5-1-6zm-41 27l4-5 1 2-4 4zm-123 10l6-8 3 10-1 5-7-1zm579 9l11-6v5l-2 2-9 3zm-20 10l7-3v3l-5 3zm21 9l9-1 5 4v10h-4l-1 3h-4l-5-6zm-24 2l1-2h2l1 4-3 2zm-536 34v-10h16l2 2 2 9 3 27-2 4-5-2-3-6h-6l-5-16zm564-2v-4h4v4zm-404 14l-4-1v-7h4zm-107 15v-6l5 1v6h-4zm329 23l8-7 9 1 3 4-2 14-10 3-9-1zm-564 37l5-3h2l7 2v4l-4 1v8l-10 2v-7zm-14-1l6-1 2 3v6 7l-4 1-4-1-4-12zm110 40l1-13 15 5v10l-15 1z"/>
		<path id="Path 20" class="s15" d="m512 323l4-1 5 2-1 5-6 1-2-2zm-31 5l3-1 5 2-11 9-1-5zm-31 44l9-9 4 3-3 6h3l3 6-2 3-4 3h-1l-5-4 4-6-5 2zm33 11l12-7 5 5-1 2-10 7-7 5-7 3-3-5zm-37 3l3-1 2 5-5 4-3-3zm9 6l7-6h2l2 5-3 4-4 3-2 1-4-4zm98 16l-3-18h4l8 3 4 19v2l-12 4-4 1-11 3-1-3 4-3 9-4 7-2zm-22 3l9-3 2 5-1 1-10 4h-3v-5zm-227 4l4-1 1 4-5-1zm140 25l7-8 1 6v8l-8-1zm463 38l1-3h4l4 2-2 6zm-31 46v-4h4v4zm-576 4v-6l5 2-1 4zm-182 4v-8h6l3 6 6 3-3 8-2 1h-7l-3-3zm83 22l6-12 11 2-2 13-2 1-2-4zm483 16v-6h4v6zm214-4l4-2 8 4v4l-4 1-9-5zm-236 6v-6h4l4 3v7 2l-6 2zm-14 4l1-8h5l1 4-5 4zm-544-5v-2l1 2zm774 11l1-2 11 5 3 3v3zm-267 18l-3-2v-8h6l-1 10zm-53-8l14-1 16 1v6l-1 5-4 7-7-5-3 3 1 4-4 1h-4l-2 4h-5l-5-2-5-3 1-17 4-3zm-108 28l4-4h4l4 3v7l-3 2h-7z"/>
		<path id="Path 21" class="s16" d="m503 319l8-5 5 3v5l-4 1h-7zm-58 43l9-8 4 2-13 13h-2l4-5zm65 13l9-6 1 3h6l6 1 2 2 2 9v12l-9 6h-2l-4-5 4-5-8 4-6 2-4-4 2-3 5-5-6 2v-7l4-4zm-18 16l8-5 5 4-8 7-4 1zm-56 4l4-2 2 5-1 2-7 3zm60 26l7-5h2l2 2-7 4zm-41 2l3-2 1 7-4-1zm-260 15v-3l5-2 1 5-4 3zm662 25l4-2 2 3-1 2h-3zm11 4l3-3h3l1 4v1l-6 2zm-318 5v-4h3v4zm-450 25l2-1 2 3-4 4-3-1zm636 8l2-7h4v8zm-310-1v-4l4-1 2 5h-3zm-114 6l-2-2 2-6h6v8zm416 31l-4-19h2 18l7 2 1 6v4l-4 1-3 10-5 1-3-4zm136-15l8-2h4 4l3 4h-4v4h-3l-8-3zm-653 8l2-2h5l2 5v5l-2 2-11-2zm-18 24l4-4h3l-6 10h-4zm717 14v-4l4 1 6 1v6zm-678 12l2-4h4l2 11h-1l-7-3zm-82 2l3-1h3v7h-6zm774 12v-3h4l7 4 2 5h-4zm42 26l-4-3v-17l10 2 8 12-2 5-5 1zm-450-4l2-2 15 2v2l-1 4h3l-11 4h-8v-4z"/>
		<path id="Path 22" class="s17" d="m465 355l6-2 2 5-5 6-5 2-4-3zm-19 19l4-2 3 4-8 8-5 2-2-2zm-6 18l3-1 3 3v2l-4 2-2-5zm8 6l5-3 4 4-7 5zm80 6l6-2 1 4-4 3-10 4h-2l-2-3 6-4zm-5 10l5-1v5l-12 7h-3v-5l3-2zm-423 72l-3-5 7 3 2 8-2 7-2-3zm310 34l-4-18h6l9 14-2 4zm275-6l1-4 8 2v4l-4 2zm-201 16v-15l8 3v6l-4 3v7zm-125 0l2-4h8l7 6-1 9-6-4h-9zm525 10v-2l6 2v3zm-765 6l2-4h7l-2 4zm770 14v-9l-5-6 8 2 6 3 1 13-1 3-1 2-7-4zm-195-10l2-2h4l6 8v10l-5 2-9-7zm-527 5l9-5 10 9-7 8-4 2-1-5-6-4zm-50 15l4-2v6l6 4v1l-7 3-8 1v-7l1-2zm523 14l3-8h5 2v7l-3 5h-3zm258 18l-1-4 5 1v6zm-578 30l1-5h6l3 4v8l-1 1-5 3h-3l-1-4z"/>
		<path id="Path 23" class="s18" d="m953 420l10-3 3 9-2 8-12-2v-5l-5-1zm-582 9l4-1v8l-2 5-6-3zm4 12l3-3 7 3 1 5v8l-1 2h-7v-6l-5-2zm53 1l6-1 6 1v3 10l-3 3h-4v-8l-5-2zm51 8l3-5h5l5 7v4l-4 4h-4l-1-6-4-2zm418 1l9-5h1l3 8-13 7h-6l-1-5zm-439 7v-8h5v4l-1 4zm495 6l1-1 4 2-3 3zm-649 15l2-1h4v5l4 2-2 9-8-1v-7zm-266 11l5-3h1v4l-6 2zm482 10v-8h4l3 4-3 4zm371 1l9-1 2-4h4l3 1 1 7-1 5 6 1-3 10h-7l-1 4h-8l-2-2 2-4-1-5-8-1v-3l5-1-1-4zm-376 30l-3-2v-7l4 1 1 7zm-214 3l-1-6h4v5zm169 0v-6h5v2zm-138 10l1-8h4l1 9 5 5-2 12h-5l-1-10v-6zm160 5h-4v-12l4 2zm-47-1v-8h3l3 1-1 9h-2zm-96 2l-1-8h4v6l4 3v15l-5 2-2-2zm-221 8l2-3 3 1 2 9-3 9-2 1v-6l-8-2zm402 12l2-10h6l4 10v3zm110 2v-6h8l1 2-1 8h-5-3zm-90-2l2-2 3 1 1 14-2 1h-5v-6zm38 14l-4-1v-7h6v8z"/>
		<path id="Path 24" class="s19" d="m434 441v-5h6l1 3-1 3zm14 99v-7l5-1h1v7l-3 2zm178 0l2-2h6v4l-5 3zm-82 8l8-2v22l-2 2h-8l-4-10 1-4 5-2zm118 18l-3-10h6l1 10zm-218 6l1-1 5 1v10l-6-2zm-274 12l2-4h6v10l-8-2zm150 6v-4h5l8 2 5 12v12h-6l-5-6h-5l-2-10z"/>
		<path id="Path 25" class="s20" d="m504 326l1-3h7v5zm7 76l6-3 2 6-7 3zm-121 36l4-7 6 1-2 12-4 1-6-2v-2zm564 16l4-2 8 8-3 4-5 1-4-2zm-697 23v-9h7v1l-4 9zm138 21h5l2-6h4v10l4 18v8h-4l-3-2-1-6h-6l-5-1v-3l1-16zm-37 1l6-3h4 6l5 1 3 5 3 14-1 10-2 4-6 2-7-6h-8zm386 7l6-4 1-5 5 1 2 6 6-2h4l2 4h4l1 7 9 4 1 3h4 15v16h-8l-3-4h-5l-9-4-27 2-1-6 1-8-8-2zm-332-4l4-2 8 6v8 2h-3zm-282 1l4-2 7 1v1l-1 5-10-2zm196 8l-2-9h10l2 4-3 5zm0 17v-10h8l7 8-4 10h-4v-3l-5-2zm496 8l1-4h7l5 20-4 8-5 1-2-2zm-598 5v-3h3zm690 25l-3-5 6-2h3l-2 7zm-728 2l4-4h4v6h-4zm46 8v-12h4l4 6v8l-2 2h-4zm418 0l5-4h7l2 8-4 4h-5l-5-1zm272 24l-9-5 2-6 9 6v3zm-657 11l-14-5 7-2 6 2 1 2zm224 13l-4-17 12 5 3 12h-8z"/>
		<path id="Path 26" class="s21" d="m498 329l6-3 8 2 2 2-3 4-9 4-6-6zm-29 36l4-2 5 5-5 6-7 4-3-6zm65 10l11-7 9 1 5 3-1 4-4 3v11h-4l-3-1v-8l-11 3zm-60 1l6-4 5 5-3 3-16 11-2-5 2-3zm-132 41l2-5 2 4-2 2zm-85 51l2-8 5 2v6zm146 4v-4l5-2 4 6h4v6 2h-8v-6zm-131 18l3-8 4-1 1 7v2l-8 2zm86 9l-2-9h6l2 6zm-334-2l4-4h1l1 3-6 2zm124 23v-7l5 1 4 11-9-1zm-38 7l2-4h6v1 8h-8zm144 11l2-8h9v6l-9 7zm-221 1l-1-3 3-1 7 9-3 2zm405 85v-3l6-3 6 2 2 8-5 3 3 2v5l-10-2z"/>
		<path id="Path 27" class="s22" d="m973 412l7-1 1 8 7 4-4 6-2-3h-16l-3-9 2-2zm-663 34l-3-12h7l-1 8h4v3l-5 3zm84-1l4-1 2 2-1 4-1 4h-4zm71 2l4-2 2 5-1 4h-7v-4zm475 7v-8l6 2v6zm-442 2v-4h6l1 4-3 6h-4zm363 5l4-2 1 3-3 2zm-251 5l1-4h4l3 2v3zm32 5l2-2h5l3 6 9-3 2 7h3l2 9h-7l-3 4h-4l-2-4h-4-7v-2l1-6zm-274 8l4-8h3l2 7h5l1 10-4 9-5-1-2-7zm546 4l2-6h7l-3 7zm-210 27l-2-8h5l5 2v3zm-598 7l5-5 7 11h-6zm552 7l-2-10h4l4 6h5l1 1-1 11h-7zm-567-2l-3-4h5 3v3zm813 2l1-4h7v6l-1 3h-3zm-382 6l2-8h5l3 5v3zm90 7l1-1h6l1 4-2 12v8h-2l-4-4v-12zm-312 13l-4-12h5v5l3 1v6zm324 3l5-3v6l5 4v8l-7-4zm24 5l2-4h8l1 2 3 10v6h-7l-1-4h-5l-1-2zm-344 10l-6-1 2-11h4zm134 4v-7l4-2 3 8-1 1z"/>
		<path id="Path 28" class="s23" d="m494 500v-4h4v6h-4zm-112 2l10-2-1 16h-6zm48 12l-1-10h3l6 4-2 12h-6zm-285 10v-4h3v4zm651 16h-6l-2-8h5l3 4zm74-4v-2h6l4 2v2h-6zm-614 12l-6-2v-8h4l2 5zm332 44v-8h2 6l12 6v8l3 2-2 2-10 2-6-1v-3l-5-2zm-68 14l8-3h4l4 2v11l-3 4-15-2v-6zm-212 24l1-10 5 1v11h-3zm149 20l1-3 20 12-4 1-10-5-6-3z"/>
		<path id="Path 30" class="s24" d="m518 336l2-3 7 3-4 5-4 1zm-292 95l1-6 4 5zm86 17l5-3 3 4-2 9-6-1zm-70 4v-4h3l1 4zm143 4l1-2 6 2-1 4h-5zm-79 18l1-9 3 1v8zm-14-2l2-6h3l1 11-6 1zm-31 14l2-5 5 1v8l-1 4h-5zm-13 2l2-6 4 1 1 5-1 5-6-2zm208 10l4-7 4 1v6zm-60 28v-6h6l1 6zm-336 19v-1l17 2 8 4 4 4-1 4-20-2zm619 58l4-3 3 4-3 2zm-260 25l6-4h13l2 12v1l-2 2-5-1v4l-3 1-14 1v-10zm-89 3l12-1 1 11-5 2-8-4zm30 9l1-8h17v12l-14 2-4-2z"/>
		<path id="Path 31" class="s25" d="m483 344l10-12h3l6 6-1 3h3l4 7-1 3h5l2 6-5 5-7 4-5 4-12 7-5-5 8-8-10 4-5-5 9-10zm33 16l6-3 2 7-1 2-4 3-9 6-3 1-4-6 1-2h4l2-4zm19 4l5-2v5l-5 3-2-3zm-149 82l2-3 6 2v9l-2 2-6-2zm-156 10v-8l4-1 2 7-3 4-3-1zm-11-2l1-5 3 1v5l-3 1zm75 12l2-3 1 3zm85 31l4-9 7 1 5 1v8l-3 2-10 2zm268 0l1-9h4l2 4-1 5zm-279-1l4-7 2 7zm-200-4v-2l8 2 5 4 13-1 5 13v12l4 4-8 13-5 2-2-6 2-15-10-4v-9l-4-5zm637 14l1-5 6-2 2 6-2 5h-4zm-321 1l5-7h5v2 7l4 1v2l-2 6h-4l-8-3zm-60-1l2-2h3l1 10h-6zm-40 20l1-10h6v3 6zm506 17v-3h4v4h-2zm-206 13l6-6h4l-2 11-4 3h-4zm230 13v-3h4l2 4zm-600 63v-11h2l5 6-1 5z"/>
		<path id="Path 32" class="s26" d="m628 528l-2-10h3l5 4v6zm-113 3l2-1h5 10l2 14 4 4 1 8-1 4h-6l-1-3h-5l-2-5h-10v-12zm-73 27l-3-4h3v2zm68 8l-6-1 1-7h3zm124-6l3-2 3 8v6h-6v-4zm-382 10l5-2 1 10h-6zm206 46l2-8 11 3v4l3 1v8l-6 2h-6v-7z"/>
		<path id="Path 33" class="s27" d="m502 366l7-4 1 2-2 4h-4zm-124 70l6-10h4l-1 12-1 3h-1l-7-3zm119 5l9-1v4 7l-2 1h-6l-2-3v-4zm75 20l1-3h5v6h-4zm25 3l2-5 6 2v6l5-1 8 1h4l1 13-2 5-3 1-8-1-2-3-1-7-6 1h-1zm326 13l6-4 1-9h10 13l2 4-1 2-3 2 1 4-6 7-3-1-6 9-4 1h-9l-4-3v-5zm-229 5l8-2 2 4h7 6l4 2 10 6-3 4 2 10-3 3-7 1-7-2-1-1v-3l-5-2 1-10-7-1h-6l-1-3zm-215 7v-2h1l7 1 2 5-1 3h-8zm427 3l10-1v13h-6l-1-7-3-1zm-794 14l3-6h5l5 4 5 2 10 2v2l-3 10-1 6-3 7-6-3-3-6h-6v-1l-7-11zm719 16l2-8 7 1 3 6-1 8-1 5-9-2zm-331 28l5-5v6l3 2v5h-3l-5-4zm54 34l2-1h1l1 9h-4z"/>
		<path id="Path 34" class="s28" d="m929 435l9-3 2 3-1 4-11 1-4 6h-5l-7 8h-2l-3-8 4-2 6-3zm-332 99l3-2-3-18h6l6 10-1 11 4 2v7h-10l-5-7zm-156 6l-1-16h6l7 6v2l-5 1v7h-3zm13-1v-7h6l8 3v8l-4 3v8l4 3 2 16 6 3v4l-6 12h-10l-4-2v-6l-6-2v-10l2-18v-4l6-4v-6zm212 7l4-10 8 6v12h-12zm-340 4l1-6h5l3 2v6zm116 4v-6h3l3 2v4l-6 2zm66-1l6-1h10l2 5-3 14-13-5-2-8zm-330 27l2-2 4 2-2 17h-4v-7zm352 8l19-4h5v8l-4 3-1 17-5 4h-8v-11l-4-2-2-5zm-178 8v-8h6l7 10 1 5v17h-4-12l-6-10v-6l7-1z"/>
		<path id="Path 35" class="s29" d="m633 484l2-4h7l-1 6h-6zm13 14l1-1h6l3 2v9l-9 1-1-1zm-588 13l1-5h5l5 5zm95 3l3-3 9 7 1 8h-6l-3-1zm476 4l5-5 2 3h7l2 2-3 14 4 2 6-2 6 14v8h-8l-3-6h-7v-3l-6-3v-4-10-6zm-557-1v-3h6l4 1 6 3 3 4-1 2-11-2zm834 25l2-13h3l4 9v2zm-332 0l2-2 15 3 5 13v19l-6 1h-6v-7l-4-4v-12l-6-3zm-274 12v-4h4v6h-4zm337 4l3-5 4 5h4v8h-8zm-244 15l6-4 1-9h4v14l-2 2h-8zm-45 1l-7 5-5-17h5l2 4h6l2 2zm112 20h-3l-1-4 4 2zm-152 25l2-15 4 4 2 13h-2l-5-1z"/>
		<path id="Path 36" class="s30" d="m514 330l6-1v4l-2 3-5 1-2-3zm10 34l9-3 2 3-2 3-6 4-4-5zm11 6l5-3h5v1l-11 7-2-2zm46 40l-9-18h2l6 4v4h5l3 3-2 7zm-78-13l4-3 4 4-6 5h-2zm-232 13l6-1-1 1h-2zm637 27l10-4-1 8-6 3-3-2zm-612 23l4-3 5 1 2 4v3l-1 9v4l-2 1-6-2-1-11-1-3zm566 9l6-2 1 4-7 3-1-3zm-662 9l3-1 2 5-2 1-3-1zm579 9l-2-9 4 1 3 9zm84 59l7-2-2-4h6l10 5 5 6v9l-7-2 2 5-2 6 2 7 7 6-1 3-11-5-13-8v-5l-4-3zm-182 30l3-6h4l3 4-10 3zm-527 0v-4l10 1h5l-2 2-9 1zm748 16l4-8 9 5-2 6 9 5 6 6-4 1-1 9-21-11v-6-4zm-772 3l1-8h7l4 12-6 4-2-1v-5zm41 7v-4h3v4zm416 1l1-5 5 2v3z"/>
		<path id="Path 37" fill-rule="evenodd" class="s31" d="m409 399l4-4 2 2-3 3zm-163 62l3-3 4 5-2 9-6-2zm-8 25l4-1 2 3v4l-4 5-2-5zm45 2l2-3h7l12 1v7l-2 5h-4l-15-8zm-43 22h6l1 6h-7zm11 7l1-5 12 2v2l1 14h-9v-9zm489 29l5-1 3-10 4-1 4 2 2 18-3 4-5 1-4-3-4 5h-4v-1zm56-6v-4h26l2 23-8-1-16-4zm-578 17l6-9 2 9 6 7v12l-4 1h-1v-11h-3l-2-4h-5zm564 4l-1-3h1zm-667 31l-5-6h10l1 5zm577 3l6-3 4 7-5 3-5-2zm-37 15l9-2 2 11-10 5 1 2-5 5h-1v-3l-5 1-5-4 7-8h3zm-50 3l1-3 14 9-2 3zm-145 30l6-12h7l15 2v5l-3 14h-4zm-22-4l2-2 7 5-2 1-5-2-2-1z"/>
		<path id="Path 38" class="s32" d="m504 341l8-2v7l-4 2zm50 49v-11l4-3h4v6l6 3v7l-6 1zm-244 134l2-14h6l3 18v2h-9zm-45 6l-1-14 10 2 4 4v14h-13zm-38 8l6-4h15l2 4v8l6 2 2 4-1 16-5 2h-12l-4-6h-4l-6-7-2-9v-6-1zm218 105l2-1 9 3 2 2-1 3zm95 29l-4-4 6-1 2 4z"/>
		<path id="Path 39" class="s33" d="m545 367l-1-15h4l2 9 6 2-2 6-9-1zm-142 35l6-3 3 1-3 5 2 5-2 8h-3l-8-4-1-6 1-2zm-51 11l2-5h6l1 6-3 6-4-1zm-36 5l1-8h6v6l-2 2zm-130 20l3-3 1 3-2 1zm61 54l1-1 6 2 2 7h6 4l-2 14-12-2v-6l-4-2zm51 6h4l2-5 8 1v8l-2 6 2 2-2 14h-5l-5-2zm36 4v-4h4l2 8h-4zm440 4l1-5h5l1 6 5 2v7l-2 1-9-4zm-456 4v-8h6l2 9v7 10h-5zm486 8l-1-12h2l3 4v6 2zm-628 32l4-5h4v3h5l4-3 1 4v3l-3 3-5 4zm34 24l-1-6 4-7 3 2-1 8zm688-8l1-3 3 1zm-228 12v-2h11v1l-2 3h-4zm48 15l-1-11 5 1 2 7zm-105 7l1-10h8l5 4v2l-2 1zm-371 15l1-5 10 1-1 13h-4zm376 7l2-3 4 1-2 5zm-106 58v-4l9 3-1 4z"/>
		<path id="Path 40" class="s34" d="m391 415l-1-7h7l1 6-1 2zm-219 28l-3 1-1-5 4 1zm-76 60l1-1 3 1-1 3h-2zm230 8h7l3-5h4l5 16v4h-4l-7-8h-8zm-123 13l-4-4v-12h7l2 5zm35-6l2-2h7l4 1 5 4v9l-2 8h-4l-2-4h-15l1-10zm458 30v-10h5l4 6 15 4-1 14-10 7-3-3v-10l-6-8zm-22 56l5-1 4 3-2 4h2l-7 3zm-224 29l9-3h6l1 1-6 12h-3l-7-5zm50 19v-10l8 2 12 5-1 2-10-2 7 5-6 1zm-14 16l2-4 4 1 6 3 7 4 1 1-4 2-8-2z"/>
		<path id="Path 41" class="s35" d="m454 354l7-6 3 3v1l-6 4zm49 29l5-2v7l-1 2h-2l-5-4 1-2zm-169 35l-2-10h4l1 7zm41-9l9-1v6l-1 2h-5zm-134 45v-2h1 4 1l-2 7h-3zm21 46v-6h5l-1 6zm546 16v-6h4l4 2v4zm-738 53v-4l12 4-2 5zm676 4l5 1v-3h3l8 1v6l-13 5v-3h-5v-3zm-520 5l1-1h1v6l4 1v4l-6-1zm398 42v-2l10 2v13l-12-8zm-269 24l1-4h4v4h-4zm185 28l4-1 4 11-8-1z"/>
		<path id="Path 42" class="s36" d="m484 327l10-8-2 7-1 3h-2zm-21 18l14-12 1 5 3 6-8 6-2-5-7 6-3-3zm-143 61l23-2-1 1-14 1zm-30 2l16-2v1l-4 1zm54 4v-4h5l1 5-3 5h-3l2-2zm-183 32v-3l4-1v5l-3 1zm-15 9l-3-7 5 4zm134 37v-2h3v2zm-13 4l1-4h4v2zm-175 12l4-3 1 3-1 6-5-1zm140 6v-2h4l4 1v5l-2 2zm-192 20l16 4v-7l2 5-2 4-4 2zm7 25l1-7h5l1 6 12 6 4 3v4l-6 1zm715 15v-2h7l2 6-9 2zm-40 11v-3h3l5 2 1 6-7 2zm-524 17l14-5-1 5-7 2-9-1v-1zm-11 7l6-2 3 3 4 9-3 5h-3l-12-4v-9zm461 10l1-8 6 1-4 7zm-160 21v-5l5 1-1 4zm-98 6l6 1 2-4 4 3v4h-15l1-4zm-14 4l2-4 5 1-1 3zm98 12l4-1 4 1 6 4-2 4-13-6zm28 15l4-2 6 3v4z"/>
		<path id="Path 43" class="s37" d="m485 377l12-7 1 2-3 4-12 7-1-3zm-19 1l7-4 1 2-8 7-2-2zm33 5l1-2h2l1 2-2 1zm9 5l6-2-5 5-2-1zm-147 26h4l-1 8 6 5 1 2-4 9h-3l-1-10-4-1-1-1v-6zm-27 4l3-3 5 2 2 1h3l2 6-6 11h-3v-8l-5-2h-1zm-26 6l2-6h5l2 7 4-3h3v4l-6 8h-3l-1-7-6-1zm-98 16l5-7h4 1v6l-6 3zm40-1l4-2 2 3-4 4v5 1h-4v-6zm202 7v-8l6 2-4 6zm80-2v-4h4l4 2v4l-3 1 1 7-5-2zm34 7l-2-11h4l8 7v6l-3 5-1 3-4-1zm340-7l2-2 3 2-4 2h-1zm-264 19v-6l3-1 23 5v8l3 1-5 9h-3l-2-7-9 3-3-6h-5zm-452 17v-3l10 1v4l3 1 2 7-2 3h-5zm566 0v-3h4l6 1v4l-2 2h-4zm-638 2l3-3 1 1-3 3zm599 0v-2h5l-1 6-4-2zm-644 11l3-5h4l1 11-3-5h-4zm74-1l11-1 7 3v8l-3-2-6 2-10-5v-3zm-124 38l-6-11v-8l3-3 6 4v2 6h-3l2 10zm201-15l2-5h2v2l-1 5h-2zm617 19l1-5 12 4v10l-8-1-5 21-9-1-1-2 4-8 6-1zm-785 4l2-4 6 2-4 6zm224 71v-3h6l4 5v2l-5-1z"/>
		<path id="Path 44" class="s38" d="m498 323l4-4h1l2 4-1 3-6 3zm-249 109l4-6h3l-2 11-4 2zm22 3l1-5 5-3 1 9zm626 26l13-7h2v5l-5 2-9 1zm-282 1l1-5h2v7zm212 30l3-1 6 9-4-1-3 7h-4l-1-8v-4zm-671 10l6-2 3 2v3l2 7-2 6-9-7zm3 54l8-1 1 5-4 2h-6v-4zm99 48l2-3 4 2v3zm21 8l1-3 5 3-3 2h-2zm15 5l2-2 2 5v7l-3-1z"/>
		<path id="Path 45" class="s39" d="m506 311l4-3 9 2 12 10 1 6 7 6 7 13-2 5-8-1-3-3 1-4-10 1-1-2 4-5-7-3v-4l1-5-5-2v-5l-5-3zm27 50l2-3h6l-1 4-5 2zm-121 31l15-13 2 4-1 4-6 2-6 8h-1l-2-2zm8 8l5-1-3 7-5 2zm41 0l3-1 2 5-4 5-4 2-4-3zm-138 10l5-2h4l2 10v7l-4 1-2-5v-4l-5-1zm-144 32l-3-3 3-4 3 3zm85 8l1-5h1v8h-2zm586 25l11-4 1 3-3 4-9 3-6 2-1-3zm-604 35v-6h2l4 2v6l-1 5-4-1zm-25 15l4-8h2l3 7h4l-1 10-6 4h-3l-1-1zm663 11v-2l11 2-1 4h-4l-6-2zm8 11v-3h2l9 4v3l-5-1zm70 57v-12l10 14zm-794 1l3-3h3l8 7v9l-2 1 2 2-11-5 2-2-3-2 3-4h-5zm65 22l-4-2 3-7 4 2zm277 28l6-1h3l3 1 8 4 7 1 4 4 1 3-6 1 4 4v9l-2 2h-6l-3-5h-7v-5l-12-9z"/>
		<path id="Path 46" class="s40" d="m443 363l2-1 2 2-4 5h2l-2 4-4 1-4-2zm-228 61l12-2v3l-1 6v1l-6 1h-1l1-4-4-1zm359 6v-2h6v2zm-46 8v-6l6 1 2 1v6h-4zm455 1h-3v-3l4-2 1 1zm-884 49l1-2 2 10-2 1zm145 4v-4h4v3l-1 1zm-54 47l5-2h1l-3 4-2 3h2v1l-4 3h-5v-3zm579 17l8-1-1 1h-4zm-27 5l4-5 4 3zm-678 9l6-1 10 5 6 4v3zm156 31l1-3 12 2 3 8-2 6h-6l-8 2zm-84 2l6-4 4 1-1 6zm842 20l2-5 2 5-2 1zm-669 19l7-1 1 5-8-1zm147 3l1-2h3l21 9 2 6-1 2-4-1-20-12zm-100 3v-4h4l4 2v2zm-101 6l3-2 2 3-2 1zm267 1l6-1 2 2v3z"/>
		<path id="Path 47" class="s41" d="m397 403l5-3 1 2-5 4zm-55 2l1-1h11v4l-2 5h-2l-1-5h-5-2zm-86 8l15-3h3v2l-1 4h-3l-10-1zm178 7v-5l11 2v2l-4 5zm134 20v-3l17 3 5 2-7 5 1 9h-4l-4-3v-6zm-380-1l2-1h5l2 3-1 5h-6l-2-3zm-23 1l3-1 1 5 3-1 2 1-1 7-6 3-5-4v-4l3-1zm704 31l6-2 2 2-11 6v5h-3l-4-4 3-4zm-48 5l9-3v3l-5 2zm-583 5l6-1h5l1 2-2 6h-4l-2-3-4 1zm-168 19v-8l3 1 1 1-1 7 6 6zm161 2l4-4 3 2 2 7v3 1l-4-1-1-7zm684 36l1-2 6 10-2 1-3-3-2-4zm-89 23l5-1 1 2v2l-1 2-6-3zm-117 8l10-7 9 1v1l-4 2-13 4h-2zm-522 38l2-7h3 3v1l-2 4zm-5 14l-2-2 2-1 12 4v3zm329 10l1-5h4v4zm-211 11l5-1 1-5 3 1v5 3l-9-1zm83 3l5-1-1 4h-5z"/>
		<path id="Path 48" class="s42" d="m458 356l6-4 1 3-6 8-9 9-4 2-3-1 2-4zm8 35l16-11 1 3-11 10-7 4-2-2zm16 4l7-5 1 1-8 6zm15 2l8-7h2l2 1-2 3-4 3-4 1zm-85 3l3-3h1l4 3-3 8v2h-6l-2-5zm45-1l2-1 2 2-7 8-4 2-2-3 2-3zm9 5l5-2 2 2-4 5-5 1-2-1zm53 1l4-1v2l-6 4-5 1-1-1 1-2zm-38 11l9-5v2l-4 3 1 4h-4zm18-2l4-1v3l-7 5-4-2zm-116 2l1-2 6 3 1 5h-3l-4 1-2-1zm127 2l1-2h4l1 2-3 2h-3zm6 7l12-7h3l1 2-3 2-7 2 4 4v4h-4l-4-2zm-163 7l-1-6h3 3l1 1-3 5zm-133 1l6-1v10h-4l-2-3zm-41 9l3-4h4l2 1v4l-9 1zm18-1l4-3 9 2 4 2 1 11-1 3h-5l-13-10zm323 3l3-6h2v6l-3 7zm-24 1h-3v-5l4 1zm374 17l2-3h3v3l-1 2h-3zm-748 13l2-11h2l8 2 2 10-3 3-3 1v6h-4l-4-6-1-1zm722 8l6-2 3 10-3 1-1-7-6 1v-2zm-818 37v-6h3l2 1 6 14-2 5zm100 32l4-8h5l1 12h-3l-3-1-2 3-3-2zm32 24l9-1v3l-4 4h-2z"/>
		<path id="Path 49" class="s43" d="m489 390l10-7 2 1-1 2-8 5h-2zm-36 0l6-6h1l2 2-7 6zm-37 7l6-8 6-2 3 2-3 8 7-4 1 2-2 8 7-3 2 2-5 7 1 3-11-2-6-4 3-7-5 1zm43 1l4-3 2 2-1 2-3 1zm64 6l2-2h2l1 2-5 2zm-24 2l4-3h2l1 1-4 4h-3zm-152 12l3-5h2l2 6 1 7h-3l-3-2zm168-2l4-3h2l2 1-7 4zm-194 2l2-2 5 1v4l-4 1h-3zm-20 7l-2-5h5l4 4v2l-1 8-4 1zm105-1l3-4h5l3 4 5-1 2 4-7 13-2-3v-3l-2-8-6 7-4 2-1-3v-7zm-136 0l4-2h7l3 9-2 6-4-1-1-9-5 3-1 5-4 1zm108 2l4-4 2 1v3l-6 10h-3v-8zm10 0v-4h3l4 2 2 2-3 5-4 7h-3zm-134 11l2-11h4l3 11 2 8-1 5h-4v-10h-4zm174-1v-4h6v3zm469 11l9-3v2l-9 5v-3zm-279 10h6v7l-2 3h-4v-3zm10 7l2-6 12 5 2 6-2 2h-4l-2-6-7 2zm235 0l3-2h4l1 2-3 3-6 2v-3zm-715 20l4-4h6v11l-11 1zm-86 0l5-1-1 9-5 4h-2l-6-7zm150 42l2-11 5-4 5 4 1 2-4 8-8 1z"/>
		<path id="Path 50" class="s44" d="m475 398l7-3v2l-5 5-4 2-2-2zm36 0l6-2v2 1l-6 3-5 2-1-1zm-18 0l4-1 2 1-7 6h-3l-1-1zm0 10l6-2v2l-3 3-6 2v-2zm12 4l6-2 1 1-1 2-5 1zm-261 22l5-2 1 7-2 5-5-1-1-2zm-18 8l4-1 4 6-4 1v8l-6-1h-1v-5l-3-1 2-7zm658 11l13-5v3l-7 5-13 6h-2v-3l4-3zm-758 11l2-5h6l1 1-1 6zm39 3l3-8h5l2 5-1 4h-8zm-56-2l11-1h4l-2 11-12 3 3 5 5-1 1 1-4 5v12l-3 6h-2v-3h-3l-1-11-2-8-7-3-2-1 3-6-4-2v-1l4-3zm741 5l9-4h3v3l-1 2-11 4-1-3zm-794 30l3-4h2l1 3zm81 20l3-10h2l-1 10h-1zm49 39l5-4 2 3-3 6-4 4-4 2h-2l-1-3zm-17 14l4-1 2 2-3 4h-5v-3zm34 38l1-1 5 3 16 14-2 2h-6v-5zm87 2v-2l6 4-2 2zm183 18v-3h7l8 1v4z"/>
		<path id="Path 51" class="s45" d="m429 383l4-1 2 2-4 5-3-2zm6 10l4-4 1 3v1l-4 2zm82 3l8-4-4 5-4 1zm-75 2l4-2 1 2-4 4-2-2zm-114 8l14-1v3h-6-4-4zm193 7l10-4v2l-3 2-5 1zm10 5l10-4 1 2-4 3-6 1zm-47 8v-2l9 2-1 6h-6l-2-2zm246 52v-4l26 3v3l-8 10-3-11h-6l-3 8h-3l-3-7zm120 3l9-3 4 4-4 3 2 4-3 2h-5zm87 10l6-9 3 1-6 8h-1zm-105-5l11-2v2l-6 4 3 6 6 22-3 3-3-6 1-6-5-2v-7l-6-9v-2-1zm29 9l-2-2 4 2zm-809 45l4-2 4 4v2 1l-6 3zm23 3l1-4 10 6 2 2-3 3-8-4zm55 32l2-1 2 2-4 5h-2l-1-2v-1zm522 13l3-4h5 4v4l-6 3-6 1zm-39 12l12-3v3l-4 4-9 1-3-3 2-2zm-353 1l1-2 9 3-2 2-4-1zm232 64l1-1 5 2v2z"/>
		<path id="Path 52" class="s46" d="m519 342l4-1 1 2-2 3-5 1v-2zm5 9l6-2 1 3-9 4v-2zm-28 60l3-3h3l1 4v1l-4 1zm-126 16l-6-5 1-8h2l3 2 2-2v5zm-27 8l6-11 3 2 1 6-2 6h-6zm-49 2l7-12 2 10-3 5zm13-3l1-8 6 1 1 7h-1zm100-1l6-7 2 8h-8zm-15 23l2-2h4l1 5h5l4 7-5 2v4l-1 2h-5v-6l-5-2-1-6zm117 13l2-2 1 3zm-228 7h4l1-4h6v6 7h-7l-2 3h-3l-1-7zm-109 4l1-4h5l7 2 5 2 8 13h5l3 11v4h-7l-5-13-13 1-5-4v-7zm366 46v-10l4 3-1 6zm297 26l-5-20h2l9 2v17zm88 3l5-1 7 8-5 3v15l-9-2-1-2v-6l-2-4 2-7zm-296 39l7-10h6l4 4-5 4-12 4z"/>
		<path id="Path 53" class="s47" d="m517 347l5-1 2 5-2 3h-3l-3-5zm-251 98l5-2 1 7-3 6-3-3zm9 5l6-2 1 10-5 2-2-3zm13-1l5-1v12l-6-1v-2zm123 5v-4l4-2 5 2v6l-2 6h-4zm-142 15l1-7h4l1 10-2 3-4-2zm-178 53l5-1 6 3v3l-16 14v4l-10-6-6-6 1-5 8-6 11 2zm53 27l1-25h3l9 1 3 1-1 30-1 2h-10zm-76 7l20 2 1-4 10 1 5 5v9 2l-2 1h-9l-11-3-12-4-4-3zm126 8l6-10h1 11l2 4-1 3-4 7 1 6v6l-4 2h-6v-6l-6-6zm447 67l-2-2 2-4 5 4zm-298 10l-1-11h19v2l-1 8h-4l-1 4h-7zm35-9v-2l12 4v10h-2l-5 1-5-1zm18 2l1-4h13l2 4h4v10h-14l-4-3z"/>
		<path id="Path 54" class="s48" d="m512 346l5-1v2l-1 2-4 2h-5l1-3zm18 3l3-3 3 3-2 3h-3zm-11 20l4-3 4 5-1 1h-6zm-129 48l1-2 6 1-2 8-4-2zm44 15l5-2 1 6h-6v-1zm-69 27l2-7h4l2 7 5-3h7l1 4-4 6h-5l-2 5h-3l-4-7zm39 0l2-5h5l3 8h4l2-6h4v4l-2 6-5 1-1 5h-4l-4-6zm-60 1v-3l4-1v3zm548 12l-1-11h6l1 1v10zm-356 0v-6h6v6zm261 22l8-4 4 4h6 5 2v4l-2 7 5 1h4l4 3v5l-2 8-6-1-2-4-7-1v-4l-4-2 2-5-2-6-6 2-1 5h-2l-3-1v-4l-4-1zm92 10l1-3h1v3zm-255 75l6-3h3l-3 8h-6z"/>
		<path id="Path 55" class="s49" d="m272 492l8-2h3l15 8 2 24v6l1 6v4h-5l-8-2v-12l-10-2-4-4-10-2v-2l2-14 1-6zm-32 15l6-3v6h-6zm-160 67l2-5 11 3 2 4-1 4-8-2zm650 8h3l-1-6 6 3v-3l6 1v3l-1 4-12 4zm-47 18l1-5 8 4v1l-3 4h-3zm-19 8l1-6 9 2 2 9-3 5-7 3v-2zm-436 6h6l8 1 6 9 1 5-5 7h-2l-9-9 3-7-4-2zm257 38l3-14h4l8 4v10 4l-12-1zm-83-4v-4h14v3z"/>
		<path id="Path 56" class="s50" d="m281 409l3-1h6 12v2l-6 2h-4-10-6v-2l1-1zm166 4l2-1 9 1v7 1l-3 2-6 1-3-3-1-2v-2zm-272 17l3-1 1 4v2l-3 4 3 3v2h-5l-2-1v-3l-4-1-3 1-4 1v3h-3l-2-2v-6l12-5zm372 5v-3h3l6 3zm17 5l-4-2 1-2h5l2 1v3zm-429 1l6-1 2 6 3 7v3l-2 4h-9l-1-1v-7h-5l-5-1-1-5zm-85 35l22-11v3l-5 5-7 3-3 1-1 6-6-1v-1zm772 6l-2-6h1l4 2 9 2 1 2-3 4-2 2-5-1zm-595 10l3-2v2zm-207 16l1-13 3 2v1l2 14zm120 0l1-5h3l-2 7h-2zm-4 18l1-6h3l-1 6zm640 30l1-1h4v3l1 3 1 3h-3l-4-3zm-149 40l12-4 1 4-4 2-11 2v-3zm-423 6l7-2 9 1v15l-9-5-7-3zm232 42l-1-4h3l2 1-1 3z"/>
		<path id="Path 57" class="s51" d="m494 319l4-3 4 3-4 4-6 3zm-213 103l1-6 3 4zm278 13l1-3h6v4h-5zm-505 113l6-3 8 11-2 6-12-6-1-6zm156 26l5-3 7 2v5l-3 6-6 8-7-4v-6l4-2zm763 50l5-1 2 1 1 6-6-1zm-583 20v-10h6l2 7-2 4z"/>
		<path id="Path 58" class="s52" d="m440 386l5-2 1 2-3 5-3 1-1-3zm544 20l8-2 1 2-3 8-6-4zm-600 17l4-1v4h-4zm13 3l5-1v7h-2l-6-1zm-59 12l2-3h3l2 3h6l3 2v4l-4 1-2 6-4-1v-6zm-53 27l2-6 6 1h3v3l-2 3-2 6h-6zm563 1l9-3 2 3-9 4zm29 5l6-1 6 4 1 7-3 13 7 2-4 2h-8l-1-2-1-3h-7l-7-11v-5zm-62 23l-1-12 7 2 1-2 3 5v3h-4l-1 4zm-676 32l1-6h1 4v4l-1 25-4-6z"/>
		<path id="Path 59" class="s53" d="m980 411v-1h4l6 4v8l-2 1-7-4zm-474 40h5l1-7h8l2 7 3 7 5 2v9l4 3v4h-5l-5-12-2-6-4 2h-6l-2-4h-5l-1-4zm74 13l4-8 7 1 2 7h4l3 12h-3l-2-4-6 3 1 8 4 1 1 2-5 6-6-6-2-4 2-12-4-2zm91 6l3-3 2 14 10 1 3-4 5 4v6l-6 1-1 3h-4l-3-5h-6l-2 5h-4v-4l-2-9zm40 12l1-8 4 2 1 4v2zm205 9l4-2 4 3h9l1 4-2 1-3-1-11 8h-2zm-366 2l2-1h5v5l-5 3-2-2z"/>
		<path id="Path 60" class="s54" d="m764 502v-4h4v4zm22 7l2-8 6 1 1 4 5-1 3 1 1 12v2h-15l-3-4zm-34 21l27-2 9 4 2 8h6l4 14h-2-10l-7 1h-4l-8 1h-1l-10-2-2-18-4-2zm-64 34l4-3 9 7-7 6h-3l-3-4zm-567 20l7-3h2l1 6-1 8h-5v-5l-4 1-1-5zm415 32h8l5-4 5 3-2 5h-4l-8 3 3 2-4 1h-3l1-3-4-1v-2z"/>
		<path id="Path 61" class="s55" d="m417 408l5-2 6 4v3h-7l-4-3zm-194 10l33-5 4 2-8 3-14 2-11 2-12 2h-4l-1-3zm-45 11l22-5 1 2-22 7zm-20 21v-6h3l1 2v4zm-45-1l10-3 1 5v1h-6-5zm134 3l1-2h4v5l-3 3-3 3-1-2zm-175 13l19-7v4l-8 3-11 3zm21 16l2-1 2 1 3 5-1 2-5-2zm100 63h-2l2-3 2 1zm562 14l13-2h1 3v4l-13 2-5 1-10 2-6 1h-2v-2l2-3h4l8-2zm-31 8l4-2h2v4l-6 2v-1zm-23 8l8-4h2v2l-2 3-8 1zm-482 10l3-6h4v9 3l-5 3-3-1zm445 0l11-4h4v2l-6 4-6 2h-3zm-471 21l2-4 9 1v6 2l-1 1-7-3zm406-1l10-2 3 3-6 3-7 2-8 1 1-5zm-140 26v-2h6v2z"/>
		<path id="Path 62" class="s56" d="m376 419l2-3h5l-1 6-4 4zm106 21v-4h4 5l2 4v5h3v4l-4 3-5-7h-5zm79 19v-5l5-3 2 9zm12-1l3-5 4 3-2 2zm49 9l2-3h4l1 3 7-2 2 6h4v9h-7l-3-8-5 2v6h-4zm-78 8l6-3h3l3 6h3l3 2v5l-5 7h-5v-7l-6-1h-4v-5zm28 5l3-5 2 5zm218 8l1-5h5v7zm32 10v-4h2v4zm-766 2l6-1 2 1v6h-5l-1 5-8 2 1 5-8-6-6-12zm415 111l2-9 4 4-3 10-3-1z"/>
		<path id="Path 63" class="s57" d="m274 412v-2h2v2zm154 1v-3l11 2 6-1 2 2-2 4-11-2zm-261 41l6-3 13 6v7h-11l-2-5h-5zm-23 37v-7h4l-1 8-1 2zm-77 10l3-1 9 7 3 1 2 3h7l5 1 5-2 1 2-9 6h-5l-6-3-4-1zm129 36l4-2 5 2-1 5-3 3h-3v-4l-3 1-2-1zm-5 18l3-3h3v2l-4 4zm539 13v-4h6v2l-4 2zm-49 9l10-3h3 7v2l-1 1-17 5h-4v-2zm-193 56v-4h4l5 2v3h-4z"/>
		<path id="Path 64" class="s58" d="m492 326l6-3v6l-2 3h-3l-2-3zm487 82l5-2v4h-4zm-709 50l5-1 2 3-3 2h-4zm573 28l6-1 1 7 3-1h5l1 2 2 2-3 4-4 5h-3l-5-8h-6l-3-6zm-814 7l5-3h4v3l-3 3h-5zm854 19v-3h4v3zm-755 30l2-1v3l-4 8v-6zm712 29v-2l9 5v2zm-193 17l3-5 5 1-3 4zm-473 10l4-1h4l7 3-2 7-5 2-8-7zm90 8v-3l4 1v4h-3zm719 33l-1-7h2l2 7zm-725 17l2-1 13 5v3l-8-1zm247 11l5-3 12 9v5l-1 1-9-3-6-3-1-1z"/>
		<path id="Path 65" class="s59" d="m200 464h6l3-8h5l2 6 8 1 2 5h8l4 13v5l-2 4h-6l-3 2-5 6-11-2-2-6-4-8-2-5-3-6zm-120 24l2-8 11 1 1 5 5 2 1 9-3 5-1 1-4 3-4-2-7-5z"/>
		<path id="Path 66" class="s60" d="m473 358l9-5-9 10-4 2-1-1zm77 53l3-3 5 2-7 2zm423-1l2-2h4l1 2v1l-7 1zm-618 16l-1-7 4 1v6zm582-1l2-2h2l1 5-3 2zm-703 6l4-2h3l3 5-2 7-8-5zm350 25l-1-9 7-5 6 1 2 1 1 6v9l-2 5h-4l-2-7zm-501 9l8-3h5v2l-6 3v4h4v1l-10 1zm-23 11l7-3 7 4-7 6-5 1zm765 14v-3l5 1v1l-3 1zm36 32l2-6h4l11 1 6 1-4 2h-4-7l3 4-8 2zm-643 22l2-2h4v6l-6 9h-2zm-71 34l1-2h6 4l3 6-5 3h-3l-1-3zm62 35l2-2 9 5 8-2 4 4-3 7 4 2 9 9-1 7h-1l-17-13v-1l2-2zm61 3v-2l6 2v3zm222 13v-5h8l6 1-2 4-7 2zm-33-1l3-2h6v2h-3z"/>
		<path id="Path 67" fill-rule="evenodd" class="s61" d="m463 366l5-2 1 1-6 7h-3zm10 38l4-2 1 6-8 5-1-4zm-152 18l-4 3-2-7h6zm205 6l-4-4 7-2-1 4v2zm-285 24l2-9 5 1v6l-1 2h-1l-1-4h-3v4zm64 6l1-12h4l2 2v9l-5 5zm49 1l1-13h5l1 2-1 10-6 2zm-258 3l12-1 1 4-11 3-2-4zm173 11l4 2 2-3h5l1 4-2 5-4 1-3 8h-4v-8l-5-1v-2zm-91 3v-3l7 3v2zm680 15l3-2-2-4 4-3h3l7 11-3 1-7 1-4-2zm-631 26l1-5h4l6 6-4 6h-4zm638 17l3-2 2 2v2zm-24 29l5-21 8 1 9 3-1 18 4 3v5l-1 4 13 6 15 9 9 4v4l-5-1 1 4-45-24v-2l5-1zm-666 11l5-4h2l-2 8-2 2h-6v-2zm715 11l1-3 5 2-1 4h-2zm-649 58l1-7h2l13 12 1 4-3 2z"/>
		<path id="Path 68" class="s62" d="m466 416l3-1 3 1 6 1 3-1 2 4h4l5-1 4 2 4 1 1 4h-8l-9-2-12-2-5-1-1-1zm-280 41l4-1 4 3-3 5h-5zm-137 29l1-4 6 1-3 4zm181 6v-2h6v2l-1 2zm-169 4l5-4h4v8l-3 1-3-1-2-1zm711 64v-4h4v5zm-61 10l13-4v3l-6 2-7 1z"/>
		<path id="Path 69" class="s63" d="m478 338l11-9h2l2 3-10 12h-2zm0 30l10-4-8 8-6 4-1-2zm-25 8l5-2-4 6-5 5-3 1-1-2zm89 37l8-2 1 1-9 4-1-2zm390 13l5-1 2 5-1 2-9 3-2-6zm-308 31v-6h6l15 5-3 1v6l-12-5-2 6h-4zm206 16l10-4 3 5-4 4-5 2-9-2 5-2zm-712 9l-5 1-3-5 12-3-1 4zm736 22l4-5h6l5 5v9h-2-5l-6-2zm-790 2v-6l3 1 11 13h-6l-3-3zm149 20l8-1 2 12h-3l-2-5h-5zm663 8v-2h3l5 2v2h-4zm-2 6v-2h6l4 2 6 3 2 1v3l-8-2zm-726 43l4-1 1 3-3 1zm8 16l10-2 5 1v4l-3 3-6 1-2 4v3l-15-7 1-6 4-1z"/>
		<path id="Path 70" class="s64" d="m507 376l3-1 2 2-4 4-5 2-1-2zm-211 36l6-2h2v5 2 3h-5-3v-5zm207 1v-1h2l1 2-1 2h-2zm-31 3l4-2 2 3zm34 24l1-12 11 2 4 2 1 6-3 6h-8-6zm-20-4v-4h6l-1 4zm64 15v-7l-6-5v-4h3 9 3l2 1-1 2 4 2 2 11-5 3v5h-5v-7zm49-1l10-3 7 2v8l-1 5h-4l-1 4-5 1v-6l-6-2zm-470 2h5v7h-6v-3zm711 17l5-2 2 5-4 2zm-590 9l7-1 3 1 3 1v2l-2 5-6 2-1-5-4-1-1-2zm-44 30v-4h6l-6 23-6 8-4 2h-1l8-13 5-11zm-71 36l5-1 4 6 4 9h10v4l-7 2-11-3-2 9-3 6h-1l-2-2 3-9-2-9h3zm785 3l2-1 6 8-5 1zm-835 3l3-3 7 4h8v3l-4 1-10-1zm882 93l3-2 5 5v2z"/>
		<path id="Path 71" class="s65" d="m361 414l-1-6 12 1v3l-5-1v3h-2zm-117 66l1-10 6 2-1 6-1 2zm-14 26l1-4 4 1 1 7h-4zm471 70l8-1 8 7 1 11-16 6-4-7 2-15zm-76 24l11-2 13 11-1 8-7 8-2 4 2 2-1 4-6-2v-13l-10-2v-13l-3-1zm64 4l3-4 5 2-8 4zm-197 34l1-4h4l8 2v-2h1l6 3-4 7-8-2zm36 16l3-4 3 6h-4zm-7 25l1-1h7l3 5v6h-1l-11-6zm17 4l2-2 8 1-1 11-9-2z"/>
		<path id="Path 72" class="s66" d="m502 338l9-4 2 3-1 2-8 2h-3zm-38 72l5-1 1 4-1 2-3 1-4-1zm-160 10v-3l5 1h1l-2 6zm176 10v-3l4-1v4zm-198 28l5-1v2l-2 6-5 3v4h-5l-1-10 3-2zm-146 18h7l1 8v7h-1l-2-4-5 1-3-2v-7zm49 2v-2l5 1v3zm650 4l4-2h4l1 3-1 1-11 2zm-580 6l6-2 1 8v6h-6l-2-7zm-90 6l3-2 8 8-4 3 3 7-10-5v-3zm681 24l-6-22h6l5 8h3l2 7 6 2 1 3-2 6zm-363 140l-2-6h4l3 3-1 4z"/>
		<path id="Path 73" class="s67" d="m337 415l-1-7h6 2v4l-2 5zm-45 0v-3h4v3zm-97 127l3-1v4l-4 4-1-4v-1zm6 3l3-3h3l-6 12h-1-3v-2zm648 31v-2l4 2v2zm-615 38l2-6 7 2-1 5zm59 18l4-1v5h3v5h-8zm195 23l12 1v-4l10 3v9l-5 3-7-1-5-2-6-5z"/>
		<path id="Path 74" class="s68" d="m509 362l5-5h2v3l-6 4zm-33 52l13-10h3l1 4-3 3-9 5-3 1zm-36 28l1-3 3 1v5h-4zm-123 0l2-2 7 1 2 1v5l-4 4v8l-6-1 2-9-3-4zm13 17l1-5h5l1 6-2 3h-4zm545 9l3-2h6l-1 4-6 1-2-2zm-731 35l2-6 10 5v9l-3 3-5-1v7h-3-4l1-10zm725 10v-9h4l3 2v3h7v3l-5 1zm-756 31l5-5 3 3-2 4-3 1zm50 38l4-4h5v2l-2 4zm113 37v-3h3l2 2v3zm666 8v-4l4 1 14 10v5zm-474-1l6-2h6v4h-7-5z"/>
		<path id="Path 75" class="s69" d="m990 414l3-8 2 4-3 12h-2zm-401-2l4-2 6 10h-6zm376 1l8-3v2l-8 3zm-692 3l1-4h2 6v4l-1 6h-7zm148-2v-1h7l6 2v5l-8 7h-2l-2-4v-3zm37 7v-1h8l1 1-1 7h-7zm13 9l1-8 12 2v2l-4 1v3l-3 3h-4zm21 2l1-6h8l6 2-1 12-9 1-4-1-2-4zm44 8v-6l8 1v4l6 5v7 1h-5l-5-6v-4zm63 10l-1-6 11 3zm-482 5l1-3h6l4 4v3l-2 5h-2-4zm-45 13l11-3 1 8-10 4-7-4zm640 6v-3l7 1-3 4zm203 36l2-2 1 3-3 17-3-2v-6zm-61 33v-10l11 1 5 2 4 2v2h-6l2 4-7 2zm-649-6l4-3h2l-4 8h-3zm-94 34l5-4h1v3l-4 4zm864 77v-2l6 3-1 2zm-477 20v-2l7 1v5z"/>
		<path id="Path 76" class="s70" d="m497 370l5-4 2 2-1 2-5 2zm-58 4l4-1 3 1-8 10h-3l-2-2zm-158 48l4-2h7 4 3l2 5-7 12h-4l-1-6h-5zm196 11l3-3h4l2 2v4h-4v4l-4-2zm-126 5l2-6h3l-2 8zm174 6v-6h3l4 2v4zm146 26l-3-1v-8l7 2-1 4zm18 8l1-12 6 1 16 4v3l-1 8v2h-7l-2-4-8 2zm27-2l3-4h5l6 2v4h-5l-3 2h-5zm-586 10v-6l3-1v7zm634 4l-4-1v-5h4zm-561 3l2-3h4l2 6 1 8h-6zm-168 41l2-5 3 3 12 8 2 8-1 2h-5l-6-6-7-9z"/>
		<path id="Path 77" class="s71" d="m372 412v-3h3l3 7-2 3h-4v-5zm569 11l12-5v2l-6 6-5 2zm-715 8l5-1 3 1v5l-4 5-4 1v-10zm41 5l4-1 7 1 4 1 1 7 5 5-1 8-5 1-1-10-6 2h-3l-1-7-5 2h-1l-2-8zm119 5l1-3h3l-2 3zm288 26l1-4 15 3-1 12-3 4-10-1zm-414 11l4-9h5v4l-6 6zm521 1l33-2v5l1 12h-6l-4-4-8 4-1-4v-7h-5l-1 5h-6zm-15 3v-4h11l2 9-5 1-4-6zm98 17l6-1h3v6h-4zm-596 105l2-2 10 4v3l-1 3-11-4z"/>
		<path id="Path 78" class="s72" d="m427 379l8-7 4 2-6 8-4 1zm-43 35v-6h2 4l1 7-1 2zm-272 42l5-1 3 9-11 1-1-4v-5zm840 20l-1-4 3-2 2 2zm-19 16l4-1h2l-5 5zm-714 19l3-9 4 1v7l-2 5zm-123 1l1-6h2l2 3v1zm118 46l2-1h2l-1 5-1 1-3-2zm-102 25l8-1 1 2-1 2h-10v-3zm92 27v-2l7 3-2 2z"/>
		<path id="Path 79" class="s73" d="m214 456l1-3 4 1 1 2 3 3 1-4 6 1v1l4 11h-8l-2-5-8-1zm-23 8l3-5 6 5v7l-6-2zm-107 9l10-1 4 2-3 6-2 1-11-1-2 8h-4l-3 5-3-1h-4l1-9 7-6zm128 31l-1-8 11 2v4l-3 9-5 4-2 11-3 8-4 3-5-2 6-8zm-111 5l6-6h3v3l-8 6-1-2z"/>
		<path id="Path 80" class="s74" d="m464 351l7-6 2 5-2 3-6 2-1-3zm63 51l9-6 2 2-4 4-6 2zm-245 14v-4h10v3 5h-7zm-30 2l8-3 10 1v8l-3 12-4 1-3-11h-4v-4l-4-1zm214 10l1-7 5 1-1 8zm57 10l-1-6h4 2v6h-3zm-254 18l3-6h3v7l-5 1zm576 11l3-1 2 4-1 2h-2zm-605 30l4-5h3l1 12h-2l-6 3-2-7zm678 7l11-8 3 1-14 14-1-3zm-75 17l3-3 15 4 3 4 4 3v3l-3 2-11-1-12-4zm-623 21v-5h3l1 1v3 1zm611 24l1-2 8 5v2zm-729 6l2-1h1 6l2 3-1 2h-8-2zm562 8l6-2 5 2-11 4h-4zm-543 11l4-1v5h5l4 2v5l-19-8v-2zm76 31l3-5-4-9 7 3 14 13v5h6v1h-5l-17-2-2-2z"/>
		<path id="Path 81" class="s75" d="m516 357l3-3h3v2 1l-6 3zm-3 68l-5-1 2-4h3zm-231 12l2-6h5l1 6h4l6 3v4l3 1-3 12-4 3h-3v-12l-5 1-5-5zm116 7l2-12h2l1 3 4-2v1l3 8 5-5 2 3-2 8-4 2v4h-5v-4l-1-10-5 6zm-38 2l4-8h3l6 3h2l-2 7-2 4h-4l-1-6-5 2zm-32 1v-5h6l2 12h-5zm206 29v-4h2 6l2 3-2 4h-6zm25 2l2-6h4l1 6-4 2zm163 2l3-2 1 3 4-1 3 7h3l3-8h6l3 11v3l-6 5h-4l-3-6h-4l-10-6zm-554 10v-10h4l4 5v7zm726 32l-7-3 9-1z"/>
		<path id="Path 82" class="s76" d="m490 413l6-2 3 3-7 5-5 1-1-4zm48 41l-1-7 3-1 5 6v6h3l2-6v-1l6 1v7h5l7 1 4 1 2 3-1 2-8 6h-4l-1-8-7 4h-3l-2-5-3 1zm-370 26l-2-12h8l4 5v3h-5l-1 4zm-49 3l3-3 4 6h4 3l3 2-2 13-4 2-4-1 1-7h-5l-2 5h-5v-12zm629 7l8-10 4 4v5l4 1 5 6-1 2h-4l-1-3-7 3-5-1-3-4zm-37-6v-2h6v2zm-667 7l4-1v-4h1l4 1v2l6 7-3 4h-19l-2-4 3-3zm871 19l-6-1 1-5h6 2l-1 4z"/>
		<path id="Path 83" class="s77" d="m580 427l9-2 4-5h6l-3 5-10 4-6 1v-2zm-14 2l8-1v2l-8 2zm-363 54l2-1 4 8h-4zm-99 16l2-7 1 11-6 6-2-3 1-3zm131-5l1-2h2l2 5-2 3-3-2zm-188 63l-17-18h3l6 7 3-2 6 6zm48 19l-2-4h9v4zm504 34l7-2v2l-1 3h-2zm-318 43l5-4 2 1-5 7-10 6v-3zm176 0l1-1 6 3v2z"/>
		<path id="Path 84" class="s78" d="m562 376l2-2 10 14v4h-2-4v-7l-6-3zm192 187l5-1 3 8v2l-8-1zm-16 3l6-1 2 8-2 4-6-1-2-1zm-71 26l6-4 9 4 2 3-1 5-4 3-5 1-9-2-1 6-9 2-6-1-13-11 4-2 12-4 6-1zm-55 13l9-1 3 1v13 2l-4-1-14-9v-2zm71 1l3-2h3v2l-4 4h-2-2zm-23 16l6-3v2l-6 3zm-152 22l4-7 12 3 7 5v5l-3 4-6 1-3-1v-3l1-2zm-92 0l14-1v3l-14 1zm-69 3l1-3h7 1v4zm185 42v-6h6v8z"/>
		<path id="Path 85" class="s79" d="m409 418l2-8h6l4 3v1h-4v5l5 1v3l-5 1-3-4h-5zm544 0l12-5v2l-2 2-10 3zm-715 2l14-2v3l1 5-4 6-5 2-3-5 1-4-4-2zm378 37v-8l8 2v6h-6zm-396-1l3-1h1l-1 4zm594 21l6-1 2 6-1 2-7-2zm54 55v-3l8 3v2h-6zm-167 36l5-2 3 3v1l-8 4h-7zm-581 14l7-3 1 2-7 3zm101 11l5-3 10 4h3v-3h1l21 8-1 2-2 3-7 2 14 5 5 3v2h-2l-15-5-10-1-7-2-3-8-12-2zm766 52v2l-4-2v-6h3z"/>
		<path id="Path 86" class="s80" d="m478 408l10-5 1 1-13 10-4 2-3-1 1-2zm22 14l7-4h3v2l-2 4 5 1h3l2 5-11-2-6-2zm34 11v-3h4l9 2v3h-3l-8-1zm-304 8l4-5 8 5 1 2-2 9v2h-5l-2-7zm-40 15v-10h6l13 10-3 8h-6l-6-5zm-56 10l1-6h9v6l8 8v6l-4 4h-4l-1-8h-7zm40 2l1-4h11 5l3 5 6 2 3 6-3 1-10-1-5-1-7-3zm669 6l4-2h2l1 3-7 5h-4v-2zm-801 42l1-4 8 6 13 10 6 5 6 6-1 4-11-7-6-2-2-5zm91 17l3-7h3l1 17-5 1h-5v-3zm42 36l4-2 1 3-5 4-2-2z"/>
		<path id="Path 87" class="s81" d="m406 424v-6h3v2zm65 16l2-7h4l1 5 4 2v5l-3 5h-2v-8zm51 11l3-7h7l1 8 5 2 7 10-3 2h-6v-6l-2-2-4 2-5-2zm-364 21l7-5 1 1 2 12v10 2l-3 2-7-3v-11zm-102 11l1-6 3-1 2 8-9 5v-2zm708 1l2-2h4l4 6 5-1 5 1h6l6 2 1 4-1 6-2 2-6-1-1-4h-5l-2 4h-5l-2-5h-4l-5-6zm-639 20l1-2 4 1v3z"/>
		<path id="Path 88" class="s82" d="m227 422l11-2v3 6l-4 2-3-1-4-5zm761 1l2-1h2l-7 13-1-1v-5zm-831 28l-4-4v-5h3l2 2v6zm95-1v-1h1l1 7-2-1zm472 120l6-2h2v8l1 6h-3l-5-2zm-13 2l7-1v5l4 4v3l-5-1-8-7zm32 12l1-4h5v3zm-646 2h4l2-4h1l6 1v3l5 6v2l-9-3zm570 2l6-2v2l-6 4zm313 36l2-1 2 9h-2l-1-2zm-334 5l5-1v3l-11 4 1-4zm-130 25l-7-5 10 2v3zm14 5v-3h4l3 4z"/>
		<path id="Path 89" class="s83" d="m397 416l1-2 8 4v6l-4 1-5 1-2-2zm-27 11l2-8h4l2 7-3 2-4 1zm169-5l11-3v13h-3l-9-2v-7zm-215 0l4-1 2 5 4-1h1l-4 11h-4l-3-10zm118 3l4-4 3 3 6-1v4l-4 5-7 8-3-1-1-3-1-6zm-418 73l6-2h5l2 4 6 12-1 4-8-5-5-3v6h-3v-2zm185 36l3-8h1v6l-2 2zm-92 33l8-11 3 2-6 9-1 1-4 2z"/>
		<path id="Path 90" class="s84" d="m586 410l2-7 5 7-4 2zm-282 5v-5h2 11l-1 8h-1-5-1l-1-4zm-261 72l7-6v1l-1 4h-1l-4 1zm185 23l2-4 2 4v2h-4zm527 48l3-4 10 2zm61 2v-2l8 1 2 2-1 2zm-36 4h3l-1-3 14 8-1 3-15 3zm-36 1l10-2v8h-3v3l-5-1zm-61 17l17-5-2 15-6 3v4l-8-4-2-3zm-25 9l6-3h3v4zm-88 22l4-1-1-4 3-3 7 5 4-7h6l6 1-7 2-1 5-7 3-14 2zm-410 0v-3l6 1-1 4zm399 4h5l2-4v4h3l-1 3h-9zm98 9l-1-2 4-2v2zm-227 17l3-1v-4l5 1v1h-3l1 4-6 2zm-101-3l1-1 8 4v3h-8zm135 17v-2l10 5-1 2z"/>
		<path id="Path 91" class="s85" d="m402 400l10-8 1 3-4 4-6 3zm-48 8v-4h28 4v4h-2l-9 1h-3l-12-1zm-153 18l10-2h4l1 4-1 5-5 7-9-2-1-5-5 2v3h-5l-1-3-3 3h-4l-3-3v-2zm35 64l2-4v6h-2zm552 68v-4h10v4zm-70 13l6-2v1l1 10h-3l-4-4zm-505 21l6-8-1 8 3 1v5l-1 3-9-1 1-5zm-48 23l1-4 4 1 3 2-2 2zm383 5h4l2-5 5 2v3l-11 3zm-224 23l5-3 1 6h-6zm14 0l5-2 5 3-1 3-9-1zm101 1l1-3 5 2 12 7 1 2-1 1zm-75 2l14-2-2 4-4 1-8-1zm619 7l2-3 3 2z"/>
		<path id="Path 92" class="s86" d="m544 350l2-5 10 12 8 17-2 2h-4l1-4-5-3 2-6-6-2-2-9h-4zm30 42v-4l8 5 3 7h-5v-4zm-188 12l11-1 1 3-1 2h-7-4zm-127 54l5-5h2l3 3 1 2v4l-1 7h-5v-1-6l-5-2zm539 100v-4h2l16 4v2l-14-2zm-39 4l13-2 4 1 4 3v11l-9 1-2-6h-7zm-27 6l4-2h2l-2 9 2 1v3l-6-3zm-59 18l6-4h4l-1 10-9-4zm-233 51v-1l10 2 7 5-1 2-9-3z"/>
		<path id="Path 93" class="s87" d="m306 407v-1h14 8v2l-5 2h-6-11zm-106 17l8-3h2l1 3-10 2zm-88 32l1-4h5l-1 3zm137 2l3-3 2 1 2 2h3v2l-2 8v9l-7 1 1-6 2-9zm709 7l5-1-7 8-2-2 1-2zm-925 21l17-10v5l-7 6-5 3h-4zm-12 9l6-4 1 2-4 4zm61 13h6v-4l4 2-1 5h-7zm699 47l7-1v4h-6-1zm-687 29l1-3 8 1-2 4h-4zm449 41l-3-2 8-3v3zm-349 0v-3h3l2 4zm256 8l-3-2 5-3h7v2zm47-2l7-2 1 5v2l-8-2zm-181 10l4-2 1 4h3v3h-7zm-23 4l-1-4h8v1 2z"/>
		<path id="Path 94" class="s88" d="m445 411l3-4 2 3-1 2-2 1zm13 0l4-2 2 1-2 5 4 1v4h-8v-7zm68 21v-4h2l6 2v3l-6-1zm-312 10l6-3 2 3-2 7-1 5-4-1zm-35 2l9-1 2 3v10l-4 1-13-6 1-7zm-22 7l1-1h4l5 4 1 5-3 8-7 5-6 2-8-8v-6l2-4h7zm73 6l3 1 3-4h5l1 5h3l1 2-1 9-1 10-6 1-4-13zm604 23l5-2v2l-4 2zm-612 18l5-6h3l5 2v4l-4 4-1 4-2 4h-2v-7l-4-1zm-28 51l4-4h3l-4 7h-3zm271 81v-2h3 5v3h-7z"/>
		<path id="Path 95" class="s89" d="m302 408l4-1v3h-2-2zm-161 32l15-4v6h-3v5l4 4-4 5h-7v-3l2-3-5-4zm-45 15l14-6h3v3l-1 4h-4v5l-12 1h-5v-4zm163-4l1-1h4v3l-5 5h-3zm-135 1v-1l5 1-1 4zm-97 39l6-5 1 4-5 3h-1zm114 11l2-11h1l2 3v3l-2 6h-3zm770 27l1-3 3 2 1 8-1 2zm-183 34l10-3v1l-2 3h-6-2zm-506 10l2-7h3v11l-1 1h-4zm-136 8v-3l8 2 1 1-1 3zm140 9v-3l6 1 7 3v3h-3zm413 2l5-4h3 5v4l-12 4zm-70 25h-3v-4h4v3zm-34 9h-3l1-4 4 1-1 3zm-53 34l1-2 4 1 6 5-1 1-4-1z"/>
		<path id="Path 96" class="s90" d="m550 419l4-1 8 1 6 1-5 5v4h3v3h-6l-1 3h-3l-6-3zm368 14l9-4 2 6-12 6zm-490 3l6-1v1 5l-6 1zm-102 5l1-5h4l3 3v3h-6zm247 25l1-2h4 2v4l-5 5zm300 32l8-2 1 2 2 6-8 2-3-2zm-40 11l3-2 5 2-1 6-7-1zm-353 119v-4h9 3v5h-4z"/>
		<path id="Path 97" class="s91" d="m451 432l4-5 4 1h7l5 2 2 3-2 7-2 5-4 2v-8l-7 1-6-2zm-134 10h-4l1-8h1 3l1 6zm69 4l-1-5h1 2v2zm-234 28l6-2v8h-6zm668 20l1-4h4 2v2l-3 2h-2zm-718 18l8-6h2l-1 6-5 5-10 1h-3z"/>
		<path id="Path 98" class="s92" d="m303 435l4-1 3 12h-4l-3-1-3-1v-4zm275 23l2-2h4l-4 8h-2z"/>
		<path id="Path 99" class="s93" d="m460 384l4-3 2 2-2 3h-2zm-14 10l5-4h2l2 2-2 3-5 3h-1l-1-2zm89 12l7-1-2 3-9 3v-2zm19 12l12-4-4 5zm-128 9l8-7 7 4 1 1-3 5-5 2h-6zm102-1l10-3v7h-4l-6-2zm-155 15l2-5h3v2l-3 3zm133 10v-7h6l-1 7zm44 1l-2 6h-3v-6zm-447 99l9-7h1l3 3-4 4-9 3z"/>
		<path id="Path 100" class="s17" d="m206 430h4v4l-3 1z"/>
	</g>
</svg>