<svg version="1.2" xmlns="http://www.w3.org/2000/svg" viewBox="0 0 1000 1000" width="1000" height="1000">
	<title>Ambloplites_rupestris</title>
	<style>
		.s0 { opacity: .3;fill: #d3d3da } 
		.s1 { opacity: .1;fill: #f3f3f5 } 
		.s2 { opacity: .6;fill: #f3f3f5 } 
		.s3 { opacity: .4;fill: #aeaeba } 
		.s4 { opacity: .3;fill: #858796 } 
		.s5 { opacity: .3;fill: #f0f1f3 } 
		.s6 { opacity: .1;fill: #d9dae1 } 
		.s7 { opacity: 1;fill: #777b87 } 
		.s8 { opacity: .7;fill: #d3d4db } 
		.s9 { opacity: .9;fill: #b7b8c2 } 
		.s10 { opacity: .7;fill: #b9bac5 } 
		.s11 { opacity: .7;fill: #a3a4af } 
		.s12 { fill: #707166 } 
		.s13 { fill: #6e7382 } 
		.s14 { opacity: .5;fill: #c3c4cd } 
		.s15 { opacity: .5;fill: #8e909d } 
		.s16 { fill: #5f6157 } 
		.s17 { opacity: .2;fill: #c0c1cb } 
		.s18 { opacity: .5;fill: #dcdde3 } 
		.s19 { fill: #474b44 } 
		.s20 { fill: #484e54 } 
		.s21 { opacity: 1;fill: #98969d } 
		.s22 { fill: #797d93 } 
		.s23 { fill: #7c7c7e } 
		.s24 { fill: #585b51 } 
		.s25 { fill: #b0adb2 } 
		.s26 { opacity: .9;fill: #86899a } 
		.s27 { fill: #878999 } 
		.s28 { fill: #53585a } 
		.s29 { opacity: .1;fill: #a3a3af } 
		.s30 { fill: #68695d } 
		.s31 { fill: #4c5049 } 
		.s32 { fill: #52554c } 
		.s33 { fill: #686d70 } 
		.s34 { fill: #717373 } 
		.s35 { opacity: .7;fill: #848692 } 
		.s36 { fill: #858483 } 
		.s37 { fill: #42463e } 
		.s38 { fill: #3d4139 } 
		.s39 { fill: #373b35 } 
		.s40 { fill: #5a6068 } 
		.s41 { opacity: 1;fill: #a8a6ad } 
		.s42 { fill: #8d8b8e } 
		.s43 { fill: #404448 } 
		.s44 { opacity: 1;fill: #cccace } 
		.s45 { fill: #9e9a92 } 
		.s46 { fill: #626665 } 
		.s47 { fill: #323630 } 
		.s48 { fill: #2d312b } 
		.s49 { fill: #383b3f } 
		.s50 { fill: #2b323a } 
		.s51 { fill: #272b26 } 
		.s52 { fill: #111515 } 
		.s53 { fill: #797a75 } 
		.s54 { fill: #060b0c } 
		.s55 { fill: #0b1010 } 
		.s56 { fill: #868477 } 
		.s57 { fill: #252c35 } 
		.s58 { fill: #1c201d } 
		.s59 { fill: #222621 } 
		.s60 { fill: #020505 } 
		.s61 { fill: #1c232b } 
		.s62 { fill: #303848 } 
		.s63 { fill: #181e25 } 
		.s64 { fill: #4e5563 } 
		.s65 { fill: #3b424f } 
		.s66 { fill: #23292f } 
		.s67 { fill: #121823 } 
		.s68 { fill: #5e6474 } 
		.s69 { fill: #61677f } 
		.s70 { fill: #444b5d } 
		.s71 { fill: #6a6f8a } 
		.s72 { fill: #676d77 } 
		.s73 { fill: #161b19 } 
		.s74 { opacity: .6;fill: #686e7c } 
		.s75 { opacity: .7;fill: #5d6372 } 
		.s76 { fill: #afaaa2 } 
		.s77 { fill: #aaa598 } 
		.s78 { fill: #7c7a69 } 
		.s79 { fill: #a2a0a7 } 
		.s80 { fill: #918e88 } 
		.s81 { fill: #bfbaad } 
		.s82 { fill: #95917d } 
		.s83 { opacity: 1;fill: #d9d6d1 } 
		.s84 { fill: #c5c0bb } 
		.s85 { opacity: .8;fill: #eeeff1 } 
		.s86 { fill: #a29e87 } 
		.s87 { fill: #545a74 } 
		.s88 { opacity: 1;fill: #dfdddb } 
		.s89 { fill: #89866c } 
		.s90 { fill: #b7b2a7 } 
		.s91 { opacity: .1;fill: #797c87 } 
		.s92 { fill: #d1ccc1 } 
		.s93 { fill: #b7b4b9 } 
		.s94 { opacity: .3;fill: #434950 } 
		.s95 { opacity: 1;fill: #eae8e4 } 
		.s96 { opacity: 1;fill: #f8f8f1 } 
		.s97 { opacity: 1;fill: #bcbdc8 } 
	</style>
	<g id="Background">
		<path id="Path 0" class="s0" d="m102 540h1v1h-1z"/>
		<path id="Path 1" class="s0" d="m103 539h1v1h-1z"/>
		<path id="Path 2" class="s1" d="m474 339v-2h1v2z"/>
		<path id="Path 3" class="s2" d="m475 339v-2h3v1l-2 1z"/>
		<path id="Path 4" class="s3" d="m478 338v-1h2v1z"/>
		<path id="Path 5" class="s4" d="m480 338v-1h3v1z"/>
		<path id="Path 6" class="s5" d="m483 338v-1h3v5l-3 1h-1z"/>
		<path id="Path 7" class="s2" d="m546 339v-2h4v2z"/>
		<path id="Path 8" class="s1" d="m550 339v-2h1v2z"/>
		<path id="Path 9" class="s6" d="m900 449l-1-5 2 12h-1z"/>
		<path id="Path 10" class="s7" d="m476 339l2-1h2 3l-1 5-7 6h-1l-2-6z"/>
		<path id="Path 11" class="s8" d="m463 345l11-6h1 1l-4 4-4 2-5 1z"/>
		<path id="Path 12" class="s0" d="m538 342l5-3-2 2z"/>
		<path id="Path 13" class="s9" d="m541 341l2-2h3 4 1v9l-2 6-2 1v-4l3-7-9-2z"/>
		<path id="Path 14" class="s6" d="m506 342l8-2v2z"/>
		<path id="Path 15" class="s10" d="m506 342h8v3l-3 1v-3h-5z"/>
		<path id="Path 16" class="s10" d="m538 342l3-1v1l-7 4 1-2z"/>
		<path id="Path 17" class="s11" d="m486 349l12-7h8v1l-3 2-11 4-7 2z"/>
		<path id="Path 18" class="s0" d="m534 344l4-2-3 2z"/>
		<path id="Path 19" class="s12" d="m534 346l7-4 9 2-3 7v4l2-1h2v2l-7 1h-6v-8l-7-2z"/>
		<path id="Path 20" class="s12" d="m468 345l4-2 2 6v1l-2 1h-1z"/>
		<path id="Path 21" class="s6" d="m475 349l7-6h1l-8 7z"/>
		<path id="Path 22" class="s13" d="m503 345l3-2h5v3l-3 2h-2z"/>
		<path id="Path 23" class="s14" d="m521 349l13-5h1l-1 2-3 1-5 1z"/>
		<path id="Path 24" class="s8" d="m568 345l6-1v4l-6-1z"/>
		<path id="Path 25" class="s5" d="m424 347l8-2v2h-5z"/>
		<path id="Path 26" class="s9" d="m451 349l8-4 2 2v1l-2 1-7 1z"/>
		<path id="Path 27" class="s15" d="m461 347l-2-2h4v1z"/>
		<path id="Path 28" class="s16" d="m463 346l5-1 3 6-2 2h-2l-6-2v-3-1z"/>
		<path id="Path 29" class="s12" d="m492 349l11-4 3 3-1 3-2 3 2 1-9 3v-6z"/>
		<path id="Path 30" class="s17" d="m511 346l3-1-6 7 11-3-2 2-8 2-4-2 3-3z"/>
		<path id="Path 31" class="s14" d="m556 350l12-5v2l-8 4h-3-1z"/>
		<path id="Path 32" class="s18" d="m644 349l6-4 16 2v1l-11-1-9 2z"/>
		<path id="Path 33" class="s10" d="m427 347h5l-1 6-2 1 1-6h-3z"/>
		<path id="Path 34" class="s8" d="m413 357l11-10h3v1l-6 5-4 3-4 2z"/>
		<path id="Path 35" class="s19" d="m526 348l5-1 7 2v8 4l-2 6-2 2h-8l-2-8v-4l-4-2v-4z"/>
		<path id="Path 36" class="s20" d="m560 351l8-4 6 1v2l-5 3 1 7v7h-6v-13z"/>
		<path id="Path 37" class="s21" d="m646 349l9-2-2 7-7 1z"/>
		<path id="Path 38" class="s22" d="m653 354l2-7 11 1-4 9z"/>
		<path id="Path 39" class="s10" d="m666 348v-1l17 2v2z"/>
		<path id="Path 40" class="s23" d="m421 353l6-5h3l-1 6-4 3z"/>
		<path id="Path 41" class="s24" d="m459 349l2-1v3h-1z"/>
		<path id="Path 42" class="s25" d="m505 351l1-3h2z"/>
		<path id="Path 43" class="s26" d="m521 349l5-1-6 3h-3l2-2z"/>
		<path id="Path 44" class="s6" d="m549 354l2-6 2 4v1l-2 1z"/>
		<path id="Path 45" class="s27" d="m662 357l4-9 17 3 3 1v7 8l-7 4-10-4-1-5z"/>
		<path id="Path 46" class="s11" d="m447 350l4-1 1 1-11 5v-1l2-2z"/>
		<path id="Path 47" class="s28" d="m452 350l7-1 1 2-4 4v6l5 2 5-2 6 2 5 10-7 12h-2l-4-3-1-6-7-1-8-9v-3h-4l-4-6 1-2z"/>
		<path id="Path 48" class="s29" d="m474 349h1v1h-1z"/>
		<path id="Path 49" class="s6" d="m478 354l8-5-1 2-4 2z"/>
		<path id="Path 50" class="s30" d="m485 351l7-2 4 3v6l-4 6-8 1-3-12z"/>
		<path id="Path 51" class="s6" d="m631 354l11-5-7 4z"/>
		<path id="Path 52" class="s27" d="m635 353l7-4h2 2v6 6h-6v-4z"/>
		<path id="Path 53" class="s1" d="m683 351v-2l4 3h-1z"/>
		<path id="Path 54" class="s29" d="m472 351l2-1v4h3l-6 2-2-3z"/>
		<path id="Path 55" class="s6" d="m553 352l3-2v1z"/>
		<path id="Path 56" class="s22" d="m570 360l-1-7 5-3v1l-2 7h2v2z"/>
		<path id="Path 57" class="s0" d="m579 354l11-4 4 4h-1l-4-2-9 2z"/>
		<path id="Path 58" class="s12" d="m466 361l-5 2-5-2v-6l4-4h1l6 2-2 3 3 2z"/>
		<path id="Path 59" class="s18" d="m469 353l2-2h1z"/>
		<path id="Path 60" class="s25" d="m505 355l-2-1 2-3 4 2-1 2z"/>
		<path id="Path 61" class="s20" d="m509 353l8-2h3v4l-2 5 6 1 2 8v10h-9l-1 8-15 5-3-5 11-7v-5l3-10-4-3v-7z"/>
		<path id="Path 62" class="s10" d="m553 352l3-1h1l-4 2z"/>
		<path id="Path 63" class="s31" d="m553 353l4-2h3l4 3v13l-6 6h-4l-4-2v-8l1-7v-2z"/>
		<path id="Path 64" class="s18" d="m574 358h-2l2-7v4l5-1h1z"/>
		<path id="Path 65" class="s6" d="m439 354l4-2-2 2z"/>
		<path id="Path 66" class="s16" d="m580 354l9-2 4 2 2 4v5l-5 6-6 1-8-3-2-7v-2z"/>
		<path id="Path 67" class="s21" d="m686 359v-7h1l7 7z"/>
		<path id="Path 68" class="s1" d="m694 359l-7-7h4l8 10h-1z"/>
		<path id="Path 69" class="s32" d="m417 356l4-3 4 4-3 4z"/>
		<path id="Path 70" class="s1" d="m429 354l2-1-2 2z"/>
		<path id="Path 71" class="s18" d="m468 358l-3-2 2-3h2l2 3-2 2z"/>
		<path id="Path 72" class="s33" d="m478 354l3-1 3 12-5 4v4h-2l-5-10-3-5 2-2 6-2z"/>
		<path id="Path 73" class="s34" d="m631 354l4-1 5 4v4l-8 10-4-3v-5-7l2-2z"/>
		<path id="Path 74" class="s8" d="m425 357l4-3v1l1 4v1l-4 3-4-2z"/>
		<path id="Path 75" class="s35" d="m433 357l6-3h2v1l-1 2-10 3v-1h1z"/>
		<path id="Path 76" class="s8" d="m595 358l-2-4h1l3 3h8l-1 2h-2z"/>
		<path id="Path 77" class="s18" d="m606 357l24-3-2 2-4 1h-3z"/>
		<path id="Path 78" class="s36" d="m646 355l7-1 9 3 6 5 1 5v2l-7 2-10-3-6-7z"/>
		<path id="Path 79" class="s37" d="m496 358l9-3h3v7l4 3-3 10-6-6h-10l-1-5z"/>
		<path id="Path 80" class="s38" d="m524 361l-6-1 2-5 4 2z"/>
		<path id="Path 81" class="s31" d="m413 358l4-2 5 5 4 2 4-3 10-3 4 6v4l4-1 8 9-2 10h-11l-7-4-6 2-10 3-3-9 1-6-7-10z"/>
		<path id="Path 82" class="s39" d="m544 357l7-1-1 7-6-2z"/>
		<path id="Path 83" class="s40" d="m624 357l4-1v7h-6v-4z"/>
		<path id="Path 84" class="s11" d="m410 359l3-2v1l-2 3h-1z"/>
		<path id="Path 85" class="s24" d="m538 361v-4h6v4z"/>
		<path id="Path 86" class="s41" d="m604 359l1-2h1 15v1z"/>
		<path id="Path 87" class="s42" d="m621 358v-1h3l-2 2z"/>
		<path id="Path 88" class="s20" d="m466 361l2-3h1l3 5z"/>
		<path id="Path 89" class="s22" d="m595 363v-5l7 1-3 3z"/>
		<path id="Path 90" class="s32" d="m604 359l17-1 1 1v4 5 13l-9 8h-3v-7l-10-8-1-12 3-3z"/>
		<path id="Path 91" class="s18" d="m403 364l7-5v2l-6 3z"/>
		<path id="Path 92" class="s22" d="m686 367v-8h8l4 3 1 2 1 2 8 13 6 13v3 2l-5-1v-7l-12-12h-7z"/>
		<path id="Path 93" class="s37" d="m570 367v-7h4l2 7-3 2z"/>
		<path id="Path 94" class="s16" d="m404 364l6-3h1l7 10-1 6-7 2v-6l-7-2-2-3v-2z"/>
		<path id="Path 95" class="s43" d="m536 367l2-6h6l6 2v8z"/>
		<path id="Path 96" class="s33" d="m632 371l8-10h6l6 7 10 3 2 16v6h-5l-6-4h-9l-8-2v-8l-4-4z"/>
		<path id="Path 97" class="s1" d="m396 364l6-1-5 1z"/>
		<path id="Path 98" class="s37" d="m595 363l4-1 1 12 10 8v7 6 2h-10l-8-2v-4l-4-2-1-9 3-3v-8z"/>
		<path id="Path 99" class="s6" d="m699 364l-1-2h1z"/>
		<path id="Path 100" class="s44" d="m397 364l5-1 1 1h1l-3 2z"/>
		<path id="Path 101" class="s45" d="m448 366l-4 1v-4h4z"/>
		<path id="Path 102" class="s36" d="m622 368v-5h6v5z"/>
		<path id="Path 103" class="s5" d="m388 368l7-4-5 4z"/>
		<path id="Path 104" class="s34" d="m390 368l5-4h1 1l4 2v2l-6 3h-7z"/>
		<path id="Path 105" class="s31" d="m484 365l8-1 1 5-3 6h-4l-7-2v-4z"/>
		<path id="Path 106" class="s6" d="m700 366l-1-2 3 2z"/>
		<path id="Path 107" class="s18" d="m708 379l-8-13h2l7 13z"/>
		<path id="Path 108" class="s39" d="m534 369l2-2 14 4 4 2 2 14-6 1 3 5-3 4h-5l-2-6h-7l-4-12z"/>
		<path id="Path 109" class="s23" d="m558 373l6-6h6l3 2-2 5-3 2h-4z"/>
		<path id="Path 110" class="s20" d="m573 369l3-2 8 3v9h-5l-2 5h-4l-1-4-1-6z"/>
		<path id="Path 111" class="s46" d="m669 369v-2l10 4-1 8-6-2z"/>
		<path id="Path 112" class="s7" d="m679 371l7-4 4 10-5 6-5-2-2-2z"/>
		<path id="Path 113" class="s18" d="m382 371l6-3h2l-2 3-3 3-5-2-7 2 2-3z"/>
		<path id="Path 114" class="s37" d="m395 371l6-3 2 3-3 6h-4z"/>
		<path id="Path 115" class="s24" d="m622 381v-13h6l4 3v4l-2 17 4 3v6h-8l-4-6 2-3z"/>
		<path id="Path 116" class="s47" d="m486 375h4l3-6h10l6 6v5l-11 7-8-2-4-4z"/>
		<path id="Path 117" class="s31" d="m526 379v-10h8l-2 10z"/>
		<path id="Path 118" class="s48" d="m584 370l6-1v8l-3 3-3-1z"/>
		<path id="Path 119" class="s28" d="m662 371l7-2 3 8 6 2 2 2 4 14h-8l-3-5-9-3z"/>
		<path id="Path 120" class="s28" d="m385 374l3-3h7l1 6-3 7-3 1h-2l-3-8z"/>
		<path id="Path 121" class="s39" d="m400 377l3-6 7 2v6 8l-10-2z"/>
		<path id="Path 122" class="s23" d="m373 374l7-2 5 2v3l-11 1h-3v-1z"/>
		<path id="Path 123" class="s38" d="m470 385l7-12h2l7 2v6l4 4v4l-3 1h-6l-5-5z"/>
		<path id="Path 124" class="s20" d="m556 387l-2-14h4l6 3v13l-3 4h-5z"/>
		<path id="Path 125" class="s6" d="m369 377l4-3-2 3z"/>
		<path id="Path 126" class="s39" d="m568 376l3-2 1 6h-3z"/>
		<path id="Path 127" class="s49" d="m454 385l2-10 7 1 1 6 4 3v2z"/>
		<path id="Path 128" class="s19" d="m634 395l-4-3 2-17 4 4v8l8 2 1 6z"/>
		<path id="Path 129" class="s50" d="m564 389v-13h4l1 4h3l1 4-5 2v3z"/>
		<path id="Path 130" class="s3" d="m357 389l12-12h2v1l-3 3-8 8-3 2z"/>
		<path id="Path 131" class="s20" d="m374 378l11-1 3 8-7 5-5-3-2-5z"/>
		<path id="Path 132" class="s51" d="m393 384l3-7h4v8z"/>
		<path id="Path 133" class="s49" d="m410 379l7-2 3 9v1h-10z"/>
		<path id="Path 134" class="s13" d="m685 383l5-6h7l12 12v7l5 1v7 4l-2 7v1l-4 6-8-6v-5l-6-5-2-13z"/>
		<path id="Path 135" class="s16" d="m368 381l3-3h3v4l-3 2z"/>
		<path id="Path 136" class="s37" d="m516 387l1-8h9 6l4 12-4 2-5-1-3-5z"/>
		<path id="Path 137" class="s46" d="m577 384l2-5h5l3 1 1 9-6 1z"/>
		<path id="Path 138" class="s8" d="m714 392l-6-13h1l5 6z"/>
		<path id="Path 139" class="s46" d="m360 389l8-8 3 3-1 3-7 2z"/>
		<path id="Path 140" class="s52" d="m430 383l6-2 7 4-1 6h-6z"/>
		<path id="Path 141" class="s53" d="m613 389l9-8 2 11-2 3h-4-2z"/>
		<path id="Path 142" class="s40" d="m684 395l-4-14 5 2 7 10 2 13 6 5v5l8 6-6 12h-8v-6l-8-5v-4l2-2-2-12z"/>
		<path id="Path 143" class="s48" d="m371 384l3-2 2 5h-6z"/>
		<path id="Path 144" class="s54" d="m420 386l10-3 6 8-2 4h-14v-8z"/>
		<path id="Path 145" class="s54" d="m390 385l3-1 7 1 10 2 1 8-13 2-8-6z"/>
		<path id="Path 146" class="s48" d="m568 389v-3l5-2h4l5 6v7l-4 1-8-1z"/>
		<path id="Path 147" class="s52" d="m376 387l5 3 7-5h2v6l8 6 13-2h9 14l2 4h4l1 13 5 6v3h-18l-8-6h-18-7l-1 4h-6v-6l-6-5v-9l-12-2-7-4v-4l7-2z"/>
		<path id="Path 148" class="s54" d="m442 391l1-6h11l14 2 3 6h9l2 4 6-2 5-1 5 2v11l8 10v4h-18l-4-4h-13l-5 2v4h-14l-1-5h-5l-5-6-1-13z"/>
		<path id="Path 149" class="s55" d="m468 387v-2h2 6l5 5-1 3h-9z"/>
		<path id="Path 150" class="s51" d="m490 389v-4l8 2 3 5v4h-3l-5-2v-4z"/>
		<path id="Path 151" class="s55" d="m411 395l-1-8h10v8z"/>
		<path id="Path 152" class="s52" d="m501 392l15-5h8l3 5-5 5v6l-21-7z"/>
		<path id="Path 153" class="s46" d="m553 393l-3-5 6-1v6z"/>
		<path id="Path 154" class="s56" d="m664 393v-6l9 3 3 5v4l-10-2z"/>
		<path id="Path 155" class="s0" d="m351 392l6-3v2l-3 1z"/>
		<path id="Path 156" class="s57" d="m357 391l3-2h3v4l-5 4-12 2v-4l8-3z"/>
		<path id="Path 157" class="s55" d="m487 390l3-1 3 1v4l-5 1z"/>
		<path id="Path 158" class="s58" d="m556 393h5l3-4h4l2 8 8 1v5l4 2 2 6v4h-11l-3-4h-6l-12-4-2-10 3-4z"/>
		<path id="Path 159" class="s59" d="m582 390l6-1 4 2v4l-4 2h-6z"/>
		<path id="Path 160" class="s19" d="m610 395v-6h3l3 6z"/>
		<path id="Path 161" class="s37" d="m645 395l-1-6h9l6 4 1 12-4 1v9l-4 4h-4l-2-14 3-5z"/>
		<path id="Path 162" class="s60" d="m480 393l1-3h6l1 5-6 2z"/>
		<path id="Path 163" class="s55" d="m434 395l2-4h6l-2 8h-4z"/>
		<path id="Path 164" class="s50" d="m532 393l4-2h7l2 6-1 6-10 2z"/>
		<path id="Path 165" class="s14" d="m344 394l2-2h5 3l-8 3-8 1-5 1h-7z"/>
		<path id="Path 166" class="s55" d="m522 403v-6l5-5 5 1 2 12-2 3z"/>
		<path id="Path 167" class="s61" d="m346 399l12-2 5-4 7 4v20l-8 2h-23l-5-8h-4v-8l8-2z"/>
		<path id="Path 168" class="s20" d="m660 405l-1-12h5l2 4 10 2 4 6-2 8-4 2-8-2v-6z"/>
		<path id="Path 169" class="s62" d="m338 396l8-1v4l-8 2z"/>
		<path id="Path 170" class="s51" d="m588 397l4-2 8 2 2 10v6l-14-4z"/>
		<path id="Path 171" class="s51" d="m610 397v-2h6 2v8h-5z"/>
		<path id="Path 172" class="s48" d="m618 403v-8h4l4 6h8l4 3v5l-10 2-5-7z"/>
		<path id="Path 173" class="s34" d="m634 401v-6h11l4 5-3 5-8-1z"/>
		<path id="Path 174" class="s23" d="m676 399v-4h8l2 10h-6z"/>
		<path id="Path 175" class="s2" d="m714 397v-2l2 8-2 1z"/>
		<path id="Path 176" class="s50" d="m333 397l5-1v5l-8 2v-5z"/>
		<path id="Path 177" class="s60" d="m506 417l-8-10v-11h3l21 7 10 5v11 4h-17l-4-6z"/>
		<path id="Path 178" class="s9" d="m318 399l8-2h7l-3 1-23 7v-1l1-1 3-1z"/>
		<path id="Path 179" class="s63" d="m370 417v-20l12 2v9l6 5v6l-2 2z"/>
		<path id="Path 180" class="s55" d="m544 403l1-6h5l2 10h-6z"/>
		<path id="Path 181" class="s37" d="m578 398l4-1h6v12l-4 2-2-6-4-2z"/>
		<path id="Path 182" class="s39" d="m602 407l-2-10h10l3 6-1 4z"/>
		<path id="Path 183" class="s62" d="m307 405l23-7v5 8l-5 1-8-3-12 2 1-5z"/>
		<path id="Path 184" class="s54" d="m534 405l10-2 2 4h6l12 4v6l14 18v4l-25-4-4-2-2-8-6-6h-9v-11z"/>
		<path id="Path 185" class="s24" d="m612 407l1-4h5l5 1 5 7v3h-4l-4-1z"/>
		<path id="Path 186" class="s0" d="m294 409l13-5v1l-1 1-8 2z"/>
		<path id="Path 187" class="s9" d="m306 405h1v1h-1z"/>
		<path id="Path 188" class="s49" d="m638 409v-5l8 1 2 14-2 8h-6z"/>
		<path id="Path 189" class="s53" d="m652 419l4-4v-9l4-1 6 2v6l-4 8z"/>
		<path id="Path 190" class="s36" d="m674 415l4-2 2-8h6l2 12-2 2h-12z"/>
		<path id="Path 191" class="s64" d="m298 408l8-2-1 5-5 2-5-2z"/>
		<path id="Path 192" class="s47" d="m602 413v-6h10l8 6-2 2z"/>
		<path id="Path 193" class="s8" d="m294 409l4-1-3 3h-3v-2z"/>
		<path id="Path 194" class="s14" d="m258 427l8-7 26-11v2l-4 3-6 2-22 11z"/>
		<path id="Path 195" class="s57" d="m305 411l12-2 8 3 2 9-5 6h-12v-7l-10-3v-4z"/>
		<path id="Path 196" class="s55" d="m584 411l4-2 14 4 16 2v4l-2 6-6-2-10 2h-8v-4l-8-6z"/>
		<path id="Path 197" class="s46" d="m628 411l10-2 2 18h-3l-8-9-1-4z"/>
		<path id="Path 198" class="s65" d="m288 414l4-3h3l5 2v4l-8 1z"/>
		<path id="Path 199" class="s58" d="m325 412l5-1h4l5 8-12 2z"/>
		<path id="Path 200" class="s60" d="m578 435l-14-18v-6h6l3 4h11l8 6v4 10z"/>
		<path id="Path 201" class="s52" d="m618 415l2-2 4 1v4l-6 1z"/>
		<path id="Path 202" class="s19" d="m662 421l4-8 8 2v4 4l-4 2h-8z"/>
		<path id="Path 203" class="s62" d="m282 416l6-2 4 4v9h-8z"/>
		<path id="Path 204" class="s58" d="m624 418v-4h4l1 4z"/>
		<path id="Path 205" class="s63" d="m394 419l1-4h7v8h-6z"/>
		<path id="Path 206" class="s66" d="m402 423v-8h18l8 6-3 13-3 1-4-6h-8-8z"/>
		<path id="Path 207" class="s65" d="m260 427l22-11 2 11 2 10h6l2-6h8l1 12 3 31 8 5 2 6v9 2h-5l-1-4-6-1-3-6h-5v-9l-5-3-5 2h-6l-10 2-2-11 18-1 1-10-10-6h-8l-10 12h-3l-4-7v-10l-7-6 3-4z"/>
		<path id="Path 208" class="s0" d="m708 422l4-6-3 11-7 8v-1z"/>
		<path id="Path 209" class="s61" d="m292 418l8-1 10 3v7l-2 2-6 2h-8l-2-4z"/>
		<path id="Path 210" class="s62" d="m362 419l8-2 16 4v9l4 5 12-6h8l2 34v6h-12v-10l-2-12-12 2-13 3-5-2v-12l-6-5z"/>
		<path id="Path 211" class="s67" d="m466 423v-4l5-2h13l4 4h18l2 6-2 6h-6-6l-2-4h-20l-5-2z"/>
		<path id="Path 212" class="s52" d="m506 421v-4h5l4 6-1 4h-6z"/>
		<path id="Path 213" class="s67" d="m446 421v-3h5l1 5z"/>
		<path id="Path 214" class="s51" d="m618 419l6-1h5l8 9 2 6 6 2 3 12v1h-4l-7 7-3-3v-7l-18-20z"/>
		<path id="Path 215" class="s65" d="m327 421l12-2h23v14l6 5v12l5 2-3 3v8h-15l-2 4h-12l-4-1-6-21-9-6v-12z"/>
		<path id="Path 216" class="s57" d="m386 421l2-2h6l2 4h6v6l-12 6-4-5z"/>
		<path id="Path 217" class="s55" d="m532 423v-4h9l6 6 2 8-2 3-11-5z"/>
		<path id="Path 218" class="s47" d="m646 427l2-8h4l10 2v4l-5 2v3l-2 1h-7z"/>
		<path id="Path 219" class="s28" d="m670 425l4-2v-4h12v4l-4 1v7h-7-5z"/>
		<path id="Path 220" class="s8" d="m851 420l11-1v2h-6-5z"/>
		<path id="Path 221" class="s11" d="m862 421v-2h7v2h-3z"/>
		<path id="Path 222" class="s8" d="m869 421v-2h4v2z"/>
		<path id="Path 223" class="s0" d="m873 421v-2l11 5 13 16-3-2-11-12z"/>
		<path id="Path 224" class="s6" d="m843 422l8-2v1h-1z"/>
		<path id="Path 225" class="s57" d="m422 435l3-1 3-13h18l6 2h14l1 4 5 2h20l2 4v6 10l-2 2h-14l-2 8-6 6h-4l-1-6-8-8h-4l1 16h-2-12l-2-6-16-17z"/>
		<path id="Path 226" class="s11" d="m843 422l7-1-2 2-10 3-16 5v-2l16-6 4-1z"/>
		<path id="Path 227" class="s40" d="m848 423l2-2h1 5l2 8h8l11 34-6 4-9-17-10-3-4-15z"/>
		<path id="Path 228" class="s68" d="m866 429h-8l-2-8h6 4z"/>
		<path id="Path 229" class="s69" d="m866 429v-8h3 4l10 5 11 12-2 9 8 2v7l-3 11v1l-2 6-1 6v5 3l-2 1h-2l-2-6h-6v-6-12l-5-2z"/>
		<path id="Path 230" class="s67" d="m514 427l1-4h17l4 8 11 5 4 2 2-3 25 4 1 6 5 3 22 3v4l7 7h5l8 9v8l-6 6-9-1-4-7-10-1v-8l-11-10-26-3-8-6-9 2-1 12-11 2-1 8h-9l-6-13-9-1-3-9-9-1v-10h6 6l8-4z"/>
		<path id="Path 231" class="s60" d="m600 425l10-2 6 2 18 20v7l3 3 2 6 12 2h3l5 2 3 1h2 1l2 1 10 2h5 2l10 2 9-1h5v10l9 7h4l7-8h12 6 12l2-4h4v10l4 5 2 7h8l6 27 2 8 1 8-3 19-7 2-4-8h-11-7l-2-10-4-4h-5v-9l9-2 1-9-4-6-15 2-1 21 4 3-3 9-13 5-6 1v5h-9l-6-2-5 4-3-4h-5l-4-5h-6l-7-8v-8l1-9 1-6 3-1 8 5 10-2v-5l-18-3-6-2-14-4-10-2-10-1-3-7h-7l-6-6v-8l6-6h6l7-1v-6l-7-1h-6l-8-9h-5l-7-7v-4-9l-6-3z"/>
		<path id="Path 232" class="s55" d="m651 481l7 2v8l-3 2-7-2z"/>
		<path id="Path 233" class="s23" d="m682 431v-7l4-1 8 5v6l-5 2z"/>
		<path id="Path 234" class="s64" d="m838 426l10-3v9l-5 2-5-4z"/>
		<path id="Path 235" class="s54" d="m592 435v-10h8v14z"/>
		<path id="Path 236" class="s12" d="m657 430v-3l5-2h8v6l-3 2z"/>
		<path id="Path 237" class="s20" d="m822 431l16-5v4l5 4v13l-1 13-6 1-7-11-6 4-11-4-2-13 3-3 4-2h1z"/>
		<path id="Path 238" class="s10" d="m248 434l6-7h4 2z"/>
		<path id="Path 239" class="s50" d="m294 431l-2 6h-6l-2-10h8z"/>
		<path id="Path 240" class="s20" d="m308 429l2-2h12v12l9 6 6 21 1 5 1 10-1 8h-2l-9-6h-6l-7-4-8-5-3-31 8-1 1-8z"/>
		<path id="Path 241" class="s63" d="m506 433l2-6h6v8l-8 4z"/>
		<path id="Path 242" class="s16" d="m645 435l-6-2-2-6h3 6l2 4z"/>
		<path id="Path 243" class="s70" d="m302 431l6-2 4 5-1 8-8 1z"/>
		<path id="Path 244" class="s50" d="m412 463l-2-34h8l4 6v9l16 17 2 6v4h-12l-4-7z"/>
		<path id="Path 245" class="s17" d="m818 432l4-3v2z"/>
		<path id="Path 246" class="s46" d="m655 431l2-1 10 3 1 5h5l3 7 1 8h9v1l-2 2-4 2-15 2h-1-1l-3-1-2-16-3-1z"/>
		<path id="Path 247" class="s66" d="m645 435l3-4h7v11l-3 5h-4z"/>
		<path id="Path 248" class="s39" d="m667 433l3-2h5l-2 7h-5z"/>
		<path id="Path 249" class="s43" d="m673 438l2-7h7l7 5v6l-1 3h-12z"/>
		<path id="Path 250" class="s33" d="m843 434l5-2 4 15v2h-4l-5-2z"/>
		<path id="Path 251" class="s61" d="m494 439v-6h6v6z"/>
		<path id="Path 252" class="s57" d="m500 439v-6h6v6z"/>
		<path id="Path 253" class="s63" d="m547 436l2-3 4 2-2 3z"/>
		<path id="Path 254" class="s11" d="m242 437l6-3-3 4h-3z"/>
		<path id="Path 255" class="s13" d="m689 436l5-2h8v1 1l-3 4-5 8h-1v-4l-4-2z"/>
		<path id="Path 256" class="s11" d="m798 439l15-5-3 3-8 3-5 1z"/>
		<path id="Path 257" class="s55" d="m578 439v-4h14l8 4 6 3v9l-22-3-5-3z"/>
		<path id="Path 258" class="s14" d="m237 439l5-2v1l-2 3h-3z"/>
		<path id="Path 259" class="s19" d="m802 440l8-3 2 13h-6z"/>
		<path id="Path 260" class="s62" d="m240 441l2-3h3l7 6v10l-9 1-3-2z"/>
		<path id="Path 261" class="s71" d="m900 449l-8-2 2-9 3 2 2 4z"/>
		<path id="Path 262" class="s0" d="m226 447l11-8v2l-7 5z"/>
		<path id="Path 263" class="s0" d="m786 444l12-5-1 2-7 3z"/>
		<path id="Path 264" class="s1" d="m694 448l5-8-5 9z"/>
		<path id="Path 265" class="s32" d="m797 441l5-1 4 10v7h-7l-2-8-7-4v-1z"/>
		<path id="Path 266" class="s65" d="m230 446l7-5h3v12l3 2v4h-13l-5-3v-5z"/>
		<path id="Path 267" class="s48" d="m648 447h4l3-5 3 1 2 16h-8l-4-3v-8z"/>
		<path id="Path 268" class="s72" d="m688 445l1-3 4 2v4l-1 2-6 4v-1z"/>
		<path id="Path 269" class="s0" d="m774 447l11-3-8 3z"/>
		<path id="Path 270" class="s28" d="m777 447l8-3h1 4v1l-4 6-10-2z"/>
		<path id="Path 271" class="s20" d="m686 453h-9l-1-8h12z"/>
		<path id="Path 272" class="s48" d="m776 449l10 2 4-6 7 4 2 8h7l1 11 1 9v8h-8l-4-11-8-3-9-14h-7v-3l3-5z"/>
		<path id="Path 273" class="s10" d="m226 447l4-1-5 5-5 3h-2l6-5z"/>
		<path id="Path 274" class="s65" d="m386 449l12-2 2 12h-4l-5-2z"/>
		<path id="Path 275" class="s35" d="m765 449l9-2h3l-1 2h-1l-7 2h-3-1z"/>
		<path id="Path 276" class="s30" d="m842 460l1-13 5 2v4l4 1-3 10z"/>
		<path id="Path 277" class="s28" d="m852 449v-2l10 3 9 17-1 10v8l-11-2-5-6v-6l-4-1-1 9 7 4-2 16h-1l-13-4v-8l-4-2v-5l-8-6v-9l8-4 6-1 7 4 3-10z"/>
		<path id="Path 278" class="s43" d="m637 455l7-7h4v8l4 3-1 4-12-2z"/>
		<path id="Path 279" class="s17" d="m692 450l1-2h1v1z"/>
		<path id="Path 280" class="s20" d="m259 461l10-12h8l10 6-1 10-18 1 2 11-1 6-4 3h-3l-2-9z"/>
		<path id="Path 281" class="s43" d="m373 452l13-3 5 8 2 6 1 8 2 9h-2l-7 2-6 1-1-5h-6l-4-3v-12-8z"/>
		<path id="Path 282" class="s61" d="m492 451l2-2 9 1 3 9-12 2z"/>
		<path id="Path 283" class="s52" d="m542 463l1-12 9-2 8 6 2 8 10 2 1 9 14 1 5 4v14h-6l-11-2v11l-5 2v3h-4l-6-10v-8l2-17-3-3h-9z"/>
		<path id="Path 284" class="s6" d="m756 452l9-3-1 2-7 1z"/>
		<path id="Path 285" class="s20" d="m768 451l7-2-3 5z"/>
		<path id="Path 286" class="s31" d="m852 454l-4-1v-4h4z"/>
		<path id="Path 287" class="s17" d="m686 454l6-4-8 7v-1z"/>
		<path id="Path 288" class="s37" d="m806 457v-7h6l11 4 1 9-4 1-2 7-11-3z"/>
		<path id="Path 289" class="s16" d="m823 454l6-4 7 11-8 4-4-2z"/>
		<path id="Path 290" class="s64" d="m220 454l5-3v5l-5 1z"/>
		<path id="Path 291" class="s61" d="m454 467l-1-16h4l8 8 1 6v2z"/>
		<path id="Path 292" class="s63" d="m476 459l2-8h14l2 10v4l-4 2h-10v-5z"/>
		<path id="Path 293" class="s64" d="m757 452l7-1h1l-4 5-5 2v3h-12l-3-1 2-3 8-3z"/>
		<path id="Path 294" class="s57" d="m761 456l4-5h3l4 3v3l-1 4z"/>
		<path id="Path 295" class="s17" d="m751 454l5-2h1z"/>
		<path id="Path 296" class="s10" d="m213 457l1-3h4l-5 4z"/>
		<path id="Path 297" class="s70" d="m213 458l5-4h2v3l-1 12-3 8-5 4-14-2-1 8h-10l-3-1 1-6 9-8 9-7 1-1z"/>
		<path id="Path 298" class="s40" d="m243 455l9-1 4 7h3l1 16h-6l-2-11-8-3-1-4z"/>
		<path id="Path 299" class="s18" d="m741 457l10-3-8 3z"/>
		<path id="Path 300" class="s54" d="m592 479l-5-4-14-1-1-9-10-2-2-8 26 3 11 10v8z"/>
		<path id="Path 301" class="s50" d="m220 457l5-1 5 3v5l-6 5h-5z"/>
		<path id="Path 302" class="s0" d="m680 458l4-2v1l-4 2z"/>
		<path id="Path 303" class="s73" d="m756 461v-3l5-2 10 5 1 12-8 2h-4v-8z"/>
		<path id="Path 304" class="s0" d="m897 467l3-11h1v7z"/>
		<path id="Path 305" class="s0" d="m203 464l6-7h4v1z"/>
		<path id="Path 306" class="s57" d="m393 463l-2-6 5 2z"/>
		<path id="Path 307" class="s35" d="m733 459l8-2h2l-2 3-13 4-7 1v-1l4-2h1z"/>
		<path id="Path 308" class="s52" d="m771 461l1-4h7l9 14-2 10h-7v-4l-7-4z"/>
		<path id="Path 309" class="s4" d="m665 460l15-2v1z"/>
		<path id="Path 310" class="s28" d="m224 469l6-5v-5h13l1 4 8 3 2 11-4 3v7h-6v-10-6l-4 1v5l-10 1-6-1z"/>
		<path id="Path 311" class="s48" d="m393 463l3-4h4v10 2h-6z"/>
		<path id="Path 312" class="s55" d="m466 465h4l6-6 4 3v5 9l10 3h2v14l-6 1-5-5h-5v-9l-10-7v-6z"/>
		<path id="Path 313" class="s55" d="m494 461l12-2 9 1 6 13v5l-5 7h-8v-16l-14-4z"/>
		<path id="Path 314" class="s41" d="m651 463l1-4h8l3 1-2 1h-2l-5 2z"/>
		<path id="Path 315" class="s17" d="m661 461l2-1h1l-3 2z"/>
		<path id="Path 316" class="s61" d="m728 464l13-4 3 1v12l-4 1-12-1v-2z"/>
		<path id="Path 317" class="s17" d="m654 463l5-2v1 2z"/>
		<path id="Path 318" class="s4" d="m659 462v-1h2v1z"/>
		<path id="Path 319" class="s55" d="m744 473v-12h12l4 6v8l-2 4h-12z"/>
		<path id="Path 320" class="s49" d="m353 467l2-4h15v12l4 3 2 9v2l-12-4v-6l-11-7z"/>
		<path id="Path 321" class="s38" d="m412 469v-6l12 1 4 7 1 13-10 1-7-7z"/>
		<path id="Path 322" class="s73" d="m530 473l1-8 11-2 8 6h9l3 3-2 17h-12l-2-6-9-2-3-6h-4z"/>
		<path id="Path 323" class="s41" d="m659 465l-5-2 5 1z"/>
		<path id="Path 324" class="s32" d="m818 471l2-7 4-1 4 2v9l8 6v5l-8 2-10-2v-8z"/>
		<path id="Path 325" class="s7" d="m871 467l6-4 5 2v12h-12z"/>
		<path id="Path 326" class="s0" d="m198 466l5-2-1 1z"/>
		<path id="Path 327" class="s4" d="m659 465v-1h3v2z"/>
		<path id="Path 328" class="s17" d="m662 466v-2l2 2z"/>
		<path id="Path 329" class="s3" d="m709 467l12-3v1l-4 1z"/>
		<path id="Path 330" class="s57" d="m721 465l7-1v7l-12-3 1-2z"/>
		<path id="Path 331" class="s18" d="m198 466l4-1-9 7h-2z"/>
		<path id="Path 332" class="s54" d="m490 467l4-2 14 4v16l-3 4-5-10h-8-2z"/>
		<path id="Path 333" class="s4" d="m665 466l7 1h-5z"/>
		<path id="Path 334" class="s19" d="m338 471l-1-5 4 1z"/>
		<path id="Path 335" class="s35" d="m709 467l8-1-1 2-8 2h-5v-1z"/>
		<path id="Path 336" class="s39" d="m338 471l3-4h12v5l11 7v6l-2 4 8 8v8 1l-5 1-4-3-4 10h-6l-5-3-3-4h-5l-2-9v-9h2l8 2 2 2v4l-1 5 6 1-1-6v-4l5-4v-6h-9l-9-2z"/>
		<path id="Path 337" class="s51" d="m440 471v-4h12l2 22h-6l-8-5z"/>
		<path id="Path 338" class="s73" d="m454 489l-2-22h2 12v6l10 7v9l-1 3-5 1v4h-4v-5h-7z"/>
		<path id="Path 339" class="s73" d="m490 479l-10-3v-9h10z"/>
		<path id="Path 340" class="s74" d="m677 469l-10-2h5 5z"/>
		<path id="Path 341" class="s14" d="m677 469v-2l5 2z"/>
		<path id="Path 342" class="s54" d="m708 470l8-2 12 3v2 6l-7 8h-4l-9-7z"/>
		<path id="Path 343" class="s19" d="m808 477l-1-9 11 3v6z"/>
		<path id="Path 344" class="s0" d="m895 474l2-6-1 6z"/>
		<path id="Path 345" class="s20" d="m216 477l3-8h5v8z"/>
		<path id="Path 346" class="s49" d="m400 471v-2h12v9l-1 1h-5z"/>
		<path id="Path 347" class="s35" d="m694 471l-10-2h10z"/>
		<path id="Path 348" class="s75" d="m694 471v-2h9v1z"/>
		<path id="Path 349" class="s20" d="m854 499l2-16-7-4 1-9 4 1v6l5 6 11 2 6 3v15l1 3v1l-15-1-3-7z"/>
		<path id="Path 350" class="s40" d="m240 477v-5l4-1v6z"/>
		<path id="Path 351" class="s47" d="m396 480l-2-9h6l6 8h5l3 8-6 2-5-7z"/>
		<path id="Path 352" class="s39" d="m412 478l7 7 10-1-1-13h12v13l8 5 1 8-7 1v9l-12 11-8 1-1-2-5 2h-11l-1-1-2-8 6-5-2-10 2-6 6-2-3-8z"/>
		<path id="Path 353" class="s55" d="m626 479v-8h6v8z"/>
		<path id="Path 354" class="s67" d="m632 479v-8l7 1v6z"/>
		<path id="Path 355" class="s58" d="m786 481l2-10 8 3 4 11v12 10l-3 4-9-2v-8l-4-4 1-10z"/>
		<path id="Path 356" class="s8" d="m188 473l3-1h2l-9 8h-2l1-3z"/>
		<path id="Path 357" class="s40" d="m286 475l5-2 5 3v9h-11l-1-4z"/>
		<path id="Path 358" class="s52" d="m521 478v-5h9v2 4z"/>
		<path id="Path 359" class="s55" d="m728 479v-6l12 1v5z"/>
		<path id="Path 360" class="s51" d="m740 474l4-1 2 6h-6z"/>
		<path id="Path 361" class="s54" d="m764 475l8-2 7 4v4l-1 6v10h-8l-2-7v-4l-4-1z"/>
		<path id="Path 362" class="s18" d="m894 480l1-6h1v5z"/>
		<path id="Path 363" class="s76" d="m270 477l10-2v6l-3 4h-5l-3-2z"/>
		<path id="Path 364" class="s77" d="m280 481v-6h6l-2 6z"/>
		<path id="Path 365" class="s58" d="m530 479v-4h4l3 6h-3z"/>
		<path id="Path 366" class="s55" d="m592 479l5-3 10 1 4 7 9 1v8l6 6v8l9 2 3 10-6 2-8 1-14 2v12l-1 3h-3l-6-5v-6-1l6-1-3-6-3-13v-5l-5-1v-6l-3-2z"/>
		<path id="Path 367" class="s2" d="m176 482l7-5-1 3-5 3z"/>
		<path id="Path 368" class="s64" d="m211 481l5-4h8l6 1v6l4 3v6h-15l-3-3v-5z"/>
		<path id="Path 369" class="s33" d="m230 478l10-1h4v10h-10l-4-3z"/>
		<path id="Path 370" class="s70" d="m250 487v-7l4-3h6l2 9-6 6z"/>
		<path id="Path 371" class="s47" d="m808 485v-8h10v8 10l9 2v5l11 8v15l-4 4h-3l-7-9h-4v-18l-10-3-1-3z"/>
		<path id="Path 372" class="s68" d="m870 485v-8h12v6l-6 5z"/>
		<path id="Path 373" class="s73" d="m376 487l-2-9h6l1 5v4z"/>
		<path id="Path 374" class="s47" d="m516 485l5-7 9 1 4 2v6l-10 3-8 1z"/>
		<path id="Path 375" class="s62" d="m196 487l1-8 14 2 5 4v5l-2 7-4 2z"/>
		<path id="Path 376" class="s57" d="m316 485l-2-6 7 4v2z"/>
		<path id="Path 377" class="s51" d="m492 493v-14h8l5 10 1 4 10-2 8-1 8 8v3l-2 12 6 4-2 10 2 2v6h-2-8v-5l-6-4v-11l-8 1-8-3-2-4-2-6 1-8z"/>
		<path id="Path 378" class="s5" d="m894 480l2-1-2 6z"/>
		<path id="Path 379" class="s69" d="m177 483l5-3h2l-1 6 3 1-1 6-6 2h-8-1l1-6z"/>
		<path id="Path 380" class="s52" d="m387 482l7-2v3z"/>
		<path id="Path 381" class="s32" d="m394 483v-3h2l7 2 5 7-2 6h-5z"/>
		<path id="Path 382" class="s23" d="m277 485l3-4h4l1 4-4 8-3 1z"/>
		<path id="Path 383" class="s16" d="m338 489l1-8 9 2-2 8z"/>
		<path id="Path 384" class="s48" d="m534 487v-6h3l9 2 2 6 3 8h9l6 10v1l-10 1-9-3-7-9-1-8z"/>
		<path id="Path 385" class="s47" d="m778 487l1-6h7l-1 6z"/>
		<path id="Path 386" class="s18" d="m172 485l4-3 1 1-6 6h-2z"/>
		<path id="Path 387" class="s78" d="m348 483h9v6l-5 4h-4l-2-2z"/>
		<path id="Path 388" class="s48" d="m381 483l6-1 7 1 7 12h5l2 10-6 5-8-5-5-1-5-4v-10l-3-3z"/>
		<path id="Path 389" class="s79" d="m265 486l4-3 3 2v12h-3-6v-2z"/>
		<path id="Path 390" class="s61" d="m321 485v-2h6l9 6v9h-11l-3-4z"/>
		<path id="Path 391" class="s70" d="m876 488l6-5h6l2 6-5 3v7l-3 2-6 2z"/>
		<path id="Path 392" class="s5" d="m161 494l11-9-3 4-6 5z"/>
		<path id="Path 393" class="s45" d="m272 497v-12h5l1 9z"/>
		<path id="Path 394" class="s43" d="m281 493l4-8h11 5l3 6-6 6-9 4h-5v-6z"/>
		<path id="Path 395" class="s50" d="m316 494v-9h5l1 9z"/>
		<path id="Path 396" class="s12" d="m370 497l-8-8 2-4 12 4v6z"/>
		<path id="Path 397" class="s60" d="m505 489l3-4h8v6l-10 2z"/>
		<path id="Path 398" class="s48" d="m768 490l-4-5 4 1z"/>
		<path id="Path 399" class="s30" d="m800 497v-12h8l1 11z"/>
		<path id="Path 400" class="s16" d="m827 497l-9-2v-10l10 2v8z"/>
		<path id="Path 401" class="s20" d="m828 487l8-2 4 2v8h-12z"/>
		<path id="Path 402" class="s36" d="m256 492l6-6h3l-2 9h-7z"/>
		<path id="Path 403" class="s64" d="m185 493l1-6h10l14 12v6z"/>
		<path id="Path 404" class="s65" d="m234 493v-6h10 6l6 5v3 1h-4l-2 4 1 9v6h-5l-2-15z"/>
		<path id="Path 405" class="s37" d="m376 489v-2h5l3 3v10l5 4-9 1v-7l-4-3z"/>
		<path id="Path 406" class="s54" d="m524 490l10-3 5 2 1 8h-2l-6 1z"/>
		<path id="Path 407" class="s73" d="m778 497v-10h7l-1 10z"/>
		<path id="Path 408" class="s2" d="m892 489l2-1v6l-4 4h-1z"/>
		<path id="Path 409" class="s22" d="m163 494l6-5h2l-1 6-6 4-5-1 1-2z"/>
		<path id="Path 410" class="s16" d="m449 497l-1-8h6l5 3-1 7z"/>
		<path id="Path 411" class="s32" d="m475 492l1-3h5l5 5v9h-6l-4-3z"/>
		<path id="Path 412" class="s60" d="m560 497h-9l-3-8h12z"/>
		<path id="Path 413" class="s71" d="m882 501l3-2v-7l5-3h2l-3 9-2 2-4 1z"/>
		<path id="Path 414" class="s20" d="m214 497l2-7 3 3-3 4z"/>
		<path id="Path 415" class="s53" d="m298 497l6-6 6 1 1 4-1 9h-7l-4-3z"/>
		<path id="Path 416" class="s60" d="m575 502v-11l11 2v8l-5 1z"/>
		<path id="Path 417" class="s37" d="m458 499l1-7h7v5l-3 2z"/>
		<path id="Path 418" class="s37" d="m470 497v-4l5-1 1 8h-6z"/>
		<path id="Path 419" class="s62" d="m179 495l6-2 25 12 9 13v6l6 1v7l-1 3h-7l-3-4h-8-8l-2-8h-11l-1-9-6-5z"/>
		<path id="Path 420" class="s40" d="m216 497l3-4h15l10 7 2 15 2 14-2 12-5-2-7-2-3-4-6-1v-7-7l-3-1v-12z"/>
		<path id="Path 421" class="s49" d="m278 494l3-1 3 2v6l-3 11-5-3-6 1-4-2 3-11h3z"/>
		<path id="Path 422" class="s24" d="m348 497v-4h4v4z"/>
		<path id="Path 423" class="s39" d="m486 494l6-1 9 2-1 8h-4-10z"/>
		<path id="Path 424" class="s54" d="m586 501v-8h6l3 2v6 6h-5z"/>
		<path id="Path 425" class="s6" d="m156 497l4-3v2z"/>
		<path id="Path 426" class="s8" d="m160 496v-2h1 2z"/>
		<path id="Path 427" class="s52" d="m316 496v-2h6l3 4-1 10 8 7v2l-8 4-10-2v-5l4-1z"/>
		<path id="Path 428" class="s64" d="m164 499l6-4h1l-2 7h-5z"/>
		<path id="Path 429" class="s70" d="m164 502h5l2-7h8l-1 14 6 5 1 9-3 3-7-11h-11z"/>
		<path id="Path 430" class="s76" d="m256 496v-1h7v2l-4 4h-3z"/>
		<path id="Path 431" class="s32" d="m370 497l6-2 4 3v7h-5-5z"/>
		<path id="Path 432" class="s39" d="m827 497l1-2h12l13 4v8l3 2 4 12-6 2v5h-9l-7-3v-15l-11-8z"/>
		<path id="Path 433" class="s8" d="m156 497l4-1-1 2-12 8v-2z"/>
		<path id="Path 434" class="s53" d="m250 500l2-4h4v5l-2 1z"/>
		<path id="Path 435" class="s61" d="m310 505l1-9h5l2 17-4 1-2-1-1-3z"/>
		<path id="Path 436" class="s37" d="m800 497l9-1 1 3-2 12 4 2v7l-10 2-5-11 3-4z"/>
		<path id="Path 437" class="s65" d="m210 499l4-2h2l6 8v12l-3 1-9-13z"/>
		<path id="Path 438" class="s80" d="m259 501l4-4h6l-3 11-2 1-4-2z"/>
		<path id="Path 439" class="s56" d="m289 501l9-4 1 5-4 5h-3l-3-2z"/>
		<path id="Path 440" class="s30" d="m352 497l1 6-6-1 1-5z"/>
		<path id="Path 441" class="s58" d="m442 507v-9l7-1 9 2h5l1 4 6-3h6l4 3v12l-14 1-10-1h-6v-4z"/>
		<path id="Path 442" class="s54" d="m463 499l3-2h4v3l-6 3z"/>
		<path id="Path 443" class="s58" d="m532 498l6-1-6 4z"/>
		<path id="Path 444" class="s55" d="m532 501l6-4h2l7 9-3 10-8 1-6-4z"/>
		<path id="Path 445" class="s59" d="m784 524l-6-27h6l4 4v8l9 2 5 11-2 7h-6l-3-5z"/>
		<path id="Path 446" class="s72" d="m147 506l12-8 5 1v3 13l-5 9-9 1-12-4-3-4 4-5z"/>
		<path id="Path 447" class="s54" d="m332 515l-8-7 1-10h11l2 9-2 6z"/>
		<path id="Path 448" class="s6" d="m887 500l2-2h1z"/>
		<path id="Path 449" class="s52" d="m635 509l-9-2v-8h7l3 7z"/>
		<path id="Path 450" class="s59" d="m812 520v-7l-4-2 2-12 10 3v18l-6 2z"/>
		<path id="Path 451" class="s19" d="m856 509l-3-2v-8h1 5l3 7v3z"/>
		<path id="Path 452" class="s36" d="m251 509l-1-9 4 2-1 5-1 2z"/>
		<path id="Path 453" class="s6" d="m883 501l4-1-4 2z"/>
		<path id="Path 454" class="s81" d="m254 502l2-1h3l1 6h-2-5z"/>
		<path id="Path 455" class="s19" d="m281 512l3-11h5v4l-1 8 5 1h2l-6 7h-4z"/>
		<path id="Path 456" class="s52" d="m581 502l5-1 4 6-4 8h-4z"/>
		<path id="Path 457" class="s39" d="m595 507v-6l5 1v5z"/>
		<path id="Path 458" class="s10" d="m876 503l6-2h1v1l-4 3-2 1z"/>
		<path id="Path 459" class="s76" d="m295 507l4-5 4 3v5l-4 3-3-2z"/>
		<path id="Path 460" class="s39" d="m570 507v-3l5-2h6l1 13v4h-8l-2-1z"/>
		<path id="Path 461" class="s48" d="m480 515v-12h6v8l4 2v3l-2 5h-8z"/>
		<path id="Path 462" class="s55" d="m490 513l-4-2v-8h10v6z"/>
		<path id="Path 463" class="s54" d="m496 509v-6h4l2 6z"/>
		<path id="Path 464" class="s0" d="m138 512l9-8v2l-8 6z"/>
		<path id="Path 465" class="s12" d="m357 514l4-10 4 3 5-1v7l4 1 1 2-5 1-8-1 4 15-3 4h-3l-3-19z"/>
		<path id="Path 466" class="s82" d="m380 505l9-1 5 1-2 13h-4l-13-2-1-2 1-9z"/>
		<path id="Path 467" class="s82" d="m293 514l-5-1 1-8 3 2 1 4z"/>
		<path id="Path 468" class="s45" d="m303 510v-5h7l1 5-2 1z"/>
		<path id="Path 469" class="s77" d="m370 506v-1h5l-1 9-4-1z"/>
		<path id="Path 470" class="s12" d="m392 518l2-13 8 5 2 8-1 1h-9z"/>
		<path id="Path 471" class="s1" d="m877 506l2-1v4l-2-2z"/>
		<path id="Path 472" class="s52" d="m544 516l3-10 9 3v9l-4 2z"/>
		<path id="Path 473" class="s54" d="m635 509l1-3 10 1v12h-8z"/>
		<path id="Path 474" class="s50" d="m862 509v-3l15 1 2 2h1l2 2 1 6-12 2h-3l-1-6z"/>
		<path id="Path 475" class="s83" d="m252 509l1-2h5v14l-4-4z"/>
		<path id="Path 476" class="s76" d="m258 521v-14h2l4 2-1 12-2 1z"/>
		<path id="Path 477" class="s84" d="m293 511l-1-4h3l1 4z"/>
		<path id="Path 478" class="s48" d="m336 513l2-6h5l3 4-1 5h-3l-4-2z"/>
		<path id="Path 479" class="s31" d="m430 518l12-11 8 4v4l-8 7-4 3h-6z"/>
		<path id="Path 480" class="s55" d="m566 508v-1h4l2 11h-6z"/>
		<path id="Path 481" class="s73" d="m586 515l4-8h5 5l3 13h-3l-7 2-7-3z"/>
		<path id="Path 482" class="s55" d="m646 519v-12l10 2v8l7 4 3 6v7l5 2v8l7 8h6l4 5-2 5h-3v-4l-6-1-3-4-8 4-16-2-10-2-6 2v4h-4l-9-2-1-4v-8l2-1 12-1h11l3-3v-11z"/>
		<path id="Path 483" class="s16" d="m264 509l2-1 4 2-1 8-3 3h-3z"/>
		<path id="Path 484" class="s54" d="m556 509l10-1v10l-5 1-5-1z"/>
		<path id="Path 485" class="s80" d="m251 515v-6h1l2 8h-2z"/>
		<path id="Path 486" class="s73" d="m270 510l6-1 5 3 4 9-2 10h-2l-3-3-9-10z"/>
		<path id="Path 487" class="s58" d="m490 513l6-4h6l2 4-6 1-2 4-6-2z"/>
		<path id="Path 488" class="s73" d="m666 527l-3-6-7-4v-8l14 4v6l3 2-1 6z"/>
		<path id="Path 489" class="s49" d="m860 521l-4-12h6l5 4 1 6v2h-7z"/>
		<path id="Path 490" class="s85" d="m882 511l-2-2 12 1v3h-2z"/>
		<path id="Path 491" class="s56" d="m299 513l4-3 6 1v2l-9 3-1-1z"/>
		<path id="Path 492" class="s31" d="m309 511l2-1 1 3h-3z"/>
		<path id="Path 493" class="s12" d="m293 514v-3h3l3 2v2l-4-1z"/>
		<path id="Path 494" class="s78" d="m345 516l1-5 5 3v3z"/>
		<path id="Path 495" class="s71" d="m883 517l-1-6 8 2 8 16 2 9v1l-3-4h-9v-9z"/>
		<path id="Path 496" class="s18" d="m128 519l6-7h4 1l-4 5-7 4z"/>
		<path id="Path 497" class="s39" d="m300 516l9-3h3l2 1v5 4h-7z"/>
		<path id="Path 498" class="s46" d="m332 515l4-2 2 1v2l-5 2-1-1z"/>
		<path id="Path 499" class="s39" d="m496 518l2-4 6-1 8 3v7l-7 2h-5z"/>
		<path id="Path 500" class="s51" d="m673 521l-3-2v-6l6 2v5z"/>
		<path id="Path 501" class="s52" d="m738 539l-4-3 1-21 15-2 4 6-1 9-9 2v9z"/>
		<path id="Path 502" class="s8" d="m898 529l-8-16h2l2 4 2 2 1 3 2 2v5z"/>
		<path id="Path 503" class="s73" d="m289 521l6-7 4 1 1 1 7 7-1 6-10 1z"/>
		<path id="Path 504" class="s30" d="m338 516v-2l4 2v5l-4 2z"/>
		<path id="Path 505" class="s38" d="m351 517v-3h6v2l-3 1z"/>
		<path id="Path 506" class="s38" d="m512 516l8-1v11h-4l-4-3z"/>
		<path id="Path 507" class="s71" d="m150 525l9-1 5-9h11l7 11-3 8-1 3-14 1-4-3h-10z"/>
		<path id="Path 508" class="s31" d="m248 529l-2-14h5l1 2v12z"/>
		<path id="Path 509" class="s67" d="m366 531l-4-15 8 1 1 10z"/>
		<path id="Path 510" class="s59" d="m442 522l8-7h6l2 8-4 5-3-3h-7z"/>
		<path id="Path 511" class="s32" d="m458 523l-2-8 10 1v6z"/>
		<path id="Path 512" class="s37" d="m466 516l14-1v6 4h-6-6l-2-3z"/>
		<path id="Path 513" class="s51" d="m582 519v-4h4v4z"/>
		<path id="Path 514" class="s73" d="m676 520v-5l18 3v5l-10 2z"/>
		<path id="Path 515" class="s84" d="m333 518l5-2v7l-4 4-7 3v-6z"/>
		<path id="Path 516" class="s37" d="m338 523l4-2v-5h3l6 1h3l-2 22v14l3 3 1 14v7h-4l-4-13v-11l-6-6v-8l1-10-5-1z"/>
		<path id="Path 517" class="s86" d="m354 517l3-1 3 19-4 4h-4z"/>
		<path id="Path 518" class="s73" d="m370 517l5-1 13 2v9l-2 2-15-2z"/>
		<path id="Path 519" class="s24" d="m488 521l2-5 6 2 4 7-4 3h-5z"/>
		<path id="Path 520" class="s19" d="m536 517l8-1 8 4v6l-4 2-8 1h-4l-2-2z"/>
		<path id="Path 521" class="s68" d="m128 521l7-4 3 4-4 6-6-5z"/>
		<path id="Path 522" class="s70" d="m219 518l3-1 3 1v7l-6-1z"/>
		<path id="Path 523" class="s45" d="m252 529v-12h2l4 4 3 1 2 14h-7z"/>
		<path id="Path 524" class="s30" d="m324 521l8-4 1 1-6 6h-3z"/>
		<path id="Path 525" class="s12" d="m416 519l5-2 1 2-2 6z"/>
		<path id="Path 526" class="s69" d="m871 519l12-2 5 9v9 6l-5 2h-6l-4-2-3-20z"/>
		<path id="Path 527" class="s48" d="m266 521l3-3 9 10-5 6-7-5z"/>
		<path id="Path 528" class="s58" d="m388 527v-9h4l2 1v10h-3z"/>
		<path id="Path 529" class="s38" d="m403 519l1-1 1 1-1 1z"/>
		<path id="Path 530" class="s32" d="m422 519l8-1 2 7v2h-8l-4-2z"/>
		<path id="Path 531" class="s48" d="m552 520l4-2 5 1-1 16h-4v-8l-4-1z"/>
		<path id="Path 532" class="s47" d="m561 519l5-1h6l2 1 7 8 1 6v4 7l9 11h3l1 8-1 8h-8v-6l-4-2-3-3v-6l-9-1h-4v-5l-7-3 3-5-2-5z"/>
		<path id="Path 533" class="s2" d="m121 525l7-6v2 1l-6 4z"/>
		<path id="Path 534" class="s57" d="m314 523v-4l10 2v3l-4 3h-6z"/>
		<path id="Path 535" class="s32" d="m394 529v-10h9l1 1 1 9 11 8 1 5h7 3v3l-2 5 2 3-7 3v10l4 2 1 8-3 3-10-1-1-11 1-6-3-1 3-12-16-11z"/>
		<path id="Path 536" class="s48" d="m404 520l1-1h11l4 6 4 2v15h-7l-1-5-11-8z"/>
		<path id="Path 537" class="s24" d="m581 527l-7-8h8 4l7 3 1 7h-4z"/>
		<path id="Path 538" class="s38" d="m632 521l6-2h8l2 10h-14l-2-1z"/>
		<path id="Path 539" class="s40" d="m868 521v-2h3l-1 2z"/>
		<path id="Path 540" class="s38" d="m593 522l7-2v7 1l-4 1h-2z"/>
		<path id="Path 541" class="s19" d="m600 527v-7h3l3 6z"/>
		<path id="Path 542" class="s58" d="m802 522l10-2 2 2 1 15-3 1h-6l-4 4-8-2-1-8 1-3h6z"/>
		<path id="Path 543" class="s38" d="m814 522l6-2h4l7 9h3v8l-12 2h-4l-3-2z"/>
		<path id="Path 544" class="s7" d="m134 527l4-6 12 4v10l-1 11-7 1-4-4z"/>
		<path id="Path 545" class="s24" d="m261 522l2-1h3v8l7 5 4 3 1 8-5 2-2 6 4 10 2 16h-5l-2-7-8-9v-10l1-17z"/>
		<path id="Path 546" class="s50" d="m283 531l2-10h4l7 9v4l-3 1z"/>
		<path id="Path 547" class="s38" d="m480 525v-4h8l3 7h5l1 9v2h-7-7v-2l1-10z"/>
		<path id="Path 548" class="s47" d="m624 522l8-1v7h-8z"/>
		<path id="Path 549" class="s12" d="m854 528v-5l6-2h1l1 10-8 6z"/>
		<path id="Path 550" class="s20" d="m854 537l8-6-1-10h7 2l3 20-9 12h-6v-4l-4-1z"/>
		<path id="Path 551" class="s87" d="m122 526l6-4 6 5 4 16h-4-8l-2-5-5-8z"/>
		<path id="Path 552" class="s52" d="m438 525l4-3 2 3v9h-6z"/>
		<path id="Path 553" class="s52" d="m458 523l8-1 2 3v10l-6 1-8-2v-6z"/>
		<path id="Path 554" class="s51" d="m610 536v-12l14-2v6 8l-2 2z"/>
		<path id="Path 555" class="s67" d="m182 526l3-3h11l2 8-2 8 8 2v6h-4-5l-4-5-7-2-5-6z"/>
		<path id="Path 556" class="s47" d="m306 529l1-6h7v4l-1 1z"/>
		<path id="Path 557" class="s24" d="m334 527l4-4v5l-4 2z"/>
		<path id="Path 558" class="s54" d="m505 525l7-2 4 3v7l-2 4h-4l-4-3z"/>
		<path id="Path 559" class="s56" d="m320 527l4-3h3v6l7-3v3 2l-6 5-8-4z"/>
		<path id="Path 560" class="s54" d="m786 532l-2-8h7l3 5-1 3z"/>
		<path id="Path 561" class="s14" d="m115 529l6-4 1 1-3 4-6 3v-1z"/>
		<path id="Path 562" class="s63" d="m432 527v-2h6v9l-5 1z"/>
		<path id="Path 563" class="s63" d="m444 534v-9h7l3 3v6l-4 1z"/>
		<path id="Path 564" class="s73" d="m468 535v-10h6l-1 10z"/>
		<path id="Path 565" class="s58" d="m473 535l1-10h6l4 2-1 10h-9z"/>
		<path id="Path 566" class="s58" d="m496 528l4-3h5l1 9-4 2-5 1z"/>
		<path id="Path 567" class="s12" d="m834 529l4-4 7 3-7 9h-2-2z"/>
		<path id="Path 568" class="s52" d="m516 533v-7h4l6 4v5h-4z"/>
		<path id="Path 569" class="s73" d="m548 528l4-2 4 1v8h-3-5z"/>
		<path id="Path 570" class="s53" d="m313 528l1-1h6v6h-2z"/>
		<path id="Path 571" class="s38" d="m366 531l5-4 15 2 2-2 3 2 1 8-2 8h-6l-1-3-15-1-5-6z"/>
		<path id="Path 572" class="s61" d="m424 542v-15h8l1 8-6 7z"/>
		<path id="Path 573" class="s58" d="m540 529l8-1v7l-1 2h-5l-2-2z"/>
		<path id="Path 574" class="s52" d="m582 533l-1-6 9 2z"/>
		<path id="Path 575" class="s58" d="m671 536l-5-2v-7h6z"/>
		<path id="Path 576" class="s37" d="m273 534l5-6 3 3-4 6z"/>
		<path id="Path 577" class="s12" d="m306 529l7-1 5 5-3 12h-10l-3-5 5-2z"/>
		<path id="Path 578" class="s59" d="m334 530l4-2 5 1-1 10h-4l-4-7z"/>
		<path id="Path 579" class="s52" d="m596 529l4-1v6l6 5v4h-6l-4-5z"/>
		<path id="Path 580" class="s55" d="m624 536v-8h8l2 1v8z"/>
		<path id="Path 581" class="s19" d="m838 537l7-9h9v9 11h-4l-2 5-4 2v5l-3 1-10-2-1-12 7-8z"/>
		<path id="Path 582" class="s38" d="m246 541l2-12h4l4 7 2 17-4 4h-4l-6-5z"/>
		<path id="Path 583" class="s43" d="m296 530l10-1 1 9-5 2-9-5 3-1z"/>
		<path id="Path 584" class="s19" d="m392 537l-1-8h3l2 8z"/>
		<path id="Path 585" class="s59" d="m536 535v-6h4v6z"/>
		<path id="Path 586" class="s73" d="m582 533l8-4h4 2v9h-4l-10-1z"/>
		<path id="Path 587" class="s73" d="m634 537v-8h14v11l-3 3h-11z"/>
		<path id="Path 588" class="s17" d="m900 538l-2-9h1l3 9z"/>
		<path id="Path 589" class="s68" d="m113 533l6-3 5 8-4 2-12-1v-1z"/>
		<path id="Path 590" class="s55" d="m204 541l-8-2 2-8h8v10z"/>
		<path id="Path 591" class="s63" d="m206 541v-10h8l3 4-3 6z"/>
		<path id="Path 592" class="s78" d="m277 537l4-6h2l10 4 9 5 3 5 2 6 5 15 12-1v1l-1 7h-12l-1 10-15-2-2-14-9-4v-9l-8-1-3-6 5-2z"/>
		<path id="Path 593" class="s0" d="m104 539l9-7v1l-5 5z"/>
		<path id="Path 594" class="s46" d="m224 535l1-3 6 1 3 4v6l-4 3-1 6-2 1-3-2z"/>
		<path id="Path 595" class="s38" d="m328 537l6-5 4 7h4v8l-12 2z"/>
		<path id="Path 596" class="s47" d="m787 540l-1-8h7l1 8z"/>
		<path id="Path 597" class="s32" d="m315 545l3-12h2l8 4 2 12 12-2 6 6v11l-6 2v7h-6v-4-15l-5-1-3 3-9-1-3-4z"/>
		<path id="Path 598" class="s37" d="m514 537l2-4 6 2 2 10v2h-10l-1-4z"/>
		<path id="Path 599" class="s70" d="m178 537l1-3 5 6-6 1z"/>
		<path id="Path 600" class="s37" d="m433 535l5-1h6l6 1v6 10l3 4-1 2-6 2-12 1-5-7 4-8h-6v-3z"/>
		<path id="Path 601" class="s24" d="m450 535l4-1 8 2-2 5h-10z"/>
		<path id="Path 602" class="s31" d="m502 536l4-2 4 3-3 3h-4z"/>
		<path id="Path 603" class="s69" d="m149 546l1-11h10l4 3v9l-3 5-11-3z"/>
		<path id="Path 604" class="s69" d="m214 541l3-6h7v16l3 2-9 2-6-8z"/>
		<path id="Path 605" class="s16" d="m356 539l4-4h3l5 6 15 1 1 3-1 1-8 2v4l5 2v3 4h-5l-4 4-4-2-1-10 4-1 1-8-9 1h-5z"/>
		<path id="Path 606" class="s38" d="m462 536l6-1h5l1 2-3 6 7 2v8l5 3-1 9-4 8h-8l-2-6 1-10-5-1v-8l-4-2v-5z"/>
		<path id="Path 607" class="s32" d="m524 545l-2-10h4 8l1 7-1 3z"/>
		<path id="Path 608" class="s16" d="m535 542l-1-7h2 4l2 2v8z"/>
		<path id="Path 609" class="s38" d="m547 537l1-2h5v4l-4 1z"/>
		<path id="Path 610" class="s24" d="m549 540l4-1v-4h3 4l2 5-3 5-6 4v4h-4l-3-6z"/>
		<path id="Path 611" class="s64" d="m888 541v-6h9l3 4 2 6v2 1 6l1 6v1l-9 2v-11l-6-5z"/>
		<path id="Path 612" class="s36" d="m258 553l-2-17h7l-1 17z"/>
		<path id="Path 613" class="s32" d="m497 537l5-1 1 4-2 3-4-4z"/>
		<path id="Path 614" class="s39" d="m609 539l1-3 12 2v6l-2 1h-8z"/>
		<path id="Path 615" class="s48" d="m622 538l2-2 10 1v6l-12 1z"/>
		<path id="Path 616" class="s87" d="m164 538l14-1v4l-6 6h-8z"/>
		<path id="Path 617" class="s36" d="m234 543v-6l7 2z"/>
		<path id="Path 618" class="s47" d="m390 545l2-8h4l16 11-3 12-2 2-6-4-3-8z"/>
		<path id="Path 619" class="s16" d="m478 545l-7-2 3-6h9v2l-2 6z"/>
		<path id="Path 620" class="s58" d="m507 540l3-3h4l-1 6z"/>
		<path id="Path 621" class="s48" d="m542 545v-8h5l2 3-3 7h-4z"/>
		<path id="Path 622" class="s51" d="m594 555h-3l-9-11v-7l10 1v7l4 4v6z"/>
		<path id="Path 623" class="s43" d="m812 538l3-1 3 2v6h-6z"/>
		<path id="Path 624" class="s24" d="m822 539l12-2h2l1 2-7 8-8-1z"/>
		<path id="Path 625" class="s37" d="m837 539l-1-2h2z"/>
		<path id="Path 626" class="s88" d="m104 539l4-1v1l-2 3-2 1h-2v-2l1-1z"/>
		<path id="Path 627" class="s19" d="m120 540l4-2 2 5v6h-6z"/>
		<path id="Path 628" class="s19" d="m596 549l-4-4v-7h4l4 5v6z"/>
		<path id="Path 629" class="s31" d="m802 542l4-4h6v7l-2 4h-8z"/>
		<path id="Path 630" class="s8" d="m900 539v-1h2v7z"/>
		<path id="Path 631" class="s20" d="m106 542l2-3 12 1v9l-9 2-3-4z"/>
		<path id="Path 632" class="s82" d="m234 543l7-4 5 2-2 11-2 12 6 1 1 7 3 1v7h-3l-10-4-2-3-1-10 2-9-9-2 1-6z"/>
		<path id="Path 633" class="s78" d="m355 556l-3-3v-14h4l1 6 1 4-2 6z"/>
		<path id="Path 634" class="s39" d="m481 545l2-6h7l-2 10z"/>
		<path id="Path 635" class="s59" d="m481 545l7 4 2-10h7l4 4-1 11-8 1-9 1-5-3v-8z"/>
		<path id="Path 636" class="s47" d="m606 543v-4h3l3 6 3 8h5l1 4 1 10-3 8h-8l-1-3-1-9-3-1v-2l4-7h-5z"/>
		<path id="Path 637" class="s55" d="m722 553l13-5 3-9h6 5l4 4 2 10h7v12l-1 7-11-1h-1-2l-5-2v-15l-3-3-5 1v7l-4 4h-6l-2-4z"/>
		<path id="Path 638" class="s50" d="m818 545v-6h4v7h-3z"/>
		<path id="Path 639" class="s57" d="m178 541l6-1 7 2 4 5h5v7l-5 4-13-1-8-2-2-8z"/>
		<path id="Path 640" class="s48" d="m501 543l2-3h4l6 3 1 4v4h-2-5l-3 4-4-1z"/>
		<path id="Path 641" class="s59" d="m777 561l7-2 3-19h7l8 2v7 10l4 3 2 11-2 8-8-1h-3l-6-2-4-1-7-1h-2l-2-2v-9z"/>
		<path id="Path 642" class="s5" d="m96 547l6-6v2l-5 4z"/>
		<path id="Path 643" class="s66" d="m204 547v-6h2 8l-2 6-4 2z"/>
		<path id="Path 644" class="s47" d="m453 555l-3-4v-10h10v5l4 2v8h-4z"/>
		<path id="Path 645" class="s28" d="m864 553l9-12 4 2v6l-1 13 8 7-2 19-5 2h-1l-7 1h-7-2v-8h-9l-1-2-4-12-5-3v-5l3-1h3l2-5h9v4l-1 7 6 2 3-4-2-5z"/>
		<path id="Path 646" class="s72" d="m883 543l5-2v6h-5z"/>
		<path id="Path 647" class="s64" d="m104 543l2-1 2 5h-6z"/>
		<path id="Path 648" class="s38" d="m534 545l1-3 7 3v2l-2 4h-4z"/>
		<path id="Path 649" class="s79" d="m97 547l5-4h2l-2 4-6 5z"/>
		<path id="Path 650" class="s33" d="m126 549v-6h8l1 7h7v9h-6l-10-1z"/>
		<path id="Path 651" class="s40" d="m142 550h-7l-1-7h4l4 4z"/>
		<path id="Path 652" class="s77" d="m362 545l9-1-1 8-4 1h-3v-2z"/>
		<path id="Path 653" class="s58" d="m600 549v-6h6l-1 10h-2z"/>
		<path id="Path 654" class="s46" d="m877 549v-6h6v4z"/>
		<path id="Path 655" class="s47" d="m307 551l-2-6h10l1 6z"/>
		<path id="Path 656" class="s38" d="m358 549l-1-4h5l1 6z"/>
		<path id="Path 657" class="s30" d="m383 546l1-1h6l8 5 3 8-5 2v5h-4l-3-6-9-2v-3l4-3z"/>
		<path id="Path 658" class="s78" d="m427 553l-2-3 2-5h6l-4 8z"/>
		<path id="Path 659" class="s58" d="m524 547v-2h10l2 6-2 6-9-4z"/>
		<path id="Path 660" class="s51" d="m553 553v-4l6-4 7 3v5l-2 8 4 4v6h-7l-3-6v-8z"/>
		<path id="Path 661" class="s52" d="m620 553h-5l-3-8h8z"/>
		<path id="Path 662" class="s47" d="m810 549l2-4h6l1 1 1 15v4h-4l-6-4z"/>
		<path id="Path 663" class="s72" d="m142 547l7-1 1 3 11 3 7 5 1 6-1 2-10 2h-4l-2-6-10-2v-9z"/>
		<path id="Path 664" class="s45" d="m380 554l-5-2v-4l8-2 1 5z"/>
		<path id="Path 665" class="s16" d="m820 561l-1-15h3l8 1 1 12z"/>
		<path id="Path 666" class="s18" d="m88 562l1-5h4l3-10h1l-1 5-1 5z"/>
		<path id="Path 667" class="s40" d="m96 552l6-5h6l3 4 9-2h6v9l-9 6-3 7-2 1-10-3-7-8v-4z"/>
		<path id="Path 668" class="s62" d="m161 552l3-5h8l2 8 8 2v8h-2l-11-2-1-6z"/>
		<path id="Path 669" class="s62" d="m200 554v-7h4l4 2-3 5h-4z"/>
		<path id="Path 670" class="s71" d="m208 549l4-2 6 8-1 6-1 4h-6l-3-4-2-7z"/>
		<path id="Path 671" class="s81" d="m275 563l-4-10 2-6 3 6 8 1v9z"/>
		<path id="Path 672" class="s51" d="m514 551v-4h10l1 6 9 4 2 6v9l-10 1-8 1v-9l4-1v-5l-8-6z"/>
		<path id="Path 673" class="s39" d="m540 551l2-4h4l3 6h4l5 4v8h-8l-8-2z"/>
		<path id="Path 674" class="s40" d="m877 549l6-2h5l6 5v11l-4 6h-6l-8-7z"/>
		<path id="Path 675" class="s5" d="m902 548v-1l2 2z"/>
		<path id="Path 676" class="s31" d="m848 553l2-5h4l4 1v4 2h-9z"/>
		<path id="Path 677" class="s8" d="m902 554v-6l2 1v5z"/>
		<path id="Path 678" class="s45" d="m356 555l2-6 5 2v2l-4 2z"/>
		<path id="Path 679" class="s48" d="m596 555v-6h4l3 4v2z"/>
		<path id="Path 680" class="s39" d="m806 562l-4-3v-10h8v12z"/>
		<path id="Path 681" class="s31" d="m324 565l-12 1-5-15h9l3 4 9 1z"/>
		<path id="Path 682" class="s89" d="m504 555l3-4h5v2 9l-6 1z"/>
		<path id="Path 683" class="s16" d="m512 553v-2h2v2z"/>
		<path id="Path 684" class="s47" d="m534 557l2-6h4l2 12h-6z"/>
		<path id="Path 685" class="s39" d="m724 563h6l4-4v-7l5-1 3 3v15l-5 1h-1-2l-6-2-7-1h-5v-1h6z"/>
		<path id="Path 686" class="s90" d="m227 553l2-1 9 2-2 9-8 2h-6l-5-4 1-6z"/>
		<path id="Path 687" class="s30" d="m248 565l-6-1 2-12 6 5z"/>
		<path id="Path 688" class="s80" d="m254 557l4-4h4v10l8 9-7 3-4-4h-6z"/>
		<path id="Path 689" class="s82" d="m328 556l3-3 5 1v15l-6-1-6-2v-1z"/>
		<path id="Path 690" class="s90" d="m359 555l4-2h3l1 10-4 2-4-2z"/>
		<path id="Path 691" class="s39" d="m425 576l-1-8-4-2v-10l7-3h2l5 7 2 7v8l-6 2z"/>
		<path id="Path 692" class="s56" d="m512 562v-9h2l8 6v5l-4 1-4-1z"/>
		<path id="Path 693" class="s37" d="m568 565l-4-4 2-8h4v6l3 2-1 4z"/>
		<path id="Path 694" class="s30" d="m573 561l-3-2v-6l9 1v6z"/>
		<path id="Path 695" class="s16" d="m603 555v-2h2 5l-4 7z"/>
		<path id="Path 696" class="s16" d="m634 559v-4l6-2 1 7-5 3z"/>
		<path id="Path 697" class="s47" d="m641 560l-1-7 10 2 2 14-5 2-2-4v-6z"/>
		<path id="Path 698" class="s31" d="m666 557l8-4 3 4 6 1v4l-7 1-1-2-9 2z"/>
		<path id="Path 699" class="s54" d="m716 559v-5l6-1v6z"/>
		<path id="Path 700" class="s52" d="m762 565v-12h11l4 8-3 4z"/>
		<path id="Path 701" class="s16" d="m844 560v-5l4-2 1 2-2 5z"/>
		<path id="Path 702" class="s34" d="m858 555v-2h6v6h-6z"/>
		<path id="Path 703" class="s22" d="m195 558l5-4h1l1 8-1 3-13 2v-2z"/>
		<path id="Path 704" class="s27" d="m202 562l-1-8h4l2 7z"/>
		<path id="Path 705" class="s16" d="m492 555l8-1 4 1 2 8v2l-5-1-3-1-6-4z"/>
		<path id="Path 706" class="s35" d="m903 560l-1-6h2v5z"/>
		<path id="Path 707" class="s86" d="m355 556l1-1h3v8l4 2v3l-4 2h-3z"/>
		<path id="Path 708" class="s53" d="m452 557l1-2 7 1-2 4z"/>
		<path id="Path 709" class="s32" d="m483 556l9-1v4l6 4-4 4-12-2z"/>
		<path id="Path 710" class="s31" d="m595 563l-1-8h2 7l3 5v2l-2 1z"/>
		<path id="Path 711" class="s49" d="m652 569l-2-14 16 2v6l-9 6z"/>
		<path id="Path 712" class="s16" d="m458 560l2-4h4l5 1-1 10-10-1z"/>
		<path id="Path 713" class="s23" d="m88 562l7-5v4l7 8h-5-9v-6z"/>
		<path id="Path 714" class="s70" d="m182 565v-8l13 1-7 7z"/>
		<path id="Path 715" class="s16" d="m248 565l2-8h4l-1 14-1 2-3-1z"/>
		<path id="Path 716" class="s20" d="m380 561v-4l9 2 3 6-9 2z"/>
		<path id="Path 717" class="s56" d="m446 559l6-2 6 3v6l-9 2z"/>
		<path id="Path 718" class="s58" d="m622 567l-1-10 9 2v8z"/>
		<path id="Path 719" class="s59" d="m686 562l2-5h5l3 4v5l-5 5h-5z"/>
		<path id="Path 720" class="s47" d="m696 561l5-4 6 2-1 8h-10v-1z"/>
		<path id="Path 721" class="s23" d="m114 571l3-7 9-6 10 1v7l6 8v7h-4l-8-4-2-3-11-1z"/>
		<path id="Path 722" class="s31" d="m396 565v-5l5-2 6 4v4l-11 1z"/>
		<path id="Path 723" class="s80" d="m142 574l-6-8v-7h6l10 2 2 6-4 7z"/>
		<path id="Path 724" class="s24" d="m434 560l12-1 3 9-1 1h-4l-8-2z"/>
		<path id="Path 725" class="s73" d="m630 567v-8h4l2 4v4z"/>
		<path id="Path 726" class="s51" d="m706 567l1-8h9v7 1h-9z"/>
		<path id="Path 727" class="s52" d="m716 566v-7h6l2 4-2 3z"/>
		<path id="Path 728" class="s31" d="m820 561l11-2 10 2v5l5 3 4 12h-2l-9-1-3-6-9-1-7-8z"/>
		<path id="Path 729" class="s40" d="m864 559l2 5-3 4-6-2 1-7z"/>
		<path id="Path 730" class="s2" d="m903 560l1-1h2v7l-1 1h-1-1v-6z"/>
		<path id="Path 731" class="s1" d="m905 566h1v1h-1z"/>
		<path id="Path 732" class="s12" d="m407 562l2-2 3 1-1 6-4-1z"/>
		<path id="Path 733" class="s52" d="m573 561l6-1 3 3v7h-8l-2-5z"/>
		<path id="Path 734" class="s51" d="m636 563l5-3 4 1v6h-9z"/>
		<path id="Path 735" class="s72" d="m202 562l5-1 3 4v4h-6l-3-4z"/>
		<path id="Path 736" class="s45" d="m216 565l1-4 5 4 2 7 1 9h-8l1-6z"/>
		<path id="Path 737" class="s24" d="m371 565l4-4h5l3 6 9-2h4v2l-4 9 6 3 2 6-5 2h-5l-8-11h-7l-4-7z"/>
		<path id="Path 738" class="s63" d="m666 563l9-2 1 2v10l-5 2h-13l-1-6z"/>
		<path id="Path 739" class="s32" d="m806 562l4-1 6 4-2 8h-6z"/>
		<path id="Path 740" class="s71" d="m894 563l9-2v6l-6 13-4 4-5 1 2-16z"/>
		<path id="Path 741" class="s1" d="m86 564v-2h2v1z"/>
		<path id="Path 742" class="s38" d="m506 563l6-1 2 2-5 3-3-2z"/>
		<path id="Path 743" class="s55" d="m604 563l2-1 3 1 1 9h-6z"/>
		<path id="Path 744" class="s61" d="m676 563l7-1h3v9l-2 2h-6-2z"/>
		<path id="Path 745" class="s10" d="m86 564l2-1v6 4h-2z"/>
		<path id="Path 746" class="s40" d="m168 565l1-2 11 2v5l-9-1z"/>
		<path id="Path 747" class="s84" d="m228 565l8-2 1 10-9-1z"/>
		<path id="Path 748" class="s86" d="m277 579l-2-16h9l9 4 2 14-5 2-2-6-8 2z"/>
		<path id="Path 749" class="s78" d="m363 565l4-2 4 2v4l-8-1z"/>
		<path id="Path 750" class="s61" d="m494 567l4-4 3 1-1 9-3 1h-3v-1z"/>
		<path id="Path 751" class="s59" d="m536 572v-9h6l8 2v6l-2 2h-6z"/>
		<path id="Path 752" class="s59" d="m582 570v-7l4 2v6z"/>
		<path id="Path 753" class="s52" d="m594 571l1-8h9v9l-4 2z"/>
		<path id="Path 754" class="s38" d="m342 573v-7l6-2 4 13v6l-3 2-6-4z"/>
		<path id="Path 755" class="s52" d="m500 573l1-9 5 1 3 2v6z"/>
		<path id="Path 756" class="s47" d="m509 567l5-3 4 1v9 1l-9-2z"/>
		<path id="Path 757" class="s42" d="m158 567l10-2 3 4 9 1 3 7v3l-2 4h-4l-10-6-9-7z"/>
		<path id="Path 758" class="s7" d="m180 570v-5h2 6v2z"/>
		<path id="Path 759" class="s40" d="m188 567l13-2 3 4h6v6l-2 8h-4l-21-6-3-7z"/>
		<path id="Path 760" class="s33" d="m210 569v-4h6l2 10h-8z"/>
		<path id="Path 761" class="s76" d="m224 572l-2-7h6v7z"/>
		<path id="Path 762" class="s48" d="m478 573l4-8 12 2v6l-6 2z"/>
		<path id="Path 763" class="s47" d="m550 571v-6h8l3 6 1 18h-2-8z"/>
		<path id="Path 764" class="s39" d="m568 571v-6h4l2 5v3h-4z"/>
		<path id="Path 765" class="s58" d="m761 572l1-7h12v9l-6 1h-3l-4-2z"/>
		<path id="Path 766" class="s38" d="m814 573l2-8h4l7 8 9 1 3 6-1 7-1 1h-1-1l-12-2-4-1-5-3z"/>
		<path id="Path 767" class="s90" d="m323 573l1-7 6 2-2 8h-4z"/>
		<path id="Path 768" class="s89" d="m396 567l11-1 4 1 1 11-4 2 2 11h-4l-2-5-4-1-2-6-6-3z"/>
		<path id="Path 769" class="s48" d="m449 568l9-2 10 1 2 6-7 3-7 1-5-2-3-6z"/>
		<path id="Path 770" class="s87" d="m686 571h5l5-5v1 3l9 6 1 1-4 8-15-2-3-3v-7z"/>
		<path id="Path 771" class="s30" d="m150 574l4-7h4v4l9 7-1 6-7-1-1-4h-6z"/>
		<path id="Path 772" class="s66" d="m436 575v-8l8 2-2 6z"/>
		<path id="Path 773" class="s49" d="m619 575l3-8h8 6 9l2 4-1 10h-5l-5 6-7 1-7-4z"/>
		<path id="Path 774" class="s4" d="m696 570v-3h10 1v2h-8z"/>
		<path id="Path 775" class="s3" d="m707 569v-2h9 5v2z"/>
		<path id="Path 776" class="s4" d="m721 569v-2l7 1v1z"/>
		<path id="Path 777" class="s8" d="m897 580l6-13h1v5l-2 2z"/>
		<path id="Path 778" class="s1" d="m487 680h1v1h-1z"/>
		<path id="Path 779" class="s1" d="m486 679h1v1h-1z"/>
		<path id="Path 780" class="s86" d="m328 576l2-8 6 1v4l-4 4z"/>
		<path id="Path 781" class="s89" d="m359 570l4-2 8 1 4 7-3 9h-9z"/>
		<path id="Path 782" class="s17" d="m728 569v-1l6 2z"/>
		<path id="Path 783" class="s36" d="m88 573v-4h9v6l5 5-1 4h-3l-5-4-4-4z"/>
		<path id="Path 784" class="s41" d="m98 584h3l1-4-5-5v-6h5l10 3 4 3 7 12-7 5v6l-3-1h-1l-2-2-4-3-3-2-5-5z"/>
		<path id="Path 785" class="s6" d="m112 596h1v1h-1z"/>
		<path id="Path 786" class="s31" d="m442 575l2-6h4l3 6-4 2z"/>
		<path id="Path 787" class="s50" d="m647 571l5-2h5l1 6-2 9-7 1-3-4z"/>
		<path id="Path 788" class="s8" d="m696 570l3-1 6 5v2z"/>
		<path id="Path 789" class="s13" d="m737 570l5-1 5 2z"/>
		<path id="Path 790" class="s69" d="m882 588l2-19h6l-2 16z"/>
		<path id="Path 791" class="s16" d="m356 577v-7h3l4 15-1 2-6-4z"/>
		<path id="Path 792" class="s19" d="m574 573v-3h8l4 1h8l6 3v5l-6-2-9 2-3-3-7 1z"/>
		<path id="Path 793" class="s91" d="m747 571l-11-1h1z"/>
		<path id="Path 794" class="s42" d="m112 572l2-1 3 2-1 2z"/>
		<path id="Path 795" class="s86" d="m252 573l1-2h6l4 4-1 5-7 2-3-2z"/>
		<path id="Path 796" class="s24" d="m548 573l2-2 2 18v8l-8-2-2-12v-4h6z"/>
		<path id="Path 797" class="s38" d="m562 589l-1-18h7l2 2v6l2 8v8h-5z"/>
		<path id="Path 798" class="s29" d="m757 573l-7 1-1-3h1z"/>
		<path id="Path 799" class="s26" d="m757 573l-7-2 11 1v1h-3z"/>
		<path id="Path 800" class="s92" d="m225 581l-1-9h4l9 1 2 3-3 1v10h-3-5z"/>
		<path id="Path 801" class="s76" d="m263 575l7-3 2 7-5 3v5h-4l-1-7z"/>
		<path id="Path 802" class="s32" d="m526 573l10-1 6 1v6 4l-16-2z"/>
		<path id="Path 803" class="s58" d="m600 574l4-2h6l1 3h8l3 9-4 3h-11l-4-1-3-7z"/>
		<path id="Path 804" class="s2" d="m86 575v-2h2l1 3h-1z"/>
		<path id="Path 805" class="s45" d="m116 575l1-2 11 1 2 3v10h-7z"/>
		<path id="Path 806" class="s80" d="m310 583l1-10h12l1 3h4l4 1v6l10 12 1 16v4h-5l-2-4-4 2-4-7h-4l-6-5-1-7-7-5z"/>
		<path id="Path 807" class="s24" d="m332 577l4-4h6l1 8 6 4-1 6-6 4-10-12z"/>
		<path id="Path 808" class="s30" d="m463 576l7-3h8l10 2 6-2v1l3 7v1l-1 5 4 2v8l-2 1-9-7h-13-2l-1-6-9-2z"/>
		<path id="Path 809" class="s32" d="m497 574l3-1h9l9 2v15h-4l-8-3-1-5h-8v-1z"/>
		<path id="Path 810" class="s12" d="m518 574l8-1v8l-2 5 2 6-8-2v-15z"/>
		<path id="Path 811" class="s12" d="m542 579v-6h6v6z"/>
		<path id="Path 812" class="s31" d="m570 579v-6h4l1 4z"/>
		<path id="Path 813" class="s65" d="m671 575l5-2h2l-1 8-2 1-4-2z"/>
		<path id="Path 814" class="s64" d="m677 581l1-8h6v7z"/>
		<path id="Path 815" class="s10" d="m765 575l-7-2h3z"/>
		<path id="Path 816" class="s47" d="m806 581l2-8h6v9l-1 1h-2z"/>
		<path id="Path 817" class="s46" d="m142 581v-7h8l2 5v4l-2 2h-2z"/>
		<path id="Path 818" class="s34" d="m497 581l-3-7h3z"/>
		<path id="Path 819" class="s6" d="m705 576v-2l6 5-5-2z"/>
		<path id="Path 820" class="s74" d="m768 575l6-1 2 2z"/>
		<path id="Path 821" class="s46" d="m208 583l2-8h8l-1 6-1 2z"/>
		<path id="Path 822" class="s78" d="m430 577l6-2h6l5 2-3 4 2 3v7l-2 6v2h-6z"/>
		<path id="Path 823" class="s82" d="m447 577l4-2 5 2v6l-6 2-4-1-2-3z"/>
		<path id="Path 824" class="s20" d="m656 584l2-9h13v5l4 2-1 9-4 18h-8l-1-8-4-4 3-12z"/>
		<path id="Path 825" class="s6" d="m93 580l-5-4h1z"/>
		<path id="Path 826" class="s90" d="m236 587v-10l3-1 10 4-2 7h-9z"/>
		<path id="Path 827" class="s30" d="m372 585l3-9h7l8 11 1 5-1 8 6 1-1-9v-5l5-2 4 1 2 5h4l6 2 4 12 2 3v5l-1 3v8l-7 1v10l-9-2-5-5h-7l-11-3v-10l-6-3-8-1v-5l7-4v-15z"/>
		<path id="Path 828" class="s56" d="m422 579l3-3 5 1 8 22h-7l-3 3-3-2 1-4 3-5-6-4z"/>
		<path id="Path 829" class="s12" d="m456 577l7-1 1 7-5 2 2 6h13 2l2 26h-4v-1l-6-12v-7l-15 1-2-1-2-6 1-6 6-2z"/>
		<path id="Path 830" class="s73" d="m575 577l7-1 3 3v7l-13 1-2-8z"/>
		<path id="Path 831" class="s14" d="m785 579h-7v-3l7 1z"/>
		<path id="Path 832" class="s93" d="m130 587v-10l8 4-4 6z"/>
		<path id="Path 833" class="s23" d="m183 580v-3l21 6-3 8-13-7z"/>
		<path id="Path 834" class="s81" d="m280 579l8-2 2 6-1 2h-5z"/>
		<path id="Path 835" class="s43" d="m352 583v-6h4v6z"/>
		<path id="Path 836" class="s51" d="m585 579l9-2 6 2 3 7-5 3h-11l-2-3z"/>
		<path id="Path 837" class="s71" d="m702 585l4-8 5 2 6 4v1l4 5 6 8 3 10v8h-14l-3-3-1-7-9-11z"/>
		<path id="Path 838" class="s94" d="m785 579v-2l4 1v1z"/>
		<path id="Path 839" class="s28" d="m166 584l1-6 10 6-2 4-7-2z"/>
		<path id="Path 840" class="s16" d="m410 591l-2-11 4-2 10 1 1 8-3 4-4 2z"/>
		<path id="Path 841" class="s0" d="m789 579v-1l6 2z"/>
		<path id="Path 842" class="s34" d="m152 583v-4h6l1 4z"/>
		<path id="Path 843" class="s23" d="m267 587v-5l5-3h5 3l4 6v10l-4 3-8-3z"/>
		<path id="Path 844" class="s6" d="m98 585l-5-5 5 4z"/>
		<path id="Path 845" class="s21" d="m181 584l2-4 5 4-2 3z"/>
		<path id="Path 846" class="s56" d="m247 587l2-7h3l3 2-1 7h-4z"/>
		<path id="Path 847" class="s81" d="m255 582l7-2 1 7-2 8h-6l-1-2v-4z"/>
		<path id="Path 848" class="s13" d="m677 581l7-1 3 3 1 9-14-1 1-9z"/>
		<path id="Path 849" class="s29" d="m811 583l-6 1-7-4 8 1z"/>
		<path id="Path 850" class="s47" d="m838 587l1-7 9 1v4l-6 3z"/>
		<path id="Path 851" class="s1" d="m893 584l4-4-4 5z"/>
		<path id="Path 852" class="s84" d="m134 587l4-6h4l6 4v8h-10z"/>
		<path id="Path 853" class="s36" d="m216 583l1-2h8l3 6h5l1 6v6l-3 6h-4l-6-8 1-6z"/>
		<path id="Path 854" class="s45" d="m290 583l5-2 15 2v6l7 5 1 7-6 7-15-2v-5l-7-6-1-10z"/>
		<path id="Path 855" class="s31" d="m526 592l-2-6 2-5 16 2 2 12v7l6 4 2 9v7l1 11v4h-5l-2-5-4-3 1-23-2-3h-11z"/>
		<path id="Path 856" class="s66" d="m636 587l5-6h5l3 4v8h-11z"/>
		<path id="Path 857" class="s19" d="m848 585v-4h2l1 2v2z"/>
		<path id="Path 858" class="s39" d="m500 589l-4-2 1-5h8l1 5z"/>
		<path id="Path 859" class="s75" d="m813 583l1-1 5 3z"/>
		<path id="Path 860" class="s45" d="m150 585l2-2h7l7 1 2 2v9l-8-1z"/>
		<path id="Path 861" class="s34" d="m201 591l3-8h4 8l6 8-1 6h-8l-9-2z"/>
		<path id="Path 862" class="s47" d="m349 585l3-2h4l6 4 5 10v8l-7 3-5 1v4l-6 2-6-4-1-16 6-4z"/>
		<path id="Path 863" class="s38" d="m474 591h-13l-2-6 5-2 9 2z"/>
		<path id="Path 864" class="s68" d="m688 592l-1-9 15 2 1 9 9 11 1 7 3 3h14l-3 24v1l-3 2-3-3v-7l-9-3-4-4v-7l-5-8-7-1v-7z"/>
		<path id="Path 865" class="s65" d="m851 585v-2h9v8h-4-4z"/>
		<path id="Path 866" class="s46" d="m175 588l2-4h4l5 3v6l-8-1z"/>
		<path id="Path 867" class="s76" d="m186 587l2-3 13 7 3 4-4 4v7l5 6v7l-5 2v3l-3 7 3 2v6l-9-2-5-2-6-4v-9l3-5 7-2-4-22z"/>
		<path id="Path 868" class="s24" d="m446 591v-7l4 1-1 6z"/>
		<path id="Path 869" class="s48" d="m618 587l4-3 7 4 1 7-3 6h-9z"/>
		<path id="Path 870" class="s40" d="m649 585l7-1 4 1-3 12h-6l-2-4z"/>
		<path id="Path 871" class="s17" d="m721 589l-4-5 5 5z"/>
		<path id="Path 872" class="s18" d="m888 585l5-1v1l-6 4-10 1 5-2z"/>
		<path id="Path 873" class="s93" d="m148 593v-8h2l10 9-4 3h-8z"/>
		<path id="Path 874" class="s82" d="m284 595v-10h5l1 10z"/>
		<path id="Path 875" class="s24" d="m362 587l1-2h9l3 2v15l-7 4-1-1v-8z"/>
		<path id="Path 876" class="s18" d="m823 587l-4-2 4 1z"/>
		<path id="Path 877" class="s70" d="m842 588l6-3h3l1 6h-4l-5-1h-1v-1z"/>
		<path id="Path 878" class="s79" d="m168 595v-9l7 2 3 4-2 3z"/>
		<path id="Path 879" class="s16" d="m572 587l13-1 2 3-1 4-6 2h-8z"/>
		<path id="Path 880" class="s33" d="m598 589l5-3 4 1-6 14-3 2-3-1z"/>
		<path id="Path 881" class="s4" d="m823 587v-1l12 2z"/>
		<path id="Path 882" class="s79" d="m116 598v-6l7-5h7 4l4 6v10l-4 5-8-3-5-3-2-2z"/>
		<path id="Path 883" class="s81" d="m234 593l-1-6h3 2v6z"/>
		<path id="Path 884" class="s76" d="m238 593v-6h9l3 2v4 6 4h-7l-5-4z"/>
		<path id="Path 885" class="s90" d="m261 595l2-8h4l5 8 8 3v4l-4 2v7h-7l-10-4v-2l3-2z"/>
		<path id="Path 886" class="s56" d="m391 592l-1-5h5v5z"/>
		<path id="Path 887" class="s39" d="m420 591l3-4 6 4-3 5z"/>
		<path id="Path 888" class="s12" d="m500 589l6-2 8 3v4l-4 3h-10z"/>
		<path id="Path 889" class="s38" d="m601 601l6-14h11v14l-4 2z"/>
		<path id="Path 890" class="s58" d="m629 588l7-1 2 6-8 2z"/>
		<path id="Path 891" class="s27" d="m837 588l1-1 4 1v1z"/>
		<path id="Path 892" class="s32" d="m552 589h8l1 7-3 3-6-2z"/>
		<path id="Path 893" class="s3" d="m842 590l-6-2h1l5 1z"/>
		<path id="Path 894" class="s53" d="m250 593v-4h4v4z"/>
		<path id="Path 895" class="s12" d="m561 596l-1-7h2l5 6z"/>
		<path id="Path 896" class="s19" d="m586 593l1-4h11l-3 13 3 1-2 10h-6l-3-6h-4v-8l3-1z"/>
		<path id="Path 897" class="s0" d="m727 597l-6-8h1z"/>
		<path id="Path 898" class="s19" d="m514 594v-4h4l8 2 4 11-1 1-13 2-3-6z"/>
		<path id="Path 899" class="s6" d="m848 592l-5-2 5 1z"/>
		<path id="Path 900" class="s17" d="m869 591l7-1-7 2z"/>
		<path id="Path 901" class="s37" d="m416 593l4-2 6 5-1 4 3 2v3l-4 1-4-1z"/>
		<path id="Path 902" class="s80" d="m444 597l2-6h3l2 6z"/>
		<path id="Path 903" class="s16" d="m478 617l-2-26h13l9 7 3 9-1 6 4 16v16l-6-4-2-10-7 2-12-2-2-2v-1l5-4h3v-4z"/>
		<path id="Path 904" class="s90" d="m492 619l5 2v3l-5 2z"/>
		<path id="Path 905" class="s33" d="m670 609l4-18 14 1 8 10v7l-3 19 5 3v8l-8 7v11l-1 1h-7l-14-1h-2v-1-12l-8-5v-10l3-8 1-1 8-3z"/>
		<path id="Path 906" class="s94" d="m848 592v-1h4 4v1z"/>
		<path id="Path 907" class="s9" d="m856 592v-1h4 2v1z"/>
		<path id="Path 908" class="s91" d="m862 592v-1h7v1z"/>
		<path id="Path 909" class="s25" d="m176 595l2-3 8 1 4 22-7 2-5-8h-4z"/>
		<path id="Path 910" class="s32" d="m395 592l1 9-6-1 1-8z"/>
		<path id="Path 911" class="s6" d="m862 592v2l-6-2z"/>
		<path id="Path 912" class="s21" d="m138 603v-10h10v4l-3 8z"/>
		<path id="Path 913" class="s77" d="m234 599v-6h4v6z"/>
		<path id="Path 914" class="s77" d="m250 599v-6h4l1 2-1 4z"/>
		<path id="Path 915" class="s58" d="m580 595l6-2v5l-3 1z"/>
		<path id="Path 916" class="s49" d="m630 595l8-2h11l2 4h6l4 4 1 8v3h-14l-2-7h-6l-8 9v5 4h-7l-1 5h-2l-2-17 7-3v-7z"/>
		<path id="Path 917" class="s84" d="m156 597l4-3 8 1h8l-2 14-15-7z"/>
		<path id="Path 918" class="s76" d="m510 597l4-3-1 6z"/>
		<path id="Path 919" class="s92" d="m205 619v-7l-5-6v-7l4-4 9 2v3l-3 9 3 4h5v12h-4-8z"/>
		<path id="Path 920" class="s95" d="m254 599l1-4h6l1 8-3 2z"/>
		<path id="Path 921" class="s77" d="m280 598l4-3h6l7 6v5l-3 7h-2l-2-9-8-1-2-1z"/>
		<path id="Path 922" class="s48" d="m552 615l-2-9-6-4v-7l8 2 6 2 3-3 6-1h5l2 12v10l-2 2-11-2-3-3z"/>
		<path id="Path 923" class="s39" d="m574 607l-2-12h8l3 4v8z"/>
		<path id="Path 924" class="s6" d="m119 600l-6-3 3 1z"/>
		<path id="Path 925" class="s79" d="m145 605l3-8h8l3 5 15 7v8l6 5v9l-4-1h-1l-8-4-13-6-6-3-1-1-3-3z"/>
		<path id="Path 926" class="s76" d="m213 600v-3h8l6 8h4l3 8-2 5 5 8-1 13-23-1-1-5 2-3 4 3 7-1v-6l-7-1v-12l8 1 2-4z"/>
		<path id="Path 927" class="s30" d="m444 599v-2h7l2 1v4l6 4-3 5v7h-2l-10-12z"/>
		<path id="Path 928" class="s43" d="m453 598l15-1v7l-8 2h-1l-6-4z"/>
		<path id="Path 929" class="s32" d="m498 598l2-1h10l3 3 3 6v2l-2 8-2 1h-6l-2-4-3-6z"/>
		<path id="Path 930" class="s0" d="m730 607l-3-10 5 11z"/>
		<path id="Path 931" class="s34" d="m231 605l3-6h4l5 4h7l1 1-2 9h-4-11z"/>
		<path id="Path 932" class="s92" d="m250 603v-4h4l5 6v2l-8-3z"/>
		<path id="Path 933" class="s32" d="m428 602l3-3h7 6v7h-1-6l-3 2-6-3z"/>
		<path id="Path 934" class="s95" d="m218 613h-5l-3-4 3-9 15 10-2 4z"/>
		<path id="Path 935" class="s83" d="m312 608l6-7 6 5-3 7h-9z"/>
		<path id="Path 936" class="s51" d="m598 603l3-2 13 2v4l6 4 2 17-12 2-2-2-3-12-9-3z"/>
		<path id="Path 937" class="s52" d="m614 603l4-2h9v7l-7 3-6-4z"/>
		<path id="Path 938" class="s83" d="m276 611v-7l4-2 2 1v5z"/>
		<path id="Path 939" class="s41" d="m134 608l4-5 7 2-1 8h-2l-4-1z"/>
		<path id="Path 940" class="s84" d="m276 611l6-3v-5l8 1 2 9v2l-10 2v6l-4 3v11l-12 5-3-3h-27l1-13 7-2 1-11h4l8 4h9l3-6z"/>
		<path id="Path 941" class="s36" d="m516 606l13-2v6l-9 1-4-3z"/>
		<path id="Path 942" class="s16" d="m529 604l1-1h11l2 3-1 23-2 4-5 7h-3l-2-4v-8l-9-5-1-7v-5l9-1z"/>
		<path id="Path 943" class="s80" d="m249 613l2-9 8 3 10 4-3 6h-9z"/>
		<path id="Path 944" class="s32" d="m460 606l8-2 6 12-18 2v-7l5-1z"/>
		<path id="Path 945" class="s5" d="m138 612h-4l-8-7 8 3z"/>
		<path id="Path 946" class="s31" d="m360 608l7-3 1 1v5l-1 6-3 4h-4v-8z"/>
		<path id="Path 947" class="s24" d="m422 608l-2-3 4 1z"/>
		<path id="Path 948" class="s53" d="m424 606l4-1 6 3-2 14-5 1-1-6-3-1-1-3v-5z"/>
		<path id="Path 949" class="s45" d="m437 606h6l-1 2z"/>
		<path id="Path 950" class="s66" d="m632 619v-5l8-9h6l2 7-2 9h-6z"/>
		<path id="Path 951" class="s92" d="m294 613l3-7 15 2v5l-2 14v8h-10l-4-4 3-12 1-3z"/>
		<path id="Path 952" class="s84" d="m312 613h9l3-7h4l4 7 2 13-2 3-12 1h-2l-2-3h-6z"/>
		<path id="Path 953" class="s56" d="m434 608l3-2 5 2 1-2h1l10 12v5l-2 9 2 1v3l-4-3-4 2-10-1-4 1-5-2-1 4-7-2-4 2-1-2v-10l7-1h6v3h5v-5z"/>
		<path id="Path 954" class="s77" d="m456 611l3-5h1l1 4z"/>
		<path id="Path 955" class="s68" d="m355 613v-4l5-1v5z"/>
		<path id="Path 956" class="s77" d="m500 613l1-6 3 6z"/>
		<path id="Path 957" class="s47" d="m574 617v-10h9 4l3 6-2 13h-2l-2-3h-8z"/>
		<path id="Path 958" class="s11" d="m730 615v-8l2 1-1 25-2 4v1l-2 1z"/>
		<path id="Path 959" class="s56" d="m514 616l2-8 4 3v5z"/>
		<path id="Path 960" class="s42" d="m180 622l-6-5v-8h4l5 8z"/>
		<path id="Path 961" class="s43" d="m662 612v-3h8v8l-8 3z"/>
		<path id="Path 962" class="s40" d="m698 631l-5-3 3-19 7 1 5 8v7z"/>
		<path id="Path 963" class="s44" d="m332 613l4-2 2 4h5l1 1v14l-3 3h-7l-2-4 2-3z"/>
		<path id="Path 964" class="s19" d="m343 615v-4l6 4-1 1h-4z"/>
		<path id="Path 965" class="s89" d="m367 617l1-6 8 1-2 5z"/>
		<path id="Path 966" class="s6" d="m142 615l-4-3 4 1z"/>
		<path id="Path 967" class="s82" d="m374 617l2-5 6 3v10h-5l-3-2z"/>
		<path id="Path 968" class="s46" d="m646 621l2-9h14v8l-1 1z"/>
		<path id="Path 969" class="s9" d="m142 615v-2h2l3 3-3-1z"/>
		<path id="Path 970" class="s21" d="m237 626l-5-8 2-5h11l-1 11z"/>
		<path id="Path 971" class="s79" d="m292 615v-2h2l6 3-1 3h-5z"/>
		<path id="Path 972" class="s13" d="m349 615l6-2h5v8 6l-3 2h-5v-8l-4-5z"/>
		<path id="Path 973" class="s82" d="m421 616l1-3 1 3z"/>
		<path id="Path 974" class="s12" d="m504 629l-4-16h4l2 4h6v6l-5 6z"/>
		<path id="Path 975" class="s66" d="m588 626l2-13h6l9 3 3 12-12 1z"/>
		<path id="Path 976" class="s46" d="m552 615l6-1 3 3-1 4-8 1z"/>
		<path id="Path 977" class="s0" d="m148 617l-4-2 3 1z"/>
		<path id="Path 978" class="s21" d="m278 637v-11l4-3v-6l10-2 2 4h5l-3 12-10 4 1 5-3 2z"/>
		<path id="Path 979" class="s27" d="m341 633l3-3v-14h4l4 5v8l-2 8 5 6-1 4h-4l-6-2z"/>
		<path id="Path 980" class="s78" d="m421 624v-8h2l3 1 1 6v1z"/>
		<path id="Path 981" class="s45" d="m456 618l18-2v1l1 5-2 3-11-1-8-1v-5z"/>
		<path id="Path 982" class="s42" d="m512 617l2-1h6l1 7h-9z"/>
		<path id="Path 983" class="s12" d="m364 621l3-4h7v6l-10 4z"/>
		<path id="Path 984" class="s21" d="m475 622l-1-5h4l5 3v4h-3z"/>
		<path id="Path 985" class="s19" d="m552 622l8-1 1-4 11 2 2 5-2 11-5 6h-5l-2-8h-7z"/>
		<path id="Path 986" class="s31" d="m572 619l2-2 2 6v1h-2z"/>
		<path id="Path 987" class="s77" d="m200 624v-3l5-2 1 6-1 2z"/>
		<path id="Path 988" class="s43" d="m632 623v-4l8 2v6h-7z"/>
		<path id="Path 989" class="s85" d="m164 625l-10-5 13 6z"/>
		<path id="Path 990" class="s30" d="m360 627v-6h4v6z"/>
		<path id="Path 991" class="s49" d="m640 627v-6h6v4l-2 2z"/>
		<path id="Path 992" class="s20" d="m646 625v-4h15l-3 8z"/>
		<path id="Path 993" class="s92" d="m427 623l5-1v5h-5v-3z"/>
		<path id="Path 994" class="s38" d="m473 625l2-3 5 2-5 4z"/>
		<path id="Path 995" class="s80" d="m364 627l10-4 3 2-1 4-5 2v4l5-1 6 1 2 4-3 8h-9l-12-5v-8z"/>
		<path id="Path 996" class="s46" d="m454 633l-2-1 2-9 8 1 1 6z"/>
		<path id="Path 997" class="s37" d="m462 624l11 1 2 3v1l-10 2-2-1z"/>
		<path id="Path 998" class="s28" d="m507 629l5-6h9l9 5v8l-7-2-2 6-6 1z"/>
		<path id="Path 999" class="s48" d="m576 624v-1h8l2 3 2 14h-6l-4-5z"/>
		<path id="Path 1000" class="s40" d="m624 628l1-5h7l1 4-1 4-7-2z"/>
		<path id="Path 1001" class="s83" d="m200 633l-3-2 3-7 5 3 2 6h-1z"/>
		<path id="Path 1002" class="s51" d="m572 635l2-11h2l2 11z"/>
		<path id="Path 1003" class="s0" d="m175 630l-11-5 3 1z"/>
		<path id="Path 1004" class="s45" d="m205 627l1-2h8v5l-2 3h-5z"/>
		<path id="Path 1005" class="s80" d="m214 630v-5h4l7 1v6l-7 1z"/>
		<path id="Path 1006" class="s21" d="m376 629l1-4h5l11 3-3 6-2 5h-4l-2-4-6-1z"/>
		<path id="Path 1007" class="s40" d="m644 627l2-2 12 4v10h-6l-8-4z"/>
		<path id="Path 1008" class="s13" d="m698 631l10-6 4 4-2 10h-12z"/>
		<path id="Path 1009" class="s50" d="m588 640l-2-14h2l8 3v7l5 2v6l-6 1z"/>
		<path id="Path 1010" class="s83" d="m310 635v-8h6l2 3v7l-6-1z"/>
		<path id="Path 1011" class="s38" d="m357 629l3-2h4l-4 7z"/>
		<path id="Path 1012" class="s20" d="m632 631l1-4h7 4v8l-2 2h-10z"/>
		<path id="Path 1013" class="s34" d="m390 634l3-6h7l5 5v5l-10-2z"/>
		<path id="Path 1014" class="s20" d="m596 629l12-1 2 2-9 8-5-2z"/>
		<path id="Path 1015" class="s39" d="m610 630l12-2h2l1 1v8l-6 11-5 2-13-6v-6z"/>
		<path id="Path 1016" class="s21" d="m320 630l12-1 2 4h7l3 12 6 2 1 6h9l2 3v7 5l-11-3-3 2-18-10-2-12-4-3 2-6z"/>
		<path id="Path 1017" class="s53" d="m355 643l-5-6 2-8h5l3 5v8l-1 1z"/>
		<path id="Path 1018" class="s84" d="m376 634l-5 1v-4l5-2z"/>
		<path id="Path 1019" class="s34" d="m465 631l10-2 2 2-1 2h-4v4 4h-6z"/>
		<path id="Path 1020" class="s33" d="m504 645v-16h3l8 12 6-1 5 5 2 24h-3l-8-4-9-8v-8z"/>
		<path id="Path 1021" class="s51" d="m540 633l2-4 4 3z"/>
		<path id="Path 1022" class="s43" d="m625 637v-8l7 2v6z"/>
		<path id="Path 1023" class="s69" d="m710 639l2-10 9 3v7l3 3-3 3-7 3z"/>
		<path id="Path 1024" class="s17" d="m186 635l-10-5 4 1z"/>
		<path id="Path 1025" class="s25" d="m318 637v-7h2l6 6-2 6h-3z"/>
		<path id="Path 1026" class="s80" d="m454 633l9-3 2 1 1 10-7 3h-4l-1-8z"/>
		<path id="Path 1027" class="s84" d="m287 640l-1-5 10-4 4 4h10l2 1 2 9 7-3h3l4 3 2 12 18 10v6l-16-2h-8l-8-1-10-1h-1l-2-12h-16v-6-2l8-2-1-4z"/>
		<path id="Path 1028" class="s36" d="m476 633l1-2 12 2 7-2 2 10 6 4 4 4v8l9 8-4 1-5-1-3-2-4-1-12-5h-3l-1-5-15-1-4-5v-5h6 2l-1 5h6v-4l6-4-3-3-4 1h-2z"/>
		<path id="Path 1029" class="s39" d="m540 633l6-1 2 5-1 5 7-1h8 5l1 12-4 2h-9l-5-6-11-2-4-7z"/>
		<path id="Path 1030" class="s42" d="m200 639v-6h6v8l-5-1h-1z"/>
		<path id="Path 1031" class="s21" d="m206 641v-8h1 5l1 5 23 1h27l3 3 2 6-4 7-5 1h-4l-9-3-3-1-3-1-3-3-13-1h-5l-6-2z"/>
		<path id="Path 1032" class="s80" d="m405 638v-5l9 2 1 2-2 3h-3z"/>
		<path id="Path 1033" class="s25" d="m426 637l1-4 5 2 3 9 6 1h4l1 4h4v6 6h-4-8-6l-6-1z"/>
		<path id="Path 1034" class="s93" d="m436 634l10 1-1 10h-4v-7z"/>
		<path id="Path 1035" class="s84" d="m446 635l4-2 4 3 1 8-5 5h-4l-1-4z"/>
		<path id="Path 1036" class="s45" d="m472 637v-4h4v3z"/>
		<path id="Path 1037" class="s33" d="m553 637v-4h7l2 8h-8z"/>
		<path id="Path 1038" class="s16" d="m388 639l2-5 5 2v3z"/>
		<path id="Path 1039" class="s21" d="m432 635l4-1 5 4v7l-6-1z"/>
		<path id="Path 1040" class="s53" d="m521 640l2-6 7 2 2 4-3 4-3 1z"/>
		<path id="Path 1041" class="s93" d="m415 637l4-2 7 2v23l-1 4-10 1-3 6-4-4v-8l5-3-1-6 1-10z"/>
		<path id="Path 1042" class="s19" d="m478 636l4-1 3 3-6 4-1-1z"/>
		<path id="Path 1043" class="s62" d="m567 641l5-6h6l4 5-2 15-4 1-8-3z"/>
		<path id="Path 1044" class="s28" d="m642 637l2-2 8 4v10l-10-2z"/>
		<path id="Path 1045" class="s41" d="m321 642l-7 3-2-9 6 1z"/>
		<path id="Path 1046" class="s45" d="m395 639v-3l10 2 5 2 2 10 1 6-5 3h-4l-7-1v-1l1-6-3-2 2-5z"/>
		<path id="Path 1047" class="s30" d="m472 637l4-1h2v5h-4-2z"/>
		<path id="Path 1048" class="s0" d="m200 640l-9-3 9 2z"/>
		<path id="Path 1049" class="s42" d="m266 642l12-5 6 5 3 7v2h-5l-4-3-5 2-5-2z"/>
		<path id="Path 1050" class="s46" d="m554 641l-7 1 1-5h5z"/>
		<path id="Path 1051" class="s19" d="m619 648l6-11h7 10v10l10 2 1 6h-5l-1-2-10 2-9 2h-1l-4-1z"/>
		<path id="Path 1052" class="s6" d="m727 639l2-1-2 2z"/>
		<path id="Path 1053" class="s90" d="m381 647l3-8h4 7l2 5-2 5-5 2-6 1z"/>
		<path id="Path 1054" class="s46" d="m652 649v-10h6l8 5v12l-13-1z"/>
		<path id="Path 1055" class="s71" d="m690 657v-11l8-7h12l4 9-1 2h-1l-10 5h-1z"/>
		<path id="Path 1056" class="s0" d="m213 645l-12-5 5 1z"/>
		<path id="Path 1057" class="s53" d="m284 642l3-2 7 3 1 4-8 2z"/>
		<path id="Path 1058" class="s84" d="m412 650l-2-10h3z"/>
		<path id="Path 1059" class="s43" d="m529 644l3-4h3l4 7-2 3h-3z"/>
		<path id="Path 1060" class="s68" d="m580 655l2-15h6l7 5-1 9-5 3z"/>
		<path id="Path 1061" class="s6" d="m724 642l3-2-6 5z"/>
		<path id="Path 1062" class="s84" d="m459 644l7-3v5z"/>
		<path id="Path 1063" class="s84" d="m479 642v4h-6l1-5h4z"/>
		<path id="Path 1064" class="s45" d="m359 643l1-1 12 5v8l-10 1-2-3z"/>
		<path id="Path 1065" class="s84" d="m350 647h4l1-4h4l1 10h-9z"/>
		<path id="Path 1066" class="s21" d="m450 649l5-5h4l7 2 4 5 15 1 1 5-14 1-15 1-7-4z"/>
		<path id="Path 1067" class="s40" d="m526 645l3-1 5 6-3 1v4l7 4-2 9-8 1z"/>
		<path id="Path 1068" class="s40" d="m595 645l6-1 13 6 2 11-2 4h-7-3v-9l-10-2z"/>
		<path id="Path 1069" class="s5" d="m714 648l7-3-2 4-6 1z"/>
		<path id="Path 1070" class="s5" d="m225 649l-6-2h5z"/>
		<path id="Path 1071" class="s14" d="m225 649l-1-2 13 1 3 3h-2z"/>
		<path id="Path 1072" class="s76" d="m372 655v-8h9l3 5v5l-2 8h-4l-2-4v-4z"/>
		<path id="Path 1073" class="s28" d="m537 650l2-3 11 2 5 6h9v10l-6-2-3-5h-5l-2-3h-6z"/>
		<path id="Path 1074" class="s44" d="m259 656l5-1 4-7 5 2 5-2 4 3-2 8 6 2 1-4h16l2 12-12-2-7-2h-4l-7-2-7-2-2-1-6-2z"/>
		<path id="Path 1075" class="s64" d="m614 650l5-2 4 8-2 4-5 1z"/>
		<path id="Path 1076" class="s80" d="m390 651l5-2 3 2-1 6h-7z"/>
		<path id="Path 1077" class="s27" d="m538 659l-7-4v-4l3-1h3l5 5v4z"/>
		<path id="Path 1078" class="s6" d="m702 655l10-5-3 4z"/>
		<path id="Path 1079" class="s6" d="m243 652l-5-1h2z"/>
		<path id="Path 1080" class="s25" d="m287 657l-1 4-6-2 2-8h5z"/>
		<path id="Path 1081" class="s45" d="m384 652l6-1v6h-6z"/>
		<path id="Path 1082" class="s6" d="m246 654l-3-2 3 1z"/>
		<path id="Path 1083" class="s2" d="m246 654v-1l9 3v1z"/>
		<path id="Path 1084" class="s46" d="m564 655l4-2 8 3v5l4 2 1 5-12 1-5-4z"/>
		<path id="Path 1085" class="s11" d="m637 655l10-2 1 2z"/>
		<path id="Path 1086" class="s64" d="m589 657l5-3 10 2v9h-2l-1 4h-6l-4-1-1-2z"/>
		<path id="Path 1087" class="s12" d="m362 656l10-1 4 2v4l-14 2z"/>
		<path id="Path 1088" class="s79" d="m450 661v-6l7 4v1 2h-1z"/>
		<path id="Path 1089" class="s21" d="m542 659v-4h6l2 3v4z"/>
		<path id="Path 1090" class="s43" d="m576 656l4-1 9 2 1 9-10-3-4-2z"/>
		<path id="Path 1091" class="s15" d="m628 657l9-2v2l-3 2h-6z"/>
		<path id="Path 1092" class="s11" d="m666 657l-13-2 13 1z"/>
		<path id="Path 1093" class="s3" d="m690 657l11-2-12 4v-1z"/>
		<path id="Path 1094" class="s18" d="m255 657v-1h4l1 2h-2z"/>
		<path id="Path 1095" class="s79" d="m616 661l5-1 2-4 4 1-3 1-1 8h-8l-1-1z"/>
		<path id="Path 1096" class="s84" d="m382 665l2-8h6 7v1 6l-10 7z"/>
		<path id="Path 1097" class="s15" d="m472 658l14-1h3v2h-17z"/>
		<path id="Path 1098" class="s14" d="m489 659v-2l12 5z"/>
		<path id="Path 1099" class="s14" d="m615 666h8l1-8 3-1h1v2l-2 8h-12z"/>
		<path id="Path 1100" class="s3" d="m682 659l-14-2 14 1z"/>
		<path id="Path 1101" class="s5" d="m266 660l-8-2h2z"/>
		<path id="Path 1102" class="s81" d="m397 664v-6l7 1-3 5z"/>
		<path id="Path 1103" class="s0" d="m457 659l15-1v1l-15 1z"/>
		<path id="Path 1104" class="s22" d="m550 662v-4h5l3 5 6 2 5 4-4 2-12-1h-1v-2l2-3z"/>
		<path id="Path 1105" class="s4" d="m682 659v-1h7v1z"/>
		<path id="Path 1106" class="s41" d="m401 664l3-5h4v8z"/>
		<path id="Path 1107" class="s20" d="m536 668l2-9h4l8 3 4 3-2 3-6-1v4l-6-1z"/>
		<path id="Path 1108" class="s40" d="m425 664l1-4 6 1-1 3z"/>
		<path id="Path 1109" class="s86" d="m362 663l14-2 2 4h4l5 6v2h-3v3l4 4-26-12z"/>
		<path id="Path 1110" class="s7" d="m431 664l1-3h6v4z"/>
		<path id="Path 1111" class="s72" d="m438 665v-4h8v4z"/>
		<path id="Path 1112" class="s64" d="m446 665v-4h4l6 1-1 5z"/>
		<path id="Path 1113" class="s41" d="m455 667l1-5h1l2 2 2 3-5 2z"/>
		<path id="Path 1114" class="s6" d="m505 665l-4-3 4 1z"/>
		<path id="Path 1115" class="s14" d="m505 665v-2l3 2z"/>
		<path id="Path 1116" class="s27" d="m581 668l-1-5 10 3 1 2-1 1-7-1z"/>
		<path id="Path 1117" class="s82" d="m387 671l10-7h4l7 3 4 4 2 1-2 7-18-1-7-5z"/>
		<path id="Path 1118" class="s83" d="m412 671l3-6 10-1h6l7 1h8l9 2 1 2-2 8 6 2v7l-6 7h-14l-10-12h-8l-1-6-7-3z"/>
		<path id="Path 1119" class="s0" d="m461 667l-2-3 8 5z"/>
		<path id="Path 1120" class="s96" d="m348 667l3-2 11 3 26 12h1l7 5 18 4 26 11 16 3 12 7h6v6h-16l-7-2-5-2-3-1-3-1-7-3-6-2-4-3-4-2-11-5-17-5-12-5h-3l-6-2-2-1-5-3-9-4h-2l-4-2z"/>
		<path id="Path 1121" class="s14" d="m513 667l-5-2 5 1z"/>
		<path id="Path 1122" class="s97" d="m513 666l4-1 8 4v2l-4-1h-2l-6-3z"/>
		<path id="Path 1123" class="s97" d="m595 669h6l1-4 3 4-1 6h-3l-8-3v-1z"/>
		<path id="Path 1124" class="s2" d="m604 675l1-6-3-4h2 3v2 8z"/>
		<path id="Path 1125" class="s10" d="m607 667v-2h7l1 1-1 1z"/>
		<path id="Path 1126" class="s5" d="m306 670l-13-3 12 2h1z"/>
		<path id="Path 1127" class="s79" d="m456 669l5-2 6 2h2l10 5 1 2-2 10h-2l-8-3-2-4h-6l-6-2z"/>
		<path id="Path 1128" class="s27" d="m546 671v-4l6 1v2z"/>
		<path id="Path 1129" class="s21" d="m528 669l8-1 4 2-2 3h-6l-6-1-1-1v-2z"/>
		<path id="Path 1130" class="s9" d="m569 669l12-1h2l-1 2v2l-13 1h-4v-2z"/>
		<path id="Path 1131" class="s0" d="m582 670l1-2 7 1 3 2v1z"/>
		<path id="Path 1132" class="s93" d="m590 669l1-1 4 1-2 2z"/>
		<path id="Path 1133" class="s0" d="m306 670v-1l10 1z"/>
		<path id="Path 1134" class="s1" d="m324 672l-8-2 8 1z"/>
		<path id="Path 1135" class="s6" d="m526 672l-5-2 4 1z"/>
		<path id="Path 1136" class="s93" d="m538 673l2-3 6 1 6-1h1v5l-15-1z"/>
		<path id="Path 1137" class="s29" d="m553 675v-5l12 1v2l-11-1z"/>
		<path id="Path 1138" class="s6" d="m324 672v-1h8v1z"/>
		<path id="Path 1139" class="s17" d="m332 672v-1l16 2 4 2z"/>
		<path id="Path 1140" class="s81" d="m412 679l2-7 7 3 1 6h8l10 12h14l2 10-16-3-26-11 3-1v-4z"/>
		<path id="Path 1141" class="s6" d="m532 674l-6-2 6 1z"/>
		<path id="Path 1142" class="s17" d="m569 673l13-1-13 2z"/>
		<path id="Path 1143" class="s30" d="m388 680l-4-4v-3h3l7 5-5 2z"/>
		<path id="Path 1144" class="s29" d="m532 674v-1h6v1z"/>
		<path id="Path 1145" class="s6" d="m569 674l-4-1h4z"/>
		<path id="Path 1146" class="s1" d="m480 676l-1-2 7 5z"/>
		<path id="Path 1147" class="s93" d="m478 686l2-10 6 3 1 1 1 1 1 1v8h-5-3z"/>
		<path id="Path 1148" class="s89" d="m389 680l5-2 18 1 5 5v4l-3 1-18-4z"/>
		<path id="Path 1149" class="s95" d="m460 686v-7h6l2 4-1 3z"/>
		<path id="Path 1150" class="s6" d="m489 690v-8l2 8z"/>
		<path id="Path 1151" class="s88" d="m460 686h7l1-3 8 3 2 6 1 5-1 3-2 10h-2-6l-12-7-2-10z"/>
		<path id="Path 1152" class="s97" d="m478 692l-2-6h2l3 4z"/>
		<path id="Path 1153" class="s95" d="m478 692l3-2h3l1 1 2 2 4 2-1 3h-6l-5-1z"/>
		<path id="Path 1154" class="s2" d="m419 700l-8-1-3-4z"/>
		<path id="Path 1155" class="s18" d="m478 700l1-3 5 1-1 1-2 2 3 1v4z"/>
		<path id="Path 1156" class="s1" d="m483 699l1-1h6z"/>
		<path id="Path 1157" class="s97" d="m476 710l2-10 6 6 1 2z"/>
		<path id="Path 1158" class="s18" d="m485 708l-1-2 3 3z"/>
		<path id="Path 1159" class="s95" d="m476 710l9-2 2 1 1 6h-2l-12 1v-6z"/>
		<path id="Path 1160" class="s5" d="m474 716l12-1v2h-28v-1z"/>
	</g>
</svg>