<svg version="1.2" xmlns="http://www.w3.org/2000/svg" viewBox="0 0 1000 1000" width="1000" height="1000">
	<title>Ameiurus_natalis</title>
	<style>
		.s0 { opacity: .4;fill: #b6b1b8 } 
		.s1 { opacity: .4;fill: #e5e3e3 } 
		.s2 { opacity: .2;fill: #cfcfd2 } 
		.s3 { opacity: 1;fill: #7b777d } 
		.s4 { opacity: .2;fill: #bbb6bb } 
		.s5 { opacity: 1;fill: #666873 } 
		.s6 { opacity: .7;fill: #e1e1e1 } 
		.s7 { opacity: .6;fill: #9b9aa5 } 
		.s8 { fill: #524e52 } 
		.s9 { opacity: 1;fill: #bbbdc0 } 
		.s10 { fill: #44454f } 
		.s11 { opacity: .6;fill: #c1bbbd } 
		.s12 { fill: #776b61 } 
		.s13 { opacity: 1;fill: #3f4557 } 
		.s14 { opacity: .6;fill: #d3d2d5 } 
		.s15 { opacity: .2;fill: #e5e3e3 } 
		.s16 { fill: #675c59 } 
		.s17 { fill: #474445 } 
		.s18 { fill: #565048 } 
		.s19 { fill: #60564d } 
		.s20 { fill: #3d3f44 } 
		.s21 { opacity: 1;fill: #b2cdcc } 
		.s22 { fill: #645743 } 
		.s23 { fill: #4c473b } 
		.s24 { fill: #3b3936 } 
		.s25 { opacity: .8;fill: #cfcecf } 
		.s26 { fill: #363a41 } 
		.s27 { opacity: .8;fill: #857c8d } 
		.s28 { fill: #21242a } 
		.s29 { fill: #434039 } 
		.s30 { opacity: .8;fill: #a6a9b3 } 
		.s31 { opacity: 1;fill: #2a3034 } 
		.s32 { opacity: 1;fill: #30353a } 
		.s33 { opacity: 1;fill: #2f3745 } 
		.s34 { fill: #312e2e } 
		.s35 { opacity: 1;fill: #242b30 } 
		.s36 { opacity: .3;fill: #af9689 } 
		.s37 { fill: #353433 } 
		.s38 { opacity: .6;fill: #7e7e88 } 
		.s39 { opacity: 1;fill: #858390 } 
		.s40 { opacity: 1;fill: #a39da5 } 
		.s41 { opacity: .4;fill: #626576 } 
		.s42 { opacity: .2;fill: #9da1ab } 
		.s43 { opacity: .7;fill: #b7a49c } 
		.s44 { opacity: .3;fill: #2c3343 } 
		.s45 { opacity: .2;fill: #535a6b } 
		.s46 { opacity: 1;fill: #b1a9ba } 
		.s47 { opacity: .3;fill: #878d9b } 
		.s48 { opacity: .4;fill: #d1cfd1 } 
		.s49 { opacity: .7;fill: #5e6977 } 
		.s50 { opacity: .4;fill: #7a7d84 } 
		.s51 { fill: #2c2929 } 
		.s52 { fill: #564b38 } 
		.s53 { fill: #4f4434 } 
		.s54 { opacity: 1;fill: #d0b9ae } 
		.s55 { fill: #9c8a7d } 
		.s56 { fill: #826645 } 
		.s57 { fill: #907557 } 
		.s58 { fill: #58513f } 
		.s59 { fill: #6e5c48 } 
		.s60 { opacity: 1;fill: #8c5c38 } 
		.s61 { opacity: 1;fill: #54535e } 
		.s62 { opacity: 1;fill: #af7035 } 
		.s63 { fill: #8b7b6a } 
		.s64 { fill: #1d1d1e } 
		.s65 { fill: #a37448 } 
		.s66 { fill: #73634f } 
		.s67 { fill: #a78365 } 
		.s68 { fill: #675038 } 
		.s69 { fill: #bfa08a } 
		.s70 { fill: #764930 } 
		.s71 { fill: #b7916e } 
		.s72 { fill: #cfb097 } 
		.s73 { fill: #c69d70 } 
		.s74 { fill: #dcb491 } 
		.s75 { fill: #d7ae83 } 
		.s76 { fill: #dcb99f } 
		.s77 { fill: #caa27d } 
		.s78 { fill: #dec1ad } 
		.s79 { fill: #7f6c52 } 
		.s80 { fill: #e1c8b6 } 
		.s81 { fill: #bd8f5b } 
		.s82 { fill: #e3d0c8 } 
		.s83 { fill: #d7bba9 } 
		.s84 { opacity: 1;fill: #353e8e } 
		.s85 { opacity: .3;fill: #be73bf } 
		.s86 { opacity: 1;fill: #d3d5d5 } 
		.s87 { opacity: .3;fill: #8fd0c9 } 
		.s88 { opacity: .8;fill: #51cfcc } 
		.s89 { opacity: .3;fill: #23e0df } 
	</style>
	<g id="Background">
		<path id="Path 0" class="s0" d="m92 496h1v1h-1z"/>
		<path id="Path 1" class="s0" d="m93 495h1v1h-1z"/>
		<path id="Path 2" class="s1" d="m444 368l1-2h6l1 2z"/>
		<path id="Path 3" class="s2" d="m922 476h1v1h-1z"/>
		<path id="Path 4" class="s3" d="m434 370l10-2h8l12 2 5 5v16l-2 8v2l-3 7-2 3-3 3-6 3 2-16-2-15-18-4-2-10z"/>
		<path id="Path 5" class="s4" d="m414 373l9-3-8 3z"/>
		<path id="Path 6" class="s5" d="m415 373l8-3h3l7 2 2 10-2 6h-8l-8-6-2-8z"/>
		<path id="Path 7" class="s6" d="m433 372l-7-2h8z"/>
		<path id="Path 8" class="s7" d="m399 380l15-7h1v1l-10 5z"/>
		<path id="Path 9" class="s8" d="m405 379l10-5 2 8 8 6v10h-4l-14-4z"/>
		<path id="Path 10" class="s9" d="m109 380l3-4 6-1 2 1-1 3-2 1v-2l-7 2z"/>
		<path id="Path 11" class="s3" d="m110 380l7-2v2l-5 5v1l-1 1-4 4 2-4-2-3z"/>
		<path id="Path 12" class="s2" d="m117 380l2-1-2 2z"/>
		<path id="Path 13" class="s10" d="m399 380l6-1 2 15-17-2-3 8-9-1 13-14 5-3z"/>
		<path id="Path 14" class="s11" d="m95 401l4-12 10-9h1l-3 4-10 17z"/>
		<path id="Path 15" class="s9" d="m112 385l5-5v1l-3 3z"/>
		<path id="Path 16" class="s7" d="m396 381l3-1-3 2z"/>
		<path id="Path 17" class="s4" d="m391 385l5-4v1z"/>
		<path id="Path 18" class="s12" d="m433 388l2-6 18 4 2 15-2 16-1 2-7 4h-3l1-13-8-6v-6z"/>
		<path id="Path 19" class="s13" d="m97 401l10-17 2 3-2 4v2l-3 9-2 6v1l-2 5v2l-1 1-4-1v-1-6-2z"/>
		<path id="Path 20" class="s2" d="m112 385l2-1-2 2z"/>
		<path id="Path 21" class="s14" d="m369 405l19-20h3l-13 14-7 6z"/>
		<path id="Path 22" class="s15" d="m107 391l4-4-4 6z"/>
		<path id="Path 23" class="s16" d="m425 398v-10h8l2 10h-8z"/>
		<path id="Path 24" class="s17" d="m387 400l3-8 17 2 14 4v8 2h-14l-1-5z"/>
		<path id="Path 25" class="s2" d="m104 402l3-9-3 10z"/>
		<path id="Path 26" class="s18" d="m421 406v-8h4 2v8z"/>
		<path id="Path 27" class="s19" d="m427 406v-8h8v6l-6 3z"/>
		<path id="Path 28" class="s20" d="m371 405l7-6 9 1 19 3 1 5-5 5-13-1-11-1-1 7-1 2-17-2v-1z"/>
		<path id="Path 29" class="s4" d="m93 409l2-8v6 2z"/>
		<path id="Path 30" class="s21" d="m95 407v-6h2z"/>
		<path id="Path 31" class="s4" d="m102 408l2-6v1z"/>
		<path id="Path 32" class="s22" d="m429 407l6-3 8 6-1 13v1l-11 5h-2v-13z"/>
		<path id="Path 33" class="s11" d="m358 416l11-11h2l-12 12z"/>
		<path id="Path 34" class="s23" d="m421 408v-2h6l2 1v9h-6z"/>
		<path id="Path 35" class="s24" d="m389 412l13 1 5-5h14l2 8v8h-6l-6-4-7 2h-14l-1-4z"/>
		<path id="Path 36" class="s25" d="m93 415v-6h2v6z"/>
		<path id="Path 37" class="s26" d="m377 418l1-7 11 1v6z"/>
		<path id="Path 38" class="s2" d="m453 417l6-3-7 5z"/>
		<path id="Path 39" class="s27" d="m93 421v-6h2v1z"/>
		<path id="Path 40" class="s28" d="m93 421l2-5 4 1v7h-6v-1z"/>
		<path id="Path 41" class="s7" d="m99 417l1-1 1 21-2 1v-14z"/>
		<path id="Path 42" class="s7" d="m354 420l4-4 1 1v1l-5 3z"/>
		<path id="Path 43" class="s29" d="m423 424v-8h6v13l-6 2z"/>
		<path id="Path 44" class="s30" d="m118 420l5-2v2z"/>
		<path id="Path 45" class="s25" d="m123 420v-2l3 4-9 7z"/>
		<path id="Path 46" class="s31" d="m354 421l5-3 17 2v6l-9 5v6l12 7 22-1 13-4 4-6h1l14 1 7 1h14 2 11l14 2h5l10 2 1 5 8 2h20l2-4h12 7 1l12 2h6 2v6l7 4 48 1 19 14 27 1 13-8v-18l9-2h5 4l1 9 6 3 5 8h10 4l1 3 8 2 1-2h1l6-2h2l6-1h1 6l4 8v8h-14l-6 6-30 2-152-22h-10l-1-5-11-1-64-4-24-4h-28l-1 4-10-1-1-4-21 1-23-4-24 7-16 1-1 4-35 1-8-9v-8l24-6 16-4h2l7-2h1 5 2l1 4h6l2-2-2-4 3-3z"/>
		<path id="Path 47" class="s32" d="m376 420l1-2h12l1 4-5 4h-9z"/>
		<path id="Path 48" class="s25" d="m113 425v-3l5-2z"/>
		<path id="Path 49" class="s33" d="m113 425l5-5h5l-6 9-4 6-4-1z"/>
		<path id="Path 50" class="s14" d="m348 425l6-5v1z"/>
		<path id="Path 51" class="s34" d="m404 422l7-2 6 4v6h-6z"/>
		<path id="Path 52" class="s35" d="m376 426h9l5-4h14l7 8h6l1 3-4 6-13 4-22 1-12-7v-6z"/>
		<path id="Path 53" class="s6" d="m93 438l-2-1 2-14v1z"/>
		<path id="Path 54" class="s36" d="m442 424v-1h3z"/>
		<path id="Path 55" class="s10" d="m93 438v-14h6v14 1z"/>
		<path id="Path 56" class="s37" d="m417 430v-6h6v7l-4 2h-1z"/>
		<path id="Path 57" class="s0" d="m106 441v-8l7-8-4 9-1 4-1 3z"/>
		<path id="Path 58" class="s38" d="m336 428l12-3-3 3-7 2h-2z"/>
		<path id="Path 59" class="s11" d="m331 430l5-2v2z"/>
		<path id="Path 60" class="s35" d="m338 430l7-2 2 4-2 2h-6z"/>
		<path id="Path 61" class="s4" d="m113 435l4-6-3 9h-1v-1z"/>
		<path id="Path 62" class="s36" d="m423 431l6-2h2l-4 4h15v1h-2-7l-14-1z"/>
		<path id="Path 63" class="s39" d="m313 433l7-1h1l-16 4v-1l5-2z"/>
		<path id="Path 64" class="s2" d="m304 435l6-2-5 2z"/>
		<path id="Path 65" class="s2" d="m442 434v-1l14 2h-2z"/>
		<path id="Path 66" class="s28" d="m108 438l1-4 4 1v2l-2 1z"/>
		<path id="Path 67" class="s39" d="m440 435l-7-1h7z"/>
		<path id="Path 68" class="s40" d="m440 435v-1h2l12 1z"/>
		<path id="Path 69" class="s38" d="m280 440l24-5h1v1l-24 6h-2z"/>
		<path id="Path 70" class="s0" d="m486 437l12-1 1 3h-3z"/>
		<path id="Path 71" class="s41" d="m99 438l2-1v6h-1l-1-4z"/>
		<path id="Path 72" class="s3" d="m111 438l2-1v1 7l-2 1z"/>
		<path id="Path 73" class="s28" d="m93 446v-8l6 1 1 4 2 9v1l1 4 2 5 2-3h5l1 2 1 3 1 7 2 5v1l-4 5h-6l-7-8-5-16v-2z"/>
		<path id="Path 74" class="s35" d="m107 441l1-3h3v8l1 13h-5z"/>
		<path id="Path 75" class="s42" d="m113 445v-7h1v22h-1z"/>
		<path id="Path 76" class="s43" d="m504 439l9-1v2z"/>
		<path id="Path 77" class="s6" d="m513 440v-2l6 2z"/>
		<path id="Path 78" class="s35" d="m527 442l-2 4h-20l-8-2-1-5h3 5l9 1h6 7z"/>
		<path id="Path 79" class="s4" d="m268 445l12-5-1 2z"/>
		<path id="Path 80" class="s30" d="m527 442l-1-2 13 2z"/>
		<path id="Path 81" class="s25" d="m695 441l11 1h-7-4z"/>
		<path id="Path 82" class="s44" d="m104 457l2 1v-17h1v18l-2 3-2-5z"/>
		<path id="Path 83" class="s42" d="m546 442l12-1v1h-11z"/>
		<path id="Path 84" class="s2" d="m558 442v-1l8 2h-1z"/>
		<path id="Path 85" class="s4" d="m682 442l8-1v1z"/>
		<path id="Path 86" class="s44" d="m690 442v-1h5v1z"/>
		<path id="Path 87" class="s42" d="m708 442l8 1h-3-1z"/>
		<path id="Path 88" class="s32" d="m268 445l11-3h2v8l8 9 35-1 1 4v6l-7 2h-24l-9-6h-9l-13 16-8 3v5l-8 4-4-4h-8v-4l-14-8-2-4 1-3h-4l-12 6-7 4-3 2-3-2v-20l3-1 4-1 4-1 3-1h1l6-2h1l6-1h7l3 17 9 6 11 1 10-6v-9l-8-5v-6l8-2 2-1 6-2z"/>
		<path id="Path 89" class="s39" d="m559 444l-12-2h11z"/>
		<path id="Path 90" class="s30" d="m559 444l-1-2 7 1v1z"/>
		<path id="Path 91" class="s30" d="m681 443l1-1h8l-9 2z"/>
		<path id="Path 92" class="s32" d="m721 462h-10l-5-8-6-3-1-9h7 2l4 1 1 8 8 5z"/>
		<path id="Path 93" class="s2" d="m102 452l-2-9h1z"/>
		<path id="Path 94" class="s45" d="m565 444v-1h1 10v1h-3-6z"/>
		<path id="Path 95" class="s42" d="m576 444v-1h5v1z"/>
		<path id="Path 96" class="s2" d="m581 444v-1h5v1h-2z"/>
		<path id="Path 97" class="s15" d="m586 444v-1l6 2h-1z"/>
		<path id="Path 98" class="s2" d="m660 444l15-1v1z"/>
		<path id="Path 99" class="s45" d="m675 444v-1h6v1h-4z"/>
		<path id="Path 100" class="s20" d="m721 462v-6l-8-5-1-8h1l17 8 2 2 1 3-3 8-4 1-1-3z"/>
		<path id="Path 101" class="s7" d="m730 451l-17-8h3l12 5z"/>
		<path id="Path 102" class="s35" d="m681 444v18l-13 8-27-1-19-14-48-1-7-4v-6h6l12 2 6-1h1 8l2 1 16 1h1 4 1l25-2h10l18-1z"/>
		<path id="Path 103" class="s39" d="m585 446l-12-2h3 5 3z"/>
		<path id="Path 104" class="s40" d="m585 446l-1-2h2l5 1z"/>
		<path id="Path 105" class="s40" d="m659 445l1-1h15 2z"/>
		<path id="Path 106" class="s46" d="m111 446l2-1v15 1l-1-2z"/>
		<path id="Path 107" class="s4" d="m261 446l6-1-6 2z"/>
		<path id="Path 108" class="s47" d="m602 446l-2-1h11v1z"/>
		<path id="Path 109" class="s2" d="m611 446v-1l8 2h-1z"/>
		<path id="Path 110" class="s2" d="m623 447l8-2-7 2z"/>
		<path id="Path 111" class="s39" d="m624 447l7-2h18z"/>
		<path id="Path 112" class="s48" d="m256 448l5-2v1l-2 1z"/>
		<path id="Path 113" class="s32" d="m341 453l24-7 23 4 21-1 1 4-69 4z"/>
		<path id="Path 114" class="s5" d="m618 447l-16-1h9z"/>
		<path id="Path 115" class="s48" d="m860 448l10-2v2h-3l-7 1z"/>
		<path id="Path 116" class="s41" d="m870 448v-2h21v2h-4-12z"/>
		<path id="Path 117" class="s1" d="m891 448v-2l8 4-4-1z"/>
		<path id="Path 118" class="s20" d="m875 448h12v6l7 9 1 7 4 1 2 16-4 1-4-4-9-20-9-10z"/>
		<path id="Path 119" class="s6" d="m228 450l8-2v2z"/>
		<path id="Path 120" class="s11" d="m236 450v-2h11v2z"/>
		<path id="Path 121" class="s38" d="m247 450v-2h9 3l-8 2z"/>
		<path id="Path 122" class="s1" d="m730 451l-2-3 4 5z"/>
		<path id="Path 123" class="s14" d="m854 450l6-2v1l-4 1z"/>
		<path id="Path 124" class="s32" d="m860 449l7-1 2 16h-6l-8-9v-4l1-1z"/>
		<path id="Path 125" class="s26" d="m869 464l-2-16h3 5v6l9 10 9 20h-6z"/>
		<path id="Path 126" class="s10" d="m899 471l-4-1-1-7-7-9v-6h4l4 1v7l4 3z"/>
		<path id="Path 127" class="s13" d="m899 471v-12l-4-3v-7l4 1h1l7 5 10 9 2 3v1l3 6v2 1 2l1 6v3l-1 1-21-2z"/>
		<path id="Path 128" class="s4" d="m918 467h1v1h-1z"/>
		<path id="Path 129" class="s27" d="m219 451l8-1-1 2h-7z"/>
		<path id="Path 130" class="s31" d="m226 452l1-2h1 8 11 4v6l8 5v9l-10 6-11-1-9-6z"/>
		<path id="Path 131" class="s37" d="m420 454l1-4h28v6l-28 2z"/>
		<path id="Path 132" class="s32" d="m449 456v-6l24 4v4z"/>
		<path id="Path 133" class="s4" d="m830 454l20-4-2 2-8 2h-2z"/>
		<path id="Path 134" class="s49" d="m848 452l2-2h4 2l-1 1z"/>
		<path id="Path 135" class="s15" d="m907 455l-7-5 5 1z"/>
		<path id="Path 136" class="s4" d="m213 453l6-2v1z"/>
		<path id="Path 137" class="s37" d="m848 452l7-1v4l8 9h6l18 20h6l4 4v4l-4 1-16-1-1-7-8-1-15-9-2-6-8-4-3-11z"/>
		<path id="Path 138" class="s2" d="m103 457l-1-4 2 4z"/>
		<path id="Path 139" class="s37" d="m324 458l1-4 16-1v4l-9 5h-7z"/>
		<path id="Path 140" class="s24" d="m341 457l69-4 10 1 1 4 28-2 24 2 7 4 57 1 12 1h10l1 7 13 5 73 6 31 11 26 2 10 7 34-2 21-5 7-8v-17l2-13h46l-3 8-21-1-10 5v32l8 12 1 14 4 3 3 10 7 4 2 6 6 2 4 7 11 6v20h-1l-6-1h-3l-6-2v-10l-8-2-2-14-8-2-7-26-5-4v-11l-3-3-18 2-16-6-44 2-11-6h-19l-27-10-24-2-11-4-42-2-28-11-21-3-51-2-24-4-8 1-7 7h-8l-19-8h-12l-2-3h-7l-2 3-19-2-10 5-13 1h-18v-6h7z"/>
		<path id="Path 141" class="s4" d="m733 456l-1-3 2 3z"/>
		<path id="Path 142" class="s37" d="m473 458v-4l64 4v5l-57-1z"/>
		<path id="Path 143" class="s46" d="m829 455l1-1h8l-3 2z"/>
		<path id="Path 144" class="s34" d="m835 456l3-2h2l3 11 8 4 2 6 15 9 8 1 1 7h-13l-13-9-14-1-6 7-8 2-9 11-1 12 10 2v5l4 3 8 4h10 18l3 4 23 2v6h-11l-1 9-6 2v7l-8 8-13-1-5-13-10-2-4-11-18-6-15-22v-27l18-3 11-6 7-8z"/>
		<path id="Path 145" class="s4" d="m198 456l4-1v1l-4 1z"/>
		<path id="Path 146" class="s42" d="m202 456v-1h3z"/>
		<path id="Path 147" class="s2" d="m776 457l36-2-35 2z"/>
		<path id="Path 148" class="s39" d="m777 457l35-2h14l-3 2z"/>
		<path id="Path 149" class="s37" d="m823 457l3-2h3l6 1-1 11-7 8-11 6-18 3v27l15 22 18 6 4 11 10 2 5 13 13 1v8l-3 4h-8l-3 9h-3l-11-2v-20l-11-6-4-7-6-2-2-6-7-4-3-10-4-3-1-14-8-12v-32l10-5 21 1z"/>
		<path id="Path 150" class="s2" d="m917 464l-10-9 7 3z"/>
		<path id="Path 151" class="s11" d="m184 460l10-4v2l-3 1z"/>
		<path id="Path 152" class="s41" d="m194 458v-2h4v1z"/>
		<path id="Path 153" class="s50" d="m730 464l3-8h1l-3 9z"/>
		<path id="Path 154" class="s32" d="m768 458l5-1h3 1l-2 13h-14l-4-8 2-2z"/>
		<path id="Path 155" class="s11" d="m99 474l-5-9 1-7 5 16z"/>
		<path id="Path 156" class="s32" d="m537 463v-5l11 1 1 5z"/>
		<path id="Path 157" class="s33" d="m184 460l7-1v20l-16 9-32 1-4 17-6-1-6-9-26 2-2-4v-1l8-6v-5h6l4-5 7 3h2l25-9 18-6 6-2 8-3z"/>
		<path id="Path 158" class="s50" d="m113 461v-1h1v3 1z"/>
		<path id="Path 159" class="s42" d="m174 463l9-3-8 3z"/>
		<path id="Path 160" class="s49" d="m751 462l8-2-2 2z"/>
		<path id="Path 161" class="s29" d="m343 468l13-1 10-5 19 2 2-3h7l2 3h12l19 8h8l7-7 8-1 24 4 51 2 21 3 28 11 42 2 11 4 24 2 27 10h19l11 6 44-2 16 6 18-2 3 3v11h-10l-2 4h-12v-2l-3-8-11-2-26 4-28-2-3-4-19-2-15-6-27-2-25-12-39 1-7-5h-7l-10-7-20-5h-27l-5 3v5h-7l-1-4-25-2-4 18-9 10-22-3-21-5-1-4-5-1v-7l-6-6-11 2-20-4-6 2-12-4z"/>
		<path id="Path 162" class="s4" d="m114 464v-1l3 10-2-2z"/>
		<path id="Path 163" class="s47" d="m169 465l5-2h1z"/>
		<path id="Path 164" class="s26" d="m255 488v-5l8-3 13-16h9l9 6h24l-9 12h-6l-9-6h-13l-9 9-9 3z"/>
		<path id="Path 165" class="s37" d="m775 470v17l-7 8-21 5-34 2-10-7-26-2-31-11-73-6-13-5-1-7 152 22 2 8h39l10-5-1-11v-8z"/>
		<path id="Path 166" class="s3" d="m726 465l4-1 1 1h4l-1 2z"/>
		<path id="Path 167" class="s38" d="m151 470l18-5-18 6z"/>
		<path id="Path 168" class="s20" d="m318 470l7-2h18v8l-9 3-1 5h-10l-2 7h-4-6l-2 3-13 2h-12l-5 4-5 3-10 4-1-9v-10l9-3 9-9h13l9 6h6z"/>
		<path id="Path 169" class="s3" d="m204 475l12-6h4l-1 3-12 5h-2z"/>
		<path id="Path 170" class="s7" d="m126 480l12-7 13-3v1z"/>
		<path id="Path 171" class="s5" d="m117 476l-2-5 2 2z"/>
		<path id="Path 172" class="s26" d="m207 477l12-5 2 4 14 8v4l-26-7z"/>
		<path id="Path 173" class="s7" d="m117 476v-3l7 7-7-3z"/>
		<path id="Path 174" class="s7" d="m97 492l9-7-7-11h1l7 8v5l-8 6z"/>
		<path id="Path 175" class="s40" d="m197 479l7-4 1 2-6 4z"/>
		<path id="Path 176" class="s17" d="m333 484l1-5 9-3 12 4 2 26-14-2-3-10-2-6h-5z"/>
		<path id="Path 177" class="s23" d="m493 484v-5l5-3h27l20 5 10 7v8l-8 1-19-12z"/>
		<path id="Path 178" class="s20" d="m199 481l6-4h2l2 4 26 7h8l4 4v6l-6 1-1 3h-3l-11-10-29-8z"/>
		<path id="Path 179" class="s25" d="m922 479v-2h1v2z"/>
		<path id="Path 180" class="s0" d="m923 479v-2h1v6h-1z"/>
		<path id="Path 181" class="s23" d="m355 480l6-2 20 4 11-2 6 6v7l-1 7h-8l-6-10-14 2-2 17-2 1h-7l-1-4z"/>
		<path id="Path 182" class="s23" d="m425 503l22 3 9-10 4-18 25 2 1 4-3 9-10 6-2 5-7 1-3 5-14 6-22-6z"/>
		<path id="Path 183" class="s34" d="m711 486l30-2 6-6h14l1 11-10 5h-39z"/>
		<path id="Path 184" class="s26" d="m139 506l4-17 32-1 16-9 3 2-1 2-7 6-12 8-9 5-1 4-1 3h-2l-20 3h-2z"/>
		<path id="Path 185" class="s46" d="m194 481l3-2 2 2-2 3h-2l-2-1z"/>
		<path id="Path 186" class="s40" d="m923 485l-1-6h1v4z"/>
		<path id="Path 187" class="s51" d="m823 516l-10-2 1-12 9-11 8-2 6-7 14 1 13 9h13l16 1v9l-18 4h-14l-2 9 9 7 11-1 14 1 2 4v8h-6l-23-2-3-4h-18l-2-12v-9l-3-3-9 2v8z"/>
		<path id="Path 188" class="s40" d="m186 489l7-6 2 1-5 6h-2z"/>
		<path id="Path 189" class="s50" d="m923 485v-2h1v16h-1v-11z"/>
		<path id="Path 190" class="s10" d="m190 490l5-6h2l29 8 11 10-1 4-5 3-18-3-1-5-9-1-2-4h-11z"/>
		<path id="Path 191" class="s10" d="m321 491l2-7h10v4l-1 1-9 3z"/>
		<path id="Path 192" class="s52" d="m471 504l2-5 10-6 3-9h7l35 1 19 12 8-1 14 2 3 4 33-2 2 6-57 2-26-16z"/>
		<path id="Path 193" class="s32" d="m897 488l4-1 21 2-3 9h-4l-3-5-15-1z"/>
		<path id="Path 194" class="s10" d="m247 492l8-4h8v10h-8-8z"/>
		<path id="Path 195" class="s39" d="m332 489l1-1h5l2 6h-5z"/>
		<path id="Path 196" class="s53" d="m555 496v-8h7l7 5v5z"/>
		<path id="Path 197" class="s5" d="m922 489l1-1v11 1l-4-2z"/>
		<path id="Path 198" class="s54" d="m174 497l12-8 2 1-4 5-7 5h-2z"/>
		<path id="Path 199" class="s55" d="m323 492l9-3 3 5h5l3 10 2 16v12h-2l-14-3v-5-6l4-3v-11l-10-4z"/>
		<path id="Path 200" class="s8" d="m184 495l4-5h2v6l-5 1z"/>
		<path id="Path 201" class="s53" d="m367 509l2-17 14-2 6 10 2 20-7 4-5-1-3-9z"/>
		<path id="Path 202" class="s56" d="m309 494l2-3h6l2 14v19l-1 2h-11l-2-4z"/>
		<path id="Path 203" class="s57" d="m319 505l-2-14h4l2 1v8z"/>
		<path id="Path 204" class="s9" d="m94 495l3-3 2 1v1l-7 4v-1l1-1z"/>
		<path id="Path 205" class="s58" d="m471 504l53-12 26 16 57-2 11 5 2 5-1 2-23-2-1 4-30 4-15-3-21-13-46 1-4 7-26 7-6-3h-13l-12 15-17 7-14-2-4 4h-6-8v-4l-14-10-2-10 1-10h7v7l12 15 22 2 12-10 1-7 13-7 22 6 14-6 3-5z"/>
		<path id="Path 206" class="s23" d="m569 493l39-1 25 12 27 2 15 6 19 2 3 4-2 8-75-10-2-5-11-5-2-6-33 2-3-4z"/>
		<path id="Path 207" class="s28" d="m893 493l4-1 15 1 3 5h4l4 2v4l-1 2v1l-2 3v2l-2 3-3 5h-8v-11l-14-7z"/>
		<path id="Path 208" class="s53" d="m397 500l1-7 5 1 1 4z"/>
		<path id="Path 209" class="s20" d="m92 498l7-4 2 4 4 11v3 4l-12-5v-2l-2-9z"/>
		<path id="Path 210" class="s59" d="m296 496l13-2-4 28h-10v-4l3-1-1-9z"/>
		<path id="Path 211" class="s17" d="m177 500l7-5 1 2v11h-1-5z"/>
		<path id="Path 212" class="s32" d="m101 498l26-2 6 9 6 1v6l-11 3h-3l-9 1-9-5-2-2z"/>
		<path id="Path 213" class="s16" d="m185 497l5-1h11l2 4v8h-4-14z"/>
		<path id="Path 214" class="s60" d="m279 500l5-4h12l1 12-6 2-12-1z"/>
		<path id="Path 215" class="s0" d="m83 506l1-4 8-5v1l-1 2-6 6-2 1z"/>
		<path id="Path 216" class="s40" d="m164 506l1-4 9-5 1 3z"/>
		<path id="Path 217" class="s12" d="m240 502l1-3 6-1h8v6l5 6-6 9v6l-3 1h-6v-18l-3-2z"/>
		<path id="Path 218" class="s16" d="m260 510l-5-6v-6h8l1 9-2 3z"/>
		<path id="Path 219" class="s52" d="m397 500l7-2 21 5v7l-13 7-1 7-12 10-22-2-12-15v-7l2-1 9 5 3 9 5 1 7-4-2-20z"/>
		<path id="Path 220" class="s41" d="m923 500v-1h1v6h-1v-1z"/>
		<path id="Path 221" class="s8" d="m85 506l6-6 2 9z"/>
		<path id="Path 222" class="s20" d="m164 506l11-6h2l2 8-3 3-9 2-4-4z"/>
		<path id="Path 223" class="s61" d="m203 508v-8l9 1 1 5v1z"/>
		<path id="Path 224" class="s62" d="m274 503l5-3v9h-2z"/>
		<path id="Path 225" class="s63" d="m319 505l4-5 10 4v11l-4 3v6h-10z"/>
		<path id="Path 226" class="s63" d="m236 506l1-4h3l2 4z"/>
		<path id="Path 227" class="s64" d="m875 506l18-4 14 7v11l-3 5-9 1-2-4-14-1z"/>
		<path id="Path 228" class="s65" d="m264 507l10-4 3 6-10 11-5-10z"/>
		<path id="Path 229" class="s18" d="m345 520l-2-16 14 2 1 4-1 10z"/>
		<path id="Path 230" class="s28" d="m831 514v-8l9-2 3 3v9z"/>
		<path id="Path 231" class="s39" d="m922 506l1-2v1 1z"/>
		<path id="Path 232" class="s4" d="m923 506v-1h1v3h-2v-1z"/>
		<path id="Path 233" class="s1" d="m81 507l2-1v1l-1 3h-1z"/>
		<path id="Path 234" class="s66" d="m83 507l2-1 8 3v2l-10 5-1-1v-5z"/>
		<path id="Path 235" class="s57" d="m213 507v-1l18 3v7l-4 2h-7z"/>
		<path id="Path 236" class="s55" d="m231 509l5-3h6l3 2v18l-3 1-3-3v-5l-8-3z"/>
		<path id="Path 237" class="s28" d="m879 521l-11 1-9-7 2-9h14z"/>
		<path id="Path 238" class="s25" d="m922 506h1v1h-1z"/>
		<path id="Path 239" class="s67" d="m203 508l10-1 7 11h7l-1 6-8 7-12-11h-9l2-12z"/>
		<path id="Path 240" class="s49" d="m920 510l2-3v1 1z"/>
		<path id="Path 241" class="s12" d="m176 511l3-3h5l-2 5z"/>
		<path id="Path 242" class="s63" d="m176 511l6 2 2-5h1 14l-2 12-3 4-23-2-4-2v-7z"/>
		<path id="Path 243" class="s68" d="m291 510l6-2 1 9-3 1h-4z"/>
		<path id="Path 244" class="s22" d="m479 516l4-7 46-1 21 13 15 3v14h-6l-2-4h-6l-16-9-28-3z"/>
		<path id="Path 245" class="s31" d="m105 512v-3l2 2z"/>
		<path id="Path 246" class="s69" d="m141 512l20-3-5 9h-5-10z"/>
		<path id="Path 247" class="s56" d="m156 518l5-9h2l4 4v7z"/>
		<path id="Path 248" class="s70" d="m267 520l10-11h2l12 1v8l-14 10-8 1z"/>
		<path id="Path 249" class="s4" d="m920 510l2-1-1 4-1-1z"/>
		<path id="Path 250" class="s47" d="m81 515v-5h1v5z"/>
		<path id="Path 251" class="s67" d="m251 526l3-1v-6l6-9h2l5 10 2 9v4l-2 1-16-1z"/>
		<path id="Path 252" class="s70" d="m83 516l10-5 12 5 3 4-10 2-4 6-8-1-1-2-2-2v-5z"/>
		<path id="Path 253" class="s37" d="m105 512l2-1 9 5-1 3-7 1-3-4z"/>
		<path id="Path 254" class="s55" d="m128 515l11-3h2v6h-12z"/>
		<path id="Path 255" class="s11" d="m918 515l2-3 1 1 1 3v1h-1z"/>
		<path id="Path 256" class="s35" d="m823 516l8-2 12 2 2 12h-10l-8-4-4-3z"/>
		<path id="Path 257" class="s38" d="m81 518v-3h1l1 1v2z"/>
		<path id="Path 258" class="s60" d="m116 516l9-1-4 4h-6z"/>
		<path id="Path 259" class="s71" d="m121 519l4-4h3l1 3-3 5h-5z"/>
		<path id="Path 260" class="s33" d="m907 520h8l3-5 3 2 2 2v4l-1 4v1 1l-2 9h-13l-3-13z"/>
		<path id="Path 261" class="s69" d="m227 518l4-2 8 3v5h-8-5z"/>
		<path id="Path 262" class="s66" d="m453 523l26-7 28 6 2 7 34 7 6 7 15 4 7 8-2 11h-10v-8l-10-8h-9l-39-18h-8l-2-4h-12l-7 1-5 5 4 20h-2-9l-3-4-4-22z"/>
		<path id="Path 263" class="s18" d="m595 520l1-4 23 2 1-2 75 10v6l-8 8h-4l-11-6-30-2z"/>
		<path id="Path 264" class="s17" d="m697 518l28 2 26-4 11 2 3 8-20-4-2 4-9 2-1 4h-38v-6z"/>
		<path id="Path 265" class="s2" d="m922 517v-1h2v2h-1z"/>
		<path id="Path 266" class="s40" d="m923 519l-2-2h1l1 1z"/>
		<path id="Path 267" class="s6" d="m81 522v-4h2v5z"/>
		<path id="Path 268" class="s72" d="m126 523l3-5h12 10v6l-1 2-17 1-6-1z"/>
		<path id="Path 269" class="s73" d="m151 524v-6h5l11 2 4 2v6l6 4v2h-2-6l-10-9z"/>
		<path id="Path 270" class="s60" d="m277 528l14-10h4v4l-6 6v4l-4 4-8 1z"/>
		<path id="Path 271" class="s0" d="m923 518h1v1h-1z"/>
		<path id="Path 272" class="s62" d="m108 520l7-1h6v4l-10 9-8 5h-7l-2-9 4-6z"/>
		<path id="Path 273" class="s41" d="m923 523v-4h1v4z"/>
		<path id="Path 274" class="s71" d="m171 522l23 2 3-4h9l12 11-3 5-22-2-16-2-6-4z"/>
		<path id="Path 275" class="s59" d="m345 532v-12h12l2 10 14 10v4h-5l-1 4-7-6-1-4-4 2-5-1v-4z"/>
		<path id="Path 276" class="s22" d="m405 542l17-7 12-15h13l6 3v5l-8 1v7l-8 1v13 2h-16-10l-6-4z"/>
		<path id="Path 277" class="s19" d="m565 524l30-4 47 12 30 2 11 6v16l-18 5h-19l-3-6-26-5-7-3-5-9h-5l-1 5-17 1-2-3-15-3z"/>
		<path id="Path 278" class="s62" d="m289 532v-4l6-6h10l2 4-7 6z"/>
		<path id="Path 279" class="s59" d="m569 566l2-11-7-8-15-4-6-7-34-7-2-7 28 3 16 9h6l2 4h6l15 3 2 3 17-1 6 6 5-2 7 3v13l-29 1-5 4v10l-1 3-13 1z"/>
		<path id="Path 280" class="s10" d="m733 532l1-4 9-2 2-4 20 4v2 8h-13l-1-4-10 2z"/>
		<path id="Path 281" class="s6" d="m83 525v-2l2 2z"/>
		<path id="Path 282" class="s74" d="m111 532l10-9h5l1 3v6 6l-4 4h-8z"/>
		<path id="Path 283" class="s9" d="m922 527l1-4v4z"/>
		<path id="Path 284" class="s0" d="m923 527v-4h1v4z"/>
		<path id="Path 285" class="s75" d="m150 526l1-2 8 1 10 9h6l-1 7-19 1v-10z"/>
		<path id="Path 286" class="s76" d="m218 531l8-7h5v6l-4 18-9 7-7 3-18-2v-22l22 2z"/>
		<path id="Path 287" class="s77" d="m231 530v-6h8l3 3v3z"/>
		<path id="Path 288" class="s67" d="m318 526l1-2h10v5l-2 1h-6z"/>
		<path id="Path 289" class="s10" d="m777 528l2-4h10l5 4 7 26v2h-8v-5l-6-7-10-6z"/>
		<path id="Path 290" class="s15" d="m86 529l-3-4h2l1 2z"/>
		<path id="Path 291" class="s32" d="m895 526l9-1 3 13v4l-12-2v-6z"/>
		<path id="Path 292" class="s76" d="m127 532v-6l6 1v5z"/>
		<path id="Path 293" class="s74" d="m133 527l17-1 5 6v10l-11 4h-7l-4-14z"/>
		<path id="Path 294" class="s63" d="m242 527l3-1h6v7l-9-3z"/>
		<path id="Path 295" class="s73" d="m300 532l7-6h11l3 4h6v10h-18z"/>
		<path id="Path 296" class="s67" d="m86 529v-2l8 1 2 9-3 2v11h-4l-1-1-1-12 1-4v-2z"/>
		<path id="Path 297" class="s2" d="m922 527h1v1h-1z"/>
		<path id="Path 298" class="s36" d="m519 613h1v1h-1z"/>
		<path id="Path 299" class="s11" d="m517 611h1v1h-1z"/>
		<path id="Path 300" class="s65" d="m269 529l8-1v9h-3l-5-4z"/>
		<path id="Path 301" class="s16" d="m445 536v-7l8-1 4 22h-10z"/>
		<path id="Path 302" class="s12" d="m471 554l-4-20 5-5 7-1h12l2 4 2 24h-12z"/>
		<path id="Path 303" class="s13" d="m765 536v-8h12v10z"/>
		<path id="Path 304" class="s71" d="m327 530l2-1 14 3 1 8-1 4h-8l-8-4z"/>
		<path id="Path 305" class="s40" d="m920 538l2-9v10l-2 1z"/>
		<path id="Path 306" class="s74" d="m193 556l18 2 7-3 9-7 4-18h11l9 3 16 1 1 4-3 6h-12l-4 4v6l-10 2-2-4h-5l-11 13-24 2-21-1-2-9 2-2 7 1z"/>
		<path id="Path 307" class="s75" d="m103 537l8-5 4 10h8l4-4v-6h6l4 14-4 3v13l7 6-2 13-6 5-8-3v-7h-3l-12-8h-6l-7-9 2-5 3-2z"/>
		<path id="Path 308" class="s78" d="m177 534v-2l16 2v22h-10l2-16z"/>
		<path id="Path 309" class="s77" d="m285 536l4-4h11l9 8h18l8 4v7l-15-1-10-1-8-7-15-3z"/>
		<path id="Path 310" class="s56" d="m344 540l-1-8h2l5 3v4z"/>
		<path id="Path 311" class="s79" d="m495 556l-2-24h8l39 18h9l10 8v8l-2 8 2 7-13 8-5 11-3-1-5-4-5-5 7-20-19-2-3-4-17-5z"/>
		<path id="Path 312" class="s8" d="m683 540h4l8-8h38l8 2 10-2 1 4-19 9v9l4 4v2l-2 2h-5-7l-4-10-36 4z"/>
		<path id="Path 313" class="s15" d="m86 537l2-4-1 4z"/>
		<path id="Path 314" class="s73" d="m267 534l2-1 5 4-6 1z"/>
		<path id="Path 315" class="s80" d="m174 541l1-7h2l8 6-2 16-7-1z"/>
		<path id="Path 316" class="s31" d="m889 540v-6h6v6z"/>
		<path id="Path 317" class="s76" d="m277 537l8-1 2 3 15 3 8 7-2 3h-18l-5 6-36-4v-6l4-4h12l3-6 6-1z"/>
		<path id="Path 318" class="s59" d="m437 550v-13l8-1 2 14z"/>
		<path id="Path 319" class="s61" d="m737 558l-4-4v-9l19-9h13l12 2 10 6 6 7v5l1 20h-5l-9-2-2-2 1-11-11-7h-14l-3 8h-4-2z"/>
		<path id="Path 320" class="s42" d="m88 549l-2-12h1z"/>
		<path id="Path 321" class="s73" d="m93 550v-11l3-2h7l-2 15-3 2h-5z"/>
		<path id="Path 322" class="s79" d="m355 540l4-2 1 4z"/>
		<path id="Path 323" class="s16" d="m599 543l1-5h5l5 9-5 2z"/>
		<path id="Path 324" class="s13" d="m907 542v-4h13v2l-1 4v1l-2 3-2 1-2-5z"/>
		<path id="Path 325" class="s81" d="m344 540l6-1 5 1 5 2 7 6 14 2 8 1 3 7h-9l-4-3-12 1-11-1-2-3h-9l-2-8z"/>
		<path id="Path 326" class="s4" d="m920 540l2-1-3 5z"/>
		<path id="Path 327" class="s59" d="m387 544l4-4 14 2v6h-16z"/>
		<path id="Path 328" class="s28" d="m877 549l1-9h11 6l12 2 6 2 2 5-1 5v1l-2 4v1l-2 2h-5l-2-9z"/>
		<path id="Path 329" class="s82" d="m155 542l19-1 2 14-2 2h-8l-6 4-10 1-6-16z"/>
		<path id="Path 330" class="s73" d="m335 551v-7h8l2 8z"/>
		<path id="Path 331" class="s56" d="m367 548l1-4h5 8v6z"/>
		<path id="Path 332" class="s57" d="m381 550v-6h6l2 4h16l6 4h10v6l-7 4h-7l-3-4h-12l-3-7z"/>
		<path id="Path 333" class="s80" d="m140 568l-7-6v-13l4-3h7l6 16-5 6z"/>
		<path id="Path 334" class="s2" d="m915 549l2-1-3 6z"/>
		<path id="Path 335" class="s2" d="m89 552l-1-3 1 1z"/>
		<path id="Path 336" class="s78" d="m285 558l5-6h18l2-3 10 1v5l-6 5v6l5 6h28l1-4 8-5v-8l11 1-4 22-2 1-14 1-9-2-8 3v5l-5 4 2 10v1l-26 5-8-37-8-5z"/>
		<path id="Path 337" class="s64" d="m871 558v-7l6-2 26 4 2 9h-12l-6-1-2-3z"/>
		<path id="Path 338" class="s40" d="m89 552v-2h4v4 2z"/>
		<path id="Path 339" class="s80" d="m356 555v8l-8 5-1 4h-28l-5-6v-6l6-5v-5l15 1 10 1h9z"/>
		<path id="Path 340" class="s66" d="m437 552v-2h10v10l-4 4-6-2z"/>
		<path id="Path 341" class="s52" d="m447 560v-10h10l3 4-1 6z"/>
		<path id="Path 342" class="s22" d="m617 563v-13l26 5 3 6-3 5h-6z"/>
		<path id="Path 343" class="s75" d="m174 557l2 9 21 1 24-2 11-13h5l2 4v10l-16 9-2-3h-17l-1 4-28-3v-3l-10-1-5-8 6-4z"/>
		<path id="Path 344" class="s79" d="m421 558v-6h16v10z"/>
		<path id="Path 345" class="s23" d="m683 556l36-4 4 10-2 4h-16l-40 4v-9z"/>
		<path id="Path 346" class="s69" d="m93 556v-2h5l-2 5z"/>
		<path id="Path 347" class="s83" d="m239 556l10-2 36 4v6l8 5 8 37-26-2v-16l-8-3-14-14-14-5z"/>
		<path id="Path 348" class="s53" d="m447 560h12l1-6h9l4 18h-11l8 10v6l-11-3-9-7-7-14z"/>
		<path id="Path 349" class="s68" d="m473 572l-4-18h2l12 2 2 15-8 1z"/>
		<path id="Path 350" class="s16" d="m751 562l3-8h14l11 7-1 11-7-1h-2l-5-2h-2l-6-3z"/>
		<path id="Path 351" class="s17" d="m801 556v-2l8 2 2 14-1 10-6-1h-2v-1z"/>
		<path id="Path 352" class="s83" d="m367 556l12-1 4 3 3 18-3 4h-10l-10-2z"/>
		<path id="Path 353" class="s56" d="m485 571l-2-15h12l1 3 17 5 3 4 19 2-7 20h-2l-7-8-4 2h-4-4v-8l-6-2-10-2z"/>
		<path id="Path 354" class="s8" d="m794 576l-1-20h8l1 22-8-1z"/>
		<path id="Path 355" class="s72" d="m383 580l3-4-3-18h9 12l3 4-2 22h-13l-5 5 1-3 3-4z"/>
		<path id="Path 356" class="s67" d="m414 562l7-4 16 4 6 2 7 14-2 4h-14l-2 7v8l-3-3-1-2v-1l-2-3-2-4h-1v-6l-4-1v-7z"/>
		<path id="Path 357" class="s30" d="m737 560v-2l8 4v3z"/>
		<path id="Path 358" class="s31" d="m863 566l8-8h14l2 3-2 7-15 7-7-1z"/>
		<path id="Path 359" class="s52" d="m646 561h19v9h-6l-4 6h-4-14v-10h6z"/>
		<path id="Path 360" class="s17" d="m735 562l2-2 8 5h1v2l-1 5-8-1-2-5z"/>
		<path id="Path 361" class="s2" d="m910 562l2-2-3 6z"/>
		<path id="Path 362" class="s77" d="m150 562l10-1 5 8 10 1v3l-5 5h-14l-1 8h-2-7l-8-5 2-13h5z"/>
		<path id="Path 363" class="s33" d="m870 575l15-7 2-7 6 1 1 17-6 5-6 2h-13z"/>
		<path id="Path 364" class="s69" d="m405 584l2-22h7l5 8v7l-2 7z"/>
		<path id="Path 365" class="s24" d="m721 566l2-4h7l1 4h4l2 5 8 1 3 6v7l8 8-1 2-2 2-4-4-10 1-9-1-4-22z"/>
		<path id="Path 366" class="s29" d="m735 566h-4l-1-4h5z"/>
		<path id="Path 367" class="s4" d="m745 565v-3h2l-1 3z"/>
		<path id="Path 368" class="s27" d="m746 565l1-3h4l5 4h-2l-5-1z"/>
		<path id="Path 369" class="s20" d="m894 579l-1-17h12 5l-1 4-9 12h-3z"/>
		<path id="Path 370" class="s68" d="m583 578v-10l5-4 29-1 20 3v10h-2l-15 2-1 5h-6l-15-1-1-4z"/>
		<path id="Path 371" class="s24" d="m665 570l40-4v6l-5 2-1 8-17-2-27-4 4-6z"/>
		<path id="Path 372" class="s25" d="m746 567v-2h3l5 9z"/>
		<path id="Path 373" class="s54" d="m223 575l16-9 14 5 14 14 8 3v16h-3l-8-2-1-1-8-1-1-1-6-1-6-2-5-2-3-2-1-1-10-1 2-2z"/>
		<path id="Path 374" class="s2" d="m254 599h1v1h-1z"/>
		<path id="Path 375" class="s56" d="m559 581l-2-7 2-8h10v16h-1z"/>
		<path id="Path 376" class="s37" d="m699 582l1-8 5-2v-6h16l5 5 4 22-9 4z"/>
		<path id="Path 377" class="s1" d="m762 569l-8-3h2z"/>
		<path id="Path 378" class="s61" d="m745 572l1-5 8 7v1l-1 3h-5z"/>
		<path id="Path 379" class="s78" d="m104 587l-1-19h6l12 8 1 8-1 12-16-4z"/>
		<path id="Path 380" class="s29" d="m810 580l1-10 8 2v10h-2l-6-1h-1z"/>
		<path id="Path 381" class="s67" d="m477 572l8-1 6 1v6h-5l-2 4-7 1-2-1z"/>
		<path id="Path 382" class="s4" d="m780 574l-9-3 7 1z"/>
		<path id="Path 383" class="s77" d="m203 576l1-4h17l2 3 2 13-2 2h-3l-13-1v-8z"/>
		<path id="Path 384" class="s62" d="m470 582l-8-10h11 4l-2 10z"/>
		<path id="Path 385" class="s55" d="m491 578v-6l10 2v4z"/>
		<path id="Path 386" class="s73" d="m155 586l1-8h14l5-5 28 3 4 5v8h-16l-8-1-21-1z"/>
		<path id="Path 387" class="s63" d="m501 578v-4l6 2v8h-6z"/>
		<path id="Path 388" class="s32" d="m860 578l3-4 7 1-1 11h-2l-4 1h-1z"/>
		<path id="Path 389" class="s4" d="m121 576h3v7l-2 1z"/>
		<path id="Path 390" class="s14" d="m753 578l1-3 3 5h-1z"/>
		<path id="Path 391" class="s29" d="m619 583l1-5 15-2v10l-9 2z"/>
		<path id="Path 392" class="s24" d="m635 586v-10h2 14v6l-2 4z"/>
		<path id="Path 393" class="s37" d="m651 582v-6h4l27 4z"/>
		<path id="Path 394" class="s7" d="m794 578l-5-2h5v1z"/>
		<path id="Path 395" class="s71" d="m417 584l2-7 4 1v6z"/>
		<path id="Path 396" class="s41" d="m794 578v-1l8 1v1z"/>
		<path id="Path 397" class="s83" d="m327 600l-2-10 5-4v-5l8-3 9 2v12l-2 1-13 7z"/>
		<path id="Path 398" class="s69" d="m361 579l2-1 10 2-5 3-7 2z"/>
		<path id="Path 399" class="s57" d="m448 582l2-4 9 7-3 4z"/>
		<path id="Path 400" class="s60" d="m484 582l2-4h5 10v6h-2-11z"/>
		<path id="Path 401" class="s53" d="m582 581l1-3h14l1 4-4 4h-8z"/>
		<path id="Path 402" class="s10" d="m756 593l-8-8v-7h5l3 2 4 4-1 6z"/>
		<path id="Path 403" class="s26" d="m849 587l3-9h8l2 9h-7z"/>
		<path id="Path 404" class="s2" d="m894 579l3-1-9 6z"/>
		<path id="Path 405" class="s72" d="m347 580l14-1v6l-4 7h-10z"/>
		<path id="Path 406" class="s42" d="m810 581l-6-2 6 1z"/>
		<path id="Path 407" class="s51" d="m368 583l5-3h10l8 2-3 4h-7l2 6-9 2-3-1z"/>
		<path id="Path 408" class="s34" d="m651 582l31-2 17 2 22 15v5l-10 2v10l-9 2 1-8-11-15-37-1-4 5 2 25-1 2h-3l-8 2h-4-14v-1-11l-6-7-2-8 11-11 9-2h14z"/>
		<path id="Path 409" class="s7" d="m759 590l1-6-4-4h1l5 3-1 7h-1z"/>
		<path id="Path 410" class="s17" d="m541 600l5-11 13-8 9 1v8l-5 6-3 12-9-2h-1l-4-2-5-3z"/>
		<path id="Path 411" class="s29" d="m569 582l13-1 4 5-4 7-10 2-3 14v3l-5-1-4-3 3-12 5-6v-8z"/>
		<path id="Path 412" class="s24" d="m432 589l2-7h14l8 7 8 9 2 8-3 6h-13l-9-12v-8z"/>
		<path id="Path 413" class="s56" d="m470 588v-6h5l2 1 3 2h1v1l-4 6z"/>
		<path id="Path 414" class="s30" d="m477 583l7-1 4 2-8 1z"/>
		<path id="Path 415" class="s36" d="m515 584l4-2 7 8v1l-5-2-3-6z"/>
		<path id="Path 416" class="s24" d="m586 586h8l4-4 15 1v5l-4 4-24 4-16 13 3-14 10-2z"/>
		<path id="Path 417" class="s54" d="m122 584l2-1 8 3-1 6-2 5-8-1z"/>
		<path id="Path 418" class="s34" d="m361 585l7-2 3 10-2 1h-2l-9-2h-1z"/>
		<path id="Path 419" class="s37" d="m569 609l16-13 24-4 4-4v-5h6l7 5-11 11 2 8 6 7v11h-4l-6-1h-5-3l-6-2h-3l-4-1-4-2-10-4h-1l-4-1h-1l-3-2z"/>
		<path id="Path 420" class="s6" d="m511 584l-1 2-11-2h2 6z"/>
		<path id="Path 421" class="s49" d="m834 586l-6-2 6 1z"/>
		<path id="Path 422" class="s84" d="m383 592l-2-6h7l-1 3z"/>
		<path id="Path 423" class="s79" d="m456 589l3-4 11 3 7 4 4-6 8 4 5 4 3 4-5 15-7 5-9-1-1-5-9-6-2-8z"/>
		<path id="Path 424" class="s30" d="m481 586v-1l8 5z"/>
		<path id="Path 425" class="s7" d="m834 586v-1h1l11 2v1z"/>
		<path id="Path 426" class="s0" d="m162 588l-9-2h2l7 1z"/>
		<path id="Path 427" class="s2" d="m863 587l4-1-3 3-9-1z"/>
		<path id="Path 428" class="s48" d="m882 586l-1 2-12-2z"/>
		<path id="Path 429" class="s2" d="m105 595l-1-8 1 5z"/>
		<path id="Path 430" class="s36" d="m162 588v-1l21 1z"/>
		<path id="Path 431" class="s44" d="m846 588v-1h3 6v1z"/>
		<path id="Path 432" class="s3" d="m855 588v-1h7 1z"/>
		<path id="Path 433" class="s47" d="m383 592l4-3-4 5z"/>
		<path id="Path 434" class="s20" d="m432 597v-8l9 3v8h-5z"/>
		<path id="Path 435" class="s2" d="m233 591l-13-1h3z"/>
		<path id="Path 436" class="s46" d="m494 594l-5-4 5 3z"/>
		<path id="Path 437" class="s30" d="m526 591v-1h2l5 5h-2z"/>
		<path id="Path 438" class="s43" d="m756 593l3-3h1l-1 3-2 2h-2z"/>
		<path id="Path 439" class="s15" d="m759 593l1-3h1z"/>
		<path id="Path 440" class="s80" d="m105 595v-3l16 4 8 1v2l-2 5v4l-4 1 1 7-8 3-5-1 2-7-6-12-1-3z"/>
		<path id="Path 441" class="s48" d="m129 597l2-5-2 7z"/>
		<path id="Path 442" class="s42" d="m345 593l2-1h10z"/>
		<path id="Path 443" class="s27" d="m374 594l9-2v2l-9 2z"/>
		<path id="Path 444" class="s51" d="m653 622l-2-25 4-5 37 1 11 15-1 8-13 1-6 2h-2l-9 2h-1-1-7l-1 1h-1z"/>
		<path id="Path 445" class="s43" d="m369 594l2-1 3 1v2z"/>
		<path id="Path 446" class="s27" d="m494 594v-1l8 7-5-2z"/>
		<path id="Path 447" class="s32" d="m721 597l9-4 9 1v12l-9 5-5-1-4-8z"/>
		<path id="Path 448" class="s26" d="m739 594l10-1 4 4-1 2-3 2-3 2-7 3z"/>
		<path id="Path 449" class="s2" d="m433 601l-4-7 3 3z"/>
		<path id="Path 450" class="s42" d="m538 599l-7-4h2z"/>
		<path id="Path 451" class="s42" d="m753 597l2-2h2l-5 4z"/>
		<path id="Path 452" class="s67" d="m433 601l-1-4 4 3v4z"/>
		<path id="Path 453" class="s12" d="m485 618l7-5 5-15 5 2 6 3 5 7-5 24h-7l-12-4z"/>
		<path id="Path 454" class="s42" d="m541 601l-3-2 3 1z"/>
		<path id="Path 455" class="s4" d="m327 601v-1h5z"/>
		<path id="Path 456" class="s19" d="m436 604v-4h5l9 12-1 7-3-1-1-1-2-3-3-4-4-5z"/>
		<path id="Path 457" class="s31" d="m711 614v-10l10-2 4 8-2 3z"/>
		<path id="Path 458" class="s11" d="m513 610l-5-7 9 8z"/>
		<path id="Path 459" class="s52" d="m463 612l3-6 9 6 1 5-3 7-10-2z"/>
		<path id="Path 460" class="s47" d="m563 611l-12-5 9 2 4 3z"/>
		<path id="Path 461" class="s30" d="m124 616l-1-7 4-1v7l3 2z"/>
		<path id="Path 462" class="s3" d="m508 634l5-24 4 1 1 1 1 1 1 1 2 3v4l-2 7-1 2-3 3-5 3-3 1z"/>
		<path id="Path 463" class="s42" d="m572 614l-9-3h1l5 1z"/>
		<path id="Path 464" class="s18" d="m449 619l1-7h13v10l-8 5z"/>
		<path id="Path 465" class="s5" d="m578 616v-1l10 4h-2-2l-5-2z"/>
		<path id="Path 466" class="s4" d="m578 616h1v1h-1z"/>
		<path id="Path 467" class="s82" d="m116 619l8-3 6 1 17 18-4 4-5-3-2-2-2-2-2-2-3-1 1 2 2 3 2 5-7 3-1-1-4-7-1-3-2-5z"/>
		<path id="Path 468" class="s48" d="m126 641h1v1h-1z"/>
		<path id="Path 469" class="s18" d="m473 624l3-7 9 1 4 12-9 7v4h-2-1l-2-2z"/>
		<path id="Path 470" class="s9" d="m110 621l1-3 5 1 3 7-2 3h-7z"/>
		<path id="Path 471" class="s48" d="m455 628l-9-7v-3l3 1 6 8z"/>
		<path id="Path 472" class="s4" d="m591 621l-5-2h2l4 2z"/>
		<path id="Path 473" class="s0" d="m109 630l1-9v8z"/>
		<path id="Path 474" class="s2" d="m596 622l-5-1h1z"/>
		<path id="Path 475" class="s42" d="m662 622l1-1h7 1z"/>
		<path id="Path 476" class="s19" d="m455 627l8-5 10 2 2 15h-1-1l-3-1-7-4-8-6z"/>
		<path id="Path 477" class="s30" d="m652 624l1-2h8z"/>
		<path id="Path 478" class="s6" d="m613 626l-5-2h5z"/>
		<path id="Path 479" class="s27" d="m613 626v-2l6 1z"/>
		<path id="Path 480" class="s48" d="m637 626l-1 2-13-2z"/>
		<path id="Path 481" class="s82" d="m110 629h7l-1 4-1 12-7 1 1-16z"/>
		<path id="Path 482" class="s15" d="m130 631l-1-2 3 1z"/>
		<path id="Path 483" class="s2" d="m130 631l2-1 2 2-2 2z"/>
		<path id="Path 484" class="s61" d="m480 641v-4l9-7 12 4-3 7-13 1z"/>
		<path id="Path 485" class="s2" d="m115 645l1-12v12z"/>
		<path id="Path 486" class="s85" d="m470 638h-5l-2-4z"/>
		<path id="Path 487" class="s5" d="m498 641l3-7h7v3 1l-3 2z"/>
		<path id="Path 488" class="s86" d="m143 639l4-4 5 3-1 6z"/>
		<path id="Path 489" class="s15" d="m508 637l3-1-3 2z"/>
		<path id="Path 490" class="s21" d="m151 644l1-6 7 3 2 1 1 5h-5l-2-1z"/>
		<path id="Path 491" class="s21" d="m127 642l7-3 3 6 10 5 4 16-16-13-18-1-6-1-3-5 7-1h1 2l12 2-2-3z"/>
		<path id="Path 492" class="s4" d="m477 641l-3-2h1z"/>
		<path id="Path 493" class="s27" d="m498 641l7-1-6 4-14-1v-1z"/>
		<path id="Path 494" class="s42" d="m161 642l-2-1h3v1z"/>
		<path id="Path 495" class="s87" d="m162 642v-1l4 1z"/>
		<path id="Path 496" class="s4" d="m485 643l-7-2h2l5 1z"/>
		<path id="Path 497" class="s40" d="m162 647l-1-5h1 4l1 1 1 4z"/>
		<path id="Path 498" class="s48" d="m118 645l10-1 2 3z"/>
		<path id="Path 499" class="s87" d="m168 647h-11 5z"/>
		<path id="Path 500" class="s46" d="m151 666l-4-16 7 3 3 7 3 4v1 5h-1-1l-2-1h-1z"/>
		<path id="Path 501" class="s48" d="m160 664l-3-4 4 2z"/>
		<path id="Path 502" class="s88" d="m160 670v-5l2 5h-1z"/>
		<path id="Path 503" class="s89" d="m156 671v-2l2 1v1z"/>
		<path id="Path 504" class="s1" d="m158 670h1v1h-1z"/>
		<path id="Path 505" class="s85" d="m159 670h1v1h-1z"/>
		<path id="Path 506" class="s48" d="m160 670h1v1h-1z"/>
		<path id="Path 507" class="s89" d="m161 670h1v1h-1z"/>
	</g>
</svg>