<svg version="1.2" xmlns="http://www.w3.org/2000/svg" viewBox="0 0 1000 1000" width="1000" height="1000">
	<title>Ameiurus_nebulosus</title>
	<style>
		.s0 { opacity: .2;fill: #f8f9fb } 
		.s1 { opacity: .2;fill: #dbdfe6 } 
		.s2 { opacity: .8;fill: #e1e4e9 } 
		.s3 { opacity: .1;fill: #f4f6f8 } 
		.s4 { fill: #a9acb5 } 
		.s5 { fill: #838695 } 
		.s6 { opacity: .4;fill: #dbdfe5 } 
		.s7 { fill: #726b6a } 
		.s8 { fill: #625c61 } 
		.s9 { opacity: .2;fill: #e8eaef } 
		.s10 { opacity: .4;fill: #b9bdc8 } 
		.s11 { opacity: .2;fill: #c0c5cf } 
		.s12 { fill: #5b5248 } 
		.s13 { fill: #5c555a } 
		.s14 { fill: #716e77 } 
		.s15 { fill: #484243 } 
		.s16 { fill: #a2a2aa } 
		.s17 { fill: #3d3332 } 
		.s18 { opacity: .4;fill: #a1a4ae } 
		.s19 { fill: #4d4339 } 
		.s20 { opacity: 1;fill: #686368 } 
		.s21 { fill: #433b40 } 
		.s22 { fill: #453b36 } 
		.s23 { opacity: .5;fill: #c8ccd4 } 
		.s24 { opacity: .6;fill: #f4f5f8 } 
		.s25 { fill: #4f4a47 } 
		.s26 { fill: #95969e } 
		.s27 { opacity: .6;fill: #b9bdc7 } 
		.s28 { fill: #2f2728 } 
		.s29 { fill: #564f52 } 
		.s30 { fill: #807b81 } 
		.s31 { fill: #4a464d } 
		.s32 { opacity: .8;fill: #b3b8c3 } 
		.s33 { fill: #251f26 } 
		.s34 { fill: #322c30 } 
		.s35 { fill: #3d3b3e } 
		.s36 { opacity: .6;fill: #dde1e7 } 
		.s37 { fill: #1d1f2d } 
		.s38 { fill: #384052 } 
		.s39 { fill: #191118 } 
		.s40 { opacity: .6;fill: #a1a2aa } 
		.s41 { fill: #b2b5be } 
		.s42 { fill: #353641 } 
		.s43 { fill: #140c13 } 
		.s44 { opacity: .8;fill: #d0d4db } 
		.s45 { opacity: 1;fill: #51586a } 
		.s46 { opacity: .8;fill: #9a9da8 } 
		.s47 { opacity: .2;fill: #828797 } 
		.s48 { opacity: .2;fill: #9fa2ae } 
		.s49 { opacity: .2;fill: #65646f } 
		.s50 { opacity: 1;fill: #c1c6cf } 
		.s51 { opacity: .8;fill: #848997 } 
		.s52 { opacity: 1;fill: #71737f } 
		.s53 { fill: #73798c } 
		.s54 { opacity: .9;fill: #b6b9c3 } 
		.s55 { fill: #1a1822 } 
		.s56 { fill: #515f79 } 
		.s57 { fill: #24232e } 
		.s58 { fill: #333039 } 
		.s59 { fill: #2d2d37 } 
		.s60 { fill: #2a2730 } 
		.s61 { opacity: .3;fill: #74737b } 
		.s62 { fill: #373032 } 
		.s63 { fill: #3a343a } 
		.s64 { fill: #221b1f } 
		.s65 { fill: #9f9ca2 } 
		.s66 { opacity: .2;fill: #3e3f4b } 
		.s67 { fill: #30221f } 
		.s68 { fill: #21151b } 
		.s69 { fill: #8f8c92 } 
		.s70 { fill: #62697b } 
		.s71 { opacity: 1;fill: #4c4c58 } 
		.s72 { fill: #6a5f48 } 
		.s73 { fill: #3d3125 } 
		.s74 { fill: #434148 } 
		.s75 { fill: #635c54 } 
		.s76 { fill: #544c41 } 
		.s77 { fill: #524530 } 
		.s78 { fill: #7c7362 } 
		.s79 { fill: #483c2a } 
		.s80 { fill: #98877c } 
		.s81 { fill: #978f89 } 
		.s82 { fill: #625541 } 
		.s83 { opacity: .8;fill: #f1f3f6 } 
		.s84 { fill: #aea69d } 
		.s85 { fill: #a39a93 } 
		.s86 { fill: #867b74 } 
		.s87 { fill: #736957 } 
		.s88 { fill: #8d695b } 
		.s89 { opacity: .8;fill: #75747f } 
		.s90 { fill: #957a6e } 
		.s91 { fill: #b2aea8 } 
		.s92 { fill: #5a4e39 } 
		.s93 { opacity: .6;fill: #848590 } 
		.s94 { opacity: .4;fill: #929098 } 
	</style>
	<g id="Background">
		<path id="Path 0" class="s0" d="m136 445h1v1h-1z"/>
		<path id="Path 1" class="s1" d="m421 305h1v1h-1z"/>
		<path id="Path 2" class="s2" d="m421 306l1-1h6l1 1v1h-8z"/>
		<path id="Path 3" class="s3" d="m428 305h1v1h-1z"/>
		<path id="Path 4" class="s1" d="m418 308l3-2v1z"/>
		<path id="Path 5" class="s3" d="m429 307v-1l3 2z"/>
		<path id="Path 6" class="s4" d="m418 308l3-1h8l3 1 2 2 3 3v2l5 7 3 8v7h-5l-3-4-1-7-8-7h-5l-3-6h-6l1-3z"/>
		<path id="Path 7" class="s0" d="m414 310l4-2-3 2z"/>
		<path id="Path 8" class="s2" d="m406 316l3-5 5-1h1l-1 3-9 8-8 7-1-1 8-9z"/>
		<path id="Path 9" class="s5" d="m405 321l9-8h6l3 6v2h-15z"/>
		<path id="Path 10" class="s6" d="m442 322l-5-7 4 1 1 5z"/>
		<path id="Path 11" class="s7" d="m423 321v-2h5l8 7 1 7-3 3h-7l-3-3z"/>
		<path id="Path 12" class="s8" d="m408 321h15l1 12 3 3-1 2-11 7-4-6v-6l-5-2z"/>
		<path id="Path 13" class="s7" d="m397 328l8-7h3l-2 10-3 1-8-1z"/>
		<path id="Path 14" class="s9" d="m442 322v-1l4 9h-1z"/>
		<path id="Path 15" class="s10" d="m388 336l8-9 1 1-2 3-5 6h-2z"/>
		<path id="Path 16" class="s11" d="m445 337v-7h1v8h-1z"/>
		<path id="Path 17" class="s12" d="m390 337l5-6 8 1v5l-6 5h-3l-4-3z"/>
		<path id="Path 18" class="s13" d="m403 332l3-1 5 2v6l-8-2z"/>
		<path id="Path 19" class="s14" d="m434 336l3-3 3 4v4h-5z"/>
		<path id="Path 20" class="s1" d="m386 339l2-3v1l-1 2z"/>
		<path id="Path 21" class="s15" d="m426 338l1-2h7l1 5-1 4h-5z"/>
		<path id="Path 22" class="s14" d="m387 339l1-2h2v2l-3 1z"/>
		<path id="Path 23" class="s15" d="m397 342l6-5 8 2 4 6v16h-2l-10-6v-7z"/>
		<path id="Path 24" class="s16" d="m440 341v-4h5v1l2 12v3 4h-4z"/>
		<path id="Path 25" class="s17" d="m415 345l11-7 3 7v10l-9 7-5-1z"/>
		<path id="Path 26" class="s2" d="m447 350l-2-12h1z"/>
		<path id="Path 27" class="s18" d="m383 343l3-4h1v1l-2 3-2 1z"/>
		<path id="Path 28" class="s19" d="m387 340l3-1 4 3-7 4-2-3z"/>
		<path id="Path 29" class="s20" d="m434 345l1-4h5l3 16v6h-2-6l-1-8z"/>
		<path id="Path 30" class="s21" d="m387 346l7-4h3l6 6v7l10 6-3 10-1 4-6 5v5h-7l-5 5-8-1v-10h4l10-11v-5l-10-8z"/>
		<path id="Path 31" class="s6" d="m373 352l10-9v1l-7 8z"/>
		<path id="Path 32" class="s15" d="m383 344l2-1 2 3v9l10 8v5l-10 11h-4l-8-5-7-10v-2l8-10z"/>
		<path id="Path 33" class="s22" d="m429 355v-10h5v10z"/>
		<path id="Path 34" class="s23" d="m368 360l5-8h3l-8 10z"/>
		<path id="Path 35" class="s24" d="m447 357v-4l2 6h-2z"/>
		<path id="Path 36" class="s25" d="m420 362l9-7h5l1 8v6 12l-14 2v-4l-4-2-1-5z"/>
		<path id="Path 37" class="s26" d="m443 363v-6h4v2 6z"/>
		<path id="Path 38" class="s27" d="m447 365v-6h2v12l-2-1z"/>
		<path id="Path 39" class="s24" d="m361 371l3-10 4-1v2 2l-8 10z"/>
		<path id="Path 40" class="s28" d="m410 371l3-10h2l5 1-4 10h-3z"/>
		<path id="Path 41" class="s29" d="m435 369v-6h6v6z"/>
		<path id="Path 42" class="s30" d="m441 369v-6h2l4 2v5 11h-4z"/>
		<path id="Path 43" class="s31" d="m360 374l8-10 7 10 8 5v10l-12 2-2-10-9-2h-2z"/>
		<path id="Path 44" class="s13" d="m435 381v-12h6l2 12-1 5-7-3z"/>
		<path id="Path 45" class="s32" d="m447 381v-11l2 1-2 18z"/>
		<path id="Path 46" class="s9" d="m356 380l5-9-1 3-2 5z"/>
		<path id="Path 47" class="s33" d="m409 375l1-4 3 1v3z"/>
		<path id="Path 48" class="s31" d="m413 375v-3h3l1 5h-1z"/>
		<path id="Path 49" class="s34" d="m403 385v-5l6-5h4l3 2 1 7v7h-6z"/>
		<path id="Path 50" class="s33" d="m417 384l-1-7h1l4 2v4 1z"/>
		<path id="Path 51" class="s15" d="m356 380l2-1h2l-1 12h-4l-2-1 2-7z"/>
		<path id="Path 52" class="s17" d="m359 391l1-12 9 2 2 10v8h-8v-6z"/>
		<path id="Path 53" class="s9" d="m353 385v-4l3-1-1 3z"/>
		<path id="Path 54" class="s21" d="m421 383l14-2v2l-4 12-5 1-1-8-4-4z"/>
		<path id="Path 55" class="s26" d="m442 386l1-5h4v8l-7 5h-2z"/>
		<path id="Path 56" class="s5" d="m353 385l2-2-2 7-6 6h-1l6-9z"/>
		<path id="Path 57" class="s29" d="m431 395l4-12 7 3-4 8h-1z"/>
		<path id="Path 58" class="s35" d="m417 391v-7h4l4 4 1 8-6 3h-1l-3 1z"/>
		<path id="Path 59" class="s9" d="m349 388l4-3-1 2z"/>
		<path id="Path 60" class="s33" d="m391 390l5-5h7l8 6h6l-1 9-4 5-4-4h-17z"/>
		<path id="Path 61" class="s36" d="m349 388l3-1-6 9-7 3v-1l2-2z"/>
		<path id="Path 62" class="s34" d="m371 391l12-2 8 1v11l-8 2-10-1-2-3z"/>
		<path id="Path 63" class="s10" d="m440 394l7-5v4z"/>
		<path id="Path 64" class="s37" d="m347 396l6-6 2 1v9l-8 1z"/>
		<path id="Path 65" class="s33" d="m355 400v-9h4l4 2v6l-4 3z"/>
		<path id="Path 66" class="s10" d="m431 395l6-1-6 4-11 1 6-3z"/>
		<path id="Path 67" class="s38" d="m339 399l7-3h1v5 9h-20l4-7 3-3z"/>
		<path id="Path 68" class="s1" d="m334 400l5-2v1z"/>
		<path id="Path 69" class="s39" d="m359 402l4-3h8l2 3 10 1v8l-15 2-1-4h-5z"/>
		<path id="Path 70" class="s11" d="m416 400l3-1-5 4 3 4-5-2z"/>
		<path id="Path 71" class="s40" d="m321 401l6-1v3h-5-1z"/>
		<path id="Path 72" class="s41" d="m327 403v-3h7l-3 3z"/>
		<path id="Path 73" class="s42" d="m347 401l8-1 4 2 3 7-2 4h-10l-3-3z"/>
		<path id="Path 74" class="s36" d="m313 403l8-2v2h-7z"/>
		<path id="Path 75" class="s43" d="m383 403l8-2h17l4 4 5 2h2l10 2h10l-1 22-1 9-1 1-9-5v-10l-7-9h-6l-3-5-28-1z"/>
		<path id="Path 76" class="s44" d="m301 405l12-2h1l-1 2z"/>
		<path id="Path 77" class="s4" d="m313 405l1-2h7 1z"/>
		<path id="Path 78" class="s45" d="m313 405l9-2h5 4l-4 7-10 1-5-4z"/>
		<path id="Path 79" class="s1" d="m283 408l9-3v2h-1z"/>
		<path id="Path 80" class="s32" d="m292 407v-2h9v2z"/>
		<path id="Path 81" class="s26" d="m301 407v-2h12l-1 2h-3z"/>
		<path id="Path 82" class="s44" d="m636 407l11-2v2z"/>
		<path id="Path 83" class="s46" d="m647 407v-2h17v2z"/>
		<path id="Path 84" class="s44" d="m664 407v-2l18 2h-9z"/>
		<path id="Path 85" class="s47" d="m419 407l11-1v1h-2z"/>
		<path id="Path 86" class="s48" d="m430 407v-1h30v1z"/>
		<path id="Path 87" class="s47" d="m460 407v-1h35v1h-22-8z"/>
		<path id="Path 88" class="s48" d="m495 407v-1h10v1z"/>
		<path id="Path 89" class="s11" d="m505 407v-1h9v1h-4-4z"/>
		<path id="Path 90" class="s1" d="m514 407v-1h31v1h-11z"/>
		<path id="Path 91" class="s3" d="m545 407v-1h15v1z"/>
		<path id="Path 92" class="s1" d="m560 407v-1h26v1h-10z"/>
		<path id="Path 93" class="s11" d="m586 407v-1h27v1h-1z"/>
		<path id="Path 94" class="s48" d="m613 407v-1l19 1z"/>
		<path id="Path 95" class="s49" d="m688 407l8-1v1h-5z"/>
		<path id="Path 96" class="s11" d="m696 407v-1l8 2z"/>
		<path id="Path 97" class="s50" d="m283 408l8-1v1l-8 1z"/>
		<path id="Path 98" class="s45" d="m291 408v-1h1 9 8l-7 7h-11z"/>
		<path id="Path 99" class="s42" d="m302 414l7-7h3l5 4v4h-13z"/>
		<path id="Path 100" class="s20" d="m429 409l-10-2h9z"/>
		<path id="Path 101" class="s51" d="m429 409l-1-2h2 30 5v2h-16-10z"/>
		<path id="Path 102" class="s52" d="m465 409v-2h8v2h-2z"/>
		<path id="Path 103" class="s53" d="m473 409v-2h22v2h-14z"/>
		<path id="Path 104" class="s26" d="m495 409v-2h10 1v2z"/>
		<path id="Path 105" class="s4" d="m506 409v-2h4v2z"/>
		<path id="Path 106" class="s54" d="m510 409v-2h4 20v2h-7-13z"/>
		<path id="Path 107" class="s50" d="m534 409v-2h11 15 16v2h-11-17z"/>
		<path id="Path 108" class="s54" d="m576 409v-2h10 26v2h-1-27z"/>
		<path id="Path 109" class="s51" d="m612 409v-2h1 19l-1 2z"/>
		<path id="Path 110" class="s55" d="m631 409l1-2h4 11 17 9v8l12 10v6l4 4h6l2-6h6l7 10h6l15 2 10-2h2l17-5h1v7h-7l-3 8h-7l-3 6-9 3-9-7h-9l-3 5v13h-2l-6-4-7-10-15-2-3-6h-7l-4-7h-5l-1 15h-8-10l-6 5-2-3 1-6-3-3-12-3-10-2-3 3-15-1-3-6h-15l-2 9h-18l-3-5-9-2h-6l-2-6h-16-6l-4 4v6l-8 3-5-3-1-7-5-5h-7l-4-4h-6l-4-2 2-12 10-2 12 4h18l5-4h11l21-2 1 4 16-2 5 2 14-6h27l5 12 20 3 1-5-6-4z"/>
		<path id="Path 111" class="s43" d="m685 425l-12-10v-8h9 6 3l7 2v4l7 5-2 11h-6l-3-4z"/>
		<path id="Path 112" class="s51" d="m698 409l-7-2h5l8 1h2l3 2 3 1 5 3 1 1 1 2-9-4z"/>
		<path id="Path 113" class="s23" d="m107 410l5-2-3 11-2-8z"/>
		<path id="Path 114" class="s1" d="m276 410l7-2v1z"/>
		<path id="Path 115" class="s56" d="m283 409l8-1v6l-8 1z"/>
		<path id="Path 116" class="s45" d="m276 410l7-1v6l-8 2-18 4h-7l-2 6-7 2h-8v-8l6-2 25-6z"/>
		<path id="Path 117" class="s37" d="m360 413l2-4h5l1 4-2 4h-5z"/>
		<path id="Path 118" class="s55" d="m438 431l1-22h10l3 9 8 1 5 8-2 8h-8-6l-5-4z"/>
		<path id="Path 119" class="s37" d="m465 427l-5-8-8-1-3-9h16 6v6l-2 12z"/>
		<path id="Path 120" class="s57" d="m471 415v-6h2 8v4z"/>
		<path id="Path 121" class="s37" d="m481 413v-4h14 11 4 4l2 4-5 4h-18z"/>
		<path id="Path 122" class="s58" d="m516 413l-2-4h13v4z"/>
		<path id="Path 123" class="s38" d="m527 413v-4h7 14v2z"/>
		<path id="Path 124" class="s59" d="m548 411v-2h17v4l-16 2z"/>
		<path id="Path 125" class="s37" d="m565 413v-4h11 8l-14 6z"/>
		<path id="Path 126" class="s37" d="m631 409v6l6 4-1 5-20-3-5-12h1z"/>
		<path id="Path 127" class="s33" d="m703 429l2-11-7-5v-4l12 4v3l9 7v11l-3 5h-6z"/>
		<path id="Path 128" class="s9" d="m106 413l1-3v1z"/>
		<path id="Path 129" class="s18" d="m259 413l17-3-12 3z"/>
		<path id="Path 130" class="s37" d="m317 411l10-1h20l3 3-3 5-30-3z"/>
		<path id="Path 131" class="s50" d="m106 413l1-2 2 8-1 3h-3z"/>
		<path id="Path 132" class="s55" d="m368 413l15-2 28 1 3 5-1 16-27-2-1 16-4 1-2-1v-7l-5-5h-15l-6 8h-12l-10 10h-8l-4-4-2-10h-12l-6 1v6l4 2v13l-5 3-7-1h-12l-8-2-14-14 1-10h14l3 7 5 1h2l1-8-10-6 2-8 27-1 2-7h13l30 3 3-5h10l1 4h5z"/>
		<path id="Path 133" class="s3" d="m717 414l-5-3h4z"/>
		<path id="Path 134" class="s46" d="m259 413h5l-25 6 2-2 5-2z"/>
		<path id="Path 135" class="s1" d="m104 422l2-9-1 9z"/>
		<path id="Path 136" class="s8" d="m719 434v-11l-9-7v-3l9 4 7 6 1 14z"/>
		<path id="Path 137" class="s39" d="m283 415l8-1h11l2 1-2 7-27 1v-6z"/>
		<path id="Path 138" class="s1" d="m238 417l8-2-5 2z"/>
		<path id="Path 139" class="s18" d="m719 417l-1-2 9 8h-1z"/>
		<path id="Path 140" class="s36" d="m218 423l20-6h3l-2 2-6 2-15 3z"/>
		<path id="Path 141" class="s37" d="m257 421l18-4v6l-2 8 10 6-1 8h-2l-5-1-3-7h-14l-1-2v-6z"/>
		<path id="Path 142" class="s39" d="m413 433l1-16h6l7 9v10l-6 5h-6z"/>
		<path id="Path 143" class="s27" d="m108 422l1-3v3z"/>
		<path id="Path 144" class="s56" d="m218 424l15-3v8 2h-4l-10 2-16 4-12 3-14 5h-8v-6l1-2h2l15-4 8-2 6-2 7-2z"/>
		<path id="Path 145" class="s59" d="m248 427l2-6h7v8h-6z"/>
		<path id="Path 146" class="s48" d="m104 436v-14h1v14z"/>
		<path id="Path 147" class="s46" d="m105 436v-14h3 1v8l2 8 1 7-2-3-3 1h-1z"/>
		<path id="Path 148" class="s44" d="m207 425l11-2v1l-10 3h-1z"/>
		<path id="Path 149" class="s46" d="m727 437l-1-14h1l2 13 2 2v1z"/>
		<path id="Path 150" class="s1" d="m201 428l6-3v2z"/>
		<path id="Path 151" class="s33" d="m697 429l-2 6h-6l-4-4v-6h9z"/>
		<path id="Path 152" class="s50" d="m201 428l6-1h1l-7 2z"/>
		<path id="Path 153" class="s37" d="m241 429l7-2 3 2v6l-10-2z"/>
		<path id="Path 154" class="s59" d="m463 435l2-8h4l4 2-1 14-9-1z"/>
		<path id="Path 155" class="s9" d="m194 430l7-2v1l-6 1z"/>
		<path id="Path 156" class="s50" d="m195 430l6-1-6 2z"/>
		<path id="Path 157" class="s59" d="m233 431v-2h8v4z"/>
		<path id="Path 158" class="s33" d="m251 435v-6h6v6z"/>
		<path id="Path 159" class="s33" d="m472 443l1-14h6l4 4v13l-4 3h-6z"/>
		<path id="Path 160" class="s23" d="m183 433l11-3h1v1l-8 2z"/>
		<path id="Path 161" class="s57" d="m219 433l10-2v8h-10z"/>
		<path id="Path 162" class="s55" d="m229 439v-8h4l8 2 10 2v12h-7l-3 5-10-7z"/>
		<path id="Path 163" class="s60" d="m385 447l1-16 27 2 2 8v6l-1 2h-19-6z"/>
		<path id="Path 164" class="s34" d="m437 440l1-9h6l5 4v6z"/>
		<path id="Path 165" class="s18" d="m746 436l12-5h9v2l-7 1-17 5v-1z"/>
		<path id="Path 166" class="s61" d="m767 433v-2h23v2h-1z"/>
		<path id="Path 167" class="s18" d="m790 433v-2h6v2z"/>
		<path id="Path 168" class="s23" d="m796 433v-2l6 2z"/>
		<path id="Path 169" class="s33" d="m767 433h22l2 1v5 6l-1 7-5 3h-8l-2-8h-10l-4-6v-7z"/>
		<path id="Path 170" class="s32" d="m172 435l11-2h4l-15 4z"/>
		<path id="Path 171" class="s37" d="m203 437l16-4v6l-3 6h-13z"/>
		<path id="Path 172" class="s60" d="m483 446v-13h7l5 5 1 7 5 3v11h-6l-1-6z"/>
		<path id="Path 173" class="s20" d="m760 434l7-1-6 1z"/>
		<path id="Path 174" class="s53" d="m791 434l-2-1h1 6 6 3v2l-8-1z"/>
		<path id="Path 175" class="s44" d="m805 435v-2h16v2h-11z"/>
		<path id="Path 176" class="s32" d="m821 435v-2h10v2h-4z"/>
		<path id="Path 177" class="s2" d="m831 435v-2l6 2z"/>
		<path id="Path 178" class="s15" d="m716 439l3-5 8 3 4 2v2z"/>
		<path id="Path 179" class="s28" d="m791 439v-5h6v5z"/>
		<path id="Path 180" class="s17" d="m797 439v-5l8 1h5l7 18-2 6h-6v-8l-6-6h-6z"/>
		<path id="Path 181" class="s11" d="m164 438l8-3v2h-2z"/>
		<path id="Path 182" class="s43" d="m251 447v-12h6l1 2-1 10z"/>
		<path id="Path 183" class="s60" d="m353 443l6-8h15l5 5v7l-9 1-3 15-14-2z"/>
		<path id="Path 184" class="s62" d="m449 441v-6h6v6z"/>
		<path id="Path 185" class="s34" d="m455 441v-6h8v7l-7 2z"/>
		<path id="Path 186" class="s34" d="m509 445v-6l4-4h6v9l-3 1z"/>
		<path id="Path 187" class="s33" d="m519 444v-9h16l2 6v12l-1 2h-5l-5-6h-5z"/>
		<path id="Path 188" class="s19" d="m817 453l-7-18h11 6v16z"/>
		<path id="Path 189" class="s63" d="m827 451v-16h4 6 5l8 2 6 2v5l9 6-1 10-7 1v-8l-3-2-23 2z"/>
		<path id="Path 190" class="s44" d="m850 437l-8-2h8z"/>
		<path id="Path 191" class="s27" d="m850 437v-2l14 3v1h-4-4z"/>
		<path id="Path 192" class="s1" d="m106 443l-2-7h1z"/>
		<path id="Path 193" class="s63" d="m421 441l6-5 9 5v10l3 4-7 7h-5l-6-15z"/>
		<path id="Path 194" class="s27" d="m164 438l6-1-1 2-12 3-8 2v-3z"/>
		<path id="Path 195" class="s57" d="m191 440l12-3v8l-8 4h-4z"/>
		<path id="Path 196" class="s48" d="m731 439v-1l10 1z"/>
		<path id="Path 197" class="s9" d="m864 439v-1l5 2z"/>
		<path id="Path 198" class="s45" d="m157 442l12-3v6 2h-8z"/>
		<path id="Path 199" class="s43" d="m203 445h13l3-6h10l2 6 10 7v9l-8 1-3 5h-4l-3 5h-4l-7-1-17-4v-2-8-8z"/>
		<path id="Path 200" class="s43" d="m303 448l-4-2v-6l6-1v9z"/>
		<path id="Path 201" class="s64" d="m305 448v-9h12l2 10h-4z"/>
		<path id="Path 202" class="s60" d="m573 448l2-9h15l3 6-2 10-16-4z"/>
		<path id="Path 203" class="s52" d="m731 441v-2h10z"/>
		<path id="Path 204" class="s62" d="m791 445v-6h6v6z"/>
		<path id="Path 205" class="s58" d="m857 461l7-1 1-10-9-6v-5h4l15 3 2 1 2 11 1 10 9 4 1 9h-8l-3-4h-10l-9 5-15-2v-4l-7-7h-7v-6z"/>
		<path id="Path 206" class="s65" d="m875 442l-15-3h4l5 1h5z"/>
		<path id="Path 207" class="s55" d="m177 445l14-5v9h-4-10z"/>
		<path id="Path 208" class="s35" d="m436 441l1-1 12 1h6l1 3 7-2 9 1 1 6v6l6 2 6 15 2 17-2 9 4 7v8l-4 1v3h-4v-9l-20-19v-4l10-2v-12l2-2-2-7-10 1 1 8-3 4h-4l-2-11-9-9h-5l-3-4z"/>
		<path id="Path 209" class="s57" d="m661 455l1-15h5l4 7h7l3 6v8h-4l-12-2z"/>
		<path id="Path 210" class="s18" d="m875 442l-1-2 13 5-10-2z"/>
		<path id="Path 211" class="s2" d="m141 445l8-4v3l-8 2z"/>
		<path id="Path 212" class="s43" d="m415 447v-6h6v6z"/>
		<path id="Path 213" class="s39" d="m537 453v-12h6v12z"/>
		<path id="Path 214" class="s60" d="m543 453v-12l9 2 3 5-4 4v5h-8z"/>
		<path id="Path 215" class="s60" d="m751 449l3-8h7l4 6v6h-12z"/>
		<path id="Path 216" class="s5" d="m107 443l3-1 2 3 3 9-2-1v-2l-2 2h-1l-2-4v-1z"/>
		<path id="Path 217" class="s38" d="m149 444l8-2 4 5-3 6-16-2z"/>
		<path id="Path 218" class="s9" d="m108 448l-2-5h1z"/>
		<path id="Path 219" class="s33" d="m331 453l10-10h12v18h-7l-3 4h-8l-4-4z"/>
		<path id="Path 220" class="s33" d="m608 446l3-3 10 2v10h-6l-7-3z"/>
		<path id="Path 221" class="s34" d="m879 454l-2-11 10 2h2l1 2v4z"/>
		<path id="Path 222" class="s53" d="m141 446l8-2-7 7h-1l-7 1-1-2z"/>
		<path id="Path 223" class="s39" d="m516 445l3-1 2 5-2 4-3-1z"/>
		<path id="Path 224" class="s11" d="m115 454l-3-9 4 3 1 6z"/>
		<path id="Path 225" class="s44" d="m136 446l1-1h4v1l-8 4-8 2 1-2h3l2-2 2-1z"/>
		<path id="Path 226" class="s37" d="m169 447v-2h8v4h-8z"/>
		<path id="Path 227" class="s35" d="m501 448l8-3h7v7l3 1v8h-5l-4 4-9-6z"/>
		<path id="Path 228" class="s59" d="m591 455l2-10 15 1v6l-1 7 6 2v15l-12 3v-8l-8-2z"/>
		<path id="Path 229" class="s59" d="m621 455v-10l12 3 3 3-1 6z"/>
		<path id="Path 230" class="s63" d="m790 452l1-7h6 6l6 6v8l-4 8h-4z"/>
		<path id="Path 231" class="s32" d="m890 447l-1-2 7 1v1z"/>
		<path id="Path 232" class="s25" d="m479 449l4-3 11 7 1 6v12l-10 1-6-15z"/>
		<path id="Path 233" class="s66" d="m896 447v-1h8v1z"/>
		<path id="Path 234" class="s49" d="m904 447v-1h10v1h-3z"/>
		<path id="Path 235" class="s1" d="m914 447v-1l8 2z"/>
		<path id="Path 236" class="s55" d="m158 453l3-6h8v2l-3 8h-5z"/>
		<path id="Path 237" class="s33" d="m241 452l3-5h7 6l14 14 1 8-5 5v9l-5 1v-4l-5-2-3-9h-11l-2-8z"/>
		<path id="Path 238" class="s59" d="m367 463l3-15 9-1 2 1v10l-3 1-2 10h-4z"/>
		<path id="Path 239" class="s64" d="m381 448l4-1 4 2v8l-3 2-5-1z"/>
		<path id="Path 240" class="s67" d="m414 449l1-2h6l6 15-4 4v5l-5-1z"/>
		<path id="Path 241" class="s59" d="m765 453v-6h10l2 8-12 2z"/>
		<path id="Path 242" class="s59" d="m890 451v-4h6 8 7l1 2-3 2v8h-8l-2-6z"/>
		<path id="Path 243" class="s16" d="m912 449l-1-2h3l8 1v1h-2-4z"/>
		<path id="Path 244" class="s57" d="m303 461v-13h2l10 1v10z"/>
		<path id="Path 245" class="s35" d="m551 457v-5l4-4h18l2 3v15 1h-20l-4-3z"/>
		<path id="Path 246" class="s1" d="m922 449v-1l5 2z"/>
		<path id="Path 247" class="s9" d="m109 455l-1-6 2 4z"/>
		<path id="Path 248" class="s43" d="m161 457h5l3-8h8 10v8 8l-10 10h-14z"/>
		<path id="Path 249" class="s68" d="m187 457v-8h4 4v8z"/>
		<path id="Path 250" class="s33" d="m315 459v-10h4l4 4v6z"/>
		<path id="Path 251" class="s62" d="m386 459l3-2v-8h6l-1 21h-3l-4-3z"/>
		<path id="Path 252" class="s35" d="m394 470l1-21h19l4 21-7 2v9l-9 2z"/>
		<path id="Path 253" class="s28" d="m479 457l-6-2v-6h6z"/>
		<path id="Path 254" class="s63" d="m519 453l2-4h5l5 6v10 4h-4-7l-1-8z"/>
		<path id="Path 255" class="s58" d="m741 455l3-6h7l2 4h12v4l-20 3z"/>
		<path id="Path 256" class="s43" d="m909 459v-8l3-2h4l3 6-3 6h-3z"/>
		<path id="Path 257" class="s17" d="m919 455l-3-6h4l3 3v3z"/>
		<path id="Path 258" class="s69" d="m923 452l-3-3h2l5 1 2 3v1 2z"/>
		<path id="Path 259" class="s0" d="m121 453l5-3-1 2z"/>
		<path id="Path 260" class="s70" d="m125 452l8-2 1 2-3 3-4 1-2-2z"/>
		<path id="Path 261" class="s1" d="m929 453l-2-3 4 1v3h-1z"/>
		<path id="Path 262" class="s2" d="m929 453h1v1h-1z"/>
		<path id="Path 263" class="s71" d="m111 453l2-2v2l-1 1z"/>
		<path id="Path 264" class="s59" d="m134 452l7-1 2 16-2 2-6-2-4-12z"/>
		<path id="Path 265" class="s39" d="m141 469l2-2-2-16h1l16 2 3 4 2 18-2 10h-2-14v-10z"/>
		<path id="Path 266" class="s42" d="m575 466v-15l16 4 2 14v2h-10l-2-5z"/>
		<path id="Path 267" class="s59" d="m711 469v-13l3-5h9l9 7 1 17h-8l-10-2z"/>
		<path id="Path 268" class="s15" d="m817 453l10-2 4 2v6 6l-5 2-1 17-3 5h-10l-3-6h-6l-2-16h4l4-8h6z"/>
		<path id="Path 269" class="s21" d="m831 453l23-2 3 2v8l-26-2z"/>
		<path id="Path 270" class="s33" d="m879 454l11-3 9 2 2 6-2 9 8 11v5h-14l-3-7-1-9-9-4z"/>
		<path id="Path 271" class="s32" d="m121 453l4-1v2l-7 3h-3v-3h2z"/>
		<path id="Path 272" class="s57" d="m613 461l-6-2 1-7 7 3z"/>
		<path id="Path 273" class="s35" d="m785 455l5-3 11 15 2 16 2 8h7l1 12h-10l-3-1v-6l-5-2v-10l-5-3-1-4v-10l-4-2z"/>
		<path id="Path 274" class="s72" d="m923 455v-3l6 4v3l-4 11-3 7-2 1z"/>
		<path id="Path 275" class="s44" d="m109 455l1-2h1l1 1-11 8h-1v-2l3-4z"/>
		<path id="Path 276" class="s38" d="m112 454l1-1 2 1v3h3l1 2v4l-13 5-1 10h-8l-5 10-9 4v-9l2-8 3-3 7-1 6-9z"/>
		<path id="Path 277" class="s60" d="m323 459v-6h8v8z"/>
		<path id="Path 278" class="s64" d="m536 455l1-2h6v4 6h-4z"/>
		<path id="Path 279" class="s59" d="m681 461v-8l15 2 7 10-8 8h-8l-1-7z"/>
		<path id="Path 280" class="s45" d="m118 457l7-3 2 2v1l-8 2z"/>
		<path id="Path 281" class="s10" d="m929 456v-2h1 1v6h-1l-1-1z"/>
		<path id="Path 282" class="s57" d="m127 456l4-1 4 12h-6l-2-4v-6z"/>
		<path id="Path 283" class="s64" d="m427 462h5l7-7h5l9 9 2 11v11l3 3-3 8-9 2-9-14h-6l-6-4-2-10v-5z"/>
		<path id="Path 284" class="s71" d="m531 465v-10h5l3 8v2z"/>
		<path id="Path 285" class="s35" d="m613 461l2-6h6l14 2 2 3v13l4 4h8l7 7h7v3l2 14v9l-5 5h-3l-1-3-12-3-3-8-7 2-7-2-6-4v-4l-6-5-14-1-1-4 1-4 12-3z"/>
		<path id="Path 286" class="s59" d="m637 460l6-5h10l-4 6v16h-8l-4-4z"/>
		<path id="Path 287" class="s58" d="m649 477v-16l4-6h8l4 4v12l-1 6-1 7h-7z"/>
		<path id="Path 288" class="s42" d="m732 458l9-3 4 5 20-3 12-2h8v10l-4 1v9h-1-11l-2-4h-7l-4 4-1 14-3 4h-6l-10-2-3-4v-12z"/>
		<path id="Path 289" class="s73" d="m913 461h3l3-6h4l-3 23-1 3-6-2z"/>
		<path id="Path 290" class="s37" d="m119 459l8-2v6h-8z"/>
		<path id="Path 291" class="s55" d="m187 465v-8h8v8z"/>
		<path id="Path 292" class="s42" d="m543 463v-6h8v7l4 3v4h-8v-6z"/>
		<path id="Path 293" class="s25" d="m376 469l2-10 3-1 5 1 1 8 4 3v7l6 12v2h-6l-4-8h-6v-7z"/>
		<path id="Path 294" class="s35" d="m303 461l12-2h8l8 2 4 4v8l-14 2-8 1-1 7-1 6h-10l-4-14 1-11z"/>
		<path id="Path 295" class="s12" d="m495 471v-12h6l9 6 1 12-2 8h-8l-2-10z"/>
		<path id="Path 296" class="s42" d="m665 471v-12l12 2 2 12h-8z"/>
		<path id="Path 297" class="s68" d="m907 479l-8-11 2-9h8l4 2v18z"/>
		<path id="Path 298" class="s27" d="m925 470l4-11 1 1-1 3-2 7z"/>
		<path id="Path 299" class="s24" d="m93 466l7-6v2l-7 5z"/>
		<path id="Path 300" class="s0" d="m929 463l1-3h1v3z"/>
		<path id="Path 301" class="s34" d="m230 467l3-5 8-1 2 8-10 1z"/>
		<path id="Path 302" class="s58" d="m272 469l-1-8 8 2v6z"/>
		<path id="Path 303" class="s34" d="m343 465l3-4h7l14 2 5 6h4l5 7v7l-4 6h-6l-2-4h-10l-6-9-10-1z"/>
		<path id="Path 304" class="s34" d="m510 465l4-4h5l1 8-1 8h-8z"/>
		<path id="Path 305" class="s60" d="m679 473l-2-12h4l5 5 1 7v2h-8z"/>
		<path id="Path 306" class="s5" d="m93 467l7-5h1l-6 9-7 1z"/>
		<path id="Path 307" class="s12" d="m462 471l-1-8 10-1 2 7-2 2z"/>
		<path id="Path 308" class="s55" d="m105 478l1-10 13-5h8l2 4h6l6 2 4 6v10 6l-1 2h-9l-5-13-4-3-7 2h-8z"/>
		<path id="Path 309" class="s59" d="m279 469v-6h12l-2 10-8-1z"/>
		<path id="Path 310" class="s60" d="m279 469l2 3 8 1 2-10 7 1-1 11 4 14v6h-5l-2 4-11 3h-1l-1-5h-6l-9 2-6-2-1-10 3-3 5-1v-9l5-5z"/>
		<path id="Path 311" class="s58" d="m539 465v-2h4l4 2v6h-6z"/>
		<path id="Path 312" class="s33" d="m163 475h14l10-10h8v2 8l4 5-5 6-15 7-16-3-2-5z"/>
		<path id="Path 313" class="s62" d="m335 473v-8h8v10h-4z"/>
		<path id="Path 314" class="s35" d="m531 469v-4h8l2 6h6 8l1 6-5 3v6l5 7-4 2-1 7-8 3v-6l-6-2v-9l-4-3z"/>
		<path id="Path 315" class="s35" d="m695 473l8-8 6 4v8 10 4h-12z"/>
		<path id="Path 316" class="s74" d="m781 475v-9l4-1 4 2v10h-2z"/>
		<path id="Path 317" class="s34" d="m822 489l3-5 1-17 5-2h7l7 7v4l-2 9-11 1 5 18-1 1-12-1z"/>
		<path id="Path 318" class="s23" d="m83 475l1-4 9-5v1l-5 5-3 3z"/>
		<path id="Path 319" class="s31" d="m575 467v-1h6l2 5-4 2z"/>
		<path id="Path 320" class="s68" d="m199 480l-4-5v-8l17 4v6l-5 3z"/>
		<path id="Path 321" class="s55" d="m223 472l3-5h4l3 3-1 7h-7z"/>
		<path id="Path 322" class="s25" d="m555 471v-4h20l4 6v12l-7 8h-3l-13-16z"/>
		<path id="Path 323" class="s68" d="m233 470l10-1h11l3 9-2 7 4 2 1 10 6 2 1 6-1 2-13-2h-2l-4-1-2-4v-11l-3-5-4-5h-6v-2z"/>
		<path id="Path 324" class="s15" d="m519 477l1-8h7v8z"/>
		<path id="Path 325" class="s75" d="m527 477v-8h4l2 16h-6z"/>
		<path id="Path 326" class="s31" d="m593 471v-2l8 2v8l-1 4h-4z"/>
		<path id="Path 327" class="s28" d="m709 477v-8h2l4 4v4z"/>
		<path id="Path 328" class="s64" d="m397 489l-6-12v-7h3l8 13v6z"/>
		<path id="Path 329" class="s76" d="m411 481v-9l7-2 5 1 2 10-2 8h-4v-3z"/>
		<path id="Path 330" class="s10" d="m922 477l3-7h2l-5 9z"/>
		<path id="Path 331" class="s58" d="m212 477v-6l7 1-2 5z"/>
		<path id="Path 332" class="s15" d="m459 475l3-4h9v12l-10 2z"/>
		<path id="Path 333" class="s73" d="m485 472l10-1 4 4 2 10 1 6-1 6h-4l-2-8h-8z"/>
		<path id="Path 334" class="s35" d="m579 473l4-2h10l3 12-3 3-14-1z"/>
		<path id="Path 335" class="s35" d="m664 477l1-6 6 2v4z"/>
		<path id="Path 336" class="s31" d="m755 489l1-14 4-4h7l2 4v10l3 1-2 9h-7l-4-2z"/>
		<path id="Path 337" class="s64" d="m212 477h5l2-5h4l2 5h7v2l-2 11h-2l-12 1h-6l-3-2v-9z"/>
		<path id="Path 338" class="s25" d="m321 475l14-2 4 2v8l7 2 3 6v10h-3l-2-3-9-1v-6l-14-8z"/>
		<path id="Path 339" class="s31" d="m671 477v-4h8v2 12h-4-4z"/>
		<path id="Path 340" class="s28" d="m687 475v-2h8l2 18h-6l-4-5z"/>
		<path id="Path 341" class="s15" d="m715 477v-4l10 2v8h-4z"/>
		<path id="Path 342" class="s68" d="m860 478l9-5h10l3 4-5 6v6l-4 2-5-4h-7z"/>
		<path id="Path 343" class="s23" d="m81 476l2-1-2 2z"/>
		<path id="Path 344" class="s53" d="m81 477l2-2h2l-2 8h-4v-3z"/>
		<path id="Path 345" class="s29" d="m312 483l1-7 8-1v8z"/>
		<path id="Path 346" class="s17" d="m349 491l-3-6-7-2v-8h4l10 1 6 9-3 6z"/>
		<path id="Path 347" class="s34" d="m458 489l-3-3v-11h4l2 10v4z"/>
		<path id="Path 348" class="s21" d="m679 487v-12h8v11l4 5v8l5 6h-13v-9l-4-4z"/>
		<path id="Path 349" class="s74" d="m725 483v-8h8v12h-6z"/>
		<path id="Path 350" class="s74" d="m770 495l2-9-3-1v-10h11l1 6h6 3l5 3v10l-2 1-8 1v7h-11l-3-3z"/>
		<path id="Path 351" class="s29" d="m787 481h-6l-1-6h1l6 2z"/>
		<path id="Path 352" class="s1" d="m78 480v-4h3v1l-2 3z"/>
		<path id="Path 353" class="s37" d="m843 485l2-9 15 2 1 9-11 2-6-2z"/>
		<path id="Path 354" class="s33" d="m119 479l7-2 4 3 5 13-2 3h-6l-1-3-3 2h-4v-8z"/>
		<path id="Path 355" class="s35" d="m509 485l2-8h8 8v8 6h-18z"/>
		<path id="Path 356" class="s67" d="m556 493l-5-7v-6l5-3 13 16v5l-10 1z"/>
		<path id="Path 357" class="s28" d="m663 484l1-7h7v10h-2-6z"/>
		<path id="Path 358" class="s62" d="m709 487v-10h6l6 6h4l2 4v8h-4l-6-2-2-6z"/>
		<path id="Path 359" class="s31" d="m787 481v-4h2l1 4z"/>
		<path id="Path 360" class="s43" d="m877 489v-6l5-6h8l3 7h14l7 3 3 7-1 12 1 6v13l-2 8h-10l-2-14-4-2-2-6h-6l-4-4 2-13z"/>
		<path id="Path 361" class="s69" d="m920 478l2-1v2 4l-2 6h-1v-8z"/>
		<path id="Path 362" class="s43" d="m92 488l5-10h8l6 1 2 8h6v8h-4l-2 4h-4-8l-3-8z"/>
		<path id="Path 363" class="s57" d="m259 487l-4-2 2-7 5 2v4z"/>
		<path id="Path 364" class="s60" d="m119 487h-6l-2-8h8z"/>
		<path id="Path 365" class="s60" d="m230 490l2-11h6l4 5 3 5v11 4h-5-5l-2-7z"/>
		<path id="Path 366" class="s34" d="m907 484v-5h6l6 2v8l-2 5-3-7z"/>
		<path id="Path 367" class="s1" d="m74 485v-4l4-1z"/>
		<path id="Path 368" class="s4" d="m74 485l4-5h1v3l-5 12h-1v-5z"/>
		<path id="Path 369" class="s21" d="m194 486l5-6h8v9l3 2-5 4-9-2z"/>
		<path id="Path 370" class="s12" d="m402 483l9-2 8 5v3 12 6l3 2-3 10h-10l-5-3-1-5 2-8-2-8-1-6z"/>
		<path id="Path 371" class="s21" d="m423 489l2-8 6 4v8h-2-4z"/>
		<path id="Path 372" class="s56" d="m74 495l5-12h4v9 6l-2 6h-6z"/>
		<path id="Path 373" class="s17" d="m311 489l1-6h9l14 8v6 8 4 1h-14v-1-4l-6-2-4-6z"/>
		<path id="Path 374" class="s35" d="m377 489l4-6h6l4 8h6v4l-4 9 2 7-6 10h-6v-6l-4-4 1-12z"/>
		<path id="Path 375" class="s13" d="m593 486l3-3h4l1 4v8l-8-2z"/>
		<path id="Path 376" class="s31" d="m812 491h-7l-2-8h6l3 6z"/>
		<path id="Path 377" class="s10" d="m920 489l2-6-1 10h-1z"/>
		<path id="Path 378" class="s28" d="m145 491v-6h14v5 1z"/>
		<path id="Path 379" class="s62" d="m159 490v-5h2l2 5z"/>
		<path id="Path 380" class="s19" d="m356 491l3-6h10l2 4h6l3 10-1 12h-14l-2-7-1-7z"/>
		<path id="Path 381" class="s77" d="m431 493v-8h6l9 14v4h-7l-1-5z"/>
		<path id="Path 382" class="s76" d="m502 491l-1-6h8v6z"/>
		<path id="Path 383" class="s25" d="m527 491v-6h6l4 3v9l-3 4h-7z"/>
		<path id="Path 384" class="s15" d="m572 493l7-8 14 1v7l8 2h7l3 4v7l3 3v5l5 5v6l-8 1-6-4-12 3h-6l-4-6h-6l-4-4-1-17z"/>
		<path id="Path 385" class="s59" d="m837 504l-5-18 11-1 1 2v7l6-5 11-2h7l5 4 2 16-3 4-16-2-4 3-10-4-1-4z"/>
		<path id="Path 386" class="s8" d="m179 493l15-7 2 7-1 6v4l3 1-2 5-4 4h-5v-7l-8-7z"/>
		<path id="Path 387" class="s25" d="m601 495v-8l14 1 6 5v4l-4 2h-6l-3-4z"/>
		<path id="Path 388" class="s67" d="m665 501l-2-14h6l2 12z"/>
		<path id="Path 389" class="s22" d="m665 501l6-2-2-12h2 4v4l4 1 4 4v9 8h-4-12l-2-3z"/>
		<path id="Path 390" class="s25" d="m679 492l-4-1v-4h4z"/>
		<path id="Path 391" class="s68" d="m709 491v-4h6l2 6-4 2z"/>
		<path id="Path 392" class="s68" d="m727 495v-8h6l3 4-1 6z"/>
		<path id="Path 393" class="s42" d="m850 489l-6 5v-7z"/>
		<path id="Path 394" class="s55" d="m83 492l9-4 6 3 3 8h8l2 10 13 13-2 5-10-4-2-2-7-8-6-2-3-2v-3l-11-8z"/>
		<path id="Path 395" class="s67" d="m301 495v-6h10v8h-8z"/>
		<path id="Path 396" class="s28" d="m397 491v-2h5l1 6h-6z"/>
		<path id="Path 397" class="s19" d="m419 501v-12h4l2 4h4v8z"/>
		<path id="Path 398" class="s22" d="m455 497l3-8h3l20 19v9 6h-8l-6-4v-8l-8-2z"/>
		<path id="Path 399" class="s28" d="m489 505l-4-7 2-9h8l2 8-4 3v5z"/>
		<path id="Path 400" class="s68" d="m752 493l3-4 4 4-1 2z"/>
		<path id="Path 401" class="s58" d="m812 491v-2h10l2 15 12 1 6 3 10 4v9l17 10 4 20h-12l-3-4h-8l-6-9-15-6-9-9-7-10v-10z"/>
		<path id="Path 402" class="s60" d="m873 491l4-2 12 5-2 13h-12z"/>
		<path id="Path 403" class="s52" d="m917 494l2-5h1v4l-1 5v2l-2 6h-1z"/>
		<path id="Path 404" class="s0" d="m71 490h1v1h-1z"/>
		<path id="Path 405" class="s2" d="m71 491l1-1h1v5h-2z"/>
		<path id="Path 406" class="s75" d="m159 491v-1h4l16 3v6l-6 1h-13z"/>
		<path id="Path 407" class="s15" d="m216 491l12-1 1 7v6l4 1-4 11-4-2-5-3v-4l-4-2z"/>
		<path id="Path 408" class="s74" d="m229 497l-1-7h2l3 7z"/>
		<path id="Path 409" class="s12" d="m144 493l1-2h14l1 9h-5l-7-1z"/>
		<path id="Path 410" class="s20" d="m205 495l5-4h6v13l-1 5h-4l-5-6-3-4z"/>
		<path id="Path 411" class="s22" d="m349 501v-10h7l6 6 1 7z"/>
		<path id="Path 412" class="s22" d="m501 497l1-6h7 18v10 10 6l-2 4h-4l-6-11-6-5-7-1z"/>
		<path id="Path 413" class="s67" d="m696 505l-5-6v-8h6 12l4 4v6l-12 6h-5z"/>
		<path id="Path 414" class="s34" d="m735 497l1-6 10 2-3 6z"/>
		<path id="Path 415" class="s17" d="m123 495l3-2 1 3h-3z"/>
		<path id="Path 416" class="s7" d="m127 496h6l2-3h9l4 6-7 4h-18v-1l1-6z"/>
		<path id="Path 417" class="s68" d="m195 499l1-6 9 2-2 4h-1z"/>
		<path id="Path 418" class="s78" d="m429 501v-8h2l7 5 1 5-2 8-7-6z"/>
		<path id="Path 419" class="s29" d="m551 502l1-7 4-2 3 6v4h-4z"/>
		<path id="Path 420" class="s28" d="m569 498v-5h3v5z"/>
		<path id="Path 421" class="s73" d="m713 495l4-2 6 2v5l-10 1z"/>
		<path id="Path 422" class="s17" d="m743 499l3-6h6l6 2 1-2 4 2 2 5v7l-1 4h-6z"/>
		<path id="Path 423" class="s23" d="m919 498l1-5h1z"/>
		<path id="Path 424" class="s58" d="m793 495l2-1 5 2v6l3 1v4h-2-8z"/>
		<path id="Path 425" class="s32" d="m71 504v-9h2 1l1 9v1h-3z"/>
		<path id="Path 426" class="s75" d="m113 499l2-4h4 4l1 1-1 6-10 1z"/>
		<path id="Path 427" class="s15" d="m294 499l2-4h5l2 2v4h-8z"/>
		<path id="Path 428" class="s19" d="m395 511l-2-7 4-9h6l2 8-2 8z"/>
		<path id="Path 429" class="s19" d="m723 500v-5h4l8 2 8 2 15 12h6l3 2v12h-15l-7-9h-5l-6-11z"/>
		<path id="Path 430" class="s62" d="m765 500l-2-5h7l1 5z"/>
		<path id="Path 431" class="s35" d="m785 503v-7l8-1v12h-4z"/>
		<path id="Path 432" class="s58" d="m233 504l-4-1v-6h4l2 7z"/>
		<path id="Path 433" class="s67" d="m266 499l9-2v5l-1 2-7 1z"/>
		<path id="Path 434" class="s73" d="m275 502v-5h6l1 5z"/>
		<path id="Path 435" class="s62" d="m303 501v-4h8l4 6v4h-4z"/>
		<path id="Path 436" class="s62" d="m335 505v-8l9 1 2 3-5 4z"/>
		<path id="Path 437" class="s79" d="m446 499l9-2 4 12v10l-7-4v-5l-6-7z"/>
		<path id="Path 438" class="s79" d="m493 505v-5l4-3h4l1 7 7 1 6 5 6 11h4l2-4h5l1-5 4-1h6l6 16 4 3-1 9h-10l-6 5-9 2-3-1-1-3h-4l-2-7h-9l-3-4h-6l-1 4h-11l-6-12v-6h4l2 4h6l6-1-2-5h-4v-2z"/>
		<path id="Path 439" class="s63" d="m534 501l3-4 6 2v6h-6z"/>
		<path id="Path 440" class="s62" d="m617 499l4-2 6 4 4 15h-2-4l-1 3h-5l-5-5v-5l3-2z"/>
		<path id="Path 441" class="s71" d="m81 504l2-6 11 8v3l-3 1-8-1z"/>
		<path id="Path 442" class="s22" d="m559 499l10-1h3l1 17h-6l-4-2v-6l-4-4z"/>
		<path id="Path 443" class="s12" d="m111 509l-2-10h4v4z"/>
		<path id="Path 444" class="s80" d="m141 503l7-4 7 1v11l4 4-3 4-19 2h-7l-1-9 10-1z"/>
		<path id="Path 445" class="s81" d="m160 500h13v9 6h-2-12l-4-4v-11z"/>
		<path id="Path 446" class="s14" d="m173 500l6-1 8 7v7h-7l-1-4h-6z"/>
		<path id="Path 447" class="s21" d="m198 504l-3-1v-4h7l-2 4z"/>
		<path id="Path 448" class="s30" d="m200 503l2-4h1l3 4z"/>
		<path id="Path 449" class="s31" d="m283 502l11-3 1 2v14h-6l-6-1v-5z"/>
		<path id="Path 450" class="s28" d="m614 509l-3-3v-7h6v8z"/>
		<path id="Path 451" class="s39" d="m245 504v-4l2 4z"/>
		<path id="Path 452" class="s82" d="m713 501l10-1 11 5 6 11-1 9h-8-17-4l-2 4h-9l-13-2v-4l1-6h6l2-4h4l2-6z"/>
		<path id="Path 453" class="s25" d="m765 507v-7h6l3 3-1 4z"/>
		<path id="Path 454" class="s83" d="m917 506l2-6v11h-2z"/>
		<path id="Path 455" class="s63" d="m295 515v-14h8l8 6 2 14-3 4h-6l-7-4z"/>
		<path id="Path 456" class="s79" d="m341 505l5-4h3l14 3 2 7-8 3v11l-2 4h-10v-16l-4-4z"/>
		<path id="Path 457" class="s82" d="m422 509l-3-2v-6h10l1 4z"/>
		<path id="Path 458" class="s19" d="m527 511v-10h7l3 4v6l-4 1z"/>
		<path id="Path 459" class="s64" d="m631 516l-4-15 7 2 3 15z"/>
		<path id="Path 460" class="s75" d="m634 503l7-2 3 8-3 3v7h-4v-1z"/>
		<path id="Path 461" class="s78" d="m113 503l10-1v1l2 8 4 1 1 9v3l-6-2-13-13z"/>
		<path id="Path 462" class="s25" d="m274 504l1-2h7 1v7h-6z"/>
		<path id="Path 463" class="s25" d="m543 505l8-3 4 1 4 26-6 1-4-3-6-16z"/>
		<path id="Path 464" class="s84" d="m129 512l-4-1-2-8h18l-2 8z"/>
		<path id="Path 465" class="s85" d="m198 504l2-1h6l5 6v11l-12 11v8h-4-2v-15l3-3 3-2v-8l-3-2z"/>
		<path id="Path 466" class="s58" d="m315 507v-4l6 2v4z"/>
		<path id="Path 467" class="s82" d="m437 511l2-8h7l6 7v5l7 4v9l4 2v5 6h-6l-4-9h-3l-7-9h-6z"/>
		<path id="Path 468" class="s76" d="m559 529l-4-26h4l4 4v6l4 2v14h-6z"/>
		<path id="Path 469" class="s33" d="m773 507l1-4h11l4 4-6 5z"/>
		<path id="Path 470" class="s63" d="m803 507v-4h10v10l7 10 9 9 15 6 6 9-1 10 4 2v8h-6l-4-1-5-2h-1l-4-2-4-3-4-7-7-3v-5l-7-6-2-19v-10z"/>
		<path id="Path 471" class="s24" d="m71 509v-5l1 1 1 4z"/>
		<path id="Path 472" class="s86" d="m75 505v-1h6l2 5 8 1v8 6h-1-1l-1-3-6-5-5-4z"/>
		<path id="Path 473" class="s19" d="m215 509l1-5 4 2v4z"/>
		<path id="Path 474" class="s12" d="m229 515l4-11h2 5l1 5h8v4 8h-8l-7-1z"/>
		<path id="Path 475" class="s52" d="m249 509h-8l-1-5h5 2l4 1v3z"/>
		<path id="Path 476" class="s31" d="m267 505l7-1 3 5v5l-3 5h-3l-5-12z"/>
		<path id="Path 477" class="s33" d="m836 505l1-1h4l1 4z"/>
		<path id="Path 478" class="s50" d="m73 509l-1-4h3l2 7 5 4h-2-1l-3-2-3-3z"/>
		<path id="Path 479" class="s20" d="m251 508v-3h2v3z"/>
		<path id="Path 480" class="s29" d="m253 508v-3l13 2 5 12v4h-12l-4-2-2-8z"/>
		<path id="Path 481" class="s22" d="m335 509v-4h6v4z"/>
		<path id="Path 482" class="s77" d="m422 509l8-4 7 6v12l-5 4h-7l-1-6-5-2z"/>
		<path id="Path 483" class="s76" d="m489 513v-8h4v8z"/>
		<path id="Path 484" class="s15" d="m537 511v-6h6v6z"/>
		<path id="Path 485" class="s76" d="m683 513v-8h13v2l-1 6-2 4h-6z"/>
		<path id="Path 486" class="s13" d="m917 512l-1-6h1v5z"/>
		<path id="Path 487" class="s74" d="m313 521l-2-14h4l6 2v1 11z"/>
		<path id="Path 488" class="s19" d="m695 513l1-6h5l-2 6z"/>
		<path id="Path 489" class="s22" d="m764 511l1-4h8l10 5v6l-7 2-1 5h-4-4v-12z"/>
		<path id="Path 490" class="s21" d="m783 512l6-5h4 8v8l-10 4-8-1z"/>
		<path id="Path 491" class="s29" d="m801 515v-8h2l6 2v10h-6z"/>
		<path id="Path 492" class="s33" d="m852 512l4-3 16 2 3-4h12l4 4 1 7 7-1 4 2 2 14 2 8h8l-2 10-10 3-3-5h-8l-1 7-16-1-2-4-4-20-17-10z"/>
		<path id="Path 493" class="s31" d="m249 509l2-1h2v5h-4z"/>
		<path id="Path 494" class="s87" d="m91 510l3-1 3 2-4 7h-2z"/>
		<path id="Path 495" class="s86" d="m173 515v-6h6l1 4-1 2z"/>
		<path id="Path 496" class="s88" d="m192 513l4-4 3 2v8l-3 2z"/>
		<path id="Path 497" class="s88" d="m199 539v-8l12-11v-11h4l5 1 5 3-1 20-4 5-7 8-8 1-4-4z"/>
		<path id="Path 498" class="s29" d="m277 514v-5h6v5z"/>
		<path id="Path 499" class="s19" d="m335 510v-1h6l4 4v16h-6l-4-4z"/>
		<path id="Path 500" class="s77" d="m459 519v-10l8 2v8z"/>
		<path id="Path 501" class="s12" d="m641 519v-7l3-3 12 3 1 3v6 2h-10z"/>
		<path id="Path 502" class="s25" d="m321 521v-11h14v15h-12z"/>
		<path id="Path 503" class="s75" d="m660 515l5-5 2 3-4 4z"/>
		<path id="Path 504" class="s82" d="m93 518l4-7 6 2 7 8-9 4h-4z"/>
		<path id="Path 505" class="s77" d="m357 525v-11l8-3h14l4 4v6l-4 8z"/>
		<path id="Path 506" class="s73" d="m389 521l6-10h8l1 5 5 3h10l5 2 1 6v4l-7 5-10-2-1-3h-12z"/>
		<path id="Path 507" class="s73" d="m527 517v-6l6 1-1 5z"/>
		<path id="Path 508" class="s34" d="m899 517l-7 1-1-7h6z"/>
		<path id="Path 509" class="s89" d="m917 512v-1h2v14h-2z"/>
		<path id="Path 510" class="s90" d="m179 515l1-2h7 5l4 8-3 3-10 2-4-3z"/>
		<path id="Path 511" class="s81" d="m220 538l4-5 1-20 4 2 5 5 7 1 1 10 1 8v8l9 3 2 5h-6l-9-2-9-11z"/>
		<path id="Path 512" class="s13" d="m249 521v-8h4l2 8z"/>
		<path id="Path 513" class="s12" d="m485 517v-3l4-1h4v2 6h-6z"/>
		<path id="Path 514" class="s77" d="m663 517l4-4h12v10 6 8h-8l-2-4v-4l-6-3v-5z"/>
		<path id="Path 515" class="s79" d="m679 523v-10h4l4 4-1 6z"/>
		<path id="Path 516" class="s28" d="m274 519l3-5h6l6 1v6 6l-8 1-6-5z"/>
		<path id="Path 517" class="s91" d="m137 521l19-2 3-4h12l-1 12h-4l-5 8-8-2-16-5z"/>
		<path id="Path 518" class="s85" d="m170 527l1-12h2 6v8l4 3v13h-7l-3-1v-9z"/>
		<path id="Path 519" class="s33" d="m289 521v-6h6l2 6h-2z"/>
		<path id="Path 520" class="s19" d="m493 521v-6h4l2 5z"/>
		<path id="Path 521" class="s19" d="m567 529v-14h6l4 4v12l-2 1z"/>
		<path id="Path 522" class="s19" d="m657 521v-6h3l3 2v4z"/>
		<path id="Path 523" class="s31" d="m791 519l10-4 2 4-3 4h-9z"/>
		<path id="Path 524" class="s3" d="m81 518l-2-2h1z"/>
		<path id="Path 525" class="s36" d="m81 518l-1-2h2l6 5z"/>
		<path id="Path 526" class="s30" d="m624 519l1-3h4v4z"/>
		<path id="Path 527" class="s19" d="m624 519l5 1v-4h2l6 2v1l-4 12h-12l-2-6v-6z"/>
		<path id="Path 528" class="s12" d="m739 525l1-9h5l7 9-2 5-3-1-6-2h-1z"/>
		<path id="Path 529" class="s67" d="m91 524v-6h2l4 7z"/>
		<path id="Path 530" class="s29" d="m775 525l1-5 7-2 8 1v4 14h-6l-3-5-7-3z"/>
		<path id="Path 531" class="s15" d="m271 523v-4h3l1 4z"/>
		<path id="Path 532" class="s92" d="m463 535v-5l-4-2v-9h8l6 4-2 12z"/>
		<path id="Path 533" class="s17" d="m577 531v-12h6l4 6v6z"/>
		<path id="Path 534" class="s72" d="m633 531l4-12h4l6 4v14h-14z"/>
		<path id="Path 535" class="s15" d="m800 523l3-4h6l2 19 7 6v5l-1 7-8-2h-1l-3-2v-2l-5-11z"/>
		<path id="Path 536" class="s85" d="m101 525l9-4 2 2-5 7z"/>
		<path id="Path 537" class="s84" d="m130 524v-3h7v7z"/>
		<path id="Path 538" class="s30" d="m242 531l-1-10h8 6l4 2 1 5-6 3z"/>
		<path id="Path 539" class="s67" d="m289 527v-6h6v6l-1 4h-3z"/>
		<path id="Path 540" class="s73" d="m295 527v-6h2l7 4z"/>
		<path id="Path 541" class="s76" d="m310 525l3-4h8l2 4v6h-10z"/>
		<path id="Path 542" class="s82" d="m379 529l4-8h6l6 10v8l-1 9-9-6h-6v-5z"/>
		<path id="Path 543" class="s92" d="m657 523v-2h6v5h-4z"/>
		<path id="Path 544" class="s57" d="m122 527l2-5 6 2 7 4 16 5-1 4-19-4-8-4z"/>
		<path id="Path 545" class="s92" d="m593 525l12-3 6 4v8l-1 7 5 4v15l-3 1h-13l-3-6h-9l-2-9 8-3-2-10z"/>
		<path id="Path 546" class="s84" d="m107 530l5-7 10 4 3 2v6l-12-2z"/>
		<path id="Path 547" class="s72" d="m260 528l-1-5h12 4l6 5v3l-12-1z"/>
		<path id="Path 548" class="s79" d="m425 527h7l5-4h6l7 9h3l4 9v6h-4l-5-4h-6l-2 10h-5l-5-6h-6l-6-11 7-5z"/>
		<path id="Path 549" class="s82" d="m471 535l2-12h8l6 12v8l-8 1h-6z"/>
		<path id="Path 550" class="s82" d="m647 537v-14h10l2 3v7l2 10v3h-10v-6z"/>
		<path id="Path 551" class="s92" d="m679 529v-6h7v4z"/>
		<path id="Path 552" class="s25" d="m791 537v-14h9v16z"/>
		<path id="Path 553" class="s61" d="m89 530v-6h1v5z"/>
		<path id="Path 554" class="s31" d="m90 529v-5h1l6 1h4l6 5 6 3-4 2-3 2-8-2-3-1v3z"/>
		<path id="Path 555" class="s84" d="m183 526l10-2v15h-6-4z"/>
		<path id="Path 556" class="s75" d="m295 527l9-2h6l3 6v2l-19-2z"/>
		<path id="Path 557" class="s75" d="m323 531v-6h12l4 4h6v8l-4 3-18-3z"/>
		<path id="Path 558" class="s92" d="m355 529l2-4 22 4v8h-11l-1 4h-12v-3z"/>
		<path id="Path 559" class="s19" d="m587 531v-6h6l-2 8z"/>
		<path id="Path 560" class="s79" d="m611 526l8-1 2 6-2 4-8-1z"/>
		<path id="Path 561" class="s54" d="m708 529l2-4h4v1l-4 3z"/>
		<path id="Path 562" class="s47" d="m714 526v-1h17v1z"/>
		<path id="Path 563" class="s54" d="m731 526v-1h8l1 2z"/>
		<path id="Path 564" class="s82" d="m750 530l2-5h15 4v4l-2 10h-3-1l-14-7z"/>
		<path id="Path 565" class="s12" d="m771 529v-4h4v4z"/>
		<path id="Path 566" class="s71" d="m915 533l2-8v8 2l-2 1z"/>
		<path id="Path 567" class="s44" d="m917 533v-8h2z"/>
		<path id="Path 568" class="s72" d="m659 533v-7h4l6 3v4z"/>
		<path id="Path 569" class="s48" d="m710 529l4-3-3 4 5 3v1h-3z"/>
		<path id="Path 570" class="s1" d="m741 528l-10-2 9 1h1z"/>
		<path id="Path 571" class="s80" d="m161 535l5-8h4l3 2v9z"/>
		<path id="Path 572" class="s92" d="m281 528l8-1 2 4h-10z"/>
		<path id="Path 573" class="s22" d="m679 529l7-2 13 2-6 9-8 3-6-4z"/>
		<path id="Path 574" class="s24" d="m741 528v-1l6 2v2z"/>
		<path id="Path 575" class="s85" d="m254 531l6-3 9 2-4 7h-10z"/>
		<path id="Path 576" class="s23" d="m89 530l1-1 5 8 12 15h-3l-10-9z"/>
		<path id="Path 577" class="s30" d="m125 535v-6l8 4-2 4h-4z"/>
		<path id="Path 578" class="s82" d="m345 537v-8h10v9z"/>
		<path id="Path 579" class="s77" d="m553 530l6-1h2v11l-6 1-3-2z"/>
		<path id="Path 580" class="s92" d="m561 540v-11h6l8 3v6l-12 2z"/>
		<path id="Path 581" class="s8" d="m693 538l6-9h9 2l3 5v3h-5l-2 4-8 1z"/>
		<path id="Path 582" class="s23" d="m747 531v-2l3 1 1 2v1z"/>
		<path id="Path 583" class="s19" d="m769 539l2-10h4l7 3 3 5 1 8-5-1z"/>
		<path id="Path 584" class="s78" d="m265 537l4-7 12 1h10 3l19 2v4l2 14v4l-13-3-6-6-23-1z"/>
		<path id="Path 585" class="s16" d="m243 539l-1-8h12l1 6z"/>
		<path id="Path 586" class="s87" d="m313 533v-2h10v6h-10z"/>
		<path id="Path 587" class="s92" d="m395 539v-8h12l1 3-3 5z"/>
		<path id="Path 588" class="s73" d="m498 535l1-4h6l3 4h9l2 7v3l-1 3-16-3z"/>
		<path id="Path 589" class="s82" d="m575 532l2-1h10l4 2 2 10-8 3-2-6-8-2z"/>
		<path id="Path 590" class="s87" d="m619 535l2-4h12v6 3l-10 1z"/>
		<path id="Path 591" class="s10" d="m751 533v-1l14 7-9-1z"/>
		<path id="Path 592" class="s20" d="m109 535l4-2 12 2 2 2 1 5-7-1-5-2h-1l-5-2z"/>
		<path id="Path 593" class="s69" d="m131 537l2-4 19 4 1 2v6l-5-1h-4l-9-2 1-3z"/>
		<path id="Path 594" class="s21" d="m152 537l1-4 8 2 12 3 3 1v3h-2l-10-1-11-2z"/>
		<path id="Path 595" class="s92" d="m661 543l-2-10h10l2 4-2 4z"/>
		<path id="Path 596" class="s27" d="m716 534v-1h3v2z"/>
		<path id="Path 597" class="s36" d="m719 535v-2l5 2h-3z"/>
		<path id="Path 598" class="s68" d="m915 541h-8l-2-8h10v3z"/>
		<path id="Path 599" class="s39" d="m95 537v-3l3 1z"/>
		<path id="Path 600" class="s12" d="m405 539l3-5 10 2 6 11-1 4h-11l-7-7z"/>
		<path id="Path 601" class="s78" d="m615 545l-5-4 1-7 8 1 4 6z"/>
		<path id="Path 602" class="s20" d="m713 537v-3h3l3 1h2l3 7v17 2h-4l-9-8v-8l3-2z"/>
		<path id="Path 603" class="s33" d="m95 537l3-2 8 2 2 2 13 14 1 2-4 5-8-5-2-1-1-2z"/>
		<path id="Path 604" class="s50" d="m106 537l3-2 1 2-2 2z"/>
		<path id="Path 605" class="s72" d="m463 541v-6h8l2 9-2 5h-5z"/>
		<path id="Path 606" class="s92" d="m487 543v-8h11l4 10 16 3 1-3h5l3 1v7l-7 10-7-1-2-7h-6l-5-6h-11l-2-2z"/>
		<path id="Path 607" class="s69" d="m724 542l-3-7h3 1l4 7z"/>
		<path id="Path 608" class="s36" d="m729 542l-4-7 6 3v4h-1z"/>
		<path id="Path 609" class="s51" d="m915 536l2-1v6h-2z"/>
		<path id="Path 610" class="s23" d="m108 539l2-2 5 2h-4l1 4 10 8-1 2z"/>
		<path id="Path 611" class="s15" d="m128 542l-1-5h4l5 2-1 3h-1z"/>
		<path id="Path 612" class="s69" d="m243 539l12-2h10l8 8 23 1 6 6-4 2-5-3h-19l-20 4-2-5-9-3z"/>
		<path id="Path 613" class="s86" d="m315 551l-2-14h10l18 3 4-3 10 1v3 2l-11-1-2 5-16-2-1 6h-5z"/>
		<path id="Path 614" class="s72" d="m367 541l1-4h11v5l-4 3h-6z"/>
		<path id="Path 615" class="s92" d="m633 540v-3h14l4 3v6l-12 2h-3z"/>
		<path id="Path 616" class="s8" d="m669 541l2-4h8l6 4v6l-4 4h-10v-2z"/>
		<path id="Path 617" class="s29" d="m706 541l2-4h5l1 6-3 2z"/>
		<path id="Path 618" class="s73" d="m786 545l-1-8h6l9 2 5 11-12-3z"/>
		<path id="Path 619" class="s26" d="m213 546l7-8 10 4 9 11v6h-2-10l-1-5h-5z"/>
		<path id="Path 620" class="s72" d="m563 540l12-2 8 2 2 6 2 9v2l-14 2h-6v-7l-4-3z"/>
		<path id="Path 621" class="s13" d="m685 541l8-3 5 4v7l-5 1v5h-12v-4l4-4z"/>
		<path id="Path 622" class="s81" d="m153 545v-6l11 2-4 6-6-1h-1z"/>
		<path id="Path 623" class="s31" d="m176 542v-3h7 4v4z"/>
		<path id="Path 624" class="s12" d="m187 543v-4h6 2v4z"/>
		<path id="Path 625" class="s75" d="m195 543v-4h4l2 4z"/>
		<path id="Path 626" class="s87" d="m394 548l1-9h10v5l7 7h11l1-4h6l5 6-2 9 6 2v12l-2 1h-12l-14-7-3-11z"/>
		<path id="Path 627" class="s82" d="m536 544l6-5h10l3 2v8 4h-10l-8-1z"/>
		<path id="Path 628" class="s10" d="m781 544l-10-1-5-4h3z"/>
		<path id="Path 629" class="s87" d="m555 541l6-1h2v9h-8z"/>
		<path id="Path 630" class="s19" d="m623 541l10-1 3 8h3l-3 11-17 1h-4v-15z"/>
		<path id="Path 631" class="s85" d="m160 547l4-6 10 1-1 9-9-2h-2z"/>
		<path id="Path 632" class="s78" d="m355 543v-2h12l2 4h6v10h-4l-1-3h-4l-9-3z"/>
		<path id="Path 633" class="s19" d="m457 547v-6h6l3 8h5v6 8h-3l-3-5-6-1-2-6z"/>
		<path id="Path 634" class="s13" d="m661 543l8-2 2 8h-8l-2-3z"/>
		<path id="Path 635" class="s35" d="m698 542l8-1 5 4v8l9 8-2 7-5-1v-8l-15-10z"/>
		<path id="Path 636" class="s44" d="m913 551l2-10h2v6l-3 6-2 1z"/>
		<path id="Path 637" class="s9" d="m144 544l-10-2h1z"/>
		<path id="Path 638" class="s80" d="m173 551l1-9h2l11 1h8 6l4 4-10 8h-7l-7-1h-3l-5-2z"/>
		<path id="Path 639" class="s81" d="m342 547l2-5 11 1 2 6h-2l-12-2z"/>
		<path id="Path 640" class="s75" d="m375 545l4-3h6l9 6 14 11 3 11-10 2-7-3-6-2-1-4-7-2-5-6z"/>
		<path id="Path 641" class="s80" d="m519 545v-3h4l1 3z"/>
		<path id="Path 642" class="s30" d="m724 559v-17h5 1v2l2 11v1 1l-1 2z"/>
		<path id="Path 643" class="s9" d="m730 544v-2h1l1 3z"/>
		<path id="Path 644" class="s92" d="m440 553l2-10h6l5 4v4l-7 6z"/>
		<path id="Path 645" class="s78" d="m479 544l8-1v4h-8z"/>
		<path id="Path 646" class="s9" d="m153 546l-5-2 5 1z"/>
		<path id="Path 647" class="s12" d="m471 549l2-5h6v3 7l-8 1z"/>
		<path id="Path 648" class="s72" d="m527 546l9-2 1 8-10 1z"/>
		<path id="Path 649" class="s50" d="m732 555l-2-11 2 1z"/>
		<path id="Path 650" class="s11" d="m794 549l-13-5 5 1 7 2z"/>
		<path id="Path 651" class="s85" d="m325 551l1-6 16 2h1v10l-1 4h-6l-3-6z"/>
		<path id="Path 652" class="s1" d="m162 549l-8-3 6 1z"/>
		<path id="Path 653" class="s65" d="m205 547l8-1 8 8h5l1 5-5 7h-1-1l-4-2h-1l-7-3-5-2-8-3v-1z"/>
		<path id="Path 654" class="s29" d="m639 548l12-2h10l2 3h8v2l-2 12-5 1-5 6-8 1-2-3-8-1v-4l-5-4z"/>
		<path id="Path 655" class="s84" d="m343 557v-10l12 2-2 8z"/>
		<path id="Path 656" class="s22" d="m453 551v-4h4v4z"/>
		<path id="Path 657" class="s7" d="m479 554v-7h8l2 2-3 5z"/>
		<path id="Path 658" class="s13" d="m794 549l-1-2 12 3v2l-4-1z"/>
		<path id="Path 659" class="s35" d="m853 567v-8l-4-2 1-10h8l3 4v8l4 6v5z"/>
		<path id="Path 660" class="s36" d="m173 553l-9-4 9 2v1z"/>
		<path id="Path 661" class="s91" d="m343 557h10l2-8h2l9 3-7 8v5 4h-8l-8-3-1-5z"/>
		<path id="Path 662" class="s76" d="m486 554l3-5h11l5 6v16h-10v-5l-9-5z"/>
		<path id="Path 663" class="s92" d="m555 553v-4h8l4 3v7h-12z"/>
		<path id="Path 664" class="s71" d="m693 555v-5l5-1 15 10v8h-8l-11-7z"/>
		<path id="Path 665" class="s17" d="m817 556l1-7 7 3 4 7-9-2z"/>
		<path id="Path 666" class="s68" d="m891 556l1-7h8l3 5-5 6h-4z"/>
		<path id="Path 667" class="s36" d="m121 553l1-2 9 5 1 4-5-2-5-3z"/>
		<path id="Path 668" class="s65" d="m254 555l20-4h19l5 3 4-2 13 3 2 1 2 6-3 5-13-4-9-2-10-2-1 4h-9l-1 8-4 1-2 10-6-1-11-2-7-3-4-2-2-2v-13h2l4 2 5-6z"/>
		<path id="Path 669" class="s14" d="m315 555v-4h5l-3 5z"/>
		<path id="Path 670" class="s30" d="m317 556l3-5h5l8 4 3 6-2 5-15-4z"/>
		<path id="Path 671" class="s67" d="m446 557l7-6h4l2 6 6 1 3 5 1 8v8h-10l-8-2v-13l-6-4z"/>
		<path id="Path 672" class="s31" d="m669 563l2-12h10v4l-4 8z"/>
		<path id="Path 673" class="s9" d="m808 554l-7-3 4 1z"/>
		<path id="Path 674" class="s63" d="m865 565l-4-6v-8h12l2 4v10z"/>
		<path id="Path 675" class="s35" d="m903 554l10-3-1 3v1l-4 4-9 3-1-2z"/>
		<path id="Path 676" class="s11" d="m108 554l-4-2h3z"/>
		<path id="Path 677" class="s0" d="m173 553v-1l5 2z"/>
		<path id="Path 678" class="s41" d="m359 565v-5l7-8h4l1 3v8z"/>
		<path id="Path 679" class="s77" d="m527 553l10-1 8 1 2 8v10l-15 4-6-2-5-1-1-9z"/>
		<path id="Path 680" class="s85" d="m239 559v-6l9 2-5 6z"/>
		<path id="Path 681" class="s72" d="m439 564l-6-2 2-9h5l6 4-1 3z"/>
		<path id="Path 682" class="s79" d="m547 561l-2-8h10v6 2z"/>
		<path id="Path 683" class="s11" d="m109 556l-1-2 2 1z"/>
		<path id="Path 684" class="s9" d="m188 556l-7-2 7 1z"/>
		<path id="Path 685" class="s75" d="m471 555l8-1h7v7l9 5v5l-10-2-5-6h-7-2z"/>
		<path id="Path 686" class="s11" d="m821 559l-12-5 8 2 3 1z"/>
		<path id="Path 687" class="s10" d="m109 556l1-1 8 5 4 2 1 2-7-1z"/>
		<path id="Path 688" class="s58" d="m118 560l4-5 5 3-5 4z"/>
		<path id="Path 689" class="s48" d="m188 556v-1h7v1h-1z"/>
		<path id="Path 690" class="s65" d="m371 563v-8h4l5 6 7 2 1 4z"/>
		<path id="Path 691" class="s12" d="m505 571v-16h6l2 7 7 1 1 9-4 2v1l1 2-5 1z"/>
		<path id="Path 692" class="s29" d="m587 557v-2h9l3 6-3 2v6l-7 1v9l-2 22 4 4-5-1h-1l-5-2-10-4-13-6-7-5-1-1 4-4v-11h2l16 2 2-4h12z"/>
		<path id="Path 693" class="s74" d="m677 563l4-8h12l1 5 11 7h8l5 1 1 9v15l-9 4h-2l5-8-2-5h-15l-3 4h-4l-1-3h-7l-2-3z"/>
		<path id="Path 694" class="s34" d="m875 565v-10l16 1 3 4-1 10-10 1h-6z"/>
		<path id="Path 695" class="s6" d="m908 559l4-4-3 8-7 5v-1z"/>
		<path id="Path 696" class="s1" d="m203 559l-9-3h1z"/>
		<path id="Path 697" class="s1" d="m732 557v-1l2 7h-1z"/>
		<path id="Path 698" class="s12" d="m573 559l14-2-2 12h-12z"/>
		<path id="Path 699" class="s50" d="m731 559l1-2 1 6v1h-2z"/>
		<path id="Path 700" class="s51" d="m821 559l-1-2 9 2 4 3-5-1z"/>
		<path id="Path 701" class="s29" d="m122 562l5-4 5 2h1l4 2h1v3l-5 1h-3l-6-2h-1z"/>
		<path id="Path 702" class="s16" d="m222 566l5-7h10v13h-2l-7-3h-2z"/>
		<path id="Path 703" class="s91" d="m283 563l1-4 10 2-1 8h-6z"/>
		<path id="Path 704" class="s13" d="m555 561v-2h12 6v10l-2 4-16-2z"/>
		<path id="Path 705" class="s31" d="m619 560l17-1 5 4v4l-9 8h-6z"/>
		<path id="Path 706" class="s14" d="m724 561v-2h7v5 13l-3 9-5 4 1-13 3-5v-8z"/>
		<path id="Path 707" class="s20" d="m899 562l9-3-6 8-3 2h-3z"/>
		<path id="Path 708" class="s10" d="m137 562l-4-2 4 1z"/>
		<path id="Path 709" class="s6" d="m146 561l13-1v3l-4 1 1-3-9 1h-1z"/>
		<path id="Path 710" class="s22" d="m439 564l6-4 6 4v13l-2 2h-6l-4-3z"/>
		<path id="Path 711" class="s21" d="m612 561l3-1h4l7 15-2 3h-7l-4-3z"/>
		<path id="Path 712" class="s15" d="m893 570l1-10h4l1 2-3 7-2 1z"/>
		<path id="Path 713" class="s93" d="m137 562v-1h9v1h-8z"/>
		<path id="Path 714" class="s4" d="m147 562l9-1-1 3-3 1h-3z"/>
		<path id="Path 715" class="s4" d="m283 563l4 6h6l1-8 9 2v6l-4 4-26-2 1-8z"/>
		<path id="Path 716" class="s69" d="m334 566l2-5h6l1 5 8 3v6l-9 1h-5z"/>
		<path id="Path 717" class="s76" d="m547 571v-10h8v10h-2z"/>
		<path id="Path 718" class="s15" d="m596 569v-6l3-2h13l1 14-4 1-4-5h-7z"/>
		<path id="Path 719" class="s13" d="m718 568l2-7h4l3 3v8l-3 5h-5z"/>
		<path id="Path 720" class="s94" d="m837 564l-9-3 5 1z"/>
		<path id="Path 721" class="s30" d="m133 566l5-1v-3h8 1l2 3-1 1h-1l-4 1z"/>
		<path id="Path 722" class="s16" d="m303 563l13 4 3-5 15 4 3 10-1 1-37 2-2-2-9 2-1 10h-2l-9-3-5-2h-2l-2-2 2-10 4-1 26 2 4-4z"/>
		<path id="Path 723" class="s4" d="m359 565l12-2 17 4 6 2-3 8-27-2-5-6z"/>
		<path id="Path 724" class="s28" d="m469 571l-1-8h3 2v6z"/>
		<path id="Path 725" class="s25" d="m473 569v-6h7l5 6v2z"/>
		<path id="Path 726" class="s58" d="m659 570l5-6 5-1h8l2 18-12 2-4-2v-8z"/>
		<path id="Path 727" class="s11" d="m733 564v-1h1v8h-1z"/>
		<path id="Path 728" class="s4" d="m731 577v-13h2v7z"/>
		<path id="Path 729" class="s94" d="m841 566l-3-2 5 2z"/>
		<path id="Path 730" class="s11" d="m148 566l1-1h3z"/>
		<path id="Path 731" class="s21" d="m865 570v-5h10l2 6-2 1h-4-2l-3-1z"/>
		<path id="Path 732" class="s48" d="m143 568l-10-2 10 1z"/>
		<path id="Path 733" class="s11" d="m143 567l4-1-4 2z"/>
		<path id="Path 734" class="s0" d="m226 569l-5-3h1z"/>
		<path id="Path 735" class="s11" d="m849 569l-8-3h2l4 1z"/>
		<path id="Path 736" class="s34" d="m626 575h6l9-8 8 1 2 3 8-1 4 3v8l4 2v13l4 4-1 14-5 2h-3l-7-1v-3l1-5-5-6h-8l-3-8-13-7-3-8z"/>
		<path id="Path 737" class="s51" d="m849 569l-2-2h6l12 3 1 1h-7z"/>
		<path id="Path 738" class="s36" d="m899 569l3-2v1z"/>
		<path id="Path 739" class="s23" d="m235 573l-7-4 7 3z"/>
		<path id="Path 740" class="s65" d="m351 575v-6h8l5 6-3 2z"/>
		<path id="Path 741" class="s30" d="m391 577l3-8 7 3 10-2 14 7v10h-7-7-5l-9 2h-3-3z"/>
		<path id="Path 742" class="s60" d="m469 571l4-2 12 2v8h-14-2z"/>
		<path id="Path 743" class="s67" d="m485 571v-2l10 2h10l8 7v5h-4l-10-4-8 2h-6v-2z"/>
		<path id="Path 744" class="s21" d="m589 579v-9l7-1 2 2-3 8z"/>
		<path id="Path 745" class="s36" d="m894 570l2-1h3l-5 2z"/>
		<path id="Path 746" class="s69" d="m883 571l10-1h1v1l-10 2h-1z"/>
		<path id="Path 747" class="s8" d="m532 575l15-4h6v11l-4 4-5-2-4-3-7-5z"/>
		<path id="Path 748" class="s62" d="m595 579l3-8h7l4 5v3l-7 6h-5z"/>
		<path id="Path 749" class="s6" d="m731 577l2-6h1l-3 15-10 7v-1l2-2 5-4z"/>
		<path id="Path 750" class="s18" d="m869 573l-10-2h7l3 1z"/>
		<path id="Path 751" class="s86" d="m875 572l2-1h6v2h-8z"/>
		<path id="Path 752" class="s36" d="m884 573l10-2-10 3z"/>
		<path id="Path 753" class="s6" d="m235 573v-1h2l2 2z"/>
		<path id="Path 754" class="s6" d="m517 574l4-2 5 1z"/>
		<path id="Path 755" class="s10" d="m869 573v-1h2l4 1h8 1v1z"/>
		<path id="Path 756" class="s65" d="m875 573l-4-1h4z"/>
		<path id="Path 757" class="s48" d="m517 574l9-1 6 2 1 1 1 3v2 2l-2-1-5-3-7-2-3-2z"/>
		<path id="Path 758" class="s26" d="m342 576l9-1 10 2 2 14h-17-12-10-14l-11-2v-10l37-2v4l5 1z"/>
		<path id="Path 759" class="s69" d="m361 577l3-2 27 2v12l-4 2h-6l-1-1-1-5h-5l-1 6h-10z"/>
		<path id="Path 760" class="s6" d="m518 577l-1-2 3 2z"/>
		<path id="Path 761" class="s33" d="m609 576l4-1 4 3v3l-8-2z"/>
		<path id="Path 762" class="s65" d="m336 577l1-1h5l-1 6-5-1z"/>
		<path id="Path 763" class="s20" d="m437 577l2-1 4 3v6l-1 7-4-1-1-1z"/>
		<path id="Path 764" class="s46" d="m534 579l-1-3 7 5h-2-1z"/>
		<path id="Path 765" class="s65" d="m287 589l1-10 9-2 2 2v10h-5z"/>
		<path id="Path 766" class="s53" d="m425 587v-10h12v13l-5-1h-5z"/>
		<path id="Path 767" class="s21" d="m449 579l2-2 8 2v5l-10 1z"/>
		<path id="Path 768" class="s59" d="m513 578l5-1h2l7 2v6l-3 1-11-3z"/>
		<path id="Path 769" class="s29" d="m719 592v-15h5l-1 13-2 2z"/>
		<path id="Path 770" class="s68" d="m617 581v-3h7l3 8-2 3h-4z"/>
		<path id="Path 771" class="s31" d="m443 585v-6h6v6z"/>
		<path id="Path 772" class="s31" d="m459 584v-5h10 2l-1 8-6-1z"/>
		<path id="Path 773" class="s21" d="m470 587l1-8h14v2l-5 10z"/>
		<path id="Path 774" class="s74" d="m491 581l8-2 10 4v6h-12z"/>
		<path id="Path 775" class="s14" d="m527 585v-6l5 3v2z"/>
		<path id="Path 776" class="s3" d="m534 581v-2l3 2z"/>
		<path id="Path 777" class="s63" d="m591 605l-4-4 2-22h6l2 6v8l10 9v5h-6-2z"/>
		<path id="Path 778" class="s39" d="m602 585l7-6 8 2 4 8h4v14h-6z"/>
		<path id="Path 779" class="s9" d="m269 584l-8-3 6 1z"/>
		<path id="Path 780" class="s71" d="m480 591l5-10h6l6 8v7l-10-1z"/>
		<path id="Path 781" class="s10" d="m544 584l-6-3h2z"/>
		<path id="Path 782" class="s60" d="m667 583l12-2 2 3h7l1 3v8l-1 3-11 2h-6l-4-4z"/>
		<path id="Path 783" class="s54" d="m532 584v-2l2 1 1 5-1 3v1h-3z"/>
		<path id="Path 784" class="s45" d="m509 589v-6h4l11 3-4 7h-5-4z"/>
		<path id="Path 785" class="s48" d="m535 588l-1-5 2 5z"/>
		<path id="Path 786" class="s67" d="m693 587l3-4h15l2 5-5 8-6 1-9-2z"/>
		<path id="Path 787" class="s33" d="m449 585l10-1 5 2-3 12 12 10v7l-1 4-15-12-12-12-3-3 1-7z"/>
		<path id="Path 788" class="s53" d="m527 585l5-1-1 8-4 4-7-3 4-7z"/>
		<path id="Path 789" class="s10" d="m550 589l-6-5 5 2 1 1z"/>
		<path id="Path 790" class="s5" d="m373 591l1-6h5l1 5z"/>
		<path id="Path 791" class="s34" d="m607 607v-5l-10-9v-8h5l17 18v6h-5-3z"/>
		<path id="Path 792" class="s43" d="m473 615v-7l-12-10 3-12 6 1 10 4 7 4v17z"/>
		<path id="Path 793" class="s43" d="m625 589l2-3 13 7 3 8v10l-2 2-10-2-1-1v-4l-5-3z"/>
		<path id="Path 794" class="s44" d="m397 589l9-2v1z"/>
		<path id="Path 795" class="s49" d="m406 588v-1h5v1z"/>
		<path id="Path 796" class="s44" d="m411 588v-1h7v2z"/>
		<path id="Path 797" class="s32" d="m418 589v-2h7l2 2h-1z"/>
		<path id="Path 798" class="s23" d="m550 589v-2l7 5v1z"/>
		<path id="Path 799" class="s34" d="m689 595v-8h4v8z"/>
		<path id="Path 800" class="s3" d="m534 591l1-3h1z"/>
		<path id="Path 801" class="s24" d="m300 591l-6-2h5z"/>
		<path id="Path 802" class="s44" d="m300 591l-1-2 11 2z"/>
		<path id="Path 803" class="s44" d="m387 591l4-2h3z"/>
		<path id="Path 804" class="s24" d="m432 591l-6-2h1 5z"/>
		<path id="Path 805" class="s27" d="m432 591v-2l5 1 1 1z"/>
		<path id="Path 806" class="s13" d="m497 596v-7h12l2 4h4v6h-8z"/>
		<path id="Path 807" class="s36" d="m373 591l7-1 1 1-35 2v-2h17z"/>
		<path id="Path 808" class="s36" d="m334 593l-10-2h10z"/>
		<path id="Path 809" class="s23" d="m334 593v-2h12v2z"/>
		<path id="Path 810" class="s44" d="m445 598l-7-7 4 1 3 3z"/>
		<path id="Path 811" class="s11" d="m527 596l4-4h3z"/>
		<path id="Path 812" class="s27" d="m557 593v-1l13 6v1l-7-1z"/>
		<path id="Path 813" class="s10" d="m710 596l9-4h2v1l-14 6z"/>
		<path id="Path 814" class="s14" d="m515 599v-6h5l7 3v9l-5 7-3 2-1-10v-5z"/>
		<path id="Path 815" class="s89" d="m445 598v-3l12 12-3-1z"/>
		<path id="Path 816" class="s68" d="m487 612v-17l10 1 10 3 2 12-2 4-2 2h-11z"/>
		<path id="Path 817" class="s31" d="m677 600l11-2 1-3h4l9 2v2l-10 6-7 3-8 3z"/>
		<path id="Path 818" class="s30" d="m702 597l6-1h2l-3 3h-1-4z"/>
		<path id="Path 819" class="s51" d="m570 599v-1l10 4-4-1z"/>
		<path id="Path 820" class="s59" d="m509 611l-2-12h8 3v5l-4 1v5l-3 1z"/>
		<path id="Path 821" class="s32" d="m692 605l10-6h4l-4 3-4 2h-2z"/>
		<path id="Path 822" class="s21" d="m670 614l1-14h6v11l-6 3z"/>
		<path id="Path 823" class="s48" d="m585 604l-9-3 4 1z"/>
		<path id="Path 824" class="s68" d="m643 611v-10h8l5 6-1 5z"/>
		<path id="Path 825" class="s33" d="m619 609v-6h6l5 3v4z"/>
		<path id="Path 826" class="s8" d="m511 611l3-1v-5l4-1 1 10-5 5-3-4z"/>
		<path id="Path 827" class="s11" d="m599 607l-8 1-5-4 5 1z"/>
		<path id="Path 828" class="s10" d="m692 605l4-1-12 7 1-3z"/>
		<path id="Path 829" class="s3" d="m522 612l5-7-1 6-4 2z"/>
		<path id="Path 830" class="s48" d="m457 609l-3-3 3 1z"/>
		<path id="Path 831" class="s32" d="m457 609v-2l15 12 9 8h-3l-2-1-2-2-8-6-2-2z"/>
		<path id="Path 832" class="s32" d="m611 609l-10-2h6z"/>
		<path id="Path 833" class="s32" d="m677 611l8-3-1 3-2 1-4 2h-4-3z"/>
		<path id="Path 834" class="s36" d="m619 611l-5-2h5z"/>
		<path id="Path 835" class="s93" d="m619 611v-2l11 1 1 1 1 2h-1z"/>
		<path id="Path 836" class="s19" d="m507 615l2-4h2v4z"/>
		<path id="Path 837" class="s30" d="m632 613l-1-2 10 2 1 3h-1l-5-2h-1z"/>
		<path id="Path 838" class="s71" d="m641 613l2-2 12 1v3l-12 1h-1z"/>
		<path id="Path 839" class="s67" d="m473 615l14-3 7 5 1 12h-5l-9-2-9-8z"/>
		<path id="Path 840" class="s11" d="m519 614l3-2v1l-10 13-5 2v-1l7-8z"/>
		<path id="Path 841" class="s11" d="m635 614l-4-1h1z"/>
		<path id="Path 842" class="s10" d="m665 616l5-2h1 3z"/>
		<path id="Path 843" class="s75" d="m505 617l2-2h4l3 4-7 8h-2l-1-1z"/>
		<path id="Path 844" class="s54" d="m643 616l12-1 7 1z"/>
		<path id="Path 845" class="s11" d="m662 616v2l-19-2z"/>
		<path id="Path 846" class="s25" d="m495 629l-1-12h11l-1 9-7 3z"/>
		<path id="Path 847" class="s8" d="m497 629l7-3 1 1-6 4h-2z"/>
		<path id="Path 848" class="s48" d="m481 628l-3-1h3z"/>
		<path id="Path 849" class="s51" d="m481 628v-1l9 2 1 2h-2-2l-3-2z"/>
		<path id="Path 850" class="s36" d="m499 631l6-4h2v1l-5 4h-2z"/>
		<path id="Path 851" class="s14" d="m491 631l-1-2h5 2v2h-4z"/>
		<path id="Path 852" class="s9" d="m489 633v-2h2l2 1v1z"/>
		<path id="Path 853" class="s2" d="m493 632l-2-1h2z"/>
		<path id="Path 854" class="s10" d="m493 632v-1h4 2l1 1v1h-7z"/>
		<path id="Path 855" class="s3" d="m500 633v-1h2v1z"/>
	</g>
</svg>