<svg version="1.2" xmlns="http://www.w3.org/2000/svg" viewBox="0 0 1000 1000" width="1000" height="1000">
	<title>Anguilla_rostrata</title>
	<style>
		.s0 { fill: #2e2b2b } 
		.s1 { fill: #312e2e } 
		.s2 { fill: #2b2727 } 
		.s3 { fill: #a27246 } 
		.s4 { fill: #9b6c43 } 
		.s5 { fill: #343232 } 
		.s6 { fill: #d5c6a3 } 
		.s7 { fill: #6b4635 } 
		.s8 { fill: #654334 } 
		.s9 { fill: #dacda5 } 
		.s10 { fill: #724b37 } 
		.s11 { fill: #5b4438 } 
		.s12 { fill: #79513a } 
		.s13 { fill: #3b3532 } 
		.s14 { fill: #5e3e32 } 
		.s15 { fill: #936540 } 
		.s16 { fill: #ccba9e } 
		.s17 { fill: #42342f } 
		.s18 { fill: #423b38 } 
		.s19 { fill: #553b32 } 
		.s20 { fill: #81573c } 
		.s21 { fill: #38312e } 
		.s22 { fill: #8b5d3d } 
		.s23 { fill: #4d3830 } 
		.s24 { fill: #4a3d36 } 
		.s25 { fill: #3b3837 } 
		.s26 { fill: #e4d1a9 } 
		.s27 { fill: #5b493f } 
		.s28 { fill: #4d423c } 
		.s29 { fill: #d8cea8 } 
		.s30 { fill: #e2dbaa } 
		.s31 { fill: #b9854b } 
		.s32 { fill: #c08f4a } 
		.s33 { fill: #c8994d } 
		.s34 { fill: #af9476 } 
		.s35 { fill: #b27e4a } 
		.s36 { fill: #b7a28d } 
		.s37 { fill: #b38b4d } 
		.s38 { fill: #bfa88e } 
		.s39 { fill: #b09a83 } 
		.s40 { fill: #a67b48 } 
		.s41 { fill: #ac7747 } 
		.s42 { fill: #ac8349 } 
		.s43 { fill: #bb9151 } 
		.s44 { fill: #c29755 } 
		.s45 { fill: #cea355 } 
		.s46 { fill: #6f503c } 
		.s47 { fill: #b79f84 } 
		.s48 { fill: #c8a05c } 
		.s49 { fill: #684b3b } 
		.s50 { fill: #c8b193 } 
		.s51 { fill: #966d4a } 
		.s52 { fill: #866043 } 
		.s53 { fill: #7e5b43 } 
		.s54 { fill: #755741 } 
		.s55 { fill: #8d6646 } 
		.s56 { fill: #b9a997 } 
		.s57 { fill: #d1be9c } 
		.s58 { fill: #d1c1a5 } 
		.s59 { fill: #b08b58 } 
		.s60 { fill: #a48a71 } 
		.s61 { fill: #9c7550 } 
		.s62 { fill: #ab8c63 } 
		.s63 { fill: #87664b } 
		.s64 { fill: #9d7e62 } 
		.s65 { fill: #a38f7f } 
		.s66 { fill: #b49467 } 
		.s67 { fill: #906f52 } 
		.s68 { fill: #bd9b65 } 
		.s69 { fill: #cba86a } 
		.s70 { fill: #d7af60 } 
		.s71 { fill: #d2a960 } 
		.s72 { fill: #a4825a } 
		.s73 { fill: #a37e51 } 
		.s74 { fill: #cdb289 } 
		.s75 { fill: #ae9a8c } 
		.s76 { fill: #bda078 } 
		.s77 { fill: #d1b77c } 
		.s78 { fill: #d6c291 } 
		.s79 { fill: #816756 } 
		.s80 { fill: #998171 } 
		.s81 { fill: #a19c96 } 
	</style>
	<g id="Background">
		<path id="Path 3" class="s0" d="m296 441l-2-11 12 1 6 2h5l4 4-1 7-3 3h-5l-11-3zm-146-7l8-1 6 1v10l-3 3-7 3-8-1v3h-9l-7 4h-6v-10l11-3 6 2 1-7zm-67 9l5-3 12 15 4 1v8l-2 2h-6l-5 6-7 1-3-11v-2l11-3v-6zm-42 39l12-15h5l14 3 4 8-20 14-5-7h-7zm715 17l61-18 27-3h5l1 7-6 5v4l-2 8v3l-8 1v-4h-7l-3 3-26 2v-8l-3-3-10 1-3 10-1 4-5-1-1 4-9-2zm-668-1l18-4v7 9l-6 4h-6l-6-10zm-18 5l12-3v4l-2 8-10 4-14-6 10-6zm670-1l10-1v13 2h-9l-2 5-8 1-6 5-10 4-3 5-13-5-8-1-3-4h-8v-9l14-3 3-1 29-7zm-164 22v-9h7l9 2 5 5 2 10-2 4-6-1h-3l-4-10zm70-4l18-1v13l-8 1-10-5zm-34 12l2-12h9l2 9 9 3v5l-5 5-8-9-5 1z"/>
		<path id="Path 4" class="s1" d="m217 426l1-4h6l10 2 2 12-3 2-5 1-4-6-7-3zm41 10l-2-10 30 2 8 2 2 11-8 2zm-94-2l14-6h8l2 1v9l-2 7-7 1-4-3-5 1h-6zm156 10l1-7h4l1 3v4zm32 11l-4-14 14 2 24 8 2 3v8l-2 2-10-4h-11l-3-4h-6zm-237 5l1-14h8v10h-5l-1 4zm734 17l15-1v8l-8 6-1 7h-3l-6 1-2-4v-4l6-5-1-7zm-67 30l3-10 10-1 3 3v8 4l-7-4-3 3zm-32-6l6-2 10 13-1 1-10 2-5-1zm-210 17v-10h2 6l14 3 14 4v9l-2 5h-7l-5-8-12 4h-4zm-440-4l6-4 3 5-8 3zm706 5l14-6 1 4 9 6v7l-6 3v7h-4l-8-2-6-4-5-6zm-126 10v-3h8l3 4-5 4z"/>
		<path id="Path 5" class="s2" d="m135 443l3-5h4l-1 7zm-76 18l7-3 3 3 12 1 3 11-3 5h-5l-4-8-14-3v-5zm42 57l-44 10-24-3-7-9 2-13 5-9h14l3 4-1 4-2 3 3 5h6l14 6 10-4 2-8h6l6 10h6zm563 1l16-2v9 3l-2 3-8-2-2 4-4-2zm-41 1h23v8l-5 5-7-1-9-3z"/>
		<path id="Path 7" class="s3" d="m163 449l9-1h4l4 12v2h-15l-3-4v-4zm153 19v-15h1l13 1 8 4v5l4 2 2 18h-6l-3-4h-9l-5-3v-4zm106 17l1-1 6 1h4l4 5-5 1v9l4 6-2 4h-4l-5-3-1-2-1-7zm67 23l10-2 5 6v6h-3l-5-6h-5zm31 10l6-1 10 4 2 8-4 1v12l-4 2-9-8-1-14zm54 11l2-5 8 1 4 10h3v5l-15-6zm193-2l5-1v8l4 4-2 10-2 4-4 5-6-2v-8l2-6-4-4v-7zm-55 9l3-5 10-4 5 5v6l-6 13-8 2-4-5zm-26-2l5-4 8 1-1 11-3 2-9-6zm-70 0l5-1 8 9 8 2-3 6h-3l-8-10h-7zm-54 16v-4h8l10 3 2 5-13 2h-7zm75 19l-3-2v-9l8 2v7zm52-1l-3-1v-5h7z"/>
		<path id="Path 8" class="s4" d="m186 445l2-7 25 4 3 9v8l-2 3h-7l-19-3zm42-6l5-1 1 2v2h-6zm60 4l8-2 5 3v8l7 5v8l4 3v6h-6l-7-2-13-7zm54 22l-4-2v-5h5l1 4zm-286 27l20-14h5l6 15-3 2-11 2-3 6-4 1-1-3-7 1-3-7zm316-8l2-6h2v6zm426 23l26-2v7l-4 1-14 6-8-8zm-294 21l-3-1v-9h3 5l1 4-3 6zm221-1l6-5 1 8-2 2zm-33 25l3-5 3 2-2 4zm21 8l-7-1v-11h6l4 5-1 4z"/>
		<path id="Path 9" class="s5" d="m234 424l6-3 10 1 6 4 2 10h-6l-8 5h-4l-4-5zm-36 3l19-1v4l7 3 4 6v3l-13-3-2 3-25-4v-9zm136 12v-1h8l6 3 4 14-2 1h-6l-8-7zm54 23v-8h10l3 4 14 3 16 8-3 11-7-1-4-5h-7l-2-4h-8zm476 14l13-1 1 9-5 3-5 1-4 6-3 6-6-3 1-7 8-6zm-343 37v-9l19 4v10h-4l-2-4-8 1z"/>
		<path id="Path 10" class="s6" d="m272 476l2-3h8l10 5v6h-4l-9-1zm106 23l4-3h9l1 6 16-1 4 7 9 1 4 11 11 8v4 6h-4l-6-3-10-4-18-7-10-4-10-5zm471 16l8-2 9 7 4 5v6l-8 1-2-3 1-4-15-2zm-396 13l7-2 6 2v4 6l4 2 2 12-6 1-14-7-2-14zm345 14l6-4h8l8 2v9l-18 7h-2l-2-12zm-272 8l4-2 7 4-2 5zm246 2l2-4h5l1 1v5h-2zm-30 11l6-1 3 9-11 2v-5-4z"/>
		<path id="Path 11" class="s7" d="m192 401h10l2 9h8l5 1 1 11-1 4-19 1-2-21zm32 9l2-4h10l4 7v8l-6 3-10-2zm-72 1l7-2h4l9 9h4l2 10-14 6-6-1zm190 6v-3l21 6-1 23-14-2-6-3zm-36 14v-5h6v7zm-256 79l-3-5 2-3 5 2z"/>
		<path id="Path 12" class="s8" d="m226 399l30-1 1 8-3 5h-4l-14-5h-10zm-48 83l8-1 3 1 1 6-2 10-16 1-2-13 2-3zm-72 12l14-4v8l-14 3z"/>
		<path id="Path 13" class="s9" d="m470 540l7-3h4l1 5h9l1 5 9-2 2 15-3 2-26-5-2-5zm310 9h5l4-5h9l2 12-13 5-2-5-5-2zm-20 8l2-2 6 2 1 10-8 2zm-67 5l2-3 5 1v13l13-11h6l1 3 6 1 3-5 2-1 7 2 2 2v4l-8 1 1 6-41 13v-9l-4-3v-6l1-2zm-43 28v-7l6-2 4 1 2 8zm-80-7l1-1v2z"/>
		<path id="Path 14" class="s10" d="m257 406l-1-8 6 1v6zm27 4l4-3v-6l12 3v12l6 10v5l-12-1-8-2zm-44 11v-8l-4-7 14 5v11zm-23-10l7-1v12h-6zm-167 87l5-3 3 7-4 2-5-2zm512 4l7-2 3 5h8l3 3v7h-7l-14-4zm-20 6v-6h6v6z"/>
		<path id="Path 15" class="s11" d="m306 426l-6-10v-12l12 2v20zm-143-18l9-2 4 12h-4l-9-9zm223 43v-15h9l3 2v16h-10zm29 10l2-4-3-2v-15l37 14 5 12h14l5 8h3l1 13 7 6v5 10h-4l-8-6-4 2-7-2-5-4-2-3-4 3h-9l-1-6-5-2-4-5h-4l-1-5 3-11zm-254-14l3-3h6l2 4-9 1zm156 0l3-3h6l4 5v5l-13-1zm222 41l4-10 15 4-2 9 5 6v5h-13-6zm-325-6l8 1v7l-2 1-6-2zm606 31l4-1h7 9l-1 10 7 1 15 2-1 4-14 10h-2l-6 1v-6l-8-4v-7l-9-6zm-70 3v-2l5 1-1 3z"/>
		<path id="Path 16" class="s12" d="m154 460l2-2h6l3 4-1 2-8 1h-2zm66 31l2-1 6 2v6h-8zm328 17v-6h13 1v9zm81 34l5-5 3 2v5z"/>
		<path id="Path 17" class="s13" d="m210 400l16-1v7l-2 4-7 1-5-1zm116 40l8-1 2 10h-6l-4-5zm144 26h-14l-5-12 21 6zm-281 16l4-1-3 7zm372 20v-5l-5-6 2-9 31 13 25 25-2 12h-13l-2-10-5-5-9-2v-7l-3-3h-8l-3-5-7 2zm-429 6l-3-19h3l4 2 4 15zm509 25l5-5 10 5-10 6-3-2z"/>
		<path id="Path 18" class="s14" d="m312 426v-20l8 2 3 18 11 7v5 1l-8 1-1-3h-4l-4-4h-5zm-176-10l8-3v7l6 6v8l-8 4h-4v-9zm-4 73l5-1-1 3z"/>
		<path id="Path 19" class="s15" d="m244 441l8-5h6l30 7-2 22-12 1-16-2-11-5-3-3zm68 27l-4-3v-8l-7-5v-8l11 3 4 6v15zm-182-12l7-4h9l1 2-4 4 1 4v4l-8 3v-3l-5-2zm213 2l1-2h6v6h-6zm-139 23h3l-1 1zm300 31l2-1 3 1v6h-5zm46 13l12-4 5 8v3l-11 2h-6zm49 7h13l4 2v6l-16 2h-6l-3-2v-5l6 1zm57 1l8-1 4 2 3 4h5v8h-6l-2-4h-7l-3 7-12-5v-5z"/>
		<path id="Path 20" class="s16" d="m260 482l-1-8 11 2-4 6zm32 2v-6h7 7l8 6h8l4-5h9l3 4-1 10 9 7v3h-7l-22-6-2-3-19-3v-5zm626 32l10-2 2 3v1l-14 2zm-72 23l14-10 2 3zm-410-1v-6h14l2 14h-6zm295 22l4-6h5v2 4l-2 2z"/>
		<path id="Path 21" class="s17" d="m68 453l5-3v4l8 6v2l-12-1-3-3zm74 34l14-2 3 10 3 1v6l-17 3 1-12zm-58 12l4-1v6h-6v-4z"/>
		<path id="Path 22" class="s18" d="m918 492l2-14 16 3v5l-3 4-1 6-6-1zm22-5l1-4 26 9 5 10-5 3-14 4v-5l-4-4 1-6-7 3-2-7zm-784-2l4-1 6 2v8l-4 2-3-1z"/>
		<path id="Path 23" class="s19" d="m159 409l4-1v1zm175 29v-5l-11-7-3-18 17 4 1 5h4v21zm-190-25l8-2 6 22-8 1v-8l-6-6zm-38 16l21-9 1 7 10 2v9l-3 5-11 3h-8l-6-5v-9zm256 14l1-23 12 2 11 6v8 15zm33-7l1-4 18 8v15l3 2-2 4-14-3-3-4v-16z"/>
		<path id="Path 24" class="s20" d="m118 460l1-4h5 6l1 8 5 2v3l-8 3-2-6zm-27 12l5-6h6v4l6 5v12l-7 1v-4l-8-6zm429 21l-4-1v-8h3 1zm-311 4l5-8 6 2v7zm256 15l-2-10 7 2 1 8zm300 1l1-1 9 2v5l-7 3zm-229 8v-3h4l6 7h4v9l-4 1-8-6zm132 13l2-4 8 2v5l-2 1h-5z"/>
		<path id="Path 25" class="s21" d="m88 440l18-11 4 3v9l6 5-1 14-11 4v-8l-4-1zm-15 10l10-7 9 8v6l-11 3-8-6zm-40 44l8-12 3 3h7l5 7-1 3-5 3-3-4zm104-6l5-1 4 6-1 12-5 1-4-15zm-31 13l14-3 6 6v6l-17 5-3-5zm718 39v-7l6-3 8 4v6l-4 1z"/>
		<path id="Path 26" class="s22" d="m146 452v-3l8 1v4h-7zm-42 12l11-4h3l8 6 2 6-2 10-18 5v-12l-6-5v-4zm-20 9l7-1 2 6 8 6v4l-14 5-6-15zm106 15l3-7h11l2 1-6 15-12 1zm52 11l2-9h8l2 11zm533 15l1-4 5 1 1 5-7 3zm-20 1l10-2 3 9-1 2-11 3h-2v-9zm-77 17l2-3 6 5v4l-8-1z"/>
		<path id="Path 27" class="s23" d="m127 420l9-4 2 13-10-2zm-74 47l5-5v5zm113 19l4-2v2l2 13-10 3v-6l4-2z"/>
		<path id="Path 28" class="s24" d="m202 401l8-1 2 10h-8zm140 16h-4l-1-5 5 2zm44 19v-8l10 4-1 4zm-153 2l3-2 4 5-6-1zm299 46v-9l11 3-4 10zm-326-2l1-1h4l3 1v7l-5 8h-9zm-86 8l9-1 3 19-6 2v-6l-6-6z"/>
		<path id="Path 29" class="s25" d="m878 484l-1-9h29l14 3-2 14-7 2-3-2-3 2h-5l2 5-7-5-8 3-7-4zm-36 18l4-2 2 4-6 1zm-343 4l1-3 5 1 1 7-2 1z"/>
		<path id="Path 30" class="s26" d="m768 557l4-5 6 2v10l-9 3zm-100 9l7-1 3 3 2 8h8l4 3v9l-22 2 2-14-6-5zm65 9l-1-6 8-1v5z"/>
		<path id="Path 31" class="s27" d="m502 478l-7 2-3-11 10 1zm8 0v-6l11 2-2 10h-3zm363 9l5-3 2 9-2 1zm-387 21v-10h12l2 5-1 3-10 2zm454 0v-6l3-2h6l4 4v5l-4 2-9 2zm-414 7l8-1 2 4v3l-10-4z"/>
		<path id="Path 32" class="s28" d="m470 466l2-6 8 5-2 9h-3zm32 12v-8l8 2v6zm17 6l2-10 11 1v9h-12zm417 2v-5l5 2-1 4zm-25 8l7-2 8 3 3 5-2 10-5-2-3-10h-6z"/>
		<path id="Path 33" class="s29" d="m481 537l4-2 6 7h-9zm20 8l9-3 2 4-2 6 4 3v11l-13-3-1-1 3-2zm43 14l8-3 4 4-2 2h-7zm22 3l2-1 11 2 1 7 11-6 5-2 7 1 2 7h7l11-6 6 3 1 5 7-3 5-2 12-1-1 9 3 1v5l-6 2v7h-17-37l-14-3-11-3v-2l1-11-7-6z"/>
		<path id="Path 34" class="s30" d="m514 555l12-5 9 7 1 5 8-3 3 3h7v6l7-3h4l7 6-1 11-1 1-56-17zm264 9v-10h2l5 2 2 5zm-29-6l4-2 7 1 1 12-10 2-3-9zm-93 18l4-5h6l6 5-2 14h-8l-2-8-4-1z"/>
		<path id="Path 35" fill-rule="evenodd" class="s31" d="m392 478h8l6 1v9l12 10v6l6 1 1 2-4 2-9-1-4-7-16 1-1-6-3-4 2-8zm30 7l-4-5h3l2 4zm14 21l8-1 7 2 9 8v11l-7 2-5-2-1-8h-13v-8zm38 26l2-10 7-4 3 4 1 8-2 5-4 2h-4zm72 3l4-1h6v10h-10zm130 3l2-1 8 1 9 6v3l-3 5-6 5-4-1v-8l-6-2zm-18 11l3-7h7l2 4v6h-9z"/>
		<path id="Path 36" class="s32" d="m370 488l2-4h4l6 8v1l-10-1zm82 10l4-3 2 3-1 3h-5zm57 20v-6l9 2 2 4v4h-10zm221 14l2-2h6l2 8h-10zm-160 8h3l3-6 15 6 3 2v10l-8 2h-4l-2-5-10-3zm-60-2l6-2h5l9 8v4l-4 2-12 5-4-3 2-6-2-4z"/>
		<path id="Path 37" class="s33" d="m436 506l-4-6v-9l5-1 5 2 1 6 1 7zm16-5h5l1-3 5 4 2 10-1 7h6l1-7-1-8 4-2 8 6 1 10-7 4-2 10h-8v-4l-6-2v-11l-9-8zm55 27l3-6h10l1 14h-5zm23 16l4-2v-12l4-1 8 6v9l6 8v4l-8 3-8 3-1-5 2-5-7-4zm26-10l11-2 3 8v6h-8l-6-2zm44 8l16-2h7l8 10h3v8 9l3 2-7 3-1-5-6-3 1-7-3-3-18-2zm70 10v-6h6l6 2v8l4 1v5 5l3 1-1 2-10-2-3-3-3-3 2-9z"/>
		<path id="Path 38" class="s34" d="m144 462l-1-4 4-4h7l2 1v3l-2 2zm134 36v-9l8 1-2 8zm478 29l11-3v3l-7 3h-4zm-340 9v-5l10 4v5l-8-1z"/>
		<path id="Path 39" class="s35" d="m594 552v-10h6l3 10 18 2 3 3-1 7-11 6h-7l-2-7-7-1zm146 8v-4l9 2-1 4-6 1z"/>
		<path id="Path 40" class="s36" d="m186 475l18-3 8 2-1 7h-4-3-11l-4 1-3-1zm-14 8l-2-7h8v6zm88 3v-4h6v4zm28 4v-6h4l4 2v5zm74 45v-5l4-4 20 2-4 15z"/>
		<path id="Path 41" class="s37" d="m136 469l8-3 6 1v9l-6 4-18 2 2-10z"/>
		<path id="Path 42" class="s38" d="m240 483v-9h19l1 8v4h-8l-8-2zm606 29l6-4 5 3v2l-8 2zm-71 7l7-3h6l1 5-17 5-5 1v-3l1-2zm-389 9l2-3 9 2 1 7-3 14-13-5zm18 23l2-15h10l2 3 8 1 2 2 1 6-1 10-12-2z"/>
		<path id="Path 43" class="s39" d="m334 525v-16l5-6h7l16 3 9 7-1 3 17 6 1 3-2 3-20-2-4 4v5l-20-7zm94 33l1-10h7l16 3 2 7z"/>
		<path id="Path 44" class="s40" d="m342 465l2-3h6l6 2h5l1 6 12 8-2 6-2 4h-8l-18-5zm510 39v-7h3l6 3v1l-1 10h-3l-5-3zm-215 40v-5h3v5z"/>
		<path id="Path 45" class="s41" d="m234 442v-2l6 1h4v15l3 3-2 3h-9l-2-4zm78 32v-6h4l5 4v4l-8 1zm198 64l-5-1-1-9h3l9 8zm188 4l1-11 13 5v12h-6l-1-6zm-58-3l3-2 3 2v5h-6z"/>
		<path id="Path 46" class="s42" d="m213 442l2-3 13 3h6v16l-4 2-7-1v-6l-7-2zm-34 4l7-1 2 14-8 1-4-12z"/>
		<path id="Path 47" class="s43" d="m230 460l4-2 2 4-5 2zm151 18l5-4 6 4-2 6h-5zm37 20l-12-10v-9l12 1 4 5 1 13zm424 7l6-1h4v4l-6 4h-4zm-144 44l8-1v11l7 1v2l-13 11v-13l-5-1 1-6zm-146 3l10-2v6l-1 4h-1-4l-4-4zm17 4l13-2h4v6l-7 3-11-2z"/>
		<path id="Path 48" class="s44" d="m434 518l-5-1 1-7h4zm200 32l3-6h3 6l12 5 3 3-1 15v4l-4 5-3-1 1-9-12 1v-7l-8-2z"/>
		<path id="Path 49" class="s45" d="m490 522l1-10h5l5 6v9l3 1 1 9 5 1v4l-9 3-9 2-1-5-6-7 2-5 7-1z"/>
		<path id="Path 50" class="s46" d="m278 400l10 1v6l-4 3-6-6zm-106 6l8-2v9l5 5 1 10h-8l-2-10zm178 50l2-1 4 1v8l-6-2zm170 37v-9h12l7 4 3 14v6h-2l-19-4zm219 28l2-5h9l4 2v9l-4 2-3-4-8-1zm-105 16v-5l7 1 2 4-3 2h-3z"/>
		<path id="Path 51" class="s47" d="m204 472v-7l3-3h7l7 8h9l3 4h7v9h-8l-7-2-3 2-8-1-3-1 1-7zm724 38l8-1 1 8h-7l-2-3zm-178 19l4-2h2v3l-6 3zm-321 19l-1-6h4l4 6z"/>
		<path id="Path 52" class="s48" d="m756 544l1-6 3-1 4 4-2 6h-4zm-96 23l8-1-2 5h-6z"/>
		<path id="Path 53" class="s49" d="m257 406l5-1v-6l16 1v4l6 6 2 18-30-2-6-4v-11h4zm-77-2l12-3 4 5 2 21-10 2-2-1-1-10-5-5zm176 60v-8h6l3 4-4 4zm122 10l2-9 12 4 3 11 7-2h8l6 6v8l4 1 1 11v9l-3 1-9-2-3-1-1-7-5-1-2-5h-12v-5l-7-6zm-256 9l3-2 7 2 2 11-3 4h-3v-6l-6-2z"/>
		<path id="Path 54" class="s50" d="m306 478v-4h6l1 3 8-1 5 3-4 5h-8zm89 70l3-14 8 2-2 15z"/>
		<path id="Path 55" class="s51" d="m216 459v-8l7 2v6zm160 25v-6h5l4 6h5l-2 8h-6zm405 27l1-4 6 3v6h-6zm-9 15l17-5 2 15-2 8-4 5h-5l-1-1 1-10h-4l-4-4zm-285 4l-1-8h4l4 7zm237 21l6-13h10l2 8 8-2h6l2 3-5 9-4 2-9-2v-2-4l-5 4-4 6-2 1-5-3zm-172 1l-6-8h10l6 2v4zm9 13l-1-5h1l5 2-1 3zm18-2l7-3 5 4-11 6z"/>
		<path id="Path 56" class="s52" d="m170 444l5-1 4 3-3 2h-4zm191 20l4-4h11l10 4v10l-5 4h-5-2l-12-8zm39 14v-8h8l2 4h7l4 5v1h-3l-12-1zm167 54v-3h7l2 5-3 6h-3zm183 1l6-3h4v7l-3 1-1 6h-6z"/>
		<path id="Path 57" class="s53" d="m316 453l-4-6h5v6zm105 27v-1l7 1 1 5-6-1zm97 34l3-1 5 2v2l-6 1z"/>
		<path id="Path 58" class="s54" d="m330 454v-5h6l8 7-1 2h-5zm-186 8l10-2v5l-4 2-6-1zm242 2l2-2 12 8v8h-8l-6-4zm58 41l-1-7h9v3l-1 6zm287 17l8-1v3l-1 6h-6zm-45 35l6-5 4 1-1 6-2 3h-7z"/>
		<path id="Path 59" class="s55" d="m154 450l7-3 2 2-1 5-6 1-2-1zm90 40v-6l8 2v4zm602 8l6-1v7h-4l-2-4zm-422 7l-6-1v-6h5zm59 13l-1-10h4 3l2 4-1 10h-4zm-12-6l-1 7h-6l1-7zm115 42l8-2 2 10-5 2-5-4zm74 13l1-15h9l4 1-2 9-4 4z"/>
		<path id="Path 60" class="s56" d="m178 476l2-2 6 1v6l-8 1zm88 6l4-6h2l7 7 9 1v6h-2l-8-1-12-3zm200 71l6-1 2 5h-8z"/>
		<path id="Path 61" class="s57" d="m346 503v-3l-9-7 1-10h6l18 5v10 8zm36-10v-1h6l3 4h-9zm39 16l4-2 5 3-1 7 5 1h13l1 8 5 2-3 4h-14v-4l-11-8zm368 35l2-8h5l2 6v2zm31 5v-9h4l10 1 2 1z"/>
		<path id="Path 62" class="s58" d="m362 506v-8l16 1v16l-7-2z"/>
		<path id="Path 63" class="s59" d="m164 464l1-2h15v12l-2 2h-8l-6-7zm-14 3l4-2h2v11h-6z"/>
		<path id="Path 64" class="s60" d="m304 514v-7l13-10 22 6-5 6v16zm632-5l4-1v5 3l-3 1zm-539 18l1-3 18 7v5h-10l-8-2zm35 15v-4h4l10 8h6l14 7v4h-4l-8 1-2-7-16-3z"/>
		<path id="Path 65" class="s61" d="m252 490v-4h8 6l12 3v9l-2 9-22-6zm681 0l3-4 4 1 1 3zm-195 40l1-6 8 1 3 4v4 11l-8 2-2-8z"/>
		<path id="Path 66" class="s62" d="m156 455l6-1v4h-6zm128 43l2-8h2l8 1 19 3 2 3-13 10v7l-20-5zm577 2l3-6 1 7h-4z"/>
		<path id="Path 67" class="s63" d="m231 498l3-4-2-11h8l4 1v6l-2 9zm695-3l6 1 1-6h8l2 7v3l-3 2v6l-4 1-8 1h-1l2-10zm-102 10l3-3h7v4l-3 6h-7zm-263 55l1-4h7l-1 5-2 1z"/>
		<path id="Path 68" class="s64" d="m902 499l-2-5h5l1 4zm41-2l7-3-1 6h-6zm-109 9l8-1v7h-2-9zm-447 16l1-2 10 4-1 3-9-2z"/>
		<path id="Path 69" class="s65" d="m70 503l3-6 11-2v4l-2 1zm-12-1l7-1 1 3-10 6h-6l4-6zm780 38l6-1-8 3-2-1z"/>
		<path id="Path 70" class="s66" d="m180 460l8-1 19 3-3 3v7l-18 3-6-1v-12zm34 2l2-3h7l7 1 1 4-1 6h-9zm-58 3l8-1v5l6 7 2 7-2 3v-2l-4 2-6-2v-5l-4-3zm560 88l8-2v7l5 3-3 5-6-1-1-3 1-4-5-1z"/>
		<path id="Path 71" class="s67" d="m59 461l9-8-2 5zm805 33l4-6 5-1 5 7v3l-13 4zm41 0l3-2 3 2 2 4h6l3 10h-4l-7-6v-4h-5zm-48 19v-2h3l10 7v2h-4z"/>
		<path id="Path 72" class="s68" d="m299 478v-6l7 2v4z"/>
		<path id="Path 73" class="s69" d="m274 466l12-1 13 7v6h-7l-10-5h-8zm461 88l5-4v4z"/>
		<path id="Path 74" class="s70" d="m865 501l13-4 4 2v13l-3 6h-9l-10-7 1-10z"/>
		<path id="Path 75" class="s71" d="m887 497l8-3 7 5 4-1h5v4l7 6v8l-2 4-23 5-1-4h-8l-5-3 3-6v-13zm-417 43l-4-2v-6h8l3 5zm268 22l2-2 2 3-2 1z"/>
		<path id="Path 76" class="s72" d="m878 494l2-1 7 4-5 2-4-2zm-602 13l2-9h6v11zm150 33v-5l6 3v4h-4zm128 22l2-2h4l1 5-7 3z"/>
		<path id="Path 77" class="s73" d="m788 510l3-3 7 4 8 8-5 9 5 6-2 4-6 4-2-6h-5l-2-15-1-5zm58 13l-7-1 1-10h2 4l3 3z"/>
		<path id="Path 78" class="s74" d="m362 498v-10h8l2 4 10 1v3l-4 3zm412 50l2-10h4l-1 10z"/>
		<path id="Path 79" class="s75" d="m126 482l18-2 6-4h6l4 3v5l-4 1-14 2-5 1-5 1h-3l-9 1-14 4-18 4-4 1v-4l3-2 14-5 7-1zm814 31l9-2 2 3-11 2z"/>
		<path id="Path 80" class="s76" d="m236 462h9l2-3 11 5 16 2v7l-2 3h-2l-11-2h-19-7l-3-4 1-6zm682 54v-8h4l5 2h1v4zm-48 15v-6l-4-5h4l11 3 3-2h8l1 4zm-175 13l3-2h7l1 6-8 1-3-2z"/>
		<path id="Path 81" class="s77" d="m804 538l2-4 6 4zm-136 28l4-4 3 3z"/>
		<path id="Path 82" class="s78" d="m753 556l5-9h4v8l-2 2zm-40 4l2-3 5 1-1 4h-6zm-25 16h-8l-2-8 10 2z"/>
		<path id="Path 83" class="s79" d="m842 502l2-8 2 4v2zm-455 20l-17-6 1-3 7 2 10 5zm483-2v-2h9l5 3-3 2z"/>
		<path id="Path 84" class="s80" d="m953 509l14-4-16 9-2-3z"/>
		<path id="Path 85" class="s81" d="m844 478l5-1v1z"/>
	</g>
</svg>