<svg version="1.2" xmlns="http://www.w3.org/2000/svg" viewBox="0 0 1000 1000" width="1000" height="1000">
	<title>Apeltes_quadracus</title>
	<style>
		.s0 { fill: #e7e1d1 } 
		.s1 { fill: #fefefe } 
		.s2 { fill: #e9d19b } 
		.s3 { fill: #fdfdf9 } 
		.s4 { fill: #da9a69 } 
		.s5 { fill: #eddba7 } 
		.s6 { fill: #c2bcaf } 
		.s7 { fill: #f2e3b2 } 
		.s8 { fill: #cfc9bc } 
		.s9 { fill: #dec894 } 
		.s10 { fill: #f4f4ed } 
		.s11 { fill: #f3e7c1 } 
		.s12 { fill: #b6ada1 } 
		.s13 { fill: #c8baa1 } 
		.s14 { fill: #e1d8c1 } 
		.s15 { fill: #cec2a9 } 
		.s16 { fill: #7f7c7d } 
		.s17 { fill: #d7caad } 
		.s18 { fill: #d7d3cc } 
		.s19 { fill: #c0b197 } 
		.s20 { fill: #58514f } 
		.s21 { fill: #d4c6a1 } 
		.s22 { fill: #74706f } 
		.s23 { fill: #aa9c8b } 
		.s24 { fill: #dfcfa3 } 
		.s25 { fill: #cbb78a } 
		.s26 { fill: #b69f79 } 
		.s27 { fill: #dcd1b5 } 
		.s28 { fill: #baa787 } 
		.s29 { fill: #d0bf98 } 
		.s30 { fill: #99938d } 
		.s31 { fill: #d6bf84 } 
		.s32 { fill: #aa8d61 } 
		.s33 { fill: #e4d5ad } 
		.s34 { fill: #5d3e22 } 
		.s35 { fill: #c2a365 } 
		.s36 { fill: #614232 } 
		.s37 { fill: #8f8075 } 
		.s38 { fill: #e9deb9 } 
		.s39 { fill: #c4ad7c } 
		.s40 { fill: #95775d } 
		.s41 { fill: #74503c } 
		.s42 { fill: #452f2d } 
		.s43 { fill: #d0af61 } 
		.s44 { fill: #513834 } 
		.s45 { fill: #87614a } 
		.s46 { fill: #766054 } 
		.s47 { fill: #634a41 } 
		.s48 { fill: #83776f } 
		.s49 { fill: #a3927f } 
		.s50 { fill: #a77b4b } 
		.s51 { fill: #6b574f } 
		.s52 { fill: #b0a596 } 
		.s53 { fill: #bc9343 } 
		.s54 { fill: #b69057 } 
		.s55 { fill: #826f61 } 
		.s56 { fill: #493b3a } 
		.s57 { fill: #918a84 } 
		.s58 { fill: #645c59 } 
		.s59 { fill: #b28235 } 
		.s60 { fill: #a6805a } 
		.s61 { fill: #4d4847 } 
		.s62 { fill: #f5eed5 } 
		.s63 { fill: #433f3f } 
		.s64 { fill: #3e3537 } 
		.s65 { fill: #95693e } 
		.s66 { fill: #5f4e4a } 
		.s67 { fill: #9d8369 } 
		.s68 { fill: #5a413c } 
		.s69 { fill: #a07853 } 
		.s70 { fill: #544442 } 
		.s71 { fill: #90704d } 
		.s72 { fill: #856856 } 
		.s73 { fill: #b38663 } 
		.s74 { fill: #4c2f25 } 
		.s75 { fill: #97672a } 
		.s76 { fill: #7f5a3f } 
		.s77 { fill: #382e33 } 
		.s78 { fill: #281d25 } 
		.s79 { fill: #3b2326 } 
		.s80 { fill: #31262d } 
		.s81 { fill: #705046 } 
		.s82 { fill: #7e5a48 } 
		.s83 { fill: #716863 } 
		.s84 { fill: #58392d } 
		.s85 { fill: #b7986c } 
		.s86 { fill: #94674d } 
		.s87 { fill: #35191a } 
		.s88 { fill: #6a4836 } 
		.s89 { fill: #724e2b } 
		.s90 { fill: #a39e97 } 
	</style>
	<g id="Background">
		<path id="Path 1" class="s0" d="m281.4 640h-5.7l-1.4-4.3 7.1 2.9z"/>
		<path id="Path 2" class="s1" d="m288.6 632.9l4.3-2.9 4.2 4.3-2.8 11.4h-10l-2.9-5.7v-1.4z"/>
		<path id="Path 3" class="s2" d="m274.3 628.6l2.8-2.9h5.8l-1.5 5.7 7.2 1.5-7.2 5.7-7.1-2.9z"/>
		<path id="Path 4" class="s3" d="m274.3 628.6l-4.3-7.2h5.7l1.4 4.3z"/>
		<path id="Path 5" class="s2" d="m371.4 625.7v-5.7h22.9l-1.4 5.7z"/>
		<path id="Path 6" class="s4" d="m282.9 625.7l5.7-5.7 8.5 4.3-4.2 5.7-4.3 2.9-7.2-1.5z"/>
		<path id="Path 7" class="s5" d="m362.9 625.7l1.4-10 7.1 4.3v5.7z"/>
		<path id="Path 8" class="s6" d="m234.3 621.4l2.8-5.7 5.8 1.4v5.8z"/>
		<path id="Path 9" class="s7" d="m351.4 615.7l5.7-1.4 7.2 1.4-1.4 10h-11.5z"/>
		<path id="Path 10" class="s8" d="m242.9 617.1h11.4l2.8-5.7h8.6l2.9 8.6-25.7 2.9z"/>
		<path id="Path 11" class="s9" d="m288.6 620v-12.9h7.1l7.2 7.2v5.7l-5.8 4.3z"/>
		<path id="Path 13" class="s10" d="m351.4 615.7l-5.7-2.8v-7.2h5.7l5.7 2.9v5.7z"/>
		<path id="Path 14" class="s11" d="m237.1 615.7l-1.4-10h18.6l2.8 5.7-2.8 5.7h-11.4z"/>
		<path id="Path 15" class="s12" d="m202.9 605.7v10h-17.2v-10z"/>
		<path id="Path 16" class="s13" d="m168.6 614.3v-8.6h14.3 2.8v10z"/>
		<path id="Path 17" class="s0" d="m540 614.3l4.3-10h4.3v1.4 5.7l-5.7 2.9z"/>
		<path id="Path 18" class="s12" d="m561.4 605.7v-5.7h1.5l2.8 5.7-1.4 2.9z"/>
		<path id="Path 19" class="s14" d="m548.6 604.3l12.8-4.3v5.7h-12.8z"/>
		<path id="Path 20" class="s15" d="m92.9 607.1l1.4-7.1h5.7v5.7z"/>
		<path id="Path 21" class="s16" d="m75.7 604.3v-4.3h5.7l-1.4 5.7z"/>
		<path id="Path 23" class="s15" d="m134.3 600l1.4-2.9h30l2.9 8.6v8.6l-34.3-5.7z"/>
		<path id="Path 24" class="s17" d="m120 607.1v-10h5.7l8.6 2.9v8.6z"/>
		<path id="Path 25" class="s3" d="m344.3 598.6l4.3-2.9h2.8v10h-5.7z"/>
		<path id="Path 26" class="s18" d="m491.4 594.3v8.6h-8.5v-8.6z"/>
		<path id="Path 27" class="s19" d="m202.9 597.1l12.8 1.5 1.4-4.3h17.2l7.1 2.8 1.5-2.8 11.4 1.4v10h-18.6l1.4 10-2.8 5.7-31.4-5.7v-10z"/>
		<path id="Path 28" class="s13" d="m81.4 600l4.3-5.7h4.3l4.3 5.7-1.4 7.1-12.9-1.4z"/>
		<path id="Path 29" class="s6" d="m185.7 592.9l15.7-1.5 1.5 5.7v8.6h-17.2-2.8v-12.8z"/>
		<path id="Path 30" class="s20" d="m77.1 595.7l5.8-4.3 2.8 2.9-4.3 5.7h-5.7z"/>
		<path id="Path 31" class="s21" d="m165.7 597.1l2.9-7.1h8.5l5.8 2.9v12.8h-14.3z"/>
		<path id="Path 32" class="s22" d="m530 592.9l12.9-4.3 11.4 1.4 1.4 4.3 10-1.4 2.9 2.8-5.7 4.3h-1.5l-12.8 4.3h-4.3l-2.9-4.3-8.5 2.9z"/>
		<path id="Path 34" class="s11" d="m234.3 594.3l2.8-5.7h5.8v5.7l-1.5 2.8z"/>
		<path id="Path 35" class="s23" d="m75.7 604.3l-10-5.7 4.3-10 7.1 7.1-1.4 4.3z"/>
		<path id="Path 37" class="s24" d="m254.3 595.7l2.8-10 5.8 5.7 14.2-1.4h4.3l7.2 17.1v12.9l-5.7 5.7h-5.8l-1.4-4.3h-5.7l-1.4-1.4-2.9-8.6h-8.6l-2.8-5.7z"/>
		<path id="Path 38" class="s25" d="m125.7 597.1v-11.4h7.2l2.8 11.4-1.4 2.9z"/>
		<path id="Path 39" class="s26" d="m82.9 591.4v-5.7l8.5 1.4-1.4 7.2h-4.3z"/>
		<path id="Path 41" class="s27" d="m348.6 595.7v-12.8h7.1l1.4 11.4-5.7 1.4z"/>
		<path id="Path 42" class="s28" d="m528.6 585.7l8.5-4.3 5.8 1.5v5.7l-12.9 4.3z"/>
		<path id="Path 43" class="s29" d="m321.4 582.9l10-1.5 2.9 1.5v17.1l-10 4.3-4.3-8.6z"/>
		<path id="Path 44" class="s30" d="m201.4 591.4l7.2-10 8.5 5.7v7.2l-1.4 4.3-12.8-1.5z"/>
		<path id="Path 45" class="s17" d="m177.1 590l1.5-7.1 5.7-1.5 1.4 11.5h-2.8z"/>
		<path id="Path 46" class="s27" d="m100 600v-18.6h8.6l11.4 5.7v10 10l-20-1.4z"/>
		<path id="Path 47" class="s29" d="m91.4 587.1l8.6-5.7v18.6h-5.7l-4.3-5.7z"/>
		<path id="Path 48" class="s8" d="m491.4 585.7l11.5-5.7 8.5 2.9 11.5 2.8h5.7l1.4 7.2 2.9 10 8.5-2.9 2.9 4.3-4.3 10-22.9-10-25.7-1.4v-8.6z"/>
		<path id="Path 49" class="s14" d="m457.1 580v5.7h-8.5v-5.7z"/>
		<path id="Path 50" class="s26" d="m242.9 580v8.6h-5.8v-8.6z"/>
		<path id="Path 51" class="s17" d="m334.3 582.9l1.4-4.3h8.6l4.3 4.3v12.8l-4.3 2.9-10 1.4z"/>
		<path id="Path 52" class="s31" d="m295.7 587.1l11.4-1.4 4.3-7.1 8.6 1.4 1.4 2.9-1.4 12.8 4.3 8.6-21.4 10-7.2-7.2h-7.1l-7.2-17.1z"/>
		<path id="Path 53" class="s32" d="m70 588.6l4.3-10 8.6 7.1v5.7l-5.8 4.3z"/>
		<path id="Path 54" class="s16" d="m657.1 585.7l1.5-10 5.7 2.9v5.7z"/>
		<path id="Path 55" class="s21" d="m524.3 575.7l11.4-1.4 1.4 7.1-8.5 4.3h-5.7z"/>
		<path id="Path 56" class="s33" d="m344.3 578.6l5.7-4.3 5.7 2.8v5.8h-7.1z"/>
		<path id="Path 57" class="s34" d="m298.6 577.1l11.4-2.8 1.4 4.3-4.3 7.1-11.4 1.4v-4.2l5.7-1.5z"/>
		<path id="Path 58" class="s35" d="m277.1 575.7l5.8-2.8 15.7 4.2 2.8 4.3-5.7 1.5v4.2l-14.3 2.9h-4.3z"/>
		<path id="Path 59" class="s11" d="m184.3 575.7l4.3-2.8 14.3 1.4 5.7 4.3v2.8l-7.2 10-15.7 1.5-1.4-11.5z"/>
		<path id="Path 60" class="s9" d="m125.7 585.7l1.4-12.8 7.2 1.4-1.4 11.4z"/>
		<path id="Path 61" class="s11" d="m925.7 594.3v-22.9h11.4l2.9 20z"/>
		<path id="Path 62" class="s11" d="m457.1 580v-8.6h7.2l7.1 4.3 12.9 10h7.1v8.6h-8.5l-22.9-5.7-2.9-2.9z"/>
		<path id="Path 63" class="s17" d="m375.7 574.3l4.3 5.7h11.4l4.3-8.6h18.6l5.7 1.5v12.8l-62.9 8.6-1.4-11.4v-5.8l7.2-2.8h2.8z"/>
		<path id="Path 64" class="s36" d="m320 580l1.4-5.7 7.2-2.9 2.8 10-10 1.5z"/>
		<path id="Path 65" class="s23" d="m212.9 574.3l5.7-2.9h4.3 11.4l2.8 8.6v8.6l-2.8 5.7h-17.2v-7.2l-8.5-5.7v-2.8z"/>
		<path id="Path 66" class="s37" d="m212.9 572.9l2.8-1.5h2.9l-5.7 2.9z"/>
		<path id="Path 67" class="s2" d="m202.9 574.3l2.8-2.9 7.2 1.5v1.4l-4.3 4.3z"/>
		<path id="Path 68" class="s29" d="m110 575.7l5.7-4.3h8.6l2.8 1.5-1.4 12.8v11.4h-5.7v-10l-11.4-5.7z"/>
		<path id="Path 69" class="s28" d="m100 581.4l1.4-10h7.2l1.4 4.3-1.4 5.7z"/>
		<path id="Path 70" class="s38" d="m914.3 597.1v-27.1l11.4 1.4v22.9z"/>
		<path id="Path 71" class="s24" d="m380 571.4h15.7l-4.3 8.6h-11.4l-4.3-5.7 1.4-2.9z"/>
		<path id="Path 72" class="s32" d="m365.7 574.3l4.3-4.3 7.1 1.4-1.4 2.9z"/>
		<path id="Path 73" class="s39" d="m338.6 571.4l7.1-1.4 4.3 4.3-5.7 4.3h-8.6z"/>
		<path id="Path 74" class="s39" d="m234.3 571.4v-2.8h8.6l2.8 7.1-2.8 4.3h-5.8z"/>
		<path id="Path 76" class="s40" d="m497.1 574.3l1.5-7.2h4.3l8.5 15.8-8.5-2.9v-4.3z"/>
		<path id="Path 77" class="s7" d="m471.4 575.7l-1.4-8.6h7.1l11.5 7.2h8.5l5.8 1.4v4.3l-11.5 5.7h-7.1z"/>
		<path id="Path 78" class="s41" d="m328.6 571.4l2.8-4.3h5.7l1.5 4.3-2.9 7.2-1.4 4.3-2.9-1.5z"/>
		<path id="Path 79" class="s21" d="m147.1 571.4l2.9-4.3 10 1.5v5.7l-7.1 2.8z"/>
		<path id="Path 80" class="s9" d="m414.3 571.4v-5.7h7.1 2.9l1.4 2.9-5.7 4.3z"/>
		<path id="Path 81" class="s42" d="m215.7 571.4v-5.7l7.2 1.4v4.3h-4.3z"/>
		<path id="Path 82" class="s40" d="m108.6 571.4v-4.3l5.7-1.4 1.4 5.7-5.7 4.3z"/>
		<path id="Path 83" class="s19" d="m542.9 582.9v-4.3l18.5-14.3 7.2 7.1-2.9 21.5-10 1.4-1.4-4.3-11.4-1.4z"/>
		<path id="Path 84" class="s24" d="m442.9 565.7l7.1-1.4 7.1 7.1v8.6h-8.5l-4.3-2.9z"/>
		<path id="Path 85" class="s15" d="m425.7 568.6l11.4 2.8v-5.7l5.8-1.4v1.4l1.4 11.4 4.3 2.9v5.7h-20-8.6v-12.8z"/>
		<path id="Path 86" class="s40" d="m205.7 565.7l7.2-1.4 2.8 1.4v5.7l-2.8 1.5-7.2-1.5z"/>
		<path id="Path 87" class="s43" d="m191.4 565.7h12.9 1.4v5.7l-2.8 2.9-14.3-1.4z"/>
		<path id="Path 88" class="s19" d="m857.1 578.6l2.9-15.7 8.6 5.7 1.4 4.3-2.9 10z"/>
		<path id="Path 89" class="s41" d="m464.3 571.4l1.4-8.5 4.3 4.2 1.4 8.6z"/>
		<path id="Path 90" class="s44" d="m362.9 574.3l-2.9-5.7 5.7-5.7h8.6 8.6l-2.9 8.5h-2.9l-7.1-1.4-4.3 4.3z"/>
		<path id="Path 91" class="s37" d="m222.9 567.1l4.2-4.2h7.2v5.7 2.8h-11.4z"/>
		<path id="Path 92" class="s45" d="m124.3 571.4l5.7-8.5h5.7v2.8l-1.4 8.6-7.2-1.4z"/>
		<path id="Path 93" class="s46" d="m71.4 572.9l4.3-7.2 10-2.8h8.6l7.1 8.5-1.4 10-8.6 5.7-8.5-1.4-8.6-7.1z"/>
		<path id="Path 94" class="s43" d="m310 574.3l5.7-12.9 12.9 4.3 2.8 1.4-2.8 4.3-7.2 2.9-1.4 5.7-8.6-1.4z"/>
		<path id="Path 95" class="s40" d="m242.9 568.6l1.4-7.2h12.8l5.8 2.9v8.6l-5.8 12.8-2.8 10-11.4-1.4v-5.7-8.6l2.8-4.3z"/>
		<path id="Path 96" class="s31" d="m204.3 565.7l4.3-5.7 4.3 1.4v2.9l-7.2 1.4z"/>
		<path id="Path 97" class="s47" d="m135.7 562.9l4.3-2.9 20 2.9v5.7l-10-1.5-2.9 4.3h-4.2l1.4-7.1-8.6 1.4z"/>
		<path id="Path 98" class="s12" d="m658.6 561.4l31.4-2.8 8.6 1.4 1.4 14.3-35.7 10v-5.7l-5.7-2.9z"/>
		<path id="Path 99" class="s39" d="m160 562.9l4.3-4.3 2.8 1.4 7.2 14.3 10 1.4v5.7l-5.7 1.5-1.5 7.1h-8.5l-2.9 7.1h-30l-2.8-11.4 1.4-11.4 1.4-8.6 8.6-1.4-1.4 7.1h4.2l5.8 5.7 7.1-2.8v-5.7z"/>
		<path id="Path 100" class="s24" d="m870 572.9l14.3-4.3 12.8-11.5h12.9l4.3 12.9v27.1l-4.3 2.9-20-4.3-22.9-12.8z"/>
		<path id="Path 101" class="s0" d="m840 572.9l-1.4-7.2 12.8-2.8 2.9-5.8h5.7v5.8l-2.9 15.7z"/>
		<path id="Path 102" class="s19" d="m585.7 567.1l1.4-10h1.5 4.3l1.4 12.9-5.7 4.3z"/>
		<path id="Path 103" class="s48" d="m585.7 567.1l-5.7-2.8v-7.2h7.1z"/>
		<path id="Path 104" class="s49" d="m511.4 560l7.2-2.9 1.4 5.8z"/>
		<path id="Path 105" class="s31" d="m465.7 562.9v-5.8h1.4l10 5.8v4.2h-7.1z"/>
		<path id="Path 106" class="s9" d="m450 564.3v-7.2h15.7v5.8l-1.4 8.5h-7.2z"/>
		<path id="Path 107" class="s31" d="m442.9 564.3v-7.2h5.7 1.4v7.2l-7.1 1.4z"/>
		<path id="Path 108" class="s50" d="m208.6 560l1.4-2.9h4.3l-1.4 4.3z"/>
		<path id="Path 109" class="s35" d="m114.3 565.7l5.7-8.6h5.7l4.3 5.8-5.7 8.5h-8.6z"/>
		<path id="Path 110" class="s14" d="m811.4 557.1l7.2-1.4h7.1l2.9 7.2-4.3 4.2-12.9-4.2z"/>
		<path id="Path 111" class="s35" d="m374.3 557.1h15.7l24.3 8.6v5.7h-18.6-15.7l2.9-8.5h-8.6z"/>
		<path id="Path 112" class="s51" d="m85.7 562.9v-5.8l4.3-1.4 4.3 7.2z"/>
		<path id="Path 113" class="s15" d="m791.4 561.4v-7.1h14.3 4.3l1.4 2.8v5.8z"/>
		<path id="Path 114" class="s52" d="m698.6 560l2.8-5.7 15.7 2.8v14.3l-7.1 1.5-10 1.4z"/>
		<path id="Path 115" class="s16" d="m600 557.1l5.7 2.9 1.4-5.7h20 2.9l-10 11.4-25.7 4.3-1.4-12.9z"/>
		<path id="Path 116" class="s22" d="m562.9 562.9v-8.6h5.7v1.4 5.7z"/>
		<path id="Path 117" class="s9" d="m477.1 562.9l7.2-8.6 4.3 1.4 5.7 5.7 11.4-4.3 5.7 2.9 8.6 2.9 4.3 12.8-1.4 10-11.5-2.8-8.5-15.8h-4.3l-1.5 7.2h-8.5l-11.5-7.2z"/>
		<path id="Path 118" class="s53" d="m282.9 572.9v-11.5l5.7-7.1h5.7 11.4l4.3 7.1h5.7l-5.7 12.9-11.4 2.8z"/>
		<path id="Path 119" class="s54" d="m167.1 560l5.8-5.7 5.7 1.4v8.6l12.8 1.4-2.8 7.2-4.3 2.8-10-1.4z"/>
		<path id="Path 120" class="s55" d="m860 557.1v-4.2h7.1l1.5 15.7-8.6-5.7z"/>
		<path id="Path 121" class="s12" d="m717.1 557.1l14.3-4.2 11.5 1.4 11.4 2.8 5.7-2.8h17.1 11.5 2.8v7.1l-54.3 5.7-20 4.3z"/>
		<path id="Path 122" class="s12" d="m810 554.3l4.3-2.9 4.3 4.3-7.2 1.4z"/>
		<path id="Path 123" class="s52" d="m630 554.3l4.3-2.9 10 5.7 8.6-1.4 5.7 5.7v14.3l-1.5 10-37.1 14.3-54.3 5.7-2.8-5.7 5.7-4.3-2.9-2.8 2.9-21.5-7.2-7.1 1.5-1.4 5.7-1.5v-5.7l7.1-1.4 4.3 2.8v7.2l5.7 2.8 2.9 7.2 5.7-4.3 25.7-4.3z"/>
		<path id="Path 124" class="s49" d="m568.6 554.3l2.8-2.9 4.3 2.9-7.1 1.4z"/>
		<path id="Path 125" class="s56" d="m328.6 565.7l2.8-14.3h10l8.6 7.2-4.3 11.4-7.1 1.4-1.5-4.3h-5.7z"/>
		<path id="Path 126" class="s26" d="m234.3 562.9l2.8-11.5h4.3l2.9 10-1.4 7.2h-8.6z"/>
		<path id="Path 127" class="s26" d="m825.7 555.7l10-5.7 18.6 7.1-2.9 5.8-12.8 2.8 1.4 7.2-15.7-5.8 4.3-4.2z"/>
		<path id="Path 128" class="s57" d="m690 554.3l1.4-4.3h2.9l7.1 4.3-2.8 5.7-8.6-1.4z"/>
		<path id="Path 129" class="s16" d="m652.9 555.7l4.2-5.7h10l1.5 4.3h21.4v4.3l-31.4 2.8z"/>
		<path id="Path 130" class="s49" d="m600 551.4l5.7-1.4 1.4 4.3-1.4 5.7-5.7-2.9z"/>
		<path id="Path 131" class="s46" d="m164.3 558.6v-8.6l8.6 4.3-5.8 5.7z"/>
		<path id="Path 132" class="s51" d="m120 557.1v-7.1l5.7 1.4v5.7z"/>
		<path id="Path 133" class="s6" d="m854.3 557.1l1.4-8.5h4.3v4.3 4.2z"/>
		<path id="Path 134" class="s58" d="m588.6 557.1v-8.5l11.4 2.8v5.7h-7.1z"/>
		<path id="Path 135" class="s50" d="m277.1 575.7l-14.2-12.8 5.7-14.3h5.7 10l4.3 5.7-5.7 7.1v11.5z"/>
		<path id="Path 136" class="s56" d="m390 554.3l10-7.2 8.6 4.3 4.3 10h8.5v4.3h-7.1l-24.3-8.6z"/>
		<path id="Path 137" class="s59" d="m284.3 548.6l8.6-1.5 1.4 7.2h-5.7z"/>
		<path id="Path 138" class="s39" d="m257.1 561.4v-10l8.6-4.3 2.9 1.5-5.7 14.3 14.2 12.8v14.3l-14.2 1.4-5.8-5.7 5.8-12.8v-8.6z"/>
		<path id="Path 139" class="s40" d="m225.7 554.3l7.2-7.2 4.2 4.3-2.8 11.5h-7.2z"/>
		<path id="Path 140" class="s60" d="m125.7 551.4l12.9-4.3 1.4 12.9-4.3 2.9h-5.7l-4.3-5.8z"/>
		<path id="Path 141" class="s58" d="m760 554.3v-8.6h14.3l2.8 8.6z"/>
		<path id="Path 142" class="s37" d="m627.1 554.3v-8.6h7.2v5.7l-4.3 2.9z"/>
		<path id="Path 143" class="s61" d="m488.6 555.7l2.8-10h12.9l1.4 11.4-11.4 4.3z"/>
		<path id="Path 144" class="s20" d="m90 555.7l1.4-4.3h14.3l4.3-5.7h8.6l1.4 4.3v7.1l-5.7 8.6-5.7 1.4v4.3h-7.2l-7.1-8.5z"/>
		<path id="Path 145" class="s62" d="m937.1 571.4l-2.8-27.1 10 1.4 10 15.7v22.9l-5.7 2.8v12.9l-11.5 8.6h-17.1l-10-8.6 4.3-2.9 11.4-2.8 14.3-2.9z"/>
		<path id="Path 146" class="s63" d="m504.3 545.7v-2.8l14.3 4.2v10l-7.2 2.9-5.7-2.9z"/>
		<path id="Path 147" class="s35" d="m442.9 545.7l11.4-2.8 7.1 4.2h1.5l4.2 10h-1.4-15.7-1.4v-5.7l-7.2-1.4z"/>
		<path id="Path 148" class="s64" d="m400 547.1v-4.2h10l4.3 8.5h-5.7z"/>
		<path id="Path 149" class="s50" d="m341.4 547.1l14.3-4.2h7.2l11.4 14.2v5.8h-8.6l-5.7 5.7 2.9 5.7-7.2 2.8-5.7-2.8-4.3-4.3 4.3-11.4-8.6-7.2z"/>
		<path id="Path 150" class="s39" d="m870 548.6l11.4-7.2 14.3 4.3 1.4 11.4-12.8 11.5-14.3 4.3-1.4-4.3-1.5-15.7z"/>
		<path id="Path 151" class="s58" d="m860 548.6l5.7-7.2h4.3v7.2l-2.9 4.3h-7.1z"/>
		<path id="Path 152" class="s20" d="m788.6 545.7l11.4-4.3 5.7 12.9h-14.3-2.8z"/>
		<path id="Path 153" class="s20" d="m667.1 550l4.3-8.6h5.7 7.2l7.1 8.6-1.4 4.3h-21.4z"/>
		<path id="Path 154" class="s47" d="m424.3 565.7l4.3-4.3-1.5-20h11.5l4.3 4.3-1.5 4.3 7.2 1.4v5.7h-5.7v7.2l-5.8 1.4v5.7l-11.4-2.8z"/>
		<path id="Path 155" class="s65" d="m331.4 551.4v-10l10 5.7v4.3z"/>
		<path id="Path 156" class="s50" d="m315.7 561.4l5.7-20h10v10l-2.8 14.3z"/>
		<path id="Path 157" class="s46" d="m232.9 547.1l4.2-5.7 5.8 2.9-1.5 7.1h-4.3z"/>
		<path id="Path 158" class="s66" d="m611.4 541.4l8.6-1.4h5.7l1.4 5.7v8.6h-20l-1.4-4.3z"/>
		<path id="Path 159" class="s66" d="m571.4 551.4v-11.4h2.9l14.3 4.3v4.3 8.5h-1.5-7.1l-4.3-2.8z"/>
		<path id="Path 160" class="s58" d="m560 542.9l7.1-2.9h4.3v11.4l-2.8 2.9h-5.7l-7.2-11.4z"/>
		<path id="Path 161" class="s58" d="m815.7 541.4l8.6-2.8 10 1.4 1.4 10-10 5.7h-7.1l-4.3-4.3z"/>
		<path id="Path 162" class="s65" d="m265.7 547.1v-8.5h2.9l5.7 1.4v8.6h-5.7z"/>
		<path id="Path 163" class="s20" d="m834.3 540l1.4-2.9h15.7l4.3 1.5v10l-1.4 8.5-18.6-7.1z"/>
		<path id="Path 164" class="s55" d="m731.4 552.9v-15.8h11.5l1.4 2.9-1.4 14.3z"/>
		<path id="Path 165" class="s20" d="m694.3 550v-12.9h8.6 8.5l7.2 2.9 8.5-2.9h4.3v15.8l-14.3 4.2-15.7-2.8z"/>
		<path id="Path 166" class="s67" d="m654.3 544.3l5.7-1.4v-5.8l8.6 1.5 2.8 2.8-4.3 8.6h-10z"/>
		<path id="Path 167" class="s68" d="m654.3 542.9l2.8-5.8h2.9v5.8l-5.7 1.4z"/>
		<path id="Path 168" class="s20" d="m635.7 538.6l10-1.5 8.6 5.8v1.4l2.8 5.7-4.2 5.7-8.6 1.4-10-5.7v-5.7z"/>
		<path id="Path 169" class="s51" d="m560 542.9v-5.8h7.1v2.9z"/>
		<path id="Path 170" class="s32" d="m518.6 547.1l12.8-10 24.3 5.8 7.2 11.4v8.6l-1.5 1.4-18.5 14.3v4.3l-5.8-1.5-1.4-7.1-11.4 1.4-4.3-12.8-1.4-5.8z"/>
		<path id="Path 171" class="s64" d="m491.4 545.7v-8.6h10l2.9 5.8v2.8z"/>
		<path id="Path 172" class="s54" d="m410 542.9l5.7-5.8 11.4 4.3 1.5 20-4.3 4.3h-2.9v-4.3h-8.5l-4.3-10h5.7z"/>
		<path id="Path 173" class="s69" d="m390 554.3l-5.7-2.9v-14.3h12.8 2.9v5.8 4.2z"/>
		<path id="Path 174" class="s63" d="m242.9 544.3l10-7.2h10l2.8 1.5v8.5l-8.6 4.3v10h-12.8l-2.9-10z"/>
		<path id="Path 175" class="s61" d="m210 557.1l-7.1-11.4 1.4-8.6h10l2.8 12.9 8.6 4.3 1.4 8.6-4.2 4.2-7.2-1.4-2.8-1.4v-2.9l1.4-4.3z"/>
		<path id="Path 176" class="s39" d="m668.6 538.6l7.1-2.9 1.4 5.7h-5.7z"/>
		<path id="Path 177" class="s64" d="m361.4 537.1l18.6-1.4 4.3 1.4v14.3l5.7 2.9v2.8h-15.7l-11.4-14.2z"/>
		<path id="Path 178" class="s33" d="m910 557.1l2.9-22.8 21.4 10 2.8 27.1h-11.4l-11.4-1.4z"/>
		<path id="Path 179" class="s70" d="m620 540l2.9-5.7 2.8 5.7z"/>
		<path id="Path 180" class="s70" d="m462.9 547.1l18.5-5.7 1.5-7.1h5.7l2.8 2.8v8.6l-2.8 10-4.3-1.4-7.2 8.6-10-5.8z"/>
		<path id="Path 181" class="s20" d="m744.3 540l12.8-7.1h2.9v12.8 8.6l-5.7 2.8-11.4-2.8z"/>
		<path id="Path 182" class="s65" d="m438.6 541.4v-4.3l10-4.2 5.7 10-11.4 2.8z"/>
		<path id="Path 183" class="s71" d="m400 537.1l12.9-4.2 2.8 4.2-5.7 5.8h-10z"/>
		<path id="Path 184" class="s46" d="m815.7 541.4l-5.7-2.8v-7.2h7.1l7.2 7.2z"/>
		<path id="Path 185" class="s70" d="m590 537.1l7.1-5.7h8.6l5.7 10-5.7 8.6-5.7 1.4-11.4-2.8v-4.3z"/>
		<path id="Path 186" class="s46" d="m355.7 542.9l-2.8-11.5h4.2l4.3 5.7 1.5 5.8z"/>
		<path id="Path 187" class="s45" d="m262.9 537.1v-5.7h5.7v7.2h-2.9z"/>
		<path id="Path 188" class="s60" d="m777.1 531.4h32.9v7.2l5.7 2.8-1.4 10-4.3 2.9h-4.3l-5.7-12.9-11.4 4.3-11.5-8.6z"/>
		<path id="Path 189" class="s67" d="m574.3 540v-10h1.4l7.2 2.9 7.1 4.2-1.4 7.2z"/>
		<path id="Path 190" class="s51" d="m760 532.9v-4.3l17.1 2.8v5.7l11.5 8.6v8.6h-11.5l-2.8-8.6h-14.3z"/>
		<path id="Path 191" class="s72" d="m760 528.6v4.3h-2.9v-4.3z"/>
		<path id="Path 192" class="s26" d="m645.7 537.1v-5.7l5.7-2.8 5.7 4.3v4.2l-2.8 5.8z"/>
		<path id="Path 193" class="s64" d="m461.4 547.1l4.3-14.2 11.4-4.3 5.8 5.7-1.5 7.1-18.5 5.7z"/>
		<path id="Path 194" class="s9" d="m881.4 541.4l4.3-14.3 27.2 7.2-2.9 22.8h-12.9l-1.4-11.4z"/>
		<path id="Path 195" class="s73" d="m817.1 531.4l14.3-4.3 4.3 10-1.4 2.9-10-1.4z"/>
		<path id="Path 196" class="s40" d="m742.9 537.1v-10l14.2 1.5v4.3l-12.8 7.1z"/>
		<path id="Path 197" class="s70" d="m694.3 537.1l2.8-10h5.8v10z"/>
		<path id="Path 198" class="s66" d="m702.9 527.1l4.2-1.4 4.3 2.9v8.5h-8.5z"/>
		<path id="Path 199" class="s44" d="m575.7 530l7.2-5.7v8.6z"/>
		<path id="Path 200" class="s67" d="m160 537.1l-5.7-1.4 2.8-11.4 8.6 1.4z"/>
		<path id="Path 201" class="s54" d="m865.7 541.4v-18.5l20 4.2-4.3 14.3-11.4 7.2v-7.2z"/>
		<path id="Path 202" class="s69" d="m831.4 527.1l17.2-4.2-2.9 7.1 5.7 7.1h-15.7z"/>
		<path id="Path 203" class="s60" d="m727.1 537.1l-1.4-14.2 17.2 4.2v10h-11.5z"/>
		<path id="Path 204" class="s66" d="m677.1 534.3l1.5-11.4h10l-7.2 11.4z"/>
		<path id="Path 205" class="s67" d="m651.4 528.6l8.6-5.7 2.9 7.1-5.8 2.9z"/>
		<path id="Path 206" class="s41" d="m567.1 537.1l-1.4-12.8 4.3-1.4 4.3 7.1v10h-2.9-4.3z"/>
		<path id="Path 207" class="s41" d="m315.7 531.4l2.9-8.5 12.8 2.8v15.7h-10z"/>
		<path id="Path 208" class="s74" d="m295.7 524.3l1.4-1.4h8.6l10 8.5 5.7 10-5.7 20h-5.7l-4.3-7.1v-17.2z"/>
		<path id="Path 209" class="s75" d="m271.4 527.1l10-4.2 14.3 1.4 10 12.8v17.2h-11.4l-1.4-7.2-8.6 1.5h-10v-8.6l-5.7-1.4v-7.2z"/>
		<path id="Path 210" class="s67" d="m71.4 572.9l-4.3-2.9v-8.6l17.2-10 30-28.5 4.3 22.8h-8.6l-4.3 5.7h-14.3l-1.4 4.3-4.3 1.4v5.8l-10 2.8z"/>
		<path id="Path 211" class="s9" d="m848.6 522.9h17.1v18.5l-5.7 7.2h-4.3v-10l-4.3-1.5-5.7-7.1z"/>
		<path id="Path 212" class="s58" d="m707.1 525.7l8.6-4.3 10 1.5 1.4 14.2-8.5 2.9-7.2-2.9v-8.5z"/>
		<path id="Path 213" class="s66" d="m488.6 524.3l7.1-2.9 5.7 7.2v8.5h-10l-2.8-2.8z"/>
		<path id="Path 214" class="s56" d="m477.1 522.9l5.8-1.5 5.7 2.9v10h-5.7l-5.8-5.7z"/>
		<path id="Path 215" class="s56" d="m331.4 525.7l7.2-4.3 14.3 10 2.8 11.5-14.3 4.2-10-5.7z"/>
		<path id="Path 216" class="s68" d="m501.4 528.6l11.5-8.6h4.2l4.3 2.9v5.7l10 8.5-12.8 10-14.3-4.2-2.9-5.8z"/>
		<path id="Path 217" class="s56" d="m521.4 522.9h8.6l2.9-4.3h7.1l7.1 8.5 8.6 1.5 4.3 8.5v5.8h-4.3l-24.3-5.8-10-8.5z"/>
		<path id="Path 218" class="s60" d="m622.9 534.3v-17.2h7.1l4.3 5.8 1.4 15.7-1.4 7.1h-7.2l-1.4-5.7z"/>
		<path id="Path 219" class="s73" d="m605.7 531.4l8.6-14.3h8.6v17.2l-2.9 5.7-8.6 1.4z"/>
		<path id="Path 220" class="s58" d="m197.1 517.1l-7.1 18.6-7.1-1.4-2.9-17.2z"/>
		<path id="Path 221" class="s47" d="m660 522.9v-7.2h15.7l2.9 7.2-1.5 11.4-1.4 1.4-7.1 2.9-8.6-1.5h-2.9v-4.2l5.8-2.9z"/>
		<path id="Path 222" class="s71" d="m495.7 521.4l5.7-5.7 10 1.4 1.5 2.9-11.5 8.6z"/>
		<path id="Path 223" class="s69" d="m697.1 527.1l1.5-12.8 17.1 7.1-8.6 4.3-4.2 1.4z"/>
		<path id="Path 224" class="s60" d="m688.6 522.9v-11.5l10 2.9-1.5 12.8-2.8 10v12.9h-2.9l-7.1-8.6h-7.2l-1.4-5.7 1.4-1.4h4.3z"/>
		<path id="Path 225" class="s76" d="m511.4 512.9l2.9-1.5h1.4l1.4 8.6h-4.2l-1.5-2.9z"/>
		<path id="Path 226" class="s65" d="m338.6 521.4l-4.3-8.5 5.7-1.5 17.1 11.5v8.5h-4.2z"/>
		<path id="Path 227" class="s69" d="m501.4 515.7l1.5-7.1h2.8l5.7 4.3v4.2z"/>
		<path id="Path 228" class="s42" d="m305.7 522.9v-14.3h5.7l7.2 14.3-2.9 8.5z"/>
		<path id="Path 229" class="s77" d="m297.1 522.9v-14.3h5.8 2.8v14.3z"/>
		<path id="Path 230" class="s77" d="m261.4 508.6v7.1h-4.3v-7.1z"/>
		<path id="Path 231" class="s51" d="m474.3 510l2.8-2.9h5.8v14.3l-5.8 1.5z"/>
		<path id="Path 232" class="s58" d="m202.9 514.3v-8.6h8.5l2.9 8.6z"/>
		<path id="Path 233" class="s73" d="m540 518.6l-2.9-8.6 10-5.7 18.6 8.6 4.3 10-4.3 1.4 1.4 12.8h-7.1l-4.3-8.5-8.6-1.5z"/>
		<path id="Path 234" class="s63" d="m157.1 508.6l14.3-4.3 8.6 7.1v5.7l2.9 17.2 7.1 1.4 7.1-18.6 5.8-2.8h11.4l14.3 10 8.5 17.1-4.2 5.7-7.2 7.2-8.6-4.3-2.8-12.9h-10l-1.4 8.6 7.1 11.4-1.4 2.9-4.3 5.7h-12.9l-12.8-1.4v-8.6l-5.7-1.4-8.6-4.3-4.3-12.9 5.7-11.4-8.6-1.4z"/>
		<path id="Path 235" class="s54" d="m515.7 511.4l11.4-8.5 7.2 10-1.4 5.7-2.9 4.3h-8.6l-4.3-2.9z"/>
		<path id="Path 236" class="s42" d="m482.9 507.1l7.1-4.2h10l2.9 5.7-1.5 7.1-5.7 5.7-7.1 2.9-5.7-2.9z"/>
		<path id="Path 237" class="s77" d="m380 535.7v-28.6l11.4-4.2 8.6 8.5v5.7l-2.9 20h-12.8z"/>
		<path id="Path 238" class="s42" d="m505.7 508.6l4.3-7.2 4.3 10-2.9 1.5z"/>
		<path id="Path 239" class="s66" d="m114.3 522.9l17.1-14.3 21.5-7.2 4.2 7.2v15.7l-2.8 11.4 5.7 1.4 4.3 12.9v8.6l-4.3 4.3-20-2.9-1.4-12.9-12.9 4.3-5.7-1.4-1.4-4.3z"/>
		<path id="Path 240" class="s66" d="m622.9 504.3l2.8-4.3h11.4l11.5 11.4 11.4 4.3v7.2l-8.6 5.7-5.7 2.8v5.7l-10 1.5-1.4-15.7-4.3-5.8h-7.1z"/>
		<path id="Path 241" class="s78" d="m262.9 502.9l11.4-2.9 20 2.9 2.8 5.7v14.3l-1.4 1.4-14.3-1.4-10 4.2-10-11.4v-7.1z"/>
		<path id="Path 242" class="s79" d="m257.1 508.6v-8.6h4.3l1.5 2.9-1.5 5.7z"/>
		<path id="Path 243" class="s60" d="m565.7 512.9l7.2-5.8 1.4-8.5 4.3 1.4 4.3 14.3 12.8 4.3 1.4 12.8-7.1 5.7-7.1-4.2v-8.6l-7.2 5.7h-1.4l-4.3-7.1z"/>
		<path id="Path 244" class="s46" d="m232.9 512.9l-7.2-2.9 2.9-11.4 4.3 1.4z"/>
		<path id="Path 245" class="s80" d="m438.6 500l10-2.9 25.7 12.9 2.8 12.9v5.7l-11.4 4.3-4.3 14.2-7.1-4.2-5.7-10-10 4.2v4.3h-11.5l-11.4-4.3-2.8-4.2-12.9 4.2h-2.9l2.9-20h8.6l8.5-10 5.8-4.2z"/>
		<path id="Path 246" class="s58" d="m152.9 501.4l12.8-4.3 5.7 4.3v2.9l-14.3 4.3z"/>
		<path id="Path 247" class="s68" d="m574.3 498.6v-4.3l17.1 4.3 10 8.5 8.6-4.2 12.9 1.4v12.8h-8.6l-8.6 14.3h-8.6l-1.4-12.8-12.8-4.3-4.3-14.3z"/>
		<path id="Path 248" class="s66" d="m415.7 497.1l2.9-2.8 4.3 8.6-5.8 4.2z"/>
		<path id="Path 249" class="s50" d="m637.1 500l1.5-7.1 50 18.5v11.5h-10l-2.9-7.2h-15.7l-11.4-4.3z"/>
		<path id="Path 250" class="s71" d="m510 501.4l2.9-8.5 8.5 1.4 5.7 8.6-11.4 8.5h-1.4z"/>
		<path id="Path 251" class="s60" d="m468.6 495.7l4.3-2.8 2.8 8.5h-7.1z"/>
		<path id="Path 252" class="s72" d="m438.6 500v-7.1h10v4.2z"/>
		<path id="Path 253" class="s77" d="m171.4 501.4l14.3-8.5 17.2 12.8v8.6l-5.8 2.8h-17.1v-5.7l-8.6-7.1z"/>
		<path id="Path 254" class="s81" d="m448.6 492.9l5.7-1.5 14.3 4.3v5.7h7.1l1.4 5.7-2.8 2.9-25.7-12.9z"/>
		<path id="Path 255" class="s64" d="m391.4 502.9l1.5-11.5 17.1 1.5 5.7 4.2 1.4 10-8.5 10h-8.6v-5.7z"/>
		<path id="Path 256" class="s47" d="m355.7 502.9l1.4-11.5h11.5l2.8 17.2-2.8 2.8h-11.5z"/>
		<path id="Path 257" class="s42" d="m294.3 502.9l1.4-11.5 7.2 1.5v15.7h-5.8z"/>
		<path id="Path 258" class="s46" d="m268.6 491.4l8.5-1.4-2.8 10-11.4 2.9-1.5-2.9z"/>
		<path id="Path 259" class="s81" d="m625.7 500v-11.4h2.9l10 4.3-1.5 7.1z"/>
		<path id="Path 260" class="s50" d="m500 502.9l1.4-14.3h10l1.5 4.3-2.9 8.5-4.3 7.2h-2.8z"/>
		<path id="Path 261" class="s46" d="m410 492.9l7.1-4.3 1.5 5.7-2.9 2.8z"/>
		<path id="Path 262" class="s51" d="m302.9 492.9l5.7-4.3h2.8v20h-5.7-2.8z"/>
		<path id="Path 263" class="s48" d="m165.7 497.1l22.9-8.5v1.4l-2.9 2.9-14.3 8.5z"/>
		<path id="Path 264" class="s82" d="m591.4 498.6l2.9-12.9h10l5.7 17.2-8.6 4.2z"/>
		<path id="Path 265" class="s42" d="m454.3 491.4v-5.7h4.3l14.3 2.9v4.3l-4.3 2.8z"/>
		<path id="Path 266" class="s44" d="m521.4 494.3l4.3-10 5.7 4.3 34.3 2.8 8.6 2.9v4.3l-1.4 8.5-7.2 5.8-18.6-8.6-10 5.7 2.9 8.6h-7.1l1.4-5.7-7.2-10z"/>
		<path id="Path 267" class="s77" d="m257.1 484.3l11.5-1.4v8.5l-7.2 8.6h-4.3z"/>
		<path id="Path 268" class="s45" d="m604.3 485.7l1.4-4.3 20 7.2v11.4l-2.8 4.3-12.9-1.4z"/>
		<path id="Path 269" class="s42" d="m511.4 488.6l1.5-7.2 12.8 2.9-4.3 10-8.5-1.4z"/>
		<path id="Path 270" class="s79" d="m295.7 491.4l-7.1-4.3v-7.1h8.5 8.6 4.3l-1.4 8.6-5.7 4.3z"/>
		<path id="Path 271" class="s65" d="m472.9 488.6l7.1-10h11.4l1.5 8.5-5.8 5.8 2.9 10-7.1 4.2h-5.8l-1.4-5.7-2.8-8.5z"/>
		<path id="Path 272" class="s68" d="m345.7 481.4l5.7-2.8h2.9l2.8 12.8-1.4 11.5h-10z"/>
		<path id="Path 273" class="s64" d="m188.6 490l11.4-1.4 12.9-10h8.5l5.7 4.3 1.5 15.7-2.9 11.4 7.2 2.9 24.2 2.8h4.3l10 11.4-2.8 4.3h-5.7v5.7h-10l-10 7.2-5.8-2.9-8.5-17.1-14.3-10-2.9-8.6h-8.5l-17.2-12.8z"/>
		<path id="Path 274" class="s44" d="m328.6 477.1l17.1-1.4v5.7 21.5l-5.7 8.5-5.7 1.5 4.3 8.5-7.2 4.3-12.8-2.8-7.2-14.3v-20l10-1.5z"/>
		<path id="Path 275" class="s83" d="m190 485.7l18.6-10h4.3v2.9l-12.9 10-11.4 1.4v-1.4z"/>
		<path id="Path 276" class="s84" d="m305.7 480v-5.7h5.7l-1.4 5.7z"/>
		<path id="Path 277" class="s74" d="m491.4 478.6l2.9-5.7h10l5.7 1.4 2.9 7.1-1.5 7.2h-10l-1.4 14.3h-10l-2.9-10 5.8-5.8z"/>
		<path id="Path 278" class="s49" d="m345.7 475.7l5.7-2.8v5.7l-5.7 2.8z"/>
		<path id="Path 280" class="s81" d="m368.6 491.4v-20h7.1l12.9 5.7 4.3 14.3-1.5 11.5-11.4 4.2v28.6l-18.6 1.4-4.3-5.7v-8.5l-17.1-11.5 5.7-8.5h10l1.4 8.5h11.5l2.8-2.8z"/>
		<path id="Path 281" class="s44" d="m268.6 482.9v-11.5h8.5l11.5 8.6v7.1l7.1 4.3-1.4 11.5-20-2.9 2.8-10-8.5 1.4z"/>
		<path id="Path 282" class="s85" d="m600 472.9v-2.9l18.6 8.6 10 10h-2.9l-20-7.2z"/>
		<path id="Path 283" class="s86" d="m594.3 485.7l-4.3-4.3v-11.4l10 2.9 5.7 8.5-1.4 4.3z"/>
		<path id="Path 284" class="s41" d="m438.6 475.7l-4.3-5.7h4.3z"/>
		<path id="Path 285" class="s58" d="m212.9 475.7l8.5-5.7v8.6h-8.5z"/>
		<path id="Path 286" class="s87" d="m467.1 474.3h8.6l4.3-5.7h10l4.3 4.3-2.9 5.7h-11.4l-7.1 10-14.3-2.9v-5.7z"/>
		<path id="Path 287" class="s84" d="m354.3 478.6l5.7-10h4.3l4.3 2.8v20h-11.5z"/>
		<path id="Path 288" class="s57" d="m351.4 472.9l8.6-4.3-5.7 10h-2.9z"/>
		<path id="Path 289" class="s64" d="m254.3 482.9l-10-1.5v-7.1l7.1-5.7z"/>
		<path id="Path 290" class="s41" d="m305.7 474.3l-1.4-7.2h5.7l1.4 7.2z"/>
		<path id="Path 291" class="s88" d="m295.7 468.6l8.6-1.5 1.4 7.2v5.7h-8.6z"/>
		<path id="Path 292" class="s74" d="m277.1 468.6l4.3-1.5 14.3 1.5 1.4 11.4h-8.5l-11.5-8.6z"/>
		<path id="Path 293" class="s26" d="m585.7 468.6v-5.7l14.3 7.1v2.9l-10-2.9z"/>
		<path id="Path 294" class="s86" d="m490 468.6l2.9-5.7h10l1.4 10h-10z"/>
		<path id="Path 295" class="s44" d="m438.6 470l10-7.1h14.3l4.2 11.4-8.5 5.7v5.7h-4.3l-10-2.8-5.7-7.2z"/>
		<path id="Path 296" class="s79" d="m404.3 468.6l10-5.7 17.1 1.4 2.9 5.7 4.3 5.7 5.7 7.2 10 2.8v5.7l-5.7 1.5h-10v7.1l-15.7 2.9-4.3-8.6-1.5-5.7-7.1 4.3-17.1-1.5-4.3-14.3 1.4-5.7z"/>
		<path id="Path 297" class="s36" d="m310 467.1l7.1-4.2h8.6l2.9 14.2-7.2 10-10 1.5h-2.8l1.4-8.6 1.4-5.7z"/>
		<path id="Path 298" class="s67" d="m284.3 464.3l15.7-1.4h4.3v4.2l-8.6 1.5-14.3-1.5z"/>
		<path id="Path 299" class="s79" d="m331.4 462.9l18.6-1.5h11.4l2.9 7.2h-4.3l-8.6 4.3-5.7 2.8-17.1 1.4-2.9-14.2z"/>
		<path id="Path 300" class="s49" d="m304.3 462.9l12.8-1.5v1.5l-7.1 4.2h-5.7z"/>
		<path id="Path 301" class="s70" d="m221.4 470l30-11.4v10l-7.1 5.7v7.1l10 1.5 2.8 1.4v15.7 8.6 7.1l-24.2-2.8v-12.9l-4.3-1.4-1.5-15.7-5.7-4.3z"/>
		<path id="Path 302" class="s37" d="m361.4 461.4l4.3-4.3 10 5.8v8.5h-7.1l-4.3-2.8z"/>
		<path id="Path 303" class="s56" d="m251.4 458.6l5.7-1.5 11.5 14.3v11.5l-11.5 1.4-2.8-1.4-2.9-14.3z"/>
		<path id="Path 304" class="s85" d="m585.7 468.6l-24.3-5.7v-7.2l24.3 7.2z"/>
		<path id="Path 305" class="s56" d="m431.4 464.3l5.7-10h11.5v8.6l-10 7.1h-4.3z"/>
		<path id="Path 306" class="s89" d="m404.3 468.6l-4.3-2.9 2.9-11.4h11.4v8.6z"/>
		<path id="Path 307" class="s67" d="m331.4 462.9l2.9-8.6 14.3 5.7 1.4 1.4z"/>
		<path id="Path 308" class="s61" d="m257.1 457.1l10-4.2 8.6 7.1 1.4 8.6v2.8h-8.5z"/>
		<path id="Path 309" class="s76" d="m565.7 491.4v-10l-21.4-17.1-1.4-12.9 18.5 4.3v7.2l24.3 5.7 4.3 1.4v11.4l4.3 4.3-2.9 12.9-17.1-4.3z"/>
		<path id="Path 310" class="s72" d="m462.9 462.9l1.4-12.9 15.7 8.6v10l-4.3 5.7h-8.6z"/>
		<path id="Path 311" class="s88" d="m365.7 448.6l1.4-4.3h37.2l-1.4 10-2.9 11.4 4.3 2.9-14.3 2.8-1.4 5.7-12.9-5.7v-8.5l-10-5.8z"/>
		<path id="Path 312" class="s81" d="m404.3 444.3l11.4-1.4-1.4 11.4h-11.4z"/>
		<path id="Path 313" class="s79" d="m365.7 448.6l-2.8-5.7 4.2 1.4z"/>
		<path id="Path 314" class="s66" d="m280 447.1l5.7-4.2 8.6 1.4 5.7 18.6-15.7 1.4z"/>
		<path id="Path 315" class="s45" d="m502.9 462.9v-21.5l40 10 1.4 12.9 21.4 17.1v10l-34.3-2.8-5.7-4.3-12.8-2.9-2.9-7.1-5.7-1.4z"/>
		<path id="Path 316" class="s44" d="m437.1 454.3v-12.9h7.2 4.3v12.9z"/>
		<path id="Path 317" class="s41" d="m424.3 442.9l4.3-1.5h8.5v12.9l-5.7 10-17.1-1.4v-8.6l1.4-11.4z"/>
		<path id="Path 318" class="s68" d="m348.6 444.3l12.8-2.9 1.5 1.5 2.8 5.7v8.5l-4.3 4.3h-11.4l-1.4-1.4z"/>
		<path id="Path 319" class="s57" d="m444.3 441.4l4.3-1.4v1.4z"/>
		<path id="Path 320" class="s68" d="m317.1 461.4l1.5-21.4 15.7 4.3v10l-2.9 8.6h-5.7-8.6z"/>
		<path id="Path 321" class="s68" d="m448.6 440l11.4-1.4h4.3v11.4l-1.4 12.9h-14.3v-8.6-12.9z"/>
		<path id="Path 322" class="s47" d="m334.3 444.3l4.3-8.6 5.7 1.4v5.8l4.3 1.4v15.7l-14.3-5.7z"/>
		<path id="Path 323" class="s47" d="m464.3 438.6l8.6-4.3 10 1.4 15.7 2.9 4.3 2.8v21.5h-10l-2.9 5.7h-10v-10l-15.7-8.6z"/>
		<path id="Path 324" class="s67" d="m280 447.1l-1.4-12.8 7.1 8.6z"/>
		<path id="Path 325" class="s47" d="m300 437.1h8.6l2.8-4.2 7.2 7.1-1.5 21.4-12.8 1.5h-4.3l-5.7-18.6 1.4-5.7z"/>
		<path id="Path 326" class="s49" d="m344.3 437.1l10-7.1 7.1 11.4-12.8 2.9-4.3-1.4z"/>
		<path id="Path 327" class="s49" d="m300 437.1l1.4-14.2h4.3l5.7 10-2.8 4.2z"/>
		<path id="Path 328" class="s36" d="m264.3 424.3l8.6-2.9 4.2 1.5 1.5 11.4 1.4 12.8 4.3 17.2-2.9 2.8-4.3 1.5-1.4-8.6-8.6-7.1z"/>
		<path id="Path 329" class="s42" d="m472.9 434.3l5.7-14.3 5.7 1.4-1.4 14.3z"/>
		<path id="Path 331" class="s79" d="m478.6 417.1l2.8-4.2 4.3 4.2-1.4 4.3-5.7-1.4z"/>
		<path id="Path 332" class="s48" d="m272.9 421.4l1.4-8.5 2.8 10z"/>
		<path id="Path 334" class="s68" d="m338.6 435.7l11.4-25.7 4.3 11.4v8.6l-10 7.1z"/>
		<path id="Path 335" class="s90" d="m350 410l7.1-7.1-2.8 18.5z"/>
		<path id="Path 337" class="s47" d="m481.4 412.9l11.5-15.8v12.9l-7.2 7.1z"/>
		<path id="Path 338" class="s84" d="m264.3 400l1.4-2.9h5.7l2.9 15.8-1.4 8.5-8.6 2.9v-1.4-2.9l-1.4-4.3z"/>
		<path id="Path 339" class="s83" d="m295.7 438.6l-4.3-27.2 2.9-18.5h4.3l4.3 2.8 2.8 27.2h-4.3l-1.4 14.2z"/>
		<path id="Path 340" class="s22" d="m271.4 391.4v5.7h-5.7v-5.7z"/>
		<path id="Path 341" class="s66" d="m294.3 385.7l2.8-1.4 1.5 8.6h-4.3z"/>
		<path id="Path 343" class="s52" d="m294.3 382.9l5.7-2.9 2.9 15.7-4.3-2.8-1.5-8.6-2.8 1.4z"/>
	</g>
</svg>