<svg version="1.2" xmlns="http://www.w3.org/2000/svg" viewBox="0 0 1000 1000" width="1000" height="1000">
	<title>Aphredoderus_sayanus</title>
	<style>
		.s0 { opacity: .5;fill: #e6eaf1 } 
		.s1 { opacity: .3;fill: #b0b7c5 } 
		.s2 { opacity: .4;fill: #f2f4f9 } 
		.s3 { opacity: .7;fill: #f3f5f9 } 
		.s4 { opacity: .5;fill: #a3abb6 } 
		.s5 { fill: #5c7892 } 
		.s6 { fill: #57707e } 
		.s7 { fill: #34515e } 
		.s8 { opacity: .6;fill: #d2d7e1 } 
		.s9 { opacity: .2;fill: #d5d9e4 } 
		.s10 { opacity: .8;fill: #e0e5ee } 
		.s11 { opacity: .9;fill: #a5aeb9 } 
		.s12 { fill: #536f87 } 
		.s13 { fill: #657f95 } 
		.s14 { fill: #4c6778 } 
		.s15 { fill: #132d30 } 
		.s16 { fill: #1d363b } 
		.s17 { opacity: 1;fill: #657c8b } 
		.s18 { fill: #3b5765 } 
		.s19 { fill: #304c57 } 
		.s20 { fill: #4e6a7f } 
		.s21 { opacity: .5;fill: #7c8a94 } 
		.s22 { opacity: .6;fill: #c2c7d2 } 
		.s23 { fill: #294146 } 
		.s24 { fill: #213b42 } 
		.s25 { opacity: .7;fill: #b0b6c2 } 
		.s26 { fill: #617d9b } 
		.s27 { opacity: .1;fill: #eff2f8 } 
		.s28 { opacity: 1;fill: #c7cad5 } 
		.s29 { opacity: .4;fill: #d8dde8 } 
		.s30 { fill: #6884a2 } 
		.s31 { fill: #435f6f } 
		.s32 { fill: #2a4651 } 
		.s33 { opacity: 1;fill: #9094a0 } 
		.s34 { fill: #183136 } 
		.s35 { fill: #082225 } 
		.s36 { fill: #5e7583 } 
		.s37 { fill: #0e282c } 
		.s38 { opacity: .2;fill: #bdc1ce } 
		.s39 { fill: #476374 } 
		.s40 { fill: #3f5b6a } 
		.s41 { opacity: 1;fill: #798a9a } 
		.s42 { opacity: .2;fill: #9ea7b5 } 
		.s43 { fill: #5c7689 } 
		.s44 { opacity: .7;fill: #8b98a2 } 
		.s45 { fill: #24414b } 
		.s46 { fill: #92a3bf } 
		.s47 { fill: #6f8aaf } 
		.s48 { fill: #738ea9 } 
		.s49 { opacity: 1;fill: #cdd5e7 } 
		.s50 { fill: #7d8ea3 } 
		.s51 { fill: #829bc0 } 
		.s52 { fill: #89a2cd } 
		.s53 { fill: #394e4f } 
		.s54 { fill: #7a94b4 } 
		.s55 { fill: #7a95bf } 
		.s56 { opacity: 1;fill: #e0e6f1 } 
		.s57 { opacity: .9;fill: #778286 } 
		.s58 { opacity: 1;fill: #8798b0 } 
		.s59 { fill: #a6a9b5 } 
		.s60 { fill: #536262 } 
		.s61 { opacity: .1;fill: #7d8b95 } 
		.s62 { fill: #6f879d } 
		.s63 { opacity: 1;fill: #aebbd5 } 
		.s64 { opacity: .3;fill: #8e9bab } 
		.s65 { fill: #9a9eaa } 
		.s66 { fill: #b7c9e9 } 
		.s67 { fill: #56738f } 
		.s68 { fill: #586a6e } 
		.s69 { fill: #a4bae4 } 
		.s70 { fill: #9faec8 } 
		.s71 { fill: #314749 } 
		.s72 { fill: #80888d } 
		.s73 { fill: #b8b8c1 } 
		.s74 { fill: #647377 } 
		.s75 { fill: #475756 } 
		.s76 { fill: #768083 } 
		.s77 { fill: #96aed8 } 
		.s78 { fill: #a6a3a5 } 
		.s79 { fill: #747265 } 
		.s80 { fill: #6e6b58 } 
		.s81 { opacity: 1;fill: #787b74 } 
		.s82 { fill: #4e5244 } 
		.s83 { fill: #9c9997 } 
		.s84 { fill: #8f8b86 } 
		.s85 { fill: #626454 } 
		.s86 { fill: #5b5c4d } 
		.s87 { fill: #ab9580 } 
		.s88 { fill: #8b7a65 } 
		.s89 { fill: #9a8266 } 
		.s90 { fill: #b3b0b5 } 
		.s91 { opacity: .3;fill: #53656c } 
		.s92 { opacity: .8;fill: #61767f } 
		.s93 { fill: #988978 } 
		.s94 { fill: #bfbfc9 } 
		.s95 { fill: #b6a28d } 
		.s96 { fill: #baaea3 } 
		.s97 { fill: #c9beb5 } 
	</style>
	<g id="Background">
		<path id="Path 0" class="s0" d="m526 370v-2h8l1 2h-1l-7 1z"/>
		<path id="Path 1" class="s1" d="m535 370l-1-2h10v2h-5z"/>
		<path id="Path 2" class="s2" d="m544 370v-2h6l1 2z"/>
		<path id="Path 3" class="s3" d="m506 372l8-2v2h-2z"/>
		<path id="Path 4" class="s4" d="m514 372v-2h12l1 1-9 1z"/>
		<path id="Path 5" class="s5" d="m527 371l7-1v6l-1 1-5 3h-5l-5-1v-7z"/>
		<path id="Path 6" class="s6" d="m534 376v-6h1 4l-1 6z"/>
		<path id="Path 7" class="s7" d="m538 376l1-6h5 7 2l2 2v2 1h-5l-7 6z"/>
		<path id="Path 8" class="s8" d="m555 372l-2-2h9l5 5v1l-5-2z"/>
		<path id="Path 9" class="s9" d="m469 377l16-5v2l-9 2z"/>
		<path id="Path 10" class="s10" d="m485 374v-2h8v2h-5z"/>
		<path id="Path 11" class="s11" d="m493 374v-2h5z"/>
		<path id="Path 12" class="s5" d="m493 374l5-2h2v10l-10 4h-2v-2-10z"/>
		<path id="Path 13" class="s12" d="m500 382v-10h6 6v7l-4 2-2 1z"/>
		<path id="Path 14" class="s13" d="m512 379v-7h2 4v7z"/>
		<path id="Path 15" class="s14" d="m555 374v-2l7 2z"/>
		<path id="Path 16" class="s13" d="m476 376l9-2h3v10l-6 1h-6z"/>
		<path id="Path 17" class="s15" d="m555 375v-1h7l5 2 3 2v3l-7 1-8 1z"/>
		<path id="Path 18" class="s16" d="m543 381l7-6h5v8l-10 1z"/>
		<path id="Path 19" class="s1" d="m567 376v-1l10 3v1l-7-1z"/>
		<path id="Path 20" class="s17" d="m469 377l7-1v9l-6-1v-4h-7v-1z"/>
		<path id="Path 21" class="s18" d="m533 377l1-1h4l5 5 2 3-1 2h-10z"/>
		<path id="Path 22" class="s9" d="m462 378l7-1-6 2z"/>
		<path id="Path 23" class="s19" d="m528 380l5-3 1 9h-2-4z"/>
		<path id="Path 24" class="s0" d="m456 380l6-2 1 1v1l-5 1h-2z"/>
		<path id="Path 25" class="s20" d="m563 382l7-1v-3l7 1 4 1-1 8h-16-2z"/>
		<path id="Path 26" class="s21" d="m577 379v-1h7v2h-3z"/>
		<path id="Path 27" class="s22" d="m584 380v-2l9 2v1z"/>
		<path id="Path 28" class="s23" d="m508 381l4-2h6l5 1v7l-5 1-8-1z"/>
		<path id="Path 29" class="s8" d="m441 382l9-2v1z"/>
		<path id="Path 30" class="s4" d="m450 381v-1h6v1z"/>
		<path id="Path 31" class="s18" d="m458 381l5-1h7v4l6 1h6v7l-2 11 2 6-13-1v-9l-11-1-5-6 1-8z"/>
		<path id="Path 32" class="s24" d="m523 387v-7h5v6z"/>
		<path id="Path 33" class="s24" d="m580 388l1-8h3l9 1 6 3 4 2 5 3 3 11-3 2-5-5h-8l-3-5h-12z"/>
		<path id="Path 34" class="s8" d="m593 381v-1l7 2v2h-1z"/>
		<path id="Path 35" class="s17" d="m441 382l9-1h6 2l-4 3-1 8h-5v-4h-4l-5-4 1-2z"/>
		<path id="Path 36" class="s18" d="m506 382l2-1 2 6-4 1z"/>
		<path id="Path 37" class="s25" d="m433 383l7-1-1 2-9 2v-2z"/>
		<path id="Path 38" class="s7" d="m490 386l10-4h6v6 1l-12 1z"/>
		<path id="Path 39" class="s26" d="m555 383l8-1-1 6-10 1-7 1-1-4 1-2z"/>
		<path id="Path 40" class="s27" d="m600 384v-2l10 2h-1z"/>
		<path id="Path 41" class="s4" d="m426 385l4-1v2l-1 1-5 1h-3v-1h3z"/>
		<path id="Path 42" class="s14" d="m430 386l9-2 5 4-4 12h-10v-8l-1-5z"/>
		<path id="Path 43" class="s14" d="m482 385l6-1v2 6h-6z"/>
		<path id="Path 44" class="s28" d="m603 386l-4-2h1 9l1 2z"/>
		<path id="Path 45" class="s29" d="m610 386l-1-2h1l11 6-8-2z"/>
		<path id="Path 46" class="s6" d="m488 392v-6h2l4 4v6h-6z"/>
		<path id="Path 47" class="s30" d="m523 387l5-1h4v4l-2 2h-7z"/>
		<path id="Path 48" class="s12" d="m532 390v-4h2 10l1 4-1 1h-8z"/>
		<path id="Path 49" class="s31" d="m608 389l-5-3h7l3 2v1z"/>
		<path id="Path 50" class="s29" d="m413 390l8-3v1l-4 2z"/>
		<path id="Path 51" class="s32" d="m424 388l5-1 1 5-6-3z"/>
		<path id="Path 52" class="s5" d="m506 388l4-1 8 1v4l-11 4-1-7z"/>
		<path id="Path 53" class="s13" d="m518 388l5-1v5h-5z"/>
		<path id="Path 54" class="s33" d="m417 390l4-2h3v1z"/>
		<path id="Path 55" class="s7" d="m440 400l4-12h4v4h5l5 6 3 8h-5l-12-1z"/>
		<path id="Path 56" class="s34" d="m552 389l10-1h2v6l-11 1h-2z"/>
		<path id="Path 57" class="s35" d="m564 394v-6h16v4l-4 1-6 1z"/>
		<path id="Path 58" class="s17" d="m613 389v-1l8 2h1l3 2v1 1z"/>
		<path id="Path 59" class="s16" d="m417 390l7-1 6 3v8l-12 5v-3l-7-4v-4z"/>
		<path id="Path 60" class="s36" d="m494 390l12-1 1 7v2h-9l-4-2z"/>
		<path id="Path 61" class="s37" d="m545 390l7-1-1 6h-6l-1-4z"/>
		<path id="Path 62" class="s16" d="m611 400l-3-11h5l12 5v3z"/>
		<path id="Path 63" class="s17" d="m405 392l8-2h4l-6 4h-7z"/>
		<path id="Path 64" class="s19" d="m530 392l2-2 4 1 1 6-1 2-6 1z"/>
		<path id="Path 65" class="s8" d="m625 392l-3-2h10l5 10v1l-8-8z"/>
		<path id="Path 66" class="s24" d="m537 397l-1-6h8l1 4-1 2z"/>
		<path id="Path 67" class="s38" d="m385 394l12-2v2h-2z"/>
		<path id="Path 68" class="s10" d="m397 394v-2h8l-1 2z"/>
		<path id="Path 69" class="s39" d="m482 409l-2-6 2-11h6v4 8l-2 6z"/>
		<path id="Path 70" class="s40" d="m507 396l11-4h5 7v8l-7 2 3 11-9-3-2-1v-4h-5l-3-7z"/>
		<path id="Path 71" class="s14" d="m576 393l4-1h12l3 5h8l5 5v2l-5 1 1 3 4 15 2 9v4h-8l-6-2-1-4-2-6v-4h-13l-2-1-5-13z"/>
		<path id="Path 72" class="s41" d="m625 393v-1l4 1z"/>
		<path id="Path 73" class="s18" d="m570 394l6-1-3 13h-5z"/>
		<path id="Path 74" class="s31" d="m625 394v-1h4l8 8 3 7 6 4h-6l-9-2-5-6-1-7z"/>
		<path id="Path 75" class="s42" d="m378 395l7-1v2h-2-5z"/>
		<path id="Path 76" class="s11" d="m385 396v-2h10l-1 2z"/>
		<path id="Path 77" class="s34" d="m394 396l1-2h2 7 7v4l7 4v3l-8 7-16-2z"/>
		<path id="Path 78" class="s14" d="m553 395l11-1h6l-2 12-13 3-8-3v-6l5-1z"/>
		<path id="Path 79" class="s9" d="m373 397l5-2v1h-1z"/>
		<path id="Path 80" class="s13" d="m544 397l1-2h6 2l-1 4-5 1z"/>
		<path id="Path 81" class="s33" d="m373 397l4-1v2l-7 2-12 2h-1v-1-1l12-3z"/>
		<path id="Path 82" class="s41" d="m377 398v-2h1 5z"/>
		<path id="Path 83" class="s16" d="m377 398l6-2h2 9v14l-22-2-2-4v-4z"/>
		<path id="Path 84" class="s31" d="m488 404v-8h6l4 2v10h-5l-1-4z"/>
		<path id="Path 85" class="s29" d="m356 400l13-3-12 3z"/>
		<path id="Path 86" class="s43" d="m536 399l1-2h7l3 3v6l-1 6-7 1z"/>
		<path id="Path 87" class="s17" d="m611 400l14-3 1 7h-7-11v-2z"/>
		<path id="Path 88" class="s24" d="m461 406l-3-8 11 1v9z"/>
		<path id="Path 89" class="s18" d="m498 408v-10h9l3 7-2 5-4 1z"/>
		<path id="Path 90" class="s5" d="m530 400l6-1 3 14-1 1h-12v-1l-3-11z"/>
		<path id="Path 91" class="s44" d="m345 402l11-2h1v1l-1 1-11 2z"/>
		<path id="Path 92" class="s17" d="m356 401h1v1h-1z"/>
		<path id="Path 93" class="s45" d="m358 402l12-2v4h-12z"/>
		<path id="Path 94" class="s15" d="m418 405l12-5h10l4 5 12 1v15l19 9 1 9-14 2-9-15h-12l-3 8-9 2-3 4h-8l-1-4-7-4v-20z"/>
		<path id="Path 95" class="s29" d="m637 401v-1l2 2z"/>
		<path id="Path 96" class="s10" d="m646 412l-6-4-3-7 2 1 14 10v2h-1z"/>
		<path id="Path 97" class="s1" d="m326 407l14-5-1 3-3 1z"/>
		<path id="Path 98" class="s25" d="m339 405l1-3h5v2z"/>
		<path id="Path 99" class="s34" d="m345 404l11-2h1 1v2l-2 6-14 1-6-1v-4l3-1z"/>
		<path id="Path 100" class="s15" d="m356 410l2-6h12l2 4-8 4z"/>
		<path id="Path 101" class="s24" d="m486 410l2-6h4l1 4-2 4z"/>
		<path id="Path 102" class="s46" d="m604 408l-1-3 5-1h11l1 5z"/>
		<path id="Path 103" class="s30" d="m620 409l-1-5h7l5 6h-9z"/>
		<path id="Path 104" class="s13" d="m508 410l2-5h5v4z"/>
		<path id="Path 105" class="s16" d="m326 407l10-1v4l-4 7-6 5h-6l-3-4h-5v-5-1l7-3 6-2z"/>
		<path id="Path 106" class="s37" d="m476 439l-1-9-19-9v-15h5l8 2 13 1 4 1 5 2 13 2 3 2 2 8h11l35 12h5l1-4 15 1 7 4 8 2-1 21-2 1-5-1-5-6-8-1-8-5h-14l-4 4h-9l-6 12-2 1-8-1-2-5h-6l-3-5h-5v-4l-10-10z"/>
		<path id="Path 107" class="s36" d="m546 412l1-6 8 3 3 10z"/>
		<path id="Path 108" class="s47" d="m555 409l13-3h5l5 13-6 5-1 3h-3l-10-8z"/>
		<path id="Path 109" class="s1" d="m313 409l12-2-6 2z"/>
		<path id="Path 110" class="s37" d="m356 410l8 2 8-4 22 2 16 2v20l-12 1h-7l-3 3-2 16-8 1-12 2h-5l-3-1-14-1-8-2-6-5v-14l-4-2v-8l6-5 9-1 1-5z"/>
		<path id="Path 111" class="s6" d="m491 412l2-4h5l6 3v3z"/>
		<path id="Path 112" class="s7" d="m608 423l-4-15 16 1 2 1v4l-4 1 3 6-5 1z"/>
		<path id="Path 113" class="s25" d="m308 412l5-3h6l-7 3z"/>
		<path id="Path 114" class="s45" d="m508 410l7-1 2 1-1 6h-9l-3-2v-3z"/>
		<path id="Path 115" class="s15" d="m332 417l4-7 6 1-1 5z"/>
		<path id="Path 116" class="s16" d="m516 416l1-6 9 3v1 4z"/>
		<path id="Path 117" class="s19" d="m622 414v-4h9l9 2v6l-7 2h-3-7l4-5z"/>
		<path id="Path 118" class="s9" d="m293 417l3-4 9-1z"/>
		<path id="Path 119" class="s17" d="m293 417l12-5h3 4v1l-18 6h-1v-1z"/>
		<path id="Path 120" class="s19" d="m539 413l7-1 12 7 10 8-7 2h-7l-16-7v-8z"/>
		<path id="Path 121" class="s32" d="m640 418v-6h6l6 2 1 3-3 1z"/>
		<path id="Path 122" class="s0" d="m653 414v-2l4 5-2-1z"/>
		<path id="Path 123" class="s15" d="m294 419l18-6v5l-9 3z"/>
		<path id="Path 124" class="s24" d="m526 418v-4h12v8h-7z"/>
		<path id="Path 125" class="s13" d="m616 422l5-1-3-6 4-1 5 1-4 5h7l-2 9h6l2 5h-8l-12-2z"/>
		<path id="Path 126" class="s48" d="m650 418l3-1-1-3h1l2 2-1 6 4 3-1 3-7-1z"/>
		<path id="Path 127" class="s35" d="m561 432l-1 4h-5l-35-12h-11l-2-8h9l10 2 5 4h7l16 7h7z"/>
		<path id="Path 128" class="s49" d="m658 425l-4-3 1-6 2 1 2 3v5z"/>
		<path id="Path 129" class="s1" d="m287 418l6-1v1l-6 1z"/>
		<path id="Path 130" class="s0" d="m284 420l3-2v1z"/>
		<path id="Path 131" class="s50" d="m287 419l6-1v1l-16 6v-1l7-4z"/>
		<path id="Path 132" class="s37" d="m294 419l9 2 9-3h5l3 4v14l3 2v7l3 1v17l-6 3-2-12-6-2-2-3h-9l1 20v9l-4 2h-13l-1-14-4-3v-5l-9-1-7-15v-11l13-6 16-6z"/>
		<path id="Path 133" class="s17" d="m633 420l7-2h10v9l-15 2 1-5z"/>
		<path id="Path 134" class="s7" d="m572 424l6-5 2 1v4z"/>
		<path id="Path 135" class="s0" d="m276 423l8-3-7 4h-1z"/>
		<path id="Path 136" class="s23" d="m580 424v-4h13v4h-8z"/>
		<path id="Path 137" class="s31" d="m634 429h-6l2-9h3l3 4-1 5z"/>
		<path id="Path 138" class="s10" d="m659 425v-5l3 3v12l-7 6h-2v-1l3-2 4-3z"/>
		<path id="Path 139" class="s15" d="m326 446l-3-1v-7l-3-2v-14h6v8l4 2v14z"/>
		<path id="Path 140" class="s48" d="m608 423l8-1v10h-6z"/>
		<path id="Path 141" class="s38" d="m273 424l3-1v1h-2z"/>
		<path id="Path 142" class="s0" d="m273 424h1v1h-1z"/>
		<path id="Path 143" class="s44" d="m273 425l1-1h2 1v1l-13 6-8 3v-2l5-2 5-3h2l3-2z"/>
		<path id="Path 144" class="s13" d="m571 427l1-3h8 5v5l-9 2z"/>
		<path id="Path 145" class="s51" d="m585 429v-5h8l2 6z"/>
		<path id="Path 146" class="s52" d="m650 427l7 1 1-3h1l1 10-4 3-1-3-13-1h-6l-2-5h1z"/>
		<path id="Path 147" class="s16" d="m438 434l3-8h12l9 15 14-2 17 1 10 10v4l-1 4-10 2-3-4-9-1-4-5-15-2-1 9-14 1v-5l-6-3z"/>
		<path id="Path 148" class="s15" d="m561 429l7-2h3l5 4v2l-15-1z"/>
		<path id="Path 149" class="s2" d="m853 430l8-2v2l-8 1z"/>
		<path id="Path 150" class="s1" d="m861 430v-2l15 2v1l-14-1z"/>
		<path id="Path 151" class="s53" d="m576 431l9-2 10 1 1 4h-13v3l-7-4z"/>
		<path id="Path 152" class="s3" d="m846 432l7-2v1z"/>
		<path id="Path 153" class="s47" d="m853 431l8-1h1v6l-1 2h-17v-4l1-2h1z"/>
		<path id="Path 154" class="s54" d="m862 436v-6l14 1 9 3 1 4-10 2h-8l-2-4z"/>
		<path id="Path 155" class="s10" d="m876 431v-1l9 2v2z"/>
		<path id="Path 156" class="s15" d="m256 434l8-3v11h-10l-4-4z"/>
		<path id="Path 157" class="s1" d="m241 440l15-8v2l-6 4-4 1z"/>
		<path id="Path 158" class="s16" d="m398 433l12-1 7 4 1 4h8l2 10-2 10-9 3-3-4-8 1-6-3z"/>
		<path id="Path 159" class="s31" d="m610 436v-4h6l12 2v3l-10 1z"/>
		<path id="Path 160" class="s10" d="m838 433l7-1-1 2h-6z"/>
		<path id="Path 161" class="s9" d="m885 434v-2l5 2z"/>
		<path id="Path 162" class="s34" d="m386 452l2-16 3-3h7l2 24-12-1z"/>
		<path id="Path 163" class="s9" d="m826 437l5-4h7v1l-5 1-6 2z"/>
		<path id="Path 164" class="s34" d="m426 440l3-4 9-2 2 16h-2-10z"/>
		<path id="Path 165" class="s13" d="m583 437v-3h13l6 2v6l-11-3z"/>
		<path id="Path 166" class="s7" d="m628 437v-3h8 6v4l-2 8-2 2h-1-5-2l1-10z"/>
		<path id="Path 167" class="s32" d="m642 438v-4l13 1 1 3-3 2z"/>
		<path id="Path 168" class="s55" d="m833 435l5-1h6v4l-10 2z"/>
		<path id="Path 169" class="s49" d="m886 438l-1-4h5v2 4z"/>
		<path id="Path 170" class="s27" d="m890 436v-2l6 3z"/>
		<path id="Path 171" class="s52" d="m827 437l6-2 1 5 10-2h17l7 4v10l-1 1-27 3-4 3-16 1v-12l-3-3 3-3h6z"/>
		<path id="Path 172" class="s5" d="m602 442v-6h8l8 2v9z"/>
		<path id="Path 173" class="s51" d="m861 438l1-2h4l2 4v2z"/>
		<path id="Path 174" class="s56" d="m890 440v-4l6 1 8 5 3 3 2 2 5 5 3 3 1 2v3l-9-4-5-9-9-2z"/>
		<path id="Path 175" class="s26" d="m618 438l10-1 3 1-1 10h-4l-8-1z"/>
		<path id="Path 176" class="s1" d="m813 440l12-3-5 2-6 1z"/>
		<path id="Path 177" class="s30" d="m820 439l5-2h1 1l-1 5h-6z"/>
		<path id="Path 178" class="s37" d="m246 439l4-1 4 4 1 9 7 5v5l-6 8v7l-10 1v5l6 6-1 15-3 2-4-2-1-12-9-4-4-8-10-2-2 7 6 9 6 2v11h-12l-10-11v-6l-6-2-7-2-2 4-9-1v-16h8l2 4h6l1-8 13-2 2-13 1-2 8-1 4 7h7l5 6h6l1-10-7-10z"/>
		<path id="Path 179" class="s6" d="m640 446l2-8 11 2v1l-5 2h-1z"/>
		<path id="Path 180" class="s47" d="m876 440l10-2 4 2 5 5-1 5-13 2h-5z"/>
		<path id="Path 181" class="s57" d="m241 440l5-1-5 4-16 7-8 1 7-4h2l4-2 3-1 3-2h2z"/>
		<path id="Path 182" class="s15" d="m590 460l1-21 11 3 16 5 8 1 6 3 10 2 8 2v4l4 1v12h-4-5l-1-2-14 2h-3l-21-4h-7l-4-8z"/>
		<path id="Path 183" class="s5" d="m814 440l6-1v3l-3 3h-7v-2z"/>
		<path id="Path 184" class="s44" d="m802 442l11-2h1l-4 3-10 1z"/>
		<path id="Path 185" class="s55" d="m868 442v-2h8v12h-8z"/>
		<path id="Path 186" class="s38" d="m648 443l5-2h2z"/>
		<path id="Path 187" class="s42" d="m233 443l3-1-3 2z"/>
		<path id="Path 188" class="s35" d="m256 476v-7l6-8v-5l-7-5-1-9h10l7 15 9 1v5l4 3 1 14-1 11-3 2-4 4-1 8-4 5h-2-4l-6-7-2-15 2-8z"/>
		<path id="Path 189" class="s38" d="m793 445l9-3-2 2-2 1z"/>
		<path id="Path 190" class="s9" d="m229 445l4-2v1l-3 1z"/>
		<path id="Path 191" class="s35" d="m225 450l16-7 7 10-1 10h-6l-5-6h-7z"/>
		<path id="Path 192" class="s38" d="m640 446l7-3-8 5h-1z"/>
		<path id="Path 193" class="s39" d="m800 444l10-1v2 1l-12 2v-3z"/>
		<path id="Path 194" class="s1" d="m226 447l3-2h1z"/>
		<path id="Path 195" class="s9" d="m754 447l10-2v1l-8 1z"/>
		<path id="Path 196" class="s38" d="m764 446v-1h8v1h-6z"/>
		<path id="Path 197" class="s42" d="m772 446v-1h21l-9 1z"/>
		<path id="Path 198" class="s14" d="m784 446l9-1h5v3l-2 12 7 4v7l3 3v6l5 3v2l-7 1-2-9-12-11h-6l-2-8 2-11z"/>
		<path id="Path 199" class="s51" d="m810 446v-1h7l3 3v12l-3 3h-7z"/>
		<path id="Path 200" class="s54" d="m894 450l1-5 9 2 5 9-8-2-1-4z"/>
		<path id="Path 201" class="s34" d="m326 463v-17h4l6 5v12l4 3 1 6 5 1 6 9-2 10-10-3-1-4-5-2v-14z"/>
		<path id="Path 202" class="s46" d="m756 447l8-1h2v2h-2-8z"/>
		<path id="Path 203" class="s58" d="m766 448v-2h6v2z"/>
		<path id="Path 204" class="s33" d="m772 448v-2h12v1z"/>
		<path id="Path 205" class="s30" d="m798 448l12-2v17l-7 1-7-4z"/>
		<path id="Path 206" class="s1" d="m215 450l9-3-7 4z"/>
		<path id="Path 207" class="s50" d="m632 448h5l1 2 4 2v1l-10-2z"/>
		<path id="Path 208" class="s29" d="m735 450l17-3-8 3-9 1z"/>
		<path id="Path 209" class="s59" d="m744 450l8-3h2 2v1l-2 1-7 2h-3z"/>
		<path id="Path 210" class="s7" d="m772 448l12-1-2 11h-6l-4-4z"/>
		<path id="Path 211" class="s32" d="m460 457l1-9 15 2 4 5v6l-14 3z"/>
		<path id="Path 212" class="s16" d="m544 452l4-4h14l8 5-4 6v11l-16-2-5-6z"/>
		<path id="Path 213" class="s31" d="m632 451l-6-3h4 2z"/>
		<path id="Path 214" class="s9" d="m638 450l-1-2h1 1v2z"/>
		<path id="Path 215" class="s24" d="m754 449l2-1h8v6l-4 1-5-1z"/>
		<path id="Path 216" class="s32" d="m764 454v-6h2 6v6z"/>
		<path id="Path 217" class="s7" d="m302 469l-1-20h9l2 3-2 6 2 10z"/>
		<path id="Path 218" class="s32" d="m747 451l7-2 1 5 5 1v11l-8 2-4-4z"/>
		<path id="Path 219" class="s57" d="m210 452l5-2 2 1-1 2-7 1z"/>
		<path id="Path 220" class="s45" d="m426 460l2-10h10v8l-2 3-9 1z"/>
		<path id="Path 221" class="s32" d="m438 458v-8h2l6 3v5z"/>
		<path id="Path 222" class="s22" d="m642 452l-4-2h1l7 2z"/>
		<path id="Path 223" class="s8" d="m728 452l7-2v1 1z"/>
		<path id="Path 224" class="s50" d="m735 451l9-1v1l-9 1z"/>
		<path id="Path 225" class="s14" d="m881 452l13-2h6l1 4-8 3h-5l-6-1z"/>
		<path id="Path 226" class="s24" d="m340 466l-4-3v-12l8 2v13z"/>
		<path id="Path 227" class="s16" d="m735 452l9-1h3l1 13-12 1-6 5-9 2-11 1-4 4-18 1h-12v-3l-6-3-4-15 14 1h8l19-2h1 7 8l1 6h6l2-8z"/>
		<path id="Path 228" class="s1" d="m196 457l5-4 9-1-1 2z"/>
		<path id="Path 229" class="s31" d="m312 468l-2-10 2-6 6 2 2 12 4 6v8l8 5 2 5h4v4l-5 2h-11l-2-11-6-4 2-9z"/>
		<path id="Path 230" class="s7" d="m378 453l8-1 2 4v6 2h-10z"/>
		<path id="Path 231" class="s24" d="m529 464l6-12h9l1 10 5 6v1l-21-1v-2z"/>
		<path id="Path 232" class="s43" d="m642 453v-1h4 2l5 2v1h-3z"/>
		<path id="Path 233" class="s10" d="m653 454l-5-2h7v2z"/>
		<path id="Path 234" class="s38" d="m655 454v-2l6 1v1z"/>
		<path id="Path 235" class="s38" d="m708 455l13-3-1 2h-4z"/>
		<path id="Path 236" class="s25" d="m720 454l1-2h6l-1 2h-2z"/>
		<path id="Path 237" class="s6" d="m726 454l1-2h1 7l-3 2z"/>
		<path id="Path 238" class="s5" d="m867 453l1-1h8v6h-6z"/>
		<path id="Path 239" class="s43" d="m876 458v-6h5l1 4v2h-4z"/>
		<path id="Path 240" class="s15" d="m209 454l7-1-2 13-13 2h-7v-9l1-1v-1h1z"/>
		<path id="Path 241" class="s32" d="m344 466v-13l14 1v2l-4 1-1 9z"/>
		<path id="Path 242" class="s18" d="m366 455l12-2v11h-4z"/>
		<path id="Path 243" class="s24" d="m566 470v-11l4-6 8 1 5 6-1 14-8-1z"/>
		<path id="Path 244" class="s27" d="m661 454v-1l5 2h-1z"/>
		<path id="Path 245" class="s48" d="m836 459l4-3 27-3 3 5v4l-7 1 3 6v3l-2 9 4 2v5l-12 1v-9l-10-2-1-2-1-4h-4l-4-4z"/>
		<path id="Path 246" class="s18" d="m358 456v-2l3 1-1 1z"/>
		<path id="Path 247" class="s45" d="m502 458l1-4h5l3 5-1 2h-4z"/>
		<path id="Path 248" class="s11" d="m653 455v-1h2 6l4 1v1h-9z"/>
		<path id="Path 249" class="s28" d="m708 455l8-1-1 2h-7z"/>
		<path id="Path 250" class="s60" d="m715 456l1-2h4 4l-1 2z"/>
		<path id="Path 251" class="s15" d="m723 456l1-2h2 6l-2 8h-6z"/>
		<path id="Path 252" class="s18" d="m760 455l4-1h8l4 4 2 20-4 4 3 14-2 7-3 1-8-2-4-5v-17l-8-7v-5l8-2z"/>
		<path id="Path 253" class="s30" d="m893 457l8-3 8 2 9 4v1l1 5-4 9 4 3-2 4-7 2h-4l-2-4v-10z"/>
		<path id="Path 254" class="s24" d="m360 456l1-1h5l8 9h4 10v6 4h-6-14l-8-10z"/>
		<path id="Path 255" class="s7" d="m480 461v-6l9 1 3 4v8l-2 6h-4v-7z"/>
		<path id="Path 256" class="s16" d="m654 460l-4-1v-4h3l3 1z"/>
		<path id="Path 257" class="s42" d="m665 456v-1h1 14v1h-14z"/>
		<path id="Path 258" class="s38" d="m680 456v-1h4v1z"/>
		<path id="Path 259" class="s9" d="m684 456v-1h19v1h-15z"/>
		<path id="Path 260" class="s61" d="m703 456v-1h5v1h-1z"/>
		<path id="Path 261" class="s27" d="m918 457l-1-2 2 2z"/>
		<path id="Path 262" class="s19" d="m353 466l1-9 4-1h2v8l8 10v5l-4 3h-4v-9z"/>
		<path id="Path 263" class="s18" d="m388 462v-6l12 1 6 3v6l-2 2h-10v-4z"/>
		<path id="Path 264" class="s24" d="m654 460l2-4h9 1v1l4 15-2 6h-8l-6-6z"/>
		<path id="Path 265" class="s62" d="m666 457v-1h14v2z"/>
		<path id="Path 266" class="s46" d="m680 458v-2h4 4v2z"/>
		<path id="Path 267" class="s63" d="m688 458v-2h15 4z"/>
		<path id="Path 268" class="s13" d="m882 458v-2l6 1-2 4z"/>
		<path id="Path 269" class="s1" d="m186 458l9-1v1l-9 1z"/>
		<path id="Path 270" class="s40" d="m446 458l14-1 6 7v8l-5 4-1 10h-4-5l-8-9 1-14z"/>
		<path id="Path 271" class="s5" d="m886 461l2-4h5l11 13v10h-18v-10z"/>
		<path id="Path 272" class="s9" d="m918 460v-3h1l3 11-2-2-2-5z"/>
		<path id="Path 273" class="s29" d="m158 467l3-4 19-5v2l-15 5-4 2z"/>
		<path id="Path 274" class="s64" d="m180 460v-2h6v1 1h-2z"/>
		<path id="Path 275" class="s65" d="m186 459l9-1-1 1-8 1z"/>
		<path id="Path 276" class="s7" d="m436 461l2-3h8l-2 5z"/>
		<path id="Path 277" class="s18" d="m492 460l10-2 4 3v11l-14-4z"/>
		<path id="Path 278" class="s31" d="m778 478l-2-20h6l2 8v10l-2 2z"/>
		<path id="Path 279" class="s54" d="m870 462v-4h6 2v10h-8z"/>
		<path id="Path 280" class="s30" d="m878 468v-10h4l4 3v9z"/>
		<path id="Path 281" class="s16" d="m186 460l8-1v9l-2 4h-8l-8-4v-5l8-3z"/>
		<path id="Path 282" class="s12" d="m406 460l8-1 3 4v2l-11 1z"/>
		<path id="Path 283" class="s19" d="m510 461l1-2h6l2 5-7 1z"/>
		<path id="Path 284" class="s62" d="m820 460l16-1v9l4 4-1 4v2h-5l-2-4h-14-1v-11z"/>
		<path id="Path 285" class="s14" d="m165 465l15-5h4l-8 3z"/>
		<path id="Path 286" class="s6" d="m417 463l9-3 1 2-1 4h-6l-3-1z"/>
		<path id="Path 287" class="s32" d="m582 474l1-14 5 1 2 7 8 3v3l-2 1z"/>
		<path id="Path 288" class="s24" d="m588 461l2-1h5l4 8-1 3-8-3z"/>
		<path id="Path 289" class="s20" d="m427 462l9-1 8 2-1 14-15-1-2-10z"/>
		<path id="Path 290" class="s14" d="m466 464l14-3 6 6v7l-2 33h-2l-6-1-10-12-6-2v-6l1-10 5-4z"/>
		<path id="Path 291" class="s31" d="m506 472v-11h4l2 4 7-1 8 1 2 1v2l-3 11h-4l-1 3h-5l-10-2z"/>
		<path id="Path 292" class="s56" d="m919 466l-1-5 2 5z"/>
		<path id="Path 293" class="s16" d="m388 464v-2l6 2v4 2h-6z"/>
		<path id="Path 294" class="s51" d="m866 469l-3-6 7-1v6z"/>
		<path id="Path 295" class="s15" d="m165 465l11-2v5l8 4v16l9 1v13l5 2v6l-2 9-2 5h-11l-14-2-1-4h-4l-4-10-6-3-4-15-10-5v-8l1-1 5-2 4-1 7 10 7-1 1-6-5-7 1-2z"/>
		<path id="Path 296" class="s24" d="m320 466l6-3 8 6v14l-2 2-8-5v-8z"/>
		<path id="Path 297" class="s5" d="m803 464l7-1h7v11h-3-8l-3-3z"/>
		<path id="Path 298" class="s40" d="m527 465l2-1v2z"/>
		<path id="Path 299" class="s7" d="m730 470l6-5 12-1 4 4v5l-10 5z"/>
		<path id="Path 300" class="s19" d="m406 466l11-1 3 1v14h-12l-4-4v-8z"/>
		<path id="Path 301" class="s18" d="m352 482l-6-9-5-1-1-6h4 9l7 7v9h-2z"/>
		<path id="Path 302" class="s18" d="m420 480v-14h6l2 10 15 1 8 9v5l-3 9 5 1 1 13v4h-8l-3-7-7-1v-3l-8-5-2-9v-5z"/>
		<path id="Path 303" class="s39" d="m784 476v-10h6l12 11 2 9 7-1 6 4 5 7 2 6h7l6 9v5l-1 9-10 1-3-3v-7l-4-4h-5l-1-3h-9l-6-5h-6l-2-8 2-13z"/>
		<path id="Path 304" class="s66" d="m919 478l-4-3 4-9h1l2 2v7 4z"/>
		<path id="Path 305" class="s1" d="m146 472l11-5-5 4h-1z"/>
		<path id="Path 306" class="s50" d="m152 471l5-4h1 3l-1 2z"/>
		<path id="Path 307" class="s35" d="m192 472l2-4h7l-1 8h-6z"/>
		<path id="Path 308" class="s34" d="m302 469l10-1 4 4-2 9h-1l-3-3h-8z"/>
		<path id="Path 309" class="s7" d="m394 470v-2h10v8l4 4h12l6 8v5l-20 2-3-8-9-2v-11z"/>
		<path id="Path 310" class="s12" d="m490 474l2-6 14 4v8 11l-4 5h-4v-7l-5-3z"/>
		<path id="Path 311" class="s39" d="m526 479l3-11 21 1 4 7v14l-2 3-7 3-10-12h-9z"/>
		<path id="Path 312" class="s19" d="m550 469v-1l16 2 8 3-2 5-18-2z"/>
		<path id="Path 313" class="s19" d="m598 471l1-3h7v6h-8z"/>
		<path id="Path 314" class="s32" d="m606 474v-6l21 4-1 8-5 2h-7l-5-5z"/>
		<path id="Path 315" class="s31" d="m866 469l4-1h8l8 2v10h-4-10l2-7-8-1z"/>
		<path id="Path 316" class="s37" d="m152 471l8-2 5 7-1 6-7 1-7-10 1-2z"/>
		<path id="Path 317" class="s32" d="m388 474v-4h6v4z"/>
		<path id="Path 318" class="s18" d="m630 472l14-2 1 2-1 8-2 2h-12z"/>
		<path id="Path 319" class="s40" d="m721 472l9-2 12 8v12h-9l-2-3h-7z"/>
		<path id="Path 320" class="s50" d="m146 472l5-1-1 2-4 1v-1z"/>
		<path id="Path 321" class="s29" d="m128 482l2-4 16-6v1l-5 3-1 1-5 2z"/>
		<path id="Path 322" class="s7" d="m626 480l1-8h3v10h-2z"/>
		<path id="Path 323" class="s19" d="m644 480l1-8h5l-1 7z"/>
		<path id="Path 324" class="s31" d="m649 479l1-7h4l6 6v10l-8-2z"/>
		<path id="Path 325" class="s19" d="m668 478l2-6 6 3v3l-4 1z"/>
		<path id="Path 326" class="s31" d="m706 477l4-4 11-1 3 15-2 3h-3l-9-6z"/>
		<path id="Path 327" class="s40" d="m839 476l1-4h4l1 4z"/>
		<path id="Path 328" class="s30" d="m868 483l-4-2 2-9 8 1-2 7z"/>
		<path id="Path 329" class="s33" d="m141 476l5-3v1z"/>
		<path id="Path 330" class="s31" d="m572 478l2-5 8 1 3 9 11-1 10 3v9l6 3-1 9-6-2-7-5-2-4-6 3-2-4h-5l-2-5-8-2z"/>
		<path id="Path 331" class="s20" d="m742 478l10-5 8 7v17l4 5 2 8h6l5 21 5 7h6l2 14 8 4 1 10h-4-7l1-7-7-3-10-11-4-11-6-1-6-6v-22l-5-4h-9v-11z"/>
		<path id="Path 332" class="s18" d="m364 482l4-3v-5h14l2 12 10-1 9 2 3 8-12 8v12l6 6-2 9h-4-12l-5 3-5-1-2-8 2-22-8-8z"/>
		<path id="Path 333" class="s19" d="m394 485l-10 1-2-12h6 6z"/>
		<path id="Path 334" class="s67" d="m484 507l2-33h4l3 12 5 3v7l-2 14h-7z"/>
		<path id="Path 335" class="s40" d="m596 482l-11 1-3-9 14 1z"/>
		<path id="Path 336" class="s7" d="m596 475l2-1h8l3 3v8h-3l-10-3z"/>
		<path id="Path 337" class="s7" d="m811 483l-5-3v-6h8v8z"/>
		<path id="Path 338" class="s39" d="m814 482v-8h3 1v9z"/>
		<path id="Path 339" class="s6" d="m818 483v-9h14l2 4h5l3 4v6l-2 2h-8-6l-2-1v-5z"/>
		<path id="Path 340" class="s10" d="m922 479v-4l2 15h-1-1v-8z"/>
		<path id="Path 341" class="s15" d="m252 488l-6-6v-5l10-1 4 4-2 8z"/>
		<path id="Path 342" class="s20" d="m554 490v-14l18 2 1 9 8 2 2 5v5l-4 2-11-1h-2l-1-7z"/>
		<path id="Path 343" class="s13" d="m782 478l2-2 8 7-2 13h-8z"/>
		<path id="Path 344" class="s17" d="m839 478v-2h6l1 2v4h-4z"/>
		<path id="Path 345" class="s34" d="m135 479l5-2v8h-6v-4z"/>
		<path id="Path 346" class="s35" d="m230 506v-11l-6-2-6-9 2-7 10 2 4 8 9 4 1 12-2 3z"/>
		<path id="Path 347" class="s12" d="m606 485h3v-8l5 5h7l4 7h3l2 7 7 4 1 8-6 3-6-2-2 5 2 2-4 5-10-5-1-10 1-9-6-3z"/>
		<path id="Path 348" class="s40" d="m688 478l18-1 4 7 9 6 1 6v10h-11l-8-10-13-6z"/>
		<path id="Path 349" class="s16" d="m298 480l4-2h8l3 3-8 8-5 1-2-2z"/>
		<path id="Path 350" class="s18" d="m660 488v-10h8l4 1 1 11-6 2z"/>
		<path id="Path 351" class="s7" d="m672 479l4-1h12v12l-6 1-9-1z"/>
		<path id="Path 352" class="s6" d="m777 496l-3-14 4-4h4v18z"/>
		<path id="Path 353" class="s13" d="m846 482v-4l10 2v9 1l-10-2z"/>
		<path id="Path 354" class="s36" d="m917 482l2-4 3 1v3l-4 2z"/>
		<path id="Path 355" class="s17" d="m128 482l7-3-1 2-6 4-6 1 5-4z"/>
		<path id="Path 356" class="s47" d="m521 482l1-3h4v5h-4z"/>
		<path id="Path 357" class="s20" d="m644 480l5-1 3 7 8 2 7 4-2 16h-3l-3-8-11-2-5-4-1-12z"/>
		<path id="Path 358" class="s15" d="m284 491l1-11h13v8h-6l-2 3z"/>
		<path id="Path 359" class="s20" d="m506 491v-11l10 2 1 7v5l5 4v8l-4 2-8-4v-10z"/>
		<path id="Path 360" class="s31" d="m621 482l5-2 2 2v7h-3z"/>
		<path id="Path 361" class="s54" d="m868 483l4-3h10v8h-12-2z"/>
		<path id="Path 362" class="s51" d="m882 488v-8h4 18l2 4-4 6h-4l-11-1z"/>
		<path id="Path 363" class="s24" d="m128 485l6-4v4l-6 3z"/>
		<path id="Path 364" class="s6" d="m300 490l5-1 8-8h1l6 4 2 11h11l3 18-8-1-3-6-2-6-9-2-16-3z"/>
		<path id="Path 365" class="s38" d="m118 487l3-4 6-1-5 4z"/>
		<path id="Path 366" class="s24" d="m350 492l2-10h6l1 12-5 4-4-2z"/>
		<path id="Path 367" class="s7" d="m359 494l-1-12h2 4v12z"/>
		<path id="Path 368" class="s12" d="m517 489l-1-7h5l1 2-1 5z"/>
		<path id="Path 369" class="s39" d="m628 489v-7h2 12l1 12 5 4v11l-10-1-1-8-7-4z"/>
		<path id="Path 370" class="s47" d="m811 483l3-1 4 1 6 1v5h-7l-6-4z"/>
		<path id="Path 371" class="s30" d="m842 488v-6h4v6z"/>
		<path id="Path 372" class="s32" d="m910 484l7-2 1 2-1 4 3 2-3 4h-7z"/>
		<path id="Path 373" class="s58" d="m918 484l4-2v8h-2l-3-2z"/>
		<path id="Path 374" class="s32" d="m332 485l2-2 5 2 1 4-2 1h-4z"/>
		<path id="Path 375" class="s30" d="m517 489h4l1-5h4 9l10 12-3 15 7 3 4 8 9 3 6 8h6l4 4v10l-4 2 2 20 10 5v6l-2 3-12 4-5-3h-11l-1-6-5-3v-7l-6 1-4-5-2-21 2-6-6-2-1-7 1-15-6-6-6-1v-8l-5-4z"/>
		<path id="Path 376" class="s18" d="m898 490h4l4-6h4v10h-12z"/>
		<path id="Path 377" class="s16" d="m122 486l6-1v3l-2 12-14-4v-5l2-2 3-2h1z"/>
		<path id="Path 378" class="s37" d="m128 488l6-3h6l10 5 4 15-2 3h-10l-4-4h-10l-2-4z"/>
		<path id="Path 379" class="s67" d="m193 489l2-4 7 2v5l4 4-5 6-3 2-5-2z"/>
		<path id="Path 380" class="s19" d="m451 491v-5h5l-2 5z"/>
		<path id="Path 381" class="s31" d="m454 491l2-5h4v6l6 2 10 12v6l5 2 7 14 2 17-2 3h-4l-5-5v-8l-13-3-2-12-6-6h-4l-1-13z"/>
		<path id="Path 382" class="s29" d="m109 490l8-3-3 2z"/>
		<path id="Path 383" class="s68" d="m206 496l-4-4v-5l6 2v6z"/>
		<path id="Path 384" class="s14" d="m722 490l2-3h7l2 3v6h-11z"/>
		<path id="Path 385" class="s32" d="m248 505l3-2 1-15h6l2 15 6 7h4v7l4 2v5l-14-2-1-6-4-1v11l-4 1-1-6-2-7z"/>
		<path id="Path 386" class="s19" d="m290 491l2-3h6l2 2-2 6-1 3h-7z"/>
		<path id="Path 387" class="s18" d="m840 490l2-2h4l10 2v8l-16-1z"/>
		<path id="Path 388" class="s31" d="m856 489l12-1h2v12h-4l-10-2v-8z"/>
		<path id="Path 389" class="s6" d="m870 500v-12h12l5 1 5 6v12l-5 1-13-1-4-2z"/>
		<path id="Path 390" class="s44" d="m109 490l5-1-2 2-5 2h-1v-1z"/>
		<path id="Path 391" class="s18" d="m338 490l2-1 10 3v4l4 2 4 14-2 8h-4l-4-2-2-16-8-8z"/>
		<path id="Path 392" class="s40" d="m822 496l-5-7h7l2 1v6z"/>
		<path id="Path 393" class="s7" d="m892 495l-5-6 11 1v4l-1 1z"/>
		<path id="Path 394" class="s12" d="m552 493l2-3 11 3 1 7-7 1z"/>
		<path id="Path 395" class="s5" d="m667 492l6-2 9 1v9l-4 4v6h-4l-9-2z"/>
		<path id="Path 396" class="s20" d="m682 491l6-1 13 6 8 10v3l-6 1h-13l-2-1v-7l-6-2z"/>
		<path id="Path 397" class="s5" d="m720 496l-1-6h3v6z"/>
		<path id="Path 398" class="s31" d="m733 496v-6h9v11 3h-6z"/>
		<path id="Path 399" class="s18" d="m826 496v-6h6v6z"/>
		<path id="Path 400" class="s7" d="m832 496v-6h8v7z"/>
		<path id="Path 401" class="s48" d="m910 494h7l3-4h2 1l1 13v1l-2 4-2 1-3-9h-7z"/>
		<path id="Path 402" class="s0" d="m924 503l-1-13h1l2 13z"/>
		<path id="Path 403" class="s24" d="m107 493l5-2v5l-8 2z"/>
		<path id="Path 404" class="s24" d="m281 493l3-2h6v8l-1 1h-6z"/>
		<path id="Path 405" class="s20" d="m453 501l-5-1 3-9h3z"/>
		<path id="Path 406" class="s30" d="m498 496h4l4-5 4 3v10 8l8 2 2 10-3 5h-11l-4-3v-10l-6-2v-4z"/>
		<path id="Path 407" class="s1" d="m103 495l3-3v1z"/>
		<path id="Path 408" class="s12" d="m406 495l20-2 2 9 8 5v3h-4l-12-1-6 5 4 24-2 8h-10v-9l-8-7 2-9-6-6v-12z"/>
		<path id="Path 409" class="s59" d="m103 495l3-2h1l-3 5-1 4z"/>
		<path id="Path 410" class="s18" d="m276 505l1-8 4-4 2 7h6l-1 6-8 6z"/>
		<path id="Path 411" class="s54" d="m545 496l7-3 7 8-1 17 4 2v5l-9-3-4-8-7-3z"/>
		<path id="Path 412" class="s5" d="m333 496l5-2 8 8 2 16h-10l-2-4z"/>
		<path id="Path 413" class="s32" d="m354 498l5-4h5l8 8-2 22 2 8-2 6h-6-4l-6-8v-6l2-4 2-8z"/>
		<path id="Path 414" class="s54" d="m579 501l4-2v-5h5l2 4 6-3 2 4-2 5 2 2 7-2 6 2 1 10 10 5 2 9 6 1 4 6-2 7-8 2-4-3-10 2v-7l-4-2v-7l-7-7-1-8-14-4z"/>
		<path id="Path 415" class="s30" d="m897 495l1-1h12v6h-8z"/>
		<path id="Path 416" class="s27" d="m103 503h-2l2-8v7z"/>
		<path id="Path 417" class="s34" d="m206 496l2-1 10 11v10h-6l-8-6v-6l-3-2z"/>
		<path id="Path 418" class="s5" d="m892 507v-12h5l5 5 3 4-1 6h-4l-1-3z"/>
		<path id="Path 419" class="s15" d="m104 498l8-2 14 4 2 4-2 8v8l-6 2h-6l-2-4-4-5-5-9v-1-1z"/>
		<path id="Path 420" class="s47" d="m297 499l1-3 16 3v8l-5 1v-5l-11-1z"/>
		<path id="Path 421" class="s20" d="m720 506v-10h2 11l3 8v4h-8z"/>
		<path id="Path 422" class="s43" d="m775 503l2-7h5 8l2 8-3 3h-6z"/>
		<path id="Path 423" class="s43" d="m837 511l-6-9h-7l-2-6h4 6l8 1 16 1 10 2v5h-2l-10-1h-11l-3 7z"/>
		<path id="Path 424" class="s12" d="m648 509v-11l11 2 3 8v2h-14z"/>
		<path id="Path 425" class="s54" d="m289 500l1-1h7l1 3-5 5-5-1z"/>
		<path id="Path 426" class="s30" d="m314 507v-8l9 2 2 6-6 3z"/>
		<path id="Path 427" class="s5" d="m605 504l-7 2-2-2 2-5z"/>
		<path id="Path 428" class="s26" d="m559 501l7-1h2v8l11 11 5 22 6 5v6l-1 1-11-6v-10l-4-4h-6l-6-8v-5l-4-2z"/>
		<path id="Path 429" class="s47" d="m579 519l-11-11v-8l11 1 5 9v6z"/>
		<path id="Path 430" class="s12" d="m678 510v-6l4-4 6 2v7l-2 1z"/>
		<path id="Path 431" class="s62" d="m866 505v-5h4v5z"/>
		<path id="Path 432" class="s18" d="m904 510l1-6-3-4h8 7l3 9v4l-3 5h-3l-1-3h-7z"/>
		<path id="Path 433" class="s5" d="m742 504v-3h9l5 4v22l6 6 6 1 4 11-8 5h-12l-3-4-1-9-2-23 2-6z"/>
		<path id="Path 434" class="s37" d="m198 504l3-2 3 2v6h-6z"/>
		<path id="Path 435" class="s69" d="m293 507l5-5 11 1v5l5-1 5 3 1 8-4 12-3 4h-2l-3-4-8 2-12 1-8-6v-4l10-2 8-6z"/>
		<path id="Path 436" class="s7" d="m772 510h-6l-2-8 8 2z"/>
		<path id="Path 437" class="s16" d="m242 506l2-3 4 2v9h-6z"/>
		<path id="Path 438" class="s13" d="m772 504l3-1 8 4 3 10 6 13v4l-4 4h-6l-5-7-5-21z"/>
		<path id="Path 439" class="s1" d="m108 513l-4-2-1-7z"/>
		<path id="Path 440" class="s16" d="m126 512l2-8h10l4 4-2 9h-2l-5-5z"/>
		<path id="Path 441" class="s13" d="m518 514l-8-2v-8l8 4z"/>
		<path id="Path 442" class="s30" d="m736 508v-4h6l6 4-2 6h-4z"/>
		<path id="Path 443" class="s14" d="m789 507l3-3h6l6 5h9l1 3v8h-4-6l-14-3z"/>
		<path id="Path 444" class="s18" d="m840 511l3-7h11v6 6h-14z"/>
		<path id="Path 445" class="s19" d="m854 510v-6l10 1v5z"/>
		<path id="Path 446" class="s32" d="m152 508l2-3 6 3 4 10v4l-12-2z"/>
		<path id="Path 447" class="s7" d="m272 510l4-5 4 7v5h-4v-5z"/>
		<path id="Path 448" class="s45" d="m864 510v-5h2 4l4 2v4h-6z"/>
		<path id="Path 449" class="s15" d="m218 516v-10h12v6l-3 5h-6z"/>
		<path id="Path 450" class="s34" d="m230 512v-6h12v8 2h-8z"/>
		<path id="Path 451" class="s55" d="m280 512l8-6 5 1 5 8-8 6-10 2v-6z"/>
		<path id="Path 452" class="s54" d="m481 514l-5-2v-6l6 1z"/>
		<path id="Path 453" class="s26" d="m518 508l4-2 6 1 6 6-1 15-13-4-2-10z"/>
		<path id="Path 454" class="s5" d="m709 509v-3h11l8 2 2 18-14-8z"/>
		<path id="Path 455" class="s70" d="m319 510l6-3 3 6-3 5h-5z"/>
		<path id="Path 456" class="s12" d="m481 514l1-7h2l5 3 3 6 2 12h-6z"/>
		<path id="Path 457" class="s30" d="m786 517l-3-10h6l1 10z"/>
		<path id="Path 458" class="s7" d="m874 511v-4l13 1-5 4h-6z"/>
		<path id="Path 459" class="s20" d="m887 508l5-1h7l1 3 1 5-11 2-8-1v-4z"/>
		<path id="Path 460" class="s24" d="m140 517l2-9h10v12z"/>
		<path id="Path 461" class="s52" d="m632 511l6-3 10 1v1l-4 14-8-10h-4z"/>
		<path id="Path 462" class="s55" d="m662 510v-2h3l9 2-3 4h-7z"/>
		<path id="Path 463" class="s26" d="m730 526l-2-18h8l6 6h4l2 23-8 1-8-6z"/>
		<path id="Path 464" class="s10" d="m920 509l2-1v7l2 2 1 2v2l-5-8z"/>
		<path id="Path 465" class="s5" d="m418 538l-4-24 6-5 12 1v13l-4 2v4l14 7h2v4l-2 9h-10l-8-11z"/>
		<path id="Path 466" class="s69" d="m626 516l-2-2 2-5 6 2v3z"/>
		<path id="Path 467" class="s52" d="m686 510l2-1 2 1-1 4z"/>
		<path id="Path 468" class="s30" d="m703 510l6-1 7 9 14 8 2 6 8 6v10l-2 2h-12v-11l-4-6-18-3z"/>
		<path id="Path 469" class="s16" d="m196 519l2-9h6l8 6v10h-10v-5z"/>
		<path id="Path 470" class="s24" d="m274 519l-4-2v-7h2l4 2v5z"/>
		<path id="Path 471" class="s26" d="m432 523v-13h4l7 1 3 7v8 6h-4l-6-9z"/>
		<path id="Path 472" class="s55" d="m492 516l-3-6h7v4z"/>
		<path id="Path 473" class="s30" d="m579 519l5-3v-6l14 4 1 8 7 7v7l4 2v7l-3 2h-5l-12-1-6-5z"/>
		<path id="Path 474" class="s47" d="m644 524l4-14h14l2 4h7l1 12 9 18v6l-9 2-12-4-2-4h-4l-4-10-5-1z"/>
		<path id="Path 475" class="s26" d="m671 514l3-4h4 8l3 4 1-4h13l1 20 4 21-2 3-12-2-2-8h-11l-9-18z"/>
		<path id="Path 476" class="s31" d="m854 516v-6h10l4 1v3l-5 1z"/>
		<path id="Path 477" class="s12" d="m901 515l-1-5h4l2 5z"/>
		<path id="Path 478" class="s40" d="m837 516v-5h3v5z"/>
		<path id="Path 479" class="s20" d="m868 514v-3h6l2 1v4l-2 1h-2z"/>
		<path id="Path 480" class="s71" d="m126 520v-8h7l5 5v4h-6z"/>
		<path id="Path 481" class="s53" d="m221 517h6l3-5 4 4h8l1 5h7l1 6-5 7h-11l-1 8-6 2-4 1v3h-5v-6l-7-7v-9h4z"/>
		<path id="Path 482" class="s20" d="m814 520v-8h5l4 4v7l3 3v15l-12-1v-6-6l2-2z"/>
		<path id="Path 483" class="s67" d="m876 516v-4h6v4z"/>
		<path id="Path 484" class="s1" d="m111 522l-3-9 4 5z"/>
		<path id="Path 485" class="s72" d="m325 518l3-5 8 1 2 4-2 8h-6l-1-4h-4z"/>
		<path id="Path 486" class="s54" d="m917 518l3-5 5 8v3h-1z"/>
		<path id="Path 487" class="s24" d="m242 516v-2h6l2 7h-7z"/>
		<path id="Path 488" class="s32" d="m454 518v-4h4l6 6 2 12-4 1-6-1v-6z"/>
		<path id="Path 489" class="s47" d="m492 516l4-2 6 2v10l4 3h11l3-5 13 4 1 7-2 5-7 2-1 12h-3l-11-2-3 4h-3l-2-4 1-6-3-2v-10l-6-6z"/>
		<path id="Path 490" class="s30" d="m626 516l6-2h4l8 10 1 9 3 11-8 2-8-2 2-7-4-6-6-1-2-9z"/>
		<path id="Path 491" class="s24" d="m863 515l5-1 4 3-9 1z"/>
		<path id="Path 492" class="s55" d="m255 526v-11l4 1 1 6 4 12 2 12-2 4h-5l-1-10z"/>
		<path id="Path 493" class="s19" d="m854 516l9-1v3l-1 9-8 1-15-1-3-2 1-9h3z"/>
		<path id="Path 494" class="s24" d="m890 517l11-2h5 7l1 3-2 8h-6l-10 2h-6v-6z"/>
		<path id="Path 495" class="s23" d="m212 526v-10h6l3 1-5 9z"/>
		<path id="Path 496" class="s37" d="m874 517l2-1h6l8 1v5h-4-6z"/>
		<path id="Path 497" class="s53" d="m138 521v-4h2l12 3 12 2 2 1-2 9-7 3-8 1-6-12z"/>
		<path id="Path 498" class="s20" d="m274 519l2-2h4v6 4h-1l-5-3z"/>
		<path id="Path 499" class="s19" d="m792 530l-6-13h4l14 3v8l-5 2z"/>
		<path id="Path 500" class="s18" d="m863 518l9-1h2l6 5v5l-6 1h-10l-2-1z"/>
		<path id="Path 501" class="s27" d="m925 519l-1-2 2 2z"/>
		<path id="Path 502" class="s73" d="m111 522l1-4 2 4-4 2z"/>
		<path id="Path 503" class="s16" d="m164 522v-4h4l1 4-3 1z"/>
		<path id="Path 504" class="s33" d="m316 530l4-12h5v4l-1 6z"/>
		<path id="Path 505" class="s74" d="m336 526l2-8h10l4 2v3l-3 1 1 7v1h-8z"/>
		<path id="Path 506" class="s7" d="m446 526v-8h8l2 8z"/>
		<path id="Path 507" class="s32" d="m912 526l2-8h3l7 6v6 1l-4 4z"/>
		<path id="Path 508" class="s23" d="m194 524l2-5 6 2v5l-2 1z"/>
		<path id="Path 509" class="s9" d="m925 521v-2h1l1 4v2h-1l-1-1z"/>
		<path id="Path 510" class="s44" d="m86 522l10-2 4 2v2l-11-2-3 3z"/>
		<path id="Path 511" class="s53" d="m120 522l6-2 6 1-2 7h-6-4z"/>
		<path id="Path 512" class="s36" d="m352 523v-3h4l-2 4z"/>
		<path id="Path 513" class="s45" d="m804 528v-8h6v8z"/>
		<path id="Path 514" class="s7" d="m810 528v-8h4l2 6-2 2z"/>
		<path id="Path 515" class="s60" d="m124 528h6l2-7h6l5 3 6 12-4 6h-7l-6-4h-8z"/>
		<path id="Path 516" class="s4" d="m84 534v-12h2v3 1 9z"/>
		<path id="Path 517" class="s34" d="m86 525l3-3 11 2 2 10-1 2h-4l-6 6-4-5-1-11z"/>
		<path id="Path 518" class="s8" d="m100 524v-2h11l-1 2z"/>
		<path id="Path 519" class="s23" d="m110 524l4-2h6v6l-18 6-2-10z"/>
		<path id="Path 520" class="s24" d="m166 523l3-1 14 2-1 11-12 9h-6v-12z"/>
		<path id="Path 521" class="s39" d="m264 534l-4-12 14 2 5 3-3 5-8 1z"/>
		<path id="Path 522" class="s58" d="m324 528l1-6h4l1 4-1 4h-2z"/>
		<path id="Path 523" class="s19" d="m880 527v-5h6v5z"/>
		<path id="Path 524" class="s7" d="m886 527v-5h4v6h-4z"/>
		<path id="Path 525" class="s19" d="m350 531l-1-7 3-1 2 1v6z"/>
		<path id="Path 526" class="s20" d="m442 536l-14-7v-4l4-2h4l6 9z"/>
		<path id="Path 527" class="s53" d="m182 535l1-11h11l6 3v11h-2z"/>
		<path id="Path 528" class="s65" d="m924 530v-6h1l1 1v4z"/>
		<path id="Path 529" class="s67" d="m826 526l10-1 3 2-3 15-6 2-4-3z"/>
		<path id="Path 530" class="s3" d="m926 529v-4h1v4z"/>
		<path id="Path 531" class="s36" d="m86 535v-9l1 11 4 5 2 4h-1l-4-3-2-3z"/>
		<path id="Path 532" class="s75" d="m200 527l2-1h10v9l-6 4-6-1z"/>
		<path id="Path 533" class="s6" d="m251 527l4-1 3 14h-12v-6z"/>
		<path id="Path 534" class="s76" d="m329 530l1-4h6l6 6h8l2 6-4 4-4-2-2-3-9-1z"/>
		<path id="Path 535" class="s13" d="m446 532v-6h10v6l6 1v11l-1 2h-6l-2-6h-9v-4l3-1z"/>
		<path id="Path 536" class="s20" d="m896 528l10-2 4 14h-4-10v-5z"/>
		<path id="Path 537" class="s12" d="m910 540l-4-14h6l8 9 4-4v4l-4 6z"/>
		<path id="Path 538" class="s54" d="m268 533l8-1 3-5h1l8 6-1 15 3 5-5 1-6-5-1-5h-6z"/>
		<path id="Path 539" class="s14" d="m836 542l3-15 15 1v16l4 9 12 7v8l-14 2h-4v-3l-6-3-2-8v-4l-7-4z"/>
		<path id="Path 540" class="s67" d="m854 528l8-1 2 1v5l-2 5 6 4v11l4 7h-2l-12-7-4-9z"/>
		<path id="Path 541" class="s67" d="m874 528l6-1h6v1 6l-12 2v-2z"/>
		<path id="Path 542" class="s75" d="m102 534l18-6h4v10l-2 8h-11l-6 4-4-14z"/>
		<path id="Path 543" class="s70" d="m316 530l8-2 3 2-1 7-4 3-7-2-2-4z"/>
		<path id="Path 544" class="s48" d="m490 545l-2-17h6l6 6v10l-4 2z"/>
		<path id="Path 545" class="s39" d="m799 530l5-2h6 4v6l-10 1v13 6l-3 2h-3l-8-4-2-14 4-4h6z"/>
		<path id="Path 546" class="s5" d="m864 533v-5h10v6z"/>
		<path id="Path 547" class="s26" d="m886 534v-6h4 6v7z"/>
		<path id="Path 548" class="s22" d="m924 530l2-1v1 4l-1 1h-1v-4z"/>
		<path id="Path 549" class="s27" d="m926 529h1v1h-1z"/>
		<path id="Path 550" class="s49" d="m300 532l8-2 3 4-1 3-6 2-1 7h-4z"/>
		<path id="Path 551" class="s43" d="m326 537l1-7h2l4 6v2h-3z"/>
		<path id="Path 552" class="s17" d="m350 531l4-1 6 8h4l2 8 2 10v4h-5l-1-11-10-11-2-6z"/>
		<path id="Path 553" class="s53" d="m377 533l5-3h12l2 18-8 2-12 4-1-5-5-3v-8h6z"/>
		<path id="Path 554" class="s7" d="m396 548l-2-18h4l8 7v9l-2 2z"/>
		<path id="Path 555" class="s47" d="m708 551l-4-21 18 3 4 6v11l-3 3z"/>
		<path id="Path 556" class="s20" d="m792 534v-4h7l-1 4z"/>
		<path id="Path 557" class="s60" d="m157 535l7-3v12h-6z"/>
		<path id="Path 558" class="s77" d="m288 533l12-1-1 14-4 7h-5l-3-5z"/>
		<path id="Path 559" class="s23" d="m370 538l2-6 5 1-1 5z"/>
		<path id="Path 560" class="s40" d="m442 536v-4h4l1 3-3 1z"/>
		<path id="Path 561" class="s5" d="m462 533l4-1 13 3v8l5 5v3h-4l-8-7h-10z"/>
		<path id="Path 562" class="s72" d="m264 534l4-1 4 11v2h-6z"/>
		<path id="Path 563" class="s54" d="m648 544l-3-11 5 1 4 10z"/>
		<path id="Path 564" class="s18" d="m868 542l-6-4 2-5 10 1v2 6z"/>
		<path id="Path 565" class="s2" d="m84 540v-6l2 1v5z"/>
		<path id="Path 566" class="s68" d="m234 542l1-8h11v6l-10 3z"/>
		<path id="Path 567" class="s78" d="m310 537l1-3h2l2 4-4 1z"/>
		<path id="Path 568" class="s7" d="m804 548v-13l10-1v6 8z"/>
		<path id="Path 569" class="s40" d="m874 536l12-2 10 1v5l-5 2 2 5-3 2v11h-3l-3-11-8-3-2-4z"/>
		<path id="Path 570" class="s27" d="m925 535l1-1-1 2z"/>
		<path id="Path 571" class="s79" d="m149 536l8-1 1 9h-8l-2 8-10-2v-8h7z"/>
		<path id="Path 572" class="s60" d="m170 544l12-9 16 3v10l-6 4h-19v-6z"/>
		<path id="Path 573" class="s74" d="m206 539l6-4 7 7v6l-3 8h-10v-1-5z"/>
		<path id="Path 574" class="s48" d="m532 540l2-5 6 2-2 6z"/>
		<path id="Path 575" class="s10" d="m920 541l4-6h1v1l-3 8h-2z"/>
		<path id="Path 576" class="s71" d="m91 542l6-6h4l4 14-4 3-4-3-4-4z"/>
		<path id="Path 577" class="s5" d="m333 538v-2l9 1 2 3-3 6-7-4z"/>
		<path id="Path 578" class="s65" d="m303 546l1-7 6-2 1 2-6 7z"/>
		<path id="Path 579" class="s26" d="m322 540l4-3 4 1v11l-4 1-5-4z"/>
		<path id="Path 580" class="s54" d="m740 538l8-1 1 9-9 2z"/>
		<path id="Path 581" class="s80" d="m122 546l2-8h8l6 4v8z"/>
		<path id="Path 582" class="s68" d="m198 548v-10h2l6 1v11h-4z"/>
		<path id="Path 583" class="s63" d="m311 539l4-1 7 2-1 6-6 8h-9l-1-8z"/>
		<path id="Path 584" class="s52" d="m330 549v-11h3l1 4 7 4 3-6 4 2v18h-5-5l-4-2v-8z"/>
		<path id="Path 585" class="s77" d="m348 542l4-4 10 11 1 11-1 4h-9l-5-4z"/>
		<path id="Path 586" class="s16" d="m366 546l-2-8h6v8z"/>
		<path id="Path 587" class="s17" d="m416 546l2-8h6l8 11-6 7h-6z"/>
		<path id="Path 588" class="s42" d="m250 616l14-1-16 1z"/>
		<path id="Path 589" class="s81" d="m236 543l10-3h12l1 10-1 13-9 9-8 2-2-3-12-1-6-8 3-6h6l2-8z"/>
		<path id="Path 590" class="s6" d="m442 549l2-9h9l2 6-3 4h-6z"/>
		<path id="Path 591" class="s26" d="m524 554l1-12 7-2 6 3 2 21-13-2v-7z"/>
		<path id="Path 592" class="s31" d="m814 548v-8l12 1 4 3v4l-4 3v6h-4l-5-2z"/>
		<path id="Path 593" class="s26" d="m893 547l-2-5 5-2h10v8l-4 3v5h-4z"/>
		<path id="Path 594" class="s30" d="m906 548v-8h4l10 1v3l-1 2z"/>
		<path id="Path 595" class="s60" d="m228 544l6-2 2 1-4 5z"/>
		<path id="Path 596" class="s7" d="m830 544l6-2 1 6h-1-6z"/>
		<path id="Path 597" class="s12" d="m872 560l-4-7v-11h6l2 4 8 3 3 11-3 4z"/>
		<path id="Path 598" class="s9" d="m92 548l-4-5 4 3z"/>
		<path id="Path 599" class="s40" d="m610 545l10-2 4 3 1 12-4 8h-7l-7-19z"/>
		<path id="Path 600" class="s81" d="m148 552l2-8h8v10z"/>
		<path id="Path 601" class="s75" d="m158 554v-10h6 6l3 2v6l-1 4z"/>
		<path id="Path 602" class="s80" d="m224 548v-3l4-1 4 4-2 8h-6z"/>
		<path id="Path 603" class="s70" d="m272 546v-2h6l1 5z"/>
		<path id="Path 604" class="s62" d="m461 546l1-2h10l8 7-1 3h-11l-6-3z"/>
		<path id="Path 605" class="s49" d="m496 546l4-2 3 2-1 6h-5z"/>
		<path id="Path 606" class="s39" d="m624 546l8-2 8 2 2 9 8 7v4h-10l-4-7-11-1z"/>
		<path id="Path 607" class="s40" d="m640 546l8-2h6 4l2 4-5 8v6h-5l-8-7z"/>
		<path id="Path 608" class="s5" d="m681 550v-6h11l2 8z"/>
		<path id="Path 609" class="s2" d="m919 546l1-2h2l-1 6-4 3z"/>
		<path id="Path 610" class="s77" d="m488 548l2-3 6 1 1 6-3 4h-6v-2z"/>
		<path id="Path 611" class="s13" d="m764 550l8-5 10 11v10h-3l-11-2z"/>
		<path id="Path 612" class="s25" d="m92 548v-2h1l4 4-4-1z"/>
		<path id="Path 613" class="s82" d="m105 550l6-4h11l16 4 10 2 10 2 14 2 1-4h19v6l-8 2-7 5-15 1-9-2-3-4-25-4-3 11h-2l-2-1-2-4h-4l-11-9z"/>
		<path id="Path 614" class="s83" d="m264 550l2-4h6l7 3 6 5-1 6h-7l-7-9z"/>
		<path id="Path 615" class="s84" d="m295 553l4-7h4 2l1 8-1 3-5 1-4-1z"/>
		<path id="Path 616" class="s17" d="m315 554l6-8 5 4-2 12h-4l-5-2z"/>
		<path id="Path 617" class="s71" d="m368 556l-2-10h4l5 3 1 5v2z"/>
		<path id="Path 618" class="s62" d="m404 548l2-2h10l4 10h6l6-7h10l4 1 6 16-2 4h-9l-8-4-7 2h-6v-4l-7-8h-9z"/>
		<path id="Path 619" class="s36" d="m452 550l3-4h6l1 5 6 3v6h-6z"/>
		<path id="Path 620" class="s20" d="m590 552v-6l12 1-6 6z"/>
		<path id="Path 621" class="s17" d="m740 548l9-2 3 4v4h-14v-4z"/>
		<path id="Path 622" class="s55" d="m906 548l13-2-2 7v1l-4 6-9 3-2-7v-5z"/>
		<path id="Path 623" class="s14" d="m586 574l-10-5-2-20 4-2 11 6 3 7v14z"/>
		<path id="Path 624" class="s14" d="m596 553l6-6h5l7 19h-6l-12-6z"/>
		<path id="Path 625" class="s39" d="m890 560v-11l3-2 5 9v7h-6z"/>
		<path id="Path 626" class="s85" d="m192 552l6-4 4 2v4l4 1v1 8h-12-2v-6z"/>
		<path id="Path 627" class="s85" d="m216 556l3-8h5v8l-3 6h-5z"/>
		<path id="Path 628" class="s68" d="m388 550l8-2h8v8h-12z"/>
		<path id="Path 629" class="s62" d="m484 551v-3h4v6z"/>
		<path id="Path 630" class="s39" d="m655 562v-6l5-8 12 4v15l-6 3-10-4z"/>
		<path id="Path 631" class="s40" d="m804 554v-6h10l3 7-5 1z"/>
		<path id="Path 632" class="s39" d="m826 557v-6l4-3h6v6l3 2 1 12-4 5h-2-2l-1-1-3-8z"/>
		<path id="Path 633" class="s20" d="m839 556l-3-2v-6h1l7 4v4z"/>
		<path id="Path 634" class="s22" d="m109 563l-16-14 4 1 4 3 11 9 6 4 2 1v1h-1l-8-3z"/>
		<path id="Path 635" class="s47" d="m326 550l4-1 4 1v8l4 2v4h-6l-8-2z"/>
		<path id="Path 636" class="s86" d="m206 555l-4-1v-4h4z"/>
		<path id="Path 637" class="s87" d="m258 563l1-13h5l6 1 7 9h7l1-6 5-1h5l1 4 4 1-1 5-11 8v7 8 2h-6l-3-4h-10l-1 8-2 8-3 2h-14v-3l-7-3v-4l10-12 14-7v-6z"/>
		<path id="Path 638" class="s76" d="m376 554l12-4 4 6v7h-2l-14-2v-5z"/>
		<path id="Path 639" class="s17" d="m452 566l-6-16h6l10 10v6z"/>
		<path id="Path 640" class="s31" d="m672 552l9-2 13 2v12l-3 2h-7l-7 2h-3l-2-1z"/>
		<path id="Path 641" class="s6" d="m723 553l3-3h12v4 10h-8-6z"/>
		<path id="Path 642" class="s36" d="m752 554v-4h12l4 14h-12v-7z"/>
		<path id="Path 643" class="s60" d="m479 554l1-3h4l4 3v2l-6 5z"/>
		<path id="Path 644" class="s60" d="m706 554l2-3 15 2 1 11h-17z"/>
		<path id="Path 645" class="s54" d="m494 556l3-4h5l2 4 2 4v6h-4z"/>
		<path id="Path 646" class="s51" d="m507 556l3-4 11 2v7l6 1 13 2 4 5 6-1v7l-4 2v11h-2-9l-4-4-7 2h-9v-10l-9-2v-8-6z"/>
		<path id="Path 647" class="s40" d="m589 553l1-1 6 1v7h-4z"/>
		<path id="Path 648" class="s14" d="m694 564v-12l12 2 1 10h-9z"/>
		<path id="Path 649" class="s70" d="m305 557l1-3h9v6l-2 2-6-1z"/>
		<path id="Path 650" class="s74" d="m468 560v-6h11l3 7-1 3-7 6-8 4-11 2-5-6 2-4h10 4z"/>
		<path id="Path 651" class="s30" d="m527 562l-6-1v-7h3l3 1z"/>
		<path id="Path 652" class="s68" d="m738 564v-10h14l4 3v7l-4 1h-1z"/>
		<path id="Path 653" class="s30" d="m801 556l3-2 8 2-2 8h-7z"/>
		<path id="Path 654" class="s2" d="m913 560l4-6-1 6-4 3z"/>
		<path id="Path 655" class="s67" d="m812 556l5-1 5 2v7 7l-4-1h-4l-4-2v-4z"/>
		<path id="Path 656" class="s80" d="m122 567l3-11 25 4 3 4 9 2 15-1v4l7 5-1 19h-3l-8-2-4-1h-1l-6-1-1-9-5-1-6-1h-1l-10-3-5-2h-1l-10-4z"/>
		<path id="Path 657" class="s80" d="m206 564v-8h10v6z"/>
		<path id="Path 658" class="s60" d="m368 560v-4h8v5z"/>
		<path id="Path 659" class="s41" d="m392 563v-7h12 9l7 8v4l2 6v4l-7-1-5-9h-6l-1-3z"/>
		<path id="Path 660" class="s46" d="m482 561l6-5h6l8 10h4v8l-6 3v7h-6l-4-8v-5l-9-7z"/>
		<path id="Path 661" class="s69" d="m506 560l-2-4h3z"/>
		<path id="Path 662" class="s5" d="m782 566v-10l7 3-1 7h-5z"/>
		<path id="Path 663" class="s5" d="m799 566l-1-10h3l2 8-1 2z"/>
		<path id="Path 664" class="s18" d="m840 568l-1-12h5l2 8-2 4z"/>
		<path id="Path 665" class="s12" d="m898 563v-7h4l2 7-4 3z"/>
		<path id="Path 666" class="s59" d="m300 558l5-1 2 4 6 1v2l-3 2 2 7-2 5-4 1h-7l-1-1 3-9-2-6z"/>
		<path id="Path 667" class="s14" d="m822 564v-7h4l2 7z"/>
		<path id="Path 668" class="s80" d="m184 560l8-2v6h-5z"/>
		<path id="Path 669" class="s5" d="m621 566l4-8 11 1 4 7-2 4h-8-8z"/>
		<path id="Path 670" class="s36" d="m338 560h5v4h-5z"/>
		<path id="Path 671" class="s79" d="m177 565l7-5 3 4h5 2v4l-4 1v5h-6l-7-5z"/>
		<path id="Path 672" class="s60" d="m313 562l2-2 5 2-1 3h-4l-2-1z"/>
		<path id="Path 673" class="s33" d="m343 564v-4h5l5 4h9v6h-12-7z"/>
		<path id="Path 674" class="s72" d="m362 564l1-4h5l8 1 14 2v6l-14 3h-8l-6-2z"/>
		<path id="Path 675" class="s6" d="m462 566v-6h6l-2 6z"/>
		<path id="Path 676" class="s20" d="m592 574v-14h4l12 6v8l-2 3-14 1z"/>
		<path id="Path 677" class="s39" d="m870 568v-8h2l12 4v6l-5 1z"/>
		<path id="Path 678" class="s20" d="m884 564l3-4h3l2 3v9h-4l-4-2z"/>
		<path id="Path 679" class="s77" d="m904 563l9-3-1 3-5 5-8 5-7 3h-1l2-3 4-1 3-6z"/>
		<path id="Path 680" class="s60" d="m118 566l-6-4h4z"/>
		<path id="Path 681" class="s88" d="m206 564l10-2h5l6 8 12 1 2 3 8-2 3 8-10 12h-10-7l-3 3v7h-6-5-2l-1-2v-7l7-2-1-6h-6l-4-5v-8l-10-4v-4z"/>
		<path id="Path 682" class="s50" d="m315 565h4l1-3h4l8 2v10h-12l-5-1z"/>
		<path id="Path 683" class="s14" d="m650 566v-4h5l1 4z"/>
		<path id="Path 684" class="s89" d="m249 572l9-9 8 4v6l-14 7z"/>
		<path id="Path 685" class="s90" d="m288 578v-7l11-8 2 6-3 9z"/>
		<path id="Path 686" class="s33" d="m390 569v-6h2l11 2 1 3 2 13-13-1-1-1z"/>
		<path id="Path 687" class="s26" d="m892 572v-9h6l2 3-3 6-4 1z"/>
		<path id="Path 688" class="s26" d="m312 573l-2-7 3-2 2 1v8z"/>
		<path id="Path 689" class="s72" d="m332 574v-10h6 5v6l-3 1v6l-6 1z"/>
		<path id="Path 690" class="s49" d="m474 570l7-6 9 7v5h-10-4z"/>
		<path id="Path 691" class="s28" d="m691 566l3-2h4z"/>
		<path id="Path 692" class="s61" d="m691 566l7-2h9 17 6v1l-46 2v-1z"/>
		<path id="Path 693" class="s91" d="m730 565v-1h8l13 1z"/>
		<path id="Path 694" class="s28" d="m752 565l4-1h12l11 2h-6z"/>
		<path id="Path 695" class="s31" d="m802 566l1-2h7v4h-2-4z"/>
		<path id="Path 696" class="s13" d="m822 571v-7h6l3 8-5-1z"/>
		<path id="Path 697" class="s20" d="m844 568l2-4 6 3v3h-7z"/>
		<path id="Path 698" class="s9" d="m773 567l-22-2h1l21 1z"/>
		<path id="Path 699" class="s72" d="m426 568l7-2 8 4h9l5 6v7l-7 1-20-6-2-4z"/>
		<path id="Path 700" class="s12" d="m608 574v-8h6 7l1 4v4z"/>
		<path id="Path 701" class="s86" d="m638 570l2-4h10v10l-7 2h-2l-3-2z"/>
		<path id="Path 702" class="s75" d="m650 576v-10h6l10 4v2l-4 4h-2z"/>
		<path id="Path 703" class="s25" d="m677 568l7-2v1z"/>
		<path id="Path 704" class="s38" d="m773 567v-1h6 3 1v1z"/>
		<path id="Path 705" class="s61" d="m783 567v-1h5 7v2z"/>
		<path id="Path 706" class="s44" d="m795 568v-2h4 3l2 2z"/>
		<path id="Path 707" class="s92" d="m120 568v-1h2v2z"/>
		<path id="Path 708" class="s11" d="m666 570l6-3 2 1-5 2 1 2 1 2h-1l-4-2z"/>
		<path id="Path 709" class="s27" d="m122 570l-3-2h1l2 1z"/>
		<path id="Path 710" class="s89" d="m190 574v-5l4-1 10 4v8h-10z"/>
		<path id="Path 711" class="s58" d="m406 581l-2-13h6l5 9-4 9h-3z"/>
		<path id="Path 712" class="s33" d="m422 574l-2-6h6v6z"/>
		<path id="Path 713" class="s8" d="m814 570l-6-2h2z"/>
		<path id="Path 714" class="s67" d="m836 573l4-5h4l1 2-1 4h-4z"/>
		<path id="Path 715" class="s20" d="m856 570l14-2 9 3v7h-7-7-4-3l-2-2z"/>
		<path id="Path 716" class="s64" d="m122 570v-1l10 4z"/>
		<path id="Path 717" class="s83" d="m376 572l14-3 2 10-4 2h-10l-3-3z"/>
		<path id="Path 718" class="s84" d="m340 577v-6l3-1h7v5l-3 2h-3z"/>
		<path id="Path 719" class="s93" d="m350 575v-5h12l6 2v5l-5 1z"/>
		<path id="Path 720" class="s63" d="m466 574l8-4 2 6h4v8h-8v-4l-5-2z"/>
		<path id="Path 721" class="s74" d="m622 574v-4h8v7h-8z"/>
		<path id="Path 722" class="s80" d="m630 577v-7h8v6l3 2-2 5h-3l-2-5z"/>
		<path id="Path 723" class="s91" d="m826 572l-8-2 4 1h4z"/>
		<path id="Path 724" class="s5" d="m844 574l1-4h7 4v6h-5z"/>
		<path id="Path 725" class="s26" d="m879 571l5-1 4 2v4l-8 2h-1z"/>
		<path id="Path 726" class="s4" d="m826 572v-1l5 1 1 1z"/>
		<path id="Path 727" class="s84" d="m368 577v-5h8l-1 6z"/>
		<path id="Path 728" class="s6" d="m662 576l4-4 4 2 2 8h6l4 8v6h-6-6l-6-8v-8l1-4z"/>
		<path id="Path 729" class="s9" d="m671 574l-1-2 11 3h-1z"/>
		<path id="Path 730" class="s30" d="m888 576v-4h4l1 1-2 3z"/>
		<path id="Path 731" class="s77" d="m306 579l4-1 2-5h3l5 1v4l-7 4 1 14v8l-12 1-1-1-3-6-2-8v-3l3-2h6z"/>
		<path id="Path 732" class="s4" d="m840 575l-6-2h2l4 1z"/>
		<path id="Path 733" class="s27" d="m892 576l7-3-7 4z"/>
		<path id="Path 734" class="s88" d="m183 593l1-19h6l4 6 5 11-1 5h-3z"/>
		<path id="Path 735" class="s69" d="m314 596l-1-14 7-4v-4h12l2 4-4 2 3 14-3 6h-4l-2-4z"/>
		<path id="Path 736" class="s83" d="m422 578v-4h4l2 4 20 6v10l-21-2-5-3 2-6z"/>
		<path id="Path 737" class="s73" d="m455 576l11-2 1 4 3 6-3 14-9-2v-11l-3-2z"/>
		<path id="Path 738" class="s63" d="m500 584v-7l6-3 9 2v10l-4 5h-4z"/>
		<path id="Path 739" class="s5" d="m586 580v-6h6v4z"/>
		<path id="Path 740" class="s68" d="m592 578l14-1 2-3h14v3 3h-8l-5 4-9 1-2 3-4 2-4 1h-5l-1-8 2-3z"/>
		<path id="Path 741" class="s17" d="m678 582h-6l-2-8h1l9 1v1z"/>
		<path id="Path 742" class="s42" d="m840 575v-1h4l7 2v1z"/>
		<path id="Path 743" class="s59" d="m347 577l3-2 13 3 3 16v2h-4l-12-4-4-10z"/>
		<path id="Path 744" class="s54" d="m546 588v-11l4-2 5 3 1 6-6 6z"/>
		<path id="Path 745" class="s38" d="m680 576v-1h1l8 2h-3z"/>
		<path id="Path 746" class="s66" d="m480 584v-8h10l4 8-12 1z"/>
		<path id="Path 747" class="s41" d="m643 578l7-2h10l-2 4-8 4h-6z"/>
		<path id="Path 748" class="s77" d="m658 580l2-4h2 3l-1 4z"/>
		<path id="Path 749" class="s14" d="m678 582l2-6 6 1 11 6-1 5-6 2h-8z"/>
		<path id="Path 750" class="s44" d="m686 577h3l17 5v1h-9z"/>
		<path id="Path 751" class="s8" d="m851 577v-1h5l2 2z"/>
		<path id="Path 752" class="s8" d="m880 578l8-2h3 1v1l-12 3z"/>
		<path id="Path 753" class="s66" d="m334 578l6-1h4l2 5 4 10v9l-6 1-5-8h-6l-3-14z"/>
		<path id="Path 754" class="s94" d="m346 582l-2-5h3z"/>
		<path id="Path 755" class="s94" d="m363 578l5-1 7 1 3 3 4 17h-7l-3-4h-6z"/>
		<path id="Path 756" class="s90" d="m406 581l2 5h3l4-9 7 1 2 5-2 6-8 9h-8l-14-2-2-11 3-5z"/>
		<path id="Path 757" class="s50" d="m622 580v-3h8l4 1 2 5h-9z"/>
		<path id="Path 758" class="s0" d="m155 580l-6-2 6 1z"/>
		<path id="Path 759" class="s78" d="m288 586v-8h10l1 1v6l-3 2z"/>
		<path id="Path 760" class="s81" d="m299 579h7l-1 6h-6z"/>
		<path id="Path 761" class="s49" d="m470 584l-3-6 5 2v4z"/>
		<path id="Path 762" class="s36" d="m639 583l2-5h2l1 6h-3z"/>
		<path id="Path 763" class="s3" d="m865 580l-4-2h4z"/>
		<path id="Path 764" class="s4" d="m865 580v-2h7v2z"/>
		<path id="Path 765" class="s44" d="m872 580v-2h7 1v2z"/>
		<path id="Path 766" class="s11" d="m155 580v-1l5 1 1 9 6 1h-4-5v-8z"/>
		<path id="Path 767" class="s78" d="m388 581l4-2 1 1-3 5z"/>
		<path id="Path 768" class="s93" d="m198 596l1-5-5-11h10l4 5v8 7l-9-2z"/>
		<path id="Path 769" class="s54" d="m609 584l5-4h8l5 3 1 4 2 7v4h-8l-2-4h-8l-2-6z"/>
		<path id="Path 770" class="s13" d="m650 584l8-4h6v8l-11 2z"/>
		<path id="Path 771" class="s28" d="m382 598l-4-17h10l2 4 2 11v4h-8z"/>
		<path id="Path 772" class="s25" d="m706 583v-1l6 1-1 10h-1l1-5z"/>
		<path id="Path 773" class="s90" d="m448 584l7-1 3 2v11l-7 2-3-4z"/>
		<path id="Path 774" class="s74" d="m572 587l12-4 1 8-6 4h-5z"/>
		<path id="Path 775" class="s49" d="m628 587l-1-4h9 3l2 1v3h-7z"/>
		<path id="Path 776" class="s19" d="m696 588l1-5h9l5 5-1 5-5 3-9 2v-4z"/>
		<path id="Path 777" class="s95" d="m268 592l1-8h10l3 4v6h-2z"/>
		<path id="Path 778" class="s65" d="m467 598l3-14h2 8l2 1 2 17h-10z"/>
		<path id="Path 779" class="s59" d="m482 585l12-1h6l7 7-3 15h-17l-3-4z"/>
		<path id="Path 780" class="s33" d="m524 586l7-2 4 4h9l2 10v13h4l-1 2h-2l-6 2-6 2h-1l-1-6 1-11-6-2z"/>
		<path id="Path 781" class="s62" d="m550 590l6-6h11l5 3 2 8v5h-6l-18-2z"/>
		<path id="Path 782" class="s46" d="m598 588l2-3 9-1 1 4-10 1z"/>
		<path id="Path 783" class="s46" d="m641 587v-3h3 6l3 6h-1z"/>
		<path id="Path 784" class="s87" d="m208 593v-8h6l1 6z"/>
		<path id="Path 785" class="s76" d="m288 588v-2l8 1v3l-6 4h-2z"/>
		<path id="Path 786" class="s59" d="m511 591l4-5h9l4 12-2 2h-8z"/>
		<path id="Path 787" class="s76" d="m630 594l-2-7h6v7z"/>
		<path id="Path 788" class="s36" d="m634 594v-7h7l11 3v4h-6-6z"/>
		<path id="Path 789" class="s84" d="m282 594v-6h6v6z"/>
		<path id="Path 790" class="s48" d="m546 598l-2-10h2l4 2v8z"/>
		<path id="Path 791" class="s58" d="m594 590l4-2 2 1 3 9-1 6-2 6-8-1v-13z"/>
		<path id="Path 792" class="s13" d="m600 589l10-1 2 6-2 4h-7z"/>
		<path id="Path 793" class="s39" d="m653 590l11-2 6 8v6l-4 6h-2-1l-9-4-1-5 3-5h-4v-4z"/>
		<path id="Path 794" class="s45" d="m690 590l6-2v6h-4z"/>
		<path id="Path 795" class="s96" d="m406 598h8l8-9 5 3 21 2 3 4-1 13-7 3h-15l-24-4v-8z"/>
		<path id="Path 796" class="s0" d="m168 592l-5-2h4 1z"/>
		<path id="Path 797" class="s21" d="m168 592v-2l4 1v1z"/>
		<path id="Path 798" class="s58" d="m290 594l6-4 2 8h-8z"/>
		<path id="Path 799" class="s51" d="m590 591l4-1-2 6h-2z"/>
		<path id="Path 800" class="s7" d="m682 596v-6h8l2 4h4v4l-5 3h-2l-3 1-6-1z"/>
		<path id="Path 801" class="s42" d="m172 592v-1l8 2z"/>
		<path id="Path 802" class="s90" d="m504 606l3-15h4l7 9h8v10l-8 10-1 1-13 1z"/>
		<path id="Path 803" class="s77" d="m579 595l6-4h5v5l-7 2h-4z"/>
		<path id="Path 804" class="s89" d="m222 602v-7l3-3h7v11h-1-6l-2-1z"/>
		<path id="Path 805" class="s93" d="m232 603v-11h10v4l7 3v3l-6 3-6-1z"/>
		<path id="Path 806" class="s93" d="m266 600l2-8 12 2v6h-8z"/>
		<path id="Path 807" class="s94" d="m350 601v-9l12 4v6l-6 2h-5z"/>
		<path id="Path 808" class="s42" d="m195 598l-12-5 12 3z"/>
		<path id="Path 809" class="s38" d="m705 596l5-3h1l-6 5z"/>
		<path id="Path 810" class="s81" d="m280 600v-6h2 6 2v4 4h-8z"/>
		<path id="Path 811" class="s70" d="m330 600l3-6h6l5 8v3l-10 1z"/>
		<path id="Path 812" class="s96" d="m366 596v-2h6l3 4-2 6-7-2z"/>
		<path id="Path 813" class="s70" d="m610 598l2-4h8l2 4-4 2h-8z"/>
		<path id="Path 814" class="s58" d="m630 598v-4h4v4z"/>
		<path id="Path 815" class="s77" d="m634 598v-4h6v4z"/>
		<path id="Path 816" class="s51" d="m640 598v-4h6v5h-6z"/>
		<path id="Path 817" class="s77" d="m646 599v-5h6 4l-3 5z"/>
		<path id="Path 818" class="s76" d="m574 600v-5h5v3h4l-1 10-7-1z"/>
		<path id="Path 819" class="s25" d="m195 598v-2h3l1 2z"/>
		<path id="Path 820" class="s70" d="m314 604v-8h10l2 4-2 3-5 3z"/>
		<path id="Path 821" class="s28" d="m362 602v-6h4v6z"/>
		<path id="Path 822" class="s94" d="m392 600v-4l14 2-2 4z"/>
		<path id="Path 823" class="s78" d="m451 598l7-2 9 2 7 4h10l3 4-3 12h-4-16-10l-4-7z"/>
		<path id="Path 824" class="s62" d="m583 598l7-2h2v13l-10-1z"/>
		<path id="Path 825" class="s45" d="m670 602v-6h6v5z"/>
		<path id="Path 826" class="s24" d="m676 601v-5h6l-2 5z"/>
		<path id="Path 827" class="s25" d="m696 598l9-2v2l-10 3h-4z"/>
		<path id="Path 828" class="s0" d="m209 602h-6l-4-4 9 2z"/>
		<path id="Path 829" class="s33" d="m290 602v-4h8l3 6z"/>
		<path id="Path 830" class="s87" d="m373 604l2-6h7l2 2 2 7 10 3v6h-12l-7-3z"/>
		<path id="Path 831" class="s78" d="m526 600l2-2 6 2-1 11-7-1z"/>
		<path id="Path 832" class="s76" d="m550 611h-4v-13h4l18 2v8h-5l-9 2z"/>
		<path id="Path 833" class="s50" d="m602 604l1-6h7v2 4z"/>
		<path id="Path 834" class="s76" d="m618 600l4-2h8v6h-8-4z"/>
		<path id="Path 835" class="s60" d="m630 604v-6h4 6v1 5h-4z"/>
		<path id="Path 836" class="s7" d="m640 604v-5h6 7l1 5h-8z"/>
		<path id="Path 837" class="s88" d="m263 602l3-2h6v6l-1 1-2 1z"/>
		<path id="Path 838" class="s80" d="m272 606v-6h8l2 2v4l-5 3z"/>
		<path id="Path 839" class="s46" d="m324 603l2-3h4l4 6v2h-7z"/>
		<path id="Path 840" class="s97" d="m396 610l-10-3-2-7h8l12 2v8z"/>
		<path id="Path 841" class="s81" d="m568 608v-8h6l1 7v1h-3z"/>
		<path id="Path 842" class="s33" d="m610 604v-4h8v4l-6 1z"/>
		<path id="Path 843" class="s2" d="m211 602h5v1z"/>
		<path id="Path 844" class="s90" d="m344 602l6-1 1 3-7 1z"/>
		<path id="Path 845" class="s46" d="m670 602l6-1h4l6 1v1l-16 5h-4z"/>
		<path id="Path 846" class="s1" d="m686 602l3-1h2 4l-9 2z"/>
		<path id="Path 847" class="s1" d="m216 603v-1h6 1v1z"/>
		<path id="Path 848" class="s64" d="m223 603v-1l2 1z"/>
		<path id="Path 849" class="s33" d="m243 605l6-3h14l6 6-2 4v1l-3 2-14 1-5-5v-2l-2-2z"/>
		<path id="Path 850" class="s88" d="m277 609l5-3v-4h8l11 2 1 1v9 4l-4 1-4-1-13-5-4-3z"/>
		<path id="Path 851" class="s95" d="m356 604l6-2h4l7 2 4 9 7 3 2 5v3l-4 1v4h-8l-7-1h-1l-2-4z"/>
		<path id="Path 852" class="s9" d="m237 605l-6-2h1l5 1z"/>
		<path id="Path 853" class="s93" d="m314 604l5 2 5-3 3 5h7l5 8 15 2 8 6v4h-6-2l-7-2h-6l-17-3h-2l-10-2-2-2-2-5h-6v-9z"/>
		<path id="Path 854" class="s9" d="m670 608l16-5-6 4z"/>
		<path id="Path 855" class="s1" d="m237 605v-1l6 1z"/>
		<path id="Path 856" class="s87" d="m344 605l7-1h5l8 20h-2l-8-6-15-2-5-8v-2z"/>
		<path id="Path 857" class="s59" d="m600 610l2-6h8l2 1v7h-5l-7-1z"/>
		<path id="Path 858" class="s63" d="m612 605l6-1h4v8h-10z"/>
		<path id="Path 859" class="s70" d="m622 612v-8h8 6v6 1z"/>
		<path id="Path 860" class="s46" d="m636 610v-6h4 6v6z"/>
		<path id="Path 861" class="s70" d="m646 610v-6h8l9 4-16 2z"/>
		<path id="Path 862" class="s1" d="m271 607l1-1 5 3v1h-1l-4-3z"/>
		<path id="Path 863" class="s83" d="m484 618l3-12h17v16l-6 1h-2l-8 1 5-2 1-4z"/>
		<path id="Path 864" class="s10" d="m243 609v-2l2 2z"/>
		<path id="Path 865" class="s9" d="m269 608l2-1h1l-5 5z"/>
		<path id="Path 866" class="s22" d="m575 608v-1l7 1 10 1 8 1v1l-1 1z"/>
		<path id="Path 867" class="s3" d="m572 608v2l-9-2h5z"/>
		<path id="Path 868" class="s22" d="m647 610l16-2h1l-17 4z"/>
		<path id="Path 869" class="s1" d="m245 613l-2-4h2v2z"/>
		<path id="Path 870" class="s9" d="m281 613l-5-3h1z"/>
		<path id="Path 871" class="s95" d="m396 616v-6h8l24 4v7l-6 1 3 5-19-1-3-4-1-5z"/>
		<path id="Path 872" class="s72" d="m518 620l8-10 7 1 1 6z"/>
		<path id="Path 873" class="s9" d="m550 611l4-1-5 3z"/>
		<path id="Path 874" class="s21" d="m636 611v-1h10 1v2h-11z"/>
		<path id="Path 875" class="s10" d="m245 613v-2l5 5h-2z"/>
		<path id="Path 876" class="s83" d="m443 614l7-3 4 7h-11z"/>
		<path id="Path 877" class="s9" d="m599 612l1-1 7 1v1z"/>
		<path id="Path 878" class="s29" d="m622 612l14-1v1l-29 1v-1h5z"/>
		<path id="Path 879" class="s9" d="m294 618l-11-1-2-4z"/>
		<path id="Path 880" class="s9" d="m541 615l6-2-5 2z"/>
		<path id="Path 881" class="s81" d="m302 618v-4h6l2 5z"/>
		<path id="Path 882" class="s87" d="m428 621v-7h15v4 4h-3z"/>
		<path id="Path 883" class="s27" d="m535 617l6-2h1l-7 3z"/>
		<path id="Path 884" class="s97" d="m386 621l-2-5h12l6 1 1 5z"/>
		<path id="Path 885" class="s75" d="m484 618h10l-1 4-5 2v1h-2l-5-1-1-6z"/>
		<path id="Path 886" class="s4" d="m518 620l16-3h1v1l-18 4v-1z"/>
		<path id="Path 887" class="s4" d="m298 619l4-1 8 1 2 2v1z"/>
		<path id="Path 888" class="s74" d="m443 622v-4h11 10v6h-8z"/>
		<path id="Path 889" class="s68" d="m464 624v-6h16l1 6-1 2h-2z"/>
		<path id="Path 890" class="s1" d="m312 622v-1l10 2z"/>
		<path id="Path 891" class="s87" d="m386 624v-3l17 1 3 4-1 4h-6-9l-4-1z"/>
		<path id="Path 892" class="s28" d="m425 627l-3-5 6-1 12 1v6h-5z"/>
		<path id="Path 893" class="s1" d="m504 622l13-1v1l-19 1z"/>
		<path id="Path 894" class="s66" d="m440 628v-6h3l13 2v8h-3-4l-1-3z"/>
		<path id="Path 895" class="s9" d="m341 627l-17-4 17 3z"/>
		<path id="Path 896" class="s9" d="m488 624l8-1-8 2z"/>
		<path id="Path 897" class="s84" d="m362 628v-4h2l2 4z"/>
		<path id="Path 898" class="s84" d="m382 629v-4l4-1v5z"/>
		<path id="Path 899" class="s69" d="m456 632v-8h8l14 2-1 2h-3l-2 2-1 3h-4l-1 1h-7l-1-1z"/>
		<path id="Path 900" class="s3" d="m466 633h1v1h-1z"/>
		<path id="Path 901" class="s3" d="m458 633h1v1h-1z"/>
		<path id="Path 902" class="s11" d="m480 626l1-2 5 1-1 1z"/>
		<path id="Path 903" class="s42" d="m341 627v-1h6v2z"/>
		<path id="Path 904" class="s11" d="m347 628v-2l7 2z"/>
		<path id="Path 905" class="s81" d="m405 630l1-4 19 1v4h-9l-3-1h-7z"/>
		<path id="Path 906" class="s27" d="m477 628l1-2h2 5z"/>
		<path id="Path 907" class="s80" d="m425 631v-4l10 1-4 3h-2z"/>
		<path id="Path 908" class="s8" d="m367 630l-11-2h6 4 1z"/>
		<path id="Path 909" class="s25" d="m367 630v-2l7 1v1z"/>
		<path id="Path 910" class="s33" d="m431 631l4-3h5l8 1 1 3h-9z"/>
		<path id="Path 911" class="s44" d="m374 630v-1h8 4l4 1h-1z"/>
		<path id="Path 912" class="s29" d="m400 632l-11-2h1 9z"/>
		<path id="Path 913" class="s22" d="m400 632l-1-2h6 1v2z"/>
		<path id="Path 914" class="s4" d="m406 632v-2h7v2z"/>
		<path id="Path 915" class="s21" d="m413 632v-2l3 1v1z"/>
		<path id="Path 916" class="s91" d="m416 632v-1h9 4v1z"/>
		<path id="Path 917" class="s29" d="m429 632v-1h2l9 1v1z"/>
		<path id="Path 918" class="s1" d="m440 633v-1h9 4v1z"/>
		<path id="Path 919" class="s64" d="m453 633v-1h3l2 1z"/>
		<path id="Path 920" class="s27" d="m458 635v-1h1 7 1v1z"/>
	</g>
</svg>