<svg version="1.2" xmlns="http://www.w3.org/2000/svg" viewBox="0 0 1000 1000" width="1000" height="1000">
	<title>Aplodinotus_grunniens</title>
	<style>
		.s0 { opacity: .1;fill: #dfdee3 } 
		.s1 { opacity: .8;fill: #eeecec } 
		.s2 { opacity: .7;fill: #e1e0e3 } 
		.s3 { fill: #76707c } 
		.s4 { opacity: 1;fill: #d0ccd3 } 
		.s5 { fill: #6c7080 } 
		.s6 { opacity: .2;fill: #918f95 } 
		.s7 { opacity: .2;fill: #d0cfd4 } 
		.s8 { fill: #2e3337 } 
		.s9 { fill: #4b5564 } 
		.s10 { fill: #a1989e } 
		.s11 { opacity: .3;fill: #e4e3e5 } 
		.s12 { opacity: .4;fill: #b9b5bd } 
		.s13 { fill: #5e6476 } 
		.s14 { fill: #818195 } 
		.s15 { fill: #1c2122 } 
		.s16 { opacity: .2;fill: #c3bfc7 } 
		.s17 { opacity: .9;fill: #95939a } 
		.s18 { opacity: .2;fill: #f2f0f0 } 
		.s19 { opacity: .7;fill: #929196 } 
		.s20 { fill: #191b1e } 
		.s21 { fill: #444c57 } 
		.s22 { opacity: .9;fill: #b9b6bc } 
		.s23 { fill: #222424 } 
		.s24 { fill: #847e87 } 
		.s25 { opacity: .6;fill: #5f5f62 } 
		.s26 { opacity: .5;fill: #d2d0d6 } 
		.s27 { opacity: .5;fill: #f4f2f2 } 
		.s28 { fill: #565559 } 
		.s29 { opacity: .9;fill: #5f6063 } 
		.s30 { fill: #77778b } 
		.s31 { fill: #2b2d2c } 
		.s32 { opacity: .6;fill: #a2a0a7 } 
		.s33 { opacity: .1;fill: #afacb3 } 
		.s34 { fill: #26282a } 
		.s35 { fill: #404342 } 
		.s36 { fill: #353330 } 
		.s37 { opacity: .8;fill: #7c7c84 } 
		.s38 { fill: #4a4b48 } 
		.s39 { opacity: .9;fill: #747170 } 
		.s40 { opacity: .3;fill: #a6a3a9 } 
		.s41 { opacity: .5;fill: #726f6c } 
		.s42 { opacity: .7;fill: #adaab1 } 
		.s43 { fill: #636266 } 
		.s44 { fill: #5d5751 } 
		.s45 { fill: #74675c } 
		.s46 { fill: #3d3e3c } 
		.s47 { fill: #6b5747 } 
		.s48 { fill: #584c41 } 
		.s49 { opacity: .7;fill: #c0bec5 } 
		.s50 { fill: #7a7270 } 
		.s51 { fill: #927f75 } 
		.s52 { fill: #867161 } 
		.s53 { fill: #b59a87 } 
		.s54 { fill: #9f8c81 } 
		.s55 { fill: #a08673 } 
		.s56 { fill: #374452 } 
		.s57 { fill: #c1a590 } 
		.s58 { fill: #967b67 } 
		.s59 { fill: #c5ac9b } 
		.s60 { fill: #aa8e77 } 
		.s61 { fill: #333a44 } 
		.s62 { fill: #928d95 } 
		.s63 { fill: #121618 } 
		.s64 { fill: #ceb4a0 } 
		.s65 { fill: #efd9c9 } 
		.s66 { fill: #b8a196 } 
		.s67 { fill: #ddc3b1 } 
		.s68 { opacity: .3;fill: #7b7982 } 
		.s69 { fill: #ab968c } 
		.s70 { fill: #d5bcac } 
		.s71 { fill: #e4d0c3 } 
		.s72 { fill: #425878 } 
		.s73 { fill: #7a6250 } 
		.s74 { fill: #aba3ab } 
		.s75 { fill: #4d6489 } 
		.s76 { fill: #514439 } 
		.s77 { fill: #9498b2 } 
		.s78 { fill: #463933 } 
		.s79 { fill: #e2cab9 } 
		.s80 { fill: #6179a5 } 
		.s81 { fill: #cab5aa } 
		.s82 { fill: #7183ab } 
		.s83 { fill: #c0b7bd } 
		.s84 { fill: #ede0dc } 
		.s85 { fill: #bca9a4 } 
		.s86 { fill: #5b6f95 } 
		.s87 { fill: #8195bb } 
		.s88 { fill: #98a7c8 } 
		.s89 { opacity: 1;fill: #d8cfd5 } 
		.s90 { fill: #8a8da6 } 
		.s91 { fill: #b5aeb8 } 
		.s92 { fill: #a0a2b6 } 
		.s93 { opacity: .1;fill: #706f73 } 
		.s94 { fill: #d4c3c0 } 
		.s95 { fill: #c6bfc8 } 
		.s96 { opacity: .5;fill: #7f7d84 } 
		.s97 { opacity: .3;fill: #4b4b4d } 
	</style>
	<g id="Background">
		<path id="Path 0" class="s0" d="m541 355l5-3h1v2l-4 1z"/>
		<path id="Path 1" class="s1" d="m547 354v-2h4v2z"/>
		<path id="Path 2" class="s2" d="m551 354v-2h1l4 3h1v1l-2 1z"/>
		<path id="Path 3" class="s0" d="m556 355l8-2v2h-7z"/>
		<path id="Path 4" class="s3" d="m543 355l4-1h4l4 3v2l-12-3z"/>
		<path id="Path 5" class="s4" d="m557 355h7v1h-7z"/>
		<path id="Path 6" class="s5" d="m536 357l5-2h2v1l-9 4h-3z"/>
		<path id="Path 7" class="s6" d="m564 356v-1h5v1h-2z"/>
		<path id="Path 8" class="s7" d="m569 356v-1l5 2z"/>
		<path id="Path 9" class="s8" d="m534 360l9-4 12 3 17 3 4 4 18 2 4 5-2 3-3 3 3 1v6l-12 1-6-7h-6l-1-3h-6l-9-11h-22v-4z"/>
		<path id="Path 10" class="s9" d="m555 357l2-1h7 3l5 2v4l-17-3z"/>
		<path id="Path 11" class="s10" d="m572 358l-5-2h2l5 1v1z"/>
		<path id="Path 12" class="s11" d="m528 360l8-3-5 3z"/>
		<path id="Path 13" class="s12" d="m574 358v-1l11 3v1z"/>
		<path id="Path 14" class="s13" d="m572 362v-4h2l11 3 4 1 1 1 4 3v2l-18-2z"/>
		<path id="Path 15" class="s14" d="m521 362l7-2h3l-1 2-5 3-4 1-7 1v-2z"/>
		<path id="Path 16" class="s9" d="m530 362l1-2h3v2z"/>
		<path id="Path 17" class="s2" d="m585 361v-1l4 2z"/>
		<path id="Path 18" class="s12" d="m513 365l8-3-7 3z"/>
		<path id="Path 19" class="s15" d="m525 365l5-3h4v4l-8 4z"/>
		<path id="Path 20" class="s16" d="m590 363l-1-1 12 3z"/>
		<path id="Path 21" class="s17" d="m594 366l-4-3 11 2z"/>
		<path id="Path 22" class="s18" d="m394 367l7-2v5l-1-4-5 1z"/>
		<path id="Path 23" class="s19" d="m508 367l3-2h2 1v2l-14 6-8 3-7 3-6 1 4-3h1l3-2z"/>
		<path id="Path 24" class="s20" d="m521 366l4-1 1 5h-3z"/>
		<path id="Path 25" class="s21" d="m594 366l7-1h2l1 4-3 2-3 2-4-5z"/>
		<path id="Path 26" class="s0" d="m604 369l-1-4h3l-2 5z"/>
		<path id="Path 27" class="s22" d="m395 367l5-1 1 4h2v2h-4z"/>
		<path id="Path 28" class="s15" d="m514 367l7-1 2 4 1 7-4 5v8h-6l-6-2v-4l-8-6v-5z"/>
		<path id="Path 29" class="s23" d="m526 370l8-4h22l9 11h6l1 3v16 10l-6 3v9l-14-2v-5l-2-5h-5l-7-4h-12v-5l-6-7v-8l4-5-1-7z"/>
		<path id="Path 30" class="s11" d="m381 369l6-2-5 2z"/>
		<path id="Path 31" class="s24" d="m382 369l5-2h6z"/>
		<path id="Path 32" class="s23" d="m382 369l11-2h1 1l4 5h4 1v7l6 7h8l8 2h4l3 4 9-2 10-3 2 19h-8l-8-1-6-2-6 4-4 3-7-3-8-3-9 1-22-5-5-8-7 1v7l-4 1-1-3h-17-3l-7-2-2-6-9-2-1-6v-1l11-4 6-1h1l11-4h5l10-1 12-1 3-1h2z"/>
		<path id="Path 33" class="s11" d="m363 370l5-2v2h-4z"/>
		<path id="Path 34" class="s12" d="m368 370v-2h8l-1 2z"/>
		<path id="Path 35" class="s25" d="m375 370l1-2 3 1-3 1z"/>
		<path id="Path 36" class="s26" d="m408 370l9-2 5 13h-1l-1-3-3-7-4-1z"/>
		<path id="Path 37" class="s7" d="m601 371l3-2v1l-2 3h3l-5 2z"/>
		<path id="Path 38" class="s27" d="m349 372l5-2v2z"/>
		<path id="Path 39" class="s25" d="m354 372v-2h9 1v1z"/>
		<path id="Path 40" class="s28" d="m364 371v-1h4 7 1z"/>
		<path id="Path 41" class="s29" d="m403 372v-2l3 1-2 1z"/>
		<path id="Path 42" class="s29" d="m408 371v-1h5v1z"/>
		<path id="Path 43" class="s30" d="m413 371v-1l4 1 3 7h-1z"/>
		<path id="Path 44" class="s2" d="m606 373l3-3 8 2-8 2h-2z"/>
		<path id="Path 45" class="s31" d="m404 372l2-1h2 5l6 7-1 8h-8l-6-7z"/>
		<path id="Path 46" class="s32" d="m598 373l3-2-1 4 5-2h1l1 1-1 2-8 2-2-2z"/>
		<path id="Path 47" class="s33" d="m338 376v-3l11-1z"/>
		<path id="Path 48" class="s30" d="m609 374l8-2 3 2 4 1 5 2h1l6 4-14-3h-7z"/>
		<path id="Path 49" class="s2" d="m620 374l-3-2h3z"/>
		<path id="Path 50" class="s16" d="m620 374v-2l4 3z"/>
		<path id="Path 51" class="s23" d="m492 376l8-3v5l8 6v4l-2 2-8-4z"/>
		<path id="Path 52" class="s8" d="m606 376l1-2h2l6 4h7v5l10 6 1 5h7l1 4h-19l-6-2v-11z"/>
		<path id="Path 53" class="s34" d="m485 379l7-3 6 10 8 4 3 6-1 6-1 21-9-2-1-6-9-3-2-22z"/>
		<path id="Path 54" class="s10" d="m596 380l-3-1 3-3 2 2z"/>
		<path id="Path 55" class="s34" d="m598 378l8-2 10 9v11h-14v-8l-6-2v-6z"/>
		<path id="Path 56" class="s26" d="m319 380l12-3-11 4z"/>
		<path id="Path 57" class="s7" d="m478 380l5-3-4 3z"/>
		<path id="Path 58" class="s26" d="m636 381l-6-4 9 1 13 10v1h-1-3z"/>
		<path id="Path 59" class="s24" d="m418 386l1-8h1l1 3-1 3 4 1 2 1v2z"/>
		<path id="Path 60" class="s35" d="m641 398l-1-4h-7l-1-5-10-6v-5l14 3 12 8v9z"/>
		<path id="Path 61" class="s36" d="m479 380l6-1 1 11h-6l-7-3 1-5 2-2h2z"/>
		<path id="Path 62" class="s2" d="m314 382l5-2 1 1v1h-2z"/>
		<path id="Path 63" class="s2" d="m468 382l8-2-2 2z"/>
		<path id="Path 64" class="s34" d="m572 396v-16h6l6 7v9z"/>
		<path id="Path 65" class="s11" d="m424 385l-4-1 1-3h1z"/>
		<path id="Path 66" class="s0" d="m298 385l10-3-3 2-4 1z"/>
		<path id="Path 67" class="s37" d="m305 384l3-2h6 4l-10 2z"/>
		<path id="Path 68" class="s36" d="m308 384l10-2h2l1 6 9 2 2 6v2l-6 1-2 5h-6-9l-7 4h-6v-16h10z"/>
		<path id="Path 69" class="s16" d="m448 385l8-3-1 2z"/>
		<path id="Path 70" class="s22" d="m455 384l1-2h10l-5 2h-3z"/>
		<path id="Path 71" class="s38" d="m461 384l5-2h2 6l-1 5 7 3-5 7h-11v-10z"/>
		<path id="Path 72" class="s23" d="m301 385l4-1h3l-2 8h-10v-5z"/>
		<path id="Path 73" class="s39" d="m448 385l7-1h3l-6 3-10 3v-2-1h1z"/>
		<path id="Path 74" class="s31" d="m452 387l6-3h3l3 3v10l-4 1v8h-6z"/>
		<path id="Path 75" class="s40" d="m288 388l10-3h3l-5 2-8 2z"/>
		<path id="Path 76" class="s16" d="m426 386l-2-1 7 2h-1z"/>
		<path id="Path 77" class="s10" d="m426 388v-2l4 1v1z"/>
		<path id="Path 78" class="s23" d="m584 387l12-1 6 2v8l-12 2-6-2z"/>
		<path id="Path 79" class="s31" d="m288 389l8-2v5 16l-6 3h-5l-1 5h-1-11v-10l12-9v-6z"/>
		<path id="Path 80" class="s24" d="m430 388v-1h1 4l7 1v2l-9 2z"/>
		<path id="Path 81" class="s40" d="m442 388l-7-1h7z"/>
		<path id="Path 82" class="s41" d="m271 392l17-4v1l-4 2-14 3z"/>
		<path id="Path 83" class="s35" d="m506 390l2-2 6 2v6h-5z"/>
		<path id="Path 84" class="s11" d="m652 389v-1l4 2z"/>
		<path id="Path 85" class="s21" d="m648 398v-9h3l12 6-1 3-5 4v2h-3v-3z"/>
		<path id="Path 86" class="s42" d="m663 395l-12-6h1l4 1 5 2z"/>
		<path id="Path 87" class="s23" d="m475 397l5-7h6l2 22-5 4-7-1z"/>
		<path id="Path 88" class="s36" d="m514 396v-6h6l6 7v5 4l-6 2-6-7z"/>
		<path id="Path 89" class="s23" d="m270 394l14-3v6l-12 9h-2z"/>
		<path id="Path 90" class="s33" d="m259 397l4-4 8-1-1 2z"/>
		<path id="Path 91" class="s34" d="m364 400v-7l7-1 5 8-4 2z"/>
		<path id="Path 92" class="s26" d="m663 395l-2-3 5 2v4h-4z"/>
		<path id="Path 93" class="s15" d="m259 397l11-3v12l-10 2-4-9 2-2z"/>
		<path id="Path 94" class="s35" d="m332 398v-2l7 2-2 2z"/>
		<path id="Path 95" class="s28" d="m508 402l1-6h5v5z"/>
		<path id="Path 96" class="s20" d="m572 406v-10h12l6 2 12-2h14l6 2 4 20 11-4h15l2-10h3 12l4 7 14 9 4 5v7l7 3 3 7-2 10h-7-6l-2-5h-4l-4 9h-6v-5l-9-7-20-6-22-2-9-2-2-8-16-6-12-12z"/>
		<path id="Path 97" class="s40" d="m253 398l5-1-2 2-3 1z"/>
		<path id="Path 98" class="s36" d="m460 406v-8l4-1h11l1 18-6-1-3-5z"/>
		<path id="Path 99" class="s15" d="m622 398h19 7l6 3v3l-2 10h-15l-11 4z"/>
		<path id="Path 100" class="s11" d="m246 402l7-4v2z"/>
		<path id="Path 101" class="s38" d="m324 404l2-5 6-1 5 2v6l-7 6h-4z"/>
		<path id="Path 102" class="s43" d="m337 400l2-2h3v5l4 4v8l-6 3v6h-3l-7-6v-6l7-6z"/>
		<path id="Path 103" class="s38" d="m346 407l-4-4v-5h17l1 3-3 9z"/>
		<path id="Path 104" class="s2" d="m657 402l5-4 3 2v2z"/>
		<path id="Path 105" class="s23" d="m253 400l3-1 4 9v9l-8 1-2-9-6-5 2-2z"/>
		<path id="Path 106" class="s44" d="m360 401l4-1 8 2v11h-4l-4-2v5l-5-4-2-2z"/>
		<path id="Path 107" class="s45" d="m372 402l4-2 22 5 2 7-1 5-12 2-7 1-5-1-3-6z"/>
		<path id="Path 108" class="s42" d="m665 402v-2l12 2 1 2h-3l-5-1z"/>
		<path id="Path 109" class="s31" d="m508 402l6-1 6 7v5l4 1v14h-6l-8-1-3-4z"/>
		<path id="Path 110" class="s33" d="m233 407l3-4 10-1-2 2z"/>
		<path id="Path 111" class="s46" d="m526 406v-4h12l7 4 1 4 6 1v5l1 12 9 6v9h-2l-6 1-15-7-15-9v-14l3-3z"/>
		<path id="Path 112" class="s43" d="m657 404v-2h8l5 1-1 1z"/>
		<path id="Path 113" class="s7" d="m678 404l-1-2 7 1 3 4-4-1z"/>
		<path id="Path 114" class="s45" d="m426 407l6-4 6 2v6l-6 3-6-2z"/>
		<path id="Path 115" class="s8" d="m669 404l1-1 5 1 5 2 5 8h5l14 21v5l-2 2h-1l-3-7-7-3v-7l-4-5-14-9z"/>
		<path id="Path 116" class="s15" d="m233 407l11-3 6 5 2 9-4 6h-8-6v-8l-5-5 3-4z"/>
		<path id="Path 117" class="s38" d="m302 408l7-4h9l-4 20h-12v-6z"/>
		<path id="Path 118" class="s28" d="m314 424l4-20h6l2 8-4 18h-6z"/>
		<path id="Path 119" class="s44" d="m398 405l9-1 8 3v4l-7 4-8-3z"/>
		<path id="Path 120" class="s17" d="m680 406l-5-2h3l5 2z"/>
		<path id="Path 121" class="s47" d="m438 411v-6l8 1-1 5h-4z"/>
		<path id="Path 122" class="s34" d="m260 408l10-2h2v10 2h-6l-6-1z"/>
		<path id="Path 123" class="s48" d="m445 411l1-5h8 6l7 3 3 5-2 7-10-8-8 2z"/>
		<path id="Path 124" class="s38" d="m520 408l6-2 1 5-3 3-4-1z"/>
		<path id="Path 125" class="s31" d="m552 411l-6-1-1-4h5z"/>
		<path id="Path 126" class="s34" d="m566 418v-9l6-3 8 2 12 12v7l-13-1-4-6-7-2z"/>
		<path id="Path 127" class="s9" d="m690 414h-5l-5-8h3l4 1 3 3z"/>
		<path id="Path 128" class="s49" d="m229 408l3-1-3 4-7 3v-2l4-3z"/>
		<path id="Path 129" class="s50" d="m346 415v-8l11 3 2 2-3 6z"/>
		<path id="Path 130" class="s51" d="m400 412l8 3 7-4v-4l7 3 4-3v5l6 2v14l-8 5v5h-4l-2-6-11-6-6-4h-4l-1 4h-6l-3-5v-2l12-2z"/>
		<path id="Path 131" class="s7" d="m690 410l-3-3h4l1 3z"/>
		<path id="Path 132" class="s46" d="m290 411l6-3h6v10l-11-2z"/>
		<path id="Path 133" class="s43" d="m690 414v-4h2l2 2 8 11 2 5v2 5z"/>
		<path id="Path 134" class="s20" d="m222 414l7-3 5 5v8l-4 3v7l-2 10-11 3-5 9h-12-9l-2-3-9-1h-7v-2l4-6 14-10 12-7 2-1 3-4 4-2z"/>
		<path id="Path 135" class="s13" d="m284 416l1-5h5l1 5z"/>
		<path id="Path 136" class="s51" d="m364 416v-5l4 2-2 3z"/>
		<path id="Path 137" class="s52" d="m432 414l6-3h3l1 10 5 3 1 6-16-2z"/>
		<path id="Path 138" class="s53" d="m448 430l-1-6-5-3-1-10h4l5 4 8-2 10 8 4 2 1 11 9 2 3 5 5 1 3 23h-5l-5 7h-12l-6-6v-4l-7-3v-5l5-7-3-11v-6h-8z"/>
		<path id="Path 139" class="s40" d="m212 418l10-6v2l-10 6z"/>
		<path id="Path 140" class="s50" d="m322 430l4-18h4v6l7 6v4l3 1 8 9v6h-10l-4-6-12-2z"/>
		<path id="Path 141" class="s54" d="m346 415l10 3 3-6 5 4 2 11v9h-4l-1-2-4 2-1 6v2l-2 2-6-2v-6l-8-9v-5-6z"/>
		<path id="Path 142" class="s36" d="m483 416l5-4 9 3 1 6h-3l-2-3z"/>
		<path id="Path 143" class="s7" d="m702 423l-8-11 7 5z"/>
		<path id="Path 144" class="s55" d="m366 416l2-3h4l3 6-6 1z"/>
		<path id="Path 145" class="s45" d="m468 421l2-7 6 1 7 1 10 2 2 3-4 7-3 2-5-2-5-5h-6z"/>
		<path id="Path 146" class="s8" d="m272 418v-2h11l-1 4-5 2z"/>
		<path id="Path 147" class="s56" d="m272 418l5 4 5-2 1-4h1 7l11 2v6l-6 3v16 4l-1 5h-12l-2-8-7-8-6-2-2-16z"/>
		<path id="Path 148" class="s57" d="m366 427l-2-11h2l3 4v7z"/>
		<path id="Path 149" class="s38" d="m562 434l-9-6-1-12 14 2h2v14l-1 2z"/>
		<path id="Path 150" class="s8" d="m252 418l8-1 6 1 2 16-12 2-8-12z"/>
		<path id="Path 151" class="s11" d="m208 422l4-4v2z"/>
		<path id="Path 152" class="s36" d="m568 432v-14l7 2 4 6-4 6z"/>
		<path id="Path 153" class="s58" d="m369 420l6-1 5 1v9l-8 1-3-3z"/>
		<path id="Path 154" class="s55" d="m380 420l7-1v2l-1 5-6 3z"/>
		<path id="Path 155" class="s23" d="m592 427v-7l16 6 2 8-6 2z"/>
		<path id="Path 156" class="s59" d="m386 426l1-5 3 5z"/>
		<path id="Path 157" class="s51" d="m491 428l4-7h3l9 2 3 4-2 5z"/>
		<path id="Path 158" class="s40" d="m199 427l9-5-3 4h-2z"/>
		<path id="Path 159" class="s52" d="m396 426l1-4h4l6 4 1 6-4 2-1-1-5-2z"/>
		<path id="Path 160" class="s60" d="m482 436l-9-2-1-11h6l5 5z"/>
		<path id="Path 161" class="s34" d="m230 434v-7l4-3h6l-1 10z"/>
		<path id="Path 162" class="s61" d="m239 434l1-10h8l8 12 12-2 6 2 7 8 2 8-3 9-6 4v6h-4l-6 6-6-3h-8l-4-1-2-9h-10l-6-3v-17h10z"/>
		<path id="Path 163" class="s21" d="m296 443v-16l6-3h12l2 6v5 5l-4 4h-8z"/>
		<path id="Path 164" class="s62" d="m340 429l-3-1v-4h3z"/>
		<path id="Path 165" class="s19" d="m199 427l4-1v1l-12 7v-2z"/>
		<path id="Path 166" class="s63" d="m203 427v-1h2z"/>
		<path id="Path 167" class="s53" d="m380 429l6-3h4 6l2 5 5 2-1 3 2 4-2 4h-4-7l-4-6-5 2-4 1-6-2v-9z"/>
		<path id="Path 168" class="s64" d="m404 434l4-2-1-6 11 6 2 6-2 4-6-1 1 7-9-8-2-4z"/>
		<path id="Path 169" class="s38" d="m575 432l4-6 13 1 12 9 2 22-9 1-2-3-14-2-8-6v-1l4-2 1-5z"/>
		<path id="Path 170" class="s59" d="m366 436v-9h3l3 3v9z"/>
		<path id="Path 171" class="s55" d="m508 432l2-5 8 1 9 10v5l-3 2-11-3v-6z"/>
		<path id="Path 172" class="s60" d="m424 438v-5l8-5 16 2h4v6h-11l-1 10-1 8-1 1h-6l-4-4-4-5z"/>
		<path id="Path 173" class="s59" d="m482 436l1-8 5 2 4 5-2 7-5-1z"/>
		<path id="Path 174" class="s57" d="m488 430l3-2 17 4 5 4v6 8l9 4v18l2 6 5 3 5 9h6l2 4v9l6 3v6l6 3 2 18-14-1-2-12-8-4v-6l-8-2v-7l-9-5-3-7-13-11-6-13-3-23 2-7z"/>
		<path id="Path 175" class="s45" d="m527 438l-9-10h6l15 9-1 3-5-4z"/>
		<path id="Path 176" class="s38" d="m316 435v-5h6v6z"/>
		<path id="Path 177" class="s58" d="m452 436v-6h8v6z"/>
		<path id="Path 178" class="s27" d="m704 435v-5l2 5z"/>
		<path id="Path 179" class="s26" d="m175 443l16-11v2l-14 10-4 2v-1-1z"/>
		<path id="Path 180" class="s35" d="m567 434l1-2h7l3 8h-6l-5-2z"/>
		<path id="Path 181" class="s65" d="m402 436l1-3 1 1z"/>
		<path id="Path 182" class="s31" d="m228 444l2-10h9l-1 10z"/>
		<path id="Path 183" class="s44" d="m356 442l1-6 4-2 1 2-3 6z"/>
		<path id="Path 184" class="s31" d="m562 443v-9h5v4l5 2v6z"/>
		<path id="Path 185" class="s46" d="m604 436l6-2 9 2 4 11 19 6 3 1v5l5 4-1 15h-3l-1-5h-5-1l-1-4h-4v-5l-6-4h-5l-1 5-5-1-11-6z"/>
		<path id="Path 186" class="s43" d="m304 444h8l4-4v-5l6 1 12 2 4 6-2 16-14-5-6-5-12-1z"/>
		<path id="Path 187" class="s51" d="m356 442h3l3-6h4l6 3 6 2 4 3v2l-2 12-4 3v11h-4l-3-5 2-5-5-6v-8l-6 1-4-5z"/>
		<path id="Path 188" class="s55" d="m440 446l1-10h11 8l3 11-5 7-14-2z"/>
		<path id="Path 189" class="s64" d="m527 438l6-2 5 4v4l-11-1z"/>
		<path id="Path 190" class="s31" d="m642 453l-19-6-4-11 22 2z"/>
		<path id="Path 191" class="s66" d="m538 440l1-3 15 7 2 10-5 8h-5l-1-4-7-4v-10z"/>
		<path id="Path 192" class="s58" d="m382 440l5-2 4 6h7v6l-7 6-3-2-6-8v-2z"/>
		<path id="Path 193" class="s55" d="m413 448l-1-7 6 1 2-4h4v8l4 5 4 4h6l3 5 3 17-8 5h-4l-6-5v-8l-6-3-1-12z"/>
		<path id="Path 194" class="s34" d="m642 453l-1-15 20 6 9 7v5l-4 4-21-6z"/>
		<path id="Path 195" class="s45" d="m378 441l4-1v4z"/>
		<path id="Path 196" class="s51" d="m402 444l2-4 9 8 6 6 1 12 6 3v8l-7 3 2 6h-2-13v-15l2-11-2-8-4-2z"/>
		<path id="Path 197" class="s36" d="m572 446v-6h6l-1 5-4 2z"/>
		<path id="Path 198" class="s42" d="m702 442l2-2-2 10z"/>
		<path id="Path 199" class="s53" d="m522 454l-9-4v-8l11 3z"/>
		<path id="Path 200" class="s43" d="m699 452l2-10h1v8 1l-3 3z"/>
		<path id="Path 201" class="s38" d="m296 447v-4l8 1v5l-5 1z"/>
		<path id="Path 202" class="s45" d="m398 444h4v6h-4z"/>
		<path id="Path 203" class="s59" d="m524 445l3-2 11 1v10l7 4 1 4 2 12v6l-19 1-5-3-2-6v-18z"/>
		<path id="Path 204" class="s53" d="m554 444l6-1 8 8-2 8-4 1-6-6z"/>
		<path id="Path 205" class="s52" d="m568 451l-8-8h2l10 3 1 1v1z"/>
		<path id="Path 206" class="s56" d="m173 446l4-2-4 6h-3v-1z"/>
		<path id="Path 207" class="s8" d="m212 456l5-9 11-3v17l6 3v10l-13 2-5-2z"/>
		<path id="Path 208" class="s24" d="m336 460l2-16h10l6 2v10l-2 12v8h-4l-11-11z"/>
		<path id="Path 209" class="s62" d="m354 446l2-2 4 5v7h-6z"/>
		<path id="Path 210" class="s11" d="m168 449l5-4v1l-3 3z"/>
		<path id="Path 211" class="s62" d="m380 458l2-12 6 8-2 4z"/>
		<path id="Path 212" class="s67" d="m439 454l1-8 4 6v3z"/>
		<path id="Path 213" class="s13" d="m295 452l1-5 3 3 5-1 12 1 6 5-2 21 8 4v5l9 6 2 5-13 3-2 3-11 1-1-5h-8l-3-4h-11l-6-6v-6l-4-1v-9l2-7 12 7 4-3 5-2v-9l-7-1z"/>
		<path id="Path 214" class="s10" d="m360 449l6-1v8h-6z"/>
		<path id="Path 215" class="s15" d="m676 456l4-9h4l2 5v4z"/>
		<path id="Path 216" class="s57" d="m568 451l5-3 8 6 2 15 19 16 1 10-8 4-7-4v-7l-4-4 1-8-5-1-14-16z"/>
		<path id="Path 217" class="s12" d="m833 450l17-2v2l-14 1h-3z"/>
		<path id="Path 218" class="s11" d="m850 450v-2l9 2z"/>
		<path id="Path 219" class="s32" d="m153 462l15-13h2v1l-12 11-4 2z"/>
		<path id="Path 220" class="s15" d="m158 461l12-11h3v2l-9 10z"/>
		<path id="Path 221" class="s54" d="m391 456l7-6h4l4 2 2 8-2 11h-5l-4-8-6-3z"/>
		<path id="Path 222" class="s2" d="m823 452l6-2v2z"/>
		<path id="Path 223" class="s25" d="m829 452v-2h4v1z"/>
		<path id="Path 224" class="s43" d="m836 451l14-1h9v1h-4z"/>
		<path id="Path 225" class="s49" d="m866 451l11 1h-7-2z"/>
		<path id="Path 226" class="s26" d="m699 454l3-3-6 14-4 2h-1l4-7z"/>
		<path id="Path 227" class="s20" d="m829 452l4-1h3 19l2 7h11l6 2v4l-11 3-3 8 1 13 5 2v12h-14l-21-4 3 16v7l-4 4v11l-2 6-2 2h-10l-3-7-12-6-3-15-6-4-2-7v-10h4l5-6-3-16 3-15h1l7-2h1l8-2h3z"/>
		<path id="Path 228" class="s23" d="m868 458h-11l-2-7h4 7l2 1z"/>
		<path id="Path 229" class="s23" d="m158 461l6 1 9-10h7v10l-2 10h-4-6-7l-7 5v9l-4 4-6-2v-8l5-5-1-5 6-7z"/>
		<path id="Path 230" class="s15" d="m180 462v-10l9 1 2 3-1 6z"/>
		<path id="Path 231" class="s21" d="m280 461l3-9h12l1 5-2 9 4 3-4 3-12-7z"/>
		<path id="Path 232" class="s60" d="m444 455v-3l14 2v5l7 3v4l-3 4h-4l-3-7-4 1z"/>
		<path id="Path 233" class="s23" d="m686 456v-4h6v5z"/>
		<path id="Path 234" class="s8" d="m692 457v-5h7v2l-4 6z"/>
		<path id="Path 235" class="s33" d="m808 455l7-3v2z"/>
		<path id="Path 236" class="s2" d="m815 454v-2h5l-1 2h-3z"/>
		<path id="Path 237" class="s29" d="m819 454l1-2h3 6z"/>
		<path id="Path 238" class="s34" d="m868 458v-6h2l17 5 4 5-1 8-6 1-3-7h-7v-4z"/>
		<path id="Path 239" class="s50" d="m891 462l-4-5-17-5h7 2l6 2 12 9v5h-2v-4z"/>
		<path id="Path 240" class="s33" d="m885 454l-6-2 7 1v1z"/>
		<path id="Path 241" class="s0" d="m886 454v-1l3 1z"/>
		<path id="Path 242" class="s66" d="m386 458l2-4 3 2v4l6 3 4 8h5v15h-9v-6l-11-11z"/>
		<path id="Path 243" class="s51" d="m438 455l1-1 5 1 7 9v5h-3l-7-9z"/>
		<path id="Path 244" class="s67" d="m551 462l5-8 6 6-6 4z"/>
		<path id="Path 245" class="s53" d="m603 495l-1-10-19-16-2-15 14 2 2 3 6 9v6l3 2 3 20 18 16 2 5h3l4 4v15h-6l-6-7v-4l-6-3-4-3v-6l-6-1h-2l-1-8 1-7z"/>
		<path id="Path 246" class="s38" d="m649 478l1-15-5-4v-5l21 6v18l5 3v5h-11l-7-4-3-2z"/>
		<path id="Path 247" class="s17" d="m808 455l7-1h1l-8 2z"/>
		<path id="Path 248" class="s12" d="m897 463l-12-9h1 3z"/>
		<path id="Path 249" class="s5" d="m339 496l-2-5-9-6v-5l-8-4 2-21 14 5 1 5 11 11h4v12l5 3-2 3-13 2z"/>
		<path id="Path 250" class="s7" d="m799 457l7-1-6 1z"/>
		<path id="Path 251" class="s31" d="m190 462l1-6h9l2 14 6 3v7h-10l-3-6h-5z"/>
		<path id="Path 252" class="s23" d="m208 480v-7l-6-3-2-14h12l4 18-2 6z"/>
		<path id="Path 253" class="s66" d="m352 468l2-12h6 6l5 6-2 5z"/>
		<path id="Path 254" class="s36" d="m666 460l4-4h6 10l6 1 3 3-4 7h-1l-6 1-9 9-1 2-3 2-5-3z"/>
		<path id="Path 255" class="s10" d="m800 457l6-1h1l-7 2z"/>
		<path id="Path 256" class="s9" d="m298 469l-4-3 2-9 7 1v9z"/>
		<path id="Path 257" class="s68" d="m789 458l10-1h1v1h-1l-10 2z"/>
		<path id="Path 258" class="s69" d="m376 472v-11l4-3h6v11l11 11v6l-2 1-9 1v-9l-7-2z"/>
		<path id="Path 259" class="s51" d="m597 459l9-1 11 6v1h-11v3h-3z"/>
		<path id="Path 260" class="s12" d="m784 460l5-2v2l-4 1z"/>
		<path id="Path 261" class="s34" d="m789 460l10-2-3 15 3 16-5 6h-4l-5-4v-30z"/>
		<path id="Path 262" class="s70" d="m562 460l4-1 14 16 5 1-1 8 4 4v7l-2 5-4 1-10-1-4-2-9-13-8-5v-6l5-5v-5z"/>
		<path id="Path 263" class="s71" d="m444 477l-3-17 7 9h3v-5l4-1 3 7-3 18h-3l-4-9z"/>
		<path id="Path 264" class="s36" d="m622 465l1-5h5l6 4v5l-4 1z"/>
		<path id="Path 265" class="s25" d="m773 462l11-2 1 1-14 3z"/>
		<path id="Path 266" class="s72" d="m274 471v-6l6-4 2 4-2 7z"/>
		<path id="Path 267" class="s31" d="m771 464l14-3v30l-3 2v10l8 2 2 7 6 4 3 15 12 6 3 7v6l8 3 4 17v6 8l-5-1h-1l-4-2-4-2h-1l-9-4-5-2 2-10-3-2v-6l-8-2 1-15-3-2-2-21-3-3h-11v-10l-5-6 3-4-1-6-7-3-8-3-1-11 8-3 2-1 5-1h1z"/>
		<path id="Path 268" class="s22" d="m145 469l8-7 1 1-6 7-3 1z"/>
		<path id="Path 269" class="s34" d="m178 472l2-10h10v12h-4z"/>
		<path id="Path 270" class="s57" d="m548 474l-2-12h5l5 2v5l-5 5z"/>
		<path id="Path 271" class="s33" d="m769 464l4-2-2 2z"/>
		<path id="Path 272" class="s35" d="m890 470l1-8 4 2v4l-5 3z"/>
		<path id="Path 273" class="s18" d="m897 468v-5l2 5z"/>
		<path id="Path 274" class="s23" d="m234 474v-10h10l2 9z"/>
		<path id="Path 275" class="s58" d="m617 465v-1l5 1 8 5v4 3l-2 6-10-7v-2z"/>
		<path id="Path 276" class="s63" d="m866 502v-12l-5-2-1-13 3-8 11-3h7l3 7-2 3 2 1-1 8-5 7v12h-8z"/>
		<path id="Path 277" class="s70" d="m471 472h12l5-7h5l6 13 13 11 3 7 9 5v7 6l-10 3 4 6v12h-2l-4 1-6-3-1-8h-7l-4-8-12-8v-5l-4-4-1-7-5-1-5-12z"/>
		<path id="Path 278" class="s57" d="m606 468v-3h11l1 9h-4-6z"/>
		<path id="Path 279" class="s32" d="m754 467l2-2 5 1-8 3h-5z"/>
		<path id="Path 280" class="s67" d="m462 470l3-4 6 6-4 8-5-2z"/>
		<path id="Path 281" class="s62" d="m352 468l17-1 3 5h4l3 5 7 2v9h-1l-13 2-15 1-5-3v-12z"/>
		<path id="Path 282" class="s28" d="m675 477l9-9 6-1v2l-3 4-6 2-2 1-2 1z"/>
		<path id="Path 283" class="s33" d="m690 469v-2h1 1l-1 2z"/>
		<path id="Path 284" class="s58" d="m606 476l-3-2v-6h3l2 6h6l1 3v3h-3z"/>
		<path id="Path 285" class="s26" d="m741 471v-3l5 1z"/>
		<path id="Path 286" class="s12" d="m890 471l5-3h2l-2 4h-4-2z"/>
		<path id="Path 287" class="s40" d="m138 477l7-8v2z"/>
		<path id="Path 288" class="s51" d="m630 470l4-1h4l1 4-3 1h-6z"/>
		<path id="Path 289" class="s0" d="m687 473l3-4h1z"/>
		<path id="Path 290" class="s36" d="m741 471l5-2h2 5l1 11v2h-4l-2-3-13 2-8 1h-2-1l-2-6 5-2 8-2 4-1z"/>
		<path id="Path 291" class="s34" d="m145 471l3-1 1 5-5 5-7-1 1-2z"/>
		<path id="Path 292" class="s64" d="m455 488l3-18h4v8l5 2 5 12v2h-8z"/>
		<path id="Path 293" class="s2" d="m733 472l6-1-4 1z"/>
		<path id="Path 294" class="s37" d="m884 471l6-1v1l-1 1-1 2v2l-4-1-2-1z"/>
		<path id="Path 295" class="s21" d="m264 477l6-6h4l6 1v9l-4 2v4h-5z"/>
		<path id="Path 296" class="s31" d="m154 486v-9l7-5h7v6 6l-2 2z"/>
		<path id="Path 297" class="s36" d="m168 478v-6h6v6z"/>
		<path id="Path 298" class="s8" d="m174 478v-6h4l8 2v5l-8 5h-4z"/>
		<path id="Path 299" class="s16" d="m711 477l16-5v2l-5 2h-3z"/>
		<path id="Path 300" class="s49" d="m727 474v-2h6 2z"/>
		<path id="Path 301" class="s18" d="m888 474l1-2h2l6 4h-1-1z"/>
		<path id="Path 302" class="s56" d="m234 474l12-1 4 1v12l-1 3-9 1-1-3h-5l-2 5-6 6-20-4-1-6-7-4v-4h10 6l6 2 1-6z"/>
		<path id="Path 303" class="s47" d="m636 474l3-1h1v5h-4z"/>
		<path id="Path 304" class="s51" d="m640 478v-5h5l1 5h-2z"/>
		<path id="Path 305" class="s0" d="m681 475l6-2-6 4z"/>
		<path id="Path 306" class="s61" d="m186 479v-5h4 5l3 6v4h-7z"/>
		<path id="Path 307" class="s61" d="m214 480l2-6 5 2-1 6z"/>
		<path id="Path 308" class="s43" d="m250 486v-12h8v10l-2 2z"/>
		<path id="Path 309" class="s52" d="m258 484v-10l6 3 7 10-1 6 6 6 4 9v10l-8 3v-5l-3-1 1-6h-5l-5-18z"/>
		<path id="Path 310" class="s64" d="m548 480v-6h3v6l8 5 9 13-1 13-3 4-6-3-4 3-6-3v-6l2-10-4-2z"/>
		<path id="Path 311" class="s53" d="m615 477l-1-3h4v2z"/>
		<path id="Path 312" class="s55" d="m630 477v-3h6v4h-1z"/>
		<path id="Path 313" class="s22" d="m888 476v-2l7 2h-1z"/>
		<path id="Path 314" class="s68" d="m679 476l2-1v2h-2z"/>
		<path id="Path 315" class="s20" d="m878 502v-12l5-7 1-8 4 1h6v9l4 19-1 19-2 9h-1-10v-11l-6-5z"/>
		<path id="Path 316" class="s64" d="m627 512l-18-16-3-20 6 4h3v-3l3-1 10 7 7 4-1 23-2 2z"/>
		<path id="Path 317" class="s0" d="m677 477l2-1v1 1z"/>
		<path id="Path 318" class="s24" d="m711 477l8-1-3 2-8 1-8 1 1-2 4-1z"/>
		<path id="Path 319" class="s34" d="m716 478l3-2h3l2 6-8 1z"/>
		<path id="Path 320" class="s62" d="m894 485v-9h1 1v9z"/>
		<path id="Path 321" class="s11" d="m896 485v-9h1v15z"/>
		<path id="Path 322" class="s49" d="m126 487l8-10h4l-1 2-7 7-2 1z"/>
		<path id="Path 323" class="s69" d="m421 486l-2-6 7-3 6 5v4h-2z"/>
		<path id="Path 324" class="s66" d="m436 482l8-5 4 2 4 9-3 2-13-4z"/>
		<path id="Path 325" class="s53" d="m628 483l2-6 5 1 4 8-1 11 5 2 1 3-3 2v8h-6l-1-2 1-23z"/>
		<path id="Path 326" class="s68" d="m674 479l1-2h2l2 1h15v1l-12 1z"/>
		<path id="Path 327" class="s11" d="m694 478l11-1-4 1-6 1h-1z"/>
		<path id="Path 328" class="s46" d="m168 484v-6h6v6h-2z"/>
		<path id="Path 329" class="s58" d="m639 486l-4-8h1 4 4v3l-2 5z"/>
		<path id="Path 330" class="s73" d="m644 481v-3h2 3l1 2-1 2z"/>
		<path id="Path 331" class="s74" d="m695 479l6-1-1 2h-4z"/>
		<path id="Path 332" class="s31" d="m708 479l8-1v5l-1 3h-1l-6-2z"/>
		<path id="Path 333" class="s15" d="m130 486l7-7 7 1v8z"/>
		<path id="Path 334" class="s9" d="m178 484l8-5 5 5-1 6-12 2v-2z"/>
		<path id="Path 335" class="s31" d="m671 481l3-2 8 1v4l-8 4h-1l-2-2z"/>
		<path id="Path 336" class="s23" d="m682 480l12-1h1l1 1v5l-9 1-5-2z"/>
		<path id="Path 337" class="s34" d="m700 480l8-1v5l-5 2-7-1v-5z"/>
		<path id="Path 338" class="s52" d="m735 481l13-2 2 3-1 10-10-1z"/>
		<path id="Path 339" class="s67" d="m529 481l19-1-2 14h-4l-2-4h-6z"/>
		<path id="Path 340" class="s70" d="m649 482l1-2 3 2v3z"/>
		<path id="Path 341" class="s38" d="m754 482v-2l8 3-1 13-1 1-4-1z"/>
		<path id="Path 342" class="s9" d="m276 487v-4l4-2 4 1v6h-3z"/>
		<path id="Path 343" class="s60" d="m642 486l2-5 5 1 4 3 1 6-4 4v7h-6l-1-3z"/>
		<path id="Path 344" class="s51" d="m727 482l8-1 4 10 10 1 1 5-2 1-7 3h-4l-4-5z"/>
		<path id="Path 345" class="s53" d="m432 486v-4h4v4z"/>
		<path id="Path 346" class="s55" d="m653 485v-3l7 4h11l2 2-1 1h-4l-2 5-4-3-1-4h-4v4h-3z"/>
		<path id="Path 347" class="s45" d="m716 483l8-1h1l-3 5-7-1z"/>
		<path id="Path 348" class="s66" d="m722 487l3-5h2l6 14h-5l-6-6z"/>
		<path id="Path 349" class="s45" d="m749 492l1-10h4l2 14 4 1v5l4 1-2 6 8 3-3 4-1 14-8 2-4-4-3-10-1-8 3-7-3-6z"/>
		<path id="Path 350" class="s35" d="m761 496l1-13 7 3 1 6-3 4z"/>
		<path id="Path 351" class="s38" d="m166 486l2-2h4v6h-2-4z"/>
		<path id="Path 352" class="s61" d="m172 490v-6h2 4v6z"/>
		<path id="Path 353" class="s75" d="m178 492l12-2 1-6h7l7 4 1 6-2 8h-9l-4 10h-7-8z"/>
		<path id="Path 354" class="s74" d="m256 486l2-2 2 7-4-2z"/>
		<path id="Path 355" class="s47" d="m674 488l8-4 5 2v3l-4 5z"/>
		<path id="Path 356" class="s51" d="m703 486l5-2 6 2v5l-1 1-6 2-4-3z"/>
		<path id="Path 357" class="s45" d="m687 486l9-1 7 1v5l-3 3h-7l-6-5z"/>
		<path id="Path 358" class="s24" d="m898 504l-4-19h2l1 6v2l3 11z"/>
		<path id="Path 359" class="s63" d="m128 487l2-1 14 2 6 2 3 5-1 7-13 1-1 5v3l-3 5h-8l-2-10 1-17z"/>
		<path id="Path 360" class="s28" d="m150 490l4-4h12v4l-13 5z"/>
		<path id="Path 361" class="s13" d="m249 489l1-3h6v3l-3 1z"/>
		<path id="Path 362" class="s76" d="m395 487l2-1h9 13l-7 9-2 23-10 2v-2l4-18-9-6z"/>
		<path id="Path 363" class="s48" d="m410 518l2-23 7-9h2 9l2 16-13 6-3 10z"/>
		<path id="Path 364" class="s47" d="m416 518l3-10 13-6-2-16h2 4l13 4 3 23-1 4-6 2-6 1-7 2z"/>
		<path id="Path 365" class="s71" d="m643 499l-5-2 1-11h3z"/>
		<path id="Path 366" class="s55" d="m714 491v-5h1l7 1v3l-3 4z"/>
		<path id="Path 367" class="s19" d="m124 488l2-1h2l-2 2-2 1z"/>
		<path id="Path 368" class="s9" d="m232 492l2-5h5l1 3v3z"/>
		<path id="Path 369" class="s77" d="m276 499l-6-6 1-6h5l5 1-2 10z"/>
		<path id="Path 370" class="s78" d="m386 488l9-1v7l9 6-4 18-14 2-6 1v7l-4 2-13-1-1-12 12-7 14-4-3-18z"/>
		<path id="Path 371" class="s59" d="m657 491v-4h4l1 4z"/>
		<path id="Path 372" class="s26" d="m118 493l6-5v2l-6 4z"/>
		<path id="Path 373" class="s43" d="m279 498l2-10h3l6 6v6h-5z"/>
		<path id="Path 374" class="s46" d="m372 490l13-2 3 18-14 4z"/>
		<path id="Path 375" class="s52" d="m449 490l3-2h3l9 6-3 19h-9z"/>
		<path id="Path 376" class="s53" d="m672 489l1-1h1l9 6v3l-10-3z"/>
		<path id="Path 377" class="s61" d="m124 490l2-1-1 17h-7l-8-4 4-5 4-3z"/>
		<path id="Path 378" class="s75" d="m240 490l9-1 4 1 3 20-3 4-11-2-2-19z"/>
		<path id="Path 379" class="s14" d="m253 490l3-1 4 2 5 18-2 1h-7z"/>
		<path id="Path 380" class="s70" d="m666 494l2-5h4l1 5 10 3 3 1v7h-7l-1 3h-2l-3-4-8 2z"/>
		<path id="Path 381" class="s69" d="m683 494l4-5 6 5h7l-2 14-8-1-4-2v-7l-3-1z"/>
		<path id="Path 382" class="s9" d="m153 495l13-5h4l-2 14-15 2-1-4z"/>
		<path id="Path 383" class="s72" d="m168 504l2-14h2 6v2l-2 20v8l-4 2-6-3z"/>
		<path id="Path 384" class="s36" d="m357 491l15-1 2 20-12 7 1 12-9 7-12 3-2 9h-5l-1 4-1 2h-7l-10-4 2-8 2-10 22-6 8-3 3-7 7-4v-13l-5-5z"/>
		<path id="Path 385" class="s67" d="m719 494l3-4 6 6h5l4 5-7 5 3 19h-9l-8-8-1-5 3-14z"/>
		<path id="Path 386" class="s53" d="m650 502v-7l4-4h3 5l4 3-1 12h-13z"/>
		<path id="Path 387" class="s64" d="m700 494l3-3 4 3-1 13 6 5-2 4-9 2v-8l-3-2z"/>
		<path id="Path 388" class="s60" d="m713 492l1-1 5 3-1 4z"/>
		<path id="Path 389" class="s23" d="m790 505l-8-2v-10l3-2 5 4z"/>
		<path id="Path 390" class="s72" d="m206 494l20 4 6-6 8 1 2 19-29 4-1 6-4 1-3-9-1-12z"/>
		<path id="Path 391" class="s79" d="m472 494v-2l5 1 1 7h-2l-4-2z"/>
		<path id="Path 392" class="s57" d="m707 494l6-2 5 6-3 14h-3l-6-5z"/>
		<path id="Path 393" class="s7" d="m114 497l4-4v1z"/>
		<path id="Path 394" class="s16" d="m900 504l-3-11 5 14-2-1z"/>
		<path id="Path 395" class="s28" d="m290 500v-6h11l3 4v6l-8 3h-6z"/>
		<path id="Path 396" class="s31" d="m342 496l13-2 5 5v13l-7 4-3 7-8 3 2-16 1-10z"/>
		<path id="Path 397" class="s53" d="m452 513h9l3-19h8v4l4 2-2 8 2 1-1 14-7 2-5-2-1 5-2 2h-12l-4-3v-1l1-7 6-2z"/>
		<path id="Path 398" class="s59" d="m548 506l-6-3v-9h4l4 2z"/>
		<path id="Path 399" class="s53" d="m586 500l2-5 7 4v2l-5 3z"/>
		<path id="Path 400" class="s59" d="m595 499l8-4 3 2-1 7-10-3z"/>
		<path id="Path 401" class="s23" d="m324 502l2-3 13-3h3l3 4-1 10-16 2z"/>
		<path id="Path 402" class="s46" d="m760 497l1-1h6l5 6v10h-2l-8-3 2-6-4-1z"/>
		<path id="Path 403" class="s7" d="m108 502l6-5-4 5z"/>
		<path id="Path 404" class="s66" d="m748 498l2-1 3 6-3 7z"/>
		<path id="Path 405" class="s38" d="m276 499l3-1 6 2v8h-5z"/>
		<path id="Path 406" class="s48" d="m304 504v-6h8l1 5z"/>
		<path id="Path 407" class="s54" d="m554 515l4-3 6 3 3-4 1-13 4 2v5l-2 5 2 9 4 1 2 6 5 1-3 11-6 2-14-2-4-5z"/>
		<path id="Path 408" class="s59" d="m741 501l7-3 2 12 1 8-6-3z"/>
		<path id="Path 409" class="s23" d="m834 514l-3-16 21 4v12z"/>
		<path id="Path 410" class="s55" d="m572 500l10 1v7l-2 5v7l5 1 3 1-1 5h-4l-5-1-2-6v-13l-4-2z"/>
		<path id="Path 411" class="s24" d="m285 508v-8h5v7l-2 3z"/>
		<path id="Path 412" class="s64" d="m476 509l-2-1 2-8h2l4 4v5z"/>
		<path id="Path 413" class="s52" d="m582 501l4-1 4 4-1 4-5 2-2-2z"/>
		<path id="Path 414" class="s58" d="m590 504l5-3 10 3 1 8h-2l-5-2-1 4h-3v-3l-6-3z"/>
		<path id="Path 415" class="s57" d="m733 525l-3-19 7-5h4l4 14 6 3 3 10h-6-5l-4 4-6-3z"/>
		<path id="Path 416" class="s11" d="m103 505l5-3-3 3z"/>
		<path id="Path 417" class="s35" d="m105 505l3-3h2l8 4v8h-4l-11-6z"/>
		<path id="Path 418" class="s28" d="m138 508l1-5 13-1 1 4-5 12h-5l-1-3 2-5z"/>
		<path id="Path 419" class="s80" d="m191 512l4-10h9l1 12h-13z"/>
		<path id="Path 420" class="s34" d="m313 503l11-1 4 10 16-2-2 16-22 6h-2v-8l-6-6h-12l-4-3v-8l8-3z"/>
		<path id="Path 421" class="s69" d="m641 512v-8l3-2h6l2 4v5h-5l-1 11h-4z"/>
		<path id="Path 422" class="s34" d="m852 514v-12h14 4l4 14-4 2h-12z"/>
		<path id="Path 423" class="s8" d="m874 516l-4-14h8v14z"/>
		<path id="Path 424" class="s56" d="m153 506l15-2-2 15-10 1h-6l-2-2z"/>
		<path id="Path 425" class="s54" d="m665 506l8-2 3 4-1 2-2 4 2 2-1 8-4 1-1-14-6 2-11-2v-5z"/>
		<path id="Path 426" class="s36" d="m897 523l1-19h2v2l3 12-3 1v4z"/>
		<path id="Path 427" class="s12" d="m98 510l5-5h2l-2 3-3 2z"/>
		<path id="Path 428" class="s70" d="m576 520l-4-1-2-9 2-5 4 2z"/>
		<path id="Path 429" class="s55" d="m678 508l1-3h7l4 2v5l-8-1v9h-4v-4-5z"/>
		<path id="Path 430" class="s38" d="m118 514v-8h7l2 10-5 2z"/>
		<path id="Path 431" class="s81" d="m690 507l8 1 3 2v8l-3 1v5h-6l-2-12z"/>
		<path id="Path 432" class="s42" d="m900 523v-4l3-1-3-12 2 1 4 11-4 4 5 5 2 5 1 2v2 1l-3-6-2-3z"/>
		<path id="Path 433" class="s36" d="m288 510l2-3h6v8l-3 1-5-1z"/>
		<path id="Path 434" class="s34" d="m100 510l3-2 11 6v6l-7 1-9-8z"/>
		<path id="Path 435" class="s82" d="m138 511v-3l6 2-2 5h-3z"/>
		<path id="Path 436" class="s48" d="m280 518v-10h5l3 2v5l-4 3z"/>
		<path id="Path 437" class="s53" d="m524 514v-6l8 2v6z"/>
		<path id="Path 438" class="s79" d="m580 513l2-5 2 2v3z"/>
		<path id="Path 439" class="s59" d="m584 510l5-2 6 3v3l-9 1-2-2z"/>
		<path id="Path 440" class="s59" d="m675 510l1-2h2v3z"/>
		<path id="Path 441" class="s83" d="m263 510l2-1h5l-1 6-3 1z"/>
		<path id="Path 442" class="s59" d="m475 523l1-14h6l12 8 4 8h7l1 8 6 3v5l-1 7h-3l-1-3-5 3v6l4 3 2 11v3h-12l-3-5h-5-2v-7-8l-5-5h-5l-2-4v-14z"/>
		<path id="Path 443" class="s39" d="m95 512l3-2h2l-2 3-5 3v-1z"/>
		<path id="Path 444" class="s77" d="m253 514l3-4h7l3 6-2 7-5 3h-5l-1-6z"/>
		<path id="Path 445" class="s70" d="m598 514l1-4 5 2-1 4z"/>
		<path id="Path 446" class="s55" d="m632 512l2-2 1 2-3 1z"/>
		<path id="Path 447" class="s65" d="m675 516l-2-2 2-4 3 1v5z"/>
		<path id="Path 448" class="s46" d="m135 516l3-5 1 4h3l1 3-5 2z"/>
		<path id="Path 449" class="s84" d="m608 512l6 1v6h-3z"/>
		<path id="Path 450" class="s85" d="m646 522l1-11h5l11 2 6-2 1 14-2 2-6-2-7 8-7-2z"/>
		<path id="Path 451" class="s53" d="m682 520v-9l8 1 2 12-2 8 1 5-5 1-4-4z"/>
		<path id="Path 452" class="s82" d="m176 520v-8h8v8z"/>
		<path id="Path 453" class="s86" d="m184 520v-8h7l1 2 1 7 9 3v19l-10 1-2-1v-6l-4-5z"/>
		<path id="Path 454" class="s80" d="m208 523l4-1 1-6 29-4 11 2v6l-12 6h-5l-5 5v5h-19z"/>
		<path id="Path 455" class="s54" d="m598 514l5 2 1-4h2 2l3 7-3 2v9l-6 5v12l-5 1-8-4-2-17 1-5-3-1 1-6 9-1z"/>
		<path id="Path 456" class="s71" d="m632 517h-3l-2-5h5v1z"/>
		<path id="Path 457" class="s66" d="m632 513l3-1h6l1 10v14l11 3 1 9-16 2-2-14v-15l-4-4z"/>
		<path id="Path 458" class="s59" d="m710 516l2-4h3l1 5 8 8h9v4l6 3-1 9-16-8-12-4z"/>
		<path id="Path 459" class="s36" d="m758 532l8-2 1-14 3-4h2 11l3 3 2 21 3 2-1 15-1 15h-3-2-1l-12-5h-1v-1l-7-3-8-4-12-6-1-6 5-5 8-1z"/>
		<path id="Path 460" class="s23" d="m93 516l5-3 9 8-11 10-8-1-2-5v-1z"/>
		<path id="Path 461" class="s66" d="m585 521l-5-1v-7h4l2 2z"/>
		<path id="Path 462" class="s36" d="m114 520v-6h4l4 4 5-2h8l3 4v8l-5 3h-6z"/>
		<path id="Path 463" class="s87" d="m202 543v-19l-9-3-1-7h13l3 9 4 13h19l9 2 4 3 2 13-4 4v6h-6l-3-6h-7l-2-4h-8l-4-11h-8z"/>
		<path id="Path 464" class="s55" d="m518 535v-12l-4-6 10-3 8 2 8 4 2 12-8 2-1 6h-11v-4z"/>
		<path id="Path 465" class="s63" d="m834 521v-7h18l6 4v11h-4l-10-8z"/>
		<path id="Path 466" class="s40" d="m86 522l7-7v1l-7 8z"/>
		<path id="Path 467" class="s73" d="m266 516l3-1 3 1v5l-2 6-6-4z"/>
		<path id="Path 468" class="s74" d="m284 518l4-3 5 1 4 10 1 6-4 4h-6l-4-10z"/>
		<path id="Path 469" class="s35" d="m293 516l3-1 4 3v8h-3z"/>
		<path id="Path 470" class="s79" d="m674 524l1-8h3v4 6z"/>
		<path id="Path 471" class="s79" d="m701 518l9-2v13l-1 2-4-2-7-5v-5z"/>
		<path id="Path 472" class="s63" d="m870 518l4-2h4l6 5v11l-2 4h-3l-5-4z"/>
		<path id="Path 473" class="s61" d="m138 520l5-2h5l2 2-4 8h-8z"/>
		<path id="Path 474" class="s14" d="m272 521l8-3h4v8l-8 3v5h-6v-7z"/>
		<path id="Path 475" class="s78" d="m300 526v-8h12l6 6v8l-7 2-6-7z"/>
		<path id="Path 476" class="s47" d="m386 520l14-2v2 4l-6 5v9l-4 3v5h-6l-5-2-3-2v-6l7-1v-7z"/>
		<path id="Path 477" class="s73" d="m400 520l10-2h6l16 4v8l-2 4-4 1-4-1-2 7h-14l-2-3h-10v-9l6-5z"/>
		<path id="Path 478" class="s20" d="m858 529v-11h12l4 14z"/>
		<path id="Path 479" class="s13" d="m156 520l10-1 6 3v8l-18 10-10-4 2-8 8-2z"/>
		<path id="Path 480" class="s76" d="m380 528v-7l6-1-3 8z"/>
		<path id="Path 481" class="s54" d="m439 520l6-1-1 7h-2z"/>
		<path id="Path 482" class="s69" d="m602 547v-12l6-5v-9l3-2h3l4 3 6 7 6 7h6l2 14-2 1-9 2-8 2-7 2-3 1h-5z"/>
		<path id="Path 483" class="s28" d="m107 521l7-1 13 11-4 3-1 8h-10l-8-8h-8v-3z"/>
		<path id="Path 484" class="s72" d="m146 528l4-8h6l-2 6z"/>
		<path id="Path 485" class="s5" d="m172 522l4-2h8l2 12-12 2-2-4z"/>
		<path id="Path 486" class="s88" d="m241 526l12-6 1 6-2 8-2 7 3 6-1 7h-6l-2-13-4-3z"/>
		<path id="Path 487" class="s58" d="m432 522l7-2 3 6v1l-10 3z"/>
		<path id="Path 488" class="s54" d="m678 526v-6h4v14l4 4v8l-20 1-2-6 4-4 6 1 3-3z"/>
		<path id="Path 489" class="s31" d="m830 536v-11l4-4h10l10 8v11l-4 3z"/>
		<path id="Path 490" class="s11" d="m83 527v-4l3-1v2 1z"/>
		<path id="Path 491" class="s89" d="m624 529l-6-7 6 3z"/>
		<path id="Path 492" class="s54" d="m653 539l-11-3v-14h4l2 9 7 2z"/>
		<path id="Path 493" class="s51" d="m259 526l5-3 6 4v7l-6 2-5-3z"/>
		<path id="Path 494" class="s71" d="m462 528l1-5 5 2v3z"/>
		<path id="Path 495" class="s81" d="m468 525l7-2-1 5h-6z"/>
		<path id="Path 496" class="s34" d="m895 532l2-9h3l5 5v2z"/>
		<path id="Path 497" class="s66" d="m670 525l4-1 4 2-1 9-3 3-6-1v-10z"/>
		<path id="Path 498" class="s59" d="m690 532l2-8h6l7 5-1 2-10 1z"/>
		<path id="Path 499" class="s31" d="m83 527l3-2 2 5v6l-8 2v-4z"/>
		<path id="Path 500" class="s69" d="m655 533l7-8 6 2v10l-4 4 2 6v1h-12l-1-9z"/>
		<path id="Path 501" class="s82" d="m231 536v-5l5-5h5l-1 12z"/>
		<path id="Path 502" class="s82" d="m252 534l2-8h5v7l-2 1z"/>
		<path id="Path 503" class="s5" d="m276 534v-5l8-3 4 10-4 6h-5z"/>
		<path id="Path 504" class="s62" d="m298 532l-1-6h3l5 1 6 7v3h-1-6z"/>
		<path id="Path 505" class="s66" d="m442 527v-1h2v1z"/>
		<path id="Path 506" class="s7" d="m78 533l5-6-3 7h-2z"/>
		<path id="Path 507" class="s69" d="m432 530l10-3h2l4 3v14h-8v-6l-10-4z"/>
		<path id="Path 508" class="s85" d="m560 538l14 2 6-2 3-11h4l2 17 8 4 5-1 2 11-7 4 6 2 4 1v1l-13 3-20 4-1-6-5-1-7-1-1-1z"/>
		<path id="Path 509" class="s9" d="m133 531l5-3h8l-2 8-6 1z"/>
		<path id="Path 510" class="s48" d="m376 530l4-2h3v7l-7 1z"/>
		<path id="Path 511" class="s66" d="m460 530l2-2h6 6v14h-4l-3-4-6-1z"/>
		<path id="Path 512" class="s52" d="m739 532l4-4h5l-1 10-5 5 1 6 12 6v1l-4-1-5-2-4-2-4-3h-2l-8-2v-6l-6-2v-5l16 8z"/>
		<path id="Path 513" class="s48" d="m747 538l1-10h6l4 4-3 5z"/>
		<path id="Path 514" class="s24" d="m905 530v-2l2 3z"/>
		<path id="Path 515" class="s76" d="m340 548l2-9 12-3 9-7 13 1v6 6h-8-9l-1 4h-9l-4 5h-2z"/>
		<path id="Path 516" class="s53" d="m704 531l1-2 4 2-1 4h-3z"/>
		<path id="Path 517" class="s55" d="m709 531l1-2 12 4v5h-2l-16 2h-9l-2-3 1-5 10-1 1 4h3z"/>
		<path id="Path 518" class="s34" d="m850 543l4-3v-11h4l16 3 5 4v4l-5 11v13h-4l-5-6h-8l-7-4z"/>
		<path id="Path 519" class="s36" d="m88 536v-6l8 1v3 2z"/>
		<path id="Path 520" class="s30" d="m154 540l18-10 2 4v15l-16 2-4-4z"/>
		<path id="Path 521" class="s85" d="m448 544v-14h12l1 7 6 1 3 4v23l6 2v9l-16-2-2-10-1-7-8-5z"/>
		<path id="Path 522" class="s31" d="m895 532l10-2 2 1 3 6v3 1 5 1l-2 4-3 4-2-7-9-7v-9z"/>
		<path id="Path 523" class="s13" d="m122 542l1-8 4-3h6l5 6-8 9h-3l-1-4z"/>
		<path id="Path 524" class="s90" d="m174 534l12-2 4 5v6l-4 2v7h-11l-1-3z"/>
		<path id="Path 525" class="s91" d="m294 536l4-4 6 5h6v12l4 4 2 5h11v4l6 4v9l3 3v2h-9l-8-8h-7l-4-7v-9l-14-6z"/>
		<path id="Path 526" class="s48" d="m311 534l7-2h2l-2 10-7-5z"/>
		<path id="Path 527" class="s66" d="m533 540l1-6 8-2 14 1 4 5v26h-10v-4l-8-4v-5l-9-5z"/>
		<path id="Path 528" class="s85" d="m691 537l-1-5h4l-1 5z"/>
		<path id="Path 529" class="s23" d="m882 536l2-4h10v9l-12-1z"/>
		<path id="Path 530" class="s0" d="m910 534l-1-2 2 2z"/>
		<path id="Path 531" class="s52" d="m257 534l2-1 5 3-4 8h-4z"/>
		<path id="Path 532" class="s49" d="m78 538v-4h2v4z"/>
		<path id="Path 533" class="s5" d="m96 536v-2h8l8 8v6h-8l-8-2z"/>
		<path id="Path 534" class="s90" d="m253 547l-3-6 2-7h5l-1 10z"/>
		<path id="Path 535" class="s10" d="m264 536l6-2h6l3 8-3 3v15l-8 1-8 2-6-1-2-8 1-7 3-3h4z"/>
		<path id="Path 536" class="s74" d="m420 541l2-7 4 1v5l-6 5z"/>
		<path id="Path 537" class="s62" d="m426 535l4-1 10 4v6 11l4 2 2 7v8l-18 1-6-3-2-20v-5l6-5z"/>
		<path id="Path 538" class="s16" d="m910 536v-2h1v2z"/>
		<path id="Path 539" class="s58" d="m512 536l4-1v5l-4 1z"/>
		<path id="Path 540" class="s54" d="m512 541l4-1v-5h2l4 1v4 8l-4 1v3l-3 3-4-2v-5z"/>
		<path id="Path 541" class="s43" d="m80 538l8-2h8v10l-4 3-1 6h-2l-5-2h-1l-3-4v-3z"/>
		<path id="Path 542" class="s82" d="m138 537l6-1 10 4v7l-11 11h-11l-2-12z"/>
		<path id="Path 543" class="s92" d="m284 542l4-6h6v14l-4 1z"/>
		<path id="Path 544" class="s63" d="m828 542l2-6 20 7v11h-4v-3l-11-9z"/>
		<path id="Path 545" class="s36" d="m879 540v-4h3v4z"/>
		<path id="Path 546" class="s93" d="m910 537v-1h1v4h-1z"/>
		<path id="Path 547" class="s51" d="m314 553l-4-4v-12h1l7 5-2 8 10 4z"/>
		<path id="Path 548" class="s24" d="m686 538l5-1h2l2 3h9v6h-18z"/>
		<path id="Path 549" class="s19" d="m78 545v-7h2v8z"/>
		<path id="Path 550" class="s52" d="m390 546v-5l4-3h10l2 3v7l-7 3-8-1z"/>
		<path id="Path 551" class="s50" d="m704 540l16-2v8h-5-11z"/>
		<path id="Path 552" class="s45" d="m720 546v-8h2l6 2v6h-2z"/>
		<path id="Path 553" class="s69" d="m522 548v-8h11v6l9 5v5l8 4v4l-2 6h-7l-4-6-6-1v-9z"/>
		<path id="Path 554" class="s15" d="m874 564v-13l5-11h3l12 1 9 7 2 7v1h-8l-3 8h-8l-2 4z"/>
		<path id="Path 555" class="s40" d="m910 540h1v1h-1z"/>
		<path id="Path 556" class="s18" d="m911 540h1v1h-1z"/>
		<path id="Path 557" class="s24" d="m406 548v-7h14v4 5z"/>
		<path id="Path 558" class="s2" d="m910 546v-5h1 1v5h-1z"/>
		<path id="Path 559" class="s30" d="m112 548v-6h10 4l1 4-5 6z"/>
		<path id="Path 560" class="s90" d="m276 560v-15l3-3h5l6 9v3l-5 2v4z"/>
		<path id="Path 561" class="s47" d="m358 546l1-4h9v4l-6 2z"/>
		<path id="Path 562" class="s73" d="m368 546v-4h8l3 2-1 6h-6z"/>
		<path id="Path 563" class="s69" d="m476 567l-6-2v-23h4l2 4v7l6 6v7z"/>
		<path id="Path 564" class="s23" d="m826 544l2-2h7l11 9v3l1 14v4l7 5v12h-9l-7-4 1-6-3-3-2-6h-6l-4-17z"/>
		<path id="Path 565" class="s87" d="m186 552v-7l4-2 2 1 3 9 10-1 5 2v4l-6 7v5h-14l-4-10z"/>
		<path id="Path 566" class="s82" d="m192 544l10-1h2l1 9-10 1z"/>
		<path id="Path 567" class="s88" d="m205 552l-1-9h8l4 11-2 4h-4v-4z"/>
		<path id="Path 568" class="s52" d="m378 550l1-6 5 2v5l-2 3h-4z"/>
		<path id="Path 569" class="s10" d="m446 564l-2-7-4-2v-11h8l1 8 8 5 1 7z"/>
		<path id="Path 570" class="s34" d="m824 553l-8-3v-6h10z"/>
		<path id="Path 571" class="s26" d="m78 548v-3l2 1v3h-1z"/>
		<path id="Path 572" class="s55" d="m506 557l-4-3v-6l5-3 1 3v5z"/>
		<path id="Path 573" class="s24" d="m91 555l1-6 4-3 8 2-2 8h-2z"/>
		<path id="Path 574" class="s14" d="m112 548l10 4 5-6h3l2 12 3 12-3 4h-20l-2-4h-6v-8l2-3-3-1-1-2 2-8z"/>
		<path id="Path 575" class="s73" d="m345 551l4-5h9l4 2v6l-1 1-10 1z"/>
		<path id="Path 576" class="s50" d="m362 548l6-2 4 4v6h-6l-4-2z"/>
		<path id="Path 577" class="s24" d="m384 551v-5h6l1 4z"/>
		<path id="Path 578" class="s85" d="m482 559l-6-6v-7h5l5 5v8z"/>
		<path id="Path 579" class="s6" d="m666 547l20-1h18 11v1l-49 1z"/>
		<path id="Path 580" class="s93" d="m715 547v-1h5 6v1z"/>
		<path id="Path 581" class="s2" d="m726 547v-1h2l8 2z"/>
		<path id="Path 582" class="s68" d="m910 547v-1h1v1 2h-1z"/>
		<path id="Path 583" class="s18" d="m911 546h1v1h-1z"/>
		<path id="Path 584" class="s90" d="m132 558h11l11-11 4 4-3 8-9 3v8h-11z"/>
		<path id="Path 585" class="s17" d="m908 551l2-4v2l-1 2z"/>
		<path id="Path 586" class="s48" d="m334 552l1-4h5l3 3-2 1z"/>
		<path id="Path 587" class="s14" d="m399 551l7-3 14 2 2 20h-10l-4-3v-5l-9-6z"/>
		<path id="Path 588" class="s66" d="m508 553v-5h3v5z"/>
		<path id="Path 589" class="s66" d="m518 552v-3l4-1 9 6v9l6 1 4 6-2 13-9-3-3-6-6-2 1-17z"/>
		<path id="Path 590" class="s12" d="m638 550l16-2-18 4v-1z"/>
		<path id="Path 591" class="s11" d="m742 552l-4-4 4 3z"/>
		<path id="Path 592" class="s0" d="m83 553l-4-4h1z"/>
		<path id="Path 593" class="s77" d="m158 551l16-2 1 3-5 7v7h-9l-1 7-14-3v-8l9-3z"/>
		<path id="Path 594" class="s7" d="m909 551l1-2h1l-2 3z"/>
		<path id="Path 595" class="s83" d="m290 551l4-1 14 6v9l4 7h-8l-2-9-4-4h-6l-2-5z"/>
		<path id="Path 596" class="s62" d="m372 556v-6h6v4 2z"/>
		<path id="Path 597" class="s90" d="m384 551l7-1 8 1v5l9 6v5l-21 1-5-5v-9z"/>
		<path id="Path 598" class="s3" d="m341 552l2-1h2l6 5-1 12h-8l-2-3v-9z"/>
		<path id="Path 599" class="s40" d="m627 553l9-2v1z"/>
		<path id="Path 600" class="s33" d="m742 552v-1l4 2z"/>
		<path id="Path 601" class="s12" d="m905 555l3-4h1v1l-5 13-10 13h-1l5-10 7-12z"/>
		<path id="Path 602" class="s88" d="m170 566v-7l5-7h11v8h-5l-4 6z"/>
		<path id="Path 603" class="s43" d="m333 554l1-2h7l-1 4z"/>
		<path id="Path 604" class="s70" d="m511 553l4 2 3-3 4 3-1 17-13-4-2-11 2-4z"/>
		<path id="Path 605" class="s94" d="m327 558h-11l-2-5 12 1z"/>
		<path id="Path 606" class="s20" d="m789 568l1-15 8 2v6l3 2-2 10h-1-1l-4-2z"/>
		<path id="Path 607" class="s92" d="m214 558l2-4h8l2 4 1 8-3 2-6-3z"/>
		<path id="Path 608" class="s91" d="m242 564v-6l4-4h6l2 8-5 2v7l-3 3-4-1z"/>
		<path id="Path 609" class="s91" d="m285 560v-4l5-2 2 5-6 2z"/>
		<path id="Path 610" class="s24" d="m327 558l-1-4h7l7 2v9l-7 1-6-4z"/>
		<path id="Path 611" class="s90" d="m361 555l1-1 4 2v2h-4z"/>
		<path id="Path 612" class="s14" d="m378 556v-2h4v9h-4z"/>
		<path id="Path 613" class="s15" d="m847 568l-1-14h4l7 4h8l5 6v8z"/>
		<path id="Path 614" class="s16" d="m100 558l-9-3 9 1z"/>
		<path id="Path 615" class="s14" d="m351 556l10-1 1 3h4l-1 8-15 4v-2z"/>
		<path id="Path 616" class="s33" d="m757 558l-6-3 4 1z"/>
		<path id="Path 617" class="s43" d="m755 556v-1l8 4v1h-1-1l-4-2z"/>
		<path id="Path 618" class="s16" d="m761 559h1v1h-1z"/>
		<path id="Path 619" class="s49" d="m100 558v-2h2l1 2z"/>
		<path id="Path 620" class="s77" d="m366 558v-2h6 6v7l-2 7-8 1-3-5z"/>
		<path id="Path 621" class="s34" d="m894 564l3-8h8l-7 12z"/>
		<path id="Path 622" class="s49" d="m86 562l17-4 3 1-2 3h-12l-7 2z"/>
		<path id="Path 623" class="s77" d="m204 570v-5l6-7h4l4 7 6 3 2 10h14l3 4v3l-3 1-16 4-2-10-11-2z"/>
		<path id="Path 624" class="s88" d="m227 566l-1-8h7l3 6z"/>
		<path id="Path 625" class="s95" d="m286 561l6-2h6l4 4 2 9-4 3 1 17h-5-4v-19l-6-3z"/>
		<path id="Path 626" class="s81" d="m482 566v-7h4v7z"/>
		<path id="Path 627" class="s24" d="m763 560v-1l7 3z"/>
		<path id="Path 628" class="s77" d="m177 566l4-6h5l4 10-7 2-5-2z"/>
		<path id="Path 629" class="s74" d="m268 561l8-1h9l1 1v9l-14 4-4-6z"/>
		<path id="Path 630" class="s16" d="m770 563l-7-3 7 2z"/>
		<path id="Path 631" class="s95" d="m260 563l8-2v7h-8z"/>
		<path id="Path 632" class="s7" d="m87 573l-4-1v-9l3-1-1 2-1 6z"/>
		<path id="Path 633" class="s3" d="m85 564l7-2 2 8h10 6l2 4h20l3-4h11l14 3h2l3 13 15-2h22l2 10-1 6h-3l-15-4-11-2-5-1h-3l-11-3-7-2-8-2-12-3h-2l-5-2-10-2-5-1h-3l-10-3-5-2h-1l-3-3z"/>
		<path id="Path 634" class="s24" d="m104 570h-10l-2-8h12z"/>
		<path id="Path 635" class="s74" d="m246 574l3-3v-7l5-2 6 1v5l-4 9v14l-6 1-7-7v-3l3-2z"/>
		<path id="Path 636" class="s33" d="m603 564l-6-2 6 1z"/>
		<path id="Path 637" class="s91" d="m376 570l2-7h4l5 5 21-1 4 3h10l6 3v16l3 3 24 1 1 5-34-1-8-4-16-1-1-4-1-8h-9l-6-6h-4z"/>
		<path id="Path 638" class="s16" d="m603 564v-1l4 2z"/>
		<path id="Path 639" class="s16" d="m783 568l-8-1-4-4z"/>
		<path id="Path 640" class="s10" d="m227 566l9-2h6v9l-2 5h-14l-2-10z"/>
		<path id="Path 641" class="s91" d="m446 572v-8h12l2 10-3 1-7 1z"/>
		<path id="Path 642" class="s94" d="m541 570h7l2-6h10l1 1-1 11-7 2-3 3-11 3v-1z"/>
		<path id="Path 643" class="s20" d="m870 572v-8h4l10 4 2-4h8l4 4-5 10-2 2h-7l-5-6z"/>
		<path id="Path 644" class="s10" d="m333 566l7-1 2 3h8v2 7l-14 1-3-3z"/>
		<path id="Path 645" class="s83" d="m560 576l1-11 7 1 2 8v4z"/>
		<path id="Path 646" class="s16" d="m607 566v-1l10 3h-2l-6-1z"/>
		<path id="Path 647" class="s90" d="m160 573l1-7h9 7l1 4 5 2 7-2h14l7 8 11 2 2 10 16-4v8l-10 1-3 7h-1l-12-1-2-7h-8l-2-10h-22l-5-10-13-1z"/>
		<path id="Path 648" class="s92" d="m350 570l15-4 3 5-4 7-14-1z"/>
		<path id="Path 649" class="s83" d="m476 567l6-1h4 2v10h-12z"/>
		<path id="Path 650" class="s94" d="m488 576v-10h5l3 5h12l4 6v10l-5 5h-5v-7l-5-2-3-6z"/>
		<path id="Path 651" class="s94" d="m570 574l-2-8 5 1 1 6z"/>
		<path id="Path 652" class="s73" d="m594 569l13-3 2 1-3 6-12-1z"/>
		<path id="Path 653" class="s45" d="m606 573l3-6 6 1 1 2-2 5h-7z"/>
		<path id="Path 654" class="s91" d="m256 591v-14l4-9h8l4 6 4 16-10 2-6 1z"/>
		<path id="Path 655" class="s81" d="m508 571v-3l13 4 6 2 3 6 9 3v1l-1 10h-5l-2-1-3 1h-7l-3-5-6-2v-10z"/>
		<path id="Path 656" class="s32" d="m616 570l-1-2h2l3 1 6 3h-4z"/>
		<path id="Path 657" class="s16" d="m788 570l-4-2h2z"/>
		<path id="Path 658" class="s3" d="m788 570l-2-2h3l4 3h-2z"/>
		<path id="Path 659" class="s34" d="m854 589v-12l-7-5v-4l23 4 9 2 5 6h7l-7 9-5 1h-21-3z"/>
		<path id="Path 660" class="s52" d="m574 573l20-4v3l-1 9h-4v3l-6 12-13-8v-10-4z"/>
		<path id="Path 661" class="s83" d="m272 574l14-4 6 3v19l-16-2z"/>
		<path id="Path 662" class="s83" d="m368 571l8-1 1 4h4l6 6h9l1 8-32-2-1-8z"/>
		<path id="Path 663" class="s73" d="m614 575l2-5 6 2 10 6v7l-6 1-11-4z"/>
		<path id="Path 664" class="s16" d="m791 572l-3-2 3 1z"/>
		<path id="Path 665" class="s34" d="m828 576v-6h6l2 6z"/>
		<path id="Path 666" class="s6" d="m791 572v-1h2l4 2z"/>
		<path id="Path 667" class="s14" d="m162 573l13 1 5 10-15 2z"/>
		<path id="Path 668" class="s89" d="m301 592l-1-17 4-3h8 7l8 8h9v8l-6 2-10 1-10 1z"/>
		<path id="Path 669" class="s95" d="m428 573l18-1 4 4 7-1 1 7 6 8 10 2v6h-18l-1-5-24-1-3-3z"/>
		<path id="Path 670" class="s76" d="m589 584v-3h4l1-9 12 1 1 2-5 6v9z"/>
		<path id="Path 671" class="s17" d="m632 578l-10-6h4 2l5 2 2 1 4 2 4 4z"/>
		<path id="Path 672" class="s92" d="m240 578l2-5 4 1v6l-3 2z"/>
		<path id="Path 673" class="s33" d="m806 578l-8-5h1l5 2z"/>
		<path id="Path 674" class="s89" d="m457 575l3-1 16 2h12l6 1 3 6 5 2v7l-1 1-17 1-10-2-10-2-6-8z"/>
		<path id="Path 675" class="s78" d="m602 590v-9l5-6h7l1 7 11 4-5 7-13-1z"/>
		<path id="Path 676" class="s37" d="m806 578l-2-3 9 4v1z"/>
		<path id="Path 677" class="s51" d="m553 578l7-2 10 2v10l-6 1-8-4z"/>
		<path id="Path 678" class="s15" d="m828 584v-8h8l3 3-1 6-9-1z"/>
		<path id="Path 679" class="s95" d="m336 578l14-1 14 1 1 8-3 3h-13-7l-6-1v-8z"/>
		<path id="Path 680" class="s11" d="m643 581l-4-4 12 8 1 6z"/>
		<path id="Path 681" class="s49" d="m111 580l-5-2 5 1z"/>
		<path id="Path 682" class="s73" d="m550 581l3-3 3 7-6-1z"/>
		<path id="Path 683" class="s48" d="m626 586l6-1v-7l11 3 9 10v1l5 16-15 1 3 13-19-5-8-1-1-14-9-6v-4l13 1z"/>
		<path id="Path 684" class="s40" d="m891 580l2-2h1l-3 8-7 4v-1z"/>
		<path id="Path 685" class="s32" d="m111 580v-1l10 2v1z"/>
		<path id="Path 686" class="s40" d="m813 580v-1h1l4 2 4 2z"/>
		<path id="Path 687" class="s11" d="m121 582v-1l5 2z"/>
		<path id="Path 688" class="s85" d="m539 584l11-3v3 7l-3 5h-2l-6-1-1-1z"/>
		<path id="Path 689" class="s16" d="m140 586l-5 1-7-4z"/>
		<path id="Path 690" class="s40" d="m837 588l-9-1-5-4 5 1h1z"/>
		<path id="Path 691" class="s59" d="m550 591v-7l6 1 8 4v5z"/>
		<path id="Path 692" class="s47" d="m583 596l6-12 13 6 6 2v4l-2 10h-3l-10-7-9-1z"/>
		<path id="Path 693" class="s39" d="m837 588l-8-4 9 1 7 4h9l1 1h-4-7z"/>
		<path id="Path 694" class="s62" d="m240 586l3-1 7 7 6-1 4 2v5l-3 6h-1-10-4l-1-2-1-8z"/>
		<path id="Path 695" class="s74" d="m362 589l3-3 32 2 1 4 16 1 8 4 34 1h18l1 7-4 2-25 4-1 1-2-3-19-1-36-10-10-2-12-2z"/>
		<path id="Path 696" class="s85" d="m507 592l5-5 6 2 3 5-4 2-4 2h-3z"/>
		<path id="Path 697" class="s96" d="m155 591l-7-3 7 2z"/>
		<path id="Path 698" class="s58" d="m330 590l6-2 6 1-1 4 4 3-1 4h-4-10v-2z"/>
		<path id="Path 699" class="s55" d="m564 589l6-1 13 8 1 2-2 11-7-1-7-3h-1l-3-2v-9z"/>
		<path id="Path 700" class="s47" d="m345 596l-4-3 1-4h7l1 2v5z"/>
		<path id="Path 701" class="s3" d="m350 591l-1-2h13l4 5z"/>
		<path id="Path 702" class="s12" d="m879 590l5-1v1l-5 2z"/>
		<path id="Path 703" class="s33" d="m155 591v-1l11 3z"/>
		<path id="Path 704" class="s62" d="m266 592l10-2 16 2h4v6l-6 2h-8l-16-2z"/>
		<path id="Path 705" class="s91" d="m310 592l10-1v7h-1l-9-1z"/>
		<path id="Path 706" class="s66" d="m320 591l10-1v8h-10z"/>
		<path id="Path 707" class="s11" d="m851 592l-7-2h7z"/>
		<path id="Path 708" class="s96" d="m851 592v-2h4 3v2z"/>
		<path id="Path 709" class="s41" d="m858 592v-2h21v2z"/>
		<path id="Path 710" class="s76" d="m350 596v-5l16 3 12 2v5l-10-1-6-1z"/>
		<path id="Path 711" class="s52" d="m547 596l3-5 14 3v9h-1-1l-5-2-8-3z"/>
		<path id="Path 712" class="s10" d="m260 593l6-1v6h-6z"/>
		<path id="Path 713" class="s10" d="m296 598v-6h5 9v5z"/>
		<path id="Path 714" class="s83" d="m474 598v-6l10 2v4z"/>
		<path id="Path 715" class="s10" d="m501 593l1-1h5l3 6-6 2h-2z"/>
		<path id="Path 716" class="s74" d="m657 608l-5-16 4 3 1 7 2 3 1 3v2z"/>
		<path id="Path 717" class="s33" d="m174 595l-5-2 5 1z"/>
		<path id="Path 718" class="s74" d="m484 594l17-1 1 7-2 1-6 2h-5-1l-4-5z"/>
		<path id="Path 719" class="s0" d="m528 594l3-1-3 2z"/>
		<path id="Path 720" class="s6" d="m174 595v-1l11 2v2z"/>
		<path id="Path 721" class="s14" d="m203 600l1-6h8l2 7h-9z"/>
		<path id="Path 722" class="s3" d="m227 602l3-7 10-1 1 8-6 1h-1-5z"/>
		<path id="Path 723" class="s16" d="m517 596l4-2h7v1l-11 2z"/>
		<path id="Path 724" class="s0" d="m539 595l-6-1h5z"/>
		<path id="Path 725" class="s0" d="m545 598l-6-3 6 1z"/>
		<path id="Path 726" class="s19" d="m185 598v-2l15 4h-1z"/>
		<path id="Path 727" class="s55" d="m344 600l1-4h5l12 3v3h-10z"/>
		<path id="Path 728" class="s47" d="m378 601v-5l10 2v4z"/>
		<path id="Path 729" class="s33" d="m513 598l4-2v1z"/>
		<path id="Path 730" class="s49" d="m545 598v-2h2l2 2z"/>
		<path id="Path 731" class="s52" d="m606 606l2-10 9 6 1 14-11-2z"/>
		<path id="Path 732" class="s45" d="m296 598l14-1 9 1 1 12-9-1-10-1h-11v-8z"/>
		<path id="Path 733" class="s45" d="m257 604l3-6h6l16 2v6h-6-6-3z"/>
		<path id="Path 734" class="s50" d="m320 610l-1-12h1 10v2 12l-7-1z"/>
		<path id="Path 735" class="s73" d="m388 602v-4l36 10v5l-8-1-23-7z"/>
		<path id="Path 736" class="s10" d="m475 605l-1-7h10l4 5-9 2z"/>
		<path id="Path 737" class="s49" d="m555 601l-6-3 8 3z"/>
		<path id="Path 738" class="s58" d="m582 609l2-11 9 1 10 7-1 8-6-1h-5l-3-1h-5z"/>
		<path id="Path 739" class="s60" d="m362 602v-3l6 1v3h-6z"/>
		<path id="Path 740" class="s11" d="m205 602l-6-2h1 3l2 1z"/>
		<path id="Path 741" class="s50" d="m282 606v-6h8v8h-3z"/>
		<path id="Path 742" class="s45" d="m330 612v-12h10l-2 13h-4z"/>
		<path id="Path 743" class="s47" d="m338 613l2-13h4l8 2v6 6h-1-4l-6-1z"/>
		<path id="Path 744" class="s55" d="m368 603v-3l10 1 10 1 5 3v3z"/>
		<path id="Path 745" class="s11" d="m500 601l2-1h2l-4 2z"/>
		<path id="Path 746" class="s40" d="m205 602v-1h9l12 1v1z"/>
		<path id="Path 747" class="s0" d="m494 603l6-2v1z"/>
		<path id="Path 748" class="s7" d="m562 603l-7-2h2z"/>
		<path id="Path 749" class="s68" d="m226 603v-1h1l2 1z"/>
		<path id="Path 750" class="s95" d="m235 603l6-1 1 2h-5z"/>
		<path id="Path 751" class="s76" d="m352 608v-6h10v1l-2 5z"/>
		<path id="Path 752" class="s0" d="m237 605l-3-2h1l2 1z"/>
		<path id="Path 753" class="s78" d="m352 608h8l2-5h6l25 5 23 7 10 4-2 5-6 1h-2l-1-1-7-2h-3-6l-8-1h-2-2l-10-2-4-1h-3l-5-2-13-2z"/>
		<path id="Path 754" class="s33" d="m479 605l9-2h1z"/>
		<path id="Path 755" class="s7" d="m567 605l-4-2h1z"/>
		<path id="Path 756" class="s16" d="m237 605v-1h5 4v1z"/>
		<path id="Path 757" class="s6" d="m246 605v-1h10v1z"/>
		<path id="Path 758" class="s22" d="m256 605v-1h1l10 2h-5z"/>
		<path id="Path 759" class="s0" d="m262 607l-6-2 6 1z"/>
		<path id="Path 760" class="s53" d="m393 608v-3l23 7v3z"/>
		<path id="Path 761" class="s18" d="m471 607l4-2h4z"/>
		<path id="Path 762" class="s0" d="m660 608l-1-3 2 3z"/>
		<path id="Path 763" class="s33" d="m262 607v-1h5 3v1z"/>
		<path id="Path 764" class="s93" d="m270 607v-1h6v1z"/>
		<path id="Path 765" class="s49" d="m276 607v-1h6l5 2z"/>
		<path id="Path 766" class="s50" d="m602 614l1-8h3l1 8z"/>
		<path id="Path 767" class="s42" d="m311 610l-10-2 10 1z"/>
		<path id="Path 768" class="s47" d="m424 613v-5l19 1 2 3v1l-3 2h-4z"/>
		<path id="Path 769" class="s36" d="m645 622l-3-13 15-1 3 2v2l-2 7-6 5z"/>
		<path id="Path 770" class="s32" d="m660 610v-2h1l4 6v2l-5-4z"/>
		<path id="Path 771" class="s32" d="m311 610v-1l9 1 3 1-1 1z"/>
		<path id="Path 772" class="s40" d="m322 612l1-1 7 1 4 1z"/>
		<path id="Path 773" class="s16" d="m445 612l1-1 3 3v7l-1-1-3-7z"/>
		<path id="Path 774" class="s57" d="m416 615v-3l8 1 14 2 1 5-1 3-6-2-6-2z"/>
		<path id="Path 775" class="s48" d="m658 619l2-7 5 4 1 4z"/>
		<path id="Path 776" class="s7" d="m347 615l-6-2 6 1z"/>
		<path id="Path 777" class="s74" d="m442 615l3-2 3 7h-6z"/>
		<path id="Path 778" class="s6" d="m618 617h-12l-10-4 6 1h5l11 2z"/>
		<path id="Path 779" class="s6" d="m347 615v-1h4v1z"/>
		<path id="Path 780" class="s93" d="m351 615v-1h1l13 2v2z"/>
		<path id="Path 781" class="s40" d="m665 616v-2l2 3z"/>
		<path id="Path 782" class="s64" d="m439 620l-1-5h4v5z"/>
		<path id="Path 783" class="s22" d="m365 618v-2l5 2z"/>
		<path id="Path 784" class="s49" d="m618 617v-1l8 1v1z"/>
		<path id="Path 785" class="s14" d="m666 620l-1-4 2 1 3 4-2 5h-2z"/>
		<path id="Path 786" class="s32" d="m626 618v-1l19 5 7 2v1h-1-5l-2-2z"/>
		<path id="Path 787" class="s40" d="m670 621l-3-4 5 4z"/>
		<path id="Path 788" class="s49" d="m377 620l-4-2 4 1z"/>
		<path id="Path 789" class="s32" d="m377 620v-1l10 2z"/>
		<path id="Path 790" class="s47" d="m424 624l2-5 6 2-3 5h-4z"/>
		<path id="Path 791" class="s43" d="m652 624l6-5 8 1v6h-9l-5-1z"/>
		<path id="Path 792" class="s3" d="m391 621l8 1h-3z"/>
		<path id="Path 793" class="s54" d="m438 623l1-3h3 6l1 1v2l-2 4-9-3z"/>
		<path id="Path 794" class="s7" d="m396 623l-7-2h2l5 1z"/>
		<path id="Path 795" class="s45" d="m429 626l3-5 6 2v1l-1 4h-3-2z"/>
		<path id="Path 796" class="s2" d="m668 626l2-5h2v6h-4z"/>
		<path id="Path 797" class="s68" d="m396 623v-1h3 6v1z"/>
		<path id="Path 798" class="s97" d="m405 623v-1h3v1z"/>
		<path id="Path 799" class="s91" d="m408 623v-1l7 2z"/>
		<path id="Path 800" class="s7" d="m416 625l-8-2 7 1z"/>
		<path id="Path 801" class="s22" d="m447 627l2-4 5 7 1 3h-2z"/>
		<path id="Path 802" class="s22" d="m418 625l6-1 1 2h-7z"/>
		<path id="Path 803" class="s50" d="m437 628l1-4 9 3 6 6v6l-1 11-1 4h-3l-2-8v-6l-1-5-4-2z"/>
		<path id="Path 804" class="s33" d="m657 627l-6-2h1l5 1z"/>
		<path id="Path 805" class="s33" d="m432 628l-14-2h7 4z"/>
		<path id="Path 806" class="s93" d="m657 627v-1h9 2v1z"/>
		<path id="Path 807" class="s12" d="m441 633l-5-1-2-4h3z"/>
		<path id="Path 808" class="s49" d="m455 633l-1-3 7 4 1 6z"/>
		<path id="Path 809" class="s12" d="m446 640l-5-7 4 2z"/>
		<path id="Path 810" class="s92" d="m453 639v-6h2l7 7v5l-5-3z"/>
		<path id="Path 811" class="s42" d="m452 650l1-11 4 3h-1l-2-1v9z"/>
		<path id="Path 812" class="s2" d="m462 645l-4 2-2-5h1z"/>
		<path id="Path 813" class="s2" d="m446 654v-8l2 8z"/>
		<path id="Path 814" class="s2" d="m451 654l1-4h2v4l-1 1h-2z"/>
		<path id="Path 815" class="s18" d="m453 654h1v1h-1z"/>
		<path id="Path 816" class="s18" d="m446 655v-1h2v1z"/>
		<path id="Path 817" class="s12" d="m448 655v-1h3v1z"/>
	</g>
</svg>