<svg version="1.2" xmlns="http://www.w3.org/2000/svg" viewBox="0 0 1000 1000" width="1000" height="1000">
	<title>Campostoma_oligolepis</title>
	<style>
		.s0 { fill: #957956 } 
		.s1 { opacity: 1;fill: #442e1c } 
		.s2 { opacity: 1;fill: #aa8d62 } 
		.s3 { opacity: 1;fill: #35291d } 
		.s4 { fill: #a18051 } 
		.s5 { opacity: 1;fill: #a5875a } 
		.s6 { opacity: 1;fill: #543620 } 
		.s7 { opacity: 1;fill: #d3ad7b } 
		.s8 { opacity: 1;fill: #a09374 } 
		.s9 { opacity: 1;fill: #c69f70 } 
		.s10 { fill: #9b7949 } 
		.s11 { opacity: 1;fill: #b8a079 } 
		.s12 { opacity: 1;fill: #957141 } 
		.s13 { opacity: 1;fill: #63452b } 
		.s14 { opacity: 1;fill: #3d3126 } 
		.s15 { opacity: 1;fill: #7d5934 } 
		.s16 { opacity: 1;fill: #96846b } 
		.s17 { opacity: 1;fill: #bb8f56 } 
		.s18 { opacity: 1;fill: #663d20 } 
		.s19 { opacity: 1;fill: #b1864f } 
		.s20 { fill: #cc873b } 
		.s21 { opacity: 1;fill: #a77b47 } 
		.s22 { opacity: 1;fill: #8f6236 } 
		.s23 { opacity: 1;fill: #282019 } 
		.s24 { opacity: 1;fill: #4e3c2d } 
		.s25 { opacity: 1;fill: #714e2c } 
		.s26 { opacity: 1;fill: #cc934c } 
		.s27 { opacity: 1;fill: #9d8b65 } 
		.s28 { opacity: 1;fill: #705437 } 
		.s29 { fill: #8b663e } 
		.s30 { opacity: 1;fill: #958f7c } 
		.s31 { opacity: 1;fill: #8b694e } 
		.s32 { opacity: 1;fill: #7d4d26 } 
		.s33 { opacity: 1;fill: #9e6935 } 
		.s34 { fill: #cc7a25 } 
		.s35 { opacity: 1;fill: #8a5a2a } 
		.s36 { opacity: 1;fill: #a7936f } 
		.s37 { opacity: 1;fill: #c3ac84 } 
		.s38 { opacity: 1;fill: #a9743c } 
		.s39 { opacity: 1;fill: #86744a } 
		.s40 { opacity: 1;fill: #b4956a } 
		.s41 { opacity: 1;fill: #948f87 } 
		.s42 { fill: #7c6449 } 
		.s43 { opacity: 1;fill: #d4a360 } 
		.s44 { opacity: 1;fill: #c79962 } 
		.s45 { opacity: 1;fill: #665547 } 
		.s46 { opacity: 1;fill: #b5b5a3 } 
		.s47 { opacity: 1;fill: #baac90 } 
		.s48 { opacity: 1;fill: #776359 } 
		.s49 { fill: #745c41 } 
		.s50 { opacity: 1;fill: #5c5c49 } 
		.s51 { fill: #e0bc89 } 
		.s52 { opacity: 1;fill: #997d4e } 
		.s53 { fill: #e6c9a0 } 
		.s54 { opacity: 1;fill: #584a31 } 
		.s55 { opacity: 1;fill: #c6baa3 } 
		.s56 { opacity: 1;fill: #a96424 } 
		.s57 { opacity: 1;fill: #bb7d3b } 
		.s58 { opacity: 1;fill: #958e60 } 
		.s59 { opacity: 1;fill: #d3b68f } 
		.s60 { opacity: 1;fill: #b0a891 } 
		.s61 { opacity: 1;fill: #6d6b52 } 
		.s62 { opacity: 1;fill: #897f5b } 
		.s63 { opacity: 1;fill: #525240 } 
		.s64 { opacity: 1;fill: #b8722b } 
		.s65 { opacity: 1;fill: #9e9994 } 
		.s66 { opacity: 1;fill: #504c49 } 
		.s67 { opacity: 1;fill: #98a0a3 } 
		.s68 { opacity: 1;fill: #a64e20 } 
		.s69 { opacity: .9;fill: #c2b59b } 
		.s70 { opacity: .8;fill: #959088 } 
		.s71 { opacity: .6;fill: #332719 } 
		.s72 { opacity: .7;fill: #a59a84 } 
		.s73 { opacity: .3;fill: #9e9376 } 
		.s74 { opacity: .3;fill: #574e3a } 
		.s75 { opacity: 1;fill: #171411 } 
		.s76 { opacity: .8;fill: #c7b9a4 } 
		.s77 { opacity: .5;fill: #939991 } 
		.s78 { opacity: .3;fill: #251d14 } 
		.s79 { opacity: .1;fill: #3e3225 } 
		.s80 { opacity: .4;fill: #3b2d1f } 
		.s81 { opacity: .3;fill: #c5b394 } 
		.s82 { opacity: .5;fill: #b49f7b } 
		.s83 { opacity: .4;fill: #6b6349 } 
		.s84 { opacity: .2;fill: #9fa5a4 } 
		.s85 { opacity: .8;fill: #6a6050 } 
		.s86 { opacity: .8;fill: #947e55 } 
		.s87 { opacity: 1;fill: #303032 } 
		.s88 { opacity: .2;fill: #cfbdb3 } 
		.s89 { opacity: .4;fill: #9b7e4d } 
		.s90 { opacity: .1;fill: #e3e6f2 } 
		.s91 { opacity: 1;fill: #0f09f4 } 
		.s92 { opacity: .3;fill: #41cfd9 } 
		.s93 { opacity: .5;fill: #160ed5 } 
	</style>
	<g id="Background">
		<path id="Path 0" class="s0" d="m447.9 400.6l5.7-3.2h3.7l5.2 3.2 1 4.1h3.2v5.2l-5.2 4.2h-4.2l-3.1-5.2h-4.2zm39.1 26.5l-2.6 1.6-4.2-1-0.5-9.4h1l7.3 5.2zm-37-1l6.8-0.6 1 7.3 4.7 0.5v2.7l-2.1 1-1.5 4.2-1.6 4.6h-4.1l-1.1-6.2-2.1-2.1h-3.6l-3.7-3.1-0.5-6.8 1.6-1zm-20.9 25.5l2.1 4.7 3.7 0.5 4.1-3.6v-2.7h3.7l1.5 5.8-2.6 3.6h-3.6l-2.1 4.2h-3.6l-3.2 4.1-5.2-4.6-4.1-0.6-1.1-2 1.1-7.8 1.5-1.6zm-38 17.7l2.6-11.5 5.7 0.6 1.1 2.6 0.5 5.2-1.6 1.5-4.1 0.5-2.1 2.7zm-48.4 1h2l3.7-4.7 4.2 3.7-0.6 8.8-2.1 1-1.5 5.8-2.1 2.1h-4.2l-0.5-2.1v-7.8zm101.1 4.6l5.7-1 6.8 0.5 2 4.2v4.2h-6.7l-1.6 2-6.2-1zm-160.5 24.5v-2.6l7.3-4.7v-3.1h3.2v9.3l10.4 8.9v4.7l-1.1 4.1h-11.4v-6.2l-2.6-2.6v-2.6l-5.8-3.2zm-28.6-1l1.6-1h4.1l1.1 6.2h13.5l2.1 3.7v13.5l-5.2 8.3-1.1 5.7v23l2.1 1 1.6 7.3 2.6 1v8.9l-10.4-0.5-1.1-1.6-4.7 1-0.5-12.5-1-2-3.1-0.6v-15.6l-2.1-1-1.1-13-7.3-5.8-1-4.6v-3.7l3.6-3.1 7.9-4.2zm307.8 28.1v-6.2h6.2l11.5 2.1-1.6 4.7-5.7 1zm-531.3 20.8v-6.2h7.3l1.1 4.1v4.2h-4.2zm141.7 1.6l1-0.6 1.6 3.2 5.7 2.6-2.1 5.7-7.3-0.5v-3.7zm679.2 90.1v-3.6l4.2-3.7v-2.6l4.1-2.6h4.2l2.1 2.1v5.2l6.2 5.7v12l-4.1 1.6v6.7l-14.6 2.1-2.1-12.5z"/>
		<path id="Path 1" class="s1" d="m416.7 378.7l8.3 0.5v7.3l1.6 1 1 9.4-4.7 1.6-6.2-0.5-4.2-0.6h-4.2l-2.6-3.1-0.5-5.2v-2.6l4.2-4.2v-3.6zm-116.2 2.1l20.3-1.1v4.2l3.2 3.1v2.1l-8.4 3.1-5.2 0.6v4.6h-6.2-4.2l-4.2-1-1.5-3.6-7.3-1.6-1.6-2.1-4.7 0.5-1.5 6.8-19.3 1.6-4.2-2.6h-3.6v-10.5l4.7-1 12.5-1zm212 7.3l6.2-4.2 7.3 1 2.1 3.2 3.6 0.5 0.6 5.7-4.2 1-0.5 2.1 8.8 1.6 13 2.6-3.6 3.1-0.5 4.7h-3.2l-2.6-3.6 1.1-2.1-5.2-2.1-4.7 1 1 2.6-1.5 2.1-5.2-0.5-1.1-5.2-2.1-1.1v-4.1l-5.7-1.6-3.6-4.1zm-317.2 13l13.5-5.8 16.2-4.1 2 4.1-2 4.2h-4.7l-3.7 2.6v5.7h-7.8l-4.7 4.7-8.3-2.6zm369.3 6.3v-4.7l45.3 7.8 38 12-0.5 3.6h-1.6l-12.5-1.6-2.1-2.6-5.2 1.1-9.4 0.5-5.7-4.7-6.8-0.5-1.5-1-8.9 1h-4.1l-4.2-3.1-8.3 1-5.2-1.5-1.6 3.1-6.3-0.5v3.1h-2l-4.2-2.1-1-5.2 3.6-4.2 4.7 3.2 3.1-2.1v-2.1zm-387.5 6.8l9.4-1.6 3.1 8.3 3.1 3.7h4.2l4.2 4.1 2.1 6.3v6.2 2.1h-15.2l-1.5 4.7-5.2 5.7h-4.2l-1.6-0.5-0.5-5.7v-4.2h4.2l2.1-2.1v-9.3l-2.6-3.2h-5.8-6.2v-5.2l6.2-1 4.2-4.2zm91.7 17.7l3.6-4.1 2.6-0.6 3.7 3.7h2.6l4.1 2.6v18.2h-3.6l-2.1 2.1h-1.5l-2.1-3.7-3.7-0.5-1.5-4.7-4.2-2zm25 1.5l4.2-5.7 4.1 2.1 2.6 4.7 3.7 0.5 1 7.3 3.1 3.1-2 4.2h-13.1l-3.6-6.3zm99-4.2l3.1-0.5 2.1 1.6-0.6 10.4-9.9 0.5v-11.4zm-72.9 4.6l6.3-1 1.5 2.1h5.8l3.1 7.3-1 9.9 2.6 0.5 3.6 2.1v5.2l1.6 1-1.6 7.8-4.2-2.6h-2.6l-1.5 2.6-3.2 2.6-2.6-1.5-3.1-2.6-0.5-6.8-3.1-0.5-2.1-3.1h-4.2l-0.5-2.1 2.6-9.9zm-76 21.8v-4.6l2.6-1.6h6.7l4.7 4.2 0.5 12.5h-3.1l-2.1-2.1h-6.7l-2.6-3.7zm370.8 1.6l2.1-3.6h4.1l3.2 2v3.2l-2.6 2.6 1.5 4.1-2.1 1.6-1 5.2-2.6 1-3.6 6.8-3.7-0.5-3.1-5.7h-2.6v-11h2.6 2.6zm-76.6 9.4l0.5-10.4 2.1-0.5h2.6l2.6 4.1v3.7l-3.1 2.1-1 4.1-3.2-0.5zm-454.6 5.7v-6.2h12.5l2 8.3-9.3 2.6zm-28.7 7.3l9.9-9.4 3.1 4.2h2.1v6.2h-13.5zm740.6 0.6l0.5-8.4 10.4 1.6 4.2 1 0.5 1.1 1.6 15.1h-7.3l-2.1-4.2-5.2-0.5zm-685.9 15.1l1.5-6.8 4.2-3.1 1.6 1.6-1.1 5.7-5.7 4.7zm-64.6-2.6l4.7-6.8 3.6 3.1h3.2l3.1 3.1v11.5l-5.2 10.4-7.8 6.3-2.6-2.1v-4.2l4.1-2.1 4.2-5.7v-7.3zm715.6 15.1l1.6-3.1 6.8-0.5v5.7l-1.1 5.2-2.6 2.6-4.7-4.2zm-577.6 9.9l1.6-5.7h11.4v1.6l-1.5 4.6zm614.6 16.2l5.2-0.5 4.7-5.8h6.2l0.5 8.9-4.1 6.8-0.6 6.7-3.1 1.6v3.1l-3.6 1-4.7-4.1h-6.3l-2.6-3.7 0.6-4.6 0.5-2.6 4.7-4.7zm38 11.4l4.1-12.5 12.5 1.1 0.6 2-0.6 9.4-6.2 0.5-1.6 14.1-6.2-0.5-2.6-2.6z"/>
		<path id="Path 2" class="s2" d="m466.7 310.5l1.5 3.6 6.8-0.5 5.2-3.6h5.2l2.1 2.1v4.6l-7.3 5.8-14.6-1.1-4.7-2.1-2.6-3.6 1.6-1.6zm-39.6 114.1h2.1l2.1-4.2h4.1v3.1l1.1 12-2.1 1.6-5.7-0.6zm102.1 23.5l2-0.6 1.1 2.1h6.2l0.6 4.2 1.5 1v1.1l-2.1 0.5-0.5 10.4h-0.5v-5.2h-4.2l-1-6.3-6.8-2 3.7-3.2zm-165.1 19.3l3.6-8.3h3.1l1.6 3.1h4.7 8.3l2.6 6.2h-9.9l-2.1 3.2-3.1 1v6.3h-4.7l-2.1 2-1.5-3.1zm150-3.1l1.5-0.5 0.6 5.7-2.1 4.2h3.6v1l-1.5 5.7h-0.6l-4.6-1.5-3.7 2.1h-3.1l-1.1-6.3 3.2-3.1v-3.1l2-2.1 5.3 1zm375.5 8.3l12.5-1 1 7.8 3.1 2.1v5.7l4.7 2.1h7.8l2.1 1.6v2.6 4.1l-1.5 1.6-7.3 1.6-5.8 7.2h-7.2l-5.3-2.6v-16.1l-3.1-6.2zm-276 7.8l3.6-6.8 2.6-1 1.1 6.2-4.2 2.6zm-139.6 10.9l4.7-0.5v5.7l4.2 1.1 0.5 14.6 0.5 20.8-2.6 2.6v7.8h-18.7v-30.7l4.1-2.6v-2.6l-2.6-2.1-1.5-4.7v-8.8l3.1-0.6zm103.1 6.3l2.1-2.1v-3.1h4.2v3.1l7.3 4.7v3.6l-2.1 4.2-5.2 1.6-6.3-1.6zm-82.3 0l3.7-3.1 6.7-1.1h4.7l1.1 11 1.5 1v8.9h-17.7l-1-2.1zm-234.4 0l1-2.1h9.4l2.6 4.2h1.6v4.1h-13.6zm106.3 39.6v-7.3l-3.7-2.1-0.5-5.2h4.2l7.3 1.1 1-1.1h8.4l1 5.7 3.1 1.6v14.6l-0.5 3.1h-5.7-7.3l-0.5-8.8-1.6-1.6zm317.7-2.1l1.1-4.2h12.5v4.2l-2.1 2.1v8.8l-9.9-0.5h-0.5zm-644.8 14.6v-4.2h6.2l1.1 3.2v4.1h-2.1zm81.2 20.8v-6.7l8.4-1.6 6.2 1.1 4.2 3.6v3.6z"/>
		<path id="Path 3" class="s3" d="m445.8 345.4h7.3l2.6-2.1 1.1 2.1h4.7l4.1 4.1 1.6-0.5 6.8-1.5 4.1-0.6 5.8 5.2-2.6 4.2 0.5 2.6-0.5 10.9-3.2-1-1 1.6-6.3 0.5-5.2-3.7-4.1-2-9.9 1-0.6-3.1-3.1-2.1v-8.3l-2.1-1.1zm-51.5 31.3l7.8-2.6 6.2 3.1 1.1 1.5v3.7l-4.2 4.2v2.6h-7.3-18.7l-11-1.1-3.6-3.1h-4.2l-4.2 1.6-1 2-2.6 1.1-3.6-0.5-2.1-1.1-22.9 1.1v-2.1l-3.2-3.1v-4.2l5.8-1.1h10.4l12.5-1h15.6zm30.7 2.6l11.5-0.5 2.6 2.1 15.1-0.6 8.3 1.6 6.3 1.1 8.3 2 7.3 0.6 9.4 1 11.4 1.6h5.2 2.1v2.6l3.7 4.1 5.7 1.6v4.2l-7.3 1h-5.2l-1.6-2.1h-9.3l-3.7 6.3h-2.1l-3.6-2.1-1-3.7h-5.8l-1 1.6-6.3-2.1-8.3 0.5-4.2 0.6-5.2-3.2h-3.6l-5.8 3.2-2-2.1-10.5 1-4.1-2.1-3.7-0.5-1-9.4-1.6-1zm-185.4 8.3l12.5-2.6v10.4h-8.8l-3.7-1.5zm-60.9 20.3l16.6-6.8 0.6 8.9h-7.3l-2.6-2.1-6.3 1zm374.5 4.2l1-6.8-3.1-3.6h6.3l6.2 1h1.1v4.7h-3.7l-0.5 1.6-3.7 4.1zm94.3 14.1l0.5-3.7 4.2 1.6v3.6h-3.6zm-268.8 16.2l0.5-9.9 2.1-3.1 6.3 0.5v11.4l-2.1 4.2h-4.2zm-265.6-2.6l9.4-4.7 0.5 5.2-4.2 3.7h-2.1l-8.8 8.8h-3.1l-0.6-5.2zm464.1 5.7l2.1-3.1 6.2 1.1 0.5 13.5-1 1h-5.2l-3.6-4.1v-2.6zm-400 8.3h4.1l5.2-5.7 1.6-4.7h15.1l4.7 8.3v7.8l-7.8 0.5v-7.8l-3.2-2.6h-7.2l-3.7 4.2-0.5 8.3-3.7 3.7-3.6-3.7zm389.6 11.5v-6.3l1.5-1h1.1l3.6 1.6v3.6l2.6 2.1-0.5 2.6-2.1 1-0.5 5.2-4.2-0.5-1.5-5.2zm-502.1 5.2l7.3-6.8 8.3-4.6 3.1 7.2v6.3l-4.1 0.5-3.7-0.5-1.5 2.1h-4.2-2.1zm416.7 0v-3.7l2.1-2.6h7.3l1.5 4.2-1.5 2.6 1 5.7h-6.2zm-281.3 2.6v-4.7h5.2l-1 6.3zm379.1 16.1l-4.1-1-1.1-6.3v-2.6l3.7-2.6 4.7 3.2 1 4.6-1 2.6zm110.9-0.5v-1.5l6.3 1v5.2l-3.7 0.5zm-655.7 25l4.7-12 5.7-8.8 7.3 6.2v7.3l-4.2 5.8-4.2 2zm152.1-16.6l1.1-2.6 10.4 1-2.1 16.7h-11.5zm616.7 26l3.1-0.5 1.1 5.2-4.7 5.7-5.2 0.5 1-6.2zm41.2 37l1.5-14.1 6.3-0.5 2.1 1.5v17.2h-8.4z"/>
		<path id="Path 4" class="s4" d="m670.8 467.2l1.1-8.8 7.3-0.6 1-2.1 4.2 3.2 1 10.4 2.1 2.1h3.1l-1 4.7 3.1 1v1.6h-3.1v4.1h-9.4v-6.7l-4.2-1.1-2-2.1v-4.7zm-377.1 21.9l4.1-5.2v-8.8l5.3-1.1 10.4 0.5 2.1 0.6 1.5 8.8 5.7 1 1.6 8.4h10.9l1.1 6.2-2.1 1.6v4.7h-10.9l-1.1 8.8-1.5 1.6h-6.3l-4.2-4.2h-6.2v-4.7l-10.4-8.8zm570.8-14.6l10.4-0.5v6.7l5.8 4.7 2.6 4.7v17.7l-4.2 3.7v4.7l-2.1 2 2.1 12.5-1 2.1-7.3-2.1-3.2-3.6-5.2-1.1v-26.5l4.2-5.2-2.1-11.5zm-141.7 12l4.7-3.6 1.6 2 7.3-1.5v7.8l-3.1 2.6v4.7h-5.8l-1.5-1.6-0.6-5.7zm-76 4.7v-6.3h6.3v3.2l2 1.5v1.6zm-390.6-2.1l0.5-3.1h4.7v9.3l-1 2.1h-4.2zm456.3 6.3l5.2-0.5 2.1 4.6h3.1v12.5h-11.5l-1-2.1v-14zm-108.4 20.8v-12.5h10.5l-2.6 12.5zm-35.5 4.2l1.6-9.4 3.1-3.1h3.7l6.2 1.5v12l-3.1 1.1zm91.7 5.2v-15.6h7.8l6.8 2v8.4l1.5 2h8.9v8.4l-1.1 4.1-13.5-0.5v-4.7l-2.1-2zm-147.9-1.1v-6.2h6.2l1.1 4.1h-2.6l-0.5 2.1zm268.7 14.6v-8.9l3.6-1.5 3.7 6.2 6.2 1.1-4.6 4.6-0.6 2.7h-4.7zm-300 4.1v-7.8l2.7-2.6h15.1l1 9.9-1.6 1-0.5 6.3-5.2 3.6h-7.3v-6.2zm-172.9 18.7l1.6-2.1h6.7l2.1 2.1v4.2 6.2h-7.3l-3.1-2zm552.1 64.5v-8.8l-2.1-3.7 1-14.6h7.3 6.3v4.2l5.2 3.6 0.5 4.7-0.5 5.8-2.1 1v6.8l-3.1 3.1h-6.3l-2.1-2.1z"/>
		<path id="Path 5" class="s5" d="m458.3 315.7l2.6 3.6 4.7 2.1 14.6 1.1 7.3-5.8v-4.6h12.5l2.1 1v15.6l6.2 3.7v10.9l4.2 3.1v5.2l-2.1 2.1h-3.1l-4.2-1h-4.1v-7.8l-2.1-1.6v-2.6l-3.7-1-1-3.2-3.7-1.5-2-3.7-12-0.5-1.6 2.1h-8.3v-3.1l-12-9.4zm-20.3 99.9l2.6-1 3.1 1.6v10.4l-1.5 1-2.1-4.1h-4.7v-3.2zm-61 46.4l0.6-6.3h7.3l0.5 2.1v4.2zm-24.5 7.3l2.1-0.6 2.1-5.7 4.1 0.5 0.6 2.6 2.6 1.1 0.5 10.4-4.2 1-8.3-0.5zm305.7 7.8l1.1-5.7 4.6 1.5-1.5 5.8zm225-4.2l6.2-0.5 1.1 10.4 3.1 6.3v16.1l-5.2 2.6h-5.2v-17.7l-2.6-4.7-5.8-4.7v-6.7zm-417.7 18.2l3.2-8.9 5.2 2.6v6.3zm-194.8-2.1l10.4-1 4.2-3.7h3.6l1.6 1v3.7 3.1l-7.3 4.7v2.6h-8.4-1.5l-2.6-4.2zm312.5 20.3l5.2-1.5 2.1-4.2h13.5v12.5l-2.1 2.1h-6.7l-2.6 4.2-9.4-1.1zm-99.5 23.4l-0.5-20.8h10.4l1 2.1h17.7v4.2 6.2l-7.2 1.6-6.3 4.7v2zm-134.9 10.5l-1-13.6-4.2-6.7v-4.7h2.1 3.1l2.6 4.1h11l0.5 5.2 3.6 2.1v7.3l-4.1 6.3zm111.4 8.3v-7.3l2.1-1h18.7l4.2 4.1v6.3h-2.1-8.3l-2.1-2.1zm-212.5 16.6v-4.6l4.2-3.7h4.1l3.2 0.5 1 2.1 0.5 12.5-13-0.5zm75-2.1v6.3h-4.2v-6.3zm543.8 33.3l-2.1-12.5 13.6 0.6 1 1.5v10.4h-6.3z"/>
		<path id="Path 6" class="s6" d="m444.3 362.6l3.6-1.6 3.1 2.1 0.6 3.1-6.3 0.5zm33.9 15.1l7.3-5.7 5.2 0.5 3.1 3.1-1.6 3.2h-4.1l-3.7 3.6v3.1l-7.3-0.5-0.5-4.7zm-116.7 12.5h4.2l2.6-2.1 10.9 1.1-1 7.8-4.7 1-2.1 1.6h-4.7l-1-2.1h-3.1zm-82.3 6.3l1.5-6.8 4.7-0.5 1.6 2 7.3 1.6 1.6 3.7 4.1 1-1.5 4.7-4.7-2.6h-12zm73.4-6.8l-1 2.1h-2.1l-0.5-2.6zm48.9 8.8v-2l-3.6-2.1v-5.2h7.3l0.5 5.2 2.6 3.1-0.5 3.1zm-91.2-1v-4.7l5.3-0.5-1.1 5.2zm-74.5-1.1l1.6-2.6h2.1l3.6 1.6h8.9 3.6l4.2 2.6v4.2l-5.7 5.2v8.8l-2.6 4.2-12.5-1.1-1.6-2.6v-19.2zm-19.3 11.4v-5.7l3.7-2.6h4.7l2 1.6v8.8h-7.8zm313.6-0.5l1.5-2.1 2.1 1.6 5.7-1.1 2.6 3.7-1.5 3.6-6.3-1zm-343.7 5.2l2.1-2.6h7.3l8.3 2.6v5.7 10.4l4.2 2.1v4.2h-5.2l-2.1-6.3-4.2-4.1h-4.2l-3.1-3.7zm-64.1 22.4l14.1-7.3 5.7 1.1 1.6-1.1 8.3 1.1 0.6 7.8-13.1-0.6-6.2-0.5-5.2 3.7v1.5l-5.2-0.5zm50.5 6.3v-12.5h5.7l2.6 3.1v9.4l-2.1 2h-4.1zm108.3-10.4l0.5-2.1 7.3 0.6 1.6 3.6 3.1 0.5v9.9l3.7 6.3h13l0.5 4.7 3.1 0.5 0.5 2.1-1 6.2 5.7 1v3.2l-0.5 5.7-3.1 2.1-2.1-0.5-0.5-3.2-2.6-2-0.5-7.9-3.2 0.6-3.6 6.2h-4.2l-2.1-3.1-3.1 1.6h-3.6l-1.6-1.6-1-11.5-2.1-2v-18.3zm-34.9 18.8l6.2-13 4.2-0.6 1.6 1.6 1 14.1 3.6-1.6 1.1-5.7 2.6-1.6 4.2 2.1 1.5 4.7 3.7 0.5 2 3.6h1.6l1.1 12-2.7 4.7-3.1 0.5-0.5 5.2-2.6 3.7-3.6-0.6 0.5-9.8-3.7-3.2h-4.7-2l-0.6-12.5-4.7-4.1zm454.7-8.4v-1l12.5 3.6 14.6 5.3-1 2.6-10.4 2-0.6-4.6-1-2.7-4.7-2-2.1 0.5v3.1l-3.6 2.1-4.7-1v-4.2l1.6-1.1zm-359.4 0.6h5.7l0.5 5.7-2.1 2.1h-5.2zm-108.3 5.7h5.2l1.1 8.3-2.1 2.1h-4.2zm546.9 28.1h-4.2l-0.5-3.6-5.2-4.2h-3.1l-2.6 4.7h-7.3l-11.5-9.4-0.5-7.8 26 9.9 24.5 6.8-0.5 8.3-6.8-0.5-4.2-2.6zm-289.5-11.5l3.6-6.2 3.7 1v8.4l-5.8 1zm129.2 8.3l1-5.2 2.1-1.5 3.1 1v4.7l2.1 1.6v3.6l-1.5 1.6-5.8 0.5zm-540.6 0.5l4.2-0.5 5.2 4.7-1.6 2 1.1 4.2-3.7 3.1v2.6l-9.9-1.5-4.1-3.7-0.6-3.1v-6.2h4.2v2.6l2.6 0.5 2.1-1.6zm733.3 17.7l-1.5-15.1 13 1.1 0.5 3.1 4.7 2.6v2.6l-0.5 7.8-5.2 3.6-0.6 5.3h-6.2l-0.5-9.9zm-763.1-4.7l5.3-6.3 1.5 1.1v8.3h-3.1zm591.1 4.7l0.6-3.1 4.6-2.6h1.1v6.2l-1.1 1h-3.6zm102.6-2.6l1.6-3.1h11.4l2.6 2.1 0.6 3.1-1.1 4.2-5.7 0.5-2.6 7.3zm-25.5 6.8l1-3.7h6.8l0.5 5.8-3.1 2.6h-3.2zm-615.1 6.7l-0.5-6.2h2.1 5.2l0.5 2.1-2.6 3.1zm-71.9 17.7l3.7-5.7 9.4 0.5v4.1l2.6 2.1-2.6 2.6-8.4-0.5-1-2.1zm787 6.8v-6.8l2.1-3.6 7.2 2.1 0.6 6.2-2.6 2.6zm-640.1 7.3l5.2-15.6 11.4 0.5-2.6 8.9 4.2 2.6-2.1 3.1-4.2 1.5v5.8l-10.4 1z"/>
		<path id="Path 7" class="s7" d="m457.3 414.1h4.2l5.2-4.2h2.1l1 2.1 8.3-0.5v5.7l1.6 1.1 0.5 9.3 4.2 1.1 2.6-1.6v2.6l3.6 1.6-0.5 2.6-2.6 2.6-3.1 0.5-2.6-3.1-2.6-0.5-3.7-0.6-3.1 5.2-5.7-7.2h-3.2l-1 2.6-4.7-0.6-1-7.2-3.2-4.2zm-26-1.1l3.1-0.5 3.7 3.2-2.6 4.6h-4.2zm108.3 17.7h5.8l1.5-1.5v-9.4l2.1-1 2.6 0.5 3.7 5.2 0.5 6.8 1.5 1.5 4.2-1 3.1 1.5v5.8l-3.1 1v3.7l-1.5 6.2-4.2 5.7-3.1 0.5-3.2-3.1v-1.5l4.2-8.9-2.1-4.7h-4.1v7.3l-6.3-1 0.5-4.2-7.3-4.2 1.1-4.1zm-146.9-2.1l-2.1-1v-4.2l2.1-3.1h4.2l-1.6 5.7zm235.4 1l-6.2-1v-3.7l4.1-1 3.7 1.6zm-40.6 13.5l1-6.2 5.7 1.5-2.1 3.7-2 2zm47.9 10.5v-7.3l7.8 1 1.6 5.2v7.3l-2.7 2.1-3.6-2.1 0.5-4.7zm31.3-6.2l1 2.1h3.7l2.6-2.6h2.6l3.6 2.6v6.2l-1 2.1-7.3 0.5-1.1 8.9-4.6 3.6-1.6-1.6v-5.7l0.5-4.2-2.6-0.5-2.1-3.6v-7.8zm-130.2 25l8.3-0.6 1.1 2.6h1.6l-3.2 2.6 1.1 8.4 1.5 0.5v3.1h-3.6l-4.2 5.2h-4.1l-1.6-2.1v-17.7zm53.1 2.1l2.1-1 4.2 4.1 3.1 2.7 1 8.3-3.1 0.5-3.1-3.6h-3.1l-1.1-5.2zm189.6 5.7l1-4.7 4.2 1.6 0.5 3.1-2.6 1.5zm-62.5 0.6l4.2-4.2h9.4l-2.6 6.2-4.7 3.7h-3.7l-2.6-1.6zm19.8 0l7.3-2.1 1 2.1v4.2l-1.5 3.1-2.6 3.1h-4.2v-7.8zm-370.3 2.6l3.6 0.6 3.2-4.2 4.1 0.5 2.1 4.7 3.1-2.1h10.5l3.6 6.8 3.1-0.5 4.7 2 1.6 8.4h5.7l2.1-2.1h5.2 6.3v8.3l-2.1 2.1-10.4 1v9.4h-18.3l-0.5 4.2h-10.4v-8.4l0.5-6.2 12.5-1 2.6-4.2-1.5-6.3-18.8-2-1 5.7-5.2 3.1-7.9 1.1v9.8l-18.7-2-4.2-5.2-1-5.8-4.2-1.5-1-6.3v-4.7-0.5l6.7-1h4.2l2.1-2.1h12 4.1zm115.7 2.1l4.7-0.5 1 2v7.3h-2.6l-2.1 3.2-4.2-1.1v-5.7zm109.9 59.9l2.6-0.6 3.7 3.2v5.7h-6.3zm150 12l0.6-3.7h7.8l16.1 5.2 10.4 9.4 3.2 1 3.1 4.2 4.7 1 0.5 3.2 3.6 2v6.3l-4.1-2.1-13.6-8.3-9.3-5.2-1.1-0.5-1-0.6-8.4-4.7-1-0.5zm-194.3 15.1l7.3-8.3h2.6l3.1-3.1 4.2 1v4.2l-2.1 1.5v11 10.4l-7.3-0.5-2.1-2.1-1.5-4.2-3.1-2.1z"/>
		<path id="Path 8" class="s8" d="m500 291.2l8.3-0.5v15.1h-8.3l-0.5-4.7-2.6-3.1v-4.7zm437.5 208.3h5.2l12.5-7.3 4.2-4.2 1-9.4h10.4 5.7l-1.5 18.8-5.8 1.5-4.6 6.8-4.2 2.1-2.6 3.6-9.4 5.8h-3.1l-7.3 1-7.3 8.9-7.8 1.5-2.1 3.1-4.2 0.6-2 2.6-12.5 2v-16.1l4.1-0.5 3.7-3.7 1-4.6 22.4 2 4.2-5.2zm-700 27.1l4.1-2.1h4.2l7.3 5.7 1 13.1h-10.4v-8.4l-6.2-4.1zm-190.1 34.8l-2.6-2.6v-6.2h2l3.2 2.6v4.7zm377.6-7.8v4.1h-4.2v-4.1zm-259.9 10.9l6.8-5.2 7.3 0.5 1 10.4h-5.2l-4.2-2-6.2 0.5zm698.4 14h9.4l2.1-2v-5.8l2.1-2.1 6.2-1.5 5.2 1.5 1.1 20.3h-10.4l-1.1-1.5-13.5-0.5-1.1-4.2zm15.1 33.3l-0.5-4.7-5.2-3.6v-4.2h6.3l1 2.1h7.3v10.4z"/>
		<path id="Path 9" class="s9" d="m392.2 413.6l3.6-1.6 2.1 2.1-1 6.2h-4.2zm51.6 2.7l3.1-0.6v3.7l3.6 2.1-0.5 4.6-6.2 0.6zm135.4 22.9l-3.1-3.2 1-5.2h4.7l1.6 1.6zm-9.4 0l2.1-1 5.2 7.2-1.1 5.8-6.7 6.7h-1.1l-0.5-7.2 3.1-3.7zm73.5 8.3l0.5-8.3h6.8l2 2.1 1.6 6.2 5.2-0.5 1 0.5v7.8l-1.5 0.6-2.1 10.4 7.8-2.6v5.7l1.6 1.6-0.5 1-1.6 1-4.7-1.5-7.3-3.1h-4.2l-1-5.8 3.7-2v-2.6l-2.7-2.1-0.5-3.2h-2.6zm-135.4-3.1l1.6-0.5v2.6l2.1 2.1h2l3.2-3.1v2.6l6.2-1.6 0.5 0.5 0.6 6.3-1.1 9.9-5.2-1.1v-3.1l-3.1-2.6-0.5-3.6-7.9-0.6zm120.4 28.7l1.5-1.6 3.7 0.5 1.5 8.4h2.6l1.6-2.6 3.6-1.6v-1.6l5.2 0.5v5.8l-2 4.1-4.7 2.6-0.5 3.2v6.7l-3.2 3.2-7.3 1-3.1-4.2-8.8 2.1v-4.1l-7.9-3.2-1-4.1 6.3-1.1 1-5.7 4.2-2.6 5.7-0.5 1.6-1.6zm25 12l3.1-2.1 2.1-5.7 4.1 1.5 0.6 5.2-4.7 5.2-3.2 0.6-2-1.6zm-330.3 0l2.1-4.7 3.7 1.6 2.6 6.2 4.1 0.6v4.6h-10.9zm-101.6 6.8l12-2.6 2.1 6.2-12 0.6-2.1-1.6zm197.4-0.5v6.2h-5.2v-6.2zm-209.3 26l8.3-1 1.6-2.1h7.8l0.5 5.2 3.6 1v5.2l-2.1 1.1h-10.4l-10.4-2.1-1-1 2.6-2.6zm514.6 33.3v-7.3h15.6l5.7 6.2h4.7v4.2h-7.8l-0.5 3.6-10.4-4.6-5.3-0.6-1-0.5zm-144.3-4.1l12-1.1v8.3h-3.6l-1.1 2.1-3.1 0.5-0.5 3.7-2.1 2.1h-16.7l-4.1-1.1v-5.2l-2.1-3.1v-0.5zm-127.6 37.5l0.5-5.8h5.2l0.5 11h-6.2zm110.4 5.2v-10.4h9.4v3.6l7.3 7.3 4.1 1.6 5.8-0.6 4.6 0.6 2.6-4.2 3.2-0.5 1-3.7h12v4.2l-3.1 3.1h-5.8l-5.2 6.3-8.3 3.1-2.6 4.2-3.1 0.5-4.2 3.6-17.2-14.6zm-147.4-3.6l5.2-4.2 2.1 3.7 4.7 1.5v4.7h-7.3z"/>
		<path id="Path 10" class="s10" d="m371.9 449.5l1-8.3 5.7 1 2.7 3.1 3.6 10.4h-7.3l-0.5-2.6zm183.8 6.3l4.2-5.7 2.1 1.5 4.7-1h1l0.5 7.3-1.5 1v6.3l-2.6-3.2h-2.1l-0.5 2.1-3.2-2.6zm-222.4 13l1.6-2.6h2.6l4.2 2.6 1 1.6-1 6.8h-4.7l-3.7-5.2zm270.9 5.2h2.6l3.1 5.7 3.7 0.5 3.1 1.1-1.1 5.7-6.2 1-5.2 0.5v-6.2l-1.6-2.1zm231.3 2.6l19.8-1v4.1l3.6 3.2h5.7l2.1 11.4-4.1 5.2h-7.3v-2.1l2-2-1-9.4-8.9-1.1-2 2.6-4.2-0.5-5.2-4.1zm-602.1 3.1l0.5-2.6 3.2-0.5 1.5 5.7h3.1l0.6-3.7 4.6-0.5 2.1 2.6 6.8 0.5 1 4.7-0.5 3.2h-7.8l-0.5 6.2h-12.5l-2.1-6.2zm463 8.3l2.6-3.1 4.2 1.5 1 4.7h6.3 2.1v4.2l-2.1 0.5v14.1h-12.5l-0.5-2.1-3.7-0.6-2.1-3.6 1.1-9.9 3.6-0.5zm-157.3 6.2l4.2-5.2h3.6l2.7 3.2v2.6l-2.7 2.6-7.8-0.6zm219.3 0l1-4.1h1.1l3.1 3.1-1 2.1zm-195.9 26v-22.4l2.1-1.5 12.5 1v10.4h-3.6l-3.1 3.1-1.6 9.4zm160.4-20.8l3.1-2.6 1.6 1.5h5.7v7.3l4.2 1.6v4.7l-2.1 0.5v5.7h-6.2l-5.3-3.1-1-3.1zm-104.7 0l8.9-2.1 3.1 4.2v3.1l-7.3 4.7v8.8h-10.4l-0.5-2.1 2.6-12.5zm29.7 27.1l0.5-7.3 2.6-3.1 1-8.3h8.4v2.1 15.6l-6.3 1zm37.5-4.1h-8.8l-1.6-2.1v-8.4h2.1l7.3 1.6 2.1 2.1v2.6zm-168.8 2.1l0.5-2.1h2.6 6.3l1 12.5h-6.2l-4.2-4.2zm-218.8 52.1l0.1-18.8h6.2v4.2l-1 7.3 1 1v6.3zm534.4 0v-4.7l3.1-1.6 2.1-3.6 3.6 0.5v3.7l4.2 2.6-0.5 4.1-3.1 4.2v5.2l-8.4-2.1zm-1 68.2l3.1-0.5 3.1-4.2v-20.8l2.6-5.2h3.7l1 23.9 7.3 1.1v10.4h-12l-3.1 2.6z"/>
		<path id="Path 11" class="s11" d="m500 467.2l4.7-9.4 3.6 1.1v5.2 2.1l-2 2h-6.3zm470.8 1.6v9.9h-10.4v-9.9zm-622.4 16.1l1.6-5.7 2.1-1 8.3 0.5v6.2zm17.7-4.1l2.1-2.1h4.7v1l-3.1 4.2-3.7-0.5zm156.3 0.5l4.1-0.5 2.6 1v13.6h-2.1l-6.2-2.1v-11zm-155.7 41.2v-8.4h6.2 2.1v8.4l-1 1zm27 0l0.6-4.2h18.2l10.4 2.7v15l-4.2 2.7v6.7h-4.1l-14.6-1 1.6-5.7 2.6-1.6v-10.4zm31.2 27h5.2l11.5-8.3 0.5-12.5 4.2-5.7 3.6-1.6 6.3 1.6v16.1l-4.2 5.8v6.7l-7.8 2.1-1.1 1.6-5.2 0.5-1 1.6-12 0.5v-4.2zm-195.8-22.9l2.1-1 6.2 1v4.2h-8.3zm479.1 20.8v-9.4h8.4l3.1 4.2 4.2 1v7.3l-4.2-0.5zm-64.6-3.1l10.4-1.1v6.3l-3.1 1.5-1 3.7v7.3l-6.3 1-6.2 5.7v3.7h-7.3l-2.6 3.1-1.1 5.7-5.7 5.8h-8.3v-4.2l5.2-8.3 3.1-2.1v-3.7l18.8-16.1v-5.2l2.6-0.5zm-256.3 23.9v-6.2l-2.6-1.6-3.6-6.8v-6.2h5.7v7.3l3.1 3.1h10.9l4.2 3.1v3.2l-1 2h-4.7l-4.2 3.2h-3.6zm-245.9-12.5l2.6-4.2h3.7l1 2.1h5.2l1.6 4.2h2.6v4.1l-4.2 0.5v3.7h-12.5zm273 4.2v-6.3h6.2v4.2z"/>
		<path id="Path 12" class="s12" d="m526 374.5l-11.4 0.6v-2.1l7.3-6.8v-2.1l3.1 1.6v2.6zm-28.6 41.6l4.1-7.3 7.3 1.1-3.1 2.6 1.5 4.2h3.7l5.2-4.7 1 2.6-2.6 4.7-10.4 1.5zm28.1 2.1l3.7-1 2.1-2.6 1.5 5.7 2.1 1.5v2.7l-2.1 3.1-1.5 1.5-7.3-0.5 2.1-4.7-1.1-2.6zm-256.7 13.6h-2.1l-2.1-2.6v-8.9h8.3l3.7 3.7-1.6 3.1-2.6 0.5zm-50 17.7v-10.4h8.3l6.3 8.3v10.4l-1.1 4.2-4.6-0.5-0.6-11-6.2 1.1zm100 23.4l0.5-5.7h5.2l3.1 2.6-2.6 4.7zm-102 6.7l3.6-1.5 1-3.7 6.8-1 0.5 5.2 4.7 1v9.4l-12 2.6-4.6-3.6zm628.6 7.8l2.1-2.6 8.8 1 1.1 9.4-2.1 2.1h-9.4zm-295.8 7.3l3.6 1 5.2-6.8 3.7 0.6 2.6 6.7-2.1 1.6v22.4 6.2h-20.8l-5.2-7.8-5.2-0.5v-9.9l5.2-4.2h3.6l-0.5-4.1-2.1-1.1 1.6-2.1 7.8 0.6zm80.7 6.7l7.3-1 8.3 1 6.3 3.7v2.6l-1.1 8.3-2.6 3.1-0.5 7.3h-15.6l-9.4-8.3v-8.9l7.3-4.6zm167.7 5.7v-5.7h6.3v4.1l-2.1 2.1zm-120.8 1l5.2-4.6h9.3l2.1 3.6 3.7 0.5 0.5 2.1v4.2l-4.2 4.1h-7.3v-2.6l-2.1-2.1-7.2-1.5zm71.3 1.5l1.6-2h10.4v5.7l4.7 4.2 1 1.5 14.1 2.6 4.7 4.7v2.1l-3.7 1.5v8.9h-6.2l-4.2-5.7-5.7-0.5-4.7-6.3h-8.3l-2.1-4.2zm-249.5 22.9v-2l6.2-4.7 7.3-1.6h4.2v6.3l4.2 4.1v12.5l-13.1 1.1-1.5 2-8.4-0.5 0.6-6.2 1.5-1.1zm-221.8 34.4l8.3-1 0.5-2.1 3.1-1.6 0.6-4.7h6.2 2.1v18.8l-20.8 0.5v-1.1zm537.5 20.4l6.2 0.5 3.7-3.2h8.8l8.3 2.1v6.8l2.1 4.7v15.6h-3.6l-2.6 5.2v20.8l-3.2 4.2-3.1 0.5-7.8-10.4-5.2-13 11.5-4.7v-2.6l3.1-2.6 0.5-10.9-2.6-2.6-8.3-0.6-11 10.5-1-0.6-2.6-4.1-2.1-4.2 2.6-2.6v-4.7l4.2-4.1z"/>
		<path id="Path 13" class="s13" d="m418.8 353.7l9.3-8.8 6.3 1.5 1 5.2v7.3l3.7 3.7-1.1 2-7.3 2.1-4.7-5.2-5.7 6.8-3.6 0.5-7.3 4.7-1.1 3.6-6.2-3.1zm44.3 20.8l2.6-7.3 5.2 3.7-1.6 3.1zm-139.1 14.6l23-1 2 1 0.6 2.6h2l1.1-2.1 2.6-1 1.6 1.5h4.6l1.1 7.3-4.2 4.2-22.4 2.1-13.5 4.1h-17.7l-1.1-2 0.5-8.4h6.3 4.2l1-5.2zm54.2 7.8l1-7.8h18.8v5.2l3.6 2.1v2.1l-5.7 4.2-5.2-1.1-1.1-2.1h-9.9zm-151 4.2l4.7-1 1.5-3.7h2.6l1.6 1.1v19.2l-10.4-0.5v-6.3zm260.4 35.4l2.6-2.6 5.7 1.1v6.2l-1.5 8.9-1.6 1.5h-6.2zm196.3 0v-2l8.4 2 8.8 3.7v1h-7.8l-0.5 2.1h-5.2l-1.6-2.6 1.6-3.1zm-516.2 9.9l-1-5.2h6.2l2.1 2.1v4.1zm424.5-4.1l9.9 1 1-1.6 6.3 9.4v3.6l-3.1 4.2 0.5 4.2h-2.6l-1.1-1.1-8.3 1.1-5.2-7.3-3.7 1-0.5-13.5h2.1l2.6 1zm24.5 11.5v-7.3h2.6l5.7 5.2v3.7l-1 0.5-3.1-2.1zm-395.9-2.1l6.3-1 0.5 10.9 4.7 0.5 0.5 5.2 3.1 3.7 5.8 1.5 0.5 6.3-0.5 3.6h-3.2l-1.5-5.7-3.2 0.5-0.5 2.6-4.7-1-0.5-5.2-6.8 1-1 3.7-3.6 1.5h-3.7l-2.6-5.7-3.1-0.5-1.1 11.4-3.1 1.6 0.5 7.8v1l1.1 17.2-4.7 2.6-1.6-2.1-2.6 0.6v-1.6l2.1-16.7 0.5-20.8 1.6-1.5 4.2 1.5 1-6.2 2.6-6.3h6.8 1v6.3l1.6 0.5 3.1-3.1 0.5-3.7zm348.5 6.3l6.7-6.8v2.6l3.7 4.2h5.2l1 15.1-1 1.5h-1.6v3.7l-1 1.5-4.7-3.1 2.1-3.6v-4.2l-1.1-4.2-3.1 0.6-2.6-2.1v-3.7zm-289.6-4.1l2.1-2.1h3.7l2 2.1 1.1 11.4-7.8 0.5zm365.1 6.3v-7.3h2.6l0.5 3.1 2.6 2.1v2.6l-3.6 2.1zm192.1 103.1l1.1-3.7 6.2 0.5 1.6 4.2-4.7 3.1-3.6-0.5z"/>
		<path id="Path 14" class="s14" d="m456.3 341.2h5.2l6.7-2.6 1.1 5.2-2.1 5.2-1.6 0.5-4.1-4.1h-4.7l-1.1-2.1zm21.9 5.7l3.6-2.6h4.2l1.6 4.7-1.6 2.1-2.1 1zm-39 15.6l-3.7-3.6v-7.3h10.4l2.1 1.1v8.3l-3.6 1.5zm-3.7 61h4.7l2.1 4.1 0.5 6.8-3.1 1.6-3.1-0.6zm216.6 4.2v-3.6l14.1 4.6-1 3.2zm-245.9 11.4v-7.3l1.6-3.1h6.8v10.4zm-253.7-2.6l-0.5-7.8h10.4v8.3l-3.6 0.6zm259.9 19.2v-6.2h5.7l1.6 3.6-1.1 7.8-4.2 0.5zm70.9 8.4v-12.5h3.1 6.3l1.5 6.2-3.6 6.3zm-164.1 0l-5.7-1.1 1-6.2h4.2l2.1 3.1zm-119.3-4.2l7.8-0.5v2.6l-2.6 6.3h-5.2zm464.1 13l1.5-1.1 3.1 0.6 1.1 10.4-1.1 6.2h-2.6l-3.1-5.2-0.5-5.2zm188 72.4l0.5-9.4 6.8 0.5 1.1 2.6h2.6l0.5 4.2-3.1 2.1 2 3.1v4.2l-5.2 2.6v3.6l4.2 2.1-1.6 2.6-5.7 0.5v-17.2zm-529.2 31.8l23.5-1.6 4.1 3.2 17.7-1.1 3.7 2.6 5.2 0.5v5.8l-63.5 8.8-17.2 0.5-0.5-5.7 2-1.5 0.6-4.2 6.7-1.1 3.2-2.6h6.2l1-4.1z"/>
		<path id="Path 15" class="s15" d="m441.7 343.3v-6.3h10.4l4.2 4.2-0.6 2.1-2.6 2.1h-7.3zm68.8 20.8h-6.8l-5.7 2.6 0.5-3.6 5.2-5.2-0.5-5.2 4.2 1v7.3zm34.9 29.1l0.5-3.6-4.2-0.5 2.6-3.2-0.5-2.6 8.3 1.6v7.3l-3.6 1zm-241.7 12.5l1.1 2.1h17.7l13.5-4.2 22.4-2 4.2-4.2h3.1l1 2.1h4.7l2.1-1.6 1.6 6.3 4.1 0.5 2.1 3.6 6.3 0.6 4.7 4.6 0.5 6.8-2.1 3.1v4.2l2.1 1v0.6l-5.2 0.5-6.3-0.5-2.1 3.1-0.5 9.9-5.7-1.1v-4.1l-3.1-3.7-6.8-0.5-4.7 2.6v9.9l-10.4 2.1-0.5-5.7h-5.8l-5.2 0.5-3.1-7.3h-5.7l-1.6-2.1-6.2 1h-4.7l-1.6-1.5-3.1-12h-12.5l-3.1-2.1 1-9.9 2.1-1.5zm104.2-5.2l0.5-3.2h4.1l-0.5 3.2-3.1 1.5zm22.9 1.1l0.5-4.2 4.2 2.1v2.1zm215.1 25.5v-1.1h1.6l1 1.6h3.7l13 4.2 0.5 2-1.6 1.1v3.1l4.7 1.1v4.6h-2.1l-1.5-2.6-3.7-1-2.1 6.8-5.2 0.5-1.5-6.3-2.1-2h-6.8l-4.7-1.1 0.6-4.7 3.1-0.5zm-437.5 7.8v-4.2h4.1l4.2 2.7 2.1 5.7v10.4h-3.7l-0.5 2.1h-6.7l-4.7-8.4v-2l5.2-1.1zm385.9 3.7l7.8-1.6 1.1 4.7-1.1 1.5-9.9-1zm-46.8 6.8v-7.3h4.1l2.1 4.7-4.2 8.8h-3.6zm133.8-2.6l4.7-2.1 1.6 2.6h5.2l1 2.1 6.3-0.5v4.2l-6.3 1-5.2-1.6-7.3-1zm-559.3 8.9l13.5-2.1-0.5 5.7-3.7 2.6v14.6l2.1 1v6.3l-2.1 0.5v2.6h-6.7l-3.7 4.2h-4.1l-1.6-1.6-0.5-2.6 2.1-2.1v-4.2h5.2l3.1-3.1v-9.4l-2.6-1-1.6-3.1zm111.5 6.2h4.2l2-2.1h4.2v4.7l2.6 3.7h6.8l2.1 2.1h3.1 2.1l1 15.6v4.1h-4.7l-1-4.6-6.8-0.6-2.1-2.6-4.7 0.6-0.5-6.3-5.7-1.6-3.1-3.6-0.6-5.2zm275 8.3v-2.1h5.8l-0.5 3.2zm-16.2 2.1l5.7-1.1h2.1v1.1l-2.1 5.2-1 3.1h-5.2l-1.1-5.7zm174 2.6l4.7-3.7 3.1 1.1v4.6l2.1 2.1 4.2 1.1v6.7l-2.6 1.1-2.6-3.7-5.3 2.6-1-10.4-3.1-0.5zm32.8 14.1l0.5-4.2h4.7l6.3 1.6v8.8h-6.3l-1-4.7zm-16.7 18.8v-7.9l5.7-3.1 0.5-3.6 1.6-0.5 2.6 5.2-1 9.9zm67.7-1.6l2.6-7.3 5.7-0.5 4.2 1 2.1 5.8h4.1v3.1l-6.7 0.5-1.6 3.1h-10.4zm24.5 5.7h5.7l3.1-3.1 3.1 6.3h5.8l3.6-2.1 6.3 5.7 1 8.3-4.7 4.7-1 6.3-2.6 2.1-6.3-1.1-3.6-6.2v-2.1l-4.7-4.7-14.1-2.6-1-1.6 2.6-2.6 1-5.2h4.2zm-478.7 50v-21.3l8.4-7.8h6.2l1.1 4.1-3.2 6.8v9.9 2.1l-4.1 3.1v3.1h-6.3zm-268.7-16.6v-10.5l12.5 2.1v6.3l-1.1 2.1h-7.3z"/>
		<path id="Path 16" class="s16" d="m526 374.5l-1-6.2h8.3l2.1 2.1v4.1h-3.6zm-328.2 171.8l1.6-9.9h1.6l-1.1 9.9zm683.4 7.3v-9.9l5.2-1.5v-5.2h3.1 4.2l2 2v7.3l-2 1.6-1.1 5.7-3.1 2.1h-7.3zm-845.8 6.3v-10.5h4.1l5.2 3.2v6.2l2.6 2.6-1.5 2.6-5.2-1zm104.1 6.7l2.1-0.5h12.5l1.6 4.2h-16.2zm727.1 61.9h6.3l3.1-3.1v-6.8l2.1-1 0.5-5.7h8.9l3.1 1 1.5 5.7 3.7 3.2v16.1l-3.7 4.2v2.6l-8.8 6.2-2.1 9.9-3.1 0.5-3.1 4.7h-4.2v-4.7l-2.1-1.5v-6.8l4.2-1.6v-11.9l-6.3-5.8z"/>
		<path id="Path 17" class="s17" d="m422.9 398.5l4.7-1.6 3.7 0.5-0.6 4.2h-1l-1.6-2.1-5.2 0.5zm-2.1 24h-2v-6.8l2-4.7 10.5 2.1v7.3l-2.1 4.2h-2.1l-2.1-2.1zm83.3-1.6l10.5-1.5 3.1 4.1-0.5 8.9h5.2l0.5 5.2-1.6-3.1h-3.1l-0.5 2.6-4.2-1.6-2.6 3.7-2.6-1.6-1-5.2-5.8-3.1v-3.7zm84.4 12v-8.3h5.2l2.1 1v4.2l2.6 3.1h3.6v4.2l-7.8 1.5-5.7-1.5 1-1.6zm29.7 5.2l1.1-5.7 3.6-0.5 3.1 2.6 1.1 3.6h4.2l4.1 3.6v4.7 7.3h-4.1l-3.2-7.8-6.2-4.7-0.5-2.6zm-72.4 21.9l3.6-6.8 3.1 3.1-0.5 9.9h-0.5l-5.2-1-0.5-1.6zm158.3 20.9v-8.4h3.1l1.6 3.1 4.2 0.6v4.7l-2.7 1.5zm-177.6 0l0.6-6.2h6.2v17.7l1.6 2.1h4.1v2.6l-1.5 2h-1.1l-3.1-3.1-4.2-0.5v-13.5zm233.9 9.3v-3.6l2.6-3.7h9.9l1-2.6h5.3l3.1 1.6 0.5 5.2 2.6 1v8.4l-2.1 1.5v6.8l-3.1 3.1h-5.7l1-9.9-4.2-2-2.6 5.2h-4.1l-2.1-5.8 1-2zm-272.9-3.2h4.2l5.2-6.2h7.3 3.1v3.6l-2.1 2.1v6.8l-6.8 1-3.6 3.1h-5.2l-2.1-3.1zm97.9 0h3.7l1.5-1.5h3.2l3.1 3.6 3.1-0.5 3.7 1 0.5-1 5.2-0.5 1 4.1 7.8 3.1v4.2l-3.6 4.2h-10.4-13.6v-3.7l-7.3-4.7v-3.1l2.1-2.1zm-251 18.8v-4.7l2.1-1.6 4.1 1.6 1.1 5.7 4.1 5.2v6.3h-2-3.2l-3.1-2.6zm-138.5 7.8l2.6-0.5 1.5 2v9.4l-3.1 4.2-1 1-4.2-2.6 2.6-8.8zm502.1 17.1l3.6-4.1h5.2l4.7 5.2 6.8 0.5 3.1 2.6 13.6-2.1 7.3 4.2h17.1l3.2 4.7h2.6l3.1 3.1 0.5 4.7h-18.7-4.7l-5.7-6.3h-15.7l-4.1-1-3.2-4.2h-8.3l-2.6-3.1h-7.8zm-585.4 33.3v-2.6l3.1-2.1 13.5-1.5v4.1l-8.3 1.6v6.8h-8.3z"/>
		<path id="Path 18" class="s18" d="m494.3 382.9l7.3-3.7 2 3.7 2.7 0.5-1.1 4.7-11.4-1.6zm51 26.6l0.5-4.7 3.7-3.2h1.5l3.1 3.7-1 6.8h-3.1zm-237 25.5l5.2-2.6 1.6 1.5h4.7l-3.2 11-4.1 0.5-3.2-3.1zm209.4 39.5h5.2l-0.5 6.8-1.6 1-3.1 0.6-1.5-2.6zm-461.5 14.5v-8.3h13.5l0.6 3.1 4.1 3.7 9.9 1.5 1.1 3.7 4.6 2.6 11-1.1 1 1.1 0.5 6.2-2 2.1h-29.7-11.5v-11.4zm766.7 12.4l0.5-5.2 5.2-3.6 0.5-7.8h5.2l2.1 2.1 1.1 10.4-4.2 2.6v7.8h-6.2l-1.6-4.7zm-81.3 10.4l1.6-2.1h5.2l1.6 12.5h-2.1l-5.2-1zm76 14l7.3 0.6 2.6-2.6h4.7l7.3 6.7v2.1l-4.2 12.5-8.3-2.1 1-4.1-2-1.1-1.6 1.6-5.2-3.1h-5.2l-0.5-8.9zm-11.5 28.6v-3.1l3.1-1.5 3.1 2v3.7l-1 4.2-3.1 1v-5.2z"/>
		<path id="Path 19" class="s19" d="m538.5 419.3l3.7 0.5 5.2-3.6h0.5l1.1 2.6-2.1 1v9.4l-1.6 1.6h-5.7l1.5-2.6-1-3.7-1.6-4.2zm87.5 15.1l3.2-3.6h6.2l4.2 2.6-0.5 4.7 4.6 1-0.5 8.4-7.8-1.1v-4.7l-4.2-3.6h-4.1zm-64.6 9.4v-3.7l3.1-1h5.2l1.1 7.8-3.2 3.6h-1l-0.5-7.8-2.6-1zm107.3 0l10.4-1.6 2.1 0.5v4.7l-1.1 2.1-3.6-2.6h-2.6l-2.6 2.6h-3.7l-1-2.1v-3.6zm-82.8 13l3.6-1 5.2 7.2 1.1 14.6-4.2-4.1-2.1 1h-4.7l1.1-1.6-1.1-15.1zm-242.7 4.2l4.7-0.5 0.5 5.2-3.6 4.7h-2.1l-1-1.6zm-40.1 7.3l3.6-6.3 3.1-0.5 0.6 7.8 2.6 2.1 0.5 3.1-10.4-0.5zm234.9-1.5l0.5 2.6 3.1 0.5 1-4.2 3.2-2.1 0.5 1.6-1.6 6.8-8.3 0.5 1-5.7zm-334.3 27.6l-0.6-7.9 3.2-1.5 1-11.5 3.1 0.5 2.6 5.8h3.7v8.3l4.7 3.7v2.6l-13.6-0.6zm293.3-17.7l1-3.1 5.2 1 1.1 6.3h-7.3zm52 6.2l1.1-8.3h6.2l3.2 2.1-1.1 2.6h-3.1l-3.1 3.6zm-39.1 10.5l5.7-6.8v-6.3h0.6l1.5 2.6 3.1-0.5v11l6.3 2 1 11.5 3.2 1.6v9.8l-3.7 1.1-1.5 3.1h-6.3l-1-4.2h-6.3v-4.1-8.9l-1.6-1zm-248.4-11.5l4.7-0.5 1 4.7 3.7 3.1v6.3h-9.4v-9.4zm393.8 7.8l3.1-0.5 4.7-5.2 3.1 5.2h2.6l4.2 4.7v11.9l4.1 2.7v3.6h-2l-6.8-2.1h-7.8v-2.1-7.3l-2.6-2-0.6-6.3-2-1zm-407.3 5.7l0.5-6.2h7.8v8.3l-1.6 1zm234.9 2.1l2.1-3.1h2.6l2.1 3.1h5.2l-1 14.6h-10.4zm300.5 7.3v-6.8l2.1-1.6h5.2l4.1 5.2h3.2v5.8l-2.1 1.5-3.7 2.1h-5.7zm-96.9 13.6h7.3l4.2-4.2v-4.2h12.5l1 2.1h11.5l1 3.1 5.2 3.2h6.3l0.5 4.1 4.2 1.6 1.5 2.6h6.3 4.2 8.3l4.7 6.2 5.7 0.6 4.2 5.7 1 8.3 4.2 3.7 3.1 0.5-1 4.1h-7.3l-4.2-0.5-2.1-2.6v-3.1l-0.5-4.7-3.1-3.1h-2.6l-3.2-4.7h-17.1l-7.3-4.2-13.6 2.1-3.1-2.6-6.8-0.5-4.7-5.2h-5.2l-3.6 4.1h-12.5v-8.3zm-574 45.8v6.3h-14.6v-6.3z"/>
		<path id="Path 20" class="s20" d="m416.7 368.8l3.6-0.5 5.7-6.8 4.7 5.2 7.3-2.1 2.6 0.6 1.1 2v5.3l-5.2 6.2-11.5 0.5-8.3-0.5zm143.7 40.1l0.5-1.6h3.7l3.6 0.5v2.1l-3.1 2.1zm-437.5 103.1h13.5l7.3-6.3 0.6-2h5.7l10.9-7.8 5.8-0.6-0.6 22.4-4.7 5.7-3.6 1.1v2.6l-12 12-3.1 2-8.3 0.6-2.1 2.6h-5.2l-1.6 2.6-7.3 0.5-6.2 3.1-3.7 4.2-10.4 1-1-2.6 0.5-3.6 6.2-0.5 9.4-4.2 6.3-7.3 3.6-7.3v-16.1zm-77.1 33.3v-4.2h8.4 11.4l4.7 5.2 5.7 2.1v3.1 3.2l-4.1 2.6-0.6 4.6h-7.2l-1.1-6.2-13-7.3h-3.1zm541.1 10.4l1.1-2.1h3.6 6.2v5.2l4.7 4.7-0.5 13.1-1.5 1.5h-4.7l-6.8-3.6-5.2-0.6-2.6-5.2v-6.7l2.1-2.1 4.1-1.1zm213 17.2l0.6-4.7 3.6-1.5 8.4 4.1v5.8h-11z"/>
		<path id="Path 21" class="s21" d="m472.9 332.9l1.6-2.1 12 0.5 2 3.7 3.7 1.5 1 3.2 3.7 1v2.6l2.1 1.6v7.8l-11 2.1-2.1-3.7 1.6-2.1-1.6-4.7h-4.1l-3.7 2.6-4.1 0.6zm4.1 37.4l1.1-1.5 3.1 1-0.5 1.1 4.1-0.6 0.6 1.6-7.3 5.7-2.1-3.6zm-41.7 29.1l10.4-1 2.1 2.1 2.1 8.3v3.1l-3.1 3.7-3.1 0.5-3.2-1.6v-5.7l-5.2-3.1v-4.2zm140.6 23.5l10.5-1.1 2 2.6v8.3l-5.2-0.5-1.5-1.5zm-239.6 19.2l5.2-0.5-1 7.8-2.6 3.1-2.7-0.5zm-17.1 21.9l1.5-4.2 3.1 0.5 0.6 6.8h-5.2zm322.9-2.1l2.6-2.1 2.1 2.6 1 5.8h4.2l7.3 3.1-1.1 5.7-2.1 5.7-3.1 2.1h-6.2-1.1l2.1-4.1v-5.8l-5.2-0.5-3.1-8.8zm-421.4 0l-0.5 3.6-3.1 3.1-1.6-0.5v-6.2zm328.1 12.5l2.6-8.4h0.6l2 4.2 4.2 0.5-2.1 1.1v2.6h-6.2zm96.9 17.7l1-1.1h8.3l2.1 1.1 0.5 6.2 2.6 2.1v7.3h-8.3v-2.6l-6.3-3.7zm206.3 12.5l3.1-2.1v-3.1h7.3v26.6l-7.8 0.5-2.6 2.1-2.1-1.1-1-4.1 3.1-6.8zm-531.3 11.5l1.6-1.6 1.1-8.9h10.9l3.1 9.9 3.1 2.6h3.2v4.7l4.1 6.8 1.1 13.5v4.2h-8.9l-0.5-2.1-0.5-16.6-2.6-2.1h-10.4l-4.7-4.2zm427.1 10.4v-4.1h2l2.1 4.1zm35.4 25l-3.1-0.5-4.2-3.7-1-8.3h6.3l3.6 4.2h4.7l-0.5 4.7zm-466.7 8.3l1-4.7 11.5-1.6 2.6 2.6-0.5 4.2-7.8 2.1-0.6 3.6h-4.1v-4.1zm-12.5 10.4l-1.1-1.1 1.1-7.2h4.1v8.3zm510.5 10.4h6.2l4.2-4.2h7.3l1 8.4h-8.8l-3.7 3.1-6.2-0.5z"/>
		<path id="Path 22" class="s22" d="m379.2 404.7l0.5-5.2h9.9l1 2.1 5.2 1v5.8 3.6l-3.6 1.6-4.7-4.7-6.2-0.5zm152.6 0.5l-1.1-2.6 4.7-1.1 5.2 2.1-1 2.1-5.8 1.1zm-318.2 17.1l13.6-6.2 10.4 0.5 1.5 2.6 12.5 1.1 2.6-4.2h4.2l6.3 4.2v8.8l2 2.6h2.1l-2.1 10.9-2.6 1.6-1 5.7-3.7 1.6-1-14.1-1.6-1.5-4.1 0.5-6.3 13-2.6 1.6v4.7h-4.1l-1.1-8.4h-5.2l-6.2-8.3h-8.4l-2.1-5.7-4.1-2.6zm380.2-4.2l8.8-1 1.6 1v11.5l-2.1 3.1h-3.6l-2.6-3.1v-4.2l-2.1-1.1zm-295.9 9.4v-7.3h12.5l3.2 12-5.2 2.6-3.7-0.5-2.6-4.7zm-22.9-0.5l1.6-3.1 4.6 0.5 0.6 4.1-0.6 2.1h-2.6zm405.2 22.4l1.1-2.1 7.3 1.1-1.1 9.9 2.6 5.7 2.6 1v4.2l-2 2.1h-3.2l-2-2.1-1.1-10.4-4.2-3.1zm-97.9 30.2l1.1-1.6 2.6 2.1h3.6l1.1 5.2-1.6 1.5h-3.6-3.2l1.1-2.6zm-451.1 3.2v-2.6l2.1-0.6 5.2 1.1v3.1l-2.1 2.1h-5.2zm579.2-0.5l2.6-1.6h3.6v4.2l2.7 1.5-0.6 2.6h-4.1l-2.1 2.1h-2.1zm93.7 19.3l1.1-11h7.3l3.6 1.1 0.5 9.9v4.1h-12.5zm-495.8 47.9v-9.9l3.1-6.7h13.6v4.7l-2.1 3.6h-3.6l-6.8 8.3z"/>
		<path id="Path 23" class="s23" d="m488 354.8l11-2.1h4.1l0.5 5.2-5.2 5.2-0.5 3.6 5.7-2.6h6.8 11.5v2.1l-7.3 6.8v2.1l11.4-0.6h5.8l1.5 4.2-4.1 4.2h10.4l4.1 0.5 0.6 2.6-2.6 3.1 4.1 0.5-0.5 3.7-10.4 1h-2.6l-0.5-5.7-3.7-0.5-2.1-3.2-7.2-1-8.4-1-4.1 0.5-2.7-0.5-2-3.7 2-4.1-9.8 0.5-3.2-3.1-5.2-0.6-0.5-1.5-4.2 0.5 0.6-1.1 0.5-10.9zm-263.1 36.5l14.6-3.7v6.3h-2l-1.6 2.6h-2.6l-1.1-1.6-5.2 0.5zm-80.2 32.3l33.9-15.6 1 1-2.6 5.2v4.2l-4.1 4.2-6.3 1v5.2h-4.2-10.4l-8.3-1zm314 17.7l1.6-4.2 2.1-1h3.1l2.6 4.1v2.6l-4.7 0.5-2-2zm-378.7 17.7l19.3-12 4.7 0.5 0.5 5.2-4.7 4.7-4.2 8.9h-12.5zm101.6 6.7l3.6-3.6 0.6-8.4 3.6-4.1h7.3l3.1 2.6v7.8 8.3 4.7l-1.5 1.6-0.6 20.8-10.4-1-1.5-11.5-0.6-1v-6.3zm413.1-2.6l8.3-1 1 1v10.9l-1.5 6.3h-3.7l-3.1-2.6zm-490.6 20.3l4.7-0.5h5.7l0.5 2.6-4.2 3.1-1.5 6.8h-5.2zm91.6 46.3l1.1-1h3.6l-1 7.8-1.6 9.9-3.1 1-4.7-4.7-0.5-2.6v-5.7l4.2-1.6z"/>
		<path id="Path 24" class="s24" d="m434.4 346.4l7.3-3.1 4.1 2.1v6.2h-10.4zm-271.9 90.6v-8.3h4.2 6.3v12.5h-6.3zm309.9 1l3.1-5.2 3.7 0.5 2.1 8.4-0.6 6.7 2.6 3.2v12.4l-2 2.7v3.6h-8.9l-1 3.6-2.6 0.6h-2.1l-2.1-4.2v-17.7l3.6-3.1v-6.8-2.6h2.6zm-269.2 3.1v-6.2h5.2v5.2zm231.2-4.2l2.1-1.5 3.1 0.5-0.5 7.3h-5.7zm8.3 13.5v-9.4l3.7-3.6h3.6l2.1 2.1 1 6.2-1 13 2.1 1.6v7.8h-4.2l-1-8.8-4.7-3.2zm-55.2-9.3l9.9-0.6 0.5 8.9-5.7 1-0.6 6.8-6.2 0.5-0.5-2.1-3.7-10.4h4.2zm12.5 8.9l3.6-4.7h1.6l4.7 4.2h2.6v6.2l-9.4 1-3.1-1zm-6.8 20.8l2.1-2.6 4.2-0.5 1.5 10.4 0.6 6.3-2.1 4.6-3.2 0.6-3.6-6.8-1-8.9zm296.3 12v-4.1h3.1 5.2l1.6 2-0.5 4.2-2.6 3.1-6.3-1zm-412.5 94.2l20.9-0.5h6.2 11.5l-1.1 4.2h-6.2l-3.1 2.6-6.8 1-0.5 4.2-2.1 1.5 0.5 5.8-9.9-0.6h-3.6-0.6l-2.6-0.5-0.5-8.8-2.1-1.1zm100 9.4v-5.7l6.8 0.5 0.5 4.7z"/>
		<path id="Path 25" class="s25" d="m470.8 380.8l5.8-0.5 0.5 4.6-8.3-2zm-211 17.1l19.3-1.5 2.6 3.1h12l4.7 2.6-0.6 4.7-2 1.6-1.1 9.8-2.6 1.1-3.1 9.9-7.3-0.5-0.5-4.2-4.7-0.5-3.7-3.7h-8.3l-6.2-4.1h-4.2v-8.9l5.7-5.2zm254.7 3.7l7.3-1.1 2.1 1.1 1 5.2-3.1 4.1-1.6 3.7h-3.1l-1-2.6 1-3.2-3.1-1.5zm-310.4 10.9l4.6-4.7h7.9l2.6 2.1h7.8v6.3l-13.6 6.2h-2.6l-1.5-4.2h-5.2zm343.7 3.7l2.1-1.6v-2.6h3.1l3.7 1.1 1 5.2 4.2 2-2.1 2.1v3.7l2.6 3.1-1 2.6-4.2 1-1.6-1.5-0.5-6.8-3.6-5.2-2.6-0.5zm-189.6 29.1v-9.9l4.7-2.6 6.7 0.6 3.2 3.6v4.2l-1.1 8.3h-3.1-3.1l-2.1-4.2zm172.9 2.1l1.6-3.1-0.6-7.3 2.1-1 7.3 4.1-0.5 4.2-2.6 5.2h-6.3zm137.5-8.3l5.2-2.6 4.2 0.5 1.1 5.2-10.5 1.6zm36 10.9l3.6-2.1 1.1 2.6 6.7-1.5 0.6 4.6-2.1 2.1h-7.8zm-496.9 9.4v-7.8h6.8v10.4h-6.8zm-112 6.8l4.2-8.9 4.7-4.7h3.1l0.5 5.2 4.2 2.1v4.2 8.3l4.1 2.6v1.6 4.1l-2 2.1h-5.8v-4.7l-2.1-2-8.8-1.6zm622.9 22.9l0.5-2.6h3.7l2.6 4.7h-6.8zm-695.3 38.5l7.3-8.3 3.6 1 1.1 2.1 8.3 0.5v7.3l-4.2 2.6-12.5-2.1zm828.7 1.1l2.6-2.1 7.8-0.5 5.2 1 3.1 3.7-1 3.1-5.2 2.1-1.6 3.1h-2.6l-1-2.6-6.8-0.5-0.5-2.1zm-68.8 22.9l5.8-3.7 2.6 3.7h6.2l4.7 4.1v3.7l-4.7 4.7h-5.2l-2.1-4.2-6.2 1.6-2.1-5.8z"/>
		<path id="Path 26" class="s26" d="m540.6 413.1l1.6-3.7h3.1l4.7 2.6v2.6l-2.1 1.6h-0.5l-1-2.6-5.8 0.5zm128.1 26l-4.6-1v-3.1l1.5-1.1h7.8l0.6 2.6zm23.9 4.2l0.5-2.1h7.9l0.5 2.6-1.6 1.1-6.2 0.5zm-526.1 52v-2l2.6-2.1h9.9l7.3 5.7-2.1 15.1-1.5 5.7-5.2 15.6-1.6 0.6-4.2-3.2h-8.8l-5.8 3.2-4.1 4.6-1.6 5.3-3.1 2.6-0.5 5.2h-3.7l-2.6 4.1h-9.9l-2.6 2.1-13.5 1.6-3.2 2.1v2.6h-14.5v-8.4l10.4-1 3.6-4.2 6.3-3.1 7.3-0.5 1.5-2.6h5.2l2.1-2.6 8.4-0.6 3.1-2 12-12v-2.6l3.6-1.1 4.7-5.7zm427.6 49.5l3.1-2.1 15.1-1.6 1.1 12.5-1.1 3.7-8.3-3.7h-6.3v-5.7zm-10.9 15.1l0.5-3.6 3.2-0.6 0.5 3.2zm204.1 14.5v-3.1l-10.9-8.8-1.6-6.8h7.3l2.1 5.7 6.3-1.5 2 4.1 3.7 7.8 3.6 1.1 1.6 3.6h10.9l2.1 1.1v3.1 6.8h-2.1l-4.1 4.1v4.7l-2.6 2.6-6.8-7.8-7.3-5.2v-6.3l-3.6-2zm-215.7 4.1l1.6-2.1h9.9v2.1l5.7 5.8v6.2l-5.7 0.5-4.2-1.5-7.3-7.3z"/>
		<path id="Path 27" class="s27" d="m500 312.1v-6.3h8.3l4.2 0.5 4.7 4.7 3.6 8.9 1.1 13 6.2 5.7 1.1 14.1 9.9 2.1v3.1l2.6 2.1v10.4h-6.3l-2.1-2.1h-8.3v-2.6l-3.1-1.6h-11.5l-3.1-3.1v-7.3h3.1l2.1-2.1v-5.2l-4.2-3.1v-10.9l-6.2-3.7v-15.6zm393.7 193.1l5.2 2.7h7.3l5.8-7.3 7.3-1.6 1.5-1.6v-4.1h7.3l2.1 1.5 0.5 4.2 6.8 0.5v9.4l-4.2 5.2-22.4-2.1-1 4.7-3.7 3.6-4.1 0.6v16.1l-6.3 2.1-2.1-2.1h-4.1l-1.1-5.2-9.3-1-2.1-12.5 2.1-2.1v-4.7l4.1-3.6h5.2zm-652.1 15l3.2-0.5 1 4.7h-4.2zm107.3 22.9h13.6l4.1-6.2h5.2l1.6 1.5 0.5 8.9-3.6 4.1h-19.3l-2.1-4.1zm-26 22.9l0.5-3.7 7.8-2 5.8 1 5.7 6.8h5.2l-1.6 7.3-23.4 1.5v-4.7zm36.4 2.1l0.6-2.1h17.2l3.1 3.2v3.1l-9.4 0.5-9.4-1.6zm-117.7 6.3v-3.7l6.3-2.6v6.3zm617.7 25v-2.6l-5.2-3.7v-7.8l2.1-2.6h7.3l1 4.2 2.1 12.5zm19.8 0v-10.4h10.4l2.1 2.6v7.8l-4.2 2.1h-7.3zm-25 62.4l14.6-2 2.1 1.5v4.7l-3.2 7.8-0.5 7.3-5.2-2.6-13-13z"/>
		<path id="Path 28" class="s28" d="m428.1 344.9l6.3-7.9h7.3v6.3l-7.3 3.1zm55.7 7.3l2.1-1 2.1 3.6-6.3 4.2-0.5-2.6zm8.9 99.4l1.5-1.6 1.6-8.8h8.3l3.7 3.1-1.6 7.8 7.8 0.6 0.5 3.6 3.2 2.6v3.1l-2.1 1.6-1.6 0.5h-5.7v-5.2l-3.7-1-4.7 9.3h-2v-8.3l-3.7-1zm-144.8-4.2l10.4-2.1h5.3l2 4.2h3.2l-1.1 9.3-3.6 8.4-2.6-1.1-0.6-2.6-4.1-0.5-2.1 5.7-2.1 0.6-4.2-3.7-0.5-5.2-4.7 0.5-1.5-1v-5.2l-3.7-2.1 2.6-3.1h5.2zm-187.5 2.1l5.3-1.1 2-2.1 7.3 1.1 0.5 5.7 1.6 0.5 1.1 8.4 3.6 3.6 3.6 9.9v6.2l-5.2-4.1h-12.5l-5.2-2.1v-19.3l-2.1-1.5zm-25 0l2.1-0.6 10.4 0.6v2 6.3l-4.1 3.1 0.5 15.6-3.1 4.2h-2.6l-5.2-1v-6.3l-2.1-1v-14.6l3.6-2.6zm417.2 6.8l3.1-0.6 2.6 5.8 3.2 2.6-1.1 5.7-2.1 1-4.1-0.5-2.1-4.2zm-440.1 7.9l5.2 0.5 1-4.7h2.1l1.6 3.1 2.6 1.1v9.3l-3.1 3.2h-5.2v-1.6l-4.2-2.6zm316.7 4.2l3.1-4.2h3.6l4.7 4.7v4.7l3.1 1.5v8.9l-7.3 1-1 2.1-8.3 1-3.7-5.2h3.1l2.1-2.1zm-407.8 62l2.1-2.6 3.6 3.1v10.4l-6.2 1.1-1-7.3zm51.5 44.2v-10.4h6.3l7.8 5.8-1.6 1v5.2l-3.1 0.5h-2.6z"/>
		<path id="Path 29" class="s29" d="m441.7 330.8l5.7-4.2 5.7 4.7 11.5 1.6h8.3l1.1 14.6-6.8 1.5 2.1-5.2-1.1-5.2-6.7 2.6h-5.2l-4.2-4.2h-10.4zm97.9 52.1h-10.4l4.1-4.2-1.5-4.1h3.6l4.2 2.6zm-124 17.7l1.1-2.6 6.2 0.5v1.6 4.6h4.2l2.6-3.1h1 4.7v4.2l-1 6.8-3.1 0.5-10.5-2.1-2 4.7v6.8h2v2.6l-3.1 3.6h-3.1-6.8l-1.5 3.1v7.3l-1.1 6.3h-1.6l-3.6 4.6-2.1-0.5-0.5-8.8 0.5-10.4-2.1-1.6-3.1 0.5v-0.5l2.6-2.6 1.6-5.7 1-6.3-2.1-2.1v-3.6h2.6l2.6-2.6h6.3l5.7 0.5zm78.1 19.8v-2.1l3.7-2.1 6.8 4.7-2.6 4.7v3.6l5.7 3.2 1 5.2 2.6 1.5-1.5 4.7-1.6 0.5-3.6-3.1h-8.4v-6.2l-5.7-1.1 0.5-2.6 3.7-4.7zm75.5 13.6l2.6-5.2h3.1l2.1 2.1-1 5.2 3.1 3.1v3.1l-2.1 3.1-5.2-7.3zm-354.7 17.7l0.5-2h3.7l2.1 2v10.5h-5.3-1zm326 3.1l5.3-3.1h3.6v1.5l-3.6 6.8-2.7-4.2h-2.6zm83.4 1.1l1-0.6 1.6 2.6h3.6l6.3 3.7-2.6 2.1v2.6l5.7-0.5 3.1 8.8v1.6l-3.6 1.5-1.6 2.6h-2.6l-1.5-8.3-3.7-0.5-1.6 1.5-2-1.5v-4.7l-3.2-1-1.5-4.2 2.6-2.6zm-343.3 9.9l7.9-0.5 1.5 1.5h3.7l3.1-1.5 2.1 3.1h4.1v5.7l-5.2 1v8.9l-4.1 5.2h-3.2v-3.6l-1.5-1.1h-3.7l-4.1 3.7-10.4 1-3.7-3.1-1-4.7-4.7 0.5-1.1-15.6h4.7l3.7 3.1-0.6 9.9 3.7 0.5 2.6-3.6 0.5-5.2 3.1-0.5zm286 2.6l1.5 5.2 4.2 0.5 0.5-5.2 2.1-1.1 4.7 1.1v4.2l-2.1 3.6-3.6 2.6v2.6l1 6.2 4.2 1.1v3.1 3.1l-2.1 2.1-12.5-1-2.6-6.8-3.7-0.5 1.1-3.7-1.1-6.2 1.1-2.6h1.6l3.1-4.7zm126 8.9h2.6l4.7-6.8h3.1l1.1 2.1v8.3h-4.7l-1.6-2.1h-5.2zm-377.1-2.1l3.2-2 6.2 1.5v5.7l-2.1 4.7-5.7-1zm420.8 16.1h4.2l2.6-3.1 6.8 14.1v5.7l-1.6 2.1h-5.2l-1.6 2.1h-4.1v-4.7l-4.2-1.6v-7.3-4.7zm-99 9.4l3.2-3.1v-6.8l1.5 1.6h3.7v9.3zm-101.1 3.7v-5.2h1.1l2.1 1 0.5 4.2zm261.4 3.1l4.2 0.5 2.1-2.1h12.5l1 3.2 2.1 1v5.7l-2.1 3.7v6.8l-4.1 1.5h-6.3l-1-5.2-3.1 0.5-1.1-8.3-6.2-5.7zm13.5 100.5l10.9-10.5 8.4 0.6 2.6 2.6-0.5 10.9-3.2 2.6v2.6l-11.4 4.7z"/>
		<path id="Path 30" fill-rule="evenodd" class="s30" d="m508.3 305.8v-15.1l6.3 1.1 10.9 11.4 12.5 24-0.5 1.5 4.7 5.7 2.6 6.3 3.1 2.6 3.1 4.2 1.1 1.5 1.5 5.2 3.2 3.2 8.8 17.7-0.5 13-5.2 3.6h-1l-0.6-7.3-2.6-1-0.5-3.7-3.1-2v-3.7l-2.1-2.1-2.1-1.5h-6.2v-10.4l-2.6-2.1v-3.1l-9.9-2.1-1.1-14.1-6.2-5.7-1.1-13-3.6-8.9-4.7-4.7zm393.8 231.2l12.4-2.1 2.1-2.6 4.2-0.5 2.1-3.1 7.8-1.6 7.3-8.9 7.3-1-2.1 5.7-7.8 7.8h-5.7l-1.6 3.2-6.8 2.6-0.5 6.7-9.4 0.6-3.1 4.6v5.2h-3.6l-0.6 2.1-8.3 0.5v11l-2.1 8.3 1.6 6.3 4.7 3.6 0.5 4.2 8.3 1.5-1.5 7.8 1 12-2.1 7.8 1.1 18.8-1.6 3.6-2.6 8.3-2.1 6.3h-8.3l-6.8 5.2h-4.7l2.1-9.9 8.9-6.3v-2.6l3.6-4.1v-16.2l-3.6-3.1-1.6-5.7-3.1-1v-10.5l4.1-2v-7.9l-2.1-2.6-1-20.3-5.2-1.5v-5.7l-6.3-2.1-2-3.2 2.6-2.6h3.6l1.1 2.1h7.2l3.2-2.1 1-5.7 2.1-1.5v-7.3zm-24-4.2l1.1-2.1 9.4 1.1 1 5.2h-3.1l-5.8-1.1zm-21.8 50v-6.2h6.2l1.1 2v4.2z"/>
		<path id="Path 31" class="s31" d="m493.8 375.6l9.8-0.5-2 4.1-7.3 3.7-2.1-4.2zm-27.1 24.5l8.3-0.6 6.3 2.1 0.5 5.8-3.6 4.1-8.4 0.5-1-2h-2.1v-5.2zm-4.2 33.3l1.1-2.6h3.1l5.7 7.3-1.5 2h-2.6l-2.6-4.1h-3.2zm-26.5 30.7l2.1-4.2h3.6l2.6-3.6 4.7 3.1 1 8.9-0.5 5.7-5.7 1-3.1-1.5v-4.7zm38 27v-6.2l7.8 0.5-3.1 5.2zm105.2-2.1l3.1-2h3.1v3.1l-2.1 2.1h-4.1zm-304.2 14.5v-4.1h8.3v2.1l5.8 3.1v2.6l2.6 2.6v6.2l-5.8 2.1-5.7 7.3-2.1 0.5-1 18.3 3.1 8.3 5.2 1 4.2 4.2-0.5 4.7-3.2 1.5-0.5 2.1-8.3 1.1-2.6-1.1-1.6-7.3-2.1-1v-22.9l1.1-5.7 5.2-8.4v-13.5zm28.1 12.5l1.1-4.2h6.2l4.2 4.2h6.2l0.6 6.2 4.6 4.2-1 6.2h-13.5l-1.1-4.1h-6.2v-4.2z"/>
		<path id="Path 32" class="s32" d="m583.3 432.3l5.2 0.5 1.1 2.6-1.1 1.6-1 6.3h-2.1l-6.2-1.1v-3.1zm-65.7 4.7l0.6-2.6h3.1l1.6 3.1 2.6 2.6v3.1l-2.6 3.1-6.3 1.6v-2.6zm311.5 47.9v-2.6l-4.7-2.6-0.5-3.1h2 9.4l0.5 6.2 5.2 4.2 4.2 0.5 0.5 9.9h-8.3l-1-10.4-2.1-2.1zm-60.4 16.1l2.6-5.2 4.1 2.1-1 9.9-1.6 2.1h-4.1v-5.7zm47.9 4.6v-4.1h6.2l2.6 1.5 1.6 4.7h6.2l3.2 4.2v10.4l2.6 2.1h5.2l1.5-1.6 3.2 0.5 1 4.2 2.1 1.1v5.2l-12.5-1.1v-2.1l-7.3-6.7h-4.7l-0.5-6.3-7.3-2.1v-5.7l-2.1-1zm-7.3 44.2l0.5-6.7 4.2-6.8h5.2l5.2 3.1-1 5.2 3.6-1.5 8.4 2v11.5l2.6 2.6-1.1 3.6-12-1-7.2-2.1-1.1-4.2h-4.2v-3.6z"/>
		<path id="Path 33" class="s33" d="m408.3 377.1l1.1-3.6 7.3-4.7v9.9h-7.3zm-109.9 25l1.5-4.7h4.2l-0.5 8.3-5.7 1.1zm-9.4 27l3.1-9.8 2.6-1.1 3.1 2.1v7.3l-4.1 5.7-3.2-0.5zm337-6.3l5.2-1 2.1 2.6 12.5 1.6v1l-9.4 1-1 2.7h-6.2l-1.1-1.1 1.6-4.2-3.7-1.5zm-507.3 20.8l4.2-3.6 5.2 0.5 2.1 1.5h6.2l1.1 6.8-2.1 0.5-13.5 2.1-3.2-3.1zm575 6.2l6.3-1 4.7 1 2.1 5.8h7.8l-1.1 10.9-5.7-1-4.7 4.6h-3.1v-5.2l-6.8-8.3zm-146.9 35.9l-1.5-0.5-1.1-8.3 3.2-2.6h1.5 1.1l-1.1 8.3zm-430.2 1h4.2l3.6-4.1h6.8v3.1l-1.6 2.6-4.7 2.1v2.6h-6.2l-3.1-0.5zm618.7 31.2v-5.7l2.1-0.5h4.2l1 9.3 5.2 1.1v4.1h-6.2l-1.6-2.6-4.2-1.5zm-410.4 14.6l1.1-6.3h10.4l2.6 2.1 0.5 16.6h-5.7l-4.7 4.7v3.7l-11.5 1.5-1 4.7h-6.8l-1.5 2.1h-4.2v-4.2-3.1l4.2-3.1v-2.1h4.1l6.8-8.3h3.6l2.1-3.7zm477.6 22.9l3.7-1 2.1 1v5.3l-4.2 1.5v4.2l-3.7 1.5-0.5 4.7-3.6-1-3.7-7.8h5.2l4.7-4.7z"/>
		<path id="Path 34" class="s34" d="m66.7 522.4l10.4-1.1 5.2-3.1h12l8.8 4.2h7.3l7.3-8.3h5.2v16.1l-3.6 7.3-6.3 7.3-9.4 4.1-6.2 0.6-0.5 3.6-20.9-1.6v-3.1l-5.7-2.1-4.7-5.2h-11.4v-7.3l-2.1-1v-2.1h4.2l4.6-8.3zm545.9 18.7l16.6-0.5 12 1 2.6 2.7-1.5 2.6-2.6 0.5h-12l-0.5 4.1-2.1 2.1h-11.5zm-9.9 22.4l-4.7-4.7v-5.2h6.3l8.3 3.7v4.6l-2.1 2.1z"/>
		<path id="Path 35" class="s35" d="m484.4 385.5v-3.2l3.6-3.6h4.2l2.1 4.2-0.5 3.6zm21.8-2.1l4.2-0.5v5.2h-5.2zm70.8 32.8l8.4-1 4.1 3.1h4.2v6.2h-5.2l-2.1-2.6-10.4 1.1zm-368.8 14.6l-4.1-2.1v-10.4h5.2l1.5 4.1h2.6l-1 8.4zm395.8-1.1v-11.4l6.8 0.5 5.7 4.7 9.4-0.6v1.1l-4.2 1v3.7l6.3 1 1 1.1-3.1 3.6-3.1-2.6-3.7 0.5-1 5.7-2.6 3.7h-3.1l-2.1-2.1-1.1-8.3zm-496.3 22.9l8.8-8.9h2.1v4.7l3.1 3.1-1 8.4h-2.1-6.2l-4.2-2.1zm608.9 1l10.4-2.1 1-2.6 17.2 6.3 0.5 7.8 11.5 9.4h7.3l2.6-4.7h3.1l5.2 4.1 0.5 3.7h4.2l-1 4.7h-5.3l-1 2.6h-9.9l-2.6 3.6v3.7h-1l-0.6-3.2-2.6-2h-11.4v-4.2l4.7-4.2h2.6l1.5-3.6-3.1-2.1-6.8 1.6h-8.8l-1.1 5.7 2.6 2.6v2.6l-7.2 1.6-1.6-2.1 2.6-6.3-0.5-4.1-2.6-1.1-3.7-5.2h-2.6l-2.1 4.2 2.1 6.2-4.1 4.2h-3.7v-4.7l1.6-2.1-1.1-7.3 1.1-10.9zm-670.3 66.6l7.8-6.2 5.2-10.4h11.4v4.2l-2 3.1-6.8 2.6-8.9 10.4-1 6.8v2h-3.1l-3.2 3.2v3.1h-6.2v-6.3l4.2-2.6v-7.2zm765.1 39.5l1-4.1h4.2l1 4.1z"/>
		<path id="Path 36" class="s36" d="m486.5 297.5l10.4-4.2v4.7l2.6 3.1 0.5 4.7v6.3h-12.5l-2.1-2.1h-5.2l-5.2 3.6-6.8 0.5-1.5-3.6 17.7-12zm415.6 173.9l34.4-2.6h5.7 18.2v9.9l-1 9.4-4.2 4.1-12.5 7.3h-5.2l-6.8-0.5-0.5-4.2-2.1-1.5h-7.2v-2.6l-2.1-1.6h-7.8l-4.7-2.1v-5.7l-3.2-2.1zm-77.6 68.2l1.6-1.5 2.1 1-1.1 4.2-3.6 1.5zm-600 32.8l0.5-3.6 3.1-2.1v-5.2l8.9-10.9 6.8-4.2v-3.1h10.4l2.1 1v15.6h-4.2l-4.2 3.7v4.7l-6.2 2.6v3.6l-14.6-1zm107.3-16.2l2.6-0.5 5.2-5.2 0.5-3.1h8.9l2.1 4.1h19.2l3.7-4.1h7.3v6.2l3.6 6.8 2.6 1.5v6.3l-7.3 1-3.1-3.1h-17.2l-0.5 2.1h-11.5-5.2l-5.7-6.8-5.7-1z"/>
		<path id="Path 37" class="s37" d="m425 497.4l4.2-2.6 3.6 5.2 3.1-2.6h11l3.1 2.1v21.8l-3.6 1.6-4.2 5.7-0.5 12.5-11.5 8.4h-5.2l-3.1-4.2h-3.1v-6.8l4.1-2.6v-15.1l-10.4-2.6v-9.3l10.4-1.1 2.1-2.1zm-41.7 16.7v8.3h-8.3v-8.3zm3.6 33.3l0.6-3.1h12.5l14.6 1v8.4 6.2l-2.7 4.2h-6.7v-3.2l-4.2-3.1h-10.9l-3.2-3.1zm155.8 9.9l15.6-4.7 2.1 3.1v5.2l-3.1 3.2h-2.6l-7.3 8.3h-5.2l-8.4-5.7-2.6-3.7 0.5-1.6zm-84.9 20.9l3.2-0.5 6.7 0.5-1 7.8-2.1 3.1h-6.2zm122.4 29.7l4.1-3.7 3.1-0.5 2.7-4.1 8.3-3.2 5.2-6.2h5.7l3.1-3.1h8.4l-2.1 14.5-2.1 4.2-8.3 1-6.8 7.8-5.2 1.6-3.6 4.7-1.6-0.5-2.6-4.2-6.3-4.2z"/>
		<path id="Path 38" class="s38" d="m373.4 398l4.7-1.1 1.6 2.6-0.5 5.2-4.2-0.5zm22.4 4.7l5.7-4.2 6.3 2.1 1 1.6-1.5 3.6h-6.3l-2.6 2.6h-2.6zm-259.4 39.6l2.6-2.6 0.5-3.7 13.1 0.6 6.2 1-4.7 4.7-0.5 2.6-3.1 0.5-2.6 4.2-10.4-0.5zm176 3.1l4.2-0.5-2.6 9.8-3.2-0.5-0.5-4.7zm263 19.8l3.2-0.5 1 4.2-4.7-1.1zm-431.2 11.5l18.2-1.1 5.2 2.1h12.5l5.2 4.2 0.5 1h-17.1l-5.8 1.6-2.1 2.6h-14.5l-6.8 10.4h-14.6v-4.2-2.6l4.7-2 1.6-2.6h5.2l2-2.1v-3.2h2.6zm638.1 5.3l2.6-1.6-0.6-3.1 4.2 2.6 6.8 0.5 2.6 5.7 5.2 0.5 2.1 4.2-1.1 10.9h-6.2-3.1l-4.2-5.2h-5.2v-8.3l-2.6-1zm63.5 20.8v-5.2h9.4v2.1 3.1l-3.1 2.1zm-807.3 38.5l1-2.1h6.3v2.1 4.2h-6.3zm290.7 12.5v-3.7l4.6-4.7h5.8l0.5 2.1-0.5 3.1-5.2 5.2-2.6 0.6zm495.8 22.9v-14.6l12 1 0.5 3.7-2.1 3.6-3.1 1.6v4.7z"/>
		<path id="Path 39" class="s39" d="m510.4 388.1v-5.2l8.4 1-6.3 4.2zm72.9 133.2l9.4 1.1 2.6-4.2h6.8l2.1-2.1h7.8l0.5 2.1h10.4l9.4 8.4h15.6 6.3v16.6l-10.5 1.1-2.6-2.7-11.9-1v-5.2l-2.7-2.1v-3.6l-1.5-1.1h-5.2l-3.7 2.1h-31.2l-2.6 2.1h-9.4v-4.7l5.7-1 1.6-4.7zm-56.3 13.5h10.5l4.1-4.1v-4.2h20.9v4.2l2 2v6.3h-4.6l-3.2 2.6-18.2 0.5-1 7.3h-6.3l-0.5-1.6-9.9-0.5v-12.5zm335.9 4.2l1.6-3.1 5.2-2.1 1-3.1 7.3 2 2.6 3.2 5.8 1v5.2l-5.2 1.6v9.9h-3.7l-2.6 2.6-4.7 0.5-5.7 7.3-4.7-0.5 1.6-2.6-4.2-2.1v-3.7l5.2-2.6v-4.1l-2.1-3.2 3.2-2zm-558.9 37.4v-6.2h4.2l3.1 2.1h7.3 4.1v4.7l-7.2-0.6z"/>
		<path id="Path 40" class="s40" d="m538.5 449.5l2.6-5.2 6.3 1-1.6 6.3-5.2 3.1-1.5-1zm-165.7 29.1v-6.2l3.2-1.1 2-3.1h9.9l3.2 1 2 1.6-1.5 3.1 1 8.9h-10.4l-3.1 2.1-2.1-4.7-4.2-0.5zm-37.5 6.2l1.6-7.8h4.7v7.8zm65.6-6.8l4.2-0.5 1.5 4.2h6.3l-0.5 9.4h-8.4l-4.7-2.1 2.1-4.7zm268.8 4.7l5.2-2.6 2.6 3.6 2.6-1h9.4l0.5 4.1v1.6l-1.6 0.5-0.5 3.7-5.7 3.1v7.8l-5.2 4.7-4.2-2.6v-12l-4.2-4.7zm-226 1.1l6.2 1 1.6-2.1h6.8l4.1 8.9v8.8l1.6 4.7 2.6 2.1v2.6l-4.2 2.6v30.7l-2 1.1v7.2h-8.4v-6.7l4.2-5.8v-16.1l-6.3-1.6v-21.8l-3.1-2.1h-10.9l-0.5-10.4 1-2.1zm268.8 7.3l2-2.1h4.2v2.1l-1 3.6-5.2 0.6zm-181.3 17.1l-3.1-1.5-1.1-11.5h2.1l4.2 0.5 3.1 3.2v5.2zm-185.4 9.9v-6.3l18.7 2.1h2.1v8.3h-4.1-11l-2.6-4.1zm-114.6 7.3v-5.3h10.5v4.2l-4.2 2.1zm156.2 18.7v-14.5l-3.1-1.6-1-5.7h10.4l10.4 4.1v10.4l-2.6 1.6-1.6 5.7zm308.4 1.6v-8.9l2.1-2h7.8l2.6 3.1v9.4zm-649 6.7v-4.1h3.1l13.1 7.2 1 6.3h-3.6l-10.5-2.1v-4.7zm82.3 5.2l2.6-2h9.9v10.4l-2.1 0.5-4.1-3.7-6.3-1z"/>
		<path id="Path 41" class="s41" d="m158.9 437.5l3.6-0.5 4.2 4.2 1 5.2-2.1 2.1-5.2 1-4.7-1-2.1-3.7 0.6-2.6zm-46.4 22.4h6.3l-1.1 4.7-5.2-0.5zm832.8 57.2h3.2l9.3-5.7 2.6-3.6 4.2-2.1 4.7-6.8 5.7-1.6h4.2l-0.5 2.1-9.4 13-2.1 2.6-13 9.9-17.2 14.1-12.5 7.3-3.7-3.1 0.6-6.8 6.7-2.6 1.6-3.1h5.7l7.8-7.8zm-36.4 73.9l-8.3-1.6-0.6-4.1-4.7-3.7-1.5-6.2 2.1-8.4v-10.9l8.3-0.5 0.5 10.4 1.6 2.1h4.1l-1 15.1zm-27.6 69.7h4.7l6.8-5.2h8.3v2.6l-8.3 14.6-6.3 6.8-7.8 3.6h-8.3l-1.1-0.5-2.1-1.6 0.6-7.2 3.1-7.9h4.2l3.1-4.6z"/>
		<path id="Path 42" class="s42" d="m481.3 401.6l1-1.6h5.7l1.1 3.7 3.6 2.1-3.6 4.1-3.7-1-3.6-1.6zm2.1 50l-2.7-3.1 0.6-6.8-2.1-8.3 2.6 0.5 2.6 3.1 3.1-0.5-1 15.1zm-115.6 7.3l1-9.4h3.1l5.2 3.7 0.5 2.6-0.5 6.2h-4.7l-1.5-3.1zm155.2 4.2l1-9.9h1.6l6.8 2.1 1 6.2-3.1 3.1-1.1 6.8-2 1v2.1l-0.6 6.3-4.1 0.5 0.5-6.8h-5.2v-1l3.1-3.7zm107.3-5.2l1-4.1h4.2l3.6 1.5-0.5 4.7-2.1 1.6zm-302.6 11.9l2.6 1.6 3.2-2.6v3.1l3.6 5.2-1.5 7.8v3.2 0.5l-4.2-0.5-2.6-6.3-3.7-1.5v-5.8zm141.2 4.7l2.6-0.5 1-3.7h8.9l4.1 6.3h6.3 5.2v4.2l-5.2 6.2h-4.2l-1-2.1-4.7 0.5-7.8-0.5-5.2-2.6v-3.6zm-268.8 40.6l4.7-2.6 4.7 4.7 0.5 3.6-2.6 2.6-3.1 2.1-1 3.6-2.1 7.3h-1.6l1.1-7.8h-3.7l3.1-4.1zm85.4 38.5l-5.2-1.1-3.1-8.3 1.1-18.2 2-0.5 5.8-7.3 5.7-2.1h11.5l1 8.3-16.7 0.5v4.2l-2.1 1.6zm287.6-20.8h9.3l2.6-2.1h31.3l3.6-2.1h5.2l1.6 1v3.7l2.6 2.1v5.2l-16.7 0.5-15.1 1.5-3.1 2.1-2.6 0.5-12 1.1-0.5-3.7-2.1-1.5h-8.8l-3.7-2.1v-6.2zm-396.9 1l1.6-0.5 1.6 7.8 10.4-1.1 0.5 2.6 4.7 4.7 3.1-1h2.1v3.1l-6.3 5.2-3.1-1.5-1.5-5.3h-2.6l-5.3 6.3-5.7-2.6-1.5-3.1zm309.3 19.8h7.3l5.2-3.7 8.4 0.5v9.4l-9.9 1-13.1 1.1v-8.3z"/>
		<path id="Path 43" class="s43" d="m408.9 402.1l3.1-1.5h3.6l-2.6 5.7-5.7-0.5zm25.5 10.4l1.1-6.8 5.2 3.1v5.8l-2.6 1zm82.8 2.1h3.1l1.6-3.7 1.5 0.6-0.5 4.7 2.6 2-0.5 3.2h-4.2l-3.1 2-3.1-4.1zm44.8 5.7h2v-3.1l6.3 0.5 1.6-3.1 5.2 1.5-1.1 6.8 5.8 7.8h-4.7l-2.1-2.1h-3.1l-2.6 5.2-4.7-0.5-3.2-1.5 1.1-2.6-2.6-3.2v-3.6zm73.4 10.4l1.1-2.6 9.3-1-3.1 5.7-3.1 0.5zm23.9 16.1l2.1-6.7 3.7 1 1.5 2.6v3.7h-6.2zm48.9 1v-3.1l2.1-0.5 4.7 2 1.1 2.6-6.8 1.6zm12.5 28.6l-2.1-6.2 2.1-4.2h2.6l3.6 5.2 2.6 1.1 0.6 4.1zm22.9-4.1l6.7-1.6 3.2 2.1-1.6 3.6h-2.6l-4.7 4.2-1-2.1zm-540.1 22.9h3.6l0.5-1.5 13.6 0.5 2.1 1.5 11.9-0.5h12.5l6.8 3.1 1.6 10.5-7.8 4.1-4.7-4.1-7.3-1.1-5.7 1.1-3.7 5.2h-7.8l-1.6 2-8.3 1.1-4.7-4.7zm-55.7 56.2l0.5-5.2 3.1-2.6 1.6-5.2 4.2-4.7 5.7-3.1h8.8l4.2 3.1-2.1 14.6-1 0.5-2.1-1.5h-12l-4.7 6.2h-5.2zm602.1 2.1v-4.2h18.8v3.2l2 2.6 4.2 0.5 1.6 6.7 10.9 8.9v3.1l-4.7-1-3.1-4.2-3.1-1-10.4-9.4zm-187.5 25v-10.9l2-1.6v-4.2h16.7v6.8l2.6 5.2-0.5 2.6h-9.9l-1.6 2.1zm-110.4 5.2h-7.3l-1-5.7h8.8z"/>
		<path id="Path 44" class="s44" d="m485.4 408.9l3.7 1 3.6-4.1h2.1l5.7 1 1.1 2.1-4.2 7.3-3.6 2.1v2h-4.2l-1.6 3.2-7.3-5.2zm116.7 23.9l2.1-3.1 5.2 1.6 1 8.3 2.1 2.1h3.1l2.6-3.7 3.2 0.5 0.5 2.6 6.2 4.7 3.2 7.8-1.1 4.2h-3.6l-1.6-2.6v-3.6l-5.7-5.3h-2.6v7.3l-2.1 3.7v-3.1l-5.2 0.5v-3.7l-6.3-9.3-1-4.7zm76 4.1l5.8-0.5 3.6 1.1-1.5 3.1-4.7 2.1-2.1-0.6zm12.5 34.4l2.1-2.1v-4.1l-2.6-1.1-2.6-5.7 1-9.9 5.2 1.6-0.5 6.7 6.8 8.4v5.2l-4.7 6.7h-2.6l-3.2-1zm12.5-1l4.7-4.7 5.8 1 1 7.3-1.6 2.1-4.1-0.5-1.6-3.2h-3.1zm33.3 10.4l-2.6-2.6 1.1-5.7h8.8v6.3zm-153.1-2.6v-3.7h1.5 4.7v5.7h-3.6zm-356.3 36l3.7-5.2 5.7-1.1 7.3 1.1 4.7 4.1-3.7 3.1v3.7l-3.1 0.5h-10.4l-3.6-1zm386.4 39.5h11.5l2.1-2 0.5-4.2h12v5.2l-18.8 16.1v3.7l-3.1 2.1-5.2 8.3h-12l-1 3.6-3.2 0.6-2.6 4.1-4.7-0.5v-6.2l-5.7-5.8v-2.1l0.5-2.6 5.2 0.6 6.8 3.6h4.7l1.6-1.6 0.5-13 7.8 0.6 2.1-2.1v-4.7zm-193.3 27.6l5.3-2.6v-1.6l4.6-0.5-1 1.6 2.1 0.5 11.4-1.1 1.1 0.6 1 5.7h7.3v5.2l-1 6.2h-14.6l-3.1-3.6-6.3-0.5v-4.7l-4.7-1.6z"/>
		<path id="Path 45" class="s45" d="m414.6 428.7h3.1l3.1-3.7v-2.6h4.2l2.1 2.1 1.5 12 5.8 0.5-1.1 6.3-4.1 4.6v3.7h-7.8l-1.6 1.5-1.6-3.6 0.6-8.8-4.2-1.6zm25 7.3l3.1-1.6 3.7 3.1-3.7 3.7v9.4h-3.6v-7.3zm-291.7 15.6h6.2l1.6-3.1 4.7 1v5.2l2.1 1.6v19.2l-18.3 1.1-0.5-15.6 4.2-3.2zm243.7 5.8l0.6-6.8 5.7-1.1 2.1 0.6v5.7l-0.5 2.6-5.8-0.5zm11.5-0.5l9.4-1.1 2 5.7 4.2-0.5 1.1 2.1 4.1 0.5 5.2 4.7-0.5 12.5-2.1 2.1h-3.1l-5.7-12-2.6 0.5-2.1 10.4h-6.3l-1.5-4.1-4.2 0.5-1.6-10.4 1.6-1.6-0.5-5.2 2.6-2.1zm53.1 17.7l0.5-4.1h7.8l2.1 4.1h2.1v4.2h-10.4zm75 86.4v-11.4h6.2l5.3 3.6v4.2l-11 4.1zm-470.8 11.5v-10.4h3.6 7.3l1.6 2.1v10.4h-3.1z"/>
		<path id="Path 46" class="s46" d="m650 562h8.3l5.2-5.3v-3.6l3.2-4.2v-2.6l5.7 2.1-2.6 8.3-0.5 0.6-6.3 9.3-2.6 2.6-3.6 11.5-7.3 4.7-7.8 13-2.6 1.6v5.2l-2.6 3.6-8.9 8.9-3.6 1.5-5.3-0.5-1.5-3.1-0.5-9.9 2-4.2h4.2l6.3-5.2 5.2-16.6 3.1-2.1v-5.2-3.7l6.2-5.7zm-185.4 27.1l2.1-3.2 1.1-7.8h16.6l7.3 0.6-2.1 12.4-2 3.2v8.3l-7.3 2.1h-8.4l-3.6 1h-5.7l-2.1 2.1h-9.9l-15.1-4.7 1-7.8h14.6l2.1 2.1h8.3l3.1-3.6z"/>
		<path id="Path 47" class="s47" d="m222.9 539l-3.6-4.1-0.5-8.3h10.4v4.1l-1.1 7.3zm191.7 14.6v-8.3h4.2 3.1l3.1 4.1v4.2h-4.2zm-233.3 0.5l5.2-6.2h2.6l1.6 5.2 3.1 1.5v15.6h-13.5l-1.1-10.4zm-22.9 3.7l3.7-2.1h9.9v3.6l-6.8 5.2-3.1-2.6h-3.7zm462.5 29.2l5.7-5.7 1.1-5.8 2.6-3.1h7.3v5.2l-3.1 2.1-5.3 16.7-6.2 5.2h-4.2zm-213.5 1l1.5-2.1 6.3-0.5 4.7 5.7-1.6 3.7-5.2-2.6zm43.8 7.3l1-6.3h6.3 6.2v4.7l-3.1 3.6h-8.4z"/>
		<path id="Path 48" class="s48" d="m462.5 400.6l4.2-0.6v4.7h-3.2zm-12.5 25.5l0.6-4.6h3.1l3.1 4.1zm8.3 56.8v-4.2h10.5v3.6l-3.2 8.9-3.1 0.5zm-31.2 5.2l8.3-1 0.5 10.4-3.1 2.6-3.7-5.2-1.5-3.7zm129.7 53.7l3.1-2.6h4.7l3.6 2h8.9l2.1 1.6 0.5 3.7-21.4 5.7zm-535.9 0.5l6.2-1h4.2v6.2l-4.2 0.5v11h-2l-3.7-1.1h-0.5l-0.5-0.5-1.6-6.3v-3.1zm8.3 22.9v-5.2h6.3l5.2 3.2-2.1 3.1-3.6 0.5zm18.2-3.6l2.6-1.6 10.4 2.1v10.4l-14.6-2.1v-6.2zm383.4 15.1l0.5-9.4 6.2-5.2h6.3l5.2 4.7-10.4 5.2-1.1 3.1-3.1 1zm-50.5-7.3l7.3-1 4.2 1v5.2h-10.5l-1-2z"/>
		<path id="Path 49" class="s49" d="m147.9 449.5l2.6-4.2 3.1-0.5 2.1 3.7-1.5 3.1h-6.3zm516.7 14l-7.8 2.6 2.1-10.4 1.5-0.5 2.1 3.7 2.6 0.5zm-64.6 25l-1-8.4h3.6l1.6 2.1v6.3l-0.5 1zm-314.6 65.1v-22.9l2.1-1.6v-4.2l16.6-0.5v4.2l-8.3 7.8v21.3h-6.2zm220.8-3.1l1.5-2.1 13.1-1 9.9 0.5 0.5 1.6v11.4l-3.7-1-5.7 1h-2.6l1-1-4.6 1-1.1-1.5-8.3 0.5zm334.9 16.7l4.7-3.2h8.3l-1 9.4h-7.9l-4.1-2.6z"/>
		<path id="Path 50" class="s50" d="m34.9 566.6l3.6-0.5 2.1-3.1 5.2 1v6.3l-6.7-0.5-1.6-0.6zm129.7 2.1l6.2-0.5 4.2 2.1h5.2 13.6l8.8 0.5 21.9 1.6 2.6 1 1 14.1h-2.6l-49.5-4.7h-46.3l-23.4-2.6-20.9-4.2v-5.2l1.6-1 10.9 0.5h14.6 8.3 18.8 16.1zm206.3 4.1l9.4-0.5 1 2.1h10.4v10.9l-7.3 0.6-0.5-4.7-6.8-0.5-5.2-0.6-3.6-2.6z"/>
		<path id="Path 51" class="s51" d="m422.9 400l5.2-0.5 1.6 2.1-2.6 3.1h-4.2zm55.2 11.5l3.7-4.2 3.6 1.6-4.7 9.4h-1l-1.6-1.1zm30.8-1.6l5.2-2.6 3.1 1.6-1.1 3.1-5.2 4.7h-3.6l-1.6-4.1zm-61.9 5.7l3.1-3.7v-3.1h4.1l3.2 5.2-3.7 7.3h-3.1l-3.6-2.1zm88 6.3l3.6-1.6 1.6 4.2h-5.2zm-11 6.7l7.3 0.6 1.6-1.6 2.1 1 0.5 3.2-1 4.1-2.1 1.1 0.5 7.3-1.6 3.1-2.1 0.5-1-1.6-4.7 0.6-0.5-0.6 2.6-3.1v-3.1l-2.6-2.6-0.5-5.2zm40.6 10.4v-5.7l4.7 0.5 2.6 4.2-2.1 1zm71.9 22.4l2.1-1.6 3.6 2.1-2.6 3.6-5.7 0.6v-2.6zm-138.6 11.9l2.1-5.2h6.3v3.2l-3.2 3.1zm49 12.5l2.1-3.1h3.1l-0.5 7.8-2.1 1.5-2.6-3.1zm-182.3 28.1v-9.9l7.8-1 0.5 10.9h-6.2z"/>
		<path id="Path 52" class="s52" d="m449 322.5l3.6-2.1 12 9.4v3.1l-11.5-1.6-5.7-4.7zm86.5 52.1v-4.2h6.2 6.3l2 1.6 2.1 2.1v3.6l3.1 2.1 0.6 3.6-3.7 1.6-8.3-1.6-4.2-0.5v-5.7zm321.9 100.5l6.2-0.5h1.1v8.3h-5.7l-3.7-3.1v-4.2zm-331.2 47.4l1.5-3.1 3.7-1.1 5.2 0.5 5.2 7.8v4.2l-4.2 4.2h-10.4zm128.1 4.1l6.3-1 8.3 2.1 2.1 2.1v4.6l-6.3 2.6v6.3h-10.4zm187.5 60.4v-5.2l3.2-4.2 0.5-4.2h7.8l1 3.2h2.1v6.2l-2.1 2.6v7.8l5.2 3.7v2.6l-1 14.6 2.1 3.6v8.9l-4.2 2.6v2.6l-4.2 3.6v3.6l-7.2-1-1.1-23.9v-15.7l-2.1-4.6zm-4.7 65l3.2-2.6h11.9l2.1 12.5-5.2 3.7-7.3-7.8z"/>
		<path id="Path 53" class="s53" d="m523.4 411.5l7.9-1.6 1 2.6-1 2.1-2.1 2.6-3.7 1.1-2.6-2.1zm17.2 2.6l5.7-0.5 1.1 2.6-5.2 3.6-3.7-0.5-0.5-3.7zm-52.6 9.4l1.6-3.1h4.1l0.5 6.2-3.6 4.7-3.6-1.5v-2.6zm29.6 0l3.2-2.1h4.1l1.1 2.6-2.1 4.7-1.6 3.6h-5.2zm15.1 4.2l2.1-3.1h5.2l1.1 3.6-1.6 2.6-4.2 1-0.5-3.1zm-21.9 11.5l2.6-3.7 4.2 1.6-1 8.3-3.2 3.1h-2l-2.1-2v-2.6zm12.5 7.8l4.7-0.6 1 1.6v2.1l-3.6 3.1h-1.6zm85.9 7.8l5.2-0.5v3.1l-5.2 5.8h-2.6l-0.5-4.2zm-93.7 8.8l2-1.5 5.2 1-2 6.8-3.2 3.6h-3.6l2.1-4.1zm29.1 8.3l1.6-6.8 5.2 1.1-2.6 8.3h-1.6-1.5zm13.5-1l2.1-1.1 3.7 2.1-3.2 4.7h-1.5l-3.2-2.1v-2.6zm-51 9.9l3.6-2.1 4.7 1.6v6.2l-5.7 6.8h-4.7v-6.8l2.1-2.1zm44.8 2.1l3.1-3.6h3.1l1.1 6.2-1.1 3.7-5.2 6.7-3.6-1v-2.6l2.1-1.6zm-349 46.4l1.1-3.7 3.1-2.1 1 1.1-1 5.2z"/>
		<path id="Path 54" class="s54" d="m494.8 405.8l3.6-6.3h9.4l1.6 2.1h5.2l-0.5 5.7-5.2 2.6-7.3-1-1.1-2.1zm170.3 26l1.1-3.1 17.7 5.7v2.1l-5.7 0.5-4.2-0.5-0.5-2.6h-7.8zm-259.9 13.6l1-6.3h8.3l4.2 1.6-0.5 8.8h-5.8-2.6zm156.3-1.5l2.1-2.1 2.6 1 0.5 7.8-4.7 1.1-2.1-1.6zm-107.3 24.5v-7.8l-2-1.6 1-13h4.2l4.7 6.8h2.6v17.7h-7.9l-0.5-2.1zm-189.6 124.4l0.6-7.8h11.9l2.1 1 0.5 8.9z"/>
		<path id="Path 55" class="s55" d="m413.5 497.4l-2 2.1h-5.8l-1.5-8.4h8.3 1zm5.3 0v-6.2h8.8l1.6 3.6-4.2 2.6zm-215.6 31.8l4.1 0.5 1.1-5.2 10.4 2.1 0.5 8.3 3.7 4.2v7.3l-5.2 5.2h-2.6l-2.6 2.6v6.8l-8.9 7.3-1 2.6-8.9-0.6v-15.6l6.2-5.2v-3.1l1.1-9.9zm389.6 91.6l3.6-4.7 5.2-1.5 6.8-7.8 8.3-1.1 0.6 9.9 1.5 3.1-4.7 5.2-1.5 0.6-11 0.5z"/>
		<path id="Path 56" class="s56" d="m109.9 497.4l5.7-4.7 3.2 0.5v4.7l-2.7 3.7-0.5 5.2-6.2 7.3h-7.8l-3.7-2.1h-13.5l-8.9 4.7-7.8 1-1 4.7h-5.8l-4.6 8.3h-4.2l1-6.8 8.9-10.4 6.7-2.6 2.1-3.1v-4.2h29.7l2.1-2 4.7-1.1zm723.4 10.4v-7.8l4.2-2.6h8.3v5.2l-3.1 2.6-1 8.4 1.5 4.1 2.6 1.6v3.6l-1.5 1.6h-5.2l-2.6-2.1v-10.4z"/>
		<path id="Path 57" class="s57" d="m451.6 366.2l9.9-1 4.1 2-2.6 7.3-0.5 7.3-8.3-1.5-15.1 0.5-2.6-2.1 5.2-6.2v-5.3l3.6-0.5zm19.3 8.4l5.2-0.6 2.1 3.7-1.6 2.6-5.7 0.5zm-58.9 26l0.6-3.1 4.1 0.5-1 2.6zm109.9 10.4l3.1-4.1 5.2 0.5 4.2 4.7 6.2 1v1.1l-2.6 1.5 0.5 3.7v1l-3.6 1.6-2.1-1.6-1.6-5.7 1.1-2.1-1.1-2.6-7.8 1.6zm-396.8 86.4h14.5l6.8-10.4h14.6l2.1-2.6 5.7-1.6h17.2l1.6 11.5-1.1 2.6-7.3-5.8h-9.9l-2.6 2.1v2.1l-5.7 0.5-10.9 7.8h-5.8l-0.5 2.1-7.3 6.3h-13.5v-8.4zm-53.7 64.6l0.5-4.7 4.2-2.6v-3.1l20.8 1.5 1.1 2.6v8.4 6.2l-10.9-0.5-7.9-5.7h-6.2zm737-1.1l3.1-1h6.2l7.3 2.1v14.5l-4.1 4.2h-6.3v-3.1l-2.1-1.1v-5.7l-8.3-4.1v-4.2z"/>
		<path id="Path 58" class="s58" d="m664.6 543.2v-6.2l6.2-2.6 13.6 0.5 1 10.4h-7.3l-3.6-1.6h-9.9zm-227.6 14.1l1-1.6 5.2-0.5 0.6 6.8h-6.3z"/>
		<path id="Path 59" class="s59" d="m533.3 461.5h4.2v5.2l-1 5.7-3.2 2.1h-6.2v-2.1l2.1-1 1-6.8zm28.1 2.6l0.6-2.1h2l2.6 3.1v3.2l-2.6 3.6-3.6-2.1zm-148.4 17.7l2-10.4 2.6-0.5 5.8 12 3.6 5.2 0.5 3.1h-8.8-5.2-1.1zm-52.6-3.1l4.2-1.1 1.6 3.2v2.6l-1.6 1.5h-4.2zm-25 9.4v-3.1h6.3l0.5 2.1zm-131.8 6.2l4.2-0.5-0.5 1.5h-3.7zm168.8 8.9l5.2-3.1 1-5.8 18.8 2.1 1.5 6.3-2.6 4.1-12.5 1.1-0.5 6.2h-8.3-2.1zm-218.2 50.5l4.7-6.2h11.9l2.1 1.5-1 6.8h-9.9l-3.7 2.1h-2.6z"/>
		<path id="Path 60" class="s60" d="m970.8 478.7v-9.9l11 2.6 1.5 1v6.3h-6.7zm-748 60.3l5.3-1 1-7.3h8.3l6.3 4.2v8.3 3.1l-6.8 4.2-8.8 10.9v5.2l-3.2 2.1-0.5 3.7-21.9-1.6 1.1-2.6 8.8-7.3v-6.8l2.6-2.6h2.6l5.2-5.2zm427.1 22.9v-7.2l1.1-3.7 3.1-1.6v-6.2h10.4v0.5l-0.5 1.1 2.6 1.5v2.6l-3.1 4.2v3.6l-5.2 5.2zm-495.9 4.2v-3.6l4.2-0.6h3.6l3.2 2.6-0.6 4.2-8.8 1.6z"/>
		<path id="Path 61" class="s61" d="m537.5 549.5l1-7.3 18.3-0.6 1.5 10.5v0.5l-15.6 4.7v-4.2zm-62.5 13.5v-9.3h8.3v8.3zm-445.8 2.1l-4.7-1.6 0.5-4.7h2.1l2.1 1.1zm362.5 9.3v-5.2h3.7v4.2l4.6 3.1-1 9.9-7.3-1z"/>
		<path id="Path 62" class="s62" d="m552.1 384.9l3.6-1.5 2.6 1 0.6 7.3-1.6 0.5h-1.1-4.1zm12.5 147.9l-2.1-2.1v-4.2l10.4 1.6v4.7zm-537.5 26v-10.9l4.2-0.5 4.2 2v10.5h-6.3zm416.1-3.7l1.1-1.5 7.8-2.1h8.3 12.5l2.1 2.1v9.3l-5.2 0.5-13 1.1-2.1 1.5-5.7 0.6-5.2-4.7zm416.6 8.3l4.7 0.5 5.8-7.3 4.6-0.5 2.1 3.1 6.3 2.1v5.8l-6.3 1.5-2.1 2.1v5.7l-2 2.1h-9.4l-1.1-2.1h-6.2-2.1l-1-3.1 1-9.4zm-434.9-5.7l12-0.5 0.5 4.7-6.2 5.2-0.6 9.3h-0.5l-4.7 0.6v1.5l-5.2 2.6-5.2 4.2-6.2 0.5-1.6 2.1-7.3-1-1-0.6 1-9.9-4.7-3.1v-4.1l4.2-3.2h4.7l1-2h6.8l2.6-4.2 6.2-2.1zm-78.6 17.7l1.6-7.3h11.4l2.1 3.1 9.4 1.6-2.6 4.7-17.7 1z"/>
		<path id="Path 63" class="s63" d="m449.5 474l0.5-5.8h4.2 2.1l0.5 2.1-0.5 4.2zm-221.4 113.5l-1-14.1 14.5 1.1h6.3l13 0.5 4.7-1.1 1 1.6 10.5 0.5v1.1 7.8h-12l-0.5 7.8z"/>
		<path id="Path 64" class="s64" d="m463 374.5l6.3-0.5 1.5 0.5v6.3l-2 2.1-6.3-1.1zm-396.4 147.9l1.1-4.7 7.8-1.1 8.9-4.6h13.5l3.6 2h7.9l6.2-7.2 0.5-5.2 2.6-3.7v-4.7h6.3v4.2l-2.1 6.2v8.4 2h-5.2l-7.3 8.4h-7.3l-8.8-4.2h-12l-5.2 3.1zm779.1 0.6v-3.7l-2.6-1.6-1.5-4.1 1-8.3 3.1-2.6 6.3 2v12l-3.1 6.8zm-800 16.1v-3.1l3.1-3.1h3.1l2.1 1v7.3h-8.3z"/>
		<path id="Path 65" class="s65" d="m975 497.4l1.6-18.7h6.7v8.3 5.2l-4.1 5.2zm-66.7 56.2v-5.2l3.1-4.7 9.4-0.5 3.6 3.1-3.6 3.7-4.2 3.6z"/>
		<path id="Path 66" class="s66" d="m399.5 458.4l0.5-2.7 3.1 1.1v2.1l-2.6 2.1zm-14-0.6l6.2-0.5 2.1 0.5-2.6 11.5-3.1-1.1-2.6-6.2z"/>
		<path id="Path 67" class="s67" d="m904.2 555.7l0.5-2.1h3.6 8.4l-2.1 5.7-3.1 4.2-1.1 4.7h-4.1l-1.6-2.1zm-416.7 46.9v-8.4l2.1-3.1 2.1-12.5h6.8 3.6l9.4 2.6 3.6 4.2v3.1l-6.2 7.8-6.8 4.2-2.6 1z"/>
		<path id="Path 68" class="s68" d="m439.1 362.6h5.2l1 4.1-3.6 0.5-1.1-2-2.6-0.6zm31.8 8.4l6.2-0.5-1 3.6-5.2 0.5-1.6-0.5zm-382.3 106.2l9.4-2.6 8.9 1.6 2 2v4.7l-4.6 0.5-4.7-1-11.5 1-1-4.1z"/>
		<path id="Path 69" class="s69" d="m418.2 594.8l1.6-3.7h7.3l6.2 0.5 3.2 3.7-1.1 7.8-4.7-1.1-1.5-0.5z"/>
		<path id="Path 70" class="s70" d="m355.2 388.6l1.1-2.1 4.1-1.6h4.2l3.6 3.2-2.6 2.1h-4.1-4.7zm-128.2 6.7l5.3-0.5 1 1.6-1.6 3.6-4.7 1-2-1.5zm-99 45.3v-1.6l5.2-3.6 6.3 0.5-0.6 3.6-2.6 2.6h-6.2zm-54.2 33.9l1.6-2.1 3.6 0.5-0.5 3.1-2.1 1.6-2.6-0.5z"/>
		<path id="Path 71" class="s71" d="m136.5 427.6l2.6-2.6 5.7-1.5-1.1 4.1-1.5 1.1z"/>
		<path id="Path 72" class="s72" d="m459.9 313.6l9.4-7.3 15.1-7.8-17.7 12-6.8 3.6zm82.3 20.9l-4.7-5.8 0.5-1.5 4.2 6.7zm-362.5 74.5l6.2-1 2.6 2-2 2.6-9.4 1.6zm803.6 69.8v-6.3h1.1l3.1 4.2v8.3l-4.2 2.1zm-66.6 75l4.1-3.7v0.5l-5.2 8.9h-1zm-253.7 13l6.3-9.4-3.7 7.8z"/>
		<path id="Path 73" class="s73" d="m500 291.2l3.6-1.5 9.9 0.5 8.4 6.2 3.6 6.8-10.9-11.4-6.3-1.1zm48 52.1v-0.5l3.1 4.6zm8.8 14.1l-3.1-3.1-1.6-5.2 5.3 8.3zm-453.2 85.9l1.6-3.1h5.2l-4.7 4.1zm838.6 25.5l30.2-1 9.3 3.1v0.6l-10.9-2.7h-10.4zm-58.9 3.7l21.9-2.6 31.2-1.1-34.3 2.7-12.5 1-6.3 0.5zm-26 2.1l6.2-1v1l-6.2 0.5zm112 38l9.3-13h0.6l-3.7 6.8zm-15.1 12.5l13-9.9-3.1 4.1-9.9 6.3zm-234.4 25.5l-33.8-5.2 9.9 0.5 12.5 1.6 11.4 2.6zm189.1 40.6l0.5-7.8h1.1l-2.1 15.1 1 13-2.6 13 1.6 10.9-2.1 5.8h-0.5l1.5-3.7-1-18.7 2.1-7.8-1.1-12zm-98.9 16.7l-3.7-4.7h1.6l2.6 4.1zm91.1 47.9l2.1-6.2h0.5l-2 10.4-9.9 15.6-9.9 7.8-3.2 1.1-8.3-1.1h8.3l7.9-3.6 6.2-6.8 8.3-14.6zm-59.9 2.6l0.6-0.5 7.3 7.8 13 13 5.2 2.6 2.1 1.6-6.8-2.6z"/>
		<path id="Path 74" class="s74" d="m256.8 383.9l2.1-2.6 10.4 1.6zm444.2 56.2l-8.8-3.7 21.3 7.3zm-682.8 107.8l1.6-3.1-1.1-10.4 2.7-4.2-1.6 4.7 1 7.3-2.1 5.7zm19.3 21.3l-7.3-3.6h-4.7l-2-2.1 0.5-4.1-2.6-1.6 3.6 1-0.5 4.7 4.7 1.6 5.7 1.5zm32.3 5.8l-8.8-2.1-18.3-1.1-3.6-2 6.7 0.5 14.6 2.1 9.4 2zm364.6 1.1l8.3-1.1v1.1 0.5l1.6 1h-1.6l-11.4 1.1-2.1-0.5 1-1.6h0.5zm-328.1 4.7v-0.5l23.5 2.6v0.5l-17.2-0.5zm119.2 7.8v-1.1h2.6l36.5 5.3 15.1 2 2.6 0.6-26.6-2.1z"/>
		<path id="Path 75" class="s75" d="m88 483.3l11.5-1 4.7 1v12h-2.1l-1.1-1-10.9 1-4.7-2.6-1-3.6v-2.6zm395.3 78.6l13-1.1 0.5 1.1-10.9 1.5v3.2 0.5l-18.8 3.1 2.6-6.8 5.3-0.5zm-34.4 4.7l5.7-0.5 3.7 1.5v3.7l-15.7 3.6-8.3 1.1 3.1-1.1 1.1-3.1z"/>
		<path id="Path 76" class="s76" d="m533.3 567.7l0.6-1.1 8.3 5.8h5.2l1 7.8 3.2 2.1 1.5 4.1 2.1 2.1 7.3 0.5 0.5 4.2 17.2 14.6 2.1 4.1 6.2 4.2 2.6 4.2-1 0.5-23.4-17.7-24.5-25z"/>
		<path id="Path 77" class="s77" d="m542.2 334.4v-0.5l5.7 8.9v0.5l-3.1-2.6zm22.9 53.6l0.5-13-8.8-17.7h0.5l9.4 17.7 0.5 10.4-2.1 3.1zm418.2 99l4.2-2.1v0.5l-4.2 9.9-4.1 4.1h-0.5l0.5-2 4.1-5.2zm-316.6 59.3l-2.6-1.6 0.5-1h9.9l3.6 1.6h-7.3l2.6 5.2-3.6 6.2 2.6-8.3zm243.8 21.9l1-4.7 3.1-4.2h1.1l-3.2 5.2-2 8.9v9.9h-1.1zm-511.4 19.2l1-0.5 7.3 1 5.7 4.2h-0.5zm51.6 20.3l-9.4-1-10.4-4.7 4.7 1zm17.7-2.1l3.6-1v1z"/>
		<path id="Path 78" class="s78" d="m534.9 394.3l10.4-1-4.7 2.1v3.1l17.2 2.6-0.5 0.5h-6.3-1.5l-13-2.6z"/>
		<path id="Path 79" fill-rule="evenodd" class="s79" d="m536.5 399l-8.9-1.6 0.5-2 4.2-1.1h2.6zm274 75.5l-4.2-1 4.2 0.5zm-791.7 76.5l-0.5-3.1h0.5zm423.9 23.9l15.7-3.6h0.5v1l-16.2 3.7zm-372.9 0v-0.5h3.2l6.7 2zm59.9 8.4v-0.6h46.4v1.1zm156.7 13l-3.6-1h3.6z"/>
		<path id="Path 80" class="s80" d="m300.5 380.8l26.1-2.1-5.8 1zm256.8 20.9l0.5-0.6 5.8 1.6zm-446.9 38.5l2.6-0.5-8.9 7.8-4.7-0.5 4.2-3.6 2.1 1zm176 156.2v-1.1l9.9 0.6 17.2-0.6-5.7 1.6z"/>
		<path id="Path 81" fill-rule="evenodd" class="s81" d="m719.8 550.5v-0.5l4.2 0.5 1 1zm6.3 1.6l5.2 0.5 10.4 4.7 11.4 6.8zm61.5 32.3l-13.6-8.9 13.6 8.3zm-326.6-6.7l-0.5-1.6 24 1v1.1h-16.7zm-31.8 23.9l-11.4-5.2-5.2-4.1h0.5l5.2 2.6zm160.9 19.2l1.1-0.5 1.5 0.5 8.9 4.2 10.9-0.5-3.1 2.1h-4.2z"/>
		<path id="Path 82" class="s82" d="m486.5 297.5l10.4-6.3h3.1l-3.1 2.1zm-43.8 279.1l16.2-1.1 1.5 0.5 0.6 1.6-3.2 0.5h-5.2-8.8l-1.1-0.5h1.6zm344.8 7.8v-0.5l4.1 2.1 7.3 5.2 6.8 7.8 2.1 4.2h-1.6l-7.8-11z"/>
		<path id="Path 83" class="s83" d="m418.8 353.7l15.6-17.2v0.5l-6.3 7.9zm141.2 38l5.2-3.7v0.5l-3.1 3.2zm-11.5 1.5l3.6-1h4.2zm262 81.2v-0.5l15.6 1v1.6h-2.1l-13-1.1zm-728.1 102.1l3.1-0.5 20.8 4.1v0.5zm93.8 7.3v-1l49.5 4.7v1zm208.3 2.1l7.3-0.5 7.3 1 1 0.5-1 0.6-21.9-1.1z"/>
		<path id="Path 84" class="s84" d="m981.8 471.4v-0.6l2.6 1.6h-1.1zm5.8 13.5v-8.3l-3.2-4.2h1.6l3.1 4.7-1.5 8.4zm-63.1 61.4l12.5-7.3 17.2-14v0.5l-11.9 10.9-21.4 14.1v-0.6zm-440.1 31.8v-1l14.1 1.5h-6.8zm24.5 18.2l6.2-7.8v-3.1l-3.6-4.2-9.4-2.6 8.3 1.1 5.2 5.2v4.7l-2 1-1.1 3.7zm-21.3 6.2l11.9-1-7.3 2.6-20.3 1.5v-1h8.4zm415.6 46.8l2.6-8.3h0.5l-2.6 8.3z"/>
		<path id="Path 85" class="s85" d="m434.4 336.5l5.7-6.2 1.6 0.5v6.2h-7.3zm87.5 224.4l5.7-1 3.7 1 0.5 0.6-0.5 1.5-2.1-0.5-6.8-0.5z"/>
		<path id="Path 86" class="s86" d="m440.1 330.3l8.9-7.8-1.6 4.1-5.7 4.2z"/>
		<path id="Path 87" class="s87" d="m457.3 445.9l1.6-4.7h2.6l2 2.1 4.7-0.6v6.8l-3.6 3.1h-2.6zm-28.1 5.8v-3.7l4.1-4.7h5.8v7.3 2.6l-4.2 3.7-3.7-0.6zm77.1 108.3l8.4-0.5 1 1.6 1.6 0.5-3.2 1-14 2.1-1.1-0.5 1.1-2.1h-3.2l-0.5-1zm-51.5 6.2l2-1.6 13.1-1-2.6 6.8-8.4 1h-0.5v-3.6z"/>
		<path id="Path 88" class="s88" d="m618.8 618.7l5.2 0.5 3.6-1.5 8.9-8.9 2.6-3.6v-5.2l2.6-1.6-2.6 8.3-5.2 6.3-7.3 6.2-2.6 1.1-4.7-1.1-5.2 4.7z"/>
		<path id="Path 89" class="s89" d="m449 322.5l4.6-5.2 6.3-3.7v0.5l-1.6 1.6-5.7 4.7zm414.6 151l19.8-1.1v0.5l-8.4 1.1-10.4 0.5h-1zm-37.5 1.6l9.4 1 21.8-1.6v0.6l-2 0.5-19.8 1h-9.4zm-16.2 132.8l0.6-0.5 1 0.5 6.8 13.5 5.2 13 7.8 10.4 5.7 7.3 4.7 5.8-0.5 0.5-17.2-20.8z"/>
		<path id="Path 90" class="s90" d="m442.7 576l16.2-3.6 1 2.6-1 0.5-16.2 1z"/>
		<path id="Path 91" class="s91" d="m485.9 566.6v-3.1l11-1.5h3.1l-1 2 1 0.6z"/>
		<path id="Path 92" class="s92" d="m533.3 567.7l-4.1-5.2 2.1 0.5 2.6 3.6z"/>
		<path id="Path 93" class="s93" d="m515.6 560.9l4.7-1-1 1h2.6l0.5 1.1-8.3 0.5 3.1-1.1zm-29.7 5.8l14.1-2.1-13.6 3.6-0.5-1z"/>
		<path id="Path 94" class="s74" d="m20.3 557.3h0.5v0.5h-0.5z"/>
	</g>
</svg>