<svg version="1.2" xmlns="http://www.w3.org/2000/svg" viewBox="0 0 1000 1000" width="1000" height="1000">
	<title>Carpiodes_velifer</title>
	<style>
		.s0 { opacity: .3;fill: #b8afb2 } 
		.s1 { opacity: 1;fill: #938462 } 
		.s2 { opacity: .8;fill: #8d8d89 } 
		.s3 { opacity: .5;fill: #dcdada } 
		.s4 { opacity: .2;fill: #dedddf } 
		.s5 { opacity: .7;fill: #dad8da } 
		.s6 { opacity: .4;fill: #dddedd } 
		.s7 { fill: #a7a79a } 
		.s8 { opacity: 1;fill: #8d8c7f } 
		.s9 { opacity: .7;fill: #c1c1be } 
		.s10 { opacity: 1;fill: #747a75 } 
		.s11 { opacity: .6;fill: #b6b4a6 } 
		.s12 { opacity: 1;fill: #7b7765 } 
		.s13 { opacity: 1;fill: #6f634c } 
		.s14 { opacity: 1;fill: #595547 } 
		.s15 { fill: #c9c6ba } 
		.s16 { opacity: 1;fill: #5d4f3a } 
		.s17 { opacity: 1;fill: #46433c } 
		.s18 { opacity: 1;fill: #4f402d } 
		.s19 { opacity: .4;fill: #90888b } 
		.s20 { opacity: 1;fill: #685941 } 
		.s21 { opacity: 1;fill: #7c6e53 } 
		.s22 { fill: #d8d7d2 } 
		.s23 { fill: #887957 } 
		.s24 { opacity: .7;fill: #b3a4a8 } 
		.s25 { fill: #b3b29e } 
		.s26 { fill: #9e9278 } 
		.s27 { fill: #9c9a8d } 
		.s28 { fill: #a18e69 } 
		.s29 { fill: #b8ad8e } 
		.s30 { opacity: 1;fill: #be936f } 
		.s31 { fill: #d5c9a9 } 
		.s32 { fill: #ae9c81 } 
		.s33 { opacity: .2;fill: #a88577 } 
		.s34 { fill: #c0bca8 } 
		.s35 { fill: #c3b999 } 
		.s36 { fill: #d5c09a } 
		.s37 { opacity: 1;fill: #a6874a } 
		.s38 { fill: #d9e0e6 } 
		.s39 { fill: #b9bdb5 } 
		.s40 { opacity: 1;fill: #bbbfc6 } 
		.s41 { fill: #a9adb5 } 
		.s42 { fill: #cfcec7 } 
		.s43 { fill: #e7e6e4 } 
		.s44 { fill: #e6dab1 } 
		.s45 { fill: #ece8d9 } 
		.s46 { fill: #ded6bf } 
		.s47 { fill: #d9c286 } 
		.s48 { opacity: 1;fill: #393832 } 
		.s49 { fill: #2e302f } 
		.s50 { opacity: .6;fill: #445e5c } 
		.s51 { fill: #acbbc5 } 
		.s52 { fill: #edeeee } 
		.s53 { fill: #899598 } 
		.s54 { opacity: .7;fill: #6e706d } 
		.s55 { fill: #353635 } 
		.s56 { fill: #363a39 } 
		.s57 { fill: #ebe6c6 } 
		.s58 { fill: #c9d0d6 } 
		.s59 { fill: #95aab8 } 
		.s60 { fill: #c7d8e5 } 
		.s61 { opacity: .4;fill: #61736d } 
		.s62 { fill: #a8bed2 } 
		.s63 { fill: #a9b5b3 } 
		.s64 { fill: #7a909d } 
		.s65 { fill: #a6b9d7 } 
		.s66 { opacity: 1;fill: #bea587 } 
		.s67 { fill: #bdc9d4 } 
		.s68 { fill: #b5cae2 } 
		.s69 { fill: #8facc6 } 
		.s70 { fill: #b7c4ce } 
		.s71 { opacity: 1;fill: #262929 } 
		.s72 { fill: #f5f6f5 } 
		.s73 { opacity: 1;fill: #1e2323 } 
		.s74 { opacity: 1;fill: #23edd8 } 
		.s75 { opacity: 1;fill: #515657 } 
		.s76 { opacity: .5;fill: #aaacd8 } 
		.s77 { opacity: .3;fill: #cbc174 } 
		.s78 { opacity: 1;fill: #557071 } 
		.s79 { opacity: 1;fill: #d09782 } 
		.s80 { opacity: 1;fill: #957341 } 
		.s81 { opacity: 1;fill: #bd9757 } 
		.s82 { opacity: .7;fill: #cfc971 } 
		.s83 { opacity: .4;fill: #d3b634 } 
		.s84 { opacity: .8;fill: #d116c8 } 
		.s85 { opacity: 1;fill: #ab9fba } 
		.s86 { opacity: .6;fill: #5fbfd2 } 
		.s87 { opacity: .5;fill: #5bab90 } 
		.s88 { opacity: .8;fill: #b49468 } 
		.s89 { opacity: 1;fill: #22618b } 
	</style>
	<g id="Background">
		<path id="Path 0" class="s0" d="m246 431h1v1h-1z"/>
		<path id="Path 1" class="s1" d="m258 427l2-1v5l5 4v7l-2 6-7 1-9-11h-6l1-4 4-2 1-1 4-2h2l3-2z"/>
		<path id="Path 2" class="s2" d="m309 411h1v1h-1z"/>
		<path id="Path 3" class="s3" d="m441 342h1v1h-1z"/>
		<path id="Path 4" class="s4" d="m623 230h1v1h-1z"/>
		<path id="Path 5" class="s5" d="m623 231l1-1h3l1 3-7 3-3-2v-1z"/>
		<path id="Path 6" class="s6" d="m628 233l-1-3h2z"/>
		<path id="Path 7" class="s0" d="m901 436h1v1h-1z"/>
		<path id="Path 8" class="s7" d="m516 411h1v1h-1z"/>
		<path id="Path 9" class="s0" d="m614 234l4-1v1z"/>
		<path id="Path 10" class="s2" d="m608 237l6-3h4l3 2-14 7v-4z"/>
		<path id="Path 11" class="s6" d="m604 239l4-2-1 2z"/>
		<path id="Path 12" class="s8" d="m602 240l2-1h3v4l-7 2v-2z"/>
		<path id="Path 13" class="s9" d="m591 245l11-5-2 3-7 3h-2z"/>
		<path id="Path 14" class="s10" d="m593 246l7-3v2l-5 3z"/>
		<path id="Path 15" class="s2" d="m600 245l7-2-14 8 2-3z"/>
		<path id="Path 16" class="s11" d="m588 247l3-2v1z"/>
		<path id="Path 17" class="s12" d="m588 247l3-1h2l2 2-2 3h-1l-10 5-4 1v-4-1l5-2 4-3z"/>
		<path id="Path 18" class="s11" d="m582 249l5-2-4 3z"/>
		<path id="Path 19" class="s5" d="m578 252l4-3 1 1z"/>
		<path id="Path 20" class="s0" d="m569 257l3-4 6-1v1l-8 4z"/>
		<path id="Path 21" class="s10" d="m570 257l8-4v4l-3 4h-1l-2 1z"/>
		<path id="Path 22" class="s0" d="m578 257l4-1-7 5z"/>
		<path id="Path 23" class="s13" d="m564 259l4-2h1 1l2 5-4 4h-1l-2 1-3-5 1-2z"/>
		<path id="Path 24" class="s9" d="m559 262l4-2-1 2z"/>
		<path id="Path 25" class="s0" d="m572 262l2-1-6 5z"/>
		<path id="Path 26" class="s9" d="m550 268l9-6-9 7z"/>
		<path id="Path 27" class="s14" d="m550 269l9-7h3l3 5-3 3-1 1-3 2-7 5-4 3-3 2-7 5-8 7-7 6-4-7 9-8 7-5z"/>
		<path id="Path 28" class="s4" d="m565 267l2-1-5 4z"/>
		<path id="Path 29" class="s3" d="m531 282l19-14v1l-16 12z"/>
		<path id="Path 30" class="s15" d="m531 282l3-1-7 5-1-1z"/>
		<path id="Path 31" class="s9" d="m507 300l19-15 1 1-9 8-6 5-5 2z"/>
		<path id="Path 32" class="s16" d="m512 299l6-5 4 7-5 5h-1z"/>
		<path id="Path 33" class="s17" d="m507 301l5-2 4 7v2l-4 3-7-7z"/>
		<path id="Path 34" class="s3" d="m496 309l11-9v1l-2 3-8 5z"/>
		<path id="Path 35" class="s18" d="m497 309l8-5 7 7v2l-2 3-13 19-4 6-4 5-7 10-29-1-4-5v-9l13-10 5-3 1-1 20-12 2-1z"/>
		<path id="Path 36" class="s4" d="m516 308v-2h1z"/>
		<path id="Path 37" class="s4" d="m512 311l4-3-4 5z"/>
		<path id="Path 38" class="s11" d="m490 313l6-4h1l-7 5z"/>
		<path id="Path 39" class="s0" d="m486 315l4-2v1l-2 1z"/>
		<path id="Path 40" class="s4" d="m510 316l2-3-2 4z"/>
		<path id="Path 41" class="s11" d="m468 327l18-12h2z"/>
		<path id="Path 42" class="s0" d="m497 335l13-19v1z"/>
		<path id="Path 43" class="s19" d="m465 328l3-1-1 1z"/>
		<path id="Path 44" class="s2" d="m462 330l3-2h2l-5 3z"/>
		<path id="Path 45" class="s3" d="m444 342l18-12v1l-13 10-3 1z"/>
		<path id="Path 46" class="s0" d="m493 341l4-6-3 6z"/>
		<path id="Path 47" class="s16" d="m446 342l3-1v9l4 5 29 1v2l-3 5-2 4-2 4-2 3-8 1h-7l-4 5-11-4-6-8-2-18z"/>
		<path id="Path 48" class="s4" d="m489 346l4-5h1z"/>
		<path id="Path 49" class="s9" d="m441 343l1-1h2 2l-11 8h-2z"/>
		<path id="Path 50" class="s0" d="m482 356l7-10-7 12z"/>
		<path id="Path 51" class="s20" d="m423 357l9-7h1 2l2 18 6 8 11 4 4-5h7v8l-8 9h-16l-8-6-7-1-3-6 1-10-5-8z"/>
		<path id="Path 52" class="s0" d="m417 361l6-4-4 4z"/>
		<path id="Path 53" class="s13" d="m416 362l1-1h2l5 8-1 10 3 6 7 1 8 6-6 4-11-1-3-6h-6l-2-9 2-8-2-6z"/>
		<path id="Path 54" class="s3" d="m399 374l9-9 8-3-3 4-9 6-4 2z"/>
		<path id="Path 55" class="s21" d="m404 372l9-6 2 6-2 8h-5z"/>
		<path id="Path 56" class="s4" d="m475 371l2-4-1 13h-1z"/>
		<path id="Path 57" class="s22" d="m473 374l2-3v9l-2-1z"/>
		<path id="Path 58" class="s23" d="m400 374l4-2 4 8h5l2 9h6l3 6 11 1 2 8h12l8-4v-8l8-9h5l3-4 2 1h1l6 1v3 3l-15 8 1 18-1 7h-11l-2 4-9 3-8-4v-3-4h-6l-2-4h-4v-8l-8-8h-12l-13-15 1-2z"/>
		<path id="Path 59" class="s24" d="m393 379l6-5h1z"/>
		<path id="Path 60" class="s13" d="m465 375l8-1v5l-3 4h-5z"/>
		<path id="Path 61" class="s9" d="m388 382l1-3h4l-1 2z"/>
		<path id="Path 62" class="s1" d="m388 382l4-1 13 15h12l8 8v8l-2 2h-6l-3-8h-11l-6-2-2-4h-9l-3 3-7-1-7-2-1-3 6-5 1-1 2-2h1l9-7z"/>
		<path id="Path 63" class="s24" d="m482 387v-3l5 7z"/>
		<path id="Path 64" class="s1" d="m468 413l-1-18 15-8 5 4 26 18 3 2 1 1 1 1 1 1h1l1 2v2l-12 2h-9l-3-4-11-2h-15z"/>
		<path id="Path 65" class="s6" d="m373 392l4-3-2 2-1 1z"/>
		<path id="Path 66" class="s25" d="m374 391h1v1h-1z"/>
		<path id="Path 67" class="s25" d="m363 397l10-5h1l-6 5-4 1z"/>
		<path id="Path 68" class="s21" d="m435 396l6-4h16v8l-8 4h-12z"/>
		<path id="Path 69" class="s7" d="m357 399l6-2 1 1-2 2-5 1z"/>
		<path id="Path 70" class="s21" d="m364 398l4-1 1 3v2h-7v-2z"/>
		<path id="Path 71" class="s2" d="m349 402l8-3v2l-4 1z"/>
		<path id="Path 72" class="s12" d="m357 401l5-1v2l-4 4-5-1v-3z"/>
		<path id="Path 73" class="s26" d="m369 402v-2l7 2-1 4h-5z"/>
		<path id="Path 74" class="s26" d="m383 403l3-3h9l2 4 6 2v4h-12z"/>
		<path id="Path 75" class="s8" d="m342 404l7-2h4v3l-6 1h-5z"/>
		<path id="Path 76" class="s27" d="m358 406l4-4h7l1 4-3 5-8 1z"/>
		<path id="Path 77" class="s25" d="m370 406h5l1-4 7 1 8 7v6h-7l-3 6h-4-8v-1l-2-10z"/>
		<path id="Path 78" class="s25" d="m336 405l6-1v2l3 5 2 5h4 2v14h-15l-5-2-2-5h-8l-7-9v-3-1l7-1 5 4 1-4h-5l1-2 5-1z"/>
		<path id="Path 79" class="s7" d="m347 406l6-1 5 1 1 6v4h-6-2v-4l-4-2z"/>
		<path id="Path 80" class="s1" d="m345 411l-3-5h5v4z"/>
		<path id="Path 81" class="s28" d="m403 410v-4h11l3 8-2 4 6 1 2-5 2-2h4l2 4v4 4l-10 2h-6l-3-10z"/>
		<path id="Path 82" class="s0" d="m323 409l2-2-1 2z"/>
		<path id="Path 83" class="s21" d="m324 409h5l-1 4-5-4z"/>
		<path id="Path 84" class="s6" d="m516 411l-3-2 8 5h-1-1l-1-1-1-1z"/>
		<path id="Path 85" class="s7" d="m518 413h1v1h-1z"/>
		<path id="Path 86" class="s7" d="m517 412h1v1h-1z"/>
		<path id="Path 87" class="s2" d="m310 411l6-1v1h-3z"/>
		<path id="Path 88" class="s29" d="m345 411l2-1 4 2v4h-4z"/>
		<path id="Path 89" class="s29" d="m391 416v-6h12l9 6 3 10h6l4 10-5 3v-3h-7l-7-12-11-1z"/>
		<path id="Path 90" class="s27" d="m309 412l1-1h3v3l-2 9-2 5h-3l-6-2-3-3 2-7h6l2-4z"/>
		<path id="Path 91" class="s30" d="m313 414v-3h3v3z"/>
		<path id="Path 92" class="s29" d="m359 412l8-1 2 10-10-5z"/>
		<path id="Path 93" class="s31" d="m296 415l11-3-2 4h-6-3z"/>
		<path id="Path 94" class="s13" d="m467 420l1-7 3 1v8h-2z"/>
		<path id="Path 95" class="s32" d="m311 423l2-9h3l7 9-2 5h-5z"/>
		<path id="Path 96" class="s31" d="m423 414l-2 5-6-1 2-4z"/>
		<path id="Path 97" class="s20" d="m471 422v-8h15l11 2 3 4h9v4l-4 1v8l-13-1-5-6z"/>
		<path id="Path 98" class="s7" d="m521 416l-1-2h1l3 1z"/>
		<path id="Path 99" class="s33" d="m292 416l4-1v1z"/>
		<path id="Path 100" class="s12" d="m521 416l3-1 3 2-6 1z"/>
		<path id="Path 101" class="s23" d="m288 417l4-1h4 3l-2 7-3 1-6 3v3l-4-1-2-10 3-1z"/>
		<path id="Path 102" class="s34" d="m353 430v-14h6l10 5v1 10l-9 8z"/>
		<path id="Path 103" class="s35" d="m381 422l3-6h7l4 7-4 2v7l-3 3h-6l-1-8z"/>
		<path id="Path 104" class="s36" d="m431 420v-4h6v4z"/>
		<path id="Path 105" class="s21" d="m521 418l6-1 15 7v1l-5 7h-4l-8-2-6-5-10-1v-4z"/>
		<path id="Path 106" class="s27" d="m273 422l9-3 2 10 4 1 2 2-1 10-8 1h-2v-4l-7-4-1-4z"/>
		<path id="Path 107" class="s37" d="m431 424v-4h6v3z"/>
		<path id="Path 108" class="s28" d="m454 424l2-4h11l2 2v3l-11 1z"/>
		<path id="Path 109" class="s8" d="m266 424l5-2-4 3z"/>
		<path id="Path 110" class="s16" d="m267 425l4-3h2l-2 9h-2z"/>
		<path id="Path 111" class="s31" d="m353 430l7 10 9-8v-10h8l4 5 1 8-2 16-7 3v4l-8 2h-11l-1-4h-6-4-6v-10l2-1-2-10 1-5z"/>
		<path id="Path 112" class="s38" d="m381 427l-4-5h4z"/>
		<path id="Path 113" class="s1" d="m469 425v-3h2l16 4 5 6v4l-3 1-3-5h-8z"/>
		<path id="Path 114" class="s39" d="m294 424l3-1 3 3v2h-5z"/>
		<path id="Path 115" class="s40" d="m309 428l2-5 5 5-4 3z"/>
		<path id="Path 116" class="s34" d="m321 428l2-5h8l2 5 5 2-1 5-4 5h-10z"/>
		<path id="Path 117" class="s34" d="m391 432v-7l4-2 11 1 7 12v1l-8 3-6-7z"/>
		<path id="Path 118" class="s32" d="m431 424l6-1 8 4v9h-1-8l-1-2-8 2h-2l-4-10z"/>
		<path id="Path 119" class="s12" d="m263 425l3-1 1 1 2 6v4h-4l-5-4v-5z"/>
		<path id="Path 120" class="s29" d="m288 430v-3l6-3 1 4-2 4h-3z"/>
		<path id="Path 121" class="s29" d="m445 427l9-3 4 2v9l3 3-1 8h-1-6-3l1-8-6-2z"/>
		<path id="Path 122" class="s13" d="m505 433v-8l4-1 10 1 6 5v5l-2 3z"/>
		<path id="Path 123" class="s0" d="m542 425v-1l7 3z"/>
		<path id="Path 124" class="s0" d="m258 427l5-2-3 1z"/>
		<path id="Path 125" class="s32" d="m458 426l11-1 9 7h8l3 5 1 10h6l3 3-2 3h-6l-16-1v-6l-8-2v-4l-6-2-3-3z"/>
		<path id="Path 126" class="s13" d="m533 432h4l5-7 7 2 5 2 3 1h1l8 4h1l7 3h1l1 2-3 3h-9l-1 9-8 4-2-6-10 1-9-7-1-7z"/>
		<path id="Path 127" class="s26" d="m300 428v-2l6 2-1 2z"/>
		<path id="Path 128" class="s41" d="m293 432l2-4h5l5 2v4 5l-5-1z"/>
		<path id="Path 129" class="s42" d="m305 430l1-2h3l3 3-1 3h-6z"/>
		<path id="Path 130" class="s35" d="m312 431l4-3h5l2 12-18 2v-3-5h6z"/>
		<path id="Path 131" class="s20" d="m525 435v-5l8 2v4z"/>
		<path id="Path 132" class="s26" d="m269 435v-4h2l1 4z"/>
		<path id="Path 133" class="s7" d="m289 442l1-10h3l7 6-4 8h-7z"/>
		<path id="Path 134" class="s31" d="m388 435l3-3 8 1 6 7v10l-7 2-7-2z"/>
		<path id="Path 135" class="s26" d="m492 436v-4l13 1 18 5 4 10v7l-8 3-1-6-11 3-4-5h-4l-3-3v-9z"/>
		<path id="Path 136" class="s25" d="m232 439l10-5-1 4h-2l-4 2h-3z"/>
		<path id="Path 137" class="s22" d="m427 436l8-2 1 2 1 6 6 1 2 3v8h-6l-6-8z"/>
		<path id="Path 138" class="s2" d="m911 436l13-2v2h-11z"/>
		<path id="Path 139" class="s10" d="m924 436v-2h9l1 2z"/>
		<path id="Path 140" class="s5" d="m934 436l-1-2 7 4v2h-1z"/>
		<path id="Path 141" class="s8" d="m265 442v-7h4 3l7 4v4l-6 3-2-4z"/>
		<path id="Path 142" class="s43" d="m333 440l4-5 2 10-2 1h-4z"/>
		<path id="Path 143" class="s44" d="m380 451l2-16h6l3 15 1 6h5l1-4 7-2 9 2 4 6-5 14h-4l-3-7h-5l-5 7h-11-4l-7-1 1-9 6-3z"/>
		<path id="Path 144" class="s23" d="m523 438l2-3 8 1 1 7-2 5h-5z"/>
		<path id="Path 145" class="s0" d="m902 436h8-1z"/>
		<path id="Path 146" class="s45" d="m413 437v-1h7v3 3h-2z"/>
		<path id="Path 147" class="s46" d="m420 439l5-3h2l6 10-3 1-1 7h-6v-10l-3-2z"/>
		<path id="Path 148" class="s47" d="m443 443l-6-1-1-6h8z"/>
		<path id="Path 149" class="s46" d="m443 443l1-7h1l6 2-1 8h-5z"/>
		<path id="Path 150" class="s41" d="m489 437l3-1 4 2v9h-6z"/>
		<path id="Path 151" class="s7" d="m902 437v-1h7z"/>
		<path id="Path 152" class="s48" d="m902 437l7-1h1 1 2l1 18 5 6v1l-2 2-6 5-4 3-6 5-12 10-2 2h-2v-12l-5-4-1-20-3-6v-3l9-2 4-2h4l6-2h2z"/>
		<path id="Path 153" class="s49" d="m919 460l-5-6-1-18h11 10l5 4v4l-6 7-1 1-6 4z"/>
		<path id="Path 154" class="s46" d="m405 440l8-3 5 5-4 4v6l-9-2z"/>
		<path id="Path 155" class="s0" d="m576 439l-1-2 4 2z"/>
		<path id="Path 156" class="s13" d="m235 440l4-2 1 9-2 1-3-2z"/>
		<path id="Path 157" class="s7" d="m240 447l-1-9h2 6l9 11 7-1v4l8 6v10l-5 4h-3l-12 3-2-1-4-4v-10l-2-12z"/>
		<path id="Path 158" class="s38" d="m296 446l4-8 5 1v3 7l-8 1z"/>
		<path id="Path 159" class="s22" d="m460 446l1-8 6 2v4l-1 2z"/>
		<path id="Path 160" class="s4" d="m940 440v-2h1v2z"/>
		<path id="Path 161" class="s0" d="m228 442l4-3v1z"/>
		<path id="Path 162" class="s20" d="m563 451l1-9h9l3-3h3 1l7 3 4 2h1l6 3-3 9 12 7v6l-1 2h-4l-1-3-3 1-6 1-4-4-9-1v-9h-7l-1 3h-4v-7z"/>
		<path id="Path 163" class="s6" d="m884 440l5-1-4 2z"/>
		<path id="Path 164" class="s12" d="m228 442l4-2h3v6l3 2-3 4h-6l-1-2-5 2 3 6 4 8-2 3-2-3h-6l-3 10-4 1-3-4h-5l-5 13h-5l-1-4h-5l-2 6-4 7-3 1-5-6v-6l-4-3 8-7 1-1 3-3h1l2-1 7-5 3-2 5-3 7-5 6-4 2-1 7-4 1-1z"/>
		<path id="Path 165" class="s31" d="m305 442l18-2h10v6l-2 10-8 5v3h-8l-3-4-3-5v-5l-4-1z"/>
		<path id="Path 166" class="s50" d="m873 442l11-2 1 1-9 2z"/>
		<path id="Path 167" class="s19" d="m939 444v-4h1 1v4h-1z"/>
		<path id="Path 168" class="s38" d="m281 443l8-1v4l-2 4h-5z"/>
		<path id="Path 169" class="s51" d="m263 448l2-6h6l2 4 1 10-3 2-8-6z"/>
		<path id="Path 170" class="s36" d="m414 452v-6l4-4h2l3 2v10l-5 4z"/>
		<path id="Path 171" class="s14" d="m867 444l6-2 3 1v3h-11z"/>
		<path id="Path 172" class="s25" d="m273 446l6-3h2l1 7h5l2-4h7l1 4v5h-2l-3-1-6 9-5 1h-2l-1-7-4-1z"/>
		<path id="Path 173" class="s8" d="m532 448l2-5 9 7v6l-9 2-1-3z"/>
		<path id="Path 174" class="s34" d="m466 446l1-2 8 2v6h-1-7z"/>
		<path id="Path 175" class="s0" d="m598 447l-6-3 7 3z"/>
		<path id="Path 176" class="s33" d="m862 445l5-1-2 2h-2z"/>
		<path id="Path 177" class="s11" d="m933 451l6-7h1v1z"/>
		<path id="Path 178" class="s4" d="m940 444h1v1h-1z"/>
		<path id="Path 179" class="s24" d="m846 451l16-6 1 1z"/>
		<path id="Path 180" class="s6" d="m703 654h1v1h-1z"/>
		<path id="Path 181" class="s4" d="m882 590h1v1h-1z"/>
		<path id="Path 182" class="s46" d="m331 456l2-10h4v10z"/>
		<path id="Path 183" class="s31" d="m429 454l1-7 3-1 6 8h6 2v23l-3 5-7 6h-4v-7l5-4v-8l-13-1z"/>
		<path id="Path 184" class="s36" d="m445 454v-8h5 3v6l-6 2z"/>
		<path id="Path 185" class="s42" d="m453 452v-6h6v6z"/>
		<path id="Path 186" class="s36" d="m459 452v-6h1 6l1 6-5 3z"/>
		<path id="Path 187" class="s49" d="m846 451l17-5h2 11l3 6 1 20 5 4v12l-2 3h-1l-10 7-5 3-3 2-5 3-3 2-5 3-3 2h-1l-4 3-5 3-3 2h-1l-5 4-2 1-3 2-1 1-2 1-6 4-9-6h-17l-8 9 7 22-1 16 8 36h-2-1l-4-2-7-5 2-9-10-22-4-32-3-6-9-6v-6l-4-4 1-11 6-2h9l12-6h24l4-7 9-2 2-7 24-19v-12l1-2z"/>
		<path id="Path 188" class="s26" d="m238 448l2-1 3 1 2 12-6-2-4-6z"/>
		<path id="Path 189" class="s16" d="m607 469v-6l-12-7 3-9h1 1l4 2h1l7 3 7 2 3 2 4 1h1l4 2h2l6 3 5 2h1l1 1 7 4 6 5h5l7 3 5 2h1v6l-10 3-3-6-19-2-1-3-12 2-3-4-8 1-5-2-1-4z"/>
		<path id="Path 190" class="s27" d="m527 455v-7h5l1 7h-4z"/>
		<path id="Path 191" class="s15" d="m297 450l8-1 4 1v5l-2 5h-6l-4-5z"/>
		<path id="Path 192" class="s26" d="m543 450l10-1 2 6v5l-6 2-6-6z"/>
		<path id="Path 193" class="s27" d="m226 458l-3-6 5-2 1 2z"/>
		<path id="Path 194" class="s43" d="m398 452l-1 4h-5l-1-6z"/>
		<path id="Path 195" class="s42" d="m497 453l2-3h4l4 5v7l-10 1v-1z"/>
		<path id="Path 196" class="s24" d="m839 452l6-1-1 2h-5z"/>
		<path id="Path 197" class="s52" d="m373 458v-4l7-3 1 8-6 3z"/>
		<path id="Path 198" class="s31" d="m475 452l16 1v9 8l-4 6v12l4 2v11l-4 3h-6l-17-14-2-8 2-8 4-1v-8l6-7v-6z"/>
		<path id="Path 199" class="s8" d="m555 455l8-4 4 1v7h4l2 4v2l-10 1-3-6h-5z"/>
		<path id="Path 200" class="s53" d="m226 458l3-6h6l4 6-4 8h-5z"/>
		<path id="Path 201" class="s46" d="m447 454l6-2h6l3 3-1 11 3 8-2 8-14 8v-5l-4-3 3-5z"/>
		<path id="Path 202" class="s22" d="m462 455l5-3h7v6l-6 7v8l-4 1-3-8z"/>
		<path id="Path 203" class="s40" d="m507 455l11-3 1 6-2 9-2 3-8-1v-7z"/>
		<path id="Path 204" class="s54" d="m830 454l9-2v1l-9 3h-1z"/>
		<path id="Path 205" class="s36" d="m491 462v-9h6v9z"/>
		<path id="Path 206" class="s55" d="m830 456l9-3h5v12l-24 19-2 7-9 2-4 7h-24l-12 6h-9v-6l11-10 13-4 8-10 10-6 17-4 7-1 4-4z"/>
		<path id="Path 207" class="s9" d="m201 459l2-4 5-1z"/>
		<path id="Path 208" class="s43" d="m286 463l6-9 3 1 1 7-2 6z"/>
		<path id="Path 209" class="s45" d="m418 458l5-4h6l-4 14 13 1v8l-5 4v7l1 4 3-1 8 3v6l-4 1v3h-7l-2-3-8 1h-5l-2-6v-4l4-2v-7l-5 1h-5l-1 4-9 1 2 13h-6l-6-2-3-5h-6l-3 7-2 2-5 1v6h-7l-4 4-2-1 1-9h-5v-18l-9-8 1-15v-2l7-2h11v9l9 10 7-3h3l1-4h11l5-7h5l3 7h4z"/>
		<path id="Path 210" class="s33" d="m622 456l-3-2 3 1z"/>
		<path id="Path 211" class="s0" d="m822 456l8-2-1 2h-3z"/>
		<path id="Path 212" class="s34" d="m296 462l-1-7h2l4 5z"/>
		<path id="Path 213" class="s43" d="m307 460l2-5 3 5z"/>
		<path id="Path 214" class="s34" d="m519 458l8-3h2l1 4 4-1 9-2 6 6 4 5v7l-4 2 2 8v16l6 3 2 5v4h-7v-5l-12-8-4-14-8-7v-5l-7-1-4-5z"/>
		<path id="Path 215" class="s15" d="m534 458l-4 1-1-4h4z"/>
		<path id="Path 216" class="s0" d="m622 456v-1l4 2z"/>
		<path id="Path 217" class="s38" d="m271 458l3-2 4 1 1 7-2 4h-6z"/>
		<path id="Path 218" class="s44" d="m323 464v-3l8-5h6 6v8 12l-12 9v3h-6l-4-4z"/>
		<path id="Path 219" class="s43" d="m343 464v-8h4v6 2z"/>
		<path id="Path 220" class="s44" d="m347 462v-6h6l1 4z"/>
		<path id="Path 221" class="s23" d="m571 459l1-3h7v9l-6-2z"/>
		<path id="Path 222" class="s24" d="m796 464l26-8h4l-8 4-22 5z"/>
		<path id="Path 223" class="s56" d="m818 460l8-4h3 1v5l-4 4-7 1z"/>
		<path id="Path 224" class="s4" d="m919 460l7-4-7 5z"/>
		<path id="Path 225" class="s51" d="m235 466l4-8 6 2v10l4 4-2 9-6-2-5-6z"/>
		<path id="Path 226" class="s57" d="m365 460l8-2 2 4-1 9 7 1v4l-7 3-9-10z"/>
		<path id="Path 227" class="s6" d="m639 462l-6-3 8 3z"/>
		<path id="Path 228" class="s46" d="m296 462l5-2h6 5l3 4h8l-2 20 4 4 2 22h-1l-4-2-1 4h-8-2v-5l-6-5v-11l-8-2-3-21z"/>
		<path id="Path 229" class="s7" d="m549 462l6-2h5l3 6 10-1 3 7 5 1 3 5h3l5-8 6-1 1 2v13l8 1 5 5 1 8v6l6 4 1 4-1 6-18 3-2-3h-11l-3-8h-7l-1-6 1-8-7-1-7-1-4-1-5-9-2-10v-7z"/>
		<path id="Path 230" class="s17" d="m796 465l22-5 1 6-17 4-10 6-12 2-8 7-1 5-11 10-6-3-1-5 7-18h1 8l11-5 6-1z"/>
		<path id="Path 231" class="s58" d="m491 470v-8h6v1 7z"/>
		<path id="Path 232" class="s34" d="m497 463l10-1v7l-5 3-1 12h-6l2-14z"/>
		<path id="Path 233" class="s11" d="m644 464l-5-2h2z"/>
		<path id="Path 234" class="s15" d="m281 464l5-1 8 5 3 21-3 3h-7-4v-12l2-7-4-3z"/>
		<path id="Path 235" class="s27" d="m573 465v-2l6 2 9 1 4 4-5 8h-3l-3-5-5-1z"/>
		<path id="Path 236" class="s3" d="m186 469l2-4 5-1z"/>
		<path id="Path 237" class="s34" d="m271 468h6l2-4h2v6l-2 10-2 6 4 6v6h-4l-4-3-6-7-1-16z"/>
		<path id="Path 238" class="s57" d="m331 488v-3l12-9v-12h4l-1 15 9 8v18 5h-7l-1 4h-4-1v-7h-4l-1-4-6-3z"/>
		<path id="Path 239" class="s0" d="m645 464h1v1h-1z"/>
		<path id="Path 240" class="s6" d="m646 465v-1l8 5h-1z"/>
		<path id="Path 241" class="s9" d="m786 467l10-3v1l-10 3z"/>
		<path id="Path 242" class="s59" d="m217 476l3-10h6l2 3 5 9-4 1v3h-6z"/>
		<path id="Path 243" class="s27" d="m228 469l2-3h5l1 9 5 6-5 2-1-1-2-4z"/>
		<path id="Path 244" class="s35" d="m515 470l2-3 4 5z"/>
		<path id="Path 245" class="s0" d="m779 469l7-2v1l-6 1z"/>
		<path id="Path 246" class="s41" d="m598 469l3-1 1 3h-3z"/>
		<path id="Path 247" class="s15" d="m501 484l1-12 5-3 8 1 6 2 7 1v5l8 7 4 14 1 6-8 2v8l-1 5h-7-2l-2-10v-5l-7-7v-4l-8-1-1-3h-4z"/>
		<path id="Path 248" class="s7" d="m606 471l1-2 8 1 1 4-4 2z"/>
		<path id="Path 249" class="s9" d="m664 474h-5l-6-5h1z"/>
		<path id="Path 250" class="s2" d="m761 472l18-3h1l-11 5h-8z"/>
		<path id="Path 251" class="s38" d="m279 480l2-10 4 3-2 7z"/>
		<path id="Path 252" class="s42" d="m491 490l-4-2v-12l4-6h6l-2 14z"/>
		<path id="Path 253" class="s27" d="m613 498l-1-8-5-5-8-1v-13h3 4l6 5 1 6h7l1 4h3l6 8-3 12h-6v-6z"/>
		<path id="Path 254" class="s25" d="m251 475l12-3v16l-3 3-6-1-3 3v13h-8v-14l-6-2-1-7 5-2 6 2h4z"/>
		<path id="Path 255" class="s38" d="m263 488v-16h3l1 16z"/>
		<path id="Path 256" class="s52" d="m381 476v-4h4l-1 4z"/>
		<path id="Path 257" class="s5" d="m756 474l5-2v2h-1-3z"/>
		<path id="Path 258" class="s59" d="m200 486l5-13h5l3 4 6 9-3 2-1 13-2 1h-8-2v-12z"/>
		<path id="Path 259" class="s9" d="m168 482l3-5 8-3-8 7z"/>
		<path id="Path 260" class="s60" d="m247 483l2-9 2 1v8z"/>
		<path id="Path 261" class="s40" d="m551 484l-2-8 4-2 2 10z"/>
		<path id="Path 262" class="s26" d="m612 476l4-2 5 2v5l-1 1h-7z"/>
		<path id="Path 263" class="s2" d="m746 475l10-1h1l-10 2h-1z"/>
		<path id="Path 264" class="s14" d="m747 476l10-2h3l-7 18h-5z"/>
		<path id="Path 265" class="s8" d="m621 476l8-1 3 4 12-2 1 3-2 17-3 7-1 3-4-1-1-10-4-2-6-8v-4l-3-1z"/>
		<path id="Path 266" class="s4" d="m717 476l10-1v1z"/>
		<path id="Path 267" class="s33" d="m727 476v-1h19v1h-5-13z"/>
		<path id="Path 268" class="s53" d="m213 477l4-1 6 6v4h-4z"/>
		<path id="Path 269" class="s25" d="m716 477l1-1h10 1v2h-1-8-3z"/>
		<path id="Path 270" class="s8" d="m728 478v-2h13z"/>
		<path id="Path 271" class="s20" d="m728 478l13-2h5 1l1 16-6 2-1-3-10 1-4-4v-10z"/>
		<path id="Path 272" class="s56" d="m771 490l1-5 8-7 12-2-8 10z"/>
		<path id="Path 273" class="s0" d="m699 479l8-2v1z"/>
		<path id="Path 274" class="s61" d="m707 478v-1h9v1z"/>
		<path id="Path 275" class="s62" d="m229 482v-3l4-1 2 4z"/>
		<path id="Path 276" class="s14" d="m699 479l8-1h9 3v12l-6 5-6-7h-4l-3 5-7-6-4 1-7 2-5-5v-6h2l2 1 13-1z"/>
		<path id="Path 277" class="s13" d="m719 490v-12h8v10l4 4-3 6-5-1-1-6z"/>
		<path id="Path 278" class="s0" d="m681 480l-2-1h2z"/>
		<path id="Path 279" class="s19" d="m681 480v-1h13z"/>
		<path id="Path 280" class="s22" d="m281 492l-4-6 2-6h4v12z"/>
		<path id="Path 281" class="s53" d="m643 497l2-17 19 2 3 6 10-3 5 5 7-2v8l4 2-1 6h-10l-2 3-12-3-3 4-4-2-12 2-1-8z"/>
		<path id="Path 282" class="s13" d="m168 482l3-1 4 3v6l-5 2-4 8v5l7 3v2l-8 2-4-12-2-9z"/>
		<path id="Path 283" class="s41" d="m620 482l1-1 3 1v4h-3z"/>
		<path id="Path 284" class="s9" d="m157 489l11-7-9 9h-2z"/>
		<path id="Path 285" class="s51" d="m187 488l2-6h5l1 4v2z"/>
		<path id="Path 286" class="s63" d="m223 486v-4h6 6l1 1 1 7-1 12-6 1-5-3z"/>
		<path id="Path 287" class="s36" d="m416 484l5-1v7l-4 2-1-4z"/>
		<path id="Path 288" class="s43" d="m437 488l7-6 4 3v5l-3 4-8-3z"/>
		<path id="Path 289" class="s22" d="m448 490l14-8 2 8-6 14-1 16v1h-8l-2-5v-8l-2-8v-6z"/>
		<path id="Path 290" class="s52" d="m410 488l1-4h5v4z"/>
		<path id="Path 291" class="s35" d="m491 490l4-6h6v6l1 4 4-1 8 1v4l7 7v5h-4-7l-7-2h-7l-5-7z"/>
		<path id="Path 292" class="s29" d="m559 508l-2-5-6-3v-16h4l5 9 2 5 1 10z"/>
		<path id="Path 293" class="s62" d="m195 488v-2h5l3 4v12h-8z"/>
		<path id="Path 294" class="s41" d="m215 501l1-13 3-2h4l2 14-8 1z"/>
		<path id="Path 295" class="s59" d="m689 488l4-1 7 6 5 1v14l-3 3h-12l-3 25h-6l-5-2-2-8-4-2-5-16 3-4 12 3 2-3h10l1-6-4-2z"/>
		<path id="Path 296" class="s53" d="m183 495l4-7h8v14l-1 3h-5z"/>
		<path id="Path 297" class="s31" d="m260 491l3-3h4l6 7-2 11-2 1-8-4z"/>
		<path id="Path 298" class="s43" d="m327 510l-2-22h6v12l6 3 1 4v7l-2 8-5 2z"/>
		<path id="Path 299" class="s57" d="m403 502l-2-13 9-1h6l1 4v4l-7 5-3 1z"/>
		<path id="Path 300" class="s36" d="m437 491l-3 1-1-4h4z"/>
		<path id="Path 301" class="s53" d="m700 493l3-5h4l6 7 1 8 9-6 5 1 1 9-4 3v14l8 2 2 12h-6l-8-4v-8h-8l1-7-3-3h-8l-1-5 3-3v-14z"/>
		<path id="Path 302" class="s4" d="m883 491l2-3h2z"/>
		<path id="Path 303" class="s3" d="m153 494l4-5v2z"/>
		<path id="Path 304" class="s31" d="m294 492l3-3 8 2v11l6 5v5l-3 2h-5l-1-4-9 4-4-8 4-4z"/>
		<path id="Path 305" class="s59" d="m173 508l-7-3v-5l4-8 5-2 5 6-1 12z"/>
		<path id="Path 306" class="s58" d="m236 502l1-12 6 2v14l-2 2-6 4v12l-2 3h-6l-2-7 3-8 2-6h5z"/>
		<path id="Path 307" class="s58" d="m251 506v-13l3-3 6 1 1 12-5 6h-4z"/>
		<path id="Path 308" class="s35" d="m457 520l1-16 6-14 17 14v6l-2 2h-6l-2-6h-5l-2 6v8z"/>
		<path id="Path 309" class="s22" d="m506 493l-4 1-1-4h4z"/>
		<path id="Path 310" class="s59" d="m713 495l6-5 3 1 1 6-9 6z"/>
		<path id="Path 311" class="s14" d="m153 494l4-3h2l2 9h-8l-1-3z"/>
		<path id="Path 312" class="s64" d="m731 492l10-1 1 3-1 15 3 8-11 3v6l-8-2v-14l4-3-1-9z"/>
		<path id="Path 313" class="s0" d="m872 498l10-7-2 4z"/>
		<path id="Path 314" class="s31" d="m281 498v-6h2 4l-2 7z"/>
		<path id="Path 315" class="s38" d="m285 499l2-7h7l-1 10-4 4z"/>
		<path id="Path 316" class="s10" d="m742 494l6-2h5l1 5 6 3v6l-6 2-1 11-6 6 4 13 2 16-6 1h-7l-1-5v-7l-4-5-2-12v-6l11-3-3-8z"/>
		<path id="Path 317" class="s40" d="m562 498l-2-5 4 1z"/>
		<path id="Path 318" class="s11" d="m149 497l4-3-1 3-3 1z"/>
		<path id="Path 319" class="s25" d="m562 498l2-4 7 1 2 8 4 1 1 6-2 11-3 1-10-2v-12z"/>
		<path id="Path 320" class="s51" d="m627 506l3-12 4 2 1 10 4 1 2 1v8l6 2 2-10 12-2 4 2 5 16 4 2 2 8 5 2v10l-4 1-1 4-11-1 2-14-6-1-2-7-6-2-10 2-4 24-19 1-4-5h-7l-2-4h-8l-4 12-14-1-5-7-7-3 1-10 3-1v-6-6l3-1 2-11h7l3 8h11l2 3 18-3 1-6h6z"/>
		<path id="Path 321" class="s65" d="m180 496l3-1 6 10v11h-2l-8-8z"/>
		<path id="Path 322" class="s43" d="m271 506l2-11 4 3-1 5z"/>
		<path id="Path 323" class="s44" d="m379 502l3-7h6l3 5-1 4-1 2h-6z"/>
		<path id="Path 324" class="s40" d="m577 504l-4-1-2-8 7 1z"/>
		<path id="Path 325" class="s34" d="m410 501l7-5 2 6v4h-4z"/>
		<path id="Path 326" class="s3" d="m143 502l6-5v1z"/>
		<path id="Path 327" class="s16" d="m149 498l3-1 1 3h8l4 12-14 4h-7l-5-4 2-8 2-2z"/>
		<path id="Path 328" class="s59" d="m640 504l3-7 5 3 1 8h-5v-3z"/>
		<path id="Path 329" class="s35" d="m271 506l5-3 1-5h4l4 1 4 7 4 8 3 10-3 2-7-3h-3v-12h-4l-8 8h-4v-5l2-7z"/>
		<path id="Path 330" class="s51" d="m619 508l-6-4v-6l8 2v6z"/>
		<path id="Path 331" class="s0" d="m867 501l5-3-1 3z"/>
		<path id="Path 332" class="s29" d="m533 515v-8l8-2-1-6 12 8v5l-3 7h-2l-5-4z"/>
		<path id="Path 333" class="s15" d="m217 501l8-1 5 3v3l-2 6h-7l-5-6z"/>
		<path id="Path 334" class="s31" d="m390 504l1-4 6 2-2 5z"/>
		<path id="Path 335" class="s34" d="m441 504v-3l4-1 2 8h-5z"/>
		<path id="Path 336" class="s7" d="m213 502l2-1h2l-1 5h-3z"/>
		<path id="Path 337" class="s29" d="m407 502l3-1 5 5v8l4 4h3l2-5 5 2-2 5-3 12-2 7-7-2-1-11-4-1-3 3v10l-8 3-2-1-1-15 2-5 6-1z"/>
		<path id="Path 338" class="s34" d="m424 502l8-1 2 3-3 11h-2l-5-2v-7z"/>
		<path id="Path 339" class="s29" d="m487 504l4-3 5 7-1 8-5 2-3 7-1 13h-4l-1-4v-8l5-7 1-9z"/>
		<path id="Path 340" class="s7" d="m194 505l1-3h8 2v4l-4 6h-4z"/>
		<path id="Path 341" class="s58" d="m205 506v-4h8v4z"/>
		<path id="Path 342" class="s34" d="m230 503l6-1-1 4h-5z"/>
		<path id="Path 343" class="s31" d="m377 504l2-2 4 4v6h-6z"/>
		<path id="Path 344" class="s40" d="m395 507l2-5h6 4l-3 17-6 1-3-8z"/>
		<path id="Path 345" class="s15" d="m419 506v-4h5v4z"/>
		<path id="Path 346" class="s34" d="m256 509l5-6 8 4-2 7-8 2v-6z"/>
		<path id="Path 347" class="s21" d="m133 509l8-5-2 8 5 4h7v6l-3 3h-5l-7 9-12 8-6-1-3-7v-8l-3-1 2-3 11-7 4-3z"/>
		<path id="Path 348" class="s66" d="m372 511v-6l5-1v8h-5z"/>
		<path id="Path 349" class="s32" d="m389 506l1-2 5 3v5h-6z"/>
		<path id="Path 350" class="s38" d="m431 515l3-11h7l1 4-1 8-2 4h-5z"/>
		<path id="Path 351" class="s67" d="m481 510v-6h6v6z"/>
		<path id="Path 352" class="s39" d="m639 507l1-3 4 1v3h-3z"/>
		<path id="Path 353" class="s43" d="m189 516v-11h5l3 7h4l4 11 5 4v10l-3 2-6-1-3-2v-4h-6v-3l1-7 2-5z"/>
		<path id="Path 354" class="s35" d="m355 510v-5h5l-1 9h-4z"/>
		<path id="Path 355" class="s22" d="m201 512l4-6h8 3l5 6v6l4 2 2 7v7l3 2-6 19-5-3-2-6h-10l-1-3 1-4 3-2v-10l-5-4z"/>
		<path id="Path 356" class="s40" d="m241 508l2-2h8l1 3-1 11-8-2z"/>
		<path id="Path 357" class="s58" d="m383 512v-6h6v6z"/>
		<path id="Path 358" class="s68" d="m424 513l-2 5h-3l-4-4v-8h4 5z"/>
		<path id="Path 359" class="s58" d="m464 512l2-6h5l2 6h-2z"/>
		<path id="Path 360" class="s25" d="m619 508l2-2h6l-1 6h-6z"/>
		<path id="Path 361" class="s32" d="m338 514v-7h4v7z"/>
		<path id="Path 362" class="s63" d="m173 510v-2h6l8 8 2 6h4l-1 7-8-4-5-8-5-2z"/>
		<path id="Path 363" class="s25" d="m235 524v-12l6-4 2 10 8 2 2 2v3l-3 2-1 13 8 2v8h-6l-4-8h-5l-1-16z"/>
		<path id="Path 364" class="s29" d="m321 512l1-4 4 2z"/>
		<path id="Path 365" class="s35" d="m441 516l1-8h5v8z"/>
		<path id="Path 366" class="s67" d="m486 538l1-13 3-7 5-2 1-8h7l-1 14-5 3-1 18h-5z"/>
		<path id="Path 367" class="s29" d="m502 522l1-14 7 2v8l-1 3-4 1z"/>
		<path id="Path 368" class="s7" d="m559 512v-4h4v12 6l-3 2h-5v-4l3-1z"/>
		<path id="Path 369" class="s63" d="m649 508l-2 10-6-2v-8h3z"/>
		<path id="Path 370" class="s7" d="m251 520l1-11h4l3 1v6l-1 6h-5z"/>
		<path id="Path 371" class="s23" d="m165 512l8-2 1 5-8 3-4 8-5-4h-6v-6z"/>
		<path id="Path 372" class="s52" d="m293 514l9-4 1 4-1 9-6 1z"/>
		<path id="Path 373" class="s35" d="m321 512l5-2h1l4 14-2 1-7-1-2-2z"/>
		<path id="Path 374" class="s52" d="m347 514l1-4h7v4l-6 10-2-3z"/>
		<path id="Path 375" class="s45" d="m479 512l2-2h6l-1 9h-3z"/>
		<path id="Path 376" class="s67" d="m510 518v-8h7v8z"/>
		<path id="Path 377" class="s29" d="m517 518v-8h4l2 10h-4z"/>
		<path id="Path 378" class="s69" d="m687 536l3-25h12l1 5h8l3 3-1 7v9l10 10v9l-4 2-7-6h-5-5l-5-7h-7z"/>
		<path id="Path 379" class="s43" d="m267 514v5h4l8-8h4v12l-8 4v3l-2 4h-6l-4-5-3-3-2-4 1-6z"/>
		<path id="Path 380" class="s52" d="m361 515l4-4h7v1l-4 11-4-1z"/>
		<path id="Path 381" class="s34" d="m225 520l-4-2v-6h7z"/>
		<path id="Path 382" class="s44" d="m308 514l3-2h2l-2 5z"/>
		<path id="Path 383" class="s52" d="m311 517l2-5h8l-1 10-3 4z"/>
		<path id="Path 384" class="s34" d="m361 515l3 7 4 1 4-11h5 6v4l4 2v4l5 3-2 14 7 1 2 1v9h-10l-3-4h-5l-6-6-1-4h-4v3l-9 1-3-2-1 4-3 2-5-1v-5-14l6-10h4z"/>
		<path id="Path 385" class="s60" d="m387 518l-4-2v-4h6z"/>
		<path id="Path 386" class="s25" d="m387 518l2-6h6l3 8-2 5h-4l-5-3z"/>
		<path id="Path 387" class="s22" d="m464 520v-8h7v9l-5 3z"/>
		<path id="Path 388" class="s15" d="m471 521v-9h2 6l4 7h3l-5 7h-6z"/>
		<path id="Path 389" class="s70" d="m549 519l3-7h7l-1 11-3 1z"/>
		<path id="Path 390" class="s29" d="m296 524l6-1 1-9h5l3 3 6 9 2 14h-7l-1-15-4-1-3 20h-2l-7-2-2-1v-15z"/>
		<path id="Path 391" class="s35" d="m336 522l2-8h4 1l1 6-5 2z"/>
		<path id="Path 392" class="s45" d="m344 520l-1-6h4v7z"/>
		<path id="Path 393" class="s3" d="m114 522l4-5 7-2z"/>
		<path id="Path 394" class="s1" d="m162 526l4-8 8-3 5 2 5 8-10 11-8-2z"/>
		<path id="Path 395" class="s39" d="m427 520l2-5h2l3 5-1 3z"/>
		<path id="Path 396" class="s39" d="m532 520l1-5h9l5 4v17l-14-2z"/>
		<path id="Path 397" class="s51" d="m193 522h-4l-2-6h2l6 1z"/>
		<path id="Path 398" class="s67" d="m439 520l2-4h6l2 5v3h-7z"/>
		<path id="Path 399" class="s25" d="m509 521l1-3h7l2 2v16l-7 2z"/>
		<path id="Path 400" class="s40" d="m547 536v-17h2l6 5v4 10h-8z"/>
		<path id="Path 401" class="s55" d="m751 538l-4-13 6-6 4 4v6l9 6 3 6 4 32 10 22-2 9h-3l-8-5 1-13-10-28-1-19z"/>
		<path id="Path 402" class="s39" d="m339 522l5-2 3 1 2 3v14h-4l-6-2z"/>
		<path id="Path 403" class="s68" d="m424 532l3-12 6 3v9z"/>
		<path id="Path 404" class="s29" d="m433 523l1-3h5l3 4-4 12h-4l-1-4z"/>
		<path id="Path 405" class="s70" d="m457 521v-1h7l2 4-1 10h-8z"/>
		<path id="Path 406" class="s40" d="m519 536v-16h4 2l2 16z"/>
		<path id="Path 407" class="s25" d="m527 536l-2-16h7l1 14v2z"/>
		<path id="Path 408" class="s63" d="m563 526v-6l10 2v6h-4z"/>
		<path id="Path 409" class="s25" d="m449 524v-3h8v13l-7 1z"/>
		<path id="Path 410" class="s25" d="m466 524l5-3 4 5-2 8-4 3-4-3z"/>
		<path id="Path 411" class="s67" d="m505 522l4-1 3 17-5 2z"/>
		<path id="Path 412" class="s3" d="m110 525l4-3-2 3h-1z"/>
		<path id="Path 413" class="s27" d="m148 525l3-3h6l5 4 4 8-5 4-10-2z"/>
		<path id="Path 414" class="s40" d="m253 525v-3h5l2 4-1 1z"/>
		<path id="Path 415" class="s25" d="m317 526l3-4 2 2-1 18 3 3 5-2 2 1v23l-7-1-1-13-4-7v-6z"/>
		<path id="Path 416" class="s29" d="m331 524l5-2h3v14l-1 6-2 2h-5l-2-1v-18z"/>
		<path id="Path 417" class="s25" d="m496 543l1-18 5-3h3l2 18-1 7-9-3z"/>
		<path id="Path 418" class="s15" d="m275 530v-3l8-4h3l-1 12z"/>
		<path id="Path 419" class="s60" d="m285 535l1-12 7 3v15l-2 3-6-2z"/>
		<path id="Path 420" class="s38" d="m233 527l2-3 6 2 1 16-1 1-6 1 3 11 5 9v4l-14 2-5-10v-5l6-19 3-1z"/>
		<path id="Path 421" class="s60" d="m304 544l3-20 4 1 1 15-1 5z"/>
		<path id="Path 422" class="s60" d="m329 543l-5 2-3-3 1-18 7 1z"/>
		<path id="Path 423" class="s68" d="m438 536l4-12h7l1 11 7-1h8l4 3 4-3h8l1 4-7 9-1 18 7 1 6 10v10 2h-8l-3-4-10 2-5-4-2-4-1-6h-5l-2 4h-14l-2-4h-9l-7-2-2-3-4-12-6 3-1 8h-5l-2-16v-9l8-3v-10l3-3 4 1 1 11 7 2 5 4v4 7h3l2-9 2-5h3z"/>
		<path id="Path 424" class="s15" d="m105 528l5-3h1l-4 4h-2z"/>
		<path id="Path 425" class="s20" d="m107 529l4-4h1l3 1v8h-6z"/>
		<path id="Path 426" class="s8" d="m124 542l12-8 7-9h5l3 11-2 6h-5l-1 4-11 2z"/>
		<path id="Path 427" class="s28" d="m174 536l10-11 8 4v3h6v4l-4 12 10 6 1 1 3 17-3 1-4-7h-6l-2-1-3-12-10-8-2-3z"/>
		<path id="Path 428" class="s38" d="m257 542l-8-2 1-13 3-2 6 2v3z"/>
		<path id="Path 429" class="s38" d="m397 540l-7-1 2-14h4z"/>
		<path id="Path 430" class="s29" d="m259 527l1-1 3 3-4 1z"/>
		<path id="Path 431" class="s67" d="m473 534l2-8h6v8z"/>
		<path id="Path 432" class="s70" d="m560 528l3-2 6 2 1 7-1 10 7 3 5 7 14 1 4-12h8l2 4h7l4 5 19-1 7 1 6 9 9 5v7l-14 8h-13l-1-4h-4l-3-12h-10l-16 6-6 8h-5l-3-6-21 2-6 10-17 4-9-8 1-6h15l2-14 4-1 2-5 2-17z"/>
		<path id="Path 433" class="s62" d="m639 552l4-24 10-2 6 2 2 7-1 14 5 1 11 1 1-4 4-1 9-3h7l5 7h5l1 7 5 3v6h-7l-3 4h-16-7l-3 3-6 1h-10v-7l-9-5-6-9z"/>
		<path id="Path 434" class="s59" d="m719 556l4-2v-9l-10-10v-9h8v8l8 4v10l3 2-1 15-8 1h-4z"/>
		<path id="Path 435" class="s36" d="m230 536l-3-2v-7h6v8z"/>
		<path id="Path 436" class="s0" d="m98 534l7-6v1z"/>
		<path id="Path 437" class="s29" d="m555 538v-10h5l-1 11z"/>
		<path id="Path 438" class="s25" d="m570 535l-1-7h4v6z"/>
		<path id="Path 439" class="s71" d="m795 611l-8-36 1-16-7-22 8-9h17l9 6v6l6 10 12 11 15 8h1l4 3 2 1 2 1 14 9 5 4 5 8-4 3-3-7-7-1-2-5-18-5-9-10h-20l-8 8-7 1v16l12 19v6l-2 1-5-3-5-2h-1z"/>
		<path id="Path 440" class="s16" d="m98 534l7-5h2l2 5v9l-5 7-10-1-7-5v-2h1z"/>
		<path id="Path 441" class="s35" d="m259 530l4-1 4 5v6l5 2 1 1-1 9h-5l-2-7-8-3z"/>
		<path id="Path 442" class="s4" d="m821 530l2-1-2 2z"/>
		<path id="Path 443" class="s25" d="m273 534l2-4 10 5v7l6 2v10l-2 8h-5l-3-8-2-10-6-1-1-1z"/>
		<path id="Path 444" class="s2" d="m815 534l6-4v1l-4 4 3 10 2 2 25 20 1 2-15-8-12-11-6-10z"/>
		<path id="Path 445" class="s60" d="m422 539l2-7h9l1 4v4l-2 5-5 2v-4z"/>
		<path id="Path 446" class="s5" d="m88 542l5-7 5-1z"/>
		<path id="Path 447" class="s1" d="m109 543v-9h6l3 7-5 3z"/>
		<path id="Path 448" class="s45" d="m161 538l5-4 8 2 4 6-11 2h-6z"/>
		<path id="Path 449" class="s60" d="m272 542l-5-2v-6h6z"/>
		<path id="Path 450" class="s51" d="m533 536v-2l14 2v2 12h-4l-6-1-5-8z"/>
		<path id="Path 451" class="s63" d="m665 550l-5-1 1-14 6 1z"/>
		<path id="Path 452" class="s25" d="m149 542l2-6 10 2v6l-6 3h-4z"/>
		<path id="Path 453" class="s47" d="m204 554l-10-6 4-12 3 2 1 5h4l1 3-1 4z"/>
		<path id="Path 454" class="s68" d="m338 542l1-6 6 2-1 4z"/>
		<path id="Path 455" class="s68" d="m370 539v-3h4l1 4z"/>
		<path id="Path 456" class="s25" d="m434 540v-4h4l-1 4z"/>
		<path id="Path 457" class="s51" d="m512 538l7-2h8v5l2 17-6 7v7l-2 4h-4l-3-8h-7v-3l-1-18 1-7z"/>
		<path id="Path 458" class="s7" d="m527 541v-5h6l-1 5z"/>
		<path id="Path 459" class="s65" d="m681 546v-10h6l3 7z"/>
		<path id="Path 460" class="s52" d="m206 543h-4l-1-5 6 1z"/>
		<path id="Path 461" class="s25" d="m338 542h6l1-4h4v5l-2 18-8 2-3-19z"/>
		<path id="Path 462" class="s38" d="m357 542l1-4 3 2z"/>
		<path id="Path 463" class="s63" d="m487 576l-6-10-7-1 1-18 7-9h4l5 5h5l1 1 2 18 4 4 4-1v3 10l-3 2-9-1-2-3z"/>
		<path id="Path 464" class="s63" d="m547 550v-12h8l4 1-2 17h-6z"/>
		<path id="Path 465" class="s64" d="m732 550l-3-2v-10h6l4 5v7z"/>
		<path id="Path 466" class="s56" d="m753 554l-2-16 9 1 1 19 10 28-1 13h-2l-7-3-1-2-2-32v-4h-5z"/>
		<path id="Path 467" class="s39" d="m361 540l9-1 5 1 6 6-1 18-7 2h-10l-6-4-3-18 3-2z"/>
		<path id="Path 468" class="s39" d="m311 545l1-5h7v6l-5 1z"/>
		<path id="Path 469" class="s7" d="m113 544l5-3 6 1 8 6 11-2 2 4h4l1 2-3 10-2 4h-5l-8-10h-17l-3-4z"/>
		<path id="Path 470" class="s34" d="m291 544l2-3 2 1v12h-4z"/>
		<path id="Path 471" class="s62" d="m523 572v-7l6-7-2-17h5l5 8v9l-4 6v8z"/>
		<path id="Path 472" class="s3" d="m78 549l9-7v2z"/>
		<path id="Path 473" class="s27" d="m143 546l1-4h5l2 5-2 3h-4z"/>
		<path id="Path 474" class="s52" d="m167 544l11-2 2 3-4 3-1 8h-6z"/>
		<path id="Path 475" class="s68" d="m241 543l1-1h5l4 8v9l-2 5h-6l-5-9 3-2z"/>
		<path id="Path 476" class="s68" d="m257 550v-8l8 3 2 7v7h3l2-5h9l3 8h5l2 7-7 1-3 6h-6l-4-6-9 2-4-2-2-11z"/>
		<path id="Path 477" class="s60" d="m273 543l6 1 2 10h-9v-2z"/>
		<path id="Path 478" class="s68" d="m295 554v-12l7 2 2 12-1 4h-6z"/>
		<path id="Path 479" class="s8" d="m104 550l5-7 4 1-1 8h-8z"/>
		<path id="Path 480" class="s41" d="m238 555l-3-11 6-1v10z"/>
		<path id="Path 481" class="s68" d="m347 561l2-18 5 1 3 18 6 4v6h-6l-2-4h-4z"/>
		<path id="Path 482" class="s20" d="m78 549l9-5 7 5v7l-9 2-5-2-2-5z"/>
		<path id="Path 483" class="s43" d="m155 547l6-3h6l2 12h6l1-8 4-3 10 8 3 12-3 5h-9-7l-7 8-7-2-3-11-10-3 3-10h3z"/>
		<path id="Path 484" class="s25" d="m304 556l-2-12h2l7 1 3 2-3 9z"/>
		<path id="Path 485" class="s68" d="m331 567v-23h5l3 19v2l-7 4z"/>
		<path id="Path 486" class="s65" d="m507 565l-4 1-4-4-2-18 9 3z"/>
		<path id="Path 487" class="s29" d="m427 547l5-2-2 9h-3z"/>
		<path id="Path 488" class="s52" d="m206 550l1-4h10l2 6 5 3v5l-17-6z"/>
		<path id="Path 489" class="s68" d="m314 547l5-1 4 7 1 13-1 4h-6l-6-14z"/>
		<path id="Path 490" class="s68" d="m380 564l1-18h5l3 4v9l6 4 3 8v5h-7l-1-6h-7z"/>
		<path id="Path 491" class="s39" d="m149 550l2-3h4l-2 5h-3z"/>
		<path id="Path 492" class="s11" d="m73 554l5-5v2z"/>
		<path id="Path 493" class="s10" d="m94 556v-7l10 1v2l-3 1v5z"/>
		<path id="Path 494" class="s32" d="m537 558v-9l6 1v8z"/>
		<path id="Path 495" class="s57" d="m204 554l2-4 1 4-2 1z"/>
		<path id="Path 496" class="s63" d="m251 559v-9h6l-1 9z"/>
		<path id="Path 497" class="s29" d="m398 571l-3-8-6-4v-9h10l2 16v5z"/>
		<path id="Path 498" class="s70" d="m543 558v-8h4l4 6-2 4z"/>
		<path id="Path 499" class="s65" d="m713 566v-6l-5-3-1-7h5l7 6v10h-4z"/>
		<path id="Path 500" class="s53" d="m731 565l1-15h7l1 5h7l5 8-6 8h-3l-8-1z"/>
		<path id="Path 501" class="s13" d="m73 554l5-3 2 5 5 2 4 14-1 1-14-1-4 6-7-1v-2-5l3-5 2-3v-1z"/>
		<path id="Path 502" class="s27" d="m101 558v-5l3-1h8l3 4v6h-12z"/>
		<path id="Path 503" class="s25" d="m272 554l-2 5h-3v-7h5z"/>
		<path id="Path 504" class="s3" d="m68 561l1-5 4-2z"/>
		<path id="Path 505" class="s72" d="m205 555l2-1 17 6 5 10 1 9 9 10 25 4 9 5 18 2 2 6 9-1 11-11v-8l4-3 4 1 3 8 5-2h11l2 8v4l8 8 15 1 2 3h4l6-9 5-4 1-9h6l4 6 8-2h8l-2 28 2 2v10l-2 4-4 1v3l-11 3-7-3-2-3-1 2-6 4-11-2-5 3-12-1-3-15h-21l-3 4-9-1-2-3h-18l-3 4h-4l-7-7-4 1-1 5-7-6-5 2-4 1-5-5-2-4-12-6-14 1-5 3-4 2v9l-14 2-4-4v-13l5-4 4-4 1-15-1-4-1-17 3-1z"/>
		<path id="Path 506" class="s39" d="m289 562l2-8h4l2 6h6l1-4h7l6 14-2 2-9-2-3 4-6 2-6-7z"/>
		<path id="Path 507" class="s64" d="m747 555l6-1v4h5v4l-6 1z"/>
		<path id="Path 508" class="s39" d="m406 566l1-8 6-3 4 12-6 1z"/>
		<path id="Path 509" class="s17" d="m85 558l9-2 7 2 2 4-4 4-3 1 2 5h-9z"/>
		<path id="Path 510" class="s39" d="m115 562v-6h17l8 10v6l-3 2h-4l-6-2-5-2-7 4z"/>
		<path id="Path 511" class="s25" d="m549 560l2-4h6l-2 5-4 1z"/>
		<path id="Path 512" class="s63" d="m533 572v-8l4-6h6l6 2 2 2-2 14h-15z"/>
		<path id="Path 513" class="s60" d="m249 564l2-5h5l2 11 4 2v6l-10 5-3-9 2-2z"/>
		<path id="Path 514" class="s57" d="m339 563l8-2 4 7-2 2h-9l-1-5z"/>
		<path id="Path 515" class="s12" d="m99 566l4-4h12v12l-3 4-3-1 1-8-9-1z"/>
		<path id="Path 516" class="s52" d="m145 566l2-4 10 3 3 11 7 2v5l-6 6v10l-4 2 3 5-4 12h-8l-3 4-5-4-10 2-3-3v-23l-4-4h-6l2-13 8-5 6 2v8l5 11 10-1-1-8-2-13z"/>
		<path id="Path 517" class="s17" d="m752 563l6-1 2 32-13-5v-1l-1-17z"/>
		<path id="Path 518" class="s42" d="m243 568v-4h6l2 8-2 2h-3z"/>
		<path id="Path 519" class="s60" d="m373 566l7-2 3 6v8 6 4h-6v-4l-4-2z"/>
		<path id="Path 520" class="s31" d="m190 570l3-5 2 1-1 9h-3z"/>
		<path id="Path 521" class="s30" d="m332 569l7-4 1 5-1 12-2 1-5-3-1-4z"/>
		<path id="Path 522" class="s8" d="m723 566l8-1 4 5-2 11-10-5z"/>
		<path id="Path 523" class="s7" d="m98 572l-2-5 3-1 2 2z"/>
		<path id="Path 524" class="s25" d="m140 572v-6h5v5z"/>
		<path id="Path 525" class="s12" d="m194 575l1-9h6l4 7 1 17-1 2h-4l-4-4v-9z"/>
		<path id="Path 526" class="s60" d="m323 570l1-4 7 1 1 2-1 7h-8z"/>
		<path id="Path 527" class="s35" d="m363 572v-6h10v16l-8-1z"/>
		<path id="Path 528" class="s15" d="m401 571v-5h5l5 2v9h-8z"/>
		<path id="Path 529" class="s67" d="m534 576l-1 6 9 8 17-4 6-10 21-2 3 6h5l6-8 16-6h10l3 12v4l-5 1-1 9-6 5v8l-6 3h-6l-4 6h-9l-4 5h-14v-9l-8-10-7 2-13-2-3 4h-4l-2-7-9-4-3-6h-4v-11l2-4h10z"/>
		<path id="Path 530" class="s32" d="m703 570l3-4h7 2v10h-12z"/>
		<path id="Path 531" class="s26" d="m715 576v-10h4 4v10z"/>
		<path id="Path 532" class="s60" d="m411 568l6-1 2 3v8h-6l-2-1z"/>
		<path id="Path 533" class="s0" d="m848 569l-1-2 2 2z"/>
		<path id="Path 534" class="s51" d="m98 572l3-4 9 1-1 8-5 5-4-2z"/>
		<path id="Path 535" class="s52" d="m229 570l14-2 3 6h3l3 9 10-5 11 20-9-5-25-4-9-10z"/>
		<path id="Path 536" class="s34" d="m349 570l2-2h4l2 4v2h-6z"/>
		<path id="Path 537" class="s70" d="m507 578v-10h7l3 8v2z"/>
		<path id="Path 538" class="s60" d="m281 576l3-6 7-1 6 7v8l-6 6h-4l-6-6z"/>
		<path id="Path 539" class="s0" d="m853 572l-4-3 5 3z"/>
		<path id="Path 540" class="s45" d="m115 574l7-4 5 2-8 5-2 13-4 2-4-4v-5l3-5z"/>
		<path id="Path 541" class="s38" d="m167 578l7-8h7v12l-8 12-8 6-4-1v-10l6-6z"/>
		<path id="Path 542" class="s22" d="m181 582v-12h9l1 5-5 7z"/>
		<path id="Path 543" class="s38" d="m262 572l9-2 4 6h6v8l6 6h4l6-6h8l1 2-1 4-11 5-3 5-18-2-11-20z"/>
		<path id="Path 544" class="s60" d="m303 574l3-4 9 2 2 6v5l-4 3h-7l-1-2z"/>
		<path id="Path 545" class="s42" d="m315 572l2-2h6v6 2h-6z"/>
		<path id="Path 546" class="s46" d="m339 582l1-12h9l2 4h6v8l-2 4-8 1-4-1z"/>
		<path id="Path 547" class="s36" d="m383 578v-8h7l1 6v2z"/>
		<path id="Path 548" class="s35" d="m419 578v-8l7 2-4 7z"/>
		<path id="Path 549" class="s32" d="m677 573l3-3h7v8l-10 2z"/>
		<path id="Path 550" class="s30" d="m687 578v-8h16v6z"/>
		<path id="Path 551" class="s12" d="m733 581l2-11 8 1-1 15h-1l-6-1z"/>
		<path id="Path 552" class="s73" d="m815 620v-6l-12-19v-16l7-1 8-8h20l9 10 18 5 2 5 7 1 3 7 4-3h4l6 4 4 6 2-1 4 3 11 11 3 8v1 1 12l-5 8h-1-11-5l-5-2h-2l-5-2h-1l-8-2-3-1h-2l-9-3h-2l-20-7-4-4-9-1z"/>
		<path id="Path 553" class="s15" d="m140 572l5-1 2 13h-7l-3-10z"/>
		<path id="Path 554" class="s66" d="m398 576v-5h3l2 6-5 1z"/>
		<path id="Path 555" class="s14" d="m742 586l1-15h3l1 17z"/>
		<path id="Path 556" class="s8" d="m63 577l7 1 4-6 14 1 2 13 8 2 6-1 2-4h3v5l4 4v3l-8 9-9 4-6-4-1-11-11-9-15 1z"/>
		<path id="Path 557" class="s49" d="m88 573l1-1h9l2 8-2 8-8-2z"/>
		<path id="Path 558" class="s60" d="m357 574v-2h6l2 9-8 1z"/>
		<path id="Path 559" class="s38" d="m419 578l3 1 4-7h9l2 4h14l1 6-1 14-4 2-4-4h-11-1l-6-12h-5l-1 4h-4l-2-8z"/>
		<path id="Path 560" class="s39" d="m451 576l2-4h5l1 6-2 2-5 2z"/>
		<path id="Path 561" class="s19" d="m855 573l-2-1h1 1z"/>
		<path id="Path 562" class="s0" d="m855 573v-1l2 2z"/>
		<path id="Path 563" class="s30" d="m671 574l6-1v7 1l-1 1h-5z"/>
		<path id="Path 564" class="s22" d="m147 584l1 8-10 1-5-11v-8h4l3 10z"/>
		<path id="Path 565" class="s22" d="m297 576l6-2 2 10h-8z"/>
		<path id="Path 566" class="s32" d="m634 582h13l14-8h10v8h-4l-7 9-11-2-6 5h-5l-4 7h-5l3-18z"/>
		<path id="Path 567" class="s19" d="m871 583l-14-9 14 8z"/>
		<path id="Path 568" class="s5" d="m61 586l2-11v2 8z"/>
		<path id="Path 569" class="s66" d="m186 582l5-7h3l3 4v9h-2-7z"/>
		<path id="Path 570" class="s52" d="m323 578v-2h8l1 4h-7z"/>
		<path id="Path 571" class="s52" d="m391 578v-2h7v2 6h-7z"/>
		<path id="Path 572" class="s34" d="m487 586v-10h6l2 3-2 7z"/>
		<path id="Path 573" class="s39" d="m517 578v-2h4v11h-2z"/>
		<path id="Path 574" class="s10" d="m104 582l5-5 3 1-3 5h-3z"/>
		<path id="Path 575" class="s46" d="m398 578l5-1h8l2 1 2 8v6l-2 4h-4l-2-6h-6l-3-6z"/>
		<path id="Path 576" class="s57" d="m317 583v-5h6l2 2 4 10-5 2-3-8z"/>
		<path id="Path 577" class="s31" d="m383 584v-6h8v6h-2z"/>
		<path id="Path 578" class="s74" d="m457 580l2-2 2 4z"/>
		<path id="Path 579" class="s15" d="m504 580l3-2h10l2 9v5h-7z"/>
		<path id="Path 580" class="s40" d="m629 582v-4h4l1 4-2 1z"/>
		<path id="Path 581" class="s6" d="m677 580l10-2-10 3z"/>
		<path id="Path 582" class="s42" d="m493 586l2-7 9 1 8 12h7l8 15v13h-4-18-2v-10l-6-6z"/>
		<path id="Path 583" class="s75" d="m98 588l2-8 4 2 2 1-2 4z"/>
		<path id="Path 584" class="s43" d="m329 590l-4-10h7l5 3 3 5v2z"/>
		<path id="Path 585" class="s60" d="m452 582l5-2 4 2 5 4-5 5v5h-10z"/>
		<path id="Path 586" class="s15" d="m357 582l8-1 8 1 4 2v4l-4 4-8-2-7 4-3-8z"/>
		<path id="Path 587" class="s35" d="m173 594l8-12h5l2 6-5 8z"/>
		<path id="Path 588" class="s26" d="m337 583l2-1 4 4-3 2z"/>
		<path id="Path 589" class="s22" d="m419 586l1-4h5l6 12h-2l-10-2z"/>
		<path id="Path 590" class="s25" d="m617 605v-8l6-5 1-9 5-1 3 1-3 18-9 5z"/>
		<path id="Path 591" class="s17" d="m660 591l7-9h4 5 1l4 2h1l10 5v1 6 2l-3 7-2-1v4l-1 3h-1l-4 4 1 5v4 13l-11 20-27-14-3-5-2-13 2-15 1-5z"/>
		<path id="Path 592" class="s0" d="m871 583v-1l6 5h-1z"/>
		<path id="Path 593" class="s27" d="m63 585l15-1 11 9 1 11 6 4-4 3-14 1-3-16h-9l-3 4-8 2v-1l2-7 4-8z"/>
		<path id="Path 594" class="s43" d="m383 588v-4h6v8h-6z"/>
		<path id="Path 595" class="s57" d="m389 592v-8h2 7l3 6v6l-8 2z"/>
		<path id="Path 596" class="s39" d="m466 586l10-2 3 4h8v16l-4 1v5l-5 2-1 4-8 2v-7l-7-8-1-7v-5z"/>
		<path id="Path 597" class="s11" d="m692 589l-10-5 8 1z"/>
		<path id="Path 598" class="s52" d="m291 600l3-5 11-5 1-4h7v8l-11 11-9 1z"/>
		<path id="Path 599" class="s47" d="m340 588l3-2 4 1-1 9-4 2-2-8z"/>
		<path id="Path 600" class="s60" d="m347 587l8-1 3 8-3 4-9-2z"/>
		<path id="Path 601" class="s42" d="m415 592v-6h4v6z"/>
		<path id="Path 602" class="s58" d="m487 588v-2h6l4 18 6 6v10l-5 6h-2l-5-6v-9l-4-7z"/>
		<path id="Path 603" class="s76" d="m747 590l-6-4h1l5 2v1z"/>
		<path id="Path 604" class="s58" d="m519 592v-5h2 4l3 6 9 4 2 7-3 2-2 14h-7v-13z"/>
		<path id="Path 605" class="s54" d="m881 595l-5-8h1l5 3 1 1 2 4z"/>
		<path id="Path 606" class="s34" d="m183 596l5-8h7l2 9 1 13 4 3-5 4-3-5-9-1z"/>
		<path id="Path 607" class="s7" d="m197 597l-2-9h2l4 4v4z"/>
		<path id="Path 608" class="s45" d="m373 592l4-4h6v4l-1 9-5 4-4-3z"/>
		<path id="Path 609" class="s26" d="m634 601l4-7h5l6-5 11 2-18 14-1 5h-4z"/>
		<path id="Path 610" class="s19" d="m747 590v-1l13 5 1 2z"/>
		<path id="Path 611" class="s38" d="m113 592l4-2h6l4 4v23l3 3-1 4h-6v-5l-4-3v-18l-6-3z"/>
		<path id="Path 612" class="s35" d="m205 592l1-2 1 4h-2z"/>
		<path id="Path 613" class="s52" d="m358 594l7-4 8 2v10l4 3-6 9h-4l-2-3-15-1-8-8v-4l4-2 9 2z"/>
		<path id="Path 614" class="s38" d="m401 596v-6h6l2 6z"/>
		<path id="Path 615" class="s77" d="m692 596v-6l2 6z"/>
		<path id="Path 616" class="s0" d="m885 595l-2-4 8 8z"/>
		<path id="Path 617" class="s37" d="m201 596v-4h4v2z"/>
		<path id="Path 618" class="s52" d="m409 596h4l2-4h4l10 2v2l-1 16-3 4-5 1-1 6-2 3h-8l-2-2z"/>
		<path id="Path 619" class="s4" d="m53 600l4-6-2 7h-2z"/>
		<path id="Path 620" class="s31" d="m165 600l8-6 10 2 2 15-4 1-14 3v11h-8l-3-8 4-12z"/>
		<path id="Path 621" class="s29" d="m201 596l4-2h2l-1 15-4 4-4-3-1-13z"/>
		<path id="Path 622" class="s57" d="m429 596v-2h2 1z"/>
		<path id="Path 623" class="s72" d="m429 596l3-2h11l4 4v13l4 5-1 6-1 1-10 1-12-2-2-6 3-4z"/>
		<path id="Path 624" class="s60" d="m96 608l9-4 8-9 6 3v18l4 3v5l-4 2-19-2-8 6h-1l1-19z"/>
		<path id="Path 625" class="s7" d="m55 602l8-2 3-4h9l3 16-5 2h-11-7v-4z"/>
		<path id="Path 626" class="s52" d="m447 598l4-2h10l1 7 7 8v7l-2 4h-8l-8-6-4-5z"/>
		<path id="Path 627" class="s3" d="m767 600l-6-4 7 3z"/>
		<path id="Path 628" class="s43" d="m160 606l-3-5 4-2 4 1z"/>
		<path id="Path 629" class="s0" d="m767 600l1-1h2l8 5v1z"/>
		<path id="Path 630" class="s0" d="m897 604l-2 1-4-6z"/>
		<path id="Path 631" class="s58" d="m543 604l3-4 13 2 7-2 8 10v9l-24 5v-3l-7-4z"/>
		<path id="Path 632" class="s5" d="m53 609v-8h2v1 8h-1z"/>
		<path id="Path 633" class="s4" d="m53 609h1v1h-1z"/>
		<path id="Path 634" class="s8" d="m620 606l9-5h5l3 9-2 6-9 7-8 4-5-1v-11l7-5z"/>
		<path id="Path 635" class="s40" d="m483 610v-5l4-1 4 7v9l-6-2z"/>
		<path id="Path 636" class="s42" d="m534 620l2-14 3-2h4v13l7 4v3l-3 4h-12z"/>
		<path id="Path 637" class="s3" d="m687 608v-4l2 1z"/>
		<path id="Path 638" class="s3" d="m778 605v-1h3l7 5v1z"/>
		<path id="Path 639" class="s7" d="m611 608l6-3 3 1v4l-7 5h-2z"/>
		<path id="Path 640" class="s3" d="m915 626l-3-8-11-11 13 10z"/>
		<path id="Path 641" class="s25" d="m588 619l4-5h9l4-6h6v7l-7 6-13 2z"/>
		<path id="Path 642" class="s19" d="m788 610v-1l4 2z"/>
		<path id="Path 643" class="s4" d="m55 617l-1-7h1v4z"/>
		<path id="Path 644" class="s58" d="m477 616l1-4 5-2 2 8z"/>
		<path id="Path 645" class="s14" d="m626 623l9-7 2-6h4l-2 15 2 13h-6z"/>
		<path id="Path 646" class="s38" d="m78 612l14-1-1 19h-3l-4-2-4-5-7-1v-8z"/>
		<path id="Path 647" class="s46" d="m181 612l4-1 9 1 3 5v13h-16z"/>
		<path id="Path 648" class="s29" d="m682 620l-1-5 4-4-1 4-1 4z"/>
		<path id="Path 649" class="s4" d="m684 615l1-4h1z"/>
		<path id="Path 650" class="s19" d="m802 616l-9-5h2z"/>
		<path id="Path 651" class="s44" d="m167 626v-11l14-3v18h-9z"/>
		<path id="Path 652" class="s22" d="m62 614h11v8l-10-4z"/>
		<path id="Path 653" class="s25" d="m55 617v-3h7l1 4-5 2-2-2z"/>
		<path id="Path 654" class="s6" d="m55 617h1v1h-1z"/>
		<path id="Path 655" class="s32" d="m591 623l13-2 7-6h2v11l-6 3-1 7-3-1-12-1z"/>
		<path id="Path 656" class="s57" d="m419 623l1-6 5-1 2 6v2z"/>
		<path id="Path 657" class="s31" d="m450 622l1-6 8 6v4h-4z"/>
		<path id="Path 658" class="s67" d="m469 618l8-2 8 2 6 2 5 6-3 5-16-1h-8l-2-8z"/>
		<path id="Path 659" class="s19" d="m807 619l-4-3 5 2z"/>
		<path id="Path 660" class="s26" d="m224 618l14-1 12 6 2 4-1 9-16-2v-6l-6-2-1-5-4-1z"/>
		<path id="Path 661" class="s6" d="m58 621l-2-3 2 2z"/>
		<path id="Path 662" class="s36" d="m58 620l5-2 10 4 7 1 4 5h-5l3 8-3 6-5-1-1-1-1-1v-5l-9-6-5-3v-4z"/>
		<path id="Path 663" class="s3" d="m72 639h1v1h-1z"/>
		<path id="Path 664" class="s15" d="m130 620l10-2 5 4 3-4h8l3 8-18 2h-8l-4-4z"/>
		<path id="Path 665" class="s32" d="m219 621l5-3v2l-4 2z"/>
		<path id="Path 666" class="s11" d="m807 619l1-1 5 3z"/>
		<path id="Path 667" class="s66" d="m550 624l24-5h14l3 4v11l-2 1-1 1-6 1-21 6h-1l-5-11h-18l-2 4h-10v-4l4-4h6 12z"/>
		<path id="Path 668" class="s21" d="m220 622l4-2 4 1 1 5h-6z"/>
		<path id="Path 669" class="s51" d="m498 626l5-6h2v8z"/>
		<path id="Path 670" class="s40" d="m505 628v-8h18v12h-9l-1-4z"/>
		<path id="Path 671" class="s15" d="m523 632v-12h4 7l1 8h-6l-4 4z"/>
		<path id="Path 672" class="s11" d="m813 621l2-1 8 6z"/>
		<path id="Path 673" class="s36" d="m215 632v-9l4-2 1 1 3 4 3 5 7 3v4h-8-5z"/>
		<path id="Path 674" class="s38" d="m427 624v-2l12 2v8h-6z"/>
		<path id="Path 675" class="s41" d="m449 623l1-1 5 4-2 3-4-1z"/>
		<path id="Path 676" class="s39" d="m459 626v-4h8l2 8h-2z"/>
		<path id="Path 677" class="s42" d="m417 626l2-3 8 1 6 8-2 17-6 1-2-2z"/>
		<path id="Path 678" class="s39" d="m439 624l10-1v5l4 1-1 6-4 1h-6l-3-4z"/>
		<path id="Path 679" class="s21" d="m618 627l8-4 9 15h6l3 5v10h-2l-9-5-4-1v-7l-11-4z"/>
		<path id="Path 680" class="s58" d="m92 630l8-6 19 2v3l-10 1-6 6h-7z"/>
		<path id="Path 681" class="s35" d="m119 626l4-2h6l4 4v4h-12l-2-3z"/>
		<path id="Path 682" class="s78" d="m682 637v-13l6 10v2l-3 1z"/>
		<path id="Path 683" class="s35" d="m141 628l18-2h8l5 4h9 16l4 4 14-2 5 6-3 4h-10l-21-2-14-6-27-2h-4z"/>
		<path id="Path 684" class="s37" d="m233 634l-7-3-3-5h6l6 2v6z"/>
		<path id="Path 685" class="s38" d="m409 636v-10h8l6 22h-6v-8z"/>
		<path id="Path 686" class="s32" d="m453 629l2-3h4l8 4v4l-12 1h-3z"/>
		<path id="Path 687" class="s7" d="m493 631l3-5h2l7 2h8l1 4-2 5-19-1z"/>
		<path id="Path 688" class="s1" d="m606 636l1-7 6-3 5 1v9l-1 3-4-1z"/>
		<path id="Path 689" class="s11" d="m834 631l-11-5 9 1 4 4z"/>
		<path id="Path 690" class="s32" d="m251 636l1-9 5 5 4-1 1 6-1 3h-7z"/>
		<path id="Path 691" class="s4" d="m915 628v-1l2 3z"/>
		<path id="Path 692" class="s3" d="m72 639l-9-11 9 6z"/>
		<path id="Path 693" class="s37" d="m79 642l3-6-3-8h5l4 2 1 10-6 4h-1l-2-1z"/>
		<path id="Path 694" class="s34" d="m133 632v-4h8v4z"/>
		<path id="Path 695" class="s14" d="m915 640v-12l2 2v9z"/>
		<path id="Path 696" class="s66" d="m92 630l4 6h7l6-6 10-1 2 3h12 8 4l4 18h-17l-16-3-9-1h-1l-17-2v-4l-1-10h3z"/>
		<path id="Path 697" class="s46" d="m261 631l5-2 7 6v2l-1 2-10-2z"/>
		<path id="Path 698" class="s22" d="m273 635l1-5 4-1 7 7h4v8l-6-2-10-5z"/>
		<path id="Path 699" class="s28" d="m467 634v-4h2 8v4z"/>
		<path id="Path 700" class="s27" d="m477 634v-4l16 1v5h-6z"/>
		<path id="Path 701" class="s0" d="m856 638l-22-7h2z"/>
		<path id="Path 702" class="s29" d="m149 650l-4-18 27 2 14 6 21 2h10l3-4h5l4 8v4l-8 5v4l-5 1-18-3-14-1-2-1-17-1-1-2-7 1-4-1h-1z"/>
		<path id="Path 703" class="s52" d="m289 636l3-4h18l2 3 9 1 3-4h21l3 15-1 1-24 1-5-3-7 2-9-3-13-1z"/>
		<path id="Path 704" class="s15" d="m431 649l2-17h6l3 4-3 3 2 3v6h-2z"/>
		<path id="Path 705" class="s32" d="m512 637l2-5h9 2v4l-3 3z"/>
		<path id="Path 706" class="s79" d="m525 636h10l2-4h18l5 11v9l-6 1-4-1-15-1-15 1-6 1-2-7h9l1-7z"/>
		<path id="Path 707" class="s79" d="m233 638v-4h2l16 2 3 4h7l1-3 10 2 1 5-1 2-22-3-3-3h-12z"/>
		<path id="Path 708" class="s80" d="m455 635l12-1h10l10 2-2 10 4 3v7l-28 2h-8l-1-10 5-2-4-4z"/>
		<path id="Path 709" class="s33" d="m589 635l2-1 12 1z"/>
		<path id="Path 710" class="s3" d="m688 636v-2l3 5z"/>
		<path id="Path 711" class="s13" d="m448 636l4-1h3l-2 7h-3z"/>
		<path id="Path 712" class="s43" d="m407 640l2-4 8 4v8h-6l-4-2z"/>
		<path id="Path 713" class="s30" d="m441 642l-2-3 3-3h6l2 6z"/>
		<path id="Path 714" class="s37" d="m489 656v-7l-4-3 2-10h6l19 1 10 2-1 7h-9l2 7 1 2 2 2v1l-7-4z"/>
		<path id="Path 715" class="s12" d="m617 639l1-3 11 4v7l-11-6z"/>
		<path id="Path 716" class="s12" d="m685 637l3-1 3 3 3 3-3 2z"/>
		<path id="Path 717" class="s28" d="m272 639l1-2 10 5v4h-5l-5-2z"/>
		<path id="Path 718" class="s16" d="m671 657l11-20h3l6 7v4l5 3 1 3-2 15-5 5-11-6v-4z"/>
		<path id="Path 719" class="s81" d="m229 646l-4-8h8l2 2v6z"/>
		<path id="Path 720" class="s19" d="m618 641l-5-3 4 1z"/>
		<path id="Path 721" class="s0" d="m915 640l2-1-1 7-6 2z"/>
		<path id="Path 722" class="s30" d="m83 644l6-4v4z"/>
		<path id="Path 723" class="s37" d="m235 646v-6h12l3 3-1 15h-10z"/>
		<path id="Path 724" class="s52" d="m403 644v-3l4-1v6h-4z"/>
		<path id="Path 725" class="s0" d="m80 643l-6-2 5 1z"/>
		<path id="Path 726" class="s37" d="m283 642l6 2 13 1-3 12 4 3v6h-4-1l-6 1-2-1v-2l1-10 2-3-10-5z"/>
		<path id="Path 727" class="s79" d="m382 643l1-2 2 3z"/>
		<path id="Path 728" class="s0" d="m872 643l-3-2 3 1z"/>
		<path id="Path 729" class="s36" d="m441 648v-6h9 3l4 4-5 2z"/>
		<path id="Path 730" class="s8" d="m691 644l3-2 1 1 2 4 2 2 4 5 1 1 1 4-7-5-2-3-5-3z"/>
		<path id="Path 731" class="s2" d="m872 643v-1l8 2z"/>
		<path id="Path 732" class="s80" d="m249 658l1-15 22 3 5 2 14 6-1 10-18 2-23-4z"/>
		<path id="Path 733" class="s66" d="m348 647l12 1 5-3 11 2 6-4 3 1 7 3 11-3v2 7l-46 1h-8-2v-6z"/>
		<path id="Path 734" class="s77" d="m560 652v-9h1z"/>
		<path id="Path 735" class="s13" d="m644 653v-10l27 14 8 7v4l-12-4-10-7h-6-1z"/>
		<path id="Path 736" class="s11" d="m650 656h1v1h-1z"/>
		<path id="Path 737" class="s0" d="m106 646l-24-2h1 6z"/>
		<path id="Path 738" class="s36" d="m272 646l1-2 5 2-1 2z"/>
		<path id="Path 739" class="s0" d="m886 646l-4 1-1-3z"/>
		<path id="Path 740" class="s81" d="m303 666v-6l-4-3 3-12 9 3 4 4h8 5l5 8-2 7 3 1v2l-19-2z"/>
		<path id="Path 741" class="s32" d="m221 659v-4l8-5v-4h6l4 12-1 4h-1-1l-10-1h-1z"/>
		<path id="Path 742" class="s79" d="m277 648l1-2h5l10 5-2 3z"/>
		<path id="Path 743" class="s79" d="m311 648l7-2 5 3v3h-8z"/>
		<path id="Path 744" class="s35" d="m403 653v-7h4l4 2v6z"/>
		<path id="Path 745" class="s35" d="m323 649l24-1v6h-8l-11-2h-5z"/>
		<path id="Path 746" class="s9" d="m898 648h11l-1 2z"/>
		<path id="Path 747" class="s66" d="m411 654v-6h6 6l2 2-3 4z"/>
		<path id="Path 748" class="s28" d="m431 649l8-1 2 14-1 8-10-3-59-1-2-8h-12v-4l46-1 8 1h11l3-4z"/>
		<path id="Path 749" class="s37" d="m441 662l-2-14h2 11l1 10-8 4z"/>
		<path id="Path 750" class="s11" d="m132 650h17l3 2z"/>
		<path id="Path 751" class="s11" d="m520 652l15-1v1z"/>
		<path id="Path 752" class="s77" d="m535 652v-1l15 1z"/>
		<path id="Path 753" class="s20" d="m697 654l-1-3 2 3z"/>
		<path id="Path 754" class="s30" d="m333 660l-5-8 11 2v6z"/>
		<path id="Path 755" class="s81" d="m339 660v-6h8 2v4l-2 2z"/>
		<path id="Path 756" class="s30" d="m349 658v-4h8v4z"/>
		<path id="Path 757" class="s18" d="m489 656l21-2 7 4h3l3 3 3 5 2-1 4 5v2l-9 10-1 12-3 3h-3l-9-3h-7l-1-3-19-4-1-3h-6l-1-1-11-6v-19z"/>
		<path id="Path 758" class="s13" d="m690 674l5-5 2-15h1l7 5 1 2 5 6v1l-10 11-8-2z"/>
		<path id="Path 759" class="s6" d="m705 659l-1-4 8 11h-1l-5-5z"/>
		<path id="Path 760" class="s33" d="m517 658v-1l3 1z"/>
		<path id="Path 761" class="s11" d="m667 665l-16-8h6l10 7z"/>
		<path id="Path 762" class="s23" d="m238 662l1-4h10v4l-4 1v8l-1 1-1-2-5-7z"/>
		<path id="Path 763" class="s37" d="m347 660l2-2h8 12l2 8h-24z"/>
		<path id="Path 764" class="s16" d="m445 662l8-4h8v19 1l-13-5-4-2z"/>
		<path id="Path 765" class="s11" d="m216 660l5-1 4 2z"/>
		<path id="Path 766" class="s1" d="m334 668l-3-1 2-7h6 8v6l-5 1z"/>
		<path id="Path 767" class="s11" d="m528 665l-2 1-3-5 5 3z"/>
		<path id="Path 768" class="s31" d="m711 667l-5-6 5 5z"/>
		<path id="Path 769" class="s19" d="m237 662h1v1h-1z"/>
		<path id="Path 770" class="s16" d="m245 671v-8l4-1 23 4h3l1 2 2 4h-9l-9-2-9 8-5-4z"/>
		<path id="Path 771" class="s20" d="m440 670l1-8h4l-1 9z"/>
		<path id="Path 772" class="s82" d="m667 664l12 4 11 6 3 3v1l-26-13z"/>
		<path id="Path 773" class="s33" d="m272 666l18-2v2h-15z"/>
		<path id="Path 774" class="s6" d="m528 665v-1l4 6z"/>
		<path id="Path 775" class="s33" d="m276 668l-1-2 2 1z"/>
		<path id="Path 776" class="s33" d="m315 668l-16-2h4z"/>
		<path id="Path 777" class="s33" d="m342 667l5-1h24l59 1z"/>
		<path id="Path 778" class="s83" d="m711 667v-1h1l2 3-3-1z"/>
		<path id="Path 779" class="s54" d="m276 668l1-1 23 15-1 1-21-11z"/>
		<path id="Path 780" class="s12" d="m701 679l10-11 3 1 2 7-3 7-5 1z"/>
		<path id="Path 781" class="s47" d="m716 676l-2-7 3 3 2 4z"/>
		<path id="Path 782" class="s17" d="m251 678l9-8 9 2-4 14 1 8 13 15 8 6 10 1 7-6 7-1h1l2 10 1 3-2 4h2v3l-2 2h-1l-1 1h-1-4-1l-1-1-1 1-3-2-12-7-4-2-3-3-8-8-4-4-1-1v-1l-5-5-5-7-4-6-2-4z"/>
		<path id="Path 783" class="s44" d="m311 731h1v1h-1z"/>
		<path id="Path 784" class="s84" d="m304 731h1v1h-1z"/>
		<path id="Path 785" class="s85" d="m303 731h1v1h-1z"/>
		<path id="Path 786" class="s86" d="m532 672v-2l3 3-1 1z"/>
		<path id="Path 787" class="s53" d="m244 672l1-1 1 3v1z"/>
		<path id="Path 788" class="s48" d="m311 709l-7 1-7 6-10-1-8-6-13-15-1-8 4-14h9l21 11 10 14 1 3z"/>
		<path id="Path 789" class="s16" d="m519 697l3-3 1-12 9-10 2 2 5 9-2 17-16-1z"/>
		<path id="Path 790" class="s11" d="m719 676l-2-4 5 7z"/>
		<path id="Path 791" class="s0" d="m461 680l-13-7 13 5z"/>
		<path id="Path 792" class="s2" d="m534 674l1-1 10 15-6-5z"/>
		<path id="Path 793" class="s54" d="m246 675v-1l5 4 1 4h-1z"/>
		<path id="Path 794" class="s23" d="m713 683l3-7h3l3 3v6l-3 1h-5z"/>
		<path id="Path 795" class="s87" d="m461 678v-1l11 6-11-3z"/>
		<path id="Path 796" class="s88" d="m693 678v-1l8 2 7 5v1z"/>
		<path id="Path 797" class="s11" d="m719 686l3-1v-6l4 5-7 3z"/>
		<path id="Path 798" class="s77" d="m254 686l-3-4h1z"/>
		<path id="Path 799" class="s88" d="m299 683l1-1 6 4 3 11z"/>
		<path id="Path 800" class="s21" d="m537 700l2-17 6 5 2 10-2 1z"/>
		<path id="Path 801" class="s66" d="m708 684l5-1 1 3h-5l-1-1z"/>
		<path id="Path 802" class="s87" d="m480 687l-7-3h6z"/>
		<path id="Path 803" class="s11" d="m480 687l19 4 1 3v1z"/>
		<path id="Path 804" class="s77" d="m719 687l-10-1h5 5z"/>
		<path id="Path 805" class="s0" d="m500 694h7l5 4-12-3z"/>
		<path id="Path 806" class="s10" d="m512 698l-5-4 9 3v1z"/>
		<path id="Path 807" class="s83" d="m310 700l-1-3 2 3z"/>
		<path id="Path 808" class="s82" d="m516 698v-1h3l2 2v1z"/>
		<path id="Path 809" class="s1" d="m266 703l-3-4 5 5z"/>
		<path id="Path 810" class="s19" d="m521 700v-1l16 1 8-1-4 3z"/>
		<path id="Path 811" class="s61" d="m311 709l-1-9h1l1 9z"/>
		<path id="Path 812" class="s4" d="m268 705l-2-2 2 1z"/>
		<path id="Path 813" class="s69" d="m315 726h-2l2-4z"/>
		<path id="Path 814" class="s76" d="m299 730h-4l-7-7 12 7z"/>
		<path id="Path 815" class="s61" d="m313 731l2-2-1 4h-2v-1z"/>
		<path id="Path 816" class="s83" d="m300 732l-1-2h1z"/>
		<path id="Path 817" class="s0" d="m300 732v-2l3 2v1h-2z"/>
		<path id="Path 818" class="s89" d="m312 731h1v1h-1z"/>
		<path id="Path 819" class="s83" d="m303 732h1v1h-1z"/>
		<path id="Path 820" class="s76" d="m304 732h1v1h-1z"/>
		<path id="Path 821" class="s50" d="m305 732h1v1h-1z"/>
		<path id="Path 822" class="s19" d="m306 733v-1h4v1z"/>
		<path id="Path 823" class="s87" d="m310 732h1v1h-1z"/>
		<path id="Path 824" class="s84" d="m311 732h1v1h-1z"/>
	</g>
</svg>