<svg version="1.2" xmlns="http://www.w3.org/2000/svg" viewBox="0 0 1000 1000" width="1000" height="1000">
	<title>Carpiodes_cyprinus</title>
	<style>
		.s0 { opacity: .5;fill: #c8c6c1 } 
		.s1 { opacity: .3;fill: #c1bec2 } 
		.s2 { opacity: 1;fill: #7b746f } 
		.s3 { opacity: .8;fill: #cdcab4 } 
		.s4 { opacity: 1;fill: #52544f } 
		.s5 { opacity: 1;fill: #4f4c46 } 
		.s6 { opacity: .2;fill: #7c7e67 } 
		.s7 { opacity: .8;fill: #aea8a8 } 
		.s8 { opacity: .6;fill: #a8a6a8 } 
		.s9 { opacity: 1;fill: #656965 } 
		.s10 { opacity: .3;fill: #9aaba1 } 
		.s11 { opacity: .3;fill: #e0dfe0 } 
		.s12 { opacity: 1;fill: #898781 } 
		.s13 { fill: #c3c4c8 } 
		.s14 { opacity: 1;fill: #6d7574 } 
		.s15 { opacity: .2;fill: #e0e1e2 } 
		.s16 { opacity: .8;fill: #d8dadd } 
		.s17 { opacity: 1;fill: #5a5d57 } 
		.s18 { opacity: 1;fill: #5f5d54 } 
		.s19 { fill: #adaaac } 
		.s20 { opacity: 1;fill: #72695a } 
		.s21 { opacity: .5;fill: #e0e1e1 } 
		.s22 { opacity: 1;fill: #7a786d } 
		.s23 { opacity: .3;fill: #928e88 } 
		.s24 { opacity: .6;fill: #6f716d } 
		.s25 { fill: #9ca7b2 } 
		.s26 { fill: #86949f } 
		.s27 { fill: #9b9ea1 } 
		.s28 { fill: #7c8b91 } 
		.s29 { fill: #90a4ba } 
		.s30 { fill: #afb2ba } 
		.s31 { fill: #a2b8d2 } 
		.s32 { fill: #7493ac } 
		.s33 { opacity: .3;fill: #455c59 } 
		.s34 { opacity: 1;fill: #3f413f } 
		.s35 { opacity: 1;fill: #393a3a } 
		.s36 { fill: #b1bac7 } 
		.s37 { fill: #7f9db9 } 
		.s38 { fill: #708189 } 
		.s39 { fill: #919590 } 
		.s40 { fill: #bdbab5 } 
		.s41 { opacity: .3;fill: #d3cc99 } 
		.s42 { fill: #c7c9d3 } 
		.s43 { fill: #b7c3d8 } 
		.s44 { fill: #b0bed3 } 
		.s45 { fill: #423f3a } 
		.s46 { opacity: 1;fill: #6b879e } 
		.s47 { fill: #b2a29b } 
		.s48 { fill: #cdd1e0 } 
		.s49 { fill: #b3b5a1 } 
		.s50 { fill: #c3cbdc } 
		.s51 { opacity: 1;fill: #46433d } 
		.s52 { opacity: 1;fill: #60758b } 
		.s53 { fill: #d3d3da } 
		.s54 { fill: #98b4d0 } 
		.s55 { opacity: 1;fill: #9f958f } 
		.s56 { fill: #8dadcb } 
		.s57 { opacity: 1;fill: #8c6b4a } 
		.s58 { fill: #cec6bf } 
		.s59 { opacity: 1;fill: #7ca6c8 } 
		.s60 { opacity: 1;fill: #a28f80 } 
		.s61 { fill: #d8d9e3 } 
		.s62 { fill: #83a8c9 } 
		.s63 { opacity: 1;fill: #92806c } 
		.s64 { fill: #aabfd7 } 
		.s65 { fill: #dfe0ea } 
		.s66 { opacity: 1;fill: #383836 } 
		.s67 { opacity: .3;fill: #af81b2 } 
		.s68 { opacity: 1;fill: #aa8168 } 
		.s69 { opacity: .7;fill: #8a908b } 
		.s70 { opacity: .2;fill: #b9576f } 
		.s71 { opacity: 1;fill: #98714b } 
		.s72 { opacity: .8;fill: #8e8362 } 
		.s73 { opacity: 1;fill: #cfa579 } 
		.s74 { opacity: 1;fill: #695c4c } 
		.s75 { opacity: 1;fill: #a08a8b } 
		.s76 { opacity: 1;fill: #c67ca3 } 
		.s77 { opacity: .4;fill: #5cb789 } 
		.s78 { opacity: 1;fill: #b856a3 } 
		.s79 { opacity: .4;fill: #c2cc1c } 
		.s80 { opacity: .6;fill: #b52388 } 
		.s81 { opacity: .7;fill: #9e39ba } 
	</style>
	<g id="Background">
		<path id="Path 0" class="s0" d="m581 244v-2h6l-3 8-7 3 8-7v-3z"/>
		<path id="Path 1" class="s1" d="m856 478h1v1h-1z"/>
		<path id="Path 2" class="s2" d="m581 244l4-1v3l-8 7-8 5v-5l1-2 3-2 7-5z"/>
		<path id="Path 3" class="s3" d="m573 249l2-4 5-1z"/>
		<path id="Path 4" class="s3" d="m570 250l3-1-3 2z"/>
		<path id="Path 5" class="s0" d="m543 270l27-20v1l-1 2-10 7-15 10z"/>
		<path id="Path 6" class="s4" d="m559 260l10-7v5l-7 5h-1z"/>
		<path id="Path 7" class="s5" d="m544 270l15-10 2 3-4 5-5 4-1 1-8 5-7 5-3-3 3-3z"/>
		<path id="Path 8" class="s6" d="m557 268l4-5h1z"/>
		<path id="Path 9" class="s7" d="m536 275l7-5h1l-8 7z"/>
		<path id="Path 10" class="s3" d="m530 280l6-5v2l-3 3-3 1z"/>
		<path id="Path 11" class="s0" d="m523 285l7-5v1l-6 4z"/>
		<path id="Path 12" class="s4" d="m530 281l3-1 3 3-7 6-6 2-1-3 2-3z"/>
		<path id="Path 13" class="s8" d="m519 289l4-4h1l-2 3z"/>
		<path id="Path 14" class="s9" d="m519 289l3-1 1 3-1 2-6 5-5 3-2-3v-1l2-1 2-2z"/>
		<path id="Path 15" class="s10" d="m523 291l6-2-7 4z"/>
		<path id="Path 16" class="s11" d="m504 301l5-4v1z"/>
		<path id="Path 17" class="s12" d="m504 301l5-3 2 3v2l-2 2-4 4-2 2h-2l-2-3v-2l2-2 2-2z"/>
		<path id="Path 18" class="s10" d="m511 301l5-3-5 5z"/>
		<path id="Path 19" class="s13" d="m492 311l7-5v2l-3 3-3 1z"/>
		<path id="Path 20" class="s14" d="m496 311l3-3 2 3-3 3z"/>
		<path id="Path 21" class="s3" d="m479 322l13-11 1 1-14 11z"/>
		<path id="Path 22" class="s5" d="m493 312l3-1 2 3-16 17-11 12-4 5v1l-2 3-1 1-2 2-2 2-1 1-3 1-8-8 9-10 9-8 6-4 7-6z"/>
		<path id="Path 23" class="s15" d="m498 314l3-3h2l-21 21v-1z"/>
		<path id="Path 24" class="s16" d="m472 327l7-5v1l-7 6z"/>
		<path id="Path 25" class="s11" d="m465 333l7-6v2l-6 4z"/>
		<path id="Path 26" class="s1" d="m471 343l11-12v1z"/>
		<path id="Path 27" class="s0" d="m456 341l9-8h1l-9 8z"/>
		<path id="Path 28" class="s8" d="m443 354l1-4 12-9h1l-9 10z"/>
		<path id="Path 29" class="s4" d="m443 354l5-3 8 8-1 3-3 3-4 6-1 4-3 7v2l-2 4v2l-2 5v3 9 2l2 5 3 6 4 6 1 5-6 5-6-3v-8l-4-4-7-1v-7l-11-8-1-11 1-9 7-8 5-6v-1l13-13z"/>
		<path id="Path 30" class="s8" d="m441 356l2-2-2 3z"/>
		<path id="Path 31" class="s0" d="m428 370v-3l13-11v1z"/>
		<path id="Path 32" class="s10" d="m456 359l3-1-4 4z"/>
		<path id="Path 33" class="s10" d="m448 371l4-6-3 6z"/>
		<path id="Path 34" class="s8" d="m423 376l5-5-5 6z"/>
		<path id="Path 35" class="s1" d="m447 375l1-4h1z"/>
		<path id="Path 36" class="s0" d="m403 396l20-20v1l-7 8-7 7-5 4z"/>
		<path id="Path 37" class="s17" d="m409 392l7-7-1 9z"/>
		<path id="Path 38" class="s18" d="m404 396l5-4 6 2 1 11 11 8v7l-2 12-30-6v-4l-11-8 7-8 7-5z"/>
		<path id="Path 39" class="s8" d="m398 401l5-5h1z"/>
		<path id="Path 40" class="s8" d="m391 406l2-4 5-1z"/>
		<path id="Path 41" class="s19" d="m382 413l9-7-7 8h-2z"/>
		<path id="Path 42" class="s8" d="m371 426l11-13v1l-9 12h-1z"/>
		<path id="Path 43" class="s20" d="m373 426l9-12h2l11 8v4l-2 6h-16z"/>
		<path id="Path 44" class="s1" d="m445 420l-3-6 5 6z"/>
		<path id="Path 45" class="s17" d="m425 432l2-12 7 1 4 4v8l6 3-2 4h4l20-1h1l10 5 10 5 4 2h1l7 3 3 2h1l8 3 3 2h1l7 3 5 2 4 3v7h-11l-9-7-21-1-25-6h-7l-1 4-20-5v-12l-6-2-6-7z"/>
		<path id="Path 46" class="s8" d="m449 426l-4-6h2l2 4z"/>
		<path id="Path 47" class="s11" d="m449 426v-2l3 8-8 6 2 1v1h-4l2-4 6-5z"/>
		<path id="Path 48" class="s21" d="m361 438l10-12h1z"/>
		<path id="Path 49" class="s22" d="m361 438l11-12h1l4 6h16l2 10v10l-6 2-22-2-4 3h-25l-7-3-3-1v-7h3l8-1 7-1 9-2 4-1z"/>
		<path id="Path 50" class="s9" d="m393 432l2-6 30 6v8l6 7 6 2v12l-14-2-1-3h-5l-2-3h-6l-5-11h-9z"/>
		<path id="Path 51" class="s1" d="m446 439l16-3 4 3-20 1z"/>
		<path id="Path 52" class="s8" d="m331 444l8-2v1z"/>
		<path id="Path 53" class="s23" d="m339 443v-1h7z"/>
		<path id="Path 54" class="s2" d="m395 452v-10h9l5 11z"/>
		<path id="Path 55" class="s7" d="m316 446l8-2-5 2z"/>
		<path id="Path 56" class="s12" d="m319 446l5-2h4v7l3 1-2 9-10-1z"/>
		<path id="Path 57" class="s6" d="m299 447l7-1-1 2h-4-2z"/>
		<path id="Path 58" class="s22" d="m305 448l1-2h10 3v14h-10l-4-4z"/>
		<path id="Path 59" class="s1" d="m294 449l5-2v1z"/>
		<path id="Path 60" class="s22" d="m294 449l5-1h2v8 2l-9 6-7-6v-6-1h3l3-2z"/>
		<path id="Path 61" class="s20" d="m301 456v-8h4v8z"/>
		<path id="Path 62" class="s24" d="m274 454l11-3v1z"/>
		<path id="Path 63" class="s20" d="m274 454l11-2v6l-7 8-5-2-6 2h-7l-2-7 4-2z"/>
		<path id="Path 64" class="s25" d="m319 460l10 1 2-9 7 3v8l11 8 1 9-3 12h-8l-1-1-3-7-8 1h-5l-1-1-2-7h-4l-1 3h-9l-10-2-5-5 2-9 9-6 3 5 5-3z"/>
		<path id="Path 65" class="s26" d="m363 455l4-3 22 2 4 12-2 8h-16-6z"/>
		<path id="Path 66" class="s12" d="m389 454l6-2 14 1h6l2 3 1 5-1 7-10 4-14-6z"/>
		<path id="Path 67" class="s27" d="m338 455h25l6 19v6 6l-8 2-3-8h-8l-1-9-11-8z"/>
		<path id="Path 68" class="s12" d="m301 458v-2h4l4 4-5 3z"/>
		<path id="Path 69" class="s22" d="m418 461l-1-5h5l1 3z"/>
		<path id="Path 70" class="s26" d="m267 466l6-2 5 2 7-8 7 6-2 9-11 5-8-2z"/>
		<path id="Path 71" class="s22" d="m251 461l4-2h3l2 7h7l4 10-2 2-11-2-5 9-5 1-1 6-11-1-4 8h-3l-5-4-6 10h-4l-3-8v-7h6l2-7h5l2-7 1-2 6-3 7-5h1l9-5z"/>
		<path id="Path 72" class="s28" d="m418 461l5-2 14 2 20 5 14 8v6l-6 3-36-3-12-12z"/>
		<path id="Path 73" class="s7" d="m241 466l2-4 7-1z"/>
		<path id="Path 74" class="s18" d="m457 466l1-4h7l25 6 21 1 9 7h11 5l8 8h14l1-3h3l7 3 5 2 1 2-4 3v10l-25-5-12-1-2-4h-10l-3-3-3-6h-4l-41-8z"/>
		<path id="Path 75" class="s7" d="m233 471l2-4 5-1z"/>
		<path id="Path 76" class="s29" d="m391 474l2-8 14 6 10-4 12 12 36 3 5 12h8l9 7h7l1-4h9l7 4 1 8 9 5v7l-14 2-14-6h-5l-3 4-8-5v-3l-6-3-4-3h-10l-9-4h-5l-4-7h-6l-2-5h-12l-2-6-6-1-3-5-8 1-7-1z"/>
		<path id="Path 77" class="s21" d="m531 469l-4-3 7 3z"/>
		<path id="Path 78" class="s4" d="m531 476v-7h3l3 2-1 5z"/>
		<path id="Path 79" class="s7" d="m227 473l6-2-6 3z"/>
		<path id="Path 80" class="s17" d="m536 476l1-5 14 5 6 3 2 2-1 3h-14z"/>
		<path id="Path 81" class="s8" d="m224 476l3-3v1l-1 2z"/>
		<path id="Path 82" class="s30" d="m279 478l11-5 5 5 10 2v10l-6 4h-7l-2 4h-11z"/>
		<path id="Path 83" class="s31" d="m369 480v-6h6v6z"/>
		<path id="Path 84" class="s27" d="m375 480v-6h16l2 6v6l-3 3h-6z"/>
		<path id="Path 85" class="s32" d="m471 480v-6l41 8-3 3 2 5 8-2 3 3h10l2 4 12 1-1 14-10 4-11-12h-13l-7-4h-9l-11-13h-9z"/>
		<path id="Path 86" class="s25" d="m232 499l4-8 11 1 1-6 5-1 5-9 11 2 2-2 8 2v20l-9 2-14 14-20-1-2-7 1-6z"/>
		<path id="Path 87" class="s20" d="m219 479l4-3h1 2l-2 7h-5v-3z"/>
		<path id="Path 88" class="s30" d="m314 480l1-3h4l2 7h-6z"/>
		<path id="Path 89" class="s1" d="m857 478l8-1v1z"/>
		<path id="Path 90" class="s33" d="m865 478v-1h8v1z"/>
		<path id="Path 91" class="s1" d="m873 478v-1l3 1v1h-1z"/>
		<path id="Path 92" class="s27" d="m857 479v-1h8l-8 2z"/>
		<path id="Path 93" class="s34" d="m857 480l8-2h8l2 1v3l-2 3-3 4-3 4-3 2-1 1-7 4-3-2v-9l4-4z"/>
		<path id="Path 94" class="s1" d="m216 481l3-2v1z"/>
		<path id="Path 95" class="s1" d="m559 481l-2-2 5 2z"/>
		<path id="Path 96" class="s1" d="m846 481l5-2v1z"/>
		<path id="Path 97" class="s6" d="m851 480v-1h4z"/>
		<path id="Path 98" class="s35" d="m851 480l4-1h1 1v1 5l-4 4v9l3 2v1l-2 2-2 2-3 3-2 2v1h-1l-8-1-8 5-20 1-5-5v-6l8-9-1-6 6-2 11-4 3-1h1l7-2h6z"/>
		<path id="Path 99" class="s33" d="m875 482v-3h1v3z"/>
		<path id="Path 100" class="s28" d="m216 481l3-1v3l-2 7h-6l-1-3 3-4z"/>
		<path id="Path 101" class="s36" d="m305 490v-10h9l1 4v4l-8 3z"/>
		<path id="Path 102" class="s36" d="m347 492l3-12h8l3 8v6l-4 2v4h-4z"/>
		<path id="Path 103" class="s30" d="m369 486v-6h6l9 9h6v9 2h-7-6l-8-7z"/>
		<path id="Path 104" class="s25" d="m393 486v-6l7 1-4 5z"/>
		<path id="Path 105" class="s27" d="m400 481l8-1 3 5 6 1 2 6-2 8h-5l-4 6h-3l-2-4v-6l-6-5-1-5z"/>
		<path id="Path 106" class="s37" d="m465 483l6-3 4 5h9l11 13-1 4h-7l-9-7h-8z"/>
		<path id="Path 107" class="s1" d="m212 483l4-2-3 2z"/>
		<path id="Path 108" class="s38" d="m519 488l-8 2-2-5 3-3h4z"/>
		<path id="Path 109" class="s21" d="m826 484l6-1-3 1z"/>
		<path id="Path 110" class="s39" d="m873 485l2-3v1 1l-1 1z"/>
		<path id="Path 111" class="s1" d="m874 484h1v1h-1z"/>
		<path id="Path 112" class="s23" d="m875 482h1v1h-1z"/>
		<path id="Path 113" class="s3" d="m193 497l19-14h1l-3 4-8 6-4 2z"/>
		<path id="Path 114" class="s1" d="m875 483h1v1h-1z"/>
		<path id="Path 115" class="s40" d="m315 488v-4h6l1 1-1 3z"/>
		<path id="Path 116" class="s40" d="m327 485l8-1 3 7-9 1z"/>
		<path id="Path 117" class="s9" d="m819 486l7-2h3l-11 4z"/>
		<path id="Path 118" class="s41" d="m668 646h1v1h-1z"/>
		<path id="Path 119" class="s42" d="m315 488h6l1-3h5l2 7 9-1 1 1 2 8h12 4l6 6 8-2h6 6v1 9l3 4-2 5-14 9-7 18-6 2-8-15-26-1v-15l-6-3v-8l-7-1-5-5v-4l2-9z"/>
		<path id="Path 120" class="s40" d="m870 489l3-4h1l-2 4z"/>
		<path id="Path 121" class="s43" d="m361 488l8-2v7l8 7v4h-6v-6l-10-4z"/>
		<path id="Path 122" class="s44" d="m390 489l3-3h3l1 5 6 5v6h-8l-1-4h-4z"/>
		<path id="Path 123" class="s0" d="m575 488l-1-2 8 1 7 5v1h-3z"/>
		<path id="Path 124" class="s1" d="m806 491l13-5-1 2-6 2-5 1z"/>
		<path id="Path 125" class="s20" d="m202 493l8-6 1 3v7h-8v-1z"/>
		<path id="Path 126" class="s4" d="m571 501v-10l4-3 11 5-1 11h-6l-8-2z"/>
		<path id="Path 127" class="s1" d="m867 493l3-4h2z"/>
		<path id="Path 128" class="s13" d="m299 494l6-4 2 1-2 9h-6z"/>
		<path id="Path 129" class="s45" d="m807 491l5-1 1 6-8 9v6l5 5 20-1 8-5 8 1-4 7-3 4-7 8-4 3-7 5-9 5-2 1-6 2-3-4-23 2-3 4-6 1v10l-8 2v7h-16l-7 5-15-1v-7l16-13 2-17 17-14 17-5 8-15 18-8h1z"/>
		<path id="Path 130" class="s1" d="m797 493l6-2-1 2h-1z"/>
		<path id="Path 131" class="s39" d="m802 493l1-2h3 1z"/>
		<path id="Path 132" class="s13" d="m353 500h-12l-2-8h8z"/>
		<path id="Path 133" class="s30" d="m417 500l2-8h12l2 5v9l-10 2-6-3z"/>
		<path id="Path 134" class="s8" d="m589 493v-1l3 2z"/>
		<path id="Path 135" class="s27" d="m198 495l4-2 1 3z"/>
		<path id="Path 136" class="s5" d="m585 504l1-11h3l3 1h2l3 2 5 4 1 15-12-1v-5z"/>
		<path id="Path 137" class="s39" d="m788 496l9-3h4l-18 8h-3v-1l1-1 1-1z"/>
		<path id="Path 138" class="s36" d="m290 498l2-4h7v6 4h-5z"/>
		<path id="Path 139" class="s13" d="m357 500v-4l4-2 10 4v6l-8 2z"/>
		<path id="Path 140" class="s18" d="m193 497l5-2 5 1v1l-2 12-4 3v9 3l-2 6-4 1-3-5-5 1-4-1v-6l4-3-3-9 3-4 4-3h1z"/>
		<path id="Path 141" class="s26" d="m218 505l6-10 5 4v7l-3 5-5 1z"/>
		<path id="Path 142" class="s46" d="m545 510l1-14 25 5v1l1 11-1 9h-11l-3-7h-7z"/>
		<path id="Path 143" class="s21" d="m602 500l-5-4 10 5z"/>
		<path id="Path 144" class="s1" d="m856 500l7-4-7 6v-1z"/>
		<path id="Path 145" class="s12" d="m201 509l2-12h8l3 8-7 9z"/>
		<path id="Path 146" class="s36" d="m423 508l10-2v-9h6l4 7h5l3 14-3 11-6 1-9-2v-6l-8-2-2-4z"/>
		<path id="Path 147" class="s13" d="m256 514l14-14 9-2h11l4 6-6 14-31 2z"/>
		<path id="Path 148" class="s47" d="m390 500v-2h4l1 4-5 1z"/>
		<path id="Path 149" class="s29" d="m229 506v-7h3l3 1-1 6z"/>
		<path id="Path 150" class="s1" d="m776 501l5-2-1 1z"/>
		<path id="Path 151" class="s48" d="m299 504v-4h6v4z"/>
		<path id="Path 152" class="s49" d="m377 504v-4h6v4z"/>
		<path id="Path 153" class="s50" d="m383 504v-4h7v3l-7 2z"/>
		<path id="Path 154" class="s43" d="m408 506l4-6h5v5l6 3v8h-13l-2-4z"/>
		<path id="Path 155" class="s4" d="m603 515l-1-15 5 1 5 4v1l6 7-4 6h-9z"/>
		<path id="Path 156" class="s12" d="m776 501l4-1v1l-23 7 2-2 8-3 7-2z"/>
		<path id="Path 157" class="s51" d="m757 508l23-7h3l-8 15-17 5-17 14-2 17-16 13v7l-5 1-1 5h-4l1-13 4-4v-7h6l4-4 1-12 8-21 5-4 4-2z"/>
		<path id="Path 158" class="s10" d="m854 503l2-2v1z"/>
		<path id="Path 159" class="s13" d="m390 503l5-1h8l2 4v6l-2 9-17-3-3-4v-9z"/>
		<path id="Path 160" class="s37" d="m521 522v-7l-9-5-1-8h13l11 12 10-4 5 5h7l3 7h11l8 1 2 4 18 2 3 5-3 4-13-2-3-4-15 2h-16l-14-8h-11l-2-4z"/>
		<path id="Path 161" class="s52" d="m572 513l-1-11 8 2v9z"/>
		<path id="Path 162" class="s7" d="m173 511l2-4 8-3-3 4z"/>
		<path id="Path 163" class="s53" d="m257 520l31-2 6-14h5 6l5 5 7 1v8l6 3v15l-6 16h-19l-3-4h-6l-2 4h-22v-4l-7-4-6-9-5-3-12 2 1-10 13 1z"/>
		<path id="Path 164" class="s44" d="m451 518l-3-14 9 4v10z"/>
		<path id="Path 165" class="s14" d="m579 513v-9h6l6 5v5l-2 2-10-2z"/>
		<path id="Path 166" class="s54" d="m207 514l7-9h4l3 7v12h-2-12z"/>
		<path id="Path 167" class="s44" d="m226 511l3-5h5l2 7-3 3h-5z"/>
		<path id="Path 168" class="s50" d="m405 512v-6h3v6z"/>
		<path id="Path 169" class="s55" d="m618 513l-6-7 6 5z"/>
		<path id="Path 170" class="s1" d="m746 511l13-5-2 2z"/>
		<path id="Path 171" class="s4" d="m173 511l7-3 3 9-4 3v6h-6l-5-5v-5z"/>
		<path id="Path 172" class="s36" d="m457 518v-10h10l4 3 2 7-2 12h-5z"/>
		<path id="Path 173" class="s56" d="m197 521v-9l4-3 6 5v10l-2 1-5-2z"/>
		<path id="Path 174" class="s7" d="m166 516l2-4 5-1-5 5z"/>
		<path id="Path 175" class="s36" d="m221 512l5-1 2 5h5l-2 8h-10z"/>
		<path id="Path 176" class="s31" d="m473 518l-2-7 6 3v3z"/>
		<path id="Path 177" class="s1" d="m618 513v-2l4 5z"/>
		<path id="Path 178" class="s1" d="m738 514l8-3-4 2z"/>
		<path id="Path 179" class="s15" d="m842 518l4-7h1l-1 5z"/>
		<path id="Path 180" class="s48" d="m403 521l2-9h3l2 4-4 5z"/>
		<path id="Path 181" class="s42" d="m233 516l3-3 20 1 1 6-8 5-13-1-1 10-4 1v3l-9 2-3-4v-6-6h2 10z"/>
		<path id="Path 182" class="s32" d="m571 522l1-9h7v1 9z"/>
		<path id="Path 183" class="s9" d="m614 519l4-6 4 3 6 2 3 1v1 6h-9z"/>
		<path id="Path 184" class="s14" d="m738 514l4-1-5 4-8 1 2-2z"/>
		<path id="Path 185" class="s46" d="m579 523v-9l10 2 2-2 12 1 2 4h9l8 7h9l2 6-1 8h-15l-15-6-3-5-18-2z"/>
		<path id="Path 186" class="s20" d="m162 518l3-2h1 2v5l5 5v10l-6 2-3 5-8 1-3 4h-4-8l-1-8v-3l2-5h1l11-8 4-3 3-2z"/>
		<path id="Path 187" class="s42" d="m406 521l4-5h13l2 4 8 2v6l-10 2-14-2z"/>
		<path id="Path 188" class="s1" d="m722 518l9-2-2 2h-2z"/>
		<path id="Path 189" class="s44" d="m473 518l4-1 8 5 4 11 10 4v7l-4 10-16 2-2-21-6-5z"/>
		<path id="Path 190" class="s5" d="m729 518l8-1-8 21-1 12-4 4h-6l1-6 2-8 4-3v-17l2-2z"/>
		<path id="Path 191" class="s50" d="m357 552l6-2 7-18 14-9 2-5 17 3h3l3 7 14 2 10-2 9 2v12l-10 11-35 5-2 14-6 2h-11l-1 9 13 15-5 5h-5l-3-5h-9l-2-3h-7l-4-7-20-2-12-2v-17l7-7 24 2z"/>
		<path id="Path 192" class="s43" d="m442 530l6-1 3-11h6l9 12h5l6 5 2 21h-7l-8-2-9 8h-17l-11 10-10 2-22-2 2-14 35-5 10-11z"/>
		<path id="Path 193" class="s31" d="m485 522l3-4h5l14 6 14-2h4l2 4-1 8 7 4 1 7 5 6v17l6 4v5l7 7 7 4h32l12 4v8l-8 12-11 13-11 3v-6-6l6-2-2-14-22-2-17-12-15-2-4-4-22 2-20-1-6-9 1-16h7l16-2 4-10v-7l-10-4z"/>
		<path id="Path 194" class="s13" d="m721 519l1-1h5l-2 2z"/>
		<path id="Path 195" class="s1" d="m631 520v-1l6 2z"/>
		<path id="Path 196" class="s1" d="m711 521l8-2v1z"/>
		<path id="Path 197" class="s4" d="m719 520v-1h2l4 1v17l-4 3-2-6z"/>
		<path id="Path 198" class="s14" d="m631 526v-6l6 1h6l4 1h3l5 2v8l-7 2-5-4-10 2z"/>
		<path id="Path 199" class="s17" d="m711 521l8-1v14h-6z"/>
		<path id="Path 200" class="s14" d="m197 524v-3l3 2z"/>
		<path id="Path 201" class="s23" d="m696 522l11-1-11 2z"/>
		<path id="Path 202" class="s18" d="m696 523l11-2h4l2 13v12l-6 2h-2l-2-12h-5l-7-3-8 1-4-2v-6l7-2h5z"/>
		<path id="Path 203" class="s21" d="m655 524l-5-2 9 2z"/>
		<path id="Path 204" class="s0" d="m691 524l5-2v1z"/>
		<path id="Path 205" class="s27" d="m197 524l3-1 5 2 2 4v3l-6 4-4-3-2-3z"/>
		<path id="Path 206" class="s44" d="m205 525l2-1h12v6h-8l-4-1z"/>
		<path id="Path 207" class="s9" d="m655 532v-8h4 5l1 2 1 8-7 2z"/>
		<path id="Path 208" class="s7" d="m665 526l-1-2h6v2z"/>
		<path id="Path 209" class="s3" d="m670 526v-2l6 2z"/>
		<path id="Path 210" class="s3" d="m678 526l8-2-7 2z"/>
		<path id="Path 211" class="s57" d="m173 536v-10h6l4 1-6 9z"/>
		<path id="Path 212" class="s58" d="m183 527l5-1 3 5 3 5 4 4 3 6-12 2h-5l-2-6-5-3v-3z"/>
		<path id="Path 213" class="s54" d="m595 612l8-12v-8l-12-4h-32l-7-4-7-7v-5l-6-4v-17l-5-6-1-7-7-4 1-8h11l14 8h16l10 14h9l2 4 53 6 9 8 4 6v8l4 2-2 14 2 6-2 2-8 2-23 2-17 2z"/>
		<path id="Path 214" class="s4" d="m666 534l-1-8h5 6 2 1v6l-5 3z"/>
		<path id="Path 215" class="s12" d="m207 532v-3l4 1v2z"/>
		<path id="Path 216" class="s20" d="m191 531l4-1 2 3-3 3z"/>
		<path id="Path 217" class="s30" d="m211 532v-2h8v6z"/>
		<path id="Path 218" class="s59" d="m633 532l10-2 5 4 7-2 4 4v10l-20-2-7-4z"/>
		<path id="Path 219" class="s40" d="m133 541l9-9-2 5-3 3-3 1z"/>
		<path id="Path 220" class="s60" d="m201 536l6-4h4l8 4 3 4 6 4 4 15v5l-7 1v7h-2l-5-11-9-7-1-4-7-4-3-6z"/>
		<path id="Path 221" class="s61" d="m235 534l12-2 5 3 6 9 7 4v4l-4 3v16l12 14 10 1 5-5 18 1 8 4 9-2 12 2 1 5 12 4 4 5 16-2h9l3 5h5v12l-5 3-15-4-23 1-4-15-12-2-4-4h-28l-5 4h-9l-1 7 7 7 38 4 5 4v6l-6 3v11l-23-3-3-5-1-11h-10l-1 3h-7l-5-2-2-5 2-22-8-6-10-23-7-4-11 2-5-5-4-15 3-1v-5-3z"/>
		<path id="Path 222" class="s56" d="m568 534l15-2 3 4 13 2 3-4 15 6h15l7 4 20 2 6 7 4 19 8 6 2 22v2h-6-14l-2-6 2-14-4-2v-8l-4-6-9-8-53-6-2-4h-9z"/>
		<path id="Path 223" class="s32" d="m674 535l5-3 4 2v6h-6z"/>
		<path id="Path 224" class="s22" d="m194 536l3-3 4 3-3 4z"/>
		<path id="Path 225" class="s37" d="m683 534l8-1 7 3 2 11 5 1h2v14l-2 8 2 16-10 2-6-32-6-4v-4l-2-8z"/>
		<path id="Path 226" class="s62" d="m659 536l7-2 8 1 3 5 3 8h5v4l6 4 6 32v9l-10 3h-8l-2-22-8-6-4-19-6-7z"/>
		<path id="Path 227" class="s52" d="m713 546v-12h6l2 6-2 8z"/>
		<path id="Path 228" class="s32" d="m698 536h5l2 12-5-1z"/>
		<path id="Path 229" class="s63" d="m164 543l3-5 6-2h4v3l-5 4v6l-5 2z"/>
		<path id="Path 230" class="s48" d="m265 552h22l2-4h6l3 4h19l6-16 26 1 8 15-3 10-24-2-7 7v17l-9 2-8-4-18-1-5 5-10-1-12-14v-16z"/>
		<path id="Path 231" class="s18" d="m137 540l3-3v3z"/>
		<path id="Path 232" class="s53" d="m222 540l9-2v5l-3 1z"/>
		<path id="Path 233" class="s13" d="m167 551l5-2v-6l5-4 5 3 2 6 1 5-1 17-7 1v7l-6-1-6-9-18 2-2-8 4-3v-6-5h4z"/>
		<path id="Path 234" class="s4" d="m134 541l3-1h3l1 8v4l-1 8-7 1v5l5 6-4 5-11 4-2-13-8-1-2-3 4-6 8-7z"/>
		<path id="Path 235" class="s59" d="m685 548h-5l-3-8h6z"/>
		<path id="Path 236" class="s19" d="m123 551l10-10h1z"/>
		<path id="Path 237" class="s51" d="m769 559v-10l6-1 3-4 23-2 3 4-2 2h-1l-7 5-2 2-5 7z"/>
		<path id="Path 238" class="s12" d="m153 548l3-4 8-1 3 8z"/>
		<path id="Path 239" class="s1" d="m804 546l6-2-8 4z"/>
		<path id="Path 240" class="s53" d="m189 548l12-2 7 4 1 4-9 2-10 8-1 21 4 14 4 4h6v7l10 6 1 12-5 5-14 1-8-5h-6v-3l-4-1-2-3v-21l-7-5-3-10h-7l-4 4-1 8-4 2-6-5v-6l4-11 20-2 2 9 5 5h5l4-4v-8l1-8 1-17 4-1z"/>
		<path id="Path 241" class="s46" d="m707 548l6-2 6 2-1 6v7l-4 4-7-3z"/>
		<path id="Path 242" class="s49" d="m141 548h8v5l-8-1z"/>
		<path id="Path 243" class="s42" d="m185 553l-1-5h5v4z"/>
		<path id="Path 244" class="s16" d="m115 557l3-5 5-1-8 7z"/>
		<path id="Path 245" class="s28" d="m140 560l1-8 8 1v6l-4 3z"/>
		<path id="Path 246" class="s61" d="m203 603h-6l-4-4-4-14 1-21 10-8 9-2 9 7 5 11-12 11v9 4z"/>
		<path id="Path 247" class="s64" d="m395 572l22 2 10-2 11-10h17l9-8 8 2-1 16 6 9 20 1v9l-4 2v12l-8 7-2 8-6 4h-8v-24l-3-3-42-11h-8l-3 10-6 2h-10v-9l-8-7v-8z"/>
		<path id="Path 248" class="s1" d="m787 562l5-7-5 8z"/>
		<path id="Path 249" class="s0" d="m108 566l7-9v1l-4 6z"/>
		<path id="Path 250" class="s47" d="m232 564v-5l5 5-2 8z"/>
		<path id="Path 251" class="s34" d="m761 568v-7l8-2 18 3v1 2l-2 9h-15l-7-2z"/>
		<path id="Path 252" class="s52" d="m138 572l-5-6v-5l7-1 5 2 2 8v2z"/>
		<path id="Path 253" class="s65" d="m237 564l11-2 7 4 10 23 8 6-2 22-10 1-6 5-25 5-4-4 4-11 4-14 3-14-2-13z"/>
		<path id="Path 254" class="s32" d="m697 588l10-2-2-16 2-8 7 3-1 13 2 15-4 2v4l-4 1-10-3z"/>
		<path id="Path 255" class="s18" d="m108 566l3-2 2 3-4 13h-9v-2z"/>
		<path id="Path 256" class="s20" d="m225 572v-7l7-1 3 8 2 13-3 14h-5l-4-16v-3z"/>
		<path id="Path 257" class="s6" d="m785 574l2-9v14z"/>
		<path id="Path 258" class="s0" d="m99 578l5-10 4-2-8 12z"/>
		<path id="Path 259" class="s9" d="m109 580l4-13 8 1 2 13v1l-14 2z"/>
		<path id="Path 260" class="s42" d="m147 570l18-2 6 9 6 1h6v8l-4 4h-5l-5-5-2-9-20 2v-6z"/>
		<path id="Path 261" class="s35" d="m738 573l7-5h16l2 4 7 2h15l2 5h1l1 2 8 7 1 2-11 2-2-3-9-1-7 3-6 9-1 18 9 15v5h-4l-11-3h-1l-4-2-4-3v-17z"/>
		<path id="Path 262" class="s58" d="m177 578v-7l7-1-1 8z"/>
		<path id="Path 263" class="s34" d="m723 572l15 1 9 40v17h-4l-6-2-6-11-3-17-3-4h-8l-2-3-2-15h4l1-5z"/>
		<path id="Path 264" class="s63" d="m134 577l4-5h9v6l-4 11h-5z"/>
		<path id="Path 265" class="s53" d="m211 592v-9l12-11h2v8l-2 3-4 4v5z"/>
		<path id="Path 266" class="s43" d="m390 598l-13-15 1-9h11v8l8 7v9z"/>
		<path id="Path 267" class="s45" d="m123 581l11-4 4 12-3 4h-7v-5l-5-6z"/>
		<path id="Path 268" class="s10" d="m98 588l1-10h1v2z"/>
		<path id="Path 269" class="s15" d="m789 581l-1-2 3 2z"/>
		<path id="Path 270" class="s20" d="m98 588l2-8h9v4l-4 10-5 5-7 4-4-4 1-2 6-6 2-2z"/>
		<path id="Path 271" class="s60" d="m223 583l2-3v3z"/>
		<path id="Path 272" class="s44" d="m497 582l22-2 4 4v6l-21 2-5 21 6 3v6 8l-4 4h-18l-12-2-1-6 1-2h8l6-4 2-8 8-7v-12l4-2z"/>
		<path id="Path 273" class="s1" d="m797 588l-8-7h2l7 7z"/>
		<path id="Path 274" class="s22" d="m109 584l14-2 5 6v5 1h-23z"/>
		<path id="Path 275" class="s47" d="m219 592v-5l4-4h2l4 16-2 1z"/>
		<path id="Path 276" class="s64" d="m523 590v-6l15 2 17 12 22 2 2 14-6 2-2-5-10-1-7-4-15-1z"/>
		<path id="Path 277" class="s61" d="m149 600l4-2 1-8 4-4h7l3 10 7 5v21l-10 2-2-5-10-3-4-6z"/>
		<path id="Path 278" class="s48" d="m368 598l-16 2-4-5-12-4-1-5 20 2 4 7h7z"/>
		<path id="Path 279" class="s43" d="m413 596l3-10h8l42 11 3 3v24l-1 2h-10l-1 8-2 3-5 1-7 4-6 3v4h-8l-4-1-4-13 11-5 5-11 5-2v-6l-11-14z"/>
		<path id="Path 280" class="s66" d="m771 638v-5l-9-15 1-18 6-9 7-3 9 1 2 3 11-2 16 13 4 4-1 6 5 8 17 18 4 19-10-1-3-1-9-1h-2l-10-3-3-1h-1l-7-2-11-3-12-5z"/>
		<path id="Path 281" class="s21" d="m798 590l-1-2h1l17 14v1h-1z"/>
		<path id="Path 282" class="s39" d="m135 593l3-4h5v6l-3 3h-5z"/>
		<path id="Path 283" class="s43" d="m503 622v-6l-6-3 5-21 21-2 16 15 15 1 7 4v12 6h-6-7l-1-4-18 2-3-6-9 2z"/>
		<path id="Path 284" class="s58" d="m203 603l8-7v-4h8l8 8-2 14-5 10-6 4-1-12-10-6z"/>
		<path id="Path 285" class="s26" d="m128 594v-1h7v5l-6 2z"/>
		<path id="Path 286" class="s52" d="m711 599v-4l4-2 2 3v5h-4z"/>
		<path id="Path 287" class="s27" d="m100 599l5-5h23l1 6 6-2h5l5 12-6 6-12 4h-12l-1-7z"/>
		<path id="Path 288" class="s65" d="m329 626v-6l-5-4-38-4-7-7 1-7h9l5-4h28l4 4 12 2 4 15-3 3v8z"/>
		<path id="Path 289" class="s30" d="m140 598l3-3 6 5v10h-4z"/>
		<path id="Path 290" class="s50" d="m407 598l6-2 18 1 11 14v6l-5 2-5 11-11 5 4 13-2 1-14 1-12-1v-5l-6-2h-7l-1 6h-20-7l-8-5-25-3v-11l6-3h10l34-2 8 1 2 3h26l3-8h9l6-5v-4l-3-3h-15z"/>
		<path id="Path 291" class="s5" d="m717 601v-5h8l3 4 3 17 6 11-5-1-4-2h-1l-4-2v-9z"/>
		<path id="Path 292" class="s1" d="m88 599l2-2-1 2z"/>
		<path id="Path 293" class="s38" d="m687 600l10-3 10 3v6 12h-2l-7-1-5-2-2-2h-4v-2z"/>
		<path id="Path 294" class="s48" d="m385 603l5-5h7 10l2 10h15l3 3v4l-6 5h-9l-3 8h-26l-2-3-8-1-34 2v-8l3-3 23-1 15 4 5-3z"/>
		<path id="Path 295" class="s9" d="m86 602l2-3h1l4 4-3 8h-3l-2-1z"/>
		<path id="Path 296" class="s19" d="m93 603l7-4 14 14 1 7-2 4h-18l-5-13z"/>
		<path id="Path 297" class="s2" d="m227 600l2-1h5l-4 14-5 1z"/>
		<path id="Path 298" class="s46" d="m707 600l4-1 2 2-1 5h-5z"/>
		<path id="Path 299" class="s28" d="m679 602v-2h8v11h-4v-5z"/>
		<path id="Path 300" class="s4" d="m712 606l1-5h4l6 13v9h-2l-8-3h-2v-2z"/>
		<path id="Path 301" class="s12" d="m81 611l5-9-1 8z"/>
		<path id="Path 302" class="s39" d="m657 604l2-2h14v8l-11-2h-5z"/>
		<path id="Path 303" class="s12" d="m673 610v-8h6l4 4v5l-4-1z"/>
		<path id="Path 304" class="s11" d="m815 603v-1l2 2z"/>
		<path id="Path 305" class="s12" d="m818 607l-4-4h1l2 1 15 12v2z"/>
		<path id="Path 306" class="s12" d="m649 606l8-2v4l-3 2-1 1h-2z"/>
		<path id="Path 307" class="s4" d="m626 608l23-2 2 5 2 7 2 14v3l-1 2-5 2-2 17h-2l-11-2-8-1-7-4-4-8-10-3 1-16 3-2h4l1 10 5 5 12 1 2-11-12-9z"/>
		<path id="Path 308" class="s17" d="m707 618v-12h5l-1 12h-3z"/>
		<path id="Path 309" class="s35" d="m843 658l-4-19-17-18-5-8 1-6 14 11 3 3 13 11 6 5 6 5 2 2 8 8v2l-7 4-6 2z"/>
		<path id="Path 310" class="s27" d="m609 610l17-2-5 8-8 4h-4z"/>
		<path id="Path 311" class="s3" d="m654 610l3-2h5z"/>
		<path id="Path 312" class="s22" d="m81 611l4-1 2 1-2 5h-4v-1-3z"/>
		<path id="Path 313" class="s43" d="m139 616l6-6h4l4 6 4 14h-13z"/>
		<path id="Path 314" class="s44" d="m561 622v-12l10 1 2 5v6z"/>
		<path id="Path 315" class="s25" d="m595 612l14-2v10l-3 2h-8l-10 8v8l3 3h-1l-5-2-4-1-10-2v-7l2-1 11-3z"/>
		<path id="Path 316" class="s41" d="m653 611l1-1v8h-1z"/>
		<path id="Path 317" class="s67" d="m687 613l-8-3 4 1h4z"/>
		<path id="Path 318" class="s47" d="m81 616h4l2-5h3l5 13-1 7-4 3-4-4-3-5-2-3-1-1v-4z"/>
		<path id="Path 319" class="s47" d="m653 618l-2-7h2z"/>
		<path id="Path 320" class="s11" d="m79 613l2-1v3h-2z"/>
		<path id="Path 321" class="s60" d="m225 614l5-1-4 11-5 7-4 2 1 7 1 7 8 1 2-8v-2l21 2 1 4-2 10h-11l-3 4h-11l-1-1-11-1-3-1h-3l-3-1-14-1-9-1h-15l-2-8-22 2v-5l23-7 10-1 5 1 2 6h12l2-6 14-1 5-5 6-4z"/>
		<path id="Path 322" class="s8" d="m79 617v-2h2v1l-1 1z"/>
		<path id="Path 323" class="s36" d="m127 620l12-4 5 14h13 5l2 4-23 7-8-1-6-9z"/>
		<path id="Path 324" class="s48" d="m157 630l-4-14 10 3 2 5 10-2 2 3v5l-3 3-10 1-2-4z"/>
		<path id="Path 325" class="s5" d="m613 620l8-4 12 9-2 11-12-1-5-5z"/>
		<path id="Path 326" class="s11" d="m832 618v-2l5 5h-2z"/>
		<path id="Path 327" class="s10" d="m79 621v-4h1v4z"/>
		<path id="Path 328" class="s30" d="m255 623l6-5 10-1 2 5 5 2 1 6h6l12 2 3 5 23 3 25 3 8 5v2l-39-2-25-2-8-4-18-14h-9z"/>
		<path id="Path 329" class="s67" d="m655 632l-2-14h1l2 14z"/>
		<path id="Path 330" class="s38" d="m711 620l-3-2h3z"/>
		<path id="Path 331" class="s30" d="m113 624l2-4h12v11l6 9v4h-9l-5-4-1-10z"/>
		<path id="Path 332" class="s13" d="m517 622l9-2 3 6 18-2 1 4-3 3v7l-5 1-7 1-1-5h-11l-4-5z"/>
		<path id="Path 333" class="s48" d="m285 624l1-3h10l1 11-12-2z"/>
		<path id="Path 334" class="s22" d="m848 632l-13-11h2l7 6 3 2z"/>
		<path id="Path 335" class="s36" d="m503 630v-8h14v8z"/>
		<path id="Path 336" class="s36" d="m561 628v-6h12v6l-2 1z"/>
		<path id="Path 337" class="s22" d="m591 641l-3-3v-8l10-8h8l-1 16 1 7-4 1-4-2-5-2z"/>
		<path id="Path 338" class="s40" d="m230 628l25-5 2 5-2 4-6 1 1 7-21-2v-6z"/>
		<path id="Path 339" class="s40" d="m90 634l4-3 1-7h18l5 6 1 10-11 6v6l-5-2-2-2-3-3-2-2-3-3z"/>
		<path id="Path 340" class="s61" d="m221 631l5-7 4 4-1 4z"/>
		<path id="Path 341" class="s50" d="m285 630h-6l-1-6h7z"/>
		<path id="Path 342" class="s50" d="m177 630v-5l4 1v3l-2 2z"/>
		<path id="Path 343" class="s64" d="m457 634l1-8h10l1 6-3 2z"/>
		<path id="Path 344" class="s68" d="m250 640l-1-7 6-1 2-4h9l18 14-5 2-10-6-4 1v5h-14z"/>
		<path id="Path 345" class="s40" d="m545 638v-7l3-3h7v10z"/>
		<path id="Path 346" class="s30" d="m555 638v-10h6l10 1v7l-12 2z"/>
		<path id="Path 347" class="s55" d="m179 631l2-2h6l8 5-2 6h-12l-2-6z"/>
		<path id="Path 348" class="s1" d="m848 632l-1-3 8 8h-1z"/>
		<path id="Path 349" class="s8" d="m93 640l-7-10 4 4z"/>
		<path id="Path 350" class="s19" d="m174 633l3-3 2 1v3z"/>
		<path id="Path 351" class="s27" d="m499 634l4-4h14l4 5v7l-4 2-5 1-4-7h-9z"/>
		<path id="Path 352" class="s69" d="m746 632l-3-2h4l4 3h-4z"/>
		<path id="Path 353" class="s10" d="m746 632h1v1h-1z"/>
		<path id="Path 354" class="s19" d="m218 640l-1-7 4-2 8 1v6 2z"/>
		<path id="Path 355" class="s55" d="m466 634l3-2 12 2v4l-15-1z"/>
		<path id="Path 356" class="s70" d="m655 635v-3h1v3z"/>
		<path id="Path 357" class="s10" d="m755 635l-8-2h4z"/>
		<path id="Path 358" class="s63" d="m455 637l2-3h9v3l-3 1z"/>
		<path id="Path 359" class="s12" d="m481 638v-4h18v4z"/>
		<path id="Path 360" class="s55" d="m521 642v-7h11l1 5z"/>
		<path id="Path 361" class="s3" d="m654 637l1-2h1l8 9-4-1z"/>
		<path id="Path 362" class="s0" d="m768 640l-12-5 11 3z"/>
		<path id="Path 363" class="s10" d="m559 638l12-2 10 2z"/>
		<path id="Path 364" class="s71" d="m450 638l5-1 8 1v10h-7l-6-4z"/>
		<path id="Path 365" class="s57" d="m463 638l3-1 15 1h18 9l4 7 5-1h1l1 4-2 10-3 1-16-3-16-4-4 3-8-5h-7v-2z"/>
		<path id="Path 366" class="s17" d="m647 656l2-17 5-2 6 6-5 15-4 2z"/>
		<path id="Path 367" class="s10" d="m860 642l-6-5h1z"/>
		<path id="Path 368" class="s71" d="m265 644v-5l4-1 10 6v8h-2z"/>
		<path id="Path 369" class="s68" d="m443 642l7-4v6z"/>
		<path id="Path 370" class="s10" d="m540 639l5-1h10 4z"/>
		<path id="Path 371" class="s9" d="m606 645l-1-7 10 3 4 8h-6z"/>
		<path id="Path 372" class="s9" d="m768 640l-1-2h4l4 3-6-1z"/>
		<path id="Path 373" class="s60" d="m108 652v-6l11-6 5 4h9l4 6-9 2h-11z"/>
		<path id="Path 374" class="s47" d="m133 644v-4l8 1v5 4h-4z"/>
		<path id="Path 375" class="s55" d="m229 640l-2 8-8-1-1-7z"/>
		<path id="Path 376" class="s7" d="m783 646l-14-6 6 1 12 5z"/>
		<path id="Path 377" class="s23" d="m593 642l-3-1h1z"/>
		<path id="Path 378" class="s57" d="m279 644l5-2 8 4 25 2 5 5v7l6 3 2 1v3l-3 14-4-1-13-6-5-6h-6v-1l-1-2-5-6-5-1-9-6z"/>
		<path id="Path 379" class="s42" d="m383 648l1-6h7l6 2v5z"/>
		<path id="Path 380" class="s40" d="m437 649v-4l6-3 7 2 6 4v4h-4l-11-2z"/>
		<path id="Path 381" class="s10" d="m862 644l-2-2h2z"/>
		<path id="Path 382" class="s15" d="m862 644v-2l9 8-1 2z"/>
		<path id="Path 383" class="s9" d="m655 658l5-15 4 1 4 2 1 1 3 2v1l4 12-17-1z"/>
		<path id="Path 384" class="s63" d="m141 646l22-2 2 8h-6l-18-2z"/>
		<path id="Path 385" class="s63" d="m249 654l2-10h14l12 8 2 8-3 1 6 6-1 1-5-2-8-8h-19z"/>
		<path id="Path 386" class="s60" d="m519 648l-1-4 11 2-2 2z"/>
		<path id="Path 387" class="s72" d="m602 646l4-1 7 4v1z"/>
		<path id="Path 388" class="s68" d="m527 648l2-2 9 1 8 5-1 10h-20l-1-4z"/>
		<path id="Path 389" class="s10" d="m787 647l-4-1h4z"/>
		<path id="Path 390" class="s69" d="m787 647v-1l11 3v1z"/>
		<path id="Path 391" class="s63" d="m328 663l-6-3v-7l-5-5 39 2 1 2v6l-17 1-14 1z"/>
		<path id="Path 392" class="s60" d="m356 650v-2h7v4h-6z"/>
		<path id="Path 393" class="s63" d="m363 652v-4h20l14 1 12 1v6l-5 1-1 1h-15-25z"/>
		<path id="Path 394" class="s27" d="m423 649l2-1 4 1 1 10-2-2-5-1z"/>
		<path id="Path 395" class="s73" d="m456 652v-4h7v2 3h-4z"/>
		<path id="Path 396" class="s71" d="m517 658l2-10h8l-3 10z"/>
		<path id="Path 397" class="s39" d="m409 650l14-1v7h-14z"/>
		<path id="Path 398" class="s63" d="m430 659l-1-10h8l4 1v6l-1 7h-1l-1-1-3-1-1-1z"/>
		<path id="Path 399" class="s23" d="m438 662h1v1h-1z"/>
		<path id="Path 400" class="s23" d="m434 660h1v1h-1z"/>
		<path id="Path 401" class="s69" d="m613 650v-1h6l7 4h-2z"/>
		<path id="Path 402" class="s41" d="m672 650v-1l3 1z"/>
		<path id="Path 403" class="s72" d="m798 650v-1l7 2z"/>
		<path id="Path 404" class="s0" d="m117 652l-10 2-4-4 5 2z"/>
		<path id="Path 405" class="s7" d="m128 652l9-2h4l18 2z"/>
		<path id="Path 406" class="s74" d="m441 656v-6l11 2-2 3z"/>
		<path id="Path 407" class="s26" d="m463 653v-3h7l8 5 1 1-12-1z"/>
		<path id="Path 408" class="s63" d="m676 662l-4-12h3l4 2 5 2 3 2 1 7h-12z"/>
		<path id="Path 409" class="s72" d="m806 652v-1l3 1z"/>
		<path id="Path 410" class="s47" d="m279 660l-2-8h2l9 6-1 2z"/>
		<path id="Path 411" class="s22" d="m357 658v-6h6v6z"/>
		<path id="Path 412" class="s5" d="m441 656l9-1 2-3h4l3 1-4 7v9l-13-5-2-1z"/>
		<path id="Path 413" class="s49" d="m478 655l4-3 16 4v3l-5-1-14-2z"/>
		<path id="Path 414" class="s75" d="m545 662l1-10 6 2v6l-3 3z"/>
		<path id="Path 415" class="s23" d="m626 653l8 1 1 2-11-3z"/>
		<path id="Path 416" class="s0" d="m808 654l-2-2h3z"/>
		<path id="Path 417" class="s10" d="m808 654l1-2 10 3z"/>
		<path id="Path 418" class="s51" d="m455 669v-9l4-7h4l4 2-2 17z"/>
		<path id="Path 419" class="s3" d="m634 654l11 2 2 4-12-4z"/>
		<path id="Path 420" class="s22" d="m235 658l3-4h11v4l-4 3v6l-2-1-7-7z"/>
		<path id="Path 421" class="s1" d="m863 658l7-4-2 5z"/>
		<path id="Path 422" class="s45" d="m465 672l2-17 12 1 14 2-1 26-21-8-3-2z"/>
		<path id="Path 423" class="s6" d="m404 657l5-1h14l5 1z"/>
		<path id="Path 424" class="s47" d="m498 659v-3l16 3v3l-1 1-10-3z"/>
		<path id="Path 425" class="s60" d="m647 660l-2-4h2l4 4z"/>
		<path id="Path 426" class="s3" d="m688 663l-1-7 5 3-3 4z"/>
		<path id="Path 427" class="s6" d="m236 659l-12-1h11z"/>
		<path id="Path 428" class="s5" d="m245 667v-6l4-3h19l8 8h-18l-8 10-2-1h-1z"/>
		<path id="Path 429" class="s73" d="m287 660l1-2 5 1 5 6-1 2z"/>
		<path id="Path 430" class="s6" d="m340 659l17-1h6 25v1z"/>
		<path id="Path 431" class="s10" d="m388 659v-1h15z"/>
		<path id="Path 432" class="s51" d="m492 684l1-26 5 1 5 1v5l4 3-1 21-10-2z"/>
		<path id="Path 433" class="s73" d="m514 659l3-1h7l1 4-10 1-1-1z"/>
		<path id="Path 434" class="s69" d="m651 660l4-2 4 3v1z"/>
		<path id="Path 435" class="s5" d="m506 689l1-21-4-3v-5l10 3 2 6 4 2 7 12 2 3 5 4v4l-5 1h-1-3-1l-5-2-10-2z"/>
		<path id="Path 436" class="s8" d="m659 662v-1l17 1v1l-1 1z"/>
		<path id="Path 437" class="s7" d="m513 663l1-1 1 1v1l4 7-4-2z"/>
		<path id="Path 438" class="s0" d="m515 663l10-1h20l4 1-34 1z"/>
		<path id="Path 439" class="s23" d="m441 664l-2-1h1l2 1z"/>
		<path id="Path 440" class="s23" d="m675 664l1-1h12 1z"/>
		<path id="Path 441" class="s59" d="m330 667v-3l4 4z"/>
		<path id="Path 442" class="s8" d="m466 676l-25-12h1l13 5 10 3 3 2v2z"/>
		<path id="Path 443" class="s3" d="m297 667l1-2 1 2z"/>
		<path id="Path 444" class="s67" d="m247 675l-4-9 2 1z"/>
		<path id="Path 445" class="s51" d="m250 676l8-10h18l5 2 3 5-20 2-10 7-2-1z"/>
		<path id="Path 446" class="s75" d="m281 668l1-1 12 12v3l-10-9z"/>
		<path id="Path 447" class="s3" d="m299 668h6l5 6z"/>
		<path id="Path 448" class="s71" d="m327 681l3-14 4 1 2 1-3 15h-3z"/>
		<path id="Path 449" class="s14" d="m333 684l3-15 9 11-1 5h-10-1z"/>
		<path id="Path 450" class="s23" d="m526 683l-7-12 9 12z"/>
		<path id="Path 451" class="s45" d="m254 682l10-7 20-2 10 9 7 12 2 8v2 4h-5l-6 6-5 6v6l-2 2h-7l-1-1-5-10-3-4v-1l15-2-1-20-6-5-9-1-9 8z"/>
		<path id="Path 452" class="s14" d="m468 676v-2l3 2z"/>
		<path id="Path 453" class="s76" d="m249 678l-1-3 2 1 2 5z"/>
		<path id="Path 454" class="s1" d="m471 677l-5-1h2 3z"/>
		<path id="Path 455" class="s69" d="m471 677v-1l21 8 4 3v1h-4l-1-1-3-1z"/>
		<path id="Path 456" class="s69" d="m258 695l-9-17 3 3 2 1 5 10v3z"/>
		<path id="Path 457" class="s0" d="m294 682v-3l7 8 1 7h-1z"/>
		<path id="Path 458" class="s24" d="m330 684l-7-4 4 1z"/>
		<path id="Path 459" class="s12" d="m528 686l-2-3h2l2 2z"/>
		<path id="Path 460" class="s66" d="m259 692l9-8 9 1 6 5 1 20-15 2-6-9h-1l-3-8z"/>
		<path id="Path 461" class="s70" d="m333 685l-3-1h3z"/>
		<path id="Path 462" class="s1" d="m344 685v2l-10-2z"/>
		<path id="Path 463" class="s47" d="m528 686l2-1 4 5h-1z"/>
		<path id="Path 464" class="s14" d="m496 688v-1l10 2 2 2-5-1h-2z"/>
		<path id="Path 465" class="s10" d="m501 690l-9-2h4z"/>
		<path id="Path 466" class="s23" d="m518 694l-15-4 5 1 10 2z"/>
		<path id="Path 467" class="s33" d="m533 694v-4h1v4z"/>
		<path id="Path 468" class="s1" d="m518 694v-1l5 2z"/>
		<path id="Path 469" class="s19" d="m303 702l-2-8h1z"/>
		<path id="Path 470" class="s1" d="m303 702l-1-8 2 10h-1z"/>
		<path id="Path 471" class="s77" d="m528 695l5-1h1z"/>
		<path id="Path 472" class="s0" d="m262 703l-4-8h1z"/>
		<path id="Path 473" class="s67" d="m268 714l-5-11 6 9v1z"/>
		<path id="Path 474" class="s45" d="m268 713h1v1h-1z"/>
		<path id="Path 475" class="s40" d="m303 708v-4h1l1 1v5h-2z"/>
		<path id="Path 476" class="s1" d="m305 710v-5l1 12h-1z"/>
		<path id="Path 477" class="s51" d="m287 726v-6l5-6 6-6h5v2l2 7v5z"/>
		<path id="Path 478" class="s75" d="m305 717l-2-7h2z"/>
		<path id="Path 479" class="s39" d="m268 714l1-1 3 4h-2l-2-2z"/>
		<path id="Path 480" class="s67" d="m270 718l-2-3 2 2z"/>
		<path id="Path 481" class="s7" d="m270 718v-1h2l5 10-1 1z"/>
		<path id="Path 482" class="s33" d="m305 722v-5h1l-1 17v-5z"/>
		<path id="Path 483" class="s5" d="m287 726l18-4v7l-2 6-14 4h-2l-2-11z"/>
		<path id="Path 484" class="s3" d="m276 728l1-1 1 1 3 7-5-3z"/>
		<path id="Path 485" class="s74" d="m281 735l-3-7h7l2 11z"/>
		<path id="Path 486" class="s74" d="m303 735l2-6v5l-1 1z"/>
		<path id="Path 487" class="s41" d="m288 742l-6-3-1-4 6 4z"/>
		<path id="Path 488" class="s18" d="m289 739l14-4v3l-1 1-3 4-1 1h-3l-1-1-1 1h-1l-1-1z"/>
		<path id="Path 489" class="s53" d="m298 743h1v1h-1z"/>
		<path id="Path 490" class="s58" d="m294 743h1v1h-1z"/>
		<path id="Path 491" class="s78" d="m293 743h1v1h-1z"/>
		<path id="Path 492" class="s79" d="m291 743h1v1h-1z"/>
		<path id="Path 493" class="s80" d="m303 738v-3h1z"/>
		<path id="Path 494" class="s81" d="m288 742l-1-3h2l2 4z"/>
		<path id="Path 495" class="s80" d="m299 743l3-4-2 6h-1v-1z"/>
		<path id="Path 496" class="s15" d="m291 744h1v1h-1z"/>
		<path id="Path 497" class="s21" d="m292 744h1v1h-1z"/>
		<path id="Path 498" class="s80" d="m293 744h1v1h-1z"/>
		<path id="Path 499" class="s21" d="m294 744h1v1h-1z"/>
		<path id="Path 500" class="s8" d="m295 745v-1h3v1z"/>
		<path id="Path 501" class="s21" d="m298 744h1v1h-1z"/>
	</g>
</svg>