<svg version="1.2" xmlns="http://www.w3.org/2000/svg" viewBox="0 0 1000 1000" width="1000" height="1000">
	<title>Carpiodes_carpio</title>
	<style>
		.s0 { opacity: .3;fill: #c6c0c8 } 
		.s1 { fill: #736e7d } 
		.s2 { opacity: .4;fill: #dfdfe1 } 
		.s3 { opacity: .6;fill: #bebabf } 
		.s4 { fill: #9c8c93 } 
		.s5 { opacity: 1;fill: #3e3733 } 
		.s6 { opacity: .8;fill: #b7bbc6 } 
		.s7 { opacity: .2;fill: #e1dfe1 } 
		.s8 { opacity: 1;fill: #484442 } 
		.s9 { opacity: .7;fill: #dddbde } 
		.s10 { opacity: 1;fill: #524d4b } 
		.s11 { opacity: .8;fill: #8a8396 } 
		.s12 { opacity: .5;fill: #dbdadc } 
		.s13 { opacity: 1;fill: #4e4039 } 
		.s14 { fill: #7b6355 } 
		.s15 { fill: #b19c8f } 
		.s16 { opacity: 1;fill: #605552 } 
		.s17 { opacity: 1;fill: #5c4b41 } 
		.s18 { fill: #b4b0c0 } 
		.s19 { opacity: 1;fill: #3b3937 } 
		.s20 { opacity: .3;fill: #a6b5c3 } 
		.s21 { opacity: 1;fill: #979baf } 
		.s22 { fill: #7e839a } 
		.s23 { fill: #5c5751 } 
		.s24 { fill: #937161 } 
		.s25 { fill: #b59368 } 
		.s26 { fill: #decdbd } 
		.s27 { fill: #846f65 } 
		.s28 { fill: #d9c09a } 
		.s29 { opacity: 1;fill: #666469 } 
		.s30 { fill: #896750 } 
		.s31 { fill: #cfb172 } 
		.s32 { opacity: .5;fill: #a1a0a4 } 
		.s33 { fill: #a08166 } 
		.s34 { fill: #cab4a3 } 
		.s35 { opacity: .6;fill: #555e55 } 
		.s36 { opacity: 1;fill: #5c595d } 
		.s37 { fill: #bb9e83 } 
		.s38 { fill: #6f5242 } 
		.s39 { fill: #a68e82 } 
		.s40 { fill: #caaa7f } 
		.s41 { fill: #958786 } 
		.s42 { opacity: 1;fill: #3c3d3e } 
		.s43 { fill: #36302d } 
		.s44 { fill: #d3c0b1 } 
		.s45 { fill: #92773f } 
		.s46 { fill: #af9075 } 
		.s47 { fill: #877f7f } 
		.s48 { fill: #a79c9d } 
		.s49 { fill: #bfbdc7 } 
		.s50 { opacity: 1;fill: #573c2f } 
		.s51 { fill: #c7ab90 } 
		.s52 { fill: #e4d7cf } 
		.s53 { opacity: 1;fill: #6b584c } 
		.s54 { fill: #706660 } 
		.s55 { fill: #c9bdba } 
		.s56 { opacity: 1;fill: #90604e } 
		.s57 { fill: #56694b } 
		.s58 { fill: #978075 } 
		.s59 { fill: #beb2b1 } 
		.s60 { opacity: 1;fill: #a5756c } 
		.s61 { fill: #7b726e } 
		.s62 { opacity: .3;fill: #543730 } 
		.s63 { fill: #bda99d } 
		.s64 { opacity: 1;fill: #303030 } 
		.s65 { opacity: .3;fill: #97a9a2 } 
		.s66 { opacity: 1;fill: #2c2521 } 
		.s67 { fill: #b0a6ac } 
		.s68 { opacity: .4;fill: #6d6d6e } 
		.s69 { opacity: .4;fill: #829092 } 
		.s70 { fill: #e9dfdb } 
		.s71 { fill: #a98ba7 } 
		.s72 { fill: #dad1d3 } 
		.s73 { fill: #d2c8ca } 
		.s74 { fill: #e0dadc } 
		.s75 { fill: #a598a1 } 
		.s76 { opacity: 1;fill: #cfd4dc } 
		.s77 { opacity: .5;fill: #96838d } 
		.s78 { opacity: .7;fill: #736776 } 
		.s79 { opacity: 1;fill: #7c4d39 } 
		.s80 { opacity: .3;fill: #30418d } 
		.s81 { opacity: 1;fill: #1f1717 } 
		.s82 { opacity: .6;fill: #7adad8 } 
		.s83 { opacity: 1;fill: #4a4f6f } 
		.s84 { opacity: .5;fill: #cfb12d } 
		.s85 { opacity: 1;fill: #81c7a1 } 
		.s86 { opacity: .5;fill: #2a24cc } 
		.s87 { opacity: .5;fill: #dee825 } 
		.s88 { opacity: 1;fill: #37c9de } 
		.s89 { opacity: .4;fill: #1fded5 } 
	</style>
	<g id="Background">
		<path id="Path 0" class="s0" d="m379 363h1v1h-1z"/>
		<path id="Path 1" class="s1" d="m486 302h1v1h-1z"/>
		<path id="Path 2" class="s2" d="m496 300l8-1v6l-5 1 4-6h-6z"/>
		<path id="Path 3" class="s3" d="m487 302l9-2h1l-1 2-8 2h-2v-1z"/>
		<path id="Path 4" class="s4" d="m496 302l1-2h6l-4 6-10 7-2 2h-1l13-11z"/>
		<path id="Path 5" class="s5" d="m488 304l8-2 3 2-13 11-4 3-3 4 6-1 5 3v2l-1 6v3l-9 1-3-4-14 2-4-6h-8v-7l12-6 11-6 3-1 5-2h1z"/>
		<path id="Path 6" class="s1" d="m483 306l3-2h2z"/>
		<path id="Path 7" class="s0" d="m477 307l5-1-5 2z"/>
		<path id="Path 8" class="s2" d="m474 309l3-2v1z"/>
		<path id="Path 9" class="s6" d="m463 314l11-5-11 6z"/>
		<path id="Path 10" class="s3" d="m444 322l19-8v1l-12 6-5 1z"/>
		<path id="Path 11" class="s7" d="m482 318l4-3h1l-1 2z"/>
		<path id="Path 12" class="s6" d="m495 316l2-1v5l-6 6h-1v-2z"/>
		<path id="Path 13" class="s8" d="m489 317l3-1h3l-5 8-5-3 1-2z"/>
		<path id="Path 14" class="s5" d="m482 318l4-1v2z"/>
		<path id="Path 15" class="s7" d="m486 319v-2h3z"/>
		<path id="Path 16" class="s9" d="m485 321l-6 1 3-4 4 1z"/>
		<path id="Path 17" class="s10" d="m446 322l5-1v7l-12 6-8-4 6-4z"/>
		<path id="Path 18" class="s11" d="m437 325l7-3h2l-9 4z"/>
		<path id="Path 19" class="s0" d="m433 326l4-1v1z"/>
		<path id="Path 20" class="s3" d="m390 355l18-15 25-14h4l-6 4-41 27z"/>
		<path id="Path 21" class="s12" d="m489 332l1-6h1z"/>
		<path id="Path 22" class="s13" d="m431 330l8 4 12-6h8l4 6 14-2 3 4-7 6-22 1-2 9h-12-9l-7 6h-10l-14 16-7 1v4h-4l-1-6 1-12v-1l4-3z"/>
		<path id="Path 23" class="s10" d="m480 336l9-1v4l-2 6v1l-2 6 1 2 3 8 13 6 1 1 2 7 11-1 11 4 15 7 9 3h1l6 2 7 3-13 11-8 2-13-6 1 5-1 2-9-4-4 5h-2l-6-8-4 1v5l-4 2-1-6-9-4-1-4-6-1-2 4h-4l-1-6-3-1-2-8-18-3-1-24-5-4 2-9 22-1z"/>
		<path id="Path 24" class="s14" d="m515 399h6l1 3-5 2z"/>
		<path id="Path 25" class="s15" d="m498 396l8 1 1 3-6 1z"/>
		<path id="Path 26" class="s10" d="m421 358l7-6h9l-5 13-4 3-6-1z"/>
		<path id="Path 27" class="s16" d="m428 368l4-3 5-13h12l5 4 1 24-6 6v4h-4l-2-6h-9z"/>
		<path id="Path 28" class="s9" d="m502 368l-13-6-3-8 6 8 10 5z"/>
		<path id="Path 29" class="s12" d="m385 360l5-5v2l-4 3z"/>
		<path id="Path 30" class="s17" d="m397 374l14-16h10l1 9 6 1 6 16v4l-5 2v4h-2l-5-1-2-5h-5l1-5-6-1-1 5 4 8-2 1-5-3-1-8-6 1-2-3-3-4v-1z"/>
		<path id="Path 31" class="s18" d="m380 363l5-3h1v1l-8 5v-1l1-1z"/>
		<path id="Path 32" class="s19" d="m378 366l8-5-1 12-6 3h-5-3v-5l2-2 3-1z"/>
		<path id="Path 33" class="s0" d="m373 369l5-4v1l-2 2z"/>
		<path id="Path 34" class="s0" d="m898 369l12-4v1l-5 2h-1z"/>
		<path id="Path 35" class="s20" d="m910 366v-1l16 3v8l-4 5h-1l4-11-5-2z"/>
		<path id="Path 36" class="s21" d="m905 368l5-2 10 2z"/>
		<path id="Path 37" class="s3" d="m502 368v-1l14 7-13-5z"/>
		<path id="Path 38" class="s22" d="m898 369l6-1-9 3h-3l2-2z"/>
		<path id="Path 39" class="s5" d="m895 371l9-3h1 15l5 2-4 11-2 4-5 9h-9l-10-12z"/>
		<path id="Path 40" class="s12" d="m358 372l15-3-2 2-12 1z"/>
		<path id="Path 41" class="s23" d="m516 375l-11 1-2-7 13 5z"/>
		<path id="Path 42" class="s0" d="m887 371l7-2-2 2h-1z"/>
		<path id="Path 43" class="s24" d="m359 372l12-1v5l-2 2-5-1-1 5h-4l-1-8z"/>
		<path id="Path 44" class="s22" d="m881 374l6-3h4l-9 4z"/>
		<path id="Path 45" class="s19" d="m882 375l9-4h1 3v11l10 12-2 8-8 7 1 7-5 4-7 4h8l2 8-15 14-2 2-4 6-1 2h-9v-4l-11-13-20-3-35 6v-7l7-5 17-3 11-7 4-7 17-14 1-10z"/>
		<path id="Path 46" class="s5" d="m877 404l8 3v11l-8 8h-4l-3-4v-13z"/>
		<path id="Path 47" class="s9" d="m348 374l5-2v2z"/>
		<path id="Path 48" class="s11" d="m353 374v-2h5 1l-1 2z"/>
		<path id="Path 49" class="s25" d="m379 376l6-3 1 6h4v-4l4 3v1l-1 4h4l2 3-1 8-1 1-7-1 1 10-3 1-5-3h-1v-9l-6-1v-6l6-3v-4l-3-1z"/>
		<path id="Path 50" class="s26" d="m385 385l4 1v5l-6 1z"/>
		<path id="Path 51" class="s27" d="m340 375l4-1h4 5 5l1 8v1l-4 2-2-2 2-5h-6-1l-8-2z"/>
		<path id="Path 52" class="s28" d="m390 375l7-1-3 4z"/>
		<path id="Path 53" class="s20" d="m516 375v-1l11 5z"/>
		<path id="Path 54" class="s11" d="m840 394l41-20 1 1-28 14-14 7z"/>
		<path id="Path 55" class="s20" d="m329 377l11-2v1h-1l-9 1z"/>
		<path id="Path 56" class="s29" d="m330 377l9-1v3l-5 1-4-2z"/>
		<path id="Path 57" class="s13" d="m339 379v-3h1l8 2-3 4h-5z"/>
		<path id="Path 58" class="s30" d="m369 378l2-2h3l-1 6-2 1-2-2z"/>
		<path id="Path 59" class="s31" d="m373 382l1-6h5v2z"/>
		<path id="Path 60" class="s32" d="m323 379l6-2h1v1l-3 1z"/>
		<path id="Path 61" class="s28" d="m349 378h6l-2 5-5 1z"/>
		<path id="Path 62" class="s28" d="m363 382l1-5 5 1v3l-2 3h-4z"/>
		<path id="Path 63" class="s5" d="m327 379l3-1 4 2-3 4h-4z"/>
		<path id="Path 64" class="s33" d="m339 379l1 3h5l3-4h1l-1 6-1 1-5-1-2 7h-1v-7l-7 1-1-1 3-4z"/>
		<path id="Path 65" class="s26" d="m373 382l6-4 3 1v4l-6 3v6l6 1v9l-6 2v-11l-6 1-2-6 1-3 2-2z"/>
		<path id="Path 66" class="s32" d="m316 380l5-1-5 2z"/>
		<path id="Path 67" class="s8" d="m316 381l5-2h2 4v5l-3 8-3 3-2 1-1-2 1-7-5-2-2-2z"/>
		<path id="Path 68" class="s34" d="m397 383h-4l1-4z"/>
		<path id="Path 69" class="s12" d="m542 386l-15-7 15 6z"/>
		<path id="Path 70" class="s35" d="m307 382l9-2v1l-4 2h-5z"/>
		<path id="Path 71" class="s19" d="m449 390v-4l6-6 18 3 2 8-5-3-12 3h-1l-4 3z"/>
		<path id="Path 72" class="s24" d="m367 384l2-3 2 2-2 2z"/>
		<path id="Path 73" class="s7" d="m919 385l2-4h1l-3 5z"/>
		<path id="Path 74" class="s6" d="m301 384l6-2v1l-3 1z"/>
		<path id="Path 75" class="s25" d="m359 383v-1h4v2h-1z"/>
		<path id="Path 76" class="s25" d="m413 395l-4-8 1-5 6 1-1 5h5l2 5 5 1v3l-10 4v-5z"/>
		<path id="Path 77" class="s5" d="m304 384l3-1h5l2 2-3 8 7 1 1 2v1l-4 5-7 2 1-6-4-2-6 9-3 2-5 7-6 2-1-8 2-2h4l4-5-2-5h-4l-4-6v-1l4-1h2l7 1-1 5h5l3-2-2-4z"/>
		<path id="Path 78" class="s14" d="m348 384l5-1 2 2-1 3-3 5-3 1h-2l1-9z"/>
		<path id="Path 79" class="s26" d="m355 385l4-2 3 1v8l-7 1-1-5z"/>
		<path id="Path 80" class="s20" d="m288 387l12-3-10 4h-2z"/>
		<path id="Path 81" class="s36" d="m290 388l10-4h1 3l-2 4-5 1z"/>
		<path id="Path 82" class="s37" d="m324 392l3-8h4l1 1 1 7-3 3z"/>
		<path id="Path 83" class="s13" d="m332 385l7-1v7l-5 2-1-1z"/>
		<path id="Path 84" class="s26" d="m340 391l2-7 5 1-1 9-5 1z"/>
		<path id="Path 85" class="s30" d="m355 393l7-1v-8h1 4l2 1-1 3-3 5-3 1-1 6h-7l-1-6z"/>
		<path id="Path 86" class="s38" d="m434 388v-4h9l2 6 3 8-3 4-7-7-2-2z"/>
		<path id="Path 87" class="s39" d="m318 394l-7-1 3-8 5 2z"/>
		<path id="Path 88" class="s28" d="m399 386l6-1 1 8 5 3-2 7-6 1-2-2 2-8h-5z"/>
		<path id="Path 89" class="s0" d="m542 386v-1h5l4 4z"/>
		<path id="Path 90" class="s20" d="m914 394l5-9v1l-7 15z"/>
		<path id="Path 91" class="s0" d="m284 389l4-2v1z"/>
		<path id="Path 92" class="s27" d="m297 389l5-1 2 4-3 2h-5z"/>
		<path id="Path 93" class="s40" d="m351 393l3-5 1 5-2 1z"/>
		<path id="Path 94" class="s40" d="m365 393l3-5 2 6-1 1z"/>
		<path id="Path 95" class="s31" d="m429 394v-4l5-2 2 5-3 3z"/>
		<path id="Path 96" class="s41" d="m458 391l12-3 5 3 3 1 1 6-2 2h-5l-8-3v-5z"/>
		<path id="Path 97" class="s12" d="m268 396l7-6 9-1v1z"/>
		<path id="Path 98" class="s0" d="m558 391l-6-2 11 2z"/>
		<path id="Path 99" class="s42" d="m840 396l14-7-1 10-17 14-4 7-11 7-17 3 1-4 20-10 2-12 6-5 2-1z"/>
		<path id="Path 100" class="s43" d="m268 396l16-6 4 6-2 10-2 2h-4l-4 5 3 10-6 5-2-2-2-5-3-10-10 12h-3l-2-3h-12l-5-7 15-9 18-8z"/>
		<path id="Path 101" class="s33" d="m445 402l3-4-3-8h4l4 4v3l-4 1v3l4 5 4-2v-4h2l3 2 1-3h1l2 7-1 1-6-2v11h-1l-6-3h-2v-7z"/>
		<path id="Path 102" class="s30" d="m334 393l5-2h1l1 4-2 1-5-2z"/>
		<path id="Path 103" class="s24" d="m453 394l4-3 1 5 6 1v2h-1l-4 1h-2l-4-3z"/>
		<path id="Path 104" class="s44" d="m464 397l-6-1-1-5h1l6 1z"/>
		<path id="Path 105" class="s6" d="m565 394l-7-3h5l15 3v2z"/>
		<path id="Path 106" class="s14" d="m321 395l3-3 6 3 3-3 1 1v1l-4 6-6-2z"/>
		<path id="Path 107" class="s26" d="m348 394l3-1 2 1 1 6-1 4-2 2-4-2z"/>
		<path id="Path 108" class="s26" d="m361 400l1-6 3-1 4 2-3 10-4-1z"/>
		<path id="Path 109" class="s33" d="m370 394l6-1v11l-1 2-3-4-4 3h-2l3-10z"/>
		<path id="Path 110" class="s26" d="m391 404l-1-10 7 1-1 7z"/>
		<path id="Path 111" class="s24" d="m433 396l3-3 2 2-3 3h-2z"/>
		<path id="Path 112" class="s44" d="m330 400l4-6 5 2-1 7-4 5-3-1z"/>
		<path id="Path 113" class="s38" d="m341 395l5-1h2l-1 10 4 2 2 2v3l-5 3h-3l-1-1-3-4-3-6 1-7z"/>
		<path id="Path 114" class="s45" d="m397 395l1-1h5l-2 8h-4-1z"/>
		<path id="Path 115" class="s38" d="m427 397v-3h2l4 2v2l-2 3h-1z"/>
		<path id="Path 116" class="s46" d="m483 398l2-4 6 1 1 4 9 4 1 6-1 1-5 1-7-5 2-6h-4v3z"/>
		<path id="Path 117" class="s8" d="m552 405l13-11 13 2 7 1 7 2h1l9 2 1 1 2 2 2 8h13l6-3h3 1l11 5v18l-2 7 5-1 2 2v2l-1 4-6 1-1-7-5-4-3 2h-1v-6l-4-3-6 5h-2l-3-1-3-7-6 3v3h-1l-6-1 1-5-5-3-3-4-4-2-2 3h-3l-4 1-1-1 1-4-4-3-4 1 1 4v1l-7-1-2-1-1-7h-5l-3 4h-3l-2-4 5-1z"/>
		<path id="Path 118" class="s47" d="m615 424h5l1 3-4 2z"/>
		<path id="Path 119" class="s48" d="m601 421l4 1v3l-3 1z"/>
		<path id="Path 120" class="s0" d="m578 396v-2l8 3h-1z"/>
		<path id="Path 121" class="s49" d="m835 396l5-2v2l-5 2z"/>
		<path id="Path 122" class="s42" d="m896 416l-1-7 8-7 2-8h9l-2 7v1l-12 13-2 1z"/>
		<path id="Path 123" class="s44" d="m319 396l2-1 3 3v7l-1 1h-5l1-9z"/>
		<path id="Path 124" class="s43" d="m411 396l2-1 4 1v5l-4 4-4-2z"/>
		<path id="Path 125" class="s26" d="m435 398l3-3 7 7 5 4v7l-2 4-5-1h-6l1-5 5-3v-4l-5 1z"/>
		<path id="Path 126" class="s11" d="m263 397l4-1-18 8z"/>
		<path id="Path 127" class="s14" d="m286 406l2-10h4l2 5-4 5z"/>
		<path id="Path 128" class="s15" d="m299 405l6-9 4 2-1 6-2 2z"/>
		<path id="Path 129" class="s11" d="m833 399l2-3v2z"/>
		<path id="Path 130" class="s37" d="m315 402l4-5-1 9z"/>
		<path id="Path 131" class="s27" d="m417 401l10-4 3 4-5 5v5h-4l-8-6z"/>
		<path id="Path 132" class="s28" d="m457 400v4l-4 2-4-5v-3l4-1z"/>
		<path id="Path 133" class="s44" d="m464 399v-2l8 3v4l-6 2z"/>
		<path id="Path 134" class="s20" d="m592 399l-7-2h1z"/>
		<path id="Path 135" class="s17" d="m324 405v-7l6 2 1 7-2 2h-1z"/>
		<path id="Path 136" class="s37" d="m431 401l2-3h2l3 7v1h-3z"/>
		<path id="Path 137" class="s50" d="m459 400l4-1-1 3z"/>
		<path id="Path 138" class="s51" d="m477 400l2-2h4l4 5 1 3-2 4-5-1-6-3v-2z"/>
		<path id="Path 139" class="s30" d="m472 400h5l-2 4h-3z"/>
		<path id="Path 140" class="s20" d="m602 401l-9-2 10 1z"/>
		<path id="Path 141" class="s11" d="m823 404l10-5-6 5-4 1z"/>
		<path id="Path 142" class="s24" d="m353 404l1-4h7l1 4-2 1-2-2-3 2z"/>
		<path id="Path 143" class="s50" d="m487 403v-3h4l-2 6h-1z"/>
		<path id="Path 144" class="s9" d="m602 401l1-1 4 2h-4z"/>
		<path id="Path 145" class="s52" d="m397 402h4l2 2v9l-7 3v8l-5 7-2 7h3l5 1v-15l7 5v-9h8l-4 10-4 1v6l6 4 2-3h4v6l-3 1-1 7 5 3 1-11 4-6 5-1v-13h5l2 4 1 10h5l3-12-5 1-4-5 1-5 2-1h6v8h5l2-6 2-5 6 3 1 10h4l4 6 3 7 3 9h-7l-3-2-2 4-6 2v6l5 2 3 8h5l1 5-1 5-7 4h-7l-5 6-8-4h-10l-4 1v3l-8 2-2-1-3-4v-6l-5 3h-10v-4h-5l-2 6h-5l-7-4-3-2-1-8 4-11 2-4 6-1 1-8v-6l-4 4-4-4 1-14 6 2 1-8 3-7 4 1z"/>
		<path id="Path 146" class="s41" d="m453 465l4 1v6h-4z"/>
		<path id="Path 147" class="s41" d="m421 462l5 4-2 5-5-1z"/>
		<path id="Path 148" class="s15" d="m403 462l6 1v5l-7 2z"/>
		<path id="Path 149" class="s33" d="m387 459l5 3v6l-7 2z"/>
		<path id="Path 150" class="s37" d="m430 446h3v8h-5z"/>
		<path id="Path 151" class="s46" d="m400 445l2 8h-5v-6z"/>
		<path id="Path 152" class="s4" d="m455 431l2 8-6-3z"/>
		<path id="Path 153" class="s26" d="m421 411h4v-5l5-5h1l4 5v4l-2 5-2 2-5-2-3 3z"/>
		<path id="Path 154" class="s51" d="m502 409l4-2v-5l4-1 6 8-2 3-4 2h-9v-4z"/>
		<path id="Path 155" class="s47" d="m532 406l-1-5 13 6 8-2 1 4-5 1 2 4-3 9-6-2v-5l-7-4v-2h3v-4z"/>
		<path id="Path 156" class="s24" d="m308 404l7-2 3 4h5v4l-3 5-7-3-1-6h-3v5h-2l-1-5z"/>
		<path id="Path 157" class="s26" d="m368 405l4-3 3 4v8l-3 3-4-1z"/>
		<path id="Path 158" class="s30" d="m376 404l6-2h1l-1 11-3 1h-4v-8z"/>
		<path id="Path 159" class="s52" d="m382 413l1-11 5 3 1 5-4 7h-2z"/>
		<path id="Path 160" class="s30" d="m391 404l5-2h1l-1 12-4-1-3-3-1-5z"/>
		<path id="Path 161" class="s11" d="m605 404l-2-2h4l5 2z"/>
		<path id="Path 162" class="s3" d="m900 415l12-13-1 7-10 6z"/>
		<path id="Path 163" class="s53" d="m334 408l4-5 3 6-3 4-2 1h-2z"/>
		<path id="Path 164" class="s44" d="m355 405l3-2 2 2-2 12-4 1-1-7v-3z"/>
		<path id="Path 165" class="s46" d="m403 404l6-1 4 2 8 6 2 7v4l-3 1 2 13h-4l-1-11-3-1-3 6 1 8-2 3-6-4v-6l4-1 4-10-4-8-3 1-1 7v9l-7-5h-1v-8l7-3z"/>
		<path id="Path 166" class="s3" d="m218 419l24-14 7-1-15 9z"/>
		<path id="Path 167" class="s14" d="m351 406l2-2 2 1-2 3z"/>
		<path id="Path 168" class="s30" d="m360 405l2-1 4 1h2v11l-2 1-4-2-2 3-2-1z"/>
		<path id="Path 169" class="s25" d="m438 405l5-1v4l-5 3v-1-4z"/>
		<path id="Path 170" class="s26" d="m459 416v-11l6 2 2 8 5-2 3-7 6 3v4l4 1 4 7-1 5-6 10 1 3 6-2 1 3-9 12-8-4-3-9 2-7h-5l-4-6 1-9z"/>
		<path id="Path 171" class="s39" d="m466 406l6-2h3v2l-3 7-5 2-2-8z"/>
		<path id="Path 172" class="s37" d="m518 409l4-5 9 4v1l-5 5-8-2z"/>
		<path id="Path 173" class="s10" d="m626 409l-6 3h-13l-2-8h7 1l11 4z"/>
		<path id="Path 174" class="s6" d="m624 408l-11-4 11 3z"/>
		<path id="Path 175" class="s12" d="m816 407l7-3v1l-4 2z"/>
		<path id="Path 176" class="s8" d="m823 405l4-1-2 12-20 10-1 4-7 5v7l-4 7h-6l-2-6-9 1h-11l-1-10 3-3 16-7 11-5 5-2 2-1 18-9z"/>
		<path id="Path 177" class="s13" d="m296 407l3-2 7 1 1 5-2 3-4 4-3-1-1-2z"/>
		<path id="Path 178" class="s52" d="m323 406l1-1 4 4v3l-5-2z"/>
		<path id="Path 179" class="s26" d="m309 411v-5h3l1 6-1 1z"/>
		<path id="Path 180" class="s14" d="m435 410v-4h3v4z"/>
		<path id="Path 181" class="s44" d="m486 410l2-4h1l7 5 1 4v11l-2 4h-5v-4h3v-5h-4l-4-7z"/>
		<path id="Path 182" class="s13" d="m531 408l1-2h5v4h-3l-3-1z"/>
		<path id="Path 183" class="s26" d="m291 414l5-7 1 8-6 4z"/>
		<path id="Path 184" class="s13" d="m329 409l2-2 3 1v6l-3 1z"/>
		<path id="Path 185" class="s20" d="m624 408v-1l5 2h-3z"/>
		<path id="Path 186" class="s3" d="m801 415l15-8h3l-18 9z"/>
		<path id="Path 187" class="s54" d="m279 423l-3-10 4-5h4l1 8v4l-5 4z"/>
		<path id="Path 188" class="s46" d="m328 412v-3h1l2 6v1l-3 2-2-1z"/>
		<path id="Path 189" class="s55" d="m338 413l3-4 3 4-3 2z"/>
		<path id="Path 190" class="s56" d="m485 414l-4-1v-4l5 1z"/>
		<path id="Path 191" class="s27" d="m514 412l2-3h2v3l-2 1z"/>
		<path id="Path 192" class="s30" d="m526 414l5-5 3 1v2l-1 9-4-1h-3z"/>
		<path id="Path 193" class="s3" d="m641 414l-11-5 13 3v2z"/>
		<path id="Path 194" class="s26" d="m320 415l3-5 5 2-2 5-3 3h-2z"/>
		<path id="Path 195" class="s46" d="m385 417l4-7 3 3-3 7h-2z"/>
		<path id="Path 196" class="s46" d="m433 415l2-5h3v1l-1 5-2 1z"/>
		<path id="Path 197" class="s57" d="m496 411l5-1v4l-4 1z"/>
		<path id="Path 198" class="s15" d="m553 414l3-4h5l1 7-5 2z"/>
		<path id="Path 199" class="s8" d="m256 423l10-12 3 10-4 6-2 6h2v2l-1 7h-1l-3-2-1-8-4-1z"/>
		<path id="Path 200" class="s34" d="m305 414l2-3h2l3 2v4l-3 3-4-1z"/>
		<path id="Path 201" class="s58" d="m348 414l5-3 1 7-3 1z"/>
		<path id="Path 202" class="s14" d="m312 413l1-1 7 3 1 5-3 2-5-5h-1z"/>
		<path id="Path 203" class="s26" d="m404 420l1-7 3-1 4 8z"/>
		<path id="Path 204" class="s10" d="m510 414l4-2 2 1-1 5h-4z"/>
		<path id="Path 205" class="s28" d="m516 413l2-1 8 2v6h3v6h-4v-4l-6 1-4-5z"/>
		<path id="Path 206" class="s44" d="m529 420l4 1 1-9 7 4v5l6 2 3-9h3l4 5v3h4l2 4 2 7-3 4-5 1 2 7v4h-2-2l-2-5h-4v-9l-8-1v-9l-7-2v3h-5z"/>
		<path id="Path 207" class="s38" d="m553 424h3v4l-6 5v-8z"/>
		<path id="Path 208" class="s9" d="m643 414v-2l3 2z"/>
		<path id="Path 209" class="s19" d="m218 419l16-6 5 7h12l2 3-3 5 2 10-5 1-1-5h-4v3l-3 4-2 5h-4v-8h-3l-2 11v3l-2 6-12-3-9-9v-4l-2-12 6-5z"/>
		<path id="Path 210" class="s26" d="m336 414l2-1 3 2-3 3z"/>
		<path id="Path 211" class="s24" d="m341 415l3-2 1 1-2 12-1 3h-2l-4-2-3 6-2-2 3-5 4-1v-7z"/>
		<path id="Path 212" class="s37" d="m379 414l3-1 1 4-2 1z"/>
		<path id="Path 213" class="s39" d="m448 417l2-4h2l-2 5z"/>
		<path id="Path 214" class="s59" d="m571 418l-1-4 4-1 4 3-1 4z"/>
		<path id="Path 215" class="s16" d="m285 416l6-2v5l6-4 1 2-3 17h-3l-5-2-2-1v-11z"/>
		<path id="Path 216" class="s14" d="m301 418l4-4v5l4 1 2 2-1 8 4 2 2-2h3v4l-7 10-3-2-2-1 1-8-5-5h-1z"/>
		<path id="Path 217" class="s54" d="m331 415l3-1h2l2 4v7l-4 1-3-10z"/>
		<path id="Path 218" class="s26" d="m343 426l2-12h3l3 5-1 7h-1z"/>
		<path id="Path 219" class="s24" d="m368 416l4 1 3-3-2 13v4l4 1-1 6-4-2-1-9h-6l1-10z"/>
		<path id="Path 220" class="s52" d="m373 427l2-13h4l2 4v5l-4 6z"/>
		<path id="Path 221" class="s26" d="m497 415l4-1h9l1 4h4l4 5v2 5h6v-4h4 5l1 6 5 2 4 10h5 4l2 5-4 7h-8v-8l-9-5 1-10-7 5h-9v-5h-8v3h-6v-6l2-3 2-5h-5v3l-1 1h-6z"/>
		<path id="Path 222" class="s42" d="m641 432v-18h2 3 1l6 2 6 1h2l1 1 12 1h3l2 3-5 1-6 1v3l-8 9-6-2-1 6h-3-4l-2-2z"/>
		<path id="Path 223" class="s20" d="m653 416l-6-2 11 2z"/>
		<path id="Path 224" class="s52" d="m360 418l2-3 4 2-1 10-1 3-5-1z"/>
		<path id="Path 225" class="s4" d="m423 418l3-3 5 2 2-2 2 2-1 5-2 2h-5l-4-2z"/>
		<path id="Path 226" class="s20" d="m798 417l3-2v1l-2 1z"/>
		<path id="Path 227" class="s0" d="m898 416l2-1h1l-2 1z"/>
		<path id="Path 228" class="s26" d="m328 418l3-2 3 10-3 5-4 1v-10z"/>
		<path id="Path 229" class="s60" d="m450 418l-2 6h-5v-8l5 1z"/>
		<path id="Path 230" class="s39" d="m463 426h-4l-1-10h1l5 1z"/>
		<path id="Path 231" class="s18" d="m659 417l-6-1h5z"/>
		<path id="Path 232" class="s7" d="m891 420l5-4h2 1l-8 5z"/>
		<path id="Path 233" class="s34" d="m295 434l3-17 3 1 1 10-4 6z"/>
		<path id="Path 234" class="s58" d="m309 420l3-3h1l-2 5z"/>
		<path id="Path 235" class="s26" d="m311 422l2-5 5 5v4l-2 4-2 2-4-2z"/>
		<path id="Path 236" class="s24" d="m323 420l3-3 2 1-1 4h-2z"/>
		<path id="Path 237" class="s24" d="m354 418l4-1 2 1-1 11h-2l-4-2-3-1 1-7z"/>
		<path id="Path 238" class="s27" d="m381 418l2-1h2l2 3-1 4h-4l-1-1z"/>
		<path id="Path 239" class="s17" d="m557 419l5-2 2 1-3 4h-4z"/>
		<path id="Path 240" class="s34" d="m564 418l7 1-1 7-2 2-5-2-2-4z"/>
		<path id="Path 241" class="s55" d="m585 420l2-3 4 2-1 5z"/>
		<path id="Path 242" class="s0" d="m662 418l-1-1h10v1z"/>
		<path id="Path 243" class="s7" d="m671 418v-1l3 2z"/>
		<path id="Path 244" class="s11" d="m794 419l4-2h1z"/>
		<path id="Path 245" class="s13" d="m571 419v-1l6 2 1 1-2 6-5-1h-1z"/>
		<path id="Path 246" class="s49" d="m674 419l-12-1h9z"/>
		<path id="Path 247" class="s32" d="m209 424l3-4 6-1-9 6z"/>
		<path id="Path 248" class="s61" d="m590 424l1-5 3 4-2 2z"/>
		<path id="Path 249" class="s7" d="m679 422l-2-3 5 1v3h-3z"/>
		<path id="Path 250" class="s26" d="m280 424l5-4v11l-5 3z"/>
		<path id="Path 251" class="s17" d="m318 422l3-2h2l2 2-4 6-3-2z"/>
		<path id="Path 252" class="s51" d="m382 424h4l1-4h2l-1 8-6-2z"/>
		<path id="Path 253" class="s44" d="m578 421l4-1 3 7-3 4h-4v6l5 2 2 4 1 6 5-1 9 2 5 2v4l-5 2-1 6-15-2-1-5h-4l-4-1v-8l3-8-7-1v-13l5 1z"/>
		<path id="Path 254" class="s53" d="m585 427l-3-7h3l5 4 2 1-2 6-2-1z"/>
		<path id="Path 255" class="s21" d="m892 424h-8l7-4v1l5 1z"/>
		<path id="Path 256" class="s15" d="m265 427l4-6 2 5-4 3z"/>
		<path id="Path 257" class="s47" d="m488 426l1-5h4v5h-3z"/>
		<path id="Path 258" class="s39" d="m321 428l4-6h2v10h-3l-3-3z"/>
		<path id="Path 259" class="s28" d="m422 436l-2-13 3-1 4 2v13l-5 1z"/>
		<path id="Path 260" class="s28" d="m432 424l2-2 4 5-4 1z"/>
		<path id="Path 261" class="s24" d="m504 425v-3h5l-2 5z"/>
		<path id="Path 262" class="s45" d="m519 423l6-1v4l-6-1z"/>
		<path id="Path 263" class="s62" d="m674 423l5-1v1z"/>
		<path id="Path 264" class="s42" d="m892 424l4-2h7l-1 4-5 5-3 1z"/>
		<path id="Path 265" class="s0" d="m902 426l1-4 3 2z"/>
		<path id="Path 266" class="s41" d="m252 438l-2-10 3-5h3l-1 8 4 1 1 8 3 2 1 11-2 1z"/>
		<path id="Path 267" class="s53" d="m273 428l6-5 1 1v10l5-3 2 1-2 12-2 4h-5l-2-8-3-9z"/>
		<path id="Path 268" class="s46" d="m377 429l4-6 1 1v2l-1 14-1 2-4-4 1-6z"/>
		<path id="Path 269" class="s39" d="m534 426v-3l7 2v9h-1l-5-2z"/>
		<path id="Path 270" class="s44" d="m592 425l2-2 5 3-1 5-2 3-6-3z"/>
		<path id="Path 271" class="s7" d="m668 427v-3l6-1-4 2 2 4z"/>
		<path id="Path 272" class="s6" d="m200 430l9-6v1l-6 5-3 1z"/>
		<path id="Path 273" class="s37" d="m391 431l5-7h1v15l-5-1z"/>
		<path id="Path 274" class="s26" d="m412 438l-1-8 3-6 3 1 1 11-2 2z"/>
		<path id="Path 275" class="s11" d="m768 429l15-5-16 7z"/>
		<path id="Path 276" class="s15" d="m503 426l1-1 3 2-2 3h-2z"/>
		<path id="Path 277" class="s58" d="m525 426v4h-6v-5z"/>
		<path id="Path 278" class="s23" d="m267 429l4-3 2 2v3l-4 4h-4v-2z"/>
		<path id="Path 279" class="s27" d="m316 430l2-4 3 2v1l-2 1z"/>
		<path id="Path 280" class="s52" d="m342 429l1-3h6v3l-4 3z"/>
		<path id="Path 281" class="s25" d="m349 429v-3h1l3 1-2 3z"/>
		<path id="Path 282" class="s26" d="m365 427h6l1 9 4 2 4 4-1 10h-6-3v-5h-3l-2-5-1-12z"/>
		<path id="Path 283" class="s39" d="m438 427l5-1-3 12h-5l-1-10z"/>
		<path id="Path 284" class="s48" d="m489 437l-6 2-1-3 6-10h2v4z"/>
		<path id="Path 285" class="s52" d="m490 430h5l2-4h6v4l-5 4v4l-1 2h-7l-1-3z"/>
		<path id="Path 286" class="s58" d="m562 437l3-4-2-7 5 2 2-2h1v13l-3-3-4 2z"/>
		<path id="Path 287" class="s59" d="m605 432v-3l6-3 3 7-5 3z"/>
		<path id="Path 288" class="s41" d="m265 433h-2l2-6 2 2z"/>
		<path id="Path 289" class="s26" d="m333 433l3-6 4 2 1 11h4l3 2 2-2 4 4-3 4-2 5 2 1 3 10-1 6 4 1v6l-7 1h-7l-8-2-6-1v-6-11l-6 2v-10l1-8 2-1h6z"/>
		<path id="Path 290" class="s46" d="m337 462l2-1 4 1-1 8-6-1z"/>
		<path id="Path 291" class="s44" d="m334 455l2-1 3 7-2 1z"/>
		<path id="Path 292" class="s33" d="m334 455h-5l1-8h6v7z"/>
		<path id="Path 293" class="s52" d="m351 430l2-3 4 2 1 10-2 4-2 1-4-4z"/>
		<path id="Path 294" class="s34" d="m377 432l-4-1v-4l4 2z"/>
		<path id="Path 295" class="s41" d="m582 431l3-4 3 3-5 3z"/>
		<path id="Path 296" class="s8" d="m660 436l8-9 4 2h1l1 4 9 2 2 1v3l-2 3-1 1-5-1-3 6-3 1-6-6-6 9h-4v-8l6-3z"/>
		<path id="Path 297" class="s4" d="m670 438h4v4l-4 2z"/>
		<path id="Path 298" class="s30" d="m298 434l4-6h1l-2 7z"/>
		<path id="Path 299" class="s44" d="m301 435l2-7 5 5-1 8-6-3z"/>
		<path id="Path 300" class="s52" d="m319 430l2-1 3 3v6h-1l-4-4z"/>
		<path id="Path 301" class="s58" d="m345 440h-4l-1-11h2l3 3z"/>
		<path id="Path 302" class="s33" d="m345 432l4-3 2 1-1 10-2 2-3-2z"/>
		<path id="Path 303" class="s33" d="m358 439l-1-10h2l5 1 1 12z"/>
		<path id="Path 304" class="s63" d="m619 434l6-5 4 3v6l-6 1z"/>
		<path id="Path 305" class="s21" d="m683 435l-9-2-1-4 10 5z"/>
		<path id="Path 306" class="s2" d="m763 432l5-3-1 2z"/>
		<path id="Path 307" class="s3" d="m186 439l14-9v1l-6 5-6 3z"/>
		<path id="Path 308" class="s64" d="m200 431l3-1 2 12h-8l-3-6z"/>
		<path id="Path 309" class="s39" d="m498 438v-4l5-4h2v6 2z"/>
		<path id="Path 310" class="s55" d="m583 433l5-3 2 1 1 7-1 5h-5l-2-4z"/>
		<path id="Path 311" class="s26" d="m269 435l4-4 3 9-4 3-4-1z"/>
		<path id="Path 312" class="s33" d="m327 432l4-1 2 2-1 8h-6l-2-3v-6z"/>
		<path id="Path 313" class="s30" d="m392 438h-3l2-7z"/>
		<path id="Path 314" class="s54" d="m583 439l-5-2v-6h4l1 2z"/>
		<path id="Path 315" class="s14" d="m591 438l-1-7 6 3v4z"/>
		<path id="Path 316" class="s63" d="m596 434l2-3 6 1 3 11v2l-7 1-3-4-1-4z"/>
		<path id="Path 317" class="s47" d="m763 432l4-1-3 3-12 3v-1l1-1z"/>
		<path id="Path 318" class="s0" d="m894 432l3-1-7 9-11 6z"/>
		<path id="Path 319" class="s44" d="m285 444l2-12 5 2v6l-4 5z"/>
		<path id="Path 320" class="s60" d="m470 439l-3-7h5z"/>
		<path id="Path 321" class="s54" d="m607 443l-3-11h1l4 4 5-3 3 1z"/>
		<path id="Path 322" class="s63" d="m644 438l-5 1 2-7z"/>
		<path id="Path 323" class="s37" d="m511 436v-3h8v5l-6 7-1 7v4l-5-1v-9l4-2z"/>
		<path id="Path 324" class="s24" d="m528 438l7-5-1 10h-1-4z"/>
		<path id="Path 325" class="s63" d="m242 437v-3h4l1 5h-4z"/>
		<path id="Path 326" class="s17" d="m292 440v-6h3 3l3 1v3l-2 2z"/>
		<path id="Path 327" class="s44" d="m312 444l7-10 4 4v4l-5 6-5-1z"/>
		<path id="Path 328" class="s58" d="m549 444h-5l-4-10h1l8 1z"/>
		<path id="Path 329" class="s59" d="m607 443l10-9h2l4 5v3l-3 8h-5l-8-3v-2z"/>
		<path id="Path 330" class="s47" d="m650 440h3l1-6 6 2 1 5-6 3-5-3z"/>
		<path id="Path 331" class="s3" d="m683 435v-1l7 1v1h-5z"/>
		<path id="Path 332" class="s19" d="m752 437l12-3 1 10-5 4-4-2-1-3-5 3-11-2 2-6z"/>
		<path id="Path 333" class="s27" d="m264 442l1-7h4l-1 7z"/>
		<path id="Path 334" class="s65" d="m690 436v-1h8v1h-3z"/>
		<path id="Path 335" class="s0" d="m698 436v-1l7 1z"/>
		<path id="Path 336" class="s7" d="m742 436l11-1-1 1z"/>
		<path id="Path 337" class="s66" d="m188 439l6-3 3 6h8v4l9 9 12 3 3 4 2 9 3 24v4l-3 2-6-5v-7l-4-3-5-11-6-6h-5l-4-3v-6l-2-8h-10l-5-3v-6z"/>
		<path id="Path 338" class="s44" d="m416 438l2-2h4v2l-4 6h-2z"/>
		<path id="Path 339" class="s52" d="m505 438v-2h6v8l-4 2-2-3z"/>
		<path id="Path 340" class="s26" d="m564 438l4-2 3 3v9h4v8l-8 2-4-8-4-1v-4h4z"/>
		<path id="Path 341" class="s63" d="m630 438l3-2 5 4 1 7-3 5-3 1h-4l-2-9z"/>
		<path id="Path 342" class="s36" d="m685 439v-3h5 5l10 2h8 4 5v8 1l-4 1-2 8-9-9-4 1-2 8-4-1v-9l-5-2-2-2-1-3z"/>
		<path id="Path 343" class="s67" d="m705 438l-10-2h3 7z"/>
		<path id="Path 344" class="s68" d="m705 438v-2l8 1v1z"/>
		<path id="Path 345" class="s49" d="m741 437l1-1h10v1l-11 1z"/>
		<path id="Path 346" class="s43" d="m797 442l35-6 20 3 11 13v4l-1 20 8 2 1 1 2 5 2 5v3h-12l-10-11h-13l-7-11-11 2-5 10-26-2-4-6-1-5 6-4 1-16z"/>
		<path id="Path 347" class="s61" d="m239 441l3-4 1 2z"/>
		<path id="Path 348" class="s41" d="m559 445l-2-7 5-1 2 1-1 7z"/>
		<path id="Path 349" class="s65" d="m713 438v-1h4v1z"/>
		<path id="Path 350" class="s69" d="m717 438v-1h18v1h-13z"/>
		<path id="Path 351" class="s68" d="m735 438v-1h6v1z"/>
		<path id="Path 352" class="s63" d="m228 449l2-11h3v8z"/>
		<path id="Path 353" class="s54" d="m247 439l5-1 10 16 1 10-3 7-2 2-5-5-2 8-4 1-3-8-4-1-1 9h-2l-1-5-5-1-2-9h4l5-3 3-1v-8l-4-2v-2l2-5 4-2z"/>
		<path id="Path 354" class="s51" d="m299 440l2-2 6 3 2 1-2 6h-2l-6 1z"/>
		<path id="Path 355" class="s51" d="m323 442v-4h1l2 3-2 1z"/>
		<path id="Path 356" class="s51" d="m497 440l1-2h7v5l-8 2z"/>
		<path id="Path 357" class="s52" d="m512 452l1-7 6-7h9l1 5h4l4 12 6 1h8 5l1-7h2l4 1 4 8 8-2 4 1 2 5h3l15 2v8l-5 2-5-2v6l3 1v5l-4 1-5 1v5l4 1v8l-2 2-2-7-8-2-1-2-1-10-5 1v7l-5 3-1-1-2-5-1-5h-4v5l-7 10h-5v-8l1-9h-4l-5-7 1-6h-5l-3-2v-6-10l-5 4z"/>
		<path id="Path 358" class="s46" d="m576 467l3 1v7h-4z"/>
		<path id="Path 359" class="s15" d="m561 466l4 4v4h-5z"/>
		<path id="Path 360" class="s60" d="m546 465l5 4v4h-4z"/>
		<path id="Path 361" class="s4" d="m590 443l1-5h5l1 4-6 2z"/>
		<path id="Path 362" class="s17" d="m623 439l6-1h1l-3 6h-2l-2-2z"/>
		<path id="Path 363" class="s10" d="m722 446v-8h13 6l-2 6-2 2h-4v-3h-8z"/>
		<path id="Path 364" class="s6" d="m173 449l3-5 10-5h2l-4 4z"/>
		<path id="Path 365" class="s44" d="m356 443l2-4 7 3 2 5-3 6 6-1h3v6l3 2-5 4v5l5 1 1 8-2 8h4l1-6 7 4v8l-5 2v7l8 1 1 3-2 5-8 2h-6l-3-8v-8l-5-1-4-2v-5l2-10h-6l-2-1v-6l2-7-3-1z"/>
		<path id="Path 366" class="s39" d="m575 448h-4v-9l7 1z"/>
		<path id="Path 367" class="s15" d="m683 442l2-3h4l1 3-2 2z"/>
		<path id="Path 368" class="s44" d="m272 443l4-3 2 8-2 8h-2z"/>
		<path id="Path 369" class="s14" d="m288 445l4-5h7v9l6-1v4l-4 5-4-2-1 4-3 2-1 11 6 5v4l-3 3h-2l-3-12-4-2-3 4-3-2 2-8 1-10 1-4z"/>
		<path id="Path 370" class="s34" d="m293 444h3v10l-4 4-4-2z"/>
		<path id="Path 371" class="s37" d="m380 442l1-2 4 4 4 2-1 8-6 1-2 4h-2l1-7z"/>
		<path id="Path 372" class="s40" d="m385 444l4-4v6z"/>
		<path id="Path 373" class="s70" d="m473 448l8 4 9-12h7v5l8-2 2 3v9l5 1v-4h11l5 6v6l3 2v6h4l5 7 3 9v8h-4l-5-2 1 8-6 5-5-3-1-9-5 3h-11l-4-2v4h-12l-4-2v6h-12v-6l-5-1-1-2-1-17 1-5 5 1v-7l-1-3h-4l-1 4h-5l-3-8-5-2v-6l6-2v5h3l2-7z"/>
		<path id="Path 374" class="s71" d="m494 481l4 1v7l-5-1z"/>
		<path id="Path 375" class="s39" d="m526 480h3v7l-4-1z"/>
		<path id="Path 376" class="s39" d="m479 480h4v10l-5-1z"/>
		<path id="Path 377" class="s4" d="m485 464h4v7h-4z"/>
		<path id="Path 378" class="s51" d="m518 463l3 1v7l-6-1z"/>
		<path id="Path 379" class="s48" d="m501 463h4v8h-5z"/>
		<path id="Path 380" class="s37" d="m493 447h4v5l-4 3z"/>
		<path id="Path 381" class="s48" d="m646 442v-2h4v1z"/>
		<path id="Path 382" class="s63" d="m646 442l4-1 5 3v8l-2 2h-3v4h3l2 1v5h-6l-1-4-4-1 1-13z"/>
		<path id="Path 383" class="s54" d="m264 453l-1-11h1 4l4 1 2 13v2h-5z"/>
		<path id="Path 384" class="s26" d="m307 448l2-6 3 2 1 3-1 5h-2z"/>
		<path id="Path 385" class="s25" d="m318 448l5-6h1l-1 8h-5z"/>
		<path id="Path 386" class="s55" d="m591 444l6-2 3 4v4l-9-2z"/>
		<path id="Path 387" class="s58" d="m620 450l3-8 2 2-2 6z"/>
		<path id="Path 388" class="s39" d="m674 448l3-6 5 1 1 5z"/>
		<path id="Path 389" class="s23" d="m682 443l1-1 5 2 2 2-2 6-5-4z"/>
		<path id="Path 390" class="s27" d="m688 444l2-2 2 2-2 2z"/>
		<path id="Path 391" class="s64" d="m173 449l11-6v6l5 3v4l-12 9v3l-22 2-2-7 1-2 13-8z"/>
		<path id="Path 392" class="s37" d="m354 444l2-1v20l-2 1-3-10h2l-2-6z"/>
		<path id="Path 393" class="s34" d="m543 456l-6-1-4-12h1l9 5z"/>
		<path id="Path 394" class="s47" d="m591 448l-5 1-1-6h5l1 1z"/>
		<path id="Path 395" class="s58" d="m655 452h4l6-9 6 6 3-1h9l5 4v5l3 1-1 8-2 8-2 2-8-2-2-2-1-5-6 1-9-9h-5l-2-1v-4z"/>
		<path id="Path 396" class="s48" d="m722 446l3-3h8v3h4l3 10-1 4-5 1-6-7 3-1v-5l-5 2-4-3z"/>
		<path id="Path 397" class="s59" d="m750 446l5-3 1 3-3 3v9l-2 1-4-3v-7z"/>
		<path id="Path 398" class="s41" d="m776 444l9-1 2 6-4 10-3-3 1-8z"/>
		<path id="Path 399" class="s15" d="m283 448l2-4 3 1-4 5z"/>
		<path id="Path 400" class="s39" d="m418 444l-1 11-5-3 1-7 3-1z"/>
		<path id="Path 401" class="s59" d="m623 450l2-6h2l2 9-6 1z"/>
		<path id="Path 402" class="s51" d="m690 446l2-2 5 2v9l-6 3-3-1v-5z"/>
		<path id="Path 403" class="s39" d="m737 446l2-2 11 2-3 3v7h-7z"/>
		<path id="Path 404" class="s53" d="m760 448l5-4h11l5 4-1 8 3 3-1 2-6-2h-1l-1-6-5-1-2 16-4 1h-1v-6l2-9-4-5z"/>
		<path id="Path 405" class="s33" d="m600 446l7-1v2l-2 5-5-2z"/>
		<path id="Path 406" class="s36" d="m228 449l5-3h4v2l-2 4h-7z"/>
		<path id="Path 407" class="s39" d="m461 450l2-4 3 2-2 7h-3z"/>
		<path id="Path 408" class="s46" d="m639 447l6-1-1 13-7 1-1-8z"/>
		<path id="Path 409" class="s61" d="m753 458v-9l3-3 4 2v1l-2 9h-3z"/>
		<path id="Path 410" class="s33" d="m312 452l1-5 5 1v2l-1 4h-5z"/>
		<path id="Path 411" class="s56" d="m370 452l-6 1 3-6h3z"/>
		<path id="Path 412" class="s55" d="m605 452l2-5 8 3v5l8-1 6-1h4v7h4l7-1 4 1 1 4h6l5 13v12l3 1v12l-5 8h-3l-12-10-7-3 1-9-4-2v-2l5-3v-5l-4-2-4-4 1-7-6 1v5l-3 6-4 1-4-7 1-7h-5l-5-6z"/>
		<path id="Path 413" class="s37" d="m701 456l2-8 4-1v9z"/>
		<path id="Path 414" class="s48" d="m707 456v-9l9 9-5 3z"/>
		<path id="Path 415" class="s55" d="m716 456l2-8 4-1 4 3 2 4 6 7-1 6h3l3-1v-6l1-4h7l4 3-2 9 6 1 2 2 2 9v7 5 4l-4 1v5h-8l-1-4h-4l-1 6-1 1-4 1-5-10-4-2v-4l-3-1v-7l3-5 5 1 6 3 5-4 4 2v-5h-4-10v-5l-6 2-3-11-5 1v4l-6 2-2-8z"/>
		<path id="Path 416" class="s14" d="m750 486l3 1v4h-5z"/>
		<path id="Path 417" class="s38" d="m735 484h5v9l-7-3z"/>
		<path id="Path 418" class="s16" d="m235 452l2-4 4 2v8l-3 1-3-3z"/>
		<path id="Path 419" class="s24" d="m276 456l2-8h5l1 2-1 4-6 3z"/>
		<path id="Path 420" class="s15" d="m305 452v-4h2l3 4z"/>
		<path id="Path 421" class="s56" d="m351 454l-2-1 2-5 2 6z"/>
		<path id="Path 422" class="s41" d="m523 452l5-4v10z"/>
		<path id="Path 423" class="s17" d="m726 450l5-2v5l-3 1z"/>
		<path id="Path 424" class="s2" d="m873 454l4-6-3 7z"/>
		<path id="Path 425" class="s11" d="m167 452l6-3-6 4z"/>
		<path id="Path 426" class="s39" d="m551 456l4-7h2l-1 7z"/>
		<path id="Path 427" class="s4" d="m758 458l2-9 4 5-2 9z"/>
		<path id="Path 428" class="s5" d="m783 459l4-10h6l-1 16-6 4-3-3-1-5z"/>
		<path id="Path 429" class="s46" d="m312 454h5l1-4h5v10l6-2v11l-6 1v-4h-4v-7l-7-2z"/>
		<path id="Path 430" class="s41" d="m623 454l-8 1v-5h5 3z"/>
		<path id="Path 431" class="s3" d="m152 461l15-9v1l-13 8z"/>
		<path id="Path 432" class="s43" d="m189 456v-4h10l2 8h-7z"/>
		<path id="Path 433" class="s29" d="m226 458l2-6h7v4l-2 6h-4z"/>
		<path id="Path 434" class="s63" d="m301 457l4-5h5 2v2 3l7 2v7l1 4h3l6-1v6 3l-2 1-3-3-9 3-6-1-4-7 3-7h-6l-1-1z"/>
		<path id="Path 435" class="s72" d="m376 460l-3-2v-6h6l-1 7z"/>
		<path id="Path 436" class="s27" d="m633 453l3-1 1 8h-4z"/>
		<path id="Path 437" class="s67" d="m763 469l4-1 2-16 5 1 1 6-2 7 4 3 3 6-1 11-8 12h-3l-1 5 4 3-4 7-4-7h-4v-2-8-4h4l4-1v-4l-4 1-4-1v-7z"/>
		<path id="Path 438" class="s61" d="m770 472l4 1v8l-4-1z"/>
		<path id="Path 439" class="s63" d="m262 454l2-1 5 5-2 6h-4z"/>
		<path id="Path 440" class="s4" d="m277 457l6-3-1 10h-5v-6z"/>
		<path id="Path 441" class="s27" d="m653 458h-3v-4h3z"/>
		<path id="Path 442" class="s65" d="m872 456l1-2 1 1-2 5z"/>
		<path id="Path 443" class="s44" d="m296 459l1-4 4 2v6z"/>
		<path id="Path 444" class="s15" d="m691 458l6-3 4 1h6l4 3 2 8v5l-5 5v5l-1 7 6-4 7 5-1 8h-1l-6-1-3-4-10-1-2-3v-10l1-10-8-3z"/>
		<path id="Path 445" class="s5" d="m177 468v-3l12-9 5 4h7v6h-13l-1 6h-9z"/>
		<path id="Path 446" class="s39" d="m233 462l2-6 3 3z"/>
		<path id="Path 447" class="s61" d="m274 458v-2h2l1 1v1z"/>
		<path id="Path 448" class="s15" d="m579 457h4l1 5h-3z"/>
		<path id="Path 449" class="s72" d="m599 464l1-6 5-2 5 6-1 6 5 1 4 7 3 9-3 6h-3v4l-2 3h-6l1 9-3 2h-5v-13l5-1v-11l4-2 3 2v-6l-4-5-5 2v9l-5 3-1 9-4 4h-6v-8l1-7 4-1v-5l2-5 5-2z"/>
		<path id="Path 450" class="s5" d="m870 478l-8-2 1-20h9v4 2l-3 1z"/>
		<path id="Path 451" class="s38" d="m267 464l2-6h5 3v6l-2 3-4 1h-4z"/>
		<path id="Path 452" class="s58" d="m751 459l2-1h2v11l-6-1z"/>
		<path id="Path 453" class="s59" d="m755 469v-11h3l4 5v6l-5 2z"/>
		<path id="Path 454" class="s48" d="m776 459l6 2 1 5h-4z"/>
		<path id="Path 455" class="s15" d="m298 477l-6-5 1-11 3-2 5 4 1 1-1 5 3 2z"/>
		<path id="Path 456" class="s46" d="m376 460l2-1h2l-4 11-5-1v-5z"/>
		<path id="Path 457" class="s59" d="m655 464v-5h5l9 9v4 4l-9 1z"/>
		<path id="Path 458" class="s54" d="m777 469l-4-3 2-7h1l3 7z"/>
		<path id="Path 459" class="s24" d="m719 465v-4l5-1 3 11 6-2v5l-1 4-5-1-3-10z"/>
		<path id="Path 460" class="s33" d="m734 461l5-1v6l-3 1h-3z"/>
		<path id="Path 461" class="s6" d="m147 464l5-3h2l-1 2-6 3z"/>
		<path id="Path 462" class="s39" d="m610 462h5l-1 7-5-1z"/>
		<path id="Path 463" class="s47" d="m870 478l-1-15 3-1v3l-1 1 1 8v3 1l-1 1z"/>
		<path id="Path 464" class="s65" d="m871 465h1v1h-1z"/>
		<path id="Path 465" class="s66" d="m147 466l6-3 2 7-6 5v8l-6 1h-8l-4-6v-2l2-2 12-8z"/>
		<path id="Path 466" class="s33" d="m354 464l2-1 3 1-2 7-4-1z"/>
		<path id="Path 467" class="s58" d="m625 469v-5l6-1-1 7z"/>
		<path id="Path 468" class="s20" d="m145 465l2-1v2h-2z"/>
		<path id="Path 469" class="s48" d="m260 471l3-7h4v4l-1 2z"/>
		<path id="Path 470" class="s55" d="m275 467l2-3h5l-2 8h-3z"/>
		<path id="Path 471" class="s30" d="m304 471l-3-2 1-5h6l-3 7z"/>
		<path id="Path 472" class="s46" d="m468 468l1-4h4l1 3v7l-5-1z"/>
		<path id="Path 473" class="s12" d="m133 474l2-4 10-5v1z"/>
		<path id="Path 474" class="s60" d="m531 466h5l-1 6h-4z"/>
		<path id="Path 475" class="s46" d="m713 467l6-2 5 2 3 10-3 5h-8l-3-10z"/>
		<path id="Path 476" class="s13" d="m187 472l1-6h13l4 3v3z"/>
		<path id="Path 477" class="s27" d="m323 470h-3l-1-4h4z"/>
		<path id="Path 478" class="s44" d="m688 474l2-8 8 3-1 10z"/>
		<path id="Path 479" class="s47" d="m777 469l2-3h4l3 3 1 5-7 1z"/>
		<path id="Path 480" class="s0" d="m872 474l-1-8h1z"/>
		<path id="Path 481" class="s59" d="m267 468h4l4 8-3 10h-2l-4-8v-8z"/>
		<path id="Path 482" class="s27" d="m271 468l4-1 2 5h3l3 2 1 8 5 6 4-4h2v4l-2 11 2 3v7l-4 1v4l-3 6h-3l-4-13v-7l4-2v-9l-5-6h-3l-2 5-3-2 3-10z"/>
		<path id="Path 483" class="s63" d="m669 468l6-1 1 5h-7z"/>
		<path id="Path 484" class="s43" d="m155 470l22-2 1 4-5 10h-9l-1 4h-8-6v-3-8z"/>
		<path id="Path 485" class="s67" d="m239 477l1-9 4 1 3 8 4-1 2 4-2 4h-4z"/>
		<path id="Path 486" class="s55" d="m251 476l2-8 5 5 1 5 4 1 4 8-1 7-2 3h-7l-2 5h-4l-3-5v-3h9v-11l-4-3z"/>
		<path id="Path 487" class="s17" d="m205 472v-3h5l6 6 5 11h-4z"/>
		<path id="Path 488" class="s15" d="m622 475l3-6 5 1 4 4-3 2-6 2z"/>
		<path id="Path 489" class="s27" d="m757 471l5-2h1l-4 11z"/>
		<path id="Path 490" class="s14" d="m260 471l6-1v8l-3 1-4-1-1-5z"/>
		<path id="Path 491" class="s59" d="m283 474l3-4 4 2 3 12-4 4-5-6z"/>
		<path id="Path 492" class="s19" d="m791 480l26 2 5-10 11-2 7 11-4 10-5 2-2 21-6 4h-14l-4-4h-10l-2-1v-7l6-2v-5l-7-2z"/>
		<path id="Path 493" class="s50" d="m234 495l-3-24 5 1 1 5 4 11-1 5z"/>
		<path id="Path 494" class="s55" d="m298 477l6-6h1l4 7v8l-4 3-2-1-5-7z"/>
		<path id="Path 495" class="s10" d="m173 482l5-10h9 18l12 14v6l-6 2-2-10-6-4h-21l-5 4z"/>
		<path id="Path 496" class="s41" d="m592 479l-3-1v-6l5 2z"/>
		<path id="Path 497" class="s39" d="m669 476v-4h7l2 2-1 6 12 7v5l-8-1-5-7h-6l-2-2z"/>
		<path id="Path 498" class="s17" d="m708 482v-5l5-5 3 10h-3z"/>
		<path id="Path 499" class="s58" d="m603 484v-9l5-2 4 5v6l-3-2-4 2z"/>
		<path id="Path 500" class="s27" d="m743 474h4v5l-4-2z"/>
		<path id="Path 501" class="s29" d="m780 475l7-1 4 6 1 17-1 2-3-3-3 2h-2l2-10-2-3-4 1z"/>
		<path id="Path 502" class="s20" d="m128 476l5-2-2 2z"/>
		<path id="Path 503" class="s34" d="m329 475l6 1v10l6 1 2 1v5l-4 3-2-3-4 1h-1l-3-9 2-1-2-6z"/>
		<path id="Path 504" class="s39" d="m631 476l3-2 4 2v5l-5 3z"/>
		<path id="Path 505" class="s34" d="m689 492v-5l-12-7 1-6 8 2 2-2 9 5v10l-5 3z"/>
		<path id="Path 506" class="s72" d="m732 478l1-4h10v3l-5 4z"/>
		<path id="Path 507" class="s54" d="m618 476l4-1 3 3v6l-4 1z"/>
		<path id="Path 508" class="s21" d="m122 481l6-5h3v2l-9 5z"/>
		<path id="Path 509" class="s73" d="m315 479l9-3 3 3 2 6 3 9-3 6-5-2v-6l-6-1-2-3z"/>
		<path id="Path 510" class="s73" d="m341 487l-6-1v-10l8 2z"/>
		<path id="Path 511" class="s26" d="m625 478l6-2 2 8v2 3h-5l-3-5z"/>
		<path id="Path 512" class="s34" d="m660 477l9-1-1 6-1 8h-4l-3-1z"/>
		<path id="Path 513" class="s63" d="m241 488l-4-11h2l8 7v4z"/>
		<path id="Path 514" class="s73" d="m350 478l7-1 2 1v10h4v5l4 2v8l5 1 3 8 2 5h4l5 6 13 5v3l-10 1-2-4h-4v4h-10l-4-5-6-13v-4l-5-3-1-3v-13l-5-1z"/>
		<path id="Path 515" class="s33" d="m359 478h6l-2 10h-4z"/>
		<path id="Path 516" class="s0" d="m872 478v-1l4 12h-1l-2-5z"/>
		<path id="Path 517" class="s64" d="m122 483l9-5 4 6h8v6 5l-4 3h-4l-2-10-14-2z"/>
		<path id="Path 518" class="s58" d="m263 479l3-1 4 8-3 1z"/>
		<path id="Path 519" class="s58" d="m309 486v-8l6 1 1 9h-5z"/>
		<path id="Path 520" class="s58" d="m327 479l2-1 2 6-2 1z"/>
		<path id="Path 521" class="s39" d="m341 487l2-9h7l2 12h-2l-3-3-4 1z"/>
		<path id="Path 522" class="s24" d="m380 480l-1 6h-4l2-8z"/>
		<path id="Path 523" class="s37" d="m392 484l2-6h5v4 5h-6z"/>
		<path id="Path 524" class="s51" d="m461 482l7-4 1 17-8-3z"/>
		<path id="Path 525" class="s67" d="m871 479l1-1 1 6z"/>
		<path id="Path 526" class="s4" d="m409 482l5-3v6l-1 3h-4z"/>
		<path id="Path 527" class="s39" d="m543 488l-3-9h4z"/>
		<path id="Path 528" class="s23" d="m177 484l5-4h21l6 4 2 10v8h-6l-12-13-16-2z"/>
		<path id="Path 529" class="s58" d="m251 484l2-4 4 3v11h-9l-1-5h4z"/>
		<path id="Path 530" class="s6" d="m108 494l14-13v2l-3 3-10 8z"/>
		<path id="Path 531" class="s58" d="m295 484l3-3 5 7-3 2-5-2z"/>
		<path id="Path 532" class="s39" d="m555 486v-5h4l1 5z"/>
		<path id="Path 533" class="s39" d="m568 489v-7l5-1 1 10h-4z"/>
		<path id="Path 534" class="s64" d="m829 514l2-21 5-2 4-10h13l10 11h12l4 6 9 9 9 7h1l13 15-2 9 11 2 2 3 15 23 6 7 1 8-2 3h-17-2l-2-6-12-2h-6l-9-2-5 5h-3l-5-2-8-3h-1l-4-1-4-2h-1l-7-3h-1l-7-4h-1l-3-1h-1l-4-2-3-2h-1l-4-3-2-8-36-12v-8l-1-7 3-7h10l4 4v6l7 4 5 13 12 1 6-6v-10l-5-10z"/>
		<path id="Path 535" class="s5" d="m163 486l1-4h9l4 2v3l-7 8h-4z"/>
		<path id="Path 536" class="s72" d="m393 487h6v-5h10v6h4l2 2 2 4 1 15 6 1 2 10h6l1-7-4-2-2-6v-11l-8-1v-3l8-2h4v-4h10l8 4v4l-7 4h-6l-1 14h4l1 13h5 5l1-3h10l1 4-4 7-7 1v8h-8l-4-10-5 1-3 7h-6l-2-2v-8l-4 2h-12l-8-2-13-5-5-6v-5l8-2 1 11 7-3v-7l-6-6-1-3v-10z"/>
		<path id="Path 537" class="s46" d="m400 491l8 1v5l-2 6h-4z"/>
		<path id="Path 538" class="s74" d="m449 488l5-6h7v10l8 3 1 2v12l-3 6-6 1v4h-10v-6h-6v9h-5l-1-13 4-1-1-13 7-4z"/>
		<path id="Path 539" class="s15" d="m453 498h6v10h-6z"/>
		<path id="Path 540" class="s46" d="m667 490l1-8 2 2-1 6z"/>
		<path id="Path 541" class="s33" d="m713 485l-6 4 1-7h5z"/>
		<path id="Path 542" class="s58" d="m713 485v-3h3 8v7l-4 1z"/>
		<path id="Path 543" class="s19" d="m143 484l6-1v3l-2 4h-4z"/>
		<path id="Path 544" class="s59" d="m275 488l2-5h3l5 6v9l-4 2-7-5z"/>
		<path id="Path 545" class="s55" d="m247 488v-4h4v5h-4z"/>
		<path id="Path 546" class="s73" d="m387 492v-8h5l1 3-3 5z"/>
		<path id="Path 547" class="s25" d="m427 488v-3l4-1v4z"/>
		<path id="Path 548" class="s41" d="m587 492l-4-1v-5l5-1z"/>
		<path id="Path 549" class="s47" d="m597 496l1-9 5-3h2v11l-5 1z"/>
		<path id="Path 550" class="s58" d="m621 485l4-1 3 5-4 2-5 1-1-1z"/>
		<path id="Path 551" class="s63" d="m669 490l1-6h6l5 7-2 11h-7z"/>
		<path id="Path 552" class="s51" d="m413 488l1-3 3 4-2 1z"/>
		<path id="Path 553" class="s59" d="m779 486l4-1 2 3-2 10h-5l-3 8-3-1-1-7z"/>
		<path id="Path 554" class="s66" d="m109 494l10-8 14 2 2 10h-3l2 8-2 5-9-2-3-7h-3l-9-6z"/>
		<path id="Path 555" class="s42" d="m143 490h4l2-4h6v12l-5 10-12-3 1-7 4-3z"/>
		<path id="Path 556" class="s8" d="m155 498v-12h8l3 9-2 3z"/>
		<path id="Path 557" class="s13" d="m211 494l6-2v-6h4l4 3v7l6 5v11 4h-8l-1-7-11-7z"/>
		<path id="Path 558" class="s14" d="m267 487l3-1h2l3 2-1 7-1 1h-5l-2-2z"/>
		<path id="Path 559" class="s41" d="m305 489l4-3 2 2v5l-2 2-4-3z"/>
		<path id="Path 560" class="s34" d="m548 496l7-10h5l2 5-6 2-1 5h-5z"/>
		<path id="Path 561" class="s39" d="m633 489v-3l4 2-1 9-1 1h-5v-4l4-1z"/>
		<path id="Path 562" class="s36" d="m166 495h4l7-8 16 2 12 13-2 14-1 2h-6l-1-12-10-9-7-1-3 10h-8l-3-8z"/>
		<path id="Path 563" class="s72" d="m343 488l4-1 3 3 2 12 5 2 1 3v7l-8 2-1-8h-6l-3-4-1-8 4-3z"/>
		<path id="Path 564" class="s49" d="m759 492v-5l4 1v4z"/>
		<path id="Path 565" class="s39" d="m763 488l4-1v4l-4 1z"/>
		<path id="Path 566" class="s75" d="m240 493l1-5h6v1l1 5v3h-4z"/>
		<path id="Path 567" class="s59" d="m295 502l-2-3 2-11 5 2 1 2v9z"/>
		<path id="Path 568" class="s47" d="m300 490l3-2 2 1v3h-4z"/>
		<path id="Path 569" class="s55" d="m311 493v-5h5l2 3-2 3z"/>
		<path id="Path 570" class="s63" d="m415 490l2-1 2 1v3l-2 1z"/>
		<path id="Path 571" class="s63" d="m563 492l5-3 2 2-1 7 5 10-2 1-7-6z"/>
		<path id="Path 572" class="s73" d="m624 491l4-2h5l1 4-4 1v4 4l-6 2 1 6-2 2-5-2-3-11 2-1h6z"/>
		<path id="Path 573" class="s33" d="m692 492l5-3 2 3-1 5z"/>
		<path id="Path 574" class="s44" d="m720 490l4-1 3 1v4l-2 4h-6z"/>
		<path id="Path 575" class="s12" d="m875 492v-3h1l5 9h-2z"/>
		<path id="Path 576" class="s37" d="m357 504l-5-2-2-12h2l5 1z"/>
		<path id="Path 577" class="s59" d="m663 502v-12h4 2l3 12-1 1z"/>
		<path id="Path 578" class="s4" d="m316 494l2-3 6 1v6h-6z"/>
		<path id="Path 579" class="s74" d="m555 498l1-5 6-2 1 1 2 11 7 6 1 5-1 6-8-2v-6l-5-1-2-3-2-4z"/>
		<path id="Path 580" class="s72" d="m574 508l-5-10 1-7h4l1 2 3 14z"/>
		<path id="Path 581" class="s24" d="m615 495v-4h3l1 1-2 4z"/>
		<path id="Path 582" class="s55" d="m619 492l5-1-1 7h-6v-2z"/>
		<path id="Path 583" class="s59" d="m679 502l2-11 8 1h3l6 5 1-5 10 1 3 4-2 9-3 8h-4l-1-4 4-8-2-3h-6l-2 12v4l-3-2-4 2h-4l-6-1z"/>
		<path id="Path 584" class="s61" d="m301 501v-9h4l4 3v6l-1 3h-4z"/>
		<path id="Path 585" class="s39" d="m390 502l-8-1v-7l5-2h3z"/>
		<path id="Path 586" class="s61" d="m234 495l6-2 4 4-4 5-6-3z"/>
		<path id="Path 587" class="s49" d="m309 495l2-2 5 1 2 4-1 3h-8z"/>
		<path id="Path 588" class="s58" d="m333 494l4-1 2 3 1 8h-5l-3-2z"/>
		<path id="Path 589" class="s15" d="m417 494l2-1 8 1v11l2 6 4 2-1 7h-6l-2-10-6-1z"/>
		<path id="Path 590" class="s4" d="m578 507l-3-14 8 2 2 7 1 8-6-1z"/>
		<path id="Path 591" class="s47" d="m103 499l5-5h1l-1 2-5 4z"/>
		<path id="Path 592" class="s61" d="m255 502l2-5h7l2-3 2 2-1 8v12l-4 2h-6l-2-12z"/>
		<path id="Path 593" class="s49" d="m329 500l3-6h1l-1 8h-1z"/>
		<path id="Path 594" class="s63" d="m535 502l-1-8 5 2v5z"/>
		<path id="Path 595" class="s58" d="m725 498l2-4 4 2 5 10 4-1v7h-2l-5-4h-6l-2-1z"/>
		<path id="Path 596" class="s24" d="m273 496l1-1 7 5v7h-4l-3-3z"/>
		<path id="Path 597" class="s39" d="m372 504l-5-1v-8l5 1z"/>
		<path id="Path 598" class="s15" d="m518 498l5-3 1 9-5 1z"/>
		<path id="Path 599" class="s47" d="m613 498l2-3 2 1v2l-2 1z"/>
		<path id="Path 600" class="s64" d="m103 500l5-4 9 6-1 5 5 4 2-2 9 2-3 11-12-2-6-10h-10l-3-5z"/>
		<path id="Path 601" class="s29" d="m175 506l3-10 7 1 10 9 1 12-7 1z"/>
		<path id="Path 602" class="s67" d="m267 504l1-8h5l1 8z"/>
		<path id="Path 603" class="s48" d="m439 510h-4l1-14h6l1 13z"/>
		<path id="Path 604" class="s51" d="m503 500v-4l4 2v6h-3z"/>
		<path id="Path 605" class="s74" d="m535 502l4-1v-5h4 5l2 2v6l-1 3-6 4v5h-10l-4-5v-4z"/>
		<path id="Path 606" class="s41" d="m593 500l4-4h3v13l-5 1-2-1z"/>
		<path id="Path 607" class="s39" d="m755 502v-5l4-1v8z"/>
		<path id="Path 608" class="s59" d="m785 498l3-2 3 3v5l-4 4h-3z"/>
		<path id="Path 609" class="s34" d="m240 502l4-5h4l3 5 1 4-2 3h-7l-2-1z"/>
		<path id="Path 610" class="s51" d="m470 509v-12l5 1v6 4l-3 1z"/>
		<path id="Path 611" class="s73" d="m635 498l1-1 7 3v11l-4-1-4-8z"/>
		<path id="Path 612" class="s27" d="m710 506l2-9 6 1 1 8h-6z"/>
		<path id="Path 613" class="s42" d="m791 499l1-2 7 2v5l-6 2h-2v-2z"/>
		<path id="Path 614" class="s1" d="m134 506l-2-8h3 4l-1 7z"/>
		<path id="Path 615" class="s1" d="m150 508l5-10h9l3 8 3 18-2 2-5-3-4-9h-9z"/>
		<path id="Path 616" class="s75" d="m309 501h8l1-3h6l5 2 2 2-4 7 3 7v5l-8 5-1 4h-9l-9 12h-6v-12-10l4-2 3-14h4z"/>
		<path id="Path 617" class="s37" d="m487 504v-6l4 2v6z"/>
		<path id="Path 618" class="s74" d="m503 500l1 4h3v-6h11l1 7-8 7h-9l-7 2 1 6h-12v-4h-5l-7-2v-5l3-1v-4h12l4 2v-6z"/>
		<path id="Path 619" class="s37" d="m550 504v-6h5v6z"/>
		<path id="Path 620" class="s4" d="m608 507l-1-9h6l2 1 3 11h-1z"/>
		<path id="Path 621" class="s58" d="m630 502v-4h5v4z"/>
		<path id="Path 622" class="s49" d="m719 506l-1-8h1 6v9l-4 1z"/>
		<path id="Path 623" class="s58" d="m741 504l1-6h4l1 4z"/>
		<path id="Path 624" class="s53" d="m771 506l-4-3 1-5h3l1 7z"/>
		<path id="Path 625" class="s61" d="m775 506l3-8h5 2l-1 10h-3l-4-2z"/>
		<path id="Path 626" class="s11" d="m888 507l-9-9h2l7 7z"/>
		<path id="Path 627" class="s6" d="m93 509l1-5 9-5v1l-5 5z"/>
		<path id="Path 628" class="s17" d="m231 501l3-2 6 3 1 6-4 4h-6z"/>
		<path id="Path 629" class="s27" d="m696 511l2-12h6l2 3-4 8z"/>
		<path id="Path 630" class="s74" d="m585 502l2-2h6v9l-6 3v6l-8-1v-2l1-6 6 1z"/>
		<path id="Path 631" class="s4" d="m643 511v-11l12 10h3l5-8 8 1-1 10 7 1v6 5l-15 11-3 5v13l-8 3 2 9-4-1-2-1 2-31-4-16z"/>
		<path id="Path 632" class="s47" d="m295 502l6-1 3 3-3 14-4 2-6-6v-4l4-1z"/>
		<path id="Path 633" class="s22" d="m123 509l-2 2-5-4 1-5h3z"/>
		<path id="Path 634" class="s17" d="m203 516l2-14h6l11 7 1 7h8v9l-2 11-4 2-8-5v-6l-3-2-2-9z"/>
		<path id="Path 635" class="s4" d="m252 506l-1-4h4v4z"/>
		<path id="Path 636" class="s39" d="m330 516l-3-7 4-7h1l3 2-3 11z"/>
		<path id="Path 637" class="s47" d="m625 510l-1-6 6-2h5l4 8-2 2-10-1z"/>
		<path id="Path 638" class="s67" d="m671 503l1-1h7v12h-2l-7-1z"/>
		<path id="Path 639" class="s18" d="m741 504l6-2h8l4 2v2 6l-6-2-1-3h-3v3l-2 4h-4l-3-2v-7z"/>
		<path id="Path 640" class="s47" d="m267 516v-12h7l3 3v5l-4 4z"/>
		<path id="Path 641" class="s73" d="m332 515l3-11h5l3 4v8z"/>
		<path id="Path 642" class="s55" d="m519 505l5-1 5 3v4l-2 9-2 3-9 1-5-5v-7z"/>
		<path id="Path 643" class="s15" d="m549 507l1-3h5l2 4h-6z"/>
		<path id="Path 644" class="s27" d="m787 508l4-4v2l-2 2z"/>
		<path id="Path 645" class="s42" d="m93 509l5-4 3 5h10l6 10h-6l-6-5h-6l-2 5-8 5v15h-6l-1-5v-12l1-2z"/>
		<path id="Path 646" class="s8" d="m134 506l4-1 12 3v6l-15 16-17 3-3-5h-6l-4-8h-8l2-5h6l6 5h6l12 2 3-11z"/>
		<path id="Path 647" class="s63" d="m389 510l2-5 6 6v7l-7 3z"/>
		<path id="Path 648" class="s14" d="m771 506l1-1 3 1h2v8l4-1 6 1v7l-3 7v8h-1l-4-2-9-3-3-2-3-3v-8l3-5z"/>
		<path id="Path 649" class="s3" d="m888 507v-2l9 9z"/>
		<path id="Path 650" class="s54" d="m170 524l-3-18h8l14 13 7-1h6l5 8v6h-6l-4-6h-9l-4-4z"/>
		<path id="Path 651" class="s58" d="m243 509h7l2-3h3l2 12-11-1z"/>
		<path id="Path 652" class="s24" d="m702 510l1 4h4l3-8h3l1 7-4 3v5l7 1v5l-13 1-2 3-12 1h-6l-1 8v6h-4-7l-5 8h-8v-13l3-5 15-11 8-3h6l-2-7 4-2 3 2v-4z"/>
		<path id="Path 653" class="s59" d="m714 513l-1-7h6l2 2v4l-4 2z"/>
		<path id="Path 654" class="s39" d="m759 512v-6h4l4 7-3 5h-5z"/>
		<path id="Path 655" class="s48" d="m781 513l-4 1v-8l4 2z"/>
		<path id="Path 656" class="s48" d="m789 508l2-2h2v7l-4 1z"/>
		<path id="Path 657" class="s41" d="m273 516l4-4v-5h4l4 13h3l3-6 6 6v10h-14l-10-2z"/>
		<path id="Path 658" class="s37" d="m358 514v-7l5 3v4z"/>
		<path id="Path 659" class="s51" d="m543 516v-5l6-4 2 1-1 8z"/>
		<path id="Path 660" class="s72" d="m551 508h6l2 3-1 7-2 4-3 1-3-7z"/>
		<path id="Path 661" class="s15" d="m574 508l4-1 2 2-1 6-6-1-1-5z"/>
		<path id="Path 662" class="s59" d="m605 509l3-2 9 3 1 8h-9l-4-4z"/>
		<path id="Path 663" class="s60" d="m721 508l4-1 2 1v5l-2 9h-8v-8l4-2z"/>
		<path id="Path 664" class="s47" d="m749 510v-3h3l1 3z"/>
		<path id="Path 665" class="s53" d="m231 512h6l4-4 2 1 3 8-5 4h-4v4h-6v-9z"/>
		<path id="Path 666" class="s37" d="m343 516v-8h6l1 8v4z"/>
		<path id="Path 667" class="s48" d="m727 513v-5h6l5 4-1 6h-4z"/>
		<path id="Path 668" class="s17" d="m781 513v-5h3 3 2v6h-2z"/>
		<path id="Path 669" class="s6" d="m83 520l10-11-10 12z"/>
		<path id="Path 670" class="s63" d="m467 515l3-6h2v5l-3 2z"/>
		<path id="Path 671" class="s4" d="m587 518v-6l6-3 2 1v3l-3 7z"/>
		<path id="Path 672" class="s73" d="m595 510l5-1h5v5l-3 2-7-3z"/>
		<path id="Path 673" class="s58" d="m618 518l-1-8h1l5 2 2-2 2 1 1 11-7 1-3 11h-5l2-7 4-5z"/>
		<path id="Path 674" class="s18" d="m627 511l10 1v7l-4 3h-5z"/>
		<path id="Path 675" class="s58" d="m637 512l2-2 4 1 2 6-8 2z"/>
		<path id="Path 676" class="s58" d="m743 514h4l2-4h4l6 2v6l-6 6h-8l-2-4z"/>
		<path id="Path 677" class="s71" d="m527 520l2-9 4 5v4z"/>
		<path id="Path 678" class="s41" d="m558 518l1-7 5 1v6z"/>
		<path id="Path 679" class="s34" d="m381 517h-4l-2-5h6z"/>
		<path id="Path 680" class="s41" d="m496 520l-1-6 7-2v8l1 6h-5-3z"/>
		<path id="Path 681" class="s76" d="m502 520v-8h9v7z"/>
		<path id="Path 682" class="s67" d="m737 518l1-6h2l3 2v6h-6z"/>
		<path id="Path 683" class="s49" d="m587 518l5 2 3-7 7 3 1 5-4 5-14 2-7-2v3l-10-1-5 6h-6l-1-12 2-4h6l8 2 7-3z"/>
		<path id="Path 684" class="s15" d="m717 522l-7-1v-5l4-3 3 1z"/>
		<path id="Path 685" class="s4" d="m725 522l2-9 6 5-4 4z"/>
		<path id="Path 686" class="s36" d="m789 514l4-1 2 1-3 7h-5v-7z"/>
		<path id="Path 687" class="s22" d="m118 533l17-3 15-16h9l4 9 5 3-1 13-3 3h-7l-2 4-13 3-15 11h-5l-4-7-9-1-4-12 4-4z"/>
		<path id="Path 688" class="s55" d="m350 516l8-2h5l6 13-1 5-7 2-11-14z"/>
		<path id="Path 689" class="s39" d="m445 523v-9h6v6l-1 3z"/>
		<path id="Path 690" class="s72" d="m469 516l3-2 7 2v6h-10z"/>
		<path id="Path 691" class="s41" d="m572 520l1-6 6 1v2z"/>
		<path id="Path 692" class="s47" d="m602 516l3-2 4 4v4l-6-1z"/>
		<path id="Path 693" class="s39" d="m677 520v-6h2l6 1v5z"/>
		<path id="Path 694" class="s43" d="m809 518h14l6-4 5 2 5 10v10l-6 6-12-1-5-13-7-4z"/>
		<path id="Path 695" class="s12" d="m911 529l-13-15 13 9 8 14z"/>
		<path id="Path 696" class="s67" d="m330 516l2-1 11 1 7 4 11 14 2 26-14 2-4-5h-6l-2 6-4 2-7-6-4 5h-2l-7-9-4 7h-4l-4-6v-4l-4-2v-8h6l9-12h9l1-4 8-5z"/>
		<path id="Path 697" class="s39" d="m461 520v-4l6-1 2 1v6 2h-7z"/>
		<path id="Path 698" class="s75" d="m685 520v-5h4l2 7h-6z"/>
		<path id="Path 699" class="s16" d="m202 518l1-2h9l2 9-7 1z"/>
		<path id="Path 700" class="s58" d="m263 518l4-2h6v12l10 2-2 6-16-3z"/>
		<path id="Path 701" class="s22" d="m479 522v-6h5v4 5l-5 2z"/>
		<path id="Path 702" class="s72" d="m533 520v-4h10v3l-3 3z"/>
		<path id="Path 703" class="s39" d="m543 519v-3h7l3 7 3-1 1 12v2h-6l-1-13-5-2z"/>
		<path id="Path 704" class="s27" d="m241 521l5-4 11 1h6l2 15 16 3 6 14h-10v-6l-4-5h-14l-8 4-5-2-5-15z"/>
		<path id="Path 705" class="s75" d="m637 519l8-2 4 16-2 31-3 1-2-2-5-1v-6l-6-2v-8l5-3-3-21z"/>
		<path id="Path 706" class="s18" d="m609 522v-4h9l1 4-4 5z"/>
		<path id="Path 707" class="s27" d="m729 522l4-4h4v2 6h-8z"/>
		<path id="Path 708" class="s54" d="m753 524l6-6h5v8h-3-5z"/>
		<path id="Path 709" class="s49" d="m502 520l9-1 5 5-7 5h-5l-1-3z"/>
		<path id="Path 710" class="s18" d="m533 520l7 2 3-3 2 2-2 13h-6l-5 6-15-2-5 5v6l-9 1-7-8v-4l2-12h5l1 3v6l5 2v-8l7-5 9-1 2-3z"/>
		<path id="Path 711" class="s9" d="m81 521l2-1v1l-1 2h-1z"/>
		<path id="Path 712" class="s10" d="m89 540v-15l8-5h8l4 8v8l-4 4h-14z"/>
		<path id="Path 713" class="s73" d="m484 525v-5h12l-1 6z"/>
		<path id="Path 714" class="s58" d="m677 525v-5h8v2z"/>
		<path id="Path 715" class="s54" d="m737 526v-6h6l2 4-5 2z"/>
		<path id="Path 716" class="s67" d="m237 525v-4h4v5z"/>
		<path id="Path 717" class="s49" d="m543 534l2-13 5 2 1 13-1 2h-5z"/>
		<path id="Path 718" class="s67" d="m585 528l14-2 4-5 6 1 6 5-2 7-13 10-1 10-40 6v-6l-10-6-7 2-15-2-2 4h-8l-5-3v-6l5-5 15 2 5-6h6l2 4h5l6 3 1-5v-2h6l5-6 10 1z"/>
		<path id="Path 719" class="s19" d="m784 528l3-7h5l1 7z"/>
		<path id="Path 720" class="s61" d="m170 524l14-2 4 4h9l4 6v4l-6 5v11l-7 2-3-4h-22l-8-4 2-4h7l3-3 1-13z"/>
		<path id="Path 721" class="s73" d="m469 524v-2h10v5 7h-3l-4-1-1-1z"/>
		<path id="Path 722" class="s67" d="m618 534l3-11 7-1h5l3 21-5 3-11-2z"/>
		<path id="Path 723" class="s56" d="m717 527v-5h8v4l-2 2-1 1z"/>
		<path id="Path 724" class="s54" d="m725 526v-4h4v4z"/>
		<path id="Path 725" class="s68" d="m81 535v-12h1v12z"/>
		<path id="Path 726" class="s55" d="m458 531l4-7h7l2 8h-7l-1 6h-4z"/>
		<path id="Path 727" class="s6" d="m740 526l5-2h8l3 2z"/>
		<path id="Path 728" class="s53" d="m207 526l7-1 3 2v6h-2l-8-1z"/>
		<path id="Path 729" class="s47" d="m229 536l2-11h6l4 1 5 15-9 2-3-6z"/>
		<path id="Path 730" class="s49" d="m479 527l5-2 11 1h3l-2 12h-3v-7l-6-1v6l-8-2z"/>
		<path id="Path 731" class="s18" d="m578 529v-3l7 2z"/>
		<path id="Path 732" class="s6" d="m723 528l2-2h4z"/>
		<path id="Path 733" class="s7" d="m769 585h1v1h-1z"/>
		<path id="Path 734" class="s3" d="m767 530l-6-4h3l3 3z"/>
		<path id="Path 735" class="s63" d="m368 532l1-5 4 5z"/>
		<path id="Path 736" class="s5" d="m702 531l2-3 13-1 5 2h1l2 2 4 4-4 2-11 1-1 10-7 5-3 7h-8l-5-4-3-3v-7l3-3 9-3 4-4z"/>
		<path id="Path 737" class="s36" d="m109 536v-8h6l3 5z"/>
		<path id="Path 738" class="s46" d="m383 532v-4h4l2 4-2 2z"/>
		<path id="Path 739" class="s63" d="m399 531v-3l8 2v4h-6z"/>
		<path id="Path 740" class="s39" d="m419 530l4-2v8l-4-1z"/>
		<path id="Path 741" class="s5" d="m784 536v-8h9v8 3z"/>
		<path id="Path 742" class="s41" d="m509 529v8l-5-2v-6z"/>
		<path id="Path 743" class="s6" d="m725 531l-2-2 3 1z"/>
		<path id="Path 744" class="s77" d="m767 530v-1l3 2z"/>
		<path id="Path 745" class="s19" d="m920 540l-11-2 2-9 8 8z"/>
		<path id="Path 746" class="s4" d="m281 536l2-6h14v12 8l-6 1-4-1z"/>
		<path id="Path 747" class="s73" d="m407 534v-4h12v5l4 1 2 2v11l6 3-1 6h-9v-5l-12-9z"/>
		<path id="Path 748" class="s59" d="m425 538h6l3-7 5-1 4 10h8 4v10l3 2-1 10h-2l-6 3-19-1v-6l1-6-6-3z"/>
		<path id="Path 749" class="s47" d="m487 536v-6l6 1v7l-3 2z"/>
		<path id="Path 750" class="s78" d="m725 531l1-1 6 2v6l-3-3z"/>
		<path id="Path 751" class="s49" d="m389 532l10-1 2 3h6l2 10-9 3-13-1v-12z"/>
		<path id="Path 752" class="s34" d="m451 540v-8l7-1 1 7-4 2z"/>
		<path id="Path 753" class="s30" d="m683 540l1-8h6l-1 8z"/>
		<path id="Path 754" class="s14" d="m690 532l12-1 1 5-4 4-9 3-1-3z"/>
		<path id="Path 755" class="s1" d="m195 552v-11l6-5v-4h6l8 1v6l8 3 2 6 16 2v6h-24l-4-6z"/>
		<path id="Path 756" class="s59" d="m361 534l7-2h5 10l4 2v12l3 14-1 5-10 1-7-6h-9z"/>
		<path id="Path 757" class="s49" d="m463 538l1-6h7l1 1 2 6 3 9-4 3z"/>
		<path id="Path 758" class="s54" d="m223 542l-8-3v-6h2l8 5z"/>
		<path id="Path 759" class="s47" d="m474 539l-2-6 4 1z"/>
		<path id="Path 760" class="s18" d="m474 539l2-5h3l8 2 3 4 3 4-2 6-14-2z"/>
		<path id="Path 761" class="s48" d="m599 554l1-10 13-10h5l2 10 11 2v8l-4 2h-10-12z"/>
		<path id="Path 762" class="s78" d="m81 540v-5h1l1 5z"/>
		<path id="Path 763" class="s50" d="m725 537l4-2 3 3v1l1 7-7 2z"/>
		<path id="Path 764" class="s4" d="m225 538l4-2 5 1 3 6 9-2 5 2v5l-10 2-16-2-2-6z"/>
		<path id="Path 765" class="s18" d="m550 538l1-2h6l-1 5z"/>
		<path id="Path 766" class="s13" d="m687 546v7l3 3 5 4h8l3-7 7-5 1-10 11-1 1 11-4 17-12 3-4 8h-5l-16-9-6-21h4z"/>
		<path id="Path 767" class="s32" d="m799 543l-15-7 9 3z"/>
		<path id="Path 768" class="s43" d="m793 539v-3l36 12 2 8h-3l-5-2-6-3-11-5-3-2-4-1z"/>
		<path id="Path 769" class="s9" d="m920 540l-1-3 5 6h-2z"/>
		<path id="Path 770" class="s18" d="m455 540l4-2h4l10 13-1 5h-5l-2-4h-7l-3-2z"/>
		<path id="Path 771" class="s4" d="m490 540l3-2h3v4l7 8v9l-5 3-11-2 4-10 2-6z"/>
		<path id="Path 772" class="s14" d="m251 543l8-4h14l4 5v6 6l-11-1-3-3h-9l-3-4z"/>
		<path id="Path 773" class="s78" d="m733 546l-1-7 5 9z"/>
		<path id="Path 774" class="s11" d="m81 544v-4h2v4z"/>
		<path id="Path 775" class="s16" d="m83 544v-4h6 2l-1 15-2-2-2-2-1-1-2-4z"/>
		<path id="Path 776" class="s14" d="m90 555l1-15h14l4 12-4 8h-2-1-1l-10-2z"/>
		<path id="Path 777" class="s53" d="m683 546v-6h6l1 3-3 3z"/>
		<path id="Path 778" class="s69" d="m803 545l-4-2 4 1z"/>
		<path id="Path 779" class="s6" d="m937 566l-15-23h2l15 23z"/>
		<path id="Path 780" class="s9" d="m81 546v-2h2v2z"/>
		<path id="Path 781" class="s72" d="m400 547l9-3 12 9v5 7l-2 3-10-4-8-9z"/>
		<path id="Path 782" class="s77" d="m803 545v-1l3 2z"/>
		<path id="Path 783" class="s29" d="m127 560l15-11 13-3 8 4h22l3 4 7-2 18-2 4 6h24l2 2-6 23h-3l-4-1-25-4-5-1-21-1-8-1-7-1-10-1h-10l-6-1-9-1z"/>
		<path id="Path 784" class="s55" d="m390 560l-3-14 13 1 1 8-4 5z"/>
		<path id="Path 785" class="s17" d="m667 554l5-8h7l6 21 16 9h5l4-8 12-3 4-17 7-2 4 2 2 2v1 1l3 5v2 1l-1 3 3 1 2 2v1 2 4l-11 7h-17l-3 8h-2l-4-2-22-7-7-3-7-4v-7l-6-5z"/>
		<path id="Path 786" class="s20" d="m738 550h1v1h-1z"/>
		<path id="Path 787" class="s32" d="m816 551l-10-5 11 5z"/>
		<path id="Path 788" class="s54" d="m241 550l10-2 3 4v5l-1 1h-10l-2-2z"/>
		<path id="Path 789" class="s67" d="m473 551l4-3 14 2-4 10-9 2-6-6z"/>
		<path id="Path 790" class="s48" d="m525 552l2-4 15 2 7-2 10 6v6l-12 2-10-2h-11z"/>
		<path id="Path 791" class="s48" d="m503 550l9-1 5 3v8l-14-1z"/>
		<path id="Path 792" class="s53" d="m277 556v-6h10l4 1 2 8 8-3 4 6h4l2 6v2l-24-6z"/>
		<path id="Path 793" class="s15" d="m291 551l6-1 4 2v4l-8 3z"/>
		<path id="Path 794" class="s0" d="m823 554l-3 1-4-4h1z"/>
		<path id="Path 795" class="s17" d="m105 560l4-8 9 1 4 7-3 1v9l-5 1h-7l-4-2v-5l1-2z"/>
		<path id="Path 796" class="s50" d="m254 557v-5h9l3 3-1 5h-6l-1-3z"/>
		<path id="Path 797" class="s67" d="m457 562l1-10h7l2 4-2 6h-5z"/>
		<path id="Path 798" class="s60" d="m517 560v-8h8l1 8z"/>
		<path id="Path 799" class="s58" d="m559 560l40-6 6 2 1 12-8 3-8 1-11 1-1 1h-9l-2-6h-19l-1-2v-4z"/>
		<path id="Path 800" class="s27" d="m627 556l4-2 6 2v6l-3 1h-3l-4 1z"/>
		<path id="Path 801" class="s53" d="m653 566l-2-9 8-3h8v6l6 5v7l-1 1h-1l-3-2h-2l-6-2-2-1z"/>
		<path id="Path 802" class="s43" d="m265 560l1-5 11 1 10 8 24 6v10l-22-2-3-7z"/>
		<path id="Path 803" class="s14" d="m309 562l4-7 7 9-3 4h-6z"/>
		<path id="Path 804" class="s63" d="m390 560h7l4-5 8 9 10 4 1 2-10 3-4-5-15 1-2-4z"/>
		<path id="Path 805" class="s58" d="m465 562l2-6h5l6 6h-1-10z"/>
		<path id="Path 806" class="s27" d="m606 568l-1-12h12v10l-4 1-6 1z"/>
		<path id="Path 807" class="s24" d="m617 566v-10h10v8h-1l-5 2z"/>
		<path id="Path 808" class="s3" d="m835 559l-3 1-4-4h3z"/>
		<path id="Path 809" class="s16" d="m253 558l1-1h4l1 3v6h-6z"/>
		<path id="Path 810" class="s60" d="m337 563l2-6h6l4 5v4h-9z"/>
		<path id="Path 811" class="s36" d="m237 581l6-23h10v8l-4 5v12h-4l-6-2z"/>
		<path id="Path 812" class="s52" d="m421 565v-7h9v6z"/>
		<path id="Path 813" class="s27" d="m322 564l4-5 7 6v3z"/>
		<path id="Path 814" class="s24" d="m498 562l5-3 14 1h9 11l2 6h8l1 2-1 10 7 6v2l-17 2v-12l-6-6h-7l-6-4-5 2h-11z"/>
		<path id="Path 815" class="s20" d="m742 560v-1l2 3z"/>
		<path id="Path 816" class="s47" d="m101 560h1v1h-1z"/>
		<path id="Path 817" class="s32" d="m102 560h1v1h-1z"/>
		<path id="Path 818" class="s47" d="m103 561v-1h2l-1 2z"/>
		<path id="Path 819" class="s16" d="m119 570v-9l3-1h5l2 9z"/>
		<path id="Path 820" class="s17" d="m259 566v-6h6l21 11 3 7-3 6h-20l-7-8z"/>
		<path id="Path 821" class="s39" d="m349 562l14-2h9l7 6v4l-22 1-8-5z"/>
		<path id="Path 822" class="s38" d="m478 562l9-2 11 2 4 6h11v12h-5l-2 5-7-2-4-7-2-8-16-2v-4z"/>
		<path id="Path 823" class="s39" d="m547 566h-8l-2-6 10 2z"/>
		<path id="Path 824" class="s1" d="m744 564l-3-1 1-3 2 2z"/>
		<path id="Path 825" class="s32" d="m107 571l-8-2v-5l4-3 1 1-1 2-2 5h2z"/>
		<path id="Path 826" class="s27" d="m449 565l6-3v12l-8-1z"/>
		<path id="Path 827" class="s58" d="m455 574v-12h2 3v6l7 3v1 3h-8z"/>
		<path id="Path 828" class="s53" d="m467 571l-7-3v-6h5 2z"/>
		<path id="Path 829" class="s79" d="m467 571v-9h10v4 6h-10z"/>
		<path id="Path 830" class="s65" d="m634 563l3-1 5 1z"/>
		<path id="Path 831" class="s77" d="m744 564v-2l2 4z"/>
		<path id="Path 832" class="s14" d="m333 565l4-2 3 3h9l8 5v5l-2 2-14-2-8-8z"/>
		<path id="Path 833" class="s65" d="m627 564l4-1-5 2v-1z"/>
		<path id="Path 834" class="s16" d="m103 569h-2l2-5z"/>
		<path id="Path 835" class="s53" d="m317 568l3-4h2l11 4 8 8 14 2 2-2 19 8 20-4h20l3 3v5h-11v6h-20-3l-13-2-11-1h-10-4-1l-2 1 3 2-1 4-19-7-2-15z"/>
		<path id="Path 836" class="s67" d="m421 565l9-1 19 1-2 8h-2-10l-15-3-1-2z"/>
		<path id="Path 837" class="s68" d="m621 566l5-2v1z"/>
		<path id="Path 838" class="s80" d="m644 565l3-1 2 1z"/>
		<path id="Path 839" class="s58" d="m379 566l10-1 2 4-4 3-8-2z"/>
		<path id="Path 840" class="s23" d="m249 583v-12l4-5h6v10l-5 3v4z"/>
		<path id="Path 841" class="s50" d="m477 572v-6l16 2 2 8-6 1 1 6-31 9h-4l4-17h8l13 2z"/>
		<path id="Path 842" class="s30" d="m513 568l5-2 6 4-1 6-6 4h-4z"/>
		<path id="Path 843" class="s11" d="m943 573l-6-7h2l6 7z"/>
		<path id="Path 844" class="s77" d="m746 569v-2l5 2-1 2z"/>
		<path id="Path 845" class="s50" d="m311 570v-2h6l8 8 2 15-16-3v-8z"/>
		<path id="Path 846" class="s54" d="m391 569l15-1 4 5 10-3 15 3-16 10-3-3h-20l-20 4-19-8v-5l22-1 8 2z"/>
		<path id="Path 847" class="s27" d="m547 578l1-10h19l2 6-4 1z"/>
		<path id="Path 848" class="s69" d="m598 571l8-3h1z"/>
		<path id="Path 849" class="s32" d="m660 570l-2-2 2 1z"/>
		<path id="Path 850" class="s68" d="m119 570l10-1 9 1-24 1z"/>
		<path id="Path 851" class="s69" d="m660 570v-1l6 2z"/>
		<path id="Path 852" class="s1" d="m746 573v-4l4 2 2 3v1z"/>
		<path id="Path 853" class="s56" d="m517 580l6-4 1-6h7l6 6v12l-5 2v3l-15-5z"/>
		<path id="Path 854" class="s65" d="m164 573l-10-2 10 1z"/>
		<path id="Path 855" class="s68" d="m164 573v-1l7 1z"/>
		<path id="Path 856" class="s67" d="m171 573l8 1-6 1z"/>
		<path id="Path 857" class="s27" d="m467 575v-3h10l3 5z"/>
		<path id="Path 858" class="s69" d="m672 573l1-1 7 4z"/>
		<path id="Path 859" class="s16" d="m419 583l16-10h10v5l-6 8-20 2z"/>
		<path id="Path 860" class="s17" d="m439 586l6-8v-5h2l8 1 4 1-4 17h-2-10z"/>
		<path id="Path 861" class="s38" d="m715 588l3-8h17l11-7 6 2 2 1 1 5v11l-9 2h-8-2-4l-3-1-4-1z"/>
		<path id="Path 862" class="s65" d="m750 594h-12 8z"/>
		<path id="Path 863" class="s4" d="m944 581l-1-8h2v3z"/>
		<path id="Path 864" class="s7" d="m945 576v-3l2 2v1z"/>
		<path id="Path 865" class="s65" d="m173 575l6-1 21 1z"/>
		<path id="Path 866" class="s68" d="m565 575l4-1h9z"/>
		<path id="Path 867" class="s77" d="m752 575v-1l3 2h-1z"/>
		<path id="Path 868" class="s36" d="m881 578h-5l-3-4 8 3z"/>
		<path id="Path 869" class="s42" d="m889 579l5-5 9 2v4l-6 1h-1-5z"/>
		<path id="Path 870" class="s10" d="m254 583v-4l5-3 7 8v4l-3-2-7-2z"/>
		<path id="Path 871" class="s14" d="m490 583l-1-6 6-1 4 7z"/>
		<path id="Path 872" class="s71" d="m755 581l-1-5h1l11 8-1 1z"/>
		<path id="Path 873" class="s19" d="m903 580v-4h6v6h-1-4z"/>
		<path id="Path 874" class="s42" d="m909 582v-6l12 2 2 6h-6z"/>
		<path id="Path 875" class="s6" d="m944 581l1-5h2v6l-1 1-1 1-20 1v-1h17z"/>
		<path id="Path 876" class="s0" d="m945 583h1v1h-1z"/>
		<path id="Path 877" class="s0" d="m946 582h1v1h-1z"/>
		<path id="Path 878" class="s47" d="m881 578v-1l5 2h-4z"/>
		<path id="Path 879" class="s13" d="m286 584l3-6 22 2v8l-25-2z"/>
		<path id="Path 880" class="s65" d="m891 581l-9-2h4 3z"/>
		<path id="Path 881" class="s14" d="m506 585l2-5h5 4v8z"/>
		<path id="Path 882" class="s47" d="m897 581l6-1 1 2h-2z"/>
		<path id="Path 883" class="s14" d="m755 592v-11l10 4v7 1h-3-1z"/>
		<path id="Path 884" class="s20" d="m902 583l-6-2h1l5 1z"/>
		<path id="Path 885" class="s68" d="m902 583v-1h2 4v1z"/>
		<path id="Path 886" class="s48" d="m908 583v-1h1l8 2z"/>
		<path id="Path 887" class="s20" d="m256 584l-7-1h5z"/>
		<path id="Path 888" class="s66" d="m459 592l31-9h9l7 2 11 3 15 5 1 5-2 16-14 25-9-2v-1l-9-7 14-16v-14l-8-7-20-2-19 19-9-6z"/>
		<path id="Path 889" class="s0" d="m917 585l-9-2 9 1z"/>
		<path id="Path 890" class="s66" d="m266 588v-4h20v2l-6 4-1 6h-3l-2-1-6-6h-1z"/>
		<path id="Path 891" class="s6" d="m554 586v-2l3 4z"/>
		<path id="Path 892" class="s47" d="m765 585l1-1 3 1 1 1v4l-1 1-4 1z"/>
		<path id="Path 893" class="s62" d="m917 585v-1h6 2v1z"/>
		<path id="Path 894" class="s7" d="m267 589l-2 1-2-4 3 2z"/>
		<path id="Path 895" class="s81" d="m279 596l1-6 6-4 25 2 16 3 19 7 1 1 1 15v3 10l-5 4h-1-1-6-1-5l-8-3h-1l-1-3-3 1-4-2h-1l-8-5-2-1v-3l-5-1z"/>
		<path id="Path 896" class="s10" d="m419 588l20-2 4 6v5h-3l-5-2-24-1h-3v-6z"/>
		<path id="Path 897" class="s60" d="m537 588l17-2 3 2 1 5 2 2v1l2 3v2l-2 1-4-1-8-2-12-3-1 2h-2l-1-5v-3z"/>
		<path id="Path 898" class="s69" d="m347 594l-3-2 2-1z"/>
		<path id="Path 899" class="s81" d="m466 609l19-19 20 2 8 7v14l-14 16h-3l-19-10-1-1 1-2-5-2-5-3z"/>
		<path id="Path 900" class="s69" d="m372 593l-11-2 11 1z"/>
		<path id="Path 901" class="s20" d="m765 592l4-1-4 2z"/>
		<path id="Path 902" class="s68" d="m372 593v-1l13 2z"/>
		<path id="Path 903" class="s5" d="m443 597v-5h10v10l-2-1h-1l-5-3z"/>
		<path id="Path 904" class="s43" d="m453 602v-10h2 4l-2 11h-1z"/>
		<path id="Path 905" class="s41" d="m746 594l9-2 6 1-10 1h-1z"/>
		<path id="Path 906" class="s20" d="m751 594l10-1h1z"/>
		<path id="Path 907" class="s11" d="m346 598l1-4 2 4-2 1z"/>
		<path id="Path 908" class="s20" d="m411 595l-23-1h20 3z"/>
		<path id="Path 909" class="s68" d="m411 595v-1l24 1z"/>
		<path id="Path 910" class="s6" d="m296 615h-3l-17-19h3l17 18z"/>
		<path id="Path 911" class="s65" d="m535 598l1-2 1 3z"/>
		<path id="Path 912" class="s68" d="m445 599l-5-2h3l2 1z"/>
		<path id="Path 913" class="s78" d="m347 599l2-1-1 16z"/>
		<path id="Path 914" class="s69" d="m445 599v-1l5 3z"/>
		<path id="Path 915" class="s43" d="m517 639l14-25 2-16h2l2 1 3 3 2 4 1 8v5 5h-7l-12 18-6-1z"/>
		<path id="Path 916" class="s65" d="m540 602l-3-3 3 2z"/>
		<path id="Path 917" class="s80" d="m562 601v-2l2 2z"/>
		<path id="Path 918" class="s69" d="m456 605l-5-4 2 1 3 1z"/>
		<path id="Path 919" class="s62" d="m540 602v-1l2 5z"/>
		<path id="Path 920" class="s11" d="m456 605v-2h1l9 6 1 2h-1z"/>
		<path id="Path 921" class="s77" d="m472 616l-6-5h1l5 3z"/>
		<path id="Path 922" class="s82" d="m296 615v-1l5 1v3z"/>
		<path id="Path 923" class="s83" d="m472 616v-2l5 2-1 2z"/>
		<path id="Path 924" class="s84" d="m543 619v-5l1 5z"/>
		<path id="Path 925" class="s77" d="m343 631l5-4v-10l3 1v9z"/>
		<path id="Path 926" class="s69" d="m496 630l-19-11 19 10z"/>
		<path id="Path 927" class="s68" d="m543 624v-5h1v5z"/>
		<path id="Path 928" class="s50" d="m524 642l12-18h7l2 9v4 7l-8 3h-1l-5-1h-1-1-1-2z"/>
		<path id="Path 929" class="s22" d="m545 633l-2-9h1l1 2z"/>
		<path id="Path 930" class="s6" d="m316 626l3-1 1 3z"/>
		<path id="Path 931" class="s68" d="m545 633v-7l1 11h-1z"/>
		<path id="Path 932" class="s11" d="m496 630v-1h3l9 7z"/>
		<path id="Path 933" class="s71" d="m335 631h6l-6 1z"/>
		<path id="Path 934" class="s0" d="m334 631h1v1h-1z"/>
		<path id="Path 935" class="s0" d="m335 632l6-1h1z"/>
		<path id="Path 936" class="s68" d="m508 637l9 2 1 2z"/>
		<path id="Path 937" class="s85" d="m545 644v-7h1l1 7z"/>
		<path id="Path 938" class="s11" d="m518 641l6 1 2 4z"/>
		<path id="Path 939" class="s78" d="m537 647l8-3h2v2l-1 1v1h-9z"/>
		<path id="Path 940" class="s86" d="m546 646h1v1h-1z"/>
		<path id="Path 941" class="s87" d="m528 648v-2h1l1 1v1z"/>
		<path id="Path 942" class="s28" d="m529 646h1v1h-1z"/>
		<path id="Path 943" class="s88" d="m530 646h1v1h-1z"/>
		<path id="Path 944" class="s11" d="m531 647v-1l5 1-1 1h-4z"/>
		<path id="Path 945" class="s89" d="m535 647h1v1h-1z"/>
		<path id="Path 946" class="s12" d="m530 647h1v1h-1z"/>
		<path id="Path 947" class="s80" d="m536 647h1v1h-1z"/>
		<path id="Path 948" class="s89" d="m546 647h1v1h-1z"/>
	</g>
</svg>