<svg version="1.2" xmlns="http://www.w3.org/2000/svg" viewBox="0 0 1000 1000" width="1000" height="1000">
	<title>Catostomus_commersoni</title>
	<style>
		.s0 { opacity: .2;fill: #cdcdd0 } 
		.s1 { opacity: 1;fill: #353930 } 
		.s2 { opacity: .2;fill: #e1e0e2 } 
		.s3 { opacity: .6;fill: #cccbcd } 
		.s4 { fill: #a09a91 } 
		.s5 { fill: #aba39c } 
		.s6 { fill: #a4a4a3 } 
		.s7 { opacity: .4;fill: #e2dfe1 } 
		.s8 { opacity: 1;fill: #9a8f7e } 
		.s9 { opacity: .4;fill: #acaba9 } 
		.s10 { opacity: 1;fill: #8e8575 } 
		.s11 { fill: #9a9a99 } 
		.s12 { opacity: .6;fill: #dfdddf } 
		.s13 { opacity: 1;fill: #827866 } 
		.s14 { fill: #938f86 } 
		.s15 { opacity: .2;fill: #a6a9af } 
		.s16 { opacity: .8;fill: #b3a7b2 } 
		.s17 { fill: #816e56 } 
		.s18 { opacity: 1;fill: #8f96a3 } 
		.s19 { opacity: 1;fill: #857f72 } 
		.s20 { opacity: 1;fill: #84868b } 
		.s21 { opacity: .8;fill: #d3d4d6 } 
		.s22 { fill: #736953 } 
		.s23 { fill: #525041 } 
		.s24 { opacity: .8;fill: #9da4b1 } 
		.s25 { opacity: .4;fill: #a69cad } 
		.s26 { fill: #8d8f90 } 
		.s27 { fill: #645e4b } 
		.s28 { opacity: 1;fill: #838a9a } 
		.s29 { fill: #77746c } 
		.s30 { opacity: 1;fill: #7b674b } 
		.s31 { opacity: 1;fill: #272e27 } 
		.s32 { opacity: .6;fill: #838182 } 
		.s33 { fill: #6a6960 } 
		.s34 { fill: #797b79 } 
		.s35 { opacity: .2;fill: #828b89 } 
		.s36 { opacity: .2;fill: #57636a } 
		.s37 { opacity: .3;fill: #43443b } 
		.s38 { fill: #afafb3 } 
		.s39 { opacity: 1;fill: #3a403b } 
		.s40 { opacity: 1;fill: #2e332c } 
		.s41 { fill: #6e614b } 
		.s42 { fill: #7f8283 } 
		.s43 { opacity: .6;fill: #686a66 } 
		.s44 { opacity: .7;fill: #466050 } 
		.s45 { fill: #474940 } 
		.s46 { opacity: .3;fill: #748496 } 
		.s47 { opacity: 1;fill: #6e5c44 } 
		.s48 { opacity: .4;fill: #cdcdcf } 
		.s49 { opacity: .8;fill: #818386 } 
		.s50 { fill: #4f5555 } 
		.s51 { fill: #54554b } 
		.s52 { opacity: 1;fill: #5e6059 } 
		.s53 { fill: #6d6e6c } 
		.s54 { opacity: 1;fill: #404135 } 
		.s55 { fill: #b1afac } 
		.s56 { opacity: .8;fill: #6b6b6a } 
		.s57 { fill: #bdbbbe } 
		.s58 { fill: #b7aea4 } 
		.s59 { fill: #c5c4c8 } 
		.s60 { fill: #bdb8b2 } 
		.s61 { fill: #d2cfcd } 
		.s62 { fill: #cdc7c2 } 
		.s63 { fill: #cccbd3 } 
		.s64 { fill: #dad7d6 } 
		.s65 { fill: #dfdcdd } 
		.s66 { fill: #c6bfb5 } 
		.s67 { fill: #d5d3da } 
		.s68 { fill: #e2e0e6 } 
		.s69 { opacity: .2;fill: #766b5c } 
		.s70 { opacity: .6;fill: #a8a8ac } 
		.s71 { fill: #bdae96 } 
		.s72 { opacity: 1;fill: #8a765b } 
		.s73 { fill: #b8a47c } 
		.s74 { fill: #b4a38c } 
		.s75 { opacity: 1;fill: #956f4a } 
		.s76 { opacity: 1;fill: #ac966f } 
		.s77 { opacity: .5;fill: #8f6a4e } 
		.s78 { opacity: 1;fill: #9aa2b0 } 
		.s79 { opacity: 1;fill: #9b9dba } 
		.s80 { opacity: .8;fill: #bcb499 } 
		.s81 { opacity: .4;fill: #99a4bb } 
		.s82 { opacity: 1;fill: #a2a8c1 } 
		.s83 { opacity: 1;fill: #2b2a1c } 
		.s84 { opacity: .9;fill: #424dcb } 
		.s85 { opacity: 1;fill: #717b9a } 
		.s86 { opacity: .3;fill: #c5b683 } 
		.s87 { opacity: .8;fill: #837a4f } 
		.s88 { opacity: .2;fill: #2b3bc8 } 
		.s89 { opacity: .8;fill: #3633a2 } 
	</style>
	<g id="Background">
		<path id="Path 0" class="s0" d="m159 477h1v1h-1z"/>
		<path id="Path 1" class="s1" d="m168 473h1v1h-1z"/>
		<path id="Path 2" class="s2" d="m526 383v-2h2l-1 2z"/>
		<path id="Path 3" class="s3" d="m527 383l1-2h13l1 1v1h-11z"/>
		<path id="Path 4" class="s2" d="m541 381h1v1h-1z"/>
		<path id="Path 5" class="s4" d="m519 385l6-2 1 11 5 1 4 8v10h-7l-12-8h-5v-7l-6-4 3-2z"/>
		<path id="Path 6" class="s5" d="m531 395l-5-1-1-11h1 1 4z"/>
		<path id="Path 7" class="s6" d="m531 395v-12h11l10 2 5 8 3 6v3l-25 1z"/>
		<path id="Path 8" class="s3" d="m508 391l11-6-11 7z"/>
		<path id="Path 9" class="s7" d="m503 395l5-4v1l-3 2z"/>
		<path id="Path 10" class="s7" d="m560 399l-3-6 4 6z"/>
		<path id="Path 11" class="s8" d="m503 395l2-1 6 4v7 4h-7l-7-10 3-3 2-1z"/>
		<path id="Path 12" class="s9" d="m494 400l6-4-3 3z"/>
		<path id="Path 13" class="s10" d="m494 400l3-1 7 10h7l2 8 4 2v6h-4l-8-6h-5l-11-15v-1z"/>
		<path id="Path 14" class="s0" d="m560 402v-3h1v3z"/>
		<path id="Path 15" class="s11" d="m535 403l25-1h1l3 8-5 4v5l-18-2-6-4z"/>
		<path id="Path 16" class="s12" d="m486 405l3-2v1z"/>
		<path id="Path 17" class="s13" d="m486 405l3-1 11 15h5l8 6v6h-18l-13-10-1-5-2-6 2-2z"/>
		<path id="Path 18" class="s14" d="m511 409v-4h5l12 8h7l6 4v16h-5l-1-4h-8l-4-4h-6v-6l-4-2z"/>
		<path id="Path 19" class="s15" d="m478 410l3-2-2 2z"/>
		<path id="Path 20" class="s16" d="m468 416l10-6-2 3-8 4z"/>
		<path id="Path 21" class="s17" d="m476 413l2-3h1l2 6z"/>
		<path id="Path 22" class="s18" d="m559 419v-5l5-4 13 13-4 4-10 1z"/>
		<path id="Path 23" class="s12" d="m873 415l4-4 10-1z"/>
		<path id="Path 24" class="s19" d="m873 415l14-5h6l2 15h-4-10-12v-6l3-4z"/>
		<path id="Path 25" class="s20" d="m895 425l-2-15h11l3 9v3l-2 8-10 1z"/>
		<path id="Path 26" class="s21" d="m907 419l-3-9 5 3z"/>
		<path id="Path 27" class="s22" d="m468 417l8-4 5 3 1 5 13 10v8l-13 1v-1l-1-1-8-5-6-15z"/>
		<path id="Path 28" class="s23" d="m481 438h1v1h-1z"/>
		<path id="Path 29" class="s24" d="m867 416l5-1-3 4h-4z"/>
		<path id="Path 30" class="s25" d="m461 420l7-4v1l-1 1-3 1z"/>
		<path id="Path 31" class="s7" d="m861 420l6-4-2 3z"/>
		<path id="Path 32" class="s26" d="m541 433v-16l18 2 4 9v5h-8z"/>
		<path id="Path 33" class="s27" d="m464 419l3-1 6 15 8 5v1l-20-2-2-13z"/>
		<path id="Path 34" class="s24" d="m461 420l3-1-5 5-6 2v-1z"/>
		<path id="Path 35" class="s13" d="m861 420l4-1h4v6l-6 20v20l4 1-2 14-9 3-4-2-1-10 8-38-3-10 4-3z"/>
		<path id="Path 36" class="s7" d="m853 423l7-3-4 3h-2z"/>
		<path id="Path 37" class="s2" d="m905 430l2-8-2 13z"/>
		<path id="Path 38" class="s28" d="m563 428l10-1 4-4 7 5 3 7h-7l-1 4h-6l-10-6z"/>
		<path id="Path 39" class="s3" d="m849 425l4-2h1z"/>
		<path id="Path 40" class="s17" d="m849 425l5-2h2l3 10-8 38 1 10 4 2-2 5h-3l-7-6-17-5 1-17 16-17 1-15z"/>
		<path id="Path 41" class="s23" d="m453 426l6-2 2 13-8-2-3-6z"/>
		<path id="Path 42" class="s10" d="m869 425h12v5l-10 8-4 28-4-1v-20z"/>
		<path id="Path 43" class="s3" d="m443 431l10-6v1l-3 3-7 3z"/>
		<path id="Path 44" class="s29" d="m513 431v-6h4 6l4 4v8l-11-2z"/>
		<path id="Path 45" class="s3" d="m843 428l6-3-4 3z"/>
		<path id="Path 46" class="s26" d="m867 466l4-28 10-8v-5h10v6l-11 10-1 20 7 8-4 7-1 2-2 3-3 2-2-3h-9z"/>
		<path id="Path 47" class="s28" d="m891 431v-6h4v6z"/>
		<path id="Path 48" class="s30" d="m828 435l14-7h1 2l-1 15-16 17-1 17-1 2h-10l-7-6h-8l-2-24 12-5 3-2 1-1 3-1 9-5z"/>
		<path id="Path 49" class="s31" d="m443 432l7-3 3 6 8 2 20 2h1v1l-3 9h-6l-3 4-14-2-1 6-6 1-2 1-11-4-3-6-6-2v-10h1l7-1z"/>
		<path id="Path 50" class="s19" d="m527 437v-8h8l1 4-3 6h-6z"/>
		<path id="Path 51" class="s18" d="m895 431l10-1v5l-3 13-5 8-1 1-1 3-2 2-4 5-2 2h-1l-7-8 1-20 11-10z"/>
		<path id="Path 52" class="s32" d="m435 435l8-4v1l-8 4z"/>
		<path id="Path 53" class="s33" d="m495 439v-8h18l3 4 11 2v2l-1 4-26-1z"/>
		<path id="Path 54" class="s33" d="m533 439l3-6h5 14l4 17-18-1-8-4z"/>
		<path id="Path 55" class="s34" d="m559 450l-4-17h8l10 6v12z"/>
		<path id="Path 56" class="s21" d="m403 437l25-2v2h-1z"/>
		<path id="Path 57" class="s24" d="m428 437v-2h7v1z"/>
		<path id="Path 58" class="s20" d="m579 439l1-4h7l2 14h-2z"/>
		<path id="Path 59" class="s0" d="m342 437l7-1v1z"/>
		<path id="Path 60" class="s35" d="m349 437v-1h22v1h-13z"/>
		<path id="Path 61" class="s36" d="m371 437v-1h9v1z"/>
		<path id="Path 62" class="s37" d="m380 437v-1l7 1z"/>
		<path id="Path 63" class="s38" d="m341 438l1-1h7 9l-17 2z"/>
		<path id="Path 64" class="s39" d="m341 439l17-2h13 9 7 3v9l4 4-2 4-10 1-6 4-2-7-7-1-2-6h-7l-6 9-4 3-9-5-6 2-14-1v-11l3-2h6l8-1z"/>
		<path id="Path 65" class="s1" d="m394 450l-4-4v-9h13v14l-6 1z"/>
		<path id="Path 66" class="s40" d="m403 451v-14h24v10l6 2 3 6 11 4-8 4-5-1-8-4h-10z"/>
		<path id="Path 67" class="s0" d="m328 440l8-2v1z"/>
		<path id="Path 68" class="s37" d="m336 439v-1h5v1z"/>
		<path id="Path 69" class="s40" d="m482 440l13-1 5 3 26 1 7 2 8 4v10l-4 6h-4l-5-4-5 3-8 1-6-2-7-2-9 7-3-5-9-1-6-1-6 1-9-1-5-4 1-6 14 2 3-4h6z"/>
		<path id="Path 70" class="s41" d="m526 443l1-4h6v6z"/>
		<path id="Path 71" class="s42" d="m573 451v-12h6l8 10v4l5 2-2 1z"/>
		<path id="Path 72" class="s0" d="m314 442l8-2-3 2z"/>
		<path id="Path 73" class="s3" d="m303 443l6-2v2z"/>
		<path id="Path 74" class="s43" d="m309 443v-2l3 1z"/>
		<path id="Path 75" class="s15" d="m809 443l6-2-1 1-3 1z"/>
		<path id="Path 76" class="s1" d="m309 443l3-1h2 5v11l-2 2h-7l-5 2h-4-2v-12l1-2h3z"/>
		<path id="Path 77" class="s10" d="m811 443l3-1-3 2z"/>
		<path id="Path 78" class="s16" d="m293 445l7-2-1 2z"/>
		<path id="Path 79" class="s16" d="m796 448l13-5h2v1l-12 5h-3z"/>
		<path id="Path 80" class="s44" d="m283 447l8-2-4 2z"/>
		<path id="Path 81" class="s40" d="m287 447l4-2h2 6v12l-2 2-10-2z"/>
		<path id="Path 82" class="s45" d="m352 454l6-9h7l2 6-7 7-8 1z"/>
		<path id="Path 83" class="s15" d="m274 447h7-1z"/>
		<path id="Path 84" class="s11" d="m273 448l1-1h6z"/>
		<path id="Path 85" class="s31" d="m273 448l7-1h1 2 4v10l-6 4-18 2-3 4h-7l-4-13 2-2 10-2h2 1l6-1v-1z"/>
		<path id="Path 86" class="s0" d="m263 450l7-2v1l-6 1z"/>
		<path id="Path 87" class="s46" d="m789 450l7-2v1z"/>
		<path id="Path 88" class="s1" d="m537 465l4-6v-10l18 1 14 1 17 5 1 13-4 3-10-7-9-1-12 7-6-2-5 3-7-1z"/>
		<path id="Path 89" class="s47" d="m789 450l7-1h3l2 24v4h-8l-5-2-6-10-9-2-6-1-3-4 8-3h1z"/>
		<path id="Path 90" class="s46" d="m249 451l12-1-10 2h-2z"/>
		<path id="Path 91" class="s26" d="m392 454l2-4 3 2 1 5h-5z"/>
		<path id="Path 92" class="s3" d="m773 455l6-4 10-1z"/>
		<path id="Path 93" class="s48" d="m244 453l5-2v1z"/>
		<path id="Path 94" class="s11" d="m352 459l8-1 7-7 7 1 2 7 6-4 10-1 1 3h5l7 7-4 4v7l-7 2-1 5h-3l-9-12-24-3h-7l-3 8h-5l-4 4h-9v-8-11l4-6 6-2 9 5z"/>
		<path id="Path 95" class="s45" d="m397 452l6-1 13 7-2 7-9-1-7-7z"/>
		<path id="Path 96" class="s49" d="m244 453l5-1h2l-2 2-13 1z"/>
		<path id="Path 97" class="s45" d="m317 455l2-2 14 1-4 6-10 1-2-1z"/>
		<path id="Path 98" class="s40" d="m236 455l13-1 4 13-6 3-16 6-9 2-4-3-2-3-6 1h-6l-1 4-4 1v5l-2 6-1 6-1 2h-7l-6-3-1-5-4-17 3-2 4-2 8-2 12-4 6-2h3l5-2h1l6-1h3l6-2z"/>
		<path id="Path 99" class="s50" d="m348 457l4-3v5z"/>
		<path id="Path 100" class="s42" d="m305 457l5-2v4h-4z"/>
		<path id="Path 101" class="s51" d="m310 459v-4h7v5z"/>
		<path id="Path 102" class="s31" d="m590 456l2-1h2l10 2h5 4l14 2h6l10 1h1 4l9 2h4 2l4 1 18 2h9 3l2 2-2 10-7 3-2-3-8 3-3-4-4 3-6-1-4 1-15-6-5 7-12-3-7-8-12-1-4 4-3-3h-12-2z"/>
		<path id="Path 103" class="s15" d="m763 458l9-3-8 3z"/>
		<path id="Path 104" class="s35" d="m609 457l10-1v1h-6z"/>
		<path id="Path 105" class="s0" d="m619 457v-1l8 2z"/>
		<path id="Path 106" class="s52" d="m260 467l3-4 18-2 6-4 10 2v10h-5l-12 12-3-5-12 3-3-5z"/>
		<path id="Path 107" class="s53" d="m297 459l2-2h2l2 8v3l-6 1z"/>
		<path id="Path 108" class="s39" d="m303 465l-2-8h4l1 2z"/>
		<path id="Path 109" class="s52" d="m449 458l6-1 5 4 9 1v5l-5 3-6 1v-4z"/>
		<path id="Path 110" class="s26" d="m627 459l-14-2h6l8 1z"/>
		<path id="Path 111" class="s53" d="m414 465l2-7h10l8 4h-1l-8 1-1 6-7 1z"/>
		<path id="Path 112" class="s42" d="m447 459l2-1 9 9v4l-1 2h-4l-4-4h-7l-3-6z"/>
		<path id="Path 113" class="s36" d="m627 459v-1h9v1h-3z"/>
		<path id="Path 114" class="s0" d="m636 459v-1l8 2h-1z"/>
		<path id="Path 115" class="s54" d="m758 460l4-2h1 1l3 4-8 20h-2l-12 1-5-5 7-14 2-2h2l5-2z"/>
		<path id="Path 116" class="s34" d="m303 465l3-6h4l7 1 2 1 3 10-1 4h-6l-3-6h-9v-1z"/>
		<path id="Path 117" class="s6" d="m643 460l-10-1h3z"/>
		<path id="Path 118" class="s15" d="m204 461l6-1-6 2z"/>
		<path id="Path 119" class="s26" d="m319 461l10-1v11h-7z"/>
		<path id="Path 120" class="s34" d="m657 462l-9-2h5z"/>
		<path id="Path 121" class="s48" d="m657 462l-4-2 8 2z"/>
		<path id="Path 122" class="s43" d="m192 465l12-4v1l-12 4z"/>
		<path id="Path 123" class="s29" d="m469 462l6-1 2 4v4h-4l-4-2z"/>
		<path id="Path 124" class="s50" d="m477 465l-2-4 6 1-1 2z"/>
		<path id="Path 125" class="s53" d="m493 468l9-7 7 2v4l4 1-2 9-9 2-9-9z"/>
		<path id="Path 126" class="s52" d="m523 464l5-3 5 4v4h-5z"/>
		<path id="Path 127" class="s43" d="m663 462l6-1v1l-2 1z"/>
		<path id="Path 128" class="s7" d="m669 462v-1l8 2z"/>
		<path id="Path 129" class="s3" d="m743 463l6-1-2 2z"/>
		<path id="Path 130" class="s55" d="m424 469l1-6 8-1-1 6-2 2z"/>
		<path id="Path 131" class="s11" d="m432 468l1-6h1l5 1 3 6v4h-7l1-4z"/>
		<path id="Path 132" class="s33" d="m480 464l1-2 9 1 3 5v2l-5 5z"/>
		<path id="Path 133" class="s56" d="m667 463l2-1 8 1h8v2z"/>
		<path id="Path 134" class="s45" d="m759 482l8-20 6 1 2 15-7 4z"/>
		<path id="Path 135" class="s33" d="m513 468l-4-1v-4l6 2z"/>
		<path id="Path 136" class="s21" d="m685 465v-2l9 2z"/>
		<path id="Path 137" class="s1" d="m734 465l7-2h2l4 1-7 14-4 1-1 4-6-6-6 5-6-5v-10h9l7-2z"/>
		<path id="Path 138" class="s23" d="m768 482l7-4-2-15 9 2 6 10 5 2v32l-4 2-10-2-3-5v-13l-7-3z"/>
		<path id="Path 139" class="s55" d="m401 475v-7l4-4 9 1 3 5-2 5z"/>
		<path id="Path 140" class="s14" d="m477 465l3-1 8 11-1 4h-8l-1-4-1-6z"/>
		<path id="Path 141" class="s42" d="m515 465l8-1 5 5 1 14h-9l-2-6h-7l2-9z"/>
		<path id="Path 142" class="s53" d="m556 471l12-7 9 1 10 7v4l-4 4-2-3-5 2-6-4-9 2-3-3z"/>
		<path id="Path 143" class="s48" d="m184 468l8-3v1z"/>
		<path id="Path 144" class="s6" d="m533 469v-4h4l1 6 7 1 1 3-2 8-5 1-4-3z"/>
		<path id="Path 145" class="s24" d="m699 467l-2-2 17 1v1z"/>
		<path id="Path 146" class="s24" d="m726 466l7-1-7 2z"/>
		<path id="Path 147" class="s36" d="m714 467v-1h12v1h-9z"/>
		<path id="Path 148" class="s33" d="m247 470l6-3h7l2 7-1 11-6 2-6-2z"/>
		<path id="Path 149" class="s6" d="m347 475l3-8h7v12h-2-5z"/>
		<path id="Path 150" class="s55" d="m357 479v-12l24 3 9 12-1 8 3 3-1 4h-4-10l-8-7-4-10z"/>
		<path id="Path 151" class="s26" d="m464 470l5-3 4 2v6h-3l-5-3z"/>
		<path id="Path 152" class="s40" d="m697 477l2-10h15 3v10l-2 5-7-4-5 2z"/>
		<path id="Path 153" class="s48" d="m179 470l5-2-4 2z"/>
		<path id="Path 154" class="s26" d="m297 469l6-1v1 16l-9 4h-14v-8l12-12z"/>
		<path id="Path 155" class="s51" d="m430 470l2-2 4 1-1 4h-4z"/>
		<path id="Path 156" class="s29" d="m608 472l4-4 12 1 7 8 12 3-1 5-3 3-4-2 2-7-5 5-13 2-11-11z"/>
		<path id="Path 157" class="s6" d="m303 485v-16h9l3 6h6v4l-8 6z"/>
		<path id="Path 158" class="s57" d="m417 470l7-1 6 1 1 3h4 7l3 6v8l-35 2-5-6-12-1 1-5 7-2h14z"/>
		<path id="Path 159" class="s6" d="m442 473v-4h7l4 4-4 6h-4z"/>
		<path id="Path 160" class="s11" d="m473 475v-6h4l1 6z"/>
		<path id="Path 161" class="s26" d="m529 483l-1-14h5l2 12-2 3z"/>
		<path id="Path 162" class="s11" d="m545 472l5-3 6 2 2 3-12 1z"/>
		<path id="Path 163" class="s42" d="m587 472l4-3h2v10l-6-3z"/>
		<path id="Path 164" class="s33" d="m593 479v-10h12l3 3v3l-2 2z"/>
		<path id="Path 165" class="s0" d="m882 476l4-7h1z"/>
		<path id="Path 166" class="s9" d="m169 473l10-3h1l-3 2-9 3v-1z"/>
		<path id="Path 167" class="s10" d="m231 476l16-6 2 15-1 2h-9l-8-2z"/>
		<path id="Path 168" class="s11" d="m458 471l6-1 1 2v4h-5l-3-3z"/>
		<path id="Path 169" class="s57" d="m488 475l5-5 9 9v6l-5 6-8 2-2-14z"/>
		<path id="Path 170" class="s55" d="m321 475l1-4h7v8h-8z"/>
		<path id="Path 171" class="s1" d="m168 475l9-3 4 17h-9l-2-3-11 3-6 8h-5l-6 5-1 9-2 4h-10-4v-11l3-4 8-6 5-4 22-13 4-2z"/>
		<path id="Path 172" class="s53" d="m210 473l6-1 2 3-5 3h-2z"/>
		<path id="Path 173" class="s58" d="m465 476v-4l5 3-1 2z"/>
		<path id="Path 174" class="s1" d="m203 477l1-4h6l1 5-6 1z"/>
		<path id="Path 175" class="s59" d="m445 479h4l4-6h4l3 3v7l-5 4h-10z"/>
		<path id="Path 176" class="s52" d="m643 480l5-7 15 6v2l-7 5-8-1-1-4z"/>
		<path id="Path 177" class="s41" d="m801 477v-4h8l7 6h10v5l11 12 2 14 6 2 5 7h7v8l-6 6-41-2-13 4h-12v-2-5l17-8 11-16-2-14-10-9z"/>
		<path id="Path 178" class="s4" d="m255 487l6-2 1-11 3 5v15l-6 1-4-2z"/>
		<path id="Path 179" class="s57" d="m546 475l12-1 3 3 9-2 6 4 3 8v2h-6l-6-6-18 2-5-2z"/>
		<path id="Path 180" class="s0" d="m160 477l7-2-4 2z"/>
		<path id="Path 181" class="s5" d="m213 478l5-3 4 3v4l-8 1z"/>
		<path id="Path 182" class="s57" d="m338 479l4-4h5l3 4h5l1 8-3 10-1 2-25-2-2 6-17 4-1-5 2-10 4-1h9l10-8h5z"/>
		<path id="Path 183" class="s59" d="m469 477l1-2h3 5l1 4h8l2 14-4 3-9-4v-7l-7-4z"/>
		<path id="Path 184" class="s20" d="m606 477l2-2 11 11-2 1-6-3z"/>
		<path id="Path 185" class="s53" d="m222 478l9-2v9l-6 2-3-5z"/>
		<path id="Path 186" class="s14" d="m265 479l12-3 3 5v8l-3 5h-12z"/>
		<path id="Path 187" class="s60" d="m460 483v-7h5l4 1v4z"/>
		<path id="Path 188" class="s55" d="m583 480l4-4 6 3v4l-2 4-8-2z"/>
		<path id="Path 189" class="s11" d="m673 479l4-3 3 4 8-3 2 3 7 7-23 2-3-5z"/>
		<path id="Path 190" class="s16" d="m159 478l1-1h3l-22 13 9-9 6-1 2-2z"/>
		<path id="Path 191" class="s29" d="m199 483v-5l4-1 2 2v4z"/>
		<path id="Path 192" class="s38" d="m502 479l9-2h7l2 6-7 6 4 12v4h-20-9l-3-9 4-3 8-2 5-6z"/>
		<path id="Path 193" class="s6" d="m576 479l5-2 2 3v5l-4 2z"/>
		<path id="Path 194" class="s26" d="m593 479l13-2 5 7-1 6-4-2-7 2-6-7z"/>
		<path id="Path 195" class="s11" d="m663 479l4-1v3h-4z"/>
		<path id="Path 196" class="s34" d="m690 480l7-3 6 3 6 7-2 4-6-5-4 1z"/>
		<path id="Path 197" class="s55" d="m715 482l2-5 6 5v7h-6l-2-3z"/>
		<path id="Path 198" class="s6" d="m723 482l6-5 6 6 2 8h-8l-6-2z"/>
		<path id="Path 199" class="s27" d="m789 511l4-2v-32h8v4l10 9 2 14-11 16-17 8v5l-9-2v-2l13-10z"/>
		<path id="Path 200" class="s22" d="m826 479l1-2 17 5 7 6v7l4 2v7l6 9v6h-4-7l-5-7-6-2-2-14-11-12z"/>
		<path id="Path 201" class="s39" d="m205 479l6-1h2l1 5v4h-8l-1-4z"/>
		<path id="Path 202" class="s33" d="m667 481v-3l6 1-2 5h-4z"/>
		<path id="Path 203" class="s26" d="m703 480l5-2 7 4v4l-6 1z"/>
		<path id="Path 204" class="s11" d="m735 483l1-4 4-1 5 5 1 9 7 1v18l-10 1-2-5-1-5 1-8-4-3z"/>
		<path id="Path 205" class="s38" d="m313 485l8-6h8 9l-1 4h-5l-10 8h-9z"/>
		<path id="Path 206" class="s59" d="m356 487l-1-8h2l8 1 4 10h-2z"/>
		<path id="Path 207" class="s55" d="m632 484l5-5-2 7z"/>
		<path id="Path 208" class="s11" d="m642 485l1-5 4 1 1 4z"/>
		<path id="Path 209" class="s29" d="m856 483l9-3h9l2 3 1 8-2 22h-4-10l-6-9v-7l-4-2v-7h3z"/>
		<path id="Path 210" class="s61" d="m460 483l9-2 7 4v7l-15-1-14 6-18 1-2 3-23-2-1 4h-4-12v-6h4l1-4 18-4 35-2h10z"/>
		<path id="Path 211" class="s57" d="m533 484l2-3 4 3-1 7h-5z"/>
		<path id="Path 212" class="s60" d="m656 486l7-5h4v3h4l3 5-1 4h-5z"/>
		<path id="Path 213" class="s20" d="m745 483l12-1v7l-4 4-7-1z"/>
		<path id="Path 214" class="s10" d="m759 482h9l1 6-8 3-4-2v-7z"/>
		<path id="Path 215" class="s21" d="m876 483l3-2-2 7 12 12h-2l-10-9z"/>
		<path id="Path 216" class="s14" d="m214 483l8-1 3 5 6-2 8 2v9l-6 5h-8l-2-8-9-1v-5z"/>
		<path id="Path 217" class="s59" d="m392 493l-3-3 1-8h3l12 1 5 6z"/>
		<path id="Path 218" class="s34" d="m197 489l2-6h6l1 4v2z"/>
		<path id="Path 219" class="s59" d="m517 501l-4-12 7-6h9l4 1v7l-2 10h-6z"/>
		<path id="Path 220" class="s62" d="m539 484l5-1 5 2v10l-4 2-5-1-2-5z"/>
		<path id="Path 221" class="s61" d="m549 485l18-2 6 6v4l-24 2z"/>
		<path id="Path 222" class="s62" d="m583 485l8 2 2-4 6 7v7h-20v-8-2z"/>
		<path id="Path 223" class="s55" d="m610 490l1-6 6 3v6z"/>
		<path id="Path 224" class="s62" d="m619 486l13-2 3 2 4 2 3-3h6l8 1 12 7h5l1-4 23-2 4-1 6 5 2-4 6-1 2 3h6l6 2v8l-7 4-1 6-16 2-10 6-26-2-4 10-19 2-7 4-8-4 7-19-10-1-11-14v-6z"/>
		<path id="Path 225" class="s11" d="m248 487l1-2 6 2v6h-6z"/>
		<path id="Path 226" class="s55" d="m280 489h14l9-4h10v6l-4 1-2 10-22 7-6-2-2-13z"/>
		<path id="Path 227" class="s39" d="m141 511l1-9 6-5h5l6-8 11-3 2 3h9l1 5-6 1 5 7-8 1-4-1-5-2-3 7h-14l-2 4z"/>
		<path id="Path 228" class="s45" d="m206 489v-2h8v5l-3 7-2 1-3 1-3-4v-1z"/>
		<path id="Path 229" class="s4" d="m239 496v-9h9l1 6v4l-8-1z"/>
		<path id="Path 230" class="s63" d="m353 497l3-10 11 3v7l-6 2z"/>
		<path id="Path 231" class="s61" d="m599 490l7-2 4 2 7 3 11 14 10 1-7 19-38 8v-8l14-15v-12l-8-3z"/>
		<path id="Path 232" class="s51" d="m761 491l8-3 7 3v13l3 5 10 2v8l-13 10-4-2-1-6v-8l2-6-5-4v-8l-6 1z"/>
		<path id="Path 233" class="s29" d="m196 495l1-6h9l-3 7z"/>
		<path id="Path 234" class="s58" d="m573 493v-4h6v8l-3 1z"/>
		<path id="Path 235" class="s6" d="m753 493l4-4 4 2 1 5 6-1v8l5 4-2 6-7-2-3 10h-3v-5l-5-5z"/>
		<path id="Path 236" class="s48" d="m135 494l6-4-5 4z"/>
		<path id="Path 237" class="s61" d="m361 499l6-2v-7h2l8 7v8h-16z"/>
		<path id="Path 238" class="s64" d="m427 501l2-3 18-1 14-6 15 1 9 4 3 9h9v10l-10 7-9 1-1 6h-10l-2-4-26 2v-5l-11-7z"/>
		<path id="Path 239" class="s65" d="m458 503l21 3v4l-9 7h-12l-3-7z"/>
		<path id="Path 240" class="s61" d="m531 501l2-10h5l2 5 5 1-1 9-3 1z"/>
		<path id="Path 241" class="s60" d="m695 517l10-6 16-2 1-6 7-4v-8h8l4 3-1 8h-3v5 2l-8 1 1 9v2h-3l-7-1-1 3-10-1-2 3-12 1z"/>
		<path id="Path 242" class="s28" d="m875 513l2-22 10 9-2 9 2 4 10 6 6-2 4 3 3 4 1 3 1 3 3 7-13-5-20-17z"/>
		<path id="Path 243" class="s29" d="m211 499l3-7 9 1 2 8z"/>
		<path id="Path 244" class="s66" d="m249 497v-4h6l4 2-1 6z"/>
		<path id="Path 245" class="s64" d="m549 495l24-2 3 5 3-1h20l8 3v12l-14 15v8l-16 4h-11l-7-2v-10h24l9-10v-7l-7-7-15 2-3-4h-6l-8 7v9l4 2v6h-11l-5-3v-15l3-1 1-9z"/>
		<path id="Path 246" class="s3" d="m128 500l7-6h1z"/>
		<path id="Path 247" class="s4" d="m181 502l-5-7 6-1 6 3 1 5z"/>
		<path id="Path 248" class="s58" d="m259 495l6-1h12l2 13h-12l-7-2-2-4z"/>
		<path id="Path 249" class="s4" d="m195 497l1-2 7 1v1l-2 2z"/>
		<path id="Path 250" class="s66" d="m233 501l6-5h2l-2 7-6 1z"/>
		<path id="Path 251" class="s65" d="m233 504l6-1 2-7 8 1 9 4 2 4 7 2v8 8l-4 5v11l-4 6h-12v-14l-6-8h-4v-5l-4-2v-5z"/>
		<path id="Path 252" class="s52" d="m189 502l-1-5h7l6 2v4 1l-3 3h-9z"/>
		<path id="Path 253" class="s23" d="m201 499l2-2 3 4-5 2z"/>
		<path id="Path 254" class="s63" d="m325 503l2-6 25 2 2 7-1 11-1 2-15-2v-5z"/>
		<path id="Path 255" class="s67" d="m352 499l1-2 8 2v6l-7 1z"/>
		<path id="Path 256" class="s64" d="m377 505v-8h10v6z"/>
		<path id="Path 257" class="s58" d="m209 500l2-1 14 2h8v3 7l-22-2z"/>
		<path id="Path 258" class="s65" d="m403 503l1-4 23 2 1 14 11 7v5l-3 9-6 5-8 4-17 2v-5l4-3 2-22z"/>
		<path id="Path 259" class="s3" d="m117 508l11-8-3 4-8 6z"/>
		<path id="Path 260" class="s10" d="m161 507l3-7 5 2-4 11h-4z"/>
		<path id="Path 261" class="s28" d="m206 501l3-1 2 9v6h-6v-8l-4-3v-1z"/>
		<path id="Path 262" class="s18" d="m903 517l-6 2-10-6-2-4 2-9h2l10 7 3 6z"/>
		<path id="Path 263" class="s61" d="m517 505v-4h8l-2 8h-6z"/>
		<path id="Path 264" class="s62" d="m523 509l2-8h6l10 6v15l-3 5-15-1v-5z"/>
		<path id="Path 265" class="s65" d="m557 525v-6l-4-2v-9l8-7h6l3 4 15-2 7 7v7l-9 10h-24z"/>
		<path id="Path 266" class="s4" d="m165 513l4-11 4 1v8l4 3v6l-10 1h-3z"/>
		<path id="Path 267" class="s10" d="m173 503l8-1h8v5h-5l-7 7-4-3z"/>
		<path id="Path 268" class="s59" d="m285 509l22-7 1 5-9 14h-11l-4-6z"/>
		<path id="Path 269" class="s42" d="m737 507v-5h3l1 5z"/>
		<path id="Path 270" class="s65" d="m308 507l17-4 12 9v5l-18-4-18 16h-2v-8z"/>
		<path id="Path 271" class="s65" d="m377 505l10-2h12v4l-8 7-23-1-2 3-13 1 1-11 7-1z"/>
		<path id="Path 272" class="s68" d="m353 517l13-1 2-3 23 1 8-7v-4h4l8 14-2 22-4 3v5l-93-2-10-4-1-12 18-16 18 4 15 2z"/>
		<path id="Path 273" class="s39" d="m117 510l8-6v11l-4 6h-6v-2-4-1z"/>
		<path id="Path 274" class="s58" d="m189 507h9l3-3 4 3v8h6v2 6h-6l-4-5-24 2v-6l7-7z"/>
		<path id="Path 275" class="s67" d="m477 529l1-6 9-1 10-7v-10h20v4l-2 12-4 1v7h-11l-14 7h-6z"/>
		<path id="Path 276" class="s17" d="m145 511l2-4h14v6l-9 8h-7z"/>
		<path id="Path 277" class="s66" d="m267 515v-8h12l6 2-1 6z"/>
		<path id="Path 278" class="s38" d="m737 509v-2h4l2 5 10-1 5 5v5l-13 2-2-3h-6z"/>
		<path id="Path 279" class="s48" d="m115 514l2-6v2z"/>
		<path id="Path 280" class="s60" d="m211 515v-6l22 2v5l-8 3-14-2z"/>
		<path id="Path 281" class="s60" d="m515 521l2-12h6v12z"/>
		<path id="Path 282" class="s57" d="m730 519l-1-9 8-1v11z"/>
		<path id="Path 283" class="s22" d="m139 515l2-4h4v10h-6z"/>
		<path id="Path 284" class="s19" d="m761 521l3-10 7 2v8h-8z"/>
		<path id="Path 285" class="s8" d="m152 521l9-8h4l-1 8-9 2h-3z"/>
		<path id="Path 286" class="s17" d="m861 519v-6h10v7l3 3 8 2 11 9v9l-22 2 4-16-7-8z"/>
		<path id="Path 287" class="s13" d="m893 543v-9l-11-9-8-2-3-3v-7h4l7 2 20 17 13 5v1 5l-1 3-4 4-5 4h-1l-2 1-7 2z"/>
		<path id="Path 288" class="s21" d="m903 517l-1-4 5 7z"/>
		<path id="Path 289" class="s12" d="m113 519v-4h2v4h-1z"/>
		<path id="Path 290" class="s45" d="m115 521h6l4-6h4l1 8-2 7h-10l-2-6-1-1z"/>
		<path id="Path 291" class="s23" d="m130 523l-1-8h10v6 1z"/>
		<path id="Path 292" class="s61" d="m267 523v-8h17l4 6h11v8h-11l-1 8h-8v-11l-3-3z"/>
		<path id="Path 293" class="s66" d="m665 525l4-10 26 2v9l-22 4-4-2z"/>
		<path id="Path 294" class="s66" d="m225 519l8-3 4 2v5l-1 13-7 1-4-4z"/>
		<path id="Path 295" class="s62" d="m211 523v-6l14 2v14l4 4 7-1 1-13h4l6 8v14l-2 5-6 3-5 2-13-14h-6v-14z"/>
		<path id="Path 296" class="s67" d="m177 520l24-2 4 5-2 18-5 8h-1-16-3l-5-4v-6l-6-7v-11z"/>
		<path id="Path 297" class="s69" d="m114 523v-4h1v2 2z"/>
		<path id="Path 298" class="s34" d="m730 521v-2l7 1h6l2 3 13-2h3 2v8l4 2v6h-10l-12-2-1-1 1-7-8-2z"/>
		<path id="Path 299" class="s35" d="m744 534h1v1h-1z"/>
		<path id="Path 300" class="s30" d="m797 535l13-4 41 2 6-6v-8h4l7 2 7 8-4 16-10 3-2 6h-1-7l-6-2h-6l-5-1h-3l-5-2h-4l-13-3h-3l-7-2h-2v-1z"/>
		<path id="Path 301" class="s29" d="m719 523l1-3 7 1v10h-8z"/>
		<path id="Path 302" class="s4" d="m139 522v-1h6 7v2l-3 9 5 2 15 12v3h-4l-8-8h-12l-6-8z"/>
		<path id="Path 303" class="s63" d="m155 523l9-2h3v11l6 7v6l-4 1-15-12z"/>
		<path id="Path 304" class="s61" d="m511 529v-7l4-1h8v5z"/>
		<path id="Path 305" class="s53" d="m727 531v-10h3l7 4v8z"/>
		<path id="Path 306" class="s29" d="m767 531l-4-2v-8h8l1 6 4 2v2z"/>
		<path id="Path 307" class="s8" d="m130 523l9-1v11l6 8-4 4v6l-8-2-5-5-2-3 2-1-2-4 2-6z"/>
		<path id="Path 308" class="s61" d="m538 527l3-5 5 3h11l2 2v10h-8l-5-6h-7z"/>
		<path id="Path 309" class="s34" d="m695 526l12-1 2-3 10 1v8l-2 3h-1l-7 5-19 1-8-1-5 6h-4l-4-12v-1l4-2z"/>
		<path id="Path 310" class="s0" d="m115 527l-1-4h1l1 1z"/>
		<path id="Path 311" class="s59" d="m154 534l-5-2 3-9h3z"/>
		<path id="Path 312" class="s61" d="m203 541l2-18h6l4 4v14z"/>
		<path id="Path 313" class="s64" d="m263 539v-11l4-5h9l3 3v11l-1 6-6 1-3-4z"/>
		<path id="Path 314" class="s70" d="m115 527l1-3 2 6v1z"/>
		<path id="Path 315" class="s67" d="m439 527l26-2 2 4-2 6h-5l-6 8h-8l-10 12h-20l-4 4-31-2-51-4-4 3v5l-20-6-5-10-7-3-2-4-5-1 1-8h11 2l1 12 10 4 93 2 17-2 8-4 6-5z"/>
		<path id="Path 316" class="s57" d="m639 531l7-4 19-2 4 3v4 1l-24 8h-6z"/>
		<path id="Path 317" class="s29" d="m737 533v-8l8 2-1 7h-6z"/>
		<path id="Path 318" class="s63" d="m511 529l12-3 15 1 1 4-4 10h-8l-4 5 4 13v2h-20-21l-1-4h-9l-7 6h-12l-11-2-1 8-1 1h-4l-3-5h-16-6l-3-6 4-4h20l10-12h8l6-8h5l2-6h10l3 7h6l14-7z"/>
		<path id="Path 319" class="s59" d="m593 535l38-8 8 4v10l-4 4-14 2-19 1-4-3-1 4-5 1-4 1-11-6v-6z"/>
		<path id="Path 320" class="s60" d="m669 532v-4l4 2z"/>
		<path id="Path 321" class="s23" d="m118 531v-1h10l-2 6-4 1-4-5z"/>
		<path id="Path 322" class="s0" d="m915 537l-3-7 4 7z"/>
		<path id="Path 323" class="s67" d="m527 559l-4-13 4-5h8l4-10h7l5 6h8l7 2v8l-2 4h-6l-3 4-12 4h-8z"/>
		<path id="Path 324" class="s32" d="m717 534l2-3h8l10 2 1 1z"/>
		<path id="Path 325" class="s26" d="m767 537v-6h9l9 2v2 5h-9l-7-1z"/>
		<path id="Path 326" class="s70" d="m124 541h-3l-3-9 4 5 3 4z"/>
		<path id="Path 327" class="s19" d="m645 541l24-8 4 12v12l-10 8h-5l-5-1-3-2 1-9-6-6z"/>
		<path id="Path 328" class="s28" d="m690 540l19-1 7-5 1 2 6 1 4 8v2h-25l-4 4h-9z"/>
		<path id="Path 329" class="s13" d="m785 540v-5h12v8h-4z"/>
		<path id="Path 330" class="s13" d="m122 537l4-1 2 4-2 1h-1z"/>
		<path id="Path 331" class="s71" d="m278 543l1-6h8l5 1 2 4-1 5h-8z"/>
		<path id="Path 332" class="s15" d="m769 539l-12-2h10z"/>
		<path id="Path 333" class="s35" d="m915 537h1v1h-1z"/>
		<path id="Path 334" class="s61" d="m566 539h11v6l-11 2z"/>
		<path id="Path 335" class="s21" d="m915 543v-5h1l1 1v4z"/>
		<path id="Path 336" class="s0" d="m916 538h1v1h-1z"/>
		<path id="Path 337" class="s67" d="m259 545l4-6 6 1 3 4-7 12-6-4z"/>
		<path id="Path 338" class="s42" d="m673 545h4l5-6 8 1-1 11-12 6h-4z"/>
		<path id="Path 339" class="s32" d="m793 543l-17-3h9z"/>
		<path id="Path 340" class="s48" d="m128 544l-4-3h1 1z"/>
		<path id="Path 341" class="s72" d="m141 551v-6l4-4h12l8 8h4v1 7h-7l-6-1-5-2h-1l-7-3z"/>
		<path id="Path 342" class="s66" d="m198 549l5-8h12 6l13 14-6 4h-10l-10-9z"/>
		<path id="Path 343" class="s20" d="m635 545l4-4h6v6h-10z"/>
		<path id="Path 344" class="s73" d="m293 547l1-5 7 3 5 10 20 6 15 8v9h-3l-39-6-2-7v-14z"/>
		<path id="Path 345" class="s74" d="m272 544l6-1 7 4 1 16h-1-12l-8-2v-5z"/>
		<path id="Path 346" class="s25" d="m797 544l-4-1h4z"/>
		<path id="Path 347" class="s72" d="m871 545l22-2 2 14h-9-7l-7-2h-1z"/>
		<path id="Path 348" class="s48" d="m914 546l1-3h2v1z"/>
		<path id="Path 349" class="s5" d="m169 546l4-1 5 4-9 1v-1z"/>
		<path id="Path 350" class="s57" d="m245 550l2-5h12v7l6 4v5l-18-4z"/>
		<path id="Path 351" class="s57" d="m566 547l11-2 11 6-5 3-10 3h-10l-8-2 3-4h6z"/>
		<path id="Path 352" class="s57" d="m597 549l1-4 4 3z"/>
		<path id="Path 353" class="s29" d="m621 547l14-2v2 10h-4l-3-1-6-1z"/>
		<path id="Path 354" class="s70" d="m727 547v-2l4 2 3 8h-1z"/>
		<path id="Path 355" class="s75" d="m859 554l2-6 10-3v10z"/>
		<path id="Path 356" class="s76" d="m286 563l-1-16h8l4 4v14z"/>
		<path id="Path 357" class="s33" d="m602 548l19-1 1 8v1l-1 1-2 2h-1-2l-25 2 1-11 5-1z"/>
		<path id="Path 358" class="s13" d="m635 557v-10h10l6 6-1 9h-3l-12-4z"/>
		<path id="Path 359" class="s18" d="m698 551l4-4h25l6 8-20 1-14-1z"/>
		<path id="Path 360" class="s41" d="m169 550l9-1h3v10h-7l-5-2z"/>
		<path id="Path 361" class="s30" d="m181 559v-10h16l1 13-12-3z"/>
		<path id="Path 362" class="s72" d="m198 562l-1-13h1l10 1 10 9-1 8-6-1-8-1-4-1z"/>
		<path id="Path 363" class="s5" d="m239 553l6-3 2 7h-4z"/>
		<path id="Path 364" class="s17" d="m588 551l4-1-1 11h-9l1-7z"/>
		<path id="Path 365" class="s11" d="m677 557l12-6h9l1 4v4l-10 8v7l-13-3z"/>
		<path id="Path 366" class="s7" d="m839 553l-5-2 5 1z"/>
		<path id="Path 367" class="s77" d="m839 553v-1h6v1z"/>
		<path id="Path 368" class="s48" d="m845 553v-1l6 2z"/>
		<path id="Path 369" class="s33" d="m234 555l5-2 4 4-1 12-3 2-22-4 1-8h10z"/>
		<path id="Path 370" class="s63" d="m326 561v-5l4-3 51 4v4l-32 3-2 5h-6z"/>
		<path id="Path 371" class="s72" d="m573 557l10-3-1 7-7 1h-2z"/>
		<path id="Path 372" class="s35" d="m872 557l-14-3h1l12 1h1z"/>
		<path id="Path 373" class="s0" d="m902 555l2-1-2 2z"/>
		<path id="Path 374" class="s38" d="m543 559l12-4 8 2v5 9h-7l-6 11h-5z"/>
		<path id="Path 375" class="s25" d="m622 556v-1l6 1z"/>
		<path id="Path 376" class="s78" d="m689 574v-7l10-8v-4l14 1v7l-10 3-4 9h-1-8z"/>
		<path id="Path 377" class="s15" d="m689 574h1v1h-1z"/>
		<path id="Path 378" class="s79" d="m713 556l20-1h1l3 5 1 4-25-1z"/>
		<path id="Path 379" class="s78" d="m872 557v-2l7 2h-2z"/>
		<path id="Path 380" class="s80" d="m895 557l7-2v1l-5 3-11-1v-1z"/>
		<path id="Path 381" class="s15" d="m162 559l-6-3 6 1z"/>
		<path id="Path 382" class="s25" d="m631 558l-3-2 3 1z"/>
		<path id="Path 383" class="s24" d="m162 559v-2h7l5 2z"/>
		<path id="Path 384" class="s29" d="m242 569l1-12h4l18 4 8 2v6l-2 5h-2l-4-1-5-1-5-1z"/>
		<path id="Path 385" class="s59" d="m381 561v-4l31 2 3 6v4l-5 2h-23v-6z"/>
		<path id="Path 386" class="s59" d="m469 563l7-6h9l1 4-7 9h-10z"/>
		<path id="Path 387" class="s19" d="m563 562v-5h10v5l-6 1z"/>
		<path id="Path 388" class="s69" d="m631 558v-1h4v1z"/>
		<path id="Path 389" class="s14" d="m663 565l10-8h4l-1 14-6-2-6-2-1-1z"/>
		<path id="Path 390" class="s0" d="m877 558l-5-1h5z"/>
		<path id="Path 391" class="s35" d="m877 558v-1h2 7v1z"/>
		<path id="Path 392" class="s43" d="m199 564l-13-5 12 3z"/>
		<path id="Path 393" class="s58" d="m527 561v-2h8v10h-8z"/>
		<path id="Path 394" class="s55" d="m535 569v-10h8l2 23-2 15h-4l-7-4 1-6 4-3z"/>
		<path id="Path 395" class="s73" d="m486 561h21v8l-9 2-1 5-5-1-5-2-8-2v-1z"/>
		<path id="Path 396" class="s81" d="m738 564l-1-4 3 4z"/>
		<path id="Path 397" class="s57" d="m347 569l2-5 32-3 6 4v6l-7 1-7 1-13-2-3 8h-8z"/>
		<path id="Path 398" class="s59" d="m445 569l1-8 11 2v6z"/>
		<path id="Path 399" class="s74" d="m497 576l1-5 9-2v-8h20v8l-4 2-4 17-5-1-10-6z"/>
		<path id="Path 400" class="s9" d="m575 562l7-1-7 2z"/>
		<path id="Path 401" class="s78" d="m563 571v-9l4 1v1l1 1 3 4 3 6h-7z"/>
		<path id="Path 402" class="s25" d="m567 563l6-1h2v1l-8 1z"/>
		<path id="Path 403" class="s35" d="m653 564l-6-2h3z"/>
		<path id="Path 404" class="s13" d="m273 569v-6h12v6z"/>
		<path id="Path 405" class="s10" d="m285 569v-6h1l11 2 2 7-4 1z"/>
		<path id="Path 406" class="s57" d="m457 569v-6h12v7z"/>
		<path id="Path 407" class="s82" d="m699 575l4-9 10-3 25 1h2v7l-3 3-4 3-3 1h-17l-6-1z"/>
		<path id="Path 408" class="s81" d="m737 574l3-3v-7l1 8z"/>
		<path id="Path 409" class="s57" d="m415 569v-4h6v5z"/>
		<path id="Path 410" class="s60" d="m421 570v-5h16l3 5-17 1z"/>
		<path id="Path 411" class="s35" d="m663 566l-5-1h5z"/>
		<path id="Path 412" class="s24" d="m239 571l3-2 13 2z"/>
		<path id="Path 413" class="s19" d="m271 574l2-5h12l10 4v6h-1l-9-1-8-1z"/>
		<path id="Path 414" class="s71" d="m341 578v-9h6l2 10z"/>
		<path id="Path 415" class="s8" d="m410 571l5-2 6 1 2 1v4h-12z"/>
		<path id="Path 416" class="s10" d="m444 570l1-1h12l12 1h10v1 8h-12l-8 2h-8l1-5-7-1z"/>
		<path id="Path 417" class="s5" d="m519 588l4-17 4-2h8l2 15-4 3-1 6h-3z"/>
		<path id="Path 418" class="s13" d="m423 571l17-1h4l1 5v6l-6 1-16-1v-6z"/>
		<path id="Path 419" class="s38" d="m357 579l3-8 13 2 1 11h-4l-9 1 2-5z"/>
		<path id="Path 420" class="s19" d="m380 572l7-1h23l1 4v6l-2 1-19 1-10 1z"/>
		<path id="Path 421" class="s72" d="m479 579v-8l8 2v6h-3z"/>
		<path id="Path 422" class="s82" d="m545 582h5l6-11h7l4 4h7v10l-1 7 1 4-3 3-1 3-2 2-4 2-1-5h-10l-10-4z"/>
		<path id="Path 423" class="s53" d="m295 573l4-1 39 6-1 2-36-1 6 7h-3l-8-6-1-1z"/>
		<path id="Path 424" class="s8" d="m373 573l7-1v12h-6z"/>
		<path id="Path 425" class="s46" d="m269 574h2l6 3z"/>
		<path id="Path 426" class="s47" d="m487 579v-6l5 2-2 5z"/>
		<path id="Path 427" class="s29" d="m411 581v-6h12v6z"/>
		<path id="Path 428" class="s17" d="m445 581v-6l7 1-1 5z"/>
		<path id="Path 429" class="s23" d="m490 580l2-5 5 1 7 5-4 4z"/>
		<path id="Path 430" class="s15" d="m698 576l-8-1h8z"/>
		<path id="Path 431" class="s0" d="m698 576v-1h1l8 2v1z"/>
		<path id="Path 432" class="s15" d="m707 578v-1l6 1z"/>
		<path id="Path 433" class="s52" d="m337 580l1-2h3l8 1h8l6 1-2 5h-2l-8-1z"/>
		<path id="Path 434" class="s49" d="m296 580l-2-1h1z"/>
		<path id="Path 435" class="s83" d="m307 586l-6-7 36 1 14 4-1 25-10-2-4-1-5-2-4-2-4-2-1-1-10-9z"/>
		<path id="Path 436" class="s49" d="m504 590l-20-11h3l3 1 10 5 6 5z"/>
		<path id="Path 437" class="s43" d="m409 582l2-1h12v2h-14z"/>
		<path id="Path 438" class="s32" d="m423 583v-2l16 1z"/>
		<path id="Path 439" class="s27" d="m500 585l4-4 10 6-5 4-3-1z"/>
		<path id="Path 440" class="s77" d="m390 583l19-1v1z"/>
		<path id="Path 441" class="s40" d="m350 609l1-25 8 1v27h-2-1-3v-1z"/>
		<path id="Path 442" class="s1" d="m361 585l9-1-1 1-1 2h4l8 3 7 10-1 7-2 2-2 2-2 1h-1-1-1l-1 1-4 1h-7l-4-1h-1l-1-1v-27z"/>
		<path id="Path 443" class="s84" d="m376 612h1v1h-1z"/>
		<path id="Path 444" class="s75" d="m359 612h1v1h-1z"/>
		<path id="Path 445" class="s15" d="m372 587h-4l1-2z"/>
		<path id="Path 446" class="s85" d="m310 590l-6-4h3l5 4z"/>
		<path id="Path 447" class="s33" d="m509 591l5-4 5 1 10 5v8h-5l-3-2-10-5z"/>
		<path id="Path 448" class="s43" d="m322 599l-12-9h2z"/>
		<path id="Path 449" class="s3" d="m511 594l-7-4h2l3 1z"/>
		<path id="Path 450" class="s53" d="m529 601v-8h3l7 4v8h-4l-2-1z"/>
		<path id="Path 451" class="s85" d="m539 605v-8h4l10 4v6h-13l-1-1z"/>
		<path id="Path 452" class="s43" d="m323 600l4 2h-2z"/>
		<path id="Path 453" class="s86" d="m386 607l1-7 2 6z"/>
		<path id="Path 454" class="s9" d="m533 604l-9-3h5z"/>
		<path id="Path 455" class="s18" d="m553 607v-6h10l1 5-4 1z"/>
		<path id="Path 456" class="s35" d="m331 604l-6-2h2z"/>
		<path id="Path 457" class="s35" d="m336 608l-5-4 5 2z"/>
		<path id="Path 458" class="s15" d="m539 606l-4-1h4z"/>
		<path id="Path 459" class="s15" d="m336 608v-2l4 1v1z"/>
		<path id="Path 460" class="s87" d="m340 608v-1l10 2 3 2-2 1h-1z"/>
		<path id="Path 461" class="s35" d="m560 607h-20 13z"/>
		<path id="Path 462" class="s15" d="m351 612l2-1v1 1h-2z"/>
		<path id="Path 463" class="s2" d="m380 612l2-1-2 2z"/>
		<path id="Path 464" class="s69" d="m350 612h1v1h-1z"/>
		<path id="Path 465" class="s36" d="m353 613v-1h3v1z"/>
		<path id="Path 466" class="s3" d="m356 612h1v1h-1z"/>
		<path id="Path 467" class="s67" d="m357 613v-1h2v1h-1z"/>
		<path id="Path 468" class="s78" d="m377 612h1v1h-1z"/>
		<path id="Path 469" class="s86" d="m378 612h1v1h-1z"/>
		<path id="Path 470" class="s36" d="m379 612h1v1h-1z"/>
		<path id="Path 471" class="s88" d="m356 613h1v1h-1z"/>
		<path id="Path 472" class="s89" d="m357 613h1v1h-1z"/>
		<path id="Path 473" class="s70" d="m358 614v-1h1 1 1v1z"/>
		<path id="Path 474" class="s43" d="m361 614v-1l4 1z"/>
		<path id="Path 475" class="s43" d="m372 614l4-1v1z"/>
		<path id="Path 476" class="s3" d="m376 613h1v1h-1z"/>
		<path id="Path 477" class="s44" d="m377 613h1v1h-1z"/>
		<path id="Path 478" class="s36" d="m378 613h1v1h-1z"/>
	</g>
</svg>