<svg version="1.2" xmlns="http://www.w3.org/2000/svg" viewBox="0 0 1000 1000" width="1000" height="1000">
	<title>Clinostomus_elongatus</title>
	<style>
		.s0 { fill: #ece8d7 } 
		.s1 { fill: #e3e3dc } 
		.s2 { fill: #ebe3ca } 
		.s3 { fill: #eaede8 } 
		.s4 { fill: #eeece1 } 
		.s5 { fill: #e8dcbc } 
		.s6 { fill: #060607 } 
		.s7 { fill: #544d47 } 
		.s8 { fill: #dcc29e } 
		.s9 { fill: #e2e0d3 } 
		.s10 { fill: #d6b893 } 
		.s11 { fill: #665d50 } 
		.s12 { fill: #b49979 } 
		.s13 { fill: #dcce95 } 
		.s14 { fill: #d9d5cb } 
		.s15 { fill: #e5d6ac } 
		.s16 { fill: #484741 } 
		.s17 { fill: #535145 } 
		.s18 { fill: #e3cba8 } 
		.s19 { fill: #ddccb6 } 
		.s20 { fill: #e0d8c9 } 
		.s21 { fill: #d6bfa9 } 
		.s22 { fill: #d2c387 } 
		.s23 { fill: #3e3f3d } 
		.s24 { fill: #b6ab8e } 
		.s25 { fill: #c3a48a } 
		.s26 { fill: #cbc0b6 } 
		.s27 { fill: #c8b89a } 
		.s28 { fill: #caac7e } 
		.s29 { fill: #d84141 } 
		.s30 { fill: #a58a6b } 
		.s31 { fill: #826e5c } 
		.s32 { fill: #81786c } 
		.s33 { fill: #3f3d37 } 
		.s34 { fill: #92826c } 
		.s35 { fill: #725b49 } 
		.s36 { fill: #d3d8d2 } 
		.s37 { fill: #51483b } 
		.s38 { fill: #44424b } 
		.s39 { fill: #d1aa88 } 
		.s40 { fill: #9d8f8c } 
		.s41 { fill: #d85b55 } 
		.s42 { fill: #9e887c } 
		.s43 { fill: #6b6368 } 
		.s44 { fill: #b2b2a5 } 
		.s45 { fill: #060a3d } 
		.s46 { fill: #7b7155 } 
		.s47 { fill: #555546 } 
		.s48 { fill: #d3aa9f } 
		.s49 { fill: #e29384 } 
		.s50 { fill: #bec2be } 
		.s51 { fill: #060a1c } 
		.s52 { fill: #bf7d67 } 
		.s53 { fill: #b79eae } 
		.s54 { fill: #874152 } 
		.s55 { fill: #dd7a63 } 
		.s56 { fill: #0c3a3a } 
		.s57 { fill: #cbb274 } 
		.s58 { fill: #d9716d } 
		.s59 { fill: #a89767 } 
		.s60 { fill: #5e0507 } 
		.s61 { fill: #444058 } 
		.s62 { fill: #2c1f3c } 
		.s63 { fill: #343b13 } 
		.s64 { fill: #12340e } 
		.s65 { fill: #89908e } 
		.s66 { fill: #c91a37 } 
		.s67 { fill: #6d6f7d } 
		.s68 { fill: #c8d3d1 } 
		.s69 { fill: #9f7054 } 
		.s70 { fill: #d5120f } 
		.s71 { fill: #ac5261 } 
		.s72 { fill: #420736 } 
		.s73 { fill: #b1c4c0 } 
		.s74 { fill: #5f3044 } 
		.s75 { fill: #7c0540 } 
		.s76 { fill: #9c040b } 
		.s77 { fill: #bbd5d5 } 
		.s78 { fill: #a5a762 } 
		.s79 { fill: #cebc67 } 
		.s80 { fill: #eff00d } 
	</style>
	<g id="Background">
		<path id="Path 0" class="s0" d="m544.5 432.4v-4l2.2-1.1 0.7-7.6 1.1-1.1h4.4l1.8 2.9-0.7 2.5-1.8 1.1 1.1 3.7-0.8 0.7-1.4-0.7-0.4 1.4zm-390.8 80h3.3l1.5-1.5h1.1l1 2.2h1.9l0.7 1.5h5.4v2.9 6.1l-6.5 5.9-0.7 5.4h-5.5l-0.3 1.5h-4.4v-8l-1.5-0.8v-6.1l1.5-2.6v-2.9l-1.1-0.4 0.7-2.1zm484.6 1.4l0.3 1.1 3.3-0.4 1.1-2.1h1.5l-0.8 1.1 1.1 1 2.2 8.8-1.4 1.4h-8-10.2l-2.2 2.9h-3.6l-1.1 1.5h-12.7l0.3-4.4 5.8-0.3 3.3-3.3 0.7-5.1h3.3l0.7-1.1 1.8 1.1h6.6v-1.1h1.8l0.7 1.1 1.5-1.5 1.8 1.1v-1.1zm-416.6 2.2v-2.2l1.1-0.7h5.1v2.9l-1.8 1.5zm-101.1 11.6v-4.3h5.9l9.4 2.9h5.1v2.9l-1.8 1.8-9.5 1.1-0.3 1.4h-8.8zm401.3 2.9v-5.8h8.8l0.7 2.2-0.7 3.6zm-24.7 1.5l0.3-2.9 5.5-1.5h10.1v2.9l-1.4 1.5zm-189 11.6l2.1-2.9 10.2 1.5 0.8 2.9h10.1 12.8l1.8 1.4h7.6l3.3-1.4h7.2l2.2-2.9h7.3 2.9l0.7-1.5h8v7.3h-5.8l-6.5 2.9h-12.4-2.5l-4.8 2.9h-5.8l-2.2-1.5h-10.9l-4.3-2.9h-9.5l-1.1-1.8-2.5-1.1h-8.7zm285.7 1.5l9.4 1.4 0.8-2.9h6.5l1.5 1.5-0.4 4-5.8 4.7h-6.2l-4-2.5-5.8-1.1-4-2.2v-2.9zm-32.7 7.3v-4l1.8-1.9h12.7v1.5 2.9l-2.2 1.5-0.7 2.9h-10.2zm354.8-4.8l1.5-0.3 5 6.2-0.3 1.8h1.8l0.4 1.8 1.8 1.1-3.3 3.6-1.4-1.1-1.1 0.7-3.3-1-1.1-6.6zm-469.6 20.7l0.3-4.3 4.7-0.4 2.2-1.8 1.5-6.9 2.9-2.9v-4l4 0.3 1.8 1.9 4.4 0.7h9.4v2.5l-2.5 4.4-6.6 0.4-4.3 2.5-2.9 0.4-0.4 5.8-2.2 1.4zm33.5-18.1v-1.1l1.4-0.4 0.4 0.7zm26.1 13.8l1.5-8.3-2.9-2.6v-3.6h8l0.4 2.2 1.4 0.7h8.4l4 2.6 4 0.3 0.7-3.2 2.2-2.6 8.3 0.7 4 2.2-0.7 2.6-5.8 0.3-3.3 3.3-6.9 2.5h-3.3l-3.2 2.9-6.9-1.4zm91.6-2.9l5.1-0.7 1.4-2.2 11.6 0.7 3.7-0.7v16l1.1 2.1 5.4 1.9 2.2 2.5 8.4 1.5 1.8 1.8v3.3l-4.4 2.5-0.7 9.4-2.9 2.6-3.7-0.4-2.9-1.8-1.4-2.9v-4l2.9-2.9v-4.4l-2.9-3.6-7.6-0.4-2.6 2.9h-6.2l-3.6-2.1-0.4-2.2v-2.2l-2.9-4.4v-6.5l-1.4-1.8zm-315.6 5.8l1.5-2.9h9.8l3.6 2.2 6.6 0.7 5.4-1.5h12l2.6 1.5h7.3l3.6-2.5 5.4-0.4 2.6 1.4 17.8 1.5 1.8 1.1 0.4 2.5-3.7 2.2h-12.3l-2.9 1.5h-4.7-14.6l-2.2-1.5-10.9-0.7v-1.1l-2.2-1.1h-21-5.9zm650 10.9l0.4-2.5 1.8 0.7-0.8 1.4 1.5 0.4 2.2 5.8-0.7 1.1 1.4 1.1h-5.8zm-492.9 10.9l0.7-4.4h4.7l1.1-1.4 4.4-0.7 2.2-2.2h5.8v7.3l4 3.6 2.5 5.8v2.9l2.2 1.1 0.7 11.3 3.7 6.2-1.5 8.3-1.4 1.1v4l-3.7 1.8-2.2 2.6-0.3 7.6-0.7 2.9 2.5 3.6-0.7-0.7-4.8 0.7v2.2l1.9 2.9-2.6 0.4-0.3 2.5-0.4-1.4h-1.1l0.7-5.5-1.4-1.4v-3.7l-2.9-3.2-0.8-3.7-6.1-6.5-0.4-10.5-4-3h-6.5l-1.1 3h-8.8v-7l-1.4-1.8v-4l10.2-0.3 2.1 0.3 3 2.6h5l1.9-5.8h5.8l2.5-4-1.4-4.4-2.2-2.2-8.7-2.5zm-135.3-5.8v-1.1l1.5-0.4h5.8v7.6l7.3 9.5-0.8 8.3 0.8 5.9 1.1 0.7 0.3 14.5-2.9 9.1 1.5 1.1-2.2 3.3h-2.5l2.1 2.2-0.3 1.4-2.9-0.7v-0.4l-0.4-3.3-2.5-1.8v-4.3l2.9-2.2 1.4-10.2v-2.9l-4.3-3.6v-4l1.4-1.1v-5.5l1.5-2.5v-6.2l-2.9-2.5-1.5-4.4-4-2.2zm292.3 16h-4l-3.3-4.4v-6.9l3.3-1.8h2.5 2.5l3 3.3 6.9 3.6 1.1 2.2 6.5 2.9 0.4 4v4l1.8 1.8h5.4l1.5 1.5-1.5 5.8v8l1.5 1.1v6.9h-4.7l-3.7 2.9-0.3 7.3-4.4 0.7h-4.7l-5.5 2.5v8l-1.1 0.8v0.7l-1.4-1.5-1.1 0.8-0.4-2.2-1.1 0.7-0.7-1.4h-2.2l-3.3-4.8-0.7 0.8-2.5-1.5 1.1-1.1-1.8 0.4-5.1-5.1 2.9-1.8v-6.6l2.2-2.5h6.5l0.7-5.1-9.4-9.1-1.8-4-6.2-0.7-0.8 1.4h-2.1l-3.7-3.2v-1.8l-2.2-2.2-0.7-5.5 1.1-1.1h4.7l3.3-5.1h3.6l2.6 1.9 1.1 3.6 4 3.3v2.9 4.3l1.8 1.5v1.4l12 9.1h1.8l1.5-2.2-8-7.6-0.4-5.1h1.5 3.6l4 3.7h3.3l1.4-1.5v-3.6l-5.8-5.8h-6.2z"/>
		<path id="Path 1" class="s1" d="m165.4 509.1h1.8l0.7-2.2h1.1l0.4 2.2-0.7 5.4h-5.5l-0.7-1.4h-1.8l-1.1-2.2 1.4-1.1h1.1l0.4-1.4zm481.6 5l3.7 0.8 1.8-1.1 0.7 1.8 2.6-0.4 2.1-0.3 1.1 1.4 2.6-1.8 3.2 0.7 0.4 2.9 1.8 2.2 8 1.5 1.5 1.4 8.7-1.4h23.6v2.9l1.8 2.2 7.7 1.1 1.4 5.4v7.3l-11.6 0.7v-4l-2.2-2.2-8 0.4h-1.8l-1.1-1.5-8.3-0.7-1.5-1.4-9.5 0.7-2.5 1.8v10.5l-6.2 1.5-2.5-0.7-1.1 3.2-1.8 0.8h2.5v1.4l-2.5-0.3v1.4h-12.4l-0.7 1.5h-5.8v-8l-2.2-2.2-13.8 1.4v-2.5l1.4-1.1 16.7-1.4 0.8-1.1 8-2.6 3.2-4.3 2.2-0.8 0.8-4.3-1.9-2.9-10.9-0.8-2.2-8.7zm-43.2 1.8l1.4 0.4v-1.8l2.6 1.8 0.7-1.1 2.2 0.4 1.5-1.1v1.4h5.8l-0.8 5.1-3.2 3.3-5.8 0.4-0.4 4.3h-18.5l-1.9-1.4v-4l2.9-3.3v-2.6l4.8-1 1.1 1.4 0.7-2.5 2.2-0.4 1.8 1.5zm-458 0.7l2.9-1.5 1.4 0.4 1.1 0.4v2.9l-1.4 2.5v6.2l-8.8 1.4v-2.9l1.5-7.6 0.7-0.4zm74.5 1.1l1.5-1.8 4.4 1.5-2.2 5.4-4.4 4v5.1 1.5h-6.9l-2.5 1.4-1.9 2.6-2.9 0.3-5.4 3.7-0.7 3.6v1.4l-12 0.8-2.9 3.2-4.8 0.8h-1.8l-2.5-6.6-1.5-1.1-0.7-7.2v-2.6l1.4-1.1 2.6-9.1 6.2-5.4 2.9-0.7 12-0.8 1.4 1.1 0.4 10.6 9.1-1.8 2.5-3 1.5 0.4 1.4-2.2h2.2zm310.4 6.9v-1.4h10.2v2.9l-9.4 0.7zm-43.7 11.6v-3.2l1.1-1.1h4.8v4.3zm-366.5 0v-2.9h8.8v6.9l-5.8 0.4-2.2-1.8zm336.6 3.6l6.5-2.2h10.2 7.3v10.9l-1.5 0.4v1.1l-2.2 0.7h-9.4l-4.4-0.7-1.8-1.8-4-0.4h-4.4-17l-4-2.2-8-0.7h-14.6l-7.6 4.4h-5.1l-2.5-1.5h-9.5v-7.2h3.6l0.8 1.4h23.2l1.1-2.9h17.8l1.5 2.9h17.4zm-187.9 18.5l1.1-1v-6.2l8.4-7.7h4.7v5.9 1.4h-3.3l-1.8 1.5v3.6l5.1 0.7v7.3l-1.5 2.9h-5.1l-2.1-2.9h-1.9l-2.5-2.9zm22.9-9.1l0.4-4.4 15.6-1.4v2.9 2.9h-4.7l-1.1 1.5-5.8 1.4-3.7-0.4zm283.6-2.9l1-2.1 3-0.8h4l2.1 1.5v2.9h-10.1zm-69.8 17.4l9.8-1.4 6.9 1.4 3.3-2.9h3.2l6.9-2.5 3.3-3.3 5.8-0.4 0.8-2.5h15.2l1.5 2.9h10.2v7.3l-8 1.8-1.9 1.5-6.9-0.4-1.8 1.8-5.8 0.4-2.2 1.4-9.4 0.8-5.5 2.9h-1.4l0.3 0.7-4.7-0.7-3.3 1.8-1.4-0.8-13.8 2.2-9.1-0.3-12.4 1.4-1.4-11.6zm-303.6 3.3v-2.6l-2.5-2.2v-5.8h3.6 9.5l3.6 1.5v4.3l-4.4 1.9-0.3 5-7.3-0.7zm182.9 1.1h16.3l2.9-1.4h3.3l6.2 1.4 2.2-1.4h16.3l-1.1 3.2-2.5 0.7-1.5 1.9h-4l-0.3 2.9h-5.9-5l-1.1-2.2-3.3-0.7h-12l-0.4 2.9-10.1-1.5z"/>
		<path id="Path 2" fill-rule="evenodd" class="s2" d="m530.7 420.4l6.6-0.4 1.8-1.1 1.4-2.9 2.2-1.4 0.4-2.6 3.6-2.1v-10.9l2.9-4.8v-8.7l1.1-1.1h2.6l0.7 11.6 1.4 4.8v5.4l-1.8 3.3h1.1l0.7 4-1.1 0.7 0.8 4-1.5-0.7-0.7 1.1h-4.4l-1.1 1.1-0.7 7.6-2.2 1.1v4l-0.7 8.7 0.7 1.1-10.9 2.2-0.7-0.4 0.7-10.9-1.4-3.3-1.5-1-8.3 0.3-7.7 1.1v-4.3l0.7-1.1 3.3-0.4 0.7-1.5h2.6zm408.6 10.6l-2.2-0.7v-2.2l3.6-4.7v1l1.8-1 0.4 1-0.4 1.5h-1l0.3 1.1-1.8 1.1 0.4 2.5zm-42.9 82.9l-4.4 0.7-3.6-3.3 0.7-6.5 2.5-1.8h4zm-782.9 13.8v-4l5.8-1.8 1.4 1.4v4.4zm399.9 0l2.2-2.2 6.5-0.7v5.8h-8.7zm389.7 13.1v-3.3l-2.2-3.2 1.4-7.3 1.8 1.1-0.7 1.4 1.1-0.3 1.8 2.1-0.7 1.1h1.1l1.4 1.9-0.3 1.4h1.4l1.1 1.8-1.8 0.7 0.4 1.1 1.1-0.7-1.1 2.6 1.4-0.8 0.8 1.5-1.1 0.3 1.8-0.3 1.4 1.1v1.8l1.1-0.4 0.7 2.9 1.1 0.4v6.2h-2.9l-3.6-4-0.7-2.9-2.2-1.5-0.4-2.5-1.8-2.2zm3.6-8.4v-0.7l0.8 0.7zm-426.8 17.8l1.8-0.7h22.9v3.7l2.9 2.5-1.4 8.4-21.8 1.4-23.3 1.5 0.4-5.9 2.9-0.3 4.3-2.6 6.6-0.3 2.5-4.4v-2.5zm100.4 16.3l3.6-0.3 3.3-2.6 0.3-4h8.8l1.4 1.5v4l1.5 1.8v6.5l2.9 4.4v2.2h-6.9l-0.4 5.8h-2.5l-3.3 1.8v6.9l3.3 4.4h4v5.8h-1.5l-8.7-1.5v-2.9l-4-3.2-1.1-3.7-2.6-1.8h-3.6l-3.3 5.1h-4.7l-1.1 1.1 0.7 5.4 2.2 2.2v1.8l3.7 3.3h2.1l0.8 3.6 1.8 1.1 0.7 2.6 5.1 3.6 2.6 6.6-2.2 2.5v6.5l-2.9 1.9-7.3-8 1.4-1.5v-4.7l-4.3-3.3-2.6-6.5-6.1-6.6-1.5-9.1 0.7-5 5.1-2.6 2.6-2.5 1.4-5.5 3.3-0.7 1.4-2.9 5.9-5.1zm340.2-3.3l1.5-1.1 0.7 2.2 1.8-1.4 0.4 1.8 1.1-0.8 1.8 1.1-0.4 1.5h-2.2l0.4 1.4-1.5 0.4 1.1 1.5-1.8 0.3 0.4 2.6 0.7 1.1 1.1-0.4v1.4l1.8-0.3 0.7 1.8 4 1.5v8h-5.8l-1.4-9.1-4-5.5zm-634 28.4l9.5 1.4 1.4-1.4v-2.6l1.5-0.7 0.7-5.5h4.4l0.3 4.4 4 2.2 1.5 4.3 2.9 2.6v6.2l-1.5 2.5v5.5l-1.4 1.1v4l4.3 3.6v2.9l-1.4 10.2-2.9 2.2v4.3h-1.5l-4.3-0.3-0.8-6.2-2.1-2.6v-10.1l-3.7-2.2-5.1-5.5-0.7-10.2-5.1-5zm145.4 2.9l1.8-5.1 5.5-0.8 2.2 4.4 8.7 2.6 2.2 2.1 1.4 4.4-2.5 4h-5.8l-1.9 5.8h-5l-2.9-2.5-2.2-0.4v-4.7l1.4-3.7-2.9-1.8zm190.5 13.1h-5.5l-1.8-1.8v-4h4.7l2.6 3.6zm-197.8 14.6h8.8l1.1-2.9h6.5l4 2.9 0.4 10.5 6.1 6.5 0.8 3.7 2.9 3.3v3.6l1.4 1.4-0.7 5.5-0.7 1.8-7.3-1.8-6.2-4.7-1.1-2.2h-1.4l-2.9-4h-1.5l-0.7-1.8-1.8-0.8 0.3-1.8h-1l-3.3-4 0.7-4.3-1.8-0.8-2.6-5.4z"/>
		<path id="Path 3" class="s3" d="m637.6 524.7h8l1.4-1.4 10.9 0.7 1.9 2.9-0.8 4.4-2.1 0.7-3.3 4.3-8 2.6-0.7 1.1-16.8 1.4-1.4 1.1v2.6h-14.6l-1.4-1.5h-6.6l-0.7-1.4h-9.1l-0.3 2.9h-8l-2.2-1.5h-4l-2.9 0.7-1.1 2.2h-12.7l-1.8 1.8v4h-15.3l-4-2.1-8.4-0.8v-14.1l-2.5-2.2-0.4-2.6 0.7-3.6 9.5-0.7 2.2 1.4h10.9 5.1l1.4-1.4h8l2.2 1.4h16.7l1.8 1.5h18.6 12.7l0.4 1.4h9.1l6.9-1.4zm-144.7 11.6l8.3-1.4h9.1l6.2 2.1h5.5l1.4 2.9v3.7l-2.2 2.2h-4.3l-0.8 1-3.2 0.4-0.4 2.2h-8-22.9l-0.3-0.7v-10.9l0.3-1.5h5.5zm-107.6 11.6h9.4l2.6 1.5h5.1l7.6-4.4h14.5l8 0.8 4 2.1h17.1l-1.8 5.9-4 3.2-4.4 0.8-2.5 4.3-2.9 1.1-0.4 3.6h-5.1-16.3l-2.2 1.5-6.2-1.5h-3.3l-2.9 1.5h-16.3-4.4v-5.8l-2.5-2.9h-4.8l-2.1 2.9-7.7-0.4-3.2-4.3v-7h12.3l6.6-2.9zm-88.7 4.4l5.8-1.5 1.1-1.4h4.7l1.8 2.9 2.9 1.5v1.8l-4 2.5h-9.4l-2.6-2.2zm-13.1 4.4l-5.1-0.7v-3.7l1.9-1.4h3.2zm365-2.9l0.7-1.5h12.4l-0.4 2.6-2.2-0.8v1.5l-1.8-0.7-0.3 1.8h1l0.4 1.8-2.5-0.4-0.4 1.1h-3.6l-2.6 1.5zm-24.7 55.2l12.4 1.5 1.8-1.8 1.8-2.6v-13.8l2.5-2.2h3.7l3.2-3.2 2.2-12.4 2.9-0.4 0.4 1.9 2.9-0.8-0.4 3.3-1-0.7-1.5 0.7 1.5 0.7-1.1 1.5 0.3 2.5-1.4 2.9-2.2 1.5-0.7 5.1h-1.5l0.4 1.8-1.5 1.1 0.4 2.5-2.9 1.8 0.3 3.7-2.5 1.4-0.7 3.3-2.9 0.4 0.7 2.5 0.7-1.8h1.1v1.4l-0.7 1.5-2.2 0.7 1.1 0.4v1.4l-2.2 4.4-0.4 1.1-0.3 0.4-1.1-0.4v6.5h-1.5l-0.3 2.9-1.5 0.8 0.4 2.2-0.7 4.7-3.3 4.3-1.8 0.8v-9.8l-2.2-1.9h-2.2v-6.9l-1.4-1.1v-8zm-150.5-14.5h-3.3l-4-3.6-0.7-7.7 2.1-1.8 3 3.7-0.8 1.8 1.5-0.4 0.7 1.8h1.1l-0.7 2.6 1.1 0.7zm2.1 18.2l-1.4-1.5v-3.6l1.4-1.8h1.1l-0.3 2.1 1.1 1.1-1.1 0.4zm135.2 29.1l4.4-0.7 4.3 2.9 1.5 4.7 4.3 1.4 0.8 1.5-0.8 1.1-4.3 4-3.7-0.4-1.4-1.8-0.7 0.7 1 1.5-4-0.7v-7.7l-1.4-1.4z"/>
		<path id="Path 4" fill-rule="evenodd" class="s4" d="m544.5 432.4l6.2-2.2h1.1l0.7 1.8-0.7 4.4-1.1 0.4-0.4 2.1-1.8 0.4 0.4 1.5-2.9-0.4-0.4 1.8h-1.1l-0.7-1.1zm76 96.7l1.1-1.5h3.6l2.2-2.9h10.2l-0.8 4.4-6.9 1.5h-9.1zm-479.4 0l8.7-1.5 1.5 0.7v8l-3 2.9-12.3 1.5-6.6-0.4v-6.9l0.4-1.4 9.5-1.1zm370.7 2.9l1.5-1.5h17.4l0.4 2.6 2.5 2.2v14.1l-2.1 2.6-0.8 3.2-4-0.3-4-2.6h-8.3l-1.5-0.7-0.3-2.2 0.3-2.2 3.3-0.3 0.7-1.1h4.4l2.2-2.2v-3.6l-1.5-2.9h-5.4l-6.2-2.2h-9.1l-8.4 1.4v-4.3zm82.2 13.1l0.3-2.9h9.1l0.8 1.4-0.8 2.9zm-285.7 4.4v-2.9h8.7l2.6 1.1 1.1 1.8h9.4l4.4 2.9h10.9l2.2 1.4h5.8l4.7-2.9h2.6v6.9l3.2 4.4 7.7 0.4 2.2-2.9h4.7l2.5 2.9v5.8l-3.3 1.4-15.2 0.8-0.4-2.6-1.8-1.1-17.8-1.4-2.6-1.5-5.4 0.4-3.6 2.5h-7.3l-2.6-1.4h-12l-5.4 1.4-6.5-0.7-3.7-2.2h-9.8v-14.5h8.7l0.8 2.5 3.6 0.4 0.4 3.6 2.5 2.2h9.4l4-2.5v-1.9l-2.9-1.4zm129.4 17.4l0.4-3.6 2.9-1.1 2.6-4.4 4.3-0.7 4-3.2 1.8-5.9h4.4v4l-2.9 2.9-1.5 6.9-2.1 1.9-4.8 0.3-0.3 4.4h-7.3zm181.8-8.7l1.8-1.5h5.8l15.6-2.9h5.8l0.8 6.9 0.7 1.5-0.7 1.4 2.1 0.7-1.8 1.5 2.2 1.1v1.4h1.5v3l2.5 1-1.5 1.9-2.9 0.3-2.1 12.4-3.3 3.3h-3.6l-2.6 2.1v13.8l-1.8 2.6-1.8 1.8-12.4-1.4-1.4-1.5v-2.2l-2.6-3.6h-4.7l-0.4-4-6.5-2.9-1.1-2.2-6.9-3.6-2.9-3.3h-2.6l0.4-5.8h6.9l0.4 2.2 3.6 2.1h6.2l2.5-2.9 7.7 0.4 2.9 3.6v4.4l-2.9 2.9v4l1.4 2.9 2.9 1.8 3.7 0.4 2.9-2.6 0.7-9.4 4.4-2.6v-3.2l-1.9-1.8-8.3-1.5-2.2-2.5-5.5-1.9-1-2.1zm-161.4 21.8l1-2.2 3.7-0.7h4l0.7 1.8-0.7 1.4 0.7 1.1-2.2 1.8 0.8 7.7 4 3.6h3.2l0.7 4.7-0.3 2.2 1.4 1.1 0.4 3.3-1.5 1.8v3.6l1.5 1.5-0.7 1.4h-1.5l1.1 2.9-2.5 0.4 1.1 1.5 2.9-0.8 0.3 0.8-1.8 0.7 1.5 0.7v1.5l-1.1 0.3 0.3 2.9-1.8 2.2 0.7 1.1-1.8 2.2 0.4 1.8-3.3 3.6 0.4 3.3-1.8 0.7-0.4 2.6h-1.1v2.5l-4.3-1.4 0.3-7.7 2.2-2.5 3.6-1.8v-4l1.5-1.1 1.4-8.4-3.6-6.1-0.7-11.3-2.2-1.1v-2.9l-2.5-5.8-4-3.7zm-146.9 1.5l2.9-0.4 0.7 1.8 2.2 0.8v4.7l2.2-0.4-1.1 2.2 1.5-0.7 0.3 0.7-0.3 3.3h1.8l1.1 2.2-0.4 3.2 1.5 1.1-2.9 4.8 3.2 2.5-1.8 2.9 2.2 1.1 0.3 1.5-1.8-1.1-1.4 2.9h1.4l-0.3 1.8h1.8l-0.7 1.4 1 2.2-1 2.2 1 1.5-1 0.3 1 2.6-2.9 6.9-1.8 0.3 0.4 3.7-1.8 0.7-1.5-1.1 2.9-9.1-0.3-14.5-1.1-0.7-0.8-5.9 0.8-8.3-7.3-9.5zm285 17.5l0.3-1.5h6.2l5.8 5.8v3.7l-1.4 1.4h-3.3l-4-3.6h-3.6zm-1.5 5.8l0.4 5.1 8 7.6-1.5 2.2h-1.8l-12-9.1v-1.4l-1.8-1.5v-4.4zm-20.3 5.9l0.7-1.5 6.2 0.7 1.8 4 9.4 9.1-0.7 5.1h-6.5l-2.6-6.5-5.1-3.7-0.7-2.5-1.8-1.1zm40.7 30.5l0.4-7.2 3.6-2.9h6.9l2.2 1.8v9.8l0.7 2.2-1.4 0.7 0.3 3.3-2.5 1.4-4.4-1.4-1.4-4.8zm-14.6 11.3v-8l5.5-2.5h4.7v5.1l1.4 1.4v7.6l-4.7 0.4-0.7-1.1-0.4-1.1-1.4 0.4z"/>
		<path id="Path 5" class="s5" d="m539.4 356.1l4.4-0.8 3.3 4.4 2.9 6.9 3.3 17.8h-2.6l-1.1 1.1v8.7l-2.9 4.8v10.9l-3.6 2.1-0.4 2.6-2.2 1.4-1.4 2.9-1.8 1.1-6.6 0.4-3.3-0.7-1.4-2.9-2.2-0.4 0.4-2.9h-1.1l-6.2 4h-1.8l-2.9 2.2-2.6 0.7-1.4-6.2 2.9-2.2 10.2-3.6 10.5-4 0.4-6.2v-2.5l3.2-4 2.6-0.7 3.6-4 3.7-1.5v-1.1l-1.5-0.3v-3l1.5-1-1.5-14.2-2.9-1.8v-2.6l-1.5-1.1zm-28.3 41.1l6.5-1.8 2.6 2.9-4.8 4.4-3.9 1.4-0.8 1.8-2.5 1.5-3.3 1.8-1.8-2.2v-4l2.9-2.5 1.8 0.3v-1.1l1.8-0.3zm421 24.3h2.9l1.4-2.5 1.5-0.4h5.8l0.7 1.1-1.1 0.7 0.4 1.1-1.8-0.3-1.1 2.1-3.6 4.8v2.2l2.1 0.7-1.4 5.1-2.9 1.4 1.4 2.2-2.9 1.1-1.1 4-2.1 1.8-0.8-1.1-1.1 1.5-3.6 0.3 1.8 2.9h-1.4l0.7 2.6-1.1 0.4v1.4l1.1 0.7-0.4 1.1-2.2 0.4v1.4l-1.4 2.6-3.3 0.7 0.4 1.1 2.2 0.4-1.5 2.9-5.1 1.4 2.2 0.8 0.7 1.4-1.1 2.2-2.1 0.4 0.7 1.4-0.7 1.5h-1.5l0.4 1.4-2.2 2.9-2.9 2.2v1.5h1.1l-10.2 13.4-0.4 2.6-3.2 2.1 0.3 1.9h-4l-2.5 1.8-0.7 6.5 3.6 3.3 4.3-0.7 0.4 5.4 1.8 1.1-0.7 1.5h1.1l3.3 5-1.5 7.3 2.2 3.3v3.3h-2.9l-4.4-3.7-0.7-8 0.7-3.6-1.8-1.1v-1.8l-2.5-2.2h-2.9l-1.9-2.9-3.6-1.5v-1.8l-1.8-1.4-1.5-9.8h1.5l2.9-3 5.4-1 2.6-3.3 0.7-5.8 3.6-4.8v-3.2l1.1-0.4 0.8-2.5 3.6-0.4 3.3-8.4h1.4l2.9-2.9 0.8-3.6h3.6l1.4-2.9 1.5-0.4v-2.9l3.6-6.2v-4.3l-1.4-0.8v-1.4h4l1.8-1.5 0.4-2.9 4-2.1v-5.1-8zm-423.2 5.8l4.4-1.5h1.5v4.4l-1.1 1.4h-4.8zm13.5 1.9l8.4-0.4 1.4 1.1 1.5 3.3-0.8 10.9 0.8 0.3-5.5 0.8-0.4 0.7 2.6 0.7-0.7 0.4-5.9-0.4-0.3-6.2-1.5-0.7zm-399.8 63.2l1.4-1.8h1.5l2.5 2.6-0.7 1.1-2.2 0.3h-2.2zm-25.8 29.5v-3.3l2.2-4 8.7 1.5 5.9-3h1.4l1.5 1.9 3.6-0.8 1.1 0.8v1.4l-1.8 0.7v4.8l-5.8 1.8v4l-2.6 1.4h-6.5l-4.8-3.2zm277 20.3l1.5-2.9 2.2 0.7v0.8l-0.8 1.4zm189.4 23.6l1.8-1.4 8-1.8h4.4v2.9l2.9 1.1v8.3l-5.8 5.1-1.5 2.9-3.2 0.8-1.5 5.4-2.5 2.6-5.1 2.5-0.7 5.1 1.4 9.1 6.2 6.5 2.5 6.6 4.4 3.2v4.8l-1.5 1.4-8.7-9.1-10.2-14.2v-1.4l-1.4-0.7-2.6-5.5 2.6-3.6 1.1-13.5 2.5-0.7 2.9-4.4 2.9-1.4 2.2-2.9v-2.2zm-299.2 4.7l6.6-0.7h6.5l1.1 1.1 4 0.4v3.6l3.7 2.5 0.7 14.2v5.1l5.1 5.1 0.7 10.2 5.1 5.4 3.6 2.2v10.2l2.2 2.5 0.7 6.2-1.4 1.4v2.6l-7.3 0.7-1.1-6.2h-3.3l-0.7-13-7.2-7.3v-1.8l-1.5-1.5-5.8 0.4-3.7-3.7 0.4-6.1-4.7-6.6 0.7-5.1 0.7-6.1-2.1-1.1v-2.6l-3.3-4.3zm149 18.1v-2.9h7.3l0.4 3.7 2.1 0.7 4.4 4.3h4.7v4.4l2.9 1.8-1.4 3.7v4.7l-10.2 0.4v3.9l1.5 1.9v6.9 4.7l2.5 5.4 1.8 0.8-0.7 4.3-2.9-1.8-0.7-2.5-4.4-4.7 1.4-0.4v-4.4l-4.3-5.8v-13.1l-2.9-3.6v-11.6z"/>
		<path id="Path 6" class="s6" d="m106.9 475.3l2.5-0.4 1.8 3.3-1.1 1.4 0.4 3.7-2.5-1.1v-0.7l0.3-1.1-3.2-0.8zm35.9 16.8l-0.7-4.8h-1.1l-0.7-1.8 0.4-3.2h3.2l0.4 1.8 2.5-0.4 2.2 1.5-0.3 2.1 1.8 1.9 0.3 3.2-0.3 6.6-1.8 4-3.3 1.4-0.4 2.9-2.2 0.4-2.5-2.9 3.6-3.3-1.4-2.9 2.2-2.5-1.9-1.9zm-27.2-5l4.7-3.3 2.9 1.4-1.4 6.9-1.1 4.4-3.7 0.7-1.4 0.4 1.4-1.8-2.2-4.4zm11.7 7.3h1.8l-2.9-3.3-0.4-2.2 3.3-2.1 7.3 0.3 4.3 5.1-0.3 6.2-1.8 2.5-3 2.2-2.1 0.4-5.9-0.4-0.3-0.4-3.3-2.5-1.1-4.7 2.2-0.7zm643.4 6.9l1.8-1.1 2.6 2.9-2.2 1.4-1.8-1.1z"/>
		<path id="Path 7" class="s7" d="m535.1 447.3h0.3v0.4h-0.3zm-1.8 12l-1.1-0.8v-10.9l6.5 1.1 6.9 0.7-1.8 2.9v9.9l-2.9 1.4h-2.6l-1-1.1-0.8-3.2zm96.4 5.8v-4l-1.5-1.1v-2.2l7.6 1.5 1.1 1.4v4.4zm115.6 34.9l17.1-0.4-0.7 4.4h1.1l0.3 4.3-0.7 1.5-1.8 0.3-2.9-0.7 0.7 2.2-1.1 0.7-1.4-1.8-0.4 1.5-2.2 0.3v-2.2l-1.4-0.3-1.5-4.4-1.1-1.1h-2.5zm-246.1 10.2l1.8-2.5h1.8l1.5 1.4 4-1.1 1.4 1.1-0.3 5.1-3.3-0.4-0.4 1.5-5.1 0.7-1.4-2.9z"/>
		<path id="Path 8" class="s8" d="m522.7 372.4l5.8-4.7v-5.1l-2.1-1.4v-6.6l2.9-1.4 8 0.7 0.7 2.2h1.4v4.3l1.5 1.1v2.6l2.9 1.8 1.5 14.2-1.5 1v3l1.5 0.3v1.1l-3.7 1.5-3.6 4-2.6 0.7-3.2 4v2.5h-8-4l-2.6-2.9-0.3-4.7 0.3-13.5h3.7l1.4-1.4zm-34.9 23.6l2.6-1.4 0.7 2.1 4 1.9-5.1 5.4-6.2 4.4-1.8-2.6-2.9-0.3 1.8-3.7zm445.7 10.9l1.8-1.1 0.7 1.9 1.8 0.7v10.2l-1.4 0.3-1.5 2.6h-2.9v-5.1l1.5-1.1zm-40.4 16h3.3l2.2-2.6 4.7-1.4 0.4 4-5.9 4.4-3.2 0.7-1.1 1.4h-2.6l-1-3.2zm-3.7 16l4.7-0.4 6.9-4h4.8v4.4h-3.3l-5.1 3.2h-1.8l-2.9 4h-3.6l-3.3-1.1-0.4-3.2zm-15.6 2.5v-2.9l1.4-0.4 1.5 1.5v1.4zm31.3 28.8l-2.2-2.2v-4.4h7.2l-0.7 3.6-2.9 3zm-25.1 6.9l-0.3-3.3h1.4l1.8 0.4v2.1zm1.1 17.1v-8l2.9-0.7 4.4 2.2v2.2l-2.9 1.8-1.5 2.5zm-655.7 2.9l-4.4-4.7v-5.4h5.8l0.8 3.9 2.1 1.1v5.1zm146.9 7.3v-7.3l8 0.4-1.5 7.3-3.2 0.7-1.5-0.7zm468.2 2.9h9.1l2.9-2.9 4.4-1.1 1.1-1.1v-5.1h4.3l0.7 1.4h2.2l2.2 1.9 0.7 4 0.4 7.2 1.8 1.5h3.6 1.5v4.3l3.3 4 8.3 1.9 1.1 4.3h3.3l0.7 1.5h2.9l0.8 8 4.3 3.6v3.6l6.9 6.6 1.5 5.1 4 2.9v2.5l2.2 3.3 0.3 4.7 1.1 1.1v5.1h-4.4l-2.9-1.5h-10.1l-2.2-1-2.2-3.7-4.4-2.5h-12.7l-0.3 2.9 2.5 4.3-1.8 3-0.7 18.5-1.1 3.3-14.9-11.3-1.5-1.8 0.4-1.8 1.8-0.8-0.4-8.7-3.2-1.8v-2.6l-3-3.2-4.7-2.9h-9.8-4l-1.1-2.2v-3.3l-2.5-3.3h-1.8l-2.2-2.9-2.9-0.7-2.6-2.9h-1.8v-8l4.7 1.5 1.5 1.8 4 1.1 1.4-4 2.9-1.1v-3.7l5.9 0.8 1.4 1.4 8 2.2 9.5 4.4h1.4l2.9-3.3-0.3-10.2-6.6-2.5-21.4-2.2-2.6-1.8 0.4-7.3 2.2-4v-6.5zm-583.8 26.5l5.4-1.8h5.1l2.9 4.3-6.9 5.5v1.8l-5.8-1.4zm-12 41.4l0.4-1.5 3.2 0.4 0.8 1.5-1.5 1.4z"/>
		<path id="Path 9" class="s9" d="m221 505.1l1.1-2.6 2.9 0.8 3.3 4-0.4 5.8h-5.1v-4l-1.4-2.6zm-51.6 4l1.8-1 1.8 0.7v4.3l-1.5 4.4h-2.9v-2.9zm530 4.7l2.9 0.4 1.8-1.1 1.5 1.1 0.7-2.2h1.8v1.8l1.5 0.7v3l-0.7 4.3h-23.7l-8.7 1.5-1.4-1.5-8-1.4-1.9-2.2-0.3-2.9 3.6-1.1 4.4 1.1 0.3-1.1 4.4-0.4 1.5 1.8 2.9 2.6 2.5 0.3 0.7-1h4l1.1-3.3 1.8 0.7 1.1-1.1zm-117.4 2.6l1.1-0.4-0.3 2.2h2.5l0.7-1.8 1.1 1.4 2.6-0.3 0.7 0.3v2.6l-2.9 3.2v4h-16.7l-2.2-1.4v-4.4l1.8-1.4 0.4-2.2 2.1-1.5 5.1 0.8v-0.8l4 0.8zm-454.7 1.4l3.6-0.4 0.4 0.4 0.3 1.5 11-0.8-1.5 7.7h-5.1l-9.4-2.9zm426.7 9.8v-5.1h4.4l2.2 1.4v2.2l-1.5 1.5zm-80 10.2v-3.7l3.3-2.9 6.5-2.2 9.1-0.3 2.2-4h7.6l0.4 2.9-5.4 1.4-0.4 2.9h-4.4-4.7l-1.1 1.1v3.3h-5.4l-0.4 1.5zm-359.1-4.4v-5.8h5.8v5.8 2.9h-4.4v-1.8zm84.3 11.6l0.8-3.6 5.4-3.7 2.9-0.3 1.8-2.6 2.6-1.4h6.9l2.9 0.7v3.6l-2.2 1.9-1.1 4zm498.8-9.5l8-0.4 2.1 2.2v4l-9.8 0.4zm-542.3 9.4h5.8l2.5-2.9 0.4-5.8h8.7l0.8 7.3 1.4 1.1 2.6 6.5-8 4h-4l-4.8 2.2h-2.5l-0.4-1.1-3.6-0.4-2.6-2.1h-4l-0.7 2.5-2.5 0.4-10.2-2.9v-2.9l6.9-5.9h6.9zm109.8 5.5l2.5-2.2 1.5-4 7.6-1.4 0.7-5.9 4 0.4 1.9 1.5v4.7h-4.8l-8.3 7.6v6.2l-1.1 1.1-2.6-1.8zm123.6-9.8l0.4-1.5 9.4-2.2 12.8 0.7 2.5 1.5-1.1 2.9h-23.2zm237.7 4.4l13.8-1.5 2.2 2.2v8l-15.6 2.9h-5.9l-1.8 1.5-3.6 0.7-11.6-0.7-1.5 2.1-5.1 0.8-1.4-1.5h-8.8l-1.4-1.4-6.6 0.7-2.1 3.6h-4.4v-7.3l0.7-2.9 2.2-1.4v-2.9h10.2l4 2.2 5.8 1 4 2.6h6.2l5.8-4.7 0.4-4zm-423.2 8.7h7.3l4.7-1.8 2.2-2.6h4.7l1.5 1.5v6.5l-7.3 0.8-3.6-1.5h-9.5zm257.4 13.1l23.3-1.5 1.4 11.7h-10.2l-1.1 1.1-6.9 0.7-0.7-1.8h-4l-3.6 0.7-1.1 2.2h-5.8l-0.8-6.9-10.5-0.4-1.1 1.1-2.5-1.1-2.9 0.7-1.1 1.1v2.6h-9.8l-0.4-1.5 0.4-2.9h4l1.4-1.8 2.5-0.7 1.1-3.3h5.1l1.5 1.4h7.3 12.3zm-98.5 3.7l15.3-0.8 3.2-1.4h4.4v5.8l-1.5 1.5-3.6 0.7-6.9-0.7-5.8 3.2-15.3-0.3-0.3 3.6-6.9-0.7-0.8 0.7-2.2-1.1-0.3-1.8-2.6-1.8-0.3-3.3h4.7l2.9-1.4h12.4zm-62.9 12.3l-0.7-3.6-1.9-1.1-0.7-2.2-5.8-0.4-2.2-1.4-0.4-4.4h21.1l2.2 1.1v1.1l-5.8 2.6v6.9l-1.5 0.3v1.1zm96-7.3l0.4-2.9h12l3.2 0.8 1.1 2.1-0.7 2.2-2.2 1.5v1.8h-11.6v-3.6zm533.6 16v-5.9h2.9 5.8l1.5 7.3 1.4 1.8 0.8 4.4-0.8 0.3 1.5 1.1-1.5 3.3 1.5-0.7 0.4 2.5-1.1 0.8 0.7 2.9-2.2 0.3-3.6-5.1-2.2-12.3zm-620.5 52.3l-0.4-5.1h1.5l2.5 1.8 0.4 3.3z"/>
		<path id="Path 10" fill-rule="evenodd" class="s10" d="m491.8 375.7l2.9-2.2 3.3 1.8v2.6l-8.4 9.4-3.6 3.3-1.1-1.8v-6.2l2.2-2.5zm383.9 40.7l1-2.2 8.8-5.1 2.9-3.6 1.1 0.3 3.2-2.9 2.6-0.3-1.1-1.1 4.4-0.8 1.8-1.8-0.4-1.1h2.6l1.8-2.2 2.2-0.3v-1.1l1 0.4 9.5-5.5 6.5-1.8 1.1 0.7 1.1-1.4 1.5 0.7 0.3 9.4-1.1 2.6-2.9 0.3-1.8 2.2v5.1l6.2 0.7 5.5-0.7v8.4l-1.5 1.1v5.1l-2.9 3.6v8h-4.7l-2.2 3.3-2.6 0.7-0.7 7.6v1.5h-2.2l-0.3-2.6-2.9-0.3-0.8-1.5h-3.6l-3.3-2.9v-4.4l2.9-5.1v-4.7l-2.1-1.8h-3l-0.3-4 4.7-3.3 8.7-3.6 2.6-2.5-1.1-2.6-6.9-0.7-5.8 0.7-6.2 4.7-5.1 2.2-3.3 3.7-5.4 3.2-1.8-2.2h-3.7l-2.5-2.1zm-406.8-2.2l3.3-1.5 3.3 3.7v5.8l-3.7 4.3-1.8 0.4-1.5-0.7v-1.5l-2.5 0.4v-4.7l2.2-1.5zm416.9 13.5l4-1.5 1.1 3.3v1.8l-2.5 2.2v2.5l-6.9 0.4-0.4-3.3v-1.4zm-32.4 27.9v-4l3.3-1.8 3.7-4.3h1.8l4.3-3.7h2.9l2.2 1.5-6.2 4.7-0.3 1.8h-1.8l-2.6 2.6v4zm18.6 24.3l0.3-4.3 1.5-1.9h5.8l0.4 3.3-1.1 3.3zm-21.5 8l5.8-1.8h5.1l0.7 10.9h-4.3l-7.3-2.2zm-620.8 4l-2.2-1.1-0.8-4h7.3v4.7zm150.5 5.5l6.2-1.8h10.5l1.8 1.8 1.1 1.8-0.3 3.6h-1.1v2.9l-2.9-2.5-1.8 1.4-3-0.7-0.3 1.8-2.9-1.4-1.8 2.9-0.8-3.3-1.1 1.5-2.9-1.1-1.8 1.4-0.4-1.1zm-25.8 4l4.8-4.3h13.1v7.2l-10.6-0.3-0.7-1.1-5.1-0.4zm329.3-0.3l-0.3-4h5.8v4zm131.9 12h5.9v3.2l-4-0.7zm-730.7 2.9l2.2-1.4h4.4v5.1h-3.7zm741.2 26.1l-0.7-2.9-4-1.4v-2.6l2.9-0.7-0.7-1.8 0.7-1.5 8.7 2.2 2.9 2.9v3.6l-2.9 1.1-1.4 4-4-1.1zm66.5 37.8h3.6l2.2-5.8h10.2l2.9 1.5h4.3l5.1 5.1v3.6l1.5 1.5 2.2 12.3v12.4l-7.3 0.7-1.5 2.2-10.5 0.3-2.9-1.4-1.1-5.5-4.4-2.1v-7.7l-4.3-4zm-645.2-2.9l1.4-1.4 5.5 0.7v-0.7l2.1 1.4v1.8l3.7 5.8 2.2 1.5 1.4 5.1 1.1 1.1h3.3l-0.8 5.1 4.8 6.5-0.4 6.2 3.6 3.6v3.3l-2.5 2.9-7.3-9.8-6.1-13.8-3.3-8.7-4.7-0.8z"/>
		<path id="Path 11" class="s11" d="m489.6 387.3l8.4-9.4 2.5 0.7v4l1.9 0.7-1.1 2.2-4 2.9-3.7 2.2-0.7-2.6zm-128.3 44l4.4-0.3 1.8 1.4 2.2-1.4 3.2 1.1 2.2-1.9 2.2 1.1-0.4 1.1-1.8 1.8 0.4 1.1-3.3 0.8h-6.2l-1.1-1.5h-2.9zm122.5 4.7h1.8l1.5-1.4 0.4 1.4 3.2-2.9 1.1 2.2-1.4 1.1v1.8l2.1 1.5 4.4 0.3 0.4 1.1-0.8 0.7-1.8-1.4-2.2 0.7-2.5-0.7-7.3-1.5-0.3-1.4zm-304.3 19.2l3.3-0.7 0.7 0.7 0.4-1 8.3-2.2 0.8-1.5 1.8 0.4 1.1 0.3-1.1 4 0.7 9.1-8 0.4-1.1-1.8-1.4 0.3-1.1-1-0.4-5.1-4-0.8zm411.9-0.7l2.9-0.7 8.3 1.1v3.6l-2.1 0.4-5.9 0.3v-2.1zm24.4 2.5l1.8-0.7 2.9 1.1-1.1 1.8h-2.9zm-152.7 3.6l7-0.7 1 3.6 1.5 0.7 0.4 8 3.6 3.7h2.2l1.8 4.3 2.9 1.1 3.3 4.4-3.7 2.2-6.1-1.8v-2.6l-4.8-2.9-1.8-2.5h-2.5l-1.8-2.9-6.6-0.4v-12zm202.1 6.9v-2.2l-2.9-3.3 10.6 1.9 0.3 1.1v2.1h-2.2l-1.4 2.2h-2.6zm-423.8 12l1.1-1.8h2.2l2.5 1.8 9.5-0.4 1.8 3.3-2.6 0.7-1.4 1.9-5.5 0.7-5.1-3.3h-2.5zm19.3 2.9l0.3-2.2 2.6-2.1h4 2.5l2.6 2.9v1.4l-0.8 1.1-2.9 0.4-3.3-0.4-0.7 1.1zm-102.9-2.2l2.6-0.7 1.1 1.5v2.1h-2.2l-2.2-2.1zm-56 2.5l0.8-1.8 5.4 0.3v0.8l-0.7 2.9 2.9 0.7 0.7 2.2 2.2-0.7 2.6-0.4-0.8 4.4 2.2 4.3-1.4 1.8 1.4-0.3-0.7 3.6-2.6 1.8-2.1-4.7-1.1 2.2 1.8 6.2-1.8-1.1-4-11.7-3.3 0.4v1.8l-1.8 1.8-0.4-0.7-2.9 0.7 0.4-2.5-1.1-0.4-0.4-6.9 1.8-0.7 4-0.7zm538 6.5l0.7-2.5h6.6l1.4 1.4v1.8l-2.9 1.9-1.8 0.3-1.8-2.9zm20.4 3.3v-2.2l1.4-1.5 6.6 0.8 0.7 3.2zm-504.6 1.1l2.6-3.2 2.9 0.7 0.7 4.4-3.3 4-1.8-1.5zm-95.2 1.8h4.4l0.7 3.3 1.8 1.8-1.5 0.4 0.4 1.4 5.5 4.4 1.4 2.5-2.2 0.8v1.4l-3.2-1.4-1.9-2.2-1.8-0.4-4.7-5.8zm78.2 5.1l1.8-2.6 2.1 0.4 1.5 2.9-3.6 3.3h-0.4l-0.4-4zm648.2-2.2h4.3l5.1 0.4 0.4 4.7 2.5 1.4v1.5l1.8 1.5-1 3.2-4.4-0.3-5.1 0.7-1.1-1.1h-0.7l-0.7-4.7-4-1.1 0.3-2.9 2.6-1.8zm-223.6 2.5l1.8-0.4 1.1 1.5-0.3-2.2 1.8 0.7 2.9-1.1v1.5l5.4-0.7 0.4 0.7 0.7 3.3-1.8 2.5h-2.5l-2.2-1.8-3.3 0.4-0.4-1.1-2.9 0.7v1.5l-1 0.3-1.1-2.9zm-47.7 1.5l1.5-1.1-0.4-1.1 2.9 0.7 3.7-1.1 4 1.8 2.5-1.1 8 0.8 0.4-1.1 2.9 1.1 1.1 3.6-2.2 0.4v1.8h-4.4l-1.1-1.8h-1.4l-2.2 2.9 0.7 4 4 0.3 1.1 1.9-2.2 1-4.7-2.5-1.1 1.5h-2.5l-3.3-1.9 2.2-0.3 0.4-2.6h3.2l-0.7-3.6-1.5-1.5-1 1.1h-3.7l-1.8-1.8-4.4-0.7zm69.5-1.5l1.4-0.3 0.4 1.4 4-0.7 1.1 0.7 1.1 3.3-0.8 3.6h-2.1l-3.7-1.8v-2.2l-1.8-0.7zm75.6 1.1h1.8l1.5-1.5 1.4 0.4v1.1l2.6-0.4v0.8h-1.5l-0.3 3.2-5.5-2.5zm23.3-1.1h5.4l3.3 0.7 8.4-0.7h1.4l0.4 0.4 0.7 0.7-5.4 1.8-1.5-1.1-4 0.7-0.7 1.1-2.9-2.1-2.9 3.2h-1.5l-0.7-1.1h-2.9v-1.8l0.7-0.7zm-628.9 9.4l1.1-2.1-0.3-3.7 3.6 2.6 0.4 1.4 1.1-0.3-0.8 2.9-4.7 0.3z"/>
		<path id="Path 12" class="s12" d="m476.2 372.1l2.5 2.1h1.9l0.3-1.4 2.9-1.8 1.8 2.1-0.3 2.6 1.8 0.4v4l-2.2 2.5v6.2l1.1 1.8-0.7 1.8 1.8 1.1 0.7 2.5-6.9 5.9-1.8 3.6-4.4 3.3-2.5 4-3.3 1.4-1.4-7.2 4-0.4 3.2-4.4v-3.2l-3.2-0.8v-2.2l-1.5-0.7-2.2 0.7-0.3-1.4-1.5-0.4 1.1-4-1.5-1.1v-2.1h-1.4l-0.4-2.2 0.8-1.1 0.3 1.1 0.4-1.1 1.1 0.7-0.4-3.6 1.5 1.8v-2.2l3.2-1.4v-1.9l1.1 0.8 0.8-1.1-0.4-2.2 1.1 1.1zm23.6 22.2l2.9-2.2 2.6 1.8h2.9l2.2 0.7 0.7 2.6-1.5 2.2-1.8 0.3v1.1l-1.8-0.4-2.9 2.6-5.1 1.1-0.4 1.4-4.3 1.5-3.3-2.9 5.1-5.5zm-53.8 16.7l1.4-4 1.1 2.6 0.8-4 1 1.1 0.4-1.8 0.4 1.1-0.4 1.8 1.8 0.7v1.1l-1.8 1.1-1.4-1.5-2.6 2.6zm444.9 6.5l3.3-3.6 5.1-2.2 6.2-4.7 5.8-0.8 6.9 0.8 1.1 2.5-2.5 2.6-8.8 3.6-4.7 3.3-4.7 1.4-2.2 2.6h-3.3l-0.7-4.4zm-374 0l6.1-4h1.1l-0.3 2.9h-2.2l-1.1 2.2 1.4 4.4h-2.5l-0.4-3zm335.9 18.2l1.1-2.5 2.5-2.2 1.5 0.4-0.4-1.1 1.9-1.8 5.8-4 1.1 2.9-9.9 8.7zm-386.7-10.6l2.5-0.3v1.4l1.5 0.8-0.8 1.4-2.5 2.9-0.4 2.6-1.8-2.2-3.2-0.4-0.4-1.8 2.5-1.1zm409.3 2.2h3.7l4.3-2.5 2.6 2.9-4.7 4v1.4l-5.9 0.7zm6.2 9.1l6.9-0.3 1.1 2.9-4 2.9 0.4 3.3 3.3 1-0.4 10.9-8.4 0.8-0.7-1.5v-6.5l-1.5-0.8v-6.1l-1.4-1.8v-1.5l3.3-1.1zm-20.8 20h5.5l1.8-3.3h1.5l1.4 2.6 2.6 1.1-1.1 2.1v4.8l-1.5 6.1 2.9 4-1.4 1.9-0.4 4.3-4.4 0.4-1-2.2-9.1 0.7-1.1 1.1v6.2l-5.8 1.8-2.9-1.4v-7.7l-2.2-1.4 1.4-16.7 6.6-5.1zm-786.7 29.8l5.1-3.3h1.9v1.1l-2.2 2.5-3.3 0.8zm571.4 5.8l2.9-1.8 1.5 1.4 2.5-1.1 1.9 1.1 1.8-0.7 0.3 3.3h-10.9zm36.4 1.1l7.3-0.4 0.7 1.4-0.7 3h-5.9l-3.6-3.3zm-260.3 6.9l1.5-0.7v-1.5l5.1 0.7 1.4 2.9v1.9l-1.4 1.4-6.2 0.7zm401.7 0h4l1.4-1.4 2.9 0.3v7l-7.6-0.4-0.7-1.8-2.6-0.4v-1.8zm-763.3 11.3l0.7-2.9 1.1 0.3v3.3l-1.8 0.4zm764.4 19.9v-2.5l-1.4-1.5v-4.7l5 0.4 4.4 2.2-0.4 1.8 1.9 1.4-0.8 5.1zm-577.9 21.5l8.7-1.1 4.4 1.1 8.7 8.3v4.4l-4.7-0.4-0.8 1.1h-6.2v3.3l-2.9 0.7 0.8 5.5v0.7l-5.5-0.7-0.7-1.5-3.3-0.3-0.7-2.6-3.3-2.5-2.5-4.8 0.3-0.7 2.2-0.4 0.4-4.7v-2.9zm11.2 45.4l-2.5-2.5-3.6-8.7 4.7 0.7 3.3 8.7z"/>
		<path id="Path 13" class="s13" d="m493.6 390.6l3.7-2.2 1.4 1.5v3.2l1.1 1.1-4.7 4.4-4-1.8-0.7-2.2zm-21.5 22.2l2.6-4 4.3-3.3 2.9 0.4 1.9 2.5-1.1 3.3 1.1 2.5 4-1.4 1.4 1.4 0.7 4.4 5.1 1.8 1.5 6.9-2.2 2.9h-2.9l-2.2-4 0.7-2.5-1.4-1.8-5.1 4.7h-1.8l-4.4 4.3-2.2 0.4-1.1-1.5-4-0.3-0.7-1.1 0.7-1.5 1.9-0.3 3.6-4.4v-5.8zm49.8 10.2l-1.5-4.4 1.1-2.2h2.2l2.2 0.4 1.4 2.9 3.3 0.7zm-287.9 64h2.2l1.1-1.5 10.2 2.2 0.3 1.1 3.3 1.1h2.9l2.9-1.8 4-0.7 2.2 1.1 0.7-1.5h5.1l5.5 0.7 0.7 1.5-0.4 6.2-1.4 1.1v1.8l-15.7-1.5-0.7 1.8h-8.3l-0.4-1.8-8.4 1.1-2.5-2.5-0.4-1.9-2.9-1.8zm215.2 0l7.6-1.4 5.9 2.9 1.1 1.4v8.8 0.7l-0.4 1.1-2.9 0.3-3.3-1-4.3-0.4-1.5 1.4v-1l-1.5-0.4-1.4 2.5-0.7 0.4-0.4-2.9-2.5 1.4-11.7-2.9 0.4-5.1h7.6l5.1-1.4 0.7-4.4zm-119.2 0l53.1 0.4 2.5-0.7 0.7 1.1 4 0.3v2.6l3.7 2.5v2.6h-7.7l-6.1 1.8-8-0.4h-13.1l-4.7 4.4-12.4 0.3-0.4 1.5h-1.4l-0.7 0.7-1.5-2.5-0.7 1.8h-1.5l-1.8-1.8-5.4-0.8-2.6 1.1 0.4 1.1-1.1-0.3v-1.5l-4-0.4-3.7-1-3.2 1.4-0.8-1.1-6.5 0.4-3.3-1.1v-5.8l1.9-1.8 22.1 1 1.8-1.8zm191.6 1.5l8-0.7 1.1 1.4h2.5l2.9-1.4 1.9 2.1 3.2-1.1 1.1 1.1 4.4-0.7 3.6 1.5 8.7-0.8 1.9-0.7 7.2 1.1 3.7 0.7 0.3 1.1 8-1.1 2.6 0.8 0.3 2.5-1.4 0.7 0.3 5.5-1.8 1.1h-1.1v-1.1l-2.9 0.7-0.3-0.7-5.5 0.7v-1.5l-2.9 1.1-1.8-0.7 0.4 2.2-1.1-1.5-1.9 0.4-2.9-1.1-3.2 0.7-4.8-0.7-2.1 1.1-1.5-1.1-1.8 0.7-2.9-0.7-2.9 1.5-2.9-1.1-0.4 1.1-8-0.8-2.5 1.1-4-1.8-3.7 1.1-2.9-0.7 0.4 1.1-1.5 1.1-0.7-2.6-2.2-0.4-2.2 1.5-2.5-0.7-2.2 1.4-2.2-0.7-4.3 0.4-1.8-1.5v-10.2l0.7-1.1 1.8-0.3 0.7 1.4h6.9l6.6 0.8 6.5-0.8zm90.2 2.2l3.6-0.7 2.2 2.9h1.8l1.5 1.8v5.5h-0.8l-1.4-0.4-0.4 1.5-2.2-0.4-1.1-1.1h-3.6l-2.9 1.8-2.2-1.1v-8.3l3.6 1.1zm-22.5 0.7l9.8 0.7 1.5-0.7-1.5 2.9v7.3l-2.9-0.4-1.4 1.1-2.6-1.1-0.3 1.1-1.1-0.7 0.3-5.9-2.2-1.4zm-467.8 21.1l-1.8-2.2v-4.7l1.5-0.4 3.6 2.2-1.1 5.4z"/>
		<path id="Path 14" class="s14" d="m153.8 510.2h1.1l1-3.3 1.9 0.7 0.7 3.3-1.5 1.5h-3.2zm557.2 3.2l2.6-1.8 1.8 1.5 2.5-3.7 0.7 3.3 2.2-2.2 1.5 0.7 0.7 2.6 2.2-0.7 1.8 0.7 2.2-2.6 0.7 1.5 3.3 0.4 0.4 1.4 3.6-2.2 0.7 0.8 1.8-1.1 0.4 1.4h1.1l1.8-1.1v1.9l1.5 0.3v-1.8l1-0.4 1.9 1.9-0.4-3 2.9 1.5 1.8-2.9 1.5 0.4v2.1l2.2-0.3 5.1 2.5 3.6-2.9h0.7l2.2 4.7v4.8l-3.6 5.1h-12.4l-12.4 5.8h-1.4v-3.7l1.4-1.1v-5.8l-2.9-2.5-17.1 0.7-4.3-2.2h-4.7v-2.9zm-542.4 4h2.9l1.5-4.3h8.7l4.4 1.4v2.9l-2.9 0.7-6.2 5.5-2.6 9.1-1.4 1.1v2.5h-8.8l-2.9-1.4 0.8-5.5 6.5-5.8zm366.1 0.7l3.2-1.1 5.8 0.8v4.7l-2.9 0.7h-10.1v-3.6zm-422.8 18.2v-3h2.9l1.5 1.1v1.9 1.4h-3.7zm36.4 2.9l2.9-2.9h4.4v8.7h-7.3zm36 11.3l2.9-3.3 12-0.7 1.1 1.1v4.7l1.4 1.5h1.8v2.9h-3.6l-15.3 1.4zm39.7 6.9v-6.5l4.7 0.4 0.3 1v5.1l-2.1 0.8zm81.4 24v-7l5.8-2.5 10.9 0.7 2.2 1.5v6.9h-10.2l-2.9 0.4zm128-4.4v-2.6l1-1 3-0.8 2.5 1.1-0.7 4.4-4.8 0.3zm-65.7 1.9l5.8-3.3 6.9 0.7v5.5l-12.4 0.3zm52.7 1.1l-2.9-0.7v-3.6h5.8l0.4 1.4-1.8 2.9z"/>
		<path id="Path 15" class="s15" d="m493.3 407l4.3-1.5 0.4-1.5 5.1-1v4l1.8 2.1-1.8 1.8-6.2 4.4-0.7 1.8 2.9-1.1v1.5h2.2l2.9-2.6 4-0.7 1.4 6.2-5.1 3.6-5 3.3h-3l-1.4-6.9-5.1-1.8-0.7-4.4-1.5-1.4zm12.4 21l3.3-0.7v4.4l-1.1 1.8-3.7 0.4-1.1-1.5v-3.3zm406.1 26.2v-1.8l5.1-6.2h2.1l1.5 0.7v4.4l-3.6 6.2v2.9l-1.5 0.4-1.4 2.9h-3.7zm-436.2 43.9v-8.3h6.9l9.1 1.4 1.5-1.4h4.3v10.2l-3.6 0.3-1.5-0.7-0.7 1.1-0.4-1.5h-2.1l0.3 2.2-2.5-0.7-3.3-0.4-2.2-0.3-0.3-1.1-1.5 0.3zm405.7-4h2.9l1.4-2.5 3-1.8h4.3l-0.7 5.8-2.6 3.3-5.4 1-2.9 3h-1.5-2.5l-0.4-5.1zm-299.1 6.1l-0.4-5.4 1.4-0.7h5.9l2.1 1.4-0.3 5.8-4 0.8-0.4-1.5-1.4 0.4zm-457.3 6.9l-1.5-5.1 4 0.7h0.4l4 1.5 2.2 1.8v4l2.5 2.9v1.8l-1.8 1.1-3.6-0.7-6.6-1.5-0.7-1.1zm-29.8-1.1l1.8-0.7 1.4 1.5h2.2l1.5 1.8h4l1.1-1.8h2.2l0.7 2.5 3.3 2.9 0.3 0.7-5.8 3-8.7-1.5-2.2 4v3.3h-3.3l-1.8-2.2v-5.1-4.4zm793.5 17.1v-2.9h2.9l2.6 2.2v1.8l1.8 1.1-0.7 3.6h-2.9l-0.8-1.4-1-3.7zm27.6 52.4v-5.1l-1.1-1.1-0.4-4.7-2.2-3.3v-2.5l-4-2.9-1.4-5.1-6.9-6.6v-3.6h2.9 1.4l1.9 2.2 0.3 2.5 2.2 1.5 0.7 2.9 3.7 4h2.9l1.1 6.5 3.2 1.1v1.8l0.4 8 4 5.5 1.5 9.1h-3.7l-1.4-1.5v-3.6zm-369.4 1.4h3l0.7-1.4h4.3l0.8-4.4h8.7v2.2l-2.2 2.9-2.9 1.5-2.9 4.3-2.5 0.7-1.1 13.5-2.6 3.6-10.5-16.3 6.2-6.6zm-284.3 9.1l1.1-1.1h3.3l2.1 1.1-0.7 6.2h-3.3l-1-1.1zm136.3 8l4.3-5.4h9.8l1.5 0.7v11.6l2.9 3.6v13.1l4.4 5.8v4.4l-1.5 0.4-3.6-5.1-2.2-1.1 0.4-1.5-2.6-2.5-1.4-4-2.9-3.3-0.8 0.4 0.4-1.8-1.5-1.1 0.8-1.1-1.9-0.4v-1.8l-2.1-1.8v-2.2l-3.7-2.9-1.1-2.9z"/>
		<path id="Path 16" class="s16" d="m377.3 431.3l12.4-0.7v0.7l-2.9 2.2v4l-1.5 0.3-2.5-1-2.2 1.4-3.6-5.8zm194.8 48.3h-4.7l-1.9-2.1-1.4-8.8v-4.3l2.9-2.2 0.7-10.2 6.6 0.7v3.7l-2.9 1.1 1.4 14.9 1.5 1.8v2.2l-2.2 1.8zm11.6-26.2l2.6-0.4 1.8 1.5 1.1-1.5 2.2 1.5 3.2 2.5v2.2 1.5h-5.8l-2.5-4-2.6-0.4zm-42.9 10.2l2.9-1.5h2.9l3.7 3 2.2 3.2v4.7l-2.9 5.1h-8.4zm-353.3 1.1l8-0.3 2.5 2.1 1.1 6.6-12.4 1.4h-3.6l-0.7-1.8 0.3-4.3h2.2zm449.3 0.3l0.4 5.8 2.5 2.9v5.9l-0.7 2.1-4 3-1.8-0.8-2.9-5.1-0.8-13.8zm28.4 2.6l1.8 1.8h2.6l1.4-2.2h2.2l1.1 2.2h9.1l3.2 2.9 1.1 2.5v10.6h-4l-1.8 1.4h-10.9l-2.9 2.9-6.5-0.7-1.5-4.3-11.3-4.4-0.3-5.8 1.1-2.2 3.6-2.9h2.5 5.1zm74.9 22.2h-6.2l-3.6-2.2-0.4-2.6-2.1-1.8-0.8-13.4 4.4 1.1 0.7 7.2 2.9 3.7h2.2l1.5 1.4zm-640.5-12.3l4-2.2h3.2l-1.8 4.3 3.3 0.8-0.4 1.1-5.4-0.4-0.7 1.8-2.2-0.4zm607 16v-6.5h5.8l1.5 1.8v5.5l-1.5 0.7-4 0.4zm75.6 4.3l1.5-0.3 0.7 1h2.2v1.5l-2.5 1.8-1.9-2.2z"/>
		<path id="Path 17" class="s17" d="m309.7 430.6l11.3 0.3 7.6-1.1 7.6 0.8-0.3 6.9-1.5 4.3-2.2-0.3-0.7 1.8-3.6-0.4-2.6-2.5-6.9-0.4-3.6-4.3-4.4 0.3zm293 28v-3.6l6.2 1.1 0.4 1.1 5.8-0.4 0.7 0.4 0.7 2.1v5.9l1.5 2.5v10.2l-2.2 1.8v3.6l-1.5 1.5-4.3 0.7-1.5-16.7-1.1-0.7-0.3-4zm53.4 4.3l5.5-0.7h0.7l2.9 3.3v2.2l-4.4 1.8h-5zm47.6 24v-9.9l8-0.3 0.7 1.4v5.9 2.9h-5.8z"/>
		<path id="Path 18" class="s18" d="m511.5 377.5l4.7-1.8 1.4 1.4-0.3 13.5-2.9 0.4-1.1 1.4h-4l-1.1 1.5h-2.9l-2.6-1.9-2.9 2.2-1.1-1.1v-3.2l-1.4-1.5 4-2.9 1.1-2.2h1.8l2.5-2.5 2.9-1.1zm5.8 26.2l6.2-2.9 0.8-2.6h8l-0.4 6.2-10.6 4 0.4-1.5-4.7-0.3zm-50.9 30.1l0.4-2.5 2.5-2.9 0.7 1.1 4 0.3 1.1 1.5v1.1l-2.5 0.3-1.5 1.9-0.7-1.1-1.5 1.1zm452.6 10.9l0.7-7.7 2.6-0.7 2.2-3.3h4.7v5.1l-4 2.2-0.4 2.9-1.8 1.5zm-455.1 53.8v-8.8h6.9 4.7v8.4l-1.8 1.8-4 0.7-1.4 0.4-1.9-2.9zm136.7-7.3l0.4-0.3 5.4 1.1v8.3l-4.3 1.1v1.1l-0.8-1.1h-2.1v-7.3zm273.3 21.8h-3.6l-1.8-1.4-0.4-7.3h5.8zm-773.5-6.2v-1h5.4l1.1 1-1.1 1.9h-4zm-8.7 3.2v4.4h-4.4v-4.4zm799.8 17.5h-3.3l-1.1-4.4h1.4l1.9 0.7zm-636.9 48l-0.7-5.4 2.9-0.8v-3.2h6.2l1.1 4.3-0.4 7.7 3.3 4.3v2.6h-3.3l-1.1 1.1-2.2-1.5-3.6-5.8v-1.8zm291.9-6.6l2.2-1.4 5.8-0.4 1.1 4-0.8 4.4h-4.3l-0.7 1.4h-3zm-154.1 16l3.7-3.6 1.8-0.4h11.6l2.2 1.1 1.4 3.6v3h-9.8l-4.3 5.4-2.2-1.4-0.4-2.6-1.4-0.4v-2.5l-1.1 0.7zm532.5 25.5v-12.4l-2.2-12.3h3.7 2.9v5.8l2.9 14.5v8.7h-7.3z"/>
		<path id="Path 19" class="s19" d="m533.3 338.3h1.4l-0.3 2.9 2.5 1.8 0.7 2.5 1.8-0.3-0.3 2.5 2.2 1.8-0.8 1.1 2.2 1.5 1.1 3.2-4.4 0.8h-1.4l-0.7-2.2-0.8-5.1-3.6-4.4zm-17.1 37.5l1.5-2.2 4.3-1.1h0.8v3.3l-1.5 1.4h-3.6zm419.1 30.2l0.7-1.8 4.7-1.5h4l2.2 0.7 1.1 3-1.4 0.3-1.1 6.6-1.9 0.7 1.9 0.7v1.1l-1.9 2.9h-5.8v-10.2l-1.8-0.7zm-420.6 24.4l7.7-1.1-0.4 10.5 1.5 0.7 0.3 6.2-5.8-0.3-2.5-1.9-1.9-3.2-5.4 0.7-2.9 0.4 0.4-3.7 2.1-1.1h3.3l0.7-3.6 2.2-1.1-0.4-1.1zm359.2 74.2l3.3-1.5h2.5l1.5 9.8-5.9 0.4h-1.4zm-273.7 9.1l0.3-0.8 1.1 1.9 2.2-1.5v2.6 0.3l-2.9 0.7-1.8-1.4zm172.6 1.4l1.9 1.1 0.3 1.9h1.1l1.1-3.3 3.3 2.2 1.1-1.5 3.6 1.1-0.4 1.8h1.1l1.1-0.7v-2.9h2.6l1.1 5.1h-3.3l0.7 2.2v2.5l3.6 3.3 3 0.3 1.8 1.8-1.5 4 3.3-0.7-0.4 2.2 1.5 1.8 9.1 4.4 2.9 2.2 1.4 4.3v2.2l-2.5-1.4-0.7 0.7v-1.8l-1.5 1.1-3.3-0.4-6.9-3.3-1.4 1.1-0.4-1.1-5.4-0.7-0.4-1.5-0.7 1.1-2.2-0.3-1.5-1.5-3.6 1.1-1.5-1.8-7.6-0.7-3.6 0.7-4-1.5-2.2 1.1-1.8-1.4-0.7 0.7v-1.1h-1.1v1.1h-2.6l-1.4-1.8-0.4 1.1-7.3-1.1h-5.4l-2.6 1.1-1.4-1.1v-6.6l12.3-5.8h12.4l3.6-5.1v-4.7zm-324.2 12l10.9 0.7 4.4-1.4 2.9-2.9h7.2l-0.3 4.3-7.3 5.5-2.5 0.7v4l-6.6 2.2v-1.8l-3.6-2.2-10.9-1.1-10.6 0.7-0.3 3.7h-17.8l-2.6-1.5-12.7-0.7-9.5 2.2-0.3 1.4h-3.7-8v-0.7l0.8-3.7 3.2-1.4h8.8l2.1-2.6 9.9-0.3 3.2-2.2 3.3 0.7 4-2.9 4.4 0.7 4-1.4 3.6 1.1 3.6-1.1 5.8 0.7 1.1-1.4h3.7l0.7 1.4zm-121.4 6.9l1.1 1.8 2.2-2.1 2.5 1.4 5.5 0.4 3.2 4h3.7l2.1-2.9 10.2-1.5 1.5 1.5h5.8l1.4 5.8-2.1 2.9h-7.3l-3.3 1.5h-7.6l-1.8-1.5h-12.8v-3.3l-3.6-2.5h-5.4l-1.9 1.1v1.8l-10.1-1.5v-3.6l0.3-2.2 4-0.3 3.3 1.4zm506 29.1l0.4-1.1h1.8l1.1 2.2h4l2.5 5.4 2.2 0.8 2.2 2.9 4 0.7 2.2 2.2v2.5l-1.5 0.7-1.5-0.7 0.4-1.8-4.4-1.1v-1.1l-7.6-5.1-1.8-3.2h-1.8zm-278.8 4.3l1.8-1.8 6.9 0.4 1.1 5.4h-8.7zm-277.4 2.6v-2.9h5.1v2.9 1.4l-4-0.3zm103.2 6.5l3.7-0.7 1.4-1.5 10.2 1.5 2.2 1.8v3.6l-1.8 0.4-3.7 3.6-3.2-2.9-8.8-0.4zm29.1 4.8v-1.8l2.2-1.5 0.7-2.2h5.1v3.7l2.9 0.7v5.8h-7.3l-1.4-3.6zm-133.8 32.7l5.8-0.4 1.5 1.5v1.8l7.3 7.3 0.7 13-3.6 1.9-1.1-1.5-2.9-3.3-1.1-3.2-1.5 0.3-0.7-2.5-1.5-0.7v-2.2l-1.4 0.3-1.5-3.6-2.5-2.5 2.5-3zm630 0l10.5-0.3 0.7 2.2 8-0.8h7.3l1.5 1.1v3.3l4.3 2.9v1.8l-2.2 1.8-5-0.3-1.5-2.2-1.1 1.5-1.4-1.5-1.1 1.5-0.4-1.5-0.7 1.5-1.8 0.3 0.7-1.4-1.5 0.3-1.8-1.4-1.1 2.2v-1.9l-1.1 0.4-0.7-1.5-4.4-0.7-0.7-1.4h-2.2l-4.7-2.6z"/>
		<path id="Path 20" class="s20" d="m945.1 389.9l1.1-0.8 0.7 1.1-1.1 0.4 0.4 1.4 1.8 0.4-1.1 3.3 1.5 1.8v4l-1.5 1.8-2.2-0.7 0.4-7.3 0.7-1.1zm-264.6 123.6l5.1 0.4 0.7-1.5 2.2 2.6 1.8-0.8-1.1 3.3h-4l-0.7 1.1-2.5-0.4-2.9-2.5zm-561.3 8.4v-4.8l1.8-0.7v-1.5h0.4l4 1.1 1.8 1.9-0.7 5.4h-5.8zm443.8-4.4l5.1-1v1l2.5-0.7v1.5l-0.3 2.2-1.9 1.4v4.4h-7.9v-2.2l-2.2-1.5v-1.8zm-51.3 1.5l13.8-0.4 0.8 1.1h4.3v3.6 1.5h-8.7l-6.5 0.7-2.2 2.2h-10.2l-0.4-2.9 2.2-4.4zm-37.8 4.4h10.9l8.4-1.5 1.8 1.5v1.4l-2.2 4-9.1 0.4-6.5 2.2-3.3 2.9v3.6h-10.2v-4l2.6-0.7 7.2-5.5zm69.8-0.7l7.3-0.7 2.9 0.7v5.1h-10.9l-2.2-1.4v-3zm-432.9 6.6l2.5-1.5h1.5v5.8h-2.9l-1.1-0.7zm608.9 4.4l5.4-1.5h12 1.5v6.6l-8.4 2.2h-10.5zm-564.2 2.9l0.4-1.5h5.4l2.9 1.5-0.3 5.8-2.6 2.9h-5.8zm276.3 2.9l0.3-3.6 10.6-0.8 10.9 1.1 3.6 2.2v1.8l-6.5 2.2h-17.5zm-145-1.1l5.1-0.4 5.4 1.5 5.5-4 3.6 1.8h4v3.7l-2.2 2.9-15.6 1.4-0.4 4.4h-8.7v-5.8-4.8zm-23.6 5.5v-1.8l6.9-5.5 7.6 0.7-0.7 5.9-7.6 1.4-1.5 4-2.5 2.2-2.2-2.5zm57.4-1.5v-1.8l1.8-1.1h5.5l3.6 2.5v3.3h-10.2zm-121.4 2.9l20-1.4 3.3 2.9v2.9h-4.7l-2.2 2.5-4.7 1.8h-7.3-1.8l-1.5-1.4v-4.7l-1.1-1.1zm378.1 17.4l2.2-3.6 6.5-0.7 1.5 1.4-0.4 4-3.3 2.5-3.6 0.4-2.9-1.1zm-295.2 8.7v-1.4h5.8l0.4 4.4 2.2 1.4 5.8 0.4 0.7 2.2 1.8 1 0.8 3.7-0.8 5.4-1.4 0.8v2.5l-1.5 1.5-9.4-1.5-0.8-14.2-3.6-2.5zm157.8 2.5l1.1-1.1 10.5 0.4 0.7 6.9-2.1 2.2-4.4 0.7-1.1 1.5h-4.7l-0.8 4.3-5.4 0.8-1.8 5h-4.7l-4.4-4.3-2.2-0.7-0.4-3.7v-5.8h1.5l1.8-2.9h9.8l1.1 1.4 4.7-0.3zm492.2 41.1v-8.8l-2.9-14.5 5.1 0.7 2.2 12.4 3.6 5.1 2.2-0.4h1.5l-0.4 8.4-2.2 5.1-1.8 1.4-1.5-0.4v-1.8l-4.3-2.9v-3.3zm-629.6 27.7v-2.6l1.4-1.4 4.4 0.3 0.4 5.1-3.3 2.2z"/>
		<path id="Path 21" class="s21" d="m523.4 335l7.3-0.7 2.6 4-0.4 6.1 3.6 4.4 0.8 5.1-8-0.7v-3.7l-2.6-1.4-1.1-3.7h-2.2v-4.3l1.5-0.8zm416.6 61.8l1.8-1.4h3.3l-0.4 7.3h-4zm-37.1 66.8l-6.2-2.2-0.3-5 2.2-1.5 13-0.7-1.4 9.4zm-101.8 1.1l0.4-1.8 1.1-0.4 0.3 1.1 0.8-1.8 4.7 1.1 0.3-1.1-1.4 0.4v-1.1h1.1l0.3-1.5 1.1 0.8 4-2.2 0.8 1.4 1.1-1.8h1l-0.7 1.5h1.1l0.4 3.6-3.3 0.7-0.4-1.1h-1.4l-1.8 2.6-5.9 2.9-1-0.4-0.8-2.5zm82.9 20.7l0.4-7.3h2.5l1.1 1.5h6.2l2.2 2.2v3.2l-3.7 4.8h-4.3v-2.2zm-796.8 22.2l1.8-1.9 2.5 1.5 1.1-2.6h1.8l0.4 1.1v0.4l-3.3 4h-4.3zm728.4-0.7l8.4-1.5 7.6 0.4h4l1.1 1.4v6.6l-2.2 4-0.3 7.2h-1.8l-4.4-2.1-5.1-0.4-2.9-1.1-0.7-1.8 1.1-1.1 3.6 0.4 1.1-1.5-3.6-1.1v-3.2l7.2 0.3 2.2-1.1-0.4-1.8-10.1 0.4-4.8-1.5zm59.6 6.2l5.9-0.4 1.8 1.5v1.8l3.6 1.5 1.8 2.9v2.9h-1.4l-8.4-1.8-3.3-4zm-83.9 6.9l0.7-4 2.6-1.1 2.1 3.6 0.8 6.2-0.8 1.8h-1.4v-4l-1.5 0.7h-2.2l-0.3-1.4zm-568.9 14.2l0.7-0.8h8l1.8 2.9-1.1 2.6 0.4 3.3 0.4 10.1h-3.7l-0.3-1.1-4.8-0.3-1.4-1.5v-2.9l-3.3-2.9 1.1-4 2.2-1.8zm142.5 2.2v-1.5l10.2 2.2v2.2l-1.5 2.9h-7.3zm-118.5 16.3l-0.7-13 1.8-1.9 2.6-0.3 2.2 2.2 0.3 2.5 2.2 1.5 0.4 8zm566.3-2.6v-2.2h2.9l1.5 2.6 1.4 0.3v2.9l-4-3.6-0.3 1.1zm39.2 29.1l1.5-0.7v-2.6l-2.2-2.2-4-0.7-2.2-2.9-2.2-0.7-2.5-5.5h9.8l4.7 2.9 2.9 3.3v2.5l3.3 1.9 0.4 8.7-1.8 0.7-2.6-0.4-0.7-1.8-1.8 0.4zm-589.3-13.1l0.7-1.1 4.8 0.4h2.2v4.3l-6.6 0.8zm626.7 42.5l5.1-4h2.5l4.4 2.2 1.1 5.4 2.9 1.5-0.4 3.2-5.1-1.8-5.4-4.7-1.5 0.7-2.2-2.5zm26.6 4.7l1.4-2.2 7.3-0.7v4.4l-8 0.7z"/>
		<path id="Path 22" class="s22" d="m483.8 428.4l5.5-2.2 2.2 4-0.8 2.9-3.2 2.9-0.4-1.4-1.5 1.4h-1.8l-1.4-0.7-0.4-3.3zm391.5 5.5l5.8-0.7 0.4 3.2-1.5 2.2-3.2 1.1-1.5-1.5zm-641.2 49.1l0.7-0.4 2.6 0.8v2.2l-1.1 1.4h-2.2zm159.2 2.9l2.2-0.3 1.8 1.4 0.7 1.8 6.2-0.3 8.4 0.3 0.7-1.8 0.7-1.1 1.8 0.7 1.1 1.9h5.5l1.1-1.5 4.7 0.7 1.4 2.2h6.2l1.1-1.4h4.7l3.3-1.9 2.2 0.4-0.7 4.4-5.1 1.4h-7.7l-0.3 5.1-5.1 0.7-5.1-0.7 0.4-0.7h-7.7-3.2l-1.5 1.4h-1.8l-0.4-1.4-4-0.4-1.4 1.8 2.2 1.1v3.7l-1.1 1.1h-2.9l-2.2-1.5 0.3-3.6-1.1-1.8-1.8-1.9h-2.9v-2.5l-3.6-2.6v-2.5zm106.5 2.5v-2.5l1.4-0.4 0.8 1.9 3.2-1.1 2.6 2.1-0.4 1.5h-6.9zm-214.1-1.1l4.4 1.1 2.9-1.5h4l2.2 1.5h4.7l3.3-2.2h4.7l1.1 1.5 6.5 0.7 2.6-0.7 1.4-1.8 6.6 1-0.4 4-1.8 1.9-22.2-1.1-1.8 1.8v5.8l-14.2 0.4-3.3 2.5-1-0.7-5.1-2.6-4.8 1.1-2.1-1.8v-1.8l1.4-1.1 0.4-6.2 1.4-1.4zm177.1 1.1l0.3-1.1 3.7 0.7 4-1.5v3.3h-7zm120 3.3l0.4-1.1 3.2 0.4 2.9 0.3-0.3 2.9h-5.8zm36.7 1.1l2.5-2.2h1.1l0.7 1.9 6.6-1.5 1.8 2.2 2.5-2.2 2.2 1.5 0.8 1h5.8l0.3-1 1.9-0.4v2.2l-1.5 1.4v5.1l-1.1 0.7-2.9-1-1.8 1.8-1.1-1.5-2.9 1.1-0.4-1.4-1.8 0.7-2.5-1.1h-8.8v-5.5zm37.5 1.5l1.8-1.8 1.4 0.3 8.8 0.4 1.1 0.7 1.1-1.1 2.1 0.4-0.3 2.9-1.1 0.7v4.8l-4 0.3-2.6 0.4v-1.1l-1.4-0.4-1.5 1.5h-1.8l-2.5-0.7zm20.7 0.7l2.2-1.1 3.6 3.3 0.4 4-2.2 1.1v-1.5h-4zm-538.4 21.4l3.3-0.7 0.7 2.6-0.7 0.3-10.9 0.8-0.4-1.5 3.3-0.7z"/>
		<path id="Path 23" class="s23" d="m297.7 431.3l12-0.7 0.7 5.4-2.1 0.8-1.5 5h-1.8l-1.5-1.4-1.1-4.4zm-90.8 15.7l0.3-1.9 4 0.4 1.8-2.2 8.8-1.8v0.7l-4.4 3.3-9.5 1.5zm-47.2 11.2l20-2.9v1.1l-0.7 6.6 2.1 1.4 1.9 4-0.4 4.4-9.1-0.4h-3.6l-6.9 5.5-0.8-2.6-1.8-0.4-0.7-2.9h-5.5l-0.3 1.5h-2.9l-0.8 2.2 1.1 0.3 0.4 2.6 2.9-0.4 1.1 1.5v0.3l-1.8 1.9 0.3 2.5-1 0.7 1 6.9h-0.7l-0.7-3.2-2.2 0.3-1.8-1.8 0.4-2.2-2.2-1.4v-5.5l-5.5-1.1-2.5-1.8v-2.9l1.8-1.8v-2.2l1.1-5.4h3.6l4-3 6.2-0.7-0.7 3.7 1.1 1.8 4 0.3 1-1.1 0.4-4z"/>
		<path id="Path 24" class="s24" d="m505.6 344.8l4.4-4h1.5v-1.1h1.8v-1.1l1.4 0.7 0.7-1.4 1.1 0.7v-1.1h2.2l4.7-2.5 1.5 4.3-1.5 0.8v4.3h-4l-6.9 5.8h-3.6l-0.7-2.1 0.3-2.6zm-28.7 25.8l-1.1-0.7 1.5-2.2 2.2-1.4 0.3 1.4 0.8-2.9 1.1 0.4 0.3-1.8 2.9-2.9 1.1 1 0.4-2.5h1.4l2.2-3.6 4.7-2.2 0.8 2.9-1.1 4.7 1.1 4-1.5 0.7-1.8-0.3-3.6 5.1-3 2.9-1.8-2.2 0.8-2.6h-1.9l-1.8 2.2-1.8-0.7zm27.6-0.4l6.9-5.4h6.9l3.7 7.6-4.4 1.1-1.4 2.2-4.8 1.8-3.2-1.4-0.8-3-2.9-1.4zm3.7 37.1l2.5-1.5 0.7-1.8 4-1.5 1.9 1.1-0.4 2.9 4.7 0.4-0.3 1.5-10.2 3.6v-1.1l-2.6-0.4zm-24.3 1.1l6.2-4.3 3.2 2.9-5.4 5.8-4 1.4-1.1-2.5zm-43.6 10.5l2.5-5 3.3-3 0.7 0.8-6.2 7.6zm56.4 8.4h2.9l5.1-3.3 1.4 1.1-0.3 2.9-2.6 1.1v3.3l1.1 1.4 3.6-0.4v4l-2.1 1.1-0.4 3.7h-4.4l-0.7-1.1h-2.9l-0.4-1.1-4.3-0.4-2.2-1.4v-1.8l1.4-1.1-1-2.2 0.7-2.9h2.9zm334.8 24.3v-1.8l2.9-0.4-1.1 2.6zm-1.1 0l-0.4-0.7h1.1v0.7zm-626.6 23.6l0.7-2.9h2.9l1.4 1.5-0.7 1.4zm-4.7 11.3l1.4-1.1 4.8 0.7 2.9 3.7 2.9 0.7 0.3 2.2h-1.4l-0.7 2.1-4-0.7-0.8-1.1-0.7 1.1-4-0.7zm638 4.7l0.7-1.4 10.2-3.3 2.9 1.4v6.9l-5.8 1.5-0.8 2.2-3.6 1.4v7.3h-3.6l-1.1-1.4zm-775 17.4l2.2-1.1 1.8 0.4 1.8 2.2-0.7 1.4-4.4 1.5-0.7-1.1zm726.3 13.1l-0.8-2.2h3.3l0.7 0.3v1.9zm-723 1.8l2.2-1.8 4 0.7-0.4 2.5-1.8 1.8zm743.4 17.9v-3l6.2 1.9 1.4 1.8-0.3 5.8h-2.9l-1.5-4.4zm-540.2 24v-4.3h2.2l2.6 2.9-2.6 1.4zm616.5 40l0.7-7.6 1.5-3.3 1.5-1.5h4.3l4.4 4v7.7h-2.6l-5.1 4z"/>
		<path id="Path 25" class="s25" d="m494 365.5l1.5-0.7h4l5 5.4v1.5l-1.4 0.7v3.3l-2.6 2.9-2.5-0.7v-2.6l-3.3-1.8-1.1-1.8zm-38.9 32l1.1-3.3 0.8 0.7v-1.8h1.1l-0.4-1.4h1.8l0.7-1.5 0.4 1.8-4.4 6.2zm478.4 9.5l-5.4 0.7-6.2-0.7v-5.1l1.8-2.2 2.9-0.4 1.1-2.5h12.3l0.8 5.8-4.7 1.4-0.8 1.9zm-413.3-8.8h4l-0.7 2.6-6.2 2.9-1.8-1.1zm-59.3 31.3l-1.8-2.6v-2.2l1.8-2.5 5.1 0.7v2.2l-2.5 3.3zm430 0h2.6l1-1.5 3.3-0.7 5.8-4.4h2.9l2.2 1.8v4.8l-2.9 5.1h-4.7l-6.9 4-4.7 0.3-1.1-2.9v-2.5l2.5-2.2zm-73.8 29.8l0.7-1.8 1.9 0.3 1.1-1.8 2.1 0.4 1.5-2.6 1.8 1.1v-1.8l1.8 0.4v2.2l-4.7 4.7-5.8 2.5zm56.3-2.5l6.2-0.4 0.7 1.5v2.9l-2.1 1.4v1.5h-5.9v-4.7zm-89.7 10.5l8.7-1.4v4.7l-4.4 1.1-4.3-2.6zm72.7 18.9v-6.2l1-1 9.1-0.8 1.1 2.2-2.2 3.3-3.2 0.7-0.8 1.8zm-30.9 6.2l3.3 0.4 2.9-1.5h5.1l-1.1 14.6h-4v-7l2.9-1.8-0.3-1.1-11.3 1.1-1.5-3.6zm-13.4 12l-3.3-0.4 0.4-2.2 1.4-0.3 2.9 0.7v1.5zm-5.8 2.9l5.8-1.1 3.7 0.7v2.6l-8 0.3zm-339.9 13.5l5.1-2.9 2.5 0.3v5.1h-7.2zm370.4 6.2l21.4 2.2 6.6 2.5 0.3 10.2-2.9 3.3h-1.4l-9.5-4.4-8-2.2-1.4-1.4-5.8-0.8-2.9-2.9 0.7-5.1h2.2zm-16 24l0.7-2.2h1.8l2.6 3 2.9 0.7 2.1 2.9h1.9l2.5 3.3v3.2h-1.8l-0.4 1.1h-2.5l-1.5-3.2-2.2 0.3-4.7-4h-1.4l-0.4-1.4zm58.5 23.2l-2.5-4.3 0.3-2.9h12.8l4.3 2.5 2.2 3.6 2.2 1.1-2.2 5.8h-3.6l-1.5-1.8-4.7-1.4-3.3-2.6z"/>
		<path id="Path 26" class="s26" d="m197.7 478.6l5.9-3.3h4.3v4.3l1.5 1.5 3.6 2.9 4-0.7 2.6 1.1 1.4 2.5v5.5l4.4 4.7v1.4l-4-0.7-1.1-2.2-4-5.8-2.2 0.4 1.1 4.7-2.2-0.7-1.8-1.5-0.4-2.2-2.9-0.7-2.9-3.6-4.7-0.7-2.6-2.9zm-53 35.6l2.9-1.5 1.1 2.6-2.9 1.4zm355.8 1.8l5.1-0.7 0.4-1.4 3.3 0.3 2.5 0.4v4.3l-6.9 1.5-2.2 4.4h-7.6v-1.5l-1.8-1.4 2.1-3.7 3.7-0.3zm50.5 1l2.9-2.1 3.3 1.1 1.4-1.1 0.8 1.4 2.9-1.1 0.7 2.2-4.7 3.3v1.8h-4.4l-2.9-0.7zm240.6 10.5l-3.6-3.3v-2.5h3.3l0.3 1.4h2.2v3zm-692.8 1.4l0.7-3.3 4.7 3.3h6.6v3.6l1.1 0.8v2.9h-5.8l-1.9-2.2h-1.8zm80.7 22.2l4.7-0.8 0.4 7.7h-2.9l-1.4-0.4z"/>
		<path id="Path 27" class="s27" d="m508.2 348.1l0.7 2.1h3.6l6.9-5.8h4 2.2l1.1 3.7 2.6 1.4v3.7l-2.9 1.4v6.6l2.1 1.4v5.1l-5.8 4.7h-0.7l-3.6-7.6h-6.9l-7 5.4-5-5.4h-4l-1.1-4 1.1-4.7 2.5-0.8 5.1-5.8zm419.1 39.3l0.7-1.1 3.7-0.4 1.8 0.4 0.4 1.4v-1.4l1.8-1.1 5.1-0.7 4.3 5.4 0.7 4.4-0.7 1.1h-3.2l-1.9 1.4h-12.3zm-419.1 6.6l1-1.5h4l1.1-1.4 2.9-0.4 0.4 4.7-6.5 1.8-0.8-2.5zm-0.3 39.6l1.1-1.8h4.7l0.4 1.1-2.2 1.1-0.8 3.6h-3.2zm384.9 12.7l2.9-4h1.8l5.1-3.2h3.3l3.3 2.9h3.6l0.7 1.4 2.9 0.4 0.4 2.5-5.1 6.2v1.8l-13.1 0.8-2.1 1.4 0.3 5.1 6.2 2.2v4.3l2.2 2.2-3.3 8.4-3.6 0.3-0.8 2.6-1 0.4-2.2-2.2h-6.2l-1.1-1.5h-2.5l-0.4 7.3-2.9 0.7v8l-4.4 3.6 0.4 5.1-3.3 1.5h-5.8l-0.7-4-2.2-1.8h-2.2l-0.7-1.5-0.7-10.9 0.7-1.8 3.3-0.7 2.1-3.3 4.4-0.4 6.9 0.4 1.1-3.3 2.9-0.7v-2.2l-1.8-0.3-2.9-10.2v-1.5l2.2-1.4v-2.9l8.3-0.8h1.8l2.2-2.1zm-684.8 29l0.7-1.4 2.6 1.4 1 2.6 4.4 3.3 0.4 2.1-4 0.8-3.7-2.9-1.4-1.5zm436.2 25.4v-5l1.4-1.5h10.9 0.4l1.1 7.3v1.1l-4-1.1-0.4 1.4h-1.1l-1-1.8-4-0.4-1.1 1.5v-1.5zm196.3 6.6v-7.3l3.6-1.4 0.7-2.2 5.8-1.5 7.3 2.2v5.1l-1.1 1.1-4.3 1.1-3 2.9zm-24.3 34.9h1.8v-2.9h2.2l1.4 1.4v8l-0.7 2.2h-2.2l-1.4-0.4-1.5-2.5zm-561.2 1.4l2.5-1.4 5.8 1.4v4.4l2.2 2.6 1.5 6.1 2.5 1.8 1.1 2.6h-2.2l-8.7-8.4-4.4-1.1zm15.7 21.9l2.5-1.5h1.8l2.2 2.9v2.9h-6.5zm261 7.3l5.4-2.9 9.5-0.8 0.3 8h-1.1l-6.1 6.6-5.9-9.8zm344.3 26.1l1.1-3.2 0.7-18.6 1.8-2.9h4l3.3 2.6 4.7 1.4 1.5 1.8v13.1h-4.4l-1.4 1.5-1.5 3.3-0.7 7.6-8-5.5v-1.4zm-588.5 40l3.6-1.9h3.3l1.1 6.2-2.2 0.8-2.2-0.8z"/>
		<path id="Path 28" fill-rule="evenodd" class="s28" d="m465.6 400.4l-2.9 1.5-0.7-2.6 4-5.1 1.5 0.4 0.3 1.4zm-11.6 9.5l2.9-0.4 0.7 2.9 6.6-6.1 3.2 0.7 1.5 7.3-0.7 4.7-2.2 1.4v2.6l-5.1-0.7-0.4-1.5h-2.5l-4-2.5-0.4-2.2-2.5 1.1-0.4-1.5zm398.8 25.8l3.6 0.4 9.8-8.7h9.1v10.9l-1.4 0.3v2.9l-2.2 1.9-2.2-1.5h-2.9l-4.4 3.6h-1.8l-3.6 4.4-3.3 1.8v4l-6.5 5.1h-1.5l-0.7-1.5v-4.3l-1.5-0.7 0.8-4.4-1.1-2.2 6.5-6.2-0.3-3.2 0.7-1.9zm8 20.8v-4l2.5-2.6h1.8l2.9 3.3-1.8 3.3zm-390 30.1l6.2-0.3 6.2 1.8-0.8 1.8h-11.6zm243.2 7.6l1.8 0.8 0.4-1.1 3.6 0.7 2.5-1.1 2.6 2.2 1.1-0.7 4 1.1v4h-2.2l-0.7 1-5.1 0.4-1.8-1.1-7.7 0.7v-6.1zm-24 0h8l1.1 0.3 1.8 2.6v4l-8.3 0.7-3.3-0.7v-4zm-278.1 6.2l4-0.8 0.7 0.8-0.3 3.6-4.7 0.3zm-278.5 3l2.2-0.4 1.5 2.9 2.5 0.4-0.7 3.6 2.1-0.4 0.8 2.9-2.6 2.2-2.9 0.4v-1.8l-2.5-2.9v-4l-2.2-1.9z"/>
		<path id="Path 29" class="s29" d="m248.6 498.5h8.4l2.2 2.2-1.8 2.2 0.3 2.2 5.1-1.5 0.4 2.6 2.2 0.3 2.9 2.2h3.6l1.1 1.5h7.3l5.8-0.7 2.2-1.9 3.2 1.1v3.3l2.6 1.8 0.3 2.6 1.9 0.7 1.4 3.3h-4.4l-1.8 2.1-9.1 0.8h-4.3l-1.1-1.5h-13.8-4.7l-1.9-3.6-6.5 0.7-5.1-0.4-1.8-2.5 1.1-0.7v-8l-1.5-4.4 1.1-1.8 4.4-1.5zm58.9 17.5h5.1l3.2-2.9h23.3l1.1-1.5h2.9l1.1-2.2 2.5 1.1 3.7-0.7 2.9 0.7 0.7-1.1 2.9 0.8 2.5-0.8 0.8 1.1 5.4 0.4 6.6-0.7 2.9-0.8 4.3 0.8 0.8 5.1 4.3-0.8 1.5-3.2 1.4-0.4 1.1 1.1-0.7 3.6-1.1 1.8-4 1.5h-6.9l-0.7 1.1-9.5 1.8-0.7 2.9h-11.6-3.3l-4.4-1.4-1.1-1.5h-5.4l-1.1-1.5h-4.4l-2.1 3h-25.1l-2.2-3 0.4-2.5z"/>
		<path id="Path 30" class="s30" d="m503.1 345.9l2.5-1.1 2.9 0.7-0.3 2.6-5.1 1.4zm382.4 74.9l5.4-3.3 1.5 1.1 0.7 4.4-3.2 3.2-4 1.5-2.6-2.9zm-436.9 3.6l4-4.3v-1.5l1.4-0.3 4 2.5h2.6l0.3 1.4-1.8 2.6v2.2l1.8 2.5 0.4 1.8-4.4 3.3h-2.1l-0.8-3.3-3.6 0.8 0.4-3.7-2.9 0.4zm28.7 6.5l4.3-4.3h1.9l0.3 1.8-1.8 3.6h-0.4l-0.7-1.4-2.2 1.1zm396.6 10.5l2.9-0.4 1.5 1.9v6.1l1.4 0.8v6.5l-6.2 0.4-2.5-1.1-1.5-2.6h-1.4l-2.9-3.2 0.3-1.9 6.2-4.7zm-39.6 8l2.2-1.1 0.4-1.4h1.8l4.3 0.7 1.1 2.2-0.7 4.3 1.4 0.8v4.3l0.8 1.5h1.4l-1.4 16.7 2.2 1.5v7.6l-10.2 3.3-0.7 1.4h-5.1v-1.8l-1.5-0.7v-4l-5.4-0.8v-4.3l-2.6-0.7 1.1-3.7-1.8-1.4v-2.2l-2.9 0.7 0.3-3.3-2.9 0.4-1.8-1.8-2.5 0.4-1.5 1.8-4.3 3.2h-1.5l-1.5-2.1 1.9-2.9 5.8-3 1.8-2.5h1.5l0.3 1.1 3.3-0.7 5.8-2.6 4.7-4.7v-2.2-1.4l1.5 0.7 0.7-1.1h0.7 0.4l1.8 0.4zm-623 25.8l5.1-0.4 1 1.1h3.7l1.8 2.2 4.7 3.6-0.7 5.1h-5.8l-1.5-2.5-2.5-1.1-0.4-2.2-4.3-3.3zm233.7 8.4l4.4-1.1v4.3h-2.2l-2.2-0.3zm-369.3 3.6l3.2-0.7 2.2-2.6h3.3v4.8l-5.5 5.4-3.2-0.3zm432.2 1h3.6l1.8-1.8 8.4 1.8-1.1 1.5-6.5 0.7-6.6-0.7zm43.3-0.4l4-0.3 3.6 1.1 0.4 1.1-8.8 0.7zm85.8 4.3l2.9-2.9h2.2l1.8 2.9-0.3 1.1h-5.8zm162.8 4.4l4.4-2.5 3.2 0.3 0.4 1.1h2.2v2.9l-8.7 0.7h-1.1zm-383.2 3.7l5.1-0.4 0.4 5.5-1.8 2.1-2.9-0.3v-2.9l-1.1-0.4z"/>
		<path id="Path 31" class="s31" d="m810.3 469.8l1.4-1.8 2.5-0.3 1.9 1.8 2.9-0.4-0.4 3.3v4.3l-2.2 0.8-3.2-2.2-1.5-4.4zm-16.7 2.6l1.1-1.5 2.9-0.7-1.5 3.6 1.5-0.3v1l-3.7 0.4zm-709.1 11.6l0.3-1.4 2.2-0.4 1.1 3.7 9.1 1.8 0.3 6.9-0.7 1.1-3.6-1.1-0.4 1.4-2.9 1.9-3.3-2.2-1.4 3.6-1.8 1.1-0.8-0.4-1.4 2.2h-6.2l-2.9 1.5-3.3-1.1-1.4-1.8-1.9-1.9-0.7-3.2 0.7-1.5 10.2-0.3 3.3 0.3 5.5-5.4zm716.8 15.2l8.7-0.7 0.7 2.9-1.4 0.4-0.4 2.2 3.3 0.3v1.8l-5.8 1.1h-4v-5.4zm-346.1 6.5v-1.4l1.8-0.4 0.4-4.4 3.3 1.1-1.8 1.8 0.7 3.3zm94.9-4.7l2.1-1.1 4.8 0.7-0.4 2.9-0.7 0.4-4.8 0.4zm-418.4 3.2l-3.9-1.4 5.8 0.3zm279.9 0l4.7-0.3 1.1 0.3v3l-2.9-0.4-1.5 0.4v-1.5h-1.4zm-272.3 10.2l2.5-2.2h1.1l1.9 1.8 1 2.6-2.5 1.4-0.7-2.5-3.3 0.7z"/>
		<path id="Path 32" class="s32" d="m615 456.7l-5.8 0.4-0.3-1.1h6.5zm20.7 2.6l3.7-0.8 2.5 1.5 2.6-0.7 0.7 1.1 1.4-0.4v1.1l1.9-1.1 2.5 1.1v0.3l-14.2-0.7zm37.5 5.8l-0.4-1.1 3.3 0.8zm-474 8l5.1-0.8-0.8 2.9-5.8 3.3-9.1-0.3-1.8-0.8v-2.9zm182.8 9.8h2.2l3.3-2.1h3.6l1.1 1.4 1.1 3.6-2.9 2.2-4-0.3-0.7-1.1-2.6 0.7zm222.9 5.8l1.8 1.1 1.8-3.3 1.5 0.4 0.3 2.5 1.5 1.1-1.8 2.6-3.7-1.1-5.4-1.1zm-99.3 13.1l2.2-1.5 2.6 0.8 2.1-1.5 2.2 0.4 0.7 2.5v0.7l-2.9-1.4-3.6 1.8v-1.5l-1.5 0.8zm-389.3-1.1l2.6 0.7 2.2-0.4 0.3-1h2.6l3.2 2.5v0.4l-4-0.8 1.5 5.1-3.6-2.2-1.5 0.4v4.7l1.8 2.2v2.6h-0.3l-1.1-0.8-3.7 0.8-1.4-1.9h-1.5l-0.3-0.7h1.8l-0.4-2.2-1.4-0.7 0.3-1.5 1.8 0.4 1.1 2.2 1.5-0.4-4-7.6zm556.9 1.4l4.3-1.4h4v1.4l-0.7 0.8-0.7-0.8-1.8 1.5-0.4 2.2-4.7-2.6zm-117.4 1.9l0.7-0.4 2.5 1.4-1.1 3-2.1-0.8zm-470.8 0.4l7.7 0.4-1.1 2.5-2.6-1.5-1.8 1.9-2.5-1.9-0.8 1.1-1.1-0.3zm424.6 4.7l0.7-0.7 1.5 1.8 1.8-1.8 2.6 1.8 2.9-0.7 0.3 1.4h-1.8l-0.7 2.6-5.1 1-2.5-0.3zm163.5 2.2l1.9-2.2 2.1 1.8 2.6-0.4 0.7 2.9-1.5 2.2-1.4-1.8-4.4 0.4zm13.5-0.8l6.2-1h4.3l2.2 0.7v3.6h-6.2l-1.1 1.1-1.8-0.7-1.8 0.7-2.2-2.5zm-44 0l2.9-0.8 1.5 0.8v3.6l-2.2 0.4-1.1-1.1 0.8-1.1h-1.5zm-88.7 2.9l1.5-2.9h1l0.4 1.8 2.6-1.5 2.9 3.7v0.7l-2.9 1.1-0.8-1.5-1.4 1.1-3.3-1.1zm101.8-2.5l5.8 0.4v3.2l-2.5 1.9-1.1-1.5-2.2 0.4zm123.6 0l6.2 1.1 0.3-1.1 2.6-0.4h0.7l0.4 4h-2.6v2.9l-1.1 0.7h-1.1l0.4-1.8-0.7-3.6-2.6 0.7-0.3 1.8-1.1 1.5-3.3-2.2-1.1 3.3h-1.1l-0.3-1.9-1.9-1v-2.6h2.2l0.7-1.1 3.3 2.9zm-201 3.7l1.8-1.5 4.4-0.4 0.3-1.8 1.5 1.5 1.8-1.1 1.5 2.5 2.1-0.7v1.8l-2.1 1.1v1.5l-2.6 0.3-1.1-1.4-0.7 1.8h-2.5l0.3-2.2-1.1 0.4zm28.7-2.9l2.2-0.8 2.2 0.8-0.7 4-2.2-0.4-0.7 1.1-2.6-1.8v1.8l-1.4-0.4v-0.3l1.1-0.4 0.3-2.9zm-470.7 3.3l2.9-0.4v1.8l-4.7 0.8v-1.1zm121.4 83.2l1.8-1.8 6.2 13.8 7.3 9.8 2.5 2.6 1.5 3.6 1.4-0.4v2.2l1.5 0.7 0.7 2.6 1.4-0.4 1.1 3.3-1.1 0.7-2.5-1.8-1.1-3.3-2.5-1.4-0.8-2.6-11.6-14.9-5.5-10.2z"/>
		<path id="Path 33" class="s33" d="m283.5 432.4l9.1-1.1-3.3 4.7-5-1.4zm148.3-0.8l12.3-0.3 1.5 1.8 2.9-0.4 1.1 1.9h5.1 2.2l1.4 1.4h7.6l2.2 1.5h10.6l2.1 0.7 1.5-0.7 0.4 1.4 7.2 1.5-1.4 3.6h2.2l0.7 1.1 5.8-0.7 0.4 1.1 2.9 0.3 0.3-3.2v-0.4h4.4l2.9-0.4 5.1 2.2-1.5 2.9h-5.4l-1.5 2.2-0.3 16h-8.8l-2.1 2.9h-5.5l-6.9-12.4-9.8-0.7-1.5 5.1-6.9 0.7v-1.8l-5.1-4h-5.4l-2.6 3.6-2.9 0.4v1.8h-2.9l-2.2-2.2-2.1-6.5-3.7-0.7-2.9-4.4 0.8-2.2-2.2-2.9-1.1-4.3 1.1-0.8zm-74.2 9.1l0.4-4 4-2.2h2.9l1.1 1.5h6.2l0.3 6.2v1.1l-2.5 1.1v3.2l-1.1 0.4v6.5l1.1 0.4 2.2 5.1 1.8 1.4 0.7-1.4 2.9-1.1 0.7-2.2-0.3-2.9-1.5-1.4 0.7-9.1h4l3.3-1.5 0.7-4 1.5-0.3 5.1 1 1.4 3.3h5.9l2.1-2.2 3.3 1.5v3.6l2.6-1.4h4v2.1l-1.1 1.9v8.7l-2.2 1.4v4.8l-1.1 1.8-2.9 1.8-2.2 2.9v1.8l-1.8 1.5h-1.5l-2.2 2.5-3.2 0.8-0.4 1.4h-9.4l-2.2 5.1-3.7 2.9-1.4-1.1-4.4 0.7-5.4-1.1-1.8 1.1-2.2-0.7-0.4 1.5-6.2 0.7-6.1-0.4-5.9-2.5-7.2 0.7-0.4-2.9-5.8-5.4-5.1 1-1.1 7.3h-1.1l-4.7 0.7-0.7-1.4-2.9-0.7h-7.7l-0.7 1-3.3-1-6.5 1-1.8-1-1.9 1.4-5.4-0.4-0.4-1-5.4-0.4-2.9-5.5-0.8-4h1.5v-1l4 0.3 1.1-1.1 1.4 1.8 2.2 0.4-0.3 3.6h5v1.5l2.2 1.8 1.8-0.3 0.4-2.6 3.6 0.4-0.7-2.2 0.7-7.6-2.1-1.9v-2.5l2.9-2.5 1.8 0.7 1.1 2.9 5.8-2.6 1.5-1.8-0.4-2.9-1.8-1.4-1.5-4 1.8-2.6h3.3v-1.8h1.8v-3.3l-1.4-1.4h-3.7l-0.3 1.8h-1.5l-1.1-2.2 1.5-5.1 2.2-0.7 4.3-0.4 3.7 4.4 6.9 0.4 2.5 2.5 0.7 10.5 3.7 0.8 0.7 1.4 6.5-1.4v-5.8l1.9-1.5h4l0.3 2.9h1.1v-1.1h2.6l2.5 2.6v2.1h2.9l2.2 2.6 0.4 2.9 2.5 2.2v2.2h-1.1l-0.4 1.4-3.6 0.7-2.5-1.8h-2.9l-1.9 2.6-3.2 0.3v4.4l4.7 0.4 1.4 3.2 2.2-0.7 2.2-3.3 2.9 0.4 2.6 2.2 1.1-2.2 3.2-0.4v-1.8l-2.2-3.3 0.4-4.3-1.1-2.9h-1.4l-0.8-1.8 1.5-3 1.4-1.4h2.2l0.4-1.5-2.6-1.8-2.1-4 0.3-2.9zm-159.6 8.4l1.5 0.3v-1.1l2.9-0.3-0.4-0.7 2.6-0.4 0.4-1.1 1.8 1.1h1.1v3.3l-3.7 3.6v3.3l3.7 2.2 5.8 11.6-1.5 1.4h-5.1-2.9l-5.1 0.8-1.1-6.6-2.5-2.2-0.7-9 1.1-4zm36 4.3l1-1.4h1.9v-1.5l4.3 0.4 0.4 2.9 1.1 0.3v2.2h-1.5l0.7 6.9-2.1 0.8-1.1-0.8-2.2-1.8v-2.2l-2.2-2.1zm338.1 26.1v-1.4l2.2-1.9v-2.1l-1.5-1.8-1.5-15 3-1h9.4l2.5 0.3 2.6 4h5.8l0.7 3.7h4.4l0.7-5.5 2.2-0.4 4.4 5.5 0.3 4 1.1 0.7 1.5 16.7v1.5l-1.5-0.4-1.8 3.3-1.8-1.1v-2.5l-2.9-3.7h-12l-2.6 1.8v2.6l-1.4 2.2-9.1-0.8-1.1-1.8-2.2-0.3v-1.9l-1.4-1zm-30.9-1.5h-6.9l-2.6-3.6-4.7-3.7 0.7-4.7 2.9-3.3 2.2-0.3h4.4l1.1 1.1h2.5zm142.1-8.8v-2.9h4.8 0.7l4.4 0.4 4 0.7 1.4 0.4 6.2 1.1 2.2-0.8 4.7 0.4 8.4 1.1h6.9l0.7 13.5 2.2 1.8 0.3 2.5 3.7 2.2h6.1v3.6l-1.4 0.4v1.1l-2.6-1.1-4.7 0.7-2.5-1.4-2.9 1.8-1.1 0.7-2.6-2.2-2.5 1.1-3.6-0.7-0.4 1.1-1.8-0.7v-5.5l-1.5-1.8v-2.9h1.8l4-2.9-0.7-2.9h-5.1l-0.7-1.5-8 0.4v9.8l-1.8 1.4h-3.3l-0.7 1.5h-1.8l-2.6-3.3-5.8-1.1v-10.5l-1.1-2.6zm81.4 0.8l5.9-0.8h5v2.2l3 1.8 1 5.1 3.7 0.8 2.2 1.8v5.8l-1.1 4.4h-1.5l-0.3 1.8-2.2-1.8h-2.2l-0.7 1-12.8-0.7-1.4-2.2zm-519.8 6.6l2.5-1.5v-1.4l4.4 0.3 2.9-3.6 3.3 2.5h2.1l0.4-1 2.9 0.3 1.1 3.3 2.9-0.4v2.9h-4l-2.5 2.2-0.4 2.2h-2.2l-1.8-3.3-9.4 0.4-2.6-1.8zm548.9-1.8l3.6-0.4 5.1 1.4 1.8 8 2.2 0.8 1.8 2.9-1 6.9-3.3-0.4-0.4-1.8-3.3 0.7-1-4.3-1.5 0.3v2.2l-1.5 0.4-0.7-5.1-1.4-1.1-1.9 1.1h-0.7l-2.2-4 0.4-2.9 2.5-1.8zm-706.2 5.4l12-2.9v5.1l-1.1 0.7 0.3 3.7-1.8 0.7-9.1-1.8-1.1-3.7zm471.5 24.7l2.5-1 1.1 2.9v4.7l1.5 1.1-0.4 1.8h-1.4l-2.9-3.6-1.5-2.9z"/>
		<path id="Path 34" class="s34" d="m476.9 370.6l2.2-0.7 1.8 0.7 1.8-2.2h1.9l-0.8 2.6-2.9 1.8-0.3 1.4h-1.9l-2.5-2.1zm10.2 5.4l2.9-2.2 1.8 1.8-4.7 4.4zm13.4 2.6l2.6-3 1.4 0.8 2.2 4.3-2.5 2.6h-1.9l-1.8-0.8zm-14.5 12l3.6-3.2 3.3 0.7 0.7 2.5-3.3 4-2.5 1.5-0.7-2.5-1.8-1.1zm-2.6 35.9l5.1-4.7 1.4 1.8-0.7 2.6-5.4 2.2zm355.1 20.3l0.7-1.8 9.9-6.9 0.3 3.3-6.5 6.1zm-410.4 40.8l5.8-6.6h9.4l1.5 2.6v2.9l-3.3 1.8h-4.7l-1.1 1.4h-6.2zm21.1-5.1l6.9-0.3 0.8 3.3-7.7 1.4zm-211.9 0.7l4-0.7h2.5l5.1 3.3-1.4 1.8-10.2-2.2zm17.1 1.8l1.4-1.8 2.6-0.7h2.2l4.3 2.2-1.1 2.2-0.7 1.4-2.2-1.1-4 0.7zm151.2-0.7l4.4-1.1 3.3 3.7-0.8 1.8-8.3-0.4v-2.9zm419.8 8l-0.3-1.5-2.2-0.7 1.8-6.2 5.5 0.8v4l1.4 0.7v1.8l-2.9 1.5zm-637.9 4.7l0.3-2.6-1.1-0.7 0.8-5.4-2.2 0.3 1.1-3.6 5.8 0.7 0.3 1.1 1.9-1.1 2.1 1.5 2.2-0.8 0.8 7-1.9 1.4 0.4 2.9v1.1l-2.2 1.1-2.9-1.1-1.8 1.1-1.1-2.9zm-122.1-6.9l4.3-2.9 4.4-1.1 1.4 1.1v6.5l-10.1 0.4zm85-1.1l2.2-0.4 0.7 3.3-2.5 0.4zm64.7 5.8l-1.1-4.7 2.2-0.4 4 5.8h-4.4zm-74.9 3.3l0.4-6.2h2.2v2.2l1.8 1.8-2.2 2.5zm669.6-2.5l7.3-2.2h4.3l1.5 3.6 0.3 3-2.5 1.4v1.8l2.5 0.4 0.8 1.8-8.4 1.5-3.6-0.8v-1.8l1.4-0.7v-1.5l-2.9-0.7-0.7-2.9zm-404.2 4l-2.2-1.1 1.4-1.8 4 0.4 0.4 1.4-1.1 1.1zm5.5-1.1l1.4-1.4h3.3v2.5l-4 0.7zm52.7 0l2.6-0.3 1.8 2.9-4.4-1.8zm29.8 1.8l3.6-0.4 1.9 1.5 4.3-0.4-1.1 1.5-1.8-0.8-1.1 1.8-5.4-0.7zm47.2 1.1l2.9-1.4 2.9 0.7 1.9-0.7 1.4 1 1.1 3.3-0.7 1.5-3.7-1.1-4.7 0.3zm126.9 0.4l4-0.4 1.4 0.8v1.1l-2.5 1.8-2.9-2.6zm133 6.2l1.5-0.7h4l1.4 2.5 8-0.3 4.8 1.4 10.1-0.3 0.4 1.8-2.2 1.1-7.3-0.4h-5.8l-5.8 0.4v7.6l-2.5 1.5-0.4 1.4-5.1-1.1-0.7-5.4-1.8-0.8v-2.1l1.1-0.8-0.8-2.5zm-657.9 4.3l1.1-1v-2.6h1.1l1.8 0.7 0.7 2.2v1.1l-2.9 1.5zm-60.3 2.9l1.4-0.4 1.1 1.1 2.9 3.6-2.9-0.3-2.5-2.9zm751.3 13l-1.8-1.4 0.4-1.8h1.8l2.5 1.8-0.7 1.4z"/>
		<path id="Path 35" class="s35" d="m485.6 373.1l2.9-2.9 1.9 1.5-0.4 2.2-2.9 2.2-1.8-0.4zm-17.8 22.9l2.1-0.7 1.5 0.7v2.2l-3.6 3.6-2.2-1.4zm-32.4 28.3l1.9-0.4 2.9-2.9 3.2 3.3h5.1l-0.7 4.4 2.9-0.4-0.4 3.6 3.7-0.7 0.7 3.3h-5.1l-1.1-1.8-2.9 0.3-1.4-1.8-12.4 0.4v-0.8-3.6l2.2-3.3zm367.5 46.6l1.4 2.1h1.5l4.4-3.2 1.4 1.1 1.5 4.3 3.2 2.2 2.2-0.7v-4.4l2.9-0.7v2.2l1.8 1.4-1.1 3.7 2.6 0.7v4.3l-1.8 6.2 2.2 0.8 0.3 1.4-4 1.1h-4.3l-7.3 2.2h-2.2l-0.4-1.1 1.1-6.9-1.8-2.9-2.2-0.8-1.8-7.9-5.1-1.5v-1.1l3.7-0.7zm-595.8 1.4h5.1l1.4-1.4h1.5l6.2 3.3-0.4 1.8h-3.6l-1.1-1.1-5.1 0.3-2.6-1.4zm185.4 4.4l0.4-1.5 3.3-0.7 2.1-2.6h1.5l2.9 2.2 0.4 2.6 1.4 1 1.1 6.6-1.4 1.1-4.8-0.4-2.2 1.8-1.8-1.4-2.2 0.3-1-3.6zm17.4 6.5v-2.5l2.6-1.5 1.4-2.5h4.7v5.8l-2.9 4-1.8-0.7-0.7 1.1zm-269.4-1.1l0.7-5.1 5.5 1.1v5.4l-2.5 0.4-0.4-1.8zm400.6 6.5l1.1-1.8h8l0.7 1.1-0.7 2.6-3.7-1.5-4.3 0.7zm185.7 12.4l0.7-1.1h2.2l1.1 0.7-2.5 0.7z"/>
		<path id="Path 36" class="s36" d="m190.1 512h5.5l1.1-1.1h0.7 1.1l1.1 1.8 2.1-0.7 2.6 2.2 1.4-0.4 3.3 5.8 2.2 1.1 0.4 2.9-2.6 2.9-9.1 1.9-0.3-10.6-1.5-1.1-12 0.7v-2.9l1.1-1.8zm518.7 9.8l0.8-4.3h4.7l4.3 2.2 17.1-0.8 2.9 2.6v5.8l-1.4 1.1v3.6h-12l-5.5 1.5-1.4-5.5-7.7-1.1-1.8-2.2zm-489.3 11.7v-1.5h3l0.7 1.5-0.7 0.7zm453.6 11.6v-10.5l2.6-1.8 9.4-0.8 1.5 1.5 8.3 0.7 1.1 1.5h1.8l0.4 6.2zm-556.9-7.3v-1.5h4.4l0.7 2.6 2.2 1.8 5.8-0.4 6.5 0.4 12.4-1.5v5.9h-6.9l-6.9 5.8v2.9l-6.6-1.8v-5.1l-4-3.3h-7.6zm30.9 18.5l0.7-2.5h4l2.6 2.2 3.6 0.3 0.4 1.1 0.3 1.9-9.1-1.5zm37.5 1.8l15.3-1.4v5.8l2.5 2.2v2.5l-1.5 1.1-2.1-1.5-1.1 0.8-5.5-1.1-0.7-1.5-2.9 0.7-6.2-1-0.7-1.1v-5.5zm32 0l7.2-0.7 2.9 0.7v4.4h-10.1zm107.6 22.9v-6.9h14.5l0.4 3.2 2.5 1.9 0.4 1.8-1.1 1.1h-2.6l-0.7-1.1-1.1 0.7zm27.6 1.1l0.4-3.6 15.3 0.3 0.3 3.3zm-46.5 64l3.3-2.2h4v0.3l0.7 3h-1.1v1.4l-1.8-0.4-0.7 2.2-1.1-0.3 0.4 1.4-3.3 1.1-0.7-0.7v-2.2l1.8-0.4v-1.8z"/>
		<path id="Path 37" class="s37" d="m336.2 430.6l8.8-0.8 1.8 1.1 1.1-0.7 6.2 1.1 4.3-1.1 2.9 1.1 0.8 3.3-4 2.2-0.4 4-4.4 1 1.1 2.6-1.1 0.4-0.3 2.5h-2.6l-1.8-2.5-3.3 2.1h-4l-1.4-2.5-3.3-0.4-0.7-1.8-1.5-0.4 1.5-4.3zm141 0.3l1.5 0.8 2.2-1.1 0.7 1.4-2.9 1.9v3.6h-10.6l-2.2-1.5h-7.6l-1.4-1.4 4.3-3.3 3.3 0.4 1.8 2.2 2.6 0.7 1.4-1.1 0.7 1.1 1.5-1.8 2.5-0.4v-1.1zm-105 5.1l3.3-0.7 1 1.8-0.3 5.1-1.8 0.7-1.9-0.7zm132.4 29.1l0.3-16 1.5-2.2h5.4l1.5-2.9 2.2 0.3 2.5 1.9 5.8 0.3 5.8 0.4 2.6 0.7v10.9l1.1 0.7-0.4 3.3-2.2 0.4-2.9 3.2-0.7 4.8 4.7 3.6 2.6 3.6h6.9 8.3l2.9-5v-4.8l-2.1-3.2-3.7-3h-2.9v-9.8l1.8-2.9 22.2 2.6-0.7 10.1-2.9 2.2v4.4l1.4 8.7 1.8 2.2h4.8v3.6l1.4 1.1v1.8l-5.4 4-7.3-1.1-1.8 0.8-0.4-1.1-3.6-1.1-4 0.4-0.7-1.1h-8l-1.1 1.8-3.3 1.1-1.8-2.2-2.9 1.4h-2.6l-1.1-1.4-8 0.7-8.3-1.8v-6.2l-3.3-2.5-0.3-2.9-3-2.2zm-93.4-19.6l3.3-0.8 0.7 1.5 9.8 0.4 1.1 3.2 0.8 4.7 3.2 3.3-1.1 17.5-3.2 0.3-4-1.8v-10.5l-4-2.2-1.1-3.6-6.6-1.5v-8.7zm163.2 7.2l9.5 0.8v2.9h-9.5zm-127.2 8v-1.8l2.9-0.4 2.6-3.6h5.4l5.1 4v1.8l-3.6 2.2-9.5-0.8zm173.4-3.2l7.7 0.3v2.2l1.4 1.1v4l0.7 13.8 2.9 5.1 1.9 0.7 4-2.9 0.7-2.2v-5.8l-2.6-2.9-0.3-5.8v-4.4l14.2 0.8 5 1.4-0.3 6.6h-2.6l-3.6 2.9-1.1 2.1 0.4 5.9 11.2 4.3 1.5 4.4-1.5 1.4v2.2l-1.4-0.3-1.8 1.8h-0.4l-0.4-3.3-1.8 0.7-1.8-1.1-2.5 1.1-1.5-1.4v-1.8l-1.4-1.5h-6.6l-0.7 2.5-2.9 3-2.2-1.5-2.5 2.2-1.9-2.2-6.5 1.5-0.7-1.9h-1.1l-2.6 2.2h-1.8l-2.2-2.9-3.6 0.7-1.5-1.1-0.3-2.5v-1.5l4.3-0.7 1.5-1.4v-3.7l2.2-1.8v-10.2l-1.5-2.5v-5.8h2.9zm-25.8 1.8l5.8-0.4-0.7 5.5h-4.4l-0.7-3.7zm182.5 10.2l4.4-0.7 1.8 1.5 0.3-1.1 4.4 2.5 4.4-1.1 1.1 1.8 0.3 2.6-1.4 2.9-2.6 1.8-0.3 2.9-4-1.4-2.2-1.9-3.7-0.7-1-5.1-3-1.8v-2.2zm-45.8 1.5l1.9-0.7 2.9 0.7 0.3-1.1 2.2 1.1 26.2-0.7-1.5 19.2 1.5 2.2-0.7 1.5-9.1 0.7-9.5-0.7-2.5 1-1.1-1.4-1.8 0.7v-3.6l-1.5-6.6-1.4-1.4h-2.2l-2.9-3.6zm-463.9 4.3h1.1v-1.4l1.8 0.3v-1.8h1.9l0.3 1.1h1.8v1.4l2.2 2.2 1.8-0.7 3 5.5-3 0.3-0.7 1.1-5.1-0.7v-1.5l-2.5-2.9h-2.6zm-46.5 0.7l0.4-1.8 3.2 0.4 0.8 1.8-1.8 0.4-0.8 1.4zm102.9 7.7l1.1-7.3 5.1-1.1 5.8 5.5 0.4 2.9-4.8-0.8zm57.1-1.8l2.2-5.1h9.4l-0.3 5.5-1.1-1.5h-3.7l-3.2 2.2h-2.2zm-270.5 1.5l-0.3-3.7 1.1-1.4h1.4 4l1.1 1.8-3.3 3.3-1.4 4-2.2 0.7-0.7-2.2zm45.1-3.6l1.4-0.8 0.7 1.5-0.7 0.7-1.4-1.1zm430.3 9.5l1.5-2.2v-2.5l2.5-1.9h12l2.9 3.7v2.5l-3.9 2.2-0.4 0.4-1.5 0.7-9.8-0.7-2.9-0.4zm199.6-2.2h3.6l2.2 1.8 0.4-2.1h0.7v2.9l-2.6 3.2-1.1 1.5-0.7 2.9-1.1 0.4 0.4-3.3-2.9-2.9zm-117.4 2.9l2.9-2.9h10.9v6.2l-2.2 0.7-2.2 1.1-1.8-2.6-2.5 0.8-2.2-0.4-1.1 1.1-1.1-0.7zm29.8 0l0.7-1.5h3.3l1.8-1.4h2.9v6.5l-2.9-0.4-0.3 1.1-4.4 0.4-1.1-0.4zm-558.3 16.4l0.3-1.5h0.4l2.5 2.9 2.2-0.3v1.4h-1.1l-2.9 0.8-2.2 0.3z"/>
		<path id="Path 38" class="s38" d="m221.7 441.5l5.9-1.1 1.8 0.7 0.7-1.4 1.5 0.7 1-1.5 2.6 0.4h1.4l-0.3 1.1h-2.2v1.1l-1.8-0.7-3.7 1v1.1l-5.8 0.4-1.1-1.1zm-105 28.4l2.2-1.9h1.8l0.7 2.9-0.7 1.9h-1.5l-4-1.5v-0.4zm679.4 29.1l2.2-3.2 1.5 1 0.3 2.6h1.1l1.1 2.5v5.5l-1.5 0.7-1.8-1.4v-1.5l-2.5-1.4zm-180 1.8l2.2 0.3 0.4-1.4 1.4 0.3v2.6l3 0.7 0.7 1.5v2.1l-1.5 1.1 0.8 3.3-11.7 0.4-2.2-0.8 0.8-1.4 2.2-1.1 0.7-2.9 2.2 0.4-1.9-3.7zm96.4 0.4l7.6-0.7 1.8 1.1 5.1-0.4 1.5 0.4-0.4 3.9 3.3 0.8 0.7 2.5-1.5-0.3-1.4 2.5-0.7-1.8-1.5-0.4-0.7 1.5-2.2-1.1-1.8 2.2-1.5-0.8-2.2 2.2-0.7-3.3-1.4-1.4h-2.6l-0.7-5.1-1.8-0.7z"/>
		<path id="Path 39" class="s39" d="m467.8 401.9l3.7-3.7 3.2 0.8v3.2l-3.2 4.4-4 0.4-3.3-0.8zm397.3 22.6l5.5-5.5 5-2.5h1.9l2.5 2.1h3.6l1.9 2.2-2.2 4-4.4 2.6h-3.6-9.1zm-353-4.8l2.9-2.1h1.9l2.1 2.5 0.4 2.9-0.7 1.5-3.3 0.3-0.7 1.1h-1.5zm376.6 37.5l0.4-10.9h3.6v8.7l-2.2 2.2zm-96.3 8.7l4.4-1.8 1.8 0.3 0.3-1.1 2.2 1.5 1.8 0.4 0.8 2.5 1.1 0.4-1.9 2.9-1.8 1.8-3.6 0.7-1.5 0.4 1.5-3.7-2.9 0.8-1.1 1.4-1.1-1.8zm81.4 8l-2.9-4 1.5-6.2h5.8l2.9 10.2h-1.5zm-644.1 18.2l4.4-0.4 2.9 1.8 0.3 1.8-3.2 1.9-4 0.7-0.4-0.7zm501.6 2.5l4.8-0.7 2.5 1.1v5.8l-2.9-0.4-1.1 1.1-3.6-0.7-1.1-0.7v-4zm-22.9 0.7l4-0.4v6.2l-1.1 1.1-3.3-1.1-0.3-4zm-302.8 4.4h2.5l1.1-1.1h1.8l0.7 1.8-0.3 4v1.4h-0.7-1.5l-1.1-2.1-1.8 1.4-0.7-1.8zm-322.8 6.9l1.1 0.4 0.7-1.1 2.5 1.8v2.5 4.4l-2.1 1.5-1.1-1.1-1.5 0.3-2.9-4.7 2.9-4zm154.1 29.8l1.1-5.8 3.3-4.4 4.4-3.2 4 0.3h0.3v10.2 4l-2.5 0.4-1.8 1.8 0.7 13.1-5.1 2.5v2.9h-4.4v-1.4l-4.3-4.4-0.4-10.2 4.7-2.9z"/>
		<path id="Path 40" class="s40" d="m494.7 353.2l8.4-7.3v3.6l-5.1 5.8-2.5 0.8zm8.3 22.5v-3.3l1.5-0.7 2.9 1.5 0.7 2.9 3.3 1.4-1.8 2.2-2.9 1.1-2.2-4.4zm1.1 39.3l-2.9 2.5h-2.2v-1.4l-2.9 1.1 0.7-1.9 6.2-4.3zm25.4 32l0.7-0.4 4.8 1.1h0.3l3.3 1.1-6.5-1.1zm241 22.5l6.1-1.4 0.4 1.4h-1.4zm-597.3 2.9l9.1 0.4 0.7 1.8h3.7v2.9l1.8 0.8-0.7 2.1-3 1.1-2.1 2.6-6.6-0.4v-1.8l-4-2.6v-5zm-92.3 10.5l6.2-2.9 0.3 0.4-0.7 1.8-2.2 0.3-0.3 1.5h-3.3zm73.1 9.1l-1.1-6.9 1.1-0.8-0.4-2.5 1.8-1.8 1.5 1.1 2.1 2.2h2.2l1.1 2.5-1.4 5.4-2.9-0.7-2.6 3.3zm44 5.8l-0.4-2.9 1.9-1.5 3.9 0.8-0.3 5.4h-0.4-1.1v-1.4zm-99.9-0.4l2.9-0.7 0.3 0.7 0.8 2.9 2.5 1.5 1.1 4h-5.5l-1-3.7-1.9-2.1 1.1-1.1zm371.5 3.2l4-0.7 1.8-1.8 4 1.1-1 2.9-4.4-0.7-0.4 1.1h-1.8zm266.5 6.9l2.9-0.4 0.3 3.3 1.5-2.2 3.3 0.7 1.4 3.3-1.1 0.3v1.9l-1.4-0.4v-1.8l-1.8 1.1h-1.1l-0.4-1.5-1.8 1.1-0.7-0.7zm-36.8 2.5l3.3-1.8 2.2 1.1 4.4-0.7v-1.1l1.8 0.7v5.1l-1.5 1.1-1.4-0.7v-1.9h-1.9l-0.7 2.2-1.4-1.1-1.9 1.1-2.9-0.3zm22.9 1.1l1.9-2.2 2.1 1.1 0.8-1.5 1.4 0.4 0.7 1.8v0.4l-2.1 2.5-1.9-0.7-2.1 0.7zm-654.7-1.1l3.3 1.5v-1.5l2.1-0.7 3.7 2.2 4.3 4.7h1.5l2.5 2.9-0.7 2.5-13.1 0.8-4-0.8-2.1 1.9-5.9-5.1 4-2.2-0.7-3.3 4.4-1.4zm697.2 1.4l1.1-0.4v-1.4l2.1-0.4 1.9 2.2 1.8-0.4 1.1 1.1v2.6l-5.8 1.4zm-132.4 0l1.5-1.1 2.9 0.4 1.5 2.9-2.2 0.7v1.1l-1.8-1.1-1.5 1.5-0.7-1.1zm162.1 3.3l0.7-4 4.4 0.3 0.7 2.6-1.1 0.7v2.2l1.8 0.7 0.8 5.5 5.1 1.1v13.1l1.4 1.4v2.9l-9.1-4.3-1.4-1.9 0.3-2.1-3.2 0.7 1.4-4-1.8-1.8-2.9-0.4 2.2-1.5v-2.9l1.4-0.7v4h1.5l0.7-1.8-0.7-6.2zm-247.9 0.4l1.4-1.5 2.6 0.8-1.1-2.2 2.9-0.4 1.4 1.5v1.4l-2.9 2.2-4.3-0.4zm45-2.1l1.1-0.8 0.8 1.8 1.8 0.4 1.1-1.1 0.7 0.7 2.9-0.7-1.1 1.8-2.2 0.4-0.7 2.5-1.1-1.4-4.7 1.1-0.7-0.4v-1.4l2.1-1.1zm-29.4 1.4h1.5l0.3-1.8 1.8 1.8 0.4-1.1 5.1 1.1 0.7-1.1 2.2 0.8 0.4-1.1h2.5l0.4 2.1 0.3 1.5v0.7l-5.1-0.7-2.1 1.5v-1.5l-2.6 0.7v-1.1l-5.1 1.1-0.7-2.2zm-260.3 138.2l0.4-1.1 2.5 0.3 0.8 0.8z"/>
		<path id="Path 41" class="s41" d="m234.1 497.1l3.3-1.8 2.5 2.5 8.4-1.1 0.3 1.8-0.3 1.1-4.4 1.5-1.1 1.8-8-0.4zm22.9 1.5l0.8-1.8 15.6 1.4 2.2 1.9-8 1.4-4.4-0.7h-4zm29.4 3.6l3.3-2.5 14.2-0.4 3.3 1.1 6.5-0.4 0.7 1.1 3.3-1.4 3.6 1.1-1.8 2.5-3.2 0.7-5.1-1.1-1.1-1.8h-1.5l-1.1 2.6-8-1.1v1.4h-1.1l-2.5-1.1v-1.8l-2.9 2.2h-1.5l-0.3-1.4zm130.8 11.2l2.9-0.7 0.4 2.9 2.2-0.4 0.4-1.8 1.8 1.5 0.3 1.1-0.7 1.4h-6.2l-1.4-1.4zm15.6 1.1l2.9-0.8 2.2 1.1 0.7-1.4h1.8v2.1l-3.6 3.3h-2.9l-2.2-2.2zm-45.1 1.1l4.4-0.3 1.1-1.5h2.2l0.7 1.8 2.2 0.4 0.7 2.9-0.4 4.4-2.5 2.1-14.9-0.7-6.2 1.5h-7.3l-2.9-1.5 0.8-2.9 9.4-1.8 0.7-1.1h6.9l4-1.5zm-137.7 3.3l6.5-0.7 1.8 3.6-0.3 1.5h-8-0.4zm13.1 2.9h13.8l1.1 1.4h4.4l9.1-0.7 1.8-2.2h4.3 6.6l2.2 2.9h25l2.2-2.9h4.4l1.1 1.5h5.4l1.1 1.4 4.4 1.5h3.3v5.4l-12.4 0.4v-2.2l-2.2-0.7h-6.5l-1.1 1.5h-4-18.6l-0.3 2.9h-5.5l-2.2-2.2-8.7-0.7-1.1 0.7v5.1l-4-0.4-6.1-0.7-10.6-7.3-6.9-0.4z"/>
		<path id="Path 42" class="s42" d="m488.5 370.2l3.7-5 1.8 0.3-0.4 6.2 1.1 1.8-2.9 2.2-1.8-1.8 0.4-2.2zm16.3 38.9l3.3-1.8 0.4 3.2 2.5 0.4v1.1l-2.9 2.2-4 0.7-1.1-4zm-69.4 15.3l1.4-1.1v-2.2l1.1 0.4 1.5-1.9-0.4-1 1.1 0.3 0.4 0.4-0.4 1.8-2.9 2.9zm74.2-4l2.5-0.7 1.1 6.2-4.4 1.4-3.2 0.7 0.3-2.9-1.4-1.1zm-30.9 17.1v-3.6l2.9-1.8h0.3l0.4 3.2 1.5 0.8-1.5 1.4-1.5 0.8zm29.5 4.3l5.4-0.7 1.9 3.3-2.2-0.4zm48.7 58.9l3.3-0.7 2.9 1-1.5 2.9-2.5 1.1-2.6-1.4zm104.7 10.5l4.4-0.7 1.4 1.1v2.5h1.1l-3.6 1.1-3.3-0.7zm128 3.3l-0.4-4 1.1 1.1 5.1-0.8-0.7 4-2.6 1.1-0.7 4-0.7-0.3zm-178.2-3l11.7-0.3 0.3 0.3-1.4 3.3-0.7 1.1h-3.3-5.8v-1.4l-1.5 1zm195.6 12.4l0.3-1.4 2.6-1.5v-7.6l5.8-0.4 1.8 2.5 4 0.8 3.7 1.1-1.1 1.4-3.7-0.3-1.1 1 0.8 1.9 2.9 1.1v4.7l1.4 1.4v2.6l-0.7 1.4 0.7 1.8-2.9 0.8v2.5l4 1.5 0.7 2.9-4.7-1.5-1.4-1.4h-2.2v2.9h-1.8l-1.5-1.8-6.2-1.9-1.4-1.4zm-269-8.7l1.8-1.1 0.7 1.1 3.7-0.8 2.5 0.8v1.4l-2.9 1.1-5.8-0.7zm-299.2 48l-1.8-5.1h4.4l-0.4 4.7z"/>
		<path id="Path 43" class="s43" d="m427.5 430.2l4.3-2.9v3.6zm-37.8 1.1v-0.7l8.4 0.7zm25.8 0.4l11.3-1.1-1.5 1.8zm-4.3 0l3.2-0.7 1.1 0.7-1.1 0.4-3.2 0.3zm-9.5-0.3h0.4v0.3h-0.4zm-130.1 1.9l5.4-0.8-2.2 1.1zm225.1 8.8l0.7-0.8h2.9l0.7 1.1v0.4l-1.8 0.7zm-301.7 9.1l3.3-1.8-2.2 2.2zm502.3 16.7l0.8-0.8 0.7 1.1zm1.5 0.4l8.3 0.4-2.2 0.7zm-535.8 9.8l6.9-5.4h3.7l-1.1 1.8v5.1l-3.7 2.1v3.7l0.8 1.1 3.6 0.7v7.6l-1.4 1.5h-3.3l-2.2 2.2-2.9-0.4-1.5-2.2-0.7-4.3 1.5-5.5-1.1-2.5v-2.2l1.4-1.5zm-103.6 16.7l6.2-4.3v4l-0.7 1.4h-4.4zm61.5 1.9l1-4.4 0.8 0.4 0.3 2.1h2.2l-2.2 0.8 1.1 4.7h-2.5zm82.9-2.2l0.7-1.1 0.7 1.1 4 0.7h0.4l-1.5 3.7-4.7 1.1zm12.4 1.4h4.3l1.1 2.2v3.3l-1.4 0.3-1.5-1.4zm390.4 4.7l2.2 1.1 2.9-1.8h3.6l1.1 1.1-2.9 1.4 1.8 3.7-2.2-0.4-0.7 2.9-2.2 1.1-1.8-1.5-2.2 1.5-1.4-1.5h-3.3l-4-1.1-1.4 2.2-3.3 0.4-0.4-0.4 0.8-3.6-1.1-3.3 0.3-1.1 2.6 1.1 1.4-1.1 2.9 0.4h2.2l0.7 1.1v-1.1zm16.8 10.9l-0.8-3.3 1.5-1.1v-2.1l-0.7-1.5-2.9-0.7v-2.6h0.7 8.7l2.5 1.1 1.9-0.7 0.3 1.4 2.9-1 1.1 1.4-0.3 1.5-4 0.7-2.9-0.7-1.5 6.9 1.8 1.1-0.3 1-1.9-1.4-5.8 0.4zm20-9.9l1.1-0.7h2.2v1.5l1.1-1.5 4 0.4 1.1 1.8h1.1l0.3-1.5 4 1.1v-1.1l2.6 0.8v1.1l-1.1 1.1-2.9-0.8-0.8 2.2-2.9 2.2 2.9 2.9v4.4l-2.5 0.3-0.7-1.8-1.9 1.1-3.6-0.7v-3.7l0.7-4.3-2.9-3.7-1.8-0.3zm-426.4 6.5l-1.1-4.7 1.5-2.2h0.7l3.3 4 0.4 1.5zm-60.8-5.1l1.5 0.3 1.1-1.8h1.4v2.6h2.2l3.3 5-2.9-0.7-0.4 1.5h-1.1l0.4-3.3-1.1 1.1h-2.5l-1.9-0.7zm-61 2.9l1.1-2.2 3.2-1.5 1.1 3.7v1.1h-2.2l-1.4-1.5-1.8 0.7zm667.7-1.8l3.7 1.1 0.7-1.4 2.9 0.7 0.4 3.3 1.4 1 3.3-0.3 0.7 2.9-0.7 1.1h-2.2l-1.1-1.1-1.8 0.4-1.8-2.2-2.2 0.3v1.5l-1.1 0.4h-0.7l-1.1-0.8v-2.5zm-21.8 4.3l1.1-2.5h4l0.7-1.5h2.5l1.1 1.1 1.5 4.4-1.8 2.9-2.9-1.4 0.3 2.9-1.8-1.9-1.4-3.2zm-104 2.5v-2.2l1.5-1.4 4.3 3.3 0.4 1.8-1.1 2.2-3.3 0.3-0.3-1.1zm74.1-2.5l0.7-1.1 2.2 0.7h2.6l1.4 1.5-2.5 3.6-1.8-1.4-2.6 1.8zm-508.5 1.1l3.2-1.5 2.9 0.7 0.8-1.1h2.2l0.7 2.2 1.4 0.4-0.3 1.1-5.5 1.8-1.4-1.1-0.8 1.8-1.4 0.4-2.6-2.2-0.3-1.1zm477.3 1.1l-1.5-1.1 0.4-1.1h5.4l0.7 1.8 1.9 0.4-0.4 1.8-0.7 1.5-5.1-0.4zm-13.8 0l0.7-1.1 3.3 1.1 1.8-0.7 1.4 1.4v2.9l-0.3 1.1-4.4-1.1h-1.1v-2.5zm-612.5 0.7l1.5-0.7 0.3 1.1 4.8-0.4v1.1l1.8-0.3 0.7 1 0.7 3.3-4 2.2-4.3-4zm77.4 6.2v-2.2l3.6 0.7v1.1l-3.2 0.7z"/>
		<path id="Path 44" class="s44" d="m188.7 478.2l9 0.4v4l2.6 2.9-1.5 1.1-2.1 0.7-2.2-1.5-1.8 1.1-0.4-1.1-5.8-0.7-1.1 3.6 2.2-0.3-0.8 5.4 1.1 0.7-0.3 2.6-2.2 2.2-2.2-4.8-5.4-0.3-0.8-3.7 1.1-2.5-1.4-0.7-0.4-3.7 6.5 0.4 2.2-2.5 2.9-1.1zm-30.9 29.4h2.6l1.1-1.1-0.4 3.3-1.4 1.1h-1.1zm-86.6 14.9l13.1-0.7 0.8-2.6 2.9 0.4h3.6l1.8 2.2h3.3l2.9 4-0.7 3.2-25.5 0.4-4.3-2.6 1.8-1.8zm87.2 34.9h2.6l4.7-2.2h4l8-4h1.8l0.7 6.6-4.3 1.8-2.6 2.9-14.5-3.3zm136.7 85.8l7.2-0.7 2.9 3.6 1.5 1.5v1.8l-1.8 0.4v2.1l-2.6-0.3-0.3 1.1-5.1-1.8-2.2-2.2 0.4-1.5-2.6-2.2 0.4-1z"/>
		<path id="Path 45" class="s45" d="m98.9 486.9l-0.4-3.6 1.1-0.7 2.2 0.3 1.1 3.3z"/>
		<path id="Path 46" class="s46" d="m446.7 411.7l2.6-2.6 1.4 1.5 1.9-1.1 1.4 0.4-3.3 5.8 0.4 1.4 2.6-1.1 0.3 2.2-1.4 0.4v1.4l-4 4.4h-5.1l-3.3-3.3 0.4-1.8zm-28 65.1v-2.2l2.9-0.7 4 1.8 3.3-0.4 5 2.6v3.2l-5.8 6.6-4.7-0.8-1.1 1.5h-5.4l-1.1-1.8 2.9-4zm37.4 5.4l1.8-2.5v-4l1.5-0.7 6.5 0.3 1.9 2.9h2.5l1.8 2.6 4.7 2.9v2.5l-6.1 0.4-4 1.5-3.7-0.8-0.3 1.1-5.9-2.9zm-233.3-4l0.7-1.4 1.8-0.4 4 0.7 1.1 1.8 2.6 0.4 1.8 3.3-0.8 0.3-4.3-2.1-2.2 1zm569.6 8.4l1.8-1.1 1.5 1.1 0.7 5.1 1.5-0.4v-2.1l1.4-0.4 1.1 4.3 3.3-0.7 0.3 1.8-4.3 2.6-1.5-1.1-2.2 3.3-5-0.4v-2.9l0.7-2.2-1.8-0.7 2.5-3.3zm-224.3 3.6l5.5-3.9 2.2 0.3 1.1 1.8 9 0.8 0.4 1.8-3.3-0.4-0.3 1.1-2.6-0.7-8 1.1-0.3-1.1zm-417.3 2.2l2.5-0.4h0.7l1.5 1.8 1.1 4.4-1.5 2.2 0.8 2.5v4l-1.1 3.3h-1.1l-0.8-1.5h-2.5l-2.9 2.9-0.7-2.2-1.9-0.7v-1.4l0.4-2.9 3.3-1.5 1.8-4zm672.1 4.7l11.3-1.1 0.4 1.1-3 1.8-2.9-0.3-1.4 1.4h-4zm-336.3 3.7l2.6 0.7-0.4-2.2h2.2l0.4 1.5 0.7-1.1 1.4 0.7 0.4 2.5h-5.4zm89.4 0.4l2.9-0.7v1.1h1.1l1.8-1.1 2.9 0.7-0.4 3.3-3.6 3.6-0.7-1.8-1.5 0.7-0.7-2.5h-1.1zm-497.6 8.7l-0.4-2.9 4.4-0.4-2.9 4z"/>
		<path id="Path 47" class="s47" d="m426 449.8h4.8l0.3-1.8 2.2-1.1 2.9 4.4 3.6 0.7 2.2 6.6 2.2 2.1h2.9l2.9 1.5 9.5 0.7v12l-1.5 0.7v4l-1.8 2.6-6.9 0.4-4.4 1-1.4-2.5h-9.5v-3.3l-5.1-2.5 1.1-17.5-3.2-3.2zm43.9 10.1l1.5-5 9.8 0.7 6.9 12.3h5.5l2.1-2.9h8.8l2.2 7.7 2.9 2.1 0.3 3 3.3 2.5v6.2l-1.8 1.8h-3.7l-2.5-2.2-3.3 1.1-0.7-1.8-1.5 0.3v2.6l-1.8 0.4-1.8-2.2-2.5 0.3-0.8-1.4-2.9 1.4-3.2-1.1-3.3-4.3-2.9-1.1-1.8-4.4h-2.2l-3.7-3.6-0.3-8-1.5-0.7zm-70.1 12l1.8-1.5v-1.8l2.2-2.9 2.9-1.8 1.1-1.8v-4.8l2.2-1.4 6.5 1.4 1.1 3.7 4 2.1v10.6l-2.9 0.7v2.2h-4.8l-1.4 2.5-2.5 1.5v2.5l-4.4 1.1-1.1-6.5-1.5-1.1-0.3-2.5zm133-9.5l0.4-3.3h3.3l0.7 3.3zm143.2 2.2h4.7l1.8 1.1 0.8 0.7v2.9h-9.1l-1.1-2.2v-2.2zm-443.1 14.6l1.1-1.5h3.2 1.9l2.1 1.8v3l-4 0.7-2.5-0.7zm479.5 4.7v-5.8h5.1l0.7 2.9-4 2.9zm-30.6 2.9l1.9-1.5h4l5.8 1.1 2.5 3.3h1.8v4.4h-8l-0.7-1.5-7.3 0.4zm-43.6 15.2l1.8-1.8 3 1.1v0.7l-1.1 1.5-3.3 0.7-0.7-0.7z"/>
		<path id="Path 48" class="s48" d="m460.9 391l1.1-4.8 1.8-1.4 0.4 2.2zm-7.6 10.1l-0.4-1.8 1.1 0.4-0.4-1.5 1.5-0.7 1.1 0.7-1.8 2.9zm-228 97.4v-1.4h4.4l0.4 0.7v2.6l-4-0.4zm9.4 20.7l1.8-1.1 0.4-2.5 4.4-3.3 1.8 3.6 1.8 2.6 0.7 4.4-4.3 3.2-3.3 4.4-1.1 5.8h-4l-1.8-2.9v-2.9l2.2-2.2 1.4-4.7zm546.7-4l0.4-1.8 2.5-0.8 0.8 3.7zm-333 11.6l1.8-2.9h4l4.4-4.4 5.1 0.8 2.5 0.3 0.4 2.6-2.9 2.9-4.4 1.4zm-90.9 8v-2.9l7.3 0.4v2.5 1.5h-5.8zm-107.6 2.5v-4l6.5 0.4 0.7 8.4-2.5 1.4-2.2-1.4-0.3-2.6zm40.7-2.5l11.6-1.5 0.4 1.8-5.5 4-5.4-1.4-5.1 0.3v-3.6zm84.3 2.2l2.9-0.7-0.7 3.6-2.2-0.7zm443.5 16.7v-2.9h2.2l-0.4 3.6z"/>
		<path id="Path 49" class="s49" d="m458.7 519.6l-0.3-3.6h5.4v4.4zm-208.6 13.8v-10.2h8l0.7 2.9h4.4l6.9 0.4 10.5 7.2 6.2 0.8v3.6l-3.3 0.7-1.8-1.4-4-0.4-7.6-0.7-2.9-4.4h-5.1l-5.5 1.8zm117.8-2.9h5.8l1.5-1.1 13.1 1.5 4 1.4-2.2 2.6h-8.8l-3.2 1.4-2.9 0.8-10.2-2.2v-2.6zm-26.9 0l12.4-0.3 4.3 1.8v2.9l-10.2 1.5-2.1 2.9h-3.7l-3.3-4 2.6-2.6zm-38.5 2.9l0.3-1.4h5.5l2.5 2.9-0.3 2.2h-4l-3.7-1.9zm-70.1 8.8l-0.4-3.3 1.1-2.5h4v2.9z"/>
		<path id="Path 50" class="s50" d="m53.8 504l1.5-1.5 1.8 0.4 1.1-1.1-0.4-1.4 1.5 1.4 4.7 5.8-2.2 1.1-1.1-0.3-1.1 0.3-0.3-1.4-3.7-2.6zm119.2 4.8l2.6-0.4 0.4-2.9h1l7.3 0.3 0.7 1.5-1 0.7 0.3 1.5 4-0.4 1.5 0.7 0.3 2.2-2.9 0.7-1.1 1.9-4.3-1.5h-8.8zm32.8 5.1l0.7-1.8 1.4 1.1 3.7 2.9 3.6-0.7h3.6l0.4 2.1 1.1 0.4-3.6 4h-2.2l-1.5 2.2-1.4-0.4-0.4-2.9-2.2-1.1zm338.1 4l2.9-1.1 4.4 0.4v4.7l-7.3 0.7zm-319.9 5.1l5.1 0.4 1.5-1.5 0.3-2.9 4 0.4v4.4l-1.4 4.7-2.2 2.2v2.9h-8l-0.7-1.5h-3v-5.1zm-150.4 6.6l25.4-0.4 3.6 5.1h1.9l1.8 2.2h5.8l0.7 1.4h3.6v5.8 5.1l-3.2-0.3-0.8-1.8-1.4 0.7-6.2-1.8-1.1-1.9-1.4 0.8-6.6-3.7-3.6-0.3-6.5-4.4-4.8-1.4-1.8-2.2h-2.2l-1.1-2.2-1.4 0.7zm153.4 28.7l2.2-0.7v-5.1h3.6l4.4 4.4v1.4l1.8 5.1-0.4 0.8h-11.6v-1.5z"/>
		<path id="Path 51" class="s51" d="m411.1 432.4l3.3-0.4v12.8l-3.3 0.7v-2.2h-4l-2.5 1.5v-3.7l-3.3-1.4 0.4-5.1h2.2l2.9-2.2zm-174.5 6.9l2.5-0.7 2.9 0.7 2.2 4h5.5l0.7-1.5h11.6l1.8 2.2 2.6 0.4 1.1 1.1 0.3 7.6 4.8 5.5 1.1 3.2 3.2 1.9 0.4 1.8 2.9-0.8 2.2-3.2 4-1.5-0.7-5.8 4.7-6.5h4.7l1.5 2.9h4.3l1.5-1.5v-6.9l1.1-1.8 1.4 1.4h1.8l1.1 2.2h1.5l0.3-1.8h3.7l1.4 1.5v3.2h-1.8v1.9h-3.3l-1.8 2.5 1.5 4 1.8 1.4 0.4 3-1.5 1.8-5.8 2.5-1.1-2.9-1.8-0.7-2.9 2.5v2.6l2.2 1.8-0.8 7.6 0.8 2.2-3.7-0.4-0.3 2.6-1.9 0.3-2.1-1.8v-1.4h-5.1l0.3-3.7-2.1-0.3-1.5-1.8-1.1 1-4-0.3v1.1h-1.4l0.7 4-1.8 0.7-2.2-2.2v-1.4h-1.8l-0.4-1.1h-1.8v1.8l-1.8-0.4v1.5h-1.1l-2.9 0.3-1.1-3.2-2.9-0.4-0.4 1.1h-2.2l-3.2-2.5-3 3.6-4.3-0.4v1.5l-2.6 1.4-1.1-1.4-2.9-0.4-2.1 0.4-1.5 2.5h-3.3v-1.1l-2.1-0.7-0.8-5.1-1.4-0.7v-4.7l8-0.4 1.1-1.8 1.1 0.7 2.1-0.7-0.7-6.9h1.5v-2.2l-1.1-0.4-0.4-2.9-4.4-0.3v1.4h-1.8l-1.1 1.5-1.4-2.9-2.6-0.4-0.3-6.5-1.1-0.8v-1.1l3.6-1 1.8 0.7v-1.1h2.2zm264.3 3.3l-0.4 3.2-2.9-0.3-0.4-1.1-5.8 0.7-0.7-1.1h-2.2l1.5-3.6 2.5 0.7 2.2-0.7 1.8 1.4 2.6 1.5zm-155.6 4.4l3.3-2.2 1.8 2.5h2.5l0.4-2.5 1.1-0.4-1.1-2.5 4.3-1.1 3 1.1-0.4 2.9 2.2 4 2.5 1.8-0.3 1.4h-2.2l-1.5 1.5-1.4 2.9 0.7 1.8h1.4l1.1 2.9-0.3 4.4 2.2 3.3v1.8l-3.3 0.3-1.1 2.2-2.6-2.2-2.9-0.3-2.1 3.2-2.2 0.8-1.5-3.3-4.7-0.4v-4.3l3.3-0.4 1.8-2.5h2.9l2.5 1.8 3.7-0.7 0.3-1.5h1.1v-2.2l-2.5-2.2-0.4-2.9-2.2-2.5h-2.9v-2.2l-2.5-2.5h-2.6v1.1h-1.1zm24.8 8l-1.1-0.4v-6.6l1.1-0.3v-3.3l2.5-1.1v-1.1l1.8 0.8 1.8-0.8 1.1 1.1-0.7 9.1-3.6 0.4zm-242.1 18.1l0.3-2.5 1.1-1.5h1.9v-1.4h3.2l1.5 1.8 4.7-1.1v2.2l-1.8 1.8v2.9l-8.4-0.7-9.8 3.3-1.4-1.8v-3.3h1.4l0.7-1.8 1.5-0.4 1.4 2.2 3.3 0.3zm27.6 6.6l-1-1.5-3 0.4-0.3-2.5-1.1-0.4 0.7-2.2h2.9l0.4-1.4h5.4l0.8 2.9 1.8 0.3 0.7 2.6v1.8l-1.4 1.4-1.1-1.4-2.6 0.7-0.7-1.4zm-46.2-4.8l3.7-1.4-0.4 4.7h-1.4zm98.5 23.6l1.4-3.6h1.1v1.8l3.3 0.4v1.4l-0.8 1.5h-3.9zm554.3 1.1h4.4l0.3 4-0.7 1.4-3.6-1.1h-1.1zm-695.1 1.1l1.5 1.8 3.3 1.1 2.9-1.4h6.2l1.4-2.2 0.7 0.4 1.9 1.1v2.9l-2.2 2.1h-0.4l-4.3 0.4 0.3 2.9-0.7 1.8h-1.1l-3.6-2.1-1.5-2.6-5.4-4.4-0.4-1.4zm624.5 4l0.7-1.1 4-0.7 1.5 1.1-0.8 5.4h-4.3v-1.1h-1.5zm-25.1 4l-2.1 0.8v-1.9l1.4-1.1zm-60.7 0.8l2.2-1.5 1.8 1.5-0.7 1.4-2.2 0.8-1.1-0.4z"/>
		<path id="Path 52" class="s52" d="m764.8 491.6l12.7 0.8 0.8-1.1h2.1l2.2 1.8 1.1 0.7v3.7l-1.4 0.3-9.9 2.2-1.8 1.1-4-1.5h-4.3l-17.1 0.4-2.9 0.4 0.7-6.2 2.5-1.1 9.5 0.7 9.1-0.7zm24 2.5l1.1-1.4 1.8 0.7-0.7 2.2zm-89.8 0.4l4.3-0.4 0.4-1.1 2.9 0.4 1.8 1.8-0.7 1.8h-6.9zm26.9 0.4l2.9-1.9 2.5 1.5-1.4 1.5zm-495.8 2.9l4-0.8 0.7 5.5-0.7 2.5-3.3-2.5-0.7-2.2zm111.9 4l12.4-0.4 1.4 1.1-0.3 1.8-1.5 0.4-1.1-1.1-0.7 1.8-1.8-0.3-1.1-1.8h-1.1v1.4l-1.8-0.7v-1.5l-2.9 0.8zm87.6-0.4l3.3-0.4 4.3 1.8-1.1 3.7-2.5-1.1-5.1 1.4-0.4-2.1 1.5-1.5zm34.2 14.6l1.4-2.6 4 1.1 2.2 3.3-5.1 2.9-2.5-0.4z"/>
		<path id="Path 53" class="s53" d="m776.8 468l6.9-0.7v1.8l-0.3 1.1-1.9-1.5-4.3 0.8zm-559.1 33l0.7-1 1.5 1.4 1.4-0.4 0.8 1.5-1.1 2.5zm7.2 2.2l1.1-3.2 4 0.3 0.8 2.2 3.2 2.5 3.7 2.6 3.6 4.7-4.4 3.3-0.3 2.5-1.8 1.1-4-0.3-2.9-3v-2.9l0.3-5.8zm507.1 5.5h2.5l0.4-1.8 1.1 0.7 1.1 4.7-3.6 2.2-0.4-1.5-3.3-0.3-0.7-1.5v-0.3l1.4-2.6zm23.3 3.3l0.4-1.5 1.4 1.8 1.1-0.7-0.7-2.2 2.9 0.8 1.8-0.4 0.7-1.5v2.6l1.1 0.7-3.6 2.9zm-565.6-2.2l3.3-1 0.3 1 3.3 1.1-1.1 1.1h-5.4zm7.6 1.1l0.7-1.8 0.4 1.8zm10.5 2.2l5.5-1.8 0.3 1.4h1.5v2.6l-3.6 0.7zm415.4-1.4l5.9-0.4 1.8 1.4 0.3-1h1.1l-0.3 3.2h-1.9v1.1h-6.5l-1.8-1.1zm-106.5 1.8l3.6-1.4 2.2 0.7 3.3 1.8h2.5l1.1-1.4 4.7 2.5 0.4 2.6-4 1.4h-4.4l-0.7-1.1-13.8 0.4v-4.4zm-24 0.4l4 0.4 2.2-1.1 1.4 2.9-1.4 1.8-3.7 0.4-2.1 3.6-8.4 1.4h-10.9v-5l1.5-1.5h2.1l1.1 0.4 2.6-1.9 1.8 1.5 1.8-2.9 4.4 1.1zm84.7 1.4l0.7-0.7 3.6 1.8v1.1l-4-0.7z"/>
		<path id="Path 54" class="s54" d="m433.3 497.8l11.6 2.9 2.6-1.4 0.3 2.9 0.8-0.4 0.3 4.4h-3.2l-1.5 1.1-8-0.8 1.1-3.6-4.4-1.8-3.2 0.4-1.5-3zm-39.6 7l1.8-1.5 2.9 2.5v-2.9h1.1l2.2 1.5h2.9l1.1-1.1 0.7 1.8 1.8-1.4 1.1 2.1h1.5l-1.1 0.8v2.2l2.2 1.4-2.6 0.7v4.8l-2.2-0.8-0.7 2.6-1.8-0.4-1.1-1.8-5.1 0.7-2.2-0.3-0.7-1.9h-2.2v-4zm51.6 10.6l1.5-2.2h2.5l2.9-3.6h1.1l1.9-3.7h4.3l1.5 0.4v5.4h-2.9l-0.8 3.7-1.8 1.8h-1.1l-0.3-1.5-7.7 0.8zm-30.9-8.4l2.9 0.4 2.9 0.3v3.3 1.8l-2.9 0.8-2.9-2.6zm69.8 4.7l1.5 1.1 3.6-2.5h3.3l0.3 3.6-3.6 1.1-4.3-1.1-1.9 2.9-1.8-1.4-2.5 1.8-1.1-0.4-0.7-3.6h1.4l0.7-1.8zm-59.2 3.2l1.1-2.5h4.7l2.2 2.2-1.1 2.2-3.3 0.7-1.1-1.5h-2.2z"/>
		<path id="Path 55" class="s55" d="m367.9 530.5v-4.3h7.2v3.2l-1.4 1.1zm-40.7-1.4h4l1.1-1.5h6.5l2.2 0.8v2.1 2.2l-2.6 2.6-5.4-0.4-2.6-1.5-2.1 2.2-1.1-1.8zm-36.4 5.8v-5.1l1.1-0.7 8.7 0.7 2.2 2.2-0.3 1.5z"/>
		<path id="Path 56" class="s56" d="m182.8 468.4l-1.8-4-2.2-1.5 0.8-6.5 4 0.7 0.3 5.1 1.1 1.1 1.5-0.4 1.1 1.8-2.6 3.7zm-27.2-9.1l4-1.1 1.8 1.8-0.4 4-1.1 1.1-4-0.4-1.1-1.8z"/>
		<path id="Path 57" class="s57" d="m227.6 481.8l2.1-1.1 4.4 2.2v4h-7.3zm59.6 1.5l5.5 0.3 1.8-1.4 1.8 1.1 6.6-1.1 3.2 1.1 0.8-1.1h7.6l2.9 0.7 0.7 1.5 4.8-0.8 0.7 2.2-1.5 1.8-2.5 0.8-6.5-0.8-1.1-1.4h-4.8l-3.2 2.2h-4.8l-2.1-1.5h-4l-3 1.5-4.3-1.1v-2.2zm-22.2 1.4l0.7-1.1 3.3 0.4v2.9h-5.1zm228.7 2.2l2.5-0.4 1.8 2.2-0.7 1.1h-4.4zm179.6 6.2l2.6-0.7 1.8 2.5v5.8l-4.4 1.5-1.4-0.8v-4.7l1-0.7zm66.9 0.4l1.8-0.8 1.1 1.5-0.7 6.2-3.6 0.3v-5.8-1.1zm-39.3 7.7v-4h6.9l0.4 4-1.5 0.7-2.1-0.7-1.1 1-0.8-0.7-0.3-0.3zm-559.8 8.3l2.9-0.7v2.5l-1.1 1.1h-1.1z"/>
		<path id="Path 58" class="s58" d="m404.6 517.1l1.8 0.3 0.7-2.5 2.2 0.7 1.5 1.8 2.9-1.4h3.2l1.5 1.4h6.2l0.7-1.4h2.2l1.1 1.4 3.2-0.7 2.2 2.2h2.9l3.7-3.3 4.7-0.3 1.1 1.1 7.6-0.8 0.4 1.5h1.1l1.8-1.8 1.1 0.7 0.3 3.6-4.3 4.4h-4l-1.8 2.9-9.1 0.7-0.8-1.4h-3.6l-1.1 1.4-5.8-0.7-3.6 1.1-3.7-1.1-4 1.5-4.3-0.8-4 2.9-3.3-0.7-3.3 2.2-9.8 0.3-4-1.4-13.1-1.5v-3.2l6.2-1.5 14.9 0.7 2.6-2.1 0.3-4.4 4-0.4zm-146.5 6.2l0.4-1.4h4.7v4.3h-4.3zm95.2 6.9v-5.4h11.6l2.9 1.4v4.4l-2.9 1.8-7.2-0.4zm-45.1 1.9l0.4-2.9h18.5v4.7l-9.1 2.2-3.3-1.5-4 0.4z"/>
		<path id="Path 59" class="s59" d="m281.4 481.8l5.4 0.4 0.4 1.1-1.5 1.8v2.2l-9.1 0.3-1.4 1.5-0.8-1.5-5.4-0.7v-2.9l2.9-0.4 0.7-1 5.1 0.7 0.7-1.1zm54.9 1.8l7.3-0.7 5.8 2.5 6.2 0.4 6.2-0.7 0.3-1.5 2.2 0.7 1.8-1.1 5.5 1.1 4.4-0.7 1.4 1.1 3.6-2.9 1.1 1.1 1.1 4.3-53-0.3-6.6-1.1-0.7-2.2h1.1l7.6-0.7zm-200.6 19.2l2.9-2.1h1.1l0.3 4-0.3 1.4-2.6-0.3zm12 8.7l2.9-2.9h2.6l0.7 1.4v2.2l-2.9 1.1-0.8 2.2-1.4-0.4-1.1-2.5z"/>
		<path id="Path 60" class="s60" d="m259.2 500.7h4l-0.4 2.9-5.1 1.5-0.3-2.2zm87.2 3.3l1.8 0.7v-1.4h1.1l1.1 1.8v4.7l-3.6 0.7-2.6-1.1-1.1-0.7 1.8-4zm-18.1 4l-0.4-3.6 5.1 1.1 0.7 2.9-4.7 0.7z"/>
		<path id="Path 61" class="s61" d="m120.7 468l7.3-2.2 1 0.8 1.1-1.5 1.1 0.7 1.1-1.4 1.1 0.7 2.2-1.8 4-0.7 2.2 0.3-1.1 5.5-4.7 1.1-1.5-1.8h-3.3v1.4h-1.8l-1.1 1.5-0.3 2.5h-0.4l-3.3-0.4-1.4-2.1-1.5 0.3zm88.3 26.9l0.8-2.2h1.4l1.8 1.5 0.8 2.9-3.3-0.4v-1.8h-1.1zm-47.3 0.7l1.5 2.2 2.9 0.4 2.2-2.2h3.3l1.4-1.4 1.5 0.7-0.8 1.8 2.6 0.7 0.4 1.8-1.5 1.1v3.7l-2.9 1.1-1.1 2.5-1.8 1.1-0.4-2.2h-1.1l-0.7 2.2h-1.8l-3.3-5.1h-2.2v-2.5h-1.4v-1.9zm23.6 3.7l2.2-2.2h2.5l1.1 2.9 1.8-1.1 2.9 1.1 2.2-1.1v-1.1l3.7 0.4v1.4h1.1l-1.9 2.6 1.5 7.3-1.1 1.4-1.5-2.2-1.8 0.4-0.7 1.8h-0.7l-3.3-1.1-0.4-1.1-3.2 1.1-1.5-0.7-0.3-2.6-3-2.5 0.4-2.2 2.6-0.3-0.4-1.1-2.2 0.3zm453.3 5.1l3.3-0.7 1.1-1.5 1.8 0.4 2.9 3.6-0.7 4.4-1.5-0.7-2.9 0.7-4.4-3.3zm132.3-1.1l1.9 1.1 2.1-1.4 4.4 1.1-1.4 5.4 1.4 1.5-0.4 3.2-3.2-2.9-0.8-2.9-3.2 0.4-1.5-1.1-0.3-3.3zm-115.3 7.7l-2.9-2.9 2.9-2.2 0.8-2.2 2.9 0.7 1.1-1.1 5.4 2.6v0.7l-1.4 1.1v1.8l2.1-0.7v0.7l-0.7 1.1-4.4 0.7zm-58.5 3.3l1.1-3.3h1.1l1.8-2.9h3.3l1.4 1.5v1.8l1.1 0.4-1.8 0.7-0.3 2.9-1.1 0.4v-2.6l-2.2 1.5-1.1-1.9-0.4 0.8zm-9.1-2.9l1.9-2.2h2.1l0.4 0.3 0.4 3-1.1 0.7-2.2 0.7z"/>
		<path id="Path 62" class="s62" d="m426.8 430.6l0.7-0.4 4.3 0.7v0.8 5.1l-1 0.7h-3.7l-1.4-1.5-0.4-3.6zm-24.7 0.7h1.8v1.1l0.4-1.1 2.9-0.3 4 0.7v0.7h-4.4l-2.9 2.2h-2.2l-0.3 5.1-2.2 2.2h-5.8l-1.5-3.3-5.1-1.1v-4l2.9-2.2h8.4l3.6 0.4zm-118.5 1.1l0.7 2.2 5.1 1.4 3.3-4.7h5.1l4.7 4.7 1.1 4.4-1.1 1.8v6.9l-1.4 1.4h-4.4l-1.5-2.9h-4.7l-4.7 6.6 0.7 5.8-4 1.5-2.2 3.2-2.9 0.8-0.3-1.9-3.3-1.8-1.1-3.3-4.7-5.4-0.4-7.6-1.1-1.1-2.5-0.4-1.8-2.2h-11.7l-0.7 1.5h-5.4l-2.2-4 3.6-0.7 0.7 0.7 0.4-1.8 3.3-0.8 2.9-1.4 1.8 1.1 4.7-1.8 12-1.5 3.3 0.4 2.2-1.1zm44.3 10.5l3.7 0.4 0.7-1.8 2.2 0.3 1.4 0.4 0.7 1.8 3.3 0.4 1.5 2.5-1.8 1.5v5.8l-6.6 1.4-0.7-1.4-3.7-0.7zm-119.9 4l9.4-1.5 4.4-3.3 1.1 1.1 5.8-0.3 1.1 0.7 0.4 6.5 2.5 0.4 1.5 2.9 0.3 3.6 2.2 2.2v2.2l2.2 1.8-1.1 1.8-8 0.4v4.7l1.5 0.7 0.7 5.1 2.2 0.8v1l-1.1 1.5-2.6-0.4-1.1-1.8-4-0.7-0.7-1.8-3.3-0.4-6.1-3.3v-6.5l-1.5-4.7-1.4-1.8h-2.6l-1.8 1.4-3.6-2.2v-3.2l3.6-3.7zm-94.9 26.6l2.2-2.2 4 1.4v3.3l1.4 1.8-2.9 2.2-1-1.8h-4zm124.3 4.3l1.4-2.5 2.2-0.4 2.9 0.4 1.1 1.5-0.4 1h-2.1l-1.1 1.9-2.2-1.9zm548.2 9.1v-5.8l4 1.5 2.1 4-0.3 2.2-2.2-1.9zm-684.1 10.6l1.8-1.8v-1.9l3.3-0.3 4 11.6 1.8 1.1-1.8-6.2 1.1-2.2 2.1 4.8 4 7.6-1.4 0.4-1.1-2.2-1.8-0.4-0.4 1.5 1.5 0.7 0.3 2.2h-1.8l-3.3-2.9-0.7-2.6h-2.2l-1.1-1.1-1.1-4-2.5-1.4zm-18.2 2.9l1.8-1.1 1.5-3.6 3.3 2.1 2.9-1.8 0.3-1.4 3.7 1.1 0.7-1.1 1.1 0.3-0.4 2.6 0.4 1.4-1.1 1.1 1.8 2.2-3.3 1.5-1 2.1-0.4-1h-1.8l-7.7-0.4v-2.9zm689.2-0.4l9.9-2.2v1.9l1.8 2.1-0.4 2.9 4 1.1 0.7 4.8-2.5 0.3-0.4 1.1-6.1-1.1-1.5-1.4 1.5-5.5-4.4-1.1zm-616.5 2.9l-0.7-2.5 1.4-2.2 1.8 1.5v1.8l-1.1 1.8zm47.3-3.3l4.7-1.1 1.1 1.5h4l0.7-1.5 3.3 2.6-1.4 2.2 1 4.7 0.4 2.5-1.1 0.4-0.7-1.1-1.5 0.4-1.4-0.4-0.7-2.2h-2.2l-0.8 1.1-2.9-0.7-3.2 1.4-1.5-7.2 1.8-2.6zm275.2 2.6l1.1-2.9 1.1 0.7-1.1 1.4 2.2 1.9 1.1-0.8v-2.5l0.7 0.4 3.3 0.3 1.8 2.2h5.4l5.5 0.7 1.1-1.8 1.8 0.7 1.1-1.4 2.2 0.7 1.8 1.1 1.4-0.7v1.4l3.7-1.8 2.9 1.5 4.3 0.7 1.9 1.8h3.6l1.1-1.1 1.4 1.5 0.8 3.6h-3.3l-0.4 2.5-2.1 0.4-2.2-0.7-3.7 1.4 0.8-2.5h1.8l-0.4-1.5-2.9 0.8-2.5-1.9-1.9 1.9-1.4-1.9-0.7 0.8-1.5-1.1-4 1.1-1.4-1.5h-1.9l-1.8 2.6h-2.2v-2.6l-4 0.4-0.3 2.2h-3.3l-3.6 2.5-1.5-1.1v-5.4l-5.1-1.1zm288.7 1.4l-0.4-4 4 1.5 0.4 2.2-1.1 1.1zm-24.8-3.3l3-0.4 1.4 4.4-0.7 1.4h-4l-1.1 2.6-1.5 2.2-0.3-3.3-2.9 0.4-1.1-0.8-0.4 1.8h-2.5l-0.8-2.5-3.2-0.7 0.3-4 2.6-0.8 3.6 0.8 1.1-1.1 2.9 0.3zm-38.9 1.9l1.1-1.1 2.2 0.7 1.4-0.7 3.3 1.1 1.8 0.7 0.8 5.1-2.2-0.7-0.8 1-1.8-0.7v1.1l-4.3 0.7-2.2-1.1-3.3 1.9-2.2-0.8 0.8-5.4zm-30.2 1.1l4.7 2.5 0.4-2.2 1.8-1.4 0.7 0.7v1.8h2.9l0.8 1.1h1.4l2.9-3.3 2.9 2.2-0.3 3.7h1.4v1.1l-6.2 1-1.8-0.3-0.7-1.8h-5.5l-0.3 1.1 1.4 1-2.5 0.4-2.2-1.8-1.8 2.2-1.5-1.5-1.8 0.7-3.3-1v-0.8l-0.7-2.2v-0.7l0.4-3.3h1.4l2.9 2.6zm-122.1 1.1l4.7-0.4v3.3l2.2 0.7 1.5 2.9-2.6 1.5-0.3-1.8h-1.1l-1.5 2.9-1.4-1.5-2.9 0.4 1 2.2-2.5-0.8-1.5 1.5-2.5-0.7-3.6 0.7-0.8-1.1-1.8 1.1-1.4-0.7-1.1-1.9-4-0.3-0.7-4 2.1-2.9h1.5l1.1 1.8h4.3v-1.8l2.2-0.4 4.7-0.4 3.7 1.1zm80.3 7.3l-1.8-1.1 1.5-6.9 2.9 0.7 4-0.7 0.7 0.7-0.4 2.9-1.4 1.5v2.2l-2.9-0.4-1.5 1.1zm-578-0.4l-1.8-2.1v-2.6l2.2-2.5 1.8 0.7 0.4 3.6-1.1 2.2zm509.3-4.3l1.1-0.4v-1.5l2.9-0.7 0.3 1.1 3.3-0.4 2.2 1.9h2.5l1.8-2.6h1.1l0.8 2.6 1.4-0.8 0.7 1.8 3.7-3.6 1.8 0.7v2.2l3.6 1.8-1.8 2.2-1.8 1.1-1.5-1.4-0.3 1.8-4.4 0.3-1.8 1.5-0.7 0.7-0.4-2.2h-2.5l-0.4 1.1-2.2-0.7-0.7 1.1-5.1-1.1-0.4 1.1-1.8-1.8-1.4-1.1zm29.8 2.5l3.2-0.3 1.5-2.2 4 1.1-1.8 2.9h-1.1l-1.1 3.2-0.7-0.7-1.1 1.1-1.8-0.4-0.8-1.8z"/>
		<path id="Path 63" class="s63" d="m414.4 432l1.1-0.3 9.8 0.7 0.4 3.6 1.4 1.5h3.7l1 4.3 2.2 3-0.7 2.1-2.2 1.1-0.3 1.8h-4.8l-1.1-3.2-9.8-0.4-0.7-1.4zm-206.5 27.2l1.8-1.4h2.6l1.4 1.8 1.5 4.7v6.5h-1.5z"/>
		<path id="Path 64" class="s64" d="m375.5 435.3l-0.4-1.1 1.9-1.8 3.6 5.8 2.2-1.4 2.5 1-0.7 4-3.3 1.5h-4l-1.1-1.1 0.4-5.1zm-5.5 19.6l2.9-2.1 3.7-0.4 1.4 1.5 0.4 2.9-0.7 2.1-2.9 1.1-0.8 1.5-1.8-1.5zm-253 42.2l3.7-0.7 0.7 3.6-0.4 1.1-2.2 0.4-2.5-0.8z"/>
		<path id="Path 65" class="s65" d="m651 461.1l10.6 1.1-5.5 0.7-5.1-1.4zm-478 25.8l-3.6-0.7-0.7-1.1v-3.7l3.6-2.2 4 2.6v1.8l0.4 3.6zm40.7 10.2l-0.8-2.9 2.2 0.7 0.8 0.8 2.5 4.3-0.7 1.1h-0.8l-3.2-2.5zm202.1 2.5v-2.5h7.6l-0.3 0.7v1.5l-1.5 0.7-5.1 0.3zm-194.5-1.8l4 0.8 0.8 1.4-1.1 3.3-2.9-0.7-0.8-1.5zm-4.7 10.2l4.7-1.5 1.5 2.6v4l-1.1 0.7v2.2l-1.5 1.8-1-0.4-0.4-2.2h-3.6v-2.5l0.7-1.8 1.1-0.4zm317.7 7.7l2.2-1.1 1.4 0.7v1.8l-3.3 1.1z"/>
		<path id="Path 66" class="s66" d="m275.5 500l4.8-1.1 5.1 2.6-4 2.5v2.5l-1.1 3.7h-7.3l-1.1-1.5h-3.6l-2.9-2.2v-2.1l2.1-1.1v-1.8zm16 8.7l2.2-1.5h5.5v2.9l-2.9 3.3-2.2 0.4-2.6-1.9zm16 3.7l1.1-3.7 8-1.4 6.2 0.4 0.7 1 4.7-0.7 0.8 1.1 4.7-0.7 9.5 0.3 1 0.8-1 2.2h-3l-1 1.4h-23.3l-3.3 2.9h-5.1z"/>
		<path id="Path 67" class="s67" d="m246.8 437.5l2.2-1.5 1.1 0.8zm-11.6 1.8l6.1-2.2 5.5 0.4-0.4 1.8-0.7-0.8-3.6 0.8-2.9-0.8-2.6 0.8zm-95.6 23.2l9.8-2.5-4 2.9h-3.6zm543.1 3.3l3.2-0.4 2.2 1.1h-4.7zm6.2 0.7l2.2-0.7 2.1 1.1zm-601.6 13.4l4-2.9 3.7 0.4 0.7-1.8 1.1 0.3 2.9-2.1 4.7-0.8 0.4 0.8 0.7-1.9 1.8 1.1-0.3-1.1 2.1-0.7 2.2 1.1 0.4-1.8 1.1 1.1 1.1-1.5 1.4 0.7v0.4l-2.2 2.2-3.6 1.4-2.5 0.4h-3.3l-4 2.2-12 2.9zm85.8 14.5v-7.6l3.6 0.4 1.5 0.7-1.1 2.5 0.7 3.7-0.4 2.2 1.1 1.8-1.1 0.3 0.8 4.4h-1.5l0.4 2.5h-1.1l-0.4 3-2.5 0.3-1.8-0.7 1.1-2.6 2.9-1v-3.7l1.4-1.1-0.3-1.8-2.6-0.7 0.7-1.8zm-115.2 5.8l-1.1-2.6 2.6-3.2 1.1 1.1-1.1 6.1zm126.5 5.5l0.7-1.8 2.9 2.5 0.4 2.6-4 0.3-0.4-1.4 1.1-0.8zm13.8 3.3l1.8-0.4 1.5 2.2 0.3 1.1-2.1 0.7-1.1-1.8zm15.6 1.1l1.5-0.3 0.7 1-0.7 1.9h-1.5l-0.4-1.5zm-92.3 4.7v-2.5l2.2 0.4 0.7 1 6.6 1.5v2.2l-3.7 0.3-1.8-1.8zm163.6 123.6l1.1-1.1 1.1 1.5 3.6 4.3 2.2 0.8-0.4 1.1 2.6 2.1-0.4 1.5h-1.1l-0.7-2.2-1.5-0.4z"/>
		<path id="Path 68" class="s68" d="m116.3 548.7v-5.1h7.7l4 3.3v5.1zm57 13.8l2.6-2.9 4.3-1.8 1.5 0.3v5.5z"/>
		<path id="Path 69" class="s69" d="m460.9 391l3.3-4h1.4v2.1l1.5 1.1-1.1 4-4 5.1 0.7 2.6 2.9-1.5 2.2 1.5-3.6 4.3-6.5 6.2-0.8-2.9-2.9 0.4-1.4-0.4v-1.1l-1.9-0.7 0.4-1.8 1.8-1.9 0.4-2.9h1.1l1.8-2.9 4.4-6.2zm-340.3 86.9l9.8-3.3 8.4 0.8 2.5 1.8-0.7 5.1-0.4 3.3 0.8 1.8h1.1l0.7 4.7h-2.2l-4.3-5.1-7.3-0.4-3.3 2.2 0.4 2.2 2.9 3.3h-1.8l0.7-1.1-2.6-2.6h-1.4l-1.5 1.9-0.7-0.4 1.5-6.9-2.9-1.5-4.8 3.3-2.5 0.4 1.4-4 3.3-3.3zm662 15.3l0.3-1.9h1.5l2.9 3-0.4 3.2 1.1-0.3 0.7-2.9 2.2 1.4v2.9h-4.3-2.2l-0.8-1.1v-3.6z"/>
		<path id="Path 70" class="s70" d="m280.3 510.2l1.1-3.7 3.6 0.4 1.1 2.6zm13.8 3.6l2.2-0.4 2.9-3.2h3.6l2.6 2.1h2.1v3.7l-2.9 1.8-0.3 2.5h-6.6l-1.4-3.2-1.8-0.8z"/>
		<path id="Path 71" class="s71" d="m355.9 502.5l5.1 0.4 0.7 1.1 10.5 0.4 1.8 0.3-1.8 0.8v4.7l-6.5 0.7-5.5-0.4-0.7-1-0.7-3-1.8 0.4v-1.8l-1.5-0.7zm-121.8 2.5l0.8-2.5 8 0.3 1.4 4.4v8l-1.1 0.7-1.8-3.6-3.6-4.7zm175.2 10.5v-4.7l2.5-0.8 2.6 0.8 2.9 2.5-0.4 2.6h-3.3l-2.9 1.4zm48-0.4l0.7-3.6h2.9 2.2l2.2 1.8-1.4 2.6h-5.5zm12-0.8l1.5-1.4h6.1l0.8 3.6h-2.2l-1.5 1.5-2.5-0.4zm-70.9 1.5l5.1-0.8 1.1 1.9-1.5 1.4-4 0.4zm-153.4 2.5l5.1 0.4-0.3 4.3-4-0.3z"/>
		<path id="Path 72" class="s72" d="m110.1 485.8l-2.9-0.7 0.8-2.9 2.5 1.1zm301.4 20h1.4v1.4l1.5-0.3v4l-2.6-0.8-2.2-1.4v-2.2l1.1-0.7z"/>
		<path id="Path 73" class="s73" d="m177 505.5l-0.3-2.6h1.4l-0.7-4.4 1.1-0.3-1.1-1.8 0.4-2.2 5.4 0.3 2.2 4.8v1.4l2.2-0.3 0.3 1.1-2.5 0.3-0.4 2.2-0.7 1.8zm49.1 12l1.8-1.4 2.9 2.9-0.4 2.9-1.4 1.4-5.1-0.3zm-1.8 54.1l2.5-7.6h11.6l2.6 4.7 3.3 2.6 0.7 2.5-0.4 1.5z"/>
		<path id="Path 74" class="s74" d="m448.6 501.8l1.4-2.5 1.5 0.3v1.1l1.4-1.4 4.4 0.3-0.4 4.4-1.8 0.4v1.4l-1.8 3.7h-1.1l-2.9 3.6h-2.6l-1.4 2.2-4.7 0.3v-2.2h-1.9l-0.7 1.5-2.2-1.1-2.9 0.7-2.1-2.1h-4.8l-1.1-1.5h-4.7v-3.3l1.8-2.1 6.2-0.8 0.4 2.2 5.1-1.4 2.5 1 8 0.8 1.5-1.1h3.2zm12-1.1l2.9-0.4 0.4-1.1 4.4 1.9 1.4-0.4 2.2 1.8h1.8l0.4-1.1 4.3 0.7 0.8 3 5.1 1v5.5l-5.1-0.4-0.8 1.8h-1.4-6.2l-1.5 1.5-4-1.1-2.1-1.8h-2.2v-5.5l-1.5-0.3-0.7-3.3zm-74.9 6.5l1.8-2.9 2.9 1.5 0.4-1.8 2.9 0.7-0.3 5.1-5.1-0.4zm106.8 2.9l0.4-2.1 4-0.4v2.5h2.2v2.9l-2.2 1.1-4-0.3zm-415.8 1.4h1l0.8-1.8 1.1 0.7 2.9 4.8v1.1h-1.5z"/>
		<path id="Path 75" class="s75" d="m326.4 502.9l-0.3-1.1 2.5-1.1 5.5 0.8 1.8 1.8h1.4l0.8-1.8 1.4 2.5 0.7-0.7h1.5l0.4-1.5 1.4 1.5 2.9-0.8v1.5l-1.4 0.7-1.9 4-9.4-0.3-0.7-2.9-5.1-1.1zm24 2.1l1.8 0.4 0.7-1.8 1.1 1.1 1.5-0.4 1.4 0.7v1.9l1.8-0.4 0.8 2.9-2.6 0.7-2.9-0.7-0.7 1.1-2.9-0.7zm28.3-0.4l0.4 1.1 1.8-1.5 2.9 1.1 1.1-1.4 0.7 3.2 2.6 2.2 5.1 0.4v4l-1.1 1.4-4.4 0.4 0.7-3.6-1.1-1.1-1.4 0.3-1.5 3.3-4.3 0.7-0.7-5-4.4-0.8-2.9 0.8v-4.8l1.8-0.7 1.5 0.7zm41.4 8v-1.8h4.7l1.1 1.5-1.1 2.5-1.8-1.4-0.4 1.8-2.1 0.3z"/>
		<path id="Path 76" class="s76" d="m262.8 503.6l0.4-2.9 4.3 0.8v1.8l-2.1 1.1v2.1l-2.2-0.3zm23.6-1.5l4.7-0.3 0.4 1.4h1.4l3-2.2v1.9l2.5 1h1.1v-1.4l8 1.1 1.1-2.6h1.4l1.1 1.9 5.1 1 3.3-0.7 1.8-2.5 4 0.3v1.5l1.1 0.4 1.4 1.4 0.4 3.6-4.7 0.8-0.7-1.1-6.2-0.4-8 1.5-1.1 3.6h-2.2l-2.5-2.2h-3.7v-2.9h-5.4l-2.2 1.5-3.3-1.1-2.2 1.8-1-2.5-3.7-0.4v-2.6l4-2.5z"/>
		<path id="Path 77" class="s77" d="m211.9 569.4l0.4-5.1 4.3-1.8h10.2v1.5l-2.5 7.6-8.7-1.4-0.8-1.1z"/>
		<path id="Path 78" class="s78" d="m397.3 486.9l2.2-1.8 4.7 0.4v2.9l-6.2 0.3zm82.2 12.4l1.4-0.4 0.4 1.1 2.2 0.4-0.7-0.4v2.6l-1.1 0.7-2.2-1.8 1.1-1.5zm-197.4 135.6l1.1-0.7 2.9 3.2-1.1 1.1z"/>
		<path id="Path 80" class="s79" d="m249 485.8l5.5-0.7 2.5 2.9-2.9 1.8h-2.9l-3.3-1.1-0.4-1.1zm237.8 0l3.2 1.1 3-1.4 0.7 1.4-0.7 2.9-1.5 1.5-9.1-1.5 0.7-1.8z"/>
		<path id="Path 81" class="s80" d="m634 632.7l-0.4-2.2 1.4-0.7 0.4-2.9h1.5v-6.6l1 0.4v4.7l-2.1 6.5zm-0.8 4.8l0.8-4.8 0.3 3.3zm-33.8 15.6l1.1-0.7 4.4 2.2 1.4-0.4 0.4 1.1-4-0.3-1.1-1.5z"/>
		<path id="Path 84" class="s10" d="m876.4 528.4l4.7 0.3 1.5 2.2 0.4 3.6 1.8 1.8v3.7l8.3 2.5 2.6 3.3v2.9l-2.2 3.6h-2.6l-1-1.4-5.1-1.1-3.7-2.9-2.1-4.4-3.3-1.1-0.4-11.6zm-23.2 19.6h4.7l4.3 1.9 0.8 1.8 3.2 1.1 3.3 5h1.5l2.1 2.2-0.3 4.4-1.8 1.8h-2.6l-6.9-5.1h-5.8l-2.2-4-2.9-1.8 0.4-5.4z"/>
		<path id="Path 85" class="s18" d="m877.5 552.3l3.6 1.9v1.8l-1.4 1.4h-2.2l-0.7-2.2z"/>
		<path id="Path 86" class="s23" d="m127.6 473.1h0.4v0.4h-0.4z"/>
		<path id="Path 87" class="s31" d="m127.2 502.5h0.4v0.4h-0.4z"/>
		<path id="Path 88" class="s62" d="m702.3 501.1h0.4v0.4h-0.4z"/>
		<path id="Path 89" class="s75" d="m339.9 502.9h0.3v0.4h-0.3z"/>
	</g>
</svg>