<svg version="1.2" xmlns="http://www.w3.org/2000/svg" viewBox="0 0 1000 1000" width="1000" height="1000">
	<title>Coregonus_zenithicus</title>
	<style>
		.s0 { opacity: .1;fill: #cdcbc7 } 
		.s1 { opacity: .9;fill: #a4a7a5 } 
		.s2 { opacity: .3;fill: #f5f3f4 } 
		.s3 { opacity: .1;fill: #f8f5f8 } 
		.s4 { opacity: .7;fill: #e9e8e7 } 
		.s5 { opacity: .3;fill: #e0dedd } 
		.s6 { opacity: .1;fill: #808178 } 
		.s7 { fill: #353b32 } 
		.s8 { opacity: .7;fill: #90918b } 
		.s9 { opacity: .1;fill: #acaca6 } 
		.s10 { opacity: .5;fill: #d1d0cd } 
		.s11 { opacity: .3;fill: #aeaea9 } 
		.s12 { opacity: .2;fill: #8f8f87 } 
		.s13 { opacity: .3;fill: #cbcac6 } 
		.s14 { opacity: .5;fill: #8e8e89 } 
		.s15 { opacity: .2;fill: #5f6159 } 
		.s16 { opacity: .6;fill: #a1a5a2 } 
		.s17 { opacity: .6;fill: #706f61 } 
		.s18 { opacity: 1;fill: #787d76 } 
		.s19 { fill: #282d26 } 
		.s20 { fill: #1e2019 } 
		.s21 { opacity: 1;fill: #7f8a8b } 
		.s22 { fill: #6e6041 } 
		.s23 { opacity: .1;fill: #e5e4e2 } 
		.s24 { opacity: .8;fill: #cac9c5 } 
		.s25 { fill: #655839 } 
		.s26 { opacity: .7;fill: #bdbcb8 } 
		.s27 { fill: #86744f } 
		.s28 { fill: #776949 } 
		.s29 { fill: #737160 } 
		.s30 { fill: #69706d } 
		.s31 { opacity: .5;fill: #827f6f } 
		.s32 { fill: #898878 } 
		.s33 { opacity: .5;fill: #f1eff0 } 
		.s34 { opacity: 1;fill: #4a4e46 } 
		.s35 { fill: #3e443e } 
		.s36 { fill: #5a4d2d } 
		.s37 { fill: #c7bcae } 
		.s38 { fill: #e1d2bc } 
		.s39 { fill: #e7dccd } 
		.s40 { fill: #c9b399 } 
		.s41 { opacity: .9;fill: #e3e1e1 } 
		.s42 { fill: #dac6af } 
		.s43 { fill: #8c7c5a } 
		.s44 { fill: #ae9872 } 
		.s45 { fill: #9e9880 } 
		.s46 { fill: #bbb4a7 } 
		.s47 { fill: #151710 } 
		.s48 { fill: #d1bca2 } 
		.s49 { fill: #aaa495 } 
		.s50 { fill: #504426 } 
		.s51 { fill: #b9bcbb } 
		.s52 { fill: #585c53 } 
		.s53 { fill: #ede6da } 
		.s54 { opacity: .8;fill: #87806d } 
		.s55 { fill: #8e8469 } 
		.s56 { fill: #b2ac9b } 
		.s57 { fill: #f5f1e8 } 
		.s58 { fill: #fafbf7 } 
		.s59 { fill: #90938a } 
		.s60 { fill: #d6cfc6 } 
		.s61 { fill: #cdc6b7 } 
		.s62 { opacity: .8;fill: #ada799 } 
		.s63 { fill: #a59e8b } 
		.s64 { fill: #5d6466 } 
		.s65 { fill: #b1b4b2 } 
		.s66 { fill: #dfe0df } 
		.s67 { fill: #c4c4c5 } 
		.s68 { fill: #ccd0d4 } 
		.s69 { fill: #8e9a9e } 
		.s70 { fill: #9aacb2 } 
		.s71 { fill: #bda686 } 
		.s72 { fill: #a7b3ba } 
		.s73 { fill: #aebbc6 } 
		.s74 { fill: #bacdd9 } 
		.s75 { fill: #c2ad90 } 
		.s76 { fill: #cbe1ec } 
		.s77 { fill: #999c98 } 
		.s78 { fill: #b5c3ce } 
		.s79 { fill: #e6f0f5 } 
		.s80 { fill: #040403 } 
		.s81 { fill: #0d0d0c } 
		.s82 { fill: #97a3a8 } 
		.s83 { fill: #b2a07f } 
		.s84 { fill: #322c1a } 
		.s85 { fill: #9c8b64 } 
		.s86 { fill: #9e9271 } 
		.s87 { fill: #a58a56 } 
		.s88 { fill: #a8adac } 
		.s89 { fill: #a2a6a0 } 
		.s90 { fill: #46371a } 
		.s91 { opacity: .9;fill: #6f6f64 } 
		.s92 { opacity: .5;fill: #aeaea9 } 
		.s93 { fill: #a4803f } 
	</style>
	<g id="Background">
		<path id="Path 0" class="s0" d="m194 446h1v1h-1z"/>
		<path id="Path 1" class="s1" d="m228 437l8-1-8 2z"/>
		<path id="Path 2" class="s2" d="m779 421h1v1h-1z"/>
		<path id="Path 3" class="s3" d="m866 384h1v1h-1z"/>
		<path id="Path 4" class="s4" d="m866 385l1-1h5v2h-2-4z"/>
		<path id="Path 5" class="s5" d="m858 387l3-2 1 1-4 2z"/>
		<path id="Path 6" class="s6" d="m862 386l-1-1 3 1z"/>
		<path id="Path 7" class="s7" d="m858 388l4-2h2 2 4l-1 7-8 10-2 2-14 14-3 5-6 8v-5l-7-9-10 2-3-6-8 2h-9l-1-3v-2l11-5 13-7h1l4-2 7-3h2l9-3h1l4-2h1z"/>
		<path id="Path 8" class="s8" d="m869 393l1-7h2v4l-2 3z"/>
		<path id="Path 9" class="s9" d="m851 389l7-2v1z"/>
		<path id="Path 10" class="s8" d="m839 392l4-2 2 1-9 3z"/>
		<path id="Path 11" class="s10" d="m870 393l2-3v4l-1 1h-1z"/>
		<path id="Path 12" class="s1" d="m861 403l8-10h1v2l-1 2-2 2-1 1-2 2z"/>
		<path id="Path 13" class="s9" d="m826 397l8-3-7 3z"/>
		<path id="Path 14" class="s11" d="m868 528l-1-3 2 6h-1z"/>
		<path id="Path 15" class="s5" d="m855 516h1v1h-1z"/>
		<path id="Path 16" class="s3" d="m869 397l1-2h1z"/>
		<path id="Path 17" class="s12" d="m823 399l3-2h1z"/>
		<path id="Path 18" class="s8" d="m810 404l12-5-13 7z"/>
		<path id="Path 19" class="s13" d="m488 403v-3h13v2l-12 1z"/>
		<path id="Path 20" class="s14" d="m501 402v-2h10l1 2h-2-8z"/>
		<path id="Path 21" class="s15" d="m512 402l-1-2h18l-1 2z"/>
		<path id="Path 22" class="s14" d="m528 402l1-2h4l1 2h-5z"/>
		<path id="Path 23" class="s11" d="m534 402l-1-2h10l1 5h-3l2-3z"/>
		<path id="Path 24" class="s16" d="m474 404l9-2v2l-5 1z"/>
		<path id="Path 25" class="s17" d="m483 404v-2l4 1-3 1z"/>
		<path id="Path 26" class="s18" d="m489 403l12-1h1z"/>
		<path id="Path 27" class="s19" d="m489 403l13-1h8v8h-6l-20-2v-4l3-1h1z"/>
		<path id="Path 28" class="s20" d="m510 410v-8h2 16 1l8 4-1 1-9 2-13 2z"/>
		<path id="Path 29" class="s21" d="m537 406l-8-4h5 9l-2 3z"/>
		<path id="Path 30" class="s0" d="m861 403l3-1-5 3z"/>
		<path id="Path 31" class="s4" d="m463 405l8-1-7 2h-1z"/>
		<path id="Path 32" class="s22" d="m464 406l7-2h3l4 1v3 10l-4 2h-7l-5-4z"/>
		<path id="Path 33" class="s7" d="m478 405l5-1h1v4h-6z"/>
		<path id="Path 34" class="s23" d="m797 411l13-7-1 2-11 5z"/>
		<path id="Path 35" class="s9" d="m452 406l11-1v1h-4z"/>
		<path id="Path 36" class="s0" d="m845 419l14-14-13 14z"/>
		<path id="Path 37" class="s11" d="m441 409l11-3v2l-10 1z"/>
		<path id="Path 38" class="s24" d="m452 408v-2h7l-6 2z"/>
		<path id="Path 39" class="s25" d="m453 408l6-2h4 1l-2 10h-3-1z"/>
		<path id="Path 40" class="s26" d="m527 409l9-2-1 1-3 1-3 3h4v2h-9z"/>
		<path id="Path 41" class="s27" d="m442 409l10-1h1l5 8-3 1 2 5-3 6h-8z"/>
		<path id="Path 42" class="s28" d="m478 418v-10h6l1 8-1 2z"/>
		<path id="Path 43" class="s29" d="m485 416l-1-8 20 2v8h-10-3z"/>
		<path id="Path 44" class="s11" d="m428 410l9-1-9 2z"/>
		<path id="Path 45" class="s28" d="m428 411l9-2h4 1l4 19h-5l-1-4h-6l-2-3v-5l-4 2-8 1-4-1v-5l5-1z"/>
		<path id="Path 46" class="s30" d="m514 411l13-2-3 5-3 6h-6l-1-1z"/>
		<path id="Path 47" class="s5" d="m416 413l1-3h5l-1 2z"/>
		<path id="Path 48" class="s31" d="m421 412l1-2h6v1z"/>
		<path id="Path 49" class="s32" d="m504 418v-8h6l4 1v8l-4 1-3 6-3-1z"/>
		<path id="Path 50" class="s10" d="m782 420l15-9h1v2l-13 8-7 3 1-2 1-1z"/>
		<path id="Path 51" class="s33" d="m533 414v-2l4 2z"/>
		<path id="Path 52" class="s25" d="m404 414l11-1h1v5l-14 10-6-1-2-11 6-2z"/>
		<path id="Path 53" class="s34" d="m785 421l13-8 1 3h9v8l-6 5v5l-4 6h-4l-2-12-6-3z"/>
		<path id="Path 54" class="s24" d="m391 415l9-1-6 2h-3z"/>
		<path id="Path 55" class="s29" d="m521 420l3-6h9 4 1v9l-4-1-5 1h-6z"/>
		<path id="Path 56" class="s27" d="m538 423v-9h4l8 3v7l-3 1z"/>
		<path id="Path 57" class="s4" d="m550 417l-8-3 10 1v1z"/>
		<path id="Path 58" class="s35" d="m808 416l8-2 3 6-9 14h-8v-5l6-5z"/>
		<path id="Path 59" class="s23" d="m377 416l7-1v1z"/>
		<path id="Path 60" class="s9" d="m384 416v-1h7v1h-2z"/>
		<path id="Path 61" class="s9" d="m552 416v-1h7v1h-2z"/>
		<path id="Path 62" class="s3" d="m559 416v-1l8 2z"/>
		<path id="Path 63" class="s24" d="m376 417l1-1h7 5l-5 2h-8z"/>
		<path id="Path 64" class="s36" d="m384 418l5-2h2 3l2 11h-6l-6-3z"/>
		<path id="Path 65" class="s37" d="m428 418l4-2v5l-4-1z"/>
		<path id="Path 66" class="s38" d="m457 422l-2-5 3-1h1v6z"/>
		<path id="Path 67" class="s39" d="m459 422v-6h3l5 4h7l2 4-2 4 7 1 1 10-3 3h-9l-3-6h-4v-4l1-6z"/>
		<path id="Path 68" class="s40" d="m484 418l1-2 6 2-1 3h-5z"/>
		<path id="Path 69" class="s28" d="m550 417l2-1h5l1 3-1 5h-7z"/>
		<path id="Path 70" class="s41" d="m558 419l-1-3h2l8 1v1l-5 1z"/>
		<path id="Path 71" class="s23" d="m361 419l8-2v1l-7 1z"/>
		<path id="Path 72" class="s12" d="m369 418v-1h7v1h-5z"/>
		<path id="Path 73" class="s42" d="m494 418h10v7l-10 3z"/>
		<path id="Path 74" class="s0" d="m567 418v-1h9v1h-8z"/>
		<path id="Path 75" class="s13" d="m576 418v-1l6 2z"/>
		<path id="Path 76" class="s37" d="m362 419l7-1h2l-8 2h-1z"/>
		<path id="Path 77" class="s22" d="m363 420l8-2h5 8v6l6 3v7l-1 1-9 1h-6-9l-1-4v-5z"/>
		<path id="Path 78" class="s43" d="m402 428l14-10 4 1 1 4 7-3 4 1 2 3v6l-5 1h-8l-3 3h-8l-3 3-5-3z"/>
		<path id="Path 79" class="s44" d="m420 419l8-1v2l-7 3z"/>
		<path id="Path 80" class="s43" d="m474 420l4-2h6l1 3-2 7-2 1-7-1 2-4z"/>
		<path id="Path 81" class="s45" d="m485 421h5l1-3h3v10 1l-5 1-1-3-5 1z"/>
		<path id="Path 82" class="s43" d="m562 419l5-1h1l8 3v10 3l-3-1-1-3h-6l-4-4z"/>
		<path id="Path 83" class="s46" d="m576 421l-8-3h8l6 1v1z"/>
		<path id="Path 84" class="s47" d="m819 420l10-2 7 9v5l-3 6-15 5h-2-3l-3-9z"/>
		<path id="Path 85" class="s5" d="m339 423l1-3 16-1v1l-6 1-4 1z"/>
		<path id="Path 86" class="s14" d="m356 420v-1h5 1v1h-4z"/>
		<path id="Path 87" class="s48" d="m507 426l3-6 4-1 1 1v11l-1 1h-5z"/>
		<path id="Path 88" class="s27" d="m557 424l1-5h4v7h-3z"/>
		<path id="Path 89" class="s13" d="m582 420v-1l24 1v1h-6-3l-11-1z"/>
		<path id="Path 90" class="s2" d="m842 424l3-5h1z"/>
		<path id="Path 91" class="s49" d="m350 421l6-1h2l-1 2z"/>
		<path id="Path 92" class="s50" d="m357 422l1-2h4 1l1 7-6-1z"/>
		<path id="Path 93" class="s44" d="m515 431v-11h6l2 3-2 5z"/>
		<path id="Path 94" class="s27" d="m576 421l6-1h4l1 2-3 2v6l-4 1h-4z"/>
		<path id="Path 95" class="s37" d="m587 422l-1-2 11 1-7 1z"/>
		<path id="Path 96" class="s2" d="m606 421v-1l5 2v1z"/>
		<path id="Path 97" class="s36" d="m346 422l4-1 7 1 1 4-2 4-4 3-4-3z"/>
		<path id="Path 98" class="s22" d="m590 422l7-1h3l5 3 6-1h5l8 1h5l1 2 1 2 1 5-6 2-3-2-6 2-6-1-5-4-8 2-8-2z"/>
		<path id="Path 99" class="s51" d="m611 423l-6 1-5-3h6z"/>
		<path id="Path 100" class="s52" d="m778 424l7-3 1 4 6 3 2 12-2 8h-4l-7-10h-13l-2-5 1-2 6-4z"/>
		<path id="Path 101" class="s10" d="m328 424l10-1-3 1z"/>
		<path id="Path 102" class="s50" d="m339 423l7-1 2 8-8 11v5l-3-1-3-7 1-14 3-1z"/>
		<path id="Path 103" class="s37" d="m454 428l3-6h2l5 4-1 6h-9z"/>
		<path id="Path 104" class="s40" d="m529 423l5-1v4z"/>
		<path id="Path 105" class="s39" d="m534 426v-4l4 1 9 2v2l-13 3z"/>
		<path id="Path 106" class="s25" d="m584 430v-6l3-2h3v8z"/>
		<path id="Path 107" class="s31" d="m611 423v-1h5v1z"/>
		<path id="Path 108" class="s33" d="m616 423v-1l8 2z"/>
		<path id="Path 109" class="s53" d="m521 428l2-5h6l5 3v4l-10 2z"/>
		<path id="Path 110" class="s54" d="m318 426l9-2-5 3z"/>
		<path id="Path 111" class="s7" d="m322 427l5-3h1 7l-1 14-8 4-2-4h-4l-8 5-10 1-8-1v-13l8-2h1 3 9l2 5h4z"/>
		<path id="Path 112" class="s55" d="m434 430v-6h6l1 4-3 3z"/>
		<path id="Path 113" class="s56" d="m547 425l3-1h7l2 2-1 4-3 2-8-5z"/>
		<path id="Path 114" class="s4" d="m630 426l-1-2h6v2z"/>
		<path id="Path 115" class="s9" d="m635 426v-2l16 3v1z"/>
		<path id="Path 116" class="s11" d="m773 427l1-3h4z"/>
		<path id="Path 117" class="s13" d="m836 432l6-8-3 10-6 6v-2z"/>
		<path id="Path 118" class="s57" d="m494 428l10-3 3 1 2 6h5l4 5v17h-8l-2-7-8 1h-4v-8l-2-11z"/>
		<path id="Path 119" class="s54" d="m306 428l1-2h8 1l-1 2z"/>
		<path id="Path 120" class="s20" d="m315 428l1-2h2l4 1-1 6h-4z"/>
		<path id="Path 121" class="s28" d="m356 430l2-4 6 1v5z"/>
		<path id="Path 122" class="s42" d="m558 430l1-4h3l4 4v2z"/>
		<path id="Path 123" class="s43" d="m631 428l-1-2h5l16 2 3 1-4 2v7h-3l-13-5 4-3z"/>
		<path id="Path 124" class="s23" d="m291 429l6-2v1l-5 1z"/>
		<path id="Path 125" class="s9" d="m297 428v-1l6 1h-1z"/>
		<path id="Path 126" class="s27" d="m390 434v-7h6l6 1v6h-8z"/>
		<path id="Path 127" class="s53" d="m483 428l5-1 1 3-1 7 8 3v8l-9 1-7-1-1-6 3-3-1-10z"/>
		<path id="Path 128" class="s58" d="m534 430l13-3 8 5 2 14-1 4-1 2h-9l-18-10-4-4v-6z"/>
		<path id="Path 129" class="s0" d="m651 428v-1l5 2h-2z"/>
		<path id="Path 130" class="s11" d="m763 432l10-5-6 4z"/>
		<path id="Path 131" class="s59" d="m292 429l5-1h5l-8 2z"/>
		<path id="Path 132" class="s49" d="m438 431l3-3h5 8v4l-7 3-9-1z"/>
		<path id="Path 133" class="s39" d="m515 431l6-3 3 4v6l4 4 18 10v4h-11l-5 8h-8-4v-10-17l-4-5z"/>
		<path id="Path 134" class="s36" d="m632 433l-1-5 7 2-4 3z"/>
		<path id="Path 135" class="s13" d="m278 431l5-2v1l-4 1z"/>
		<path id="Path 136" class="s14" d="m283 430v-1h7l-4 1z"/>
		<path id="Path 137" class="s35" d="m286 430l4-1h1 1l2 1v13l-2 1-5-1h-5l-1-3 1-8z"/>
		<path id="Path 138" class="s60" d="m489 430l5-1 2 11-8-3z"/>
		<path id="Path 139" class="s28" d="m650 438v-7l4-2h2 1l1 1 1 2-1 6-5 2z"/>
		<path id="Path 140" class="s11" d="m658 430l-1-1h3v1z"/>
		<path id="Path 141" class="s5" d="m660 430v-1l6 1v1h-2z"/>
		<path id="Path 142" class="s13" d="m266 433l1-3h6l-1 2h-1z"/>
		<path id="Path 143" class="s14" d="m272 432l1-2 3 1v1z"/>
		<path id="Path 144" class="s18" d="m279 431l4-1h3l-4 2z"/>
		<path id="Path 145" class="s18" d="m340 446v-5l8-11 4 3-2 11z"/>
		<path id="Path 146" class="s32" d="m352 433l4-3 8 2 1 4v3l-2 5-6-2-3 3-4-1z"/>
		<path id="Path 147" class="s46" d="m429 431l5-1 4 1v3l-2 2h-4z"/>
		<path id="Path 148" class="s57" d="m555 432l3-2 8 2 7 1 3 1h4 10 7l9 6v8h-16l-10-2-3 4 1 6-4-1-4-9h-13z"/>
		<path id="Path 149" class="s37" d="m566 432v-2h6l1 3z"/>
		<path id="Path 150" class="s56" d="m580 431l4-1h6v4h-10z"/>
		<path id="Path 151" class="s46" d="m590 434v-4l8 2-1 2z"/>
		<path id="Path 152" class="s61" d="m598 432l8-2 5 4-1 6h-4l-9-6z"/>
		<path id="Path 153" class="s56" d="m659 432l-1-2h2l4 1v1z"/>
		<path id="Path 154" class="s17" d="m666 431v-1h3l1 2z"/>
		<path id="Path 155" class="s5" d="m670 432l-1-2 7 2h-2z"/>
		<path id="Path 156" class="s19" d="m276 432v-1h2 1l3 1-1 8h-5z"/>
		<path id="Path 157" class="s37" d="m418 434l3-3h8l3 5h4l1 10-1 5-14-1z"/>
		<path id="Path 158" class="s60" d="m576 434v-3h4v3z"/>
		<path id="Path 159" class="s22" d="m664 432v-1h2l4 1h4l8 2 1 6h-12-2l-5-2z"/>
		<path id="Path 160" class="s62" d="m763 432l4-1-1 2-9 4-5 1 3-3z"/>
		<path id="Path 161" class="s35" d="m266 433l5-1-1 7h-4l-10 10h-8l-2-5 5-3-1-5 1-2h2l9-1z"/>
		<path id="Path 162" class="s7" d="m270 439l1-7h1 4v8z"/>
		<path id="Path 163" class="s46" d="m447 435l7-3h9v4l-1 12h-4l-2-6h-9z"/>
		<path id="Path 164" class="s25" d="m658 438l1-6h5v6h-2z"/>
		<path id="Path 165" class="s10" d="m682 434l-8-2h2l10 2z"/>
		<path id="Path 166" class="s61" d="m617 435l6-2 3 2v5h-6-4z"/>
		<path id="Path 167" class="s37" d="m626 435l6-2h2l13 5h-4l-1 4h-10-4l-2-2z"/>
		<path id="Path 168" class="s28" d="m757 437l9-4 2 5-2 4h-7z"/>
		<path id="Path 169" class="s8" d="m241 436l10-2-1 2h-8z"/>
		<path id="Path 170" class="s32" d="m389 435l1-1h4v4l-2 2-2-1z"/>
		<path id="Path 171" class="s56" d="m394 438v-4h8l5 3-1 1z"/>
		<path id="Path 172" class="s61" d="m407 437l3-3h8l4 16h-12l-4-12z"/>
		<path id="Path 173" class="s56" d="m436 436l2-2 9 1v7l-1 4h-9z"/>
		<path id="Path 174" class="s60" d="m610 440l1-6 6 1-1 5z"/>
		<path id="Path 175" class="s27" d="m683 440l-1-6h4l9 2h3l9 1h3l1 1 1 2v5l-2 1-9 2-5-3-6-2-6-1z"/>
		<path id="Path 176" class="s62" d="m695 436l-9-2h8z"/>
		<path id="Path 177" class="s9" d="m695 436l-1-2 7 1v1h-3z"/>
		<path id="Path 178" class="s19" d="m794 440h4l4-6h8l3 9 1 5v2h-13l-5 8h-4v-6-4z"/>
		<path id="Path 179" class="s9" d="m228 437l10-1h-2z"/>
		<path id="Path 180" class="s63" d="m374 436h6v5l-6 1-1-1z"/>
		<path id="Path 181" class="s49" d="m380 436l9-1 1 4-6 2h-4z"/>
		<path id="Path 182" class="s23" d="m701 436v-1l6 2z"/>
		<path id="Path 183" class="s5" d="m748 439l7-4-3 3z"/>
		<path id="Path 184" class="s19" d="m228 438l8-2h2 3 1v8l-8 3-6-2-8 3-1-7v-1l6-2z"/>
		<path id="Path 185" class="s7" d="m242 444v-8h8l1 5-5 3z"/>
		<path id="Path 186" class="s59" d="m365 439v-3h9l-1 5-5 3v-4z"/>
		<path id="Path 187" class="s57" d="m462 448l1-12h4l3 6-6 8z"/>
		<path id="Path 188" class="s24" d="m707 437l-9-1h3z"/>
		<path id="Path 189" class="s31" d="m219 439l6-1-6 2z"/>
		<path id="Path 190" class="s0" d="m711 438l-1-1h6v1z"/>
		<path id="Path 191" class="s3" d="m716 438v-1l5 2h-1z"/>
		<path id="Path 192" class="s27" d="m752 438l5-1 2 5-6 2-2-4z"/>
		<path id="Path 193" class="s64" d="m312 443l8-5h4l2 4 1 5-12 2-3-4z"/>
		<path id="Path 194" class="s30" d="m326 442l8-4 3 7-4 2h-3-3z"/>
		<path id="Path 195" class="s60" d="m392 440l2-2h12l4 12-9 3-9-3z"/>
		<path id="Path 196" class="s57" d="m642 442l1-4h4 3l3 2 5 1-1 7-2 2-6-1-4-2z"/>
		<path id="Path 197" class="s45" d="m653 440l5-2h4l-4 3z"/>
		<path id="Path 198" class="s60" d="m658 441l4-3h2l5 2-3 8h-9z"/>
		<path id="Path 199" class="s65" d="m712 440l-1-2h5l4 1z"/>
		<path id="Path 200" class="s62" d="m748 439l4-1-1 2-7 1 1-2z"/>
		<path id="Path 201" class="s22" d="m766 442l2-4h13l7 10v4l-10 2-5-5z"/>
		<path id="Path 202" class="s17" d="m818 443l15-5v2l-2 2-5 2z"/>
		<path id="Path 203" class="s8" d="m201 444l18-5v1 1l-32 11-5 1-5 2-7 1 1-2 8-2 7-3h3l3-2h2l1-1z"/>
		<path id="Path 204" class="s64" d="m256 449l10-10h4l6 1h5l1 3h5l1 5v1l-6 1-26 2z"/>
		<path id="Path 205" class="s51" d="m363 444l2-5 3 1v4z"/>
		<path id="Path 206" class="s61" d="m384 441l6-2 2 1v10h-3l-5-3z"/>
		<path id="Path 207" class="s28" d="m712 440l8-1h1 1l3 1 7 2v6h-9l-11-3z"/>
		<path id="Path 208" class="s11" d="m725 440l-3-1h6v1z"/>
		<path id="Path 209" class="s5" d="m728 440v-1l8 1v1h-1z"/>
		<path id="Path 210" class="s5" d="m743 440l2-1-1 2h-1z"/>
		<path id="Path 211" class="s58" d="m606 448v-8h4 6 4l-1 8-4 2z"/>
		<path id="Path 212" class="s57" d="m619 448l1-8h6l2 2v7l-7 1z"/>
		<path id="Path 213" class="s57" d="m666 448l3-8h2l4 6-2 2-5 3z"/>
		<path id="Path 214" class="s63" d="m675 446l-4-6h12l1 2-2 4z"/>
		<path id="Path 215" class="s61" d="m732 442l-7-2h3l7 1z"/>
		<path id="Path 216" class="s14" d="m736 441v-1h7v1z"/>
		<path id="Path 217" class="s43" d="m744 441l7-1 2 4-2 4h-19v-6l3-1h1 7z"/>
		<path id="Path 218" class="s7" d="m187 452l32-11 1 7-3 3h-8l2 5 1 6h-5l-5-6-11-1z"/>
		<path id="Path 219" class="s66" d="m368 444l5-3 1 1v18l-2 4-10-1-4-3-4-15 3-3 6 2z"/>
		<path id="Path 220" class="s67" d="m374 442l6-1h4v6l-4 2 2 9-2 2h-6z"/>
		<path id="Path 221" class="s18" d="m287 443l5 1v3l-4 1z"/>
		<path id="Path 222" class="s40" d="m446 446l1-4h9l2 6z"/>
		<path id="Path 223" class="s40" d="m464 450l6-8h9l1 6 7 1v7l6 1 1 6 12 3v11 5 10l-21-2-9-2-3-10-6-2 1-18-4-3z"/>
		<path id="Path 224" class="s53" d="m628 449v-7h4v7z"/>
		<path id="Path 225" class="s39" d="m632 449v-7h10l3 5-5 3z"/>
		<path id="Path 226" class="s39" d="m682 446l2-4 6 1-2 11h-5z"/>
		<path id="Path 227" class="s56" d="m753 444l6-2h7l7 7-8 2-3 5h-5l-1-5-5-3z"/>
		<path id="Path 228" class="s30" d="m292 444l2-1 8 1v5l-10-2z"/>
		<path id="Path 229" class="s18" d="m302 444l10-1v2l-2 3-8 1z"/>
		<path id="Path 230" class="s57" d="m688 454l2-11 6 2-2 9h-2z"/>
		<path id="Path 231" class="s17" d="m814 448l-1-5h3l-1 4v1z"/>
		<path id="Path 232" class="s30" d="m234 447l8-3h4l2 5h8v3l-4 1v3h-6l-12-6z"/>
		<path id="Path 233" class="s68" d="m340 446l10-2 4 1 4 15-4 4h-7l-1 6-11 2-3-8 10-3-2-7 2-1-2-5z"/>
		<path id="Path 234" class="s64" d="m220 448l8-3 6 2v3l-4 3h-5l2 11h-3l-6-1v-7l-1-5z"/>
		<path id="Path 235" class="s69" d="m310 448l2-3 3 4v2l-4 2z"/>
		<path id="Path 236" class="s70" d="m333 447l4-2 3 1v2l-2 4h-4z"/>
		<path id="Path 237" class="s58" d="m694 454l2-9 5 3 9-2 4 6 9-4h9 19l5 3 1 5-9 5h-13l-9-1-20-2z"/>
		<path id="Path 238" class="s48" d="m710 446l2-1 11 3-9 4z"/>
		<path id="Path 239" class="s71" d="m436 451l1-5h9l12 2h4l2 2v5l4 3-1 18-4 1-2-1-5-10v-3l-4-1h-10z"/>
		<path id="Path 240" class="s39" d="m556 450l1-4h13l4 9-6 3-8-2v-4z"/>
		<path id="Path 241" class="s42" d="m578 456l-1-6 3-4 10 2v10z"/>
		<path id="Path 242" class="s38" d="m673 448l2-2h7l1 8v1l-3 1z"/>
		<path id="Path 243" class="s72" d="m288 448l4-1 10 2v10l-2 3h-9l-3-4v-9z"/>
		<path id="Path 244" class="s73" d="m315 449l12-2h3v8 5h-12l-1-3 1-5-3-1z"/>
		<path id="Path 245" class="s74" d="m330 455v-8h3l1 5z"/>
		<path id="Path 246" class="s60" d="m382 458l-2-9 4-2 5 3-1 8z"/>
		<path id="Path 247" class="s42" d="m500 448l8-1 2 7-4 3 1 8-1 1-12-3-1-6 7-5z"/>
		<path id="Path 248" class="s75" d="m590 448h16l9 2 1 6-2 8h-20l-4-6z"/>
		<path id="Path 249" class="s71" d="m640 450l5-3 4 2v4l7 6v5l-2 8h-10l-2-8z"/>
		<path id="Path 250" class="s3" d="m815 448v-1l2 2h-1z"/>
		<path id="Path 251" class="s76" d="m302 449l8-1 1 5 4-2 3 1-1 5-6 3-9-1z"/>
		<path id="Path 252" class="s58" d="m338 452l2-4 2 5-2 1z"/>
		<path id="Path 253" class="s48" d="m487 449l9-1h4v4l-7 5-6-1z"/>
		<path id="Path 254" class="s40" d="m615 450l4-2 2 2v5l-5 1z"/>
		<path id="Path 255" class="s61" d="m655 450l2-2h9l2 3-2 12-5 1v-6z"/>
		<path id="Path 256" class="s56" d="m668 451l5-3 7 8v8h-12l-2-1z"/>
		<path id="Path 257" class="s7" d="m788 452v-4h4v4z"/>
		<path id="Path 258" class="s77" d="m814 450v-2h1l1 1v1z"/>
		<path id="Path 259" class="s78" d="m282 450l6-1v9l3 4-3 1-1-1z"/>
		<path id="Path 260" class="s48" d="m621 450l7-1h4l8 1 2 14h-4l-7-8-10-1z"/>
		<path id="Path 261" class="s40" d="m656 464v-5l-7-6v-4l6 1 6 8v6z"/>
		<path id="Path 262" class="s43" d="m762 456l3-5 8-2 5 5-2 18h-10-2z"/>
		<path id="Path 263" class="s8" d="m816 450v-1h1l5 1 4 2 1 5h-1l-6 1-1 4 1 4-1 4h-1v-12l8-3z"/>
		<path id="Path 264" class="s69" d="m230 453l4-3 12 6v5l-6 1h-3l-2-6h-5z"/>
		<path id="Path 265" class="s72" d="m256 452l26-2 5 12-1 3-9 8-11 3-2-4-9-3-3-13v-3z"/>
		<path id="Path 266" class="s79" d="m267 452l8 4v5l-4 1-1-4-7 1v-5z"/>
		<path id="Path 267" class="s37" d="m388 458l1-8h3l9 3-1 9-10 3-2-1z"/>
		<path id="Path 268" class="s40" d="m401 453l9-3h12l14 1 6 11h10v4h4l5 10-5 8-12 2-6-4-3-4h-24l-1 7-4 3-16-4v-19l10-3z"/>
		<path id="Path 269" class="s42" d="m555 452l1-2 4 2v4l-2 2-3-1z"/>
		<path id="Path 270" class="s80" d="m796 458l5-8h13 2l10 5-8 3v12h-1l-5 1-12 3z"/>
		<path id="Path 271" class="s59" d="m211 456l-2-5h8l1 5z"/>
		<path id="Path 272" class="s81" d="m182 453l5-1 4 3-1 4h-4-4z"/>
		<path id="Path 273" class="s72" d="m330 455l4-3h4l2 2 2 7-10 3-2-4z"/>
		<path id="Path 274" class="s57" d="m546 456v-4h9v5l-6 1z"/>
		<path id="Path 275" class="s36" d="m778 454l10-2h4v6l-2 9 2 6-2 5-4 1v13h-8l-2-11v-9z"/>
		<path id="Path 276" class="s3" d="m827 457l-1-5h3z"/>
		<path id="Path 277" class="s47" d="m177 455l5-2v6l-1 2-3 1z"/>
		<path id="Path 278" class="s82" d="m227 464l-2-11h5v3 8z"/>
		<path id="Path 279" class="s13" d="m163 457l8-3-1 2-4 1z"/>
		<path id="Path 280" class="s58" d="m507 465l-1-8 4-3h8v10l-2 1z"/>
		<path id="Path 281" class="s63" d="m683 455v-1h5 4v6h-7z"/>
		<path id="Path 282" class="s56" d="m692 460v-6h2l12 4v2l-4 2z"/>
		<path id="Path 283" class="s20" d="m170 456l7-1 1 7v4 3l-7 1v-6l-5-1v-5-1z"/>
		<path id="Path 284" class="s52" d="m186 459h4l1-4 11 1 5 6h5l6 1 6 1v7l-5 6-5 1v5l-4 1-7-1-3-5h-6l-4-6h-8v-2l1-4 5-2z"/>
		<path id="Path 285" class="s40" d="m568 458l6-3 4 1 12 2 4 6-2 10h-5l-3 6-5 2-9-8-2-9z"/>
		<path id="Path 286" class="s83" d="m616 456l5-1 10 1 7 8h4l2 8h10l6 7h10l10 3v15l-4 5-4 2h-7l-2 4-3 1-10 1h-7l-1 6-12 1-2 3h-6l-4-3 3-6-3-5v-6l1-8 9-7v-18l-3-3h-11z"/>
		<path id="Path 287" class="s83" d="m680 456l3-1 2 5h7l10 2v4l-22-2z"/>
		<path id="Path 288" class="s29" d="m212 462l-1-6h7v7z"/>
		<path id="Path 289" class="s78" d="m230 464v-8h5l2 6-6 5z"/>
		<path id="Path 290" class="s73" d="m246 461v-5h6l3 13h-4z"/>
		<path id="Path 291" class="s48" d="m530 464l5-8h11l3 2-3 6-6 1 1 10-9 1z"/>
		<path id="Path 292" class="s48" d="m558 458l2-2 8 2v7h-8z"/>
		<path id="Path 293" class="s44" d="m748 461l9-5h5l2 16h-12l-4-4z"/>
		<path id="Path 294" class="s14" d="m158 459l3-2h2 3v1l-6 2-7 1z"/>
		<path id="Path 295" class="s67" d="m311 460l6-3 1 3h12l2 4 3 8v2l-5 1-16-3z"/>
		<path id="Path 296" class="s75" d="m549 458l6-1 3 1 2 7v9l-19 1-1-10 6-1z"/>
		<path id="Path 297" class="s40" d="m706 458l20 2v6h-12l-4-4-4-2z"/>
		<path id="Path 298" class="s23" d="m819 462l1-4 6-1z"/>
		<path id="Path 299" class="s47" d="m160 460l6-2v5l-2 5h-4z"/>
		<path id="Path 300" class="s38" d="m380 460l2-2h6v6h-8z"/>
		<path id="Path 301" class="s84" d="m792 473l-2-6 2-9h4l4 16z"/>
		<path id="Path 302" class="s21" d="m181 461l1-2h4l2 5-5 2h-2z"/>
		<path id="Path 303" class="s65" d="m291 462h9l2-3 9 1 3 12-14 2-3-5-9-4v-2z"/>
		<path id="Path 304" class="s14" d="m148 463v-3l4 1z"/>
		<path id="Path 305" class="s81" d="m153 461l7-1v8l-5 2v5l-9 1-10-2-3-1 1-6v-1l7-2 5-1h2l4-2z"/>
		<path id="Path 306" class="s39" d="m354 464l4-4 4 3-3 5h-5z"/>
		<path id="Path 307" class="s39" d="m372 464l2-4h6v4l-6 2z"/>
		<path id="Path 308" class="s44" d="m702 462l4-2 4 2-2 4h-6z"/>
		<path id="Path 309" class="s37" d="m726 466v-6l9 1v4z"/>
		<path id="Path 310" class="s52" d="m178 462l3-1v5h-3z"/>
		<path id="Path 311" class="s21" d="m240 462l6-1 5 8-7 3-4-2z"/>
		<path id="Path 312" class="s83" d="m735 465v-4h13v7h-9z"/>
		<path id="Path 313" class="s56" d="m231 467l6-5h3v8l4 2 4 14-4 1-11-6-3-5z"/>
		<path id="Path 314" class="s69" d="m286 465l1-3 1 1v2z"/>
		<path id="Path 315" class="s57" d="m456 466h-4v-4l4 1z"/>
		<path id="Path 316" class="s85" d="m702 466h6l2-4 4 4h12l9-1 4 3v6l7 2-1 12-13 2h-3l-17 3-5 2-3 2-9 2h-2l3-4-16 2v-15l-10-3-2-15h12z"/>
		<path id="Path 317" class="s27" d="m164 468l2-5 5 1v6h-1l-5-1z"/>
		<path id="Path 318" class="s38" d="m359 468l3-5 10 1 2 2 4 16h-5v-4z"/>
		<path id="Path 319" class="s44" d="m661 464l5-1 2 1 2 15h-10l-6-7 2-8z"/>
		<path id="Path 320" class="s29" d="m219 477l5-6v-7h3 3l1 3-1 9 3 5 11 6 1 11h-3l-6-6-7-6-3 2-4-4z"/>
		<path id="Path 321" class="s61" d="m346 470l1-6h7v4z"/>
		<path id="Path 322" class="s42" d="m374 466l6-2h8l2 1v19l-12-2z"/>
		<path id="Path 323" class="s42" d="m516 465l2-1h4l1 15-7 3h-2v-5z"/>
		<path id="Path 324" class="s40" d="m516 482l7-3-1-15h8l2 12 4 16-5 2v4h-5l-4-6h-4z"/>
		<path id="Path 325" class="s44" d="m592 474l2-10h20 11l3 3v18l-9 7-5-4h-8v-9z"/>
		<path id="Path 326" class="s11" d="m121 471l3-4 10-1v1l-12 4z"/>
		<path id="Path 327" class="s56" d="m266 476l11-3 9-8h2l9 4 3 5 14-2 16 3v11 10h-11l-4-6h-9l-2-4-12-2-4-6h-6l-2 6-14 2z"/>
		<path id="Path 328" class="s48" d="m506 466l1-1h9l-2 12h-8z"/>
		<path id="Path 329" class="s71" d="m560 474v-9h8l2 9-4 2z"/>
		<path id="Path 330" class="s19" d="m178 469v-3h3 2l-1 4z"/>
		<path id="Path 331" class="s84" d="m122 471l12-4-1 6 3 1v8h-5l-9-6z"/>
		<path id="Path 332" class="s64" d="m155 475v-5l5-2h4l1 1v8l-8 1z"/>
		<path id="Path 333" class="s37" d="m346 470l8-2h5l14 10v4l-5 5v7h-6l-9-9-13-1-5-10v-2z"/>
		<path id="Path 334" class="s86" d="m746 476l-7-2v-6h9l4 4v4z"/>
		<path id="Path 335" class="s56" d="m165 477v-8l5 1 2 7h3v2 8l-9 1z"/>
		<path id="Path 336" class="s32" d="m171 470l7-1 4 1v2 1h-6l-1 4h-3l-2-7z"/>
		<path id="Path 337" class="s49" d="m244 472l7-3h4l9 3 2 4v10h-18z"/>
		<path id="Path 338" class="s16" d="m812 471l5-1-3 4 3 1v1h-3z"/>
		<path id="Path 339" class="s11" d="m113 474l4-4 3 1-3 2z"/>
		<path id="Path 340" class="s7" d="m117 473l3-2h1 1v5l-2 2z"/>
		<path id="Path 341" class="s19" d="m800 474l12-3 2 5v1l-4 2v9h-8z"/>
		<path id="Path 342" class="s59" d="m182 473v-1h8l4 6h6l3 5 7 1-2 3h-6l-6-4v5l-12-3-2-6z"/>
		<path id="Path 343" class="s85" d="m752 476v-4h12 2v10l-4 4h-4v-5z"/>
		<path id="Path 344" class="s27" d="m766 482v-10h10v9z"/>
		<path id="Path 345" class="s34" d="m113 474l4-1 3 5v6h-7l-7-6 1-2 4-2z"/>
		<path id="Path 346" class="s82" d="m175 477l1-4h6v6h-7z"/>
		<path id="Path 347" class="s34" d="m786 492v-13l4-1 2-5 8 1 2 14-5 21-4-1h-1l-3-2-3-1-4-3-3-2 7-2z"/>
		<path id="Path 348" class="s23" d="m103 476l8-2-4 2z"/>
		<path id="Path 349" class="s7" d="m136 482v-8l10 2-2 5 4 2v5h-7z"/>
		<path id="Path 350" class="s46" d="m330 475l5-1 5 10v2h-10z"/>
		<path id="Path 351" class="s42" d="m541 475l19-1 6 2 4-2 9 8-1 6h-11l-1 6h-11l-3 6h-8v-6l-8-2-4-16z"/>
		<path id="Path 352" class="s71" d="m579 482l5-2 3-6h5l14 5v9 10 3l-26-1-2-12z"/>
		<path id="Path 353" class="s87" d="m146 476l9-1 2 3 2 9-2 6-6 7h-5l1-8 1-4v-5l-4-2z"/>
		<path id="Path 354" class="s0" d="m817 476v-1l5 2z"/>
		<path id="Path 355" class="s10" d="m86 486l5-6 12-4h4l-1 2-6 2-10 6h-2z"/>
		<path id="Path 356" class="s36" d="m120 478l2-2 9 6v9h-1l-2-4-3 1-5-4z"/>
		<path id="Path 357" class="s60" d="m438 482l6 4 12-2 5-8 2 1 1 10-6 4v9h-2l-6-7-12-1z"/>
		<path id="Path 358" class="s37" d="m463 477l4-1 6 2 3 10 3 10-7 8h-3l-1-4h-4l-6-2v-9l6-4z"/>
		<path id="Path 359" class="s55" d="m745 488l1-12h6l6 5v5l-4 2 2 4h-3l-7-2z"/>
		<path id="Path 360" class="s54" d="m814 477v-1h3l5 1 5 3v3l-6-5z"/>
		<path id="Path 361" class="s32" d="m157 478l8-1 1 11-2 3h-2l-3-4z"/>
		<path id="Path 362" class="s88" d="m214 483v-5l5-1 3 7z"/>
		<path id="Path 363" class="s57" d="m506 482v-5h8v5h-4z"/>
		<path id="Path 364" class="s81" d="m810 488v-9l4-2 7 1 6 5 3 3 10 9-3 3h-3l-5 2-2 1-13 1-1-11z"/>
		<path id="Path 365" class="s7" d="m100 480l6-2 7 6-4 8h-5l2-10z"/>
		<path id="Path 366" class="s89" d="m280 484l2-6h6l4 6v4h-7z"/>
		<path id="Path 367" class="s46" d="m410 485l1-7h24l3 4v10h-8l-18-4z"/>
		<path id="Path 368" class="s58" d="m175 487v-8h7l2 6-4 3h-3z"/>
		<path id="Path 369" class="s20" d="m90 486l10-6 6 2-2 10h-2l-2-1-1-3z"/>
		<path id="Path 370" class="s4" d="m827 483v-3l7 7-4-1z"/>
		<path id="Path 371" class="s90" d="m766 482l10-1 2 11-2 6-14-4v-8z"/>
		<path id="Path 372" class="s80" d="m131 491v-9h5l5 6v6l-3 2z"/>
		<path id="Path 373" class="s67" d="m368 494v-7l5-5h5l12 2 16 4v8l8 4v4l-4 6h-9l-3-6h-7l-1 10-11 2-4-5-7-2v-5z"/>
		<path id="Path 374" class="s46" d="m506 492v-10h4v10z"/>
		<path id="Path 375" class="s37" d="m510 492v-10h4 2l2 10v2z"/>
		<path id="Path 376" class="s38" d="m196 488v-5l6 4v3z"/>
		<path id="Path 377" class="s70" d="m210 484l4-1 8 1 4 4 1 3-6-1-3 8h-6l-4-11z"/>
		<path id="Path 378" class="s90" d="m109 492l4-8h7l5 4 3 6 4 6h4l2-4 3-2 6-2-1 8h5l3 3-2 3-4 4h-8l-23-10z"/>
		<path id="Path 379" class="s82" d="m266 486l14-2 5 4v6l-21 2h-9l-1 4h-8l-1-2-1-11 4-1z"/>
		<path id="Path 380" class="s77" d="m292 488v-4l12 2 2 4 1 10h-13v-4z"/>
		<path id="Path 381" class="s65" d="m340 486v-2l13 1 9 9v9l-12 3v-6l-6-1z"/>
		<path id="Path 382" class="s83" d="m180 488l4-3 12 3 6 2-3 10h-4l-11-2-4-7z"/>
		<path id="Path 383" class="s51" d="m406 488l4-3 2 3 18 4v10l-2 2h-14v-4l-8-4z"/>
		<path id="Path 384" class="s4" d="m88 495l-2-9h2z"/>
		<path id="Path 385" class="s35" d="m88 495v-9h2l9 2 1 3-7 8-3-1-2-2z"/>
		<path id="Path 386" class="s47" d="m226 488l3-2 7 6v5l5 4-1 8-6 1-7-19z"/>
		<path id="Path 387" class="s88" d="m330 496v-10h10l4 13-12 3z"/>
		<path id="Path 388" class="s50" d="m756 492l-2-4 4-2h4v8h-1z"/>
		<path id="Path 389" class="s16" d="m840 495l-10-9 4 1 9 7v5l-2-1z"/>
		<path id="Path 390" class="s86" d="m125 488l3-1 2 4-2 3z"/>
		<path id="Path 391" class="s27" d="m157 493l2-6 3 4-3 4z"/>
		<path id="Path 392" class="s78" d="m166 488l9-1 2 1v3l-9 5-4-5z"/>
		<path id="Path 393" class="s37" d="m202 490v-3h6l4 11v4l-2 2h-9l-2-4z"/>
		<path id="Path 394" class="s47" d="m141 494v-6h7l-1 4z"/>
		<path id="Path 395" class="s68" d="m177 491v-3h3v3z"/>
		<path id="Path 396" class="s59" d="m285 494v-6h7l2 8h-4z"/>
		<path id="Path 397" class="s67" d="m479 498l-3-10 9 2-3 8z"/>
		<path id="Path 398" class="s61" d="m566 494l1-6h11l2 12-2 6-10-1z"/>
		<path id="Path 399" class="s45" d="m606 498v-10h8l5 4-1 8z"/>
		<path id="Path 400" class="s26" d="m732 490l13-2 1 2z"/>
		<path id="Path 401" class="s7" d="m797 509l5-21h8l3 3 1 11-2 17-4-2z"/>
		<path id="Path 402" class="s74" d="m212 498h6l3-8 6 1 7 19v4l-5 3-9-15h-8z"/>
		<path id="Path 403" class="s69" d="m307 500l-1-10h9l4 6-5 4z"/>
		<path id="Path 404" class="s51" d="m482 498l3-8 21 2 2 13-3 1h-14z"/>
		<path id="Path 405" class="s14" d="m712 493l17-3-17 4z"/>
		<path id="Path 406" class="s28" d="m93 499l7-8 2 1v13l-1 1h-4z"/>
		<path id="Path 407" class="s27" d="m128 494l2-3h1l7 5-2 4h-4z"/>
		<path id="Path 408" class="s56" d="m159 495l3-4h2l4 5v8l-6 6-4 2h-4l-2-6 2-3z"/>
		<path id="Path 409" class="s79" d="m168 496l9-5h3l4 7v10l-1 3h-5l-4-6-6-1z"/>
		<path id="Path 410" class="s29" d="m102 505v-13h2 5l8 8-1 4-10 2z"/>
		<path id="Path 411" class="s90" d="m241 501l-5-4v-5l6 6z"/>
		<path id="Path 412" class="s67" d="m430 502v-10h8l12 1 6 7-6 8h-5-13z"/>
		<path id="Path 413" class="s67" d="m508 505l-2-13h4l8 2 1 7-3 7h-4z"/>
		<path id="Path 414" class="s60" d="m518 494v-2h4l4 6-3 3h-4z"/>
		<path id="Path 415" class="s60" d="m531 498v-4l5-2 8 2v6 2l-4 2z"/>
		<path id="Path 416" class="s10" d="m761 495l-8-3h3l5 2z"/>
		<path id="Path 417" class="s7" d="m776 498l2-6h8v6l-7 2h-1-1z"/>
		<path id="Path 418" class="s84" d="m151 500l6-7 2 2-5 8z"/>
		<path id="Path 419" class="s11" d="m707 495l5-2v1z"/>
		<path id="Path 420" class="s70" d="m264 496l21-2 5 2v5l-4 5h-6l-12 2v-3l-4-1z"/>
		<path id="Path 421" class="s73" d="m362 503v-9h6v10z"/>
		<path id="Path 422" class="s60" d="m552 500l3-6h11l2 11-12 1-4-2z"/>
		<path id="Path 423" class="s11" d="m761 495v-1h1l14 4 1 2z"/>
		<path id="Path 424" class="s3" d="m843 499v-5l3 4z"/>
		<path id="Path 425" class="s36" d="m680 497l16-2-3 4-5 2 8 3-1 6-3 3-5 2h-1-1l-4-10-5-3z"/>
		<path id="Path 426" class="s91" d="m837 498l3-3 1 3z"/>
		<path id="Path 427" class="s9" d="m88 502v-6l2 2z"/>
		<path id="Path 428" class="s72" d="m254 500l1-4h9v8l-1 4-1 2h-6z"/>
		<path id="Path 429" class="s67" d="m290 501v-5h4v4 1z"/>
		<path id="Path 430" class="s70" d="m314 500l5-4h11l2 6-1 5h-5l-4 4v9l-2 7-7 1-3-4h-12l-2-12 14-2 4-4z"/>
		<path id="Path 431" class="s9" d="m695 499l9-2-9 3z"/>
		<path id="Path 432" class="s59" d="m88 502l2-4 3 1 4 7h4l1 4-2 8-11-3-2-2z"/>
		<path id="Path 433" class="s75" d="m184 508v-10l11 2-1 6-2 2z"/>
		<path id="Path 434" class="s59" d="m241 501l1-3h3l1 2-3 10-3 2v-3z"/>
		<path id="Path 435" class="s70" d="m472 506l7-8h3l9 8-2 11-10 7-1-6-6-4z"/>
		<path id="Path 436" class="s67" d="m523 501l3-3h5l9 6v5l-12 1-3-1z"/>
		<path id="Path 437" class="s49" d="m606 501v-3l12 2v6h-8z"/>
		<path id="Path 438" class="s78" d="m332 502l12-3 6 1v6l-6 5 1 11 4 4-1 10-2 1-10-2-1-14-13-1v-9l4-4h5z"/>
		<path id="Path 439" class="s17" d="m696 504l-8-3 5-2h2v1l-1 2h7v2z"/>
		<path id="Path 440" class="s32" d="m116 504l1-4 23 10v6l-2 2h-16v-9z"/>
		<path id="Path 441" class="s38" d="m194 506l1-6h4l2 4-3 2z"/>
		<path id="Path 442" class="s73" d="m243 510l3-10h8l2 10-1 3z"/>
		<path id="Path 443" class="s82" d="m294 501v-1h13 7v6l-4 4-14 2z"/>
		<path id="Path 444" class="s65" d="m450 508l6-8h2l6 2 1 4h4 3v8l-6 3v5l-6 1-10-9z"/>
		<path id="Path 445" class="s40" d="m544 502v-2h8v4z"/>
		<path id="Path 446" class="s46" d="m578 506l2-6 26 1 4 5-6 6 3 11-2 3-14 1-3-3v-11l-3-3h-7z"/>
		<path id="Path 447" class="s2" d="m782 504l-4-4h1l3 2z"/>
		<path id="Path 448" class="s10" d="m827 501l2-1 5 6h-3z"/>
		<path id="Path 449" class="s72" d="m280 506h6l4-5h4l2 11 2 12-8 6h-6v-8l-4-2z"/>
		<path id="Path 450" class="s56" d="m512 508h4l3-7h4l2 8 3 1v10h-10l-6-1v-4-5z"/>
		<path id="Path 451" class="s20" d="m814 502l13-1 4 5-3 9 1 11-5-1h-1l-10-5-1-1z"/>
		<path id="Path 452" class="s10" d="m84 504l4-2-1 11h-1l-2-1z"/>
		<path id="Path 453" class="s76" d="m210 504l2-2h8l9 15v6l-11 1-2-4h-6z"/>
		<path id="Path 454" class="s70" d="m428 504l2-2 2 6h-4z"/>
		<path id="Path 455" class="s77" d="m469 506h-4l-1-4h4z"/>
		<path id="Path 456" class="s88" d="m540 504l4-2 8 2 4 2v10l-2 2h-12l-2-9z"/>
		<path id="Path 457" class="s50" d="m672 504l4-2 5 3 4 10-3 1h-8l-3-8z"/>
		<path id="Path 458" class="s33" d="m701 504v-2h3v5l-5 3v-1z"/>
		<path id="Path 459" class="s13" d="m782 504v-2l4 3z"/>
		<path id="Path 460" class="s74" d="m350 506l12-3 6 1v5l7 2 4 5v10l-7 4h-6l-17-4-4-4-1-11z"/>
		<path id="Path 461" class="s85" d="m106 506l10-2 6 5v9l-5 6-5-1v-1-6l-4-1-2-5z"/>
		<path id="Path 462" class="s58" d="m162 510l6-6 6 1 4 6v8l-1 2-6 1-1-6z"/>
		<path id="Path 463" class="s79" d="m198 506l3-2h9v16 8l-6 1-6-8v-9z"/>
		<path id="Path 464" class="s76" d="m263 508l1-4 4 1v3z"/>
		<path id="Path 465" class="s68" d="m390 514l1-10h7l3 6-3 6h-6z"/>
		<path id="Path 466" class="s73" d="m410 510l4-6h14v4l-2 12-2 8h-6l-3-5-5-1z"/>
		<path id="Path 467" class="s28" d="m663 508l2-4h7l-1 4z"/>
		<path id="Path 468" class="s52" d="m695 510l1-6h5l-2 5z"/>
		<path id="Path 469" class="s43" d="m101 506l1-1 4 1v4h-4z"/>
		<path id="Path 470" class="s72" d="m505 506l3-1 4 3v2h-4z"/>
		<path id="Path 471" class="s56" d="m556 506l12-1 10 1v4l-2 14 4 3v9l-2 2h-6l-4-1v-4l-5-4v-10l-7-3z"/>
		<path id="Path 472" class="s13" d="m789 507l-3-2 3 1z"/>
		<path id="Path 473" class="s6" d="m836 506l5-1v1z"/>
		<path id="Path 474" class="s9" d="m841 506v-1l5 2z"/>
		<path id="Path 475" class="s32" d="m148 510l4-4 2 6-3 2z"/>
		<path id="Path 476" class="s53" d="m192 508l2-2h4v6h-6z"/>
		<path id="Path 477" class="s73" d="m268 508l12-2v14l4 2v8l-15 4h-3v-4l-5-1-2-7 3-12 1-2z"/>
		<path id="Path 478" class="s82" d="m479 524l10-7 2-11h14l3 4v4l4 1v4 4l-10 4v10l4 3v4h-16l-2-3h-8l-4-5z"/>
		<path id="Path 479" class="s38" d="m607 523l-3-11 6-6h8l3 5-3 6-4 5z"/>
		<path id="Path 480" class="s16" d="m789 507v-1l3 2z"/>
		<path id="Path 481" class="s80" d="m829 526l-1-11 3-9h3 1l12 3 1 1 11 12 7 5-2 6h-8l-8-2h-1l-7-2z"/>
		<path id="Path 482" class="s91" d="m847 509l-12-3h1 5l5 1h1z"/>
		<path id="Path 483" class="s13" d="m847 509v-2l5 6-4-3z"/>
		<path id="Path 484" class="s51" d="m183 511l1-3h8v4l-8 2z"/>
		<path id="Path 485" class="s72" d="m426 520l2-12h4v12z"/>
		<path id="Path 486" class="s51" d="m432 520v-12h13v5l5 1 10 9v5l-8 6-10-2v-10z"/>
		<path id="Path 487" class="s88" d="m450 514l-5-1v-5h5z"/>
		<path id="Path 488" class="s90" d="m660 509l3-1h8l3 8-2 2h-2-9l-4-5z"/>
		<path id="Path 489" class="s16" d="m798 513l-4-1-1-4 4 1 11 8h-2l-5-2z"/>
		<path id="Path 490" class="s7" d="m234 510l6-1v3l-2 8h-5l1-6z"/>
		<path id="Path 491" class="s89" d="m528 510l12-1 2 9-14 2z"/>
		<path id="Path 492" class="s27" d="m650 510l10-1-3 4-7 1z"/>
		<path id="Path 493" class="s4" d="m695 510l4-1v1l-5 4-2-1z"/>
		<path id="Path 494" class="s63" d="m100 518l2-8h4l2 5 4 1v6l-9-2h-2z"/>
		<path id="Path 495" class="s59" d="m140 516v-6h8l3 4-7 2z"/>
		<path id="Path 496" class="s79" d="m158 512l4-2 8 6 1 6-10 2z"/>
		<path id="Path 497" class="s56" d="m240 512l3-2 12 3v7l4 2 2 7 1 5-9 4-15-3-1-3 1-12z"/>
		<path id="Path 498" class="s78" d="m255 513l1-3h6l-3 12-4-2z"/>
		<path id="Path 499" class="s78" d="m398 516l3-6h9v12l-12-1z"/>
		<path id="Path 500" class="s88" d="m512 515l-4-1v-4h4z"/>
		<path id="Path 501" class="s89" d="m580 536v-9l-4-3 2-14h7l3 3v11l3 3-2 8z"/>
		<path id="Path 502" class="s86" d="m642 516l1-6h7v4l-5 2z"/>
		<path id="Path 503" class="s91" d="m859 522l-11-12 4 3 3 3 1 1 2 2z"/>
		<path id="Path 504" class="s76" d="m178 519v-8h5l1 3v5z"/>
		<path id="Path 505" class="s74" d="m151 514l3-2h4l3 12-1 4h-5l-2-3-9-1v-2-6z"/>
		<path id="Path 506" class="s66" d="m184 514l8-2h6v9l6 8-1 8-6 5h-2l-1-2v-7l-8-3-1-7-1-4z"/>
		<path id="Path 507" class="s23" d="m89 515l-3-2h1z"/>
		<path id="Path 508" class="s36" d="m650 514l7-1 4 5-1 2h-1l-9 1h-5v-5z"/>
		<path id="Path 509" class="s9" d="m687 515l5-2 2 1z"/>
		<path id="Path 510" class="s82" d="m229 517l5-3-1 6-3 6h-1v-3z"/>
		<path id="Path 511" class="s78" d="m379 516l11-2 2 2v5l-7 5h-6z"/>
		<path id="Path 512" class="s72" d="m460 523l6-1v-5l6-3 6 4 1 6-3 12-11 2v18l9 8v6l-2 4h-12v-6l-6-6-2-28 8-6z"/>
		<path id="Path 513" class="s23" d="m101 520l-12-5 11 3z"/>
		<path id="Path 514" class="s9" d="m682 516l3-1h1l-4 2z"/>
		<path id="Path 515" class="s67" d="m138 518l2-2h4v6h-6z"/>
		<path id="Path 516" class="s73" d="m392 521v-5h6v5z"/>
		<path id="Path 517" class="s49" d="m554 518l2-2 7 3v10l5 4v4 3l-10 3-4-5z"/>
		<path id="Path 518" class="s28" d="m628 520l2-3 12-1h3v5l-2 1-6 1h-3l-6 2z"/>
		<path id="Path 519" class="s8" d="m672 518l2-2h8v1l-2 1z"/>
		<path id="Path 520" class="s85" d="m607 523l7-1 4-5 4 3-3 8h4l-2 2-4 2-5 3h-1-2l-4-9z"/>
		<path id="Path 521" class="s10" d="m813 522l-7-5h2l4 2 1 1z"/>
		<path id="Path 522" class="s5" d="m858 519l-2-2 3 2z"/>
		<path id="Path 523" class="s63" d="m117 524l5-6h16v4l-6 3v3l-9-1-6-2z"/>
		<path id="Path 524" class="s77" d="m528 520l14-2h12v20l4 5-1 3-16 2-7-4-5-6h-7v-6l-4-1v-7-4z"/>
		<path id="Path 525" class="s54" d="m660 520l1-2h9l-1 2z"/>
		<path id="Path 526" class="s6" d="m669 520l1-2h2 8z"/>
		<path id="Path 527" class="s77" d="m177 521l1-2h6l1 4-5 1z"/>
		<path id="Path 528" class="s63" d="m512 523v-4l6 1v4z"/>
		<path id="Path 529" class="s16" d="m859 522l-1-3h1l5 3 2 2 1 1 1 3-2-1z"/>
		<path id="Path 530" class="s92" d="m112 524l-9-4 9 2v1z"/>
		<path id="Path 531" class="s58" d="m210 528v-8h6l2 4-3 4z"/>
		<path id="Path 532" class="s50" d="m230 526l3-6h5l-1 12h-4z"/>
		<path id="Path 533" class="s51" d="m320 527l2-7 13 1 1 14-10 1z"/>
		<path id="Path 534" class="s65" d="m424 528l2-8h6l10 2v10l-18 2z"/>
		<path id="Path 535" class="s25" d="m623 528h-4l3-8h6v5z"/>
		<path id="Path 536" class="s92" d="m650 521l9-1-9 2z"/>
		<path id="Path 537" class="s92" d="m813 522v-2l10 5z"/>
		<path id="Path 538" class="s51" d="m171 522l6-1 3 3v8l-6 3-8 1-5-2-1-6 1-4z"/>
		<path id="Path 539" class="s72" d="m379 526h6l7-5h6l12 1 5 1 3 5h6v6 12l-16-3v-5l-7-4-14 2-15-4v-2z"/>
		<path id="Path 540" class="s17" d="m643 522l2-1h5v1h-6z"/>
		<path id="Path 541" class="s49" d="m132 528v-3l6-3h6v2 7l-6-1h-4z"/>
		<path id="Path 542" class="s13" d="m637 523l6-1h1z"/>
		<path id="Path 543" class="s13" d="m112 524v-1l5 1v1z"/>
		<path id="Path 544" class="s65" d="m180 524l5-1 1 7-2 2h-4z"/>
		<path id="Path 545" class="s74" d="m218 524l11-1v3l-5 6-6 1-3-5z"/>
		<path id="Path 546" class="s59" d="m506 540l-4-3v-10l10-4 6 1v7l-2 9z"/>
		<path id="Path 547" class="s0" d="m628 525l6-2-3 4-10 3 2-2z"/>
		<path id="Path 548" class="s69" d="m144 531v-7l9 1 2 3-2 7h-2z"/>
		<path id="Path 549" class="s44" d="m290 530l8-6h12l3 4-1 9-3 1v6l-7 1-6-2v-8z"/>
		<path id="Path 550" class="s92" d="m840 530l-10-1-6-4 5 1 11 3z"/>
		<path id="Path 551" class="s34" d="m224 532l5-6h1l3 6-7 3z"/>
		<path id="Path 552" class="s73" d="m348 536l1-10 17 4v2z"/>
		<path id="Path 553" class="s86" d="m591 527l14-1 4 9-3 2-7 3-7 2h-2l2-6-3-1z"/>
		<path id="Path 554" class="s23" d="m134 530l-11-3 9 1z"/>
		<path id="Path 555" class="s46" d="m313 528l7-1 6 9v4h-6l-8-3z"/>
		<path id="Path 556" class="s30" d="m864 533l2-6 2 1v3l-2 2z"/>
		<path id="Path 557" class="s59" d="m153 535l2-7h5l1 6-2 3z"/>
		<path id="Path 558" class="s65" d="m204 529l6-1h5l3 5-1 2-1 5v4l-4 4-8-1-7-5 6-5z"/>
		<path id="Path 559" class="s57" d="m262 534l-1-5 5 1v4z"/>
		<path id="Path 560" class="s64" d="m366 530h6v2l-2 2-4-2z"/>
		<path id="Path 561" class="s52" d="m840 530v-1l7 2h-1l-5-1z"/>
		<path id="Path 562" class="s5" d="m151 535l-13-5 6 1z"/>
		<path id="Path 563" class="s67" d="m184 532l2-2 8 3v7h-4l-6-4z"/>
		<path id="Path 564" class="s93" d="m269 534l15-4h6l6 5v8l-7 4-6 1h-6l-4 6h-1-8v-8l-4-4 6-2z"/>
		<path id="Path 565" class="s45" d="m516 540l2-9 4 1v6 2z"/>
		<path id="Path 566" class="s52" d="m848 532v-1l8 2h-2z"/>
		<path id="Path 567" class="s3" d="m866 533l2-2h1z"/>
		<path id="Path 568" class="s89" d="m174 535l6-3h4v4l6 4v4l-5 2v3l-4-2-3-2-6-3z"/>
		<path id="Path 569" class="s64" d="m218 533l6-1 2 3-6 5h-1l1-5h-3z"/>
		<path id="Path 570" class="s51" d="m226 535l7-3h4l1 3v10l-6 3h-5l-7-5v-3z"/>
		<path id="Path 571" class="s70" d="m348 536l18-4 4 2v11l-11 2-2 8-6 4-5-11v-11z"/>
		<path id="Path 572" class="s82" d="m370 534l2-2 15 4 14-2 7 4v5l-8 15-1 4-9 1-2 3h-14l-2-4 2-14-4-3z"/>
		<path id="Path 573" class="s88" d="m424 534l18-2 10 2 2 28h-9l-1 4-8 2h-16v-6l4-7v-9z"/>
		<path id="Path 574" class="s77" d="m159 537l2-3 5 2 1 6-4-2z"/>
		<path id="Path 575" class="s44" d="m253 538l9-4h4 3l-3 6-6 2h-4l-3-1z"/>
		<path id="Path 576" class="s11" d="m163 540l-10-5 6 2z"/>
		<path id="Path 577" class="s32" d="m166 536l8-1-2 7h-4-1z"/>
		<path id="Path 578" class="s34" d="m216 540l1-5h3l-1 5z"/>
		<path id="Path 579" class="s18" d="m238 545v-10l15 3v3l-7 2 3 8-1 3-6-1z"/>
		<path id="Path 580" class="s72" d="m326 536l10-1 10 2v11h-6-4l-4-2-2-5-4-1z"/>
		<path id="Path 581" class="s27" d="m580 536l9-1 3 1-2 6v1l-6 2-5 1-1-8z"/>
		<path id="Path 582" class="s23" d="m606 537l3-2h2z"/>
		<path id="Path 583" class="s88" d="m474 564l-9-8v-18l11-2 4 5h8l2 3 3 20-5 4-8-2z"/>
		<path id="Path 584" class="s51" d="m309 544v-6l3-1 8 3v4z"/>
		<path id="Path 585" class="s63" d="m568 540v-3l4 1v2z"/>
		<path id="Path 586" class="s88" d="m522 540v-2h7l5 6-8 3-4-2z"/>
		<path id="Path 587" class="s43" d="m572 540v-2h6l1 8-4 2h-2l-1-1z"/>
		<path id="Path 588" class="s77" d="m190 544v-4h4l1 2-3 2z"/>
		<path id="Path 589" class="s69" d="m216 544v-4h3 1v3z"/>
		<path id="Path 590" class="s70" d="m320 544v-4h6l4 1 2 5-1 5h4l1-3h4l-2 12-13 2-5-3z"/>
		<path id="Path 591" class="s89" d="m506 544v-4h10 6v5l4 2v9l-10 5h-8l-2-1z"/>
		<path id="Path 592" class="s85" d="m558 543l10-3h4v7l-8 3h-6l-1-4z"/>
		<path id="Path 593" class="s36" d="m249 551l-3-8 7-2 3 1-2 10z"/>
		<path id="Path 594" class="s5" d="m178 545l-10-3h4z"/>
		<path id="Path 595" class="s21" d="m192 544l3-2h2l7 5-6 6h-3l-3-1v-1z"/>
		<path id="Path 596" class="s25" d="m254 552l2-10h4l4 4v8h-10z"/>
		<path id="Path 597" class="s5" d="m590 543v-1h2l-2 2z"/>
		<path id="Path 598" class="s78" d="m216 544l4-1 7 5-5 4h-7l-3-4z"/>
		<path id="Path 599" class="s59" d="m289 547l7-4 6 2v3l-8 2h-4z"/>
		<path id="Path 600" class="s70" d="m400 558l8-15 16 3v9l-4 7-14-4z"/>
		<path id="Path 601" class="s11" d="m584 545l6-2v1z"/>
		<path id="Path 602" class="s18" d="m185 549v-3l5-2h2v7l-6-1z"/>
		<path id="Path 603" class="s72" d="m302 545l7-1h11v15l-6 2-12-13z"/>
		<path id="Path 604" class="s65" d="m493 564l-3-20h16v16l-7 4z"/>
		<path id="Path 605" class="s56" d="m526 547l8-3 7 4-4 7-11 1z"/>
		<path id="Path 606" class="s69" d="m232 548l6-3 4 8 6 1v10h-2l-14-3v-1z"/>
		<path id="Path 607" class="s69" d="m357 555l2-8 11-2 4 3-2 14h-10v-5z"/>
		<path id="Path 608" class="s11" d="m579 546l5-1-7 4 5 1v4h-1l-6-6z"/>
		<path id="Path 609" class="s18" d="m336 548l-1 3h-4l1-5z"/>
		<path id="Path 610" class="s87" d="m541 548l16-2 1 4-2 6 3 1-1 2-16 3h-4l-1-7z"/>
		<path id="Path 611" class="s5" d="m186 550l-5-3 4 2z"/>
		<path id="Path 612" class="s82" d="m198 553l6-6 8 1 3 4h7l5-4h5v12h-4-5l-10-3z"/>
		<path id="Path 613" class="s82" d="m283 548l6-1 1 3h4l-1 10-8-1-4-5z"/>
		<path id="Path 614" class="s28" d="m564 550l8-3 1 1-3 7-6 1z"/>
		<path id="Path 615" class="s55" d="m273 554l4-6h6l-2 6z"/>
		<path id="Path 616" class="s70" d="m294 550l8-2 12 13-7 5h-6l-6-2-2-4z"/>
		<path id="Path 617" class="s82" d="m338 560l2-12h6l5 11-1 3h-11z"/>
		<path id="Path 618" class="s59" d="m570 555l3-7h2l6 6-4 3-5 1z"/>
		<path id="Path 619" class="s14" d="m191 552l-5-2 6 1v1z"/>
		<path id="Path 620" class="s27" d="m559 557l-3-1 2-6h6v6l-2 1z"/>
		<path id="Path 621" class="s59" d="m248 554l1-3 5 1v2l-3 10h-3z"/>
		<path id="Path 622" class="s5" d="m195 554l-4-2h1l3 1z"/>
		<path id="Path 623" class="s13" d="m195 554v-1h3l15 4z"/>
		<path id="Path 624" class="s77" d="m251 564l3-10h10 8v8l-4 1v5l-17-3z"/>
		<path id="Path 625" class="s72" d="m272 562v-8h1 8l4 5-7 3z"/>
		<path id="Path 626" class="s23" d="m577 557l4-3h1l-1 3z"/>
		<path id="Path 627" class="s18" d="m351 559l6-4 5 2v5 8 6l7 3v5h-2-10l-4-1-14-2-5-1h-3l-9-2v-8h4l2-4h10l1-4h11z"/>
		<path id="Path 628" class="s93" d="m526 556l11-1 1 7-4 2-6 2-16 2-4-1v-6h8z"/>
		<path id="Path 629" class="s71" d="m564 556l6-1 2 3v1l-7 1-3-3z"/>
		<path id="Path 630" class="s42" d="m558 559l1-2h3l3 3-3 3h-4z"/>
		<path id="Path 631" class="s23" d="m572 558l5-1-5 2z"/>
		<path id="Path 632" class="s89" d="m399 562l1-4h6v8h-6z"/>
		<path id="Path 633" class="s82" d="m406 566v-8l14 4v6l-2 8h-13v-5z"/>
		<path id="Path 634" class="s21" d="m278 562l7-3 8 1 2 4 6 2h6l7-5 6-2 5 3 13-2 1 2-1 4h-10l-2 4h-4v8l-6-1-10-2-5-1-18-3-5-1z"/>
		<path id="Path 635" class="s38" d="m542 562l16-3v4l-4 2-7 2-5 1z"/>
		<path id="Path 636" class="s33" d="m565 560l7-1-9 4h-1z"/>
		<path id="Path 637" class="s26" d="m229 562l-1-2h4v1z"/>
		<path id="Path 638" class="s44" d="m499 564l7-4 2 1v6l-6 1z"/>
		<path id="Path 639" class="s5" d="m229 562l3-1 14 3v1z"/>
		<path id="Path 640" class="s69" d="m268 568v-5l4-1h6v8h-5z"/>
		<path id="Path 641" class="s59" d="m362 570v-8h10l2 4h14l2 4v4h-16l-3-4z"/>
		<path id="Path 642" class="s18" d="m388 566l2-3 9-1 1 4v4h-10z"/>
		<path id="Path 643" class="s77" d="m444 566l1-4h9l6 6v6l-2 8-11 2 2-5-5-3z"/>
		<path id="Path 644" class="s24" d="m534 564l4-2h4v6h-4-4z"/>
		<path id="Path 645" class="s5" d="m554 565l4-2h4 1z"/>
		<path id="Path 646" class="s11" d="m246 565v-1h2 3v1z"/>
		<path id="Path 647" class="s65" d="m474 570v-6l6 2v4z"/>
		<path id="Path 648" class="s46" d="m488 568l5-4h6l3 4 2 6v1l-11 3h-4l-1-7z"/>
		<path id="Path 649" class="s38" d="m528 566l6-2v4l-2 1h-3z"/>
		<path id="Path 650" class="s0" d="m273 570l-22-5 17 3z"/>
		<path id="Path 651" class="s77" d="m400 570v-4h6l-1 5z"/>
		<path id="Path 652" class="s59" d="m436 568l8-2v10h-8z"/>
		<path id="Path 653" class="s51" d="m480 570v-4l8 2v3l-4 1z"/>
		<path id="Path 654" class="s39" d="m512 568l16-2 1 3v1h-3l-9 2h-5z"/>
		<path id="Path 655" class="s48" d="m502 568l6-1 4 1v4l-8 2z"/>
		<path id="Path 656" class="s0" d="m542 568l5-1-9 2v-1z"/>
		<path id="Path 657" class="s77" d="m418 576l2-8h16v8h-2z"/>
		<path id="Path 658" class="s23" d="m532 569l2-1h4v1z"/>
		<path id="Path 659" class="s23" d="m529 570v-1h3z"/>
		<path id="Path 660" class="s10" d="m283 572l-5-2 5 1z"/>
		<path id="Path 661" class="s32" d="m369 584v-5l-7-3v-6h9l3 4h16l15 2h13 16l1 11h-11-1l-15-1h-13-7-1l-10-1h-1z"/>
		<path id="Path 662" class="s49" d="m390 574v-4h10l5 1v5z"/>
		<path id="Path 663" class="s45" d="m472 574l2-4h6l4 2 1 6-5 2h-6-2z"/>
		<path id="Path 664" class="s13" d="m283 572v-1l18 3v1z"/>
		<path id="Path 665" class="s86" d="m484 572l4-1 1 7h-4z"/>
		<path id="Path 666" class="s13" d="m504 574l8-2h5l-13 3z"/>
		<path id="Path 667" class="s11" d="m301 575v-1l5 1z"/>
		<path id="Path 668" class="s59" d="m458 582l2-8h12v6l-3 1z"/>
		<path id="Path 669" class="s55" d="m435 587l-1-11h2 8l5 3-2 5-2 1z"/>
		<path id="Path 670" class="s0" d="m331 580l-15-3 6 1z"/>
		<path id="Path 671" class="s9" d="m480 580l5-2h4 4z"/>
		<path id="Path 672" class="s10" d="m339 582l-5-2 5 1z"/>
		<path id="Path 673" class="s10" d="m469 581l3-1h2l-5 2z"/>
		<path id="Path 674" class="s13" d="m339 582v-1l14 2v1z"/>
		<path id="Path 675" class="s11" d="m458 582l11-1v1l-24 3 2-1z"/>
		<path id="Path 676" class="s5" d="m353 584v-1l4 1v1z"/>
		<path id="Path 677" class="s11" d="m357 585v-1h10v1z"/>
		<path id="Path 678" class="s12" d="m367 585v-1h2l7 1z"/>
		<path id="Path 679" class="s23" d="m382 587l-6-2h1l5 1z"/>
		<path id="Path 680" class="s24" d="m382 586l-5-1 10 1z"/>
		<path id="Path 681" class="s0" d="m382 587v-1h5 1v1z"/>
		<path id="Path 682" class="s9" d="m388 587v-1h7v1z"/>
		<path id="Path 683" class="s6" d="m395 587v-1h13v1z"/>
		<path id="Path 684" class="s24" d="m408 587v-1l15 1v1h-13z"/>
		<path id="Path 685" class="s2" d="m408 589v-2l2 1v1z"/>
		<path id="Path 686" class="s5" d="m423 587h1v1h-1z"/>
		<path id="Path 687" class="s0" d="m410 589v-1h13v1z"/>
	</g>
</svg>