<svg version="1.2" xmlns="http://www.w3.org/2000/svg" viewBox="0 0 1000 1000" width="1000" height="1000">
	<title>Coregonus_clupeaformis</title>
	<style>
		.s0 { opacity: .8;fill: #878986 } 
		.s1 { opacity: .3;fill: #dddede } 
		.s2 { opacity: .5;fill: #a7a8a5 } 
		.s3 { fill: #76776e } 
		.s4 { opacity: .7;fill: #656967 } 
		.s5 { opacity: .7;fill: #969895 } 
		.s6 { fill: #2f3536 } 
		.s7 { fill: #353d3d } 
		.s8 { opacity: .1;fill: #c7c8c7 } 
		.s9 { opacity: 1;fill: #4b5150 } 
		.s10 { fill: #262b2b } 
		.s11 { opacity: .9;fill: #9a9d9a } 
		.s12 { opacity: .2;fill: #7d807c } 
		.s13 { opacity: .1;fill: #e1e2e1 } 
		.s14 { fill: #202424 } 
		.s15 { opacity: .5;fill: #767975 } 
		.s16 { fill: #171e21 } 
		.s17 { fill: #2a2f30 } 
		.s18 { opacity: .1;fill: #a5a6a4 } 
		.s19 { opacity: .3;fill: #c3c4c3 } 
		.s20 { opacity: .1;fill: #525754 } 
		.s21 { opacity: .7;fill: #c3c3c3 } 
		.s22 { fill: #474640 } 
		.s23 { fill: #3c4547 } 
		.s24 { opacity: 1;fill: #525b5d } 
		.s25 { opacity: .3;fill: #8a8c86 } 
		.s26 { opacity: .5;fill: #8d8d89 } 
		.s27 { opacity: .3;fill: #424745 } 
		.s28 { fill: #6f7e85 } 
		.s29 { fill: #6c7679 } 
		.s30 { fill: #5b5142 } 
		.s31 { fill: #91928a } 
		.s32 { fill: #8d8a7c } 
		.s33 { opacity: 1;fill: #5e5e57 } 
		.s34 { fill: #5d6666 } 
		.s35 { fill: #7f8078 } 
		.s36 { fill: #858884 } 
		.s37 { fill: #91a0a8 } 
		.s38 { fill: #666e6e } 
		.s39 { fill: #bac0c4 } 
		.s40 { fill: #909798 } 
		.s41 { fill: #aab0b0 } 
		.s42 { fill: #c6c6c6 } 
		.s43 { fill: #a5a9a8 } 
		.s44 { fill: #babcbc } 
		.s45 { fill: #f0f1f3 } 
		.s46 { fill: #9fa29e } 
		.s47 { opacity: .6;fill: #dbdcdc } 
		.s48 { opacity: .7;fill: #acadac } 
		.s49 { fill: #99a7af } 
		.s50 { fill: #b1b6b7 } 
		.s51 { fill: #f8f9fa } 
		.s52 { opacity: .3;fill: #a2a3a1 } 
		.s53 { fill: #758997 } 
		.s54 { fill: #7c888d } 
		.s55 { fill: #9a9a93 } 
		.s56 { opacity: .3;fill: #f5f5f5 } 
		.s57 { opacity: .5;fill: #5a5f5c } 
		.s58 { fill: #ccd3db } 
		.s59 { opacity: .7;fill: #767975 } 
		.s60 { fill: #c3c9ce } 
		.s61 { fill: #f4f5f7 } 
		.s62 { fill: #cecfd0 } 
		.s63 { fill: #fdfdfd } 
		.s64 { fill: #e4e4e5 } 
		.s65 { opacity: .1;fill: #f4f4f5 } 
		.s66 { fill: #e7e9ec } 
		.s67 { fill: #dadbdc } 
		.s68 { fill: #ecedf0 } 
		.s69 { fill: #d8dee4 } 
		.s70 { fill: #e0e4ea } 
		.s71 { fill: #7d93a5 } 
		.s72 { fill: #9fb4c9 } 
		.s73 { fill: #9baebd } 
		.s74 { fill: #d4d5d6 } 
		.s75 { fill: #dfe0e1 } 
		.s76 { fill: #abbdce } 
		.s77 { fill: #8aa2b8 } 
		.s78 { opacity: .5;fill: #c3c4c4 } 
		.s79 { opacity: .3;fill: #686c66 } 
		.s80 { fill: #b1c5da } 
		.s81 { fill: #b9ccdf } 
		.s82 { fill: #849096 } 
		.s83 { fill: #cfddec } 
		.s84 { fill: #a5bed7 } 
		.s85 { opacity: .9;fill: #777a77 } 
		.s86 { fill: #c3d4e6 } 
		.s87 { fill: #827968 } 
		.s88 { fill: #3b3c37 } 
		.s89 { fill: #6a5a46 } 
		.s90 { fill: #746e61 } 
		.s91 { fill: #6c6457 } 
		.s92 { opacity: .7;fill: #dadbdb } 
		.s93 { opacity: .9;fill: #bfbfbe } 
		.s94 { opacity: .9;fill: #656a67 } 
	</style>
	<g id="Background">
		<path id="Path 0" class="s0" d="m401 422l9-1-2 2h-7z"/>
		<path id="Path 1" class="s1" d="m504 397l1-2h5l-1 2z"/>
		<path id="Path 2" class="s2" d="m509 397l1-2h6v2z"/>
		<path id="Path 3" class="s1" d="m516 397v-2h6v2z"/>
		<path id="Path 4" class="s3" d="m496 399l5-2h3 5 7 6v1h-9l-12 2-9 1 1-2z"/>
		<path id="Path 5" class="s4" d="m525 398l7-1v2h-1z"/>
		<path id="Path 6" class="s5" d="m532 399v-2h10v5l-4 1 2-4z"/>
		<path id="Path 7" class="s1" d="m542 402v-5h4v3z"/>
		<path id="Path 8" class="s6" d="m501 400l12-2v9 4h-8l-4-4z"/>
		<path id="Path 9" class="s7" d="m513 407v-9h9 3l6 1v8l-4 5-2 1-5-6z"/>
		<path id="Path 10" class="s8" d="m483 402l10-3-1 2h-3z"/>
		<path id="Path 11" class="s9" d="m531 407v-8h1 8l-2 4-5 4h-1z"/>
		<path id="Path 12" class="s10" d="m492 401l9-1v7l4 4h8l5 6h7v3 9h-6l-11-2-4-4h-11l-2-4v-13l-3-3 1-2z"/>
		<path id="Path 13" class="s11" d="m483 402l6-1-1 2h-5z"/>
		<path id="Path 14" class="s12" d="m478 404l5-2v1z"/>
		<path id="Path 15" class="s13" d="m538 403l4-1-9 5z"/>
		<path id="Path 16" class="s14" d="m478 404l5-1h5l3 3v13l-12-5-3-8 1-2z"/>
		<path id="Path 17" class="s15" d="m455 409l22-5-1 2-22 5z"/>
		<path id="Path 18" class="s16" d="m454 411l22-5 3 8 12 5 2 4v8h-6l-4-1-2-1-2-5-26-3-1-9z"/>
		<path id="Path 19" class="s17" d="m513 411v-4h7l5 6v2 2h-7z"/>
		<path id="Path 20" class="s8" d="m527 412l4-5h1z"/>
		<path id="Path 21" class="s18" d="m448 412l7-3-1 2-2 1z"/>
		<path id="Path 22" class="s19" d="m441 414l5-1-3 1z"/>
		<path id="Path 23" class="s10" d="m446 413l2-1h4l1 9-2 8h-4l-4-15z"/>
		<path id="Path 24" class="s8" d="m525 413l2-1-1 3h-1z"/>
		<path id="Path 25" class="s6" d="m436 416l4-2h1 2l4 15h-2-4l-8-2v-9l2-2z"/>
		<path id="Path 26" class="s4" d="m419 419l16-3-2 2-12 3h-2z"/>
		<path id="Path 27" class="s20" d="m525 417v-2h1l1 6-2-1z"/>
		<path id="Path 28" class="s10" d="m421 421l12-3v9h-10l-2-2z"/>
		<path id="Path 29" class="s21" d="m413 421l6-2v2z"/>
		<path id="Path 30" class="s12" d="m401 422l11-1h-2z"/>
		<path id="Path 31" class="s22" d="m525 429v-9l2 1 2 8z"/>
		<path id="Path 32" class="s23" d="m408 423l2-2h2 1 6 2v4l-11 1z"/>
		<path id="Path 33" class="s7" d="m451 429l2-8 26 3 2 5-3 1h-4l-1 3-3-3-8 2-6-3-3 4z"/>
		<path id="Path 34" class="s24" d="m389 424l9-1h3 7l2 3-7 11-4-3-6 3-6-2-1-5 2-6z"/>
		<path id="Path 35" class="s14" d="m493 431v-8h11l4 4 11 2v4l-4 2h-8l-3-3-7 2z"/>
		<path id="Path 36" class="s1" d="m374 426l5-2v1z"/>
		<path id="Path 37" class="s25" d="m379 425v-1h5z"/>
		<path id="Path 38" class="s9" d="m379 425l5-1h4l-2 6h-4l-2 5h-2l-2-4-5 3-3-2-9 2-2-1-1-5h3l10-2h3 2z"/>
		<path id="Path 39" class="s26" d="m359 428l1-3h9v1z"/>
		<path id="Path 40" class="s27" d="m369 426v-1l3 1z"/>
		<path id="Path 41" class="s28" d="m410 426l11-1 2 2-2 8-2 4h3v2l-2 6-5 1-1-3-8-1-3-7z"/>
		<path id="Path 42" class="s3" d="m423 427h10l8 2 2 5v1l-3 4-2-4h-4l-3 7-4 4-1-5h-4v-2l-1-4z"/>
		<path id="Path 43" class="s5" d="m346 429l10-1-6 1-3 1z"/>
		<path id="Path 44" class="s29" d="m350 429l6-1 1 5h-3-3z"/>
		<path id="Path 45" class="s9" d="m338 431l4-2h4l1 1v3l-2 2h-7l-1 4h-4-8l-1-5 7-2 5-1z"/>
		<path id="Path 46" class="s23" d="m347 430l3-1 1 4h-2-2z"/>
		<path id="Path 47" class="s30" d="m443 434l-2-5h4z"/>
		<path id="Path 48" class="s31" d="m443 434l2-5h2 4l2 4v2l-1 4 4 1 2 1-1 3-10-3v-4l-4-2z"/>
		<path id="Path 49" class="s32" d="m453 433l3-4 6 3v3l-5 2-4-2z"/>
		<path id="Path 50" class="s33" d="m478 430l3-1 2 1v2l-4 2z"/>
		<path id="Path 51" class="s17" d="m519 433v-4h6 4l2 3v5h-5-1z"/>
		<path id="Path 52" class="s18" d="m531 432l-2-3 8 3v1h-2z"/>
		<path id="Path 53" class="s8" d="m329 432l7-1-5 1z"/>
		<path id="Path 54" class="s34" d="m380 435l2-5h4l1 5-3 4h-3z"/>
		<path id="Path 55" class="s35" d="m462 432l8-2 3 3v2l-2 2-9-2z"/>
		<path id="Path 56" class="s31" d="m473 433l1-3h4l1 4 4-2h4l3 4-1 5-4 2-8-2v-4l-4-2z"/>
		<path id="Path 57" class="s36" d="m483 432v-2l4 1v1z"/>
		<path id="Path 58" class="s28" d="m359 434l9-2 3 2 5-3 2 4-2 4-7 7-3 3-4 1-4-3-2-5 1-6z"/>
		<path id="Path 59" class="s34" d="m487 432v-1h6l4 3-4 3-3-1z"/>
		<path id="Path 60" class="s2" d="m323 434l6-2h2l-7 2z"/>
		<path id="Path 61" class="s31" d="m497 434l7-2 3 3h8v2l-4 6-6-2-9 2-3-6z"/>
		<path id="Path 62" class="s7" d="m531 437v-5l4 1v4z"/>
		<path id="Path 63" class="s8" d="m537 433v-1l4 2z"/>
		<path id="Path 64" class="s37" d="m345 435l2-2h2l-1 4h-3z"/>
		<path id="Path 65" class="s38" d="m345 437h3l1-4h2 3v3h3l-1 6-5 3-6-2z"/>
		<path id="Path 66" class="s39" d="m357 436h-3v-3h3l2 1z"/>
		<path id="Path 67" class="s3" d="m515 435l4-2 6 4-7 1-3-1z"/>
		<path id="Path 68" class="s3" d="m531 437h4v-4h2l4 1h2l4 2h1l14 2v1 2l-7 1-14-1-15-3v-1z"/>
		<path id="Path 69" class="s2" d="m297 439l24-5-13 4-5 1-6 1z"/>
		<path id="Path 70" class="s38" d="m308 438l13-4h2 1l1 5h8v4h4v1 5l-13 2-1-4h-4l-2-4h-4z"/>
		<path id="Path 71" class="s40" d="m387 435l6 2 6-3 4 3 3 7-1 2-4 1-12-2-3-4-2-2z"/>
		<path id="Path 72" class="s34" d="m337 439l1-4h7v2 6l-4 2-4-1v-1z"/>
		<path id="Path 73" class="s41" d="m376 439l2-4h2l1 4z"/>
		<path id="Path 74" class="s42" d="m422 439h-3l2-4z"/>
		<path id="Path 75" class="s43" d="m431 442l3-7h4l2 4-1 6 5 3-2 3-8-2z"/>
		<path id="Path 76" class="s44" d="m440 439l3-4 4 2v4l10 3 2 3 4-2h4l6 2 1 2-1 2-9-2-5 3-5-4-2 7 5 4-13-1 4-5-4-5-5-3z"/>
		<path id="Path 77" class="s45" d="m456 440l-4-1 1-4 4 2z"/>
		<path id="Path 78" class="s46" d="m457 437l5-2 9 2v5l-4 3h-4l-5-4-2-1z"/>
		<path id="Path 79" class="s41" d="m471 437l2-2 4 2v4l-4 3-2-2z"/>
		<path id="Path 80" class="s25" d="m548 436l14 1v1z"/>
		<path id="Path 81" class="s44" d="m489 441l1-5 3 1 3 6z"/>
		<path id="Path 82" class="s42" d="m496 443l9-2 6 2 4-6 3 1-3 6 4 1 2 4-1 1-9 2-9-3-13 1-4 8-8 2v-8l-3-3-1-2v-3l4-3 8 2 4-2z"/>
		<path id="Path 83" class="s46" d="m518 438l7-1h1v1l1 9-1 2h-3v-5l-4 1-4-1z"/>
		<path id="Path 84" class="s47" d="m562 438v-1l4 2h-4z"/>
		<path id="Path 85" class="s46" d="m303 439l5-1 5 5-2 3z"/>
		<path id="Path 86" class="s44" d="m527 447l-1-9 15 3v6l-6 2z"/>
		<path id="Path 87" class="s48" d="m293 440l4-1v1 1h-4z"/>
		<path id="Path 88" class="s34" d="m297 440l6-1 8 7v1 4l-4 2h-6l-4-4v-8z"/>
		<path id="Path 89" class="s49" d="m337 443h-4v-4h4z"/>
		<path id="Path 90" class="s49" d="m369 446l7-7h5 3l2 2 1 4v6l-2 2-4 2-11-4z"/>
		<path id="Path 91" class="s38" d="m562 441v-2h4 2l-4 4z"/>
		<path id="Path 92" class="s41" d="m564 443l4-4h7v2h-4l2 6v2l-2 3 3 4-4 1-6-1-5-7z"/>
		<path id="Path 93" class="s12" d="m575 441v-2l5 1v1h-3z"/>
		<path id="Path 94" class="s13" d="m286 442l7-2v1l-6 1z"/>
		<path id="Path 95" class="s50" d="m541 441l14 1 1 5 1 13-4 1-5-3-1-5h-4l-2-6z"/>
		<path id="Path 96" class="s8" d="m580 441v-1l6 2h-1z"/>
		<path id="Path 97" class="s9" d="m287 442l6-1h4v8l-6 4-7-1-5-7z"/>
		<path id="Path 98" class="s36" d="m387 445l-1-4 3 4z"/>
		<path id="Path 99" class="s50" d="m420 447l2-6h4l1 5v5l4 4-1 2-7-2z"/>
		<path id="Path 100" class="s51" d="m457 444l1-3 5 4-4 2z"/>
		<path id="Path 101" class="s46" d="m555 442l7-1 2 2-5 6-3-2z"/>
		<path id="Path 102" class="s35" d="m573 447l-2-6h4 2v2l-2 4z"/>
		<path id="Path 103" class="s11" d="m577 443v-2h3l5 1-4 2h-2z"/>
		<path id="Path 104" class="s52" d="m273 445l13-3h1l-8 3-5 1h-1z"/>
		<path id="Path 105" class="s53" d="m351 445l5-3 2 5-1 3-6-2z"/>
		<path id="Path 106" class="s44" d="m427 446l4-4 3 7-1 6h-2l-4-4z"/>
		<path id="Path 107" class="s45" d="m467 445l4-3 2 2v3z"/>
		<path id="Path 108" class="s9" d="m581 444l4-2h1l1 1-1 2z"/>
		<path id="Path 109" class="s8" d="m588 443l5-1v1z"/>
		<path id="Path 110" class="s52" d="m593 443v-1l3 2z"/>
		<path id="Path 111" class="s29" d="m311 446l2-3h4l2 4h-8z"/>
		<path id="Path 112" class="s54" d="m341 445l4-2 6 2v3l-10 1z"/>
		<path id="Path 113" class="s45" d="m519 445l4-1v5h-2z"/>
		<path id="Path 114" class="s50" d="m575 447l2-4 2 1z"/>
		<path id="Path 115" class="s38" d="m586 445l1-2h1 5l3 1h3v1l-8 3z"/>
		<path id="Path 116" class="s28" d="m337 449v-5l4 1v4z"/>
		<path id="Path 117" class="s37" d="m405 446l1-2 8 1 1 3v6l-10 1z"/>
		<path id="Path 118" class="s55" d="m575 447l4-3h2l5 1 5 3v3h-4l1 3-1 2h-7l-7-7v-2z"/>
		<path id="Path 119" class="s52" d="m599 445v-1l10 1v1h-3z"/>
		<path id="Path 120" class="s56" d="m926 445l5-1v1l-2 1h-3z"/>
		<path id="Path 121" class="s25" d="m931 445v-1h8l3 3-3-1z"/>
		<path id="Path 122" class="s57" d="m264 447l9-2v1l-9 2z"/>
		<path id="Path 123" class="s28" d="m274 446l5-1 5 7 7 1v3l-4 2v4l7 3 4 3-3 11-4 4h-4l-6-11v-6l-11-11 6-4z"/>
		<path id="Path 124" class="s50" d="m387 451v-6h2l12 2-3 12-1 1h-3l-1-6h-4z"/>
		<path id="Path 125" class="s31" d="m591 448l8-3 7 1 1 6-4 1-3-2-7 2-2-2z"/>
		<path id="Path 126" class="s2" d="m609 446v-1l5 2v1z"/>
		<path id="Path 127" class="s15" d="m913 449l13-4v1z"/>
		<path id="Path 128" class="s33" d="m929 446l2-1 8 1v1h-3z"/>
		<path id="Path 129" class="s23" d="m264 448l9-2h1l2 5-6 4-3 1-4-7z"/>
		<path id="Path 130" class="s58" d="m366 449l3-3 1 5h-3z"/>
		<path id="Path 131" class="s58" d="m401 447l4-1v9l-2 4h-5z"/>
		<path id="Path 132" class="s33" d="m607 452l-1-6h3l5 2 3 1v4l-4 1z"/>
		<path id="Path 133" class="s10" d="m913 449l13-3h3l7 1v8l3 2-4 5-4 3-7 5-10 8-10 9-3 1-1-7-9-8v-3l11-8v-9-1l3-1h1l4-2z"/>
		<path id="Path 134" class="s59" d="m939 447v-1l3 1 2 2-1 1z"/>
		<path id="Path 135" class="s25" d="m259 449l5-2v1l-1 1z"/>
		<path id="Path 136" class="s53" d="m307 453l4-2v-4h8 4l1 4-1 6-2 2-12 1-2-1z"/>
		<path id="Path 137" class="s60" d="m357 450l1-3 4 3-4 1z"/>
		<path id="Path 138" class="s41" d="m415 448l5-1 3 8-2 2-6-3z"/>
		<path id="Path 139" class="s42" d="m526 449l1-2 8 2-1 6 5 4-5 2-3-7-5-3z"/>
		<path id="Path 140" class="s61" d="m535 449l6-2 2 6v6h-4l-5-4z"/>
		<path id="Path 141" class="s45" d="m557 460l-1-13 3 2 5 7 6 1 1 5h-4z"/>
		<path id="Path 142" class="s4" d="m614 448v-1l8 2h-5z"/>
		<path id="Path 143" class="s16" d="m939 457l-3-2v-8h3l4 3v4z"/>
		<path id="Path 144" class="s49" d="m341 449l10-1 6 2 1 1-1 4-3 2-3 7-17 2-3-7-8-2 1-6 13-2z"/>
		<path id="Path 145" class="s62" d="m434 449l8 2-2 6-5 2-2-4z"/>
		<path id="Path 146" class="s51" d="m442 451l2-3 4 5-4 5-4-1z"/>
		<path id="Path 147" class="s51" d="m457 459l-5-4 2-7 5 4 5-3 9 2 4 1v8 7h-10l-6-8z"/>
		<path id="Path 148" class="s25" d="m245 452l14-3-10 4h-4z"/>
		<path id="Path 149" class="s9" d="m249 453l10-4h4l4 7-4 7h-12l-2-4z"/>
		<path id="Path 150" class="s29" d="m291 453l6-4 4 4v4l-4 1-6-2z"/>
		<path id="Path 151" class="s50" d="m362 450l4-1 1 2v4l-5 2h-5v-2l1-4z"/>
		<path id="Path 152" class="s63" d="m473 451l1-2 3 3z"/>
		<path id="Path 153" class="s64" d="m485 458l4-8 13-1 9 3v16l-19-1-7-2z"/>
		<path id="Path 154" class="s43" d="m520 450l1-1h2 3v2l-1 1-4 1z"/>
		<path id="Path 155" class="s64" d="m570 457l4-1-3-4 2-3 7 7h7l2 3-5 14-4 1-8-7-1-5z"/>
		<path id="Path 156" class="s34" d="m617 453v-4h5 1v6l-4 2z"/>
		<path id="Path 157" class="s36" d="m623 455v-6h4l7 2 3 1h2l7 2h3l3 1 1 1 1 1-1 4-5-1v3l-6-4-7 2-2-4z"/>
		<path id="Path 158" class="s18" d="m634 451l-7-2 7 1z"/>
		<path id="Path 159" class="s21" d="m943 450l1-1h1l-1 5h-1z"/>
		<path id="Path 160" class="s65" d="m944 454l1-5h1v6h-2z"/>
		<path id="Path 161" class="s66" d="m511 452l9-2 1 3 4-1v19l-10 2-4-5z"/>
		<path id="Path 162" class="s8" d="m634 451v-1l3 2z"/>
		<path id="Path 163" class="s13" d="m899 452l6-1-3 1z"/>
		<path id="Path 164" class="s39" d="m367 455v-4h3l11 4 4 2-1 8h-7-4l-6-6z"/>
		<path id="Path 165" class="s37" d="m385 453l2-2 2 3-4 1z"/>
		<path id="Path 166" class="s63" d="m525 452l1-1 5 3 3 7 5-2h4l4 11 6 1 2 8h6v7l-4 4 1 12 9-3 1-8h15l8 4-2 22 4 3v8 5l-1 11-3 7h-9l-17-17-2-10-8 2-2 9 6 2 2 20 4 3v5h-2l-18 2-13-2-5-10-5-2-9 1v8h-2l-12-15v-9l-16-13h-12l-4 5 2 27v5l5 3-1 4-7 2-8-10-9 3-4-2-2 3-5-2-4 2h-5l-1-4-15 2-4-1-2-3 1-4 3-2h4v-4l-4-1h-3l-5-5-5-32-8-5-3-16-4-3-4-7v-15h7l13-2h6l14 2 4-8 2-2 7 2 1-2h2l2 4 5-2 4 1 13 1h4l6 8h10l8 2 5 1 2-3 19 1 4 5 10-2z"/>
		<path id="Path 167" class="s67" d="m588 454l-1-3h4l2 2z"/>
		<path id="Path 168" class="s44" d="m593 453l7-2 3 2 2 6-2 2-5-1-9-1-2-3 1-2z"/>
		<path id="Path 169" class="s2" d="m241 454l4-2v1l-2 1z"/>
		<path id="Path 170" class="s46" d="m603 453l4-1 6 2v5h-8z"/>
		<path id="Path 171" class="s13" d="m894 454l2-2v2z"/>
		<path id="Path 172" class="s52" d="m896 454v-2h3 3v1z"/>
		<path id="Path 173" class="s7" d="m243 454l2-1h4v6h-4z"/>
		<path id="Path 174" class="s28" d="m301 457v-4h6v6z"/>
		<path id="Path 175" class="s68" d="m381 455l4-2v2 2z"/>
		<path id="Path 176" class="s64" d="m543 459v-6h4l1 5 5 3v10l-6-1z"/>
		<path id="Path 177" class="s43" d="m613 454l4-1 2 4 4-2 10 2 2 4v3l-2 2-3-3h-10v3h-3l-4-7z"/>
		<path id="Path 178" class="s14" d="m896 454l6-1v9l-11 8v3h-6l-2-5h-4v-8l9-4 6-2z"/>
		<path id="Path 179" class="s2" d="m229 457l11-3-1 2-8 2h-1z"/>
		<path id="Path 180" class="s10" d="m239 456l1-2h1 2l2 5v10h-4l-2-2z"/>
		<path id="Path 181" class="s69" d="m385 455l4-1h4l1 6h3v3l-13 2 1-8z"/>
		<path id="Path 182" class="s69" d="m405 455l10-1 6 3-4 8-14-2v-4z"/>
		<path id="Path 183" class="s52" d="m883 457l11-3-6 2z"/>
		<path id="Path 184" class="s59" d="m939 457l4-3h1v1l-2 3-3 2-3 2h-1z"/>
		<path id="Path 185" class="s53" d="m267 456l3-1 11 11v6l-2 3h-10l-6-1v-11z"/>
		<path id="Path 186" class="s70" d="m354 457l3-2v2z"/>
		<path id="Path 187" class="s67" d="m362 457l5-2v4l6 6h4v15l4 7-8-2v-8l-8-5z"/>
		<path id="Path 188" class="s2" d="m653 456l7-1 9 4h-5l-10-2z"/>
		<path id="Path 189" class="s65" d="m901 569h1v1h-1z"/>
		<path id="Path 190" class="s16" d="m231 458l8-2v11h-8z"/>
		<path id="Path 191" class="s53" d="m294 465l-7-3v-4l4-2 6 2v2z"/>
		<path id="Path 192" class="s59" d="m883 457l5-1-9 4-6 1z"/>
		<path id="Path 193" class="s4" d="m221 459l8-2 1 1-7 3-7 2 1-2z"/>
		<path id="Path 194" class="s71" d="m297 458l4-1 6 2 2 1v7h-6l-6-7z"/>
		<path id="Path 195" class="s72" d="m321 459l2-2 8 2 3 7-3 3h-8l-2-1z"/>
		<path id="Path 196" class="s62" d="m351 464l3-7h3 5l3 15h-4l-2-3h-6z"/>
		<path id="Path 197" class="s31" d="m653 461l1-4 10 2-1 4-5-2-3 2z"/>
		<path id="Path 198" class="s5" d="m708 459l14-2 7 7 3 4v4l-7-9-6-4-7 1z"/>
		<path id="Path 199" class="s14" d="m223 461l7-3h1v9l-8-1z"/>
		<path id="Path 200" class="s37" d="m309 460l12-1v9l-11 1-1-2z"/>
		<path id="Path 201" class="s66" d="m477 460l8-2v7 4l-8-2z"/>
		<path id="Path 202" class="s62" d="m589 459l9 1-1 7v12h-2l-11-6z"/>
		<path id="Path 203" class="s18" d="m215 461l6-2-4 2z"/>
		<path id="Path 204" class="s24" d="m245 469v-10h4l2 4-2 7h-3z"/>
		<path id="Path 205" class="s62" d="m397 460l1-1h5v4h-6z"/>
		<path id="Path 206" class="s66" d="m603 461l2-2h8l4 7h3v-3h10l3 3 3 4-1 15 9 4 1 6 1 6 11 6 4 11 7 5 1 8v5l-21 1-19 4-2-4-14-4v-4l-5-1-3-31h7l5 4v8l5 1 2-11-6-8v-11l-6-5-6 2-3-10z"/>
		<path id="Path 207" class="s44" d="m635 461l7-2 6 4 3 4v5l-6 3v-3l-10-8z"/>
		<path id="Path 208" class="s38" d="m663 463l1-4h5 1l-2 5z"/>
		<path id="Path 209" class="s31" d="m668 464l2-5h2l5 2h2v6 4h-6l-3-2z"/>
		<path id="Path 210" class="s21" d="m677 461l-5-2 5 1z"/>
		<path id="Path 211" class="s59" d="m698 461l8-2-1 2z"/>
		<path id="Path 212" class="s10" d="m705 461l1-2h2l4 1-1 5z"/>
		<path id="Path 213" class="s6" d="m712 460l7-1 6 4-1 17h-5l-2-3h-6l-1-2 1-10z"/>
		<path id="Path 214" class="s73" d="m294 465l3-5 6 7h6l1 2-2 8h-2l-8 2h-3l3-11z"/>
		<path id="Path 215" class="s68" d="m553 461l4-1 10 2-2 12-4 5h-6l-2-8z"/>
		<path id="Path 216" class="s67" d="m597 467l1-7 5 1v6z"/>
		<path id="Path 217" class="s41" d="m648 463v-3l5 1 2 2-4 4z"/>
		<path id="Path 218" class="s12" d="m677 461v-1l10 1h-4-4z"/>
		<path id="Path 219" class="s48" d="m688 462l5-2 3 1-8 2z"/>
		<path id="Path 220" class="s8" d="m861 463l10-2-6 2z"/>
		<path id="Path 221" class="s16" d="m873 461l6-1v8h-5l-5 9-17 2-5 6h-24l-1-5 21-9 3-2 7-1 12-5 6-2z"/>
		<path id="Path 222" class="s26" d="m211 462l4-1h2l-1 2-11 4-5 1-4 1 13-5z"/>
		<path id="Path 223" class="s16" d="m216 463l7-2v5l-2 9h-8-6l-2-8z"/>
		<path id="Path 224" class="s42" d="m655 463l3-2 5 2 5 1 2 5-5 12v2l-10-2-4-9v-5z"/>
		<path id="Path 225" class="s36" d="m679 467v-6h4l1 2-2 4z"/>
		<path id="Path 226" class="s48" d="m684 463l-1-2h4v2z"/>
		<path id="Path 227" class="s16" d="m688 463l8-2h2 7l6 4-1 10-10-3-9-3-3-2z"/>
		<path id="Path 228" class="s74" d="m561 479l4-5 2-12h4l1 5 8 7 4-1 11 6v5l8 4v7h-12l-8-4h-15l-3-5h-4z"/>
		<path id="Path 229" class="s13" d="m931 465l4-3h1z"/>
		<path id="Path 230" class="s29" d="m249 470l2-7h12v11l-4 3-8-2z"/>
		<path id="Path 231" class="s6" d="m682 467l2-4h3 1v4z"/>
		<path id="Path 232" class="s23" d="m724 480l1-17 7 9v5 1l1 1-3 6h-5z"/>
		<path id="Path 233" class="s21" d="m853 468v-3l8-2h4z"/>
		<path id="Path 234" class="s67" d="m334 466l17-2 2 5v8l8 2 6 10 2 16h-11l-5-8-12 1-6-7-4-5v-17z"/>
		<path id="Path 235" class="s42" d="m633 466l2-2 10 8v3l2 14h-3l-9-4 1-15z"/>
		<path id="Path 236" class="s45" d="m485 469v-4l7 2-2 3z"/>
		<path id="Path 237" class="s6" d="m221 475l2-9 8 1h8l2 2v7l-4 3h-14z"/>
		<path id="Path 238" class="s7" d="m200 468l5-1 2 8h6v10l-5 5v5l-3 2-7-2-9-1v-11l-4-7 1-2 8-3z"/>
		<path id="Path 239" class="s75" d="m597 479v-12h6l3 10-1 2z"/>
		<path id="Path 240" class="s46" d="m679 471v-4h3 6l3 2 1 3v1z"/>
		<path id="Path 241" class="s0" d="m196 469l4-1-6 3 1-2z"/>
		<path id="Path 242" class="s76" d="m310 469l11-1 2 1v16h-6l-1-7-8-1z"/>
		<path id="Path 243" class="s10" d="m869 477l5-9h5 4l2 5v7l15 9-6 6-5 5-2 2-4 2-6-7h-8z"/>
		<path id="Path 244" class="s18" d="m186 474l9-5-1 2z"/>
		<path id="Path 245" class="s9" d="m241 476v-7h4l1 1-2 5z"/>
		<path id="Path 246" class="s58" d="m323 485v-16h8v17h-4z"/>
		<path id="Path 247" class="s64" d="m361 479l-8-2v-8h6l2 3z"/>
		<path id="Path 248" class="s51" d="m665 481l5-12 3 2 4 12z"/>
		<path id="Path 249" class="s38" d="m692 472l-1-3 9 3v2z"/>
		<path id="Path 250" class="s53" d="m244 475l2-5h3l2 5z"/>
		<path id="Path 251" class="s18" d="m914 478l10-8-10 9z"/>
		<path id="Path 252" class="s74" d="m677 483l-4-12h6l13 2 1 7v10l-5 7h-2z"/>
		<path id="Path 253" class="s4" d="m838 472l4-1h1l-21 9-6 1 1-2 16-5 3-2z"/>
		<path id="Path 254" class="s76" d="m279 475l2-3 6 11v2h-6l-2-3z"/>
		<path id="Path 255" class="s63" d="m361 479v-7h4l8 5v8l-6 4z"/>
		<path id="Path 256" class="s64" d="m645 475l6-3 4 9 10 2v6l6 3 4 15-2 1-14-1v-5l-5-4v-4l-5-1-2-4z"/>
		<path id="Path 257" class="s43" d="m692 473v-1l8 2 3 7h-2l-8-1z"/>
		<path id="Path 258" class="s36" d="m700 474v-2l10 3 1 2v6l-2 1-6-3z"/>
		<path id="Path 259" class="s17" d="m900 489l-15-9v-7h6l9 8 1 7z"/>
		<path id="Path 260" class="s2" d="m179 477l7-3-1 2-6 2z"/>
		<path id="Path 261" class="s71" d="m251 475l8 2 4-3 6 1v10h-7l-3 3v7h-13l-17-2v-4l1-3 7-1v-6l4-3 3-1z"/>
		<path id="Path 262" class="s23" d="m213 485v-10h8l2 4h14v6l-7 1-1 3-6-2-2-5-6 3z"/>
		<path id="Path 263" class="s77" d="m269 485v-10h10v7l-5 3z"/>
		<path id="Path 264" class="s42" d="m606 477l6-2 6 5v11l-5 1-6-4-2-9z"/>
		<path id="Path 265" class="s6" d="m179 478l6-2 4 7v11l-8 4-3-5h-5l-2-3 2-7 1-2h1z"/>
		<path id="Path 266" class="s78" d="m175 479l4-2v1l-4 3z"/>
		<path id="Path 267" class="s58" d="m298 479l8-2-1 6h-7z"/>
		<path id="Path 268" class="s69" d="m305 483l1-6h2l8 1 1 7-10 2z"/>
		<path id="Path 269" class="s40" d="m711 483v-6h6l2 3v3z"/>
		<path id="Path 270" class="s79" d="m732 478v-1l2 2h-1z"/>
		<path id="Path 271" class="s54" d="m732 478h1v1h-1z"/>
		<path id="Path 272" class="s14" d="m847 485l5-6 17-2v20l-2 6h-12l-8-8z"/>
		<path id="Path 273" class="s8" d="m904 487l10-9v1z"/>
		<path id="Path 274" class="s8" d="m171 481l4-2v2h-1z"/>
		<path id="Path 275" class="s50" d="m291 483l4-4h3v4l-7 4z"/>
		<path id="Path 276" class="s67" d="m603 495v-7l-8-4v-5h2 8l2 9 6 4-1 5h-7z"/>
		<path id="Path 277" class="s67" d="m693 480l8 1v12l-8-3z"/>
		<path id="Path 278" class="s54" d="m730 485l3-6h1 1l5 4-3 2-6 1z"/>
		<path id="Path 279" class="s8" d="m740 483l-5-4 9 5z"/>
		<path id="Path 280" class="s19" d="m804 484l13-5-1 2-10 3z"/>
		<path id="Path 281" class="s36" d="m719 483v-3h5l1 5h5l1 1-1 5h-4-3z"/>
		<path id="Path 282" class="s10" d="m816 481l6-1 1 5h24v10l8 8h12v6l3 2-1 1-6 2-3-3h-13l-4-8-6-2-5-8h-10l-1 4-18-6v-5l3-2z"/>
		<path id="Path 283" class="s78" d="m166 485l5-4h3l-1 2-6 3h-1z"/>
		<path id="Path 284" class="s67" d="m665 483v-2l12 2 9 14 2 2 3 14h-8l-2-5-6-1-4-15-6-3z"/>
		<path id="Path 285" class="s62" d="m701 493v-12h2l6 3 6 7v2l-3 3-7 3z"/>
		<path id="Path 286" class="s53" d="m215 485l6-3 2 5 6 2v4 2l-10 2-6-2z"/>
		<path id="Path 287" class="s80" d="m274 485l5-3 2 3h6l1 3 3-1 7-4h7l2 4-2 12 8 6 2 16 2 22 5 3v7l8 11 7 4v11h-18l-4-20-8-7-2-6-12-3-11 4-5-4-2-20h12l7 1 1-3-4-2v-8l-10-2-6-3z"/>
		<path id="Path 288" class="s14" d="m167 486l6-3-2 7-4 1v5l-8 1v-5l1-1z"/>
		<path id="Path 289" class="s40" d="m287 485v-2h4v4l-3 1z"/>
		<path id="Path 290" class="s50" d="m709 484l2-1h8l4 8h-8z"/>
		<path id="Path 291" class="s50" d="m737 485l3-2 4 1h1l12 3v9l-7-3-2 5-11-6z"/>
		<path id="Path 292" class="s19" d="m794 487l8-3-1 2h-2z"/>
		<path id="Path 293" class="s5" d="m801 486l1-2h2 2l-3 2z"/>
		<path id="Path 294" class="s8" d="m163 487l3-2v1z"/>
		<path id="Path 295" class="s34" d="m208 495v-5l5-5h2l-2 10h-2z"/>
		<path id="Path 296" class="s76" d="m259 495v-7l3-3h7 5l1 21 6 3v5l6 5v4h-12l-1-9-13-6z"/>
		<path id="Path 297" class="s81" d="m307 487l10-2h6l4 1v5l-2 23-4 2-1 5h-5l-2-16-8-6z"/>
		<path id="Path 298" class="s61" d="m367 489l6-4 8 2 4 3 3 16 8 5 5 32h-10l-6-9h-6v-3-4l-6-3-4-19z"/>
		<path id="Path 299" class="s58" d="m731 486l6-1v7l-7-1z"/>
		<path id="Path 300" class="s11" d="m163 487l3-1h1l-7 5 1-2z"/>
		<path id="Path 301" class="s60" d="m327 491v-5h4l4 5z"/>
		<path id="Path 302" class="s45" d="m568 491l-1 8-9 3-1-12 4-4h4z"/>
		<path id="Path 303" class="s5" d="m794 487l5-1-5 3h-5z"/>
		<path id="Path 304" class="s6" d="m794 489l5-3h2 2v5l-9 2z"/>
		<path id="Path 305" class="s41" d="m757 496v-9l16 2v1l1 4-2 3h-5l-2 5h-3l-3-1 4-4z"/>
		<path id="Path 306" class="s8" d="m901 488l3-1-8 8h-2l6-6z"/>
		<path id="Path 307" class="s8" d="m148 499l8-9 5-1-1 2-1 1-4 3z"/>
		<path id="Path 308" class="s51" d="m645 495l-1-6h3l2 4v2z"/>
		<path id="Path 309" class="s47" d="m773 490v-1l9 2h-1z"/>
		<path id="Path 310" class="s9" d="m783 491l4-2h2 5v4l-1 1-6-1h-6v-2h1z"/>
		<path id="Path 311" class="s33" d="m167 496v-5l4-1 2 3v6h-3z"/>
		<path id="Path 312" class="s45" d="m688 497l5-7 8 3 4 6 2 18-2 2h-10l-4-6-3-14z"/>
		<path id="Path 313" class="s82" d="m774 494l-1-4 8 1v2l-1 1z"/>
		<path id="Path 314" class="s83" d="m320 521l1-5 4-2 2-23h8l6 7 2 15 4 2-2 18 4 2 2 16 8 2v6l9 6 1 4 5 12h-12l-3-4h-6l-1-8-5-4v-8l-5-3v-7l-16-7z"/>
		<path id="Path 315" class="s51" d="m613 492l5-1 6 8-2 11-5-1v-8l-5-4z"/>
		<path id="Path 316" class="s69" d="m715 493v-2h8 3v5l-3 1h-8v-1z"/>
		<path id="Path 317" class="s61" d="m723 497l3-1v-5h4l7 1 11 6v3l-5 5v5l-6 2-4 6-12-3v-10z"/>
		<path id="Path 318" class="s24" d="m794 493l9-2 18 6 11 11v4l1 12-2 4h-3l-1-1-3-2-2-10-2-7-7-1-5-4-1-3-8-2-6-4z"/>
		<path id="Path 319" class="s34" d="m827 527h1v1h-1z"/>
		<path id="Path 320" class="s17" d="m155 495l4-3v5l-2 1z"/>
		<path id="Path 321" class="s22" d="m173 499v-6h5l3 5-1 3h-5z"/>
		<path id="Path 322" class="s73" d="m229 495v-2l17 2-3 4v10l3 2v4h-11z"/>
		<path id="Path 323" class="s68" d="m649 495v-2l5 1v4z"/>
		<path id="Path 324" class="s51" d="m712 496l3-3v3z"/>
		<path id="Path 325" class="s34" d="m748 498l2-5 7 3 6 1-4 4z"/>
		<path id="Path 326" class="s41" d="m780 494l1-1h6v2h-7z"/>
		<path id="Path 327" class="s37" d="m787 495v-2l6 1 6 4v1h-4z"/>
		<path id="Path 328" class="s6" d="m821 497l1-4h10l5 8 6 2 4 8h13l3 3-1 2-5 4 2 9 3 4 4 5-2 3-9-1-7-8v-7l-6-4-1-7-9-2v-4z"/>
		<path id="Path 329" class="s9" d="m181 498l8-4 9 1v18l-1 4h-4l-5-10-8-4v-2z"/>
		<path id="Path 330" class="s67" d="m772 497l2-3h6v1 4h-7z"/>
		<path id="Path 331" class="s6" d="m148 499l7-4 2 3 4 12-1 3-8-1-5-3h-3l-3-4z"/>
		<path id="Path 332" class="s82" d="m198 513v-18l7 2 2 6-4 5 1 5z"/>
		<path id="Path 333" class="s28" d="m205 497l3-2h3l-1 8h-3z"/>
		<path id="Path 334" class="s73" d="m210 503l1-8h2l6 2 4 16-4 2h-6v-9z"/>
		<path id="Path 335" class="s49" d="m219 497l10-2 6 20-4 2-2-4h-6z"/>
		<path id="Path 336" class="s72" d="m246 511l-3-2v-10l3-4h13l2 13-4 3z"/>
		<path id="Path 337" class="s68" d="m593 528v-8l-4-3 2-22h12l2 2 3 31-1 5h-10v-4z"/>
		<path id="Path 338" class="s61" d="m657 507l-11-6-1-6h4l5 3 5 4v5z"/>
		<path id="Path 339" class="s45" d="m780 499v-4h7l8 4v6h-4l-8-2z"/>
		<path id="Path 340" class="s65" d="m889 500l5-5h2l-2 4z"/>
		<path id="Path 341" class="s23" d="m159 497l8-1 3 3-1 6-8 5-4-12z"/>
		<path id="Path 342" class="s64" d="m705 499l7-3h3v1l1 7 5 2v10l-14 1z"/>
		<path id="Path 343" class="s70" d="m341 498l12-1 5 8h11l4 19-1 6 7 1v3l-2 8 2 7h-5l-3-6h-7l-5 10-8-2-2-16-4-2 2-18-4-2z"/>
		<path id="Path 344" class="s61" d="m688 499l-2-2h2z"/>
		<path id="Path 345" class="s45" d="m721 506l-5-2-1-7h8z"/>
		<path id="Path 346" class="s51" d="m762 502h3l2-5h5l1 2v6h-5l-2 5v5l5 3v7l6 8-2 7-7-1-7-4-4-13v-14l5-1z"/>
		<path id="Path 347" class="s17" d="m867 503l2-6h8l6 7-1 2-7 4h-1l-4 1-3-2z"/>
		<path id="Path 348" class="s42" d="m748 501v-3l11 3 3 1v5l-5 1z"/>
		<path id="Path 349" class="s40" d="m799 499v-1l8 2 1 3-5 1z"/>
		<path id="Path 350" class="s78" d="m137 505l11-6-7 6-6 3z"/>
		<path id="Path 351" class="s7" d="m169 505l1-6h3l2 2v4z"/>
		<path id="Path 352" class="s66" d="m773 505v-6h7l3 4v5l4 3v6h-8l1-9z"/>
		<path id="Path 353" class="s67" d="m795 505v-6h4l4 5 5-1 5 4 6 8-2 16-5 2-11-6v-6l4-9z"/>
		<path id="Path 354" class="s24" d="m175 505v-4h5v2l-1 2z"/>
		<path id="Path 355" class="s63" d="m721 516l12 3 4-6 6-2v-5l5-5 9 7v14l4 13-2 3-6-1h-18l-4-3-22-1-2-1-2-13 2-2z"/>
		<path id="Path 356" class="s65" d="m883 504l4-2-5 5v-1z"/>
		<path id="Path 357" class="s28" d="m179 505l1-2 8 4 5 10v6h-6l-6-2z"/>
		<path id="Path 358" class="s72" d="m204 513l-1-5 4-5h3l3 3v9 4l-3 1z"/>
		<path id="Path 359" class="s74" d="m787 511l-4-3v-5l8 2v5z"/>
		<path id="Path 360" class="s1" d="m133 509l4-4-2 3v1z"/>
		<path id="Path 361" class="s10" d="m135 508l6-3 3 4-6 4-3-4z"/>
		<path id="Path 362" class="s29" d="m161 510l8-5h6 4l2 16v6l-4 2-8-2v-5l-8-4-1-5z"/>
		<path id="Path 363" class="s62" d="m771 518l-5-3v-5l2-5h5l7 3-1 9z"/>
		<path id="Path 364" class="s66" d="m791 510v-5h4l10 7-4 9h-4v-7z"/>
		<path id="Path 365" class="s18" d="m875 510l7-4v1z"/>
		<path id="Path 366" class="s68" d="m669 531l-1-8-7-5-4-11h2l14 1v7l6 2 1 12z"/>
		<path id="Path 367" class="s66" d="m673 508l2-1 6 1 2 5-4 4-6-2z"/>
		<path id="Path 368" class="s49" d="m819 515l-6-8 7 1 2 7z"/>
		<path id="Path 369" class="s84" d="m246 511h11l4-3 13 6 1 9 2 20-16 2-2-4h-7l-1-4v-7l2-11-7-3v-1z"/>
		<path id="Path 370" class="s19" d="m121 517l12-8-9 7z"/>
		<path id="Path 371" class="s17" d="m124 516l9-7h2l3 4-5 6-8 1-1-2z"/>
		<path id="Path 372" class="s34" d="m138 513l6-4h3v6l-2 4-4 3-8 1v-4z"/>
		<path id="Path 373" class="s29" d="m147 515v-6l5 3-1 3z"/>
		<path id="Path 374" class="s81" d="m287 519l-6-5v-5l10 2v8z"/>
		<path id="Path 375" class="s68" d="m787 511l4-1 6 4v7 6h-5l-5-4v-6z"/>
		<path id="Path 376" class="s18" d="m870 511l4-1-5 4v-1-1z"/>
		<path id="Path 377" class="s9" d="m151 515l1-3 8 1 1 5 8 4v5l-3 2h-5l-1-5-5-3-3-2z"/>
		<path id="Path 378" class="s7" d="m833 524l-1-12 9 2 1 7 6 4v7l7 8 9 1 2-3 1 1 16 15h1l6 6 1 1 2 3-6 1-12-4-2-8-12 2h-11l-5-5-2-25z"/>
		<path id="Path 379" class="s85" d="m863 514l6-2v1l-3 2-3 1h-1z"/>
		<path id="Path 380" class="s35" d="m193 517h4l1-4h6l6 7 3 6v8l-2 8-4 3h-6v-16l-8-6z"/>
		<path id="Path 381" class="s41" d="m219 515l4-2h6l2 4v8l-1 6-2 2h-9v-8z"/>
		<path id="Path 382" class="s61" d="m679 517l4-4h8l4 6v12h-9l-6-2z"/>
		<path id="Path 383" class="s65" d="m866 515l3-2v1z"/>
		<path id="Path 384" class="s54" d="m145 519l2-4h4l1 4z"/>
		<path id="Path 385" class="s82" d="m210 520l3-1v-4h6v10l-6 1z"/>
		<path id="Path 386" class="s39" d="m231 517l4-2h11v1l5 14v7h-10l-2-6-4-1v-5h-4z"/>
		<path id="Path 387" class="s40" d="m817 531l2-16h3l2 10 3 2 1 1v3h-3z"/>
		<path id="Path 388" class="s65" d="m863 516l3-1-3 2z"/>
		<path id="Path 389" class="s48" d="m121 517l3-1v2l-13 9h-1v-2l9-6z"/>
		<path id="Path 390" class="s76" d="m251 530l-5-14 7 3z"/>
		<path id="Path 391" class="s26" d="m859 529l-2-9 5-4h1v1l-4 3v7z"/>
		<path id="Path 392" class="s75" d="m771 518l8-1h8v6l5 4-1 13-10 1-6-1 2-7-6-8z"/>
		<path id="Path 393" class="s14" d="m111 527l13-9 1 2v11l-4 1h-8z"/>
		<path id="Path 394" class="s9" d="m125 520l8-1v4l-1 14h-5l-6-5 4-1z"/>
		<path id="Path 395" class="s77" d="m141 522l4-3h7l3 2v6l4 2v8h-6l-3-10z"/>
		<path id="Path 396" class="s86" d="m287 523v-4h4l4 2-1 3z"/>
		<path id="Path 397" class="s51" d="m695 531v-12h10l2 13z"/>
		<path id="Path 398" class="s36" d="m159 529l-4-2v-6l5 3 1 5z"/>
		<path id="Path 399" class="s40" d="m181 527v-6l6 2v4z"/>
		<path id="Path 400" class="s86" d="m337 579v-11l-7-4-8-11v-7l-5-3-2-22h5l6 19 16 7v7l5 3v8l5 4 1 8z"/>
		<path id="Path 401" class="s75" d="m797 527v-6h4v6h-2z"/>
		<path id="Path 402" class="s71" d="m133 523l8-1 9 5 3 10-6 14-10 2v7l-6 7h-8l-3-4v-4l2-2h3l4-7 2-7 1-6z"/>
		<path id="Path 403" class="s49" d="m187 527v-4h6l8 6v16 6l-2 3-6 2v-6l-6-9z"/>
		<path id="Path 404" class="s51" d="m379 531l-7-1 1-6 6 3z"/>
		<path id="Path 405" class="s74" d="m557 537l-6-2 2-9 8-2 2 10z"/>
		<path id="Path 406" class="s9" d="m831 528l2-4 10 1 2 25-1 1h-20l-2-3v-3h7l1-4 3-2-2-8z"/>
		<path id="Path 407" class="s21" d="m105 529l5-4v2l-2 3-3 1z"/>
		<path id="Path 408" class="s40" d="m213 526l6-1v8l-1 1h-5z"/>
		<path id="Path 409" class="s45" d="m230 531l1-6h4v5z"/>
		<path id="Path 410" class="s51" d="m467 557l-2-27 4-5h12l16 13v9l12 15v7l-10 1-17 1-7-6v-6z"/>
		<path id="Path 411" class="s10" d="m108 530l2-3h1l2 5v1h-4z"/>
		<path id="Path 412" class="s54" d="m166 529l3-2 8 2-6 7-5-2z"/>
		<path id="Path 413" class="s73" d="m177 529l4-2h6v14l6 9v6l-4 5h-6v-5l-7-7h-5v-4-9z"/>
		<path id="Path 414" class="s58" d="m791 540l1-13h5 2v11l-5 3z"/>
		<path id="Path 415" class="s62" d="m799 538v-11h2l11 6-1 4z"/>
		<path id="Path 416" class="s19" d="m859 529v-2l3 5v1z"/>
		<path id="Path 417" class="s45" d="m593 533v-5l4 1v4z"/>
		<path id="Path 418" class="s70" d="m607 533l1-5 5 1v4l-2 2h-4z"/>
		<path id="Path 419" class="s34" d="m828 531v-3h3v3z"/>
		<path id="Path 420" class="s47" d="m96 537l9-8v2l-5 5-3 1z"/>
		<path id="Path 421" class="s55" d="m159 537v-8h2 5v5l5 2v9h-3-7z"/>
		<path id="Path 422" class="s58" d="m669 531l11-2 6 2-1 6-16-1z"/>
		<path id="Path 423" class="s7" d="m105 531l3-1 1 3-6 6-3-3z"/>
		<path id="Path 424" class="s73" d="m230 531l5-1 4 1 2 6h10l1 4-3 4-6 1 2 17-10-2v-6l-6-6v-4l-1-12z"/>
		<path id="Path 425" class="s50" d="m669 536l16 1 1-6h9l12 1 2 1v8l-8 6h-9l-19-2-2 10h-4l-18-2-1-16z"/>
		<path id="Path 426" class="s46" d="m812 533l5-2h8l1 9 4 1-1 4h-7-7l-2-1-2-7z"/>
		<path id="Path 427" class="s29" d="m830 541l-4-1-1-9h3 3l2 8z"/>
		<path id="Path 428" class="s40" d="m113 533v-1h8l6 5v6l-1 4-3 2-5-3v-6l-5-3z"/>
		<path id="Path 429" class="s1" d="m862 533v-1l7 7h-2l-1-1z"/>
		<path id="Path 430" class="s54" d="m103 539l6-6h4v4l-5 3-1 5 6 5v3h-4l-6-4z"/>
		<path id="Path 431" class="s77" d="m218 534l1-1h9l1 12h-5z"/>
		<path id="Path 432" class="s66" d="m592 544l1-11h4 10v2 6z"/>
		<path id="Path 433" class="s58" d="m611 535l2-2 14 4 2 4-5 10-7 2-6-12z"/>
		<path id="Path 434" class="s44" d="m709 541v-8l22 1 4 3v5l-12 1z"/>
		<path id="Path 435" class="s36" d="m211 542l2-8h5l6 11-5 2z"/>
		<path id="Path 436" class="s45" d="m379 549l-2-7 2-8h6l6 9 1 14-5 1-4-1z"/>
		<path id="Path 437" class="s45" d="m557 537l6-3 17 17-4 7 5 7h-4-14v-5l-4-3z"/>
		<path id="Path 438" class="s75" d="m607 541v-6h4v6z"/>
		<path id="Path 439" class="s62" d="m759 538l2-3 7 4v3l-5 1h-2z"/>
		<path id="Path 440" class="s6" d="m97 537l3-1 3 3v10l6 4v6l-2 1-6 1h-4v-2l2-8-5-10v-1z"/>
		<path id="Path 441" class="s41" d="m735 537h18l1 7-10 3-4 1 1-4-6-2z"/>
		<path id="Path 442" class="s26" d="m94 539l2-2h1l-3 3z"/>
		<path id="Path 443" class="s16" d="m113 550l-6-5 1-5 5-3 5 3v6z"/>
		<path id="Path 444" class="s38" d="m127 543v-6h5l-1 6z"/>
		<path id="Path 445" class="s80" d="m147 551l6-14h6l2 8-7 10h-7z"/>
		<path id="Path 446" class="s39" d="m629 541l19-4 1 16-6 4-1 8h-17l-2-4h-6v-8l7-2z"/>
		<path id="Path 447" class="s44" d="m754 544l-1-7 6 1 2 5-3 1z"/>
		<path id="Path 448" class="s40" d="m799 538l12-1 2 7-14 2-5-3v-2z"/>
		<path id="Path 449" class="s78" d="m86 545l8-6v1 1l-7 5z"/>
		<path id="Path 450" class="s43" d="m768 542v-3l7 1 6 1v4l-1 4-4-1-7-1z"/>
		<path id="Path 451" class="s11" d="m883 554l-16-15h2l3 3 2 2 3 3 2 2 3 3z"/>
		<path id="Path 452" class="s46" d="m781 541l10-1 3 1v2l-6 3-7-1z"/>
		<path id="Path 453" class="s10" d="m87 546l7-5 5 10-2 8h-14l-2-7 2-3z"/>
		<path id="Path 454" class="s72" d="m245 563l-2-17 6-1 3-4h7l2 4-2 12 2 10-14-2z"/>
		<path id="Path 455" class="s60" d="m592 544l15-3h4l6 12v8 4l-8 2h-14l-14-2-5-7 4-7h9z"/>
		<path id="Path 456" class="s46" d="m692 547h9l8-6 14 2v3l-22 12-8 2h-8l-8 5-10-2v-8h4l18-2z"/>
		<path id="Path 457" class="s31" d="m207 545l4-3 8 5v10l-6-1-6-5z"/>
		<path id="Path 458" class="s3" d="m723 543l12-1 6 2-1 4-3 2-3 2-2 2-1 1h-1-1v-6l-6-3z"/>
		<path id="Path 459" class="s31" d="m763 543l5-1 1 5h-1-5z"/>
		<path id="Path 460" class="s23" d="m126 547l1-4h4l-2 7z"/>
		<path id="Path 461" class="s76" d="m261 545l16-2 5 4-2 18 7 4v5h-2l-10-2-14-5-2-10z"/>
		<path id="Path 462" class="s84" d="m282 547l11-4 12 3 2 6 8 7 4 20v7h-3l-4-2-3-4-12-3-10-3v-5l-7-4z"/>
		<path id="Path 463" class="s58" d="m359 553l5-10h7l3 6-1 6 8 2v6h-6l-2 6h-4l-1-4-9-6z"/>
		<path id="Path 464" class="s68" d="m392 557l-1-14h10l5 5v7l-1 4h-13z"/>
		<path id="Path 465" class="s46" d="m758 544l3-1h2v4h-5z"/>
		<path id="Path 466" class="s38" d="m781 545l7 1 6-3 5 3-2 10 5 4-11-5-10-5-1-1z"/>
		<path id="Path 467" class="s4" d="m744 547l10-3h4v3z"/>
		<path id="Path 468" class="s24" d="m799 546l14-2 2 1v4l-2 8-3 1v5l-4-1-3-2h-1l-5-4z"/>
		<path id="Path 469" class="s2" d="m83 549l3-4 1 1z"/>
		<path id="Path 470" class="s46" d="m154 555l7-10h7l1 4v16 8h-6-2v-7l-7-7z"/>
		<path id="Path 471" class="s40" d="m169 549l-1-4h3v4z"/>
		<path id="Path 472" class="s87" d="m201 551v-6h6v6z"/>
		<path id="Path 473" class="s55" d="m219 547l5-2h5v4l6 6v6l-11-2-5-2z"/>
		<path id="Path 474" class="s41" d="m671 555l2-10 19 2-3 6z"/>
		<path id="Path 475" class="s29" d="m815 549v-4h7v3z"/>
		<path id="Path 476" class="s28" d="m113 550l5-4 5 3-2 3-8 1z"/>
		<path id="Path 477" class="s33" d="m701 558l22-12 6 3v6l-3 5-11 2v7 5l-4 1-8-4z"/>
		<path id="Path 478" class="s6" d="m123 549l3-2 3 3-4 7h-3l-1-5z"/>
		<path id="Path 479" class="s1" d="m740 548l4-1-7 3z"/>
		<path id="Path 480" class="s1" d="m768 549l-10-2h5 5z"/>
		<path id="Path 481" class="s26" d="m768 549v-2h1l7 1v1z"/>
		<path id="Path 482" class="s62" d="m406 555v-7h3v5z"/>
		<path id="Path 483" class="s74" d="m409 553v-5l4 1v4z"/>
		<path id="Path 484" class="s19" d="m776 549v-1l4 1 1 1z"/>
		<path id="Path 485" class="s23" d="m815 549l7-1 2 3-1 8-10-2z"/>
		<path id="Path 486" class="s18" d="m78 554l5-5-2 3z"/>
		<path id="Path 487" class="s43" d="m169 565v-16h2 5l7 7v5 4z"/>
		<path id="Path 488" class="s51" d="m381 557l-8-2 1-6h5l4 8z"/>
		<path id="Path 489" class="s17" d="m844 551l1-1 5 5h11v8h-6l-8-5z"/>
		<path id="Path 490" class="s77" d="m131 567l6-7v-7l10-2v4 5 11h-2-14z"/>
		<path id="Path 491" class="s32" d="m199 554l2-3h6l6 5-1 4 5 3v8h-4l-7-5v-6z"/>
		<path id="Path 492" class="s6" d="m823 559l1-8h20l3 7 8 5v4l12 12h8l9 10h19l5 9 3-2 8 2 3 4v3l-6 2v10l-12-3-15-6-6-3-19-10-27-17-16-10z"/>
		<path id="Path 493" class="s88" d="m78 554l3-2 2 7h14v2l-2 8-11 2h-9-2v-2-1-5-1-1z"/>
		<path id="Path 494" class="s24" d="m113 553l8-1 1 5-2 2h-5-6v-6z"/>
		<path id="Path 495" class="s18" d="m883 554l-1-2 2 2z"/>
		<path id="Path 496" class="s68" d="m511 562v-8l9-1 5 2 5 10-2 7-9-1v-7z"/>
		<path id="Path 497" class="s41" d="m642 565l1-8 6-4 18 2v8h-2-7l-1 4h-15z"/>
		<path id="Path 498" class="s88" d="m861 555l12-2 2 8-4 4-10-2z"/>
		<path id="Path 499" class="s18" d="m73 561l1-5 4-2z"/>
		<path id="Path 500" class="s55" d="m193 556l6-2 7 6v6l-3 1v7l6 4v5h-15l-7-8h-4v-10-4h6z"/>
		<path id="Path 501" class="s0" d="m890 560l-6-6 4 2z"/>
		<path id="Path 502" class="s83" d="m147 560v-5h7v4z"/>
		<path id="Path 503" class="s35" d="m715 569v-7l11-2 3-5h1l-1 4v10l2 8h-6l-5-8z"/>
		<path id="Path 504" class="s8" d="m729 559l1-4h1z"/>
		<path id="Path 505" class="s89" d="m217 563l-5-3 1-4 6 1 5 2-1 4z"/>
		<path id="Path 506" class="s18" d="m890 560l-2-4 5 5h-2z"/>
		<path id="Path 507" class="s39" d="m381 563v-6h2l4 1v3l-4 2z"/>
		<path id="Path 508" class="s58" d="m387 558l5-1v2l-2 2h-3z"/>
		<path id="Path 509" class="s61" d="m472 565l-5-3v-5l8 2v6z"/>
		<path id="Path 510" class="s17" d="m810 563v-5l3-1 10 2-2 9h-3l-5-3h-1z"/>
		<path id="Path 511" class="s3" d="m693 560l8-2 2 13 8 4v8l-2 6h-6l-7-1-1-9-2-6z"/>
		<path id="Path 512" class="s3" d="m107 560l2-1h6v4l-2 4h-6z"/>
		<path id="Path 513" class="s82" d="m115 563v-4h5v4z"/>
		<path id="Path 514" class="s43" d="m147 560l7-1 7 7v7l-14-2z"/>
		<path id="Path 515" class="s90" d="m217 563h6l1-4 11 2 10 2 2 2-10 3v7l-8 5v5l-7-1-3-8-2-5z"/>
		<path id="Path 516" class="s74" d="m390 561l2-2h13l2 3-2 3h-12z"/>
		<path id="Path 517" class="s90" d="m101 561l6-1v7h-6z"/>
		<path id="Path 518" class="s29" d="m677 565l8-5h8v13h-2-12l-2-4z"/>
		<path id="Path 519" class="s89" d="m95 569l2-8h4v6 2z"/>
		<path id="Path 520" class="s51" d="m383 563l4-2h3l3 4v6l-9-2z"/>
		<path id="Path 521" class="s62" d="m411 563l15-2 1 4-1 3-4 7-6-1v-4l-5-3z"/>
		<path id="Path 522" class="s74" d="m447 564l9-3 8 10-2 5-4 1h-3v-5l-8-5z"/>
		<path id="Path 523" class="s50" d="m617 565v-4h6l2 4-2 2z"/>
		<path id="Path 524" class="s10" d="m871 565l4-4 12 4 2 10 14 3v7 4h-19l-9-10v-8l-4-2z"/>
		<path id="Path 525" class="s0" d="m893 564l-2-3h2l8 8 1 1 5 7 5 7 2 3 1 3h-2l-2-3-3-3-4-7z"/>
		<path id="Path 526" class="s56" d="m71 569v-7h2v1 5 1z"/>
		<path id="Path 527" class="s60" d="m405 565l2-3 4 1v4z"/>
		<path id="Path 528" class="s39" d="m441 565l2-3 4 2v3h-6z"/>
		<path id="Path 529" class="s64" d="m509 569v-7h2l8 2v7h-6z"/>
		<path id="Path 530" class="s18" d="m812 565l-6-3 4 1z"/>
		<path id="Path 531" class="s37" d="m113 567l2-4h5l3 4v4h-8z"/>
		<path id="Path 532" class="s69" d="m373 569l2-6h6 2l1 6z"/>
		<path id="Path 533" class="s67" d="m432 565l4-2 5 2v2l-1 2h-5z"/>
		<path id="Path 534" class="s55" d="m657 567l1-4h7v4l-8 2z"/>
		<path id="Path 535" class="s31" d="m665 567v-4h2l10 2v4z"/>
		<path id="Path 536" class="s7" d="m875 579h-8l-12-12v-4h6l10 2v4l4 2z"/>
		<path id="Path 537" class="s14" d="m887 565l6-1 11 13-1 1-14-3z"/>
		<path id="Path 538" class="s49" d="m169 573v-8h14v10l-4 2h-8z"/>
		<path id="Path 539" class="s89" d="m229 585v-5l8-5v-7l10-3 14 2 1 8 6 4 1 10v6h-4-15l-16-5z"/>
		<path id="Path 540" class="s63" d="m393 571v-6h12l6 2 5 3v4l-11-1z"/>
		<path id="Path 541" class="s60" d="m426 568l1-3h5l3 4h5l3 8 8 2v4 7l-3 2-7 1h-7l-2-4-7 2-8-2-5-9-7-2v-5l11 1 6 1 5-2z"/>
		<path id="Path 542" class="s62" d="m471 569l1-4h3l7 6v2h-10z"/>
		<path id="Path 543" class="s62" d="m528 572l2-7 13 2v6h-8z"/>
		<path id="Path 544" class="s42" d="m543 567l18-2v10l-5 2h-6l-7-4z"/>
		<path id="Path 545" class="s60" d="m561 575v-10h2 14v8l-7 2z"/>
		<path id="Path 546" class="s44" d="m577 573v-8h4l14 2v8l-10 2h-6z"/>
		<path id="Path 547" class="s41" d="m609 567l8-2 6 2v8h-10l-4-2z"/>
		<path id="Path 548" class="s46" d="m623 567l2-2h17v2l-7 5-6 3 2 3-1 2h-4l-3-5z"/>
		<path id="Path 549" class="s21" d="m816 567l-3-2 5 3z"/>
		<path id="Path 550" class="s41" d="m209 578l-6-4v-7l3-1 7 5v5z"/>
		<path id="Path 551" class="s87" d="m101 569v-2h6 6l2 4h8 8 14v6l8 5v7l-4-1h-3l-6-1-3-2-6-8h-12-18z"/>
		<path id="Path 552" class="s49" d="m123 571v-4h8v4z"/>
		<path id="Path 553" class="s91" d="m269 589l-1-10-6-4-1-8 14 5v5l6 8-4 4z"/>
		<path id="Path 554" class="s70" d="m440 569l1-2h6l8 5v5l-4 2-8-2z"/>
		<path id="Path 555" class="s50" d="m595 575v-8h14v6l-4 1v3h-5z"/>
		<path id="Path 556" class="s32" d="m635 572l7-5h15v2 8h-4l-3-1-4-1h-7l-3 1z"/>
		<path id="Path 557" class="s87" d="m657 569l8-2 12 2 2 4 2 11-6-1-11-3h-1l-6-3z"/>
		<path id="Path 558" class="s19" d="m836 579l-20-12 2 1h3l16 10z"/>
		<path id="Path 559" class="s61" d="m422 575l4-7 1 5z"/>
		<path id="Path 560" class="s91" d="m84 571l11-2h6v8 6h-6-6-2l-5-2 3-1z"/>
		<path id="Path 561" class="s39" d="m374 581l-5-12h4 11l9 2 12 2v5l-7 2v3l5 1v6l-21 1z"/>
		<path id="Path 562" class="s41" d="m464 571l7-2 1 4-1 6-3 1-3 1-3-1v-4z"/>
		<path id="Path 563" class="s42" d="m499 570l10-1 4 2v8l-16 1z"/>
		<path id="Path 564" class="s22" d="m715 574v-5h5l5 8-6-2z"/>
		<path id="Path 565" class="s56" d="m731 577l-2-8 3 9z"/>
		<path id="Path 566" class="s50" d="m482 571l17-1-2 10-11-2-1-1-3-4z"/>
		<path id="Path 567" class="s65" d="m907 577l-5-7 4 2z"/>
		<path id="Path 568" class="s47" d="m76 578l-3-7h2l5 9h-1l-2-1z"/>
		<path id="Path 569" class="s18" d="m76 578h1v1h-1z"/>
		<path id="Path 570" class="s22" d="m80 580l-5-9h9l1 9-3 1z"/>
		<path id="Path 571" class="s32" d="m153 589v-7l-8-5v-6h2l14 2h2l2 12v6h-1l-6-1h-4z"/>
		<path id="Path 572" class="s35" d="m213 576v-5h4l2 5z"/>
		<path id="Path 573" class="s46" d="m513 579v-8h6l9 1 7 1v7l-15 1z"/>
		<path id="Path 574" class="s90" d="m281 585l-6-8v-5l10 2v11z"/>
		<path id="Path 575" class="s89" d="m631 578l-2-3 6-3 1 4z"/>
		<path id="Path 576" class="s31" d="m165 585l-2-12h6l2 4h8v7z"/>
		<path id="Path 577" class="s55" d="m471 579l1-6h10l3 4-4 2z"/>
		<path id="Path 578" class="s31" d="m535 580v-7h8l7 4-11 3z"/>
		<path id="Path 579" class="s46" d="m570 575l7-2 2 4-4 4-4-2z"/>
		<path id="Path 580" class="s46" d="m605 577v-3l4-1 4 2v8l-8-1z"/>
		<path id="Path 581" class="s90" d="m681 584l-2-11h12v6l-3 6z"/>
		<path id="Path 582" class="s33" d="m691 579v-6h2l2 6z"/>
		<path id="Path 583" class="s32" d="m285 585v-11h2l10 3v8l-12 2z"/>
		<path id="Path 584" class="s34" d="m711 575l4-1 4 1-3 8h-5z"/>
		<path id="Path 585" class="s32" d="m179 577l4-2h4l7 8h15l4 6v6l-5 2 3 4-5-1h-1l-7-2-4-1-6-2v-4l-9-7z"/>
		<path id="Path 586" class="s36" d="m556 577l5-2h9l1 4h-4-5z"/>
		<path id="Path 587" class="s46" d="m585 577l10-2 5 2 2 6-17 2z"/>
		<path id="Path 588" class="s55" d="m613 583v-8h10l3 5-9 2z"/>
		<path id="Path 589" class="s18" d="m636 576l3-1-9 5 1-2z"/>
		<path id="Path 590" class="s47" d="m650 577l-4-2 4 1z"/>
		<path id="Path 591" class="s29" d="m716 583l3-8 6 2h6l1 1v1l2 4v1l1 5-1 4-10-1-2-4h-6z"/>
		<path id="Path 592" class="s40" d="m209 578l4-2h6l3 8-1 5h-8l-4-6z"/>
		<path id="Path 593" class="s46" d="m458 577l4-1v4l3 1v10h-7v-1-7z"/>
		<path id="Path 594" class="s19" d="m650 577v-1l3 1z"/>
		<path id="Path 595" class="s90" d="m101 583v-6h18l1 7z"/>
		<path id="Path 596" class="s89" d="m120 584l-1-7h12l6 8h-6-3z"/>
		<path id="Path 597" class="s55" d="m297 585v-8l12 3 3 4-4 3z"/>
		<path id="Path 598" class="s76" d="m337 579l16-2h6l3 4-1 10v8h-19v-3l-17-5-6-5v-7z"/>
		<path id="Path 599" class="s42" d="m451 579l4-2h3v6h-7z"/>
		<path id="Path 600" class="s90" d="m481 579l4-2 1 1-1 9h-3z"/>
		<path id="Path 601" class="s9" d="m539 580l11-3h6l6 2-15 10-1 1h-2l-6 2h-2v-1z"/>
		<path id="Path 602" class="s55" d="m575 581l4-4h6v8h-8-2z"/>
		<path id="Path 603" class="s31" d="m602 583l-2-6h5v5l-2 1z"/>
		<path id="Path 604" class="s19" d="m663 580l-10-3h4z"/>
		<path id="Path 605" class="s23" d="m903 578l1-1 4 7v1h-5z"/>
		<path id="Path 606" class="s1" d="m912 584l-5-7 4 2z"/>
		<path id="Path 607" class="s45" d="m403 590v-6l-5-1v-3l7-2 7 2 5 9-8 2z"/>
		<path id="Path 608" class="s91" d="m485 587l1-9 11 2v6l-5 5z"/>
		<path id="Path 609" class="s1" d="m836 579l1-1 27 17-10-3z"/>
		<path id="Path 610" class="s3" d="m468 580l3-1h10l1 8-9 2z"/>
		<path id="Path 611" class="s35" d="m497 580l16-1 7 2-12 5h-11z"/>
		<path id="Path 612" class="s35" d="m547 589l15-10h5v7l-19 3z"/>
		<path id="Path 613" class="s31" d="m567 586v-7h4l4 2v4l-4 1z"/>
		<path id="Path 614" class="s35" d="m688 585l3-6h4l1 9-7-1z"/>
		<path id="Path 615" class="s18" d="m87 583l-6 1-2-4h1l2 1z"/>
		<path id="Path 616" class="s32" d="m465 581l3-1 5 9-5 2h-3z"/>
		<path id="Path 617" class="s88" d="m520 581l15-1h4l-3 11-7 2h-3l-8 2h-2-7l-1-9z"/>
		<path id="Path 618" class="s18" d="m675 585l-11-5 11 3z"/>
		<path id="Path 619" class="s60" d="m361 591l1-10h12l8 10h-1z"/>
		<path id="Path 620" class="s18" d="m603 583l2-1 8 1 4-1z"/>
		<path id="Path 621" class="s92" d="m95 585l-6-2h6z"/>
		<path id="Path 622" class="s48" d="m95 585v-2h6l19 1 8 1z"/>
		<path id="Path 623" class="s50" d="m451 590v-7h7v7z"/>
		<path id="Path 624" class="s5" d="m675 585v-2l6 1 7 1 1 2h-1z"/>
		<path id="Path 625" class="s35" d="m709 589l2-6h5v5l-1 4h-2-1l-2-1z"/>
		<path id="Path 626" class="s90" d="m165 585l14-1 9 7v4l-9-2-8-1-6-1z"/>
		<path id="Path 627" class="s36" d="m221 589l1-5 7 1 5 5 16 5-1 7 6 5v6l-9-1-6-2v-7l-11-6h-7l-1-1z"/>
		<path id="Path 628" class="s46" d="m308 587l4-3 4 2-1 7-7-1z"/>
		<path id="Path 629" class="s13" d="m735 589l-1-5 2 5z"/>
		<path id="Path 630" class="s34" d="m908 585v-1l3 3z"/>
		<path id="Path 631" class="s59" d="m139 587l-8-2h6l3 2z"/>
		<path id="Path 632" class="s3" d="m277 589l4-4h4v2 8h-8z"/>
		<path id="Path 633" class="s35" d="m285 587l12-2 11 2v5l-17 4-6-1z"/>
		<path id="Path 634" class="s47" d="m571 586l4-1h2l-6 2z"/>
		<path id="Path 635" class="s14" d="m903 589v-4h5l3 2 2 3-2 6-3 2z"/>
		<path id="Path 636" class="s41" d="m315 593l1-7h3l6 5 2 10h15l-1 11h-14l-1-7-11-6z"/>
		<path id="Path 637" class="s22" d="m492 591l5-5h11l1 9-1 1h-1l-5 1-5 1h-3-1z"/>
		<path id="Path 638" class="s19" d="m548 589l19-3h4v1l-23 3z"/>
		<path id="Path 639" class="s1" d="m146 588l-7-1h1z"/>
		<path id="Path 640" class="s89" d="m473 589l9-2h3l7 4 1 7-10 2h-4l-10 1h-2v-4l1-6z"/>
		<path id="Path 641" class="s1" d="m703 590l-15-3h1l7 1 7 1z"/>
		<path id="Path 642" class="s13" d="m915 590l-1-3 6 9h-1z"/>
		<path id="Path 643" class="s19" d="m154 590l-5-2 4 1z"/>
		<path id="Path 644" class="s54" d="m715 592l1-4h6l2 4-1 1z"/>
		<path id="Path 645" class="s35" d="m213 595v-6h8v7z"/>
		<path id="Path 646" class="s33" d="m269 595v-6h8v6z"/>
		<path id="Path 647" class="s43" d="m409 591l8-2 8 2 2 6-2 2h-14-2z"/>
		<path id="Path 648" class="s44" d="m425 591l7-2 2 4-2 4h-5z"/>
		<path id="Path 649" class="s12" d="m546 590l1-1h1v1z"/>
		<path id="Path 650" class="s42" d="m703 590v-1h6l1 2z"/>
		<path id="Path 651" class="s21" d="m724 592l10 1 1-4h1l1 6-14-1v-1z"/>
		<path id="Path 652" class="s19" d="m164 592l-6-2 6 1z"/>
		<path id="Path 653" class="s41" d="m382 591l21-1 6 1v8l-6 2h-10l-12-2v-8z"/>
		<path id="Path 654" class="s40" d="m448 592l3-2h7v1l-3 6h-6z"/>
		<path id="Path 655" class="s13" d="m712 592l-9-2 7 1z"/>
		<path id="Path 656" class="s24" d="m911 596l2-6h2l4 6v2z"/>
		<path id="Path 657" class="s12" d="m164 592v-1h1l6 1z"/>
		<path id="Path 658" class="s50" d="m342 601h-15l-2-10 17 5v3z"/>
		<path id="Path 659" class="s50" d="m361 599v-8h20v8z"/>
		<path id="Path 660" class="s90" d="m455 597l3-6h7v6z"/>
		<path id="Path 661" class="s91" d="m465 597v-6h3l-1 6z"/>
		<path id="Path 662" class="s93" d="m529 593l7-2v1l-3 2z"/>
		<path id="Path 663" class="s49" d="m291 596l17-4 7 1v6l11 6 1 7-10 1-5-1-3-4-18-3z"/>
		<path id="Path 664" class="s31" d="m441 593l7-1 1 5v2h-8v-1z"/>
		<path id="Path 665" class="s13" d="m723 594l-10-2h2l8 1z"/>
		<path id="Path 666" class="s55" d="m432 597l2-4h7v5z"/>
		<path id="Path 667" class="s21" d="m518 595l8-2v1z"/>
		<path id="Path 668" class="s12" d="m526 594v-1h3l4 1z"/>
		<path id="Path 669" class="s33" d="m211 601l-3-4 5-2 8 1 1 1-2 6-7-1z"/>
		<path id="Path 670" class="s40" d="m255 607l-6-5 1-7h15v8l-2 4z"/>
		<path id="Path 671" class="s37" d="m265 603v-8h4 8 8l6 1v9z"/>
		<path id="Path 672" class="s48" d="m508 596l1-1h7z"/>
		<path id="Path 673" class="s19" d="m883 605l-7-1-12-9z"/>
		<path id="Path 674" class="s1" d="m502 597l5-1v3h-5z"/>
		<path id="Path 675" class="s78" d="m919 598v-2h1l2 6z"/>
		<path id="Path 676" class="s1" d="m198 599l-4-2 4 1z"/>
		<path id="Path 677" class="s38" d="m220 603l2-6h7l11 6v7h-1-2l-9-3-6-2z"/>
		<path id="Path 678" class="s38" d="m425 599l2-2h5l9 1v1l2 6-4 2h-5l-7 1h-3z"/>
		<path id="Path 679" class="s33" d="m449 599v-2h6v6h-5z"/>
		<path id="Path 680" class="s30" d="m455 603v-6h10 2v4 1l-6 1h-5z"/>
		<path id="Path 681" class="s26" d="m497 598l5-1v2z"/>
		<path id="Path 682" class="s52" d="m198 599v-1l7 2z"/>
		<path id="Path 683" class="s79" d="m483 600l10-2h1z"/>
		<path id="Path 684" class="s46" d="m342 601v-2h19 20l12 2v5l-12 1h-13l-2 3-15 3h-6l-4-1z"/>
		<path id="Path 685" class="s35" d="m403 601l6-2h2l2 11-8 1-2-5z"/>
		<path id="Path 686" class="s3" d="m413 610l-2-11h14l-1 9-7 2h-3z"/>
		<path id="Path 687" class="s91" d="m443 605l-2-6h8l1 4-1 2h-3z"/>
		<path id="Path 688" class="s52" d="m213 602l-7-2 5 1z"/>
		<path id="Path 689" class="s36" d="m393 606v-5h10v5l-8 1z"/>
		<path id="Path 690" class="s18" d="m222 605l-9-3 7 1z"/>
		<path id="Path 691" class="s8" d="m461 603l6-1-6 2z"/>
		<path id="Path 692" class="s78" d="m922 605v-3l5 11-2-1z"/>
		<path id="Path 693" class="s82" d="m263 607l2-4 26 2 18 3 3 4-1 4h-8l-2 5h-3l-5-1-4-1-2-6-20-2z"/>
		<path id="Path 694" class="s48" d="m449 605l1-2h5 1v1z"/>
		<path id="Path 695" class="s20" d="m456 604v-1h5v1z"/>
		<path id="Path 696" class="s65" d="m439 607l4-2h3z"/>
		<path id="Path 697" class="s1" d="m889 609l-6-4 6 3z"/>
		<path id="Path 698" class="s10" d="m916 617v-10l6-2 3 7-1 7h-5z"/>
		<path id="Path 699" class="s38" d="m381 607l12-1 2 1v6l-4 2h-5-4z"/>
		<path id="Path 700" class="s33" d="m395 607l8-1 2 5-1 1-9 1z"/>
		<path id="Path 701" class="s3" d="m255 613v-6h8l4 4v4h-4-3z"/>
		<path id="Path 702" class="s36" d="m366 610l2-3h13l1 8-4 2h-4-7z"/>
		<path id="Path 703" class="s2" d="m427 608l7-1-7 2z"/>
		<path id="Path 704" class="s52" d="m417 610l7-2h3v1z"/>
		<path id="Path 705" class="s19" d="m889 609v-1l15 6v1l-8-1z"/>
		<path id="Path 706" class="s52" d="m246 612l-7-2h1z"/>
		<path id="Path 707" class="s34" d="m351 613l15-3 1 7h-1l-7 1-6 1z"/>
		<path id="Path 708" class="s12" d="m405 611l8-1h1l-10 2z"/>
		<path id="Path 709" class="s38" d="m267 615v-4l20 2 2 6h-2l-4-1-14-2z"/>
		<path id="Path 710" class="s8" d="m260 615l-14-3 9 1z"/>
		<path id="Path 711" class="s3" d="m311 616l1-4 5 1v4z"/>
		<path id="Path 712" class="s38" d="m317 613l10-1h14l4 1v6l-1 1h-2l-9 1-9 1h-2l-5-1v-4z"/>
		<path id="Path 713" class="s13" d="m395 613l9-1-13 3z"/>
		<path id="Path 714" class="s48" d="m924 619l1-7 2 1v7h-3z"/>
		<path id="Path 715" class="s35" d="m345 619v-6h6l2 6-1 1h-6z"/>
		<path id="Path 716" class="s94" d="m904 615v-1l12 3 3 2v1h-2l-8-3h-1z"/>
		<path id="Path 717" class="s5" d="m269 617l-6-2h4l2 1z"/>
		<path id="Path 718" class="s47" d="m378 617l4-2h4z"/>
		<path id="Path 719" class="s26" d="m269 617v-1l14 2v1z"/>
		<path id="Path 720" class="s24" d="m301 621l2-5h8l6 1v4h-2-6-4z"/>
		<path id="Path 721" class="s15" d="m359 618l7-1v2h-7z"/>
		<path id="Path 722" class="s78" d="m366 619v-2h1 7z"/>
		<path id="Path 723" class="s19" d="m283 619v-1l4 1v1z"/>
		<path id="Path 724" class="s52" d="m353 619l6-1v1l-7 1z"/>
		<path id="Path 725" class="s25" d="m287 620v-1h2l4 1z"/>
		<path id="Path 726" class="s44" d="m333 621l9-1-5 2z"/>
		<path id="Path 727" class="s79" d="m344 620l1-1 1 1z"/>
		<path id="Path 728" class="s27" d="m919 620v-1h5v1z"/>
		<path id="Path 729" class="s8" d="m298 622l-5-2 5 1z"/>
		<path id="Path 730" class="s12" d="m298 622v-1h3 4v1h-1z"/>
		<path id="Path 731" class="s93" d="m305 622v-1h4v2h-2-2z"/>
		<path id="Path 732" class="s11" d="m309 623v-2h6v2z"/>
		<path id="Path 733" class="s93" d="m315 623v-2h2l5 1-3 1z"/>
		<path id="Path 734" class="s12" d="m324 622l9-1 4 1z"/>
		<path id="Path 735" class="s65" d="m304 622h1v1h-1z"/>
		<path id="Path 736" class="s65" d="m319 623l3-1v2h-3z"/>
		<path id="Path 737" class="s65" d="m305 624v-1h2v1z"/>
		<path id="Path 738" class="s8" d="m307 624v-1h2 6 4v1z"/>
	</g>
</svg>