<svg version="1.2" xmlns="http://www.w3.org/2000/svg" viewBox="0 0 1000 1000" width="1000" height="1000">
	<title>Coregonus_kiyi</title>
	<style>
		.s0 { opacity: .1;fill: #f4f4f4 } 
		.s1 { opacity: .7;fill: #dde1e1 } 
		.s2 { opacity: .7;fill: #9ba7a6 } 
		.s3 { opacity: .1;fill: #d6dcdc } 
		.s4 { opacity: .2;fill: #7f8d88 } 
		.s5 { opacity: .3;fill: #f1f2f2 } 
		.s6 { fill: #0c3438 } 
		.s7 { fill: #082b2d } 
		.s8 { fill: #88a4ad } 
		.s9 { fill: #184e55 } 
		.s10 { opacity: .4;fill: #b5bcbb } 
		.s11 { opacity: 1;fill: #335758 } 
		.s12 { opacity: .6;fill: #edefef } 
		.s13 { opacity: .3;fill: #a7b3b1 } 
		.s14 { fill: #2d5b62 } 
		.s15 { fill: #0c4046 } 
		.s16 { opacity: .7;fill: #b4bebd } 
		.s17 { fill: #3f6c75 } 
		.s18 { fill: #294b4b } 
		.s19 { opacity: .5;fill: #5e6d69 } 
		.s20 { opacity: .6;fill: #252e29 } 
		.s21 { opacity: .7;fill: #7f8f8d } 
		.s22 { fill: #516460 } 
		.s23 { fill: #667875 } 
		.s24 { fill: #436568 } 
		.s25 { opacity: .8;fill: #5e6f6b } 
		.s26 { opacity: .8;fill: #4b554f } 
		.s27 { opacity: .1;fill: #aab4b2 } 
		.s28 { opacity: .9;fill: #a1adab } 
		.s29 { opacity: .9;fill: #7e8d8a } 
		.s30 { fill: #040806 } 
		.s31 { fill: #081a18 } 
		.s32 { opacity: 1;fill: #3a4742 } 
		.s33 { opacity: .2;fill: #5e6f6b } 
		.s34 { fill: #9ea198 } 
		.s35 { fill: #7c857e } 
		.s36 { fill: #6f7369 } 
		.s37 { opacity: .3;fill: #d4d9d8 } 
		.s38 { opacity: .3;fill: #29403b } 
		.s39 { fill: #140c06 } 
		.s40 { fill: #1c170e } 
		.s41 { opacity: .5;fill: #9fa9a6 } 
		.s42 { fill: #8d948d } 
		.s43 { fill: #222b22 } 
		.s44 { opacity: .5;fill: #d2d8d7 } 
		.s45 { fill: #5a8390 } 
		.s46 { fill: #435655 } 
		.s47 { fill: #2d3a32 } 
		.s48 { fill: #587982 } 
		.s49 { fill: #4b4638 } 
		.s50 { fill: #2c2414 } 
		.s51 { fill: #50564c } 
		.s52 { fill: #423523 } 
		.s53 { fill: #4c7884 } 
		.s54 { fill: #98bac9 } 
		.s55 { fill: #1e3e3d } 
		.s56 { fill: #6b97ac } 
		.s57 { fill: #8db0bd } 
		.s58 { fill: #6c8a91 } 
		.s59 { fill: #7899a4 } 
		.s60 { fill: #517077 } 
		.s61 { fill: #a7b5b5 } 
		.s62 { fill: #89b9ce } 
		.s63 { fill: #598b9f } 
		.s64 { fill: #9aabac } 
		.s65 { fill: #79a5b7 } 
		.s66 { fill: #c9d5db } 
		.s67 { fill: #adbec4 } 
		.s68 { fill: #c0caca } 
		.s69 { fill: #7eadc1 } 
		.s70 { fill: #57a0bd } 
		.s71 { fill: #646556 } 
		.s72 { fill: #99c3d7 } 
		.s73 { fill: #eeeade } 
		.s74 { fill: #d3dfe4 } 
		.s75 { fill: #f4f8f9 } 
		.s76 { fill: #dae6e9 } 
		.s77 { fill: #b5c8cd } 
		.s78 { fill: #bbd7e4 } 
		.s79 { fill: #dbeff5 } 
		.s80 { opacity: .5;fill: #808c87 } 
		.s81 { fill: #adcdda } 
		.s82 { fill: #ccecf5 } 
		.s83 { fill: #b4dcee } 
		.s84 { fill: #5d90ab } 
		.s85 { fill: #d1d7d2 } 
		.s86 { fill: #c5c5b9 } 
		.s87 { fill: #eaedee } 
		.s88 { fill: #fefefc } 
		.s89 { fill: #e8f2f8 } 
		.s90 { fill: #bdb6a3 } 
		.s91 { fill: #aad3e5 } 
		.s92 { fill: #5c6a66 } 
		.s93 { fill: #e1d5c3 } 
		.s94 { fill: #c4e3ef } 
		.s95 { fill: #9bcce1 } 
		.s96 { opacity: .9;fill: #c4c2b6 } 
	</style>
	<g id="Background">
		<path id="Path 0" class="s0" d="m904 412h1v1h-1z"/>
		<path id="Path 1" class="s1" d="m905 413v-1h4v2h-4z"/>
		<path id="Path 2" class="s2" d="m909 414v-2h14v2h-2z"/>
		<path id="Path 3" class="s1" d="m923 414v-2h5l1 1v1z"/>
		<path id="Path 4" class="s3" d="m928 412h1v1h-1z"/>
		<path id="Path 5" class="s3" d="m894 417l6-4v2l-2 1-3 1z"/>
		<path id="Path 6" class="s4" d="m900 415v-2h4 1v1z"/>
		<path id="Path 7" class="s5" d="m930 414l2-1-1 7h-1v-5z"/>
		<path id="Path 8" class="s6" d="m900 415l5-1h4 12v4l-4 5-8 3-9-2-2-8z"/>
		<path id="Path 9" class="s7" d="m921 418v-4h2 6 1v1l-1 3z"/>
		<path id="Path 10" class="s8" d="m929 418l1-3v5l-1 3-2 1z"/>
		<path id="Path 11" class="s9" d="m895 417l3-1 2 8-1 12v4l-12-2-4-13v-1l4-2z"/>
		<path id="Path 12" class="s10" d="m887 420l7-3h1l-8 5z"/>
		<path id="Path 13" class="s11" d="m917 423l4-5h8l-2 6v1l-3 3-2 2z"/>
		<path id="Path 14" class="s12" d="m883 423l4-3v2l-4 2z"/>
		<path id="Path 15" class="s3" d="m929 423l1-3h1z"/>
		<path id="Path 16" class="s13" d="m878 427l5-4v1 1z"/>
		<path id="Path 17" class="s14" d="m909 426l8-3 5 7-5 5-7 7-6-6z"/>
		<path id="Path 18" class="s3" d="m927 424l2-1-2 2z"/>
		<path id="Path 19" class="s15" d="m899 436l1-12 9 2-5 10z"/>
		<path id="Path 20" class="s14" d="m878 427l5-2 4 13-8 6h-6l-9-7 5-5 8-5z"/>
		<path id="Path 21" class="s13" d="m869 432l2-4 6-1z"/>
		<path id="Path 22" class="s16" d="m859 438l10-6-5 5-5 2z"/>
		<path id="Path 23" class="s0" d="m910 442l7-7-1 5-17 15 1-2 2-3z"/>
		<path id="Path 24" class="s11" d="m899 440v-4h5l6 6-8 8z"/>
		<path id="Path 25" class="s17" d="m859 439l5-2 9 7-6 7-1 8-9 6h-2v-5-8l-3-1v-3l-4-1 5-5h1z"/>
		<path id="Path 26" class="s2" d="m854 442l5-4v1z"/>
		<path id="Path 27" class="s18" d="m879 444l8-6 12 2 3 10-2 3-3 2-10 13-7 8-1 2-4 3-4-7-4 1v3h-10v-13l9-6 4 7 8-1z"/>
		<path id="Path 28" class="s12" d="m494 442l6-2v2z"/>
		<path id="Path 29" class="s16" d="m500 442v-2h5v1z"/>
		<path id="Path 30" class="s19" d="m505 441v-1h9v1h-7z"/>
		<path id="Path 31" class="s20" d="m514 441v-1h15v1l-11 1z"/>
		<path id="Path 32" class="s21" d="m529 441v-1h10v2h-8z"/>
		<path id="Path 33" class="s16" d="m539 442v-2l8 2z"/>
		<path id="Path 34" class="s22" d="m500 442l5-1h2v10l-8-1-12-2v-4l1-2h6z"/>
		<path id="Path 35" class="s23" d="m507 451v-10h7l4 1 3 4v6h-8z"/>
		<path id="Path 36" class="s24" d="m518 442l11-1 2 1-2 4h-8z"/>
		<path id="Path 37" class="s16" d="m474 444l10-2v2h-8z"/>
		<path id="Path 38" class="s25" d="m484 444v-2h4l-1 2z"/>
		<path id="Path 39" class="s23" d="m529 446l2-4h8 8l1 3-4 6h-5l-4 5-6-2z"/>
		<path id="Path 40" class="s26" d="m548 445l-1-3h11l1 2-4 1z"/>
		<path id="Path 41" class="s1" d="m559 444l-1-2 9 2h-4z"/>
		<path id="Path 42" class="s5" d="m846 447l2-4 5-1-5 5h-1z"/>
		<path id="Path 43" class="s3" d="m449 445l7-2v1z"/>
		<path id="Path 44" class="s27" d="m456 444v-1l10 1h-7z"/>
		<path id="Path 45" class="s28" d="m449 445l7-1h3v2h-10z"/>
		<path id="Path 46" class="s29" d="m459 446v-2h7 1z"/>
		<path id="Path 47" class="s30" d="m459 446l8-2h6v8l-4 2-5-2-4 4-7-3h-4l-2-6v-1h2z"/>
		<path id="Path 48" class="s31" d="m473 452v-8h1 2l5 4v4z"/>
		<path id="Path 49" class="s32" d="m481 448l-5-4h8 3v4z"/>
		<path id="Path 50" class="s6" d="m555 445l4-1h4v6l-2 16-2 2h-8l-2-1 1-5-5 1-2-2 3-5 9-6z"/>
		<path id="Path 51" class="s7" d="m563 450v-6h4 3l1 2z"/>
		<path id="Path 52" class="s29" d="m571 446l-1-2h1l10 1v1z"/>
		<path id="Path 53" class="s9" d="m866 459l1-8 6-7h6l-1 21-8 1z"/>
		<path id="Path 54" class="s3" d="m408 447l15-2v1l-14 1z"/>
		<path id="Path 55" class="s27" d="m423 446v-1h18v1h-17z"/>
		<path id="Path 56" class="s33" d="m441 446v-1l6 1z"/>
		<path id="Path 57" class="s11" d="m544 451l4-6h7v5l-9 6z"/>
		<path id="Path 58" class="s27" d="m585 446l7-1v1z"/>
		<path id="Path 59" class="s0" d="m592 446v-1l4 2z"/>
		<path id="Path 60" class="s34" d="m409 447l14-1h1l-1 2h-2-9z"/>
		<path id="Path 61" class="s35" d="m423 448l1-2h17 6v1l-10 1z"/>
		<path id="Path 62" class="s35" d="m521 452v-6h8v8h-4z"/>
		<path id="Path 63" class="s31" d="m563 450l8-4h10 4l2 2v6l-4 1 1 3 1 3 19 3h5 2l1 2-3 4h-5l-7-3-5 5h-9l-13-1-2-5h-5-2z"/>
		<path id="Path 64" class="s36" d="m587 448l-2-2h7l4 1h2l1 1v1z"/>
		<path id="Path 65" class="s37" d="m339 449l16-2v1l-14 1z"/>
		<path id="Path 66" class="s13" d="m355 448v-1h14l-1 1z"/>
		<path id="Path 67" class="s36" d="m368 448l1-1h7l1 1-4 1h-5z"/>
		<path id="Path 68" class="s33" d="m377 448l-1-1h6v1z"/>
		<path id="Path 69" class="s38" d="m382 448v-1l14 1h-11z"/>
		<path id="Path 70" class="s39" d="m396 448l12-1h1l3 1v6l3 2-11 4-1-6h-8-10v-6z"/>
		<path id="Path 71" class="s40" d="m437 448l10-1 2 6-2 5-9-1-1-3z"/>
		<path id="Path 72" class="s13" d="m599 448l-1-1h4v1z"/>
		<path id="Path 73" class="s3" d="m602 448v-1l2 2h-1z"/>
		<path id="Path 74" class="s41" d="m837 453l9-6h1l-9 7z"/>
		<path id="Path 75" class="s18" d="m838 454l9-7h1l4 1v3l-6 6-7 6-5 5-10-2 8-7z"/>
		<path id="Path 76" class="s41" d="m319 450l9-2v2l-4 1h-4z"/>
		<path id="Path 77" class="s19" d="m328 450v-2l5 1z"/>
		<path id="Path 78" class="s42" d="m341 449l14-1h13v1h-7-4-9z"/>
		<path id="Path 79" class="s43" d="m373 449l4-1h5 3v6l-2 11-10-1-1-6z"/>
		<path id="Path 80" class="s30" d="m415 456l-3-2v-6h9v4l-4 3z"/>
		<path id="Path 81" class="s31" d="m421 452v-4h2 14v6l-5 2-9-1z"/>
		<path id="Path 82" class="s39" d="m481 452v-4h6l12 2v9l-4 2-7-2z"/>
		<path id="Path 83" class="s30" d="m587 454v-6l12 1 2 3-6 2h-1-1z"/>
		<path id="Path 84" class="s42" d="m599 449v-1h3l1 1-2 3z"/>
		<path id="Path 85" class="s40" d="m328 450l5-1h6 2 7l2 8-1 5-5 6h-3l-10-3-6-2-1-12z"/>
		<path id="Path 86" class="s39" d="m350 457l-2-8h9v5l-4 3z"/>
		<path id="Path 87" class="s31" d="m357 454v-5h4v5z"/>
		<path id="Path 88" class="s40" d="m361 454v-5h7 5l-1 9-9-1z"/>
		<path id="Path 89" class="s13" d="m601 452l2-3h1l-3 6-6-1z"/>
		<path id="Path 90" class="s44" d="m308 452l6-2-5 2z"/>
		<path id="Path 91" class="s26" d="m309 452l5-2h5l1 1-5 2z"/>
		<path id="Path 92" class="s40" d="m499 459v-9l8 1 6 1v6l-1 2h-9z"/>
		<path id="Path 93" class="s39" d="m315 453l5-2h4l1 12-2 3h-6z"/>
		<path id="Path 94" class="s32" d="m535 456l4-5h5l2 5-3 5h-6z"/>
		<path id="Path 95" class="s45" d="m846 457l6-6 3 1v8h-8z"/>
		<path id="Path 96" class="s40" d="m296 454l10-2h2 1l6 1 2 13-10-1-12-1-2 4h-6v-12l6-2z"/>
		<path id="Path 97" class="s24" d="m417 455l4-3 2 3-3 3z"/>
		<path id="Path 98" class="s46" d="m460 456l4-4 5 2v5l-3 1-1 6 4 10-4 4-4 4h-7l-19 1-4-5-6-6v-6l8-2 3 3h7l2 6 6 3 4-2-3-8v-2h7z"/>
		<path id="Path 99" class="s40" d="m469 454l4-2h8l7 7 7 2v6l-6 5h-5l-3-2-6-2v-4l-6-5z"/>
		<path id="Path 100" class="s47" d="m513 458v-6h8l4 2-4 6h-3z"/>
		<path id="Path 101" class="s24" d="m395 454h8l1 6v4 1l-4 1v3l4 2 1-3 3-1 8 1 2 10-6 4-13-2-3-15 2-3z"/>
		<path id="Path 102" class="s46" d="m447 458l2-5h4l-2 7h-3z"/>
		<path id="Path 103" class="s43" d="m451 460l2-7 7 3-1 10h-7z"/>
		<path id="Path 104" class="s16" d="m832 457l5-4 1 1-6 5z"/>
		<path id="Path 105" class="s44" d="m897 455l3-2-1 2z"/>
		<path id="Path 106" class="s33" d="m279 455l6-1v2h-3-3z"/>
		<path id="Path 107" class="s28" d="m285 456v-2h8l-6 2z"/>
		<path id="Path 108" class="s47" d="m353 457l4-3h4l2 3 9 1 1 6 10 1 6 1v1l-2 6-3 4-10 1-14-10h-7v-6z"/>
		<path id="Path 109" class="s40" d="m383 465l2-11h10l3 8-2 3-7 1z"/>
		<path id="Path 110" class="s48" d="m432 456l5-2 1 3-5 2z"/>
		<path id="Path 111" class="s43" d="m521 460l4-6h4l6 2 2 5-6 1v6h8l2 3v5l-6 1-2-3h-6v-7z"/>
		<path id="Path 112" class="s28" d="m584 458l-1-3 4-1h6l-8 4z"/>
		<path id="Path 113" class="s10" d="m585 458l8-4h1l-1 3h-6l4 3z"/>
		<path id="Path 114" class="s27" d="m273 457l6-2v1z"/>
		<path id="Path 115" class="s49" d="m415 456l2-1 3 3-1 8-3 2-8-1v-3h-4v-4z"/>
		<path id="Path 116" class="s50" d="m420 458l3-3 9 1 1 3v7l-8 2-6-2z"/>
		<path id="Path 117" class="s44" d="m887 468l10-13-3 8z"/>
		<path id="Path 118" class="s34" d="m273 457l6-1h3l-5 2z"/>
		<path id="Path 119" class="s39" d="m277 458l5-2h3 2v12l-3 2-6-1-1-5z"/>
		<path id="Path 120" class="s33" d="m263 459l9-2-1 1-7 1z"/>
		<path id="Path 121" class="s31" d="m271 458l1-1h1l4 1v6l-6 2-1-6z"/>
		<path id="Path 122" class="s51" d="m349 462l1-5h3v5z"/>
		<path id="Path 123" class="s52" d="m433 459l5-2 9 1 1 2-1 6-4 3h-7l-3-3z"/>
		<path id="Path 124" class="s44" d="m823 463l9-6v2l-8 7-3 1v-2z"/>
		<path id="Path 125" class="s53" d="m839 463l7-6 1 3h8v5l-15 1z"/>
		<path id="Path 126" class="s44" d="m253 460l7-1-3 2h-4z"/>
		<path id="Path 127" class="s46" d="m264 459l7-1-1 2z"/>
		<path id="Path 128" class="s23" d="m512 460l1-2 5 2-1 2z"/>
		<path id="Path 129" class="s25" d="m604 464l-19-3-1-3h1l6 2h4l6 2h2z"/>
		<path id="Path 130" class="s43" d="m257 461l3-2h3 1l6 1 1 6v6h-8v-5z"/>
		<path id="Path 131" class="s50" d="m465 466l1-6 3-1 6 5v4z"/>
		<path id="Path 132" class="s52" d="m495 461l4-2 4 1v10h-5l-3-3z"/>
		<path id="Path 133" class="s19" d="m246 462l7-2v1l-3 1z"/>
		<path id="Path 134" class="s50" d="m447 466l1-6h3l1 6v2z"/>
		<path id="Path 135" class="s50" d="m503 470v-10h9l5 2v7l-2 2z"/>
		<path id="Path 136" class="s52" d="m517 462l1-2h3l6 7v7h-2l-8-5z"/>
		<path id="Path 137" class="s39" d="m250 462l3-1h4l6 6v5h-4l-10-5z"/>
		<path id="Path 138" class="s24" d="m541 471l-2-3h-8v-6l6-1h6l2 2 2 5z"/>
		<path id="Path 139" class="s43" d="m238 464l5-2h3 4l-1 5 10 5v4l-4 2v6l-8 2-2-4h-5l-5 6-6-1-4-3-2-3h-10v-3-7-1l10-3h1l8-2 5-1z"/>
		<path id="Path 140" class="s49" d="m344 468l5-6h4v6z"/>
		<path id="Path 141" class="s17" d="m545 463l5-1-1 5-2 1z"/>
		<path id="Path 142" class="s16" d="m604 464l-1-2 6 2z"/>
		<path id="Path 143" class="s27" d="m231 465l6-1-5 1z"/>
		<path id="Path 144" class="s51" d="m317 466h6l2-3 6 2 2 13-14 1h-7l-4-2-1-3v-9z"/>
		<path id="Path 145" class="s16" d="m611 464l3-1 5 2v1h-7z"/>
		<path id="Path 146" class="s17" d="m834 468l5-5 1 3-3 4z"/>
		<path id="Path 147" class="s32" d="m271 466l6-2 1 5 6 1v2l-3 1-5 5h-5v-6z"/>
		<path id="Path 148" class="s49" d="m293 468l2-4 12 1v9l-11 2z"/>
		<path id="Path 149" class="s23" d="m404 465v-1h4v3l-3 1z"/>
		<path id="Path 150" class="s4" d="m224 467l7-2h1z"/>
		<path id="Path 151" class="s32" d="m333 478l-2-13 10 3v10z"/>
		<path id="Path 152" class="s32" d="m389 466l7-1 3 15h-11l-4-3 3-4 4-1-2-5z"/>
		<path id="Path 153" class="s54" d="m405 468l-1 3-4-2v-3l4-1z"/>
		<path id="Path 154" class="s42" d="m620 466l2-1 5 2z"/>
		<path id="Path 155" class="s37" d="m813 472l8-7v2z"/>
		<path id="Path 156" class="s14" d="m840 466l15-1h2v13l-4 8-12 6h-4v-22z"/>
		<path id="Path 157" class="s11" d="m416 468l3-2 6 2v6l6 6-2 2-4-3-6 2-1-3z"/>
		<path id="Path 158" class="s11" d="m443 469l4-3 5 2 3 8-4 2-6-3z"/>
		<path id="Path 159" class="s47" d="m469 476l-4-10 10 2 6 2v2l-10 4z"/>
		<path id="Path 160" class="s40" d="m559 468l2-2h2l2 5v7h-6z"/>
		<path id="Path 161" class="s46" d="m565 471l-2-5h5l2 5z"/>
		<path id="Path 162" class="s40" d="m609 470l3-4h7 1l7 1h2l4 3v4l-4 2h-13l-7-5z"/>
		<path id="Path 163" class="s11" d="m821 467l3-1 10 2 3 2v22h-15l-1 9h-7v-3l-9-6v-7l-4-4 5-4 1-2h1l4-3h1z"/>
		<path id="Path 164" class="s4" d="m209 470l14-3-10 3z"/>
		<path id="Path 165" class="s23" d="m387 473l2-6 2 5z"/>
		<path id="Path 166" class="s47" d="m489 472l6-5 3 3v3l-5 3z"/>
		<path id="Path 167" class="s47" d="m547 468l2-1 2 1 3 10v4l-6 3-5-2-2-7v-5z"/>
		<path id="Path 168" class="s36" d="m592 472l5-5-2 6z"/>
		<path id="Path 169" class="s46" d="m595 473l2-6 7 3-2 8h-7z"/>
		<path id="Path 170" class="s35" d="m633 470l-4-3h3l4 2v1z"/>
		<path id="Path 171" class="s37" d="m636 469l-4-2 5 2z"/>
		<path id="Path 172" class="s46" d="m284 470l3-2h6l3 8-2 2-3-5-7-1z"/>
		<path id="Path 173" class="s46" d="m341 478v-10h3 9 7l14 10v2l-27-1z"/>
		<path id="Path 174" class="s50" d="m554 478l-3-10h8v10z"/>
		<path id="Path 175" class="s10" d="m640 469l9-1v3h-5z"/>
		<path id="Path 176" class="s44" d="m880 476l7-8v4l-5 4z"/>
		<path id="Path 177" class="s49" d="m515 471l2-2 8 5v6l-9-2z"/>
		<path id="Path 178" class="s55" d="m636 470v-1h1 3l4 2-1 3h-6z"/>
		<path id="Path 179" class="s19" d="m199 472l10-2h4v1l-12 2h-2z"/>
		<path id="Path 180" class="s11" d="m481 472v-2l3 2h-1z"/>
		<path id="Path 181" class="s46" d="m498 473v-3h5l12 1 1 7-2 4-5 4-4 1-4-1v-11z"/>
		<path id="Path 182" class="s56" d="m602 478l2-8h5v1l-1 8h-3z"/>
		<path id="Path 183" class="s39" d="m633 474v-4h3l1 4z"/>
		<path id="Path 184" class="s31" d="m201 473l12-2v7h-9z"/>
		<path id="Path 185" class="s43" d="m565 478v-7h5l13 1v6l-5 3-9 2z"/>
		<path id="Path 186" class="s49" d="m608 479l1-8 7 5h13v15l-18-2z"/>
		<path id="Path 187" class="s50" d="m643 474l1-3h5 3l7 1h1v1l-1 4-6-1-3 3h-6z"/>
		<path id="Path 188" class="s16" d="m193 474l6-2v1z"/>
		<path id="Path 189" class="s47" d="m259 476v-4h4 8v6l-1 2z"/>
		<path id="Path 190" class="s57" d="m281 473l3-1 7 1 3 5 3 3v5h-14l-1-1z"/>
		<path id="Path 191" class="s32" d="m471 476l10-4h2l-1 11-5 2-6-4z"/>
		<path id="Path 192" class="s51" d="m482 483l1-11h1 5l4 4-2 9-5 1h-3z"/>
		<path id="Path 193" class="s50" d="m583 478v-6h9l3 1v5z"/>
		<path id="Path 194" class="s21" d="m660 473v-1h10l1 2v1z"/>
		<path id="Path 195" class="s4" d="m671 474l-1-2 6 1v1z"/>
		<path id="Path 196" class="s27" d="m184 476l1-3 6 1z"/>
		<path id="Path 197" class="s43" d="m193 474l6-1h2l3 5v8l-9 5-10-5 2-6-5-2 1-2h1l7-2z"/>
		<path id="Path 198" class="s24" d="m276 478l5-5 1 12-5 4-2-2v-1z"/>
		<path id="Path 199" class="s11" d="m493 476l5-3 3 2v11l-10-1z"/>
		<path id="Path 200" class="s40" d="m659 477l1-4 11 2 2 1v3l-14 2z"/>
		<path id="Path 201" class="s3" d="m676 474v-1l5 2z"/>
		<path id="Path 202" class="s23" d="m296 476l11-2 1 3-1 2-4 3-6-1-3-3z"/>
		<path id="Path 203" class="s47" d="m525 480v-6h2 6l2 3v6l-5 1z"/>
		<path id="Path 204" class="s52" d="m629 476l4-2h4l1 6 6-1h6l1 3 8-1 14-2 4 1v7l10 5v9l-10-1h-12l-10-2-7-1-1-4-7 3h-7l-4-5z"/>
		<path id="Path 205" class="s48" d="m644 479l-6 1-1-6h6z"/>
		<path id="Path 206" class="s29" d="m671 475v-1h5l5 1v1h-8z"/>
		<path id="Path 207" class="s15" d="m867 478v-3l4-1 4 7-4 4z"/>
		<path id="Path 208" class="s27" d="m683 476l9 1-8-1z"/>
		<path id="Path 209" class="s3" d="m804 477l3-2-1 2z"/>
		<path id="Path 210" class="s29" d="m176 477l7-1-1 2-15 4-2 1-6 1 1-2 6-2 7-3z"/>
		<path id="Path 211" class="s52" d="m255 484v-6l4-2 11 4 5 6v1l-4 3h-2z"/>
		<path id="Path 212" class="s58" d="m374 478l10-1 4 3h11l13 2 6-4 1 3 6-2 4 3-3 7-11 1-38-6-3-4z"/>
		<path id="Path 213" class="s18" d="m465 480l4-4h2v5l-5 3z"/>
		<path id="Path 214" class="s32" d="m535 477l6-1 2 7-1 2-7-2z"/>
		<path id="Path 215" class="s46" d="m650 479l3-3 6 1v4l-8 1z"/>
		<path id="Path 216" class="s43" d="m673 479v-3h8 2 1l4 2v2h-11z"/>
		<path id="Path 217" class="s42" d="m688 478l-4-2 8 1z"/>
		<path id="Path 218" class="s3" d="m879 478l1-2h2z"/>
		<path id="Path 219" class="s58" d="m307 479l1-2 4 2-3 3z"/>
		<path id="Path 220" class="s8" d="m319 479l14-1v5l-9 4-4-1z"/>
		<path id="Path 221" class="s31" d="m688 478l4-1h4l6 2h3l3 2 1 5h-5l-3-4-9 2-4-4z"/>
		<path id="Path 222" class="s2" d="m801 478l2-1h1 2l-5 4-6 3h-4z"/>
		<path id="Path 223" class="s30" d="m167 482l15-4 5 2-2 6-9-1-9 1z"/>
		<path id="Path 224" class="s47" d="m204 486v-8h9v3l-2 3-6 2z"/>
		<path id="Path 225" class="s23" d="m270 480l1-2h5l-1 8z"/>
		<path id="Path 226" class="s59" d="m333 483v-5h8l6 1v7h-6z"/>
		<path id="Path 227" class="s60" d="m514 482l2-4 9 2 5 4v2l-8 2-4-5z"/>
		<path id="Path 228" class="s46" d="m548 485l6-3v-4h5 6l4 5v4l-4 3-6-3-3 4-8-3z"/>
		<path id="Path 229" class="s47" d="m578 481l5-3h12 7l3 1v11l-20-1z"/>
		<path id="Path 230" class="s16" d="m705 479l7-1 9 4v1l-8-1-5-1z"/>
		<path id="Path 231" class="s6" d="m853 486l4-8h10l4 7-2 4h-4z"/>
		<path id="Path 232" class="s37" d="m875 481l4-3v4l-8 7h-2l2-4z"/>
		<path id="Path 233" class="s61" d="m297 481l6 1 4-3 2 3v8l3 2-8 1v-3l-7-4z"/>
		<path id="Path 234" class="s57" d="m309 482l3-3h7l1 7-5 5-3 1-3-2z"/>
		<path id="Path 235" class="s8" d="m347 486v-7l27 1 3 4h-8l-6 4z"/>
		<path id="Path 236" class="s32" d="m605 490v-11h3l3 10z"/>
		<path id="Path 237" class="s62" d="m429 482l2-2 4 5v6h-8l-1-2z"/>
		<path id="Path 238" class="s59" d="m454 484h7l4-4 1 4 5-3 6 4v7l-4 1-17-3z"/>
		<path id="Path 239" class="s49" d="m687 492l-10-5v-7h11l4 4v2l1 6z"/>
		<path id="Path 240" class="s24" d="m211 484l2-3h10l2 3-4 4z"/>
		<path id="Path 241" class="s24" d="m569 483l9-2 7 8v4h-4l-3-3-7 1-2-4z"/>
		<path id="Path 242" class="s43" d="m709 486l-1-5 5 1 1 5h-3z"/>
		<path id="Path 243" class="s18" d="m795 484l6-3 4 4v7h-8l-2-2z"/>
		<path id="Path 244" class="s13" d="m158 484l2-2-1 2z"/>
		<path id="Path 245" class="s31" d="m165 483l2-1v4h-2z"/>
		<path id="Path 246" class="s9" d="m235 488l5-6h5l2 4-2 2-5 2-4 1z"/>
		<path id="Path 247" class="s63" d="m509 486l5-4 4 1-5 7z"/>
		<path id="Path 248" class="s48" d="m692 484l9-2 3 4h-3-9z"/>
		<path id="Path 249" class="s18" d="m714 487l-1-5 8 1v1l-2 4z"/>
		<path id="Path 250" class="s2" d="m721 483v-1h7v2h-7z"/>
		<path id="Path 251" class="s27" d="m728 484v-2l9 3-7-1z"/>
		<path id="Path 252" class="s13" d="m148 487l5-4 4 1-6 3z"/>
		<path id="Path 253" class="s7" d="m159 484l6-1v3l-3 4v1l-3 3-8-2v-5l6-3h1z"/>
		<path id="Path 254" class="s64" d="m324 487l9-4 8 3-6 8h-8z"/>
		<path id="Path 255" class="s57" d="m435 485l19-1 2 6-11 2-6-1h-4z"/>
		<path id="Path 256" class="s65" d="m477 485l5-2 1 3-1 7-5-1z"/>
		<path id="Path 257" class="s65" d="m513 490l5-7 4 5-1 7h-1l-7-1z"/>
		<path id="Path 258" class="s24" d="m530 484l5-1 7 2 1-2 5 2v3l-15 2-3-4z"/>
		<path id="Path 259" class="s27" d="m784 485l6-1-3 1h-2z"/>
		<path id="Path 260" class="s34" d="m205 486l6-2 10 4v3l-3 1h-4l-7-2-1 8-2 13h-1l-1-1h-2l-8 10h-5v-7l1-5-1-8 5-1v-5l3-1 8 5z"/>
		<path id="Path 261" class="s56" d="m221 488l4-4 4 3-1 6 3 1v3l-5-2-5-4z"/>
		<path id="Path 262" class="s63" d="m247 486l8-2 14 6-3 3h-10l-11-5z"/>
		<path id="Path 263" class="s61" d="m363 488l6-4h8l38 6v6h-17l-8 8h-14l-11-2z"/>
		<path id="Path 264" class="s47" d="m719 488l2-4h7 2l7 2 10 2v1l-1 6-6 1 2 6-4 4h-11l-2-8 2-8z"/>
		<path id="Path 265" class="s28" d="m737 486l-7-2 7 1z"/>
		<path id="Path 266" class="s46" d="m787 485l3-1h1 4v6h-2z"/>
		<path id="Path 267" class="s45" d="m167 486l9-1v4l-3 2-6 6h-1v-3-5l-4 1 3-4z"/>
		<path id="Path 268" class="s53" d="m176 489v-4l9 1 10 5v2l-3 1h-5v3l-2-1-2-5z"/>
		<path id="Path 269" class="s34" d="m277 489l5-4 1 1 2 12h-4z"/>
		<path id="Path 270" class="s57" d="m486 486l5-1 10 1-1 8h-7l-7-1z"/>
		<path id="Path 271" class="s4" d="m737 486v-1l20 4-10-1z"/>
		<path id="Path 272" class="s3" d="m774 487l5-2v1l-4 1z"/>
		<path id="Path 273" class="s4" d="m779 486v-1h5 1l-4 1z"/>
		<path id="Path 274" class="s32" d="m781 486l4-1h2l6 5-1 14h-5v-7l-7-4v-5z"/>
		<path id="Path 275" class="s51" d="m195 491l9-5h1l-2 12-8-5z"/>
		<path id="Path 276" class="s66" d="m285 498l-2-12h14l7 4v3l-2 9-15 2-1-1z"/>
		<path id="Path 277" class="s67" d="m315 491l5-5 4 1 3 7v8h-6l-4-1z"/>
		<path id="Path 278" class="s68" d="m327 494h8l6-8h6l16 2 2 14-2 6-11-2 1-7-8-3h-9l-2 7-7-1z"/>
		<path id="Path 279" class="s56" d="m482 493l1-7h3v7h-3z"/>
		<path id="Path 280" class="s56" d="m500 494l1-8 4 1v8h-2z"/>
		<path id="Path 281" class="s69" d="m505 487l4-1 4 4v4l-5 1h-3z"/>
		<path id="Path 282" class="s59" d="m522 488l8-2 3 4v7l-12-2z"/>
		<path id="Path 283" class="s56" d="m693 492l-1-6h9v10z"/>
		<path id="Path 284" class="s70" d="m701 496v-10h3 5l2 1v6l-3 4z"/>
		<path id="Path 285" class="s28" d="m775 487l4-1h2l-1 2h-5z"/>
		<path id="Path 286" class="s30" d="m841 492l12-6 12 3v7l-17 5-7-3z"/>
		<path id="Path 287" class="s55" d="m144 489l3-2h1 3v5l8 2-2 10v7l3 3 5 6v3l-4-1-6-2-4-6-10-4v-8l2-11v-2z"/>
		<path id="Path 288" class="s46" d="m231 494l-3-1 1-6 6 1 1 3z"/>
		<path id="Path 289" class="s71" d="m271 490l4-3 2 2 4 9-2 1z"/>
		<path id="Path 290" class="s56" d="m556 491l3-4 6 3 4-3 2 4 7-1 3 3-1 4-5 1-14-2z"/>
		<path id="Path 291" class="s53" d="m711 493v-6h3l5 1 8 2-2 8h-6l-2-4z"/>
		<path id="Path 292" class="s37" d="m759 489l9-2v1l-8 1z"/>
		<path id="Path 293" class="s4" d="m768 488v-1h6 1v1h-4z"/>
		<path id="Path 294" class="s25" d="m131 494l3-4 9-1v2l-6 2z"/>
		<path id="Path 295" class="s54" d="m240 490l5-2 11 5h10l2 6-9 1-8-4-6-2-2 6z"/>
		<path id="Path 296" class="s65" d="m533 490l15-2 8 3 5 5v4h-11v4 1l-13-1v-5l-4-2z"/>
		<path id="Path 297" class="s17" d="m585 489l20 1 6-1 18 2 4 5-4 3-9-2-4 3-11-8-4 4h-8l-8-3z"/>
		<path id="Path 298" class="s36" d="m747 489v-1l10 1v1z"/>
		<path id="Path 299" class="s34" d="m760 489l8-1h3l-6 2z"/>
		<path id="Path 300" class="s47" d="m765 490l6-2h4 5v5l-9 2-5-1z"/>
		<path id="Path 301" class="s38" d="m875 489l5-1-1 2h-4z"/>
		<path id="Path 302" class="s19" d="m879 490l1-2h8v2z"/>
		<path id="Path 303" class="s41" d="m888 490v-2l11 2v2l-3-1z"/>
		<path id="Path 304" class="s72" d="m162 490l4-1v5l-4-3z"/>
		<path id="Path 305" class="s7" d="m173 491l3-2 7 2 2 5-10 1z"/>
		<path id="Path 306" class="s67" d="m415 490l11-1 1 2v7l-7 4-5-6z"/>
		<path id="Path 307" class="s30" d="m746 495l1-6 10 1-1 7-5 2z"/>
		<path id="Path 308" class="s31" d="m757 490v-1h2 1l5 1 1 4-3 1-7 2z"/>
		<path id="Path 309" class="s7" d="m865 496v-7h4 2 4v1l-1 8z"/>
		<path id="Path 310" class="s73" d="m206 498l1-8 7 2-1 4v2z"/>
		<path id="Path 311" class="s22" d="m236 491l4-1 3 10-1 9h-4v-10l-7-2v-3z"/>
		<path id="Path 312" class="s64" d="m266 493l3-3h2l8 9 1 5-3-3-8 1-1-3z"/>
		<path id="Path 313" class="s74" d="m445 492l11-2 17 3 4 8v11l-8 2-8-8h-8l-8-8z"/>
		<path id="Path 314" class="s51" d="m792 504l1-14h2l2 2v13z"/>
		<path id="Path 315" class="s6" d="m874 498l1-8h4 9l8 1 1 7h10v12h-13l-3-4-14-2-3-1z"/>
		<path id="Path 316" class="s44" d="m899 492v-2l20 12-12-5z"/>
		<path id="Path 317" class="s7" d="m137 493l6-2-2 11h-4z"/>
		<path id="Path 318" class="s57" d="m159 494l3-3 4 3v3l-1 9-2 2-6-4z"/>
		<path id="Path 319" class="s31" d="m167 497l6-6 2 6-1 5h-7z"/>
		<path id="Path 320" class="s75" d="m218 492l3-1 5 4-1 12 2 7-8 6h-6v-7l-9-2 2-13h7l3 2 1-4z"/>
		<path id="Path 321" class="s76" d="m312 492l3-1 2 10-11 3-4-2 2-9z"/>
		<path id="Path 322" class="s77" d="m427 498v-7h8 4v7z"/>
		<path id="Path 323" class="s78" d="m439 498v-7l6 1v6z"/>
		<path id="Path 324" class="s9" d="m907 498h-10l-1-7 3 1 8 5z"/>
		<path id="Path 325" class="s66" d="m213 496l1-4h4l-1 4z"/>
		<path id="Path 326" class="s79" d="m473 493l4-1 5 1h1v8h-6z"/>
		<path id="Path 327" class="s59" d="m601 496l4-4 11 8-1 4-12-1z"/>
		<path id="Path 328" class="s47" d="m687 501v-9h6l8 4 7 1 3 7-14-2z"/>
		<path id="Path 329" class="s22" d="m797 505v-13h8l9 6v3l1 10-1 3h-7l-4-7h-4z"/>
		<path id="Path 330" class="s18" d="m821 501l1-9h15l2 7v4l-16 3z"/>
		<path id="Path 331" class="s6" d="m839 499l-2-7h4v6z"/>
		<path id="Path 332" class="s31" d="m131 494l6-1v9l-3 5-12-1-2-7 10-5z"/>
		<path id="Path 333" class="s76" d="m483 501v-8h3l7 1v8z"/>
		<path id="Path 334" class="s69" d="m580 497l1-4h4l8 3v8h-11l-1-1z"/>
		<path id="Path 335" class="s48" d="m640 496l7-3 1 4 7 1v3l-13 1z"/>
		<path id="Path 336" class="s32" d="m708 497l3-4 6 1 2 4h6l2 8-2 2h-5l-9-4z"/>
		<path id="Path 337" class="s70" d="m771 495l9-2 7 4v7l-1 1-11 5v-6l-4-5z"/>
		<path id="Path 338" class="s80" d="m126 495l4-1-10 5h-2l3-2 3-2z"/>
		<path id="Path 339" class="s57" d="m187 497v-3h5v5l-5 1z"/>
		<path id="Path 340" class="s74" d="m243 500l2-6 6 2-2 4z"/>
		<path id="Path 341" class="s78" d="m493 502v-8h7l3 1 2 5v9l-2 5-4 3-6-5z"/>
		<path id="Path 342" class="s81" d="m508 495l5-1 7 1-2 9-11-4z"/>
		<path id="Path 343" class="s45" d="m763 495l3-1 5 1v4l-6 1z"/>
		<path id="Path 344" class="s77" d="m225 507l1-12 5 2 7 2v10l-1 1h-6z"/>
		<path id="Path 345" class="s82" d="m505 500l-2-5h2 3l-1 5z"/>
		<path id="Path 346" class="s83" d="m518 504l2-9h1l12 2 4 2v5l-4 3v9l-2 4-6 1-4-4z"/>
		<path id="Path 347" class="s84" d="m738 506l4-4-2-6 6-1 5 4 2 1v6l-3 3h-2-10z"/>
		<path id="Path 348" class="s24" d="m756 497l7-2 2 5-2 10h-4v-4-4l-6-2-2-1z"/>
		<path id="Path 349" class="s15" d="m175 497l10-1 2 1v3l1 8-7-2h-5l-2-4z"/>
		<path id="Path 350" class="s85" d="m213 498v-2h4l-1 4z"/>
		<path id="Path 351" class="s86" d="m243 500h6l2-4 8 4-14 11-2 5h-5l-1-6 1-1h4z"/>
		<path id="Path 352" class="s87" d="m334 503l2-7h9v10h-11z"/>
		<path id="Path 353" class="s75" d="m345 506v-10l8 3-1 7z"/>
		<path id="Path 354" class="s68" d="m390 504l8-8h17l5 6-7 7v5h-11l-1 8h-14z"/>
		<path id="Path 355" class="s72" d="m561 500v-4l14 2v5l-6 1h-8z"/>
		<path id="Path 356" class="s65" d="m593 504v-8h8l2 7-1 1z"/>
		<path id="Path 357" class="s58" d="m629 499l4-3h7l2 6h-3-7z"/>
		<path id="Path 358" class="s15" d="m848 501l17-5 9 2v5l3 1v5l4 4h7l9 11v6l6 6-7 2-4-4-21-2-6-9h-7v-4l-7-3-3-11z"/>
		<path id="Path 359" class="s11" d="m165 506l1-9h1v5l-1 4z"/>
		<path id="Path 360" class="s62" d="m575 498l5-1 1 6h-6z"/>
		<path id="Path 361" class="s57" d="m616 500l4-3 9 2 3 3 2 9 5-1h8l4 4 3 13-1 1h-5l-2-4-5 2h-10-13l-1-6-2-16z"/>
		<path id="Path 362" class="s18" d="m907 498v-1l12 5 10 3 7 2-3 3v10l3 3-6 3-7 2v-14l-10-1-6-3z"/>
		<path id="Path 363" class="s2" d="m108 502l7-4 1 2-1 1-8 6h-2z"/>
		<path id="Path 364" class="s80" d="m116 500l-1-2 2 1z"/>
		<path id="Path 365" class="s36" d="m279 499l2-1h4l1 5-6 1z"/>
		<path id="Path 366" class="s66" d="m420 502l7-4h12 6l8 8-12 10v6h-12l-2-4-14 2v-6-5z"/>
		<path id="Path 367" class="s60" d="m655 501v-3l10 2-1 4h-5z"/>
		<path id="Path 368" class="s7" d="m839 499l2-1 7 3v4l-9-2z"/>
		<path id="Path 369" class="s40" d="m116 500l1-1h1 2l2 7-3 4h-4v-9z"/>
		<path id="Path 370" class="s88" d="m259 500l9-1 1 3 8-1 3 3 1 5 3 8-1 9-4 4-9 8-3 7-7 1-6 8-3 1-4-1-4-34v-4l2-5z"/>
		<path id="Path 371" class="s36" d="m765 500l6-1 4 5v6h-6-6z"/>
		<path id="Path 372" class="s89" d="m505 509v-9h2l11 4 3 13 4 4v4l-10-2-7-10z"/>
		<path id="Path 373" class="s78" d="m550 504v-4h11v4z"/>
		<path id="Path 374" class="s58" d="m664 504l1-4h12v4z"/>
		<path id="Path 375" class="s45" d="m677 504v-4l10 1v5z"/>
		<path id="Path 376" class="s58" d="m687 501l10 1v4h-10z"/>
		<path id="Path 377" class="s70" d="m753 506v-6l6 2v4h-4z"/>
		<path id="Path 378" class="s31" d="m107 507l8-6v9l-8 1z"/>
		<path id="Path 379" class="s75" d="m306 504l11-3 4 1v10 9l5 5-4 2-14-5v-7l-3-2z"/>
		<path id="Path 380" class="s75" d="m469 514l8-2v-11h6l10 1v10l-6 1v10l-18 1z"/>
		<path id="Path 381" class="s62" d="m642 502l13-1 4 3-4 3v7h-4l-4-4h-8v-8z"/>
		<path id="Path 382" class="s46" d="m815 511l-1-10h7l2 5-2 5z"/>
		<path id="Path 383" class="s3" d="m104 507l4-5-3 5z"/>
		<path id="Path 384" class="s47" d="m134 507l3-5h4v8z"/>
		<path id="Path 385" class="s30" d="m166 506l1-4h7l2 4h5v9h-8z"/>
		<path id="Path 386" class="s88" d="m287 504l15-2 4 2-1 10 3 2v7l14 5 4-2h10l1 4h6l4 2v10l-6 4v14l-8-1h-2v-7l-4-2h-9l-1 7h-10-6l-4-1-10-4v-9l4-3-1-15v-13l-3-4z"/>
		<path id="Path 387" class="s85" d="m321 512v-10h6l7 1v3l-1 6z"/>
		<path id="Path 388" class="s77" d="m363 508l2-6 11 2-7 8h-4z"/>
		<path id="Path 389" class="s69" d="m639 510l-5 1-2-9h7z"/>
		<path id="Path 390" class="s48" d="m697 506v-4l14 2 9 4h-9l-10-1z"/>
		<path id="Path 391" class="s4" d="m929 505l-10-3 10 1z"/>
		<path id="Path 392" class="s42" d="m280 504l6-1 1 1v4l-6 1z"/>
		<path id="Path 393" class="s81" d="m569 504l6-1h6l1 1v4h-13z"/>
		<path id="Path 394" class="s72" d="m602 504l1-1 12 1 2 16-14 2z"/>
		<path id="Path 395" class="s14" d="m823 506l16-3 9 2 3 11-2 2h-8l-20 2v-9z"/>
		<path id="Path 396" class="s13" d="m929 505v-2l10 4h-3z"/>
		<path id="Path 397" class="s59" d="m160 514l-3-3v-7l6 4v5z"/>
		<path id="Path 398" class="s66" d="m363 508l2 4h4l7-8h14l-3 18-4 4v6h-12l-6-2-1-4-10-4-11 2h-7l-3-12 1-6h11 7z"/>
		<path id="Path 399" class="s81" d="m533 516v-9l4-3 13 1 7 9h12l9 6h9l9 2 1 4-5 6-11-2-2-5h-8l-12-7h-12z"/>
		<path id="Path 400" class="s54" d="m550 505v-1h11 8v4 6h-12z"/>
		<path id="Path 401" class="s54" d="m582 508v-4h11 9l1 18v4h-6l-1-4-9-2v-7z"/>
		<path id="Path 402" class="s57" d="m655 514v-7l4-3h5 13l10 2h10l4 1v12h-4l-8-1h-11z"/>
		<path id="Path 403" class="s58" d="m786 505l1-1h5l5 1 2 2-4 3h-7z"/>
		<path id="Path 404" class="s7" d="m897 524l-9-11h-7l-4-4v-5l14 2 3 4h13l6 3-8 11z"/>
		<path id="Path 405" class="s62" d="m775 510l11-5 2 5h7v7h-5l-2 6-3 1-8-2-3-1-1-6z"/>
		<path id="Path 406" class="s51" d="m119 510l3-4 12 1 7 3 10 4 4 6-12 4-3-4-18 1-3-1z"/>
		<path id="Path 407" class="s60" d="m163 508l2-2h1l7 9v5h-8l-5-6 3-1z"/>
		<path id="Path 408" class="s31" d="m181 515v-9l7 2-1 5-5 3z"/>
		<path id="Path 409" class="s76" d="m441 522v-6l12-10h8l8 8v10l-2 8 5 4 21 2 8-2-2-10v-9l4-3 5-1 7 10 10 2v10l-4 1v6h-5l-3 7-8 2v-3l-11 1h-20l-2-5h-9-8l-2-2v-8l-8-5z"/>
		<path id="Path 410" class="s35" d="m725 508l2-2h11v3l-10 1z"/>
		<path id="Path 411" class="s53" d="m750 509l3-3h2v4h-1z"/>
		<path id="Path 412" class="s45" d="m755 510v-4h4v4z"/>
		<path id="Path 413" class="s1" d="m103 513v-6h1 1v6h-1z"/>
		<path id="Path 414" class="s11" d="m105 513v-6h2v4 5z"/>
		<path id="Path 415" class="s81" d="m227 514l-2-7 6 3v4z"/>
		<path id="Path 416" class="s65" d="m701 519v-12l10 1v10l-8 1z"/>
		<path id="Path 417" class="s69" d="m795 510l4-3h4l4 7-2 4h-2l-8-1z"/>
		<path id="Path 418" class="s55" d="m936 523l-3-3v-10l3-3h3 1l2 1 1 1 3 3-1 5-2 2-3 2-2 2h-1z"/>
		<path id="Path 419" class="s13" d="m942 508l-2-1 5 1v1h-2z"/>
		<path id="Path 420" class="s2" d="m942 508h1v1h-1z"/>
		<path id="Path 421" class="s90" d="m281 509l6-1 3 4v13l-7 1 1-9z"/>
		<path id="Path 422" class="s57" d="m569 514v-6h13l5 5v7h-9z"/>
		<path id="Path 423" class="s54" d="m711 518v-10h9 5l3 2-2 5-6 3h-7z"/>
		<path id="Path 424" class="s69" d="m738 509h10l-1 8-14 6-6-1-1-7 2-5z"/>
		<path id="Path 425" class="s5" d="m945 509v-1l2 2z"/>
		<path id="Path 426" class="s75" d="m503 514l2-5 3 4z"/>
		<path id="Path 427" class="s57" d="m747 517l1-8h2l4 1v11l-3 5h-4z"/>
		<path id="Path 428" class="s2" d="m945 517l1-5-3-3h2l2 1v2 3 2z"/>
		<path id="Path 429" class="s47" d="m107 511l8-1h4v10h-7l-5-4z"/>
		<path id="Path 430" class="s24" d="m187 513v7h5l8-10h2l1 1-3 9-13 8-5-5v-7z"/>
		<path id="Path 431" class="s68" d="m231 514v-4h6l1 6h5v4l-10 2z"/>
		<path id="Path 432" class="s72" d="m751 526l3-5v-11h1 4 4 6v4l4 1 1 6 3 1v6h-14l-3 5-5 1-4-2z"/>
		<path id="Path 433" class="s54" d="m773 515l-4-1v-4h6z"/>
		<path id="Path 434" class="s81" d="m200 520l3-9h1l9 2v7 4l-6 4h-6z"/>
		<path id="Path 435" class="s45" d="m814 514l1-3h6v9l-2 2h-4z"/>
		<path id="Path 436" class="s76" d="m326 526l-5-5v-9h12l3 12v2z"/>
		<path id="Path 437" class="s79" d="m487 523v-10l6-1 6 5v9z"/>
		<path id="Path 438" class="s12" d="m947 515v-3h2v3z"/>
		<path id="Path 439" class="s3" d="m107 518l-3-5h1l2 3z"/>
		<path id="Path 440" class="s6" d="m897 524h8l8-11 10 1v14l-16 8h-4l-6-6z"/>
		<path id="Path 441" class="s78" d="m219 520l8-6h4l2 8v14h-4-8l-2-2v-10z"/>
		<path id="Path 442" class="s85" d="m401 522l1-8h11v6z"/>
		<path id="Path 443" class="s65" d="m654 527l-3-13h4l23 4v7l-14 3z"/>
		<path id="Path 444" class="s60" d="m805 518l2-4h7l1 8z"/>
		<path id="Path 445" class="s18" d="m173 520v-5h8l1 1v7l5 5v2l-6 2-4-4z"/>
		<path id="Path 446" class="s65" d="m720 518l6-3 1 7-2 1-4-1z"/>
		<path id="Path 447" class="s2" d="m107 518v-2l5 4 1 3z"/>
		<path id="Path 448" class="s75" d="m531 520l2-4 14 2v8 4l-6 1-10-6z"/>
		<path id="Path 449" class="s11" d="m849 518l2-2 7 3v4l-3 5h-6z"/>
		<path id="Path 450" class="s91" d="m733 523l14-6v9 6l-3 5h-7l-6-3v-4z"/>
		<path id="Path 451" class="s58" d="m788 523l2-6h5l8 1-2 6z"/>
		<path id="Path 452" class="s60" d="m821 520l20-2v10l-10 2-12-3v-5z"/>
		<path id="Path 453" class="s37" d="m943 519l2-2h2l-3 5-6 1 2-2z"/>
		<path id="Path 454" class="s76" d="m413 520l14-2 2 4v6l-6 6-30 2-2-3-8-1v-6l4-4h14z"/>
		<path id="Path 455" class="s78" d="m547 526v-8h12l12 7h8l2 5-8 4-2-3z"/>
		<path id="Path 456" class="s58" d="m678 525v-7h11l1 6h-4z"/>
		<path id="Path 457" class="s48" d="m690 524l-1-6 8 1v5z"/>
		<path id="Path 458" class="s58" d="m703 519l8-1h2v4l-5 2h-5z"/>
		<path id="Path 459" class="s56" d="m713 522v-4h7l1 4z"/>
		<path id="Path 460" class="s92" d="m801 524l2-6h2l10 4h4v5l-12 4-6-2z"/>
		<path id="Path 461" class="s24" d="m841 528v-10h8v10z"/>
		<path id="Path 462" class="s45" d="m697 524v-5h4 2v5l-4 1z"/>
		<path id="Path 463" class="s35" d="m113 523l-1-3h7l3 1 1 5-4 1z"/>
		<path id="Path 464" class="s36" d="m122 521l18-1 3 4-20 2z"/>
		<path id="Path 465" class="s34" d="m143 524l12-4 6 2v8 10l-4 1 3 9-1 3h-2l-9-5-10-6-5-4h-1l-4-3-3-2-6-6 4-1z"/>
		<path id="Path 466" class="s47" d="m165 523v-3h8l4 8h-6z"/>
		<path id="Path 467" class="s62" d="m187 528l13-8 1 8-3 3-9 3-2-4z"/>
		<path id="Path 468" class="s79" d="m213 524v-4h6v4z"/>
		<path id="Path 469" class="s87" d="m233 522l10-2 4 34h-8v-7l-4-3-2-8z"/>
		<path id="Path 470" class="s74" d="m525 521l6-1v5l10 6v11l-8 1-4-1v-5l-4-2v-10z"/>
		<path id="Path 471" class="s69" d="m603 522l14-2 1 6-1 5-14-5z"/>
		<path id="Path 472" class="s42" d="m161 530v-8l4 1 6 5v2z"/>
		<path id="Path 473" class="s74" d="m343 524l11-2 10 4 1 4-10 2h-8l-4-2z"/>
		<path id="Path 474" class="s89" d="m423 534l6-6v-6h12l4 7 8 5v8h-17l-3 8h-14v-9l4-2z"/>
		<path id="Path 475" class="s57" d="m708 524l5-2h8l4 1v5l-3 6-3 1h-4z"/>
		<path id="Path 476" class="s82" d="m725 523l2-1 6 1-2 7-6-2z"/>
		<path id="Path 477" class="s54" d="m777 528v-6l8 2-2 7h-4z"/>
		<path id="Path 478" class="s44" d="m124 533l-11-10 6 4 6 6z"/>
		<path id="Path 479" class="s87" d="m469 524l18-1 12 3 2 10-8 2-21-2-5-4z"/>
		<path id="Path 480" class="s8" d="m785 524l3-1 13 1v5l6 2-1 6h-8l-15-2v-4z"/>
		<path id="Path 481" class="s14" d="m855 528l3-5h7l6 9v6h-3l-13-6z"/>
		<path id="Path 482" class="s27" d="m930 526l6-3h1l-8 5z"/>
		<path id="Path 483" class="s83" d="m207 528l6-4h6v10l-4 4-8-4z"/>
		<path id="Path 484" class="s87" d="m336 526v-2h7v6h-6z"/>
		<path id="Path 485" class="s82" d="m641 526l5-2 2 4h5v8h-6l-5-2z"/>
		<path id="Path 486" class="s72" d="m678 525l8-1 3 13-20 2-5-5v-6z"/>
		<path id="Path 487" class="s81" d="m689 537l-3-13h4 7l2 1-2 13z"/>
		<path id="Path 488" class="s72" d="m699 525l4-1h5l7 11-2 5-6 4-10-2v-4z"/>
		<path id="Path 489" class="s93" d="m283 526l7-1 1 15-4 3v9h-7l-3-3v-7l4-3-2-9z"/>
		<path id="Path 490" class="s82" d="m547 530v-4l24 5 2 3-1 5-5 1-8-3-5-6z"/>
		<path id="Path 491" class="s83" d="m581 530l11 2 5-6h6l14 5 4 3v6h-9l-8 4-5 16-8 2v-4l-4-1-8-11h-12v-6l5-1 1-5z"/>
		<path id="Path 492" class="s54" d="m617 531l1-5h13v6l-10 2z"/>
		<path id="Path 493" class="s91" d="m631 532v-6h10l1 8 5 2-1 3-9 1z"/>
		<path id="Path 494" class="s83" d="m747 532v-6h4v6z"/>
		<path id="Path 495" class="s21" d="m923 528l7-2-1 2-12 5-4 2h-1l-5 1z"/>
		<path id="Path 496" class="s91" d="m653 528l1-1 10 1v6l-3 1-8 1z"/>
		<path id="Path 497" class="s23" d="m807 531l12-4 12 3 2 10h-5l-10 2h-1l-1-3-10-2z"/>
		<path id="Path 498" class="s59" d="m171 530v-2h6l4 4-2 3h-5z"/>
		<path id="Path 499" class="s89" d="m198 531l3-3h6v6h-6z"/>
		<path id="Path 500" class="s83" d="m722 534l3-6 6 2v4z"/>
		<path id="Path 501" class="s8" d="m760 533l3-5h14l2 3v4l-4 2-14-1z"/>
		<path id="Path 502" class="s45" d="m831 530l10-2h8 6v4l-2 8h-5-10-5z"/>
		<path id="Path 503" class="s61" d="m161 540v-10h10l3 5h5v5l-6 1h-6z"/>
		<path id="Path 504" class="s54" d="m181 532l6-2 2 4-6 6h-4v-5z"/>
		<path id="Path 505" class="s90" d="m267 545l3-7 9-8 2 9-4 3v7l3 3h7l10 4v4l-2 6-4 1v6l-11 1-5-3v-5l-6-3z"/>
		<path id="Path 506" class="s88" d="m355 532l10-2 6 2 1 25-5 2v3h-9z"/>
		<path id="Path 507" class="s94" d="m541 531l6-1 7 1 5 6 8 3v6h-5l-1 4-6-3h-13l-1-5z"/>
		<path id="Path 508" class="s75" d="m189 534l9-3 3 3 2 12v1l-8 2-7 2h-5v-11z"/>
		<path id="Path 509" class="s57" d="m779 535v-4h4v4z"/>
		<path id="Path 510" class="s75" d="m341 560v-14l6-4v-10h8l3 30h-4-4z"/>
		<path id="Path 511" class="s75" d="m372 557l-1-25h12l8 1 2 3 30-2v5l-4 2v9l-6 3-11-2-27 7z"/>
		<path id="Path 512" class="s81" d="m621 534l10-2 6 8v2l-4 2h-6l-6-4z"/>
		<path id="Path 513" class="s62" d="m744 537l3-5h4l4 2-2 4z"/>
		<path id="Path 514" class="s48" d="m853 540l2-8 13 6-1 2z"/>
		<path id="Path 515" class="s9" d="m871 538v-6l21 2 4 4v1h-17z"/>
		<path id="Path 516" class="s0" d="m126 535l-2-2h1z"/>
		<path id="Path 517" class="s44" d="m126 535l-1-2 3 2z"/>
		<path id="Path 518" class="s48" d="m755 534l5-1 1 3-8 2z"/>
		<path id="Path 519" class="s79" d="m203 546l-2-12h6l8 4 4-4 2 2-8 10z"/>
		<path id="Path 520" class="s62" d="m661 535l3-1 5 5-2 5h-4l-2-2z"/>
		<path id="Path 521" class="s61" d="m719 535l3-1h9l6 3v5h-9l-9-2z"/>
		<path id="Path 522" class="s94" d="m521 542v-6l4-1 4 2v5z"/>
		<path id="Path 523" class="s69" d="m653 536l8-1v7h-6l-4 4-5-7 1-3z"/>
		<path id="Path 524" class="s77" d="m713 540l2-5h4v5h-2z"/>
		<path id="Path 525" class="s71" d="m775 537l4-2h4l15 2-1 9h-7-11v-5z"/>
		<path id="Path 526" class="s13" d="m907 536l5-1-5 2z"/>
		<path id="Path 527" class="s74" d="m213 546l8-10h8v14h-14-2z"/>
		<path id="Path 528" class="s76" d="m229 550v-14h4l2 8 4 3v7h-4z"/>
		<path id="Path 529" class="s52" d="m753 538l8-2 14 1 4 4v5h-1-5-1l-9-2h-3-4l-3-2v-3z"/>
		<path id="Path 530" class="s2" d="m896 538l7-2h4v1l-5 3-6-1z"/>
		<path id="Path 531" class="s83" d="m669 539l20-2 8 1v4l-6 1-3 4-7 5-1 6h-5-10l-3-3 1-11h4z"/>
		<path id="Path 532" class="s71" d="m737 542v-5h7l9 1v1l-6 3v1h-1-7z"/>
		<path id="Path 533" class="s51" d="m797 546l1-9h8l10 2 1 3v5l-6 1h-7-4z"/>
		<path id="Path 534" class="s59" d="m867 540l1-2h3l8 1v1z"/>
		<path id="Path 535" class="s62" d="m637 540l9-1 5 7v4l-4 2h-6-6v-5l2-5z"/>
		<path id="Path 536" class="s50" d="m747 542l6-3v3z"/>
		<path id="Path 537" class="s67" d="m160 550l-3-9 4-1 6 1v8l-4 1z"/>
		<path id="Path 538" class="s76" d="m173 541l6-1h4v11l-10-1z"/>
		<path id="Path 539" class="s91" d="m591 562l8-2 5-16 8-4h9l6 4 3 8-1 8-2 7-18-1-8-2-6 5-9-1v-4z"/>
		<path id="Path 540" class="s64" d="m707 544l6-4h4v11l-2 1h-7z"/>
		<path id="Path 541" class="s42" d="m717 551v-11h2l9 2-3 9z"/>
		<path id="Path 542" class="s10" d="m818 542l10-2v2l-9 1z"/>
		<path id="Path 543" class="s41" d="m828 542v-2h5 5v2z"/>
		<path id="Path 544" class="s10" d="m838 542v-2h10v2z"/>
		<path id="Path 545" class="s37" d="m848 542v-2h5 14 12z"/>
		<path id="Path 546" class="s85" d="m167 549v-8h6v9z"/>
		<path id="Path 547" class="s16" d="m728 542h9l2 1h-10v7l-4 2v-1z"/>
		<path id="Path 548" class="s79" d="m433 550l3-8h17l2 2v8l-19 1-3-1z"/>
		<path id="Path 549" class="s81" d="m513 549l3-7h5 8l4 1v6l8 3v4l-16 4z"/>
		<path id="Path 550" class="s78" d="m533 543l8-1 1 5-1 5-8-3z"/>
		<path id="Path 551" class="s56" d="m633 544l4-2-2 5z"/>
		<path id="Path 552" class="s95" d="m651 546l4-4h6l2 2-1 11h-4l-7-5z"/>
		<path id="Path 553" class="s57" d="m688 547l3-4 6-1 10 2 1 8-4 1-11-1z"/>
		<path id="Path 554" class="s34" d="m747 543v-1h6l3 2h-3z"/>
		<path id="Path 555" class="s1" d="m817 547v-5h1l1 1-2 7z"/>
		<path id="Path 556" class="s3" d="m753 545l-7-2h1l6 1z"/>
		<path id="Path 557" class="s78" d="m455 552v-8h8l1 6-2 1z"/>
		<path id="Path 558" class="s94" d="m464 550l-1-6h9l2 5z"/>
		<path id="Path 559" class="s57" d="m630 552l-3-8h6l2 3v5z"/>
		<path id="Path 560" class="s33" d="m753 545v-1h3 4z"/>
		<path id="Path 561" class="s28" d="m763 545v-1l9 2z"/>
		<path id="Path 562" class="s93" d="m254 554l6-8 7-1 2 18-2 1h-6l-5-1z"/>
		<path id="Path 563" class="s27" d="m773 546l-10-1 9 1z"/>
		<path id="Path 564" class="s66" d="m203 547v-1h10v4l-5 2z"/>
		<path id="Path 565" class="s82" d="m561 550l1-4h5 12l8 11 4 1v4l-5 2v4h-4l-1-6h-6l-2-8h-10z"/>
		<path id="Path 566" class="s16" d="m790 548l-12-2h1 11z"/>
		<path id="Path 567" class="s21" d="m790 548v-2h7l3 2z"/>
		<path id="Path 568" class="s68" d="m195 549l8-2 5 5v6h-13v-2z"/>
		<path id="Path 569" class="s91" d="m541 552l1-5h13l6 3 2 4v4l-22-2z"/>
		<path id="Path 570" class="s54" d="m680 558l1-6 7-5 5 5-6 6z"/>
		<path id="Path 571" class="s16" d="m811 548l6-1v3h-6z"/>
		<path id="Path 572" class="s37" d="m157 553l-6-1-3-4z"/>
		<path id="Path 573" class="s81" d="m494 549l11-1v3l-8 3z"/>
		<path id="Path 574" class="s12" d="m811 550l-7-2h7z"/>
		<path id="Path 575" class="s34" d="m163 550l4-1 6 1 10 1h5l1 5h6v2 6l-6-1-6-1-10-4h-3l-7-3z"/>
		<path id="Path 576" class="s67" d="m188 551l7-2v7h-6z"/>
		<path id="Path 577" class="s72" d="m464 550l10-1h20l3 5 8-3 8-2 12 11v11l-12 6-14 1-3 4h-5l-6-1-4-7h-7l-6 4-9-2 1-12 4-6-2-7z"/>
		<path id="Path 578" class="s42" d="m159 553l1-3h3v5z"/>
		<path id="Path 579" class="s76" d="m208 552l5-2h2v8h-4-3z"/>
		<path id="Path 580" class="s85" d="m215 558v-8h14l6 4v10l-8 1-4-6z"/>
		<path id="Path 581" class="s89" d="m317 557l1-7h9l4 2v7z"/>
		<path id="Path 582" class="s94" d="m413 553l6-3h14v2l-2 6-6 2h-12z"/>
		<path id="Path 583" class="s66" d="m647 552l4-2 7 5-1 7-3 3h-3l-4-5z"/>
		<path id="Path 584" class="s6" d="m717 551h8v1 1l-2 12-5 3h-2-4l-3 1h-6l-4 1-1 1h-3l-4-9 13-7 11-3z"/>
		<path id="Path 585" class="s78" d="m375 558l27-7 11 2v7l-14 1h-5l-1 4-18-1z"/>
		<path id="Path 586" class="s91" d="m455 552l7-1 2 7-4 6h-10l-1 8-20-2-4-4v-6l6-2h4l1-5z"/>
		<path id="Path 587" class="s83" d="m431 558l2-6 3 1-1 5z"/>
		<path id="Path 588" class="s74" d="m629 560l1-8h5 6v8h-8z"/>
		<path id="Path 589" class="s78" d="m641 560v-8h6v8z"/>
		<path id="Path 590" class="s60" d="m687 558l6-6 11 1v2l-13 7-4-1z"/>
		<path id="Path 591" class="s92" d="m704 553l4-1h7l-11 3z"/>
		<path id="Path 592" class="s16" d="m723 565l2-12 1 10-2 2z"/>
		<path id="Path 593" class="s73" d="m235 564v-10h4 8l4 1-8 9z"/>
		<path id="Path 594" class="s90" d="m251 555l3-1 2 9-6 6-7-3v-2z"/>
		<path id="Path 595" class="s83" d="m563 558v-4h10l2 8h-10z"/>
		<path id="Path 596" class="s78" d="m657 562l1-7h4l3 3-3 4z"/>
		<path id="Path 597" class="s34" d="m297 560v-4l4 1v3z"/>
		<path id="Path 598" class="s95" d="m525 560l16-4 22 2 2 4v8l-11 1-19 1-10-1z"/>
		<path id="Path 599" class="s90" d="m301 560v-3h6l1 8-3 1h-4z"/>
		<path id="Path 600" class="s34" d="m308 565l-1-8h10l14 2h2l5 20-4 1-5-7h-6l-2-6z"/>
		<path id="Path 601" class="s89" d="m367 562v-3l5-2 3 1v6h-4-2z"/>
		<path id="Path 602" class="s41" d="m183 562h-7l-3-4z"/>
		<path id="Path 603" class="s64" d="m195 564v-6h13 3v9h-9z"/>
		<path id="Path 604" class="s61" d="m211 567v-9h4l8 1 4 6v6l-16-2z"/>
		<path id="Path 605" class="s8" d="m657 562h5l3-4h10v7l-12 3h-4l-5-3z"/>
		<path id="Path 606" class="s58" d="m675 565v-7h5 7v3l-5 4z"/>
		<path id="Path 607" class="s35" d="m338 579l-5-20 8 1 9 2-1 7 4 3v8l-5 1h-4z"/>
		<path id="Path 608" class="s86" d="m295 566l2-6h4v6z"/>
		<path id="Path 609" class="s72" d="m399 561l14-1h12v6l4 4-5 7-17-4-3-4-5-3z"/>
		<path id="Path 610" class="s54" d="m627 567l2-7h4v6l-2 1z"/>
		<path id="Path 611" class="s67" d="m633 566v-6h8 6l4 5-8 2z"/>
		<path id="Path 612" class="s81" d="m393 565l1-4h5v5h-4z"/>
		<path id="Path 613" class="s17" d="m682 565l5-4 4 1 4 9-12 1z"/>
		<path id="Path 614" class="s92" d="m353 572l-4-3 1-7h4l15 2h2l-2 8z"/>
		<path id="Path 615" class="s68" d="m369 564l-15-2h4 9z"/>
		<path id="Path 616" class="s62" d="m565 570v-8h10 6l1 6z"/>
		<path id="Path 617" class="s27" d="m202 568l-13-5 6 1 7 3z"/>
		<path id="Path 618" class="s75" d="m250 569l6-6 5 1-1 8-7-1z"/>
		<path id="Path 619" class="s68" d="m267 564l2-1 6 3v5l-7 2z"/>
		<path id="Path 620" class="s77" d="m227 565l8-1h8v2l-11 6-5-1z"/>
		<path id="Path 621" class="s89" d="m260 572l1-8h6l1 9h-8z"/>
		<path id="Path 622" class="s22" d="m369 572l2-8h4l18 1 2 1-1 10-15 1-10 1z"/>
		<path id="Path 623" class="s95" d="m449 572l1-8h10l-1 12z"/>
		<path id="Path 624" class="s8" d="m595 569l6-5 8 2-2 8-5 1h-7z"/>
		<path id="Path 625" class="s68" d="m305 566l3-1 13 2 2 6-18 5-3-3z"/>
		<path id="Path 626" class="s35" d="m643 567l8-2h3l5 3v4h-16z"/>
		<path id="Path 627" class="s23" d="m663 568l12-3h7l1 7h-20z"/>
		<path id="Path 628" class="s3" d="m718 568l5-3h1z"/>
		<path id="Path 629" class="s42" d="m232 572l11-6 7 3 3 2v5l-5-1h-2l-8-2h-5z"/>
		<path id="Path 630" class="s93" d="m291 573v-6l4-1h6 4l-3 9h-6z"/>
		<path id="Path 631" class="s58" d="m394 576l1-10h4l5 3v4l-3 3z"/>
		<path id="Path 632" class="s35" d="m607 574l2-8 18 1h4v2l-6 3 2 2v1l-10 3h-5-3z"/>
		<path id="Path 633" class="s42" d="m631 567l2-1 10 1v5h-4l-8-3z"/>
		<path id="Path 634" class="s16" d="m202 568v-1h9v2 1z"/>
		<path id="Path 635" class="s61" d="m565 570l17-2h4l9 1v6l-4 1h-35l-2-5z"/>
		<path id="Path 636" class="s92" d="m659 572v-4h4v4z"/>
		<path id="Path 637" class="s53" d="m709 569l3-1v1z"/>
		<path id="Path 638" class="s44" d="m712 569v-1h4l-4 2z"/>
		<path id="Path 639" class="s10" d="m211 570v-1l16 2 5 1 1 1z"/>
		<path id="Path 640" class="s59" d="m404 573v-4l3 4z"/>
		<path id="Path 641" class="s52" d="m627 574l-2-2 6-3 8 3v1h-3l-6 1z"/>
		<path id="Path 642" class="s80" d="m699 570l4-1h6 3v1l-13 2-1-1z"/>
		<path id="Path 643" class="s62" d="m424 577l5-7 20 2 10 4 9 2 6-4h7l4 7v9l-6 2-8-2-8-2-2-6-8 2h-16l-9-1z"/>
		<path id="Path 644" class="s59" d="m253 576v-5l7 1v1l-1 5h-2z"/>
		<path id="Path 645" class="s64" d="m268 573l7-2 5 3 11-1 5 2-1 9 3 3-1 4-4-1-10-5-5-1-1-1-8-2-10-3 1-5z"/>
		<path id="Path 646" class="s35" d="m513 577l12-6 10 1v7l-2 3-20 2z"/>
		<path id="Path 647" class="s42" d="m535 572l19-1 2 5-21 3z"/>
		<path id="Path 648" class="s33" d="m683 572l12-1h3l1 1-60 1v-1h4 16 4z"/>
		<path id="Path 649" class="s23" d="m353 580v-8h16v6 2z"/>
		<path id="Path 650" class="s77" d="m305 578l18-5h6l5 7-1 10h-12l-12-2-4-2z"/>
		<path id="Path 651" class="s56" d="m401 576l3-3h3l17 4 4 6 9 1v8l-10-4-8 2-18-2z"/>
		<path id="Path 652" class="s71" d="m602 575l5-1 2 4-2 1h-5z"/>
		<path id="Path 653" class="s3" d="m257 578l-9-3 5 1z"/>
		<path id="Path 654" class="s67" d="m298 587l-3-3 1-9h6l3 3v8z"/>
		<path id="Path 655" class="s51" d="m591 576l4-1h7v4l-10 1z"/>
		<path id="Path 656" class="s65" d="m379 577l15-1h7v12l-22-3z"/>
		<path id="Path 657" class="s71" d="m535 579l21-3h35l1 4-5 3h-5l-7 2h-4l-12 1h-7l-9 2h-6l-10 2h-5l-8 1-5 2h-2v-5l6-4 20-2z"/>
		<path id="Path 658" class="s59" d="m369 578l10-1v8h-3l-7-1v-4z"/>
		<path id="Path 659" class="s42" d="m491 582h5l3-4 14-1v7l-6 4-15 3-1-1z"/>
		<path id="Path 660" class="s44" d="m269 582l-10-4 10 3z"/>
		<path id="Path 661" class="s1" d="m607 579l2-1h3l-5 2z"/>
		<path id="Path 662" class="s54" d="m334 580l4-1 6 2-1 9h-10z"/>
		<path id="Path 663" class="s19" d="m592 580l10-1h5v1l-20 3z"/>
		<path id="Path 664" class="s8" d="m348 581l5-1h16v4l-4 8h-14l-2-2z"/>
		<path id="Path 665" class="s10" d="m269 582v-1l8 2z"/>
		<path id="Path 666" class="s57" d="m343 590l1-9h4l1 9z"/>
		<path id="Path 667" class="s57" d="m485 590v-9l6 1v8z"/>
		<path id="Path 668" class="s69" d="m453 584l8-2 2 6v2h-10z"/>
		<path id="Path 669" class="s56" d="m365 592l4-8 7 1 1 15-8 2h-4z"/>
		<path id="Path 670" class="s65" d="m437 592v-8h16v6 2h-14z"/>
		<path id="Path 671" class="s84" d="m377 600l-1-15h3l22 3 18 2 8-2 10 4h2v8 1l-42 3z"/>
		<path id="Path 672" class="s42" d="m298 587l7-1 4 2v9l-4-1-7-3-1-2z"/>
		<path id="Path 673" class="s59" d="m309 597v-9l12 2-2 8-2 4-6-2z"/>
		<path id="Path 674" class="s65" d="m463 590v-2l8 2v2h-6z"/>
		<path id="Path 675" class="s51" d="m492 591l15-3v5l-11 3h-3z"/>
		<path id="Path 676" class="s3" d="m298 593l-5-3 4 1z"/>
		<path id="Path 677" class="s58" d="m319 598l2-8h12 10 6l2 2v8h-11v8l-9-2-6-1 1-3z"/>
		<path id="Path 678" class="s56" d="m453 592v-2h10l2 2v3l-12 1z"/>
		<path id="Path 679" class="s56" d="m471 592v-2l8 2-1 3z"/>
		<path id="Path 680" class="s60" d="m479 592l6-2h6l1 1 1 5-4 2h-3l-9 1 1-4z"/>
		<path id="Path 681" class="s41" d="m514 591l8-1-8 2z"/>
		<path id="Path 682" class="s10" d="m509 593l5-2v1z"/>
		<path id="Path 683" class="s45" d="m351 600v-8h14v10z"/>
		<path id="Path 684" class="s45" d="m439 600v-8h14v4 4z"/>
		<path id="Path 685" class="s58" d="m465 595v-3h6l7 3-1 4-9 3z"/>
		<path id="Path 686" class="s3" d="m306 598l-8-5 7 3z"/>
		<path id="Path 687" class="s10" d="m496 596l11-3-11 4z"/>
		<path id="Path 688" class="s60" d="m453 596l12-1 3 7v1l-7 2-8 2v-7z"/>
		<path id="Path 689" class="s16" d="m306 598l-1-2 4 1 2 3z"/>
		<path id="Path 690" class="s27" d="m489 598l4-2h3v1z"/>
		<path id="Path 691" class="s32" d="m317 602l2-4 7 4-1 3h-1-1l-5-2h-1z"/>
		<path id="Path 692" class="s2" d="m477 599l9-1-6 4-12 1v-1z"/>
		<path id="Path 693" class="s13" d="m317 603l-6-3 6 2z"/>
		<path id="Path 694" class="s17" d="m340 608v-8h11l14 2h4v8h-5-7-1-3l-10-2z"/>
		<path id="Path 695" class="s48" d="m369 602l8-2 20 4v9h-6-4-1-8l-9-2v-1z"/>
		<path id="Path 696" class="s24" d="m439 601v-1h14v7l-1 1h-3l-10 2z"/>
		<path id="Path 697" class="s60" d="m397 604l42-3v9l-5 1-7 2h-11-1-6-9-3z"/>
		<path id="Path 698" class="s27" d="m331 606l-7-1h1z"/>
		<path id="Path 699" class="s0" d="m453 607l8-2-9 3z"/>
		<path id="Path 700" class="s10" d="m439 610l10-2-10 4z"/>
		<path id="Path 701" class="s3" d="m358 612l-2-2h1z"/>
		<path id="Path 702" class="s10" d="m358 612l-1-2h7v2z"/>
		<path id="Path 703" class="s19" d="m364 612v-2h5v1 1z"/>
		<path id="Path 704" class="s19" d="m434 611l5-1v2h-5z"/>
		<path id="Path 705" class="s37" d="m369 612v-1l9 2z"/>
		<path id="Path 706" class="s37" d="m427 613l7-2v1z"/>
		<path id="Path 707" class="s61" d="m400 613h9v1h-4-5z"/>
		<path id="Path 708" class="s5" d="m386 615v-2h1l4 1h1v1z"/>
		<path id="Path 709" class="s75" d="m391 614l-4-1h4z"/>
		<path id="Path 710" class="s96" d="m391 614v-1h6 3v1h-8z"/>
		<path id="Path 711" class="s1" d="m409 614v-1h6l-1 1z"/>
		<path id="Path 712" class="s0" d="m414 614l1-1h1v2h-2z"/>
		<path id="Path 713" class="s13" d="m392 615v-1h8 5v1z"/>
		<path id="Path 714" class="s37" d="m405 615v-1h4 5v1z"/>
	</g>
</svg>