<svg version="1.2" xmlns="http://www.w3.org/2000/svg" viewBox="0 0 1000 1000" width="1000" height="1000">
	<title>Cottus_ricei</title>
	<style>
		.s0 { opacity: .5;fill: #dddbdd } 
		.s1 { opacity: .6;fill: #bab1b6 } 
		.s2 { opacity: .3;fill: #b0a7ae } 
		.s3 { fill: #bea197 } 
		.s4 { opacity: .1;fill: #d4ced1 } 
		.s5 { fill: #ab8c85 } 
		.s6 { opacity: .1;fill: #eeedef } 
		.s7 { opacity: .3;fill: #dedbde } 
		.s8 { fill: #8a7478 } 
		.s9 { fill: #a8847a } 
		.s10 { opacity: .7;fill: #edebed } 
		.s11 { fill: #b09692 } 
		.s12 { fill: #a57d75 } 
		.s13 { opacity: .7;fill: #dcd8db } 
		.s14 { fill: #977a75 } 
		.s15 { fill: #806c71 } 
		.s16 { fill: #987169 } 
		.s17 { opacity: .2;fill: #efedef } 
		.s18 { opacity: .1;fill: #a79fa7 } 
		.s19 { opacity: 1;fill: #d1cbcf } 
		.s20 { opacity: 1;fill: #bab1b5 } 
		.s21 { fill: #9a665d } 
		.s22 { opacity: .3;fill: #c9c3c7 } 
		.s23 { opacity: .5;fill: #eceaec } 
		.s24 { opacity: .4;fill: #f3f2f3 } 
		.s25 { opacity: .5;fill: #b1a7ad } 
		.s26 { fill: #b5a8a9 } 
		.s27 { fill: #a89fa7 } 
		.s28 { fill: #917f84 } 
		.s29 { fill: #856661 } 
		.s30 { fill: #8b6c68 } 
		.s31 { fill: #916a62 } 
		.s32 { fill: #998f98 } 
		.s33 { fill: #7b6467 } 
		.s34 { fill: #9e766f } 
		.s35 { fill: #835b54 } 
		.s36 { fill: #af7d72 } 
		.s37 { fill: #c39786 } 
		.s38 { opacity: .5;fill: #cfc9cd } 
		.s39 { fill: #a8999c } 
		.s40 { fill: #725b61 } 
		.s41 { opacity: .7;fill: #a399a0 } 
		.s42 { fill: #9c817b } 
		.s43 { fill: #a18d8e } 
		.s44 { fill: #9c8684 } 
		.s45 { fill: #6b5053 } 
		.s46 { fill: #c09d8f } 
		.s47 { fill: #a37267 } 
		.s48 { fill: #b08a7d } 
		.s49 { fill: #7a5d5a } 
		.s50 { fill: #91736e } 
		.s51 { fill: #b5938a } 
		.s52 { opacity: .7;fill: #c5bec3 } 
		.s53 { opacity: .1;fill: #bdb7bd } 
		.s54 { opacity: .1;fill: #948081 } 
		.s55 { fill: #89625b } 
		.s56 { opacity: .9;fill: #d9d8dc } 
		.s57 { fill: #8e858f } 
		.s58 { opacity: .9;fill: #a69da5 } 
		.s59 { fill: #c7a699 } 
		.s60 { fill: #344567 } 
		.s61 { opacity: .9;fill: #b9aeb2 } 
		.s62 { fill: #cca28b } 
		.s63 { fill: #bd8a77 } 
		.s64 { fill: #827e8d } 
		.s65 { fill: #e5c7b4 } 
		.s66 { fill: #817680 } 
		.s67 { fill: #dabba8 } 
		.s68 { fill: #e2b99e } 
		.s69 { fill: #8b584b } 
		.s70 { fill: #854f44 } 
		.s71 { fill: #b89081 } 
		.s72 { fill: #d29b80 } 
		.s73 { fill: #c5aca3 } 
		.s74 { fill: #ab6d60 } 
		.s75 { fill: #5c3233 } 
		.s76 { fill: #ca9077 } 
		.s77 { fill: #d7a488 } 
		.s78 { fill: #76514d } 
		.s79 { fill: #dbb093 } 
		.s80 { fill: #9a5e53 } 
		.s81 { fill: #d0ab97 } 
		.s82 { fill: #ba7d68 } 
		.s83 { fill: #7a463a } 
		.s84 { opacity: .5;fill: #928891 } 
		.s85 { opacity: .3;fill: #bdb0b3 } 
		.s86 { opacity: .2;fill: #7d5b58 } 
		.s87 { opacity: .3;fill: #9b8d92 } 
		.s88 { fill: #653f41 } 
		.s89 { opacity: .7;fill: #826b6f } 
		.s90 { fill: #cdb4ab } 
		.s91 { opacity: 1;fill: #cdc2c3 } 
		.s92 { opacity: 1;fill: #eadbd4 } 
		.s93 { fill: #e1d0c9 } 
		.s94 { fill: #c4b7b8 } 
	</style>
	<g id="Background">
		<path id="Path 0" class="s0" d="m399 423v-2h12v2z"/>
		<path id="Path 1" class="s1" d="m411 423v-2h12v1l-4 1z"/>
		<path id="Path 2" class="s2" d="m423 422v-1h7v2h-1z"/>
		<path id="Path 3" class="s3" d="m419 423l4-1 6 1-1 3-5 3-4 1z"/>
		<path id="Path 4" class="s4" d="m383 424l6-1-3 2h-3z"/>
		<path id="Path 5" class="s5" d="m386 425l3-2h10 12 8v7l-1 3v3l2 2 2 1v2l-2 2-10-6h-13l-10-2-4-3z"/>
		<path id="Path 6" class="s6" d="m428 426l1-3h1z"/>
		<path id="Path 7" class="s7" d="m361 431l22-7v1l-10 5-8 2h-3z"/>
		<path id="Path 8" class="s8" d="m373 430l10-5h3l-3 7-10 1z"/>
		<path id="Path 9" class="s7" d="m419 430l4-1-5 4z"/>
		<path id="Path 10" class="s9" d="m365 432l8-2v3 4h-8v-2z"/>
		<path id="Path 11" class="s10" d="m357 433l4-2 1 1v1z"/>
		<path id="Path 12" class="s11" d="m362 433v-1h3v3z"/>
		<path id="Path 13" class="s12" d="m373 433l10-1 4 3v8 4h-8l-6-10z"/>
		<path id="Path 14" class="s13" d="m347 434l9-1-5 2h-4z"/>
		<path id="Path 15" class="s14" d="m351 435l5-2h1 5l3 2v2 13l-2 1h-5v-4l-7-6z"/>
		<path id="Path 16" class="s4" d="m335 436l12-2v1l-6 1h-5z"/>
		<path id="Path 17" class="s15" d="m341 436l6-1h4v6l-10 2z"/>
		<path id="Path 18" class="s16" d="m387 443v-8l10 2-1 6z"/>
		<path id="Path 19" class="s17" d="m310 438l10-2v1h-1l-8 1z"/>
		<path id="Path 20" class="s4" d="m320 437v-1h5v1z"/>
		<path id="Path 21" class="s18" d="m325 437v-1h10 1l-8 1z"/>
		<path id="Path 22" class="s8" d="m328 437l8-1h5v7l-5 4-1 11 6 7v8l-5 3-5-5v-18l-4-2v-12z"/>
		<path id="Path 23" class="s19" d="m311 438l8-1v2z"/>
		<path id="Path 24" class="s20" d="m319 439v-2h1 5 3l-1 2z"/>
		<path id="Path 25" class="s16" d="m365 450v-13h8l6 10 2 14-9-2-3-8z"/>
		<path id="Path 26" class="s21" d="m396 443l1-6h13l10 6v2l1 12-4 7-14 3-8-4v-14z"/>
		<path id="Path 27" class="s7" d="m294 439l6-1v1l-6 1z"/>
		<path id="Path 28" class="s2" d="m300 439v-1h9l-1 1z"/>
		<path id="Path 29" class="s15" d="m308 439l1-1h1 1l8 1h8v12l4 2v18h-13l-4-12-7-2v-14z"/>
		<path id="Path 30" class="s22" d="m422 439l-2-1h22v1h-4-6z"/>
		<path id="Path 31" class="s2" d="m442 439v-1h8v1z"/>
		<path id="Path 32" class="s23" d="m450 439v-1l8 1 4 4-7-2z"/>
		<path id="Path 33" class="s24" d="m282 441l5-2v2h-3z"/>
		<path id="Path 34" class="s25" d="m287 441v-2h7v1 1z"/>
		<path id="Path 35" class="s8" d="m294 440l6-1h8l-1 4h-12l-1-2z"/>
		<path id="Path 36" class="s26" d="m422 441v-2h10v2h-3z"/>
		<path id="Path 37" class="s27" d="m432 441v-2h6l-1 2h-4z"/>
		<path id="Path 38" class="s28" d="m437 441l1-2h4 8l5 2v8h-2l-15-5z"/>
		<path id="Path 39" class="s10" d="m272 443l5-2v2l-5 1z"/>
		<path id="Path 40" class="s1" d="m277 443v-2h5 2l-3 2z"/>
		<path id="Path 41" class="s15" d="m281 443l3-2h3 7l1 2 2 14v6l-2 3-7-2 1-8-8-3z"/>
		<path id="Path 42" class="s29" d="m341 443l10-2 7 6v4l3 24-4 9-13 1-4-4 3-2-2-6v-8l-6-7 1-11z"/>
		<path id="Path 43" class="s30" d="m420 443l2-2h7v4h-9z"/>
		<path id="Path 44" class="s29" d="m429 445v-4h3 1v4z"/>
		<path id="Path 45" class="s31" d="m433 445v-4h4l1 3 15 5v8l-3 2-17-6z"/>
		<path id="Path 46" class="s32" d="m455 449v-8l7 2h2l5 2 4 1v1l-2 7-7 1-5-2z"/>
		<path id="Path 47" class="s13" d="m262 444l10-1v1l-10 1z"/>
		<path id="Path 48" class="s33" d="m272 444l5-1h4v10l-2 11-4 6-20-3-4-15-3-2 1-2 13-3z"/>
		<path id="Path 49" class="s33" d="m297 457l-2-14h12v14h-3z"/>
		<path id="Path 50" class="s34" d="m387 447v-4h9l-1 6z"/>
		<path id="Path 51" class="s6" d="m469 445l-5-2 5 1z"/>
		<path id="Path 52" class="s4" d="m249 448l13-4v1z"/>
		<path id="Path 53" class="s17" d="m469 445v-1l4 2z"/>
		<path id="Path 54" class="s35" d="m421 457l-1-12h9 4v8l-1 4h-4z"/>
		<path id="Path 55" class="s17" d="m473 447v-1l10 2h-1l-6-1z"/>
		<path id="Path 56" class="s17" d="m612 448l13-2v6l-6 2 5-3v-4z"/>
		<path id="Path 57" class="s36" d="m381 461l-2-14h8l8 2v14l8 4 1 6h8l3 14 2 12v10h-9l-6 4-1-2v-4l-7-6h-9l-5-4 3-10 4-3v-17z"/>
		<path id="Path 58" class="s37" d="m393 479h7l2 7-3 3h-7z"/>
		<path id="Path 59" class="s8" d="m471 454l2-7h3l3 2v5z"/>
		<path id="Path 60" class="s19" d="m479 449l-3-2 6 1z"/>
		<path id="Path 61" class="s27" d="m612 448l12-1v4l-5 3-1 1-8 2-1-8 1-1z"/>
		<path id="Path 62" class="s38" d="m237 451l12-3-1 2-11 2z"/>
		<path id="Path 63" class="s14" d="m479 449l3-1h1 2l5 1 5 6v5l-4 5h-12v-11z"/>
		<path id="Path 64" class="s22" d="m490 449l-5-1 28 3h-1l-12-1z"/>
		<path id="Path 65" class="s7" d="m599 451l11-3-1 1-4 2z"/>
		<path id="Path 66" class="s12" d="m453 457v-8h2l4 4v4z"/>
		<path id="Path 67" class="s11" d="m495 455l-5-6 10 1-1 5z"/>
		<path id="Path 68" class="s39" d="m605 451l4-2 1 8-2 2h-3z"/>
		<path id="Path 69" class="s40" d="m237 452l11-2 3 2 4 15-6 3v3l-9 5-3 17-8-1-10-2-6-1-5-4-1-4-9 2h-9v-4l2-8h4l7-1 1-9 2-2 20-6z"/>
		<path id="Path 70" class="s12" d="m363 451l2-1 4 1 3 8 9 2 6 6v17l-4 3h-6-4l-2-12v-9l-8-7z"/>
		<path id="Path 71" class="s12" d="m495 455h4l1-5 12 1 5 1v11h-6l-7 5-9-8z"/>
		<path id="Path 72" class="s41" d="m226 453l11-2v1l-12 3z"/>
		<path id="Path 73" class="s42" d="m361 475l-3-24h5v8l8 7v9z"/>
		<path id="Path 74" class="s1" d="m517 452l-5-1h1 15v2h-1z"/>
		<path id="Path 75" class="s0" d="m528 453v-2h71l-42 2z"/>
		<path id="Path 76" class="s43" d="m557 453l42-2h6v8 1l-10 3h-4-1l-2-6h-6l-1 8-2 8h-4l-2-2-2-7-12-1-2-6z"/>
		<path id="Path 77" class="s44" d="m517 463v-11l10 1v5 5z"/>
		<path id="Path 78" class="s22" d="m203 459l23-6-1 2-20 6h-2z"/>
		<path id="Path 79" class="s45" d="m279 464l2-11 8 3-1 8z"/>
		<path id="Path 80" class="s46" d="m432 457l1-4 17 6 5 20-2 1-11-4v-6l-7-1-4-7z"/>
		<path id="Path 81" class="s47" d="m459 457v-4l5 2-3 3z"/>
		<path id="Path 82" class="s32" d="m527 458v-5h1 29v4l-22 1z"/>
		<path id="Path 83" class="s48" d="m464 455l7-1h8v11l-4 1 2 15v6h-9l-7-8 2-7-2-14z"/>
		<path id="Path 84" class="s17" d="m610 457l8-2-10 4z"/>
		<path id="Path 85" class="s49" d="m297 463v-6h7l-3 6z"/>
		<path id="Path 86" class="s50" d="m297 463h4l3-6h3l7 2 4 12-2 2h-5l-3-4h-7-5l-1-3z"/>
		<path id="Path 87" class="s31" d="m417 464l4-7h7v4l3 1 4 7 2 10-5 4 1 12h-8l-3-8h-7l-3-14 6-1z"/>
		<path id="Path 88" class="s51" d="m431 462l-3-1v-4h4z"/>
		<path id="Path 89" class="s9" d="m450 459l3-2h6l2 1 2 14-2 7h-6z"/>
		<path id="Path 90" class="s5" d="m535 458l22-1 2 6 3 8v6l9 4-4 6v20h-8l-6-8-1-11-3-3h-8l-3-8 1-10-4-2z"/>
		<path id="Path 91" class="s5" d="m581 465l1-8h6l2 6z"/>
		<path id="Path 92" class="s9" d="m527 463v-5h8v7h-8z"/>
		<path id="Path 93" class="s24" d="m200 461l3-2v2z"/>
		<path id="Path 94" class="s23" d="m605 460v-1h3l-3 2z"/>
		<path id="Path 95" class="s9" d="m491 465l4-5 9 8v6h-8v-5z"/>
		<path id="Path 96" class="s7" d="m595 463l10-3v1l-10 3z"/>
		<path id="Path 97" class="s23" d="m194 463l6-2-2 2h-2z"/>
		<path id="Path 98" class="s27" d="m198 463l2-2h3 2l-2 2z"/>
		<path id="Path 99" class="s52" d="m189 464l5-1h2l-1 2h-6z"/>
		<path id="Path 100" class="s33" d="m195 465l1-2h2 5l-1 9-7 1z"/>
		<path id="Path 101" class="s33" d="m504 468l7-5h6 10v2 9h-1-7l-12 4-3-4z"/>
		<path id="Path 102" class="s26" d="m562 471l-3-8 12 1 2 7z"/>
		<path id="Path 103" class="s39" d="m581 465l9-2h1l1 3 3 1v10 2l-9-1-7-5z"/>
		<path id="Path 104" class="s53" d="m592 466l-1-3h4v1h-2l-1 1z"/>
		<path id="Path 105" class="s54" d="m592 464h1v1h-1z"/>
		<path id="Path 106" class="s13" d="m839 464l13-1v2h-1-10-2z"/>
		<path id="Path 107" class="s52" d="m852 465v-2l13 1v1z"/>
		<path id="Path 108" class="s4" d="m180 466l9-2v1l-9 2z"/>
		<path id="Path 109" class="s55" d="m275 470l4-6h9l7 2 1 3-6 2 5 10v4l-5 1-15-1z"/>
		<path id="Path 110" class="s46" d="m403 467l14-3 1 8-6 1h-8z"/>
		<path id="Path 111" class="s6" d="m607 466l7-2v1z"/>
		<path id="Path 112" class="s4" d="m614 465v-1h8v1h-4z"/>
		<path id="Path 113" class="s53" d="m622 465v-1h8v1z"/>
		<path id="Path 114" class="s18" d="m630 465v-1h19v1h-6z"/>
		<path id="Path 115" class="s7" d="m649 465v-1l3 1-2 4z"/>
		<path id="Path 116" class="s6" d="m809 466l7-2v1z"/>
		<path id="Path 117" class="s53" d="m816 465v-1h9v1h-6z"/>
		<path id="Path 118" class="s18" d="m825 465v-1h14v1h-4z"/>
		<path id="Path 119" class="s6" d="m865 465v-1h5v3h-1z"/>
		<path id="Path 120" class="s15" d="m180 467l9-2h6v8h-4-10l-1-5z"/>
		<path id="Path 121" class="s51" d="m477 481l-2-15 4-1h12l5 4v5l-4 8h-5z"/>
		<path id="Path 122" class="s40" d="m527 474v-9h8l4 2-1 10-5-1z"/>
		<path id="Path 123" class="s56" d="m607 466l7-1h4l-1 2h-6-4z"/>
		<path id="Path 124" class="s39" d="m617 467l1-2h4 8 13v6l-4 3-6 2v5 1l-10-3-5-2z"/>
		<path id="Path 125" class="s27" d="m643 471v-6h6l1 4z"/>
		<path id="Path 126" class="s56" d="m809 466l7-1h3l-2 2h-8z"/>
		<path id="Path 127" class="s43" d="m817 467l2-2h6 10v6l-13 2-1 8h-4z"/>
		<path id="Path 128" class="s26" d="m835 471v-6h4 2v6z"/>
		<path id="Path 129" class="s27" d="m841 471v-6h10v6z"/>
		<path id="Path 130" class="s32" d="m851 471v-6h1 13l4 2v9 9h-16z"/>
		<path id="Path 131" class="s17" d="m177 468l3-2v1 1z"/>
		<path id="Path 132" class="s54" d="m595 467l-3-1h15v1z"/>
		<path id="Path 133" class="s7" d="m794 468l10-2v1z"/>
		<path id="Path 134" class="s18" d="m804 467v-1h5v1z"/>
		<path id="Path 135" class="s29" d="m249 473v-3l6-3 20 3v15h-4-14v-4z"/>
		<path id="Path 136" class="s57" d="m595 477v-10h12 4v10z"/>
		<path id="Path 137" class="s43" d="m611 477v-10h6l1 10-2 2z"/>
		<path id="Path 138" class="s32" d="m794 468l10-1h5 8v14l-2 4-10 3 1 12h-1l-5-1-1-4-16-2-2-6h-6l-2-10v-4l1-1 17-4z"/>
		<path id="Path 139" class="s18" d="m869 476v-9h1v9z"/>
		<path id="Path 140" class="s17" d="m172 469l4-1-4 2z"/>
		<path id="Path 141" class="s8" d="m172 470l4-2h1 3l1 5v8l-8 2-4-2-1-6 2-4z"/>
		<path id="Path 142" class="s7" d="m774 471l17-3-17 4z"/>
		<path id="Path 143" class="s22" d="m167 471l5-2v1l-2 1z"/>
		<path id="Path 144" class="s51" d="m295 481l-5-10 6-2h5v10 2z"/>
		<path id="Path 145" class="s3" d="m301 479v-10h7l3 4v6h-4z"/>
		<path id="Path 146" class="s50" d="m437 479l-2-10 7 1v6 3z"/>
		<path id="Path 147" class="s7" d="m643 471l7-2-2 4-9 1z"/>
		<path id="Path 148" class="s58" d="m159 473l8-2h3l-2 4h-5-5z"/>
		<path id="Path 149" class="s51" d="m316 473l2-2h13l5 5 4 5 4 4v3l-3 2 2 8-4 3h-8v-3l-16-13v-6z"/>
		<path id="Path 150" class="s9" d="m571 481l-9-4v-6h11l2 2-1 7z"/>
		<path id="Path 151" class="s0" d="m769 473l5-2v1l-1 1z"/>
		<path id="Path 152" class="s28" d="m821 481l1-8 13-2h6 10l2 14-5 4h-7l-2-8z"/>
		<path id="Path 153" class="s4" d="m147 478l12-5-1 2-5 2z"/>
		<path id="Path 154" class="s30" d="m181 481v-8h10l-2 8z"/>
		<path id="Path 155" class="s50" d="m237 495l3-17 9-5 8 8v4 8 6h-8l-2-4-8 1z"/>
		<path id="Path 156" class="s5" d="m311 479v-6h5l-1 6z"/>
		<path id="Path 157" class="s45" d="m336 476l5-3 2 6-3 2z"/>
		<path id="Path 158" class="s8" d="m571 481l3-1 1-7h4l7 5v7l9 4v5l-5 1 1 7-1 7h-10l-3 4h-5l-5-6v-20z"/>
		<path id="Path 159" class="s4" d="m744 479l21-6-9 4-5 2-5 1h-2z"/>
		<path id="Path 160" class="s26" d="m756 477l9-4h4 4v4h-5l-3 6h-6z"/>
		<path id="Path 161" class="s8" d="m492 482l4-8h8l3 4-3 9-3 2h-6z"/>
		<path id="Path 162" class="s59" d="m507 478l12-4 1 11-3 4-13-2z"/>
		<path id="Path 163" class="s3" d="m520 485l-1-11h7l1 4h4v9z"/>
		<path id="Path 164" class="s46" d="m531 478h-4l-1-4h1l6 2z"/>
		<path id="Path 165" class="s30" d="m153 477l5-2h5v6l-2 2h-8z"/>
		<path id="Path 166" class="s15" d="m163 481v-6h5l1 6z"/>
		<path id="Path 167" class="s51" d="m357 484l4-9h10l2 12-2 8-4 1-8-1z"/>
		<path id="Path 168" class="s9" d="m442 479v-3l11 4 3 9-3 3z"/>
		<path id="Path 169" class="s51" d="m531 478l2-2 5 1 3 8v4l-10-2z"/>
		<path id="Path 170" class="s54" d="m869 485v-9h1v17h-1z"/>
		<path id="Path 171" class="s8" d="m147 478l6-1v6l-2 11h-8v-14l3-2z"/>
		<path id="Path 172" class="s44" d="m595 479v-2h16l5 2 2-2 5 2 2 11 6 5v16h-4l-12-2-10-1v-4l-4-2v-5l-6-3v-5l2-1z"/>
		<path id="Path 173" class="s57" d="m751 479l5-2 3 6v4h-4z"/>
		<path id="Path 174" class="s43" d="m765 483l3-6h5l2 10v4h-8z"/>
		<path id="Path 175" class="s7" d="m139 481l7-3-3 2z"/>
		<path id="Path 176" class="s40" d="m595 489l-9-4v-7l9 1 2 9z"/>
		<path id="Path 177" class="s12" d="m301 481v-2h6v6h-6z"/>
		<path id="Path 178" class="s9" d="m307 485v-6h4 4v6l-6 1z"/>
		<path id="Path 179" class="s5" d="m433 495l-1-12 5-4h5l11 13v6l-12 1-2-4h-4z"/>
		<path id="Path 180" class="s16" d="m453 480l2-1h6l7 8h9v2 8h-8l-5-6-8-2z"/>
		<path id="Path 181" class="s8" d="m631 495l-6-5-2-11 10 3v4l6 4v5z"/>
		<path id="Path 182" class="s24" d="m734 484l10-5v1l-7 4z"/>
		<path id="Path 183" class="s8" d="m746 480l5-1 4 8v9h-8l-4-7z"/>
		<path id="Path 184" class="s28" d="m139 481l4-1v14 4l-2 1-8-5v-4l1-4z"/>
		<path id="Path 185" class="s57" d="m737 484l7-4h2l-3 9h-8l-4 4h-4v-5l4-1z"/>
		<path id="Path 186" class="s7" d="m134 486l1-5h4z"/>
		<path id="Path 187" class="s14" d="m161 483l2-2h6l4 2 8-2h8v4 6l-4 1v10 1h-10l-4-6h-6-2z"/>
		<path id="Path 188" class="s16" d="m295 485v-4h6v4l-4 1z"/>
		<path id="Path 189" class="s14" d="m477 487v-6l10 1v7h-10z"/>
		<path id="Path 190" class="s18" d="m633 482v-1l4 2z"/>
		<path id="Path 191" class="s8" d="m806 500l-1-12 10-3 2-4h4 18l2 8-2 9 7 5h7v4 16l-7 2-5-4-4-10h-7l-5-1 1 4h3v7 2l-14-1 1-16z"/>
		<path id="Path 192" class="s50" d="m487 489v-7h5l3 7h6v14h-10l-2-6z"/>
		<path id="Path 193" class="s32" d="m639 490l-6-4v-4l4 1 8 2 5 1 1 1v4h-4z"/>
		<path id="Path 194" class="s50" d="m151 494l2-11h8l2 14h-11z"/>
		<path id="Path 195" class="s60" d="m198 485l9-2 1 4-3 1z"/>
		<path id="Path 196" class="s18" d="m645 485l-8-2 8 1z"/>
		<path id="Path 197" class="s11" d="m759 487v-4h6l2 8h-6z"/>
		<path id="Path 198" class="s46" d="m344 485l13-1 2 11h-5l-3-7h-7z"/>
		<path id="Path 199" class="s6" d="m645 485v-1l5 2z"/>
		<path id="Path 200" class="s4" d="m725 488l9-4-3 3-4 1z"/>
		<path id="Path 201" class="s61" d="m731 487l3-3h3z"/>
		<path id="Path 202" class="s15" d="m189 491v-6h9l7 3v11h-6l-5-8z"/>
		<path id="Path 203" class="s12" d="m257 493v-8h14v14h-5l-4-6z"/>
		<path id="Path 204" class="s36" d="m271 499v-14h4l15 1v9l3 3-1 3-16 2h-2z"/>
		<path id="Path 205" class="s62" d="m290 486l5-1 2 1v9l-4 3-3-3z"/>
		<path id="Path 206" class="s63" d="m297 486l4-1h6l2 1v8l-4 1h-8z"/>
		<path id="Path 207" class="s37" d="m309 486l6-1 16 13v3 10h-9l-5-2v-11l-8-4z"/>
		<path id="Path 208" class="s42" d="m517 489l3-4 11 2 10 2 5 3 3 7 2 10-2 8 8 8v4h-10l-2-8h-11l-7-7v-4l-9-5z"/>
		<path id="Path 209" class="s3" d="m541 489v-4h8l3 3 1 11h-4l-3-7z"/>
		<path id="Path 210" class="s64" d="m848 489l5-4h16v8l2 9v3l-10 2h-8v-4-4l-5-3z"/>
		<path id="Path 211" class="s17" d="m129 495l5-9-1 4z"/>
		<path id="Path 212" class="s18" d="m651 487l-1-1h6v1z"/>
		<path id="Path 213" class="s22" d="m656 487v-1l6 2z"/>
		<path id="Path 214" class="s14" d="m205 488l3-1 5 4v8h-8z"/>
		<path id="Path 215" class="s11" d="m371 495l2-8h4v9z"/>
		<path id="Path 216" class="s59" d="m377 496v-9h6l-3 10h-3z"/>
		<path id="Path 217" class="s47" d="m417 499l-2-12h7l3 8-1 4z"/>
		<path id="Path 218" class="s5" d="m501 489l3-2 13 2 1 16-12 2-1 4h-4v-8z"/>
		<path id="Path 219" class="s28" d="m651 491v-4h5l6 1h2l3 1 4 5v7h-2-8v-7z"/>
		<path id="Path 220" class="s34" d="m755 496v-9h4l2 4-2 6z"/>
		<path id="Path 221" class="s28" d="m775 491v-4h6l2 6-2 1z"/>
		<path id="Path 222" class="s65" d="m343 498l-2-8 3-2h7l3 7h5l8 1v7l-2 1z"/>
		<path id="Path 223" class="s22" d="m667 489l-3-1h6v1z"/>
		<path id="Path 224" class="s17" d="m670 489v-1l5 1v1z"/>
		<path id="Path 225" class="s17" d="m715 489l5-1v1h-4z"/>
		<path id="Path 226" class="s2" d="m720 489v-1h5z"/>
		<path id="Path 227" class="s43" d="m720 489l5-1h2v5l-2 2h-6l-3-5v-1z"/>
		<path id="Path 228" class="s63" d="m453 492l3-3 8 2 5 6-2 8h-11l-3-7z"/>
		<path id="Path 229" class="s30" d="m477 497v-8h10l2 8h-7z"/>
		<path id="Path 230" class="s11" d="m671 501v-7l-4-5h3l5 1 20 1v6 10h-10l-12-1-1-1z"/>
		<path id="Path 231" class="s2" d="m675 490v-1h27v2h-7z"/>
		<path id="Path 232" class="s22" d="m702 491v-2h5v2h-4z"/>
		<path id="Path 233" class="s2" d="m707 491v-2h8 1v1z"/>
		<path id="Path 234" class="s40" d="m731 493l4-4h8l4 7v2l-17 3z"/>
		<path id="Path 235" class="s66" d="m853 503h-7l-7-5 2-9h7v7l5 3z"/>
		<path id="Path 236" class="s39" d="m129 495l4-5v4l8 5-2 15-3-1-4-4-3-3v-2-6z"/>
		<path id="Path 237" class="s40" d="m639 495v-5l8 1v9h-2z"/>
		<path id="Path 238" class="s15" d="m707 491l9-1 3 5-1 2-11 3h-6l-2-3 4-6z"/>
		<path id="Path 239" class="s12" d="m185 502v-10l4-1h5l5 8h6v6l-2 2h-4l-4-5z"/>
		<path id="Path 240" class="s16" d="m213 499v-8l6 1v7z"/>
		<path id="Path 241" class="s33" d="m647 500v-9h4l10 3v7l-6 4h-4z"/>
		<path id="Path 242" class="s57" d="m695 497v-6h7 1l-4 6z"/>
		<path id="Path 243" class="s14" d="m759 497l2-6h6 8l6 3v7l-4 1v7l-4 6h-8v-7l-5-4z"/>
		<path id="Path 244" class="s9" d="m219 499v-7l10 2-3 6z"/>
		<path id="Path 245" class="s21" d="m257 499v-6h5l4 6-3 3z"/>
		<path id="Path 246" class="s5" d="m725 495l2-2h4l-1 8h-3-2z"/>
		<path id="Path 247" class="s8" d="m781 494l2-1 16 2 1 4-6 2-1 4 8 2v11l6 7-3 1-15-1v-7l-8-9v-8z"/>
		<path id="Path 248" class="s56" d="m871 502l-2-9h1l1 7z"/>
		<path id="Path 249" class="s6" d="m871 500l-1-7 2 7z"/>
		<path id="Path 250" class="s30" d="m143 498v-4h8l1 3-3 3z"/>
		<path id="Path 251" class="s48" d="m226 500l3-6 8 1 2 1v5l-6 5z"/>
		<path id="Path 252" class="s67" d="m305 495l4-1 8 4v11 2l-11 1z"/>
		<path id="Path 253" class="s3" d="m591 502l-1-7 5-1 6 3v5z"/>
		<path id="Path 254" class="s16" d="m239 496l8-1 2 4 2 7-4 1-8-6z"/>
		<path id="Path 255" class="s68" d="m293 498l4-3h8l1 17v1h-9v-7l-5-5z"/>
		<path id="Path 256" class="s68" d="m367 496l4-1 6 1v1l-2 6h-8z"/>
		<path id="Path 257" class="s69" d="m424 499l1-4h8 2v12l-3 2-6-1z"/>
		<path id="Path 258" class="s21" d="m435 507v-12h4l2 4v8z"/>
		<path id="Path 259" class="s11" d="m631 511v-16h8l6 5v13 2h-3-5z"/>
		<path id="Path 260" class="s51" d="m718 497l1-2h6v6h-4z"/>
		<path id="Path 261" class="s70" d="m747 498v-2h8l4 1 1 7-13 4z"/>
		<path id="Path 262" class="s46" d="m149 500l3-3h11 2v10l4 2v8h-8l-6-8h-4z"/>
		<path id="Path 263" class="s71" d="m169 509l-4-2v-10h6l4 6v6z"/>
		<path id="Path 264" class="s72" d="m375 503l2-6h3l5 4h9l7 6v4h-10l-16 1z"/>
		<path id="Path 265" class="s47" d="m467 505l2-8h8 5l6 9-1 13 14 2 2 2v8 2l-19 2h-15l-2-4 2-2z"/>
		<path id="Path 266" class="s31" d="m488 506l-6-9h7l2 6z"/>
		<path id="Path 267" class="s3" d="m695 507v-10h4l2 3h6l-4 9h-4z"/>
		<path id="Path 268" class="s36" d="m707 500l11-3 3 4v6l3 9-2 3h-8l-11-2v-4-4z"/>
		<path id="Path 269" class="s17" d="m127 498h1v1h-1z"/>
		<path id="Path 270" class="s13" d="m127 499l1-1h1v6h-1l-1-1z"/>
		<path id="Path 271" class="s17" d="m127 503h1v1h-1z"/>
		<path id="Path 272" class="s73" d="m141 499l2-1 6 2 2 9 2 14-9-4h-1l-4-5z"/>
		<path id="Path 273" class="s68" d="m339 501l4-3 22 6v9l-2 19-10 1-4-9h-6z"/>
		<path id="Path 274" class="s74" d="m441 499l12-1 3 7v15l-9-1-6-12z"/>
		<path id="Path 275" class="s75" d="m730 501l17-3v10l-3 3 2 12-2 6-1 2h-6l-2-4-1-10-1-6-6-4v-6z"/>
		<path id="Path 276" class="s46" d="m205 505v-6h8 6l7 1 7 6v9l-2 2h-15l-2-10z"/>
		<path id="Path 277" class="s63" d="m251 506l-2-7h8l6 3v9h-9v-4z"/>
		<path id="Path 278" class="s76" d="m263 502l3-3h5l3 4-5 8h-6z"/>
		<path id="Path 279" class="s74" d="m417 509v-10h7l2 9 6 1-6 13h-3l-5-4z"/>
		<path id="Path 280" class="s14" d="m551 509l-2-10h4l6 8v2z"/>
		<path id="Path 281" class="s39" d="m801 507l-8-2 1-4 6-2 5 1z"/>
		<path id="Path 282" class="s28" d="m645 513v-13h2l4 5h4l2 4-1 6z"/>
		<path id="Path 283" class="s15" d="m801 507l4-7h1l10 6-1 16-4 3h-4l-6-7z"/>
		<path id="Path 284" class="s53" d="m871 502v-2h1v9 1h-1v-5z"/>
		<path id="Path 285" class="s62" d="m233 506l6-5 8 6-1 8h-1-12z"/>
		<path id="Path 286" class="s77" d="m276 503l16-2 5 5v7 6l-17 5-6-14z"/>
		<path id="Path 287" class="s77" d="m331 511v-10h8l4 23-4 13h-8v-4z"/>
		<path id="Path 288" class="s59" d="m655 505l6-4h8v4l-2 4h-10z"/>
		<path id="Path 289" class="s43" d="m669 505v-4h2l1 4z"/>
		<path id="Path 290" class="s78" d="m721 507v-6h4 2v6z"/>
		<path id="Path 291" class="s43" d="m777 509v-7l4-1v8z"/>
		<path id="Path 292" class="s62" d="m185 503v-1h10l4 5h4l2 10 6 4v8l-19-1-7-6v-11z"/>
		<path id="Path 293" class="s9" d="m590 509l1-7h10l4 2v4l-2 9h-12z"/>
		<path id="Path 294" class="s37" d="m175 509v-6h10v8h-7z"/>
		<path id="Path 295" class="s65" d="m269 511l5-8h2l-2 7z"/>
		<path id="Path 296" class="s79" d="m365 504l2-1h8v9l-10 1z"/>
		<path id="Path 297" class="s37" d="m488 506l3-3h10v8 10l-14-2z"/>
		<path id="Path 298" class="s18" d="m378 575l2-1-7 2v-1z"/>
		<path id="Path 299" class="s21" d="m747 508l13-4 5 4v7l-4 8-10 2-5-2-2-12z"/>
		<path id="Path 300" class="s71" d="m203 507l2-2 9 2 2 10-5 4-6-4z"/>
		<path id="Path 301" class="s36" d="m456 520v-15h11l2 24-2 2h-10z"/>
		<path id="Path 302" class="s12" d="m505 511l1-4 12-2 9 5v4l-4 2h-14z"/>
		<path id="Path 303" class="s16" d="m667 509l2-4h3l1 1 3 9-1 2-8-2z"/>
		<path id="Path 304" class="s29" d="m673 506l12 1v8h-9z"/>
		<path id="Path 305" class="s32" d="m861 507l10-2v5 6 2l-5 4-4 1h-1z"/>
		<path id="Path 306" class="s74" d="m247 507l4-1 3 1v4l-3 4h-5z"/>
		<path id="Path 307" class="s80" d="m432 509l3-2h6l6 12 9 1 1 11-1 4h-12l-11-4-7-9z"/>
		<path id="Path 308" class="s48" d="m559 509v-2h8l5 6h5v8h-6-6v-7z"/>
		<path id="Path 309" class="s35" d="m685 515v-8h10l4 2v4l-8 3z"/>
		<path id="Path 310" class="s35" d="m724 516l-3-9h6l6 4 1 6h-3z"/>
		<path id="Path 311" class="s28" d="m853 523v-16h8v16z"/>
		<path id="Path 312" class="s37" d="m603 517l2-9 10 1 2 12h-12z"/>
		<path id="Path 313" class="s6" d="m136 514l-4-1v-4l4 4z"/>
		<path id="Path 314" class="s81" d="m153 523l-2-14h4l6 8h8 6l3-6h7v11l-5 5-3 1 1 4h-1l-3-1-4-2h-3l-8-3-5-2z"/>
		<path id="Path 315" class="s62" d="m169 517v-8h6l3 2-3 6z"/>
		<path id="Path 316" class="s79" d="m317 511v-2l5 2-2 2z"/>
		<path id="Path 317" class="s80" d="m402 513l6-4h9l1 9 5 4v5l-6 2v5h-4l-12-8z"/>
		<path id="Path 318" class="s37" d="m557 525l-8-8 2-8h8l6 5v7 4z"/>
		<path id="Path 319" class="s29" d="m577 513l3-4h10l1 8-2 12-10-2-2-6z"/>
		<path id="Path 320" class="s71" d="m617 521l-2-12 12 2v10l-7 4z"/>
		<path id="Path 321" class="s31" d="m656 515l1-6h10v6l-1 1h-5z"/>
		<path id="Path 322" class="s34" d="m699 513v-4h4v4z"/>
		<path id="Path 323" class="s50" d="m773 515l4-6h4l8 9v7 6h-6l-10-2z"/>
		<path id="Path 324" class="s44" d="m829 514h-3l-1-4 5 1z"/>
		<path id="Path 325" class="s6" d="m872 509h1v1h-1z"/>
		<path id="Path 326" class="s82" d="m269 511l5-1 6 14 17-5 2 4-15 17-3 3-4-6h-5l3-4-1-6h-10l-2 6-13 1-8-3v-6l4-4v-6h1 5l3-4h9z"/>
		<path id="Path 327" class="s10" d="m871 516v-6h1 1v5l-1 1z"/>
		<path id="Path 328" class="s17" d="m872 515h1v1h-1z"/>
		<path id="Path 329" class="s77" d="m306 512l11-1 3 2 3 20v6l-6 2-8-2-2-16-1-10z"/>
		<path id="Path 330" class="s63" d="m320 513l2-2h9v22h-8z"/>
		<path id="Path 331" class="s67" d="m375 512l16-1v10l8 5v12l5 5 9 2 1 11 7 1 3 4h9l2 10h-6l-4-4-8 2h-12l-14-10-1-9 3-2-1-5-5 1v5h-10l-4-2 3-11 4-1-1-4h-5l-1 4-10-3 2-19z"/>
		<path id="Path 332" class="s37" d="m399 526l-8-5v-10h10l1 2-1 13z"/>
		<path id="Path 333" class="s48" d="m501 521v-10h4l4 5v7h-6z"/>
		<path id="Path 334" class="s48" d="m627 521v-10h4l6 4-8 6z"/>
		<path id="Path 335" class="s50" d="m829 514l1-3h7l4 10h-8-4z"/>
		<path id="Path 336" class="s52" d="m136 514v-1l3 1 4 5z"/>
		<path id="Path 337" class="s62" d="m297 519v-6h9l1 10h-8z"/>
		<path id="Path 338" class="s63" d="m645 515v-2l11 2 5 1v7l-10 1-6-4v-2z"/>
		<path id="Path 339" class="s51" d="m691 516l8-3h4v4 6l-12-1z"/>
		<path id="Path 340" class="s5" d="m523 516l4-2 7 7v6l-3 4-11-2z"/>
		<path id="Path 341" class="s76" d="m231 517l2-2h12v6l-4 4-10-1z"/>
		<path id="Path 342" class="s78" d="m629 521l8-6h5l3 3v2 6l-3 7h-7l-6-6z"/>
		<path id="Path 343" class="s29" d="m645 518l-3-3h3z"/>
		<path id="Path 344" class="s81" d="m666 516l1-1 8 2 1-2h9l6 1v6l-3 1h-15-6z"/>
		<path id="Path 345" class="s16" d="m761 523l4-8h8v14l-4 2h-6z"/>
		<path id="Path 346" class="s73" d="m509 523v-7h14l-3 13h-7z"/>
		<path id="Path 347" class="s37" d="m661 523v-7h5l1 7-2 1z"/>
		<path id="Path 348" class="s47" d="m714 519h8l2-3 7 1v10l-3 8-4-1h-1l-8-2-12-1v-8l9-1z"/>
		<path id="Path 349" class="s53" d="m871 518v-2h1v2z"/>
		<path id="Path 350" class="s82" d="m211 521l5-4h15v7l-6 2v13h-5-3v-8l-6-2z"/>
		<path id="Path 351" class="s14" d="m589 529l2-12h12l2 4v7z"/>
		<path id="Path 352" class="s37" d="m703 523v-6l11 2-2 3z"/>
		<path id="Path 353" class="s21" d="m731 527v-10h3l1 10z"/>
		<path id="Path 354" class="s23" d="m866 522l5-4h1v3l-4 1z"/>
		<path id="Path 355" class="s7" d="m154 524l-8-1-2-4 9 4z"/>
		<path id="Path 356" class="s35" d="m645 526v-6l6 4z"/>
		<path id="Path 357" class="s14" d="m534 527v-6h11l2 8h-9z"/>
		<path id="Path 358" class="s3" d="m565 525v-4h6v5h-6z"/>
		<path id="Path 359" class="s5" d="m571 526v-5h6l2 6z"/>
		<path id="Path 360" class="s42" d="m605 528v-7h12l3 4z"/>
		<path id="Path 361" class="s55" d="m620 525l7-4h2v6l6 6h7l3-7 6-2 10-1 4 1v9l-2 1h-1l-11 5h-3l-16 5-9 2-8 1-2-6-9 1-1 7-4 1-21 1h-9l-9 1h-1v-1l-2-12-32 2h-18l-4-2v-6-2l10-2h7l11 2 6 2 1-4h9 10 6l2-3h6l8 1 10 2 16-1z"/>
		<path id="Path 362" class="s55" d="m829 523v-2h4l-1 11h-1-1z"/>
		<path id="Path 363" class="s16" d="m832 532l1-11h8l5 4-3 4-1 1z"/>
		<path id="Path 364" class="s63" d="m180 527l5-5 7 6 19 1 6 2v8h-10l-15-3-7-2h-2l-3-2z"/>
		<path id="Path 365" class="s83" d="m423 527v-5h3l7 9 11 4h12l1 8-21 2h-3l-7-2-4-5 5-3v-5z"/>
		<path id="Path 366" class="s9" d="m688 523l3-1 12 1v8 1h-8-1-3z"/>
		<path id="Path 367" class="s29" d="m811 525l4-3 14 1 1 9v1h-1l-6 1-12-3z"/>
		<path id="Path 368" class="s6" d="m862 523l4-1h2l-6 2z"/>
		<path id="Path 369" class="s79" d="m284 540l15-17h8l2 16v4l-11 1h-9z"/>
		<path id="Path 370" class="s12" d="m503 531v-8h6l4 6z"/>
		<path id="Path 371" class="s35" d="m665 524l2-1h6v10h-1-7z"/>
		<path id="Path 372" class="s55" d="m673 533v-10h15l3 9-15 1z"/>
		<path id="Path 373" class="s69" d="m744 529l2-6 5 2v4z"/>
		<path id="Path 374" class="s35" d="m751 525l10-2 2 8-8 4-4-6z"/>
		<path id="Path 375" class="s59" d="m846 525l7-2h8 1v1l-11 3-8 2z"/>
		<path id="Path 376" class="s74" d="m225 539v-13l6-2 10 1v6l-4 3v5h-7z"/>
		<path id="Path 377" class="s62" d="m339 537l4-13h6l4 9 10-1 10 3 3 1-3 11-10 2h-5l-3-4h-13z"/>
		<path id="Path 378" class="s4" d="m851 527l11-3-11 5z"/>
		<path id="Path 379" class="s9" d="m557 529v-4h8v1l-2 3z"/>
		<path id="Path 380" class="s30" d="m789 531v-6l15 1v5l-3 3-4 1h-6z"/>
		<path id="Path 381" class="s49" d="m804 526l3-1h4v6h-7z"/>
		<path id="Path 382" class="s59" d="m413 545l-9-2-5-5v-12h2l12 8z"/>
		<path id="Path 383" class="s34" d="m178 532l-1-4 3-1v5z"/>
		<path id="Path 384" class="s81" d="m262 533l2-6h10l1 6-3 4h-2-2z"/>
		<path id="Path 385" class="s75" d="m417 534v-5l6-2 4 3v5l-5 3z"/>
		<path id="Path 386" class="s29" d="m531 531l3-4 4 2-1 4z"/>
		<path id="Path 387" class="s78" d="m728 535l3-8h4l2 4-3 6h-2l-3-1h-1z"/>
		<path id="Path 388" class="s0" d="m843 529l8-2v2l-9 2v-1z"/>
		<path id="Path 389" class="s55" d="m743 531l1-2h7l4 6-3 6h-5-3l-1-1z"/>
		<path id="Path 390" class="s8" d="m769 531l4-2 10 2v10l-3 2h-8l-3-2z"/>
		<path id="Path 391" class="s22" d="m832 532l10-2v1l-13 3v-1h1l1-1z"/>
		<path id="Path 392" class="s7" d="m177 533l-3-2 3 1z"/>
		<path id="Path 393" class="s80" d="m237 539v-5l4-3 8 3v6l-10-1z"/>
		<path id="Path 394" class="s65" d="m373 535l1-4h5l1 4-4 1z"/>
		<path id="Path 395" class="s70" d="m456 535l1-4h10l2 4h15l19 4 4 2-1 8-11-1-11-2h-1l-4-1-22-2z"/>
		<path id="Path 396" class="s84" d="m703 532v-1l12 1v1h-12z"/>
		<path id="Path 397" class="s40" d="m734 537l3-6h6v9z"/>
		<path id="Path 398" class="s28" d="m755 535l8-4h6v10l-13 1h-1l-3-1z"/>
		<path id="Path 399" class="s28" d="m783 541v-10h6l2 4v6l-2 1z"/>
		<path id="Path 400" class="s44" d="m801 534l3-3h7l12 3-6 2-7 3h-2l-4 1h-4z"/>
		<path id="Path 401" class="s22" d="m177 533v-1h1 2l3 2z"/>
		<path id="Path 402" class="s26" d="m676 533l15-1h3z"/>
		<path id="Path 403" class="s85" d="m676 533l18-1h1v1l-23 1v-1h1z"/>
		<path id="Path 404" class="s86" d="m695 533v-1h8v1z"/>
		<path id="Path 405" class="s87" d="m715 533v-1l8 2z"/>
		<path id="Path 406" class="s85" d="m830 532h1v1h-1z"/>
		<path id="Path 407" class="s47" d="m249 534l13-1 6 4-1 7h-2l-5-2-4-1h-7v-1z"/>
		<path id="Path 408" class="s71" d="m323 539v-6h8v4 2z"/>
		<path id="Path 409" class="s69" d="m484 535l19-2v6z"/>
		<path id="Path 410" class="s87" d="m663 534l2-1h7v1z"/>
		<path id="Path 411" class="s85" d="m823 534l6-1v1l-11 2h-1z"/>
		<path id="Path 412" class="s73" d="m413 545v-11h4l5 4 4 5-1 4z"/>
		<path id="Path 413" class="s4" d="m728 536l-4-2 4 1z"/>
		<path id="Path 414" class="s28" d="m797 535l4-1-1 6h-3z"/>
		<path id="Path 415" class="s43" d="m791 541v-6h6v5z"/>
		<path id="Path 416" class="s4" d="m732 538l-3-2 3 1z"/>
		<path id="Path 417" class="s4" d="m810 539l7-3h1z"/>
		<path id="Path 418" class="s88" d="m267 544l1-7h2l1 7h-1z"/>
		<path id="Path 419" class="s83" d="m271 544l-1-7h2 5l4 6-1 3h-1-1z"/>
		<path id="Path 420" class="s67" d="m331 539v-2h8l3 8h13l3 4-19 2z"/>
		<path id="Path 421" class="s1" d="m732 538v-1h2l9 3 1 1h-2z"/>
		<path id="Path 422" class="s38" d="m231 541l-11-2h5 5z"/>
		<path id="Path 423" class="s41" d="m231 541l-1-2h7 2v2z"/>
		<path id="Path 424" class="s89" d="m239 541v-2l10 1v1z"/>
		<path id="Path 425" class="s81" d="m309 543v-4l8 2v6h-5z"/>
		<path id="Path 426" class="s90" d="m317 541l6-2h8l8 12-4 3v7l-14-5v-5l-4-4z"/>
		<path id="Path 427" class="s35" d="m525 541l32-2 2 12-10 1-18-1-4 1h-1-1z"/>
		<path id="Path 428" class="s22" d="m632 544l16-5-5 4z"/>
		<path id="Path 429" class="s38" d="m804 540l4-1-4 2z"/>
		<path id="Path 430" class="s65" d="m281 543l3-3 5 4v6l-5-1-4-3z"/>
		<path id="Path 431" class="s22" d="m791 541l6-1h3 4v1l-20 3v-1l5-1z"/>
		<path id="Path 432" class="s38" d="m256 543l-7-2h7z"/>
		<path id="Path 433" class="s84" d="m256 543v-2l4 1v1z"/>
		<path id="Path 434" class="s78" d="m506 549l1-8h18v11h-9l-9-2z"/>
		<path id="Path 435" class="s8" d="m603 549l1-7 9-1 2 6-3 2h-2-4z"/>
		<path id="Path 436" class="s24" d="m747 543l-5-2h2 3z"/>
		<path id="Path 437" class="s84" d="m747 543v-2h5l3 1v1z"/>
		<path id="Path 438" class="s91" d="m756 542l13-1 3 2h-1-14z"/>
		<path id="Path 439" class="s20" d="m780 543l3-2 6 1-5 1z"/>
		<path id="Path 440" class="s17" d="m260 543v-1l5 2z"/>
		<path id="Path 441" class="s17" d="m755 543v-1h1l1 1v1z"/>
		<path id="Path 442" class="s65" d="m298 544l11-1 3 4-5 6-7-1-1-1z"/>
		<path id="Path 443" class="s59" d="m387 549v-5l5-1 1 5-3 2z"/>
		<path id="Path 444" class="s3" d="m425 547l1-4 7 2 2 3 3 3 5 4 7 3 3 1 1 1 9 8-12 1-6-9-12-3z"/>
		<path id="Path 445" class="s11" d="m436 545l21-2 22 2z"/>
		<path id="Path 446" class="s7" d="m757 544v-1h14v1z"/>
		<path id="Path 447" class="s85" d="m771 544v-1h1 8 4v1z"/>
		<path id="Path 448" class="s4" d="m278 546l-8-2h1z"/>
		<path id="Path 449" class="s92" d="m289 550v-6h9l1 7h-10z"/>
		<path id="Path 450" class="s68" d="m433 561h-9l-3-4-7-1-1-11 12 2 8 10z"/>
		<path id="Path 451" class="s18" d="m435 548l-2-3h3 43l4 1z"/>
		<path id="Path 452" class="s1" d="m284 549h-4l-1-3h1z"/>
		<path id="Path 453" class="s53" d="m495 549l-11-3 11 2z"/>
		<path id="Path 454" class="s4" d="m615 547l8-1-11 3z"/>
		<path id="Path 455" class="s93" d="m307 553l5-6h5l4 4v5l-5-1-1 4-6-1-2-4z"/>
		<path id="Path 456" class="s3" d="m363 549l10-2 4 2v6l-11 4-3-3z"/>
		<path id="Path 457" class="s89" d="m495 549v-1l11 1 1 1v1z"/>
		<path id="Path 458" class="s1" d="m289 551l-5-2 5 1z"/>
		<path id="Path 459" class="s91" d="m339 551l19-2h5v7l3 3 11-4h6l5 4-2 14-5-1-1 1v1l-2 1v-4l-5-1-24-7h-12l-2-2v-7z"/>
		<path id="Path 460" class="s6" d="m380 572h1v1h-1z"/>
		<path id="Path 461" class="s65" d="m377 555v-6h10l3 1 1 9h-3l-5-4z"/>
		<path id="Path 462" class="s26" d="m578 551l21-1v1l-15 1z"/>
		<path id="Path 463" class="s41" d="m599 550l4-1h3l-1 2h-5-1z"/>
		<path id="Path 464" class="s23" d="m605 551l1-2h4z"/>
		<path id="Path 465" class="s25" d="m507 551v-1l9 2v1z"/>
		<path id="Path 466" class="s25" d="m300 553l-11-2h10l1 1z"/>
		<path id="Path 467" class="s38" d="m443 555l-5-4h4l1 3z"/>
		<path id="Path 468" class="s26" d="m527 552l4-1v2z"/>
		<path id="Path 469" class="s73" d="m531 553v-2l18 1v1h-4-12z"/>
		<path id="Path 470" class="s20" d="m549 552l10-1v1l-10 1z"/>
		<path id="Path 471" class="s84" d="m560 552l9-1v2h-9z"/>
		<path id="Path 472" class="s25" d="m569 553v-2h9l6 1v1z"/>
		<path id="Path 473" class="s22" d="m584 552l15-1h1l-16 2z"/>
		<path id="Path 474" class="s17" d="m300 553v-1l7 1v1z"/>
		<path id="Path 475" class="s86" d="m516 553v-1h9 1l-1 1z"/>
		<path id="Path 476" class="s7" d="m525 553l1-1h1l4 1h2v1z"/>
		<path id="Path 477" class="s85" d="m549 553l10-1h1v1l-15 1v-1z"/>
		<path id="Path 478" class="s22" d="m533 554v-1h12v1z"/>
		<path id="Path 479" class="s4" d="m443 555v-1l7 4z"/>
		<path id="Path 480" class="s8" d="m315 559l1-4 5 1 14 5 2 2v5l-4-1-8-3-6-3h-1z"/>
		<path id="Path 481" class="s79" d="m433 561v-4l12 3 6 9v6h-5-11v-4z"/>
		<path id="Path 482" class="s94" d="m386 573l2-14h3l14 10v6l-2 1-13-1-3-1h-1z"/>
		<path id="Path 483" class="s13" d="m453 559h1v1h-1z"/>
		<path id="Path 484" class="s0" d="m454 560v-1l6 2 6 7v1l-3-1z"/>
		<path id="Path 485" class="s57" d="m337 563h12v10h-4l-5-2-3-3z"/>
		<path id="Path 486" class="s32" d="m349 573v-10l24 7v5l-11-1-8-1z"/>
		<path id="Path 487" class="s7" d="m334 569l-9-5 8 3z"/>
		<path id="Path 488" class="s1" d="m334 569l-1-2 4 1 3 3h-1z"/>
		<path id="Path 489" class="s20" d="m417 569l8-2 4 4v4h-10z"/>
		<path id="Path 490" class="s65" d="m451 569l12-1 3 1 2 3v3h-17z"/>
		<path id="Path 491" class="s4" d="m466 569v-1l2 4z"/>
		<path id="Path 492" class="s91" d="m405 575v-6h12l2 6h-5z"/>
		<path id="Path 493" class="s57" d="m373 575v-5l5 1v4z"/>
		<path id="Path 494" class="s17" d="m345 574l-6-3h1l5 2z"/>
		<path id="Path 495" class="s91" d="m429 575v-4h6v4z"/>
		<path id="Path 496" class="s17" d="m381 573v-1l5 1v1z"/>
		<path id="Path 497" class="s85" d="m345 574v-1h4 5v1z"/>
		<path id="Path 498" class="s87" d="m354 574v-1l8 1z"/>
		<path id="Path 499" class="s4" d="m373 576l-11-2 11 1z"/>
		<path id="Path 500" class="s17" d="m390 576l-3-2 3 1z"/>
		<path id="Path 501" class="s7" d="m390 576v-1l13 1v2h-11z"/>
		<path id="Path 502" class="s53" d="m403 576l2-1h9v1z"/>
		<path id="Path 503" class="s4" d="m414 576v-1h5 10 6 11v1z"/>
		<path id="Path 504" class="s54" d="m446 576v-1h5 17z"/>
	</g>
</svg>