<svg version="1.2" xmlns="http://www.w3.org/2000/svg" viewBox="0 0 1000 1000" width="1000" height="1000">
	<title>Cottus_bairdi</title>
	<style>
		.s0 { opacity: .1;fill: #eaf2f9 } 
		.s1 { opacity: .4;fill: #aec4d3 } 
		.s2 { opacity: .3;fill: #f4f8fd } 
		.s3 { opacity: 1;fill: #ccddea } 
		.s4 { opacity: .1;fill: #b2c5d0 } 
		.s5 { opacity: .3;fill: #d5e4ee } 
		.s6 { opacity: .2;fill: #ccdae3 } 
		.s7 { fill: #afb8ad } 
		.s8 { opacity: 1;fill: #879896 } 
		.s9 { fill: #a5b8c2 } 
		.s10 { opacity: 1;fill: #bdc4b8 } 
		.s11 { fill: #81a1b3 } 
		.s12 { opacity: .7;fill: #bbcdd7 } 
		.s13 { opacity: .5;fill: #eef5fa } 
		.s14 { opacity: 1;fill: #c1d1db } 
		.s15 { fill: #5f695e } 
		.s16 { opacity: 1;fill: #e2edf6 } 
		.s17 { fill: #81867b } 
		.s18 { fill: #98a197 } 
		.s19 { fill: #9eada7 } 
		.s20 { fill: #38525b } 
		.s21 { opacity: .9;fill: #d9e7f1 } 
		.s22 { fill: #9ab7cd } 
		.s23 { fill: #5f726e } 
		.s24 { opacity: .6;fill: #e7f0f7 } 
		.s25 { fill: #6c8485 } 
		.s26 { fill: #748e95 } 
		.s27 { opacity: 1;fill: #b4d3ee } 
		.s28 { fill: #455046 } 
		.s29 { fill: #37423b } 
		.s30 { fill: #4d574c } 
		.s31 { fill: #b1c6d1 } 
		.s32 { fill: #a2c4e3 } 
		.s33 { fill: #465756 } 
		.s34 { fill: #677a78 } 
		.s35 { fill: #2d4d5d } 
		.s36 { fill: #566865 } 
		.s37 { opacity: 1;fill: #7796a8 } 
		.s38 { opacity: .6;fill: #a8bdcb } 
		.s39 { opacity: .5;fill: #cadbe7 } 
		.s40 { fill: #456069 } 
		.s41 { fill: #809ba0 } 
		.s42 { fill: #8fb6da } 
		.s43 { fill: #667267 } 
		.s44 { fill: #95adb7 } 
		.s45 { fill: #7e908b } 
		.s46 { opacity: .8;fill: #8aa2af } 
		.s47 { fill: #567898 } 
		.s48 { fill: #6a899c } 
		.s49 { fill: #757a6d } 
		.s50 { fill: #82a8cb } 
		.s51 { fill: #4d6770 } 
		.s52 { fill: #28434a } 
		.s53 { opacity: .8;fill: #a5bccd } 
		.s54 { fill: #8cabbf } 
		.s55 { fill: #748781 } 
		.s56 { fill: #344748 } 
		.s57 { fill: #6e92b5 } 
		.s58 { fill: #789dbe } 
		.s59 { fill: #3d5865 } 
		.s60 { fill: #0b2836 } 
		.s61 { fill: #051a23 } 
		.s62 { opacity: 1;fill: #617e8f } 
		.s63 { fill: #688bab } 
		.s64 { fill: #5d767f } 
		.s65 { fill: #283a3b } 
		.s66 { fill: #45657b } 
		.s67 { fill: #1b3f53 } 
		.s68 { fill: #08222f } 
		.s69 { fill: #8ca3a9 } 
		.s70 { fill: #5f82a6 } 
		.s71 { fill: #3c4f4e } 
		.s72 { fill: #4d6b7d } 
		.s73 { fill: #4a6b88 } 
		.s74 { fill: #254657 } 
		.s75 { fill: #173646 } 
		.s76 { fill: #537288 } 
		.s77 { fill: #1a425f } 
		.s78 { fill: #112f3f } 
		.s79 { opacity: .5;fill: #7f97a6 } 
		.s80 { fill: #4f5f5b } 
		.s81 { fill: #3a5d7e } 
		.s82 { fill: #22312e } 
		.s83 { opacity: .1;fill: #6b8594 } 
		.s84 { opacity: .9;fill: #adc2cf } 
		.s85 { fill: #1a3b4b } 
		.s86 { fill: #556e76 } 
		.s87 { fill: #031015 } 
		.s88 { fill: #345871 } 
		.s89 { fill: #18313b } 
		.s90 { fill: #2e526b } 
		.s91 { fill: #3c5f73 } 
		.s92 { fill: #132525 } 
		.s93 { opacity: .7;fill: #d6e3ec } 
		.s94 { fill: #6f7f76 } 
		.s95 { opacity: .2;fill: #8fa6b2 } 
		.s96 { opacity: .3;fill: #3c5c6f } 
		.s97 { fill: #566254 } 
		.s98 { opacity: .8;fill: #4c6d85 } 
	</style>
	<g id="Background">
		<path id="Path 0" class="s0" d="m566 379v-2h3v1z"/>
		<path id="Path 1" class="s1" d="m569 378v-1h5v1z"/>
		<path id="Path 2" class="s2" d="m574 378v-1h3v2z"/>
		<path id="Path 3" class="s3" d="m566 379l3-1h5l3 1 5 3h4l9-1 2 1 6 2v2l-8 1-2 3h-4l-9-4-5-2-8-2-7-1v-2z"/>
		<path id="Path 4" class="s4" d="m549 380l11-1v2h-2-9z"/>
		<path id="Path 5" class="s5" d="m586 382l3-3 6 1v1z"/>
		<path id="Path 6" class="s6" d="m528 384l21-4v1l-9 2-5 2-6 1z"/>
		<path id="Path 7" class="s0" d="m595 381v-1l2 2z"/>
		<path id="Path 8" class="s3" d="m540 383l9-2v4l-5 2v-3z"/>
		<path id="Path 9" class="s7" d="m544 387l5-2v-4h9l-1 4-5 2v4h3v6l-4 4-8-1-2-5v-6z"/>
		<path id="Path 10" class="s8" d="m557 385l1-4h2l7 1-6 5h-3z"/>
		<path id="Path 11" class="s6" d="m358 384l8-2v1z"/>
		<path id="Path 12" class="s4" d="m366 383v-1h6v1z"/>
		<path id="Path 13" class="s0" d="m372 383v-1l9 2-8-1z"/>
		<path id="Path 14" class="s9" d="m561 387l6-5 8 2-5 5v3h3v3l-4 2h-8z"/>
		<path id="Path 15" class="s0" d="m603 384l-6-2 7 2z"/>
		<path id="Path 16" class="s10" d="m358 384l8-1h6 1v2l-7 3-3 1-4-1-2-2z"/>
		<path id="Path 17" class="s3" d="m373 385v-2l8 1v1h-1z"/>
		<path id="Path 18" class="s11" d="m535 385l5-2 4 1v3l-3 2h-4z"/>
		<path id="Path 19" class="s12" d="m348 387l10-3-1 2-3 1-6 2z"/>
		<path id="Path 20" class="s1" d="m381 385v-1l9 2h-1z"/>
		<path id="Path 21" class="s13" d="m514 389l2-4 7-1-2 2z"/>
		<path id="Path 22" class="s14" d="m521 386l2-2h5l1 2-5 5z"/>
		<path id="Path 23" class="s15" d="m573 392h-3v-3l5-5 5 2z"/>
		<path id="Path 24" class="s14" d="m603 386v-2h1 5v7l-3 2-3-3z"/>
		<path id="Path 25" class="s16" d="m609 391v-7l8 3v1l-3 2z"/>
		<path id="Path 26" class="s17" d="m366 388l7-3h7v5l-1 6-1 1-6-2-1-5h-5z"/>
		<path id="Path 27" class="s18" d="m380 390v-5h1l8 1 2 5-8-1z"/>
		<path id="Path 28" class="s19" d="m529 386l6-1 2 4h4v6l-7 5 1 4-1 7-5 1-3-5 1-8-3-6v-2z"/>
		<path id="Path 29" class="s17" d="m555 391h-3v-4l5-2 1 2z"/>
		<path id="Path 30" class="s20" d="m354 387l3-1 2 2-1 3h-5z"/>
		<path id="Path 31" class="s21" d="m391 391l-2-5h1l4 3v2z"/>
		<path id="Path 32" class="s9" d="m514 389l7-3 3 5v2l-4 3 1 5v6l-2 1h-5l-1-4-7-2-1-6 1-2 2-2 5-3z"/>
		<path id="Path 33" class="s22" d="m573 392l7-6 9 4v9l3 2-7 4-3-3v-7l-7 2-2-2z"/>
		<path id="Path 34" class="s23" d="m593 390l2-3 8-1v4l-5 2z"/>
		<path id="Path 35" class="s24" d="m338 397l1-5 9-5v2l-4 4-1 1z"/>
		<path id="Path 36" class="s25" d="m348 389l6-2-1 4h5l2 2-4 4 3 5v3l-5 2-5-4-1-4v-4l-4-2z"/>
		<path id="Path 37" class="s12" d="m396 389l16-2v2z"/>
		<path id="Path 38" class="s22" d="m555 391l3-4h3v10h-2-4z"/>
		<path id="Path 39" class="s13" d="m617 388v-1l5 2z"/>
		<path id="Path 40" class="s13" d="m623 389l6-2v2h-5z"/>
		<path id="Path 41" class="s26" d="m358 391l1-3 4 1v2 1l-3 1z"/>
		<path id="Path 42" class="s15" d="m363 389l3-1v2l-3 1z"/>
		<path id="Path 43" class="s27" d="m614 390l3-2 5 1h1 1l1 6-8 9-5 1-4-1v-5l8-3z"/>
		<path id="Path 44" class="s3" d="m624 389h5l3 1 2 4v1h-5-4z"/>
		<path id="Path 45" class="s28" d="m383 390l8 1h3l1 4h-12z"/>
		<path id="Path 46" class="s18" d="m394 391v-2h2 16 1l5 4v6h-3l-7-7-10 5-3-2z"/>
		<path id="Path 47" class="s6" d="m418 393l-5-4 6 1 3 4z"/>
		<path id="Path 48" class="s29" d="m363 391l3-1h5l1 5-3 2h-5l-1-5z"/>
		<path id="Path 49" class="s30" d="m379 396l1-6h3v5z"/>
		<path id="Path 50" class="s31" d="m592 401l-3-2v-9h4l5 2v5l-1 2-2 2z"/>
		<path id="Path 51" class="s32" d="m598 392l5-2 3 3-2 4h-6z"/>
		<path id="Path 52" class="s26" d="m609 391l5-1 2 6-8 3h-4v-2l2-4z"/>
		<path id="Path 53" class="s33" d="m360 393l3-1 1 5-5 5-3-5z"/>
		<path id="Path 54" class="s34" d="m398 397l10-5 7 7v3l-12 1h-2l-4-3z"/>
		<path id="Path 55" class="s35" d="m343 394l1-1 4 2v4h-5-1z"/>
		<path id="Path 56" class="s9" d="m418 399v-6l4 1 7 3v6h-2z"/>
		<path id="Path 57" class="s36" d="m521 401l-1-5 4-3 3 6z"/>
		<path id="Path 58" class="s37" d="m338 397l5-3-1 5-3 2-2-1z"/>
		<path id="Path 59" class="s38" d="m429 397l-7-3 12 1h1l-2 2z"/>
		<path id="Path 60" class="s2" d="m434 395l5-1v1h-4z"/>
		<path id="Path 61" class="s39" d="m439 395v-1l13 3h-5-2z"/>
		<path id="Path 62" class="s5" d="m499 399l2-4 5-1-1 2z"/>
		<path id="Path 63" class="s1" d="m634 395v-1h10v1z"/>
		<path id="Path 64" class="s0" d="m644 395v-1l3 3z"/>
		<path id="Path 65" class="s40" d="m369 397l3-2 6 2 2 8 4 2v3h-15l-3-3 3-3z"/>
		<path id="Path 66" class="s41" d="m379 396l4-1h12l3 2-1 3-2 2-7 4-4 1-4-2-2-8z"/>
		<path id="Path 67" class="s19" d="m433 397l2-2h4l6 2-4 1v7h-6l-2-2z"/>
		<path id="Path 68" class="s15" d="m535 404l-1-4 7-5 2 5-3 3z"/>
		<path id="Path 69" class="s42" d="m569 397l4-2 2 2-2 5h-2z"/>
		<path id="Path 70" class="s43" d="m575 397l7-2v7h-9z"/>
		<path id="Path 71" class="s26" d="m617 404l8-9h4v4l-8 6z"/>
		<path id="Path 72" class="s44" d="m629 399v-4h5 10l3 2 4 2v2h-4l-1 4 6-1h1v13h-3l-2-3-8 1h-7v-9h-3z"/>
		<path id="Path 73" class="s45" d="m499 399l6-3 1 6 7 2 1 4-4 3h-7l-4-1-2-7z"/>
		<path id="Path 74" class="s46" d="m333 402l5-5-1 3-2 3h-2z"/>
		<path id="Path 75" class="s47" d="m359 402l5-5h5v7l-3 3-7-2z"/>
		<path id="Path 76" class="s48" d="m429 403v-6h4v6z"/>
		<path id="Path 77" class="s49" d="m441 405v-7l4-1h2l9 8v1l-8-1-5 7h-2z"/>
		<path id="Path 78" class="s10" d="m456 405l-9-8h5l4 2 6 1v1l-2 4z"/>
		<path id="Path 79" class="s43" d="m551 401l4-4h4v7l-2 1h-4z"/>
		<path id="Path 80" class="s50" d="m559 404v-7h2 8l2 5v10l-5-1-2-7z"/>
		<path id="Path 81" class="s9" d="m597 399l1-2h6v2 4h-5z"/>
		<path id="Path 82" class="s12" d="m651 399l-4-2 27 2v1h-3l-10-2-6 1z"/>
		<path id="Path 83" class="s9" d="m655 399l6-1 3 7-4 6h11v13 2h-5l-2-6-9 1-2-4v-13l3-1z"/>
		<path id="Path 84" class="s27" d="m664 405l-3-7 10 2v4z"/>
		<path id="Path 85" class="s51" d="m339 401l3-2h1v4l-3 1z"/>
		<path id="Path 86" class="s52" d="m343 403v-4h5l1 4h-4z"/>
		<path id="Path 87" class="s25" d="m415 402v-3h3l9 4v2l-9 1h-3z"/>
		<path id="Path 88" class="s53" d="m493 404l6-5-2 4z"/>
		<path id="Path 89" class="s50" d="m521 401l6-2-1 8h-5z"/>
		<path id="Path 90" class="s54" d="m595 401l2-2 2 4h5l4 1 4 1v1l-4 1-1 5v5l-9 1-1-4h-5l-1-3 4-3z"/>
		<path id="Path 91" class="s22" d="m604 403v-4h4v5z"/>
		<path id="Path 92" class="s31" d="m621 405l8-6 1 7-5 3h-4z"/>
		<path id="Path 93" class="s55" d="m651 401v-2h4l1 4-3 1h-1z"/>
		<path id="Path 94" class="s0" d="m674 400v-1l8 3-5-1z"/>
		<path id="Path 95" class="s29" d="m335 403l2-3 2 1 1 3-2 1z"/>
		<path id="Path 96" class="s56" d="m395 402l2-2 4 3-6 3z"/>
		<path id="Path 97" class="s4" d="m462 401v-1h3v1z"/>
		<path id="Path 98" class="s5" d="m465 401v-1l2 2z"/>
		<path id="Path 99" class="s57" d="m540 403l3-3 8 1 2 4h4v6h-6l-2-4h-6z"/>
		<path id="Path 100" class="s32" d="m671 404v-4h3l3 1v4h-2z"/>
		<path id="Path 101" class="s42" d="m403 403l12-1v4l-5 2h-5z"/>
		<path id="Path 102" class="s22" d="m460 405l2-4h3l2 1 4 2 6 3v3h-2l-10-4z"/>
		<path id="Path 103" class="s36" d="m585 405l7-4h3v7l-4 3h-4z"/>
		<path id="Path 104" class="s36" d="m652 404l-6 1 1-4h4z"/>
		<path id="Path 105" class="s27" d="m677 405v-4l5 1 7 2 2 2-2 2-6 1z"/>
		<path id="Path 106" class="s53" d="m328 407l5-5v1l-5 5z"/>
		<path id="Path 107" class="s51" d="m388 406l7-4v4l-1 3z"/>
		<path id="Path 108" class="s58" d="m571 412v-10h2 9l3 3 2 6h4l1 3-2 5-8 2-4-3-5-3z"/>
		<path id="Path 109" class="s59" d="m328 408l5-5h2l3 2v6 2l-9-1-2-3z"/>
		<path id="Path 110" class="s60" d="m340 404l3-1h2v8h-7v-6z"/>
		<path id="Path 111" class="s61" d="m345 411v-8h4l5 4 1 6z"/>
		<path id="Path 112" class="s62" d="m395 406l6-3h2l2 5-1 6h-5l-5-5z"/>
		<path id="Path 113" class="s23" d="m427 405v-2h2 4l2 2v3l-6-1z"/>
		<path id="Path 114" class="s7" d="m493 404l4-1 2 7h-2l-7-3 2-3z"/>
		<path id="Path 115" class="s58" d="m535 404l5-1 3 4v6h-6l-3-2z"/>
		<path id="Path 116" class="s24" d="m484 409l8-5-2 3-4 2z"/>
		<path id="Path 117" class="s63" d="m557 405l2-1h5l2 7 5 1 2 3-1 5 4 1-4 10h-5v-3h-6l-4-3v-14z"/>
		<path id="Path 118" class="s11" d="m612 405l5-1 4 1v4l-2 8h-4l-3-6 2-2-2-3z"/>
		<path id="Path 119" class="s55" d="m664 405l7-1 4 1-1 5-3 1h-11z"/>
		<path id="Path 120" class="s13" d="m691 406l-2-2 15 5h-1z"/>
		<path id="Path 121" class="s60" d="m354 407l5-2 7 2 3 3h15l3 4h12 5l7 1h4v4l-2 28-12-3-2-7-6 1-24-12v-7l-4-4h-6l-4-2z"/>
		<path id="Path 122" class="s56" d="m418 406l9-1 2 2 1 7v5l-5 2-10-2v-4l3-1z"/>
		<path id="Path 123" class="s64" d="m435 408v-3h6v7h-4z"/>
		<path id="Path 124" class="s61" d="m443 412l5-7 8 1 4 9-11 1-6-1z"/>
		<path id="Path 125" class="s59" d="m456 406v-1h4l5 1 1 7-3 2h-3z"/>
		<path id="Path 126" class="s22" d="m674 410l1-5h2l6 4v2h-2l-5 2z"/>
		<path id="Path 127" class="s35" d="m384 407l4-1 6 3 5 5h-12l-3-4z"/>
		<path id="Path 128" class="s64" d="m410 408l5-2h3v8l-3 1h-4z"/>
		<path id="Path 129" class="s36" d="m466 413l-1-7 10 4v3z"/>
		<path id="Path 130" class="s29" d="m607 412l1-5 4-1 2 3-2 2z"/>
		<path id="Path 131" class="s15" d="m625 409l5-3h3v9h-2-5z"/>
		<path id="Path 132" class="s31" d="m689 408l2-2 12 3 3 4v3l-4 7h-5l-1-2-1-4h-4l-2-4z"/>
		<path id="Path 133" class="s24" d="m298 409l8-2v2z"/>
		<path id="Path 134" class="s12" d="m306 409v-2h6v2z"/>
		<path id="Path 135" class="s38" d="m312 409v-2h7l-1 2z"/>
		<path id="Path 136" class="s46" d="m318 409l1-2h9v1l-1 1z"/>
		<path id="Path 137" class="s65" d="m430 414l-1-7 6 1 2 4h4 2v3h-6-4z"/>
		<path id="Path 138" class="s53" d="m477 410v-3l7 2h2l-1 2z"/>
		<path id="Path 139" class="s25" d="m486 409l4-2 7 3v7l-1 5h-8l-3-4v-7z"/>
		<path id="Path 140" class="s36" d="m519 408l2-1h5l3 5-4 7 4 2v6l-1 2-9-1-2-11z"/>
		<path id="Path 141" class="s22" d="m543 413v-6h6l2 4-3 3z"/>
		<path id="Path 142" class="s66" d="m404 414l1-6h5l1 7z"/>
		<path id="Path 143" class="s63" d="m510 411l4-3h5l-2 9h-7z"/>
		<path id="Path 144" class="s45" d="m683 409l6-1v5h-2l-4-2z"/>
		<path id="Path 145" class="s67" d="m283 411l12-2h3 8 6 6 9l2 3-8 9h-6l-3-4-41 2-7-1 17-7h1z"/>
		<path id="Path 146" class="s37" d="m619 417l2-8h4l1 6h5l1 9-7 1-6-2z"/>
		<path id="Path 147" class="s24" d="m706 413l-3-4h1l3 3v1z"/>
		<path id="Path 148" class="s4" d="m275 411h7-1z"/>
		<path id="Path 149" class="s34" d="m475 413v-3h2l8 1v7h-2z"/>
		<path id="Path 150" class="s48" d="m497 417v-7h2l4 1v6z"/>
		<path id="Path 151" class="s32" d="m671 411l3-1 2 3-1 4h8v4l-12 3z"/>
		<path id="Path 152" class="s38" d="m252 420l23-9h6l-17 7h-2l-14 6v-1l1-1z"/>
		<path id="Path 153" class="s68" d="m338 413v-2h7l10 2 4 2v10h-10z"/>
		<path id="Path 154" class="s69" d="m503 417v-6h7v6l-3 4h-3z"/>
		<path id="Path 155" class="s57" d="m529 412l5-1 3 2v6 2h-8l-4-2z"/>
		<path id="Path 156" class="s70" d="m543 413l5 1 3-3h6v14l4 3v6l-3 1h-2l-22-4-1-4 4-6v-2h4z"/>
		<path id="Path 157" class="s37" d="m607 412l5-1 3 6-2 1-6-1z"/>
		<path id="Path 158" class="s25" d="m676 413l5-2 3 4-1 2h-8z"/>
		<path id="Path 159" class="s30" d="m684 415l-3-4h2l4 2z"/>
		<path id="Path 160" class="s60" d="m315 421h6l8-9 9 1 11 12 2 10h6l3 5 7 3v8h-4-10l-14-3-8-1-8-2-8-11z"/>
		<path id="Path 161" class="s6" d="m707 413v-1l10 1h-4z"/>
		<path id="Path 162" class="s68" d="m463 415l3-2h9l8 5-3 3-11-4-2 6 6 2v6l6 2 1 19-1 2-10-1-4-6h-6l-6-8v-16h8z"/>
		<path id="Path 163" class="s71" d="m537 419v-6h6l-2 6z"/>
		<path id="Path 164" class="s22" d="m684 415l3-2h2l2 4-2 3-3 1h-3v-4z"/>
		<path id="Path 165" class="s9" d="m706 416v-3h1 6l1 3z"/>
		<path id="Path 166" class="s21" d="m714 416l-1-3h4l7 6h-2z"/>
		<path id="Path 167" class="s72" d="m430 419v-5l3 1v4z"/>
		<path id="Path 168" class="s51" d="m590 419l2-5h5l1 4-3 3z"/>
		<path id="Path 169" class="s23" d="m640 415l8-1 2 3-9 4z"/>
		<path id="Path 170" class="s61" d="m359 425v-10h6l4 4v7h-1z"/>
		<path id="Path 171" class="s73" d="m433 419v-4h4v4z"/>
		<path id="Path 172" class="s66" d="m437 419v-4h6l6 1v5z"/>
		<path id="Path 173" class="s74" d="m449 416l11-1h3l-2 8h-8l-4-2z"/>
		<path id="Path 174" class="s56" d="m576 421l-4-1 1-5 5 3z"/>
		<path id="Path 175" class="s58" d="m632 424l-1-9h2 7l1 6 9-4h3l2 4v4l8 4 3 8-3 3h-5l-3-6-10-2-2-3h-8z"/>
		<path id="Path 176" class="s11" d="m702 423l4-7h8l8 3v2l-2 2-10 2h-5z"/>
		<path id="Path 177" class="s75" d="m271 419l41-2 3 4v13l8 11v1l-12 3-10 2-5-4-5-9-18-5z"/>
		<path id="Path 178" class="s40" d="m473 425l-6-2 2-6 11 4v2z"/>
		<path id="Path 179" class="s34" d="m496 422l1-5h6l1 4-4 4z"/>
		<path id="Path 180" class="s66" d="m507 421l3-4h7l2 11h-4l-8-1z"/>
		<path id="Path 181" class="s76" d="m598 418l9-1 4 10-4 1v11l-2 4h-2-6l-12-2-9-3-3-1-1-6 4-10 2-3 4 3 8-2 5 2z"/>
		<path id="Path 182" class="s33" d="m611 427l-4-10 6 1 2 5v4z"/>
		<path id="Path 183" class="s19" d="m613 418l2-1h4v6h-4z"/>
		<path id="Path 184" class="s64" d="m689 420l2-3h4l1 4h-2z"/>
		<path id="Path 185" class="s24" d="m884 419l15-2v2h-13z"/>
		<path id="Path 186" class="s77" d="m248 424l14-6-12 10-2-3z"/>
		<path id="Path 187" class="s60" d="m250 428l12-10h2l7 1 2 14 18 5 5 9-11-1-2-3-15 2 3 7 8 1v12h-8l-4-4v-9l-9-2-8-11h-9v-7h2l6-1z"/>
		<path id="Path 188" class="s72" d="m480 421l3-3h2l3 4-7 3-1-2z"/>
		<path id="Path 189" class="s78" d="m413 447l2-28 10 2v8l-3 25h-2l-4-1z"/>
		<path id="Path 190" class="s61" d="m425 421l5-2h3 4l12 2 4 2v16l-5 3-9-1v-6l-5-6h-9z"/>
		<path id="Path 191" class="s53" d="m722 421v-2h2 1v2z"/>
		<path id="Path 192" class="s27" d="m725 421v-2h2l5 3 4 2 1 1 2 2 3 1 3 1 7 4 2 1 3 1 7 4 5 3 2 2 1 3-5-4h-13l-1-6-11 2h-7l-2-5v-5z"/>
		<path id="Path 193" class="s4" d="m871 420l7-1-7 2z"/>
		<path id="Path 194" class="s9" d="m871 421l7-2h6 2v2l-5 2-2 13-1 3h-8l-5-12 4-6z"/>
		<path id="Path 195" class="s3" d="m886 421v-2h13l3 1 3 2 8 7-4 1-6-5-6 1-8-2z"/>
		<path id="Path 196" class="s43" d="m655 421l9-1 2 6h5l5 6v4l-5 2-5-1-3-8-8-4z"/>
		<path id="Path 197" class="s56" d="m686 421l3-1 5 1-1 3-7 2z"/>
		<path id="Path 198" class="s0" d="m865 421l6-1v1h-2-3z"/>
		<path id="Path 199" class="s0" d="m905 422l-3-2 4 2z"/>
		<path id="Path 200" class="s73" d="m500 425l4-4h3v6h-2z"/>
		<path id="Path 201" class="s59" d="m529 427v-6h8l-4 6z"/>
		<path id="Path 202" class="s44" d="m671 424l12-3h3v5 3l-10 3-5-6z"/>
		<path id="Path 203" class="s48" d="m686 426l7-2 1-3h2l1 2v4l-2 1-7 2-2-1z"/>
		<path id="Path 204" class="s41" d="m720 423l2-2h3l8 8v5h-2l-1-3h-5-4l-1-5z"/>
		<path id="Path 205" class="s5" d="m858 424l7-3h1z"/>
		<path id="Path 206" class="s31" d="m858 424l8-3h3l-4 6-6 2h-2v-4z"/>
		<path id="Path 207" class="s34" d="m879 436l2-13 5-2 3 3v13l-6 3z"/>
		<path id="Path 208" class="s6" d="m246 424l3-2-1 1z"/>
		<path id="Path 209" class="s52" d="m481 425l7-3h8l4 3 5 2 2 8 8-2 3 4 13 2 2 5h13l-4 9 2 12-4 4 9 4v5l-7 6h-4l-2-4h-5v-6l-4-3-2-6h-6l-6-4h-11-8l-1-4v-16l-8-9h-4z"/>
		<path id="Path 210" class="s24" d="m913 429l-8-7h1l8 3 4 7v2z"/>
		<path id="Path 211" class="s79" d="m246 424l2-1v1 1l-5 1-4 1-5 1h-4v-1z"/>
		<path id="Path 212" class="s78" d="m473 425l7-2 1 2v7l-2 1-6-2z"/>
		<path id="Path 213" class="s47" d="m615 427v-4h4l6 2v4l-10 1z"/>
		<path id="Path 214" class="s26" d="m697 427v-4h5l3 2v6h-2-4z"/>
		<path id="Path 215" class="s51" d="m710 425l10-2v3l-9 1z"/>
		<path id="Path 216" class="s80" d="m625 425l7-1 3 5v2l-10-2z"/>
		<path id="Path 217" class="s13" d="m848 427l10-3-1 1-5 2h-3z"/>
		<path id="Path 218" class="s18" d="m889 437v-13l8 2 2 5v6l-6 3h-2z"/>
		<path id="Path 219" class="s64" d="m897 426l6-1-4 6z"/>
		<path id="Path 220" class="s75" d="m243 426l5-1 2 3-1 3-6 1z"/>
		<path id="Path 221" class="s78" d="m367 443l-7-3-3-5h-6l-2-10h10l9 1 3 17z"/>
		<path id="Path 222" class="s44" d="m705 431v-6h5l1 2-2 4z"/>
		<path id="Path 223" class="s14" d="m852 427l5-2v4l-3 1z"/>
		<path id="Path 224" class="s44" d="m899 431l4-6 6 5v3l-9 4h-1z"/>
		<path id="Path 225" class="s77" d="m239 427l4-1v6h-2l-2-4z"/>
		<path id="Path 226" class="s75" d="m371 443l-3-17h1l24 12v5l-12 2z"/>
		<path id="Path 227" class="s50" d="m711 427l9-1 1 5-4 4h-8v-4z"/>
		<path id="Path 228" class="s24" d="m224 429l6-2v1l-5 1z"/>
		<path id="Path 229" class="s48" d="m234 428l5-1v1z"/>
		<path id="Path 230" class="s20" d="m515 433l-8 2-2-8h2l8 1z"/>
		<path id="Path 231" class="s81" d="m528 429l1-2h4l1 4-3 1z"/>
		<path id="Path 232" class="s63" d="m607 439v-11l4-1h4v3l2 11-2 4h-4v-5z"/>
		<path id="Path 233" class="s36" d="m695 428l2-1 2 4h-1z"/>
		<path id="Path 234" class="s22" d="m843 429l5-2h1v2l-5 2-1-1z"/>
		<path id="Path 235" class="s18" d="m849 429v-2h3l2 3 3-1h2v5 3h-8v-2z"/>
		<path id="Path 236" class="s43" d="m859 429l6-2 5 12v8h-6l-3-8 3-4-5-1z"/>
		<path id="Path 237" class="s48" d="m225 429l5-1h4l-9 2z"/>
		<path id="Path 238" class="s67" d="m225 430l9-2h5l2 4v7l-2 8-8 5v6l6 5v4 6l-11 2-3-8h-10l-4-9-8-6v-5-4l5-6h3l3-6h1z"/>
		<path id="Path 239" class="s82" d="m515 433v-5h4l9 1 3 3v7l-13-2z"/>
		<path id="Path 240" class="s74" d="m558 435l3-1v-6h6v3l-2 4 2 1-8 2z"/>
		<path id="Path 241" class="s43" d="m688 430l7-2 3 3-3 4h-6z"/>
		<path id="Path 242" class="s46" d="m213 430l11-1h1v1l-12 1z"/>
		<path id="Path 243" class="s60" d="m422 454l3-25h9l5 6v6l-4 1v13l-2 6-4 1-5-4z"/>
		<path id="Path 244" class="s62" d="m615 430l10-1 10 2 5 6v6h-8l-1-4-6 1-8 1z"/>
		<path id="Path 245" class="s71" d="m635 431v-2h8l2 3-1 4-4 1z"/>
		<path id="Path 246" class="s25" d="m676 432l10-3 2 1 1 5 2 6 2 7v3h-4l-7-5-3-4v-5l-3-1z"/>
		<path id="Path 247" class="s5" d="m752 433l-7-4 7 3z"/>
		<path id="Path 248" class="s6" d="m833 432l10-3v1l-4 1-4 2h-2z"/>
		<path id="Path 249" class="s80" d="m844 431l5-2 2 6h-6l-1-1z"/>
		<path id="Path 250" class="s9" d="m909 430l4-1 5 5 1 9h-3v-5l-7-5z"/>
		<path id="Path 251" class="s6" d="m199 432l5-2v1z"/>
		<path id="Path 252" class="s83" d="m204 431v-1h9v1h-1-2z"/>
		<path id="Path 253" class="s9" d="m839 431l4-1 1 1v3l-5-1z"/>
		<path id="Path 254" class="s47" d="m199 432l5-1h6l-5 2-8 2-4-1 4-2z"/>
		<path id="Path 255" class="s77" d="m205 433l5-2h2l-3 6h-3z"/>
		<path id="Path 256" class="s61" d="m531 432l3-1 22 4v4l3 1v16l-6 1-3-4h-8l4-9h-13l-2-5z"/>
		<path id="Path 257" class="s70" d="m567 436l-2-1 2-4h5l1 6z"/>
		<path id="Path 258" class="s48" d="m695 435l3-4h1 4l1 4-4 4 1 6-1 2h-3l-2-6z"/>
		<path id="Path 259" class="s54" d="m704 435l-1-4h2 4v4l-1 1z"/>
		<path id="Path 260" class="s36" d="m717 435l4-4h4l1 4-1 1z"/>
		<path id="Path 261" class="s56" d="m726 435l-1-4h5l1 3z"/>
		<path id="Path 262" class="s84" d="m835 433l4-2v2z"/>
		<path id="Path 263" class="s6" d="m191 434l6-2-4 2z"/>
		<path id="Path 264" class="s85" d="m479 433l2-1h4l8 9v16h-4l-2-5h-7z"/>
		<path id="Path 265" class="s86" d="m640 437l4-1 1-4 10 2 3 6h5l8 8v7h-4l-20-2-6-3-1-7z"/>
		<path id="Path 266" class="s2" d="m752 433v-1l2 2z"/>
		<path id="Path 267" class="s2" d="m831 434l2-2v1z"/>
		<path id="Path 268" class="s13" d="m918 434v-2l3 11h-1-1z"/>
		<path id="Path 269" class="s85" d="m197 435l8-2 1 4-5 6h-4z"/>
		<path id="Path 270" class="s19" d="m831 434l2-1h2 4l5 1 1 1 1 14v10l-3 1-8-10h-8v-7l1-5h-3v-1l4-3z"/>
		<path id="Path 271" class="s17" d="m900 437l9-4 7 5v5l-3 4h-6l-1-4h-4z"/>
		<path id="Path 272" class="s11" d="m181 435l9-1-11 4h-4v-1z"/>
		<path id="Path 273" class="s67" d="m179 438l11-4h1 2l4 1v8 4l-12 4h-4z"/>
		<path id="Path 274" class="s54" d="m726 435l5-1h2l2 5h7v3l4 1-3 5-9 1-4-1-1-7-4-1v-4z"/>
		<path id="Path 275" class="s2" d="m823 437l6-3-4 3z"/>
		<path id="Path 276" class="s28" d="m859 437v-3l5 1-3 4z"/>
		<path id="Path 277" class="s13" d="m174 437l7-2-6 2z"/>
		<path id="Path 278" class="s87" d="m559 440l-3-1v-4h2l1 3z"/>
		<path id="Path 279" class="s63" d="m691 441l-2-6h6v6z"/>
		<path id="Path 280" class="s80" d="m701 445l-1-6 4-4 4 1 3 10z"/>
		<path id="Path 281" class="s9" d="m708 436l1-1h8l8 1v4l-4 3v8l-2 1h-7l-1-6z"/>
		<path id="Path 282" class="s45" d="m846 449l-1-14h6v2l2 12z"/>
		<path id="Path 283" class="s60" d="m559 438l8-2 6 1 3 1-3 8 2 15-1 8-10-3-1-9-4-1v-16z"/>
		<path id="Path 284" class="s29" d="m671 438l5-2 3 1v5h-7z"/>
		<path id="Path 285" class="s76" d="m878 439l1-3 4 4-2 1z"/>
		<path id="Path 286" class="s12" d="m168 439l6-2h1v1l-6 2z"/>
		<path id="Path 287" class="s78" d="m393 438l6-1 2 7-8-1z"/>
		<path id="Path 288" class="s23" d="m663 440l3-3 5 1 1 4h7l3 4 1 11h-8l-4-2v-7z"/>
		<path id="Path 289" class="s36" d="m742 439l11-2 1 6 1 7 3 1-2 15-11 1-2-19 3-5-4-1z"/>
		<path id="Path 290" class="s44" d="m818 439l5-2h2v1l-3 3-5 4h-8-1v-1z"/>
		<path id="Path 291" class="s44" d="m853 449l-2-12h8l2 2 3 8h6v-8h8l3 2v4l-6 3 1 7-7 4-3-7-7 1z"/>
		<path id="Path 292" class="s22" d="m883 440l6-3 2 3-3 7h-5l-2-2v-4z"/>
		<path id="Path 293" class="s56" d="m893 440l6-3h1l2 6 1 4h4v8l5 4 1 5-3 2v11l3 2v3l-3 1 1 10-1 2-12-5 1-9-3-6 6-9-7-7-1-11z"/>
		<path id="Path 294" class="s75" d="m169 440l6-2h4l2 13-6 4-6-2z"/>
		<path id="Path 295" class="s61" d="m575 461l-2-15 3-8 9 3 2 8h10v5l-4 1-2 8h-1l-4-1-2-3z"/>
		<path id="Path 296" class="s30" d="m822 441l3-3h3l-1 5z"/>
		<path id="Path 297" class="s6" d="m158 442l9-3-9 4z"/>
		<path id="Path 298" class="s85" d="m158 443l9-4h1l1 1v13 6 1l-12-1-5-8-6-1 8-6z"/>
		<path id="Path 299" class="s75" d="m237 467v-4l-6-5v-6l8-5 2-8h9l8 11-3 2 2 15v5l-9 1-4-6z"/>
		<path id="Path 300" class="s52" d="m448 442l5-3 6 8 2 10 2 11-6 3h-4l-4-16z"/>
		<path id="Path 301" class="s81" d="m605 443l2-4 4 1v5z"/>
		<path id="Path 302" class="s65" d="m625 440l6-1 1 4h-5z"/>
		<path id="Path 303" class="s6" d="m808 444l3-4 7-1z"/>
		<path id="Path 304" class="s66" d="m617 441l8-1 2 3v4h-6l-6-2z"/>
		<path id="Path 305" class="s48" d="m721 451v-8l4-3 4 1 1 7v3h-7z"/>
		<path id="Path 306" class="s45" d="m888 447l3-7h2l1 8-3 1z"/>
		<path id="Path 307" class="s75" d="m435 455v-13l4-1 9 1 1 13z"/>
		<path id="Path 308" class="s35" d="m597 449h-10l-2-8 12 2z"/>
		<path id="Path 309" class="s69" d="m693 448l-2-7h4l2 6z"/>
		<path id="Path 310" class="s45" d="m817 445l5-4 5 2v7h-4l-2 5-6-1z"/>
		<path id="Path 311" class="s4" d="m154 444l4-2v1z"/>
		<path id="Path 312" class="s78" d="m197 447v-4h4v4z"/>
		<path id="Path 313" class="s88" d="m279 453l-8-1-3-7 15-2 2 3z"/>
		<path id="Path 314" class="s61" d="m367 451v-8h4l10 2 12-2 8 1 12 3 3 6-9 1h-14-3-3l-4-1z"/>
		<path id="Path 315" class="s82" d="m597 449v-6h6v9l6 9-1 2-2 1-5-1v-7l-4-2z"/>
		<path id="Path 316" class="s89" d="m609 461l-6-9v-9h2l6 2h4l6 2v15l-1 1z"/>
		<path id="Path 317" class="s47" d="m627 447v-4h5 8l1 7-10-1z"/>
		<path id="Path 318" class="s41" d="m756 466l2-15-3-1-1-7h13l5 4 1 12 4 2 1-2 8-3-1 2-7 5-7 2z"/>
		<path id="Path 319" class="s60" d="m907 447h-4l-1-4h4z"/>
		<path id="Path 320" class="s11" d="m913 447l3-4h3 1v3l1 7h-4z"/>
		<path id="Path 321" class="s2" d="m920 446v-3h1l1 3z"/>
		<path id="Path 322" class="s53" d="m146 447l5-3h3l-8 6-4 1v-2z"/>
		<path id="Path 323" class="s6" d="m799 449l2-4 7-1v1l-7 4z"/>
		<path id="Path 324" class="s30" d="m809 445h8l-2 9h-1l-6-5z"/>
		<path id="Path 325" class="s88" d="m323 446v-1l8 2v6h-6z"/>
		<path id="Path 326" class="s36" d="m700 447l1-2 10 1 1 6h7v11h-6l-3-6h-7z"/>
		<path id="Path 327" class="s69" d="m801 449l7-4h1l-1 4h-4z"/>
		<path id="Path 328" class="s36" d="m876 455l-1-7 6-3 2 2v4h8v8l-2 4-7 1z"/>
		<path id="Path 329" class="s90" d="m279 453l6-7 11 1 5 4v12 6 9h-6l-4-9h-6l-6-4z"/>
		<path id="Path 330" class="s74" d="m311 449l12-3 2 7v6l2 8-2 6-4 1-6-3v-6l-4-2z"/>
		<path id="Path 331" class="s65" d="m683 457l-1-11 7 5v6l-3 3h-3z"/>
		<path id="Path 332" class="s39" d="m921 453l-1-7h2v8z"/>
		<path id="Path 333" class="s75" d="m185 451l12-4h4v5l8 6 4 9v14l3 2-2 3h-6l-1-3-14 2-2-5-11-1-1-4v-6l3-1v-5z"/>
		<path id="Path 334" class="s91" d="m331 453v-6l8 1v7h-8z"/>
		<path id="Path 335" class="s60" d="m461 457l-2-10h6l4 6v3z"/>
		<path id="Path 336" class="s52" d="m621 462v-15h6l4 2v6l2 6h4l5 6-14 1h-3v-5z"/>
		<path id="Path 337" class="s76" d="m693 448l4-1h3l3 10-7-1-3-5z"/>
		<path id="Path 338" class="s21" d="m773 459l-1-12 4 5-1 7z"/>
		<path id="Path 339" class="s69" d="m891 451h-8v-4h5l3 2z"/>
		<path id="Path 340" class="s72" d="m912 459l-5-4v-8h6l4 6z"/>
		<path id="Path 341" class="s88" d="m339 455v-7l14 3 2 6v9h-5l-3-6h-8z"/>
		<path id="Path 342" class="s47" d="m730 451v-3l4 1-2 4z"/>
		<path id="Path 343" class="s25" d="m734 449l9-1 2 19v1l-8-3-1-6-4-6z"/>
		<path id="Path 344" class="s23" d="m891 449l3-1 1 11h-4v-8z"/>
		<path id="Path 345" class="s5" d="m133 457l9-8v2l-1 1z"/>
		<path id="Path 346" class="s35" d="m301 451l10-2v14h-2-8z"/>
		<path id="Path 347" class="s85" d="m631 455v-6l10 1 6 3v5l-10-1z"/>
		<path id="Path 348" class="s6" d="m788 454l3-4 7-1-8 5z"/>
		<path id="Path 349" class="s86" d="m790 454l8-5h1 2l-2 6h-7z"/>
		<path id="Path 350" class="s29" d="m799 455l2-6h3v8l-1 3-4-1z"/>
		<path id="Path 351" class="s49" d="m804 457v-8h4l6 5-2 3z"/>
		<path id="Path 352" class="s34" d="m846 459v-10h7l6 4v12l-6 2z"/>
		<path id="Path 353" class="s75" d="m142 451l4-1 6 1 5 8-5 6h-10l-1 4h-4v4l6 5v3l-2 14 4 1v5l-6 4 2 8-2 2-11-2-1-4-10-7v-12l6-7v-6l-8-5 13-7 13-13z"/>
		<path id="Path 354" class="s74" d="m257 467l-2-15 3-2 9 2v9l4 4-6 6z"/>
		<path id="Path 355" class="s41" d="m821 455l2-5h4 8l8 10-2 7-11 2h-5z"/>
		<path id="Path 356" class="s85" d="m175 455l6-4h4l-3 12h-6l-1-4z"/>
		<path id="Path 357" class="s73" d="m355 457l-2-6h10v6z"/>
		<path id="Path 358" class="s81" d="m363 457v-6h4l16 2v10l-4 1v6h-2l-10 2-2-1z"/>
		<path id="Path 359" class="s82" d="m689 457v-6h4l3 5-4 3z"/>
		<path id="Path 360" class="s40" d="m719 452l2-1h2l4 8v8h-2-6v-4z"/>
		<path id="Path 361" class="s56" d="m727 459l-4-8h7l2 2 4 6z"/>
		<path id="Path 362" class="s47" d="m133 457l8-5-13 13-13 7-13 9v-2l8-8 4-2 7-4 10-6z"/>
		<path id="Path 363" class="s60" d="m479 454l1-2h7l2 5-6 1z"/>
		<path id="Path 364" class="s0" d="m775 459l1-7v7z"/>
		<path id="Path 365" class="s40" d="m859 453l7-1 3 7 4 11-7 3-3-1v-5l-4-2z"/>
		<path id="Path 366" class="s91" d="m169 459v-6l6 2v4z"/>
		<path id="Path 367" class="s78" d="m325 459v-6h6v2 4z"/>
		<path id="Path 368" class="s90" d="m383 463v-10l4 1v7l-1 2z"/>
		<path id="Path 369" class="s90" d="m393 454h14v8l-2 3-7 3-3-1z"/>
		<path id="Path 370" class="s35" d="m407 454l9-1 4 1v4l-3 6-10-2z"/>
		<path id="Path 371" class="s20" d="m469 456v-3l10 1 4 4v14 5l-4 1-6-7v-13z"/>
		<path id="Path 372" class="s92" d="m544 465l-2-12h8l3 4-1 10z"/>
		<path id="Path 373" class="s65" d="m647 458v-5l20 2 3 9-5 6-3-2-1-2-8 2-8-1z"/>
		<path id="Path 374" class="s69" d="m912 459l5-6h4l1 1v1l2 12v2h-2l-5-3-4-2z"/>
		<path id="Path 375" class="s91" d="m387 461v-7h3v7z"/>
		<path id="Path 376" class="s66" d="m390 461v-7h3l2 13h-3z"/>
		<path id="Path 377" class="s52" d="m420 458v-4h2l2 4z"/>
		<path id="Path 378" class="s56" d="m591 463l2-8 4-1 4 2v7h-8z"/>
		<path id="Path 379" class="s6" d="m778 459l3-4 7-1-2 2z"/>
		<path id="Path 380" class="s51" d="m786 456l2-2h2l2 1 2 12 5 4v6l-3 2-5-2v-4l-6-5v-10z"/>
		<path id="Path 381" class="s55" d="m812 457l2-3h1l6 1 4 14-2 1h-5l-8-7z"/>
		<path id="Path 382" class="s67" d="m331 459v-4h8v5l-2 3h-6z"/>
		<path id="Path 383" class="s35" d="m433 461l2-6h14l4 16-13-2-2-6z"/>
		<path id="Path 384" class="s61" d="m637 461h-4l-2-6 6 2z"/>
		<path id="Path 385" class="s92" d="m670 464l-3-9h4l4 2v7z"/>
		<path id="Path 386" class="s71" d="m799 471l-5-4-2-12h7v4l4 1v3l2 8z"/>
		<path id="Path 387" class="s34" d="m869 459l7-4 6 9 4 6h4l2 5h4l3 6-1 9-5 3h-12l-6-1-4-1v-8l-5-6v-4l7-3z"/>
		<path id="Path 388" class="s91" d="m461 457l8-1 4 2v13h-5l-5-3z"/>
		<path id="Path 389" class="s59" d="m553 457l6-1 4 1 1 9-11 1h-1z"/>
		<path id="Path 390" class="s35" d="m692 459l4-3 7 1v9l-5 1-6-4z"/>
		<path id="Path 391" class="s47" d="m355 466v-9h8l2 14-8-1z"/>
		<path id="Path 392" class="s59" d="m483 458l6-1h4l1 4 2 5h5v9l-1 3h-6l-7-3-4-3z"/>
		<path id="Path 393" class="s87" d="m637 461v-4l10 1-2 9h-3z"/>
		<path id="Path 394" class="s75" d="m675 464v-7h8v3 7l4 6h-3l-5-1-1-7z"/>
		<path id="Path 395" class="s90" d="m686 460l3-3 3 2v4z"/>
		<path id="Path 396" class="s33" d="m703 466v-9h7l3 6-1 4h-7z"/>
		<path id="Path 397" class="s15" d="m803 460l1-3h8l-2 6h-7z"/>
		<path id="Path 398" class="s90" d="m417 464l3-6h4l5 4v4l-3 4-3 1-5-2z"/>
		<path id="Path 399" class="s40" d="m778 463l7-5v10l6 5v4h-4-4-1l-4-5z"/>
		<path id="Path 400" class="s1" d="m119 465l12-6-10 6z"/>
		<path id="Path 401" class="s77" d="m152 465l5-6 12 1v7 2l-17-1z"/>
		<path id="Path 402" class="s90" d="m169 460v-1h6l1 4v4h-7z"/>
		<path id="Path 403" class="s75" d="m327 467l-2-8h6v4l-1 4z"/>
		<path id="Path 404" class="s59" d="m575 461l9-2 2 3-1 8-3 2-8-3z"/>
		<path id="Path 405" class="s76" d="m727 467v-8h9l1 6-8 2z"/>
		<path id="Path 406" class="s93" d="m778 459l-1 2-4-2h2 1z"/>
		<path id="Path 407" class="s40" d="m843 460l3-1 7 8 2 4v6l-10-3-4-7z"/>
		<path id="Path 408" class="s94" d="m889 463l2-4h4l7 7-6 9h-4l-2-5z"/>
		<path id="Path 409" class="s77" d="m331 463h6l2-3h8l3 6-1 2-13 3-6-4z"/>
		<path id="Path 410" class="s87" d="m687 473l-4-6v-7h3l6 3 6 4-2 9z"/>
		<path id="Path 411" class="s23" d="m386 463l1-2h3l2 6-1 2-5-1z"/>
		<path id="Path 412" class="s74" d="m429 462l4-1 5 2 2 6-4 3-1 1-4 2v-4l-2-5z"/>
		<path id="Path 413" class="s47" d="m435 472h1v1h-1z"/>
		<path id="Path 414" class="s40" d="m501 466h-5l-2-5h8z"/>
		<path id="Path 415" class="s36" d="m501 466l1-5h11v8l-3 4-4 4-5-2z"/>
		<path id="Path 416" class="s86" d="m513 469v-8l6 4v6h-2z"/>
		<path id="Path 417" class="s40" d="m608 463l1-2 11 2 1 4-2 2h-8z"/>
		<path id="Path 418" class="s81" d="m405 465l2-3 10 2 1 5 5 2v3l-3 4 2 3-4 2-2-3h-6l-3-2-2-7z"/>
		<path id="Path 419" class="s51" d="m582 472l3-2 1-8 4 1-1 6v12h-4l-3-5z"/>
		<path id="Path 420" class="s56" d="m620 463l1-1 4 1v5h-2l-2-1z"/>
		<path id="Path 421" class="s67" d="m176 467v-4h6v5l-3 1z"/>
		<path id="Path 422" class="s77" d="m301 469v-6h8v6z"/>
		<path id="Path 423" class="s90" d="m309 469v-6h2l4 2v6l6 3v6l-1 4-7 1-4-1-2-5z"/>
		<path id="Path 424" class="s17" d="m379 470v-6l4-1h3v5l-3 2z"/>
		<path id="Path 425" class="s62" d="m589 469l1-6h1 2v6z"/>
		<path id="Path 426" class="s76" d="m593 469v-6h8l5 1v6l5 1 4 5 5-3 3-1 4 1 1-5 14-1h3l8 1v6h-3v7l-3 5h-6l-5 5v5l3 1v5l-4 3h-11l-7-5-3-9-7-1-2-7-10-3z"/>
		<path id="Path 427" class="s66" d="m606 464l2-1 3 6v2l-5-1z"/>
		<path id="Path 428" class="s76" d="m712 467l1-4h6v4l-1 1z"/>
		<path id="Path 429" class="s59" d="m771 465l7-2v9h-7z"/>
		<path id="Path 430" class="s26" d="m805 471l-2-8h7l8 7h5v7l-4 3-2 9h-10v-12z"/>
		<path id="Path 431" class="s56" d="m882 464l7-1 1 7h-4z"/>
		<path id="Path 432" class="s47" d="m665 470l5-6h5l3 1 1 7 5 1 1 12h-4l-12-1-4-9z"/>
		<path id="Path 433" class="s55" d="m913 479l-3-2v-11l3-2 4 2 3 8-2 5z"/>
		<path id="Path 434" class="s13" d="m114 469l5-4h2z"/>
		<path id="Path 435" class="s61" d="m141 469l1-4h10v3l-9 2z"/>
		<path id="Path 436" class="s76" d="m265 471l6-6h8l6 4-1 3h-5l4 17-8 4h-4l1-6-7-12z"/>
		<path id="Path 437" class="s47" d="m398 468l7-3v6h-4z"/>
		<path id="Path 438" class="s59" d="m519 471v-6h6l2 6h-6z"/>
		<path id="Path 439" class="s76" d="m549 473l-9-4 4-4 8 2h1l-1 6z"/>
		<path id="Path 440" class="s29" d="m729 467l8-2 8 3-1 7-8 3-7-4z"/>
		<path id="Path 441" class="s33" d="m756 466l15-1v7 5h-4l-4-5-6 1-10 4-3-2 1-7v-1z"/>
		<path id="Path 442" class="s94" d="m853 467l6-2 4 2v5l-2 1-6-2z"/>
		<path id="Path 443" class="s61" d="m349 468l1-2h5l2 4-1 2h-5z"/>
		<path id="Path 444" class="s47" d="m426 470l3-4 2 5z"/>
		<path id="Path 445" class="s62" d="m553 467l11-1 10 3 8 3v4l-2 4 5 2 12 11v10h-2-4l-2-4h-8l-3-4-4 1-4-3-15 2h-6l-2-7-5-4 7-6 3-1v-4z"/>
		<path id="Path 446" class="s48" d="m653 468l8-2 1 2-1 7-8-1z"/>
		<path id="Path 447" class="s92" d="m698 467l5-1 2 1v9 1l-9-1z"/>
		<path id="Path 448" class="s71" d="m920 474l-3-8 5 3z"/>
		<path id="Path 449" class="s85" d="m169 469v-2h7l3 2v6l-10-2z"/>
		<path id="Path 450" class="s78" d="m216 483l-3-2v-14h10l3 8-2 5z"/>
		<path id="Path 451" class="s74" d="m237 473v-6h7l4 6-5 6h-4z"/>
		<path id="Path 452" class="s64" d="m257 472v-5l8 4v4h-6z"/>
		<path id="Path 453" class="s47" d="m325 473l2-6h3l6 4v1l-10 2z"/>
		<path id="Path 454" class="s11" d="m391 469l1-2h3l3 1 3 3v6h-7l-3-2z"/>
		<path id="Path 455" class="s48" d="m619 469l2-2 2 1v4h-3z"/>
		<path id="Path 456" class="s61" d="m705 476v-9h7l6 1v9h-12z"/>
		<path id="Path 457" class="s90" d="m705 476h1v1h-1z"/>
		<path id="Path 458" class="s20" d="m718 468l1-1h6v8l-5 4h-2v-2z"/>
		<path id="Path 459" class="s56" d="m720 479l5-4v-8h2 2v7l7 4-1 4-5 3h-3z"/>
		<path id="Path 460" class="s34" d="m830 469l11-2 4 7 10 3 4 12-4 3v5l-4 1v5l-16-4-5-2-2-4 2-5 1-5h-4v-6z"/>
		<path id="Path 461" class="s6" d="m924 469v-2l3 11h-2z"/>
		<path id="Path 462" class="s87" d="m143 470l9-2 17 1v4l-20 9-6-1v-3z"/>
		<path id="Path 463" class="s82" d="m336 471l13-3 2 4-2 5-12 2-1-7z"/>
		<path id="Path 464" class="s25" d="m383 470l3-2 5 1v6l3 2-3 6h-6l-2-4z"/>
		<path id="Path 465" class="s88" d="m457 471l6-3 5 3v12h-9l-2-1z"/>
		<path id="Path 466" class="s35" d="m623 472v-4h2 3l-1 5z"/>
		<path id="Path 467" class="s76" d="m661 475l1-7 3 2v5z"/>
		<path id="Path 468" class="s5" d="m101 479l9-10v2l-8 8z"/>
		<path id="Path 469" class="s13" d="m110 471v-2h4z"/>
		<path id="Path 470" class="s78" d="m143 478l-6-5v-4h4l2 1z"/>
		<path id="Path 471" class="s71" d="m283 489l-4-17h5l1-3h6l4 9-2 8 10 5v2l-8 1-3-4h-7z"/>
		<path id="Path 472" class="s81" d="m301 478v-9h8l-2 10z"/>
		<path id="Path 473" class="s90" d="m436 472l4-3 13 2v11h-6l-2 3h-7l-7-3v-5-2l4-2z"/>
		<path id="Path 474" class="s75" d="m510 473l3-4 4 2-2 4z"/>
		<path id="Path 475" class="s64" d="m589 481v-12h4l2 11z"/>
		<path id="Path 476" class="s73" d="m611 471v-2h8l1 3v1l-5 3z"/>
		<path id="Path 477" class="s80" d="m823 470l2-1h5l-3 8h-4z"/>
		<path id="Path 478" class="s50" d="m920 474l2-5h2l1 9 2 6v1 2 1 1l-9-10z"/>
		<path id="Path 479" class="s30" d="m356 472l1-2 8 1 2 1 2 5v6h-10z"/>
		<path id="Path 480" class="s82" d="m367 472l10-2-2 6-6 1z"/>
		<path id="Path 481" class="s36" d="m375 476l2-6h2 4v9h-5z"/>
		<path id="Path 482" class="s91" d="m423 471l3-1 5 1v4 2h-6l-2-3z"/>
		<path id="Path 483" class="s76" d="m401 477v-6h4l2 7z"/>
		<path id="Path 484" class="s73" d="m453 482v-11h4v11z"/>
		<path id="Path 485" class="s70" d="m468 483v-12h5l6 7v5l-2 2h-8z"/>
		<path id="Path 486" class="s88" d="m515 475l2-4h2 2l7 9v3l-7 1h-4l-2-5z"/>
		<path id="Path 487" class="s75" d="m528 480l-7-9h6l4 3v6z"/>
		<path id="Path 488" class="s88" d="m799 477v-6h6l2 6z"/>
		<path id="Path 489" class="s80" d="m855 477v-6l6 2 1 4h4l5 6v8h-10l-2-2z"/>
		<path id="Path 490" class="s60" d="m102 481l13-9 8 5v6l-6 7v12l10 7 1 4v10l-6 2-6-1-1-9-11-16-5-2-2-9 2-3z"/>
		<path id="Path 491" class="s76" d="m248 473l9-1 2 3-2 14h-6l-2-4h-6v-6z"/>
		<path id="Path 492" class="s20" d="m326 474l10-2 1 7-4 2-8-2z"/>
		<path id="Path 493" class="s28" d="m337 479l12-2 2-5h5l3 11h10 8v3l-4 5v8l2 6 2 12v6l-5 3-9-1-2-6-2-6h-6l-4 1-8 1-5 5-3 3h-8l-3-6h-6l-1-12-2-17v-3l7-1 1-4 4-1 8 2z"/>
		<path id="Path 494" class="s57" d="m483 477v-5l4 3 2 11v4h-4l-2-7z"/>
		<path id="Path 495" class="s62" d="m620 473v-1h3z"/>
		<path id="Path 496" class="s48" d="m757 473l6-1 4 5-2 4h-6z"/>
		<path id="Path 497" class="s26" d="m771 477v-5h7l4 5z"/>
		<path id="Path 498" class="s8" d="m861 473l2-1 3 1v4h-4z"/>
		<path id="Path 499" class="s52" d="m149 482l20-9 10 2 1 4-2 10-3 1 1 15h-7l-6-4-3-6h-7-4z"/>
		<path id="Path 500" class="s35" d="m226 475l11-2 2 6v6 14l-1 8-9-5v-12l-4-2-1-8z"/>
		<path id="Path 501" class="s59" d="m321 474l4-1 1 1-1 5-4 1z"/>
		<path id="Path 502" class="s67" d="m506 477l4-4 5 2v4l-4 2-5-2z"/>
		<path id="Path 503" class="s75" d="m549 478v-5h3v4z"/>
		<path id="Path 504" class="s81" d="m685 485l-1-12h3l9 3 9 1 2 10v12h-5l-4-1-7-9h-6z"/>
		<path id="Path 505" class="s11" d="m747 477l10-4 2 8v14h-4v-4l-5-4-6 3h-3v-8h4z"/>
		<path id="Path 506" class="s57" d="m422 481l-2-3 3-4 2 3-1 4z"/>
		<path id="Path 507" class="s50" d="m650 481v-7h3l8 1v10h-9z"/>
		<path id="Path 508" class="s54" d="m257 489l2-14h6l7 12-1 6-5 2h-5l-4-2z"/>
		<path id="Path 509" class="s47" d="m489 486l-2-11 7 3-2 4 2 3z"/>
		<path id="Path 510" class="s11" d="m494 478h6l1-3 5 2v2l-5 8-7-2-2-3z"/>
		<path id="Path 511" class="s63" d="m661 485v-10h4l4 9-3 2z"/>
		<path id="Path 512" class="s86" d="m736 478l8-3 3 2-2 5h-4-6z"/>
		<path id="Path 513" class="s43" d="m369 477l6-1 3 3-1 4h-8z"/>
		<path id="Path 514" class="s57" d="m585 482l-5-2 2-4 3 5z"/>
		<path id="Path 515" class="s86" d="m391 483l3-6h7l6 1 3 2 2 14-2 1-2-4h-5l-1 7-4 1-2-4h-5v-6z"/>
		<path id="Path 516" class="s73" d="m424 481l1-4h6v5h-4z"/>
		<path id="Path 517" class="s86" d="m479 478l4-1v6h-4z"/>
		<path id="Path 518" class="s35" d="m707 487l-2-10h1 12v2l-2 8z"/>
		<path id="Path 519" class="s54" d="m759 481h6l2-4h4 11 1v6l-4 5-4 2v5l4 2v2l-11-1-2-3h-7z"/>
		<path id="Path 520" class="s86" d="m783 483v-6h4v6z"/>
		<path id="Path 521" class="s72" d="m787 483v-6h4l5 2-1 8h-8z"/>
		<path id="Path 522" class="s35" d="m796 479l3-2h8v12 2h-6l1 8h-1-4l-2-12z"/>
		<path id="Path 523" class="s64" d="m817 489l2-9 4-3h4v6l-2 4 5 1-2 5h-11z"/>
		<path id="Path 524" class="s82" d="m303 491l-10-5 2-8h6l6 1 2 5v4z"/>
		<path id="Path 525" class="s24" d="m927 484l-2-6h2z"/>
		<path id="Path 526" class="s38" d="m94 488l7-9h1v2l-3 4-2 3-2 1z"/>
		<path id="Path 527" class="s59" d="m178 489l2-10 11 1 2 5-2 8-2 2h-4z"/>
		<path id="Path 528" class="s90" d="m239 485v-6h4v6z"/>
		<path id="Path 529" class="s29" d="m377 483l1-4h5l2 4v4l-8-1z"/>
		<path id="Path 530" class="s62" d="m501 487l5-8 5 2 4-2 2 5-3 1 1 8v6l-5 4-5 1 1-12-5-2z"/>
		<path id="Path 531" class="s62" d="m716 487l2-8h2l7 6-2 4-2 12-7 5h-1l-1-7z"/>
		<path id="Path 532" class="s86" d="m913 482v-3h5l9 10v3l-4 7h-6v-1-5-9z"/>
		<path id="Path 533" class="s51" d="m216 483l8-3 1 8-8 3-3-5z"/>
		<path id="Path 534" class="s82" d="m410 495l2-1-2-14h6l2 3 4-2h2l3 1v2l-5 8 8 1h6l1 4-7 2-1 10-6 2-8 3-6-3-1-9 1-4z"/>
		<path id="Path 535" class="s66" d="m528 483v-3h3 5l2 4-1 4-7-1z"/>
		<path id="Path 536" class="s47" d="m589 481l6-1 10 3 2 7-3 3h-7l-12-11v-1z"/>
		<path id="Path 537" class="s67" d="m145 496l-4-1 2-14 6 1v13z"/>
		<path id="Path 538" class="s11" d="m647 486l3-5 2 4-4 2z"/>
		<path id="Path 539" class="s74" d="m427 484v-2h4l7 3-2 8h-6z"/>
		<path id="Path 540" class="s64" d="m445 485l2-3h6 4l2 1 1 5-4 2h-7z"/>
		<path id="Path 541" class="s69" d="m730 485l5-3h6v8l-8 4-1 5-2 1-7 1 2-12z"/>
		<path id="Path 542" class="s25" d="m911 493l-1-10 3-1 4 2v9z"/>
		<path id="Path 543" class="s66" d="m193 485l14-2 1 3-2 5-7 3-8-1z"/>
		<path id="Path 544" class="s80" d="m385 487v-4h6v6h-4z"/>
		<path id="Path 545" class="s67" d="m460 488l-1-5h9l1 2v4l-4 1z"/>
		<path id="Path 546" class="s51" d="m477 485l2-2h4l2 7v4l-4 3h-2l-2-8z"/>
		<path id="Path 547" class="s75" d="m521 484l7-1 2 4 7 1 1 7h-3l-14-5z"/>
		<path id="Path 548" class="s40" d="m779 488l4-5h4v4l-5 2z"/>
		<path id="Path 549" class="s65" d="m830 488l-5-1 2-4h4z"/>
		<path id="Path 550" class="s56" d="m309 488v-4l4 1v3z"/>
		<path id="Path 551" class="s64" d="m430 493l-8-1 5-8z"/>
		<path id="Path 552" class="s78" d="m515 493l-1-8 3-1h4v6l-2 3z"/>
		<path id="Path 553" class="s40" d="m537 488l1-4h4l5 4 2 7v1l-4 1-7-2z"/>
		<path id="Path 554" class="s73" d="m666 486l3-2 12 1 2 4v11l-2 4-10-2v-9z"/>
		<path id="Path 555" class="s51" d="m239 499v-14h4 6l2 4-7 9z"/>
		<path id="Path 556" class="s33" d="m436 493l2-8h7l4 5v8l-8 2-4-3z"/>
		<path id="Path 557" class="s40" d="m469 489v-4h8v4l-6 1z"/>
		<path id="Path 558" class="s37" d="m489 486l5-1 7 2v3l-6 5-5-1-1-4z"/>
		<path id="Path 559" class="s37" d="m648 487l4-2h9l5 1 5 7v9l-4 3-7-4-16-1v-3l4-3z"/>
		<path id="Path 560" class="s88" d="m683 489l-2-4h4v4z"/>
		<path id="Path 561" class="s41" d="m725 489l2-4h3z"/>
		<path id="Path 562" class="s2" d="m927 487v-2h2v3h-1z"/>
		<path id="Path 563" class="s16" d="m927 487h1v1h-1z"/>
		<path id="Path 564" class="s59" d="m206 491l2-5h6l3 5-1 11 7 1-3 9-3 1-6-1-2-8-3-4z"/>
		<path id="Path 565" class="s36" d="m373 499v-8l4-5 8 1 2 2v6 4z"/>
		<path id="Path 566" class="s54" d="m639 497l-3-1v-5l5-5h6l1 1v7l-4 3z"/>
		<path id="Path 567" class="s88" d="m707 499v-12h9l-2 12z"/>
		<path id="Path 568" class="s47" d="m744 490l6-3 5 4v4l-5 5z"/>
		<path id="Path 569" class="s90" d="m782 489l5-2h8l2 12v8h-12l-5-7-1-1v-2z"/>
		<path id="Path 570" class="s95" d="m93 494l1-6 1 1z"/>
		<path id="Path 571" class="s90" d="m95 489l2-1 2 9 5 2 11 16 1 9 6 1 2 13-6 2-7-4v-8l-6-2v-9l-10-4-3-8 1-6-5-1v-2l1-2h4z"/>
		<path id="Path 572" class="s75" d="m217 491l8-3 4 2v12l-6 1-7-1z"/>
		<path id="Path 573" class="s80" d="m303 491l6-3h4l2 17-8-2v-8l-4-2z"/>
		<path id="Path 574" class="s33" d="m456 490l4-2 5 2 1 8 5 1h4l2 3-6 7-8-1v-4l-6-3z"/>
		<path id="Path 575" class="s35" d="m779 497l-4-2v-5l4-2 3 1z"/>
		<path id="Path 576" class="s12" d="m927 489v-1h1 1v4h-1-1z"/>
		<path id="Path 577" class="s66" d="m176 505l-1-15 3-1 7 6v11l-7 1z"/>
		<path id="Path 578" class="s62" d="m239 499l5-1 7-9h6v4l4 2v4h-3l-4-3-2 7-5 10h-5l-4-6z"/>
		<path id="Path 579" class="s62" d="m275 493l8-4 2 1v5l-2 10-7 2z"/>
		<path id="Path 580" class="s34" d="m387 495v-6h4v6z"/>
		<path id="Path 581" class="s34" d="m465 490l4-1 2 1v9l-5-1z"/>
		<path id="Path 582" class="s25" d="m471 490l6-1 2 8-4 2h-4z"/>
		<path id="Path 583" class="s76" d="m683 500v-11h2 6l7 9-2 3-10 1z"/>
		<path id="Path 584" class="s34" d="m807 491v-2h10v4 6h-7z"/>
		<path id="Path 585" class="s43" d="m855 497v-5l4-3 2 2-3 6z"/>
		<path id="Path 586" class="s66" d="m285 495v-5h7l3 4v3h-2z"/>
		<path id="Path 587" class="s65" d="m449 498v-8h7l1 11h-2z"/>
		<path id="Path 588" class="s59" d="m485 494v-4h4l1 4z"/>
		<path id="Path 589" class="s56" d="m490 494l5 1 6-5 5 2-1 12v1h-5l-9-2h-4l-6-1v-5l4-3z"/>
		<path id="Path 590" class="s25" d="m519 493l2-3 14 5-1 9-3 2z"/>
		<path id="Path 591" class="s26" d="m604 493l3-3 7 1 3 9-3 3h-7v-8z"/>
		<path id="Path 592" class="s86" d="m732 499l1-5 8-4h3l6 10v10l3 3v1l-4 4 1 13 2 4 1 4-2 4h-16-3v-4-3h-5l-5-9v-2l9-2 1-23z"/>
		<path id="Path 593" class="s65" d="m893 493l5-3 12 5 3 5v3l-1 10-7 2v-4l-5-1-3-5v-7z"/>
		<path id="Path 594" class="s11" d="m199 494l7-3v9l3 4h-6l-4-1z"/>
		<path id="Path 595" class="s19" d="m402 498l1-7h5l2 4-1 3z"/>
		<path id="Path 596" class="s62" d="m802 499l-1-8h6l3 8h7 8l2 8v6h-4l-6-5h-8l-1-6z"/>
		<path id="Path 597" class="s15" d="m858 497l3-6h10l4 1v5 4l4 1 3 3 3 5-10 8v5h-3l-3-14-1-5h-5l-5-3z"/>
		<path id="Path 598" class="s29" d="m875 492l6 1-3 4h-3z"/>
		<path id="Path 599" class="s54" d="m917 499h6l4-7h1v12l-1 1-10-2z"/>
		<path id="Path 600" class="s1" d="m928 504v-12h1v12z"/>
		<path id="Path 601" class="s63" d="m189 495l2-2 8 1v9h-4l-6-3z"/>
		<path id="Path 602" class="s91" d="m266 495l5-2h4l1 14v8h-8-9l-2-2 1-8 5-4z"/>
		<path id="Path 603" class="s25" d="m295 494l8-1 4 2v8h-3l-7-2-2-4z"/>
		<path id="Path 604" class="s34" d="m515 499v-6h4l12 13-1 7h-8l-1-11z"/>
		<path id="Path 605" class="s25" d="m555 495l15-2 4 3-1 10-6 3-2-1-6-3v-4l-4-2z"/>
		<path id="Path 606" class="s25" d="m597 503v-10h7l3 2v8l-2 2z"/>
		<path id="Path 607" class="s28" d="m817 499v-6h11l2 4v2h-5z"/>
		<path id="Path 608" class="s43" d="m878 497l3-4h12l4 5v7h-4-11l-3-3z"/>
		<path id="Path 609" class="s33" d="m910 495l1-2h6v5l-4 2z"/>
		<path id="Path 610" class="s95" d="m84 497l5-3-1 2-3 1z"/>
		<path id="Path 611" class="s61" d="m145 496l4-1h4l-1 14-6 3-5 1-2-8 6-4z"/>
		<path id="Path 612" class="s87" d="m152 509l1-14h7l3 6v10l3 3v3l-3 3z"/>
		<path id="Path 613" class="s47" d="m185 506v-11h4v5l6 3v5h-2z"/>
		<path id="Path 614" class="s57" d="m261 499v-4h5l-3 6z"/>
		<path id="Path 615" class="s76" d="m283 505l2-10 8 2v6l-1 4-1 1z"/>
		<path id="Path 616" class="s43" d="m387 499v-4h4v4 2h-4z"/>
		<path id="Path 617" class="s29" d="m391 499v-4h5l2 4z"/>
		<path id="Path 618" class="s23" d="m534 504l1-9h3l7 2v12h-7z"/>
		<path id="Path 619" class="s45" d="m549 496v-1h6v4h-4z"/>
		<path id="Path 620" class="s33" d="m574 496l4-1 3 4-2 8-6-1z"/>
		<path id="Path 621" class="s44" d="m750 500l5-5h4 7l2 3-7 7 2 6-1 3h-8l-1-1-3-3z"/>
		<path id="Path 622" class="s26" d="m753 513h1v1h-1z"/>
		<path id="Path 623" class="s72" d="m85 497l3-1v2l-4 7-3 1v-1z"/>
		<path id="Path 624" class="s31" d="m252 503l2-7 4 3-4 4z"/>
		<path id="Path 625" class="s94" d="m545 497l4-1 2 3 2 8-1 6h-4l-3-4z"/>
		<path id="Path 626" class="s13" d="m79 502l5-5h1l-4 8h-2z"/>
		<path id="Path 627" class="s58" d="m293 503v-6h2l2 4v2z"/>
		<path id="Path 628" class="s15" d="m429 509l1-10 7-2 4 3-1 9h-9z"/>
		<path id="Path 629" class="s71" d="m475 499l4-2h2v5h-4z"/>
		<path id="Path 630" class="s51" d="m639 502v-5h5v3z"/>
		<path id="Path 631" class="s40" d="m830 499v-2l5 2-2 4z"/>
		<path id="Path 632" class="s94" d="m851 503v-5l4-1h3v4l5 3 2 5h4l3 14-4 4h-7v-3l1-12-3-3h-7z"/>
		<path id="Path 633" class="s34" d="m879 502l-4-1v-4h3z"/>
		<path id="Path 634" class="s52" d="m84 505l4-7 5 1-1 6z"/>
		<path id="Path 635" class="s55" d="m398 499l4-1h7l-1 4-7 5-6-1-4 3v-8-2z"/>
		<path id="Path 636" class="s80" d="m441 500l8-2 6 3v8l-7 2-8-2z"/>
		<path id="Path 637" class="s74" d="m696 501l2-3 4 1v6h-5z"/>
		<path id="Path 638" class="s31" d="m763 511l-2-6 7-7 11 1 1 1v6l-6 1-2 4z"/>
		<path id="Path 639" class="s26" d="m913 500l4-2v1 4h-4z"/>
		<path id="Path 640" class="s47" d="m254 503l4-4h3l2 2-5 4z"/>
		<path id="Path 641" class="s30" d="m375 505l-2-6h14v2l-3 4z"/>
		<path id="Path 642" class="s65" d="m510 503l5-4 6 3 1 11v8l-9-2v-10z"/>
		<path id="Path 643" class="s33" d="m553 507l-2-8h4l4 2v4z"/>
		<path id="Path 644" class="s15" d="m579 507l2-8h8l2 4h4v7l-11 1-4-2z"/>
		<path id="Path 645" class="s59" d="m702 505v-6h5 7l1 7-6 1z"/>
		<path id="Path 646" class="s34" d="m730 500l2-1v1z"/>
		<path id="Path 647" class="s92" d="m797 507v-8h4v8l-4 1z"/>
		<path id="Path 648" class="s61" d="m797 508l4-1v-8h1l6 3 1 6-7 10h-3l-3-6z"/>
		<path id="Path 649" class="s48" d="m827 507l-2-8h5l3 4v4z"/>
		<path id="Path 650" class="s26" d="m833 503l2-4 16 4 1 6-1 2h-6l-12-3v-1z"/>
		<path id="Path 651" class="s71" d="m614 503l3-3 7 5-1 2h-8z"/>
		<path id="Path 652" class="s55" d="m639 502l5-2 16 1 7 4 2 10v2h-6l-2-4-7 2-9 2-13-2 3-10z"/>
		<path id="Path 653" class="s20" d="m681 504l2-4 3 2-1 5h-4z"/>
		<path id="Path 654" class="s55" d="m723 501l7-1h2l-1 23-9 2-2-9-4-2v-8z"/>
		<path id="Path 655" class="s44" d="m772 511l2-4 6-1v-6l5 7-1 7z"/>
		<path id="Path 656" class="s92" d="m166 514l-3-3v-10l6 4z"/>
		<path id="Path 657" class="s20" d="m297 503v-2l7 2-1 10h-6v-6z"/>
		<path id="Path 658" class="s34" d="m375 505h9l3-4h4v8l4 7-2 7-8-1-1-6-7 1z"/>
		<path id="Path 659" class="s36" d="m448 511l7-2v-8h2l6 3v4l-4 10-2 2-7 1z"/>
		<path id="Path 660" class="s55" d="m686 502l10-1 1 4h5l7 2-2 16-8 2-14-10v-8z"/>
		<path id="Path 661" class="s37" d="m223 503l6-1 9 5 4 6-2 3h-5l-5 6-3 1h-6l-5-3 1-7 3-1z"/>
		<path id="Path 662" class="s30" d="m401 507l7-5 1 9h-4-3z"/>
		<path id="Path 663" class="s55" d="m471 509l6-7h4l6 1v6l-2 9-4 1h-8l-2-3z"/>
		<path id="Path 664" class="s34" d="m667 505l4-3 10 2v3 8 2h-4l-8-2z"/>
		<path id="Path 665" class="s62" d="m195 508v-5h4l4 1-1 5z"/>
		<path id="Path 666" class="s76" d="m247 513l5-10h2l4 2-1 8-1 8v2h-5l-4-4z"/>
		<path id="Path 667" class="s48" d="m292 507l1-4h4v4z"/>
		<path id="Path 668" class="s23" d="m303 513l1-10h3l8 2 1 12-6 2v6l-1 5-2 10 3 1 5 30v4h-4l-8-4-2-7 1-7 1-13-6-5v-6l4-2v-4z"/>
		<path id="Path 669" class="s23" d="m487 509v-6h4v6z"/>
		<path id="Path 670" class="s36" d="m491 509v-6l9 2 1 9-1 5h-6l1-8z"/>
		<path id="Path 671" class="s33" d="m505 504l5-1 3 6h-4l-4-4z"/>
		<path id="Path 672" class="s55" d="m595 510v-7h2l8 2 2-2h7l1 4 1 8-1 10h-5l-3-13z"/>
		<path id="Path 673" class="s34" d="m912 513l1-10h4l10 2v1l-12 11h-2z"/>
		<path id="Path 674" class="s41" d="m202 509l1-5h6l2 8-1 5h-7z"/>
		<path id="Path 675" class="s36" d="m531 506l3-2 4 5h7l3 4v7l6 1v6l-5 5 2 10-4 3-7-1-4-6h-5l-4 5-20 4v-13-9l-1-11 3-5h4v10l9 2 8 4 3-5-3-7z"/>
		<path id="Path 676" class="s69" d="m869 509h-4l-2-5h5z"/>
		<path id="Path 677" class="s93" d="m927 505l1-1h1v2h-1-1z"/>
		<path id="Path 678" class="s79" d="m79 507v-2h2v1l-1 1z"/>
		<path id="Path 679" class="s20" d="m81 506l3-1h8l3 8-2 14h-4l-2-4-4-6-1-3-2-4v-3z"/>
		<path id="Path 680" class="s40" d="m166 514l3-9h7l2 2-1 10h-11z"/>
		<path id="Path 681" class="s20" d="m276 507l7-2 8 3v13l-3 2-7-2-5-6z"/>
		<path id="Path 682" class="s92" d="m501 514l-1-9h5l4 4-3 5z"/>
		<path id="Path 683" class="s36" d="m553 507l6-2 6 3v5l-11 2-2-2z"/>
		<path id="Path 684" class="s36" d="m623 507l1-2h11l-3 10h-9z"/>
		<path id="Path 685" class="s9" d="m885 510l-3-5h11l1 4-3 1z"/>
		<path id="Path 686" class="s34" d="m891 510l3-1-1-4h4l3 5-3 5z"/>
		<path id="Path 687" class="s62" d="m178 507l7-1 8 2v8l-7 6h-4l-5-5z"/>
		<path id="Path 688" class="s19" d="m391 509l4-3 6 1 1 4h3v15h-5l-2 5h-5v-8l2-7z"/>
		<path id="Path 689" class="s23" d="m567 509l6-3 6 1 1 2 1 4h3l1 8 7 4 1 6v10l-4 2h-10l-6-7-2-9-4-14z"/>
		<path id="Path 690" class="s34" d="m709 507l6-1h1v8l4 2 2 9v2h-8l-7-4z"/>
		<path id="Path 691" class="s21" d="m915 517l12-11h1l-1 3-3 6-7 3h-2z"/>
		<path id="Path 692" class="s2" d="m927 509l1-3h1v3z"/>
		<path id="Path 693" class="s96" d="m79 510v-3h1v3z"/>
		<path id="Path 694" class="s34" d="m291 508l1-1h5v6 8h-6z"/>
		<path id="Path 695" class="s56" d="m616 515l-1-8h8v8z"/>
		<path id="Path 696" class="s51" d="m681 515v-8h4v8z"/>
		<path id="Path 697" class="s64" d="m784 514l1-7h12v1l-1 4-3 3-8 1z"/>
		<path id="Path 698" class="s28" d="m827 513v-6h6v1l-2 5z"/>
		<path id="Path 699" class="s26" d="m193 516v-8h2l7 1 1 8h-4z"/>
		<path id="Path 700" class="s23" d="m459 518l4-10 8 1v7h-6l-2 4h-4z"/>
		<path id="Path 701" class="s94" d="m565 513v-5l2 1v4z"/>
		<path id="Path 702" class="s33" d="m796 512l3 6h3l7-10h8l6 5-1 21-5-4h-5v3h-9-2-2l-8-2 2-16z"/>
		<path id="Path 703" class="s23" d="m831 513l2-5 12 3v12l-2 1-5 1-4-1-1-7z"/>
		<path id="Path 704" class="s51" d="m146 512l6-3 11 11v15h-4l-12-2-4-9 4-6z"/>
		<path id="Path 705" class="s23" d="m423 511l6-2h2l-2 7h-6z"/>
		<path id="Path 706" class="s43" d="m429 516l2-7h9l8 2 2 10-6 5-9 1z"/>
		<path id="Path 707" class="s29" d="m485 518l2-9h4l4 2-1 8-2 2z"/>
		<path id="Path 708" class="s34" d="m584 513h-3l-1-4 4 2z"/>
		<path id="Path 709" class="s29" d="m851 511l1-2h7l3 3-1 12-6-1z"/>
		<path id="Path 710" class="s0" d="m401 614h1v1h-1z"/>
		<path id="Path 711" class="s79" d="m79 511v-1h1l2 4h-1z"/>
		<path id="Path 712" class="s80" d="m584 511l11-1 12 2 3 13-5 6h-12l-1-6-7-4-1-8z"/>
		<path id="Path 713" class="s29" d="m875 523v-5l10-8h6l6 5v2 9l-11-3-1 4h-5z"/>
		<path id="Path 714" class="s36" d="m897 515l3-5 5 1v4l-3 2h-5z"/>
		<path id="Path 715" class="s6" d="m79 513v-2l2 3z"/>
		<path id="Path 716" class="s45" d="m405 526v-15h4l6 3 2 9v6h-6z"/>
		<path id="Path 717" class="s80" d="m415 514l8-3v5l-1 6-5 1z"/>
		<path id="Path 718" class="s23" d="m762 514l1-3h9l12 3 1 2-2 13h-18z"/>
		<path id="Path 719" class="s34" d="m845 523v-12h6l4 12h-4z"/>
		<path id="Path 720" class="s80" d="m141 513l5-1 1 6-4 6h-4v-9z"/>
		<path id="Path 721" class="s25" d="m210 517l1-5 6 1-1 7z"/>
		<path id="Path 722" class="s59" d="m93 527l2-14 10 4v9l-3 3h-7z"/>
		<path id="Path 723" class="s81" d="m128 523v-10l11 2v9l-1 2z"/>
		<path id="Path 724" class="s72" d="m240 516l2-3h5v6h-4z"/>
		<path id="Path 725" class="s88" d="m256 521l1-8 2 2v6z"/>
		<path id="Path 726" class="s65" d="m297 521v-8h6l-2 14-4-1z"/>
		<path id="Path 727" class="s25" d="m349 514l4-1v4h-4z"/>
		<path id="Path 728" class="s34" d="m353 517v-4h6l2 6h-7z"/>
		<path id="Path 729" class="s23" d="m522 521v-8h8l3 7-3 5z"/>
		<path id="Path 730" class="s34" d="m554 521l-6-1v-7h4l2 2z"/>
		<path id="Path 731" class="s80" d="m554 515l11-2h2l4 14h-2l-8 2-7-2v-6z"/>
		<path id="Path 732" class="s33" d="m654 515l7-2 2 4h6v6 6l-9 4-2-4v-3l-4-1-1-2z"/>
		<path id="Path 733" class="s36" d="m822 534l1-21h4l2 4h4l1 7-1 11h-9-2z"/>
		<path id="Path 734" class="s45" d="m833 517h-4l-2-4h4z"/>
		<path id="Path 735" class="s28" d="m905 515l7-2 1 4v1l-6 5-5-6z"/>
		<path id="Path 736" class="s6" d="m83 517l-2-3h1z"/>
		<path id="Path 737" class="s94" d="m341 515l8-1v3 2h-2z"/>
		<path id="Path 738" class="s65" d="m500 519l1-5h5l1 11h-6z"/>
		<path id="Path 739" class="s34" d="m750 531l-1-13 4-4h1 8l3 15-1 1-11 1z"/>
		<path id="Path 740" class="s70" d="m259 521v-6h9l-1 8h-4z"/>
		<path id="Path 741" class="s66" d="m267 523l1-8h8l5 6-3 10z"/>
		<path id="Path 742" class="s80" d="m336 520l5-5 6 4v6l-8 2-2-4z"/>
		<path id="Path 743" class="s23" d="m615 525l1-10h7 9l13 2v4l-5 5-9 1z"/>
		<path id="Path 744" class="s36" d="m645 517l9-2-1 8-8-2z"/>
		<path id="Path 745" class="s30" d="m669 517v-2l8 2v6h-8z"/>
		<path id="Path 746" class="s36" d="m681 517v-2h4l14 10 8-2 7 4-1 11v5 13l-8 1h-5l-2-5-6 3-5-2h-4l-3-6h-10l-3 3h-8v-15l1-2 9-4h8l6-2-2-4z"/>
		<path id="Path 747" class="s36" d="m785 516l8-1-2 16h-1l-4-1h-1l-2-1z"/>
		<path id="Path 748" class="s86" d="m186 522l7-6 6 1v5l8 6 1 6-1 6-12 3-8-10z"/>
		<path id="Path 749" class="s86" d="m230 522l5-6h5l3 3v6l-2 2h-6z"/>
		<path id="Path 750" class="s29" d="m377 517l7-1 1 6-4 1h-4z"/>
		<path id="Path 751" class="s94" d="m417 523l5-1 1-6h6l6 11-14 3-4-1z"/>
		<path id="Path 752" class="s41" d="m463 520l2-4h6l2 3v11l-3 1-7-2z"/>
		<path id="Path 753" class="s95" d="m86 531l-3-14 4 6v8z"/>
		<path id="Path 754" class="s72" d="m163 520l3-3h11l5 5v11l-3 4-4 1-3-3h-9z"/>
		<path id="Path 755" class="s36" d="m208 534l-1-6-8-6v-5h4 7l6 3 5 3v2l-4 1v4l-3 4z"/>
		<path id="Path 756" class="s80" d="m310 525v-6l6-2h6l3 6v12h-4l-5-4v-4z"/>
		<path id="Path 757" class="s97" d="m349 519v-2h4l1 2-1 1z"/>
		<path id="Path 758" class="s56" d="m677 523v-6h4v6z"/>
		<path id="Path 759" class="s92" d="m897 526v-9h5l5 6-2 6h-6z"/>
		<path id="Path 760" class="s84" d="m913 518v-1h2v1l-2 12-1 1h-14l1-2h6l7-2z"/>
		<path id="Path 761" class="s94" d="m457 520l2-2v2z"/>
		<path id="Path 762" class="s34" d="m481 519l4-1 7 3 3 12-4 1-10-7z"/>
		<path id="Path 763" class="s94" d="m907 523l6-5-1 9-7 2z"/>
		<path id="Path 764" class="s6" d="m913 530l2-12h2l-1 10z"/>
		<path id="Path 765" class="s91" d="m243 525v-6h4l4 4-5 3z"/>
		<path id="Path 766" class="s82" d="m347 525v-6h2l4 1 2 7h-2z"/>
		<path id="Path 767" class="s43" d="m353 520l1-1h7l2 6-8 2z"/>
		<path id="Path 768" class="s25" d="m470 531l3-1v-11h8v8l10 7v13h-10l-13 3z"/>
		<path id="Path 769" class="s86" d="m492 521l2-2h6l1 6v8h-6z"/>
		<path id="Path 770" class="s94" d="m333 523l3-3 1 3z"/>
		<path id="Path 771" class="s55" d="m450 521l7-1h2 4v9l7 2-2 19-6 3-9-4v-5l-6-5h-15l-1 7-6-1-4-6v-9l14-3 9-1z"/>
		<path id="Path 772" class="s63" d="m256 523v-2h3l4 2-4 4z"/>
		<path id="Path 773" class="s60" d="m278 531l3-10 7 2 1 3v7l-2 1-9 1z"/>
		<path id="Path 774" class="s23" d="m288 523l3-2h6v5h-2-6z"/>
		<path id="Path 775" class="s97" d="m631 527l9-1 5-5 8 2 1 2 1 4v4l4 2v15l3 9-1 6 4 2 2 12 2 6-5 8h-1-2l-9-1-1-1v-4l-6-2-4-4v-9l-7-6h-5l-4-3-4-17 9-4-1-7z"/>
		<path id="Path 776" class="s20" d="m182 533v-11h4l1 11z"/>
		<path id="Path 777" class="s70" d="m227 523l3-1 5 5-6 4-3-3z"/>
		<path id="Path 778" class="s94" d="m381 523l4-1 8 1v8 8h-8l-4-3v-7z"/>
		<path id="Path 779" class="s48" d="m87 531v-8l2 4 3 12v2l-2-1-2-2v-3z"/>
		<path id="Path 780" class="s47" d="m122 525l6-2 10 3-2 20-1 1h-4l-1-6-6-3z"/>
		<path id="Path 781" class="s52" d="m221 525v-2h6l-1 5h-3z"/>
		<path id="Path 782" class="s47" d="m246 526l5-3h5l3 4v7l7 4 3 8-1 3-2 1-3-3-9 2-5-3v-5h-5l-4-4 3-8z"/>
		<path id="Path 783" class="s76" d="m259 527l4-4h4l11 8v4l-1 6-8 5-3-8-7-4z"/>
		<path id="Path 784" class="s30" d="m325 535v-12h8l2 18h-8z"/>
		<path id="Path 785" class="s43" d="m327 541h8l-2-18h4l2 4 8-2 6 2v5l-1 7v6l7 3v5l6 4 1 6 7 1h2l-2 7-12 2-3 12-8 2-5-6h-10l-4-6-16-4-5-30 11-1z"/>
		<path id="Path 786" class="s36" d="m372 526l5-3h4v6h-8z"/>
		<path id="Path 787" class="s71" d="m669 529v-6h8v6z"/>
		<path id="Path 788" class="s23" d="m677 529v-6h4l2 4z"/>
		<path id="Path 789" class="s25" d="m843 524l2-1h6l2 14h-8z"/>
		<path id="Path 790" class="s55" d="m853 537l-2-14h4l6 1v3l1 8-1 2h-5z"/>
		<path id="Path 791" class="s69" d="m868 527l4-4h3l5 4 1 7h5v1l-6 1-8 1h-11l1-2 7-1z"/>
		<path id="Path 792" class="s15" d="m885 527l1-4 11 3 2 3-1 2-8 2z"/>
		<path id="Path 793" class="s52" d="m138 526l1-2h4l4 9 12 2-2 16-4 4h-8v-7l-9-2z"/>
		<path id="Path 794" class="s80" d="m833 535l1-11 4 1 3 12h-5-1z"/>
		<path id="Path 795" class="s8" d="m838 525l5-1 2 13h-4z"/>
		<path id="Path 796" class="s89" d="m217 530v-4l4-1 2 3-1 3z"/>
		<path id="Path 797" class="s66" d="m241 527l2-2 3 1-3 3z"/>
		<path id="Path 798" class="s82" d="m309 530l1-5 6 2v4z"/>
		<path id="Path 799" class="s23" d="m355 527l8-2 9 1 1 3v4l-6 4-12-2-2-3v-5z"/>
		<path id="Path 800" class="s23" d="m501 533v-8h6v9z"/>
		<path id="Path 801" class="s15" d="m593 531h12l5-6h5l16 2-2 8h-7l-3 6h-26z"/>
		<path id="Path 802" class="s80" d="m655 529l-1-4 4 1v3z"/>
		<path id="Path 803" class="s73" d="m102 529l3-3 6 2v8h-5z"/>
		<path id="Path 804" class="s82" d="m289 533v-7h6v6z"/>
		<path id="Path 805" class="s89" d="m295 532v-6h2l4 1v4l-4 2z"/>
		<path id="Path 806" class="s14" d="m398 531l2-5h5l6 3-1 4-8 3z"/>
		<path id="Path 807" class="s77" d="m92 539l-3-12h4l2 2v9z"/>
		<path id="Path 808" class="s20" d="m229 531l6-4h6l2 2-3 8-7 4h-4v-6z"/>
		<path id="Path 809" class="s23" d="m551 542l-2-10 5-5 7 2v8l-2 3z"/>
		<path id="Path 810" class="s34" d="m561 529l8-2v9l-2 1h-6z"/>
		<path id="Path 811" class="s94" d="m569 536v-9h2l2 9z"/>
		<path id="Path 812" class="s23" d="m713 538l1-11h8l5 9v3l-2 4-7-1z"/>
		<path id="Path 813" class="s33" d="m862 535l-1-8h7l1 7z"/>
		<path id="Path 814" class="s36" d="m886 534h-5l-1-7h5l5 6z"/>
		<path id="Path 815" class="s73" d="m222 531l1-3h3l3 3v4h-6z"/>
		<path id="Path 816" class="s74" d="m95 538v-9h7l4 7h5l7 4 4 6-1 8-3-1-7-3h-2l-1-1-4-8z"/>
		<path id="Path 817" class="s97" d="m367 537l6-4v-4h8v7l4 3v6l-3 6-9 3-4-1z"/>
		<path id="Path 818" class="s69" d="m402 536l8-3 1-4h6l4 1v9l4 6v2h-24v-8z"/>
		<path id="Path 819" class="s43" d="m659 535l-4-2v-4h3l2 4z"/>
		<path id="Path 820" class="s95" d="m764 530l1-1h18l2 1z"/>
		<path id="Path 821" class="s85" d="m214 534l3-4 5 1 1 4h6v6l-9 4z"/>
		<path id="Path 822" class="s30" d="m310 541l-3-1 2-10 7 1 5 4v5z"/>
		<path id="Path 823" class="s95" d="m753 531l11-1-8 2 5 7h-1l-4-3-1-1z"/>
		<path id="Path 824" class="s4" d="m801 533l-11 1-4-4 4 1 9 2z"/>
		<path id="Path 825" class="s8" d="m812 533v-3h5l5 4v1h-6-3z"/>
		<path id="Path 826" class="s4" d="m88 535l-2-4h1z"/>
		<path id="Path 827" class="s7" d="m393 539v-8h5l4 5-1 3z"/>
		<path id="Path 828" class="s8" d="m752 535l-2-4h3l2 4z"/>
		<path id="Path 829" class="s19" d="m799 533l-9-2h1z"/>
		<path id="Path 830" class="s4" d="m890 533l8-2h14l-26 4v-1z"/>
		<path id="Path 831" class="s25" d="m289 533l6-1 2 1v6l-8 5-2-2v-8z"/>
		<path id="Path 832" class="s82" d="m352 539l1-7 2 3v4z"/>
		<path id="Path 833" class="s40" d="m179 537l3-4h5l8 10v5l-8 2-6-5z"/>
		<path id="Path 834" class="s80" d="m491 534l4-1h6l6 1v13l-9 2h-6l-1-2z"/>
		<path id="Path 835" class="s46" d="m813 535l-10-2h9z"/>
		<path id="Path 836" class="s74" d="m207 540l1-6h6l6 11-1 2h-6l-5-2z"/>
		<path id="Path 837" class="s23" d="m278 535l9-1v8l-3 2-7-3z"/>
		<path id="Path 838" class="s40" d="m157 551l2-16h4 9l3 3v7l-12 6z"/>
		<path id="Path 839" class="s28" d="m321 540v-5h4l2 6z"/>
		<path id="Path 840" class="s30" d="m355 539v-4l12 2 2 16 4 1v10l-7-1-1-6-6-4v-5-5z"/>
		<path id="Path 841" class="s30" d="m593 541h26l3-6h7l1 7-9 4 4 17-6 3v5l-4 1-2 6-9-2-3-3v-5l-8-4-4-21z"/>
		<path id="Path 842" class="s51" d="m753 539l-1-4h3l1 1z"/>
		<path id="Path 843" class="s38" d="m825 537l-9-2h6 2z"/>
		<path id="Path 844" class="s46" d="m825 537l-1-2h9l2 2h-6z"/>
		<path id="Path 845" class="s24" d="m880 536l6-1-6 2z"/>
		<path id="Path 846" class="s80" d="m567 537l2-1h4l6 7-1 5-5 3h-6v-9z"/>
		<path id="Path 847" class="s52" d="m727 539v-3h5v3z"/>
		<path id="Path 848" class="s57" d="m753 539l3-3 4 3v10l-5 6h-1l-2 4v1l-11-2v-3l-7-4v-3l1-5h16z"/>
		<path id="Path 849" class="s1" d="m872 537l8-1v1z"/>
		<path id="Path 850" class="s20" d="m175 538l4-1 2 8h-6z"/>
		<path id="Path 851" class="s70" d="m233 541l7-4 4 4-3 4h-5z"/>
		<path id="Path 852" class="s30" d="m559 540l2-3h6v5z"/>
		<path id="Path 853" class="s5" d="m836 539l-7-2h6 1z"/>
		<path id="Path 854" class="s79" d="m836 539v-2h5 4 8 3v2z"/>
		<path id="Path 855" class="s1" d="m856 539v-2h5 11z"/>
		<path id="Path 856" class="s4" d="m90 542l-2-4 2 2z"/>
		<path id="Path 857" class="s66" d="m92 539l3-1 9 3 4 8-5-1-11-7z"/>
		<path id="Path 858" class="s51" d="m118 540l6-2 6 3 1 6-9-1z"/>
		<path id="Path 859" class="s33" d="m507 547l20-4 4-5h5l4 6 7 1v6 4l6 5v6 5l-4 5h-7l-2-2-5-5h-8l-10-2-10-1-2-2-4-5-3-3v-7z"/>
		<path id="Path 860" class="s71" d="m713 543v-5l5 4z"/>
		<path id="Path 861" class="s97" d="m289 544l8-5 6 5-1 13h-7l-2-4h-6l-3-3 1-4z"/>
		<path id="Path 862" class="s36" d="m359 548l-7-3v-6h3l4 4z"/>
		<path id="Path 863" class="s15" d="m385 545v-6h8l-2 6z"/>
		<path id="Path 864" class="s18" d="m391 545l2-6h8v8l-4 6h-4-3z"/>
		<path id="Path 865" class="s25" d="m431 546l1-7h15l6 5v5l-4 2-15-3z"/>
		<path id="Path 866" class="s73" d="m725 543l2-4h5v4l2 5v3l-4 4-5-8z"/>
		<path id="Path 867" class="s5" d="m760 549v-10h1v10z"/>
		<path id="Path 868" class="s1" d="m90 542v-2l2 1 11 7v1z"/>
		<path id="Path 869" class="s20" d="m195 543l12-3 1 5 5 2v6l8-2 9-1 2 4-4 3-4 1-12 1-2 6h-9l-6-4v-13z"/>
		<path id="Path 870" class="s28" d="m551 542l8-2 8 2v9l-6 2-14-2v-6z"/>
		<path id="Path 871" class="s47" d="m220 545l9-4h4l3 4-6 5-9 1-2-4z"/>
		<path id="Path 872" class="s20" d="m241 545l3-4h5v5l-7 3z"/>
		<path id="Path 873" class="s28" d="m269 546l8-5 7 3 1 2-1 4-5 4-7-1-4-4z"/>
		<path id="Path 874" class="s55" d="m284 544l3-2 2 2-4 2z"/>
		<path id="Path 875" class="s91" d="m713 543l5-1 7 1v4l-4 1 2 9-2 7h-6l-2-8z"/>
		<path id="Path 876" class="s28" d="m573 551l5-3 1-5h10l4 21-2 3-16-6z"/>
		<path id="Path 877" class="s76" d="m734 548l-2-5h3z"/>
		<path id="Path 878" class="s35" d="m163 551l12-6h6l6 5 1 11-1 4h-8l-2-4h-14z"/>
		<path id="Path 879" class="s56" d="m230 550l6-5h5l1 4-10 5z"/>
		<path id="Path 880" class="s49" d="m373 554l9-3 3-6h6l-1 8-2 5-3 2-10 4h-2z"/>
		<path id="Path 881" class="s22" d="m425 547v-2l6 1 3 2-2 3z"/>
		<path id="Path 882" class="s65" d="m121 554l1-8 9 1h4v8l-4 4-8-3z"/>
		<path id="Path 883" class="s78" d="m135 547l1-1 9 2v7h-10z"/>
		<path id="Path 884" class="s70" d="m242 549l7-3 5 3-7 7-10 5h-9v-4l4-3z"/>
		<path id="Path 885" class="s72" d="m221 551l-8 2v-6h6z"/>
		<path id="Path 886" class="s88" d="m254 549l9-2 3 3-1 5-14 5-4-4z"/>
		<path id="Path 887" class="s32" d="m397 553l4-6h24l7 4-7 9h-2l-16 1h-4l-6-2z"/>
		<path id="Path 888" class="s40" d="m468 550l13-3 1 13-5 3-7 2h-11l3-12z"/>
		<path id="Path 889" class="s59" d="m482 560l-1-13h10l1 2-1 11z"/>
		<path id="Path 890" class="s65" d="m667 550l3-3h10l3 6h4v6h-4l-13-5-3-1z"/>
		<path id="Path 891" class="s25" d="m723 557l-2-9 4-1 5 8v3h-3z"/>
		<path id="Path 892" class="s95" d="m103 549v-1l5 1 1 1z"/>
		<path id="Path 893" class="s52" d="m187 550l8-2v13h-7z"/>
		<path id="Path 894" class="s58" d="m432 551l2-3 15 3-5 8-6 4h-3l-10-3z"/>
		<path id="Path 895" class="s29" d="m266 550l2-1 4 4-3 5-4-3z"/>
		<path id="Path 896" class="s64" d="m449 551l4-2 9 4-3 12-8 1h-2v-4l-5-3z"/>
		<path id="Path 897" class="s51" d="m491 560l1-11h6v7l3 3-9 1z"/>
		<path id="Path 898" class="s6" d="m755 555l5-6h1l-2 5z"/>
		<path id="Path 899" class="s1" d="m118 554l-7-4 7 3z"/>
		<path id="Path 900" class="s45" d="m279 554l5-4 3 3v8l-4 2-4-3z"/>
		<path id="Path 901" class="s52" d="m662 559l-3-9h8v3 6z"/>
		<path id="Path 902" class="s74" d="m145 555h8l4-4h6v10 4l-4 1v3h-3l-16-6-9-4 4-4z"/>
		<path id="Path 903" class="s30" d="m553 566v-6l-6-5v-4l14 2v11l-2 3z"/>
		<path id="Path 904" class="s33" d="m561 553l6-2h6l2 10-1 3h-13z"/>
		<path id="Path 905" class="s47" d="m730 555l4-4 7 4v3 7h-2l-4-2v-5h-5z"/>
		<path id="Path 906" class="s94" d="m692 555l6-3 2 5-3 1z"/>
		<path id="Path 907" class="s12" d="m118 554v-1l3 1 2 2v1h-4z"/>
		<path id="Path 908" class="s97" d="m269 558l3-5 7 1v6l4 3v2l-10 5-4-3z"/>
		<path id="Path 909" class="s94" d="m283 563l4-2v-8h6l2 4v5l-12 3z"/>
		<path id="Path 910" class="s10" d="m388 558l2-5h3v6z"/>
		<path id="Path 911" class="s31" d="m393 559v-6h4v6z"/>
		<path id="Path 912" class="s51" d="m667 559v-6l3 1-1 5z"/>
		<path id="Path 913" class="s52" d="m687 559v-6l5 2 5 3v4l-6 1z"/>
		<path id="Path 914" class="s62" d="m669 559l1-5 13 5v18h-4l-2-4-6-1-2-5z"/>
		<path id="Path 915" class="s65" d="m251 560l14-5 4 3v9h-6l-12-4z"/>
		<path id="Path 916" class="s41" d="m705 557l8-1 2 8v5 2h-9l-2 10-15 3v-4l-6-3v-18h4l4 4 1 5h4l2-5h8z"/>
		<path id="Path 917" class="s53" d="m123 557v-1l8 3 9 4v2h-2l-7-3-5-2-3-2z"/>
		<path id="Path 918" class="s90" d="m237 561l10-5 4 4v3h-5l-2 4h-5z"/>
		<path id="Path 919" class="s73" d="m224 558l4-1v4h-2z"/>
		<path id="Path 920" class="s49" d="m295 562v-5h7l-1 7z"/>
		<path id="Path 921" class="s66" d="m697 558l3-1h5l1 6h-8l-1-1z"/>
		<path id="Path 922" class="s37" d="m721 564l2-7 4 1v9h-3z"/>
		<path id="Path 923" class="s66" d="m210 565l2-6 12-1 2 3-1 12h-15z"/>
		<path id="Path 924" class="s58" d="m385 560l3-2 5 1h4l6 2v6l-1 2h-17z"/>
		<path id="Path 925" class="s22" d="m727 567v-9h3 5v5l4 2-2 2z"/>
		<path id="Path 926" class="s27" d="m741 565v-7l11 2v4z"/>
		<path id="Path 927" class="s51" d="m438 563l6-4 5 3v4h-9z"/>
		<path id="Path 928" class="s95" d="m492 560l9-1 4 5h-1l-3-4z"/>
		<path id="Path 929" class="s72" d="m665 567l-4-2 1-6h5 2v8z"/>
		<path id="Path 930" class="s18" d="m375 564l10-4v9 1l-1 2 1 9h-11l-7 4 3 5 1 3-4 3-6-1-2-3-1-7 3-12 12-2z"/>
		<path id="Path 931" class="s70" d="m407 561l16-1v7h-3-13z"/>
		<path id="Path 932" class="s62" d="m423 567v-7h2l10 3-1 4h-6z"/>
		<path id="Path 933" class="s95" d="m477 563l5-3-5 4z"/>
		<path id="Path 934" class="s81" d="m163 565v-4h14l2 4v6h-11-2l-3-1z"/>
		<path id="Path 935" class="s91" d="m187 565l1-4h7l6 4v6h-14z"/>
		<path id="Path 936" class="s40" d="m225 573l1-12h2 9l2 6 1 7z"/>
		<path id="Path 937" class="s57" d="m403 567v-6h4v6z"/>
		<path id="Path 938" class="s76" d="m561 564h13l1-3 16 6 6 6v7l-4 7-2-2-11 2-1-1v-7l-4-1-4-7h-10l-2-4z"/>
		<path id="Path 939" class="s15" d="m283 565l12-3 6 2 2 7 8 4-2 8-14-3-2 5h-7l-11-10h-4l2-5z"/>
		<path id="Path 940" class="s55" d="m691 563l6-1 1 1-2 5h-4z"/>
		<path id="Path 941" class="s46" d="m140 565v-2l16 6v1l-10-1z"/>
		<path id="Path 942" class="s52" d="m244 567l2-4h5l12 4v8h-2-10-4z"/>
		<path id="Path 943" class="s98" d="m434 567l1-4h3l2 3v1z"/>
		<path id="Path 944" class="s12" d="m470 565l7-2v1z"/>
		<path id="Path 945" class="s59" d="m619 571v-5l6-3 4 3 1 5 7 3v6l4 1 4 4v4l-5 3-7-1v-8l-10-2-4-1z"/>
		<path id="Path 946" class="s6" d="m513 574l-9-7v-3h1l2 2 6 7z"/>
		<path id="Path 947" class="s52" d="m591 567l2-3 8 4v5h-4z"/>
		<path id="Path 948" class="s57" d="m715 569v-5h6l3 3-4 5v-3z"/>
		<path id="Path 949" class="s88" d="m159 569v-3l4-1v5z"/>
		<path id="Path 950" class="s90" d="m179 571v-6h8v6h-2z"/>
		<path id="Path 951" class="s73" d="m201 571v-6h9v8h-5-3z"/>
		<path id="Path 952" class="s12" d="m451 566l8-1-8 2z"/>
		<path id="Path 953" class="s63" d="m507 566l10 1-3 6h-1z"/>
		<path id="Path 954" class="s79" d="m440 567v-1h9 2v1z"/>
		<path id="Path 955" class="s85" d="m553 571v-5l6 1 2 4-1 3z"/>
		<path id="Path 956" class="s52" d="m641 581l-4-1v-6l-7-3-1-5h5l7 6z"/>
		<path id="Path 957" class="s74" d="m240 574l-1-7h5l3 8h-6z"/>
		<path id="Path 958" class="s56" d="m263 575v-8h6l4 3-2 5h-3z"/>
		<path id="Path 959" class="s79" d="m402 569l1-2h4 13v2z"/>
		<path id="Path 960" class="s38" d="m420 569v-2h3 5v2z"/>
		<path id="Path 961" class="s13" d="m428 569v-2h6z"/>
		<path id="Path 962" class="s70" d="m514 573l3-6 10 2v12l-3 1z"/>
		<path id="Path 963" class="s51" d="m667 579l-2-12h4l2 5 6 1 2 4-1 3h-5z"/>
		<path id="Path 964" class="s32" d="m720 572l4-5h3 10v8h-15v6l-18 1v-1l2-10h9z"/>
		<path id="Path 965" class="s79" d="m156 570v-1h3l4 1 3 1v1z"/>
		<path id="Path 966" class="s95" d="m385 570v-1h17z"/>
		<path id="Path 967" class="s48" d="m527 581v-12h8l5 5-5 7z"/>
		<path id="Path 968" class="s59" d="m715 571v-2h5v3z"/>
		<path id="Path 969" class="s83" d="m166 572v-1h2v1z"/>
		<path id="Path 970" class="s96" d="m168 572v-1h11 6v1h-1z"/>
		<path id="Path 971" class="s84" d="m185 572v-1h2 14l1 2h-5z"/>
		<path id="Path 972" class="s49" d="m315 575v-4l16 4 4 6h10l5 6-1 4h-2-6l-12-2v-6z"/>
		<path id="Path 973" class="s40" d="m549 576l4-5 7 3 8 9v2l-7-4h-10z"/>
		<path id="Path 974" class="s20" d="m560 574l1-3h10l4 7 4 1v7l-11-3z"/>
		<path id="Path 975" class="s65" d="m613 578l2-6 4-1v9h-4z"/>
		<path id="Path 976" class="s6" d="m197 574l-13-2h1l12 1z"/>
		<path id="Path 977" class="s4" d="m385 581l-1-9 2 9 5 1 1 4z"/>
		<path id="Path 978" class="s95" d="m197 574v-1h5 3v1z"/>
		<path id="Path 979" class="s83" d="m205 574v-1h5 15l15 1 1 1z"/>
		<path id="Path 980" class="s38" d="m513 574v-1h1l10 9 2 3-5-1z"/>
		<path id="Path 981" class="s70" d="m597 580v-7h4l3 3-1 4z"/>
		<path id="Path 982" class="s37" d="m535 581l5-7 2 2-1 8h-1z"/>
		<path id="Path 983" class="s12" d="m261 577l-10-2h10z"/>
		<path id="Path 984" class="s93" d="m261 577v-2h2 5l-1 2z"/>
		<path id="Path 985" class="s39" d="m267 577l1-2h3 4l11 10v2l-12-10z"/>
		<path id="Path 986" class="s43" d="m309 583l2-8h4l14 8v6l-12 4-6-3z"/>
		<path id="Path 987" class="s76" d="m541 584l1-8h7l2 5-1 5h-5z"/>
		<path id="Path 988" class="s73" d="m603 580l1-4 9 2 2 2v7l-5 1-7-1z"/>
		<path id="Path 989" class="s47" d="m678 580l1-3h4l6 3v4l-2 3h-7z"/>
		<path id="Path 990" class="s8" d="m669 585l-2-6 6 1v5z"/>
		<path id="Path 991" class="s19" d="m286 585h7l2-5 14 3 2 7-4 2v4l-3 1-6-5-2-2-10-2v-1z"/>
		<path id="Path 992" class="s41" d="m593 587l4-7h6v7l1 9-4 3h-4l-6-4v-3l3-1z"/>
		<path id="Path 993" class="s64" d="m615 587v-7h4l4 1v8l5 4-2 5h-4l-1-6z"/>
		<path id="Path 994" class="s25" d="m623 581l10 2v8l-5 2-5-4z"/>
		<path id="Path 995" class="s41" d="m673 585v-5h5l2 7v2l-2 1z"/>
		<path id="Path 996" class="s85" d="m370 590l-3-5 7-4 1 8z"/>
		<path id="Path 997" class="s86" d="m370 590l5-1-1-8h11l7 5v2l-4 4h-1l-3 3v2l-1 1-12-5z"/>
		<path id="Path 998" class="s11" d="m524 582l3-1h8l5 3v7l-6-1-8-5z"/>
		<path id="Path 999" class="s25" d="m550 586l1-5h10l7 4 1 7-2 3h-5l-6-7h-5z"/>
		<path id="Path 1000" class="s42" d="m689 584l15-3v1l-2 5v3h-8l-6-1-1-2z"/>
		<path id="Path 1001" class="s4" d="m704 582l18-1-16 1-4 5z"/>
		<path id="Path 1002" class="s37" d="m568 585v-2l11 3 1 1 10 5v3l-3 4-8-1-3-6h-7z"/>
		<path id="Path 1003" class="s48" d="m540 591v-7h1l4 2-2 5z"/>
		<path id="Path 1004" class="s7" d="m350 587l8-2 1 7-10-1z"/>
		<path id="Path 1005" class="s38" d="m534 590l-6-1-2-4z"/>
		<path id="Path 1006" class="s51" d="m580 587l11-2 2 2v4l-3 1z"/>
		<path id="Path 1007" class="s36" d="m645 589v-4l6 2v4z"/>
		<path id="Path 1008" class="s25" d="m664 593l5-8h4l5 5-1 3h-8z"/>
		<path id="Path 1009" class="s44" d="m540 591h3l2-5h5l1 2v5z"/>
		<path id="Path 1010" class="s48" d="m604 596l-1-9 7 1v6l-5 2z"/>
		<path id="Path 1011" class="s22" d="m610 588l5-1 6 5 1 6-11 1-6-3 5-2z"/>
		<path id="Path 1012" class="s79" d="m680 589v-2h7l1 2-7 1z"/>
		<path id="Path 1013" class="s6" d="m388 592l4-4-1 4z"/>
		<path id="Path 1014" class="s9" d="m551 593v-5h5l6 7-1 2-8-2z"/>
		<path id="Path 1015" class="s19" d="m317 593l12-4 12 2v4h-15l-1 6-7-2z"/>
		<path id="Path 1016" class="s54" d="m633 591l7 1 5-3 6 2 1 1 2 4h5l-2 3-7-3h-7l-2 3-15-1 2-5z"/>
		<path id="Path 1017" class="s53" d="m678 590l2-1 1 1-2 5h-10v-2h8z"/>
		<path id="Path 1018" class="s57" d="m307 596v-4l4-2 6 3 1 6-8 2z"/>
		<path id="Path 1019" class="s4" d="m553 595l-13-1-6-4 6 1 11 2z"/>
		<path id="Path 1020" class="s48" d="m341 595v-4h6v4l-6 3z"/>
		<path id="Path 1021" class="s41" d="m347 595v-4h2l10 1 2 3-3 4-3-4z"/>
		<path id="Path 1022" class="s5" d="m303 598l-5-6 6 5v1z"/>
		<path id="Path 1023" class="s31" d="m567 595l2-3h7l3 6h-2l-10-1z"/>
		<path id="Path 1024" class="s37" d="m659 596h-5l-2-4 9 1z"/>
		<path id="Path 1025" class="s50" d="m367 596l4-3 12 5 2 3 7 8-1 8-8 8-5-1-1-1v-7l-8-5z"/>
		<path id="Path 1026" class="s93" d="m669 595l-6-2h1 5z"/>
		<path id="Path 1027" class="s7" d="m325 601l1-6h15v3 9h-9z"/>
		<path id="Path 1028" class="s58" d="m341 598l6-3h8l3 4-1 8-6 3v3h-2-5l-3-6z"/>
		<path id="Path 1029" class="s47" d="m358 599l3-4 6 1 2 15h-7l-5-4z"/>
		<path id="Path 1030" class="s46" d="m561 597l1-2h5v2h-1z"/>
		<path id="Path 1031" class="s22" d="m587 599l3-4 6 4z"/>
		<path id="Path 1032" class="s42" d="m304 597l3-1 3 5-4-1-2-2z"/>
		<path id="Path 1033" class="s5" d="m600 599l4-3h1l6 3v1l-6-2-5 2z"/>
		<path id="Path 1034" class="s1" d="m626 598l15 1 2-3h7l7 3-13-2-2 3h-31v-1l11-1z"/>
		<path id="Path 1035" class="s38" d="m383 598l1-1 2 4h-1z"/>
		<path id="Path 1036" class="s39" d="m576 599l-10-2h1l10 1z"/>
		<path id="Path 1037" class="s0" d="m306 600l-3-2h1z"/>
		<path id="Path 1038" class="s1" d="m576 599l1-1h2l8 1h9 4v1z"/>
		<path id="Path 1039" class="s50" d="m310 601l8-2 7 2 7 6h9l3 6h5v5l4 3-1 4h-3-4l-12-5-5-3-5-4-2-1-3-2-5-4-2-2-1-1z"/>
		<path id="Path 1040" class="s0" d="m310 603h1v1h-1z"/>
		<path id="Path 1041" class="s0" d="m310 603l-4-3 4 1z"/>
		<path id="Path 1042" class="s12" d="m392 609l-7-8h1l9 8v1z"/>
		<path id="Path 1043" class="s42" d="m351 613v-3l6-3 5 4h7l8 5v7h-5l2 2v1l-1 2h-3-6l-3-1h-3l-6-2 1-4 4-2v-4z"/>
		<path id="Path 1044" class="s27" d="m383 625l8-8 1-8 3 1 6 4 1 1 1 1v4h-6l-1 6-6 1z"/>
		<path id="Path 1045" class="s0" d="m395 610v-1l6 5z"/>
		<path id="Path 1046" class="s6" d="m323 614l-2-2 2 1z"/>
		<path id="Path 1047" class="s24" d="m323 614v-1l5 4h-4z"/>
		<path id="Path 1048" class="s70" d="m353 621l-4-3v-5h2l6 2v4z"/>
		<path id="Path 1049" class="s1" d="m345 625l-9-1-3-4z"/>
		<path id="Path 1050" class="s39" d="m396 626l1-6v6z"/>
		<path id="Path 1051" class="s0" d="m374 625l-2-2h5l1 1z"/>
		<path id="Path 1052" class="s13" d="m358 627l-9-2h3z"/>
		<path id="Path 1053" class="s39" d="m389 627l-6-2 7 2z"/>
		<path id="Path 1054" class="s0" d="m373 628l1-2 1 3h-2z"/>
		<path id="Path 1055" class="s13" d="m390 627l6-1h1l-2 3h-5l-1-2z"/>
		<path id="Path 1056" class="s5" d="m361 629v-2l3 1v1z"/>
		<path id="Path 1057" class="s4" d="m364 629v-1h6v1z"/>
		<path id="Path 1058" class="s95" d="m370 629v-1h3v1z"/>
	</g>
</svg>