<svg version="1.2" xmlns="http://www.w3.org/2000/svg" viewBox="0 0 1000 1000" width="1000" height="1000">
	<title>Couesius_plumbeus-svg</title>
	<style>
		.s0 { fill: #e2d3ae } 
		.s1 { fill: #d9c89e } 
		.s2 { fill: #d2b777 } 
		.s3 { fill: #dbcba8 } 
		.s4 { fill: #d3bd87 } 
		.s5 { fill: #d6bf7f } 
		.s6 { fill: #5e3f1e } 
		.s7 { fill: #e3d6b6 } 
		.s8 { fill: #e0cea3 } 
		.s9 { fill: #d5c192 } 
		.s10 { fill: #dbc891 } 
		.s11 { fill: #cfb168 } 
		.s12 { fill: #d2c09d } 
		.s13 { fill: #533417 } 
		.s14 { fill: #c7ac72 } 
		.s15 { fill: #a58a41 } 
		.s16 { fill: #68461f } 
		.s17 { fill: #9a7d3d } 
		.s18 { fill: #977646 } 
		.s19 { fill: #553e2d } 
		.s20 { opacity: .9;fill: #deceac } 
		.s21 { fill: #946f2f } 
		.s22 { fill: #594235 } 
		.s23 { fill: #a3834a } 
		.s24 { fill: #a37c39 } 
		.s25 { fill: #c2a85d } 
		.s26 { fill: #8a6742 } 
		.s27 { fill: #704c23 } 
		.s28 { fill: #8a6f36 } 
		.s29 { fill: #4e382a } 
		.s30 { fill: #845f2c } 
		.s31 { fill: #7d5528 } 
		.s32 { fill: #463329 } 
		.s33 { fill: #bda567 } 
		.s34 { opacity: .9;fill: #d9c8a2 } 
		.s35 { fill: #b3984a } 
		.s36 { fill: #b89f54 } 
		.s37 { fill: #ab8939 } 
		.s38 { fill: #b4933c } 
		.s39 { fill: #7a5937 } 
		.s40 { fill: #c6af90 } 
		.s41 { fill: #bb9c72 } 
		.s42 { fill: #624939 } 
		.s43 { fill: #af985a } 
		.s44 { fill: #bf9a4b } 
		.s45 { fill: #705942 } 
		.s46 { fill: #cba259 } 
		.s47 { fill: #cab383 } 
		.s48 { fill: #6a4b2b } 
		.s49 { fill: #94724e } 
		.s50 { fill: #956332 } 
		.s51 { fill: #b3853b } 
		.s52 { fill: #9f8768 } 
		.s53 { opacity: .8;fill: #dccca8 } 
		.s54 { opacity: .8;fill: #d8c7a1 } 
		.s55 { opacity: .1;fill: #dccca6 } 
		.s56 { fill: #ab8f50 } 
		.s57 { fill: #8b725d } 
		.s58 { fill: #3a2921 } 
		.s59 { opacity: .7;fill: #dccda9 } 
		.s60 { fill: #c98b4f } 
		.s61 { fill: #b68566 } 
		.s62 { opacity: .8;fill: #e4d4b8 } 
		.s63 { fill: #976c38 } 
		.s64 { opacity: .9;fill: #977546 } 
		.s65 { fill: #c96d44 } 
		.s66 { opacity: .8;fill: #cfbd92 } 
		.s67 { fill: #b25235 } 
		.s68 { opacity: .9;fill: #a9855e } 
		.s69 { fill: #151217 } 
		.s70 { opacity: .7;fill: #c1ab76 } 
		.s71 { opacity: .1;fill: #604019 } 
		.s72 { opacity: .4;fill: #d1c192 } 
		.s73 { opacity: .1;fill: #ccb788 } 
		.s74 { opacity: .1;fill: #e0e6f8 } 
		.s75 { opacity: .8;fill: #ab9055 } 
		.s76 { opacity: .1;fill: #dfd6b6 } 
	</style>
	<g id="Background">
		<path id="Path 0" class="s0" d="m112 537v-1h6l2 9h-8zm400 27l7 1 9-6h8l7-4 16 2 23 9v7l-3 3-15 1v-6l-6-2-2-4-14 1-14 16v5l-13 2-10 1-2 11-5 6-4 40-7 10 3 11-6 4h-10l-2-2 5-7-1-27-5-22-5-6-1-13-7-8-18-2h-4l-2-4v-9l5-5h18l2 3 10 1 3 4h20l3-8h13zm-150 9v-6h14v5zm53 8l-5-3v-5h7l3 8zm201 4l10-2 5-7 9-1 12 4v7l7 7 4 10 9 8v7l-7 4-4 8h-5l-4 4-8 10-1 8-5 3h-3l-7-7v-11l-1-19-7-6z"/>
		<path id="Path 1" class="s1" d="m540 359h8l5-6 3 1 9 16 4 8 3 5 2 13 4 2v8l4 5-2 8-4 4 2 10v4l-7 7-7 2-6-5 4-6-2-30-5-3-3-7h-7v-2l-5-18zm-460 182v-4l6-6h5v2l-1 12h-10zm430 4l25-7 4 5-9 6h-9l-3 6-5 1-1 8-4 3h-13l-3-2v-8l9-12zm378-4h8l2-3 4 4 1 11 8 5v4l5 3 7 13 7 5 1 8 20 10 2 8 7 3v13l-11-1-5-2v-1-10l-8-2-3-8-12-10h-5l-10-10-1-9-8-5-6-11-5-3zm-322 6l1-8 17 2 10 8 38 2 4-4 35-6 26 4h47l2 8-20 1-2 6-5 1h-10-15l-5-6h-18l-1-4h-5l-28 6-6 4h-14l-6-1-3-5zm-454 22l2-10h10l8 2-2 10h-11zm206 42v-12l6-3 8 1-2 8-1 7z"/>
		<path id="Path 2" class="s2" d="m495 355l13-10 4 5v23l-2 9 6 5 2 10-4 2-2 7 20-4 7 4 1 5h9l3 4-2 12 2 8-8 6h-12l-2-5h-4l-2-10-11 5-12 2h-1v-12l-6-3v-6l4-4v-7l-4-2zm427 70l14-6v8l-6 1v11l-9 8-1 7-5 6 1 7v12l-12 2-14-2-1-9 3-3 10-2 10-11 2-19zm-56 65l6-4h9l-1 17-6 5v7l-6 8v30h-6l-5-4v-8l-1-8 4-5v-9zm-694 26l8-1-1 6-7 2zm257 8l11-2 5 2 3-3 6 2 4-2 8 4 13-1h5v9l-24 8-26 1-8-3zm-331 3l4-2h7l3 6v5 1l-12-1-2-3zm20 4v-6h4v6zm491-1l3-3h3v4h4v4l-7 1zm-471 6l6-7 7 1 3 5h14l4-6 11 1-1 5-3 7-5 3-9-1-7 3h-9l-3-6h-8zm736 34l-4-17h6l5 2 1 8 10 7 4 8 10 3 10 10v5l6 8v9h-1l-9-4-1-10-6-6h-4l-6-11-7-1-3-6-8-1zm-666 1l-1-14 8 1 1 7 1 7h-6zm86 42l2-17-3-17 7 2 4 24-4 2-2 6zm114-24l7-8h5 3l1 3-8 9h-8z"/>
		<path id="Path 3" class="s3" d="m122 531l8-1 8 6v5l-9 11h-4l-5-7-2-9v-5zm390 33l1-8 5-1 3-6h9l9-6 27 4 42 8 3 5 6 1h14l6-4 28-6h5l1 4-22 4-3 8-9 1-1 3h4v4l-9 1-5 7-10 2-31-6-8 6-1 8-6 5h-2l-6-8v-1l-4-4 6-8 15-1 3-3v-7l-23-9-16-2-7 4h-8l-9 6zm-206 17v-11l10-13 46 4v6 6l-17 2-12-2-3 16h-6l-8-6h-6zm88-12v-10h18l2 4h14l11 4-5 5v9h-4-7-3l-3-8h-7zm68-4l20-2 10 2 3 2-3 8h-20l-3-4-10-1-2-3zm-86 2l10-2 1 4-3 3h-8zm211 50l11-2 16 19 14 3v11h-2l-9-6-12-9-16-13z"/>
		<path id="Path 4" class="s4" d="m508 344l14-8 3 36 5 3v4h-7l-5-6h-6v-23l-4-5zm428 83v-8h2 10l-1 10h-9zm-20 40l-1-7 5-6 1-7 9-8h8v2l-4 12-4 3-1 8zm-386-17l2-9h12v14l-11-2h-2zm351 36l3-7h6l14 2v10l-2 11h-2l-8-1-6 5-11 17 1 30h-6-2v-30l6-8v-7l6-5zm-790 45l2-4h5v6h-7zm495-2l3-2 5 4 4-3 8 4 3-2 3 6-10 3-16-2zm-152 13l26-1 24-8 10 2v6l-10 5v9l-22 2-25 2-3-4zm-276 5l7-3 9 1v11l-6 6v7h-6l-2-9-4-2zm90 2l10-3 10 2v4l-4 2v11l-16-1-3-7z"/>
		<path id="Path 5" class="s5" d="m539 406l-7-4-20 4 2-7 4-2-2-10-6-5 2-9h6l5 6h7l4 14h11v2l-1 8zm403 1l8-2-2 14h-10v-10zm-12 32v-11l6-1 2 2v10zm-367 88l5-2 2 2h6 6l4 2v8l-2 4-17-2-5-10zm56 4l1-4h2l3 5 9-3 7 2 5-2 5 2 9-3 5 3 7-1 5 1 8 2 4-2h30l2 3 9-2 4 3 7 2 3 6v2h-47l-26-4-35 6-6-8h-7l-4-4zm-507 5v-5h6v5zm640 2l6-6 3 4 4-2 4 3 7-1 8 10 8 4v3h-18-8l-2-6h-7l-5-4zm-627 14h4l9-11h8l3 6-17 14-8-2zm169 61h4l2-6 4-2-4-24h6l4 2 1 28-4 10h-6l-5 10h-5l-4 6h-10l-2-2 6-8 8-1zm130-29l5 1 1-4h4l2 4-4 4-1 11-9 8-3 7-7-8-6-10 2-4h8zm498 29v-9l-6-8v-5h5l12 10 3 8-1 9z"/>
		<path id="Path 6" class="s6" d="m417 433l3-1v5l-4 8-10 4v10l-32-2v-4l15-11v-7zm-73 23v-5l9-4 11 1 4 5v4l-20 2zm-167-3l13-3 8 18h-12l-8-8zm357 16v-8l22 4 2 4h9l3 3v7h-9l-7-2-12-1zm50 10l2-18h5 1l9 2 32 6 9 2v1l-3 5-16 2-1 5-3 2-3-1-27-1zm84 12l4-12 10 1 26 4v11 4h-4l-3-4-9 2-2-4h-4l-2 4-5-4-10 2z"/>
		<path id="Path 7" class="s7" d="m90 545l1-12h7l2 3 12 1v8zm438 42v-5l14-16 14-1 2 4 6 2v6l-6 8h-5l-17 4h-7zm-152-15h8l3-3h7l16 4v5l5 3-7 8h-7l-1 3-4-1-52-2 1-14 17-2zm276 7l7-8 8 1 15 1 10 7v10l-1 4h-3l1 7-1 2-8 9v6 1l-4 8-4 1v11 1l-6 19-7 2-2 1-2 1-14-4-3-4 5-3 1-8 8-10 4-4h5l4-8 7-4v-7l-9-8-4-10-7-7zm-162 89l-3-11 7-10 4-40 5-6 2-11 10-1 3 4v5 22l-2 3v14l-1 1-1 2v1l-8 18-11 9z"/>
		<path id="Path 8" class="s8" d="m196 569h-6l-2-8h8zm-34 7v-7h6 5l3 5 8 2v5l-15-2zm408 22l6-5 1-8 8-6 31 6 4 27 7 6 1 19-14-3-16-19-11 2-6-5-7-7zm-117 59l5-15-6-8 2-14-7-8-1-15-6-7v-5l18 2 7 8 1 13 5 6 5 22 1 27-5 7h-4l-14-11zm-129-61v-7h6 2l1 7-1 1z"/>
		<path id="Path 9" class="s9" d="m522 336l10-4 3 5v13l5 9v16h-10l-5-3zm17 70l5-3 1-8h7l3 7 5 3 2 30-4 6 6 5v6l-6 3h-14v-14l8-6-2-8 2-12-3-4h-9zm399 33v-10h9l1 4-2 8h-8zm-62 114l-1-30 11-17 6-5 8 1v3l-6 8-6 3 2 14-2 11-2 12 5 3 6 11 8 5 1 9-10-3-4-8-10-7-1-8zm-366-18l2-8 6 2 1-2 16 7v4l-25 7zm102 1l7-1 4 4h7l6 8-4 4-38-2-10-8 2-4 16 2zm-128 19v-9l10-5 7 4-9 12zm-352 6l17-14h9l-2 11 4 2 2 9v7l-7-1-6-2-19-2zm296 2v-8h6l3 4 25-2v8l-5 2h-18zm507 55l1-9 8 2v10z"/>
		<path id="Path 10" class="s10" d="m530 379v-4h10l5 18h-11zm423 23l8-1 6 9v7l-6 5v5l-4 6h-9l-1-4 1-10 2-14zm-19 51l4-12h8v10l-4 3zm-30 28l12-2v11l-2 1h-10zm-4 24v-3h2v2zm-365 29l17-5h10l5 10-1 8-27-4-4-5zm-41 1l5-3 11 3v10h-9l-7-4zm250 10v-2h8l5 4h7l2 6-5 2-15-2zm-576 24v-7l6-6h5l3 4-9 9zm143 42l-1-28h6l8 6v7l-6 3v12zm108 4l3-7 9-8 1-11 4-4h4v5l6 7 1 15 7 8-2 14 6 8-5 15-20-21-9-13z"/>
		<path id="Path 11" class="s11" d="m479 367l15-12h1l-1 44 4 2v7l-4 4v6l6 3v12h-7l-1-6-4-1-6-17 2-18-6-21zm451 45l8-3v10h-2l-14 6v-8l3-3zm-407 29l3-5h4l2 5-2 9-5-2zm357 34l1-4 8-1 1 9h-6zm-716 7l6-1 6 2v4l-5 4-7-1zm-55 43l4-3 5 3v6h-6zm625 10l3-3 7 1 5-1 3 6v5h-8l-3-6zm123 6l-5-2v-6h4zm-609 3l3-3h7v5l-10 3zm-52 17l2-12h24l3 8-1 8h-8l-1-7-8-1 1 14h-4l-8-2zm86 37l-6-27 13 2 4 6 3 17-2 17-5 13-8 1-6 8h-1l-3-2-5-6 4-3 3-16 9-5z"/>
		<path id="Path 12" class="s12" d="m532 332l14 1 4 8 2 7 1 5-5 6h-8l-5-9v-13zm-401 193l6-4h6l2 3-1 5-6 7-8-6zm-64 15l3-4 10 5v4l-8 2-5-1zm201 8l10-1 2 8 18 2 13-4 5 4-10 13v11h-6l-7-2-4-6-13-2-12-6v-11l4-2zm144 11v-5l4-1 12 2v8h-14zm50-2l22-2 8 2v8l-10-2-20 2zm-100 4l32-2v10h-7l-1-4-10 2h-14z"/>
		<path id="Path 13" class="s13" d="m316 437l27-2h46v7l-15 11h-6l-4-5-11-1-9 4v5l-24 1-25 2-5-1-3 3h-21l-4-4h-7l-1 6-8 1-7 3-6-1-1 3-2-2-15 2h-6l-11-1-8-18 54-9 16-1 14-1 21-2zm218 24l-1-8 11 2h14l8 3 19 3h1l-2 18h-14v-7l-3-3h-9l-2-4z"/>
		<path id="Path 14" class="s14" d="m904 441l3-6h7l-2 19-10 11-10 2v-10l4-6 7-1zm-721 72l11-2v5l-2 8-9 6-11-1v-6l7-2 1-6v-2zm669 20l-2-14h10v9l-4 5zm-368-9l5-2 10 4v6l-5 3-10-2zm-70 2l8-3 7 1-3 15-14 2zm168 1l1-3h4l2 3-3 2zm-408 18l5-3 3-7h14l2 14-2 12h-8l-6-1-3-4h-5zm700 25l-5-2-7-15h6 2zm28 36l-1-13h4l6 6 1 10h-2z"/>
		<path id="Path 15" class="s15" d="m881 441l16-10 1 2v8l-2 8h-14zm-15 18l10-2-1 7-9 7h-6v-5zm-500 36l3-12h22l8 6 31-2 12 4v11l-16 1-10-3-17 3-2-3-28-2zm303 0l10-2 5 4 3 6-6 6-9 3-8-1v-15zm-382 23l8-1 11 2 9 2-3 12h-16l-5-4h-6l-2-8zm-38 2l9-1 2 3-4 4v7l-6-1-2-5zm574 27l1-8h10v9zm-612 25h6l7 3 7 3 15 18-7 9-5-2-17-21z"/>
		<path id="Path 16" class="s16" d="m420 437l18-2 11 2 7 5 23 4-1 13-14 2-58-2v-10l10-4zm-259 18l16-2 1 7 8 8v5l-5 6-11 2-6 1-7 1-2 7-1 2h-5v-5l-7-2v-6l-9-4-11 5v7l-8 2h-10l-6-5v-12l7-3 38-10 8-2zm93 8l1-6h7l4 4-4 2v7h-4zm368 21l1-5 16-2 3-5 8 1 22 5v1l-4 12-5 4-8 1-21-5zm86 11v-11h6l27 2 1 1 1 14-1 1-20-5-8 4-1-4z"/>
		<path id="Path 17" class="s17" d="m449 398l3-4h2l-2 4zm421 49l11-6 1 8-6 8-10 2-2-7 2-3zm-616 28l4-5h4l7 3h25l2 4-6 6-10 2-18-2h-8zm556 2l15-7h7v4l-7 8-11 7-6-4zm-490 10l-2-10h20 18l10 2 3 4-3 12h-4l-1-3-15-1h-9l-3-4zm-82 0v-6h4l2 3v3zm600 7l-2-6 6-1zm-268 10l1-9h15v11zm258 9l2-2h6l2 6-4 22h-10v-1l-3-6 3-1v-12l4-1zm-636 11l2-8 6 3-3 5zm638 48v-6l-8-6-4-8-4-1v-6h2l7 2 11 1 13 10v4l8 5 2 6-2 11-8-2-2-1-2-4zm-613 0l-1-7h8v10zm42 45v-7h3l1 6z"/>
		<path id="Path 18" class="s18" d="m295 459l25-2 2 8 16 6v6h-20-22l-2-4v-8zm170 10l21-1 13 5 43 6 6 4 6-2h7l10 14-1 9-6 1-1-2-7 2-1-2-11 2h-20-6l-12-2-4-6v-9l-15-7-61-2-35 4h-22l-3-4-10-2 2-5h6l2-3 50 4zm300 64l7-2 4 4v1l-7 1-4-3zm90 51l2-11 5 1 4 7-5 6h-2l-4-2z"/>
		<path id="Path 19" class="s19" d="m318 499l2-2 18 3 2 7v4l-17-1-5-5zm-147 13l-5-3v-11h7l1 3v10zm123-11l8-2v6l4 2v12l-11-2zm105 2l17-3 10 3-6 6 2 14-8 3-1-3h-11l-6-3zm49-1l12-1 9 4v6l10 7v6l-13 1-8-4-4 2-6-2zm108 3l7-2 1 2v8h-6zm-194 11l9-9 9 2-2 10-1 5-6-2-9-3zm280-5l4-3 2 3h10l2 17-9 3-5-2v-11zm151 5v-3l4-1 3 7h6v11l-3 2-5-3-2-12z"/>
		<path id="Path 20" class="s20" d="m960 612l-7-3-2-8-20-10-1-8-7-5-7-13-5-3v-4l-8-5-1-11 3 1 3 5 8 3 11 12 7 5 22 28 1 6 6 4v4zm-888-65l8-2h10 22 8l5 7-1 7h-10l-2 10h-5l-11-3-10-3-14-6zm574 20l3-8 22-4h18l5 6-5 2h-2l-15 2h-5l-15 2zm-6 8v-4h12 7l-7 8zm-310 14l3-16 12 2-1 14-2 1-10-1zm70 3l1-3h7v4l-2 4zm-93 29l4-10h7l11 1-14 15h-4z"/>
		<path id="Path 21" class="s21" d="m449 437l2-6 9-6h18l6 5-2 16h-3l-23-4zm-217 32l1-3 6 1 3 6v8h-4zm557 15l4-1h5l10 2 6 4v8l-4 2v10l3 2-2 8h-5-6l-3-7-4 1v3l-7-4-2-8-6-3v-14l5-2zm-686 8l1-3h10l4 8 1 12h-4v-11l-11-3zm721 27v-6h4v5zm-759-1l16-2 1 4-20 5v-6zm751 22l8-2v1l-1 8-7-2z"/>
		<path id="Path 22" class="s22" d="m302 499l5-2 11 2v6l5 5 17 1 3 8-6 1-4-3-2 4-5-2-11 2-9-2v-12l-4-2zm66 1l1-2 28 2 2 3-3 17-3 3h-9l-6-4 2-10-9-2zm-30 0l8-1v1l-1 6-5 1zm146 4l3 2 1-4 4-1 1 4 13-1 3 9h7l2-8h6l-2 19-3 1h-7l-13 1-10-4-5 2h-5v-6l-10-7v-6l4-3 3 3zm60 1l11-2 1 2 2 8h6l6 6 1 6-1 2-2-2-5 2-11-1-10-1z"/>
		<path id="Path 23" class="s23" d="m391 483l35-4 61 2 15 7v9h-9l-1 4-4 1-1 4-3-2-1-8-11-1-9-6-21 2-12-4-31 2zm239 14l4-6 21 5 8-1 1 1v15h-6-10l-2-3-4 3-12-2zm-44-2l2-2h7l2 4h19v8l-1 2h-13l-4 1-4-3-8 1zm98 2l2-4h4l2 4 9-2 3 4-2 4h-15zm-555 1l3-1h1l1 8-1 5h-5zm585 3l8-4 20 5v3l-1 8-6 2-1-3-16 2v-6l-4-3zm58 10l2-10h4l6 3 2 8-4 2-3-3-2 4h-5zm-718 23v-7h8v5 5zm807 53l5-6h8l-1 12-10-4h-1z"/>
		<path id="Path 24" class="s24" d="m484 430l4-4 4 1 1 6h7 1l3 17h-4l-18-4zm-269 39l15-2 2 2 6 12v6l-14-2-9-11zm-34 10l5-6v-5h12l11 1 2 5-7 9-12-2-1 6-3 5 4 2v1l2 14v2l-11 2 1-10-10-2-1-3h-7l-2-1v-7l7 1 5-4 5-2zm81 4l18 2 10-2 6-6h22l2 10v10l-2 2-11-2-5 2-8 2-20-1-10-3zm84 16v-8l15 1 1 3v4l-5 1h-11zm146 2l1-4h9l4 6v1l-13 1zm256 5l4-5 8 2 2 6 10 2v4l-4 1-5-2-9 2-5-3z"/>
		<path id="Path 25" class="s25" d="m917 418l5-1v8l-8 10h-7l-3-2v-6l2-3 7-4zm-21 31l2-8h6l-1 9-7 1zm-24 37v-11h8l4 4-3 7zm-26 31l2-14 6-4v-7l4-3 8 1-6 29h-10zm-696 0l5-5 9 4 7-2 1 2v7 6l-4 6h-14l-3-5-7-1 1-5 4-1zm83 12l7-4 8 2 2 5 6 1 2 3v5h-7l-3 3-10-7zm543 6h10l2 3 4-3 5 1 5 1 6 25-14-5-2-4v-3l-8-4-8-10zm-530 34l2-5 16 1 12 6 6 27-14 1-5-2v-10l-17-13zm630 12l1-7 8 1 3 6-2 3z"/>
		<path id="Path 26" class="s26" d="m320 457l24-1 4 3 20-2h6l32 2 58 2 1 8-49 4-50-4-2 3h-6l-2 5h-18v-6l-16-6zm166 11v-3h8l4 2 1 6zm56 11v-3l12 1v4l-6 2zm19 2v-2h9 14l5 5-1 9-2 2h-15zm58 5l3-2 12 7-4 6-12-2v-6zm-414 6l2-3 31 6v17l11 8-1 7-8-2-11-10-4-8h-7l-7-3zm-11 17l-2-14h8l3 12v2zm-146 23v-6l6 1v7h-3z"/>
		<path id="Path 27" class="s27" d="m478 459l1-13h3l18 4v11h-5l-1 4h-8zm28-7l12-1 13 2h2l1 8v8h-10l-6-2-3-5-9-1zm-295 22l-2-5h6v5zm-89 13v-7l11-5 9 4v6h-2l-8 3v9l-3 1-7-1zm621 14l-1-14h28v14l-2 3-4-3-4 2-8-2-4 5-2-1v-4z"/>
		<path id="Path 28" class="s28" d="m837 465l27-13 2 7-6 7v5l-4 3v8l-14 5-6 1 2 6-2 17h-6l-3-12-13-2v-8l11-7 7-8v-4zm-595 16v-8h4l8 2v8l-10 1zm-109 29l1-5h10l2 4-9 7-4-1zm670 22l3-2 10 10v5h-2-3v-5l-8-5zm-564 73l7-9 13 14v7l-1 4 8 6 5 6h-1l-22-14-1-1-9-8v-1z"/>
		<path id="Path 29" class="s29" d="m357 500l5-1 6 1 3 7-9 9-4-3zm69 3l16-1h6v19l-3 3-5-2-11 2-7-1-2-14zm138 2l6-1 16 2 8-1 4 3 4 2v-3h13l1 2-4 7v11l-3 3-3 2-8-4-4 3-5-4-2-3h-4l-1 3h-6l-5-2-1-6-6-6zm60 20v-17l6 1 12 2 4 7v11l-5 2-7-2-4-4zm40-14l8 1v9l8 6-3 4-5-1-7 1-5-3-2-17zm23 3l2-3 9 3 4-3 3 3 9-2 4 2 16-2 1 3-3 1-2 16-9 2-2-3h-30l-3-5zm124 5l2-8 11 2v6 12l-3 1-10-7zm-67-4l5-2 5 3 9-2 5 2 4 9v6l-7 2-7-1-6 6-3-6-5 1zm-531 13h-3v-9l4 2z"/>
		<path id="Path 30" class="s30" d="m425 425l12-13 6 7 11 2h4l2 4-9 6-2 6-11-2-18 2v-5zm-138 36l3-3 5 1-1 6h-5zm207 4l1-4h5 6l9 1 3 5 6 2h10l8 7v3l-43-6-1-6zm-255 2l7-3v9h-4zm-181 20l9-4 6 8 1 15-9 3-5-1 1-17zm712 14v-14h8v14h-4zm43 10l-3-2v-10l4-2 13 2 3 12-2 2h-4zm-619 0v-2h9l1 10h-4l-6-3zm40 94v-2l5 2-1 4-2-1z"/>
		<path id="Path 31" class="s31" d="m368 457v-4h6v4zm96 4l14-2 8 6v3l-21 1zm-218 3l8-1 4 7-4 5-8-2zm-179 19l5-4 26-7v12l6 5-1 3-7 4v4l4 1-1 5 4 5-6 3 1 3v4l-4 2-12-3-1-4v-9l-7-1-1-15zm47 6l8-2v10h-4zm-52 30l-4-2 2-9 5 1v9z"/>
		<path id="Path 32" class="s32" d="m346 500h11l1 13 4 3v3l-3 3-4-3h-12l-3-8v-4l5-1zm-281 9l9-3 7 1v9l-16 2zm533-1l4-1v3zm18 1l6-1h2v17l-2 2h-2-5-3v-11zm56 3l9-3 6 5-1 12-6 1-8-6zm100 3h5l2-4 3 3-2 9-8 2-4-9zm-37 0l6-2 3 2v18l-7-1-3 3-4-3 2-16zm71 15v-11h5v6l10 7 3 6-8 2z"/>
		<path id="Path 33" class="s33" d="m122 525v-6h3l6 6-1 5-8 1zm280-2h11l1 3-2 15v2l-48 4h-9l-5-4-6 2-16-2-2-6 3-8 41 2 28 2zm-144 13l27-7h6l5 4h16 4l2 4v6h-13l-4 5-8 1-7-4-8 2-10 1-10-2v-5zm628 48l2-3 7 1 6 11 1 13-14-6z"/>
		<path id="Path 34" class="s34" d="m578 433l-2-10 4-4 4 2v12zm338 34l13-3 1-8 4-3 8 1-2 9-17 22-7 5v-11zm-14 35l2-11h10l-12 13zm-14 39l2-11 5 3 3 5-2 3zm-838 6l1-13h3l8 3 5 3v6l5 1v10h-4l-5-2zm674 13l2-6 20-1 15 2 5-2h8v6h-9-14l-17 1zm236 52l3-2 6 4v1l4 5 3 3 1 4-14-1h-3v-1z"/>
		<path id="Path 35" class="s35" d="m898 441v-8h6l3 2-3 6zm-380 10v-10h5l2 7 5 2 1 3zm358 6l6-8h14v2l-4 6v10l-3 3-8 1-1 4h-8-6v-4l9-7zm-34 30l14-5h1l1 7-4 3v7l-6 4-2 14h-8l-2-6 2-17zm-400 4l21-2 9 6 1 7-4 3-9-4-12 1h-6zm-305 25l9-7 4 8-1 6-4 1-2-3h-6zm-33-4l9-1 1 4-1 2h-9zm156 10l23-1 2 8-27 7-2-3v-7zm542 15l1-2 8 5v5h3v6l4 1 4 8 8 6v6l-16-5-6-5z"/>
		<path id="Path 36" class="s36" d="m857 482l9-7h6v11l-6 4-8-1zm-23 57l4-22h8l4 2 2 14v6l5 2v8l5 4 7 15 5 2 3 4-1 7h-2-8l-4-7-5-1-2-6-8-5v-4l-13-10zm-463-17l6 2 1-5 6 4h9l3-3 6 3-4 10-28-2z"/>
		<path id="Path 37" class="s37" d="m244 484l10-1h8l2 14-18-2-2-8zm76 13v-10h14l3 4h9v8l-8 1zm-166-5l1-2h9v7h-6zm208 7v-4h4l3 3-1 2zm319 10l6-6h15v2 6l-4 3-9-3-2 3zm-568 2l2-2h4l1 1v5h-6z"/>
		<path id="Path 38" class="s38" d="m856 482v-8l4-3h6v4l-9 7zm-652 1l7-9h4l9 11 14 2h6l2 8h-8l-31-6zm-34-2l11-2v6l-5 2v-4zm-15 9l2-7 7-1v8zm-23 7v-9l8-3v10l-7 2zm-32 4l-4-1v-4l7-4 1 3 1 7zm602 10v-6h6 6l4 3v6l-4-2-9 2zm95 25l1-7 5 3v3l-1 2z"/>
		<path id="Path 39" class="s39" d="m554 481v-4l7 2v2zm109 14l5-4 1 4-5 1zm-463 0l5-3 6 12-4 3h-4zm-26 16v-10l10 2-1 10h-3zm445 20h-4v-4h5z"/>
		<path id="Path 40" class="s40" d="m98 521v-4h6 9v5l-4 3h-7zm-36 16v-5l8 4-3 4zm216 10l8-2 7 4 8-1 4-5h13l8 4 2-4 16 2 6-2 5 4h9l48-4 4 10-4 1v5h-18l-32 2-46-4-5-4-13 4-18-2z"/>
		<path id="Path 41" class="s41" d="m760 503l4-2 4 3 2-3h4l-2 10-10-2zm-662 14l-1-3 6-3 1 1v5zm15 0l1-2h6l2 4v6h-4l-5-3zm406 8l3-1 20 1 10 1v3l-17 5-16-7zm-321 7l5-5 4 1 1 4 5-3h15l-2 14-4 2v4h-24l-2-14z"/>
		<path id="Path 42" class="s42" d="m274 500l20 1 1 16-8 1-1-3-11-3zm232 4v-1l12 2-2 8h-7zm16 20l2-19h20l-2 20z"/>
		<path id="Path 43" class="s43" d="m315 521l11-2 5 2 2-4 4 3 6-1h12l4 3 3-3 9 3-1 9-41-2-3 8h-8l-2-4h-4zm-132 9l9-6h5l1 8-2 3h-14zm85 69l14-1v5l-9 5-5-5z"/>
		<path id="Path 44" class="s44" d="m454 394l6-7 8 7 4 22 6 3v6h-18l-2-4h-4l-2-23zm-314 101v-10h2l7 2v5zm333 7l-1-7 11 1 1 8-8 1zm-302 10l3-1 6 2v2l-8 1-1-2zm53 63v-10h14l3 4h5v5l17 13v10l5 2v4l-4 1-2 6h-3l-13-14-15-18z"/>
		<path id="Path 45" class="s45" d="m249 520l-11-8v-17h8l18 2 10 3 1 12 11 3 1 3-4 3-23 1-2-3zm-42-13l4-3 7 3v11l-4 3-4-2zm-10 17l3-5h4l-1 8-5 5zm425 3l2-2h6l4 4-9 3z"/>
		<path id="Path 46" class="s46" d="m474 371l4-1 6 21-2 18 6 17-4 4-6-5v-6l-6-3-4-22-8-7 12-14zm39 60l11-5 2 10-3 5h-5l-5-4zm-289 134l1-8 16 2 4-2 3 7-2 5h-5l-3-4z"/>
		<path id="Path 47" class="s47" d="m499 526l13-1v2l-2 8-11-3zm-181 17v-6h8l2 6-2 4zm94-2l14-2 8 3v13h-6l-12-2-4-10z"/>
		<path id="Path 48" fill-rule="evenodd" class="s48" d="m506 461v-9l-2-2h-4v11zm113 25l-3-1 2 4zm-428 1l-3 5 4 2zm-58 10l1 8h10l6 12 5-5 9 4 7-2v-2l-5-3v-11l-2-1h-6l-4-5h-5l-9 3z"/>
		<path id="Path 49" class="s49" d="m266 461h21l2 4h5v8h-25l-7-3v-7zm322 32l1-9 27 1 2 4v6l-2 2h-19l-2-4zm-468 22v-5l6 2-1 7h-3zm-84 10l6-2 6 3v6l-12-2zm722 7l7 1v1l-4 2z"/>
		<path id="Path 50" class="s50" d="m38 498l20-11 3 4-1 17-2 9 4 2v6 2h-8l-6-1-6-3-6 2h-6l-6-7 1-9 9-9z"/>
		<path id="Path 51" class="s51" d="m501 433l12-2v6l5 4v10l-12 1-2-2zm114 74l1-2 6 3-6 1zm126 6l1-8h4l2 1 1 7-5 2z"/>
		<path id="Path 53" class="s52" d="m214 521l4-3v-11h7l4 8 11 10-7 4h-5-15v-1zm356 6l1-2 5 2z"/>
		<path id="Path 55" class="s53" d="m564 446l7-2 7-7v-4h6l-2 9-7 10-9 2-2-2zm-268 185l5-10h6l4 6-4 5-11 3z"/>
		<path id="Path 57" class="s54" d="m961 401l1-2h6 4l1 4v3l-6 4zm-15 40l2-8h9l-4 12-6 6h-1zm-916 91l6-2 12 2 3 2-1 13-14-7-5-3zm744 27v-6h18l2 4v7l-9-3zm-570 22v-10h4l3 1 6 10-7-1z"/>
		<path id="Path 58" class="s55" d="m552 348l-2-7h1l2 7zm13 22v-1l4 9zm7 13l-3-5 4 5zm6 15v-1l5 14h-1l-4-5zm383 1l7-2v2h-6zm12 7v-3h1zm-6 4l6-4-6 11zm-6 17v-5l6-5-5 10zm-386 25l7-10 2-9h1v8l-6 9-3 2zm-505 108l-2-3h4l14 6-8-1zm857 3v-1l6 2 2 4h-1zm-829 6l-2-3 11 3v3zm50 6l1-2 6 2v2zm148 60l11-3v1l-3 4-15 1zm158 24l-21-20v-3l20 21z"/>
		<path id="Path 59" class="s56" d="m897 431l7-4v6h-6zm-195 72l2-4h4v6h-6zm-576 9l2-2h5v5l4 1v5l-6 4-6-6zm747 81l1-12h2l10 3 2 16-6-2zm-611 17l2-6 4-1 5 5-3 16-4 3-8-6 1-4 4-1z"/>
		<path id="Path 60" class="s57" d="m203 509v-2h4l3 12v9h3v1l-5 3-1-4-4-1 1-8zm477 18l6-1 3 5-4 2-8-2z"/>
		<path id="Path 62" class="s58" d="m119 509l-1-12h4l7 1-1 12-2 2-6-2zm663 5l4-2 7 4 3 1 2 12-1 7-5-1-4 3-2-3h-10l-4-4v-6l8-2z"/>
		<path id="Path 63" class="s59" d="m287 637l4-6h5v4l-7 3h-2z"/>
		<path id="Path 64" class="s60" d="m62 525l20-5 12 3 4-2 4 4-4 2h-5l-2 4h-5l-6 6v4l-10-5-8-4v-5zm450 2v-2h7v2l-1 2z"/>
		<path id="Path 67" class="s61" d="m742 502l1-1h3v4h-4zm-190 24l11 1-1 2h-10zm-128 58l-1-3h7l-1 4z"/>
		<path id="Path 68" class="s62" d="m173 569l9-9 6 1 2 8h6l8 2v10l-6 1-14-1v-5l-8-2z"/>
		<path id="Path 69" class="s63" d="m443 403l6-5h3l2 23-11-2-6-7z"/>
		<path id="Path 70" class="s64" d="m21 522l3-4 6 7-1 4-5-1-3-4z"/>
		<path id="Path 71" class="s65" d="m226 543h8l4-6 10 7v5l-3 8-4 2-16-2-3-8v-4z"/>
		<path id="Path 73" class="s66" d="m794 564v-7l14 5 6 5-3 4z"/>
		<path id="Path 74" class="s67" d="m191 487l1-6 12 2 3 6-2 3-5 3h-8v-1zm35 56l2-14h5l5 8-4 6z"/>
		<path id="Path 75" class="s68" d="m616 497l2-2 12 2v12l-6-1h-2l-6-3zm92 2v-4l5 2 1 4v4h-6zm-679 30l1-4h6v5l-6 2z"/>
		<path id="Path 76" class="s69" d="m100 501l5 1-1-7 11 3v11l-2 2-9 1-1-1-4-5z"/>
		<path id="Path 78" class="s70" d="m494 353l13-9h1v1l-13 10h-1zm-20 18l4-4h1l-1 3zm337 200l3-4 16 5 13 5 2 4-7-2-10-2-13-4z"/>
		<path id="Path 79" class="s71" d="m585 461v-2h6v2h-5zm57 10l-9-2 11 2zm8 2v-1l22 5v1zm64 11l-1-2 28 3v1zm67 1l8-2v1l-6 1z"/>
		<path id="Path 84" class="s72" d="m953 402l8-3h1l-1 2zm-11 4l11-4-3 3-8 2zm-52 124l-2-14 6-3-4 7 1 7 5 5-1 1z"/>
		<path id="Path 86" fill-rule="evenodd" class="s73" d="m828 577h-7l-6-4zm-414 36l-2-6 7 8 5 8h-1zm549 13l14 1-1-4h3v5zm-686 12v-1h10v1l-5 2z"/>
		<path id="Path 87" class="s74" d="m576 452l3-2v8l-13-1-1-1 9-1zm91 120l-3-2 3-5h5 10v8z"/>
		<path id="Path 90" class="s75" d="m798 483l12-6-2 8z"/>
		<path id="Path 91" class="s76" d="m719 561l5-1h10v1l-13 2zm-612 11v-3h5l7 2v2zm48 5v-2l7 1 7 3h-9zm674 2l-1-2 10 2v2zm-276 8v-2h5l4 4zm136 14l2-4 1 4-4 3v-1zm-17 38v-11l4-1 4-8-1 7-6 4 3 7zm-156-16l2-3h1l-1 3zm-209 9l4-5h4v1l-6 5h-2zm188 36l11-9h1l-4 6-8 4zm162-6l2-1v1z"/>
		<path id="Path 92" class="s69" d="m90 503h5v7h-5z"/>
	</g>
</svg>