<svg version="1.2" xmlns="http://www.w3.org/2000/svg" viewBox="0 0 1000 1000" width="1000" height="1000">
	<title>Ctenopharyngodon_idella</title>
	<style>
		.s0 { fill: #060201 } 
		.s1 { opacity: 1;fill: #696761 } 
		.s2 { fill: #30281a } 
		.s3 { fill: #221c13 } 
		.s4 { fill: #110902 } 
		.s5 { fill: #786f54 } 
		.s6 { opacity: 1;fill: #3c3221 } 
		.s7 { fill: #171007 } 
		.s8 { fill: #3a2506 } 
		.s9 { fill: #251805 } 
		.s10 { opacity: 1;fill: #65573a } 
		.s11 { opacity: 1;fill: #7d7761 } 
		.s12 { opacity: 1;fill: #8d7c55 } 
		.s13 { fill: #57492f } 
		.s14 { opacity: 1;fill: #938667 } 
		.s15 { opacity: 1;fill: #5a5449 } 
		.s16 { opacity: 1;fill: #8b723f } 
		.s17 { fill: #5d471d } 
		.s18 { opacity: 1;fill: #4d4638 } 
		.s19 { opacity: 1;fill: #6a542a } 
		.s20 { opacity: 1;fill: #786845 } 
		.s21 { opacity: 1;fill: #756139 } 
		.s22 { opacity: 1;fill: #6d634a } 
		.s23 { opacity: 1;fill: #b1914b } 
		.s24 { opacity: 1;fill: #493c25 } 
		.s25 { opacity: .1;fill: #fefefc } 
		.s26 { opacity: 1;fill: #413b2f } 
		.s27 { fill: #4a3716 } 
		.s28 { opacity: 1;fill: #646055 } 
		.s29 { fill: #482f07 } 
		.s30 { fill: #583903 } 
		.s31 { opacity: 1;fill: #b29a6a } 
		.s32 { opacity: 1;fill: #d3b168 } 
		.s33 { opacity: 1;fill: #848178 } 
		.s34 { opacity: 1;fill: #c29f52 } 
		.s35 { opacity: 1;fill: #757572 } 
		.s36 { opacity: 1;fill: #88692a } 
		.s37 { opacity: 1;fill: #563e13 } 
		.s38 { opacity: 1;fill: #a48f62 } 
		.s39 { opacity: 1;fill: #dfbf79 } 
		.s40 { opacity: 1;fill: #d5ae49 } 
		.s41 { opacity: 1;fill: #bca781 } 
		.s42 { opacity: 1;fill: #c5a665 } 
		.s43 { opacity: 1;fill: #9f8651 } 
		.s44 { opacity: 1;fill: #e6c062 } 
		.s45 { opacity: 1;fill: #9f7f3b } 
		.s46 { opacity: 1;fill: #f2ce71 } 
		.s47 { opacity: 1;fill: #745822 } 
		.s48 { fill: #6a4a0a } 
		.s49 { opacity: 1;fill: #fcde88 } 
		.s50 { opacity: 1;fill: #906b17 } 
		.s51 { opacity: 1;fill: #fce7a8 } 
		.s52 { opacity: .9;fill: #594c39 } 
		.s53 { fill: #a27b1d } 
		.s54 { opacity: .9;fill: #463a27 } 
		.s55 { opacity: 1;fill: #b18d37 } 
		.s56 { opacity: .9;fill: #706149 } 
		.s57 { opacity: 1;fill: #d4b989 } 
		.s58 { fill: #7f5d12 } 
		.s59 { opacity: 1;fill: #eed08d } 
		.s60 { fill: #7a5505 } 
		.s61 { opacity: 1;fill: #e0caa5 } 
		.s62 { opacity: .9;fill: #7a7060 } 
		.s63 { opacity: 1;fill: #989387 } 
		.s64 { fill: #bd9424 } 
		.s65 { opacity: 1;fill: #331702 } 
		.s66 { opacity: 1;fill: #29231c } 
		.s67 { opacity: .6;fill: #a79781 } 
		.s68 { opacity: .9;fill: #b3996e } 
		.s69 { opacity: 1;fill: #160703 } 
		.s70 { opacity: .1;fill: #665336 } 
		.s71 { opacity: .8;fill: #978771 } 
		.s72 { opacity: .7;fill: #6f604d } 
		.s73 { opacity: .8;fill: #f9eccb } 
		.s74 { opacity: .8;fill: #ebd2a0 } 
		.s75 { opacity: .6;fill: #f7ebd1 } 
		.s76 { opacity: .1;fill: #716658 } 
		.s77 { opacity: .3;fill: #a08d74 } 
		.s78 { opacity: .4;fill: #ecdfc8 } 
		.s79 { opacity: .1;fill: #2c1a0b } 
		.s80 { opacity: .2;fill: #e5dacb } 
		.s81 { opacity: .7;fill: #574227 } 
		.s82 { opacity: .5;fill: #554024 } 
		.s83 { opacity: .1;fill: #4d381c } 
		.s84 { opacity: .7;fill: #d0b689 } 
		.s85 { opacity: .5;fill: #bead91 } 
		.s86 { opacity: .5;fill: #917d61 } 
		.s87 { opacity: .4;fill: #71675c } 
		.s88 { opacity: .6;fill: #dfc89f } 
		.s89 { opacity: .5;fill: #665842 } 
		.s90 { opacity: .8;fill: #301c0a } 
		.s91 { opacity: .3;fill: #4e381a } 
		.s92 { opacity: .3;fill: #dac290 } 
		.s93 { opacity: .3;fill: #634f30 } 
		.s94 { opacity: .4;fill: #301b07 } 
		.s95 { opacity: .5;fill: #120603 } 
	</style>
	<g id="Background">
		<path id="Path 0" class="s0" d="m462 416.1l0.5-5.2 4.7 2.6 5.2 0.5 4.2 1 1-1.5 1.6 0.5 1 2.6-1 6.8-6.8-0.5-2.6-3.7-6.8-1zm-32.8 9.9h3.1l3.2 4.7h1.5l4.2-3.2v-3.1l3.6-1 2.1 1.5 3.1 13.1-2.6 5.2-0.5 0.5-1.5 1.6-1.1-1.1 0.5-0.5 1.1-2.6v-2.1l-1.1-4.7-3.6-0.5v3.1h-6.8l-4.1-4.1zm-216.7 8.3l5.2-1.6h0.5l7.8 1.6 2.1 1.6-1 2.6-8.4 2.1-6.2-0.6zm344.3 10.5l-1.6-4.2 4.7-2.1 2.6 2.1v2.6 2.1l-4.2 1zm44.8-3.6l3.1-0.5 0.6-1.6 3.1 0.5v5.7l2.6 3.2-1.6 2.1 3.1 4.6 2.1-8.3 2.1-1.6h6.3l0.5 6.3 2.6 5.2h4.2v3.1 7.3l-1.6 1.1-2.1-3.1-3.1 3.1-0.5-1.1 1.5-7.3-4.7-8.3h-2l-1.6 3.1-0.5 8.4v0.5l-2.1 1.6-2.6-1.6-4.7 10.4-3.6-0.5-0.6-4.2 1.1-1 1.5 1 3.2-3.6 2.6-7.3-3.2-7.3-4.6-1.1-3.2-1.5v-3.2zm-14.6 0l4.7-0.5 2.1 1.1v3.1l-0.5 4.7v1h-1l-4.7-1.5-3.2-1.6v-0.5-2.1zm-18.2 4.2l1.6-2.1h6.7l1.1 2.1v1.5l-2.1 1.6-3.6-1.1-3.7-1zm67.7 14.1v-1.6h7.8v4.2l1.1 7.3h-2.6l-2.6-4.7-2.6 0.5-2.1-0.5 1.5-2.1zm33.9 3.1l7.3-0.5 0.5 4.2 0.5 4.7h-1.5l-3.2-5.8-2-0.5-4.2 9.9-0.5 7.3h-2.1l-2.6-2.6-2.1 1.1-1-1.6v-1l1-4.7 2.6-0.6 2.6-0.5 2.6-5.2zm-129.2 3.7l2.6-2.1 2.1 1v7.8 4.2l-2.1 0.5-3.6-3.6-1-4.2v-1zm29.1-0.6l2.1-0.5 1.1 2.1 2-1h3.2l-1.1 6.2 1.6 7.8-2.6 0.6-3.1-5.3-2.7-2.6-1-4.7zm121.9 8.9l2.1-0.5h2l2.1 0.5-2.1 7.3-4.6-3.1zm-48 0.5h5.8l1 8.9 2.6 2h3.7l-1.6 9.4-1 3.7-2.1 0.5-2.1-3.1-4.2 2.6 3.2-6.8-0.6-11.5-1-1-3.1 1-2.1-1 0.5-2.6zm-216.1 3.6l3.1-0.5-1.6 6.8v7.8l0.5 0.5v2.1l-2 0.5-1.1-3.1-2.6-5.2v-3.7l0.5-3.6 2.6-1.6zm29.7 2.1l2.6-2.1 1.1 1.1-1.6 3.1-0.5 10.4h-3.7l-1-1.5v-3.2l0.5-6.2zm102.6 1.5v-1.5h2.6l1.6 3.1 2.1-1h3.1l-1 12h-2.6l-0.6-2.6-3.1-0.6 1-1.5-1-3.2 0.5-2.6zm-162.5 7.3l-2.6-2.6 1.1-4.1h4.7v7.3zm-262-3.7l2.1-1.6h5.7l3.1 2.1 2.1 5.8-3.7 5.2 4.7-1.6 1.1-4.7 9.4 1.1v2.6l-8.4 6.2-6.2 1.6-5.8-0.5-6.7-3.7 1.5-3.6 2.1 0.5-2.1-3.7zm548.5 2.1l2.1-1h2l-1.5 12-2.6-1.6-0.6-2.1h-1.5v-6.8zm-286 10.5l3.7-3.2h1.6l0.5 3.7h1.5l-0.5 6.2-4.1 0.6-1.1 0.5-2.6-1.6zm140.1 2.1l4.7-5.2h2.6l-2.6 8.9-1.6 0.5 1.1 3.1 1.5 9.4h1.6l3.1 1.6v10.9l-4.1-2.1-1.1-1-2.1-1.6 1.1-3.1-1.1-8.9-3.6-0.5-2.1-1.6-0.5-2 1-7.3zm-88.5 15.6h1.5l2.1-5.2 3.7-3.1v-4.2h4.1l3.2 2.1 1 11.4 2.6-1.5 3.1 1-2 11.5-4.2-3.7-2.6-2.1 1-5.7-3.1-7.8-5.2 6.8-1.6 6.7v0.6l-3.1 1.5-1.6-0.5-1.5-3.6 0.5-2.1zm201.6-11l5.2 0.6 1 6.7-6.2-4.7zm-310.5 6.3l2.1-3.7 5.8 0.6-2.1 4.1v5.8l-0.5 2.1h-2.6l-2.7-8.4zm80.8 2.6l4.7-4.1 0.5 0.5-1.6 4.7-1.5 9.9-4.2-1.6-0.5-3.6zm236.4 1.5l1.6 1.1 4.2-4.7-3.2 14-3.6-2-0.5-3.7-0.6-3.1zm-226.5 5.2l1.5-1v-5.8h1.6l1.1 1.1 1-1.1 2.6 0.5-1.6 5.8 1.1 9.4-2.1-0.6-0.5-3.6-2.6-1.6-2.1-2.1zm145.3-4.7l0.5 2.1h1.6l2.1-3.1h2.6l-2.6 8.9v8.8l4.7-3.6 2 0.5-3.6 9.4-3.1 1-2.1-1.5-1.6-1.6 1.6-1.6-1.1-9.3-2-1.1-1.6-3.1 0.5-4.7zm55.7 1.6l2.1-1.6 2.1 0.5-2.6 8.4-2.1 0.5-2.1-3.2 1.1-4.1zm-102.6 0l1.5-1.1 2.6 1.1-1.5 4.7v4.1h-4.7l-1-2.6v-4.1zm-50.6 2l6.3-1.5-0.5 4.2-0.6 3.6-3.1-1.6-4.2 1.6v-3.6h1.6zm164.1 0.5l4.7-0.5v7.8l-1.1 0.5-1.5-2.6-0.6-1.1-2.6 1.1zm-94.2 13l5.2-5.7h3.1l-0.5 2.1-4.2 5.7v7.3l-3.1 0.5-1.6-1.5-1.5-4.2 0.5-2.1zm-173.5 6.3l-5.2 7.8h-5.7l-3.1-4.2h-9.9l-1.1-2.1-3.1-1h-7.3l-3.6 4.2-15.1-1.1-3.2-4.2v-7.8l8.4 0.5 14.6 1.6 11.4 0.5h6.3l4.1 2.1 4.2-1.6 2.1 3.2h5.2zm9.9 2.1l2.6-0.6 1 3.2-1 8.8-2.6 2.1h-4.7v-13z"/>
		<path id="Path 1" class="s1" d="m729.2 504.2l2-0.5 4.2 9.4-1 5.7-2.1 1-4.2-3.1zm-642.2 4.7l4.7-1 4.7 2h5.7l1.6 2.1 7.3 1.1 1 2.1h2.6l0.6 2 3.6 2.1v9.9l-2.1-0.5h-0.5l-5.2-2.6-8.3-3.7-7.3-5.7-6.8-5.7zm601.6 15.6l2-6.8 3.2 0.6-0.6 6.7-4.1 1.6zm52.1-3.6l1.5-1.6h3.7l2.6 6.2 2.6 0.6 1 2.6v8.3h-6.2v-6.2l-5.2-2.6-1.1-1.6zm-61.4 2.1l2.6-2.1 3.6 3.6v2.1h-6.2zm-514.6 20.4v-2.7l2.1-1.5-1.1-12.5h0.5 2.6l1.6 2.1h9.4l1.5 2 14.6 2.1v4.2l3.2 2.1 1 5.2h5.2l1-5.2 2.1-2.1h8.9l1.5 6.3 10.5-1.1 2 3.1h4.2l6.3-1 2 4.2 8.4 4.7 1.5 4.1 11 5.8 15.6 2 2.1 2.1h6.2l3.7 2.1 7.8 1.1h10.9l1.6-1.6 26 3.6 16.7-2 8.9 2h26.5l16.7 2.1 1.6-2.1h7.8 16.6l4.7 6.3h7.8l4.2 2.1 1 7.3-18.7 1.5-8.3 1.6h-10.5-13l-6.8 1.1v-1.6l-12.5-1.1-16.1-0.5h-0.5l-1.1-7.8-10.9-0.5-0.5 6.8-14.1-1.1-21.3-2.1-8.9-2-10.9-2.1-10.4-1.6-8.4-2.1 5.2-0.5-0.5-1-17.7-3.2-8.3-4.1-2.6 0.5-8.4-4.2-14-2.6-8.9-3.6h-7.8l-3.1-2.7-19.3-3.6h-1l-3.2-1 3.2-2.7-5.2-0.5-14.6-2.1zm526.5-8.8v-4.2l2.6-3.1 4.2 0.5v4.7l-2.6 2.1zm-63.5-4.7l3.6-2.1 2.6 4.7-1 3.1-3.2 3.1h-3.6l-0.5-4.6z"/>
		<path id="Path 2" class="s2" d="m244.8 436.9v-7.8l12.5 0.5 0.5 6.8 2.6 0.5 0.5 5.3-3.1 1-3.6-2.6-4.7 1.6-3.7 1zm35.5 3.6l1-8.3 4.2 0.5 2 1.6-1.5 4.2-3.7 2.6zm336.5 4.7l-2.6-6.8 8.8 1.5v5.3zm-63.5 5.7l2.6-6.3h1l1.6 1.6 4.2-1 2.1 6.2-3.7 1.1-1.6-3.2-2.6 0.6-1 2.6zm-37-2.6l3.2-2.1 1.5 0.5 0.5 6.8 1.6 6.7-2.1 0.6-3.6-2.1-1.1 3.1-2.6-1.6v-1.5l2.6-1.1-1.5-6.7zm-12-1.1l1-0.5 2.1 0.5-0.5 9.9-2.1 0.5-2.1-0.5-0.5-1.5v-6.8zm181.8 10.4l-0.5-7.3 12.5 2.1v3.1h-7.3l-2.1 3.7zm-101.1 7.3l2.6-0.6 1.1 2.7h1.5l1.6-2.7h2.6v1.6l-1.6 9.9-3.1 0.5-2.6 2.6-1.5-1.5 1.5-5.8zm-134.9 1.6l2.6-1 2.1 1.5-0.5 3.2h-4.2v-2.1-1.1zm14.6 0.6l3.1-1.6 1.6 1.6 1.6 11.4 2.6 1.6v0.5l-3.7 2.6-2.1-1.6 0.6-3.1-2.7-3.6-4.1 4.7-1.1-1.1 1.1-3.6 2.6-2.1-1.1-2.6zm231.8 6.8l3.7-6.8 4.1 0.5 2.1 4.7 5.2-0.5v1.5l-2.1 10.5 2.1 2.6 4.2-3.2 2.1-4.7-1.1-3.6-0.5-4.2h1.6l4.7-0.5-0.6 3.1v5.8l2.6 5.2 4.7-8.4 4.2 0.6 2.6 5.2 3.6-2.6 1.1 1-1.1 6.8h-4.6l-0.6-3.7-2.6-3.1h-2.6l-1.5 8.9 1 5.7h-1.6l-1-2.1-3.6 1.6-2.1 6.2 1 7.3h-2.6l-1-2.6-2.6 2.1 1-4.2-2.6-7.8-2.6-0.5-1.6 2.1-1.5-0.5 1.5-5.2-1-6.8-3.1-1.6-1.6 2.1-1.6-1.6 2.6-5.7-2-3.6-4.2 0.5zm-204.2 1.5l2.6-7.3h5.2l1.1 7.9 3.1 4.7v1.5l-1 6.8 3.6 1.6 1.6 8.3 2.6 1 3.1-7.8 1.6-0.5v-6.8l2.1 2.1h4.1l1.1 8.9-2.1 2.1-4.2-3.2-5.2 10.5 1.6 2.6 0.5 10.9 3.6-2.1 2.6 0.5-2.6 5.3 1.6 10.9 3.6-2.1 4.7-7.3 1.1 2.6h4.7l0.5 7.3 3.1-2.1 1 1.1-0.5 4.2-6.2 0.5-1.6-9.4h-1.6l-6.2 8.3 1 9.4-1 1.6 4.2-1.6 1-2.6 3.1-1.6h1.6v2.7l-5.7 5.2 0.5 4.7-1.1 2.6h-1.5l-2.1-5.8-2.6 1.1 0.5-6.8-2.1-4.2-6.7 5.8 0.5 6.7-5.7-2.6-1.1-1-1-4.2 2.6-0.5 4.7-1 5.2-7.3-1.1-8.4-2.1-1-6.7 7.3v4.1h-5.2l-1.6-1.5v-5.8l-2.6-4.1-5.2 6.2-2.1-2.1 4.7-6.2v-2.6l0.5-8.9-1.5-2.1h-1.6l-5.2 6.3-6.3 1.6-1-5.8h2.6l3.1 1.1 4.2-4.7 1-13.1h3.2l1.5 3.2 5.7-6.8-0.5-4.2 2.1-3.1-2.1-3.1 0.5-3.2-2.6-5.2-1.5-0.5-1.6 2.6zm-129.2 0.5l2.7-6.2 0.5 0.5 3.1-0.5 0.5 1.5v13.1l-2.1 0.5-2-2.1-2.1 1-1.1-5.2zm390.7-3.1l1.5-1.6 2.6 1.6 3.1-1.6-2 7.3 2 4.7 4.7-3.1 1.6 2.6-1.6 2.6 0.6 8.4 6.7 1 0.5 4.2-1.5 9.4-3.1-1.6-5.3 0.5v-1.6l1.6-3.6-0.5-7.3-4.7-3.1-1.6-9.4-1.5-1.6-3.7 1.6-1.5-0.5 2.6-6.3zm-373.5 2.6l2.1-3.1 2.1 0.5 1 0.5-0.5 2.1 2.6 1.1v2l-0.5 14.1 3.7-2.1 1.5 0.6-0.5 2-2.1 4.2-2.1-0.5 1.6 2.6h-6.3v-2.6l-0.5-9.9v-3.7l-2.1-1.5-1.5-0.5zm186.4 7.3l4.2-10 2.6 2.7-2.1 4.1-1.5 3.2zm-217.2-8.4l0.5-0.5h3.6l1.1 2.1 1 13 3.7-2.1 2.6-1v1.5l-2.6 7.9v10.4l3.1 0.5 2.1-4.7 2.6-1 1.5 2.1-4.1 8.3-1.6 2.6 0.5 7.8-1 2.1h-2.1l-1.6-3.6h-1.5l-3.7 4.1v-6.2l2.1-3.7-1.5-7.8-2.6-1.6-2.7 3.7-5.7-0.5-2.1 3.6-1-8.3-2.1-3.7-2.6 0.6-1 3.1h-2.1l1 2.6-2.1 2.6-6.2-0.5v-8.4l-2.6-2.6-3.1 2.6-2.6-2.1 2.6-6.2 2-5.7 1.6-0.6 2.1 2.1v2.1l2.1 1 2.1 12.6 4.6-4.7 1.6-6.8 2.1-5.7 3.1-0.6v3.2l4.7-2.6v-2.6l4.2-5.3-1.1-1zm-237 8.3v-8.3h4.2 4.2v8.3zm183.3-6.7l2.6-0.6 3.7 3.2-1.6 0.5 1 5.7h-2l-1.6-3.1-2.6-1-2.1 7.8 0.5 6.7 1.1 2.7h2.6l0.5 4.6-1 3.2-3.7-1.1-1.6-8.3-3.1-4.7 0.5-7.3 1.6-1.6 1-2 1.1-1.1zm-198.5 1.1l4.7-1.1v5.2l-2 1.1-1.1 6.7h-1.6l-2-2-6.8-0.6v-2.6l-3.1-1.5 3.6-3.2 4.2-1.5 3.1 1zm343.2 3.1l3.2-2.6 2 0.6-2 8.8 1 10.4h-3.1l-3.1-4.6-3.2 3.1-0.5-3.1 2.1-5.3 1-5.2zm177.1 21.4l3.7-8.9-2.6-12h2.6l2.6 5.8 3.1-3.7 2.1 1.6-1.6 14.6 1.6 5.2 1.5-0.5 1.1 1-1.1 2.1 2.1 4.7v6.3l-1.5 0.5-2.1-5.8h-2.1l-2.1 2.7-1.6-0.6 2.1-6.2 1.1-1.1-2.1-9.9-2.1-1-2.6 5.7zm53.6-16.7l2.7-3.6 1.5 1-1 2.6zm-303.7 4.2l2.6-1.6 1.1 3.7 2.1-1 2.6 2.6-1.1 2.6-1.5 2.1-6.8 0.5zm-238.6 5.2v-6.3l3.2 0.6 2.6 6.2-1.6 3.7h-1zm322.9-5.3l1-0.5h1.6v3.2l-4.7 5.7-2.1-2.1zm125.5 1.6l6.8-1.1 2.6 12.5 4.2-5.7 2.1 1-2.6 7.9 1 4.7 1.6 7.8h-1.1l-1.5-0.6-3.2-7.8-3.6 5.8h-2.6l2.1-12.5-1.1-5.8-4.7 0.5-2.6-1.5zm-102.1 2.6l1.6 5.7h1.6l6.2-8.8 1.6 2.6-7.3 12-5.2 0.5-2.1-12zm-100.5 13l2.1 2.6 4.1-4.7 2.1 1.6-2.6 5.2h-3.6v3.1h-4.2v-7.3zm26-0.5l4.2-0.5 1.1 6.8h1.5l1.1-3.2 2.6-1.5 1.5 2.6-3.1 5.2-1 8.9-3.7-1.1-1.6-3.6-1.5-9.4zm35.9 8.3l2.6-5.2 2.6 1.6-2.6 4.1zm11 4.2l-2.1-4.2v-5.2h2.6l1.5 7.3zm-5.2 11l-0.5-2.1 5.2-6.8 1.6 3.7-4.7 5.7zm-114.6-6.3l3.7-1.5h1.5l2.6 1.5-0.5 3.7 1.6 3.1 4.7 1.1v2.6l-14.6-1.6v-3.1l2.6-2.6zm99.5 5.7l4.1-6.8 2.1 2.1-4.7 5.8zm141.7 0.5l5.2-7.3 1.6 3.1-4.7 5.7zm15.1 9.9l-0.5 5.8 7.2-5.2 3.2-6.8-1.1-2.1 1.1-4.2h2.1v6.3l2.6-1.6h1.5l-1 5.2-0.5 6.3 5.2-0.5-2.6 5.2-1.6 6.2-3.1 1.1v-3.7l-2.6-1 1-7.8-4.7 0.5-3.6 4.7-1.6 5.2-3.6-2.1-1.1-1 0.6-9.4zm-317.2-1.1l4.1-5.2h2.6 5.2l4.2 5.2v5.3h-4.2zm523.5 1.5l1.5-2.6h4.2l6.3-4.2h3.6v7.9l2.6 3.6 0.5 4.2 7.3 5.2-1 11.5h-5.2l-4.2-7.3-4.7-1.6-3.6-3.6h-5.2zm-250.6 5.7l6.8-7.8 1.6 4.1-6.8 6.3-1.6-0.5zm-76-4.2l2.6-3.1 2.6 1-1.6 3.1 0.6 4.2-3.2 2.1zm-66.1 1.6l4.2-1.1 0.5 2.6-2.1 2.1 0.5 4.2h-4.1l-0.6 2.1-6.7 5.2-3.7-2.6 2.6-2.1 1.1-8.9h2l4.2 3.7v-4.2zm164.6 26.6l4.2-1.1 6.2 1.1-1 3.1h-5.2-4.2z"/>
		<path id="Path 3" class="s3" d="m452.1 409.3l5.7-4.2v4.2l3.1-1 1.6 2.6-0.5 5.2h-5.2l-11.5-4.2 1.1-0.5zm-85.5 13.6l2.6-3.7 5.2-0.5 2.1 4.7 2.1 1 4.7-1 2.6-4.2 4.2 1 3.6 4.2h4.2v3.1l1.5 1.1-3.1 3.6 2.6 7.3-2.1 0.6-7.2-3.2-1.6-1 1.6-5.2-1.6-1.6-4.7 1.6-7.8 1-1.6-2.6-3.6 1.1-1.1-2.7-2.6-1zm-58.3 6.8l-1-3.1 1-2.7 9.9 2.7 1 3.6-2 2.6 0.5 6.3h-3.7l-0.5-5.2-3.1 1.5v-4.2zm97.9-0.5l3.1-0.5 4.7-4.7 3.7 2.6-0.6 4.2-5.2-0.5v7.3l-5.2-0.6-1 2.1-1.1-8.3zm66.7 8.3v-4.1l5.7-2.1 0.6-4.7 12.5 0.5 4.1 3.7v4.1l2.1 2.1 0.5 2.6 1.1 3.1-5.2-1-0.6 2.1h-0.5l-1.5-1.6 0.5-3.6-4.2-1.1-3.1-0.5-2.1 1.6 1.6 3.6 1 2.1-5.2-2.1-2.1 1.1h-2.6l-0.5-3.2zm-202.1-5.7l3.1-2.6h4.7l2.6 3.1-1 8.4-4.2-2.1-4.7 0.5zm66.2 5.2l0.5-4.2h3.1l3.1 3.7-2 3.1 1 3.1-1 1.1-1.1-1.1-2.6 1.1 0.5-3.7zm223 1.6l1-3.6h3.6 4.2l2.1 3.6h2.6l5.7-3.6h2.1v1.5h2.1l3.6 4.7-2.6 3.7-2.6-3.7-4.7 2.1h-6.7l-1.6 2.1-1-2.1h-5.2v-2.6zm-323.5 0.5l3.1-3.1 5.3 1 1 6.3h-5.7l-0.6-1.6-3.1-0.5zm395.9 13.5v-7.8l2.6-2.6 4.6 0.5 5.3 0.6 9.3 2v8.4l1.1 4.2-1.6 0.5-2.1-0.5-1.5-3.2h-3.7l-2.1 3.2h-7.8l-2.6-1.1zm-56.2-4.2l2-1.5 2.7 5.2 2-1.6 4.2 0.6-1.6 4.6h-6.2zm37.5 16.7l2.1-1.5 2.6 7.3 3.1-3.2 1.6-0.5 0.5 1.1v2l-2.1 3.7v6.8h-2.6l-2.6 0.5-1.6 3.6-0.5 12-3.6-1.5-1.1-1.1-3.1 5.8-2.1-0.6v-1l1.1-4.2 2.6-5.2-3.2-9.4-1.5-1.5-3.2 5.2-1.5-1.6 2.6-7.8 1.6-0.5 3.6 0.5 3.1 11.5 2.1 0.5 4.7-9.9zm-488.5 9.4v-6.3l3.1-4.2h1 11.5l1.5 3.2h2.6l3.2 2-1.1 3.7h-2.1l-1 3.1 4.7 1.6 3.6 2.1 1.1-2.1-1.6-4.2h4.7l0.5-2.1h1.1l3.1 3.2 0.5 6.2-1 11.5-9.4-1.1-1.6-4.7-6.2-4.1h-5.2l-2.6 2.1-3.2 4.1-3.1-0.5-0.5-11.5zm505.2-7.3l2.6 4.2 1.1-5.7 1.5-1.1 2.1 0.6-1.6 8.3-1 5.7 2.6 7.3 5.2-6.7 2.1 1-3.7 9.9v7.8h-1.5l-2.1-2.6-5.7 8.9-1.1-1.1 4.7-9.3v-3.7l-2.6-7.8-2.1-1.6-1.5 3.1-2.1-1.5 2.6-4.7-1.1-7.3v-2.6zm15.1 2.1l3.2 1.5 3.1-3.6 1.6 1.6-2.1 5.2-1.1 1h-5.7l-1.6-5.7zm94.3 0l1.6-2.1 1.5 2.1 3.7 2.1 1 8.3 2.1 3.1 2.1-1 1.6 0.5-1.1 10.4-2.1-2.1-3.1 2.1-1.6 8.9v1.6l-3.6-1.6-1-7.3 1-0.5 1.6 1 4.7-6.8-2.7-8.8-3.6-0.5-1 1.5-1.1-1 1.6-3.2zm26 11l-0.5-6.8 3.6-1 1.1-4.2h9.4l2 1.6 1.1 9.4 2.6 2.6h6.2l4.7 6.2 4.2 1.6 1 6.8 2.6 2 0.6 7.9 2 3.6v11.5l3.7 3.1-1.6 6.3-2.1 0.5v1.5h-3.6l-6.2 4.2h-4.2l-1.6 2.6-6.2-6.8h-4.2l-1 1.6-5.8-5.7h-5.7l3.1-6.3v-4.1l3.2-0.6 2 1.6 4.7-6.8-0.5-5.7-3.1-1.1-1.1-6.7h-2.6l-0.5-4.2v-7.8l-2.6-3.7-3.1-0.5zm-415.6-6.3l1-4.1h3.6l-1 4.1zm326 1.6l1.1-4.7h1.6l1.5 3.1h1.6l3.1-3.1 1 0.5-3.6 7.3 2.1 9.4-2.1 0.5-3.6-8.3-3.2 2.1-1.5-1.1zm-199.5-1h3.1l-1.6 3.1-2 3.7-2.6-0.5v-0.6zm-67.2 2.1l2.6-1 1.5 1 3.7 1.1-1.6 11.4h-3.1l-3.1-3.1-0.6-4.7zm-102.6 3.1l2.1-0.5 1.1-3.1h2.6 0.5l0.5 2.1-3.1 5.2 2.6 3.1 1 5.2 1.1 3.7h-2.6l-3.2-3.1-0.5-5.3-1.5-1zm359.9 5.2l-1.6-3.1h2.1l1 2.1zm-583.3-1.1l2.1-1.5 3.1 1.5v2.6l-4.7 0.6-0.5-1.6zm459.9 11.5l1.5-4.2h0.6 6.2l1.1 5.7-2.6 0.5-2.1-4.1-2.1 2.1zm-137.5-2.1h2.6l-2.6 5.7h-1.6l-0.5-3.6zm-310.4 4.1h-2.6l-1.1-3.1 5.3-1 5.2 1.5 1 2.6zm153.6 7.3l2.7-5.2 7.8 1.1-2.1 7.3-3.1 6.7-1.1-1.5-6.8-1.1zm132.3-0.5l1.6-4.7h6.2l1.6 6.8-4.2-0.5-0.5-1.6-2.6 1.6zm-56.8 5.7l0.6-2.1 6.2 0.5v7.9l-1.5 0.5zm384.9 1l4.1-1-1.5 10.4v3.1l-3.7-3.1v-1-7.3zm-320.8 0.5l3.1-0.5 1 0.5 3.2 2.1-1.6 12.5 0.5 2.6 3.2-1.1 1.5 0.6-1.5 3.1v8.3l-4.7-3.6-2.6 0.5 2-6.8-2-3.6 0.5-4.2-1.6-0.5-1 1.6-1.6-2.7 1.6-2zm328.6 8.8l1.6-1h2.1l-1.1 4.2zm-100.5 4.1l1.1-4.1h5.2l-0.6 7.2zm-335.4 2.1l0.5-4.7 3.7 0.6 6.8-0.6 2.6 3.7h3.1l2.1 1-0.6 3.2h-4.1l-1.6 1.5v12h-5.7l-1.1 1.6-3.6-1.6v-5.2l-4.2-5.2v-2.6l2.6-1.1zm169.3-2l3.1-1.6 1.1 7.8-1.1 1.6-1 1-2.6-6.2zm-105.2 1.5l5.2-1.5 1 1-1 5.7 2.6 2.6-11.5-0.5v-2.6l3.7-1.5zm64 3.6l3.2-1 1 1.5-2.1 12-2.1-3.6-4.1-0.6 1.5-5.7zm29.7 1.1l3.7-1.6 1.5 0.5-1.5 3.1v8.4l-2.1 0.5-3.7-3.1-0.5-1.6 0.5-5.7zm126.1 0l4.2-1.6 2 1.6-3.1 5.7v7.8h-1.5l-1.1-3.6-1.6-1.6-1.5 1.1v2.6l-4.7 5.2 1.6 5.2-2.6 1-2.6-2.6v-5.2l6.7-7.3 1.6-3.1-0.5-5.2zm-34.4 6.8l6.2-0.6 1.1 8.4h-2.6l-1.1-3.7h-3.1-1.6zm41.7 5.8l5.2-6.3 1.6 1.6-5.2 6.7zm-160.4 7.9l-3.2-0.6 0.6-5.7 5.7-2.1 1.5 1.1-1 6.2zm76-5.2l5.8-1 1.5 1.5-1 4.2-5.2-1-1.1-1.6z"/>
		<path id="Path 4" class="s4" d="m266.1 436.9l0.6-3.6 2-1.6h2.1l0.6 7.3v0.6l-2.7 0.5zm445.9 33.3l0.5-12 5.2-1.5 1.6-2.1 2.6 0.5-0.5 5.8-5.8 1v4.7l2.1 4.2h-1.6l-1-1.6zm-26-12.5l2.6 1.5 2.1-3.6h7.2l1.6 4.7-4.2 0.5-3.6 1.6 0.5 3.6-4.7-0.5-2.1-6.8zm-129.1 8.9l3.1-4.2 3.1 1.1-2.1 5.2v6.2l2.1 5.8h-2.6l-4.1-6.3zm-306.8 15.1l2.6-1 1.6 2.1h3.1l2.1-2.1 2 1 1.1 6.8v3.6l-3.1 8.4-7.8-1.1-0.6-14zm219.8 1.5l3.7-2.6 2.6 0.6-0.6 11.9h-3.6l-2.6-3.6zm37 7.3l-3.7-1.6 1.1-6.8h3.1zm-76 6.8l1-0.5 3.1 0.5-0.5 2.1-1.6 4.2 2.1 10.4h-1.5l-3.2-6.8-3.1 3.2-0.5-0.6 1-5.2-0.5-4.7zm207.8 12.5l1.1-11.4h1.5l1.1 4.1 4.1-3.1-1 5.8-2.1 0.5 1.6 1.5v5.2l-3.1-1-0.6-1.6zm-87.5-7.3l5.2-1 2.1 0.5-1.5 4.2 2 6.8h-1l-2.6-1.1-2.1-2.1-4.2 8.9-3.1-1.6 4.7-8.8zm64.6 1l2.1-2.1 2.1 0.6-1.6 3.1 1 2.1 0.6 8.8h-2.1l-2.6-5.2-2.6 3.1-1.1-3.1 1.1-5.7zm-17.7 7.3l1-5.2h4.7l2.6 8.3h-2.1l-1.6-3.6-3.1 3.6-2.1-1zm-144.2 21.3l4.1-1.5 0.6-2.1 3.1 0.5-2.1 2.6-1.6 7.3-0.5 1.6h-2.1l-3.6-5.8 1-1.5zm-151.5 12v-14.1l16.6 1v7.9l3.2 4.1 15.1 1.1 3.6-4.2h7.3l3.1 1 1.1 2.1h9.9l3.1 4.2h5.7l5.2-7.8 4.7 1.5 0.5 1.1v13h-1.5l-1.6 3.1-3.6 0.6-5.3-2.6-6.7-0.6-1.1 5.3-1.5 0.5-3.7-0.5-2.6 1.5-7.3-0.5-1-1.6-5.2-1-7.3 0.5-2.6-4.7-13.6-1.5-7.2-2.6-2.1-4.7z"/>
		<path id="Path 5" class="s5" d="m439.6 412.4l5.7-0.5 11.5 4.2-5.8 0.5-6.2 3.1-5.2-1.5zm-168.2 26.6l4.6-0.6 4.2 2.1 2.1 0.5-1.1 2.7-6.7 3.6-1.6 2.1-1.5-2.1v-7.8zm164 2.1l1.6-1.1 1.5 1.6v0.5h-3.1zm58.4 2.6l0.5-2.1 5.2 1.1 4.7 4.7-2.1 1.5v6.8l-1.1-0.5-1-5.7zm59.4 7.3l-4.7 1.5-2.6-5.7 0.5-4.2 9.4 2.1zm-10.4-0.5v-3.2l2.6 4.2h-0.6zm-319.7 6.3l-1.1-8.9 9.9 1.6v2.6l2.1 2.1-7.3 4.7zm523.4 14.6h6.3l1 1.5 0.6 2.6-2.7 6.3-2 1-2.1-3.1zm-146.4 12l3.2-5.2 1.5 1.5 3.1 9.4-2.6 5.2-5.7-1-1-5.7zm14 13.5l0.5-12 1.6-3.6 2.6-0.6 2.6 12-3.6 8.9-2.1 2.1zm15.1-12.5l1.6-3.2 2 1.6 2.6 7.8v3.7l-4.6 9.4-1.6 0.5-1.6-5.2zm74.5 0.5l1.6-2.1 3.1 1.6 1 6.7-7.8-0.5zm-444.2 15.7l3.1-8.4h1l1.6 1.6-0.5 1.6 3.1 3.1v2.1l-1.1 4.1-2.6 1.1-0.5 2.1h-6.2zm462 7.3l-1.1-7.3 2.1-6.3 3.6-1.6 1.1 2.1 1.5 3.7-0.5 4.7-4.1 7.3h-1.6zm-175.5-12.5l2.1-2.1 2 4.1 1.1 5.3-0.5 5.7-7.9-0.5-1-3.2 1.6-0.5zm-14.6-0.5l2.1-1 3.1 7.8-1 7.3-7.3-1.1-1.1-2.6zm165.6 2.6l3.2-2.1 1.5 3.2 1.1 7.3-1.6 4.1h-4.2l-0.5-2.6zm-77.1 4.7l2.6-5.7 2.1 1 2.1 9.9-1 1.1-6.3-1.1-1-2zm58.8 6.2l-1-4.7 2.6-4.7h3.6l-0.5 8.4-2.1 1.5zm-361.9-3.1l0.5-2.6 2.1-1 3.6 2.6v5.7l-1.6 4.2-3.1 2.6-1.5-2.1zm428.6-2.1v-1.6h8.3l3.7 4.2-1.1 4.2h-3.6l-4.7-2.1zm-161.5 12l3.7-5.8 3.1 7.9 1.6 0.5-2.1 6.2-4.2 5.3-4.7 3.6v-8.9zm-306.7 3.2v-4.7l3.6-3.7 2.6 1.1v3.6l2.1 0.5v7.3l-3.6-0.5-2.6-3.6zm290.1-4.7l3.6-3.7 4.2 7.3-0.5 4.7-5.3 7.3-4.1 1.6-1.6-10.4zm32.3 0.5l3.1-3.7 1.6 3.7v8.3h-7.3zm-128.1 2.6l3.6-5.7 3.7 3.1 1 5.8-0.5 2.6h-1.6v3.6l4.2-1.6 3.1 1.6 0.5-3.6 8.4 0.5v2.6l-4.7 6.2h-2.1l-1-4.1h-2.6l-0.6 10.9-3.1 3.7-2.6 0.5 0.5-2.6-2.1-3.7 1.6-7.8-6.8 2.1-1-2.6zm141.1-2.6l2.6-3.1 2.6 5.2v4.1l-1 4.2-2.6 2.6-4.7-0.5v-2.1-4.2zm12.5 1.1l2.1-2.6h2.1l2.1 5.7-1.1 4.2-5.7 7.3h-0.5l-1.6-2.1 0.5-7.3zm-36.9 14.6l4.1-5.2 2.1 2.1-1 4.1 1 2.1-3.1 6.8-7.3 5.2 0.5-5.7zm-16.7 1l4.7-5.7 2.1 1 1.1 9.4-1.6 1.6-5.2 6.2-3.1 2.1-1.1-1v-7.8zm-218.2 3.1l-2.6-2.6 1-5.8h1.6l7.3 1.1-1.1 7.3zm138.1 0l5.2-6.3 2.6 4.2v5.7l-5.2 7.3-5.8 1.1-0.5-2.1 3.1 0.5zm14.6 5.2v-4.1l6.8-7.3 2.1 1 1 8.3-5.2 7.3-4.7 1.1zm149-9.9l4.7 0.5v6.3l3.1 1v2.1l-1.1 4.7-3.1 2.6h-4.1l-0.6-2.1 2.6-4.2-5.2 1.1 0.6-8.4zm-16.7 9.4v-5.7l2.6-2.6h3.1l0.5 1.5h2.1l-1.5 6.3 3.1-0.5 0.5 6.7h-3.6l-1.6-4.1-3.7 1zm-389-2.6l5.2-5.2h2.6l1.6 2.1v2.6l2 2.1v3.6h-7.2zm363.5 3.1l1.6-7.3 6.7 1.1-1 3.1-3.1 3.1zm-38.6 6.3l5.2-6.8 2.1 1.6-0.5 9.4-4.7 4.7h-1l-2.1-1.6zm-68.8 5.7l5.8 2.6-0.6-6.7 6.8-5.8 2.1 4.2-0.5 6.8 2.6-1.1 2.1 5.8-1.6 3.6v9.9h-3.7l-2.6-2.6-3.6 2.6h-4.2l-3.6-2.1v-4.1l-2.1-2.1v-4.7zm94.8 2.6l1.6-6.3 3.6 1.1v4.2zm-183.3 8.3l5.7-7.3 4.7 0.5 1 3.7h4.2l1 3.6v9.9h-16.6zm154.1-2.1l4.2 1.1 1.6-3.1h4.7l3.1 2h3.6l-2.6 7.3-12.5 2.1-6.2-1v-7.3z"/>
		<path id="Path 6" class="s6" d="m318.2 426.5l1.1-4.2 1.5-0.5 4.7 0.5 6.3 0.6 0.5 1.5v7.3l-0.5 4.7-1.6 2.1h-4.7l-2.1-7.3-4.1-1zm-92.2 4.7l2.1-1.6 9.9 0.5 1.5 0.5v5.3l-3.1 3.1-9.4-0.5 1.1-2.6-2.1-1.6zm75 4.2l2.6-1.1 2.1 2.6h4.1l1.1 2.6-1.1 14.1 1.6 1.6 3.1-3.2 0.5 1.1-3.1 9.9-1.5 0.5v2.6h-2.1l-2.1 0.5 0.5-3.1 0.5-5.7-4.1-6.8-1.1-2.6 0.5-3.7 1.1-4.1-2.6-3.2zm127.6 7.3l2.1 1.6 4.1-1.6-1.5 7.3 0.5 6.8h-2.1l-1-1.5v-1.6l-2.1-0.5 0.5-3.7-1.6-6.8zm-84.8 12l0.5-3.1 3.6-0.5h2.6l-0.5 9.9v3.6h-2.6l-3.6-7.3zm-208.4 0l5.7-2 3.2 2.6v5.2l-3.7 3.6h-11.4v-6.2l0.5-1.1zm360.9 6.8l4.7-6.3 1.1 0.6 0.5 1.5-2.6 6.3-3.7-0.5zm24.5-0.6l2.1-0.5 1 2.1-1.5 2.1-2.1-1.1zm259.4 3.2h13.5 4.2l4.1 3.6 3.2 0.5 5.7 20.4 2.1 5.7 5.7 1.1-6.2 0.5v1.5l-8.9 1.1-2.6-2.1-1-6.8-4.2-1.5-4.7-6.3h-6.3l-2.6-2.6-1-9.4-2.1-1.6zm-34.4 1.1l1.1-0.5 0.5 1.5 6.3 1.1 1.5 4.1-1.5 1.6-1.1-1.6h-6.2l-3.7-2zm-411.4 3.6l4.6-2.6 1.6 1v3.2l-1 4.7 1 9.9-3.1 0.5-2.1-7.3-5.7 5.7h-1.6v-1l2.1-3.7 3.6-3.1zm-232.3 7.3l10.5-1.6v8.4h-6.3l-1-1.6h-3.2zm477.1 4.2l2.6 3.6 3.7-6.2 1.5 1.5-2.6 10.5-6.7 1-1.1-9.4v-0.5zm107.3 6.8l5.2-8.4 4.7 3.2 1.1 4.1 4.6-2.6 1.6 1.6-2.1 5.7v4.2l2.6 4.7 3.7-3.1 1.5 0.5-2 6.8 2 7.3-1 1-3.1-4.7-3.2 3.7-1-1.1 1.6-4.1-1.1-7.3-1.5-3.2-3.2 2.1h-2l1-3.6-1-8.4-4.7-0.5-1.6 2.1zm-387.5 3.6l0.5-5.7h2.1l1 2.6 4.7-1.6 1.6 1.1 0.5 5.2h-3.1l-0.5 3.1-1.6 5.2 1.6 6.8 1.5 0.5 4.2-6.2 1 4.2 4.2-0.6v9.4l1.6 2.1 3.6 2.6-2.6 3.7 0.5 3.1 2.6 2.6h4.7v3.1l-8.3-0.5-16.7-1-2.6-0.6 0.5-3.1 16.7 0.5-1-4.7-4.2-4.1-7.3 1-1.6-1 0.6-10.5-2.1-5.2h-3.1l-0.6-4.7 1.1-4.7zm106.7 2.6l3.7-7.3 3.1 3.2h3.1l0.6 7.3-3.2 0.5-2-6.8-2.6 3.1zm322.9 1.6l0.5 1.6 2.1-1.1 3.6-8.3h4.7l2.1 6.8-1.1 0.5-4.6-2.6-3.2 6.2-4.1 0.6-1.6-3.7zm-264.1 1.1l4.7-6.3 2.6 3.6-4.6 4.7h-2.7zm58.4 0l2.1 4.2 2.6-5.2 2-1 1.6 1-4.2 10.4 1.1 2.6 2.1 9.9-3.2 2.1-2.6-7.3-4.6 4.7-2.7-0.5 4.2-8.9-0.5-9.9zm-34.4-0.5l3.1-1 1.1 3.1h-3.1zm77 0.5l0.6-1h2.6l2.1 6.2 3.1-2.1 1-3.1 2.6 1.6-2.1 5.2-2 3.1 3.1 4.7 0.5 5.7-2.1 1.1-4.1-7.3-3.7 3.6-2.6-0.5 2.6-9.4zm-120.8 1.6l3.1-2.1 2.1 2.1-3.1 5.2 1.5 6.3h-2.6l-2.1-0.6-1.5 2.1-2.6-1.5 2-4.7-1-4.7 1-2.1zm223 11.5l1.5 3.1h1.6l-0.5-2.1 2.6-2.6 0.5-5.2-2.1-6.3h2.6l1.6 3.2 4.7-1.6v1.6l-2.6 4.6 1 4.7-1.6 2.1h-2.6l-1.5 7.8v4.2l-4.7-0.5 1-5.7-3.1-7.3zm-279.2 2.6l-2-5.8 4.1 0.6 1.1 4.6zm256.2 1.1l2.1 2.6 4.7-7.3 6.2 4.7 0.6 3.1-2.1 1.6-1.6-3.7-2.6-0.5-3.6 6.8-4.7 0.5-2.1-5.2v-3.7zm-232.3 16.2v-2.6l4.7-6.3-0.5-9.3h3.6l1.6 3.6-2.6 5.7 0.5 3.7-6.3 6.8zm294.8-8.9l1.1-0.5v1zm-324.5 6.8l0.5-3.1 3.7-3.1 1.5 2.6-3.6 4.6zm78.1-2l1.6-2.1 2.6 2.1-0.6 1-3.1 3.7-3.1-0.6zm163.5 5.2l5.8-7.3 2 3.2 2.1-0.5 1.6 5.7-2.1 1.6-2.6-4.7-3.6 2zm60.9-3.1v-2.1h3.1l0.5 2.1 4.2-1.5 0.5 2-2.6 3.2v4.1l-5.7 4.2-5.2-1.6v-4.1l5.2-2.6zm-145.3-0.6l1.6-1 2 1.6-4.7 6.2h-1.5l-1.1-1v-2.1h1.6zm-266.1 6.8l-0.6-3.7 1.6-2.6h6.2l0.6 2.6-2.6 1.1v2.6zm273.4 2.6l-2.6-7.8 4.2 2 0.5 3.7zm102.6-6.3l2.6-1.5 2.1 1.5-3.1 3.7-0.6 8.3 5.2-1-2.6 4.2 0.6 2h4.1l3.2-2.6 1 3.7-4.2 2.1h-7.8l-2.1-5.2-0.5-6.8-3.1 0.5 1.5-6.3zm129.2 5.3l1.1-1.6h4.1l6.3 6.8 2.1 13-1.1 8.3-16.7-7.8 3.2-5.7zm-396.4 2.6l2.1-1 1 5.7-4.6 0.5-0.6-1zm43.3 7.3l4.6-1.6 1.1 1.6-1.1 8.3-6.2-2.6zm124-1l3.1-0.6-0.5 3.7h1.5v5.2l-4.7 3.6-3.6 2.1v-2.6l4.2-4.1zm18.2 1l1 1 3.2-2 1.5 2-1 7.3-3.7-2-5.2 5.7v2.1h-3.6l0.5-3.7 5.2-4.7 0.5-5.7z"/>
		<path id="Path 7" class="s7" d="m397.9 424.4l0.5-3.6 4.7-2.1 3.2 1.6v8.8l-1.6 1.6-5.2-2.1-1.6-1zm119.8 13.5l1.1-14.1h5.7l-0.5 1.1-0.6 2.6 7.9 1.6-0.6 9.9-2.1 3.1 2.7 5.7 0.5 1.6-1.1 1-5.7-6.2h-2.1l-2.1 2.6-1.5-0.5 1.5-6.3zm-232.3-5.2l1.1-5.7 1.5-1.1 2.1 1.1 0.6-1.1 1 9.4-4.2-1zm15.7 2.6l-3.7-2.1v-6.8l5.7 3.1 0.6 4.7zm74.4-3.6l7.8-1.1-1 8.9-1.6 0.5-2.6-5.2-2 1.6-1.1-3.2zm-181.8 4.2l18.8-1.6v5.8l-0.5 2.1-4.7 0.5-6.3 0.5-5.2 2.6-3.6 8.9-2.6 1.5-6.3 1.1-3.1-2.6 2.6-4.2 0.5-10.4zm397.9 4.7l2.1-4.2h3.7v2.1h3.1l1 2.6-2 4.2-2.1-1.6-3.7 1v-3.1zm-156.2 0.5l-1.1-4.1h6.8v1.5 3.7l-2.6-0.6-1.6-1.5zm173-1.6l1-1.5 4.7 0.5 2.6 6.8-2.1 1.5-3.1-0.5-0.5 2.1-2.6-3.1zm-95.9 4.6l-4.1-1v-4.2l5.7 1.6 0.5 1.6zm52.1 7.3l4.2-5.3 3.6 1.1-3.1 5.2-1.1 5.7 1.6 0.6 2.6 6.2-2.1 0.5-4.7-6.7-2.6 4.6-3.1-1-0.5-2.6 1.5-7.3zm34.4-2.6l0.5-0.5 3.2 1.5-2.1 8.9 2.6 9.4-1.1 1-3.1-6.2-1.5-1.6-2.1 0.5-0.5-2.6-2.7-8.8h1.1l3.6 3.1zm-444.8 0.5l14.6-0.5v4.7l-5.7 5.7-3.7 1.1-1.5 5.2h-1.6l-11.4 1.5h-2.6l-1.6-3.1 3.6-3.6v-5.3l3.2-0.5 2.6-3.6 2.1-1.1zm524.4 8.4l-1.5-1.1 0.5-7.8 7.8 1.6 0.5 7.3-0.5 1zm56.3-3.6l4.1-1.6 40.1-3.1 1.1 14.6-1.1 4.1h-9.3l-2.1-3.1h-2.1l-1.6 1.6 1.1 5.2h-1.1l-3.6-2.1v-4.7l-3.7-2.6-2.6 1-0.5 3.7-6.2-1-0.6-1.6 0.6-2.1-4.2-4.7-2.6 5.2h-2.6l-2.1-2.1zm-81.2 4.2l1.5-0.5 1.1 1.6 2-0.6 2.1 1.1v5.2l2.6 7.3-2.6 0.5-2.6-5.2-3.1-0.5-1.6 1.5-1.5-1.5 2.1-4.7zm-144.3 7.8l1-1.6h3.1l1.6 2.1 0.5 9.9 2.6 4.7 2.1-2.1 2.1-2.1 1.6 0.6-2.1 9.4h-4.2l-2.1-2.1-2.1-5.2-2-5.3-2.1 2.6-1.6-1zm176.1 0.5l2-1 4.7 0.5 2.1 7.8-2.1 0.5-2.1-4.1-2.6-1.1-1.5 2.1-1.1-0.5zm-204.1 7.3l0.5-6.3 3.6 1.1 1.1 9.4 1.5 3.1 1.6-1.6h3.1v1.1l-1 13.5-3.1 1.1-2.1-2.6-1.6-2.6 1.1-2.1-1.1-5.8-1-5.2zm172.4 12l4.1-7.3h1.6l1 1.6-3.1 5.7zm-330.7-1l0.5-2.1h2.6 2.1v1l-0.5 2.6-2.6 0.6zm343.7 0l1.6-1.1 1 2.1 2.1-1h3.1l-0.5 10.9h-2.6l-2.1-2.1-2.1 3.1 0.6 12h-1.6-1l-1.6-12 3.6-4.1zm-109.3 12.5l3.1-3.1h2.1l-4.2 7.8-2.1-0.5v-2.1zm196.4 0l6.2-3.2-0.5 4.2-1.6 1.1 0.6 6.2h-1.1l-3.6-4.2zm-337.5-1l4.1-1.6 1.1 0.6-0.5 3.1-2.6 2.1 1 2.1 1 7.8h-3.6l-1-3.7-2.6 3.2-1.6-2.7 1.6-3.1v-7.3zm-104.7 1.6l1-2.6h2.6l1.6 2.1 2.6 2v2.1l-2.1 1.1-0.5 2.6-4.2 0.5-1-4.2zm55.2 0l6.7-0.5 1.6 2.1v6.8l-2.1 0.5-1.5-4.7-2.6 0.5-1.6-2.1zm362 0.6l4.1-0.6 0.6 5.8h-2.1l-2.1 0.5-1-1zm-336 13l4.7-6.8 2.6 1.6-1.6 3.6-2.6 3.7zm81.3-6.3l5.2-0.5 2.1 9.4h-2.6l-3.7-3.2-3.6 5.8-3.1-1.1 4.6-5.2zm57.9 11.5l2.6-3.1-0.6-1.6 2.1-1 2.1 1.5-3.6 5.2zm25-1l1-2.6h1l2.1 4.2 3.7-4.2 2.6 0.5-3.7 6.8 1.6 10.4h-3.1-0.5l-1.1-4.7-4.7 0.5 2.1-4.6zm36.5 2l4.1-4.7 2.1 1.1-2.6 8.3-0.5 4.2h-2.1l-2.1-2.1-4.1 5.2-2.1-0.5 4.1-5.2 2.1-6.3zm-220.8-1.5l0.5-2.1h4.2l0.5 10.4-4.7-4.2zm247.4 0l1 1.1 2.7-2.6 1.5 0.5-2.1 5.2h-5.2v-4.2zm-357.3 7.3l3.2 0.6 5.2-2.1 4.1 4.7-1.5 2.6 0.5 3.6h-2.6l-4.2 5.2h-2.6l-4.2-0.5-2-2.1v-2.6l3.1-2.1h4.2l-1.1-1.5-5.7-0.5-1.1-2.7 1.6-1.5zm116.7 4.7l3.6-1.6 2.1 1.1v8.3l-2.1 1-4.1-4.1zm256.7 2.6l2.6-2.1h2.1v1.6l-2.6 2.6v5.7h-2.6l-2.6-3.1 1-3.2zm-342.1 12.5v-11.9l1.5-1.6h4.2l2.6 0.5v14.1h-2.1zm314.1-6.8l1.5-4.7 5.2-2.1-0.5 2.1-1.5 7.3-0.6 2.1h-1.5zm13-3.6l3.1-3.2h0.5 3.2l-2.1 4.2 0.5 4.7-1 2.6-0.6-2.1-4.7-3.1zm4.2 10.9l4.7-0.5-0.5 3.1-2.1 2.1-2.1-0.5zm-84.9 27.1l6.8-3.6v3.6 4.2l-13.6 0.5-4.1-0.5v-3.7z"/>
		<path id="Path 8" class="s8" d="m485.4 376.5l17.7-12.5v2l-3.6 2.7 0.5 4.1-6.2 5.2-2.1 0.6-2.6-2.1-6.3 6.2-1.5-1.5zm18.7 43.8l5.7-5.3-1 5.8 4.2 1 1.5-1 4.2 3.1-1.1 14.1h-2.6l-1 2.6-5.7-1.6-2.1-1-1.1-1.1 1.1-12-2.1-1zm289.6 26.1l6.2-0.6v10l2.1 2h5.2l1.1 5.8-3.2 1.5v3.2l-3.1-0.6-4.1-3.6h-4.2zm-242.7 25l0.5-5.2h4.2l1 0.5-0.5 7.8-2.6 5.8-2.1 4.7v6.2h-6.3l1.1-3.6-3.1-5.8 0.5-2 2.1-0.6 1 3.2 3.1-2.1 1.6-4.2zm-273.4 13.6v-3.2h0.5l3.1 1.6v5.2l-0.5 0.5-2.1-0.5 0.5-2.6zm182.8 14.1l1.1 1.5 3.1-2.6h2.6l-2.6 7.9-3.1-2.1h-4.2v-4.2zm-173.4 45.9l1-1.6h5.7l6.3 1.1v5.7l-8.3-0.5zm357.8 17.7h-2.1l1-7.8h4.2v7.3zm-138.5 15.6l5.2-0.5 21.8 1h5.2v1.6l-4.6 0.5-1.6 1.1h-3.1l-13.6 1-4.7 1.6-1-1.1-3.1 1.1z"/>
		<path id="Path 9" class="s9" d="m487 414l1.5-0.5 3.2 4.7 7.8-3.2 1 4.7 3.7 0.6v3.6l2.1 1.1-1.1 11.9h-7.3l-2.1-2v-4.2l-4.1-3.7-12.5-0.5v-3.1l1-6.8h3.1zm-154.7 10.4l5.3-1 2 1.6 1.1 7.8h-3.1l-5.3-1.1zm89.6 2.1l7.3-0.5 1.1 6.8-4.2 1.5 1.6 7.3v1.1l-2.1-0.5-2.6-4.2-3.2 1.6 0.6-4.2-2.1-0.5-1.1-4.2 0.6-4.2zm-164.6 2.1l6.2-2.1 5.2 5.2-2 1.6-0.6 3.6-3.1-1-2.6 1-2.6-0.5-0.5-6.7zm521.9 20.8l14.5-3.1v17.7h-13.5zm-610.4-0.5l1.5-1.6h4.7l1.1 4.2-1.1 2.1h-6.2zm366.1 0.5l1.6-2.1 2.1 1v3.7 5.2 5.7l2.6 3.2-2.1 2.6-3.1-6.3-3.7-1.5-2.1 5.7v9.9h-3.6v-0.5l-2.1-4.7-2.1-6.8 1.6-2.1 2.6 2.6 3.1-4.1 3.1-5.3-2-5.2 1-1 2.6 1zm133.9 10.5v-9.4l1.5-2.6 7.3 1-0.5 7.8 1.6 1.1-1.1 4.1-7.3 0.6zm-93.2 6.2l3.6-10.4h6.3l2.1 8.9-2.6 0.5-3.2-5.2-3.1 6.2zm-81.2 0l2-3.1 3.7 0.5v4.7h-5.2zm-43.8 9.4l-0.5-5.2h4.2v2.1 4.1 1.1l-3.1-1.1zm-54.7 2.1l1-2.6 5.2 1.6-0.5 4.7-0.5 1.5h-4.7l2.1-3.6zm108.3 3.1l3.7-4.7 1.5 1.1v1.5l-2.1 3.7h-3.1zm85.4-4.2l3.1-0.5 3.2 8.3 2.6-2.6 1.5 1.6-1.5 4.1 1 5.8 1.6 5.7 0.5 2.6 2.6-2.1 2.1 0.6-0.5 4.1-2.1 1.6h-4.7l-1.6-9.4-2.6-1.6-1.5 2.7-2.1-1.1 2.6-7.3zm-132.3 23l-1.6-6.3h3.7l0.5 0.5 0.5 5.2zm352.6 25.1l-3.6-3.2v-11.4h4.1l0.6 2 2.6 1.1-2.1 11.5zm-565.1-11.5l1.5-1.1 6.8 1.1 1.1 1.5-2.6 7.9-1.6 0.5-4.2 0.5-6.2-1-0.5-3.2 2-4.1zm28.2 4.1l4.1 1.1h2.1l2.6 3.6-0.5 4.7h-6.3l-4.1-4.7zm27.1 32.9v-5.8h2l5.3 2.1 2 4.7-1 0.5zm252.6 18.8l3.1-2.1 2.1 2.6h4.7v3.2l-3.6 0.5-4.7 4.7-7.8 1.5-0.6-1.5 2.1-1.1-1-1.5v-4.2l5.2-0.5z"/>
		<path id="Path 10" class="s10" d="m398.4 413.5l31.8-0.5v5.2l-6.8-0.5-8.8 2-8.3 0.6-3.2-1.6-4.7 2.1-0.5 3.6h-4.1l-3.7-4.1-4.2-1.1-0.5-5.2zm-90.1 4.7l12.5-1v4.6l-1.5 0.6-1.1 4.1-9.9-2.6zm-20.3 7.9l-0.5-6.3h3.6 0.5v3.6l-1 2.7-0.5 1zm15.6 8.3l-0.5-4.7h5.2l2.1 1.6v4.2l3.1-1.6 0.5 5.2v0.5h-3.1l-1-2.6h-4.2zm28.1 2.1l0.5-4.7 5.2 1.1-0.5 4.1zm50.5 3.2l5.8-3.7 1.5 1.1-2 4.7-0.6 1.5-3.6 1.1h-1.6l-0.5-1.1-0.5-3.1zm106.8 0l-1.1-2.1 4.2 1.1-0.5 3.6 1.5 1.6-1.5 3.1-2.6-0.5zm-32.9 3.6l3.2 2.1 2.6-3.6 2.1 1-2.1 4.2v5.7l-1.1 3.1 2.6 4.2h-2l-2.7-2.6-2 1.6h-2.6l0.5-3.7 2.1-1-1.1-4.2-3.1-7.3zm80.2 0v-0.5l1 3.6h2.1l-1 2.1-2.1-1-1.6 2.1zm79.2 19.8l0.5-8.4 1.6-3.1h2.1l4.7 8.3-1.6 7.3-1.6 0.6-0.5-6.3-4.7-0.5zm39.6-5.2l-1-4.2h3.6l0.5 5.2-2 0.5zm-11 0l2.1-3.1h3.6l1.6 3.1 2.1 0.6v4.1l-9.4-0.5zm-460.9 9.9l2.1-1.6v-4.1h4.1l5.2 2.6 1.1 3.6v12l-1.1 0.5h-9.3v-4.7l-1.6-2zm570.3-0.6l0.5-3.6 2.6-1 3.7 2.6v4.6l3.6 2.1h1.1l-1.1-5.2 1.6-1.5h2.1l2.1 3.1-1.1 4.2-3.6 1 0.5 6.8-4.7 3.1-2.1-4.7 2.1-7.3-3.1 1.6-2.6-1.6zm-405.8 0.5l-1-3.1h0.5 2.6l2.1 4.2 1.6-1.1 2.6 1.1-1.6 7.3-1-2.1 1-4.2h-3.6l-1.1 4.2-0.5 0.5 0.5-3.1-2.1-0.5 1.1-2.1zm289.6-2.6l2.6-0.6 2.6 4.7 1.5 5.8-1 2.1-2.1-3.7h-5.2zm-14.1 3.1l3.2-3.1 2.1 3.1v2.6l-5.3-0.5zm55.3 2.6l-0.6-4.7 7.3 0.6-0.5 4.1-3.1 3.2h-1.6zm-33.8 9.9l3.1-1.1 1 1.1 0.6 11.4-8.4-1.5zm108.3 1.5l3.7-1.5 1.6 1.5 1.5 9.4 4.7 3.1 0.5 7.3-1.5 3.7h-5.2l-0.6-6.3 1.6-1 0.5-4.2-6.2 3.1-1.6-1v-3.6zm-617.7 2l2.6-2h5.2l6.3 4.1 1.5 4.7-1 4.7-4.7 1.6 3.6-5.2-2-5.8-3.2-2.1h-5.7l-2.1 1.6zm637.5 10.4l-6.7-1-0.6-8.4 1.6-2.6 3.1 0.6 2.6 3.6zm-492.2-5.7l0.6-0.5 2 0.5 1.6 4.7 3.6-2.1 3.2 4.7 1.5 8.3 3.7 1.1 1-3.2h3.1l2.1 5.2-0.5 10.5-4.7 2.6v4.7h-3.1l-2.6-3.7-6.8 0.5v-7.3l-2.1-0.5v-3.6l2.6-1.1 0.6-5.2-4.7-1-2.1-8.4zm-80.7 12.5v-3.6l4.1-1.6 1.6-3.1h10.9l4.2 2.6 1 12.5v3.2l-4.1-1.1-1.6 2.1-3.1-0.5-3.7-5.2h-5.2zm393.3-4.2l1.5-2.6 2.6 1.5 1.6 9.4-1.1 5.2-6.2-1-1-4.7zm-274 2.1l3.1-2.6 2.6 2.6v8.3l-0.5 2.1h-1.6v-5.7l-3.6-2.6zm281.8-0.5l3.1-0.6v1.1l-2.6 2.1zm-232.3 3.6l2.6-0.5 1.6 4.7v7.3l-0.6 2.1h-3.1l-0.5-3.2-4.2-2zm50.5 0l8.4 2-1.1 5.3-4.6 4.1-1.6-3.6zm7.8 7.8l3.1-3.1 3.2 6.7v5.8l-1.6 1-3.7-5.2-2.6-0.5zm18.3 33.3l6.2-8.8 3.7 5.7h2l0.6-1.5v5.2l6.2-3.2 1.1 7.3 3.1-2 0.5 1-1 22.4-9.4 0.5h-1.6l-1-7.8-11.5-0.5 1.6-4.7-1.1-5.7zm281.8-8.4l4.2-0.5v1.6h2.1v4.1l-5.8-1zm-65.6 8.3l1.1-4.7 2.6 1.6h7.3l-2.7 6.3-7.2 0.5zm-176.1 6.8l2.6-2.6 1.1 1.5 5.2 1.1 0.5 3.1 4.7 0.5 4.7-4.2 1 1.1-3.1 6.2v4.7h-3.1l-11.5-1v-8.9zm40.6 3.7h9.9l-2.6 3.6v4.2l4.2 3.1v3.1l2.6 2.7-11 0.5-7.2-1.1v-9.9l1.5-3.6h1.6zm-126.1 1.5l4.2-0.5v4.7l-0.5 1.1-4.2-1.1zm188 4.2h5.8l3.1-2.6 2.1 1 1 5.8 0.5 8.8-7.3 2.1-3.6 0.5-1-3.1-3.2-2.1v-3.1z"/>
		<path id="Path 11" class="s11" d="m148.4 477.6l-4.7-1.6 1.1-3.1h2.1l2.6 2.6zm559.4 18.8l-3.7 3.1-2.6-4.7v-4.1l7.8 0.5zm1.6 0.5l1.5-2.1 2.6 0.5 2.7 7.9-1.1 4.1 2.6-2.1 1.1 2.6v11.5l-1.6 1.1h-5.2l1.5-10.5-4.1 1.1-2.1-7.3zm-7.3 14l3.1-3.6 3.2 4.7v7.3l-1.1 0.5-2.1 0.5-1.5 3.2-2.6-1.6zm-38.1 1l1.1-3.1h1l3.2 7.3-1.1 5.7-4.7 6.3-2.6-2.1zm-115.1 6.8l4.2-8.9 2.1 2.1 1.5 3.7 1.1 6.2-2.1 4.7 4.7-0.5 1 4.7-4.2-1.1 0.6-2h-3.2l-5.2 5.7-0.5-3.7zm124-0.5l1.5-7.8h2.6l1.1 7.8zm-24.5 1.6l3.6-6.8 2.7 0.5 1.5 3.7 0.5 3.1-4.1 7.3-2.6 1.6-1.6-1.6zm-312.5 3.1l4.2-4.7 3.6 2.1 1.6 5.8v3.1l-3.7 1.5-4.7-1-1.5-3.1zm-168.2-0.5l2-2.7h2.6l8.9 2.1 0.5 1.6 5.2-1.6 5.8 0.6 5.2 1 0.5 2.1-0.5 5.2-2.1 2.1-14.6-2.1-1.6-2.1h-9.3l-1.6-2.1h-2.6zm185.9 1.6l3.7-4.2h1.5l1.6 3.7v3.1l-7.3-1zm242.7 2.6l0.5-4.2h7.3l-0.5 2.1-4.7 6.8-2.6 1.5zm-58.8 6.3h1.5l4.7-6.3 1.1 1.1 2.6 7.8-0.6 2.1-6.7 7.8-1.6 1-0.5-1-1.1-8.4zm-272.9 8.4v-3.1h2.6l12 5.2v5.2l-2.1 1v2.1l-9.4-2.1-3.1-3.6zm294.8 12l-1.5-5.3 4.6-5.2v-2.6l1.6-1 1.6 1.6 1 3.6-0.5 5.7-5.2 4.7zm-28.1-11.4h3.1l1 3.6-0.5 7.8h5.7l1.1-5.2 6.7-6.2 1.6 1.5v7.3l-4.2 4.2v2.6l3.7-2.1 0.5 9.4 2.6 4.2-0.5 1.5-5.2 0.5v-3.6l-6.8 3.6-2.6-2.6v-3.1l-4.2-3.1v-4.2l2.6-3.6h-9.9l-0.5-4.7 5.8-5.2zm32.8 16.6v-2l5.2-5.8 3.6 2.1 2.1 1.6-0.5 1-3.1-1-0.6 5.7-4.1 1.1zm-178.2-3.2l3.7 2.6 6.8-5.2 1 2.6 2.6 0.5-0.5 4.2 4.2 1.1 0.5-1.1h7.8v2.1h4.7v10.4h-7.8l-1.6 2.1-16.7-2.1h-26.5l-8.9-2.1-16.7 2.1-26-3.6-1.6-6.8-3.1-4.2 0.5-1h8.4l1 2.1 7.3-0.5 4.2 3.1 3.6-1.6 7.3-0.5 5.2 1 1.1 1.6 7.3 0.5 2.6-1.5 3.6 0.5v1.5l11.5-0.5 3.1-3.6 3.6-0.5 1.6-3.2h1.6zm191.1 0l3.6-2.1 0.6 4.7h-4.7zm-143.8 7.3l11-0.5 11.4 0.5 1.1 7.8h1.5l1.1 6.3-1.1 4.2h-8.3l-4.2-2.1h-7.8l-4.7-6.3z"/>
		<path id="Path 12" fill-rule="evenodd" class="s12" d="m332.3 417.1l7.3-1 2.1 4.2-4.2 1h-3.6zm38 13l3.6-1 1.6 2.6-0.5 1.6-2.6 1-1.6 4.2-1.6-0.5-1-4.7zm57.3 11.4l-1.6-7.3 4.2-1.5 4.2 4.1 1 4.2v1.1l-0.5 0.5-4.2 1.5-2.1-1.5zm393.3-0.5l11.9-4.2 0.6 8.3-7.9 3.2-1-2.7-3.1-1zm-571.4 1l4.7-1.5 3.7 2.6 3.1-1.1 6.8 0.6 3.6 4.7 1.6 2-1.6 2.7-4.2-0.6v-6.7l-2.6-0.6-2.1 1.6v5.2l-5.7 1.1-1.6 4.1-2.6-0.5-2-4.2 2.6 0.6 1.5-1.6v-4.7l-4.7-0.5zm92.2 1.5l1.1-1h0.5l2.6 6.8h2.1v1.5l-3.7 0.6-0.5 3.1-2.1-2.6zm230.8 21.4l-2.6-6.3-1.6-0.5 1-5.8 3.2-5.2 3.6 1.1 3.1 7.3-3.6 10.4-2.1 1zm-188.5-12.5l2-4.7h1.6l2.1 3.2-0.5 7.8-4.2-1.1zm-82.8-1.5l-0.5-2.1 1.5-0.5 1.1 2.6zm125 3.1l1-4.7h2.1l-0.5 3.7 2.1 0.5v1.5l-2.1-1zm314.6 8.9l2.6-5.2 4.1 4.6-0.5 2.1-1 0.6-4.7-0.6zm-7.3 13.6l0.5-6.3 2.1-1.5 3.6 0.5 1.6 6.8-1.6 3.1-3.6 2.6zm-16.7-1.6l1.1 3.7-2.1 4.7-4.2 3.1-2.1-2.6 2.1-10.4zm-237-0.6l1.6-0.5 2.6 3.2 1 5.2-6.7-4.7zm16.1 0l1.6 0.5 2.6 5.2-0.5 3.1h-1.6l-0.5-2.6h-4.7v-1zm-136.5 12.5l3.2-8.3 1 5.2 2.1-1.1 2.1 2.1-1.1 3.7 1.1 0.5-1.1 8.8 0.5 2.7-2.6 1-2 4.7-3.2-0.5v-10.5l2.6-7.8v-1.5zm369.3 7.8l-1-5.8 1.5-8.8h2.6l2.6 3.1 0.6 3.7-3.7 8.3-2.1 1zm-293.2 1.1l3.1-3.1 3.2 4.6-1.1 2.1h-6.2l0.5-2.1zm-46.4 3.7l-1.5-2.6 2 0.5 2.1-4.2 5.8 3.2 1 2.1-1 6.2-4.7 6.8-1.1-0.5-1-4.7zm278.6 9.4l-0.5-12 2.1-3.2 2.1 2.1 2.1 6.3-0.6 5.2-2.6 2.6 0.6 2.1h-1.6zm-61.5-8.9l3.2-5.7 1 1 2.1 9.9-1.1 5.8-3.1 4.7-2.1-1.6-2.6-8.3 2.1-1.6zm-89 16.7l-3.7 2.1-0.5-11-1.6-2.6 5.2-10.4 4.2 3.1 0.5 9.9zm-205.7-15.1l-4.2 6.2-1.5-0.5-1.6-6.7 1.6-5.3 5.7 2.6zm320.3 3.2l5.7-8.9 2.1 2.6-1 11.5-1.6 1.5h-4.1l-2.1-4.6zm-54.2-7.3l4.7-0.6 1 5.8h-7.8zm-246.3 10.9l2-2.6-1-2.6h2.1l1-3.1 2.6-0.5 2.1 3.6 1.1 8.3v0.6l-7.9 9.4h-1.5l-0.5-5.3zm52-2.6l2.7-1.5 0.5 1.5 2.1 5.8v6.7l-1.6 2.1-3.7 3.2-0.5 3.1-3.6 1.5 0.5-2.6-2.1-1-0.5-10.4v-3.2h3.6zm-34.3 2.7l2.6-3.7 2.6 1.6 1.5 7.8-2 3.6-6.8 0.6v-5.8zm64 1.6l2.7-3.1 1 3.6 0.5 9.4-4.7 6.2v2.7l-3.1 1-0.5-5.7 1-8.9zm206.8 6.3l-0.5-8.9 6.2 1-2.1 6.3-2.6 2.6zm-73.9 1h-1.6l-1.6-9.3 7.9 0.5zm-103.7-6.8l1.6-2.1 2.1 0.5v5.3l2 4.1-0.5 2.1-5.2 6.8 0.5 2.1-3.6 1.5v-1l-1.1-9.4 1.6-5.7zm-46.3 3.1l2.6-3.6h3.6l1.6 9.3h-1.6l-4.2 5.8v2.6l-3.1 1-0.5-2.6zm197.4 4.2l-1.6-7.8 6.3 1-0.5 2.1zm-229.7 3.6l-0.6-7.8 1.6-2.6 4.2 2.1 0.5 3.1-1.6 5.2zm156.3-4.1l4.7-4.7 2.6 7.3v4.1l-4.7 7.3-3.7 2.1-1.5-10.9zm-95.9 7.8l1.6-9.9 2.6 0.5 3.7 5.2v1.1l-4.2 6.7-4.2 2.1 1.6-2.1zm-102.1-5.7l2.1-3.1 2.6 0.5 1.6 6.3 1.5 3.1-2.6 2.6h-4.7l-2.6-2.6-0.5-3.1zm91.7 10.9l6.2-6.8 1.1 10.5-2.6 4.7-3.2 2v2.1l-5.7 2.1-0.5 5.7 3.1 0.6 1.6 6.2-1.6 2.6h-7.8v-4.7l-4.2 0.6-2.6-0.6-1-2.6 0.5-2.1h4.2l-0.6-4.1 2.1-2.1-0.5-2.6-4.2 1v-11.4l1.6-3.2 3.1-3.6h2.6l1.6 7.8-1.6 5.7 4.2 0.6 2.1 3.6zm30.7-0.5l4.7-5.8 1.6 0.6-0.6 2.6 2.6 6.2-1 1.6-6.2 8.9-4.7 0.5-2.1 6.8v1.5l6.2-1 1.1 5.7-1.6 4.7-10.9 0.5-1.1-3.6 1.1-3.7-2.6-0.5v-2.1l1-8.3 5.2-5.8 3.7 3.2 2.1-0.6v-8.3zm85.4 12l-3.2 1.6-1 2.6-4.2 1.5 1.1-1.5-1.1-9.4 6.3-8.4h1.5l1.6 9.4zm23.4 1.1v-7.3l4.2-5.8 4.2 1.1h0.5l0.5 5.2-1.5 3.1-6.8 7.3h-1.6zm-57.8 3.7l5.2-5.8 1.6 0.6 1 4.6 1.1 4.2-4.7 4.2-4.7-0.5-0.5-3.2zm-79.7 3.7l1-6.3 4.2 1.6v6.3l-3.6 0.5zm42.7 20.3l9.3-0.5 1.6 2.1-0.5 1-0.5 3.7h-8.9z"/>
		<path id="Path 13" class="s13" d="m471.4 395.8l2.6-4.2h2.6l0.5 0.5 0.5 1.6-1.6 5.7h-2zm115.6 45.4l-3.7-4.7h-2v-1.6l6.7 0.5 5.8 1.1-2.1 4.1zm-326.6-4.1l2.6-1.1 3.1 1.1 2.6 3.1 2.6-0.5v7.8l-3.6-4.7-6.8-0.5zm208.9 5.7l3.1 3.1 2.6-5.7 0.5 3.1h2.6v0.6l-1.5 4.7 0.5 5.2 3.1 6.7 2.1 0.6 1-1.6 1.6-1.6 1.1 2.6-0.6 8.4-3.6-1.1-0.5 6.3-1.6 0.5h-3.1l2.6-7.3-3.1-1.5 1-2.7-1.6-0.5-1-4.7-2.1-0.5-3.1 9.9-1.6-1.5-3.1 1.5-2.6-2.1-0.5-5.2h2.1l3.1 2.6v-3.1l2.1-1-0.6-2.1 2.1-0.5 0.5-3.7-1.5-5.7-3.7-3.7zm-223.4 0.5l3.6-1 0.6 3.1-1.1 1.6 1.6 4.7 2.1 4.2-0.5 12.5-2.1 3.1v10.4l1 3.7-17.2 1.5-1 2.1h-16.2l-2-3.1-0.6-5.2-2.6-2.6-7.3-1.6v-8.3l11.5-0.6 3.1 2.6h5.7l2.7 1.6 3.6-4.2v-5.7l3.6-1 1.6 1.5 1-2.1-1-3.6 1.6-2.1 2.6-11.5zm68.7 8.9l2.1-4.7h3.1l1.1 1.1-0.5 4.6-2.1 0.6-1.1-2.6-2.1 2zm-138.5-0.5l6.8-1-2.6 4.2 3.1 2.6v3.6l-3.1 1-1.1 2.7-5.2 3.6-13.5-1-2.6-1.6 1.5-5.2 3.7-1.1 5.7-5.7h6.3zm195.8 4.2l-0.5-5.2h2.6l1.5 2.6 3.2-1.1 2 1.6-1 10.4-4.7-0.5-2.1-3.1 0.6-3.2zm-74.5 11l-1.6-4.2-2.6 1.1v-2.1l1.6-0.5 0.5-9.9h1.6l0.5 2 2.1-1 1.5-1h1.1l-2.1 6.7v8.4zm91.6-7.9l0.6-7.8 3.1 3.7h3.1l-2.1 7.3 1.1 5.7 3.6 6.3 5.8-7.3-0.6-4.7-1.5-9.4 2.1-0.5 3.1 4.7 1.5-1.1 2.6 0.5-2 5.8 0.5 3.1v5.2l-2.1 1.6-2.1-2.1-3.6 6.8-5.2-1.6-1.1 2.6h-1l-3.7-10.4-5.7 6.2-1-0.5 2.6-7.3 2.6-0.5-1.6-1.6zm-106.8-2.6l2.1-1 2.1 2.1v5.2l-3.1-0.5zm168.2 5.2l3.7-2.6h2.6l-2.1 8.3-2.1-1.5-2.6 1v-3.1zm209.9 3.6v-5.2h8.3l1.6 2.6-2.1 4.2-1.6-2.1zm57.3 5.7l-2.1-4.1v-4.7l5.8-1.1 1.5 1.6-0.5 6.2 3.7-1 2.6 6.3-6.8-0.6 0.5-3.1zm-453.1 4.7l3.1 1-2.1 4.7 1.1 3.2 1.5-0.6 0.6 2.6-2.7-0.5-2 2.6h-1.6l-1-6.7 2.6-2.7zm188.5 13.1v-3.1l-2.6-2.1 0.5-6.8 3.1 1v-1l1.6 4.2 2.1-0.6v0.6l-2.6 1.5-0.5 6.3zm-354.2 0.5l1-6.8 2.1-1h3.2l1 1.5v4.2zm460.9-5.2l0.6-1.6 2.6 2.1-0.6 2.6h-1l-2.1-1zm-296.3 24l0.5-2.1 2.6-1.1 1-4.1v-2.1l-3.1-3.1 0.5-1.6 6.3 2.6 0.5 2.6h3.6l1.6-1.6 0.5 9.4 3.1 2.1v1.1l-3.6 3.6v4.7l-4.2-1-9.3-1.1-1.1-0.5zm389.1-8.4l2.1-0.5 1-3.6 7.8 1.5 1.6 12-1.1 3.2-4.1 4.7-1.6-1.1-0.5-3.1-1.1-6.8-5.2-0.5zm-477.1 14.6l3.2-2.6-0.5-3.2 2.6-5.7 10.9 1.1 2.1 3.6-1.1 15.1-5.7-0.5-5.2 1.6-0.5-1.6-8.9-2.1 0.5-2.1 2.6-1zm142.8 2.6l3.1-2.6 1.5-4.2h1.6l5.2 6.8 1.6-0.5 0.5 5.2-3.6 1.5-1.6-6.2-2.6-0.5-2.1 3.1zm15.1 4.7l7.8-9.4 2.6 8.3-3.6-2-4.2 4.7zm223.4-5.8l-1.5-3.6 2.6 1zm153.6 17.2h10.5 4.1l2.1 2.6 0.5 4.2-17.2-0.5zm32.8 10.4l2.7-6.3h6.2l2.1 1.1v7.8zm-466.2 8.3v-2l2.1-1.1v-5.2h4.2l3.6 1.6 4.7 4.7v4.1h-7.3zm167.7 0l-6.2 1.1v-1.6l2.1-6.8 4.7-0.5zm-32.9-0.5l3.7-1.1 1.6 2.1 3.6-0.5 1.6 3.1-5.8 7.3h-4.7v-2l1.6-2.7zm223.4 8.9l1.6-6.2 6.8 1-1.1 7.8h2.1v1.6l-1.5 0.5zm-62.5 9.4l12.5-2.1v3.1l3.1 2.1 1 3.1-4.1 1.1-16.2 4.1h-0.5l-2.1-8.3h5.2z"/>
		<path id="Path 14" class="s14" d="m456.3 443.2l-1.6-6.8h5.7l2.1 1.6-0.5 3.6-2.6 3.7zm-324 45.3l3.1-4.1 0.6 1.5-1.1 5.8 2.1 3.6-2.1-0.5zm90.6 25.5l2.6 1.6 9.4-4.7 1.1 3.1 0.5 2.1 4.7-1-2.1 4.2-3.1 1-5.2 8.3-2.1 0.6-1.1 2.6-5.7 3.1h-3.6l-2.6-3.7-7.3-0.5-3.2-0.5-2.6-2.6v-2.6l1.6-1.6h5.2l2.6-3.6 5.2-0.5 1.6-3.7zm165.6 8.9l1-1.6 1.6 0.5-0.5 4.2 2.1 3.6-2.1 6.8-2.6 2.1 0.5 2.6-2.6 0.5-1-5.7v-8.3zm65.1 0v-0.6h5.7l1.6 2.1-2.6 4.2-0.6 2.1-4.1 1.5 1-1.5zm79.2 3.6v-4.1h3.6l3.7 3.6-2.1 3.7h-1.6v2l-3.1 2.1zm-296.9 6.3l5.2-2.6 2.1 2.6h3.1v3.1h2.6l4.2 5.2-10.9 1.1-0.6 2-6.2 1.1-1.6-4.7v-5.7zm190.1 7.8l1.1-7.3 1.5-1.6 4.7 2.1 0.6 3.1-3.2 5.8-4.7 1.5zm43.3-1.5l3.1-1.6 1.6 1.6-0.6 8.3h-4.7l-0.5-1-0.5-4.2zm11.5 11.5l1.5-8.4 4.2-2.6 1 4.2 0.6 2.1v2.1l-2.6 2.6z"/>
		<path id="Path 15" class="s15" d="m238 425l5.8-0.6v3.7l-5.3 0.5-0.5 1.6-9.9-0.6v-3.6zm-139 64.1l7.3-2.1 4.6 4.2h5.8v5.2l-4.2 1.6 5.7 12.5-3.6 0.5-2.1-1-4.2-1.6-2.6-3.6 1.1-3.2-3.7-4.1-1-2.6-5.2-1.6 0.5-4.2zm633.9 8.9l3.1-6.3 4.7 2.6 1 7.3-3.1 2.1h-5.2zm-386 20.3l6.8-0.5v6.3l-0.5 1.5h-1.6l-1-1-5.2 1.6-1.6-5.8h2.6zm13.6 5.2h2l1.1-2h4.2l1 4.1-1 8.9-4.2 1.6-4.2-2.1 1.1-7.3zm-225 9.4l2.6-9.4 18.2 3.6v13.6l-5.7-1.1-7.3-4.1zm82.8 2h3.6l5.8-3.1 1 3.1h5.2v5.8l-4.7 1.5-10.4 1.1-1.6-6.3zm394.3 4.2h4.2l3.1-3.1 4.7 3.1 0.5 2.1v2.6 4.2l2.1 0.5v11.5l-4.2 1h-6.2v-2.6l-4.2-3.7-7.3-2v-4.2l-3.6-1.1 2.6-5.2-5.2 0.5 0.5-6.2h8.3l2.6 4.7h1.6zm-154.2 41.7l1.1-4.2h8.8l3.1 4.7-0.5 6.3-1.5 1.5-7.3-0.5-3.7-0.5z"/>
		<path id="Path 16" class="s16" d="m479.2 392.1l5.2-1-2.6 6.2-2.6 2.6-3.2-0.5 1.6-5.7zm359.9 41.2l2.6-0.6h3.7l-1.1 5.3 6.8-0.6v1.6l-9.9 3.1-1.6 2.1-6.2 1-0.5-8.3 0.5-1.6zm-341.2 3.7h7.3l1.1 1v2.1l-2.6-1.5-5.3 1zm95.9 7.8l3.6-1 2.1 1.5v3.2l-0.5 0.5-2.6-2.6-1.1 3.1h-2zm9.3 23.5l-2.6-9.4 2.1-8.9 4.7 1.1 3.1 7.3-2.6 7.3-3.1 3.6zm57.3-3.1l6.2-0.5 1.6 2-2.6 5.3-2.6 0.5zm-7.3 3.6l1.6-1.5 3.1 0.5 2.6 5.2-1 4.7-3.2-3.1-5.2-0.6zm32.8 2.7l1.6-2.1 2.6 1 2.1 4.2-0.5 4.1-5.2 8.4-2.1 1-2.1-9.4zm-407.8 4.7l1-3.1 3.1-0.5v2.1l-0.5 1zm-3.6 3.1l-2.1-1.5 1-4.7h1.6l1 3.1zm296.9 0.5l2.1-4.1 3.1 5.2v0.5zm239.6 8.9l13.5-1.1 2.1 1.6 0.5 8.8 2.1 3.7-0.5 22.4-9.9-2.1 2.1-7.8-4.7-1.6 0.5-8.8-2.6-0.5-3.1-0.6 1.6-1.5v-3.7-1.5l6.2-0.6-5.7-1zm-548.5 3.6v-3.6h1.6l-0.5 3.6zm64.6-2l2.1-1.6 6.2 2.6-1.6 6.8-4.6 4.7zm314 8.3v-7.8l8.4 1.6-3.2 6.7 4.2-2.6 2.1 3.2-1.1 5.7v2.6l-4.7 7.3-2-2.6v-5.2l-1.6-1.6 2.1-0.5 1-5.7-4.1 3.1zm-191.2-1.1l4.7-5.7 1 1.6 1.6 6.2v4.2 4.2l-3.6 3.1-2.1 5.2h-1.6l-1.5-7.3-1.6-6.2zm17.2 0.5l4.7-4.7 2 12-1 5.2-4.7 5.2-2.6 1.6-1-11.5zm-345.3 0l2.6-3.7h4.7l3.1 4.2-1.6 3.1-6.8-1zm436.5 4.2l4.2-7.8 3.1 1.5 1.6 7.8-2.6 9.4-3.7 4.2-2.1-4.2-2.1-6.8zm-184.9-4.6l1.6-2.1 7.8 1.5v2.6l-1.5 4.7-4.2 4.7-2.1-2.6v-6.8zm114.1 69.9v-6.3l11.4 1.1v7.3l-2.1 0.5-1-2.6zm420.8 11.5v-2.1l3.2 1.5v0.6z"/>
		<path id="Path 17" class="s17" d="m872.4 423.9l7.8-2.1 1.6 8.9-0.5 1-6.3 1.1-5.2 4.7-4.7 1-1.6 2.1v6.2l-6.2 1.6-1 3.7h1v2l-4.7 0.6-8.3-5.2h-4.7v-5.3l1.5-2 9.9-3.2v-1.5l-6.7 0.5 1-5.2h-3.6l7.3-2.1 13-3.7 8.3-2.6zm-295.3 19.3l4.7-2.1 2.6 3.7v2.1l-1-2.1-5.3 0.5zm101.6 14.6l6.8 1 2.1 6.8-2.1 1.1-7.3-0.6-0.5-4.1zm-87 6.7l3.1-5.2 0.5 2.6 2.1-0.5 1.6 1.6 3.1 6.2 0.5 4.2-1.5 0.5-2.6-6.7-4.2-1.1v-1.6zm-145.3 8.9l2.1-1.6-1.1-1 1.1-2.6h1.5v2.1l0.5 5.2-2-0.5-2.6 3.1-2.1-0.5zm73.9 5.7l1.6-5.2 2.6-2.6 2.1 4.7-2.6 1.6-1.6-0.6zm-152.6 5.8l2.1-0.6 0.5 3.2-2.6 1.5-1-0.5zm-178.2 12.5v-7.8l5.3-4.7h5.2l5.7 8.4-1.6 3.1-4.1 1.5v3.7h-8.4zm236.5-4.2l1-0.5 1.1 3.1 2.1-0.5 0.5 2.1-3.7 2.6zm5.8 3.7l3.1-4.2 0.5 3.1-0.5 1.6zm376.5 33.9l1.6-6.3h1.6l1 6.3zm-562 2l2.1-0.5 2.6-4.7h1.6l1.5 3.2-5.2 5.2h-2.6zm439.1 5.7l5.7-4.2h4.2l0.5 5.8h-1.6l-2 0.5-0.6 2.1-1.5-0.5-1.6 3.1h-3.1zm159.4 23.4l3.1-2-1-13.6 25 7.3 4.6 1.6-1.5 3.1v12l-1.1 4.7 6.8 2.6 4.7 2.6-3.1 3.6v3.2l1 2.6 3.1 1.5v4.2l-6.7 8.3-9.9-4.1-1.6-6.8-10.4-5.7h-7.8v-12.5l-5.2-4.2zm-528.2-5.2v-3.2l13.6 1.6 2.6 4.7-3.7 1.6-4.1-3.2-7.3 0.6zm310.4 3.1h8.3l7.8 4.7-1 2.1-3.6 0.5 2.6 12.5-0.6 4.2-7.8-8.4-4.7-5.7-5.2-1.6v-7.3zm-27 4.2h4.1l3.1-3.7 7.3 2.1v3.7l2.6 2.1-2 1-11.5 3.1-3.1 0.6zm312.5 43.2l2.1-0.5 3.1 1-1.1 5.8h-2.6l-1.5-1.6z"/>
		<path id="Path 18" class="s18" d="m325.5 422.3l-0.5-5.2h7.3l1.6 4.2h3.6v2.1l-5.2 1-0.5-1.5zm-81.8 2.1l4.2-0.6h6.7l2.6 4.7v1.1l-12.5-0.6-1-1zm-33.3 4.2l6.2-1.1 1.1 5.2-5.2 1.6-18.8 1.6v-3.7l0.5-0.5h0.5zm158.9 9.4l1.6 0.5 1.5-4.2 2.6-1 1.1 3.1-1.6 4.2-0.5 0.5v9.4h-2.6l-2.1-1.6-1.6-4.7v-3.1l-3.1-1v-1.6l0.5-1zm-156.7 2l6.2 0.6 8.3-2.1 9.4 0.5v2.1l3.1 0.5 0.6 1.6-2.6 11.4-3.7-0.5-2.1-2.1v-2.6l-9.9-1.5-5.7-2.6h-7.8l-1.1-2.6 4.7-0.6zm-29.1 17.2l6.2-1v5.7h-4.1l-2.1-1zm-38.6 9.9l11.5-1.6 0.5 5.8-0.5 2h-4.7l1.6 4.2-1.1 2.1-3.6-2.1 1-2.1-2.6-2.6 1.1-3.6zm567.1 3.1l3.2-1 1 1.5 0.5 4.2-5.2-1.6v-1.5zm-591.1 12.5v-8.4h4.1l3.7 2.1 0.5 11.5v6.2h-4.7l-3.6-3.1zm-36.5 16.7l3.1-2.6-3.1-4.2 3.1-1.5-5.2-0.6 1.1-5.2 0.5 1.6 4.7-0.5 6.8 0.5 2 2.1-0.5 4.1-5.2 1.1 1 3.1h2.7l-3.7 2.1zm679.2 6.3v1.5l5.2-0.5 3.1 1.6 1.6-9.4h2.6l1 6.8 3.1 1 0.6 5.7-4.7 6.8-2.1-1.6-3.1 0.6v4.1l-3.2 6.3h-15.6l-1-2.6-2.6-0.5-2.6-6.3h-3.7l-1.5 1.6-6.3-2.1 1-5.7-4.1-9.4h2.1 5.2l3.1-2.1 3.6 1.6 2.6 4.6 4.7 2.1h3.7l1-4.1h1.1zm-73 11.9l1.1-10.9 4.7 0.5 0.5 2.6h4.2l1 1.1-1 10.9 2.6 1.6 1.5 1-1 8.4h-2.1l-4.2-0.6v-4.6l-4.1-0.6-0.5-2.1 0.5-6.7zm-428.2 5.7l1.1-2.1-2.1-1.5v-2.7l2.1-1 9.4 1-2.1 4.7-5.2 2.1zm390.1 4.2l4.1-7.3 0.6 3.6 3.6 2.1 2.6 2.1 4.7-6.2 4.7 0.5h5.2l1 0.5v3.7l1.1 6.2v4.2l-4.7 3.6h-3.1-7.3l-2.6-1.5v-2.1l-3.2-1.1v-6.2l-4.6-0.5zm-53.7 3.6l4.7-6.8h5.7v2.1l4.7 0.5 2.6-2.6 5.8 3.2 1.5 2-3.1 3.2-6.8-1.1 0.5-2.1-5.2 2.1-1.5 4.7h-8.4l1.1-5.2zm-371.4 0.5l1.1-2.6 2-0.5 5.3 4.2-2.1 2.1h-5.2zm398.4 6.7h3.6l3.2-3.1 2.6 3.1h2.6l1.5 2.6 3.7-1 1.6 4.2h3.6l2.1 5.2-2.6 5.2h-4.2l-6.8-1-1.5-3.7h-2.6v-1.6l-3.7-2 0.5-3.2-4.6 0.5v-2.6zm-55.2 21.4l0.5-5.7 3.1 1 0.5-1h1.1l1 1-0.5 2.6-1.6 3.2z"/>
		<path id="Path 19" class="s19" d="m482.8 382.7l6.3-6.2 2.6 2.1 2.1-0.6 4.6 3.7-5.7 6.8-4.7 5.2-4.7 3.6h-1.5l2.6-6.2-5.2 1v-1l-2.1 1-0.5-0.5-0.6-2.1zm-103.6 67.8v-3.7l2.6-2.6h1.6l-2.1 7.3zm-50.5 3.1h4.6l2.6 9.4h-2.6l-3.1-5.7-2.6 2.1-1-3.1zm-76.6 14.5l0.5-12.5 2.6 0.6 4.2 3.6-1 5.2h-2.6l-1.1 3.1zm114.1 2.1l1-2.1h2.1l3.6-7.8 2.1 3.2 4.7 0.5 2.6 8.3-2.1 3.1-1.5-1.5 0.5-3.7-4.7-5.2-4.7 6.3-0.5-1.6zm-57.8-4.2h2.1v-2.6l1.5-0.5 0.6 13h-2.6l-1.1 3.2-2.1 0.5 1.6-7.3zm4.7 9.9l2.6-1 3.1-4.7 1 1.5-3.1 3.2v3.1h-3.1zm144.8 4.2l3.1-5.8 0.5 0.5-1 3.7-2.6 2.1zm-84.4 9.9l3.7-6.3 3.1-2.1 2.1 1.6v3.7l-3.2-0.6-3.1 6.3zm183.9 7.3l4.1-10.4h1.1l1 3.1-1 1.6 3.1 0.5 0.5 2.6-0.5 1-3.1-1.5h-2.1zm-340.6-4.2v-4.2h16.1l1.1 9.4-0.6 8.9 5.8 4.7v1.5l-3.2 0.5-1-3.1-9.4 4.7-2.6-1.6 3.7-4.1h-3.7l-1-1.6-1.1-12.5zm-100 3.1v-5.2h4.2l3.7 3.1-2.7 3.7zm693.8 13.5v-4.7l3.1-0.5 0.5-1.5 2.7 0.5-0.6 8.8 4.7 1.6-2.1 7.8 9.9 2.1 2.1 7.3 6.8 2.1 2.1 2.6 1 7.3 6.3 3.1 1 13.6-3.1 2.1-8.4-4.2v-7.3l-6.2-3.1v-6.3l-1.6-2.1-4.7-1.5-3.1-4.2-8.3-2.6-1.1-6.3 2.1-11.4-2.6-1.1zm-529.7-1l2.1-0.5-2.6-3.2v-1.5h1.6l4.7 1-0.6 5.2-2.6 1.1-2.6-1.1zm608.9 64.1l0.5-2.6 8.3 2.6 4.7 1.6-1 2.1zm28.1 34.9l5.7 0.5 0.6 2.6-3.7 2.7-2.1 1-1.5-1z"/>
		<path id="Path 20" fill-rule="evenodd" class="s20" d="m399 439.6l-2.6-7.3 3.1-3.7 5.2 2.1 1 8.3 1.1-2.1 5.2 0.6v-7.3l5.2 0.5 1 4.2 2.1 0.5-0.5 4.2 3.1-1.6 2.6 4.2 2.1 0.5 1.6 6.8h-2.1l-4.2-4.7v-2.6l-2.1-0.6-1.5 2.1-0.5-1.5h-4.7l0.5 4.1h-1.1l-6.7-6.2-2.6 1-1.1 3.1-0.5-3.6zm-81.2-0.5l-0.6-6.3 2.1-2.6 4.2 1.1 2.1 7.3h4.7l2 7.8 2.1 1 2.1-1-1 3.1-2.1 4.2h-4.7v-6.3l-3.1-6.2-5.8 2zm166.7 3.2l-1.6-3.7 2.1-1.5 3.2 0.5 1 2.1-4.2 1zm46.9 5.7l-2.6-5.7 2.1-3.1 4.7 1.5 1 2.1v0.5l-3.6-1zm-103.7-5.2v-1l1.1 1zm50.5 0.5l2.1-1 5.2 2.1 2.1 2.6-2.1 2-7.3-5.2zm42.7 3.7l2.1-2.6h2.1l5.7 6.2 2.1 5.2-3.2 5.3-0.5-2.1 1.6-1.6-1.1-4.2-8.3 0.6zm-172.9 2.6l3.6-4.7h0.6l1.5 1.5-3.1 4.7h-2.6zm-68.2 3.2l2-2.6 4.2 1-1.5 4.2-2.1 1-4.2 3.1-0.5-1zm98.9-0.5l0.6-1.6 2 1.1v0.5l-0.5 1.5zm-60.4 1.6l2.1-0.5 3.1 5.2 3.1-2.1 1.1 3.1-2.1 6.3-1-2.6h-2.1l-2.6 3.6zm-116.2 14.6v-13h4.2l7.3 0.5 2.1 2.6-0.6 2.6 3.7 0.6 0.5 3.1h2.1l0.5-1.6 4.7 0.5 0.5-3.1 3.7 1.6v5.7l-3.7 4.2-2.6-1.6h-5.7l-3.1-2.6-11.5 0.5zm133.9-5.2l2 3.7v-2.1l5.8-7.3 3.6 7.3h-0.5l-2.1-1.6-2.6 4.2h-1.6l-1.5-1.1-4.7 2.7-1-5.8zm309.3 6.3l-1-7.3 9.4 0.5-2.1 4.7-3.1 3.6zm-484.9-2l13.5 1 5.2-3.7 4.2 3.2 0.5 6.2-4.2 2.1-0.5 3.7-11.4-2.1-2.1 2.6-4.2 0.5-0.5-6.3-3.1-3.1zm580.2 13.1l1-1.6 3.6 0.5 2.7 8.9-4.7 6.7-1.6-1-2.1-6.8zm-447.4 8.4l2.1-7.8 2.6 1 1.6 3.1-0.5 5.8-1.1-1.6zm115.1 4.7l2.6-3.1 2.1 6.7v7.3l-1.6 3.2-2.6 1.5-1 3.2h-1.6l-1-6.8 0.5-6.3zm337 8.4l1.6-8.9 3.1-2.1 2.1 2.1v3.6l1.5 1.1v4.2zm-431.2-9.9l5.2-0.6-2.6 6.3-1.6-2.1zm165.1 13l7.3-12 2.1 2.7 1 2-1 13.1-4.2 4.7-3.1-1.1zm-348.4-3.1l1.5-3.1h1.1l6.7 3.6 5.8 0.5 5.7 4.2-2.1 3.1-1.5 1.1-8.4-1.1-6.2-6.2-2.6-0.5zm446.3 14.6l-0.5-5.8-3.1-4.7 2.1-3.1h7.8l-2.1 12.5-2.1 3.1h-1.6zm-177-9.9l1-0.5 1 4.2h-3.6zm29.2 23.4l4.7-5.7 2.6 1.6 0.5 3.6 2.1 0.5v1.1l-2.1 0.5-0.5 5.7h-2.6l-0.6-3.1-4.7-2.1zm38.6 40.2l1-22.5h4.7l1.6 3.2 4.1 1 1.6-1h4.7l2.1 1.5v15.2l-3.7 1-2.6 3.1h-2.1l-1-2.1-5.2-0.5-3.7 3.1zm-176-16.1v-4.2l8.3 0.5 8.4 1.6v5.2l-0.5 1.1-9.9 1-1.1-3.1zm207.3 15.6v-7.3h3.1l2.1 2.1v4.2z"/>
		<path id="Path 21" class="s21" d="m472.4 414l0.5-5.7-1.5-3.7 2.6-2.6v-2.6h2l3.2 0.5v4.7l5.2 2.6-2.6 4.7-2.6 2.1-1.6-0.5-1 1.5zm-106.3 31.8l1.6-1.5 1.5 4.7-2.6 1-2 3.7-4.2-0.6-2.1 2.1-3.1-8.3 2.6-0.5 2.6 6.2h1.5l4.7-5.2zm450 1.6l5.2-2.6 3.2 1 1 2.6-1.6 1.6-7.2 1.5zm-401.6-1v3.1l1.6 0.6 0.5-4.2 2.1-0.5-0.6 5.7 2.6 7.8 3.2-1 2.1-3.7h2.6l-4.7 8.9-5.2 1.5-0.6-1.5v-2.6l-3.1-2.6 0.5-4.2-2-0.5-2.1 3.1-2.6-0.5 1-3.1 3.1-1.1 0.6-5.2zm19.2 10.4l3.1 4.2 5.3-8.3v-3.2h5.7l0.5 1.1v6.2l2.1 4.7-0.5 2.1h-2.1l-1.1-2.6v-3.1l-3.6-2.6-3.1 10.9h-1.6l-0.5-2.1-3.1 2.1-1.1-3.6-1.5-0.6-0.6-5.2zm-78.1 6.3l2.6-4.2v3.1l4.7 2.6 2.6 5.3-2.6 6.2-2.6-9.9-2.1-1-2.1 3.6-2.6-1zm-176.5 1.5l1-2.6 3.1-1 2.1 1v4.2l-2.1 1.6zm513.1 1.5l-0.6-3.6 3.7-1.6 4.7 6.3-3.7 6.8h-2.1zm-411.9 2l3.1-6.2 3.1 0.5v3.7l3.1-1.6 2.6 1-5.7 4.7 4.2 3.2-1.6 1 0.5 5.7-2.6-1-2.6-5.2-2.1 0.5v-2.1zm387.5 6.3l4.2-9.9 2.1 0.5 3.1 5.7-1 4.7zm-399-8.9l2.6-0.5 1.6 0.5h2.6l1 2.1-1.5 5.2h-1.6l-5.2-7.3zm-72.9 14.6v-11.9h6.2 2.1v8.3l-3.6 2.1-0.6 2.1zm125 0.5l1.1-3.1-1.1-3.7 4.2 3.7 1.1 5.2h-2.6l-0.6 2.1-1.5 0.5zm72.9-2.1l1-1.1h1.1l2.6 1.6-2.1 3.7-1.1 4.1 2.7 2.6-0.6 6.8-5.7-3.1 0.5-2.1-1.5-0.5 3.1-6.8zm-68.8 8.3l2.6-0.5 0.6-2.6h1.5l-0.5 4.7-2.1 1.6-2.1-1.1zm-19.2 8.4l0.5-3.2h3.1l3.1 3.2-1 2.6zm-114.1 8.3v-2.1h8.4l4.1 5.2h5.2l3.7 5.3 3.1 0.5v3.1h2.6l-1.5 3.7-5.3 0.5-2.6 3.6h-5.2l-1.5 1.6-4.2 0.5-0.5-2.1-5.2-1 1-15.1zm106.3 21.9v-4.7l4.7-2.6 1.5 1 7.3-1 4.2 4.1 1 4.7-16.7-0.5zm-43.7-1h5.2l-1.6 1.5 1.1 2.6-2.1 2.1h-2.6l-1.6-3.1zm54.2 27.1l1-0.5 7.3 2.6v3.1h-8.3zm241.1 3.7l4.7-3.7 2.6 2.6 2.6-1 1.6 1.5-0.5 3.7h3.6l2.6 2.6v7.3l-4.1 1h-4.7l-2.1-2.6-3.1 2.1-2.6-4.2zm50.5-1.5l5.2-1.1 7.3 2.1 4.2 3.7v2.6l-2.1 1.5-7.3-2-3.1 3.6h-4.2l-1.1-5.7-2-1.1v-2.6z"/>
		<path id="Path 22" class="s22" d="m349 415.6l2-0.6h7.3v4.2l-3.1 2.1-6.2-1zm-34.9 23.9v-0.5h3.6l2.1 4.2v4.2h-3.1zm124.4 2.6v-0.6l2.7 0.6 3.1 2.1 1 1 1.6-1.6 1 5.8h-5.7-1zm-232.3 13l2-9.9h7.9l5.7 2.6 1 8.9-7.3 1.5-2-2.6zm-14.1-0.5l9.9 0.5v13.1h-6.3l-1-3.7-5.2-2.6v-5.7zm-35.4 16.6l-0.6-5.7h1.6l2.6 1.6-2.6 4.1zm503.7 8.9l2-1 2.6 2.6 1.6 3.1 0.5 7.8-3.6 4.2-7.8-1.6 1.5-9.4zm15.1 2.1l3.2-2.1 3.6 8.4v6.8h1.6l0.5 2-0.5 1.6h-3.7v-1.6l-4.7 1.6-1.5-3.1 0.5-11zm13 4.7l1.6-2.1 4.7 0.6 1 8.3-1 3.6-4.2 4.2-3.6 1.1v-3.7zm-234.9 35.5l1.5-6.8 5.2-6.8 3.2 7.8-1.1 5.8-1.6 2-1.5-2zm32.3-4.2l5.2-6.3h1.5l1.6 2.1-0.5 8.9-8.3-0.5zm52-5.8l3.7 0.5 1 8.9-1 3.1-1.6 1.1-3.6-3.7h-3.7l1.6-4.7zm99 4.2l4.6-1.6 2.1 5.3-1 5.2 2.6-1.1 0.5 1.1-2.1 1.5v3.2h-3.1v-1.6h-2.1l-2.6 2.1-1.6-5.7zm-246.3 19.8l2.6-0.6 4.7 3.7v3.1l-2.1 1.1v4.1l-4.2-3.6h-2.1l-1-3.1-0.5-2.7zm24.5 6.3v-2.1l3.1-2.1 7.8 2.1v3.7l-1.6 5.7 6.3 2.6v2.1l2.6 0.5-1 3.7h-4.2l-1.1-3.7-4.6-0.5-1.6-3.1v-6.3l-4.2-1.6zm166.7 7.9l3.6 2 1.6-5.2 3.6-4.7 4.7-0.5-1 7.8 2.6 1.1v3.6 2.6l-3.1 2.6h-5.8-3.6l-3.1-2-0.5-4.7zm45.3-2.1l2.1-2.1 3.6 2.1v1.5h2.6l1.6 3.7-1.6 6.3h-8.3z"/>
		<path id="Path 23" class="s23" d="m535.4 349.9l8.4-6.3 3.1-0.5 0.5 2.1-3.6 3.6 1 1.1-1 1-2.1-0.5-2.6 2.1zm-94.3 87.1v-3.2l3.6 0.5 1.1 4.7-4.7-0.5zm169.8 11.5l0.5-2.1 3.1 0.5-2.1 8.4-3.1-4.7zm-23.9 2.6l0.5-2.1 4.7 1.6 2.6 8.8-3.1 5.2-1.6 2.6h-1.6l-1-2.6-2.1-8.8zm-137 16.1l-4.7-3.6 1.6-2.6 1 2.6h2.1v3.1zm80.2 9.4v-9.9l2.1-5.8 3.7 1.6 3.1 6.3v1l-0.5 4.2-5.2 8.8zm-230.3-10.4l6.8-2.6-0.5 3.1 2.1-0.5v6.3h-6.8l2.1-2.6-3.7 1.5zm292.8 9.9l1.5-9.9 4.2 1.1 2.6 6.8-2.6 7.8-2.6 2.6zm-207.3-2.6l5.7-6.3 3.7 10.4-1.1 1.1h-6.2v-2.1l-2.6-1zm16.6 3.1l3.7-6.8 2.1 2.1 1.5 4.7-0.5 4.7h-7.3zm29.2 1.5l3.6-4.1 2.6 3.6-1 3.1 1.6 1.6-1.1 5.2-1-3.1-6.3 0.5zm122.4 2.1l2.6-5.7 4.2 6.2v1.6l-0.5 1.6h-2.6zm-92.2-0.6l4.1-4.7 2.6 3.7-0.5 3.1 2.1 1.6-0.5 6.2-4.7 6.3-0.5-3.1-4.2 1-0.5-0.5 0.5-10.4zm-85.4 13l3.1-6.3 3.1 0.6 0.6 9.9-7.8-1.6zm160.4-0.5l8.3-1.1-1.6 4.2-4.6 5.2zm335.4 61.5l3.1-6.2h6.2l1.1 3.1 3.1 2.1 0.5 4.7-9.3-2.1z"/>
		<path id="Path 24" class="s24" d="m342.2 416.1l2.1-0.5h4.7v4.7l6.2 1v2.1l3.1 1.6 2.6 7.8 3.7 2.1 0.5 2.6-0.5 1-1.6-1.6-3.1 0.6-2.6 4.7 0.5 2.6v1.5l-2.6 0.5-1.6-0.5-1.5-1.5v-4.2l-2.6-2.1 0.5-1.6-6.2-0.5-3.2-3.6-1-7.8-2.1-1.6v-2.1l4.2-1-2.1-4.2zm-60.4 4.2l5.7-0.6 0.5 6.3-1.5 1-1.1 5.8-4.2-0.5-2.6-3.2h-4.6l-3.2 2.6h-2.1l-5.2-5.2 1.1-4.2 10.9-2h1.1zm8.8 5.7l1.1-2.6h4.6l1.1 3.1v6.8l3.6 2.1v2.1h-4.1l-3.2 7.8-4.1-1.1 0.5-2-4.2-3.7 1.6-4.2 4.2 1.1zm123.9 20.3l-0.5-4.2h4.7l0.5 1.6-0.5 1.6-2.1 0.5-0.5 4.2-1.6-0.6zm97.9-2l2.1-2.1-0.5 3.1 2.1 3.1-1.6 2.6-2.1-1v-2.1zm-7.8 13.6l2.1-0.6 3.6 5.8 3.2-2.6 2.6 1.5-1.1 4.7-1.5-2.1h-3.2l-1 1.6zm-85.9 6.8l5.2-1.6 1 6.3 2.6 9.3-2.6 1.6-0.5 3.7-1.6-2.6 0.6-6.8-2.1-2.6-4.2 5.7-3.6-1 6.2-9.4zm-168.7 17.2v-10.4l2-3.2h2.6l4.2 5.8 3.1-0.6 2.6 2.1-0.5 3.7-2.6 2.6-2.1-1.1-2.1 2.1h-3.1l-1.5-2.1zm188 0.6l-1.6-1.6 1.1-3.1h2l1.1 2.6zm-243.2-1.6l1-0.5 4.2 0.5v4.2h-5.2zm417.7 24.5l-2.1-9.9 3.6 1.5 1.6 6.8zm-62.5-7.8l2.6-0.5 1.6 3.6 2-1v2.1l-5.2 1zm-369.2 5.2l0.5-5.2h8.3l2.1 4.2v2.1zm509.9-1.1l4.2-4.1h2l-0.5 9.9-4.7-0.6zm-544.8 1.1l6.3-1.6v5.8h-0.5zm491.1 8.8l1.6-1.5h2.6l0.5 1.5v3.7l-4.7 1.5-2.1-0.5 2.1-1.6zm-30.7 2.6l2.1 1.6 3.1-4.7 1 3.1-3.1 6.3v4.2h-5.7l0.5-2.1v-8.4zm-375.5 14.6l5.2-8.3 3.1-1 0.5 3.1 6.3 1-4.7 6.8-5.2 2.6zm233.9-3.1l0.5-1.1 4.1 3.7 1.1 2.6 6.8-2.1-1.6 7.8 2.1 3.7-0.5 2.6 2.6-0.5 3.1-3.7 0.5-10.9h2.6l1 4.1h2.1l2.1 2.1-0.5 10.5-3.1-0.6-1.1-4.1-4.1 2.6-1.6 8.3-1.6 1.1-4.1-1.1-1.6-3.1 0.5-8.4-1.5-1.5-3.2 1.5-2.6-1 0.6-7.8zm239.5 7.3h6.3v6.2l-1.1 0.6h-4.1-3.7l0.6-6.8zm-273.5 9.9l3.1-5.8h2.6l0.6 1.6-5.2 5.7zm241.6-2h3.2l4.6-3.7 5.2 1.6v6.8l-5.7 4.1-6.8 2.1v-2.1l-3.1-2.6zm-178.6 4.2l5.2-7.3 1.5 1.6h5.3v6.2l-2.6 0.5-1.1-4.7-1.6-0.5-5.2 5.8zm48 3.1l-1.1 5.2h-5.7l0.5-7.8h2.6l0.5 1 1.6-1v2.1zm-181.8 13.5l1.6-0.5 1-5.2 6.8 0.5 5.2 2.6-3.1 3.7-11.5 0.5zm527.6-1.1l0.5-2.1 9.9 2.1 2.6 2.6-7.8-1z"/>
		<path id="Path 25" fill-rule="evenodd" class="s25" d="m546.4 372.3l2.6-5.2-1.6 3.6 0.5 4.2zm-2.1 3.7l1.6-2.6v3.1zm-3.1 4.2l2.1-3.2-0.6 8.4 3.2 2-7.3 2.1 0.5-4.7 1-2zm3.2 18.7l3.1-4.1 0.5 2.6-3.1 2.6-1.1 5.2h-2l-0.6 4.7-3.6 2.1v1.5l-2.1-1v3.6l-4.2 2.1-4.1 8.9-3.2-0.5v-1.6l0.6-1.1 6.2-7.8 7.8-8.8zm304.2 30.7l1.6-1.5 2.6 0.5-3.7 1zm15.6 71.4l1.6-2 1 1-2 3.6h2l-1 1.6 1 2.6h2.1v2.1h1.6l-0.5 2.1v0.5l3.1 5.7 2.1-1-1.6 3.1-0.5 0.5-2.1-2-4.7-11.5-5.2-4.7zm-772.4 16.7l3.7-1.1 7.3 5.8 8.3 3.6 1.5 2.6h-2v-2.1h-1.6l0.5 1.1-5.2-1.1v-2h-4.2v-2.1h-4.1v-2.1h-2.1v-2.1zm790.6 8.9l1.1 1-1.1 0.5zm1.1 5.8l-2.6-1.1-1.6-3.1 2.6 1zm4.7 5.8l-3.7-1.1 0.6-2.6-1.6-2.1 4.2 1.1v3.6l4.1-1v2.1l-1.5-0.5-0.5 1.5zm-159.9 2.6l9.9 2.1 6.7 2.6h-7.3v-2.1h-8.3v-1.5l-7.3 1-2.1-1-1 1.5-7.3-1-3.1 1h2.1v1.6l3.6-0.5-1.6 3.1 4.2-0.5-2.1 2.6 4.2 2.1 2.1 8.3h2.1l-2.1 1.1v4.6l2.1 0.6v12.5h2v25h-2v4.2h-2.1v2.1h-2.1v4.1h-2.1l-1.6-5.2-1-3.1 0.5-5.2 2.1-2.1v-21.4l2.1-8.3-1.1-9.9 2.1-1.1-5.2-3.1-2.6-5.7-7.3-1.6-8.3-3.7-3.1-1 1-1.6 10.9-0.5zm170.9 5.2l3.1 0.6-1 4.1-2.1 1.1-1.6-1.6 4.2-1.6zm10.9 15.2l-7.3-8.9-1.5 0.5v-1.5l4.7 0.5 0.5 2.6 2.1-1.1v4.2l2.6 0.5 1.5 4.7zm-294.8 8.9l4.7-1.1 8.4 2.6-4.2 1.1-1.6-2.1-2.1 1-5.7-1zm-9.4 2.6l8.9-2.1-1.1 0.5-0.5 1.1zm-42.2 9.4l5.2-0.5 0.6 0.5-11 1.5v1.6h-5.7l-0.5 2.1h-6.3l-2.1 2.1-2.5 0.6-0.1-0.1-0.1 0.2-5.6 1.4h-10.4l1-0.6 11.5-2 3.6-2.1-1-1.6 7.3-1 7.8-1.1 6.8-1zm151.5 37l1.6 0.5 0.5 7.3-0.5 4.2h-2.1v3.1l2.1 1-4.2 2.1v2.1h-2v2.1h-2.1v2.1l-1.1-2.1h-3.1l1 2.1h-11.4l-2.1-3.1-2.1 1v-2.1h-4.1v-2.1h-2.1v-2.1l-2.1 0.6-2.1-4.7-1 1-3.2-1v-2.1h-2v-2.1h-2.1v-2.1l-4.2-2.1v-4.1h-4.2l2.1-2.1h-2.1v-2.1l-4.1-2.1 2.1-2.1h-2.1v-2.1l-1.6 1.1-2.6-1.1 2.1-2h-4.2l-0.5-4.7-1.6 0.5v-2.1h-2v-4.2h-2.1v-2.1l-2.1 2.1-1.1-2.1 1.1-2-5.2-4.2 0.5-2.6 35.9 38.6 7.3 7.8 7.3 4.1 6.8 3.7 0.5-1 5.7 1 2.1-4.2h2.6l2.6-2.6v-2.6l4.2-5.7 0.5-4.2zm-174.1-29l0.2-0.1 0.5 1.5h-2.1zm385.6 21.7l-0.5-4.7 2.6-1-1.6 1-0.5 5.2z"/>
		<path id="Path 26" class="s26" d="m421.9 426.5l1.5-8.8 6.8 0.5h9.4l5.2 1.5v3.7l-3.7 1v3.2l-4.1 3.1h-1.6l-3.1-4.7h-3.1zm-15.7-6.3l8.4-0.5-0.5 4.2-4.7 4.7-3.2 0.5zm-168.2 9.9l0.5-1.6 5.2-0.5 1.1 1.1v7.8l-5.2-1.1v-5.2zm158.8 9.9l2.1-0.5 3.7 1.1 0.5 3.6 1 7.8-2.1 0.5-3.6-2.6v-2-0.6l1-3.1zm-204.7 14.6l3.7-8.9 5.2-2.6 6.2-0.5 1.1 2.6-2.1 9.9h-4.2zm491.7 44.3l0.5-1.5 2.6 1.5v3.7l3.7-1.1 1 5.3-1 10.9-2.1 6.8h-3.1l-3.7-3.7-2.6 2.1-1-0.5v-4.2l-1.1-7.8 1.6-2.1 2.6 0.5 2.1-1.5zm37.5 8.8l1 2.6h1.6l4.2-7.3 1 1.1-1 12.5 4.1 3.1 2.1-1 6.3 2.1-1.1 5.7 1.1 1.6-4.2 0.5-3.1 7.8h-2.1v-1.6l1.5-5.2-2-3.1-5.2 3.1-0.6 3.2h-4.1l-1.1-9.4 1.1-4.2h-2.1v-11.5zm-323.5 19.8v-2.6l4.2-5.7h1.6l1.5 3.7 3.7 1 0.5 5.7-2.6 2.6-1.6-7.8h-2.6l-3.1 3.7zm20.3 10.9l2.6-4.7-1-10.4 4.1 1.6 1.1 3.6-1.6 2.1 4.2-2.1 1.6 1.1-0.6 2-1.5 1.6-1.1 7.3zm333.9-1.6v-8.3h15.6 5.7l5.8 5.7-1.1 13.1-3.1 5.7-8.9-3.1h-0.5l-1.5-0.6-9.9-3.6v-7.8zm-176.1 17.2l4.7-4.7 1.1 1-1.1 2.6-3.6 2.1z"/>
		<path id="Path 27" class="s27" d="m544.3 366l3.6-1-4.1 9.4-3.2-1.6-0.5-2.1zm-56.8 80.8l1.6-0.5 2.6 0.5 0.5 9.9 4.2 4.7v1.6l-2.1 3.1-5.7-9.4-2.6 3.7-1.1-2.6 1.6-2.6-1-6.3zm-129.2 8.4l2.1-2.1 4.1 0.5-0.5 2.1-1 8.8-4.7-2.6v-3.1zm76.5 11l3.2-2.1 0.5 2.1h1.6l-1.1 6.2 0.5 5.2h-2l-2.7-3.6-3.6 4.2-3.1 0.5 4.1-7.3zm-137.5 0.5l2.6-0.5v5.2l3.7-1.6-2.1 2.6-3.1 3.2-2.6 0.5-0.5-5.2 1.5-0.6zm232.8 10l3.2 6.2 5.2-8.9 0.5-4.1 1 4.1 3.7 3.7 2.1-0.5v2.1l-2.1 0.5-2.6-3.1-1.6 0.5-3.1 9.9v5.2l2.1 8.3-2.1 1.1-3.1-7.8-2.1 1-1.6-1 1.1-7.3-4.2-9.9zm-122.4-4.7l2.1-1.6 2.1 5.2-2.6 1.1zm81.7 7.8v-2.1l2.6-2.1 2.1 1.6-1.6 2.6zm-305.2 3.6l1.1-2.6h9.4v4.2l-5.3 4.7v7.8h-8.3l-0.5-4.2 2.6-1zm235.9 11.5v-3.2l2.1-3.6 2.1-0.5 2.6 5.2-1 0.5-2.1-1.1-2.6 3.2zm-22.9 1.5l0.5-6.7 3.1 0.5 1 5.2-3.6 3.1zm406.3 2.1l8.8-1v3.6l-1.6 1.6 3.2 0.5-0.6 1.6-3.1 0.5v4.7h-4.1l-2.1-3.7zm2.6 34.4v-1.5l2.1-0.6h4.1l8.4 2.7 3.1 4.1 4.7 1.6 1.5 2.1v6.2l6.3 3.2v7.3l8.3 4.1v8.4l5.2 4.1v12.5l-3.6 2.1-7.8-2.6-12.5-7.8-5.8-3.1-4.1-2.1-0.5-8.3 1-11.5-7.3-5.2-0.5-4.2-2.6-3.7zm73.4 70.9l6.8-8.3v-4.2l10.9 4.2 3.1 6.3 3.2 0.5 3.1 3.6 5.7 1.6v4.7l1.6 1.6v1.5l-13-2.6z"/>
		<path id="Path 28" class="s28" d="m367.7 521.4l1.6-5.2h3.1l0.5 4.2 4.7 4.1 2.1 1.1-0.5 2.6-0.6 4.7 4.2 4.1-2.1 4.2-4.7-1.6-1-2h-5.2l-2.1-3.2 1.1-8.8zm310.4-3.2v4.2h-5.2v-4.2zm-559.4 11v-9.9l16.7 1 2.6 3.2-2.6 9.3-15.2-3.1zm584.9-5.7l1.6-3.2 2.1-0.5 1 0.5 3.7 3.2v-3.2h5.2l2.6 3.2 1 9.4h-10.4-6.2l1-8.4zm-59.9 6.8v-3.1l2.1-1.6 1.6 2.6 1-0.5 1.6 1.5-3.7 2.7h-2.1zm-487.5-3.2l9.4-0.5 1 12.5-2 1.6v2.6l-8.4-2.6zm524 5.7l-1.1-6.2h6.3v3.6zm53.1 3.7l3.1-7.9 4.2-0.5 5.2 2.6v6.3l-2.6 6.2-5.2-1-4.7-1.6zm-472.9 4.7v-3.6l4.2 0.5v3.1zm91.6 46.4l0.6-6.8 10.9 0.6 1 7.8-9.9-1.1zm99 0.6l-1-7.3h8.3v7.3zm19.8-0.6l0.5-6.2h7.8l1.6 3.1-1.1 3.7z"/>
		<path id="Path 29" class="s29" d="m805.7 444.2l3.7-0.5-1.6 1.1-0.5 4.1-2.6 1.6 0.5 2.1h2.1v5.2h-5.2l-2.1-2.1v-9.9l1.6-0.5 3.1-1.1zm27.6 1.1l6.2-1.1v5.3l-5.7 1.5-0.5 1.6-9.4 2.1v-4.7l1.6-1.6zm-513.6 21.4l2.6-3.7h2.1l1.1 2.6-0.6 12-4.1-3.6-1.1-2.1-1-1.6zm-154.2 13.6l2.1-2.6 11.5 2.1 0.5 3.1-3.7 3.6 0.6 3.2-2.6 1-2.1 4.7-4.7 0.5zm496.9 67.3l7.3-0.5 3.1 2.6v2l-9.9 4.2 4.2 5.8-1.1 0.5-5.2-4.7h-2.1l-0.5-7.8zm145.8 22.4l2.1-4.7h5.2l0.5 8.3zm-321.3 14.1l2.1-5.2 17.2-0.5 0.5 6.2-14.6 0.5-3.1-1zm359.4 5.2l3.6-2.1h7.8l10.4 5.8 1.6 6.7zm-194.8 7.3l2.1-0.5 2.6 4.2h2.1l3.6 5.2-1.5 0.5z"/>
		<path id="Path 30" class="s30" d="m536.5 378l4.1-5.2 3.2 1.6-0.6 2.1-2.1 3.6-1 2.6-3.6-1-6.3 6.8v-3.2zm78.1 184.6l2.1-1.6h6.3v7.3h-5.8l-2.6-2.1z"/>
		<path id="Path 31" class="s31" d="m342.7 442.7l-1-3.1 2.1-3.2 6.2 0.5-0.5 1.6 2.6 2.1v4.2h-0.5v-2.1l-2.6-1.6h-4.7l-1.1 1.6zm287.5 14.1l0.6-3.7 1.5-0.5 1.6 4.2 2.6 1v1.6l-6.3 0.5zm-144.2 3.6l2.6-3.6 5.7 9.4 0.5 2.1-2.6 7.2-2.6 2.1v2.1l-1.6 1.6-1.5-3.1-1.1-9.4zm255.2 4.1l4.7 0.6-3.1 4.1-1.6-2.1zm-295.3 13.6l2.6-3.1 2.1 0.5 0.5 1-0.5 6.8 2.6 2.1v3.1l-1 0.5-3.7-3.1-4.6 1.1zm123.9 4.7l1.6-3.2 5.2 1.6 1 9.4-2.6 5.2-1 3.1-3.1 2.1-2.1-6.3zm63 35v-6.3h4.2v3.1l-2.1 1.6zm-387 5.7l4.2-0.5 1 4.7-2.6 4.7-2.1 0.5h-3.1l-2.1-2.6z"/>
		<path id="Path 32" class="s32" d="m502.6 388.5l7.8-5.8h2.1l-1 6.8-4.2 4.7-10.4 9.4-1.1-0.5 1.1-5.3-2.1-1zm13.5 21.4l5.2-1.6 3.2 2.6-1.1 2.1-2.6 1-2.6 4.2h-2.1zm-2.1 30.8l1.1-2.6h2.6l3.1 2.1-1.5 6.2-3.2 2.1-2.1-3.1 0.6-3.2zm-15.7-1l5.3-1 2.6 1.5-1.1 6.8-1 0.5-4.7-4.7zm-183.9 12.5l-3.1 3.2-1.6-1.6 1.1-14.1h3.1l2.6 7.8zm149.5-9.3h1.6l3.6 3.6 1.6 5.7-4.7-1.5-4.2 2.1v-5.8zm98.4 2.6v-2h5.3l1 2v1.1l-4.2 5.2zm-55.2 2.1l2.1-2.1 3.1 2.6v2.1l2.1 1 1.6 6.8-2.6 1v1.6l-3.2 2.6-3.6-5.7zm-156.8 3.6l3.2-4.7 1.5 0.6 3.1 8.3v3.7l-2.6 4.1-1.5-2.1h-4.2zm188-2.6l1.1-2.1 3.1 1.1v3.1l-4.2 1.6zm-142.7 6.2l2.6-4.7 3.7 2.6 1.5 9.4h-9.9zm-95.8 3.2l2.1-6.8h1l4.2 6.8zm15.1-4.7l2.1-2.1 1 2.6 1.6 13-1.1 3.7-3.1 4.7-2.6 1h-0.5l-0.5-13zm223.4 4.1l2.1 0.6 4.2-6.3h0.5l1 3.1-2.6 9.4-2.6 2.1-2.6-3.1zm-127.1-1.1l2.1-3.1 2.1 0.5-0.5 4.2 3.1 2.6v2.6h-6.2l-2.1 2.1-0.6-3.1zm12.5 6.7l4.7-8.8 2.1 1 1.1 1.6 0.5 5.2 1.5 0.5 1.1 3.7-2.6 5.2-2.1-3.1-5.2 1zm45.3 4.2l3.1-9.9 2.1 0.5 1.1 4.7 1.5 0.5-1 2.6 3.1 1.6-2.6 7.3-3.1 5.7-2.6-1.6zm-141.7-7.8l2.6-2.1 3.1 5.8 1.1 5.7-0.6 7.3-3.6 3.1-5.2-1.5 0.5-12zm172.4 4.1l2.6-6.2 2.1 0.5 4.7 8.4-1.6 9.9-3.6 4.7-3.1-4.7-1.1-7.9zm16.2-1.5l1-3.2 3.6 2.1-0.5 2.6 2.1 1.1 2.1 6.8-2.6 2.6-1.6 5.2-2.1 2.1-2.6-4.7-0.5-9.9zm-146.3 9.4l4.7-6.3 4.6 5.2-0.5 3.7 1.6 1.5-1.6 5.8 1.6 0.5-3.1 2.1-3.7 6.2-2.1 1.1-1-3.7-0.5-3.1zm-79.2 2.1l-4.2-3.2 5.8-4.7h2l1.1 5.3 0.5 5.2-3.1 3.6 1-4.7zm50-3.1h3.1l4.2-2.6 1.1 1-1.1 2.1 2.1 0.5-0.5 3.2-1.1 2.1 1.1 1-4.2 5.2v2.6l-4.7 2.6v-3.1l-1-9.9zm-24 7.8v-3.1l3.1-3.1 1.1 2 1 3.7-1 3.1h-2.6l-1.6 2.1zm234.9 13v-6.2l2.1-4.7 3.6 3.6h2.7l-0.6 2.1 2.1 1.1-4.2 10.4-1 2.1-2.1 1-1.5-3.6zm-121.9-6.3l6.2-0.5 1.1 3.1-2.1 5.2-3.1 4.2-1.1 0.5-0.5-2.1v-2l-0.5-0.6zm-268.8 26.1l3.7-4.2h1l5.8 7.3h4.1v2.6l-2.6 1.1-0.5 2.1h-2.6l-1.6-2.6-3.1-0.6zm690.1 8.4l14.6-1.1 3.1 7.3v4.2l-2.6 1-2.6-0.5-0.5-2.1-8.3-1 1-1.6-1-2.1-4.2-1.5zm-195.8 40.6l3.6-2.6h2.1l5.2 4.7 0.5 2.1 6.3 4.2 1 5.7v2.6l-10.9-7.8z"/>
		<path id="Path 33" class="s33" d="m91.7 499.5l3.6-2.1h7.8l3.7 4.2-1.1 3.1-3.6 2.1v3.1h-5.7l-4.7-2.1zm19.2 13.6l1.6-3.1 2.1 1v4.2h-2.6zm97.4 24v-6.3l7.3 0.5 2.6 3.7-1.1 2.1zm20.9 5.2l4.7-1.6 1.5 4.7h-4.2zm68.8 16.7l-11.5 2.1-2-3.2v-4.1h7.2l5.3 2.1z"/>
		<path id="Path 34" class="s34" d="m913.5 425l7.3-0.6-0.5 11-5.2 1-1.6 4.2h-2l-5.2-2.6v-11.5zm-335.5 20.3l5.2-0.5 1.1 2.1v0.5l-1.6 3.2-2.1 1.5-2.6-5.2zm-121.3 13.6l2.1-1.6 2.6 2.6 0.5 5.2 2.6 2.1-1.6 3.1 1.1 2.6-2.6 2.1-0.6-0.5-2.6-3.1-4.1 1v-2.1l0.5-3.1zm158.9 4.2l0.5-2.1 4.7 0.5 0.5 6.3-3.1 3.1-2.6-7.3zm-69.8 9.9l5.2-1.6 0.5 4.7-1.6 4.2-3.1 2.1-1-3.1v-2.1zm-247.4 2.6l3.1-3.1h6.8l-1.6 7.3 0.5 6.2-4.7 1.6-1-2.6-1.1-5.8 1.6-0.5zm400-1l4.2-0.6 2.1 3.7-2.6 5.7-4.7 2.6-1.1-4.1zm-174.5 3.1l2.7-1.6v0.5l4.1 10-1 7.3-2.1 1-2.6 5.2-2.1-4.2-1-8.8zm-48 3.6l2.1-3.6 6.8 4.7 1 5.7-1 2.1-6.2 8.8h-1.6l-1.6-5.7zm-146.3 2.6l5.7-5.7 2.1 7.3-2.1 5.7-6.2-2.6zm60.9 6.8l-3.7 2.1 0.6-14.1h6.2v5.2zm11-9.4h7.2l0.6 4.7-3.7 7.3-2.1 2.1h-1.5l-1.1-5.2v-7.3zm271.4 70.4l6.8-2.1 4.6 1 1.6 2.6 0.5 12.5-3.6-2.6-2.6 1.6 2.1 5.7h-4.2l-1-2.6-4.2 0.5-6.3-4.1-0.5-2.1 1.1-0.5-4.2-5.8zm13 41.7v-1.5h2.6l2.1 1.5 0.5-2.6 9.4 6.8-1.6 4.2-3.1 0.5zm0 36l-0.5-3.7 1.5-3.6 2.1-0.5 3.2 1.5 3.1 2.1 2.1 2.6-3.7-1 1.1 4.1-3.2 1.1 1.6 3.1h-1l-5.8-3.6z"/>
		<path id="Path 35" class="s35" d="m198.4 525.6l4.2-0.6v2.6l2.6 2.7 3.1 0.5v6.2l-2 2.1-1.1 5.2h-5.2l-1-5.2-3.2-2.1v-4.1l2.1-2.1zm43.2 18.7l0.6-2 10.9-1.1h7.3 4.2v4.7l3.1 3.7 9.4 2 7.3 2.1v4.2l2 3.1 11.5-2.1 9.9-1 3.1 4.2 1.6 6.7-1.6 1.6h-10.9l-7.8-1-3.7-2.1h-6.2l-2.1-2.1-15.6-2.1-11-5.7-1.5-4.2-8.4-4.7z"/>
		<path id="Path 36" class="s36" d="m494.8 389l3.6-3.7 3.7 0.6 0.5 2.6-7.8 8.3-3.1 2.6-0.6-1.6 5.3-5.7zm29.6 21.9l2.1-0.5 1.1 4.2-3.2 1.5-1-3.1zm396.4 9.4l-1.6-2.1 4.2-2.1h5.7l1.6 1.6-5.8 2.6zm-57.3 26.6v-6.3l1.6-2.1 4.7-1 3.6 3.6-0.5 4.7-6.2 1.1zm-470.9 7.8l5.7-6.8v2.1l-2.6 4.7zm431.8 32.8l-1.5-7.8 4.1-2.1 2.6-5.7 3.7-0.5 6.2 1 1.1 4.7 2.6 0.5 0.5 8.9-1.6 4.7 2.6 1.5v3.2l6.3 0.5 1 5.2-0.5 1.6 1.6 0.5-3.7 8.3 1.6 7.3-0.5 2.6 4.1 1.6 1.1 2.1-1.1 1.5 8.4 1.1 0.5 2.1 2.6 0.5 2.6-1.1 1.6 3.2h-5.3l-1 2.6 5.2 1 1.6 4.2 8.3 3.1v2.1l8.9 1.1-6.8 0.5h-6.3l-3.1 6.2-25-7.3-6.2-3.1-1.1-7.3-2.1-2.6-6.7-2.1-2.1-7.3 0.5-22.4-2.1-3.7-0.5-8.8zm-663-6.8l4.1-0.5 1.6 15.6 4.7-0.5-4.7 3.7-2.6-0.6-2.1 3.2-1-2.1h-2.1l1-4.7v-2.6zm72.4 17.7l5.8-0.5 3.1 4.7-1.1 9.4h-2.6l-5.7-4.7zm646.9 79.2l-6.8-2.6 1.1-4.7 8.3 1.6v5.7z"/>
		<path id="Path 37" class="s37" d="m917.7 416.1h5.7l-4.1 2.1 1.5 2.1-6.7 1.5-0.6 3.2-7.2 1.5-10.5 2.6-6.7-1-7.3 2.6-1.6-8.9 1.1-0.5 8.8-2.1 9.9-2.1 10.9-1h1.6zm-110.4 36.5l6.2-2.6 3.2 1.5 7.3-1.5v4.7l-7.3 3.1-5.8 5.7h-2.6l-1-5.7zm-574.5 36.5l1-2.1 17.2-1.6 0.6 14.1-2.6 5.2-6.3-2.1-3.1-4.7-5.8 0.6zm-80.7 12l8.4-6.3-1.1 4.7h2.1l1 2.1v2.6l-10.4 2.6zm495.9 53.7l2.6-5.2h7.8l0.5 7.8-3.7 2.6-2.6 1.6-3.6 0.5h-1zm143.7 6.2l1-8.3h5.3l3.6 3.7 4.7 1.5 4.2 7.3-2.1 4.7z"/>
		<path id="Path 38" class="s38" d="m285.9 438.5l4.2 3.7-0.5 2 4.2 1.1 3.1-7.8h4.1l2.6 3.1-1 4.2-1-1.6-5.8-0.5-1 4.1 2.1 4.2h-1.6l-0.5 9.9-1.6 0.5v2.1l2.6-1 1.6 4.2-0.5 3.6-1.6 0.5-1-5.2h-2.1l-2.6-1-3.1 1.5v-3.6-5.2l-2.1-2.1 1.5-4.2-4.1-1-2.1 2.6-1.6-0.5-0.5-3.2-3.1-1.5 6.8-3.7 1-2.6zm161.5 4.7l5.2-0.5 3.1 7.3-7.3 0.5-0.5-1-1.1-5.8zm-64 1.1l3.6-1.1 0.5 4.7h-1.5l-2.1 4.7-2.6-0.5v-0.5zm-128.7 23.9l1.1-3.1h2.6l1-5.2h1.6l4.7 6.3 1 3.1-3.1 0.5-1.6 3.7-3.1 0.5zm18.8 25l5.2-4.7 2 0.5-1 6.3 2.1 8.3h-1.6v1.6l2.6 3.1-2.1 0.5-3.1-2-0.5-9.4-1.6 1.5h-3.6l-0.5-2.6zm327.6 5.8l-1.6-5.8 5.7 1.1-1 4.1zm-346.9 15.7l3.1-6.8h6.3l-1 7.8 1 0.5-2.1 1.1v2.6l2.1 1.6-1 2-3.2 1.1h-5.2l-2.6-2.1zm276.1 3.1l-2.1-9.9 7.3 1.1 0.5 2.1-2.1 1 0.5 1.6-2.6 3.1zm-68.7 11.5l3.1-3.7 2.6 4.7-0.5 7.8-2.6 3.1-6.3 3.2v-5.2l1.6-7.3z"/>
		<path id="Path 39" class="s39" d="m522.9 404.1l5.7-6.8 1.1 2.6h3.1l-0.5 2.1-5.7 8.4-2.1 0.5-3.1-2.6zm-165.1 40.6l-0.6-2.6 2.6-4.7 3.2-0.5 1.5 1.6v1.5l3.1 1.1v3.1l-1.5 1.6zm133.8 2.1l1.6-3.2h0.5l6.3 5.8 1 5.7-4.7 6.3-4.1-4.7zm-127.1 6.7l2.1-3.6 2.6-1 2 1.5 0.6 5.2h-7.8zm181.2 11.5l3.7-5.2 2 6.2-0.5 5.3-5.2 1.5zm-189.6 3.7l2.1-3.7 2.1 1.1 2.6 9.9-0.5 2.6-3.2 8.3-3.6 2.1-1-13zm97.9 3.6l4.1-1 2.6 3.1-3.1 5.7-2.1 0.6-1.5-4.2zm-10.4 14.6l4.6-1.1 3.7 3.2-4.2 6.2-3.1 2.1z"/>
		<path id="Path 40" class="s40" d="m897.4 452.1l-1.6-0.6v-7.3l3.7-2.6 4.1-0.5 2.7-3.1 5.2 2.6v6.2l-5.8 3.7zm-36.4 22.9l10.9-1-1.6 4.7-7.2 4.7 0.5 2.1v5.7l-3.1 0.5-2.7-3.1 0.6-3.7-4.2-2-0.5-4.7 1-0.6h-1.5l-1.6-0.5 8.9-0.5zm-684.4 14.6l-0.5-3.1 3.6-3.7 4.7 0.5-1.1 8.9-2.6 1zm-14 12l2.1-3.1 2.6 0.5-1.6 7.8h-1l-2.1-2.6zm523.9 64.2l-0.5-12.6h4.2l3.6 3.2 0.6 3.6h-3.7v3.7l9.9 4.7-0.5 4.1h-3.7zm-37.5-3.6l3.7-0.5 8.3 8.8 7.3 7.3-0.5 6.3-2.1-2.1-4.2 2.1 9.9 10.9-1.5 1.1-8.9-11-2.1 1.6-6.7-7.3-6.8-9.4v-2.1l2.6 0.5 4.2 3.2 2.6 4.7h1.5v-3.2l-7.3-8.3zm-179.7 9.9l3.7-3.1 5.2 0.5 1 2.1h2.1v1.5h-1.5-11z"/>
		<path id="Path 41" class="s41" d="m484.4 442.2l0.5-1.6 4.2-1v6.7l-1.6 0.5-2.1-2.6zm-234.4 3.2l4.7 0.5v4.7l-1.5 1.5-2.6-0.5-1.6-4.7zm-27.1 11.5l3.7 2.1 7.3-4.7 3.6 0.5-1.6 2.1 1.1 3.7-1.1 2-1.5-1.5-3.7 1-3.6-1.5-0.5 3.1-4.7-0.5-0.5 1.5h-2.1l-0.5-3.1-3.7-0.5 0.5-2.6zm27.1 66.2l1.6-0.5 2.6 2-1.6 3.2h-1.5zm419.7 72.9l1.6-1 1 0.5 12 13.1-4.1 3.1-3.7-3.7 0.5-2.6-2-3.6z"/>
		<path id="Path 42" class="s42" d="m508.9 395.2l2.6-2 3.1 1-1.1 6.8 2.6-2.1h3.2l1.5 1.6-1 3.1 3.1 0.5-1.5 4.2-5.3 1.5-5.7 2.6 2.6-10.9-3.6 0.5-7.3 6.8 1-5.2-1-1.6zm-178.7 43.3l1.6-2.1 5.2 0.5 1.6 3.1-0.5 3.7 2.6-1 1 1v8.3l-6.3-2.6 1.1-3.1-2.1 1-2.1-1zm139.1 4.2v-3.2l3.6-2 2.1 2.6-2.6 5.7zm-28.1-0.5v-3.7l4.7 0.6v2l-1.1 2.6-0.5 0.6zm-6.2 0.5l0.5-0.5h3.1l2.6 7.3-7.8 0.5zm42.2 10.9l-0.5-5.2 1.5-4.7 7.3 5.2 1.1 6.3-1.6 2.6-1.6 1.6-0.5-5.8zm-204.2-4.1l1.6-2.1 3.1 1.5 0.6 3.2 1.5 0.5-2.1 5.7-3.6 2.1v-5.2l-2.6-3.1zm350.5 2.1l1.6-2.7 2.1 0.6-1.1 7.3zm-345.3 7.8l4.2-3.1 1 5.7-3.1 6.2-3.7-0.5-1-2.1h-2.6l3.1-1zm277.6 6.8l-1-8.9 4.7 2.6 0.5 2.6-3.1 4.2zm-255.8 0v-8.3h7.3l-0.5 5.7zm207.3 16.2l2.1-3.7 4.1 1 2.1 5.3v6.7l-1.5 0.6-3.2 7.8-2.6-1.1-1.5-8.3zm-15.7 12l1.1-13.6h4.7l0.5 2.6h1.6l2 3.2-2 3.1 0.5 4.2-5.7 6.7-1.6-3.1zm-198.4-5.7l4.6 0.5 1.1 1.6-0.5 2.6-4.7 2.1zm596.8 81.3l2.7-3.2 4.1 0.6 1.6 5.7-8.4-2.6z"/>
		<path id="Path 43" class="s43" d="m546.9 343.1l0.5-2.1-2.6-3.1 4.2-3.7 7.3 1.6 0.5 2.1-3.7 2.1-1.5 4.2-4.2 1zm-58.9 50.6l4.7-5.3 2.1 0.6 1.6 3.1-5.2 5.7-2.1-1zm-104.7 37l4.7-1.6 1.5 1.6-1.5 5.2-5.7 3.7zm-7.3 5.7l2-1.6 2.7 5.2 0.5 3.2-5.8-1.1-1-1.5zm11.5 5.2l2-4.7 7.3 3.1 2.6 4.2-1 3.1-2.1-3.6-2.6-0.6v-2zm175.5 21.9l2.6-4.7 4.7 6.7-0.5 2.6-8.9 0.6zm67.2-3.7l6.3-0.5 0.5 3.1-1.6 2.1-1.5 1.1-1.1 5.7-2.6-4.2zm-8.8 20.9v-6.8l2.1-3.7 5.2 0.6 1 7.3-2.6 4.7-3.1 3.6zm-204.2-3.1l4.2-5.8 2.1 2.6-0.6 6.8 1.6 2.6v3.7l-2.1 0.5-2.1 3.6v3.2l-4.1 1.5-0.5-7.3zm218.7-4.1h5.2l2.1 3.6-0.5 2.6-5.2 6.8-2.6-7.3zm93.2 2.6l-4.7 8.4-2.6-5.3v-5.7l6.8 0.5zm-79.2-1l1-1.1 5.3 0.6 3.1 3.1v1h-1.6l-4.1 7.3-2.7-2.1zm-140.6 2.1l2.1-2.6 2.1 5.2-4.2-1zm157.8 4.7l0.6-7.3 8.3 1-2.1 5.8-2.6 3.6-2.1 1.1-1-2.1zm-80.2-2.6l2.6-2.6 4.1 12.5-2.6 7.3-4.1 5.7-2.6-12.5zm-308.9 2.6l-0.5-2.1h1.6l1-2.6 6.2 4.2v2.6l4.2-1.1-1.6 1.6-0.5 7.3-3.6 2.1-1.6-4.7-2.1-0.5v-5.2zm15.7 13.5l4.6-2.1-1 4.7h-2.6zm-141.7 11.5l10.5-2.6 2 2.6-3.6 4.2-6.8 1-4.7-2.1 2.1-3.1zm106.8 21.9l5.7 0.5 1.1 1.6h-4.2l-3.1 2.1-1.6-2.1zm638 38.5l4.2-3.1 3.1 2.1-0.5 6.8-0.5 1.5-4.7-1.5z"/>
		<path id="Path 44" class="s44" d="m521.4 453.6l8.3-0.5 1 4.2-1.5 1.5 0.5 2.1-3.1 4.2-2.6-2.6-1.1-2.1zm-117.7 8.3l0.5 4.7-5.7 7.3-3.6-6.2-1.1-5.8zm-63 5.3h1.6l2.6-4.2 2 1.5 1.1 3.2-4.2 2.6h-3.1zm69.3-2.1l2-2.1h6.3l0.5 1.6 1.1 2.6-6.3 9.4-1.6-1.1-2-5.2zm15.1 4.2l5.2-1.1 2.1 3.2-4.2 7.3h-0.5zm-99 13.5l-1-5.2 5.2 1.6-2.1 3.6zm-52.6 10.4l-1.6-1.5-0.5-7.8 3.1-1.6 3.2 2.6 1.5 1-0.5 2.7zm263-6.3l6.8-1 1.6 5.2-8.4 1zm-364.6 8.4l2.1-4.7 2.6-1.1 4.2 3.7 0.5 4.1-0.5 5.2-2.6 5.8 0.5 3.1-3.1 2.6h-4.2l-5.7-7.3 1.5-7.8zm288.1-1.6l4.1-1 0.6 3.1v2.1l-3.2 2.6-1-1.6zm230.2 59.5v-4.2l9.4 2.1-5.8-3.1 2.7-4.2 8.3 3.6 3.1 1.6-0.5 2.6 2.1 3.1-1.6 2.6h-3.6l-0.6 2.1-2.6 3.7-6.7-3.1-0.6-3.7z"/>
		<path id="Path 45" fill-rule="evenodd" class="s45" d="m510.4 382.7l2.6-5.7-0.5-2.1h-3.1l0.5-3.1 8.9-8.4 2 5.8 0.6 17.7 4.1 4.2v2.6l3.7 1.5-0.6 2.1-5.7 6.8-3.1-0.5 1-3.1-1.5-1.6h-3.2l-2.6 2.1 1.1-6.8-3.1-1-2.6 2-1.6-1 4.2-4.7 1-6.8zm359.4 54.8l5.2-4.7 6.2-1.1-0.5 8.9-3.6 6.8h-3.2l-1-1.6 0.5-4.7zm-12.5 14.6h-1l1-3.6 6.3-1.6h3.1v2.6l-2.1 1.6zm-596.3 7.8l-2.1-4.2 3.1-2.1 2.6 0.6 0.5-2.1 2.1-0.6 4.2 0.6 2.6 3.1v5.2l3.6-2.1 0.5 1.1-2 5.2-3.2 1-1.5-0.5 1-3.6-3.1-1.6-2.6 3.1 2.1 2.6h-0.5l-2.7 0.5zm591.7-5.2l4.7-0.5v3.1l3.1 0.6-0.5 6.2-3.6-0.5v-2.1h-3.7zm-273.9 11.5l3.1-6.3 3.1 5.2 2.1 6.8-1.6 5.7-3.6 6.3-2.6-3.6-1.6-7.9zm27.6 7.9l4.7-10.5 2.6 1.6 2.6 10.9-4.7 9.9-2.1-0.5zm-69.8 13.1l3.2-10 1.5-0.5 2.6 3.2-0.5 2 3.1 5.8-1 3.6h-0.5l-1.6-5.2zm-268.2-3.1l6.2-4.2 3.2 2.1v3.1l-3.2-2.6-3.1 1.6 0.5 7.8 1.6 1.6-2.1 3.1-6.2-2.6-1.6-1.6 0.5-3.6 2.1-2.6 2.6 0.5zm153.1 11.5l2.6-3.2 2.1 1.1 1.1 6.7 0.5 4.7-8.3-2-1.1-2.1 2.6-2.1zm13.6 18.8l-2.1-10.5 1.5-4.1h6.3l1 4.6-2.1 4.7-2.6 5.3-1 1zm416.1 5.2l-1.5-7.3 3.6-8.3 6.3 0.5 4.7 3.1-0.6 2.1-1.5 0.5v5.2l1 1.6h3.7l-1.1 1.6zm46.9 41.1l1-1.5h1.6l0.5 5.2-4.1 3.1-4.2-0.5v-4.7l7.8 1.1zm-254.7 4.1l1.6-0.5 3.6 2.6-0.5 1.6-2.6-0.5v2l6.8 9.4 6.7 7.3 2.1-1.5 8.9 10.9 5.2 5.7 2.1 3.7-0.5 2.6 3.6 3.6v1.6l6.8 4.7 2.1 3.6-2.1 0.6-1.6 3.6 0.5 3.7-1.5 0.5-6.8-6.3 0.5-2.1-1.5-1.5-1.6 1-2.1-2.1-10.9-13.5-3.7-5.2v-4.7l-12-15.1-5.2-0.6-2.6-12.5 3.7-0.5zm237.5 13h2.6v-5.7l6.2 1 12.5 3.7 1.1-2.1 0.5-1.6 4.7 3.7v2.1l-3.1 2.6 1 3.1 7.3 1.1 7.3 3.6 2.1 4.7 0.5 4.2h-4.2l-4.7-0.5-3.6-1.1v1.6h-3.1l-0.6-3.2-3.6-1.5 1.6-5.2-19.8-7.9zm-209.4 17.3l-9.9-11 4.2-2.1 2 2.1 6.3 7.3-1.6 4.2z"/>
		<path id="Path 46" class="s46" d="m374 441.1l0.5-0.5 1 1.6 5.8 1 0.5 1-2.6 2.6v3.7l-0.6 1.6-3.1 1-1.5-2.6zm-53.2 7.3l7.8-1v6.2l-2 2.6-3.2 2.1-3.1-5.2zm12.5 5.2l2.1-4.2 6.2 2.6 2.1 2.6v2.6l-5.7 7.3v2.1l-2.1-3.6zm47.4 0l0.5-1.6 2.6 0.5 1.1 5.3 4.1 1-1 4.7 1.6 1.6-2.6 0.5-2.6 7.3-2.1-0.5-2.6-8.4zm-17.7 11l1-8.9h7.8l1.6 1.6-0.5 3.1-3.7 7.8h-2.1l-1 2.1-0.5-0.5zm-13.1 0v-3.7h4.2l1.6 2.1-2.1 4.7-1.6 1z"/>
		<path id="Path 47" class="s47" d="m539.1 352.5l2.6-2.1 2 0.5 3.2 1.1 2.1 5.7 2 1-3.1 6.3-3.6 1h-2.6l-0.6-2-5.7-0.6v-2l4.7-3.7-1-1.6-1.6 0.6zm-32.8 87.5v-2l2.1 1v4.2l4.1 1v3.7l-3.1-2.6-2.1 2-2.1-0.5zm327.1 12.5l0.6-1.5 5.7-1.6h4.7l8.3 5.2v6.8h3.6v2.1l3.7 0.5 4.2 1-0.6 1.6-5.2 1v1.6l-2.1 0.5v2.1h4.2l-1 2.6 1.5 0.5-0.5 1.6-8.8 0.5-8.4 0.6-2.6-0.6-1-4.7-6.3-1 1.1-14.1zm-633.4 28.2l0.6-2.1 3.6-2.1 7.3 1.6 2.6 2.6 0.5 5.2 2.1 3.1v4.2h-10.9l-5.8-8.4zm653.7-2.6l-0.5-0.5h1.5zm-747.4 8.9v-4.2h6.3 8.3v8.3h-4.2-5.7zm135.4 25.1l1.1-9.4 6.2 2.1-2.6 7.3-1.5 1v-2.1zm633.3 58.4v-12l1.6-3.1 9.3 2.1 2.1 1-0.5 2.1h-4.7l-0.5 2.1 1.5 1.6-1 3.6 7.3 2.1v0.5l-0.5 2.6-6.3-1zm-222.4-8.9l2.6-1.5 7.8 8.8-2 1.6zm-171.4 9.9l2.6-3.1 3.7-1.1h8.3l1 2.6-3.1 3.7 17.7 1v3.1l-5.2 0.6-17.2 0.5-2.1 5.2-6.2 0.5-1.6-3.1 0.5-8.4h1.6zm405.2 19.9l-3.1-1.6-1-2.6v-3.1l3.1-3.7 19.8 7.8-1.6 5.2 3.7 1.6 0.5 3.1h3.1v-1.5l3.6 1v9.4l-2 0.5-5.8-1.6-3.1-3.6-3.1-0.5-3.1-6.3z"/>
		<path id="Path 48" class="s48" d="m503.1 364l16.2-13.6 0.5 3.1-2.6 2.6 1.5 7.3-8.8 8.4-0.5 3.1h3.1l0.5 2.1-2.6 5.7-7.8 5.8-0.5-2.6-3.7-0.6 2.6-2.6v-1.5l-2.6 0.5-4.6-3.7 6.2-5.2-0.5-4.1 3.6-2.7zm31.3 35l2.1 0.5 3.6-3.7 4.2 3.2-5.8 8.3-6.2-5.2 0.5-2.1zm-18.2 19.3h2.1l2.6-4.2 2.6-1 1 3.1 3.1-1.5 3.2 1.5-6.3 7.8h-5.7l-4.2-3.1zm307.8 36.5l9.4-2.1 1.1 4.7-1.1 14.1-3.6 0.5-2.6 5.7-4.2 2.1 1.6 7.8-13.6 1.1-5.7-20.3v-3.2l3.1-1.5h2.6l5.7-5.8zm-179.1 107.9l3.1-0.5h1v2.6l7.3 8.4v3.1h-1.5l-2.6-4.7-4.2-3.1 0.5-1.6-3.6-2.6zm-176.1 10.4h11l-0.5 8.4h-7.9l-3.1-4.7zm64.6 2.6l13.5-0.5 1.1 1.5-2.1 1.1 0.5 1.5-7.8 1.1v-1.6h-5.2z"/>
		<path id="Path 49" class="s49" d="m433.3 450l7.8-0.5h1.1v3.1l-5.2 8.3-3.1-4.1zm15.1 0.5l7.2-0.5 1.1 4.1-2.1 1.1-0.5 3.6-3.7 2.6-2-4.7zm90.1 1.6l4.1-1.6 2.1 1.1-4.2 6.2-2-0.5zm-99 25.6l-0.5-5.3 7.3 1.1-2.6 4.2-3.2 2.6zm-150 2.6l-0.5-5.8 1.6-1 3.1 1.6-1 4.6-1.1 1.1z"/>
		<path id="Path 50" class="s50" d="m533.9 340l15.1-5.8-4.2 3.7 2.6 3.1-0.5 2.1-3.1 0.5-8.4 6.3-7.3 5.2v2.1l3.2 3.1 3.1-1 1 2.1v2l5.7 0.6 0.6 2h2.6l-4.2 4.7 0.5 2.1-4.1 5.2-5.2-1.5-1.1-5.2-4.7 0.5-1.5-2.1-3.2-0.5-2-5.8-1.6-7.3 2.6-2.6-0.5-3.1 10.9-8.3zm-54.7 59.9l2.6-2.6h1.6l3.1 3.7 3.7 0.5-5.8 5.7-5.2-2.6zm193.8 168.4l4.1-0.5 1.1 2.6h4.1l2.1 1.5-1.5 2.1 1 2.1-5.2-3.1zm-32.3 15.6l0.5-4.2 5.2 0.6 12 15.1v4.7h-2.1l-2.6-4.2-2.1 0.5z"/>
		<path id="Path 51" class="s51" d="m403.1 444.2l1.1-3.1 2.6-1 6.7 6.2-0.5 5.2-3.1 1.1-1 3.1-1.6 1.1-3.1-4.7zm-59.9-1.6l1-1.6h4.7l2.6 1.6v2.1l-3.6 4.7h-2.1zm14.6 3.6v-1.5l8.3 1 0.5 1.6-4.7 5.2h-1.5zm104.1 6.2l4.2-2.1 4.7 1.6-0.5 3.7-2.1 0.5 0.5 2.1-2.1 1v3.1l-3.1-2.6-2.6-4.1z"/>
		<path id="Path 52" class="s52" d="m375 414.5l10.4-0.5 0.5 5.2-2.6 4.2-4.7 1-2-1-2.1-4.7zm-54.2 7.3v-4.7h4.2l0.5 5.2zm-29.2-2.1l14.1-1.5h2.6v5.7l-1 2.6 1 3.1h-5.2l-5.7-3.1-1.1-3.1h-4.7zm-35.4 3.1l8.4-0.5-1.1 4.2-6.2 2-2.6-4.6zm-70.9 11.4l8.4-2.1v3.7l-10.5 4.2-8.3-0.6-0.5-1 2.1-1.6h1.5l4.7-1.5 1.1-0.6zm379.1 0.6v-2.1l8.4 0.5 6.2 1.6-5.7 3.6h-2.6l-2.1-3.6zm-410.4 14.6l9.9-4.2 1-2.6 2.6-1.1 2.6 5.8-1.5 1.5zm541.1 85l2.6-2.1 4.2 0.5-0.5 6.8-5.8 0.5zm-141.1 43.3l4.7-4.7 3.6-0.5h4.2l2.1 8.3-5.2 1.1h-1.6l-6.8 1-7.8 1.1-1.6-2.1h5.3v-1.6l6.2-2.1zm-65.6 8.9l0.5-2.6 3.1 1-0.5 2.1z"/>
		<path id="Path 53" fill-rule="evenodd" class="s53" d="m529.2 395.2l-3.7-1.5v-2.6l-4.1-4.2-0.6-17.7 3.2 0.5 1.5 2.1 4.7-0.5 1 5.2 5.3 1.5-6.3 7.3v3.2l6.3-6.8 3.6 1-1 2.1-1.6 5.2-3.1-1.5zm9.3-4.2l6.3-2.1 0.5 2.1-5.2 4.7-3.6 3.6-2.1-0.5 6.2-6.8zm-55.2 6.3l4.7-3.7 1.1 3.2 2 1 0.6 1.6-1.6 2.1-3.7-0.6zm-4.1 16.7l2.6-2.1 5.2 2.1-3.7 2.6h-3.1zm434.4 11l0.5-3.2 6.8-1.5h4.2l1 3.1-5.2 1.1zm-46.9 21.8l6.3-1 1 1.6h3.1l-0.5 7.3-2.1 1.5 1.6 5.2-1.1 7.9-1.5 2-4.7-0.5v-2.1l-5.2-2 0.5-1.6v-11.5l1.6-1.5-1.1-1.1 2.1-1.5zm-205.7 123.5l2.1-1.6 10.9 7.9 10.9 8.8 6.3 5.2-0.5 2.6-2.1-1.5h-2.6v1.5l-17.7-15.6zm13 6.3v-2.7l1 0.6zm-1.5 18.7l1.5-4.1 7.9 6.7 1 4.2 3.6 2.6 1.6-0.5v2.1l2.1 1-2.6 3.7-3.1-2.6z"/>
		<path id="Path 54" class="s54" d="m547.4 345.2l4.2-1 1.5-4.2 3.7-2.1v1.6l-1.1 4.1-0.5 0.6-0.5 0.5-0.5 0.5-2.6 1v2.6h3.6l-1 4.2-2.6 4.7-0.6 1.1-2-1.1-2.1-5.7-3.1-1.1 1-1-1-1.1zm-89.6 60l10.4-10.4 3.1 1 2.6 3.7v2.6l-2.6 2.6 1.6 3.6-0.5 5.8-5.3-0.6-4.6-2.6-1.6-2.6-3.1 1.1zm88.5 37.5l0.5-5.7-3.1-2.1-0.5-4.7 7.3 0.5h0.5l3.1 0.5 10.4 1.6v2.1h-3.6l-1 3.6-4.7 2.1 1.5 4.2h-1zm55.2-1.6l-1-2.6h-3.2v-2.1h2.1l5.7 0.5h1.6l2.6 1.1-1 1.6-3.2-0.6-0.5 1.6zm-432.8-1.6l5.7-1 0.6 1v7.9h-4.7l-2.6-5.8 0.5-1.5zm-24.5 11.9l5.7-0.5-2.6 3.7-3.1 0.5-3.1-2.6zm553.6 4.2v-3.2l21.4 2.1-1.6 2.1-5.2 1.6-0.5 12-0.5 1.5-5.2 0.5-2.1-4.7-4.2-0.5-4.7-6.2 4.2-0.5zm-581.8 6.7h2.6l4.2-3.6 1 1.5-1 3.7h5.2l-3.1 4.2v6.2h-4.2-4.2l2.1-2.1-7.3-1.5-1-3.7zm752.6 8.4l4.7 0.5 1.5-2.1 3.2 1.6-0.6 2-0.5 0.6h-1.5l-0.6 0.5h-3.1l-10.9 1-1.6-0.5 1.1-2.6 4.1 1v-1.5z"/>
		<path id="Path 55" class="s55" d="m535.4 361.4l-1-2.1-3.1 1-3.2-3.1v-2.1l7.3-5.2 3.7 2.6-1.6 4.2 1.6-0.6 1 1.6zm346.4 69.3l7.3-2.6 6.7 1.1 10.4-2.6v11.4l-2.6 3.2-4.1 0.5-3.7 2.6v7.3l1.6 0.5-2.6 7.8h-1.6l-3.6 4.2 0.5 1.6-3.7 2.1 0.6 1.5-1.6 0.5-7.3 1.1-3.1-1.6 1-7.8-1.5-5.2 2.1-1.6 0.5-7.3 3.6-6.8 0.5-8.8zm-21.3 27.1l3.6-0.5v7.8l-4.1-1.1zm0 14.1h-4.2v-2.1l2.1-0.5v-1.6l5.2-1 5.2 2.1v2.1l-4.2 0.5v1.6zm-299.4-3.2l8.8-0.5 1 4.7-4.1 9.9-2.1 1.1-1.6-3.2-2-5.7zm-381.8 10.9l0.5-3.6 4.2-2.1 1.5 2.1v4.7l-1 2.6-4.7-0.5zm664.1-2.1l8.3-0.5 1.6 0.5 0.5 0.5 0.5 4.7 4.2 2.1-0.6 3.6 2.7 3.2-4.2 2 0.5 7.3-4.7 0.6-1-5.3-6.3-0.5v-3.1l-2.6-1.6 1.6-4.7zm-529.2 14.1l-1-5.2-2.6-3.1 3.1-5.2h3.1v4.7l1.6-2.1h2.6l0.5 4.7-2.1 5.7zm371.4 53.7h3.1l1.6-3.1 1.5 0.5h1.6l3.1 1-2.6 4.2 5.7 3.1-9.3-2.1v4.2h-4.2l-1.6-2.6-4.6-1zm204.6 24.5l-7.3-2.1 1.1-3.7-1.6-1.5 0.5-2.1h4.7l5.2 1.5v4.7z"/>
		<path id="Path 56" class="s56" d="m430.2 413l5.7-0.6h3.7v5.8h-9.4zm-71.9 2.1l16.7-0.6-0.5 4.2-5.2 0.5-2.6 3.7h-2.6l-1.1-3.7h-4.7zm-141.1 12l10.9-1v3.6l-2.1 1.6h-6.2l-1.6 1.6h-0.5l-1-5.3zm592.2 16.7l5.2-0.5-1.1 3.1 2.6 1.1 0.5 4.1-3.1-1.5-6.2 2.6h-2.1l-0.5-2.1 2.6-1.6 0.5-4.1zm-717.2 30.7l2.6-1 2.6 3.6-1 1.6-3.2-1-4.1 1.5 0.5-1.5zm822.4 132.4v-9.4l4.7 0.5-0.5 1.6 5.7 3.1-1.6 2.6 0.6 3.1-5.8-0.5z"/>
		<path id="Path 57" class="s57" d="m216.1 512.5l1.6-2.1 4.2 1.1v-3.1l1 1.5h3.7l-3.7 4.2-4.1 1.6h-2.7zm25.6-0.6l3.1-1v2.1l-3.7 2.1-4.6 1-0.6-2.1 3.2-0.5v-1.6zm433.3 62.6l3.6-1.6 5.3 3.2 3.1 3.1-2.1 6.2-10.9-8.8zm-7.3 9.4l0.5-6.3 17.7 15.6 9.9 8.9 3.1-0.5 1.6-4.2 4.1 1.1 6.3 4.1-1 3.7-1.6 3.6-4.7 1.1 2.1 7.3-1.6 0.5-1 3.6h-5.7l-5.3-1v1.6l-3.1-1.6-2.1-3.7-6.7-4.6v-1.6l4.1-3.1 3.2 2.6 2.6-3.7-2.1-1v-2.1l-1.6 0.5-3.6-2.6-1.1-4.2-7.8-6.7z"/>
		<path id="Path 58" class="s58" d="m496.9 403.6l10.4-9.4 1.6 1-6.8 6.8-4.2 4.2zm360.4 48.5l7.3-1.1 1.1 1.1-1.6 1.5v3.7l-3.6 0.5-3.2-0.5v-3.1z"/>
		<path id="Path 59" class="s59" d="m387.5 441.6l6.3-0.5v2.1l2.6 0.5 2 3.7v0.5l-5.7 6.8-3.1-3.7-2.1-3.1-0.5-4.7zm-67.7 1.6l5.7-2.1 3.1 6.2-7.8 1.1-1-1.1zm99.5 0.6l1.5-2.1 2.1 0.5v2.6l4.2 4.7-1.1 4.7-2.1 3.6-3.1 1.1-2.6-7.8 0.5-5.8zm112 4.2l1.6-5.7 3.6 1-1.5 6.3-0.6 1-2.6-1zm-234.3 3.1l-2.1-4.2 1-4.2 5.7 0.6 1.1 1.5-0.5 3.7-1.6 0.5 0.5 2.1-1.5 1-2.1 1.1zm-41.7 5.2l1.6-4.2 5.7-1v-5.2l2.1-1.6 2.6 0.5v6.8l-2.1 0.5-0.5 2.1-2.6-0.5-3.1 2.1 2 4.1h-1.5zm338-6.7h2.1l1-3.2 2.6 2.6-2.1 4.7-3.6-3.1zm-37.5 3.1l1-2.6 2.6-0.5 1.6 3.1-1.6 7.3-4.6-2.6v-1.5l0.5-0.6zm-78.7 1.1h5.8l0.5 5.7-1.1 1.6-2-0.6zm-37 12.6l3.1-11 3.6 2.6v3.1l-1.5 2.7 4.7 3.6v1h-1.6l-1 2.7 1 1-2.1 1.6-7.3-1.1zm-171.3-0.5l-2.1-2.6 2.6-3.1 3.1 1.5-1 3.7zm-3.1 0.5l2.6-0.5 5.2 7.3-1.1 4.7 2.1 1.5v0.5l-6.2 4.2-1.6 0.5-1-3.1 2-4.7-3.1-1-2.6-2.1 1.6-3.7 3.1-0.5zm9.4 6.8l1.5-5.2 3.7 0.5 2.1 4.2-3.2 0.5-1 3.1-1 1.1-1.1-1.1zm-127.1 38.1l1.6-1.1 4.7 2.1v4.7h-4.7l-1.6-1.5z"/>
		<path id="Path 60" class="s60" d="m526.6 410.4l5.7-8.4 6.2 5.2-7.8 8.9-3.1-1.6zm-15.1 167.4v-3.2l17.7 0.6 4.2 0.5v3.1z"/>
		<path id="Path 61" class="s61" d="m282.3 474.5l2.1-0.5 2.6 5.2 2.6 1 2.1 0.5-1.1 2.1-4.1 1.1v-2.6l-6.3-4.2 1.6-1.6zm-128.2 37.6l6.8-1.1 4.2 5.7 3.1 0.6 1.6 2.6-2.1 2.6h-5.7l-0.6-4.2h-5.2l-2.1-1.6zm532.3 53.7l9.9 6.8h3.7l0.5-4.2-9.9-4.6v-3.7h3.7l6.7 3.1 2.6-3.6 6.8 3.6 1.6 2.6v2.6h-3.7l-0.5 2.7 5.7 2.6-2.1 2 1.6 6.3-3.6 0.5v2.1l3.1 1.6v2.1l-2.1 1v6.3l-5.2 0.5-0.5 2.6-4.2-1.1-9.4-6.7-6.2-5.3 2.1-6.2 6.2 4.2 5.2-1.6-1.5-2.6-12.5-7.3-2.1-1.6-2.1-5.7 2.6-1.6zm-12.5 8.4l-1-5.8 5.7 4.7-3.7 1.6z"/>
		<path id="Path 62" class="s62" d="m107.3 468.2l3.1-1 1.1 3.6 7.3 1.6-2.1 2.1h-4.2l-10.4 1.5-4.7 1.1-2.6-3.7 1-1 1.1-0.5 2.1 0.5 1.5-1.6 3.1-1h3.2zm-24 37l-1-4.7 1.5-1h0.6 7.2v8.3l-4.6 1zm641.6 27.7l0.5-3.2 5.3-3.1 2 3.1-1.5 5.3-4.2 0.5zm186.5 45.3l4.1-2 4.7 5.2-2.6-2.1-6.2-0.5zm-395.9 4.6l13.6-1-1.6 2.1-12 1z"/>
		<path id="Path 63" class="s63" d="m114.6 511l3.6-0.6-5.7-12.5 4.2-1.5 5.2 1.5 2.1 2.6 6.7 1.1v1.5l2.6 0.6 6.3 6.2 8.3 1.1v4.1l1.6 1.6h4.7l2.1 1.6h5.2l0.5 4.1h5.7l-1.6 4.2h-0.5l-9.3 0.5-18.3-3.6-2.6-3.1-16.6-1.1-3.7-2.1-0.5-2.1zm-12.5-1v-3.1l3.6-2.1 2.6 3.6 4.2 1.6-1.6 3.1-7.3-1z"/>
		<path id="Path 64" class="s64" d="m498.4 381.7l2.6-0.5v1.5l-2.6 2.6-3.6 3.7-2.1-0.5zm-6.8 17.7l3.2-2.6 2 1-1 5.2 1 0.6 1.1 2.6 4.2-4.2 1 1.6-1 5.2 7.2-6.8 3.7-0.5-2.6 10.9 5.7-2.6v8.4l-1.5 2.6-1.6 1-4.2-1 1.1-5.8-5.8 5.2-3.6-0.5-1-4.7-7.9 3.2-3.1-4.7-1.5 0.5-5.3-2.1 2.6-4.7 5.8-5.7zm192.2 176.7l-1.1-2.1 1.6-2.1 12.5 7.3 1.5 2.6-5.2 1.6-6.2-4.2z"/>
		<path id="Path 65" class="s65" d="m278.1 476l3.7-0.5-1.6 1.6-1 2.6h-1.6l0.5 2.1h-0.5l-3.1-2.1v-0.5l1.5-3.2 1.1 1.1zm226 92.3l3.7 2h4.1l3.7-2.6 2.6 2.6h3.6l7.3 1.1v3.6l-17.7-0.5-17.7-1 3.1-3.7 2.1-0.5z"/>
		<path id="Path 66" fill-rule="evenodd" class="s66" d="m479.2 382.7l2.1-1.5 1.5 1.5-6.8 6.8 0.6 2.1h-2.6l-2.6 4.2-3.2-1.1 0.6-1 5.2-6.3zm-2.1 9.4l2.1-1v1l-1.6 1.6zm-32.3 27.6l6.3-3.1 5.7-0.6h5.2l1 2.1 6.8 1.1 2.6 3.6 6.8 0.5v3.2l-0.5 4.7-5.8 2.1v4.1l-3.6 2.1v3.1h-5.2l-2.1-1 0.5-3.7-2.1-1.5h-5.7l1.6 6.8-3.7-0.6-5.2 0.6 2.6-5.3-3.1-13-2.1-1.6zm-30.2 0l8.9-2-1.6 8.8h-4.2l-3.6-2.6zm-59.4 1.6l3.1-2.1h4.7l1.1 3.6h2.6v3.7l2.6 1 1 2.6-2.1 3.2 1.1 4.7-4.2-0.6-0.5-2.6-3.7-2.1-2.6-7.8-3.1-1.5zm175.5 17.7l0.5-9.9 3.7 0.5 4.2 0.5h4.1l0.5 4.7 3.2 2.1-0.6 5.7-0.5 4.2 2.6 5.7 4.7-1.5 2.6 1.5-0.5 2.7-0.5 0.5v1.5l1 8.9h-4.1l-2.1-6.3-3.7 5.3-2.1-1.1 2.6-9.4-1-3.1-2.6-4.2-3.1-1h-2.1l-1-3.7-1.1-2zm-312.5-6.3l1.6-1.6h6.2v3.2zm-43.2 14.6v-7.9l8.3 0.6-0.5 10.4-6.8 1zm448-2.1v-5.2l11.9 2.1-2.6 2.6v7.8l-1.5 0.6-0.6 3.6h-4.1l1-7.3-2.1-0.5-1.5 2.6zm31.2 8.3v-8.3l16.2 2.6-1.6 2.6v9.4h-8.3l-2.1-1-0.5-5.3zm-71.4-3.1l1.6-3.1 3.1 1.5-0.5 2.1zm139 4.7l13.1-1 1 6.8 2.1 2h2.6l0.5 1.6v2.6l-1.5 2.1-3.7-0.5-2.1 1.5-0.5 6.3-4.2-0.5-0.5-2.1-2.6-6.3-3.6 1.1 0.5-6.3-1.6-1.5zm-598.9 3.6l2-1.6 4.2 0.6v6.2h-6.2l1-3.6z"/>
		<path id="Path 67" class="s67" d="m265.1 572l17.7 3.1 0.5 1-5.2 0.6-1 0.5h-0.5l-8.4-2.1-3.1-1.1zm281.3 7.3l7.8-1.5 3.1 0.5-6.3 2.1v1.6h-5.2l-18.2 2 1.6-2h3.1l1.6-1.1 4.6-0.5zm-114 10.4l18.7-1.6h7.3l3.7 0.6-4.7 2.1-12 2h-12.5z"/>
		<path id="Path 68" class="s68" d="m925 420.3l5.7-2.6 2.1 1-0.5 4.7h-3.7-2.6zm-110.4 22.9l6.3-2.1 0.5 3.7-5.2 2.6-2.6-1zm51 75l1.1-1.5h-3.7l-1-1.6v-5.2l1.5-0.5 3.7 6.7 3.6 2.6 2.1 2.1 1.6 2.6v3.7l2.1 1 0.5 3.7 3.1 1.5v2.6l-2.1 0.6v1.5l9.4 0.6 5.2 3.6 1.6 4.2 2.1 0.5v2.1l-2.1 1-5.8-0.5-0.5 1.6 10.4 1.5 0.6 6.3-1.1 1.5-9.9-2-2.1-1.1-0.5-4.7-3.1-2.1-1-3.1 6.7-0.5-8.8-1v-2.1l-8.4-3.2-1.5-4.1-5.2-1.1 1-2.6h5.2l-1.5-3.1v-4.2zm47.9 67.3l-7.3-1.1-1.1-3.1 3.2-2.6h3.1l6.2 0.5 2.6 2.1-1.5 3.6z"/>
		<path id="Path 69" class="s69" d="m878.1 470.8l7.3-1v3.1h-7.8z"/>
		<path id="Path 70" class="s70" d="m351.6 414.5l46.8-2.1v1.1l-13 0.5-10.4 0.5-16.7 0.5h-7.3zm548.5 2.1l9.4-1.5 1.5 1-10.9 1.1zm-608.9 2l14.6-1v0.5l-14.1 1.6h-0.5zm-14.6 1.5l5.3-1v1zm595.8 3.7l8.8-3.1v0.5l-1 0.5zm-655.7 2.6l21.3-2.6v1.1l-9.9 1-10.9 1zm322.4 3.7l2.1-1.6 9.3 2.1-7.2-0.5zm33.8 3.1v-0.5l15.1 2.1v0.5l-6.8-0.5h-2zm26 2.6l4.7-0.5 1.5 1.5-5.7-0.5zm-430.2 3.7l4.7-3.2 3.1 0.6-2.1 1.5zm438.1-2.6l5.2-0.5 2.6 1.6 4.1-0.6 20.9 4.2v1l-4.7-0.5-12-2.1-8.8-1.5-4.7-0.5zm8.3 132.4l2.1-1.1h5.7l5.2 1.6 4.7 5.7v1.1l-1.6-2.6h-2.6l-0.5-2.7-8.3-2.6-4.7 1.1z"/>
		<path id="Path 71" class="s71" d="m899 551.6l2-1v0.5 1.6l1.6-0.5 7.3 8.8-1.6 1.1 3.7 2v6.8l-3.7 0.5v1.6l5.8 1 1.5 2.1-4.1 2.1-3.2-1.5-4.7-3.7 0.6-6.8-3.2-2.1-0.5-5.2h-1.5l-0.6-6.2zm-418.2 32.8l6.3-0.5h2l-0.5 2.6-1.5 3.1h-2.6l-4.7-1.5z"/>
		<path id="Path 72" class="s72" d="m103.6 468.7l3.7-0.5-0.5 1.6h-3.2zm-6.7 3.1l2.6-1h1l-1.5 1.5zm763.5 19.8l3.1-0.5 2.1 3.2-7.3 0.5v1.5l4.7 2.1 1 2.6-3.1 1.6-4.1-1.6-0.6-7.3zm-353.6 92.8l3.1-1 1.1 1-2.6 6.8h-20.4l-1-1.6 1.6-3.1 3.1 0.5 0.5-2.1z"/>
		<path id="Path 73" class="s73" d="m704.7 598.5l0.5-2.6 5.2-0.5v-6.2l2.1-1.1v-2.1l4.2 1.1v11.4l-2.1 2.1-0.5 5.2-4.2 0.6 1-3.7zm-12.5 24.5v-1.5l5.2 1v2.1l-2 0.5z"/>
		<path id="Path 74" class="s74" d="m529.2 395.2l5.2-6.7 3.1 1.5 1 1.1 2.1 1-6.2 6.8-1.6 1h-3.1l-1.1-2.6zm168.3 227.3h5.7l1-3.6 1.6-0.6 2.6 2.1 1.6 8.9v2.6l-2.6 2.6h-2.6l-1.6 3.1-7.8-1.5-2.1-1.1-1.6-3.1 3.2-1-1.1-4.2 3.7 1-2.1-2.6 2.1-0.5z"/>
		<path id="Path 75" class="s75" d="m703.6 559.4l0.6-2h3.6l1.6-2.6 5.2 2.6 3.1 1.5 1 9.9-2 8.4v9.9l-4.2-1.1-3.1-1.5v-2.1l3.6-0.5-1.5-6.3 2-2.1-5.7-2.6 0.5-2.6h3.7v-2.6l-1.6-2.6zm4.7 61l1.6 0.5v-1.6l2.1-0.5 2.6 0.5-0.6 4.2-4.1 5.8z"/>
		<path id="Path 76" class="s76" d="m555.7 343.6l1.1-4.1h1l-1.6 5.2-2 1.5v-1l0.5-0.5 0.5-0.5zm-4.7 15.1l0.5-1.1 1.6 1.6-3.1 4.7-1.1 2.6v0.5l-2.6 5.2-0.5 1.1-1.6 2.6-1 0.5 0.5-2.1 4.2-9.4zm-9.9 21.4l2.1-3.6v0.5zm-3.7 9.9l1.6-5.2-0.5 4.7 7.3-2.1h0.5l-1.6 1.5-6.2 2.1zm-101.6 21.9l7.3-0.5 1.6-1.6h3.1l-1.6 1.6-1 0.5-5.7 0.5h-3.7zm-130.2 5.8l39.1-3.2-0.5 1.1-2.1 0.5h-2.6l-7.3 1h-7.3-4.2l-12.5 1.1h-2.6zm-49.5 4.7l19.3-2.1-10.9 2.1-8.4 0.5zm-18.2 1.6l9.9-1.1v1.1l-4.2 0.5-5.7 0.5zm614.6 4.7l3.6-0.5 0.5-1.6h5.3v0.5l-13.1 3.7v-1.1zm-657.8 3.2l16.2-4.2-0.6 1zm359.4-0.5v-0.5l18.8 2.1v0.5l-8.4-0.5zm-368.7 3.1l-0.5-1 2.6-1.1 6.7-0.5-0.5 0.5zm454.2 7.3l3.1-0.5-0.5 1 1.6-0.5 1 1.6-5.2-0.5zm-510.4 14l6.2-1-5.7 2.1zm-45.8 28.1l0.5-2 5.7-4.2-0.5 1.5-3.7 3.2zm0 21.3h-1.5l-1.6-4.1 1.1-2.6h2l0.6 1-1.6 1.1zm626 34.4v1h-4.1v-1zm28.6 3.1v-0.5l5.2 1 11 2.6 9.9 3.7 1.5 0.5h0.6l-0.6 1.6h-2.6l-0.5-2.1h-3.1l-0.5-1.6-0.6 1.6h-2l1.5-1.1-1.5-1h-6.8l0.5-1.1-6.2 1.1 2-1.1-1-1zm-566.7 3.1l0.5-0.5 14.6 2.1-0.5 2.6-1 1-6.3-1-0.5-2.1-3.6 1.1-1.6-1.1zm432.3 26.6l11.4-3.1v0.5l-0.5 0.5-8.8 2.1zm-3.2 0.5l3.2-0.5 0.5 2.1-10.9 2.1v-1.6zm-284.4 12l0.5-0.5 21.4 2.1v1.5zm38 4.2l0.5-1.1 9.9 1.1h0.5l0.5 1.6zm27.6 2.6l-0.5-2.1 12.5 1v1.6zm31.8-0.5h10.4v1.5l-11.5 0.5zm-19.7 1.1l6.7-1.1 0.5 2.1z"/>
		<path id="Path 77" fill-rule="evenodd" class="s77" d="m932.3 423.4l0.5-4.7h2.6l2.1 0.5-0.5 5.2zm-93.2 9.9l3.1-2.6 6.2-1h0.5v1l-7.2 2.1zm-4.7-0.5l2.1 0.5-3.2 1.1zm-6.7 3.1l0.5-0.5 1 0.5zm-0.5 0h0.5v0.5h-0.5zm-13.5 5.2l11.4-4.1 0.5 0.5-9.9 4.1zm-666.6 8.9l9.3-4.2 2.1 0.6 6.3-5.3 3.6-1-0.5 1.6-2.6 1-1 2.6-9.9 4.2-2.1 0.5zm-24 7.3h0.5v0.5h-0.5zm-8.3 5.2l8.3-4.7v1.1l-4.1 3.6zm790.1-3.1l2-0.5 1.1 2.1-0.5 2.1-6.3 4.1 0.5 1.1-6.7 3.1-0.6-1zm-821.3 46.9l3.1 3.6-3.1-0.5zm59.9 29.2l7.3 4.2 5.7 1 8.3 2.6 7.3 2.1-1.5 1.6-5.2-1.1-9.9-2.1-12-5.7zm71.9 22.4h7.8l8.8 3.7 14.1 2.6 8.3 4.1-5.7 0.6-4.7-1.6-0.5-1.6-8.4-2.6-17.7-3.1-2-1.6zm354.1 23l16.2-4.2 3.6 0.5-19.8 4.7-0.5-0.5zm-282.8-2.1l10.4 1.6v1zm19.3 4.2l2.1-0.5 8.8 2.1-0.5 0.5h-7.3zm151.6 7.8l4.7-2.1 7.2 0.5 1.6 2.6-9.9 0.6zm67.7 0.5l-2.1-1.1 3.2 0.6zm-8.4 0l3.2-0.6-1.1 1.6zm-7.8 0.5l-20.8-0.5h25.5v2.1zm417.2 20.8l0.5-1v0.5zm-4.2 1.6l4.2-1.6-3.7 2.6z"/>
		<path id="Path 78" class="s78" d="m709.4 554.8l-2.1-3.2 0.5-2.6-3.1-1.5 7.3 1.5 2.6 5.8v2.6z"/>
		<path id="Path 79" class="s79" d="m466.7 394.7l1-1h1.1l-0.6 1-10.4 10.4-5.7 4.2-1.1-1.5 13.1-12.6z"/>
		<path id="Path 80" fill-rule="evenodd" class="s80" d="m476 383.8l0.6-1.6 1 0.5zm-3.6 4.2l0.5-2.6 2.6-0.5-1.6 2.1zm0 0l-1 1.5-0.5-1.5zm-4.7 2l2.1 1.6-2.1 1zm-1.1 4.7v-2l1.1 1zm463 41.7l2.6-3.1-0.5 3.1zm-2.6 1.6l2.6-1.6v2.6l-9.9 10.4 1.5 2.1-3.6-0.5-6.3 2.6-2.6 2.1 1.1 2.1-2.1 3.1-1-2.1-2.1 0.5-2.1-5.7 4.2-1h3.6l-0.5-2.1 7.3-1.1 1.5-1.5 3.7-3.2 0.5-5.7zm-823.4 30.8l-1.6-0.6 8.3-2v-1.6l4.2-2.1h1.6l-5.8 4.7-3.1 1zm-7.8 3.7l-1-2.1 4.6 0.5-2.6 1.1zm-3.6 2.1l3.6-2.1-1 1zm-0.5 43.3v-1.6h-2.1v-2.1h-2.1l-1-2.1 2.1-1 6.7 5.7zm781.3 3.2l0.5-0.6h3.6l-2 1.6 4.1 2.6v3.7l-4.7-4.7zm-760.4 7.8l-1.5-2.6 5.2 2.6zm9.9 2.1h-6.3l0.5-2.1 2.1 0.5 1.6 0.5zm20.8 7.3l-14-5.2 14 4.7zm-20.3-5.2v-2.1l6.3 2.1zm42.1 13l5.2 1.1 1.1-1.1 1.6 2.1h-4.7zm9.3 3.1l3.7-1 0.5 2.1zm724 3.6l-10.5-1.5 0.6-1.6 5.7 0.5h3.1l1.6 1.6zm-183.9 4.7v-2.6l5.2 3.1-2 1zm-497.4 2.7l17.7 3.1 8.3 2.6 0.5 1.6zm47.4 14.6l0.5-0.6 3.2 1.1-1.1 1zm658.9 7.8l-4.2-4.1-0.5-3.7h1.6l1.5 5.7 3.1 0.6zm-646.8-5.2l-1.1 1-7.3-3.1zm0.6 0l1-0.5 18.7 4.6 0.6 0.6-18.3-2.6-2-0.6zm648.4 14.6l-1.6-4.1 1.1-1.1 2.1 4.2v6.2zm-445.9-0.5l4.7-1.5h2.6l1.1 1.5 20.8 0.5-4.2 1.6-17.2-1-1.5 1-0.6-1.6zm-34.3 1.6l12-2.1 3.6 1.6zm266.7 26.1l-3.7-4.7 3.7-0.6 1-4.7h2.1l1.6 5.3-1.6 4.7-0.5 0.5z"/>
		<path id="Path 81" class="s81" d="m527.6 584l18.2-2.1 1.6 2.1-7.3 1 1 1.6-3.6 2-11.5 2.1-3.1-0.5-3.1 0.5-3.1 0.5h-3.2-5.2l2.6-6.7 4.7-1.6v2.1zm156.8 45.9l1.6-0.6 0.5 2.1 5.7 3.7h-2.6l-5.2-4.2zm12.5 7.8l-1.6-1.5 7.8 1.5-0.5 1.1z"/>
		<path id="Path 82" class="s82" d="m828.1 435.4h5.2l-0.5 1.5-12 4.2-6.2 2.1-5.2 0.5-3.7 0.5 7.8-3.1 2.1 0.5 9.9-4.1 2.1-1.1v-0.5h1.6zm-26.6 9.9l0.5-2.1 2.6 1.1zm-109.9 97.4l0.6-2 2-0.6v1.1l-1 1.5zm231.2 51.1l2.6-2.1 1.6 5.3 1.6 8.8-2.6 1.1 0.5 4.7-0.5 1-4.2 1.6h-1.6v-0.6l3.7-2.6-0.5-2.6-0.6-3.1 1.6-2.6-5.7-3.1 0.5-1.6h4.2zm-226.1 43.8l-0.5 1-6.8-3.6h2.6 1.1l2.1 1z"/>
		<path id="Path 83" class="s83" d="m530.2 342.1l3.1-2.6 0.6 0.5zm382.2 74l0.6-1.6h5.2l-0.5 1.6zm-23 2.6l10.5-2.1v0.5l-9.9 2.1zm-358.4 10.5l-7.8-1.6 0.5-2.6v1.6l3.2 0.5h4.6l3.2 2.6z"/>
		<path id="Path 84" class="s84" d="m920.8 424.4l5.2-1h2.6v4.2l-1.5 0.5 0.5 7.3-1.6 0.5 1.1 2.1-4.2 1-2.6-3.6zm-23.4 27.6l8.3-1.6 5.7-3.6v-6.3h2.1l3.7 3.2 1.5 4.1-1.5 1.6-7.3 1h-2.6l-0.5 2.1-4.2 1.1 2.1 5.7-10.4 11-6.3-0.6 1.6-1.5-3.2-0.6 3.7-2-0.5-1.6 3.6-4.2h1.6zm-187.5 154.3l4.1-0.5 1.1 3.1h-2.1l-1 4.7-3.7 0.6 3.7 4.6-2.1 0.6v1.5l-1.6-0.5-2.6-2.1-2.1-7.3 4.7-1z"/>
		<path id="Path 85" class="s85" d="m927.1 438l-1.1-2.1 1.6-0.5-0.5-7.3 1.5-0.5v-4.2h3.7l4.7 1-0.5 3.7-3.2 1-1 4.2-2.6 3.1zm-20.3 14.6l0.5-2.1h2.6l0.5 2.1zm-34.9 21.4h3.2l0.5-0.5h1.5l-2.6 1.5 4.2 0.6-4.2 3.1h-4.1zm-402.6 115.2l1.5-1.6 8.9 0.5 4.7 1.6-4.7 1.6-8.9 0.5z"/>
		<path id="Path 86" fill-rule="evenodd" class="s86" d="m863.5 485.4l1.6-1 5.2 2.6 0.5 1-2 5.2-3.7 2.7 0.5 3.1-1.5 2.1-1.1-2.6-4.7-2.1v-1.6l7.3-0.5-2.1-3.1zm-11.4 16.1l4.7-0.5 4.1 1.6 5.2 4.7 4.7 11.4-3.6-2.6-3.7-6.8 0.6-2-4.7-3.2-6.3-0.5-1.5-0.5zm17.7 10.4h0.5v0.5h-0.5zm17.7 26.6l-9.4-0.5v-1.6l2.1-0.5v-2.6l-3.1-1.6-0.6-3.6-2-1.1v-3.6l4.6 4.7 1.6 3.1 2.6 1.1 1.6 2-0.5 2.7 3.6 1zm28.1 37.5l-1.5-2.1-5.8-1v-1.6l3.7-0.5v-6.8l-3.7-2 1.6-1.1 2.6 1.6 2.1 1.5v2.6l4.2 2.7-0.6 4.1 0.6 1.1 0.5 3.6 4.1 4.2 1.6 0.5v3.7l-1 1 1.5 4.2-2.6 2.1-2.1-4.7-7.3-3.7 5.3-0.5 1.5-3.7z"/>
		<path id="Path 87" class="s87" d="m247.9 422.9l8.3-0.6v0.6l-1.5 1h-6.8zm-124.5 34.4l1.6-1.5h4.2l0.5 1-0.5 1-4.2-0.5-2.1 1.6v-1.1zm-40.1 41.2v-3.6l-2.6-4.2 1-5.7 1.6-1.1v1.6l-1 5.2 5.2 0.5-3.1 1.6 3.1 4.2-3.1 2.6h-0.6zm37 31.2l15.1 3.2 7.8 2.6v2.1l-20.3-6.8h-0.5zm767.2 8.8l0.5-0.5 1.6 1.1h3.1l6.2 6.7 2.6 2.7-4.1 1.5h-3.1l2-1v-2.1l-2-0.5-1.6-4.2zm-701.6 11.5l0.5-2.6 5.3 0.5-3.2 2.6 3.2 1zm29.1 8.4l-2.6 0.5-19.8-7.3 19.3 3.6 3.1 2.6zm81.8 23v-1.1l10.9 2.1-2.1 0.5-5.2 1.1v-1.6l-3.1-0.5zm41.2 6.8v-1.6l14 1.1 2.6 0.5-0.5 1zm27.1 1.1l16.1 0.5 0.6 2.1-16.2-1.1zm58.9 2.1l8.3-1.5 0.5 3.1h-8.8zm-23.5 0h13l-1 2.1h-11.5z"/>
		<path id="Path 88" class="s88" d="m913.5 440.6l1.6-4.2 5.2-1 2.6 3.6-0.5 5.8-3.6 3.1-1.6-4.2z"/>
		<path id="Path 89" fill-rule="evenodd" class="s89" d="m554.2 353l1-4.2h-3.6v-2.6l2.6-1v1l2 1.6-0.5 4.7zm-209.3 61.5h6.7l-0.5 0.5-2.1 0.5h-4.7zm-133.8 13.1l5.7-1.1 0.5 0.6-0.5 0.5-6.2 1zm343.2 3.7l-3.1-0.5h3.1z"/>
		<path id="Path 90" class="s90" d="m546.4 387.4l7.2-4.7 3.7-0.5-6.8 6.3-3.1 6.2-3.1 4.2-4.2-3.1 5.2-4.7-0.5-2.1zm114.1 218.4l1.5-0.5 11 13.5 2 2.1 1.6-1 1.6 1.5-0.6 2.1 6.8 6.3v1l-9.4-7.8zm253.7 9.4v-1.6h2.6l1.6 1.1 2-1.1v0.6l-1.5 2z"/>
		<path id="Path 91" fill-rule="evenodd" class="s91" d="m918.2 414.5h11v1.6h-11.5zm-285.4 162.1v-1l7.8 8.3 10.9 12.5 8.9 9.4 14.6 17.2-36-38.6-1.5-1.5zm193.2 2.1h-2.6l-3.1-3.2zm-136.5 56.3l-7.3-4.1-7.3-7.9 9.4 7.9z"/>
		<path id="Path 92" class="s92" d="m863.5 485.4l-0.5-2.1 7.3-4.7h4.2l1.5 1.6-1 2.6-5.2 3.1 0.5 1.1-5.2-2.6zm6.8 1.5h1.5l-1 1.1zm-616.2 81.3l2.7-0.5 8.3 4.2v2l-0.5 0.6-16.2-5.8zm309.4 13.6l5.2-1.1h0.5l-0.5 0.6z"/>
		<path id="Path 93" class="s93" d="m533.3 339.5v-1.6l2.1 0.5 13-5.7 6.3 1 1.6 2.1-7.3-1.6-15.1 5.8zm22.9-3.7h2.1l-0.6 3.7h-1v-1.6zm-157.8 76.7l37.5-0.6v0.6l-5.7 0.5-31.8 0.5zm530.7 3.6v-1.5l5.2 1.5 1.1 2.6h-2.6l-2.1-1zm-647.4 3.1l9.4-0.5v1.1h-3.7l-5.7 0.5zm599.5 1.5l8.3-2 0.5 0.5-8.8 2.1zm-19.3 5.7l2.6-0.5 0.5-2.1 5.2 0.5-8.3 2.6zm-274 8.9v-0.5l11 1 0.5 0.5h-2.1-3.6zm-443.8 16.2l2.6-1.6h5.2l-2.1 1.1zm565.1 88.1l1.1-0.6 17.2 0.6 5.7 1 4.7 1.6v0.5l-9.9-2.1h-18.8zm-13.5 0.5l5.7-0.5h3.7v1l-11 0.6v-1.1zm-106.2 35.5l3.6-0.6v1.6l-4.1 0.5-3.7-0.5z"/>
		<path id="Path 94" class="s94" d="m479.2 382.7l2.1-4.1 4.1-2.1-4.1 4.7zm-2.7-1.1h0.6v0.5h-0.6zm-0.5 2.1l1.6-1h1.6l-5.3 4.7v-0.5l1.6-2.1zm401 89.6l0.6-0.5h7.8v0.5l-4.2 1.1-1 3.1-4.2 2.6-1.6-1.6 4.2-3.1-4.2-0.5z"/>
		<path id="Path 95" class="s95" d="m885.4 469.8l1.6-0.5-0.5-1.6 3.1 0.5-1.6 1.6 6.3 0.5 0.5 1.1-9.4 2v-0.5z"/>
		<path id="Path 96" class="s11" d="m718.2 481.8l3.2 1 2 6.3-4.7 9.4-1.5 0.5-2.1-5.2v-5.8z"/>
		<path id="Path 97" class="s12" d="m351 495.3l0.6 4.2-5.8 3.6-0.5 3.7-1.6-1-0.5-10.5zm155.8 18.3l2.6 1.5 1 9.4-7.3 9.4h-1.5l-0.6-5.2 0.6-7.8z"/>
		<path id="Path 98" class="s13" d="m468.8 446.3h0.5v0.5h-0.5z"/>
		<path id="Path 99" class="s16" d="m343.2 495.3l-1-1.5 3.1-2.1v-4.7l5.2-5.2 2.1 4.7-1.6 8.8z"/>
		<path id="Path 100" class="s17" d="m429.7 492.7h0.5v0.5h-0.5z"/>
		<path id="Path 101" class="s22" d="m444.3 443.7h0.5v0.5h-0.5z"/>
		<path id="Path 102" class="s31" d="m641.1 451l2.6 3.1-2.6 2.1-3.6-3.1v-1.6z"/>
		<path id="Path 103" class="s42" d="m554.7 455.2h0.5v0.5h-0.5z"/>
		<path id="Path 104" class="s43" d="m374 440.6h0.5v0.5h-0.5zm128.6 53.7l3.1 6.3-1 5.2 1 2.6-7.3 10.4-1-4.7 1-8.3-1-2.6z"/>
		<path id="Path 105" class="s64" d="m499 415h0.5v0.6h-0.5z"/>
		<path id="Path 106" class="s81" d="m701.6 636.1h0.5v0.5h-0.5z"/>
		<path id="Path 107" class="s89" d="m555.2 343.6h0.5v0.6h-0.5zm-0.5 0.5h0.5v0.5h-0.5zm-0.5 0.5h0.5v0.5h-0.5z"/>
		<path id="Path 108" class="s94" d="m875 473.4h0.5v0.6h-0.5z"/>
	</g>
</svg>