<svg version="1.2" xmlns="http://www.w3.org/2000/svg" viewBox="0 0 1000 1000" width="1000" height="1000">
	<title>Culaea_inconstans</title>
	<style>
		.s0 { opacity: .4;fill: #b5cad7 } 
		.s1 { opacity: .1;fill: #e7f2f5 } 
		.s2 { opacity: .6;fill: #e2eff4 } 
		.s3 { fill: #b0d2ee } 
		.s4 { opacity: .2;fill: #cadbdf } 
		.s5 { fill: #a4c5d6 } 
		.s6 { opacity: .4;fill: #d3e3e9 } 
		.s7 { fill: #c3deef } 
		.s8 { opacity: .5;fill: #f0f8fb } 
		.s9 { fill: #9dc3e6 } 
		.s10 { opacity: .8;fill: #a2b9c8 } 
		.s11 { fill: #789fc1 } 
		.s12 { opacity: .7;fill: #b4cad7 } 
		.s13 { fill: #a0bbbf } 
		.s14 { opacity: .6;fill: #c8dae6 } 
		.s15 { opacity: .8;fill: #ccdee8 } 
		.s16 { fill: #496e92 } 
		.s17 { fill: #5d84aa } 
		.s18 { fill: #6a92b5 } 
		.s19 { fill: #98bacc } 
		.s20 { opacity: .3;fill: #eaf4f7 } 
		.s21 { opacity: .6;fill: #92acbd } 
		.s22 { fill: #47697a } 
		.s23 { opacity: .4;fill: #a3b7bd } 
		.s24 { opacity: .2;fill: #88a0ab } 
		.s25 { fill: #385c75 } 
		.s26 { opacity: .9;fill: #acc5d7 } 
		.s27 { opacity: 1;fill: #869b91 } 
		.s28 { fill: #54799d } 
		.s29 { fill: #234658 } 
		.s30 { fill: #638087 } 
		.s31 { fill: #517487 } 
		.s32 { fill: #6d8c93 } 
		.s33 { fill: #19353e } 
		.s34 { fill: #607774 } 
		.s35 { fill: #466466 } 
		.s36 { fill: #1f404c } 
		.s37 { opacity: .8;fill: #7593ab } 
		.s38 { fill: #0e2626 } 
		.s39 { fill: #b6d2df } 
		.s40 { fill: #122b2f } 
		.s41 { fill: #adc7ca } 
		.s42 { fill: #2c4c59 } 
		.s43 { fill: #455852 } 
		.s44 { fill: #324c51 } 
		.s45 { fill: #385560 } 
		.s46 { fill: #7196a9 } 
		.s47 { fill: #5a7f91 } 
		.s48 { fill: #8db0c1 } 
		.s49 { fill: #2a423b } 
		.s50 { fill: #52655b } 
		.s51 { fill: #324943 } 
		.s52 { fill: #254245 } 
		.s53 { fill: #233935 } 
		.s54 { fill: #071e22 } 
		.s55 { opacity: 1;fill: #83a1a6 } 
		.s56 { fill: #1e3430 } 
		.s57 { fill: #3b5859 } 
		.s58 { fill: #1a2e28 } 
		.s59 { fill: #2f5268 } 
		.s60 { fill: #3a5046 } 
		.s61 { fill: #405e6c } 
		.s62 { fill: #4f6c72 } 
		.s63 { fill: #8fb6d9 } 
		.s64 { fill: #8aa9ad } 
		.s65 { opacity: 1;fill: #031317 } 
		.s66 { fill: #7ea4b6 } 
		.s67 { fill: #668aa8 } 
		.s68 { fill: #94b1b6 } 
		.s69 { fill: #658a9d } 
		.s70 { fill: #406584 } 
		.s71 { fill: #85adcc } 
		.s72 { fill: #7a999c } 
		.s73 { opacity: .2;fill: #aec3d0 } 
		.s74 { fill: #778e88 } 
		.s75 { opacity: 1;fill: #586d69 } 
		.s76 { opacity: .8;fill: #6c8288 } 
		.s77 { fill: #738476 } 
		.s78 { fill: #c2d5d1 } 
		.s79 { fill: #9bb1a9 } 
		.s80 { fill: #94a99d } 
		.s81 { opacity: 1;fill: #57757c } 
		.s82 { fill: #64735d } 
		.s83 { fill: #a9b499 } 
		.s84 { fill: #d3e0db } 
		.s85 { fill: #6a7a6c } 
		.s86 { fill: #83937a } 
		.s87 { fill: #ebf6f9 } 
		.s88 { fill: #92a087 } 
		.s89 { fill: #b7c8be } 
		.s90 { fill: #aabcb2 } 
		.s91 { opacity: .2;fill: #5f7781 } 
		.s92 { fill: #cde4ec } 
		.s93 { fill: #dbecee } 
		.s94 { opacity: .7;fill: #7e949c } 
		.s95 { opacity: .5;fill: #6f8488 } 
		.s96 { opacity: .7;fill: #6185a9 } 
	</style>
	<g id="Background">
		<path id="Path 0" class="s0" d="m163 465h1v1h-1z"/>
		<path id="Path 1" class="s1" d="m614 388l7-3h1v1 1z"/>
		<path id="Path 2" class="s2" d="m622 386v-1h4z"/>
		<path id="Path 3" class="s3" d="m622 386l4-1h8l7 3 5 2h1v8l-12 4-4 1h-2v-8l-7-8z"/>
		<path id="Path 4" class="s4" d="m641 388l-7-3h3z"/>
		<path id="Path 5" class="s5" d="m614 388l8-1 7 8v8l-11 4-11 4-6-4-1-14 6-3h3z"/>
		<path id="Path 6" class="s6" d="m598 393l8-3-6 3z"/>
		<path id="Path 7" class="s7" d="m647 398v-8h1l6 5v2l-1 2z"/>
		<path id="Path 8" class="s8" d="m363 398l3-7 6 2h-5z"/>
		<path id="Path 9" class="s8" d="m429 393l7-2v3h-1l-5-1z"/>
		<path id="Path 10" class="s9" d="m363 398l4-5h5l2 7 3 6v2l-6-2-1-6-8 2v-2z"/>
		<path id="Path 11" class="s10" d="m423 398l6-5h1l-3 4-4 2z"/>
		<path id="Path 12" class="s11" d="m427 397l3-4 5 1 2 11 1 2h-3l-2-9z"/>
		<path id="Path 13" class="s10" d="m488 395l8-2 1 5h-1z"/>
		<path id="Path 14" class="s12" d="m558 395l9-2v3z"/>
		<path id="Path 15" class="s2" d="m567 396v-3l2 6h-2z"/>
		<path id="Path 16" class="s13" d="m588 396l10-3h2l1 14-12 2h-3l-2-8v-2z"/>
		<path id="Path 17" class="s14" d="m437 405l-2-11h1z"/>
		<path id="Path 18" class="s15" d="m475 405l9-10h4l-5 6-8 7z"/>
		<path id="Path 19" class="s16" d="m483 401l5-6 8 3v4l7 7-5 1h-6l1-8h-9z"/>
		<path id="Path 20" class="s2" d="m549 400l2-4 6-1-5 5h-1z"/>
		<path id="Path 21" class="s17" d="m552 400l5-5h1l9 1v3 2h-1l-7 5z"/>
		<path id="Path 22" class="s14" d="m654 397v-2l9 6v1l-3-1z"/>
		<path id="Path 23" class="s4" d="m581 400l7-4-4 3z"/>
		<path id="Path 24" class="s16" d="m423 399l4-2 6 1 2 9-1 2h-15-4z"/>
		<path id="Path 25" class="s3" d="m653 399l1-2 6 4-5 1z"/>
		<path id="Path 26" class="s12" d="m409 410l14-12v1l-8 10-4 2z"/>
		<path id="Path 27" class="s15" d="m503 409l-7-7v-4h1l7 8 3 1 5 3-2 1z"/>
		<path id="Path 28" class="s18" d="m635 402l12-4 6 1 2 3 5-1 3 1 4 3 5 4 1 1-8 12 10 1 4 6-3 3-8-1h-5-6l-2-6h-6l-6-7v-6l-8-3z"/>
		<path id="Path 29" class="s19" d="m581 400l3-1v2h-3z"/>
		<path id="Path 30" class="s20" d="m356 409l6-9v2z"/>
		<path id="Path 31" class="s11" d="m362 402l8-2 1 6 6 2 2 2-4 2-9-2-1-2-6 2-3 1v-1-1z"/>
		<path id="Path 32" class="s21" d="m544 405l5-5h2z"/>
		<path id="Path 33" class="s22" d="m544 405l7-5h1l7 6 3 3v2h-7l-1-2-7 2h-9l1-2 4-4z"/>
		<path id="Path 34" class="s8" d="m571 405l3-4 7-1v1l-3 2z"/>
		<path id="Path 35" class="s23" d="m313 409v-3l8-5v1l-7 7z"/>
		<path id="Path 36" class="s24" d="m321 402v-1h5l-2 14-1-3 2-9z"/>
		<path id="Path 37" class="s25" d="m475 408l8-7 1 1-2 7h-7z"/>
		<path id="Path 38" class="s26" d="m559 406l7-5-2 3-2 3h5l-1 2h-4z"/>
		<path id="Path 39" class="s1" d="m564 404l2-3h1z"/>
		<path id="Path 40" class="s27" d="m578 403l3-2h3l2 8-6 2z"/>
		<path id="Path 41" class="s2" d="m663 402v-1h3l1 4z"/>
		<path id="Path 42" class="s28" d="m314 409l7-7 4 1-2 9-2 1-7-2z"/>
		<path id="Path 43" class="s29" d="m482 409l2-7h9l-1 8-8 2z"/>
		<path id="Path 44" class="s30" d="m631 403l4-1v7h-4z"/>
		<path id="Path 45" class="s31" d="m571 405l7-2 2 8-1 2h-10l-3-4 1-2 3-2z"/>
		<path id="Path 46" class="s32" d="m618 407l11-4h2v6h4l8 3v6l6 7v2l-5 2h-9-5l-1-4-2-4h-11z"/>
		<path id="Path 47" class="s1" d="m567 407h-5l2-3 6 1z"/>
		<path id="Path 48" class="s4" d="m438 407l-1-2 17 5-8-1h-1l-5-2z"/>
		<path id="Path 49" class="s23" d="m473 410l2-5v3 1z"/>
		<path id="Path 50" class="s4" d="m533 410l10-5-4 4-5 1z"/>
		<path id="Path 51" class="s6" d="m672 409l-5-4h4l3 5h-1z"/>
		<path id="Path 52" class="s9" d="m672 409h1v1h-1z"/>
		<path id="Path 53" class="s33" d="m434 409l1-2h3 2l5 2h1l1 1v4l-10 2-2-1z"/>
		<path id="Path 54" class="s34" d="m589 409l12-2 6 4-3 6h-8l-7-4z"/>
		<path id="Path 55" class="s35" d="m607 411l11-4-2 14-1 6-10-2-1-8z"/>
		<path id="Path 56" class="s36" d="m359 410l6-2 1 2-5 2z"/>
		<path id="Path 57" class="s1" d="m379 410l-2-2 7 2h-1-3z"/>
		<path id="Path 58" class="s37" d="m307 415l6-6h1v2l-7 5z"/>
		<path id="Path 59" class="s21" d="m380 410h3v1z"/>
		<path id="Path 60" class="s33" d="m411 411l4-2h4v6l-8 1z"/>
		<path id="Path 61" class="s38" d="m419 415v-6h15l1 6-12 2z"/>
		<path id="Path 62" class="s39" d="m447 410l-1-1 8 1v1z"/>
		<path id="Path 63" class="s31" d="m473 410l2-1-1 3-8 1-1-2z"/>
		<path id="Path 64" class="s40" d="m466 413l8-1 1-3h7l2 3 8-2h6l3 8 6 1v14l-4 1v3h-26l-10-2-1-18z"/>
		<path id="Path 65" class="s33" d="m498 410l5-1 7 2 15 2v6l-10-2-8 2-6-1z"/>
		<path id="Path 66" class="s41" d="m534 410l5-1-1 2h-4z"/>
		<path id="Path 67" class="s33" d="m547 411l7-2 1 2v4h-8z"/>
		<path id="Path 68" class="s42" d="m562 411v-2h4l3 4v2h-6z"/>
		<path id="Path 69" class="s43" d="m580 411l6-2h3v4 6l-4 1h-6v-7z"/>
		<path id="Path 70" class="s23" d="m347 413l9-3v1l-8 3z"/>
		<path id="Path 71" class="s44" d="m356 411l3-1 2 2v7l-3 2h-11v-6l1-1z"/>
		<path id="Path 72" class="s33" d="m361 412l5-2 9 2v3 12l-15 1-2-7 3-2z"/>
		<path id="Path 73" class="s29" d="m375 412l4-2h1l3 1v4h-8z"/>
		<path id="Path 74" class="s45" d="m383 411v-1h1 2l1 2-4 3z"/>
		<path id="Path 75" class="s46" d="m387 412l-1-2h6 12 4l-2 3z"/>
		<path id="Path 76" class="s44" d="m406 413l2-3h1l2 1v5h-2z"/>
		<path id="Path 77" class="s44" d="m447 414v-4l7 1h1v4z"/>
		<path id="Path 78" class="s23" d="m454 411v-1h19l-8 1h-10z"/>
		<path id="Path 79" class="s47" d="m510 411l2-1h4 10 7 1v1l-9 2z"/>
		<path id="Path 80" class="s9" d="m679 429l-4-6-10-1 8-12h1l24 16 4 2 2 2v3h-2l-13-1z"/>
		<path id="Path 81" class="s15" d="m698 426l-24-16 24 15z"/>
		<path id="Path 82" class="s42" d="m307 416l7-5 7 2 2 4v8l-4 4h-12-8l-8-8 5-1 9-1z"/>
		<path id="Path 83" class="s35" d="m455 415v-4h10l1 2v4h-9z"/>
		<path id="Path 84" class="s40" d="m525 413l9-2h4 9v4 10l8 4 2 6v2l-12-2-8-11-12-5z"/>
		<path id="Path 85" class="s40" d="m555 415v-4h7l1 4v4z"/>
		<path id="Path 86" class="s48" d="m321 413l2-1 1 3h6l-7 2z"/>
		<path id="Path 87" class="s49" d="m383 415l4-3 19 1 3 3-4 13h-11l-1 4h-4l-6-4z"/>
		<path id="Path 88" class="s2" d="m336 415l5-2v2z"/>
		<path id="Path 89" class="s12" d="m341 415v-2h6l1 1-1 1z"/>
		<path id="Path 90" class="s44" d="m569 415v-2h10v7 1h-8l-2-1z"/>
		<path id="Path 91" class="s50" d="m589 419v-6l7 4v2z"/>
		<path id="Path 92" class="s51" d="m437 416l10-2 8 1 2 2v22l-4 2-8-2v-7l-8-5z"/>
		<path id="Path 93" class="s26" d="m296 418l10-3h1v1l-2 3-9 1v-1z"/>
		<path id="Path 94" class="s36" d="m323 417l7-2h6 5 6v6 6l-7 2-9-2-8-2z"/>
		<path id="Path 95" class="s52" d="m375 427v-12h8v14l6 4v4h-4z"/>
		<path id="Path 96" class="s53" d="m411 416l8-1 4 2v14h-7l-3 4h-8v-6l4-13z"/>
		<path id="Path 97" class="s49" d="m423 417l12-2 2 1v11l8 5v7l-6 2-7-1-5-1v-5l-4-3z"/>
		<path id="Path 98" class="s54" d="m557 435l-2-6-8-4v-10h8l8 4 6 1 2 1-6 14z"/>
		<path id="Path 99" class="s33" d="m563 419v-4h6v5z"/>
		<path id="Path 100" class="s49" d="m457 439v-22h9l1 18-1 4z"/>
		<path id="Path 101" class="s53" d="m507 419l8-2 10 2 12 5 8 11v10l-3 4-7 2-4-6h-8v-5l-5-5h-7l-4-2z"/>
		<path id="Path 102" class="s43" d="m596 419v-2h8l1 8-9-3z"/>
		<path id="Path 103" class="s4" d="m288 420l8-2v1l-7 1z"/>
		<path id="Path 104" class="s19" d="m289 420l7-1v1l-5 1h-2z"/>
		<path id="Path 105" class="s51" d="m585 420l4-1h7v3l-7 7-4-2z"/>
		<path id="Path 106" class="s55" d="m278 421l5-1h5 1v1l-10 2-6 1h-2v-1l6-2z"/>
		<path id="Path 107" class="s38" d="m579 421v-1h6v7h-4z"/>
		<path id="Path 108" class="s6" d="m269 423l8-2-6 2z"/>
		<path id="Path 109" class="s40" d="m279 423l10-2h2l8 8-2 2h-15l-3-2z"/>
		<path id="Path 110" class="s51" d="m347 427v-6h11l2 7v2l-9 1z"/>
		<path id="Path 111" class="s56" d="m565 435l6-14h8l2 6h4l4 2 4 15-4 1-13-2z"/>
		<path id="Path 112" class="s57" d="m615 427l1-6h11l2 4-4 2 2 3v3h-4l-5-1z"/>
		<path id="Path 113" class="s58" d="m589 429l7-7 9 3 10 2 3 5 5 1v4 10l-12 2-4-6-10 2-4-1z"/>
		<path id="Path 114" class="s37" d="m258 426l11-3h2v1l-7 3-14 4 2-3h1z"/>
		<path id="Path 115" class="s56" d="m273 424l6-1v6l3 2-5 3-4-1z"/>
		<path id="Path 116" class="s49" d="m264 427l7-3h2v9l-5 1z"/>
		<path id="Path 117" class="s45" d="m319 429l4-4 8 2-2 13-6-3z"/>
		<path id="Path 118" class="s55" d="m627 430l-2-3 4-2 1 4z"/>
		<path id="Path 119" class="s46" d="m649 427v-2h6l2 6-6 1z"/>
		<path id="Path 120" class="s20" d="m698 426v-1l4 3z"/>
		<path id="Path 121" class="s52" d="m250 431l14-4 4 7v1l-12 4-9-7 1-1z"/>
		<path id="Path 122" class="s22" d="m329 440l2-13 9 2 7-2 4 4 2 12v2l-8 6h-4l-3-7h-6z"/>
		<path id="Path 123" class="s35" d="m360 428l15-1 10 10h4l3 4-1 6h-12l-2-4h-6l-8-1-3-12z"/>
		<path id="Path 124" class="s30" d="m644 429l5-2 2 5-5 2z"/>
		<path id="Path 125" class="s4" d="m248 430l4-2-2 3h-2z"/>
		<path id="Path 126" class="s59" d="m297 431l2-2h8v8h-5z"/>
		<path id="Path 127" class="s31" d="m307 437v-8h12l4 8 6 3 3 4v6l-4 3-7-2-8-2v-7z"/>
		<path id="Path 128" class="s57" d="m393 433l1-4h11v6l-9 2z"/>
		<path id="Path 129" class="s60" d="m627 430l3-1h5v7l-8-1v-2z"/>
		<path id="Path 130" class="s61" d="m635 436v-7h9l2 5 5-2 6-1h6v4l-4 1v7l-4 2-10-5-4-1z"/>
		<path id="Path 131" class="s47" d="m676 432l3-3 10 3v11l-1 1h-6z"/>
		<path id="Path 132" class="s20" d="m241 432l7-2v1l-1 1h-2z"/>
		<path id="Path 133" class="s62" d="m351 431l9-1 3 12-10 1z"/>
		<path id="Path 134" class="s15" d="m704 433v-3l7 1 1 4 9 5v1h-4l-6-4z"/>
		<path id="Path 135" class="s21" d="m879 435l16-5-2 3h-4z"/>
		<path id="Path 136" class="s63" d="m893 433l2-3h9l7 3-2 8-10-2z"/>
		<path id="Path 137" class="s8" d="m911 433l-7-3 10 1 3 4z"/>
		<path id="Path 138" class="s31" d="m277 434l5-3h15l5 6-11 13v4h-4l-1-4h-6l-3-9z"/>
		<path id="Path 139" class="s33" d="m413 435l3-4h7l4 3v5 2l-14-2z"/>
		<path id="Path 140" class="s31" d="m663 435v-4h5l-1 6z"/>
		<path id="Path 141" class="s61" d="m667 437l1-6 8 1 6 12h6l1 5v6l-12-2-2-3-8-1v-6z"/>
		<path id="Path 142" class="s17" d="m689 432l13 1-3 10h-6-4z"/>
		<path id="Path 143" class="s2" d="m233 436l8-4h4l-10 5h-2z"/>
		<path id="Path 144" class="s33" d="m235 437l10-5h2l9 7-5 12-12 5v6l-7 3h-9l-8 1v7h-5l-5-3-14 2-4-7v-6l10-5 4-2 4-1 8 2 13-2 6 3 3-3 2-6-4-3z"/>
		<path id="Path 145" class="s22" d="m268 434l5-1 4 1v7h-5l-4-6z"/>
		<path id="Path 146" class="s36" d="m389 437v-4h4l3 4 9-2h8v4l-7 5-14-3z"/>
		<path id="Path 147" class="s51" d="m503 437v-3l4-1 4 2v12h-8z"/>
		<path id="Path 148" class="s53" d="m623 437v-4h4v2z"/>
		<path id="Path 149" class="s18" d="m699 443l3-10h2l7 4-3 10h3l-2 3-10 1z"/>
		<path id="Path 150" class="s19" d="m879 435l10-2v6l-14 4-5-4 6-4z"/>
		<path id="Path 151" class="s5" d="m889 439v-6h4l6 6 10 2v5l8 5-1 14h-9v-4l-4-1-2-5h-4l-7-2-1-8z"/>
		<path id="Path 152" class="s9" d="m909 441l2-8 6 2 5 5v1l1 3v7h-6l-8-5z"/>
		<path id="Path 153" class="s61" d="m256 439l12-4 4 6h5l3 9-1 5h-7l-5 1v5h-4-13l-1 8-4 2h-2l-4-9v-6l12-5z"/>
		<path id="Path 154" class="s57" d="m466 439l1-4 10 2v6h-7z"/>
		<path id="Path 155" class="s60" d="m511 447v-12h7l5 5v5l-3 2z"/>
		<path id="Path 156" class="s51" d="m545 445v-10l12 2 6 7v7h-11z"/>
		<path id="Path 157" class="s52" d="m557 437v-2h8l11 8 13 2v6 4h-24l-2-4v-7z"/>
		<path id="Path 158" class="s54" d="m623 437l4-2 8 1 6 3v3l-2 9h-10l-2-4h-4z"/>
		<path id="Path 159" class="s62" d="m659 443v-7l4-1 4 2v6z"/>
		<path id="Path 160" class="s4" d="m864 440l12-5-6 4z"/>
		<path id="Path 161" class="s20" d="m922 440l-5-5 4 1z"/>
		<path id="Path 162" class="s12" d="m228 437l3-1h2v1l-7 5-21 9-4 1h-1v-2l6-2 2-2 6-5z"/>
		<path id="Path 163" class="s45" d="m226 442l7-5h2l-2 5-6 1z"/>
		<path id="Path 164" class="s22" d="m291 454v-4l11-13h5l6 5v7l-4 2v12h-7z"/>
		<path id="Path 165" class="s44" d="m477 443v-6h26v10h-8-16z"/>
		<path id="Path 166" class="s9" d="m711 447h-3l3-10 6 4v6z"/>
		<path id="Path 167" class="s22" d="m406 444l7-5 14 2 1 4-6 4-14-1z"/>
		<path id="Path 168" class="s31" d="m427 441v-2l5 1-1 5h-3z"/>
		<path id="Path 169" class="s61" d="m439 441l6-2 8 2v4h-7-4z"/>
		<path id="Path 170" class="s22" d="m453 441l4-2h9l4 4-1 4-12 1-4-3z"/>
		<path id="Path 171" class="s56" d="m641 442v-3l4 1z"/>
		<path id="Path 172" class="s64" d="m864 440l6-1 5 4v3l-12 3-1-8 1-1z"/>
		<path id="Path 173" class="s39" d="m875 443l14-4v6l-14 1z"/>
		<path id="Path 174" class="s47" d="m431 445l1-5 7 1 3 4-3 2z"/>
		<path id="Path 175" class="s65" d="m641 442l4-2 10 5 1 4-2 6h-5-6l-4-4z"/>
		<path id="Path 176" class="s14" d="m721 441v-1l6 6v1z"/>
		<path id="Path 177" class="s4" d="m856 443l7-3-1 1z"/>
		<path id="Path 178" class="s31" d="m391 447l1-6 14 3 2 4-5 7h-6v-5z"/>
		<path id="Path 179" class="s63" d="m717 447v-6h4l6 6 2 1 2 2 1 1 1 3h-2l-4-5h-4z"/>
		<path id="Path 180" class="s55" d="m856 443l6-2 1 8-5 1-3-5z"/>
		<path id="Path 181" class="s1" d="m923 444l-1-3 2 3z"/>
		<path id="Path 182" class="s36" d="m205 451l21-9 1 1-1 8-13 2z"/>
		<path id="Path 183" class="s40" d="m227 443l6-1 4 3-2 6-3 3-6-3z"/>
		<path id="Path 184" class="s47" d="m353 443l10-1 8 1v14l-4 3-2 9v16h-8l-9-16v-8l6-6-1-10z"/>
		<path id="Path 185" class="s31" d="m371 457v-14h6l2 4v8l-2 2z"/>
		<path id="Path 186" class="s47" d="m469 447l1-4h7l2 4v4h-10z"/>
		<path id="Path 187" class="s33" d="m597 445l10-2 4 6v5l-14-3z"/>
		<path id="Path 188" class="s49" d="m655 445l4-2h8v6h-11z"/>
		<path id="Path 189" class="s16" d="m688 444l1-1h4v6h-4z"/>
		<path id="Path 190" class="s28" d="m693 449v-6h6v8l-4 1z"/>
		<path id="Path 191" class="s26" d="m851 445l5-2-1 2z"/>
		<path id="Path 192" class="s46" d="m328 453l4-3v-6h6l3 7h4v8l3 2v8l9 16v2h-6l-1-6-5-1-1-3h-7l-7-1-5-6 1-9z"/>
		<path id="Path 193" class="s53" d="m589 445l4-1 4 1v6h-2-6z"/>
		<path id="Path 194" class="s4" d="m923 451v-7h1v26h-1v-3z"/>
		<path id="Path 195" class="s66" d="m345 451l8-6 1 10-6 6-3-2z"/>
		<path id="Path 196" class="s67" d="m408 448l14 1 6-4h3l8 2v4l1 4h5l1-4v-6h7l4 3v11l4 1 1 6v7l-11 8-6-2-1-5-5 1h-8l-8-2v-8l1-8h-8l-1 6h-4-6l-2-8z"/>
		<path id="Path 197" class="s46" d="m439 447l3-2h4v6h-7z"/>
		<path id="Path 198" class="s22" d="m520 447l3-2h8l4 6v5l-6 1-3-1-6-5z"/>
		<path id="Path 199" class="s42" d="m542 449l3-4 7 6-3 2z"/>
		<path id="Path 200" class="s4" d="m843 448l4-3v2z"/>
		<path id="Path 201" class="s26" d="m847 447v-2h3z"/>
		<path id="Path 202" class="s68" d="m847 447l3-2h1 4l3 5 5-1 12-3 14-1 1 8 1 6v8h-12l-2-4h-9l-1 4h-5l-6-9-11-2-2-7v-1z"/>
		<path id="Path 203" class="s4" d="m727 447v-1l2 2z"/>
		<path id="Path 204" class="s22" d="m379 455v-8h12l6 3v5 10 10l4 3v5l-10 8-9 4-9-2-4-1v-5l-4-2v-16l2-9 4-3h6l2 14v8l7 2 1-10-3-2-1-12z"/>
		<path id="Path 205" class="s46" d="m457 448l12-1v4 4l-8 5-4-1z"/>
		<path id="Path 206" class="s16" d="m479 451v-4h16v17h-4l-2-3h-7v-7z"/>
		<path id="Path 207" class="s31" d="m495 464v-17h8 8 9v4l-3 1v6l8 1 4 2v6l6 2 2 4h5l1 8h-6l-10-2-9-1v6l7 3v6l-2 12 1 14h-3l-6-6-3-10 5-3-2-7h-7l-3 6h-4l-4-2v-4l8-2-2-8-6-2v-8l1-7z"/>
		<path id="Path 208" class="s40" d="m611 449l12-2h4l2 4h10l4 4v7l-18 1-10-1-4-8z"/>
		<path id="Path 209" class="s22" d="m709 450l2-3h6l6 2v8l-4 2v4l-8-3z"/>
		<path id="Path 210" class="s0" d="m838 450l5-2v1z"/>
		<path id="Path 211" class="s69" d="m309 463v-12l4-2 8 2v6l5 4-1 9-8-1h-8z"/>
		<path id="Path 212" class="s25" d="m535 451l7-2 7 4v6h-5l-2 4h-3v-5l-4-2z"/>
		<path id="Path 213" class="s40" d="m654 455l2-6h11l8 1 2 3v18h-4l-1 4h-3l-8-3-6-3v-8z"/>
		<path id="Path 214" class="s57" d="m689 455v-6h4l2 3v5z"/>
		<path id="Path 215" class="s70" d="m723 457v-8h4l4 5-1 3z"/>
		<path id="Path 216" class="s66" d="m838 450l5-1 2 7-3 4-9 1-10 1h-2l-2-5 1-2 8-2 8-3z"/>
		<path id="Path 217" class="s0" d="m191 455l9-5v2l-3 2z"/>
		<path id="Path 218" class="s45" d="m279 455l1-5h6l1 4z"/>
		<path id="Path 219" class="s44" d="m699 451l10-1 2 10h-6l-10-1v-2-5z"/>
		<path id="Path 220" class="s66" d="m326 461l-5-4v-6l7 2z"/>
		<path id="Path 221" class="s71" d="m446 451l-1 4h-5l-1-4z"/>
		<path id="Path 222" class="s11" d="m469 455v-4h10l3 3v7l-1 2-6-1z"/>
		<path id="Path 223" class="s18" d="m525 459l-8-1v-6l3-1 6 5z"/>
		<path id="Path 224" class="s22" d="m549 453l3-2h11l2 4h24l3 4 1 6v2h-7l-1-4h-6l-6-3-22-1h-2z"/>
		<path id="Path 225" class="s44" d="m589 455v-4h6v6l-3 2z"/>
		<path id="Path 226" class="s57" d="m592 459l3-2v-6h2l14 3 4 8-3 1-9 2h-10z"/>
		<path id="Path 227" class="s4" d="m733 454l-1-3 2 4z"/>
		<path id="Path 228" class="s3" d="m916 465l1-14h6v16h-7z"/>
		<path id="Path 229" class="s16" d="m197 454l3-2h1z"/>
		<path id="Path 230" class="s38" d="m677 471v-18l12 2 6 2v2 12l-5 4h-8l-5-3z"/>
		<path id="Path 231" class="s72" d="m891 459l-1-6 7 2z"/>
		<path id="Path 232" class="s16" d="m191 455l6-1-10 5h-2l1-2 4-2z"/>
		<path id="Path 233" class="s43" d="m279 455l8-1h4l11 9 1 12-4 1v9h-2-10l-5-10-9-2-2-10 1-8z"/>
		<path id="Path 234" class="s18" d="m723 457h7l1-3h2l1 1 1 7v5l-4-1-12-3v-4z"/>
		<path id="Path 235" class="s4" d="m181 458l9-3-4 2z"/>
		<path id="Path 236" class="s62" d="m267 461v-5l5-1-1 8z"/>
		<path id="Path 237" class="s66" d="m377 457l2-2 4 2 1 12-5 2z"/>
		<path id="Path 238" class="s71" d="m397 465v-10h6l2 8v2z"/>
		<path id="Path 239" class="s18" d="m461 460l8-5 6 7-2 3-11 1z"/>
		<path id="Path 240" class="s53" d="m643 462v-7h6v6l-4 1z"/>
		<path id="Path 241" class="s56" d="m649 461v-6h5l1 6z"/>
		<path id="Path 242" class="s73" d="m735 462l-1-7 2 7z"/>
		<path id="Path 243" class="s23" d="m806 460l5-4 9-1-1 2-7 2-5 1z"/>
		<path id="Path 244" class="s48" d="m891 459l6-4h4l2 5 4 1v4l2 6v12h-8l-10-2v-14z"/>
		<path id="Path 245" class="s17" d="m525 459l1-3 3 1v4z"/>
		<path id="Path 246" class="s67" d="m529 457l6-1 4 2v5l-4 6-6-2v-6z"/>
		<path id="Path 247" class="s74" d="m842 460l3-4 11 2 6 9v2h-14v-4z"/>
		<path id="Path 248" class="s10" d="m181 458l5-1-1 2-6 3-10 4-6 2v-2l1-1h2l2-2z"/>
		<path id="Path 249" class="s48" d="m415 463l1-6h8l-1 8z"/>
		<path id="Path 250" class="s47" d="m812 459l7-2 2 5-6 3h-2z"/>
		<path id="Path 251" class="s29" d="m179 462l6-3h2v6h-4z"/>
		<path id="Path 252" class="s16" d="m542 463l2-4h5 2v9 1h-6z"/>
		<path id="Path 253" class="s17" d="m551 468v-9l22 1 6 3v8 6l-4 3h-4l-6-7h-4l-4-5z"/>
		<path id="Path 254" class="s54" d="m695 471v-12l10 1-2 11z"/>
		<path id="Path 255" class="s28" d="m807 460l5-1 1 6h-6z"/>
		<path id="Path 256" class="s40" d="m703 471l2-11h6l8 3 12 3v13l-4 1-4-1-20-4z"/>
		<path id="Path 257" class="s31" d="m796 463l9-3h1 1v5l-2 6-9-2-4-2z"/>
		<path id="Path 258" class="s34" d="m833 461l9-1 6 5v4l-3 2v6l-4 3-8-3z"/>
		<path id="Path 259" class="s57" d="m249 469l1-8h13v5l-3 2-7 2z"/>
		<path id="Path 260" class="s36" d="m263 466v-5h4l4 2 2 10-1 1-7 1-2-4 3-1z"/>
		<path id="Path 261" class="s70" d="m481 463l1-2h7l2 3v1h-10z"/>
		<path id="Path 262" class="s38" d="m645 462l4-1h6v8l-4 1z"/>
		<path id="Path 263" class="s32" d="m823 462l10-1v16l-7 1-5-5z"/>
		<path id="Path 264" class="s33" d="m169 466l10-4 4 3-2 11-10-1z"/>
		<path id="Path 265" class="s29" d="m232 465l7-3 4 9-3 3-7 3-3-2z"/>
		<path id="Path 266" class="s28" d="m473 465l2-3 6 1v2l-1 2h-6z"/>
		<path id="Path 267" class="s59" d="m612 463l3-1 10 1v6h-12z"/>
		<path id="Path 268" class="s42" d="m625 463l18-1h2l6 8v3h-9-3l-14-4z"/>
		<path id="Path 269" class="s24" d="m735 467v-5h1v4h4v1h-4z"/>
		<path id="Path 270" class="s69" d="m815 465l6-3h2l-2 11h-6z"/>
		<path id="Path 271" class="s75" d="m303 475l-1-12h7v6l-3 6z"/>
		<path id="Path 272" class="s69" d="m405 465v-2h6v7h-4z"/>
		<path id="Path 273" class="s66" d="m411 470v-7h4l8 2v8h-9z"/>
		<path id="Path 274" class="s70" d="m535 469l4-6h3l3 6-3 4h-5z"/>
		<path id="Path 275" class="s67" d="m579 471v-8h6l1 4-1 4z"/>
		<path id="Path 276" class="s31" d="m603 465l9-2 1 6v2h-4l-6-2z"/>
		<path id="Path 277" class="s76" d="m787 465l9-2-4 4-10 2 1-2z"/>
		<path id="Path 278" class="s66" d="m867 467l1-4h9l2 4h12v14 7l-14 1h-6l-1-4 2-5-5-1v-4l2-1z"/>
		<path id="Path 279" class="s67" d="m491 465v-1h4l3 2-1 7h-6z"/>
		<path id="Path 280" class="s36" d="m181 476l2-11h4l4 7 2 13h-4l-6-5z"/>
		<path id="Path 281" class="s44" d="m215 473v-7l8-1-1 7-1 1h-5z"/>
		<path id="Path 282" class="s22" d="m222 472l1-7h9l-2 10h-5z"/>
		<path id="Path 283" class="s46" d="m391 491l10-8v-5l-4-3v-10h8l2 5h4l3 3 2 5-1 7-9 5-8 5v3h-6z"/>
		<path id="Path 284" class="s47" d="m462 466l11-1 1 2v8l5 4h6l2 8 2 15-10 1-7-7-1-8-9-15z"/>
		<path id="Path 285" class="s31" d="m480 467l1-2h10v8h-6z"/>
		<path id="Path 286" class="s70" d="m593 467v-2h10v4l-4 2h-5z"/>
		<path id="Path 287" class="s4" d="m778 468l9-3-4 2z"/>
		<path id="Path 288" class="s17" d="m805 471l2-6h6 2v8h-3l-7-1z"/>
		<path id="Path 289" class="s7" d="m909 471l-2-6h9v2z"/>
		<path id="Path 290" class="s0" d="m146 475l3-4 14-5v2l-13 6z"/>
		<path id="Path 291" class="s36" d="m163 468l6-2 2 9-3 3-7 11-1 5-5 7-4-3v-8h-3l-3-5v-7l5-4z"/>
		<path id="Path 292" class="s30" d="m260 468l3-2 3 4-3 1z"/>
		<path id="Path 293" class="s33" d="m731 479v-13l4 1h1l5 2v8l-6 2z"/>
		<path id="Path 294" class="s4" d="m740 467v-1l6 2h-1z"/>
		<path id="Path 295" class="s67" d="m485 479h-6l-5-4v-8h6l5 6z"/>
		<path id="Path 296" class="s16" d="m585 471l1-4h7l1 4-1 7-4 1-4-1z"/>
		<path id="Path 297" class="s55" d="m741 469l-5-2h4l5 1v1z"/>
		<path id="Path 298" class="s41" d="m778 468l5-1-1 2-4 2h-6v-1z"/>
		<path id="Path 299" class="s40" d="m782 469l10-2 4 2v6l-9 1h-8l-1-5z"/>
		<path id="Path 300" class="s77" d="m862 469v-2h5l2 7-2 1-5-2z"/>
		<path id="Path 301" class="s63" d="m909 471l7-4h7v3l-1 6v5 7l-5-4h-8v-1z"/>
		<path id="Path 302" class="s31" d="m253 470l7-2 3 3 2 4v6h-14l-4-4v-2h8z"/>
		<path id="Path 303" class="s67" d="m551 469v-1h6l4 5v10h-3l-7-4z"/>
		<path id="Path 304" class="s24" d="m745 469v-1h1 6v1h-4z"/>
		<path id="Path 305" class="s1" d="m752 469v-1l4 2h-1z"/>
		<path id="Path 306" class="s4" d="m771 470l7-2-6 2z"/>
		<path id="Path 307" class="s48" d="m245 471l4-2 4 1 2 5h-8z"/>
		<path id="Path 308" class="s74" d="m303 475h3l3-6h8l2 12v9h-2l-2-3h-6-8l-2-2v-9z"/>
		<path id="Path 309" class="s44" d="m319 481l-2-12 8 1 5 6-1 5z"/>
		<path id="Path 310" class="s46" d="m379 471l5-2 3 2-1 10-7-2z"/>
		<path id="Path 311" class="s46" d="m542 473l3-4h6v10l7 4-6 7-9-9z"/>
		<path id="Path 312" class="s28" d="m599 471l4-2 6 2 1 7-1 5h-7l-3-4z"/>
		<path id="Path 313" class="s28" d="m613 471v-2h12l14 4v6h3v-6h9l6 3v4l-4 2-9-1-1 8-4 2h-12l-6-2-1-10-5-1z"/>
		<path id="Path 314" class="s25" d="m651 470l4-1 6 3-4 4-6-3z"/>
		<path id="Path 315" class="s53" d="m741 477v-8h4 3l2 2v8z"/>
		<path id="Path 316" class="s64" d="m750 471l-2-2h4l3 1z"/>
		<path id="Path 317" class="s44" d="m796 475v-6l9 2v1l-2 5z"/>
		<path id="Path 318" class="s50" d="m845 477v-6l3-2h14v4l5 2v4l3 6 1 4h6l2 11-3 5h-1-5-7v-10l-5-2-2-14z"/>
		<path id="Path 319" class="s70" d="m191 472l14-2 5 3-3 3 2 14-11-1-5-4z"/>
		<path id="Path 320" class="s40" d="m750 471l5-1h1 1l8 2v5l-12 2h-3z"/>
		<path id="Path 321" class="s30" d="m765 472l-8-2h14 1v1l-1 1z"/>
		<path id="Path 322" class="s6" d="m922 476l1-6h1z"/>
		<path id="Path 323" class="s17" d="m240 474l3-3h2l2 4v2l-4 1z"/>
		<path id="Path 324" class="s28" d="m579 477v-6h6v7h-3z"/>
		<path id="Path 325" class="s11" d="m593 478l1-7h5v8h-2z"/>
		<path id="Path 326" class="s11" d="m610 478l-1-7h4l2 7z"/>
		<path id="Path 327" class="s33" d="m672 475l1-4h4v1z"/>
		<path id="Path 328" class="s52" d="m690 475l5-4h8v4l-1 2-7 1z"/>
		<path id="Path 329" class="s56" d="m771 472l1-1h6l1 5-3 3-5-1z"/>
		<path id="Path 330" class="s18" d="m221 473l1-1 3 3-1 1z"/>
		<path id="Path 331" class="s70" d="m657 476l4-4 8 3v3h-4l-2 4-5 1-1-3z"/>
		<path id="Path 332" class="s25" d="m672 475l5-3 5 3v3l-5 2v7l-2 2h-8v-6l2-5v-3z"/>
		<path id="Path 333" class="s29" d="m765 477v-5h6v6z"/>
		<path id="Path 334" class="s42" d="m803 477l2-5 7 1-3 7 5 4v4l-9 1v-8z"/>
		<path id="Path 335" class="s69" d="m209 490l-2-14 3-3h5 1l-1 14-6 4z"/>
		<path id="Path 336" class="s66" d="m215 487l1-14h5l3 3-1 9-2 4v1h-2z"/>
		<path id="Path 337" class="s28" d="m272 474l1-1 9 2 5 10-5-3-7 1z"/>
		<path id="Path 338" class="s41" d="m416 478l-2-5h9v5z"/>
		<path id="Path 339" class="s48" d="m423 478v-5l8 2-1 9-5-1z"/>
		<path id="Path 340" class="s46" d="m451 481l11-8 9 15 1 8-4 1-1 6h-6l-4-3h-4l-2-9v-6z"/>
		<path id="Path 341" class="s30" d="m485 479v-6h6 6v8l-5 6h-5z"/>
		<path id="Path 342" class="s66" d="m561 483v-10h4l6 7-2 3z"/>
		<path id="Path 343" class="s18" d="m642 473v6h-3v-6z"/>
		<path id="Path 344" class="s31" d="m814 488v-4l-5-4 3-7h3 6l5 5v9l-6 2h-5z"/>
		<path id="Path 345" class="s37" d="m146 475l4-1-5 4-8 2 1-2h1l3-2z"/>
		<path id="Path 346" class="s16" d="m233 477l7-3 3 4v5l4 1v9 2h-11l-3-3v-7z"/>
		<path id="Path 347" class="s16" d="m265 475l7-1 3 9-5 3-5-5z"/>
		<path id="Path 348" class="s48" d="m439 475l5-1 1 5 1 6-1 2-5-3z"/>
		<path id="Path 349" class="s67" d="m168 478l3-3 10 1 2 4-2 4-6 1z"/>
		<path id="Path 350" class="s28" d="m224 476l1-1h5l3 2v8h-10z"/>
		<path id="Path 351" class="s69" d="m425 483l5 1 1-9h8l1 9 5 3v4l-2 2-6 1v5l-5 2v11l-6 1h-5l-4-2 1-7-3-1v-7h-8l-1-6 9-5z"/>
		<path id="Path 352" class="s70" d="m682 478v-3h8l5 3-2 5h-8v-4z"/>
		<path id="Path 353" class="s61" d="m702 477l1-2 20 4-4 1-8 1-8-2z"/>
		<path id="Path 354" class="s31" d="m787 476l9-1 7 2 2 4-12 2h-6z"/>
		<path id="Path 355" class="s35" d="m319 481h10l1-5 7 1v18h-5l-1 4h-4v-5l-8-4z"/>
		<path id="Path 356" class="s70" d="m771 478l5 1 3-3h8v7 6l-3 5-7 2v5l-10-1-3-3-1-6h-8l-2-1v-11l12-2z"/>
		<path id="Path 357" class="s42" d="m243 478l4-1 4 4-4 3-4-1z"/>
		<path id="Path 358" class="s57" d="m337 495v-18h7l1 3-2 9-2 9h-3z"/>
		<path id="Path 359" class="s68" d="m525 487l-7-3v-6l9 1v8z"/>
		<path id="Path 360" class="s48" d="m575 480l4-3 3 1v7h-7z"/>
		<path id="Path 361" class="s18" d="m695 478l7-1 1 2-4 5-6-1z"/>
		<path id="Path 362" class="s25" d="m735 479l6-2 9 2h3v11h-8l-6-2v-5z"/>
		<path id="Path 363" class="s44" d="m826 478l7-1 8 3v15l-4 2h-8l-3-10z"/>
		<path id="Path 364" class="s49" d="m841 480l4-3 11 2 2 14-1 12 1 11h-3l-6-3-2-15-6-3z"/>
		<path id="Path 365" class="s73" d="m136 480l2-2-1 2z"/>
		<path id="Path 366" class="s42" d="m137 480l8-2v7l-12-1v-2l2-2h1z"/>
		<path id="Path 367" class="s70" d="m161 489l7-11 7 7 1 4z"/>
		<path id="Path 368" class="s72" d="m415 485l1-7h7l2 5z"/>
		<path id="Path 369" class="s47" d="m582 485v-7h3l4 1-1 8h-1z"/>
		<path id="Path 370" class="s66" d="m589 479l4-1 4 1v8h-9z"/>
		<path id="Path 371" class="s31" d="m609 483l1-5h5l5 1 1 10h-4l-8-2z"/>
		<path id="Path 372" class="s46" d="m663 482l2-4h4l-2 5z"/>
		<path id="Path 373" class="s11" d="m677 487v-7l5-2 3 1v4l-3 4z"/>
		<path id="Path 374" class="s47" d="m446 485l-1-6 6 2v4z"/>
		<path id="Path 375" class="s55" d="m527 487v-8l10 2v7l8 6-1 5h-4l-7-10h-4z"/>
		<path id="Path 376" class="s31" d="m597 487v-8h2l3 4-2 4z"/>
		<path id="Path 377" class="s17" d="m699 484l4-5 8 2v13h-4l-5-2z"/>
		<path id="Path 378" class="s16" d="m719 480l4-1 4 1v10h-5z"/>
		<path id="Path 379" class="s28" d="m727 480l4-1h4l4 4v5l6 2v5h-9l-1-3h-5l-3-2z"/>
		<path id="Path 380" class="s74" d="m870 485l-3-6 5 1z"/>
		<path id="Path 381" class="s73" d="m129 483l6-3-2 2h-1z"/>
		<path id="Path 382" class="s28" d="m181 484l2-4 6 5v10l-2 4-6-8z"/>
		<path id="Path 383" class="s31" d="m343 489l2-9 5 1 1 6-2 2z"/>
		<path id="Path 384" class="s69" d="m569 483l2-3h4v5h-6z"/>
		<path id="Path 385" class="s11" d="m653 482l4-2 1 3-5 2z"/>
		<path id="Path 386" class="s18" d="m711 481l8-1 3 10v4l-8 3-3-3z"/>
		<path id="Path 387" class="s28" d="m247 484l4-3h14l5 5v2l-9 6-10-1h-4z"/>
		<path id="Path 388" class="s22" d="m492 487l5-6 6 2 2 8-8 2z"/>
		<path id="Path 389" class="s30" d="m529 489h4l7 10h4l1-5-8-6v-7h6l9 9 3 8v1h-6l-1 5h-3l-2-3h-5l-1 3h-6l-2-11z"/>
		<path id="Path 390" class="s16" d="m643 489l1-8 9 1v3 5h-2-4z"/>
		<path id="Path 391" class="s52" d="m793 483l12-2v8h-2-10z"/>
		<path id="Path 392" class="s30" d="m891 488v-7l10 2v6h-8z"/>
		<path id="Path 393" class="s6" d="m922 488v-7 5l4 2v4h-1l-2-3z"/>
		<path id="Path 394" class="s12" d="m129 483l3-1-1 2-2 1-6 3v-2z"/>
		<path id="Path 395" class="s22" d="m131 484l1-2h1v2z"/>
		<path id="Path 396" class="s78" d="m275 483l7-1 5 3v2l-10 6h-6l-1-5v-2z"/>
		<path id="Path 397" class="s69" d="m658 483l5-1 4 1v6l-1 4-6 2h-3l-4-5v-5z"/>
		<path id="Path 398" class="s68" d="m552 490l6-7h3 8v2l-2 12-2 10h-3l-7-9z"/>
		<path id="Path 399" class="s32" d="m600 487l2-4h7v4l-2 2h-7z"/>
		<path id="Path 400" class="s31" d="m682 487l3-4h8l6 1 3 8 5 2v7l-1 3h-4l-4-5h-9l-6-2h-2z"/>
		<path id="Path 401" class="s29" d="m787 489v-6h6v6z"/>
		<path id="Path 402" class="s47" d="m901 489v-6h8v1 7 2h-6z"/>
		<path id="Path 403" class="s33" d="m129 485l2-1h2l12 1 3 5-1 8 8 15v5h-5l-8-6-13-12z"/>
		<path id="Path 404" class="s48" d="m175 485l6-1v7h-4l-1-2z"/>
		<path id="Path 405" class="s28" d="m909 491v-7h8l5 4 1 1v2z"/>
		<path id="Path 406" class="s29" d="m123 488l6-3v15l13 12h-3l2 10-4 3h-4l-2-5h-4l-7-7-3-9-5-6 6-7z"/>
		<path id="Path 407" class="s29" d="m189 495v-10h4l5 4-1 8z"/>
		<path id="Path 408" class="s31" d="m221 489l2-4h10v7h-8z"/>
		<path id="Path 409" class="s45" d="m287 487v-2h10l-4 8-1 2-5-1z"/>
		<path id="Path 410" class="s32" d="m293 493l4-8h2l2 2-2 7z"/>
		<path id="Path 411" class="s30" d="m357 487v-2h8l4 2v5l-2 3h-10z"/>
		<path id="Path 412" class="s67" d="m445 487l1-2h5v6h-6z"/>
		<path id="Path 413" class="s13" d="m567 497l2-12h6 7l5 2-1 8-10-2-3 4z"/>
		<path id="Path 414" class="s0" d="m116 490l7-4v2l-5 3h-2z"/>
		<path id="Path 415" class="s39" d="m209 491l6-4 4 3-2 5h-8l-1-2z"/>
		<path id="Path 416" class="s55" d="m277 493l10-6v7l-4 6h-5z"/>
		<path id="Path 417" class="s79" d="m299 494l2-7h8l-1 8h-9z"/>
		<path id="Path 418" class="s80" d="m308 495l1-8h6l2 3v4l-3 1v4h-3z"/>
		<path id="Path 419" class="s32" d="m349 489l2-2h6v8l-4 1z"/>
		<path id="Path 420" class="s25" d="m489 502l-2-15h5l5 6v4l-4 5z"/>
		<path id="Path 421" class="s74" d="m525 493v-6h2l2 2v4z"/>
		<path id="Path 422" class="s68" d="m586 495l1-8h1 9 3v2l-3 10h-8z"/>
		<path id="Path 423" class="s5" d="m607 489l2-2 8 2v8l-2 2h-6z"/>
		<path id="Path 424" class="s66" d="m675 489l2-2h5l-1 10h-3l-2-3z"/>
		<path id="Path 425" class="s70" d="m820 489l6-2 3 10v10l-2 2h-6l-3-4 1-10z"/>
		<path id="Path 426" class="s64" d="m261 494l9-6 1 5h6l1 7h-1-10l-4-1z"/>
		<path id="Path 427" class="s59" d="m805 489l9-1 1 1v6l-4 1-6-2-2-5z"/>
		<path id="Path 428" class="s75" d="m877 489l14-1 2 1v10l-8 1h-6z"/>
		<path id="Path 429" class="s16" d="m160 494l1-5h15l1 2v4h-12z"/>
		<path id="Path 430" class="s28" d="m197 497l1-8 11 1v1l-1 2-4 1-2 8-4 3h-2z"/>
		<path id="Path 431" class="s36" d="m221 490v-1l4 3v3h-3z"/>
		<path id="Path 432" class="s74" d="m341 498l2-9h6l4 7 1 5-3 4h-10z"/>
		<path id="Path 433" class="s64" d="m597 499l3-10h7l2 10z"/>
		<path id="Path 434" class="s64" d="m617 497v-8h4l6 2-1 3-5 3z"/>
		<path id="Path 435" class="s64" d="m639 491l4-2 4 1-5 7h-3z"/>
		<path id="Path 436" class="s32" d="m666 493l1-4h8l1 5-7 1z"/>
		<path id="Path 437" class="s16" d="m777 501v-5l7-2 3-5h6 10l2 5 6 2v7h-8l-6-1-2 3-14-1z"/>
		<path id="Path 438" class="s16" d="m815 495v-6h5l-1 6z"/>
		<path id="Path 439" class="s81" d="m893 499v-10h8l2 4v5z"/>
		<path id="Path 440" class="s71" d="m923 491v-2l2 3h-2z"/>
		<path id="Path 441" class="s20" d="m113 493l3-3v1z"/>
		<path id="Path 442" class="s82" d="m155 513l-8-15 1-8h3v8l4 3 7 8h-6v4z"/>
		<path id="Path 443" class="s22" d="m217 495l2-5h2l1 5h3v-3h8l3 3-1 4v2l-5 2v4h-13v-1z"/>
		<path id="Path 444" class="s43" d="m317 494v-4h2l8 4v5l-2 3-4-1z"/>
		<path id="Path 445" class="s30" d="m398 498v-3l8-5 1 6-2 7h-4z"/>
		<path id="Path 446" class="s46" d="m642 497l5-7h4l-1 9-3 2z"/>
		<path id="Path 447" class="s30" d="m650 499l1-9h2l4 5z"/>
		<path id="Path 448" class="s69" d="m722 494v-4h5l3 2v2z"/>
		<path id="Path 449" class="s18" d="m745 495v-5h8l2 1v4l-2 1z"/>
		<path id="Path 450" class="s46" d="m113 493l3-2h2l-6 7-3 1-8 4v4l-3 4v-1-5l3-5 2-1 8-4z"/>
		<path id="Path 451" class="s83" d="m177 495v-4h4l6 8-1 8-4 4-5-3v-10z"/>
		<path id="Path 452" class="s80" d="m382 495l9-4 1 7h6l3 5v8l-15-2-3-6z"/>
		<path id="Path 453" class="s31" d="m443 493l2-2h6l2 9-2 1h-8z"/>
		<path id="Path 454" class="s46" d="m626 494l1-3h12v6l-10 4z"/>
		<path id="Path 455" class="s28" d="m755 495v-4h8l1 6h-5z"/>
		<path id="Path 456" class="s11" d="m909 493v-2h14v1l-2 8-7 1-5-3z"/>
		<path id="Path 457" class="s60" d="m367 495l2-3 4 1v4h-6z"/>
		<path id="Path 458" class="s18" d="m730 494v-2h5l1 3-2 2z"/>
		<path id="Path 459" class="s15" d="m921 500l2-8h2l-1 4-2 9h-1z"/>
		<path id="Path 460" class="s1" d="m924 496l1-4h1v4z"/>
		<path id="Path 461" class="s3" d="m202 502l2-8 4-1 1 2v6l-6 1z"/>
		<path id="Path 462" class="s34" d="m247 495v-2h4v4h-2z"/>
		<path id="Path 463" class="s30" d="m251 497v-4l10 1 2 5 4 1-2 9h-5l-1-5z"/>
		<path id="Path 464" class="s41" d="m292 495l1-2 6 1v1 7l-3 2-5-2z"/>
		<path id="Path 465" class="s35" d="m373 497v-4l9 2 1 8-4 1z"/>
		<path id="Path 466" class="s62" d="m437 499v-5l6-1v8l-3 2z"/>
		<path id="Path 467" class="s66" d="m505 499l3-6h7l2 7-5 3z"/>
		<path id="Path 468" class="s48" d="m523 505l2-12h4l2 11-3 1z"/>
		<path id="Path 469" class="s46" d="m573 497l3-4 10 2 3 4-4 5-7 11v2l-6-2-1-8z"/>
		<path id="Path 470" class="s36" d="m660 495l6-2 3 2v4l-2 6-4 1v-8z"/>
		<path id="Path 471" class="s60" d="m857 505l1-12 5 2v10z"/>
		<path id="Path 472" class="s67" d="m903 498v-5h6v5h-4z"/>
		<path id="Path 473" class="s54" d="m155 501l5-7 5 1 1 10-2 4h-2z"/>
		<path id="Path 474" class="s62" d="m283 500l4-6 5 1-1 7-4 7h-5v-2z"/>
		<path id="Path 475" class="s62" d="m314 499v-4l3-1 4 7h-4z"/>
		<path id="Path 476" class="s62" d="m621 497l5-3 3 7 10-4h3l5 4v6l-3 3-14-1-2 5-5-1-2-10z"/>
		<path id="Path 477" class="s51" d="m669 495l7-1 2 3-1 6-8-4z"/>
		<path id="Path 478" class="s35" d="m707 501v-7h4l3 3v3z"/>
		<path id="Path 479" class="s81" d="m714 497l8-3 3 8-11-2z"/>
		<path id="Path 480" class="s33" d="m725 502l-3-8h8l4 3v5l-1 1z"/>
		<path id="Path 481" class="s4" d="m103 498l8-3-8 4z"/>
		<path id="Path 482" class="s65" d="m166 505l-1-10h12v3l-4 7z"/>
		<path id="Path 483" class="s33" d="m187 499l2-4 8 2-1 8-2 2h-8z"/>
		<path id="Path 484" class="s7" d="m209 501v-6h8v11z"/>
		<path id="Path 485" class="s72" d="m235 499l1-4h11l2 2v10h-6l-1-2v-6z"/>
		<path id="Path 486" class="s84" d="m299 502v-7h9l3 4v8l-2 2h-2l-4-7z"/>
		<path id="Path 487" class="s85" d="m331 499l1-4h5l1 3-5 5h-2z"/>
		<path id="Path 488" class="s82" d="m353 496l4-1h10v2l-2 8-11-4z"/>
		<path id="Path 489" class="s56" d="m650 499l7-4h3l3 3v8l-4 3-4 6h-4l-4-8v-6z"/>
		<path id="Path 490" class="s42" d="m734 497l2-2h9l8 1v4l-4 9h-4l-9-4-2-3z"/>
		<path id="Path 491" class="s59" d="m753 496l2-1 4 2-1 3h-5z"/>
		<path id="Path 492" class="s28" d="m811 496l4-1h4l-1 10h-2l-5-2z"/>
		<path id="Path 493" class="s52" d="m837 497l4-2 6 3 2 15 6 3v4l-2 9-7-1-9-21z"/>
		<path id="Path 494" class="s48" d="m405 503l2-7h8v7z"/>
		<path id="Path 495" class="s9" d="m467 503l1-6 4-1 7 7v9l-1 3h-7z"/>
		<path id="Path 496" class="s79" d="m249 507v-10h2l8 7 1 5 2 4v9 3h-10l-3 3-5-2-2 1-3 1-1-5-1-11-7-2v-3-4l5-2 2 4h5l1 2 1 7 5 1 2-2z"/>
		<path id="Path 497" class="s86" d="m365 505l2-8h6l6 7v7h-12-2z"/>
		<path id="Path 498" class="s22" d="m493 502l4-5 4 2-2 6z"/>
		<path id="Path 499" class="s28" d="m565 507l2-10h6l-2 10z"/>
		<path id="Path 500" class="s47" d="m615 499l2-2h4v6h-5z"/>
		<path id="Path 501" class="s49" d="m677 503l1-6h3 2v8h-4z"/>
		<path id="Path 502" class="s38" d="m683 505v-8l6 2-2 6z"/>
		<path id="Path 503" class="s57" d="m758 500l1-3h5l3 3v4h-6z"/>
		<path id="Path 504" class="s45" d="m829 507v-10h8v10z"/>
		<path id="Path 505" class="s20" d="m101 500l2-2v1z"/>
		<path id="Path 506" class="s33" d="m109 499l3-1 5 6-8-1z"/>
		<path id="Path 507" class="s85" d="m173 505l4-7v10l5 3-2 2h-4z"/>
		<path id="Path 508" class="s27" d="m333 503l5-5h3v7z"/>
		<path id="Path 509" class="s69" d="m555 499v-1l7 9h-7z"/>
		<path id="Path 510" class="s19" d="m893 499l10-1h2l2 15h-8l-6-2z"/>
		<path id="Path 511" class="s9" d="m907 513l-2-15h4l5 3 7-1v5l-1 10-13-1z"/>
		<path id="Path 512" class="s42" d="m101 507v-4l8-4v4l-6 4z"/>
		<path id="Path 513" class="s78" d="m235 501v-2h7v6h-5z"/>
		<path id="Path 514" class="s78" d="m267 500h10v8l-2 5-2 1-3 1-5-4v-2z"/>
		<path id="Path 515" class="s64" d="m311 507v-8h3l3 2v6z"/>
		<path id="Path 516" class="s75" d="m325 502l2-3h4v4l-2 4-3-1z"/>
		<path id="Path 517" class="s63" d="m432 512v-11l5-2 3 4 1 2v8h-2-6z"/>
		<path id="Path 518" class="s11" d="m499 505l2-6h4l7 4 3 10-10-2z"/>
		<path id="Path 519" class="s66" d="m548 504l1-5h6v8l-3 1h-3z"/>
		<path id="Path 520" class="s81" d="m585 504l4-5h8 12 6l1 4-1 4h-12-12l-5-3z"/>
		<path id="Path 521" class="s62" d="m667 505l2-6 8 4 2 2-1 5h-4z"/>
		<path id="Path 522" class="s52" d="m683 505h4l2-6h9l4 5h4l1-3 7-1 11 2 8 1v2l-10 5v12l-17 3-2-5-13-1-12-2-1-7 1-5z"/>
		<path id="Path 523" class="s71" d="m885 500l8-1v12l-6-1z"/>
		<path id="Path 524" class="s20" d="m98 505v-4l3-1z"/>
		<path id="Path 525" class="s72" d="m277 508v-8h1 5l-1 7z"/>
		<path id="Path 526" class="s5" d="m451 501l2-1h4v7l-4 1-2-3z"/>
		<path id="Path 527" class="s3" d="m457 507v-7l4 3-1 4z"/>
		<path id="Path 528" class="s40" d="m749 509l4-9h5l3 4h6l2 3h12v7h-10-1l-10-1-7 2h-4z"/>
		<path id="Path 529" class="s52" d="m767 504v-4l10 1 4 3v3h-12z"/>
		<path id="Path 530" class="s69" d="m876 505l3-5h6l2 10-5 1-2-2z"/>
		<path id="Path 531" class="s87" d="m203 502l6-1 8 5v1l-1 10-2 7-9 7-10 2h-18v-6l11-1 2-5 4-3 1-2 6-3z"/>
		<path id="Path 532" class="s74" d="m317 507v-6h4l4 1 1 4-7 3z"/>
		<path id="Path 533" class="s77" d="m351 505l3-4 11 4v6h-7-5l-2-1z"/>
		<path id="Path 534" class="s66" d="m440 503l3-2h8v4h-10z"/>
		<path id="Path 535" class="s61" d="m537 504l1-3h5l2 3-4 6-4-2z"/>
		<path id="Path 536" class="s7" d="m198 505l4-3h1l-2 11-6 3v-4z"/>
		<path id="Path 537" class="s48" d="m287 509l4-7 5 2v9l-5 2-4-2z"/>
		<path id="Path 538" class="s87" d="m296 504l3-2h4l4 7-6 4h-5z"/>
		<path id="Path 539" class="s71" d="m479 503l10-1h4l6 3 6 6-1 8h-5l-3-3h-5l-1 3h-5v-4l-6-3z"/>
		<path id="Path 540" class="s40" d="m733 503l1-1 2 3h-3z"/>
		<path id="Path 541" class="s33" d="m795 505l2-3 6 1v4z"/>
		<path id="Path 542" class="s52" d="m103 507l6-4 8 1 3 9 7 7h4l2 5-5 7h-4l-5-7-16-6v-4z"/>
		<path id="Path 543" class="s82" d="m329 507l2-4h2l8 2h10v5l-4 7h-2-12z"/>
		<path id="Path 544" class="s74" d="m379 504l4-1 3 6-7 2z"/>
		<path id="Path 545" class="s32" d="m401 511v-8h4 10l3 1-1 7h-6-9z"/>
		<path id="Path 546" class="s66" d="m460 507l1-4h6l4 12v6l3 2-2 4h-1-7l-1-4 3-3-5-5z"/>
		<path id="Path 547" class="s22" d="m615 507l1-4h5l2 10h-7z"/>
		<path id="Path 548" class="s58" d="m803 507v-4h8l5 2 2 5v5h-9z"/>
		<path id="Path 549" class="s47" d="m528 505l3-1h6v4l4 2 2 15-4 1-4-4v-5l-5-3z"/>
		<path id="Path 550" class="s62" d="m541 510l4-6h3l1 4h3l3 11h12l2 7-4 1v4l-9-1-7-4-6-1z"/>
		<path id="Path 551" class="s44" d="m578 515l7-11h1l-1 11z"/>
		<path id="Path 552" class="s51" d="m585 515l1-11 5 3v9l-3 1z"/>
		<path id="Path 553" class="s53" d="m781 507v-3l14 1 8 2 6 8v6l-6 2-5-2-4-2-6-3h-1l-6-2z"/>
		<path id="Path 554" class="s49" d="m164 509l2-4h7l3 8-1 4h-5l-1-4h-4z"/>
		<path id="Path 555" class="s18" d="m194 507l2-2h2l-3 7h-2z"/>
		<path id="Path 556" class="s30" d="m441 513v-8h10l2 3v8l-4 3z"/>
		<path id="Path 557" class="s66" d="m524 519l-1-14h5l2 9 5 3v5l4 4v7h-8v-7l-6-3z"/>
		<path id="Path 558" class="s52" d="m663 506l4-1 7 5-1 7-9 2v-6l-5-4z"/>
		<path id="Path 559" class="s58" d="m723 522v-12l10-5h3l9 4 1 8-4 5-11 2z"/>
		<path id="Path 560" class="s29" d="m818 510l-2-5h2l3 4z"/>
		<path id="Path 561" class="s82" d="m858 516l-1-11h6 7l1 4v13l-3 4-7-1v-4l-3-1z"/>
		<path id="Path 562" class="s88" d="m871 509l-1-4h5v4z"/>
		<path id="Path 563" class="s83" d="m875 509v-4h1l4 4z"/>
		<path id="Path 564" class="s0" d="m920 515l1-10h1l-1 11h-1z"/>
		<path id="Path 565" class="s77" d="m319 509l7-3 3 1 4 10-2 9-4 2-7-3z"/>
		<path id="Path 566" class="s61" d="m98 511l3-4h2v8l-6-3z"/>
		<path id="Path 567" class="s36" d="m182 511l4-4h8l-1 5-4 5h-4l-5-4z"/>
		<path id="Path 568" class="s81" d="m216 517l1-10h13v3l-1 6 4 7-1 1-3 2-12 1z"/>
		<path id="Path 569" class="s27" d="m249 507l2 6-2 2-5-1-1-7z"/>
		<path id="Path 570" class="s30" d="m277 508l5-1v2l-4 4h-3z"/>
		<path id="Path 571" class="s80" d="m309 509l2-2h6l2 2 1 16 2 12-4 6h-7v-5-8z"/>
		<path id="Path 572" class="s46" d="m453 508l4-1h3l1 8-3 1h-5z"/>
		<path id="Path 573" class="s31" d="m552 508l3-1h7 3 6l1 8h-4l-1 4h-12z"/>
		<path id="Path 574" class="s35" d="m591 516v-9h12l4 12v10l-6 2h-2l-6 1-3-3 3-2v-6z"/>
		<path id="Path 575" class="s62" d="m607 519l-4-12h12l1 6-5 6z"/>
		<path id="Path 576" class="s44" d="m628 514l2-5 14 1 3-3 4 8h4v14l-1 3h-9l-12-1-4-6z"/>
		<path id="Path 577" class="s61" d="m827 509l2-2h8l9 21-1 1-16-4z"/>
		<path id="Path 578" class="s74" d="m156 513v-4h6 2l1 4-2 2z"/>
		<path id="Path 579" class="s27" d="m262 513l-2-4h5v2z"/>
		<path id="Path 580" class="s75" d="m278 513l4-4h5v4l-5 4v4h-2l-2-4z"/>
		<path id="Path 581" class="s89" d="m301 513l6-4h2l2 21h-2l-6-1-2-3-1-5z"/>
		<path id="Path 582" class="s89" d="m379 511l7-2 15 2h1l1 6-6 18-19 1-3-8-10-1v-4l2-12z"/>
		<path id="Path 583" class="s51" d="m655 515l4-6 5 4v6l-1 10h-8z"/>
		<path id="Path 584" class="s38" d="m746 517l-1-8h4v6z"/>
		<path id="Path 585" class="s57" d="m818 510l3-1h6l2 16h-8l-3-10z"/>
		<path id="Path 586" class="s77" d="m871 522v-13h4 5l2 2 3 15h-8l-2-4z"/>
		<path id="Path 587" class="s8" d="m93 512v-2h2z"/>
		<path id="Path 588" class="s10" d="m93 512l2-2h3v1l-1 1-2 6 4 4 1 3h-2l-2-4-2-2-1-1z"/>
		<path id="Path 589" class="s20" d="m93 518h1v1h-1z"/>
		<path id="Path 590" class="s39" d="m233 523l-4-7 1-6 7 2 1 11z"/>
		<path id="Path 591" class="s86" d="m347 517l4-7 2 1v6z"/>
		<path id="Path 592" class="s33" d="m673 517l1-7h4l1 7z"/>
		<path id="Path 593" class="s81" d="m882 511l5-1 6 1 6 2v2l-6 2v6l-5 4-3-1z"/>
		<path id="Path 594" class="s89" d="m262 513l3-2 5 4v2l-4 3-4 2z"/>
		<path id="Path 595" class="s83" d="m353 517v-6h5l-3 7z"/>
		<path id="Path 596" class="s90" d="m355 518l3-7h7 2l-2 12h-7z"/>
		<path id="Path 597" class="s66" d="m403 517l-1-6h9v6z"/>
		<path id="Path 598" class="s46" d="m411 517v-6h6l4 2v5h-4z"/>
		<path id="Path 599" class="s19" d="m504 519l1-8 10 2 6 6 2 5v3h-6l-3 6h-5l-4-7z"/>
		<path id="Path 600" class="s29" d="m99 522l-4-4 2-6 6 3v4z"/>
		<path id="Path 601" class="s69" d="m141 522l-2-10h3l8 6h5v1 2l-14 2z"/>
		<path id="Path 602" class="s47" d="m189 517l4-5h2v4l-1 2z"/>
		<path id="Path 603" class="s34" d="m426 513l6-1 1 1v8h-7l-1-1z"/>
		<path id="Path 604" class="s3" d="m478 515l1-3 6 3v4z"/>
		<path id="Path 605" class="s44" d="m155 518v-5h1l7 2v5l-8-1z"/>
		<path id="Path 606" class="s35" d="m163 515l2-2h4l1 4-2 3h-5z"/>
		<path id="Path 607" class="s25" d="m175 517l1-4h4l5 4v3l-9 1z"/>
		<path id="Path 608" class="s34" d="m273 514l2-1h3v4h-5z"/>
		<path id="Path 609" class="s72" d="m282 521v-4l5-4 4 2v5l-3 3z"/>
		<path id="Path 610" class="s90" d="m291 515l5-2h5l-1 8-9-1z"/>
		<path id="Path 611" class="s11" d="m421 518v-5h5l-1 7z"/>
		<path id="Path 612" class="s55" d="m433 521v-8h6l-4 9h-2z"/>
		<path id="Path 613" class="s5" d="m435 522l4-9h2l8 6 1 5h5v7h-2-10z"/>
		<path id="Path 614" class="s57" d="m611 519l5-6h7l5 1 1 11 4 6v5l-6 1h-5v-4l-11-7z"/>
		<path id="Path 615" class="s74" d="m753 515l7-2-1 2z"/>
		<path id="Path 616" class="s55" d="m759 515l1-2 10 1-1 2h-9z"/>
		<path id="Path 617" class="s18" d="m899 515v-2h8v1l-2 3z"/>
		<path id="Path 618" class="s27" d="m270 515l3-1v3h-3z"/>
		<path id="Path 619" class="s91" d="m769 516l1-2h1z"/>
		<path id="Path 620" class="s71" d="m905 517l2-3 13 1v1l2 3v1l1 5-4 2-12-2z"/>
		<path id="Path 621" class="s31" d="m458 516l3-1 5 5-3 3h-1z"/>
		<path id="Path 622" class="s48" d="m474 523l-3-2v-6h7l7 4h5l5 6v4h-1-9l-1-2-6 2-1-1v-4z"/>
		<path id="Path 623" class="s35" d="m567 519l1-4h4l6 2 3 4-2 10-10-5z"/>
		<path id="Path 624" class="s43" d="m578 517v-2h7l3 2 5 4v6l-3 2-9-8z"/>
		<path id="Path 625" class="s91" d="m746 517l3-2h4 6l1 1h-9l-9 7v-1z"/>
		<path id="Path 626" class="s51" d="m803 523l6-2v-6h9l3 10h8l16 4 2 4v8l-3 3h-1-1l-8-3-3-2h-2l-2-2-6-3h-2l-8-5-8-5z"/>
		<path id="Path 627" class="s66" d="m893 523v-6l6-2 6 2 2 8-1 8h-9l-2-2z"/>
		<path id="Path 628" class="s55" d="m449 519l4-3h5l4 7-7 1h-5z"/>
		<path id="Path 629" class="s81" d="m490 519l1-3h5l3 3v4l-4 2z"/>
		<path id="Path 630" class="s53" d="m588 517l3-1 2 5z"/>
		<path id="Path 631" class="s75" d="m855 520v-4h3v4z"/>
		<path id="Path 632" class="s20" d="m922 519l-2-3h1z"/>
		<path id="Path 633" class="s70" d="m168 520l2-3h5l1 4-7 1z"/>
		<path id="Path 634" class="s66" d="m185 520v-3h4l5 1-4 3z"/>
		<path id="Path 635" class="s66" d="m205 531l9-7 2-7 1 10-1 3-7 1z"/>
		<path id="Path 636" class="s74" d="m266 520l4-3h3 5l2 4-2 4-5 4h-6z"/>
		<path id="Path 637" class="s86" d="m327 528l4-2 2-9h12l2 8 6 2v4 6l-10 4-4 8-2 3h-3l-7-9v-6z"/>
		<path id="Path 638" class="s88" d="m353 527l-6-2-2-8h2 6l2 1 3 5-1 4z"/>
		<path id="Path 639" class="s84" d="m378 536l19-1 6-18h8l6 1 1 8 3 1 1 7 7 1 14 2 10 2h10l1 6-1 8-14-2-9-2-12-3-5 5-8-1h-3l-2-4-17-1-16-6z"/>
		<path id="Path 640" class="s53" d="m664 519l9-2h6l12 2v8 5l-13 3h-12l-3-6z"/>
		<path id="Path 641" class="s92" d="m421 527l-3-1-1-8h4l4 2 1 1v3z"/>
		<path id="Path 642" class="s24" d="m521 575l5-1h1l-7 1z"/>
		<path id="Path 643" class="s53" d="m99 522l4-3 16 6 5 7h4l5-7h4v5l5 6-1 3-16 4h-1l-1-1-4-1-8-6-8-6-3-4z"/>
		<path id="Path 644" class="s44" d="m123 542h1v1h-1z"/>
		<path id="Path 645" class="s46" d="m155 521v-2l8 1h5l1 2-1 4h-2z"/>
		<path id="Path 646" class="s87" d="m291 520l9 1 1 5-10 4-3-3v-4z"/>
		<path id="Path 647" class="s66" d="m495 525l4-2v-4h5l1 7-6 3h-4z"/>
		<path id="Path 648" class="s32" d="m523 524l-2-5h3l1 4z"/>
		<path id="Path 649" class="s43" d="m607 529v-10h4v7l11 7v4l-3 2h-10v-6z"/>
		<path id="Path 650" class="s54" d="m691 527v-8l13 1 2 5-8 2z"/>
		<path id="Path 651" class="s48" d="m176 521l9-1 5 1-2 5-11 1h-6l-3-1 1-4z"/>
		<path id="Path 652" class="s86" d="m262 522l4-2 1 9h-3l-2-4z"/>
		<path id="Path 653" class="s43" d="m853 529l2-9h3l3 1v4l-3 1 2 7h-2z"/>
		<path id="Path 654" class="s73" d="m923 525l-1-5 2 5z"/>
		<path id="Path 655" class="s39" d="m141 523l14-2 11 5-1 7h-5l-18-4z"/>
		<path id="Path 656" class="s55" d="m278 525l2-4h2l6 2v4l-3 6 6 2 4 4-7 8-4-4h-5l-4-4v-4l4-4z"/>
		<path id="Path 657" class="s79" d="m426 524v-3h7v1l-4 3z"/>
		<path id="Path 658" class="s30" d="m579 531l2-10 9 8 3 3v7l-2 3h-6l-2-5h-4z"/>
		<path id="Path 659" class="s24" d="m803 524h-4l-1-3 5 2z"/>
		<path id="Path 660" class="s81" d="m137 525l4-3v1l1 6 18 4-3 8h-8l-2-4-5-1-5-6z"/>
		<path id="Path 661" class="s78" d="m429 525l4-3h2l8 9v6l-14-2z"/>
		<path id="Path 662" class="s59" d="m706 525l17-3 8 2v11l-1 2-13 2-3-4h-15l-1-8z"/>
		<path id="Path 663" class="s16" d="m731 524l11-2v1 1l-5 5-1 2-2 2-3 2z"/>
		<path id="Path 664" class="s30" d="m868 526l3-4h4l2 4-1 3z"/>
		<path id="Path 665" class="s84" d="m232 524l1-1h5l1 5-3 3h-3z"/>
		<path id="Path 666" class="s84" d="m357 527l1-4h7v4h-7z"/>
		<path id="Path 667" class="s92" d="m455 524l7-1h1l1 4h7v4l-8 3-8-3z"/>
		<path id="Path 668" class="s35" d="m472 527l2-4 3 1v4z"/>
		<path id="Path 669" class="s72" d="m523 524l2-1 6 3v7h-4l-4-6z"/>
		<path id="Path 670" class="s72" d="m888 527l5-4 2 8h-5z"/>
		<path id="Path 671" class="s27" d="m229 526l3-2 1 7h-3z"/>
		<path id="Path 672" class="s93" d="m421 527l5-3 3 1v10l-7-1z"/>
		<path id="Path 673" class="s1" d="m737 529l5-5-1 4z"/>
		<path id="Path 674" class="s73" d="m103 529l-5-4h2z"/>
		<path id="Path 675" class="s80" d="m249 528l3-3h10l2 4 3 14h-15z"/>
		<path id="Path 676" class="s41" d="m273 529l5-4 1 6-4 4z"/>
		<path id="Path 677" class="s82" d="m322 537l-2-12 7 3v9z"/>
		<path id="Path 678" class="s72" d="m539 526l4-1 6 1-2 7-2 4h-4l-2-4z"/>
		<path id="Path 679" class="s88" d="m858 533h2l-2-7 3-1 7 1 8 3 1 5-2 9h-5l-8-7h-4z"/>
		<path id="Path 680" class="s9" d="m906 533l1-8 12 2v8l-4 4-8-1z"/>
		<path id="Path 681" class="s3" d="m919 527l4-2h1l-1 14-1 2-3 5-2 4-4 4h-2l-4 1-1-9-10-5 1-8h9l1 5 8 1 4-4z"/>
		<path id="Path 682" class="s1" d="m923 539l1-14h2v8z"/>
		<path id="Path 683" class="s92" d="m165 533l1-7h2l3 1v6z"/>
		<path id="Path 684" class="s74" d="m217 527l12-1 1 5-1 5 4 2 3-7 3-3 3-1 2-1 5 2 3 15-1 2h-9l-3-4-8 2-7-4-8-9z"/>
		<path id="Path 685" class="s84" d="m291 530l10-4 2 3v10h-8l-4-4z"/>
		<path id="Path 686" class="s7" d="m499 529l6-3 4 7-2 6h-7l-1-2z"/>
		<path id="Path 687" class="s19" d="m547 533l2-7 7 4-1 3z"/>
		<path id="Path 688" class="s32" d="m565 531v-4l4-1 10 5v6l-2 8h-5z"/>
		<path id="Path 689" class="s19" d="m876 529l1-3h8l3 1 2 4-2 6-11-3z"/>
		<path id="Path 690" class="s84" d="m171 533v-6h6v6z"/>
		<path id="Path 691" class="s93" d="m291 535l-6-2 3-6 3 3z"/>
		<path id="Path 692" class="s77" d="m353 531v-4h4 1l1 5z"/>
		<path id="Path 693" class="s90" d="m359 532l-1-5h7l10 1 3 8-1 3 16 6v6h-2l-11-1-5-6-10-1-6-5z"/>
		<path id="Path 694" class="s64" d="m471 531v-4h1l5 1 1 1-3 2z"/>
		<path id="Path 695" class="s78" d="m478 529l6-2 1 2-2 8h-6l-2-6z"/>
		<path id="Path 696" class="s92" d="m514 533l3-6h6l4 6-4 16-2 1h-4v-14z"/>
		<path id="Path 697" class="s33" d="m691 532v-5h7l1 8h-3z"/>
		<path id="Path 698" class="s74" d="m845 529l1-1 7 1 5 4v3 2l-11-5z"/>
		<path id="Path 699" class="s73" d="m111 536l-7-3-1-4 8 6z"/>
		<path id="Path 700" class="s72" d="m267 543l-3-14h3 6l2 6v4l-1 4z"/>
		<path id="Path 701" class="s90" d="m303 539v-10l6 1v8l-2 2z"/>
		<path id="Path 702" class="s92" d="m483 537l2-8h9v7l5 1 1 2-1 8h-12l-2-2z"/>
		<path id="Path 703" class="s41" d="m499 537l-5-1v-7h1 4z"/>
		<path id="Path 704" class="s72" d="m601 531l6-2 2 4z"/>
		<path id="Path 705" class="s56" d="m654 532l1-3h8l3 6v2l-5 2h-6z"/>
		<path id="Path 706" class="s4" d="m819 534l-6-1-2-4z"/>
		<path id="Path 707" class="s75" d="m209 531l7-1 8 9-1 3-19-1v-3z"/>
		<path id="Path 708" class="s79" d="m309 538v-8h2v8z"/>
		<path id="Path 709" class="s74" d="m555 533l1-3 9 1 7 14-3 2-12 1-2-1v-8z"/>
		<path id="Path 710" class="s32" d="m195 533l10-2h4l-5 7-11 1-4-1z"/>
		<path id="Path 711" class="s90" d="m236 531l-3 7-4-2 1-5h3z"/>
		<path id="Path 712" class="s79" d="m353 537v-6l6 1v6z"/>
		<path id="Path 713" class="s93" d="m443 537v-6h10v8z"/>
		<path id="Path 714" class="s78" d="m453 539v-8h2l8 3v5z"/>
		<path id="Path 715" class="s93" d="m463 534l8-3h4l2 6h6l2 8h-21l-1-6z"/>
		<path id="Path 716" class="s50" d="m593 532l6-1v8h-6z"/>
		<path id="Path 717" class="s34" d="m599 539v-8h2l8 2v6l-8 1z"/>
		<path id="Path 718" class="s56" d="m633 536v-5l12 1v9l-9 2z"/>
		<path id="Path 719" class="s1" d="m734 533l2-2-2 3z"/>
		<path id="Path 720" class="s5" d="m888 537l2-6h5l2 2-1 8h-6z"/>
		<path id="Path 721" class="s40" d="m645 541v-9h9l1 7-3 2z"/>
		<path id="Path 722" class="s42" d="m678 535l13-3 5 3-1 5-16 3z"/>
		<path id="Path 723" class="s50" d="m157 541l3-8h5l8 4 2 2v4h-16z"/>
		<path id="Path 724" class="s72" d="m173 537l-8-4h6z"/>
		<path id="Path 725" class="s13" d="m173 537l-2-4h6 18l-6 5-14 1z"/>
		<path id="Path 726" class="s39" d="m507 539l2-6h5l3 3v14l-8-3h-2z"/>
		<path id="Path 727" class="s39" d="m523 549l4-16h4 8l2 4v12z"/>
		<path id="Path 728" class="s13" d="m545 537l2-4h8v6l-8 1z"/>
		<path id="Path 729" class="s4" d="m731 535l3-2v1l-5 5 1-2z"/>
		<path id="Path 730" class="s43" d="m844 544l3-3v-8l11 5 9 8v5l-4 1-5-1-8-4z"/>
		<path id="Path 731" class="s4" d="m822 536l-3-2h2z"/>
		<path id="Path 732" class="s76" d="m822 536l-1-2 6 3-4-1z"/>
		<path id="Path 733" class="s66" d="m875 543l2-9 11 3 2 4-1 2z"/>
		<path id="Path 734" class="s10" d="m111 536v-1l8 6-6-3z"/>
		<path id="Path 735" class="s59" d="m666 537v-2h12l1 8v6h-12z"/>
		<path id="Path 736" class="s28" d="m695 540l1-5h3 15l3 4 13-2-1 2-2 2-5 3h-1l-4 2-3 1-1-4z"/>
		<path id="Path 737" class="s51" d="m141 539l1-3 5 1 2 4v8h-8z"/>
		<path id="Path 738" class="s58" d="m627 537l6-1 3 7-8 2z"/>
		<path id="Path 739" class="s4" d="m829 539l-6-3 4 1z"/>
		<path id="Path 740" class="s80" d="m858 538v-2h4l8 7v3h-3z"/>
		<path id="Path 741" class="s85" d="m318 543l4-6h5v6l-8 2z"/>
		<path id="Path 742" class="s78" d="m339 549l4-8 10-4 6 1 6 5v12h-5l-7 9-6-4v-6z"/>
		<path id="Path 743" class="s68" d="m541 549v-12h4l2 3-2 8z"/>
		<path id="Path 744" class="s75" d="m577 545l2-8h4l2 5z"/>
		<path id="Path 745" class="s53" d="m619 539l3-2h5l1 8v4h-7z"/>
		<path id="Path 746" class="s44" d="m661 539l5-2 1 12h-6z"/>
		<path id="Path 747" class="s43" d="m175 539l14-1 4 1v6l2 6h-7-6l-7-2v-6z"/>
		<path id="Path 748" class="s60" d="m193 539l11-1v3l-1 4h-10z"/>
		<path id="Path 749" class="s89" d="m307 540l2-2h2v5h-2z"/>
		<path id="Path 750" class="s44" d="m125 543l16-4v10h-7l-6-3z"/>
		<path id="Path 751" class="s43" d="m223 542l1-3 7 4v6l4 2v8h-6l-6-2 4-4v-7z"/>
		<path id="Path 752" class="s77" d="m274 543l1-4 4 4 1 5h-4z"/>
		<path id="Path 753" class="s77" d="m288 547l7-8h8l4 1 2 3-2 3-8 4 6 7v10l-12-2v-4l-10-12z"/>
		<path id="Path 754" class="s84" d="m499 547l1-8h7v8h-6z"/>
		<path id="Path 755" class="s55" d="m547 540l8-1v8l-2 1h-7-1z"/>
		<path id="Path 756" class="s49" d="m591 542l2-3h6l2 1v7h-8z"/>
		<path id="Path 757" class="s58" d="m601 540l8-1h10l2 10v7l-10 4-6-1-2-4-2-8z"/>
		<path id="Path 758" class="s59" d="m652 541l3-2h6v10l-4 4h-5z"/>
		<path id="Path 759" class="s29" d="m679 543l16-3 18 3 1 4-9 7h-10l-11-3-5-2z"/>
		<path id="Path 760" class="s4" d="m128 546l-9-5 4 1 1 1h1z"/>
		<path id="Path 761" class="s49" d="m149 549v-8h8l2 2v6h-4z"/>
		<path id="Path 762" class="s51" d="m203 545l1-4 19 1 4 4v7l-4 4h-1l-13-3h-2l-5-2z"/>
		<path id="Path 763" class="s75" d="m231 543l8-2 3 4h9l1-2h15 7l2 5h4l3 1 10 12v4h-8l-9-1h-6l-3-1-8-1v-9l-8-2h-16l-4-2z"/>
		<path id="Path 764" class="s45" d="m636 543l9-2h7v12l-1 8-3 4h-11l-8-9 2-5-3-2v-4z"/>
		<path id="Path 765" class="s1" d="m722 544l5-3-1 3z"/>
		<path id="Path 766" class="s48" d="m889 543l1-2h6l10 5 1 9-3 1-10 1 2-8z"/>
		<path id="Path 767" class="s51" d="m577 545l8-3h6l2 5v8 4h-2l-12-4z"/>
		<path id="Path 768" class="s51" d="m159 549v-6h16v6h-1-10z"/>
		<path id="Path 769" class="s78" d="m280 548l-1-5h5l4 4-5 2z"/>
		<path id="Path 770" class="s50" d="m307 546l2-3h2 7l1 2-6 5h-3z"/>
		<path id="Path 771" class="s43" d="m319 545l8-2 7 9 1 5 5-1 7 4 6 4 2 3-1 2h-20-5-9l-5-2 2-7-4-3v-7z"/>
		<path id="Path 772" class="s89" d="m365 555v-12l10 1 5 6-1 9h-4l-4-4z"/>
		<path id="Path 773" class="s72" d="m870 546v-3h5 14l7 6-2 8h-1-1-9l-2-6-8-1z"/>
		<path id="Path 774" class="s4" d="m851 549l-8-5h1l6 3z"/>
		<path id="Path 775" class="s53" d="m195 551l-2-6h10l-1 7h-1-3z"/>
		<path id="Path 776" class="s89" d="m393 551v-6l17 1 2 4-2 7h-6l-6-3z"/>
		<path id="Path 777" class="s78" d="m463 553l1-8h21l2 2v11l-4 2-8-3-8-2z"/>
		<path id="Path 778" class="s60" d="m569 547l3-2h5l2 10v4h-9-1z"/>
		<path id="Path 779" class="s60" d="m305 557l-6-7 8-4 3 4-1 7z"/>
		<path id="Path 780" class="s68" d="m423 551l5-5 12 3 2 9-1 6-13 1-5-4z"/>
		<path id="Path 781" class="s0" d="m714 547l3-1-3 5-8 3v5h-3l2-5z"/>
		<path id="Path 782" class="s62" d="m863 552l4-1v-5h3l3 4 8 1 2 6h-9z"/>
		<path id="Path 783" class="s89" d="m487 558v-11h12 2v8l-2 8h-1z"/>
		<path id="Path 784" class="s68" d="m501 555v-8h6 2l-2 8z"/>
		<path id="Path 785" class="s32" d="m507 555l2-8 8 3h4v6h-4l-5 7h-6z"/>
		<path id="Path 786" class="s75" d="m553 548l2-1 2 1-3 2z"/>
		<path id="Path 787" class="s51" d="m557 548l12-1v12h-7l-3 4-10-2v-6l5-5z"/>
		<path id="Path 788" class="s38" d="m593 555v-8h8l2 8h-2z"/>
		<path id="Path 789" class="s21" d="m851 549l-1-2 8 4z"/>
		<path id="Path 790" class="s62" d="m541 549l4-1h1v6l-3 3h-3z"/>
		<path id="Path 791" class="s43" d="m546 554v-6h7l1 2-5 5z"/>
		<path id="Path 792" class="s14" d="m155 551l-14-2h8 6z"/>
		<path id="Path 793" class="s21" d="m155 551v-2h4 5l1 2z"/>
		<path id="Path 794" class="s10" d="m165 551l-1-2h10v2z"/>
		<path id="Path 795" class="s94" d="m174 551v-2h1l7 2z"/>
		<path id="Path 796" class="s80" d="m337 552l2-3 8 5v6l-7-4z"/>
		<path id="Path 797" class="s41" d="m442 558l-2-9 9 2v6z"/>
		<path id="Path 798" class="s69" d="m521 550l2-1h18l-1 8-7 2-12-3z"/>
		<path id="Path 799" class="s52" d="m621 556v-7h7l3 2-2 5z"/>
		<path id="Path 800" class="s31" d="m657 553l4-4h6l-1 14h-7l-2-2z"/>
		<path id="Path 801" class="s70" d="m666 563l1-14h12l5 2 1 4-1 5 3 2-3 6v1 1h-1l-7 4v-2l-2-5h-5z"/>
		<path id="Path 802" class="s51" d="m309 557l1-7h3v7z"/>
		<path id="Path 803" class="s78" d="m379 559l1-9 11 1v6l-2 7-6-2z"/>
		<path id="Path 804" class="s27" d="m410 557l2-7h3l-2 7z"/>
		<path id="Path 805" class="s64" d="m413 557l2-7 8 1v10l-7 1z"/>
		<path id="Path 806" class="s21" d="m198 552l-10-1h7z"/>
		<path id="Path 807" class="s53" d="m235 559v-8h16v10h-2-10-2z"/>
		<path id="Path 808" class="s51" d="m251 561v-10l8 2v9z"/>
		<path id="Path 809" class="s93" d="m391 557v-6h2l5 3-1 3z"/>
		<path id="Path 810" class="s13" d="m449 557v-6l14 2 4 2v7l-11 2z"/>
		<path id="Path 811" class="s17" d="m685 555l-1-4 11 3v3l-2 7-2 1-7 3 3-6 2-5z"/>
		<path id="Path 812" class="s23" d="m874 558l-10-2-6-5 5 1 11 5z"/>
		<path id="Path 813" class="s91" d="m207 554l-6-2h1z"/>
		<path id="Path 814" class="s50" d="m340 556l-5 1-1-5h3z"/>
		<path id="Path 815" class="s22" d="m651 561l1-8h5v8z"/>
		<path id="Path 816" class="s95" d="m222 557l-6 1-7-4z"/>
		<path id="Path 817" class="s87" d="m397 557l1-3 6 3v1h-7z"/>
		<path id="Path 818" class="s53" d="m543 557l3-3 3 1v6h-6z"/>
		<path id="Path 819" class="s11" d="m695 557v-3h10l-2 5h-6z"/>
		<path id="Path 820" class="s73" d="m907 555l4-1-7 2z"/>
		<path id="Path 821" class="s13" d="m353 564l7-9h5 6l4 4 1 9v2l-8-4-9 2-4-1z"/>
		<path id="Path 822" class="s68" d="m467 562v-7l8 2-3 6z"/>
		<path id="Path 823" class="s80" d="m499 563l2-8h6l-1 8z"/>
		<path id="Path 824" class="s52" d="m579 559v-4l12 4 1 6-1 9-4 2v7h-8l-3-4 1-13z"/>
		<path id="Path 825" class="s33" d="m593 559v-4h8v6h-4z"/>
		<path id="Path 826" class="s52" d="m601 561v-6h2l2 4-2 2z"/>
		<path id="Path 827" class="s25" d="m687 562l-3-2 1-5 4 2z"/>
		<path id="Path 828" class="s43" d="m512 563l5-7h4l12 3v6l-16 2-5-1z"/>
		<path id="Path 829" class="s44" d="m611 560l10-4h8l8 9 3 8-1 10-14-3-13-4-5-4v-5z"/>
		<path id="Path 830" class="s4" d="m894 557l10-1-11 2v-1z"/>
		<path id="Path 831" class="s34" d="m305 567v-10h4 4l4 3-2 7h-2z"/>
		<path id="Path 832" class="s7" d="m389 564l2-7h6v1l-4 7z"/>
		<path id="Path 833" class="s7" d="m404 558v-1h6 3l3 5-3 3-8-2z"/>
		<path id="Path 834" class="s66" d="m442 558l7-1 7 7v3h-12l-3-3z"/>
		<path id="Path 835" class="s48" d="m472 563l3-6 8 3v6l-9 1z"/>
		<path id="Path 836" class="s51" d="m533 559l7-2h3v4l-10 4z"/>
		<path id="Path 837" class="s26" d="m693 564l2-7 2 2-3 5z"/>
		<path id="Path 838" class="s91" d="m874 558v-1h9 9v1z"/>
		<path id="Path 839" class="s1" d="m892 557h1v1h-1z"/>
		<path id="Path 840" class="s39" d="m393 565l4-7h7l1 5v7l-11-3z"/>
		<path id="Path 841" class="s79" d="m483 560l4-2 11 5-9 5-6-2z"/>
		<path id="Path 842" class="s76" d="m237 561l-8-2h6z"/>
		<path id="Path 843" class="s72" d="m376 568l-1-9h4l4 3v6z"/>
		<path id="Path 844" class="s36" d="m559 563l3-4h7 1l2 7h5l-1 13-5-2v-4l-6-2-6-2z"/>
		<path id="Path 845" class="s33" d="m577 566h-5l-2-7h9z"/>
		<path id="Path 846" class="s40" d="m592 565l-1-6h2l4 2v4z"/>
		<path id="Path 847" class="s57" d="m603 561l2-2 6 1-4 7h-4z"/>
		<path id="Path 848" class="s23" d="m249 563l-10-2h10z"/>
		<path id="Path 849" class="s95" d="m249 563v-2h2l8 1v1z"/>
		<path id="Path 850" class="s46" d="m416 562l7-1 5 4-5 4-11 2-1-2 2-4z"/>
		<path id="Path 851" class="s40" d="m533 565l10-4h6l10 2v6h-2-9l-1 6-7-1h-2-1-7-3-1l-5 1h-1-3v-8z"/>
		<path id="Path 852" class="s53" d="m597 565v-4h4 2v6h-4z"/>
		<path id="Path 853" class="s52" d="m648 565l3-4h6l2 2v8h-9z"/>
		<path id="Path 854" class="s23" d="m259 563v-1l8 1v1z"/>
		<path id="Path 855" class="s47" d="m383 568v-6l6 2 4 1 1 2-3 4z"/>
		<path id="Path 856" class="s74" d="m456 564l11-2 5 1 2 4-2 5h-9l-7-1v-4z"/>
		<path id="Path 857" class="s95" d="m267 564v-1l3 1z"/>
		<path id="Path 858" class="s9" d="m405 570v-7l8 2-2 4z"/>
		<path id="Path 859" class="s57" d="m489 568l9-5h1 7 6v3l-15 4-6 1h-2z"/>
		<path id="Path 860" class="s33" d="m659 571v-8h7l3 4v5l-5 3z"/>
		<path id="Path 861" class="s73" d="m285 566l-9-2 9 1z"/>
		<path id="Path 862" class="s62" d="m428 565l13-1 3 3h12v4l-27 1-6-3z"/>
		<path id="Path 863" class="s73" d="m691 565l2-1h1l-3 2z"/>
		<path id="Path 864" class="s91" d="m285 566v-1h8l12 2h8v1z"/>
		<path id="Path 865" class="s44" d="m591 574l1-9h5l2 2-2 8z"/>
		<path id="Path 866" class="s33" d="m640 573l-3-8h11l2 6-1 3z"/>
		<path id="Path 867" class="s4" d="m684 568l7-3v1l-7 3z"/>
		<path id="Path 868" class="s32" d="m359 568l9-2 8 4 7 8 1 7-3-1-3-1-7-4h-1l-9-5-4-3z"/>
		<path id="Path 869" class="s34" d="m474 567l9-1 6 2v3l-17 1z"/>
		<path id="Path 870" class="s54" d="m497 570l15-4 5 1v8l-7 2h-3l-7 2h-3z"/>
		<path id="Path 871" class="s10" d="m313 568v-1h2l5 2z"/>
		<path id="Path 872" class="s62" d="m354 569l1-2 4 1-2 3h-1-2z"/>
		<path id="Path 873" class="s31" d="m391 571l3-4 11 3 6-1 1 2-7 1-1 5h-8-5z"/>
		<path id="Path 874" class="s61" d="m591 574l6 1 2-8h4 4v5l5 4-3 7-8 2h-12l-2-2v-7z"/>
		<path id="Path 875" class="s36" d="m669 572v-5h5l2 5z"/>
		<path id="Path 876" class="s18" d="m376 570v-2h7l8 3v6l-1 2-7-1z"/>
		<path id="Path 877" class="s14" d="m335 571l-6-2h5z"/>
		<path id="Path 878" class="s10" d="m335 571l-1-2h20v2z"/>
		<path id="Path 879" class="s33" d="m412 571l11-2 6 3v8h-2l-8-1h-6-6l-3-2 1-5z"/>
		<path id="Path 880" class="s59" d="m547 575l1-6h9l2 15h-2l-4-3h-1z"/>
		<path id="Path 881" class="s25" d="m559 584l-2-15h2l6 2 2 7-2 7z"/>
		<path id="Path 882" class="s40" d="m491 571l6-1v9h-3-3z"/>
		<path id="Path 883" class="s5" d="m676 574l7-4-1 4-4 5-1 1h-2z"/>
		<path id="Path 884" class="s1" d="m682 574l1-4h1z"/>
		<path id="Path 885" class="s4" d="m361 574l-5-3h1z"/>
		<path id="Path 886" class="s40" d="m429 572l27-1 7 1v9h-2-13-8-6l-5-1z"/>
		<path id="Path 887" class="s33" d="m463 572h9l17-1h2v8l-10 1-5 1h-7-6z"/>
		<path id="Path 888" class="s28" d="m567 578l-2-7 6 2v4z"/>
		<path id="Path 889" class="s36" d="m649 574l1-3h9l5 4-2 3-9-1z"/>
		<path id="Path 890" class="s16" d="m664 575l5-3h7v2l-1 6-4 2-9-4z"/>
		<path id="Path 891" class="s22" d="m639 583l1-10 9 1 4 3-1 7-5 3z"/>
		<path id="Path 892" class="s4" d="m370 579l-6-1-3-4z"/>
		<path id="Path 893" class="s4" d="m541 576l-3-2h2z"/>
		<path id="Path 894" class="s81" d="m541 576l-1-2 7 1 5 6z"/>
		<path id="Path 895" class="s76" d="m510 577l7-2v1z"/>
		<path id="Path 896" class="s81" d="m609 583l3-7 13 4-3 7h-9z"/>
		<path id="Path 897" class="s24" d="m390 579l1-2h5v1h-5v8l-10-2 3 1h5z"/>
		<path id="Path 898" class="s26" d="m396 578v-1h8l3 2z"/>
		<path id="Path 899" class="s70" d="m567 578l4-1 5 2 3 4 1 6h-3l-12-4z"/>
		<path id="Path 900" class="s18" d="m652 584l1-7 9 1 9 4-6 2h-3l-4 2z"/>
		<path id="Path 901" class="s31" d="m384 585l-1-7 7 1-1 6z"/>
		<path id="Path 902" class="s12" d="m419 581l-6-2h6z"/>
		<path id="Path 903" class="s96" d="m419 581v-2l8 1z"/>
		<path id="Path 904" class="s94" d="m481 580l10-1h3z"/>
		<path id="Path 905" class="s17" d="m622 587l3-7 14 3 8 4v8h-14-8l-4-1z"/>
		<path id="Path 906" class="s23" d="m671 582l4-2h2l-1 3-11 1z"/>
		<path id="Path 907" class="s0" d="m441 583l-7-2h6z"/>
		<path id="Path 908" class="s21" d="m441 583l-1-2h8v2z"/>
		<path id="Path 909" class="s95" d="m448 583v-2h13v2z"/>
		<path id="Path 910" class="s23" d="m461 583v-2h2 6v2z"/>
		<path id="Path 911" class="s6" d="m469 583v-2h7z"/>
		<path id="Path 912" class="s53" d="m580 589l-1-6h8l2 2-1 4h-5z"/>
		<path id="Path 913" class="s22" d="m601 585l8-2 4 4v6l-11-1-1-1z"/>
		<path id="Path 914" class="s24" d="m577 589l-13-1-5-4 6 1z"/>
		<path id="Path 915" class="s11" d="m647 587l5-3 6 2-1 3v2l-2 3h-1l-3 1h-4z"/>
		<path id="Path 916" class="s23" d="m658 586l4-2-5 5z"/>
		<path id="Path 917" class="s57" d="m588 589l1-4h12v6h-5-5z"/>
		<path id="Path 918" class="s31" d="m613 593v-6h9l-1 7h-2-5z"/>
		<path id="Path 919" class="s12" d="m591 591l-8-2h5z"/>
		<path id="Path 920" class="s0" d="m602 593l-6-2h5l1 1z"/>
		<path id="Path 921" class="s95" d="m602 593v-1l11 1 1 1z"/>
		<path id="Path 922" class="s4" d="m625 596l-6-2h2l4 1z"/>
		<path id="Path 923" class="s4" d="m651 595l3-1-3 2z"/>
		<path id="Path 924" class="s24" d="m625 596v-1h8v1z"/>
		<path id="Path 925" class="s26" d="m633 596v-1h14 4v1l-5 1h-9z"/>
		<path id="Path 926" class="s1" d="m633 598v-2l4 1v1z"/>
		<path id="Path 927" class="s1" d="m646 597l5-1v2h-5z"/>
		<path id="Path 928" class="s73" d="m637 598v-1h9v1z"/>
	</g>
</svg>