<svg version="1.2" xmlns="http://www.w3.org/2000/svg" viewBox="0 0 1000 1000" width="1000" height="1000">
	<title>Cycleptus_elongatus</title>
	<style>
		.s0 { opacity: .3;fill: #bab5b8 } 
		.s1 { opacity: .7;fill: #beb4ab } 
		.s2 { opacity: .7;fill: #726964 } 
		.s3 { opacity: .6;fill: #cac2bf } 
		.s4 { opacity: 1;fill: #405966 } 
		.s5 { opacity: .8;fill: #768085 } 
		.s6 { opacity: 1;fill: #4d6473 } 
		.s7 { opacity: 1;fill: #6c7987 } 
		.s8 { opacity: .3;fill: #d6d2ce } 
		.s9 { fill: #77828e } 
		.s10 { fill: #8d8d88 } 
		.s11 { opacity: 1;fill: #58707c } 
		.s12 { opacity: 1;fill: #656f73 } 
		.s13 { fill: #5e6f7f } 
		.s14 { opacity: .4;fill: #d1d2cd } 
		.s15 { opacity: 1;fill: #5d645e } 
		.s16 { opacity: 1;fill: #506068 } 
		.s17 { opacity: 1;fill: #334a4e } 
		.s18 { opacity: 1;fill: #605f57 } 
		.s19 { opacity: 1;fill: #2f4244 } 
		.s20 { opacity: 1;fill: #465654 } 
		.s21 { opacity: .3;fill: #a79779 } 
		.s22 { opacity: 1;fill: #525550 } 
		.s23 { opacity: .8;fill: #d0cac5 } 
		.s24 { opacity: 1;fill: #686c65 } 
		.s25 { opacity: 1;fill: #434944 } 
		.s26 { opacity: .3;fill: #67656b } 
		.s27 { opacity: .3;fill: #e6e6e5 } 
		.s28 { opacity: .7;fill: #949998 } 
		.s29 { opacity: .3;fill: #989c9b } 
		.s30 { opacity: 1;fill: #777971 } 
		.s31 { fill: #7e7f78 } 
		.s32 { opacity: 1;fill: #706a60 } 
		.s33 { opacity: .7;fill: #a59789 } 
		.s34 { opacity: 1;fill: #70736a } 
		.s35 { fill: #858680 } 
		.s36 { fill: #979693 } 
		.s37 { opacity: 1;fill: #91887d } 
		.s38 { opacity: 1;fill: #acadb5 } 
		.s39 { opacity: 1;fill: #9e978f } 
		.s40 { opacity: 1;fill: #8b95a1 } 
		.s41 { opacity: 1;fill: #808b98 } 
		.s42 { fill: #a8a39d } 
		.s43 { fill: #c8beb6 } 
		.s44 { fill: #c1b6ae } 
		.s45 { fill: #baaea5 } 
		.s46 { fill: #c6c6ca } 
		.s47 { fill: #b9bcc5 } 
		.s48 { opacity: 1;fill: #a5a3a4 } 
		.s49 { fill: #cdcac6 } 
		.s50 { fill: #d8d3cd } 
		.s51 { fill: #b2b4be } 
		.s52 { fill: #d3d2d2 } 
		.s53 { fill: #d0c9c2 } 
		.s54 { fill: #c2bfbd } 
		.s55 { fill: #b5b1af } 
		.s56 { fill: #dedbd7 } 
		.s57 { fill: #dcdbdb } 
		.s58 { opacity: .6;fill: #86776f } 
		.s59 { opacity: 1;fill: #37525c } 
		.s60 { fill: #e3e3e2 } 
		.s61 { opacity: 1;fill: #98a1af } 
		.s62 { fill: #eceae7 } 
		.s63 { fill: #f2f0ed } 
		.s64 { opacity: 1;fill: #e3dad3 } 
		.s65 { opacity: .5;fill: #e5e4e4 } 
		.s66 { opacity: 1;fill: #9e866f } 
		.s67 { fill: #dcc7b9 } 
		.s68 { fill: #95785d } 
		.s69 { fill: #886154 } 
		.s70 { fill: #e2d3c6 } 
		.s71 { opacity: 1;fill: #a99280 } 
		.s72 { fill: #cbb29a } 
		.s73 { fill: #e8e4dd } 
		.s74 { opacity: .3;fill: #d1bfa4 } 
		.s75 { opacity: .3;fill: #8c434b } 
		.s76 { opacity: 1;fill: #85796c } 
		.s77 { opacity: 1;fill: #2d3935 } 
		.s78 { fill: #e7decf } 
		.s79 { opacity: .7;fill: #e5e4e1 } 
		.s80 { fill: #b5a698 } 
		.s81 { opacity: 1;fill: #b3a47c } 
		.s82 { opacity: 1;fill: #212e2e } 
		.s83 { opacity: .8;fill: #2bbb9d } 
		.s84 { opacity: .7;fill: #635e5a } 
		.s85 { opacity: .5;fill: #707987 } 
		.s86 { opacity: .4;fill: #25a856 } 
		.s87 { opacity: .6;fill: #a39a99 } 
	</style>
	<g id="Background">
		<path id="Path 0" class="s0" d="m126 511h1v1h-1z"/>
		<path id="Path 1" class="s1" d="m499 382l1-2h5v2z"/>
		<path id="Path 2" class="s2" d="m505 382v-2h15v2z"/>
		<path id="Path 3" class="s3" d="m520 382v-2h3l-1 6z"/>
		<path id="Path 4" class="s4" d="m490 384l9-2h6 15l2 4-3 2-5 3-2 2-4 3h-1-5l-12-1-6 1h-8v-7l4-2h1z"/>
		<path id="Path 5" class="s5" d="m467 391l7-2-5 3z"/>
		<path id="Path 6" class="s6" d="m469 392l5-3h2v7h-6z"/>
		<path id="Path 7" class="s7" d="m457 395l10-4 2 1 1 4v12 8l-4 3-15-3-3-14 5-1 1-4z"/>
		<path id="Path 8" class="s6" d="m490 395l12 1v5l-6 7h-6l-2-6z"/>
		<path id="Path 9" class="s8" d="m453 397l4-2-3 2z"/>
		<path id="Path 10" class="s7" d="m484 396l6-1-2 7h-4z"/>
		<path id="Path 11" class="s9" d="m470 408v-12h6 8v6z"/>
		<path id="Path 12" class="s10" d="m502 401v-5h5z"/>
		<path id="Path 13" class="s11" d="m449 399l3-2h1 1l-1 4-5 1v-3z"/>
		<path id="Path 14" class="s12" d="m436 404l12-5v3l3 14-1 6h-6-14l-3-13 2-2z"/>
		<path id="Path 15" class="s13" d="m470 408l14-6h4l2 6h6l-12 10-2 1-1-3h-11z"/>
		<path id="Path 16" class="s14" d="m426 409l3-2-2 2z"/>
		<path id="Path 17" class="s15" d="m410 415l16-6h1l3 13h14l-2 14 9 8-5 5-4-3h-6l-1 3-13 3h-5l-7-8h-18l-5 6h-18l-5-6h-4l-2-12 1-2h4l4-1h6l3-2h2l3-1 2 4 1-4 3-1 11 1v-6l5-1 3-2z"/>
		<path id="Path 18" class="s16" d="m450 422l1-6 15 3-6 5z"/>
		<path id="Path 19" class="s17" d="m466 419l4-3h11l1 3v1l-8 1 2 19v2h-6l-10-8v-10z"/>
		<path id="Path 20" class="s1" d="m482 419l2-1v6l7 6-6-2-3-8z"/>
		<path id="Path 21" class="s18" d="m387 424l11-4v6l-11-1z"/>
		<path id="Path 22" class="s19" d="m476 440l-2-19 8-1 3 8 6 2 9 4 2 8-18-1z"/>
		<path id="Path 23" class="s20" d="m451 444l-9-8 2-14h6l10 2v10l10 8v4 4h-4z"/>
		<path id="Path 24" class="s21" d="m378 427l9-3v1l-3 1h-3z"/>
		<path id="Path 25" class="s22" d="m384 426l-1 4-2-4z"/>
		<path id="Path 26" class="s23" d="m353 432l6-2-1 2z"/>
		<path id="Path 27" class="s24" d="m341 434l7-2h5 5l2 12-12 2-13-2-23 2v-7l4-1 3-1 3-1 9-1z"/>
		<path id="Path 28" class="s7" d="m914 434l11-2h5v8l1 11 3 2-2 8-6 7h-4l-21-24 4-5h4l2-5z"/>
		<path id="Path 29" class="s6" d="m930 440v-8h12l5 4v2l-2 2z"/>
		<path id="Path 30" class="s25" d="m502 442l-2-8h2l11 2 6 1h1l7 1 1 8h-8z"/>
		<path id="Path 31" class="s26" d="m513 436l-11-2 11 1z"/>
		<path id="Path 32" class="s8" d="m901 435l5-1-2 1z"/>
		<path id="Path 33" class="s4" d="m904 435l2-1h5l-2 5h-4z"/>
		<path id="Path 34" class="s27" d="m513 436v-1l6 2z"/>
		<path id="Path 35" class="s6" d="m894 437l7-2h3l1 4-4 5-20 2v-2l4-3 4-2h2z"/>
		<path id="Path 36" class="s8" d="m311 439l5-2v1l-4 1z"/>
		<path id="Path 37" class="s26" d="m316 438v-1h3z"/>
		<path id="Path 38" class="s26" d="m527 438l-7-1 10 1z"/>
		<path id="Path 39" class="s20" d="m528 446l-1-8h3l8 1 8 1h6l4 2v8l-22-2z"/>
		<path id="Path 40" class="s28" d="m945 440l2-2-1 4h-1z"/>
		<path id="Path 41" class="s15" d="m285 444l10-4 16-1h1v7l-6 2h-8l-1 6-10 2-3-2v-8z"/>
		<path id="Path 42" class="s29" d="m882 441l7-2-4 2z"/>
		<path id="Path 43" class="s22" d="m476 442v-2l8 1v3h-8z"/>
		<path id="Path 44" class="s23" d="m556 442l-4-2 9 2z"/>
		<path id="Path 45" class="s15" d="m934 453l-3-2-1-11h15v2l-3 4-4 4z"/>
		<path id="Path 46" class="s30" d="m484 444v-3l18 1 18 4 2 13-3 4-28-1-7-2v-4z"/>
		<path id="Path 47" class="s31" d="m876 444l6-3h3l-4 3z"/>
		<path id="Path 48" class="s32" d="m470 446v-4h6v2z"/>
		<path id="Path 49" class="s22" d="m556 450v-8h5 5l5 2h2v1l-1 11h-5l-1-3z"/>
		<path id="Path 50" class="s27" d="m942 446l3-4h1z"/>
		<path id="Path 51" class="s33" d="m278 447l7-3-1 2z"/>
		<path id="Path 52" class="s34" d="m312 446l23-2 13 2v6l-5 3-9-1-12-3-2 9-7 3-7-8v-7z"/>
		<path id="Path 53" class="s31" d="m348 446l12-2h4l5 6-1 4h-10l-10-2z"/>
		<path id="Path 54" class="s30" d="m387 450l5-6h18l7 8-12 4h-13v-4z"/>
		<path id="Path 55" class="s34" d="m446 449l5-5 15 6v8l-8 1-3-3h-9v-2z"/>
		<path id="Path 56" class="s34" d="m470 446l6-2h8v12h-8l-6-6z"/>
		<path id="Path 57" class="s0" d="m573 445v-1l9 3z"/>
		<path id="Path 58" class="s7" d="m868 447l6-3h2v4l-6 10-22 4v-4l-5 1 1-2 4-2 7-5z"/>
		<path id="Path 59" class="s11" d="m876 448v-4h5v2z"/>
		<path id="Path 60" class="s9" d="m881 446l20-2 21 24h4l-4 3-12 1-7-3-10-11-17 2-6-2 6-10z"/>
		<path id="Path 61" class="s20" d="m572 456l1-11 9 2h2l5 2h2l10 3h2l3 2h3l1 2v8h-18l-11-2z"/>
		<path id="Path 62" class="s22" d="m278 447l6-1v8l-4 2h-6v-7l2-2z"/>
		<path id="Path 63" class="s30" d="m435 449l1-3h6l4 3v5h-7z"/>
		<path id="Path 64" class="s32" d="m522 459l-2-13h8l6 2v13z"/>
		<path id="Path 65" class="s8" d="m273 449l3-2-2 2z"/>
		<path id="Path 66" class="s24" d="m297 454l1-6h8v7z"/>
		<path id="Path 67" class="s34" d="m534 461v-13l22 2 10 3 1 3-1 4-30 2z"/>
		<path id="Path 68" class="s18" d="m266 452l6-3h1 1v7l-8 2-3-4z"/>
		<path id="Path 69" class="s10" d="m369 450h18l5 2v4 10h-10l-2 4-12-4-8-2-2-2v-8h10z"/>
		<path id="Path 70" class="s35" d="m422 452l13-3 4 5h7v2 6l-15 1-3 4h-2v-9l-4-2z"/>
		<path id="Path 71" class="s30" d="m466 458v-8h4l6 6v4z"/>
		<path id="Path 72" class="s30" d="m320 460l2-9 12 3v3l-5 4z"/>
		<path id="Path 73" class="s35" d="m343 455l5-3 10 2v8h-15z"/>
		<path id="Path 74" class="s10" d="m405 456l12-4h5v4l4 2v9l-3 3-7-2-2-4-9-1z"/>
		<path id="Path 75" class="s0" d="m254 457l7-3-4 3z"/>
		<path id="Path 76" class="s15" d="m257 457l4-3h2l3 4 8-2h6v4l-2 11h-7l-8-4-6-6z"/>
		<path id="Path 77" class="s24" d="m280 456l4-2 3 2v4h-7z"/>
		<path id="Path 78" class="s30" d="m287 456l10-2 9 1 7 8-1 6-6-2-8 2-12-1 1-8z"/>
		<path id="Path 79" class="s31" d="m334 457v-3l9 1v7l-1 1-6-1z"/>
		<path id="Path 80" class="s0" d="m610 456l-1-2 8 3z"/>
		<path id="Path 81" class="s36" d="m392 466v-10h13v7l9 1 2 4-5 7-7-1-7-8z"/>
		<path id="Path 82" class="s10" d="m446 462v-6h9l3 3v6l-8 1z"/>
		<path id="Path 83" class="s37" d="m476 460v-4h8v4l-3 2z"/>
		<path id="Path 84" class="s30" d="m566 460l1-4h5l9 6-1 8h-10-2z"/>
		<path id="Path 85" class="s22" d="m610 464v-8l7 1h2l5 2 11 3 1 2-2 12h-4l-11-2-6-1z"/>
		<path id="Path 86" class="s24" d="m249 459l5-2h3v4l6 6 8 4-9 5h-13l-1 3h-5l-11 2-4-5 2-7 8-5z"/>
		<path id="Path 87" class="s38" d="m320 460l9 1 5-4 2 5 6 1v2 9h-24l-6-5 1-6z"/>
		<path id="Path 88" class="s8" d="m841 459l3-2-1 2z"/>
		<path id="Path 89" class="s39" d="m458 459l8-1 10 2 5 2 3-2 7 2-10 14h-11l-7-2-3-1-2-8z"/>
		<path id="Path 90" class="s22" d="m843 459l5-1v4h-2-3z"/>
		<path id="Path 91" class="s40" d="m848 462l22-4 6 2-4 6v8h-11l-1-2-12 2-9 2-5 6-7-7v-4l12-4 5 1 2-6z"/>
		<path id="Path 92" class="s41" d="m876 460l17-2 10 11 7 3 12-1-25 24 3-9-14 2h-8v-7l-6-7v-8z"/>
		<path id="Path 93" class="s36" d="m519 463l3-4 12 2 2 1v6 4l-14-2z"/>
		<path id="Path 94" class="s18" d="m829 464l12-5h2v3l-4 5-12 4-5 1v-4-1h1z"/>
		<path id="Path 95" class="s34" d="m278 471l2-11h7l-1 8z"/>
		<path id="Path 96" class="s35" d="m536 462l30-2 2 10-32-2z"/>
		<path id="Path 97" class="s36" d="m342 463l1-1h15l2 2-1 2-12 2-5-3z"/>
		<path id="Path 98" class="s42" d="m428 467l3-4 15-1 4 4 8-1 2 8-12 1h-15z"/>
		<path id="Path 99" class="s42" d="m481 476l10-14 28 1 3 7 14 2 34 6h8l2-3 6 1 5 11-4 3-77-6h-12l-9-3-4-5z"/>
		<path id="Path 100" class="s35" d="m580 470l1-8 11 2v7h-4l-2 5-6-1z"/>
		<path id="Path 101" class="s8" d="m636 464l-1-2 4 2z"/>
		<path id="Path 102" class="s41" d="m839 467l4-5h3l-2 6z"/>
		<path id="Path 103" class="s33" d="m228 469l10-5-8 5z"/>
		<path id="Path 104" class="s42" d="m359 466l1-2 8 2v4h-5z"/>
		<path id="Path 105" class="s34" d="m592 471v-7h18l3 9-2 2-9 1z"/>
		<path id="Path 106" class="s20" d="m634 476l2-12h3l4 1 4 2 4 2 8 3 5 2 2 2v5l-15 1-3-1-2-3h-8z"/>
		<path id="Path 107" class="s43" d="m342 474v-9l5 3 12-2 4 4h5l2 6 10-2 6 2-1 4-8 4h-14l-6-6h-11z"/>
		<path id="Path 108" class="s44" d="m368 470v-4l12 4v4l-10 2z"/>
		<path id="Path 109" class="s45" d="m380 470l2-4h10 5l7 8-6 3-12-1-6-2z"/>
		<path id="Path 110" class="s46" d="m298 469l8-2 6 2 6 5v6h-4l-2 4-24 4-18 8-5 8-13 2 2-10 10-3 9-11 15-2 10-8z"/>
		<path id="Path 111" class="s43" d="m423 470l3-3h2l5 7h15v6l-7 6h-13l-2-2-4-4z"/>
		<path id="Path 112" class="s29" d="m818 469l4-2v1z"/>
		<path id="Path 113" class="s47" d="m278 471l8-3 12 1v3l-10 8-15 2-9 11-10 3-2 10-9 5-11 1-6-8 1-8 5-2h12l10-9h6l2-9 9-5z"/>
		<path id="Path 114" class="s45" d="m411 475l5-7 7 2-1 10h-6v-4z"/>
		<path id="Path 115" class="s39" d="m536 472v-4l32 2h2v8z"/>
		<path id="Path 116" class="s15" d="m818 469l4-1v4l-9 5-16 3v-4l1-1 11-3 8-3z"/>
		<path id="Path 117" class="s33" d="m216 474l11-5-5 4z"/>
		<path id="Path 118" class="s32" d="m222 473l5-4h1 2l-2 7z"/>
		<path id="Path 119" class="s36" d="m570 478v-8h10v5l-2 3z"/>
		<path id="Path 120" class="s36" d="m586 476l2-5h4l10 5 9-1 7 3 1-4 11 2v6l-10 3-2 7h-19l-4-5h-4z"/>
		<path id="Path 121" class="s48" d="m822 472l5-1v4l7 7-1 12-3 1v4 8l-7 1-1 10-5 6h-9l2-31-9-2-7-6 3-5 16-3z"/>
		<path id="Path 122" class="s31" d="m848 474l12-2 1 2-1 4-11 4z"/>
		<path id="Path 123" class="s34" d="m216 474l6-1 6 3 4 5-2 3-21 5-4-9v-2l3-1 5-2z"/>
		<path id="Path 124" class="s44" d="m448 474l12-1 3 1v8l-5 2h-6l-4-4z"/>
		<path id="Path 125" class="s10" d="m611 475l2-2 6 1-1 4z"/>
		<path id="Path 126" class="s49" d="m318 480v-6h24l4 4h11l6 6h14l-3 6h-4l-32-4-2-4-12 2z"/>
		<path id="Path 127" class="s50" d="m386 476l12 1 6-3 7 1 5 1v4l-10 3v7h-5l-3 4-28 2v-6h4l3-6 8-4z"/>
		<path id="Path 128" class="s45" d="m463 482v-8l7 2v4z"/>
		<path id="Path 129" class="s0" d="m666 476l-2-2 7 3z"/>
		<path id="Path 130" class="s35" d="m834 482l5-6 9-2 1 8-4 7-10 5h-2z"/>
		<path id="Path 131" class="s9" d="m849 482l11-4 1-4h11l6 7v7l-6 3h-15l-6 5-4 11h-17v-8h4l1-5 10-5z"/>
		<path id="Path 132" class="s0" d="m789 477l6-2v1z"/>
		<path id="Path 133" class="s26" d="m795 476v-1h3l-1 1z"/>
		<path id="Path 134" class="s51" d="m243 479h5l1-3h13l-2 9h-6l-10 9h-12v-5l8-3z"/>
		<path id="Path 135" class="s44" d="m470 480v-4h11 4l4 5-2 7h-15z"/>
		<path id="Path 136" class="s10" d="m630 482v-6h4l4 2v4z"/>
		<path id="Path 137" class="s22" d="m666 481v-5l5 1 1 1-2 5z"/>
		<path id="Path 138" class="s12" d="m789 477l6-1h2v4l-3 5-12 3-2-2v-7l6-2z"/>
		<path id="Path 139" class="s29" d="m672 478l-1-1 4 1z"/>
		<path id="Path 140" class="s0" d="m779 479l7-2-6 2z"/>
		<path id="Path 141" class="s28" d="m193 484l12-6v2l-6 3h-2z"/>
		<path id="Path 142" class="s37" d="m638 482v-4h8l2 3-3 3z"/>
		<path id="Path 143" class="s30" d="m670 483l2-5h3l4 1 1 2v6l-3 3h-3z"/>
		<path id="Path 144" class="s38" d="m232 481l11-2-3 7-8 3v5l-5 2-1 8-14 2v-6l-9-4 6-7 21-5z"/>
		<path id="Path 145" class="s29" d="m680 481l-1-2 7 3z"/>
		<path id="Path 146" class="s0" d="m763 480l10-1-8 2z"/>
		<path id="Path 147" class="s34" d="m765 481l8-2h3v7l-1 11-3 1-8-8v-8z"/>
		<path id="Path 148" class="s24" d="m776 486v-7h3 1v7z"/>
		<path id="Path 149" class="s24" d="m199 483l6-3 4 9-6 7-3 5-4 1h-6-7l-1-5-7-4v-2l4-2h2l3-2 6-1h1v5l5 1 4-4z"/>
		<path id="Path 150" class="s52" d="m252 506l13-2 5-8 18-8 24-4 2-4h4l6 4 12-2 2 4 32 4v6 8h-20l-7-10h-8l-3-4h-13l-7 6-8 2-6-2-11 2-9 8v8l-11 5-30 1-5-4v-4l11-1z"/>
		<path id="Path 151" class="s52" d="m406 490v-7l10-3h6l4 4 1 2-4 5z"/>
		<path id="Path 152" class="s52" d="m441 486l7-6 4 4h6v6h-12z"/>
		<path id="Path 153" class="s49" d="m463 482l7-2 2 8-3 2h-11v-6z"/>
		<path id="Path 154" class="s35" d="m651 482l15-1 4 2 4 7-4 4-3-3h-9z"/>
		<path id="Path 155" class="s28" d="m761 482l2-2 2 1-1 1z"/>
		<path id="Path 156" class="s49" d="m487 488l2-7 9 3v8l-2 4h-6z"/>
		<path id="Path 157" class="s42" d="m638 482l7 2 3-3 3 1 7 9-2 7-12 2-24-4-2-4 2-7 10-3z"/>
		<path id="Path 158" class="s31" d="m680 487v-6l6 1h2v7z"/>
		<path id="Path 159" class="s37" d="m688 489v-7l8 2v8h-4z"/>
		<path id="Path 160" class="s41" d="m748 484l8-2-2 8h-6z"/>
		<path id="Path 161" class="s31" d="m754 490l2-8h5 3v8z"/>
		<path id="Path 162" class="s10" d="m193 484l4-1-6 3h-1l1-2z"/>
		<path id="Path 163" class="s15" d="m191 486l6-3h2l1 5-4 4-5-1z"/>
		<path id="Path 164" class="s8" d="m184 487l7-3-1 2z"/>
		<path id="Path 165" class="s50" d="m427 486l-1-2 2 2z"/>
		<path id="Path 166" class="s53" d="m498 492v-8h12v8z"/>
		<path id="Path 167" class="s54" d="m510 492v-8l77 6-3 8h-14-6-12l-6-4-6 2z"/>
		<path id="Path 168" class="s10" d="m696 492v-8l8 1 2 1v8l-2 1z"/>
		<path id="Path 169" class="s10" d="m743 485l5-1v6l-2 2-3-2-5 2-8-2v-4h7z"/>
		<path id="Path 170" class="s29" d="m706 486l-2-1h33v1h-7z"/>
		<path id="Path 171" class="s26" d="m737 486v-1h6z"/>
		<path id="Path 172" class="s55" d="m782 488l12-3 7 6 9 2-2 31v2h-12l-7-4-7-14-12-4h-14-10v-6-6l2-2h6 10l8 8 3-1 6-2z"/>
		<path id="Path 173" class="s56" d="m406 490l17 1 4-5h1 13l5 4h12 11l7 8v6l-12 4-43-2-7 12-18-4-2-4-22-2-2-4v-8l28-2 3-4z"/>
		<path id="Path 174" class="s36" d="m706 494v-8h24v4l-6 5z"/>
		<path id="Path 175" class="s39" d="m775 497l1-11h4l2 2-1 7z"/>
		<path id="Path 176" class="s4" d="m886 488l14-2-3 9-2 1h-9z"/>
		<path id="Path 177" class="s49" d="m587 490l4-3h4l4 5h19l2 4 24 4v8h-16l-7-4-12 7-23-1-2-12z"/>
		<path id="Path 178" class="s55" d="m677 490l3-3 8 2 4 3v7l-2 2-8-4z"/>
		<path id="Path 179" class="s50" d="m469 490l3-2h15l3 8v8h-14v-6z"/>
		<path id="Path 180" class="s6" d="m872 491l6-3h8v8 6l-7 4 1 11-4 13-8 6h-6l-16-2v-8h10l14-8 2-12z"/>
		<path id="Path 181" class="s29" d="m172 491l7-2-4 2z"/>
		<path id="Path 182" class="s57" d="m232 516l5 4 30-1 11-5v-8l9-8 11-2 6 2 8-2 7-6h13l3 4h8l7 10h20l2 4-6 10-15-4-3 4h-19l-12 8-22-6-8 11-6 3-1 6-12 2v14l-4 4h-3l-5-8h-5l-4-5v-4l-5-1v-5l-6-2-13-17z"/>
		<path id="Path 183" class="s54" d="m670 494l4-4h3l5 7 8 4-3 7h-11l-6-4z"/>
		<path id="Path 184" class="s55" d="m724 495l6-5 8 2v6l-2 2-9-1z"/>
		<path id="Path 185" class="s48" d="m738 492l5-2 3 2v6h-8z"/>
		<path id="Path 186" class="s7" d="m830 507h17l4-11 6-5h15v15h-11l-6 11-8 1-2 4h-16l-7-4 1-10z"/>
		<path id="Path 187" class="s35" d="m166 494l6-3h3v2z"/>
		<path id="Path 188" class="s55" d="m656 498l2-7h9l3 3v10h-4l-4-5z"/>
		<path id="Path 189" class="s50" d="m496 496l2-4h12l30 4v12l-18 1-2-4-22-3z"/>
		<path id="Path 190" class="s45" d="m692 499v-7h4l8 3v8z"/>
		<path id="Path 191" class="s12" d="m166 494l9-1 7 4 1 5-5 3-12 2-8-1-1-8v-1l7-3z"/>
		<path id="Path 192" class="s8" d="m156 497l8-3-7 3z"/>
		<path id="Path 193" class="s49" d="m540 496l6-2 6 4v10h-12z"/>
		<path id="Path 194" class="s54" d="m704 495l2-1 18 1 3 4 9 1v4 4l-14-4h-16l-2-1z"/>
		<path id="Path 195" class="s41" d="m830 499v-4l3-1h2l-1 5z"/>
		<path id="Path 196" class="s58" d="m895 496l2-1v19l-2-1-1-11z"/>
		<path id="Path 197" class="s47" d="m200 501l3-5 9 4v6l-6 2h-2z"/>
		<path id="Path 198" class="s56" d="m490 504v-8h6l2 6 22 3 2 4v5h-27v-6z"/>
		<path id="Path 199" class="s59" d="m886 502v-6h9l-1 6z"/>
		<path id="Path 200" class="s0" d="m153 499l3-2h1v1z"/>
		<path id="Path 201" class="s15" d="m153 499l4-1 1 8v2h-6v-4l-5-1 5-4z"/>
		<path id="Path 202" class="s50" d="m552 508v-10h12v8z"/>
		<path id="Path 203" class="s49" d="m564 506v-8h6l-1 8z"/>
		<path id="Path 204" class="s50" d="m569 506l1-8h14l2 12-15 2z"/>
		<path id="Path 205" class="s50" d="m644 500l12-2 6 1 4 5v6l-19 2-3-4z"/>
		<path id="Path 206" class="s44" d="m736 500l2-2h8v6h-10z"/>
		<path id="Path 207" class="s0" d="m143 504l9-5-5 4z"/>
		<path id="Path 208" class="s50" d="m690 501l2-2 12 4 2 1v8h-13l-6-4z"/>
		<path id="Path 209" class="s40" d="m196 502l4-1 4 7h-7z"/>
		<path id="Path 210" class="s46" d="m178 505l5-3h7l2 7-2 3h-12z"/>
		<path id="Path 211" class="s47" d="m192 509l-2-7h6l1 6z"/>
		<path id="Path 212" class="s4" d="m862 536h6l8-6 4-13-1-11 7-4h8l1 11-6 5-5 31 12 18v11l-10-2h-2l-11-3h-2l-6-1-3-1-6-3v-20l6-7z"/>
		<path id="Path 213" class="s20" d="m143 504l4-1 5 1v4l-2 4h-2l-3-1-1 7-4-1-1-8z"/>
		<path id="Path 214" class="s40" d="m137 506l4-2h2l-4 5 1 8 4 1 1-7 3 1-2 7 4-1h2v6l-8 4-10-1v-5l-6-2-1-8v-1l4-2z"/>
		<path id="Path 215" class="s46" d="m212 506l14-2 6 8v4l-9 2-17-2v-8z"/>
		<path id="Path 216" class="s60" d="m372 508l22 2 2 4 18 4 7-12 43 2 12-4h14l5 4v6l-13 4-10-2-3 4-13-1-4-3-23 2-8 6-1 8h-7l-3 4-29-8h-37l-8 6h-9l-2 4-13 2-3-4-17 4-4 6v8l-12 2h-8v-14l12-2 1-6 6-3 8-11 22 6 12-8h19l3-4 15 4z"/>
		<path id="Path 217" class="s56" d="m609 511l12-7 7 4v6h-17z"/>
		<path id="Path 218" class="s56" d="m666 510v-6h4l6 4v4z"/>
		<path id="Path 219" class="s49" d="m706 512v-8h16l14 4v8h-17l-4-4z"/>
		<path id="Path 220" class="s43" d="m736 508v-4h10 10v8 6h-4l-3-3-6 1h-7z"/>
		<path id="Path 221" class="s54" d="m756 512v-8h14l12 4 7 14-3 2h-12l-2-4-2-5z"/>
		<path id="Path 222" class="s47" d="m166 507l12-2v7 9l-4 4-4 3h-10-6l-2-4v-6l6-6h6z"/>
		<path id="Path 223" class="s51" d="m158 508v-2l8 1-2 5h-6z"/>
		<path id="Path 224" class="s60" d="m552 508l12-2h5l2 6-3 4-46-2v-5l18-1z"/>
		<path id="Path 225" class="s13" d="m845 522l2-4 8-1 6-11h11l-2 12-14 8h-10z"/>
		<path id="Path 226" class="s61" d="m150 512l2-4h6v4l-6 6h-2z"/>
		<path id="Path 227" class="s54" d="m192 509l5-1h7 2v8 11l6 5v6l-8 3v7l-4 4h-8l-4-4v-9l4-5v-7l-4-3v-4l2-8z"/>
		<path id="Path 228" class="s60" d="m628 514v-6h16l3 4-8 4z"/>
		<path id="Path 229" class="s60" d="m676 512v-4h11l6 4h13 9l4 4h17 7l1 5 8 1 20 12 1 16h-17l-1-7-8-2-8-8-11-2-3-4-13-5-14-2-3-4z"/>
		<path id="Path 230" class="s62" d="m571 512l15-2 23 1 2 3h17l11 2 8-4 19-2 10 2 19 4 3 4 14 2 13 5 3 4 11 2 8 8 8 2 1 7v4l-31 2h-15v-12l4-2-1-12-16-8-21-2h-51l-3 4-67-2-15 6h-15l-3-4-7-1-22 2-1 12 4 4 10 1 6 12-31-2-1 8-8 2h-2v-14l8-10v-4l-5-4-17 2-21-3-15 11-2 6-12 2h-39l-7-7-33 1-2-4 2-4h9l8-6h37l29 8 3-4h7l1-8 8-6 23-2 4 3 13 1 3-4 10 2 13-4h27l46 2z"/>
		<path id="Path 231" class="s41" d="m120 515l6-3h1l1 8h-6l-2-4z"/>
		<path id="Path 232" class="s52" d="m150 518l-4 1 2-7h2z"/>
		<path id="Path 233" class="s52" d="m178 521v-9h12l-2 8-8 1z"/>
		<path id="Path 234" class="s49" d="m756 518v-6l14 3 2 5z"/>
		<path id="Path 235" class="s59" d="m896 578v-11l-12-18 5-31 6-5 2 1 6 5 4 3 3 3 2 2v1l-8 5v7l4 8v11l3 2 1 21-6-1h-3l-5-2h-1z"/>
		<path id="Path 236" class="s0" d="m111 519l4-4h5v1z"/>
		<path id="Path 237" class="s50" d="m743 516l6-1 3 3v4l-8-1z"/>
		<path id="Path 238" class="s7" d="m111 519l9-3 2 4v4l-4 2-14 1v-5l6-3z"/>
		<path id="Path 239" class="s60" d="m212 538v-6l-6-5v-11l17 2 13 17 6 2v5l-3 2h-3l-2-2-12 2h-6z"/>
		<path id="Path 240" class="s52" d="m752 522v-4h4l16 2 2 4h12l1 7 9 1 3 5h5l2 11-14 3-11-17h-9z"/>
		<path id="Path 241" class="s12" d="m817 524l5-6 7 4h16l1 4v8l-8 3-1 11h-7l-2-4h-6l-1-14-3-2z"/>
		<path id="Path 242" class="s61" d="m122 524v-4h6l6 2v5l-6 1z"/>
		<path id="Path 243" class="s50" d="m180 521l8-1v4h-8z"/>
		<path id="Path 244" class="s63" d="m512 554l-6-12-10-1-4-4 1-12 22-2 7 1 3 4h15l15-6 67 2 3-4h51l21 2 16 8 1 12-4 2v12l-3 2-1-2-5-2-2-3-17-3h-14l-2 3h-5l-2-5-12-1-22 2-15 7h-13l-9 4-38-2z"/>
		<path id="Path 245" class="s64" d="m174 525l4-4h2v3l-4 3z"/>
		<path id="Path 246" class="s9" d="m98 524l6-2v5l-9 5-5-1 3-4z"/>
		<path id="Path 247" class="s46" d="m786 524l3-2 7 4v6l-9-1z"/>
		<path id="Path 248" class="s38" d="m118 526l4-2 6 4 6-1 10 1-1 8-17-2z"/>
		<path id="Path 249" class="s52" d="m144 528l8-4 2 4-2 10-4 3-5-5z"/>
		<path id="Path 250" class="s53" d="m176 527l4-3h8l4 3v7l-4 5v9l-26 4v-14h6l2-8z"/>
		<path id="Path 251" class="s42" d="m808 526v-2h9l1 4-2 2h-8z"/>
		<path id="Path 252" class="s50" d="m170 528l4-3 2 2-6 3z"/>
		<path id="Path 253" class="s51" d="m104 527l14-1 8 8 17 2 5 5v9l-17 6h-2l-1-5h-5l-1 5-15-4-3-5-8-3-1-12z"/>
		<path id="Path 254" class="s51" d="m796 532v-6h12v4l-4 7h-5z"/>
		<path id="Path 255" class="s0" d="m88 532l1-4 4-1-3 4z"/>
		<path id="Path 256" class="s8" d="m912 528v-1l14 11 1 4z"/>
		<path id="Path 257" class="s46" d="m148 541l4-3 2-10h6l2 10v14l-14-2z"/>
		<path id="Path 258" class="s49" d="m162 538l-2-10h10v2l-2 8z"/>
		<path id="Path 259" class="s36" d="m816 530l2-2 3 2 1 14v4h-2l-4-2z"/>
		<path id="Path 260" class="s17" d="m912 582l-1-21-3-2v-11l-4-8v-7l8-5 15 14-1 2-6 5 4 35-11-1h-1z"/>
		<path id="Path 261" class="s63" d="m325 538l2 4 33-1 7 7h39l12-2 2-6 15-11 21 3 17-2 5 4v4l-8 10v14l-10 1h-7l-4 4v6l-5 5-10 3-14-2-5-9h-13l-10-1-4-5-13-4h-12l-6 2-1 4h-20l-16-2-4-6-8-2 4-16z"/>
		<path id="Path 262" class="s48" d="m804 537l4-7h8v16l-4 2h-6z"/>
		<path id="Path 263" class="s38" d="m88 532l2-1 5 1 1 12h-9v-10z"/>
		<path id="Path 264" class="s65" d="m86 534v-2h2l-1 2z"/>
		<path id="Path 265" class="s0" d="m86 547v-13h1v10 3z"/>
		<path id="Path 266" class="s57" d="m773 550l-1-16h9l11 17-1 3h-16z"/>
		<path id="Path 267" class="s16" d="m837 548l1-11 8-3 16 2v5l-6 7v20h-3l-6-2-10-4-1-10z"/>
		<path id="Path 268" class="s62" d="m288 554v-8l4-6 17-4 3 4-4 16 8 2 4 6 16 2v10h-4l-8-2-11-8h-14l-9-6z"/>
		<path id="Path 269" class="s47" d="m204 548v-7l8-3 4 6-4 4z"/>
		<path id="Path 270" class="s66" d="m222 544l12-2 2 2-7 9-3-1v-4l-4-2z"/>
		<path id="Path 271" class="s67" d="m239 544l3-2 5 1v4z"/>
		<path id="Path 272" class="s33" d="m926 544l1-2 2 2v1z"/>
		<path id="Path 273" class="s55" d="m87 547v-3h9l8 3 3 5v2l-7 3-2-2-5-2-6-4z"/>
		<path id="Path 274" class="s48" d="m212 548l4-4h6v2l-3 5-3 1h-4z"/>
		<path id="Path 275" class="s68" d="m229 553l7-9h3l8 3 4 5v9z"/>
		<path id="Path 276" class="s34" d="m822 548v-4h6l2 4v4h-2z"/>
		<path id="Path 277" class="s19" d="m924 584l-4-35 6-5 3 1 8 11 6 10 4 8v1 1h-7l-2 8h-12z"/>
		<path id="Path 278" class="s23" d="m929 545v-1l10 12h-2z"/>
		<path id="Path 279" class="s62" d="m550 556l38 2 9-4h13l15-7 22-2 12 1 2 5-21 7-1-5-4-1-5 4h-10l-2 4h-18l-4 3v7h-10l-26-2h-4l-6-6z"/>
		<path id="Path 280" class="s69" d="m219 551l3-5 4 2v4z"/>
		<path id="Path 281" class="s61" d="m812 548l4-2 4 2v8h-6-2z"/>
		<path id="Path 282" class="s27" d="m86 549v-2h1v2z"/>
		<path id="Path 283" class="s42" d="m162 552l26-4 4 4v8h-6l-2-4h-14l-12 10h-12l-14-2-1-8 17-6z"/>
		<path id="Path 284" class="s51" d="m192 552h8l4-4h8v4l-4 8v6h-10l-1-5h-5v-1z"/>
		<path id="Path 285" class="s70" d="m666 551l2-3h14l17 3 2 3-4 2h-3-10l-6 6h-3z"/>
		<path id="Path 286" class="s40" d="m792 551l14-3h6v8h-6l-13-2h-2z"/>
		<path id="Path 287" class="s40" d="m820 556v-8h2l6 4v7l-5-1h-2z"/>
		<path id="Path 288" class="s24" d="m830 552v-4h7l-1 4z"/>
		<path id="Path 289" class="s44" d="m756 554v-4h17l2 4h-12z"/>
		<path id="Path 290" class="s38" d="m122 556l1-5h5l1 5z"/>
		<path id="Path 291" class="s25" d="m216 552l3-1 7 1 3 1 22 8 9 7h5l13 5 15 4 3 4-7 8-2 13-6-1h-4l-11-5h-1l-12-5-4-2-1-1-2-1-10-10-15-8-3-3-2-3z"/>
		<path id="Path 292" class="s67" d="m640 558l21-7h5l9 11-4 3-13 1h-6l-5 4-4 4 1 4-17-2-1-10 8-2z"/>
		<path id="Path 293" class="s71" d="m107 554v-2l15 4h7 2l1 8v6h-17l-6-5 1-7z"/>
		<path id="Path 294" class="s20" d="m208 560l4-8h4v11z"/>
		<path id="Path 295" class="s72" d="m251 561v-9h5l5 8h3l1 8h-5z"/>
		<path id="Path 296" class="s73" d="m480 560l1-8 31 2 38 2v6l6 6h4v8h-6l-22-6-2-4-18 1-14 1-18-4z"/>
		<path id="Path 297" class="s73" d="m596 570v-7l4-3h18l2-4h10l5-4 4 1 1 5-6 6-8 2h-8l-5 5-7 1z"/>
		<path id="Path 298" class="s9" d="m828 559v-7h2 6l1 10-4-1h-3z"/>
		<path id="Path 299" class="s44" d="m100 557l7-3 3 4-1 7z"/>
		<path id="Path 300" class="s73" d="m276 556l12-2 2 6 9 6h14l11 8v3l-7 1-22-2-9-7h-7z"/>
		<path id="Path 301" class="s71" d="m697 556l4-2 5 2z"/>
		<path id="Path 302" class="s74" d="m725 556l31-2h7v1z"/>
		<path id="Path 303" class="s0" d="m763 555v-1h12 16 2v1z"/>
		<path id="Path 304" class="s29" d="m793 555v-1l13 2z"/>
		<path id="Path 305" class="s75" d="m913 583l11 1h2z"/>
		<path id="Path 306" class="s39" d="m146 566h12l12-10h14l2 4h6v1l2 5h4 10 10l3 3-1 12-9-1h-5l-24-4-10-2-2-1-10-1-14-2z"/>
		<path id="Path 307" class="s67" d="m264 560l4-4h8l3 13-1 4-13-5z"/>
		<path id="Path 308" class="s76" d="m678 562l6-6h10l-8 5-7 2z"/>
		<path id="Path 309" class="s77" d="m686 561l8-5h3 9l1 2v4 4l4 8-5 2h-10v-6l-8-4z"/>
		<path id="Path 310" class="s23" d="m821 558l-7-2h6z"/>
		<path id="Path 311" class="s1" d="m943 566l-6-10h2l5 9v1z"/>
		<path id="Path 312" class="s8" d="m830 561l-7-3 5 1z"/>
		<path id="Path 313" class="s40" d="m208 566v-6l8 3 2 3z"/>
		<path id="Path 314" class="s62" d="m356 566l1-4 6-2h12l13 4 4 5 10 1v9l-14 1-2-4-10-2-3-6z"/>
		<path id="Path 315" class="s70" d="m472 562l8-2v4h-7z"/>
		<path id="Path 316" class="s38" d="m198 566h-4l-2-5h5z"/>
		<path id="Path 317" class="s19" d="m679 563l7-2 2 5 8 4v6h-14l-4-6z"/>
		<path id="Path 318" class="s0" d="m847 566l-9-1-5-4 4 1z"/>
		<path id="Path 319" class="s30" d="m460 563l10-1h2l1 2-3 3v11h-6l-4-2z"/>
		<path id="Path 320" class="s22" d="m671 565l4-3h3l1 1-1 7-9-1z"/>
		<path id="Path 321" class="s8" d="m707 566v-4l2 4z"/>
		<path id="Path 322" class="s35" d="m449 573v-6l4-4h7v13h-9z"/>
		<path id="Path 323" class="s66" d="m132 570v-6l14 2v4z"/>
		<path id="Path 324" class="s34" d="m470 578v-11l3-3h7l18 4 6 4v10l-9 1h-9l-12-1z"/>
		<path id="Path 325" class="s31" d="m658 566l13-1-2 4-3 3-8 2z"/>
		<path id="Path 326" class="s27" d="m944 566v-1l2 3z"/>
		<path id="Path 327" class="s73" d="m336 576v-10h20l17 2 3 6h-12l-2 10h-5l-4-6z"/>
		<path id="Path 328" class="s53" d="m512 567l18-1 2 4v4h-2l-18-1z"/>
		<path id="Path 329" class="s70" d="m596 570l10 2 7-1 5-5h8l1 10-10 2-13 3-14 1h-4v-12z"/>
		<path id="Path 330" class="s35" d="m644 578l-1-4 4-4 5-4h6v8 9l-7-2-6-2z"/>
		<path id="Path 331" class="s2" d="m711 574l-4-8h2l6 9v2z"/>
		<path id="Path 332" class="s33" d="m947 574l-4-8h1l2 2z"/>
		<path id="Path 333" class="s43" d="m498 568l14-1v6l-8-1z"/>
		<path id="Path 334" class="s64" d="m560 576v-8l26 2v12h-14l-2-6z"/>
		<path id="Path 335" class="s0" d="m862 571l-9-3h3z"/>
		<path id="Path 336" class="s10" d="m220 581l1-12 15 8 10 10h-1l-5-2h-4-1l-2-1-8-1-4-2z"/>
		<path id="Path 337" class="s54" d="m278 573l1-4h7l9 7-2 1z"/>
		<path id="Path 338" class="s17" d="m666 572l3-3 9 1 4 6h14 10v6h-11l-5 12h-2-3l-3-6-14-7z"/>
		<path id="Path 339" class="s73" d="m402 579v-9h13l5 9-2 3h-6l-1-3z"/>
		<path id="Path 340" class="s50" d="m532 574v-4l22 6v7l-14-5-6-3z"/>
		<path id="Path 341" class="s24" d="m504 582v-10l8 1 18 1v6 4l-6 3-18 1v-2l1-3z"/>
		<path id="Path 342" class="s12" d="m658 574l8-2 2 9-2 7-8-5z"/>
		<path id="Path 343" class="s71" d="m444 578l5-5 2 3h9l4 2 2 16h-16l-1-9-5-2z"/>
		<path id="Path 344" class="s64" d="m324 577v-3l8 2v8l-8-2z"/>
		<path id="Path 345" class="s78" d="m362 584l2-10h12l10 2 2 4v4l-8 1-14 1z"/>
		<path id="Path 346" class="s22" d="m530 580v-6h2l2 1v5z"/>
		<path id="Path 347" class="s19" d="m706 576l5-2 4 3 1 2 2 7h-4l-8-4z"/>
		<path id="Path 348" class="s79" d="m947 574h1v1h-1z"/>
		<path id="Path 349" class="s27" d="m948 575v-1h1v7h-1v-1z"/>
		<path id="Path 350" class="s18" d="m534 580v-5l6 3v6h-6z"/>
		<path id="Path 351" class="s26" d="m715 577v-2l2 4h-1z"/>
		<path id="Path 352" class="s70" d="m947 576v-1h1v5h-1z"/>
		<path id="Path 353" class="s44" d="m293 577l2-1 22 2 1 4h6l8 2v2 6l-4 2-15-1-8-1-9-11z"/>
		<path id="Path 354" class="s53" d="m332 584v-8h4l17 2 4 6-3 6h-16l-2-4h-4z"/>
		<path id="Path 355" class="s70" d="m554 583v-7h6 10l2 6-2 1-2 1-9 1v1h-1z"/>
		<path id="Path 356" class="s2" d="m897 579l-4 1-7-4 10 2z"/>
		<path id="Path 357" class="s77" d="m938 584l2-8h7v4 1l-7 3z"/>
		<path id="Path 358" class="s53" d="m317 578l7-1v5h-6z"/>
		<path id="Path 359" class="s80" d="m434 581l10-3v5l-10 1z"/>
		<path id="Path 360" class="s66" d="m466 594l-2-16h6l4 4 12 1v7l-5 2 4 4h-6z"/>
		<path id="Path 361" class="s22" d="m540 584v-6l14 5 4 3-3 5h-6l-3-7z"/>
		<path id="Path 362" class="s67" d="m388 580l14-1h9l1 3v7h-2l-21-1-1-4z"/>
		<path id="Path 363" class="s72" d="m412 582h6l2-3 14 2v3l-6 6-16-1z"/>
		<path id="Path 364" class="s66" d="m718 586l-2-7h1l3 4v5z"/>
		<path id="Path 365" class="s59" d="m530 584v-4h4v4z"/>
		<path id="Path 366" class="s79" d="m947 580h1v1h-1z"/>
		<path id="Path 367" class="s20" d="m287 602l2-13 7-8 9 11 8 1-1 12-11 1h-1-1-1-5l-6-2z"/>
		<path id="Path 368" class="s16" d="m666 588l2-7 14 7 3 6-8-2-1-1z"/>
		<path id="Path 369" class="s8" d="m912 583l-6-2 6 1z"/>
		<path id="Path 370" class="s28" d="m940 584l7-3-2 4z"/>
		<path id="Path 371" class="s39" d="m495 583l9-1 3 1-1 3h-10z"/>
		<path id="Path 372" class="s74" d="m570 583l2-1h14 4z"/>
		<path id="Path 373" class="s59" d="m690 594l5-12h11l8 4v10h-18z"/>
		<path id="Path 374" class="s81" d="m434 584l10-1 5 2 1 9-23 1-17 1v-7h2l16 1z"/>
		<path id="Path 375" class="s37" d="m486 590v-7h9l1 3-3 4z"/>
		<path id="Path 376" class="s21" d="m720 588v-5l2 12-3 1z"/>
		<path id="Path 377" class="s72" d="m354 590l3-6h5l4 2v10h-12z"/>
		<path id="Path 378" class="s80" d="m366 586l14-1v11h-14z"/>
		<path id="Path 379" class="s72" d="m380 585l8-1 1 4-1 8h-8z"/>
		<path id="Path 380" class="s77" d="m524 587l6-3h4 6l1 9-1 1-8 1-4 1h-2-2z"/>
		<path id="Path 381" class="s25" d="m541 593l-1-9h6l3 7-6 2z"/>
		<path id="Path 382" class="s43" d="m332 592v-6h4l2 4-2 2z"/>
		<path id="Path 383" class="s15" d="m493 590l3-4h10v2l-10 3z"/>
		<path id="Path 384" class="s21" d="m555 591l3-5h1z"/>
		<path id="Path 385" class="s17" d="m714 596v-10h4l2 2-1 8z"/>
		<path id="Path 386" class="s2" d="m248 588l-3-1h1z"/>
		<path id="Path 387" class="s82" d="m506 588l18-1v9h-3l-13 3h-1l-9-1h-1l-1-2v-5z"/>
		<path id="Path 388" class="s80" d="m388 596l1-8 21 1v7z"/>
		<path id="Path 389" class="s81" d="m336 592l2-2h16v6h-18z"/>
		<path id="Path 390" class="s77" d="m485 596l-4-4 5-2h7l3 1v5h-8z"/>
		<path id="Path 391" class="s71" d="m328 594l4-2h4v4l-4 2-3 1 2-4z"/>
		<path id="Path 392" class="s21" d="m688 595h-8l-3-3 8 2h3z"/>
		<path id="Path 393" class="s77" d="m312 605l1-12 15 1 3 1-2 4-3 2-6 3-3 2-1 1h-1z"/>
		<path id="Path 394" class="s83" d="m316 606h1v1h-1z"/>
		<path id="Path 395" class="s21" d="m427 595l23-1h16l13 2z"/>
		<path id="Path 396" class="s1" d="m688 595v-1h2l6 2z"/>
		<path id="Path 397" class="s84" d="m497 598l-9-2h8z"/>
		<path id="Path 398" class="s28" d="m508 599l13-3v2z"/>
		<path id="Path 399" class="s1" d="m521 598v-2h3 2z"/>
		<path id="Path 400" class="s29" d="m329 599l3-1-6 3z"/>
		<path id="Path 401" class="s85" d="m287 604l-6-3 6 1z"/>
		<path id="Path 402" class="s29" d="m320 604l6-3-6 5z"/>
		<path id="Path 403" class="s33" d="m317 606l3-2v2z"/>
		<path id="Path 404" class="s33" d="m301 606l11-1 3 2v1h-14v-1z"/>
		<path id="Path 405" class="s65" d="m298 606h1v1h-1z"/>
		<path id="Path 406" class="s60" d="m299 606h1v1h-1z"/>
		<path id="Path 407" class="s83" d="m300 606h1v1h-1z"/>
		<path id="Path 408" class="s86" d="m298 607h1v1h-1z"/>
		<path id="Path 409" class="s87" d="m299 607h1v1h-1z"/>
		<path id="Path 410" class="s65" d="m300 607h1v1h-1z"/>
		<path id="Path 411" class="s14" d="m315 608v-1h1 1v1z"/>
	</g>
</svg>