<svg version="1.2" xmlns="http://www.w3.org/2000/svg" viewBox="0 0 1000 1000" width="1000" height="1000">
	<title>Cyprinella_spiloptera</title>
	<style>
		.s0 { fill: #beb199 } 
		.s1 { fill: #cabec4 } 
		.s2 { fill: #d1c7d2 } 
		.s3 { fill: #daccae } 
		.s4 { fill: #e1dad2 } 
		.s5 { fill: #b2ac9d } 
		.s6 { fill: #a7a7af } 
		.s7 { fill: #c5bda6 } 
		.s8 { fill: #ada793 } 
		.s9 { fill: #a09f9a } 
		.s10 { fill: #b19e8f } 
		.s11 { fill: #c4b3a8 } 
		.s12 { fill: #9e9ba5 } 
		.s13 { fill: #d7c59d } 
		.s14 { fill: #b8aaa9 } 
		.s15 { fill: #8b8a96 } 
		.s16 { fill: #b8a685 } 
		.s17 { fill: #c8bab3 } 
		.s18 { fill: #d9d0c7 } 
		.s19 { fill: #9298a7 } 
		.s20 { fill: #cec3b0 } 
		.s21 { fill: #b7a475 } 
		.s22 { fill: #e1ca92 } 
		.s23 { fill: #d3c7bb } 
		.s24 { fill: #dabf7d } 
		.s25 { fill: #9b9487 } 
		.s26 { fill: #c5b589 } 
		.s27 { fill: #ac9d7e } 
		.s28 { fill: #c0ad7d } 
		.s29 { fill: #cfbc8f } 
		.s30 { fill: #a3956b } 
		.s31 { fill: #bcb3b8 } 
		.s32 { fill: #d7b164 } 
		.s33 { fill: #aa9176 } 
		.s34 { fill: #e2bc68 } 
		.s35 { fill: #a58757 } 
		.s36 { fill: #ba9e64 } 
		.s37 { fill: #ad935e } 
		.s38 { fill: #8a7266 } 
		.s39 { fill: #e0d4bc } 
		.s40 { fill: #ceb67c } 
		.s41 { fill: #8e825f } 
		.s42 { fill: #a08d90 } 
		.s43 { fill: #917d78 } 
		.s44 { fill: #e7c579 } 
		.s45 { fill: #e5e2e2 } 
		.s46 { fill: #6d748b } 
		.s47 { fill: #e4b053 } 
		.s48 { fill: #797780 } 
		.s49 { fill: #c3ab6f } 
		.s50 { fill: #d9d2e1 } 
		.s51 { fill: #7a8199 } 
		.s52 { fill: #7e665a } 
		.s53 { fill: #716866 } 
		.s54 { fill: #848fa1 } 
		.s55 { fill: #84837d } 
		.s56 { fill: #c2a75e } 
		.s57 { fill: #a17546 } 
		.s58 { fill: #937053 } 
		.s59 { fill: #9fa9c1 } 
		.s60 { fill: #928b73 } 
		.s61 { fill: #e3913b } 
		.s62 { fill: #7a6149 } 
		.s63 { fill: #afb0cc } 
		.s64 { fill: #e5b748 } 
		.s65 { fill: #736e85 } 
		.s66 { fill: #b2784e } 
		.s67 { opacity: 1;fill: #e3a235 } 
		.s68 { fill: #869fab } 
		.s69 { fill: #645f58 } 
		.s70 { opacity: 1;fill: #bcb297 } 
		.s71 { fill: #7185a4 } 
		.s72 { opacity: 1;fill: #62708a } 
		.s73 { fill: #54553f } 
		.s74 { opacity: .3;fill: #a49395 } 
		.s75 { opacity: .6;fill: #8b9793 } 
		.s76 { opacity: .2;fill: #d7d5d6 } 
		.s77 { opacity: .3;fill: #bbb7bc } 
		.s78 { opacity: .5;fill: #d4cdce } 
		.s79 { fill: #030203 } 
		.s80 { opacity: 1;fill: #755698 } 
		.s81 { opacity: .7;fill: #dad5d3 } 
		.s82 { opacity: .4;fill: #afa08c } 
		.s83 { opacity: .3;fill: #78979b } 
		.s84 { opacity: .9;fill: #a99e90 } 
		.s85 { fill: #5c98aa } 
		.s86 { opacity: .3;fill: #b1ab9c } 
		.s87 { opacity: 1;fill: #acada6 } 
		.s88 { opacity: .3;fill: #beb19b } 
		.s89 { opacity: .3;fill: #d7cf27 } 
		.s90 { opacity: .2;fill: #5c574b } 
	</style>
	<g id="Background">
		<path id="Path 0" class="s0" d="m569 418l11-2v2l4.5-0.5 0.5 2 1 3.5-13.5 1.5-1 2.5-3 0.5 2 2 4-0.5 1.5 0.5-1.5 1h-11.5v-12zm-155 4.5l2-0.5 2.5 5 6-1 0.5 2.5-1 4h-6.5l-3-4zm-44 2.5l2-1h7l1 0.5-1 6h-8l-1-2zm147 11l5.5-0.5 1 2 3 0.5 2 5.5-7.5 3-5-0.5zm-415.5 49.5l4-1.5 4 2 2 7-3 1-5 0.5-0.5 2.5-2.5 0.5-2.5-6.5zm199.5 5l2-5h2l0.5 8.5 2.5 2.5-1 9.5-3.5-1-2-6.5zm-246 26v-7.5l6.5 0.5 1.5 8zm448 26v-16h9.5l1 2-0.5 14zm-400-12v4h-6v-4zm360.5 12l1.5 3h5l2-2v-5h8l1 2h6l7 1 1 3v2l-4 2.5v9.5h-8.5l-4.5 4h-8l-1-2h-5.5l-2.5 4-6 2h-10.5l-4.5 4h-5v-4.5l-2-2h-3l-1-3-4-2.5 0.5-4 10.5-1 5-2h9l4-4.5 1-4.5zm-202.5 26v-3.5l4-4 11-0.5 1-2h6.5l2.5 6v5l-5 5.5v6.5l-8 0.5-4.5-3.5h-2.5l-1.5-3.5-3.5-1.5zm-34 1l-1-7h5l4 4v2l-1 2z"/>
		<path id="Path 1" class="s1" d="m437 430.5l4.5-1.5 5.5 1.5 0.5 10 16 1 2.5-5h5l2.5 1.5 1.5-3.5 8 1v9l2.5 3h4.5l2 1.5 3 11.5-1 2h-5l-2 2h-6l-8-1-4 5h-2l1-7h-8.5l-3.5-6.5-7-1.5v-7l-1.5-1.5-6.5-0.5zm-36 6l4-1.5 2 2v5.5 5.5l-2 0.5-2-1zm110 1.5l3 1.5 1-3 2-0.5-1 10 5 0.5 7.5-3 6 2.5 0.5 2.5 5-1 4 3 6-1 3 1 3 2 2 4.5 3 0.5 3 4.5 3 1.5v9l2 4v4h-6l-2-4h-8l-6.5-6h-7l-6.5 2.5-3-2.5h-11.5l-4-5-5.5-0.5v-5.5l2-2.5v-5l-2-1.5v-10zm67 22.5l0.5-6h2.5l2.5 0.5 1.5 4.5 4.5 1 3 4h18.5l2-2h5l4.5 2 9.5-0.5 2 2.5 5.5-0.5h3.5l3.5-4.5 6.5-0.5 1.5 0.5-0.5 5 3.5-0.5 2.5 3.5v4.5l-19 0.5-2-2h-25l-3-2-18.5 1-4.5-6-8.5-0.5zm141.5 11.5l13.5-0.5 3 2v2l-3 3h-20l1.5-6.5zm32 2l8 0.5 2.5 0.5 3 3.5v8h-3.5l-0.5 2h-3.5l-1.5 2-7-0.5v-5l3-5.5zm-168.5 14.5v-8h5l1.5 2h9.5l6 6v2.5l-21-0.5z"/>
		<path id="Path 2" class="s2" d="m409.5 428.5l0.5-4.5 4-1.5 0.5 6 3 4h6.5l1-4 8-1.5 1 3 3 0.5 4 14-5 7.5-1 0.5h-9v-2h-4l-3.5-1-2.5-5.5-9-1.5v-5.5l-2-2v-0.5l4-1zm66.5-0.5l3.5-4h2.5l3 8h4l2 2.5 5-2 7 8h6v10l2 1.5v5l-2 2.5v5.5l-4 1.5-3-2-0.5-5-6.5 1-3-11.5-2-1.5h-4.5l-2.5-3v-9l-8-1-1-3zm91 35.5l5.5-3h5.5l1.5 4.5 8.5 0.5 4.5 6 18.5-1 3 2h25l2 2 19-0.5 11 0.5h7l2-2h4.5l5 6h11.5 12 20l3-3v-2l15.5 0.5 0.5 5.5-3 5.5v5l-37 2.5-4-0.5-4 2.5h-4l-2-2h-19-13l-5-2h-19.5l-2.5-2h-34l-6-6h-9.5l-1.5-2h-5-2.5l-5-4h-6.5l-2-4zm-490 91v-3.5l4-0.5 2 2v4zm298 30v-8h13v3l-3 5zm564 11l1-9.5 3 2.5-1 2 2 1.5v3.5z"/>
		<path id="Path 3" class="s3" d="m923.5 401h0.5l1 9.5h-4l-1-8.5 1.5-0.5zm-834 80.5l2.5-1.5 5.5 1 3.5-1 0.5 5.5-3.5 5.5-6-1.5-1-3v-3.5zm90.5 48l5.5-6 5.5 0.5 2 2v2.5 10 10h-10zm587 20.5v-4l-9.5-5.5-0.5-6h2 14l11 9 5 1v4l-1 9zm-164-1.5l4.5-0.5 3.5-3.5h6l2-2 11.5-0.5 1.5-5.5h15l1 2h19v14l-17.5 1-12.5 3h-17.5l-6.5 5-12.5-1-2 3h-3.5l-3 3.5-8.5 1.5-4 4.5-6.5 1.5v-5.5l2.5-3 0.5-3.5h7l3.5-2h4.5l1-2h5l2-4 4-2zm-522 2v-3l3-2v-5.5l1.5-1.5h3.5l6.5 6.5 10.5 3.5 6.5 9 14.5 1 5.5 2h6.5l2.5 2.5 6.5 1.5 17 1v5h-2.5l-2 2h-14.5l-1-1.5-11-2.5-3-2.5-16-0.5-11.5-9.5-6.5-0.5-6-3h-8zm92.5 12l9.5-1.5 1 1.5 5 0.5 2 3.5h3v4l-2 1-19-1v-5l-1.5-1zm465.5 70v-7.5l4-2.5 3-10 4-4.5 5-1 1.5 6h2.5l1 1-1 1.5 0.5 2-5.5 12.5-3 1.5-3.5 13.5-8.5-0.5zm-156.5 41.5l1-5.5h6.5l4 2.5 0.5 4h-0.5l-0.5 0.5h-2l-0.5-0.5h-1-1-1-1z"/>
		<path id="Path 4" class="s4" d="m931 400.5l0.5-0.5 5.5 0.5 0.5 7.5 3.5 5h2v2.5l-4 3-1 4h-1l-5 0.5 0.5-2-2.5-2-1-8.5 2-2.5zm-242 140h14l2-2h6 16l0.5 5.5-22 1-2 0.5-6 0.5-2 0.5-6.5 0.5zm-510.5 16l2.5-0.5 2 0.5v4.5l-9.5 1.5 1.5-3zm-7.5 32v-5l5-3.5 5.5-1.5h13l4.5 3 5 0.5 5.5 7-0.5 5.5 4 3.5v5h-1zm262-8h7l0.5-2h5l2 2h12.5l1 2 11 1 7 6v7h-8.5l-4 2.5-13 1.5-2.5 2h-7l-4-4h-19l-2-13.5 7-0.5zm-58 4h10l3-5h6l1.5 2 5.5 1-0.5 8.5-4.5 1v4.5l-3 3 0.5 10 6.5 1 5 2.5 1.5 4-10.5 0.5-2.5 0.5-9 0.5-2 0.5h-5l-1.5 0.5-11 0.5-2 0.5h-3l-2 0.5h-5.5l-2 0.5h-5.5l-4 0.5h-16.5v2.5 1h-0.5l-0.5-0.5h-0.5l-1 0.5v0.5l1.5 1.5-1.5 3.5-2.5 1-4.5-1.5-2-1 3.5-1.5 1-9.5-1-4-5.5-3-1.5-3.5h-2l-0.5-5.5 2.5-5.5 4.5-0.5 2-3 9-1 1-2h15.5l9.5-2 1-2h17zm132 60l5-1 3 3.5v7.5h-7zm110 19l0.5-3.5 2.5 1.5 3-1.5 1 1 1 3.5h-3.5-0.5l-1.5-0.5z"/>
		<path id="Path 5" class="s5" d="m512.5 320l1-1.5h5.5 3l2 2v3.5l-2 4.5h-6.5l-2.5-2zm-41.5 60.5l3.5-0.5 1.5 1.5-1 4-2 1.5v3.5l2 2v12l-4 6.5v6l-18.5-1-7.5-2 1-18 6 0.5 9.5-11 4-1.5 3-3.5zm28 28h6l2.5-4h5.5l1 2-1 5-2 1.5v14l-5.5-0.5-2.5-2.5-9-0.5-2-2v-4l7-5zm-458 95v-9.5l2-1.5 5 1.5 0.5 2.5 2.5 1.5-1 8.5h-3-3zm472.5 25l17.5-4.5 6.5-3 1.5-2.5h18v3l3 4 57-1v4l-10.5 2h-12l-2.5 2-10-2-2 2-28.5 2-6 3.5-6.5 1-4 4v6.5l-11 1-1 2h-8l-2-10zm184.5-6l1-4h19l9 2h8 11l2.5 5-1.5 3h-15.5zm-71 4v-4h22l0.5 2-1.5 2zm-146 0l2-2 20 2v16l-2.5 2h-5.5l-1-3-7-1v-4l-6-2zm-29.5 4.5l15.5-0.5v6l-3.5 1v5h-8.5l-3.5-5zm-72.5 5l3.5 0.5 5.5-4 3.5 3 4.5-1 1 2v2l-2 1v19l-20-0.5v-7.5l2-14zm-20 20.5v-12h4l6 6 1 8-11 2zm-16.5-4l4.5-2h3.5l4.5 6v4l-8 2-4.5-0.5zm594 29v-0.5h3.5l-1 1.5 2 0.5-1 1.5 1 0.5-1 1-1 9.5-2 3h-4l-2-2 1-14.5 1.5 1z"/>
		<path id="Path 6" class="s6" d="m407 448v-5.5l9 1.5 2.5 5.5 3.5 1v3l-0.5 2h-4.5l-1-2h-3.5zm-248 46.5v-11h3l6.5 0.5 5 1.5 3 8.5 6.5 10v2.5 4h-5l-1-2-5-2-1-4h-4v-6l-3-2zm606-8h5.5l4.5-2h7.5l1.5 4-1.5 5-9.5 1-12-2v-4l0.5-2zm-278 10h3l1.5-2h5.5l3 6 8-0.5 5 7.5 18-1h5l2.5 3 0.5 9-1.5 2.5-6.5 3-17.5 4.5-1-2h-9.5l-20-2-2-7h-6l-1.5-0.5-0.5-3v-9.5l4-2h7l3-3zm-54 6h6.5l1.5-2 21 2 1 2 1 9 3 2 0.5 11-0.5 4-15.5 0.5-35.5-0.5-1-9.5-5-1.5-3-5h-4v-4.5l3-3v-3l3-2h6zm-46.5 9.5l2.5-0.5 4 4.5-1 4.5h-3l-2-2zm-43.5 11.5l2-1 10 1 0.5 6 6 1 2 7-0.5 7h-4l-0.5-4-5.5-5.5-7.5-0.5-0.5 9.5 2 1.5v5l-4.5 2h-7l-0.5 2h-6.5l-4.5 4-5 1.5-1 2.5h-3l-8-6h-20v-14l4.5-1 1.5-11 5.5-2.5 1 2.5 6.5-1 2.5 5h4.5l4-3.5 1 1.5 7-1 1.5 5h4.5l1.5-3 2.5-0.5 7-0.5zm-78 10.5l3.5-9.5 4.5-0.5 3 4.5-3 3.5v2.5h-8zm-42 20.5l7.5-3.5 0.5-4.5h6v6.5l-2 3.5-4 1v5h-5l-3.5-3.5z"/>
		<path id="Path 7" class="s7" d="m522.5 307.5l1-0.5h1 1 0.5l1.5 0.5-1 0.5-0.5 0.5-0.5 0.5h2l1.5 1.5 0.5 10.5-2.5 3h-3v-3.5l-2-2h-3v-9.5zm-32.5 18l3.5-4 2 0.5 5.5-4.5 1.5 1 2.5-1 1 3v5.5l-7 0.5-4 2-2-2.5zm431 87v-2h4 4l1 8.5h-6l-0.5-2.5-2.5-1zm-832 122l-15.5-8h-3l-1.5 2h-8.5l-7.5-7.5v-4.5h2l8 1h10l2 4 6 1 4 4h8l2 4h2v4zm560.5-10l48.5-2 33.5 6h15.5l1.5-3h5.5l0.5 1.5 4.5 1.5v6h-2-28l-6-2h-11.5l-0.5 2h-4l-1-5h-17.5l-0.5 3-12 1-22.5-1-6 1-0.5 3h-15l-1-2h-4l-5 2h-10l-3 2-11 0.5-3 3.5h-13.5l-4.5 2h-8.5l-6.5 6h-4l-3-3.5-2.5-0.5h-7l-4.5 3h-6v-6.5l4-4 6.5-1 6-3.5 28.5-2 2-2 10 2 2.5-2h12l10.5-2h5.5l4.5-2h21zm-290.5 32v4h-4v-4zm52 10v-8h14l4 2.5 1 3h3l2 2v4.5l-2 4h-6.5l-6.5-4h-4l-1-4zm-72-4l3.5-0.5 4.5 0.5v8h-8zm-58 19v-6.5l5-5.5v-5h13l2 1.5 2 2.5v12l-4 1h-8.5l-1.5 3h-3l-2-3z"/>
		<path id="Path 8" class="s8" d="m532 322.5l2.5-1 0.5 1.5-2.5 3 2.5-1.5 1.5 2-1 0.5-0.5 0.5-0.5 0.5-0.5 0.5-0.5 0.5-0.5 0.5-1.5 0.5-5 4-3-1.5-1.5-4 2-4.5h3l2 1zm-57.5 57.5l4-5.5h3.5l1 1.5v2l-7 3.5zm15.5 2.5l3-2 2.5 1.5 0.5 4.5v3l2.5 3h5l2 2-1.5 7-5 4v3 4l-7 5v4l-8-1-1-1.5-0.5-12.5-2.5-2h-5v-12h5zm91.5 20.5l6-2 2.5 0.5v2.5l-4.5 1 1 3-3 1-2-2.5zm309 5l5-3.5 3.5-0.5 2 2v4.5h-10zm-25.5 10l10-4.5v5h-9zm-825.5 86.5v-1h1.5l3 3h3v9.5l-6.5-0.5v-3l-1.5-1 1.5-4-0.5-0.5v-1.5zm365.5 27.5l2.5 2 5 0.5 3.5-4 35.5 0.5v6.5l3.5 5-1 4.5-4 4.5h-9l-5 2-10.5 1-0.5 4h-14-16v-19l2-1v-2h3l3-4.5zm75 6.5l1-4 6 2v4h-6zm-16.5 4v-5l3.5-1 5 2v5l-2 2h-5z"/>
		<path id="Path 9" class="s9" d="m538 337.5l2-2 3.5 1 5-3 2 1.5-1.5 2.5 0.5 1 1.5 0.5 1 0.5-4 3 0.5 1.5 6-2 1.5 0.5v2l1.5-0.5 0.5 0.5-1 0.5-1 0.5-1 0.5-5.5 3-6-2-5.5-6.5zm-39 71v-3l5-4h2l1.5 3-2.5 4zm12 18.5v-14l2-1.5 1-5h9l1.5 2.5 6.5 0.5v2.5l2 1-0.5 3-9.5 3 1 10.5-2.5 1v0.5 0.5l-4.5-0.5zm-89 26.5v-3h4v2zm-263 51v-10h5l3 2v6 2h-4zm34 2l1-6h3l3 7 2 1-2 3.5-4-4.5zm501-1l10.5-1.5 4 5.5 4.5 1 1 2 13 1v7l-9-2h-19l-1 4-48.5 2-0.5-2h-22-9.5l-0.5 2-57 1-3-4v-3l2-4h13l1.5-2 10 2 25.5-1 36 1 1.5-2 11.5 1 7.5-2 15.5-1 10.5 0.5 2.5-2zm-455.5 4l0.5-5h4l1 6zm-145.5 17v-6h8l2 4v6h-6-2zm160 18v-21h2l2 3 4 0.5 1.5 6 2.5 1v0.5 8l-1.5 1.5z"/>
		<path id="Path 10" class="s10" d="m380 424.5h5l2-3 5.5 0.5 5 4.5h6.5l1 2v6 0.5l-4 1.5h-16.5l-1-2-4.5 0.5v6.5l4 1v5.5l2.5 6.5-1 1.5-3 0.5-1.5 3.5-4.5-1.5h-11l-2.5 2.5-3.5-2.5h-13.5l-1.5 2h-3l-2.5-4h-9.5l-2 4-2 0.5-2.5-4-3-0.5v-4l-4-1-1-2v-4l-2-1.5-1-5.5v-6l10-1 25-1 1.5 2h7.5v5l4 2 3.5-7 2-4h5.5l1 2h8zm91 7.5l3-0.5 1 3-1.5 3.5-2.5-1.5zm-229 25l-1-11 2-1.5v-6.5l1.5-1.5h4l4.5-4h1l1 2.5 3 0.5 2.5 3h14l1 2h6.5l1.5-2 5.5-0.5 2 1 1.5 4.5 4.5 1v14.5l1.5 1.5-2 6-2.5-2-1-4h-5.5l-2 5-3-2.5h-4l-2.5 3.5-2.5 1-2.5-5h-10.5l-1 3.5-2 0.5-1.5-4h-6.5l-2.5-4zm373 1.5v-12.5l3.5 1h1.5l2.5 0.5 2 0.5h3l3.5 1.5v7l3 2h5l0.5 7.5-5.5 0.5-2-2.5-9.5 0.5-4.5-2v-3zm-395.5-6l3-4.5h4l2.5 2v6.5h-8l-1.5-1zm275.5 8l6.5-1 0.5 5 3 2v3.5l-2 2.5h-22v-8h6l2-2h5zm-366 20.5l4-3v-7.5h3l7.5 4-0.5 5-4 1-1.5 5.5-7.5-1.5zm164.5 2l-1.5-9 4.5 1.5 0.5 5v3.5l-2 0.5zm-232 26.5l2-3h5.5 5.5l1.5 3-3 1.5v6.5h-10zm140.5 29v-2h5v6h-4z"/>
		<path id="Path 11" class="s11" d="m465 432.5l1-2.5h2l1 2h2v4.5h-5zm206 36.5l6-0.5 3 4-2 2h-7zm13.5 3.5l2.5-2h10l4 2v6h-11.5zm-501.5 38v-4h10l3 1 4 4.5 3.5 18-1.5 0.5h-2l-1-2h-6v-2.5l-2-2-5.5-0.5v-0.5l0.5-1v-5.5zm72 13l-0.5-9 5-3 2.5 0.5 1.5 1.5-0.5 9.5-2 4-4-0.5zm18 0.5l-1-9.5 10 1v9l-4 4h-2zm194 6.5l0.5-4h8 5.5v8l-1 4h-8l-5-2zm28 14h5.5l2.5-2h10l2 10-4 6v4l-12 2-1-5.5-7-0.5v-9.5l4-2.5zm-40 22l6-2 2.5-4h5.5l1 2v5l-5 1.5v7.5h-5l-5-4zm-124 2v-3.5l4-2.5h4v8 4h-8z"/>
		<path id="Path 12" class="s12" d="m553 484.5v-8h8l2 4h6l1 7.5-9.5 0.5-2.5 4h-3zm-402 4l-0.5-4 2-2 6.5 1v11 10h-2.5l-1.5 2.5-7-0.5-2-3v-3.5h3.5l3-3zm358 2v-6h6v10h-6zm14 4v-3l4 1v2zm-114 7.5v-6.5l2-2.5 4 1.5v7.5zm272 8.5v-8h10l3 3v3.5l-2.5 2zm-444 0l1.5-1 5.5 1 1 4h-8zm106 13l-3.5-1-0.5-10h5l1 10zm-105 1h4l3-2.5 1.5 2.5h2.5l-3 7-1 12.5-7 0.5-1 2h-6l-2-6v-7.5zm44 0l8-0.5 3 6.5-1.5 11-4.5 1-6 0.5-8-1v-7.5-2.5l3-3.5h2zm-65 31.5v-2.5l6 1-0.5 4.5z"/>
		<path id="Path 13" class="s13" d="m908 406l1.5-2.5 1.5 1 6-3 3 0.5 1 8.5v2h-6l-2-2.5-4-0.5zm-743 73.5l0.5-3.5 2.5 0.5v4zm-63.5 6l-0.5-5.5 5 1.5-0.5 2.5zm657.5 43l17.5-4 4 0.5 4 4.5v2l4.5 3v10l-5-1-11-9h-14zm-670 10v-4h8 6l9 7 7 1v6l1.5 2h6.5v8l-14.5-1-6.5-9-10.5-3.5zm92 17.5v-6l2-1.5h10l1.5 1-1.5 1.5v8.5l2 1-1 6h-3l-2-3.5-5-0.5-1-1.5v-4.5zm490 6.5h3l6-7 4.5 0.5h1 0.5l0.5-0.5h0.5l3 0.5-0.5 1.5h-1.5-6.5l5.5 1h0.5l1 2-4.5 0.5-1 9-0.5 1-4 1v5.5l-9.5 1v-9l2-3zm-98 12l6.5-1.5 4-4.5 8.5-1.5 3-3.5h3.5l2-3 12.5 1v13l-3.5 2-0.5 2h-7.5l-2.5 4h-12l-3-2h-7.5l-5.5 5-18 1v-2-6l10.5-0.5 4-3.5zm56 70v-5.5l4-6 6-0.5v12zm-150 18h11l3-3.5v-2.5h8l2 2-0.5 15.5-1.5 0.5h-0.5l-1.5 0.5h-0.5-0.5-0.5-2-0.5-0.5l-0.5-4-4-2.5h-6.5l-1 5.5-6-2z"/>
		<path id="Path 14" class="s14" d="m447 430.5l2.5-5 2 1 1 4 5.5 0.5 1.5 1.5h5.5l1 4-2.5 5-16-1zm-61.5 24l-2.5-6.5v-5.5l-4-1v-6.5l4.5-0.5 1 2h16.5l2 11 2 1-2 4.5-4.5 0.5-3.5 6-2-1-0.5-3.5zm-88.5-10h2l4-6h8l1 5.5 2 1.5v4l-4 0.5-2 7.5-2.5 7-4-4h-3l-1.5-1.5zm243 3l0.5-4.5 6-4 3.5 10.5-6 1zm-330-4.5l1.5-2h3.5l7.5 7-3 4.5h-4.5l-4.5-3-0.5-3zm358.5 8.5l-0.5-2.5 6-6.5h2.5l1 10zm12.5 3l2.5-6.5h9.5 8.5l3.5 2.5v4l3.5 5.5 4.5 0.5v2l-2 2h-18.5l-3-4-4.5-1-1.5-4.5zm-48 18.5l6.5-2.5h7l6.5 6v8h-10l-1-2.5-6-1-2.5-2zm-212.5 34.5l0.5-7 5-1-0.5 9.5-3.5 1zm68.5-3l1.5-4h5.5l2.5 4-0.5 2-1 8-4 1.5-4-4.5zm-316 13v-6.5l3-1.5 4.5 2.5 4 4 7 2.5 1.5 2v6h-8l-4-4-6-1zm256 9v-10l2-2.5 2.5 1 1.5 11.5zm-92-8v-4h8v7.5l-3 2.5h-4zm28 24v-8h8v7.5l-2 0.5zm98.5-5h4.5l0.5-2 2.5-1 2 2h4l-2 14h-6l-6-6zm-45.5 25l1-2.5 5-1.5 4.5-4h6.5v8l-4 2.5v3.5h-6-3.5z"/>
		<path id="Path 15" class="s15" d="m411 482.5h17.5l1.5-2h3l13 2 1.5-2h17.5l6 10-2 14h-6l-1-2-21-2-2-6h-4.5l-1.5 2.5v5.5l-18-0.5v-7.5l-4-1.5zm-50 6l2.5-4h12.5l3-2h9l2 2h13v6l-2 1.5v11l-2.5 1.5-2.5-4h-5.5l-1.5 4h-7.5l-1 2h-6l-1.5 2-2-0.5 1-7-2-1.5-7 0.5-2-2.5zm136 2l1.5-7 10.5 1v6zm-156-2l2.5-4h4.5l2 1v3 3l-4 3h-5zm174 6v-10l7 0.5 1 6.5v3zm28-4v-6h10l2 8-2 2h-8zm170 20v-8h18 14.5l2.5 3 2.5 0.5 0.5 6.5-4.5 1-0.5 7h-11l-1-6-7-1-13-1zm-540 12v-2l12 1.5 0.5 1v0.5l-5.5 6-2.5 0.5zm214.5 6l1.5-5h3 5l-1 11-4.5 1-3.5-3z"/>
		<path id="Path 16" class="s16" d="m506 320.5l6.5-0.5 0.5 6.5-7-0.5zm-25 13.5l9-8.5 3 0.5 2 2.5v8h-11.5zm76 44.5l2-0.5 3.5 2 0.5 2.5 3 1v2.5l-1.5 1.5 2 0.5v0.5l-3.5 2-5 1-1-7zm-130 20l11.5-16.5 2 2.5h4.5l1 11.5-1 18-5 0.5-2-2.5h-5.5l-1.5-3.5v-6zm475 13.5l7-2.5 4 0.5 2 2.5h6v3l2.5 1 0.5 2.5-0.5 1.5h5l-9 2.5 0.5 1.5 4.5-0.5-5 2 4 2-10 3 1.5 0.5 2 0.5v1.5h-0.5l-1.5 0.5-4 1h-0.5l-4.5-6.5h-10.5l-5.5 2-1 2-5 0.5-1 3.5h-9l-1-2h-6l-14.5 6.5-0.5 3.5h-3l-3-2.5 1-9 5-5 13.5-6.5 0.5-3h9 14l11-1 2-2zm-366 17.5l1-9h3l0.5 2h9.5l0.5 2.5 2.5 1.5-0.5 3.5-0.5 1zm-233 9l0.5-8 7.5 2v6zm596 16v-9.5l1.5-1.5 6-0.5h2.5 1l1.5 1-0.5 1h2l0.5 3h-1.5l-4 1 4 0.5 2 1-6 1v3l4.5 0.5h-5l0.5 2-3 2zm-98.5-6.5l5-2.5 2.5 0.5 3 3.5v5h-14l-1-5 2.5-1zm-641.5 27.5l6-1 0.5 1.5-0.5 3.5h-3l-10-3 0.5-1.5zm9 1h20l3.5 5.5v9l2 6.5 0.5 3-1 6h-10v-2.5l-6.5-10-3-8.5-5-1.5-0.5-3.5zm-88 24l6-1 2.5 5 4 2.5 4.5-1 2-2.5 3.5 1 1.5 8.5-4 3.5 1 4h-8l-1.5-2-7-2.5-4-4zm823.5 50.5l-14.5-13.5-6-2.5-1.5-3-2.5-1-2-4v-6l2-1h5.5l-0.5 1h2.5l0.5 2-5 0.5 0.5 1 8-0.5h1l1.5 0.5 1.5 0.5h-1.5l-9.5 0.5 1 2 7-1 0.5 1h1.5 2.5l1-0.5h0.5l1 1h-3-1.5l0.5 1.5h-1.5l-1.5 0.5 1 0.5h2l1 1-4 0.5 0.5 1 4.5-0.5h3.5l0.5 1-3 0.5 3 0.5v1.5l-5 1 7 0.5-3 1.5 1.5 0.5-4 2 4.5 0.5h2 0.5v1l-2.5 0.5 2 1h4.5l-1 1.5-3-0.5-0.5 1.5 6.5 1v0.5l-3.5 1 3.5 0.5 3.5 0.5v0.5zm-769.5-10.5l0.5-2 10.5-1 10 1v10h-18l-0.5-5.5zm100 30l1-2h26v5l3.5 1.5 1.5 3.5h2.5l4.5 3.5v8.5l-20.5-6-2-2h-3.5l-1-6-9.5-2.5zm685 33.5l-2-29 3-3.5 4.5 1-1.5 2 3.5 0.5 2.5 1-6.5 1 8 1.5-1.5 1.5 2.5 1.5 0.5 0.5-1 14.5 2 2v4h-3.5l-0.5 2.5z"/>
		<path id="Path 17" class="s17" d="m528.5 308.5l0.5-0.5 2 0.5v1.5l-2 0.5-1.5-1.5zm129 157.5l4-4.5 6.5-1 1 1-1 6 3 1.5v5.5l-11-0.5v-4.5zm43.5 6.5h3l2.5-4h5l3 3.5-1.5 6.5h-12zm64 14v-8l8.5 1.5 1.5 4.5-4.5 2zm-718 29.5v-9.5h3l0.5 1.5 3-0.5 1.5 1.5v7.5h-2zm259 13.5l1-7h2l1-4 4-2 2.5 7 0.5 7.5-4 3.5h-4.5zm55.5 1l2-9.5 3.5-4.5h2l2 18-2.5 1-0.5 2h-4.5zm-71.5-6.5v-2.5l3-4 4.5-0.5 1.5 4-0.5 7-5.5 2.5zm-41 0.5l4-1v21l-8-0.5 1-12.5zm76 7v-4l4-1h6v6.5l-2.5 0.5-1.5 3h-4.5zm-61.5 12.5l1.5-1.5h6v6h-4.5zm20 14.5l3.5-2h20l8 6h3l3.5 6h3.5v7 2.5l-2.5 2.5h-19.5v-12l-2-2.5-2-1.5h-13zm86.5 0l5-0.5 20 0.5h16v8 4h-18.5l-4 3-0.5 3h-13l-20-0.5-6-1.5v-3l-2-1v-8l8-2h4zm100 4h8l4.5-4h8.5l7 0.5 1 5.5h-6.5l-3.5 4h-5.5l-1 2.5-3.5 1.5v4h-14v-7.5l5-1.5zm-30 8l4.5-4h10.5v6l5 4v4h-12.5l-2-2h-5zm460.5 37.5l0.5-6 8 2.5 4 1.5-0.5 5z"/>
		<path id="Path 18" class="s18" d="m372 424l2.5-3.5 4-0.5 0.5 4zm124 8.5l5.5-3 3.5 3-1 4.5 3.5-3.5h4l-0.5 4.5-2 2.5h-6zm193 108v-6h16v4l-2 2zm-638.5 0.5l1-2.5h5.5l-0.5 6zm32.5 15.5v-4h8l6 3 6.5 0.5 11.5 9.5 16 0.5 3 2.5 11 2.5 1 1.5h14.5l2-2h2.5 8l19 1v3l2.5 2v2h-13l-5.5 1.5-5 3.5v5l-24-9.5-29.5-8.5zm305 20l0.5-3 4-3h18.5 5 4l6.5 4h6.5v6l-7 4-7 0.5 2 13.5-5 4-13.5 1-2.5 2.5v4.5l-6.5-1-0.5-10 3-3v-4.5l4.5-1 0.5-8.5-5.5-1-1.5-2h-6zm-49 0h8l2-2 6 1.5 20 0.5v8l-6 2h-17l-1 2-9.5 2h-15.5l-1 2-9 1-2 3-4.5 0.5-2.5 5.5h-6v-7l6-4.5 2-6.5h24l6-4zm121 4v-4h5 14l17 1 6-1 5 6.5 3 1.5 1.5 6 7.5 0.5 4 3.5-2.5 8.5-2 1.5-3-1-1-7-4.5-2-4-6-27 1-7-6-11-1zm-247 22.5v-5l-4-3.5 0.5-5.5 4.5 1 4.5 7.5 13 9.5 3.5 0.5 2.5 4 4 0.5v2l-3.5-0.5-10.5-6-13-3.5-1-0.5zm706 1l10 1 0.5-2.5h3.5l2 1v7l-3.5 0.5 0.5 1.5-19.5-1.5 0.5-5 6.5 1zm-418 42.5l4-2h2l1 10-1 4h-4l-2-2z"/>
		<path id="Path 19" class="s19" d="m555 492.5h3l2.5-4 9.5-0.5 13 0.5 1 2 21 0.5 2.5 2.5 5 1 2.5 3.5 25 0.5 5.5 2h20.5l6 2h7 2v8l-15.5 1-7.5 2-11.5-1-1.5 2-36-1-25.5 1-10-2-1.5 2h-13l-2 4h-18l-0.5-9-2.5-3h-5v-7l-4-5v-2l16-2 2 4h8zm-86 12l2-14h9l7 6v3l-3 3h-7l-4 2zm262-2l1-4h17l1-2h6l2-3 3-1 12 2-0.5 8.5-22 3-2.5-0.5-2.5-3zm-26.5 1.5l1-1.5 5.5-0.5 2 0.5v8l-4.5-1zm-360.5 8.5v-3.5l2-1 17 0.5v1l-2.5 4-0.5 6-5 4-10-1zm23-2l3-0.5 1-2 2 0.5 0.5 9.5 3 3.5 2.5 0.5 0.5 6.5-0.5 7.5-2 0.5h-4l-2-2-2-18h-2zm26 5.5l4-1.5h6 4l3 5 5 1.5 1 9.5-3.5 4-5-0.5-2.5-2-2-10.5-5 0.5-1 1.5h-5v-3zm-178 27.5l6-1 1.5-2h6.5l2 6-0.5 4.5-7.5 3.5-6-1-2-7zm56-1l2-0.5 8 1v2l-5 4.5-5-1z"/>
		<path id="Path 20" class="s20" d="m505 317.5l3-3.5 11-5v9.5h-5.5l-1 1.5-6.5 0.5zm-404.5 180l2.5-0.5 0.5 4.5-1 3-3.5-1zm366.5 18l6-1.5 0.5 3 1.5 0.5 0.5 9h-8zm-445.5 5l3.5-5.5 15.5 0.5 6.5 0.5 6 0.5v4.5l7.5 7.5h8.5l1.5-2h3l15.5 8v4h-3.5l-1.5 1.5v5.5l-3 2v3l-4 0.5v3.5l-20.5-10 0.5-6v-4.5l-8.5-7-6-0.5-3 2-0.5 6-12.5-5.5-4-4.5-1-3.5zm375.5 3l1-1.5 5-0.5 2 10.5h-2l-3 4.5h-3l-1-2zm-211.5-0.5l-0.5-1h1zm193.5 13l0.5-7.5h8l0.5 4-5.5 4zm309-3.5l0.5-3h17.5l1 5h-2-16zm-41 4l0.5-3 6-1 22.5 1-0.5 4.5-8.5 0.5h-19zm-112 13h6l4.5-3h7l2.5 0.5 3 3.5h4l6.5-6h8.5l4.5-2h13.5l3-3.5 11-0.5 3-2h10l5-2h4l1 2-1.5 5.5-11.5 0.5-2 2h-6l-3.5 3.5-4.5 0.5-14 1-1 2-11.5 2-1.5 2 1 7-0.5 3.5-2.5 3v5.5h-5.5l-4 3.5-10.5 0.5v-7.5l-1.5-1-0.5-8.5-2-3h-20.5l-4.5 1.5-1.5 2.5h-11.5v-4l4-6h8l1-2zm-342-1v-10h9l1 4v7h-8.5zm177 10l-1-8h6v7.5zm-35-4l0.5-2h7v9.5l-3.5 0.5h-4zm-10 21v-7h6v6zm14-1v-4h8l2 1v3l-2 2h-8zm-50 10l1.5-3h8.5v7l-6 4-3-1z"/>
		<path id="Path 21" class="s21" d="m506.5 367l2-4.5h5.5l3.5 4.5-3.5 3.5-4 1zm12 10.5l8.5-9 11 0.5 1 7.5-2.5 2h-3.5l-5 4-4.5 1-0.5-2.5zm-100.5 30l1.5-3.5 4-0.5 3.5-5 4 4v6h-8-5zm471 11l2-8h10l1 1.5v3.5l-2 2zm-6 18l1-3.5 5-0.5 1-2 5.5-2h10.5l4.5 6.5 0.5 0.5-0.5 0.5-1 0.5-3-0.5 0.5 1-6.5 1.5-0.5 1v0.5h6.5 0.5 2.5 1l2-0.5h1v0.5l1.5 1-5.5 0.5-3 1.5-6 0.5-1.5 1.5v9.5h-7.5l-3.5 4.5-1 5.5-3.5 2.5-3 7-3.5 2 1 14.5 7 1.5h1v1h-1l-8.5 1-0.5 0.5v0.5 1.5h-3.5l2.5 1.5-0.5 4.5h-3.5l0.5 2.5-2 0.5 4.5 1v2.5l-2 1 3 1v1.5l-3 1 5 0.5v2.5l-2 1.5h5l-1 2-2 1v6l2 4 2.5 1 1.5 3 6 2.5 14.5 13.5 8.5 2-6 1.5 7.5 1h1l1.5 0.5-8.5 1 7 1-1.5 1.5 1.5 1 4.5-0.5-1 2 1.5 1 2 1-2.5 2h-2.5l-2 0.5 1.5 0.5 5 1 1 0.5h0.5l-3 1 1.5 0.5-1 1.5-3 3.5 2 29 0.5 3-6.5-1-4-1.5v-15l-4-2.5v-6l-2-3.5-1-10-3-9-7-6-2.5-6.5-9.5-1.5-4-1.5-2-6-14.5-3.5-2.5-3h-2l-1-11.5-7.5-3.5-0.5-7.5-11-9.5v-9l4-3 9-0.5 5.5-3 2.5-3v-3.5l3-2.5v-2.5l5.5-1.5 8-7v-3.5l7-7 3.5-1v-4.5l2-1.5zm-244 22l3-4v-3h3l8.5 1.5-0.5 8-6.5 0.5-3.5 4.5h-3.5zm48 12v-11l24.5 2.5 2.5 0.5 5 1 0.5 8.5h-5l-3-3.5h-5l-2.5 4h-3l-4-2z"/>
		<path id="Path 22" class="s22" d="m788 557.5l1-9h7l3.5 2.5 1.5 2v9.5zm-235 29l18-1 5.5-5h7.5l3 2v6l-2 2-4 0.5v11.5h-11.5l-0.5 2h-9.5l-7.5 10.5-9-10.5-4-1.5-2.5-3.5v-2l6.5-5.5 6 0.5zm-86.5 12.5l4-2.5h8.5 13l2 1.5v2.5l-16.5 2h-11zm-66.5 11.5v-4.5l2.5-2.5 13.5-1 5-4h19l4 4-5 6-12 3.5v15.5l-2.5 5.5-18-16-1.5-4zm-137 7.5l2.5-0.5 9.5 3 2 2 8 1v2.5l-15.5-3-1.5-0.5-5-1.5zm242 26.5v-20h6l2 1.5v4.5l-1 13-5 1zm-12 12v-9l8-1v10zm107.5-0.5l4.5-3 1 5-0.5 1zm-133 11.5l0.5-5.5 1.5-1.5h7.5l2 2-2.5 9.5z"/>
		<path id="Path 23" class="s23" d="m39 534.5l0.5-6 3-2 6 0.5 8.5 7v4.5h-5.5l-1 2.5zm154 4v-10h6l1 2h2v6 2zm518-4l0.5-2h11.5l6 2v2.5l-2 1.5h-16zm-430 8.5l6-0.5v14l-3.5 2h-6.5l-1-9 5-4.5zm295 19.5l-1-7 1.5-2 11.5-2 1-2 14-1v4l-4 2-2 4h-5l-1 2h-4.5l-3.5 2zm-65 0h11.5l1.5-2.5 4.5-1.5h20.5l2 3 0.5 8.5 1.5 1v7.5 6h-9l-1 7.5-6.5 5.5v2l-4-5.5-9.5 0.5-4-3.5-7.5-0.5-1.5-6-3-1.5-5-6.5-6 1-17-1v-4l3.5-1.5 1-2.5h5.5l3.5-4h6.5zm-100 8v-4h4l1 4zm22 4l2-4h5l0.5 8-0.5 2h-7zm-108 1l6-1h8v2 4l-6 4h-24l-2 6.5-6 4.5v7l-0.5 2-5-1.5-2-4.5-0.5-6 6-4v-7l4-1h19.5l2.5-2.5z"/>
		<path id="Path 24" class="s24" d="m114.5 474.5l3.5-2.5v-3.5h3l0.5 2 3.5-1v5h-6.5l-1.5 1.5h-2zm-35 13l2.5-3.5 3-1 2 3.5h4l1 3-5.5 4-0.5 6-6 1-1.5-0.5-0.5-3.5zm533.5 74l6.5-5h17.5l12.5-3 17.5-1h2l2 10v4l-2 3v9l-3 11-9 7.5v5.5l-2 4.5-5 1-4 4.5-3 10-4 2.5v7.5l-6 0.5-4 6v5.5l-2 0.5 2.5 9-0.5 6-1.5 0.5-3-0.5h-1.5l-0.5-1-3-1.5-1.5 1.5-12-1-1-5v-12.5h3l4-4h7l1.5-3h2.5l3-2.5 3.5-12.5 5.5-2 3-6.5 2.5-2 0.5-10.5-4.5-3-1-4-5-5-15-3-3 3h-3.5l-1 2h-5l-4.5 2-7.5 10-1 8-3 1-5.5-2.5-0.5-3.5v-11.5l4-0.5 2-2v-6h12l2.5-4h7.5l0.5-2 3.5-2zm-474-1v-4l9.5 2h10.5l11-2 4 0.5 1 2.5-1.5 3-2 2-6.5 1-17-1-6.5-1.5zm404 31.5l1-7.5h9v2l-4 6zm-47 38.5l2-4.5 3-1.5h4v20l-4 2-8 1v9 2.5l-3 3.5h-11l-2-2h-7.5l-1.5 1.5-0.5 5.5-13-8.5 2.5-1.5v-11h12l1.5 2 15.5-1 10-7.5 1-2z"/>
		<path id="Path 25" class="s25" d="m555 363l14.5-6.5 2.5 1-1 1.5 3.5 0.5-6 2.5-0.5 0.5-3 1.5 3-0.5h0.5 1l0.5 0.5-1 0.5h-0.5l-1.5 1 0.5 2.5-7.5 4.5-6-2.5-0.5-5.5zm14 6l4-2h2v2l2.5-1 3-1h0.5l0.5 0.5 0.5 0.5-0.5 1-4 2-0.5 0.5-3 1-1 3 5.5-1.5 6-1.5 0.5 1.5-1.5 1-3 1.5 1 2 1.5-0.5 6-1.5h2.5l-0.5 2-13.5 5-6.5 1.5v-8.5l-3-1-2-4zm4 18.5l5-1 0.5 0.5v1.5h2l3 1v1.5l-1 1-1 0.5v0.5l10-3h1.5l-1 3 3-0.5-1 3 1 2-7.5 2-2.5-1.5-5 2v-3.5l-2-2h-3v-5zm-454 100l4-1 3 2.5-2 3.5-5-0.5zm608 33v-7l7 1 1 6zm-624 4h9l4.5-4h8.5v6l-4 1.5v4.5l-18-2zm651 1v-3l5-2h15l2 1 0.5 3-17.5 4-4.5-1.5zm-613 3v-7l8 1 3.5 7.5 2.5 0.5 4 4v2l-1 2h-3l-10-1v-2l-4-4.5zm61 2l1.5-0.5 2 0.5 1.5 6h-5z"/>
		<path id="Path 26" class="s26" d="m551 393v-8.5h6l1 7-2 1zm-43.5-4.5l2.5-2.5 3 2.5-2.5 3zm49.5 14.5l9.5-4.5h1.5l2 1.5 1 13-2 1-11.5 3-0.5 2 6-0.5v12l-10.5-0.5 0.5-3.5-2.5-1.5-0.5-2.5 0.5-4h-7.5l-0.5-8.5 1-1 4.5-2.5 5-0.5zm344 7.5v-4.5h1.5 4 1.5l1 3.5-7 2.5zm-66 34.5l11-3 3 2.5h3l1 5.5-1.5 8-2.5 2v7.5l-3.5 1-0.5 5-6 3.5v9.5l-4 3v9h-12l-8-0.5-1-6-5-0.5-4-4h-4v-5l6-6-1-7.5-15-0.5-2 1v3h-6-6.5l-3.5-4-1-13 24-6 1 5h14 14.5l8.5-4zm-710 24.5l8 1v7.5l-4 3-3-2.5-1-4zm-6 73l2-3 13 1 2.5 2.5 0.5 5.5h-8l-2 2h-6.5l-1.5-2zm740 24.5l0.5-4 6.5 1 1 5z"/>
		<path id="Path 27" class="s27" d="m495 328.5l4-2 7-0.5 7 0.5 2.5 2h6.5l1.5 4 3 1.5-1.5 2 1.5 0.5 5-4 4 0.5-3 3 2-0.5 3.5 2v3l5.5 6.5 6 2h3.5l1.5 1.5 1.5 0.5v4l0.5 2 6.5-3v2.5l-6 3.5-0.5 0.5-8.5 4.5 2 1 3.5-1.5 0.5 5.5-4.5 0.5-8 5.5-2.5 0.5-1-7.5-11-0.5-3-3-6.5 1.5-3.5-4.5h-5.5l-1.5-0.5v-6l-2-1v-13l-2-2h-5.5l-0.5-2.5-2-1zm-30 43.5v-4.5l4-2.5v-2.5h4v8.5l-2 1.5zm95 2l6-2.5 2 4 3 1v8.5l-4 1h-1v-2.5l-3-1-0.5-2.5-3.5-2zm-115 10.5l6-2h8l2.5 3-9.5 11-6-0.5zm430 29l13-6 2.5 0.5 0.5 2.5-2 8h-14zm-470 21v-6h4.5l-0.5 5zm-42.5-2l-3.5 7-4-2v-5zm445.5 13.5l0.5-1.5 2.5 0.5 1-2 1 0.5v5l-2 1zm-206-2l4.5-0.5 3.5 1.5 0.5 0.5 4.5 0.5v12.5l-2 2-4.5-0.5-3.5-5.5v-4l-3.5-2.5zm37 14.5h-5l-3-2v-7l9 2h2v3zm239 32l-1-14.5 3.5-2 3-7 3.5-2.5 1-5.5 3.5-4.5h7.5l6 4.5 3.5 1.5-6.5 0.5 0.5 1 7.5 0.5-2.5 0.5-4.5 2h-6v1.5h8l0.5 0.5-5.5 0.5-0.5 0.5v0.5l0.5 1-7 0.5 4.5 3 2.5 0.5-2 1 1.5 1.5-4.5-0.5-0.5 2-4 0.5 3.5 1.5h-7.5l7 2-7 1.5-3 2 2.5 1v2.5l-2.5 0.5 1 1.5zm-78.5 3l1.5-6h4l4 4 5 0.5 1 6-1.5 2-8.5-0.5v-1.5l-3.5-1.5zm-764 4l-2.5-6.5 10 1.5-2 1.5v9.5h-1.5l-3-0.5-0.5-4zm67 7l1-3h3.5l1 3h3v3.5l-3.5 4.5-3.5 0.5zm708.5 16l0.5-2 3-0.5 2.5 4v3l-6 0.5zm-690 12v-4.5l4-1.5h4l2.5 2h9.5v2.5l4 4.5v2l-10.5 1-0.5 2-13-1z"/>
		<path id="Path 28" class="s28" d="m550 379.5l7-1v6h-6zm302 65l0.5-3.5 14.5-6.5h6l1 2h9l2 9-2 1.5v4.5l-3.5 1-7 7v3.5l-8 7-5.5 1.5-3-4h-7v-7.5l2.5-2 1.5-8zm-92.5 16.5l2.5-2.5 2.5 0.5 1.5-2 6-1.5 1 13h-12v-6zm23 23.5l0.5-12h6v3l5 7h7v5l-1.5 6h-6l-3.5-4.5-6-0.5zm2 45l5-4 3-0.5 1.5-4.5h17v5l-2 3-12.5 1-2.5 2.5v2.5h-5l-4.5-3zm-629.5 9h3l1-2h14v8l-9.5 4h-8.5z"/>
		<path id="Path 29" class="s29" d="m533 413l5-0.5 4.5-2.5 0.5 8.5-3 2h-3l-4.5-4.5zm226.5 61.5l1.5-6h12l3.5 4h6.5l-0.5 12h-7.5l-1.5-4.5-8.5-1.5-3-3.5zm-582 55.5l2.5-0.5 3 19-2 1.5v6l-2.5 0.5-1.5-10.5-4-1.5v-8zm616.5 4.5l1.5 3.5 5 2.5h15.5l4.5-3.5 0.5-3 3.5-1 1-3h4.5l8 8.5 1.5 7 5.5 1 1 2 4 1.5v7.5l9.5 5.5-0.5 4v8.5l-2 7.5-7-2.5-9.5-6-2.5 1 1.5 1.5-1 2-37.5-16.5v-9.5l-1.5-2-3.5-2.5h-7v-4-10zm-667 16l2-2h8v6l2 2v4h-6.5l-5.5-2zm67 16l1-6-2-1v-8.5l1.5-1.5h8.5l4 3 1.5 4-1.5 4 1 11.5-1 1.5 1 1.5 7 1.5v0.5 9.5l-1 3.5-4.5-1-5.5-7-5-0.5-4.5-3v-2l-2.5-2v-3l2-1zm479-15.5l9-0.5 0.5 3.5h-2l-0.5 1.5-6 7h-3l-2-10zm-400 31l8-0.5h3l2 3h3l1 7 3 1 0.5 6-6 1-14.5-9z"/>
		<path id="Path 30" class="s30" d="m475 340l6-6 2.5 2.5h11.5l2 1 0.5 2.5h5.5l2 2v13l2 1v6l-7 0.5-8.5 8-0.5 4-8 1.5-1-1.5h-3.5l-2.5-3.5h-3v-8.5-4l6-9v-4l-2.5-1zm-36.5 42l3-6 10-12 0.5 3.5 5 1.5 2 3.5 6-0.5 6 0.5v8h-2.5l-3 3.5-4 1.5-2.5-3h-8l-6 2h-4.5zm37.5-0.5l7-3.5 1 1.5 4 0.5 2 2.5-10 10h-5l-2-2v-3.5l2-1.5zm27.5 11h-5l-2.5-3v-3h3l5 4zm7-1l2.5-3h4v5.5l4 3.5v4l2 1.5v3.5h-9l-1-2h-5.5l-1.5-3h-2l1.5-7h2zm-93 18.5l0.5-1.5h5l-0.5 7.5-2 0.5-3.5-5.5zm-114 8.5l1-0.5 16.5 0.5v13l-10 1-7.5-2zm509.5 25l15.5-8.5 7-1v-1.5l7.5-2.5 2-2.5 20-9.5 1 0.5-0.5 3-13.5 6.5-5 5-1 9-11 3-3-2.5h-6.5l-9 6h-3.5zm-273-23l3-2h7.5l-0.5 4h-9.5zm-288 5.5l3.5-1v0.5l-1.5 7h-1zm-66.5 14.5l2-2.5 7.5-0.5 1 1.5 4-2.5 1 10h-3l-3 3-9-1zm388.5-0.5l2-1 4 2 3.5-1 5.5 1.5h2.5 1l1 0.5 0.5 0.5-1 5.5h-9.5l-2.5 6.5h-2.5l-1-2-1-10h-2.5zm79.5 13l4-0.5 3.5 1.5 2 0.5 8.5 1.5 0.5 1.5v2l-3 2-1-1-6.5 1-4 4.5-3.5 0.5 0.5-5-1.5-0.5zm-590 53.5l-0.5-8 6 1v7zm751 11.5l1.5-9.5h7l2 6-2 4.5v7l-6-1v-3z"/>
		<path id="Path 31" class="s31" d="m556 444.5l5.5-3 3 3.5-0.5 5 3.5 2.5 1-1 9 1 1 2-0.5 6h-5.5l-5.5 3-3-1.5-3-4.5-3-0.5-2-4.5-3-2zm-120 7.5l5-7.5 6.5 0.5 1.5 1.5v7l-5 3.5-1-2zm177 8.5l2-2 3 1v3h-5zm-44 20v-4h6.5l5 4h2.5v8l-13-0.5zm-196 28l1.5-2h6l0.5 6.5 5.5-1 0.5 6.5 2 2v3l-1.5 5h-8l-0.5-6.5-2.5-0.5-3-3.5zm-26 42v-5l-2-1.5 0.5-9.5 7.5 0.5 5.5 5.5 0.5 4v12h-4l-4.5-6zm-110-4l1-2 7-0.5 8 0.5 10.5-0.5 3 4.5h4.5l5 1 1 9-1 2-11 0.5-4 4v3.5h-26v-2l-4-4v-5l4-1 2-3.5zm656.5 58.5l0.5-5.5 7 2.5-0.5 6z"/>
		<path id="Path 32" class="s32" d="m215 586.5v-9.5l8 1 2 4.5v4zm372 22l3-1 1-8 7.5-10 4.5-2h5l1-2h3.5l3-3 15 3 5 5 1 4 4.5 3-0.5 10.5-2.5 2-3 6.5-5.5 2-3.5 12.5-3 2.5h-2.5l-1.5 3h-7l-4 4h-3l-14-11-1-7-3-4zm-96 22v-6.5l5.5-7.5h2.5l2 1v7l-3 1.5-2 4.5z"/>
		<path id="Path 33" fill-rule="evenodd" class="s33" d="m383 415.5l10-2 2.5 1.5 1.5-1.5 13-0.5 7-2 3.5 5.5-4.5 3.5v2l-2 0.5-4 1.5-0.5 4.5h-4.5l-1-2h-6.5l-5-4.5-5.5-0.5v-2l-3-1zm-50 2.5l16.5-1.5 4-3 4 1.5 3.5 0.5 7.5 0.5-0.5 7.5 2 1.5v3.5h-5.5l-2 4h-15l-1.5-2-25 1v-13l10-0.5zm-36 1.5l6.5-1v12l-0.5 8-4 6h-2l-4.5-1-1.5-4.5-2-1v-6l3-3.5 4-1zm-55.5 8l2.5-0.5v-1.5l3 1 2.5-0.5h2.5l1 6.5-4.5 4h-4l-1.5 1.5v6.5l-2 1.5 1 11-3 1.5-2 4h-7.5l-0.5-6v-6.5l-2.5-2h-4l-7.5-7h-3.5l-1.5 2h-3.5l0.5-6 0.5-2.5 12.5-2.5 2.5-1.5 5 1 1-1.5 7.5-1.5 2-0.5h1.5zm-69 16l9-3.5 4 0.5 0.5 8-4 5h-5.5l-1-3-2-0.5zm42.5 9h4.5v3l1.5 1v4h-6zm-117 7l6 0.5 1-2.5 2.5-0.5h1.5l1.5 1-5.5 5.5v2h-8l-1.5-3v-0.5l1-2zm-65 21l-0.5-4.5 8.5-3.5h3l-8 8zm170 69v-7h4l2.5 1 1 3h4.5l2 7v2.5l-8.5 0.5-1.5-4z"/>
		<path id="Path 34" class="s34" d="m214 590l1-3.5h10v3.5l2.5 1.5 1 3h4.5v6.5l13 10v3.5l1.5 1.5v0.5h-1.5l-4.5-2.5v-2l-4-0.5-2.5-4-3.5-0.5-13-9.5zm355 14.5l0.5-2h11.5l0.5 3.5 5.5 2.5v10l3 4 1 7 14 11v12.5l-4.5 3-18-12.5-10-10-5-2-8.5-9 1.5-4 5.5-3.5v-4l3-1.5zm-100 42l0.5-6 14.5-1 1.5-3 5.5-2v-4h5l1 7.5-1 2-10 7.5-15.5 1zm-29.5 0l7-4 9.5 1 1 3v11l-2.5 1.5z"/>
		<path id="Path 35" class="s35" d="m451.5 364l3-4.5 1.5 0.5 4-4v-1.5l5.5-3 0.5 6 2.5 1.5 0.5 3.5v2.5l-4 2.5v4.5l-6 0.5-2-3.5-5-1.5zm19.5 8.5l2-1.5h3l2.5 3.5-4 5.5-3.5 0.5zm12 3.5l8-1.5 2 6-3 2-2-2.5-4-0.5-1-1.5zm-8 50.5v-8l8 0.5 1 1.5 8 1 2 2 9 0.5 2.5 2.5 5.5 0.5 6 4 4.5 0.5h1.5l2.5 0.5 1.5 0.5 6 0.5 3 0.5 12 2.5 6.5 5.5 1.5 3-3 6-3-1-3.5-10.5-6 4-0.5 4.5-5 1-0.5-2.5-6-2.5-2-5.5-3-0.5-1-2-5.5 0.5-2 0.5-1 3-3-1.5 0.5-4.5h-4l-3.5 3.5 1-4.5-3.5-3-5.5 3-5 2-2-2.5h-4l-3-8h-2.5l-3.5 4zm-193-6l0.5-0.5 1.5 0.5h7l1 8-3 3.5v6l-5.5 0.5-1.5 2h-6.5l-1-2h-14l-2.5-3-3-0.5-1-2.5 1.5-7 1.5-0.5 13-2.5 3.5 1zm-78 15l2-1-0.5 1.5 1.5 1-0.5 6h3.5v3.5h-9l-1-10 2.5-0.5zm-30.5 14.5l2 0.5 1 3h5.5l4-5 9 1-1 7-9 0.5v5.5l4 3-1 11h-20l-2.5-0.5-0.5-1.5 2-22h3zm-103.5 18l4.5-1 1.5-2 3.5 1.5 4.5-1.5 1-3 2 0.5-1.5 1.5 1.5 1 3-0.5 1-1 1.5-1h3l1.5 3v2.5l-3 3.5h-7.5l-1.5 3h-6.5l-2.5 2.5-1 5.5h-6.5l-1.5 2-8.5 1-3.5 3.5v7.5l-4 1.5-2.5-1.5-0.5-2.5-5-1.5-10-1.5-0.5-0.5v-0.5l-0.5-0.5v-0.5-0.5l1-8h3l8-8 1.5-0.5h1 2l2.5 0.5 1-2h3l2 0.5 3-0.5 1-0.5 4.5-1 1-1 2 0.5zm47 8l1.5-1.5h6.5l1 4-3 2h-6zm-48 23.5l1.5-2.5 7.5-0.5 0.5 3.5 1.5 0.5 0.5 11.5-4.5-2.5-1.5-3h-5.5zm769.5 79.5l1-2-1.5-1.5 2.5-1 9.5 6-1 4z"/>
		<path id="Path 36" class="s36" d="m672 457.5l4 0.5 2.5 0.5 8.5 1v11l-2.5 2h-4.5l-3-4-6 0.5-3-1.5 1-6 3-2zm151 51v-10h12l11 9.5 0.5 7.5 7.5 3.5 1 11.5-2 2h-3l-5-6h-11.5l-3.5 1.5v2h-4.5l-0.5-3-2-1v-7l2-4.5zm-37 11l8-2v3l-1.5 4.5-3 0.5-5 4-4-4.5 3.5-1.5zm103 67l4-4.5v-5l1.5-1.5-0.5-7.5-3.5-4-3.5-0.5-1.5-4.5-4-2.5-1.5-12 9.5 1.5 2.5 6.5 7 6 3 9 1 10 2 3.5v6l4 2.5v15l-8-2.5-7-2.5-3-2v-3l-2-1z"/>
		<path id="Path 37" class="s37" d="m465.5 351.5l-0.5-1.5 4-2.5 0.5-2.5 5.5-5 1.5 4.5 2.5 1v4l-6 9v4h-4l-0.5-3.5-2.5-1.5zm-43 64.5l0.5-7.5h8l1.5 3.5h5.5l2 2.5 5-0.5 7.5 2 18.5 1 4 1.5v8l-6.5 0.5-3-4h-5l-2.5 8-5.5-0.5-1-4-2-1v-1.5l-4.5-3.5h-3l-2 2 1.5 6.5-4.5 1.5v-5l1.5-3.5-0.5-5-7 4.5-2-2.5h-4zm-54 0h9.5 1l4-0.5 1 3 3 1v2l-2 3h-5l-1-0.5-0.5-4-4 0.5-2.5 3.5-2 1-2-1.5zm-74.5 4l0.5-0.5h2.5l-1 8-4 1-1-8h0.5zm260.5 21.5l3-3.5 2.5 0.5 2.5-0.5 11.5 2v2.5l-6 6.5 0.5 2.5-1 1-3.5-2.5 0.5-5-3-3.5-5.5 3zm39.5 1l2-1 4.5 2 1.5 0.5-0.5 4h-8.5zm219.5 57.5l1.5-2 8 0.5v10h-7zm-605 56.5l8.5-0.5 5.5 3 3.5 3.5 1 7-4 1-6.5 0.5-1.5 5.5-7-1.5-1-1.5 1-1.5-1-11.5z"/>
		<path id="Path 38" class="s38" d="m539 376.5l2.5-0.5 3.5 4.5-3 2-5.5-4zm-146 82l2 1 3.5-6 4.5-0.5 1 3 4 1.5 2.5 3 4.5-1.5 1 1.5 8.5-1 9.5 0.5 1 10-2 1.5v9h-3l-1.5 2h-17.5l-8 2h-13l-2-2h-9l-3 2h-12.5l-2.5 4h-11v-3l-2-1h-4.5l-2.5 4-22.5-1.5-3.5-4-6-1-1-1.5h-11l-0.5-5-4.5-1.5-6.5-8.5 2-5h5.5l1 4 2.5 2 2-6h3l4 4 2.5-7 11-1 3 0.5 2.5 4 2-0.5 2-4h9.5l2.5 4h3l1.5-2h13.5l3.5 2.5 2.5-2.5h11l4.5 1.5 1.5-3.5 3-0.5 1 2.5 2.5 1zm-156 4l2-4 3-1.5 5 1.5 2.5 4h6.5l1.5 4 2-0.5 1-3.5h10.5l2.5 5 2.5-1 2 1.5 3 16.5h-2.5l-1.5 2h-20v-2l-4-2v-12.5l-2-1.5h-11l-3-3zm-114 18l3-2 3 2.5 1 3.5-2 4.5h-2l-3-2.5z"/>
		<path id="Path 39" class="s39" d="m924 401l6-0.5h1v7.5l-2 2.5h-4zm-839 82l4.5-1.5 1.5 1.5v3.5h-4zm591 50.5l12-1 1 2v6 6.5l-6.5 1.5-8 1-1.5 1.5-4 1.5h-2v-14l8.5-0.5zm29 5v-4h2 4v4zm22 0l2-1.5v-2.5h28l0.5 6 9.5 5.5v4l-16-5-23.5-1zm-562 27l6.5-1 1.5 1v5h-8zm314 24l27-1 4 6 4.5 2 1 7 3 1 1.5 11 1.5 0.5-0.5 2.5 1.5 1.5 0.5 12.5-1.5 1.5-2-3-6.5-0.5v-4.5l-2-1.5-0.5-13.5-6-7-5.5-1.5-2-2h-3v-2.5l-2-1.5h-13zm-178.5 15l0.5-2h6l0.5 5.5h-4.5l-2.5-1.5zm-53 11.5h9.5l0.5 2h5.5v3l-5.5 0.5-5-3.5-5-1v-0.5zm358 43l0.5-1 12 1-0.5 1-0.5 3.5-6-1z"/>
		<path id="Path 40" class="s40" d="m545 380.5l5-1 1 5v8.5l-6 3.5-6 1-7.5 3-2-8.5 12.5-9.5zm-24 17l2.5-0.5 1.5 1v4.5l-2 0.5-2-1.5zm268 75v-3l2-1 15 0.5 1 7.5-6 6h-7l-5-7zm22 53l6-0.5 6 1 2 1 0.5 3-1 3-3.5 1-0.5 3-4.5 3.5h-15.5l-5-2.5-1.5-3.5v-2.5l2.5-2.5 12.5-1zm34 21l-5.5-1-1.5-7 8 3zm-690 2h8.5l9.5-4 4 1.5 1.5 10.5-3.5 3-1-2.5-4-0.5-11 2h-10.5l-9.5-2-2-2v-6z"/>
		<path id="Path 41" class="s41" d="m491 374.5l0.5-4 8.5-8 7-0.5 1.5 0.5-2 4.5-5.5 4-0.5 3.5 5.5 1 4-4 4-1 3.5-3.5 6.5-1.5 3 3-8.5 9-8.5 8.5-2.5 2.5-3.5 2-5-4h-3l-0.5-4.5-2.5-1.5zm32.5 9l4.5-1 5-4h3.5l5.5 4-12.5 9.5-4.5 2-1.5 3-2.5 0.5-4-3.5v-5.5zm1.5 19l6-1v8l-6.5-0.5-1.5-2.5v-3.5zm46 10.5l10.5-1 0.5 3.5-2 0.5-11 2v-4zm-382 52.5l-4-3v-5.5l9-0.5 0.5 4-2.5 5zm-27 18v-4h3l3 1 0.5 3.5zm-43 4l-2-1v-6h6v6zm-16 9.5l0.5-2.5 5-0.5 0.5 5-2 2.5h-3.5zm-52 1l4-1.5 8 2 0.5 8-2 3-6.5-0.5-1.5-1.5-3 0.5-0.5-1.5zm746 11.5l3.5-0.5 0.5-5 4-4.5 8.5 0.5 2.5 8.5-1.5 9.5-3 0.5-0.5 2h-17v-3l1-6zm52 75l1-4 7 2.5 1 4.5h-4z"/>
		<path id="Path 42" class="s42" d="m432.5 424.5l2.5-0.5 2 1.5v5l-3-0.5-1-3zm-237.5 25l3-3h3 9l0.5 3 4.5 3v6h-12.5l-1.5 2h-6.5l-0.5-4zm210-1l2-0.5 5.5 5.5h3.5l1 2-2 3.5-4.5 1.5-2.5-3-4-1.5-1-3zm-97 9l2-7.5 4-0.5 1 2 4 1v4zm114-4l4-1h9l-1 7.5-9.5-0.5-3-4zm83 13l4-1.5 5.5 0.5 4 5h11.5l3 2.5 0.5 6 2.5 2 6 1 1 2.5v6l-16 2-4-1-1-6.5-7-0.5h-6l-10.5-1-1.5 7v4h-5.5l-1.5 2h-3l-7-6h-9l-6-10v-3.5l2-2 11 1.5 3-4h22l2-2.5zm369.5 36l0.5-4.5h3 3.5l3.5 1.5-5 0.5 4.5 1.5h-4.5l-3 1z"/>
		<path id="Path 43" class="s43" d="m435 452.5l1-0.5 7 3 1 2 5-3.5 7 1.5 3.5 6.5h8.5l-1 7v6.5l-2 2v3.5h-17.5l-1.5 2-13-2v-9l2-1.5-1-10zm-50.5 3.5l1-1.5 7 0.5 0.5 3.5-5 1-2.5-1zm-163.5 4.5v-4h8l0.5 6-2.5 3-2-3h-3z"/>
		<path id="Path 44" class="s44" d="m444 602.5h7l2.5-2 13-1.5v3.5l-0.5 4h-2.5l-1.5 3-4 0.5-2 4.5-5 2.5-1 18.5-3 2.5-0.5 4.5-7 4-15-13.5 2.5-5.5v-15.5l12-3.5zm55 14v-14l5.5 1.5 6 7 0.5 13.5h-6-4v-7zm53-1.5l7.5-10.5h9.5v5l-3 1.5v4l-5.5 3.5-1.5 4zm-250 14.5l1-4 2-1.5v-4l4-3 2-5.5 5.5 3 1 4-1 9.5-3.5 1.5-1.5 1-6.5-0.5 2 1-1 0.5z"/>
		<path id="Path 45" class="s45" d="m937 400.5h3l5.5 5.5-0.5 5.5-2 1.5h-2l-3.5-5zm-516.5 16l2-0.5 2.5 3h4l2 2.5 1.5 3 0.5 2.5-8 1.5-0.5-2.5-6 1-2.5-5v-2zm248.5 162l9.5-1 1 0.5-0.5 2.5-3.5 2.5v3l-5 7.5v2.5l-4.5 3-5 13.5-2 0.5h-2.5l-1.5-6 2-4.5v-5.5l9-7.5zm-157 65l1-13 6.5 0.5 2 3v0.5l-2 3 2 2-1.5 0.5 1 1.5v2.5l1 2-1.5 2-0.5 7.5-5-1v-7.5zm115.5 17l1.5-0.5 0.5-6-2.5-9 2-0.5h10l8.5 0.5-2.5 4.5v4.5l-4.5 7.5-6 4h-8l3-2z"/>
		<path id="Path 46" class="s46" d="m308 496.5l7-3 3.5-6.5 22.5 1.5v6l-2 4-1 13h-7l-5.5-2.5 0.5-9.5-5 1-0.5 7-11 1-2.5-2.5zm-17 2v-7.5l4-0.5h6l0.5 8zm482-4l9.5-1 2.5 3 1 5-1 6.5-2 0.5h-8l-2.5-5.5zm-546 6.5l4.5-4.5h4.5l3 3.5v4.5l-0.5 5-1.5 1h-8.5l-1.5-2zm18 1.5h7.5l2-5 2.5-1 10 0.5 4 4 1 5.5v8l1 9.5-4.5 0.5-3.5 9.5-2.5-1-1.5-6 2-4 0.5-9.5-1.5-1.5-2.5-0.5-5 3 0.5 9h-2l-4 1h-2.5l-1.5-2.5v-7.5l-1-4-1-6z"/>
		<path id="Path 47" class="s47" d="m225 586.5v-4h8v12h-4.5l-1-3-2.5-1.5zm252.5 16l16.5-2h3l2 2v14h-2.5l-5.5 7.5v6.5 4l-5.5 2-1.5 3-14.5 1-0.5 6h-12l-1-3-9.5-1 0.5-4.5 3-2.5 1-18.5 5-2.5 2-4.5 4-0.5 1.5-3h2.5l11 2zm-186.5 15l6.5-0.5 5.5-9h4.5 2l1.5 3.5-2 5.5-4 3v4l-2 1.5-1 4-5 0.5-12-4v-2.5l5-3z"/>
		<path id="Path 48" class="s48" d="m295 484.5l2-0.5v-3.5h11l1 1.5 6 1 3.5 4-3.5 6.5-7 3-2.5-2.5-0.5-8.5h-2l-2 5h-6zm-52 10v-9.5l2.5-2 7.5-0.5 4 2v2 10l-2.5 1-2 5h-7.5v-6zm539.5-1l1.5-5 6 0.5 3.5 4.5-2.5 3h-6zm-665.5 0.5l2-2 5 0.5v5 8l-2 4-4 3h-10.5l3.5-4.5v-3.5l2-1 2.5 1.5 1.5-2.5zm80 6.5v-2l14.5 0.5 1.5 9.5h-11l-2-1zm553.5 5.5l22-3 2.5 5.5h8v2l1.5 8 1.5 1-2 4-3.5 1.5-4-0.5-0.5-3-2-1h-15l-1.5-5.5-6.5-2.5z"/>
		<path id="Path 49" class="s49" d="m510 371.5l-4 4-5.5-1 0.5-3.5 5.5-4zm0 14.5l8.5-8.5 4.5 3.5 0.5 2.5-6.5 5h-4zm13.5 11l1.5-3 4.5-2 2 8.5-0.5 1-6 1v-4.5zm228.5 64.5l7.5-0.5 1.5 1.5v6l-1.5 6-8-0.5-15.5-0.5-3-2-13.5 0.5-0.5-8.5 1-1.5 6 1.5 12-1 3 1 8.5-1.5zm87 25v-9.5l6-3.5 0.5-5 3.5-1h7l3 4v2.5l-3 2.5v3.5l-2.5 3-5.5 3zm-9 43.5v-2l3.5-1.5h11.5l5 6h3l2-2h2l2.5 3 14.5 3.5 2 6 4 1.5 1.5 12 4 2.5 1.5 4.5 3.5 0.5 3.5 4 0.5 7.5-1.5 1.5v5l-4 4.5-5.5-1-1.5-1.5v-6l-11-4.5-4-4.5-1-5-6.5-1-9.5-5.5v-7.5l-4-1.5-1-2 1-5-8-3z"/>
		<path id="Path 50" class="s50" d="m531.5 310l3-1.5 2.5 1v2.5h2l1 2.5v2l-6.5 3-4 1.5-0.5-10.5 2-0.5zm-100.5 111.5l7-4.5 0.5 5-1.5 3.5-2-1.5-2.5 0.5zm10.5 7.5l-1.5-6.5 2-2h3l4.5 3.5v1.5l-2.5 5zm16.5 2l2.5-8h5l3 4-0.5 3h-2l-1 2.5h-5.5zm225 139l1-9 3 0.5 1.5 1-0.5 0.5-1.5 0.5v0.5h0.5v0.5l-0.5 0.5v1.5l-3 3.5zm250 28.5h4l2-3h5l2.5 2 1 3.5v1 0.5l0.5 1v1l-0.5 0.5-6.5 5-6 0.5v-7l-2-1zm-430 60h4l1-4h7l5 1v2l-4 2.5 0.5 3.5-2.5 4.5-2.5 0.5-2 3.5-6.5 2h-0.5z"/>
		<path id="Path 51" class="s51" d="m403 484.5l8-2v10.5l-2 2.5v6.5l-3 2-5-1v-11l2-1.5zm-57 10l4-3v-3h11v9l2 2.5v8.5l-17-0.5zm87 8v-5.5l1.5-2.5h4.5l2 6-1.5 2zm-161 4l10.5-3 4-5h4.5 10.5l2 6.5 3.5 1 2.5 2.5 11-1 1.5 2.5 3.5-1 5.5 2.5v2.5l-2 2.5v10l-4 1v4l-7 1-1-1.5-0.5-7.5-2.5-7-4 2-1 4h-2l-1 7-6.5 1-1-2.5 0.5-7-1.5-4-4.5 0.5-3 4v2.5l-8 0.5v-9l-10-1zm-117 0.5l1.5-2.5h2.5 4l0.5 5.5 4 6 5.5 4.5v2l-13-0.5-2-2v-4l-2-1.5zm225.5-0.5l1-2h7.5v7l-2.5 0.5-5.5 1zm-180.5 5.5l2-3.5h11l10 1 4-1 1.5 2h8.5v4 4l-12 0.5v11.5l4 2.5v7.5h-6.5l-1.5 2-6 1-3-7h-5l-1.5-6-2-0.5z"/>
		<path id="Path 52" class="s52" d="m566.5 388.5l6.5-1 2 2v5l-7 4h-1.5l-3.5-4.5v-3.5zm-35 12l7.5-3v7l4.5 4.5-1 1-4.5 2.5-5 0.5-2-1v-2.5-8zm-116.5 58.5l2-3.5h4.5l3 4-8.5 1zm-220.5 1.5h6.5l1.5-2h12.5v2h6l1 2h3l2 3 2.5-3h7.5v3l3 3h11l2 1.5v12.5l-7.5 0.5-2.5 2v9.5h-7l-2-2v-6l-4-4h-22.5l-1.5-2h-10l-1 2-3.5-0.5-3.5-5.5 1-11h3zm81.5 6l2.5-3.5h4l3 2.5 6.5 8.5 1.5 9-12.5 1.5-3-16.5zm-146 18l7.5 1.5 1.5-5.5 4-1v9l-6 4.5v1.5h-5.5l-3.5-5.5z"/>
		<path id="Path 53" class="s53" d="m588.5 410l7-0.5 0.5 0.5v0.5l-2 1.5-0.5-1v1 0.5l-0.5 0.5-0.5 0.5-4.5 1-6 1-0.5-3.5 3.5-1.5zm-17 17l1-2.5 13.5-1.5h6l3 2h-2l-3 0.5h-0.5l-1-1.5-1.5 2h-0.5l-0.5 1h-2l-2.5-0.5-2.5 0.5zm-380 55l3.5 0.5 1-2h10l1.5 2h22.5l4 4v6l2 2v2h-4.5l-4.5 4.5-9-2.5-6.5 0.5-14.5-0.5-3.5-1-2-6.5zm-54.5 12.5v-1.5l6-4.5h8l1.5 8.5-3 3h-3.5v3.5h-5.5zm648 2h6l2.5-3h6l2 3 3.5 1.5v1.5l-4 4.5-0.5 5-3.5 0.5-3-4.5-8-3.5zm-422 3.5l7-0.5 2 1.5-1 7-1 2-3 0.5-4-1v-1z"/>
		<path id="Path 54" class="s54" d="m124 492.5l2-3.5h2l3.5 5.5-1.5 3h-6zm373 2v-4h12v4l-1 5.5-8 0.5zm-324 26l-5.5-4.5-4-6-0.5-5.5h4l1.5 2h3.5l5 2 1 2h5l3 6v5.5h-1zm224-6l1-8 5 3.5v4.5zm-42 9l5-4 0.5-6 2.5-4 4 1v6l-3.5 4.5-2 9.5-6-1zm-24-9.5v-2.5h7l1 1 0.5 10 3.5 1-1 9-7 0.5v-6.5l-1.5-11.5zm-102 19l-4-2.5v-11.5l12-0.5 1 6zm163-12.5v3h-3v-3z"/>
		<path id="Path 55" class="s55" d="m124 497.5h6l1.5-3h5.5l3.5 9h5.5l2 3 7 0.5 1 7.5 2 1.5v4l2 2 13 0.5 4.5 7.5-4.5 6.5h-14v-2l-4-4-2.5-0.5-3.5-7.5-8-1-1-2.5-10.5-4.5-4.5 1.5v4.5h-8.5l-4.5 4h-9l-2-4-1-4 4-3.5 3.5-0.5h10.5l4-3 2-4zm70 3l-0.5-3 3.5 1v2zm552 20l0.5-7 4.5-1 6.5 2.5 1.5 5.5-5 2v3h-5.5zm-539 22v-6h5l3 7v3h-4.5l-1-3z"/>
		<path id="Path 56" class="s56" d="m857 583l2-7.5v-8.5l8 2 4 4.5 11 4.5v6l1.5 1.5 5.5 1v7l2 1v3l-14 1.5-12-5.5-7-6zm-634-12.5l4-1 7 1 2.5 3.5 9.5 2.5 1 6h-14-8l-2-4.5z"/>
		<path id="Path 57" class="s57" d="m468.5 427l6.5-0.5 1 1.5-2 3.5-3 0.5h-2l-1-2zm-332 23l6.5 2 20-5 1 4.5 3 1-2 22-6 1v-3.5l-2-1.5h-6.5l-7 4-7.5-4h-3l-8-1-3.5 1-0.5-2h-3l-3-4.5v-6-1l1-0.5h4l3-1.5-0.5-1.5 3.5 1 0.5-2.5h1l1.5 0.5 1 1 1.5 0.5 4-0.5 1.5-2zm-61.5 32.5l1-5.5 2.5-2.5h6.5l1.5-3h7.5l3-3.5v-2.5h8l5 9h4.5l0.5 1.5h2v4.5 6l2 1v4.5l-2 2h-4l-1.5-1-2-7-4-2 0.5-2.5-5-1.5-3.5 1-5.5-1-2.5 1.5-4.5 1.5-3 1-2.5 3.5-4.5-3.5z"/>
		<path id="Path 58" class="s58" d="m167 446l5.5-2.5 1 6.5-3.5 2.5h-3l-3-1-1-4.5 2.5-0.5zm-112 50.5v-7.5l3.5-3.5 8.5-1 1.5-2h6.5v1.5l4.5 3.5-1.5 9-7.5 0.5-1.5 2.5-6-1z"/>
		<path id="Path 59" class="s59" d="m605 491v-2.5h34l2.5 2h19.5l5 2h13v10h-7l-6-2h-20.5l-5.5-2-25-0.5-2.5-3.5-5-1zm144-1l7 0.5 1.5-2h3.5v4l-3 1-2 3h-6l-1 2h-17l-1 4h-18l-2-0.5 1-9.5zm-241 10l1-5.5h6 8 4l4 5v7l-18 1zm-41 15.5l-3-2-1-9h6 4v9.5z"/>
		<path id="Path 60" class="s60" d="m541.5 376l8-5.5 4.5-0.5 6 2.5v1.5l-1 4-2 0.5-7 1-5 1zm-74.5 92.5h2l4-5 8 1v8l-3 4-11-1.5zm-358.5 25.5l3-1 1.5 1v9.5l-2 1h-3l-1-3 2-2.5zm16.5 26.5v-4.5l4.5-1.5 10.5 4.5 1 2.5v7h-9.5l-2.5-2h-4z"/>
		<path id="Path 61" class="s61" d="m233 594.5v-12h14 3.5l2 2 20.5 6 14.5 9 6-1 2 4.5 5 1.5v2l2.5 1.5-5.5 9-6.5 0.5-3.5-3h-10.5l-9-4.5-2-3.5-9.5-2-1.5-2h-4l-6.5-0.5-5-3.5-1.5-3.5z"/>
		<path id="Path 62" class="s62" d="m143.5 474.5l7-4h6.5l2 1.5v3.5l-6.5-0.5-0.5 1.5 10 3v4h-3l-6.5-1-2 2 0.5 4h-8v-9zm-30.5 29v-9.5h4v8.5l-1.5 2.5z"/>
		<path id="Path 63" class="s63" d="m679 492.5h19l2 2h4l4-2.5 4 0.5-1 9.5-5.5 0.5-1 1.5-10.5 1.5-3-3h-10-2zm-55 168.5l0.5-1 3 0.5 2 3-3 2-1-0.5-0.5-0.5z"/>
		<path id="Path 64" class="s64" d="m247.5 616l-1.5-1.5v-3.5l-13-10v-6.5l5 0.5 1.5 3.5 5 3.5 6.5 0.5v6l6 4v3.5zm218.5-9.5l0.5-4h11l-0.5 6z"/>
		<path id="Path 65" class="s65" d="m281 484.5l12.5-1.5 1.5 1.5v6l-4 0.5v7.5h-4.5l-4 5-10.5 3-1-5.5-4-4-10-0.5v-10h20l1.5-2zm-45 12v-2h7l2 2v6l-2 2h-4v-4.5z"/>
		<path id="Path 66" class="s66" d="m105 465.5v-2l5.5-5.5h4.5v6l3 4.5v3.5l-3.5 2.5h-4.5zm110 111l1.5-5.5 6.5-0.5v7.5l-8-1z"/>
		<path id="Path 67" class="s67" d="m257 616v-3.5l-6-4v-6h4l1.5 2 9.5 2 2 3.5 9 4.5h10.5l3.5 3-1 3-5 3-8-1-2-2-9.5-3-2.5 0.5h-5.5z"/>
		<path id="Path 68" class="s68" d="m167 504.5v-2h4l1 4h-3.5zm308.5 22l-0.5-9h6l2 7-2 2z"/>
		<path id="Path 69" class="s69" d="m558 391.5l5-1v3.5l3.5 4.5-9.5 4.5-1-10.5zm-19 6l6-1v7.5l3 2.5-4.5 2.5-4.5-4.5zm24 21l-6 0.5 0.5-2 11.5-3v4zm223 90.5l5-0.5 1 2.5 3 0.5-1 6-8 2-1.5-1-1.5-8z"/>
		<path id="Path 70" class="s70" d="m504 390.5l3.5-2 3 3-3 3h-2l-2-2zm64 8l7-4h3l2 2v3.5l-1 1 2.5 2v3.5l2 2.5 1.5 1.5-3.5 1.5-10.5 1-1-13zm-44 31l-1-10.5 9.5-3 4.5 4.5-1 9-9-0.5-1.5 0.5zm289 19h3.5l9-6h6.5l3 2.5-1 5.5-8.5 4h-14.5v-5zm-710 86v-4l18 2v7l-2 3-7-1z"/>
		<path id="Path 71" class="s71" d="m785 508l1-6.5 8 3.5 3 4.5-2 2-3-0.5-1-2.5-5 0.5z"/>
		<path id="Path 72" class="s72" d="m211.5 499l6.5-0.5 9 2.5v7.5l-4 1-10-1zm571.5 9.5l2-0.5 1 1-3 1.5z"/>
		<path id="Path 73" class="s73" d="m551 393l5-0.5 1 10.5-4 3-5 0.5-3-2.5v-7.5z"/>
		<path id="Path 74" fill-rule="evenodd" class="s74" d="m549 337.5l2-1-1.5 2zm8.5 6.5l1.5-0.5-1 1zm-8 5l5.5-3-0.5 4.5-1.5-1.5zm10-1.5l1-0.5v0.5zm-6 17l-3.5 1.5-2-1 8.5-4.5-1.5 2.5zm14.5-1l-3 0.5 3-1.5zm9.5 4.5l2.5-2 0.5 1zm3.5-1l3.5-1-3 1.5zm-13.5 1l1.5-1v2l-3 2.5-6 2.5v-1.5zm14.5 0l2 0.5-2.5 0.5zm-3.5 6l-5.5 1.5 1-3 3-1 1 1 2-1zm4.5 4l-1.5 0.5-1-2 3-1.5zm-12 7l6.5-1.5 0.5 3-5 1-6.5 1v-0.5l0.5-2zm7.5 2l2-1.5v3h-2zm3.5 28.5l6-1v2.5l-3 2.5-0.5-2-4.5 0.5v-2zm-300 5l-1-1 1.5 0.5zm635 13v-1.5l-2-0.5h4.5l-1.5 1 1 1zm-6.5 1.5h0.5v0.5h-0.5zm0 1l0.5-0.5 0.5 1zm-3.5 1l-0.5-1 3 0.5zm-6.5 1.5l6.5-1.5-0.5 3h-6.5v-0.5zm13 1h2.5l-2.5 0.5zm-7 3.5l3-1.5-0.5 1.5zm3.5 0l5-0.5 0.5 1-4 0.5zm13.5 8.5l1.5-1.5 0.5 2zm-18.5 7.5l3-2-0.5-2h5l-4.5-0.5v-3l6-1v1.5l8 1 2 0.5-3 1 1.5 0.5-1.5 0.5 1 1-4-1-2 2 0.5 1.5 3.5 0.5h-4v1.5l-0.5-1.5-4 0.5-1.5 2.5-7.5-0.5-0.5-1 6.5-0.5zm-2 6l4.5-2-0.5 2.5-1.5 0.5zm-15.5 26l-1-2h2v-2.5l2-0.5 3.5 0.5-0.5 2.5h-3l1 2-1 0.5zm22.5 57l-6.5-1 0.5-1.5 3 0.5 1-1.5h2l4 0.5-3 0.5zm0 2l-3.5-0.5 3.5-1 2 0.5zm3.5 1v-0.5l2.5 1zm0 4.5l-7.5-1 6-1.5-8.5-2h10l-0.5 2 4 1 2-1 1 1.5-4.5-0.5zm6 7.5l-1.5-1 1-2-4.5 0.5-1.5-1 1.5-1.5-7-1 8.5-1 6 0.5-4 1.5 5.5 1-3.5 0.5 3 1.5h-3.5zm-0.5 3l2.5-2 4.5 1h-2.5l0.5 1.5zm-3 1l-1.5-0.5 2-0.5zm4 4.5l1-1.5-1.5-0.5 3-1 5.5 1-1.5 1.5 2.5 0.5-1 2h2l-3.5 1.5-3.5-0.5 1.5-2zm11.5 10l-2.5-1.5 1.5-1.5-8-1.5 6.5-1 4.5 0.5-2 1 2 1.5z"/>
		<path id="Path 75" fill-rule="evenodd" class="s75" d="m532.5 331l2.5 0.5-0.5-1.5 2.5-2h2.5l0.5 2.5-4.5 2.5-4-0.5-5 4-1.5-0.5 1.5-2 5-4zm40.5 36l7-3.5 1.5 1v0.5l-0.5 0.5h-0.5l-0.5 0.5-2.5 2-2.5 1v-2zm-6.5 21l-2-0.5 1.5-1.5h1zm25 2l5.5-1.5 0.5 0.5-0.5 2.5 6-1.5 1.5 1.5-1.5 1.5 2.5 0.5-5.5 1v1.5l-4.5 1.5v2l8.5-2h2v1.5h-1.5l-2 2 1-0.5 2.5-0.5 0.5 0.5-1 0.5-0.5 0.5-1.5 0.5 1 0.5 0.5-0.5h2.5l-0.5 1.5-9 2.5-0.5 0.5-8 1.5-1 2-3.5 0.5-1.5-1.5 3-1-1-3 4.5-1v-2.5l-2.5-0.5v-1.5l7.5-2-1-2 1-3-3 0.5 1-3zm-174 20l0.5-2.5v1zm178.5 0l1 0.5h-1zm317 35l7-0.5-5 2 4.5 1.5h-6zm-1 4.5l-4-0.5 4-1zm-15 17v-1.5h6l2.5 1v0.5zm0.5 6.5l-4.5-3 7-0.5-0.5-1 3.5 0.5-4.5 1-0.5 1 2.5 1.5zm-13 17.5l-1-1.5 2.5-0.5v-2.5l-2.5-1 3-2 1 1h0.5v0.5h-1.5v1l4 0.5-2 0.5v2.5h-2l1 2h-1.5zm-9.5 7.5l-2.5-1.5h3.5v-1.5l4 1-2 2zm4 22l1-2h-5l2-1.5v-2.5l-5-0.5 3-1v-1.5l-3-1 2-1v-2.5l-4.5-1 2-0.5-0.5-2.5h6l-0.5 1.5h4l2 0.5h0.5l-3 1-1 0.5h1l3.5 0.5-4.5 1.5h3l2.5 1h-6l-0.5 1.5 3 1 4.5 0.5-3 1-5.5 0.5h4l-1.5 2.5h4l4 0.5-1.5 1-4-0.5 3.5 1 3 1.5-4 0.5zm8 3l-0.5-2 2.5 1 1 0.5h2.5l-2 1zm14.5 19l-4.5-0.5 4-2h2.5v1zm2.5 1v-1l6.5 1zm-0.5 1.5l-2-1 2.5-0.5z"/>
		<path id="Path 76" fill-rule="evenodd" class="s76" d="m524.5 307v-0.5h1v0.5zm34.5 40l5-4.5 3-0.5v1.5l-5.5 2.5-1 1-1 0.5h-0.5zm371 53.5l1.5-0.5-0.5 0.5zm1.5 24.5l5.5-2.5h1l-2 3.5-4.5 0.5zm-910.5 95.5h0.5v0.5h-0.5zm652 30.5l1.5-1.5 8-1-0.5 1.5 4-0.5-1.5 2 4 0.5-4.5 2 0.5 2-4.5-0.5 0.5-1.5h2l-0.5-3.5zm14 4.5l3-1v1.5zm0 3l-5.5-1h6.5zm0.5 0h2.5l-1.5 2zm1 4l-1.5-1h2zm-0.5 0.5l-1 1.5v-1h-0.5zm-1.5 0.5l0.5 0.5h-0.5zm261 38.5v-1h0.5v1zm0.5 1.5l-0.5-1h0.5zm-427 40.5v-2.5h0.5zm-20 30.5l1.5-0.5h0.5zm-13 1l-1-0.5h1zm6 0v-0.5h1v0.5z"/>
		<path id="Path 77" class="s77" d="m529.5 321l4-1.5-1.5 3-3 2.5-2-1zm374.5 81.5l1.5-0.5v0.5zm-1.5 3.5l-0.5-1 3.5-1v-1.5h2l-1 3.5zm-647 19.5v-0.5h1.5zm674 0.5l2-1v1.5zm-814.5 31l-0.5-1 1.5 0.5zm-74 15.5l4.5-0.5-1.5 0.5zm-9.5 16h0.5v0.5h-0.5z"/>
		<path id="Path 78" fill-rule="evenodd" class="s78" d="m92.5 462.5l3-0.5v0.5zm844 119h-1l1-0.5zm-723 22l-1.5-0.5h1zm34 13.5l-1.5-0.5h1.5zm378 48l-4-0.5h3.5zm-136.5 10.5v-0.5h1v0.5z"/>
		<path id="Path 79" class="s79" d="m86 499.5l0.5-6 5.5-4 6 1.5 2.5 6.5-1.5 6-2 2.5-4.5 1-4-2.5z"/>
		<path id="Path 80" class="s80" d="m398.5 504.5l2.5-1.5 5 1v3l-3 3-5-3.5z"/>
		<path id="Path 81" class="s81" d="m531 310v-1.5h1.5l-1 1.5zm151.5 261l0.5-1h0.5l0.5 1zm-4 6.5v-5.5l4-1 0.5 1.5h-3l2 2h-1.5l0.5 2.5-1.5 1zm-355 50l-1.5-1.5 2 0.5zm-12 3l1.5-1 2 1z"/>
		<path id="Path 82" fill-rule="evenodd" class="s82" d="m531.5 330l1.5-0.5-0.5 1.5zm43 99l-4 0.5-2-2 3-0.5h7.5l-5 0.5zm1.5 0.5l3 0.5-4.5 0.5zm64 22h5-3z"/>
		<path id="Path 83" fill-rule="evenodd" class="s83" d="m589 376.5l6-1-4 3 0.5-2zm8 12l2.5-0.5-2 1zm9 11.5l1.5-0.5-1 1zm-2.5 0.5l-1 0.5 1-1zm0 1.5l1.5-0.5v0.5h-0.5v0.5zm1 0.5l0.5-0.5v0.5zm-16 7.5l1-2 8-1.5 1 1-4 1 1 1zm5 2v-1l0.5 1zm-5.5 2.5l4.5-1v2l13-1-4 1.5-0.5 2 4-0.5-1 2.5 1.5 1.5-6.5 1 4 1.5-8 1-3-2h-6l-1-3.5 3-2.5zm-1 11.5l1.5-2 1 1.5zm332.5 22l-4.5-1.5 5-2 1 2.5h1.5l-1 1.5 6-0.5-2.5 2-3 3-8-1v-1.5l-2-1v-1.5zm-14 18l1.5-0.5v0.5l-1.5 0.5zm-0.5 0.5h0.5v0.5h-0.5zm-5 1l5.5-0.5 1.5 1-4 1-3.5-0.5v-0.5zm-2.5 5.5l3-0.5-2.5-1.5 0.5-1 4.5-1v3l6 0.5-5.5 0.5 0.5 3.5-3.5 2-2-0.5 0.5 2.5-3.5-1-2 2-7-2h7.5l-3.5-1.5 4-0.5 0.5-2 4.5 0.5-1.5-1.5 2-1zm-11 10l7-1.5h4l-1 2-9 0.5zm1.5 1.5v-0.5l1 1zm-3 7.5l-7-1.5h6.5l1.5 0.5zm1 1v-1l4.5 1zm-9.5 1l8.5-1-1 2h2l-0.5 1.5 1.5 0.5-5.5 1h-3.5l2-2-4-1v-0.5zm0.5 8.5l3-1 1.5 0.5-1 2h-4zm3 3.5h-1l1-0.5zm2 2h-3l3-1zm-1 3.5l-3-1 0.5-1.5h2zm2.5 4.5h-4l1.5-2.5h-4l5.5-0.5 3.5 1zm2 2l-3.5-1 4 0.5zm3.5 4l2.5-0.5-1.5 1zm1.5 2l-8 0.5-0.5-1 5-0.5 3.5 0.5zm1 2.5l-7 1-1-2 9.5-0.5 1.5 1.5zm3 3l-0.5-1.5h1.5l0.5 1zm-2 1l-1-0.5 1.5-0.5zm3 1l-1-1 5.5 0.5zm1 1l-4.5 0.5-0.5-1 4-0.5-0.5 1zm4.5 7l-1.5-0.5 3-1.5-7-0.5 5-1v-1.5l-3-0.5 3-0.5-0.5-1h4l-1 1.5 2.5 0.5-3 1.5 2 1.5-1 2zm2.5 1v-1l3 1zm-2 1.5l2-1.5v1.5zm2 2.5l0.5-1.5h6.5l-0.5 1.5z"/>
		<path id="Path 84" fill-rule="evenodd" class="s84" d="m560.5 347.5l2.5-0.5-1 1.5 2.5 0.5-8.5 6v-4zm-2.5 0l1-0.5v0.5zm341 56.5l5-1.5h1.5v1.5l-3.5 1 0.5 1h-1.5zm-595.5 14.5l-0.5-2.5 2.5 1-1 1z"/>
		<path id="Path 85" class="s85" d="m618 659l1.5-1.5 3 1.5 0.5 1-3 1.5-2.5-1.5zm5 1h1.5l-0.5 1z"/>
		<path id="Path 86" class="s86" d="m580 400l5-2 2.5 1.5v1.5l-6 2-2.5-2zm344 19h6l2.5 2-0.5 2 5-0.5-5.5 2.5-2 1-6 2-4-2 5-2-4.5 0.5-0.5-1.5 9-2.5h-5zm-402.5 12.5v-0.5l1.5 0.5zm-431.5 33l-1.5-1.5 2.5 0.5zm-24.5 4.5l-2.5-1h3.5zm-5.5 1.5v-1l1 0.5z"/>
		<path id="Path 87" class="s87" d="m471 417v-6l4-6.5h5l2.5 2 0.5 12.5-8-0.5zm77 19l1.5-1 2 2 6 1-3 3.5zm-210 75.5l1-13 2-4h5v13.5l-2 1v3.5h-5zm279 13l0.5-2h9.5v4l-4.5 2h-5.5zm260 74.5l14-1.5 3 2-0.5 5.5z"/>
		<path id="Path 88" class="s88" d="m497.5 675h0.5v0.5h-0.5z"/>
		<path id="Path 89" class="s89" d="m521 641.5l-1-1.5 1.5-0.5-2-2 2-3v7zm-31 34v-0.5h1v0.5zm5-0.5h0.5v0.5h-0.5zm3 0h0.5v0.5h-0.5z"/>
		<path id="Path 90" class="s90" d="m525.5 306.5h0.5v0.5h-0.5zm-37.5 369v-0.5h1v0.5z"/>
		<path id="Path 91" class="s35" d="m31.5 488h0.5v0.5h-0.5z"/>
		<path id="Path 92" class="s45" d="m362.5 591.5h6.5l4 3 2 3v9l-2.5 2-0.5 5-1.5 1h-8.5l-3-5-3.5-0.5-0.5-2.5-3-2.5v-11z"/>
		<path id="Path 93" fill-rule="evenodd" class="s74" d="m553.5 334.5l1.5 0.5-2.5 1zm7.5 11.5h0.5v0.5h-0.5zm6.5 0l1 0.5-1 1h-1.5zm-7 0.5h0.5v0.5h-0.5zm-4 13.5h0.5v0.5h-0.5zm11.5 2h0.5v0.5h-0.5zm1.5 1.5h0.5v0.5h-0.5zm-1 0.5h0.5v0.5h-0.5zm13 0.5h0.5v0.5h-0.5zm-0.5 0.5h0.5v0.5h-0.5zm-1 0.5h0.5v0.5h-0.5zm-3 5.5h0.5v0.5h-0.5zm9 4l1.5 0.5-3 1zm-3 11l1.5 1-2.5 1zm3 2.5l1.5 1h-2zm-5 4h0.5v0.5h-0.5zm-216 21l1.5 1h-2.5zm-70.5 6l-2-1 1.5-0.5zm-102.5 16l1.5 1h-2zm-22.5 6l1.5 1-1.5 0.5zm440.5 3.5h0.5v0.5h-0.5zm-479 6l2 1-1.5 0.5z"/>
		<path id="Path 94" class="s75" d="m899.5 467.5h0.5v0.5h-0.5zm-23.5 26.5h0.5v0.5h-0.5zm-0.5 0.5h0.5v0.5h-0.5z"/>
		<path id="Path 95" fill-rule="evenodd" class="s76" d="m526 308h0.5v0.5h-0.5zm2.5 0h0.5v0.5h-0.5zm-3 0.5h0.5v0.5h-0.5zm15.5 8l3 1-3.5 0.5zm3 3l2 1.5h-2zm5 4.5h-2.5l1-2 2 0.5zm1.5 2l1.5 1-2 1.5zm0.5 3.5l1.5-1-0.5 1.5zm-1 0h0.5v0.5h-0.5zm10.5 5.5l3.5 2.5-4 1-0.5-1 2.5-0.5zm5.5 5l1 1-1 0.5zm10 12.5l2 0.5-3.5 1zm4.5 5.5l0.5 3-4 1zm105.5 197.5h0.5v0.5h-0.5zm0 8h0.5v0.5h-0.5zm261 38.5h0.5v0.5h-0.5zm0.5 2.5h0.5v0.5h-0.5z"/>
		<path id="Path 96" fill-rule="evenodd" class="s77" d="m404 411l2 0.5-2.5 0.5zm-7.5 0.5l1.5 0.5-1.5 1zm-330 54.5l2.5 1-2 0.5zm-36 20.5l-1.5-1v-2.5l2-0.5zm1.5 3h0.5v0.5h-0.5zm0.5 1h0.5v0.5h-0.5z"/>
		<path id="Path 97" class="s78" d="m552 330l-4.5 2h-3l1.5-3 2.5-1 1.5 2 0.5-0.5h0.5zm-61 345h0.5v0.5h-0.5z"/>
		<path id="Path 98" class="s81" d="m323.5 625h0.5v0.5h-0.5zm-2 0.5h0.5v0.5h-0.5z"/>
		<path id="Path 99" fill-rule="evenodd" class="s82" d="m535 327.5h0.5v-0.5h-0.5zm-0.5 0.5h0.5v-0.5h-0.5zm-0.5 0.5h0.5v-0.5h-0.5zm-0.5 0.5h0.5v-0.5h-0.5zm-0.5 0.5h0.5v-0.5h-0.5zm-330 104.5l2-0.5-1-1z"/>
		<path id="Path 100" fill-rule="evenodd" class="s83" d="m604 399h0.5v0.5h-0.5zm-0.5 0.5h0.5v0.5h-0.5zm1.5 1.5h0.5v0.5h-0.5zm-7.5 5h0.5v0.5h-0.5zm-4.5 6.5h0.5v0.5h-0.5zm-0.5 0.5h0.5v0.5h-0.5zm1.5 14.5l3.5 1-3.5 0.5-1-0.5zm-12.5 2l15 0.5-6 1zm345 16.5l1 1h-3.5zm-44 58h0.5v0.5h-0.5zm23.5 33l0.5 1h-1.5z"/>
		<path id="Path 101" class="s86" d="m521 430.5h0.5v0.5h-0.5zm378.5 9h0.5v0.5h-0.5z"/>
		<path id="Path 102" class="s89" d="m493.5 675h0.5v0.5h-0.5z"/>
	</g>
</svg>