<svg version="1.2" xmlns="http://www.w3.org/2000/svg" viewBox="0 0 1000 1000" width="1000" height="1000">
	<title>Cyprinus-carpio-white</title>
	<style>
		.s0 { fill: #bea278 } 
		.s1 { fill: #806b52 } 
		.s2 { fill: #a4875f } 
		.s3 { fill: #a3814e } 
		.s4 { fill: #997849 } 
		.s5 { fill: #cbb18b } 
		.s6 { fill: #c7aa7f } 
		.s7 { fill: #8e6d45 } 
		.s8 { fill: #ac8f64 } 
		.s9 { fill: #b19771 } 
		.s10 { fill: #d6b786 } 
		.s11 { fill: #a68f70 } 
		.s12 { fill: #b89b6e } 
		.s13 { fill: #c1a781 } 
		.s14 { fill: #c29c63 } 
		.s15 { fill: #b9945c } 
		.s16 { fill: #917c62 } 
		.s17 { fill: #af8b54 } 
		.s18 { fill: #786044 } 
		.s19 { fill: #d7bc96 } 
		.s20 { fill: #cfaf7e } 
		.s21 { fill: #e2c497 } 
		.s22 { fill: #d3ae74 } 
		.s23 { fill: #82674a } 
		.s24 { fill: #9c7d5c } 
		.s25 { fill: #937656 } 
		.s26 { fill: #66410f } 
		.s27 { fill: #897156 } 
		.s28 { fill: #814c0b } 
		.s29 { fill: #42372f } 
		.s30 { fill: #655542 } 
		.s31 { fill: #e8cba5 } 
		.s32 { fill: #534231 } 
		.s33 { fill: #9d856a } 
		.s34 { fill: #5d4b36 } 
		.s35 { fill: #81715e } 
		.s36 { fill: #c6a46e } 
		.s37 { fill: #dcbd8e } 
		.s38 { fill: #906731 } 
		.s39 { fill: #665137 } 
		.s40 { fill: #b29c7d } 
		.s41 { fill: #aa6b0f } 
		.s42 { fill: #85643e } 
		.s43 { fill: #5c4425 } 
		.s44 { fill: #cea667 } 
		.s45 { fill: #d8c6af } 
		.s46 { fill: #e3d3c1 } 
		.s47 { fill: #695b4c } 
		.s48 { fill: #716353 } 
		.s49 { fill: #9d5e0b } 
		.s50 { fill: #705638 } 
		.s51 { fill: #a65705 } 
		.s52 { fill: #b37617 } 
		.s53 { fill: #574b42 } 
		.s54 { fill: #4d413a } 
		.s55 { fill: #9f763c } 
		.s56 { fill: #935008 } 
		.s57 { fill: #bda78d } 
		.s58 { fill: #35271a } 
		.s59 { fill: #7b5114 } 
		.s60 { fill: #8c5711 } 
		.s61 { fill: #b88f4a } 
		.s62 { fill: #7b5d36 } 
		.s63 { fill: #bc8125 } 
		.s64 { fill: #d1ba9c } 
		.s65 { fill: #dfb877 } 
		.s66 { fill: #a89683 } 
		.s67 { fill: #e5c288 } 
		.s68 { fill: #97887a } 
		.s69 { fill: #ad843f } 
		.s70 { fill: #704b19 } 
		.s71 { fill: #9d6b20 } 
		.s72 { fill: #946219 } 
		.s73 { fill: #1d1613 } 
		.s74 { fill: #a4752c } 
		.s75 { fill: #7c552c } 
		.s76 { fill: #b48131 } 
		.s77 { fill: #825c21 } 
		.s78 { fill: #b76406 } 
		.s79 { fill: #47341e } 
		.s80 { fill: #d28b0e } 
		.s81 { fill: #e6b863 } 
		.s82 { fill: #c77608 } 
		.s83 { fill: #c18e3f } 
		.s84 { fill: #cb9b4f } 
		.s85 { fill: #ecdfc7 } 
		.s86 { fill: #e59f11 } 
		.s87 { fill: #d9a758 } 
		.s88 { fill: #afa396 } 
		.s89 { fill: #efd8b7 } 
		.s90 { fill: #543812 } 
		.s91 { fill: #eab13b } 
		.s92 { fill: #d99e37 } 
		.s93 { fill: #c3b4a5 } 
		.s94 { fill: #d39426 } 
	</style>
	<g id="Background">
		<path id="Path 3" class="s0" d="m439.6 334.2l5.7-6.7 1.1 1-1.6 4.7-3.7 3.7-1.5-1.6zm-40.6 86l9.9-1.6 1.5 1.1 0.5 4.7-0.5 4.1h4.7l2.1 2.7 3.6 2v3.2l0.6 5.7-2.1 5.2 5.7 1.6 4.2 3.6v2.6l-2.1 1.6-1.1 9.4 4.7 0.5 3.7 3.6 3.1 3.7-2.1 0.5 0.5 3.7 3.7 1-2.1 2.1-3.1-0.5 0.5 4.1-3.6 1.1h-2.1l-1.1-4.7-5.7-0.5 0.5-4.7-0.5-3.1-4.7-3.2-4.2-3.6v-12-7.8l-5.7-4.7 0.5-5.8-3.1-0.5-4.7-2.6-1.5-3.1zm-36 11.5l1.1-5.3h9.9l-0.6 2.1h5.8l0.5 2.6 2.6-0.5h1v3.1h-1.5v1.6l1.5 4.2-2.6 7.8h-8.8v-2.1l-2.6-1.6 0.5-9.9h-5.7zm158.3-1.5l2.6-2.6 2.1 1 2.1 8.9 2 1 2.1 2.1-1 6.8-4.2 3.1-1-6.8h-1.6l-0.5-2.1 2.1-1.5v-2.6l-5.7-2.6zm24.4 8.8l0.6-8.3h5.2l1.5 1 2.6 5.2-0.5 4.2 4.7 3.1-0.5-4.6 9.3-0.6 4.7 6.3 1.6-0.5 6.2 0.5-0.5 4.2-3.1 1.5v7.8l-9.9-1-0.5-10.9-1.6-0.6-3.1 3.2 1 4.1h-6.2l-3.7 2.1-0.5-8.8-5.2 1-2.1-4.7zm-38-1l2.1-1.1 2.6 1.1-1 5.2-3.2-0.5zm-176.5 9.9v-3.7l2.6-4.7h5.7l3.1 0.5 1.6 2.1-1.1 3.1 6.3 4.2 1 5.2-2 2.1v7.8l-1.6 1.6h-4.2l-1-2.1h-5.7l1.5-3.1v-7.3l-5.2-0.5zm-63.5 25l-1.1-5.7-3.6-2.6 0.5-10.5h2.6l0.5-4.7h5.8l7.2 2.6-1.5 5.3 3.6 3.1 2.6-1.1 1.1-3.6h5.2l2.6 3.1 1 3.7-1.5 1 0.5 4.2-2.6 0.5-4.7 1-0.5 5.3h-15.1zm34.3-4.7l2.7-4.2h7.8l5.7 2.6 2.1 6.3-1.6 3.6h-9.9v-7.3l-5.7 2.1zm287.5 0l4.7-2.6 2.6 2.1 2.1 4.7 0.5 9.3 4.2 2.1 4.6 1.1v5.2l-2 5.7 1 4.2 2.6 0.5v8.4l2.6 2v12.5l-6.8 3.2-1.5 10.4h-12.5l-2.6 2.1h-4.7l-0.5-1.6-6.8-0.5v-7.8l-3.1-2.6h-5.2v-13.1l-2.1-1.5h-6.3v-16.7h4.2l3.1 2.6 1.6-4.7h9.9v4.7l2.6 1.6 1.5-4.2h9.4l1.1 4.2 3.6-0.6 0.5-10.9-1.5-1-3.2 2.6-4.1-6.8v-4.2l1.5-1zm-144.2 5.2l3.6 1 1.6-1.5 2.6 3.6h6.2l3.1-3.6 5.8 1 2.6 8.9 1 7.3-1 3.1-4.2-2.1h-7.8l-0.5-2.1 1-10.4-3.6 3.1-3.7 0.6 1.1 4.6-3.2 0.6-3.1-0.6-2.1-3.1h-4.1v-4.7l2.6-3.6zm34.4 1h3.6v8.4l-2.1 2h-4.2l0.6-5.7zm16.6 33.4l-1-2.1-4.2-1.6-2.6-8.3h4.2l1.6 5.7 3.6 2.1v4.2zm41.1-9.9l1.1-0.6h11.4v12.6l2.1 2v8.4l4.2 1.5v4.7l-4.2 2.6v7.9h-6.2v-3.7l-8.9-7.3-1.5-4.7 3.1-2.1 1-5.2v-6.2l-2.1-2.1zm-197.9 6.8l1.6-3.2h10.9v3.7l-2.1 1v9.4l1.6 1.6 0.5 9.4h-8.3l-4.2-12.6zm-16.6 24v-16.7h5.2l1.5 2.1h3.7l-1.1 14.6zm-219.8-5.2l6.3-4.2 0.5-3.1h9.4l4.7 8.4-3.1 2.6v3.6h-4.2l-11-1zm340.7 11.4v-5.2l2.1-1h6.2v6.2z"/>
		<path id="Path 4" fill-rule="evenodd" class="s1" d="m268.8 406.2l9.3-1.6 3.1 7.8v5.8h-7.2l-5.3-4.2zm238.6 43.3l-0.5-4.7 1.5-2.1 3.2 0.5 1 11v4.7l-2.6-3.2-3.1-0.5zm-326.6-0.5l10.4-5.2 0.5 12-17.1-0.6 0.5-3.6zm646.9 0.5l8.8-2.1 1.6 4.7-10.4 3.1zm-600.6 16.2v-7.8h4.2l2.1 1v7.3zm271.3-3.1l5.8-3.1-1.1 8.3 2.1 1.1v2.6l-1 2.1-1.1 3.1-4.1-1.1h-2.1l1.5-4.7-1-2 1.6-0.6zm-325.6 32.9h3.7l1.5-1.6v-4.7l3.2-1.5 6.2 1 1.1 2.6-1.1 8.3h-6.7l-3.2 4.2h-4.7zm29.2 52.1l9.4-1 3.1-3.1h5.7l2.6 4.7h3.2l-1.1 18.7-7.8-2.6-4.2-1.5 0.6-2.1-4.2-1.1-7.3-1zm62.5 6.3l7.3-1.1 1 5.2v13.6h-12.5l-2-2.6-8.4-1.1-2.1-1.5v-6.3l3.2-3.1 11.4 1zm-53.1 9.9l2.6-0.5 1 1.6zm314.6 2.6h9.9l4.7-2.1h35.4l-1 11.5-65.1 9.9-3.7-1.1v-3.6l-2.1-2.1v-6.3h14.6l6.3-2.1z"/>
		<path id="Path 5" class="s2" d="m354.2 386.4l20.8-1.1v4.7l6.3 5.2-0.6 4.2 5.2 4.7 1.1 1-0.5 5.8h-2.1l-9.4-0.5v-6.8l-5.7 2.6-4.7-0.5v-6.3l-2.1-2.1h-8.3zm193.7 18.8l2.6-4.7h1.6l2.1 1.6v5.2l-2.6 2.6zm27.6 15.1l-0.6-7.8 3.7-2.1 3.6 3.6 1.1 4.7 6.8 3.7 1.5 2.6-0.5 2.1 1.6 0.5-1.1 2.6h-0.5l-3.7-3.6h-4.6l-0.6-6.3-4.6 2.1zm-29.2 10.4v-5.2l5.2 1.6v3.6zm57.8 7.3l2.6-1.6 3.1 1.6 1.6 5.2 1 2.1-9.3 1.6v-2.6zm-93.3 38.5l3.7-4.6-0.5 3.6h2l3.2 3.1 0.5 3.7-4.2 2.1v2.6l-4.7-0.6v-3.6l-1.5-1 2.1-2.1zm39 20.8l0.5-12.5 3.7-1.6 1 6.8 2.1 1.6v3.1l-2.6 2.6zm-320.8 2.1l2.1-12.5h6.2l2.1 18.8h-4.2zm441.7-4.7l3.6-2.1 3.2 1.5 7.8 1.1 3.1 1 0.5-1h7.3l-0.5 2.1 3.1 1 1.6 3.1 4.7 1.1v3.1l-2.1 1.1-0.5 3.1h-11l-3.1-4.2h-8.9l-3.6-5.2-4.2-1-1-2.1zm-306.8 2.1l4.7-0.6 1 2.1-1 6.3-3.6 4.7h-4.2l-0.5-3.7v-5.7h2.1zm298.4 27.6v-9.4l-2.1-2v-6.8l2.1-0.5h8.3l4.2 4.1h6.2l3.2 4.2h7.3l2.6 3.1h3.6l1.6-3.6 3.6-1.6 8.3-1 5.3-1.6 6.2 2.6 0.5 3.1-0.5 9.4v3.1l-4.2 1.6v3.7l-20.8 0.5-5.2-3.7-16.7-1-2.1-2.1h-6.2l-1-2.1zm180.7 1.6l-1.6-1.6v-6.2l8.9 0.5-4.2 6.2zm-222.4 8.9v-10.4h10.4l7.8 1.5 0.6 1.6v7.3l-9.4 1zm-526.6 14.6l-11.9 4.7 1.5-2.6 10.4-4.7z"/>
		<path id="Path 6" class="s3" d="m503.1 391.1l6.8-0.6 3.1 4.2 4.7 1.6 1 6.8-4.6 2.6-9.9-0.6-1.1-3.6-1-7.3zm-180.7 21.4l0.5-4.7h11.4l-0.5 2.1h2.1l3.1 4.1 1.6-4.1h1l0.5 6.7-2.6 1.1v8.3 13.6h-5.7v-5.8l-1.6-0.5v-6.2l-4.6-1.6 3.1-11.5-6.8 2.6zm236.5 17.2l2.6-3.1 3.1 0.5 1.6 3.2-0.6 2.6h-5.2zm109.9-1.1l7.8-0.5 11.5 0.5v5.8l6.3 2-0.6 9.4-8.8-1-8.9-2.1 1.1-2.1h2.6l0.5-2.1-8.3-2.6-1.6-2.1h-3.1l-0.5-2zm-256.8 42.7l1.5-1v-4.2l4.2 3.6-1.6 3.2-3.1 1zm107.3 4.2l0.5-6.3 1.1 5.2zm-306.8 13.6h13l1.6-2.1h4.2l-2.1 12.5-8.4 2.1-6.2-1zm504.2 15.6l2-2.1 2.6 2.1 4.2 5.2-2.6 2.1-6.2-2.6zm120.8 13l0.5-6.8 6.8-1.5 6.8-4.7 6.7-1.1h4.2l0.5 5.3-12.5 9.9-8.8-0.6zm-118.8 15.2v-3.7l4.2-1.6v-3.1h12.5v12.5l-4.2 2.1-6.2-0.5-4.7-2.6zm-564.6-5.2l12.5-1.1h12.5l2.1 2.1v12.5h-11.5l-7.3 2.1-1-2.6-7.3-1.6zm250 36.5v-5.7l6.2-0.5h8.9l6.2 4.2h7.9l12.5-2.1v4.1l4.1 2.6v1.6 4.2h-8.8l-7.3-2.1-2.1-2.1-10.9-2.1-1.6-1.5-13-0.6z"/>
		<path id="Path 7" class="s4" d="m312.5 413v-5.2h3.1 1.6l0.5 2 4.7 2.6 1.6 4.2-0.6 3.7h-11.4l1.5-4.7zm322.4 30.7l3.2-0.5 0.5 4.2-4.2-0.5zm-415.1 30.7v-4.7l7.3-4.1 6.3 0.5 5.7 2.6 0.5 14.1-2.1 1.5v2.6h-6.2l-1.1-8.3-3.1-2.6h-6.2zm-6.3 45.3l-3.1-4.1-1.1-15.2-4.1-1.5-3.2-3.7 1.1-12 9.4-0.5v6.3l2 11.4 6.3 1.1v9.9zm49-28.7l2.6-0.5 5.7 3.1v14.1 8.3l3.1 3.7-3.1 1.6-10.4-1.1v-15.6l-4.2-3.7 6.3-6.8zm442.7 11.5l2-1.6 2.1 1.1 2.6 3.6-0.5 5.3-8.3 1-0.5-2.1 0.5-3.1 2.1-1.1zm-586 13.6l3.7-3.7 2.1 1.6h5.2l1.5 3.7 8.9 0.5 2.6 4.2h7.8l0.5 4.1 2.6 1.1v11.4h-7.3l-2.1 2.1h-4.1l-4.7-3.1h-4.7-3.1l-1.6-3.1 2.1-2.6v-5.8l-4.7-2.1zm604.2-1h2.1l1.5-2.6h9.4l1.6 1.5-2.6 2.7v6.7 1.1h-12.5zm-556.8 5.2l10.4-2.6 4.7 2.6h5.7v6.2l-6.2 2.1-2.1-2.1h-12.5zm247.9 59.5v-4.7l-4.2-4.2-4.1-1.6v-5.2l13 0.6 1.6 1.5v14.6l-2.1 0.5zm35.4-11.4l9.4-2.1 4.1 2.1 1.1 4.1v8.9l-11.5 0.5-3.1-9.4z"/>
		<path id="Path 8" class="s5" d="m419.8 372.8l0.5-3.6h0.5l1.6 2.1-1 2zm148.9 10l9.4-0.6 9.4 1.6 0.5 5.7-1.6 1.6 1.1 2.1v4.1l-4.7-0.5 0.5-4.1-6.3 0.5h-5.2l-0.5-2.1-2.6-1.1zm54.7 12.6l2.1-2.6h1.5 3.2l-1.1 6.7h-5.7zm-159.4 39.1l6.8 2.1 0.5-2.1 7.8 2.6-0.5 4.7-5.2 2.1 1.6 4.7-1.1 4.7 2.1 0.5-1 14.6h-4.2l-2.1-2.1 1.6-7.3-7.3 3.2-0.5-5.8 1-14.1-1.6-1zm-188 5.7v-2l2.1 0.5 1.6 3.1zm112.5 4.2l10.9-1.1 2.1 2.6 1 2.6-0.5 9.4h-6.2l-0.6-2.6-6.7 2.6-3.7-2.1h-9.4l-0.5-2-3.1 2.6-3.1-0.6v-6.2l3.1-2.1h8.9l5.2 2.1 2-1.6zm56.3 11l0.5-5.8h2.6l2.1 2.1v6.8l1.6 2.6-3.7 1zm49-0.5l2.6-0.5 0.5 6.3-3.1-0.6zm-168.8 13.6v-4.2h4.2l-1 2.6 4.1-1 3.1 5.2 1.6 3.1 0.5 2.6h-5.2l-3.1-4.1h-2.6l0.5-4.2zm146.9 28.7l5.2-1.1 1.6 1.6h4.6l2.1 2.6v8.9l-1 7.3 1 1 8.4-1h4.7l3.1 4.1h14l5.2 4.7v14.1l-33.8 2.1-1.6-2.1h-10.4l-5.2-6.3v-8.8l-2.1-1.6v-4.2h3.1l4.2-5.2v-8.8l-3.1-2.6zm84.4 29.7v-4.7l-4.2-1.6v-8.3h8.3 6.3l2.1 1.5v13.1zm-224 2.1l1-14.6h6.3l4.2 12.5v7.8l-2.6 3.1-5.8-0.5-3.1-4.7zm-36.5 8.3v-10.4h8.4l2.1 1.6v8.8l-3.2 2.1zm156.3-8.3v-2.1h8.3l4.2 1.6v4.7l-5.7 6.2-6.8-2.1v-2.1zm411.4 92.8l-3.1-1v-1.6l4.2 2.1z"/>
		<path id="Path 9" class="s6" d="m543.8 383.3l4.6-3.2 3.7 0.5 3.1 3.7 5.7 1.6 3.7 5.2-3.1 3.1-9.4 1h-2.1l-0.5-2.6-2.6-1.5v-3.7l-3.1-1.5zm-12.5 47.9h8.8l1 5.2-4.6 5.2-2.1-1-1.1-4.2-2-0.5zm-181.8 18.3l3.6-14.6h3.2 6.7l1.6 6.2-2.6 5.7 4.1 2.1 2.7 0.6v6.2l-1.6 11h-1.1l-3.6-0.6h-4.2l-2 2.6 0.5 5.3v2.6h-12.5l0.5-6.3-1.6 0.5-0.5-4.7h4.2l0.5 1.1 4.2-1.1 3.1 4.2 1-0.5 1.1-16.7-6.3 1.6zm145.3-8.9v-2.1l3.2-2.1 5.7 2.1 4.2-0.5 0.5 4.7-1.6 2.1 0.5 4.7-10.9 0.5zm16.7 2.6l1-5.2h1.6l5.2 3.1 4.7 0.5 0.5 2.1-2.6 2.1 1.5 7.8-10.9 0.5zm-108.8 5.3l2 0.5v-4.2l3.2-3.1 5.7 4.7v7.8l-4.2 2.6-2.6-0.5v1.5h-4.7zm-28.1 21.9l-1-7.8h2l-1-2.1 1-4.7h9.4l3.7 2.1-2.6 11 3.1-0.6 3.6 3.2 4.2 0.5 3.6 3.6-3.1 3.7-3.6-0.5 2.1 2.1v2.6l-1.6 0.5-0.5 3.1h-12l1.6-3.1v-5.2-5.2l-6.8 1.5zm251.6-2.1v-6.2h7.2v6.2h-4.1zm-83.4 9.9l5.3 1.1v-1.6l6.2 0.5v5.3l-3.6 1.5-0.6 12.5h-11.4v-5.7l2.1-1 1-6.8-1-2.1zm-61.5 6.8l2.1-2.1 5.2 1 1.6 5.2-2.6 5.3-4.2-1.1-2.1-1.6zm76 10v-3.2h7.3v3.7h-4.1zm-111.5 33.9v-8.4h6.3v6.3 2.1zm-161.5 0l3.6-6.3h5.8l2.1 1v3.2 10.4h-7.3l-2.6-1.6z"/>
		<path id="Path 10" class="s7" d="m401.6 379.1l5.7-12.5 3.6 1 1.1 1.6h8.3l-0.5 3.6-1.6 0.5-2.6 7.3v3.7l3.2 1.6-1.6 2.6-4.7 0.5-2.1 4.2-6.2-0.6v-6.7h-2.6zm26.5 4.1l2.6-2.6h6.3v3.7l1.5 1 5.3-2.1 4.1 1.6 1.6 4.2-1.6 0.5v7.3l-3.1 1h-5.7l-3.2 2.6v5.2l-2.6-1-2.6-3.1v-3.2l-2.6-1v-3.1l3.2-7.3-3.7-1.1zm52.1 7.9l12-0.6 4.7 3.7h5.2l1 7.3-5.7 3.1-8.9 3.1v3.7l2.1 1.5-0.5 2.1-6.8-8.3-3.1-1v-3.2l-3.1-3.1v-3.7l3.1-2zm-282.3 85.5h4.2l1.5-2.1h13v4.1l-4.1 4.2-9.4 0.5-1 12 3.1 3.7 4.2 1.5 1 15.2 3.1 4.1-1 3.1-3.1 2.1-1.1 3.7h-7.8l-1.6-2.1h-11.4v-6.3l7.3-7.8 1-21.4v-3.1l2.1-1.5zm54.2 25.5l1-13h7.3l2.1 2.1v3.1l-6.3 6.8zm483.4 21.3h2l1.1-3.1h9.4v13l-6.8 0.6-1.6 3.1h-4.1v-12.5zm-87.5 5.2l7.3-4.2h7.2 4.2l1.1 2.1h6.2l2.1 2.1 16.7 1 5.2 3.7v7.3h-12.5l-13.1 1.5h-4.1l-1.6-2v-5.8l-2.1-1.5h-3.6l-1.6 2h-11.4zm-516.2 23v-5.2h7.3l-2.6 5.7zm489.1 8.9v-8.9h6.2l2.1 2.1v2.6l-4.7 2.6-0.5 2.1zm-175-0.5l1-2.1h12.5v8.3l-9.3 2.1v-1.6l-4.2-2.6zm-91.7 14.6v-8.3h16.7v7.3l1.6 1.6 13-0.6 1 4.2-3.1 5.2v10.4h-4.2l-16.6-3.6-0.6-3.7 1.1-3.1 3.6-2.1v-4.7l-2.1-2.6zm-6.2 8.9l0.5-4.7h5.7l3.2 2.1 1 6.2v3.7l-0.5 1h-3.1v-6.2z"/>
		<path id="Path 11" class="s8" d="m389.6 384.3l4.1-1 1.6 3.1-1.6 2.6h-4.1zm-35.4 19.3v-6.3h8.3l2.1 2.1v6.3l-2.1 0.5-4.2-0.5 0.6-3.7zm136.4 9.4l-2.1-1.6v-3.6l8.9-3.1v3.1l7.3 3.1 4.1 4.7-1 5.7 2.6 0.6-1 4.1 4.6 3.2v8.8h-1.5l-2.6-1-2.1 1-4.2 0.5 0.6-13-6.3 3.1-2.1-2.6h-2.1l0.6-4.7 2 1.6-0.5-12.5zm117.7 15.6l-2.1-0.5-2.6-6.3 1.1-4.1 3.6 0.5 3.7 4.2-2.1 6.2zm-227.6-4.1l1.5-4.7h3.2v4.7zm-69.3 1.5l0.5-5.7h11.5l-1.1 4.2 3.7 3.1 1.5-2.1 4.7 1.6v6.2l-5.2 2.1-2.6-4.2-7.8-0.5-1-4.2zm321.3 27.1l1.6-6.2 4.2 0.5h2l1.6 2.6v4.7l4.2 3.7 1-1.1 3.1 1.1-1 4.1-1.6 0.6v2l-8.3-0.5 0.5-4.2-6.2 0.6zm-219.8 20.8l3.1-1 1.6-3.2 4.7 3.2 0.5 3.1-3.7 3.7h-4.1zm231.7 2l3.2-5.7 3.1 3.1 1.5-1h6.3l3.6 3.6v-3.1l2.6-2.1 4.2 2.1v3.1l-1.6 3.7-3.1 2.1v8.8 6.8l-2.1 2.6v5.8l-2 0.5v6.7l2 2.1v9.4h-7.3l-7.2 4.2-8.4-1.1-0.5-1.5-7.8-1.6v-5.2l4.7-5.7 0.5-8.4 1.6-1.5h7.2l3.2-4.7 3.6 0.5v-5.7l-2.1 0.5v-7.3h3.2l4.1 3.1v-12.5l-3.6 1.6-7.3-0.6v-2.6zm-424 25.6l8.4-2.1 6.2 6.3h4.2l1.5 0.5 0.6 14-3.7 2.7-7.3-5.3-2.6-5.2-7.3-1zm-111.4 7.8l10.4-1.6 3.1 2.6v2.1l-3.6 3.7h-9.4zm161.5 12l3.1-1.6 4.1 0.5 2.1 3.7v4.7l-1 4.1-8.3-2zm313.5 17.7h4.7l2.6-2.1h12.5v6.3h-4.7l-3.1 4.1-4.2 1.1-3.1 3.1h-7.8v-4.2l2.1-2.1zm-151.1 8.4v-4.2h8.3v8.3l5.3 6.3-1.1 2.1-12.5 2.1zm-160.4 4.1v-7.8h0.5l9.9 4.2-2.1 3.6zm87.5 2.1v-6.2h22.9l4.2 4.1v9.9l-11.4 0.6-1.6-2.1h-5.7l-5.2-2.6z"/>
		<path id="Path 12" class="s9" d="m339.6 426l4.1 3.1 2.7-7.3 5.7 0.5v6.3l4.1 2.1v4.2h-3.1l-2.1-1.6-5.2 2.6-1.5 6.3-1.6-2.1-3.1-0.5zm48.9 2.6l5.8-0.6 3.6 3.2 1.1-1.6 1.5 3.1 4.7 2.6-3.1 1.6-0.5 8.9-2.1-2.6-11 1v-4.7l1.1-4.7-6.3-1v-3.2h3.2zm-115.7 12l3.2-0.5 3.6 1.6 1.6 1.5v5.3l-1.6 3.6-7.3-2.6zm266.7 3.6l6.2-1 2.1 4.7v1.6h-8.8zm28.1 37.5l1-3.7 1.6-0.5 2.6 3.1 2.6-0.5 3.6 7.3-1 1.1 1.6 1-0.6 3.7h-9.9v-9.4h-1.5zm40.6 3.1l5.7-2.6 4.2 2.6 9.4-0.5 3.6 2.1 1.1-1.6h1v4.7l3.7 3.6-1.1 2.1-4.7 1.6v3.6l6.3 1.1 0.5 2.1-1.6 1.5-0.5 8.4-4.7 5.7v5.2h-10.4l-8.3-1v-12.5l-2.6-2.1v-8.4l2.1-10.4h-3.7zm-290.6 0.5l3.6 1.1 1.6-2.1 1 5.7-2 5.8-3.2-0.6-1.5-3.6-2.6-1.6zm38.5 1.6l3.6 0.5 0.6-2.6h2.1v2.1l1.5 9.9-1.5 3.1h-2.1-4.2zm287.5 6.3l0.5-6.3h2.1 3.7v7.3l-1.6 0.5zm-134.4 14.6v-6.2h7.3l0.5 5.2-2.6 3.1h-4.7zm-57.3 29.2l6.8 2.1 5.7-6.3h5.3l5.2 6.3h10.4l1.5 2.1-1.5 4.2h-11.5l-4.1 3.1h-2.7l-0.5 5.2-7.3 4.2h-12.5l-5.2-6.3v-8.3l7.3-5.8zm93.8 4.2v-4.2h6.2l1.6 3.2h7.8l13.5-1.1 2.1-2.1 6.8 0.6 0.5 1.5-1 6.3-2.1 2.1-31.3-0.6-2-1.5v-3.1zm-288.6 1.5l1.6-3.6 14 4.7v7.8l-1 1-7.3 1.1v-2.6l-5.7-3.7z"/>
		<path id="Path 13" class="s10" d="m427.6 372.3l2.6-2.1 1.1 2.1h3.1l-3.7 8.3-2.6 2.7-1.5-0.6zm164 16.7l3.7-3.6 4.7 0.5 0.5 6.2 3.6 1.6-2.1 5.7-4.6 1.6 0.5-5.7h-6.8l-1-2.1zm-155.2 42.2v-4.7h9.9v4.7l-1.6 1.6h-7.3zm15.1-4.2l12-0.5 2.1 2.1-1.6 5.7-2.1 6.8-4.1 1.5-5.8-9.9zm67.7 14.1l-0.5-3.6 1.6-2.6 5.7 2.6v2.6l-2.1 1.5zm55.2 0l4.2-2.1h4.7l1 4.7-3.1 1.6-6.3-0.5zm28.7 5.7l9.4-1.6 1 5.8v1.5h-1.6-1.5l-0.5 3.2-3.7 2.1-3.1-6.8zm-28.7 19.3l2.6-5.2 4.2 2.6v4.7h-6.2zm-211.5 5.2l-0.5-5.2 3.6 0.5h1.1 4.1l3.2 3.6 2 4.7 1.1 3.1-0.5 2.7h-1.6l-3.6-0.6-2.1-3.1-5.2-2.6v-2.6zm123.4 3.1l2.1-6.2 8.8 0.5 1.1 2.1-1.6 4.7h2.1l-4.2 3.1-4.6 3.6zm6.2 14.6l0.5-2.1h6.8l5.7 4.7v1.1l-1 4.2 3.1 4.6h1.6v6.3h-11.5v-4.2l-3.6-2.1-1.6-5.7zm-188.5 22.9v-10.4h6.2l7.3 2.1 1 8.3-2 2.1zm23.9 0v-5.7l1.6-1.6h9.9v9.4h-6.3-3.6zm201 5.2v-2.6l4.2-4.7 0.5-4.1h3.7l2 2v6.3l-1 5.2-3.1 2.1-6.3-2.1zm-258.3-9.4l6.2-0.5 2.1 1.6-1 11.4-4.2-0.5-3.1-3.6zm-22.9 14l3.6-4.6h3.7l1.5 3.1-1 5.7 1 2.6-2.1 1.1 1.1 5.2h-6.3l-4.7-4.2z"/>
		<path id="Path 14" class="s11" d="m314.6 444.2l2.1-5.2h5.7l3.6 2.6-0.5 2.1 5.7 4.2 1.1 5.2h-1.6l-1.5 11h-4.2l-6.8 0.5 0.5-12-3.1-0.5zm266.7 1l3.1-1.6 4.7 1.1 2.1 2.6h6.8v2.1l5.2 1.5 3.1 6.8-1.1 6.3 5.8 3.6 0.5 2.6-7.8 0.5-2.6 2.1-2.1-0.5-2.1-4.7-0.5-12-1.6-1.5-3.1 1.5-3.1-2.1h-6.8l-1-4.1zm-62.5 16.7l1.5-1.6-0.5 2.1zm62.5 24.5l3.1-6.3 4.7 2.6 4.2 6.8-0.5 5.7h-9.4v-8.3zm-343.8 0.5v-2.6l2.1-1.5h11.5l2.1 1.5v4.7l-1.1 13-2.1 1.1v7.8l5.3 2.1v4.2h-3.7l-3.6 4.6-1.6-1.5h-4.7l-0.5-14.1-1.6-0.5zm366.7 50l1.6-10.4 6.7-3.1 8.4 1v10.4l-4.2 2.7v3.6h-5.2l-1.1-4.2zm-325-4.1l1.1-4.2h4.2l1.5 6.8 2.6 1.5-0.5 4.7h-2.6l-4.7-5.2zm-162.5 4.2v-6.3h4.2l0.5 3.2 2.6 1.5-1 1.6zm15.1 9.4l-0.6-8.4h4.7l4.7 3.2v3.6l-1.5 1.6zm355.2-5.2l33.8-2.1 2.1 2.1h22.9l2.1 1v3.1l2.1 1.6 31.2 0.5v4.2l-2 4.1h-23.5l-3.6 2.1-7.3-2.1h-33.4l-1-4.1h-17.2l-1.5 2.1-17.8-2.1-1 2.1h-6.2l0.5-5.2h2.6l4.1-3.2h11.5zm-243.2 8.4l0.5-7.3 13 0.5 1.6 4.7 5.7 3.6v2.6l-2.1 4.2-11.4-1-1.1-3.7zm43.8 36.5l3.1-4.7 7.3 3.7-2.6 2.6z"/>
		<path id="Path 15" class="s12" d="m385.9 384.8l3.7-0.5v4.7h-3.1zm34.3 29.2l3.7-0.5 3.1 2 0.5-1.5h5.8l1 3.1-1 3.7-4.2 1 1.6 1v4.2l-1.6-1.6-4.7 1.1h-7.8l-0.5-2.1 1-4.2 2.6-1-1-3.7zm-68.3 8.4l1.1-2.1h3.6l0.6 6.8 3.1 0.5 2.6 4.2 1 2.1-1 1h-6.8v-4.2l-4.2-2.1zm207.3 17.2l1.1-6.7h5.2l3.1 2.6v3.6zm-268.7 28.7l2.6-0.5 8.8 0.5 1.1 3.1v5.2l-13.1-1zm192.7 14.6v-8.4h3.2l3.6 7.9-1.5 1.5zm32.2 4.2v-2.6l4.2-2.1 1.6 1.6v9.4 4.6l4.1-0.5 3.2 5.8 4.7 0.5 0.5 2.1-0.5 4.1-4.2 4.7v2.6l-2.1-0.5-0.5-8.3-9.4-1.6-0.5-5.2zm120.3 8.3l0.5 3.7h3.1l1.1-5.7h3.1l4.7 1.5v4.2l-3.1 4.7h-7.3l-0.5-2.1-6.3-1.1v-3.6zm-210.9 3.1h3.1l3.6-2.6 5.3 1.1 1-1.1 2.6 3.7h3.1l2.1 0.5v12l-1 2.1h-4.2l-4.2-3.2-2-4.1h-6.8l-2.1-3.7zm8.3 38.6h6.3l1-2.1h3.1 8.4v2.1l-3.1 0.5-7.3 5.8h-8.4v-2.1zm-72.9 10.4l-2.1-2.1v-8.3l25 0.5v9.9z"/>
		<path id="Path 16" class="s13" d="m431.3 348.8l8.3-13.5 1.5 1.6-3.1 6.2 3.1 4.7v0.5l-6.2 1.1zm-6.3 81.8h4.2l1.6-1.6 5.7 2.1 1 1.6h7.3l1.6-1.6 5.7 1.6 5.8 9.9-0.6 8.9h-7.3l-2-2.1h-2.6l0.5-7.8-6.3 1.5 1.1 4.2-1.1 5.7 5.2 2.1 3.2 6.8-3.2 2.1 1.1 2.1-1.6 1.5v5.2l-3.1-1.5-1.1 2.1-2.6 0.5-3.1-3.7-0.5-6.7 1.6-1.6 0.5-8.4-6.8 1.6v-2.6l-4.2-3.6 3.2-9.9-0.6-2.7-2 0.6zm54.1 6.2l3.2-2.1 5.2 2.1 3.1 6.8 1 7.8-1 1.6-3.1-1.6h-8.4l0.6-3.6 0.5-5.8-1.6-0.5zm52.1 10.4l1-6.7h2.1l2.1 1v3.1l-0.5 2.6zm-165.1 1.6v-2.6l3.1-2.6 2.6 1.6v2l-3.1 2.1zm215.1 14.6l0.5-9.9h6.8l3.1 2.1-0.5 7.8 3.1 2.1-4.7 2.6-2.1 2.1h-2.6l-3.6-2.1zm-277.6-4.2l8.8-0.5v5.2h-7.8zm246.4 38.1h4.7l2.6-2.6 3.1 0.5v16.7h-8.3l-2.1-2.1zm-29.2 27.6l5.7-2.1 2.6-3.6 6.3 2.1 1.6 4.7 8.8 7.3v3.6 4.2h-22.9l-2.1-2.1zm-60.4-2.1l7.3-0.5 2.1 1.6v8.8h-5.2v-4.7l-4.2-1.5zm91.7 14v-7.8l4.1-2.6h12.5 5.2l3.2 2.6v7.8l-2.1 2.1-13.6 1.1h-7.8z"/>
		<path id="Path 17" class="s14" d="m460.9 361.4l5.2-11h2.7l-0.6 3.7 3.7 0.5-5.2 5.7-3.2 2.1zm-25 9.4l5.8-11h1l4.2 1.6-3.7 9.9-2.6 2.1zm23.5 12l14-10.4 1.6 1.5-3.7 7.3-0.5 5.7h4.2l3.6-3.6 8.9-6.3 5.2-2.6 1 2.1-5.2 4.7v5.2l3.7 1.1v3.1l-12 0.5-3.6-3.1-5.8 3.1-6.2-1-3.1-3.2h-5.3zm-10.9-7.8l2.6-2.1 3.1 3.7v1l-2 1.1h-4.7zm59.9 3.6l6.7-3.6h1.6v2.1l-4.2 3.1-3.6 1zm27.6 8.4l3.6-3.7h4.2v2.6l-5.2 3.2zm52.1 2.6l3.6-0.6-1.5 4.2h-2.6l-1.1-2.1zm28.1 6.3l7.3-0.5v4.1h5.8 2.6l0.5 2.1-3.1 2.1v2.1l-5.3 4.2-6.2-1.1-0.5-2.6-4.7-2.6v-6.8zm-182.8 8.9l2.6 1v-5.2l3.1-2.6h5.7l1.1 4.2 4.1 2.1 2.1-1.6 0.5-3.6 8.4-0.6 2.6 1.6-0.5 3.6-2.1 1.6-1.6 2.6-3.6 1.6-0.5 6.8-0.6 1-5.7 5.2-3.6 1.1 1 3.1h-9.9l0.5-7.3-0.5-2.1h-2.1l-1-3.1v-6.3zm-19.3-4.7l3.1 1.6 3.2-3.1 2.6 1v6.8l-3.2 0.5 1.6 2.1-1 5.2-1.6 1.6-4.2 3.6h-3.6l-1.6-7.3 1.6-9.9zm132.8 16.7l-4.2-6.8v-4.2l5.2-0.5 3.7 4.7v4.7l2.6-1 4.2 2.6 2 3.6 1.1 6.8-2.6 3.1-3.2 2.6-1.5-1-1.1-5.7-0.5-9.4-2.1-1.1zm-184.3-10.4l2-0.5 4.7 0.5-2 5.7h3.1l1 2.1 1.1 2.1 1.5 10.4h-9.9l1.6-9.9-4.7 1.6-0.5-5.2 2.1-1.6zm171.8 9.4l2.6-3.1h2.1l8.4 6.2-1.1 5.8-4.7 3.1-4.1-3.1zm134.3 13v-7.3h8.4l-0.5 6.8zm8.8 65.7v-4.7l1.6-0.6h6.7l-0.5 6.3zm-469.3 34.4l1.1-3.6 3.1-2.1 1.1 1.5h3.1v3.7l2.6 2.6h9.4l1 2.6-2.6 4.2-4.2 2.1-2.6 3.6h-5.7v-4.7l-6.3-4.7zm181.3-4.7l9.4-1 2.6 3.6 13-2.1 1 2.1h9.4v2.1l8.3 8.4v4.1h-6.2-8.3l-1.1-5.2h-4.7l-0.5 8.4h-2.6l-2.6 3.1h-6.8l-2.6-3.1-1-7.9-7.3-3.1zm22.9 61l2.1-5.2 4.2 1.6v3.6l2.6 2.6 1 18.3-5.7-8.9-13.6 0.5 3.2-3.6 7.8-2.1z"/>
		<path id="Path 18" class="s15" d="m500 368.1l2.1-0.5 2.6 3.1-6.8 2.6-2.1 2.7-2 0.5-1.1-2.1zm-65.6 4.2l1.5-1.6 4.7 2.6-0.5 5.2-3.1 2.1h-6.3zm9.9 8.3l3.2-2h4.6l-0.5 7.3 3.7 1-1.1 2.1h-4.7l-1.5-4.2-4.2-1.6zm68.2 5.3h4.7l8.9-3.7-2.1 3.7 1 3.1h6.3l4.7-2.1 2.6 2.1 0.5 2.1h7.8l2.6 1.5 0.5 2.6h2.1v5.3h-1.5-7.9l-7.2-3.2-17.8-1-4.6-1.6-3.2-4.1zm-117.2 0.5l6.3-0.5h2.6v6.7l6.3 0.5 3.6 3.7v3.1l-3.1 2.1-6.8 3.1-0.5 3.2-5.7-0.6-1.1-2-4.2-1.1 0.6-1.5-2.1-0.6-4.2 2.6-1-1-0.5-4.7 2-5.2h-3.1v-3.7l2.1-1.5h3.1 4.2zm169.3 4.7l4.1-1.1 2.6 1.1 0.5 2.1h5.3v11.4l-7.9 0.5-2.6-5.2-5.2-1.5v-4.2zm25 6.3l1.6-2.1h6.8l-0.6 5.7 4.7-1.6 2.6 0.6 7.8-3.2v6.8l4.7 2.6 0.6 2.6 6.2 1.1 5.2-4.2 7.3 1-1 5.3 7.3-1.6 13-1.6 0.5 3.2-4.2 1.5v2.6l12.5-1.5h2.6l0.6 2.6-4.2 2v2.1h5.2v7.3l-2.1 3.2h-4.2l-1.5-2.1-8.9 0.5-3.6-3.7h-3.7-3.1l-3.6-5.2h-6.8l-1-2.1-11.5-0.5-4.2-3.6h-6.2l-3.1-1.1-0.6-2.6-11.9-0.5-3.2-2.6zm-120.8 2.1l0.5-3.7h1.6l6.2 3.7 3.2 3.1v3.1l3.1 1.1 6.8 8.3v3.7l4.1 2.6-0.5 4.7h-5.7l-1.6-2.6-5.7 4.7-9.9 1.5v-8.3l-3.1 3.1h-4.2l-2.1-1-2.1-5.2 2.1-3.7-0.5-9.4 2.1-1.5 5.7 2.6zm-94.8 13.5l1-2.6 9.4 0.5 0.5 2.6-4.1 4.7-4.7 0.6-1.6-2.7zm11.5 6.8l0.5-2.6 3.1-1 4.7 4.1 0.5 7.9-5.7 0.5v-2.1l-3.1-2.1zm197.9 14.6l-0.5-7.8h4.7l3.6 3.6-2.1 3.2-4.1 1.5zm110.4 11.5l0.5-9.4 3.7 0.5 0.5 9.4zm-24.5 30.3l3.6 1.5v-3.1l7.9 0.5 3.1 5.7 1-2h7.8l-0.5 1.5 3.7 3.2 1-5.3 8.3 0.6 0.6 3.6-1.6 2.1 3.1 3.1 2.6 4.7-2.6 1.1-1 6.7 1 1.1-2.1 1.5-4.7-1-1.5-3.1 1.5-9.9-3.6 1v1.6h-6.8l-0.5-6.3-3.6 1.1v3.1h-6.8l-0.5-7.3-3.7 1 0.5 6.3h-7.8v-9.4zm-362 7.3l1.6-6.8h9.9l-0.5 7.3-7.3 2.1zm339.1 3.7v-8.4l7.2 0.5-0.5 7.9h-3.1zm-381.8 0l3.7-1.6 2.1 0.5 1.5 5.2-1 2.6-5.7-3.1zm118.7 50.6l6.3-4.2 7.2 3.1 1.1 7.9 2.6 3.1h6.8l2.6-3.1h2.6 2.1v7.2l-4.2 1.6v4.7l-6.3 0.5v5.8h-13.5l-3.1-2.6v-10l-4.2-4.1zm43.8 9.9v-6.3h6.2v2.1 4.2z"/>
		<path id="Path 19" class="s16" d="m293.8 393.7l9.3-1.6-2.1 7.3h-5.7zm-33.8 8.9l6.7-3.2 12.5-2.6-1 7.9-9.4 1.5-8.3-1zm56.2 29.2l0.5-1.1 7.9 0.6 2.6 4.1 0.5 4.7-1.6 1.6-3.6-2.6h-5.8zm-49.4 17.7l-1.1-3.7h-2.1v-2.6l4.7-3.1 4.7 0.5-0.5 8.9zm356.3 5.2l4.6-2.1 2.6 1.6 2.6-1.1 1.1 7.9-0.5 1h-7.3v-2.1l-2.6-1zm-402.6 88.6l2.6-3.7 4.1-2 4.2 4.7v5.2l-5.2 0.5h-3.1zm263 16.7h10.4l2.6-2.1 15.1-2.1h33.3l7.3 2.1 3.7-2.1h23.4v4.2l-2.1 0.5v3.6h-1-35.4l-4.7 2.1h-9.9l-1-2.1-20.9 2.1h-8.3l-4.2 2.6-7.3 0.6h-1z"/>
		<path id="Path 20" class="s17" d="m422.4 371.3l2.1-0.6 3.1 1.6-1 10.4 1.5 0.6-0.5 2.6-2.6 1-6.2-1-3.2-1.6v-3.7l2.6-7.3 1.6-0.5 1.6 0.5zm69.7 16.2h2.1l5.8-4.7h1l1.6 0.5 0.5 7.9-1.1 3.1h-5.2l-4.7-3.7zm84.9 5.8l6.3-0.6-0.5 4.2 4.7 0.5h2v11l-9.3-0.5v-1.6l-3.2-1.6zm-25 2.1l9.4-1v4.1l5.2 1.6 2.6 5.2-1 9.4 4.2 2.6 0.5 2.6 2.6 0.5 2.1 2.1-1.1 6.8 3.1 1 3.7 4.2 1.6 0.5-1.6 4.2h-4.7l-4.2 2.1 0.6-11h-2.6l-0.6 3.7-3.1 0.5-0.5-3.6-1.6-13.6-6.2 2.6-2.1-3.6 0.5-5.8-4.7-3.1v-5.2l-2.1-1.6zm-210.4 14.6l4.2-2.1 5.2 0.6-0.5 2.6h3.1l2.6 5.2 0.5 4.2h-3.6l-1.1 2-5.7-0.5 1.6-6.8-3.7 2.1-2.1-0.5zm171.4 2.6l2.1-3.1 5.2 1 1 1.6 1.1-2.1 3.6 3.1v3.2l1.1 6.7-3.2 4.7-2.6 2.6-6.2 1.1-1.1-2.1 0.6-7.8v-7.8zm77 9.9l-2.6-8.4h4.7l5.2 2.6-0.5 5.8 4.7 1 4.7 8.9v1.5l-4.2 4.2-0.5 2.1h-1.6l-2-0.5-0.6-5.2v-6.8-4.2l-5.7 1.6zm21.4 12.5l1-3.1 8.3 1v4.7l3.7 2.1 2.1 4.1 1 2.6v6.3l-4.7 2.1-0.5-1.1-4.2 1.1-0.5-1.1 0.5-8.8 2.6-6.8-3.6 2.1-0.5 2.6h-4.2l0.5-5.2zm97.9 67.2v-5.2h2.1l1.1-5.2h5.2 0.5l1 4.2-0.5 6.8-2.1 2-4.7 1.1zm-46.8 3.6v-5.7l2.1-2.6h6.2l1 2.1 4.2 1 3.7 5.2h8.8l3.1 4.2h11l0.5 2.1-3.6 1.6-1.6 3.6h-3.7l-2.6-3.1h-7.3l-3.1-4.2h-6.2l-4.2-4.2zm170.8 14.6l0.6-2.1 3.6-0.5 4.2 0.5v6.3l1.5 1.6-5.7 6.7-3.1-2zm4.1 27.1l1.6-2.1 3.1 3.6 1.1 6.3 6.7 7.8 3.7 9.9 6.2 7.8h-5.7l-8.3-7.3-0.5-3.6-2.1-1.1-2.6-5.2-5.2-2.1v-7.8l2-2.1zm-422.9 4.2h5.2l7.3-4.2h6.3v14.6h-7.8l-6.3-4.1h-8.8v-4.7z"/>
		<path id="Path 21" class="s18" d="m449.5 389h4.7l1-2.1h1.1 5.2l3.1 3.1v9.4l-1.1 0.5-2.6-1.5-8.3 0.5-4.7-2.1v-7.3zm21.4 2.1l5.7-3.1 3.6 3.1v2.6l-3.1 2.1v3.6l-6.2-3.6zm-86.5 3.1h3.1l-2 5.2 0.5 4.7-5.2-4.7 0.5-4.1zm134.4 8.8l-1.1-6.8 17.7 1.1 7.3 3.1h7.8l-2.6 4.7-5.2 0.5v4.2l4.2 6.8 0.5 2.1-8.3-6.3h-2.1l-2.6 3.1-3.7-0.5 3.2-7.8-1.6-1.6-2.6 1.1-0.5-1.6-7.3 1v-2zm89.6 15.1v-3.2h6.2l4.2 3.7-0.5 3.6h-6.3zm-23.4 16.7l4.1-1.5 2.1-3.2h0.6l3.6 4.2h2.1l0.5 5.2 2.1 0.5-1.1 2.1h-1l-2.6-4.7-6.3 0.6v6.7l-4.6-1-1.1-4.7zm251.6 12.5l8.8-1.6v4.2l-3.6 2.1h-3.7zm-643.2 9.9l2.1-1.6h4.7v2.1l2.6 2.1h7.8l1.6-2.1h13 2.1v7.8l-7.3 4.2v4.7h-3.1-13.1l-1.5 2.1h-4.2-3.6l-3.7-4.2 3.1-6.8zm569.3 4.7l30.2-5.2 1.1 5.2-11.5 7.3h-5.7l-2.1 2.6-3.1 0.6-1.1 2-4.7-2-0.5-3.7-2.6-0.5-0.5-2.1zm-97.4 2.6l6.8-2.1 1.5 1.6-0.5 10.4v3.1l-3.6-1.5v-3.1l-4.2-2.1-1.6-2.6zm-379.7 9.9l0.6-5.2 4.6-1.1-0.5 7.3-2.6 3.7-3.1-0.6zm154.7-1l1-2.1 3.2 1.6 1 0.5-2.1 2.1zm-63.5 1.5l6.7-1.5v5.2l-5.7-0.5zm-203.6 28.6h4.7l3.1-4.1h6.7l-0.5 6.8-9.9 6.2v5.2l-10.4 2.6h-4.2v-8.3-3.7l2.1-2.6zm539.1 2.1l4.7-1v4.7l-5.2 1.5zm-439.1 52.2h6.3l2-2.1 2.1 2.1v7.3l4.2 1v8.3l3.1 1.1v5.7l-3.1 4.7-8.3-2.1v-5.7l-6.3-6.8z"/>
		<path id="Path 22" class="s19" d="m421.9 365l4.7-6.3 2 1.6-4.1 10.4-2.1 0.6-1.6-2.1zm15.1 15.6l3.2-2.1 4.1 2.1-0.5 2.6-5.2 2.1-1.6-1zm115.1 0l0.6-2.1h3.6l10.4 1.5 2.1 2.6v7.3l-4.2 1.1-3.6-5.2-5.7-1.6zm35.9 8.9l-0.5-5.8 7.8 1.6-3.6 3.7zm41.1 9.9l1-6.8 9.4 3.6v6.3l3.1 1.5v6.3l-7.3 1.6 1.1-5.2-7.3-1.1v-2.1l3.1-2.1-0.5-2zm-102.1 51l4.2-3.1h4.7l1.5 3.7-1 6.7 2.6 0.6-1-1.1 1.5-1-0.5-6.8h8.9l2.6 5.2-1.1 4.2 4.2 1 5.7 1.6 0.5 2.6-3.1 2.6 0.5 9.9-3.1 1.6-6.2-0.5-0.6-14.6-4.7 3.1h-9.3l-0.6-3.1-3.6 1-2.6-5.7zm-75.5 10.4l-1.6-2.6v-6.8h7.3l0.5 2.1 4.7 2.6 0.5 5.7v4.2h-10.4l0.5-5.7zm24.5-7.3l2.6 2.1 0.5-4.2h8.4l3.1 1.5-0.5 1.1 3.6 0.5v5.2l-6.2 0.5-6.8 1.6v8.9l-5.7-2.6zm-165.1 32.3l7.3-2.1-0.6 1.6-3.1 4.7-4.1 3.1v-4.2zm172.3 11.5v-4.2l4.2 1.1 1.1 1.5 2.6 8.4 4.1 1.5 1.1 2.1-2.6 1.1h-8.4v-8.9zm-131.7 19.8l13-1 2.1 3.6 5.2 0.5 1-2.6 4.2-1.5h6.2l0.5 3.1 3.7 1.5 2.1 3.2v9.4l-6.3 4.1-25-0.5-4.1-3.1-2.1-7.3zm100.5 9.4v-6.3h2.1l5.2 1.1 1 1.5v3.7z"/>
		<path id="Path 23" class="s20" d="m474.5 368.1l3.6-1 4.7-6.3h2.1l1.6 4.2-5.2 3.7-1.1 2.6-5.2 2.6-1.6-1.6zm13.1 68.8l0.5-10.9h5.7 2.1l2.1 2.6 1 4.7-1 3.1-3.1 2.1v2.1l-1.1 2.6-3.1 0.5zm-169.3 27.6l6.8-0.5v4.2l-0.5 2.6-4.2 2.1-2.1-6.3zm17.2 6.3l0.5-6.8h5.8l1 2.1 0.5 4.7-2.1 2.6-4.1 0.5zm240.1 9.4l1-5.8-1.6-0.5v-5.7h6.3l3.6 2.1-0.5 9.9-3.1 6.2-2.1 1.1zm-172.9-5.8l6.2-4.1 3.2 1 1 2.6 2.1 5.7 1 6.3-3.1 6.3 4.2 3.6 2.1-1h2.6l3.1 3.6 0.5 4.7-3.6 1 0.5 6.3v0.5h-3.1l-8.9-1v-3.1l-4.2-2.1v-8.9l-3.1-2.6h-3.1l1-8.3zm96.4 1l4.2 1 1-3.1 6.8 3.1 0.5 3.2-2.1 2.1-0.5 0.5-3.7 1.5 0.6 7.9-5.8-4.7h-6.7l1.5-8.4zm-194.8 24v-10.4h6.3v4.2 8.3h-6.3zm79.2 8.3v8.4h-6.3v-8.4zm-89.5 14.6v-3.6l7.3-6.3 3.1-0.5 12.5 2.1 2.1-2.1h4.1v16.7 9.4l-4.1 1h-5.8l-2.6-2.1h-4.1v-8.8l-2.1-1.6h-8.4v-3.1zm131.3 4.1v-5.7l3.1-2.6 17.7 2.1v8.3l-2.1 1.1v5.2h-3.1l-1 2.1h-6.3l-8.3-8.4z"/>
		<path id="Path 24" class="s21" d="m496.4 450l10.9-0.5-0.5 5.7 3.1 0.5 2.6 3.1 4.2 4.7-2.6 0.6 1 3.1-2.1 2.6 2.1 0.5-0.5 1.6-3.7 4.7-6.7-3.2 1-2v-2.7l-2.1-1 1.1-8.3-5.8 3.1-1.5-2.1-0.5-6.3zm57.2 5.8l3.7-2.1h6.2l-1 5.2-3.1 2.6-5.8-1.5zm-196.8 18.2l-0.5-5.2 2-2.6h4.2l0.5 5.2-1 1.6zm86.4 18.7l1.1-1.5h5.2l3.1 3.6-3.1 4.2-3.7 1-2-0.5zm24.4 25.5l-1-16.6h5.2l3.1 2.6v8.8l-4.1 5.2zm-107.3-12.5l0.5 3.7h4.2l3.6-4.7 8.3 3.1v8.4l-4.1 1.5-1.1 2.6-5.2-0.5-2.1-3.6-13 1-1.5-1.6v-9.3l2-1.1zm133.4 10.4l-8.4 1.1-1-1.1 1-7.3h8.4zm-83.4 3.2v-9.4l8.9 1-4.7 8.4zm34.4-5.2l1-2.1 7.8 1 0.6 7.3h-2.1-6.3zm19.8 112.6l-5.7-5.7 0.5-2.6 4.2 1 3.1 3.7v2.6zm27.1-6.8l2.1-0.5 7.8 1 0.5 3.1-3.1 3.7-6.8-2.1z"/>
		<path id="Path 25" class="s22" d="m451 372.8l5.8-7.3 3.6 1.6-2.1 6.2-4.1 3.2zm182.3 95.4l2-0.6 4.7 4.7 2.1 5.3-0.5 7.3h-8.3-1.1l-0.5-10h-1.6l-1-6.7zm-165.1 5.7l0.5-5.2 2.1-0.5h4.2l5.7 2.6-1.1 3.6-2 4.7-3.2 3.1-3.6 0.6zm-105.7 10.9l1-10.4h1l5.3 2.6 2 3.1 3.7 0.5 0.5 2.1-1 4.2h-12.5zm-69.8 7.8l1.5-2.6 3.7-1.6 6.2 0.6v10.4h-6.2zm-20.9-1.6h8.4l1.5-2.1h4.7l1.6 4.2-1.6 3.1-4.7 0.6-4.6 3.1v7.3l-6.3 0.5v-14.1zm253.1 2.1v-4.1h9.4l1 7.8 2.1 1v7.8h-3.6l-0.5-2-4.7-0.6-3.1-5.7zm-156.3 3.1l3.1-4.7 2.6-1h5.2l1.6 1 0.5 6.8 3.7 1.6v5.7l-2.1 2.1h-6.3l-8.3-3.1 1-6.3zm45.9 22.9l4.7-8.3h3.1l2.1 3.1 3.6 1.1v3.1l-3.1 2.6v5.7h-9.4l-1-2zm42.7 112l3.1-0.5 4.2 5.2 3.1 4.7-1 2.1-5.2-4.2zm31.7 18.3l-9.9-6.8v-6.3l1.6-1.5h4.7l8.8 1.5-0.5 2.1z"/>
		<path id="Path 26" class="s23" d="m569.3 405.1l7.8-0.5 3.1 1.6v1.6l-1.6 2.6-3.6 2 0.5 7.9-2.6-0.6-0.5-2.6-4.2-2.6zm-287.5 27.7l-5.2-3.2 1.6-11.4h3.1l10.4 0.5 2.1 2.1v6.7l-4.7-0.5-2.1 5.2zm248.5 5.8l1-2.6 2.1 0.5 1 4.2h-2zm276 15.1l12.5-2.6 2.6 5.7-15.1 3.1zm-541.1 25.1v-3.2l2.6-2.6 2.6 1.6v3.1l-2.1 2.6zm166.1 7.3l3.7-1h0.5v4.1h4.2v4.2l-1.6 2.6-1 1.1-5.3-1.1 1.6-7.8zm162 3.6l3.1-2.6 1.6 1.1-0.5 10.9-3.7 0.6-1-4.2zm-405.8 9.9l1.1-8.4h7.3l-1.1 21.4-7.3 7.8h-5.7l-4.7-2.6v-5.2l9.9-6.2zm-80.7 3.6l3.6-6.8 5.8-1.5 1 2.1 2.6-1.6 1.1 2.1-1.1 10.4-10.4 1.6-2.6-2.1zm148.9 31.8l-1-5.2 2.1-1.1-1.1-2.6 1.1-5.7h3.6l10.5 1v9.4l8.3 2.1 1.5 3.6-3.6 1.1v2.6l-3.6 2.1v1.5h-0.6l-14-4.6-0.5-3.7zm-131.8 0.5l2.6-0.5 1.5 3.1-5.2 1.1v-2.1zm16.7 5.7h4.2l2.1-2.1h7.2l7.3 1.6 1.1 2.6v8.3l-5.7-0.5-8.9 3.2-13.5 0.5 2.6-1.1-0.6-1.5 2.6-5.8 1.6-1.5zm85.4 6.7l5.2-0.5h5.8l2.6 2.1 1 9.9 7.3 0.5v6.3l2.1 1.6 8.3 1 2.1 2.6h12.5l6.2 6.8v5.7l-41.6-9.9-4.7-2.1 4.2-0.5-12-4.7zm45.8 4.7l1.1-1h8.3v4.1l-2.1 2.1h-6.2zm305.2 11.5l22.9-1.1h5.2l1.6 2.1-0.6 3.2-3.6 2-27.6 5.3 1-11.5zm-193.7 30.2v-10.4l3.1-5.2h17.2l5.7 6.2h3.1l1.6 6.8-7.8 2.1-3.1 3.7h-9.4l-3.1-2.7z"/>
		<path id="Path 27" class="s24" d="m375 385.3l10.9-0.5 0.6 4.2-2.1 1.5v3.7l-3.2 1-6.2-5.2zm-32.3 2.1l11.5-1v10.9 6.3l-3.2 4.7-5.2-0.6v-8.3l-2.1-2.1zm-21.8 2.6l12.5-1v10.4l2.6 5.2-1.6 3.1h-11.4v-2.6l-2.1-1.5zm-27.1 37.5l3.6 2.1 4.2-0.5 4.2-6.3 4.7 4.2 1 5.7-2.1 9.9 5.2 1.6 1.1 7.8-3.2 3.1v3.7l-8.8 0.5-4.2-0.5-2.1-2.1-0.5-5.7-2.1-2.1-3.6-0.5-3.7-4.2-6.2-1.1-1.6-1.5-1.5-3.1 3.6-5.8 5.2-0.5 2.1-5.2zm68.2 45.3l1.1-1.5 1.5 0.5v2.6h-1zm302.6 24.5v-6.8l3.1 1.1 1.6 3.1h1.5v2.6zm-412.5 4.7l4.2-1 4.2 3.6v15.6h-3.7l-1.5-3.1v-4.2l-5.2-2v-7.9zm610.9 6.8l-0.5-5.2h3.1l1.1 1.6-1.6 3.1zm-625 14.1l3.6-2.6h4.7l1.6 1.5-3.1 8.9-0.6 11.5-0.5 7.3h-4.1l-2.7-2.1h-5.7v-5.2l-4.1-4.7 2.6-4.2 5.2-3.1zm-56.8 5.7l6.2-2.1h11.5l1.6 2.1h7.8v5.2l6.2 4.7v4.7l-3.1 3.1-9.4 1.1-2.1-2.1h-8.3l-2.1-2.1-7.3-0.5-1-1.6zm458.3 6.3v-7.3l8.4 1v6.3zm-533.9-0.6v-4.6l10.9 1v6.3h-2l-2.1-2.1zm475.5 17.2h7.8l3.1-3.2 4.2-1 3.1-4.2h4.7 6.3l-0.6 8.4-2.6 2.1-5.2 0.5-2.1 3.6-20.8 2.1v-4.2zm-239.6 9.4v-3.1l6.3-4.7 6.2 2.6 6.3-2.1 3.1 3.7 5.2 2.6h5.7l1.6 2.1 11.5-0.6 3.1 2.7-1.1 4.1-18.7-2.1h-16.7zm117.7-3.1l7.3-4.2h6.3l1.5 6.3h8.9v9.4l-18.8 3.1-1-4.2-4.2-2zm-147.9 4.6l1.1-4.6 3.1 0.5 1 3.1-1 2.6z"/>
		<path id="Path 28" class="s25" d="m333.3 389l9.4-1.6 1 9.9 2.1 2.1v8.4l-4.1 2h-1.1l1.1-5.7-5.8 0.5-2.6-5.2zm-26.5 26.1l-3.7-1.1v-8.3h7.3l2.1 2.1v5.2zm221.9 12.5v-5.7l1.5-1.1 3.7 1.1 2.6 3.6 1-1 4.2 3.1-1.6 3.7h-8.8zm37 5.2l0.5-2.6 2.1 0.5 0.5 3.6v1.1zm156.8 28.6v-1l14.5 3.1h11.5l-6.8 2.1-9.9-1.6-0.5 2.1-3.1 1.1h-1.1l-2.6-1.1 0.6-3.6zm-596.4 28.1l10.4-7.8v-4.7l2.1-1 1 8.8-3.1 2.6zm345.9 0.6l4.6-2.1 0.6 4.2v3.6l-5.2 1-1.6-1.5 0.5-2.1zm138.6 53.2l1-2.1h5.2v7.3l4.2 3.1v8.9l-5.8 4.1-2-2h-3.7l-2.6 2.6-1.6-2.1h-5.2v-5.2l2.1-3.7 5.2-0.5 2.6-2.1zm-329.1 8.4l2-3.7 6.3 1.6 3.1 2.1h3.7l0.5-2.7h4.7l5.2 5.8 3.6 0.5 2.1 2.6-1 4.7-7.3-1.6-5.7-3.1h-8.9-6.3l-2-2.1zm89.5 14.6l18.8 2.1 1-4.2h13.6 2.1v5.2l4.1 1.6 4.2 4.2v4.7l-2.1 5.2h-3.1l-5.7-6.3h-17.2l-1.1-4.1-13 0.5-1.6-1.6zm93.8 6.3l18.7-3.2h1.1v3.2l-3.1 2.1v7.8l-16.7-1.1zm-132.8-0.5l1.5-2.1 5.3 1.1 1.5 2.6 6.8 2.6 1.6 2.6-0.6 4.7-8.3-3.1-2.1-4.2z"/>
		<path id="Path 29" class="s26" d="m445.3 317.6l7.8-6.3 1.6 1.1-2.6 4.1-3.7 3.7zm382.3 137.6l10.4-3.1h3.7v12l-2.1 4.1-7.8 1.6-2.6 4.7h-7.3l-4.7 5.2-4.2 0.5-0.5 6.8-11.4 1.6-5.2 5.7v5.2l-2.1 2.1h-4.7l-1.6 2.1-4.7 0.5-1.5 2.6v6.8l-6.3 2.6-4.1-2.1 1-12.5-1-18.8v-3.1l6.2-1v-3.2l-2.6-3.6 2.1-2.6h5.7l11.5-7.3 8.3 0.5 4.2-2.6 15.1-3.1zm-120.3 20.8l3.1-1-2.1 7.8-1 4.7-3.2-3.1 1.6-2.1-0.5-3.7z"/>
		<path id="Path 30" class="s27" d="m308.3 391.6l8.4-1.6-1.1 17.8h-3.1l-2.1-2.1v-5.2l-2.1-1.6zm-29.1 5.2l14.5-3.1 1.6 5.7h5.7l2.1 6.3v8.3l3.7 1-1.1 7.9-4.1 6.2-4.2 0.5-3.7-2v-6.8l-2-2.1-10.5-0.5v-5.8l-3.1-7.8zm268.8 51.1l5.2-1 0.5 8.8v4.2l-4.2-1 1.1-4.2-2.6-5.2zm-223.5 22.9l0.6-2.6h2l-0.5 4.2h-1zm-144.3 1l7.3-1 3.1 1.5 3.7 4.2h3.6v9.9l-2.1 1.6v3.1h-7.3l-1-2.6-6.3-1-1-11zm213.5 15.1l0.6-3.1 1.5-0.5v2.6l5.2-1.1-1 8.4-2.6 0.5-4.2-3.1zm222.9 54.2v-3.7l4.2-2.6 9.4 1.1v4.7l-3.1 4.1v6.8h-6.3l-4.2-3.1zm-454.1 2.1l7.3-2.1h11.4l1.1 1.6 7.3 0.5 2 2.1h8.4l2.1 2v11l-5.8-0.5-4.7-1.1h-3.1l-1.5-3.1-1.6 0.5 0.5 1.6h-2.6l0.5 1-13-4.7-8.3-0.5zm85.4 16.7l-7.3-0.5-1-9.9h4.1l6.3 3.6 1 3.7zm331.3 0l20.8-2.1v5.2l-22.9 1v-3.6zm-94.8 9.4l7.3-0.5 4.2-2.7h8.3v6.3 6.3l2.1 2v3.7l-9.9 1.6-6.8-2.1-8.3-1.6v-7.8l3.1-2.1z"/>
		<path id="Path 31" class="s28" d="m770.3 474.5l1.1-2.1 3.1-0.5 2.6 3.6v3.1l-6.3 1.1zm11 39.1v-6.8l1.5-2.6 4.7-0.5 1.6-2.1h4.7v10.4l-2.1 2.1h-6.3zm-16.1 24.5l0.5-6.2 3.7-4.7v-4.7h5.7v14.6l-2.1 2.1h-6.2zm3.6 12.5l5.7-5.2h11l11.4 6.2 0.5 3.1 8.4 7.3 0.5 6.3v27.1l-7.8-1-7.3-10.5-2.1-6.2-3.6-3.2h-4.2l-6.2-2.6v-8.3l-5.3-6.3z"/>
		<path id="Path 32" class="s29" d="m497.4 404.6l5.7-3.1 1.1 3.6 0.5 5.8-7.3-3.1zm16.7 1l4.7-2.6 3.1 1v2.1l0.5 3.7-1 2-1.1-1.5-5.2-1.1 0.5-2zm-196.8 2l3.6-4.1 2.1 1.5v2.6l-0.5 4.7-4.7-2.6zm105.7-1.5l3.6-2.1 1.6 1-0.5 2.6-1.1 4.7 1.1 1.6-0.5 1.5-3.2-2-3.6 0.5 1-5.2-1.5-2.1zm-116.2 8.8l5.8-2 1 2.6-1.6 4.7-0.5 5.7-1 1-4.7-4.1zm17.2 1.5l6.7-2.6-3.1 11.5-1.5 2.1-3.7-3.1 1.1-4.2zm32.8 3.6l-0.6-4.1h0.6l0.5 3.1 3.6-1.1 4.7-1.5-1.5 9.9-1.1 5.2-2.6-4.2-3.1-0.5zm184.9 7.3l4.7-3.1v1 5.2l-0.5 8.4-3.7 0.5-1-3.1-1.1-5.2zm-43.7 1l6.2-3.1-0.5 13-5.7-2.1 1-3.1zm28.1 0l2.6-1.1 2.6 3.7v4.7l-1 2.6-2.1-1zm42.7 5.7l3.2-0.5 0.5-3.7h2.6l-0.5 11 0.5 3.6-1.6 0.5-4.7-6.2v-3.7zm-224.5 7.8l1.6-6.2 5.2-2.6 2.1 1.5-3.6 14.6-6.3-4.1zm18.8-7.3l1-1.1h5.7l-0.5 9.9-3.1 2.6v2.7l-4.2-2.1 2.6-5.8zm5.7 20.9l3.2 0.5 3.1-2.6 0.5 2.1-1 4.7 1 2.1h-2.1l1.1 7.8-3.1-3.7h-4.2zm38 2.1v-1.5l2.6 0.5 4.2-2.6v12 4.1l-1.6 1.1-3.1-1.1 0.5-1.5h-3.6l0.5-1.6h-1.6l0.5-3.1 2.6-1.1zm-18.2 0l6.8-2.6 0.5 2.6-3.1 13.6-3.7-3.1-3.1 0.5zm63 3.1l1.6-0.5-0.5 5.7-2.1 3.1v3.7l-1.6 1.6-3.6-1.1-1.1-0.5v-5.2l1.6-1.6-1-2.1 3.1-2.1zm196.3 4.2v-2.1l1.6-0.5h3.1l0.6 1.6-0.6 8.3-1.5 1.1-3.2-3.2zm32.9 9.9v-5.2l4.6-2.1 1.1-2 1 0.5-2.6 12.5-1 2.1zm-95.9-4.7h2.7l2-2.1 1.1 9.4-1.6 1v4.2l-4.7-2.6zm76.1-2.1h2.6l1.5 2.6-2.6 2.1v3.1l-3.6-3.6zm-317.7 2.6l1.5-0.5-0.5 6.2-1 7.3-2.1 1.6-0.5 1.5h-4.7l1.5-10.4-0.5-2.6 4.2-0.5zm13.5 3.1l5.2-1 1.6 1.5-1 10.5h-2.1l-0.5 2.6-3.7-0.6-1-3.6 1.5-1.6v-5.2zm43.8 1.6l2.1-1.1-1.6 10.5-5.2 1v-2.6-2.6l-2.1-2.1 3.7 0.5zm18.7 4.2l3.7-3.7-0.6 4.7z"/>
		<path id="Path 33" class="s30" d="m254.2 419.2l6.2-5.7 8.4 0.5 5.2 4.2h4.1l-1.5 11.4 5.2 3.2-3.7 5.7-2.1-0.5v2.1l-3.1 0.5-4.7-0.5-4.7 3.1v2.6h2.1l1.1 3.7-0.6 4.6h-2.6l-0.5 10.5 3.7 2.6 1 5.7-2.6 2.6v3.1h-6.8v-5.2l-4.7-3.6-1.5-3.7 1-12-3.1-2-7.8-11h-4.7v-4.2l-4.2-2v-9.9l8.4-5.8 3.1 1.1 1.6 6.7 1.5 1.6h4.2l2.1-2.1zm256.2 2.6l4.2-0.5-0.5 7.8-4.7-3.1zm81.2 3.1l5.8-1.5v4.1h-4.7l-1.6-0.5zm-77.6 13v-8.8l1 2.1 6.3-1.1-1 4.7-1.6 2.6 0.5 3.7zm88 0l4.2-4.2 2.1 2.1 3.1-1.1 1.6 2.6-0.6 5.3-1 0.5-1.6-5.2-3.1-1.6-2.6 1.6zm-4.2 9.4v-5.3h1.1l1 2.6 3.2-0.5v2.6 4.2l-5.3-1.6zm-372.9 10.5v-8.4h6.3v8.4h-4.2zm-59.4 2l7.9-3.6 1.5 1.6v8.8l5.2 5.2v4.7h-10.4l-1.6-7.3-5.7-1v-7.3zm315.1 10.9v-8.8l6.8-1.6-0.5 6.3 1.5 1.5-2.1 6.3h-3.1-3.6zm153.1-9.9l6.3-0.5-0.6 4.1-1 3.2 1.6 4.7-4.7-4.7-2.1 0.5v-6.3zm-214.6 33.9l-2.1 1.1-4.2-3.7 3.2-6.3-1.1-6.2h4.2l3.1 1-0.5 5.2zm245.3-4.1v-8.9l3.1-2.1v9.4 2.6zm-500 6.8l3.2-3.1 5.2 1v8.4l-8.4 2zm123 68.8l-4.2-1v-7.3h6.2v5.7z"/>
		<path id="Path 34" class="s31" d="m614.6 389.5h4.7l6.2 3.1-2.1 2.6-7.3 0.6zm-102 64.6l10.9-0.5-1 3.1-2.1 3.7-1.6 1.5-2.1 1.6-4.1-4.7zm-54.2 43.3l0.5-6.3h7.8l4.2 2.1-0.5 2.1 1.5 1.5v4.7h-5.2l-5.2-1zm18.8-5.2l4.1-0.5 2.1 1.5v4.2h-4.7l-1.5-1.6zm210.9 88.1l1-8.3-13-8.4 0.5-5.2 5.3 1.1 7.2 6.2h2.1l4.7-5.7 5.2 2.6v6.8l-3.1 3.6v3.7l-2.1 1.5v5.8l-1.5 1.5-6.3-2.6zm-25 14.6l2.1-1.5 12 15.1-2.1 1.5z"/>
		<path id="Path 35" class="s32" d="m444.8 397.8l3.1-1 4.7 2.1-0.5 3.6-2.1 1.6-4.2-2.1zm18.8 2.1l1-0.5h4.2v6.8l-5.7-2.6zm88 9.9l2.6-2.7 4.7 3.2-0.5 5.7-4.2-2.6-2.6 1zm2.6 21.4l1.6 1.1 3.1-2.6 1.5 3.1-1 6.8 0.5 4.7-4.7-3.2 0.6-4.1-2.7-5.3zm3.2 45.4l-0.6-9.9 3.2-2.6 3.1 8.8-1.6 1.6 0.6 4.7-1.6 0.5zm-94.8-3.6l1-6.8h5.3l2 2.1-2 0.5-0.6 5.2zm107.8 4.7l0.6-9.9 3.6-1.6 0.5 2.1v5.8l1.6 0.5-1 5.7-2.7 0.5zm44.8-4.1l2.6-1.6 0.6 13-4.2-2.6-0.5-7.8zm-239.6 7.3h1.6l0.5-2.6 5.7 0.5v5.2l-7.3-1zm64.1 8.3h-4.2v-4.1h4.7zm-313.5 0.5l10.4-2.1 6.2 7.8h7.3l1.1-2.6 2-0.5 1.6 2.1h4.7l1 3.1-2.6 4.7-17.2 1-1 6.8h-4.2l-5.2 4.2h-5.2l-2.1-1.6v-2.1l-3.1-2.6 1-10.4-1-2.1 0.5-1 2.1-3.2zm593.2 6.3l5.3-2.1-2.7 5.2-0.5 5.8-2.6-2.1zm-428.6 79.7l6.7-6.7 4.2-1.1 2.6-2.6v-4.2l7.3 1.6 4.2 1.6 16.1 7.8 5.7 4.2 2.1 4.1-2.1 1.1v9.4h-4.1l-8.9-1.6-10.9 0.5-13-5.2-2.6 0.5-7.3-3.6z"/>
		<path id="Path 36" class="s33" d="m315.6 407.8l1.1-17.8h4.1v13.6l-3.6 4.2zm-5.2 19.2l1-1 4.2 0.5 1 4.2-0.5 1-4.7 1.1zm226.1 14.6l4.7-5.2 1 3.1 3.6-0.5v4.1l-6.2 1.1-3.1 0.5zm-255.2 6.8v-5.2l6.2 1 3.7 4.2 3.6 0.5 2.1 2.1 0.5 5.7 2.1 2.1 4.2 0.5 1 4.7-2.6 4.2-8.9-0.5-0.5-4.2 1.6-1-1.1-3.7-2.6-3.1h-5.2v-5.8zm-42.2 20.4l3.2-2.6h9.9l1.5 3.6 4.7 3.7v5.2l2.1 8.3v2.1h-7.3v-4.7l-2.1-1.6h-11.4zm210.9 18.8l3.1-0.5 0.5 3.6 4.7-1.5 0.5 2.1-0.5 6.2h-3.1l-2.6-2.6-3.1-3.6zm154.1 55.7v-6.2h6.3l1 4.2-1 2zm-481.3-4.1l5.2-1.1h3.2l0.5 8.4v5.2l-0.5 3.1h-7.8l-1.6 1.6-0.5-2.1 2.1-2.1-0.6-4.7zm192.7 19.3v-7.3l5.3-2.1 8.3 1.6v3.1l4.2 2.6 1 3.1-3.1 1.1-1.1 6.2 0.5 2.1 2.7 1.1-1.6 2.1-16.2-7.9 1.1-2.6zm157.3-4.7l1-2.1 17.7 2.1 1.6-2.1h17.2l1 4.2-15.1 2.1-2.6 2.1h-10.4-8.9z"/>
		<path id="Path 37" class="s34" d="m224.5 446.8l1-1.5h5.8v4.2h-6.3zm455.2 1.5l0.5-2.6 5.2 1.6 4.7 2.1-1.5 2.6 3.1 3.6 4.7-1.5 1.5 1.5v5.2l-4.1 1.1-0.5 6.7-5.8-2.6-1-0.5 1-3.1 1.1-3.1-2.6-1.6-0.6-3.1-3.6-0.5-1.6-1.1 1.1-2.6zm-506.3 7.8l1.1-1 17.2 0.5 1.5 1.6 0.5 8.3-3.1 6.8-3.1-1.6-7.3 1.1-5.2-5.3v-8.8zm355.7 7.8l3.7-1 0.5 3.1 1 6.2-1 7.3-4.7-3.1zm-226 7.3l5.7-2.1v7.3l-1.6 6.8-3.1 2.6-2.1-1 1.1-8.4zm134.3 2.6l2.6-0.5 3.2 2.1-2.6 3.6v4.7l-0.6 1.1h-4.7-0.5l-0.5-4.2 3.1 0.5 2.1-2.1-3.6-1-0.6-3.6zm15.7 13l-1.1-4.7 3.7-0.5 3.6-3.2-1 10.5-4.7 1.5zm222.4 2.1l-0.5-6.2 3.6-1.1 0.5 7.3-1.5 0.5v4.7l-3.2-1.5zm-110.9 2.6l-0.5-5.2 3.6-2.6h1.6v9.3l-1.6 4.7-3.1-2.6zm72.4 1.6l3.1-2.6 0.5 2.6-1 5.7h-3.1l-0.5-3.6zm-497.4 16.7l1-6.8 17.2-1.1 2.6-4.7h4.2v8.4l-2.1 2.6v3.6h-20.9zm586 0l2.6-0.5-1.1 3.2-1.5 2.6h-2.1l-0.5-3.2zm-438 56.3l2-2.6v-5.7h8.9l5.7 3.1v4.2l-2.6 2.6-4.1 1-6.8 6.8-3.1-1z"/>
		<path id="Path 38" class="s35" d="m303.1 392.1l5.2-0.5v7.3l2.1 1.6v5.2h-7.3l-2.1-6.3zm-64 20.3l20.8-9.9 0.5 2.6v8.4l-6.2 5.7-9.4 1.1-3.1-1.1v-3.1zm-7.8 32.8l6.2-4.1h4.7l7.8 10.9 3.1 2.1-1 12h-9.9l-3.1 2.6-5.7-2.6v-7.3l-2.1-1.1v-8.3zm48.4 6.8l1.6-3.7 4.1 1.6v5.7l-1 3.7-2.6 1-3.7-3.1zm-141.1 24l5.7-1.6 3.2-3.6 1 1 3.6-5.2 6.3-3.1v4.7 5.7l-2.1 1-0.5 3.7h3.6l1.1 2.1h5.2v7.3h-2.6l-2.6 3.1-3.7-3.1-3.6 1-5.7-1-3.7-3.2h-4.2zm469.8 14.1h3.7l-2.1 10.4-2.6-0.5-1.1-4.2zm-104.1 76.2l20.8-2.1 1.1 2.1-1.1 4.1-6.2 2.1h-14.6z"/>
		<path id="Path 39" class="s36" d="m504.7 410.9l-0.5-5.8 9.9 0.6 1.5 1.5-0.5 2.1-2.1 3.1-1 2.1-3.1 1.1zm17.1-4.7l7.3-1.1 0.6 1.6 2.6-1 1.5 1.5-3.1 7.8-4.7 1.1v-3.1l-3.6-3.2zm-67.2 11l0.5-1.1 4.2 2.1 2 5.2 2.1 1.1v2.1l-11.9 0.5zm-72.4 13.5l-1.6-6.2h4.7l3.1 2.1v2l-2.1 2.1h-3.1zm34.9 0.6l-0.5-4.7h7.8l0.5 4.1 0.5 6.3-4.7-0.5v-3.2zm171.9 13.6v-6.8l6.3-0.5 2.6 4.7v5.2h-6.8zm29.2 9.9l4.1-1 0.6 1 0.5 4.2-3.2-1.1-1 1.1zm-225.5 16.7l3.1-13.6h6.3 4.6l1.1 5.2-2.6 1.1-0.5 3.1h1.5l-0.5 1.6h3.7l-0.6 1.5-6.2 4.2-2.1 1-3.6-3.6zm259.8 1l0.6-8.3h6.2l1.6 4.2-2.1 4.1zm-49-1.5l7.9-0.6 3.6 3.2-1.6 1 0.6 7.8-5.8 2.6-4.7-1v-4.7l2.1-0.5-2.1-1.6zm-280.7 13.6l2.6-12h1.1 2.6l3.1 4.1h5.2l-1.6 10.5h4.7l0.5-1.6 2.1-1.6 1.1-7.3h12.5v5.3l-1.6 1.5 1 3.7v13l-4.1 1.6h-11l-1.5 3.1h-9.9l-1.6 1.6v5.7h-5.2-4.2l-1-8.3-7.3-2.1v-8.4l4.2-3.1 2.6 1.6 1.5 3.6 3.2 0.5 2-5.7zm-54.6-4.2l2-2.6v-3.1h15.1l-1 4.2 3.1 0.5v4.7l-1 5.2h-4.7l-1.6 2.1h-8.3l-1.6-5.2-2-0.6zm153.6 5.8l0.5-5.2 5.8 0.5 1 4.7zm-117.7 0l3.1-2.6 3.7 2.6-0.6 3.1h-6.2zm135.9-1l0.5-1.1h4.2l2.1 3.1 3.1 0.6-0.5 3.6h-5.2l-1 1.6-3.7 0.5v-4.2zm36.5 3.2l0.5-3.2h4.2v6.8l-4.2 0.5zm160.4 5.2l-3.6-3.6v-4.7h8.3l2.6 2.1-0.5 6.2h-3.2l-0.5-2.6zm-131.2-0.5l3.1-1.5 2.1-4.7 4.7 0.5 1 14.6h-7.3-1.5l-3.2-4.7zm-83.3 17.7h3.1l2.1-3.6h6.8l2.1 4.1 4.1 3.2h4.2l1 6.2-17.7-2.1v-3.1l-3.6-1-2.1-3.2zm-208.9 9.4l7.3-8.3 7.3 1 2.6 5.2 7.3 5.2-3.1 7.3-5.2 3.2-1-2.6-1.1-9.9-8.8-0.6-2.1 4.2h-3.2l-1-1.6z"/>
		<path id="Path 40" class="s37" d="m424.5 426.5l4.7-1 1.5 1.5v2.1l-1.5 1.6h-4.2zm46.4 3.1l9.9-1.5 2 3.1-0.5 3.6-3.1 2.1-7.8-2.6zm49.5 30.8l2-3.7 4.2 1.6 2.6 5.7-0.5 12.5h-5.7l-2.1-2.1-1.1-5.2v-6.8zm42.2-1.5l5.2 2.6v-3.7l9.9 1.1-0.5 2.1-2.6 5.2-3.6 1.5-0.6 10-1.5 0.5-1.1 3.6h-3.6l-2.1-2.6-0.5-4.7 1.5-1.5-3.1-8.9-0.5-2.6zm-75 1.6l6.2-0.6 3.2 0.6 1.5 2 0.6 5.8-1.6 0.5-8.9-0.5-1.5-1.6zm45.8 19.3l1.1-7.3-1.1-6.3h9.4l1.5 7.9-1.5 4.1-2.1 3.7-2.1 2.6-3.6 0.5-1.6-1zm-169.3 17.2l-1.5-9.9h12.5l-0.5 3.6-2.6 1.1-3.2 4.7zm15.7-6.3l2-3.7h12l-0.5 3.7 4.2 3.1 2.6-0.5h3.1l3.1 2.6v8.9l4.2 2.1v3.1 9.4l-9.9 1-1.6 2.6-9.4 1.1-2-3.2-3.7-1.5-0.5-3.2v-8.3l2.1-2.1v-5.7l-3.7-1.6-0.5-6.8zm59.9 2.6l3.7-0.5 0.5 6.8h-3.1l-2.7-3.6zm6.3 6.7l3.6-1 3.2-4.2 2.6 2.6h3.1l3.1 3.2 5.2 1 1.1 16.7v4.1l-7.3 0.6-1.1-1.6-5.2-1-0.5-7.3-7.8-1.1zm63.5 7.8l0.6 2.1h4.6l2.7-3.1 9.3 1.6 0.5 8.3 2.1 0.5v2.1l-2.6 3.7-5.7 2-5.2-4.7h-14.1l-3.1-4.1h-4.7v-7.3l2.6-1.1h1.6z"/>
		<path id="Path 41" class="s38" d="m425 386.9l2.6-1 3.7 1-3.2 7.3-3.1-1zm447.9 81.3l9.4-3.1 7.3-8.4 12.5-1 1 1 0.5 2.1-4.1 4.7-3.1 8.8-5.3 5.8-2.6-1.6h-11.4l-1.1-3.1h-3.1zm-133.3 45.9l5.2-6.8-0.5-5.7h8.8l3.2 2 1.5 10.5v4.7l-1.5 1.5h-8.4-9.4zm-645.3 32.9l11.5-12.5 6.8 0.5 2 2.1v8.3h-7.8l-2.1 2.1-0.5-4.7-9.9 6.8zm637-7.9l4.2-2h4.1v8.3l-2.6 1-0.5 6.8-5.7-2.6zm-377.1 39.6v-4.1h10.4l2.1 2.6v4.7l-3.6 2-1.1 3.2h-3.6l-1.1-6.3z"/>
		<path id="Path 42" class="s39" d="m578.6 410.4l1.6-2.6 9.4 0.5 3.1 2.6-0.5 3.1h-4.7l2.6 8.3-6.8-3.6-1-4.7zm40.1 8.3l11.5 0.6 1 2.1v8.3h-3.1l-1.1 1.6-2.1-1.1v-3.1l-6.7-4.7zm-374 1.6l9.4-1.1v7.3l-2.1 2.1h-4.2l-1.5-1.6zm-44.8 35.5v-3.7l4.7-4.7 19.8-0.5 0.5 2.6v8.4h-13l-1.6 2.1h-7.8l-2.6-2.1zm342.7 10.4l4.7-3.1 0.5 14.6v1.5l-5.2-1 1.6-4.2zm-71.9 16.7l3.6-0.5 3.2-3.2-0.6 5.8-0.5 3.1-4.7 2.1zm64.1 2.1l3.6-0.5 2.1-2.6 1.1 2-1.1 6.8-2.1 1.1v5.7l-1 0.5-2.1-1-1-7.8zm-13.6-1.1l4.2-1.6-0.5 6.8v4.2h-3.7zm-146.3 3.1l1-4.1 7.3 1-1.6 3.1-2 3.7h-5.2zm321.8 4.1v-1.5l3.7-1.1-1.6 9.9-3.1-1 0.5-2.1zm13 1.1l2.6-0.6-1 5.2h-2.1v5.3l-2.1-1.1-1-1 1-6.8zm-579.7 21.9l5.2-4.2h4.2l2.1 2.1-1 6.3-8.9-0.6zm159.4 35.5l1-3.7 6.3 3.2-0.6 2.6h-3.6z"/>
		<path id="Path 43" class="s40" d="m707.8 428.6l-4.7 4.2-5.7-1.6-1-12zm-153.7 49.5l3.1-1.5 3.2 3.1 1.5-0.5 2.1 2.6h3.7v2.1l-3.7 2.6 0.5 5.2h-7.3l-2-1.6-1.1-6.7zm-433.3 52.6v-3.6l3.1-2.6 4.7 2v5.8l-2.1 2.6-2.6 0.5-2.6-1.6zm202.1 7.3v-9.4h9.4v3.7l3.1 4.7 5.7 0.5 0.5 6.3 6.3 6.2v3.2l-6.3 4.6v3.2l-2.1 1-5.2-2.6-1-3.1-4.2-2.6v-3.2l2.1-2.6v-5.7zm-34.9 3.7l0.5-4.7h7.3l7.3 2 2.1 6.3 5.2-0.5v10.4l-3.6-0.5-5.2-5.7h-4.7l-6.3-3.2z"/>
		<path id="Path 44" class="s41" d="m841.7 601.7l-0.6-5.2-11.9-11.5-5.8-11-7.3-8.3-1-4.7-6.8-8.8-3.6-1.6-0.5-4.7-6.3-4.2-1.5-4.1-4.7-2.7v-4.1l-6.3-3.7v-13h6.3v2.1 9.9l2 4.2 13.6 7.3 3.1 11.9 6.3 8.4 14 13.5 5.8 3.2 5.2 0.5 3.1 2.6 4.2 7.3h5.2v6.2l2.6 1.6 1 3.7 6.8 4.1 2.1 3.2 4.1 1 2.6 8.9 3.2 2.6-1.1 7.3h-1.5l-9.4-2.6-4.2-2.1v-4.7l-6.2-4.7-2.1-5.2-3.7-2.6z"/>
		<path id="Path 45" class="s42" d="m380.7 418.2l4.2-4.7-0.5-2.6h2.1l3.1 2.1-0.5 3.1-3.2 1-0.5 2.6h-3.1zm170.8 8.9l1.6-1.6 1 5.8-1 0.5-1.6-1zm171.9 47.4l0.5-4.7 3.1-2.6h1.1l3.1 2.6-2.6 1.6-1 5.2zm-463.1 14.6v-2.1h4.2l0.5 3.6-2.6 0.6zm437.5 44.3l20.9-0.6 1.5 3.2 4.7 2.6 6.3 0.5-0.6 11.5-24.4-6.3-8.4-3.6zm-583.3 12v-8.4h2.1 6.2v2.1 8.3h-6.2zm225 16.7l2.1-1 12.5 5.2v8.3 4.2h-5.8l-1.5-2.6-6.8-2.6-1.6-2.6z"/>
		<path id="Path 46" class="s43" d="m645.8 435.9l-1-9.4h3.6l3.7 3.7 8.8-0.6 1.6 2.1h4.2l0.5 2.1h3.1l1.6 2.1 8.3 2.6-0.5 2.1h-2.6l-1.1 2.1-5.2 0.5 9.4 2.6-0.5 2.6-4.2 2.1v4.2l2.6 0.5 2.1-2.1 1.6 1-1.1 7.9v4.1l-5.2-3.6-2.1 1.6-1.5-1.6 1-5.2-2.1-3.7-1-1-5.2 1-0.5-3.6-1.6-6.3-4.7-0.5 1.1 9.9-1.6 0.5-4.2-5.7-4.1 0.5v-2.1h-1.6v-8.3zm-10.9 0.5l6.7-0.5 2.1 12.5-1.5 1.6-1.6-2.6h-2.1l-0.5-4.2-3.1 0.5-2.6-1zm93.2 30.7l3.1-1 0.5-2.1 9.9 1.6v4.1h-5.2l-0.5 1.6-4.7-1.6zm-238 15.1l4.7-3.6-1.6 8.3-0.5 2.1h-2.6l-1.6-5.2zm89.1 5.2l2.1-1 2.1 0.5v8.3l-1.6 4.2-2.6-1.6v-4.6l0.5-3.7-1.6-1zm-53.6 9.9l-4.2 0.5v-4.7h3.7zm-252.1 46.4v-1.6l3.6-2.1v-2.6l3.7-1 4.7 5.2h2.6l2.6 4.2-1.1 3.6-6.2-1.5zm64.1 46.9v-9.4l2-1 8.4 3.1 6.7 2.1v6.2l-5.2 0.5z"/>
		<path id="Path 47" class="s44" d="m450 347.3l4.7-8.4 6.2 3.2-5.2 3.6-4.1 11-3.2 1 3.7-6.8v-3.1zm-27.1 52.1h3.1l2.1-2.1 2.6 1.1v3.1l2.6 3.1v3.2h-5.7l0.5-2.6-1.6-1.1-3.6 2.1zm201 69.9l1.6 1 0.5-2.1h3.2l1 6.8-2.1 1-0.5 8.4-9.4 0.5-0.5-13zm-336.5 9.9l2.6-3.7 13.1 1.1-1.1 8.3 2.1 1.1v3.1l-6.2-0.5-0.6-3.2-9.9-1.5zm131.8 15.6l2.6-8.9h7.3 2.1l2.1 2.1-1.6 7.8-3.6 2.7h-3.2l-3.1-3.7zm248.4-3.1v-2.6h7.9l-1.1 3.6-3.6 2.1h-1.6zm21.4 3.7l-0.6-3.2 1.6-1h6.8l-0.5 4.2zm-290.1 27.6l1.5-2.6 9.9-1.1h4.2v5.2l-13 2.1zm-182.3 1.6l2-4.2 8.9 0.5 1 10h-9.3l-2.6-2.7zm202 56.9l2.1-0.6 3.7 0.6 0.5 1.5v5.2l-3.6-0.5-2.7-2.6z"/>
		<path id="Path 48" class="s45" d="m451.6 331.1l3.6-2.6 1.1-4.7 4.6-5.7 2.1 8.3 3.7 6.3 1 5.7-1.6 2.1-5.2 1.6-6.2-3.2-4.7 8.4-4.7 9.4-2.6 3.1h-1l-2.1-2.1h-2.6l4.1-9.4v-0.5l6.8-9.9v-2.6l2.6-0.5zm-25 27.6l1.6-2.1h2.1l-1.6 3.7zm88.5 16.1l4.7-4.7 3.2 1.1 5.7-1.1 3.6 2.1 0.6 2.1 12.5 0.5 7.2 3.7-0.5 2.1-3.6-0.6-4.7 3.2h-4.2l-3.6 3.6-4.7 2.1h-6.3l-1-3.1 2.1-3.7-8.9 3.7h-4.7v-5.8l4.2-3.1v-2.1zm-74.5-1.5l2.6-2.1 5.2 3.6-1 3.7-3.1 2.1-4.2-2.1zm53.1 3.1l2.1-0.5 0.5 3.6 3.7 3.2-5.7 4.6h-2.1l-3.7-1v-5.2zm-41.6 2.1l2-1.1 5.2 5.2-3.1 4.2h-1l-3.7-1zm26.6 4.7l-3.6 3.6h-4.2l0.5-5.7 6.3 0.5zm123.4 16.2l2.1-5.8-3.7-1.5-0.5-6.3 9.4 1.1 5.2 2.6 1.6 6.2-3.7 1.1-7.8 3.1zm40.6 10.9v-6.2l-3.1-1.6v-6.2h7.3l7.3 3.6 5.7 0.5 5.7 4.7-1 9.4-12.5 1.6v-2.6l4.2-1.6-0.6-3.1zm21.9 131.9v-1.6l2.1-0.5 1.6 2.1zm7.8 0l13-1.6v1.6zm-181.3 57.8l-3.6-2.6v-9.9l2.1-3.6 6.8 2 9.9-1.5 3.6 1-1.6 0.5-4.1 0.6-6.3 1v8.3l-3.6 0.6zm372.4 21.3l1-0.5 9.4 2.6-1.6 1.6z"/>
		<path id="Path 49" class="s46" d="m448.4 357.7l3.2-1 2.6 4.1h3.1l1 2.1-1.5 2.6-5.8 7.3-2.6 2.1-5.2-3.6 3.7-9.9 1-3.7zm-18.2 12.5l1-4.7 5.8-7.8h2.6l2 2.1-5.7 10.9-1.5 1.6h-3.2zm33.4-7.8l3.1-2.1 3.1 3.6 1.1 4.2h3.6l-1 4.2-14.1 10.4-5.2-5.2v-1l4.2-3.2 2-6.2zm36.5 5.7v-3.6l1.6-1.1 9.9 0.5 7.2 3.7 1.1 2.6-4.7 4.7-6.8 3.6-5.2 1.6-2.1 2.6h-1l-3.6-3.1-0.6-3.7 2.1-2.6 6.8-2.6-2.6-3.1zm-25 5.7l5.2-2.6 2.1 3.7 4.1 0.5 1.1 1.6-8.9 6.2-1-1.6-6.3-0.5zm-267.7 188.7l-10.4-2.6-0.5-2.1 5.7 0.6 7.3 1z"/>
		<path id="Path 50" class="s47" d="m374 426.5l-1.6-10.4h2.1l1.5 2.6 4.7-0.5 1.6 1.5-1.6 4.7 1.6 6.3-2.6 0.5-0.5-2.6h-5.8zm236 2.1l2.1-6.3h6.2l6.8 4.7v3.2l-4.2 2.6-8.3-1.1zm-119.3 15.1l3.1-0.5 1.1-2.6 1.5 9.4v4.2l-2.6 0.5-3.6-0.5 0.5-1.1 1-1.5zm32.9 9.9l-1.6-7.9 2.6-2h1.6l1 6.7-0.5 7.9-4.2-1.6zm13-8.9l3.2-0.5-0.6 5.2 0.6 6.8-1.6 1 1 1.1-2.6-0.5 1.1-6.8-1.6-3.7zm27.1 8.9l-1-4.2 3.1-3.1 1.5 0.5 0.6 11v3.6l-5.2-2.6zm255.2-2.6l8.8-1.6v5.8l-6.2 1.5zm-26.1 5.8l13.6-3.2v6.3l-4.2 2.6-8.3-0.5zm-201.1-1.1l3.2-1.5 1.5 1.5 0.5 12-2.6-2.1-3.1-2zm27.6 3.1l1.1-1.1 3.1 1.1 2.6 1v2.1 6.3l-0.5 2.1-1.6-1.1-3.6-3.1zm139 4.2l4.2-1.1-0.5 4.2h-1.6z"/>
		<path id="Path 51" class="s48" d="m260.4 405.1l8.4 1.1v7.8l-8.4-0.5zm-69.3 38.6l0.6-1.6 6.2-2.6v-2.1l12.5-6.2 12-9.4 16.7-9.4 2.6 3.6v3.2l-8.4 5.7v9.9l4.2 2.1v4.2l-6.2 4.1h-5.8l-1 1.6-19.8 0.5-4.7 4.7v3.7h-4.7l-2.1 1.5-1.5-1.5zm192.2-4.2l-1.6-4.2v-1.6h1.6l6.2 1.1-1 4.7zm61.4 15.6l-5.2-2.1 1.1-5.7-1.1-4.2 6.3-1.5-0.6 7.8zm30.3-6.8l4.6-0.5-0.5 3.6-0.5 4.2-2.6-2.1-2.1-0.5zm-162.5 10.4v-3.6l3.1-3.2 3.2 0.6-0.6 12v2l-5.7-2.6zm19.8-5.7l5.2 0.5v7.3l-1.6 3.2-0.5 6.7-3.1-5.2-4.2 1.1 1.1-2.6 1.5-11zm-173.9 10.4l4.1-2.6v7.3h-4.1zm7.3 17.2l4.1-4.1h10.5l1 10.9-3.1 1.6v4.7l-1.6 1.5h-3.6l-5.2-1v-4.7l-2.1-1.6zm484.3 13.6l2.1-0.5v5.7l-3.6-0.5v-4.2z"/>
		<path id="Path 52" class="s49" d="m791.7 514.1l2-2.1 3.7 1.1-1.6 3.1h-4.1zm-16.7 2.1l6.2-2.6 4.2 0.5v13l6.3 3.7v4.1l4.7 2.6 1.5 4.2 6.3 4.2 0.5 4.7 3.6 1.5 6.8 8.9 1 4.7 7.3 8.3 5.8 11 11.9 11.4 0.6 5.3-2.1 0.5-2.1 3.6h-6.2v-1.5l-6.3-4.7v-11.5l-10.9-13.5-0.6-4.7-1.5-1.6h-5.7l-0.6-6.3-8.3-7.3-0.5-3.1-11.5-6.2v-3.7l-1.5-1.6-4.7-3.1h-4.2v-14.6zm-0.5 65.7l6.7-1 3.2 1 3.1 5.7v3.7l-2.1 2.1z"/>
		<path id="Path 53" class="s50" d="m410.9 367.6l3.7-5.7 3.1 0.5 1.1 2.6h3.1l-1.1 4.2h-0.5-8.3zm-17.2 15.6l5.2-4.7 2.6 0.5v6.8l-6.2 0.5zm70.8 16.2v-9.4l6.2 1.1v4.7h-1.5l-0.5 3.6zm127.6 14.6l0.5-3.1 12 0.5 0.5 2.6 3.1 1v3.2l-3.6-0.6-1.1 4.2 2.6 6.3 2.1 0.5-2.1 3.6-4.7-8.8-4.7-1.1 0.6-5.7zm39 15.6v-8.3h6.8l3.6 5.2h3.2l1 9.4h-4.2l-6.7 0.5-3.1-1.5zm-32.3 42.7l2 0.5 2.6-2.1v6.3l2.1 1.6-2.1 0.5v4.7l-4.1-2.1zm87 16.7v-3.2l3.6-1 0.5 6.3-1.5 1 0.5 3.1-0.5 1.1-3.2-1.1zm-198.4 5.2l2.6-5.2h2.6v6.8h-4.2zm-65.1 16.2l-0.5-6.3 3.7-1 2 3.6-2 3.7zm-305.8 43.7v-6.7h6.3l0.5 4.7-2.1 2 0.5 2.1-7.2 4.7-4.2 0.5-1.6-1.5 5.8-0.5 5.2-3.7zm216.6 15.7l-2.6-1.1-0.5-2.1 1-6.2 3.2-1.1 5.2 2.6-1.1 8.9z"/>
		<path id="Path 54" class="s51" d="m770.3 577.7l1.6-1v-3.7l3.1-1 6.3 2.6v6.2l-6.8 1.1zm60.9 28.1h6.3l2.1-3.6 2-0.6h6.8l3.7 2.7 2 5.2 6.3 4.7v4.6 1.6l3.1 1.1 8.9 3.6 3.1 1 2.1 5.8v13.5l-1.6 1.1-11.4-1.1-10.5-3.6-23.9-12.5 1-9.4-2.1-4.2 1.6-1zm-169.3 14.6l2.6-1.1 0.6 4.2z"/>
		<path id="Path 55" class="s52" d="m797.4 513.1l6.8-1.1h6.2 10.4v8.4l-1 2h-14.1l-1.5 1.6v5.7l8.3 5.8 4.2 5.7 0.5 11.5 6.8 2.6 5.2 6.8 6.2-0.6 5.2 2.1 2.6 5.2 2.1 1.1 0.5 3.6 8.4 7.3v4.2h-5.2l-4.2-7.3-3.1-2.6-5.2-0.5-5.8-3.2-14-13.5-6.3-8.4-3.1-11.9-13.5-7.3-2.1-4.2v-9.9h4.1zm-43.2 32.3v6.3h-6.2v-6.3zm-139.1 19.3l5.7-4.2 3.1 0.5 3.2 5.8v5.7l-1.1 4.2-3.6 0.5-1.6-1.6zm-180.2 62.6l0.5-13h10.5l8.8 15.6 2.6 1.6 4.2 7.3-1.1 2.6-4.1 2.1-2.1 5.7-14.6-14.6z"/>
		<path id="Path 56" class="s53" d="m446.4 426.5l-1.1-3.1 3.7-1.1 5.7-5.2-3.1 9.9 0.5 5.8-5.7-1.6zm-29.2 4.7l-2.1-2.6h-4.7l0.5-4.2h5.2l0.6 2.1zm-105.8 1.6l4.7-1.1 0.5 7.3-2 5.2-5.2-1.5zm113.5 16.1l-5.7-1.5 2-5.2-0.5-5.8 4.7 0.5 2.1-0.5 0.5 2.6zm-44.3-1.5l2.7-7.8h5.2v4.6l-0.6 3.7-2 1.6zm77-4.7l4.2-1.6 1.6 1-1.1 14.1-4.7-2.6-0.5-2.1zm17.2 5.8l-1.6-4.7 5.3-2.1 1.5 0.5-0.5 5.7zm102.6 10.5v-7.9l3.1-1.5 1.1 4.2-0.6 9.9-4.1-2.7zm28.6-1l3.7-2.1 0.5-3.1h1.6l-1.6 7.3 0.5 7.8-5.7-3.6zm-143.2 4.1l7.2-3.1-1.5 7.3h-5.2-0.5zm-303.7 16.7h-3.6l0.5-3.7 2.1-1 2.6 1zm482.8-1l2.6-1.6h1.5v2.6 8.4h-2l-2.6-2.1zm-505.8 9.9l3.2-2.6h4.1l3.7 3.1 5.7 1.1v3.1l-2.1 0.5-1 2.6h-7.3z"/>
		<path id="Path 57" class="s54" d="m414.1 396.8l6.7-1.6-0.5 3.2-3.1 3.1-3.1-1.6zm-3.2 22.4h3.7l4.2-3.6 1 3.6-2.6 1.1-1.1 4.2h-5.2l-0.5-4.7zm19.8 7.8v-4.2l-1.6-1 4.2-1.1 1.1-3.6h2l0.6 2.1-0.6 7.3v4.7l-5.7-2.1zm-36.5 1l-0.5-7.8h5.2v9.4l-1 1.5zm69.3-3.6h4.1l3.2-3.1v8.3l0.5 4.7-0.5 2.1-6.8-2.1 1.5-5.7-2-2.1zm17.2 3.6l5.7-4.7 1.5 2.6-0.5 11-5.2-2.1 0.5-3.6zm-153.6 7.3l5.2-2.1 1.6 0.5v5.7l-2.6 4.7v3.7l-5.8-4.2 0.5-2.1 1.6-1.6zm78.1 0l3.2 0.6-0.6 5.7-3.1 3.1v4.2l-2.1-0.5-1-2.6 0.5-8.9zm207.3 7.3h4.2l0.5-2.6 3.6-2.1-2.6 6.8-0.5 8.9-1.6-2.6h-2.6l-1-5.8-1-2.1zm-262 12l6.2-1.5-1 16.6-1.1 0.6-3.1-4.2-4.1 1-0.6-1 1.6-1.6v-7.8zm78.6 0.5l6.8-1.5-0.5 8.3-1.6 1.6 0.6 6.7-3.7-3.6-4.7-0.5 1.1-9.4zm87.5 8.3l2-1.5 1.1 0.5v6.8l-0.5 6.2v3.1l-3.2-3.1h-2l0.5-3.6 0.5-1.6-2.1-0.5 2.1-2.6-1-3.1zm-196.4 9.3l4.2-2 1 1.5-2.6 12-1.6 2.1-3.6-1.1 0.5-1.5 0.5-7.3zm-159.9 18.2l2.6-3.1h2.7l2 1.6v4.7l-3.1 3.1h-4.2l-1-3.1z"/>
		<path id="Path 58" class="s55" d="m410.4 393.2l2.1-4.2 4.7-0.5 1.6-2.6 6.2 1v6.3l3.1 1v3.1l-2.1 2.1h-3.1l-2.6-1 0.5-3.2-6.7 1.6zm216.6 38.1l1.1-1.6h3.1l0.5 5.2 3.1 1.6-2.6 6.2-1.5 3.2-3.1 0.5-1.1-2.6zm16.7 17.2l-2.1-12.5h4.2l1.5 2v8.4zm5.2 0l4.2-0.5 4.2 5.7v2.6l2.6 1.6 1 3.6h1.6l2.6 3.1-1.6 3.7h-2.6l-1.6-4.2h-6.2l-0.5-1.5h-3.1l1-4.2-3.1-1.1zm31.2 4.7l-2.1 2.1-2.6-0.5v-4.2l4.2-2.1 1.6 2.1zm16.1 1.1l-4.7 1.5-3.1-3.6 1.6-2.6 7.8 2.1 1 1h-2.1zm-14.6 0l3.7 0.5 0.5 3.2 2.6 1.5-1 3.2-6.8-0.6zm31.3 4.2l9.3 2.1v1l-4.7 2.6-4.6 2.1zm4.6 7.3l2.6-0.5 2.6 3.1 1.6-2.1 2.6 1.1-3.1 2.6-0.5 4.7h-4.7-2.6l-0.5-4.7zm-21.4 5.7l3.6-2.6 2.7 0.5 1 2.1 1-1.5h1.1l1.5 6.2-2 2.6-8.4-0.5 1.1-5.7h-1.6zm-483.9 11.4l4.2-4.1v-4.2h3.1l1.1 1.6h6.2l3.2 2.6 1 8.3h-4.2l-1.5 2.1h-13.1zm645.9 12.5l7.3-8.3h3.1l6.2-5.3 2.1-2v-3.2h11.5l2.6 1.6-6.3 8.9-2 6.7-5.8 2.1-10.4 9.4-1-1.6h-3.2-4.1zm-707.3 27.2h8.8l2.6-2.1h4.2v6.2l-12.5 1.1-2.6-1.1zm588.5 14.6l1.6-3.1 6.8-0.5 3.6 0.5 3.7 4.2-1.1 7.3h-6.2-8.4zm-318.7 43.7v-14.5l10.9 2 2.1 2.1 7.3 2.1h8.9l3.1 9.4v0.5l-11.5 1.6-16.6-1.1-0.6-1.5z"/>
		<path id="Path 59" class="s56" d="m766.7 539.1h6.2l2.1-2.1h4.2l4.7 3.2 1.5 1.5v3.7h-10.9l-5.8 5.2-2-1.6zm14.5 41.7v-6.2h4.2l3.7 3.1 2 6.3 7.3 10.4 7.9 1v3.2l2.6 3.1 16.1-2.1 6.3 4.7v1.5l-0.6 8.9-1.5 1.1 2.1 4.1-1.1 9.4-21.3-13.5-23.5-22.5 2.1-2v-3.7l-3.1-5.7z"/>
		<path id="Path 60" class="s57" d="m677.1 421.3l3.1-3.6v-4.7l1.6-1.6 5.2 1 4.7 5.8 4.7 1 1 12 5.7 1.6 4.7-4.2 4.2 5.2 0.5 8.4 2.1 2.6-1.1 2.6h-5.2l-9.9-0.6v-0.5l-0.5-9.4-3.6-0.5-6.3-2.1v-5.7l-11.4-0.5zm-511.5 38.6l-2.1-1.1 1.1-1.5 10.4-5.8-0.5 3.7-1.1 1zm175.5 77.7l2.6-3.1v-7.9h8.4l2.1 7.3 4.1 3.2v8.3l2.1 2.1v6.2l-6.2 2.1-6.3-2.6v-3.1l-6.2-6.3zm-28.7 6.3l0.5-4.7h5.8v6.3z"/>
		<path id="Path 61" class="s58" d="m354.2 403.6l4.7-1.6-0.6 3.7-2 4.1 0.5 6.3h-0.5l-2.7-5.2h-3.1l0.5-2.6zm49.5 4.7l0.5-3.2 6.8-3.1-1.5 9.9-2.7 1.6-3.6-1.6zm-16.7-3.1l4.2-2.6 2.1 0.5-0.5 1.6-1.1 6.7-2.1 1.6-3.1-2.1zm-51-0.5l5.7-0.5-1 5.7-1.6 4.2-3.1-4.2h-2.1l0.5-2.1zm33.3 1.6l5.8-2.6v6.8l-1.1 2.6-2.6 1-1-2.1h-3.1zm121.3 6.8l5.2-2.6 0.5 12.5-2-1.6-4.2-2.6v-3.6zm40.1 2.1l3.6 0.5 3.2 8.9-1.1 1-2.6-3.7-3.6-1-1.6 1v5.8l-2.6 1-2.1-1 3.2-4.7-1.1-6.8zm-188.5 1.6l2.1 0.5 3.6-2.1-1.6 6.8-2.6 7.3-4.1-3.1v-8.4zm204.7 0l3.6-1.5 2.1 1 0.5 9.4-1.6 1.5-5.2-1.5v-1.1l1.1-5.7zm13.5 3.1l6.3-2.6 1.5 13.6-2.1-0.5-1.5-3.2-3.1-0.5zm17.1 2.6l4.7-2.1 0.6 6.3 0.5 7.8-3.7-4.2-3.1-1zm43.2 10.4l4.2-2.6 2.1 1.1-0.5 12.5-2.1-4.2-3.7-2.1zm-20.8 7.3h1.6l0.5-2.1h2.1l-1.1 6.3-3.1 0.5-1-2.6zm27.6 6.3l3.1-0.6 1.5-3.1 2.7 1-0.6 3.2-1.5 6.2-2.6 1.1-2.6-1.6zm16.1 2.1l3.7-2.1h1.5v2.1l-1.5 8.9-1.1 1-4.2-3.7v-4.6zm69.3 17.7l4.7-2.1v1.6l-2.1 4.1 0.5 4.7-1 1.6-1-3.7-1.6-0.5v-3.1zm38.5 17.2l-1.5 1-2.1-2.1 0.5-3.1 2.1-1 1.6 0.5zm-24 4.7l1-3.1 4.7-2.1-2.1 6.8 0.6 3.6-1.1 0.5-1-3.1-2.6-1z"/>
		<path id="Path 62" class="s59" d="m879.2 440.1l15.6-2.1 13 0.5 2.6 3.7-1 5.2-7.3 2.1-2.1-2.1-20.8 2.1zm-37.5 23.9h6.2l2.6-4.1h9.9v7.3h-3.6l-6.3 4.7h-2.6l-4.1 4.1v4.7l-6.3 2.6-2.1 3.7-5.2 1.5-3.6 5.2-3.7 2.1v5.8h-12.5-6.2l-8.4-2.1v-5.2l5.2-5.8 11.5-1.5 10.9-0.5 0.6-2.7 4.6-2.6 0.6-6.7 2.6-4.7 7.8-1.6zm-72.4 58.4l-0.5-8.4h2l4.2 2.1v6.3z"/>
		<path id="Path 63" class="s60" d="m434.9 329.6l10.4-12 3.1 2.6-1.5 3.6 3.1 1.1v3.6h-3.6l-1.1-1-5.7 6.7zm408.8 151.2v-4.7l4.2-4.1h2.6l6.3-4.7h3.6l0.5 1-0.5 4.2-4.7 3.6-2.6 0.6-4.2 4.1zm-50 20.9l2.1-2.1 8.4 2.1v10.4l-6.8 1-3.7-1zm12.5 93.8v-27.1h5.8l1.5 1.6 0.6 4.7 10.9 13.5v11.5l-16.1 2.1-2.7-3.1z"/>
		<path id="Path 64" class="s61" d="m434.9 349.4l6.2-1.1-4.1 9.4-5.7 7.8-1.1 4.7-2.6 2.1-3.1-1.6 4.1-10.4 1.6-3.6zm-43.2 62l1-6.8 4.2 1.1 1 2 5.8 0.6-0.6 3.6 3.7 1.6 2.1 5.2-9.9 1.6 1-3.2-2.1-0.5-2.6-4.7zm36 2.6l-1.1-1.5 1.1-4.7h5.7v6.2zm278.1 55.8l1.6-1.6 5.2 0.6v3.1l1.6 0.5 1 3.7 1-1.6h2.6l0.6 4.2-2.1 4.1h-8.9l2.1-7.8-3.1 1.1zm12.5 21.9l1.5-4.7 7.9 1-0.6 1.6 2.6 1 1.1 3.1 1-0.5h8.4 1.5l1.6 4.2 1 4.2 0.5 5.7-5.2 6.8h-1.5l-1.6-1.6h-9.4l1.1-3.1-2.6 0.5-4.2-5.2 0.5-5.7 2.6-5.3-5.2 2.1zm108.9 32.9v-4.2h6.2l1.1 10.4 3.1 2.1 2.6 5.2-1 7.3-1.6 2.1-8.3-2.1v-5.2l-2.1-2.1zm-412.5 19.8l4.1-3.1h8.4v6.3l-7.3 4.1h-5.2z"/>
		<path id="Path 65" class="s62" d="m406.8 413.5l2.6-1.6 1.5 7.3-0.5 0.5-1.5-1zm-35.5 0.5l2.6-1 0.6 3.1h-2.1zm-111 73l-2-8.4h6.7l3.2 1.6v5.2l-3.7 1.6zm-119.8 31.3l1.1-6.3h20.8v8.3l-2.6 2.1h-8.9-7.8zm607.3 2.1h8.3l1.6-1.5v-4.7h10.9l0.6 8.3v4.7l-3.7 4.7-0.5 6.2h-9.9l-3.6-4.1-3.7-0.5zm-100 14.5h11.5l1.5-2h3.7l2.1 1.5v5.8l-2.1 0.5v1.5 1.1l-20.9 5.7-1.5 2.6-5.7 0.6-3.2 3.6-4.1 0.5v-2.6l-2.1-2.1v-6.7l3.1-4.2v-4.7l9.4-1.1zm-289.6 55.8v-3.6h3.6l0.6 3.6z"/>
		<path id="Path 66" class="s63" d="m835.4 561.5l-6.2 0.6-5.2-6.8-6.8-2.6-0.5-11.5-4.2-5.7-8.3-5.8v-5.7l1.5-1.6h14.1l1 2.1h6.3v13.6l2.1 2.1v5.2l1.5 6.8 4.7 1.5zm-209.4 15.1l1.1-4.1h6.2l4.2 4.1v6.3l-3.6 2.1v1.5zm-203.7 29.2l-1-18.2 3.6 0.5 7.3 7.3h4.2l8.8 7.3 1.6 3.7-1.1 7.8h-10.4l-8.3-0.6z"/>
		<path id="Path 67" class="s64" d="m428.1 356.7l3.2-7.9 3.6 0.6-4.7 7.3zm72.9 26l2.1-2.6 5.2-1.5 0.5 2.6 3.7-1.1v5.8l-2.6 4.6-6.8 0.6-0.5-7.8zm37.5 6.2l5.2-3.1 3.1 1.5v3.7h-7.8zm49 8.3v-4.1h2.6l1 2-1.6 2.1zm77.1 17.2l1.1-9.3 6.7 0.5 9.4 5.7-1.5 1.6v4.7l-3.2 3.6h-8.3-5.2v-2.1l4.2-2.1-0.6-2.6zm15.7 31.3l-9.4-2.6 5.2-0.5 8.8 2.1 0.6 2.6zm-377.1 93.3l3.1-2.1h4.2l2.6 2.1-0.5 4.7-2.1 1-5.2 0.5z"/>
		<path id="Path 68" class="s65" d="m612 452.6h1.5v-1.6h2.6l1.6 2.6 0.5 1.1 1.1 4.1 1 7.3 3.7 3.2-6.3 2.6-2.6 1.5-3.6-3.1-0.6-2.6-0.5-7.8zm28.1 19.8l-1.5-4.7 1-3.1 8.4 0.5v5.2l-3.2 5.7-2.6 1.6zm-189.6 0.5v-3.6l2.1-3.2h10.4 0.6l-1.1 6.8-3.1 3.7h-6.3zm68.8 2.6l1.6-1.1 2 2.1h5.8l4.7 3.2v4.1l1.5 1.1-0.5 4.1h-9.4l0.5-6.7-4.1 1.5-1.6-1.5-0.5-3.7zm-231.3 17.7l4.7-0.5 5.2 6.8h6.3v2.1 10.4l-3.1 0.5-7.3 6.3v3.6h-5.8l-3.6 6.3h-4.2v-4.7l-2.1-3.7 1.1-11.4-2.1-1.6v-7.3l4.7-3.1 4.7-0.5zm64 8.3l4.2-1.6h4.2v5.8l-8.4-0.5zm101.1 80.2l11.4-0.5 16.7 1.1 8.3 1.5-2 3.7v9.9l3.6 2.6 2.6 3.6v15.7l-2.1 0.5-12.5-8.9-13-6.2-1.6-2.1v-5.8l-10.4-4.6-1-9.9zm221.9 28.1l2-1.6 3.2 3.7-1.1 2.1z"/>
		<path id="Path 69" class="s66" d="m116.1 494.8l4.2-3.1v2.6l-0.5 1-2.6 1.6zm194.3 50l2-1 6.3 1.6 2.1 3.6-5.2 2.1v7.3l-3.2-0.5-2-2.6zm-179.2 9.9l0.5-3.2 4.7 0.6 0.5 1.5-2.6 1.1zm226.6 37l0.5-1.1h4.2l16.6 3.7-1 2.1-19.8-0.5z"/>
		<path id="Path 70" class="s67" d="m286.5 489.1l1-5.2 9.9 1.5 0.5 3.2-3.6 1.5-1.6 2.6-4.7 0.5z"/>
		<path id="Path 71" class="s68" d="m158.3 474v-5.8h4.2l5.7 1.1 1.6 7.3-4.2 4.1h-5.2l-1-2.1 1.5-3.6z"/>
		<path id="Path 72" class="s69" d="m442.7 359.8l2.6-3.1 2.6 1-1 3.7zm-86 56.3l-0.5-6.3 2.1-4.2 4.2 0.6v5.2l-2.1 1.5 0.5 5.2-3.6 1.1zm302 37l-1-9.9 4.7 0.5 1.6 6.3zm5.7 0.5l5.2-1.1 1 1.1 2.1 3.6-1 5.3-6.8 2-2.6-3.1zm8.8 10.4l2.1-1.5 5.2 3.6v-4.1l6.8 0.5-1 3.1-1.1 2.1-4.7 2.1v5.2l-7.8-0.5zm11.5 14.6l2.6-12.6 5.7 2.7 3.1 2.6v1l-3.6 1.6v4.7zm38.5-4.2l4.2 2.1 1.1-5.2 2.6-1.6 4.6 1.6 0.6-1.6h5.2l1 1.6-2.6 2.6-4.2 1v3.7l2.1 0.5 1.1 3.6 1-1 3.7 1 0.5 4.2-3.7 2.6-0.5 3.7h-8.3l-0.5-3.7 2-6.8-4.6 2.1-1.1 3.1-7.8-1 2.1-8.9-2.6 0.6-0.5-4.2zm-296.4 139.2l8.3 0.5-0.5 13z"/>
		<path id="Path 73" class="s70" d="m845.3 445.8l19.8-4.7 14.1-1v9.4h-3.7l-6.2 6.7-7.8 1.6-1.1 2.1h-9.9l-2.6 4.2h-6.2v-12l3.6-2.1zm-83.8 28.6v-2h4.1l4.7 2 0.5 5.3v3.1h-8.3zm51 12.5l0.6-6.8 4.1-0.5 4.7-5.2h7.3l-0.5 6.8-4.7 2.6-0.5 2.6z"/>
		<path id="Path 74" class="s71" d="m835.4 503.7v-4.7l3.7-5.2 3.6-0.6 3.7-4.1 7.2-2.6 4.7-4.7 4.7-1.6 5.2-5.7 4.7-1.1h3.1l1.1 3.2v3.1l-2.1 2.1-6.2 5.2h-3.2l-7.3 8.3-7.8 1.6-9.9 6.8zm-25 8.3v-10.4h12.5v2.1l-2.1 8.3zm-73.9 41.2l0.5-6.8 2.6-1h8.3v6.2l-2.6 1.1-1.5 4.7z"/>
		<path id="Path 75" class="s72" d="m455.7 320.2l5.2-2.1-4.6 5.7-1.1 4.7-3.6 2.6-1.6-2.6v-3.6zm250.5 139.7l-5.2 0.5v-7.3l6.8 2.6v0.5zm137.5 20.9h5.2l4.2-4.2 2.6-0.5 4.7-3.7 0.5-4.1h12v5.2l-4.7 1-5.2 5.8-4.7 1.5-4.7 4.7-7.3 2.6-3.7 4.2-3.6 0.5-3.6 5.2v4.7h-12.5v-2.1-5.7l3.6-2.1 3.6-5.2 5.3-1.6 2-3.6zm-33.3 20.8v10.5h-6.2v-10.5z"/>
		<path id="Path 76" class="s73" d="m455.2 416.1l0.5-6.8 3.7-1.5 1.5-2.7 0.6 9.4-2.1 3.7zm53.6-0.5l3.1-1.1 1.1-2.1 1.6 1.1v7.8l-4.2 0.5-2.6-0.5zm83.8 12h4.7v6.8h-2.1l-3.6-4.2zm13.5 4.7l2.1-3.7h1.6l2.6 3.2-1.1 3.1-3.1 1-2.1-2.1zm52.6 20.9l5.2-3.1 0.6 3.6-2.1 7.8h-1.6l-1-3.6-2.6-1.6v-2.6zm-505.8 36l3.7-1.1 3.6 3.2-1 3.1h-4.7l-1.6-2.1z"/>
		<path id="Path 77" class="s74" d="m441.1 336.9l3.7-3.7 1.6-4.7h3.6l1.6 2.6-1.1 3.7-2.6 0.5v2.6l-6.8 9.9-3.1-4.7zm4.2 19.8l4.7-9.4 2.1 0.6v3.1l-3.7 6.8h-0.5zm294.8 125.1v-5.8l3.6-3.1 3.7 1.1 4.7-1.1v1.6l-1.6 3.6-2.1 1.1-0.5 3.1 2.1 2.1 1.5-1.1h2.1l0.5 1.6-1 16.7h-8.9l-1-4.2 3.1-8.8v-2.1l-2.1 0.5-0.5-4.2zm95.3 21.9h5.2l9.9-6.8 7.9-1.5v8.3l-6.8 1.1-6.8 4.6-6.8 1.6-0.5 6.8-3.6 0.5-0.5 2.1h-6.3-6.2v-8.3l2-8.4zm-81.2 41.7l1-7.3h9.9l1.6 1.1v9.9l-3.1 0.5-1.6 2.1h-7.8zm100 39.6v-4.2h5.7l3.7 10.4 7.3 9.4v4.2l-4.2-1-2.1-3.2-6.8-4.1-1-3.7-2.6-1.6z"/>
		<path id="Path 78" class="s75" d="m414.6 361.9l5.2-11 15.1-21.3 4.7 4.6v1.1l-8.3 13.5-3.2 7.9-1.5 2.1-4.7 6.2h-3.1l-1.1-2.6zm335.9 116.2l1.6-3.6h9.4l1 8.3-3.1 2.1h-5.2l-0.5-1.5h-2.1l0.5-4.7zm-645.8 69.3l2.1-2.1h7.8l2.1 2.1v6.8l-8.9-1.6z"/>
		<path id="Path 79" class="s76" d="m693.2 468.7l0.5-6.7 4.2-1.1h1.6l1.5 3.7-1 4.1-3.6 2.7zm126.5 53.6l1.1-2h6.2v4.1h-6.2z"/>
		<path id="Path 80" class="s77" d="m879.2 449.5l20.8-2.1 2.1 2.1v2.6l5.2 1.5-4.2 3.2-1-1.1-12.5 1.1-7.3 8.3-9.4 3.1h-12l-0.5-1v-7.3l1.1-2.1 7.8-1.6 6.2-6.7zm-172.9 10.4l1.6-3.7 3.6 1.1 0.5 1h1.1v7.8l-0.5 2.6-5.3-0.5-1.5 1.6h-1.1zm48 25h5.2l3.1-2.1h8.3l1.1 18.8-1.1 12.5h-2.1-10.9l-1.6-10.4-3.1-2.1z"/>
		<path id="Path 81" class="s78" d="m754.2 551.6h7.8l1.5-2.1 3.2-0.5 2 1.6 1.1 6.8 5.2 6.2v8.4l-3.1 1v3.7l-1.6 1-13-11.5-13.6-8.8 1.6-4.7 2.6-1.1zm-105.7 53.7l2.1-1.5h7.3l6.7 8.8v6.8l-2.6 1z"/>
		<path id="Path 82" class="s79" d="m389.6 413l2.1-1.6 3.6 0.5 2.6 4.7 2.1 0.5-1 3.2h-5.3l-4.6-4.2zm306.7 41.2l0.6-1.6h2l2.1 0.5v7.3l5.2-0.5-1.5 9.9-1.1 1.6-1-2.1-2.6-0.5 1-4.2-1.5-3.6h-1.6v-5.3zm21.3 9.9l4.7-2.6 2.6 1.1-0.5 3.6-1.5 2.1-2.6-3.1-2.7 0.5zm30.8-0.5l9.9-0.5 2.1 3.1-1.1 4.2 2.1 2v2.1h-9.4v-1.5l-4.7 1-3.6-1-3.7 3.1v5.7l-1 1.1-1-3.7-2.1-0.5v-3.6l4.1-1.1 2.6-2.6-1-1.6v-4.1zm-55.7 15.1v-4.7l3.6-1.6h1.6l-1.1 5.8-1 5.2-3.6-3.1zm-65.1 5.7l0.5-8.4 2.1-1h1.5l0.5 9.9-1 1.6zm26-5.2l3.7-1.6v12.5l-4.2-3.1zm-144.8 3.1l0.5-0.5 1.6 1v3.7l-2.1 4.7-3.1 1.5v-1l-0.5-7.8zm226.5 41.2v-6.8l2.6-2.6h1.6l-1 6.2-1.1 3.2z"/>
		<path id="Path 83" class="s80" d="m633.3 572.5l2.1-10.4h8.4l1.5 9.9 3.7 5.2 7.3 2.6-0.6 6.2h-3.6l-4.7-3.1h-9.9v-6.2zm-168.7 63.5l3.6-3.1 3.1 1.1 2.6 7.3-6.2-0.6zm-10.4 13.1l2-5.8 4.2-2 1.1-2.7 5.2 4.2 2 2.6-1.5 3.7 0.5 4.7-4.2 1z"/>
		<path id="Path 84" class="s81" d="m681.8 559.4l1.5-4.1 12.5 4.7-4.7 5.7h-2zm-1.1 32.8l5.2-4.1 9.4 5.2 0.5 4.2-2.1 4.1h-5.7zm3.7 19.8l-0.6-3.1 2.1-3.1 4.2 3.1h2.6l-0.5 4.7z"/>
		<path id="Path 85" class="s82" d="m633.9 586.6v-1.6l3.6-2.1h9.9l4.7 3.1h3.6l7.3 8.9 12 15.1 4.2 4.2 5.2 7.3-4.2 6.2-4.2 1.1-6.2-1.1-4.7-4.1-0.5-4.2v-6.8l-6.8-8.8h-7.3l-2.1 1.5zm-173.4 44.3v-3.6l4.2-0.5 3.6 6.2-3.6 3.1z"/>
		<path id="Path 86" class="s83" d="m835.4 553.7l-4.7-1.5-1.5-6.8 8.3 2.1v4.1zm-206.2 2.6l4.1-0.5 0.5 5.7 1.6 0.6-2.1 10.4h-6.2v-5.7l-3.2-5.8 0.6-2.1zm-183.9 46.4l5.2-1 12.5 10.4 2.1 2.1-1.6 5.2-4.1-1-0.5 2.6 5.7 5.7-4.2 0.5v3.7l-3.1 0.5-2.6-1.6-8.9-15.6 1.1-7.8z"/>
		<path id="Path 87" class="s84" d="m458.3 362.9l2.6-1.5 2.6 1-3.1 4.7-3.6-1.6zm248.9 124.6l1.1-4.7h8.8l-2.1 5.8 2.1 0.5 0.5 2.6h-5.2l-2.6 0.5zm-294.8 56.8l0.6-8.3h4.6l1.1 5.2-4.2 3.1z"/>
		<path id="Path 88" class="s85" d="m460.9 342.1l5.2-1.6 1.6-2.1h1.6l2.1 5.2 10.9 8.9 3.6 0.5 15.7 10.4-1.6 1.1v3.6l-7.3 6.3-5.2 2.6-1-1.6-4.2-0.5-2.1-3.6 1.1-2.6 5.2-3.7-1.6-4.2h-2.1l-4.7 6.3-3.6 1h-3.7l-1-4.1-3.1-3.7 5.2-5.7-3.7-0.5 0.6-3.7h-2.7l-5.2 11-2.6 1.5-1-2.1h-3.1l-2.6-4.1 4.1-11zm30.2 258.1l3.2-3.7 3.6-0.5 2.1 1.6 0.5 6.2h-6.8z"/>
		<path id="Path 89" class="s86" d="m643.8 562.1l2.6-4.2h7.8v10.9l8.3 8.4 12.5 18.7 10.9 9.9-2 3.2 0.5 3.1h-4.2l-3.1-3.6-12-15.2-2.1 1.6-7.3-8.9 0.6-6.2-7.3-2.6-3.7-5.2z"/>
		<path id="Path 90" class="s87" d="m425 582.9l16.7 1.1 11.4-1.6 1.1 9.9 10.4 4.7v5.7l1.5 2.1 13.1 6.3 12.5 8.8 0.5 5.2 6.8 2.1-0.6 3.1-3.1 1.6-1 4.7-8.9-1.6h-4.7l-1.5 1.6v6.3l9.9 6.7-3.2 6.3-5.2 4.7-7.8-0.5-9.4-5.3 4.2-1-0.5-4.7 1.6-3.6-2.1-2.6 1-2.1 6.3 0.5-2.6-7.3-3.2-1-3.6-6.3 2.1-1v-2.7l-3.2-3.6 1.6-5.2-2.1-2.1-12.5-10.4-5.2 1-8.8-7.3h-4.2l-7.3-7.3zm254.2 31.3l1-2.1h4.2l7.8 1.6-2.1 11.4-5.7-3.6z"/>
		<path id="Path 91" class="s88" d="m685.4 540.7h12.5l8.4 3.6-20.9-2.1zm-371.9 49l11-0.5 8.8 1.6v3.1l-19.8-2.6zm36 2.6l5.2-0.5h3.1l0.5 4.2-8.8-1.1z"/>
		<path id="Path 92" class="s89" d="m685.9 588.1l-16.6-18.2-1.1-4.2 2.6-1 2.6 1.5 12 13.1 2.6 1v2.6l6.3 2.6-0.5 4.7 1.5 3.1zm-23.4-10.9l3.6-0.5 14.6 15.6 7.3 9.4h5.7l-1 7.3h-2.6l-4.2-3.1-10.9-9.9zm-168.8 42.2v-15.7h6.8l2.1 4.7-1.1 12z"/>
		<path id="Path 93" class="s90" d="m761.5 472.4l-2.1-2.1 1-4.2h1.6l0.5 2.1 2.6 0.5 0.5 3.7zm-42.2 6.2l2.6-0.5-2 8.9-1.6 4.7h-0.5l-0.5-2.6-2.1-0.5 2.1-5.8zm25 8.4l2-0.6v2.1l-3.1 8.9-1.5-4.2h-1.6l0.5-3.6z"/>
		<path id="Path 95" class="s91" d="m654.2 557.9l2.6-0.5 1-3.7 7.3-0.5 2.1-6.8 16.1 8.9-1.5 4.1-5.2-1-0.6 5.2 13.1 8.4-1.1 8.3-2.6-1-12-13.1-2.6-1.5-2.6 1 1.1 4.2 16.6 18.2-5.2 4.2-14.6-15.6-3.6 0.5-8.3-8.4z"/>
		<path id="Path 96" class="s92" d="m676 628.8l4.2-1.1 4.2-6.2 5.7 3.6 0.5 1.6-2.6 5.7z"/>
		<path id="Path 97" class="s93" d="m244.3 542.2l0.5-11.4 4.7 4.1h6.2l2.6 0.6 0.6 3.6-1.6 3.7zm74.5-3.2l4.1-1 8.4 4.2v5.7l-2.1 2.6-8.3-1.6-2.1-3.6zm-134.9 17.7l-0.5-1h2.6l-0.6-1.6 1.6-0.5 1.6 3.1 0.5 1.1zm23.4 5.7l2.1-3.1 4.2 1-0.6 2.1 4.2 1.6-2.1 0.5-1-1.6-2.6 0.5zm90.6 22.5l2.6-0.6 13 5.2v1.6l-18.2-3.6zm35.4 8.8v-3.1h4.2l12 1.6v2.6zm44.8 2.6l1-2.1h4.2l7.3 0.5 3.1 2.6z"/>
		<path id="Path 98" class="s94" d="m103.1 523.5l-1-2.1-1.6 0.5-4.1 5.7 0.5-3.6 4.7-4.7-2.1-12 7.3-4.2v4.2l2.6 2.1 0.5 6.8-0.5 3.1zm530.2 32.3l3.1-3.6 5.7-0.5 1.6-2.6 20.8-5.8 2.6 3.1-2 6.8-7.3 0.5-1.1 3.7-2.6 0.5h-7.8l-2.6 4.2h-8.3l-1.6-0.5z"/>
		<path id="Path 99" class="s1" d="m180.2 448.4h0.5v0.5h-0.5z"/>
		<path id="Path 100" class="s2" d="m508.9 481.8h0.5v0.5h-0.5z"/>
		<path id="Path 101" class="s11" d="m340.6 484.9h0.5v0.5h-0.5z"/>
		<path id="Path 102" class="s32" d="m624.5 490.1h2.1v3.7l-0.6 5.7-3.6 1v-8.3z"/>
		<path id="Path 103" class="s58" d="m443.2 404.6l1.1 13.1-6.3-3.2v-6.2l2.6-0.5z"/>
		<path id="Path 104" class="s73" d="m476 408.8l2.1 0.5v11l-5.2-2.6v-6.8z"/>
	</g>
</svg>