<svg version="1.2" xmlns="http://www.w3.org/2000/svg" viewBox="0 0 1000 1000" width="1000" height="1000">
	<title>Dorosoma_cepedianum</title>
	<style>
		.s0 { fill: #fefefe } 
		.s1 { fill: #d6d1d3 } 
		.s2 { fill: #cfcacd } 
		.s3 { fill: #c9c2c4 } 
		.s4 { fill: #c2bcbc } 
		.s5 { fill: #d9d8d9 } 
		.s6 { fill: #dedcdd } 
		.s7 { fill: #e3e1e1 } 
		.s8 { fill: #cfc4c0 } 
		.s9 { fill: #d4cac7 } 
		.s10 { fill: #c9bdb8 } 
		.s11 { fill: #aba2a0 } 
		.s12 { fill: #d1d4d5 } 
		.s13 { fill: #dad1ce } 
		.s14 { fill: #c5b4ae } 
		.s15 { fill: #c9cdce } 
		.s16 { fill: #c3c6c8 } 
		.s17 { fill: #e9e6e7 } 
		.s18 { fill: #a19895 } 
		.s19 { fill: #b4a19a } 
		.s20 { fill: #beaba4 } 
		.s21 { fill: #b8bfc1 } 
		.s22 { fill: #aa978f } 
		.s23 { fill: #b3b5b8 } 
		.s24 { fill: #e2d9d5 } 
		.s25 { fill: #ece5df } 
		.s26 { fill: #f3eeea } 
		.s27 { fill: #d5bfb4 } 
		.s28 { fill: #584e4d } 
		.s29 { fill: #bdb1b4 } 
		.s30 { fill: #e0cec3 } 
		.s31 { fill: #bbb7b0 } 
		.s32 { fill: #eed8ca } 
		.s33 { fill: #b4aea6 } 
		.s34 { fill: #b5a8ab } 
		.s35 { fill: #f8f4f2 } 
		.s36 { fill: #aeacaf } 
		.s37 { fill: #f3e2d6 } 
		.s38 { fill: #ebcbbb } 
		.s39 { fill: #e3bead } 
		.s40 { fill: #9a908b } 
		.s41 { fill: #958984 } 
		.s42 { fill: #a5a2a7 } 
		.s43 { fill: #8e837e } 
		.s44 { fill: #7f7471 } 
		.s45 { fill: #9a969c } 
		.s46 { fill: #918b8f } 
		.s47 { fill: #897c77 } 
		.s48 { fill: #a28e86 } 
		.s49 { fill: #9c877e } 
		.s50 { fill: #685853 } 
		.s51 { fill: #796c67 } 
		.s52 { fill: #70625d } 
		.s53 { fill: #987f76 } 
		.s54 { fill: #816a61 } 
		.s55 { fill: #887269 } 
		.s56 { fill: #93786f } 
		.s57 { fill: #7b6156 } 
		.s58 { fill: #d1b3a6 } 
		.s59 { fill: #c8a89c } 
		.s60 { fill: #838288 } 
		.s61 { fill: #a5afb3 } 
		.s62 { fill: #b59389 } 
		.s63 { fill: #807c7f } 
		.s64 { fill: #72564c } 
		.s65 { fill: #be9e93 } 
		.s66 { fill: #aa887f } 
		.s67 { fill: #9ca7a9 } 
		.s68 { fill: #939c9f } 
		.s69 { fill: #4e4544 } 
		.s70 { fill: #656165 } 
		.s71 { fill: #74747a } 
		.s72 { fill: #6e6a6e } 
		.s73 { fill: #634c44 } 
		.s74 { fill: #5f585a } 
		.s75 { fill: #8f6961 } 
		.s76 { fill: #888d93 } 
		.s77 { fill: #a37770 } 
		.s78 { fill: #473e3c } 
		.s79 { fill: #513e38 } 
		.s80 { fill: #322b2a } 
		.s81 { fill: #443330 } 
		.s82 { fill: #deb09f } 
		.s83 { fill: #3a3536 } 
		.s84 { fill: #dda294 } 
		.s85 { fill: #2c1b18 } 
		.s86 { fill: #c7978b } 
		.s87 { fill: #b76f6c } 
		.s88 { fill: #8b5654 } 
		.s89 { fill: #bb827a } 
		.s90 { fill: #cf8c82 } 
		.s91 { fill: #6f423e } 
		.s92 { fill: #3f2724 } 
		.s93 { fill: #9e5e5f } 
		.s94 { fill: #231f22 } 
		.s95 { fill: #5f3733 } 
		.s96 { fill: #181011 } 
		.s97 { fill: #0a0405 } 
	</style>
	<g id="Background">
		<path id="Path 1" class="s0" d="m664 568v-4h7l-1 4z"/>
		<path id="Path 2" class="s1" d="m878 384h9l-3 16h-6zm-574 110v-3l4-1 4 2v12h-6zm528 9l-3-7 7 2zm-150-4l18-1v12l-16-2-6-4v-5zm-242 20l8-3 4 1v7l8 4 2 8 13 11h8l4-7h5l4-4 2-18h17l6 6 1 6h10v4l8 6h10l2 12 10 9v11 5l-6 1-4-6h-6l-4-7-16-5-8-7-1-6h-5l-3-1v3l-1 10 8 4 2 5h8l4 3 2 19v2l-16-2-3-4-20 2-5-7-2-14h-6l-3-5-19-6-3-8-7-6v-5l-8-7zm-37 10l-3 5-9-1v-13h9zm245-3l12-4 18 4v16l-1 2-4 1-9 2-7-2-4 3h-5-2zm-375 4l6-7 5 1v8 5l-5 1-6-3zm55 6v-8h6v9zm532 13l1-9 11 8 10 18h-5v-4l-13-13zm-229-3l1-3h6l2 5-3 4h-3zm-61 26v-6h5l2 4-5 2zm-222 18v-3h3v3zm259 10l8-3 1 1-1 11-10 11h-1z"/>
		<path id="Path 3" fill-rule="evenodd" class="s2" d="m874 404l4-4h6v11l-4 7h-5l-1-2zm-9 26l7-4 5 2-4 14-6 8h-3v-12zm-283 82l-2-18 3-1 3 3v5l5 6-1 5zm-162 4l8-13 2 5 2 9 8 2v11l8 7v5l7 6 3 8 19 6 3 5h6l2 14 5 7 20-2 3 4 1 17-9 2-2-9-14 2h-8l-3-7v-3l-10-1-15-1h-2v-5l-18-13-11 2-1 10v7l-8 2h-8l-1-12-10-7 1-12 2-5-4-4v-3l-5 1-3-1-4-12-9 2-3-3v-4l6-3v-12l13-3v18l9 1 3-5 7-3 5 1zm-115 4l-1-16h8l10 7v10l6 7v8l-10 1-1 3h-1l-2-1v-14zm169-8l3-7 9 1h6l6 12-2 18-4 4h-5l-8-7-1-17zm-14 16l-8-4v-7h5zm-126 0l9-2 3 3v9l-12-1zm-44 4l2-2 6 2 3 6-3 1h-3l-5-3zm314 15l27-1 3 6v6l-8 4-4-2-4 3-15-5-9 12h-12v-6l8-13zm-78 21v-8l16 5 4 7h6l4 6-2 4-4 14-6 1-1-6-11-1-2-19zm-208 10v-4h14l6 16v2l-16-2zm45 15l5-3h14l-2 23h-6l-2-7-4 1v5l-10-2-2-10 7-4z"/>
		<path id="Path 4" class="s3" d="m522 317l2-3 7 1-4 8-4-1zm116 185l2-8 8 1 8 4v4l-2 3h-8zm-440 34l4-8h4v2 6zm170 54v-18h8l6 6v12zm149 17l-1-17 16 2 4 7-1 3zm-39-10l3-2 3 7v4h-6zm14 5l14-2 2 9-16 2z"/>
		<path id="Path 5" class="s4" d="m528 428l7-1h3v5h-3l-2 9 13-1 10 4-1 4-8 7 1-8h-4l-2 7-3-2 1-6h-4l-6-4 1-9-3-2zm-110 14l8-2 9 8 1 6h14l2 16 15 10v5l-1 7-6 2-4-12-7-1-10-2-3 11-2 5-6 1-5-1-3-6 2-9h-6l-1-16 1-4 1-9zm182 22l5-3h3l-1 5 4 1 4 5-1 3-4-4-6 1-3-2zm33 38l-8-11-1-17h6v6l8 4 2 10-2 8zm15-7v-11h10l8 6v5l6 5-1 4-11 2-4-3v-4zm-356 29l2-4 7 2-3 3v7l-6-2zm345 28l3-4h6 2v5l-2 2-7 1zm-370 5l1-5h4 4l2 10h-9zm-62 5v-6l5-2h6v12zm671 6l1-2h5l15 22 12 30h-5l-4-4-6-21-14-6-2-3zm-584 8l-2-8h10v6l-1 2zm270 1v-5h8 2v8h-8zm-138 14v-7l7 1v6zm-86 11l13-2 1-9 11 2v3l-7 4 2 10-20-3z"/>
		<path id="Path 6" class="s5" d="m522 325l1-3 4 1-2 4zm-115 119l2-6h3v8 5l-2 1-3-2zm117 0v-2h6l6 4v2h-4l-2-4-2 3h-4zm20 41l2-3 10 5v1l2 22 8 4v6l-1 2h-5l-8-10h-3zm42 11l5-2 1 4 6-2 4 3v5l-6 4-5-1-5-6zm-129 21l3-12 4 6 10 1 4 4 1 17 8 7-4 7h-8l-13-11-2-8zm-156 5l4-2 9 5v14l-13-1-3-6v-7zm208 27l3-2h5l1 6 8 7v8h-8l-2-5-8-4zm-249 0l2-1 6 4-1 5-7-3zm302 23v-11h6l2 5v6z"/>
		<path id="Path 7" class="s6" d="m517 326l5-1 3 2 1 10-3 3-7-3zm355 100l3-8h5v8l-3 2zm-7 28l-2-4h1 3zm-596 64l9-2 1 7-6 7h-3zm296 4l1-2h8l11 13 1 7 4 2v9l-8 13v6h-5l-2-4h-5l-2-5h-6l-10-9-2-12 2-8h8l5-5zm-56 27v-3l3 1z"/>
		<path id="Path 8" class="s7" d="m849 485l-3-3 1-10h9zm-247 14l2-2 2 7h-4zm30 8l1-5h5l8 4v2zm-58 7l8-2h8 5l9 8v27l-14 4v-9l-4-2-1-7-11-13zm-174 6l5-2 3 2 2 6-7 3zm132 10v-8l4-4h7l6 3 3 11-2 8h-10l-8-6zm-318-10l4-1 6 3v8h-10zm26 12v-10h1l5 4v6zm30 4v-6h3v5z"/>
		<path id="Path 9" class="s8" d="m868 407l4-3h2v12l-5-1zm-11 37l3-6h4v12h-1-4zm-239 12l1-2h4l1 3v4 1h-4l-2-2zm-303 29l7-8 9-3 3-13 9 5 5 10 1 6-8 7-11-1-4 2-11-1zm179 9v-6h8l11 14 2 16h-17l-6-12v-5zm-214 7l-2-9h4v6 3zm67 9l3-6 12 1h9v11l7 2v12l-6 3-4-1v-6l-4-5zm249-2l6-4h4 4l5 6-11 10-9-8zm98 20l5-1 3 4-3 6h-5zm-415 10l5-1 1 5-8 3-2-3zm577 12l4-1h4l13 13v4l-1 2h-12l-8-11zm-660 8l5-8h8l1 4-5 2v6zm104 16v-6h2l13 2 3 4v4h-14v-3zm32 0v-2l14 1 2 14v3h-10z"/>
		<path id="Path 10" class="s9" d="m502 488v-7h15 3l3 9 8 1 3-3 1-1 9-2 5 27-6 2v4h-7l-4 4v8h-10l-1-6-6-6-2-16zm-190 4l3-3 11 1 1 3 3 9 8-1 6 9h3l17 11 4 5v6l4 1v4l-26 1v-9l-3-3-9 2h-6l-6-7v-10l-10-7zm366 50v-16l16 2v9zm-416 6v-4h6l4 3v5h-4z"/>
		<path id="Path 11" class="s10" d="m515 322l5-5h2l1 5-1 3-5 1zm356 65l7-3v16l-4 4h-2l-2-8zm-455 49l9-1 1 5-8 2h-2zm-22 7l1-3 6 2v-3l4-1 2 6v6l3 2v10l5 2 1 16-6 1-1 10 3 1v5l4 18 4 1-5 11-5-1-2-6v-5l-7-7v-4l1-9-9-1-2-5h-3l-20-8-2-9-4-24h7v9l7 1 9 6h10zm222 35l4-4h4l1 17 8 11-1 5-4 5-13-2-5-6 2-10 4-6zm-267 4l-1-6h6v6zm171-1l7-2 8 4v4l-1 1-3 3-8-1zm48 5h14l1 7-3 1 2 18-8 2h-8l-8-4-2-22zm160 26l-6-1v-9h5zm-29 15l1-1 3 4-1 1zm-511 9h-4v-5h7l1 5zm-9 14l2-9h7l11 6 2 3-5 8zm37 4l16-1 6 5 1 17-23-9zm163 12l11-4h8l-1 12-5 3v13h-10v-12l-6-6zm-28 6l13-1 4 1v18l-5 3-11-2-1-1v-3h-3l-2-14zm103 35l7-3 6 3v4l-13 1zm20 4v-5h4 6l1 5z"/>
		<path id="Path 12" class="s11" d="m518 316l6-2-2 3h-2zm-78 94l5-1v3l-1 23-4-1v-7l-4-3v-11zm21 6v-4l3 1v2zm-160 8l1-9 4 1 1 2v6zm-22 13l-3-2v-9l8 2v8zm79 1l2-4 10 7v7h-1-7l-4-2zm203 36l4-10 6 2 9 3 2 17h-14l-5-4zm43-2l6-1 4 4 2 3v10l-4 6h-6v-12l-6-7zm-168 18h10l3-9 7 1 4 12v11l-3 12h-5l-4-1-2-12h-11l-1-9zm-24 7l5-2 1-6h2l3 6 5 1v7l-8 13-4-1zm182 73l9-12 15 5 1 7-5 4v5 7h-15l-4-4zm282 18l4-1 14 6 6 21 4 4h5l2 9-3 4-7 1-10-4 1-8-8-4-2-4v-11l-3-4h-5v-8z"/>
		<path id="Path 13" class="s12" d="m412 446l4-4h2l-1 9h-3-2zm-113 130l1-2 4 1v3z"/>
		<path id="Path 14" class="s13" d="m860 438v-8h5l-1 8zm-552 52l2-5h5v4l-3 3zm-120 12l2-5 12-5h2l-2 16v4l-2 1zm94-4l10-1 3 3v6l-3 8h-1-9v-13zm418 12v-12l22 4v9l6 1 1 1 1 5h9l8 2 1 9-4 7-14-1-2-5h-10-8-7l-3-4zm-72 2l4-5 14 1 2 18-2 22h-6l-2-5h-6v-27zm-344 25v-5h6v4l-1 6h-4zm-16 41l1-16h9l3 14zm70 14v-2h10 3l1 1-1 9-13 2zm194 0v-2l11 1 1 6-8 2z"/>
		<path id="Path 15" class="s14" d="m836 411l5-2 3 3-7 4zm-482 65l4-4h8l2 9-4 5-10-4zm250 21l2-3h6l-2 10h-4zm-404 16l2-1h2l2 6v2h-6zm539 5h-9l-1-5 8 1zm-581 12v-4h7l7 10 9 5-2 9-20-11 3-6zm560 6v-6h10l2 5-9 5z"/>
		<path id="Path 16" class="s15" d="m514 433l3-3 1 2 2 7 4 3v2l-4 1v7 6h-3l-6 1-3-7 8-2-2-10zm-65 11l3-6 1 8 3-2 4-1 6-3v5l4-2 4 11 6 2 2 5-2 15 2 22 4 3v5l-9-1 2-11-7-3v-4l-5-2v-5l-15-10-2-16zm112-2v-2h3v2zm-151 10l2-1h2l2 9-1 4-5-2zm208 16l2-6h4l-1 6 3 1 1-3h3l2 4v4h-2-6-4l-2-3zm-377 54l2-6 10 2 2 2-2 6h-7zm49 56l2-2h7l5 2h14l4 12 16 2v10 5l-40-9v-6l-5-4z"/>
		<path id="Path 17" class="s16" d="m456 435l4-1v9l-4 1zm64 17h3l1-5h4l4 1h4l-1 4v11l-6-2-9-3zm49-1l2-4 3 1v3l-2 5-1 10-6-2-4 10h-9v-7-9l2-3 2 1 4 2 2-5 2 1-1 6h3zm-83 55v-5l-4-3-2-22 10 1 4 11v6h-5v6l3 1v5zm-187-6l3-6h2l2 10h-2-5zm-31 78l13-2 9 2 3 10 5 4v6l-36-13zm112 35l2-23h10l7 12v6 5zm-12-1v-5l4-1 2 7z"/>
		<path id="Path 18" class="s17" d="m282 492l10 1v1 3l-10 1zm390 8l6-1v5l6 4 16 2v16l-1 1-5 1-16-2-18-4v-16l11-2zm151 12l1-2h6l11 13-8 1v-4zm-280 6v-4l6-2h3l8 10h5v5l-5 5h-8l-3-11zm-297 14v-6h7l6 6v8l3 2v2l-5 3-9-3zm396 37h7l6-6 3 1h6v4l-31 19-3-2v-3l7-5 4-8z"/>
		<path id="Path 19" class="s18" d="m503 324l6-4 2 3-3 3h-4zm-128 60l5-1-1 1zm47 6l4-1 16 2 3 3 1 12-6 1h-4l-2-4-6 1-6-7zm-52 24v-6h8v4l-3 1v4zm-18 0h-3v-4h3zm-42 10v-6l11 1 1 3-3 7zm-53 0l2-1 9 2 8 1v9l3 2 1 12-2 3h-7l-4-7-9-6zm289 6l4-1 1 3 3-1 3 1 4 8v2 1l-5 1-10-4v-7zm-86 4v-2h8l2 11-4 2v-5l-6 3zm339 19v-5h2l3 4v2zm-383 7l-2-9h3zm12 36l6-1 1 9-5 4-2-5zm-154 6l6-1h2v13l-4 2-9 2-6-3v-2l1-7 10 1zm-72 10v-4h3l-1 4zm96 27l3-1 13 1 2 1-2 6-8-1h-6l-2-3zm77 1l9-2 4 12h-6l-8-2z"/>
		<path id="Path 20" class="s19" d="m856 395l15-8-1 9h-14zm-31 24l10-8h1l1 5-1 6-4 2h-4zm-525 9l1-4h6 3l9 5 6 15-2 3h-7l-9-6zm218-1l5-2 3 2 2 1v3l-6 1h-4l-1-2zm9 47l2-13 6 2 3 5h6l2 10v4l-2 3-9 2v-4l-8-4zm-163 12l4-5 20 8 2 14 6 2v6l-5 4-13 3-7-2v-11l1-8-8-3zm289 62l4-3 7 2v5 4h-4l-5-1-2-3zm-375 14l-2-10h3l13 12h8 2v4h-2-10l-7-6zm552 28l7-1 3-5-8-7 2-6-2-8h4l3 1 5 12 10 1 3 12 10 13 5 1v7l-10 3zm-422 10v-7h6l-3 7z"/>
		<path id="Path 21" class="s20" d="m851 398l2-1 3 1v6l-6 7-2-1zm-50 50l7-7 2 6v5h-6zm-531 8l1-4h7l2 8-7 1zm148 33l-2-9h6l-2 9zm-91 4l3-1v-4l11 1v5l-3 7-8 1zm35 12l2-11 8 3-1 8zm228 7l1-5 5 1-1 4zm247 28l3-3 16 13v7l8 11v8h-10l-4-5-2-15zm35 63l2-6h5l3 4v11h-2l-8-2z"/>
		<path id="Path 22" class="s21" d="m476 408v-8h4l2 1 4 2v4l-6 9v-7zm59 19l3-13h2l1 6v3h-3l1 4h-1zm15-4l5-3 1 1-2 10-3 1-1-3zm-57 2l3-1 12 4 6-4h1v3l-2 5-2 6 3 2 2 10-8 2-8-2 1-6-3-2-2 4-5-8v-8zm82 11l7-2 2 3 2 3-1 8h4l1-7 3-2 1 2-1 9 3 1 5 6-1 3h-3l1-5-4 3-11-1-1-5-6 2-2-3v-3-2l1-8zm-57 38l-1-16h3l9 3-2 13zm-36-13l14-1 2 17 4 4v7h-8l-4-11-10-1zm-187 45l4-2h5l1 16-4 2-7-2-2-6zm97 84v-13l5-3 10 7 1 12v7l-4 2h-5z"/>
		<path id="Path 23" class="s22" d="m499 326l4-2 1 2-4 1zm-94 94l10-1 3 12 5 2 2 1v1l-9 1v-3l-11-8zm409 8l11-9 3 5v4l-2 4h-9zm-454-2l6-2 6 3 3 6v4l-5 4-10-7zm178 6v-5h1 3l4 2v1 3zm249 18l9-7 3 5v5l-4 3-1-4zm-507-1l8-2v4l-2 14-6-4v-1l-2-8zm7 16l4-3h3v2l-2 4-5 1zm54 24l8-7h5l10 4v8l-2 11-12-1v-5l-9-5zm55 16l-6-2-2-14h3l2 5 9 1-1 9zm230 57l4-2v4l-2 1z"/>
		<path id="Path 24" class="s23" d="m286 410v-3l6 3h1l1 12h-5l-4-4zm229 2l5-2v4l-5 10h-1l-2-2zm26 11v-3h5 2v3l-2 6-4-2zm20 20v-1h3l4 2 3 3-2 4-5 3-2-1v-3zm117 33l3-2 4 2 3-7 2 8v5l-2 2h-2l-1-3-3 1h-3l-1-2zm23-6h9l3 4-7 3-3-1h-2zm-184 11l1-7h9v5l-7 2zm-327 3l8-1h3l1 9-12 5-2 5h-2v-7l-3-10zm276 8l1-7 5 2v4zm-174 5v-3h3l1 6h-1zm-37 14l1-3 2 4 5 1v2l-8 5-2-2 3-2zm26 65l-3-14h5l7 6 2 8-2 2zm191 23l5-2h1v9h-4z"/>
		<path id="Path 25" class="s24" d="m514 338l2-1 7 3-3 12h-6zm310 172l-6-4v-7l4-3h6 1l3 7-2 7zm-178-4h8l2-3 4 3v16l-12 4-2-18zm-42 14l11-10 13 2 4 4v27l-1 3-27 1zm-380 2l11-1 5 1v10h-10l-6-2zm609 2l8-1 17 11 3 6-1 9-4 1-16-13-8-9zm-633 20l-2-8h8v4l-2 4zm32 9l3-9h5 8l9 3 3 2v5l7 3 2 5-1 16-6 7-19-6-4-4-1-17zm385 34l13-2 3 2-11 11h-6l-1-1z"/>
		<path id="Path 26" class="s25" d="m566 520v-6h8v6zm-360 16v-6h8 10l6 2v6l-24 2z"/>
		<path id="Path 27" class="s26" d="m512 354l2-2h6v16h-8zm-326 150v-2h2l12 11v7l2 8-4 8h-6l-1-5h-7v-7l4-2v-7l-4-4zm69 16l8-5 6 3 1 12v6l-2 3-6 3-3-2v-8l-6-6zm-15 24v-12h6l2 12zm-34-4l24-2 5 6-3 9-16 1h-6l-1-4h-8l-2-3 1-3h4z"/>
		<path id="Path 28" class="s27" d="m812 456l8-4h4l1 7-5 5v6h-8zm-582 20l7-11 8 3 3 7-4 4 3 11-10 2zm-12 43v-15h3 3v4l6 3 1 5 4 2v3l-11 1zm592-2v-6l7 1 1 8h-6zm-604 3v-2l8 2v10h-8v-2zm624 20l-4-12h6l8 9-3 3zm-179 17l2-2h2l5 1-2 8-3-1zm-21 7l7-1v4l4 2-4 8-7 5-4-1 4-6-7-2-1-3 6-5zm234 12v-8h12l2 16-2 4-2 1z"/>
		<path id="Path 29" class="s28" d="m395 383l9-1-1 4-2 3-5-3zm-97 15l16-4v2l-2 3-5-1-1 5-6-1zm-27 10l11-4v4l-9 2zm219 16v-4h5l1 4-3 1zm103 14l-3-1-1-6h1 3 1zm-19 8l-2-8h3zm-413 10l28-12v2l-1 4-11 5-4 3-5 2h-7zm474-8v-4h3l-2 4zm-440 12l5-5 6 1v9h-3l-1 5h-6zm515 5l1-6 7 2-3 2zm64-1l2-3h3l2 6v1h-7zm-48 4v-2h3l1 3 8 1-1 5-7-1h-4zm-506 14l4-1 10 11v12h-7l-2-3 2-6-5-2-2-3z"/>
		<path id="Path 30" class="s29" d="m636 462l2-4h4l2 1-2 4-3 2 1 5-1 4h-7v-4zm-240 43l5-1v4l7 7v5l-3-2-5 2h-9v-5l5-4zm34 3l5-4h11l2 12-8 3-8-2zm-146 24v-8h7 1v6l-2 2zm364 21v-5h5v4l-1 1zm-224 31l1-10 11-2 18 13v5l-6 1-14 1-3-1v-6zm42 16l6-1 2 7v5h-7v-4l-6-3v-2zm18 6v-4h8v9h-7zm-42 0l8-1 4 2v5h-16l-3-4zm149 24l4-11 9 1h1v5l-7 7z"/>
		<path id="Path 31" class="s30" d="m825 450l1-2 1 1zm-14 42h-5l-6-8h6l6 6zm11 4v-6l6 2v4zm-39 4l3-3 10 1-5 10h-3l-5-3 4-4zm-578 8l13-4v15l-4 1-8-2-2-6zm-26 12l3-9h2l4 4v7l-4 2zm639 0l-1-8h6l10 8v4l-1 4h-6l-1-6zm-630 21v-5h4 6l2 8-1 3z"/>
		<path id="Path 32" class="s31" d="m307 424v-6h3v6zm175 4v-5l8 1 3 1-2 5-4 2h-3zm-57 7v-1h15l4 1h2v8l3 1 1 10h-14l-1-6-9-8zm-146 2l5-1 4 11-8 2zm69 2l10-1v8l4 2 4 24h-8v-6l-9-6zm208 5l5-1 1 7-4 1-2 5-2-1 1-7zm-180 14l-7-1v-9h1l6 2zm234-4l8 2v4l-3 7 3 1v3l-3 1-4-5 2-8-3-1zm-64 13v-10l6 1v9zm-268 49l4-2h9v10h-7l-5-1z"/>
		<path id="Path 33" class="s32" d="m466 380h-3l1-4h4zm1 0l8-3-1 5 4 3-4 4-5-1 1-3-4 2zm360 69l13-7 17 2 2 6h4l2 4-5 15-4 3h-9l-4-9-9 3 2 15 9 9-9 8-7-2h-1v-4l-6-2-2-20v-6l5-5-1-7 1-2zm-121 89l4-2h8l3 4-7 7-8 1zm-29 23l2-9h5l2 6-2 3z"/>
		<path id="Path 34" class="s33" d="m432 414l4-1v11l-4-1zm32 9l6-2 11 1 1 1v5l-2 6 4-2h3v5l4 1 5 8v4 10l-14 1-2-5-6-2-4-11-2-11 1-6h-5zm-180 5v-5l5-1h5l6 6 7 13 9 6h7l2-3-6-15 3-7 5 3 5-2 4 8 6 1 2 7h4l1 21 9 6v6l-4 4h-6l-5-10-9-5-3 13-9 3-7 8h-5l-1-11h-4l-1-10-6-3v-5h-3l1 5-2 1h-3v-8l-3-3v-4l-4-11zm86 13l5-4v-4h9l10 10 1 21h-10l-9-6v-8l-6-2zm276 18h3l1-4h3v5l7-2v4l-2 16h-9l-1 6v11l-8-1-2-10-8-4v-6h2 7l1-4 3-2-1-5 2-4zm-94 19v-4h9l2 8 5 4-12 2v-1zm-214 23l3-7 9 5v5l-3 6h-3zm483 82l4-1 3 7zm55 5l2-4 2 3z"/>
		<path id="Path 35" class="s34" d="m546 482v-4h6l4 9zm182 11l4-1 5 2 10 4 3 6h8l4 14-2 8 6 3 2 5v9l-4 2-20-9 4-7-1-9-8-2-2-4-8-1-1-1-1-10zm-493 25l3-4h5v2l-2 6h-1l-5-1zm321 60l6-1 2 3h8l1 8-5 4-8-2-1-5-5-3zm-157 30l5-1 3 3v2l-8 1z"/>
		<path id="Path 36" class="s35" d="m509 375l3-7h8l2 33-5-1-7-6v-6zm-279 163v-6h10v12h-5z"/>
		<path id="Path 37" class="s36" d="m631 444l2-1 2 1v4l-4 8 4 1 2-4 1 5-2 4-6 4h-3l1-4-4-1v-4zm-135 16v-10h4l8 2 3 7 6-1 1 16-1 7h-15l-4-4zm87-3l11 1v3l3-1h3v4l1 6-1 5 6 7v12l-2 3-2 2-4-3-6 2-1-4-5 2-3-3-1-7-2-17zm77 5l4-1 5 5v7h6l3 3v4l-3 1v4l4-3h3v5 12h-4l-6 1-6-5v-5l-8-6v-6zm-116 6l2-1h6v7 4h-6zm214 36l3-14 12 4v4l-2 8 2 1v10l-11 1zm-554-12h10v3h6l1 9h-3l-13 4h-3zm58 50l6-3 2 3-2 2h-6zm372 16v-6h3l2 4-1 2zm-62 14l5-2h5 4v8l-14 2z"/>
		<path id="Path 38" class="s37" d="m507 388v-4l-5-1 4-8h3l1 13zm338 102l-9-9-2-15 9-3 4 9-1 10 3 3zm-674 30h8l5 4v7 5h4v5h-7l-9-5-7-10zm513 32l5-6h3l5 4-4 7-7 1z"/>
		<path id="Path 39" class="s38" d="m502 360l6-6h4v14l-3 7h-3zm4 36l1-8h3v6l7 6h-4zm338 29l6-5 10 3v7 8l-3 6-17-2zm-152 117l5 1v-3l9-2v10l-9 2-5-4zm-55 21l1-1h3l1 7h-1l-4-2z"/>
		<path id="Path 40" class="s39" d="m511 323l4-1 2 4-1 11-2 1-6-5v-2l4-1-3-2-1-2zm339 88l6-7 12 3 1 8 5 1 1 2-3 8-7 4h-5v-7l-10-3zm-18 13l4-2h6l2 3-4 17-13 7-1-1 1-14 7-2-2-4zm-25 48l5-2h8l2 20h-10l-6-6-1-7zm-636 28l7-3 2 2v11l-8 7h-6l-8-2-10-15 1-2 7 1 1 9 11 6 5-4zm446 86l9-5 4 1v3l-13 2zm-18 16h3l-1-4h4l2 2-3 20-9-1-4-2v-4l-1-3h6l-2-5h5z"/>
		<path id="Path 41" class="s40" d="m411 387l2-3 4 2 5 4v7l6 7-2 10h6v9l4 1 4 3v7h-15l-2-1-6-32-6-2zm-81 15l6-2 13 4v6 4h3l2 8 6 4v8l-2 4-10 1h-4l-2-7-6-1-4-8-2-15zm115 10l4-2h7l5 2v4l3 7v3h-6l2 6v2l-4 1h-10-2zm-200 13l4 1 2-4 3 2h3l1 15 9 6 4 7-1 4-12-1-3-2-1-5h-8l-8-5-1-7v-4l6-2zm560 11l9-8 3 4-9 8zm-248-4l4-2 3 2 2 1v4l-2 3h-3zm-35 0l6-1 3 2-1 9h-6l-4-3zm6 15l2-3 2 4zm-326 23l1-5h3l6 3-9 2zm210 27v-5l-3-1 1-10 6-1 2 9-1 6zm-66 41l26-1 3 3-1 8-14-1-14-1z"/>
		<path id="Path 42" class="s41" d="m601 435l1-2 4 5 6-2v2l2 6 5 5v5l-1 2-8-2-3-4-6 1v-12zm-372 1h8l1 7-3 3h-3l-2-1zm220 8l-3-1v-8h10v9l-3 2-1-8zm-225 32h6l7 16h-3l-10-11zm102 14l4-2v4l-3 1zm166 11l-3-1v-6h5zm-222 35l3-1 6 3-4 4h-5l-2-3z"/>
		<path id="Path 43" class="s42" d="m401 389l2-3 8 1v12l-8-1zm-75 7l10-1v5l-6 2zm240 37l8-1 1 4v2h-3l2 8v2l-3-1-3-3-2-7zm-31 30v-11h4l3 2 4 3v10l-2 1h-6zm195 11l7 1 1-5h2l3 6 11-1 2 6 4 2 1 7-3 14h-8l-3-6-10-4-3-5-1-5 1-3-4-1zm-40 3l11-1h2v3l-5 3h-8zm-42 7l1-6h9v6zm34 3l4-3h2l10 5 2 9-18 1zm-216 5l6-1 7 3-2 11-3 7-10-1-4-6v-11zm307 6v-4h3v4zm-484 44l1-6 5 3v3zm-32 5l5-3v4l-2 1zm329 31v-8h8l1 12 4 4-1 6h-4l-4-5v-5zm-36 18l4-14 5 3 1 5v7zm-100 8l8-2h3v2l-7 3-4-2z"/>
		<path id="Path 44" class="s43" d="m483 336l16-10 1 1-1 6-9 7v6h-3l-4-5zm4 96l4-2v8l-4-1zm150 19l5-1v8h-4l-1-5zm137 8l5-3v5h-3zm-527 31l-3-11 4-4 8 3 5 8-9 4zm189 0l3-11 10 2-3 9zm-216 5l2-2 5 2-2 6 2 3h-3-3z"/>
		<path id="Path 45" class="s44" d="m484 432l-4 2 2-6z"/>
		<path id="Path 46" class="s45" d="m321 397l5-1 4 6v6l-8-2zm153 19l2-8 4 1v7 1zm102 38l6-2 1 5-3 12-9-3 1-10zm186 16l12-2 1 6-3 12 4 4v4h-3l-12-4-1-7zm-56 7l7-3 4 9 2 7h6l3 3-1 9h-5l-22-4-2-9v-7l5-3zm-463 37l5-4 7 1 1 5-3 2-10-2zm519 4l11-1 4 6-1 5 1 4-6 2h-3l-2-5-6-3zm-494 26l2-2h5l2 3 2 7h-3-4v-5zm304 36l14-2 4 4v5h-4l-13 1zm-12 17v-7l8 2-1 5-6 2z"/>
		<path id="Path 47" class="s46" d="m306 403l1-5 5 1 2-3 1 3 6-2 1 9 8 2 2 15-5 2-5-3-1-3-11-1h-3l-1-2v-6zm-33 7l9-2 4 2-1 8 4 4-5 1v5l-8-2-8-1-2-3 2-6 1-3 4 1zm240 22l2-5h3l-1 3-3 3zm7 20v-7l4-1v3l-1 5zm22 2l2-7h4l-1 8 8-7-1 7-2 3-6-1zm14 2l2-5 4-1v3l-2 5zm170 29l3-1h4l1 5-2 3-4 1-3-3zm54 38l2-10 6 1v6l-2 5h-3z"/>
		<path id="Path 48" class="s47" d="m462 351l13-9 3 2v7l-3 5-8-2zm-76 37l3-3 7 1 5 3 2 9 8 1 6 2 6 32-5-2-3-12-10 1-16-2-4-5-7-1v-4l5-3h10v-4l-6-2v-4zm-84 27v-5h4v6zm494 28l9-7 3 4v1l-7 7h-2zm-232-3l2-3 2 7-4-2zm215 16l8-6 7 2 1 4-1 7-6 4h-7l-2-6z"/>
		<path id="Path 49" class="s48" d="m383 420l6-2 16 2v5l11 8v3 6l-4 4v-8h-3l-2 6-2-6-4 1v3l-6-2-1 3-10-10zm381 125l4-2v-9h3l26 20 7 6 15 9 7 8-1 5-4 1zm-447-5l1-3 10-1 6 1 12 1v8h-8-16-4zm313 20l4-2h4v4l-1 1-7 1z"/>
		<path id="Path 50" class="s49" d="m509 320l9-4 2 1-5 5-4 1zm-31 24l5-3 4 5-9 5zm-112 72l4-2 5 3 8 3 1 13h-9l-3-6-6-3zm180 24l-13 1 2-9h3l8 1zm-338 16l7-5h2l-1 5zm48 12l2-2h3v4l-5 2zm359 4l3-1 2 3-4 4-2-3zm203 80l2-2 5 2 7 11 2 8-2 6 8 7-3 5-7 1-2-1-3-7 1-5-7-8zm-172 3l2-2h4l1 2-2 2h-4zm-214 57v-4h3l3 4z"/>
		<path id="Path 51" class="s50" d="m426 378l36-27 5 3-3 3-14 14-8 6v4h-14zm-62 12l3-1h1l-2 6zm203 31l-2-4 5 2-1 1zm-378 23l25-10v4l-16 7-9 1zm-50 24l22-12v4l-4 3 3 3v14l-7 7h-2l-2-8zm35-8l3-2h5v6h-4l-2 5-4-1v-4zm82 12l5-2h11l4 17-7 3h-4l-4-4-5-8zm66 86v-12h16l1 8-11 8zm475-4l5-3 5 2-3 7zm-363 38l14-1v5l-1 1-17 1z"/>
		<path id="Path 52" class="s51" d="m475 342l8-6v5l-5 3zm-19 68l9-4-1 7-3-1zm14 7l4-1 6 1 1 5-11-1zm38 11v-6h4l2 2zm-44-2h5l-1 6h-8l-2-6zm56 13l-2-7h4zm76 12l-3-1 1-9 4 1zm-60-3v-2h4l-1 6h-4zm72 13l2-3 3 1-2 8-4-1zm162 0l4-2 2 2-2 3zm-152 7l-3-1 3-7 2 2zm6-6v-1l4 1-1 4-1 3-3-1zm55 20l-4 3v-4l3-1zm3 0l3-1 1 3-4 3zm50 10l2-3 3 5zm-502 19l-6-3v-4h3 7v4zm226 79l15 1v2l-5 2-8 1h-2z"/>
		<path id="Path 53" class="s52" d="m440 407l6-1h3v4l-4 2v-3l-5 1zm106 22l2-6h2v6l-4 1zm-300 19h8l1 5-5 7-4-4zm400 11l2-7 2 3-1 4zm-52-1l4-3-1 5-3 1zm187 10v-1h7l6 1v4l-2 14-5 5-4-2 2-5-3-2v-7l2-4zm-598 28l3-1v7 2l-3-5zm117 54v-5h6v5zm39 4l-1-8h8l14 1-3 5zm109 37l6-1h2v6h-8z"/>
		<path id="Path 54" class="s53" d="m835 411l16-13-3 12-4 2-3-3-5 2zm-483-1v-3h3l7 2 4 7v8l-6 2-6-4-2-8zm23 7v-4l3-1 7 1 4 5-6 2zm225 43l1-3 4 1v3l-5 3zm-386 10l2-3h6l2 9v5l-4 1-6 1-4-9zm-76 26v-7l11 2 2 1-2 6-1 2h-3l-2-4zm157 46v-3h3v3zm323 21l4-3 4 2 2 3-6 5h-3zm-202 30l8-2h7l3 1-4 6h-4z"/>
		<path id="Path 55" class="s54" d="m442 381v-4l8-6 2 2-5 6 3 5-6-1zm-14 23l6-1 2 4h4v3l-4 3-4 1h-6zm212 66l-1-5 3-2 1 5zm-363 75l8-3h4 6 3l2 3v5 6 8h-8l-13-12z"/>
		<path id="Path 56" class="s55" d="m513 401v-1h4l5 1 3 2v5l-5 2-5 2-2-4zm-164 3l1-2 2 5v3h-3zm-55 18l-1-12 7 2 2-2v5l-1 9-1 4zm220 18l-3-2 2-6 1 1zm-330 25l3-7h1l7 2 1 10 1 6h5l1 6h-2l-3 1-8 1zm446 1l6-4-4 8zm-400 45l4-3 4 2v4l-3 4-4-2zm84 35l2-6h1l1 6zm493 7l6-3 5 2 1 17-15-9zm74 64l3-1 8 4-1 8-12-5z"/>
		<path id="Path 57" class="s56" d="m166 517h6l8-7 2 1-3 9h-8l1-2h-6zm225 34l5-1v3l-5 1zm261 2l1-1 2 3h-2zm-13 3l7-1 1 2-6 5h-3v-4zm-66 32l13-1-2 20-17-10 1-5zm289 25l10-3 8 2 1 5-2 6z"/>
		<path id="Path 58" class="s57" d="m590 441l-1 7h-4l1-8zm-358 12l4-1 10 4 4 4 2 2v4l4 2v4 6l-8-3-3-7-8-3-7 11h-6l-2-9 4-5 4-2zm26 2l12 1 3 5-1 9h-11v-4h-3l-1-4zm-101 63l1-3 8 2v1l-5 2z"/>
		<path id="Path 59" class="s58" d="m844 412l4-2 2 1v9l-6 5-2-3h-6l1-6zm-18 20l2-4h4l2 4-7 2zm-553 29l7-1v1l2 17 6 3 4 9v3l-10-1h-4l-2-5-4-17zm525 23l1-7h6l1 7h-6zm13 8l1-2h10v6l-4 3v7l6 4-1 2h-6l-7-1zm-29 18l6-2h3l1 6h-4l-6-1zm-628 13v-5h3l4 2h10l-6 6h-7zm682 40l-6-23h7l11 16 2 15 4 5v1l-10-1-5-12zm-195-1l6-5h4l4 6-6 6h-7zm-339 2l6-2 16 6v6h-6l-3-4-13-2z"/>
		<path id="Path 60" class="s59" d="m856 398v-2h14l2 8-4 3-12-3zm-28 30v-4h4v4zm-18 24v-5h7l3 5-8 4zm-15 34l3-2h2l6 8h5l-1 19v6l-4 1v5l-4 2-10-3 2-4-2-4-1-6 5-10zm-646 12l2-6h3l7 2v2l-5 3zm31 12v-11h3l3 5-2 7h-2zm22 18l-2-8h6v8zm610-4v-4h6l7 2 1 6 4 12 6 23h-4l-7-11-5-2-2-18zm-488 50v-6h4l4 4v2zm530 3v-1h10l10 13v8l-2 6-5-1-10-13z"/>
		<path id="Path 61" class="s60" d="m364 385l4-1-1 5-3 1zm210 40l2-3 1 5 6-2-1 9-7 2-1-4zm45 13v-3h2l1 4zm-3 0h3v3h-2zm7 4l1-4 5-1-2 5zm-127 4l2-4 3 2-1 6h-4zm153 4l6-4 2 5h3l-1-3 2-1 3 6v8l-4 1v-4l-7 2v-5h-3l-2-3zm-85 4l5-3-3 9h-3zm123 4l2-2 4 3 2-3 5 6 1 8v6l-11 1-2-8zm-486 25v-1h2 6l2 3 3 6v1h-10-2zm51 7l9-4 4 4v5l-1 3-8-3zm40 0l5-3 5 7-3 6h-3l-1-6h-3v-1zm488 0l3-1 4 2-1 6-3 3-3-2zm-489 34v-10h1l2 6-2 4zm485 4l1-5h3l3 2z"/>
		<path id="Path 62" class="s61" d="m464 396l2-1 8 1 2 4v8l-2 8-4 1-6-2v-2l1-7zm130 35l4 5v3h3v12l6-1 3 4v4l-2 3h-3v-3l-4-1-5-6 2-9-4-1-1-2v-1zm44 13l2-1 2 6v1l-5 1-1-3z"/>
		<path id="Path 63" class="s62" d="m466 387l4-2-1 3h-3zm59 21v-5l7 6h-4-2zm279 46v-2h6l2 4v14l-5 2-4-5zm-17 37l5-5h3l1 12-10-1zm15 34l4-2 6 1 6 8 2 18-2 2-5-2-2-9-10-11zm-92 11v-6h8v6zm-319 18l5-1 4 4-2 5h-8v-4zm188 66l12-7v4l4 2-4 11-13-7z"/>
		<path id="Path 64" class="s63" d="m417 386l5-2 3 2 1 3-4 1zm-34 19v-4l4-2 6 2v4zm99-4l9 2-5 4v-4zm-200 3l1-1 3 4v3l-4-2zm355 49l-2 4-4-1 4-8h1l1 3zm111 12l3-1-1 1zm-148 10l1-5 3 2zm154 0l-11 1-3-6h4l7 1 3 1zm-29 15h-6l-2-7 9 2zm-456 0l7-3 2 5 2 9-6 1-3-4z"/>
		<path id="Path 65" class="s64" d="m223 444l4-8h2l1 9h-4zm-41 20v-6h5l-3 7zm124 86v-5l8 1h4 4v12h-14l-2-2zm33 4l18-2 3-5 14 1 8 2v8l-5 4-13 2-9 1-4 7-5 1-14-1-4-4v-6z"/>
		<path id="Path 66" class="s65" d="m450 384l-3-5 5-6h10l2 3-1 4h3 1l-1 7v1zm403 13l3-2v1 2zm-45 43l9-8h9l1 2-1 14-1 2-1 2h-4l-3-5h-7l-2-6zm-576 11v-5h3l1 6-4 1zm-78 79l-2-1 2-6 4 3v4zm210 34l13-2 2 4-3 6h-8l-4-1zm43 46l6-2h6l1 4h-13zm474 7l-1-5h2l2 4z"/>
		<path id="Path 67" class="s66" d="m450 371l14-14 2 9-4 7h-10zm-215 75l3-3 8 5v8l-10-4zm-59 23l2-5h4l2 1 6 19-7 1-9-9zm-51 43l5-5 9 5-3 17-11-6 5-3zm663 8v-6h4l2 4-2 4h-1zm-634 17v-7h4l4 3-3 6zm223 25l5-4h8v4l-11 4zm-26 10l4-7 9-1v7zm193 25l6-1 10 1 1 2-2 4 2 2-3 6-11-9h-12l1-3zm-145 11v-6h5v5z"/>
		<path id="Path 68" class="s67" d="m382 388l2-1 2 1 1 7-5-2zm-32 14l1-8 4 6v7h-3zm-50 0l6 1v7h-4l-2 2-7-2h-1l2-6 4 3zm221 12l5-5h2l5 6v7l-6 1-4-2zm25 6l-1-5 3 1 1 3-1 1zm-287 1l2-2 5 3 2 3-9-2zm383 28l3-1h3l1 2-1 2-2 7h-2l-2-1v-8z"/>
		<path id="Path 69" class="s68" d="m442 391l2-3 14 4 6 4 1 10-9 4h-7v-4h-3l-1-12zm-76 4l2-6h2v5l12-1 5 2v4l-4 2v4l-5 3h-8zm120 12l5-4 6 2 2 5h9l5-2 2 4-3 10h-4v6l-12-4-1-4h-5v4l-8-1-1-1-1-5v-1zm98 30l2-7 3 1 1 6 3 1v1l-3 2-4-1zm30 7l3-3h2l3 4 1 9h-4v-5zm50 17v-8h2l3 1 3 1 4 9-1 9h-6v-7zm-466 22l3-1v1zm578 11v-4h4v8h-4zm-3 13l4-1 5 4v3l-2 10h-3l-4-6z"/>
		<path id="Path 70" class="s69" d="m367 389l1-5h6v2l-4 3h-2zm-124 32l11-6v5 4l-3-2-2 4-4-1zm340 4v-3l10 4-1 1-2 4h-1l-3-1-2 7-2-3zm19 8v-5l13 4-3 4-6 2zm19 2l2-1 6 2v1l-5 1-1 4-1 3-3-4v-3l3 1zm130 29l19-3 4 3v4l-12 2-5-1-3 3-3-1-1-6zm-25 2l-1-4 7 2-3 2zm-598 14l11-12 10 11 2 8-2 4-11-2zm75-10l9-2 2 2-4 4-7-1z"/>
		<path id="Path 71" class="s70" d="m539 427l-1-4h3l1 4zm80 8v-2l4 1-2 1zm-21 1l3-1v4h-3zm16 8l-2-6h4l1 3zm88 18l4 1 1-5 4 1-1 6v5h-9l-1-8zm-446 46v-13l8 3v8l-1 7-5-1zm520 20l7-3h3l3 3 5 10 8 6v7l-5 3-26-20 6-2z"/>
		<path id="Path 72" class="s71" d="m370 389l4-3 3 2 2-2 3 2v5l-12 1zm157 34l6-1v-7l-5-6h4l4 1 2 4-3 13-7 1-2-1zm22-4l3 1 2-4 1 2v2l-5 3h-2v-3zm-295 5v-4l5 1v2l-2 1zm368 21l1-3h4 3l1 2-7 13-1-3zm132 27l3-3 5 1-2 13-4-2-2-6zm-66 12l2-2h8v7zm-474 7l6-1 2 3-2 2h-6v-3zm559 16l-2-1 2-8h3 4l3 2 4 1-4 4 5 3-6 2-5-4zm-302 86v-2l10 1v3l-3 2h-1l-1-4z"/>
		<path id="Path 73" class="s72" d="m540 414v-3l12 3-4 2-3-1 1 5h-5zm-25 10l5-10h1l2 7 4 2-1 4-3-2-5 2h-3zm-254-5l5-4 2 1-2 6zm200-3l3-1 6 2v4l-6 2zm205 37l1-4 2 5zm-94 3l2-5 2 3zm203 18l-1-6h7l3 3-2 4zm-538 18l10-2h5l4 5v13l-1 3-7-1-5 4h-5v-4l-4-2v-4-12zm27 6l1-3 6 3 3 4v5l-10-1z"/>
		<path id="Path 74" class="s73" d="m224 430l19-9 2 4-2 5-6 2v4h-8-2zm-9 21l1-7h7l3 1v5l-9 1zm41 17l-4-2v-4h5l1 4zm532-1l6-4v5zm-667 27l7-14 10 9v7h-15zm179 62v-6h6v6z"/>
		<path id="Path 75" class="s74" d="m339 389l17-3 4 5-1 3-3 2-1 4-4-6-1-4-7 1zm-46 11l5-2 2 4-2 5-4-3zm227 10l5-2 1 1-5 5h-1zm34 6v-2l6 2-5 2zm15 4l1-1 7 2-1 1-2 3-3 1zm-15 11l2-10 2 1v3l6 1v6l-3-2-4 2zm105 17l-1-4 6 2-3 1zm36 8v-1l7 2v5h-2zm8 20l3 1-3 2zm-414 5l8-2v8l-5 3-4-9zm440 3l1-4 4 1-1 3zm-515-1l6-1v8l-6 1-3-6z"/>
		<path id="Path 76" class="s75" d="m217 451l9-1 6 1v2l-2 7-4 2h-4v-6h-6zm578 5l4-3 5 1-1 13-5 5h-4v-4-5zm-670 56l-5-7 1-11 2 2 7 11zm17-6l3-1v-5h3l10 15-1 3h-3-6l-2-4zm647 22l2-6h1l10 3-1 5 10 11 2 9-6 3-5-2v-7l-8-6zm-407 30v-8h6l3 1v3l-1 4zm-74 4v-4h14l6 4v6h-4z"/>
		<path id="Path 77" class="s76" d="m360 391l4-1 2 5 4 13v6l-4 2-4-7-7-2v-7l1-4 3-2zm-17 0l7-1 1 4-1 8-1 2-13-4v-5l6-1zm215 31l4-3 2 5h3v-3l2-1 2 6 3-1v7l-8 1-2-1v-6l-6-1zm32 9l2-4 1 4zm40 11l2-2 1 3-2 1zm15 6l2-5 1 5zm27 7l3-4 2 5 4-1 6 3 1 11-3 7-4-2-3 2-3-3 1-9zm-378 7l2-1h2l6 3 1 10h4l1 11-2 5-4 1v3h-2l-5-7v-8l-8 2 5-12v-5zm416 3l5-2v3l11 2v6h4v6l-1 4-3 1-9-2-4-9-3-4zm66 25l-4-4 3-12 7 1v7l3 2-2 5-3 1zm-481 16v-6h1 3v4z"/>
		<path id="Path 78" class="s77" d="m464 357l3-3 8 2 13 14-11 2-11-6zm-238 93v-5h4l2 1v5zm566 36l2-14h4l1 5-1 7-3 2zm-656 43l3-17 7 2 2 4h6v5l-2 6 2 1v7zm528 18l9-2v3l-5 4h-4zm-80 60l2-20h4l4 5h4l1 2v8 3h-5l2 5h-6zm-171-3l13-2h4l2 6v4h-12l-1-4h-6z"/>
		<path id="Path 79" class="s78" d="m425 386l3-5h14l2 2v5l-2 3-16-2zm-46-2l1-1h4v4l-2 1-3-2zm-23 2l8-1v5l-4 1zm-73 17l10-3 1 4-2 6-6-3zm364 40v-2l9 3-1 2-6 4-1-2zm-458 3l9-1 2 10-5 5-7-2v-8zm17 19v-9h2 8 6v6h4l-4 5h-6l-2 3-2-2zm-46 1l8-3 4 1v4l4 1-2 7 9 9 3 10-3 1-3-2-6-5h-7v3l-6 2-7-2-1-5 7-7zm132 2l2-4v5zm166 128l8-1v5l-5 2h-3z"/>
		<path id="Path 80" class="s79" d="m495 398l5-1h2v3l11 1v7l-5 2-1-4zm-231 13l7-3 2 2v4l-4-1-1 3-2-1zm-50 23l10-4 3 6-4 8h-7l-2-6zm36 26l5-7 3 2-1 7h-5z"/>
		<path id="Path 81" class="s80" d="m419 380l7-2 2 3-3 5-3-2-5 2-4-2-2 3-8-1 1-4h1l4-1h4zm25 8v-5l6 1 16 4v2l-8 2zm-70-2v-2h1 4v2l-2 2zm-60 8l25-5 4 2-1 3-6 1-10 1-5 1-6 2-1-3zm-60 21l10-4 2 4-5 4-2 2-5-1zm301 3l5-2 5 1 2 4v3h-3l-2-5-4 3-2-1-1-1zm21 4l1-1 6 1v3l-6 2zm36 14l3-4 4 1v2 3h-3-4zm17 1v-1l3 1v3l-2 2h-3zm-452 18l11-5v8h-1-5-5zm504 0v-4l14 4v1l-2 3-4-3-2 2zm-513 5l5-2 1 2-2 4-4-1zm34 16h-5l-1-6h6 1v3zm-53 15l2-4h2l1 5h-3zm116 4v-5h4l2 8zm165 103l17-1 3 7v1l-8 1-3-4h-9z"/>
		<path id="Path 82" class="s81" d="m661 447l3-1 3 1v2l-1 4h-2zm-373 34l-6-3-2-17 6 4h1v4l5-1 2 1-5 12zm498 44l2-5 3 2-2 6z"/>
		<path id="Path 83" class="s82" d="m508 354v-6l-5-6v-6l5-3 6 5v14l-2 2zm-330 143l2-3 3 2v3h-3zm500 49l11-2v2l-5 6h-5l-2 9-6 3h-7-6l2-8h4l5-1-1-3 5-4zm-64 33v-5l5-4h3l1 3zm-15 7h15 3v1l-2 10-8 3-2-2-6-4-1-2z"/>
		<path id="Path 84" class="s83" d="m384 387v-4h11l1 3-7-1-3 3zm154 27l-2-4 4 1v3zm94 26v-3l15 4v2l-2 5-3 1-2-6-2 1h-3l-2-1zm-434 5l16-7 2 6-1 7-7 5h-2l-6-1zm469 4v-2l9 3-1 1-3 4-3-1zm-381 16l2-14 3 3v8l-4 3zm10-4l-1-5h3v5zm-94 15l1-3 7 1 4 9-3 2-2-3h-6zm264 119l5-2h5l1 4-5 2-6 1z"/>
		<path id="Path 85" class="s84" d="m496 363l6-3 4 15-4 8 5 1v4l-1 8-4 1h-2l-1-3-5 2h-6l-6-2-1-3-6 1-1-3 4-4-4-3 1-5v-1l1-1 1-3 11-2zm193 181l3-2v4h-3zm-25 12v-4h4l1 3z"/>
		<path id="Path 86" class="s85" d="m655 446l1-2h2l1 4 1 3h-3zm-482 12l4-3v3l-3 2zm-13 8l-3-3 4-3h7v3zm569 0l3-2h5l4 1h3v5h-4-2l-8-1zm-568 54l5-2h6l-1 2zm286 77l1-1h8 2v6l-8 2z"/>
		<path id="Path 87" class="s86" d="m161 494l6-2v-3h7l6 5-2 3-7 3-10-4zm-19 12l-4-2v-8h5l2 4v5zm472 73l9-6 7 2-4 6-9 5h-3z"/>
		<path id="Path 88" class="s87" d="m478 351l9-5h3l6 17-8 7-13-14zm24 46l4-1 7 4v1l-11-1zm200 134l1-1h7v6l-4 2-9 2v3l-5-1-3 2-11 2-1-2 1-2 16-5h5zm-103 71v-8l6 4h-4l1 4z"/>
		<path id="Path 89" class="s88" d="m300 564v-8h6l2 2v4l-6 2zm261 35l6-2 17 10 6 3 1 3-12 7-7-6 3-2-1-4-6-4-2 3-5-2-2-2zm-157 3l4-2h3l2 4v4l-6 2-3-3zm28 6l-2-6h9l3 4-7 2z"/>
		<path id="Path 90" class="s89" d="m500 327l4-1h4l1 2-1 3v2l-5 3v6l5 6v6l-6 6-6 3-6-17v-6l9-7zm-38 46l4-7 11 6-1 3-1 1v1l-8 3h-1l2-4h-4zm336 99l5-5 4 5-2 5h-6zm8 51v-5l4-1 2 3v4zm-245 82l5 2 2-3 6 4 1 4-3 2 7 6-1 3-11-9-5 1-4-4z"/>
		<path id="Path 91" class="s90" d="m508 331l1-3 3 2zm-14 65l5-2 1 3-5 1z"/>
		<path id="Path 92" class="s91" d="m414 593h2l10 5v4l-13 2-2-4z"/>
		<path id="Path 93" class="s92" d="m426 602v-4h4v4z"/>
		<path id="Path 94" class="s93" d="m673 545l4-1 1 2-5 2z"/>
		<path id="Path 95" class="s94" d="m548 416l4-2h2v2l-2 4-3-1zm44 11l1-1 9 2v5l-1 2-3 1-4-5h-1zm83 24l1-1 5 1v4l-4 1zm40 12l3-2 7 1 1 4v2l-11-2zm29 7v-5h4 2l1 6zm-588 29l5-3 10 4 2 10-5 4-11-6z"/>
		<path id="Path 96" class="s95" d="m482 396v-2l6 2zm-359 100h15v8l4 2 4 8-7-2-9-5z"/>
		<path id="Path 97" class="s96" d="m466 390v-2h3l5 1 1 3 6-1 1 3v2l-2 4h-4l-2-4-8-1zm236 72v-5l5 1-1 5z"/>
		<path id="Path 98" class="s97" d="m458 392l8-2v5l-2 1zm22 8l2-4h6 6l1 2 12 8 1 4h-9l-2-5-6-2-9-2z"/>
		<path id="Path 99" class="s13" d="m534 487h1v1h-1z"/>
		<path id="Path 100" class="s24" d="m326 460l2 9-4 1z"/>
		<path id="Path 101" class="s52" d="m579 439l3 1v7h-4z"/>
		<path id="Path 102" class="s74" d="m310 461h2l-1 7-3-1z"/>
		<path id="Path 103" class="s82" d="m475 375h1v1h-1z"/>
	</g>
</svg>