<svg version="1.2" xmlns="http://www.w3.org/2000/svg" viewBox="0 0 1000 1000" width="1000" height="1000">
	<title>Erimystax_x-punctatus-svg</title>
	<style>
		.s0 { fill: #473a1c } 
		.s1 { fill: #4f4420 } 
		.s2 { fill: #655527 } 
		.s3 { fill: #5a4c23 } 
		.s4 { fill: #595636 } 
		.s5 { fill: #413f25 } 
		.s6 { fill: #62603b } 
		.s7 { fill: #b5a47a } 
		.s8 { fill: #877745 } 
		.s9 { fill: #534e31 } 
		.s10 { fill: #c4b481 } 
		.s11 { fill: #7a6f41 } 
		.s12 { fill: #735c28 } 
		.s13 { fill: #72673a } 
		.s14 { fill: #4a472c } 
		.s15 { fill: #d2c187 } 
		.s16 { fill: #e7d98f } 
		.s17 { fill: #7d6a2f } 
		.s18 { fill: #6b6030 } 
		.s19 { fill: #37331e } 
		.s20 { fill: #292514 } 
		.s21 { fill: #99916e } 
		.s22 { fill: #575a49 } 
		.s23 { fill: #927835 } 
		.s24 { fill: #ab9c67 } 
		.s25 { fill: #988249 } 
		.s26 { fill: #6f6c4c } 
		.s27 { fill: #646144 } 
		.s28 { fill: #a2925b } 
		.s29 { fill: #b99950 } 
		.s30 { fill: #aa8f36 } 
		.s31 { fill: #7f7457 } 
		.s32 { fill: #4f4829 } 
		.s33 { fill: #e9dfa2 } 
		.s34 { fill: #c1aa69 } 
		.s35 { fill: #8e875a } 
		.s36 { fill: #83672f } 
		.s37 { fill: #c1a03d } 
		.s38 { fill: #7c7d52 } 
		.s39 { fill: #d5ad4e } 
		.s40 { fill: #efeabc } 
		.s41 { fill: #857f66 } 
		.s42 { fill: #edc84d } 
		.s43 { fill: #d3c598 } 
		.s44 { fill: #a48431 } 
		.s45 { fill: #b7ab8a } 
		.s46 { fill: #edd670 } 
		.s47 { fill: #895c34 } 
		.s48 { fill: #4b4d37 } 
		.s49 { fill: #605c5a } 
		.s50 { fill: #d8c572 } 
		.s51 { opacity: .9;fill: #a19471 } 
		.s52 { opacity: .9;fill: #858156 } 
		.s53 { opacity: .9;fill: #5b5e4d } 
		.s54 { opacity: .9;fill: #615b3b } 
		.s55 { fill: #373323 } 
		.s56 { opacity: .9;fill: #686f45 } 
		.s57 { opacity: .9;fill: #8c8578 } 
		.s58 { opacity: .3;fill: #5f6146 } 
		.s59 { opacity: .7;fill: #8d8261 } 
		.s60 { opacity: .1;fill: #5c4f37 } 
		.s61 { opacity: .5;fill: #4d4b2f } 
		.s62 { opacity: .7;fill: #f4f4dc } 
		.s63 { opacity: .7;fill: #312c24 } 
		.s64 { opacity: .8;fill: #c3bb7c } 
		.s65 { opacity: .9;fill: #506664 } 
		.s66 { opacity: .1;fill: #c6aa56 } 
		.s67 { opacity: .1;fill: #c5b78d } 
		.s68 { opacity: .5;fill: #c9a560 } 
		.s69 { opacity: .6;fill: #4b7d40 } 
		.s70 { fill: #5d82a3 } 
		.s71 { opacity: .5;fill: #7e7d59 } 
		.s72 { fill: #574c77 } 
	</style>
	<g id="Background">
		<path id="Path 0" class="s0" d="m487 408l27-21 14-7v3l12 10 24 1 10 24 20 18-18 19v5l-14-1-14-3-2-7-14-3-12 6v10l-2 1-3-1-3 6-7 5h-3l-4-1-2-13-9 1-3-28zm266 120l5-8h8 5l-4 10-10-1zm-593 10l3-8h14l-1 10-7 3h-3zm111 33l2-7 3 1 1 7h-5zm49 43h4l4-5h4l8 3v2l-8 10h-6l-6-2z"/>
		<path id="Path 1" class="s1" d="m528 380l29-8 8 7-1 15-24-1-12-10zm-62 45l21-17-3 24 3 28-6 3h-2l-8-5-2-29zm110 35v-5l18-19 4 2 5 11v3h-14l-7 8zm-142-6v-10h3l3 1 2 3h6v4zm86 8v-10l12-6 14 3 2 7-3 1-12-1v3zm-312 21l59-17 3 4-2 23-3 6h-5l-1 7h-2l-2-5h-4l-3 2 1 7-3 1-12-1v-11l-1-3-4 2-4 2-1 6-8 3v10l-8 6v4l-5-1v3h-8l-3-5 3-16 5-7 8-3zm88 9l-2-11 3-2v-9h9l8 24h-14zm365-4l4-2h5v3l-3 4h-4zm97 24l9-2 2 4-3 6h-8v-4zm-8 19l3-3 4 1 1 5h-5zm-585 26l2-2 3 4-2 2zm175 55l4-1v1l-4 2zm-46 17l18-17 8 2v8l-7 2-5 12z"/>
		<path id="Path 2" class="s2" d="m450 442l4-3 2 9-8 4v-4zm37 18l9-1 2 13 4 1 1 4h3v5l-2 10-12 2 2-14-3-4h-7l-2-4-1-9zm-105 21l1-7h7l6 6v14l-10-4v-7zm230-5v-2h7l5 4-2 9 6-1 2 6-2 4h-12v-6zm48 24l3-7h4l6 5-2 11h8l1 4 6 2 1 7-5 2-15-2-3-4v-5l-4-3zm-452 29v-4l8-6v-10l8-3v6 7l4 3-3 6-8 4-7 2zm26-17v-2l12 1v8l-12-1zm510 21l6-2 3 3-1 4-8-1zm42 13l2-8h11l1 3 8 20v4l-6 3-7-9h-6zm47 18l3-4h8l1 7 5 1v14h-8l-4-6v-8l-4-1zm-534 40h9l6-6h8l6 11-4 5h-4l-8-2-18 17-8-7 8-7v-7z"/>
		<path id="Path 3" fill-rule="evenodd" class="s3" d="m463 427l3-2 3 4 2 29 8 5-1 9-4 3-19-1-1 4-9 2v-3l-5-2-2-9-8 1v7h-13l-7 2-2 4h-12l-6-6h-7l-1 7-2 9-1 7-3 3-8-2-6-2h-8l-2-6h-18l-2-6h-7l-3 10-6 4-2-4-8-24 2-13 35-5 3-1 12-1v6l7 4h25l7-8 37 2 14-2 8-4-2-9 8-11zm119 33l7-8h14l2 14h-3l-8-1 1 9-1 12-7-1-3-3-2-5zm-70 8l3-6 3 1-2 5zm-245-2l13-3 3 5 14 2v9l-3 2 2 11v4l-1 5-5 5v-5l-4-4-18-4 2-23zm-43 40l1-6 4-2 5 1v13h-10zm503 0l2-5h5l2 10h-5zm37 29l3-3 4 2-1 4h-2zm0 28l-11 2 4-6zm21-2l4-2h6l7 9 2 6h-6l-5-5h-3v3l-4-3-5 1z"/>
		<path id="Path 4" class="s4" d="m612 470l5-6h4l1 1-3 9h-7zm27 8v-9h5l4 1h1l3 1v10l-5 1zm48 44l8-3v9 4h-13v-8zm-131 4v-6h1l9 1v7zm-199-2l15-1v1 4l-14 4zm553 24v-20l6-2 6 4v8l-4 1-2 9zm-278-16h18l2-4h10 4l2 6 2 12-11-1-7 5-1-5h-4l-2 5h-3l-6-2-2-4zm112 5l8 1 1-4h5l6 1 4 3 2 7 8 1h8l3 13-4 2-3-2-3 4h-5l-2-5h-4v4l-4 1-7-4v-5l-11 3-2-4v-15zm-400 4v-2h4l6 4-3 7h-4l-3-6zm-138 4l1-1 8 1 1 15h-2l-4-1-4-2v-7zm648 23v-6l10 4v4zm58 12v-6h5l2 1-3 5zm-848 0l9-4h17v6h-6l-3 4-5 3v5l-8-5zm842 17l10-1v-11l10 2 2 11-2 16 2 5-4 3h-9l-3 7-14-5v-8l-3-3h-9l-3 5-8-3 15-16 6-1zm-541-1l1-1 5 5v3l-11 3v-2l5-3z"/>
		<path id="Path 5" class="s5" d="m158 500l50-17v17l-8 3-5 7-3 16-9-1-2-4h-5l-1 5 3 4h-1-14l-4-7zm-79 51l24-24 27-16 12 14-2 13h-6l-3-6h-9l-6 4v26l-6 2-9 4h-7l-2-2v-7zm713-29v-9l9 1 5 1-1 12-7-1zm-412 54l6-1v6l4 2v9l-9 1h-5l-10 2-1 1-3-2-2-1v-9l2-4 10-2zm21 15l-1-5h5v5z"/>
		<path id="Path 6" class="s6" d="m894 510l1 5h9l4-5 10-2-2 18-6 2v20l-2 4h-10-15l-9 12-10 2-10-4v-4l-4-2 4-20 8-6v-14zm-256 5l2-1 8 5 4 9-2 4h-18v-8l6-3zm92 15l7-2 2 5h5v4 1l-14-3zm-554 10l1-10h1 4l2 4h9l1 4 7 3-1 3 6 1v5l-10 1v11h-8l-1 3-6 1-5-2-2-4 2-4-6 3-3-4 3-9h9l1-3zm-86 36l3-1 1-7h7l1 17-1 3-5-1-6-5zm739 2v-3l4 1h5l4 6v13l-9-3-3-4zm77 8v-6h6 4v5 11l-10 1zm6 43l3-7h9v8 1z"/>
		<path id="Path 7" class="s7" d="m507 520l2-5 4-1 6 6h4l2 4 7 1 5 4 1 8-8 7-9-2-8-3 1-15-7-2zm-202 10l-4-10 4 2v6l3 2zm267 10l8-2 3 1 7 7 3-1 6 2v7l5 5h7l5 9-1 2-7 1h-4-8l-7 1-14 1-4-2-6 3h-3-1l-3-4h-14l-4-2-1-5 1-7 8-6 7-11h2l2 3zm-362 22l3 2 1-4h2l2 4 2 8-6-1-3-4-6 2-3-4zm225 4l13-2 14 2-17 13-9-2-2-4zm-95 12v-10h4l6 4 20-2 2 2v6l-10 2h-5l-2 4-8 3-4-2zm54-2v-8h20l3 3-1 5h-12zm-222 8l10-2 2 7 7-1 5 5 14 2v6l-4 1-4-1-1 4-9 1h-7-5l-12-2v-8-2l11-1 1-3-8 1z"/>
		<path id="Path 8" class="s8" d="m619 474l3-9h3l5 1 2 1-1 11-4 1-3-1zm-174 6l9-2 16 3 7 5 5 5 2 9v11h-8l-5 5-6 1-2-6-6 1-5 1-5-1v-3h-4v-6l-8-2v-7l3-10h6zm83 18l2-8h12l2 18-8 3-2-9zm64 17v-6l11-5h7l4 10v2l-14 2-2-3zm-458 39l10 5-2-4 2-4 10 8v3l-1 3h5l3 3h7l3-4h5l5 2-8 7-8-3-4 5-17 3-10-1-2-3-22 2v-12l6-2h8l3-6zm396 10l9-1 1 5 4 2v10h-10zm-277 16l-3-1 3-7h4l2 6 6 8h-4l-3-6zm569 2l7-4 1 10h-4zm-508 15l1-3 9-3 6 5 2 6v7h-4l-6-11h-8z"/>
		<path id="Path 9" class="s9" d="m608 474v-4h4v4 2h-4zm2 30l7-5-1-3h12v2l3 10-2 7-1 2h-3l-3-3h-8zm236 26l6-4 1-12 9 2v14l-8 6-8-2zm-136-2h6v7h14l14 3v15l-9 5h-3v-4-2l-4 2-20-3v-22zm-352 4l14-4 1 8v3 3l-3 1-2-2-2 3-4-5h-4zm310 2l14-2h13l3 3v15l-10-2-10 1v-3h-8zm-421 8l3-2 1 6zm-51 20v-11l10-1v7l4 2v3l-8 3-6 1zm648-2l2-4h4l4 2v4 6h-4l-5-1zm-783 11l4-7 27 2 2 2-1 7-3 1h-17l-9 4-2-5zm781 24v-13h8l5 7 1 9zm-495-8l8-3h5v9l-7-2-3 2-3-3zm58-1v-1h14l10 5h-3-11l-2 1h-6-2zm478 32l3-5h9l3 3v8z"/>
		<path id="Path 10" class="s10" d="m446 514h-3v-5h4v3zm5 4l7-1 3 6 5-1h6l1 7 5-1 8-3 8 2-1 7-8 1 1 7h7l2-5 2 3 5-1-1-12 6-5 7 2-1 15-8 5-5 16-17-2-7 4h-4l-8-16-12 2v-6l3-4-4-2 2-7zm87 19l13-1 4 3-7 11-8 6h-10v-12zm-165 5v-3h6l2 1v5l6 3 1 4v11l6 5v8h-3l-5-1-6 1-2-4h-6l-2-2-20 2-6-4 3-18h4l3-7 3-2 2 8 6 1 1-6 2-3 2 2 1 4h3l2-5zm-207 1h3l1 3-3 9-2 2h-3l4-5z"/>
		<path id="Path 11" class="s11" d="m322 494l12-4h18l2 6-2 12-4 6 4 6-2 4-4 3-7 1-7-2-1-3-2-8-3 6-4 4h-6v-7l-4-1-10-9v-8l12 2 2-4zm84 3l2-5 16 2 1 10 3 2v4l-7 2-2 5h-2l1-7-4-2-2-3h-6zm347 13l-2-10 9 1 6 3 1 6-9 2zm-498 0l2-4h2 7l3 7-4 5h-9zm385 4v-2h10l12 6v10h-10l-4-9zm-26 2v-2h8l3 3v5h-8zm14 1l1-2h9v6l-6 3-4-2zm-400 5l6-4 12 1 2 1 2 20-3 2h-3v-4l-5-3-1-1-1-3-10-1-2-2zm-46 8l1-5 9 1 3 5-2 3h-9zm690 44h4l13-14h9 8v20 6h-5l-5 5v7l-6 1-15 16-12-5 1-7 2-22zm-771-6l9-4v12 9h-8zm303 8h12l3 9h-14z"/>
		<path id="Path 12" class="s12" d="m520 462l13-3 9 3 4 5 4 24-8-1h-12l-3-8h-21v-5l-1-4 7-5h4l2-5zm-42 10l1-9h2l1 9zm-48 2v-7l8-1 2 9-2 3h-6zm-108 20l3-10h7l2 6zm324-2l1-4 7 4 2 6zm103 20l4-2 5 2v4h-8zm-521 10l-4-3v-7h10v6zm580 39l-8-20h4l7 6 7 1 12 1 2 4h4v7l-3 4-10-1-9 3zm-324 19l15-4h21l6 6v14h-4l-15-1-3-1-16-1-5-1h-1zm-185 18h6l2-3 7 2v1l-6 6h-9zm46 5l7-1h5l3 2v2l-4 6h-12v-1zm-67 11l16-6v7l-8 7z"/>
		<path id="Path 13" class="s13" d="m602 474v-8h3l3 4v4zm29 4l1-11h2 1l4 2v9zm69 14v-9l4 1v8zm-321 5l1-7h6l10 4v2l-5 5-7 1zm-84 4l1-5h4l2 4v8h-4zm367 27v-10h2l3 4-1 6zm54 0l9-3 5 5v5h-14zm148 38l10-2 9-12h15v8h-9l-13 14h-4l-8-4zm-388-4l7-4 17 2h12l13 2v1l-5 13h-21l-15 4-8-4zm57 20l1-2h10l13 6-3 8-7 2-3 1h-10zm363 16v-7l5-5h5v11z"/>
		<path id="Path 14" class="s14" d="m665 483l1-3h6v4l-2 2h-5zm-237 23l-3-2-1-10h11v7l-3 3zm413 7l7-1h5v2l-1 12-6 4-6-3v-7l-4-2v-4zm-175 15l1-6 15 2v8l-14 2zm-327 0l7-1 2 12h-4l-6-3zm356 4v-4l13 1v22l-10-1v-15zm-579 30v-26l6-4h9l3 6-2 12 2 4-7 2-3 6zm-51 2l14-13 13 8v7zm321 11l5 1 9 10 1 5-1 1h-10v-9l-4-2z"/>
		<path id="Path 15" class="s15" d="m500 560l5-16 8-5 8 3-2 7-7 3v8zm-84-17l9 2 2-5h5 6v8l-6 7 3 11-1 7-17-2-3-3h-20l-6-5v-11h4l2 4h4l1-5 7-4 10 1zm-88 2l9 4 7-5 3 6-3 18h-4l-5-1-3-9-2-5-4-5zm124 3l12-2 8 16-10 4-14-2v-9l3-7zm-171 2v-2h7l1 4zm-50 52l6-5 1 4-2 1z"/>
		<path id="Path 16" class="s16" d="m457 512l6-1 2 6 1 5-5 1-3-6zm50 8l-8-2-3-8h8l2 4 3-4 4 3v1l-4 1zm-135 3l-3-7 5-3 5-2v6l3-3h8l3 2 7 3-3 9-5 1 1-4-8-3 1 13-2 1-6-2-1-9-5-1zm60-5l1-6h3v6zm-116 7h-5l1-8 4 1zm-99 7l8-4 2 2 4 4v1l-2 6h4l2 1 1 4h3l1 3v7 8h-13l-3-3 1-10-7-10v-2zm81 18l1 4 3-1 2-10 5 3 1 6 5-3 6-1 1 6 5 1 5 3 3 9 5 1v10h-13l-2 3-10-3-9 6 4 2-10 2-4-1-3-13-5-4h-6l-6-5v-10l-4-4 2-5 7 4 8 2 3 1 1-3zm-117 16l6-1 2 5 7 3h5l4-4 6-2 3 4v7l4 5-2 12h-6l-14-2-5-5-7 1-2-7-10 2-2-4 3-7zm143 25v-4l17 1 2 2-2 4h-3l-8 2z"/>
		<path id="Path 17" class="s17" d="m545 457l3-1 14 3-2 10 12 9v9l-4 11-18-7-4-24-4-5zm-149 37v-14h12v12l-2 5-10-1zm-16-4l2-9 4 2v7zm-84 6v-4l4 2v2zm-31 3l3-6 18 4 4 4v5l-1 10-9 2-11-5-3-7zm540 28l1-12h1 1l7 1h13l1 2-2 8-1 4-12 1h-8zm-27 10l8-1 2 2-2 8h-8zm21 1v-2h5v5h-4zm-548 27h9l1 3 4 7-6 3-2-6h-4z"/>
		<path id="Path 18" class="s18" d="m572 478l-12-9 2-10 14 1h6v17zm23-4l-1-9 8 1v8zm81 12l9-7 15 4v9l-5 3v6l-7-3-2-8h-10zm38 9v-8l13 4-1 9-2 1zm-414 1v-2h14l2 4-2 4-12-2zm-107 38l2-3h8l3 7-5 3-7-3zm648 2l5-2 8 2-4 20h-4l-2 4h-8v-7l7-10zm-71 2l8-1v9l-8-1-2-7zm-599 24l3-2 2 4h-5zm679 20v-14h4l10 2 8 4-6 7-2 22-8-5-1-9zm-382 6l2-11 6-1 8 4-2 12-10-2zm58 8v-14h7l1 15h-5z"/>
		<path id="Path 19" class="s19" d="m130 511l28-11 1 23 4 7-3 8-10 2-10-2 2-13zm653 4l1-4 8 2v9l-6 1zm-530 85l5-4 4 2 7 4 2 4-4-3-14-1zm55 36l5-12 7-2 6 2v5l-10 11z"/>
		<path id="Path 20" class="s20" d="m134 554l-2-4 2-12h6l10 2 10-2 6 5v9l-4 5-8 2-10-8-2 4 2 4zm226 52l11-3v20l-19 23-18 1-18-7 10-11v-5h6l8-10 4-2h12z"/>
		<path id="Path 21" fill-rule="evenodd" class="s21" d="m428 506l4-2v6h-4zm108 5l8-3h10l3 12h-1l-13-1 3 9 4 2 1 6-13 1-1-8-5-4v-13zm-150 24l-1-13 8 3-1 4-4 6zm167-6l3-3 10 2 4 1 2 11-13 2-2-3 1-5zm27 9v-8h6v7l-3 2zm-286 4l10-3v4l-2 10-3 1-1-4zm-66 30l-6-3 4-4zm82 14l-4-2 9-6 10 3 2-3h13l3 7-2 3-17-1z"/>
		<path id="Path 22" class="s22" d="m918 502h4l1-4 13 1 11 6 2 9-5 12-1 3-9 11-12-2v-8l-6-4 2-18zm-486 2l3-3 8 2v6 5h3l5 2v2l2 11-2 7 4 2-3 4-5-6-8-1-2-8v-1l-1-8v-6h-3l-1-2zm-31 5l5-4h6l2 3-1 5 4 4h2l4 9v8h-4l-4-4h-5l-2-7 1-3-5-3-1-1zm-107 10l6-1 1 2 4 10-1 9-10 3h-2l-2-14 4-4zm256 11l-4-2-3-9 13 1v6l-3 3zm-228-5l4-4 5 2 1 3 7 2-1 8 6 3v2h-6l-2-5-8 4-6-8zm173 12l-2 5h-7l-1-7 8-1zm-138 4l1-2h4l4 5-1 6-6-1zm551 11l2-4h6v10h-8zm-553 32l2-4h5l-2 4zm569 38l4-3-2-5 2-16h13l5 13v12l-6 6-12 2-4-1z"/>
		<path id="Path 23" class="s23" d="m438 478l2-3 5 2v3l-1 4h-6zm170 12v-14h4l4 14zm19-11l4-1h8l8 4v6l-1 4-10 6h-8v-2l2-4-2-6zm-47 8v-4l4-1 3 3-1 3zm90-1l2-2 4 2v4l-6-1zm25 15v-6l5-3h4l2 4 8-1 10 6v5h-16l-3-4-7 2zm-45 11v-5l6-7h4v10l4 3v5h-2zm-401-2l-1-7 3-2h4l2 5-2 4zm-173 84v-5l5-3 5 12zm182 2v-4h3l1 6zm39 0l2-4 8 3-2 3h-6z"/>
		<path id="Path 24" class="s24" d="m523 520l2-9 7 1v13l-7-1zm-123-1l3-3 1 1v5l4 1 2 7-1 5-3 2v10l-7 4-6-2-5-14 4-6 5-1zm19 15h4v-8h3l4 4 2 10h-5l-2 5-9-2v-4zm153 6l-2-11 10 1v8zm-341-6l-4-4 10 1 1 3zm147 1v-1l6 2-3 4-2-1zm-50 5l8-4 2 5h6v3l-7 5-9-4zm-13 9l-5 3-1-6h5zm57 29v-6h6l2 4zm-256 8l12-1 6 9v8h-8l-4 1h-4l-4-5z"/>
		<path id="Path 25" class="s25" d="m504 492l2-10h21l3 8-2 8-4 3v10l-11 2-4-3-3 4-2-4zm46-1l18 7 4-11h8l6 1 3 6 9 2 5 8-11 5v6l-6 3-8 1 2 11-10-1-4-1v-7l-9-1-3-12h-10l-2-18zm79 24l2-7-3-10h8l4 14v2l-2 1zm-370-9l1-7h5l1 7zm-81 24l-3-4 1-5h5l2 4-1 5zm366 50v-10h14l3 4h-3v9l-1 3zm-187 22v-6l5-2 3 2v5l-5 3z"/>
		<path id="Path 26" class="s26" d="m492 494l12-2v18h-8l-5-13zm-101 7l5-5 10 1v8l-5 4-6 2-2 5-3-2zm133 10v-10l4-3 6 4 2 9-4 1-7-1zm-224 7l-2-10h4l10 9-1 8h5 6v7l-9 2-5-4-3-2v-6l-4-2zm146-4l1-2 5 1-1 3zm-198 6l8-2h9l7 9 8 1h10l2 14h-3v3h-1l-10-3 3 6v2l-7-4-2 5-10-3v8l-10-8-1-2-1-6zm372 23v-6l-4-3 1-12h8 3l4 2v8l2 12-8 1zm-70-13l3-1 5 5-1 5h-2l-4-3zm-396 29l8-2h3l3 4 3 1v2l-3 4h-7l-3-3-4-3zm246 27l-9-10h3 10l1 9v1z"/>
		<path id="Path 27" class="s27" d="m894 510l1-4 21-4h2v6l-10 2-4 5h-9zm-510 26l2-1h2l5 14-1 3h-4l-1-4-6-3v-5zm-176 3l2-2 3 1 1 4 4-1 7 10-1 10-6 3-2-4-1-15-8-1zm690 21v-8h10v6l-2 2zm-436 6l10-4h4v14l-6 1-2 11h-19l-8 1h-3-2l9-10z"/>
		<path id="Path 28" fill-rule="evenodd" class="s28" d="m440 445l10-3-2 6h-6zm-211 53l4-2 1 3zm351 32l-2-11 8-1v12zm-370 4l7-2 1 7-5-1-3-1zm23 7h-4l2-6zm-123 35l22-2 2 3 10 1 17-3 4-5 8 3-3 7 2 4v7l-4 1h-3l-4-4h-10l-9 1v13h-8v-8l-6-9-12 1-6-1zm0 26v-3l4-1 4 5-5 1h-1z"/>
		<path id="Path 29" class="s29" d="m533 459v-3l12 1-3 5zm-295 82l1-6 5 3v4h-5zm388 4l8-1 2 4 6 2h3l2-5h4l1 5 7-5 11 1h8v3l10-1 8 18h-22l1-2-11 2h-1-6l-4 1-16-1zm-530 42l5 1 1-3h8l6 1-2 12-4 1v3l-6 2-12-5v-9zm234 9l8-2v8h-6z"/>
		<path id="Path 30" class="s30" d="m628 486l-6 1 2-9 3 1zm-42 2l1-3 7 1 14 4h8v6l1 3-7 5h-7l-5-8-9-2zm50 10l10-6 10 6v2l-6 7v5h-10zm62 6l7-2 3 4h16 3l4 5h5l13 1 1 4h8v4l-5 8-3 3-6 2h-5l-2-5-7 2-5-5-9 3h-6v-5l-6 1 2-9-8-1zm68 16l3-6h5v6h-3zm-8 14l-1-5 10 1v2l-3 3zm-497 34l7-1 3 4 1 1-7 3zm572 8l1-9 4 1v8zm-752 10l3-4h6l6 5-4 3v9h-2l-3-1h-1zm170 8l3-4h3l1 2v4l-5 4-2-2-1-1zm81 15v-7h6l7 1-1 8-4 1z"/>
		<path id="Path 31" class="s31" d="m352 508l2-12h8l2 4 4-2 8 2 3-3 5 5 7-1-1 13h-8l-3 3v-6l-5 2-5 3 3 7-15 1-3-1 1-13zm132-8l7-3 5 13 3 8 8 2v2l-6 5 1 12-5 1-2-3-2-3 1-7-8-2v-8h3v-5l-5-1zm-194 6l5-5 3 7 2 10-6 1-5-3zm136 20v-6h4v6h7v1l-7 3zm-20 21v-10l3-2 7 4v4 5zm-36-4l3-1h3l-2 5h-3zm-82 5v-3h1l4 5-1 3-3-1z"/>
		<path id="Path 32" class="s32" d="m414 445l8-1h9 3v10l-37-2-7 8h-25l-7-4v-6h1l4-1 14-1 4-1 20-1h3l3-1zm-134 18l28-6-2 13h-9l-14-2zm380 21l5-1v3l-4 2zm35 35l3-5 8 1-2 9 6-1v5l-2 1-13-1zm132 7l2-8h7l4 2v7l6 3v4l-5 2-9-3-1-7z"/>
		<path id="Path 33" class="s33" d="m417 517l-4-4 1-5 4 2zm-24-1l2-5 6-2 2 7-3 3zm26 1l2-5 7-2h4l1 2-1 6-2 2h-4v6h-3zm57-6h8l5 1v5h-3l-9 1h-1zm-24 2l5-1 1 5-7 1v-2zm-44 10l-4-1v-5l5 3zm-207 18l5-3 2 1-1 5-1 1-6-1zm34 1l3-1 1 1v4h-3zm5 22v-8h4l7 9 2 7-3 7 3 1 1 10-3 4h-3-4l2-13-2-13zm-22 0l6-3 3 3-1 1-4 4 6 3-2 20 3 2-4 8h-5l2-5-6 1v-3l2-12-4-5v-7l6 1zm-31 1l1-3h8v4l6-1 3 4-4 4h-5l-7-3z"/>
		<path id="Path 34" class="s34" d="m430 530l7-3 2 8-1 5h-6zm-191 16v-4h5 3l4 4 1 2-12 1zm42 2l-3-6 10 3v3zm318-1l10-5 11 1 6 2 11 21v2l-13 2h-1l-7-2-5-9h-7l-5-5zm-299 41l10-2 14 1v4l-9 3-1 3-7-2-8-3zm-139 8l3-1 4 1v8h-1-3z"/>
		<path id="Path 35" fill-rule="evenodd" class="s35" d="m368 498l-4 2-2-4zm218 20l6-3h6l2 3v11l7 5 2 8-10 5-6-2-1-5-6-3zm-121-1l6-1 5 2h1v2l-5 2h-6zm160 5v-5h3v5zm-253 6v-4l5 1 1 9v1l-5 1zm-68 11l1-9h3l5 4 9-2 6 8v5l-2 3 4 5-3 2-5-1-1-6-6 1-1-3h-5l-5-3zm-162 63v-13l9-1 1 8h9l3 8h-4l-15-1z"/>
		<path id="Path 36" class="s36" d="m454 478l1-4 19 1 4-3h4l2 4h7l3 4-2 14-1 3-7 3-2-9-5-5-7-5zm52-1h-3l-1-4h3zm-98 3l2-4 7-2h13l2 4h6v6l-3 10h-11l-16-2zm186 6l1-12h7 6v2 14zm-22-8l10-1 2 5-4 1v4h-8zm202 42v-6l9 1 3 8v1h-8zm25 16l-1-10 7 1 1 4-2 5zm-508 61l6-1 2 2v6l-5 4-16 6-3-2-4-6-2-4 9-2 9 2z"/>
		<path id="Path 37" class="s37" d="m767 530l4-10h3l4 4h8v12l-8 1-8 1 1-4-4-2zm47 1l12-1 1-4h4l1 7 9 3 2 7-7 10h-4l-2-4 4-5-2-6-18 2zm-86 23l4-2v2zm-467 38l4-5h14l8 10h4l-4 5-9-2-9 2-7-4z"/>
		<path id="Path 38" class="s38" d="m246 511l3-1h6l1 8-8 2-2-1zm34 7l9-2 5 3v5l-4 4h-10zm320 0l14-2 3 6-1 12 4 3v6l-11-1-2-8-7-5zm-390 44v-3l4 1-1 4z"/>
		<path id="Path 39" class="s39" d="m696 566l-8-18 10 2 10 1 20 3h4v4h3l9-5 2 4 11-3v5l-4 6 11-2 4-1v-4h4l2 5h5l3-4 3 2-4 9 5-1 4 3v-3h3l5 5v5l-1 1h-5-1-1l-3-1-2-3-15-2-9-1-6-1-7-1h-2l-5-1-6-1-26-1zm-439 24l4-4h4v1l-4 5h-3zm81 12v-8h3l4 4h5l2 4-7 1z"/>
		<path id="Path 40" class="s40" d="m373 536l5-1 1 4h-6zm-147 29l1-1h13l4 4 2 13-2 13h-5l-2-4h-5l-3 4-3-2 2-20zm-54 26l8-1-1 3-11 1v-2z"/>
		<path id="Path 41" class="s41" d="m265 518l4-5 11 5v10l-8-1zm127 34l1-3 6 2-1 5h-4zm-65 3l3-2 2 5zm-166 41h-9l-1-8h10l4 4-1 3z"/>
		<path id="Path 42" class="s42" d="m814 540l18-2 2 6-4 5-12-1zm-12 28l6-3v-4l6 5 9-3 10 1 1 3-1 9-4-1-6-3-9 1-5 3v4l-11-1v-5h6zm-537 7l7-3h5 5l4 10 10 5 4 1-1 4-2 4-6 1h-4l-8-10h-14v-1l-6-8zm-11 15l-1-10h5l3 6-4 4z"/>
		<path id="Path 43" fill-rule="evenodd" class="s43" d="m471 516l5-5v7zm-145 5l3-6 2 8zm-123 10v-3l5 1 2 5v3l-2 2-2-1zm235 9l1-5 8 1 5 6v6h-1l-5-1 2 8v9l-13 2-3-11 6-7zm-225-2l5 1v2l-4 1zm76 7v-3h5l4 8h-5zm223 15v-8l7-3 2-7 9 2v12l-5 6zm-250-4v-8l10 3 4 4v10l-6-2-7-3zm-92 3l6-3-2 4-3 2-3-1zm-12 6h-5l1-3zm6 30l1-3h3v4zm73 2l2-3h9l2 3 1 1-13 3z"/>
		<path id="Path 44" class="s44" d="m647 482l5-1 8 3 1 4 2 5-3 7h-4v-2l-2-6-7-4zm20 11l3-4 6 1h10l2 8 7 3 3 3v10l-3 5-8 3-1-7-6-2-1-4h-8l2-11zm57 8l2-1 3 1-2 5h-3zm62 22l6-1 6 4 1 10v2h-11l-2-2v-12zm18 13l2-5h8v9l4 8-7-1-7-6z"/>
		<path id="Path 45" class="s45" d="m350 524l2-4-4-6 4-6 3 2-1 13zm175 38l5-6h10l-1 7-9 1-5-1zm-315 39v-6h6v3l-4 3z"/>
		<path id="Path 46" class="s46" d="m231 535v-1h7l1 1-1 6-3 1-2-1zm-62 8l7-3 4 3-1 3h-9zm91 22l3-5 7 3-2 4-7 1zm22 7v-2h6l5 4 3 13-10-5zm527 8v-4l5-3 9-1 6 3v3l-7 4zm-468 14l2-4h4l3 3v5h-5z"/>
		<path id="Path 47" class="s47" d="m268 567l2-4 3 1-2 7zm252 9l5-13 5 1 4 16-1 2h-7zm-243-4l-1-7 6 5v2z"/>
		<path id="Path 48" class="s48" d="m350 524l4-1 3 1 1 8v7l-1 2-3 2-6-4-2-12zm233 15l3-2 6 3 1 5-3 1zm333 9l2-9 4-1 12 2-4 10-11 11-3-3zm0 32l3-5 6 3 3 8 11 3 2 9h-13l-2-11-10-2z"/>
		<path id="Path 49" class="s49" d="m477 518l9-1v8l-8 3-1-8zm-68 17l1-5h5l4 4-3 5zm-305 69l6-2 2 2h-6z"/>
		<path id="Path 50" class="s50" d="m513 513l11-2h1l-2 9h-4l-6-6zm-83 7l2-2h4l1 8h-7zm42 2l5-2 1 8-5 1zm-232 27l12-1 10 8 1 4-3 5h-9l-7-9h-4zm110 44l3-2 7 2 2 1-5 2v6h-5l-2-4z"/>
		<path id="Path 51" class="s51" d="m416 576l1-5 17 2 2 4 9 2-9 10-5 1h-2l-10-5zm-166 21l-2-3h3z"/>
		<path id="Path 52" class="s52" d="m666 480v-6l7 2-1 4zm168 117l-1-5 9 3 14 3 8 5-1 7z"/>
		<path id="Path 53" class="s53" d="m916 502v-4h7l-1 4h-4z"/>
		<path id="Path 54" class="s54" d="m603 452v-3l7 4 2 9 5 2-5 6h-4l-3-4zm69 28l1-4 12 3-9 7-4-2zm62 21v-8l17 5v2l2 10-4 2-13-1zm94 15l6-2h1 1v4h-7z"/>
		<path id="Path 55" class="s55" d="m751 500v-2l9 3zm16 10l-1-6 18 7-1 4-9-1h-5z"/>
		<path id="Path 56" fill-rule="evenodd" class="s56" d="m652 481v-10l14 3v6l-1 3-5 1zm52 11v-8l10 3v8l-8 1zm22 8l1-9 7 2v8h-5zm137 9l53-11v4l-21 4-1 4-32 6-9-2v-3l4-1h2zm43 51l2-2h8l3 3-7 10-2 2 2 1v6h-6zm-106 23l-8-3h5z"/>
		<path id="Path 57" class="s57" d="m448 555l-2-8 5 1zm-232 43l6-1-2 5h5 6 5l-1 2-11 2h-3-8l-1-5z"/>
		<path id="Path 58" class="s58" d="m632 467l-2-1 4 1zm7 2l-4-2 9 2zm209 43l5-1v1zm-224 58l13-2h3z"/>
		<path id="Path 59" class="s59" d="m735 570v-1l6 1h-2zm-146 2l7-1-1 1h-1zm226 17l11-1h4l3 4 1 5-6-2zm-648 16v-1h1l12 2z"/>
		<path id="Path 60" fill-rule="evenodd" class="s60" d="m431 444l6-1v1zm-30 2l3-1v1zm405 69l-5-1 6 1zm9 1l-7-1h7zm-400 75v-1h11zm-49 4l10-2v1l-5 6zm163 2l-7-1h4zm395 34v-1l4 1zm-811-27h-7 6z"/>
		<path id="Path 61" class="s61" d="m815 515l19-1-6 2h-13z"/>
		<path id="Path 69" class="s62" d="m229 594l3-4h5l2 4-2 3-6 5h-6z"/>
		<path id="Path 70" class="s63" d="m238 601l13-3 2 2v2l-11 4-6 1-1-3 1-2z"/>
		<path id="Path 71" class="s64" d="m797 580l1-1 11 1 13 2 4 6-11 1-7-3-8-3z"/>
		<path id="Path 72" class="s65" d="m664 566l11-2-1 2h-5zm-458 36l4-1h2l1 5h-6z"/>
		<path id="Path 73" fill-rule="evenodd" class="s66" d="m709 568l26 1v1zm37 3l-7-1h2z"/>
		<path id="Path 74" class="s67" d="m575 573l14-1h5l-23 2zm225 13l-10-6h1 1l8 3 8 3 7 3 13 6-10-1-4-4z"/>
		<path id="Path 75" class="s68" d="m595 572l1-1h8z"/>
		<path id="Path 76" class="s69" d="m637 566l16 1-13 1h-3zm-22 4l1-2 7 2h-6zm-391 36l11-2 1 3h-5z"/>
		<path id="Path 78" class="s70" d="m201 605l1-4 4 1 1 4v1l-4-1h-2z"/>
		<path id="Path 79" class="s71" d="m770 574l15 2 2 3zm-339 16l5-1h2z"/>
		<path id="Path 80" class="s72" d="m341 588l2-3 4 2v3h-4zm-149 18l9-1v1h-5z"/>
		<path id="Path 84" class="s15" d="m338 514l4 1v3l-2 1z"/>
		<path id="Path 85" class="s16" d="m361 512l5 2v5l-8-1z"/>
		<path id="Path 86" class="s56" d="m791 579h1v1h-1z"/>
	</g>
</svg>