<svg version="1.2" xmlns="http://www.w3.org/2000/svg" viewBox="0 0 1000 1000" width="1000" height="1000">
	<title>Esox_lucius-masquinongy</title>
	<style>
		.s0 { fill: #a08f5a } 
		.s1 { fill: #c59b8f } 
		.s2 { fill: #90724c } 
		.s3 { fill: #93854c } 
		.s4 { fill: #e5dfd0 } 
		.s5 { fill: #9b896d } 
		.s6 { fill: #d1aea5 } 
		.s7 { fill: #848463 } 
		.s8 { fill: #b58a7e } 
		.s9 { fill: #989a78 } 
		.s10 { fill: #bcbf96 } 
		.s11 { fill: #bdac6b } 
		.s12 { fill: #b8aa85 } 
		.s13 { fill: #c9bd74 } 
		.s14 { fill: #edefe1 } 
		.s15 { fill: #eff5ee } 
		.s16 { fill: #e7ead7 } 
		.s17 { fill: #b1a25f } 
		.s18 { fill: #d9ccc2 } 
		.s19 { fill: #c2b29e } 
		.s20 { fill: #d0e1ce } 
		.s21 { fill: #e4f1e7 } 
		.s22 { fill: #7c734a } 
		.s23 { fill: #b3b99d } 
		.s24 { fill: #a0ac96 } 
		.s25 { fill: #c9ceb0 } 
		.s26 { fill: #cad4c6 } 
		.s27 { fill: #9a914e } 
		.s28 { fill: #878b6c } 
		.s29 { fill: #d4f0da } 
		.s30 { fill: #e2e4c6 } 
		.s31 { fill: #8a9277 } 
		.s32 { fill: #909b83 } 
		.s33 { fill: #838151 } 
		.s34 { fill: #bac0aa } 
		.s35 { fill: #a9b9a2 } 
		.s36 { fill: #c1cab8 } 
		.s37 { fill: #c1c5a7 } 
		.s38 { fill: #c6ddc3 } 
		.s39 { fill: #d6dcd2 } 
		.s40 { fill: #716a46 } 
		.s41 { fill: #a4a989 } 
		.s42 { fill: #d3d7bd } 
		.s43 { fill: #d7e4da } 
		.s44 { fill: #939470 } 
		.s45 { fill: #857957 } 
		.s46 { fill: #adb295 } 
		.s47 { fill: #9ba287 } 
		.s48 { fill: #aeb08b } 
		.s49 { fill: #908c67 } 
		.s50 { fill: #bbbe9e } 
		.s51 { fill: #dee7de } 
		.s52 { fill: #a0a27d } 
		.s53 { fill: #8e805e } 
		.s54 { fill: #aa9a77 } 
		.s55 { fill: #9f6c3f } 
		.s56 { fill: #bdd2b6 } 
		.s57 { fill: #b2c5ac } 
		.s58 { fill: #f8f9f6 } 
		.s59 { fill: #656c55 } 
		.s60 { fill: #7b8165 } 
		.s61 { fill: #b5b27c } 
		.s62 { fill: #cec88b } 
		.s63 { fill: #6d6f4f } 
		.s64 { fill: #c4bd7d } 
		.s65 { fill: #cd915b } 
		.s66 { fill: #707960 } 
		.s67 { fill: #836944 } 
		.s68 { fill: #ad984b } 
		.s69 { fill: #695536 } 
		.s70 { fill: #d39d4e } 
		.s71 { fill: #a7985a } 
		.s72 { fill: #676142 } 
		.s73 { fill: #50513d } 
		.s74 { fill: #a17f5b } 
		.s75 { fill: #7e8974 } 
		.s76 { fill: #61573a } 
		.s77 { fill: #777756 } 
		.s78 { fill: #5b5d46 } 
		.s79 { fill: #565741 } 
		.s80 { fill: #5d634d } 
		.s81 { fill: #a39e6c } 
		.s82 { fill: #969665 } 
		.s83 { fill: #8c8959 } 
		.s84 { fill: #ca8e37 } 
		.s85 { fill: #a3704c } 
		.s86 { fill: #b6884f } 
		.s87 { fill: #b87647 } 
		.s88 { fill: #b37937 } 
		.s89 { fill: #8d7c44 } 
		.s90 { fill: #7c5532 } 
		.s91 { fill: #8b5e38 } 
	</style>
	<g id="Background">
		<path id="Path 1" class="s0" d="m772.5 643.8l2.6-2.6 10.6 5.3-13.2 3.9z"/>
		<path id="Path 2" class="s1" d="m513.2 639.8l5.3-2.6 1.3-10.6 11.9 4 10.6 5.3 8-4 2.6 15.9-1.3 7.9-5.3 4-11.9-1.3z"/>
		<path id="Path 3" class="s2" d="m775.1 641.2l-2.6-5.3 5.3-1.4v-5.2l-4-5.3h5.3l15.9 10.5v5.3l-9.3 6.7z"/>
		<path id="Path 4" class="s1" d="m276.5 629.3l3.9-5.3 11.9 1.3 1.4 7.9-4 2.7-13.2-2.7z"/>
		<path id="Path 5" class="s3" d="m731.5 624h7.9l2.7-4 30.4 23.8v6.6l-23.8-7.9-17.2-13.2z"/>
		<path id="Path 6" class="s0" d="m779.1 624l-1.3-9.3h5.3l14.5 9.3-2.6 10.5z"/>
		<path id="Path 7" class="s4" d="m267.2 617.3l2.6-2.6 10.6 9.3-3.9 5.3z"/>
		<path id="Path 8" class="s5" d="m267.2 629.3l1.3-5.3-5.3-5.3v-4l4 2.6 9.3 12v3.9z"/>
		<path id="Path 9" class="s6" d="m519.8 626.6l-6.6-5.3v-9.3l17.2 8 1.3 10.6z"/>
		<path id="Path 10" class="s7" d="m731.5 624l-10.6-10.6 6.6-5.3 14.6 11.9-2.7 4z"/>
		<path id="Path 11" class="s1" d="m261.9 625.3l-7.9-5.3-10.6-17.2 7.9 3.9z"/>
		<path id="Path 12" class="s8" d="m513.2 600.1l2.7-2.6 5.3 1.3 13.2 4 14.5 14.5 1.4 14.6-8 4-10.6-5.3-1.3-10.6-17.2-8z"/>
		<path id="Path 13" class="s9" d="m513.2 600.1h-3.9v-3.9l6.6 1.3z"/>
		<path id="Path 14" class="s10" d="m464.3 600.1l17.2-3.9v6.6l7.9 5.3-2.6 10.6z"/>
		<path id="Path 15" class="s11" d="m707.7 605.4l5.3-2.6 2.6-10.6 11.9 5.3v10.6l-6.6 5.3 10.6 10.6v5.3z"/>
		<path id="Path 16" class="s12" d="m481.5 596.2l18.5-2.7 9.3 2.7v3.9h3.9v11.9 9.3l6.6 5.3-1.3 10.6-5.3 2.6-26.4-21.1 2.6-10.6-7.9-5.3z"/>
		<path id="Path 17" class="s13" d="m750 590.9l9.3-4 6.6 1.3 6.6 5.3v9.3l10.6 11.9h-5.3l1.3 9.3h-5.3l4 5.3v5.2l-5.3 1.4 2.6 5.3-2.6 2.6-30.4-23.8-14.6-11.9v-10.6l10.6-4 9.3 1.3z"/>
		<path id="Path 18" class="s14" d="m521.2 598.8v-13.2h23.8v5.3l-10.6 5.3v6.6z"/>
		<path id="Path 19" class="s15" d="m584.7 586.9v-4l2.6 2.7z"/>
		<path id="Path 20" class="s16" d="m500 593.5l2.6-10.6h10.6l8 2.7v13.2l-5.3-1.3-6.6-1.3z"/>
		<path id="Path 21" class="s17" d="m765.9 588.2l3.9-5.3 11.9-2.6 12 7.9h10.5l-6.6 35.8-14.5-9.3-10.6-11.9v-9.3z"/>
		<path id="Path 22" class="s18" d="m227.5 582.9l7.9-4 14.6 18.6 6.6-1.3 13.2 18.5-2.6 2.6-4-2.6v4l5.3 5.3-1.3 5.3-5.3-4-10.6-18.6-7.9-3.9z"/>
		<path id="Path 23" class="s19" d="m281.7 586.9l-2.6-4 2.6-5.3h4l5.3 5.3-1.3 9.3z"/>
		<path id="Path 24" class="s6" d="m256.6 596.2l1.3-18.6h5.3l18.5 9.3 8 5.3v2.6l2.6 30.5-11.9-1.3-10.6-9.3z"/>
		<path id="Path 25" class="s20" d="m285.7 577.6l6.6-4 5.3 1.4-6.6 7.9z"/>
		<path id="Path 26" class="s21" d="m345.2 578.9l2.7-5.3 10.6-1.3 5.3 8 19.8-2.7 2.6-4 9.3 5.3v8l-23.8 1.3-6.6-5.3h-14.6z"/>
		<path id="Path 27" class="s17" d="m727.5 577.6l6.6-6.6 6.6 1.3 6.7 6.6 2.6 12-2.6 3.9-9.3-1.3v-6.6z"/>
		<path id="Path 28" class="s22" d="m681.2 578.9l6.6-2.6-1.3-5.3 9.3 1.3-6.6 11.9z"/>
		<path id="Path 29" class="s23" d="m673.3 576.3l13.2-5.3 1.3 5.3-6.6 2.6z"/>
		<path id="Path 30" class="s3" d="m695.8 572.3l3.9-2.6h4l10.6 1.3 13.2 6.6 10.6 9.3v6.6l-10.6 4-11.9-5.3-2.6 10.6-5.3 2.6-18.5-21.2z"/>
		<path id="Path 31" class="s15" d="m297.6 575h5.3l1.3-5.3 14.6 2.6 4 5.3h9.2v4l13.2-2.7 5.3 4h14.6l6.6 5.3 23.8-1.3 14.6-2.7 7.9 1.4 7.9 15.8h-91.2l-45-6.6v-2.6l1.3-9.3z"/>
		<path id="Path 32" class="s24" d="m304.2 575l5.3 9.2-6.6-2.6z"/>
		<path id="Path 33" class="s8" d="m264.6 569.7l10.5 1.3 4 1.3 2.6 5.3-2.6 5.3 2.6 4-18.5-9.3z"/>
		<path id="Path 34" class="s25" d="m275.1 571v-4h5.3l-1.3 5.3z"/>
		<path id="Path 35" class="s26" d="m158.7 571l1.4-4h6.6l1.3 5.3z"/>
		<path id="Path 36" class="s27" d="m740.7 572.3l2.7-6.6 14.5 5.3 1.4 15.9-9.3 4-2.6-12z"/>
		<path id="Path 37" class="s28" d="m703.7 567l10.6-1.3v5.3l-10.6-1.3z"/>
		<path id="Path 38" class="s29" d="m359.8 568.3l4-2.6h17.2l5.2 7.9-2.6 4-19.8 2.7-5.3-8z"/>
		<path id="Path 39" class="s24" d="m280.4 567l6.6-1.3 5.3 7.9-6.6 4h-4l-2.6-5.3z"/>
		<path id="Path 40" class="s19" d="m236.8 567l13.2 2.7 7.9 7.9-1.3 18.6-6.6 1.3-14.6-18.6z"/>
		<path id="Path 41" class="s30" d="m513.2 572.3l6.6-1.3v-6.6h17.2l9.3 2.6-1.3 18.6h-23.8l-8-2.7z"/>
		<path id="Path 42" class="s31" d="m410.1 568.3l-8 2.7v-6.6h5.3 2.7z"/>
		<path id="Path 43" class="s32" d="m219.6 572.3l-5.3-5.3 2.6-3.9h4z"/>
		<path id="Path 44" class="s24" d="m338.6 568.3l8-6.6h11.9l1.3 6.6-1.3 4-10.6 1.3-2.7 5.3-13.2 2.7v-4z"/>
		<path id="Path 45" class="s29" d="m318.8 572.3l1.3-10.6h7.9 5.3l5.3 6.6-6.6 9.3h-9.2z"/>
		<path id="Path 46" class="s22" d="m714.3 565.7l18.5-5.3 1.3 10.6-6.6 6.6-13.2-6.6z"/>
		<path id="Path 47" class="s26" d="m264.6 569.7l3.9-9.3 5.3 2.7 1.3 3.9v4z"/>
		<path id="Path 48" class="s30" d="m209 561.7l6.6-2.6 1.3 4-2.6 3.9 5.3 5.3v4l-13.3-1.3z"/>
		<path id="Path 49" class="s21" d="m472.2 561.7l9.3-3.9h6.6l4 9.2 7.9 5.3 2.6 10.6-2.6 10.6-18.5 2.7-17.2 3.9-38.4 1.3-7.9-15.8 2.6-5.3 25.2 1.3 1.3-9.3 15.9-4h6.6z"/>
		<path id="Path 50" class="s20" d="m410.1 564.4l2.6-6.6 7.9 1.3v21.2l-2.6 5.3-7.9-1.4v-15.9z"/>
		<path id="Path 51" class="s33" d="m732.8 560.4l2.6-4h5.3l2.7 9.3-2.7 6.6-6.6-1.3z"/>
		<path id="Path 52" class="s34" d="m555.6 559.1l7.9-2.7 2.6 8-7.9 1.3-2.6-4z"/>
		<path id="Path 53" class="s35" d="m447.1 572.3v-9.2l7.9-6.7h8v11.9z"/>
		<path id="Path 54" class="s26" d="m363.8 565.7l3.9-9.3h8l5.3 4v5.3z"/>
		<path id="Path 55" class="s5" d="m251.3 564.4h6.6l1.4-8h7.9l1.3 4-3.9 9.3-1.4 7.9h-5.3l-7.9-7.9z"/>
		<path id="Path 56" class="s16" d="m633.6 556.4l9.3-1.3 7.9 9.3v14.5l-30.4 6.7h-33.1l-2.6-2.7v4l-4 4h-35.7v-5.3l1.3-18.6 5.3-5.3h4l2.6 4 7.9-1.3h2.7l4 2.6 5.2-2.6 4 2.6 11.9-5.3 17.2 2.7 11.9-2.7z"/>
		<path id="Path 57" class="s29" d="m551.6 561.7v-6.6h2.6l1.4 4v2.6z"/>
		<path id="Path 58" class="s36" d="m381 560.4l7.9-5.3 4 4 6.6-2.7h7.9v8h-5.3v6.6l8-2.7v15.9l-14.6 2.7v-8l-9.3-5.3-5.2-7.9z"/>
		<path id="Path 59" class="s37" d="m220.9 563.1l11.9-8 4 11.9-1.4 11.9-7.9 4-7.9-6.6v-4z"/>
		<path id="Path 60" class="s17" d="m976.2 559.1h7.9l1.3-5.3 4 5.3-1.3 9.2-15.9-1.3z"/>
		<path id="Path 61" class="s14" d="m661.4 560.4h6.6l1.3-6.6h15.9l1.3 17.2-13.2 5.3-22.5 2.6v-14.5z"/>
		<path id="Path 62" class="s36" d="m537 564.4l2.7-10.6h5.3l6.6 1.3v6.6l-5.3 5.3z"/>
		<path id="Path 63" class="s38" d="m338.6 555.1l6.6-1.3 2.7 2.6-1.3 5.3-8 6.6-5.3-6.6z"/>
		<path id="Path 64" class="s39" d="m306.9 555.1h10.6l2.6 6.6-1.3 10.6-14.6-2.6z"/>
		<path id="Path 65" class="s2" d="m232.8 555.1l2.6-1.3h6.7l9.2 10.6-1.3 5.3-13.2-2.7z"/>
		<path id="Path 66" class="s39" d="m197.1 556.4l6.6-2.6 5.3 1.3v6.6l-2.7 13.3-10.5-1.4z"/>
		<path id="Path 67" class="s40" d="m740.7 556.4l9.3-3.9 2.6 1.3 5.3 17.2-14.5-5.3z"/>
		<path id="Path 68" class="s41" d="m470.9 553.8l2.6-1.3h8v5.3l-9.3 3.9z"/>
		<path id="Path 69" class="s29" d="m463 556.4l2.6-3.9 5.3 1.3 1.3 7.9-2.6 6.6h-6.6z"/>
		<path id="Path 70" class="s15" d="m277.8 557.8l7.9-5.3 5.3 1.3v5.3l-4 6.6-6.6 1.3h-5.3l-1.3-3.9z"/>
		<path id="Path 71" class="s5" d="m291 559.1h5.3l1.3-6.6 5.3-1.4 4 4-2.7 14.6-1.3 5.3h-5.3l-5.3-1.4-5.3-7.9z"/>
		<path id="Path 72" class="s42" d="m277.8 557.8v-6.7h5.3l2.6 1.4z"/>
		<path id="Path 73" class="s12" d="m267.2 556.4l2.6-5.3h8v6.7l-4 5.3-5.3-2.7z"/>
		<path id="Path 74" class="s38" d="m489.4 551.1l19.9 1.4 3.9 19.8v10.6h-10.6l-2.6-10.6-7.9-5.3-4-9.2z"/>
		<path id="Path 75" class="s29" d="m481.5 552.5l1.3-2.7 6.6 1.3-1.3 6.7h-6.6z"/>
		<path id="Path 76" class="s43" d="m328 553.8l8-4 2.6 5.3-5.3 6.6h-5.3z"/>
		<path id="Path 77" class="s33" d="m750 552.5l-1.3-4h5.3 1.3l-2.7 5.3z"/>
		<path id="Path 78" class="s16" d="m685.2 553.8v-5.3h15.9l2.6 2.6v15.9 2.7h-4l-3.9 2.6-9.3-1.3z"/>
		<path id="Path 79" class="s20" d="m545 547.2v6.6h-5.3v-6.6z"/>
		<path id="Path 80" class="s23" d="m455 549.8l4-2.6 6.6 1.3v4l-2.6 3.9h-8z"/>
		<path id="Path 81" class="s44" d="m407.4 556.4l2.7-9.2h5.2l-2.6 10.6-2.6 6.6h-2.7z"/>
		<path id="Path 82" class="s45" d="m976.2 559.1v-13.3h6.6l2.6 8-1.3 5.3z"/>
		<path id="Path 83" class="s36" d="m661.4 560.4l-1.3-14.6 9.2 1.4v6.6l-1.3 6.6z"/>
		<path id="Path 84" class="s42" d="m465.6 548.5l1.3-2.7h6.6v6.7l-2.6 1.3-5.3-1.3z"/>
		<path id="Path 85" class="s36" d="m345.2 553.8l1.4-8h2.6l-1.3 10.6z"/>
		<path id="Path 86" class="s25" d="m190.5 556.4v-9.2l6.6-1.4h6.6v8l-6.6 2.6z"/>
		<path id="Path 87" class="s29" d="m420.6 559.1h9.3l5.3-14.6h11.9l7.9 5.3v6.6l-7.9 6.7v9.2l-1.3 9.3-25.2-1.3z"/>
		<path id="Path 88" class="s42" d="m242.1 553.8l2.6-8 7.9-1.3 5.3 4 1.4 7.9-1.4 8h-6.6z"/>
		<path id="Path 89" class="s37" d="m203.7 545.8l11.9-1.3 2.7 6.6-2.7 8-6.6 2.6v-6.6l-5.3-1.3z"/>
		<path id="Path 90" class="s34" d="m754 548.5l5.3-5.3-4 5.3z"/>
		<path id="Path 91" class="s14" d="m703.7 551.1h10.6l11.9-7.9 9.2 2.6v10.6l-2.6 4-18.5 5.3-10.6 1.3z"/>
		<path id="Path 92" class="s29" d="m669.3 547.2l5.3-4h7.9l2.7 5.3v5.3h-15.9z"/>
		<path id="Path 93" class="s21" d="m611.1 564.4l1.3-6.6-11.9-6.7 2.7-7.9h7.9l10.6 5.3 1.3 13.2z"/>
		<path id="Path 94" class="s46" d="m375.7 556.4l1.3-10.6 4-2.6 5.2 1.3 2.7 10.6-7.9 5.3z"/>
		<path id="Path 95" class="s43" d="m129.6 553.8l6.6-11.9h13.3l1.3 3.9h5.3 9.2l4 8h6.6l14.6 2.6h6.6l-1.3 17.2-27.8-1.3-1.3-5.3h-6.6l-1.4 4-14.5-5.3z"/>
		<path id="Path 96" class="s42" d="m579.4 543.2l1.3-2.7h9.2l4 21.2-11.9 5.3-4-2.6z"/>
		<path id="Path 97" class="s47" d="m568.8 564.4l2.6-23.9h5.3l2.7 2.7-1.4 21.2-5.2 2.6z"/>
		<path id="Path 98" class="s48" d="m215.6 544.5l4-4 3.9 5.3-5.2 5.3z"/>
		<path id="Path 99" class="s20" d="m165.3 541.9l6.7-1.4 3.9 1.4v11.9h-6.6l-4-8z"/>
		<path id="Path 100" class="s35" d="m149.5 541.9l5.3-1.4 1.3 5.3h-5.3z"/>
		<path id="Path 101" class="s22" d="m976.2 545.8l-1.3-6.6h2.6l5.3 6.6z"/>
		<path id="Path 102" class="s36" d="m419.3 543.2l15.9-2.7v4l-5.3 14.6h-9.3l-7.9-1.3 2.6-10.6z"/>
		<path id="Path 103" class="s15" d="m223.5 545.8l8-6.6 6.6 4-2.7 10.6-2.6 1.3-11.9 8h-4l-1.3-4 2.7-8z"/>
		<path id="Path 104" class="s46" d="m589.9 540.5l5.3-2.6 8 2.6v2.7l-2.7 7.9 11.9 6.7-1.3 6.6-17.2-2.7z"/>
		<path id="Path 105" class="s49" d="m461.6 539.2h6.7l-1.4 6.6-1.3 2.7-6.6-1.3z"/>
		<path id="Path 106" class="s49" d="m410.1 547.2l3.9-9.3 5.3 5.3-4 4z"/>
		<path id="Path 107" class="s48" d="m301.6 539.2l2.6-1.3 13.3 6.6v10.6h-10.6l-4-4-1.3-6.6z"/>
		<path id="Path 108" class="s45" d="m301.6 544.5h-5.3v-6.6h1.3l4 1.3z"/>
		<path id="Path 109" class="s36" d="m252.6 540.5l9.3-1.3-4 9.3-5.3-4z"/>
		<path id="Path 110" class="s50" d="m739.4 537.9l4-1.3h4l-1.4 6.6-7.9 2.6z"/>
		<path id="Path 111" class="s51" d="m554.2 555.1l9.3-18.5 7.9 3.9-2.6 23.9h-2.7l-2.6-8-7.9 2.7z"/>
		<path id="Path 112" class="s52" d="m386.2 544.5l8-7.9 7.9 2.6-2.6 17.2-6.6 2.7-4-4z"/>
		<path id="Path 113" class="s53" d="m337.3 541.9l6.6-5.3 2.7 9.2-1.4 8-6.6 1.3-2.6-5.3z"/>
		<path id="Path 114" class="s23" d="m283.1 539.2l5.3-2.6 7.9 1.3v6.6h5.3l1.3 6.6-5.3 1.4-1.3 6.6h-5.3v-5.3l-5.3-1.3-2.6-1.4z"/>
		<path id="Path 115" class="s39" d="m682.5 535.2v8h-7.9v-8z"/>
		<path id="Path 116" class="s43" d="m580.7 540.5l1.3-5.3h13.2v2.7l-5.3 2.6z"/>
		<path id="Path 117" class="s14" d="m231.5 539.2l3.9-4 6.7 4-4 4z"/>
		<path id="Path 118" class="s51" d="m198.4 540.5l18.5-5.3 2.7 5.3-4 4-11.9 1.3h-6.6z"/>
		<path id="Path 119" class="s54" d="m242.1 539.2l6.6-5.3 3.9 6.6v4l-7.9 1.3-2.6 8h-6.7l2.7-10.6z"/>
		<path id="Path 120" class="s53" d="m381 533.9l2.6-1.3h10.6v4l-8 7.9-5.2-1.3z"/>
		<path id="Path 121" class="s38" d="m366.4 533.9l4-1.3 10.6 1.3v9.3l-4 2.6-1.3 10.6h-8z"/>
		<path id="Path 122" class="s49" d="m349.2 545.8l7.9-13.2 9.3 1.3 1.3 22.5-3.9 9.3-4 2.6-1.3-6.6h-11.9l1.3-5.3z"/>
		<path id="Path 123" class="s46" d="m269.8 551.1v-18.5h1.4 9.2l2.7 6.6v11.9h-5.3z"/>
		<path id="Path 124" class="s49" d="m265.9 533.9l3.9-1.3v18.5l-2.6 5.3h-7.9l-1.4-7.9 4-9.3z"/>
		<path id="Path 125" class="s3" d="m764.6 537.9l5.2-6.6 8 2.6 22.5 22.5 3.9 31.8h-10.5l-12-7.9-11.9 2.6-3.9 5.3-6.6-1.3-1.4-15.9-5.3-17.2 2.7-5.3 4-5.3 5.3-1.3z"/>
		<path id="Path 126" class="s15" d="m747.4 536.6l2.6-5.3 7.9 1.3 6.7 5.3v4l-5.3 1.3-5.3 5.3h-5.3l1.3 4-9.3 3.9h-5.3v-10.6h2.7l7.9-2.6z"/>
		<path id="Path 127" class="s2" d="m944.4 540.5l2.7-10.5h22.5l5.3 9.2 1.3 6.6v13.3l-4 7.9-11.9-2.6z"/>
		<path id="Path 128" class="s35" d="m165.3 541.9l-1.3-9.3 5.3-2.6h2.7v10.5z"/>
		<path id="Path 129" class="s49" d="m324.1 531.3l5.3-2.7h2.6v13.3h5.3l-1.3 7.9-8 4-6.6 2.6z"/>
		<path id="Path 130" class="s25" d="m309.5 530l8-1.4 6.6 2.7-2.7 25.1 6.6-2.6v7.9h-7.9l-2.6-6.6v-10.6l-13.3-6.6 1.4-7.9z"/>
		<path id="Path 131" class="s51" d="m91.3 530l9.2-1.4 31.8 9.3 3.9 4-6.6 11.9-22.5-4-17.2-9.3z"/>
		<path id="Path 132" class="s55" d="m944.4 540.5l-7.9-6.6 1.3-6.6 9.3 2.7z"/>
		<path id="Path 133" class="s36" d="m682.5 535.2l6.7-7.9h6.6l5.3 21.2h-15.9l-2.7-5.3z"/>
		<path id="Path 134" class="s23" d="m660.1 545.8l1.3-14.5 3.9-4h9.3v7.9 8l-5.3 4z"/>
		<path id="Path 135" class="s44" d="m473.5 545.8l6.7-18.5h1.3 7.9v2.7l-6.6 19.8-1.3 2.7h-8z"/>
		<path id="Path 136" class="s7" d="m457.7 532.6h-8v-5.3h4 4z"/>
		<path id="Path 137" class="s34" d="m288.4 536.6l3.9-9.3h6.6l-1.3 10.6h-1.3z"/>
		<path id="Path 138" class="s15" d="m132.3 530l2.6-2.7 21.2 2.7-1.3 10.5-5.3 1.4h-13.3l-3.9-4z"/>
		<path id="Path 139" class="s26" d="m74.1 532.6l3.9-5.3 13.3 2.7-1.4 10.5z"/>
		<path id="Path 140" class="s36" d="m633.6 556.4l-4-3.9v-9.3l-5.3-2.7v-14.5h1.4 9.2 2.7v19.8l5.3 9.3z"/>
		<path id="Path 141" class="s20" d="m611.1 527.3l13.2-1.3v14.5l5.3 2.7v9.3l4 3.9-10.6 5.3-1.3-13.2-10.6-5.3z"/>
		<path id="Path 142" class="s37" d="m605.8 527.3l2.7-1.3 2.6 1.3v15.9h-7.9v-2.7z"/>
		<path id="Path 143" class="s7" d="m596.6 527.3l6.6-1.3 2.6 1.3-2.6 13.2-8-2.6v-2.7z"/>
		<path id="Path 144" class="s56" d="m435.2 540.5v-7.9l9.2-6.6 5.3 1.3v5.3h8l3.9 6.6-2.6 8-4 2.6-7.9-5.3h-11.9z"/>
		<path id="Path 145" class="s0" d="m969.6 530l1.3-5.3 6.6 14.5h-2.6z"/>
		<path id="Path 146" class="s20" d="m637.6 526l23.8-1.3 3.9 2.6-3.9 4-1.3 14.5 1.3 14.6-10.6 4-7.9-9.3-5.3-9.3z"/>
		<path id="Path 147" class="s41" d="m648.1 530h5.3v3.9z"/>
		<path id="Path 148" class="s38" d="m457.7 527.3l5.3-2.6 17.2 2.6-6.7 18.5h-6.6l1.4-6.6h-6.7l-3.9-6.6z"/>
		<path id="Path 149" class="s50" d="m265.9 533.9l-1.3-9.2h2.6l2.6 1.3 1.4 6.6h-1.4z"/>
		<path id="Path 150" class="s57" d="m183.9 530l3.9 1.3 2.7-6.6 5.3 3.9 2.6 11.9-1.3 5.3-6.6 1.4v9.2l-14.6-2.6v-11.9l-3.9-1.4v-10.5z"/>
		<path id="Path 151" class="s26" d="m158.7 526l2.7-1.3h5.3l2.6 5.3-5.3 2.6 1.3 9.3v3.9h-9.2l-1.3-5.3 1.3-10.5z"/>
		<path id="Path 152" class="s23" d="m60.8 526l8-2.7 9.2 4-3.9 5.3z"/>
		<path id="Path 153" class="s37" d="m309.5 530v-8h8v6.6z"/>
		<path id="Path 154" class="s16" d="m759.3 522l7.9-1.3h6.6l5.3 1.3-1.3 11.9-8-2.6-5.2 6.6-6.7-5.3z"/>
		<path id="Path 155" class="s45" d="m527.8 531.3l-8-1.3 4-9.3 4 2.6z"/>
		<path id="Path 156" class="s25" d="m859.8 524.7l7.9-5.3h11.9l2.7 14.5z"/>
		<path id="Path 157" class="s24" d="m743.4 536.6l1.3-13.3 5.3-3.9h4l5.3 2.6-1.4 10.6-7.9-1.3-2.6 5.3z"/>
		<path id="Path 158" class="s43" d="m698.4 527.3h6.6l9.3-7.9 14.5 2.6 10.6 15.9-1.3 7.9h-2.7l-9.2-2.6-11.9 7.9h-10.6l-2.6-2.6-5.3-21.2z"/>
		<path id="Path 159" class="s32" d="m689.2 527.3l1.3-7.9h7.9v7.9h-2.6z"/>
		<path id="Path 160" class="s25" d="m489.4 527.3v-7.9h2.7l3.9 1.3v7.9l-6.6 1.4z"/>
		<path id="Path 161" class="s44" d="m298.9 527.3l4-7.9 6.6 2.6v8h-3.9l-1.4 7.9-2.6 1.3-4-1.3z"/>
		<path id="Path 162" class="s9" d="m248.7 533.9l2.6-15.9 13.3 6.7 1.3 9.2-4 5.3-9.3 1.3z"/>
		<path id="Path 163" class="s58" d="m113.8 519.4l9.2-1.4 9.3 12v7.9l-31.8-9.3v-9.2z"/>
		<path id="Path 164" class="s9" d="m625.7 526l1.3-9.3 7.9 2.7v6.6z"/>
		<path id="Path 165" class="s59" d="m596.6 527.3v-10.6l5.3 2.7 1.3 6.6z"/>
		<path id="Path 166" class="s60" d="m485.4 518l2.7-1.3 1.3 2.7v7.9h-7.9z"/>
		<path id="Path 167" class="s42" d="m240.7 522l5.3-6.6h5.3v2.6l-2.6 15.9-6.6 5.3-6.7-4z"/>
		<path id="Path 168" class="s51" d="m123 518l6.6-2.6 5.3 5.3v6.6l-2.6 2.7z"/>
		<path id="Path 169" class="s51" d="m859.8 515.4l7.9-1.3v5.3l-7.9 5.3h-2.7z"/>
		<path id="Path 170" class="s35" d="m714.3 519.4v-5.3l13.2 2.6 1.3 5.3z"/>
		<path id="Path 171" class="s56" d="m698.4 519.4l2.7-5.3h13.2v5.3l-9.3 7.9h-6.6z"/>
		<path id="Path 172" class="s25" d="m463 524.7l3.9-10.6 18.5 3.9-3.9 9.3h-1.3z"/>
		<path id="Path 173" class="s25" d="m394.2 532.6l2.6-18.5h4 2.6 9.3l1.3 23.8-3.9 9.3-2.7 9.2h-7.9l2.6-17.2-7.9-2.6z"/>
		<path id="Path 174" class="s22" d="m329.4 528.6l2.6-14.5h7.9l-7.9 14.5z"/>
		<path id="Path 175" class="s24" d="m267.2 524.7v-10.6h10.6v7.9l-8 4z"/>
		<path id="Path 176" class="s47" d="m238.1 515.4h7.9l-5.3 6.6-2.6-5.3z"/>
		<path id="Path 177" class="s61" d="m216.9 535.2l-1.3-21.1h15.9l6.6 2.6 2.6 5.3-5.3 13.2-3.9 4-8 6.6-3.9-5.3z"/>
		<path id="Path 178" class="s46" d="m161.4 524.7l6.6-10.6h9.2l6.7 15.9h-11.9-2.7l-2.6-5.3z"/>
		<path id="Path 179" class="s32" d="m750 519.4h-5.3l1.3-6.7h8v6.7z"/>
		<path id="Path 180" class="s9" d="m277.8 522l7.9-9.3h5.3l1.3 14.6-3.9 9.3-5.3 2.6-2.7-6.6h-9.2l-1.4-6.6z"/>
		<path id="Path 181" class="s35" d="m754 512.7l2.6-1.3h8l2.6 9.3-7.9 1.3-5.3-2.6z"/>
		<path id="Path 182" class="s50" d="m608.5 526v-13.3l5.3-1.3h10.5l2.7 5.3-1.3 9.3h-1.4l-13.2 1.3z"/>
		<path id="Path 183" class="s41" d="m576.7 540.5v-27.8l9.3-1.3 10.6 5.3v10.6l-1.4 7.9h-13.2l-1.3 5.3-1.3 2.7z"/>
		<path id="Path 184" class="s57" d="m523.8 512.7l4-1.3 6.6 1.3v19.9l-6.6-1.3v-8l-4-2.6z"/>
		<path id="Path 185" class="s36" d="m291 512.7l10.6-1.3 1.3 8-4 7.9h-6.6z"/>
		<path id="Path 186" class="s33" d="m231.5 514.1l3.9-2.7 2.7 4v1.3z"/>
		<path id="Path 187" class="s62" d="m195.8 528.6l6.6-17.2 13.2 2.7 1.3 21.1-18.5 5.3z"/>
		<path id="Path 188" class="s46" d="m664 511.4l10.6-1.3 2.6 10.6-2.6 6.6h-9.3l-3.9-2.6z"/>
		<path id="Path 189" class="s37" d="m366.4 516.7v-5.3l4-1.3h7.9l2.7 4 2.6 18.5-2.6 1.3-10.6-1.3z"/>
		<path id="Path 190" class="s34" d="m339.9 514.1l4-4h2.7l10.5 22.5-7.9 13.2h-2.6l-2.7-9.2-6.6 5.3h-5.3v-13.3z"/>
		<path id="Path 191" class="s37" d="m97.9 514.1v-4l13.2 2.6 2.7 6.7h-13.3z"/>
		<path id="Path 192" class="s21" d="m793.7 512.7l6.6-3.9h14.5 2.7v10.6h-25.2z"/>
		<path id="Path 193" class="s34" d="m403.4 514.1l1.4-5.3h5.3l2.6 5.3z"/>
		<path id="Path 194" class="s23" d="m396.8 514.1l-1.3-5.3h5.3v5.3z"/>
		<path id="Path 195" class="s36" d="m131 512.7l5.2-3.9 6.7 1.3 2.6 4h13.2v11.9l-2.6 4-21.2-2.7v-6.6l-5.3-5.3z"/>
		<path id="Path 196" class="s21" d="m76.7 510.1l4-1.3 17.2 5.3 2.6 5.3v9.2l-9.2 1.4-13.3-2.7-9.2-4v-9.2z"/>
		<path id="Path 197" class="s37" d="m563.5 524.7l6.6-17.3h15.9v4l-9.3 1.3v27.8h-5.3l-7.9-3.9z"/>
		<path id="Path 198" class="s37" d="m444.4 510.1l13.3-1.3 1.3 6.6-6.6 6.6 1.3 5.3h-4l-5.3-1.3z"/>
		<path id="Path 199" class="s51" d="m42.3 518v-10.6l8 1.4 13.2 2.6 5.3 2.7v9.2l-8 2.7z"/>
		<path id="Path 200" class="s38" d="m773.8 520.7l4-14.6 11.9 2.7 4 3.9-1.4 6.7-13.2 2.6z"/>
		<path id="Path 201" class="s20" d="m756.6 511.4v-5.3h9.3l-1.3 5.3z"/>
		<path id="Path 202" class="s36" d="m746 512.7v-6.6h8 2.6v5.3l-2.6 1.3z"/>
		<path id="Path 203" class="s38" d="m727.5 516.7l6.6-10.6h11.9v6.6l-1.3 6.7h5.3l-5.3 3.9-1.3 13.3-4 1.3-10.6-15.9z"/>
		<path id="Path 204" class="s23" d="m466.9 514.1l4-8h13.2l4 10.6-2.7 1.3z"/>
		<path id="Path 205" class="s43" d="m31.7 514.1v-8l10.6 1.3v10.6z"/>
		<path id="Path 206" class="s45" d="m334.7 506.1l9.2-1.3v5.3l-4 4h-7.9z"/>
		<path id="Path 207" class="s49" d="m142.9 506.1l10.5-1.3 5.3 1.3v8h-13.2l-2.6-4z"/>
		<path id="Path 208" class="s26" d="m80.7 508.8v-4h6.6l10.6 5.3v4z"/>
		<path id="Path 209" class="s15" d="m76.7 510.1l2.7-5.3h1.3v4z"/>
		<path id="Path 210" class="s15" d="m833.3 504.8h22.5l4 10.6-2.7 9.3-39.6-5.3v-10.6l10.5 2.6z"/>
		<path id="Path 211" class="s56" d="m789.7 508.8l4-5.3h5.2l1.4 5.3-6.6 3.9z"/>
		<path id="Path 212" class="s48" d="m701.1 514.1v-10.6h9.2l4 10.6z"/>
		<path id="Path 213" class="s20" d="m14.6 506.1l10.5-2.6 6.6 2.6v8h-6.6z"/>
		<path id="Path 214" class="s25" d="m674.6 510.1l4-8 10.6 2.7 1.3 14.6-1.3 7.9-6.7 7.9h-7.9v-7.9l2.6-6.6z"/>
		<path id="Path 215" class="s41" d="m527.8 511.4v-9.3h13.2l4 6.7 9.2 3.9 2.7 12h6.6v11.9l-9.3 18.5h-2.6l-6.6-1.3v-6.6h-5.3l-5.3-4v-10.6-19.9z"/>
		<path id="Path 216" class="s46" d="m318.8 506.1l5.3-4 10.6 4-2.7 8-2.6 14.5-5.3 2.7-6.6-2.7v-6.6z"/>
		<path id="Path 217" class="s22" d="m179.9 503.5l7.9-1.4 2.7 22.6-2.7 6.6-3.9-1.3-6.7-15.9h-9.2l-6.6 10.6-2.7 1.3v-11.9-8z"/>
		<path id="Path 218" class="s32" d="m115.1 503.5l6.6-1.4 9.3 10.6-1.4 2.7-6.6 2.6-9.2 1.4-2.7-6.7z"/>
		<path id="Path 219" class="s36" d="m50.3 508.8v-6.7l13.2 1.4v7.9z"/>
		<path id="Path 220" class="s56" d="m814.8 508.8v-8h8 7.9l2.6 4-5.3 6.6-10.5-2.6z"/>
		<path id="Path 221" class="s63" d="m277.8 514.1l2.6-13.3h5.3v11.9l-7.9 9.3z"/>
		<path id="Path 222" class="s41" d="m87.3 504.8v-4h18.5l9.3 2.7-4 9.2-13.2-2.6z"/>
		<path id="Path 223" class="s43" d="m66.1 502.1l9.3-1.3 4 4-2.7 5.3-7.9 4-5.3-2.7v-7.9z"/>
		<path id="Path 224" class="s31" d="m518.5 503.5l2.7-4 6.6 2.6v9.3l-4 1.3-4-1.3z"/>
		<path id="Path 225" class="s50" d="m855.8 500.8l9.3-2.6 7.9 2.6 1.3 9.3 5.3 1.3v8h-11.9v-5.3l-7.9 1.3-4-10.6z"/>
		<path id="Path 226" class="s47" d="m269.8 499.5l1.4-1.3 9.2 2.6-2.6 13.3h-10.6z"/>
		<path id="Path 227" class="s63" d="m121.7 502.1l1.3-3.9h5.3l5.3 1.3 9.3 6.6v4l-6.7-1.3-5.2 3.9z"/>
		<path id="Path 228" class="s23" d="m346.6 500.8v-3.9h3.9l1.4 3.9 9.2 1.3 1.3 14.6h4l4 15.9-4 1.3-9.3-1.3-10.5-22.5z"/>
		<path id="Path 229" class="s46" d="m777.8 506.1v-10.6h2.6 11.9l1.4 8-4 5.3z"/>
		<path id="Path 230" class="s48" d="m436.5 496.9l5.3-1.4v9.3l-5.3-1.3z"/>
		<path id="Path 231" class="s7" d="m386.2 496.9l8-1.4v13.3l-8-1.4z"/>
		<path id="Path 232" class="s41" d="m370.4 510.1v-9.3l5.3-5.3 10.5 1.4v10.5l8 1.4h1.3l1.3 5.3-2.6 18.5h-10.6l-2.6-18.5-2.7-4z"/>
		<path id="Path 233" class="s34" d="m246 515.4v-19.9l8 8-2.7 11.9z"/>
		<path id="Path 234" class="s10" d="m179.9 503.5v-8h7.9v6.6z"/>
		<path id="Path 235" class="s48" d="m128.3 498.2v-2.7h5.3v4z"/>
		<path id="Path 236" class="s23" d="m492.1 519.4l3.9-25.2h6.6l10.6 9.3h5.3l1.3 7.9 4 1.3v8l-4 9.3 8 1.3 6.6 1.3v10.6l5.3 4v6.6l-2.7 10.6h-17.2v6.6l-6.6 1.3-3.9-19.8-19.9-1.4-6.6-1.3 6.6-19.8 6.6-1.4v-7.9z"/>
		<path id="Path 237" class="s47" d="m9.3 498.2l9.2-4h4l2.6 9.3-10.5 2.6z"/>
		<path id="Path 238" class="s61" d="m873 500.8l2.7-7.9 3.9 9.2v9.3l-5.3-1.3z"/>
		<path id="Path 239" class="s48" d="m814.8 495.5l2.7-2.6 5.3 1.3v6.6h-8z"/>
		<path id="Path 240" class="s47" d="m754 495.5l9.2-2.6 14.6 2.6v10.6l-4 14.6h-6.6l-2.6-9.3 1.3-5.3h-9.3-2.6z"/>
		<path id="Path 241" class="s48" d="m470.9 506.1l2.6-13.2 10.6 2.6v10.6z"/>
		<path id="Path 242" class="s9" d="m66.1 502.1l1.4-9.2 10.5 2.6 9.3 5.3v4h-6.6-1.3l-4-4z"/>
		<path id="Path 243" class="s34" d="m22.5 494.2l1.3-2.6 19.9 1.3 6.6 9.2v6.7l-8-1.4-10.6-1.3-6.6-2.6z"/>
		<path id="Path 244" class="s55" d="m936.5 502.1l-5.3-1.3v-10.6h9.3z"/>
		<path id="Path 245" class="s45" d="m346.6 500.8h-8l2.7-10.6h10.6l-1.4 6.7h-3.9z"/>
		<path id="Path 246" class="s49" d="m246 495.5v-5.3h8l11.9 4 3.9 5.3-2.6 14.6v10.6h-2.6l-13.3-6.7v-2.6l2.7-11.9z"/>
		<path id="Path 247" class="s64" d="m202.4 511.4l-1.3-17.2 9.2-4h6.6v11.9l10.6 4 9.3 1.3-1.4 4-3.9 2.7h-15.9z"/>
		<path id="Path 248" class="s23" d="m153.4 496.9l5.3-6.7 21.2 5.3v8l-21.2 2.6-5.3-1.3z"/>
		<path id="Path 249" class="s52" d="m133.6 491.6l14.5-1.4 5.3 6.7v7.9l-10.5 1.3-9.3-6.6v-4z"/>
		<path id="Path 250" class="s28" d="m18.5 494.2v-4l5.3 1.4-1.3 2.6z"/>
		<path id="Path 251" class="s65" d="m915.3 548.5l-10.5-42.4 1.3-17.2 10.6 4 5.3 15.9 10.5 7.9 5.3 10.6-1.3 6.6 7.9 6.6 15.9 23.9z"/>
		<path id="Path 252" class="s25" d="m78 495.5l1.4-6.6h2.6l10.6 1.3 7.9 1.4 5.3 1.3v7.9h-18.5z"/>
		<path id="Path 253" class="s66" d="m9.3 498.2l2.6-9.3 6.6 1.3v4z"/>
		<path id="Path 254" class="s67" d="m940.5 490.2l6.6-2.6 23.8 37.1-1.3 5.3h-22.5l-9.3-2.7-5.3-10.6 4-14.6z"/>
		<path id="Path 255" class="s23" d="m792.3 495.5v-7.9h6.6l5.3 7.9h5.3 5.3v5.3 8h-14.5l-1.4-5.3h-5.2z"/>
		<path id="Path 256" class="s68" d="m216.9 490.2l1.4-2.6h3.9l2.7 5.3 11.9 1.3-9.3 11.9-10.6-4z"/>
		<path id="Path 257" class="s52" d="m496 494.2l-1.3-7.9h5.3l2.6 7.9z"/>
		<path id="Path 258" class="s39" d="m63.5 488.9l1.3-2.6h6.6l8 2.6-1.4 6.6-10.5-2.6z"/>
		<path id="Path 259" class="s41" d="m817.5 492.9l5.3-8h10.5 11.9l2.7 10.6 7.9 5.3v4h-22.5l-2.6-4h-7.9v-6.6z"/>
		<path id="Path 260" class="s9" d="m727.5 494.2v-9.3h10.6l7.9 21.2h-11.9z"/>
		<path id="Path 261" class="s48" d="m351.9 490.2l2.6-5.3 9.3 2.7-2.7 14.5-9.2-1.3-1.4-3.9z"/>
		<path id="Path 262" class="s7" d="m285.7 487.6l4-2.7 6.6 1.4 5.3 25.1-10.6 1.3h-5.3v-11.9z"/>
		<path id="Path 263" class="s7" d="m210.3 490.2l4-5.3 4 2.7-1.4 2.6z"/>
		<path id="Path 264" class="s24" d="m100.5 491.6l4-5.3 9.3-1.4h3.9l10.6 10.6v2.7h-5.3l-1.3 3.9-6.6 1.4-9.3-2.7v-7.9z"/>
		<path id="Path 265" class="s48" d="m254 490.2v-6.6h11.9v10.6z"/>
		<path id="Path 266" class="s69" d="m222.2 487.6l8-4h11.9l3.9 6.6v5.3 19.9h-7.9l-2.7-4 1.4-4-9.3-1.3 9.3-11.9-11.9-1.3z"/>
		<path id="Path 267" class="s70" d="m888.9 484.9l15.9-2.6 1.3 6.6-1.3 17.2 10.5 42.4-33-14.6-2.7-14.5v-8-9.3l9.3-6.6z"/>
		<path id="Path 268" class="s45" d="m363.8 487.6l3.9-5.3h5.3l2.7 13.2-5.3 5.3v9.3l-4 1.3v5.3h-4l-1.3-14.6z"/>
		<path id="Path 269" class="s41" d="m298.9 484.9l13.3-2.6h3.9l2.7 23.8-1.3 15.9h-8l-6.6-2.6-1.3-8-5.3-25.1z"/>
		<path id="Path 270" class="s9" d="m271.2 498.2l1.3-15.9h5.3l7.9 5.3v13.2h-5.3z"/>
		<path id="Path 271" class="s40" d="m265.9 483.6l1.3-1.3h5.3l-1.3 15.9-1.4 1.3-3.9-5.3z"/>
		<path id="Path 272" class="s46" d="m63.5 488.9l-6.6-1.3-1.3-5.3h3.9l5.3 4z"/>
		<path id="Path 273" class="s41" d="m324.1 502.1l9.2-21.1 8 1.3v7.9l-2.7 10.6h8v9.3h-2.7v-5.3l-9.2 1.3z"/>
		<path id="Path 274" class="s71" d="m123 482.3l10.6-1.3 2.6 3.9-2.6 6.7v3.9h-5.3l-10.6-10.6 1.3-1.3z"/>
		<path id="Path 275" class="s66" d="m82 488.9l1.3-7.9h9.3v9.2z"/>
		<path id="Path 276" class="s41" d="m754 495.5v-15.9l10.6 2.7-1.4 10.6z"/>
		<path id="Path 277" class="s53" d="m341.3 482.3l6.6-2.7h6.6v5.3l-2.6 5.3h-10.6z"/>
		<path id="Path 278" class="s60" d="m316.1 482.3v-2.7h6.7 10.5v1.4l-9.2 21.1-5.3 4z"/>
		<path id="Path 279" class="s52" d="m316.1 479.6v2.7h-3.9v-2.7z"/>
		<path id="Path 280" class="s28" d="m71.4 486.3v-6.7l11.9 1.4-1.3 7.9h-2.6z"/>
		<path id="Path 281" class="s52" d="m59.5 482.3l1.3-2.7h8 2.6v6.7h-6.6z"/>
		<path id="Path 282" class="s24" d="m34.4 484.9v-5.3h10.6l10.6 2.7 1.3 5.3 6.6 1.3 4 4-1.4 9.2-2.6 1.4-13.2-1.4-6.6-9.2h5.2l-2.6-4z"/>
		<path id="Path 283" class="s72" d="m254 483.6h-6.6l-1.4-5.3h1.4 6.6z"/>
		<path id="Path 284" class="s44" d="m727.5 494.2l-7.9-4v-13.2h3.9l4 7.9z"/>
		<path id="Path 285" class="s44" d="m242.1 483.6v-6.6l3.9 1.3 1.4 5.3h6.6v6.6h-8z"/>
		<path id="Path 286" class="s73" d="m123 482.3l1.3-5.3h6.7l2.6 4z"/>
		<path id="Path 287" class="s34" d="m34.4 484.9l-11.9-7.9h7.9l4 2.6z"/>
		<path id="Path 288" class="s9" d="m473.5 477l5.3-1.3 8 1.3 7.9 9.3 1.3 7.9-3.9 25.2h-2.7l-1.3-2.7-4-10.6v-10.6l-10.6-2.6v-10.6z"/>
		<path id="Path 289" class="s7" d="m367.7 482.3l2.7-6.6 2.6 1.3v5.3z"/>
		<path id="Path 290" class="s74" d="m931.2 490.2v-15.9h13.2l2.7 13.3-6.6 2.6z"/>
		<path id="Path 291" class="s28" d="m809.5 495.5v-21.2h13.3v10.6l-5.3 8-2.7 2.6z"/>
		<path id="Path 292" class="s75" d="m740.7 475.7l8-1.4 5.3 5.3v15.9 10.6h-8l-7.9-21.2z"/>
		<path id="Path 293" class="s28" d="m601.9 479.6l3.9-5.3h5.3l2.7 13.3-2.7 10.6-7.9-2.7z"/>
		<path id="Path 294" class="s7" d="m436.5 496.9l-7.9-8 1.3-14.6h6.6l5.3 4v17.2z"/>
		<path id="Path 295" class="s28" d="m392.9 481l1.3-6.7h13.2l2.7 34.5h-5.3l-1.4 5.3h-2.6v-5.3h-5.3-1.3v-13.3z"/>
		<path id="Path 296" class="s13" d="m131 477l5.2-2.7 2.7 2.7-2.7 7.9-2.6-3.9z"/>
		<path id="Path 297" class="s11" d="m119 483.6l2.7-9.3 2.6 2.7-1.3 5.3z"/>
		<path id="Path 298" class="s59" d="m92.6 481l5.3-6.7h7.9l8 2.7v7.9l-9.3 1.4-4 5.3-7.9-1.4z"/>
		<path id="Path 299" class="s76" d="m30.4 477v-4h13.3 1.3v6.6h-10.6z"/>
		<path id="Path 300" class="s59" d="m22.5 477l-1.3-2.7 9.2-1.3v4z"/>
		<path id="Path 301" class="s49" d="m822.8 474.3l9.2-2.6 1.3 13.2h-10.5z"/>
		<path id="Path 302" class="s44" d="m798.9 473l10.6 1.3v21.2h-5.3l-5.3-7.9z"/>
		<path id="Path 303" class="s9" d="m792.3 487.6l-1.3-15.9 7.9 1.3v14.6z"/>
		<path id="Path 304" class="s75" d="m776.5 473l1.3-1.3h13.2l1.3 15.9v7.9h-11.9v-18.5z"/>
		<path id="Path 305" class="s41" d="m701.1 503.5l-1.4-22.5 10.6-9.3h9.3v5.3 13.2l7.9 4 6.6 11.9-6.6 10.6-13.2-2.6-4-10.6z"/>
		<path id="Path 306" class="s47" d="m392.9 481l-5.3-1.4v-7.9h3.9l2.7 2.6z"/>
		<path id="Path 307" class="s77" d="m298.9 484.9l1.4-13.2h5.3l6.6 7.9v2.7z"/>
		<path id="Path 308" class="s78" d="m68.8 471.7v7.9h-8v-7.9z"/>
		<path id="Path 309" class="s79" d="m45 473l7.9-1.3h7.9v7.9l-1.3 2.7h-3.9l-10.6-2.7z"/>
		<path id="Path 310" class="s32" d="m43.7 473l9.2-1.3-7.9 1.3z"/>
		<path id="Path 311" class="s28" d="m441.8 478.3l11.9-7.9 7.9 1.3 6.7 10.6h5.2v10.6l-2.6 13.2-4 8-3.9 10.6-5.3 2.6h-4l-1.3-5.3 6.6-6.6-1.3-6.6-13.3 1.3-2.6-5.3v-9.3z"/>
		<path id="Path 312" class="s80" d="m80.7 471.7l5.3-1.3h7.9 4v3.9l-5.3 6.7h-9.3l-11.9-1.4h-2.6v-7.9z"/>
		<path id="Path 313" class="s31" d="m723.5 477l1.4-8h13.2l2.6 6.7-2.6 9.2h-10.6z"/>
		<path id="Path 314" class="s63" d="m370.4 471.7l2.6-2.7h5.3v8h-5.3l-2.6-1.3z"/>
		<path id="Path 315" class="s61" d="m354.5 479.6l5.3-10.6 10.6 2.7v4l-2.7 6.6-3.9 5.3-9.3-2.7z"/>
		<path id="Path 316" class="s72" d="m289.7 484.9l5.3-15.9h2.6l2.7 2.7-1.4 13.2-2.6 1.4z"/>
		<path id="Path 317" class="s81" d="m277.8 482.3l2.6-13.3h14.6l-5.3 15.9-4 2.7z"/>
		<path id="Path 318" class="s66" d="m214.3 474.3v-5.3h10.6l5.3 5.3v9.3l-8 4h-3.9l-4-2.7z"/>
		<path id="Path 319" class="s35" d="m93.9 470.4l5.3-1.4-1.3 1.4z"/>
		<path id="Path 320" class="s28" d="m748.7 474.3l2.6-6.6h8 5.3l1.3 5.3h10.6l3.9 4v18.5h-2.6l-14.6-2.6 1.4-10.6-10.6-2.7z"/>
		<path id="Path 321" class="s77" d="m517.2 469l4-1.3h13.2l-2.7 15.9-10.5 6.6z"/>
		<path id="Path 322" class="s52" d="m378.3 469l4-1.3 5.3 4v7.9l5.3 1.4 1.3 14.5-8 1.4-10.5-1.4-2.7-13.2v-5.3h5.3z"/>
		<path id="Path 323" class="s79" d="m99.2 469l6.6-1.3v6.6h-7.9v-3.9z"/>
		<path id="Path 324" class="s7" d="m550.3 467.7l18.5 1.3v18.6l-18.5-10.6z"/>
		<path id="Path 325" class="s9" d="m534.4 467.7v-1.3h7.9v7.9l8 2.7 18.5 10.6 1.3 19.8-6.6 17.3h-6.6l-2.7-12-9.2-3.9-4-6.7h-13.2l-6.6-2.6v-9.3l10.5-6.6z"/>
		<path id="Path 326" class="s60" d="m473.5 477l-5.2-4v-6.6h10.5v9.3z"/>
		<path id="Path 327" class="s59" d="m214.3 474.3h-6.6l-5.3-7.9h11.9v2.6z"/>
		<path id="Path 328" class="s32" d="m187.8 495.5l-2.6-29.1h15.9 1.3l5.3 7.9h6.6v10.6l-4 5.3-9.2 4 1.3 17.2-6.6 17.2-5.3-3.9-2.7-22.6z"/>
		<path id="Path 329" class="s75" d="m148.1 490.2l-2.6-13.2 4-9.3 35.7-1.3 2.6 29.1h-7.9l-21.2-5.3-5.3 6.7z"/>
		<path id="Path 330" class="s9" d="m579.4 466.4l10.5-1.3 1.4 13.2 10.6 1.3 1.3 15.9h-13.3l-6.6-5.3z"/>
		<path id="Path 331" class="s52" d="m568.8 469l1.3-3.9 9.3 1.3 3.9 23.8 6.6 5.3h13.3l7.9 2.7 2.7 13.2-5.3 1.3v13.3l-2.7 1.3-2.6-1.3-1.3-6.6-5.3-2.7-10.6-5.3v-4h-15.9l-1.3-19.8z"/>
		<path id="Path 332" class="s77" d="m542.3 466.4l2.7-1.3 5.3 2.6v9.3l-8-2.7z"/>
		<path id="Path 333" class="s52" d="m407.4 474.3l5.3-9.2h15.9l1.3 9.2-1.3 14.6 7.9 8v6.6l5.3 1.3 2.6 5.3v15.9l-9.2 6.6v7.9l-15.9 2.7-5.3-5.3-1.3-23.8-2.6-5.3z"/>
		<path id="Path 334" class="s60" d="m605.8 474.3l-5.3-1.3 1.4-9.2 7.9 1.3 1.3 9.2z"/>
		<path id="Path 335" class="s52" d="m589.9 465.1l2.7-1.3h7.9 1.4l-1.4 9.2 5.3 1.3-3.9 5.3-10.6-1.3z"/>
		<path id="Path 336" class="s48" d="m501.3 466.4l4-2.6h10.6l1.3 5.2 4 21.2v9.3l-2.7 4h-5.3l-10.6-9.3-2.6-7.9z"/>
		<path id="Path 337" class="s69" d="m347.9 479.6l4-15.8h6.6l1.3 5.2-5.3 10.6z"/>
		<path id="Path 338" class="s49" d="m254 478.3l6.6-14.5 5.3 1.3 1.3 17.2-1.3 1.3h-11.9z"/>
		<path id="Path 339" class="s80" d="m105.8 467.7l13.2-5.3 2.7 11.9-2.7 9.3-1.3 1.3h-3.9v-7.9l-8-2.7z"/>
		<path id="Path 340" class="s68" d="m875.7 492.9l-5.3-31.8h7.9l5.3 19.9 5.3 3.9v10.6l-9.3 6.6z"/>
		<path id="Path 341" class="s28" d="m846.6 463.8l7.9-2.7h15.9l5.3 31.8-2.7 7.9-7.9-2.6-9.3 2.6-7.9-5.3-2.7-10.6h-11.9l-1.3-13.2z"/>
		<path id="Path 342" class="s60" d="m679.9 469v-7.9h13.2l15.9 5.3 1.3 5.3-10.6 9.3 1.4 22.5v10.6l-2.7 5.3h-7.9l-1.3-14.6 6.6-1.3v-11.9l-9.3-8z"/>
		<path id="Path 343" class="s31" d="m679.9 461.1v7.9h-5.3v-7.9z"/>
		<path id="Path 344" class="s28" d="m634.9 479.6l-13.2-5.3-1.3-13.2h6.6l7.9 2.7z"/>
		<path id="Path 345" class="s41" d="m609.8 465.1l1.3-4h9.3l1.3 13.2 13.2 5.3 13.2 9.3 2.7 9.3h6.6l6.6 6.6v6.6l-2.6 13.3-23.8 1.3h-2.7v-6.6l-7.9-2.7-2.7-5.3h-10.5l-2.7-13.2 2.7-10.6-2.7-13.3z"/>
		<path id="Path 346" class="s7" d="m486.8 477v-15.9h5.3l9.2 5.3-1.3 19.9h-5.3z"/>
		<path id="Path 347" class="s52" d="m478.8 466.4v-5.3h8v15.9l-8-1.3z"/>
		<path id="Path 348" class="s40" d="m428.6 465.1v-4h13.2l-5.3 13.2h-6.6z"/>
		<path id="Path 349" class="s82" d="m336 465.1l3.9-4 12 2.7-4 15.8-6.6 2.7-8-1.3v-1.4z"/>
		<path id="Path 350" class="s76" d="m322.8 479.6v-18.5h10.5l2.7 4-2.7 14.5z"/>
		<path id="Path 351" class="s7" d="m280.4 469v-7.9h5.3 13.2l-1.3 7.9h-2.6z"/>
		<path id="Path 352" class="s22" d="m265.9 465.1l3.9-4h10.6v7.9l-2.6 13.3h-5.3-5.3z"/>
		<path id="Path 353" class="s9" d="m634.9 463.8l9.3-4 18.5 2.6 1.3 11.9h9.3l1.3-5.3h5.3l6.6 14.6 9.3 8v11.9l-6.6 1.3-10.6-2.7-4 8-10.6 1.3v-6.6l-6.6-6.6h-6.6l-2.7-9.3-13.2-9.3z"/>
		<path id="Path 354" class="s78" d="m777.8 471.7l1.3-13.2h11.9v13.2z"/>
		<path id="Path 355" class="s72" d="m453.7 470.4v-11.9h4l10.6 7.9v6.6l5.2 4v5.3h-5.2l-6.7-10.6z"/>
		<path id="Path 356" class="s83" d="m313.5 461.1l9.3-2.6v2.6 18.5h-6.7-3.9l-6.6-7.9v-6.6h6.6z"/>
		<path id="Path 357" class="s59" d="m764.6 467.7v-10.6l14.5 1.4-1.3 13.2-1.3 1.3h-10.6z"/>
		<path id="Path 358" class="s83" d="m358.5 463.8l2.6-5.3 7.9-1.4 4 11.9-2.6 2.7-10.6-2.7z"/>
		<path id="Path 359" class="s78" d="m759.3 467.7v-11.9l5.3 1.3v10.6z"/>
		<path id="Path 360" class="s76" d="m627 461.1v-5.3h7.9v8z"/>
		<path id="Path 361" class="s80" d="m534.4 466.4v-10.6h9.3l1.3 9.3-2.7 1.3z"/>
		<path id="Path 362" class="s72" d="m521.2 457.1l6.6-1.3h6.6v10.6 1.3h-13.2z"/>
		<path id="Path 363" class="s7" d="m382.3 467.7v-9.2l7.9-2.7 1.3 15.9h-3.9z"/>
		<path id="Path 364" class="s76" d="m298.9 461.1l1.4-5.3h6.6l6.6 5.3-1.3 4h-6.6v6.6h-5.3l-2.7-2.7z"/>
		<path id="Path 365" class="s79" d="m174.6 457.1l14.6-1.3h6.6 5.3v10.6h-15.9l-35.7 1.3-4 9.3 2.6 13.2-14.5 1.4 2.6-6.7 2.7-7.9-2.7-2.7-5.2 2.7h-6.7l-2.6-2.7-2.7-11.9 13.3-3.9h27.8l6.6-1.4z"/>
		<path id="Path 366" class="s69" d="m201.1 455.8l1.3-1.3h9.2 2.7v11.9h-11.9-1.3z"/>
		<path id="Path 367" class="s24" d="m195.8 455.8l6.6-1.3-1.3 1.3z"/>
		<path id="Path 368" class="s76" d="m846.6 463.8v-10.6h5.3l2.6 7.9z"/>
		<path id="Path 369" class="s83" d="m600.5 453.2v10.6h-7.9v-10.6z"/>
		<path id="Path 370" class="s45" d="m521.2 457.1v-3.9l6.6 2.6z"/>
		<path id="Path 371" class="s83" d="m441.8 461.1l2.6-7.9 9.3 5.3v11.9l-11.9 7.9-5.3-4z"/>
		<path id="Path 372" class="s77" d="m412.7 465.1v-11.9h5.3l6.6 1.3 4 6.6v4z"/>
		<path id="Path 373" class="s24" d="m211.6 454.5l5.3-1.3-2.6 1.3z"/>
		<path id="Path 374" class="s76" d="m224.9 453.2l3.9-1.4h6.6 2.7l2.6 2.7 6.7 23.8h-1.4l-3.9-1.3v6.6h-11.9v-9.3l-5.3-5.3h-10.6v-2.6-11.9l2.6-1.3z"/>
		<path id="Path 375" class="s72" d="m600.5 453.2l2.7-2.7 5.3 1.3 2.6 9.3-1.3 4-7.9-1.3h-1.4z"/>
		<path id="Path 376" class="s78" d="m492.1 461.1l3.9-10.6h9.3v13.3l-4 2.6z"/>
		<path id="Path 377" class="s72" d="m390.2 455.8l4-5.3 18.5 2.7v11.9l-5.3 9.2h-13.2l-2.7-2.6z"/>
		<path id="Path 378" class="s78" d="m238.1 451.8l1.3-1.3h4l-2.7 4z"/>
		<path id="Path 379" class="s34" d="m235.4 451.8l4-1.3-1.3 1.3z"/>
		<path id="Path 380" class="s79" d="m818.8 455.8l26.4-6.6 1.4 4v10.6l-14.6 7.9-9.2 2.6h-13.3l-10.6-1.3-7.9-1.3v-13.2h1.3z"/>
		<path id="Path 381" class="s72" d="m568.8 461.1l-10.6-4v-7.9l10.6 2.6z"/>
		<path id="Path 382" class="s63" d="m545 450.5l13.2-1.3v7.9l10.6 4 1.3 4-1.3 3.9-18.5-1.3-5.3-2.6-1.3-9.3z"/>
		<path id="Path 383" class="s63" d="m505.3 450.5l11.9-1.3 4 4v3.9 10.6l-4 1.3-1.3-5.2h-10.6z"/>
		<path id="Path 384" class="s77" d="m243.4 450.5l10.6-1.3v6.6l6.6 8-6.6 14.5h-6.6l-6.7-23.8z"/>
		<path id="Path 385" class="s33" d="m634.9 455.8l1.3-7.9 8 3.9v8l-9.3 4z"/>
		<path id="Path 386" class="s79" d="m269.8 453.2l2.7-5.3h13.2v13.2h-5.3-10.6z"/>
		<path id="Path 387" class="s66" d="m269.8 453.2l-2.6-5.3h5.3z"/>
		<path id="Path 388" class="s80" d="m254 449.2l13.2-1.3 2.6 5.3v7.9l-3.9 4-5.3-1.3-6.6-8z"/>
		<path id="Path 389" class="s67" d="m845.2 449.2l5.3-2.7 1.4 6.7h-5.3z"/>
		<path id="Path 390" class="s76" d="m693.1 450.5l-1.3-4 5.3 1.4z"/>
		<path id="Path 391" class="s73" d="m287 447.9l9.3-1.4h9.3 1.3v9.3h-6.6l-1.4 5.3h-13.2v-13.2z"/>
		<path id="Path 392" class="s24" d="m305.6 446.5l14.5-1.3-13.2 1.3z"/>
		<path id="Path 393" class="s79" d="m320.1 445.2l45-1.3h10.6 11.9 6.6v6.6l-4 5.3-7.9 2.7v9.2l-4 1.3h-5.3l-4-11.9-7.9 1.4-2.6 5.3h-6.6l-12-2.7-3.9 4-2.7-4h-10.5v-2.6l-9.3 2.6-6.6-5.3v-9.3z"/>
		<path id="Path 394" class="s63" d="m697.1 447.9l6.6-5.3h7.9l4 2.6 1.3 18.6 8 5.2-1.4 8h-3.9v-5.3h-9.3l-1.3-5.3-15.9-5.3v-10.6z"/>
		<path id="Path 395" class="s73" d="m394.2 443.9v-1.3h23.8v10.6h-5.3l-18.5-2.7z"/>
		<path id="Path 396" class="s35" d="m387.6 443.9l6.6-1.3v1.3z"/>
		<path id="Path 397" class="s84" d="m878.3 445.2h9.3l7.9-5.3 15.9 1.3-1.3 13.3-5.3 6.6v21.2l-15.9 2.6-5.3-3.9-5.3-19.9z"/>
		<path id="Path 398" class="s73" d="m444.4 453.2v-13.3h13.3 5.3l-5.3 18.6h-4z"/>
		<path id="Path 399" class="s79" d="m418 442.6l26.4-2.7v13.3l-2.6 7.9h-13.2l-4-6.6-6.6-1.3z"/>
		<path id="Path 400" class="s35" d="m457.7 439.9l6.6-1.3-1.3 1.3z"/>
		<path id="Path 401" class="s66" d="m691.8 446.5v-9.2h11.9v5.3l-6.6 5.3z"/>
		<path id="Path 402" class="s80" d="m711.6 442.6v-8l15.9 2.7 9.3 6.6 10.6 1.3 3.9 4v5.3l8 1.3v11.9h-8l-2.6 6.6-8 1.4-2.6-6.7h-13.2l-8-5.2-1.3-18.6z"/>
		<path id="Path 403" class="s79" d="m527.8 435.9l6.6-1.3h10.6v15.9l-1.3 5.3h-9.3-6.6l-6.6-2.6-4-4-11.9 1.3h-9.3l-3.9 10.6h-5.3-8v5.3h-10.5l-10.6-7.9 5.3-18.6 1.3-1.3h10.6l6.6-1.3z"/>
		<path id="Path 404" class="s78" d="m703.7 437.3v-4l7.9 1.3v8h-7.9z"/>
		<path id="Path 405" class="s80" d="m558.2 449.2v-15.9h27.8 2.6l4 19.9v10.6l-2.7 1.3-10.5 1.3-9.3-1.3-1.3-4v-9.3z"/>
		<path id="Path 406" class="s78" d="m545 434.6l13.2-1.3v15.9l-13.2 1.3z"/>
		<path id="Path 407" class="s85" d="m931.2 474.3l5.3-42.3h15.9v5.3l7.9 5.3-15.9 31.7z"/>
		<path id="Path 408" class="s59" d="m588.6 433.3l5.3-1.3h9.3v18.5l-2.7 2.7h-7.9z"/>
		<path id="Path 409" class="s24" d="m586 433.3l7.9-1.3-5.3 1.3z"/>
		<path id="Path 410" class="s80" d="m603.2 432l21.1-1.3 2.7 25.1v5.3h-6.6-9.3l-2.6-9.3-5.3-1.3z"/>
		<path id="Path 411" class="s86" d="m850.5 446.5l25.2-17.2 2.6 15.9v15.9h-7.9-15.9l-2.6-7.9z"/>
		<path id="Path 412" class="s33" d="m750 434.6l9.3-5.3h5.3l-13.3 19.9-3.9-4z"/>
		<path id="Path 413" class="s78" d="m624.3 430.7l8-1.4 3.9 18.6-1.3 7.9h-7.9z"/>
		<path id="Path 414" class="s79" d="m687.8 429.3l-2.6 8h-5.3l-2.7-10.6h5.3z"/>
		<path id="Path 415" class="s80" d="m668 446.5l4-5.3-2.7-14.5h7.9l2.7 10.6h5.3l2.6-8h8l7.9 4v4h-11.9v9.2l1.3 4v10.6h-13.2-5.3l-6.6-5.3z"/>
		<path id="Path 416" class="s59" d="m632.3 429.3l10.6-2.6 15.8 19.8h9.3v9.3l6.6 5.3v7.9l-1.3 5.3h-9.3l-1.3-11.9-18.5-2.6v-8l-8-3.9z"/>
		<path id="Path 417" class="s87" d="m911.4 441.2l10.6-5.3 1.3-7.9 5.3-2.6h5.3l2.6 6.6-5.3 42.3v15.9 10.6l5.3 1.3-4 14.6-10.5-7.9-5.3-15.9-10.6-4-1.3-6.6v-21.2l5.3-6.6z"/>
		<path id="Path 418" class="s2" d="m952.4 432v-8h14.5l-6.6 18.6-7.9-5.3z"/>
		<path id="Path 419" class="s40" d="m759.3 429.3v-7.9h10.5l-5.2 7.9z"/>
		<path id="Path 420" class="s66" d="m642.9 426.7l7.9-5.3 2.6 4h8l7.9 1.3 2.7 14.5-4 5.3h-9.3z"/>
		<path id="Path 421" class="s68" d="m695.8 421.4l5.3-2.7 21.1 2.7 5.3 15.9-15.9-2.7-7.9-1.3-7.9-4z"/>
		<path id="Path 422" class="s71" d="m682.5 426.7l2.7-8 10.6 2.7v7.9h-8z"/>
		<path id="Path 423" class="s82" d="m750 434.6l-9.3-10.6v-7.9h10.6l8 5.3v7.9z"/>
		<path id="Path 424" class="s88" d="m875.7 429.3l27.7-15.9 6.7 4 11.9-4 6.6 5.3v6.7l-5.3 2.6-1.3 7.9-10.6 5.3-15.9-1.3-7.9 5.3h-9.3z"/>
		<path id="Path 425" class="s27" d="m723.5 414.8l9.3-4 7.9 5.3v7.9l9.3 10.6-2.6 10.6-10.6-1.3-9.3-6.6-5.3-15.9z"/>
		<path id="Path 426" class="s3" d="m661.4 425.4v-14.6h10.6l5.2 5.3v10.6h-7.9z"/>
		<path id="Path 427" class="s83" d="m650.8 421.4l9.3-11.9 1.3 1.3v14.6h-8z"/>
		<path id="Path 428" class="s81" d="m723.5 414.8l2.7-6.7h6.6v2.7z"/>
		<path id="Path 429" class="s89" d="m672 410.8l1.3-5.3h11.9v13.2l-2.7 8h-5.3v-10.6z"/>
		<path id="Path 430" class="s83" d="m685.2 405.5v-2.7h7.9l8 6.7v9.2l-5.3 2.7-10.6-2.7z"/>
		<path id="Path 431" class="s63" d="m660.1 409.5l7.9-11.9 5.3 7.9-1.3 5.3h-10.6z"/>
		<path id="Path 432" class="s55" d="m903.4 413.4l37.1-17.2 3.9 6.6h6.7l1.3 21.2v8h-15.9l-2.6-6.6h-5.3v-6.7l-6.6-5.3-11.9 4z"/>
		<path id="Path 433" class="s67" d="m951.1 402.8l14.5-7.9 6.6 1.3-5.3 27.8h-14.5z"/>
		<path id="Path 434" class="s5" d="m732.8 408.1l2.6-18.5h6.7l9.2 26.5h-10.6l-7.9-5.3z"/>
		<path id="Path 435" class="s44" d="m668 397.6l7.9-10.6h9.3v15.8 2.7h-11.9z"/>
		<path id="Path 436" class="s86" d="m940.5 396.2l25.1-11.9v10.6l-14.5 7.9h-6.7z"/>
		<path id="Path 437" class="s53" d="m965.6 384.3l11.9-2.6-5.3 14.5-6.6-1.3z"/>
		<path id="Path 438" class="s49" d="m685.2 381.7l4-5.3 6.6 1.3 11.9 18.5h5.3l13.2 11.9-2.7 6.7-1.3 6.6-21.1-2.7v-9.2l-8-6.7h-7.9v-15.8z"/>
		<path id="Path 439" class="s7" d="m675.9 387l8-10.6 1.3 5.3v5.3z"/>
		<path id="Path 440" class="s72" d="m683.9 376.4l2.6-2.7 2.7 2.7-4 5.3z"/>
		<path id="Path 441" class="s52" d="m698.4 372.4l13.2 2.6 2.7-3.9 10.6 1.3v6.6l6.6-1.3 3.9 11.9-2.6 18.5h-6.6l-13.2-11.9h-5.3l-11.9-18.5z"/>
		<path id="Path 442" class="s67" d="m686.5 373.7l7.9-9.2 4 7.9-2.6 5.3-6.6-1.3z"/>
		<path id="Path 443" class="s90" d="m694.4 364.5l17.2-18.6 14.6-5.3 4 22.5 9.2 6.6 4-3.9-2.7-14.6 4-2.6v-8l6.6 1.3 15.9 19.9 6.6 22.5v19.9l-1.3 9.2-2.7 8h-10.5l-8-5.3-9.2-26.5h-6.7l-3.9-11.9-6.6 1.3v-6.6l-10.6-1.3-2.7 3.9-13.2-2.6z"/>
		<path id="Path 444" class="s91" d="m728.8 339.3l4-1.3 11.9 2.6v8l-4 2.6 2.7 14.6-4 3.9-9.2-6.6-4-22.5z"/>
	</g>
</svg>