<svg version="1.2" xmlns="http://www.w3.org/2000/svg" viewBox="0 0 1000 1000" width="1000" height="1000">
	<title>Etheostoma_exile</title>
	<style>
		.s0 { opacity: .4;fill: #d2e4e8 } 
		.s1 { opacity: .3;fill: #eef9fa } 
		.s2 { fill: #b0d6e6 } 
		.s3 { fill: #d8f9fd } 
		.s4 { fill: #c3eaf6 } 
		.s5 { fill: #ecfbfc } 
		.s6 { fill: #9fa38d } 
		.s7 { opacity: .1;fill: #f3fafa } 
		.s8 { opacity: .1;fill: #dce5e3 } 
		.s9 { fill: #f9fefd } 
		.s10 { opacity: .9;fill: #ecf8f9 } 
		.s11 { fill: #d0e5e7 } 
		.s12 { fill: #e1e7d4 } 
		.s13 { fill: #d0d8c7 } 
		.s14 { opacity: .8;fill: #cedbdb } 
		.s15 { fill: #b7bcaa } 
		.s16 { fill: #7a8a8f } 
		.s17 { fill: #a8b1a5 } 
		.s18 { fill: #b1af88 } 
		.s19 { fill: #c2be89 } 
		.s20 { fill: #c1af6d } 
		.s21 { opacity: .5;fill: #eff9fa } 
		.s22 { fill: #c2d7d7 } 
		.s23 { fill: #92a8ae } 
		.s24 { fill: #8a999a } 
		.s25 { fill: #9db5ba } 
		.s26 { fill: #f9fbea } 
		.s27 { fill: #a7c2c8 } 
		.s28 { fill: #e1f3f5 } 
		.s29 { fill: #b0cdd4 } 
		.s30 { fill: #8e8f6d } 
		.s31 { fill: #7c7f7d } 
		.s32 { opacity: 1;fill: #bec6bb } 
		.s33 { fill: #d4d4ac } 
		.s34 { fill: #605946 } 
		.s35 { fill: #757561 } 
		.s36 { fill: #6b6446 } 
		.s37 { fill: #818267 } 
		.s38 { fill: #d1ce96 } 
		.s39 { fill: #534e40 } 
		.s40 { fill: #7b7451 } 
		.s41 { fill: #655934 } 
		.s42 { fill: #696953 } 
		.s43 { opacity: .9;fill: #828884 } 
		.s44 { opacity: .7;fill: #d4dad6 } 
		.s45 { opacity: .7;fill: #eef8f7 } 
		.s46 { fill: #4a4e46 } 
		.s47 { opacity: .2;fill: #9da08f } 
		.s48 { fill: #9a9b7c } 
		.s49 { opacity: .3;fill: #c1cac6 } 
		.s50 { fill: #565a50 } 
		.s51 { fill: #9f965e } 
		.s52 { fill: #474a52 } 
		.s53 { fill: #574d31 } 
		.s54 { fill: #938b60 } 
		.s55 { fill: #a9a36f } 
		.s56 { opacity: .6;fill: #86857a } 
		.s57 { fill: #7a6c3e } 
		.s58 { opacity: .4;fill: #a6b0ad } 
		.s59 { fill: #897d56 } 
		.s60 { fill: #3e3f35 } 
		.s61 { fill: #b6a65e } 
		.s62 { fill: #404344 } 
		.s63 { fill: #e9e7b2 } 
		.s64 { fill: #676a5d } 
		.s65 { fill: #fbfad2 } 
		.s66 { fill: #8b8d7a } 
		.s67 { fill: #2b2f3e } 
		.s68 { fill: #52565c } 
		.s69 { opacity: .5;fill: #94988d } 
		.s70 { opacity: .5;fill: #cbd9da } 
		.s71 { opacity: 1;fill: #5f6466 } 
		.s72 { opacity: .8;fill: #9b9e8e } 
		.s73 { fill: #373b43 } 
		.s74 { fill: #b19749 } 
		.s75 { fill: #27272a } 
		.s76 { fill: #6f7572 } 
		.s77 { opacity: .8;fill: #a6b1b0 } 
		.s78 { fill: #8e8148 } 
		.s79 { fill: #333433 } 
		.s80 { fill: #4b412b } 
		.s81 { fill: #342f29 } 
		.s82 { fill: #cebe75 } 
		.s83 { fill: #ceaf57 } 
		.s84 { fill: #a3893c } 
		.s85 { fill: #f2d672 } 
		.s86 { fill: #f0e393 } 
		.s87 { fill: #fcf383 } 
		.s88 { fill: #fefa9c } 
		.s89 { fill: #e4d383 } 
		.s90 { fill: #e3c165 } 
		.s91 { opacity: .1;fill: #7a766f } 
		.s92 { fill: #ecc649 } 
		.s93 { opacity: .3;fill: #4d493a } 
		.s94 { fill: #d2ab42 } 
		.s95 { fill: #fdfcb6 } 
		.s96 { fill: #f9e460 } 
		.s97 { opacity: .1;fill: #bfc8c5 } 
		.s98 { opacity: .7;fill: #72706c } 
	</style>
	<g id="Background">
		<path id="Path 0" class="s0" d="m324 429h1v1h-1z"/>
		<path id="Path 1" class="s0" d="m325 428h1v1h-1z"/>
		<path id="Path 2" class="s0" d="m350 403h1v1h-1z"/>
		<path id="Path 3" class="s1" d="m401 387l5-4h9l4 4-8-2-5 1z"/>
		<path id="Path 4" class="s2" d="m406 386l5-1-1 7-4 2-2-1z"/>
		<path id="Path 5" class="s3" d="m406 394l4-2 1-7 8 2 3 3 3 2v2l-2 2-7 3h-10z"/>
		<path id="Path 6" class="s4" d="m401 387l5-1-2 7-5 1-2-2 1-2z"/>
		<path id="Path 7" class="s5" d="m608 388l10-1v1l-1 9 10 7 2 5-6 6-8 2-2-1v-5l-7-2-1 8v6h-3-3l-2-5-7 2-5-3v-8h-5l-3 5-6 1-5-2-7 2 2 4v2l-8 2v-1-5l1-4-4-2v-1l6-3 10-5 5-2 5-3h2l5-2 5-2 2-1 3-1 6-1 1-1z"/>
		<path id="Path 8" class="s6" d="m596 398h4v8h-7z"/>
		<path id="Path 9" class="s7" d="m618 388v-1l4 3z"/>
		<path id="Path 10" class="s8" d="m375 389h10-1-8z"/>
		<path id="Path 11" class="s9" d="m629 409l-2-5-10-7 1-9 4 2 4 2 3 3 2 2 1 1 2 2 2 2 3 5v1z"/>
		<path id="Path 12" class="s10" d="m370 394l5-5h1l-1 5-4 1z"/>
		<path id="Path 13" class="s5" d="m375 394l1-5h8l3 3 4 3-8 6h-6l-2-3z"/>
		<path id="Path 14" class="s1" d="m387 392l-3-3h1z"/>
		<path id="Path 15" class="s1" d="m396 392l2-2-1 2z"/>
		<path id="Path 16" class="s7" d="m425 392l-3-2h6v1z"/>
		<path id="Path 17" class="s8" d="m428 391v-1l11 2-10-1z"/>
		<path id="Path 18" class="s11" d="m425 392l3-1h1v3h-4z"/>
		<path id="Path 19" class="s3" d="m429 394v-3l10 1 10 5 3 3 4 2 3 3 1 4-4 3-9 1-3-4 2-7-13 7-8 5-2 7-12-3v-8l4-3 7-1 3-6z"/>
		<path id="Path 20" class="s1" d="m391 395l-4-3h9l-3 3z"/>
		<path id="Path 21" class="s12" d="m393 395l3-3h1l2 2-5 3z"/>
		<path id="Path 22" class="s13" d="m399 394l5-1 2 1v5l-5 3-7-2v-3z"/>
		<path id="Path 23" class="s14" d="m351 403l2-6 17-3 1 1-1 3-8 7h-1l-6 2h-5v-3z"/>
		<path id="Path 24" class="s15" d="m371 395l4-1v4l-4 2-1-2z"/>
		<path id="Path 25" class="s16" d="m423 396l2-2h4l-4 6z"/>
		<path id="Path 26" class="s15" d="m383 401l8-6h2l1 2v3l7 2-10 5-8-2z"/>
		<path id="Path 27" class="s17" d="m416 399l7-3 2 4-3 6-7 1z"/>
		<path id="Path 28" class="s18" d="m362 405l8-7 1 2v7l-4 1z"/>
		<path id="Path 29" class="s12" d="m371 400l4-2 2 3h6v4l8 2v9h-8l-3 5-9 1-8 1-6-1-1-13h5l6-1 4-1z"/>
		<path id="Path 30" class="s11" d="m401 402l5-3h10l-1 8-4 3v8l-10 3-3 4h-4l-3-9v-9z"/>
		<path id="Path 31" class="s17" d="m433 409l13-7-2 7-7 2z"/>
		<path id="Path 32" class="s0" d="m348 409l2-5v3z"/>
		<path id="Path 33" class="s19" d="m355 407l6-2v4h-5z"/>
		<path id="Path 34" class="s20" d="m361 409v-4h1l5 3z"/>
		<path id="Path 35" class="s10" d="m460 409l-1-4 10 7v1h-6z"/>
		<path id="Path 36" class="s13" d="m348 409l2-2h5l1 2 1 13 3 4-2 4-6 3h-3l-1-5-5 3h-2v-6l-8 2h-3v-1l3-4 5-5 3-2 7-5z"/>
		<path id="Path 37" class="s21" d="m550 409l6-2-6 3z"/>
		<path id="Path 38" class="s7" d="m639 408v-1l3 3z"/>
		<path id="Path 39" class="s3" d="m629 409l10-1 3 2 1 2-2 8 2 14h-5l-1 5-3 6-11-6v-4l4-2-1-5-7 2v5h-7l-2-6v-4l-5-1v-1-6l8-1 2 1 2 5 7 1-1-8z"/>
		<path id="Path 40" class="s22" d="m423 421l2-7 8-5 4 2v6l4 12-2 2-9-6h-7z"/>
		<path id="Path 41" class="s12" d="m437 411l7-2 3 4-3 4h-7z"/>
		<path id="Path 42" class="s23" d="m456 412l4-3 3 4-6 2z"/>
		<path id="Path 43" class="s1" d="m546 412l4-3v1 1z"/>
		<path id="Path 44" class="s24" d="m577 414l3-5h5v8l-5 2z"/>
		<path id="Path 45" class="s22" d="m605 417l1-8 7 2v5z"/>
		<path id="Path 46" class="s0" d="m341 415l3-5h4z"/>
		<path id="Path 47" class="s7" d="m643 412l-1-2 2 2z"/>
		<path id="Path 48" class="s14" d="m546 412l4-1-3 6-7 3h-2v-3l3-2 2-2z"/>
		<path id="Path 49" class="s25" d="m547 417l3-6 4 2-1 4z"/>
		<path id="Path 50" class="s15" d="m447 413l9-1 1 3-1 3-9 1-3-2z"/>
		<path id="Path 51" class="s21" d="m469 413v-1l8 8h-2z"/>
		<path id="Path 52" class="s5" d="m643 434l-2-14 2-8h1l3 1v4l5 7 1 3 1 2v1l3 6v4l1 3h-8-3v-5l-4-2z"/>
		<path id="Path 53" class="s3" d="m457 415l6-2h6l6 7-7 3h-11l-1-5z"/>
		<path id="Path 54" class="s23" d="m561 419l-2-4 7-2-1 6z"/>
		<path id="Path 55" class="s22" d="m565 419l1-6 5 2v4z"/>
		<path id="Path 56" class="s26" d="m571 415l6-1 3 5-1 6h-4l-4-4v-2z"/>
		<path id="Path 57" class="s27" d="m615 417l8-2 1 8-7-1z"/>
		<path id="Path 58" class="s27" d="m380 421l3-5h8l3 9-4 4-8 4z"/>
		<path id="Path 59" class="s13" d="m441 429l-4-12h7l3 2v6l-1 4z"/>
		<path id="Path 60" class="s10" d="m526 428l12-11v3l-5 5-6 4z"/>
		<path id="Path 61" class="s28" d="m540 420l7-3h6v5h-4l-3 5h-5z"/>
		<path id="Path 62" class="s28" d="m580 419l5-2 5 3v5 5l-5 3h-3v-6l-3-2z"/>
		<path id="Path 63" class="s1" d="m652 424l-5-7 4 2z"/>
		<path id="Path 64" class="s29" d="m398 425l3-4 10-3 12 3v4 6l-1 2h-1-4l-1-5-10 3-5 2h-3z"/>
		<path id="Path 65" class="s11" d="m447 419l9-1 1 5v2h-10z"/>
		<path id="Path 66" class="s6" d="m590 420l7-2 2 5-9 2z"/>
		<path id="Path 67" class="s11" d="m561 421v-2h4v2z"/>
		<path id="Path 68" class="s6" d="m565 421v-2h6v2l-3 3h-3z"/>
		<path id="Path 69" class="s24" d="m468 423l7-3v4l-4 1z"/>
		<path id="Path 70" class="s4" d="m471 425l4-1v-4h2l16 17-6 1-4-5-11 1z"/>
		<path id="Path 71" class="s21" d="m493 437l-16-17h4l13 13v4z"/>
		<path id="Path 72" class="s15" d="m533 425l5-5h2l1 7z"/>
		<path id="Path 73" class="s24" d="m371 422l9-1 2 12-3 1-1-4-7 1z"/>
		<path id="Path 74" class="s12" d="m553 423l8-2h4v3h3l1 11-10 4-9-2-1-6 3-1z"/>
		<path id="Path 75" class="s13" d="m568 424l3-3 4 4v6l4 2 2 14-8 1-1-3h-6l3-10z"/>
		<path id="Path 76" class="s0" d="m328 427l5-5-3 4z"/>
		<path id="Path 77" class="s24" d="m358 430l2-4-3-4 6 1v9z"/>
		<path id="Path 78" class="s25" d="m363 423l8-1v9l-8 1z"/>
		<path id="Path 79" class="s15" d="m546 427l3-5h4v1l-1 7-3 1z"/>
		<path id="Path 80" class="s1" d="m854 427l6-4 14-1v1z"/>
		<path id="Path 81" class="s0" d="m874 423v-1l8 3z"/>
		<path id="Path 82" class="s22" d="m457 425v-2h11l3 2 1 9-2 1-15 1v-3z"/>
		<path id="Path 83" class="s11" d="m590 425l9-2h3l1 2 1 5 6-1 2 6h7 4v4l-6 3-2 5-12-2h-6l-2-4v-9l-5-2z"/>
		<path id="Path 84" class="s28" d="m603 425l-1-2h3v1z"/>
		<path id="Path 85" class="s4" d="m854 427l20-4 8 2 7 2 5 3 3 1 2 2v12l-5 1-7-2-1-4h-4l-1-6-7 1-13 2-4 3-11-3-1 4v1l-6 1-6-1h-1v-5l6-2 10-5z"/>
		<path id="Path 86" class="s24" d="m603 425l2-1 5 1v4l-6 1z"/>
		<path id="Path 87" class="s30" d="m333 427l8-2v6l-3 1z"/>
		<path id="Path 88" class="s31" d="m390 429l4-4h4v8h-3z"/>
		<path id="Path 89" class="s32" d="m423 431v-6h7l9 6v2l-4 3h-5l-1-5z"/>
		<path id="Path 90" class="s29" d="m446 429l1-4h10l-2 8z"/>
		<path id="Path 91" class="s33" d="m527 429l6-4 8 2v7l-12 1-3-3z"/>
		<path id="Path 92" class="s2" d="m579 433l-4-2v-6h4l3 2v6z"/>
		<path id="Path 93" class="s14" d="m328 427l2-1v1l-7 5 1-2 1-1 1-1z"/>
		<path id="Path 94" class="s34" d="m323 432l7-5h3l5 5 3-1h2l2 2v6h-15l-1 3-6 1-8-2v-5l2-2 5-2z"/>
		<path id="Path 95" class="s26" d="m541 434v-7h5l3 4 1 6-2 2-2-5z"/>
		<path id="Path 96" class="s35" d="m343 431l5-3 1 5h-4z"/>
		<path id="Path 97" class="s6" d="m406 431l10-3 1 5h4l-1 2z"/>
		<path id="Path 98" class="s14" d="m519 435l7-7 1 1-1 3-2 2-4 2z"/>
		<path id="Path 99" class="s27" d="m619 435v-5l7-2 1 5-4 2z"/>
		<path id="Path 100" class="s36" d="m382 433l8-4 5 4-2 7-10 2-4-4v-4z"/>
		<path id="Path 101" class="s24" d="m439 431l2-2h5l9 4v3h-6l-10-3z"/>
		<path id="Path 102" class="s34" d="m352 433l6-3 5 2 8-1 7-1 1 4v4l-4 4-8 1h-8l-1 4h-5l-2-8z"/>
		<path id="Path 103" class="s29" d="m585 433l5-3 5 2v9h-8z"/>
		<path id="Path 104" class="s34" d="m401 433l5-2 14 4 3 10h-8l-14-2z"/>
		<path id="Path 105" class="s37" d="m422 433l1-2h6l1 5z"/>
		<path id="Path 106" class="s0" d="m309 435l13-3-5 2z"/>
		<path id="Path 107" class="s38" d="m524 434l2-2 3 3v4h-4z"/>
		<path id="Path 108" class="s39" d="m345 439v-6h4 3l-1 6z"/>
		<path id="Path 109" class="s40" d="m393 440l2-7h3 3v10l-4 2z"/>
		<path id="Path 110" class="s41" d="m420 435l1-2h1l8 3h5v6l-6 3h-6z"/>
		<path id="Path 111" class="s42" d="m435 436l4-3 10 3-1 6-5 1-8-1z"/>
		<path id="Path 112" class="s24" d="m472 434l11-1 4 5v1h-4l-13-4z"/>
		<path id="Path 113" class="s32" d="m581 447l-2-14h3 3l2 8h8l2 4h6v7l-3 1-4-1v-4l-7 2z"/>
		<path id="Path 114" class="s3" d="m899 445v-12l5 2 3 8 1 2v4h-2z"/>
		<path id="Path 115" class="s43" d="m309 435l8-1-2 2-8 2-10 1 2-2z"/>
		<path id="Path 116" class="s18" d="m520 436l4-2 1 5h-4l-3-1z"/>
		<path id="Path 117" class="s19" d="m529 435l12-1h5l2 5v2h-7l-12-2z"/>
		<path id="Path 118" class="s29" d="m637 439l1-5h5v2z"/>
		<path id="Path 119" class="s16" d="m874 435l7-1 1 6-4 5h-2l-5-1z"/>
		<path id="Path 120" class="s40" d="m455 436l15-1 13 4v7l-4 3h-5l-3 4h-8v-6l-8-2h-4l-3-3 1-6z"/>
		<path id="Path 121" class="s44" d="m495 437l24-2 1 1-2 2-6 1h-5-4-7z"/>
		<path id="Path 122" class="s6" d="m559 439l10-4-3 10-3 1-4-4z"/>
		<path id="Path 123" class="s45" d="m828 437l10-2-6 2z"/>
		<path id="Path 124" class="s25" d="m861 437l13-2-3 9h-2l-1-3h-5z"/>
		<path id="Path 125" class="s46" d="m307 438l8-2v5l-1 2h-6z"/>
		<path id="Path 126" class="s11" d="m637 439l6-3 4 2v5l-7 6h-4l-2-4z"/>
		<path id="Path 127" class="s47" d="m293 438l6-1-2 2h-4z"/>
		<path id="Path 128" class="s23" d="m487 438l6-1h1 1l1 2h-9z"/>
		<path id="Path 129" class="s48" d="m548 439l2-2 9 2v3l-8 3-3-4z"/>
		<path id="Path 130" class="s22" d="m818 438l9-1v5 1h-9v-4z"/>
		<path id="Path 131" class="s29" d="m827 442v-5h1 4v5z"/>
		<path id="Path 132" class="s23" d="m845 441l1-4 11 3 4-3 2 4-2 7-6 1-2-8z"/>
		<path id="Path 133" class="s49" d="m281 442l12-4v1l-9 3z"/>
		<path id="Path 134" class="s50" d="m297 439l10-1 1 5-6 5v5l-8 4-7-2-3-13 9-3z"/>
		<path id="Path 135" class="s51" d="m375 442l4-4 4 4-3 3z"/>
		<path id="Path 136" class="s36" d="m512 439l6-1 3 1v4h-7z"/>
		<path id="Path 137" class="s8" d="m801 442l17-4v1l-10 2z"/>
		<path id="Path 138" class="s40" d="m329 442l1-3h15 6l2 8v4h-4l-17-2z"/>
		<path id="Path 139" class="s50" d="m483 446v-7h4 9l1 7-2 5z"/>
		<path id="Path 140" class="s46" d="m497 446l-1-7h7l1 4v3z"/>
		<path id="Path 141" class="s52" d="m504 443l-1-4h4z"/>
		<path id="Path 142" class="s53" d="m504 443l3-4h5l2 4-5 6-5-3z"/>
		<path id="Path 143" class="s41" d="m521 443v-4h4 4l12 2v6h-6z"/>
		<path id="Path 144" class="s25" d="m615 447l2-5 6-3 11 6 2 4h4l7-6h3v10l3 3h-4-9-5l-4-1 2-6h-6l-1 5-5 1-6-4z"/>
		<path id="Path 145" class="s11" d="m808 441l10-2v4 2h-3l-7 1z"/>
		<path id="Path 146" class="s54" d="m383 442l10-2 4 5v4l-7 2-7-3-4 5-12-1v-1-8l8-1 5 3z"/>
		<path id="Path 147" class="s1" d="m658 443l-1-3 5 12z"/>
		<path id="Path 148" class="s11" d="m878 445l4-5h4l1 4-3 5h-2z"/>
		<path id="Path 149" class="s40" d="m314 443l1-2 8 2 2 8v2l-10-1z"/>
		<path id="Path 150" class="s40" d="m541 447v-6h7l3 4 8-3 4 4v5l-3 2h-15z"/>
		<path id="Path 151" class="s28" d="m801 442l7-1v5l-5 3-3-4v-2z"/>
		<path id="Path 152" class="s12" d="m845 442v-1h8l2 8v4l-9 1-2-2v-4z"/>
		<path id="Path 153" class="s5" d="m855 449l6-1 2-7h5l1 3v5h-4l-2 7-4 1h-4v-4z"/>
		<path id="Path 154" class="s47" d="m268 445l12-3-11 3z"/>
		<path id="Path 155" class="s42" d="m269 445l11-3h1 3l3 13-5 5-12 1-9-2-4-10 3-1z"/>
		<path id="Path 156" class="s54" d="m323 443l6-1 3 7-1 2h-6z"/>
		<path id="Path 157" class="s54" d="m429 445l6-3 8 1v9h-13z"/>
		<path id="Path 158" class="s55" d="m443 443l5-1 3 3v6l-6 2-2-1z"/>
		<path id="Path 159" class="s1" d="m786 445l15-3-1 1z"/>
		<path id="Path 160" class="s18" d="m827 443v-1h5 1l-3 9 1 6h7l5 2v8l-4 1-8 1-3-6h-7l-6-4v-14h3l8 2z"/>
		<path id="Path 161" class="s13" d="m830 451l3-9 6 1-1 4-1 4z"/>
		<path id="Path 162" class="s48" d="m839 443l6-1-1 6-6-1z"/>
		<path id="Path 163" class="s54" d="m302 453v-5l6-5h6l1 9-6 1z"/>
		<path id="Path 164" class="s40" d="m358 447l1-4h8v8h-8z"/>
		<path id="Path 165" class="s30" d="m397 445l4-2 14 2v8h-4l-14-4z"/>
		<path id="Path 166" class="s54" d="m509 449l5-6h7l14 4v12 2h-17l-4-4h-5z"/>
		<path id="Path 167" class="s2" d="m653 456l-3-3v-10h8l4 9v3 1l-4 1h-3z"/>
		<path id="Path 168" class="s13" d="m786 445l14-2v2l-5 4-9 2-1-4z"/>
		<path id="Path 169" class="s12" d="m818 445v-2h9l-1 4z"/>
		<path id="Path 170" class="s7" d="m908 445l-1-2h2v2z"/>
		<path id="Path 171" class="s23" d="m603 445l12 2v4l-8 3-4-2z"/>
		<path id="Path 172" class="s22" d="m869 449v-5h2l5 1-1 6h-2z"/>
		<path id="Path 173" class="s16" d="m884 449l3-5 7 2v5l3 1v9l-10 1 1 5h6l-1 12-4 1v-7h-10l-5-2 5-3v-3l-5-2 1-7 4-1 11 1z"/>
		<path id="Path 174" class="s56" d="m260 447l8-2h1l-9 3z"/>
		<path id="Path 175" class="s48" d="m415 453v-8h8 6l1 7-3 4z"/>
		<path id="Path 176" class="s6" d="m451 451v-6h4l-2 6z"/>
		<path id="Path 177" class="s30" d="m453 451l2-6 8 2v6h-2-8z"/>
		<path id="Path 178" class="s57" d="m563 446l3-1h6l1 3v4l-10-1z"/>
		<path id="Path 179" class="s44" d="m771 448l15-3-1 2-10 2h-4z"/>
		<path id="Path 180" class="s6" d="m795 449l5-4 3 4-6 1z"/>
		<path id="Path 181" class="s51" d="m808 446l7-1v14l-4 2h-12l-2-11 6-1z"/>
		<path id="Path 182" class="s5" d="m875 451l1-6h2l4 4-3 4z"/>
		<path id="Path 183" class="s29" d="m894 446l5-1 7 4-5 6-4-3-3-1z"/>
		<path id="Path 184" class="s1" d="m908 449v-4h1v15h-1z"/>
		<path id="Path 185" class="s48" d="m479 449l4-3 12 5v7l-6-1h-10z"/>
		<path id="Path 186" class="s55" d="m495 451l2-5h7l5 3v8l-12 2-2-1z"/>
		<path id="Path 187" class="s58" d="m244 450l16-3v1l-3 1-7 2-6 1z"/>
		<path id="Path 188" class="s50" d="m353 451v-4h5l1 4h8v1l2 16h-2l-10-7v-7z"/>
		<path id="Path 189" class="s59" d="m535 459v-12h6l4 6v6z"/>
		<path id="Path 190" class="s36" d="m573 448l8-1 8 3v9h-10l-6-7z"/>
		<path id="Path 191" class="s15" d="m775 449l10-2 1 4h-7-4z"/>
		<path id="Path 192" class="s18" d="m837 451l1-4 6 1v4l-5 1z"/>
		<path id="Path 193" class="s39" d="m367 452l12 1 4-5 7 3 7-2 14 4-2 18h-6l-2-4h-7l-9 6h-8l-2-5h-6z"/>
		<path id="Path 194" class="s34" d="m589 450l7-2v4l4 1 1 5-1 3-10-1-1-1z"/>
		<path id="Path 195" class="s8" d="m761 450l10-2v1z"/>
		<path id="Path 196" class="s46" d="m250 451l7-2 4 10 9 2-1 5h-5l-6 5-4-3v-10z"/>
		<path id="Path 197" class="s60" d="m331 451l1-2 17 2v10 4h-4l-6-7-8-2z"/>
		<path id="Path 198" class="s55" d="m471 453l3-4h5v8h-6z"/>
		<path id="Path 199" class="s24" d="m626 454l1-5h6l-2 6h-2z"/>
		<path id="Path 200" class="s32" d="m761 450l10-1h4v2l-4 3h-4l-14-2z"/>
		<path id="Path 201" class="s61" d="m786 451l9-2 2 1 2 11-2 5-5 5-9-2v-8l4-2z"/>
		<path id="Path 202" class="s23" d="m859 457l4-1 2-7h4l4 2 2 5-1 7h-7l-9-1z"/>
		<path id="Path 203" class="s25" d="m879 453l3-4h2l6 7-11-1z"/>
		<path id="Path 204" class="s5" d="m901 455l5-6h2v11 3h-2l-5-2z"/>
		<path id="Path 205" class="s49" d="m241 452l3-2v2z"/>
		<path id="Path 206" class="s50" d="m244 452l6-1 4 7v10l4 3v3 3h-7l-14-2v-6l-10-4-1-6 1-2 1-1 13-4z"/>
		<path id="Path 207" class="s62" d="m325 453v-2h6v5h-5z"/>
		<path id="Path 208" class="s62" d="m349 461v-10h4l4 3v7z"/>
		<path id="Path 209" class="s42" d="m445 453l6-2h2v2 10h-6l-2-4z"/>
		<path id="Path 210" class="s51" d="m560 453l3-2 10 1 6 7v5l-2 1-14-2z"/>
		<path id="Path 211" class="s40" d="m607 454l8-3 6 4 5-1 3 1v6l-11 2-7-3-3-1-1-1z"/>
		<path id="Path 212" class="s55" d="m771 454l4-3h4v6l4 4v8h-4v-6l-8-4z"/>
		<path id="Path 213" class="s36" d="m783 461l-4-4v-6h7l1 8z"/>
		<path id="Path 214" class="s63" d="m838 457h-7l-1-6h7l2 2z"/>
		<path id="Path 215" class="s11" d="m875 456l-2-5h2l4 2v2z"/>
		<path id="Path 216" class="s49" d="m227 455l14-3-13 4z"/>
		<path id="Path 217" class="s39" d="m309 453l6-1 10 1 1 3-3 15h-6l-8-2z"/>
		<path id="Path 218" class="s35" d="m427 456l3-4h13l2 1v6l-12 2z"/>
		<path id="Path 219" class="s36" d="m600 453l3-1 4 2v4h-6z"/>
		<path id="Path 220" class="s0" d="m731 455l20-3-1 1-16 2z"/>
		<path id="Path 221" class="s64" d="m750 453l1-1h2l14 2v5l1 5-3 1-5-4-5 2-6-2-2-6z"/>
		<path id="Path 222" class="s65" d="m839 453l5-1 2 2v4l-3 1-5-2z"/>
		<path id="Path 223" class="s23" d="m897 461v-9l4 3v6l-3 1z"/>
		<path id="Path 224" class="s62" d="m294 457l8-4h7v16l-4 8h-3l-4-6h-7l-1-7z"/>
		<path id="Path 225" class="s50" d="m409 471l2-18h4l12 3 6 5 2 9-2 7-6 4h-4l-2-6h-6z"/>
		<path id="Path 226" class="s50" d="m453 463v-10h8v6 4l-4 1z"/>
		<path id="Path 227" class="s35" d="m461 459v-6h2 8l2 4-6 2z"/>
		<path id="Path 228" class="s30" d="m545 459v-6h15l3 10-6 2h-7z"/>
		<path id="Path 229" class="s66" d="m734 455l16-2-3 2 2 6-2 8-2 2-7-2-4-13z"/>
		<path id="Path 230" class="s6" d="m846 454l9-1v4l1 5v4l-7 1h-6v-8l3-1z"/>
		<path id="Path 231" class="s37" d="m767 459v-5h4v5z"/>
		<path id="Path 232" class="s44" d="m224 457l3-2 1 1-1 1z"/>
		<path id="Path 233" class="s67" d="m282 460l5-5 7 2-4 7z"/>
		<path id="Path 234" class="s34" d="m629 461v-6h2l4 1-2 5z"/>
		<path id="Path 235" class="s68" d="m640 456h9v7l-7-1z"/>
		<path id="Path 236" class="s69" d="m662 456v-1h10v1z"/>
		<path id="Path 237" class="s70" d="m672 456v-1h10l-1 2z"/>
		<path id="Path 238" class="s44" d="m681 457l1-2h13v2h-3-7z"/>
		<path id="Path 239" class="s45" d="m695 457v-2l14 2z"/>
		<path id="Path 240" class="s21" d="m714 457l7-2v2z"/>
		<path id="Path 241" class="s70" d="m721 457v-2h10 3v1z"/>
		<path id="Path 242" class="s46" d="m323 471l3-15h5l8 2 6 7 2 7v11h-8-4v-9l-3-3z"/>
		<path id="Path 243" class="s37" d="m633 461l2-5h5l2 6 7 1h4l4 1v5l-7 4v3l-9 5-6-6 1-5-3-1z"/>
		<path id="Path 244" class="s71" d="m649 463v-7h4l2 1-2 6z"/>
		<path id="Path 245" class="s37" d="m658 457l4-1h10l9 1h4v5l-2 2-23-1z"/>
		<path id="Path 246" class="s59" d="m721 457l13-1 4 13-3 4h-6l-1-3h-4v-7l-3-1z"/>
		<path id="Path 247" class="s0" d="m198 465l24-8-8 5h-1l-6 1z"/>
		<path id="Path 248" class="s72" d="m214 462l8-5h2 3l-1 2-6 2z"/>
		<path id="Path 249" class="s37" d="m467 459l6-2h6v10l-4 1v5l-8-8z"/>
		<path id="Path 250" class="s40" d="m479 467v-10h10v7l-4 3z"/>
		<path id="Path 251" class="s42" d="m485 467l4-3v-7l6 1 2 1v6l-2 14h-3v-4z"/>
		<path id="Path 252" class="s64" d="m497 459l12-2h5l4 4-3 8-6 1-5-5h-7z"/>
		<path id="Path 253" class="s34" d="m653 463l2-6h3l2 6-3 1z"/>
		<path id="Path 254" class="s35" d="m685 462v-5h7l-1 5h-2z"/>
		<path id="Path 255" class="s34" d="m691 462l1-5h3 14 4v6l-12 1-8-1z"/>
		<path id="Path 256" class="s42" d="m713 463v-6h1 7v5l-7 1z"/>
		<path id="Path 257" class="s25" d="m856 462l-1-5h4l-1 5z"/>
		<path id="Path 258" class="s48" d="m590 460l10 1 1-3h6l1 1-1 10h-6l-1 4-23-4v-4l2-1 10-1z"/>
		<path id="Path 259" class="s73" d="m220 461l6-2 1 6v8h-5l-2-6z"/>
		<path id="Path 260" class="s73" d="m270 461l12-1 8 4 1 7-11 9-10-3-1-11z"/>
		<path id="Path 261" class="s64" d="m433 461l12-2 2 4h6l4 1v7h-7l-3 8-4 1-8-10z"/>
		<path id="Path 262" class="s66" d="m461 463v-4h6v6h-4z"/>
		<path id="Path 263" class="s64" d="m535 461v-2h10l5 6h7l4 16-1 4h-7l-5-3v-4l-5-1v-1-5z"/>
		<path id="Path 264" class="s30" d="m579 464v-5h10l1 1-1 3z"/>
		<path id="Path 265" class="s37" d="m607 469l1-10 3 1 2 5h4v5l-8 1z"/>
		<path id="Path 266" class="s18" d="m765 465l3-1-1-5h4l8 4v6 1l-14 2z"/>
		<path id="Path 267" class="s61" d="m811 461l4-2 6 4v8h-6z"/>
		<path id="Path 268" class="s18" d="m617 465h-4l-2-5 7 3z"/>
		<path id="Path 269" class="s0" d="m908 463v-3h1v23h-1z"/>
		<path id="Path 270" class="s52" d="m214 462l6-1v6h-10l3-5z"/>
		<path id="Path 271" class="s68" d="m349 465v-4h8l10 7v7h-5l-4-6h-8z"/>
		<path id="Path 272" class="s35" d="m515 469l3-8h17l8 10v5l-7 2-5 1-2-5-14 4z"/>
		<path id="Path 273" class="s66" d="m618 463l11-2h4v8l-5 2-7-1h-4v-5z"/>
		<path id="Path 274" class="s6" d="m747 469l2-8 6 2 5-2 5 4v7l-6 3-7-3-1-3z"/>
		<path id="Path 275" class="s74" d="m797 466l2-5h12l4 10v4h-6l-7-2z"/>
		<path id="Path 276" class="s75" d="m894 467h-6l-1-5 10-1 1 1z"/>
		<path id="Path 277" class="s25" d="m898 462l3-1 5 2-3 15-10 1 1-12z"/>
		<path id="Path 278" class="s76" d="m207 463l6-1-3 5h-1-6z"/>
		<path id="Path 279" class="s30" d="m683 464l2-2h4l2 8v1l-8 1z"/>
		<path id="Path 280" class="s18" d="m691 470l-2-8h2l2 1v7z"/>
		<path id="Path 281" class="s48" d="m714 463l7-1 3 1v7l-5 3h-4z"/>
		<path id="Path 282" class="s18" d="m856 466v-4h2l9 1 1 6-9 2z"/>
		<path id="Path 283" class="s77" d="m198 465l9-2-4 4-8 2-12 2h-1v-1h1l5-2z"/>
		<path id="Path 284" class="s68" d="m457 464l4-1 2 2-2 6h-4z"/>
		<path id="Path 285" class="s50" d="m557 465l6-2 14 2v4l-2 4 17 12 2 4 5 9v5h-4-5l-8-6 1-5h-12v-5l-2-6h-8z"/>
		<path id="Path 286" class="s48" d="m657 464l3-1 23 1v8l-6-3-7 3h-2l-7-1-4-2z"/>
		<path id="Path 287" class="s55" d="m693 470v-7l8 1-2 6z"/>
		<path id="Path 288" class="s18" d="m701 464l12-1h1l1 10-7 3-9-6z"/>
		<path id="Path 289" class="s74" d="m821 471v-8h7l3 6v4h-9z"/>
		<path id="Path 290" class="s39" d="m868 469l-1-6h7l5 2v3l-5 3h-2z"/>
		<path id="Path 291" class="s4" d="m903 478l3-15h2v20l-1 3h-2z"/>
		<path id="Path 292" class="s62" d="m227 473v-8l10 4v6 2h-6z"/>
		<path id="Path 293" class="s62" d="m347 472l-2-7h4l1 4z"/>
		<path id="Path 294" class="s62" d="m461 471l2-6h4l8 8-2 12h-6l-2-4h-4z"/>
		<path id="Path 295" class="s62" d="m495 479l2-14h7l5 5v9z"/>
		<path id="Path 296" class="s52" d="m258 471l6-5h5l1 11-3 2h-4v-4l-5-1z"/>
		<path id="Path 297" class="s78" d="m792 471l5-5 5 7 7 2v6l-2 7-9 1-1-1-2-6z"/>
		<path id="Path 298" class="s36" d="m849 467l7-1 3 5-2 3-8 1v-2z"/>
		<path id="Path 299" class="s41" d="m195 469l8-2h6v8h-4l-7-2z"/>
		<path id="Path 300" class="s39" d="m209 475v-8h1 10l2 6-1 2z"/>
		<path id="Path 301" class="s71" d="m377 473h8l9-6h7l2 4-7 6 1 7-1 3h-5l-13-2-3-3v-5z"/>
		<path id="Path 302" class="s34" d="m475 473v-5l4-1h6l7 8v4 8h-3l-6-3-10 2v-1z"/>
		<path id="Path 303" class="s55" d="m839 468l4-1h6v6h-11z"/>
		<path id="Path 304" class="s73" d="m367 475v-7h2 6l2 5-2 4h-6z"/>
		<path id="Path 305" class="s78" d="m831 469l8-1-1 5-2 5h-3l-2-5z"/>
		<path id="Path 306" class="s40" d="m183 471l12-2 3 4-3 8 4 1v6l-4 1v3h-4l-8-10z"/>
		<path id="Path 307" class="s46" d="m305 477l4-8 8 2v12h-8l-2-1z"/>
		<path id="Path 308" class="s52" d="m347 472l3-3h8l4 6v5l-4 9-1 7-3 5-5-2v-10l-2-6z"/>
		<path id="Path 309" class="s46" d="m509 470l6-1v9 1h-6z"/>
		<path id="Path 310" class="s42" d="m592 485l-17-12 2-4 23 4 4 4-2 5-6 3z"/>
		<path id="Path 311" class="s31" d="m600 473l1-4h6l2 2v4l-5 2z"/>
		<path id="Path 312" class="s50" d="m628 471l5-2 3 1-1 5-7-1z"/>
		<path id="Path 313" class="s34" d="m650 476v-3l7-4 4 2v7l-6 1z"/>
		<path id="Path 314" class="s68" d="m670 472l7-3 6 3 8-1v9l-2 2-10-1h-8z"/>
		<path id="Path 315" class="s76" d="m735 473l3-4 7 2 2 3-1 4-7 4z"/>
		<path id="Path 316" class="s48" d="m745 471l2-2h4l1 3-5 2z"/>
		<path id="Path 317" class="s59" d="m779 470v-1h4l9 2 3 11h-4l-8-5z"/>
		<path id="Path 318" class="s24" d="m859 471l9-2 4 2-2 4-2 10 1 10-2 2-4-2 1-7h-6l-1 5-2-1v-7h-7v-2l1-4v-4l8-1z"/>
		<path id="Path 319" class="s79" d="m860 476h7l1 4-10 1z"/>
		<path id="Path 320" class="s8" d="m176 472l6-2v1z"/>
		<path id="Path 321" class="s46" d="m433 477l2-7 8 10v5h-6v-6z"/>
		<path id="Path 322" class="s64" d="m609 471l8-1h4l2 5v8h-11l-3-8z"/>
		<path id="Path 323" class="s46" d="m623 475l-2-5 7 1v3z"/>
		<path id="Path 324" class="s37" d="m691 471v-1h2 6l9 6-2 2-6-1-1 4h-7l-1-1z"/>
		<path id="Path 325" class="s35" d="m719 473l5-3h4l1 3v8h-5v-4z"/>
		<path id="Path 326" class="s39" d="m765 472l14-2 4 7-8 1v8l-5 1-11-3v-9z"/>
		<path id="Path 327" class="s37" d="m176 472l6-1h1v11h-8l-8-4-2-1 1-2z"/>
		<path id="Path 328" class="s67" d="m280 480l11-9h7l4 6-1 6v1l-5 4-1 7h-3l-1-3h-5l-6-7z"/>
		<path id="Path 329" class="s73" d="m317 483v-12h6 9l3 3v9l-6 5v9l-2 3h-4l-6-10z"/>
		<path id="Path 330" class="s52" d="m397 484l-1-7 7-6h6l6 4 2 8-4 12-4 3h-2l-4-1v-5l-4-4z"/>
		<path id="Path 331" class="s46" d="m447 479l3-8h7 4v10l-4 2z"/>
		<path id="Path 332" class="s35" d="m661 478v-7l7 1-3 7z"/>
		<path id="Path 333" class="s78" d="m815 475v-4h6l1 2 8 9-2 3h-6-5l-2-4z"/>
		<path id="Path 334" class="s29" d="m870 475l2-4h2l5 2-2 2z"/>
		<path id="Path 335" class="s49" d="m163 475l13-3-10 3z"/>
		<path id="Path 336" class="s46" d="m665 479l3-7h2l1 9v5l-6-3z"/>
		<path id="Path 337" class="s34" d="m747 474l5-2 7 3v9 9 10l-2 2h-10v-12l-6-4-2-5v-2l7-4z"/>
		<path id="Path 338" class="s61" d="m199 482l-4-1 3-8 7 2-1 5z"/>
		<path id="Path 339" class="s50" d="m221 475l1-2h5l4 4h6l3 9 13 3h5l2 2 1 10h-12l-2-5h-5l-6-7-15-2z"/>
		<path id="Path 340" class="s50" d="m708 476l7-3h4l5 4v4l-14 4-4-7z"/>
		<path id="Path 341" class="s46" d="m729 481v-8h6l4 9v2z"/>
		<path id="Path 342" class="s18" d="m828 485l2-3-8-9h9l2 5h3l3 7-2 10h-4z"/>
		<path id="Path 343" class="s66" d="m836 478l2-5h11v2 4l-9 1v3h8v2l1 7v6l-5 4-9-1 2-6 2-10z"/>
		<path id="Path 344" class="s68" d="m877 475l2-2h10v7h-2l-8-1z"/>
		<path id="Path 345" class="s35" d="m258 477v-3l5 1v4h-4z"/>
		<path id="Path 346" class="s80" d="m515 478l14-4 2 5 5-1 7 3 5 1 5 3v4l-4 1v9h-4l-2-2-1-7-6 3h-3l-1-7-10 1-5 1-2-9z"/>
		<path id="Path 347" class="s34" d="m623 475l5-1 7 1 6 6-1 16-4-2-2-4-5 2-1-9-5-1z"/>
		<path id="Path 348" class="s72" d="m156 477l7-2h3l-1 2-13 5h-2l3-3z"/>
		<path id="Path 349" class="s59" d="m199 482l5-2 1-5h4l-2 10-4 3h-4z"/>
		<path id="Path 350" class="s35" d="m203 488l4-3 2-10h12v12 5l-2 2-3 3-1 12h-8v-6l-4-1-1-4z"/>
		<path id="Path 351" class="s36" d="m237 477v-2l14 2 2 12-13-3z"/>
		<path id="Path 352" class="s34" d="m362 480v-5h5l2 2v5z"/>
		<path id="Path 353" class="s73" d="m417 483l-2-8h6l2 6z"/>
		<path id="Path 354" class="s46" d="m604 477l5-2 3 8-6 3-4-4z"/>
		<path id="Path 355" class="s61" d="m809 481v-6h6v6z"/>
		<path id="Path 356" class="s27" d="m868 485l2-10h7l2 4v4l-4 4z"/>
		<path id="Path 357" class="s62" d="m536 478l7-2v1 4z"/>
		<path id="Path 358" class="s46" d="m641 481l9-5 5 3 2 8v10l-4 4-13 1v-5z"/>
		<path id="Path 359" class="s8" d="m150 479l6-2-3 2z"/>
		<path id="Path 360" class="s67" d="m152 482l13-5 2 1-2 7-3 1-5 3-6-2z"/>
		<path id="Path 361" class="s59" d="m253 489l-2-12h7l1 2-1 10z"/>
		<path id="Path 362" class="s60" d="m267 479l3-2 10 3v5h-6l-1 6h-6z"/>
		<path id="Path 363" class="s64" d="m301 483l1-6h3l2 5h-1z"/>
		<path id="Path 364" class="s64" d="m369 482v-5h6v5l-2 1z"/>
		<path id="Path 365" class="s48" d="m427 481l6-4 4 2v6l-1 3-1 4h-5z"/>
		<path id="Path 366" class="s79" d="m543 481v-4l5 1v4z"/>
		<path id="Path 367" class="s52" d="m699 481l1-4 6 1 4 7-3 6h-6z"/>
		<path id="Path 368" class="s75" d="m775 486v-8l8-1 8 5v6l-4 4-7-1z"/>
		<path id="Path 369" class="s52" d="m165 485l2-7 8 4-2 6-6-1z"/>
		<path id="Path 370" class="s50" d="m655 479l6-1 4 1v4l-8 4z"/>
		<path id="Path 371" class="s27" d="m893 479l10-1 2 8-4 3h-11l-3-4v-5h2z"/>
		<path id="Path 372" class="s70" d="m139 487l2-4 9-4h3l-3 3-11 6z"/>
		<path id="Path 373" class="s39" d="m258 489l1-10h4 4v12h-7z"/>
		<path id="Path 374" class="s52" d="m443 480l4-1 10 4v8h-8l-6-6z"/>
		<path id="Path 375" class="s75" d="m492 487v-8h3 14v10l7 2-3 10h-8l-6-7z"/>
		<path id="Path 376" class="s81" d="m516 491l-7-2v-10h6l2 9z"/>
		<path id="Path 377" class="s79" d="m848 483h-8v-3l9-1z"/>
		<path id="Path 378" class="s23" d="m879 483v-4l8 1v5l-8-1z"/>
		<path id="Path 379" class="s18" d="m358 489l4-9 7 2 4 1v5z"/>
		<path id="Path 380" class="s64" d="m689 482l2-2 1 1-3 2z"/>
		<path id="Path 381" class="s33" d="m301 483l5-1 1 4-3 1-3-3z"/>
		<path id="Path 382" class="s71" d="m417 483l6-2h4l3 11h5l4 2 1 8-4 5h-4l-7-4-14-2-2-3 4-3z"/>
		<path id="Path 383" class="s73" d="m457 483l4-2h4l2 4-2 8-1 2-7-3v-1z"/>
		<path id="Path 384" class="s42" d="m560 485l1-4h8l2 6h-11z"/>
		<path id="Path 385" class="s50" d="m671 486v-5h8l-2 6h-4z"/>
		<path id="Path 386" class="s67" d="m673 487h4l2-6 10 1v1l-4 16h-12z"/>
		<path id="Path 387" class="s62" d="m689 483l3-2h7l2 10h-2l-5-1 2 5v2l-11 2z"/>
		<path id="Path 388" class="s67" d="m710 485l14-4h5l10 3 2 5-4 3v17l-2 4-19 1-2-5-11-3v-7l4-2v-6z"/>
		<path id="Path 389" class="s82" d="m807 488l2-7h6l2 4v12h-4v-6z"/>
		<path id="Path 390" class="s71" d="m139 488l11-6h2l-1 5-4 2-7 6-3-4z"/>
		<path id="Path 391" class="s34" d="m173 488l2-6h8l8 10h4l1 6 1 9-5 3-10-1h-7v-10l3-8z"/>
		<path id="Path 392" class="s18" d="m304 487l3-1-1-4h1l2 1v5l-2 2z"/>
		<path id="Path 393" class="s66" d="m373 483l2-1 3 3-1 4h-4v-1z"/>
		<path id="Path 394" class="s75" d="m596 485l6-3 4 4 6-3h11l5 1 1 9 1 8 1 3 9-2 13-1 4-4v-10l8-4 6 3 2 1v12h12l11-2 7 2v7l-6 7h-9l-18 2h-2l-12 1h-4l-10 3-19-2-17-2-2-4h-7l-2-2v-6h4v-5l-5-9z"/>
		<path id="Path 395" class="s81" d="m791 488v-6h4l2 6z"/>
		<path id="Path 396" class="s67" d="m309 488v-5h8v7z"/>
		<path id="Path 397" class="s68" d="m329 497v-9l6-5h4v6l1 10h-5z"/>
		<path id="Path 398" class="s64" d="m339 489v-6h8l2 6z"/>
		<path id="Path 399" class="s19" d="m473 486l10-2-2 7-8 5-3-3z"/>
		<path id="Path 400" class="s76" d="m875 487l4-4v1l-2 5h-2z"/>
		<path id="Path 401" class="s45" d="m907 486l1-3h1v27l-2 1v-2-7-2z"/>
		<path id="Path 402" class="s46" d="m295 495l1-7 5-4 3 3 3 3v6l6 4v10l-3 2-10-6z"/>
		<path id="Path 403" class="s76" d="m396 487l1-3 2 4z"/>
		<path id="Path 404" class="s37" d="m481 491l2-7 6 3v4h-6z"/>
		<path id="Path 405" class="s46" d="m759 493v-9l11 3-3 6z"/>
		<path id="Path 406" class="s71" d="m877 489l2-5 8 1 3 4-3 2-4 1h-5z"/>
		<path id="Path 407" class="s71" d="m162 486l3-1 2 2-2 4-3-1z"/>
		<path id="Path 408" class="s76" d="m273 491l1-6h6l6 7-2 1-11-1z"/>
		<path id="Path 409" class="s50" d="m377 489l1-4 13 2v10h-4z"/>
		<path id="Path 410" class="s50" d="m436 488l1-3h6l6 6h8v1l2 13-12-3h-7l-1-8 2-5z"/>
		<path id="Path 411" class="s41" d="m465 493l2-8h6v1l-3 7z"/>
		<path id="Path 412" class="s46" d="m553 489v-4h7v2l-1 2z"/>
		<path id="Path 413" class="s67" d="m594 489l-2-4h4z"/>
		<path id="Path 414" class="s38" d="m817 497v-12h5l-1 12z"/>
		<path id="Path 415" class="s51" d="m821 497l1-12h6l5 10-3 5 5 1 1 7v1h-5l-3-5h-6z"/>
		<path id="Path 416" class="s28" d="m849 492l-1-7h7v7z"/>
		<path id="Path 417" class="s22" d="m869 495l-1-10 7 2v2l-2 6z"/>
		<path id="Path 418" class="s52" d="m157 489l5-3v4l3 1 3 8h-10l-1-4z"/>
		<path id="Path 419" class="s55" d="m522 487l10-1 1 7h-7-1l2-4-5-1z"/>
		<path id="Path 420" class="s67" d="m770 487l5-1 5 5-3 7v1l-9 3-1-9z"/>
		<path id="Path 421" class="s2" d="m890 489h11l4-3h2v14l-7-1-3 4h-4l-3-2-3-10z"/>
		<path id="Path 422" class="s44" d="m130 492l9-5v1l-2 3-4 2-3 1z"/>
		<path id="Path 423" class="s73" d="m147 489l4-2 6 2v6h-6z"/>
		<path id="Path 424" class="s55" d="m165 491l2-4 6 1 5 3-3 8h-3l1-7-4 1v6h-1z"/>
		<path id="Path 425" class="s62" d="m221 492v-5l15 2 6 7-1 3h-9l-4-6z"/>
		<path id="Path 426" class="s48" d="m391 497v-10h5l3 1 4 4v5l4 1v5h-7l-1-4h-6z"/>
		<path id="Path 427" class="s73" d="m489 491v-4h3l7 7-2 5h-6z"/>
		<path id="Path 428" class="s40" d="m517 488l5-1v1l-2 6 5-1h1l-4 4v6h-9v-2l3-10z"/>
		<path id="Path 429" class="s73" d="m559 489l1-2h11v5 7 4h-4l-4-2z"/>
		<path id="Path 430" class="s54" d="m195 492v-3l4-1h4l-1 10h-6z"/>
		<path id="Path 431" class="s50" d="m307 490l2-2 8 2 6 10h4l3 7-2 4-2 1h-7l-6-2v-10l-6-4z"/>
		<path id="Path 432" class="s40" d="m358 489l15-1v1 8l-16-1z"/>
		<path id="Path 433" class="s52" d="m435 492l1-4 5 1-2 5z"/>
		<path id="Path 434" class="s63" d="m525 493l-5 1 2-6 5 1z"/>
		<path id="Path 435" class="s64" d="m787 492l4-4h6l1 1-2 4h-9z"/>
		<path id="Path 436" class="s51" d="m798 489l9-1 6 3v6 10h-3l-8 5-4-5h-9-2l-2-8 2-6h9z"/>
		<path id="Path 437" class="s71" d="m857 493l1-5h6l-1 7 4 2v1l-4 3-6-1z"/>
		<path id="Path 438" class="s79" d="m140 495l7-6 4 6h6l1 4-3 1v8l-3-1-1-7-4 1h-6z"/>
		<path id="Path 439" class="s55" d="m340 499l-1-10h10v10h-2z"/>
		<path id="Path 440" class="s35" d="m373 497v-8h4l10 8v6l-7-1-4-2z"/>
		<path id="Path 441" class="s39" d="m549 499v-9l4-1h6l4 12 4 2 1 10-1 10h-8-6l-4-3v-5-12z"/>
		<path id="Path 442" class="s73" d="m737 509v-17l4-3 6 4v12l-4 4z"/>
		<path id="Path 443" class="s27" d="m873 495l2-6h2l1 3h5v5l-8 3-2-1z"/>
		<path id="Path 444" class="s37" d="m536 493l6-3 1 7h-6z"/>
		<path id="Path 445" class="s48" d="m696 495l-2-5 5 1z"/>
		<path id="Path 446" class="s35" d="m133 493l4-2 3 4 1 6v2h-4l-7-2z"/>
		<path id="Path 447" class="s35" d="m261 501l-1-10h7 6v1l2 7v7l-7-2-2-3-5 1z"/>
		<path id="Path 448" class="s36" d="m473 496l8-5h2v13l-6 1h-4z"/>
		<path id="Path 449" class="s46" d="m483 504v-13h6l2 8h6v9l-2 2z"/>
		<path id="Path 450" class="s15" d="m629 493l5-2 2 4-3 1v5h-3z"/>
		<path id="Path 451" class="s50" d="m696 495l3-4h2 6v6l-4 2-7-2z"/>
		<path id="Path 452" class="s30" d="m777 498l3-7 7 1v1l-2 6z"/>
		<path id="Path 453" class="s23" d="m883 492l4-1 3 10h-2l-1-4h-4z"/>
		<path id="Path 454" class="s0" d="m114 515l5-15 11-8v2l-7 7-6 10-2 4z"/>
		<path id="Path 455" class="s12" d="m169 499v-6l4-1-1 7z"/>
		<path id="Path 456" class="s50" d="m219 494l2-2 7 1 4 6-3 3z"/>
		<path id="Path 457" class="s55" d="m275 499l-2-7 11 1-2 5z"/>
		<path id="Path 458" class="s78" d="m284 493l2-1h5l1 3-1 8-12 4h-3l-1-1v-7l7-1z"/>
		<path id="Path 459" class="s76" d="m459 505l-2-13 7 3 2 9-1 2h-4z"/>
		<path id="Path 460" class="s55" d="m571 499v-7h12l-1 5z"/>
		<path id="Path 461" class="s25" d="m849 498v-6h6l2 1v7h-1z"/>
		<path id="Path 462" class="s31" d="m130 494l3-1-3 8h-5-2z"/>
		<path id="Path 463" class="s39" d="m464 495l1-2h5l3 3v9l-7-1z"/>
		<path id="Path 464" class="s60" d="m522 503v-6l4-4h7 3l1 4h6l2 2v4l-7 2v6l-4 2h-6l-2-4h-4z"/>
		<path id="Path 465" class="s62" d="m759 503v-10h8l1 9z"/>
		<path id="Path 466" class="s46" d="m215 509l1-12 3-3 10 8v9l3 2-1 2-12-1z"/>
		<path id="Path 467" class="s71" d="m497 499l2-5 6 7v6l-1 1h-7z"/>
		<path id="Path 468" class="s57" d="m291 503l1-8h3l5 11 10 6-7 5-3-2-4-10z"/>
		<path id="Path 469" class="s51" d="m357 496l16 1 3 3-1 5-8 7h-8l-2-5 1-4-4-2z"/>
		<path id="Path 470" class="s66" d="m630 501h3v-5l3-1 4 2v5l-9 2z"/>
		<path id="Path 471" class="s33" d="m835 501l-5-1 3-5h4z"/>
		<path id="Path 472" class="s4" d="m867 497l2-2h4v4l-6-1z"/>
		<path id="Path 473" class="s75" d="m241 499l1-3h5l2 5-2 3z"/>
		<path id="Path 474" class="s71" d="m327 500l2-3 6 2-2 8h-3z"/>
		<path id="Path 475" class="s51" d="m387 503v-6h4l2 2v4z"/>
		<path id="Path 476" class="s60" d="m571 499l11-2 8 6h5v6h-5l-1 3-16-1-2-8z"/>
		<path id="Path 477" class="s55" d="m813 507v-10h4 4l1 7-3 3z"/>
		<path id="Path 478" class="s52" d="m875 500l8-3h4l1 4-4 3-9-2z"/>
		<path id="Path 479" class="s46" d="m197 507l-1-9h6l1 4 4 1v6h-2z"/>
		<path id="Path 480" class="s61" d="m407 503v-5h2l2 3 14 2v2l-7 5-11-1z"/>
		<path id="Path 481" class="s39" d="m777 499v-1l8 1 2 8-6 3-4-3z"/>
		<path id="Path 482" class="s12" d="m844 502l5-4 7 2-2 4-5 2-4-1z"/>
		<path id="Path 483" class="s25" d="m863 501l4-3 6 1 2 1v2l-2 7h-3l-1-5h-6z"/>
		<path id="Path 484" class="s67" d="m155 508v-8l3-1h10l-3 10-5 1z"/>
		<path id="Path 485" class="s40" d="m165 509l3-10h1 3 3v10h-2z"/>
		<path id="Path 486" class="s67" d="m229 502l3-3h9l6 5v5l-2 2-5 1-8 1-3-2z"/>
		<path id="Path 487" class="s80" d="m333 507l2-8h5v7l-3 1z"/>
		<path id="Path 488" class="s34" d="m340 506v-7h7v8z"/>
		<path id="Path 489" class="s61" d="m347 507v-8h2l5 2 4 2-1 4-5-1-3 3z"/>
		<path id="Path 490" class="s82" d="m393 503v-4h6l1 4-1 2z"/>
		<path id="Path 491" class="s73" d="m545 503v-4h4v4z"/>
		<path id="Path 492" class="s36" d="m768 502l9-3v8l4 3v1l-23 3-1-9 2-2z"/>
		<path id="Path 493" class="s16" d="m897 503l3-4 7 1v2l-4 3z"/>
		<path id="Path 494" class="s59" d="m147 501l4-1 1 7h-3z"/>
		<path id="Path 495" class="s82" d="m375 505l1-5 4 2-1 3z"/>
		<path id="Path 496" class="s24" d="m854 504l2-4h1l6 1v3l1 5v1l-4-4h-5z"/>
		<path id="Path 497" class="s76" d="m117 511l6-10h2v6z"/>
		<path id="Path 498" class="s81" d="m125 507v-6h5l7 2 1 6-6 6z"/>
		<path id="Path 499" class="s75" d="m141 503v-2h6l2 6v3l-5 1-2-2z"/>
		<path id="Path 500" class="s46" d="m247 504l2-3h12v1l-1 3-6 5-7-1z"/>
		<path id="Path 501" class="s6" d="m261 502l5-1 2 3-1 3-7-2z"/>
		<path id="Path 502" class="s18" d="m447 502l12 3 2 1-1 1-11-1h-2z"/>
		<path id="Path 503" class="s39" d="m505 507v-6h8v2 3z"/>
		<path id="Path 504" class="s40" d="m836 508l-1-7 9 1 1 3z"/>
		<path id="Path 505" class="s27" d="m884 504l4-3h2l3 2-2 7-8-3z"/>
		<path id="Path 506" class="s83" d="m379 505l1-3 7 1h6l6 2 1 4-3 4h-6l-1-4h-3l-4 6h-3z"/>
		<path id="Path 507" class="s61" d="m436 507l4-5h7v4l-9 1z"/>
		<path id="Path 508" class="s16" d="m873 509l2-7 9 2-1 3-1 3z"/>
		<path id="Path 509" class="s27" d="m903 505l4-3v7h-4z"/>
		<path id="Path 510" class="s52" d="m138 509l-1-6h4l1 6z"/>
		<path id="Path 511" class="s83" d="m279 507l12-4 5 2 4 10h-12l-5 6h-2z"/>
		<path id="Path 512" class="s84" d="m399 505l1-2h7v6h-7z"/>
		<path id="Path 513" class="s54" d="m425 505v-2l7 4v1z"/>
		<path id="Path 514" class="s54" d="m513 506v-3h9v6l-4 1z"/>
		<path id="Path 515" class="s81" d="m538 511v-6l7-2h4v12h-4l-6-1z"/>
		<path id="Path 516" class="s79" d="m568 513l-1-10h4l2 8z"/>
		<path id="Path 517" class="s23" d="m891 510l2-7h4l6 2v4l-1 9-9 3-2-6z"/>
		<path id="Path 518" class="s20" d="m267 507l1-3 7 2 1 1-9 4z"/>
		<path id="Path 519" class="s20" d="m465 506l1-2 7 1h4v7l-11-2z"/>
		<path id="Path 520" class="s57" d="m477 505l6-1 12 6v1l-5 1h-13z"/>
		<path id="Path 521" class="s65" d="m819 507l3-3h6l3 5h5l2 2v3h-5-12-2z"/>
		<path id="Path 522" class="s48" d="m849 506l5-2 1 2 2 7v1h-2l-6-3z"/>
		<path id="Path 523" class="s28" d="m864 509l-1-5h6l1 5z"/>
		<path id="Path 524" class="s40" d="m254 510l6-5 7 2v4l-1 1-5 7-3 4-4-5v-7z"/>
		<path id="Path 525" class="s85" d="m367 512l8-7h4l1 10h-11z"/>
		<path id="Path 526" class="s86" d="m418 510l7-5 7 3 5 1v8l4 2v4h-4l-6-7-4 3h-8z"/>
		<path id="Path 527" class="s57" d="m743 509l4-4h10l1 9-2 1h-9l-4-1z"/>
		<path id="Path 528" class="s38" d="m836 508l9-3 4 1v5h-11l-2-2z"/>
		<path id="Path 529" class="s54" d="m337 507l3-1 7 1 2 2 2 12h-1l-5 1-8-9z"/>
		<path id="Path 530" class="s87" d="m349 509l3-3 5 1 2 5h8l2 3v5l6 7h6l2-12 4-6h3l1 4h6l2 9-6 4 1 13-6 2-3-6h-7l-3 3 1 5-2 4-1 2h-12l-1-26-9-2z"/>
		<path id="Path 531" class="s65" d="m438 507l9-1h2v6l-8 7-4-2v-8z"/>
		<path id="Path 532" class="s88" d="m441 519l8-7v-6l11 1 2 4 4-1 11 2 2 7-11 6-1 8h-3l-1-8-6 2h-9l-7-4z"/>
		<path id="Path 533" class="s89" d="m460 507l1-1h4l1 4-4 1z"/>
		<path id="Path 534" class="s42" d="m505 507l8-1 5 4v7l-11-1-3-8z"/>
		<path id="Path 535" class="s60" d="m697 513l6-7 11 3 2 5h-15z"/>
		<path id="Path 536" class="s80" d="m857 513l-2-7h5l4 4-1 3z"/>
		<path id="Path 537" class="s62" d="m117 511l8-4 7 8v2l-4 3-5 1-3-3-5 1v-4z"/>
		<path id="Path 538" class="s55" d="m149 510v-3h3l3 1 5 2-1 5z"/>
		<path id="Path 539" class="s41" d="m192 510l5-3 8 2v4l-2 4-2 4h-6l-4-6z"/>
		<path id="Path 540" class="s87" d="m267 511l9-4h3l2 14-3 3-5-1-2 4h-4v-8l-1-7z"/>
		<path id="Path 541" class="s74" d="m328 511l2-4h3 4v6l-6 1z"/>
		<path id="Path 542" class="s82" d="m432 508v-1h4 2l-1 2z"/>
		<path id="Path 543" class="s66" d="m781 510l6-3h2v6l-6 1-2-3z"/>
		<path id="Path 544" class="s30" d="m789 513v-6h9l4 5v2h-3l-5 1h-2z"/>
		<path id="Path 545" class="s13" d="m802 512l8-5 1 7h-9z"/>
		<path id="Path 546" class="s15" d="m811 514l-1-7h3 6v7z"/>
		<path id="Path 547" class="s28" d="m882 510l1-3 8 3v5h-4z"/>
		<path id="Path 548" class="s37" d="m495 510l2-2h7l3 8v3h-7v-5l-5-3z"/>
		<path id="Path 549" class="s37" d="m132 515l6-6h4l2 2v4l-9 2h-3z"/>
		<path id="Path 550" class="s84" d="m160 510l5-1h8l1 10-1 2h-2v-3l-12-2v-1z"/>
		<path id="Path 551" class="s78" d="m174 519l-1-10h2 7l-3 6z"/>
		<path id="Path 552" class="s82" d="m179 515l3-6 10 1-1 5-2 4-6 3z"/>
		<path id="Path 553" class="s54" d="m205 513v-4h2 8l4 5 12 1v4l-2 4h-4l-4-4-4 1-9-5z"/>
		<path id="Path 554" class="s30" d="m245 511l2-2 7 1v1l-7 7z"/>
		<path id="Path 555" class="s90" d="m397 513l3-4h7l11 1 1 9v5l-4 3-16-5z"/>
		<path id="Path 556" class="s80" d="m518 510l4-1h4l2 4-5 5-5-1z"/>
		<path id="Path 557" class="s81" d="m589 512l1-3h5l2 2v4z"/>
		<path id="Path 558" class="s34" d="m735 513l2-4h6v5h-8z"/>
		<path id="Path 559" class="s6" d="m864 510v-1h6 3l-1 7-13-1-2-1v-1h6z"/>
		<path id="Path 560" class="s76" d="m872 516l1-7 9 1 5 5v8l-13 1z"/>
		<path id="Path 561" class="s22" d="m902 518l1-9h4v2 1 3l-3 3h-1z"/>
		<path id="Path 562" class="s57" d="m144 511l5-1 10 5v1l-3 4-8-1-4-4z"/>
		<path id="Path 563" class="s83" d="m310 512l3-2 6 2 1 10h-1l-7-2-6 5-3-8z"/>
		<path id="Path 564" class="s7" d="m907 511l2-1v2h-2z"/>
		<path id="Path 565" class="s57" d="m240 512l5-1 2 7v1h-3z"/>
		<path id="Path 566" class="s12" d="m247 518l7-7v7l-6 4-1-3z"/>
		<path id="Path 567" class="s40" d="m319 512h7v9l-2 2-4-1z"/>
		<path id="Path 568" class="s51" d="m326 512l2-1 3 3v7h-5z"/>
		<path id="Path 569" class="s90" d="m477 512h13v3l-2 2-9 2z"/>
		<path id="Path 570" class="s55" d="m490 512l5-1 5 3v5h-5l-5-4z"/>
		<path id="Path 571" class="s40" d="m534 513l4-2 1 3z"/>
		<path id="Path 572" class="s41" d="m568 513l5-2 16 1 8 3 6 2v8l-5 4-9 2h-6l-7-1-7-3-2-4z"/>
		<path id="Path 573" class="s80" d="m597 515v-4h7l2 4-3 2z"/>
		<path id="Path 574" class="s17" d="m758 514l23-3 2 3v1h-1-26z"/>
		<path id="Path 575" class="s26" d="m838 514v-3h11l6 3v3h-7z"/>
		<path id="Path 576" class="s40" d="m232 513l8-1 4 7-6 5-7-5v-4z"/>
		<path id="Path 577" class="s85" d="m261 519l5-7 1 7z"/>
		<path id="Path 578" class="s20" d="m203 517l2-4 3 2z"/>
		<path id="Path 579" class="s86" d="m331 514l6-1 8 9v5h-13l-1-6z"/>
		<path id="Path 580" class="s41" d="m523 518l5-5h6l5 1 6 1v5l-4 7v8l-1 2-13-2-4-2z"/>
		<path id="Path 581" class="s64" d="m670 515l18-2v2h-10z"/>
		<path id="Path 582" class="s37" d="m688 515v-2h9l4 1v1h-12z"/>
		<path id="Path 583" class="s66" d="m716 514l19-1v1 1h-19z"/>
		<path id="Path 584" class="s13" d="m783 514l6-1 3 2h-9z"/>
		<path id="Path 585" class="s6" d="m735 515v-1h8l4 1h-2z"/>
		<path id="Path 586" class="s44" d="m794 515l5-1v1z"/>
		<path id="Path 587" class="s70" d="m799 515v-1h3 9 8 2v1z"/>
		<path id="Path 588" class="s21" d="m821 515v-1h12v1z"/>
		<path id="Path 589" class="s1" d="m833 515v-1h5l10 3z"/>
		<path id="Path 590" class="s13" d="m855 517v-3h2l2 1v4l-4-1z"/>
		<path id="Path 591" class="s91" d="m114 520v-5h1v4 1z"/>
		<path id="Path 592" class="s55" d="m135 517l9-2 4 4-9 14h-2l-2-10z"/>
		<path id="Path 593" class="s89" d="m174 519l5-4 4 7-2 5h-5l-3-6z"/>
		<path id="Path 594" class="s57" d="m189 519l2-4 4 6v2h-4z"/>
		<path id="Path 595" class="s51" d="m203 517l5-2 9 5v7l-1 4h-4l-1-6-7 1-3-5z"/>
		<path id="Path 596" class="s92" d="m283 521l5-6h12l3 2 3 8-1 15-5 2v4l-9-1v-10l-8-2z"/>
		<path id="Path 597" class="s88" d="m383 515l-2 12h-6l-6-7v-5h11z"/>
		<path id="Path 598" class="s88" d="m488 517l2-2 5 4v10l-2 4h-2-2z"/>
		<path id="Path 599" class="s80" d="m545 520v-5h4v5z"/>
		<path id="Path 600" class="s34" d="m603 517l3-2 17 2v6l-16 3h-2l-2-1z"/>
		<path id="Path 601" class="s93" d="m656 516l12-1v2z"/>
		<path id="Path 602" class="s69" d="m668 517v-2h2 8v2z"/>
		<path id="Path 603" class="s58" d="m678 517v-2h10 1v2z"/>
		<path id="Path 604" class="s0" d="m689 517v-2h12z"/>
		<path id="Path 605" class="s0" d="m745 517l-29-2h19 10z"/>
		<path id="Path 606" class="s49" d="m745 517v-2h2 9 26v2z"/>
		<path id="Path 607" class="s1" d="m782 517v-2h1 9z"/>
		<path id="Path 608" class="s29" d="m859 519v-4l13 1 2 8v1h-1l-7-2z"/>
		<path id="Path 609" class="s17" d="m887 523v-8h4l2 6-1 2h-4z"/>
		<path id="Path 610" class="s53" d="m156 520l3-4 12 2v3l-2 8 3 9-5 6-4-5-1-8z"/>
		<path id="Path 611" class="s94" d="m427 519l4-3 6 7-2 8-6 2-2-10z"/>
		<path id="Path 612" class="s57" d="m507 519v-3l11 1 5 1v15l-7 1h-3v-7l-6-1z"/>
		<path id="Path 613" class="s16" d="m642 519l10-3v4l2 2v1l-3 3-10-1h-1z"/>
		<path id="Path 614" class="s61" d="m128 520l4-3h3v6z"/>
		<path id="Path 615" class="s95" d="m479 519l9-2 1 16-8 2-7 4h-1l-6-6 1-8z"/>
		<path id="Path 616" class="s42" d="m623 523v-6l19 2-2 6z"/>
		<path id="Path 617" class="s1" d="m854 518l-6-1h7v1z"/>
		<path id="Path 618" class="s75" d="m115 519l5-1 3 3v5h-8v-1-2-3z"/>
		<path id="Path 619" class="s19" d="m248 522l6-4 4 5-6 6h-4z"/>
		<path id="Path 620" class="s7" d="m866 523l-12-5h1l4 1z"/>
		<path id="Path 621" class="s11" d="m893 521l9-3h1l-1 4-3 1-2 2-4 1-1-3z"/>
		<path id="Path 622" class="s7" d="m902 522l1-4h1z"/>
		<path id="Path 623" class="s18" d="m139 533l9-14 8 1 6 11-5 3v5h-4l-12-2z"/>
		<path id="Path 624" class="s51" d="m183 522l6-3 2 4h4v10h-14v-6z"/>
		<path id="Path 625" class="s86" d="m217 520l4-1 4 4v4h-8z"/>
		<path id="Path 626" class="s37" d="m229 523l2-4 7 5-1 3-8 6-3-2v-3z"/>
		<path id="Path 627" class="s33" d="m238 524l6-5h3l1 3v7l-1 2h-2l-8-4z"/>
		<path id="Path 628" class="s65" d="m258 523l3-4h6v8l-1 6 6 6-1 7h-4l-1-3h-9l-1-7-4-3v-4z"/>
		<path id="Path 629" class="s83" d="m419 524v-5h8v4z"/>
		<path id="Path 630" class="s94" d="m495 529v-10h5 7v7l-3 3z"/>
		<path id="Path 631" class="s70" d="m113 523v-3h1 1v3z"/>
		<path id="Path 632" class="s51" d="m123 521l5-1 7 3 2 10-4 3v6l-5-2v-1l1-5-5-3-1-5z"/>
		<path id="Path 633" class="s87" d="m306 525l6-5 7 2v5l4 2v10 3h-16l-2-2z"/>
		<path id="Path 634" class="s53" d="m541 535v-8l4-7h4l4 3v10l-6 2z"/>
		<path id="Path 635" class="s55" d="m172 538l-3-9 2-8h2l3 6h5v6 6l-5 1z"/>
		<path id="Path 636" class="s78" d="m195 523v-2h6l3 5-1 7 3 2v4h-7l-4-6z"/>
		<path id="Path 637" class="s96" d="m278 524l3-3h2v12l-2 13h-4l-1-6-4-1-6-6 1-6h4l1 4h4z"/>
		<path id="Path 638" class="s83" d="m324 523l2-2h5l1 6-7 2z"/>
		<path id="Path 639" class="s83" d="m345 522l5-1-1 7-4-1z"/>
		<path id="Path 640" class="s88" d="m345 527l4 1 1-7h1l9 2 1 26h-6l-4-6h-8l-6-6-14 2v-10h2l7-2z"/>
		<path id="Path 641" class="s90" d="m323 529l-4-2v-5h1l4 1 1 6z"/>
		<path id="Path 642" class="s88" d="m394 539l-1-13 6-4 16 5 1 9z"/>
		<path id="Path 643" class="s49" d="m654 523v-1l3 3z"/>
		<path id="Path 644" class="s18" d="m225 527v-4h4l-3 5z"/>
		<path id="Path 645" class="s84" d="m271 527l2-4 5 1-2 7h-4z"/>
		<path id="Path 646" class="s85" d="m419 524l8-1 2 10-2 4-11-1-1-9z"/>
		<path id="Path 647" class="s90" d="m429 533l6-2 2-8h4l7 4v10l-2 4h-9l-9 5-1-9z"/>
		<path id="Path 648" class="s34" d="m553 533v-10h6l1 9-7 2z"/>
		<path id="Path 649" class="s80" d="m560 532l-1-9h8l2 4-1 4-5 2z"/>
		<path id="Path 650" class="s24" d="m607 526l16-3 17 2h1l-1 8h-6l-1 4-20-2-6-3z"/>
		<path id="Path 651" class="s27" d="m651 526l3-3 3 2 2 14h-4l-8-4z"/>
		<path id="Path 652" class="s22" d="m874 524l13-1h1l-1 4-13-2z"/>
		<path id="Path 653" class="s28" d="m887 527l1-4h4l1 3z"/>
		<path id="Path 654" class="s91" d="m114 529l1-4v1 3z"/>
		<path id="Path 655" class="s39" d="m204 526l7-1 1 6-6 4-3-2z"/>
		<path id="Path 656" class="s92" d="m457 527l6-2 1 8-2 1-5-1z"/>
		<path id="Path 657" class="s76" d="m598 529l5-4 2 1v5l-7-1z"/>
		<path id="Path 658" class="s23" d="m640 533l1-8 10 1-4 9h-7z"/>
		<path id="Path 659" class="s1" d="m897 525l-3 3h-18l-3-3h1l13 2 6-1z"/>
		<path id="Path 660" class="s31" d="m115 529v-3h8l1 5 5 3-1 5-4-1-6-4z"/>
		<path id="Path 661" class="s61" d="m504 529l3-3 6 1v7l-8 2h-4z"/>
		<path id="Path 662" class="s16" d="m605 531v-5h2v6z"/>
		<path id="Path 663" class="s33" d="m216 531l1-4h8l1 1v3l-3 1z"/>
		<path id="Path 664" class="s19" d="m229 533l8-6 8 4-2 8-9 7h-3l-3-3 1-6z"/>
		<path id="Path 665" class="s86" d="m448 537v-10h9v6l-4 4z"/>
		<path id="Path 666" class="s34" d="m568 531l1-4 7 3z"/>
		<path id="Path 667" class="s7" d="m118 535l-4-6h1l3 5z"/>
		<path id="Path 668" class="s87" d="m247 531l1-2h4v4h-3z"/>
		<path id="Path 669" class="s86" d="m493 533l2-4h9l-3 7h-3z"/>
		<path id="Path 670" class="s16" d="m576 530l7 1v3l-2 8-9-3-7-4-2-2 5-2z"/>
		<path id="Path 671" class="s16" d="m589 531l9-2v1l-5 3h-4z"/>
		<path id="Path 672" class="s29" d="m593 533l5-3 7 1 2 1 6 3v4h-14l-6-2z"/>
		<path id="Path 673" class="s55" d="m157 539v-5l5-3 1 8z"/>
		<path id="Path 674" class="s48" d="m206 535l6-4h4l7 1v5 4l5 2 3 3-2 3-8 1-6-1-6-2v-6l-3-2z"/>
		<path id="Path 675" class="s30" d="m223 532l3-1 3 2v4h-6z"/>
		<path id="Path 676" class="s86" d="m243 539l2-8h2l2 2v10z"/>
		<path id="Path 677" class="s17" d="m583 534v-3h6v2l-3 1z"/>
		<path id="Path 678" class="s25" d="m553 534l7-2 3 1 2 2v8l-3 12-8-5-7-8 1-4z"/>
		<path id="Path 679" class="s54" d="m133 542v-6l4-3h2l2 4 12 2v8l-7-1-10-3h-1z"/>
		<path id="Path 680" class="s82" d="m181 539v-6h14l4 6v6h-9l-3-6z"/>
		<path id="Path 681" class="s88" d="m249 543v-10h3l4 3 1 7h9l1 3-3 2-8-1z"/>
		<path id="Path 682" class="s83" d="m281 546l2-13 8 2v10l-8 1z"/>
		<path id="Path 683" class="s38" d="m453 537l4-4 5 1v4l-3 3h-6z"/>
		<path id="Path 684" class="s82" d="m462 534l2-1h3l6 6-4 3-7-4z"/>
		<path id="Path 685" class="s38" d="m481 535l8-2h2v4l-6 2h-4z"/>
		<path id="Path 686" class="s20" d="m491 537v-4h2l5 3-1 1z"/>
		<path id="Path 687" class="s66" d="m516 534l7-1 4 2v4h-3-7z"/>
		<path id="Path 688" class="s66" d="m547 535l6-2v1l-5 4z"/>
		<path id="Path 689" class="s22" d="m586 534l3-1h4v4h-2-4z"/>
		<path id="Path 690" class="s27" d="m633 537l1-4h6v2z"/>
		<path id="Path 691" class="s49" d="m118 535v-1l6 4z"/>
		<path id="Path 692" class="s40" d="m505 536l8-2h3l1 5-1 2h-10-1z"/>
		<path id="Path 693" class="s27" d="m581 542l2-8h3l1 3h4v7l4 4v3h-3l-9-6z"/>
		<path id="Path 694" class="s85" d="m376 543l-1-5 3-3h7l3 6-5 2z"/>
		<path id="Path 695" class="s19" d="m474 539l7-4v4l-4 1z"/>
		<path id="Path 696" class="s6" d="m527 539v-4l13 2 2 3-5 4h-1l-3-4z"/>
		<path id="Path 697" class="s76" d="m540 537l1-2h6l1 3-1 4-5-2z"/>
		<path id="Path 698" class="s27" d="m565 543v-8l7 4-1 4z"/>
		<path id="Path 699" class="s4" d="m613 539v-4l20 2 7-2h7l8 4v6h-23l-17-2z"/>
		<path id="Path 700" class="s9" d="m394 539l22-3 11 1 1 9-1 2-13 6-7 3-5 1-3 2-5 3-5 2-26 3h-2l-4 2-9-1-1-1-1-1 5-10 4-1 3 3 16-1-1-9 1-2h7l2-4 5-2z"/>
		<path id="Path 701" class="s57" d="m497 537l1-1h3 4v5h-7z"/>
		<path id="Path 702" class="s55" d="m228 543l-5-2v-4h6z"/>
		<path id="Path 703" class="s95" d="m323 539l14-2 6 6v5l8 9-5 10-9-1-2-1 1-20-13-3z"/>
		<path id="Path 704" class="s20" d="m446 541l2-4h5v4l-4 2z"/>
		<path id="Path 705" class="s54" d="m485 539l6-2h6l1 4-3 2h-8-1z"/>
		<path id="Path 706" class="s13" d="m595 548l-4-4v-7h2l6 2v9z"/>
		<path id="Path 707" class="s97" d="m128 540l-4-2 4 1z"/>
		<path id="Path 708" class="s78" d="m167 544l5-6 4 2v4l-6 3h-3z"/>
		<path id="Path 709" class="s55" d="m459 541l3-3 7 4v3l-10 3h-2z"/>
		<path id="Path 710" class="s51" d="m153 547v-8h4 6l4 5v3l-5 1h-1-5z"/>
		<path id="Path 711" class="s61" d="m176 540l5-1h6l3 6-5 4h-5-1l-3-5z"/>
		<path id="Path 712" class="s18" d="m199 545v-6h7l3 2v6h-2-8z"/>
		<path id="Path 713" class="s54" d="m234 546l9-7 6 4 7 4h-5z"/>
		<path id="Path 714" class="s95" d="m271 546l1-7 4 1 1 6-1 1z"/>
		<path id="Path 715" class="s59" d="m469 542l4-3h1l3 1v4l-7 1h-1z"/>
		<path id="Path 716" class="s48" d="m477 540l4-1h4l1 4-9 1z"/>
		<path id="Path 717" class="s14" d="m516 541l1-2h7v1l-5 2z"/>
		<path id="Path 718" class="s47" d="m524 540v-1h3l6 1z"/>
		<path id="Path 719" class="s28" d="m571 543l1-4 9 3 2 3-4 4h-6z"/>
		<path id="Path 720" class="s28" d="m599 548v-9h14l2 4v5l-7 3-7-1z"/>
		<path id="Path 721" class="s2" d="m655 545v-6h4v5z"/>
		<path id="Path 722" class="s97" d="m135 543l-7-3 5 2z"/>
		<path id="Path 723" class="s65" d="m300 546v-4l5-2 2 2v7z"/>
		<path id="Path 724" class="s22" d="m537 544l5-4 5 2 7 8-2 9-14-13z"/>
		<path id="Path 725" class="s40" d="m428 546l9-5h9l3 2v5h-22z"/>
		<path id="Path 726" class="s37" d="m449 543l4-2h6l-2 7h-8z"/>
		<path id="Path 727" class="s44" d="m495 543l3-2h7 1v1z"/>
		<path id="Path 728" class="s91" d="m506 542v-1h10l3 1z"/>
		<path id="Path 729" class="s26" d="m307 549v-7h16l13 3-1 20-4-1-8-8-8-3z"/>
		<path id="Path 730" class="s69" d="m145 547l-9-4 10 3z"/>
		<path id="Path 731" class="s65" d="m351 557l-8-9v-5h8l4 6v7z"/>
		<path id="Path 732" class="s65" d="m374 547l2-4h7l-2 4z"/>
		<path id="Path 733" class="s49" d="m477 544l9-1h1l-17 4v-2z"/>
		<path id="Path 734" class="s4" d="m562 555l3-12h6l2 6 1 9-2 2-5 3h-1z"/>
		<path id="Path 735" class="s5" d="m615 548v-5l17 2-4 6z"/>
		<path id="Path 736" class="s48" d="m170 547l6-3 3 5h-9z"/>
		<path id="Path 737" class="s45" d="m536 546v-2h1l1 2z"/>
		<path id="Path 738" class="s3" d="m655 545l4-1-2 6-3 3-2 4-1 1-2 2-5 3v1l-7 3-5 2h-5l-2-5-10-1-8-7 1-5 7-3 13 3 4-6z"/>
		<path id="Path 739" class="s55" d="m185 549l5-4h9v2 6h-4l-8-2h-1z"/>
		<path id="Path 740" class="s78" d="m283 546l8-1 9 1 7 3 8 4v11h-6l-10-1 4-2v-8l-12-2-8-2z"/>
		<path id="Path 741" class="s69" d="m459 548l10-3h1v2z"/>
		<path id="Path 742" class="s5" d="m579 549l4-4 9 6 1 16-10-5-2-2-2-2z"/>
		<path id="Path 743" class="s47" d="m145 547l1-1 7 1 3 1z"/>
		<path id="Path 744" class="s34" d="m221 550l8-1 2-3h3l17 1v9h-3-9l-8-1h-5l-5-1z"/>
		<path id="Path 745" class="s54" d="m264 548l3-2h4l5 1v2h-11z"/>
		<path id="Path 746" class="s57" d="m276 547l1-1h4 2v3h-7z"/>
		<path id="Path 747" class="s21" d="m556 563l-5-1-15-16h2l14 13z"/>
		<path id="Path 748" class="s13" d="m162 548l5-1h3v2h-3z"/>
		<path id="Path 749" class="s66" d="m199 553v-6h8v6z"/>
		<path id="Path 750" class="s30" d="m207 553v-6h2l6 2v4h-6z"/>
		<path id="Path 751" class="s41" d="m251 556v-9h5l8 1 1 1v8 1h-1-4l-3-1z"/>
		<path id="Path 752" class="s8" d="m167 550l-6-2h1l5 1z"/>
		<path id="Path 753" class="s23" d="m595 551v-3h4l2 2-2 2z"/>
		<path id="Path 754" class="s97" d="m167 550v-1h3v1z"/>
		<path id="Path 755" class="s47" d="m170 550v-1h9 1v2z"/>
		<path id="Path 756" class="s14" d="m180 551v-2h5l1 2z"/>
		<path id="Path 757" class="s35" d="m215 553v-4l6 1v4h-4z"/>
		<path id="Path 758" class="s80" d="m265 557v-8h11 7l8 2-2 10h-3-2-1l-7-2h-3z"/>
		<path id="Path 759" class="s26" d="m355 556v-7h6 12l1 9-16 1z"/>
		<path id="Path 760" class="s3" d="m574 558l-1-9h6v9h-1z"/>
		<path id="Path 761" class="s9" d="m552 559l2-9 8 5 4 8-8 2-2-2z"/>
		<path id="Path 762" class="s2" d="m599 552l2-2 7 1-1 5z"/>
		<path id="Path 763" class="s8" d="m187 552l-7-1h6 1z"/>
		<path id="Path 764" class="s91" d="m187 552v-1l8 2z"/>
		<path id="Path 765" class="s53" d="m289 561l2-10 12 2v8l-4 2h-1-5z"/>
		<path id="Path 766" class="s9" d="m593 567l-1-16h3l4 1 8 4 8 7v6l-7-1z"/>
		<path id="Path 767" class="s44" d="m217 555l-8-2h6l2 1z"/>
		<path id="Path 768" class="s51" d="m315 564v-11l8 3 1 8z"/>
		<path id="Path 769" class="s98" d="m217 555v-1h4l5 1h-2z"/>
		<path id="Path 770" class="s0" d="m231 557l-7-2h2 5z"/>
		<path id="Path 771" class="s69" d="m231 557v-2l8 1v1z"/>
		<path id="Path 772" class="s93" d="m239 557v-1h9v1z"/>
		<path id="Path 773" class="s0" d="m248 557v-1h3l6 1v1z"/>
		<path id="Path 774" class="s89" d="m324 564l-1-8 8 8h-1z"/>
		<path id="Path 775" class="s91" d="m257 558v-1l3 1z"/>
		<path id="Path 776" class="s76" d="m265 558v-1l8 2h-2z"/>
		<path id="Path 777" class="s97" d="m271 560l-7-2h1l6 1z"/>
		<path id="Path 778" class="s7" d="m581 560l-3-2h1z"/>
		<path id="Path 779" class="s91" d="m271 560v-1h2 3v1z"/>
		<path id="Path 780" class="s77" d="m276 560v-1l7 2z"/>
		<path id="Path 781" class="s97" d="m284 561l-8-1 7 1z"/>
		<path id="Path 782" class="s97" d="m293 563l-7-2h3z"/>
		<path id="Path 783" class="s70" d="m309 565l-11-2h1l10 1z"/>
		<path id="Path 784" class="s0" d="m558 565l8-2h1l-2 4z"/>
		<path id="Path 785" class="s5" d="m615 569v-6l10 1 2 5v1l-6 1z"/>
		<path id="Path 786" class="s69" d="m309 565v-1h6 9 6v1z"/>
		<path id="Path 787" class="s0" d="m330 565v-1h1l4 1 2 1v1z"/>
		<path id="Path 788" class="s1" d="m337 567v-1l9 1 1 1z"/>
		<path id="Path 789" class="s1" d="m620 571l-12-3 7 1 6 2z"/>
		<path id="Path 790" class="s8" d="m355 572l-7-3 9 1v2z"/>
		<path id="Path 791" class="s7" d="m627 570v-1h5z"/>
		<path id="Path 792" class="s7" d="m621 571l6-1v2h-7v-1z"/>
	</g>
</svg>