<svg version="1.2" xmlns="http://www.w3.org/2000/svg" viewBox="0 0 1000 1000" width="1000" height="1000">
	<title>Etheostoma_flabellare</title>
	<style>
		.s0 { opacity: .1;fill: #ded3e3 } 
		.s1 { opacity: 1;fill: #f4effa } 
		.s2 { opacity: .3;fill: #f6f4fa } 
		.s3 { opacity: .1;fill: #eee9f3 } 
		.s4 { fill: #e3ddf6 } 
		.s5 { opacity: 1;fill: #ebe5f9 } 
		.s6 { opacity: .1;fill: #fbfafe } 
		.s7 { opacity: .3;fill: #e1d8e5 } 
		.s8 { opacity: .5;fill: #e2dae8 } 
		.s9 { fill: #f1eadf } 
		.s10 { opacity: 1;fill: #ece5ea } 
		.s11 { fill: #eae0cd } 
		.s12 { fill: #ded2c8 } 
		.s13 { fill: #d9ccbb } 
		.s14 { fill: #d9d0f1 } 
		.s15 { opacity: .9;fill: #ede9f5 } 
		.s16 { fill: #b8a586 } 
		.s17 { fill: #9d8867 } 
		.s18 { fill: #d6cada } 
		.s19 { fill: #d2c4ac } 
		.s20 { fill: #c1b090 } 
		.s21 { fill: #e4d9d9 } 
		.s22 { fill: #ccbfcb } 
		.s23 { fill: #cfc4e4 } 
		.s24 { opacity: 1;fill: #fdfbfc } 
		.s25 { fill: #bdaec6 } 
		.s26 { fill: #c7b9d5 } 
		.s27 { opacity: .6;fill: #f5f3fa } 
		.s28 { fill: #bcacaf } 
		.s29 { fill: #cbbcb6 } 
		.s30 { fill: #8f7d7d } 
		.s31 { fill: #dbced2 } 
		.s32 { fill: #ac9db1 } 
		.s33 { fill: #b5a6ba } 
		.s34 { fill: #a49390 } 
		.s35 { fill: #dfd6e6 } 
		.s36 { fill: #837079 } 
		.s37 { fill: #d3c5c4 } 
		.s38 { fill: #c3b5bd } 
		.s39 { fill: #ad9d97 } 
		.s40 { fill: #968586 } 
		.s41 { fill: #705e6e } 
		.s42 { fill: #c1b2a6 } 
		.s43 { fill: #897669 } 
		.s44 { fill: #a696a6 } 
		.s45 { opacity: 1;fill: #b3a3a5 } 
		.s46 { fill: #917b5e } 
		.s47 { fill: #5c4736 } 
		.s48 { fill: #6c5951 } 
		.s49 { fill: #39261c } 
		.s50 { fill: #4d3930 } 
		.s51 { fill: #1d110d } 
		.s52 { fill: #b19f8c } 
		.s53 { fill: #3f2e2b } 
		.s54 { fill: #2e2025 } 
		.s55 { fill: #433441 } 
		.s56 { fill: #6a5866 } 
		.s57 { opacity: .7;fill: #f1edf6 } 
		.s58 { opacity: .2;fill: #998892 } 
		.s59 { fill: #856e50 } 
		.s60 { fill: #968372 } 
		.s61 { fill: #baaa9a } 
		.s62 { fill: #7d695e } 
		.s63 { opacity: .1;fill: #c5b7be } 
		.s64 { fill: #f9f3ed } 
		.s65 { opacity: 1;fill: #7e6c83 } 
		.s66 { fill: #887688 } 
		.s67 { opacity: .3;fill: #776675 } 
		.s68 { fill: #0b0406 } 
		.s69 { fill: #271915 } 
		.s70 { fill: #5a4853 } 
		.s71 { fill: #61505e } 
		.s72 { opacity: .6;fill: #e1d8e6 } 
		.s73 { opacity: .7;fill: #d3c7d4 } 
		.s74 { fill: #a99783 } 
		.s75 { fill: #9f8d7c } 
		.s76 { fill: #786572 } 
		.s77 { fill: #c9b9a0 } 
		.s78 { opacity: .9;fill: #a08f9d } 
		.s79 { fill: #8d7c91 } 
		.s80 { fill: #503f4b } 
		.s81 { fill: #775f45 } 
		.s82 { opacity: .3;fill: #bbadbc } 
		.s83 { fill: #948398 } 
		.s84 { fill: #a69171 } 
		.s85 { fill: #a0909e } 
		.s86 { fill: #140c1a } 
		.s87 { fill: #322535 } 
		.s88 { fill: #9a8aa1 } 
		.s89 { fill: #9c8b8c } 
		.s90 { fill: #b09c78 } 
		.s91 { fill: #654f40 } 
		.s92 { opacity: .6;fill: #bcaebb } 
		.s93 { fill: #1e1424 } 
		.s94 { opacity: .4;fill: #a08e9b } 
		.s95 { opacity: .8;fill: #ab9cb1 } 
		.s96 { opacity: .5;fill: #93828e } 
	</style>
	<g id="Background">
		<path id="Path 0" class="s0" d="m209 479h1v1h-1z"/>
		<path id="Path 1" class="s1" d="m554 422h1v1h-1z"/>
		<path id="Path 2" class="s2" d="m555 422l6-2h8l10 4-20-1h-4z"/>
		<path id="Path 3" class="s3" d="m736 454h1v1h-1z"/>
		<path id="Path 4" class="s4" d="m801 427l4-1v12h-7l-1 4-4-4h-5-7l-1-2 1-2 7-2 5-2 3-1z"/>
		<path id="Path 5" class="s5" d="m559 423l20 1v10l-5 5h-7l-1-5-7-2z"/>
		<path id="Path 6" class="s2" d="m554 423h1v1h-1z"/>
		<path id="Path 7" class="s1" d="m554 424l1-1h4v9h-2-5l-2-6 2-2z"/>
		<path id="Path 8" class="s2" d="m533 425l7-1v1z"/>
		<path id="Path 9" class="s3" d="m540 425v-1h12l-2 2z"/>
		<path id="Path 10" class="s1" d="m579 434v-10h4l4 3 2 2v5z"/>
		<path id="Path 11" class="s4" d="m526 429l7-4h7l10 1 2 6-1 12-3 4h-6l-2-3-7 1h-4l-1-7-5-3v-4z"/>
		<path id="Path 12" class="s3" d="m801 427l13-2v1h-9z"/>
		<path id="Path 13" class="s6" d="m814 426v-1l3 2z"/>
		<path id="Path 14" class="s5" d="m805 438v-12h9l3 1 6 1-1 4-2 4 2 1 3 1v8 5l6 2 4 1-3 9-7-4v-3l-7-4v-5z"/>
		<path id="Path 15" class="s6" d="m822 432l1-4-6-1h7z"/>
		<path id="Path 16" class="s7" d="m373 434l3-5h11v1h-2-8z"/>
		<path id="Path 17" class="s2" d="m387 430v-1h15v1l-10 1z"/>
		<path id="Path 18" class="s7" d="m402 430v-1l16 3v1l-6-1z"/>
		<path id="Path 19" class="s2" d="m423 430l19-1v1l-4 2-9-1z"/>
		<path id="Path 20" class="s7" d="m442 430v-1l10 4h-4z"/>
		<path id="Path 21" class="s4" d="m589 434v-5l10 5v4h-8z"/>
		<path id="Path 22" class="s8" d="m358 433l2-3 7 2-6 1z"/>
		<path id="Path 23" class="s9" d="m373 434l4-4h8l1 4-2 5-11 3-1-6z"/>
		<path id="Path 24" class="s10" d="m386 434l-1-4h2l5 1v3z"/>
		<path id="Path 25" class="s11" d="m392 431l10-1 10 2-5 4h-5l-1 4-5 4-3-2-1-8z"/>
		<path id="Path 26" class="s11" d="m418 432l5-2 6 1v2l-6 3h-2l-3-3z"/>
		<path id="Path 27" class="s12" d="m438 432l4-2 6 3v1l-9 2z"/>
		<path id="Path 28" class="s13" d="m429 433v-2l9 1 1 4-1 5h5l-1 9-5 2-3 1-7-1v-12l4-2z"/>
		<path id="Path 29" class="s14" d="m361 433l6-1 2 4-5 2h-3z"/>
		<path id="Path 30" class="s8" d="m369 436l-2-4 6 2-1 2z"/>
		<path id="Path 31" class="s13" d="m407 436l5-4 6 1 3 3-2 5-1 8-10 1-1-10z"/>
		<path id="Path 32" class="s15" d="m513 439l6-7h4v4z"/>
		<path id="Path 33" class="s5" d="m551 444l1-12h5l2 11-4 1z"/>
		<path id="Path 34" class="s4" d="m559 443l-2-11h2l7 2 1 5v6l-6 1z"/>
		<path id="Path 35" class="s7" d="m822 437l-2-1 2-4z"/>
		<path id="Path 36" class="s15" d="m352 439l6-6h3v5l-4 4h-6z"/>
		<path id="Path 37" class="s16" d="m423 436l6-3 2 5-4 2h-2z"/>
		<path id="Path 38" class="s9" d="m448 434v-1h4l11 1v2l-6 3v3h-4l-7-2z"/>
		<path id="Path 39" class="s13" d="m384 439l2-5h6l1 8 3 2v4l-5 3h-4v-11z"/>
		<path id="Path 40" class="s17" d="m439 436l9-2-2 6-3 1h-5z"/>
		<path id="Path 41" class="s3" d="m463 436v-2l5 3-1 1z"/>
		<path id="Path 42" class="s18" d="m574 439l5-5h10l2 4-4 3v7l-1 2-5 1-4-2-2-3z"/>
		<path id="Path 43" class="s1" d="m599 438v-4h10l8 3 5 1 1 1v9h-4l-1-3-9-1h-3l-7-2z"/>
		<path id="Path 44" class="s3" d="m776 437l5-3-1 2z"/>
		<path id="Path 45" class="s9" d="m468 437l5-2h4l3 3-2 2-6 2h-5v-4z"/>
		<path id="Path 46" class="s6" d="m480 438l-3-3 7 4z"/>
		<path id="Path 47" class="s6" d="m825 436l12 1-11-1z"/>
		<path id="Path 48" class="s19" d="m364 438l5-2h3l1 6-3 6h-3l-3-2z"/>
		<path id="Path 49" class="s20" d="m401 440l1-4h5v4z"/>
		<path id="Path 50" class="s17" d="m419 441l2-5h2l2 4z"/>
		<path id="Path 51" class="s13" d="m457 442v-3l6-3 4 2v4l-2 2z"/>
		<path id="Path 52" class="s21" d="m513 439l10-3 5 3 1 7v2h-4l-3 5-9 3v-2-5h-4v-6z"/>
		<path id="Path 53" class="s10" d="m776 437l4-1 1 2v6l-8 3h-5l-2-1-1-3 3-3 3-1z"/>
		<path id="Path 54" class="s7" d="m822 437l3-1h1l-1 2z"/>
		<path id="Path 55" class="s4" d="m825 438l1-2 11 1 5 1 2 2 5 8v6l-7 5-2-5-2-5h-5l-2-3h-6z"/>
		<path id="Path 56" class="s22" d="m351 442h6l4-4h3v8l3 2 1 6-3 2h-14-1l-1-5-1-4v-2z"/>
		<path id="Path 57" class="s23" d="m478 440l2-2 4 1 4 3 2 2v4h-5l-7-2z"/>
		<path id="Path 58" class="s24" d="m587 448v-7l4-3h8v4l-6 6z"/>
		<path id="Path 59" class="s21" d="m781 444v-6h7v7l-3 1h-4z"/>
		<path id="Path 60" class="s22" d="m788 445v-7h5l4 4v2 6z"/>
		<path id="Path 61" class="s25" d="m797 442l1-4h7l13 9v5l7 4v3l-8-4-2-4-7 2-3-7-8-2z"/>
		<path id="Path 62" class="s2" d="m348 445l4-6-1 3z"/>
		<path id="Path 63" class="s26" d="m373 442l11-3 3 1v11l-2 1h-13l-2-4z"/>
		<path id="Path 64" class="s6" d="m488 442l-4-3 5 3z"/>
		<path id="Path 65" class="s27" d="m506 444l7-5-4 4z"/>
		<path id="Path 66" class="s22" d="m567 445v-6h7l1 7z"/>
		<path id="Path 67" class="s4" d="m623 448v-9l11 5-1 4z"/>
		<path id="Path 68" class="s28" d="m396 444l5-4h6l1 10-1 2h-4l-7-4z"/>
		<path id="Path 69" class="s29" d="m419 441l6-1h2v12h-7l-2-3z"/>
		<path id="Path 70" class="s1" d="m443 441l3-1 7 2-4 7-7 1z"/>
		<path id="Path 71" class="s30" d="m472 442l6-2v6l-5 1z"/>
		<path id="Path 72" class="s2" d="m761 444l7-4-3 3z"/>
		<path id="Path 73" class="s27" d="m842 459l7-5v-6l-5-8 7 7v8l-9 5z"/>
		<path id="Path 74" class="s31" d="m449 449l4-7h4l8 2v10h-3-1l-6-5h-5z"/>
		<path id="Path 75" class="s26" d="m465 444l2-2h5l1 5v7h-8z"/>
		<path id="Path 76" class="s27" d="m490 444l-2-2h1 1z"/>
		<path id="Path 77" class="s2" d="m490 444v-2l2 8-2-2z"/>
		<path id="Path 78" class="s28" d="m593 448l6-6 7 2-1 4-4 1-1 5 7 5v3h-10v-8l-4-2z"/>
		<path id="Path 79" class="s18" d="m506 444l3-1v6l-4 2-4-2z"/>
		<path id="Path 80" class="s32" d="m555 444l4-1 2 3v1l-4 1h-2z"/>
		<path id="Path 81" class="s21" d="m761 444l4-1 1 3-4 4-4-3z"/>
		<path id="Path 82" class="s7" d="m495 450l11-6-5 5-6 2z"/>
		<path id="Path 83" class="s25" d="m548 448l3-4h4v4z"/>
		<path id="Path 84" class="s10" d="m605 448l1-4h3v4z"/>
		<path id="Path 85" class="s33" d="m609 448v-4l9 1 1 3-2 2z"/>
		<path id="Path 86" class="s24" d="m623 448h10l1-4 3 1 7 4 14 5 4 3 3 2v1l-4 6h-8l-3-7-5 1h-8l1-7-10 2v5l-6-3h-9l-6 2-7-5 1-5 4-1h4l8 2 2-2z"/>
		<path id="Path 87" class="s7" d="m751 449l10-5-3 3-6 2z"/>
		<path id="Path 88" class="s34" d="m773 447l8-3v2l-3 4h-5z"/>
		<path id="Path 89" class="s35" d="m797 450v-6l8 2 3 7v2l-7 2z"/>
		<path id="Path 90" class="s2" d="m343 452l1-5 4-2v2z"/>
		<path id="Path 91" class="s32" d="m533 446l7-1 2 3-1 8h-3l-2-2z"/>
		<path id="Path 92" class="s24" d="m561 446l6-1 8 1 2 3-4 3h-10l-2-5z"/>
		<path id="Path 93" class="s36" d="m785 446l3-1 9 5 4 7 10 12v1l-7-1-1 5h-4v-6l-5-1-3-5 1-7-7-5z"/>
		<path id="Path 94" class="s35" d="m473 447l5-1 7 2v6l-10 1-2-1z"/>
		<path id="Path 95" class="s35" d="m529 448v-2h4l3 8-6 2z"/>
		<path id="Path 96" class="s30" d="m762 450l4-4 2 1v5 7l-2 1h-3z"/>
		<path id="Path 97" class="s37" d="m778 450l3-4h4v4l7 5-1 7h-6l-5-4z"/>
		<path id="Path 98" class="s26" d="m831 453l-6-2v-5h6l2 3z"/>
		<path id="Path 99" class="s37" d="m343 452l5-5 1 4-4 3-3 1z"/>
		<path id="Path 100" class="s10" d="m557 448l4-1 2 5-2 4h-4z"/>
		<path id="Path 101" class="s19" d="m752 449l6-2 4 3 1 10-1 4-5-2-1-6h-3z"/>
		<path id="Path 102" class="s12" d="m768 452v-5h5v3z"/>
		<path id="Path 103" class="s38" d="m368 454l-1-6h3l2 4z"/>
		<path id="Path 104" class="s36" d="m391 451l5-3 7 4v1h-6l-4 1z"/>
		<path id="Path 105" class="s31" d="m485 454v-6h5l2 2 3 1-1 3z"/>
		<path id="Path 106" class="s38" d="m522 453l3-5h4l1 8v2l-5 1z"/>
		<path id="Path 107" class="s35" d="m538 456h3l1-8h6 7 2v8l-2 6-15-2z"/>
		<path id="Path 108" class="s37" d="m586 450l1-2h6v4h-4-3z"/>
		<path id="Path 109" class="s39" d="m408 450l10-1 2 3-1 2-10 2h-2v-4z"/>
		<path id="Path 110" class="s40" d="m442 450l7-1h1l-2 3h-5-4-2z"/>
		<path id="Path 111" class="s41" d="m448 452l2-3h5l6 5-7 2-5-2z"/>
		<path id="Path 112" class="s42" d="m495 451l6-2 4 2-1 2-10 1z"/>
		<path id="Path 113" class="s43" d="m505 451l4-2h4v5l-8 2-1-3z"/>
		<path id="Path 114" class="s21" d="m573 452l4-3 4 2v3l5-2h3v7l5 5-11 1h-5l-1-5-4-1z"/>
		<path id="Path 115" class="s7" d="m741 454l10-5-6 4z"/>
		<path id="Path 116" class="s29" d="m745 453l6-4h1l1 7h-6z"/>
		<path id="Path 117" class="s44" d="m831 453l2-4h5l2 5h-5z"/>
		<path id="Path 118" class="s2" d="m495 451l-3-1h3z"/>
		<path id="Path 119" class="s45" d="m581 451l5-1v2l-5 2z"/>
		<path id="Path 120" class="s39" d="m768 452l5-2h5l2 8-4 3-8-2z"/>
		<path id="Path 121" class="s36" d="m345 454l4-3 1 5h-2z"/>
		<path id="Path 122" class="s46" d="m385 452l2-1h4l2 3-5 2z"/>
		<path id="Path 123" class="s41" d="m808 453l7-2 2 4-1 5h-4l-4-5z"/>
		<path id="Path 124" class="s2" d="m341 455l2-3-1 3z"/>
		<path id="Path 125" class="s47" d="m368 454l4-2h13l3 4-2 3-5 1h-12-4v-4z"/>
		<path id="Path 126" class="s48" d="m403 453v-1h4v4h-2z"/>
		<path id="Path 127" class="s46" d="m419 454l1-2h7l7 1v3l2 6-6 13-1 3-7-1-1-9 3-7z"/>
		<path id="Path 128" class="s47" d="m434 453l3-1h2v4h-5z"/>
		<path id="Path 129" class="s49" d="m439 456v-4h4v4z"/>
		<path id="Path 130" class="s47" d="m443 456v-4h5l1 2-3 4z"/>
		<path id="Path 131" class="s31" d="m561 456l2-4h10v7l-4 5h-6z"/>
		<path id="Path 132" class="s24" d="m594 464l-5-5v-7h4l4 2v8l-2 2z"/>
		<path id="Path 133" class="s50" d="m393 454l4-1v4l5 3 1 9h-2-7l-3 4-10 1 2-4 4-3-1-8 2-3z"/>
		<path id="Path 134" class="s51" d="m402 460l-5-3v-4h6l2 3z"/>
		<path id="Path 135" class="s48" d="m494 454l10-1 1 3v2l-11-2z"/>
		<path id="Path 136" class="s52" d="m513 456l9-3 3 6v3h-12l-1-4z"/>
		<path id="Path 137" class="s37" d="m628 460v-5l10-2-1 7 2 9-6 3v-5h-4z"/>
		<path id="Path 138" class="s45" d="m741 454l4-1 2 3h6l-3 7-2 3h-7l-2-10 1-2z"/>
		<path id="Path 139" class="s53" d="m342 455l3-1 3 2-1 4-8 5-2-5 3-2z"/>
		<path id="Path 140" class="s47" d="m409 456l10-2 5 7-3 7h-8l2-7z"/>
		<path id="Path 141" class="s54" d="m446 458l3-4 5 2 1 14-10-1z"/>
		<path id="Path 142" class="s55" d="m454 456l7-2h1l2 4h11l19-2 11 2 2 6v6h-8l-10-1-12-2-4 1v3h-4l-7 2-7-3z"/>
		<path id="Path 143" class="s56" d="m475 458h-11l-2-4h3 8l2 1z"/>
		<path id="Path 144" class="s43" d="m475 455l10-1h9v2l-19 2z"/>
		<path id="Path 145" class="s13" d="m505 456l8-2v2l-1 2h-7z"/>
		<path id="Path 146" class="s45" d="m530 456l6-2 2 2 2 4-3 1-7-3z"/>
		<path id="Path 147" class="s57" d="m736 455l1-1h3l-1 2h-3z"/>
		<path id="Path 148" class="s26" d="m832 463l3-9h5l2 5v1l5 5 4 1-2 12-7 3h-3l-1-4h-4l-1-4 4-4h-4l-1-3z"/>
		<path id="Path 149" class="s58" d="m327 457l14-2h1l-2 3h-7-6z"/>
		<path id="Path 150" class="s48" d="m351 456h14v4l-11 2h-3z"/>
		<path id="Path 151" class="s3" d="m733 457l3-2v1z"/>
		<path id="Path 152" class="s37" d="m801 457l7-2 4 5h4l1 5-6 4z"/>
		<path id="Path 153" class="s56" d="m816 460l1-5 8 4 7 4v3l-5 2h-8l-2-3z"/>
		<path id="Path 154" class="s47" d="m339 465l8-5 1-4h2 1v6l-2 11 2 6 6 1-15 6-4-2-2-4-1-3z"/>
		<path id="Path 155" class="s49" d="m402 460l3-4h2 2l6 5-2 7-2 3-8-2z"/>
		<path id="Path 156" class="s59" d="m436 462l-2-6h5z"/>
		<path id="Path 157" class="s50" d="m436 462l3-6h4l3 2-1 11-6 11-3-2 1-3h-7z"/>
		<path id="Path 158" class="s28" d="m555 462l2-6h4l2 8z"/>
		<path id="Path 159" class="s60" d="m613 457h9l-3 3-4 1-3-1z"/>
		<path id="Path 160" class="s61" d="m733 457l3-1h3l2 10 1 5-1 7v2l-4 1v-8l-11-3-1-8 3-3z"/>
		<path id="Path 161" class="s62" d="m750 463l3-7h3l1 6z"/>
		<path id="Path 162" class="s63" d="m311 459l16-2v1h-7z"/>
		<path id="Path 163" class="s12" d="m607 459l6-2-1 3 3 1v9l-4-1-4-4v-3z"/>
		<path id="Path 164" class="s64" d="m619 460l3-3 6 3 1 7-1 3-7-3z"/>
		<path id="Path 165" class="s6" d="m665 459l-3-2 4 2z"/>
		<path id="Path 166" class="s44" d="m311 459l9-1v2h-9z"/>
		<path id="Path 167" class="s40" d="m320 460v-2h7v2h-4z"/>
		<path id="Path 168" class="s65" d="m327 460v-2h6v2z"/>
		<path id="Path 169" class="s66" d="m333 460v-2h7l-3 2z"/>
		<path id="Path 170" class="s59" d="m507 464l-2-6h7l1 4-2 2z"/>
		<path id="Path 171" class="s62" d="m525 459l5-1 7 3-1 11h-6l-1-9-4-1z"/>
		<path id="Path 172" class="s43" d="m776 461l4-3 5 4-1 9-8 1z"/>
		<path id="Path 173" class="s7" d="m299 461l7-2v1l-6 1z"/>
		<path id="Path 174" class="s67" d="m306 460v-1h5v1h-1z"/>
		<path id="Path 175" class="s51" d="m381 460l5-1 1 8-4 3z"/>
		<path id="Path 176" class="s39" d="m569 464l4-5 4 1 1 5h5v4l-5 1-7-5z"/>
		<path id="Path 177" class="s22" d="m645 460l5-1 3 7-1 5-7 2v-5h-3z"/>
		<path id="Path 178" class="s27" d="m665 460v-1h1l10 3 5 7v1h-1l-9-7z"/>
		<path id="Path 179" class="s8" d="m714 462l14-3-3 3-9 1z"/>
		<path id="Path 180" class="s42" d="m766 460l2-1 8 2v11 4h-3l-5-3v-2l2-5z"/>
		<path id="Path 181" class="s41" d="m300 461l6-1h4l-10 2z"/>
		<path id="Path 182" class="s68" d="m300 462l10-2h1 9 3l-1 8-6 1-3-1-10 6-4 1v3h4l2 3-3 3-13 2-1-3-5 3h-4l-3-5h-4l-1 7h-9l3 7-2 7-10 2h-11l-7-2h-5l-7 7v7l-7-2-1-4-6 2-4 1-5 1-4 1v3h-1-5l-1 3-4 1v12l-7 2-5-6 2-6h-4l-6-5-5-3-5 4-6-1v8l-5 6h-4l-6-7v-11l3-3 3-3 3-2 7-4h12l10-10 9-3h3 3l-4 10-1 5 9 1 5-2 4-1 1-7v-6l3-6 3-1 13-3 14-2 6 6h5l9-3 1-8 15-4 16-4z"/>
		<path id="Path 183" class="s62" d="m242 491h5v3l-5 1z"/>
		<path id="Path 184" class="s51" d="m322 468l1-8h4 6 4l2 5-4 12-5 4-6-4z"/>
		<path id="Path 185" class="s51" d="m354 462l11-2h4v8l-4 2-8-4z"/>
		<path id="Path 186" class="s69" d="m369 468v-8h12l2 10-2 4-6-1z"/>
		<path id="Path 187" class="s70" d="m537 461l3-1 15 2 8 2h6l2 1v7h-4-14-8-9z"/>
		<path id="Path 188" class="s44" d="m615 461l4-1 2 7 7 3v1l-11-1h-2z"/>
		<path id="Path 189" class="s64" d="m639 469l-2-9h8l-3 8z"/>
		<path id="Path 190" class="s14" d="m661 466l4-6 6 3v7l-5 1-4-1z"/>
		<path id="Path 191" class="s43" d="m762 464l1-4h3l4 6-2 5-6-5z"/>
		<path id="Path 192" class="s71" d="m289 462l8-1h2 1v1l-14 3v-1l2-2z"/>
		<path id="Path 193" class="s72" d="m281 464l7-2-2 2z"/>
		<path id="Path 194" class="s69" d="m357 480l-6-1-2-6 2-11h3l3 4 1 5 5 1v5l-4 3z"/>
		<path id="Path 195" class="s16" d="m511 464l2-2h12l4 1 1 9v5l-1 2h-5l-4-5h-9l-1-2z"/>
		<path id="Path 196" class="s42" d="m595 464l2-2h10v3l-2 3h-7z"/>
		<path id="Path 197" class="s73" d="m713 464l1-2 2 1v1z"/>
		<path id="Path 198" class="s20" d="m716 463l9-1 1 8-1 5-3-1v-6l-5-2h-1v-2z"/>
		<path id="Path 199" class="s74" d="m750 463l7-1 5 2v2l-3 1v5l7 2v7l-11 1v-4-5l-8-3 1-4z"/>
		<path id="Path 200" class="s61" d="m784 471l1-9h6l3 5 5 1v6l-1 2-13-4z"/>
		<path id="Path 201" class="s75" d="m583 465l11-1h1l3 4 1 12h-4-5l-1-6-6-5z"/>
		<path id="Path 202" class="s5" d="m671 470v-7l9 7h-3z"/>
		<path id="Path 203" class="s63" d="m269 467l11-3-10 3z"/>
		<path id="Path 204" class="s56" d="m270 467l10-3h1 5v1l-16 4z"/>
		<path id="Path 205" class="s46" d="m507 470v-6h4l-1 8h-3z"/>
		<path id="Path 206" class="s57" d="m703 465l7-1-1 2h-5-1z"/>
		<path id="Path 207" class="s44" d="m709 466l1-2h3 3v2l-7 1z"/>
		<path id="Path 208" class="s76" d="m571 472v-7l7 5-1 2z"/>
		<path id="Path 209" class="s62" d="m605 468l2-3 4 4-4 1z"/>
		<path id="Path 210" class="s0" d="m686 469l17-4v1l-8 2h-4z"/>
		<path id="Path 211" class="s61" d="m811 469l6-4 2 3h8v5 9l-6 1-6-5 1-7-5-1z"/>
		<path id="Path 212" class="s0" d="m851 466l-4-1h9v1z"/>
		<path id="Path 213" class="s6" d="m856 466v-1l3 2z"/>
		<path id="Path 214" class="s68" d="m363 472l-5-1-1-5 8 4z"/>
		<path id="Path 215" class="s77" d="m652 471l1-5h8l1 4 4 1v1h-3-10z"/>
		<path id="Path 216" class="s78" d="m695 468l8-2h1v2h-4-3z"/>
		<path id="Path 217" class="s79" d="m704 468v-2h5v1 1z"/>
		<path id="Path 218" class="s55" d="m709 467l7-1h1l1 5-5 3h-4v-6z"/>
		<path id="Path 219" class="s76" d="m713 474l5-3-1-5 5 2v6l-1 4h-8z"/>
		<path id="Path 220" class="s77" d="m742 471l-1-5h7l-1 4-3 1z"/>
		<path id="Path 221" class="s61" d="m766 474l-7-2v-5l3-1 6 5v2z"/>
		<path id="Path 222" class="s65" d="m827 468l5-2 1 3h4l-4 4h-6z"/>
		<path id="Path 223" class="s14" d="m849 478l2-12h5l3 1 2 4v9l-6 1z"/>
		<path id="Path 224" class="s80" d="m261 469l5-2h3 1v2l-15 4v-1l5-3z"/>
		<path id="Path 225" class="s43" d="m473 471v-3l4-1v5z"/>
		<path id="Path 226" class="s76" d="m477 472v-5l12 2v3l-6 1z"/>
		<path id="Path 227" class="s30" d="m628 470l1-3h4v5l-5-1z"/>
		<path id="Path 228" class="s6" d="m861 471l-2-4 3 3v1z"/>
		<path id="Path 229" class="s81" d="m303 474l10-6 3 1 2 10-3 5h-6l-4-3-2-3z"/>
		<path id="Path 230" class="s47" d="m316 469l6-1 2 9 6 4-1 6-1 1h-11l-2-4 3-5z"/>
		<path id="Path 231" class="s53" d="m365 470l4-2 6 5v1l-8 2-4 1v-5z"/>
		<path id="Path 232" class="s40" d="m411 471l2-3h8l1 9-2 1-6-2v-3h-3z"/>
		<path id="Path 233" class="s56" d="m599 480l-1-12h7l2 2-2 10z"/>
		<path id="Path 234" class="s74" d="m639 469l3-1h3v5l-2 7-9 2v-1l-1-9z"/>
		<path id="Path 235" class="s75" d="m686 469l5-1-2 6v1l-8 3 1-5-5-2v-1h3 1l4-1z"/>
		<path id="Path 236" class="s60" d="m689 474l2-6h4 2v6z"/>
		<path id="Path 237" class="s36" d="m697 474v-6h3l3 5-4 3z"/>
		<path id="Path 238" class="s70" d="m703 473l-3-5h4 5v6z"/>
		<path id="Path 239" class="s7" d="m253 472l7-3-5 3z"/>
		<path id="Path 240" class="s44" d="m391 473l3-4h7l3 6-12-1z"/>
		<path id="Path 241" class="s56" d="m404 475l-3-6h2l8 2v2l-6 3z"/>
		<path id="Path 242" class="s56" d="m439 480l6-11 10 1 7 3 1 5h-7l-1 4h-12z"/>
		<path id="Path 243" class="s66" d="m489 472v-3l10 1v3l-6 2z"/>
		<path id="Path 244" class="s42" d="m578 470l5-1 6 5 1 6h-10l-3-2v-6z"/>
		<path id="Path 245" class="s70" d="m607 470l4-1 4 1h2v10h-8-4z"/>
		<path id="Path 246" class="s82" d="m681 470v-1h4z"/>
		<path id="Path 247" class="s50" d="m803 474l1-5 7 1 5 1-1 7-7 2v-5z"/>
		<path id="Path 248" class="s65" d="m499 473v-3h8v2l-3 4h-3z"/>
		<path id="Path 249" class="s71" d="m617 480v-10l11 1 5 1 1 9h-13z"/>
		<path id="Path 250" class="s44" d="m666 471l5-1h6v1l-11 1z"/>
		<path id="Path 251" class="s9" d="m725 475l1-5 11 3v8l-5 1z"/>
		<path id="Path 252" class="s80" d="m744 471l3-1 8 3v5h-11z"/>
		<path id="Path 253" class="s40" d="m462 473l7-2v7l-6 1v-1z"/>
		<path id="Path 254" class="s39" d="m469 478v-7h4l4 1 6 1v7l-2 2h-6z"/>
		<path id="Path 255" class="s75" d="m645 473l7-2 1 1-2 8h-8z"/>
		<path id="Path 256" class="s80" d="m666 472l11-1 5 2-1 5-4 3h-14v-9z"/>
		<path id="Path 257" class="s48" d="m741 478l1-7h2v7z"/>
		<path id="Path 258" class="s52" d="m776 472l8-1 1 1v7l-3 1-6-4z"/>
		<path id="Path 259" class="s27" d="m861 480v-9h1v19h-1-1z"/>
		<path id="Path 260" class="s27" d="m244 474l8-2-2 2z"/>
		<path id="Path 261" class="s50" d="m250 474l2-2h1 2v1l-1 8-9 3v-8z"/>
		<path id="Path 262" class="s44" d="m483 473l6-1 4 3v5h-10z"/>
		<path id="Path 263" class="s66" d="m504 476l3-4h3l1 2v4z"/>
		<path id="Path 264" class="s36" d="m530 477v-5h6 9v6h-5z"/>
		<path id="Path 265" class="s83" d="m545 478v-6h8v5z"/>
		<path id="Path 266" class="s30" d="m553 477v-5h14v6l-2 1-8-1z"/>
		<path id="Path 267" class="s34" d="m567 478v-6h4 6v6z"/>
		<path id="Path 268" class="s70" d="m651 480l2-8h10v9h-9z"/>
		<path id="Path 269" class="s81" d="m785 479v-7l13 4v6l-1 1-6 1-1-2-1-3z"/>
		<path id="Path 270" class="s25" d="m375 474v-1l6 1 10-1 1 1-4 9h-9-2z"/>
		<path id="Path 271" class="s76" d="m392 474l12 1 1 1v2 14l-4 4v6h-14l-8-4v-8-7h9z"/>
		<path id="Path 272" class="s33" d="m405 476l6-3h3v3l-3 1-6 1z"/>
		<path id="Path 273" class="s45" d="m493 475l6-2 2 3v4h-8z"/>
		<path id="Path 274" class="s65" d="m699 476l4-3 6 1h4v4l-6 5h-6z"/>
		<path id="Path 275" class="s52" d="m766 474l2-1 5 3-2 11-2 3-3-1v-8z"/>
		<path id="Path 276" class="s83" d="m827 482v-9h6l1 4-5 6z"/>
		<path id="Path 277" class="s0" d="m223 477l9-3v2z"/>
		<path id="Path 278" class="s57" d="m232 476v-2h9l-1 2h-3z"/>
		<path id="Path 279" class="s76" d="m240 476l1-2h3 6l-5 2z"/>
		<path id="Path 280" class="s47" d="m303 478h-4v-3l4-1z"/>
		<path id="Path 281" class="s10" d="m367 476l8-2 2 9-2 3h-4l-4-2z"/>
		<path id="Path 282" class="s37" d="m511 478v-4h9l4 5-3 1z"/>
		<path id="Path 283" class="s29" d="m689 475v-1h8l2 2 2 7-6 3h-4z"/>
		<path id="Path 284" class="s79" d="m721 478l1-4 3 1 7 7 5-1 4-1-3 7 2 3-1 8-14-2v-10l-4-2z"/>
		<path id="Path 285" class="s84" d="m798 476l1-2h4l5 1v5l-1 2-3-2-3 2h-3z"/>
		<path id="Path 286" class="s83" d="m429 478l1-3h7l-1 3z"/>
		<path id="Path 287" class="s38" d="m681 478l8-3 2 11-2 1-12-1v-5z"/>
		<path id="Path 288" class="s78" d="m223 477l9-1h5l-3 2-14 2-9 1 2-2h3l6-2z"/>
		<path id="Path 289" class="s54" d="m234 478l3-2h3 5v8h-5z"/>
		<path id="Path 290" class="s25" d="m363 477l4-1v8h-4l-4-4z"/>
		<path id="Path 291" class="s83" d="m411 477l3-1 6 2 1 12h-8z"/>
		<path id="Path 292" class="s32" d="m501 480v-4h3l7 2 10 2v11l-5 2-6-5h-7z"/>
		<path id="Path 293" class="s59" d="m771 487l2-11h3l6 4v2 7l3 3h-6l-4-5z"/>
		<path id="Path 294" class="s65" d="m330 481l5-4 1 3-7 7z"/>
		<path id="Path 295" class="s65" d="m405 478l6-1 2 13-8 2z"/>
		<path id="Path 296" class="s44" d="m420 478l2-1 7 1h7l3 2 4 2v2l-2 9-7-1-1 8h-6-4l-2-10z"/>
		<path id="Path 297" class="s32" d="m529 479l1-2 10 1-3 8h-8z"/>
		<path id="Path 298" class="s38" d="m545 478l8-1 4 1v8l4 4v6l-16 1-4-1-4-2v-8l3-8z"/>
		<path id="Path 299" class="s62" d="m829 483l5-6h4l1 4-1 9-9 2v-2z"/>
		<path id="Path 300" class="s85" d="m455 482l1-4h7v1 10h-7z"/>
		<path id="Path 301" class="s38" d="m463 479l6-1 6 4-4 18 5 4 1 6-2 2h-7l-5-4v-19z"/>
		<path id="Path 302" class="s31" d="m561 490l-4-4v-8l8 1v11z"/>
		<path id="Path 303" class="s25" d="m565 479l2-1h10l3 2-3 18v4h-4l-8-6v-6z"/>
		<path id="Path 304" class="s44" d="m707 483l6-5h8v6l4 2v10 4l-15 2-1-1z"/>
		<path id="Path 305" class="s55" d="m741 480v-2h3 11v4l2 11-9 2v-3-5l-6 3h-2l-2-3z"/>
		<path id="Path 306" class="s56" d="m808 480l7-2 6 5 1 7-2 5 4 11h-5l-8-2v-8l1 3h5l2-8-1-4-7 4v-1l1-4-5-4z"/>
		<path id="Path 307" class="s22" d="m842 481l7-3 6 3v7h-7l-6-2z"/>
		<path id="Path 308" class="s82" d="m209 480l1-1h3l-2 2-4 1h-4z"/>
		<path id="Path 309" class="s85" d="m521 480l3-1h5v7 8h-4l-2 5-6-1-1-5 5-2z"/>
		<path id="Path 310" class="s17" d="m782 480l3-1h4l1 3h-8z"/>
		<path id="Path 311" class="s71" d="m211 481l9-1-13 3v-1z"/>
		<path id="Path 312" class="s80" d="m329 487l7-7 2 4-4 7-4 1-2-4z"/>
		<path id="Path 313" class="s28" d="m338 484l4 2 15-6h2l4 4 1 5-3 5-5 1-10 7-12-11z"/>
		<path id="Path 314" class="s38" d="m481 482l2-2h10 8l2 8h7l6 5 1 5-1 5-2 5h-5-11-1l-1-10-9-7z"/>
		<path id="Path 315" class="s22" d="m577 498l3-18h10 5v8l-2 4-2 8h-5z"/>
		<path id="Path 316" class="s32" d="m595 488v-8h4 6 4l2 8 2 10v2h-16v-8z"/>
		<path id="Path 317" class="s83" d="m611 488l-2-8h8l4 1v2h-5z"/>
		<path id="Path 318" class="s22" d="m634 482l9-2h8l3 1 3 7h6 2l2 10 1 7-5 2v7l-8 1h-4l-4-1v-5l-3-1-3-3-6-5v-1l-2-11z"/>
		<path id="Path 319" class="s44" d="m663 481h14v5l-2 2h-10-2z"/>
		<path id="Path 320" class="s19" d="m801 482l3-2 3 2 5 4-1 4h-6l-4-5z"/>
		<path id="Path 321" class="s5" d="m855 481l6-1-1 10-3 7-2 1v-10z"/>
		<path id="Path 322" class="s55" d="m271 488l1-7h4l3 5-1 2z"/>
		<path id="Path 323" class="s70" d="m302 484l3-3 4 3-2 4z"/>
		<path id="Path 324" class="s33" d="m621 483v-2h13v1l-1 6h-11z"/>
		<path id="Path 325" class="s32" d="m663 488h-6l-3-7h9z"/>
		<path id="Path 326" class="s62" d="m755 482l11-1v8l3 1 8 15v2l-13 3-3-1 1-7-3-3 2-6h-4z"/>
		<path id="Path 327" class="s42" d="m838 490l1-9h3v5l-1 5-2 2z"/>
		<path id="Path 328" class="s72" d="m196 484l5-2-1 2-4 1z"/>
		<path id="Path 329" class="s66" d="m200 484l1-2h2 4v1l-3 1z"/>
		<path id="Path 330" class="s83" d="m443 484v-2h12l1 7h7v19h-5-2l-7-19z"/>
		<path id="Path 331" class="s44" d="m476 504l-5-4 4-18h6l6 9v5z"/>
		<path id="Path 332" class="s16" d="m785 492l-3-3v-7h8l1 2 4 9-2 4-6-1z"/>
		<path id="Path 333" class="s29" d="m797 483l1-1h3v3h-2z"/>
		<path id="Path 334" class="s19" d="m821 483l6-1 2 1v7h-7z"/>
		<path id="Path 335" class="s55" d="m283 486l5-3 1 3 1 8-1 1-6-3z"/>
		<path id="Path 336" class="s43" d="m375 486l2-3h2v7h-4z"/>
		<path id="Path 337" class="s26" d="m611 488l5-5h5l1 5-3 8-6 2z"/>
		<path id="Path 338" class="s83" d="m695 486l6-3h6l2 18-14 2-2-9z"/>
		<path id="Path 339" class="s60" d="m791 484l6-1 2 2v6l-4 2z"/>
		<path id="Path 340" class="s63" d="m187 485l9-1v1l-8 1z"/>
		<path id="Path 341" class="s55" d="m196 485l4-1h4l-3 6h-14-3v-2l4-2z"/>
		<path id="Path 342" class="s86" d="m289 486l13-2 5 4 5 17-1 1-4 2-3-7 1-3-7-1-2-3h-6z"/>
		<path id="Path 343" class="s71" d="m307 488l2-4h6l2 4 2 10-3 5-4 2z"/>
		<path id="Path 344" class="s38" d="m364 489l-1-5h4l4 2-1 2z"/>
		<path id="Path 345" class="s41" d="m441 493l2-9 6 5 7 19h-6l-3-5-8-1z"/>
		<path id="Path 346" class="s7" d="m176 489l11-4 1 1-4 2h-2z"/>
		<path id="Path 347" class="s46" d="m799 491v-6h2l4 5v4l-4 2 1-5z"/>
		<path id="Path 348" class="s51" d="m278 488l1-2h4v6l6 3 3 9-5 2-5-9-6-1z"/>
		<path id="Path 349" class="s60" d="m370 488l1-2h4v4z"/>
		<path id="Path 350" class="s33" d="m529 494v-8h8v8l4 2v4l-4 3v5l-5 2-4-4 3-7z"/>
		<path id="Path 351" class="s18" d="m675 488l2-2 12 1v7l-6 2h-8z"/>
		<path id="Path 352" class="s25" d="m689 487l2-1h4l-2 8h-4z"/>
		<path id="Path 353" class="s5" d="m841 491l1-5 6 2-1 4z"/>
		<path id="Path 354" class="s86" d="m742 490l6-3v5z"/>
		<path id="Path 355" class="s17" d="m769 490l2-3h4l4 5 1 5v7l-3 1z"/>
		<path id="Path 356" class="s69" d="m811 491l7-4 1 4-2 8h-5l-1-3z"/>
		<path id="Path 357" class="s32" d="m176 489l6-1-1 2-9 3-15 5 1-2 4-2 6-2 7-3z"/>
		<path id="Path 358" class="s80" d="m181 490l1-2h2v2z"/>
		<path id="Path 359" class="s48" d="m263 502l2-7-3-7h9 7l-2 8 6 1 5 9v10l-1 2h-4l-2-3h-4l-1 3h-6v-4l-5-3z"/>
		<path id="Path 360" class="s48" d="m319 498l-2-10h11l2 4-2 3z"/>
		<path id="Path 361" class="s75" d="m364 489l6-1 5 2h4v8l-8 1v8l-7 1-3-10v-4z"/>
		<path id="Path 362" class="s18" d="m593 492l2-4 2 4z"/>
		<path id="Path 363" class="s18" d="m619 496l3-8h11l2 11h-4-11z"/>
		<path id="Path 364" class="s25" d="m667 498l-2-10h10v8z"/>
		<path id="Path 365" class="s23" d="m847 492l1-4h7v10h-6z"/>
		<path id="Path 366" class="s87" d="m183 500l4-10h14v6l-6 1 1 7-5 2v-6z"/>
		<path id="Path 367" class="s34" d="m405 492l8-2h8l2 10v6l-1 3 6 3v3h-5l-8-1-1-7h-7v5h-6v-10-6z"/>
		<path id="Path 368" class="s28" d="m561 496v-6h4v6z"/>
		<path id="Path 369" class="s70" d="m739 498l1-8h2l6 2v3l-2 5 5 4-5 6 7 1 2 9-1 2h-6l-2-3-1-5-4-2z"/>
		<path id="Path 370" class="s20" d="m801 496l4-2v-4h6v1 5 8l8 2v4h-7l-2 3-8-9-1-6z"/>
		<path id="Path 371" class="s37" d="m824 506l-4-11 2-5h7v2 4l2 6h4l2 5-2 6-7 2v-2z"/>
		<path id="Path 372" class="s70" d="m829 492l9-2 1 3v1l-4 3-6-1z"/>
		<path id="Path 373" class="s6" d="m857 497l3-7h1z"/>
		<path id="Path 374" class="s3" d="m491 578l6-1-29 1h12z"/>
		<path id="Path 375" class="s45" d="m330 492l4-1 12 11-7 8h-8l-3-15z"/>
		<path id="Path 376" class="s65" d="m476 504l11-8v-5l9 7 1 10h-4-6l2 5-5 3h-3l-4-6z"/>
		<path id="Path 377" class="s49" d="m795 493l4-2h3l-1 5v2l-2 8-6-1v-8z"/>
		<path id="Path 378" class="s35" d="m839 493l2-2 6 1 2 6h6l-1 4-2 2v2l-4 4-1 2h-1l-4-5-2-8-1-5z"/>
		<path id="Path 379" class="s25" d="m433 500l1-8 7 1-2 9-2 1z"/>
		<path id="Path 380" class="s38" d="m591 500l2-8h4v8z"/>
		<path id="Path 381" class="s51" d="m780 497l-1-5h6l2 4-2 2z"/>
		<path id="Path 382" class="s53" d="m157 498l15-5-10 10h-12z"/>
		<path id="Path 383" class="s34" d="m748 495l9-2h4l-2 6-6 2v3h-2l-5-4z"/>
		<path id="Path 384" class="s63" d="m155 496l7-2-4 2z"/>
		<path id="Path 385" class="s80" d="m289 495l1-1h6l2 3h-3v7h-3z"/>
		<path id="Path 386" class="s34" d="m356 495l5-1v4z"/>
		<path id="Path 387" class="s76" d="m523 499l2-5h4l2 5-3 7-5-1z"/>
		<path id="Path 388" class="s28" d="m683 496l6-2h4l2 9-1 3-5 2-8-2z"/>
		<path id="Path 389" class="s65" d="m829 496l6 1 4-3 1 5-1 3h-4-4z"/>
		<path id="Path 390" class="s61" d="m319 498l9-3 3 15-7 2-8-9z"/>
		<path id="Path 391" class="s60" d="m346 502l10-7 5 3 3 10-5 3v11l-9 4-9-2v-1l-2-13z"/>
		<path id="Path 392" class="s73" d="m153 497l2-1h3l-1 2-7 5-7 4 1-3 7-5z"/>
		<path id="Path 393" class="s70" d="m196 504l-1-7 6-1-1 7z"/>
		<path id="Path 394" class="s39" d="m541 500v-4l4 1v3z"/>
		<path id="Path 395" class="s88" d="m545 497l16-1v7h-2l-10 2-4-5z"/>
		<path id="Path 396" class="s65" d="m561 503v-7h4l8 6v2z"/>
		<path id="Path 397" class="s85" d="m613 498l6-2 1 3h11v7 4l-12 2h-6v-12z"/>
		<path id="Path 398" class="s85" d="m667 498l8-2h8l-2 10-5 2-7-2-1-1z"/>
		<path id="Path 399" class="s89" d="m725 500v-4l14 2 2 14 4 2 1 5-3 1-4-4h-5l-5-3v-10z"/>
		<path id="Path 400" class="s90" d="m785 498l2-2 6 1v8 3h-2l-6-2z"/>
		<path id="Path 401" class="s66" d="m295 504v-7h3l7 1-1 3-3 9-1 2h-5z"/>
		<path id="Path 402" class="s47" d="m780 504v-7l5 1v8l-3 1z"/>
		<path id="Path 403" class="s6" d="m855 498l2-1-3 5z"/>
		<path id="Path 404" class="s84" d="m371 507v-8l8-1 8 4 4 16-4 3-14-1v-2z"/>
		<path id="Path 405" class="s41" d="m516 503l1-5 6 1v6z"/>
		<path id="Path 406" class="s44" d="m577 502v-4l9 2-1 2z"/>
		<path id="Path 407" class="s62" d="m793 505l6 1 2-8 1 6 8 9 1 6h-8l-1-5-4-2-5-4z"/>
		<path id="Path 408" class="s8" d="m144 504l2-4 5-1z"/>
		<path id="Path 409" class="s36" d="m597 500h16v12l2 8-2 6-5 1-1-10-10-9z"/>
		<path id="Path 410" class="s34" d="m631 506v-7h4v1 6z"/>
		<path id="Path 411" class="s53" d="m753 504v-3l6-2 3 3-1 7h-4z"/>
		<path id="Path 412" class="s44" d="m835 502h4l1-3 2 8h-5z"/>
		<path id="Path 413" class="s76" d="m191 506l-9-1 1-5h8z"/>
		<path id="Path 414" class="s33" d="m423 506v-6h4v6z"/>
		<path id="Path 415" class="s79" d="m427 506v-6h6l4 3 6 15-4 2h-8l-3-5v-3z"/>
		<path id="Path 416" class="s42" d="m537 508v-5l4-3h4l4 5 7 15-6 1-6-1-7-8z"/>
		<path id="Path 417" class="s39" d="m585 502l1-2h5 6v8l-2 4h-5z"/>
		<path id="Path 418" class="s45" d="m635 506v-6l6 5z"/>
		<path id="Path 419" class="s29" d="m710 502l15-2 4 3v10l-2 1h-10l-4-5h-3z"/>
		<path id="Path 420" class="s41" d="m301 510l3-9 3 7v2z"/>
		<path id="Path 421" class="s30" d="m695 503l14-2 1 1v7l-3 1h-8l-5-4z"/>
		<path id="Path 422" class="s71" d="m223 516v-7l7-7h5l-1 14h-7z"/>
		<path id="Path 423" class="s87" d="m234 516l1-14 7 2-1 3-2 6v5h-3z"/>
		<path id="Path 424" class="s80" d="m253 504l10-2 1 9 5 3v4l-1 8h-1-9l-2-2 2-11-5-3z"/>
		<path id="Path 425" class="s36" d="m391 518l-4-16h14v10l-6 6z"/>
		<path id="Path 426" class="s71" d="m437 503l2-1 8 1 3 5-1 4 5 3-5 1-2 2h-4z"/>
		<path id="Path 427" class="s39" d="m573 504v-2h4v11l6 2v7h-8l-2-5-3-5z"/>
		<path id="Path 428" class="s29" d="m583 522v-7l-6-2v-11h8l5 10h5v4l-6 7z"/>
		<path id="Path 429" class="s16" d="m312 505l4-2 8 9v4h-8l-5-10z"/>
		<path id="Path 430" class="s30" d="m514 508l2-5 7 2 5 1 4 4-1 14h-3v-4l-7-1h-2z"/>
		<path id="Path 431" class="s41" d="m549 505l10-2 2 17h-5z"/>
		<path id="Path 432" class="s70" d="m561 520l-2-17h2l12 1-3 8 3 5-2 6-4 1h-4z"/>
		<path id="Path 433" class="s8" d="m138 509l6-5-1 3-3 2z"/>
		<path id="Path 434" class="s55" d="m241 507l1-3h11v6l-2 2h-6z"/>
		<path id="Path 435" class="s62" d="m287 506l5-2h3v8l-8 4z"/>
		<path id="Path 436" class="s54" d="m753 511l-7-1 5-6h2l4 5z"/>
		<path id="Path 437" class="s91" d="m777 505l3-1 2 3h-5z"/>
		<path id="Path 438" class="s76" d="m635 506l6-1 3 3-4 3 3 4v5l-11-2 2-6-3-2v-4z"/>
		<path id="Path 439" class="s39" d="m663 514v-7l5-2 1 1 1 6z"/>
		<path id="Path 440" class="s17" d="m307 508l4-2 5 10-2 4-7-4v-6z"/>
		<path id="Path 441" class="s22" d="m428 512l-6-3 1-3h4z"/>
		<path id="Path 442" class="s34" d="m670 512l-1-6 7 2v3z"/>
		<path id="Path 443" class="s19" d="m676 508l5-2 8 2v4h-2l-11-1z"/>
		<path id="Path 444" class="s61" d="m689 508l5-2 5 4-1 2h-9z"/>
		<path id="Path 445" class="s39" d="m782 507l3-1 6 2 1 6h-5v8h-8-1l-1-7-4 1v4h-8l-1-10 13-3z"/>
		<path id="Path 446" class="s41" d="m819 510v-4h5l4 7-8-1z"/>
		<path id="Path 447" class="s79" d="m239 513l2-6 4 5v2z"/>
		<path id="Path 448" class="s52" d="m364 508l7-1 2 11h-3v3l-11 1v-11z"/>
		<path id="Path 449" class="s29" d="m407 512v-5h7l1 7v8l-5 4h-3z"/>
		<path id="Path 450" class="s23" d="m835 513l2-6h5l4 5-2 3-5 2z"/>
		<path id="Path 451" class="s44" d="m454 515l-5-3 1-4h6 2l2 7-3 3z"/>
		<path id="Path 452" class="s42" d="m460 515l-2-7h5l5 4h7l1 4-1 4-2 4-7-1-1-6z"/>
		<path id="Path 453" class="s71" d="m489 513l-2-5h6z"/>
		<path id="Path 454" class="s62" d="m489 513l4-5h4 1l-1 9 3 5h-7-6l-3-3v-3z"/>
		<path id="Path 455" class="s61" d="m500 522l-3-5 1-9h11v20l-5-1z"/>
		<path id="Path 456" class="s52" d="m509 528v-20h5l5 11-4 1v8z"/>
		<path id="Path 457" class="s52" d="m532 510l5-2v4l7 8 6 1 3 12 3 1v7l3 1v8l-6 4-12-4-1-7 1-5-6-2v-7l-4-5z"/>
		<path id="Path 458" class="s62" d="m595 512l2-4 10 9 1 10-5 1-5-2 1-6-4-4z"/>
		<path id="Path 459" class="s39" d="m643 515l-3-4 4-3 3 1v5z"/>
		<path id="Path 460" class="s13" d="m792 514l-1-6h2l5 4-4 3z"/>
		<path id="Path 461" class="s92" d="m135 510l3-1h2l-3 3h-2z"/>
		<path id="Path 462" class="s48" d="m707 510l3-1h3v5h-6z"/>
		<path id="Path 463" class="s60" d="m713 514v-5l4 5h10l2 6v9l-9-6h-5z"/>
		<path id="Path 464" class="s76" d="m753 511l4-2h4l3 1 1 10v2h-5l-5-2z"/>
		<path id="Path 465" class="s72" d="m132 512l3-2v2l-2 16-2-1v-14z"/>
		<path id="Path 466" class="s80" d="m209 512l6-2 1 4h-7z"/>
		<path id="Path 467" class="s93" d="m251 512l2-2 5 3-2 11h-7v-2z"/>
		<path id="Path 468" class="s84" d="m300 512l1-2h6v6h-4z"/>
		<path id="Path 469" class="s75" d="m324 512l7-2h8l2 13-12 1-5-8z"/>
		<path id="Path 470" class="s29" d="m475 512l2-2 4 6h-5z"/>
		<path id="Path 471" class="s77" d="m619 512l12-2 3 2-2 6-1 5h-9z"/>
		<path id="Path 472" class="s62" d="m698 512l1-2h8v4l-4 1z"/>
		<path id="Path 473" class="s37" d="m810 513l2-3h7l1 2 1 7-2 2h-6l-2-2z"/>
		<path id="Path 474" class="s60" d="m670 512l6-1 11 1v9l-1 3-1 10-4 1-2 9-12 4-5-2v-5l-4-4 3-9-8-1-1-1v-3l3-2v-6l8-1z"/>
		<path id="Path 475" class="s6" d="m131 512h1v1h-1z"/>
		<path id="Path 476" class="s56" d="m133 528l2-16h2l-3 3v11l6 7v2h-2l-5-6z"/>
		<path id="Path 477" class="s41" d="m205 513l4-1v2 8l-2 1-3-4z"/>
		<path id="Path 478" class="s86" d="m245 514v-2h6l-2 10h-4z"/>
		<path id="Path 479" class="s75" d="m287 516l8-4h5l3 4v15l-4 1h-9v-8l-4-6z"/>
		<path id="Path 480" class="s44" d="m395 518l6-6h6v14h-2-6v-5z"/>
		<path id="Path 481" class="s61" d="m613 526l2-6-2-8h6l3 11-3 5z"/>
		<path id="Path 482" class="s84" d="m687 521v-9h2 9l5 3 2 13-6 3-8-7z"/>
		<path id="Path 483" class="s19" d="m794 515l4-3 4 2 1 5-2 3h-6v-1z"/>
		<path id="Path 484" class="s85" d="m821 519l-1-7 8 1v2l-2 4z"/>
		<path id="Path 485" class="s6" d="m844 515l2-3h1z"/>
		<path id="Path 486" class="s50" d="m200 514l5-1-1 6h-3z"/>
		<path id="Path 487" class="s71" d="m239 518v-5l6 1v8h-4z"/>
		<path id="Path 488" class="s52" d="m727 514l2-1 5 3-1 4h-4z"/>
		<path id="Path 489" class="s35" d="m828 515l7-2 4 4-2 3-1 1-7 4h-3v-6z"/>
		<path id="Path 490" class="s91" d="m196 518v-3l4-1 1 5z"/>
		<path id="Path 491" class="s56" d="m209 522v-8h7l7 2h4v8l-5 8h-7v-8z"/>
		<path id="Path 492" class="s22" d="m415 522v-8l8 1-2 6z"/>
		<path id="Path 493" class="s62" d="m643 515l4-1 4 1 1 8v3h-8l-1-6z"/>
		<path id="Path 494" class="s77" d="m651 515h4v6l-3 2z"/>
		<path id="Path 495" class="s43" d="m703 515l4-1h6l2 9-6 5h-4z"/>
		<path id="Path 496" class="s62" d="m787 522v-8h5l2 1 1 6-6 1z"/>
		<path id="Path 497" class="s75" d="m275 518l1-3h4l2 3-5 3z"/>
		<path id="Path 498" class="s61" d="m421 521l2-6h5l3 5v4h-8z"/>
		<path id="Path 499" class="s59" d="m449 516l5-1 3 3v5l-4 3-5-1 1-7z"/>
		<path id="Path 500" class="s60" d="m457 518l3-3 5 2 1 6 7 1v4l-4 1-8-3-4 10-14 2-4-6v-12l4-2h4 2l-1 7 5 1 4-3z"/>
		<path id="Path 501" class="s62" d="m773 520v-4l4-1 1 7h-4z"/>
		<path id="Path 502" class="s6" d="m839 517l5-2-7 5z"/>
		<path id="Path 503" class="s56" d="m155 520l5-4 5 3v5l-3 3-5 1z"/>
		<path id="Path 504" class="s65" d="m227 524v-8h7l2 2-1 6z"/>
		<path id="Path 505" class="s20" d="m303 531v-15h4l7 4 5 11-4 5h-6-4z"/>
		<path id="Path 506" class="s90" d="m314 520l2-4h8l5 8 12-1v1l-1 5-13 2h-8z"/>
		<path id="Path 507" class="s34" d="m447 518l2-2v2z"/>
		<path id="Path 508" class="s43" d="m475 520l1-4h5 3v3z"/>
		<path id="Path 509" class="s34" d="m589 523l6-7 4 4-1 6 5 2-2 3h-10z"/>
		<path id="Path 510" class="s77" d="m729 520h4l1-4h5l4 4v10l-7 6h-5l-2-1v-6z"/>
		<path id="Path 511" class="s74" d="m567 524l4-1 2-6 2 5h8l6 1 2 8h10l2-3 5-1 5-1 6 2 7 16-1 2h-20l-10 1h-5l-1 3h-8l-2-2-1-11-6-4z"/>
		<path id="Path 512" class="s80" d="m189 521l1-3h5v4z"/>
		<path id="Path 513" class="s54" d="m195 522v-4h1l5 1h3l3 4-6 7h-6z"/>
		<path id="Path 514" class="s55" d="m235 524l1-6h3l2 4h4v4l-3 4h-7z"/>
		<path id="Path 515" class="s36" d="m268 526l1-8h6l2 3-4 5z"/>
		<path id="Path 516" class="s46" d="m277 521l5-3h4l4 6v8l-2 17-3 2-8-1-2-2-2-12v-10z"/>
		<path id="Path 517" class="s61" d="m370 521v-3h3v2z"/>
		<path id="Path 518" class="s52" d="m387 521l4-3h4l4 3v5h-12z"/>
		<path id="Path 519" class="s30" d="m631 523l1-5 11 2 1 6-2 2h-5z"/>
		<path id="Path 520" class="s80" d="m140 533h4l5-6v-8l6 1 2 8 5-1 5 10v3l-20 1-4-3-3-3z"/>
		<path id="Path 521" class="s87" d="m165 524v-5l6 5z"/>
		<path id="Path 522" class="s52" d="m475 520l9-1 3 3v8 7l-4 5h-14v-13l4-1v-4z"/>
		<path id="Path 523" class="s62" d="m515 528v-8l4-1h2l2 5-3 6z"/>
		<path id="Path 524" class="s50" d="m523 524l-2-5 7 1v4z"/>
		<path id="Path 525" class="s62" d="m743 520l3-1 2 3h6l3 3-4 5-3 2-3 2-4-4z"/>
		<path id="Path 526" class="s29" d="m801 522l2-3h8l2 2v7l-11 2v-1z"/>
		<path id="Path 527" class="s18" d="m819 521l2-2h5v6l-9 3z"/>
		<path id="Path 528" class="s20" d="m370 521l3-1 14 1v5l-1 2-5 2-10 2h-10-8l-6 4h-6-12l-2-5 13-2 1-5 9 2 9-4z"/>
		<path id="Path 529" class="s43" d="m431 524v-4h8v12h-5z"/>
		<path id="Path 530" class="s62" d="m550 521l6-1h5l2 4h4l5 9-9 1h-7l-3-1z"/>
		<path id="Path 531" class="s91" d="m754 522l1-2 5 2-3 3z"/>
		<path id="Path 532" class="s74" d="m765 522v-2h8l1 2-6 7-3-2z"/>
		<path id="Path 533" class="s53" d="m185 534v-12l4-1 6 1v8l-4 4z"/>
		<path id="Path 534" class="s42" d="m415 522l6-1 2 3v3l-9 3-4-4z"/>
		<path id="Path 535" class="s62" d="m686 524l1-3 4 3z"/>
		<path id="Path 536" class="s77" d="m789 522l6-1v1 6h-8z"/>
		<path id="Path 537" class="s33" d="m813 528v-7h6l-2 7z"/>
		<path id="Path 538" class="s71" d="m207 523l2-1 6 2v8l-5 4-8 1-1-7z"/>
		<path id="Path 539" class="s68" d="m245 526v-4h4v2l-2 3z"/>
		<path id="Path 540" class="s60" d="m487 530v-8h6l-2 8z"/>
		<path id="Path 541" class="s74" d="m491 530l2-8h7l4 5v8l21 7v8l-4 4v6h-10l-12-4v-6l-6-3z"/>
		<path id="Path 542" class="s52" d="m757 525l3-3h5v5l-7 6h-3l-2-3z"/>
		<path id="Path 543" class="s77" d="m768 529l6-7h4 1v6l-2 4 6 2v5l-6 2h-12v-3z"/>
		<path id="Path 544" class="s84" d="m779 528v-6h8 2l-2 6-3 2z"/>
		<path id="Path 545" class="s30" d="m795 528v-6h6l1 7h-7z"/>
		<path id="Path 546" class="s75" d="m619 528l3-5h9l6 5h5l1 11-4 1v4h-8-5z"/>
		<path id="Path 547" class="s81" d="m709 528l6-5h5v6l-5 1z"/>
		<path id="Path 548" class="s50" d="m715 530l5-1v-6l9 6v6l-5 4-9-1z"/>
		<path id="Path 549" class="s55" d="m162 527l3-3h6 4l-2 6 5 6-3 1h-8z"/>
		<path id="Path 550" class="s36" d="m222 532l5-8h8v6l-5 9-4 2-4-1z"/>
		<path id="Path 551" class="s53" d="m247 527l2-3h7l2 2-1 12h-7l-3-4z"/>
		<path id="Path 552" class="s74" d="m423 527v-3h8l3 8h5l4 6v2h-9l-5-6h-4z"/>
		<path id="Path 553" class="s60" d="m520 530l3-6h5 3l4 5v7h-2-6z"/>
		<path id="Path 554" class="s59" d="m685 534l1-10h5l8 7-2 16-5 1-1-10z"/>
		<path id="Path 555" class="s15" d="m817 528l9-3h3l-8 7h-4z"/>
		<path id="Path 556" class="s49" d="m242 530l3-4 2 1v7h-4z"/>
		<path id="Path 557" class="s70" d="m257 538l1-12h9l-1 10-1 2-4 1z"/>
		<path id="Path 558" class="s30" d="m266 536l1-10h1 5v10z"/>
		<path id="Path 559" class="s29" d="m386 528l1-2h12 6l1 8-1 4h-9z"/>
		<path id="Path 560" class="s37" d="m406 534l-1-8h2 3l4 4-3 4z"/>
		<path id="Path 561" class="s74" d="m457 536l4-10 8 3v13h-12z"/>
		<path id="Path 562" class="s74" d="m642 528l2-2h8l1 1v8l-4 4h-6z"/>
		<path id="Path 563" class="s0" d="m131 529v-2l2 1v1z"/>
		<path id="Path 564" class="s90" d="m414 530l9-3 2 7-1 6h-5-6l-2-6z"/>
		<path id="Path 565" class="s17" d="m525 542l-21-7v-8l5 1h6l5 2 7 6z"/>
		<path id="Path 566" class="s39" d="m653 535v-8l8 1-3 9z"/>
		<path id="Path 567" class="s62" d="m758 533l7-6 3 2-3 9h-3l-4-1z"/>
		<path id="Path 568" class="s37" d="m381 530l5-2 10 10-7 8h-5l-3-8z"/>
		<path id="Path 569" class="s17" d="m699 531l6-3h4l6 2v8l1 6h6v1l-8 2h-2l-12 1-3-1z"/>
		<path id="Path 570" class="s43" d="m783 534l-6-2 2-4 5 2z"/>
		<path id="Path 571" class="s13" d="m784 530l3-2h8v1 5h4v3l-16 2v-5z"/>
		<path id="Path 572" class="s35" d="m802 530l11-2h4v4l-5 3h-1l-6 3h-4l-2-1v-3z"/>
		<path id="Path 573" class="s44" d="m799 534h-4v-5h7v1z"/>
		<path id="Path 574" class="s56" d="m191 534l4-4h6l1 7-5 1h-6z"/>
		<path id="Path 575" class="s50" d="m230 539l5-9h7l1 4v5l-6 3z"/>
		<path id="Path 576" class="s19" d="m371 532l10-2v8h-10z"/>
		<path id="Path 577" class="s61" d="m483 542l4-5v-7h4l2 17-10 1z"/>
		<path id="Path 578" class="s84" d="m736 536l7-6 4 4v8l-9 1h-1z"/>
		<path id="Path 579" class="s77" d="m750 532l3-2 2 3z"/>
		<path id="Path 580" class="s42" d="m299 532l4-1 2 5h4v4l-3 4h-7z"/>
		<path id="Path 581" class="s19" d="m315 536l4-5h8l2 5v4h-14z"/>
		<path id="Path 582" class="s76" d="m210 536l5-4h7v8l4 1 3 11-2 6 2 8-5 1-5-2-3-2-4-1h-3v-8-8l4-2v-6z"/>
		<path id="Path 583" class="s52" d="m288 549l2-17h9v12l-1 3-3 2z"/>
		<path id="Path 584" class="s19" d="m347 536l6-4h8v6l-14 2z"/>
		<path id="Path 585" class="s13" d="m361 538v-6h10v6z"/>
		<path id="Path 586" class="s17" d="m747 534l3-2 5 1h3v4l4 1-1 4h-7-7z"/>
		<path id="Path 587" class="s52" d="m563 534l9-1 6 4 1 11h-6l-6-7h-4z"/>
		<path id="Path 588" class="s80" d="m178 536l7-2h6v4l-2 8v2l-14 1v-12z"/>
		<path id="Path 589" class="s55" d="m243 539v-5h4l3 4z"/>
		<path id="Path 590" class="s20" d="m396 538h9l1-4h5l2 6h6v6l-10 3h-7l-1 5h-6l-6-8z"/>
		<path id="Path 591" class="s61" d="m424 540l1-6h4l5 6h9v4l-4 4h-10l-4-2z"/>
		<path id="Path 592" class="s60" d="m559 542l-3-1v-7h7v7z"/>
		<path id="Path 593" class="s46" d="m679 544l2-9 4-1 6 4 1 10-1 2h-4-8z"/>
		<path id="Path 594" class="s0" d="m143 539l-5-4h2l3 3z"/>
		<path id="Path 595" class="s46" d="m649 539l4-4 5 2 4 4v5h-1l-7-1z"/>
		<path id="Path 596" class="s81" d="m715 538l9 1 5-4 2 1v6l-4 2h-5-6z"/>
		<path id="Path 597" class="s66" d="m202 537l8-1 3 2v6l-4 2v8l-8 2v6h-2-2l-8-2v-12-2l6-2 2-6z"/>
		<path id="Path 598" class="s75" d="m265 538l1-2h7l2 12h-6l-2-2z"/>
		<path id="Path 599" class="s13" d="m309 540v-4h6v4h-2z"/>
		<path id="Path 600" class="s13" d="m329 540v-4h12v4l-11 2z"/>
		<path id="Path 601" class="s12" d="m341 540v-4h6v4z"/>
		<path id="Path 602" class="s20" d="m443 538l14-2v6 2h-14v-4z"/>
		<path id="Path 603" class="s16" d="m525 542l2-6h6l3 7-1 7-2 1-8-1z"/>
		<path id="Path 604" class="s17" d="m536 543l-3-7h2l6 2-1 5z"/>
		<path id="Path 605" class="s17" d="m731 542v-6h5l1 7h-2z"/>
		<path id="Path 606" class="s71" d="m167 540v-3h8v12l-6 2-3-2z"/>
		<path id="Path 607" class="s72" d="m783 539l16-2 2 1-2 1-22 3v-1z"/>
		<path id="Path 608" class="s8" d="m143 539v-1l4 3v1z"/>
		<path id="Path 609" class="s41" d="m189 546l2-8h6l-2 6z"/>
		<path id="Path 610" class="s71" d="m243 539l7-1h7l4 1-2 7-5 2v4l-7 2h-6l-12-2-3-11 4-2 7 3z"/>
		<path id="Path 611" class="s83" d="m261 539l4-1 2 8h-8z"/>
		<path id="Path 612" class="s24" d="m347 540l14-2h10 10l3 8-12 3-1 3-17 4-1 3-16 1-12-2v-10l5-6 11-2z"/>
		<path id="Path 613" class="s20" d="m761 542l1-4h3v3l-2 1z"/>
		<path id="Path 614" class="s0" d="m799 539l2-1h4z"/>
		<path id="Path 615" class="s81" d="m639 544v-4l4-1h6l5 6-1 7-2 2-10 1-2-3z"/>
		<path id="Path 616" class="s56" d="m147 541l20-1-1 9-5-1-3-1-4-2h-1l-5-3h-1z"/>
		<path id="Path 617" class="s11" d="m306 544l3-4h4v14h-4-2z"/>
		<path id="Path 618" class="s9" d="m313 554v-14h2 14l1 2-5 6v10h-4l-4-1z"/>
		<path id="Path 619" class="s77" d="m419 546v-6h5l1 6z"/>
		<path id="Path 620" class="s16" d="m559 542l4-1h4l6 7h6l2 2v4l6 3v3h-13l-1 4h-9l-2 3-10 1-2-2 3-12 6-4z"/>
		<path id="Path 621" class="s92" d="m763 542l2-1h12v1h-13z"/>
		<path id="Path 622" class="s7" d="m153 545h-4l-1-3z"/>
		<path id="Path 623" class="s77" d="m457 544v-2h12 14v6 8h-2-8l-2-6h-11z"/>
		<path id="Path 624" class="s77" d="m727 544l4-2 4 1-1 2h-7z"/>
		<path id="Path 625" class="s82" d="m738 543l9-1h7l1 2h-17z"/>
		<path id="Path 626" class="s8" d="m755 544l-1-2h7 2 1z"/>
		<path id="Path 627" class="s74" d="m535 550l1-7h4l1 7z"/>
		<path id="Path 628" class="s94" d="m734 545l1-2h2 1v1z"/>
		<path id="Path 629" class="s21" d="m298 547l1-3h7l1 10h-7z"/>
		<path id="Path 630" class="s19" d="m439 548l4-4h14l3 6h11l2 6v6h-14v-4l-7-6h-13z"/>
		<path id="Path 631" class="s84" d="m625 546l1-2h5l4 8h4l2 3-8 1h-6z"/>
		<path id="Path 632" class="s59" d="m639 552h-4l-4-8h8z"/>
		<path id="Path 633" class="s90" d="m667 548l12-4v6l-2 2h-5-5z"/>
		<path id="Path 634" class="s67" d="m722 545v-1h5v1z"/>
		<path id="Path 635" class="s47" d="m653 552l1-7 7 1v6z"/>
		<path id="Path 636" class="s66" d="m254 552v-4l5-2h8l2 2v6z"/>
		<path id="Path 637" class="s19" d="m371 552l1-3 12-3h5l6 8-4 2h-8-9z"/>
		<path id="Path 638" class="s19" d="m409 549l10-3h6l4 2v6l-2 4-18-2z"/>
		<path id="Path 639" class="s46" d="m595 547l10-1-1 10h-9z"/>
		<path id="Path 640" class="s90" d="m604 556l1-10h20l2 10-4 3h-2-6-10z"/>
		<path id="Path 641" class="s17" d="m661 552v-6h1l5 2v4l-6 1z"/>
		<path id="Path 642" class="s63" d="m161 549l-3-2 3 1z"/>
		<path id="Path 643" class="s22" d="m295 549l3-2 2 7-1 4h-4z"/>
		<path id="Path 644" class="s19" d="m483 548l10-1 6 3v6h-16z"/>
		<path id="Path 645" class="s59" d="m589 550l1-3h5v9l-6 1z"/>
		<path id="Path 646" class="s95" d="m692 548l5-1 3 1-1 2h-8z"/>
		<path id="Path 647" class="s63" d="m700 548l12-1-13 3z"/>
		<path id="Path 648" class="s82" d="m161 549v-1l5 1 3 2 5 4z"/>
		<path id="Path 649" class="s76" d="m175 549l14-1v12l-7-1-4-2-4-2-5-4z"/>
		<path id="Path 650" class="s30" d="m269 554v-6h6l2 2-3 5z"/>
		<path id="Path 651" class="s13" d="m429 554v-6h10v4z"/>
		<path id="Path 652" class="s39" d="m285 551l3-2h7v9l-9 1z"/>
		<path id="Path 653" class="s77" d="m401 554l1-5h7v7z"/>
		<path id="Path 654" class="s83" d="m269 554l5 1 3-5 8 1 1 8-3 8-6 4-1 5h-12l-6-1h-5v-1-8l-6-3v-9l7-2z"/>
		<path id="Path 655" class="s90" d="m521 560v-6l4-4 8 1v13l-4 2h-4z"/>
		<path id="Path 656" class="s84" d="m533 551l2-1h6l12 4-3 12h-1l-16-2z"/>
		<path id="Path 657" class="s17" d="m587 557l-6-3v-4h8v7z"/>
		<path id="Path 658" class="s73" d="m677 552l2-2h8z"/>
		<path id="Path 659" class="s65" d="m229 566l-2-8 2-6 12 2v12z"/>
		<path id="Path 660" class="s21" d="m353 559l1-3 17-4 3 4h9v8l-5 3-9-3-2 6h-10z"/>
		<path id="Path 661" class="s12" d="m429 554l10-2h13l7 6v4l-1 4-4 1-6-1-1 5h-12l-8-3v-10z"/>
		<path id="Path 662" class="s66" d="m651 554l2-2h8v1l-1 4h-7z"/>
		<path id="Path 663" class="s82" d="m661 553l6-1v2h-5l-3 6 1-3z"/>
		<path id="Path 664" class="s2" d="m667 554v-2h5z"/>
		<path id="Path 665" class="s36" d="m201 562v-6l8-2v8h-4z"/>
		<path id="Path 666" class="s36" d="m241 566v-12h6v9l6 3v8l-8 1h-4z"/>
		<path id="Path 667" class="s38" d="m299 558l1-4h7 2v12l-10-1z"/>
		<path id="Path 668" class="s61" d="m309 566v-12h4l4 3v15h-8z"/>
		<path id="Path 669" class="s21" d="m391 556l4-2h6l8 2 18 2v10l-12 3-22-1-2-6z"/>
		<path id="Path 670" class="s26" d="m641 555l10-1 2 3h7l-1 3-13 7-8-7h-5v-4z"/>
		<path id="Path 671" class="s10" d="m383 564v-8h8v8z"/>
		<path id="Path 672" class="s12" d="m473 562v-6h8l-2 6z"/>
		<path id="Path 673" class="s29" d="m479 562l2-6h2 16l12 4v13l-4 1-7 3-3-7h-6l-11 2h-1z"/>
		<path id="Path 674" class="s45" d="m589 557l6-1h9l1 3-3 8-15-1v-6-3z"/>
		<path id="Path 675" class="s18" d="m623 559l4-3h6v4z"/>
		<path id="Path 676" class="s63" d="m182 560l-4-3 4 2z"/>
		<path id="Path 677" class="s42" d="m317 572v-15l4 1v14z"/>
		<path id="Path 678" class="s33" d="m286 559l9-1h4v7l-6 5-10-3z"/>
		<path id="Path 679" class="s29" d="m321 572v-14h4l12 2v8 6h-12z"/>
		<path id="Path 680" class="s92" d="m182 560v-1l7 1 8 2z"/>
		<path id="Path 681" class="s12" d="m337 560l16-1 4 11-2 5h-13v-6l-5-1z"/>
		<path id="Path 682" class="s26" d="m602 567l3-8h10v4 5z"/>
		<path id="Path 683" class="s35" d="m615 563v-4h6l-1 4z"/>
		<path id="Path 684" class="s14" d="m615 563h5l1-4h2l10 1h5l8 7-7 3-8 3-5 1-7-4-4-2z"/>
		<path id="Path 685" class="s42" d="m511 573v-13h10l4 6v4 8l-4-1-5-2h-3z"/>
		<path id="Path 686" class="s42" d="m573 564l1-4h13v6h-8z"/>
		<path id="Path 687" class="s8" d="m205 564l-6-2h2 4z"/>
		<path id="Path 688" class="s82" d="m205 564v-2h4 3v2z"/>
		<path id="Path 689" class="s96" d="m212 564v-2l4 1v1z"/>
		<path id="Path 690" class="s37" d="m454 567l4-1 1-4h14 6v10h-4-16l-5-1z"/>
		<path id="Path 691" class="s7" d="m216 564v-1l3 2z"/>
		<path id="Path 692" class="s31" d="m367 570l2-6 9 3v5h-1-8z"/>
		<path id="Path 693" class="s18" d="m378 567l5-3h8l2 6-1 4h-12l-2-2z"/>
		<path id="Path 694" class="s28" d="m529 566l4-2 16 2v4h-9l-2 10-11-1v-1l2-8z"/>
		<path id="Path 695" class="s22" d="m562 567l2-3h9l6 2 1 6v2h-9-8v-1z"/>
		<path id="Path 696" class="s7" d="m238 575l-12-3-7-7 5 2z"/>
		<path id="Path 697" class="s28" d="m293 570l6-5 10 1v6h-16z"/>
		<path id="Path 698" class="s83" d="m224 567l5-1h12v9h-3z"/>
		<path id="Path 699" class="s31" d="m447 571l1-5 6 1v4z"/>
		<path id="Path 700" class="s61" d="m525 570v-4h4v4z"/>
		<path id="Path 701" class="s45" d="m549 570v-4h1l2 2v2z"/>
		<path id="Path 702" class="s5" d="m580 572l-1-6h8v6z"/>
		<path id="Path 703" class="s1" d="m587 572v-6l15 1 13 1 4 2v6 1l-12 2-7 1-1-1-2-5h-6z"/>
		<path id="Path 704" class="s32" d="m276 576l1-5 6-4 10 3v2 6h-12l-5-1z"/>
		<path id="Path 705" class="s32" d="m552 568l10-1 1 6h-6l-5-3z"/>
		<path id="Path 706" class="s37" d="m337 574v-6l5 1v6l-5 1z"/>
		<path id="Path 707" class="s22" d="m415 571l12-3 8 3 1 5-1 2h-3-16-1z"/>
		<path id="Path 708" class="s22" d="m355 575l2-5h10l2 2v5z"/>
		<path id="Path 709" class="s26" d="m392 574l1-4 22 1v7l-8 1-3 1-6 1z"/>
		<path id="Path 710" class="s25" d="m480 572l11-2v8h-11l-1-2z"/>
		<path id="Path 711" class="s26" d="m491 578v-8h6l3 7h-3z"/>
		<path id="Path 712" class="s32" d="m525 578v-8h4l-2 8z"/>
		<path id="Path 713" class="s23" d="m538 580l2-10h9 3l5 3v7h-1l-18 1z"/>
		<path id="Path 714" class="s5" d="m619 576v-6l7 4v1z"/>
		<path id="Path 715" class="s2" d="m631 573l8-3-8 4z"/>
		<path id="Path 716" class="s85" d="m436 576l-1-5h12 7l5 1v4h-8z"/>
		<path id="Path 717" class="s38" d="m293 578v-6h16v8h-15z"/>
		<path id="Path 718" class="s22" d="m309 580v-8h8v8h-3z"/>
		<path id="Path 719" class="s35" d="m317 580v-8h4l4 2v7z"/>
		<path id="Path 720" class="s26" d="m369 577v-5h8v6z"/>
		<path id="Path 721" class="s25" d="m377 578v-6h1l2 2v4z"/>
		<path id="Path 722" class="s32" d="m459 576v-4h16v4h-7z"/>
		<path id="Path 723" class="s44" d="m475 576v-4h4 1l-1 4z"/>
		<path id="Path 724" class="s23" d="m580 574v-2h7l4 2v5 1l-3 4h-5v-7z"/>
		<path id="Path 725" class="s0" d="m507 574l4-1 2 2z"/>
		<path id="Path 726" class="s14" d="m557 580v-7h6v1 7l-5-1z"/>
		<path id="Path 727" class="s0" d="m626 574l5-1v1l-5 1z"/>
		<path id="Path 728" class="s58" d="m245 575l8-1v1z"/>
		<path id="Path 729" class="s1" d="m325 581v-7h12v2 7l-6-1z"/>
		<path id="Path 730" class="s23" d="m380 578v-4h12l6 7-6 1z"/>
		<path id="Path 731" class="s4" d="m563 581v-7h8v7h-1z"/>
		<path id="Path 732" class="s14" d="m571 581v-7h9l3 3v7l-9-1z"/>
		<path id="Path 733" class="s14" d="m591 579v-5h6l2 5z"/>
		<path id="Path 734" class="s0" d="m264 577l-6-2 6 1z"/>
		<path id="Path 735" class="s24" d="m337 576l5-1h13l14 2 8 1h3l12 4-2 3-8 1h-19l-6-1-20-2z"/>
		<path id="Path 736" class="s0" d="m619 576l7-1-7 2z"/>
		<path id="Path 737" class="s58" d="m264 577v-1h12v1z"/>
		<path id="Path 738" class="s73" d="m435 578l1-2h15v1l-1 1z"/>
		<path id="Path 739" class="s58" d="m451 577v-1h8 9v1z"/>
		<path id="Path 740" class="s15" d="m468 577v-1h7 4l1 2h-12z"/>
		<path id="Path 741" class="s0" d="m281 579l-5-2 5 1z"/>
		<path id="Path 742" class="s0" d="m527 580l-6-3 4 1h2v1z"/>
		<path id="Path 743" class="s63" d="m281 579v-1h12l1 2z"/>
		<path id="Path 744" class="s0" d="m407 579l8-1h1v1z"/>
		<path id="Path 745" class="s63" d="m416 579v-1h16v1z"/>
		<path id="Path 746" class="s0" d="m432 579v-1h3 15z"/>
		<path id="Path 747" class="s72" d="m527 580v-1l11 1v1 1z"/>
		<path id="Path 748" class="s7" d="m591 580v-1h8l1 1z"/>
		<path id="Path 749" class="s27" d="m331 582l-17-2h3l8 1z"/>
		<path id="Path 750" class="s2" d="m398 581l6-1-5 4-9 1 2-3z"/>
		<path id="Path 751" class="s2" d="m538 581l18-1-7 4-11-2z"/>
		<path id="Path 752" class="s27" d="m570 582l-12-2 5 1h7z"/>
		<path id="Path 753" class="s7" d="m583 584h5l3-4-2 5-16-1 1-1z"/>
		<path id="Path 754" class="s8" d="m570 582v-1h1l3 2-1 1z"/>
		<path id="Path 755" class="s2" d="m357 585l-26-3 6 1z"/>
		<path id="Path 756" class="s6" d="m363 587v-1h19v1z"/>
	</g>
</svg>