<svg version="1.2" xmlns="http://www.w3.org/2000/svg" viewBox="0 0 1000 1000" width="1000" height="1000">
	<title>Etheostoma_microperca</title>
	<style>
		.s0 { opacity: .3;fill: #f4f5ee } 
		.s1 { fill: #fdfede } 
		.s2 { opacity: .7;fill: #e1e5d1 } 
		.s3 { opacity: .5;fill: #ebecde } 
		.s4 { fill: #d2cd95 } 
		.s5 { fill: #e6dc95 } 
		.s6 { fill: #fbf8b8 } 
		.s7 { fill: #ebe6ac } 
		.s8 { fill: #dad087 } 
		.s9 { fill: #f7eea2 } 
		.s10 { fill: #aa9c4d } 
		.s11 { fill: #e3e6c2 } 
		.s12 { fill: #bbaf63 } 
		.s13 { opacity: .3;fill: #dce0c9 } 
		.s14 { opacity: .3;fill: #cbd0af } 
		.s15 { fill: #938d4f } 
		.s16 { fill: #eef0cd } 
		.s17 { fill: #c9c897 } 
		.s18 { fill: #6a6933 } 
		.s19 { fill: #8b7f3b } 
		.s20 { fill: #c4b768 } 
		.s21 { fill: #d8d7a4 } 
		.s22 { fill: #78753a } 
		.s23 { fill: #ada761 } 
		.s24 { opacity: .1;fill: #e2e5d3 } 
		.s25 { fill: #bab476 } 
		.s26 { fill: #d8ddb9 } 
		.s27 { fill: #c8c280 } 
		.s28 { fill: #fdfccc } 
		.s29 { opacity: .9;fill: #e0e4d0 } 
		.s30 { fill: #9d9754 } 
		.s31 { opacity: 1;fill: #b8c0a3 } 
		.s32 { fill: #a39c63 } 
		.s33 { opacity: 1;fill: #afb48a } 
		.s34 { opacity: .6;fill: #f7f8f2 } 
		.s35 { fill: #7a702b } 
		.s36 { fill: #8b8c56 } 
		.s37 { fill: #aaa976 } 
		.s38 { fill: #7b7e56 } 
		.s39 { fill: #8f946c } 
		.s40 { fill: #7f824f } 
		.s41 { fill: #c1bd88 } 
		.s42 { fill: #535d42 } 
		.s43 { fill: #868445 } 
		.s44 { fill: #969562 } 
		.s45 { fill: #34371a } 
		.s46 { fill: #9b9e70 } 
		.s47 { opacity: 1;fill: #676f51 } 
		.s48 { fill: #444b31 } 
		.s49 { opacity: .7;fill: #bec4a9 } 
		.s50 { opacity: 1;fill: #f2f4de } 
		.s51 { fill: #635d26 } 
		.s52 { fill: #595b38 } 
		.s53 { opacity: .8;fill: #f4f5ed } 
		.s54 { opacity: .9;fill: #ced3b7 } 
		.s55 { fill: #9ba587 } 
		.s56 { fill: #858964 } 
		.s57 { fill: #777744 } 
		.s58 { fill: #5a5e30 } 
		.s59 { fill: #374123 } 
		.s60 { fill: #90997c } 
		.s61 { opacity: .9;fill: #91987e } 
		.s62 { fill: #292f15 } 
		.s63 { fill: #45461c } 
		.s64 { opacity: .1;fill: #aeb49a } 
		.s65 { fill: #3a452e } 
		.s66 { fill: #4b5236 } 
		.s67 { fill: #4b4e23 } 
		.s68 { fill: #a4ad8f } 
		.s69 { fill: #535326 } 
		.s70 { opacity: .1;fill: #ccd3b5 } 
		.s71 { fill: #73774f } 
		.s72 { opacity: .7;fill: #999c80 } 
		.s73 { opacity: .1;fill: #f8f8f4 } 
		.s74 { opacity: .5;fill: #cbcfb0 } 
		.s75 { fill: #cfbd6d } 
		.s76 { fill: #3c3e1e } 
		.s77 { fill: #9a8e41 } 
		.s78 { opacity: 1;fill: #c1cbac } 
		.s79 { fill: #b3a550 } 
		.s80 { fill: #d8c873 } 
		.s81 { fill: #5e6648 } 
		.s82 { opacity: .1;fill: #86886a } 
		.s83 { fill: #696c44 } 
		.s84 { fill: #757d64 } 
		.s85 { fill: #c9b041 } 
		.s86 { fill: #68683e } 
		.s87 { opacity: .8;fill: #787c5f } 
		.s88 { fill: #c7b354 } 
		.s89 { opacity: 1;fill: #b1b99a } 
		.s90 { opacity: 1;fill: #fefef4 } 
		.s91 { fill: #ebd673 } 
		.s92 { fill: #dec462 } 
		.s93 { fill: #edd054 } 
		.s94 { fill: #f6e47e } 
		.s95 { opacity: .4;fill: #949679 } 
		.s96 { opacity: .8;fill: #838767 } 
		.s97 { opacity: .4;fill: #afb497 } 
	</style>
	<g id="Background">
		<path id="Path 0" class="s0" d="m351 397l10-4h8l20 4-10-1h-7-4z"/>
		<path id="Path 1" class="s1" d="m351 397l17-1-3 5-2 2h-3l-9-5z"/>
		<path id="Path 2" class="s2" d="m404 397l8-2v1l-4 1z"/>
		<path id="Path 3" class="s3" d="m412 396v-1l7 2z"/>
		<path id="Path 4" class="s4" d="m365 401l3-5h4v4z"/>
		<path id="Path 5" class="s5" d="m372 400v-4h7v6l3 2v1l-1 1-9 3-2-3z"/>
		<path id="Path 6" class="s6" d="m382 404l-3-2v-6l10 1h11l-6 5z"/>
		<path id="Path 7" class="s7" d="m408 397l4-1 7 1 5 4 2 17-7 1h-4-3l-2-10z"/>
		<path id="Path 8" class="s0" d="m341 402l5-5h5v1l-7 3z"/>
		<path id="Path 9" class="s8" d="m394 402l6-5h4 4l2 12h-6v-4h-6z"/>
		<path id="Path 10" class="s3" d="m424 401l-5-4 8 5z"/>
		<path id="Path 11" class="s9" d="m344 401l7-3 9 5-4 4-3 2h-8l-1-3z"/>
		<path id="Path 12" class="s10" d="m365 401l7-1-2 6-5 1-2-4z"/>
		<path id="Path 13" class="s7" d="m341 402l3-1v5h-4l-1 3-3 2h-4l3-4 3-2z"/>
		<path id="Path 14" class="s11" d="m426 418l-2-17 3 1 5 3 1 15h-3z"/>
		<path id="Path 15" class="s12" d="m382 404l12-2 4 3v2l-16-2z"/>
		<path id="Path 16" class="s0" d="m528 407l7-4 15-1v1h-2l-15 3-4 1z"/>
		<path id="Path 17" class="s13" d="m550 403v-1h5v1z"/>
		<path id="Path 18" class="s14" d="m555 403v-1h19v1h-18z"/>
		<path id="Path 19" class="s13" d="m574 403v-1h12v1h-8z"/>
		<path id="Path 20" class="s3" d="m586 403v-1l11 1 12 10v1h-1l-3-1-8-7-9-3z"/>
		<path id="Path 21" class="s15" d="m356 407l4-4h3l2 4-6 4z"/>
		<path id="Path 22" class="s16" d="m533 406l15-3v6l-1 1-11 2-3-4z"/>
		<path id="Path 23" class="s11" d="m548 409v-6h2 5 1v6z"/>
		<path id="Path 24" class="s4" d="m556 409v-6h18 4v5l-3 4h5v1l1 5-3 7-19-3-4-6z"/>
		<path id="Path 25" class="s5" d="m578 408v-5h8 2v8l-2 2h-6v-1l2-4z"/>
		<path id="Path 26" class="s17" d="m588 411v-8l9 3-5 5z"/>
		<path id="Path 27" class="s18" d="m381 406l1-1 16 2 2 12-8 5-2-1v-7l-4 1h-4z"/>
		<path id="Path 28" class="s19" d="m398 407v-2h6v4l3 10h-7z"/>
		<path id="Path 29" class="s0" d="m433 420l-1-15 2 17z"/>
		<path id="Path 30" class="s20" d="m339 409l1-3h4l1 3z"/>
		<path id="Path 31" class="s21" d="m365 407l5-1 2 3-17 14h-7l-3-1-1-4-10 3-2-2 2-3 2-5 3-2h6 8v4l6-2z"/>
		<path id="Path 32" class="s22" d="m372 409l9-3 1 11-3 3-4 1-2 7-10 4-6 1-5-4 3-6z"/>
		<path id="Path 33" class="s11" d="m529 407l4-1v2h-3z"/>
		<path id="Path 34" class="s16" d="m592 411l5-5 8 7-1 4-7 1-5-4z"/>
		<path id="Path 35" class="s0" d="m323 416l12-9-3 4-3 3h-1z"/>
		<path id="Path 36" class="s23" d="m353 409l3-2 3 4-6 2z"/>
		<path id="Path 37" class="s24" d="m518 410l8-3-5 2z"/>
		<path id="Path 38" class="s25" d="m521 409l5-2h2 1l1 1-3 6h-3l-4-1z"/>
		<path id="Path 39" class="s26" d="m524 414h3l3-6h3l3 4-5 7h-7z"/>
		<path id="Path 40" class="s10" d="m580 412h-5l3-4h4z"/>
		<path id="Path 41" class="s27" d="m407 419l-3-10h6l2 10h3l-4 3h-2z"/>
		<path id="Path 42" class="s28" d="m518 410l3-1-1 4 4 1v5l-2 2-2 2h-6l-1-10v-1z"/>
		<path id="Path 43" class="s9" d="m547 410l1-1h8l-1 7-7 1z"/>
		<path id="Path 44" class="s25" d="m536 412l11-2 1 7 7-1 4 6-1 8-3 2 1 6v7h-6l-2-2v-10l-3-2-2-4h-6l-3-4-3-4z"/>
		<path id="Path 45" class="s12" d="m329 414l3-3h4l-2 5z"/>
		<path id="Path 46" class="s9" d="m586 413l2-2h4v3l-2 2h-4z"/>
		<path id="Path 47" class="s0" d="m506 415l7-3v1l-6 2z"/>
		<path id="Path 48" class="s7" d="m507 415l6-2 1 10h-4v-6l-3-1z"/>
		<path id="Path 49" class="s11" d="m581 418l-1-5h6v3l-1 2z"/>
		<path id="Path 50" class="s11" d="m604 417l1-4 3 1v3z"/>
		<path id="Path 51" class="s13" d="m609 414v-1l8 3h-1z"/>
		<path id="Path 52" class="s29" d="m323 416l5-2-2 3h-3z"/>
		<path id="Path 53" class="s30" d="m326 417l2-3h1l5 2-2 3-5 1z"/>
		<path id="Path 54" class="s21" d="m590 416l2-2 5 4 7-1h4l1 11-6 1-3-1-2-7h-8z"/>
		<path id="Path 55" class="s31" d="m608 417v-3h1l7 2v2l2 7v12l-5 3-1-1-3-11z"/>
		<path id="Path 56" class="s17" d="m612 439h1v1h-1z"/>
		<path id="Path 57" class="s2" d="m501 417l5-2h1v1l-4 3h-2z"/>
		<path id="Path 58" class="s32" d="m386 417l4-1v7h-4z"/>
		<path id="Path 59" class="s23" d="m503 419l4-3 3 1v6h-5z"/>
		<path id="Path 60" class="s33" d="m585 418l1-2h4v5h-4z"/>
		<path id="Path 61" class="s2" d="m616 418v-2h1l2 1v1z"/>
		<path id="Path 62" class="s8" d="m316 422l7-5h3l1 3 5-1 2 2-1 4-1 8h-1l-7-4h-4l-1-4-5 1v-2z"/>
		<path id="Path 63" class="s25" d="m379 420l3-3h4v6l-5 1z"/>
		<path id="Path 64" class="s34" d="m494 422l2-4 5-1v2l-2 1z"/>
		<path id="Path 65" class="s0" d="m619 418v-1l3 3z"/>
		<path id="Path 66" class="s35" d="m334 421l10-3 1 4-12 3z"/>
		<path id="Path 67" class="s36" d="m419 419l7-1 4 2v5l-5 3h-3z"/>
		<path id="Path 68" class="s37" d="m578 425l3-7h4l1 3v6h-7z"/>
		<path id="Path 69" class="s11" d="m618 425l-2-7h3l3 2 2 2 1 3z"/>
		<path id="Path 70" class="s37" d="m392 424l8-5h7l2 3-5 7-7 3h-7z"/>
		<path id="Path 71" class="s22" d="m411 422l4-3h4l3 9-4 3h-8z"/>
		<path id="Path 72" class="s30" d="m499 420l2-1h2l2 4-1 1h-4z"/>
		<path id="Path 73" class="s6" d="m522 421l2-2h7l3 4-9 3z"/>
		<path id="Path 74" class="s23" d="m373 428l2-7 4-1 2 4-1 5-7 1z"/>
		<path id="Path 75" class="s21" d="m425 428l5-3v-5h3l1 2 3 4v4l1 6-2-3-11-1z"/>
		<path id="Path 76" class="s9" d="m494 422l5-2 1 4h4l2 6 2 4-8 4-2-1v-5h-6v-8z"/>
		<path id="Path 77" class="s9" d="m520 423l2-2 3 5-2 1z"/>
		<path id="Path 78" class="s25" d="m586 427v-6h4 8l2 7 3 1-3 8h-14z"/>
		<path id="Path 79" class="s13" d="m313 424l3-2-2 2z"/>
		<path id="Path 80" class="s25" d="m333 425l12-3 3 1-1 11h-11l-4-1z"/>
		<path id="Path 81" class="s38" d="m404 429l5-7h2l-1 9h-4z"/>
		<path id="Path 82" class="s13" d="m488 425l6-3-2 2z"/>
		<path id="Path 83" class="s17" d="m558 430l1-8 19 3 1 2-9 8h-5l-2-5z"/>
		<path id="Path 84" class="s0" d="m625 425l-1-3 3 4z"/>
		<path id="Path 85" class="s39" d="m347 434l1-11h7l-3 6 5 4v1z"/>
		<path id="Path 86" class="s22" d="m381 424l5-1h4l2 1-2 8v1h-7l-3-4z"/>
		<path id="Path 87" class="s8" d="m504 424l1-1h5l-1 5-3 2z"/>
		<path id="Path 88" class="s12" d="m509 428l1-5h4 6l3 4v3l-4 2z"/>
		<path id="Path 89" class="s27" d="m525 426l9-3 3 4-4 6h-5v-3h-5v-3z"/>
		<path id="Path 90" class="s3" d="m301 433l12-9h1v2l-4 3-9 5z"/>
		<path id="Path 91" class="s5" d="m488 425l4-1v8l-5-1-3-2 1-2z"/>
		<path id="Path 92" class="s40" d="m314 426l5-1 1 4h4v3h-8l-1-3h-5z"/>
		<path id="Path 93" class="s13" d="m484 427l4-2-3 2z"/>
		<path id="Path 94" class="s26" d="m613 440l5-3v-12h7l2 1v1l2 3 3 6-1 17-2 5-2 2 1-6-9-2-6-5z"/>
		<path id="Path 95" class="s2" d="m480 428l4-1h1l-1 2-4 2h-2v-1z"/>
		<path id="Path 96" class="s6" d="m533 433l4-6h6l2 4-11 3z"/>
		<path id="Path 97" class="s30" d="m570 435l9-8h7v10l-1 5h-12z"/>
		<path id="Path 98" class="s33" d="m363 432l10-4v2l-5 6h-2z"/>
		<path id="Path 99" class="s41" d="m418 431l4-3h3v4l-2 3h-2z"/>
		<path id="Path 100" class="s25" d="m506 430l3-2 10 4 1 5 8-4h5l1 1v7l-10-1-2 7-7 3-11-1 1-9-5-1v-1l8-4z"/>
		<path id="Path 101" class="s37" d="m603 429l6-1 3 11 1 1v7l6 5v6l5 5-4 3 2 3v1l-10-1h-2v-6l-6-4-4-22z"/>
		<path id="Path 102" class="s42" d="m301 434l9-5h5l1 3-13 7-8-1v-1z"/>
		<path id="Path 103" class="s43" d="m324 432v-3l7 4-2 3h-4z"/>
		<path id="Path 104" class="s38" d="m373 430l7-1 3 4-3 6h6l-1 2-17-2v-3z"/>
		<path id="Path 105" class="s18" d="m397 432l7-3 2 2-3 4h-5z"/>
		<path id="Path 106" class="s18" d="m480 431l4-2 3 2-6 3z"/>
		<path id="Path 107" class="s0" d="m438 436l-1-6 2 6z"/>
		<path id="Path 108" class="s0" d="m468 435l10-5v1z"/>
		<path id="Path 109" class="s22" d="m519 432l4-2h5v3l-8 4z"/>
		<path id="Path 110" class="s43" d="m556 438l-1-6 3-2h5l2 5z"/>
		<path id="Path 111" class="s44" d="m403 435l3-4h4 8l3 4-1 2-10 2h-6z"/>
		<path id="Path 112" class="s32" d="m468 435l10-4h2l1 3v3l-4 3 1 3h4l2-4 14-2 2 1v1l-4 3v7l-7-1-3-3-8 1-9-9h-2v-2z"/>
		<path id="Path 113" class="s30" d="m481 434l6-3 5 1h6v5l-14 2-3-2z"/>
		<path id="Path 114" class="s41" d="m534 434l11-3 3 2v10l-7 2-7-2v-2z"/>
		<path id="Path 115" class="s45" d="m295 438l8 1 13-7h8l1 4h4l1 3h4l2-5h11 10l1 4 8 1v13l-2 1-5 7 9 4 2 1 9 2v7l4 1v4l-8 2-1 14-4 1-9-3-1-6-12-2-2-7-2-8-7 4 1 3v5l-6 1h-6l-7-8h-5l-4-3 4-5-3-9-7 4 2 10v9l-4 2-4-1-5-1-8-17-7 1v12l-9 4-1-7-5-1-9-4v-6l-4-1v-8l-6-2-2-11 8-2h7 3l2 12 5 4h7l1-7-5-4v-5z"/>
		<path id="Path 116" class="s46" d="m357 433l6-1 3 4v3l-8-1-1-4z"/>
		<path id="Path 117" class="s47" d="m390 433v-1h7l1 3v3l-8 1h-2z"/>
		<path id="Path 118" class="s39" d="m423 435l2-3 11 1 2 3 2 5h-1l-7-5-8-1z"/>
		<path id="Path 119" class="s13" d="m296 435l5-2v1z"/>
		<path id="Path 120" class="s48" d="m329 436l2-3h1l4 1-2 5h-4z"/>
		<path id="Path 121" class="s33" d="m386 439h-6l3-6h7l-2 6z"/>
		<path id="Path 122" class="s3" d="m872 435l10-2v1l-10 2z"/>
		<path id="Path 123" class="s0" d="m882 434v-1h5v5l-6 5v-1l5-5z"/>
		<path id="Path 124" class="s49" d="m296 435l5-1-6 3h-6v-2z"/>
		<path id="Path 125" class="s50" d="m872 436l10-2 4 3-5 5-3 3-7-1-1-6z"/>
		<path id="Path 126" class="s34" d="m248 437l10-2v2h-1-8z"/>
		<path id="Path 127" class="s2" d="m258 437v-2h31v2h-22z"/>
		<path id="Path 128" class="s51" d="m398 438v-3h5l1 4h6l1 3-1 2h-6z"/>
		<path id="Path 129" class="s18" d="m420 437l1-2h2 1v4h-4z"/>
		<path id="Path 130" class="s52" d="m424 439v-4l8 1 7 5v2h-11z"/>
		<path id="Path 131" class="s2" d="m458 438l9-3v2l-3 1-6 1z"/>
		<path id="Path 132" class="s27" d="m556 438l9-3h5l3 7-1 6-9 3h-5l-2-6z"/>
		<path id="Path 133" class="s34" d="m866 438l6-3v1l-2 2-4 1z"/>
		<path id="Path 134" class="s36" d="m366 439v-3h2v3z"/>
		<path id="Path 135" class="s2" d="m440 441l-2-5h1l5 4v1z"/>
		<path id="Path 136" class="s24" d="m223 440l12-3v2h-5z"/>
		<path id="Path 137" class="s53" d="m235 439v-2h8v2z"/>
		<path id="Path 138" class="s54" d="m243 439v-2h5 1v2z"/>
		<path id="Path 139" class="s31" d="m249 439v-2h8v2h-7z"/>
		<path id="Path 140" class="s55" d="m257 439v-2h1 9v2h-7z"/>
		<path id="Path 141" class="s56" d="m267 439v-2h22 6v1l-25 1z"/>
		<path id="Path 142" class="s57" d="m410 439l10-2v2l-9 3z"/>
		<path id="Path 143" class="s57" d="m464 438l3-1h2l-1 4h-4z"/>
		<path id="Path 144" class="s58" d="m464 441h4l1-4 9 9v5l2 10v4h-6l-1-10-5-5-10-1v-8z"/>
		<path id="Path 145" class="s5" d="m484 439l-2 4h-4l-1-3 4-3z"/>
		<path id="Path 146" class="s33" d="m585 442l1-5h14l4 22-4 2-8-2v-11z"/>
		<path id="Path 147" class="s59" d="m390 439l8-1 6 6v11l2 12v8l-3 13-1 1h-4l-6-7v-7l4-3-2-7v-6l-4-2-1-12z"/>
		<path id="Path 148" class="s24" d="m450 439l8-1v1h-1z"/>
		<path id="Path 149" class="s60" d="m458 439l6-1v3h-6-2l1-2z"/>
		<path id="Path 150" class="s24" d="m861 440l5-2v1z"/>
		<path id="Path 151" class="s21" d="m866 439l4-1 1 6 1 9 1 10v2l-7 2-6-1-1-13 1-7-3-3v-1l1-1 3-1z"/>
		<path id="Path 152" class="s54" d="m223 440l7-1v2h-3-4z"/>
		<path id="Path 153" class="s61" d="m230 441v-2h5v2z"/>
		<path id="Path 154" class="s60" d="m235 441v-2h8 6 1l-8 2h-5z"/>
		<path id="Path 155" class="s48" d="m270 439v5l5 4-1 7h-7l-5-4-2-12h7z"/>
		<path id="Path 156" class="s62" d="m366 452v-13h2l17 2 1 4h3l1 12-5 1-7-3h-7z"/>
		<path id="Path 157" class="s63" d="m385 441l1-2h2 2l-1 6h-3z"/>
		<path id="Path 158" class="s59" d="m411 442l9-3h4l4 4h11 7v3l4 15-16 2-2-3-8-1v-6l-4-4h-6l-4-5z"/>
		<path id="Path 159" class="s64" d="m444 440l6-1v2h-6z"/>
		<path id="Path 160" class="s54" d="m450 441v-2h7l-1 2h-4z"/>
		<path id="Path 161" class="s15" d="m496 449v-7l4-3 5 1-1 9-2 1z"/>
		<path id="Path 162" class="s13" d="m213 442l10-2v1l-9 1z"/>
		<path id="Path 163" class="s18" d="m522 447l2-7 10 1v2l-2 4z"/>
		<path id="Path 164" class="s55" d="m214 442l9-1h4l-11 3h-2z"/>
		<path id="Path 165" class="s59" d="m216 444l11-3h3 5 2l1 14h-5l-1 4h-5l-11-11z"/>
		<path id="Path 166" class="s65" d="m238 455l-1-14h5l2 11-2 3z"/>
		<path id="Path 167" class="s38" d="m439 443v-2h1 4 6 2l-3 2h-3z"/>
		<path id="Path 168" class="s66" d="m449 443l3-2h4 2v8l-9-3z"/>
		<path id="Path 169" class="s13" d="m191 448l9-5 11-1-8 3-8 3-3 1h-1z"/>
		<path id="Path 170" class="s60" d="m203 445l8-3h2 1v2l-11 2z"/>
		<path id="Path 171" class="s25" d="m572 448l1-6h12l7 6v11h-6l-1-4-8-1-2-3v-3z"/>
		<path id="Path 172" class="s0" d="m845 445l12-3v1l-7 3h-5z"/>
		<path id="Path 173" class="s34" d="m878 445l3-3v1l3 4-5-1z"/>
		<path id="Path 174" class="s62" d="m446 446v-3h3v3z"/>
		<path id="Path 175" class="s12" d="m532 447l2-4 7 2v3l-9 1z"/>
		<path id="Path 176" class="s19" d="m541 445l7-2 2 2-6 4-3-1z"/>
		<path id="Path 177" class="s25" d="m850 446l7-3 3 3-1 7h-7z"/>
		<path id="Path 178" class="s67" d="m203 446l11-2h2v4l-4 3h-10v-4z"/>
		<path id="Path 179" class="s48" d="m404 455v-11h6l4 5v6z"/>
		<path id="Path 180" class="s1" d="m872 453l-1-9 7 1 1 1-1 7z"/>
		<path id="Path 181" class="s68" d="m195 448l8-3v1l-1 1z"/>
		<path id="Path 182" class="s69" d="m478 446l8-1 3 3-1 3h-10z"/>
		<path id="Path 183" class="s23" d="m544 449l6-4h6l2 6v6l-3 1-11-5z"/>
		<path id="Path 184" class="s34" d="m843 447l2-2v1z"/>
		<path id="Path 185" class="s45" d="m450 461l-4-15h3l9 3 10 1 5 5 1 10-15 2-1 4-7-2z"/>
		<path id="Path 186" class="s5" d="m843 447l2-1h5l2 7v8l-3 3h-4l-5-9v-8z"/>
		<path id="Path 187" class="s28" d="m872 453h6l1-7 5 1h4l2 2v10l-17 4z"/>
		<path id="Path 188" class="s48" d="m195 448l7-1v4l3 12 10 7-1 2-8-1-7 1-8-2-4-7v-12l4-2h1z"/>
		<path id="Path 189" class="s15" d="m515 450l7-3h10v2l-2 8-14-3z"/>
		<path id="Path 190" class="s70" d="m830 449l8-2-7 2z"/>
		<path id="Path 191" class="s21" d="m831 449l7-2h2v8h-8l-2-4z"/>
		<path id="Path 192" class="s24" d="m890 449l-2-2 13 5z"/>
		<path id="Path 193" class="s70" d="m179 452l12-4v1l-4 2h-2l-5 1z"/>
		<path id="Path 194" class="s63" d="m212 451l4-3 11 11-2 5-7 1z"/>
		<path id="Path 195" class="s45" d="m488 451l1-3 7 1 6 1 4 5v8l4 6-1 4h-7v-6l-5-6-9-2z"/>
		<path id="Path 196" class="s27" d="m532 449l9-1 3 1v4l-9 5-5-1z"/>
		<path id="Path 197" class="s35" d="m563 451l9-3h3v3l-9 2z"/>
		<path id="Path 198" class="s24" d="m926 450l11-2v2l-5-1z"/>
		<path id="Path 199" class="s62" d="m414 455v-6h6l4 4v6l-2 1z"/>
		<path id="Path 200" class="s69" d="m502 450l2-1 11 1 1 4 14 3 5 1 3 3v6l1 7 11 6v7 8l-14-1-10-4-4-2-4-7 2-12v-9l-5-4-9-1z"/>
		<path id="Path 201" class="s14" d="m823 452l7-3h1l-1 2z"/>
		<path id="Path 202" class="s26" d="m890 459v-10l11 3 6 3 1 1v8l-2 3h-6l-3-2v-8z"/>
		<path id="Path 203" class="s16" d="m926 450l6-1v8h-6l-4-5z"/>
		<path id="Path 204" class="s11" d="m932 457v-8l5 1 4 2h1l3 2 1 2v10h-1l-4-3v-4z"/>
		<path id="Path 205" class="s24" d="m921 452l5-2-4 2z"/>
		<path id="Path 206" class="s71" d="m180 452l5-1-5 3v8h-2-2v-7z"/>
		<path id="Path 207" class="s63" d="m180 462v-8l5-3h2v12z"/>
		<path id="Path 208" class="s45" d="m215 470l-10-7-3-12h10l6 14z"/>
		<path id="Path 209" class="s62" d="m480 461l-2-10h10v8l-2 2z"/>
		<path id="Path 210" class="s25" d="m558 457v-6h5l3 2v3l-4 1z"/>
		<path id="Path 211" class="s44" d="m566 453l9-2 2 3-1 9h-6l-4-7z"/>
		<path id="Path 212" class="s27" d="m823 452l7-1 2 4-3 2h-7l-2-4 1-1z"/>
		<path id="Path 213" class="s72" d="m160 457l19-5h1l-4 3-24 6z"/>
		<path id="Path 214" class="s58" d="m242 455l2-3 6 2v8l-4 2-4-1z"/>
		<path id="Path 215" class="s58" d="m364 453l2-1 5 3v3h-3z"/>
		<path id="Path 216" class="s33" d="m624 463l-5-5v-6l9 2-1 6z"/>
		<path id="Path 217" class="s3" d="m808 455l13-3-1 1z"/>
		<path id="Path 218" class="s0" d="m911 455l9-3-3 2z"/>
		<path id="Path 219" class="s11" d="m917 454l3-2h1 1l4 5-1 4h-5l-3-1z"/>
		<path id="Path 220" class="s18" d="m368 464l-9-4 5-7 4 5z"/>
		<path id="Path 221" class="s51" d="m535 458l9-5 11 5v4h-9l-8-1z"/>
		<path id="Path 222" class="s5" d="m808 455l12-2 2 4h7l-3 7h-7-10l-4-7z"/>
		<path id="Path 223" class="s27" d="m849 464l3-3v-8h7l1 13-9 1z"/>
		<path id="Path 224" class="s22" d="m576 463l1-9 8 1 1 4-5 4 1 3-2 1z"/>
		<path id="Path 225" class="s7" d="m911 455l6-1v6h-5l-1 4h-3v-8z"/>
		<path id="Path 226" class="s73" d="m946 456l-1-2 2 1v1z"/>
		<path id="Path 227" class="s69" d="m152 461l24-6v7l-11 3-4 5h-6l-7 1v-9z"/>
		<path id="Path 228" class="s63" d="m232 459l1-4h5 4v8l-2 2h-7z"/>
		<path id="Path 229" class="s22" d="m371 458v-3h7v8h-6z"/>
		<path id="Path 230" class="s57" d="m378 463v-8l7 3 4 7v9l-6 1-4-1v-7z"/>
		<path id="Path 231" class="s18" d="m406 467l-2-12h10l8 5v8z"/>
		<path id="Path 232" class="s59" d="m510 469l-4-6v-8l9 1 5 4v9z"/>
		<path id="Path 233" class="s34" d="m801 457l7-2-3 2z"/>
		<path id="Path 234" class="s25" d="m829 457l3-2h8l5 9v9 2l-5 1-2-3h-7l-5-9z"/>
		<path id="Path 235" class="s74" d="m908 456l-1-1h4z"/>
		<path id="Path 236" class="s23" d="m562 457l4-1 4 7-2 3-6-1z"/>
		<path id="Path 237" class="s3" d="m946 466v-10h1v10z"/>
		<path id="Path 238" class="s13" d="m146 462l5-4 9-1-8 4-4 1z"/>
		<path id="Path 239" class="s45" d="m385 458l5-1 4 2v6h-5z"/>
		<path id="Path 240" class="s36" d="m555 458l3-1h4v8h-2l-5-3z"/>
		<path id="Path 241" class="s24" d="m786 460l14-3-5 2h-2z"/>
		<path id="Path 242" class="s75" d="m795 459l5-2h1 4l4 7-2 2-5-1h-6z"/>
		<path id="Path 243" class="s8" d="m890 459l7-2v8l3 2v8l1 6v5l-11 2-2 3-4 1v4l-3 4h-5l-2-2-1-4h-5l-4 1-13 1 6-12 2-4-5-1-2-1-1-5h-6v-9h4l2 3 9-1 6 1 6 16-6 1 1 6h4l3-6 9-6v-5l-10-8v-2z"/>
		<path id="Path 244" class="s31" d="m925 461l1-4h6l9 2v4l-6 1-1 5h-6z"/>
		<path id="Path 245" class="s52" d="m306 472l-2-10 7-4 3 9-4 5z"/>
		<path id="Path 246" class="s36" d="m368 464v-6h3l1 5-2 2z"/>
		<path id="Path 247" class="s13" d="m627 460l2-2-7 10v1l-2-3 4-3z"/>
		<path id="Path 248" class="s58" d="m225 464l2-5h5l1 6-1 6h-7z"/>
		<path id="Path 249" class="s57" d="m422 460l2-1 8 1 2 3v8l-1 10-2 4h-9v-17z"/>
		<path id="Path 250" class="s76" d="m486 461l2-2 9 2 5 6v6 10l-6 2-4-8-6-2v-8z"/>
		<path id="Path 251" class="s12" d="m582 466l-1-3 5-4h6v7h-2z"/>
		<path id="Path 252" class="s27" d="m592 466v-7l8 2v5z"/>
		<path id="Path 253" class="s15" d="m600 461l4-2 6 4v6l-10-3z"/>
		<path id="Path 254" class="s54" d="m786 460l7-1-3 2h-4z"/>
		<path id="Path 255" class="s77" d="m790 461l3-2h2l1 6h6l2 10-1 5-7 1-3-1-3-11z"/>
		<path id="Path 256" class="s70" d="m776 462l10-2v1h-2l-7 1z"/>
		<path id="Path 257" class="s8" d="m911 464l1-4h5l3 1-2 8h-6z"/>
		<path id="Path 258" class="s22" d="m434 463l16-2 1 8 7 2 4 5-2 9v2h-6l-5-2v-10l-3-4h-12z"/>
		<path id="Path 259" class="s51" d="m480 465v-4h6v6z"/>
		<path id="Path 260" class="s45" d="m538 467v-6l8 1v4z"/>
		<path id="Path 261" class="s78" d="m777 462l7-1-2 2z"/>
		<path id="Path 262" class="s19" d="m782 463l2-2h2 4v8h-4-4z"/>
		<path id="Path 263" class="s27" d="m912 469h6l2-8h5l3 8-7 2-7 10h-7v-7l4-1z"/>
		<path id="Path 264" class="s13" d="m133 465l13-3-10 4h-3z"/>
		<path id="Path 265" class="s67" d="m136 466l10-4h2v9l-2 2h-4-6l-2-4z"/>
		<path id="Path 266" class="s18" d="m161 470l4-5 11-3h2v18l-3 1-4-3h-9z"/>
		<path id="Path 267" class="s22" d="m178 480v-18h2l7 1 4 7 3 4-1 10h-3-7z"/>
		<path id="Path 268" class="s62" d="m246 464l4-2 4 1v6l-1 12-5 2v4h-4l-2-6v-8l4-2z"/>
		<path id="Path 269" class="s62" d="m546 466v-4h9l5 3 2 18v2l-6-1v-13z"/>
		<path id="Path 270" class="s0" d="m766 463l6-1-6 2z"/>
		<path id="Path 271" class="s77" d="m766 464l6-2h4 1l5 1v6l-9 1-1 9h-5l-7-12 1-2z"/>
		<path id="Path 272" class="s48" d="m240 465l2-2 4 1v7l-4 2h-2z"/>
		<path id="Path 273" class="s66" d="m370 465l2-2h6l1 4z"/>
		<path id="Path 274" class="s51" d="m568 466l2-3h6l4 4v4h-8z"/>
		<path id="Path 275" class="s13" d="m756 465l10-2v1l-5 1z"/>
		<path id="Path 276" class="s79" d="m809 464h10l-3 4v9l-8-2-1-9z"/>
		<path id="Path 277" class="s26" d="m934 469l1-5 6-1 4 3-1 4-3 3-2 2-1 1h-2z"/>
		<path id="Path 278" class="s15" d="m218 465l7-1v7l-3 4h-3l-5-3 1-2z"/>
		<path id="Path 279" class="s62" d="m278 477v-12l7-1 8 17-8 3z"/>
		<path id="Path 280" class="s80" d="m816 477v-9l3-4h7l5 9-3 5z"/>
		<path id="Path 281" class="s23" d="m906 467l2-3h3l1 5z"/>
		<path id="Path 282" class="s34" d="m129 467l4-2v1l-3 1z"/>
		<path id="Path 283" class="s76" d="m232 471l1-6h7v8h-4z"/>
		<path id="Path 284" class="s62" d="m389 474v-9h5l2 7-4 3z"/>
		<path id="Path 285" class="s43" d="m458 471l1-4 15-2h6l6 2v8h-9l-2 5h-6l-7-4z"/>
		<path id="Path 286" class="s63" d="m562 483l-2-18h2l6 1 4 5v6l-3 6z"/>
		<path id="Path 287" class="s74" d="m744 467l12-2-3 2h-6z"/>
		<path id="Path 288" class="s68" d="m753 467l3-2h5l-1 2z"/>
		<path id="Path 289" class="s19" d="m804 475l-2-10 5 1 1 9z"/>
		<path id="Path 290" class="s10" d="m866 467l7-2 10 8v5l-9 6-2-1z"/>
		<path id="Path 291" class="s81" d="m130 467l3-1h3l-2 3-4 1v4 5l-8-1v-7z"/>
		<path id="Path 292" class="s76" d="m538 467l8-1 10 5v13l-1 3h-5v-7l-11-6z"/>
		<path id="Path 293" class="s63" d="m580 467l2-1h8v9h-4l-6-4z"/>
		<path id="Path 294" class="s69" d="m590 475v-9h2 8l10 3h2l3 8-1 7-6 1-9-10z"/>
		<path id="Path 295" class="s73" d="m944 470l1-4h1 1v1z"/>
		<path id="Path 296" class="s2" d="m120 469l9-2h1l-8 4h-2z"/>
		<path id="Path 297" class="s45" d="m406 475v-8l16 1v17l-2 3h-5l-1-11z"/>
		<path id="Path 298" class="s53" d="m654 468h55v1h-19-10-17-9z"/>
		<path id="Path 299" class="s2" d="m729 468l8-1v2h-1-7z"/>
		<path id="Path 300" class="s72" d="m737 469v-2h7 3l-1 2h-4z"/>
		<path id="Path 301" class="s47" d="m746 469l1-2h6l-1 2z"/>
		<path id="Path 302" class="s76" d="m752 469l1-2h7l7 12-4 4h-6v-5l-5-3z"/>
		<path id="Path 303" class="s22" d="m900 475v-8h6l6 2-1 4-4 1z"/>
		<path id="Path 304" class="s82" d="m622 469v-1h32v1h-2-12z"/>
		<path id="Path 305" class="s82" d="m709 469v-1h20v1h-3-15-1z"/>
		<path id="Path 306" class="s13" d="m106 475l14-6v2l-13 4z"/>
		<path id="Path 307" class="s63" d="m130 474v-4l4-1 2 4v1z"/>
		<path id="Path 308" class="s81" d="m253 481l1-12 9 4-3 8h-4z"/>
		<path id="Path 309" class="s22" d="m509 473l1-4h10l-2 12h-4v-5z"/>
		<path id="Path 310" class="s67" d="m615 477l-3-8 10 1v9z"/>
		<path id="Path 311" class="s52" d="m622 470v-1h18v4l-4 1v5l-4 2h-6l-4-2z"/>
		<path id="Path 312" class="s81" d="m640 473v-4h12l1 2-1 2h-6z"/>
		<path id="Path 313" class="s60" d="m653 471l-1-2h2 9l-1 2z"/>
		<path id="Path 314" class="s83" d="m662 471l1-2h17l-4 6h-14z"/>
		<path id="Path 315" class="s69" d="m676 475l4-6h10l10 2 1 9-10 1-1 5h-2l-7-1 1-7z"/>
		<path id="Path 316" class="s84" d="m700 471l-10-2h19 1v1l-2 2z"/>
		<path id="Path 317" class="s42" d="m710 469h1v1h-1z"/>
		<path id="Path 318" class="s66" d="m710 470l1-1h15l2 14-7-1-1 3h-5l-2-3-4-10z"/>
		<path id="Path 319" class="s43" d="m728 483l-2-14h3 7l4 5v9 6l-9-2z"/>
		<path id="Path 320" class="s66" d="m740 474l-4-5h1 5v4z"/>
		<path id="Path 321" class="s76" d="m742 473v-4h4v4z"/>
		<path id="Path 322" class="s63" d="m746 473v-4h6v6h-3z"/>
		<path id="Path 323" class="s85" d="m772 479l1-9 9-1h4v11 7l-5 1-4-1z"/>
		<path id="Path 324" class="s79" d="m786 480v-11h4l3 11z"/>
		<path id="Path 325" class="s7" d="m907 481h7l7-10 7-2h6l2 7-1 2-3 2-3 3-2 1-5 3-1 1-4 2-5 3h-1l-10-7v-5z"/>
		<path id="Path 326" class="s30" d="m148 471l7-1-1 7h-8v-4z"/>
		<path id="Path 327" class="s35" d="m154 477l1-7h6l1 8-2 3-6-1z"/>
		<path id="Path 328" class="s86" d="m194 474l-3-4 8 2z"/>
		<path id="Path 329" class="s18" d="m338 477l-1-3 7-4 2 8z"/>
		<path id="Path 330" class="s42" d="m708 472l2-2-1 2z"/>
		<path id="Path 331" class="s47" d="m107 475l13-4h2v7 5l1 11-3 1-8-4v-10l-5-4z"/>
		<path id="Path 332" class="s77" d="m199 472l7-1v5l7 2 4 7v2l-5 2-6 2h-7l-1-2v-3l-5-2 1-10z"/>
		<path id="Path 333" class="s25" d="m217 485l-4-7-7-2v-5l8 1 5 3 1 10z"/>
		<path id="Path 334" class="s62" d="m222 475l3-4h7l4 2 1 8v2l-7-2z"/>
		<path id="Path 335" class="s76" d="m433 481l1-10h12l3 4v10l-9 2-2-6z"/>
		<path id="Path 336" class="s86" d="m572 477v-6h8l6 4v8l3 2v2h-5l-4-2v-6z"/>
		<path id="Path 337" class="s67" d="m652 473l1-2h9v4l-2 2h-7z"/>
		<path id="Path 338" class="s76" d="m701 480l-1-9 8 1h1l4 10-3 5h-7z"/>
		<path id="Path 339" class="s65" d="m302 483l4-2v-9h4l4 3 4 16-2 14-5 1-5 1v-11l-4-2z"/>
		<path id="Path 340" class="s51" d="m136 474v-1h6v6h-2z"/>
		<path id="Path 341" class="s19" d="m142 479v-6h4v4z"/>
		<path id="Path 342" class="s59" d="m237 481l-1-8h4 2v8z"/>
		<path id="Path 343" class="s43" d="m260 481l3-8 5 1 1 7 1 6h-4-5l-1-2z"/>
		<path id="Path 344" class="s43" d="m502 483v-10h7l5 3v5l-2 4h-5z"/>
		<path id="Path 345" class="s45" d="m636 479v-5l4-1h6v6h-2z"/>
		<path id="Path 346" class="s52" d="m646 479v-6h6l1 4v2z"/>
		<path id="Path 347" class="s67" d="m740 474l2-1h4l3 2-4 8h-5z"/>
		<path id="Path 348" class="s75" d="m828 478l3-5h7l2 3-4 10-2 2h-4z"/>
		<path id="Path 349" class="s10" d="m845 475v-2h6l1 5h-6z"/>
		<path id="Path 350" class="s52" d="m130 479v-5h6l4 5v2z"/>
		<path id="Path 351" class="s65" d="m383 475l6-1 3 1v7l6 7-3 3-10-1-2-12z"/>
		<path id="Path 352" class="s4" d="m900 475l7-1v7h-6z"/>
		<path id="Path 353" class="s87" d="m99 477l7-2h1v2l-9 3-6 1v-1h1z"/>
		<path id="Path 354" class="s38" d="m220 485l-1-10h3l8 6-6 5z"/>
		<path id="Path 355" class="s62" d="m318 491l-4-16h5l7 8v3l-4 5z"/>
		<path id="Path 356" class="s52" d="m403 488l3-13 8 2 1 11v3l-5 2h-4v-5z"/>
		<path id="Path 357" class="s59" d="m475 480l2-5h9l6 2 4 8-3 3h-8l-4-1z"/>
		<path id="Path 358" class="s22" d="m589 485l-3-2v-8h4 9l9 10 6-1 6 3 1 6-1 6v2h-7l-2-2-1-5h-8l-2 5h-4v-8l-1-6z"/>
		<path id="Path 359" class="s22" d="m660 477l2-2h14l6 3-1 7-1 2-7 6-7 1-4-1-2-8z"/>
		<path id="Path 360" class="s18" d="m745 483l4-8h3l5 3v5l-1 11-1 5h-3l-3-1v-7l-4-5z"/>
		<path id="Path 361" class="s12" d="m803 480l1-5h4l8 2 12 1 2 10-5 2-13-1v-5z"/>
		<path id="Path 362" class="s19" d="m840 476l5-1 1 3-5 8h-5z"/>
		<path id="Path 363" class="s76" d="m460 485l2-9 7 4-2 5z"/>
		<path id="Path 364" class="s73" d="m935 478l1-2h2z"/>
		<path id="Path 365" class="s62" d="m98 480l9-3 5 4v10l8 4v3l-3 4-17-3-3-1-1-9z"/>
		<path id="Path 366" class="s88" d="m142 479l4-2h8v3l-7 6-7-3v-2-2z"/>
		<path id="Path 367" class="s65" d="m269 481l9-4 7 7-1 1-2 1-8 2-4-1z"/>
		<path id="Path 368" class="s62" d="m338 482v-5l8 1 2 7 12 2 1 6-1 4-11-4-3 5-6 1-1-3-1-8z"/>
		<path id="Path 369" class="s18" d="m569 483l3-6 8 2v6l-6 1z"/>
		<path id="Path 370" class="s57" d="m614 484l1-7 7 2 4 2-1 6h-5z"/>
		<path id="Path 371" class="s40" d="m653 479v-2h7v8h-4z"/>
		<path id="Path 372" class="s39" d="m122 483v-5l8 1 10 2v2l-3 3-4 3-5-6z"/>
		<path id="Path 373" class="s19" d="m160 481l2-3h9l4 3 3 5v5h-10z"/>
		<path id="Path 374" class="s12" d="m836 486h5l5-8h6l2 1-1 5h4l-6 12v1l-6-1-1 7-10-2v-13z"/>
		<path id="Path 375" class="s59" d="m374 495l1-14 8-2 2 12-3 4z"/>
		<path id="Path 376" class="s67" d="m632 481l4-2h8l-1 6-5 4h-6z"/>
		<path id="Path 377" class="s86" d="m643 485l1-6h2 7l3 6v8h-1l-8-2z"/>
		<path id="Path 378" class="s15" d="m763 483l4-4h5l5 8-9 1z"/>
		<path id="Path 379" class="s35" d="m857 484h-4l1-5 5 1z"/>
		<path id="Path 380" class="s14" d="m83 483l9-3v1l-9 4z"/>
		<path id="Path 381" class="s66" d="m92 481l6-1-2 9-3-1z"/>
		<path id="Path 382" class="s10" d="m147 486l7-6 6 1 8 10-1 12h-1-6l-2-2-10 2h-4l-2-8 3-7z"/>
		<path id="Path 383" class="s51" d="m175 481l3-1 5 4-1 2h-4z"/>
		<path id="Path 384" class="s42" d="m467 485l2-5h6l6 7-1 2-5 6-1 1-2-1v-6z"/>
		<path id="Path 385" class="s43" d="m690 486l1-5 10-1 2 7v4h-5z"/>
		<path id="Path 386" class="s88" d="m786 487v-7h7l3 1v13h-2z"/>
		<path id="Path 387" class="s8" d="m796 481l7-1 9 4v5l-2 6-2 4h-10l-2-5z"/>
		<path id="Path 388" class="s57" d="m83 485l9-4 1 7 3 1 1 9-1 1-6-5-7 3-8-6v-3l1-1z"/>
		<path id="Path 389" class="s48" d="m224 486l6-5 7 2 3 8-2 3-6 1h-8v-6z"/>
		<path id="Path 390" class="s42" d="m237 483v-2h5l2 6v4h-4z"/>
		<path id="Path 391" class="s52" d="m248 487v-4l5-2h3l1 4h3l1 2-2 10-3 1-8-7z"/>
		<path id="Path 392" class="s58" d="m260 485h-3l-1-4h4z"/>
		<path id="Path 393" class="s43" d="m285 484l8-3 5 1-7 13-1 1h-3v-2l1-7-4-2z"/>
		<path id="Path 394" class="s59" d="m431 485l2-4h5l2 6v5h-6z"/>
		<path id="Path 395" class="s45" d="m512 485l2-4h4l4 7v2l-2 2h-6z"/>
		<path id="Path 396" class="s63" d="m625 487l1-6h6v8l-2 9-10 1 1-6 6-1z"/>
		<path id="Path 397" class="s58" d="m291 495l7-13 4 1v11l-5 3z"/>
		<path id="Path 398" class="s86" d="m332 483l6-1v6l-6-2z"/>
		<path id="Path 399" class="s71" d="m710 487l3-5 2 3-2 10h-3z"/>
		<path id="Path 400" class="s15" d="m720 485l1-3 7 1 3 4-1 8-2 1-5-1v-7z"/>
		<path id="Path 401" class="s0" d="m76 487l7-4v2z"/>
		<path id="Path 402" class="s69" d="m123 494l-1-11h6l5 6v4l-6 6z"/>
		<path id="Path 403" class="s9" d="m137 486l3-3 7 3-2 2z"/>
		<path id="Path 404" class="s52" d="m326 486v-3h6v3l-1 1z"/>
		<path id="Path 405" class="s48" d="m496 485l6-2 5 2v6l-6 2h-6l-2-5z"/>
		<path id="Path 406" class="s48" d="m562 485v-2h7l5 3v11l-8 1-2-1z"/>
		<path id="Path 407" class="s52" d="m740 489v-6h5v3z"/>
		<path id="Path 408" class="s30" d="m756 494l1-11h6l5 5v8h-3z"/>
		<path id="Path 409" class="s79" d="m874 484l-3 6h-4l-1-6 6-1z"/>
		<path id="Path 410" class="s25" d="m182 486l1-2h7v4l-4 2z"/>
		<path id="Path 411" class="s20" d="m190 488v-4h3l5 2v3z"/>
		<path id="Path 412" class="s66" d="m555 487l1-3 6 1 2 12h-8l-1-2z"/>
		<path id="Path 413" class="s60" d="m217 487v-2h3l4 1v3h-4z"/>
		<path id="Path 414" class="s23" d="m282 486l2-1 4 2-1 7-5-1z"/>
		<path id="Path 415" class="s47" d="m420 488l2-3h9l3 7h6v5l-4 4-3-1-2-7h-11z"/>
		<path id="Path 416" class="s65" d="m440 487l9-2 5 2v8l-3 2h-5-6v-5z"/>
		<path id="Path 417" class="s48" d="m460 487v-2h7l5 4v6h-10z"/>
		<path id="Path 418" class="s81" d="m507 491v-6h5l2 7h6l-2 11-9-1z"/>
		<path id="Path 419" class="s42" d="m574 486l6-1 4 2 2 14 2 12 2 8 8-1 5 1-1 8 3 4-3 3h-6v6l-11-1-5 3-5-1-2-4-1-6v-6l2-6v-24z"/>
		<path id="Path 420" class="s63" d="m589 487v-2h6l1 6z"/>
		<path id="Path 421" class="s57" d="m632 489h6l5-4 4 6 8 2 1 5 1 5-3 3v10l3 6 4 1-2 6h-5l-3-1v-6l-9-3v-6l6-2v-6l-9-3h-3l-6-4z"/>
		<path id="Path 422" class="s48" d="m656 493v-8h4l2 8h-2z"/>
		<path id="Path 423" class="s63" d="m680 487l1-2 7 1-2 4z"/>
		<path id="Path 424" class="s69" d="m713 495l2-10h5l3 3v7l-2 2z"/>
		<path id="Path 425" class="s12" d="m133 489l4-3 8 2-3 7h-6l-3-2z"/>
		<path id="Path 426" class="s57" d="m178 491v-5h4l4 4v4h-6z"/>
		<path id="Path 427" class="s30" d="m274 488l8-2v7h-8z"/>
		<path id="Path 428" class="s69" d="m322 491l4-5 5 1v7l3 3v7l8 3v6l6 6v8l-3 5h-7v-1-10l-13-3-1-3v-8l-4-2z"/>
		<path id="Path 429" class="s44" d="m331 487l1-1 6 2 1 8-5 1-3-3z"/>
		<path id="Path 430" class="s57" d="m686 490l2-4h2l8 5 2 12-2 7 2 7h-6v-5l-7-3-1-4z"/>
		<path id="Path 431" class="s36" d="m740 489l5-3 4 5v7l3 1v6h-5l-4-6h-7v-4l4-2z"/>
		<path id="Path 432" class="s26" d="m888 491l2-3 11-2 10 7-2 2h-15-4z"/>
		<path id="Path 433" class="s0" d="m58 500l3-7 5-1 2-4 8-1-1 1-13 9z"/>
		<path id="Path 434" class="s52" d="m212 489l5-2 3 2v6 2h-8z"/>
		<path id="Path 435" class="s81" d="m244 491v-4h4v4z"/>
		<path id="Path 436" class="s46" d="m259 497l2-10h5v4l6 3v4l-6 2z"/>
		<path id="Path 437" class="s23" d="m272 494l-6-3v-4h4l4 1v5z"/>
		<path id="Path 438" class="s81" d="m451 497l3-2v-8h6l2 8v6l-2 4h-8z"/>
		<path id="Path 439" class="s46" d="m480 489l1-2 4 1-1 3z"/>
		<path id="Path 440" class="s45" d="m550 495v-8h5v8z"/>
		<path id="Path 441" class="s65" d="m586 501l-2-14h5l7 4v8z"/>
		<path id="Path 442" class="s36" d="m621 493l-1-6h5l2 5z"/>
		<path id="Path 443" class="s65" d="m673 493l7-6 6 3v15h-4l-2-3-4 1-3-1z"/>
		<path id="Path 444" class="s18" d="m703 491v-4h7v8l-2 8-2-2z"/>
		<path id="Path 445" class="s69" d="m730 495l1-8 9 2v4l-4 2z"/>
		<path id="Path 446" class="s22" d="m768 488l9-1 4 1 1 10-5 1-9-3z"/>
		<path id="Path 447" class="s77" d="m781 488l5-1 8 7-2 5-10-1z"/>
		<path id="Path 448" class="s36" d="m62 497l13-9v3l-4 4-3 4h-6z"/>
		<path id="Path 449" class="s10" d="m186 490l4-2 8 1 1 2-3 5-8-1-2-1z"/>
		<path id="Path 450" class="s39" d="m402 489l1-1h3v5l-2 1z"/>
		<path id="Path 451" class="s66" d="m415 491v-3h5v5l-4 2z"/>
		<path id="Path 452" class="s36" d="m484 491l1-3h8l2 5v2l-11 4z"/>
		<path id="Path 453" class="s59" d="m522 490v-2l4 2z"/>
		<path id="Path 454" class="s77" d="m825 490l5-2h4v13l1 7 7 4v4l-6 3v6l-9-2-5-14h-10l-4-10 2-4 12 2z"/>
		<path id="Path 455" class="s22" d="m206 491l6-2v8h-2l-4-2z"/>
		<path id="Path 456" class="s66" d="m220 495v-6h4v6z"/>
		<path id="Path 457" class="s71" d="m395 492l3-3h4l2 5v7h-7z"/>
		<path id="Path 458" class="s44" d="m475 495l5-6 4 2v8h-7z"/>
		<path id="Path 459" class="s79" d="m810 495l2-6 13 1-3 7z"/>
		<path id="Path 460" class="s66" d="m520 492l2-2h4l10 4v4l8 5v7h-4l-4 5-13-8-1-4h-4z"/>
		<path id="Path 461" class="s18" d="m71 495l4-4 8 6-1 5-2 1-4-2v-4z"/>
		<path id="Path 462" class="s36" d="m167 503l1-12h10l2 3h6l2 1 4 14-2 10-1 2h-5v-9l-3-3h-7l-3-6z"/>
		<path id="Path 463" class="s43" d="m196 496l3-5h7v4l4 2v4l4 2v6l-12 2-4-3z"/>
		<path id="Path 464" class="s67" d="m238 494l2-3h4 4l8 7-1 8-1 3-10-2v-7l-4-3z"/>
		<path id="Path 465" class="s59" d="m316 505l2-14h4l-2 14z"/>
		<path id="Path 466" class="s62" d="m374 495h8l3-4 10 1 2 9-6 11-2 1-8-1v-9l-8 2-3-9z"/>
		<path id="Path 467" class="s84" d="m410 493l5-2 1 4-3 2h-3z"/>
		<path id="Path 468" class="s65" d="m501 493l6-2 2 11 9 1h4l1 4-5 3v6l-3 2-6-2-5-4-2-7z"/>
		<path id="Path 469" class="s22" d="m700 503l-2-12h5l3 10z"/>
		<path id="Path 470" class="s17" d="m884 496v-4l4-1 2 4z"/>
		<path id="Path 471" class="s86" d="m127 499l6-6 3 2v13h-1l-5 1-3-3z"/>
		<path id="Path 472" class="s32" d="m232 495l6-1 2 3-1 2-7-1z"/>
		<path id="Path 473" class="s44" d="m272 494l2-1h8l5 1v2l-6 5-9-3z"/>
		<path id="Path 474" class="s43" d="m346 498l3-5 11 4 4 5 2 13h12l4 4h5l3-5 1-2 6-11h7l6 4v2l-2 10v4l-15-2-1 9 5 7h11l1 18-14-1-1-3h-11l-5-4v-5l-10-6v-13l-6-4h-10v-12l-6-4z"/>
		<path id="Path 475" class="s18" d="m360 497l1-4 9 3 3 9 8-2v9l8 1 1 1-3 5h-5l-4-4h-12l-2-13z"/>
		<path id="Path 476" class="s58" d="m404 494l2-1h4v4l-2 3 2 5-6-4z"/>
		<path id="Path 477" class="s44" d="m416 495l4-2h11l2 7 3 1v10l-3 4h-1l-4-2-1-7-5 2-5 1-4-2v-10z"/>
		<path id="Path 478" class="s71" d="m495 495v-2h6l1 12h-5z"/>
		<path id="Path 479" class="s36" d="m536 494l14 1h5l1 2v6l-2 7 4 1 6 8 1 7 2 9 2 4h4l2 4 5 1 2 15-3 7-4 1-6-6-13-2-2-7-4-15 2-4 3-8-3-6h-6l-2-9v-7l-8-5z"/>
		<path id="Path 480" class="s81" d="m656 498l-1-5h1 4v5z"/>
		<path id="Path 481" class="s38" d="m660 498v-5h2l4 1 2 15h-5l-2-6z"/>
		<path id="Path 482" class="s36" d="m666 494l7-1v9l3 1v5l-6 2-2-1z"/>
		<path id="Path 483" class="s73" d="m909 495l2-2h1l-5 5z"/>
		<path id="Path 484" class="s25" d="m83 497l7-3 6 5-2 6-5 1-7-4z"/>
		<path id="Path 485" class="s36" d="m120 495l3-1 4 5v7l3 3-4 2h-7l-5 5 4-10 4-2-2-6z"/>
		<path id="Path 486" class="s38" d="m297 497l5-3 4 2v11 6 1l-10 3v-6-12z"/>
		<path id="Path 487" class="s45" d="m600 499l2-5h8l1 5-5 2h-5z"/>
		<path id="Path 488" class="s15" d="m755 499l1-5 9 2-1 5h-7z"/>
		<path id="Path 489" class="s19" d="m792 499l2-5h2l2 5v2h-6z"/>
		<path id="Path 490" class="s35" d="m864 495l4-1v5h-3z"/>
		<path id="Path 491" class="s19" d="m868 499v-5h5l1 4-2 1z"/>
		<path id="Path 492" class="s57" d="m68 499l3-4 5 2v4l-2 2h-4z"/>
		<path id="Path 493" class="s52" d="m136 508v-13h6l2 8-1 5z"/>
		<path id="Path 494" class="s23" d="m192 509l-4-14 8 1 2 12v1z"/>
		<path id="Path 495" class="s57" d="m220 497v-2h4 8v3l-5 5h-7z"/>
		<path id="Path 496" class="s65" d="m290 496l1-1 6 2-1 2z"/>
		<path id="Path 497" class="s65" d="m462 501v-6h10l2 1v3l-2 3z"/>
		<path id="Path 498" class="s23" d="m474 496l1-1 2 4h-3z"/>
		<path id="Path 499" class="s37" d="m484 499l11-4 2 10-1 1-6 6-7-3-7 2-4-9 2-3h3z"/>
		<path id="Path 500" class="s52" d="m708 503l2-8h3l8 2 1 4-2 8 7 2-1 8-4 3z"/>
		<path id="Path 501" class="s57" d="m721 497l2-2 5 1-1 5h-5z"/>
		<path id="Path 502" class="s18" d="m728 496l2-1h6v4l1 11v6h-5l-3-5 1-6-3-4z"/>
		<path id="Path 503" class="s75" d="m851 496l13-1 1 4h3 4l1 5-1 5v8h-6l-7-2v-3l-4-1-1-4-3-10z"/>
		<path id="Path 504" class="s16" d="m884 496l6-1h4v4l-4 3v5h-4l-5-7z"/>
		<path id="Path 505" class="s1" d="m894 499v-4h15l-2 3-2 1z"/>
		<path id="Path 506" class="s42" d="m281 501l6-5h3l6 3v12h-13l1 10v2h-10l-6-7v-7z"/>
		<path id="Path 507" class="s40" d="m334 497l5-1 1 3 6-1v3l-4 6-8-3z"/>
		<path id="Path 508" class="s57" d="m764 501l1-5h3l9 3 2 16-1 4h-7l-9-7z"/>
		<path id="Path 509" class="s35" d="m844 503l1-7 6 1 3 10-3 1h-4z"/>
		<path id="Path 510" class="s60" d="m58 500l4-3v2 10h-8z"/>
		<path id="Path 511" class="s18" d="m214 503l-4-2v-4h2 8v6z"/>
		<path id="Path 512" class="s18" d="m239 499l1-2 4 3v7l-2 1h-3z"/>
		<path id="Path 513" class="s33" d="m256 498l3-1 7 3 1 6-6 2h-3l-1-1-2-1z"/>
		<path id="Path 514" class="s78" d="m257 507h1v1h-1z"/>
		<path id="Path 515" class="s37" d="m410 505l-2-5 2-3h3v10h-3z"/>
		<path id="Path 516" class="s42" d="m436 501l4-4h6l-5 14h-5z"/>
		<path id="Path 517" class="s84" d="m441 511l5-14h5l1 8-3 9z"/>
		<path id="Path 518" class="s38" d="m556 503v-6h8l2 1 2 21h-4l-6-8 1-7z"/>
		<path id="Path 519" class="s71" d="m566 498l8-1v24h-5l-1-2z"/>
		<path id="Path 520" class="s81" d="m96 499l1-1 3 1-1 10h-3l-2-4z"/>
		<path id="Path 521" class="s67" d="m117 502l3-4 2 6-4 2z"/>
		<path id="Path 522" class="s30" d="m227 503l5-5 7 1v9l-4 3z"/>
		<path id="Path 523" class="s47" d="m266 500l6-2 9 3-13 8-1-3z"/>
		<path id="Path 524" class="s86" d="m620 499l10-1 6 4 1 5v4l5 2v6l-3 9h-7v-4l-4-2v-7l-6-3-2-11z"/>
		<path id="Path 525" class="s69" d="m657 503l-1-5h4l1 5z"/>
		<path id="Path 526" class="s86" d="m777 499l5-1 10 1v2 10 6l-2 1-3-3h-8z"/>
		<path id="Path 527" class="s27" d="m872 499l2-1 2 2-3 4z"/>
		<path id="Path 528" class="s13" d="m905 499l2-1v4z"/>
		<path id="Path 529" class="s47" d="m62 509v-10h6l2 4h4l1 9h-2l-5 3h-1z"/>
		<path id="Path 530" class="s65" d="m99 509l1-10 17 3 1 4-4 10-2 4-8 2-3-1z"/>
		<path id="Path 531" class="s66" d="m586 501l10-2h4l1 2-3 5-1 6-9 1z"/>
		<path id="Path 532" class="s18" d="m606 501l5-2 2 2 1 11h-5l-3-6z"/>
		<path id="Path 533" class="s22" d="m737 510l-1-11h7l4 6-3 5z"/>
		<path id="Path 534" class="s30" d="m752 505v-6h3l2 2v4z"/>
		<path id="Path 535" class="s15" d="m798 501v-2h10l4 10v2h-16z"/>
		<path id="Path 536" class="s11" d="m890 507v-5l4-3h11l2 3v3l4 7v4h-3l-12-1v-6z"/>
		<path id="Path 537" class="s3" d="m53 509l1-7 4-2-4 9z"/>
		<path id="Path 538" class="s7" d="m873 504l3-4h5l5 7v2h-8-6z"/>
		<path id="Path 539" class="s65" d="m74 503l2-2 4 2v8l-5 1z"/>
		<path id="Path 540" class="s41" d="m148 503l10-2 2 2v8l-7 2-5-3z"/>
		<path id="Path 541" class="s58" d="m342 507l4-6 6 4v12l-4 2-6-6z"/>
		<path id="Path 542" class="s42" d="m460 505l2-4 10 1 4 9v7l8 4v8l-5 1-3 6-6 1-3-4-3-6-7-12 3-2z"/>
		<path id="Path 543" class="s71" d="m598 506l3-5h5v5z"/>
		<path id="Path 544" class="s46" d="m614 512l-1-11h7l2 11h-1z"/>
		<path id="Path 545" class="s65" d="m700 503l6-2 2 2 14 19-1 3h-6l-5-6-4 2-6-4-2-7z"/>
		<path id="Path 546" class="s45" d="m727 511l-7-2 2-8h5l3 4-1 6z"/>
		<path id="Path 547" class="s35" d="m757 505v-4h7l-2 11h-4z"/>
		<path id="Path 548" class="s51" d="m792 511v-10h6l-2 10z"/>
		<path id="Path 549" class="s80" d="m842 516v-4l-7-4-1-7 10 2 3 5h4l1 3-2 3-2 2z"/>
		<path id="Path 550" class="s30" d="m80 503l2-1 7 4v4l-5 3-11 2v-3h2l5-1z"/>
		<path id="Path 551" class="s65" d="m637 507l-1-5h3z"/>
		<path id="Path 552" class="s69" d="m637 507l2-5 9 3v6l-6 2-5-2z"/>
		<path id="Path 553" class="s44" d="m676 503l4-1 2 3v7h-2l-4-4z"/>
		<path id="Path 554" class="s46" d="m143 508l1-5h4v7h-3z"/>
		<path id="Path 555" class="s25" d="m160 511v-8h6v8z"/>
		<path id="Path 556" class="s39" d="m166 511v-8h1 4l3 6-3 12h-4l-1-3z"/>
		<path id="Path 557" class="s20" d="m214 509v-6h6 7l8 8-2 4-6 2-9-2z"/>
		<path id="Path 558" class="s66" d="m558 511l-4-1 2-7 3 1z"/>
		<path id="Path 559" class="s23" d="m661 523l-4-1-3-6v-10l3-3h4l2 6 2 7-1 7z"/>
		<path id="Path 560" class="s78" d="m89 506l5-1 2 4-2 7-10-3 5-3z"/>
		<path id="Path 561" class="s36" d="m311 506l5-1h4l4 2v8l-12-2z"/>
		<path id="Path 562" class="s66" d="m449 514l3-9h8v9l-3 2-4 1z"/>
		<path id="Path 563" class="s39" d="m496 506l1-1h5l2 7 5 4-1 6 4 3v6l-2 2-6-1-2-7z"/>
		<path id="Path 564" class="s35" d="m682 512v-7h4l1 4-2 3z"/>
		<path id="Path 565" class="s23" d="m744 510l3-5h5 5l1 7v7l-7 3z"/>
		<path id="Path 566" class="s84" d="m254 509l1-3 2 1v1 8l-2-1z"/>
		<path id="Path 567" class="s60" d="m261 508l6-2 1 3v7h-3z"/>
		<path id="Path 568" class="s40" d="m306 507l5-1 1 7h-6z"/>
		<path id="Path 569" class="s69" d="m422 508l5-2 1 7h-5z"/>
		<path id="Path 570" class="s83" d="m490 512l6-6 6 19-12-4z"/>
		<path id="Path 571" class="s37" d="m597 512l1-6h8l3 6-3 9h-3l-5-1z"/>
		<path id="Path 572" class="s62" d="m242 508l2-1 10 2 1 6-8 2-5-2z"/>
		<path id="Path 573" class="s36" d="m408 517l2-10h3l4 2v4l-3 4z"/>
		<path id="Path 574" class="s81" d="m518 516v-6l5-3 13 8-2 10h-6l-2-4h-6z"/>
		<path id="Path 575" class="s79" d="m851 508l3-1 1 4h-3z"/>
		<path id="Path 576" class="s21" d="m886 509v-2h4l6 2v6 4h-6v-6z"/>
		<path id="Path 577" class="s6" d="m130 509l5-1v7h-1-8v-4z"/>
		<path id="Path 578" class="s37" d="m135 515v-7h1 7l2 2-2 5h-4z"/>
		<path id="Path 579" class="s37" d="m198 509v-1l4 3h-4z"/>
		<path id="Path 580" class="s52" d="m235 511l4-3h3v7l-4 1-5-1z"/>
		<path id="Path 581" class="s89" d="m257 516v-8h1 3l4 8-7 3z"/>
		<path id="Path 582" class="s86" d="m417 509l5-1 1 5-1 1-5-1z"/>
		<path id="Path 583" class="s25" d="m670 510l6-2 4 4v7h-3l-9 2v-5z"/>
		<path id="Path 584" class="s56" d="m53 510v-1h1 8l5 6-2 1-9 7 6 7-1 3h-5l-8-6v-4l2-4z"/>
		<path id="Path 585" class="s38" d="m94 516l2-7h3l2 12h-2l-5-4z"/>
		<path id="Path 586" class="s56" d="m171 521l3-12h7l3 3v9l-4 4h-6z"/>
		<path id="Path 587" class="s17" d="m190 519l2-10h6v2l-2 8z"/>
		<path id="Path 588" class="s46" d="m202 511l12-2 4 6v8l-3 2-7-4-10 1-2-3 2-8z"/>
		<path id="Path 589" class="s81" d="m476 511l7-2 7 3v9l-6 1-8-4z"/>
		<path id="Path 590" class="s35" d="m665 516l-2-7h5l2 1-2 6z"/>
		<path id="Path 591" class="s15" d="m685 512l2-3 7 3v5l-3 7-9-5z"/>
		<path id="Path 592" class="s19" d="m812 511v-2h10l5 14h-9-5z"/>
		<path id="Path 593" class="s79" d="m872 517v-8h6v9l6 5-1 7-2 3z"/>
		<path id="Path 594" class="s8" d="m884 523l-6-5v-9h8l4 4v6 4z"/>
		<path id="Path 595" class="s24" d="m48 518l5-8-3 9h-2z"/>
		<path id="Path 596" class="s17" d="m143 515l2-5h3l5 3 7-2h6v7l-14 4-4-6z"/>
		<path id="Path 597" class="s23" d="m536 515l4-5h4l2 9-5 14h-2l-5-8z"/>
		<path id="Path 598" class="s30" d="m737 516v-6h7l7 12-5 5-9-6z"/>
		<path id="Path 599" class="s27" d="m114 516l5-5h7v4l-9 5h-5z"/>
		<path id="Path 600" class="s66" d="m284 521l-1-10h13v6l-1 3z"/>
		<path id="Path 601" class="s83" d="m433 515l3-4h5l8 3 4 3-1 13-6 7h-4l-6-8v-4l2-8z"/>
		<path id="Path 602" class="s38" d="m726 519l1-8h2l3 5-2 3z"/>
		<path id="Path 603" class="s30" d="m792 517v-6h4v6z"/>
		<path id="Path 604" class="s23" d="m796 517v-6h16l1 12-1 6h-4-12z"/>
		<path id="Path 605" class="s35" d="m850 514l2-3h3l4 1v3l-4 1z"/>
		<path id="Path 606" class="s27" d="m68 515l5-3v3z"/>
		<path id="Path 607" class="s56" d="m389 513l2-1-1 2z"/>
		<path id="Path 608" class="s18" d="m588 513l9-1 1 8-8 1z"/>
		<path id="Path 609" class="s23" d="m606 521l3-9h5 7l1 11-2 4-7-2z"/>
		<path id="Path 610" class="s71" d="m622 523l-1-11h1l6 3v7l-4 1z"/>
		<path id="Path 611" class="s37" d="m680 519v-7h2 3l-3 7z"/>
		<path id="Path 612" class="s32" d="m758 519v-7h4l9 7 1 8v4l-8 1-5-3z"/>
		<path id="Path 613" class="s29" d="m911 516v-4l6 6 2 2v1h-3z"/>
		<path id="Path 614" class="s6" d="m73 515l11-2v8l-6 3v4h-5l-6-5-2-7 2-1h1z"/>
		<path id="Path 615" class="s1" d="m84 521v-8l10 3v1l-2 4z"/>
		<path id="Path 616" class="s23" d="m306 514v-1h6l12 2 1 3 13 3v10l-8-4-16-2-2-4h-5z"/>
		<path id="Path 617" class="s48" d="m414 517l3-4 5 1-2 18v15l3 2v3h-3l-6-3-2 4h-3l-1-18v-12h4z"/>
		<path id="Path 618" class="s42" d="m422 514l1-1h5l4 2v8l-3 6-3 5-6-2z"/>
		<path id="Path 619" class="s79" d="m296 517l10-3 1 7-3 3v9l-2 4-6-2v-8l-1-7z"/>
		<path id="Path 620" class="s30" d="m848 516l2-2 5 2-1 9-6-3z"/>
		<path id="Path 621" class="s90" d="m117 520l9-5h8v4 8l18-2 1 4-1 4-12 2-11-2-7 2h-5l-5-11z"/>
		<path id="Path 622" class="s7" d="m134 519v-4h1 4l-1 4z"/>
		<path id="Path 623" class="s1" d="m134 519h4l1-4h4l5 1 4 6v3l-18 2z"/>
		<path id="Path 624" class="s44" d="m218 523v-8l9 2-3 6z"/>
		<path id="Path 625" class="s23" d="m227 517l6-2 5 1v7l2 14v4l-2 1-10-1-1-4h-5l-2 7-4 2-2-2v-11l1-8 3-2h6z"/>
		<path id="Path 626" class="s15" d="m238 516l4-1 5 2 2 6h-11z"/>
		<path id="Path 627" class="s65" d="m247 517l8-2 2 1 1 3v4h-9z"/>
		<path id="Path 628" class="s67" d="m432 523v-8h1l5 2-2 8z"/>
		<path id="Path 629" class="s43" d="m778 519l1-4h8l3 3-2 13-6 2-4-6z"/>
		<path id="Path 630" class="s12" d="m855 516l4-1 7 2v9h-6l-1 4h9v5l-14 1v-5-6z"/>
		<path id="Path 631" class="s4" d="m896 519v-4l12 1v7l-2 8-4 3v10h-1-7v-13l5-1z"/>
		<path id="Path 632" class="s11" d="m61 533l1-3-6-7 9-7 2 7 6 5-1 7-5 6-7-1z"/>
		<path id="Path 633" class="s56" d="m258 519l7-3h3l6 7v6h-5l-3-3-4 1h-4v-4z"/>
		<path id="Path 634" class="s39" d="m453 517l4-1 7 12-1 3-11-1z"/>
		<path id="Path 635" class="s71" d="m512 525l-4-3 1-6 6 2 2 6z"/>
		<path id="Path 636" class="s66" d="m515 518l3-2 2 5-3 3z"/>
		<path id="Path 637" class="s32" d="m664 523l1-7h3v5l-1 2z"/>
		<path id="Path 638" class="s57" d="m730 519l2-3h5v5l9 6 2 6v5h-12v-4l-6-5z"/>
		<path id="Path 639" class="s79" d="m836 525v-6l6-3h6v6l6 3v6h-6l-2-7-9 2z"/>
		<path id="Path 640" class="s75" d="m908 523v-7h3l5 5-2 2z"/>
		<path id="Path 641" class="s6" d="m92 521l2-4 5 4v4h-7z"/>
		<path id="Path 642" class="s77" d="m348 519l4-2h10l6 4v13l10 6v5l5 4v6l-2 1-4-5-9-2-2-8-10 1v10l4 4v5l-7-3-8 1-3-1v-5l3-2 1-10-8-3v-6h7 6v-4l-3-1z"/>
		<path id="Path 643" class="s71" d="m408 521v-4h6l-2 6h-4z"/>
		<path id="Path 644" class="s45" d="m682 519l9 5 3-7h6l6 4v6l-9 6v4l-1 1h-6l-8-3-6-5-1-5 2-6h3z"/>
		<path id="Path 645" class="s12" d="m790 518l2-1h4v12l-2 13-5 9h-8-1l2-18 6-2z"/>
		<path id="Path 646" class="s10" d="m866 526v-9h6l9 16-1 5-4 1-8-1v-3-5z"/>
		<path id="Path 647" class="s6" d="m152 522l14-4 1 3-7 3v5h-7l-1-4z"/>
		<path id="Path 648" class="s2" d="m48 523v-4h2z"/>
		<path id="Path 649" class="s37" d="m189 521l1-2h6l2 3-6 6z"/>
		<path id="Path 650" class="s36" d="m408 535h-11l-5-7 1-9 15 2v2z"/>
		<path id="Path 651" class="s71" d="m541 533l5-14h6l3 6-5 2 2 6-2 4h-4z"/>
		<path id="Path 652" class="s81" d="m565 526l-1-7h4l1 2v5z"/>
		<path id="Path 653" class="s67" d="m639 528l3-9 9 3v6l-3 2z"/>
		<path id="Path 654" class="s71" d="m668 521l9-2-2 6h-7l-1-2z"/>
		<path id="Path 655" class="s22" d="m706 521l4-2 5 6-1 6-4 3v5h-9l-4-2v-4l9-6z"/>
		<path id="Path 656" class="s83" d="m722 522l4-3h4v10l-6 3-2-1-1-6z"/>
		<path id="Path 657" class="s69" d="m751 522l7-3 1 10-3 4h-8l-2-6z"/>
		<path id="Path 658" class="s58" d="m772 527l-1-8h7v8z"/>
		<path id="Path 659" class="s5" d="m890 523v-4h6l3 11-5 1-2-2z"/>
		<path id="Path 660" class="s55" d="m104 522l8-2v4l5 11v4l-1 3-1-7-4-5h-4l-3-3z"/>
		<path id="Path 661" class="s17" d="m112 524v-4h5z"/>
		<path id="Path 662" class="s19" d="m284 521l11-1 1 7h-12v-4z"/>
		<path id="Path 663" class="s64" d="m919 521v-1h21v1h-4-6-8z"/>
		<path id="Path 664" class="s24" d="m940 521v-1l4 2z"/>
		<path id="Path 665" class="s28" d="m78 528v-4l6-3h8v4l-1 6-7 2h-5z"/>
		<path id="Path 666" class="s41" d="m99 525v-4h2l3 1v5l-4 1z"/>
		<path id="Path 667" class="s90" d="m160 529v-5l7-3h4l3 4 4 9 1 13-3 4h-6l-2-4v-6l-4-2v-7z"/>
		<path id="Path 668" class="s46" d="m180 525l4-4h5l3 7-4 5-6-1z"/>
		<path id="Path 669" class="s4" d="m198 522l10-1 7 4-1 8h-11l-2 3-11 7-2-10 4-5z"/>
		<path id="Path 670" class="s91" d="m304 533v-9l3-3h5l2 4v4h-5l-1 4z"/>
		<path id="Path 671" class="s47" d="m484 522l6-1 12 4 2 7 2 13h-1l-7 1 2 9h-6l-2-6 4-16h-10l-2-3z"/>
		<path id="Path 672" class="s46" d="m517 524l3-3h6l2 4v7l-8 1-8-2v-6z"/>
		<path id="Path 673" class="s59" d="m569 526v-5h5l-2 6z"/>
		<path id="Path 674" class="s59" d="m605 533l-3-4 1-8h3l7 4-2 7z"/>
		<path id="Path 675" class="s20" d="m914 523l2-2h3 3l-2 11-6-1z"/>
		<path id="Path 676" class="s15" d="m920 532l2-11h8l2 11-6 4z"/>
		<path id="Path 677" class="s37" d="m926 536l6-4-2-11h6l1 17h-1l-7 1z"/>
		<path id="Path 678" class="s4" d="m937 538l-1-17h4l4 1 1 2 1 8-3 4-4 2z"/>
		<path id="Path 679" class="s48" d="m624 523l4-1 4 2v4l-2 3h-6z"/>
		<path id="Path 680" class="s24" d="m945 524l-1-2 3 1v1z"/>
		<path id="Path 681" class="s25" d="m240 537l-2-14h11l6 6 1 6v2h-11z"/>
		<path id="Path 682" class="s43" d="m255 529l-6-6h9v4z"/>
		<path id="Path 683" class="s43" d="m274 529v-6h10v4l-9 2z"/>
		<path id="Path 684" class="s38" d="m429 529l3-6 4 2v4z"/>
		<path id="Path 685" class="s67" d="m620 527l2-4h2v8h-4z"/>
		<path id="Path 686" class="s45" d="m659 529l2-6h3 3l1 2-2 6-5 1z"/>
		<path id="Path 687" class="s30" d="m812 529l1-6h5v6z"/>
		<path id="Path 688" class="s10" d="m818 529v-6h9l9 2 1 1-1 5v10l-6 4h-7l-3-2z"/>
		<path id="Path 689" class="s9" d="m883 530l1-7h6l2 6z"/>
		<path id="Path 690" class="s8" d="m906 531l2-8h6v8z"/>
		<path id="Path 691" class="s91" d="m837 526l9-2 2 7h-3-9z"/>
		<path id="Path 692" class="s34" d="m946 532l-1-8h2v8z"/>
		<path id="Path 693" class="s9" d="m91 531l1-6h7l1 3v7l-6 1z"/>
		<path id="Path 694" class="s5" d="m178 534l-4-9h6l2 7z"/>
		<path id="Path 695" class="s88" d="m314 529v-4l16 2v11h-4l-1 9h-6l-2-2 1-14z"/>
		<path id="Path 696" class="s39" d="m528 532v-7h6l5 8-2 5-4 1z"/>
		<path id="Path 697" class="s45" d="m552 533l-2-6 5-2z"/>
		<path id="Path 698" class="s57" d="m611 532l2-7 7 2v4l-2 3h-4z"/>
		<path id="Path 699" class="s66" d="m661 532l5-1 2-6h7l1 5 6 5-6 9h-6l-2-5h-8v-1z"/>
		<path id="Path 700" class="s46" d="m714 531l1-6h6l1 6z"/>
		<path id="Path 701" class="s92" d="m262 527l4-1 3 3v5l4 1 1 4h6l3 14v3l-2 2-9-2v-5l-4-1-2-6-4-9z"/>
		<path id="Path 702" class="s62" d="m567 535l-2-9h4l3 1v6z"/>
		<path id="Path 703" class="s9" d="m868 530h-9l1-4h6z"/>
		<path id="Path 704" class="s31" d="m48 529v-2l8 6h5l-1 7h-4l-2-1z"/>
		<path id="Path 705" class="s15" d="m100 528l4-1 3 3-4 3v5l-3-3z"/>
		<path id="Path 706" class="s79" d="m255 529l3-2h4v8h-6z"/>
		<path id="Path 707" class="s88" d="m275 529l9-2h12v8l-3 1-7-1-1 3-5 1h-6l-1-4z"/>
		<path id="Path 708" class="s93" d="m330 538v-11l8 4v1 6l8 3-1 10-3 2h-9l-3-7z"/>
		<path id="Path 709" class="s79" d="m345 532l3-5 3 1v4z"/>
		<path id="Path 710" class="s44" d="m772 531v-4h6l4 6-2 18h-8l-2-10z"/>
		<path id="Path 711" class="s25" d="m72 535l1-7h5l1 5-3 3z"/>
		<path id="Path 712" class="s56" d="m463 531l1-3 3 6h-3z"/>
		<path id="Path 713" class="s36" d="m630 531l2-3h7l9 2v3l5 13h3l4-7h8l2 5-4 5v8l-2 2h-5l-8-6h-7-2l-3-14-4-4h-5z"/>
		<path id="Path 714" class="s58" d="m648 530l3-2 3 1v4h-6z"/>
		<path id="Path 715" class="s34" d="m48 533v-4l6 10h-1z"/>
		<path id="Path 716" class="s28" d="m140 535l12-2 1-4h7l4 3v7h-8-7l-1 6v8l-5 1-1 7h-4l-10-7-2-4 3-7h9z"/>
		<path id="Path 717" class="s79" d="m273 535l-4-1v-5h5 1z"/>
		<path id="Path 718" class="s94" d="m308 533l1-4h5l4 2-1 14h-1l-8-4z"/>
		<path id="Path 719" class="s36" d="m426 534l3-5h7l6 8h4l6-7 11 1 1 3-3 6-5-1v12h-6v6l-1 6-6 2 1 10-4-2-4-16 2-7-3-3h-9z"/>
		<path id="Path 720" class="s71" d="m654 533v-4h5l2 3-1 6z"/>
		<path id="Path 721" class="s62" d="m724 532l6-3 6 5v4l-3 2-5 1z"/>
		<path id="Path 722" class="s36" d="m756 533l3-4 5 3 1 9-3 2-5-4z"/>
		<path id="Path 723" class="s52" d="m789 551l5-9 2-13h12l2 11-2 2h-5l-1 6-5 3z"/>
		<path id="Path 724" class="s32" d="m808 542l2-2-2-11h4 6l2 14h-4v6h-8z"/>
		<path id="Path 725" class="s8" d="m883 530l9-1 2 2v13l-1 1h-5-7l-1-7 1-5z"/>
		<path id="Path 726" class="s42" d="m103 538v-5l4-3h4l4 5 1 7 8 8-2 6-6 2-6-2z"/>
		<path id="Path 727" class="s36" d="m470 538l6-1 3-6 5-1 2 3v14l6 2 2 6-3 6h-11l-8-4-8-4v-10h4z"/>
		<path id="Path 728" class="s6" d="m84 533l7-2 3 5-1 5h-9z"/>
		<path id="Path 729" class="s44" d="m510 533l2-2 8 2v8h-8z"/>
		<path id="Path 730" class="s65" d="m520 533l8-1 5 7 3 9-2 6-3-7h-7l-4-6z"/>
		<path id="Path 731" class="s83" d="m618 534l2-3h4 6v4l-9 2z"/>
		<path id="Path 732" class="s36" d="m710 539v-5l4-3h8l2 1 4 9-3 4-6-2-3 4h-6z"/>
		<path id="Path 733" class="s67" d="m764 532l8-1-2 10h-5z"/>
		<path id="Path 734" class="s20" d="m836 541v-10h9v4l-2 6z"/>
		<path id="Path 735" class="s35" d="m845 535v-4h3 6v5l-6 1z"/>
		<path id="Path 736" class="s26" d="m902 544v-10l4-3h8l6 1 6 4 3 3v1l-9 2-13 1z"/>
		<path id="Path 737" class="s41" d="m178 534l4-2 6 1 2 10-3 6h-1l-7-2z"/>
		<path id="Path 738" class="s57" d="m423 549l-3-2v-15l6 2v13z"/>
		<path id="Path 739" class="s62" d="m486 533h10l-4 16-6-2z"/>
		<path id="Path 740" class="s67" d="m506 545l-2-13 6 1 2 8-1 4z"/>
		<path id="Path 741" class="s86" d="m605 533l6-1 3 2v9h-12v-7z"/>
		<path id="Path 742" class="s0" d="m943 536l3-4h1v1l-3 3z"/>
		<path id="Path 743" class="s7" d="m76 536l3-3h5v8l-2 1h-3z"/>
		<path id="Path 744" class="s1" d="m122 535l7-2 11 2-2 8h-9l-7-4z"/>
		<path id="Path 745" class="s6" d="m201 536l2-3h11v11z"/>
		<path id="Path 746" class="s93" d="m302 537l2-4h4v8l8 4v5 6l-12-1-3-6z"/>
		<path id="Path 747" class="s45" d="m537 538l2-5h2l5 4-8 2z"/>
		<path id="Path 748" class="s81" d="m567 535l5-2 1 6h-4z"/>
		<path id="Path 749" class="s62" d="m660 539l-4 7h-3l-5-13h6l6 5z"/>
		<path id="Path 750" class="s62" d="m748 538v-5h8l1 6 5 4 2 8-5 2h-3-1l-1-6-6-3z"/>
		<path id="Path 751" class="s38" d="m461 540l3-6h3l3 4-2 5h-4z"/>
		<path id="Path 752" class="s45" d="m614 543v-9h4l3 3 1 8-6 3z"/>
		<path id="Path 753" class="s28" d="m67 541l5-6 4 1 3 6h3l2 7h6l3-8 1-5 6-1 3 3 7 18-1 9-9 2h-2l-5-2-5-3v-1h3l-3-6-17-7z"/>
		<path id="Path 754" class="s28" d="m117 539v-4h5v4z"/>
		<path id="Path 755" class="s88" d="m256 537v-2h6l4 9-6 3-4-4z"/>
		<path id="Path 756" class="s94" d="m285 538l1-3 7 1v5h-2z"/>
		<path id="Path 757" class="s77" d="m293 536l3-1 6 2-1 12-4 2-3-4-1-6z"/>
		<path id="Path 758" class="s62" d="m596 542v-6h6v7z"/>
		<path id="Path 759" class="s40" d="m621 537l9-2h5l4 4 3 14h-11l-3-8h-6z"/>
		<path id="Path 760" class="s43" d="m670 544h6l6-9 8 3 2 18h-4l-12 1h-10v-8z"/>
		<path id="Path 761" class="s15" d="m843 541l2-6 3 2-3 6z"/>
		<path id="Path 762" class="s8" d="m854 536l14-1v3l-1 5 3 4-9 1-12 1h-8-11v-4l6-4h7l2 2 7 2z"/>
		<path id="Path 763" class="s1" d="m190 543l11-7 13 8 2 2 2 4v1h-14l-6 3-11-5z"/>
		<path id="Path 764" class="s32" d="m848 537l6-1-2 9-7-2z"/>
		<path id="Path 765" class="s24" d="m939 538l4-2h1z"/>
		<path id="Path 766" class="s35" d="m220 544l2-7h5l1 4-6 5z"/>
		<path id="Path 767" class="s4" d="m240 541v-4h5l-1 4z"/>
		<path id="Path 768" class="s80" d="m240 541h4l1-4h11v6h-9l-1 8v8l-8 3v5l-12-1v-7-4l12-8v-5z"/>
		<path id="Path 769" class="s35" d="m325 547l1-9h4v8l-2 1z"/>
		<path id="Path 770" class="s62" d="m538 539l8-2h4l4 15-5 1-2-4-9-3z"/>
		<path id="Path 771" class="s36" d="m696 538l1-1 4 2v2h-4z"/>
		<path id="Path 772" class="s93" d="m280 539l5-1 6 3v6l-3 6h-5z"/>
		<path id="Path 773" class="s86" d="m533 539l4-1 1 1v7l9 3 2 4v2l-7 2h-8v-3l2-6z"/>
		<path id="Path 774" class="s57" d="m692 556l-2-18h6l1 3h4l2 6 7 2 2 4h4l5 2v3h-4l-22 3h-1z"/>
		<path id="Path 775" class="s43" d="m733 540l3-2h12v6l-4 3h-10z"/>
		<path id="Path 776" class="s32" d="m870 547l-3-4 1-5 8 1-3 8z"/>
		<path id="Path 777" class="s27" d="m876 539l4-1 1 7-6 2h-2z"/>
		<path id="Path 778" class="s70" d="m929 539l7-1-7 2z"/>
		<path id="Path 779" class="s73" d="m58 543l-5-4h1l2 1z"/>
		<path id="Path 780" class="s6" d="m116 542l1-3h5l7 4-3 7h-2z"/>
		<path id="Path 781" class="s21" d="m148 545l1-6h7v4z"/>
		<path id="Path 782" class="s9" d="m156 543v-4h8l4 2v6h-8z"/>
		<path id="Path 783" class="s67" d="m456 551v-12l5 1 3 3v10h-2z"/>
		<path id="Path 784" class="s43" d="m701 541v-2h9v8 2l-7-2z"/>
		<path id="Path 785" class="s26" d="m58 543l-2-3h4l7 1 4 7-1 2-6-2-1-1z"/>
		<path id="Path 786" class="s40" d="m728 541l5-1 1 7-2 2h-4l-3-4z"/>
		<path id="Path 787" class="s24" d="m920 542l9-2-9 3z"/>
		<path id="Path 788" class="s90" d="m82 542l2-1h9l-3 8h-6z"/>
		<path id="Path 789" class="s79" d="m222 546l6-5 10 1v5l-12 8-4-5z"/>
		<path id="Path 790" class="s92" d="m291 547v-6h2l1 6z"/>
		<path id="Path 791" class="s85" d="m360 561v-5l-4-4v-10l10-1 2 8-2 12h-4z"/>
		<path id="Path 792" class="s36" d="m511 545l1-4h8l4 6h7l3 7v3 2l-12 2-4-1v-10z"/>
		<path id="Path 793" class="s15" d="m580 544l5-3 11 1 6 1h12l2 5v11h-13l-4 4h-5l-2-4h-10z"/>
		<path id="Path 794" class="s63" d="m762 543l3-2h5l2 10h-1-7z"/>
		<path id="Path 795" class="s44" d="m797 551l5-3 1-6h5v7l-4 2h-3z"/>
		<path id="Path 796" class="s34" d="m907 543l13-1v1z"/>
		<path id="Path 797" class="s7" d="m148 545l8-2 4 4v9l-8 1-4-4z"/>
		<path id="Path 798" class="s91" d="m246 551l1-8h9l4 4v4h-2z"/>
		<path id="Path 799" class="s62" d="m716 547l3-4 6 2 3 4-1 5-6 1-5-2z"/>
		<path id="Path 800" class="s22" d="m816 549v-6h4l3 2-1 4z"/>
		<path id="Path 801" class="s34" d="m902 544l5-1-6 2v-1z"/>
		<path id="Path 802" class="s10" d="m216 546l4-2 2 2v4h-4z"/>
		<path id="Path 803" class="s12" d="m260 547l6-3 2 6-2 1h-6z"/>
		<path id="Path 804" class="s62" d="m500 555l-2-9 7-1v10z"/>
		<path id="Path 805" class="s58" d="m744 547l4-3 6 3 1 6-5 1h-6z"/>
		<path id="Path 806" class="s74" d="m893 545l1-1h7v1h-7z"/>
		<path id="Path 807" class="s10" d="m316 550v-5h1l2 2-1 3z"/>
		<path id="Path 808" class="s52" d="m505 555v-10h1 5l7 5v10h-6v-5z"/>
		<path id="Path 809" class="s36" d="m616 548l6-3h6l3 8-1 10-6 2h-4l-4-6z"/>
		<path id="Path 810" class="s25" d="m822 549l1-4h7v4h-5l-1 1h-2z"/>
		<path id="Path 811" class="s70" d="m824 549h1v1h-1z"/>
		<path id="Path 812" class="s13" d="m875 547l6-2h7v2l-13 1z"/>
		<path id="Path 813" class="s0" d="m888 547v-2h5 1z"/>
		<path id="Path 814" class="s85" d="m328 547l2-1 3 7h9v5l3 1v4h-9l-1-3h-6l-1-7z"/>
		<path id="Path 815" class="s21" d="m160 556v-9h8l2 4h6l3-4 7 2v6l5 6h-1l-7-1-4 4-3 3h-10l-2-2v-8z"/>
		<path id="Path 816" class="s10" d="m288 553l3-6h3l3 4-3 8-4-1z"/>
		<path id="Path 817" class="s51" d="m318 550l1-3h6 3v6z"/>
		<path id="Path 818" class="s43" d="m423 549l3-2h9l3 3-2 7h-10l-3-5z"/>
		<path id="Path 819" class="s40" d="m710 549v-2h6v6h-4z"/>
		<path id="Path 820" class="s57" d="m732 549l2-2h10v7l-12 2z"/>
		<path id="Path 821" class="s14" d="m861 548l9-1h3 2v1z"/>
		<path id="Path 822" class="s2" d="m74 555l-8-3-2-4 6 2 5 5z"/>
		<path id="Path 823" class="s21" d="m70 550l1-2 17 7 3 6h-3l-5-1-4-2-4-3z"/>
		<path id="Path 824" class="s24" d="m849 549l12-1-12 2z"/>
		<path id="Path 825" class="s28" d="m191 561l-5-6v-6h1l11 5v11l-6-1z"/>
		<path id="Path 826" class="s91" d="m297 551l4-2 3 6v6h-10v-2z"/>
		<path id="Path 827" class="s88" d="m366 561l2-12 9 2 4 5-2 7h7 4v10l-12 2-1-5-5-1-1-5z"/>
		<path id="Path 828" class="s18" d="m383 555v-6h11l1 3-1 9-4 2h-4v-6z"/>
		<path id="Path 829" class="s15" d="m412 553l2-4 6 3-1 4z"/>
		<path id="Path 830" class="s52" d="m727 554l1-5h4v7h-2z"/>
		<path id="Path 831" class="s54" d="m804 551l4-2h8 6v1 1z"/>
		<path id="Path 832" class="s64" d="m825 550v-1h5 11v1z"/>
		<path id="Path 833" class="s70" d="m841 550v-1h8v1z"/>
		<path id="Path 834" class="s15" d="m122 556l2-6h2l2 4-2 2z"/>
		<path id="Path 835" class="s27" d="m218 551v-1h4l4 5v4h-5z"/>
		<path id="Path 836" class="s75" d="m266 551l2-1 4 1v5l-4 2z"/>
		<path id="Path 837" class="s18" d="m316 556v-6h2l10 3 1 7-3 1-8-1-2-3z"/>
		<path id="Path 838" class="s90" d="m198 554l6-3h14l3 8-2 7h-18l-3-1z"/>
		<path id="Path 839" class="s94" d="m246 559v-8h12l-1 8z"/>
		<path id="Path 840" class="s23" d="m257 559l1-8h2 6l2 7v5l-9 1z"/>
		<path id="Path 841" class="s59" d="m450 557v-6h6l6 2-2 5z"/>
		<path id="Path 842" class="s72" d="m759 553l5-2h7v2z"/>
		<path id="Path 843" class="s2" d="m771 553v-2h1 8 1v1z"/>
		<path id="Path 844" class="s82" d="m781 552v-1h8 8 4v1z"/>
		<path id="Path 845" class="s64" d="m801 552v-1h3 18z"/>
		<path id="Path 846" class="s79" d="m394 561l1-9 14 1h3l7 3 1 10 4-1 2-8h10l4 16h-5l-1 4h-4l-2-7-10-1-5-6z"/>
		<path id="Path 847" class="s69" d="m419 556l1-4h3l3 5-2 8-4 1z"/>
		<path id="Path 848" class="s18" d="m549 553l5-1 2 7h-6l-1-4z"/>
		<path id="Path 849" class="s6" d="m142 561l1-7 5-1 4 4 8-1 4 1v8h-7l-1 4h-12z"/>
		<path id="Path 850" class="s5" d="m283 556v-3h5l2 5 4 1v2 2h-4z"/>
		<path id="Path 851" class="s47" d="m460 558l2-5h2l8 4 1 8-6 4 3 22-4 7-4-2-2-2h1l4 1 1-6h-7-3v-12l-7-1 2-6 9-8z"/>
		<path id="Path 852" class="s57" d="m630 563l1-10h11 2l2 14v1l-8 2-2-1v-4z"/>
		<path id="Path 853" class="s18" d="m646 567l-2-14h7l8 6v7h-2l-7 1z"/>
		<path id="Path 854" class="s74" d="m750 554l5-1h1l-6 2z"/>
		<path id="Path 855" class="s5" d="m126 556l2-2 10 7v10h-7-1z"/>
		<path id="Path 856" class="s84" d="m721 555l6-1 3 2v1l-4 1h-5z"/>
		<path id="Path 857" class="s95" d="m732 556l12-2h6v1l-19 2h-1v-1z"/>
		<path id="Path 858" class="s73" d="m79 558l-5-3h1z"/>
		<path id="Path 859" class="s94" d="m304 561v-6l12 1v1l-1 4h-7z"/>
		<path id="Path 860" class="s51" d="m381 556l2-1 3 2v6h-7z"/>
		<path id="Path 861" class="s40" d="m491 561l3-6h6 5 7v5l2 13v5l-6 3-4-4h-8l-2-2z"/>
		<path id="Path 862" class="s40" d="m542 557l7-2 1 4v10h-6l-2-2z"/>
		<path id="Path 863" class="s7" d="m109 565l1-9 6 2 6-2h4l4 15h-4-3v-3l-4-1-2-3z"/>
		<path id="Path 864" class="s28" d="m268 558l4-2 9 2 2-2 7 7h4l3 7 7 3-1 13-4 3-8-2-5-6-2-12-15-2-1-4z"/>
		<path id="Path 865" class="s45" d="m676 557l12-1v5l-2 2h-5-5z"/>
		<path id="Path 866" class="s63" d="m688 561v-5h4l2 5h-2z"/>
		<path id="Path 867" class="s25" d="m315 561l1-4 2 3 8 1v4h-8z"/>
		<path id="Path 868" class="s62" d="m444 575l-1-10 6-2 1-6 10 1v4l-9 8-2 6z"/>
		<path id="Path 869" class="s58" d="m473 565l-1-8 8 4v6z"/>
		<path id="Path 870" class="s43" d="m534 559v-2h8v10h-5l-3-2z"/>
		<path id="Path 871" class="s65" d="m664 559l2-2h10v6h-1l-6 1h-1z"/>
		<path id="Path 872" class="s24" d="m726 558l4-1h1z"/>
		<path id="Path 873" class="s92" d="m345 559l8-1 7 3h2l-1 8h-15l-1-6z"/>
		<path id="Path 874" class="s64" d="m695 561l22-3-12 4z"/>
		<path id="Path 875" class="s8" d="m219 566l2-7h5v7l-6 1z"/>
		<path id="Path 876" class="s5" d="m238 567v-5l8-3h11l2 5-3 5z"/>
		<path id="Path 877" class="s40" d="m522 561l12-2v6l3 2-1 6-2 1-12-9z"/>
		<path id="Path 878" class="s57" d="m550 569v-10h6l13 2 6 6-3 11-5 2 1 5h-6l-1-11z"/>
		<path id="Path 879" class="s57" d="m579 566l3-7h10l2 4h5l4-4h13l4 6-5 6 5 3v5l-12 2h-7l-2 5-9 1-4-8-5-2 4-9z"/>
		<path id="Path 880" class="s40" d="m659 566v-7h5l4 5-7 2z"/>
		<path id="Path 881" class="s73" d="m88 562l-5-2 5 1z"/>
		<path id="Path 882" class="s40" d="m179 564l4-4 7 1 1 4 1 6-2 1-4-4h-6z"/>
		<path id="Path 883" class="s92" d="m326 561l3-1h6l1 3-3 8h-7v-6z"/>
		<path id="Path 884" class="s38" d="m514 573l-2-13h6l4 1v4l-2 8z"/>
		<path id="Path 885" class="s7" d="m138 571v-10h4l2 8-2 2z"/>
		<path id="Path 886" class="s25" d="m191 565l-1-4h1l1 3z"/>
		<path id="Path 887" class="s6" d="m294 563v-2h10 4l1 10 5 2v10l-9 4-1 4-5-2 4-3 1-13-7-3z"/>
		<path id="Path 888" class="s9" d="m314 583v-10l-5-2-1-10h7l3 4v6h8 7l13 2 1 6-2 4-7 2-22-2z"/>
		<path id="Path 889" class="s91" d="m361 569l1-8h4l5 3 1 5 5 1 1 5-14 11v13h-2l-8-4v-6l-9-6 2-4h9l5-5z"/>
		<path id="Path 890" class="s92" d="m390 563l4-2 19 2 5 6-2 4-10 5v7l-14-2-2-10z"/>
		<path id="Path 891" class="s57" d="m480 567v-6h11l3 14h-5z"/>
		<path id="Path 892" class="s2" d="m686 563l2-2h4z"/>
		<path id="Path 893" class="s11" d="m259 564l9-1 1 4-1 9h-2l-10-7z"/>
		<path id="Path 894" class="s91" d="m333 571l3-8h9l1 6v4z"/>
		<path id="Path 895" class="s67" d="m624 565l6-2 6 2v4l-2 1-9 1h-1z"/>
		<path id="Path 896" class="s96" d="m669 564l6-1-1 2h-5z"/>
		<path id="Path 897" class="s74" d="m674 565l1-2h1 5z"/>
		<path id="Path 898" class="s15" d="m109 565l8-1 2 3-1 4-4 2h-1l-5-3z"/>
		<path id="Path 899" class="s44" d="m176 567l3-3 1 4v1h-4z"/>
		<path id="Path 900" class="s4" d="m191 565l1-1 6 1 3 1-2 4-7 1z"/>
		<path id="Path 901" class="s97" d="m661 566l7-2h1v1l-8 2z"/>
		<path id="Path 902" class="s25" d="m100 567l9-2-1 5-7-2z"/>
		<path id="Path 903" class="s7" d="m156 569l1-4h7l2 2v4z"/>
		<path id="Path 904" class="s75" d="m326 571h-8v-6h8z"/>
		<path id="Path 905" class="s71" d="m470 591l-3-22 6-4 7 2 9 8h5l2 2v6l-6 7-12-2-4 3z"/>
		<path id="Path 906" class="s18" d="m520 573l2-8 12 9 3 2 1-3h4l2-4h6l11 5 1 11-4 6h-3l-5-4-17 1-9 2-6-2 1-10z"/>
		<path id="Path 907" class="s62" d="m620 574l-5-3 5-6h4v6z"/>
		<path id="Path 908" class="s17" d="m192 571l7-1 2-4h18l1 1v7l-5 3-15 2-10-2v-5z"/>
		<path id="Path 909" class="s27" d="m220 567l6-1 12 1 18 2 10 7v7l3 8-17-2-1-3h-5l-16-1v-7l-4-4h-6z"/>
		<path id="Path 910" class="s76" d="m575 567l4-1 6 2-4 9-5 1h-4z"/>
		<path id="Path 911" class="s97" d="m650 567l7-1v1l-7 1z"/>
		<path id="Path 912" class="s95" d="m657 567v-1h2 2v1z"/>
		<path id="Path 913" class="s14" d="m101 568l-3-1h2z"/>
		<path id="Path 914" class="s4" d="m118 571l1-4 4 1v3z"/>
		<path id="Path 915" class="s4" d="m166 571v-4h10v2 4h-8z"/>
		<path id="Path 916" class="s1" d="m268 576l1-9 15 2 2 12h-6l-10-4z"/>
		<path id="Path 917" class="s58" d="m536 573l1-6h5l2 2-2 4h-4z"/>
		<path id="Path 918" class="s95" d="m646 568v-1h4v1z"/>
		<path id="Path 919" class="s14" d="m113 573l-12-5 7 2z"/>
		<path id="Path 920" class="s37" d="m180 569v-1h6l4 4v5h-4l-6-2z"/>
		<path id="Path 921" class="s27" d="m142 571l2-2h12l10 2 2 2v5l6 5v6l-5-1-4-1-4-1-2-6-11-1z"/>
		<path id="Path 922" class="s41" d="m176 573v-4h4v6h-2z"/>
		<path id="Path 923" class="s94" d="m346 573v-4h15v5l-5 5h-9z"/>
		<path id="Path 924" class="s80" d="m406 585v-7l10-5 2-4 10 1 2 7v12l-6 2h-6l-6-1z"/>
		<path id="Path 925" class="s70" d="m625 571l9-1-3 3 5 2h-3z"/>
		<path id="Path 926" class="s33" d="m114 573l4-2h5 3v7h-1l-7-3z"/>
		<path id="Path 927" class="s25" d="m126 578v-7h4 1v9l-5-1z"/>
		<path id="Path 928" class="s23" d="m131 580v-9h7 4l6 8v4h-5-3z"/>
		<path id="Path 929" class="s56" d="m620 574l4-3h1l8 4-1 4h-12z"/>
		<path id="Path 930" class="s21" d="m174 583l-6-5v-5h8l2 2v8z"/>
		<path id="Path 931" class="s80" d="m378 575l12-2 2 10-4 1v5l-10 1-2 13-10 2-2-6v-13z"/>
		<path id="Path 932" class="s12" d="m434 577l1-4h5l4 2 5 1 7 1v12l-4 3-6 1-10 2h-2v-6z"/>
		<path id="Path 933" class="s83" d="m514 578v-5h6l-1 5z"/>
		<path id="Path 934" class="s51" d="m534 574l2-1h2l-1 3z"/>
		<path id="Path 935" class="s25" d="m215 577l5-3h6l4 4v7h-15z"/>
		<path id="Path 936" class="s17" d="m178 583v-8h2l6 2-2 8z"/>
		<path id="Path 937" class="s84" d="m632 579l1-4h3l6 2 1 1-1 4z"/>
		<path id="Path 938" class="s20" d="m266 583v-7h2l2 1v6z"/>
		<path id="Path 939" class="s41" d="m184 585l2-8h4l10 2 15-2v8l-3 3h-6l-4 5-14-1-4-1z"/>
		<path id="Path 940" class="s8" d="m270 583v-6l10 4v4h-6z"/>
		<path id="Path 941" class="s20" d="m430 589v-12h4v12z"/>
		<path id="Path 942" class="s58" d="m490 590l6-7v-6h8l4 4v5l-4 3-1 10h-3l-2 1-8-7z"/>
		<path id="Path 943" class="s36" d="m576 578l5-1 5 2 4 8-3 4h-7l-6-6z"/>
		<path id="Path 944" class="s0" d="m643 578l-1-1 9 3 1 4z"/>
		<path id="Path 945" class="s86" d="m508 581l6-3h5l-1 10h-6l-4-2z"/>
		<path id="Path 946" class="s46" d="m568 585l-1-5 5-2h4l-2 7z"/>
		<path id="Path 947" class="s60" d="m632 579l10 3 1-4 9 6v1 10h-11l-10-8-18 1-5-7 12-2z"/>
		<path id="Path 948" class="s24" d="m140 583l-14-4 5 1z"/>
		<path id="Path 949" class="s39" d="m148 583v-4l11 1 2 6h-2l-11-2z"/>
		<path id="Path 950" class="s27" d="m280 585v-4h6l5 6z"/>
		<path id="Path 951" class="s55" d="m599 586l2-5h7l5 7 18-1 10 8-1 10 4 3-4 4-13 2-8 1-2-7 2-6-5-6-12-1-3-2z"/>
		<path id="Path 952" class="s49" d="m148 585l-5-2h5v1z"/>
		<path id="Path 953" class="s37" d="m174 589v-6h4l6 2v6l-6-1z"/>
		<path id="Path 954" class="s16" d="m269 591l-3-8h4l4 2v7h-3z"/>
		<path id="Path 955" class="s75" d="m304 591l1-4 9-4h2v10z"/>
		<path id="Path 956" class="s80" d="m316 593v-10l22 2v9l-6 1-13-2z"/>
		<path id="Path 957" class="s92" d="m338 585l7-2 9 6v6h-8l-8-1z"/>
		<path id="Path 958" class="s75" d="m388 589v-5l4-1 14 2 6 5 1 6-5 2-11 1h-4v-7z"/>
		<path id="Path 959" class="s97" d="m148 585v-1l11 2v1z"/>
		<path id="Path 960" class="s37" d="m212 588l3-3h15l16 1 2 5 2 6-6-1-12-1h-6-8l-6-2z"/>
		<path id="Path 961" class="s90" d="m274 592v-7h6l11 2 8 2 5 2 12 2h3l1 10h-6l-11-2-10-3z"/>
		<path id="Path 962" class="s39" d="m558 591l4-6h6 6l6 6h7l3-4 9-1v7l3 2-1 8h-13-8l-6-7-8-2z"/>
		<path id="Path 963" class="s53" d="m652 595v-10l2 10z"/>
		<path id="Path 964" class="s0" d="m159 587v-1h2l4 1v1z"/>
		<path id="Path 965" class="s25" d="m248 591l-2-5h5l1 3v2z"/>
		<path id="Path 966" class="s46" d="m500 599h3l1-10 4-3 4 2v8l5 5-3 4h-1l-6-2z"/>
		<path id="Path 967" class="s39" d="m533 588l17-1 5 4-5 4-14-2z"/>
		<path id="Path 968" class="s95" d="m165 588v-1l4 1z"/>
		<path id="Path 969" class="s70" d="m178 590l-9-2 5 1z"/>
		<path id="Path 970" class="s46" d="m202 593l4-5h6v5h-8z"/>
		<path id="Path 971" class="s62" d="m459 589h7l-1 6-4-1z"/>
		<path id="Path 972" class="s68" d="m474 591l4-3 12 2v3h-9l-8 9z"/>
		<path id="Path 973" class="s89" d="m517 601l-5-5v-8h6l6 2v5l-2 6z"/>
		<path id="Path 974" class="s55" d="m524 590l9-2 3 5v2h-12z"/>
		<path id="Path 975" class="s32" d="m252 591v-2l17 2 2 1-7 8v4l-3-1-8-5-1-1z"/>
		<path id="Path 976" class="s12" d="m376 603l2-13 10-1 5 3v7l-9 4z"/>
		<path id="Path 977" class="s23" d="m424 591l6-2h4v6l-8 1h-2z"/>
		<path id="Path 978" class="s81" d="m452 592l4-3h3l2 5h-1l-2 1-2 1z"/>
		<path id="Path 979" class="s64" d="m188 592l-10-2 6 1z"/>
		<path id="Path 980" class="s27" d="m413 596l-1-6 6 1v4z"/>
		<path id="Path 981" class="s44" d="m250 597l-2-6h4v6z"/>
		<path id="Path 982" class="s25" d="m418 595v-4h6v5z"/>
		<path id="Path 983" class="s55" d="m466 598l4-7h4l-1 11z"/>
		<path id="Path 984" class="s33" d="m550 595l5-4h3l8 3v13l-16-2z"/>
		<path id="Path 985" class="s44" d="m264 604v-4l7-8h3l19 6-3 9h-12l-2 4h-1l-7-3z"/>
		<path id="Path 986" class="s83" d="m446 593l6-1 4 4-2 2-7 2z"/>
		<path id="Path 987" class="s2" d="m218 595l-14-2h8z"/>
		<path id="Path 988" class="s6" d="m320 603l-1-10 13 2v10h-2z"/>
		<path id="Path 989" class="s71" d="m436 595l10-2 1 7-5 3-8 2z"/>
		<path id="Path 990" class="s78" d="m473 602l8-9h9l8 7-1 2v1l-4 4-11-1-6-3z"/>
		<path id="Path 991" class="s89" d="m536 595v-2l14 2v10l-8 3v-6z"/>
		<path id="Path 992" class="s9" d="m332 595l6-1 8 1v9h-6l-4 1h-4z"/>
		<path id="Path 993" class="s64" d="m458 595l2-1 2 2z"/>
		<path id="Path 994" class="s89" d="m566 607v-13l8 2 6 7v7l-10 1z"/>
		<path id="Path 995" class="s3" d="m232 597l-6-2h6z"/>
		<path id="Path 996" class="s97" d="m232 597v-2l12 1v1z"/>
		<path id="Path 997" class="s5" d="m346 604v-9h8l8 4v6h-10z"/>
		<path id="Path 998" class="s57" d="m413 596l5-1 6 1h2l2 9-3 1h-3l-6 2h-2l-6 1v-11z"/>
		<path id="Path 999" class="s86" d="m426 596l8-1h2l-2 10h-3-3z"/>
		<path id="Path 1000" class="s31" d="m522 601l2-6h12l6 7v6l-2 6-10-2-7-3-1-1z"/>
		<path id="Path 1001" class="s60" d="m601 603l1-8 12 1 5 6-2 6-16-3z"/>
		<path id="Path 1002" class="s68" d="m644 608l-4-3 1-10h11v2l-3 6-2 2v1z"/>
		<path id="Path 1003" class="s14" d="m244 597v-1l6 1h2l1 1z"/>
		<path id="Path 1004" class="s37" d="m290 607l3-9 10 3-1 6-11 2z"/>
		<path id="Path 1005" class="s43" d="m397 599l11-1v11l-5 2h-4z"/>
		<path id="Path 1006" class="s64" d="m447 600l7-2-4 4-8 1z"/>
		<path id="Path 1007" class="s7" d="m362 605v-6h2l2 6-3 1z"/>
		<path id="Path 1008" class="s86" d="m384 603l9-4h4l2 12-8 3-5 1z"/>
		<path id="Path 1009" class="s64" d="m498 600l2-1 7 4-10-1z"/>
		<path id="Path 1010" class="s56" d="m302 607l1-6 11 2v5z"/>
		<path id="Path 1011" class="s55" d="m514 605l3-4h5v7h-1-2z"/>
		<path id="Path 1012" class="s14" d="m268 608l-7-5 3 1z"/>
		<path id="Path 1013" class="s40" d="m314 608v-5h6l10 2v8l-10-1z"/>
		<path id="Path 1014" class="s58" d="m366 605l10-2h8l2 12-16 4h-6v-8l-5-2 4-3z"/>
		<path id="Path 1015" class="s0" d="m482 607l-6-4 6 3z"/>
		<path id="Path 1016" class="s14" d="m482 606l11 1 4-4-3 5-12-1z"/>
		<path id="Path 1017" class="s41" d="m580 610v-7h8v8h-4z"/>
		<path id="Path 1018" class="s89" d="m588 611v-8h13v2l-5 6z"/>
		<path id="Path 1019" class="s15" d="m336 605l4-1-2 4z"/>
		<path id="Path 1020" class="s30" d="m338 608l2-4h6l6 1v4l-2 10-9-2-3-5z"/>
		<path id="Path 1021" class="s36" d="m330 613v-8h2 4l2 3v4l-4 3z"/>
		<path id="Path 1022" class="s43" d="m352 609v-4h10l1 1-4 3z"/>
		<path id="Path 1023" class="s24" d="m425 606l3-1h3z"/>
		<path id="Path 1024" class="s70" d="m519 608l-6-3h1z"/>
		<path id="Path 1025" class="s78" d="m542 608l8-3 16 2 4 4v7h-4-12-4l-8-2-2-2z"/>
		<path id="Path 1026" class="s31" d="m596 611l5-6 16 3 2 7-5 1h-9-4-5z"/>
		<path id="Path 1027" class="s73" d="m644 608l3-2-3 6-4 1v-1z"/>
		<path id="Path 1028" class="s60" d="m276 611l2-4h12l1 2-6 8h-2l-1-1z"/>
		<path id="Path 1029" class="s55" d="m291 609l11-2 12 1 6 4 10 1 4 2 4 4v4h-11-9-1l-5-5h-6v6l5 5h-5l-2-1h-2l-6-3-2-2h-1l-5-3-3-3z"/>
		<path id="Path 1030" class="s70" d="m275 613l-7-5 7 3z"/>
		<path id="Path 1031" class="s14" d="m408 609l6-1-5 4h-6v-1z"/>
		<path id="Path 1032" class="s70" d="m523 610l-2-2h1l1 1z"/>
		<path id="Path 1033" class="s37" d="m350 619l2-10h7l5 2v8h6v1l-3 1-5 1-6 1h-6z"/>
		<path id="Path 1034" class="s24" d="m523 610v-1l7 3v1z"/>
		<path id="Path 1035" class="s26" d="m570 611l10-1 4 1v5l-2 1-5 1h-7z"/>
		<path id="Path 1036" class="s2" d="m275 613v-2h1l6 5h-2z"/>
		<path id="Path 1037" class="s72" d="m391 614l8-3h4v1l-12 3z"/>
		<path id="Path 1038" class="s78" d="m584 616v-5h4 8v5h-7z"/>
		<path id="Path 1039" class="s56" d="m334 615l4-3 3 5-3 2z"/>
		<path id="Path 1040" class="s3" d="m530 613v-1l10 2 2 2v1z"/>
		<path id="Path 1041" class="s49" d="m627 614l13-2v1l-13 2z"/>
		<path id="Path 1042" class="s97" d="m386 615l5-1v1l-20 5h-1v-1z"/>
		<path id="Path 1043" class="s3" d="m619 615l8-1v1l-13 2v-1z"/>
		<path id="Path 1044" class="s70" d="m283 617l-3-1h2z"/>
		<path id="Path 1045" class="s0" d="m542 617v-1l8 2z"/>
		<path id="Path 1046" class="s97" d="m582 617l2-1h5v1z"/>
		<path id="Path 1047" class="s13" d="m589 617v-1h7 5v1z"/>
		<path id="Path 1048" class="s14" d="m601 617v-1h4v1z"/>
		<path id="Path 1049" class="s13" d="m605 617v-1h9v1z"/>
		<path id="Path 1050" class="s70" d="m288 620h-4l-1-3h2z"/>
		<path id="Path 1051" class="s39" d="m338 619l3-2 9 2v4l-1 2h-8l-3-2z"/>
		<path id="Path 1052" class="s78" d="m311 629l-5-5v-6h6l5 5-2 4-1 2z"/>
		<path id="Path 1053" class="s73" d="m566 618v2l-12-2z"/>
		<path id="Path 1054" class="s24" d="m367 621l3-1h1l-4 2z"/>
		<path id="Path 1055" class="s64" d="m362 622l5-1v1z"/>
		<path id="Path 1056" class="s74" d="m315 627l2-4-1 4z"/>
		<path id="Path 1057" class="s2" d="m327 625l-9-2h9z"/>
		<path id="Path 1058" class="s49" d="m327 625v-2h11l3 2z"/>
		<path id="Path 1059" class="s2" d="m349 625l1-2h6z"/>
		<path id="Path 1060" class="s24" d="m314 629l1-2h1v3h-2z"/>
		<path id="Path 1061" class="s24" d="m304 630v-2l2 1v1z"/>
		<path id="Path 1062" class="s97" d="m306 630v-1h5 3v1z"/>
	</g>
</svg>