<svg version="1.2" xmlns="http://www.w3.org/2000/svg" viewBox="0 0 1000 1000" width="1000" height="1000">
	<title>Etheostoma_caeruleum</title>
	<style>
		.s0 { opacity: .4;fill: #f4f6f7 } 
		.s1 { fill: #e1e1cc } 
		.s2 { opacity: .1;fill: #fbfbfd } 
		.s3 { fill: #e5f0f7 } 
		.s4 { fill: #eff8fa } 
		.s5 { fill: #becace } 
		.s6 { fill: #fbfefc } 
		.s7 { opacity: .6;fill: #f4f6f7 } 
		.s8 { fill: #b2c0c7 } 
		.s9 { fill: #dce7ee } 
		.s10 { fill: #a5b4b4 } 
		.s11 { opacity: .1;fill: #e7eae6 } 
		.s12 { opacity: .3;fill: #dcdfda } 
		.s13 { fill: #d4dad6 } 
		.s14 { fill: #d8e1e3 } 
		.s15 { fill: #f0ecc9 } 
		.s16 { fill: #ecf1eb } 
		.s17 { fill: #c8d4dc } 
		.s18 { fill: #8e9c9b } 
		.s19 { fill: #e7ebdc } 
		.s20 { fill: #adafa3 } 
		.s21 { fill: #fafbed } 
		.s22 { fill: #848a79 } 
		.s23 { fill: #5e7c7a } 
		.s24 { fill: #dddaba } 
		.s25 { fill: #ede0af } 
		.s26 { fill: #dcbc82 } 
		.s27 { fill: #d8c191 } 
		.s28 { fill: #4b564a } 
		.s29 { opacity: 1;fill: #cccfc0 } 
		.s30 { opacity: .8;fill: #f6f9fa } 
		.s31 { fill: #e7cf9c } 
		.s32 { fill: #fafada } 
		.s33 { fill: #908466 } 
		.s34 { fill: #a2a594 } 
		.s35 { opacity: 1;fill: #b29c70 } 
		.s36 { fill: #bac2b6 } 
		.s37 { opacity: 1;fill: #d3cdac } 
		.s38 { fill: #bfa97a } 
		.s39 { fill: #989986 } 
		.s40 { fill: #636c5d } 
		.s41 { fill: #b8b193 } 
		.s42 { fill: #a69267 } 
		.s43 { opacity: .6;fill: #dadcd7 } 
		.s44 { fill: #847452 } 
		.s45 { fill: #32362b } 
		.s46 { opacity: 1;fill: #b4a887 } 
		.s47 { fill: #72674a } 
		.s48 { fill: #c5bca2 } 
		.s49 { fill: #9a9273 } 
		.s50 { fill: #8b7448 } 
		.s51 { fill: #7b643b } 
		.s52 { fill: #b0590c } 
		.s53 { fill: #a99d7e } 
		.s54 { fill: #29241b } 
		.s55 { fill: #6d542d } 
		.s56 { fill: #6a4a1b } 
		.s57 { fill: #988558 } 
		.s58 { fill: #4c412d } 
		.s59 { fill: #1f170f } 
		.s60 { fill: #44301a } 
		.s61 { fill: #5c5e47 } 
		.s62 { fill: #88602e } 
		.s63 { fill: #55401c } 
		.s64 { opacity: .2;fill: #c8cabf } 
		.s65 { opacity: .8;fill: #b8b6a7 } 
		.s66 { fill: #7b7761 } 
		.s67 { opacity: .4;fill: #b6b4a2 } 
		.s68 { opacity: .7;fill: #898a76 } 
		.s69 { fill: #a48046 } 
		.s70 { fill: #67583a } 
		.s71 { fill: #9a6f30 } 
		.s72 { fill: #9d6821 } 
		.s73 { fill: #b88836 } 
		.s74 { fill: #bc9c5f } 
		.s75 { fill: #cbaa6b } 
		.s76 { opacity: .9;fill: #e1e5e2 } 
		.s77 { opacity: .3;fill: #999889 } 
		.s78 { opacity: .2;fill: #d0b685 } 
		.s79 { fill: #f8db8d } 
		.s80 { fill: #b28f50 } 
		.s81 { fill: #444939 } 
		.s82 { fill: #cdb381 } 
		.s83 { fill: #fceda3 } 
		.s84 { fill: #fcf6bc } 
		.s85 { fill: #d1a24e } 
		.s86 { fill: #d9af5d } 
		.s87 { fill: #f0cb7f } 
		.s88 { fill: #eec16a } 
		.s89 { fill: #c59d52 } 
		.s90 { fill: #ecb255 } 
		.s91 { fill: #d28f33 } 
		.s92 { fill: #e49c43 } 
		.s93 { fill: #64a4a7 } 
		.s94 { fill: #c9761c } 
		.s95 { opacity: 1;fill: #9f987d } 
		.s96 { opacity: .7;fill: #a09e8c } 
		.s97 { opacity: .2;fill: #84785a } 
	</style>
	<g id="Background">
		<path id="Path 0" class="s0" d="m539 390l7-2h24l7 4-9-2z"/>
		<path id="Path 1" class="s1" d="m833 457l3-1v12h-1l-11 2-5-4v-4l4-2z"/>
		<path id="Path 2" class="s2" d="m616 412h1v1h-1z"/>
		<path id="Path 3" class="s3" d="m538 392l1-2h29v4l-13 2 4 8-13 1-7-2-1-10z"/>
		<path id="Path 4" class="s4" d="m568 394v-4l9 2 5 1 3 3v5l-10-1-3-6z"/>
		<path id="Path 5" class="s0" d="m523 402l8-9 7-1v1l-8 5z"/>
		<path id="Path 6" class="s4" d="m530 398l8-5 1 10h-1z"/>
		<path id="Path 7" class="s2" d="m585 396l-3-3 9 4z"/>
		<path id="Path 8" class="s5" d="m559 404l-4-8 13-2h4l3 6-1 7z"/>
		<path id="Path 9" class="s6" d="m585 401v-5l6 1-2 7z"/>
		<path id="Path 10" class="s3" d="m589 404l2-7 6 3 4 2 1 1 3 3-3 3z"/>
		<path id="Path 11" class="s6" d="m523 402l7-4 8 5v11l-14 8-1 13-10 1-8-10 1-4 3-5 2-2 2-3 5-5z"/>
		<path id="Path 12" class="s7" d="m369 402l20-2v2l-20 1z"/>
		<path id="Path 13" class="s8" d="m574 407l1-7 10 1 4 3 13 5 3 5-7 3 2 3v1l-13-3-1-4h-11z"/>
		<path id="Path 14" class="s9" d="m369 403l20-1h4l4 3 1 1 1 10-2 1-15-1h-9l-2-6 5-2-1-4-6 2-1 4-12 2v-3l2-2z"/>
		<path id="Path 15" class="s0" d="m358 407l3-4 8-1v1z"/>
		<path id="Path 16" class="s3" d="m406 403h6l2 2 1 3h-3l-9-2v-1z"/>
		<path id="Path 17" class="s9" d="m538 414v-11h1l7 2v9z"/>
		<path id="Path 18" class="s2" d="m605 406l-3-3 5 3z"/>
		<path id="Path 19" class="s10" d="m368 410l1-4 6-2 1 4-5 2z"/>
		<path id="Path 20" class="s4" d="m546 405l13-1 15 3 1 7-1 4-12 2-5-6h-11z"/>
		<path id="Path 21" class="s11" d="m398 406l-1-1h6v1z"/>
		<path id="Path 22" class="s12" d="m415 408l-1-3 12 2v1h-8z"/>
		<path id="Path 23" class="s13" d="m399 416l-1-10h5l9 2v4 4h-4-6z"/>
		<path id="Path 24" class="s4" d="m602 409l3-3h2l5 4 4 2v1l-2 2h-5l-4-1z"/>
		<path id="Path 25" class="s0" d="m346 410l12-3-2 2-10 2z"/>
		<path id="Path 26" class="s0" d="m426 408v-1l13 1v1l-11-1z"/>
		<path id="Path 27" class="s5" d="m412 412v-4h3 3v4z"/>
		<path id="Path 28" class="s13" d="m418 412v-4h8 2v6z"/>
		<path id="Path 29" class="s14" d="m428 414v-6l11 1-2 6 5 4-4 5h-4l-6-5z"/>
		<path id="Path 30" class="s12" d="m439 409v-1h11v1l-4 1z"/>
		<path id="Path 31" class="s0" d="m450 409v-1l9 4z"/>
		<path id="Path 32" class="s13" d="m346 411l10-2v3l-2 4h-8z"/>
		<path id="Path 33" class="s10" d="m442 419l-5-4 2-6 7 1 3 4v1l-6 4z"/>
		<path id="Path 34" class="s3" d="m446 410l4-1 9 3v1l-3 1h-7z"/>
		<path id="Path 35" class="s7" d="m343 412l3-2v1z"/>
		<path id="Path 36" class="s15" d="m356 412l12-2h3l2 6-1 10-7 1-1 5-4 3-3-6v-3l-7 1-8 9-6-4v-4l2-6 8-6h8z"/>
		<path id="Path 37" class="s4" d="m343 412l3-1v5l-8 6-6-5 1-2 5-2z"/>
		<path id="Path 38" class="s16" d="m412 416v-4h6l10 2v5h-1-10z"/>
		<path id="Path 39" class="s7" d="m459 413v-1l5 1 8 9z"/>
		<path id="Path 40" class="s17" d="m456 414l3-1 13 9h2l3 3 2 2 3 4v2l-6-1-3-6-5-1-9-7-3-2z"/>
		<path id="Path 41" class="s6" d="m614 415l2-2h1l2 2 3 1 1 1 5 9h-6l-6-4z"/>
		<path id="Path 42" class="s18" d="m449 415v-1h7v2h-6z"/>
		<path id="Path 43" class="s19" d="m523 435l1-13 14-8h8 11l5 6 12-2 2 8-1 5-10 2-2 3h-6l-8 13-5 1v-6h-6l-8-2-6-1z"/>
		<path id="Path 44" class="s20" d="m536 429h8l-3 7-7-1z"/>
		<path id="Path 45" class="s21" d="m574 418l1-4h11l1 4-2 8h-9z"/>
		<path id="Path 46" class="s22" d="m600 420l-2-3 7-3 4 1-2 5z"/>
		<path id="Path 47" class="s11" d="m331 417l2-2-1 2z"/>
		<path id="Path 48" class="s23" d="m443 419l6-4 1 1v4h-6z"/>
		<path id="Path 49" class="s17" d="m600 420h7l2-5h5l2 7 6 4-1 10h-3l-2-4h-9-7v-11z"/>
		<path id="Path 50" class="s24" d="m372 426l1-10h9v9h-3z"/>
		<path id="Path 51" class="s25" d="m382 425v-9l15 1-1 7-3 2-7 2z"/>
		<path id="Path 52" class="s26" d="m397 417l2-1h3l1 5-1 3h-2-4z"/>
		<path id="Path 53" class="s27" d="m403 421l-1-5h6l-1 5z"/>
		<path id="Path 54" class="s25" d="m407 421l1-5h4l5 3 1 7v2h-8z"/>
		<path id="Path 55" class="s28" d="m450 420v-4h6l3 2-1 4h-4z"/>
		<path id="Path 56" class="s29" d="m328 420l3-3h1l6 5-2 6h-9l-2-2 3-4z"/>
		<path id="Path 57" class="s30" d="m628 426l-5-9 11 8 2 2 1 1 2 2v1h-5z"/>
		<path id="Path 58" class="s18" d="m454 422h4l1-4 9 7-4 5-5 1h-1v-7h-4z"/>
		<path id="Path 59" class="s16" d="m585 426l2-8 13 3v11l-3 4-11 2z"/>
		<path id="Path 60" class="s26" d="m418 426l-1-7h10l-1 7z"/>
		<path id="Path 61" class="s31" d="m426 426l1-7h1l6 5-2 8h-6z"/>
		<path id="Path 62" class="s29" d="m438 424l4-5h1l1 1v6h-2z"/>
		<path id="Path 63" class="s5" d="m444 426v-6h6l4 2v2l-3 3z"/>
		<path id="Path 64" class="s32" d="m402 424l1-3h4l3 7-4 2h-3z"/>
		<path id="Path 65" class="s7" d="m323 427l5-5-3 4z"/>
		<path id="Path 66" class="s0" d="m503 427l3-5-1 4z"/>
		<path id="Path 67" class="s33" d="m393 426l3-2h4l-1 2z"/>
		<path id="Path 68" class="s34" d="m399 426l1-2h2l1 6-4 5-7 6-6-1v-4l10-4z"/>
		<path id="Path 69" class="s35" d="m432 432l2-8h4l4 2v5l-4 2z"/>
		<path id="Path 70" class="s13" d="m451 427l3-3h4v7h-4z"/>
		<path id="Path 71" class="s22" d="m372 426l7-1-2 5-7 3-6-1 1-5z"/>
		<path id="Path 72" class="s36" d="m377 430l2-5h3l4 3-4 6-2 1z"/>
		<path id="Path 73" class="s23" d="m464 430l4-5 5 1 3 6 4 8-1 6 3 3v1l-12 1-2-5v-4-10z"/>
		<path id="Path 74" class="s37" d="m323 427l2-1 2 2-2 7-6-1v-2z"/>
		<path id="Path 75" class="s22" d="m342 436l8-9 7-1v3l-6 7h-5z"/>
		<path id="Path 76" class="s28" d="m386 428l7-2h6l-3 6-10 4-4-2z"/>
		<path id="Path 77" class="s13" d="m418 428v-2h8v6l-1 2h-2l-4-1z"/>
		<path id="Path 78" class="s38" d="m442 431v-5h2l7 1 3 4v5l4 2v2l-3 5-9-5-2-2 3-5z"/>
		<path id="Path 79" class="s4" d="m503 427l2-1 8 10v6l-3 2-11-6v-3l2-5 2-2z"/>
		<path id="Path 80" class="s1" d="m563 436l2-3 10-2 1-5h9l1 12-3 4v9l-6 2-5-6-1-7-5 2z"/>
		<path id="Path 81" class="s8" d="m621 436l1-10h6l6 5v9z"/>
		<path id="Path 82" class="s7" d="m318 432l5-5-4 5z"/>
		<path id="Path 83" class="s27" d="m325 435l2-7h9v4l6 4 1 3v2l-7 6-2 1-7-4 1-7z"/>
		<path id="Path 84" class="s39" d="m406 430l4-2h8l1 5-7 1-2-4z"/>
		<path id="Path 85" class="s29" d="m351 436l6-7 3 6-4 3z"/>
		<path id="Path 86" class="s24" d="m370 433l7-3 3 5v1l-8 4z"/>
		<path id="Path 87" class="s40" d="m399 435l4-5h3 4l2 4-2 3-4 1z"/>
		<path id="Path 88" class="s41" d="m459 431l5-1 4 2v10l-6 1h-2l-2-3v-2l3-1z"/>
		<path id="Path 89" class="s0" d="m498 435l3-5-2 5z"/>
		<path id="Path 90" class="s2" d="m639 431v-1l2 2z"/>
		<path id="Path 91" class="s37" d="m438 433l4-2 5 2-3 5h-3z"/>
		<path id="Path 92" class="s42" d="m458 438l-4-2v-5h4 1l2 6z"/>
		<path id="Path 93" class="s17" d="m634 440v-9h5l2 1 1 1 5 4 2 3-1 6-1 3-9 1h-4z"/>
		<path id="Path 94" class="s43" d="m316 435l2-3h1v2l-3 2z"/>
		<path id="Path 95" class="s38" d="m360 435l4-3 6 1 2 7v2l-2 3-4 4-4-1 2-5-8-1v-4z"/>
		<path id="Path 96" class="s40" d="m425 434l1-2h6l6 1 3 5-5 3-4-3 2-4z"/>
		<path id="Path 97" class="s8" d="m480 440l-4-8 6 1 2 5-1 1z"/>
		<path id="Path 98" class="s1" d="m597 436l3-4h7l-2 10h-1-4z"/>
		<path id="Path 99" class="s6" d="m605 442l2-10h9l2 4v8l-2 2-5 1z"/>
		<path id="Path 100" class="s20" d="m412 434l7-1 4 1-2 2-9 5-2-4z"/>
		<path id="Path 101" class="s1" d="m316 436l3-2 6 1 3 2-1 7h-4l-8-5z"/>
		<path id="Path 102" class="s44" d="m380 435l2-1 4 2v4l-5 3h-1v-7z"/>
		<path id="Path 103" class="s45" d="m421 436l2-2h2 9l-2 4-4 1h-6z"/>
		<path id="Path 104" class="s12" d="m313 440l3-5v1l-1 3z"/>
		<path id="Path 105" class="s33" d="m392 441l7-6 7 3 1 6-1 2h-7l-7-2z"/>
		<path id="Path 106" class="s43" d="m495 439l3-4h1v3l-4 3z"/>
		<path id="Path 107" class="s29" d="m513 436l10-1 1 6v7h-4-4l-6-4 3-2z"/>
		<path id="Path 108" class="s36" d="m343 439l-1-3h4v3z"/>
		<path id="Path 109" class="s37" d="m346 439v-3h5l5 2v4l-7 6h-4v-6z"/>
		<path id="Path 110" class="s42" d="m372 440l8-4v7l-8-1z"/>
		<path id="Path 111" class="s33" d="m412 441l9-5 1 3h6v11l-11 2-3-3-2-6z"/>
		<path id="Path 112" class="s29" d="m549 449l8-13h6l3 6v6l6-1 5 6-1 3-3 2-5 2-8-4h-6l-3-2z"/>
		<path id="Path 113" class="s37" d="m586 438l11-2 3 6-4 3v7h-8l-5-1v-9z"/>
		<path id="Path 114" class="s13" d="m618 444v-8h3l13 4v10l-3 2h-4z"/>
		<path id="Path 115" class="s46" d="m406 438l4-1 2 4v2l-5 1z"/>
		<path id="Path 116" class="s2" d="m649 440l-2-3 5 4z"/>
		<path id="Path 117" class="s47" d="m428 439l4-1 4 3v6l4 1v7h-6v-5h-6z"/>
		<path id="Path 118" class="s45" d="m436 441l5-3h3l2 2v6l-6 2-4-1z"/>
		<path id="Path 119" class="s12" d="m483 439l1-1 3 7z"/>
		<path id="Path 120" class="s34" d="m495 441l4-3 11 6 6 4-5 6-4-2-5-4-2 5-6 2v4l-4-1-2-7 3-4 2-2v-1z"/>
		<path id="Path 121" class="s48" d="m313 440l2-1 8 5-1 4-5 1-11 1v-1l2-2z"/>
		<path id="Path 122" class="s49" d="m343 441v-2h3l-1 3z"/>
		<path id="Path 123" class="s10" d="m480 440l3-1 4 6v2l1 4-6-2-3-3z"/>
		<path id="Path 124" class="s12" d="m493 444l2-5v2z"/>
		<path id="Path 125" class="s49" d="m381 443l5-3 6 1v3l-4 1-6 4z"/>
		<path id="Path 126" class="s28" d="m446 446v-6l9 5v1l-7 3z"/>
		<path id="Path 127" class="s25" d="m455 445l3-5 2 3z"/>
		<path id="Path 128" class="s48" d="m566 442l5-2 1 7-6 1z"/>
		<path id="Path 129" class="s3" d="m648 446l1-6 3 1 2 1 3 3v1z"/>
		<path id="Path 130" class="s50" d="m336 447l7-6 2 1v6h-5z"/>
		<path id="Path 131" class="s36" d="m524 448v-7l6 1-1 6z"/>
		<path id="Path 132" class="s51" d="m349 448l7-6 8 1-2 5z"/>
		<path id="Path 133" class="s51" d="m370 445l2-3 8 1h1l1 6v5h-5v-4z"/>
		<path id="Path 134" class="s52" d="m462 443l6-1v4h-5z"/>
		<path id="Path 135" class="s39" d="m529 448l1-6 8 2v8h-7z"/>
		<path id="Path 136" class="s19" d="m596 452v-7l4-3h4l2 8-6 4z"/>
		<path id="Path 137" class="s21" d="m606 450l-2-8h1l6 5z"/>
		<path id="Path 138" class="s47" d="m407 444l5-1 2 6-8-1v-2z"/>
		<path id="Path 139" class="s42" d="m455 445l5-2h2l1 3h5l2 5v2l-8 2-2-2v-4l-5-3z"/>
		<path id="Path 140" class="s53" d="m322 448l1-4h4l7 4v1l-6 1z"/>
		<path id="Path 141" class="s54" d="m388 445l4-1 7 2v1l-3 3h-7z"/>
		<path id="Path 142" class="s20" d="m538 452v-8h6v6l5-1 2 5-11 1z"/>
		<path id="Path 143" class="s24" d="m616 446l2-2 9 8h4l1 3v10l-6 2-2-7-7-4z"/>
		<path id="Path 144" class="s55" d="m362 448l4 1 4-4 7 5v4l-1 8-2 2-9-4-15 3-2-6-8-7v-2h5 4z"/>
		<path id="Path 145" class="s56" d="m382 449l6-4 1 5h7v10l-3 2h-4l-7-8z"/>
		<path id="Path 146" class="s2" d="m657 446v-1l4 2z"/>
		<path id="Path 147" class="s57" d="m399 447v-1h7v2l-2 2h-4z"/>
		<path id="Path 148" class="s58" d="m440 448l6-2 2 3-5 6h-3z"/>
		<path id="Path 149" class="s59" d="m448 449l7-3 5 3v4l-4 5 4 1 10 2v-8-2l12-1 6 9 10 8v8l-5 6h-5l-10-1h-6l-5-6-13-2v-6l-6-1-5-6v-4z"/>
		<path id="Path 150" class="s48" d="m611 447l5-1 1 10 7 4 2 7v5l-19-2-4 4-7-2v-10l4-2v-6l6-4z"/>
		<path id="Path 151" class="s8" d="m638 450l9-1 1-3h9l5 10 4 7v9l-12 1-4-1-1-4h-5l-4-5-2-8z"/>
		<path id="Path 152" class="s4" d="m662 456l-5-10 4 1h6v5l1 4z"/>
		<path id="Path 153" class="s12" d="m298 450l10-3-2 2z"/>
		<path id="Path 154" class="s56" d="m334 448l2-1 4 1v2l-6-1z"/>
		<path id="Path 155" class="s55" d="m396 450l3-3 1 3h4l1 7 9 2 2 9 7-3 9 8v3l-2 4-4 1-2 10h-3l-3-4-10 1-4-8h-5l3-6-2-6 2-3-6-5z"/>
		<path id="Path 156" class="s12" d="m488 451l-1-4h4z"/>
		<path id="Path 157" class="s55" d="m317 449l5-1 6 2-2 14h-4l-6-8z"/>
		<path id="Path 158" class="s60" d="m404 450l2-2 8 1 3 3 11-2h6v5h6 3v4l-4 1v4l4 4-2 2-9 3-9-8-4-6h-5l-9-2z"/>
		<path id="Path 159" class="s58" d="m500 453l2-5 5 4-3 3z"/>
		<path id="Path 160" class="s61" d="m511 454l5-6h4l-2 8-7 1z"/>
		<path id="Path 161" class="s53" d="m518 456l2-8h4 5l2 4h7l2 3-2 7-6 3h-6l-5-1z"/>
		<path id="Path 162" class="s46" d="m298 450l8-1v1 2h-8z"/>
		<path id="Path 163" class="s62" d="m306 450l11-1-1 7-10-4z"/>
		<path id="Path 164" class="s63" d="m328 450l6-1 6 1 8 7 2 6 2 11-1 2-5-5-4 1h-2l-3-6-7 1-4-3z"/>
		<path id="Path 165" class="s40" d="m482 450v-1l6 2 2 7-2 1z"/>
		<path id="Path 166" class="s43" d="m288 452l7-2-1 2z"/>
		<path id="Path 167" class="s39" d="m294 452l1-2h3v2z"/>
		<path id="Path 168" class="s3" d="m631 452l3-2h4v5h-6z"/>
		<path id="Path 169" class="s20" d="m577 453l6-2 5 1 1 9-1 3h-5l-7-8z"/>
		<path id="Path 170" class="s64" d="m269 455l12-3-11 3z"/>
		<path id="Path 171" class="s65" d="m270 455l11-3h5v2l-13 2h-3z"/>
		<path id="Path 172" class="s23" d="m286 454v-2h2 6z"/>
		<path id="Path 173" class="s59" d="m286 454l8-2h4 8l10 4 6 8h4l4 3v5l-13 1-1 3-12 2-3-7-2-5h-5l-7-3-4 3v5h-2l-9-5 1-10z"/>
		<path id="Path 174" class="s49" d="m504 455l3-3 4 2v3l7-1 3 8-2 2h-4l-11-6z"/>
		<path id="Path 175" class="s34" d="m589 461l-1-9h8l4 2v6l-4 2z"/>
		<path id="Path 176" class="s0" d="m668 456l-1-4 2 3h7l1 5-3-4z"/>
		<path id="Path 177" class="s57" d="m460 459l-4-1 4-5 2 2z"/>
		<path id="Path 178" class="s47" d="m462 455l8-2v8l-10-2z"/>
		<path id="Path 179" class="s53" d="m494 459v-4l6-2 4 2v5l-4 1z"/>
		<path id="Path 180" class="s66" d="m540 455l11-1 3 2 2 8 3 6-4 6h-4l-2-6-9 1-8-4v-2l6-3z"/>
		<path id="Path 181" class="s2" d="m843 455l6-2v2z"/>
		<path id="Path 182" class="s60" d="m376 462l1-8h5l7 8-2 2z"/>
		<path id="Path 183" class="s29" d="m843 455h6l4 1 1 3v7h-7l-7 2h-4v-12z"/>
		<path id="Path 184" class="s64" d="m261 457l2-2-1 2z"/>
		<path id="Path 185" class="s67" d="m262 457l1-2h6 1v1l-4 1z"/>
		<path id="Path 186" class="s1" d="m632 465v-10h6l2 8z"/>
		<path id="Path 187" class="s0" d="m833 457l10-2-7 1z"/>
		<path id="Path 188" class="s2" d="m853 456l-4-1 5 1z"/>
		<path id="Path 189" class="s61" d="m266 457l4-1h3l-1 10h-1l-5-4z"/>
		<path id="Path 190" class="s40" d="m556 464l-2-8h6l-1 7z"/>
		<path id="Path 191" class="s34" d="m559 463l1-7 8 4-4 6h-2z"/>
		<path id="Path 192" class="s66" d="m573 458l3-2 7 8h5l-2 10h3l-8 3-1-2 2-5-8 1-2-5 3-4z"/>
		<path id="Path 193" class="s17" d="m666 472v-9l-4-7h6 6l3 4v5l2 2 8 5 2 18 1 2h-11l-1-18z"/>
		<path id="Path 194" class="s7" d="m854 459l-1-3h1l10 7 3 8-7-8z"/>
		<path id="Path 195" class="s0" d="m243 460l13-3v1l-12 2z"/>
		<path id="Path 196" class="s67" d="m256 458v-1h5l-1 1z"/>
		<path id="Path 197" class="s51" d="m260 458l1-1h1 4v5l5 4-4 5v9l-3 6h-6l-7-8h-5l-9-2v-5l13-3z"/>
		<path id="Path 198" class="s44" d="m244 460l12-2h4l-10 10-13 3-3-6 1-2z"/>
		<path id="Path 199" class="s50" d="m488 459l2-1 4 1 6 2v6h-2z"/>
		<path id="Path 200" class="s28" d="m568 460l5-2 2 4-3 4-4 3-4-3z"/>
		<path id="Path 201" class="s51" d="m423 465l-7 3-2-9h5z"/>
		<path id="Path 202" class="s50" d="m443 468l-4-4v-4l4-1 5 6-2 3z"/>
		<path id="Path 203" class="s14" d="m854 466v-7l6 4-2 3z"/>
		<path id="Path 204" class="s68" d="m235 462l8-2h1l-9 3z"/>
		<path id="Path 205" class="s51" d="m350 463l15-3 9 4 1 8 6 6h5v4l-3 4-2-2-10 2-6-4v-1l3-1v-8l-7-2-1 4h-8z"/>
		<path id="Path 206" class="s42" d="m393 462l3-2 6 5-2 3h-4z"/>
		<path id="Path 207" class="s69" d="m500 461l4-1 11 6v6l3 4 2 8-16 2v-8l2-8-6-3z"/>
		<path id="Path 208" class="s0" d="m818 462l5-2-4 2z"/>
		<path id="Path 209" class="s41" d="m588 464l1-3 7 1v10l-4 2h-3-3z"/>
		<path id="Path 210" class="s65" d="m226 465l7-3h2v1l-1 2-9 3h-5v-1h1z"/>
		<path id="Path 211" class="s50" d="m374 464l2-2 11 2 4 13-5 1h-5l-6-6z"/>
		<path id="Path 212" class="s63" d="m387 464l2-2h4l3 6h4l2 6-3 6v3l-3 1-3-2-2-5z"/>
		<path id="Path 213" class="s21" d="m806 465l6-3h6 1v4l5 4v10l-2 4h-6l-15-16v-1z"/>
		<path id="Path 214" class="s55" d="m283 471v-5l4-3 7 3v5z"/>
		<path id="Path 215" class="s22" d="m556 464l3-1 3 3-3 4z"/>
		<path id="Path 216" class="s38" d="m632 465l8-2 4 5-4 5 5 1-4 5-5 1-3-1-7-7v-5z"/>
		<path id="Path 217" class="s3" d="m858 466l2-3 7 8v1l1 5-8 5-2-2z"/>
		<path id="Path 218" class="s63" d="m519 466l2-2 5 1 1 5-1 4h-6v-2z"/>
		<path id="Path 219" class="s70" d="m225 468l9-3 3 6v5h-9l-3-6z"/>
		<path id="Path 220" class="s44" d="m446 468l2-3 6 1v6l-4 3v5l-4-2v-6z"/>
		<path id="Path 221" class="s33" d="m527 470l-1-5h6v2z"/>
		<path id="Path 222" class="s60" d="m267 480v-9l4-5h1l9 5-7 8z"/>
		<path id="Path 223" class="s70" d="m294 471v-5h5l2 5-2 3h-5z"/>
		<path id="Path 224" class="s60" d="m330 467l7-1 3 6-2 4h-6l-2-4z"/>
		<path id="Path 225" class="s71" d="m515 472v-6h4l1 6z"/>
		<path id="Path 226" class="s58" d="m559 470l3-4h2l4 3-2 4-6 4-5-1z"/>
		<path id="Path 227" class="s22" d="m568 469l4-3 2 5-2 2-3 2-3-2z"/>
		<path id="Path 228" class="s3" d="m840 468l7-2-2 6z"/>
		<path id="Path 229" class="s17" d="m845 472l2-6h7 4v14h-10z"/>
		<path id="Path 230" class="s0" d="m211 470l9-3v1l-7 2z"/>
		<path id="Path 231" class="s51" d="m498 475v-8h2l6 3-2 8z"/>
		<path id="Path 232" class="s60" d="m527 470l5-3 8 4 9-1 2 6h4l5 1v7l-2 4-7 5-8-5h-6l-6-2-3 8-7-3v-6l6-7-1-4z"/>
		<path id="Path 233" class="s0" d="m687 472l-8-5 6 1z"/>
		<path id="Path 234" class="s0" d="m783 472l18-5v1z"/>
		<path id="Path 235" class="s22" d="m213 470l7-2h5v2l-5 3-11 1v-2z"/>
		<path id="Path 236" class="s55" d="m441 470l2-2h3v4z"/>
		<path id="Path 237" class="s13" d="m645 474l-5-1 4-5h5l1 4-2 2z"/>
		<path id="Path 238" class="s32" d="m783 472l18-4 15 16 2 6h4v10l-6 4h-6l-5-6v-6l-9-5-1-8-12-3z"/>
		<path id="Path 239" class="s19" d="m824 470l11-2-1 12h-10z"/>
		<path id="Path 240" class="s4" d="m834 480l1-12h1 4l5 4 3 8v12h-10z"/>
		<path id="Path 241" class="s43" d="m206 472l5-2h2l-4 2z"/>
		<path id="Path 242" class="s60" d="m220 473l5-3 3 6h-6z"/>
		<path id="Path 243" class="s50" d="m283 471h11v3 7l-12 3h-4l-4-5 7-8z"/>
		<path id="Path 244" class="s54" d="m360 474l1-4 7 2v8l-3 1-4-4z"/>
		<path id="Path 245" class="s50" d="m432 473l9-3 5 2v6l-2 2-9-1-3-3z"/>
		<path id="Path 246" class="s54" d="m574 471l8-1-2 5-8-2z"/>
		<path id="Path 247" class="s53" d="m603 474l4-4 19 2 7 7-2 7-17-4-11-3z"/>
		<path id="Path 248" class="s58" d="m299 474l2-3 3 7 12-2 4 4h6l-3 7-10-1-12-3z"/>
		<path id="Path 249" class="s33" d="m342 472l4-1 5 5v2l-3 3h-6l-1-2z"/>
		<path id="Path 250" class="s11" d="m198 473l6-1-6 2z"/>
		<path id="Path 251" class="s46" d="m198 474l6-2h2 3v2l-6 2h-6-2z"/>
		<path id="Path 252" class="s70" d="m316 476l1-3 13-1 2 4h6v3l-1 1-7-3-4 3h-6z"/>
		<path id="Path 253" class="s47" d="m338 476l2-4h2l-1 7h-3z"/>
		<path id="Path 254" class="s58" d="m450 480v-5l4-3 13 2 5 6h6l2 5-3 11-5 4h-5l-7-5-1-11z"/>
		<path id="Path 255" class="s56" d="m518 476l-3-4h5v2z"/>
		<path id="Path 256" class="s33" d="m592 474l4-2 7 2v5l-1 1h-4z"/>
		<path id="Path 257" class="s49" d="m648 474l2-2 4 1v9h-4l-2-3z"/>
		<path id="Path 258" class="s20" d="m654 473l12-1v6 4h-12z"/>
		<path id="Path 259" class="s18" d="m666 478v-6l12 2 1 18h-5l2-12z"/>
		<path id="Path 260" class="s1" d="m778 473l5-1v4l-7 4-8-2v-1-1l5-1z"/>
		<path id="Path 261" class="s2" d="m868 477l-1-5 2 5z"/>
		<path id="Path 262" class="s12" d="m188 477l10-4v1l-3 2z"/>
		<path id="Path 263" class="s72" d="m209 474l11-1 2 3h6l-8 10h-6-11v-2-8z"/>
		<path id="Path 264" class="s57" d="m560 477l6-4 3 2-1 10-8-1z"/>
		<path id="Path 265" class="s51" d="m569 475l3-2 8 2 1 2-3 3-2 16h-4v-8l-4-3z"/>
		<path id="Path 266" class="s44" d="m294 481v-7h5l2 9z"/>
		<path id="Path 267" class="s66" d="m351 476l1-2h8l1 3-1 2-9-1z"/>
		<path id="Path 268" class="s51" d="m518 476l2-2h6l1 4-6 7-1-1z"/>
		<path id="Path 269" class="s58" d="m581 477l8-3h3l6 6-4 8v6l-7 2-1 4-3 4-1 6-2 2h-4l2-10-2-6 2-16z"/>
		<path id="Path 270" class="s57" d="m641 479l4-5h3v5l-4 1z"/>
		<path id="Path 271" class="s60" d="m493 481l5-6 6 3v8 6l-5-1-4-7z"/>
		<path id="Path 272" class="s66" d="m188 477l7-1h2v2l-19 4v-1l9-4z"/>
		<path id="Path 273" class="s55" d="m197 478v-2h6v8h-2z"/>
		<path id="Path 274" class="s69" d="m214 486h6l8-10h9l9 2v13l-4 3h-7l-10 11-3 15h-8v-12l3-2-3-6z"/>
		<path id="Path 275" class="s35" d="m430 480l2-4 3 3-2 2z"/>
		<path id="Path 276" class="s15" d="m776 480l7-4 12 3 1 8-10 1-3-4h-7z"/>
		<path id="Path 277" class="s12" d="m174 480l13-3-9 4h-4z"/>
		<path id="Path 278" class="s49" d="m326 480l4-3 7 3v2l-6 4-8 3v-2z"/>
		<path id="Path 279" class="s40" d="m360 479l1-2 4 4v1z"/>
		<path id="Path 280" class="s35" d="m386 478l5-1 2 5h-7z"/>
		<path id="Path 281" class="s0" d="m758 480l10-3v1l-6 2z"/>
		<path id="Path 282" class="s6" d="m860 482l8-5h1l2 11h-2l-2 4v1l-2 5-9-5z"/>
		<path id="Path 283" class="s60" d="m178 482l19-4 4 6-3 4-11 6-6-3z"/>
		<path id="Path 284" class="s57" d="m246 491v-13h5l7 8 1 8 2 5 7 1 3 3-8 13-7-2v-13l-6-4v-4z"/>
		<path id="Path 285" class="s5" d="m348 481l3-3 9 1 5 3 6 4 5 4v4l-7 4h-7l-12-4z"/>
		<path id="Path 286" class="s41" d="m444 480l2-2 4 2-2 5-4-1z"/>
		<path id="Path 287" class="s40" d="m666 482v-4l10 2-2 12-2 4-9-2z"/>
		<path id="Path 288" class="s24" d="m762 480l6-2 8 2v4l-4 4h-8z"/>
		<path id="Path 289" class="s70" d="m267 480l7-1 4 5h4v8l-14 4-4-2v-8z"/>
		<path id="Path 290" class="s48" d="m337 480l1-1h3l1 2-5 1z"/>
		<path id="Path 291" class="s42" d="m433 481l2-2 9 1v4l4 1v1l-5 7z"/>
		<path id="Path 292" class="s66" d="m602 480l1-1 11 3v2l-2 2-12 1 3-3z"/>
		<path id="Path 293" class="s33" d="m631 486l2-7 3 1v7z"/>
		<path id="Path 294" class="s49" d="m636 480l5-1 3 1v6l-4 2-4-1z"/>
		<path id="Path 295" class="s39" d="m644 480l4-1 2 3v3l-4 1h-2z"/>
		<path id="Path 296" class="s7" d="m169 482l5-2v1l-1 1z"/>
		<path id="Path 297" class="s38" d="m399 483v-3h5l4 8h-6z"/>
		<path id="Path 298" class="s47" d="m424 491l2-10 4-1 3 1 10 12-1 7-4 1v5l6 6-1 5-3 5h-3l-3-4v-7l-7-6v-5-7z"/>
		<path id="Path 299" class="s50" d="m448 485l2-5 9 4 1 11h-5l-7-9z"/>
		<path id="Path 300" class="s45" d="m480 485l-2-5 10 1v4z"/>
		<path id="Path 301" class="s59" d="m594 488l4-8h4l1 4-3 3z"/>
		<path id="Path 302" class="s1" d="m753 482l5-2h4l2 8v5l-10 1-9-2v-6l3-3z"/>
		<path id="Path 303" class="s16" d="m822 484l2-4h10l4 12-4 9-11-1h-1v-10z"/>
		<path id="Path 304" class="s9" d="m848 492v-12h10l2 2-4 11 9 5v5l-2 18 5 17 4 3-4 19h-8l-11-2v-9l1-1 9-3-1-7v-5l-4-3-2-26v-7z"/>
		<path id="Path 305" class="s51" d="m173 482l1-1h4v1l3 9-2 6 3 2 1 11-3 1h-7l-4-8-10-5-6-6 6-5z"/>
		<path id="Path 306" class="s47" d="m282 484l12-3 7 2 12 3v5l-9 2-8 7-8 2h-3l1-5-4-5z"/>
		<path id="Path 307" class="s19" d="m337 482l5-1h6l2 13-2 2h-16l-1-10z"/>
		<path id="Path 308" class="s47" d="m488 485v-4h5l2 3z"/>
		<path id="Path 309" class="s65" d="m158 485l8-3h3 4l-14 5-2-1v-1z"/>
		<path id="Path 310" class="s50" d="m383 486l3-4h7l3 2v8h-2l-8-1z"/>
		<path id="Path 311" class="s70" d="m614 484v-2l17 4 5 1 4 1v4l-5 2v6h-3l-5-6-9-1-1-5z"/>
		<path id="Path 312" class="s33" d="m650 485v-3h4 12l-3 12h-5l-6-1z"/>
		<path id="Path 313" class="s47" d="m396 484l3-1 3 5h6v8l-12-4z"/>
		<path id="Path 314" class="s11" d="m739 487l9-4-3 3z"/>
		<path id="Path 315" class="s71" d="m198 488l3-4h2v2l-1 3z"/>
		<path id="Path 316" class="s42" d="m371 486l10-2 2 2 3 5-1 2-9 1v-4z"/>
		<path id="Path 317" class="s42" d="m488 485l7-1 4 7-3 12 5 2 5-3 8 6-2 14v2h-3l-5-4-5-1-3-12-8 3-14-2-2-8 5-4 3-11z"/>
		<path id="Path 318" class="s70" d="m504 486l16-2 1 1v6l7 3h1l1 6-8 1v5l6 2 3 4 2 8-3 4-2 1-16-3 2-14-8-6-2-10z"/>
		<path id="Path 319" class="s50" d="m558 488l2-4 8 1 4 3v8h-5z"/>
		<path id="Path 320" class="s54" d="m612 486l2-2 3 4h-5z"/>
		<path id="Path 321" class="s25" d="m772 488l4-4h7l3 4 10-1 9 5v6l5 6h6v4 7l-4 5h-6l-1-6h-19l-2-15-6-5h-5z"/>
		<path id="Path 322" class="s19" d="m822 490h-4l-2-6h6z"/>
		<path id="Path 323" class="s11" d="m151 487l6-2v1z"/>
		<path id="Path 324" class="s50" d="m646 486l4-1 2 8-2 2-4-1z"/>
		<path id="Path 325" class="s22" d="m151 487l6-1 2 1-6 5h-7v-2z"/>
		<path id="Path 326" class="s73" d="m202 489l1-3h11v14l-3 1-7-5z"/>
		<path id="Path 327" class="s44" d="m259 494l-1-8h6v8z"/>
		<path id="Path 328" class="s66" d="m313 491v-5l10 1v2l-4 2z"/>
		<path id="Path 329" class="s1" d="m323 489l8-3 1 10v4h-11l-2-5v-4z"/>
		<path id="Path 330" class="s70" d="m443 493l5-7 7 9v5l-1 2-4 4h-5l-3-6z"/>
		<path id="Path 331" class="s47" d="m528 494l3-8 6 2-1 6h-7z"/>
		<path id="Path 332" class="s60" d="m600 487l12-1v2 9l-18-3v-6z"/>
		<path id="Path 333" class="s44" d="m640 488l4-2h2v8h-4l-2-2z"/>
		<path id="Path 334" class="s24" d="m739 487l6-1v6l-1 1-2 1h-6l-5-3 1-2 4-2z"/>
		<path id="Path 335" class="s0" d="m141 492l2-4 8-1-5 3z"/>
		<path id="Path 336" class="s33" d="m408 488l10-1 3 4v7l6 2v5l-5 2h-7l-1 7 7 5 3 8v3l-14-4v-13l2-4-4-6v-7z"/>
		<path id="Path 337" class="s11" d="m730 489l6-2-4 2z"/>
		<path id="Path 338" class="s69" d="m187 494l11-6 4 1 2 7 7 5-1 7-4 6h-8l-6 2-6-1 1-4-4-1-1-11z"/>
		<path id="Path 339" class="s57" d="m536 494l1-6h6l8 5 6 7v6l4 1v5l7 4v8l-5 8h-9l-2-3-2-10-17 1-2-8 4-6h5l5-5-4-7z"/>
		<path id="Path 340" class="s70" d="m551 493l7-5 9 8-3 4h-7z"/>
		<path id="Path 341" class="s55" d="m612 497v-9h5l1 5-1 6-5 1z"/>
		<path id="Path 342" class="s37" d="m764 493v-5h8l1 6-7 2z"/>
		<path id="Path 343" class="s43" d="m718 493l12-4h2l-1 2-12 3h-1z"/>
		<path id="Path 344" class="s49" d="m141 492l5-2v2l-12 10-6-1 3-4 9-5z"/>
		<path id="Path 345" class="s11" d="m690 492l-1-2 2 2z"/>
		<path id="Path 346" class="s55" d="m182 499l-3-2 2-6 6 3z"/>
		<path id="Path 347" class="s74" d="m242 494l4-3 4 2v4l-6 1z"/>
		<path id="Path 348" class="s48" d="m296 500l8-7 9-2h6v4l-5 5h-12l-4 4h-2z"/>
		<path id="Path 349" class="s29" d="m385 493l1-2 8 1v4l-4 1-1-4z"/>
		<path id="Path 350" class="s42" d="m427 500l-6-2v-7h3l3 2z"/>
		<path id="Path 351" class="s47" d="m506 502l-5 3-5-2 3-12 5 1z"/>
		<path id="Path 352" class="s75" d="m719 494l12-3 5 3v6l-4 2v4h-4l-8-2z"/>
		<path id="Path 353" class="s60" d="m134 502l12-10h7l6 6-2 4h-13l-4 4h-6z"/>
		<path id="Path 354" class="s45" d="m268 496l14-4 4 5-1 5-3 4-11-3-3-3z"/>
		<path id="Path 355" class="s44" d="m394 496v-4h2l12 4v7l-3 1v4h-5l-6-6z"/>
		<path id="Path 356" class="s54" d="m635 500v-6l5-2 2 2-3 6z"/>
		<path id="Path 357" class="s39" d="m672 496l2-4h5 11 1 2l7 3-9 3 2 4-1 2-12 4-6-8z"/>
		<path id="Path 358" class="s76" d="m700 495l-7-3 11 1v1z"/>
		<path id="Path 359" class="s35" d="m744 493l1-1 9 2-4 5z"/>
		<path id="Path 360" class="s13" d="m834 501l4-9h10l4 5v7l-6 4h-10z"/>
		<path id="Path 361" class="s4" d="m376 494l9-1h4l1 4-3 2 1 8v4l-1 13-1 6-4 3-8 1-6-8-1-10 3-4-1-10v-4z"/>
		<path id="Path 362" class="s42" d="m617 499l1-6 9 1 5 6v4l-6 4z"/>
		<path id="Path 363" class="s60" d="m650 495l2-2 6 1 3 12-3 3-5-1-2-4z"/>
		<path id="Path 364" class="s77" d="m704 494v-1h7v1z"/>
		<path id="Path 365" class="s78" d="m711 494v-1h7v1z"/>
		<path id="Path 366" class="s57" d="m742 494l2-1 6 6-2 4-6-3z"/>
		<path id="Path 367" class="s79" d="m754 494l10-1 2 3 7-2h5l6 5 2 15-6 4h-13l-1 6h-6l-3-5-9-1v-15l2-4z"/>
		<path id="Path 368" class="s0" d="m865 498l2-5-1 9 3 1v4l-4-4z"/>
		<path id="Path 369" class="s80" d="m222 520l3-15 10-11h7l2 4 6-1 6 4v13l-1 2-12-1-1 7-8 6h-2v-4l-6-2z"/>
		<path id="Path 370" class="s58" d="m268 500l-7-1-2-5h5l4 2z"/>
		<path id="Path 371" class="s1" d="m348 496l2-2 12 4v4l-7 2h-7z"/>
		<path id="Path 372" class="s42" d="m530 500l-1-6h7 5l4 7-5 5h-5z"/>
		<path id="Path 373" class="s47" d="m586 500l1-4 7-2 18 3v3l-6 3-5-3h-9l-4 3z"/>
		<path id="Path 374" class="s81" d="m639 500l3-6h4l4 1 1 9h-3-7z"/>
		<path id="Path 375" class="s54" d="m661 506l-3-12h5l9 2 2 4-1 3-4 6z"/>
		<path id="Path 376" class="s50" d="m700 495l4-1h7 7 1l1 10-7 3-11-3-9-2-2-4z"/>
		<path id="Path 377" class="s26" d="m736 500v-6h6v6z"/>
		<path id="Path 378" class="s24" d="m314 500l5-5 2 5-1 2z"/>
		<path id="Path 379" class="s57" d="m455 500v-5h5l7 5-3 10-4-1v-7z"/>
		<path id="Path 380" class="s15" d="m332 500v-4h16v8l-7 6h-7z"/>
		<path id="Path 381" class="s66" d="m390 497l4-1v6l-1 4-5 1-1-8z"/>
		<path id="Path 382" class="s60" d="m564 500l3-4h5 4l2 6-2 10v2h-4l-1-5-7-5z"/>
		<path id="Path 383" class="s43" d="m121 502l10-5-3 4-5 3h-2z"/>
		<path id="Path 384" class="s45" d="m157 502l2-4 10 5 4 8-5 2v3h-4l-1-7-5 1z"/>
		<path id="Path 385" class="s16" d="m362 502v-4h7v4z"/>
		<path id="Path 386" class="s33" d="m612 500l5-1 9 9v4h-16l-5-1v-2l1-6z"/>
		<path id="Path 387" class="s62" d="m211 501l3-1 3 6-3 2h-4z"/>
		<path id="Path 388" class="s33" d="m288 502l8-2v4l-5 2h-3z"/>
		<path id="Path 389" class="s25" d="m298 504l4-4h12l6 2 1-2h11l2 10-1 3-24 3-4-7-7-1z"/>
		<path id="Path 390" class="s57" d="m444 512l-6-6v-5l4-1 3 6h5v6z"/>
		<path id="Path 391" class="s51" d="m454 502l1-2 5 2v7h-3z"/>
		<path id="Path 392" class="s47" d="m464 510l3-10h5l2 8 14 2v4l-6 3-8-1-10-3z"/>
		<path id="Path 393" class="s60" d="m528 508l-6-2v-5l8-1z"/>
		<path id="Path 394" class="s47" d="m528 508l2-8 5 6-4 6z"/>
		<path id="Path 395" class="s33" d="m561 507l-4-1v-6h7v4z"/>
		<path id="Path 396" class="s51" d="m583 504l3-4 2 3v1z"/>
		<path id="Path 397" class="s35" d="m588 503l4-3h9l-1 7 5 2v2l-1 9-4 3h-2l-2-3h-6l-5-9 3-7z"/>
		<path id="Path 398" class="s27" d="m605 509l-5-2 1-7 5 3z"/>
		<path id="Path 399" class="s66" d="m632 504v-4h3 4l2 4h7l-5 6h-6z"/>
		<path id="Path 400" class="s44" d="m673 503l1-3 6 8-3 1z"/>
		<path id="Path 401" class="s31" d="m732 506v-4l4-2h6l6 3v15l-1 6h-5l-5-6v-5l-1-5z"/>
		<path id="Path 402" class="s24" d="m816 504l6-4h1l-1 7-6 1z"/>
		<path id="Path 403" class="s37" d="m816 508l6-1 1-7 11 1 2 7-4 3v7l-6 1-3-4h-7z"/>
		<path id="Path 404" class="s69" d="m123 504l5-3 6 1v4l-6 4z"/>
		<path id="Path 405" class="s0" d="m118 505l3-3v2z"/>
		<path id="Path 406" class="s59" d="m140 506l4-4h13l1 8-2 10-6 4-6-3v-7h-4z"/>
		<path id="Path 407" class="s66" d="m282 506l3-4h3v4z"/>
		<path id="Path 408" class="s21" d="m355 504l7-2h7l1 10-3 4h-8l-8 13-13 5v-6l1-8h9l7-7z"/>
		<path id="Path 409" class="s26" d="m393 506l1-4 6 6-7 2z"/>
		<path id="Path 410" class="s50" d="m450 506l4-4 3 7v3l-7 4v-4z"/>
		<path id="Path 411" class="s38" d="m692 504l1-2 9 2v7l-6 8-4-2z"/>
		<path id="Path 412" class="s53" d="m263 516l8-13 11 3h6 3l-1 4-14 2-5 8h-7z"/>
		<path id="Path 413" class="s46" d="m405 508v-4l3-1 4 6-2 4z"/>
		<path id="Path 414" class="s70" d="m669 509l4-6 4 6v3z"/>
		<path id="Path 415" class="s4" d="m868 560l4-19-4-3-5-17 2-18 4 4 5 15 3 7 1 1 1 20v1l-2 6v2l-3 2z"/>
		<path id="Path 416" class="s80" d="m118 505l3-1h2l5 6v6l-7 5-3 3h-8l-4 4h-6l1-8 2-3 5-5z"/>
		<path id="Path 417" class="s31" d="m291 506l5-2h2v4l-4 2h-4z"/>
		<path id="Path 418" class="s32" d="m334 510h7l7-6h7v9l-7 7h-9l-6-7z"/>
		<path id="Path 419" class="s47" d="m561 507l3-3 7 5 1 5-4 2-7-4z"/>
		<path id="Path 420" class="s74" d="m582 510l1-6h5l-3 7z"/>
		<path id="Path 421" class="s44" d="m626 508l6-4 5 6h6l1 10 3 12v4h-5l-1-7-5-12-5-5h-5z"/>
		<path id="Path 422" class="s46" d="m643 510l5-6h3l2 4-3 7-2 5h-4z"/>
		<path id="Path 423" class="s66" d="m680 508l12-4v13l-4 3v6l10 2 6 18-2 8h-1l-6-6 1-11-5-2-3 3-7-4-2-3h-9l1-13h5l1-6v-3z"/>
		<path id="Path 424" class="s82" d="m702 511v-7l11 3-2 10-2 1h-4z"/>
		<path id="Path 425" class="s31" d="m713 507l7-3 8 2-1 7-1 10h-4l-1-7-7 3-3-2z"/>
		<path id="Path 426" class="s14" d="m836 508h10l6-4 2 26 4 3v5h-8-10v-8l-6-1-2-11v-7z"/>
		<path id="Path 427" class="s0" d="m108 512l6-7h4z"/>
		<path id="Path 428" class="s45" d="m422 507l5-2 7 6v7h-4l-8-7z"/>
		<path id="Path 429" class="s58" d="m128 510l6-4h6v8l-4 4h-1l-7-2z"/>
		<path id="Path 430" class="s50" d="m388 507l5-1v4l-1 1h-4z"/>
		<path id="Path 431" class="s44" d="m658 509l3-3 8 3 8 3-1 6h-5-11z"/>
		<path id="Path 432" class="s82" d="m727 513l1-7h4l4 2 1 5z"/>
		<path id="Path 433" class="s81" d="m424 527l-3-8-7-5 1-7h7v4l8 7v8z"/>
		<path id="Path 434" class="s50" d="m488 510l8-3 3 12-2 1h-4l-1 4-3 3v7 5 2l-2 2-5-6v-13-7l6-3z"/>
		<path id="Path 435" class="s22" d="m158 510l5-1 1 7-8 4z"/>
		<path id="Path 436" class="s50" d="m206 514l4-6h4v12h-6z"/>
		<path id="Path 437" class="s83" d="m294 510l4-2 7 1 4 7-11 16h-9l-5 4 2 11-4 1-4-7v-9l6-9 10-3z"/>
		<path id="Path 438" class="s53" d="m393 510l7-2h5l5 5v13 1h-3l-6-9-3 1-6-3v-5z"/>
		<path id="Path 439" class="s53" d="m650 515l3-7 5 1 2 9-3 1z"/>
		<path id="Path 440" class="s33" d="m457 512v-3h3l4 1v3l-1 1z"/>
		<path id="Path 441" class="s63" d="m180 511l3-1 4 1-1 4-3 1z"/>
		<path id="Path 442" class="s79" d="m271 520l5-8 14-2h4v10l-10 3-6 9-8-2z"/>
		<path id="Path 443" class="s50" d="m580 512l2-2 3 1 5 9h6l2 3-5 6v5l-1 4-4 4h-6v-4l4-4v-8l-6-4z"/>
		<path id="Path 444" class="s58" d="m168 516v-3l5-2h7l3 5-3 3h-8z"/>
		<path id="Path 445" class="s49" d="m387 524l1-13h4v5 7z"/>
		<path id="Path 446" class="s51" d="m600 523l4-3 1-9 5 1v14l-8 2z"/>
		<path id="Path 447" class="s27" d="m696 519l6-8 3 7-2 8h-5z"/>
		<path id="Path 448" class="s82" d="m443 517l1-5h6v4 5z"/>
		<path id="Path 449" class="s42" d="m450 516l7-4 6 2 1 8-3 3v8l6 2 3 5v3h-1l-5-3-3 5-9-1-1-10 3-2v-7l-4-4z"/>
		<path id="Path 450" class="s47" d="m576 514v-2h4v10h-3z"/>
		<path id="Path 451" class="s47" d="m610 526v-14h16v20 10l-4-1-1-6-6-3z"/>
		<path id="Path 452" class="s61" d="m626 532v-20h5l5 5 5 12z"/>
		<path id="Path 453" class="s84" d="m309 516l24-3 6 7-1 8h-7l-4 5-7 1h-13l-12 6-3 3-3 19-4 7-9 3v-7l6-7v-10l4-1-2-11 5-4h9z"/>
		<path id="Path 454" class="s58" d="m463 514l1-1 10 3v6h-2-8z"/>
		<path id="Path 455" class="s46" d="m726 523l1-10h10v5l5 6-2 6h-7z"/>
		<path id="Path 456" class="s40" d="m136 518l4-4h4v7l6 3v7h-4-3l-3-7v-5z"/>
		<path id="Path 457" class="s42" d="m192 516l6-2v8h-3z"/>
		<path id="Path 458" class="s57" d="m198 522v-8h8l2 6v7z"/>
		<path id="Path 459" class="s48" d="m255 516l1-2 7 2 1 4-2 2-7-2z"/>
		<path id="Path 460" class="s70" d="m568 516l4-2h4l1 8-9 2z"/>
		<path id="Path 461" class="s27" d="m780 518l6-4h19l1 6v10l-10 1 2 8h6v5l-5 5-17-1-2-16z"/>
		<path id="Path 462" class="s53" d="m183 516l3-1 6 1 3 6-2 4h-13-10l-2-2 4-5h8z"/>
		<path id="Path 463" class="s31" d="m234 528l8-6 1-7 12 1v4l-1 12 3 2-1 2h-6l-13 16h-10l-13-1v-1l4-6h18l2-7-4-3z"/>
		<path id="Path 464" class="s45" d="m474 516l8 1v7l-8-2z"/>
		<path id="Path 465" class="s57" d="m644 520h4l2-5 7 4v11l-2 2h-8z"/>
		<path id="Path 466" class="s24" d="m806 520h6l4-5h7l3 4v13l1 4-1 2h-13l-7-8z"/>
		<path id="Path 467" class="s44" d="m121 521l7-5 7 2-2 5-3 3-8 1v-1z"/>
		<path id="Path 468" class="s61" d="m156 520l8-4h4l4 3-4 5-7 6-1 1-4 1-6-1v-7z"/>
		<path id="Path 469" class="s6" d="m338 534l13-5 8-13h8l1 10 6 8-1 2-9 6-3 4-3 5-5 2-7 10-7 4-9 3-16 9h-4-4l-8 7-18 1-3-2-2-7 1-6 9-3 4-7 8-6h7l2-9 8-7h6 6l1-4z"/>
		<path id="Path 470" class="s27" d="m392 523v-7l6 3v8h-3z"/>
		<path id="Path 471" class="s42" d="m714 519l7-3 1 7-2 9-6-2-1-8z"/>
		<path id="Path 472" class="s12" d="m98 522l5-5-2 3z"/>
		<path id="Path 473" class="s57" d="m440 522l3-5 7 4 4 4v7l-3 2h-3v-8l-8-2z"/>
		<path id="Path 474" class="s53" d="m698 528l-10-2v-6l4-3 4 2 2 7z"/>
		<path id="Path 475" class="s26" d="m709 518l2-1 3 2-1 3h-4z"/>
		<path id="Path 476" class="s34" d="m133 523l2-5h1l4 1v5z"/>
		<path id="Path 477" class="s50" d="m398 519l3-1 6 9h3v10h-5l-2 5h-3l-2-2-3-8v-5h3z"/>
		<path id="Path 478" class="s40" d="m430 526v-8h4l3 4z"/>
		<path id="Path 479" class="s69" d="m533 520l17-1 2 10-7 2-6-4-3 6-6-9z"/>
		<path id="Path 480" class="s38" d="m657 519l3-1h11l-1 13-4 1-9-2z"/>
		<path id="Path 481" class="s85" d="m703 526l2-8h4v4l-1 6z"/>
		<path id="Path 482" class="s86" d="m747 524l1-6 9 1 3 5v4h-11z"/>
		<path id="Path 483" class="s87" d="m766 524l1-6h13v14h-12z"/>
		<path id="Path 484" class="s19" d="m826 519l6-1 2 11-2 3h-6z"/>
		<path id="Path 485" class="s74" d="m497 520l2-1 5 1 1 6 4-2h3l1 6-4 6h-7l-6-2v-7z"/>
		<path id="Path 486" class="s42" d="m98 522l3-2-1 8-7 3 1-4z"/>
		<path id="Path 487" class="s47" d="m208 527v-7h6v8h-5z"/>
		<path id="Path 488" class="s70" d="m214 528v-8h8l4 2v5l-4 2-7 2z"/>
		<path id="Path 489" class="s25" d="m257 534l-3-2 1-12 7 2-3 11z"/>
		<path id="Path 490" class="s74" d="m262 522l2-2h7l-1 10-6 4-5-1z"/>
		<path id="Path 491" class="s31" d="m492 524l1-4h4l-1 7z"/>
		<path id="Path 492" class="s31" d="m509 524l-4 2-1-6z"/>
		<path id="Path 493" class="s55" d="m118 524l3-3 1 5z"/>
		<path id="Path 494" class="s0" d="m93 527l5-5-4 5z"/>
		<path id="Path 495" class="s41" d="m193 526l2-4h3l10 5 1 1v2l-16-1z"/>
		<path id="Path 496" class="s47" d="m226 527v-5l6 2v4h-1z"/>
		<path id="Path 497" class="s61" d="m430 526l7-4h3v2l4 10-2 6-1 4-6 2-2-6h-7l-2-10v-3z"/>
		<path id="Path 498" class="s47" d="m470 540l-3-5-6-2v-8l3-3h8l1 15z"/>
		<path id="Path 499" class="s61" d="m473 537l-1-15h2l8 2v13z"/>
		<path id="Path 500" class="s81" d="m512 524v-2l16 3 1 11v5l6 3 1 8h-15l-3-4 2-16-7-2z"/>
		<path id="Path 501" class="s81" d="m568 524l9-2h3l6 4v8l-4 4-10 2h-4l-4-5-1-3z"/>
		<path id="Path 502" class="s31" d="m708 528l1-6h4l1 8 6 2 6 10-5 1-4-5h-6z"/>
		<path id="Path 503" class="s38" d="m130 526l3-3 7 1 3 7-3 1-10-2z"/>
		<path id="Path 504" class="s33" d="m387 524l5-1 3 4v5l-4 2-5-2v-2z"/>
		<path id="Path 505" class="s80" d="m593 534v-5l5-6h2l2 5v8l-2 5-4-2v-4z"/>
		<path id="Path 506" class="s33" d="m720 532l2-9h4l7 7h7v6 9l4 7 4 1v5l-2 4h-4l-3-9-6-1-2-7-5-3z"/>
		<path id="Path 507" class="s71" d="m106 528l4-4h8l4 2v1l-2 3-12 6-2-1z"/>
		<path id="Path 508" class="s41" d="m161 530l7-6 2 2v6l-5 1z"/>
		<path id="Path 509" class="s53" d="m444 534l-4-10 8 2v8z"/>
		<path id="Path 510" class="s38" d="m489 534v-7l3-3 4 3v7z"/>
		<path id="Path 511" class="s49" d="m528 525l2-1 6 9v3h-7z"/>
		<path id="Path 512" class="s82" d="m740 530l2-6h5l2 4-2 8h-7z"/>
		<path id="Path 513" class="s31" d="m760 528v-4h6l2 8-7 1z"/>
		<path id="Path 514" class="s75" d="m122 527l8-1v4l-2 2-8-2z"/>
		<path id="Path 515" class="s37" d="m170 532v-6h10v10h-9z"/>
		<path id="Path 516" class="s20" d="m180 536v-10h13v3l-3 7z"/>
		<path id="Path 517" class="s47" d="m410 527v-1l14 4 2 10v2h-8-6l-2-5z"/>
		<path id="Path 518" class="s69" d="m602 528l8-2 5 6-1 4h-12z"/>
		<path id="Path 519" class="s87" d="m698 528v-2h5l5 2 3 10-3 8h-4z"/>
		<path id="Path 520" class="s43" d="m86 539l7-12h1l-1 4-1 3-4 6v7 3h-2z"/>
		<path id="Path 521" class="s53" d="m222 529l4-2 5 1-9 2z"/>
		<path id="Path 522" class="s26" d="m536 533l3-6 6 4 7-2 2 3-2 22h-6v-2-4l-4-1-6-11z"/>
		<path id="Path 523" class="s62" d="m93 531l7-3h6v7l-8 1-6-2z"/>
		<path id="Path 524" class="s34" d="m209 530v-2h5l1 3 7-2v1l-4 8z"/>
		<path id="Path 525" class="s25" d="m222 530l9-2h1 2v6l4 3-2 7h-18v-6z"/>
		<path id="Path 526" class="s32" d="m327 533l4-5h7v6l-11 2z"/>
		<path id="Path 527" class="s75" d="m747 536l2-8h11l1 5-6 7h-5z"/>
		<path id="Path 528" class="s1" d="m190 536l3-7 16 1 9 8v6l-4 6h-19l-1-4v-7z"/>
		<path id="Path 529" class="s28" d="m626 532l15-3 1 7v12 6l-6 5-8-2 2-11-4-4z"/>
		<path id="Path 530" class="s16" d="m832 532l2-3 6 1v8l-2 2-6-4z"/>
		<path id="Path 531" class="s26" d="m108 536l12-6 8 2 2-2 10 2v5l-4 2v14l-3 1-1 10-2 8 2 6-4-1-5-2-5-1-2-1-8-3-10-8v-3-3l8-5v-5z"/>
		<path id="Path 532" class="s48" d="m160 531l1-1 4 3-3 4-2-1z"/>
		<path id="Path 533" class="s88" d="m264 534l6-4 8 2v9l4 7v10l-6 7-4-5h-10-4l1-8z"/>
		<path id="Path 534" class="s66" d="m382 533l4-3v2l-2 2h-2z"/>
		<path id="Path 535" class="s47" d="m509 536l4-6 7 2-2 16-7-6z"/>
		<path id="Path 536" class="s75" d="m655 532l2-2 9 2 10 12 2 10v4l-7 4v4l-4 1v-4l-5-4v-4l-5-3v-1l3-1-3-7z"/>
		<path id="Path 537" class="s15" d="m804 539h-6l-2-8 10-1 7 8z"/>
		<path id="Path 538" class="s2" d="m879 550l-1-20 3 4v16z"/>
		<path id="Path 539" class="s82" d="m140 532l3-1h3l-1 6h-5z"/>
		<path id="Path 540" class="s33" d="m145 537l1-6h4l6 1v4l-4 10-7-4z"/>
		<path id="Path 541" class="s39" d="m156 532l4-1v5h-4z"/>
		<path id="Path 542" class="s47" d="m666 532l4-1h9l2 3-5 10z"/>
		<path id="Path 543" class="s24" d="m165 533l5-1 1 4-1 8h-8v-7z"/>
		<path id="Path 544" class="s28" d="m384 534l2-2 5 2 1 3-2 7-6-2z"/>
		<path id="Path 545" class="s27" d="m391 534l4-2 3 8-6-3z"/>
		<path id="Path 546" class="s75" d="m552 554l2-22h9l1 3-3 7 12 11 1 2-1 9-7 2-2-3-1-4h-7l-4-2z"/>
		<path id="Path 547" class="s82" d="m614 536l1-4 6 3 1 6-4 1z"/>
		<path id="Path 548" class="s82" d="m647 536v-4h8l2 11-3 2-4-1z"/>
		<path id="Path 549" class="s79" d="m761 533l7-1h12l2 16h-12l-2-6h-7l-1 15-3 2-7-6v-13h5z"/>
		<path id="Path 550" class="s36" d="m827 536l-1-4h6v4z"/>
		<path id="Path 551" class="s80" d="m257 534l2-1 5 1-5 18h-5l2-16z"/>
		<path id="Path 552" class="s21" d="m320 534l7-1v3l-1 4h-6z"/>
		<path id="Path 553" class="s39" d="m374 534l8-1v1l-8 3-1-1z"/>
		<path id="Path 554" class="s51" d="m88 547v-7l4-6 6 2v10l-3 2z"/>
		<path id="Path 555" class="s32" d="m289 562l3-19 3-3 12-6h13v6h-6l-8 7-2 9h-7z"/>
		<path id="Path 556" class="s61" d="m374 537l8-3h2v8l6 2v8l-3 3-13-9-2-2z"/>
		<path id="Path 557" class="s44" d="m442 540l2-6h4 3l1 10-2 1z"/>
		<path id="Path 558" class="s37" d="m489 539v-5h7v5l-2 1z"/>
		<path id="Path 559" class="s69" d="m496 539v-5l6 2-1 3z"/>
		<path id="Path 560" class="s26" d="m592 538l1-4 3 1v4z"/>
		<path id="Path 561" class="s28" d="m676 544l5-10 7 4 1 10-4 6h-7z"/>
		<path id="Path 562" class="s57" d="m98 536l8-1 2 1-2 10h-8z"/>
		<path id="Path 563" class="s47" d="m573 553l-12-11 3-7 4 5h4z"/>
		<path id="Path 564" class="s45" d="m688 538l3-3 5 2-1 11h-6z"/>
		<path id="Path 565" class="s41" d="m152 546l4-10h4l2 1v7l-8 4z"/>
		<path id="Path 566" class="s29" d="m170 544l1-8h9 10l4 3v7l-22 2z"/>
		<path id="Path 567" class="s79" d="m237 552l13-16h6l-2 16-6 5-6 3h-4z"/>
		<path id="Path 568" class="s38" d="m364 542l9-6 1 1-2 7h-4z"/>
		<path id="Path 569" class="s75" d="m496 539h5l1-3h7l2 6 7 6 3 4 1 4 6 2 2 8h-6l-8-4-3-6-3 2-5-5 1-3-5-1-7-9z"/>
		<path id="Path 570" class="s66" d="m536 552l-1-8-6-3v-5h7l6 11-1 2-4 3z"/>
		<path id="Path 571" class="s74" d="m600 541l2-5h12l4 6v4h-4v4l4 3v3h-3l-10-12h-5z"/>
		<path id="Path 572" class="s57" d="m642 548v-12h5l3 8-2 4z"/>
		<path id="Path 573" class="s27" d="m748 553l-4-1-4-7v-9h7l3 4v13z"/>
		<path id="Path 574" class="s29" d="m826 538l1-2h5l6 4v8l-4 1v3h-6l-2-6z"/>
		<path id="Path 575" class="s31" d="m136 553v-14l4-2h5v5l7 4 2 2 3 8h33v8l-17-2-9 2h-10l-2-4z"/>
		<path id="Path 576" class="s42" d="m390 544l2-7 6 3 2 2 1 6-1 14h-4l-12-2-10-1-2-5v-4l2-4 13 9 3-3z"/>
		<path id="Path 577" class="s82" d="m400 542h3l2-5h5l2 5h6l1 8-9 2-3-4h-6z"/>
		<path id="Path 578" class="s28" d="m470 540l3-3h9l5 6 1 6-2 10h-3l-13-16z"/>
		<path id="Path 579" class="s45" d="m572 540l10-2v4 2l-4 3v6l-4 2-1-2z"/>
		<path id="Path 580" class="s89" d="m588 542l4-4 4 1 4 2v3l-2 8h-5l-6-2v-3z"/>
		<path id="Path 581" class="s75" d="m708 546l3-8h6l4 5 5-1 5 3 2 7v3l-7-1-12-2h-2z"/>
		<path id="Path 582" class="s37" d="m804 539l9-1h13v8h-9l-8 9-3 2v7l-8 2h-2l3-17 5-5z"/>
		<path id="Path 583" class="s13" d="m838 540l2-2h10v10l-1 1-11-1z"/>
		<path id="Path 584" class="s17" d="m850 548v-10h8l1 7z"/>
		<path id="Path 585" class="s80" d="m489 541v-2l5 1 7 9 4 4 5 5v4h-7l-1 4h-8v-6l2-5-5-5 1-6z"/>
		<path id="Path 586" class="s66" d="m426 542v-2h7l2 6-2 5-6-3z"/>
		<path id="Path 587" class="s49" d="m441 544l1-4 8 5v5h-4z"/>
		<path id="Path 588" class="s31" d="m461 545l3-5 5 3-1 13h-4l-4-1z"/>
		<path id="Path 589" class="s26" d="m487 543l2-2 3 3-1 6-3-1z"/>
		<path id="Path 590" class="s57" d="m618 542l4-1 4 1 4 4-2 11-4 2h-6v-3-3h2l-2-7z"/>
		<path id="Path 591" class="s42" d="m361 546l3-4 4 2v5l-6-2z"/>
		<path id="Path 592" class="s80" d="m419 550l-1-8h8l1 6-2 4z"/>
		<path id="Path 593" class="s44" d="m582 544v-2h6l-1 5z"/>
		<path id="Path 594" class="s83" d="m757 559l3-2 1-15h7l2 6-4 14-9-1z"/>
		<path id="Path 595" class="s57" d="m468 556l1-13h1l13 16h3l8 1v6l-2 6h-6-6l-3-4-3-10z"/>
		<path id="Path 596" class="s73" d="m654 545l3-2 3 7-3 1z"/>
		<path id="Path 597" class="s37" d="m154 548l8-4h8l2 4 22-2 1 4-5 6h-33z"/>
		<path id="Path 598" class="s27" d="m368 549v-5h4l2 2-2 4z"/>
		<path id="Path 599" class="s57" d="m435 546l6-2 5 6-2 2-5-1v5l-5 1-1-6z"/>
		<path id="Path 600" class="s82" d="m450 545l2-1 9 1-1 10-10-3v-2z"/>
		<path id="Path 601" class="s61" d="m578 553v-6l4-3 5 3v3 2z"/>
		<path id="Path 602" class="s79" d="m598 552l2-8h5l10 12h-4l-6-3v4l-1 3h-2z"/>
		<path id="Path 603" class="s31" d="m648 548l2-4 4 1 3 6v1l-3 1-6-3z"/>
		<path id="Path 604" class="s31" d="m95 548l3-2h8v5l-8 5-3-1z"/>
		<path id="Path 605" class="s26" d="m358 551l3-5 1 1v5z"/>
		<path id="Path 606" class="s31" d="m618 553l-4-3v-4h4l2 7z"/>
		<path id="Path 607" class="s79" d="m702 554l2-8h4l4 6h-4v4l-2 1z"/>
		<path id="Path 608" class="s19" d="m809 555l8-9h9l2 6h6l1 7 11 2v9h-9l-4 6h-21l-1-8 3-7-1-5z"/>
		<path id="Path 609" class="s48" d="m88 550v-3l7 1v7l3 1v3h-5l-5-7z"/>
		<path id="Path 610" class="s79" d="m362 552v-5l6 2 4 1v4z"/>
		<path id="Path 611" class="s73" d="m541 549l1-2 4 1v4z"/>
		<path id="Path 612" class="s79" d="m400 562l1-14h6l3 4 9-2 6 2 4 7 1 9-22 1z"/>
		<path id="Path 613" class="s31" d="m425 552l2-4 6 3 1 6-5 2z"/>
		<path id="Path 614" class="s31" d="m501 549l5 1-1 3z"/>
		<path id="Path 615" class="s50" d="m642 554v-6h6v2l-4 4z"/>
		<path id="Path 616" class="s81" d="m685 554l4-6h6l6 6-1 4-4-3h-4l-1 3h-5z"/>
		<path id="Path 617" class="s25" d="m766 562l4-14h12l17 1-3 17h-10-6z"/>
		<path id="Path 618" class="s16" d="m834 552v-3l4-1 11 1v9l-3 3-11-2z"/>
		<path id="Path 619" class="s66" d="m486 559l2-10 3 1 5 5-2 5z"/>
		<path id="Path 620" class="s74" d="m537 552l4-3 5 3v2 3l-1 7-1 10v6l-2 8-1 1-1 1-8-3-2-3h-6v-8-10h6l5-2z"/>
		<path id="Path 621" class="s20" d="m541 588h1v1h-1z"/>
		<path id="Path 622" class="s0" d="m86 552v-2h2v2z"/>
		<path id="Path 623" class="s25" d="m190 556l5-6h19v1l-3 5-11 8-8 1-2-1z"/>
		<path id="Path 624" class="s74" d="m444 552l2-2h4v2 4z"/>
		<path id="Path 625" class="s75" d="m587 552v-2l6 2v5l-5 1z"/>
		<path id="Path 626" class="s75" d="m644 554l4-4 6 3v2l-4 3h-6z"/>
		<path id="Path 627" class="s82" d="m211 556l3-5 13 1-3 4h-10z"/>
		<path id="Path 628" class="s87" d="m353 553l5-2 4 1 10 2 2 5-6 5-12-2z"/>
		<path id="Path 629" class="s87" d="m434 557l5-1v-5l5 1 6 4v12h-20l-1-9z"/>
		<path id="Path 630" class="s87" d="m224 556l3-4h10l1 8-12 2h-2z"/>
		<path id="Path 631" class="s73" d="m248 557l6-5h5l-1 8-1 2h-2v-3l-7 1z"/>
		<path id="Path 632" class="s79" d="m450 556v-4l10 3 4 1 1 10 5 2v4l-4 1-3-4-3 3-10-4z"/>
		<path id="Path 633" class="s47" d="m530 566l-2-8-6-2-1-4h15 1l-2 12z"/>
		<path id="Path 634" class="s42" d="m578 553l9-1 1 6v10h-3l-12-4 1-9z"/>
		<path id="Path 635" class="s85" d="m588 558l5-1v-5h5l4 8-3 8h-5-6z"/>
		<path id="Path 636" class="s79" d="m654 553l3-1 5 3v4h-3l-5-4z"/>
		<path id="Path 637" class="s86" d="m708 556v-4h4 2v4z"/>
		<path id="Path 638" class="s88" d="m714 556v-4l12 2v8l-5 5h-3v-7z"/>
		<path id="Path 639" class="s48" d="m733 555v-3l6 1 3 9 1 7-9-2v-5z"/>
		<path id="Path 640" class="s88" d="m132 564l1-10 3-1 16 7 2 4-12 2z"/>
		<path id="Path 641" class="s89" d="m346 563l7-10 3 9 2 16-8 4-2-2-2-8z"/>
		<path id="Path 642" class="s73" d="m605 557v-4l6 3z"/>
		<path id="Path 643" class="s38" d="m748 558v-5h2l7 6v2 1h-4z"/>
		<path id="Path 644" class="s86" d="m546 557v-3h6v3 7 5h-3v5h-5l1-10 4-1z"/>
		<path id="Path 645" class="s61" d="m636 559l6-5h2v4 9l-5 1h-3z"/>
		<path id="Path 646" class="s50" d="m671 566v-4l7-4v-4h7l1 4v8h-14z"/>
		<path id="Path 647" class="s74" d="m700 558l1-4h1l4 3 3 10h-9z"/>
		<path id="Path 648" class="s87" d="m726 562v-8l7 1 1 7z"/>
		<path id="Path 649" class="s89" d="m650 558l4-3 5 4-1 8h-8z"/>
		<path id="Path 650" class="s57" d="m691 558l1-3h4l4 3v9l-8-1z"/>
		<path id="Path 651" class="s24" d="m806 564v-7l3-2 4 1 1 5-3 7h-3z"/>
		<path id="Path 652" class="s74" d="m200 564l11-8h3v8z"/>
		<path id="Path 653" class="s75" d="m214 564v-8h10v6z"/>
		<path id="Path 654" class="s87" d="m470 568l-5-2-1-10h4l6 2 3 10z"/>
		<path id="Path 655" class="s79" d="m510 558l3-2 3 6h-6z"/>
		<path id="Path 656" class="s90" d="m605 557l6-1h4 3v3l-1 4-10 1-3-4z"/>
		<path id="Path 657" class="s90" d="m706 557l2-1h6l4 4v7h-9z"/>
		<path id="Path 658" class="s85" d="m242 560l6-3v3l-3 4z"/>
		<path id="Path 659" class="s79" d="m545 564l1-7 3 6z"/>
		<path id="Path 660" class="s62" d="m552 564v-7l4 2v5z"/>
		<path id="Path 661" class="s51" d="m624 559l4-2 8 2v9h-5l-6-2z"/>
		<path id="Path 662" class="s69" d="m644 567v-9h6v9l-6 1z"/>
		<path id="Path 663" class="s33" d="m686 566v-8h5l1 8z"/>
		<path id="Path 664" class="s23" d="m746 562l2-4 5 4-1 2z"/>
		<path id="Path 665" class="s4" d="m846 561l3-3 11 2-1 14v1l-11 1-2-6z"/>
		<path id="Path 666" class="s65" d="m108 570l-7-2-8-9h5v3z"/>
		<path id="Path 667" class="s56" d="m248 560l7-1v3l-1 7 4 2 2 7 2 8h15v4l-6 4h-55l2-12h6l6-8 6-1 9-9z"/>
		<path id="Path 668" class="s88" d="m356 562l12 2 6-5 10 1 2 8v11l-4 1-12-1-4-1h-7-1z"/>
		<path id="Path 669" class="s89" d="m556 564v-5h7l1 4z"/>
		<path id="Path 670" class="s91" d="m617 563l1-4h6l1 7 6 2v5l-3 1 1 4-3 4h-6l-2-1z"/>
		<path id="Path 671" class="s74" d="m658 567l1-8h3l5 4v4 1 1h-1-6z"/>
		<path id="Path 672" class="s7" d="m874 561l3-2-1 6-4 3z"/>
		<path id="Path 673" class="s91" d="m226 562l12-2h4l3 4-9 9-6 1v-4l-4-2z"/>
		<path id="Path 674" class="s90" d="m257 562l1-2h4v4z"/>
		<path id="Path 675" class="s91" d="m262 564v-4h10l4 5v7l-1 6-5-1-1-4-7-2z"/>
		<path id="Path 676" class="s75" d="m386 568l-2-8 12 2v6z"/>
		<path id="Path 677" class="s91" d="m599 568l3-8h2l3 4-7 5z"/>
		<path id="Path 678" class="s6" d="m859 574l1-14h8l6 1-2 7-8 5z"/>
		<path id="Path 679" class="s37" d="m757 562v-1l9 1 14 4v8h-8l-4-1h-6l-6-2v-1l5-1z"/>
		<path id="Path 680" class="s88" d="m164 564l9-2 17 2 2 1-4 5h-10-14z"/>
		<path id="Path 681" class="s92" d="m214 564l10-2h2v6h-11z"/>
		<path id="Path 682" class="s80" d="m258 571l-4-2 1-7h2l5 2v7z"/>
		<path id="Path 683" class="s88" d="m396 568v-6h4l8 7 22-1h20l10 4v7l-7 5h-5-8l-4-1h-4l-8 1-5-2-6-2-2-4h-10z"/>
		<path id="Path 684" class="s86" d="m502 566l1-4h7 6l8 4v10l-8 3-7-1z"/>
		<path id="Path 685" class="s27" d="m721 567l5-5h8v5l-9 1z"/>
		<path id="Path 686" class="s93" d="m743 569l-1-7h4l6 2 1-2h4l4 7-5 1h-5-6z"/>
		<path id="Path 687" class="s69" d="m339 567l7-4v9h-8z"/>
		<path id="Path 688" class="s73" d="m556 564l8-1 2 3-2 4-12-1v-5z"/>
		<path id="Path 689" class="s94" d="m607 564l10-1 1 18h-12l-4-1-2-6v-5z"/>
		<path id="Path 690" class="s90" d="m130 572l2-8 10 2v6z"/>
		<path id="Path 691" class="s92" d="m142 566l12-2h10v6 6h-18l-4-4z"/>
		<path id="Path 692" class="s94" d="m192 565l8-1h14l1 4h11l4 2v4l-6 8h-6l-9-4-17 1-8 6v5l-3 1-8-1-16-4-11-3v-7h18l12 6 2-12h10z"/>
		<path id="Path 693" class="s85" d="m566 566l7-2 12 4 1 6h8 2v6 5h-6l-8-1-6-1-11-6-1-7z"/>
		<path id="Path 694" class="s15" d="m798 566l8-2 2 4v8h-10z"/>
		<path id="Path 695" class="s75" d="m492 572l2-6h8l7 12v6h-12-3z"/>
		<path id="Path 696" class="s43" d="m667 567l4-1h1l-5 2z"/>
		<path id="Path 697" class="s24" d="m780 574v-8h6l-3 8z"/>
		<path id="Path 698" class="s1" d="m783 574l3-8h10 2v10l-15-1z"/>
		<path id="Path 699" class="s75" d="m330 570l9-3-1 5-6 4z"/>
		<path id="Path 700" class="s18" d="m639 568l5-1v1l-5 2z"/>
		<path id="Path 701" class="s10" d="m644 568l6-1h8l2 2-2 19h-8l-16-4v-1-5-4l5-4z"/>
		<path id="Path 702" class="s43" d="m725 568l9-1 9 2 2 1h-1z"/>
		<path id="Path 703" class="s87" d="m386 579v-11h10l5 8-1 3-9 1z"/>
		<path id="Path 704" class="s89" d="m470 572v-4h7l3 4-6 9-2-1z"/>
		<path id="Path 705" class="s91" d="m594 574h-8l-1-6h3 6z"/>
		<path id="Path 706" class="s73" d="m594 574v-6h5l1 1v5h-4z"/>
		<path id="Path 707" class="s75" d="m631 573v-5h5 3v2l-5 4z"/>
		<path id="Path 708" class="s16" d="m808 576v-8h3l1 8z"/>
		<path id="Path 709" class="s90" d="m460 572l3-3 3 4 4-1 2 8-10 2-2-3z"/>
		<path id="Path 710" class="s91" d="m549 574v-5h3l12 1 1 7-3 2-2-3h-6z"/>
		<path id="Path 711" class="s5" d="m658 588l2-19h6l-4 14v5l-2 1z"/>
		<path id="Path 712" class="s43" d="m662 583l4-14h1l-1 9z"/>
		<path id="Path 713" class="s91" d="m164 576v-6h14l-2 12z"/>
		<path id="Path 714" class="s26" d="m314 579l16-9 2 6v4l-1 12-7 1-7-1-3-4z"/>
		<path id="Path 715" class="s0" d="m751 572l-7-2h1 6z"/>
		<path id="Path 716" class="s67" d="m751 572v-2h5v1 1z"/>
		<path id="Path 717" class="s6" d="m833 576l4-6h9l2 6-5 2-10-1z"/>
		<path id="Path 718" class="s71" d="m260 578l-2-7h4l7 2 1 4z"/>
		<path id="Path 719" class="s64" d="m756 572v-1l6 2z"/>
		<path id="Path 720" class="s91" d="m132 578l-2-6h12l4 4v7h-2l-6-2-2-1-3-2z"/>
		<path id="Path 721" class="s80" d="m332 576l6-4h8l2 8-4 2-12-2z"/>
		<path id="Path 722" class="s80" d="m474 581l6-9h6l-2 15v1h-3l-7-2z"/>
		<path id="Path 723" class="s69" d="m484 587l2-15h6l2 12-5 5h-1z"/>
		<path id="Path 724" class="s82" d="m629 578l-1-4 3-1 3 1v4z"/>
		<path id="Path 725" class="s11" d="m772 575l-4-2 4 1z"/>
		<path id="Path 726" class="s2" d="m859 574l5-1-5 2z"/>
		<path id="Path 727" class="s85" d="m544 580v-6h5l5 2v4z"/>
		<path id="Path 728" class="s92" d="m596 580v-6h4l2 6h-2z"/>
		<path id="Path 729" class="s64" d="m772 575v-1h8 3v1z"/>
		<path id="Path 730" class="s11" d="m833 577l-50-2 15 1h10 4 21z"/>
		<path id="Path 731" class="s2" d="m848 576l11-1-16 3z"/>
		<path id="Path 732" class="s24" d="m400 579l1-3h10l2 4z"/>
		<path id="Path 733" class="s89" d="m516 579l8-3v8h-4z"/>
		<path id="Path 734" class="s73" d="m554 580v-4h6l2 3-1 2h-5z"/>
		<path id="Path 735" class="s62" d="m260 578l10-1 5 1 2 7v1h-15z"/>
		<path id="Path 736" class="s75" d="m562 579l3-2 11 6v8l-6-1-8-3-1-6z"/>
		<path id="Path 737" class="s52" d="m184 590v-5l8-6 17-1 9 4-2 12h-18l-8-1h-1l-3-1z"/>
		<path id="Path 738" class="s48" d="m350 582l8-4h1l1 4 6-1 4-2 12 1-1 4-3 5-9 7-2 8h-3l-7-6v-5l-7-3z"/>
		<path id="Path 739" class="s31" d="m366 581l-6 1-1-4h7z"/>
		<path id="Path 740" class="s24" d="m366 581v-3l4 1z"/>
		<path id="Path 741" class="s57" d="m509 584v-6l7 1 4 5v7l-3 1-7-2z"/>
		<path id="Path 742" class="s95" d="m626 582l3-4h5v5h-6z"/>
		<path id="Path 743" class="s37" d="m298 586l8-7h4v8l-8 3z"/>
		<path id="Path 744" class="s87" d="m310 587v-8h4v9z"/>
		<path id="Path 745" class="s34" d="m382 580l4-1 5 1-1 4h-9z"/>
		<path id="Path 746" class="s8" d="m391 580l9-1 13 1 6 2 1 4h4 8v1l3 6-3 2v9h-6l-5-8h-5l-3-3h-13l-16-1-6-3 3-5h9z"/>
		<path id="Path 747" class="s57" d="m453 584l7-5 2 3v2h-5z"/>
		<path id="Path 748" class="s11" d="m138 582l-2-2 2 1z"/>
		<path id="Path 749" class="s41" d="m331 592l1-12 12 2 4-2 2 2v8l-14 4z"/>
		<path id="Path 750" class="s69" d="m462 582l10-2 2 1v5h-10l-2-2z"/>
		<path id="Path 751" class="s69" d="m542 588l2-8h10l2 1v4l-4 4 6 2-1 3z"/>
		<path id="Path 752" class="s88" d="m596 585v-5h4v6h-2z"/>
		<path id="Path 753" class="s90" d="m600 586v-6h2l4 1v5z"/>
		<path id="Path 754" class="s64" d="m138 582v-1l6 2z"/>
		<path id="Path 755" class="s80" d="m556 585v-4h5l1 6h-3z"/>
		<path id="Path 756" class="s88" d="m606 586v-5h12l2 1 1 8-11-1z"/>
		<path id="Path 757" class="s36" d="m424 586h-4l-1-4 5 2z"/>
		<path id="Path 758" class="s31" d="m621 590l-1-8h6l2 1v5l-2 2z"/>
		<path id="Path 759" class="s64" d="m158 588l-14-5h2l11 3z"/>
		<path id="Path 760" class="s13" d="m424 584l8-1v3h-8z"/>
		<path id="Path 761" class="s11" d="m440 585l-4-2 4 1z"/>
		<path id="Path 762" class="s82" d="m576 591v-8l6 1v5l-2 3z"/>
		<path id="Path 763" class="s29" d="m628 588v-5h6v1l-2 4z"/>
		<path id="Path 764" class="s64" d="m440 585v-1h8v1z"/>
		<path id="Path 765" class="s77" d="m448 585v-1h5 4v1h-1z"/>
		<path id="Path 766" class="s29" d="m457 585v-1h5l2 2h-1z"/>
		<path id="Path 767" class="s35" d="m489 589l5-5h3v8z"/>
		<path id="Path 768" class="s42" d="m497 592v-8h12l1 6-3 4-4-1h-5z"/>
		<path id="Path 769" class="s22" d="m520 591v-7h4 6l2 3-4 5z"/>
		<path id="Path 770" class="s26" d="m582 589v-5l8 1v5z"/>
		<path id="Path 771" class="s17" d="m632 588l2-4 16 4 1 4 6 2v1l-5 5-3 3-2 1-5 4-5 2-6-5z"/>
		<path id="Path 772" class="s51" d="m277 586v-1l3 2 11 4v3h-20l6-4z"/>
		<path id="Path 773" class="s64" d="m463 587l-7-2h1l6 1z"/>
		<path id="Path 774" class="s82" d="m558 591l-6-2 4-4 3 2z"/>
		<path id="Path 775" class="s24" d="m590 590v-5h6l2 1v5z"/>
		<path id="Path 776" class="s96" d="m158 588l-1-2 16 4h-2z"/>
		<path id="Path 777" class="s49" d="m280 587l18-1 4 4v3l-3 4 4 4h-2l-1-1-2-2h-1l-6-3v-1-3z"/>
		<path id="Path 778" class="s78" d="m463 587v-1h1 10l7 2z"/>
		<path id="Path 779" class="s31" d="m598 591v-5h2 6l4 3-2 4h-8z"/>
		<path id="Path 780" class="s34" d="m302 590l8-3 4 1 3 4 7 1v10l-2 3-4 5-2-1-4-2-3-4h3v-4l-10-7z"/>
		<path id="Path 781" class="s76" d="m435 593l-3-6 5 5v1z"/>
		<path id="Path 782" class="s48" d="m484 588v-1l4 2z"/>
		<path id="Path 783" class="s23" d="m520 591l8 1 4-5 8 3 3 5-7 8h-3l-12-6-4-5z"/>
		<path id="Path 784" class="s48" d="m558 591l1-4h3l8 3 2 7-3 3-12-4v-2z"/>
		<path id="Path 785" class="s12" d="m498 593l-10-1-4-4 4 1h1l8 3z"/>
		<path id="Path 786" class="s10" d="m541 589l1-1 15 6v2l-4 4-10-5-3-5z"/>
		<path id="Path 787" class="s5" d="m626 590l2-2h4l-1 17-5-1z"/>
		<path id="Path 788" class="s4" d="m657 594l-6-2-1-4h8l2 1-1 4z"/>
		<path id="Path 789" class="s2" d="m660 589l2-1-3 5z"/>
		<path id="Path 790" class="s5" d="m367 604l2-8 9-7 6 3v15l6 5v2h-6l-15-6z"/>
		<path id="Path 791" class="s42" d="m580 592l2-3 8 1 8 1 2 2v5h-3z"/>
		<path id="Path 792" class="s29" d="m608 593l2-4 11 1h5v14l-4 1-8 1h-10l-4-2-3-6h3 9z"/>
		<path id="Path 793" class="s12" d="m185 593l-14-3h2l8 1 4 1z"/>
		<path id="Path 794" class="s53" d="m181 591l3-1 2 2h-1z"/>
		<path id="Path 795" class="s22" d="m336 594l14-4 7 3v5l7 6v2l-11 1-11-3-6-3z"/>
		<path id="Path 796" class="s20" d="m507 594l3-4 7 2 4 5-2 5-6-2-3-2z"/>
		<path id="Path 797" class="s19" d="m572 597l-2-7 6 1 4 1 17 6 3 6-2 4-8 2-10-4-1-7z"/>
		<path id="Path 798" class="s97" d="m185 593v-1h1l3 1z"/>
		<path id="Path 799" class="s41" d="m190 593l8 1h-2z"/>
		<path id="Path 800" class="s39" d="m324 593l7-1 5 2v7l-3 1-9 1z"/>
		<path id="Path 801" class="s9" d="m390 612l-6-5v-15l16 1 2 19z"/>
		<path id="Path 802" class="s43" d="m437 593v-1l15 11v4l-9-9z"/>
		<path id="Path 803" class="s64" d="m196 595l-7-2h1l6 1z"/>
		<path id="Path 804" class="s61" d="m303 601l-4-4 3-4 10 7v4h-3-1l-3-2z"/>
		<path id="Path 805" class="s14" d="m402 612l-2-19h13l3 3 2 16-4 1v5l-12-1z"/>
		<path id="Path 806" class="s10" d="m432 604v-9l3-2h2l6 5-3 6z"/>
		<path id="Path 807" class="s64" d="m510 598l-7-5 4 1z"/>
		<path id="Path 808" class="s53" d="m600 598v-5h8l1 5z"/>
		<path id="Path 809" class="s2" d="m657 594l2-1-2 2z"/>
		<path id="Path 810" class="s97" d="m196 595v-1h2 18 55 20v1z"/>
		<path id="Path 811" class="s93" d="m536 603l7-8 10 5 10 5 4 6-4 4-7-1-8-3-10-5z"/>
		<path id="Path 812" class="s17" d="m418 612l-2-16h5l5 8h6 8v7l8 5 2 5-1 2-2 2-5 3h-10-1l-3-6-11-4z"/>
		<path id="Path 813" class="s9" d="m553 600l4-4 12 4 8 6v9l-5 2-5-6-4-6z"/>
		<path id="Path 814" class="s10" d="m519 602l2-5 12 6-3 5h-1-1l-5-3-4-2z"/>
		<path id="Path 815" class="s37" d="m569 600l3-3 7 2 1 7h-3z"/>
		<path id="Path 816" class="s64" d="m299 600l-1-2 2 2z"/>
		<path id="Path 817" class="s5" d="m440 604l3-6 9 9 2 5-2 8-2 1-2-5-8-5z"/>
		<path id="Path 818" class="s64" d="m513 600l6 2v1z"/>
		<path id="Path 819" class="s2" d="m301 602l-2-2h1l1 1z"/>
		<path id="Path 820" class="s64" d="m301 602v-1h2l2 1 3 2v1z"/>
		<path id="Path 821" class="s8" d="m333 602l3-1 6 3v3l-9-1z"/>
		<path id="Path 822" class="s17" d="m324 603l9-1v4h-3-8z"/>
		<path id="Path 823" class="s13" d="m530 608l3-5h3l2 3-3 5z"/>
		<path id="Path 824" class="s43" d="m308 605v-1h1l3 4z"/>
		<path id="Path 825" class="s5" d="m342 607v-3l11 3v4h-8z"/>
		<path id="Path 826" class="s10" d="m364 606v-2h3l2 4h-5z"/>
		<path id="Path 827" class="s4" d="m598 608l2-4 4 2v2z"/>
		<path id="Path 828" class="s17" d="m614 606l8-1v5h-5z"/>
		<path id="Path 829" class="s4" d="m622 605l4-1 5 1 6 5-4 3-1 1h-7l-3-4z"/>
		<path id="Path 830" class="s13" d="m318 611l4-5h8v8l3 2v4l-6-2-4-3-2-2-3-1z"/>
		<path id="Path 831" class="s3" d="m333 616l-3-2v-8h3l9 1 3 4-5 5z"/>
		<path id="Path 832" class="s8" d="m353 607l11-1v2l-1 3h-10z"/>
		<path id="Path 833" class="s19" d="m535 611l3-5 10 5-3 5-4-1-3-1-1-1z"/>
		<path id="Path 834" class="s4" d="m577 615v-9h3l10 4v8h-3l-9-3z"/>
		<path id="Path 835" class="s3" d="m604 608v-2h10l3 4h5l3 4-6 3-3 1-8 1z"/>
		<path id="Path 836" class="s14" d="m363 611l1-3h5l15 6-1 8h-7z"/>
		<path id="Path 837" class="s0" d="m537 613l-6-1-2-4h1l5 3z"/>
		<path id="Path 838" class="s6" d="m590 610l8-2h6l4 11v1l-18-2z"/>
		<path id="Path 839" class="s0" d="m637 610l5-2-2 4-7 1z"/>
		<path id="Path 840" class="s11" d="m318 612l-2-2 2 1z"/>
		<path id="Path 841" class="s6" d="m340 616l5-5h8 10l13 11h7l1-8h6l12 3 12 1h3l11 4 3 6v1l-12 1-16 1h-7l-23-1h-8l-9-3-8-2-7-2h-1z"/>
		<path id="Path 842" class="s14" d="m545 616l3-5 8 3v7l-8-3h-2z"/>
		<path id="Path 843" class="s8" d="m563 615l4-4 5 6v1l-2 2z"/>
		<path id="Path 844" class="s8" d="m390 614v-2h12v5z"/>
		<path id="Path 845" class="s3" d="m414 618v-5l4-1-1 6z"/>
		<path id="Path 846" class="s2" d="m452 620l2-8 2 4z"/>
		<path id="Path 847" class="s9" d="m556 621v-7l7 1 7 5v2z"/>
		<path id="Path 848" class="s2" d="m619 617l6-3h7z"/>
		<path id="Path 849" class="s11" d="m546 618l-5-3 4 1z"/>
		<path id="Path 850" class="s16" d="m333 620v-4h7v7h-4z"/>
		<path id="Path 851" class="s0" d="m570 623l-19-1-3-4 8 3 14 1z"/>
		<path id="Path 852" class="s2" d="m570 620l2-2-2 5v-1z"/>
		<path id="Path 853" class="s2" d="m608 619l8-1-8 2z"/>
		<path id="Path 854" class="s11" d="m450 621l2-1-3 3z"/>
		<path id="Path 855" class="s7" d="m431 628h1v1h-1z"/>
		<path id="Path 856" class="s0" d="m419 630l12-1h1z"/>
		<path id="Path 857" class="s0" d="m373 632v-2l23 1v1z"/>
		<path id="Path 858" class="s11" d="m403 631l16-1v2h-16z"/>
		<path id="Path 859" class="s2" d="m396 632v-1h7v1z"/>
	</g>
</svg>