<svg version="1.2" xmlns="http://www.w3.org/2000/svg" viewBox="0 0 1000 1000" width="1000" height="1000">
	<title>Fundulus_dispar</title>
	<style>
		.s0 { opacity: .3;fill: #f5f5f4 } 
		.s1 { fill: #fdfefd } 
		.s2 { fill: #efeeea } 
		.s3 { fill: #f4f5f4 } 
		.s4 { fill: #d6d6cc } 
		.s5 { fill: #e3e2d1 } 
		.s6 { opacity: .5;fill: #f2f1f0 } 
		.s7 { fill: #c1c1a1 } 
		.s8 { fill: #798a67 } 
		.s9 { fill: #e1e3e6 } 
		.s10 { opacity: .7;fill: #f4f3f1 } 
		.s11 { opacity: .7;fill: #d3d5ce } 
		.s12 { opacity: .8;fill: #bcc2b9 } 
		.s13 { fill: #c9d7d8 } 
		.s14 { fill: #bac4b7 } 
		.s15 { fill: #aeb49b } 
		.s16 { opacity: .1;fill: #f9f9f6 } 
		.s17 { opacity: .1;fill: #e3e2e0 } 
		.s18 { opacity: .1;fill: #ced0c7 } 
		.s19 { opacity: .1;fill: #96a18a } 
		.s20 { fill: #c9cbac } 
		.s21 { opacity: .9;fill: #d9dbd6 } 
		.s22 { opacity: .8;fill: #a7b2aa } 
		.s23 { fill: #7e937c } 
		.s24 { fill: #738a71 } 
		.s25 { fill: #698065 } 
		.s26 { fill: #6e794e } 
		.s27 { fill: #ced1b9 } 
		.s28 { fill: #dddcbe } 
		.s29 { opacity: .2;fill: #b6bbb2 } 
		.s30 { fill: #65744b } 
		.s31 { fill: #a9bbb5 } 
		.s32 { opacity: .5;fill: #c9cdc5 } 
		.s33 { opacity: .4;fill: #a3b0a5 } 
		.s34 { fill: #c4cac7 } 
		.s35 { fill: #ebe8db } 
		.s36 { fill: #5b7954 } 
		.s37 { opacity: .7;fill: #b3b6a6 } 
		.s38 { fill: #b3c4c0 } 
		.s39 { fill: #9bab95 } 
		.s40 { fill: #768055 } 
		.s41 { fill: #899c86 } 
		.s42 { fill: #688b77 } 
		.s43 { fill: #b6bcaa } 
		.s44 { fill: #b8b592 } 
		.s45 { fill: #a3b3a8 } 
		.s46 { fill: #8dada2 } 
		.s47 { fill: #92a48c } 
		.s48 { fill: #97b6ae } 
		.s49 { fill: #d5dbd9 } 
		.s50 { fill: #97c3c7 } 
		.s51 { fill: #9ca07d } 
		.s52 { fill: #83a599 } 
		.s53 { fill: #6f9584 } 
		.s54 { fill: #7aabae } 
		.s55 { fill: #a09864 } 
		.s56 { fill: #537766 } 
		.s57 { fill: #598373 } 
		.s58 { fill: #599096 } 
		.s59 { fill: #8d8e61 } 
		.s60 { fill: #8e9775 } 
		.s61 { fill: #538587 } 
		.s62 { fill: #86b8be } 
		.s63 { fill: #699c9c } 
		.s64 { fill: #8a8753 } 
		.s65 { fill: #6a9fa5 } 
		.s66 { fill: #79c3e4 } 
		.s67 { fill: #93d0e7 } 
		.s68 { fill: #779c90 } 
		.s69 { fill: #415a42 } 
		.s70 { fill: #579eb3 } 
		.s71 { fill: #6eb6d4 } 
		.s72 { fill: #aaa677 } 
		.s73 { fill: #c6eaeb } 
		.s74 { fill: #526c4b } 
		.s75 { fill: #061e16 } 
		.s76 { fill: #68abc1 } 
		.s77 { fill: #a9ab88 } 
		.s78 { fill: #304c34 } 
		.s79 { fill: #ade7f3 } 
		.s80 { fill: #b1cfcf } 
		.s81 { fill: #234331 } 
		.s82 { fill: #586e45 } 
		.s83 { opacity: .3;fill: #d8dad4 } 
		.s84 { fill: #0c3632 } 
		.s85 { fill: #536635 } 
		.s86 { fill: #43675c } 
		.s87 { opacity: .5;fill: #9d9f81 } 
		.s88 { opacity: .4;fill: #afb29d } 
		.s89 { opacity: .2;fill: #727f5c } 
		.s90 { opacity: .7;fill: #7c8966 } 
		.s91 { opacity: .7;fill: #98a691 } 
	</style>
	<g id="Background">
		<path id="Path 0" class="s0" d="m624.4 405.6v2.2h-34.4v-2.2z"/>
		<path id="Path 1" class="s1" d="m590 407.8h34.4l5.6 1.1 7.8 4.4h1.1v1.1 8.9l7.8 1.1 2.2 3.4 3.3 6.6-1.1 10-6.7 2.3-5.5-1.1-2.2-4.5h-8.9l-8.9 2.2-8.9-1.1-4.4-10h-15.6-11.1l-4.5-1.1v-10-6.7l1.2-1.1 3.3-2.2 6.7-3.3z"/>
		<path id="Path 2" class="s0" d="m570 414.4l5.6-1.1-1.2 1.1z"/>
		<path id="Path 3" class="s0" d="m638.9 414.4v-1.1l2.2 1.1z"/>
		<path id="Path 4" class="s2" d="m564.4 416.7l5.6-2.3h4.4v6.7h-7.7l-4.5 5.6h-5.5l-1.1-5.6 4.4-2.2z"/>
		<path id="Path 5" class="s3" d="m646.7 424.4l-7.8-1.1v-8.9h2.2l5.6 7.8z"/>
		<path id="Path 6" class="s0" d="m646.7 422.2l-5.6-7.8 4.5 2.3z"/>
		<path id="Path 7" class="s0" d="m543.3 424.4l16.7-5.5-4.4 2.2z"/>
		<path id="Path 8" class="s4" d="m543.3 424.4l12.3-3.3 1.1 5.6v6.6l-2.3 1.1h-3.3-3.3l-14.5-5.5z"/>
		<path id="Path 9" class="s3" d="m562.2 426.7l4.5-5.6h7.7v10l-11.1 1.1z"/>
		<path id="Path 10" class="s0" d="m528.9 427.8l14.4-3.4-10 4.5h-4.4z"/>
		<path id="Path 11" class="s0" d="m797.8 427.8l28.9-2.2 8.9 4.4-3.4-1.1z"/>
		<path id="Path 12" class="s5" d="m556.7 433.3v-6.6h5.5l1.1 5.5z"/>
		<path id="Path 13" class="s1" d="m797.8 427.8l34.4 1.1 2.2 7.8h6.7l2.2 2.2v8.9l-13.3 2.2-5.6-1.1-1.1 6.7 6.7 1.1 17.8 2.2h6.6 8.9l3.4 4.4 7.7-1.1 4.5 10v2.2l-13.3 2.3h-15.6l-32.2 2.2h-5.6-11.1v-4.5l-4.4-2.2-1.1-10v-5.5h-10l-1.2-5.6-16.6-3.3-4.5-6.7h-4.4v-12.2z"/>
		<path id="Path 14" class="s6" d="m492.2 430l36.7-2.2v1.1l-10 1.1h-6.7-10-8.9z"/>
		<path id="Path 15" class="s6" d="m750 430l47.8-2.2-38.9 1.1-8.9 2.2z"/>
		<path id="Path 16" class="s7" d="m518.9 430l10-1.1h4.4l-1.1 3.3-8.9 1.1-4.4-1.1z"/>
		<path id="Path 17" class="s8" d="m532.2 432.2l1.1-3.3 14.5 5.5-2.2 4.5h-6.7z"/>
		<path id="Path 18" class="s3" d="m750 431.1l8.9-2.2v12.2 2.2h-17.8l-4.4-2.2v-4.4-1.1-1.2l5.5-1.1z"/>
		<path id="Path 19" class="s9" d="m841.1 436.7h-6.7l-2.2-7.8 3.4 1.1h4.4l1.1 3.3z"/>
		<path id="Path 20" class="s10" d="m431.1 431.1l23.3-1.1v2.2h-8.8-14.5z"/>
		<path id="Path 21" class="s11" d="m470 430v2.2h-15.6v-2.2z"/>
		<path id="Path 22" class="s12" d="m470 432.2v-2.2h22.2 1.1v2.2z"/>
		<path id="Path 23" class="s13" d="m502.2 430v2.2h-8.9v-2.2z"/>
		<path id="Path 24" class="s14" d="m512.2 430v2.2h-10v-2.2z"/>
		<path id="Path 25" class="s15" d="m518.9 430v2.2h-6.7v-2.2z"/>
		<path id="Path 26" class="s16" d="m742.2 433.3l7.8-3.3v1.1z"/>
		<path id="Path 27" class="s16" d="m386.7 433.3l6.6-2.2v1.1z"/>
		<path id="Path 28" class="s17" d="m403.3 431.1v1.1h-10v-1.1z"/>
		<path id="Path 29" class="s18" d="m403.3 432.2v-1.1h15.6v1.1h-1.1-13.4z"/>
		<path id="Path 30" class="s19" d="m418.9 432.2v-1.1h12.2v1.1h-1.1z"/>
		<path id="Path 31" class="s20" d="m563.3 432.2l11.1-1.1 4.5 1.1v8.9l-11.1-1.1-13.4-3.3v-2.3l2.3-1.1z"/>
		<path id="Path 32" class="s21" d="m386.7 433.3l6.6-1.1h10 1.1v2.2h-3.3-14.4z"/>
		<path id="Path 33" class="s22" d="m404.4 434.4v-2.2h13.4l-5.6 3.4z"/>
		<path id="Path 34" class="s23" d="m412.2 435.6l5.6-3.4h1.1 11.1v8.9 8.9l-6.7 2.2h-8.9l-6.6-1.1-2.2 6.7h-4.5l-4.4-7.8 6.6-5.6 6.7-1.1 4.4-1.1-2.2-4.4z"/>
		<path id="Path 35" class="s24" d="m430 441.1v-8.9h1.1 14.5v16.7l-6.7 1.1v-1.1l-2.2-7.8z"/>
		<path id="Path 36" class="s25" d="m445.6 448.9v-16.7h8.8 15.6 23.3 8.9 10 6.7l4.4 1.1v13.4l-4.4 5.5-28.9 2.2z"/>
		<path id="Path 37" class="s26" d="m523.3 433.3l8.9-1.1 6.7 6.7v6.7l-4.5 1.1h-11.1z"/>
		<path id="Path 38" class="s27" d="m578.9 441.1v-8.9h11.1v13.4h-4.4z"/>
		<path id="Path 39" class="s28" d="m590 445.6v-13.4h15.6l4.4 10v5.6z"/>
		<path id="Path 40" class="s16" d="m365.6 435.6l11.1-2.3v1.1l-10 1.2z"/>
		<path id="Path 41" class="s29" d="m376.7 434.4v-1.1h10v1.1h-3.4z"/>
		<path id="Path 42" class="s2" d="m841.1 436.7v-3.4l5.6 5.6h-3.4z"/>
		<path id="Path 43" class="s4" d="m366.7 435.6l10-1.2h6.6z"/>
		<path id="Path 44" class="s25" d="m366.7 435.6l16.6-1.2h3.4 14.4l2.2 10-6.6 5.6h-11.1-4.5-8.9l-15.5 2.2-42.3 3.4-6.6-5.6v-7.8l4.4-1.1h3.4 8.8l13.4-2.2h1.1 6.7 7.7l10-3.3h2.3z"/>
		<path id="Path 45" class="s24" d="m403.3 444.4l-2.2-10h3.3l7.8 1.2v2.2l-2.2 5.5z"/>
		<path id="Path 46" class="s30" d="m545.6 438.9l2.2-4.5h3.3l1.1 2.3v2.2z"/>
		<path id="Path 47" class="s7" d="m552.2 436.7l-1.1-2.3h3.3v2.3z"/>
		<path id="Path 48" class="s0" d="m345.6 436.7l13.3-1.1-5.6 1.1-7.7 1.1z"/>
		<path id="Path 49" class="s31" d="m353.3 436.7l5.6-1.1h4.4l-10 3.3z"/>
		<path id="Path 50" class="s0" d="m725.6 438.9l11.1-3.3v1.1z"/>
		<path id="Path 51" class="s0" d="m323.3 438.9l10-2.2-1.1 2.2h-7.8z"/>
		<path id="Path 52" class="s32" d="m332.2 438.9l1.1-2.2h5.6v2.2h-1.1z"/>
		<path id="Path 53" class="s33" d="m338.9 438.9v-2.2h6.7v1.1 1.1z"/>
		<path id="Path 54" class="s34" d="m345.6 437.8l7.7-1.1v2.2h-7.7z"/>
		<path id="Path 55" class="s26" d="m552.2 438.9v-2.2h2.2l13.4 3.3v10h-5.6v-3.3l-5.5-1.1z"/>
		<path id="Path 56" class="s35" d="m725.6 438.9l11.1-2.2v4.4l4.4 2.2v4.5h-18.9l-1.1-6.7z"/>
		<path id="Path 57" class="s36" d="m410 443.3l2.2-5.5 2.2 4.4z"/>
		<path id="Path 58" class="s6" d="m306.7 441.1l8.9-2.2v2.2h-3.4z"/>
		<path id="Path 59" class="s37" d="m315.6 441.1v-2.2h7.7 1.1v2.2z"/>
		<path id="Path 60" class="s31" d="m324.4 441.1v-2.2h7.8 5.6z"/>
		<path id="Path 61" class="s25" d="m538.9 445.6v-6.7h6.7 6.6l4.5 6.7 5.5 1.1v3.3h-14.4z"/>
		<path id="Path 62" class="s0" d="m720 441.1l5.6-2.2-4.5 2.2z"/>
		<path id="Path 63" class="s3" d="m843.3 447.8v-8.9h3.4l4.4 4.4-1.1 8.9h-2.2v-3.3z"/>
		<path id="Path 64" class="s8" d="m567.8 450v-10l11.1 1.1 6.7 4.5v8.8h-3.4z"/>
		<path id="Path 65" class="s12" d="m292.2 442.2l14.5-1.1h5.5l-4.4 1.1-15.6 1.1z"/>
		<path id="Path 66" class="s25" d="m430 450v-8.9h6.7l2.2 7.8z"/>
		<path id="Path 67" class="s5" d="m618.9 443.3l8.9-2.2v8.9h-1.1-5.6l-2.2-1.1z"/>
		<path id="Path 68" class="s35" d="m627.8 450v-8.9h8.9l2.2 4.5-4.5 4.4z"/>
		<path id="Path 69" class="s16" d="m698.9 446.7l15.5-5.6-8.8 4.5z"/>
		<path id="Path 70" class="s5" d="m705.6 445.6l8.8-4.5h5.6 1.1l1.1 6.7-13.3 2.2z"/>
		<path id="Path 71" class="s35" d="m758.9 443.3v-2.2h4.4l4.5 6.7-1.1 3.3h-7.8z"/>
		<path id="Path 72" class="s17" d="m278.9 444.4l7.8-2.2v1.1z"/>
		<path id="Path 73" class="s29" d="m286.7 443.3v-1.1h5.5v1.1h-4.4z"/>
		<path id="Path 74" class="s23" d="m292.2 443.3l15.6-1.1v7.8l6.6 5.6-4.4 5.5-11.1 1.1-17.8-3.3-3.3-11.1v-2.2h1.1l8.9-2.3z"/>
		<path id="Path 75" class="s27" d="m610 447.8v-5.6l8.9 1.1v5.6z"/>
		<path id="Path 76" class="s21" d="m278.9 444.4l7.8-1.1h1.1l-8.9 2.3z"/>
		<path id="Path 77" class="s4" d="m741.1 447.8v-4.5h17.8v7.8l-2.2 3.3h-11.1z"/>
		<path id="Path 78" class="s0" d="m265.6 446.7l6.6-2.3v1.2l-5.5 1.1z"/>
		<path id="Path 79" class="s17" d="m272.2 445.6v-1.2h6.7v1.2h-1.1z"/>
		<path id="Path 80" class="s11" d="m644.4 446.7l6.7-2.3-5.5 5.6 8.8 3.3v1.1h-5.5l-5.6-4.4z"/>
		<path id="Path 81" class="s38" d="m266.7 446.7l5.5-1.1h5.6v2.2h-11.1z"/>
		<path id="Path 82" class="s39" d="m534.4 446.7l4.5-1.1 8.9 4.4 4.4 17.8-13.3 1.1-6.7-4.5v-7.7z"/>
		<path id="Path 83" class="s40" d="m585.6 454.4v-8.8h4.4l20 2.2 8.9 1.1 2.2 1.1v7.8l-2.2 3.3-5.6 2.2h-7.7l-13.4-2.2z"/>
		<path id="Path 84" class="s20" d="m634.4 450l4.5-4.4 5.5 1.1-1.1 3.3 5.6 4.4h-5.6z"/>
		<path id="Path 85" class="s27" d="m698.9 446.7l6.7-1.1 3.3 4.4v2.2l-7.8 1.1-2.2-5.5z"/>
		<path id="Path 86" class="s32" d="m247.8 447.8l17.8-1.1h1.1v1.1l-18.9 2.2v-1.1z"/>
		<path id="Path 87" class="s41" d="m518.9 452.2l4.4-5.5h11.1l-2.2 10-4.4 2.2h-5.6z"/>
		<path id="Path 88" class="s0" d="m686.7 450l12.2-3.3v1.1z"/>
		<path id="Path 89" class="s0" d="m242.2 448.9l5.6-1.1v1.1z"/>
		<path id="Path 90" class="s42" d="m247.8 450l18.9-2.2h11.1l3.3 11.1-11.1 4.4-20 2.3-6.7-1.2-2.2-12.2z"/>
		<path id="Path 91" class="s43" d="m686.7 450l12.2-2.2 2.2 5.5v11.1 7.8l-2.2 2.2-20 1.2-10-1.2-3.3-7.7 12.2-5.6v-5.5-2.3l1.1-1.1z"/>
		<path id="Path 92" class="s44" d="m708.9 450l13.3-2.2h18.9l4.5 6.6 7.7 23.4 3.4 5.5 18.9-1.1 2.2 5.6h14.4 18.9l4.5 6.6 2.2 7.8-7.8 1.1h-15.6v-7.7l-3.3-3.4h-8.9l-3.3 8.9h-6.7-6.6-8.9l-6.7-2.2-1.1-11.1-5.6-4.5h-7.7l-6.7-11.1-10-2.2-6.7-6.7v-8.9l-3.3-2.2z"/>
		<path id="Path 93" class="s4" d="m766.7 451.1l1.1-3.3 16.6 3.3 1.2 5.6-2.3 2.2h-11.1z"/>
		<path id="Path 94" class="s34" d="m830 450l13.3-2.2 4.5 1.1v3.3 6.7l-17.8-2.2z"/>
		<path id="Path 95" class="s6" d="m232.2 452.2l10-3.3h5.6v1.1l-6.7 2.2h-3.3z"/>
		<path id="Path 96" class="s45" d="m430 450l8.9-1.1v1.1 11.1l-2.2 7.8-3.4 1.1h-3.3v-5.6l-6.7-4.4v-7.8z"/>
		<path id="Path 97" class="s31" d="m438.9 450l6.7-1.1 44.4 5.5v8.9l-16.7 3.4-14.4-1.1-11.1-2.3-8.9-2.2z"/>
		<path id="Path 98" class="s4" d="m830 456.7l-6.7-1.1 1.1-6.7 5.6 1.1z"/>
		<path id="Path 99" class="s46" d="m356.7 452.2l15.5-2.2v6.7l-13.3 2.2z"/>
		<path id="Path 100" class="s38" d="m372.2 456.7v-6.7h8.9v4.4z"/>
		<path id="Path 101" class="s46" d="m385.6 450v4.4h-4.5v-4.4z"/>
		<path id="Path 102" class="s31" d="m385.6 454.4v-4.4h11.1l4.4 7.8v3.3h-7.8l-4.4 6.7h-3.3z"/>
		<path id="Path 103" class="s47" d="m552.2 467.8l-4.4-17.8h14.4 5.6l14.4 4.4 3.4 6.7 1.1 8.9-1.1 11.1-10 1.1-14.5-14.4z"/>
		<path id="Path 104" class="s26" d="m621.1 457.8v-7.8h5.6l3.3 8.9z"/>
		<path id="Path 105" class="s8" d="m630 458.9l-3.3-8.9h1.1 6.6l8.9 4.4v5.6l4.5 3.3-4.5 8.9 7.8 3.4 14.5 3.3 3.3-4.5 10 1.2v15.5l11.1 7.8v8.9l-18.9 1.1h-20l-14.4 3.3-7.8-7.8-3.3-5.5v-7.8l-7.8-5.5 4.4-6.7h11.1l5.6-5.6v-8.9z"/>
		<path id="Path 106" class="s45" d="m405.6 457.8l2.2-6.7 6.6 1.1-4.4 6.7h-4.4z"/>
		<path id="Path 107" class="s7" d="m745.6 454.4h11.1l2.2-3.3h7.8l5.5 7.8v8.9l-2.2 8.9-16.7 1.1z"/>
		<path id="Path 108" class="s17" d="m214.4 455.6l11.2-3.4-5.6 2.2z"/>
		<path id="Path 109" class="s12" d="m220 454.4l5.6-2.2h6.6 5.6l-17.8 4.5z"/>
		<path id="Path 110" class="s25" d="m220 456.7l17.8-4.5h3.3l2.2 12.2-4.4 2.3h-7.8l-11.1 1.1-2.2-11.1z"/>
		<path id="Path 111" class="s48" d="m314.4 455.6l42.3-3.4 2.2 6.7 13.3-2.2 8.9-2.3h4.5v13.4 4.4l-6.7 2.2-12.2-2.2-6.7 8.9h-15.6v-4.4l-8.8 1.1h-11.2l-11.1-5.6-6.6 2.2h-8.9l-1.1 6.7 5.5 2.2 4.5-2.2 10 5.6v10 3.3l-15.6 1.1-5.5-8.9-1.2-6.6h-6.6l1.1 8.8-1.1 6.7h-6.7l-6.7-12.2v-5.6l-6.6-3.3 2.2-16.7 11.1-4.4 17.8 3.3 11.1-1.1z"/>
		<path id="Path 112" class="s39" d="m405.6 458.9h4.4l4.4-6.7h8.9v7.8l6.7 4.4v5.6l-4.4 3.3-17.8 1.1-2.2-12.2z"/>
		<path id="Path 113" class="s45" d="m490 454.4l28.9-2.2 3.3 6.7v5.5l-22.2 2.3-10-3.4z"/>
		<path id="Path 114" class="s16" d="m664.4 453.3l10-1.1v1.1l-2.2 1.1h-7.8z"/>
		<path id="Path 115" class="s6" d="m674.4 453.3v-1.1h4.5l-1.1 1.1z"/>
		<path id="Path 116" class="s7" d="m701.1 453.3l7.8-1.1 3.3 2.2v8.9l-11.1 1.1z"/>
		<path id="Path 117" class="s4" d="m847.8 458.9v-6.7h2.2 4.4v6.7z"/>
		<path id="Path 118" class="s9" d="m854.4 458.9v-6.7h11.2l3.3 3.4 5.5 3.3v2.2 1.1l-7.7 1.1-3.4-4.4z"/>
		<path id="Path 119" class="s17" d="m654.4 454.4v-1.1h10v1.1h-2.2-6.6z"/>
		<path id="Path 120" class="s45" d="m672.2 454.4l2.2-1.1h3.4v2.3l-6.7 1.1z"/>
		<path id="Path 121" class="s21" d="m214.4 455.6l5.6-1.2v2.3h-2.2-3.4z"/>
		<path id="Path 122" class="s23" d="m585.6 461.1l-3.4-6.7h3.4l6.6 6.7z"/>
		<path id="Path 123" class="s30" d="m647.8 463.3l-4.5-3.3v-5.6h5.6 5.5 1.2l3.3 2.3v10l-6.7 1.1z"/>
		<path id="Path 124" class="s12" d="m658.9 456.7l-3.3-2.3h6.6v2.3z"/>
		<path id="Path 125" class="s21" d="m662.2 456.7v-2.3h2.2 7.8l-1.1 2.3z"/>
		<path id="Path 126" class="s16" d="m204.4 457.8l10-2.2v1.1h-2.2z"/>
		<path id="Path 127" class="s36" d="m671.1 456.7l6.7-1.1v5.5l-12.2 5.6h-6.7v-10h3.3z"/>
		<path id="Path 128" class="s16" d="m874.4 458.9l-5.5-3.3h4.4z"/>
		<path id="Path 129" class="s49" d="m204.4 457.8l7.8-1.1-7.8 2.2z"/>
		<path id="Path 130" class="s23" d="m204.4 458.9l7.8-2.2h2.2 3.4l2.2 11.1-1.1 2.2-7.8 1.1-3.3 5.6-4.5-4.5h-5.5l-1.1-11.1z"/>
		<path id="Path 131" class="s14" d="m527.8 458.9l4.4-2.2v7.7l-4.4 1.2z"/>
		<path id="Path 132" class="s27" d="m783.3 458.9l2.3-2.2h10v5.5l-3.4 1.1h-8.9z"/>
		<path id="Path 133" class="s0" d="m187.8 461.1l16.6-3.3v1.1l-7.7 2.2h-6.7z"/>
		<path id="Path 134" class="s48" d="m401.1 461.1v-3.3h4.5v1.1 3.3z"/>
		<path id="Path 135" class="s41" d="m618.9 461.1l2.2-3.3 8.9 1.1 8.9 5.5v8.9l-5.6 5.6h-11.1l-4.4 6.7h-3.4v-10l-3.3-4.5 2.2-1.1 10 2.2 2.3-2.2v-5.6z"/>
		<path id="Path 136" class="s38" d="m522.2 464.4v-5.5h5.6v6.7z"/>
		<path id="Path 137" class="s20" d="m772.2 467.8v-8.9h11.1v4.4 4.5l-6.6 1.1z"/>
		<path id="Path 138" class="s6" d="m182.2 463.3l5.6-2.2h2.2z"/>
		<path id="Path 139" class="s41" d="m182.2 463.3l7.8-2.2h6.7l1.1 11.1-2.2 5.6 3.3 3.3-2.2 8.9h-7.8l-1.1-2.2v-7.8l-6.7-1.1v-4.5l-4.4-1.1v-7.7l4.4-2.3z"/>
		<path id="Path 140" class="s46" d="m388.9 467.8l4.4-6.7h7.8l4.5 1.1 2.2 12.2-6.7 4.5v4.4h-6.7l-5.5-11.1z"/>
		<path id="Path 141" class="s47" d="m436.7 468.9l2.2-7.8 8.9 2.2v8.9h-8.9z"/>
		<path id="Path 142" class="s14" d="m586.7 470l-1.1-8.9h6.6l13.4 2.2v6.7l-3.4 2.2z"/>
		<path id="Path 143" class="s39" d="m613.3 463.3l5.6-2.2 6.7 3.3v5.6l-2.3 2.2-10-2.2z"/>
		<path id="Path 144" class="s0" d="m874.4 462.2v-1.1l5.6 8.9v2.2h-1.1z"/>
		<path id="Path 145" class="s3" d="m792.2 463.3l3.4-1.1 1.1 10h-2.3-2.2z"/>
		<path id="Path 146" class="s17" d="m170 466.7l11.1-3.4-4.4 2.3z"/>
		<path id="Path 147" class="s50" d="m250 465.6l20-2.3-2.2 16.7-4.5 2.2-8.9-1.1-8.8-2.2v-8.9z"/>
		<path id="Path 148" class="s46" d="m447.8 472.2v-8.9l11.1 2.3v8.8h-8.9z"/>
		<path id="Path 149" class="s23" d="m473.3 466.7l16.7-3.4 10 3.4 22.2-2.3 5.6 1.2 4.4-1.2 6.7 4.5 13.3-1.1h8.9l14.5 14.4-5.6 5.6-4.4-2.2-4.5 2.2h-11.1-8.9l-1.1 6.6h-14.4l-1.2-8.8-3.3-2.3h-31.1l-6.7-3.3-10-3.3z"/>
		<path id="Path 150" class="s31" d="m605.6 470v-6.7h7.7v6.7l-2.2 1.1z"/>
		<path id="Path 151" class="s43" d="m651.1 475.6l-7.8-3.4 4.5-8.9 4.4 4.5z"/>
		<path id="Path 152" class="s51" d="m701.1 464.4l11.1-1.1 6.7 6.7v6.7h-8.9l-2.2-4.5h-6.7z"/>
		<path id="Path 153" class="s35" d="m783.3 467.8v-4.5h8.9v8.9h-6.6z"/>
		<path id="Path 154" class="s52" d="m238.9 466.7l4.4-2.3 6.7 1.2-4.4 4.4h-5.6z"/>
		<path id="Path 155" class="s47" d="m170 466.7l6.7-1.1v7.7l-7.8 1.1v-4.4-2.2z"/>
		<path id="Path 156" class="s41" d="m458.9 474.4v-8.8l14.4 1.1v10l-2.2 1.1-5.5 1.1h-4.5z"/>
		<path id="Path 157" class="s17" d="m147.8 467.8l22.2-1.1-1.1 1.1z"/>
		<path id="Path 158" class="s45" d="m220 467.8l11.1-1.1 1.1 17.7-4.4 1.2-8.9-2.3v-13.3z"/>
		<path id="Path 159" class="s48" d="m232.2 484.4l-1.1-17.7h7.8l1.1 3.3h5.6v8.9l-3.4 5.5h-7.8z"/>
		<path id="Path 160" class="s41" d="m652.2 467.8l6.7-1.1h6.7l3.3 7.7-3.3 4.5-14.5-3.3z"/>
		<path id="Path 161" class="s34" d="m146.7 468.9l1.1-1.1h21.1v2.2h-5.6l-3.3 4.4-18.9 1.2h-4.4v-1.2z"/>
		<path id="Path 162" class="s52" d="m388.9 467.8v4.4h-3.3v-4.4z"/>
		<path id="Path 163" class="s28" d="m770 476.7l2.2-8.9 4.5 1.1v5.5z"/>
		<path id="Path 164" class="s5" d="m776.7 468.9l6.6-1.1 2.3 4.4h6.6 2.2v8.9h-2.2l-16.6 1.1-18.9 1.1-3.4-5.5 16.7-1.1 6.7-2.3z"/>
		<path id="Path 165" class="s0" d="m136.7 474.4l3.3-4.4 6.7-1.1z"/>
		<path id="Path 166" class="s53" d="m433.3 470l3.4-1.1 2.2 3.3-1.1 4.5h-3.4z"/>
		<path id="Path 167" class="s23" d="m160 474.4l3.3-4.4h5.6v4.4l-3.3 5.6h-4.5z"/>
		<path id="Path 168" class="s38" d="m207.8 476.7l3.3-5.6 7.8-1.1v13.3l-8.9-3.3z"/>
		<path id="Path 169" class="s54" d="m407.8 474.4l17.8-1.1 4.4-3.3h3.3l1.1 6.7v8.9l-6.6 2.2v4.4 2.2h-8.9l-2.2-4.4h-6.7l-8.9-6.7v-4.4z"/>
		<path id="Path 170" class="s23" d="m585.6 481.1l1.1-11.1 15.5 2.2 3.4-2.2 5.5 1.1 3.3 4.5v10 8.8h-11.1l-2.2-6.6h-8.9z"/>
		<path id="Path 171" class="s55" d="m718.9 476.7v-6.7l10 2.2 6.7 11.1h7.7l5.6 4.5 1.1 11.1-2.2 8.9-13.4 10v5.5l-2.2 1.1-11.1 3.4-7.8 1.1-4.4-7.8 10-11.1 8.9-2.2v-11.1z"/>
		<path id="Path 172" class="s56" d="m198.9 481.1l-3.3-3.3 2.2-5.6h5.5l4.5 4.5 2.2 3.3-3.3 3.3z"/>
		<path id="Path 173" class="s57" d="m306.7 474.4l6.6-2.2 11.1 5.6-4.4 6.6-3.3 2.3-10-5.6z"/>
		<path id="Path 174" class="s52" d="m360 481.1l6.7-8.9 12.2 2.2-2.2 13.4h-6.7z"/>
		<path id="Path 175" class="s58" d="m378.9 474.4l6.7-2.2h3.3l5.5 11.1-1.1 6.7-7.7 1.1h-7.8l-1.1-3.3z"/>
		<path id="Path 176" class="s52" d="m437.8 476.7l1.1-4.5h8.9l2.2 2.2v6.7 3.3l-6.7 3.4h-1.1v-7.8z"/>
		<path id="Path 177" class="s59" d="m698.9 474.4l2.2-2.2h6.7l2.2 4.5-2.2 8.9-5.6-1.2z"/>
		<path id="Path 178" class="s2" d="m794.4 481.1v-8.9h2.3l4.4 2.2v4.5z"/>
		<path id="Path 179" class="s6" d="m878.9 474.4v-2.2h1.1v5.6z"/>
		<path id="Path 180" class="s25" d="m168.9 474.4l7.8-1.1 4.4 1.1v4.5 6.7l6.7 2.2 1.1 2.2-4.5 2.2-11.1-8.9h-7.7v-3.3z"/>
		<path id="Path 181" class="s0" d="m131.1 477.8l1.1-3.4h4.5v1.2l-3.4 2.2z"/>
		<path id="Path 182" class="s60" d="m141.1 475.6l18.9-1.2 1.1 5.6-6.7 7.8h-11.1l-2.2-2.2z"/>
		<path id="Path 183" class="s52" d="m306.7 481.1l-4.5 2.2-5.5-2.2 1.1-6.7h8.9z"/>
		<path id="Path 184" class="s54" d="m450 481.1v-6.7h8.9l2.2 4.5h4.5l1.1 10-3.4 3.3h-4.4l-3.3-6.6-1.2-4.5z"/>
		<path id="Path 185" class="s40" d="m678.9 475.6l20-1.2 3.3 10 5.6 1.2-1.1 18.8-3.4 5.6-11.1 2.2-2.2-4.4v-8.9l-11.1-7.8z"/>
		<path id="Path 186" class="s4" d="m865.6 476.7l13.3-2.3 1.1 3.4v11.1l-1.1 1.1-10 2.2-3.3-2.2z"/>
		<path id="Path 187" class="s51" d="m133.3 477.8l3.4-2.2h4.4v10l-11.1 3.3z"/>
		<path id="Path 188" class="s61" d="m335.6 477.8l8.8-1.1v4.4l-6.6 3.3z"/>
		<path id="Path 189" class="s62" d="m434.4 485.6v-8.9h3.4l4.4 3.3v7.8h-6.6z"/>
		<path id="Path 190" class="s63" d="m471.1 477.8l2.2-1.1 10 3.3-1.1 14.4h-3.3l-7.8-2.2-1.1-3.3z"/>
		<path id="Path 191" class="s64" d="m707.8 485.6l2.2-8.9h8.9l8.9 20v11.1l-8.9 2.2-10 11.1-14.5 5.6 1.2 10h-4.5l-6.7-2.3h-3.3l-11.1-1.1-2.2-1.1-4.5-6.6v-3.4l6.7-3.3 1.1-10 18.9-1.1 2.2 4.4 11.1-2.2 3.4-5.6z"/>
		<path id="Path 192" class="s14" d="m817.8 478.9l32.2-2.2v8.9l-4.4 2.2-26.7-2.2z"/>
		<path id="Path 193" class="s13" d="m850 485.6v-8.9h15.6v13.3h-10z"/>
		<path id="Path 194" class="s0" d="m125.6 480l5.5-2.2-5.5 4.4z"/>
		<path id="Path 195" class="s4" d="m125.6 482.2l5.5-4.4h2.2l-3.3 11.1v6.7l-3.3-3.4-1.1-1.1z"/>
		<path id="Path 196" class="s0" d="m125.6 491.1h1.1v1.1h-1.1z"/>
		<path id="Path 197" class="s65" d="m320 484.4l4.4-6.6h11.2l2.2 6.6-5.6 10h-6.6z"/>
		<path id="Path 198" class="s66" d="m465.6 478.9l5.5-1.1-1.1 11.1h-3.3z"/>
		<path id="Path 199" class="s48" d="m187.8 487.8l-6.7-2.2v-6.7l6.7 1.1z"/>
		<path id="Path 200" class="s63" d="m242.2 484.4l3.4-5.5 8.8 2.2v6.7h-4.4z"/>
		<path id="Path 201" class="s7" d="m794.4 481.1l6.7-2.2h11.1l-1.1 8.9h-18.9v-6.7z"/>
		<path id="Path 202" class="s43" d="m811.1 487.8l1.1-8.9h5.6l1.1 6.7v8.8h-3.3z"/>
		<path id="Path 203" class="s64" d="m154.4 487.8l6.7-7.8h4.5v3.3 11.1z"/>
		<path id="Path 204" class="s25" d="m206.7 483.3l3.3-3.3 8.9 3.3 8.9 2.3v8.8 6.7l3.3 2.2-1.1 2.3-11.1 4.4v-12.2l-4.5-4.5h-6.6l-6.7 5.6-4.4-8.9 10-1.1z"/>
		<path id="Path 205" class="s8" d="m263.3 482.2l4.5-2.2 6.6 3.3v5.6l-11.1 3.3z"/>
		<path id="Path 206" class="s54" d="m482.2 494.4l1.1-14.4 6.7 3.3h31.1l3.3 2.3 1.2 8.8v7.8l-8.9 3.4v12.2h-4.5l-4.4-3.4 1.1-10h-8.9l-6.7-1.1-1.1-8.9h-8.9z"/>
		<path id="Path 207" class="s45" d="m196.7 490l2.2-8.9 7.8 2.2v5.6z"/>
		<path id="Path 208" class="s53" d="m254.4 487.8v-6.7l8.9 1.1v10 2.2l-7.7 2.3-1.2-2.3z"/>
		<path id="Path 209" class="s62" d="m337.8 484.4l6.6-3.3h15.6l10 6.7-4.4 3.3v14.5l-2.3 2.2h-10l-5.5-8.9h-14.5l-1.1-4.5z"/>
		<path id="Path 210" class="s67" d="m450 484.4v-3.3h4.4l1.2 4.5z"/>
		<path id="Path 211" class="s68" d="m575.6 482.2l10-1.1 6.6 6.7h8.9l2.2 6.6v2.3l-15.5 1.1-15.6-1.1-2.2-8.9z"/>
		<path id="Path 212" class="s20" d="m775.6 482.2l16.6-1.1v6.7h-14.4z"/>
		<path id="Path 213" class="s69" d="m165.6 494.4v-11.1h7.7l11.1 8.9-3.3 2.2 1.1 15.6 14.5 7.8v8.9l-10-6.7-8.9-12.2-7.8-1.1z"/>
		<path id="Path 214" class="s70" d="m393.3 490l1.1-6.7h6.7l8.9 6.7v11.1h-11.1z"/>
		<path id="Path 215" class="s26" d="m227.8 485.6l4.4-1.2h2.2v10h-6.6z"/>
		<path id="Path 216" class="s25" d="m234.4 494.4v-10h7.8l7.8 3.4 1.1 6.6-6.7 3.4-6.6-1.1z"/>
		<path id="Path 217" class="s54" d="m316.7 486.7l3.3-2.3 5.6 10v2.3h-8.9z"/>
		<path id="Path 218" class="s71" d="m443.3 487.8l6.7-3.4 5.6 1.2 3.3 6.6h4.4v2.2 5.6l-4.4 2.2-13.3-1.1z"/>
		<path id="Path 219" class="s72" d="m130 488.9l11.1-3.3 2.2 2.2-2.2 17.8-7.8-4.5-2.2-1.1-1.1-2.2v-2.2z"/>
		<path id="Path 220" class="s73" d="m288.9 494.4l-1.1-8.8h6.6l1.2 6.6z"/>
		<path id="Path 221" class="s61" d="m427.8 492.2v-4.4l6.6-2.2 1.2 2.2v4.4z"/>
		<path id="Path 222" class="s52" d="m561.1 487.8l4.5-2.2 4.4 2.2 2.2 8.9 15.6 1.1v5.5l-8.9 2.3h-5.6-10z"/>
		<path id="Path 223" class="s42" d="m614.4 494.4v-8.8h3.4l7.8 5.5v7.8h-4.5z"/>
		<path id="Path 224" class="s15" d="m818.9 494.4v-8.8l26.7 2.2 2.2 6.6h4.4l-1.1 8.9h-24.4l1.1-6.6z"/>
		<path id="Path 225" class="s43" d="m845.6 487.8l4.4-2.2 5.6 4.4-3.4 4.4h-4.4z"/>
		<path id="Path 226" class="s55" d="m141.1 505.6l2.2-17.8h11.1l11.2 6.6 4.4 12.3-2.2 18.9-11.1-6.7-8.9-5.6-4.5-4.4z"/>
		<path id="Path 227" class="s74" d="m251.1 494.4l-1.1-6.6h4.4v6.6z"/>
		<path id="Path 228" class="s65" d="m365.6 505.6v-14.5l4.4-3.3h6.7l1.1 3.3-1.1 6.7 4.4 5.5-1.1 2.3z"/>
		<path id="Path 229" class="s66" d="m435.6 492.2v-4.4h6.6 1.1l2.3 13.3-6.7 1.1-2.2-3.3z"/>
		<path id="Path 230" class="s54" d="m540 494.4l1.1-6.6h8.9v11.1h-5.6z"/>
		<path id="Path 231" class="s65" d="m550 498.9v-11.1h11.1l2.2 17.8h-7.7l-5.6-2.3z"/>
		<path id="Path 232" class="s7" d="m263.3 492.2l11.1-3.3 6.7 12.2-2.2 3.3-15.6-10z"/>
		<path id="Path 233" class="s61" d="m463.3 492.2l3.4-3.3h3.3l1.1 3.3-1.1 2.2h-6.7z"/>
		<path id="Path 234" class="s32" d="m878.9 490l1.1-1.1v5.5h-1.1z"/>
		<path id="Path 235" class="s75" d="m184.4 492.2l4.5-2.2h7.8l4.4 8.9 2.2 6.7v8.8l-6.6 3.4-14.5-7.8-1.1-15.6z"/>
		<path id="Path 236" class="s76" d="m385.6 491.1l7.7-1.1 5.6 11.1-2.2 7.8-2.3 1.1h-6.6l-2.2-6.7z"/>
		<path id="Path 237" class="s58" d="m410 501.1v-11.1h6.7l2.2 4.4 1.1 5.6 6.7 1.1 1.1 6.7-1.1 2.2-16.7-1.1z"/>
		<path id="Path 238" class="s14" d="m852.2 494.4l3.4-4.4h10l3.3 2.2 3.3 10-7.8 5.6-11.1-2.2-2.2-2.3z"/>
		<path id="Path 239" class="s34" d="m868.9 492.2l10-2.2v4.4l-6.7 7.8z"/>
		<path id="Path 240" class="s70" d="m381.1 503.3l-4.4-5.5 1.1-6.7h7.8v12.2z"/>
		<path id="Path 241" class="s17" d="m128.9 497.8l-2.2-5.6 3.3 3.4v2.2z"/>
		<path id="Path 242" class="s28" d="m288.9 494.4l6.7-2.2 5.5 8.9v8.9h-13.3-8.9v-5.6l2.2-3.3h6.7z"/>
		<path id="Path 243" class="s76" d="m427.8 494.4v-2.2h7.8l1.1 6.7h-7.8z"/>
		<path id="Path 244" class="s76" d="m470 494.4l1.1-2.2 7.8 2.2v8.9h-4.5l-4.4-1.1z"/>
		<path id="Path 245" class="s77" d="m778.9 501.1l3.3-8.9h8.9l3.3 3.4v7.7h-11.1z"/>
		<path id="Path 246" class="s78" d="m201.1 498.9l6.7-5.6h6.6l4.5 4.5v12.2h-1.1l-5.6-4.4h-8.9z"/>
		<path id="Path 247" class="s42" d="m231.1 503.3l-3.3-2.2v-6.7h6.6l3.4 2.3v2.2z"/>
		<path id="Path 248" class="s63" d="m244.4 497.8l6.7-3.4h3.3l1.2 2.3-4.5 4.4-5.5-1.1z"/>
		<path id="Path 249" class="s79" d="m255.6 496.7l7.7-2.3 15.6 10v5.6 4.4l-8.9 5.6v8.9h-4.4l-7.8-1.1-1.1-6.7 2.2-11.1-4.5-1.1-3.3-7.8z"/>
		<path id="Path 250" class="s46" d="m325.6 496.7v-2.3h6.6l1.1 4.5-7.7 1.1z"/>
		<path id="Path 251" class="s71" d="m426.7 501.1l-6.7-1.1-1.1-5.6h8.9l1.1 4.5z"/>
		<path id="Path 252" class="s70" d="m463.3 500v-5.6h6.7v7.8h-2.2z"/>
		<path id="Path 253" class="s71" d="m478.9 503.3v-8.9h3.3 1.1l1.1 7.8-1.1 1.1z"/>
		<path id="Path 254" class="s66" d="m484.4 502.2l-1.1-7.8h8.9l1.1 8.9h-1.1z"/>
		<path id="Path 255" class="s52" d="m525.6 502.2v-7.8h14.4l4.4 4.5h5.6v4.4l-8.9 2.3-11.1-1.2z"/>
		<path id="Path 256" class="s8" d="m603.3 496.7v-2.3h11.1l6.7 4.5v6.7h-2.2-15.6z"/>
		<path id="Path 257" class="s51" d="m817.8 502.2l-2.2-7.8h3.3l8.9 2.3-1.1 6.6z"/>
		<path id="Path 258" class="s6" d="m872.2 502.2l6.7-7.8h1.1v5.6l-14.4 8.9-2.3 7.8 1.1-8.9z"/>
		<path id="Path 259" class="s73" d="m237.8 498.9v-2.2l6.6 1.1 1.2 2.2-7.8 1.1z"/>
		<path id="Path 260" class="s43" d="m316.7 500v-3.3h8.9v3.3l-2.3 3.3h-5.5z"/>
		<path id="Path 261" class="s41" d="m587.8 497.8l15.5-1.1v8.9l-15.5-2.3z"/>
		<path id="Path 262" class="s16" d="m131.1 500l-2.2-2.2h1.1z"/>
		<path id="Path 263" class="s80" d="m231.1 503.3l6.7-4.4v2.2l-3.4 3.3 2.3 5.6v2.2h-5.6l-1.1-6.6z"/>
		<path id="Path 264" class="s27" d="m325.6 500l7.7-1.1h14.5l5.5 8.9-3.3 10-8.9 2.2v7.8h-24.4l-5.6-13.4-10-4.4v-8.9l15.6-1.1 1.1 3.3h5.5z"/>
		<path id="Path 265" class="s61" d="m426.7 501.1l2.2-2.2h7.8l2.2 3.3-4.5 5.6h-6.6z"/>
		<path id="Path 266" class="s60" d="m621.1 505.6v-6.7h4.5l3.3 5.5z"/>
		<path id="Path 267" class="s20" d="m747.8 507.8l2.2-8.9 6.7 2.2-2.3 7.8-3.3 1.1z"/>
		<path id="Path 268" class="s16" d="m133.3 503.3l-2.2-3.3 2.2 1.1z"/>
		<path id="Path 269" class="s3" d="m237.8 501.1l7.8-1.1 5.5 1.1 3.3 7.8-2.2 1.1h-15.5l-2.3-5.6z"/>
		<path id="Path 270" class="s54" d="m458.9 502.2l4.4-2.2 4.5 2.2v1.1l-8.9 1.1z"/>
		<path id="Path 271" class="s32" d="m133.3 503.3v-2.2l7.8 4.5 2.2 3.3h-1.1z"/>
		<path id="Path 272" class="s68" d="m396.7 508.9l2.2-7.8h11.1v7.8l-2.2 2.2z"/>
		<path id="Path 273" class="s53" d="m438.9 502.2l6.7-1.1 13.3 1.1v2.2l2.2 16.7-4.4 2.2-15.6-1.1-6.7-6.6v-7.8z"/>
		<path id="Path 274" class="s14" d="m751.1 510l3.3-1.1 2.3-7.8h8.9v8.9l6.6 2.2 11.1 2.2 20 3.4v5.5 6.7l-2.2 3.3h-11.1l-13.3-6.6-25.6-3.4-1.1-4.4z"/>
		<path id="Path 275" class="s4" d="m772.2 512.2l-6.6-2.2v-8.9h6.6z"/>
		<path id="Path 276" class="s35" d="m772.2 512.2v-11.1h6.7l4.4 2.2v11.1z"/>
		<path id="Path 277" class="s56" d="m467.8 503.3v-1.1h2.2l4.4 1.1v4.5h-5.5z"/>
		<path id="Path 278" class="s53" d="m483.3 503.3l1.1-1.1 7.8 1.1v4.5l-6.6 2.2-3.4-2.2z"/>
		<path id="Path 279" class="s53" d="m516.7 517.8v-12.2l8.9-3.4 4.4 2.2v12.3l-8.9 2.2z"/>
		<path id="Path 280" class="s3" d="m810 503.3l7.8-1.1 8.9 1.1h24.4l2.2 2.3-5.5 6.6-37.8-4.4z"/>
		<path id="Path 281" class="s57" d="m380 505.6l1.1-2.3h4.5l2.2 6.7v3.3l-6.7-2.2z"/>
		<path id="Path 282" class="s42" d="m458.9 504.4l8.9-1.1 1.1 4.5-2.2 10-5.6 3.3z"/>
		<path id="Path 283" class="s61" d="m478.9 503.3v4.5h-4.5v-4.5z"/>
		<path id="Path 284" class="s56" d="m478.9 507.8v-4.5h4.4l-1.1 4.5z"/>
		<path id="Path 285" class="s56" d="m492.2 507.8v-4.5h1.1l6.7 1.1-1.1 3.4z"/>
		<path id="Path 286" class="s57" d="m541.1 505.6l8.9-2.3 5.6 2.3-3.4 8.8-7.8 2.3h-3.3z"/>
		<path id="Path 287" class="s36" d="m578.9 505.6l8.9-2.3 15.5 2.3h15.6l3.3 18.8v1.2h-11.1l-8.9-8.9-15.5 1.1-7.8-3.4z"/>
		<path id="Path 288" class="s2" d="m783.3 514.4v-11.1h11.1 15.6v4.5 10h-6.7z"/>
		<path id="Path 289" class="s53" d="m498.9 507.8l1.1-3.4h8.9l-1.1 10 4.4 3.4v5.5l-2.2 7.8-11.1 1.1h-4.5v-8.9l-1.1-4.4 5.6-3.3z"/>
		<path id="Path 290" class="s42" d="m530 516.7v-12.3l11.1 1.2v11.1z"/>
		<path id="Path 291" class="s30" d="m621.1 505.6l7.8-1.2 7.8 7.8v11.1l-14.5 1.1-3.3-18.8z"/>
		<path id="Path 292" class="s81" d="m203.3 514.4v-8.8h8.9l5.6 4.4-1.1 6.7z"/>
		<path id="Path 293" class="s46" d="m218.9 510l11.1-4.4 1.1 6.6-3.3 11.1-4.5 1.1v4.5h-2.2l-4.4-12.2 1.1-6.7z"/>
		<path id="Path 294" class="s31" d="m363.3 507.8l2.3-2.2h14.4l1.1 5.5-2.2 10 4.4 2.2v6.7h-12.2-5.5l-1.2-3.3z"/>
		<path id="Path 295" class="s36" d="m544.4 516.7l7.8-2.3 3.4-8.8h7.7 10l1.1 8.8v10l-8.8 5.6-14.5 1.1v-7.8z"/>
		<path id="Path 296" class="s25" d="m574.4 514.4l-1.1-8.8h5.6v8.8z"/>
		<path id="Path 297" class="s1" d="m810 507.8l37.8 4.4 5.5-6.6 11.1 2.2-1.1 8.9v2.2l-1.1 1.1-27.8 1.1-24.4-3.3z"/>
		<path id="Path 298" class="s40" d="m167.8 525.6l2.2-18.9 7.8 1.1 8.9 12.2-2.3 5.6 2.3 4.4-4.5 4.4h-3.3l-5.6-3.3-3.3-2.2z"/>
		<path id="Path 299" class="s28" d="m350 517.8l3.3-10h10l1.1 18.9-10-1.1z"/>
		<path id="Path 300" class="s48" d="m426.7 510l1.1-2.2h6.6v7.8l-6.6-1.2z"/>
		<path id="Path 301" class="s54" d="m466.7 517.8l2.2-10h5.5 4.5v8.9l-4.5 1.1z"/>
		<path id="Path 302" class="s62" d="m478.9 516.7v-8.9h3.3l3.4 2.2v6.7z"/>
		<path id="Path 303" class="s54" d="m485.6 510l6.6-2.2h6.7v7.8l-5.6 3.3h-3.3l-4.4-2.2z"/>
		<path id="Path 304" class="s26" d="m651.1 508.9h20l-1.1 10-6.7 3.3v3.4l-6.6-2.3z"/>
		<path id="Path 305" class="s44" d="m734.4 523.3v-5.5l13.4-10 3.3 2.2-1.1 8.9-4.4 1.1v3.3l-2.3 1.1z"/>
		<path id="Path 306" class="s6" d="m147.8 514.4l-5.6-5.5h1.1l4.5 4.4z"/>
		<path id="Path 307" class="s66" d="m252.2 510l2.2-1.1 4.5 1.1-2.2 11.1h-4.5z"/>
		<path id="Path 308" class="s52" d="m394.4 510l2.3-1.1 11.1 2.2 2.2-2.2 16.7 1.1 1.1 4.4-6.7 1.2-2.2 5.5h-4.5l-6.6 2.2h-6.7-6.7v-6.6z"/>
		<path id="Path 309" class="s82" d="m636.7 512.2l14.4-3.3 5.6 14.4 6.6 2.3 4.5 6.6h-2.2-13.4l-2.2-8.9h-13.3z"/>
		<path id="Path 310" class="s71" d="m236.7 512.2v-2.2h15.5v11.1l-3.3 4.5h-5.6v-6.7z"/>
		<path id="Path 311" class="s31" d="m278.9 514.4v-4.4h8.9l2.2 11.1v10l6.7 6.7 1.1 7.8h-13.4l-1.1-28.9z"/>
		<path id="Path 312" class="s7" d="m290 521.1l-2.2-11.1h13.3l10 4.4 5.6 13.4v2.2l-4.5 1.1-5.5 1.1-6.7-11.1z"/>
		<path id="Path 313" class="s46" d="m387.8 513.3v-3.3h6.6v6.7h-6.6z"/>
		<path id="Path 314" class="s45" d="m383.3 523.3l-4.4-2.2 2.2-10 6.7 2.2v3.4l1.1 6.6z"/>
		<path id="Path 315" class="s76" d="m227.8 523.3l3.3-11.1h5.6l6.6 6.7v6.7l-7.7 6.6z"/>
		<path id="Path 316" class="s83" d="m147.8 514.4v-1.1l8.9 5.6v1.1z"/>
		<path id="Path 317" class="s84" d="m196.7 517.8l6.6-3.4 13.4 2.3 4.4 12.2 2.2 6.7v5.5l-1.1 2.2-14.4-2.2-11.1-10v-4.4z"/>
		<path id="Path 318" class="s73" d="m270 528.9v-8.9l8.9-5.6 4.4 2.3 1.1 28.9-1.1 4.4h-4.4l-6.7-4.4z"/>
		<path id="Path 319" class="s24" d="m418.9 521.1l2.2-5.5 6.7-1.2 6.6 1.2 6.7 6.6v1.1h-15.5z"/>
		<path id="Path 320" class="s82" d="m574.4 524.4v-10h4.5l7.8 3.4-1.1 7.8z"/>
		<path id="Path 321" class="s60" d="m388.9 523.3l-1.1-6.6h6.6v6.6h-4.4z"/>
		<path id="Path 322" class="s42" d="m474.4 517.8l4.5-1.1h6.7l4.4 2.2v4.4l-6.7 2.3h-7.7z"/>
		<path id="Path 323" class="s74" d="m521.1 518.9l8.9-2.2h11.1 3.3l6.7 6.6v7.8l-5.5 10h-20v-4.4l-4.5-2.3v-11.1z"/>
		<path id="Path 324" class="s85" d="m586.7 517.8l15.5-1.1 8.9 8.9h11.1l-3.3 13.3h-4.5l-3.3-6.7h-8.9l-5.5 7.8h-4.5l-23.3 5.6-12.2 4.4-7.8 4.4h-15.6l-10-2.2v-8.9l2.3-2.2h20l5.5-10 14.5-1.1 8.8-5.6 11.2 1.2z"/>
		<path id="Path 325" class="s14" d="m341.1 527.8v-7.8l8.9-2.2 4.4 7.8 10 1.1 1.2 3.3-2.3 11.1h-10z"/>
		<path id="Path 326" class="s47" d="m461.1 521.1l5.6-3.3h7.7l1.2 7.8 1.1 11.1v4.4h-15.6l-2.2-2.2-2.2-15.6z"/>
		<path id="Path 327" class="s86" d="m512.2 523.3v-5.5h4.5l4.4 1.1v4.4z"/>
		<path id="Path 328" class="s27" d="m810 517.8v5.5h-6.7v-5.5z"/>
		<path id="Path 329" class="s14" d="m810 523.3v-5.5l24.4 3.3v4.5l6.7 5.5v10l-3.3 2.2-12.2 2.3-6.7-5.6v-5.6l-8.9-4.4z"/>
		<path id="Path 330" class="s11" d="m156.7 520v-1.1l11.1 6.7 2.2 3.3h-2.2z"/>
		<path id="Path 331" class="s74" d="m490 523.3v-4.4h3.3l1.1 4.4z"/>
		<path id="Path 332" class="s7" d="m745.6 523.3v-3.3l4.4-1.1 1.1 4.4z"/>
		<path id="Path 333" class="s34" d="m834.4 521.1l27.8-1.1 1.1 4.4v5.6l-2.2 5.6-15.5 1.1-4.5 4.4v-10l-6.7-5.5z"/>
		<path id="Path 334" class="s10" d="m862.2 520l1.1-1.1v5.5z"/>
		<path id="Path 335" class="s68" d="m186.7 530l-2.3-4.4 2.3-5.6 10 6.7v4.4z"/>
		<path id="Path 336" class="s67" d="m248.9 525.6l3.3-4.5h4.5l1.1 6.7-5.6 5.5z"/>
		<path id="Path 337" class="s72" d="m297.8 545.6l-1.1-7.8-6.7-6.7v-10h10l6.7 11.1-1.1 15.6h-4.5z"/>
		<path id="Path 338" class="s23" d="m407.8 523.3l6.6-2.2v4.5z"/>
		<path id="Path 339" class="s41" d="m414.4 525.6v-4.5h4.5l6.7 2.2v10h-4.5l-1.1-5.5z"/>
		<path id="Path 340" class="s72" d="m695.6 536.7l-1.2-10 14.5-5.6 4.4 7.8-3.3 6.7 5.6 1.1-2.3 3.3h-1.1l-16.6-2.2z"/>
		<path id="Path 341" class="s41" d="m441.1 523.3v-1.1l15.6 1.1 2.2 15.6h-6.7l-11.1-2.2z"/>
		<path id="Path 342" class="s50" d="m223.3 528.9v-4.5l4.5-1.1 7.8 8.9v4.5l-3.4 4.4-6.6-5.5z"/>
		<path id="Path 343" class="s4" d="m383.3 530v-6.7h5.6 1.1v6.7h-4.4z"/>
		<path id="Path 344" class="s7" d="m390 530v-6.7h4.4 6.7v8.9z"/>
		<path id="Path 345" class="s43" d="m401.1 532.2v-8.9h6.7l6.6 2.3 5.6 2.2 1.1 5.5v12.3l-10 3.3-7.8-7.8z"/>
		<path id="Path 346" class="s47" d="m425.6 533.3v-10h15.5v13.4h-8.9z"/>
		<path id="Path 347" class="s41" d="m483.3 525.6l6.7-2.3h4.4v8.9h-11.1z"/>
		<path id="Path 348" class="s57" d="m510 531.1l2.2-7.8h8.9v11.1h-4.4l-1.1-3.3z"/>
		<path id="Path 349" class="s26" d="m622.2 524.4l14.5-1.1h13.3l2.2 8.9-3.3 1.1h-3.3l2.2 4.5-2.2 1.1-13.4 1.1-13.3-1.1 3.3-13.3z"/>
		<path id="Path 350" class="s27" d="m732.2 524.4l2.2-1.1 8.9 1.1v5.6h-8.9z"/>
		<path id="Path 351" class="s4" d="m743.3 524.4l2.3-1.1h5.5l25.6 3.4 13.3 6.6v7.8l4.4 2.2v4.5h-18.8-23.4v-2.2l4.5-8.9-11.1-2.3-2.3-4.4z"/>
		<path id="Path 352" class="s43" d="m810 523.3v6.7h-6.7v-6.7z"/>
		<path id="Path 353" class="s4" d="m721.1 527.8l11.1-3.4 2.2 5.6v13.3h-5.5l-6.7-1.1-1.1-5.5z"/>
		<path id="Path 354" class="s10" d="m863.3 530v-5.6l2.3 5.6z"/>
		<path id="Path 355" class="s66" d="m235.6 532.2l7.7-6.6h5.6l3.3 7.7v1.1l-6.6 4.5-10-2.2z"/>
		<path id="Path 356" class="s68" d="m476.7 536.7l-1.1-11.1h7.7v6.6l-1.1 4.5z"/>
		<path id="Path 357" class="s3" d="m252.2 533.3l5.6-5.5 7.8 1.1-2.3 10h-4.4l-6.7-4.5z"/>
		<path id="Path 358" class="s31" d="m316.7 530v-2.2h24.4l12.2 13.3-2.2 5.6 2.2 2.2-1.1 3.3h-15.5l-5.6-4.4-2.2-7.8-10-1.1z"/>
		<path id="Path 359" class="s27" d="m713.3 528.9l7.8-1.1v8.9h-5.5l-5.6-1.1z"/>
		<path id="Path 360" class="s18" d="m173.3 531.1l-5.5-2.2h2.2z"/>
		<path id="Path 361" class="s63" d="m223.3 535.6l-2.2-6.7h2.2l2.3 6.7z"/>
		<path id="Path 362" class="s5" d="m263.3 538.9l2.3-10h4.4l2.2 16.7-8.9 3.3z"/>
		<path id="Path 363" class="s30" d="m182.2 534.4l4.5-4.4 10 1.1 11.1 10-5.6 4.5-4.4-1.2-4.5-2.2-4.4-2.2z"/>
		<path id="Path 364" class="s39" d="m312.2 531.1l4.5-1.1 2.2 8.9-3.3 2.2z"/>
		<path id="Path 365" class="s47" d="m363.3 541.1l2.3-11.1h5.5v8.9l-5.5 2.2z"/>
		<path id="Path 366" class="s60" d="m371.1 538.9v-8.9h12.2 2.3v10l-6.7 1.1z"/>
		<path id="Path 367" class="s39" d="m385.6 540v-10h4.4l11.1 2.2 2.2 8.9z"/>
		<path id="Path 368" class="s5" d="m734.4 543.3v-13.3h8.9l2.3 4.4v11.2h-5.6l-5.6-1.2z"/>
		<path id="Path 369" class="s4" d="m801.1 533.3l2.2-3.3h6.7l8.9 4.4v5.6l-17.8 1.1z"/>
		<path id="Path 370" class="s18" d="m178.9 535.6l-5.6-4.5 5.6 3.3z"/>
		<path id="Path 371" class="s51" d="m306.7 532.2l5.5-1.1 3.4 10 1.1 6.7v6.6h-2.3l-8.8-6.6z"/>
		<path id="Path 372" class="s36" d="m498.9 532.2l11.1-1.1h5.6l1.1 3.3v8.9l-2.3 11.1-2.2 2.3h-6.6-4.5l-2.2-6.7z"/>
		<path id="Path 373" class="s24" d="m482.2 536.7l1.1-4.5h11.1 4.5v17.8h-5.6l-1.1-10z"/>
		<path id="Path 374" class="s30" d="m596.7 540l5.5-7.8h8.9l3.3 6.7-3.3 3.3-12.2 1.1z"/>
		<path id="Path 375" class="s12" d="m648.9 533.3l3.3-1.1h13.4v1.1l-16.7 1.1z"/>
		<path id="Path 376" class="s7" d="m421.1 545.6v-12.3h4.5l6.6 3.4v8.9z"/>
		<path id="Path 377" class="s45" d="m645.6 538.9l2.2-1.1-2.2-4.5h3.3v1.1l2.2 3.4v7.8h-5.5z"/>
		<path id="Path 378" class="s29" d="m648.9 534.4l16.7-1.1-14.5 2.3 3.3 3.3-3.3-1.1z"/>
		<path id="Path 379" class="s49" d="m794.4 543.3l-4.4-2.2v-7.8h11.1v7.8z"/>
		<path id="Path 380" class="s6" d="m178.9 535.6v-1.2h3.3l6.7 5.6h-2.2z"/>
		<path id="Path 381" class="s1" d="m245.6 538.9l6.6-4.5 6.7 4.5-7.8 6.7h-5.5z"/>
		<path id="Path 382" class="s25" d="m516.7 543.3v-8.9h4.4l4.5 2.3v4.4l-2.3 2.2z"/>
		<path id="Path 383" class="s9" d="m745.6 545.6v-11.2l11.1 2.3-4.5 8.9z"/>
		<path id="Path 384" class="s41" d="m223.3 541.1v-5.5h2.3l6.6 5.5 1.1 3.3-1.1 1.2z"/>
		<path id="Path 385" class="s73" d="m232.2 541.1l3.4-4.4 10 2.2v6.7l-6.7 2.2-5.6-3.4z"/>
		<path id="Path 386" class="s20" d="m432.2 545.6v-8.9h8.9l11.1 2.2v13.3l-1.1 10-1.1 1.1h-17.8v-6.6z"/>
		<path id="Path 387" class="s41" d="m476.7 541.1v-4.4h5.5l10 3.3 1.1 10-3.3 2.2-2.2-4.4h-6.7z"/>
		<path id="Path 388" class="s43" d="m713.3 540l2.3-3.3h5.5l1.1 5.5h-1.1-5.5z"/>
		<path id="Path 389" class="s31" d="m651.1 545.6v-7.8l3.3 1.1 3.4 5.5v2.3h-5.6z"/>
		<path id="Path 390" class="s87" d="m712.2 541.1l-16.6-3.3 16.6 2.2z"/>
		<path id="Path 391" class="s27" d="m251.1 545.6l7.8-6.7h4.4v10 1.1l-12.2-2.2z"/>
		<path id="Path 392" class="s52" d="m315.6 541.1l3.3-2.2 10 1.1 2.2 7.8h-14.4z"/>
		<path id="Path 393" class="s41" d="m365.6 541.1l5.5-2.2 7.8 2.2v4.5l-5.6 4.4h-7.7z"/>
		<path id="Path 394" class="s43" d="m452.2 552.2v-13.3h6.7l2.2 2.2v6.7l-4.4 4.4z"/>
		<path id="Path 395" class="s41" d="m611.1 542.2l3.3-3.3h4.5l13.3 1.1v4.4l-20-1.1z"/>
		<path id="Path 396" class="s52" d="m632.2 540l13.4-1.1v6.7h-6.7-6.7v-1.2z"/>
		<path id="Path 397" class="s18" d="m193.3 542.2l-6.6-2.2h2.2z"/>
		<path id="Path 398" class="s15" d="m378.9 541.1l6.7-1.1 17.7 1.1 7.8 7.8-3.3 14.4h-18.9l-3.3 6.7h-22.3v-2.2l-2.2-5.6h-20l-4.4-5.5v-4.5h15.5l1.1-3.3 12.3 1.1h7.7l5.6-4.4z"/>
		<path id="Path 399" class="s45" d="m568.9 545.6l23.3-5.6v6.7l-6.6 5.5 3.3 6.7-4.5 4.4-1.1 8.9h-11.1l-6.6-2.2 2.2-15.6z"/>
		<path id="Path 400" class="s46" d="m592.2 546.7v-6.7h4.5l2.2 3.3-2.2 3.4z"/>
		<path id="Path 401" class="s17" d="m712.2 541.1v-1.1h1.1l2.3 2.2z"/>
		<path id="Path 402" class="s34" d="m801.1 541.1l17.8-1.1 6.7 5.6-1.2 1.1-22.2 1.1h-7.8v-4.5z"/>
		<path id="Path 403" class="s16" d="m824.4 545.6h1.2v1.1h-1.2z"/>
		<path id="Path 404" class="s8" d="m202.2 545.6l5.6-4.5 14.4 2.2 1.1-2.2 8.9 4.5v4.4l-3.3 4.4-8.9-1.1h-2.2l-8.9-3.3-4.5-2.2z"/>
		<path id="Path 405" class="s23" d="m353.3 548.9l-2.2-2.2 2.2-5.6h10 2.3v8.9z"/>
		<path id="Path 406" class="s15" d="m456.7 552.2l4.4-4.4v-6.7h15.6l4.4 6.7 2.2 8.9 6.7-1.1 2.2 6.6 5.6 2.2-2.2 1.2h-4.5l-1.1-3.4h-33.3z"/>
		<path id="Path 407" class="s38" d="m598.9 543.3l12.2-1.1 1.1 1.1v5.6h-14.4l-1.1-2.2z"/>
		<path id="Path 408" class="s17" d="m728.9 544.4l-7.8-2.2h1.1l6.7 1.1z"/>
		<path id="Path 409" class="s74" d="m514.4 554.4l2.3-11.1h6.6v8.9z"/>
		<path id="Path 410" class="s34" d="m612.2 548.9v-5.6l20 1.1v1.2 6.6h-8.9l-11.1-2.2z"/>
		<path id="Path 411" class="s19" d="m734.4 543.3v1.1h-5.5v-1.1z"/>
		<path id="Path 412" class="s18" d="m825.6 545.6l12.2-2.3-12.2 3.4z"/>
		<path id="Path 413" class="s18" d="m204.4 547.8l-6.6-3.4 4.4 1.2z"/>
		<path id="Path 414" class="s15" d="m232.2 545.6l1.1-1.2 5.6 3.4v2.2h-6.7z"/>
		<path id="Path 415" class="s17" d="m740 546.7l-5.6-2.3 5.6 1.2z"/>
		<path id="Path 416" class="s7" d="m238.9 547.8l6.7-2.2h5.5v2.2l-7.8 4.4-4.4-2.2z"/>
		<path id="Path 417" class="s34" d="m263.3 548.9l8.9-3.3 6.7 4.4v6.7h-2.2-6.7l-6.7-6.7z"/>
		<path id="Path 418" class="s14" d="m278.9 550h4.4l1.1-4.4h13.4l3.3 2.2-1.1 11.1h-5.6l-13.3-1.1-2.2-1.1z"/>
		<path id="Path 419" class="s44" d="m411.1 548.9l10-3.3h11.1v11.1l-8.9 1.1v10h-14.4l-1.1-4.5z"/>
		<path id="Path 420" class="s41" d="m556.7 550l12.2-4.4-1.1 8.8h-11.1z"/>
		<path id="Path 421" class="s13" d="m638.9 545.6v6.6h-6.7v-6.6z"/>
		<path id="Path 422" class="s9" d="m638.9 552.2v-6.6h6.7 5.5l1.1 1.1v7.7z"/>
		<path id="Path 423" class="s18" d="m740 546.7v-1.1h5.6 6.6v2.2z"/>
		<path id="Path 424" class="s49" d="m588.9 558.9l-3.3-6.7 6.6-5.5h4.5l1.1 2.2-1.1 10z"/>
		<path id="Path 425" class="s3" d="m652.2 554.4v-7.7h5.6l1.1 5.5z"/>
		<path id="Path 426" class="s17" d="m658.9 552.2l-1.1-5.5 2.2 5.5z"/>
		<path id="Path 427" class="s51" d="m243.3 552.2l7.8-4.4 12.2 2.2 6.7 6.7h6.7v4.4h-4.5-7.8l-7.7-2.2h-8.9l-4.5-2.2z"/>
		<path id="Path 428" class="s15" d="m300 558.9l1.1-11.1h4.5l8.8 6.6v11.2h-4.4l-6.7-1.2v-1.1z"/>
		<path id="Path 429" class="s39" d="m316.7 554.4v-6.6h14.4l5.6 4.4v4.5h-15.6z"/>
		<path id="Path 430" class="s14" d="m490 555.6l-6.7 1.1-2.2-8.9h6.7l2.2 4.4z"/>
		<path id="Path 431" class="s6" d="m802.2 547.8v2.2l-26.6-2.2h18.8z"/>
		<path id="Path 432" class="s9" d="m596.7 558.9l1.1-10h14.4v1.1 11.1h-10z"/>
		<path id="Path 433" class="s60" d="m228.9 554.4l3.3-4.4h6.7l4.4 2.2v4.5h-7.7l-6.7-1.1z"/>
		<path id="Path 434" class="s40" d="m490 552.2l3.3-2.2h5.6l2.2 6.7h4.5v6.6l-1.2 1.1h-5.5-1.1l-5.6-2.2-2.2-6.6z"/>
		<path id="Path 435" class="s23" d="m548.9 554.4l7.8-4.4v4.4l-5.6 3.4z"/>
		<path id="Path 436" class="s3" d="m612.2 561.1v-11.1l11.1 2.2v8.9h-4.4z"/>
		<path id="Path 437" class="s7" d="m451.1 562.2l1.1-10h4.5v10z"/>
		<path id="Path 438" class="s30" d="m514.4 554.4l8.9-2.2 10 2.2-6.6 10h-1.1-2.3l-11.1-1.1v-6.6z"/>
		<path id="Path 439" class="s1" d="m623.3 561.1v-8.9h8.9 6.7l13.3 2.2 6.7-2.2h1.1l-1.1 12.2-1.1 2.3h-1.1z"/>
		<path id="Path 440" class="s16" d="m658.9 564.4l1.1-12.2 2.2 10-2.2 2.2z"/>
		<path id="Path 441" class="s29" d="m228.9 555.6l-8.9-2.3 8.9 1.1z"/>
		<path id="Path 442" class="s77" d="m314.4 565.6v-11.2h2.3l4.4 2.3v8.9h-3.3z"/>
		<path id="Path 443" class="s47" d="m526.7 564.4l6.6-10h15.6l2.2 3.4-1.1 7.8h-6.7l-2.2 7.7-4.4-1.1h-4.5l-3.3-5.5z"/>
		<path id="Path 444" class="s39" d="m551.1 557.8l5.6-3.4h11.1l-2.2 15.6-13.4-1.1-2.2-3.3z"/>
		<path id="Path 445" class="s17" d="m235.6 557.8l-6.7-2.2 6.7 1.1z"/>
		<path id="Path 446" class="s19" d="m235.6 557.8v-1.1h7.7l4.5 2.2z"/>
		<path id="Path 447" class="s8" d="m276.7 561.1v-4.4h2.2l2.2 1.1v4.4z"/>
		<path id="Path 448" class="s51" d="m321.1 565.6v-8.9h15.6l4.4 5.5v5.6l-10-1.1z"/>
		<path id="Path 449" class="s7" d="m423.3 567.8v-10l8.9-1.1v6.6l-1.1 4.5h-2.2z"/>
		<path id="Path 450" class="s26" d="m505.6 563.3v-6.6h6.6v6.6h-2.2z"/>
		<path id="Path 451" class="s60" d="m281.1 562.2v-4.4l13.3 1.1v4.4 1.1h-4.4z"/>
		<path id="Path 452" class="s8" d="m294.4 563.3v-4.4h5.6l3.3 4.4z"/>
		<path id="Path 453" class="s31" d="m583.3 572.2l1.1-8.9 4.5-4.4h7.8l5.5 2.2 1.1 6.7 8.9-2.2h6.7l14.4 2.2 7.8 12.2v1.1l-3.3 2.2-7.8 5.6-3.3 2.2-10 1.1-7.8-7.8-18.9-1.1-6.7-4.4z"/>
		<path id="Path 454" class="s88" d="m272.2 563.3l-7.8-2.2h7.8z"/>
		<path id="Path 455" class="s87" d="m272.2 563.3v-2.2h4.5l4.4 1.1v1.1z"/>
		<path id="Path 456" class="s14" d="m612.2 565.6l-8.9 2.2-1.1-6.7h10z"/>
		<path id="Path 457" class="s38" d="m618.9 561.1v4.5h-6.7v-4.5z"/>
		<path id="Path 458" class="s34" d="m618.9 565.6v-4.5h4.4l33.4 5.6-2.3 3.3-2.2 2.2-3.3 3.4-7.8 4.4-7.8-12.2z"/>
		<path id="Path 459" class="s83" d="m281.1 563.3v-1.1l8.9 2.2z"/>
		<path id="Path 460" class="s60" d="m341.1 567.8v-5.6h20l2.2 5.6h-18.9z"/>
		<path id="Path 461" class="s3" d="m450 563.3l1.1-1.1h5.6 33.3l1.1 3.4-2.2 2.2h-5.6-5.5l-4.5 4.4h-10l-13.3-2.2z"/>
		<path id="Path 462" class="s89" d="m303.3 563.3v1.1h-8.9v-1.1z"/>
		<path id="Path 463" class="s60" d="m385.6 570l3.3-6.7h18.9l1.1 4.5-8.9 2.2z"/>
		<path id="Path 464" class="s2" d="m431.1 567.8l1.1-4.5h17.8v6.7l-6.7-1.1-5.5-1.1z"/>
		<path id="Path 465" class="s89" d="m504.4 564.4l1.2-1.1h4.4v1.1z"/>
		<path id="Path 466" class="s29" d="m510 564.4v-1.1h2.2l11.1 1.1z"/>
		<path id="Path 467" class="s18" d="m310 566.7l-6.7-2.3 6.7 1.2z"/>
		<path id="Path 468" class="s16" d="m495.6 565.6l2.2-1.2h1.1l-3.3 2.3z"/>
		<path id="Path 469" class="s29" d="m528.9 566.7l-3.3-2.3h1.1z"/>
		<path id="Path 470" class="s17" d="m657.8 566.7l1.1-2.3h1.1z"/>
		<path id="Path 471" class="s19" d="m310 566.7v-1.1h4.4 3.4v1.1z"/>
		<path id="Path 472" class="s89" d="m317.8 566.7v-1.1h3.3l10 1.1z"/>
		<path id="Path 473" class="s18" d="m488.9 567.8l2.2-2.2h4.5v1.1z"/>
		<path id="Path 474" class="s34" d="m541.1 573.3l2.2-7.7h6.7l2.2 3.3v10l-6.6-1.1-3.4-2.2z"/>
		<path id="Path 475" class="s18" d="m344.4 568.9l-13.3-2.2 10 1.1h3.3z"/>
		<path id="Path 476" class="s17" d="m654.4 570l2.3-3.3h1.1z"/>
		<path id="Path 477" class="s19" d="m344.4 568.9v-1.1h18.9v2.2z"/>
		<path id="Path 478" class="s90" d="m400 570l8.9-2.2h14.4 5.6v2.2z"/>
		<path id="Path 479" class="s91" d="m428.9 570v-2.2h2.2 6.7v2.2z"/>
		<path id="Path 480" class="s12" d="m437.8 570v-2.2l5.5 1.1v1.1z"/>
		<path id="Path 481" class="s11" d="m473.3 572.2l4.5-4.4h5.5v2.2l-8.9 2.2z"/>
		<path id="Path 482" class="s18" d="m483.3 570v-2.2h5.6z"/>
		<path id="Path 483" class="s11" d="m443.3 570v-1.1l6.7 1.1v2.2z"/>
		<path id="Path 484" class="s13" d="m552.2 578.9v-10l13.4 1.1 6.6 2.2v5.6l-2.2 7.8-15.6-4.5h-2.2z"/>
		<path id="Path 485" class="s37" d="m450 572.2v-2.2l13.3 2.2h-1.1z"/>
		<path id="Path 486" class="s32" d="m474.4 572.2v2.2l-12.2-2.2h1.1 10z"/>
		<path id="Path 487" class="s17" d="m542.2 575.6l-5.5-3.4 4.4 1.1z"/>
		<path id="Path 488" class="s38" d="m572.2 577.8v-5.6h11.1v6.7z"/>
		<path id="Path 489" class="s16" d="m641.1 580l7.8-4.4-7.8 5.5z"/>
		<path id="Path 490" class="s18" d="m552.2 581.1l-6.6-3.3 6.6 1.1z"/>
		<path id="Path 491" class="s3" d="m570 585.6l2.2-7.8 11.1 1.1 6.7 4.4v4.5l-11.1 2.2-3.3-1.1-5.6-1.1v-1.1z"/>
		<path id="Path 492" class="s83" d="m570 586.7l-15.6-5.6 15.6 4.5z"/>
		<path id="Path 493" class="s9" d="m590 587.8v-4.5l18.9 1.1 7.8 7.8v1.1h-5.6l-12.2-1.1z"/>
		<path id="Path 494" class="s16" d="m630 588.9l7.8-5.6-3.4 5.6z"/>
		<path id="Path 495" class="s12" d="m578.9 590l11.1-2.2 8.9 4.4h-13.3z"/>
		<path id="Path 496" class="s17" d="m585.6 592.2l-10-3.3 3.3 1.1z"/>
		<path id="Path 497" class="s16" d="m626.7 591.1l3.3-2.2-3.3 3.3z"/>
		<path id="Path 498" class="s11" d="m616.7 592.2l10-1.1v1.1l-2.3 1.1-1.1 1.1h-6.6v-1.1z"/>
		<path id="Path 499" class="s16" d="m623.3 593.3h1.1v1.1h-1.1z"/>
		<path id="Path 500" class="s0" d="m598.9 594.4v-2.2l12.2 1.1v1.1z"/>
		<path id="Path 501" class="s83" d="m616.7 593.3v1.1h-5.6v-1.1z"/>
	</g>
</svg>