<svg version="1.2" xmlns="http://www.w3.org/2000/svg" viewBox="0 0 1000 1000" width="1000" height="1000">
	<title>Fundulus_sciadicus</title>
	<style>
		.s0 { fill: #d9dbc8 } 
		.s1 { fill: #db955e } 
		.s2 { fill: #f5e1af } 
		.s3 { fill: #d15c1e } 
		.s4 { fill: #f4bb41 } 
		.s5 { fill: #eb830b } 
		.s6 { fill: #eabd86 } 
		.s7 { fill: #f8edc6 } 
		.s8 { fill: #e1b16f } 
		.s9 { fill: #eeeee3 } 
		.s10 { fill: #f1e5c2 } 
		.s11 { fill: #fbf4d7 } 
		.s12 { fill: #f9f5df } 
		.s13 { fill: #e5dfc5 } 
		.s14 { fill: #f9f7e5 } 
		.s15 { fill: #fcfced } 
		.s16 { fill: #d6c484 } 
		.s17 { fill: #beb899 } 
		.s18 { fill: #c4bfa0 } 
		.s19 { fill: #f4eed7 } 
		.s20 { fill: #cfc7a5 } 
		.s21 { fill: #bdbfac } 
		.s22 { fill: #ece7d0 } 
		.s23 { fill: #acae98 } 
		.s24 { fill: #ecdcb6 } 
		.s25 { fill: #b8b9a2 } 
		.s26 { fill: #b3beb1 } 
		.s27 { fill: #abb19f } 
		.s28 { fill: #f4f4ea } 
		.s29 { fill: #f3c071 } 
		.s30 { fill: #b1ac8c } 
		.s31 { fill: #aeb6a7 } 
		.s32 { fill: #a0aba3 } 
		.s33 { fill: #bdaa6c } 
		.s34 { fill: #b6b295 } 
		.s35 { fill: #f9f9f2 } 
		.s36 { fill: #9b9879 } 
		.s37 { fill: #cabe92 } 
		.s38 { fill: #c6c9b6 } 
		.s39 { fill: #9b9f8e } 
		.s40 { fill: #ccdbd5 } 
		.s41 { fill: #c8d0c4 } 
		.s42 { fill: #8e8d75 } 
		.s43 { fill: #b6a777 } 
		.s44 { fill: #a6a588 } 
		.s45 { fill: #a59d7a } 
		.s46 { fill: #9b9069 } 
		.s47 { fill: #908665 } 
		.s48 { fill: #807f68 } 
		.s49 { fill: #857b5c } 
		.s50 { fill: #a5a894 } 
		.s51 { fill: #b6a262 } 
		.s52 { fill: #bac5ba } 
		.s53 { fill: #f6d284 } 
		.s54 { fill: #aea37e } 
		.s55 { fill: #919889 } 
		.s56 { fill: #d9d1af } 
		.s57 { fill: #b8c8c4 } 
		.s58 { fill: #e7e8dd } 
		.s59 { fill: #927f53 } 
		.s60 { fill: #777560 } 
		.s61 { fill: #abbab6 } 
		.s62 { fill: #7f8676 } 
		.s63 { fill: #796e51 } 
		.s64 { fill: #686451 } 
		.s65 { fill: #bdcfcb } 
		.s66 { fill: #685d46 } 
		.s67 { fill: #a79769 } 
		.s68 { fill: #bdb38b } 
		.s69 { fill: #86744e } 
		.s70 { fill: #2c2c2c } 
		.s71 { fill: #c4b276 } 
		.s72 { fill: #eeb35b } 
		.s73 { fill: #decb96 } 
		.s74 { fill: #ae9f6e } 
		.s75 { fill: #a28e5b } 
		.s76 { fill: #746549 } 
		.s77 { fill: #f1d39a } 
		.s78 { fill: #5a5242 } 
		.s79 { fill: #e99445 } 
		.s80 { fill: #af9a5c } 
		.s81 { fill: #fdfefa } 
		.s82 { fill: #a88f53 } 
		.s83 { fill: #95845a } 
		.s84 { fill: #e6d4a6 } 
	</style>
	<g id="Background">
		<path id="Path 2" class="s0" d="m813.8 583.6h9l1.5 4.5-6 6-12-3 6-1.5z"/>
		<path id="Path 4" class="s1" d="m798.8 586.6l4.5-9 10.5 6-1.5 6-6 1.5z"/>
		<path id="Path 5" class="s2" d="m603.6 577.6v-4.5l18-7.5 9 3 1.5 3-13.5 6z"/>
		<path id="Path 6" class="s3" d="m753.8 565.6l9 4.5-4.5-4.5 4.5-1.5 4.5 4.5 6 6-4.5 6-9-4.5z"/>
		<path id="Path 7" class="s4" d="m630.6 568.6h4.5l-1.5-4.5 6 1.5 6 4.5-13.5 1.5z"/>
		<path id="Path 8" class="s1" d="m767.3 568.6l1.5-6 7.5 4.5 9 9-1.5 10.5-15-6 4.5-6z"/>
		<path id="Path 10" class="s5" d="m735.7 565.6l3-6 3 1.5 3 6-3 1.5z"/>
		<path id="Path 11" class="s6" d="m752.3 562.6v-4.5l9 3 4.5-3 3 4.5-1.5 6-4.5-4.5-4.5 1.5 4.5 4.5-9-4.5z"/>
		<path id="Path 12" class="s1" d="m741.7 561.1l4.5-3 6.1 4.5 1.5 3 6 10.5-18.1-6v-1.5l3-1.5z"/>
		<path id="Path 13" class="s7" d="m639.6 565.6l1.5-9h16.6v6l-12.1 7.5z"/>
		<path id="Path 15" class="s1" d="m728.2 556.6l6-1.5 4.5 4.5-3 6-9-3-1.5-3z"/>
		<path id="Path 16" class="s8" d="m713.2 553.6v-1.5l15 4.5-3 3z"/>
		<path id="Path 17" class="s9" d="m827.3 559.6l15-9 7.5 3-7.5 25.5-9 9h-9l-1.5-4.5 9-13.5z"/>
		<path id="Path 18" class="s6" d="m783.8 556.6l15 3 1.5-4.5 9-1.5v-4.5h6l10.5 4.5 1.5 6 4.5 10.5-9 13.5h-9l-10.5-6-4.5 9-1.5 3-13.5-3 1.5-10.5-9-9v-6h7.5z"/>
		<path id="Path 19" class="s2" d="m527 558.1l1.5-9 15 1.5 12.1 3 12 1.5 6 10.5 15 6v6l-19.5-3z"/>
		<path id="Path 20" class="s6" d="m702.7 549.1l4.5-1.5h3l3 4.5v1.5z"/>
		<path id="Path 22" class="s10" d="m516.5 552.1v-7.5h9l3 4.5-1.5 9z"/>
		<path id="Path 23" class="s11" d="m543.5 550.6v-9h12.1v12z"/>
		<path id="Path 24" class="s12" d="m707.2 547.6l-1.5-9h6l1.5 1.5-3 7.5z"/>
		<path id="Path 26" class="s13" d="m497 538.6l18-3 1.5 9v7.5l-9-1.5z"/>
		<path id="Path 29" class="s10" d="m686.2 535.6l4.5-1.5 15 4.5 1.5 9-4.5 1.5z"/>
		<path id="Path 31" class="s14" d="m522.5 534.1l9-1.6h12v9.1 9l-15-1.5-3-4.5h-9l-1.5-9z"/>
		<path id="Path 34" class="s15" d="m543.5 532.5l10.6-1.5 1.5 10.6h-12.1z"/>
		<path id="Path 35" class="s14" d="m554.1 531l13.5-1.5 3 13.6-3 12-12-1.5v-12z"/>
		<path id="Path 36" class="s16" d="m430.9 535.6l1.5-6.1h12l3 6.1-6 3z"/>
		<path id="Path 37" class="s2" d="m816.8 534.1l3-6.1 6 1.5 3 6.1 15 4.5-1.5 10.5-15 9-1.5-6-10.5-4.5z"/>
		<path id="Path 38" class="s17" d="m414.4 534.1v-7.6h18v3l-1.5 6.1z"/>
		<path id="Path 39" class="s18" d="m400.9 534.1l7.5-7.6h6v7.6z"/>
		<path id="Path 40" class="s12" d="m569.1 526.5l15-1.5 1.5 28.6 6 10.5-3 7.5-15-6-6-10.5 3-12-3-13.6z"/>
		<path id="Path 41" class="s15" d="m621.6 565.6l-1.5-16.5-24-16.6v-9h10.5l36 3 12.1 3v9.1l6 4.5-3 13.5h-16.6l-1.5 9-6-1.5 1.5 4.5h-4.5z"/>
		<path id="Path 42" class="s19" d="m584.1 525l12-1.5v9l24 16.6 1.5 16.5-18 7.5v4.5h-15v-6l3-7.5-6-10.5z"/>
		<path id="Path 43" class="s20" d="m522.5 525l3-1.5h6v9l-9 1.6z"/>
		<path id="Path 44" class="s21" d="m300.3 528l1.5-7.5h13.5l9 10.5z"/>
		<path id="Path 45" class="s22" d="m713.2 523.5l13.5-6 6 4.5-1.5 7.5-6 7.6-12 3-1.5-1.5z"/>
		<path id="Path 46" class="s23" d="m444.4 529.5v-12h9.1l12 3v15.1l-12 1.5-6.1-1.5z"/>
		<path id="Path 47" class="s18" d="m336.3 532.5v-15h27.1l15 9v6l-6 1.6h-18z"/>
		<path id="Path 48" class="s24" d="m690.7 534.1v-9.1l15-9 7.5 7.5-1.5 15.1h-6z"/>
		<path id="Path 49" class="s25" d="m432.4 526.5v-7.5l6-3 6 1.5v12h-12z"/>
		<path id="Path 50" class="s25" d="m465.5 520.5l3-6 19.5 1.5 1.5 19.6-22.5 1.5-1.5-1.5z"/>
		<path id="Path 51" class="s25" d="m315.3 520.5v-6h18l3 3v15h-3l-9-1.5z"/>
		<path id="Path 52" class="s26" d="m525.5 523.5l-3-6 3-6 6 4.5v7.5z"/>
		<path id="Path 53" class="s21" d="m488 516l10.5-4.5 10.5 10.5 13.5 3v9.1l-7.5 1.5-18 3-7.5-3z"/>
		<path id="Path 54" class="s27" d="m258.3 517.5l12-6h12v15h-24z"/>
		<path id="Path 55" class="s25" d="m201.2 522l3-10.5h3v12z"/>
		<path id="Path 56" class="s28" d="m852.9 510l12-1.5-4.5 37.6-10.6 7.5-7.5-3 1.5-10.5 3-13.6-4.5-3 9.1-1.5-7.6-7.5h9.1z"/>
		<path id="Path 57" class="s29" d="m825.8 529.5l6-3-7.5-3h10.5l-6-3 3-6-3-6h6l9 6 7.6 7.5-9.1 1.5 4.5 3-3 13.6-15-4.5z"/>
		<path id="Path 58" class="s30" d="m301.8 520.5v-12h13.5v6 6z"/>
		<path id="Path 59" class="s31" d="m234.2 510l12-1.5 12.1 9v9l-24.1 1.5z"/>
		<path id="Path 60" class="s31" d="m408.4 508.5l25.5-1.5 4.5 9-6 3v7.5h-18-6z"/>
		<path id="Path 61" class="s26" d="m207.2 511.5l9-6h12l6 4.5v18l-27-4.5z"/>
		<path id="Path 62" class="s23" d="m315.3 508.5v-6h15l3 12h-18z"/>
		<path id="Path 63" class="s32" d="m282.3 511.5l7.5-9h4.5l7.5 6v12l-1.5 7.5-18-1.5z"/>
		<path id="Path 64" class="s25" d="m166.7 505.5l4.5-3h15v13.5z"/>
		<path id="Path 65" class="s21" d="m531.5 516l15-4.5 12.1-12 12 3-1.5 24-1.5 3-13.5 1.5-10.6 1.5h-12v-9z"/>
		<path id="Path 66" class="s27" d="m186.2 502.5l6-3h12v12l-3 10.5-15-6z"/>
		<path id="Path 67" class="s33" d="m702.7 499.5l12-3v6l-9 6z"/>
		<path id="Path 68" class="s25" d="m270.3 499.5l10.5-3h4.5l4.5 6-7.5 9h-12z"/>
		<path id="Path 69" class="s32" d="m246.2 508.5l7.6-12h7.5l9 3v12l-12 6z"/>
		<path id="Path 70" class="s34" d="m498.5 505.5l12-10.5 10.5 1.5 4.5 3v12l-3 6 3 6-3 1.5-13.5-3-10.5-10.5z"/>
		<path id="Path 71" class="s35" d="m819.8 528v-21l-6-13.5h10.5l7.5 3-3 7.5 6 4.5h-6l3 6-3 6 6 3h-10.5l7.5 3-6 3z"/>
		<path id="Path 72" class="s21" d="m433.9 507v-13.5h10.5 9.1l3 12-3 12h-9.1l-6-1.5z"/>
		<path id="Path 73" class="s36" d="m294.3 502.5v-9h16.5l4.5 9v6h-13.5z"/>
		<path id="Path 74" class="s37" d="m636.6 504l1.5-12 30.1 1.5h13.5 9 6l6 6 3 9v7.5l-15 9v9.1l-4.5 1.5-31.5-6.1-12.1-3z"/>
		<path id="Path 75" class="s38" d="m630.6 493.5l3-4.5 4.5 3-1.5 12z"/>
		<path id="Path 76" class="s39" d="m285.3 496.5l6-7.5 3 4.5v9h-4.5z"/>
		<path id="Path 77" class="s40" d="m228.2 490.5l18-1.5 7.6 7.5-7.6 12-12 1.5-6-4.5z"/>
		<path id="Path 78" class="s17" d="m603.6 489l18-1.5 9 6 6 10.5 6 22.5-36-3-6-24z"/>
		<path id="Path 79" class="s18" d="m570.6 502.5l4.5-1.5v-7.5l10.5-6 6 1.5v7.5l9 3 6 24h-10.5l-12 1.5-15 1.5z"/>
		<path id="Path 80" class="s23" d="m204.2 499.5l3-12h3l6 18-9 6h-3z"/>
		<path id="Path 81" class="s26" d="m171.2 490.5l3-3 18 1.5v10.5l-6 3h-15z"/>
		<path id="Path 82" class="s41" d="m192.2 489l3-3 12 1.5-3 12h-12z"/>
		<path id="Path 83" class="s42" d="m696.7 493.5l3-9h9 9l-3 12-12 3z"/>
		<path id="Path 84" class="s43" d="m621.6 487.5v-3h3 6l3 4.5-3 4.5z"/>
		<path id="Path 85" class="s25" d="m591.6 489l7.5-4.5 4.5 4.5-3 10.5-9-3z"/>
		<path id="Path 86" class="s25" d="m521 489l10.5-4.5h9l10.6 1.5 7.5 13.5-12.1 12-15 4.5-6-4.5v-12l-4.5-3z"/>
		<path id="Path 87" class="s44" d="m690.7 493.5l1.5-10.5 7.5 1.5-3 9z"/>
		<path id="Path 88" class="s45" d="m310.8 484.5l16.5-1.5 3 10.5v9h-15l-4.5-9z"/>
		<path id="Path 89" class="s35" d="m849.8 481.5l3.1-1.5 10.5 4.5 1.5 24-12 1.5-6.1-18z"/>
		<path id="Path 90" class="s46" d="m681.7 493.5l4.5-13.5h6v3l-1.5 10.5z"/>
		<path id="Path 91" class="s44" d="m453.5 493.5l1.5-10.5 7.5-3 3 1.5 3 33-3 6-12-3 3-12z"/>
		<path id="Path 92" class="s47" d="m291.3 489l3-10.5h10.5l6 6v9h-16.5z"/>
		<path id="Path 93" class="s41" d="m246.2 489v-10.5h7.6v6l7.5 3v9h-7.5z"/>
		<path id="Path 94" class="s48" d="m587.1 480l4.5-4.5h6l1.5 9-7.5 4.5-6-1.5z"/>
		<path id="Path 95" class="s36" d="m462.5 480l1.5-4.5h4.5l-3 6z"/>
		<path id="Path 96" class="s32" d="m638.1 475.5l4.5-1.5v6l-4.5 1.5z"/>
		<path id="Path 97" class="s49" d="m630.6 481.5v-7.5l7.5 1.5v6z"/>
		<path id="Path 98" class="s50" d="m530 475.5l3-1.5h6l1.5 10.5h-9z"/>
		<path id="Path 99" class="s25" d="m228.2 481.5l7.5-7.5 9 1.5 1.5 3v10.5l-18 1.5z"/>
		<path id="Path 100" class="s0" d="m184.7 475.5l7.5-1.5 3 12-3 3-18-1.5v-9z"/>
		<path id="Path 101" class="s26" d="m624.6 474h6v7.5 3h-6z"/>
		<path id="Path 102" class="s48" d="m621.6 484.5l-4.5-3v-9l7.5 1.5v10.5z"/>
		<path id="Path 103" class="s51" d="m708.7 484.5l3-13.5 6 13.5z"/>
		<path id="Path 104" class="s31" d="m468.5 475.5l7.5-4.5 1.5 9h6l9 4.5v15l6 6v6l-10.5 4.5-19.5-1.5-3-33z"/>
		<path id="Path 105" class="s34" d="m402.4 474l7.5-3h6l3 12 7.5 1.5 7.5 9v13.5l-25.5 1.5v-6l-9-4.5-1.5-16.5z"/>
		<path id="Path 106" class="s21" d="m213.2 472.5l9-1.5v7.5l6 3v9 15h-12l-6-18z"/>
		<path id="Path 107" class="s52" d="m171.2 490.5h-15l-6-19.5 22.5 6 1.5 1.5v9z"/>
		<path id="Path 108" class="s53" d="m825.8 481.5l3-12 18 6 3 6-3 10.5 6.1 18v4.5h-9.1l-9-6-6-4.5 3-7.5-7.5-3z"/>
		<path id="Path 109" class="s47" d="m642.6 474l3-4.5h15.1l7.5 24-30.1-1.5-4.5-3-3-4.5v-3h7.5l4.5-1.5z"/>
		<path id="Path 110" class="s42" d="m611.1 472.5v6l-6 1.5v-10.5h1.5z"/>
		<path id="Path 111" class="s31" d="m597.6 475.5l1.5-6h6v10.5l6-1.5v-6h6v9l4.5 3v3l-18 1.5-4.5-4.5z"/>
		<path id="Path 112" class="s40" d="m426.4 469.5v7.5h-6v-7.5z"/>
		<path id="Path 113" class="s54" d="m415.9 471l1.5-1.5h3v7.5h6v7.5l-7.5-1.5z"/>
		<path id="Path 114" class="s55" d="m267.3 472.5l3-3 9 6-3 4.5-9-1.5z"/>
		<path id="Path 115" class="s21" d="m244.7 475.5l7.6-6h3l-1.5 9h-7.6z"/>
		<path id="Path 116" class="s56" d="m222.2 471v-1.5h12l1.5 4.5-7.5 7.5-6-3z"/>
		<path id="Path 117" class="s52" d="m283.8 472.5l10.5-4.5v10.5l-3 10.5-6 7.5h-4.5v-12l-4.5-4.5 3-4.5z"/>
		<path id="Path 118" class="s31" d="m255.3 469.5l7.5-1.5 4.5 4.5v6l9 1.5 4.5 4.5v12l-10.5 3-9-3v-9l-7.5-3v-6z"/>
		<path id="Path 119" class="s57" d="m585.6 478.5l3-12 3 9-4.5 4.5z"/>
		<path id="Path 120" class="s31" d="m166.7 505.5l-40.6-18-19.5-21h1.5 10.5l13.5 3h12l6.1 1.5 6 19.5h15v12z"/>
		<path id="Path 121" class="s58" d="m202.7 466.5l10.5-1.6v7.6l-3 15h-3l-12-1.5-3-12z"/>
		<path id="Path 122" class="s33" d="m692.2 466.5l16.5-3.1 3 7.6-3 13.5h-9l-7.5-1.5v-3z"/>
		<path id="Path 123" class="s59" d="m409.9 464.9l6-1.5 1.5 6.1-1.5 1.5h-6z"/>
		<path id="Path 124" class="s41" d="m402.4 469.5l1.5-6.1 6 1.5v6.1l-7.5 3z"/>
		<path id="Path 125" class="s21" d="m370.9 464.9l7.5-1.5 6 4.6v4.5l-7.5 3z"/>
		<path id="Path 126" class="s60" d="m566.1 464.9l6-3 1.5 3-1.5 12.1h-6z"/>
		<path id="Path 127" class="s61" d="m540.5 472.5l6-1.5 3-9.1 12.1 3h4.5v12.1h6l1.5-12.1 6 3.1v10.5h6l1.5 1.5-1.5 7.5-10.5 6v7.5l-4.5 1.5-12-3-7.5-13.5-10.6-1.5-1.5-10.5z"/>
		<path id="Path 128" class="s39" d="m510.5 463.4l3-1.5h4.5l-1.5 10.6-6-1.5z"/>
		<path id="Path 129" class="s62" d="m483.5 468l3-6.1h3v7.6h-4.5z"/>
		<path id="Path 130" class="s30" d="m106.6 466.5l-4.5-4.6h3l3 4.6z"/>
		<path id="Path 132" class="s48" d="m530 475.5l-4.5-3v-12.1h9l-1.5 13.6z"/>
		<path id="Path 133" class="s61" d="m518 461.9l1.5-1.5h6v12.1l4.5 3 1.5 9-10.5 4.5-4.5-3v-13.5z"/>
		<path id="Path 134" class="s26" d="m304.8 478.5l3-13.6 9-4.5 10.5 12.1v10.5l-16.5 1.5z"/>
		<path id="Path 135" class="s52" d="m441.4 461.9l7.5 1.5 1.6-4.5 12 10.6 1.5 6-1.5 4.5-7.5 3-1.5 10.5h-9.1v-12h-7.5z"/>
		<path id="Path 136" class="s47" d="m572.1 461.9v-4.5h10.5l4.5 1.5 1.5 7.6-3 12h-6v-10.5l-6-3.1z"/>
		<path id="Path 137" class="s57" d="m534.5 460.4l1.5-3 4.5 1.5v13.6l-1.5 1.5h-6z"/>
		<path id="Path 138" class="s63" d="m513.5 461.9v-4.5l6 3-1.5 1.5z"/>
		<path id="Path 139" class="s57" d="m489.5 461.9l3-4.5h6v10.6l7.5-4.6h4.5v7.6l6 1.5v13.5l4.5 3v7.5l-10.5-1.5-12 10.5-6-6v-15l-9-4.5 1.5-10.5h4.5z"/>
		<path id="Path 140" class="s27" d="m403.9 458.9l9-1.5 3 1.5v4.5l-6 1.5-6-1.5z"/>
		<path id="Path 141" class="s46" d="m402.4 469.5l-7.5-1.5-1.5-10.6 10.5 1.5v4.5z"/>
		<path id="Path 142" class="s64" d="m270.3 469.5v-7.6l6-4.5h6l-3 7.5 4.5 7.6-4.5 3z"/>
		<path id="Path 143" class="s64" d="m213.2 464.9l3-7.5h6v12.1 1.5l-9 1.5z"/>
		<path id="Path 144" class="s46" d="m118.6 466.5l1.5-9.1h7.5l4.5 12.1z"/>
		<path id="Path 145" class="s53" d="m822.8 458.9l15-3-1.5 9-7.5 1.6z"/>
		<path id="Path 146" class="s23" d="m561.6 457.4h10.5v4.5l-6 3h-4.5z"/>
		<path id="Path 147" class="s65" d="m465.5 469.5v-9.1l6-4.5v9z"/>
		<path id="Path 148" class="s62" d="m189.2 463.4l6-7.5 12 3-4.5 7.6-10.5 7.5-7.5 1.5z"/>
		<path id="Path 149" class="s15" d="m773.3 455.9l22.5-1.5 6 25.6 12 13.5 6 13.5v21l-3 6.1-22.5-18.1-1.5-10.5-19.5-19.5-4.5-13.5z"/>
		<path id="Path 150" class="s44" d="m421.9 455.9l10.5-1.5 1.5 6h6l1.5 1.5-4.5 19.6h7.5v12h-10.5l-7.5-9v-7.5-7.5h-6-3l-1.5-6.1v-4.5z"/>
		<path id="Path 151" class="s62" d="m294.3 468v-13.6h10.5l12 1.5v4.5l-9 4.5-3 13.6h-10.5z"/>
		<path id="Path 152" class="s21" d="m172.7 477l-18-22.6h9l4.5 7.5 13.5-3 7.5 4.5-4.5 12.1-10.5 3z"/>
		<path id="Path 153" class="s36" d="m525.5 460.4v-7.5h3 6l1.5 4.5-1.5 3z"/>
		<path id="Path 154" class="s49" d="m498.5 457.4l7.5-4.5v10.5l-7.5 4.6z"/>
		<path id="Path 155" class="s66" d="m237.2 454.4l9-1.5 1.5 7.5-10.5 3z"/>
		<path id="Path 156" class="s26" d="m207.2 458.9l3-6h6v4.5l-3 7.5-10.5 1.6z"/>
		<path id="Path 157" class="s67" d="m127.6 457.4v-4.5l13.5 1.5 3 15.1h-12z"/>
		<path id="Path 158" class="s14" d="m783.8 556.6l-19.5-18-13.5-22.6 3-18-3-46.6h21l1.5 4.5-4.5 16.6 4.5 13.5 19.5 19.5 1.5 10.5 22.5 18.1-1.5 15h-6v4.5l-9 1.5-1.5 4.5z"/>
		<path id="Path 159" class="s67" d="m587.1 458.9v-7.5h3l7.5 4.5 9-1.5v15.1h-1.5-6l-1.5 6h-6l-3-9z"/>
		<path id="Path 160" class="s27" d="m582.6 457.4l1.5-6h3v7.5z"/>
		<path id="Path 161" class="s52" d="m506 452.9l1.5-1.5 4.5 1.5 1.5 4.5v4.5l-3 1.5h-4.5z"/>
		<path id="Path 162" class="s49" d="m486.5 461.9v-10.5h1.5l4.5 6-3 4.5z"/>
		<path id="Path 163" class="s42" d="m471.5 455.9v-4.5h3l4.5 3-1.5 13.6h6l1.5 1.5-1.5 10.5h-6l-1.5-9-7.5 4.5h-4.5l-1.5-6h3l6-4.6z"/>
		<path id="Path 164" class="s39" d="m276.3 457.4l-1.5-6h7.5v6z"/>
		<path id="Path 165" class="s42" d="m222.2 457.4l6-6h7.5l1.5 3v9l10.5-3h4.6v9.1l-7.6 6-9-1.5-1.5-4.5h-12z"/>
		<path id="Path 166" class="s49" d="m141.1 454.4l3-3h9.1l1.5 3 18 22.6-22.5-6-6.1-1.5z"/>
		<path id="Path 167" class="s49" d="m105.1 461.9l1.5-10.5h9l4.5 6-1.5 9.1h-10.5z"/>
		<path id="Path 168" class="s14" d="m795.8 454.4l1.5-4.5 13.5 1.5 6 27.1 9 3-1.5 12h-10.5l-12-13.5z"/>
		<path id="Path 169" class="s36" d="m549.5 461.9l4.6-12h7.5v7.5 7.5z"/>
		<path id="Path 170" class="s48" d="m439.9 460.4l3-10.5 7.6 1.5v7.5l-1.6 4.5-7.5-1.5z"/>
		<path id="Path 171" class="s55" d="m102.1 461.9l-3-10.5h7.5l-1.5 10.5z"/>
		<path id="Path 172" class="s19" d="m738.7 478.5l6-3-1.5-27.1h7.6v3l3 46.6-3 18 13.5 22.6 19.5 18v4.5h-7.5v6l-7.5-4.5-3-4.5-4.5 3-9-3v4.5l-6.1-4.5-4.5 3-3-1.5-4.5-4.5-6 1.5-15-4.5-3-4.5 3-7.5 12-3 6-7.6 1.5-7.5-6-4.5v-7.5l9-7.5z"/>
		<path id="Path 173" class="s47" d="m378.4 463.4v-6l-6-3 1.5-6h6l4.5 19.6z"/>
		<path id="Path 174" class="s32" d="m282.3 451.4l9-4.5 3 7.5v13.6l-10.5 4.5-4.5-7.6 3-7.5z"/>
		<path id="Path 175" class="s26" d="m412.9 457.4l4.5-12 6 3-1.5 7.5-6 3z"/>
		<path id="Path 176" class="s26" d="m379.9 448.4l7.5-3 6 12 1.5 10.6 7.5 1.5v4.5l-4.5 7.5-13.5-9v-4.5z"/>
		<path id="Path 177" class="s27" d="m364.9 449.9l3-4.5 6 3-1.5 6 6 3v6l-7.5 1.5z"/>
		<path id="Path 178" class="s32" d="m304.8 454.4l1.5-7.5 9-1.5 1.5 3v7.5z"/>
		<path id="Path 179" class="s68" d="m115.6 451.4l-3-6 15 7.5v4.5h-7.5z"/>
		<path id="Path 180" class="s17" d="m590.1 451.4l1.5-9 7.5 6 4.5-3h4.5l-1.5 9-9 1.5z"/>
		<path id="Path 181" class="s52" d="m435.4 443.9l6-1.5 1.5 7.5-3 10.5h-6l-1.5-6z"/>
		<path id="Path 182" class="s69" d="m423.4 446.9l7.5-4.5 4.5 1.5-3 10.5-10.5 1.5 1.5-7.5z"/>
		<path id="Path 183" class="s44" d="m348.3 451.4l6.1-9 10.5 7.5 6 15 6 10.6 7.5-3 13.5 9 1.5 16.5 9 4.5v6 18l-7.5 7.6-15 1.5-7.5-3.1v-6l-15-9h-27.1l-3-3-3-12v-9h9l12.1-10.5z"/>
		<path id="Path 184" class="s23" d="m315.3 445.4l6-3v6h-4.5z"/>
		<path id="Path 185" class="s60" d="m252.3 445.4l9 3v-6h4.5l3 7.5h4.5l1.5 1.5 1.5 6-6 4.5v7.6l-3 3-4.5-4.5-7.5 1.5h-3v-9.1h-4.6l-1.5-7.5 3-7.5z"/>
		<path id="Path 186" class="s32" d="m252.3 445.4l9-3v6z"/>
		<path id="Path 187" class="s32" d="m219.2 448.4h-10.5l3-6h7.5z"/>
		<path id="Path 188" class="s70" d="m163.7 454.4l1.5-9 6-3 12 4.5-1.5 12-13.5 3z"/>
		<path id="Path 189" class="s28" d="m837.8 442.4l3-1.5 12.1 12v27.1l-3.1 1.5-3-6-18-6v-3l7.5-1.6 1.5-9 3-4.5h-7.5l4.5-4.5-4.5-3z"/>
		<path id="Path 190" class="s40" d="m528.5 452.9v-9l4.5-3 1.5 12z"/>
		<path id="Path 191" class="s52" d="m339.3 448.4l1.5-7.5h4.5v10.5z"/>
		<path id="Path 192" class="s50" d="m321.3 448.4l12-7.5 1.5 7.5h4.5l6 3h3l3.1 31.6-12.1 10.5h-9l-3-10.5v-10.5l-10.5-12.1v-4.5-7.5z"/>
		<path id="Path 193" class="s32" d="m265.8 442.4h7.5v7.5h-4.5z"/>
		<path id="Path 194" class="s39" d="m235.7 451.4l6-10.5h6l1.5 4.5-3 7.5-9 1.5z"/>
		<path id="Path 195" class="s0" d="m183.2 446.9l3-6 6 1.5 3 13.5-6 7.5-7.5-4.5z"/>
		<path id="Path 196" class="s22" d="m722.2 445.4l10.5-6 10.5 9 1.5 27.1-6 3-13.5-18.1z"/>
		<path id="Path 197" class="s25" d="m512 452.9l3-13.5h4.5l6 13.5v7.5h-6l-6-3z"/>
		<path id="Path 198" class="s30" d="m153.2 451.4l6-12h9 3v3l-6 3-1.5 9h-9z"/>
		<path id="Path 199" class="s71" d="m660.7 469.5l3-10.6-3-21h6l24 3 1.5 25.6v13.5h-6l-4.5 13.5h-13.5z"/>
		<path id="Path 200" class="s21" d="m489.5 439.4l10.5 4.5 3-6 4.5 1.5v12l-1.5 1.5-7.5 4.5h-6l-4.5-6z"/>
		<path id="Path 201" class="s52" d="m474.5 451.4l3-13.5 9 13.5v10.5l-3 6.1h-6l1.5-13.6z"/>
		<path id="Path 202" class="s63" d="m345.3 440.9l3-3 6.1 4.5-6.1 9h-3z"/>
		<path id="Path 203" class="s72" d="m816.8 443.9l6-7.5h9l6 6-4.5 1.5 4.5 3-4.5 4.5h7.5l-3 4.5-15 3z"/>
		<path id="Path 204" class="s46" d="m111.1 443.9l-4.5-3 4.5-4.5z"/>
		<path id="Path 205" class="s73" d="m690.7 440.9l25.5-6v9l6 1.5 3 15 13.5 18.1-3 24-9 7.5v7.5l-13.5 6-7.5-7.5v-7.5l9-6v-6l3-12-6-13.5-3-7.6-16.5 3.1z"/>
		<path id="Path 206" class="s38" d="m554.1 445.4h-4.6l3.1-10.5 4.5 1.5z"/>
		<path id="Path 207" class="s74" d="m477.5 437.9l4.5-3 7.5 4.5-1.5 12h-1.5z"/>
		<path id="Path 208" class="s44" d="m441.4 442.4l7.5-7.5h13.6l9 16.5v4.5l-6 4.5v9.1h-3l-12-10.6v-7.5l-7.6-1.5z"/>
		<path id="Path 209" class="s43" d="m171.2 439.4l16.5-4.5 4.5 7.5-6-1.5-3 6-12-4.5z"/>
		<path id="Path 210" class="s63" d="m144.1 439.4l3-4.5h10.6l1.5 4.5-6 12h-9.1z"/>
		<path id="Path 211" class="s75" d="m561.6 449.9l6-4.5v-12h12l4.5 4.5v13.5l-1.5 6h-10.5-10.5z"/>
		<path id="Path 212" class="s69" d="m111.1 436.4l12-3 13.5 1.5 1.5 4.5h6v12l-3 3-13.5-1.5-15-7.5-1.5-1.5z"/>
		<path id="Path 213" class="s2" d="m794.3 434.9l10.5-1.5-1.5 4.5 10.5 1.5-4.5 6 7.5-1.5 6 15 6 7.6v3l-3 12-9-3-6-27.1-13.5-1.5z"/>
		<path id="Path 214" class="s10" d="m732.7 433.4l9-1.5 9.1 1.5v15h-7.6l-10.5-9z"/>
		<path id="Path 215" class="s33" d="m645.6 469.5l-4.5-21.1-4.5-3v-13.5l24.1 6 3 21-3 10.6z"/>
		<path id="Path 216" class="s76" d="m136.6 433.4l10.5-1.5v3l-3 4.5h-6l-1.5-4.5z"/>
		<path id="Path 217" class="s7" d="m755.3 431.9l27 1.5 7.5 1.5h4.5l3 15-1.5 4.5-22.5 1.5-1.5-4.5h-21v-3-15z"/>
		<path id="Path 218" class="s24" d="m716.2 434.9l15-4.5 1.5 3v6l-10.5 6-6-1.5z"/>
		<path id="Path 219" class="s25" d="m423.4 446.9l3-16.5 6 3-1.5 9z"/>
		<path id="Path 220" class="s36" d="m123.1 433.4l13.5-3v3 1.5z"/>
		<path id="Path 221" class="s77" d="m782.3 433.4l6-4.5h4.5l-3 6z"/>
		<path id="Path 222" class="s69" d="m348.3 437.9l1.5-9 12.1 1.5 6 15-3 4.5-10.5-7.5z"/>
		<path id="Path 223" class="s6" d="m731.2 430.4l10.5-3v4.5l-9 1.5z"/>
		<path id="Path 224" class="s78" d="m168.2 428.9l9-1.5h10.5l4.5 6h18l1.5 9-3 6h10.5l9 3-6 6h-6v-4.5h-6l-3 6-12-3-3-13.5-4.5-7.5-16.5 4.5h-3z"/>
		<path id="Path 225" class="s54" d="m136.6 430.4l12-3-1.5 4.5-10.5 1.5z"/>
		<path id="Path 226" class="s8" d="m741.7 427.4l12.1-1.5 1.5 6-4.5 1.5-9.1-1.5z"/>
		<path id="Path 227" class="s48" d="m148.6 427.4l16.6-3 3 4.5v10.5h-9l-1.5-4.5h-10.6v-3z"/>
		<path id="Path 228" class="s51" d="m603.6 445.4v-22.5h6l13.5 7.5h12l1.5 1.5v13.5l4.5 3 4.5 21.1-3 4.5-4.5 1.5-7.5-1.5h-6l-7.5-1.5h-6l-4.5-3v-15.1l1.5-9z"/>
		<path id="Path 229" class="s6" d="m822.8 436.4v-15l9 3 9 16.5-3 1.5-6-6z"/>
		<path id="Path 230" class="s79" d="m756.8 424.4l31.5-3v7.5l-6 4.5-27-1.5-1.5-6z"/>
		<path id="Path 231" class="s45" d="m165.2 424.4l12-3v6l-9 1.5z"/>
		<path id="Path 232" class="s1" d="m788.3 421.4l3-1.5h13.5v13.5l-10.5 1.5h-4.5l3-6h-4.5z"/>
		<path id="Path 233" class="s80" d="m591.6 442.4l-3-22.5 15 3v22.5l-4.5 3z"/>
		<path id="Path 234" class="s47" d="m177.2 421.4l12-1.5v1.5l-1.5 6h-10.5z"/>
		<path id="Path 235" class="s8" d="m804.8 419.9l18 1.5v15l-6 7.5-7.5 1.5 4.5-6-10.5-1.5 1.5-4.5z"/>
		<path id="Path 236" class="s81" d="m636.6 419.9l21.1-1.5h9v19.5h-6l-24.1-6-1.5-1.5z"/>
		<path id="Path 237" class="s59" d="m327.3 427.4v-9l18 1.5 4.5 9-1.5 9-3 3h-4.5l-3-7.5z"/>
		<path id="Path 238" class="s69" d="m327.3 418.4v9h-9v-9z"/>
		<path id="Path 239" class="s63" d="m304.8 422.9l1.5-4.5h12v9h-10.5z"/>
		<path id="Path 240" class="s76" d="m189.2 421.4l9-3h12v15h-18l-4.5-6z"/>
		<path id="Path 241" class="s68" d="m189.2 419.9l9-1.5-9 3z"/>
		<path id="Path 242" class="s63" d="m210.2 418.4l10.5-1.5 1.5 4.5 36.1-3 3 24-9 3h-3.1l-1.5-4.5h-6l-6 10.5h-7.5l-9-3v-6h-7.5l-1.5-9z"/>
		<path id="Path 243" class="s76" d="m258.3 418.4l18-3 3 7.5 10.5 4.5 12-4.5h3l3 4.5h10.5 9l10.5 6 3 7.5-1.5 7.5h-4.5l-1.5-7.5-12 7.5v-6l-6 3-9 1.5-1.5 7.5h-10.5l-3-7.5-9 4.5h-7.5l-1.5-1.5v-7.5h-7.5-4.5z"/>
		<path id="Path 244" class="s82" d="m567.6 433.4l-9-19.5 27 4.5 3 1.5 3 22.5-1.5 9h-3-3v-13.5l-4.5-4.5z"/>
		<path id="Path 245" class="s51" d="m552.6 434.9l-6.1-7.5 3-16.5h6.1l3 3 9 19.5v12l-6 4.5h-7.5v-4.5l3-9z"/>
		<path id="Path 246" class="s46" d="m220.7 416.9l55.6-9v7.5l-18 3-36.1 3z"/>
		<path id="Path 247" class="s15" d="m657.7 418.4v-12h15v9l-6 3z"/>
		<path id="Path 248" class="s59" d="m276.3 407.9l15-1.5v6l10.5 10.5-12 4.5-10.5-4.5-3-7.5z"/>
		<path id="Path 249" class="s80" d="m503 437.9l-6-12 4.5-21h31.5l9 3 7.5 3-3 16.5 6.1 7.5-3.1 10.5h4.6v4.5l-4.6 12-3 9.1-6 1.5v-13.6l-4.5-1.5-1.5-4.5-1.5-12-4.5 3v9h-3l-6-13.5h-4.5l-3 13.5-4.5-1.5v-12z"/>
		<path id="Path 250" class="s83" d="m291.3 406.4h15v12l-1.5 4.5h-3l-10.5-10.5z"/>
		<path id="Path 251" class="s19" d="m542 404.9l13.6 1.5v4.5h-6.1l-7.5-3z"/>
		<path id="Path 252" class="s12" d="m555.6 406.4l27-4.5 3 16.5-27-4.5-3-3z"/>
		<path id="Path 253" class="s51" d="m477.5 403.4l24 1.5-4.5 21 6 12-3 6-10.5-4.5-7.5-4.5z"/>
		<path id="Path 254" class="s82" d="m378.4 403.4l12-1.5v16.5l-12-3z"/>
		<path id="Path 255" class="s82" d="m426.4 430.4l-3-9-10.5-3v-18l64.6 3 4.5 31.5-4.5 3-3 13.5h-3l-9-16.5h-13.6l-7.5 7.5-6 1.5-4.5-1.5 1.5-9z"/>
		<path id="Path 256" class="s75" d="m390.4 401.9l22.5-1.5v18l10.5 3 3 9-3 16.5v1.5l-6-3-4.5 12-9 1.5-10.5-1.5-6-12-7.5 3h-6l-6-3-6-15-12.1-1.5-4.5-9-18-1.5h-9-12v-12l72.1-3v12l12 3z"/>
		<path id="Path 257" class="s12" d="m606.6 395.8l3-1.5 9 7.6h12l6 18-1.5 10.5h-12l-13.5-7.5z"/>
		<path id="Path 258" class="s19" d="m582.6 401.9l3-7.6h6l15 1.5 3 27.1h-6l-15-3-3-1.5z"/>
		<path id="Path 260" class="s19" d="m630.6 401.9l4.5-10.6h10.5l12.1 15.1v12l-21.1 1.5z"/>
		<path id="Path 261" class="s84" d="m558.6 394.3l16.5-4.5 10.5 4.5-3 7.6-27 4.5-13.6-1.5z"/>
		<path id="Path 262" class="s8" d="m575.1 389.8l21-6-4.5 10.5h-6z"/>
		<path id="Path 263" class="s77" d="m609.6 385.3v-4.5h3l1.5 4.5z"/>
		<path id="Path 264" class="s84" d="m596.1 383.8l13.5-3v4.5 9l-3 1.5-15-1.5z"/>
		<path id="Path 265" class="s72" d="m612.6 380.8l4.5-3 7.5 4.5-4.5 4.5-6-1.5z"/>
		<path id="Path 266" class="s10" d="m624.6 382.3h6l1.5-6h18.1l4.5 6 13.5 3 7.5 9-3 12.1h-15l-12.1-15.1h-10.5l-4.5 10.6h-12l-9-7.6v-9h4.5l6 1.5z"/>
		<path id="Path 267" class="s77" d="m617.1 377.8l15-1.5-1.5 6h-6z"/>
	</g>
</svg>