<svg version="1.2" xmlns="http://www.w3.org/2000/svg" viewBox="0 0 1000 1000" width="1000" height="1000">
	<title>Gasterosteus_aculeatus</title>
	<style>
		.s0 { opacity: .1;fill: #d6dce6 } 
		.s1 { opacity: .7;fill: #b1b7c8 } 
		.s2 { opacity: .3;fill: #d7dce6 } 
		.s3 { fill: #526895 } 
		.s4 { opacity: .5;fill: #d5dae4 } 
		.s5 { opacity: .5;fill: #b5bbcc } 
		.s6 { fill: #2d4977 } 
		.s7 { fill: #2e528c } 
		.s8 { opacity: .7;fill: #99a1bb } 
		.s9 { opacity: .6;fill: #f2f4f6 } 
		.s10 { opacity: .3;fill: #b8bece } 
		.s11 { fill: #4e6ba9 } 
		.s12 { opacity: .3;fill: #8088a6 } 
		.s13 { opacity: .5;fill: #99a0ba } 
		.s14 { opacity: .9;fill: #48587a } 
		.s15 { fill: #29416a } 
		.s16 { opacity: .7;fill: #878faa } 
		.s17 { opacity: .1;fill: #b3b9ca } 
		.s18 { opacity: .1;fill: #6b7496 } 
		.s19 { fill: #1b3051 } 
		.s20 { fill: #22395f } 
		.s21 { fill: #365891 } 
		.s22 { opacity: .7;fill: #6a7598 } 
		.s23 { opacity: .3;fill: #9ea4ba } 
		.s24 { opacity: .4;fill: #677298 } 
		.s25 { fill: #43619c } 
		.s26 { fill: #111c31 } 
		.s27 { opacity: .1;fill: #8c93b0 } 
		.s28 { fill: #152947 } 
		.s29 { opacity: .7;fill: #c3c9d8 } 
		.s30 { fill: #bebbe0 } 
		.s31 { opacity: .9;fill: #697799 } 
		.s32 { opacity: 1;fill: #5a6687 } 
		.s33 { fill: #5572ae } 
		.s34 { opacity: .9;fill: #b9c0d1 } 
		.s35 { opacity: .6;fill: #7683a6 } 
		.s36 { opacity: .9;fill: #8d94ad } 
		.s37 { fill: #5b7ab3 } 
		.s38 { fill: #4a679f } 
		.s39 { fill: #536d9f } 
		.s40 { opacity: .7;fill: #46557a } 
		.s41 { fill: #415a87 } 
		.s42 { fill: #122440 } 
		.s43 { fill: #5c73a0 } 
		.s44 { fill: #48628f } 
		.s45 { fill: #384c73 } 
		.s46 { fill: #6885b6 } 
		.s47 { fill: #7c97c9 } 
		.s48 { opacity: .9;fill: #7786ab } 
		.s49 { fill: #a0bae8 } 
		.s50 { fill: #435379 } 
		.s51 { fill: #657cab } 
		.s52 { fill: #6c8bbf } 
		.s53 { fill: #7692c3 } 
		.s54 { fill: #0d1d38 } 
		.s55 { fill: #809dd1 } 
		.s56 { fill: #94addf } 
		.s57 { opacity: .5;fill: #828cac } 
		.s58 { fill: #88a8dc } 
		.s59 { fill: #9bbeed } 
		.s60 { fill: #98b5e5 } 
		.s61 { fill: #a0c7f4 } 
		.s62 { fill: #7588b8 } 
		.s63 { fill: #1a345d } 
		.s64 { fill: #556389 } 
		.s65 { fill: #b0d0f8 } 
		.s66 { fill: #89a0d3 } 
		.s67 { fill: #8992c4 } 
		.s68 { fill: #7ba4dc } 
		.s69 { fill: #7679a1 } 
		.s70 { fill: #a4c1ee } 
		.s71 { fill: #6d7196 } 
		.s72 { fill: #a8ccf6 } 
		.s73 { fill: #93baed } 
		.s74 { fill: #8db1e4 } 
		.s75 { fill: #888bb5 } 
		.s76 { fill: #8483a8 } 
		.s77 { fill: #b7d8fb } 
		.s78 { fill: #c6caee } 
		.s79 { fill: #7096cd } 
		.s80 { fill: #a8b9e5 } 
		.s81 { opacity: .3;fill: #f2f4f6 } 
		.s82 { fill: #d4d0ef } 
		.s83 { fill: #7c7fa8 } 
		.s84 { fill: #949ecf } 
		.s85 { opacity: .1;fill: #f2f4f7 } 
		.s86 { fill: #b8c4ec } 
		.s87 { fill: #adc6f0 } 
		.s88 { fill: #5d6e93 } 
		.s89 { fill: #afaed4 } 
		.s90 { fill: #a7a7cd } 
		.s91 { opacity: 1;fill: #a1a0c2 } 
		.s92 { opacity: .3;fill: #4e5f85 } 
		.s93 { fill: #9593b7 } 
	</style>
	<g id="Background">
		<path id="Path 0" class="s0" d="m411 419h1v1h-1z"/>
		<path id="Path 1" class="s0" d="m443 397l1-3h2l-1 2z"/>
		<path id="Path 2" class="s1" d="m445 396l1-2h5l1 1v1z"/>
		<path id="Path 3" class="s2" d="m451 394h1v1h-1z"/>
		<path id="Path 4" class="s0" d="m778 432h1v1h-1z"/>
		<path id="Path 5" class="s0" d="m779 431h1v1h-1z"/>
		<path id="Path 6" class="s3" d="m443 397l2-1h7v4l-4 4-2-3h-6z"/>
		<path id="Path 7" class="s4" d="m436 402l3-5h4l-3 4-2 1z"/>
		<path id="Path 8" class="s5" d="m385 405l10-5h10l4 2-2 6h-2l1-5-4-1-17 4z"/>
		<path id="Path 9" class="s4" d="m448 404l4-4-1 7-7 7z"/>
		<path id="Path 10" class="s6" d="m438 402l2-1h6l2 3-4 10-2 3-5 8 1 6-11-2v-17-1l6-5z"/>
		<path id="Path 11" class="s7" d="m385 406l17-4 4 1-1 5-1 1-3 2-7 4-7 2-4-9z"/>
		<path id="Path 12" class="s8" d="m433 404l3-2h2l-5 4z"/>
		<path id="Path 13" class="s9" d="m836 404l5-2v2z"/>
		<path id="Path 14" class="s4" d="m426 410l7-6v2l-6 5z"/>
		<path id="Path 15" class="s10" d="m813 412l17-8-1 2z"/>
		<path id="Path 16" class="s8" d="m829 406l1-2h3z"/>
		<path id="Path 17" class="s11" d="m829 406l4-2h3 5 3l8 5 1 16-1 7v1l-15 1 4 16v4h-26v-12l-4-4-16 4-10-12 7-6h1l4-3 16-9z"/>
		<path id="Path 18" class="s12" d="m852 409l-8-5h5z"/>
		<path id="Path 19" class="s2" d="m371 412l14-7v1l-2 2-11 4z"/>
		<path id="Path 20" class="s6" d="m372 412l11-4 4 9-5 3h-1l-7 2-3-7z"/>
		<path id="Path 21" class="s0" d="m404 409l1-1h2l-3 2z"/>
		<path id="Path 22" class="s5" d="m401 411l3-2v1z"/>
		<path id="Path 23" class="s12" d="m853 425l-1-16 2 18z"/>
		<path id="Path 24" class="s0" d="m401 411l3-1-10 5z"/>
		<path id="Path 25" class="s13" d="m419 415l7-5 1 1v1l-8 6-3 1v-2z"/>
		<path id="Path 26" class="s14" d="m364 414l7-2h1l-1 3-8 1z"/>
		<path id="Path 27" class="s15" d="m419 418l8-6v17h-1l-5-3z"/>
		<path id="Path 28" class="s5" d="m797 420l7-6 9-2-16 9z"/>
		<path id="Path 29" class="s0" d="m353 419l3-4 8-1-1 2-6 2z"/>
		<path id="Path 30" class="s15" d="m363 416l8-1 3 7-2 3v1 1l1 2-13-1v-9l-3-1z"/>
		<path id="Path 31" class="s12" d="m371 426h1v1h-1z"/>
		<path id="Path 32" class="s0" d="m387 417l7-2-4 4-8 1z"/>
		<path id="Path 33" class="s0" d="m414 419l2-2v2h-1z"/>
		<path id="Path 34" class="s16" d="m438 431l-1-6 5-8-3 12 5 3v1z"/>
		<path id="Path 35" class="s17" d="m586 419l8-2v1l-7 1z"/>
		<path id="Path 36" class="s18" d="m594 418v-1h9v1z"/>
		<path id="Path 37" class="s16" d="m603 418v-1h4l5 7v1h-1z"/>
		<path id="Path 38" class="s19" d="m353 419l4-1 3 1v9h-9l-1-7 2-2z"/>
		<path id="Path 39" class="s20" d="m416 419l3-1 2 8 5 3-2 3-9-2-2-8 2-3z"/>
		<path id="Path 40" class="s21" d="m587 419l7-1h9l8 7-2 3-20 5h-10v-13l3-1h4z"/>
		<path id="Path 41" class="s2" d="m346 420l3-1-1 2h-2z"/>
		<path id="Path 42" class="s22" d="m348 421l1-2h3l-2 2z"/>
		<path id="Path 43" class="s8" d="m411 420l1-1h2 1l-2 3-6 4h-2v-2z"/>
		<path id="Path 44" class="s23" d="m573 420l9-1-3 1-6 1z"/>
		<path id="Path 45" class="s22" d="m329 424l17-4v1l-17 4z"/>
		<path id="Path 46" class="s17" d="m374 422l7-2-9 5z"/>
		<path id="Path 47" class="s5" d="m558 422l9-2v2l-9 1z"/>
		<path id="Path 48" class="s24" d="m567 422v-2h6v1z"/>
		<path id="Path 49" class="s25" d="m573 421l6-1v13l-17 3-3-4h-16l-2-3 4-1 9-4 4-1 9-1z"/>
		<path id="Path 50" class="s2" d="m793 424l4-4v1z"/>
		<path id="Path 51" class="s26" d="m329 425l17-4h2 2l1 7h9l13 1h2 2 2l1 1h15l10-4h2l3 4h5l9 2 2-3h1l11 2 6 2 23 1 20 1 2 3h22l7 4 14 1 12 7h8l2-3 47 11 1 9-3 9h-10l-3-6h-5l-2-4-18-6h-5l-4-4h-15l-12 4-6-3-32-3-2-2-11 2-15 2h-13l-5-7-6-1-7 1-2 4h-11l-9-7h-9l-14-6-6 2v4l-14 2-6-2-6 2h-30l-8-2-7 3-11-1-6 8-8 3-6 3h-18l-17-1-5 4v9h-10l-3-4-10 2h-6l-15-2-6-6v-7l4-1 12-4 8-3 6-2 8-3h1l13-3 11-3h1l10-1 8-2 21-4h2l7-1 1-1h1 1l8-1h1 2l9-2h1z"/>
		<path id="Path 52" class="s27" d="m299 429l10-1h-1l-8 1z"/>
		<path id="Path 53" class="s28" d="m407 426l6-4 2 8h-5z"/>
		<path id="Path 54" class="s29" d="m554 424l4-2v1z"/>
		<path id="Path 55" class="s16" d="m321 426l8-2v1z"/>
		<path id="Path 56" class="s24" d="m388 429h10l7-5v2l-10 4h-7z"/>
		<path id="Path 57" class="s29" d="m545 426l9-2-9 4z"/>
		<path id="Path 58" class="s8" d="m612 425v-1l12 10v2z"/>
		<path id="Path 59" class="s0" d="m783 430l3-5 6-1-7 6z"/>
		<path id="Path 60" class="s7" d="m579 433h10l20-5 2-3h1l12 11 5 3 17 15 4 4-1 8-40-6-8-2-47-11-3-4-19-3-4-7 10-4h1 2l2 3h16l3 4z"/>
		<path id="Path 61" class="s30" d="m852 432l1-7 1 2z"/>
		<path id="Path 62" class="s31" d="m311 427l8-1h1l-9 2z"/>
		<path id="Path 63" class="s17" d="m539 429l6-3v2l-4 1z"/>
		<path id="Path 64" class="s12" d="m373 429l-1-2h2l1 2z"/>
		<path id="Path 65" class="s17" d="m375 429l-1-2 3 2z"/>
		<path id="Path 66" class="s12" d="m285 430l13-1-1 1-7 1h-2-3z"/>
		<path id="Path 67" class="s12" d="m380 430l-1-1h9v1z"/>
		<path id="Path 68" class="s13" d="m528 432l10-3-10 4z"/>
		<path id="Path 69" class="s2" d="m279 432l6-2v1z"/>
		<path id="Path 70" class="s32" d="m395 430h-15 8z"/>
		<path id="Path 71" class="s0" d="m780 431l3-1-1 1z"/>
		<path id="Path 72" class="s33" d="m782 431l1-1h2l10 12-3 6h-5l-4-8h-6l-6 7v11h-6l-3-12 1-2 15-10z"/>
		<path id="Path 73" class="s22" d="m279 432l6-1h3l-21 4v-1z"/>
		<path id="Path 74" class="s34" d="m779 432l1-1h2l-4 3v-1z"/>
		<path id="Path 75" class="s35" d="m444 433v-1h23v2z"/>
		<path id="Path 76" class="s1" d="m467 434v-2h18l2 2v1z"/>
		<path id="Path 77" class="s4" d="m487 434l-2-2h10v2z"/>
		<path id="Path 78" class="s1" d="m495 434v-2h16v2z"/>
		<path id="Path 79" class="s22" d="m511 434v-2h17v1z"/>
		<path id="Path 80" class="s25" d="m841 450l-4-16 15-1v7l-3 10z"/>
		<path id="Path 81" class="s28" d="m511 434l17-1 4 7 19 3 3 4-2 3h-8l-12-7-14-1-7-4z"/>
		<path id="Path 82" class="s17" d="m249 437l12-3-2 2z"/>
		<path id="Path 83" class="s16" d="m259 436l2-2h6v1l-8 2z"/>
		<path id="Path 84" class="s19" d="m487 435v-1h8 16v4h-22z"/>
		<path id="Path 85" class="s10" d="m624 436v-2l5 5z"/>
		<path id="Path 86" class="s4" d="m763 444l6-7 9-3z"/>
		<path id="Path 87" class="s36" d="m249 437l10-1v1l-10 1z"/>
		<path id="Path 88" class="s8" d="m241 439l2-2 5 1-11 3v-2z"/>
		<path id="Path 89" class="s37" d="m795 442l16-4 4 4v12l-8 1 4 21-10 8h-12l-6-3v-7l4-2v-10-14h5z"/>
		<path id="Path 90" class="s5" d="m224 444l13-5v2z"/>
		<path id="Path 91" class="s10" d="m646 454l-17-15 5 1z"/>
		<path id="Path 92" class="s28" d="m377 446v-4l6-2 14 6v8h-10l-8-2z"/>
		<path id="Path 93" class="s11" d="m771 458v-11l6-7h6l4 8v14h-10z"/>
		<path id="Path 94" class="s5" d="m849 450l3-10v24l-4-8z"/>
		<path id="Path 95" class="s17" d="m213 447l10-3-8 3z"/>
		<path id="Path 96" class="s2" d="m754 449l9-5-1 2-4 2z"/>
		<path id="Path 97" class="s19" d="m306 449l7-3 8 2-1 9-11 1-3-1z"/>
		<path id="Path 98" class="s19" d="m351 448l6-2 6 2v6l-5 1-7-2z"/>
		<path id="Path 99" class="s20" d="m363 448l14-2 2 6-4 5-12-3z"/>
		<path id="Path 100" class="s19" d="m397 454v-8h9l9 7-1 2z"/>
		<path id="Path 101" class="s38" d="m758 448l4-2 3 12-1 2-9-2v-7z"/>
		<path id="Path 102" class="s17" d="m208 449l2-2-1 2z"/>
		<path id="Path 103" class="s12" d="m209 449l1-2h3 2z"/>
		<path id="Path 104" class="s28" d="m289 456l6-8 11 1v8l-1 3-5 3z"/>
		<path id="Path 105" class="s15" d="m320 457l1-9h30v5l-4 4-14 2-4-1h-8z"/>
		<path id="Path 106" class="s28" d="m426 453l2-4 7-1 6 1 5 7-1 2-6 1-12-4z"/>
		<path id="Path 107" class="s29" d="m754 449l4-1-3 3-6 4h-1v-1z"/>
		<path id="Path 108" class="s12" d="m198 452l10-3h1l-8 3z"/>
		<path id="Path 109" class="s37" d="m841 454v-4h8l-1 6z"/>
		<path id="Path 110" class="s39" d="m749 455l6-4v7h-4z"/>
		<path id="Path 111" class="s40" d="m190 454l8-2h3l-12 4z"/>
		<path id="Path 112" class="s41" d="m375 457l4-5 8 2v8l-8 2h-2z"/>
		<path id="Path 113" class="s42" d="m474 454l11-2 2 2v4l-4 2h-1-7z"/>
		<path id="Path 114" class="s43" d="m347 457l4-4 7 2 5 9 2 17-4 3h-6v-14l-8-8z"/>
		<path id="Path 115" class="s15" d="m414 455l1-2h11l1 2-1 4-11 1z"/>
		<path id="Path 116" class="s17" d="m181 457l9-3-1 2-4 1h-1z"/>
		<path id="Path 117" class="s44" d="m358 455l5-1 12 3 2 7-5 2-9-2z"/>
		<path id="Path 118" class="s44" d="m387 462v-8h10l17 1 1 5v2h-6-8-10z"/>
		<path id="Path 119" class="s45" d="m459 456l15-2 1 6v4l-10 1-3-1z"/>
		<path id="Path 120" class="s19" d="m487 458v-4l32 3 6 3 12-4h15l4 4h5v10l-1 1-10 1-23-4-20-3-11 1-5-3z"/>
		<path id="Path 121" class="s17" d="m650 458l-4-4 8 5z"/>
		<path id="Path 122" class="s4" d="m741 459l2-4 5-1v1z"/>
		<path id="Path 123" class="s33" d="m789 484h12l10-8-4-21 8-1h26l7 2 4 8 6 10-6 2-3-6h-15l-1 8-8 10h-5l-4 4-1 6-11 1-6-2-5-8h-4z"/>
		<path id="Path 124" class="s39" d="m415 460l11-1 1-4 12 4 1 5-1 2h-23l-1-4z"/>
		<path id="Path 125" class="s44" d="m741 459l7-4h1l2 3-8 4-3-1z"/>
		<path id="Path 126" class="s39" d="m281 459l8-3 11 7 13 17v5l-2 1h-13l-4-13-15-1v-8z"/>
		<path id="Path 127" class="s3" d="m445 458l1-2h13l3 8-7 3-10-5z"/>
		<path id="Path 128" class="s12" d="m178 459l3-2h3z"/>
		<path id="Path 129" class="s42" d="m178 459l6-2h1v7l6 6-5 8-13-4-2-11 2-2 4-2z"/>
		<path id="Path 130" class="s45" d="m305 460l1-3 3 1v2z"/>
		<path id="Path 131" class="s41" d="m309 458l11-1 1 1 1 12-1 7h-3l-6-6v-8l-3-3z"/>
		<path id="Path 132" class="s46" d="m333 459l14-2v5l8 8v14l-8 2-10-4-1-2v-3l3-1v-7l-4-3z"/>
		<path id="Path 133" class="s3" d="m322 470l-1-12h8l2 8v4z"/>
		<path id="Path 134" class="s47" d="m331 466l-2-8 4 1 2 7z"/>
		<path id="Path 135" class="s44" d="m439 459l6-1v4l-5 2z"/>
		<path id="Path 136" class="s15" d="m483 460l4-2 4 5h-6z"/>
		<path id="Path 137" class="s42" d="m602 467l-1-9 8 2-3 7z"/>
		<path id="Path 138" class="s6" d="m649 466l1-8 4 1h1l12 5h1l1 2-8 2h-12z"/>
		<path id="Path 139" class="s19" d="m743 462l8-4h4l9 2 4 10-3 5h-4l-5-7h-9l-4-3z"/>
		<path id="Path 140" class="s3" d="m764 460l1-2h6l6 4v8h-4-5z"/>
		<path id="Path 141" class="s12" d="m168 462l9-3-4 2z"/>
		<path id="Path 142" class="s15" d="m275 462l6-3-2 5z"/>
		<path id="Path 143" class="s4" d="m735 462l6-3-1 2-5 3z"/>
		<path id="Path 144" class="s28" d="m235 474v-9l5-4 17 1-3 8-17 5z"/>
		<path id="Path 145" class="s6" d="m300 463l5-3h4l3 3v8l6 6-1 3h-4z"/>
		<path id="Path 146" class="s20" d="m475 464v-4h7l-1 4z"/>
		<path id="Path 147" class="s41" d="m475 464h6l1-4h1l2 3h6l5 3v4l-1 4-1 2h-9l-5-4-5 4-10-7v-4z"/>
		<path id="Path 148" class="s42" d="m561 470v-10l18 6 2 4v2h-12z"/>
		<path id="Path 149" class="s28" d="m602 467h4l3-7 40 6v2l-2 16h-4v-5l-4-4h-7l-5-4h-16l-5 7h-7v-2z"/>
		<path id="Path 150" class="s48" d="m168 462l5-1-2 2-15 5v-1l6-3z"/>
		<path id="Path 151" class="s49" d="m401 462h8l-1 6-5 2-3-1z"/>
		<path id="Path 152" class="s50" d="m735 464l5-3 3 1v3l-6 2-5 1z"/>
		<path id="Path 153" class="s6" d="m254 470l3-8h18l4 2v8h-7l-3 3-4-4-10 1z"/>
		<path id="Path 154" class="s51" d="m379 464l8-2h4v5l-6 5h-6z"/>
		<path id="Path 155" class="s52" d="m391 467v-5h10l-1 7 3 1v14h-9l-3-9 2-2z"/>
		<path id="Path 156" class="s53" d="m408 468l1-6h6l1 4-3 1v4z"/>
		<path id="Path 157" class="s46" d="m440 464l5-2 10 5-5 11h-2l-9-12z"/>
		<path id="Path 158" class="s2" d="m729 469l6-7v2l-3 4-2 1z"/>
		<path id="Path 159" class="s33" d="m777 470v-8h10v10l-4 2z"/>
		<path id="Path 160" class="s54" d="m156 468l15-5 2 11-3 1-7 1h-8v-7z"/>
		<path id="Path 161" class="s55" d="m365 481l-2-17 9 2 3 6h4v8l-4 2z"/>
		<path id="Path 162" class="s33" d="m372 466l5-2h2v8h-4z"/>
		<path id="Path 163" class="s53" d="m455 467l7-3 3 1v4l10 7 3 8 10 5v7l-7 1-13 1-18-20z"/>
		<path id="Path 164" class="s3" d="m496 466l11-1v3l-11 2z"/>
		<path id="Path 165" class="s2" d="m669 466l-1-2 9 3h-3z"/>
		<path id="Path 166" class="s29" d="m858 474l-6-10 7 8 1 3z"/>
		<path id="Path 167" class="s44" d="m507 468v-3l20 3v6h-5l-3-5-4 2h-4z"/>
		<path id="Path 168" class="s42" d="m737 467l6-2 4 3v8l-2 3h-4v-6l-4-3z"/>
		<path id="Path 169" class="s53" d="m331 470v-4h4l4 3v7l-3 1-5-2z"/>
		<path id="Path 170" class="s52" d="m413 471v-4l3-1h23l9 12-2 3-9 1-2 4-12 1-5-5h-5z"/>
		<path id="Path 171" class="s20" d="m661 468l8-2 5 1 3 2-7 3h-9z"/>
		<path id="Path 172" class="s17" d="m144 472l12-5v1l-1 1-7 2z"/>
		<path id="Path 173" class="s56" d="m385 472l6-5 2 6-2 2z"/>
		<path id="Path 174" class="s13" d="m677 469l-3-2h3l14 3 5 2v1z"/>
		<path id="Path 175" class="s19" d="m732 468l5-1v3h-7v-1z"/>
		<path id="Path 176" class="s47" d="m403 470l5-2 5 3v11l-8 9-2-7z"/>
		<path id="Path 177" class="s52" d="m496 470l11-2 4 3-1 9h-1-6l-8-6z"/>
		<path id="Path 178" class="s43" d="m527 474v-6l23 4v4h-6l-3-1-3 5h-6z"/>
		<path id="Path 179" class="s42" d="m647 484l2-16h12v4 8 4h-10z"/>
		<path id="Path 180" class="s15" d="m747 476v-8h9l5 7v1h-8z"/>
		<path id="Path 181" class="s42" d="m148 471l7-2v7l-1 2h-4l-3-5z"/>
		<path id="Path 182" class="s53" d="m515 471l4-2 3 5h5l5 6h6v8h-4l-6 7v-8l-13-1-1-6z"/>
		<path id="Path 183" class="s28" d="m670 472l7-3 19 4h3 20l2 11h-5l-14-2-6 3-11 1h-6-10v-6z"/>
		<path id="Path 184" class="s57" d="m722 470l7-1h1v1l-5 2h-4z"/>
		<path id="Path 185" class="s20" d="m186 478l5-8 15 2-3 4 2 9-4 7h-6z"/>
		<path id="Path 186" class="s44" d="m212 472l10-2 3 4v1h-4l-8-1z"/>
		<path id="Path 187" class="s37" d="m237 475l17-5 1 2v6l6 2v6l-3 1-10 1-2 3-7 1z"/>
		<path id="Path 188" class="s25" d="m321 477l1-7h9v5l5 2v3h-11z"/>
		<path id="Path 189" class="s20" d="m560 471l1-1 8 2v4h-8z"/>
		<path id="Path 190" class="s28" d="m581 472v-2h5l3 6-1 2h-4l-3-1z"/>
		<path id="Path 191" class="s2" d="m699 472l13-2v2z"/>
		<path id="Path 192" class="s23" d="m712 472v-2h10l-1 2z"/>
		<path id="Path 193" class="s26" d="m725 472l5-2h7l4 3v6l-8 4-12 1-2-11z"/>
		<path id="Path 194" class="s50" d="m761 475h4l3-5h5l1 12-1 15-8 4v7h-5l-7-1h-2l-7-2h-2l-3-2v-5l10-4 10-2 2-6 2-1-2-9z"/>
		<path id="Path 195" class="s43" d="m774 482l-1-12h4l6 4v7z"/>
		<path id="Path 196" class="s25" d="m833 478l1-8h15l3 6z"/>
		<path id="Path 197" class="s31" d="m144 472l4-1-1 2-10 5-8 3 4-4 5-3z"/>
		<path id="Path 198" class="s52" d="m255 472l10-1 4 4 3 5 1 5-12 1v-6l-6-2z"/>
		<path id="Path 199" class="s58" d="m510 480l1-9h4l-1 9z"/>
		<path id="Path 200" class="s44" d="m550 472l10-1 1 5v2l-11-2z"/>
		<path id="Path 201" class="s19" d="m606 478l5-7h16l5 4h7l4 4v5h-3-4-3-14l-6-3h-6z"/>
		<path id="Path 202" class="s33" d="m205 485l-2-9 3-4h6l1 2-1 2-6 1 3 7z"/>
		<path id="Path 203" class="s43" d="m269 475l3-3h7l15 1 4 13-5 2h-8l-6-8h-7z"/>
		<path id="Path 204" class="s46" d="m379 480v-8h6l6 3 3 9-1 8h-2-8v-9z"/>
		<path id="Path 205" class="s52" d="m475 476l5-4 5 4h9l-1 8-4 1-1 4-10-5z"/>
		<path id="Path 206" class="s19" d="m569 476v-4h12v5l-6 1z"/>
		<path id="Path 207" class="s54" d="m661 480v-8h9l-1 8z"/>
		<path id="Path 208" class="s32" d="m699 473v-1h13 9 4l-6 1z"/>
		<path id="Path 209" class="s10" d="m860 475l-1-3 3 5z"/>
		<path id="Path 210" class="s28" d="m137 478l10-5 3 5-3 4-6 2-4-2z"/>
		<path id="Path 211" class="s44" d="m170 475l3-1 13 4 9 14-1 15 5 1v2l-9 11-3-4-2-17-4-2v-5l-6-4v-5l-5-3z"/>
		<path id="Path 212" class="s59" d="m212 476l1-2 8 1v5h-4z"/>
		<path id="Path 213" class="s38" d="m225 475v-1h10l2 1 2 17-12 2-2-13z"/>
		<path id="Path 214" class="s60" d="m494 476l1-2 8 6h6l2 6h4l-4 5v11h-2-6l-5-6h-10v-7l1-4 4-1z"/>
		<path id="Path 215" class="s11" d="m852 476l6-2 2 1 2 2 5 10 2 4v1 1 5l-2 4-4 4-4 2h-1-7l-3-8h-27l-2 6h-14l-1-7 11-1 1-6 4-4h5l8-10z"/>
		<path id="Path 216" class="s41" d="m163 476l7-1v6l5 3v5l-2 3-6-2v-7l-4-3z"/>
		<path id="Path 217" class="s55" d="m221 480v-5h4v6z"/>
		<path id="Path 218" class="s49" d="m538 480l3-5 3 1-1 11 11 6-1 11v6h-6v-8l-6-5v-7l-3-2z"/>
		<path id="Path 219" class="s6" d="m154 478l1-2h8v4z"/>
		<path id="Path 220" class="s61" d="m209 484l-3-7 6-1 5 4v10l-3 10h-3z"/>
		<path id="Path 221" class="s46" d="m554 493l-11-6 1-11h6l11 2 2 4h12 2v6l-1 8-1 2h-6l-3-4-7 2z"/>
		<path id="Path 222" class="s41" d="m561 478v-2h8l6 2v4h-12z"/>
		<path id="Path 223" class="s20" d="m588 478l1-2h10v2l-2 3z"/>
		<path id="Path 224" class="s51" d="m745 479l2-3h6v6l-4 2h-4z"/>
		<path id="Path 225" class="s62" d="m753 482v-6h8l2 9-2 1z"/>
		<path id="Path 226" class="s2" d="m123 484l6-7h4l-4 4z"/>
		<path id="Path 227" class="s45" d="m317 480l1-3h3l4 3v8l-4-1-1-1z"/>
		<path id="Path 228" class="s3" d="m575 478l6-1 3 1v4h-7-2z"/>
		<path id="Path 229" class="s63" d="m129 481l8-3v4l4 2-3 8-3 12h-8v-6l-4-2-1-10 1-2z"/>
		<path id="Path 230" class="s3" d="m147 482l3-4h4l9 2 4 3v7l-13 2z"/>
		<path id="Path 231" class="s58" d="m435 486l2-4 9-1 2-3h2l18 20-1 6-12 2-20-2z"/>
		<path id="Path 232" class="s46" d="m584 482v-4h4l9 3 4 5h12l6 4h10l4-6h3l-3 14-17 4-2-3h-7l-5-9h-6l-2-5-8 2z"/>
		<path id="Path 233" class="s41" d="m597 481l2-3h7l1 3h6v5h-12z"/>
		<path id="Path 234" class="s64" d="m733 483l8-4h4v5 4l-4 4h-5l-3-2z"/>
		<path id="Path 235" class="s49" d="m217 490v-10h4l4 1 2 13v8l-1 4h-5l-3-2z"/>
		<path id="Path 236" class="s39" d="m273 485l-1-5h7l6 8-4 5z"/>
		<path id="Path 237" class="s44" d="m313 485v-5h4l3 6z"/>
		<path id="Path 238" class="s15" d="m325 488v-8h11l1 2v6l5 5 1 5-7 5-6-5z"/>
		<path id="Path 239" class="s51" d="m375 482l4-2 4 3v9h-2l-6-1z"/>
		<path id="Path 240" class="s65" d="m515 486h-4l-2-6h1 4z"/>
		<path id="Path 241" class="s20" d="m661 484v-4h8v6l-7-1z"/>
		<path id="Path 242" class="s46" d="m361 484l4-3 10 1v9l-4 3h-8z"/>
		<path id="Path 243" class="s44" d="m613 486v-5l6 3h14l-4 6h-10z"/>
		<path id="Path 244" class="s39" d="m774 482l9-1 6 3v5l-12 8h-4z"/>
		<path id="Path 245" class="s37" d="m141 484l6-2 7 10-5 12h-7v-8l-4-4z"/>
		<path id="Path 246" class="s52" d="m342 493l-5-5v-6l10 4v4z"/>
		<path id="Path 247" class="s66" d="m405 491l8-9h5l5 5v17l-4 1v5l-2 11-13 11-1-6-6-3v-7l3-13-9-1v-4-6h2z"/>
		<path id="Path 248" class="s47" d="m577 488v-6h7l2 5z"/>
		<path id="Path 249" class="s50" d="m696 485l6-3 14 2v3l-7 1h-11z"/>
		<path id="Path 250" class="s67" d="m749 484l4-2 8 4-2 6-10 2v-6z"/>
		<path id="Path 251" class="s32" d="m721 484l12-1v7l3 2 3 6v5h-1l-8-2 1-7-8-6h-6l-1-1v-3z"/>
		<path id="Path 252" class="s23" d="m106 494l13-10h4l-1 2z"/>
		<path id="Path 253" class="s68" d="m205 485l4-1 2 16-2 2-9 2 1-12z"/>
		<path id="Path 254" class="s62" d="m347 486l8-2h6l2 10v14l-5 2v4h-5-4-1l-2-15-3-1-1-5 5-3z"/>
		<path id="Path 255" class="s53" d="m393 492l1-8h9l2 7z"/>
		<path id="Path 256" class="s53" d="m633 498l3-14h4l3 4h8 11l5 3v5 2z"/>
		<path id="Path 257" class="s39" d="m651 488h-8l-3-4h3 4 4z"/>
		<path id="Path 258" class="s50" d="m651 488v-4h10l1 1v3z"/>
		<path id="Path 259" class="s69" d="m745 488v-4h4v4z"/>
		<path id="Path 260" class="s61" d="m261 486l12-1 8 8v15l-7-5h-8l-1-3h-9l-3 2v8h-4l-6-6v-5l4-4 10-3 1-5z"/>
		<path id="Path 261" class="s59" d="m311 486l2-1 7 1 1 1v6l4 5v2h-8l-2-4h-4z"/>
		<path id="Path 262" class="s70" d="m586 487l8-2 2 5-1 11 6 3 3 20-4 12h-4-9v-11l-10-7-2-20 1-2h9z"/>
		<path id="Path 263" class="s43" d="m662 488v-3l7 1h10v10h-5-7v-5z"/>
		<path id="Path 264" class="s71" d="m685 486l11-1 2 3-1 6-1 2h-4-7z"/>
		<path id="Path 265" class="s19" d="m106 494l16-8 1 10-4 1v7l8 2 1 8 9 4v6h-8l-8-2-13-2-1-1v-5l-6-2v-7l-5-4z"/>
		<path id="Path 266" class="s65" d="m293 488l5-2h13v10l-5 4v9l-9 9h-4l-4-4 2-6h6l4-4v-5l-8-3z"/>
		<path id="Path 267" class="s55" d="m423 487l12-1v18l-4 4h-5l-3-4z"/>
		<path id="Path 268" class="s72" d="m511 502v-11l4-5 13 1v8l6-7h4l3 2v7l6 5v8 9l-8 9h-8l-4-2-1-12-9-1v-7z"/>
		<path id="Path 269" class="s64" d="m679 496v-10h6v10z"/>
		<path id="Path 270" class="s73" d="m246 491l2-3 10-1-1 5-10 3z"/>
		<path id="Path 271" class="s52" d="m325 498l-4-5v-6l4 1 5 10z"/>
		<path id="Path 272" class="s58" d="m577 488l9-1-1 9h-9z"/>
		<path id="Path 273" class="s62" d="m709 488l7-1 1 1v4h-8z"/>
		<path id="Path 274" class="s74" d="m281 493l4-5h8v8l-2 12-2 6h-5l-3-6z"/>
		<path id="Path 275" class="s69" d="m697 494l1-6h11v4z"/>
		<path id="Path 276" class="s75" d="m717 492v-4h6l8 6-1 7h-4-1v-5z"/>
		<path id="Path 277" class="s76" d="m736 492h5l4-4h4v6l-10 4z"/>
		<path id="Path 278" class="s52" d="m173 492l2-3 6 4v5h-4z"/>
		<path id="Path 279" class="s38" d="m777 497l12-8h4l5 8 6 2 1 7v6l-12-1h-14l-1-1z"/>
		<path id="Path 280" class="s54" d="m154 492l13-2 6 2 4 6v9l-6 8-12 1-4-3-6-9z"/>
		<path id="Path 281" class="s53" d="m214 500l3-10 1 14h-4z"/>
		<path id="Path 282" class="s60" d="m604 524l-3-20-6-3 1-11h6l5 9h7l2 3 17-4h34l4 2v3l-7 5h-8l-4 5h-6l-3 5h-14-7l-5 6z"/>
		<path id="Path 283" class="s74" d="m239 492l7-1 1 4-4 4v5h-6l-10-2v-8z"/>
		<path id="Path 284" class="s66" d="m371 494l4-3 6 1v6 4h-10z"/>
		<path id="Path 285" class="s11" d="m135 504l3-12 4 4v8l-4 5z"/>
		<path id="Path 286" class="s6" d="m199 508l-5-1 1-15h6l-1 12z"/>
		<path id="Path 287" class="s55" d="m381 498v-6h2 8v6z"/>
		<path id="Path 288" class="s30" d="m697 494l12-2h8l8 4v5l-2 2-7 2-4 2-7 2-4-3v-6l-5-4z"/>
		<path id="Path 289" class="s0" d="m869 493v-1h2v2z"/>
		<path id="Path 290" class="s56" d="m553 504l1-11 5 3v8z"/>
		<path id="Path 291" class="s4" d="m869 498v-5l2 1v4h-1z"/>
		<path id="Path 292" class="s0" d="m91 501l15-7-10 7h-2z"/>
		<path id="Path 293" class="s47" d="m363 508v-14h8v8 8z"/>
		<path id="Path 294" class="s58" d="m559 496l7-2 3 4h6l2 20h-5l-13-14z"/>
		<path id="Path 295" class="s15" d="m127 506l-8-2v-7l4-1 4 2v6z"/>
		<path id="Path 296" class="s77" d="m291 508l2-12 8 3v5l-4 4z"/>
		<path id="Path 297" class="s72" d="m293 518h4l9-9v-9l5-4h4l2 4h8l2 3-8 10v7h-13l-1 5h-10z"/>
		<path id="Path 298" class="s70" d="m481 497l7-1h10l5 6v16l-8 8h-6l-6-8z"/>
		<path id="Path 299" class="s55" d="m667 498v-2h7v4h-3z"/>
		<path id="Path 300" class="s66" d="m674 500v-4h5 6 7l-4 6h-14z"/>
		<path id="Path 301" class="s78" d="m688 502l4-6h4l5 4v6l-2 2h-4l-2-5z"/>
		<path id="Path 302" class="s60" d="m468 498l13-1 2 21h-7l-9-2v-12z"/>
		<path id="Path 303" class="s44" d="m765 508v-7l8-4h4l1 13h-9-1z"/>
		<path id="Path 304" class="s43" d="m159 516l12-1 6-8v-9h4l4 2 2 17-6 1-13 2-1 6h-4l-4-2z"/>
		<path id="Path 305" class="s79" d="m325 500v-2h5l6 5 3 11v2l-12-13z"/>
		<path id="Path 306" class="s41" d="m336 503l7-5 3 1 2 15h-9z"/>
		<path id="Path 307" class="s47" d="m381 502v-4h10v4l-4 6h-3z"/>
		<path id="Path 308" class="s29" d="m867 502l2-4v1 2z"/>
		<path id="Path 309" class="s0" d="m869 498h1v1h-1z"/>
		<path id="Path 310" class="s65" d="m209 502l2-2h3v4l-1 2h-4z"/>
		<path id="Path 311" class="s72" d="m253 510v-8l3-2h9l1 3h8l7 5 3 6-3 6h-16z"/>
		<path id="Path 312" class="s80" d="m671 503v-3h3v2z"/>
		<path id="Path 313" class="s38" d="m819 506l2-6h27l3 8v1l-17 3h-4-11z"/>
		<path id="Path 314" class="s2" d="m81 509l10-8h3l-8 7h-2z"/>
		<path id="Path 315" class="s28" d="m86 508l8-7h2l5 4v7l-12 2z"/>
		<path id="Path 316" class="s81" d="m723 503l2-2h1v1l-3 2z"/>
		<path id="Path 317" class="s10" d="m726 502v-1h4l8 2v1z"/>
		<path id="Path 318" class="s81" d="m867 502l2-1-5 7h-1v-2z"/>
		<path id="Path 319" class="s72" d="m200 504l9-2v4l-4 6-6-2v-2z"/>
		<path id="Path 320" class="s59" d="m226 506l1-4 10 2-2 11-6-1z"/>
		<path id="Path 321" class="s55" d="m371 510v-8h10l3 6h3l2 8h8v7l6 3 1 6 1 10-4 6h-4l-8-2-2-7-4-5-1-13-7-1z"/>
		<path id="Path 322" class="s56" d="m387 508l4-6 9 1-3 13h-8z"/>
		<path id="Path 323" class="s65" d="m495 526l8-8v-16h6l1 13 7 1v8l-4 1 2 11v6h-36l-4-18 1-6h7l6 8v5h3z"/>
		<path id="Path 324" class="s70" d="m517 516l-7-1-1-13h2l6 4v7z"/>
		<path id="Path 325" class="s82" d="m671 503l3-1h14l5 1 2 5-1 3-17 8-7 4-7 4-4 1-5 1-2 4h-4l-5-7v-8l3-5h6l4-5h8z"/>
		<path id="Path 326" class="s61" d="m319 520v-7l8-10 12 13 3 6-1 4h-8l-4-4h-10z"/>
		<path id="Path 327" class="s10" d="m716 505l7-2v1z"/>
		<path id="Path 328" class="s2" d="m738 504v-1h1l3 2z"/>
		<path id="Path 329" class="s28" d="m127 506v-2h8l3 5 3 6-4 3-9-4z"/>
		<path id="Path 330" class="s38" d="m138 509l4-5h7l6 9-4 2v7l-10-7z"/>
		<path id="Path 331" class="s68" d="m213 506l1-2h4l3 2v32h-4l-6-7z"/>
		<path id="Path 332" class="s73" d="m226 506l3 8 6 1 2-11h6l6 6h4l12 10v6l-12-2h-6l-6 5v9l-2 6h-14l-4-6v-32z"/>
		<path id="Path 333" class="s56" d="m419 510v-5l4-1 3 4z"/>
		<path id="Path 334" class="s60" d="m426 508h5l4-4 20 2v10l-8 10-6 1v5l-6 1v5l-16 1-2 3h-6-6l-1-10 13-11 2-11z"/>
		<path id="Path 335" class="s56" d="m455 506l12-2v12h-12z"/>
		<path id="Path 336" class="s59" d="m553 510v-6h6l13 14-15 6-4-4z"/>
		<path id="Path 337" class="s70" d="m205 512l4-6h4l-2 25h-4z"/>
		<path id="Path 338" class="s75" d="m699 508l2-2 4 3v1h-1l-4 1z"/>
		<path id="Path 339" class="s25" d="m805 512v-6h14v6h-3z"/>
		<path id="Path 340" class="s29" d="m859 508l4-2v2z"/>
		<path id="Path 341" class="s0" d="m705 509l7-2-7 3z"/>
		<path id="Path 342" class="s17" d="m761 510l-8-3 7 1z"/>
		<path id="Path 343" class="s29" d="m81 509l3-1-3 2z"/>
		<path id="Path 344" class="s15" d="m81 510l3-2h2l3 6v10l-2 1-5 2h-11v-6-1l4-6z"/>
		<path id="Path 345" class="s66" d="m358 514v-4l5-2 8 2 4 10h-12l-1-5z"/>
		<path id="Path 346" class="s76" d="m694 511l1-3h4l1 3-4 3z"/>
		<path id="Path 347" class="s16" d="m761 510l-1-2h5l3 2z"/>
		<path id="Path 348" class="s29" d="m851 509v-1h7v2h-7z"/>
		<path id="Path 349" class="s0" d="m858 510v-2h1 4 1z"/>
		<path id="Path 350" class="s2" d="m74 514l2-4 5-1v1l-6 4z"/>
		<path id="Path 351" class="s5" d="m834 512l17-3v1l-15 2z"/>
		<path id="Path 352" class="s68" d="m190 521l9-11 6 2 2 19-3 8-5 3-11-1 1-14z"/>
		<path id="Path 353" class="s77" d="m547 519v-9h6v10h-4z"/>
		<path id="Path 354" class="s17" d="m700 511l4-1-8 5v-1z"/>
		<path id="Path 355" class="s13" d="m779 512l-10-2h9l1 1z"/>
		<path id="Path 356" class="s69" d="m677 519l17-8 2 3v1l-7 5-2 2-4 3h-1-1z"/>
		<path id="Path 357" class="s22" d="m779 512v-1h14v1z"/>
		<path id="Path 358" class="s2" d="m793 512v-1l12 1v2z"/>
		<path id="Path 359" class="s63" d="m89 514l12-2 6 2v5l-5 2v5l-13-2z"/>
		<path id="Path 360" class="s10" d="m805 514v-2h11v2z"/>
		<path id="Path 361" class="s23" d="m816 514v-2h3 11v2z"/>
		<path id="Path 362" class="s2" d="m830 514v-2h4 2z"/>
		<path id="Path 363" class="s51" d="m151 522v-7l4-2 4 3v8l-8-1z"/>
		<path id="Path 364" class="s77" d="m517 516v-3l9 1 1 12h-4l-6-2z"/>
		<path id="Path 365" class="s8" d="m71 517v-3h3 1l-4 6v-2z"/>
		<path id="Path 366" class="s61" d="m265 520h16l3-6h5l4 4 2 7h10l2 5v8l4 7-14 3-8-2v-6l-8-2v-6l-4-4h-8l-4-2z"/>
		<path id="Path 367" class="s44" d="m339 516v-2h9 1v6l-7 2z"/>
		<path id="Path 368" class="s83" d="m349 520v-6h4v6z"/>
		<path id="Path 369" class="s84" d="m353 520v-6h5l4 1 1 5-9 8z"/>
		<path id="Path 370" class="s20" d="m137 518l4-3 10 7v1l-3 7-7-1-2-2-2-3z"/>
		<path id="Path 371" class="s17" d="m689 520l7-5-2 4z"/>
		<path id="Path 372" class="s70" d="m441 532v-5l6-1 8-10h12l9 2-1 6-12 1 3 15h-11l-5-8z"/>
		<path id="Path 373" class="s85" d="m69 519v-2h2v1z"/>
		<path id="Path 374" class="s41" d="m181 518l6-1 3 4-1 6h-4v-3l-4-1z"/>
		<path id="Path 375" class="s4" d="m69 519l2-1v2 1h-2z"/>
		<path id="Path 376" class="s44" d="m167 526l1-6 13-2v5l-12 4z"/>
		<path id="Path 377" class="s49" d="m557 524l15-6h5l10 7v11l-6 6-18-2v-7l-6-3z"/>
		<path id="Path 378" class="s86" d="m604 524h13l5-6h7l-2 12-6 7v8l-2 1-10-1-6-2-3-7z"/>
		<path id="Path 379" class="s78" d="m621 545v-8l6-7 2-12h14v8l5 7-6 6-15 6z"/>
		<path id="Path 380" class="s46" d="m102 526v-5l5-2 1 1-1 7 7 9-1 4-11-1-3-4z"/>
		<path id="Path 381" class="s70" d="m531 528h8l8-9 2 1 1 9 5 1v8l-20 2z"/>
		<path id="Path 382" class="s83" d="m670 523l7-4 4 6-4 5-2 1z"/>
		<path id="Path 383" class="s58" d="m114 536l-7-9 1-7 13 2v4l4 2-5 9z"/>
		<path id="Path 384" class="s59" d="m305 525l1-5h13v2 8h-12z"/>
		<path id="Path 385" class="s39" d="m342 522l7-2h4l1 8-2 7-5 6-4-1-2-14z"/>
		<path id="Path 386" class="s56" d="m354 528l9-8h12l7 1 1 13-31 1z"/>
		<path id="Path 387" class="s65" d="m555 530l-5-1-1-9h4l4 4v6z"/>
		<path id="Path 388" class="s57" d="m69 529v-8h2v6 2z"/>
		<path id="Path 389" class="s55" d="m125 528l-4-2v-4l8 2v2z"/>
		<path id="Path 390" class="s60" d="m319 530v-8h10l4 4v8h-8z"/>
		<path id="Path 391" class="s41" d="m148 530l3-7 8 1 4 2v6l-9-1z"/>
		<path id="Path 392" class="s15" d="m169 527l12-4 4 1v3l-15 4z"/>
		<path id="Path 393" class="s43" d="m663 527l7-4 5 8-4 5-2-4h-6z"/>
		<path id="Path 394" class="s33" d="m87 525l2-1 13 2-3 9h-2l-10-1z"/>
		<path id="Path 395" class="s38" d="m129 526v-2h8l2 3z"/>
		<path id="Path 396" class="s68" d="m241 538v-9l6-5h6v10l-4 4z"/>
		<path id="Path 397" class="s74" d="m241 538h8l4-4v-10l12 2 4 2 2 14-8 6h-15l-9-4z"/>
		<path id="Path 398" class="s87" d="m466 540l-3-15 12-1 4 18-10 2z"/>
		<path id="Path 399" class="s49" d="m515 536l-2-11 4-1 6 2v10z"/>
		<path id="Path 400" class="s37" d="m82 527l5-2v9h-3z"/>
		<path id="Path 401" class="s0" d="m677 530l4-5h1z"/>
		<path id="Path 402" class="s74" d="m125 528l4-2 10 1 2 2v16l-6 3-3-4h-7l-3-2-2-5z"/>
		<path id="Path 403" class="s39" d="m163 532v-6h4l2 1 1 4v1z"/>
		<path id="Path 404" class="s56" d="m333 534v-8h8l2 14 4 1v7h-8l-6-2v-4z"/>
		<path id="Path 405" class="s77" d="m495 526l-3 5h-3v-5z"/>
		<path id="Path 406" class="s65" d="m523 536v-10h4l4 2 4 12h-6l-2-4z"/>
		<path id="Path 407" class="s41" d="m71 529v-2h11l2 7v5h-3l-6-3z"/>
		<path id="Path 408" class="s79" d="m170 531l15-4h4l-1 14 11 1v15l-2 1h-9l-13-3-5-23z"/>
		<path id="Path 409" class="s51" d="m659 528l4-1v5 2h-4z"/>
		<path id="Path 410" class="s59" d="m271 542l-2-14h8l4 4v6l-2 4z"/>
		<path id="Path 411" class="s83" d="m652 533l2-4 5-1v6h-1-5z"/>
		<path id="Path 412" class="s4" d="m69 533v-4h2l4 7-1 1z"/>
		<path id="Path 413" class="s58" d="m141 545v-16l7 1 6 1 5 23h-8z"/>
		<path id="Path 414" class="s72" d="m311 545l-4-7v-8h12l6 4v8 4h-10z"/>
		<path id="Path 415" class="s87" d="m555 538v-8h2l6 3v7z"/>
		<path id="Path 416" class="s0" d="m675 531l2-1-6 12-4 2 3-6 1-2z"/>
		<path id="Path 417" class="s55" d="m159 554l-5-23 9 1h7l5 23-15 1z"/>
		<path id="Path 418" class="s58" d="m199 542l5-3 3-8h4l6 7h4l4 6v8h-5l-4 6-17-1z"/>
		<path id="Path 419" class="s49" d="m435 538v-5l6-1h9l5 8-2 3-8 1z"/>
		<path id="Path 420" class="s44" d="m663 534v-2h6l2 4-1 2h-5z"/>
		<path id="Path 421" class="s69" d="m642 539l6-6h4l1 1v6h-10z"/>
		<path id="Path 422" class="s51" d="m81 539h3v-5h3l10 1v9l-4 2-3-1-9-5z"/>
		<path id="Path 423" class="s70" d="m325 542v-8h8v8z"/>
		<path id="Path 424" class="s70" d="m352 535l31-1 4 5-2 5 3 2-1 8-6 5-13-7-15 2-6-6v-7z"/>
		<path id="Path 425" class="s88" d="m653 540v-6h5l-1 8z"/>
		<path id="Path 426" class="s64" d="m657 542l1-8h1 4l2 4h5l-3 6-3 6-3 3-4-3z"/>
		<path id="Path 427" class="s53" d="m97 544v-9h2l3 4-1 5z"/>
		<path id="Path 428" class="s23" d="m74 537l1-1 6 3v1z"/>
		<path id="Path 429" class="s37" d="m113 540l1-4 6 1 2 5z"/>
		<path id="Path 430" class="s87" d="m515 542v-6h8 4l2 4-2 4z"/>
		<path id="Path 431" class="s86" d="m563 540l18 2 6-6h9l1 18-2 3-9 1-3-4h-7l-1 4-5 1-3-5h-8l-4-5h-9l-3 7-13 1-1 3-23-2-7-8h-7l-4 6-9 2-12-2 2-12 10-2h36l12 2 2-4h6l20-2z"/>
		<path id="Path 432" class="s78" d="m597 554l-1-18h4l3 7 6 2v5l-1 3-5 1z"/>
		<path id="Path 433" class="s73" d="m279 542l2-4 8 2v6h-10z"/>
		<path id="Path 434" class="s80" d="m417 542l2-3 16-1 10 6 8-1 2-3h11l3 4-2 12h-12l-24-6-13-2z"/>
		<path id="Path 435" class="s66" d="m101 544l1-5 11 1 9 2 3 2v8h-10z"/>
		<path id="Path 436" class="s87" d="m388 546l-3-2 2-5 2 7z"/>
		<path id="Path 437" class="s51" d="m627 545l15-6 1 1v8l-16 2z"/>
		<path id="Path 438" class="s23" d="m89 545l-8-5 9 5z"/>
		<path id="Path 439" class="s39" d="m643 548v-8h10l4 2v8l-8 2z"/>
		<path id="Path 440" class="s60" d="m263 548l8-6h8v4l-2 6h-7l-3 3-4-1z"/>
		<path id="Path 441" class="s87" d="m325 546v-4h8v4l-4 3z"/>
		<path id="Path 442" class="s66" d="m397 548h4l4-6h6v16h-7l-7-6z"/>
		<path id="Path 443" class="s84" d="m411 558v-16h6l1 6-3 2v8h-2z"/>
		<path id="Path 444" class="s62" d="m93 546l4-2h4l14 8 1 7-8-4h-1l-8-5h-1l-5-3z"/>
		<path id="Path 445" class="s56" d="m125 552v-8h7l3 4v6z"/>
		<path id="Path 446" class="s56" d="m225 552v-8h14l9 4-1 16h-9l-4-7h-5z"/>
		<path id="Path 447" class="s17" d="m93 547l-4-2h1l3 1z"/>
		<path id="Path 448" class="s53" d="m135 548l6-3 10 9v4h-8l-8-4z"/>
		<path id="Path 449" class="s60" d="m297 548l14-3 4 1v10l-15 2-3-4z"/>
		<path id="Path 450" class="s30" d="m609 550v-5l10 1-1 4h-3z"/>
		<path id="Path 451" class="s71" d="m619 546l2-1h6v5l-7 2-2-2z"/>
		<path id="Path 452" class="s56" d="m277 552l2-6h10l8 2v6h-20z"/>
		<path id="Path 453" class="s86" d="m315 556v-10h10l4 3-9 7z"/>
		<path id="Path 454" class="s62" d="m329 549l4-3 6 2-4 12-11 1-4-5z"/>
		<path id="Path 455" class="s62" d="m387 554l1-8h1l8 2v4z"/>
		<path id="Path 456" class="s66" d="m247 564l1-16h15v6l4 1v11l-6 2h-9l-1-4z"/>
		<path id="Path 457" class="s66" d="m335 560l4-12h8l6 6v5l-3 3h-9z"/>
		<path id="Path 458" class="s89" d="m415 558v-8l3-2 13 2-2 8z"/>
		<path id="Path 459" class="s11" d="m627 550l16-2 6 4v10h-12-7v3l7 1 1 14-4 2h-2l-19-1-5-1h-3v-1l-1-4-9-4v-5-4h8 7l6-5 4-5z"/>
		<path id="Path 460" class="s78" d="m543 556l3-7h9l4 5v8h-12z"/>
		<path id="Path 461" class="s10" d="m107 555l-6-1-2-4z"/>
		<path id="Path 462" class="s90" d="m415 558h14l2-8 24 6v10l-4 1v7l6 4 8-1 4 2h2l2 2-5 5-17-2-22-5-8-2v-4l-7-5-1-10z"/>
		<path id="Path 463" class="s30" d="m479 558l9-2 4-6h7l7 8 23 2 2 6-3 2h-7l-6-1-10-1-25-2z"/>
		<path id="Path 464" class="s71" d="m608 553l1-3h6v6h-6z"/>
		<path id="Path 465" class="s88" d="m615 556v-6h3l2 2-4 5z"/>
		<path id="Path 466" class="s41" d="m649 552l8-2 4 3-2 7v1l-2 3-3 3h-3l-2-5z"/>
		<path id="Path 467" class="s10" d="m661 553l3-3-5 10z"/>
		<path id="Path 468" class="s51" d="m116 559l-1-7h10l10 2 8 4v6h-1-6l-7-1h-6l-7-3z"/>
		<path id="Path 469" class="s60" d="m216 558l4-6h5l4 5h5l4 7v2l-11 1-11-1z"/>
		<path id="Path 470" class="s84" d="m267 555l3-3h7v2 12h-10z"/>
		<path id="Path 471" class="s56" d="m353 554l15-2 13 7-3 9h-9l-3-7-11-1-2-1z"/>
		<path id="Path 472" class="s69" d="m387 554l10-2 7 6-1 13 12 7v4h-13-5l-6 1h-9l-7 1v-6l4-3-1-7 3-9z"/>
		<path id="Path 473" class="s39" d="m603 554l5-1 1 3h6l1 1-6 5h-7z"/>
		<path id="Path 474" class="s67" d="m151 558v-4h8l1 2v2z"/>
		<path id="Path 475" class="s67" d="m277 566v-12h20l3 4 15-2h5l4 5 11-1 6 2v8l6 4v7h-7-20-12l-1-5h-14l-16-6z"/>
		<path id="Path 476" class="s30" d="m559 562v-8h8l3 5-1 2z"/>
		<path id="Path 477" class="s30" d="m575 558l1-4h7l3 4-9 3z"/>
		<path id="Path 478" class="s88" d="m595 557l2-3h6v8h-8z"/>
		<path id="Path 479" class="s10" d="m116 560l-6-1-2-4 8 4z"/>
		<path id="Path 480" class="s62" d="m160 556l15-1 13 3v6l-23-2-5-4z"/>
		<path id="Path 481" class="s89" d="m455 566v-10h12l12 2 1 6-9 2h-6z"/>
		<path id="Path 482" class="s82" d="m529 560l1-3 13-1 4 6-1 1-11 3h-4z"/>
		<path id="Path 483" class="s67" d="m197 558l2-1 17 1v8l-3 3v7h-3l-4-1-9-3z"/>
		<path id="Path 484" class="s71" d="m586 558l9-1v5 4l-18-1v-4z"/>
		<path id="Path 485" class="s69" d="m143 564v-6h8 9l5 4 23 2-2 6h-4l-8-2h-5l-6-1-10-1-5-1z"/>
		<path id="Path 486" class="s75" d="m188 564v-6h9v14l-11-1v-1z"/>
		<path id="Path 487" class="s91" d="m415 578l-12-7 1-13h7 2l1 10 7 5v4z"/>
		<path id="Path 488" class="s83" d="m570 559l5-1 2 3v4h-2l-6-4z"/>
		<path id="Path 489" class="s84" d="m341 562h9l3-3 2 1-2 17v5l-6-1v-7l-6-4z"/>
		<path id="Path 490" class="s10" d="m123 564h-5l-2-4 7 3z"/>
		<path id="Path 491" class="s67" d="m353 577l2-17 11 1 3 7v8l-8 2z"/>
		<path id="Path 492" class="s69" d="m559 562l10-1 6 4 2 15h-2l-9-5h-1l-11-3h-4l-3-2-1-7 1-1z"/>
		<path id="Path 493" class="s33" d="m637 566l-7-1v-3h7z"/>
		<path id="Path 494" class="s25" d="m637 566v-4h12l2 5h3l-2 5-5 6-9 2z"/>
		<path id="Path 495" class="s24" d="m123 564v-1h6v1z"/>
		<path id="Path 496" class="s2" d="m129 564v-1l7 1v1z"/>
		<path id="Path 497" class="s71" d="m535 566l11-3 1 7h-6-5-1z"/>
		<path id="Path 498" class="s23" d="m136 565v-1h6v1z"/>
		<path id="Path 499" class="s92" d="m142 565v-1h1l5 1z"/>
		<path id="Path 500" class="s67" d="m238 566v-2h9 4l1 4-12 2z"/>
		<path id="Path 501" class="s69" d="m471 566l9-2 25 2v7l-12 2h-7l-9 1h-6z"/>
		<path id="Path 502" class="s0" d="m654 567l3-3-1 6-4 2z"/>
		<path id="Path 503" class="s0" d="m153 567l-5-2 5 1z"/>
		<path id="Path 504" class="s39" d="m577 580l-2-15h2l18 1v5l9 4 1 4-20-3-2-1v5z"/>
		<path id="Path 505" class="s27" d="m153 567v-1l10 1z"/>
		<path id="Path 506" class="s75" d="m213 576v-7l3-3 11 1v6l-4 1v4h-1l-6-1z"/>
		<path id="Path 507" class="s83" d="m227 567l11-1 2 4 12-2h9v10h-12-17v-3l-5-2z"/>
		<path id="Path 508" class="s75" d="m261 568l6-2h10v4l-8 4v5l-8-1z"/>
		<path id="Path 509" class="s76" d="m465 577l-8 1-6-4v-7l4-1h10v10z"/>
		<path id="Path 510" class="s83" d="m465 576v-10h6v10z"/>
		<path id="Path 511" class="s71" d="m505 573v-7l10 1v5l-8 1z"/>
		<path id="Path 512" class="s93" d="m528 568l3-2h4v4h-7z"/>
		<path id="Path 513" class="s17" d="m169 569l-6-2 6 1z"/>
		<path id="Path 514" class="s75" d="m515 572v-5l6 1v4z"/>
		<path id="Path 515" class="s18" d="m169 569v-1h5v1z"/>
		<path id="Path 516" class="s29" d="m174 569v-1l8 2z"/>
		<path id="Path 517" class="s83" d="m369 576v-8h9l1 7-4 3z"/>
		<path id="Path 518" class="s76" d="m521 572v-4h7v2l-3 2h-3z"/>
		<path id="Path 519" class="s83" d="m269 579v-5l8-4 16 6v4h-5-8z"/>
		<path id="Path 520" class="s29" d="m525 572l3-2h7 1z"/>
		<path id="Path 521" class="s4" d="m550 572l-9-2h6z"/>
		<path id="Path 522" class="s13" d="m206 575l-20-4 11 1z"/>
		<path id="Path 523" class="s57" d="m507 573l8-1v2h-8z"/>
		<path id="Path 524" class="s2" d="m515 574v-2h6 1z"/>
		<path id="Path 525" class="s0" d="m647 578l5-6-1 5-4 2z"/>
		<path id="Path 526" class="s14" d="m223 578v-4l4-1 5 2v3h-1z"/>
		<path id="Path 527" class="s23" d="m493 575l12-2h2v1z"/>
		<path id="Path 528" class="s17" d="m210 577l-4-2 4 1z"/>
		<path id="Path 529" class="s17" d="m477 576l9-1-9 2z"/>
		<path id="Path 530" class="s29" d="m583 580v-5l2 1v4z"/>
		<path id="Path 531" class="s0" d="m585 576l20 3v1l-14-3h-5l-1 3z"/>
		<path id="Path 532" class="s23" d="m210 577v-1h3l3 1z"/>
		<path id="Path 533" class="s75" d="m293 580v-4h14l1 5z"/>
		<path id="Path 534" class="s76" d="m361 578l8-2 6 2v6l-14-1z"/>
		<path id="Path 535" class="s18" d="m465 577v-1h6 6v1l-8 2z"/>
		<path id="Path 536" class="s17" d="m222 579l-6-2 6 1z"/>
		<path id="Path 537" class="s93" d="m353 582v-5l8 1v5h-2z"/>
		<path id="Path 538" class="s88" d="m415 578l6-1 8 2v5l-10-2h-3-1z"/>
		<path id="Path 539" class="s92" d="m222 579v-1h1 8v1z"/>
		<path id="Path 540" class="s29" d="m231 579v-1h1 17v2z"/>
		<path id="Path 541" class="s1" d="m249 580v-2h12l8 1 11 1z"/>
		<path id="Path 542" class="s1" d="m638 580l9-2v1l-3 3h-8-2z"/>
		<path id="Path 543" class="s50" d="m429 584v-5l22 5v4h-7l-6-1h-1l-6-2h-2z"/>
		<path id="Path 544" class="s81" d="m473 581l-2-2 6 3z"/>
		<path id="Path 545" class="s9" d="m293 582l-5-2h5z"/>
		<path id="Path 546" class="s1" d="m293 582v-2l15 1h12v1z"/>
		<path id="Path 547" class="s8" d="m613 582l-5-2 5 1z"/>
		<path id="Path 548" class="s8" d="m320 582v-1h20v1z"/>
		<path id="Path 549" class="s5" d="m340 582v-1h7l6 1 6 1-1 1z"/>
		<path id="Path 550" class="s93" d="m468 586l5-5 4 1 10 5h1l1 3-3 1h-8-4l-4-1z"/>
		<path id="Path 551" class="s13" d="m613 582v-1l19 1-1 2z"/>
		<path id="Path 552" class="s13" d="m391 583l6-1v2h-6z"/>
		<path id="Path 553" class="s81" d="m397 584v-2h5z"/>
		<path id="Path 554" class="s81" d="m419 584l-3-2h3z"/>
		<path id="Path 555" class="s10" d="m419 584v-2l10 2v1z"/>
		<path id="Path 556" class="s2" d="m631 584l1-2h2 2z"/>
		<path id="Path 557" class="s10" d="m358 584l1-1h2l14 1 7-1v1z"/>
		<path id="Path 558" class="s24" d="m382 584v-1h9v1z"/>
		<path id="Path 559" class="s32" d="m451 588v-4l17 2 2 4h-1-9z"/>
		<path id="Path 560" class="s17" d="m444 589l-6-2 6 1z"/>
		<path id="Path 561" class="s4" d="m486 591l3-1-1-3h3v3l-2 2h-3z"/>
		<path id="Path 562" class="s18" d="m444 589v-1h7v1z"/>
		<path id="Path 563" class="s29" d="m451 589v-1l9 2z"/>
		<path id="Path 564" class="s0" d="m469 592v-2h1v2z"/>
		<path id="Path 565" class="s4" d="m470 592v-2l4 1v1z"/>
		<path id="Path 566" class="s85" d="m489 592l2-2v2z"/>
		<path id="Path 567" class="s10" d="m474 592v-1h4v1z"/>
		<path id="Path 568" class="s12" d="m478 592v-1h8v1z"/>
	</g>
</svg>