<svg version="1.2" xmlns="http://www.w3.org/2000/svg" viewBox="0 0 1000 1000" width="1000" height="1000">
	<title>Gymnocephalus_cernuus</title>
	<style>
		.s0 { opacity: .1;fill: #c9cacc } 
		.s1 { opacity: .6;fill: #d1d1d3 } 
		.s2 { fill: #90959c } 
		.s3 { opacity: .6;fill: #ededee } 
		.s4 { opacity: .1;fill: #e0dee1 } 
		.s5 { opacity: .1;fill: #f4f4f4 } 
		.s6 { opacity: .7;fill: #b3b2b1 } 
		.s7 { fill: #9da3ac } 
		.s8 { opacity: .8;fill: #d0d1d3 } 
		.s9 { fill: #c8cdda } 
		.s10 { fill: #c3c4c5 } 
		.s11 { fill: #7c8187 } 
		.s12 { fill: #a8a9a7 } 
		.s13 { opacity: .3;fill: #f2f1f2 } 
		.s14 { opacity: .5;fill: #afb0b0 } 
		.s15 { fill: #808892 } 
		.s16 { fill: #9ea19e } 
		.s17 { fill: #566168 } 
		.s18 { fill: #b0b3b3 } 
		.s19 { fill: #b3bed2 } 
		.s20 { fill: #464c4a } 
		.s21 { fill: #d1cfcb } 
		.s22 { fill: #69737a } 
		.s23 { fill: #939bac } 
		.s24 { fill: #b0b4be } 
		.s25 { fill: #636b75 } 
		.s26 { fill: #a5aab3 } 
		.s27 { fill: #b6b1a4 } 
		.s28 { fill: #babeca } 
		.s29 { fill: #888d95 } 
		.s30 { fill: #5e6562 } 
		.s31 { fill: #b6b7ab } 
		.s32 { fill: #70777f } 
		.s33 { fill: #969893 } 
		.s34 { fill: #686d69 } 
		.s35 { fill: #999487 } 
		.s36 { fill: #737e8b } 
		.s37 { fill: #777b78 } 
		.s38 { opacity: .3;fill: #d3d2d3 } 
		.s39 { fill: #8b8e89 } 
		.s40 { fill: #898777 } 
		.s41 { fill: #3b403a } 
		.s42 { fill: #aca798 } 
		.s43 { fill: #242f3f } 
		.s44 { opacity: .9;fill: #d4d3d4 } 
		.s45 { fill: #e0ddd7 } 
		.s46 { opacity: .9;fill: #abadb0 } 
		.s47 { fill: #c2beb1 } 
		.s48 { fill: #5f635b } 
		.s49 { fill: #7e847d } 
		.s50 { fill: #4d5555 } 
		.s51 { opacity: .2;fill: #8f8f8b } 
		.s52 { opacity: .2;fill: #adacab } 
		.s53 { fill: #77776d } 
		.s54 { fill: #9ba8bf } 
		.s55 { opacity: .8;fill: #ececec } 
		.s56 { fill: #848eaa } 
		.s57 { fill: #d9dbe4 } 
		.s58 { fill: #bcbfbe } 
		.s59 { fill: #8992a5 } 
		.s60 { fill: #565b55 } 
		.s61 { fill: #5a5544 } 
		.s62 { opacity: .5;fill: #909090 } 
		.s63 { fill: #6f6d63 } 
		.s64 { fill: #79705f } 
		.s65 { fill: #927d5d } 
		.s66 { fill: #e5e7eb } 
		.s67 { fill: #ffffff } 
		.s68 { fill: #fbf6e8 } 
		.s69 { fill: #1a1f25 } 
		.s70 { fill: #675b42 } 
		.s71 { fill: #726851 } 
		.s72 { fill: #fafbfa } 
		.s73 { fill: #eff0f4 } 
		.s74 { fill: #8ea3ce } 
		.s75 { fill: #f7f0db } 
		.s76 { fill: #6a634f } 
		.s77 { fill: #6088c8 } 
		.s78 { fill: #524a35 } 
		.s79 { fill: #ebe0ce } 
		.s80 { fill: #ab9277 } 
		.s81 { fill: #ccc6b5 } 
		.s82 { fill: #ded2bb } 
		.s83 { fill: #e7cfa8 } 
		.s84 { fill: #c1b096 } 
		.s85 { fill: #d9c8aa } 
		.s86 { fill: #eedab5 } 
		.s87 { fill: #d5b689 } 
		.s88 { fill: #f5e3bd } 
		.s89 { fill: #463e28 } 
		.s90 { fill: #b6a189 } 
		.s91 { fill: #d6c19c } 
		.s92 { fill: #f8ebcc } 
		.s93 { opacity: .5;fill: #817c73 } 
		.s94 { opacity: .8;fill: #909190 } 
		.s95 { opacity: .2;fill: #757063 } 
		.s96 { opacity: .8;fill: #877f6e } 
		.s97 { opacity: .7;fill: #746c5a } 
		.s98 { opacity: .4;fill: #59513a } 
	</style>
	<g id="Background">
		<path id="Path 0" class="s0" d="m255 498h1v1h-1z"/>
		<path id="Path 1" class="s1" d="m418 368v-1h3l-3 2z"/>
		<path id="Path 2" class="s2" d="m418 369l3-2h5l4 5-1 6-2 7 4 1-1 7h-3l-8-7-1-6h-4l-3-3 5-7z"/>
		<path id="Path 3" class="s3" d="m430 372l-4-5h3l2 4z"/>
		<path id="Path 4" class="s4" d="m448 369l1-2h1v2z"/>
		<path id="Path 5" class="s3" d="m450 369v-2h4v2z"/>
		<path id="Path 6" class="s5" d="m516 397h1v1h-1z"/>
		<path id="Path 7" class="s0" d="m416 370l2-2v1z"/>
		<path id="Path 8" class="s6" d="m443 375l5-6h2 4v11h-1l-1-9-9 5z"/>
		<path id="Path 9" class="s1" d="m404 382l12-12-5 7-7 6z"/>
		<path id="Path 10" class="s0" d="m430 372l1-1-2 7z"/>
		<path id="Path 11" class="s7" d="m443 376l9-5 1 9-7 3-8-1z"/>
		<path id="Path 12" class="s8" d="m436 382l7-7v1l-5 6z"/>
		<path id="Path 13" class="s7" d="m404 383l7-6 3 3v6l-8 1-2-3z"/>
		<path id="Path 14" class="s3" d="m376 382l4-4 6 2v10l-4 5 2-12-1-3z"/>
		<path id="Path 15" class="s4" d="m431 386l-4-1 2-7 2 7z"/>
		<path id="Path 16" class="s9" d="m376 382l7-2 1 3-5 3h-3z"/>
		<path id="Path 17" class="s10" d="m414 386v-6h4l1 6-4 1z"/>
		<path id="Path 18" class="s11" d="m446 383l7-3h1v2l2 5h2l-1 8-7-2-4-4z"/>
		<path id="Path 19" class="s5" d="m469 382l5-2v2z"/>
		<path id="Path 20" class="s7" d="m469 382h5l2 3-5 1z"/>
		<path id="Path 21" class="s8" d="m368 394l8-12v4z"/>
		<path id="Path 22" class="s3" d="m391 397v-4l13-11v1 1l-6 7z"/>
		<path id="Path 23" class="s12" d="m431 385l5-3h2l8 1v6l4 4-2 6 2 9h-2l-5-2-5-1-6-5-2-7 1-7z"/>
		<path id="Path 24" class="s13" d="m458 387l2-4 5-1z"/>
		<path id="Path 25" class="s12" d="m458 387l7-5h4l2 4-2 7 1 8h-4l-2-6h-5-2z"/>
		<path id="Path 26" class="s14" d="m476 385l-2-3h3l2 10h5l-1 1-7-3z"/>
		<path id="Path 27" class="s15" d="m379 386l5-3-2 12v1l-2 1-1-10z"/>
		<path id="Path 28" class="s16" d="m398 391l6-7 2 3v3l-4 2z"/>
		<path id="Path 29" class="s17" d="m471 386l5-1v5l-7 3z"/>
		<path id="Path 30" class="s18" d="m368 394l8-8h3v1l-4 15v7l-7 8-8 2h-3l1-4v-1l8-17z"/>
		<path id="Path 31" class="s9" d="m406 387l8-1 1 1v6l-4 1-5-4z"/>
		<path id="Path 32" class="s19" d="m415 387l4-1 8 7-2 6h-4l-6-6z"/>
		<path id="Path 33" class="s20" d="m375 402l4-15 1 10v3z"/>
		<path id="Path 34" class="s21" d="m402 392l4-2 5 4v3l2 8-4 9-8 1-1-3h-6l2-11 6-2z"/>
		<path id="Path 35" class="s22" d="m469 393l7-3 7 3v3l-1 2-12 5v-2z"/>
		<path id="Path 36" class="s7" d="m391 397l7-6 4 1v7l-6 2-5-2z"/>
		<path id="Path 37" class="s23" d="m484 392l8-1 7 6-3 1-8-1-5-1v-3z"/>
		<path id="Path 38" class="s2" d="m411 394l4-1 6 6-3 3-7-5z"/>
		<path id="Path 39" class="s10" d="m425 399l2-6h3l2 7-4 2z"/>
		<path id="Path 40" class="s24" d="m450 408l-2-9 2-6 7 2h2l2 9-8 6z"/>
		<path id="Path 41" class="s10" d="m461 404l-2-9h5l2 6z"/>
		<path id="Path 42" class="s6" d="m503 397l10-2 3 2 1 1v1h-1l-10-1z"/>
		<path id="Path 43" class="s8" d="m380 397l2-1 2 9 4-3-1 5h-4l-3-7z"/>
		<path id="Path 44" class="s7" d="m482 398l1-2 5 1-3 4z"/>
		<path id="Path 45" class="s25" d="m488 397l8 1 3 11-8 6-6-5v-9z"/>
		<path id="Path 46" class="s3" d="m358 414l1-7 7-10z"/>
		<path id="Path 47" class="s3" d="m388 401l3-4v2z"/>
		<path id="Path 48" class="s16" d="m413 405l-2-8 7 5v3z"/>
		<path id="Path 49" class="s22" d="m496 398l3-1h4l3 1v9l-7 2z"/>
		<path id="Path 50" class="s11" d="m506 398l10 1 1 6-3 2h-8z"/>
		<path id="Path 51" class="s26" d="m470 403l12-5 3 3v9l-3 5-11 1-3-3z"/>
		<path id="Path 52" class="s5" d="m517 399v-1l2 2h-1z"/>
		<path id="Path 53" class="s18" d="m388 401l3-2 5 2-2 11-4 2-3-7 1-5z"/>
		<path id="Path 54" class="s27" d="m418 402l3-3h4l3 3v7h-6l-4-4z"/>
		<path id="Path 55" class="s28" d="m517 405l-1-6h1l1 1v5z"/>
		<path id="Path 56" class="s25" d="m375 402l5-2 3 7v3h-5l-3-1z"/>
		<path id="Path 57" class="s26" d="m428 402l4-2 6 5-2 5-5 2-3-3z"/>
		<path id="Path 58" class="s3" d="m518 405v-5h1v5l5 5h-1z"/>
		<path id="Path 59" class="s29" d="m461 404l5-3h4v2l-2 10-8 2-4 1h-5l-1-3 3-3z"/>
		<path id="Path 60" class="s30" d="m438 405l5 1-3 5-4-1z"/>
		<path id="Path 61" class="s31" d="m409 414l4-9h5l4 4-2 10h-4-6z"/>
		<path id="Path 62" class="s32" d="m514 407l3-2h1l5 5-1 10-5 4-3-1z"/>
		<path id="Path 63" class="s33" d="m440 411l3-5 5 2-2 4h-6z"/>
		<path id="Path 64" class="s24" d="m378 410h5v-3h4l3 7-9 11h-1v-4l1-5h-3z"/>
		<path id="Path 65" class="s24" d="m499 409l7-2-1 16-3 6h-6l-3 5-3 1-10 2-3-2 8-9v-5l6-6z"/>
		<path id="Path 66" class="s34" d="m505 423l1-16h8v16z"/>
		<path id="Path 67" class="s10" d="m446 412l2-4h2l3 2-3 3z"/>
		<path id="Path 68" class="s9" d="m360 419l8-2 7-8 3 1v6l-3 5-2 3-5 4-8-2z"/>
		<path id="Path 69" class="s12" d="m420 419l2-10h6l3 3-2 5-5 4-3 1z"/>
		<path id="Path 70" class="s35" d="m431 412l5-2 4 1v1l-1 8-4 2-6-5z"/>
		<path id="Path 71" class="s36" d="m482 415l3-5 6 5-6 6z"/>
		<path id="Path 72" class="s37" d="m522 420l1-10h1 3l4 2 1 1 3 7-1 1z"/>
		<path id="Path 73" class="s10" d="m390 414l4-2h6l1 3-3 4v14h4l2 2-1 5-4 7h-3l-2-1 3-11-5-2-7 2h-6l2-10z"/>
		<path id="Path 74" class="s26" d="m439 420l1-8h6l4 1 1 3h5v13h-13z"/>
		<path id="Path 75" class="s7" d="m460 415l8-2 3 3-6 6z"/>
		<path id="Path 76" class="s38" d="m535 420l-3-7 9 9z"/>
		<path id="Path 77" class="s16" d="m401 415l8-1 1 5-5 10-3 4h-4v-14z"/>
		<path id="Path 78" class="s38" d="m354 422l4-7-1 4z"/>
		<path id="Path 79" class="s12" d="m456 416l4-1 5 7-4 7-3 1-2-1z"/>
		<path id="Path 80" class="s39" d="m471 416l11-1 3 6v5l-8 9-7 5-3-1 3-7-4-1-5-2 4-7z"/>
		<path id="Path 81" class="s25" d="m375 421l3-5h3l-1 5z"/>
		<path id="Path 82" class="s40" d="m424 421l5-4 6 5-3 7-5 2-5-2v-2l4-2z"/>
		<path id="Path 83" class="s24" d="m354 422l3-3h3v7l-4 3h-4l1-4z"/>
		<path id="Path 84" class="s10" d="m405 429l5-10h6v6l-1 4-8 1z"/>
		<path id="Path 85" class="s24" d="m416 425v-6h4l1 3-1 2z"/>
		<path id="Path 86" class="s0" d="m333 421l3 1h-1z"/>
		<path id="Path 87" class="s10" d="m435 422l4-2 4 9-5 6-6-6z"/>
		<path id="Path 88" class="s25" d="m517 424l5-4 12 1v11l-11 9-7 1-1-6z"/>
		<path id="Path 89" class="s36" d="m534 421l1-1 6 2h2l7 5v4l2 5 8 4v2 3h-10l-5-1-3-5h-6l2-7h-4z"/>
		<path id="Path 90" class="s1" d="m332 422l1-1 2 1-3 1z"/>
		<path id="Path 91" class="s39" d="m373 424l2-3h5v4z"/>
		<path id="Path 92" class="s41" d="m421 422l3-1 2 4-4 2-2-3z"/>
		<path id="Path 93" class="s0" d="m331 427l1-5v1 4z"/>
		<path id="Path 94" class="s2" d="m332 423l3-1h1l9 12h-3l-7-8-1 9 4 1-4 5h-4v-1-3l2-10z"/>
		<path id="Path 95" class="s1" d="m345 434l-9-12 8 5 3 6 3-4h1l-2 5-2 1z"/>
		<path id="Path 96" class="s5" d="m550 431v-4l-7-5 8 3 1 7z"/>
		<path id="Path 97" class="s16" d="m502 429l3-6h9l3 1-2 12-5 3v3h4l-2 11-8 4-7-3 1-9 1-9z"/>
		<path id="Path 98" class="s42" d="m368 428l5-4 7 1h1l-2 10-2 4-3 1h-4v-4l-3-1z"/>
		<path id="Path 99" class="s39" d="m416 425l4-1 2 3v2l-2 2-5-2z"/>
		<path id="Path 100" class="s38" d="m350 429l3-4-1 4h-1z"/>
		<path id="Path 101" class="s43" d="m338 436l-4-1 1-9 7 8-2 2z"/>
		<path id="Path 102" class="s28" d="m356 429l4-3 8 2-1 7-3 1v5 7l-7 7h-1l-4-3v-13-3z"/>
		<path id="Path 103" class="s5" d="m329 434l2-7-1 7z"/>
		<path id="Path 104" class="s44" d="m330 434l1-7h1l-2 10z"/>
		<path id="Path 105" class="s26" d="m349 434l2-5h1 4l-4 7z"/>
		<path id="Path 106" class="s45" d="m402 433l3-4 2 1-2 5h-1z"/>
		<path id="Path 107" class="s16" d="m407 430l8-1 5 2 2-2 5 2-8 14-3 1-2-3-2-8h-7z"/>
		<path id="Path 108" class="s9" d="m427 431l5-2 6 6-2 4-6 1-1 7-6 2-4-4z"/>
		<path id="Path 109" class="s16" d="m438 435l5-6h13l2 1-4 10-3 1-7 5-8-7z"/>
		<path id="Path 110" class="s11" d="m458 430l3-1 5 2-2 8-5 4-5-3z"/>
		<path id="Path 111" class="s23" d="m493 434l3-5h6l-3 7z"/>
		<path id="Path 112" class="s20" d="m464 439l2-8 4 1-3 7z"/>
		<path id="Path 113" class="s46" d="m560 440l-8-4-2-5 2 1 8 5z"/>
		<path id="Path 114" class="s28" d="m523 441l11-9h4l-2 7-1 2-3 2h-5-4z"/>
		<path id="Path 115" class="s15" d="m385 435l7-2 5 2-3 11-4 1v-3l-5-2z"/>
		<path id="Path 116" class="s0" d="m329 440v-6h1v3 3z"/>
		<path id="Path 117" class="s20" d="m340 436l2-2h3l2 1 2 4-5 1z"/>
		<path id="Path 118" class="s47" d="m347 435l2-1 3 2v3h-3z"/>
		<path id="Path 119" class="s42" d="m490 435l3-1 6 2-1 9h-3l-5-4z"/>
		<path id="Path 120" class="s48" d="m364 441v-5l3-1 3 1v4z"/>
		<path id="Path 121" class="s28" d="m377 439l2-4h6v7l-6 1z"/>
		<path id="Path 122" class="s49" d="m403 440l1-5h1 7l2 8h-9z"/>
		<path id="Path 123" class="s28" d="m470 440l7-5 3 2v10l-6 3-4-7z"/>
		<path id="Path 124" class="s33" d="m480 437l10-2v6l5 4-4 6-4 1-7-5z"/>
		<path id="Path 125" class="s26" d="m334 441l4-5h2l4 4v7h-8z"/>
		<path id="Path 126" class="s50" d="m514 442h-4v-3l5-3 1 6z"/>
		<path id="Path 127" class="s51" d="m560 440v-3l1 5h-1z"/>
		<path id="Path 128" class="s24" d="m344 440l5-1h3v13l4 3v9l-4 3h-4-14v-8l1-1 11-3-2-8z"/>
		<path id="Path 129" class="s9" d="m374 440l3-1 2 4-1 2-4-1z"/>
		<path id="Path 130" class="s2" d="m429 447l1-7 6-1 8 7v6l-3 5h-4z"/>
		<path id="Path 131" class="s33" d="m459 443l5-4h3l3 1v3l-8 6-3-1z"/>
		<path id="Path 132" class="s32" d="m535 441l1-2h6l3 5-7 1z"/>
		<path id="Path 133" class="s52" d="m329 447v-7h1v1 6z"/>
		<path id="Path 134" class="s16" d="m364 441l6-1h4v4l-6 5-4-1z"/>
		<path id="Path 135" class="s33" d="m399 447l4-7 2 3h9l2 3-5 13h-5l-1-3 1-4-5-1z"/>
		<path id="Path 136" class="s53" d="m451 441l3-1 5 3v5h-6z"/>
		<path id="Path 137" class="s23" d="m330 447v-6h4l2 6-1 11-1 1-4-4z"/>
		<path id="Path 138" class="s49" d="m444 446l7-5 2 7v4l-3 1-6-1z"/>
		<path id="Path 139" class="s24" d="m516 442l7-1v2l-3 2 1 6-1 10 4 3-8 6-4-7h-4l5-7-1-3 2-11z"/>
		<path id="Path 140" class="s54" d="m532 443l3-2 3 4-4 4h-2z"/>
		<path id="Path 141" class="s18" d="m379 443l6-1 5 2v3l4-1 2 1v8l-4 4h-9l-5-5v-9z"/>
		<path id="Path 142" class="s46" d="m560 445v-3h1l4 5v2z"/>
		<path id="Path 143" class="s21" d="m462 449l8-6 4 7-5 5-6 1-2-3z"/>
		<path id="Path 144" class="s9" d="m521 451l-1-6 3-2h4v6l-2 2z"/>
		<path id="Path 145" class="s19" d="m527 449v-6h5v6z"/>
		<path id="Path 146" class="s24" d="m545 444l5 1 1 8 12 1-2 7h-2l-15 3v-5h-10l-1-4 1-6 4-4z"/>
		<path id="Path 147" class="s28" d="m368 449l6-5 4 1v9l5 5-2 6h-3l-2-8h-8z"/>
		<path id="Path 148" class="s10" d="m416 446l3-1 4 4v2l-3 1-2 8-5 1-2-2z"/>
		<path id="Path 149" class="s11" d="m491 451l4-6h3l-1 9h-3z"/>
		<path id="Path 150" class="s25" d="m561 461l2-7-12-1-1-8h10l5 4 5 2 2 5v1l1 4-1 4z"/>
		<path id="Path 151" class="s55" d="m328 455l1-8h1v8z"/>
		<path id="Path 152" class="s19" d="m335 458l1-11h8l2 8z"/>
		<path id="Path 153" class="s16" d="m396 455v-8h3l2 4-1 4z"/>
		<path id="Path 154" class="s12" d="m423 449l6-2 8 10-1 2-11-4-2-4z"/>
		<path id="Path 155" class="s12" d="m474 450l6-3 7 5-2 7h7l2 6-4 4v7h-8l-2-7-8 2-2-10-1-6z"/>
		<path id="Path 156" class="s8" d="m565 449v-2l7 3v6l-2-5z"/>
		<path id="Path 157" class="s3" d="m319 458l-1-10h4l6 7-2 1-6-4v6z"/>
		<path id="Path 158" class="s42" d="m357 455l7-7 4 1v8h-7z"/>
		<path id="Path 159" class="s39" d="m450 453l3-1v-4h6l3 1-1 4-9 7h-2z"/>
		<path id="Path 160" class="s56" d="m525 451l2-2h5 2l-1 6-5 2z"/>
		<path id="Path 161" class="s30" d="m400 455l1-4 5 1-1 4z"/>
		<path id="Path 162" class="s2" d="m413 461l5-1 2-8 3-1 2 4 11 4v4l-5 5h-17l-4-1z"/>
		<path id="Path 163" class="s37" d="m487 452l4-1 3 3v4l-2 1h-7z"/>
		<path id="Path 164" class="s23" d="m524 464l-4-3 1-10h4l3 6 1 4z"/>
		<path id="Path 165" class="s22" d="m320 458v-6l6 4v3l-3 2-3-2z"/>
		<path id="Path 166" class="s34" d="m441 457l3-5 6 1v7h-6z"/>
		<path id="Path 167" class="s9" d="m452 460l9-7 2 3-1 5-3 3-7 1z"/>
		<path id="Path 168" class="s57" d="m504 457l8-4 1 3-5 7h-4l-2-2z"/>
		<path id="Path 169" class="s38" d="m628 455l11-2 9 2v1h-7z"/>
		<path id="Path 170" class="s2" d="m494 458v-4h3l7 3-2 4-5 1z"/>
		<path id="Path 171" class="s26" d="m326 456l2-1h2l4 4v8h-8v-4h2l-2-4z"/>
		<path id="Path 172" class="s26" d="m356 464v-9h1l4 2-1 9h-1z"/>
		<path id="Path 173" class="s39" d="m392 459l4-4h4l5 1 1 3v8h-14z"/>
		<path id="Path 174" class="s11" d="m463 456l6-1 1 6h-8z"/>
		<path id="Path 175" class="s9" d="m528 457l5-2 1 4-2 2h-3z"/>
		<path id="Path 176" class="s6" d="m611 457l17-2-6 2-6 1h-5z"/>
		<path id="Path 177" class="s2" d="m622 457l6-2 13 1 1 7h4l3-6h2 3l4 2 3 3-6 5-6 1 1 5h4v8l-1 3-11 1v-7l-5-5h-9l-1-8-5-4z"/>
		<path id="Path 178" class="s1" d="m648 456v-1l3 2h-2z"/>
		<path id="Path 179" class="s26" d="m649 457l-3 6h-4l-1-7h7z"/>
		<path id="Path 180" class="s12" d="m360 466l1-9h7v10z"/>
		<path id="Path 181" class="s58" d="m368 467v-10h8l2 8-7 2z"/>
		<path id="Path 182" class="s53" d="m436 459l1-2h4l3 3v3h-8z"/>
		<path id="Path 183" class="s14" d="m573 461l-1-4 5 5z"/>
		<path id="Path 184" class="s4" d="m599 460l12-3v1l-3 1-8 1z"/>
		<path id="Path 185" class="s29" d="m616 458l6-1v4h-6z"/>
		<path id="Path 186" class="s5" d="m658 459l-4-2 8 3z"/>
		<path id="Path 187" class="s52" d="m318 464l1-6h1v1 5z"/>
		<path id="Path 188" class="s16" d="m492 459l2-1 3 4-1 3h-2z"/>
		<path id="Path 189" class="s15" d="m608 459l3-1h5v3l-5 5-3-1z"/>
		<path id="Path 190" class="s23" d="m320 464v-5l3 2 3 2v4l-3 4h-3z"/>
		<path id="Path 191" class="s43" d="m323 461l3-2 2 4h-2z"/>
		<path id="Path 192" class="s16" d="m381 465l2-6h9v8h-9z"/>
		<path id="Path 193" class="s18" d="m406 467v-8h5l2 2-3 6z"/>
		<path id="Path 194" class="s36" d="m532 461l2-2h10v5l-1 1h-6l-5-1z"/>
		<path id="Path 195" class="s2" d="m600 460l8-1v6l-20 2v-4l1-2h4z"/>
		<path id="Path 196" class="s59" d="m661 462l-3-3 4 1v1z"/>
		<path id="Path 197" class="s2" d="m444 463v-3h6 2v5l-5 2z"/>
		<path id="Path 198" class="s4" d="m583 462l5-2v1l-4 1z"/>
		<path id="Path 199" class="s0" d="m588 461v-1h5v1h-4z"/>
		<path id="Path 200" class="s52" d="m593 461v-1h6 1z"/>
		<path id="Path 201" class="s5" d="m662 461v-1h4l1 3z"/>
		<path id="Path 202" class="s7" d="m459 464l3-3h8l2 10-2 2-11-2z"/>
		<path id="Path 203" class="s21" d="m497 462l5-1 2 2-1 3-5 3-2-4z"/>
		<path id="Path 204" class="s11" d="m524 464l5-3h3v3l-4 3 1 6-5 4-9-4 1-3z"/>
		<path id="Path 205" class="s9" d="m544 464l15-3v5l-5 5h-9l-2-4v-2z"/>
		<path id="Path 206" class="s26" d="m554 471l5-5v-5h2l11 4 2 6 4 17-16-1v-9l-6-2z"/>
		<path id="Path 207" class="s37" d="m572 465l1-4 4 1h6 1l4 1v4l-6 4h-8z"/>
		<path id="Path 208" class="s24" d="m584 462l4-1h1l-1 2z"/>
		<path id="Path 209" class="s26" d="m611 466l5-5h6l5 4 1 8v10l-6 2-5-2-2-10 1-4h-4z"/>
		<path id="Path 210" class="s26" d="m661 462l1-1 5 2 5 5v2l5 5 2 2 1 7h-4l-3-3h-11-8v-8l1-6z"/>
		<path id="Path 211" class="s37" d="m431 468l5-5h8l3 4 2 4-3 2z"/>
		<path id="Path 212" class="s12" d="m503 466l1-3h4 4l4 7-1 3h-7z"/>
		<path id="Path 213" class="s5" d="m672 468l-5-5 4 1z"/>
		<path id="Path 214" class="s8" d="m314 472l4-2v-6h2v7l-6 3z"/>
		<path id="Path 215" class="s53" d="m352 467l4-3 3 2-5 2z"/>
		<path id="Path 216" class="s33" d="m452 465l7-1v7h-1-9l-2-4z"/>
		<path id="Path 217" class="s33" d="m529 473l-1-6 4-3 5 1v3l-4 5z"/>
		<path id="Path 218" class="s37" d="m371 467l7-2h3l2 2-12 2z"/>
		<path id="Path 219" class="s10" d="m490 476v-7l4-4h2l2 4-3 7z"/>
		<path id="Path 220" class="s26" d="m537 468v-3h6v2z"/>
		<path id="Path 221" class="s58" d="m588 467l20-2 3 1 1 3 3 4 2 10-5 2v6l-4 4h-2-5l-2-3-1-13-8-2-6-2-2-4z"/>
		<path id="Path 222" class="s48" d="m354 468l5-2h1l8 1h3v2l-3 14-14-4z"/>
		<path id="Path 223" class="s29" d="m498 469l5-3 5 7v6h-8l-5-3z"/>
		<path id="Path 224" class="s34" d="m323 471l3-4h8 14v12h-4l-18-2z"/>
		<path id="Path 225" class="s60" d="m348 479v-12h4l2 1v11h-2z"/>
		<path id="Path 226" class="s60" d="m371 469l12-2h9 14 4l4 1v11l-6 3v7l-5 10h-4-7l-6 1-18-17z"/>
		<path id="Path 227" class="s57" d="m537 468l6-1 2 4-10 5-2-3z"/>
		<path id="Path 228" class="s7" d="m654 473h-4l-1-5 6-1z"/>
		<path id="Path 229" class="s50" d="m408 489v-7l6-3v-11h17l15 5-2 16h-16-10z"/>
		<path id="Path 230" class="s48" d="m472 471l8-2 2 7h8 5l5 3v8h-6l-2-4h-9l-5 5-10-7h-8l-2-10h1l11 2z"/>
		<path id="Path 231" class="s16" d="m615 473l-3-4h4z"/>
		<path id="Path 232" class="s17" d="m314 474l6-3h3l3 6v10l-2 12-8 1-6-2-3 4h-9l-14-3-2-11 15-9h2l8-3z"/>
		<path id="Path 233" class="s60" d="m446 473l3-2h9l2 10v10h-11l-5-2z"/>
		<path id="Path 234" class="s23" d="m535 476l10-5h9l2 5 6 2v9h-3l-22-3-4-4z"/>
		<path id="Path 235" class="s24" d="m578 488l-4-17h8l2 4 6 2v13l-3 1z"/>
		<path id="Path 236" class="s14" d="m303 477l11-5v2l-7 2z"/>
		<path id="Path 237" class="s7" d="m508 479v-6h7l9 4v4 1l-10-2z"/>
		<path id="Path 238" class="s28" d="m524 477l5-4h4l2 3-2 4-9 1z"/>
		<path id="Path 239" class="s16" d="m628 483v-10h9l5 5v7h-6z"/>
		<path id="Path 240" class="s23" d="m303 477l4-1-8 3 2-2z"/>
		<path id="Path 241" class="s4" d="m293 479l8-2-2 2h-2z"/>
		<path id="Path 242" class="s48" d="m326 487v-10l18 2v8l-8 4-4-4z"/>
		<path id="Path 243" class="s18" d="m590 490v-13l8 2 1 13h-7z"/>
		<path id="Path 244" class="s0" d="m680 484l-1-7 3 10z"/>
		<path id="Path 245" class="s8" d="m291 480l2-1h4l-15 9-10 4v-2l1-1 3-1 13-6z"/>
		<path id="Path 246" class="s30" d="m344 487v-8h4 4v8z"/>
		<path id="Path 247" class="s17" d="m352 487v-8h2l14 4 18 17-1 3h-18l-1-4-4 1h-2v-6z"/>
		<path id="Path 248" class="s50" d="m500 487v-8h8l6 1v13h-6z"/>
		<path id="Path 249" class="s20" d="m514 493v-13l10 2 5 4-5 9z"/>
		<path id="Path 250" class="s37" d="m524 481l9-1 4 4v2h-8l-5-4z"/>
		<path id="Path 251" class="s50" d="m460 491v-10h8l10 7v5z"/>
		<path id="Path 252" class="s49" d="m653 484l1-3h8l-3 12z"/>
		<path id="Path 253" class="s37" d="m653 484l6 9 3-12h11l3 3v9l-1 4-5 1 3 17-5 1-16-3v-11l-8-8-8-1v-8h6z"/>
		<path id="Path 254" class="s60" d="m478 488l5-5h9l2 4v10h-14l-2-4z"/>
		<path id="Path 255" class="s12" d="m612 491v-6l5-2 5 2v5l-4 1z"/>
		<path id="Path 256" class="s15" d="m622 485l6-2 8 2v8l-10 4-4-7z"/>
		<path id="Path 257" class="s34" d="m537 486v-2l22 3v2l-5 4h-9z"/>
		<path id="Path 258" class="s29" d="m676 493v-9h4l2 3 4 5-4 5h-1z"/>
		<path id="Path 259" class="s48" d="m514 493l10 2 5-9h8l8 7h9l5-4 3-2 16 1 9 3 5 1h7l2 3 1 4h4l14 5v8l6 9v8h-4l-1 4h-11l-7-4-7-2-20-4-2-6h-6-4l-4-6h-8l-9-4-20 2-7-1-8-3v-12z"/>
		<path id="Path 260" class="s34" d="m324 499l2-12h6l4 4v8l-11 3z"/>
		<path id="Path 261" class="s25" d="m336 491l8-4h8l8 7v6l-6 7-11-3-3-5h-4z"/>
		<path id="Path 262" class="s17" d="m494 497v-10h6l8 6v12 6h-6v-7z"/>
		<path id="Path 263" class="s61" d="m559 489v-2h3z"/>
		<path id="Path 264" class="s5" d="m686 492l-4-5 5 5z"/>
		<path id="Path 265" class="s25" d="m272 492l10-4 2 11 14 3-1 13 6 3 3 11h-4l-7-1-1-8-4-3v-6l-4-4h-11l-1-4-8 1-6-5z"/>
		<path id="Path 266" class="s17" d="m418 489h10v9l-2 1-8-3z"/>
		<path id="Path 267" class="s25" d="m403 499l5-10h10v7l8 3v4l-16-2h-4z"/>
		<path id="Path 268" class="s25" d="m428 498v-9h16l5 2 2 8h7v10h-6l-14-3-4-8z"/>
		<path id="Path 269" class="s3" d="m256 498l16-8v2l-12 7-5 1v-1z"/>
		<path id="Path 270" class="s53" d="m587 491l3-1 2 2z"/>
		<path id="Path 271" class="s2" d="m618 491l4-1 4 7h-8z"/>
		<path id="Path 272" class="s17" d="m458 499h-7l-2-8h11l18 2 2 4-6 3z"/>
		<path id="Path 273" class="s15" d="m608 495l4-4h6v6z"/>
		<path id="Path 274" class="s7" d="m682 497l4-5h1 1l4 3 2 2 3 3v2l-3 1h-6z"/>
		<path id="Path 275" class="s11" d="m626 497l10-4 8 1 8 8v11 2l-11-4-15-7z"/>
		<path id="Path 276" class="s24" d="m675 497l1-4 5 4z"/>
		<path id="Path 277" class="s34" d="m606 499h-4l-1-4h5z"/>
		<path id="Path 278" class="s37" d="m606 499v-4h2l10 2h8v7h-6z"/>
		<path id="Path 279" class="s25" d="m474 500l6-3h14l8 7v7 5l-4 1h-4l-3-4-15 2z"/>
		<path id="Path 280" class="s11" d="m673 515l-3-17 5-1h6 1l6 6v16h-11z"/>
		<path id="Path 281" class="s23" d="m298 502h9l3-4 6 2 3 8h5 5l2 4 11-3 3 6-9 3-3 7-16-1-6-4-2 5v4h-3l-3-11-6-3z"/>
		<path id="Path 282" class="s15" d="m426 499l2-1h6l4 8-7 3-5-6z"/>
		<path id="Path 283" class="s0" d="m251 502l4-3v1z"/>
		<path id="Path 284" class="s17" d="m255 500l5-1 6 5v7l3 2v2h-8l-7 8h-17l-3 4-4-2v-11l1-2 10-5 10-5z"/>
		<path id="Path 285" class="s22" d="m316 500l8-1 1 3-1 6h-5z"/>
		<path id="Path 286" class="s36" d="m325 502l11-3h4l3 5-1 5-11 3-2-4h-5z"/>
		<path id="Path 287" class="s22" d="m362 500l4-1 1 4-4 1z"/>
		<path id="Path 288" class="s15" d="m386 500l6-1v5l-5 4-2-5z"/>
		<path id="Path 289" class="s32" d="m387 508l5-4v-5h7l1 8-3 7-6-1z"/>
		<path id="Path 290" class="s15" d="m400 507l-1-8h4l3 2v6z"/>
		<path id="Path 291" class="s22" d="m458 509v-10l16 1 2 15v1h-4l-6 1-3-6z"/>
		<path id="Path 292" class="s59" d="m354 507l6-7h2l1 4 4-1h18l2 5 4 5-8 6-7 1-6-7-8 2h-8z"/>
		<path id="Path 293" class="s36" d="m406 507v-6h4v8h-4z"/>
		<path id="Path 294" class="s59" d="m410 509v-8l16 2 5 6 7-3 14 3v8l-6 9-12-5-12-3-2-5z"/>
		<path id="Path 295" class="s26" d="m694 503l3-1 2 5 1 6h-4z"/>
		<path id="Path 296" class="s50" d="m266 504l8-1 1 4-1 6h-5l-3-2z"/>
		<path id="Path 297" class="s59" d="m688 519v-16h6l2 10 1 6-1 2z"/>
		<path id="Path 298" class="s13" d="m861 505l10-2v2h-9z"/>
		<path id="Path 299" class="s38" d="m871 505v-2l15 2h-5-4z"/>
		<path id="Path 300" class="s29" d="m342 509l1-5 11 3v8h-9z"/>
		<path id="Path 301" class="s20" d="m626 521l-6-9v-8h6l15 7-1 10z"/>
		<path id="Path 302" class="s50" d="m508 511v-6l8 3v3h-6z"/>
		<path id="Path 303" class="s3" d="m841 507l6-2v2h-2z"/>
		<path id="Path 304" class="s62" d="m847 507v-2h14 1v1h-6l-6 1z"/>
		<path id="Path 305" class="s33" d="m862 506v-1h9 6v1h-11z"/>
		<path id="Path 306" class="s63" d="m877 506v-1h4l6 2-3 6h-6z"/>
		<path id="Path 307" class="s6" d="m887 507l-6-2h5 6v1 1z"/>
		<path id="Path 308" class="s13" d="m892 506v-1l4 2z"/>
		<path id="Path 309" class="s53" d="m850 507l6-1v6l-6 3z"/>
		<path id="Path 310" class="s63" d="m850 515l6-3v-6h6 4v14l-4 1v8l-12 5h-6l-4-7v-10l2-1z"/>
		<path id="Path 311" class="s48" d="m866 520v-14h11l1 7h6l4 7-1 3-2 2-3 4h-10l-2-8z"/>
		<path id="Path 312" class="s8" d="m892 507v-1l4 1h1l1 2h-2z"/>
		<path id="Path 313" class="s17" d="m274 513l1-6h11l4 4v6l-16-1z"/>
		<path id="Path 314" class="s54" d="m397 514l3-7h6v2 9h-6z"/>
		<path id="Path 315" class="s25" d="m523 509l20-2 9 4v16h-8-6-4v-5l-6-3-5-8z"/>
		<path id="Path 316" class="s4" d="m700 513l-1-6 3 10z"/>
		<path id="Path 317" class="s6" d="m828 508l10-1-8 3-2-1z"/>
		<path id="Path 318" class="s11" d="m830 510l8-3h3 4l-3 9-2 1h-8z"/>
		<path id="Path 319" class="s34" d="m842 516l3-9h2 3v8z"/>
		<path id="Path 320" class="s60" d="m884 513l3-6h5l4 2v4l-3 5h-1l-4 2z"/>
		<path id="Path 321" class="s13" d="m898 509l-1-2h2v2z"/>
		<path id="Path 322" class="s17" d="m516 511v-3l7 1v2z"/>
		<path id="Path 323" class="s4" d="m815 509l7-1v1z"/>
		<path id="Path 324" class="s51" d="m822 509v-1h6v1z"/>
		<path id="Path 325" class="s23" d="m406 518v-9h4l10 4 2 5-2 3-10 2-4-1z"/>
		<path id="Path 326" class="s36" d="m452 517v-8h6l5 2 3 6-2 3z"/>
		<path id="Path 327" class="s52" d="m808 510l7-1v2h-1-5-1z"/>
		<path id="Path 328" class="s44" d="m815 511v-2h7l-2 2z"/>
		<path id="Path 329" class="s32" d="m820 511l2-2h6l2 1 2 7v2h-12v-4z"/>
		<path id="Path 330" class="s12" d="m896 513v-4h2v4z"/>
		<path id="Path 331" class="s38" d="m898 513v-4h1v4z"/>
		<path id="Path 332" class="s4" d="m803 512l5-2v1z"/>
		<path id="Path 333" class="s15" d="m502 516v-5h6 2l2 8 6 6 16 2h4l1 5h4l1-5h8l2 4-1 5-6 1-16 1-9 1-5-11-7-1h-4v-7z"/>
		<path id="Path 334" class="s32" d="m534 527l-16-2-6-6-2-8h6 7l5 8 6 3z"/>
		<path id="Path 335" class="s22" d="m552 527v-16h8l4 6v5l3 1-3 7-10 1z"/>
		<path id="Path 336" class="s60" d="m640 521l1-10 11 4 2 10-12 2z"/>
		<path id="Path 337" class="s16" d="m803 512l5-1h1l-3 7-10-1v-4z"/>
		<path id="Path 338" class="s11" d="m806 518l3-7h5v4l-4 4z"/>
		<path id="Path 339" class="s29" d="m814 515v-4h1 5v4z"/>
		<path id="Path 340" class="s1" d="m215 517l16-5-1 2-13 5h-2z"/>
		<path id="Path 341" class="s38" d="m774 515l21-3v1l-11 2-10 1z"/>
		<path id="Path 342" class="s14" d="m795 513v-1h8l-7 1z"/>
		<path id="Path 343" class="s32" d="m269 515v-2h5v3l-4 1z"/>
		<path id="Path 344" class="s54" d="m362 515l8-2 6 7-14 1z"/>
		<path id="Path 345" class="s19" d="m383 519l8-6 6 1 3 4h6v4l-16 3z"/>
		<path id="Path 346" class="s59" d="m476 515l15-2 3 4v3l-1 9h-1l-14-2-2-11z"/>
		<path id="Path 347" class="s48" d="m652 515v-2l16 3v11l6 7v13l3 2-5 4-9 2-6-2-5-5-1-7-8-4-1-4v-6l12-2z"/>
		<path id="Path 348" class="s29" d="m697 519l-1-6h4l2 4 6 4h-2z"/>
		<path id="Path 349" class="s35" d="m784 515l11-2h1v4 4l-2 2h-10z"/>
		<path id="Path 350" class="s8" d="m893 518l3-5h2l-1 2z"/>
		<path id="Path 351" class="s5" d="m897 515l1-2h1v2z"/>
		<path id="Path 352" class="s25" d="m217 519l13-5v11l-9 2h-2l-2-5z"/>
		<path id="Path 353" class="s22" d="m254 523l7-8h8l1 2v13 1h-5l-3-5-8-1z"/>
		<path id="Path 354" class="s24" d="m333 525l3-7 9-3h9 8v6l-13 2-2 3h-8l-3 3z"/>
		<path id="Path 355" class="s23" d="m466 517l6-1v11h-6l-5 4-3 9-5-1 1-10-8-3 6-9 12 3z"/>
		<path id="Path 356" class="s60" d="m668 516l5-1 4 4h11l8 2 1-2 9 2 2 8h6 14v6l6 1 1 7 5 2 1 7 13 1 1 3-1 7-6 6h-6l-2-13-12-3-2-2-8 2h-5l-7-4h-7l-5 4-17-4-3-2v-13l-6-7z"/>
		<path id="Path 357" class="s1" d="m768 517l6-2v1l-4 1z"/>
		<path id="Path 358" class="s39" d="m774 516l10-1v8l-4 4h-9l-1-10z"/>
		<path id="Path 359" class="s37" d="m810 519l4-4h6v4l-6 4h-4z"/>
		<path id="Path 360" class="s59" d="m270 517l4-1 16 1 4 3 1 8-5 7h-12l-2-5h-6z"/>
		<path id="Path 361" class="s54" d="m472 527v-11h4l2 11z"/>
		<path id="Path 362" class="s23" d="m498 517l4-1 4 4v7l-7 2h-6l1-9z"/>
		<path id="Path 363" class="s4" d="m211 520l4-3v2z"/>
		<path id="Path 364" class="s36" d="m494 520v-3h4z"/>
		<path id="Path 365" class="s30" d="m567 523l-3-1v-5h4v6z"/>
		<path id="Path 366" class="s17" d="m568 523v-6h6l2 6-2 1z"/>
		<path id="Path 367" class="s0" d="m708 521l-6-4 12 5z"/>
		<path id="Path 368" class="s0" d="m759 518l7-1-7 2z"/>
		<path id="Path 369" class="s2" d="m759 519l7-2h2 2l1 10v1l-6 1v-3l-8-5z"/>
		<path id="Path 370" class="s40" d="m796 521v-4l10 1 4 1v4l-10 1z"/>
		<path id="Path 371" class="s49" d="m832 519v-2h8v10l-2 1z"/>
		<path id="Path 372" class="s24" d="m420 521l2-3 12 3v8l-6 1-8-3z"/>
		<path id="Path 373" class="s38" d="m746 525l5-5 8-2v1l-2 2-5 2-5 2z"/>
		<path id="Path 374" class="s8" d="m888 520l4-2-5 5z"/>
		<path id="Path 375" class="s59" d="m211 520l4-1h2v3l-9 4h-6v-1l4-3z"/>
		<path id="Path 376" class="s9" d="m376 520l7-1 7 6 16-3 4 1 1 7-5 5h-7l-1 6-5 2-5-8h-12l-2-4h-14l-12-2-1-3 2-3 13-2z"/>
		<path id="Path 377" class="s53" d="m814 523l6-4h12l6 9v7l5 2 5 1v7 10l-8 1-10-8v-6l-6-9h-10z"/>
		<path id="Path 378" class="s45" d="m309 525l2-5 6 4-1 1z"/>
		<path id="Path 379" class="s64" d="m862 529v-8l4-1 4 1 2 8v2h-6z"/>
		<path id="Path 380" class="s54" d="m410 523l10-2v6l-1 1-8 2z"/>
		<path id="Path 381" class="s28" d="m434 529v-8l12 5 8 3-1 10-3 2-10-2v-6z"/>
		<path id="Path 382" class="s30" d="m626 529v-8h14l2 6v6h-2-12z"/>
		<path id="Path 383" class="s30" d="m714 529h-6l-2-8h2l6 1v1z"/>
		<path id="Path 384" class="s11" d="m752 523l5-2 8 5v3h-7l-6-3z"/>
		<path id="Path 385" class="s64" d="m794 523l2-2 4 3 10-1h4v10l-8 5v5l-14-1-2-3z"/>
		<path id="Path 386" class="s38" d="m194 527l4-4 8-1-4 3z"/>
		<path id="Path 387" class="s17" d="m208 526l9-4 2 5-9 2z"/>
		<path id="Path 388" class="s14" d="m714 523v-1l15 3v1z"/>
		<path id="Path 389" class="s15" d="m234 527l3-4h17v2l-10 5-7 2-3-1z"/>
		<path id="Path 390" class="s29" d="m554 531l10-1 3-7h1l6 1 1 6 11 7-1 8-19 1-4-1-9-6v-3z"/>
		<path id="Path 391" class="s32" d="m574 524l2-1 20 4v6l-6 4h-4l-11-7z"/>
		<path id="Path 392" class="s34" d="m714 529v-6l15 3-1 3z"/>
		<path id="Path 393" class="s2" d="m747 525l5-2v3h-5z"/>
		<path id="Path 394" class="s65" d="m771 527h9l4-4h10l-4 16-13-2-6-9z"/>
		<path id="Path 395" class="s4" d="m885 525l2-2-2 5z"/>
		<path id="Path 396" class="s66" d="m316 525l1-1 16 1 3 4v8l-8 1-2 3h-5l-1-4h-4l-1-1v-4z"/>
		<path id="Path 397" class="s16" d="m194 527l8-2v1l-6 4-6 1h-2l5-4z"/>
		<path id="Path 398" class="s20" d="m221 527l9-2 4 2v4l-2 10h-4l1-5z"/>
		<path id="Path 399" class="s67" d="m244 530l10-5 8 1 3 5-1 2-7 7-3 2-10-1z"/>
		<path id="Path 400" class="s68" d="m309 529v-4h7l-1 7h-3z"/>
		<path id="Path 401" class="s62" d="m729 526v-1h9v2h-2z"/>
		<path id="Path 402" class="s14" d="m738 527v-2h8 1v1l-5 1z"/>
		<path id="Path 403" class="s8" d="m882 529l3-4v3l-3 2z"/>
		<path id="Path 404" class="s50" d="m196 530l6-4h6l2 3 2 7v5l-16-2v-3z"/>
		<path id="Path 405" class="s68" d="m336 529l3-3h8l1 3v8h-6-6z"/>
		<path id="Path 406" class="s20" d="m728 529l1-3 7 1v6l-2 3-6-1z"/>
		<path id="Path 407" class="s34" d="m742 527l5-1h5l6 3v6l-16-2z"/>
		<path id="Path 408" class="s3" d="m182 532l11-5-5 4-6 2z"/>
		<path id="Path 409" class="s69" d="m210 529l9-2h2l8 9-1 5-16-5z"/>
		<path id="Path 410" class="s19" d="m419 528l1-1 8 3v7h-8z"/>
		<path id="Path 411" class="s7" d="m458 540l3-9 5-4h6 6l14 2v6l-6 4h-15l-5 6h-8z"/>
		<path id="Path 412" class="s29" d="m499 529l7-2h4v14l-6 1h-4v-7z"/>
		<path id="Path 413" class="s2" d="m510 541v-14l7 1 5 11v4h-8z"/>
		<path id="Path 414" class="s11" d="m544 527l-1 5h-4l-1-5z"/>
		<path id="Path 415" class="s25" d="m596 533v-6l7 2-3 5z"/>
		<path id="Path 416" class="s30" d="m736 533v-6h2 4v6z"/>
		<path id="Path 417" class="s64" d="m838 528l2-1 4 7-1 3-5-2z"/>
		<path id="Path 418" class="s2" d="m290 535l5-7 7 1v10l-8 2-4-2z"/>
		<path id="Path 419" class="s57" d="m411 530l8-2 1 9v2h-6-8v-4z"/>
		<path id="Path 420" class="s70" d="m765 529l6-1 6 9-1 2h-16l-2-4v-6z"/>
		<path id="Path 421" class="s15" d="m302 539v-10h4 3l3 3 3 4 1 1v4h-10z"/>
		<path id="Path 422" class="s67" d="m348 537v-8l12 2-4 26-6-3v-7z"/>
		<path id="Path 423" class="s58" d="m428 530l6-1 6 4v6 10l-10-2-2-10z"/>
		<path id="Path 424" class="s16" d="m492 535v-6h1 6l1 6z"/>
		<path id="Path 425" class="s15" d="m600 534l3-5 7 4v6z"/>
		<path id="Path 426" class="s22" d="m621 533l1-4h4l2 4v2z"/>
		<path id="Path 427" class="s71" d="m850 534l12-5 4 2v13l-18 1v-7z"/>
		<path id="Path 428" class="s30" d="m872 531v-2h10v1 1l-5 7h-1z"/>
		<path id="Path 429" class="s17" d="m190 531l6-1v6h-5z"/>
		<path id="Path 430" class="s54" d="m237 532l7-2v11l-1 4-5-1z"/>
		<path id="Path 431" class="s57" d="m270 531v-1h6l2 5-6 1z"/>
		<path id="Path 432" class="s36" d="m182 533l6-2h2l1 5-6 7-4 2v4l-5 2-2-11 6-5z"/>
		<path id="Path 433" class="s32" d="m228 541h4l2-10 3 1 1 12-6 1h-5l-8 5-7-2v-7-5z"/>
		<path id="Path 434" class="s11" d="m264 533l1-2h5l2 5 6-1h12v4l4 2v5l-4 1v5l-9-2-9-6-8-1v-2z"/>
		<path id="Path 435" class="s72" d="m356 557l4-26h14l2 4v16l-2 14-12 2-6-4z"/>
		<path id="Path 436" class="s63" d="m866 544v-13h6l4 7-4 5-4 1z"/>
		<path id="Path 437" class="s0" d="m877 538l5-7-1 5z"/>
		<path id="Path 438" class="s14" d="m180 533l2-1v1l-2 2z"/>
		<path id="Path 439" class="s45" d="m315 536l-3-4h3z"/>
		<path id="Path 440" class="s1" d="m163 545l17-12v2l-6 5-9 5z"/>
		<path id="Path 441" class="s12" d="m257 540l7-7v8z"/>
		<path id="Path 442" class="s23" d="m590 537l6-4 4 1 10 5v4 7h-14l-6-8z"/>
		<path id="Path 443" class="s32" d="m610 539v-6h11l7 2v7l3 3-1 4-13-6h-7z"/>
		<path id="Path 444" class="s36" d="m628 535v-2h12v4l-2 8h-7l-3-3z"/>
		<path id="Path 445" class="s32" d="m640 537v-4h2l1 4z"/>
		<path id="Path 446" class="s61" d="m734 536l2-3h6l16 2 2 4-2 10h-4l-4-6-10 2-5-2z"/>
		<path id="Path 447" class="s63" d="m806 543v-5l8-5h10l6 9v6l10 8-3 15h-10l-3-5-9-3z"/>
		<path id="Path 448" class="s61" d="m843 537l1-3h6l-2 4z"/>
		<path id="Path 449" class="s68" d="m376 551v-16h12l5 8-11 9z"/>
		<path id="Path 450" class="s73" d="m398 541l1-6h7v4z"/>
		<path id="Path 451" class="s58" d="m458 545h8l5-6h15l6-4h8v7l-5 2v6l-5 3h-16l-9 5-7-2z"/>
		<path id="Path 452" class="s74" d="m185 543l6-7h5v3 8l-6 2v-4z"/>
		<path id="Path 453" class="s2" d="m547 537l6-1v3l-3 2z"/>
		<path id="Path 454" class="s12" d="m316 541v-4h4l1 4h-4z"/>
		<path id="Path 455" class="s45" d="m326 541l2-3 8-1h6v10l-6 3v5h-6l-4-2z"/>
		<path id="Path 456" class="s75" d="m342 547v-10h6l2 10z"/>
		<path id="Path 457" class="s18" d="m420 539v-2h8l2 10h-8z"/>
		<path id="Path 458" class="s18" d="m531 538l16-1 3 4v10h-12l-6-2z"/>
		<path id="Path 459" class="s7" d="m585 545l1-8h4v5l6 8-6 1z"/>
		<path id="Path 460" class="s15" d="m638 545l2-8h3l8 4 1 7 5 5 6 2-9 4h-2l-1-4-9-2-4-2z"/>
		<path id="Path 461" class="s76" d="m776 539l1-2 13 2 2 3 14 1 9 20-9 1-2 3h-7l-1 6-2 4-14 4v-2l8-22-5-5v-5l-7-2z"/>
		<path id="Path 462" class="s24" d="m522 539l9-1 1 11v6h-6l-4-3v-9z"/>
		<path id="Path 463" class="s0" d="m872 543l4-5h1z"/>
		<path id="Path 464" class="s77" d="m190 549l6-2v-8l16 2v7l-13 3-4 4v5l-3 2-2-2z"/>
		<path id="Path 465" class="s33" d="m294 541l8-2 4 2v6l-12-1z"/>
		<path id="Path 466" class="s21" d="m398 541l8-2h8v10l-5 4-1 8-13 2-11-1-2-10 11-9z"/>
		<path id="Path 467" class="s10" d="m414 549v-10h6l2 8v2z"/>
		<path id="Path 468" class="s18" d="m440 549v-10l10 2 3-2 5 1v5 11l-8 1-10-1z"/>
		<path id="Path 469" class="s24" d="m550 541l3-2 9 6v5l-12 1z"/>
		<path id="Path 470" class="s78" d="m758 549l2-10h16v6l-2 25 2 9v6l-6 1-29-1-3-1 2-14 2-1h6l6-6 1-7 6-3z"/>
		<path id="Path 471" class="s29" d="m165 545l9-5 2 11-3 3h-4l-7-5z"/>
		<path id="Path 472" class="s26" d="m254 542l3-2 7 1v2 8h-3l-7-5z"/>
		<path id="Path 473" class="s73" d="m243 545l1-4 10 1v4l-2 1-9-1z"/>
		<path id="Path 474" class="s16" d="m306 547v-6h10 1l3 4-1 7-2 3h-7-5z"/>
		<path id="Path 475" class="s75" d="m319 552l1-7-3-4h4 5v12h-2z"/>
		<path id="Path 476" class="s31" d="m504 542l6-1 4 2v8l8 1 4 3-2 12h-9l-1-8-10-9z"/>
		<path id="Path 477" class="s16" d="m490 553l5-3v-6l5-2h4v8l-4 2v17 2h-6l-6-6z"/>
		<path id="Path 478" class="s19" d="m181 549v-4l4-2 5 2v4z"/>
		<path id="Path 479" class="s16" d="m264 551v-8l8 1-4 7h-2z"/>
		<path id="Path 480" class="s58" d="m522 552l-8-1v-8h8z"/>
		<path id="Path 481" class="s2" d="m610 550v-7h7l13 6 2 3v11l-5 2-7-2v-7l-6-6z"/>
		<path id="Path 482" class="s20" d="m740 545l10-2 4 6v4l-13-1z"/>
		<path id="Path 483" class="s4" d="m868 544l4-1-8 5z"/>
		<path id="Path 484" class="s79" d="m227 545h5l2 9 1 5-6 6-7-4 2-4 3-1z"/>
		<path id="Path 485" class="s24" d="m232 545l6-1 5 1v1l-2 4-7 4z"/>
		<path id="Path 486" class="s58" d="m268 551l4-7 9 6v1z"/>
		<path id="Path 487" class="s15" d="m848 545l18-1h2l-4 4-5 2-5 3-1 4-5-2z"/>
		<path id="Path 488" class="s8" d="m153 555l10-10h2l-3 4-5 5-4 2z"/>
		<path id="Path 489" class="s80" d="m219 550l8-5v11l-3 1h-7z"/>
		<path id="Path 490" class="s26" d="m562 550v-5l4 1-1 4z"/>
		<path id="Path 491" class="s58" d="m566 546l19-1 5 6v10h-6l-16-2-3-2v-7z"/>
		<path id="Path 492" class="s11" d="m630 549l1-4h7v6l-6 1z"/>
		<path id="Path 493" class="s70" d="m776 579l-2-9 2-25 7 2v5l5 5-8 22z"/>
		<path id="Path 494" class="s72" d="m241 550l2-4 9 1v8l1 6-1 6-17 2-6 13-9-3v-6l9-8 6-6 7-3z"/>
		<path id="Path 495" class="s24" d="m252 547l2-1 7 5v2l-9 2z"/>
		<path id="Path 496" class="s58" d="m290 552v-5l4-1 12 1-1 8-8 2-5-1z"/>
		<path id="Path 497" class="s68" d="m336 555v-5l6-3h8v7l6 3v6l6 4-1 6h-7l-12-10v-4z"/>
		<path id="Path 498" class="s31" d="m422 549v-2h8l10 2v7l-2 1h-16z"/>
		<path id="Path 499" class="s43" d="m195 560v-5l4-4 13-3 7 2-2 7-1 3-6 5-9 1z"/>
		<path id="Path 500" class="s32" d="m157 554l5-5 7 5-1 5-4 1z"/>
		<path id="Path 501" class="s9" d="m176 551l5-2h9v11l-8-5-8 1-1-2z"/>
		<path id="Path 502" class="s81" d="m408 561l1-8 5-4h8v8l-10 4z"/>
		<path id="Path 503" class="s11" d="m532 555v-6l6 2v4h-4z"/>
		<path id="Path 504" class="s15" d="m672 553l5-4 17 4 2 18-8 4h-11l-9-4z"/>
		<path id="Path 505" class="s29" d="m694 553l5-4h7l7 4 1 8v8l-18 2z"/>
		<path id="Path 506" class="s41" d="m754 553v-4h4l3 4-6 3z"/>
		<path id="Path 507" class="s9" d="m234 554l7-4 1 6-7 3z"/>
		<path id="Path 508" class="s10" d="m281 551v-1l9 2 2 4-3 1h-6z"/>
		<path id="Path 509" class="s12" d="m500 569v-17l4-2 10 9 1 8-3 3z"/>
		<path id="Path 510" class="s31" d="m550 551l12-1h3v7l3 2v10h-8l-8-2-2-6h-7l-5-6v-4z"/>
		<path id="Path 511" class="s16" d="m590 551l6-1h14 4l6 6v7l-1 4-13 2h-8l-5-2-3-6z"/>
		<path id="Path 512" class="s21" d="m261 553v-2h3 2l-2 2z"/>
		<path id="Path 513" class="s67" d="m264 553l2-2h2 13l2 6h6l1 8-1 7-2 7-5 10-8 1v12l-3 5-13-2h-14-13l-1 3-14 1h-2v-8-22h6l9 3 6-13 17-2 1-6 10-1z"/>
		<path id="Path 514" class="s75" d="m374 565l2-14 6 1 2 10-4 3z"/>
		<path id="Path 515" class="s49" d="m632 552l6-1 4 2v6l-8 7 1 11-1 9-6 1-10-2v-4l2-11h4l3-5 5-2z"/>
		<path id="Path 516" class="s11" d="m718 553l8-2 2 2v10h-6l-4-2z"/>
		<path id="Path 517" class="s82" d="m317 555l2-3 5 1v4l4 2v6 4h-5l-3-4z"/>
		<path id="Path 518" class="s57" d="m252 555l9-2h3l-1 7-10 1z"/>
		<path id="Path 519" class="s68" d="m328 559l-4-2v-4h2l4 2z"/>
		<path id="Path 520" class="s12" d="m465 558l9-5h16l-2 12 6 6h6l3 4 1 17-2 1h-10l-8-2-6-9-10-3z"/>
		<path id="Path 521" class="s16" d="m642 559v-6l9 2 1 4z"/>
		<path id="Path 522" class="s2" d="m663 555l9-2-4 18-9 2-5-7v-7z"/>
		<path id="Path 523" class="s15" d="m714 561l-1-8h5v8z"/>
		<path id="Path 524" class="s34" d="m728 563v-10l12 3 2 13-2 1-8 1-2-1z"/>
		<path id="Path 525" class="s13" d="m853 557l1-4v5z"/>
		<path id="Path 526" class="s15" d="m153 556l4-2 7 6 2 19-2 4-6-2-3-8h-13l-1-3z"/>
		<path id="Path 527" class="s7" d="m168 559l1-5h4l1 2v3z"/>
		<path id="Path 528" class="s3" d="m128 581v-3l25-23v1l-12 14-7 7z"/>
		<path id="Path 529" class="s67" d="m174 556l8-1 8 5 2 2 5 5 3 4-3 4h-9-1l-7-6-6-10z"/>
		<path id="Path 530" class="s24" d="m297 557l8-2h5v9l-4 3-12-4z"/>
		<path id="Path 531" class="s27" d="m310 564v-9h7l3 10h-8z"/>
		<path id="Path 532" class="s83" d="m328 559l2-4h6l6 4v4l-11 2h-3z"/>
		<path id="Path 533" class="s12" d="m524 567l2-12h6 2v16h-8z"/>
		<path id="Path 534" class="s16" d="m534 571v-16h4l5 6-1 9-1 1z"/>
		<path id="Path 535" class="s32" d="m840 556l8-1 5 2 1 1 9 13-1 6h-2l-21-2-2-4z"/>
		<path id="Path 536" class="s72" d="m289 557l3-1 5 1-3 6-4 2z"/>
		<path id="Path 537" class="s42" d="m438 557l2-1 10 1v4l6 5v13 2h-4v-4l-14-13z"/>
		<path id="Path 538" class="s31" d="m450 557l8-1 7 2 3 21h-12v-13l-6-5z"/>
		<path id="Path 539" class="s42" d="m216 560l1-3h7l-2 4z"/>
		<path id="Path 540" class="s84" d="m412 561l10-4h16v7l14 13v4l-8 4h-11l-1-4h-8l-5-3-3-9-4-2z"/>
		<path id="Path 541" class="s13" d="m863 571l-9-13 18 19z"/>
		<path id="Path 542" class="s59" d="m164 560l4-1h6l6 10v6 8h-9l-1-4h-4z"/>
		<path id="Path 543" class="s42" d="m568 569v-10l16 2v6h-7l-5 4z"/>
		<path id="Path 544" class="s39" d="m635 577l-1-11 8-7h10 2v7l5 7-5 4z"/>
		<path id="Path 545" class="s35" d="m192 562l3-2 6 6-4 1z"/>
		<path id="Path 546" class="s84" d="m201 566l9-1 6-5 6 1 7 4-9 8-6 4h-6l-1-5-7-1-3-4z"/>
		<path id="Path 547" class="s85" d="m395 563l13-2h4v6l4 2 3 9-5 1h-7l-2-7z"/>
		<path id="Path 548" class="s42" d="m542 570l1-9h7l2 6-1 4z"/>
		<path id="Path 549" class="s33" d="m584 567v-6h6l3 6-3 2z"/>
		<path id="Path 550" class="s49" d="m714 569v-8h4l4 2v5l-7 1z"/>
		<path id="Path 551" class="s86" d="m380 565l4-3 11 1 10 9 2 7h7l-2 16h-6-4l-4-6-18-4z"/>
		<path id="Path 552" class="s58" d="m290 565l4-2 12 4v8l-2 7-2 3-8-6v-4l-5-3z"/>
		<path id="Path 553" class="s87" d="m331 565l11-2 12 10 4 16-12 2-2-6-2-13-6-2-5-1z"/>
		<path id="Path 554" class="s33" d="m619 567l1-4 7 2-3 5h-4z"/>
		<path id="Path 555" class="s37" d="m722 568v-5h6l2 7h-5z"/>
		<path id="Path 556" class="s53" d="m804 567l2-3 9-1 9 3 3 5-12 2-10-3z"/>
		<path id="Path 557" class="s39" d="m306 567l4-3 2 1v4l-2 6h-4z"/>
		<path id="Path 558" class="s42" d="m312 569v-4h8l3 4z"/>
		<path id="Path 559" class="s21" d="m328 569v-4h3v4h-1z"/>
		<path id="Path 560" class="s88" d="m362 567l12-2h6v20l-6 2-4-3v-5l-9-6z"/>
		<path id="Path 561" class="s16" d="m512 570l3-3h9l2 4-1 12 7 6v8h-2l-11-2v-11l-6-4z"/>
		<path id="Path 562" class="s16" d="m551 571l1-4 8 2-1 5-8 1z"/>
		<path id="Path 563" class="s35" d="m572 571l5-4h7l6 2 3-2 5 2-6 8-12 2h-6z"/>
		<path id="Path 564" class="s39" d="m606 569l13-2 1 3-2 11h-4l-8-7z"/>
		<path id="Path 565" class="s71" d="m796 573l1-6h7l1 3-1 3z"/>
		<path id="Path 566" class="s48" d="m715 569l7-1 3 2-1 7h-6z"/>
		<path id="Path 567" class="s21" d="m180 575v-6l7 6z"/>
		<path id="Path 568" class="s47" d="m310 575l2-6h11l-7 15-7-3z"/>
		<path id="Path 569" class="s67" d="m316 584l7-15h5 2l1 7 5 1 4 8-4 3v6l1 8 4 1 4 7-1 6 3 4v7l-11 6h-28l-8-4v-6l9-13 4-17z"/>
		<path id="Path 570" class="s72" d="m336 577l-5-1-1-7h1l5 1z"/>
		<path id="Path 571" class="s33" d="m500 571v-2l12 1 1 10 6 4v11l-1 1-14-4-1-17z"/>
		<path id="Path 572" class="s40" d="m551 575l8-1 1-5h8l4 2 2 8h6l12-2 6-8h8v5l8 7v4l-2 2h-19l-1 6-24 2-2-1-2-5h-12l-2-12z"/>
		<path id="Path 573" class="s76" d="m696 571l18-2h1l3 8v6h-7l-11 2h-3-4-5v-10z"/>
		<path id="Path 574" class="s59" d="m134 577l7-7 1 3v8h-6z"/>
		<path id="Path 575" class="s82" d="m336 577v-7l6 2 2 13h-4z"/>
		<path id="Path 576" class="s35" d="m541 571l1-1 9 1v4l-1 2h-8z"/>
		<path id="Path 577" class="s61" d="m724 577l1-7h5l2 1 1 12h-4-5z"/>
		<path id="Path 578" class="s89" d="m732 571l8-1-2 14h-2l-3-1z"/>
		<path id="Path 579" class="s61" d="m804 573l1-3 10 3 12-2h10l2 4 21 2v6l4 2v13l-6 5-9 1-14-3-5-4h-10l-8-6h-8z"/>
		<path id="Path 580" class="s47" d="m197 575l3-4 7 1 1 5-9 3z"/>
		<path id="Path 581" class="s33" d="m532 589l-7-6 1-12h8 7l1 6-2 12z"/>
		<path id="Path 582" class="s34" d="m659 573l9-2 9 4-3 13-12 3-1-6-27 1 1-9h19z"/>
		<path id="Path 583" class="s22" d="m862 577l1-6 9 6h1l1 2-1 2h-6z"/>
		<path id="Path 584" class="s10" d="m287 579l2-7 5 3v4z"/>
		<path id="Path 585" class="s33" d="m142 581v-8h13l3 8-6 4h-8z"/>
		<path id="Path 586" class="s66" d="m214 577l6-4v6h-6z"/>
		<path id="Path 587" class="s83" d="m346 591l12-2-4-16h7l9 6v5l4 3-1 14h-2-10l-9 10-7-1-4-7 5-6z"/>
		<path id="Path 588" class="s64" d="m794 577l2-4h8v18h-8z"/>
		<path id="Path 589" class="s90" d="m180 583v-8h7 1v6l-2 2z"/>
		<path id="Path 590" class="s84" d="m188 581v-6h9l2 5z"/>
		<path id="Path 591" class="s11" d="m304 582l2-7h4l-1 6z"/>
		<path id="Path 592" class="s71" d="m674 588l3-13h11v10 1l-9 2h-3z"/>
		<path id="Path 593" class="s7" d="m128 581l6-4 2 4v6h-9l1-5z"/>
		<path id="Path 594" class="s73" d="m199 580l9-3h6v2 22h-8l-4-4h-7l-2 11h-3l-1-7-9-10 6-8 2-2z"/>
		<path id="Path 595" class="s39" d="m540 589l2-12h8l2 12v4h-9z"/>
		<path id="Path 596" class="s70" d="m718 583v-6h6v6z"/>
		<path id="Path 597" class="s71" d="m780 581l14-4 2 14-1 6-13-1-2-11z"/>
		<path id="Path 598" class="s48" d="m864 598v-13l-4-2v-6h2l5 4h6l9 6 2 5-1 12-3 2-7-7z"/>
		<path id="Path 599" class="s4" d="m874 579l-1-2 8 6h-1z"/>
		<path id="Path 600" class="s83" d="m414 579l5-1 5 3 2 8 7-4h11l3 15-27 3h-2v-4l-6-4z"/>
		<path id="Path 601" class="s2" d="m164 583l2-4h4l1 4-7 2z"/>
		<path id="Path 602" class="s81" d="m282 589l5-10h7l8 6v6l-9 11-11 6-2-6z"/>
		<path id="Path 603" class="s81" d="m456 581v-2h12l10 3 6 9-5 4-13-2v-4l-9-3z"/>
		<path id="Path 604" class="s61" d="m776 585v-6h4v2 4z"/>
		<path id="Path 605" class="s32" d="m873 581l1-2 6 4 2 4z"/>
		<path id="Path 606" class="s2" d="m136 587v-6h6l2 4v1l-7 3z"/>
		<path id="Path 607" class="s23" d="m152 585l6-4 6 2v2l-7 4h-4z"/>
		<path id="Path 608" class="s84" d="m304 582l5-1 7 3-3 9-11-2v-6z"/>
		<path id="Path 609" class="s91" d="m433 585l-7 4-2-8h8z"/>
		<path id="Path 610" class="s82" d="m444 585l8-4h4l1 5 9 3v4l-14 3-2 4h-3z"/>
		<path id="Path 611" class="s37" d="m614 585v-4h4v4z"/>
		<path id="Path 612" class="s8" d="m121 592l2-7 5-3-1 5-4 5-2 1z"/>
		<path id="Path 613" class="s9" d="m164 585l7-2h9 6l-6 8-8 2h-15v-4z"/>
		<path id="Path 614" class="s6" d="m700 585l11-2v2z"/>
		<path id="Path 615" class="s1" d="m711 585v-2h7 6z"/>
		<path id="Path 616" class="s62" d="m736 585l-7-2h4l3 1z"/>
		<path id="Path 617" class="s38" d="m882 587l-2-4h1l5 9h-2z"/>
		<path id="Path 618" class="s14" d="m736 585v-1h2l3 1 6 3z"/>
		<path id="Path 619" class="s40" d="m741 585l29 1v7l-11-2-6-1-5-2h-1z"/>
		<path id="Path 620" class="s28" d="m144 586v-1h8l1 4h-7z"/>
		<path id="Path 621" class="s72" d="m341 603l-4-1-1-8v-6l4-3h4l2 6v6z"/>
		<path id="Path 622" class="s92" d="m374 587l6-2 18 4 4 6h4v7l-5 1-6-4h-12l-3 4-7-2z"/>
		<path id="Path 623" class="s34" d="m612 587l2-2h4l10 2-3 8-13 1z"/>
		<path id="Path 624" class="s70" d="m634 586l27-1 1 6 1 2-2 10h-21l-9 4-8 7-6 2-4-1-6 4h-11-8l-12-2v-8l13-3 3-7h18l2-3 13-1 3-8z"/>
		<path id="Path 625" class="s93" d="m688 586v-1h5v2h-5z"/>
		<path id="Path 626" class="s13" d="m693 587v-2h4z"/>
		<path id="Path 627" class="s64" d="m770 586l6-1h4l2 11h-3l-9-2v-1z"/>
		<path id="Path 628" class="s10" d="m137 589l7-3 2 3v10l-2 3-6 1h-8v-6z"/>
		<path id="Path 629" class="s51" d="m679 588l9-2v1z"/>
		<path id="Path 630" class="s33" d="m123 592l4-5h9l1 2-7 8z"/>
		<path id="Path 631" class="s37" d="m592 593l1-6h19v9l-2 3h-18z"/>
		<path id="Path 632" class="s52" d="m662 591l12-3h2l-6 4v1h-7z"/>
		<path id="Path 633" class="s57" d="m146 599v-10h7 4v4l-1 6z"/>
		<path id="Path 634" class="s45" d="m274 602v-12l8-1-2 13z"/>
		<path id="Path 635" class="s29" d="m532 597v-8h8l3 4-3 4z"/>
		<path id="Path 636" class="s49" d="m552 593v-4h12l2 5z"/>
		<path id="Path 637" class="s4" d="m759 593l-6-3 6 1z"/>
		<path id="Path 638" class="s66" d="m172 593l8-2 9 10 1 7h-15l-3-3z"/>
		<path id="Path 639" class="s90" d="m282 608l11-6 9-11 11 2-4 17-9 13-5 4h-15l-3-14z"/>
		<path id="Path 640" class="s66" d="m479 595l5-4 8 2 2 14v1l-4 3h-10z"/>
		<path id="Path 641" class="s6" d="m759 593v-2l11 2v1l-1 1z"/>
		<path id="Path 642" class="s63" d="m795 597l1-6h8 8l8 6v8l-2 1h-6l-3-4h-14z"/>
		<path id="Path 643" class="s5" d="m119 597l2-5v1l-1 4z"/>
		<path id="Path 644" class="s16" d="m121 593l2-1 7 5v6l2 6-6 4-3-5-1-1-2-3v-7z"/>
		<path id="Path 645" class="s1" d="m122 607h1v1h-1z"/>
		<path id="Path 646" class="s26" d="m502 593l2-1 14 4 2 7-1 4-3 2h-8-4v-2z"/>
		<path id="Path 647" class="s14" d="m670 593v-1l17 1 5 6-6-4h-8z"/>
		<path id="Path 648" class="s93" d="m883 604l1-12h2l-2 12z"/>
		<path id="Path 649" class="s73" d="m156 599l1-6h15v12l-9 2z"/>
		<path id="Path 650" class="s79" d="m450 600l2-4 14-3 13 2 1 16 2 10-23 8h-23l-8-1v-7l5-6h15l4-4z"/>
		<path id="Path 651" class="s19" d="m494 607l-2-14h10l2 14z"/>
		<path id="Path 652" class="s36" d="m540 597l3-4h9l14 1 2 1v14h-5l-2 4h-8l-1-4h-6-4l-2-2z"/>
		<path id="Path 653" class="s32" d="m568 595l24-2v6l-3 7-13 3h-8z"/>
		<path id="Path 654" class="s36" d="m661 603l2-10h7l8 2v10h-13z"/>
		<path id="Path 655" class="s38" d="m769 595l1-1 6 4z"/>
		<path id="Path 656" class="s6" d="m776 598l-6-4 9 2 1 2h-1z"/>
		<path id="Path 657" class="s88" d="m406 602v-7h6l6 4v4z"/>
		<path id="Path 658" class="s15" d="m518 596l1-1 11 2v6h-10z"/>
		<path id="Path 659" class="s56" d="m678 605v-10h8l6 4 2 6v1z"/>
		<path id="Path 660" class="s33" d="m780 598l-1-2h3l13 1v5h-1l-9-2z"/>
		<path id="Path 661" class="s5" d="m118 597h1v1h-1z"/>
		<path id="Path 662" class="s55" d="m118 598l1-1h1v7h-1-1z"/>
		<path id="Path 663" class="s57" d="m193 608l2-11h7l4 4v8h-12z"/>
		<path id="Path 664" class="s11" d="m530 603v-6h2 8v10h-10z"/>
		<path id="Path 665" class="s30" d="m820 605v-8h10l5 4-3 6z"/>
		<path id="Path 666" class="s38" d="m784 600l-5-2h1l5 2z"/>
		<path id="Path 667" class="s34" d="m858 603l6-5 9 1 7 7-2 2-1 1-8 1-5 1h-6z"/>
		<path id="Path 668" class="s21" d="m144 602l2-3h10l7 8 9-2 3 3-7 13-9-2 1-7-9-3-2-5h-4z"/>
		<path id="Path 669" class="s75" d="m380 603l3-4h12l6 4 1 6h7l5 4v7l-10 1-11-1-7-8h-6z"/>
		<path id="Path 670" class="s75" d="m420 603l27-3h3l2 11-4 4h-15l-3-4h-10z"/>
		<path id="Path 671" class="s4" d="m794 603l-10-3h1l9 2z"/>
		<path id="Path 672" class="s72" d="m206 609v-8h8v8z"/>
		<path id="Path 673" class="s67" d="m352 611l9-10h10l7 13-1 9-12 2h-6l-7-6z"/>
		<path id="Path 674" class="s72" d="m378 614l-7-13h2l7 2v9z"/>
		<path id="Path 675" class="s34" d="m832 607l3-6 14 3 1 7-5 2h-8l-5-2z"/>
		<path id="Path 676" class="s72" d="m138 603l6-1 1 2-1 3h-6z"/>
		<path id="Path 677" class="s72" d="m271 607l3-5h6l2 6-5 5h-3z"/>
		<path id="Path 678" class="s68" d="m401 603l5-1 12 1h2v8l-6 2-5-4h-7z"/>
		<path id="Path 679" class="s94" d="m794 603v-1h1 14l3 4h6l4 4h-1-2l-5-2h-3l-8-3z"/>
		<path id="Path 680" class="s45" d="m132 609l-2-6h8v4l-2 2z"/>
		<path id="Path 681" class="s39" d="m519 607l1-4h10v4l-5 3z"/>
		<path id="Path 682" class="s23" d="m631 607l9-4h21l4 2-1 10-10 1 4 7v8l-10-1-2-7h-10v-8-4z"/>
		<path id="Path 683" class="s48" d="m849 604l9-1v8h-1-7z"/>
		<path id="Path 684" class="s5" d="m118 604h1v1h-1z"/>
		<path id="Path 685" class="s4" d="m119 605v-1h1l2 3v1z"/>
		<path id="Path 686" class="s73" d="m144 607l1-3h4l2 5-1 10h-2l-4-1z"/>
		<path id="Path 687" class="s0" d="m880 606l3-2h1v3l-6 1z"/>
		<path id="Path 688" class="s92" d="m230 608l1-3h13v16l3 2-9 2z"/>
		<path id="Path 689" class="s75" d="m247 623l-3-2v-16h14v6l7 4v3l-7 4z"/>
		<path id="Path 690" class="s68" d="m265 618v-3l-7-4v-6l13 2 3 6-4 4z"/>
		<path id="Path 691" class="s54" d="m664 615l1-10h13l16 1 3 4v3h-6l1 8h-6-4l-10-2z"/>
		<path id="Path 692" class="s4" d="m694 606v-1l3 5z"/>
		<path id="Path 693" class="s53" d="m818 606l2-1 12 2v4h-2-5l-3-1z"/>
		<path id="Path 694" class="s66" d="m136 609l2-2h6v11l-8 1z"/>
		<path id="Path 695" class="s47" d="m494 608v-1h10v2l-2 7 2 1 2 6-1 5-7 1 4-8-8-2z"/>
		<path id="Path 696" class="s40" d="m516 609l3-2 6 3v4l-9 1z"/>
		<path id="Path 697" class="s49" d="m525 610l5-3h10l2 2v6l-17-1z"/>
		<path id="Path 698" class="s36" d="m623 614l8-7 5 4v4z"/>
		<path id="Path 699" class="s1" d="m133 623l-9-5-1-10 3 5 1 6 3 1z"/>
		<path id="Path 700" class="s85" d="m168 621l7-13h15 3l1 1 2 14-5 4h-17z"/>
		<path id="Path 701" class="s86" d="m216 609l14-1 8 17-12 4-10-1z"/>
		<path id="Path 702" class="s10" d="m490 611l4-3v11h-4z"/>
		<path id="Path 703" class="s57" d="m126 613l6-4h4v10l-6 1-3-1z"/>
		<path id="Path 704" class="s66" d="m150 619l1-10 9 3-1 7h-3z"/>
		<path id="Path 705" class="s83" d="m196 623l-2-14h12 8 2v19l-5 1-2-5z"/>
		<path id="Path 706" class="s90" d="m504 617l-2-1 2-7h4l-1 7z"/>
		<path id="Path 707" class="s80" d="m504 617l3-1 1-7h8v6l-6 8h-4z"/>
		<path id="Path 708" class="s40" d="m542 615v-6h4v6z"/>
		<path id="Path 709" class="s49" d="m546 615v-6h6l1 4z"/>
		<path id="Path 710" class="s53" d="m561 613l2-4h5v6z"/>
		<path id="Path 711" class="s76" d="m568 615v-6h8v8z"/>
		<path id="Path 712" class="s72" d="m347 620l-3-4 1-6 7 1v8z"/>
		<path id="Path 713" class="s4" d="m825 612l-4-2h1l3 1z"/>
		<path id="Path 714" class="s5" d="m864 611l5-1-5 2z"/>
		<path id="Path 715" class="s92" d="m414 613l6-2h10l3 4-5 6-14-1z"/>
		<path id="Path 716" class="s21" d="m482 621l-2-10h10v8l-4 2z"/>
		<path id="Path 717" class="s52" d="m825 612v-1h5v2z"/>
		<path id="Path 718" class="s6" d="m830 613v-2h2l5 2z"/>
		<path id="Path 719" class="s6" d="m845 613l5-2h7v1z"/>
		<path id="Path 720" class="s51" d="m857 612v-1h1 6v1z"/>
		<path id="Path 721" class="s85" d="m378 614l2-2h6l7 8 11 1v10h-8-10-6l-3-8z"/>
		<path id="Path 722" class="s42" d="m270 617l4-4h3l3 14v2h-4z"/>
		<path id="Path 723" class="s71" d="m546 615l7-2h8l7 2 8 2 12 2v4l-19 4-1-2-7 2-10-1-9-1v-10z"/>
		<path id="Path 724" class="s36" d="m692 621l-1-8h6l2 5v2 1z"/>
		<path id="Path 725" class="s65" d="m516 615l9-1 17 1v10h-3-5l-23 3h-5-1l1-5h4z"/>
		<path id="Path 726" class="s54" d="m617 616l6-2 13 1v8 4h-16l-4-3z"/>
		<path id="Path 727" class="s29" d="m607 619l6-4 4 1-1 8h-7z"/>
		<path id="Path 728" class="s25" d="m658 623l-4-7 10-1 8 4v4h-6z"/>
		<path id="Path 729" class="s35" d="m265 618l5-1 6 12v2l-10 2h-8v-11z"/>
		<path id="Path 730" class="s84" d="m136 619l8-1 4 1v8l-8-2-4-2z"/>
		<path id="Path 731" class="s91" d="m130 620l6-1v4h-3z"/>
		<path id="Path 732" class="s27" d="m148 627v-8h2 6v10h-3l-2-1z"/>
		<path id="Path 733" class="s90" d="m156 629v-10h3l9 2 6 6v7l-6-1h-3l-9-3z"/>
		<path id="Path 734" class="s79" d="m347 620l5-1 7 6h6v3l-4 1h-7l-7-2z"/>
		<path id="Path 735" class="s73" d="m486 621l4-2h4l8 2-4 8-4 1-6 1z"/>
		<path id="Path 736" class="s49" d="m588 623v-4h8v6l-3 2h-5z"/>
		<path id="Path 737" class="s7" d="m593 627l3-2v-6h11l2 5-1 11h-3l-10-2z"/>
		<path id="Path 738" class="s32" d="m672 623v-4l10 2v4h-10z"/>
		<path id="Path 739" class="s82" d="m404 621l10-1 14 1v7l-22 3h-2z"/>
		<path id="Path 740" class="s4" d="m699 621v-1l2 13h-2l1-8z"/>
		<path id="Path 741" class="s72" d="m436 629h23l23-8h4l2 10v2l-7 2-3 1-19-2h-8l-15 1z"/>
		<path id="Path 742" class="s22" d="m682 625v-4h4v4z"/>
		<path id="Path 743" class="s56" d="m686 625v-4h6 7l1 4-2 2z"/>
		<path id="Path 744" class="s80" d="m247 623l11-1v11l-8 2-3-2-13 2-6-1-2-5 12-4z"/>
		<path id="Path 745" class="s6" d="m139 625l-6-2h3l4 2z"/>
		<path id="Path 746" class="s87" d="m191 627l5-4 13 1 2 5-1 2h-4l-15-1z"/>
		<path id="Path 747" class="s79" d="m295 627l5-4v6l8 4-4 4h-2l-7-4z"/>
		<path id="Path 748" class="s91" d="m365 625l12-2 3 8v5h-7l-1-5-7-3z"/>
		<path id="Path 749" class="s40" d="m569 627l19-4v4l-6 8-9-3-6-2z"/>
		<path id="Path 750" class="s24" d="m636 627v-4h10l2 7h-6z"/>
		<path id="Path 751" class="s7" d="m658 631v-8h8v10h-4z"/>
		<path id="Path 752" class="s23" d="m666 633v-10h6v2l-1 8z"/>
		<path id="Path 753" class="s58" d="m608 635l1-11h7l4 3v9h-6z"/>
		<path id="Path 754" class="s13" d="m148 628l-9-3h1l8 2z"/>
		<path id="Path 755" class="s14" d="m511 628l23-3v2z"/>
		<path id="Path 756" class="s62" d="m534 627v-2h5v2z"/>
		<path id="Path 757" class="s93" d="m539 627v-2h3l9 1v1z"/>
		<path id="Path 758" class="s65" d="m561 627l7-2 1 2-2 3h-1l-5-2z"/>
		<path id="Path 759" class="s54" d="m671 633l1-8h10 4l12 2 2-2-1 8v1l-5 4h-5l-14 1z"/>
		<path id="Path 760" class="s38" d="m551 627v-1l10 1v1z"/>
		<path id="Path 761" class="s14" d="m148 628v-1l3 1z"/>
		<path id="Path 762" class="s80" d="m174 634v-7h17v3l-3 7-12-1z"/>
		<path id="Path 763" class="s80" d="m280 629v-2h15v6l7 4-6 2h-2-6l-8-4z"/>
		<path id="Path 764" class="s81" d="m336 633l11-6 7 2-1 4-17 1z"/>
		<path id="Path 765" class="s39" d="m582 635l6-8h5l2 6-1 6-6-1h-2z"/>
		<path id="Path 766" class="s9" d="m620 636v-9h16l6 3v5h-7l-1 3z"/>
		<path id="Path 767" class="s4" d="m153 630l-2-2 2 1z"/>
		<path id="Path 768" class="s65" d="m211 629l5-1 10 1 2 5 6 1v5l-14-1-3-5-7-3z"/>
		<path id="Path 769" class="s80" d="m361 629l4-1 7 3 1 5h7 6l7 1v1l-23 1h-9-5-4-14l-3-2 1-3 17-1 6 2z"/>
		<path id="Path 770" class="s66" d="m406 631l22-3 8 1v6l-11 2h-19z"/>
		<path id="Path 771" class="s0" d="m498 629l7-1h1l-12 2z"/>
		<path id="Path 772" class="s0" d="m153 630v-1h3v1z"/>
		<path id="Path 773" class="s65" d="m276 631v-2h4v6h-4z"/>
		<path id="Path 774" class="s90" d="m353 633l1-4h7l-2 6z"/>
		<path id="Path 775" class="s65" d="m188 637l3-7 15 1v8h-3-7l-5-1h-3z"/>
		<path id="Path 776" class="s5" d="m488 631l6-1-6 3z"/>
		<path id="Path 777" class="s4" d="m573 633l-7-3h1l6 2z"/>
		<path id="Path 778" class="s21" d="m642 635v-5h6l10 1 4 2v8h-10l-10-1z"/>
		<path id="Path 779" class="s70" d="m206 639v-8h4l7 3 3 5h-5z"/>
		<path id="Path 780" class="s76" d="m266 633l10-2v4 6h-4-6z"/>
		<path id="Path 781" class="s66" d="m380 636v-5h6v5z"/>
		<path id="Path 782" class="s73" d="m386 636v-5h10v6h-3z"/>
		<path id="Path 783" class="s72" d="m396 637v-6h8 2v6z"/>
		<path id="Path 784" class="s38" d="m573 633v-1l9 3 4 3z"/>
		<path id="Path 785" class="s62" d="m175 636l-7-3 6 1 2 2z"/>
		<path id="Path 786" class="s64" d="m234 635l13-2 3 2v6h-7-9v-1z"/>
		<path id="Path 787" class="s61" d="m250 635l8-2h8v8h-5-11z"/>
		<path id="Path 788" class="s84" d="m304 637l4-4h28v1l-1 3h-23z"/>
		<path id="Path 789" class="s33" d="m594 639l1-6 10 2-1 6-9-1z"/>
		<path id="Path 790" class="s9" d="m662 641v-8h4 5l4 6v2l-3 3-6 1v-3z"/>
		<path id="Path 791" class="s42" d="m436 635l15-1-11 3h-15z"/>
		<path id="Path 792" class="s78" d="m440 637l11-3h8v4l-7 4v13h-4l-3-1-7-2z"/>
		<path id="Path 793" class="s41" d="m452 655v-13l7-4v-4l19 2 6 5v1 1l-8 2v6 6 1h-1-4-7-1-2z"/>
		<path id="Path 794" class="s5" d="m694 638l5-4v3z"/>
		<path id="Path 795" class="s70" d="m276 641v-6h4l8 4-6 2z"/>
		<path id="Path 796" class="s62" d="m478 636l3-1 3 5v1z"/>
		<path id="Path 797" class="s16" d="m604 641l1-6h3l6 1v7h-3-4z"/>
		<path id="Path 798" class="s81" d="m634 638l1-3h7v5h-6z"/>
		<path id="Path 799" class="s51" d="m188 638l-13-2h1l12 1z"/>
		<path id="Path 800" class="s42" d="m614 643v-7h6l14 2 2 2v5l-20-1z"/>
		<path id="Path 801" class="s71" d="m296 639l6-2h2 8v5h-16z"/>
		<path id="Path 802" class="s70" d="m312 642v-5h23l3 2v4h-10-15z"/>
		<path id="Path 803" class="s40" d="m393 638v-1h3 10 19l-11 2h-16z"/>
		<path id="Path 804" class="s89" d="m414 639l11-2h15l-2 15-4 1h-6l-6-2v-6l-8-2z"/>
		<path id="Path 805" class="s4" d="m196 640l-5-2 5 1z"/>
		<path id="Path 806" class="s89" d="m370 639l23-1 5 1v10h-7l-7-1-14-4z"/>
		<path id="Path 807" class="s0" d="m594 640l-6-2 6 1 1 1z"/>
		<path id="Path 808" class="s52" d="m675 639l14-1-14 3z"/>
		<path id="Path 809" class="s52" d="m196 640v-1h7v1z"/>
		<path id="Path 810" class="s95" d="m203 640v-1h3 9v1h-1z"/>
		<path id="Path 811" class="s46" d="m215 640v-1h5l14 1v1h-1-9z"/>
		<path id="Path 812" class="s96" d="m282 641l6-2h6v4h-12z"/>
		<path id="Path 813" class="s97" d="m294 643v-4h2v3h16l1 1z"/>
		<path id="Path 814" class="s64" d="m338 643v-4h14v4h-5z"/>
		<path id="Path 815" class="s71" d="m352 643v-4h4v4z"/>
		<path id="Path 816" class="s70" d="m356 643v-4h5v5z"/>
		<path id="Path 817" class="s78" d="m361 644v-5h9v5h-2l-7 1z"/>
		<path id="Path 818" class="s78" d="m398 649v-10h16v4l-8 1v7h-4-3z"/>
		<path id="Path 819" class="s4" d="m224 642l-10-2h1l9 1z"/>
		<path id="Path 820" class="s38" d="m484 641v-1l3 4-3-2z"/>
		<path id="Path 821" class="s5" d="m607 643l-13-3h1l9 1z"/>
		<path id="Path 822" class="s90" d="m636 645v-5h6l10 1v6h-8z"/>
		<path id="Path 823" class="s52" d="m224 642v-1h9v1z"/>
		<path id="Path 824" class="s51" d="m233 642v-1h1 9v1z"/>
		<path id="Path 825" class="s95" d="m243 642v-1h7 11v1z"/>
		<path id="Path 826" class="s8" d="m261 642v-1h5 6v2z"/>
		<path id="Path 827" class="s6" d="m272 643v-2h4 6v2z"/>
		<path id="Path 828" class="s42" d="m652 647v-6h10l4 1v3l-8 1z"/>
		<path id="Path 829" class="s39" d="m484 643v-1l3 2v1l1 7-1 3h-2l1-4z"/>
		<path id="Path 830" class="s1" d="m347 645l-19-2h10 9z"/>
		<path id="Path 831" class="s6" d="m347 645v-2h5 4l5 1v1z"/>
		<path id="Path 832" class="s41" d="m406 651v-7l8-1 8 2v6h-6-7z"/>
		<path id="Path 833" class="s69" d="m476 651v-6l8-2 2 8z"/>
		<path id="Path 834" class="s3" d="m616 645l-5-2h3l2 1z"/>
		<path id="Path 835" class="s62" d="m383 648l-15-1v-3h2l14 4z"/>
		<path id="Path 836" class="s14" d="m616 645v-1l20 1 8 2v1z"/>
		<path id="Path 837" class="s14" d="m666 645l6-1-2 3h-12v-1z"/>
		<path id="Path 838" class="s38" d="m488 652l-1-7 2 7z"/>
		<path id="Path 839" class="s38" d="m652 647l6-1v1l-14 1v-1z"/>
		<path id="Path 840" class="s52" d="m391 650l-8-2h1l7 1z"/>
		<path id="Path 841" class="s94" d="m391 650v-1h7l1 2z"/>
		<path id="Path 842" class="s52" d="m402 653l-11-3 8 1h3z"/>
		<path id="Path 843" class="s6" d="m402 653v-2h4 3v2z"/>
		<path id="Path 844" class="s96" d="m409 653v-2h7v2z"/>
		<path id="Path 845" class="s94" d="m416 653v-2h6l6 2z"/>
		<path id="Path 846" class="s20" d="m476 657v-6h10l-1 4-2 1-4 1z"/>
		<path id="Path 847" class="s62" d="m434 653l4-1 7 2-1 1z"/>
		<path id="Path 848" class="s0" d="m487 655l1-3h1z"/>
		<path id="Path 849" class="s14" d="m444 655l1-1 3 1v2z"/>
		<path id="Path 850" class="s93" d="m448 657v-2h4l9 3z"/>
		<path id="Path 851" class="s62" d="m483 656l2-1h2l-4 3z"/>
		<path id="Path 852" class="s94" d="m479 657l4-1v2h-4z"/>
		<path id="Path 853" class="s12" d="m464 658h7v1h-6z"/>
		<path id="Path 854" class="s73" d="m464 658h1v1h-1z"/>
		<path id="Path 855" class="s98" d="m476 658v-1h3v1z"/>
		<path id="Path 856" class="s38" d="m463 660v-2h1l1 1h6 3v1z"/>
		<path id="Path 857" class="s55" d="m471 659v-1h4l-1 1z"/>
		<path id="Path 858" class="s5" d="m474 659l1-1h1v2h-2z"/>
	</g>
</svg>