<svg version="1.2" xmlns="http://www.w3.org/2000/svg" viewBox="0 0 1000 1000" width="1000" height="1000">
	<title>Hiodon_tergisus</title>
	<style>
		.s0 { fill: #979592 } 
		.s1 { fill: #737577 } 
		.s2 { fill: #eeefee } 
		.s3 { fill: #90918f } 
		.s4 { fill: #8b8c8b } 
		.s5 { fill: #696b6c } 
		.s6 { fill: #787979 } 
		.s7 { fill: #7b7d7e } 
		.s8 { fill: #6d7073 } 
		.s9 { fill: #858788 } 
		.s10 { fill: #7f8283 } 
		.s11 { fill: #646667 } 
		.s12 { fill: #737270 } 
		.s13 { fill: #252627 } 
		.s14 { fill: #a19f9a } 
		.s15 { fill: #7e7b75 } 
		.s16 { fill: #6b6558 } 
		.s17 { fill: #2a2b2b } 
		.s18 { fill: #3c3631 } 
		.s19 { fill: #b3aaa1 } 
		.s20 { fill: #403a37 } 
		.s21 { fill: #5f6060 } 
		.s22 { fill: #736c5f } 
		.s23 { fill: #2f2f30 } 
		.s24 { fill: #090807 } 
		.s25 { fill: #5d5c57 } 
		.s26 { fill: #161414 } 
		.s27 { fill: #aca39b } 
		.s28 { fill: #aaaaa6 } 
		.s29 { fill: #4b4b4a } 
		.s30 { fill: #100d0b } 
		.s31 { fill: #797369 } 
		.s32 { fill: #9b9a96 } 
		.s33 { fill: #343537 } 
		.s34 { fill: #a69e96 } 
		.s35 { fill: #525454 } 
		.s36 { fill: #9a948d } 
		.s37 { fill: #6e6c67 } 
		.s38 { fill: #444443 } 
		.s39 { fill: #e8e9e7 } 
		.s40 { fill: #9f9891 } 
		.s41 { fill: #656053 } 
		.s42 { fill: #3b3d3f } 
		.s43 { fill: #959089 } 
		.s44 { fill: #e3e4e2 } 
		.s45 { fill: #8a8781 } 
		.s46 { fill: #908b85 } 
		.s47 { fill: #85827d } 
		.s48 { fill: #cbcecd } 
		.s49 { fill: #d6dbdb } 
		.s50 { fill: #93999a } 
		.s51 { fill: #a4a5a1 } 
		.s52 { fill: #827a6f } 
		.s53 { fill: #ad9f94 } 
		.s54 { fill: #5a564f } 
		.s55 { fill: #8c847a } 
		.s56 { fill: #bcb0a6 } 
		.s57 { fill: #2d2825 } 
		.s58 { fill: #b3b1ad } 
		.s59 { fill: #bab9b4 } 
		.s60 { fill: #9ba3a3 } 
		.s61 { fill: #1e1c1b } 
		.s62 { fill: #c1b9b0 } 
		.s63 { fill: #26221f } 
		.s64 { fill: #988c81 } 
		.s65 { fill: #c3c2c0 } 
		.s66 { fill: #474039 } 
		.s67 { fill: #c9c3bc } 
		.s68 { fill: #534e47 } 
		.s69 { fill: #37312a } 
		.s70 { fill: #a39489 } 
		.s71 { fill: #d5cec7 } 
		.s72 { fill: #dfdeda } 
		.s73 { fill: #ab917f } 
		.s74 { fill: #b2babb } 
		.s75 { fill: #a7b1b2 } 
		.s76 { fill: #696050 } 
		.s77 { fill: #bbc5c6 } 
		.s78 { fill: #948075 } 
		.s79 { fill: #a28979 } 
		.s80 { fill: #27160b } 
		.s81 { fill: #cbb9a8 } 
		.s82 { fill: #b79e89 } 
		.s83 { fill: #e1dccf } 
		.s84 { fill: #d4c3b2 } 
		.s85 { fill: #8c7769 } 
		.s86 { fill: #302a1c } 
		.s87 { fill: #beab9c } 
		.s88 { fill: #5a5143 } 
		.s89 { fill: #ded2be } 
		.s90 { fill: #362d0d } 
		.s91 { fill: #41371d } 
		.s92 { fill: #484132 } 
		.s93 { fill: #6c582f } 
		.s94 { fill: #caae93 } 
		.s95 { fill: #765e44 } 
		.s96 { fill: #554525 } 
	</style>
	<g id="Background">
		<path id="Path 3" class="s0" d="m371 402l1-4 4 2-3 4-2-1zm-105 23l3-4h3v3l-4 3zm399 41l6 1-6 2zm-58 28l-13-13v-7l16 1 6-1 18 2 2-2h12 6l6 3v11l-5 3-3-3-15-2-7 5-9 3-1-1 2-6h-3l-8 7zm-67-12v-6l29 6-1 6 3 2 1 6-1 7-5 2v11l6 6 4 12-1 4h-8l-5 7-3-6-6-2 3-8-5-2v3h-5v-8l-4-6h-13l-3 4-8-2-2-16h10l3 10 6 1 1-8-4-5 3-5 12 2 2-2 1-11zm-325 3v-6l6 1 3 4-8 2zm-127 32l3-13h3l6 3v10 3h-7zm149-8l2-3 6 2 1 6-2 2-7-1zm-83 12v-4l3 3v1z"/>
		<path id="Path 4" class="s1" d="m198 428h3v-3h2 2l5 6-1 2-4 6h-1l-5-2-1-1zm-22 34v-9h8l3 3v5 1l-5 1zm24-2v-6h4l1 6zm474 55l7-3 4 4-2 11-9 1v-4h4l-4-4zm-492 6l4-1h4l2 4v14h-2l-2 10-3 2 2 6v3h-5l-13-5 1-8-6-4-4-2v-1l2-9 11 3 9-5zm144 27v-11l6-1 20 2 10-2h6v5l-9 9zm223-10l4-1 6 2 3 6 4 7-2 10-8 2-12-2-6 5 1 17 7 2v6l6 2v8l-3 2-5-7h-16l-2-3v-4l-4-2-1-22-3-6-18-2-4 4h-5v-6l6-6 37-3 9-2 1-7zm-175 34v-7l8-6-2-19h8l3 4v11l3 4 12-1 18 4v12l-10 2h-10-12zm-173-19l9-2v1l-8 3zm253 2l11-2 3 4-14 3z"/>
		<path id="Path 5" class="s2" d="m270 432l4-4 4 3-6 8-3-1zm11 9l-3-5 4-2 3 1v2zm-187 3l8-1 3 10-4 11-3 8h-4l-7-3-1-4 4-1v-6l-1-11 4-3zm11 20l5-8h1v5l4-1 1 3-1 3-3 2-7 1zm611 2l4-1 8 1 1 7 6-5 3 4h5l2 3-8 5-1-5h-6l-1 5h-3v-3l-5-2-8-2-1-4zm49 8v-2h2l2 4h6l5 3-2 3-5 4-8-8zm-605 8l7-2 3-7h4l-2 9h10l-1-5 3-2 4 4 4-1 2 3-2 4 2 4 3 1-1-5h2l3-1 2 4 1 8-5 3-7 4-8-1h-7l-1 3-8 3-1 8-5 1-3-3-2 6-3-3v4l-18-5-4-4 3-4 4-2 11-2 6-5zm61-2l3-4 12 2v2l-3 6h-8l-1-2zm-10 6l4-1 1 1-1 6-2 1zm491 8h11l6 2 1-2 5 2 1 4-4 1-6 2v-3h-5l-4 3-2-5h-3zm-594 2l3-1 5 3 10 6-2 4h-6l-6-6zm700 0h8l3 4-1 10h-12l-1-3 7-4zm-76 1h6l2 4 2-3h8l2 9h5l1 5 3-3h7l1 5-2 2h-10l-1 4-16-9v-2l-1-7-5 2v3l-2 1-4-5zm-480 17l6-2 1 14-1 5-4 2-2-1 2-6zm520 0l1-3h6l-2 6 5 2v3h-7v-4l-3-1zm-34 11l-9-3 1-4h6l3 1zm75-2l4-2 5 4-2 4-8 3v-1-4zm-621 15h4l2-4h6v4l-11 7-3-7z"/>
		<path id="Path 6" class="s3" d="m340 406l6-3-2 3 3 2-1 3-4 1zm197-1l2-2 2 1v3l-3 1zm-305 16l3-6-2-5h5v10h4l1 7-3 10-3-1 2-7-4 2-3-5v-2zm27 3l1-3h1 3v3zm363 8l1-6 19 8-5 6-7 3 5 2-2 5v2h-5l-1-11-3-3zm-548 28l12 1v4l1 4 7 3 5 12-6 4-10-12zm574 14v-8h6v8zm157 15l5-3 6 6v4h-8zm-233 7l8-2 6 6v11l4 3-2 19-12 1-4-12-6-6v-11l5-2zm115 6l4-4h4v5l-5 1h-3zm-503 0l8 1 7-4 2 5h3l-6 20h-6l-2-4h-4zm-90 2v-4l7 1 4 3-3 7 8 4 6 3v4h-4l-12-5v-10zm572 7l2-2 2 1v2zm-434 8l5-4 7 1-1 11 3 5v6l-2 4h-8v-4h-4l-2-4v-7zm-111-2l4-1 1 2v2h-4zm384 8l1-5h8v10h-8zm-47 5h9l7-5 12 3v10l-7 4h-14l-7-7zm-48-3l4-1h4l3 6-3 3v7h-8z"/>
		<path id="Path 7" class="s4" d="m545 398l3-1 2 5-1 1h-3zm-239 8l6-1 2 2-6 4-2-1v-3zm-17 3l3-1 1 3-5 4zm293 33v-3h3l3 5v6h-6zm10 26v-3l4-1 14 4v7l-16-1-1-1zm-354 10l1-4h5l-1 6zm366 24l3-8h4l1 3 6-2v1l-4 8h-8zm72-1l2-5 9 2v4 2l-1 2-10-2zm-585 3l-6-1 1-6 8 3v4zm631-3l4-1 2 3 4 5v3l-6 1zm14 13l4-3 16 9 13 4-3 5-10 1h-5l-13-3v-2l1-6-3-1zm31 2l2-2h3v3zm-249 2l8 2 3-4h13l4 6v8h-32v-10zm-26 10l13-3 1 5-6 3-2 5h-12v-10zm-71 4l37-2v5l7 7v11l-11 2-4-6-24-3-8-4v-7z"/>
		<path id="Path 8" class="s5" d="m215 416l-1-3 4 1v1zm34 0l5-1 1 1-3 4h-1l-3-4zm-143 23l11-1-1 5h-5v-3h-5zm40 0l5-1 2 4-2 2h-5zm41 22v-5h3zm13 5v-6h5v4zm486 61l2-4 4 4v5h-2zm-23 17l-1-14h12l1 11v2l-3 1zm-371 28l-22-17 2-11h12l4 3 12 1h26l33 2 1 6-6 6v5l-16 15v14l-10-1-8-1-4-1-6-3v-6l-11-11zm-96-17l5-2 1 2-3 7h-2l-1-5zm279 19v-3l11 1v4zm125 2l1-4h5v7l-5 2h-1zm-186 8h-8l-2-8h10zm84 19v-10l-6-3v-10h6l7 7 5 7v7l-11 2zm54-9l7-1 1 8-8 1z"/>
		<path id="Path 9" class="s6" d="m555 409l7-1v-3h1l-1 12-3 1-4-6zm-294 9l-2-2 3-5h1l3 2zm266 5l4-1h9l2 8-3 6h-4l-2-2v-5l-7 1h-3l-1-3v-2zm-324 20l1-4h1l5 5 5-3 3 1 2 16-2 5-8 2v6l-2 2 3 2 4 4v6l-4 1-8 2-2-4-3 1 1-4h-3-2l-2-3v-9l1-3h7l5-2v-4l-1-6zm-129 17l2-8 4-3 4 1v6l3 2-1 3zm637 0l4-2h5v7l-4 1zm-541 13v-7h5l1 4-2 3zm-24 23l4-3 6 6-6 5-5-6zm518 16l2-1 4 1 4 3v5 4 4 2h-12l-6-14 2-3zm24 26l2-6h2 8l1 3-6 7-7 1zm-400 9v-11h12v12zm246 0l1-7 9-2-1 7zm28-2l5-7h8l9 6v9l8 11-2 12-3 4-7-1-4-3v4h-4l-7-1 3 4v5h-4l-6-6h-9l-3 4-7-2-1-17 6-5 12 2 8-2 2-10zm-156 13l-12 1-3-4v-11h3l3 6 9 4zm234 2v-10h8v4h10l-2 3-8 2-7 2zm-264 30l-4-2 2-16 18 4v7l-3 2h-3l-1 5z"/>
		<path id="Path 10" class="s7" d="m580 428v-3l2 3zm-449 4l2-1h4v1l-2 3 3 1v2l-6 3zm91 43v-7h5l1 3-4 4zm-83 26l6-3 5 6-11 2zm53 37v-14h6l1 2-1 8-2 4zm396-5l16 4 4-5h14l1 7 6 1 6 9 5 1v10l-14 6-11 1h-5l-4 5h-5l-3-8h-6l-8-11v-9l-9-6 1-4zm-194 11l1-4 15 2h8l8 4 24 3 4 6v5l-30 2-18-4v-4l-9-4z"/>
		<path id="Path 11" class="s8" d="m331 401l5-1 1 2-4 4-2-3zm93 4l7-2v3l-8 2zm123 2l2-1h5v1l1 2v3h-5l-2-1zm-404 19l5-1 2 3-9 4h-4v-1zm504 8h13v2l-4 2 6 2 3 6-3 3-3 1-2-6-8 1-1-6 1-1 3-3-4 1zm-509 2l3-1 5 4v5 1l-8-7zm52 20l1-2h9v6 6h-7l-6-4v-1zm499 60l2-3 2 3 6-2 4 1v4l-3 1v12h-8v-5l-4-4zm-67 16l7-10 14-2 8-6 5 2 6 14 1 14-3 4-12 2h-8l-5-1-6-9-6-1zm-460-10l5-2 1 7 5 6-11-3zm292 38l14-3 7 14v3l-8-2-43 2v-12zm37 2h5l4-4 18 2 3 6 1 22 4 6 2 3-4 1-14 3v-7l-5-7-7-7h-6l-6-4v-4-5z"/>
		<path id="Path 12" class="s9" d="m525 397l5-1-2 4h4l2 3 2 8v1l-7 2-8 1 3-7-2-6 3-1zm-170 17v-3l6 1 2 1-3 4h-2l-3-2zm-189 29l1-3 6 1-1 3zm52 20l2-5-2-16 11 3-1 16-1 7h-5zm479-18l4-1 2 2-1 3-4-2zm-609 72l-25-18-2-8 10 1 15 5-1 6 6 1zm548-17l1-3h4l3 9h-4zm-46 14l-4-3v-11l18 2 2 2v9l-4 3zm136-2l6-1 4 3v4h-6l-1 4 9 3v2l-6 2h-7l-1-2zm93 5v-6h8l1 5-1 5zm-333 21h12l2-5 6-3h8 32 5l-2 8h-5l-9 2-1 7-37 3-6 6v6l-5 5v5l-11-1-7-14-3-4v-11h14z"/>
		<path id="Path 13" class="s10" d="m598 420l2-5 6 4zm16 14v-4h2l4 2-1 6zm55 5v-2h4l2 2-1 2h-2zm-489 7l5-2h5l1 10-1 2h-3l-3-3zm99 34l3-4 8 1 6 3v3l-8 2-6-2zm342 16l4 2 5-3 2 5h4l4 6h4l7 8-8 6-14 2-7 10h-14l-4 5-16-4 2-19 12 2 4-3v-9h8l4-8zm-417 8l8-2h10l13 3v4l-4 10-5 8-4 8-6 2-6 1h-6v-4-7l-5-1-1-2zm496 28v-12l3-1v-4l7 2 6 9v2h-6l-2 6-7 1zm-533-12l1-2h8l6 3v7l-9 5-5-6z"/>
		<path id="Path 14" class="s11" d="m477 399l9-3 6 1 2 9h-11l-6-3zm-41-1l4-1 1 7-3 4-3-2-1-4zm102 10l3-1h3l1 5-3 2-6-2v-1zm-32 20v-10h4l2 3v7zm-329 0l6 1-1 2-5 1-3-2zm442 10l1-6h2l2 6zm41-2v-2h5l4 3v2l-2 2h5 2l2 7h-8l-3-2-3-6zm20 16l-2-9 8 5-2 4zm-470 19v-6l8-2 4 5v7l-10-2zm-84 47l10-2 18 5h3l5 1v8l-2 9-14-6-4-2-2-1-1-6-6 1-7-5zm28 30l-21-6-40-22h7l12 5 4 5 9 3 11 4 10 2 8 5zm520-20l9-1h3l4 5-2 6-8 3h-5l-1-11zm82 2l10-1v3zm-554 25l8-3h5l1 2-1 12h-10l-6-4zm404 17l4-5h5l1 14v1l-10-3zm-182 2l43-2 8 2 11 2 6 4v10l6 3v10l-10 2-5-3-2-3-19-3-11-3-1-5h-3l-1 5h-14l-6-2-7-3-5-4v-8zm153 6l3-1 7 1 1 4h5v2l-27 16h-5l-1-1-1-8 5-5h4l9-3zm-321 3v-2h6l3 4h-3z"/>
		<path id="Path 15" class="s12" d="m499 398l8-2v1l-1 4h-4zm-240 11l4-1v3h-1l-3-1zm-101 27h-3v-4l9-3h5l-3 4zm548 14l1-2h10l1 3v3l-3 2h-6l-3-2zm69 72h7l6 13v3l-22-6v-3l3-5zm-407 19l5-1h7l2 19-8 6v7l-2 16 4 2 3 10-33-2-8-2v-14l16-15v-5l6-6-1-6zm-214 3l4-1 6 1 6 2-1 8-15-6zm436 32l2-12h6l3 8-1 4zm-298 10v-14l7 1 11 11v6l-6 1-8 6-2-1zm97-1l3-2v-7h12l2 8h8l5 4 3 4-23 2-7-3-3-1z"/>
		<path id="Path 16" class="s13" d="m613 356l8-1 6 4 4 4v7l1 17 16 25-4 6h-11l-6-7-9-1v-6l-4-4-35-14-4-4-1-10 2-3 18-4zm44 214l-1-4h4l1 4zm-40 38l3-6h8v11 9l-8 10h-4l-4-5z"/>
		<path id="Path 17" class="s14" d="m408 396l3-1 1 3-4 3zm146 9l5-1-5 3v-1zm-279 1l5-1-1 4h3l-1 8-1 2h-2l-1-6-2 1h-2l4-3zm-59 30l4-9 2 1 1 8 3-1 3-1 6 4-3 7h-3l-11-3-3-1-2-3zm398 15l3-1 11 2h5l3 3v9 10l-2 2-18-2-2-6-3-15zm-516 21l3-8h4v5l7-1v4l1 6-11 2zm556-6l8-2 3 2v3l6-2 6-3 7 6h8l8 2v6l6 6h8v2l-1 8h-11l-6-2-5 2-11-4-4 3-6 1-1-4-9-2v-11l-6-3zm-74 8l13-1 1 1v7l13 13-3 8-18-2-6-6-1-6h-7v-6zm-45 14l5-6 10 2-1 11-2 2-12-2zm186-4l5-1 2 3v9l-3 1-5-2v-8zm-14 19l4-3h5v3l6-2 4 11-2 15-8-1-6-9zm-461 29h6l2 1v5h-8z"/>
		<path id="Path 18" class="s15" d="m350 404l5-5 5 1-1 7-4-1zm-81 15v-6h1l3 1h2zm88 1l1-3h2l1 2v3zm48 4l-1-6 6 2 5 1 1 5h6l1 3-8 4v5h-1l-4-2v-6l-5-2zm91 33l3-7h9v8zm69-3l1-2 10 3v6l-10-2zm-197 87v-5h4l1 4zm200 42l4-3h4 1v5l-9 3z"/>
		<path id="Path 19" class="s16" d="m333 410l2-1v1zm-169 13v-1h13l1 3-1 3-3 2-5-2zm147 0l2-1 7 2 2 2-5 5-1 5h-4l-4-2 2 4v6l-2 2-12-2v-6h4l1-3 4-2 1-5zm-85 3l6-2v2l-1 5-2 3-3 1zm136 1v-3h7l1 4v4l6-1 6 9 11 2 5-3-2 12 2 3h6v8h-16l-10-2-5-4-42 4-11 6v10l-2 3h-9l-5-3-4 4h-4l-6-3v-9l4-6h15l14-4 4-4h7l15-20 8-2 6-1zm53 11l11-2h8l2 6-4 16-8 1-12-5 2-16zm-155 13l6-7 2 6h4l3 18 7 8-3 4-10-2-11-10 2-15zm437 0l1-4 4 2 4 1v4l-3 2h-3zm95 88v-5h1 9v9zm-496 58l8-6 7 7-1 6h-6z"/>
		<path id="Path 20" class="s17" d="m565 373l9-1 1 10 4 4 35 14 4 4v6l-3 2-1 9-8-2-6-4h-5-1l-2-3-3-9h-11l-4-1v-6l-10-9-4-9zm293 159l4-8h6v6zm-174 30l1-10h11l2 4-6 6zm-64 38v-4l6-4h4l-2 10h-8zm-16 18l10-10h3l-5 19 4 5v6l-6 7-8 3-2-21 4-3z"/>
		<path id="Path 21" class="s18" d="m884 496l4-32-5-7-1-12 16-11 8 1 6 7h9l13-8h10l-6 17-20 23-3 1-3-3h-9l-1 8-4 1v7l-5 7-3 2h-4zm-42 54v-9l5-9 9 1v9l-8 5v5l10 7-2 6-15-7z"/>
		<path id="Path 22" class="s19" d="m604 449l2-7h5l3 9-3 2zm75 7l1-4h4l2 6h5l1 4v8h-8l-7-6zm86 18h-7v-4h4l3 2zm-323 6l3-6h7l4 2v11l-4 3h-6l-4-4zm-82-4l6-1 2 5h8l3 12 11 5v9l-6 2-1-3-12-1v-5l-11-8v-11zm369 4l1-5h6l1 5-5 2zm-441 5l8-2v5 10 4l-6 1-2-9zm24 3l8-2h7l-1 17 14 10v10l-10 3h-6l-2-4h-8v-5l-5-3v-7l2-5 1-5zm-43 18l2-8h4l9 7 1 11-1 2h-6v-7zm-159-1l2-3 6 6v4h-6zm112 38l1-2 11 3 1 4-10 4-2-2z"/>
		<path id="Path 23" class="s20" d="m387 400l3-1 3 2 8 1-4 6 2 5-1 1-4 3h-6v-5-3l-3-4zm-92 4l8-1-1 3-5 2 1-3zm598 27l31-10 1 5 9 4v4l-13 8h-9l-6-7-8-1-16 11 1 12 5 7-4 32-10 4h-6-16v-18-34-1zm-53 94l4-2 3 9-5 9v9h-9l-1-14 7-2 1-6zm-108 4l6-2 13 3h-7l-4 5h-2z"/>
		<path id="Path 24" class="s21" d="m362 398l5-1 4 5v1l-3 2h-4l-2-6zm153 10l1-6 2 6zm-264 1l6-2 2 2v1l-4 6-1-1zm316 6l4-4 2 6zm-365 5l1-4 6-2 5 2 4 6v2l-4 3-4 1-2-5-3 2h-2zm367 5l3-1v-5h6l2 6v3l-2 4-5 1-5-3zm-489 24l7-6 6 1-4 3 1 11h-3l-3-2v-6zm27 4v-8l4-2h5v7l-5 6h-1zm108 113l1-12h9l6 3-1 10 7 3 7 6h7l5 5v2l-27-5-11-6zm400 1l11-1 1 8-1 6-10 1zm-22 17l7-3h1l-1 5h-7zm-147 9l1-5h3l1 5-3 1zm106 9l8-1 1 1v5l-6 4-3-2-3-5z"/>
		<path id="Path 25" class="s22" d="m312 415l5-7 1 5-3 2-2 1zm238 15v-4h6l2 1v4l-4 1zm57 1l7-1v4l-2 6-1 2h-5v-6zm-326 10l4-4 3 1 4 2 3-2h1v6l-4 6-9-2-3-4zm-32 25l7-13h4l-2 15 11 10-4 2-5-4-2 4h-2l-2-2v-6zm155-4v-8h8l12 5-1 7-3 4h-12v-5zm-84 14v-10l11-6 42-4 5 4v6h-9-10l-1 8-8 2-1-2-9 2h-8l-10 1zm500-9l2-1h10l3 18-1 8-1 1-9-6-1-8-3-2zm-32 68l4-1v5l-4-1z"/>
		<path id="Path 26" class="s23" d="m553 381l7-3 4 9 10 9v6h-8zm25 22h11l3 9-5 1-5 1-4-5zm-456 61l8-2 7 2 5 6v9l-2 7-4 3-4 1-12-6-1-8-1-3zm740 60v-11l6-8v-5h6l2 15-8 9zm-190 25l3-1h7l3 4-1 10-9 7-11 3-3-2-1-4h-4v-2-7l2-3 4-2zm-58 59v-8h6v2l-3 6zm-28 37l3-19 7-7 8-1v6l-4 3 2 21-4 2z"/>
		<path id="Path 27" class="s24" d="m892 518v-16h4l3 1 2 14 19 22 2 8 14 17 6 15-1 10-11 11h-4l-2-4v-3l9-7 1-6-11-27-7-1v-10l-4-2v-6l-5-6-4-4h-5zm-228 54l11-3 9-7h8l-5 9-27 15-23 32-4 4h-5v-9h4l6-10h3l8-14 15-12zm-350 26l2-5 4 1v7z"/>
		<path id="Path 28" class="s25" d="m440 397h20l-2 15-4 1v3h-6v-9l-7-3zm-50 2l6-2 1 3-4 1zm78-1l9 1v4l-5 1zm-125 18l3-3 9 1v1l-2 3 4 2 4 2 1 2v3l-5 5-8 2-1-4h-6l-3-3v-7zm167-1l6-2v8h-4l-2-3zm52 2l4-1 3 9-1 5-10 1v-4l1-4v-5zm-178 1l4-1h6l1 8 5 1 3 4 2-2 5 2v6h-6l-5-1v4h-1l-5 3-11-2-6-9 2-7v-2zm89 0l9-1 2 3 6-1h6l4 4v5l-6 10-15 2h-8l-3-12zm-253 1l5-1v7l-3 3-2-1-2-3v-2zm322 11l-2-8h2 8v4 4l-4 1h-3zm-217-4l5-1 5 1 1 10-4 6-22 2v-6l2-2h4l1 3 3 1 2-5zm-15 178l1-6h3l6 3 8 1 2 10-3 4-13-1v-7z"/>
		<path id="Path 29" class="s26" d="m888 520l4-2 6 6 3 11 5 5h6l4 2v10 10l8 18-4 6-8 1v5l-8-1-4-4 4-39-12-14-4-1zm-239 56l6-2 2-4h4l3 2v5l-15 12-8 14h-3l2-12 8-8z"/>
		<path id="Path 30" class="s27" d="m246 416l-1-2h3l1 2h-1zm128 9l4-1-2 7-6 1v-4zm-116 14v-3l5 3 3 5-6 7-4-3zm449 24l2-4 2 1 5 6-4 3h-3l-2-5zm21 3l2-1 5 3-6 5zm-352 14l5-1 1-4h6l6 5 20 2 6-2 14-1 8 1v6l4 4h6l4-3v-11h8 12l12 2v8l-5 3-6 15-7 4-16-2-38 9-5-5-21-4v-9l-11-5zm-54-3l10-1v6l-5 4h-7v-5zm-100 25v-10h2l10 1 5 2-4 10zm148 18l1-16 12 1 1 3v12zm122 8v-9l8-6 6 2v5l-1 5zm-225-3l1-7h6v8l-6 5zm-134 0l6-1 1 6-2 2h-2l-1-2-2-4zm13 14v-6l14 6v1l-2 3-4 1zm41 17l-2-6 3-2 2-10 3 7 1 9zm461-6l12-2 2 4-4 2h-10z"/>
		<path id="Path 31" class="s28" d="m303 403l4-1-1 4v1l-4-1zm65 2l3-2 2 1 1 2v4l-7 1zm-143 13l1-1h3l3 4v3l-6 2-1-1zm291 11l6-2 1 3-1 4h-4zm176 17v-2l5 1 1 2-1 4h-1zm-465 22l1-7 3 5 5 1 3 7-1 4h-2l-12-2v-1l4-4zm540 4v-2l8 3v3h-6zm-30 8l8-5h2l1 4 6 2-4 4v13h-8l-2 3-2-4h-6l-4-2v-9l4-4zm-437 0l4-4 5 3-1 9h-8zm-150 13l1-13 9 2-4 17zm636-5v-6l5 4 7-2 7 5 3 7 4 7-7 4 1 3-3 6h-3v-7l1-5-8-1zm-215 2l1-2h7l1 6-8 2zm-443 8l4-2h4v5l-8 1zm562 6l5-1h1v8l3 3-6 2-2-3-2-3zm-7 23l2-11h4l-1 7-2 4zm-261 65l-3-4 7 3z"/>
		<path id="Path 32" class="s29" d="m402 400v-4h6v5l4-3 1 1-2 5 3 2-2 2-10-6zm100 1h4l1-4h9v5l-1 6-5 7v3h-4l-6-12zm-177 5l1-3h5l2 3-5 2h-3zm54 6v-8l9 5v3l-4 2h-4zm59-4l3-4 7 3v9l-6 1v-3h-4zm-103 1l2-3h3l2 6v1l-4 1v-4h-3zm119 7v-3l4-1v2zm-322 11l11-1-6 5h-4zm701 66l1-1h7l3 14v17l-4 2-6-3-2-12-1-1v-7l-1-6h3zm-207 73l14-6 1 1-1 10-1 2-12 1zm-408 6l-12-3-1-3h10zm62 25l-18-12h3l13 4 2 3zm10 7v-8h4l2 1 8 7-2 7-7-1z"/>
		<path id="Path 33" class="s30" d="m336 400l1-6h22l3 4v1l-2 1-5-1-5 5-6 2 2-3-6 3h-3v-4zm-30 6l1-4h5v3zm-110 12v-6l4-2h8l1 4-6 2-1 4h-2-4zm694 79l3-2 3 1v6h-4zm22 43h-6l-5-5-3-11h5l4 4 5 6zm0 52v-5l8-1 4-6-8-18v-10l7 1 11 27-1 6-9 7v3h-9z"/>
		<path id="Path 34" class="s31" d="m444 437h7l4-11 13 2 3 12-4 6-1 12-7 3-7 5h-8l-6-7-6-1 4-16h4zm35 3l15-2 6-10h6 6l4 1 2 5v14l-10 2h-9l-3 7-4 1h-12zm-328 4l2-2 10 6-2 8h-9l-1-8zm244 30l-7-8v-4h16l4 3v5zm-37 0l1-8h10l-3 9-6 1zm456-7h6v10l-3 1-3-2zm2 29v-4h8l6 4 1 6h-4l-8-2zm-9 27v-4h5l1 4-1 4zm-14 11l5-6h6l1 4-3 2zm-118 14l1-4h4 3l-1 4zm-201 56l9-2 5 3v2l-4 4h-10z"/>
		<path id="Path 35" class="s32" d="m244 410l5-1v4h-4zm400 31l4-2 1 6-1 2-4-5zm-8 33v-10h12v2 8zm-26 1v-7h4l2 6zm97-4l2-2h3l1 4 8 2-2 5h-5zm-511 14l1 5-3-1-2-4 2-4h2zm330 17l6-2 4 5-1 8-6-1zm132 9l1-11h5v3l-2 8zm76-4v-3l5-2 1 7zm-54 34l8-3v5l-5 1h-3z"/>
		<path id="Path 36" class="s33" d="m844 506h4l4-6h16v5l-6 8v11l-4 8-2 1-9-1-3-9zm-125 24l6-1h7l6 6-22 15h-6l1-12 6-1zm-78 31l7-2 3 5h5v2l1 4-2 4-6 2-8-2-3 9-8 9h-4v-12l1-6 12-1 1-2zm-64 61l5-7 28-16 4 1v8l-10 10-8 1-7 7-3 19-11-8-1-3 4-7z"/>
		<path id="Path 37" class="s34" d="m263 408l4-4 4 1-1 8h-1-3l-3-2zm375 39l3-1 7 9v9h-12v-9l-3-3v-2h4zm-186 19l7-5v9l5 2v4h-8l-4-2zm128 4l12-2 1 5-13 1zm-406 3l2-3 7 1v2l-6 1 4 3 1 5h-10zm260-1l9-1 2 3-3 6-8-1zm-50 36l6-2 21 4 5 5-2 11-4 1-4-4h-19l-3-3z"/>
		<path id="Path 38" class="s35" d="m492 397l7 1 3 3-2 5h-6zm-210 12h-3l1-4 4 1zm234 4l2-5h6l-3 7 8-1v4l-2 5-5 2-6-4zm-221-1l6-2-2 3zm-117 8l10-2v7h-5-5l-1-3zm-25 4l11-2v1l-1 3h-10zm495 14h1v1h-1zm-459 122l7-3 1 5zm48 10l-7-3 1-10 11 8zm364 11l5-2 10 3-6 9v8l-28 16-5 7h-4l-4-2-4 4-10-13 6-4v-5h5l27-16h7zm-299 30l2-7h6l4 4v7l-7 1z"/>
		<path id="Path 39" class="s36" d="m424 399l8-2-2 4-6 2-3-1zm-156 29l5-1 1 1-4 4h-3zm-59 5l1-2 3 1 3 4-3 2zm553 33l2-2h3l5 2-5 2-5-1zm-319 5l1-5h8v8h-7zm77 13v-12h16l4 4v6l-5 6zm-50 24l7-4 6-15 5-3v-8h6l4 5-5 18 7 4v8l-8 6v9h-6l-12-3v-6l-4-2zm-202-17l3-4 11-1 1 7-8 5h-4zm16 27l1-2h5l9 6 1 14h-12l-4-7zm29 5l1-1h8l2 4v4h-7zm-59 10l4-2 5 7h-9zm-39 19l8-2 2 2v2h-9z"/>
		<path id="Path 40" class="s37" d="m482 417v-1h7l1 3-6 1zm30 11v-7h4l6 4v2l-6 2zm-364-3l5-1v2l-3 2zm-20 77l8-1h3v5l-4 2-9-4zm459 78l3-4h10v5l-7 3h-5z"/>
		<path id="Path 41" class="s38" d="m516 397l7-1 2 1v4l-3 1 2 6h-6l-2-6zm-58 15l2-15 8 1 4 6 5-1 6 3-1 10v1l-9 1-15-4zm-139-6l-1-6 4 1v5zm104 2l8-2h4l3 2v6l-1 3-3 1v4l-16-3 1-4-5-1v-2l6-5zm-56 3l7-1 2 2-3 3-4 2v5 2h-7l-1-2v-3l4-1 1-6zm-239 17l4-1 1 4-2 1h-3zm509 12l5-6h5l1 2v2 1l-4 2zm205 44l2-2h8v18l-4 6h-4l-3-14zm-126 44v-2l8 1 1 2-6 1zm108 23l2-21h5l1 6 1 14-1 4zm-544 46v-5h4l6 4v8h-4zm285 27l4-4 4 2-3 8z"/>
		<path id="Path 42" class="s39" d="m261 418l5-5h3v6 2l-3 4h-2v-1-3h-3zm-47 9l4-3 2 3-4 9-3-4zm54 0l4-3 2 1-1 2-5 1zm-46 1l3-3 1 1v9l-3 1zm-72 0l3-2h10l1 3-9 3v4h3l3 3 5-2 1 3-1 3-1 4-2 1-10-6-2-4-5 1-5-4v-3zm93-1l4 1 2 3v2l-7 7-4-1-2 12-5-2 1-4 3-7-1-5 1-2 4-2-2 7 3 1zm45 11l8-10 2 3-3 7-3 2zm-6-4l2-5 3 1-2 5zm297-1l4-1v4l-1 1-4-1zm-374 6l4-6 4 5 2 3-5 3zm112 0l1-5 4 1-2 5zm-132 5l-1-7h4l4 2-2 5zm426-2l1-2 5 2v8l-3 1zm-366 10l-3-1v-10h6l-1 8zm417-3l3-3 3 2v8l-2 1-4-1zm41 7l3-2 3 2v3l-2 4-3-1zm45 17l6-3h4v4h7v4l-11 3-6-2-1-4zm-537 2l1-2 10 2h2v1l-3 4-6-1zm465 18l4-3 11 4v4l-4 4v-4l-9-2zm-427 10l-2-9h5v8zm413 8l2-8h4v6l-2 2-2 1zm138-2l-5 1-2-7 8 1z"/>
		<path id="Path 43" class="s40" d="m312 402l6-2 1 6-5 1-2-2zm-63 31v-2h3l-3 3zm475 23l-1-5h3l4 3v4zm-260 16l6-4 6 3v5h-12zm-69 2l13-4h12v10l-6 2-20-2zm121 28l-1-5 3-2 2-11 15 4v7l-3 5-6 2zm-390 2l-10-6h1 11v4zm290 11l38-9 16 2v9l4 2v6l-7 5h-9l-37 2-3-6h-4zm-142 11v-8h4 6v11l4 7v11l-4-3h-12l-7-4 3-5 5-1zm50 4v-4h6v4zm348 14l3-1 1 1-1 4-3 1z"/>
		<path id="Path 44" class="s41" d="m418 403l3-1 3 1v2l-1 3-3-1-4-1zm-82 33h4l2-6h6l1 4-15 20h-7l-4 4-14 4h-15l-2-12 4-6 12 2 2-2 22-2zm98 0v-4h4l6 5-4 5h-4zm-35 3l5-3h6l4 2-2 16h-8-6l-2-3 2-12zm289 9l4-2 4 5-4 2zm117 84l7-1v1l-4 13-6-2v-9z"/>
		<path id="Path 45" class="s42" d="m406 412l2-3 3 1 3 2v2l-4 1h-4zm295 123l7-1 2-6h6l3 2-2 7-6 1-1 12-6 6h-6l-2-4h-11l-3-4 1-4 5-1 7-1zm-53 24l8-2v7h-5zm-411 11l5-5 9 11h-7zm379 11l10-1v12l-6 4v4h-6l-4-1v-8l6-9zm-46 49l3-8h4l1 5-4 7z"/>
		<path id="Path 46" class="s43" d="m434 432v-5l4 1v4zm154 12l7-4h2l7 9 7 4 3 15h-4l-14-4-2-11-6-3zm-425 4l2-1 2 6 7-1 2 1v9l-1 4h-5v-5l-9-5zm307 14l10-4h12l2 10 26 4v12l-2 11-3 2 1 5 2 16-4 2h-8v-5l-6-2v-8l-7-4 5-18-4-5h-6l-12-2v-5l-6-3zm-50 8l3-4 11 6v7l-14 1z"/>
		<path id="Path 47" class="s44" d="m549 403l1-1 4 3v1h-5zm5 4l5-3 3 1v3l-7 1zm-391 19l1-3 5 5v1h-5zm95-1l1-1h5v1l-2 3zm0 9l3-1 3 3-1 3-5-3zm527 45v-10l6 5h7l16 2 3 2v3l-5-1-2 6-5 3-7-5-7 2-5-4zm-561 13l1-6h8l2 4-1 3zm446 2l6-1 2 3-2 5-6-3-2-1zm16 12l1-2h3l-1 6h-4z"/>
		<path id="Path 48" class="s45" d="m437 417l1-3h4v3zm-236 8l-1-5h2l1 5zm317 9h4l1-4h3l7 4 2 2v5l5 2 1 6v5l-5 5v13h-16l-26-4-2-10 4-1 12 1h7l3-3v-7zm-286 11l-1 4 5 2 2-12 4 1v1 10l3 1 1 14-2 4-4-4-4 1-5-1-3-5 1-16zm-57 21l1-4 6 1 3 6-2 2-7-1zm443 29l2-2 1 1v2h-3zm-318 41l-1-14 14 1 4 7h7 6l2 6-6 1v11h-26zm52 2v-13h5l5 4v7z"/>
		<path id="Path 49" class="s46" d="m335 412v-2h3v4l4-1 1 3-4 4v7l3 3-2 6h-4l-1-10 1-6-3-1 4-2zm-147 25l2-3 2 3 6-1 1 1-4 5 8 1 1 11h-4-9l-1-10 2-5zm447 8l2-5 7 1v1l-3 4-3 1zm-94 4l9-6h5l5 6 2 5h3l1 5 10 2 4 9v4l-8 8h-3l-29-6-4-4v-13l5-5zm-82 12l7-3 4 4v6l-6 4-5-2zm-344 19l4-4 1 8-5-1zm-22 8l6-4 9 12 4 6-2 3-5-1-4-3zm264 37l4-5h9 14l3 3h19l4 4v15l-15-2-1 4h-3l-3-4h-8-7l-1-4h-4-6v-7zm-27 1l10-3 12 2v13l-20-2-2-6zm58 66l1-2 3 1 1 4h-3z"/>
		<path id="Path 50" class="s47" d="m315 415l3-2h4l3 3-1 6-4 2-7-2zm225 28l-5-2v-5h4l1 1zm-32 7l10-2v7l-3 3h-7zm68 5l6-5h6l6 3 2 11-4 1v3l-12 2-4-9zm-152 4l8-1 6 1 6 7-1 5-9 1-11-6zm-58 16l3-9h9l4 9-1 4-5 1h-8zm-183-4l2-2h7v9l-4 1-4-4-1-2zm634 7l3-1 3 2 1 8 9 6v3h-3l-6-4h-8l-6-6 2-6 5 1zm-19 40l2-2h3l4 3v4l-3 5h-6zm-682 0l3-1h2l1 3v3l-6-1zm120 24h8l2-4h8 9l2 2 7 4-2 11 22 17v14h-8-6v-4l-6-6-1-12-12-12-24-4-1-4zm-49 14l7-2 2 1v2l-7 3-2-1zm192 44l-3-10h9l3 2 2 3v6z"/>
		<path id="Path 51" fill-rule="evenodd" class="s48" d="m532 400h-4l2-4 3 2 2-2zm30 17l1-12h3l5 4v2l-5 5zm-248-10l5-1h6v2l-3 5h-4l-1-5-5 7-5 1 1-5zm-59 9l4-6 3 1-3 5 2 2v3h-1l-8-1zm20-2l2-1 1 6-4 6-2-1v-3h-3v-2zm323 6h-3v-5h5zm-318-1l1-2 6 1v3l-3 4h-3zm-111 10v-1l5 2 3 2-1 7-3 2-6-1-1-3v-4zm14 0l2-1h5v6l-2 3h-4l-2-6zm403 7l9-4v8l-7 4-3-5zm-17 1l9-1 4 1v5l-11 2zm28 3l9-4v6l-2 7zm105 32l3-8h2l2 5-2 2zm70-6l4-2 9 3v12h-5l-5-3v-3l-8-3v-2zm-536 1l4-1 4 4v4h-5zm-40 18v-4h3l-1 4zm375 5l-3-2 1-6h3v6zm40 4l8-7h3l-2 6-2 2-6 2zm10 0l9-3v4l-5 3-4-2zm70 0l5-2 6 2v4l-6 5h-1v-5h-4zm41 14l2-1 6 2v2l-4 3-4-3zm-58 16v-4l4 4zm130 4l3-5 5 4v4l-7 1zm-646 15l2-3 4 2v2zm368 51l-4-6 4 2z"/>
		<path id="Path 52" class="s49" d="m536 411l-2-8 3 2 1 3zm-26 4l5-7h3l-2 5zm-177 4l-3-1 5-6 2 5zm-20-3l2-1-2 7-2 1-1-4zm-128 12l-2-3h5l2 1v2zm-47 8l-3-1 2-3h4v3zm65 7l-8-1 4-5 5 2zm-30-2l3-2 3 7-6 1 1 5-7 1-2-6 1-4 6 1zm462 4l-5-2 7-3zm-70 9h-3l-2-5h6v3zm126 4l9-2h3l1 6h-12zm52 14l4-2 1 3-1 2h-2zm84 39l1-2h3l1 1v5l-4 1zm-629 23l1-8 5 1v7zm70-3l6-5-1 8-5 1z"/>
		<path id="Path 53" class="s50" d="m379 401l8-1-2 5 3 4-9-5zm166 11l-1-5h3l1 4zm26-1v-2h7l4 5 5-1 7 2h1v5h3l9 11-1 5-9 4h-2v-8l-9 4h-3v-4l-4 1-1-1 2-4h2l-2-3-2-6h-6v5l-3 1-3-9 1-1 6 2zm-25 20l4-1 4 2 1 11h-5zm122 72l2-5 6 3v3l-6 6-2-1zm-501 13l1-8 8-3v13h-8zm514-4l4-2h4l2 3-2 3h-4zm101 7l16-1v10l-5 6h-1l-4 1-6-13z"/>
		<path id="Path 54" class="s51" d="m322 401l3-1 1 3-1 3h-3zm77 12l-2-5 4-6h1l10 6-1 2-3-1-2 3zm128 10l2-5 2 4zm-128 16v-4l5 1zm-225 13l-1-5 6-1h1l4 7h-8zm528 20l5-1 7 9v4h-8l-6-6v-6zm11 22l1-8h6v8l-1 2zm-575 38l3 2 1-3 4 2v6l-10-2v-5zm522 16l3-4h9v5l-10 3z"/>
		<path id="Path 55" class="s52" d="m540 437l3-6h3l4 12-9 6-1-6zm-74 21l1-12 4-6h8l1 18-10 4zm-221-6l2-3 5 1 3-1 1 4-7 13h-3zm133 14v-6l10 2v4l7 8-1 6-6-5h-6zm44 126l4-1 6 2-2 12-40-4v-6h3l6-1z"/>
		<path id="Path 56" class="s53" d="m798 468h3l-2 1zm-673 65l1-3h9l1 2v5z"/>
		<path id="Path 57" class="s54" d="m289 409l-2-3 3-3 3 1-1 4zm33 4l3-5h3l1 3 4-1h2v2l-5 6 3 1 3 1-1 6-5-1v-4l-5 1h-1l1-6zm207 1l7-2 6 2v8h-2-9l-2-4zm21 8v-10h5l4 6v5l-3 3h-6zm-96-6l4-2 15 4-5 10-13-2-4 11h-7l-6-5v-4l-4-1v-5-4l3-1h5l6-1zm-266 9v-7h8v2l-5 6h-1zm181-1v-2h4l1 3-4 3zm46 14v-5l8-4 3 1v6zm407 18l11-2-1 12h-10zm12 36l1-8h7l-1 8zm-22 40l8-3 6 1-2 21-16-6z"/>
		<path id="Path 58" class="s55" d="m394 417l4-3 3 4-2 4 2 2-1 2-5-1zm164 14l10-1 5 3-4 4 2 7 11-2v8l-6 5-10-3v-3h-6l-5-6-1-11zm-457 33l4-11h2l3 3-5 8zm360 146l1-6h12v7z"/>
		<path id="Path 59" class="s56" d="m582 437l1-1h3l-1 3h-3zm-242 45h8l2-3 10 1v11l11 8v5l-1 16h-9l-4 5h-5l-12-2v-10l-14-10 1-17 5-4zm-44 16v-10h4 8 4v9l-3 2zm-28 20l-4-2v-10h5l9 5v7h-4zm-158-3l2-3h6l1 5-3 1zm2 10v-3h4l6 1 4 3v4l-1 3-9-3z"/>
		<path id="Path 60" class="s57" d="m424 403l6-2 2-4 4 1-2 4-3 1-7 2zm190 18l1-9 3-2 9 1 6 7h11l4-6 4 1 13 19v2h-5-13-5l-19-8-2-4-4 2zm260 79l10-4 2 1-4 19-6-1zm-16 32l10-2h9l3 4 2 9v8l-6 15h-7l-4-4-4-16-5-4v-9z"/>
		<path id="Path 61" class="s58" d="m413 399l3-1 2 5-2 3h-2l-3-2zm-39 7l5-2v8h-3l-2-2zm213 7l5-1 2 3zm-177 2l4-1 5 1-1 4-3 2-5-1zm223 35l2-5 3 2-1 3zm69-1l1-3 4 1v1l-1 2zm28 9v-4h7l1 3 9-1 2 6 5 2v6l-6 3-1-3-4 2h-5l-3-4-5-3zm24 23l11-3 8 8 5-4 4 6h4l7 15 2 7 5-1v7l-2 2-16 1-5-2 2-6h-6l-1 3h-3l-1-5h-7l-3 3-1-5h-5l-2-9v-13zm-497 11l-1-12h2l6 11-2 2zm439 11l6-5h3l2 5 3 14-7-2-4-1-3-3zm-38 10v-2h4l2 1z"/>
		<path id="Path 62" fill-rule="evenodd" class="s59" d="m393 401l4-1h5v2h-1zm19 7l2-2h2l4 1-6 5-3-2zm-197 8l3-1 2 4-2 3-4-6zm102 15l5-5h3l-3 9-4-1zm295 9l2-6 5 4h5l3 3 1 11-11-2v-8zm50 0l-6-2 4-2zm-429 46l3-6 2 7-3 3zm422 5l5-3 9 2 1 4-2 3-4 3h-5zm-380 7l8-5 5 1 2 9v13h-5l-1-11zm450-2l3-1 4 2-4 6-2-3zm-561 48v-2l6 4zm221 46l1-5h3v5l-1 2z"/>
		<path id="Path 63" class="s60" d="m333 406l4-4v4l-2 3-2 1-4 1-1-3zm-109 5l5-2-3 6zm63 7l1-2h6l5 2v4l-4 3-5 1v-4l-3-1zm330 6l4-2 2 4-1 6h-2l-4-2zm-440 4l1-3h5l2 3-2 1zm349 2l7-1v5zm158 22l2-4h2l4 5 4-2h1l3 5-9 2h-5zm-508 53l1-3h7l2 18-4 1-6-3zm-52 3l2-4 9 4-3 4 4 4-10 2-1-2zm679 8l3-6h12l1 1v6l-2 4-4 2-1-4h-5zm25 0l4-1v-5l2 12-3 2-4-3zm-671 4l2-6 3 3 5-1 1 2-1 2-5 2-5-1z"/>
		<path id="Path 64" class="s61" d="m882 516l4-19h4l2 5v16l-4 2zm-2 18l8-1 4 1 12 14-4 39-10-4 4-28-4-3v-7l-8-2zm-250 58l8-9 3-9 8 2-1 7-8 8-2 12-6 10h-4v-11zm-326-1l6-1 6 3-2 5h-3z"/>
		<path id="Path 65" class="s62" d="m373 415l3-3h3l1 2-3 3zm-41 61h8v6h-8zm394 7v-3h3l3 2-4 4zm-590 6l4-3 6 10-1 2-6 3h-3v-5zm126 4l2-2h4l3 7-2 8h-5l-2-3zm28 10l6-1 5 5h8v7l5 3v5l-1 1-14-1-9-6zm-190 17v-3l12 5v3z"/>
		<path id="Path 66" class="s63" d="m898 488v-7l4-1 3 4-2 4zm-30 36l8-9 6 1 6 4v13l-8 1-3-4h-9zm8 42l6-15v-8l8 2v7l4 3-4 28-12-7z"/>
		<path id="Path 67" class="s64" d="m294 416v-4h1l4 1v4 1zm90-2l4-2v5l-4 1zm-140 56l2-4h3l5 6v6l-10 4-1-2 1-6zm557-2l13-1v9l-16-2 1-5zm-483 11l2-3 2 1-2 4zm-196 44v-3h4l7 5v1h-7zm424 63l3-4h9l6 6-5 5-7 1-6-2zm-98 8l3-1 11 3v8l-1 6-11-2z"/>
		<path id="Path 68" class="s65" d="m292 408l1-4h2l3 1-1 3 5-2 4 1v3l-5 7h-2v-4l2-3-6 2h-1l-1-1zm108 18l1-2h4v4l-2 2zm-169 5l1-5 3 5-1 2zm443 10l1-2 3 1v3l2 9-1 4h-11v-8h8zm-33 5l3-4 4 5v8zm80 11l3-1 6 2v7l-2 1-8-1v-7zm-510 18l-3-2 2-2 2 2zm508 5l2-5 5 2v3 3l-5 1zm-516 8l8-2 2 7-1 9-8 2h-3l-2-5 5-3zm427 3l7-5 15 2 3 3 4 9-1 11v2l-2 3-5-2-7-8-3-9h-4l-1 3h-4l-2-5zm-378 3l5-2 5 1v10l-10-1zm412 6l4-3 2 1-2 5h-4zm6 10l6-6 10 2-1 4-4 2-7 3-4-3zm86 10l1-4h10l5 1 3 1v4l-6 2zm-530 7l5-8h1l-2 8zm350 53v-4l4 3-3 1zm-183 15l-1-4 7 3z"/>
		<path id="Path 69" class="s66" d="m344 406l6-2 5 2-2 4 2 1v3l-9-1v-2l1-3zm-74 7l1-8 4 1 2 5-4 3zm654 8l18-4 3 9-1 8h-10v-4l-9-4zm-81 30l9-3v34h-8zm-12 79l1-2h8l-1 6-7 2zm1 24l1-4h9l-1 8-9-3z"/>
		<path id="Path 70" class="s67" d="m573 433l5-1 1 1-1 3-9 1zm-337 47v-2h2l5 2 1 2v5h-6zm46 6v-3l6 2v9l-5-1zm-66 0l8-2 1 2-1 6h-2-7zm-84 4l4-1v7h-4zm177 9l3-2-1 5zm-199 16l-8-4 3-7 5 1 2 7zm106 22l6-2 1 6-1 2h-3zm-23 8l11-7h6v13l-9 2-5 2-2-1z"/>
		<path id="Path 71" class="s68" d="m483 406h11 6l6 12v10h-6v-5l-4-4h-6l-1-3h-7zm-257 9l3-6 4 1 2 5-3 6-3-4zm-8-1l6-3 2 4v2l-1 1-5 1-2-4zm181-1l7-1v3l-5 3-3-4zm146-1l3-1 2 1v10h-8v-8zm-293 8l8 1-1 3-1 1-1 3h-4l-1 3h-3l-2-3 4-8zm163 1l3-2 16 3v5 5 4h-8v-6l-3-1-1-3h-6zm-95 3l4-2h1l-1 4h-2zm-130 4v-2h1l7 2v8l-6 1-2-3zm-73 10l11-6h3l1 9 6-3 8 7 2 3-9 4-1 6-11-4-3 1h-3l-2-3-3-2v-7zm-30 5l11-6 1 2-5 5h-1zm746 11l10-3 1 31-2 2h-7l-3-18zm-2 70l3-2 6 3v3h-8z"/>
		<path id="Path 72" class="s69" d="m538 387l15-6 13 21v3h-3-1l-3-1-5 1-4-3-2-5-3 1-7-3zm-142 10l6-1v4h-5zm20 1l8 1-3 3-3 1zm15 5l3-1 1 4h-4zm-70 9l3-7h4l-1 6-1 1-3 1zm-170 14l5-6h4l1 5v3h-3zm711 54l1-8h9l3 3-10 9zm-46 85l2-6-10-7v-5l8-5 5 4 4 16 4 4h7l2 10-8-2z"/>
		<path id="Path 73" class="s70" d="m325 422l5-1v4l-5 1h-1zm390 34l3-2 3 3-1 1h-5zm-365 20l8-2 2 2v4l-10-1zm-92 4l2-4 5 4 4-2 10 2 3 3v3l-11 1-3 4h-4zm-156 0l11-2 2 2v3l-2 5 4 10h-1l-5-3zm194 3v-3h4v8h-4z"/>
		<path id="Path 74" class="s71" d="m357 420l-4-2 2-3 3 2zm0 12l5-5 1 4zm-96 1l3-5h4l-1 4-3 4zm405 24l2-1h11l-2 8-6 3-6-1-3-2zm-551 9l6-3 1 1-4 9-6-1v-4zm639 4v-6l8 2v1 3h-4zm-510 12l10-4 2 2 1 12-5 2h-5l-3-7zm-127 16l-4-10 2-5 5 1 12 6v6l-4 2zm179 4v-4l13 1 2 3-2 5h-8zm522 8l1-10 8 2 1 7-1 2h-8zm-700 2v-4h6l1 8-4 1h-2zm113 7l4-10h2v6l-5 4zm28 7l8-1 1 6v4l-3 5-2-2-5-7zm-49 12l6-1 3 6h3l1 7-8 2h-5v-1z"/>
		<path id="Path 75" class="s72" d="m288 415l5-4 1 1v4h-6zm-107 62l-4-3 6-1 1 2zm54 13l3-3h6l3 7 2 9-4 5-6-2-2 3h-2v-4l4-10-5-2zm-13 45l4-8h4v7l2 4h4v4l-2 2-11-3zm346 48l-3-4 7 1z"/>
		<path id="Path 76" class="s73" d="m295 425l4-3 3 3 1 4-3 3-2-1-2-3zm-149 20v-1h5v4h-3zm-22 10l3-1v2zm101 97l10-4 24 4 12 12 1 12 6 6v4 3l-13-4-3-4h-6l-5-5-9-11-11-8-6-3z"/>
		<path id="Path 77" fill-rule="evenodd" class="s74" d="m360 400l2-1 2 6-3 7-6-1-2-1 2-4 4 1zm41 18l5-3h4v5l-6-2 1 6h-4l-2-2zm155 8l3-3-1 4zm-17 10l3-6 1 1-3 6zm-445 8l5-5 7 1h5v3l-4 2v8h-2l-3-10zm578-3h-5l2-2zm20 29v-8h12l1 2-3 8h-2zm95-3l11 1 1 1-1 5h-7l-6-5v-2zm-73 13h5l2 4-1 2h-6zm114 29l-1-7h4v7zm-11 12l2-4 8 4 4 3 1 4-1 2h-5l-6-1 2-4z"/>
		<path id="Path 78" class="s75" d="m284 406l6-3-3 3 2 3-1 6v1l-1 2-6-1 1-8zm58 6l4-1v2l-3 3-1-3zm21 1l3-1-1 6-4 1-1-2zm-121 7l4-4h2l3 4-4 8-4-1zm57-2v-1h2l5 1-4 7-3-3zm299 2l8-1 8 2 3 3-1 6h-2l-7 1zm-421 12l5-1 2 6 1 7-5 2h-1l-3-7zm501 11v-3l14 4v2l-4 2h-2zm-29 2l8-1 2 6 3-1v7l4 1-4 7-8 2h-6v-2-9-8zm56 19l-1-2 3 1v1zm-30 79v-2h5v3h-4z"/>
		<path id="Path 79" class="s76" d="m272 450l4-6h4l3 4 9 2 2 12-4 6v9l-8-1-7-8z"/>
		<path id="Path 80" class="s77" d="m541 404l5-1h3v3l-2 1h-3-3zm-315 13v-2l3 2zm77 12l3-1-1 5-4 2-1-3zm-145 7l8-3v4l-5 2zm490 0l4-1-3 3h-1zm61 23v-3h6v2l-4 2zm-158 71v-3l5 2-3 8-4 1z"/>
		<path id="Path 81" class="s78" d="m369 422v-5l4-2 4 2-2 4 3 1v2l-4 1-1-3zm-95 3l4-6h2l1 6h3v4l-2 5-4 2 3 5-1 3h-4l-4-5 6-8-4-3-1-1zm-17 3l1-3 4 3h2l-3 5-3 1h-1zm-28 6l2-3 3 2 1 5zm-91 24l1-6 9-4h3l1 8h-4l-3 5h-6zm117-9l1-1 4 3v2h-4zm29 143v-6h8l2 10h-4zm146 13l2-12h14l2 1 2 14z"/>
		<path id="Path 82" class="s79" d="m242 440l7-7v1l3 6h1l-1 10-5-1 1-8h-6zm-126 23l7-4-2 4-6 3zm162 126v-3h6v6h-4z"/>
		<path id="Path 83" class="s80" d="m665 434v-2l7 1 1 4h-4z"/>
		<path id="Path 84" class="s81" d="m86 461l1-3h3v6l-4 1zm127 32l2-1h7v10h-10z"/>
		<path id="Path 85" class="s82" d="m316 436l1-5 1 3-1 5zm-52 0l3-4h3l-1 6 3 1 4 5-4 6h-4l-2-6-3-5zm-125 25h6l3-5h4 9l9 5v5 7l-3 7-7 2-9-2v-5l-9 4v-9l-5-6zm323 143v-8l19 3 2 3-9 2z"/>
		<path id="Path 86" class="s83" d="m252 431l1-3h4v6l-5 6-3-6zm1 9l5-1-2 9-1 1-3 1zm-136 17l4-2h3l3 1 3 6-8 2-1-1 2-4-7 4-1-3zm645 13v-3l5 1v2 2h-2zm-649 8l-1-6 6 1 1 3-4 4zm665 4l2-3h5l1 3v6h-4zm-652 48v-4h7l2 4z"/>
		<path id="Path 87" class="s84" d="m205 425l3-2 2 5 4-1-1 5-3-1zm-23 38l5-1 6 4-1 3h-7zm62 53l2-2h6l2 12-2 6h-6l-3-5z"/>
		<path id="Path 88" class="s85" d="m301 417l5-7 2 1-1 5 5-1 1 1-3 3 1 4-5 5-3 1-1-4 4-7zm-17 8l3-4 3 1v4l5-1 1 3-8 10-3-1v-2l2-5-3-1zm-22 3l2-3h2l2 2v1h-4zm33 10l3-7 2 1 1 3-1 3h-4zm-43 2l5-6h1v2 3l-5 1zm497 22l9-1 6 3-2 2-8-2z"/>
		<path id="Path 89" class="s86" d="m326 403l-1-3 6 1v2zm-82 7l1 3h4v-4h2l3 6-5 1-1-2h-3l1 2-4 4h-4v-10zm482 41l5-2 6 3v2h-7z"/>
		<path id="Path 90" class="s87" d="m310 438l-2-4 4 2zm-199 18l5-6 3 2-3 2 1 3-2 3-4 1zm229 20l9-2 1 2v3l-2 3h-8zm-31 3h9l2 2v5l-8 2h-4zm-60 24l3-1 10 1 2 3v10l4 2-1 7-8 1-1-14-6 2h-6l-1-6z"/>
		<path id="Path 91" class="s88" d="m98 437l5-2 3 4v1l-7-1zm620 17v-3h5l1 5-3 1z"/>
		<path id="Path 92" class="s89" d="m99 484l-5-12h4l4 8 9 15-3 1zm43-5l9-4v5l-1 13-4 3-6-10zm-4 53l2-2 2 1-1 3z"/>
		<path id="Path 93" class="s90" d="m538 396v-1l7 3 1 5-5 1-2-1zm220 65v-4l10 1-1 6h-3z"/>
		<path id="Path 94" class="s91" d="m527 391l11-4v8 1h-3l-2 2-3-2-5 1-2-1zm-421 42l22-5v4l-11 6-11 1-3-4zm631 21v-2l21 5v4l-9 1-2-6-9 1zm30 10l1-6 8 1v5l-4 2z"/>
		<path id="Path 95" class="s92" d="m532 400l3-4h3l1 7-2 2-3-2zm-159 4l3-4 3 1v3l-5 2zm193 1v-3h8l4 1v6h-7zm-189 12l3-3h4v4l-6 4-3-1zm324 27h6v3l-4-1z"/>
		<path id="Path 96" class="s93" d="m808 458l14-2v10l-2 1h-6l-13 1h-3l-11-1 1-8z"/>
		<path id="Path 97" class="s94" d="m127 456v-2l11 4 1 3-2 3-7-2z"/>
		<path id="Path 98" class="s95" d="m117 457l-1-3 3-2 2 3z"/>
		<path id="Path 99" class="s96" d="m776 464v-5h12l-1 8h-2z"/>
		<path id="Path 100" class="s39" d="m760 499l8 2v3l-7 2z"/>
	</g>
</svg>