<svg version="1.2" xmlns="http://www.w3.org/2000/svg" viewBox="0 0 1000 1000" width="1000" height="1000">
	<title>Hybognathus_hankinsoni-svg</title>
	<style>
		.s0 { fill: #d6ccad } 
		.s1 { fill: #4f4e22 } 
		.s2 { fill: #4a4921 } 
		.s3 { fill: #d6c99e } 
		.s4 { fill: #d5ccab } 
		.s5 { fill: #d0c397 } 
		.s6 { fill: #cbbe83 } 
		.s7 { fill: #d7c894 } 
		.s8 { fill: #d7c789 } 
		.s9 { fill: #d4c37d } 
		.s10 { fill: #cfc5a3 } 
		.s11 { fill: #d9cea5 } 
		.s12 { fill: #c0b272 } 
		.s13 { fill: #808134 } 
		.s14 { fill: #565626 } 
		.s15 { fill: #75752f } 
		.s16 { fill: #908d3b } 
		.s17 { fill: #978962 } 
		.s18 { opacity: .9;fill: #cfc6a3 } 
		.s19 { fill: #716c30 } 
		.s20 { fill: #63652b } 
		.s21 { fill: #5e5b2e } 
		.s22 { fill: #cbbf8f } 
		.s23 { fill: #c6b97a } 
		.s24 { fill: #ada253 } 
		.s25 { fill: #867b34 } 
		.s26 { fill: #a8963b } 
		.s27 { fill: #9e9745 } 
		.s28 { fill: #a09162 } 
		.s29 { fill: #ccbd75 } 
		.s30 { fill: #dbd1b4 } 
		.s31 { fill: #b5a644 } 
		.s32 { fill: #b6a966 } 
		.s33 { fill: #d3c26e } 
		.s34 { fill: #998c57 } 
		.s35 { fill: #968a3a } 
		.s36 { fill: #c3b769 } 
		.s37 { fill: #bbb05c } 
		.s38 { fill: #c1b784 } 
		.s39 { fill: #a89965 } 
		.s40 { fill: #786f38 } 
		.s41 { fill: #c6bd97 } 
		.s42 { fill: #8f834e } 
		.s43 { fill: #55512e } 
		.s44 { fill: #7f724f } 
		.s45 { fill: #837844 } 
		.s46 { fill: #b0a473 } 
		.s47 { fill: #70613b } 
		.s48 { fill: #cebf5f } 
		.s49 { fill: #c4b54f } 
		.s50 { fill: #8b7d59 } 
		.s51 { fill: #6c5f48 } 
		.s52 { fill: #3f3f20 } 
		.s53 { fill: #9a8435 } 
		.s54 { opacity: .9;fill: #ddd2b9 } 
		.s55 { opacity: .8;fill: #aea67f } 
		.s56 { fill: #9b9461 } 
		.s57 { opacity: .9;fill: #ccc096 } 
		.s58 { opacity: .5;fill: #d2c8a6 } 
		.s59 { opacity: .2;fill: #d6ccab } 
		.s60 { fill: #817d42 } 
		.s61 { opacity: .4;fill: #cfc4a2 } 
		.s62 { opacity: .6;fill: #d4c9aa } 
		.s63 { opacity: .7;fill: #cbc09c } 
		.s64 { fill: #3c3a28 } 
		.s65 { opacity: .6;fill: #b2ac80 } 
		.s66 { opacity: .4;fill: #a8a276 } 
		.s67 { fill: #0a0909 } 
		.s68 { opacity: .1;fill: #4d4f24 } 
		.s69 { opacity: .5;fill: #4b4d24 } 
		.s70 { opacity: .3;fill: #525426 } 
		.s71 { opacity: .8;fill: #96906c } 
		.s72 { opacity: .3;fill: #383a1e } 
		.s73 { opacity: .2;fill: #c2b688 } 
		.s74 { opacity: .2;fill: #a59e6f } 
		.s75 { opacity: .1;fill: #c0bba4 } 
		.s76 { opacity: .5;fill: #968f65 } 
		.s77 { opacity: .1;fill: #cebb99 } 
		.s78 { fill: #383a34 } 
		.s79 { opacity: .2;fill: #6e793e } 
		.s80 { opacity: .4;fill: #747434 } 
		.s81 { opacity: .7;fill: #7e7948 } 
	</style>
	<g id="Background">
		<path id="Path 0" class="s0" d="m488 334l14-6 4 14 8 11 8 2 2 5h10l1 9 1 27h-6l-10-15-1-8-5-4v-7l-6-8h-6-6l-6-4zm-416 205l16-9h6l3 4h12l3 12 5 3v7l3 2v9l-33-10-15-6zm446 25l6-6 20 4 4 6v12l-6 5-3-1-3-4-11 2h-3zm-378 7l1-7h9v10h-2zm38 7v-14h12l6 2v16l-15-3zm62 2l-9-3-1-9h4l6 8zm148-6l1-4 24 2 5 7v7 10l-3 3-4-3h-11v-17l-5-5zm108-3l10-1 2 14h-5l-7-5zm462 38l1-7 10-3 3 7-3 3zm-308 15l7-4 6 1 1 17-1 1-6 14-8 5h-3l-3-2-3-2 2-17 6-4zm-148 17v-7h5l1 6-2 1zm-6 13l4-4h4v5l-2 6-6-3z"/>
		<path id="Path 1" class="s1" d="m288 456l1-14 15-2 4 6h8l6-8 8-1 4-4 4-18h14 7l3 1-4 16 5 4h11l4-13 8-1 2 14-9 12h-8l-2 3-43-1-9 2-1 6-9 2-16-2zm-7-37l11-1h10v7l-12 13-12-2-4-6h-5l-15 13 2 9 12 1 2 5v12l-3 3h-4l-7-1-5-4h-6l-4-7-9-3-2 4-22 2-2 6h-4l1-10 15-10v-6l-6-8-5-1v-4l9-2 27-4 1 5h5l20-4 3-5zm151 3v8l-11 4-7-7v-9h6zm84 20v-5h2 4v5zm110 18v-6l10 2v4zm-556 8l19-6 9 6h10l6-6h6l8 6v7l-5 5h-7l-2 8-1 3-4 3h-9l-4 4v9l-3-5 1-10-8-2-11-12h-9l-2-6v-2z"/>
		<path id="Path 2" class="s2" d="m321 416l7-1h10l-4 18-4 4-8 1-6 8h-8l-4-6-15 2-1 14-18 2-2-5-12-1-2-9 15-13h5l4 6 12 2 12-13v-7h7zm41 0l16-1h8v7l-8 1-4 13h-11l-5-4zm-162 16l7-1v4l5 1 6 8v6l-15 10-1 10-2 6h-7l-1 4h-10l-8-6-3-12-11 2v10l-6 3-10-1v-8-5l6-6v-13l7-2 14-3zm306 10v-6h2l8 1v5zm90 12l4-4h9l6 1 3 2v6l-21-2zm-507 8l25-8v8l-6 6h-10z"/>
		<path id="Path 3" class="s3" d="m484 352l6-2 6 4 9 35 7 1 2 12-4 12h-6v-9l-4-3-4-22-4-9-4-1zm-420 195v-9h7l1 1v12zm555-2l13-6 5 3 31-2h7 9l7 9v8l-2 1-16 2h-9l-8 1v3l-6 60-2 9-6 4-2 17-18-8-2-2v-12h10l12-13v-7l6-2-2-8v-17l-6-8-24-13h-8l-2 4h-13l-1 4h-27l-17-4-4-6v-8l26-10h10l9 6 21-2 6-1zm-421 13v-9l8-5 4 2-1 11-1 1zm203-10l12-2 1 4 11 3-1 3-21-2zm-39 4h8l2-4 12 2v8l-20 4-2-6zm-128 16v-7l4-1h10l4 4 3 14 9 6v6h-9-1v-9l-6-5h-8zm-44-4v-2h7v2l-1 2zm128 30v-5l6-7 9-8h7l-2 12v10l-20-1zm140 14v-6l-10-7v-7h12l14 9v6l10 16 2 17h-8-6v-17l-5-6-7-2z"/>
		<path id="Path 4" class="s4" d="m512 390l-2-19-8-17h6l6 8v7l5 4 1 8 10 15v4l-4 4h-6l-6-2zm-405 124l7-1 2 7-8 4h-2v-10zm67 12l1-4h5l1 6h5l4 2-2 29 2 3v2h-12l-3-4h-24l-1 4h-9l-1 7h-2l-18-4v-9l-3-2v-7l-5-3-3-12v-6l15-4h6v13l3 3h11 10l3-9 7-1 4 10h6l2-2zm38 31l6-3h2v8l-8-2zm152 5l20-4 33 6 29-2 9 8h8l3 4 16-4 14 1v8l7 5 3 9-4 8v33 7h-2l-9-1-5-4-2-17-10-16v-6l-14-9h-12l-30-2v-7l-5-7-24-2-1 4-40 6v-8l7-6 8-1z"/>
		<path id="Path 5" class="s5" d="m465 346l9-5v9l10 2 4 18h-4-5-7v-8l-4-2v-8l-4-4zm33 69l6-1h6l-2 22h-2l-13-1 5-6zm397 79l-3-2 2-9 27-24 8-18 11-13h6l-2 7-7 6-2 10-17 20v7l-14 10zm-749 36l8-2 3 3-3 9h-10zm-92 12l4-6 6 2v9zm876 51l3-2 1-8-8-11-5-14-13-12v-8h4l10 8v6l14 12 4 15 4 3v25h-5l-4-1h-2l-5-2zm-214-43l17-2 3 2v4l-15 2h-5zm-452 40v-6l-9-6-3-14h6l7 2 4 6 1 8h9 11l2 4h13l10-5 9-4 2-7 12-4h6v8l-4 2h-7l-9 8-6 7v5h-11-13-6-7l-13-3zm284-10v-12l17 4-1 8-7 6h-6zm-130 16v-10l30 2v7l10 7v6l-18-6-3-6h-13zm224 16v-9l4-1 2 8zm-41 20l5-4h8l6 2v2 12l-10-5-3-2-3-2zm-135 6l1-2h5 6l-1 16-7 7-10-8 6-6z"/>
		<path id="Path 6" class="s6" d="m468 374l4-4h7v5l5 1 6 30 8 9v14l-5 6-11-3 2-4-10-12v-24l-6-3zm438 72l7-3 5-13h6v6l-5 5v8l-6 4v6l-9 3zm-720 76l7-1 1 7-4 2-4-2zm151 5l9-1h10v10 4h-9l-4 5h-8l-15-2v-7h8l3-7zm422 13l9-2h8l9 1 3 3-8 15h-4l-2-1v-4l-5-4h-11zm-536 10l10-2 5 6v6l-4 1v7h-4l-10-6v-8zm67 24h20l2-6h6l-3 11-10 5h-13l-2-4zm267 12l7-6 1-8h27v4 4h-15l-5 5-4 20-12-10zm365 16v-10l8 1-2 11zm-486 6l4-6 18 6 2 3v9l-4-2-13 2h-5zm146 9l3-5h5 5l1 10-3 4-3-1-7-6h-1zm-131 26l2-3h7v6l-3 2-4-2z"/>
		<path id="Path 7" class="s7" d="m484 376v-6h4l4 1 4 9 4 22 4 3v9l-6 1-8-9zm184 164v-4h7v4zm-138 10l3-8 8-1 2-3h25l2 6-26 10zm50-6v-6h13l3 4 14 1v5l-21 2zm-167 2l1-4 11 2 23-5 44 1 16 3 3 6-7 2-12-3h-33l-34 5-11-3zm-51-1l4-3h21l7 2 1 4-11 2-12-2-2 4h-8zm254 2v-3l3 1zm75 2l23-3 2 4v6h-14l-11 1zm-85 19l2-4h8l24 13 6 8v17l-4 1v9 7l-12 13h-10v-2l1-6 5-2 12-15v-13l-8-2v-4l-8-4-5-9-11-1zm-146 52v-9l7 2 5 6v17h-5z"/>
		<path id="Path 8" class="s8" d="m392 532l2 4h11l42-6 67 2 7-6 39 4h14l6 8v6h-10l-2-6h-25l-2 3-8 1-3 8-19-1-3-6-16-3-44-1-23 5-11-2-1 4-12 2h-6l-1-4-7-2h-21l-4 3-6-5v-4l28-4zm332-5l13-1 3 5h6l2-3 10 2 1 10-1 8-22 2-3-2-17 2-2-4-23 3-7-9h-9v-4l4-8 20 3 15-4zm-114 21v-5l6 1v3zm-18 24l1-4h13v6l-14 2zm22 56v-5l8-3 3-11 5-3v-14l8 2v13l-12 15-5 2-1 6z"/>
		<path id="Path 9" class="s9" d="m499 514l18 2 10-3 13 1 3 4h5l3 6 9 2v4l-39-4-7 6-67-2-42 6h-11l-2-4 1-4h5l3 4h8l3-4h18l30-10h10l8 2 4-3 8-2zm-143 12l1-4h15l8 3 4 7-28 4zm-36 10l2-12 8 2 1 3-3 7zm254-6l1-4h18l5 6h4l2-6h16 8l4 13-13 6-3-1-6-1-14-1-3-4h-13zm185 10l-1-10h10v8zm-562 22l1-4h10l1 2-3 4h-9zm395 14l14-2 11 1 5 9 8 4v4 14l-5 3-3 11-8 3v5h-8v-6l8-14v-14l-3-7-19-7z"/>
		<path id="Path 10" class="s10" d="m530 400v-4h6v2 2zm-20 14l4-12 6 2-2 33h-2l-8-1zm-380 110l1-4 15 4v6l-2 10h-11l-3-3zm64 4l15-3 1 1-4 18-8 5v9l-1 4h-7l-2-3 2-29zm150 36l11-8h7l2 6-1 3-8 1-7 6h-4zm-194 0l1-4h24l3 4v14l-24-4h-4zm500 60l6-60h5l1 12 10 8-1 7-5 13-1 7-2 10-6-1zm-148 10v-33l4-8 4 3v5 22 9l-3 2zm-25 18l1-16h8l5 4 9 1v9l-4 4z"/>
		<path id="Path 11" class="s11" d="m512 390l-7-1-9-35h6l8 17zm-437 133l4 2 2-4h4 3l8 3 2 1 10 3h1v6h-12l-3-4h-6l-16 9-1-1-4-9v-5zm309 27l11-2h6l2 6 21 2 1-3 34-5h33l12 3 7-2 19 1 14 4v8l-20-4-6 6h-11l-1 6-10 1-14-1-16 4-3-4h-8l-9-8-29 2-33-6zm-44 24l4-2h4v8l-4 6h-6zm-100 6v-4h8l6 5v9h-5-9z"/>
		<path id="Path 12" class="s12" d="m462 429v-15h8v2l-2 13zm432-8l12-3v28l-2 16-25 21-8 2-1 5-7 4-3 7v22l4 9 4 2v12h-8l-8-12-2-28 3-10 8-5 8-9v-4l13-11 10-6 2-7-1-23-9-1v-5l7-4zm-754 83v-6h8v10h-6zm126 24l1-13h4l1 3v10zm106-6v-6h16l7 1 3 5v6h-5l-1 4h-8l-4-7zm32 0l2-6 4 2v4zm-96-1l-5 4-1-5h4zm-70 2l3-1 7 1 5 5 1 18h-5l-3 5 1 5h6l1 3h4v5h-6l-4-4h-10v-6l-5-6-10 2-3-1v-9l10-2 2-10z"/>
		<path id="Path 13" class="s13" d="m488 463l74-1 50 7 4 5 26-2 5 4h11l4 6h4v8h-6l-3-8-52-2-9-8h-11l-5-4-20 4-31-2-1 4h-6l-27-2-1 10h-12-4l-14-3-12-1-6-3v-7l3-2 32-2 5 2zm-88 5l12-2v5l-12 1zm278 14l22-6v6l-4 2v10h-15l-3-2zm30 0l38-2 14 2 4 8-5 6-6 1 1 5-2 4-12-6-2-4h-8l-1 4h-5l-2-6h-8l-6-3zm-408 66v-5l14 1-4 4zm-46-2l12-1v9h-5-7z"/>
		<path id="Path 14" class="s14" d="m386 415l9-7h2l2 6 11 3 4 1v9l7 7 11-4v-8l14-1 4 5 12 3h6l14 3 11 3 13 1v6l-10 8-23-6-27 6-33-4-9-2-2 10-25 4-3 8h-27l-1-4h-22l-8-4 1-6 9-2 43 1 2-3h8l9-12-2-14zm-138 8l13-2h8 3l-3 5-20 4h-5l-1-5 2-2zm22 35l18-2 3 2v10l-21 2zm-64 12l2-6 22-2 2-4 9 3 4 7-1 5-18 3h-11l-2 3h-5zm450-4v-6h4l4 1 6 3v4zm-528 9v-7h16v8h-9zm-74 0l4-3h6l2 6h9l11 12-1 5-9-1-6-6h-11l-9 4-4-7 1-5zm55 19l4-3 4 3v2l-4 1z"/>
		<path id="Path 15" class="s15" d="m562 462l1-8h33l1 3 21 2 8 1h10 8l2 6h10l14 2 3 13-7 1h-4l-4-6h-11l-5-4-26 2-4-5zm-129-4l37-2 17 4 1 3-2 3-5-2-32 2-3 2v7h-4-7l-2-3h-11l-10-1v-5-6h16zm378 4h9l1-6h9l3 2 1 12-10 14h-12l-7-6 5-6v-8zm-487 8v-8h22l1 4-1 4zm427 0l7-2h8 5l10 2 3 8h6l-4 20h-3l-13-2-1-4-5-2-4-8-14-2-38 2h-8v-6l5-3v-4l12 1z"/>
		<path id="Path 16" class="s16" d="m849 446l9-2 4 8-2 18-2 2h-6v-14l-6-9zm-38 14l10-4-1 6h-9zm-422 9l11-1v4l-10 4zm139 5l1-4 31 2 20-4 5 4h11l9 8 52 2 3 8v8h-4l-14 1-18-3v-4l-7-4h-21l-7-8h-16l-1 4-6 1-14-1-20-2-4-2zm-34 8l1-10 27 2v6l-3 6h-7zm172 0l7-1 5 1v10l-12-2zm30 12v-10l4-2h8v9l6 3v7h-4l-4 5-8-5zm-574-3l5-1h4l1 4v10l-2 2h-4l-2-8-2-6z"/>
		<path id="Path 17" class="s17" d="m452 484l12-1 4 1v4l-3 10-9 10h-16l-8-1-3-13-3-2 6-8h2 8zm-114 8l20-2 16 2 2-2h6l15 3v5l-5 4-15 2-39-6zm176 0l7-2h11l22 2 12-1 18 3 9 7-1 5h10l2 12-1 2h-19l-13-4-23 2h-5l-3-4-13-1-1-5-4-1-8-11z"/>
		<path id="Path 18" class="s18" d="m482 335l2-1h4l2 16-6 2-10-2v-9zm38 69h6l4-4h6l1 12-1 8h-3l-2 10-6 7h-3-4zm426 24l10-13v-7h3 9l-2 17-1 4v2l-15 19-5 9-4 4-3 3-8 7-12 5v-7l17-20 2-10 7-6zm-2 179v-25l-4-3-4-15-14-12v-6h4l13 10 13 15 2 2 8 10 1 1 6 15-10 3-1 7zm-272-23l-10-8-1-12h3l12 6v2l-3 12zm-172 66v-9h2 4l-2 9zm-30 9l7-7 19 2v4l6 3-1 9h-1l-5 3-13-3-2-2z"/>
		<path id="Path 19" class="s19" d="m397 408l5-4 6 2 2 11-11-3zm-23 58l3-8 25-4h10v6 6l-12 2-11 1zm54-6l1-4 4 2zm-137 8v-10l16 2 9-2 8 4v8zm495 30l4-20h15l7 6h12v9l6 3v10l-4 6v10h-2-9l-5-6-12-2-7-2-2 4h-3v-12zm-749-12l6-4v3h3l4 7v6h-9z"/>
		<path id="Path 20" class="s20" d="m413 446l33 4 27-6 23 6 10-8h10 6l10 2 30 6 1 4-1 8-74 1-1-3-17-4-37 2-4-2-1 4h-16v-6zm205 13v-6l8 1v6zm26 1v-2l12 2v6h-10zm26 8v-4h5l17 2 11 2h1l1 1v4l-5 3-22 6-5-1zm-627 14l4-2-1 5h-3z"/>
		<path id="Path 21" class="s21" d="m433 374l4-2 1 2-8 10-11 12-7 4-3-5zm-31 80l2-10 9 2-1 8zm-288 34l2-8h7l3 6 1 4-5 1zm-64 4l9-4h11l6 6v8l-6 8-8 1-10-5-2-8zm728 8l5-2h3v6h-8zm48 22v-10l4-6h5l2 3-3 1 2 5-4 1 2 5-3 1z"/>
		<path id="Path 22" class="s22" d="m462 364v-4h6l4 2v8l-4 4h-5zm22 12l-5-1v-5h5zm450 36l8-2-2 18-11 13-8 18-27 24-2 9 3 2-6 9-4 2-1 14 8 11 12 5 4 3v8l13 12 5 14 8 11-1 8-3 2-8-1v-6-7l-8-5-3-16-12-4-6-8h-7l-2-4-8-2-4-6-2-36 9-11v-4l25-21 9-3v-6l6-4v-8l5-5v-6l9-9zm-808 107l3-2 2 3-1 4h-6zm217 26l4-5h9l6 5v7 4h-7l-11 8h-6v-9l5-4zm393 5l22-2h11l5 4v4h-8l-23-1-7-1zm-421 29l3-11h4 4l-2 7zm234 11l2-4h6l-1 9zm-124 18l-1-12h13l3 6-4 6zm168 18l3-4h10v6l-5 4-3-1zm-133 14l6-2v7l-6 6-3-1v-2l3-2z"/>
		<path id="Path 23" class="s23" d="m454 357l3-3 5 6v4h-8zm6 20l3-3h5v15l6 3v24h-4v-2-6l-9-6zm446 41l1-1h4l7 6v7l-5 13-7 3zm-776 88l2-2h8l2 4h6v4l-2 12-15-4-2-3zm142 12l24-1 6 3 1 5 5-4 4-1h8l2 4-2 12v7l-3 1h-3l-14-1-6 1h-18l-1-15-3-1zm65 8l4-6h5v6l-9 1zm531 20v-12h4l4 6 8 2 2 4h7l6 8 12 4 3 16 8 5v7h-8l-4-11-5-2-10-13h-5-5l-7-11zm-546 14l4-4 12-1v9l-12 4h-4zm-32 7l22-1v2l-2 6h-20zm143 56l5-3h5l-1 6-5 2-4-3z"/>
		<path id="Path 24" class="s24" d="m442 366l12-9v7 2l-10 3-2-1zm3 42l3-2h10v5l4 3v15l-12-3-4-5zm423 31l8-5h4l6 17-4 16-13 11v4l-8 9-8 5-3 10h-8l2-10 11-11 3-13 2-2 10-2 4-8-1-12zm-336 51v-8l20 2 2 8zm34-5l6-1 10 4 2 4v2l-18-3zm-363 20l1-6 4-1 3 1 3 3 6 5v19h-10l-1-1-1-15-5-4zm93 12l3-7h7v10h-4zm550 59v-14l17 2 4 13 5 3-1 6-7-2z"/>
		<path id="Path 25" class="s25" d="m830 456l16-7 6 9v14l-3 7-5 3v5l-5 3-4 16h-5v-10l-6-3v-9l10-14-1-12zm-49 14h8l8-7 9 1h4v8l-5 6h-15-6zm-537 3l1-5h6l5 4v6h-10zm554 51v-10l12 2 5 6h9l2 10-3 6-19-2v-5zm-10 0l-2-8h3l1 8zm-522 21l10-1h18v5l-28 5z"/>
		<path id="Path 26" class="s26" d="m419 396l11-12 4 4v10l5 4v4l6 2 1 13-14 1-12-4v-12l2-7zm-19 76l12-1 10 1v12l-32-2v-6zm-144 6v-6l7 1v5zm186 6v-9h4l6 3v6zm22-1v-4l14 3-10 2zm196 15v-8h6l12 2 3 2v6l-15-1zm94 4l-1-5 6-1 5-6 5 2 1 4 13 2-5 2-16 2-4-3zm-40-1v-7h8l2 6-2 2zm-601-4l4-1v2 8l-2 3h-2zm616 3l1-4h8l2 4-8 4zm97 32l8-4 5 2 1 4 4 26h-5l-6 6v4l-4-1-5-3v-6l-11-5-2-4h-7l-4-8 4-3 13 5 6-7zm-573 24l1-2h7l-3 5h-4z"/>
		<path id="Path 27" class="s27" d="m858 444l10-5 5 9 1 12-4 8-10 2 2-18zm-436 40v-12h11l2 3-1 9h-2zm413 22l4-16 5-3v-5l5-3 3-7h6l-3 13-11 11-2 10-5 3zm-313-26v-6h6v6zm50 4l1-4h16l7 8v4h-12l-2-4zm-445 6l-1-4h5v4zm64 8l7-1 5 8v1l-3 2v6l-6 2-4-4h-5v-3l-7-4 2-2 8-1zm642 72v-4l6-6h5l2 2v14h-1l-7-2z"/>
		<path id="Path 28" class="s28" d="m468 488l9-1 5-5h12l18 4 2 6v4l8 11 4 1 1 5-10 3-18-2-1-4h-6l-2 5-8 2-12-1-10-4h-4v-4l9-10zm-71 5l29-1 3 2 3 13-26 3-8-4-9 2-1 8h-16l-2-4-10-2h-5l-3 6h-5l-1 4h-5l-4-8h-7l-2 3-12-3v-4-10h22l39 6 15-2 5-4zm187 1v-2h12l4 2v4l-7 3z"/>
		<path id="Path 29" class="s29" d="m440 514l16-2h4v6l-30 10h-18l-3 4h-8l-3-4v-6h6 6l23-3zm-94 6l1-4h5l5 6-1 4h-10zm124-2v-2l12 1-4 3zm-139 11l-1-3h7v1zm-77 17l-1-18h13 6l3 1 1 15-10 1zm514-8v-8l8 2v6zm-550 16l2-5 3 1-3 4zm350 51l4-20 5-5h15l19 7 3 7-13-2-11 9v7 4h-5l-3 5-4-2zm346-5v-14h8v6 10zm-471 20l13-2 4 2 7 16-1 2-6 2h-7l-2 3-10-9-2-2-1-1-1-3 5-2z"/>
		<path id="Path 30" class="s30" d="m502 328l5-3h1 8l11 5 8 28-1 2h-10l-2-5-8-2-8-11zm-402 195l2-9h4v10zm64 7l2-4h8l2 12-2 2h-6zm33 34h9l3-4h3l8 2 10 6 1 9 9 3v10h-7l-5-2v-8l-10-4-4-10h-7l-4 4 3 14-10-2v-16zm309 6l1-6h11l4 18-8 2h-6zm-158 10l40-6h7l5 5v17h-2-60v-10h6z"/>
		<path id="Path 31" class="s31" d="m438 374l3-1 3 3v13l4 2v15l-3 2-6-2v-4l-5-4v-10l-4-4zm-315 106l5-5 7 1v10h-4-5zm311 4l1-9h7v9zm162 8v-4h21l7 4v4l-9 1-5 1h-8-2v-4zm248 68l-4-26h12l8 12v6l4 3-1 9-17-2zm-544-12h10l4-4h3l1 4v10l-6 2v6l-22 1-9-1-6 6h-6l-4-6-7-2v-5l3-5h5l28-5z"/>
		<path id="Path 32" class="s32" d="m468 429l2-13h4l10 12-2 4zm412 5l4-4 9 1 1 23-2 7-10 6 4-16zm-43 75l5-3h8l2 28h-12l-1-4-5-2-3-6 3-1-2-5 4-1-2-5zm-431 1l26-3 8 1v6l-7 5-23 3v-4l-4-2zm-165 12v-8l4-4h17l5 5-1 13h-13l-5-5zm111-6l3-6h5l10 2 2 4v6h-15zm-40 4l4-8 12 3 2-3h7l4 8-4 6h-7l-8-2-2-4zm-92 11l8-6 4 3-2 10-10 2z"/>
		<path id="Path 33" class="s33" d="m548 518l23-2 13 4h19l1 6-2 6h-4l-5-6h-18l-1 4h-14v-4l-9-2zm166 2l10 1v6h-10zm-86 6l2-1 32 3 6 8v4l-31 2-5-3zm-420 32l1-1h3v3h-3zm382 50v-7l11-9 13 2v14l-8 14h-10l-1-10-1-4z"/>
		<path id="Path 34" class="s34" d="m135 486v-10h9l10 1-4 21h-2-8l-4-4zm247 0l3-4h5l32 2h10l-6 8-29 1-15-3zm86-2l10-2h4l-5 5-9 1zm46 8l-2-6h7l2 4zm-232 4h22l4-4h6l2 6v10l-10 2h-7l-3 7-24 1-1-3h-4l-5-5v-7l8-7zm-128 16l12-2-1 7-3 3h-8l-1-8zm-38 8l7-4 3 3-2 5-15 4h-1v-4zm-28 1l2-4 6 7z"/>
		<path id="Path 35" class="s35" d="m412 400l7-4 3 3-2 7h-6l-2-3zm394 64l2-4h3v2l-1 2zm-482 6h22l1-4h27l15 3 1 7v6h-5l-3 4h-6-18l-3-4-33-2h-7l-1 4h-10l-3-6-32 1-2-6 3-3 21-2zm357 30v-6h15l2 7-4 5-6 1h-1v-4zm102 26l5-2h2 8l6 7v5 4l-4 3-12-1-3-3zm-530 30h-6l-1-5 3-5h5v8z"/>
		<path id="Path 36" class="s36" d="m454 366v-2h8l1 10-3 3-4-1zm4 40l3-4 9 6v6h-8l-4-3zm-230 119l1-10h4l5 8-6 5zm-22 19l4-18h10v5 9 9l-2 5-6 3h-3l1-11zm106 22v-6l6-2 4 2v8h-4-6zm590 29v-11l-5-3-1-7-6-5v-9h5l10 13 5 2 4 11v14zm-627-23l6-6 9 1v7 6h-11z"/>
		<path id="Path 37" class="s37" d="m444 369l10-3 2 10 4 1 1 25-3 4h-10v-15l-4-2v-13l-3-3zm75 117l3-6h6l4 2v8h-11zm35 6l-2-8 14 1v6zm-422 12v-10h4l4 4v6zm-24 7l5-2h2l-1 4-7 1zm46 9h8l3-3 1 9-2 4-7 1-3-3zm-56 5l2-2 6 1h2v4zm765 39l1-9-4-3v-6h8l10 3 7 11h5v9l6 5 1 7 5 3v11h-11l-9-3-11-6 1-6-5-3z"/>
		<path id="Path 38" class="s38" d="m923 413l11-1-1 9-9 9h-6v-7l-7-6 1-2h2l7-2zm-55 121l-4-2-4-9v-22l3-7 7-4 1-5 8-2v4l-9 11 2 36zm-751-28v-8h7l2 8-2 2zm-53 15l2-3h9v5l-8 1zm-20 15v-9l8 1 6 3v5l-4 6-6-2zm736 21l8-15 12 1 4 8v6l-3 3h-13zm-356 55l1-4h11l2 12-5 3-4-3-1-1z"/>
		<path id="Path 39" class="s39" d="m113 491l1-3 8 3v1l-5 2zm275 25l1-8 9-2 8 4v6l-2 6h-6l-3-5zm-82-6l10-2v4l-4 8-4 1-2-1zm134 4v-6h16v4zm50 1l2-5h6l1 4z"/>
		<path id="Path 40" class="s40" d="m437 372l5-4 2 1-3 4-3 1zm-174 106v-5h4l2 6-1 3zm-50 1l2-3h11v6l-4 4h-8zm-82 11v-4h4l1 8h-4zm-55 12v-8l9 1v5l-1 2zm104 1l2-9h8l1 4-3 4zm646 29l-2-10h2 5l3 6z"/>
		<path id="Path 41" class="s41" d="m942 410l14-2v7l-10 13h-6zm-825 84l5-2 2 6h-7v-2zm-33 8l1-2 8 2 3 5 6 5v2l-2 9-2 2-2-1-6-7-5-6zm82 8l5-5h7l7 4v3l-1 9-4 1h-5l-1 4h-8l-1-9zm-51-1l2-3 7 2-1 8-7 4-2-7zm79 7l6-2v-6l3-2 5 4 1 15-15 3-1-7zm-132 8l2-3 3 3v5l-5-1zm217 56h-9l-1-8h6zm263 5l6-5 3 6-2 4-4-2zm-127 14l3-3h6l1 12-1 4-5-5z"/>
		<path id="Path 42" class="s42" d="m226 476l18-3 2 5-20 4zm88 8l1-4h7l33 2 3 4v4l-20 2-19-2zm62 6v-4h6v4zm-345 17l17 3 4-4 10 5v3l-4 1v9h-4l-2 4-8-1-8-4-5-4-1-7zm93 1l2-2h4l-1 11-3 2-3-3z"/>
		<path id="Path 43" class="s43" d="m408 396l1-1 3 5v3l-4 3-6-2zm228 64v-4h4 1l3 2v2zm-444 20l1-4h7l2-6h4l2 9v9l-3 2-4-4h-5zm24 17v-3h4v3l-4 1zm506 5l2-2h5l3 4v8l-1 1-9-7zm54 22l2-20h8v12l2 8-5 2zm-91-16l2-1h1l-1 3z"/>
		<path id="Path 44" class="s44" d="m226 482l20-4h10 7l5 4 2 14-8 7v7h-17l-4 4v8l-3 1-5-8h-4l-1 10-8 6v-5-19l-6-5 2-4 4-1v-3h-4l-4-5 2-3h8zm389 15l9-1 18 3 2 17 3 2-6 5-11-3h-10l-4-1-2-17zm37 22v-14l4-2 4 1v14zm-550-7l6-1-1 3h-1-4z"/>
		<path id="Path 45" class="s45" d="m269 479l32-1 3 6-20 4-2 8h-12l-2-14zm387 24v-5h4l6 1v5h-6zm75 10l1-1 6 1v5l-1 2-6-2zm-414 31l3-1 15 2-5 3h-12z"/>
		<path id="Path 46" class="s46" d="m876 429l5-4h3v5l-4 4h-4zm-730 95l2-12h5l1 8v8l-8 2zm314-6v-6l10 4v2zm-402 13l4-3 5 1 4 9h-7l-6-2zm746 26v-6h7l2 4-2 3z"/>
		<path id="Path 47" class="s47" d="m154 477l6-3h14l8 6h10l4 6h5l4 4 3 8-4 1-1 6-5-8-7 1-1-4h-8l-2 9-2 2h-7l-5 5-12 2v-12l-4-2zm54 11v-9h5l1 7-2 3zm458 11l15 1 6 3v4l-2 1-19-4zm88 3l4-3 4 3 16-2v4l-2 20h-6l-6-5-12 4-3-4 3-13zm-48 4l4-5h4l8 1v4l9 7v5l-7 3-10-1-10-2z"/>
		<path id="Path 48" class="s48" d="m75 518l5-3 5 6h-4l-2 4-4-2zm528 2l1-2 12 1 4 1v6h-16zm27 0l11 3 6-5 5 1 8-1 8 4 21-4 11 3 4-3 10 2v7l-15 4-20-3-4 8h-7l-6-8-32-3zm-450 2l4-1 2 1v6h-5zm410 90v-4h4l1 4z"/>
		<path id="Path 49" class="s49" d="m452 484v-6l12 1v4zm-268 37l1-9h5l4 4-1 5-7 1zm-126 3v-9l4-1 4 4-2 3-2 3zm666-3l7-3 6 2 1-2 11 1 3 4 12-4 6 5h6l7 2 2 13-9-1v-6l-8-2h-10l-10-2-2 3h-6l-3-5-13 1zm-104 5v-6h10v5l-2 1zm-302 22h12l5-3h8v6l-5 4-12 1-4 4-4-2z"/>
		<path id="Path 50" class="s50" d="m282 496l2-8 20-4h10l5 6 19 2v6h-22l-2-6h-6l-4 4zm76-6v-4h18v4l-2 2zm-210 18v-10h2l4 2v12h-1-5zm454-2v-8h8v4h4l2 17-12-1z"/>
		<path id="Path 51" class="s51" d="m610 498l5-1-1 5h-4zm-399 1l5-2v1l-2 4zm382 2l7-3h2v8h-10zm49-2l14-1v5l-4 2v14l-5-1-3-2zm90 5l8-4 12 6-3 13-11-1v-5l-6-1zm-44 3l6-1 4-5 8 5-2 12-4 3-11-3-21 4-8-4v-14h6l19 4 2 2z"/>
		<path id="Path 52" class="s52" d="m532 444v-5h4l34 5 27 4 3 2-4 4h-33l-1-4zm-418 10l36-10v13l-6 6v5h-16l-8-6h-6zm46 20v-10l11-2 3 12z"/>
		<path id="Path 54" class="s53" d="m408 406l4-3 2 3h6v12h-6l-4-1zm381 110l2-4 7 2v10h-8zm15 24v-4l19 2-6 7zm-510 4l6-1v5l-6 1z"/>
		<path id="Path 55" class="s54" d="m206 584l-3-14 4-4h7l4 10 10 4v8z"/>
		<path id="Path 56" class="s55" d="m848 441l18-10 10-2v5l-8 5-10 5-9 2zm-67 21l11-2 5 2v1l-8 7h-8l-10-2 3-4h1zm23 95l7 1 2-3 11 5v6h-1l-13-1-9-5z"/>
		<path id="Path 57" class="s56" d="m85 495l1-5 8 2-1 10-8-2zm-33 33l2-4h4 4v4l-4 3z"/>
		<path id="Path 59" class="s57" d="m457 354l7-6 4 4v8h-6z"/>
		<path id="Path 60" class="s58" d="m534 360l1-2h1v11h-1zm418 211l-13-15h1l12 14zm-279 13l3-12 1 3-3 9zm-366 12v-2h11v1l-1 1h-1zm584-1h11l12 5 8 2 6 2 5 2-1 1-28-5-13-6zm-226 16l1-7h2l-1 6zm-159 30l2-1v1l-3 14h-1v-5zm137 16v-1l3 2z"/>
		<path id="Path 61" fill-rule="evenodd" class="s59" d="m484 334l12-7 11-2-5 3-14 6zm466 116l15-19-8 16-7 5zm-32 28l12-5v1l-19 12-7 2zm-831 80v-1l33 10 18 4-1 1-19-3zm586 2l16-2v1l-16 2zm-167 33l-3-9h11l-8 2 2 6 4 2v7h-2v-5zm165-2l1-7h2l-1 7zm298 8l-6-15 10 17v6l-4 2 3-3zm-652-3l1-1 20 1h60l-6 2-75-1zm615 11l1-1h2v2zm-328 28l-6-4 3 1zm18 12l-13-8h1l10 5 2 2z"/>
		<path id="Path 62" class="s60" d="m28 492l9-6 4 12h9l2 8-4 4-17-3-3-12zm34 19l8-1 6-8h8l1 9 5 6-2 4h-3l-5-6-5 3h-9l-4-4z"/>
		<path id="Path 63" class="s61" d="m535 358l-8-28h1l6 13 2 15zm1 38l-1-27h1l3 13-1 16h-2zm-11 41l6-7 2-10h3l-6 15 6 3v1h-4zm420 22l5-9v2l-4 7zm-224 97l15-2 7 1-5 2h-17zm-30 1l11-1v2l-13 1v-1zm-35 7v-3l8-1v4h-3zm-111 26v-2l4 2 7 5 12 10 10 10h-1zm121 14l5-13h2l-5 13zm-372-8v-2h13v2zm216 27v-22h2l-1 22zm425-15v-2l4 1v1zm-482 39v-1l4 2v2h-1zm169 0v-1l18 8 3 2v1z"/>
		<path id="Path 64" class="s62" d="m939 556l-13-10 8 2 6 8zm-457 114l13 3 5-3-3 4h-10z"/>
		<path id="Path 66" class="s63" d="m37 533l-1-10 8 4v9l-6-3zm885 13l-10-8 8 2 6 6z"/>
		<path id="Path 68" class="s64" d="m522 442v-5h3l7 2v5z"/>
		<path id="Path 69" class="s65" d="m792 460l7-2-2 4zm-26 6l8-2-3 4h-5zm57 102v-2h1l5 3-1 1z"/>
		<path id="Path 70" class="s66" d="m442 365l7-9 15-10h1l-1 2-7 6-3 3-12 9zm401 77l24-13 14-4-5 4-10 2-18 10zm-15 128l1-1 4 1 5 4h-1zm36 15v-1l7 2 11 6h-1z"/>
		<path id="Path 71" class="s67" d="m96 507v-9l4-4h9l4 3v12l-5 2-6 1z"/>
		<path id="Path 72" class="s68" d="m281 418l11-1v1l-11 1zm-20 3l9-2-1 2zm-61 10l16-3v1l-9 2-7 1zm-43 11l14-4v1zm458 9l25 5h-4l-10-2-8-1zm29 7l-3-2 19 4h-4zm31 6v-2l17 4zm28 4v-1l3 1h-2z"/>
		<path id="Path 73" class="s69" d="m395 408l13-12-6 8-5 4zm-36 7v-1l19 1-16 1zm-50 1l12-1v1l-12 2zm-39 3l11-1v1l-9 2h-3z"/>
		<path id="Path 74" fill-rule="evenodd" class="s70" d="m352 415l7-1v1zm-31 1v-1h7zm-29 1l17-1v2h-17zm-76 11l29-5-2 2-27 4zm-45 10l29-7v1l-29 7zm493 23l11 1v2h-5zm39 7l-11-2 11 1z"/>
		<path id="Path 75" class="s71" d="m843 442l5-1 1 5-3 3-16 7h-9l4-6zm-46 20l2-4h1 6l2 2-2 4-9-1zm-772 36l3-3 3 12-1 5-3-2-2-3z"/>
		<path id="Path 76" class="s72" d="m536 439v-1l13 1 21 5zm64 11l-3-2 12 2z"/>
		<path id="Path 77" class="s73" d="m923 413l22-6h14v1h-3l-14 2-8 2zm-16 4l5-2-1 2zm-13 4l13-4-1 1zm-13 4l10-4-7 4zm-837 115l-6-7 6 3 4 4zm722 18v-2h8l2 1-1 2zm-325 77v-1l10 9 2 3v1z"/>
		<path id="Path 78" fill-rule="evenodd" class="s74" d="m800 458l6-2v2zm-775 40l2-6h1v3zm6 21l-4-9 3 2zm6 14l-5-5-1-9 5 4zm773 33v-1l13 1v2zm35 12l-8-4h1l7 2zm46 18l-10-4h1l9 3z"/>
		<path id="Path 79" class="s75" d="m154 575v-1l24 4 3 1-5 1zm113 19l1-3 13 3zm157 22l-5-9 5 5 4 7z"/>
		<path id="Path 80" class="s76" d="m806 456l19-6-4 6-10 4h-3l-2-2zm39 122v-2h1l18 8v1z"/>
		<path id="Path 81" fill-rule="evenodd" class="s77" d="m904 535v-1l4 4zm-116 27v-2h13l9 5v1zm-355 63l-4-5 4 3zm5 6l-5-6 4 3zm3 4l-2-3 2 2z"/>
		<path id="Path 82" class="s78" d="m205 490l3-2 4 1 4 5v3l-5 2-3-1z"/>
		<path id="Path 83" class="s79" d="m757 468l9-2v2h-8zm-40 2v-2l16 2 18-2v2z"/>
		<path id="Path 84" class="s80" d="m433 374l9-9v1 2l-5 4zm-369 96v-2h6zm641-1l-1-1h2 11v2zm46 1v-2h6 1zm-724 22l8-9 19-8-7 5-4 2-6 4-9 6z"/>
		<path id="Path 85" class="s81" d="m58 472l6-4v2 2z"/>
	</g>
</svg>