<svg version="1.2" xmlns="http://www.w3.org/2000/svg" viewBox="0 0 1000 1000" width="1000" height="1000">
	<title>Hypentelium_nigricans</title>
	<style>
		.s0 { fill: #aab3b8 } 
		.s1 { fill: #5073af } 
		.s2 { fill: #0b2e49 } 
		.s3 { fill: #213845 } 
		.s4 { fill: #46689b } 
		.s5 { fill: #14446c } 
		.s6 { fill: #0a3764 } 
		.s7 { fill: #cad2ea } 
		.s8 { fill: #506671 } 
		.s9 { fill: #36403c } 
		.s10 { fill: #7688ba } 
		.s11 { fill: #355376 } 
		.s12 { fill: #94add2 } 
		.s13 { fill: #254866 } 
		.s14 { fill: #8598cf } 
		.s15 { fill: #6879af } 
		.s16 { fill: #576e85 } 
		.s17 { fill: #83a5ba } 
		.s18 { fill: #243232 } 
		.s19 { fill: #2e4651 } 
		.s20 { fill: #082434 } 
		.s21 { fill: #605f6b } 
		.s22 { fill: #80a5ec } 
		.s23 { fill: #57719a } 
		.s24 { fill: #b8c9d8 } 
		.s25 { fill: #92b5f0 } 
		.s26 { fill: #83765d } 
		.s27 { fill: #98c2fc } 
		.s28 { fill: #466686 } 
		.s29 { fill: #8e8677 } 
		.s30 { fill: #5279c8 } 
		.s31 { fill: #465253 } 
		.s32 { fill: #94a8b6 } 
		.s33 { fill: #354e62 } 
		.s34 { fill: #abc7ea } 
		.s35 { fill: #afbbe9 } 
		.s36 { fill: #6888be } 
		.s37 { fill: #6a7071 } 
		.s38 { fill: #4a4b3b } 
		.s39 { fill: #605948 } 
		.s40 { fill: #77817a } 
		.s41 { fill: #aacbfc } 
		.s42 { fill: #6f6750 } 
		.s43 { fill: #acb8d0 } 
		.s44 { fill: #6f8cd1 } 
		.s45 { fill: #3d3c2e } 
		.s46 { fill: #8a9092 } 
		.s47 { fill: #798ea7 } 
		.s48 { fill: #817e8a } 
		.s49 { fill: #55615b } 
		.s50 { fill: #bacaeb } 
		.s51 { fill: #8a98af } 
		.s52 { fill: #bad0fb } 
		.s53 { fill: #718794 } 
		.s54 { fill: #c8d2fa } 
		.s55 { fill: #a49fac } 
		.s56 { fill: #cbd2d8 } 
		.s57 { fill: #dadbe9 } 
		.s58 { fill: #d4e4f9 } 
		.s59 { fill: #9ec0db } 
		.s60 { fill: #193d58 } 
		.s61 { fill: #9ea199 } 
		.s62 { fill: #69788e } 
		.s63 { fill: #c1bfd3 } 
		.s64 { fill: #47586a } 
		.s65 { fill: #e7eef6 } 
		.s66 { fill: #bbd7ea } 
		.s67 { fill: #102221 } 
		.s68 { fill: #bbc1ba } 
		.s69 { fill: #dde1d7 } 
		.s70 { fill: #cbccbf } 
		.s71 { fill: #234e79 } 
		.s72 { fill: #3468b2 } 
		.s73 { fill: #415a85 } 
		.s74 { fill: #7897bc } 
		.s75 { fill: #7da3d4 } 
		.s76 { fill: #487392 } 
		.s77 { fill: #6887a9 } 
		.s78 { fill: #6f96e6 } 
		.s79 { fill: #366292 } 
		.s80 { fill: #5985d2 } 
		.s81 { fill: #597fb1 } 
		.s82 { fill: #638799 } 
		.s83 { fill: #5199f5 } 
		.s84 { fill: #3e81e3 } 
		.s85 { fill: #2759a4 } 
	</style>
	<g id="Background">
		<path id="Path 0" class="s0" d="m335 659.3l10-6.7-10 8.3z"/>
		<path id="Path 1" class="s1" d="m335 660.9l-25 1.7-10-11.7h10l8.3 8.4 13.4-1.7 3.3 1.7z"/>
		<path id="Path 2" class="s0" d="m345 647.6l1.7-1.7-1.7 6.7z"/>
		<path id="Path 3" class="s2" d="m331.7 657.6l-8.4-13.3v-10h10l11.7 13.3v5l-10 6.7z"/>
		<path id="Path 4" class="s3" d="m333.3 634.3v-6.7h13.4l3.3 6.7-1.7 5-1.6 6.6-1.7 1.7z"/>
		<path id="Path 5" class="s4" d="m300 650.9l-10-23.3 10 3.3 10 10v10z"/>
		<path id="Path 6" class="s5" d="m300 630.9l1.7-10h21.6v13.4 10l8.4 13.3-13.4 1.7-8.3-8.4v-10z"/>
		<path id="Path 7" class="s6" d="m323.3 620.9l5-1.7 5 8.4v6.7h-10z"/>
		<path id="Path 8" class="s7" d="m363.3 619.2l3.4-1.6-10 8.3z"/>
		<path id="Path 9" class="s8" d="m346.7 627.6l1.6-11.7h6.7l8.3 1.7v1.6l-6.6 6.7-6.7 8.4z"/>
		<path id="Path 10" class="s9" d="m355 615.9v-10l8.3 3.3v8.4z"/>
		<path id="Path 11" class="s10" d="m363.3 609.2l3.4-5h6.6l-6.6 13.4-3.4 1.6v-1.6z"/>
		<path id="Path 12" class="s11" d="m281.7 605.9v-1.7h13.3l6.7 16.7-1.7 10-10-3.3-1.7-5-1.6-1.7-3.4-10z"/>
		<path id="Path 13" class="s4" d="m286.7 620.9h1.6v1.7h-1.6z"/>
		<path id="Path 14" class="s12" d="m281.7 605.9l-1.7-6.7 1.7 5z"/>
		<path id="Path 15" class="s13" d="m298.3 594.2l5-1.6 11.7 15 13.3 6.6v5l-5 1.7h-21.6l-6.7-16.7z"/>
		<path id="Path 16" class="s14" d="m840 592.6v-1.7h11.7z"/>
		<path id="Path 17" class="s15" d="m366.7 604.2v-13.3h10l1.6 3.3-5 10z"/>
		<path id="Path 18" class="s12" d="m840 592.6l-8.3-5 8.3 3.3z"/>
		<path id="Path 19" class="s16" d="m338.3 590.9l3.4-6.7 18.3-1.6 6.7 8.3v13.3l-3.4 5-8.3-3.3z"/>
		<path id="Path 20" class="s17" d="m826.7 584.2l-5-3.3h3.3z"/>
		<path id="Path 21" class="s12" d="m376.7 572.5l5-1.6 3.3 3.3-6.7 20-1.6-3.3z"/>
		<path id="Path 22" class="s18" d="m295 575.9l3.3-5h13.4l8.3 6.7 8.3 11.6 10 1.7 16.7 15v10h-6.7l-1.6 11.7h-13.4l-5-8.4v-5l-13.3-6.6-11.7-15z"/>
		<path id="Path 23" class="s19" d="m276.7 579.2v-8.3h6.6l15 23.3-3.3 10h-13.3l-1.7-5v-1.6l-1.7-6.7v-1.7l-1.6-6.6z"/>
		<path id="Path 24" class="s7" d="m238.3 569.2l11.7-1.7 11.7 1.7z"/>
		<path id="Path 25" class="s20" d="m861.7 584.2h-10l-8.4-8.3 1.7-11.7h15l1.7 6.7v1.6 8.4z"/>
		<path id="Path 26" class="s16" d="m555 564.2l-3.3 3.3-23.4-3.3h18.4z"/>
		<path id="Path 27" class="s21" d="m360 582.6v-18.4l16.7 8.3v18.4h-10z"/>
		<path id="Path 28" class="s16" d="m140 570.9v-10h3.3l3.4 10z"/>
		<path id="Path 29" class="s22" d="m743.3 594.2l-16.6-21.7v-13.3h1.6l13.4 21.7z"/>
		<path id="Path 30" class="s23" d="m860 564.2v-6.7l1.7 13.4z"/>
		<path id="Path 31" class="s24" d="m576.7 559.2v-1.7h13.3l3.3 1.7z"/>
		<path id="Path 32" class="s25" d="m390 570.9v-13.4l30 1.7v8.3z"/>
		<path id="Path 33" class="s26" d="m283.3 570.9v-13.4l11.7 18.4 8.3 16.7-5 1.6z"/>
		<path id="Path 34" class="s15" d="m166.7 557.5l18.3-1.6h11.7l1.6 5h18.4 11.6l1.7 8.3-75 1.7v-6.7z"/>
		<path id="Path 35" class="s27" d="m420 559.2l3.3-5h16.7l3.3 10-23.3 3.3z"/>
		<path id="Path 36" class="s14" d="m253.3 559.2l28.4-5 1.6 3.3v13.4h-6.6v8.3l-3.4-10h-11.6l-11.7-1.7z"/>
		<path id="Path 37" class="s28" d="m125 555.9l8.3-1.7 6.7 6.7v10h-11.7l-5-5z"/>
		<path id="Path 38" class="s29" d="m360 564.2l3.3-11.7 10 1.7 6.7 5 1.7 11.7-5 1.6z"/>
		<path id="Path 39" class="s30" d="m110 554.2l1.7-1.7 13.3 3.4-1.7 10-13.3-6.7z"/>
		<path id="Path 40" class="s19" d="m546.7 564.2v-13.3h3.3l11.7 5-3.4 6.6-3.3 1.7z"/>
		<path id="Path 41" class="s10" d="m196.7 555.9l6.6-5 13.4 1.6v8.4h-18.4z"/>
		<path id="Path 42" class="s31" d="m320 577.6l16.7-10.1v-18.3h5l21.6 3.3-3.3 11.7v18.4l-18.3 1.6-3.4 6.7-10-1.7z"/>
		<path id="Path 43" class="s16" d="m228.3 560.9h5l6.7-11.7 10 1.7 3.3 8.3-3.3 8.3-11.7 1.7h-8.3z"/>
		<path id="Path 44" class="s32" d="m550 550.9v-3.4l26.7 8.4v1.6 1.7l-18.4 3.3 3.4-6.6z"/>
		<path id="Path 45" class="s23" d="m133.3 554.2v-6.7h6.7l3.3 13.4h-3.3z"/>
		<path id="Path 46" class="s14" d="m110 559.2l-10-3.3-5-8.4 15 6.7z"/>
		<path id="Path 47" class="s33" d="m506.7 547.5l16.6-1.6 5 18.3-28.3-10z"/>
		<path id="Path 48" class="s34" d="m726.7 559.2l-8.4-15 10 15z"/>
		<path id="Path 49" class="s3" d="m523.3 545.9l3.4-1.7h8.3l11.7 6.7v13.3h-18.4z"/>
		<path id="Path 50" class="s25" d="m470 545.9l13.3-1.7h6.7v8.3l-20 5z"/>
		<path id="Path 51" class="s35" d="m373.3 554.2v-10h10l6.7 13.3v13.4l-5 3.3-3.3-3.3-1.7-11.7z"/>
		<path id="Path 52" class="s25" d="m363.3 552.5l3.4-8.3h6.6v10z"/>
		<path id="Path 53" class="s36" d="m216.7 552.5l11.6-8.3h11.7v5l-6.7 11.7h-5-11.6z"/>
		<path id="Path 54" class="s37" d="m576.7 555.9v-15h3.3l10 10v6.6h-13.3z"/>
		<path id="Path 55" class="s0" d="m535 544.2v-3.3h3.3l11.7 6.6v3.4h-3.3z"/>
		<path id="Path 56" class="s38" d="m281.7 542.5l1.6-1.6h10l16.7 3.3 13.3 3.3 10 1.7h3.4v18.3l-16.7 10.1-8.3-6.7h-13.4l-3.3 5-11.7-18.4-1.6-3.3z"/>
		<path id="Path 57" class="s39" d="m203.3 550.9v-10h10 15v3.3l-11.6 8.3z"/>
		<path id="Path 58" class="s12" d="m490 544.2l3.3-5h11.7l1.7 8.3-6.7 6.7-10-1.7z"/>
		<path id="Path 59" class="s40" d="m140 547.5l5-8.3 13.3 1.7 8.4 16.6-11.7 6.7v6.7h-8.3l-3.4-10z"/>
		<path id="Path 60" class="s13" d="m95 547.5l5-8.3h6.7l5 13.3-1.7 1.7z"/>
		<path id="Path 61" class="s25" d="m95 547.5l-1.7-8.3h6.7z"/>
		<path id="Path 62" class="s41" d="m656.7 545.9l-1.7-8.4h8.3 6.7l3.3 13.4 31.7 46.7z"/>
		<path id="Path 63" class="s14" d="m505 539.2h21.7v5l-3.4 1.7-16.6 1.6z"/>
		<path id="Path 64" class="s41" d="m333.3 549.2v-11.7h3.4l5 11.7h-5z"/>
		<path id="Path 65" class="s27" d="m323.3 547.5v-10h10v11.7z"/>
		<path id="Path 66" class="s8" d="m283.3 540.9v-3.4l10 3.4z"/>
		<path id="Path 67" class="s42" d="m158.3 540.9l8.4-3.4h13.3l5 18.4-18.3 1.6z"/>
		<path id="Path 68" class="s43" d="m526.7 539.2v-3.3l8.3 5v3.3h-8.3z"/>
		<path id="Path 69" class="s44" d="m773.3 540.9l1.7-6.7h5l3.3 6.7-3.3 6.6z"/>
		<path id="Path 70" class="s10" d="m646.7 540.9v-6.7l8.3 3.3 1.7 8.4z"/>
		<path id="Path 71" class="s12" d="m273.3 535.9l10-1.7v3.3 3.4l-1.6 1.6h-8.4z"/>
		<path id="Path 72" class="s37" d="m228.3 540.9l10-6.7h3.4l3.3 3.3-5 6.7h-11.7z"/>
		<path id="Path 73" class="s45" d="m203.3 540.9v-8.4h5 5v8.4z"/>
		<path id="Path 74" class="s44" d="m673.3 535.9l18.4 1.6 8.3-6.6h5l13.3 13.3 8.4 15v13.3l16.6 21.7v8.4l-6.6 5h-20l-11.7-10-31.7-46.7-3.3-13.4z"/>
		<path id="Path 75" class="s46" d="m580 540.9v-10h6.7l5 1.6 11.6 10 1.7 15-11.7 1.7-3.3-1.7v-6.6z"/>
		<path id="Path 76" class="s47" d="m255 534.2l11.7-3.3 6.6 5v6.6h8.4v11.7l-28.4 5-3.3-8.3-10-1.7v-5l5-6.7z"/>
		<path id="Path 77" class="s48" d="m576.7 540.9l-5-1.7v-10l8.3 1.7v10z"/>
		<path id="Path 78" class="s49" d="m525 530.9l15-1.7-1.7 11.7h-3.3l-8.3-5z"/>
		<path id="Path 79" class="s21" d="m540 529.2l10-1.7h13.3l8.4 1.7v10l5 1.7v15l-26.7-8.4-11.7-6.6z"/>
		<path id="Path 80" class="s18" d="m213.3 532.5l21.7-5 3.3 6.7-10 6.7h-15z"/>
		<path id="Path 81" class="s26" d="m180 537.5v-10h10l13.3 5v8.4 10l-6.6 5h-11.7z"/>
		<path id="Path 82" class="s39" d="m166.7 537.5l1.6-10h11.7v10z"/>
		<path id="Path 83" class="s20" d="m108.3 530.9l3.4-3.4 21.6 20v6.7l-8.3 1.7-13.3-3.4-5-13.3z"/>
		<path id="Path 84" class="s4" d="m780 527.5l6.7-1.6 6.6 1.6 1.7 30 30 23.4h-3.3l-41.7-33.4 3.3-6.6-3.3-6.7z"/>
		<path id="Path 85" class="s50" d="m403.3 530.9h16.7l5-5h6.7l1.6 10 23.4 1.6 13.3 8.4v11.6l-26.7 6.7-3.3-10h-16.7l-3.3 5-30-1.7-6.7-13.3 5-11.7z"/>
		<path id="Path 86" class="s37" d="m775 534.2l-3.3-10h6.6l1.7 3.3v6.7z"/>
		<path id="Path 87" class="s10" d="m746.7 527.5l20-3.3h3.3 1.7l3.3 10-1.7 6.7-26.6-10z"/>
		<path id="Path 88" class="s10" d="m733.3 524.2v5h-5v-5z"/>
		<path id="Path 89" class="s7" d="m366.7 529.2l6.6-5h13.4l1.6 8.3-5 11.7h-10-6.6z"/>
		<path id="Path 90" class="s42" d="m241.7 534.2l8.3-10h6.7l-1.7 10-10 3.3z"/>
		<path id="Path 91" class="s9" d="m145 539.2v-8.3l6.7-6.7h15l1.6 3.3-1.6 10-8.4 3.4z"/>
		<path id="Path 92" class="s44" d="m283.3 534.2l10-11.7 10 1.7v13.3l6.7 6.7-16.7-3.3-10-3.4z"/>
		<path id="Path 93" class="s17" d="m778.3 524.2l1.7-3.4h6.7v5.1l-6.7 1.6z"/>
		<path id="Path 94" class="s14" d="m733.3 524.2l3.4-3.4h8.3l1.7 6.7v3.4l-13.4-1.7z"/>
		<path id="Path 95" class="s51" d="m700 530.9l-1.7-10.1h3.4 11.6l10 1.7 5 1.7v5l-23.3 1.7z"/>
		<path id="Path 96" class="s50" d="m598.3 524.2l41.7-3.4v10.1l6.7 3.3v6.7l-43.4 1.6-11.6-10z"/>
		<path id="Path 97" class="s12" d="m550 524.2l10-3.4 3.3 6.7h-13.3z"/>
		<path id="Path 98" class="s52" d="m341.7 524.2l8.3-3.4 16.7 8.4v15l-3.4 8.3-21.6-3.3-5-11.7 1.6-13.3z"/>
		<path id="Path 99" class="s35" d="m323.3 520.8l10-1.6 5 5-1.6 13.3h-3.4-10z"/>
		<path id="Path 100" class="s40" d="m180 527.5l6.7-8.3 3.3 8.3z"/>
		<path id="Path 101" class="s0" d="m770 524.2v-6.7l10 3.3-1.7 3.4h-6.6z"/>
		<path id="Path 102" class="s53" d="m766.7 524.2l-6.7-6.7h10v6.7z"/>
		<path id="Path 103" class="s50" d="m663.3 537.5v-20h3.4l6.6 3.3v15.1l-3.3 1.6z"/>
		<path id="Path 104" class="s54" d="m640 520.8l13.3-3.3h10v20h-8.3l-8.3-3.3-6.7-3.3z"/>
		<path id="Path 105" class="s25" d="m531.7 522.5l11.6-5 6.7 6.7v3.3l-10 1.7-15 1.7v-5z"/>
		<path id="Path 106" class="s7" d="m431.7 525.9l10-8.4h8.3l28.3 3.3 5 23.4-13.3 1.7-13.3-8.4-23.4-1.6z"/>
		<path id="Path 107" class="s25" d="m303.3 524.2l13.4-6.7 6.6 3.3v16.7 10l-13.3-3.3-6.7-6.7z"/>
		<path id="Path 108" class="s8" d="m108.3 530.9l5-13.4v3.3l-1.6 6.7z"/>
		<path id="Path 109" class="s35" d="m745 520.8l5-6.6h6.7l3.3 3.3 6.7 6.7-20 3.3z"/>
		<path id="Path 110" class="s55" d="m698.3 520.8v-6.6l3.4 6.6z"/>
		<path id="Path 111" class="s55" d="m265 515.8l3.3-1.6h3.4l-5 16.7-11.7 3.3 1.7-10z"/>
		<path id="Path 112" class="s12" d="m341.7 524.2v-11.7h5l3.3 8.3z"/>
		<path id="Path 113" class="s16" d="m291.7 519.2l5-6.7h8.3 6.7l5 1.7v3.3l-13.4 6.7-10-1.7z"/>
		<path id="Path 114" class="s56" d="m723.3 522.5l3.4-11.7h10v10l-3.4 3.4h-5z"/>
		<path id="Path 115" class="s57" d="m586.7 530.9v-20.1h10l1.6 13.4-6.6 8.3z"/>
		<path id="Path 116" class="s58" d="m736.7 510.8l5-1.6 8.3 5-5 6.6h-8.3z"/>
		<path id="Path 117" class="s56" d="m508.3 510.8l5-1.6 3.4 1.6v6.7h-8.4z"/>
		<path id="Path 118" class="s0" d="m508.3 517.5h-8.3l-1.7-8.3 10 1.6z"/>
		<path id="Path 119" class="s34" d="m288.3 510.8l8.4 1.7-5 6.7z"/>
		<path id="Path 120" class="s20" d="m803.3 520.8l1.7-13.3h15v11.7z"/>
		<path id="Path 121" class="s7" d="m516.7 510.8l10-3.3 5 15-6.7 3.4-8.3-8.4z"/>
		<path id="Path 122" class="s24" d="m305 512.5v-5l6.7 5z"/>
		<path id="Path 123" class="s8" d="m271.7 514.2l1.6-5 8.4 3.3 1.6-5 5 3.3 3.4 8.4 1.6 3.3-10 11.7-10 1.7-6.6-5z"/>
		<path id="Path 124" class="s59" d="m340 507.5l5-1.7 1.7 6.7h-5z"/>
		<path id="Path 125" class="s3" d="m820 507.5l10-3.3 3.3 13.3-5 6.7-8.3-5z"/>
		<path id="Path 126" class="s7" d="m713.3 520.8v-16.6h6.7l5 3.3 1.7 3.3-3.4 11.7z"/>
		<path id="Path 127" class="s54" d="m696.7 507.5l5-3.3h11.6v16.6h-11.6l-3.4-6.6z"/>
		<path id="Path 128" class="s57" d="m391.7 505.8l8.3-1.6 3.3 26.7-15 1.6-1.6-8.3 5-5z"/>
		<path id="Path 129" class="s47" d="m316.7 514.2l1.6-10 6.7 3.3h15l1.7 5v11.7h-3.4l-5-5-10 1.6-6.6-3.3z"/>
		<path id="Path 130" class="s60" d="m210 510.8l6.7-6.6h16.6 6.7l10 20-8.3 10h-3.4l-3.3-6.7-21.7 5h-5z"/>
		<path id="Path 131" class="s37" d="m186.7 519.2v-10l6.6-5 16.7 6.6-1.7 21.7h-5l-13.3-5z"/>
		<path id="Path 132" class="s24" d="m666.7 517.5l1.6-15 15 5h13.4l1.6 6.7v6.6l1.7 10.1-8.3 6.6-18.4-1.6v-15.1z"/>
		<path id="Path 133" class="s50" d="m480 507.5l5-5 8.3 3.3 5 3.4 1.7 8.3h8.3 8.4l8.3 8.4v5l1.7 5v3.3h-21.7-11.7l-3.3 5h-6.7l-5-23.4z"/>
		<path id="Path 134" class="s8" d="m741.7 509.2l-1.7-8.4h10l6.7 13.4h-6.7z"/>
		<path id="Path 135" class="s61" d="m725 507.5h8.3l1.7-6.7h5l1.7 8.4-5 1.6h-10z"/>
		<path id="Path 136" class="s58" d="m373.3 509.2l6.7-8.4 11.7 5v13.4l-5 5h-13.4z"/>
		<path id="Path 137" class="s43" d="m345 505.8l5-5 8.3 5 15 3.4v15l-6.6 5-16.7-8.4-3.3-8.3z"/>
		<path id="Path 138" class="s33" d="m240 504.2l3.3-3.4h15l6.7 15-8.3 8.4h-6.7z"/>
		<path id="Path 139" class="s49" d="m305 507.5l-1.7-8.3h3.4l10 1.6 1.6 3.4-1.6 10-5-1.7z"/>
		<path id="Path 140" class="s2" d="m130 500.8l6.7-1.6-23.4 21.6v-3.3l3.4-6.7 5-5 5-3.3z"/>
		<path id="Path 141" class="s62" d="m720 504.2l5-6.7 10 3.3-1.7 6.7h-8.3z"/>
		<path id="Path 142" class="s55" d="m683.3 507.5l3.4-10h11.6l3.4 6.7-5 3.3z"/>
		<path id="Path 143" class="s63" d="m586.7 499.2l10-1.7h10v5l-10 8.3h-10z"/>
		<path id="Path 144" class="s56" d="m573.3 500.8l13.4-1.6v11.6 20.1h-6.7l-8.3-1.7-8.4-1.7-3.3-6.7v-11.6h6.7z"/>
		<path id="Path 145" class="s56" d="m401.7 499.2l13.3 1.6 8.3 5 1.7 20.1-5 5h-16.7l-3.3-26.7z"/>
		<path id="Path 146" class="s19" d="m795 522.5l-5-3.3-1.7-25h8.4l8.3 5v8.3l-1.7 13.3z"/>
		<path id="Path 147" class="s24" d="m450 504.2l5-10h5l5 8.3 10-1.7 5 6.7-1.7 13.3-28.3-3.3z"/>
		<path id="Path 148" class="s51" d="m306.7 499.2v-5h6.6 3.4v6.6z"/>
		<path id="Path 149" class="s17" d="m271.7 495.8l8.3-1.6 3.3 13.3-1.6 5-8.4-3.3-1.6 5h-3.4z"/>
		<path id="Path 150" class="s64" d="m258.3 500.8l1.7-6.6h10l1.7 1.6-3.4 18.4-3.3 1.6z"/>
		<path id="Path 151" class="s11" d="m193.3 504.2v-10h3.4 20v10l-6.7 6.6z"/>
		<path id="Path 152" class="s33" d="m166.7 524.2v-21.7l11.6-8.3h15v10l-6.6 5v10l-6.7 8.3h-11.7z"/>
		<path id="Path 153" class="s56" d="m620 502.5l13.3-1.7 3.4-8.3 8.3 1.7 6.7 6.6 1.6 16.7-13.3 3.3-41.7 3.4-1.6-13.4 10-8.3z"/>
		<path id="Path 154" class="s43" d="m606.7 497.5l3.3-5 10 1.7v8.3h-13.3z"/>
		<path id="Path 155" class="s65" d="m526.7 507.5l1.6-10 18.4-5 13.3 16.7v11.6l-10 3.4-6.7-6.7-11.6 5z"/>
		<path id="Path 156" class="s11" d="m316.7 494.2l5-1.7 3.3 5v10l-6.7-3.3-1.6-3.4z"/>
		<path id="Path 157" class="s0" d="m713.3 504.2l-5-13.4 16.7 6.7-5 6.7z"/>
		<path id="Path 158" class="s66" d="m645 494.2l1.7-3.4h6.6l11.7 3.4-1.7 6.6 5 1.7-1.6 15h-3.4-10l-1.6-16.7z"/>
		<path id="Path 159" class="s47" d="m463.3 494.2l8.4-3.4h18.3l3.3 15-8.3-3.3-5 5-5-6.7-10 1.7-5-8.3z"/>
		<path id="Path 160" class="s51" d="m358.3 505.8l5-15 13.4 10h3.3l-6.7 8.4z"/>
		<path id="Path 161" class="s11" d="m233.3 504.2v-13.4h10v10l-3.3 3.4z"/>
		<path id="Path 162" class="s67" d="m136.7 499.2l8.3-8.4h1.7l5 6.7v26.7l-6.7 6.7v8.3l-5 8.3h-6.7l-21.6-20 1.6-6.7z"/>
		<path id="Path 163" class="s22" d="m130 500.8l15-11.6v1.6l-8.3 8.4z"/>
		<path id="Path 164" class="s47" d="m596.7 492.5l11.6-5 1.7 5-3.3 5h-10z"/>
		<path id="Path 165" class="s51" d="m445 490.8l5-3.3 5 6.7-5 10z"/>
		<path id="Path 166" class="s53" d="m280 494.2l8.3-6.7 8.4 3.3 6.6 8.4 1.7 8.3v5h-8.3l-8.4-1.7-5-3.3z"/>
		<path id="Path 167" class="s13" d="m161.7 489.2l16.6-1.7v6.7l-11.6 8.3v21.7h-15v-26.7z"/>
		<path id="Path 168" class="s12" d="m618.3 489.2l15-3.4 3.4 6.7-3.4 8.3-13.3 1.7v-8.3z"/>
		<path id="Path 169" class="s68" d="m546.7 490.8l10-5 16.6 15-6.6 8.4h-6.7l-13.3-16.7z"/>
		<path id="Path 170" class="s33" d="m750 500.8v-16.6h15 5 10l8.3 10 1.7 25 5 3.3-1.7 5-6.6-1.6v-5.1h-6.7l-10-3.3h-10l-3.3-3.3z"/>
		<path id="Path 171" class="s69" d="m608.3 487.5v-3.3h5l5 5 1.7 5-10-1.7z"/>
		<path id="Path 172" class="s70" d="m463.3 494.2l3.4-10 5 6.6z"/>
		<path id="Path 173" class="s71" d="m216.7 494.2v-10h13.3l3.3 6.6v13.4h-16.6z"/>
		<path id="Path 174" class="s71" d="m178.3 487.5l18.4-3.3v10h-3.4-15z"/>
		<path id="Path 175" class="s36" d="m145 489.2l5-5-3.3 6.6h-1.7z"/>
		<path id="Path 176" class="s58" d="m750 484.2l-1.7-1.7 16.7 1.7z"/>
		<path id="Path 177" class="s46" d="m398.3 494.2l1.7-11.7 8.3 1.7 1.7 6.6h5v1.7 8.3l-13.3-1.6z"/>
		<path id="Path 178" class="s0" d="m288.3 487.5l1.7-5h6.7v8.3z"/>
		<path id="Path 179" class="s72" d="m770 484.2l11.7-3.4-1.7 3.4z"/>
		<path id="Path 180" class="s62" d="m415 490.8l3.3-10 1.7 10-5 1.7z"/>
		<path id="Path 181" class="s73" d="m196.7 484.2l20-3.4v3.4 10h-20z"/>
		<path id="Path 182" class="s20" d="m150 484.2l6.7-3.4 5 8.4-10 8.3-5-6.7z"/>
		<path id="Path 183" class="s62" d="m686.7 482.5l8.3-3.3 13.3 11.6 5 13.4h-11.6l-3.4-6.7h-11.6z"/>
		<path id="Path 184" class="s74" d="m313.3 494.2l-1.6-13.4 11.6-3.3 6.7 6.7v11.6l-5 1.7-3.3-5-5 1.7z"/>
		<path id="Path 185" class="s73" d="m260 494.2v-16.7h6.7l3.3 16.7z"/>
		<path id="Path 186" class="s71" d="m243.3 490.8l5-13.3h11.7v16.7l-1.7 6.6h-15z"/>
		<path id="Path 187" class="s7" d="m393.3 477.5l3.4-1.7 11.6 1.7v6.7l-8.3-1.7-1.7 11.7-6.6-3.4v-8.3z"/>
		<path id="Path 188" class="s31" d="m695 479.2l1.7-5.1h8.3 1.7l5 1.7 10 1.7 5 1.7h1.6l5 1.6 15 1.7 1.7 1.7v16.6h-10-5l-10-3.3-16.7-6.7z"/>
		<path id="Path 189" class="s62" d="m450 475.8l10-1.7 6.7 10.1-3.4 10h-3.3-5l-5-6.7z"/>
		<path id="Path 190" class="s32" d="m418.3 477.5l5-3.4 6.7 3.4 1.7 8.3 13.3 5 5 13.4v13.3h-8.3l-10 8.4h-6.7l-1.7-20.1-8.3-5v-8.3l5-1.7-1.7-10z"/>
		<path id="Path 191" class="s43" d="m391.7 482.5h-6.7l-1.7-8.4h6.7l3.3 3.4z"/>
		<path id="Path 192" class="s75" d="m696.7 474.1l-3.4-3.3 11.7 3.3z"/>
		<path id="Path 193" class="s76" d="m650 472.5l6.7-1.7 30 11.7v15l-3.4 10-15-5-5-1.7 1.7-6.6-11.7-3.4z"/>
		<path id="Path 194" class="s56" d="m598.3 472.5h8.4l1.6 11.7v3.3l-11.6 5v-10z"/>
		<path id="Path 195" class="s43" d="m596.7 482.5h-8.4l1.7-11.7h6.7l1.6 1.7z"/>
		<path id="Path 196" class="s23" d="m323.3 477.5v-6.7h33.4l6.6 20-5 15-8.3-5-5 5-5 1.7h-15v-10l5-1.7v-11.6z"/>
		<path id="Path 197" class="s36" d="m150 484.2l18.3-13.4-11.6 10z"/>
		<path id="Path 198" class="s71" d="m781.7 480.8l31.6-11.7-1.6 6.7-15 8.4v10h-8.4l-8.3-10z"/>
		<path id="Path 199" class="s77" d="m646.7 490.8l-10-13.3v-8.4h8.3l5 3.4 3.3 18.3z"/>
		<path id="Path 200" class="s62" d="m390 474.1l5-5 1.7 6.7-3.4 1.7z"/>
		<path id="Path 201" class="s4" d="m266.7 470.8l3.3-1.7 6.7 3.4 1.6 10h11.7l-1.7 5-8.3 6.7-8.3 1.6-1.7-1.6-3.3-16.7z"/>
		<path id="Path 202" class="s47" d="m613.3 484.2l3.4-16.7h3.3l16.7 1.6v8.4l10 13.3-1.7 3.4-8.3-1.7-3.4-6.7-15 3.4z"/>
		<path id="Path 203" class="s7" d="m423.3 474.1l5-6.6 1.7 10z"/>
		<path id="Path 204" class="s28" d="m356.7 470.8l1.6-3.3h5l3.4 5 13.3 15-3.3 13.3-13.4-10z"/>
		<path id="Path 205" class="s48" d="m290 482.5v-15h5l1.7 15z"/>
		<path id="Path 206" class="s31" d="m241.7 470.8l5-3.3h15l5 3.3v6.7h-6.7-11.7z"/>
		<path id="Path 207" class="s6" d="m813.3 469.1l6.7-3.3v6.7l-8.3 3.3z"/>
		<path id="Path 208" class="s14" d="m371.7 469.1l5-3.3 6.6 1.7v6.6l1.7 8.4h6.7v8.3l6.6 3.4 3.4 5-1.7 5-8.3 1.6-11.7-5h-3.3l3.3-13.3-13.3-15z"/>
		<path id="Path 209" class="s32" d="m596.7 470.8l1.6-6.7h3.4l15 3.4-3.4 16.7h-5l-1.6-11.7h-8.4z"/>
		<path id="Path 210" class="s43" d="m506.7 465.8l18.3 1.7 18.3 1.6-1.6 10.1 5 5v6.6 1.7l-18.4 5-1.6 10-10 3.3-3.4-1.6-6.6-11.7v-13.3l-6.7-3.4v-13.3z"/>
		<path id="Path 211" class="s24" d="m480 469.1l10 1.7 5-6.7 5 3.4v13.3l6.7 3.4v13.3l6.6 11.7-5 1.6-10-1.6-5-3.4-3.3-15 3.3-6.6-3.3-6.7-11.7-1.7z"/>
		<path id="Path 212" class="s4" d="m221.7 465.8l5-1.7 6.6 6.7h8.4l6.6 6.7-5 13.3h-10l-3.3-6.6h-13.3v-3.4z"/>
		<path id="Path 213" class="s33" d="m656.7 470.8v-8.3h5l13.3 3.3 5 1.7h1.7l5 1.6 6.6 1.7 3.4 3.3-1.7 5.1-8.3 3.3z"/>
		<path id="Path 214" class="s74" d="m428.3 467.5l6.7-5 15 13.3v11.7l-5 3.3-13.3-5-1.7-8.3z"/>
		<path id="Path 215" class="s14" d="m395 464.1h18.3l5 13.4v3.3l-3.3 10h-5l-1.7-6.6v-6.7l-11.6-1.7-1.7-6.7z"/>
		<path id="Path 216" class="s59" d="m383.3 467.5l11.7-3.4v5l-5 5h-6.7z"/>
		<path id="Path 217" class="s12" d="m363.3 467.5l3.4-5 5 6.6-5 3.4z"/>
		<path id="Path 218" class="s22" d="m828.3 460.8h1.7v1.7h-1.7z"/>
		<path id="Path 219" class="s36" d="m656.7 462.5v-1.7l5 1.7z"/>
		<path id="Path 220" class="s28" d="m561.7 462.5l20-1.7 6.6 1.7 1.7 8.3-1.7 11.7h8.4v10 5l-10 1.7-13.4 1.6-16.6-15-10 5v-6.6l6.6-16.7z"/>
		<path id="Path 221" class="s19" d="m645 469.1v-10h5l6.7 1.7v1.7 8.3l-6.7 1.7z"/>
		<path id="Path 222" class="s23" d="m588.3 462.5v-3.4h10v5l-1.6 6.7h-6.7z"/>
		<path id="Path 223" class="s78" d="m645 459.1v-1.6l5 1.6z"/>
		<path id="Path 224" class="s77" d="m261.7 467.5l-1.7-10h6.7l3.3 11.6-3.3 1.7z"/>
		<path id="Path 225" class="s73" d="m230 459.1l16.7-1.6v10l-5 3.3h-8.4l-6.6-6.7z"/>
		<path id="Path 226" class="s51" d="m581.7 460.8l1.6-5 5 3.3v3.4z"/>
		<path id="Path 227" class="s37" d="m605 455.8l11.7-1.7 3.3 13.4h-3.3l-15-3.4z"/>
		<path id="Path 228" class="s79" d="m358.3 467.5l-1.6-13.4h10v8.4l-3.4 5z"/>
		<path id="Path 229" class="s76" d="m295 467.5l1.7-13.4h21.6l5 3.4v13.3 6.7l-11.6 3.3 1.6 13.4h-6.6v5h-3.4l-6.6-8.4v-8.3z"/>
		<path id="Path 230" class="s4" d="m290 467.5v-13.4h6.7l-1.7 13.4z"/>
		<path id="Path 231" class="s71" d="m266.7 457.5l23.3-3.4v13.4 15h-11.7l-1.6-10-6.7-3.4z"/>
		<path id="Path 232" class="s11" d="m246.7 457.5l6.6-3.4 6.7 3.4 1.7 10h-15z"/>
		<path id="Path 233" class="s2" d="m193.3 457.5l10-3.4h1.7 6.7 8.3l1.7 11.7-5 15-20 3.4-18.4 3.3-16.6 1.7-5-8.4 11.6-10 6.7-3.3 8.3-5 5-3.4h1.7z"/>
		<path id="Path 234" class="s75" d="m188.3 459.1h1.7v1.7h-1.7z"/>
		<path id="Path 235" class="s4" d="m336.7 454.1h20l1.6 13.4-1.6 3.3h-33.4v-13.3z"/>
		<path id="Path 236" class="s5" d="m220 454.1l10-1.6v6.6l-3.3 5-5 1.7z"/>
		<path id="Path 237" class="s54" d="m205 454.1l6.7-1.6v1.6z"/>
		<path id="Path 238" class="s2" d="m833.3 459.1l16.7-8.3-8.3 21.7-8.4 5v16.7l15 10 3.4 8.3h6.6l-1.6 1.7-1.7 3.3-1.7 5v1.7 13.3l6.7 20v6.7h-15l-1.7 11.7 8.4 8.3h10l-10 6.7h-11.7l-8.3-3.3-5-3.4-1.7-3.3-30-23.4-1.7-30 1.7-5 8.3-1.7 16.7-1.6 8.3 5 5-6.7-3.3-13.3-10 3.3h-15v-8.3l-8.3-5v-10l15-8.4 8.3-3.3v-6.7l8.3-3.3 1.7-1.7z"/>
		<path id="Path 239" class="s64" d="m616.7 454.1v-3.3l21.6 5 5 1.7h1.7v1.6 10h-8.3l-16.7-1.6z"/>
		<path id="Path 240" class="s47" d="m525 454.1l8.3-3.3 20 16.7-6.6 16.7-5-5 1.6-10.1-18.3-1.6z"/>
		<path id="Path 241" class="s23" d="m366.7 454.1l6.6-3.3 3.4 5v10l-5 3.3-5-6.6z"/>
		<path id="Path 242" class="s80" d="m211.7 452.5l20-1.7-1.7 1.7-10 1.6h-8.3z"/>
		<path id="Path 243" class="s11" d="m605 455.8v-6.7h1.7l10 1.7v3.3z"/>
		<path id="Path 244" class="s21" d="m558.3 454.1l11.7-5 10 1.7 3.3 5-1.6 5-20 1.7z"/>
		<path id="Path 245" class="s3" d="m233.3 450.8l11.7-1.7h1.7 5 1.6v5l-6.6 3.4-16.7 1.6v-6.6l1.7-1.7z"/>
		<path id="Path 246" class="s78" d="m605 449.1l-5-1.6 6.7 1.6z"/>
		<path id="Path 247" class="s40" d="m533.3 450.8l10-3.3 15 6.6 3.4 8.4-8.4 5z"/>
		<path id="Path 248" class="s76" d="m506.7 450.8l3.3-3.3 15 6.6v13.4l-18.3-1.7z"/>
		<path id="Path 249" class="s53" d="m496.7 449.1l10 1.7v15l-6.7 1.7-5-3.4z"/>
		<path id="Path 250" class="s4" d="m480 469.1l-8.3-10-1.7-11.6 26.7 1.6-1.7 15-5 6.7z"/>
		<path id="Path 251" class="s81" d="m460 474.1v-26.6h1.7 8.3l1.7 11.6 8.3 10-1.7 6.7 11.7 1.7 3.3 6.7-3.3 6.6h-18.3l-5-6.6z"/>
		<path id="Path 252" class="s1" d="m436.7 449.1l3.3-1.6h20v26.6l-10 1.7-15-13.3z"/>
		<path id="Path 253" class="s77" d="m413.3 450.8l6.7-3.3 16.7 1.6-1.7 13.4-6.7 5-5 6.6-5 3.4-5-13.4z"/>
		<path id="Path 254" class="s1" d="m403.3 449.1l6.7-1.6 3.3 3.3v13.3h-18.3l-11.7 3.4-6.6-1.7v-10z"/>
		<path id="Path 255" class="s3" d="m318.3 454.1l1.7-6.6h11.7l5 6.6-13.4 3.4z"/>
		<path id="Path 256" class="s75" d="m246.7 449.1l5-1.6v1.6z"/>
		<path id="Path 257" class="s19" d="m580 450.8v-5h6.7l10 1.7h3.3l5 1.6v6.7l-3.3 8.3h-3.4v-5h-10l-5-3.3z"/>
		<path id="Path 258" class="s36" d="m251.7 447.5l13.3-1.7-11.7 3.3h-1.6z"/>
		<path id="Path 259" class="s75" d="m580 445.8l-3.3-1.7 10 1.7z"/>
		<path id="Path 260" class="s60" d="m570 449.1v-5h5 1.7l3.3 1.7v5z"/>
		<path id="Path 261" class="s82" d="m403.3 449.1l5-5 1.7 3.4z"/>
		<path id="Path 262" class="s44" d="m570 444.1l-13.3-3.3 18.3 3.3z"/>
		<path id="Path 263" class="s19" d="m543.3 447.5v-6.7h10 3.4l13.3 3.3v5l-11.7 5z"/>
		<path id="Path 264" class="s19" d="m408.3 444.1l11.7-3.3v6.7l-6.7 3.3-3.3-3.3z"/>
		<path id="Path 265" class="s20" d="m876.7 440.8l8.3-1.7h1.7 5 1.6l1.7 5-3.3 10-6.7 11.7-5 11.7-3.3 5-18.4 30h-6.6l-3.4-8.3-15-10v-16.7l8.4-5 8.3-21.7z"/>
		<path id="Path 266" class="s72" d="m543.3 440.8v-1.7l10 1.7z"/>
		<path id="Path 267" class="s31" d="m420 440.8l13.3-1.7 6.7 1.7v6.7l-3.3 1.6-16.7-1.6z"/>
		<path id="Path 268" class="s2" d="m305 439.1l8.3-1.6h1.7 5v10l-1.7 6.6h-21.6-6.7l-23.3 3.4h-6.7l-6.7-3.4v-5l11.7-3.3 8.3-1.7h1.7l18.3-3.3h1.7l8.3-1.7z"/>
		<path id="Path 269" class="s81" d="m315 437.5l10-1.7-5 1.7z"/>
		<path id="Path 270" class="s20" d="m326.7 435.8l11.6-1.7h3.4 15v20h-20l-5-6.6h-11.7v-10l5-1.7z"/>
		<path id="Path 271" class="s2" d="m460 434.1l48.3 3.4 1.7 10-3.3 3.3-10-1.7-26.7-1.6h-8.3z"/>
		<path id="Path 272" class="s12" d="m341.7 434.1l16.6-1.6-1.6 1.6z"/>
		<path id="Path 273" class="s13" d="m508.3 437.5l5-6.7 30 8.3v1.7 6.7l-10 3.3-8.3 3.3-15-6.6z"/>
		<path id="Path 274" class="s2" d="m370 432.5l21.7-1.7h16.6 10 1.7v10l-11.7 3.3-5 5-26.6 6.7-3.4-5-6.6 3.3h-10v-20l1.6-1.6z"/>
		<path id="Path 275" class="s59" d="m418.3 430.8v-1.7h8.4l-6.7 1.7z"/>
		<path id="Path 276" class="s7" d="m408.3 430.8l10-1.7v1.7z"/>
		<path id="Path 277" class="s19" d="m433.3 427.5l5-1.7 21.7 8.3 1.7 13.4h-1.7-20v-6.7l-6.7-1.7z"/>
		<path id="Path 278" class="s60" d="m426.7 429.1l3.3-5 3.3 3.4v11.6l-13.3 1.7v-10z"/>
		<path id="Path 279" class="s6" d="m430 424.1l6.7-8.3 1.6 10-5 1.7z"/>
		<path id="Path 280" class="s41" d="m571.7 419.1l-5-8.3 6.6 3.3z"/>
		<path id="Path 281" class="s41" d="m563.3 410.8v-1.7l3.4 1.7z"/>
		<path id="Path 282" class="s83" d="m540 399.1v-1.7h3.3l20 11.7v1.7h-15z"/>
		<path id="Path 283" class="s25" d="m540 397.4l-1.7-3.3 5 3.3z"/>
		<path id="Path 284" class="s84" d="m540 399.1h-8.3l-1.7-6.7h6.7l1.6 1.7 1.7 3.3z"/>
		<path id="Path 285" class="s25" d="m530 389.1v-1.7l6.7 5h-6.7z"/>
		<path id="Path 286" class="s22" d="m530 389.1h-6.7l-5-10 11.7 8.3z"/>
		<path id="Path 287" class="s72" d="m508.3 377.4l3.4-1.6h1.6l5 3.3 5 10h6.7v3.3l1.7 6.7h8.3l8.3 11.7h15 3.4l5 8.3-28.4 20-30-8.3-6.6-3.3v-6.7l-10 1.6-1.7-5h-6.7l1.7-10h-6.7v-5l10-11.6z"/>
		<path id="Path 288" class="s22" d="m511.7 374.1h1.6v1.7h-1.6z"/>
		<path id="Path 289" class="s5" d="m461.7 382.4l6.6-8.3h3.4l21.6 16.7-10 11.6v5h6.7l-1.7 10h6.7l1.7 5 10-1.6v6.7l6.6 3.3-5 6.7-48.3-3.4-21.7-8.3-1.6-10z"/>
		<path id="Path 290" class="s27" d="m508.3 370.7h-5v-5z"/>
		<path id="Path 291" class="s85" d="m508.3 377.4l-8.3-3.3 1.7-10 1.6 1.6v5h5l3.4 3.4v1.7z"/>
		<path id="Path 292" class="s27" d="m500 360.7h1.7v1.7h-1.7z"/>
		<path id="Path 293" class="s78" d="m468.3 374.1l15-15h1.7l-13.3 15z"/>
		<path id="Path 294" class="s85" d="m500 362.4l-1.7-5 1.7 3.3z"/>
		<path id="Path 295" class="s2" d="m485 359.1l11.7-5 1.6 3.3 1.7 5h1.7v1.7l-1.7 10 8.3 3.3-15 13.4-21.6-16.7z"/>
		<path id="Path 296" class="s27" d="m483.3 359.1l6.7-8.4 6.7 3.4-11.7 5z"/>
	</g>
</svg>