<svg version="1.2" xmlns="http://www.w3.org/2000/svg" viewBox="0 0 1000 1000" width="1000" height="1000">
	<title>Hypophthalmichthys_nobilis</title>
	<style>
		.s0 { fill: #97988c } 
		.s1 { opacity: 1;fill: #3b3d3e } 
		.s2 { fill: #38393a } 
		.s3 { fill: #a4a492 } 
		.s4 { opacity: 1;fill: #343536 } 
		.s5 { opacity: 1;fill: #3e4041 } 
		.s6 { opacity: 1;fill: #434445 } 
		.s7 { opacity: 1;fill: #2f3030 } 
		.s8 { opacity: 1;fill: #484a4a } 
		.s9 { fill: #4f504e } 
		.s10 { fill: #545654 } 
		.s11 { fill: #83857c } 
		.s12 { fill: #8d9085 } 
		.s13 { fill: #b9bbab } 
		.s14 { fill: #adb0a4 } 
		.s15 { fill: #787b73 } 
		.s16 { fill: #858677 } 
		.s17 { fill: #9b9e94 } 
		.s18 { fill: #909080 } 
		.s19 { fill: #6f716a } 
		.s20 { fill: #bec1b2 } 
		.s21 { fill: #a6aa9f } 
		.s22 { fill: #aeaa95 } 
		.s23 { fill: #9ea39a } 
		.s24 { fill: #7c7c70 } 
		.s25 { fill: #b3b6a6 } 
		.s26 { fill: #b5b19a } 
		.s27 { opacity: 1;fill: #616361 } 
		.s28 { opacity: 1;fill: #737266 } 
		.s29 { fill: #c4c8bc } 
		.s30 { opacity: 1;fill: #66665f } 
		.s31 { fill: #c0b99d } 
		.s32 { fill: #595d5c } 
		.s33 { fill: #d4d7cb } 
		.s34 { fill: #6d7171 } 
		.s35 { fill: #978f7b } 
		.s36 { fill: #8c8574 } 
		.s37 { fill: #616869 } 
		.s38 { fill: #cccdb7 } 
		.s39 { fill: #9f9983 } 
		.s40 { opacity: 1;fill: #5f5c54 } 
		.s41 { fill: #74787a } 
		.s42 { fill: #a7a188 } 
		.s43 { fill: #8c8f8a } 
		.s44 { opacity: 1;fill: #827c68 } 
		.s45 { fill: #e2e2d8 } 
		.s46 { fill: #eaeae5 } 
		.s47 { opacity: 1;fill: #6d6458 } 
		.s48 { opacity: 1;fill: #95998f } 
		.s49 { opacity: 1;fill: #7c6f5f } 
		.s50 { fill: #dcd9be } 
		.s51 { fill: #b2b4ad } 
		.s52 { fill: #818381 } 
		.s53 { fill: #bdae87 } 
		.s54 { opacity: 1;fill: #cab584 } 
		.s55 { opacity: 1;fill: #999d98 } 
		.s56 { opacity: 1;fill: #ae9e86 } 
		.s57 { fill: #ccc4a5 } 
		.s58 { fill: #dbcea5 } 
		.s59 { opacity: 1;fill: #a5a8a5 } 
		.s60 { fill: #787f8f } 
		.s61 { opacity: .2;fill: #3f4042 } 
		.s62 { opacity: .5;fill: #444647 } 
		.s63 { fill: #888e8f } 
		.s64 { opacity: .2;fill: #555551 } 
		.s65 { opacity: .2;fill: #2d2e2f } 
		.s66 { opacity: .4;fill: #5a5953 } 
		.s67 { opacity: .9;fill: #5b5a55 } 
		.s68 { opacity: .3;fill: #62605a } 
		.s69 { opacity: .3;fill: #77766f } 
		.s70 { opacity: .6;fill: #313232 } 
		.s71 { opacity: .5;fill: #6e6c65 } 
		.s72 { opacity: .4;fill: #2a2c2c } 
		.s73 { opacity: .4;fill: #3a3c3d } 
		.s74 { opacity: 1;fill: #938a80 } 
		.s75 { opacity: 1;fill: #b1b3b0 } 
		.s76 { opacity: .6;fill: #8f8c83 } 
		.s77 { opacity: .2;fill: #958884 } 
		.s78 { opacity: .8;fill: #8a8a7f } 
		.s79 { fill: #e0d09f } 
		.s80 { opacity: .3;fill: #ab9a89 } 
		.s81 { opacity: .4;fill: #9c969a } 
		.s82 { opacity: .6;fill: #aaa7a3 } 
	</style>
	<g id="Background">
		<path id="Path 0" class="s0" d="m431 445v-14l4-1h3l-1 13zm328 8l9-2h1 5l2 4v4l11-2 3 3v5l-5 2v7h-5l-9 7h-6l-3-5h-7l-2-12-8-8 4-1 9-2zm-387 95l-14-8-3-9-8-6-1-24-7-4v-11h11l7 10h3l10 13h3l2 13-1 6 6 2-6 18zm-109-54v-1l4 1 4 4 1 8-4 2v4l7 2 6 2v12l-4 1v6h-5l-4-5h-13l5-8 1-9 2-9zm-101 22l-1-12h12v10l-4 2zm-95-6l6-2h4l6 4v4h-8-8zm349 7l1-7h5l10 11-2 4 5 2 2 8-9 1-6-4-1-6v-7zm24-1l9-4h4v8h-13zm30 9l3-7h4 8v6l4 2v4l12 9 2 9-16 8v-9l-8-9-8-3zm-39 36l4-1 2 1 3 6h4l1 7v12 10h-12v-17l-6-7zm71 19l-1 4-18-2-6-5v-7h6l4 8zm-99 29l-6-3v-7l-10-7 2-20h10l3 6 6 1 4 11 7 4v12zm166-27v-4h4v4z"/>
		<path id="Path 1" class="s1" d="m507 402l-2-17 5-21 13-7 2-34 4-2v-8l10-6 2 1v13l-1 4-3 14 2 25h-9l-3 3 1 22 9 5v5l-18-2-2 14 2 7-2 1-8-1-3-10zm349 129l9-3 6-14v-8l-4-5-6-24 6-22 10-9 24-10 25 3 18-17v-6l4-5 16-9v-8l11-5 2 2 2 4 1 6-8 1-7 12-20 17-2 6-6 1-4 5-36 2-21 13-3 25 18 23 7 4 11-2 3 2 2 2 32 31 12 19-27-3-17-13-2-8-14-1-3-5h-7l-3 4-13-2-2 3h-14zm-629-22l5-7 7-3 3-7h11l10 2v10l-23-2-1 8-10 4zm-4 49l2-8 7 1 2 4-3 3zm489 6l-1-12h7l4 4-2 3zm-99 17l8-1v2l-7 8h-5v-4z"/>
		<path id="Path 2" class="s2" d="m519 418l-2-7 2-14 18 2 8 3v10l-2 2-12 2zm390 90l-11 2-7-4-18-23 3-25 21-13 36-2 4-5 6-1 2-6 20-17 7-12 8-1v10l-2 4-25 32-7-1-3 4h-8l-3 5-11 3-28 1-8 8 4 23 7 8 11 2 2 5zm-680 6l10-4 1-8 23 2-2 9-13-1-9 10v18l5 4v2l-6 8-4 1-2-4-7-1v-4l2-7-3-5 1-6 2-9zm627 23h14l2-3 13 2 3-4h7l3 5 14 1 2 8 17 13 27 3 5 12-10 7-16 1-2-4h-8l-16-13-29-6-4-4v-5l-10-6-18 2v-4zm-180 17l27-9h5l3 7 1 12-8 6-4-3-24-1-3 6h-5l-9 8-38 2v-2l3-3 5 1 9-4 5-7 25-10z"/>
		<path id="Path 3" class="s3" d="m631 450v-7h7 1l2 1v4l4 5 9 1-1 6-12 2zm36 4l1-4 11 1v7l1 7-1 2h-4l-8-1zm-108 32l6-2v4h-5zm144 4l1-2h5l5 3 1 9v3h-4v-5l-4-1zm84 8v-8h8l1 4-3 4zm-710 6l3-2 5 2v8h-2l-6-4zm198 2l4-4h4l-2 8h-4zm264 20h-4l-6-6v-6h10zm-52 30l16-8h6l6 6 12-2 6 6v8l10 4 3 4 16-1 2 5h5v4 2h-15l-12-4-13 2-27-2-15-2-4-8h-6l-1-9zm-43 11h-4l-3-6h6zm-36 12l6-7h13l6 7v17l-1 3-5 2v5h-8v-12l-7-4z"/>
		<path id="Path 4" class="s4" d="m907 500l-11-2-7-8-4-23 8-8 28-1 11-3 3-5h8l3-4 7 1-13 16-23 19-3-4-13 1v7l7 6zm-663 44l-5-4v-18l9-10 13 1-1 9-5 8-5 7zm606 2l18-2 10 6v5l4 4 29 6 16 13h8l2 4 16-1 10-7 2 8v10l-27 4-17-5-40-22-6-8-9-5-24 2-3 3h-8l-3 5-18-9 6-1 16-2 4-6zm-229 36l38-2 9-8h5l3-6 24 1 4 3-10 9-3 4-18 20h-19l-14-10-13-1-6 4-4 8-6 2-2 7-12-8 6-13 6-2h5zm30 54l1-12 7-5 9-1 1 6v16l-7 2z"/>
		<path id="Path 5" class="s5" d="m517 310l5 2 10-8h6l1 3-10 6v8l-4 2-2 34-13 7-5 21 2 17-6-2v-5l-7-8-2-29-5-4v-8l11-6 11-12 1-12zm20 89v-5l-9-5-1-22 3-3h9l2 3 4 18 12 19 1 5-5 3h-8v-10zm378-1l43-14 14 1 3 4-11 5v8l-16 9-4 5v6l-18 17-25-3-24 10-10 9-6 22 6 24 4 5v8l-6 14-9 3-1-1 4-12 5-1v-6l-7-3-2-10v-7l2-4-2-23 3-1 8-19 29-15 2-4 18-7zm-692 100h4l15-14 10 3 1 5h-11l-3 7-7 3-5 7h-2l-2-6zm-134 13l-2-6h9l2 2v2l-3 2zm512 78v-3h8v4l-6 2z"/>
		<path id="Path 6" class="s6" d="m527 302l9-5 2 7h-6l-10 8-5-2zm-46 35l29-21-1 12-11 12-11 6v8l5 4 2 29 7 8v5l6 2-1 6-15-4v-6l-4-5-6-1-2-4-18-4-12-17 5-6 2-2 2-2 2-2 2-2 2-2 2-1 8-7zm383 82l31-15 20-6v20l-18 7-2 4-29 15-8 19-3 1-4-2v-9l6-9v-11l-4-7zm-693 21l-5 7-23 1-4-4v-5l3-2v-6l8-6 19-3 5 5-1 3zm60 38l16-4 4 7 12 5v7 1l-10-2-1-5-10-3-15 14h-4v-6l8-6zm628 40l-2-10 7 3v6zm-151 27l9-2h5l1 1 2 9-3 3-4-4h-7zm-121 53h6l2-6 6-3 2 3-6 13z"/>
		<path id="Path 7" class="s7" d="m908 492l-7-6v-7l13-1 3 4-7 9zm-80 74l3-5h8l3-3 24-2 9 5 6 8 40 22 17 5 27-4v11l-5 7-10 2h-16l-12-1-49-21zm-219 47l2-7 6-2 4-8 6-4 13 1 14 10h19l-1 5-2 3v1l-2 6-9 1-7 5-1 12-28-13z"/>
		<path id="Path 8" class="s8" d="m431 386l18-19 12 17 18 4 2 4 6 1 4 5v6h-8l-2-3h-6l-12-7-11-1-10-5h-9zm-221 6l9-1 3 7 23 2 2 10h-8l-18 1-15 2-3-3h-10l-8 1v11l-7 4-4 1-5-5-19 3-8 6v6l-3 2v5l4 4 23-1 5-7 8 2v10l-7 5-1 7h-8l-12-2-4-2v-4l-12-5-6-9 3-5-7 1-1-12 24-13 37-15 14-4zm635 38l8-4 4 7v11l-6 9v9l4 2 2 23-2 4h-2l-2-11-5-4-5-10 1-13 5-3zm-771 15l7-1v12l-1 2-23 11-12 6-6 6v5h-3l-9-2-2-7 19-15 14-9zm157 33l2-10 20 2 8 9 2 7-12-5-4-7zm-96 32l-4-20h8l8 5v12 5zm81 38l5-2h4v4l-2 8-1 2h-6l-5-7z"/>
		<path id="Path 9" class="s9" d="m229 389l22-2 8 15v7l-10 2-2-1-2-10-23-2-3-7zm-44 33v-11l8-1v10l-1 1h-3zm-67 5l3-1h3l1 12-8 4h-4l-2-10zm62 1l9-2h2l14 6 7-1 8 7 4 20 18-1 10 5 1 6v2l-20-2-2 10v8l-8 6-6-6v-2l2-11-5-5h-11l-3-5-13 1h-9l-1 4h-3l-3-4 1-7 7-5v-10l-8-2 2-10zm657 3l5-2h1l2 1 2 20-5 3-5-5-1-10 1-4-3-1zm-756 13l3-3h3v12l-2 3h-4zm44-1l4-1 6 9 12 5v4l-14 2-2-4zm-18 55h10l1-9 4-5h7l2 6 4 20-20-1-6 13-7-1-1-7 2-4 3-2zm744 0l2-7h2v7zm-634 40l2-7 6-3-1 6 3 5-2 7h-4v-7zm508 15l-2-9h6l1 6-3 3zm-623 9l3-4 20 8 14 6v6h-2l-8-3-10-4-8-4z"/>
		<path id="Path 10" class="s10" d="m193 420v-10h10l3 3v3h-3zm21 2l7-4 11 2 5 9-1 11-3 1-6-5h-3l1 5 8 9 6 2 3 2v3l-18 1-4-20-8-7-1-5zm-121 16l18-6 2 10-26 11v-12l2-2h1zm738 2l2-2h3l1 10h-6zm-714 6l8-3 6 15-10 1v9l5 6h7l6 9v7h-8l-2-6h-7l-4 5-1 9h-10l-4-4v-3l1-13 5-4 6-14-4-10zm70 18l13-1 3 5h11l5 5-2 11-10-1-13-1v-3l-7-4zm-128 10l14-7 2 5v6l-6 8-10-2zm-12 24l-8-12h9l3 3v10h-2zm62 24l6-13 20 1 12 2v5l-5 5-8 8-11 4h-10l-4-3zm621 28l-1-6 7 1-2 4zm-101 21l14-4-5 7-9 4-5-1zm-168 99l-6-3v-4l-7-8v-9l11-6 12 1v4l-4 13-2 5z"/>
		<path id="Path 11" class="s11" d="m381 418l9-7 11-3h15l6 9 13 1v12l-4 1v14h-20l-2-4h-11l-3-4-10-3v-9zm92 2v-3h7l3 3-1 4h-5zm106 16v-3l9 1-1 4zm219 16l4-1 5 7h12v19l6 5-4 10-18-4v-14l-9-2-4-7v-5zm-101 16l-2-15h4l4 1 23 1 6 1-1 9-3 1h-9l-6 5-6 3-1-7zm-17-3l-1-7h8l1 4zm-385 31v-6l-6-5v-5h4 10l6 7-2 13h-4v-5zm409-12l4-2 1 6h-5zm74 7l2-4 7 1v2 8h-2-6l-1-3zm-501 4v-5h2l8 6v6h-4-4l2-6zm112 13l1-10h1 4l1 5 1 5h4l6 1 4 8v5l-4 1-4 7-10 2-10-2-2-7 4-6h5zm150 6l5-8 15 2v18l6 1v3 8l-3 2-13-2v-4l2-8-5-1-3 3-4-2zm-86-2l5-2 3 2v4h-5l2 5 7-1 5 5 1 10 8 3 8 9v9l-11 5-9-3-1-9-11-1v-8l-2-20zm36 14l4-2 1-10h9l12 3 2 8 8 9 2 18-12 2-6-6h-6l-2-9-12-9zm108-6v-6l6 2v4z"/>
		<path id="Path 12" class="s12" d="m435 418l4-2 7 4h12l1 3h4l10-3 4 4-2 18-8 1h-7l-3-5h-4l-7-8h-8-3zm-63 10l1-10h8l4 7v9l-6 1zm199 6v-2l8 1v3zm42 17l2-11 12 1v1 8l-2 8h-4zm28-3v-4l4 1-1 3zm-338 32l2-3h5l7 1 9 2 6-3 7 3v6 11l7 4 1 24 8 6 3 9 14 8v2l-1 4h-4-6l-8-1-1-6-14-2-1-3h-8v-8h-4l-5-17-6-5-1-7-5-3-1-2 2-13zm60 9l-2-7 4-2 8 8-2 3zm413 1l-1-4 5 1-2 4zm-213 3l5-2 2 7-1 6h8l4 2 6 18h-7l-2 4-5 1v4l-3-3-3-4v-15l-3-3zm129 21l-7-1-2-9 8 3 2 1zm-207 4v-6l9 2-1 10-4 2-4-2zm42 34l-2-18 17 6 1 3v7l3 5-3 3h-10z"/>
		<path id="Path 13" class="s13" d="m278 426l5-1 5 6-9 1zm175 25v-13h4l3 5h7l-1 9-1 1-8 2zm143-1l1-2h6l10 3 8 7h4l1 5 5 1v4l-8 8-8-9h-4v-5l-7-2-7-2zm-151 20l-13-2-3-3v-9h10l6 5zm-181-3l4-7 5 9 8 1v6l-6 6 4 8h-2-7l-3 4-4-1v-7l-2-7v-8l5 1zm203 14l2-10 4 6 17-4 3 3v14h-16zm224 26v-13h2l4 1v5 8h-4zm-646 0v-5h4l7 3-2 6-5 1zm420 1v-3l12 1v12h-4l-6-1zm200 12l-1-15h7l6 6v7l-4 4zm-374-6l2-2h2v10h-4zm-41 23l5-7h13l4 5h5l7 8-3 9h-6l-8-2v-6l-4-4zm349 4v-11l8 2v5zm-51 1l1-4 13 2 3-2 8 2 3 2 3 15v5l-4 4h-5l-8 7-16 1-3-4v-12l3-3 7-1 4 1 1-6-7-1zm-283 46l4-4h8v4 3h-9z"/>
		<path id="Path 14" class="s14" d="m286 414l8-1 9 1v16h-2l-13 1-5-6 3-3zm31 16l1-14 11 1 2 1v10l-3 4-5 2h-4zm88 36l-1-13-7-4 1-8h11l2 4-4 1v3l4 4 18 3v9l3 3 13 2 3 2 3 12v6l-2 4-7 2 2 7 5 3v6l-9 4-14-39zm81-12l1-3h4v8zm-127 10l10-2 8 4v6l6 6v12l-10-2-8-8-6-8zm250 12v-9h2 4l8 9 2 14h-5l-5-4v-6zm-119-3l6-2 2 3 14 1 2 8-2 3-3 2v8l-6 1-10-7v-14zm-27 9l4-1 10 9v14 2l-12-1-5-5 1-12zm-72 16l2-12 16 2 8 22-1 7h-5l-4-8-6-1v-4l-5-1-1-5zm246 6l2-4h4l3 8-9 2zm-349 39l4-7h4l7 2h9l5 2v2 4l-6 1-4-1h-16zm37 5v-6h4 8l1 3-3 5zm218 22l-10-4v-8h10z"/>
		<path id="Path 15" fill-rule="evenodd" class="s15" d="m363 394l-18 2-2-7 18 1h2zm38 0l24-1 8 1 13 8-7 7v7l-4 2-13-1-6-9h-15zm-48 30v-11l6-5h6l8 10-1 10-10 1zm105-4l3-4h10l2 1v3l-10 3h-4zm344 30l15-6h4v14h-14l-5-7zm-157 3l-4-5h3zm18 1v-6h5v2l-1 4zm-294 8v-12l8 2 2 13-2 1zm88 8l1-5 5 1v3zm-196-3h3l2 5-5-1zm-114 13l8-4h8l2 14 13-4 13 2 3-6 13 1v17l-7 5-11 1-2-4-14 2h-17l-5 5-4-2v-12l2-1zm132 10l-4-8 6-6 8 4v5l6 5v6l1 4-3 2h-6v-6zm450 10l4-7 2 1 2 4 20 1-2 5-14 1v7l-8-4zm-23 0l1-3 4 1v5h4l1 5-7 2zm-657 2v-3h2l9 1v5h-4zm516 25l-6-1v-18h5l3 3v15zm-134 34v-5l4 1v3zm-132 23l4-4 14-2v10h-18z"/>
		<path id="Path 16" class="s16" d="m278 412l4-8h7l5 9-8 1zm543 80l4-10-6-5v-19h2l7 7 4 14 7 1 3 18-5 8-4 2-5-2zm-63 16l3-4-1-10 15 1h3l1 3 2 12h-10l-4 2h-6zm-585-4l14-2 2 4-2 6-8 2h-6zm108 6l2-8h4 6v10l-2 2h-10zm93 38l6-18h3l10 2v12l4 3v5l-3 2-1 9-4 2v7l-2 20 10 7v7l6 3v7h-10l-3-4v-1l-2-8-8-8-19-1-7-7 6-11 3-1v-4l6-3v-4l3-1-1-5v-4l1-4zm57-2l3-6h4l4 1 13-1v8 16l14 9 3 10 8 4v5l-1 4-9 4h-22l-3-4v-10h6l4-4-3-8h-7l-1-7-1-6h-6l-2-1v-3l-4-1zm237 11l1-7 7 4zm-115 35l1-8h15l2 10-10 4h-5zm-40 0l4-4h14l6 4 1 10-3 2h-1l-15 1v-6z"/>
		<path id="Path 17" class="s17" d="m363 394v-4h4v4zm-14 31l4-1 9 5 10-1 7 7 6-1 10 3 3 4-1 8 7 4 1 13-2 9 6 3v10l-16-2-3-8h-7l-6-6v-6l2-1-2-13-8-2-8-1-2-3-8 3v7l8 5v3 8l6 8-4 2 2 7-3 7h-3l-7-10h-11v-6l-7-3-2-7-5-2-2-30v-4l5-2 7 6h3l2-5 6-1zm126 17l2-18h5v4l6 4 1 8-8 1 1 13h-4zm36-4l16-2h7l3 4h11l3 3v10l-15 3-1-14-9 4-1 5-4 3h-5v-6l-5-3zm114 20l2-8h4l10 12 12-2 1-6h9 4v12l-1 5-11 3v-5h-6l-1 10-7 1-3-9-7-3v-4l-5-1zm-16 9l-5-7 7 2v5zm-299 10v-5h5l2 6zm223 7h-4v-4l4 2zm-30 13l6-1v-8l3-2 3 3 4 8v10l10 3v4 6l6 6h4l4 2v6l-1 6-17-6-8-9-2-8-12-3zm-132-6l2-3 10 2 1 5 6 3-1 10-4 2v7l-4 6-6-1-2-13zm282 6v-5h6v6zm-110 1l8-2 7 6 1 6-15-2-1-4zm154 10v-8h9l3 10-4 3zm-220-2v-2l7 1 1 7v6h-8zm-66 16v-5h5l5 2v7h-6zm54-2l2-3 6 1-3 7zm-188 15v-6l4-1h10l5 3v5h-4l-4 7h-4z"/>
		<path id="Path 18" class="s18" d="m782 448l9-2v5l-15 4-2-4 2-2zm-103 10v-7h2l6 1v6zm121 36l3-6 18 4 7 14-8 3zm-525 20l2-4h4v4 2zm118 18l10-2 4-7 4-1 4 4h6l1 6 6 4v10h3v10 5l-4 11h-13l-6 7-6-1-3-6h-10v-7l4-2 1-9 3-2v-5l-4-3zm87 60v-5l-8-4-3-10-14-9v-16l11 1 1 9 9 3 1 9v7l6 5 18 2 1-4 27 2 13-2 12 4-1 8h-16l-6-4h-14l-4 4z"/>
		<path id="Path 19" class="s19" d="m427 389l4-3 2 2v6l-8-1zm-102 13l-1-14h7 10l2 1 2 7 18-2h4l7 6 27-2v10l-11 3-9 7h-8l-8-10h-6l-6 5v11l-4 1-18-7-2-1v-13zm-36 2l4-5 12 3 2 10-4 2-9-1zm150 12v-7l7-7h5l10 10v4l-3 4h-12zm139 34l-8-7 1-9 8 2 8 2 1-4 7 2 2 12-1 2h-10zm25-2v-11h3l9 2v1l-2 11zm84 10v-6l8 1 2 15-5 2v-7l-4-1zm-536 12v-8l12 2v12h-8v-4zm634 4v-7l5-2 4 7-1 4-6-1zm-578 14v-5l10 1v2zm630 18l5-8h7v12l-11 6-1-6zm-402 16l5-2h13l2 20-13 1-4-2-1-4-2-8zm221 0v-2l7 1v4zm-276 8l-6-2 1-6 6 1 2 7zm171 20v-2l7 1-1 6-4-1zm-184 10v-2h4l1 5-3 1zm-38 6l20-1 6 1 8 5v4l-3 1-6-4h-10l-3 5-6 2v11l-7 6h-9l-2-8v-10l10-2zm106 56h-12l-1-4h13z"/>
		<path id="Path 20" class="s20" d="m597 458h-11v-8h10zm-61-2l15-3 2 3 11 2 1 14-10 1-3-4-19 3-4-5 1-7zm-91 14v-9l13 4-1 5v5l-9-3zm235-5l8-3 4 1v7l-11 2-2-5zm-375 12l-3-2 1-3h7v5zm258 16l-3-5h5l3 3zm-34 17l-10-3v-10l-4-8h9l1 7 6 6zm-450-17l2-3 5 1-4 4zm580 5v-6h8l10 2h2l4 10 2 9 7 1 1 6h-3l-13-2v-7l-6-6h-7zm-82 6h-8l1-6h3l4 3zm60 0l-2-6 4 2zm-188 2l6-2 4 4h6l2 9-2 3-7 1-2-5h5v-4l-3-2-5 2h-4zm-64 11v-7l4-2 1 9zm246-1l4-1 7 3 1 4-11 2-1-4zm-58 17v-4l5-1 10 7h3l2-5h6v11l-6 6v7l-14 3-3-15-3-2zm-30 10l5-1 3 6v2h-8zm-262 9l3-9h4l3 3v22l-5 6v5l-1 1h-8l2-18z"/>
		<path id="Path 21" class="s21" d="m331 428v-10l18 7-3 7-6 1-3-5zm151-4l1-4h2 6l6 5v13l14 7 5 3v6l-5 5v7l-20-7v-8l-2-11-1-8-6-4zm-228 6l3-2h6l2 4-6 3h-4zm52 12l3-2v-10h8l2 4 1 4h3l2 30h-6l-4-10-9-7zm321 8v-8l4 1v7zm-377-3l5-4 4 1 6 4 3 12-4 7h-3l-2-1-8-15zm328 3h8v8h11l7 2 5 7v9h-2l-4-3-9 2-3-9h-12zm-57 4l4-3 3 2v6l-7 1zm207 12l3-1 1-9h6 4 3l8 8 2 12-1 4h-8l-2-5-12-4zm-447 4l6-6 5 2 1 14h-4l-8-4zm128 18v-10l-6-3 2-9 21 11 14 39v4l-5 2-3-1-10-11h-5zm257-17l1-5 8 1-2 7h-6zm-77 22l9-9h8l9 2 5 4v5l6 8 1 13v4l-2 8h-12l-1-5-9-3v-4l-6-2v-9l-7-4zm87-5l7-2v6l-4 2h-2zm-33 12v-3h4 6l6 1 5 7 1 15-2 1-7-1 1-8-11-4zm-114 10l2-8h12l1 4-5 8h-10zm-378-1l5-5h5l1 12-8 9h-8l-4-3 5-5v-5zm392 19l3-3 5 1-2 8h-6z"/>
		<path id="Path 22" class="s22" d="m793 498l3-4h4l20 15v15l-6 1h-4l-3-9h-5l-1 5-4 1-2-2-2-15zm-78 5v-3h14l4 8 8 4 8 1 7-5h2l3 4h6l4 1v7l10 9v4l10 6v7h-4l-6-2-2-6h-6l-3-4-20-4-3-4h-11l-22 7-11-1-13-2v-10h3 10l2-7 4-3 7-2zm-666 9l5-1 2-6h4l7 5v6l-11 3-7-5zm120 4l4-2h6v12h-4zm112 0v-2h10v8 6h-10zm-196 8l1-4 7 4-2 2zm-18 7l1-3h7 6v8l-4 1-10-3zm566 22l2-7 9-1 3-5 16 2v4l-11 4zm-545-7l12-2 4 5-3 5-8-2zm503 22l4-14h8v2l-2 12-3 4h-5z"/>
		<path id="Path 23" class="s23" d="m206 413l15-2v7l-7 4-8-6zm100 29l-5-5v-7h2 6v10zm53 22v-3l-8-5v-7l8-3 2 3 8 1v12zm152 2v-7l5-5h5v6l2 8-2 1h-6zm67 5l1-5h12l3 9h-14zm-195 19v-12h7l3 8-2 12h-1l-6-3zm68 0v-6h6v4zm232-4l7-1 3 3v6h-2l-8-2zm-134 3l2-1 1 6h-3zm-189 7l3-7 8 2 2 18h-3zm117 8v-14h16l10 7v17h-9l-9-2-1-7zm170-11l6-1v5h-6zm-192 11l5-4 5 5v3h-6zm-321 26l8-8 4 3-1 5z"/>
		<path id="Path 24" class="s24" d="m320 402l-5-14h3 6l1 14zm47-8v-4h2l31 3 1 1v4l-27 2zm454 64v-10h10 6l5 5-1 13 5 10-7 4-7-1-4-14zm-784 59v-3h12l7 5v6l11 6v3l-7 3-14-9-2-2zm760 5l4-1 2 7h-3zm-425 28v-2h2zm-104 41v4l-7 5h-10l-9-5-5-15h2l15 4 2 3 9 1zm-53-3v-7h9l1 1v6zm78-1v-3h6v4zm177 13l9-4 1-4h33l6 7v6 1h-11l-16 2h-9-10zm68 2l-1-10h16l3 6-2 2h-1l-7 2h-1z"/>
		<path id="Path 25" class="s25" d="m457 470l6-1v11h-6v-5zm251 12l5-4h5l1 4 12-3 1 5-2 6 3 3-4 7h-14l-1-9-5-3zm-29 12l4-2 8 2v13l-8-3zm-408 4l6-3 4 1-2 6-4 4h-3zm24-2l8-1v5h4l1 2-6 4h-3l-3-6zm332 24v-4h4v4zm-37 4l2-4h5 6l9 3 1 5-6 4-8-2h-6zm-299 4v-6h4l8 7v9l-7-2v-5zm-210 0v-4h4l6 2 2-2 16 7 4 3h10v5l-6 2v8h-13l-4-5-12 2-5-2v-2l-2-6zm465 27l-3-5h8l2 4z"/>
		<path id="Path 26" class="s26" d="m743 484l3-4h8l2 4h7l2-3h6v4l4 1 1 4-1 5-15-1 1 10-3 4h-2l-1-4 2-5-20-1-2-4 8-4zm-441 22l6-4 5 3 1 7 6 5 5 17-2 8h-6v-2l-1-5-4 3h-9v-9l-8-7v-10l5-1zm390 8l1-6h4l8 5-2 7h-10zm75-2l4-2v3zm-94 10l4-4 13 2v10l-16 4zm-598 6v-4h6v4zm528 26l4-7 14-1 20-9 6 3-3 5-9 1-2 7-6 3v6l-2 2h-12l-2-8h-8zm-24 3l14-3h2l-4 14-6 1-3 6-9 3h-4-5l-2-5 8-7h5l4-4zm-438 14v-11l11 1 1 7v5h-1zm286 35v-5l5-2 6 5-3 6h-7z"/>
		<path id="Path 27" class="s27" d="m461 416v-4h10v4zm136 32l-2-12h6l2 1v11zm-322 66l-7-2v-4l4-2h3l2 4zm142 122l1-4 15-2 2-4 22 2v4h-9l-11 8v17l15 12 3 9-18-4-3-6h-6l-4 4-3-2-1-1-2-5 11-13v-4z"/>
		<path id="Path 28" class="s28" d="m293 387l5-1h5l12 2 5 14-3 3v7h-10l-2-10-12-3zm546 93l7-4 5 4 2 11-2 7h-2-7zm-572 14l3-4h7v5l-6 3zm56 48l2-8h4v8h-4zm115-2v-1l4 2zm-213 42l9-2h3l5 15 9 5h10l7-5v-4h9l2-1 6-2 8-1 6 1h18l2 8v2l-23-2-3 12-26-2h-1l-14-2h-10-2l-13-2h-1l-1-1 2-5-2-8zm134 20l2-8 19 1 8 8 2 8h-21l-2-5h-5zm87 6l2-8h22l3 8-4 1-8 1-7-1-5 1z"/>
		<path id="Path 29" class="s29" d="m259 418v-4l4-2h2v7l-2 1zm15 5l1-11h3l8 2v8l-3 3-5 1zm-85 3v-5h3l2 4-3 1zm618 18l7-2h3v2l-15 6v-3zm-16 7l6-1 1 2-8 8-3-3-11 2v-4zm-168 25l8-8 7 3 3 9v10l-6 4h-8l-2-4zm-58-4l13-1 2 4-3 7h-12zm90 2l11-3 1 3h6l1 12-6 2-1 4h-8-6zm-118 12v-4h5l7 7v5h3l-1-6 4-2h4l1 2 3 5 1 15h-5l-1-6-7-6-8 2-4-3zm-136 22h-4l-1-5 5 1zm-126 54v-10h6l-2 10z"/>
		<path id="Path 30" class="s30" d="m252 387h41v12l-4 5h-7l-4 8h-3-10-2l-4-3v-7l-8-15zm181 7v-6h9l10 5-1 9h-5zm-116 18v-7l3-3h5l4 2v13l-11-1zm-184 50l14-2 4 2v8l-4 1v9l2 14-2 1-8-5v-7l-6-9zm705 54l11-6v-12h2 4l2 10 2 10-4 12h-17l-2-6zm-15 18l9-2-3 8h-8zm-395 2l9-1 1 4v1h-4l-3 6h-3zm367 13l8-1 3 3-2 3-9-4zm-476 47h9l7-6h14l4 12-2 9-32-1v-12zm77 28l-3-8h10l18 2h1l1 4h12v4l-2 4-15 2-1 4h-10l-3 3-2-1v-1l-2-4-2-4v-1zm28 48l4-4h6l3 6-7 7-6-7z"/>
		<path id="Path 31" class="s31" d="m754 480l1-4h7l3 5-2 3h-7zm21 15l1-5 2 1v4zm-4 18v-3h10l7 4 1 6v8l8 11h6l2-5 4-2 1-7h4l3 3v4l6 2-2 6-2 3h-8l-2 7-3 1-3-3-8 1-4-3v-7l-10-6v-4l-10-9zm-108 8l2-1 8 2 1 12-7 8h-4l-16-2-6-3-20 9-14 1-4 7h-8-2v-7l6-6 8-4v-5l6-4h12 6l1-4 11-2h13l7 3zm-98 6l2-1 3 4h-5zm-412 46v-5h9l3 3v3z"/>
		<path id="Path 32" class="s32" d="m93 459l18-9 4 10-6 14-5 4-1 13-8-3zm40 15h-7l-5-6v-9l10-1 2 4zm44-6l1-4h9v11h-8zm-104-1l8-2v5l-6 2zm184 1l2-2 2 1v2zm198 210l-3-9-15-12v-17l11-8h9l2 8-11 6v9l7 8v4l6 3-3 13-3-1zm-51-39l3-3h10l12 11v4l-11 13-3-2-5-7-2-3v-1l-2-4-2-5z"/>
		<path id="Path 33" class="s33" d="m265 419v-7h10l-1 11h-6zm217 35l-1-13 8-1 2 11h-4l-1 3zm-15-11l8-1 3 12-12-2zm58 8l1-5 9-4 1 14-6 4-1 7-6 1-2-8 7-1v-6zm272-1l5-3v3 1l-4 1zm-334 19v-3h6v5l-2 10-4 1v-2zm210 5l2-7h4l2 5 11-2 5-2 9-1 1 7 6-3v7l-5 4-4 2-6 3-5 1-3-3-7 1-7 2-2-2zm-161 1l3-6h6v6l8 5v4h4l4 2 2 9 4 3v4h-12l-6-6-1-7h-9l-3-3 2-3zm129 5l7-1 1-10h6v5l-2 18-6 1-6-3zm-47-5l9-2 4 3-1 8h-8l-9 9-6 1-9 1-1 3h-3l-2-7-3-3v-4-2h12l3-7zm33 41l-1-13-6-8v-5h5l2 4 5 16 3 1v4l-4 1zm-373 68l9-14h6v14l-4 4-9-1z"/>
		<path id="Path 34" class="s34" d="m471 412l4-5v-6h6l2 3 2 16h-2l-3-3h-7l-2-1zm-148 26h-3l-1-4h4zm-90 3l3-1h6l3 6 5 1 1 4-9 3-3-2zm558 4l16-4v3l-5 3-5 3-6 1v-5zm-711 13l1-2h4v2l-4 3zm83 18v-12h8l3 4 4 18-13 4zm-124 10v-5l6-6 12-6 2 5v10l10 2v6 6l-9 2-9-1v-10l-3-3zm108 26v-5l4 2zm395 28l1-6h6v4l-1 4-5 1zm-187 22l6-2h6l2 4v4l-6 3-8-5zm66 56l7-8h7l2 4-2 4h-13z"/>
		<path id="Path 35" class="s35" d="m147 480v-9l4-1 4 2v4zm42 26l11-1v7l-10 15-5-1 2-14zm612 15l1-5h5l3 9-1 7-4 2-2-6zm-200 47l12-4h12l4 7-5 6-3 3-8 1-4-5-11-1v-3z"/>
		<path id="Path 36" class="s36" d="m207 488l10-2 6 6v6 5l-16-3zm486 0l5-1 1 3h4l4 7-1 3h-9v-5l-4-1zm-658 23l6-5 4 1 4 5v2h-12zm785-2l8-3 5 2 4 2 1 6-2 8 2 6-6 2-9 2-6-2v-4l3-4zm-106 24l22-7h11l3 4 20 4 3 4v4l-13-3-11-2-13-1-10 1-11 2zm92 18l3-1 2-7h8l-3 13-6 1h-3l-3-3zm-11-1l-8-4h4l4 3zm-202 26v-4h5v3zm-148 10v-12h7l3 8-4 4zm-242-5h12v7 2h-8l-4-4zm366 3v-2h4l6 3v7l-6 2h-2zm-292 7v-3l2 2z"/>
		<path id="Path 37" class="s37" d="m485 420l-2-16h8l15 4 3 10 8 1v1l1 2-8 5-13-2-6-5zm336 24l10-4v8h-10zm-740 17l4-3 8 1 2 29-2 3h-7l-5-1-2 3-2 1-8-2v-6l6-8v-6l6-2v-5zm97 25l-4-18h3l2 7h8l7 4v3l-3 6zm75-16v-2h4l4 1v2 8zm82 120v-11l6-2 3-5h10l6 4-6 11-5 3zm100 28l2-4 9 3 9-2 9 4 3 2-10 7-22-2v-4zm-5 63l7-7 18 4v4l3 1-2 5-5 5h-8l-6-4z"/>
		<path id="Path 38" class="s38" d="m242 440l3-3h5l5 6-5 4-5-1zm491 53l-3-3 2-6h11v6l-8 4zm-636 5l-4-4 5 1zm540 12l9-2 11 4-1 8v2h-13l-1-4-7-3v-4zm-12 18l2-8h4l1 4-1 4zm-47 0l2-4h7 3l3 6-2 5h-3zm-455 6l11-4h11v7l-22 2zm442 4v-8h5l3 3v7zm-321 6l6-7 13 3 4 4v6l-15 2-2-6h-6zm25 26l6-8h4l-2 18v4h-8z"/>
		<path id="Path 39" class="s39" d="m698 487l6-3v4l-1 2h-4zm-600 8l5-1 4 4-1 10-3 2-1-7-4 1v3l-2-2 1-7zm-38 5l9-2h6v6l-2 4-6 2-7-5zm233 2l3-2 3 6h3l-2 5-5 1h-2zm540 6l4-2v4zm-654 6l8-2-2 14h-6zm524 31v-13l11 1 1 6 2 4-9 2zm-51 5l11-4 6 4-1 7-25 10-14 4-4-7 2-2 22-6zm-551 4l3-5h13l8 4v13l-20-8zm472 24l9-3 3-6 6-1 2 4v4 6l-14 3-6-3zm-288 2l1-1 7 1v4 3l-8 1z"/>
		<path id="Path 40" class="s40" d="m451 402l1-9 11 1 12 7v6l-4 5h-10zm-366 110l4-1h6v3h6l1 7 7 1v9l-16-7-7-4-3-4v-4zm350 15l-5-2 2-4 3 1zm397 5l6-2h17l1 1v6l-6 5v4l-14 2-4 6-16 2 3-13 2-3h8zm-520 6l4-3 1 5zm-173 34l2-1 11 2-1 9-12-4zm293 27l1-3h12l3 4-2 8-8-4zm25 29l10-7 6 6-1 13-1 1-12-1-2-8z"/>
		<path id="Path 41" class="s41" d="m236 440l1-11 8 1v7l-3 3zm577 0l4-2 2 1-2 3h-3zm-571 14l9-3 8 15-2 2h-4l-1-6-10-5zm-160 41l4-4h7v3l4 4-1 7h-9l2 6-4 1v-8l-5-2zm-13 3v-6l8 2-2 4zm298 60v-4h4v4zm-18 7v-5l6 2v4zm-32 5l8-4h4l-2 10-10 2zm86 39l16-3h8l1 4-7 8-18-2z"/>
		<path id="Path 42" class="s42" d="m787 475l6 1 1-4 9 2v14l-3 6h-4l-1-4h-8v-2zm-6 35l-2-12h6l1 7h7l2 15h-6l-1-6zm-708-2l2-4h2v4zm668 4v-7l14-1 1 4-7 5zm-646-1l3-2 5 1-2 4h-6zm-20 13v-8h8l3 4-1 4h-4zm599 10l16-4 13 2v13l-27 9-7-4-6-4v-4h4zm-597 3l4-1 2 6-5-1zm556 16l19-3-3 6-22 6v-6zm-32 15l2-12h8l2 8z"/>
		<path id="Path 43" class="s43" d="m263 420l2-1 3 4h6l4 3 1 6 9-1 13-1v7l5 5v9l-5 3 2 18-1 3 3 2-2 3h-10l-1-14-5-2-2-14-8-8-2-7-3-3h-7l-2-4zm247 7l8-5 9 1v13l-16 2zm-265 10v-7h9l1 5h4v9l-4-1-5-6zm562 4l6-1 1 2-7 2zm-356 43l-3-12 9 3v5 4zm122 14l1-3 9-1v4l-6 3z"/>
		<path id="Path 44" class="s44" d="m44 500v-2h3l2 1v3h-4zm181 12v-3h2l2 5-2 5zm589 13l6-1-3 4zm-598 23l1-10 4 1v7zm-11 6l6-1 5 7h6l2 3-5 4-21 9 1 5h4v5l4 4h8v9h-3l-7-1-8-2-2-2-1-9-7-1-4-2v-4l1-6 8-4zm388 22l5-1 11 1 4 5-4 5h-8l-8-4zm-244 14l5-3 7 7-2 8h-6z"/>
		<path id="Path 45" class="s45" d="m465 453l1-1 12 2h4 4l5 5 20 7 4 3-3 6-14-1-2-3-6 2-17 4-4-6v-5-7zm90 20l10-1v10 2l-6 2h-4zm-303 79l15-2 8 2v10l-6 8h-6l-9 14-15-4v-6l8-6 3-14z"/>
		<path id="Path 46" class="s46" d="m431 445l6-2 4 1 1 5 6-1 5 3 4 4 8-2 4 6v7h-6l-5-1-13-4-6-5h-10l-18-3-4-4v-3l4-1zm282 26l6-5h9l4 5 12 4 2 5-3 4h-11l-1-5-12 3-1-4h-5zm-190-3l6-1 4 5 19-3 3 4v13l-4 2-2 1-7-7h-5-4l-4-2-8-5v-6zm-425 39v-3l4-1 1 7-5-1zm140 48l12-1-3 14-8 6v6h-2-3l-3-4 2-15z"/>
		<path id="Path 47" class="s47" d="m76 548l7-4 5 2 5 6 8 2 4 4-3 4-5-1-13-6-6-4-2-2zm75 34l1-9h1l12 1h13l5 4v4l4 2v8l-12-2-16-5zm142 26l3-12 23 2v12l-25-2zm58 3l2-9h6l3 4h5l2 5z"/>
		<path id="Path 48" class="s48" d="m221 411l18-1v8l6 4v8l-8-1-5-9-11-2zm82 3l4-2h10l1 4-1 14h-8-6zm-46 14v-10h2l4 2v8zm270 8v-13l22 4 22 5v2l-1 9 8 7 1 16-1 5-13 1-1-14-11-2-2-3v-10l-3-3h-11l-3-4zm-16 9l-14-7v-13l13 2 1 11zm-183-13l3-4h6l3 5-2 5h-3zm109 11l1-13h8l7 8v13l-5-3-6 1-1-5zm-178-8l6-3h7l3 3 2 7 8 8 2 14-6 6-8-1-5-9-3-12-6-4zm385 13l1-3h5 2l9 2 2 1v6h-9l-9-1zm-341 24l-2-18 5-3 9 7 4 10h6l5 2 2 7-6 3-9-2-2-6h-5zm154 12v-4h6v2l-2 6h-4zm-364 7l2-3 8 3v3l-5 1-5-1zm542 20l-3-1-5-16h8v4l2 6v6z"/>
		<path id="Path 49" class="s49" d="m60 537l7-3 10 3 1 4 5 1v2l-7 4zm162 23l1-2h8v1l-7 4zm-44 14l6-2-1 6zm401 11l14-3 8 4v3l-6 3-2 6h-6l-6-4-2-2zm-392 7v-8l7 1 1 9zm28-2v-2h10l2 8-2 5-10-2z"/>
		<path id="Path 50" class="s50" d="m123 539l22-2 8 1v10l-11 3-4 5-13-3-8-4v-8zm115 15l6-8h6l2 6-2 2-12 1zm-14 9l7-4 2 2-2 15 3 4-9 2-1-1-5-14z"/>
		<path id="Path 51" class="s51" d="m249 411l10-2 4 3-4 2v4h-2-8zm357 73l1-8h2l6 4v6zm-73 0v-2h4v4zm50 10l6-1 1 8 7 4v9 6h-5l-2 4h-3l-6-18-4-2v-3l6-3zm-542 12v-5l3-1 1 2v5zm276 40v-4h6 2v6zm-26 22v-22h16v5l-4 15z"/>
		<path id="Path 52" class="s52" d="m828 435l6-2 3 1-1 4h-3l-5-2zm-161 57l1-4 6-2 2 2 1 6zm-216-2l6-2h4l-1 12-5 4-6 2-5-3-2-7 7-2zm184 4l6-4 6 3v4h-4v3h-4l-4-2zm-274 66v-6h6v4 2zm-68 20l14-9 10-1v8l-14 2-4 4h-6z"/>
		<path id="Path 53" class="s53" d="m793 505h-7l-1-7h2 6zm-593 7l20-2 5 2 2 7-2 9-6 3-2 7-1 10-5 5-6 1v-16l-6-5-9-1-3 4h-12v-10h4 6l5 1z"/>
		<path id="Path 54" class="s54" d="m175 536h12l3-4 9 1 6 5v16l-13 14-8 4-6 2h-13v-3l3-2-1-11 4-5v-7l2-9z"/>
		<path id="Path 55" class="s55" d="m193 420l10-4v8l8 2 1 5-7 1-14-6 3-1-2-4zm-19 7l4-1 2 2-7 2z"/>
		<path id="Path 56" class="s56" d="m200 505l7-5 16 3 2 6v3l-5-2-20 2zm-144 14l11-3h8v8 4h-7l-1 3-11-6zm69 47v-13l13 3 3 4v11l-2 1zm152 18v-4h8v8l-6 2-2-2zm158 26l3-6 8 4 3 2 6 4v1l-9 2-9-3z"/>
		<path id="Path 57" class="s57" d="m771 481l9-7h5l2 1v13l-7-1-5-1-4-1zm-625 44h8l8-9h7l6 10v10l-2 1h-3l-4-7h-6l-7 8-8-1v-7zm659 9l-2 5h-6l-8-11v-8h6l2 2 3 6h3zm-571 21l4-1v1l-5 6-2-2v-1zm-82 6l7-3h8l1 11-3 2-3-3h-9zm51 20h-4l-1-5 21-9 5 14h-9z"/>
		<path id="Path 58" class="s58" d="m153 538l7-8h6l4 7h3l-2 9-9 1-3 11-7 3-11-1-3-4 4-5 11-3z"/>
		<path id="Path 59" class="s59" d="m211 426l-8-2v-8h3l8 6zm28 26l-6-2-8-9-1-5h3l6 5zm580-13l9-3 5 2-2 2-10 4h-4v-2zm-694-1l7-1-3 5-4 1-8 3v-4zm200 110l10 2 3-5 14 2 1 6-4 5-19 1-5 3h-15l-7 4 4-15h3l1-4 6-1z"/>
		<path id="Path 60" class="s60" d="m325 562l5-3 19-1v2 5l-20 1h-4z"/>
		<path id="Path 61" fill-rule="evenodd" class="s61" d="m527 302l6-6h4l4 12-2-1-1-3-2-7zm14 19v-13l2 6zm-4 18l3-14-2 14zm16 73l5-3-1-5 2 6-6 3zm177 138l4-1h1l-8 4zm-8 6l3-3h2l-7 6zm-611 11l-14-6 5 1z"/>
		<path id="Path 62" class="s62" d="m229 388l23-3v2h-1l-22 2zm89 0v-2h13v2h-7zm-133 10l6-4h8zm-64 28l27-13-24 13zm722 3l21-10-11 7-8 4z"/>
		<path id="Path 63" class="s63" d="m245 422l4-4h8v10l-3 2h-9zm104 136l4-5 8 1v6l-6 2-6-2zm-46 8l7-4h15v4l-8 4-10 1-14 9-7-1v-5l5-6z"/>
		<path id="Path 64" fill-rule="evenodd" class="s64" d="m331 388v-2l10 2zm30 2v-2l8 2zm240 46v-1l5 2h-3zm-511 3l3-2v1zm-6 2l5-2-2 2zm-42 52l-6-7h3l8 12h-3l-2-3zm694 43l13 1v1h-13zm-577 50l-22-8h2l12 4 8 3zm414 8l6-2 2 2zm-90 16v-2h10zm-22 0l8-1v1zm-57 32l-2-4 2 1zm16 27l-5-7 3 2zm41 1l4-7-5 21-4 4 2-5zm-37 4l-3-4 3 2zm16 20l-3-5 6 4v1z"/>
		<path id="Path 65" class="s65" d="m978 415l2-4h1v2zm-459 3l12-2-8 4h-6v-1zm389 74l2-1-1 14-2-5zm-240 126l2-6 1 13-2-1z"/>
		<path id="Path 66" class="s66" d="m252 385l46 1-5 1h-41zm63 3l-12-2h15v2zm28 1l-2-1h20v2zm-250 48l25-10-7 5-18 6zm-18 112l-16-9-13-12 14 9 16 11v1zm84 37v-1l16 5zm38 10l-22-6 12 2 8 2zm15 4v-1h3l10 2 1 1zm82 10v-2l25 2 32 1h18 21v1zm175-1l4-1h10v2h-14zm3 31l1-13 2 10-2 3z"/>
		<path id="Path 67" class="s67" d="m818 437l4-2h2 4v1l-9 3-2-1v-1z"/>
		<path id="Path 68" fill-rule="evenodd" class="s68" d="m824 435l13-4-3 2-6 2zm-75 103v-1l11 2v1zm28 7v-1h4l6 2 8 4 9 4 3 3zm-699 6l-3-2h1zm134 49l-7-2 7 1zm342 0l2-2h5zm-302 6l-10-2h10zm42 4l-27-4 26 2h1zm214-2v-2h11zm-112 16l-6-12 3 4zm75 17l1-1h1l-2 5zm-28 52h8l5-5-4 6h-9z"/>
		<path id="Path 69" fill-rule="evenodd" class="s69" d="m400 393l-31-3 31 2zm149 34v-1l52 9v1h-6l-7-2-9-1-8-1zm242 18l26-8v1l-4 2-6 1zm-176-5v-1l12 2zm26 4l-2-1 11 2h-5zm20 3v-1l12 2h-10zm77 9v-2h4v2zm-694 70l-9-9h2zm671 13l11-2v1l-7 2 3 2v1h-5zm45 1v-1l13 3 4 2v1zm-241 65l15-1-15 2zm-64 9l1-1 8 6-9-4z"/>
		<path id="Path 70" fill-rule="evenodd" class="s70" d="m965 582l2 20-2 1zm-15 30l-1 2-15-2zm-281 28v-16l2 1z"/>
		<path id="Path 71" class="s71" d="m699 453v-1h3l1 2zm27 84l10-1v2h-10zm-4 6v-1l16 1 1 5-4 1h-1l2-4-7-1h-6zm-470 63v-2l14 2zm240 2l16-2v2h-15z"/>
		<path id="Path 72" class="s72" d="m543 414l2-2h8v1z"/>
		<path id="Path 73" class="s73" d="m539 364l-2-25h1l3 28zm-329 28l19-4v1l-10 2zm770 9l-1-6 2 1v15h-1zm-906 44l10-4-3 3z"/>
		<path id="Path 74" class="s74" d="m19 494l8-3 15 4 2 3v2l-3 1v5l-6 5-8-3-6-7z"/>
		<path id="Path 75" class="s75" d="m245 422l-6-4v-8h8l2 1v7zm-60 0l4-1v5l-9 2-2-2zm-98 31l26-11h4v4l-6 4-18 9-8-1v-2zm-30 16l23-11 1 3v4l-8 2-14 7zm20 25l2-1 3 2-2 7-3 2h-2v-6zm230 57v-5l4 1-1 4z"/>
		<path id="Path 76" class="s76" d="m400 392h23l4-3-2 4-24 1-1-1zm268 58v-2h5l8 1v2h-2z"/>
		<path id="Path 77" fill-rule="evenodd" class="s77" d="m518 422l-1-2h6l26 6v1l-22-4zm109 20v-1l11 2h-7zm34 5l-9-2 9 1zm115 2l6-2v1zm-95 2v-2l18 3v1h-4l-8-1zm22 3l-1-2 24 2v1zm46 0l9-1-9 2zm-722 37v-1l15 3v2zm-10 3l2-1v1l2 7-4-3zm432 116l5-1 2 4-1 1z"/>
		<path id="Path 78" class="s78" d="m35 517l-8-9 8 3 2 3v3z"/>
		<path id="Path 79" class="s79" d="m159 558l3-11 9-1v7l-4 5z"/>
		<path id="Path 80" class="s80" d="m782 447l9-2v1l-9 2zm-13 4l7-2-2 2zm-234 153l3-2h7z"/>
		<path id="Path 81" class="s81" d="m726 455v-1h12v2h-6zm16 1v-2h7v1l-4 1z"/>
		<path id="Path 82" class="s82" d="m19 493l3-4 5 1v1l-8 3z"/>
		<path id="Path 83" class="s19" d="m776 516h5l1 5h-4z"/>
		<path id="Path 84" class="s35" d="m773 542v-4h6l2 6h-4z"/>
	</g>
</svg>