<svg version="1.2" xmlns="http://www.w3.org/2000/svg" viewBox="0 0 1000 1000" width="1000" height="1000">
	<title>Ichthyomyzon_castaneus (1)</title>
	<style>
		.s0 { opacity: .4;fill: #bab099 } 
		.s1 { opacity: 1;fill: #b4a68a } 
		.s2 { opacity: .9;fill: #89817a } 
		.s3 { opacity: .1;fill: #c2beb3 } 
		.s4 { opacity: .1;fill: #baaf95 } 
		.s5 { opacity: .1;fill: #756d68 } 
		.s6 { opacity: .1;fill: #544841 } 
		.s7 { opacity: .1;fill: #928773 } 
		.s8 { opacity: .7;fill: #9f9480 } 
		.s9 { fill: #64451e } 
		.s10 { fill: #7d5422 } 
		.s11 { fill: #704d1f } 
		.s12 { fill: #564329 } 
		.s13 { opacity: .1;fill: #9c9995 } 
		.s14 { opacity: .7;fill: #6c625a } 
		.s15 { fill: #5f3f1c } 
		.s16 { fill: #4a3625 } 
		.s17 { opacity: .2;fill: #b9b09a } 
		.s18 { opacity: 1;fill: #463a34 } 
		.s19 { opacity: .6;fill: #aca391 } 
		.s20 { opacity: 1;fill: #3f2e23 } 
		.s21 { fill: #6d5627 } 
		.s22 { fill: #694b1f } 
		.s23 { fill: #886126 } 
		.s24 { opacity: .6;fill: #888077 } 
		.s25 { fill: #362318 } 
		.s26 { fill: #604920 } 
		.s27 { fill: #4d3319 } 
		.s28 { opacity: .6;fill: #9d8454 } 
		.s29 { fill: #755221 } 
		.s30 { opacity: .4;fill: #6f6862 } 
		.s31 { opacity: .5;fill: #a19682 } 
		.s32 { opacity: .5;fill: #51463e } 
		.s33 { fill: #432b18 } 
		.s34 { opacity: .4;fill: #b19b6c } 
		.s35 { fill: #583e1d } 
		.s36 { opacity: .3;fill: #aaa190 } 
		.s37 { fill: #7c5a23 } 
		.s38 { opacity: .1;fill: #d2d0c4 } 
		.s39 { opacity: .3;fill: #beb59e } 
		.s40 { fill: #806228 } 
		.s41 { opacity: .3;fill: #cfcbba } 
		.s42 { fill: #9f814c } 
		.s43 { opacity: 1;fill: #94743f } 
		.s44 { fill: #8d6b39 } 
		.s45 { fill: #6c461d } 
		.s46 { fill: #4d3920 } 
		.s47 { opacity: .3;fill: #a18856 } 
		.s48 { opacity: .6;fill: #b4a17a } 
		.s49 { opacity: .3;fill: #4a3d36 } 
		.s50 { opacity: .3;fill: #928a7c } 
		.s51 { fill: #a68a57 } 
		.s52 { fill: #866831 } 
		.s53 { fill: #685026 } 
		.s54 { fill: #8f6b2b } 
		.s55 { opacity: .3;fill: #75644b } 
		.s56 { fill: #7a5f30 } 
		.s57 { opacity: 1;fill: #947a4d } 
		.s58 { fill: #604a2a } 
		.s59 { opacity: .7;fill: #bbb197 } 
		.s60 { fill: #634e25 } 
		.s61 { opacity: .1;fill: #b4a177 } 
		.s62 { fill: #83663a } 
		.s63 { fill: #6d562c } 
		.s64 { opacity: .6;fill: #c7c0aa } 
		.s65 { fill: #6b5531 } 
		.s66 { fill: #5a4522 } 
		.s67 { fill: #574325 } 
		.s68 { opacity: .8;fill: #bcb197 } 
		.s69 { fill: #5e4a25 } 
		.s70 { fill: #554121 } 
		.s71 { fill: #715824 } 
		.s72 { opacity: 1;fill: #b09768 } 
		.s73 { fill: #6a5121 } 
		.s74 { fill: #775d27 } 
		.s75 { fill: #52391b } 
		.s76 { opacity: 1;fill: #9d7633 } 
		.s77 { fill: #5b441e } 
		.s78 { opacity: 1;fill: #a67f3b } 
		.s79 { fill: #251b17 } 
		.s80 { fill: #715b29 } 
		.s81 { opacity: .8;fill: #7e766f } 
		.s82 { opacity: .9;fill: #a28a5b } 
		.s83 { fill: #7a622a } 
		.s84 { opacity: 1;fill: #50453d } 
		.s85 { opacity: .8;fill: #84683a } 
		.s86 { opacity: .7;fill: #9a814f } 
		.s87 { opacity: .1;fill: #967b47 } 
		.s88 { opacity: 1;fill: #857764 } 
		.s89 { opacity: 1;fill: #6f6255 } 
		.s90 { opacity: 1;fill: #a69678 } 
		.s91 { opacity: .4;fill: #90723e } 
		.s92 { opacity: .8;fill: #ae9667 } 
		.s93 { opacity: .5;fill: #c8c1ab } 
		.s94 { opacity: .6;fill: #90723b } 
	</style>
	<g id="Background">
		<path id="Path 0" class="s0" d="m541.3 444.3v-1h4.4l-0.4 1.4h-3.3z"/>
		<path id="Path 1" class="s1" d="m545.3 444.7l0.4-1.4h4.3v1.4z"/>
		<path id="Path 2" class="s2" d="m550 444.7v-1.4h8.3l0.4 1.4-2.7 0.6z"/>
		<path id="Path 3" class="s0" d="m558.7 444.7l-0.4-1.4h1.4l0.3 1v0.4z"/>
		<path id="Path 4" class="s3" d="m560 444.3l-0.3-1h1v1z"/>
		<path id="Path 5" class="s4" d="m525 445.7l1-1.4h3.7v0.4l-3.7 1.3z"/>
		<path id="Path 6" class="s5" d="m529.7 444.7v-0.4h4.3v0.7h-1.7z"/>
		<path id="Path 7" class="s6" d="m534 445v-0.7h7.3l0.7 0.4-3.3 0.3z"/>
		<path id="Path 8" class="s6" d="m560 444.7v-0.4h0.7 6v0.7h-3z"/>
		<path id="Path 9" class="s7" d="m566.7 445v-0.7h4v1z"/>
		<path id="Path 10" class="s3" d="m570.7 445.3v-1h4.3l0.7 1.7h-4z"/>
		<path id="Path 11" class="s8" d="m526 446l3.7-1.3 2.6 0.3-2.3 1.3h-4z"/>
		<path id="Path 12" class="s9" d="m538.7 445l3.3-0.3h3.3 4.7l6 0.6v1.4l-2 2h-3l-0.3 1.3h-4l-1.4-1.3h-6.6z"/>
		<path id="Path 13" class="s10" d="m556 445.3l2.7-0.6h1.3l3.7 0.3 1 3 6.6 0.7 3.4 0.3 2.6 3v5 3.7h-15l-1-1.4h-3l-1-1v-2.6l-2.6-3h-4v-2.7l0.3-1.3h3l2-2z"/>
		<path id="Path 14" class="s11" d="m530 446.3l2.3-1.3h1.7 4.7v3.7l-8.7-0.4z"/>
		<path id="Path 15" class="s12" d="m571.3 448.7l-6.6-0.7-1-3h3l4 0.3 1 0.7z"/>
		<path id="Path 16" class="s0" d="m517.3 447.7l0.4-1.7 4-0.3 0.3 0.6-2.7 1.4z"/>
		<path id="Path 17" class="s6" d="m522 446.3l-0.3-0.6h3.3l1 0.3v0.3h-1.3z"/>
		<path id="Path 18" class="s3" d="m577.7 446l3-0.3 0.6 1.3-0.3 0.3z"/>
		<path id="Path 19" class="s13" d="m722.3 447.3v-1.3l1-0.3h4.4v0.6h-3.7l-1 1z"/>
		<path id="Path 20" class="s5" d="m727.7 446.3v-0.6h5.3v0.3l-4.3 0.3z"/>
		<path id="Path 21" class="s6" d="m733 446v-0.3h13.7v0.6h-7.4z"/>
		<path id="Path 22" class="s5" d="m746.7 446.3v-0.6h3.6v0.3l-2.3 0.7z"/>
		<path id="Path 23" class="s13" d="m750.3 446v-0.3h7.4l0.6 1.6-1-1z"/>
		<path id="Path 24" class="s9" d="m571.3 448.7l0.4-2.7h4 2l3.3 1.3 0.3 0.7v4h-4l-2.6-3z"/>
		<path id="Path 25" class="s14" d="m728.7 446.3l4.3-0.3 6.3 0.3-3.6 0.7-2.4 0.3h-4.6z"/>
		<path id="Path 26" class="s8" d="m748 446.7l2.3-0.7 7 0.3 1 1v0.4h-2.3z"/>
		<path id="Path 27" class="s10" d="m519.3 447.7l2.7-1.4h2.7l0.6 2.4 2.7 0.6v4.7l2.7 1.3v4l-3.4 0.7-1.3-1-8.7-1v-6.3l2-1z"/>
		<path id="Path 28" class="s15" d="m528 449.3l-2.7-0.6-0.6-2.4h1.3 4v2z"/>
		<path id="Path 29" class="s8" d="m723 447.3l1-1h3.7 1v1z"/>
		<path id="Path 30" class="s16" d="m735.7 447l3.6-0.7h7.4l1.3 0.4 8 1 1.3 7.6v5.4h-4l-3.3-0.7-1.3-1.3-10-0.7-2.7-3-2.7-0.3 0.4-6.7z"/>
		<path id="Path 31" class="s17" d="m510.7 448.3l0.6-1.3 5.4 0.7-5.7 1.3z"/>
		<path id="Path 32" class="s5" d="m581 447.3l0.3-0.3h8l1.7 1.3h3l-1.3 1h-1.4l-1.6-0.3-0.7-1.7-2.7 0.7h-1-4z"/>
		<path id="Path 33" class="s13" d="m712.7 448.3l1.3-1.3 5 0.7-4.7 1.3h-1z"/>
		<path id="Path 34" class="s18" d="m733.3 447.3l2.4-0.3-2 1z"/>
		<path id="Path 35" class="s13" d="m759.7 447.7l2.3-0.7 1.7 1.3h3.6l1.7 0.7 0.3 1.3z"/>
		<path id="Path 36" class="s19" d="m586.3 448l2.7-0.7 0.7 1.7z"/>
		<path id="Path 37" class="s20" d="m719 447.7l3.3-0.4h0.7 5.7 4.6l0.4 0.7-0.4 6.7h-2.6l-2-2-13.4-0.7-1-3z"/>
		<path id="Path 38" class="s11" d="m511 449l5.7-1.3h0.6 2v3l-2 1v6.3h-6.6v-8.7z"/>
		<path id="Path 39" class="s20" d="m757.3 455.3l-1.3-7.6h2.3 1.4l9.6 2.6h2l0.7 0.4 0.7 1 9.6 1.6 4.7 0.4 5.3 1 3.4 0.6 0.6 1v1.4l-1.6 1.3v3h-5.4l-4-1.3h-20v-3.7l-1.3-1.3z"/>
		<path id="Path 40" class="s21" d="m581.3 452v-4h4v4.7z"/>
		<path id="Path 41" class="s22" d="m585.3 452.7v-4.7h1l3.4 1 1.6 0.3-0.6 3.4z"/>
		<path id="Path 42" class="s5" d="m506.7 448.7l4-0.4 0.3 0.7-0.3 0.3h-1.7z"/>
		<path id="Path 43" class="s23" d="m528 449.3l2-1 8.7 0.4h6.6l1.4 1.3-0.7 7.3 3.3 0.7 0.7 1.3h6.3l1-1 1 1h3l1 1.4h15l1.4 1.3 7.3 0.7 0.7 6-5.4 0.6-2-2h-12.3l-0.3 1.4h-16l-1.4-1.4h-4.6l-0.7-2.6h-9.3l-2.7-1.4v-4l1.7-1v-2.6l-3-0.4-2.7-1.3z"/>
		<path id="Path 44" class="s19" d="m592.7 449.3l1.3-1 1.3 1.7-0.3 0.3z"/>
		<path id="Path 45" class="s5" d="m706.7 450l1.3-1.7h4.7l0.6 0.7-2.6 0.3-2.7 0.7z"/>
		<path id="Path 46" class="s24" d="m502 450h3l0.3-1.3h1.4l2.3 0.6-2 1.4-5 0.6z"/>
		<path id="Path 47" class="s25" d="m710.7 449.3l2.6-0.3h1l1 3-0.6 0.7h-4z"/>
		<path id="Path 48" class="s26" d="m502 451.3l5-0.6 2-1.4h1.7v8.7h-13.4v-4.7l0.7-0.6z"/>
		<path id="Path 49" class="s10" d="m590.7 452.7l0.6-3.4h1.4l2.3 1 6 0.7 0.3 1v7.3l-10.6-0.6z"/>
		<path id="Path 50" class="s27" d="m708 450l2.7-0.7v3.4h-2l-0.7-2z"/>
		<path id="Path 51" class="s28" d="m498.3 451.3l1.7-1.3h2v1.3l-4 1.4z"/>
		<path id="Path 52" class="s29" d="m549.3 458l-3.3-0.7 0.7-7.3h4v2.7l-1.4 2.3z"/>
		<path id="Path 53" class="s30" d="m595 450.3l0.3-0.3h7.7l0.7 1.3h5.3l0.3 1.4h7.7l0.7 1.3h5.6v1h-5.6l-4-1.3h-4.4l-2.3-1.4-5.7-0.3-0.3-1z"/>
		<path id="Path 54" class="s31" d="m700 451.3l0.3-1.3h3.7v1l-3.3 1z"/>
		<path id="Path 55" class="s32" d="m704 451v-1h2.7 1.3v0.7z"/>
		<path id="Path 56" class="s17" d="m771.3 450.3l4.7-0.3 0.3 1.3-4.3-0.6z"/>
		<path id="Path 57" class="s24" d="m772 450.7l4.3 0.6h3.7l2.3 1.7v0.3l-9.6-1.6z"/>
		<path id="Path 58" class="s33" d="m704 451l4-0.3 0.7 2-3.4 2.6h-5.3v-3.3h0.7z"/>
		<path id="Path 59" class="s34" d="m472.7 454h17l1-1.3h4.3l0.7-1.4h2.6l-0.3 1.4-0.7 0.6-4.6 1-5.7 1h-14.3z"/>
		<path id="Path 60" class="s30" d="m692 452.7h2.3l1-1.4h4.7l0.7 0.7h-0.7l-9 2z"/>
		<path id="Path 61" class="s13" d="m782.3 453l-2.3-1.7h3l1.3 1.4z"/>
		<path id="Path 62" class="s23" d="m577.3 457v-5h4l4 0.7h5.4v6z"/>
		<path id="Path 63" class="s29" d="m601.3 459.3v-7.3l5.7 0.3 2.3 1.4v9.6l2.7 1.7v1 4h-3.3l-2.7-2-3.3-0.3v-7z"/>
		<path id="Path 64" class="s35" d="m691 454l9-2v3.3 4h-0.7-8.6l-2.7-0.6v-3.4l2-1z"/>
		<path id="Path 65" class="s9" d="m714.7 452.7l0.6-0.7 13.4 0.7 2 2v6l-2.7 1.3h-1.7l-1-1.3h-6l-0.6-2.7h-4z"/>
		<path id="Path 66" class="s11" d="m549.3 458v-3l1.4-2.3h4l2.6 3v2.6l-1 1h-6.3z"/>
		<path id="Path 67" class="s17" d="m689 454l0.7-1.3h2.3l-1 1.3-1 0.3z"/>
		<path id="Path 68" class="s22" d="m705.3 455.3l3.4-2.6h2 4v5.3 2.7h-6.4l-1-1.4h-2z"/>
		<path id="Path 69" class="s32" d="m782.3 453l2-0.3h2.7v1l-4.7-0.4z"/>
		<path id="Path 70" class="s19" d="m787 453.7v-1h3.3l2 2z"/>
		<path id="Path 71" class="s36" d="m792.3 454.7l-2-2h2.4l0.3 1.3h4l0.3 1.3h-1.6z"/>
		<path id="Path 72" class="s37" d="m492.7 454.3l4.6-1v4.7h-1.3l-3-0.3z"/>
		<path id="Path 73" class="s11" d="m612 466v-1l-2.7-1.7v-9.6h4.4l4 1.3 1 11z"/>
		<path id="Path 74" class="s38" d="m427.7 455.3l1-1 3.6-0.3-2 1.7z"/>
		<path id="Path 75" class="s39" d="m430.3 455.7l2-1.7h3.7v1.3l-4 0.7h-1.7z"/>
		<path id="Path 76" class="s0" d="m436 455.3v-1.3h36.7v1.3h-4.7-27.3z"/>
		<path id="Path 77" class="s31" d="m623.3 455v-1l9.7 1.3 1.3 1.7-0.3 0.3z"/>
		<path id="Path 78" class="s31" d="m679.7 455.3l1-1.3h4.3v1.3l-4.3 0.7z"/>
		<path id="Path 79" class="s32" d="m685 455.3v-1.3h4l1 0.3-2 1z"/>
		<path id="Path 80" class="s40" d="m487 455.3l5.7-1 0.3 3.4 3 0.3v5.3h-6.7l-2.6-2v-1.3z"/>
		<path id="Path 81" class="s22" d="m730.7 460.7v-6h2.6l2.7 0.3 2.7 3v2.7z"/>
		<path id="Path 82" class="s29" d="m618.7 466l-1-11h5.6l10.7 2.3 3.7 0.4 5.6 0.3h6.7 10.7 1.3v3.3l2 3 0.3 4.4 2 2 5 0.3 0.7 1.7v3.3l-6.7 1.7-1.6-1h-3.7l-0.7-5-1.3-1.4-8.7-1-2.6-2h-7.7l-0.3 6.7-1.4 0.7v2h-2v-3l-1.3-1h-6l-3-2.7-5-0.3v-3z"/>
		<path id="Path 83" class="s41" d="m408 455.7l4.7-0.4-0.7 1.4h-2-2z"/>
		<path id="Path 84" class="s0" d="m412 456.7l0.7-1.4h8.6v1.4h-1z"/>
		<path id="Path 85" class="s34" d="m421.3 456.7v-1.4h6.4l2.6 0.4v0.3z"/>
		<path id="Path 86" class="s42" d="m432 456l4-0.7h4.7l-0.7 2.7h-8z"/>
		<path id="Path 87" class="s43" d="m440 458l0.7-2.7h27.3v4h-8.7l-9 2.4h-10.3z"/>
		<path id="Path 88" class="s44" d="m468 459.3v-4h4.7 14.3l-0.3 4.7z"/>
		<path id="Path 89" class="s11" d="m530.7 459.3v-4l3 0.4v2.6l-1.7 1z"/>
		<path id="Path 90" class="s0" d="m669.7 456.7l2-1.4h5v1.4l-5.7 0.6z"/>
		<path id="Path 91" class="s32" d="m676.7 456.7v-1.4h3l1 0.7-2 0.7z"/>
		<path id="Path 92" class="s15" d="m680.7 456l4.3-0.7h3v3.4l-9.3 0.6v-2.6z"/>
		<path id="Path 93" class="s45" d="m705.3 455.3v4h-5.3v-4z"/>
		<path id="Path 94" class="s46" d="m757.3 460.7v-5.4l6.7 0.4 1.3 1.3v3.7l-1.3 0.3v2.3h-6.7z"/>
		<path id="Path 95" class="s30" d="m796.3 456.3l-0.6-1h1.6 2.7v1.4z"/>
		<path id="Path 96" class="s39" d="m800 456.7v-1.4l3.7 0.4 0.3 1-1 0.6z"/>
		<path id="Path 97" class="s38" d="m404.3 456.7l0.7-1h3v1l-3 0.3z"/>
		<path id="Path 98" class="s43" d="m421.3 456.7l9-0.7h1.7v2 3.3l-7.3 0.7-1.4-1.3h-3.3v-3l0.3-1z"/>
		<path id="Path 99" class="s16" d="m794.7 462v-3l1.6-1.3v-1.4l3.7 0.4 3 0.6 2.3 0.7v4z"/>
		<path id="Path 100" class="s47" d="m397.3 457l7-0.3 0.7 0.3v0.7h-7.7z"/>
		<path id="Path 101" class="s48" d="m405 457l3-0.3h2v1l-3.3 0.3-1.7-0.3z"/>
		<path id="Path 102" class="s1" d="m410 457.7v-1h2 8.3l-0.3 1-6.7 0.3z"/>
		<path id="Path 103" class="s49" d="m665 457l4.7-0.3 1.3 0.6-0.3 0.4h-5.7z"/>
		<path id="Path 104" class="s9" d="m671 457.3l5.7-0.6h2v2.6l-6 1-2-1v-1.6z"/>
		<path id="Path 105" class="s49" d="m803 457.3l1-0.6 2 0.3v1h-0.7z"/>
		<path id="Path 106" class="s38" d="m367.7 458l1.3-1h3l-0.3 1.3z"/>
		<path id="Path 107" class="s41" d="m371.7 458.3l0.3-1.3h6v1l-3.3 0.7h-2.4z"/>
		<path id="Path 108" class="s39" d="m378 458v-1h11v1h-5z"/>
		<path id="Path 109" class="s34" d="m389 458v-1h8.3v0.7z"/>
		<path id="Path 110" class="s11" d="m577.3 460.7v-3.7l13.4 1.7 10.6 0.6 1.4 1.4v7l-1.4 1h-7.6l-0.4 1.3h-6l-0.6-1.3-0.7-6-7.3-0.7z"/>
		<path id="Path 111" class="s49" d="m634 457.3l0.3-0.3h3.4v0.7z"/>
		<path id="Path 112" class="s30" d="m637.7 457.7v-0.7h5.3l0.3 1z"/>
		<path id="Path 113" class="s50" d="m643.3 458l-0.3-1h7v1z"/>
		<path id="Path 114" class="s39" d="m660.7 457v1h-10.7v-1z"/>
		<path id="Path 115" class="s50" d="m660.7 458v-1h4.3v0.7l-3 0.3z"/>
		<path id="Path 116" class="s36" d="m806 458v-1l7 1.3 1 1.4-1.3 0.3z"/>
		<path id="Path 117" class="s42" d="m389 458l8.3-0.3h7.7l1.7 0.3v2.7l-21.4 1-1.3-1v-2.7z"/>
		<path id="Path 118" class="s43" d="m406.7 458l3.3-0.3 3.3 0.3v2.7h-6.6z"/>
		<path id="Path 119" class="s44" d="m413.3 458l6.7-0.3v3h-6.7z"/>
		<path id="Path 120" class="s11" d="m662 458l3-0.3h5.7v1.6l2 1 6-1 9.3-0.6 2.7 0.6v6l5 3 0.3 1.7-0.7 3.3h-6.3l-1 1v6.4h-8.7v-3l-0.6-3.4-2.7-1.6h-4l-0.7-1.7-5-0.3-2-2-0.3-4.4-2-3z"/>
		<path id="Path 121" class="s34" d="m363 458.3l4.7-0.3 4 0.3 0.6 0.4-9.3 0.3z"/>
		<path id="Path 122" class="s51" d="m374.7 458.7l3.3-0.7h6v2.7h-9.3z"/>
		<path id="Path 123" class="s52" d="m432 461.3v-3.3h8v3.7l-5.3 0.3z"/>
		<path id="Path 124" class="s23" d="m496 463.3v-5.3h1.3 13.4 6.6l8.7 1 1.3 1 1 3.3-0.3 4.7h-5.3l-0.7-1.3h-5.7l-1.6 2.3-6.7 1-1.3-1.7h-3.7l-1.7-2.3h-5.3z"/>
		<path id="Path 125" class="s11" d="m714.7 460.7v-2.7h4l0.6 2.7-3.3 0.6z"/>
		<path id="Path 126" class="s45" d="m738.7 460.7v-2.7l10 0.7 1.3 1.3 3.3 0.7v2.6l-2.6 1.4h-4l-1-1.4h-3l-1.4-2.3z"/>
		<path id="Path 127" class="s20" d="m805.3 462v-4h0.7l6.7 2 11.6 3.3 1.4 1v1.4l-2.4 2.3-5-0.7-1.3-1.3h-2l-1.7-2h-3z"/>
		<path id="Path 128" class="s38" d="m338 459.7l1.3-1.4h3.7l-1.3 1.7h-1.4z"/>
		<path id="Path 129" class="s39" d="m341.7 460l1.3-1.7h16.3v1z"/>
		<path id="Path 130" class="s36" d="m359.3 459.3v-1h3.7v0.7z"/>
		<path id="Path 131" class="s42" d="m363 459l9.3-0.3h2.4v2 2.6h-30.4l-1.3 2-4.7 0.4h-21v-5h7.4l15.6-0.7h1.4l17.6-0.7z"/>
		<path id="Path 132" class="s53" d="m440 461.7h10.3l9-2.4h8.7l18.7 0.7v1.3l2.6 2v4l-4 0.7v3.3h-5.3l-2.7-2.6h-5.3-6.7l-1.3-1.4h-5.3l-1.4-1.3h-8.3l-1 1v3h-4l-2-2.7h-7.3v-5.3z"/>
		<path id="Path 133" class="s54" d="m527.3 460l3.4-0.7h1.3v4h-3.7z"/>
		<path id="Path 134" class="s10" d="m696 470l-0.3-1.7-5-3v-6h8.6l-0.6 10.7z"/>
		<path id="Path 135" class="s29" d="m698.7 470l0.6-10.7h0.7 5.3 2l1 1.4h6.4l1.3 0.6v7.4l3.3 1 2 3-1 1.6-2.6 1h-12.4l-0.6-3.6-4.7-0.4z"/>
		<path id="Path 136" class="s41" d="m297.3 461l2-1.3h6.7v1l-3.3 0.6-4.4 0.4z"/>
		<path id="Path 137" class="s39" d="m314 459.7v1h-8v-1z"/>
		<path id="Path 138" class="s36" d="m314 460.7v-1h10.7v1h-7.4z"/>
		<path id="Path 139" class="s47" d="m324.7 460.7v-1h13.3l2.3 0.3z"/>
		<path id="Path 140" class="s55" d="m812.7 460l1.3-0.3h4l0.3 1.3h3.7l0.3 1.3h2v1z"/>
		<path id="Path 141" class="s51" d="m302.7 461.3l3.3-0.6h8 3.3v5l-6.6 0.3-0.4-1-3.6-0.3h-4z"/>
		<path id="Path 142" class="s44" d="m374.7 463.3v-2.6h9.3l1.3 1v3h-8z"/>
		<path id="Path 143" class="s56" d="m385.3 461.7l21.4-1h6.6 6.7 3.3l1.4 1.3-0.7 5.3-1 2.7h-1.7-5.3l-2-2.7h-11l-3.3 2.4-10.4-0.4v-3l-4-1.6z"/>
		<path id="Path 144" class="s10" d="m716 461.3l3.3-0.6h6l1 1.3h1.7v5.3 4h-4.3l-1 1.4h-1.4l-2-3-3.3-1z"/>
		<path id="Path 145" class="s29" d="m728 462l2.7-1.3h8l2.6 0.3 1.4 2.3h3l1 1.4h4v8.6h-6.7l-1.3-5-10.7-1h-4z"/>
		<path id="Path 146" class="s22" d="m757.3 460.7v2.6h-4v-2.6z"/>
		<path id="Path 147" class="s9" d="m764 463.3v-2.3l1.3-0.3h20l4 1.3 0.4 4.7 2.3 0.6v2.7l-23.3-1.3v-2l-3-0.7z"/>
		<path id="Path 148" class="s38" d="m263.7 462.3l2-1.3h4.3v1h-0.3l-5.4 0.7z"/>
		<path id="Path 149" class="s3" d="m270 462v-1h6.3l-0.3 0.7z"/>
		<path id="Path 150" class="s39" d="m276 461.7l0.3-0.7h5.7v1h-5z"/>
		<path id="Path 151" class="s36" d="m282 462v-1h8v1h-7.3z"/>
		<path id="Path 152" class="s47" d="m290 462v-1h7.3l1 0.7-1 0.3z"/>
		<path id="Path 153" class="s57" d="m298.3 461.7l4.4-0.4v3.4l-5.4 0.6v-3.3z"/>
		<path id="Path 154" class="s58" d="m424.7 462l7.3-0.7 2.7 0.7v5.3l-2 1v1.7h-3.4l-1.6-1-0.4-1.7h-3.3z"/>
		<path id="Path 155" class="s59" d="m270 462l6-0.3 1 0.3-1 1.3-6.7-0.3 0.4-1z"/>
		<path id="Path 156" class="s0" d="m264.3 462.7l5.4-0.7-0.4 1-5 0.3z"/>
		<path id="Path 157" class="s51" d="m276 463.3l1-1.3h5 0.7v4l-1.4 0.7h-5.3z"/>
		<path id="Path 158" class="s42" d="m282.7 466v-4h7.3 7.3v3.3z"/>
		<path id="Path 159" class="s35" d="m792 467.3l-2.3-0.6-0.4-4.7h5.4 10.6l5 2h3l1.7 2h2l1.3 1.3 5 0.7 0.7 2.7h2.7l1.3 2h1.3v2.6 2.7h-8-7.3v-2l-2-0.7v-3l-1.3-1h-10.7l-2-3.6z"/>
		<path id="Path 160" class="s3" d="m239 463.7l0.3-1 4.7-0.4v1l-4.7 1z"/>
		<path id="Path 161" class="s17" d="m244 463.3v-1h6v1h-1.3z"/>
		<path id="Path 162" class="s36" d="m258 462.3v1h-8v-1z"/>
		<path id="Path 163" class="s47" d="m258 463.3v-1h5.7l0.6 0.4v0.6z"/>
		<path id="Path 164" class="s5" d="m824.3 463.3v-1h1.7l0.7 1.4 2.6 0.3v1l2.7 0.3 1.3 1.4h2.7l0.7 1.3v0.7l-4.7-1.4-4-2.6-2.3-0.4z"/>
		<path id="Path 165" class="s42" d="m264.3 463.3l5-0.3 6.7 0.3v3.4l-7.7 0.6-19.6-0.6v-3.4h1.3 8z"/>
		<path id="Path 166" class="s51" d="m239.3 464.3l4.7-1h4.7v3.4h-2.4l-1.3 1.6-9 0.4-0.3-1-2.4-0.4v-2.6z"/>
		<path id="Path 167" class="s56" d="m343 465.3l1.3-2h30.4l2.6 1.4v6l-0.6 0.6-8.7 0.4-16-0.4-1.3-1.3h-6.7z"/>
		<path id="Path 168" class="s60" d="m489.3 467.3v-4h6.7v2.7z"/>
		<path id="Path 169" class="s56" d="m528 468l0.3-4.7h3.7l2.7 1.4v2.6h-2l-0.7 1.4z"/>
		<path id="Path 170" class="s11" d="m750.7 464.7l2.6-1.4h4 6.7l1.7 2.7 3 0.7v2l-3.4 2.3v4.3h-8.6l-4.7-0.6-1.3-1.4z"/>
		<path id="Path 171" class="s17" d="m226 464l7.3-0.3v1l-7.3 0.6z"/>
		<path id="Path 172" class="s61" d="m233.3 464.7v-1h5.7l0.3 0.6z"/>
		<path id="Path 173" class="s3" d="m224 465l0.3-1h1.7v1.3l-1.3 0.4z"/>
		<path id="Path 174" class="s16" d="m823.3 468l2.4-2.3v-1.4l2.3 0.4 4 2.6v4.7l-2.7 0.7h-1.3l-1.3-2h-2.7z"/>
		<path id="Path 175" class="s57" d="m226 465.3l7.3-0.6v2.6l-1.3 1.4-2.7 0.6-10.6-0.6v-2.7l6-0.3z"/>
		<path id="Path 176" class="s56" d="m297.3 465.3l5.4-0.6h4v4l-11.7 1.3-4.7 2.7h-4.6l-0.4 1.3h-4v-7.3l1.4-0.7z"/>
		<path id="Path 177" class="s62" d="m306.7 468.7v-4l3.6 0.3 0.4 1v2.7z"/>
		<path id="Path 178" class="s53" d="m377.3 470.7v-6h8l4 1.6v3l-2 0.4v1.6z"/>
		<path id="Path 179" class="s53" d="m534.7 467.3v-2.6h9.3l0.7 2.6-7.4 1z"/>
		<path id="Path 180" class="s3" d="m204.7 465.3l8-0.3v0.7l-7.4 0.3z"/>
		<path id="Path 181" class="s17" d="m212.7 465.7v-0.7h4.6v1h-4z"/>
		<path id="Path 182" class="s61" d="m217.3 466v-1h6.7l0.7 0.7-6 0.3z"/>
		<path id="Path 183" class="s38" d="m195 466.3l1.3-1h5.7l-6.7 1.4z"/>
		<path id="Path 184" class="s0" d="m195.3 466.7l6.7-1.4h2.7l0.6 0.7v1.3h-8-2z"/>
		<path id="Path 185" class="s63" d="m338.3 465.7l4.7-0.4 1 4.7v1.3h-5.3z"/>
		<path id="Path 186" class="s64" d="m205.3 466l7.4-0.3 0.6 0.3-5.3 1.3h-2.7z"/>
		<path id="Path 187" class="s65" d="m310.7 466l6.6-0.3h21l0.4 5.6-2 1.4h-5l-0.4 1.3h-8.6v-2l-2-2h-4l-2 1.3h-4v-2.6z"/>
		<path id="Path 188" class="s51" d="m208 467.3l5.3-1.3h4 1.4v2.7h-10.7z"/>
		<path id="Path 189" class="s66" d="m448 470v-3l1-1h8.3l1.4 1.3h5.3l1.3 1.4v4h-5l-1.6 4h-4.7v-1.7z"/>
		<path id="Path 190" class="s66" d="m489.3 467.3l6.7-1.3h5.3l1.7 2.3v4.4l2.3 2.6-1.3 5.4-2.7 0.6-2.6-3.3h-10l-2-1.3v-4.4l-1.4-1v-3.3z"/>
		<path id="Path 191" class="s37" d="m612 470v-4h6.7l1.3 0.7v3l-1.3 0.6v2.4h-4.7v-2z"/>
		<path id="Path 192" class="s61" d="m186.3 466.7l8.7-0.4 0.3 0.4v0.6h-2-7z"/>
		<path id="Path 193" class="s38" d="m160 468l0.7-1 4.6-0.3v1.3l-2.3 0.7h-2.3z"/>
		<path id="Path 194" class="s3" d="m165.3 468v-1.3h4.4v0.6z"/>
		<path id="Path 195" class="s17" d="m169.7 467.3v-0.6h16.6v0.6h-7.6z"/>
		<path id="Path 196" class="s56" d="m245 468.3l1.3-1.6h2.4l19.6 0.6-0.3 4h-12-5l-0.3 1.4h-5.4z"/>
		<path id="Path 197" class="s63" d="m268.3 467.3l7.7-0.6h5.3v7.3l-2 1.3h-4.6l-2.7-3.6-4-0.4z"/>
		<path id="Path 198" class="s67" d="m514.7 469l1.6-2.3h5.7l0.7 1.3v7.3l2.6 1.4v1.3 1.3h-2.6l-3.4-0.6-1.3-5.4z"/>
		<path id="Path 199" class="s68" d="m165.3 468l4.4-0.7h9l-0.4 1-5 1h-3.3l-7-0.6z"/>
		<path id="Path 200" class="s51" d="m173.3 469.3l5-1 0.4-1h7.6 7v3.4l-9.3 0.6-0.7-1z"/>
		<path id="Path 201" class="s42" d="m193.3 470.7v-3.4h2 2v3.4z"/>
		<path id="Path 202" class="s57" d="m197.3 470.7v-3.4h8 2.7v1.4l-1.7 1.6z"/>
		<path id="Path 203" class="s62" d="m232 468.7l1.3-1.4 2.4 0.4 0.3 1v2.6h-4z"/>
		<path id="Path 204" class="s67" d="m399.7 469.7l3.3-2.4h11l2 2.7v4l2.7 0.7v11.3l-2 1-0.7 1.7h-9.3v-2l-6.4-4.7z"/>
		<path id="Path 205" class="s46" d="m423 470l1-2.7h3.3l0.4 1.7 1.6 1v2.7l-3.3 1.3-2.7-2z"/>
		<path id="Path 206" class="s66" d="m432.7 470v-1.7l2-1h7.3l2 2.7v6.7l2 1.3 0.3 3.3 7 0.7 1.4 0.7v3.3 9.3h-2.7l-2-2.6h-11l-1.3 3.6-1.7 0.4-2-0.7v-2.3l-2.7-2.4h-7.3v-3.6l-2-1.7h-3.3v-11.3l2.6-2.7h2l2.7 2 3.3-1.3h2.7z"/>
		<path id="Path 207" class="s58" d="m528 468l4 0.7 0.7-1.4h2l2.6 1v4.4h-3.6l-3 3v2.3h-5.4v-1.3l-2.6-1.4v-7.3z"/>
		<path id="Path 208" class="s69" d="m537.3 468.3l7.4-1h4.6l1.4 1.4v5.3l-13.4-1.3z"/>
		<path id="Path 209" class="s53" d="m566.7 468.7l0.3-1.4h12.3l2 2v2.7l-3.3 1v2.3h-2-4v-2.3l-5-3z"/>
		<path id="Path 210" class="s37" d="m638.7 474l0.3-6.7h7.7l2.6 2 8.7 1 1.3 1.4 0.7 5v2.6h-9.3v-2.3l-3.4-3z"/>
		<path id="Path 211" class="s40" d="m728 471.3v-4h4v4h-1.3z"/>
		<path id="Path 212" class="s37" d="m732 471.3v-4l10.7 1 1.3 5v1.4h-6.3l-2.4-3.4z"/>
		<path id="Path 213" class="s45" d="m792 470v-2.7l6 0.4 2 3.6v2.7l-5-0.7z"/>
		<path id="Path 214" class="s20" d="m832 472v-4.7l4.7 1.4 10.6 4 7 2.6h0.7l8.7 2.7 5.6 2v7.3h-8l-0.6-6-12.7-0.6v-2.4l-2-2-7.7-3.6h-3.6z"/>
		<path id="Path 215" class="s53" d="m593.3 470l0.4-1.3h7.6l1.4-1 3.3 0.3 2.7 2h3.3l2 0.7v2l-0.7 5.3h-20z"/>
		<path id="Path 216" class="s3" d="m143 469.3l0.7-1.3h4.6v0.7l-5.3 1.3z"/>
		<path id="Path 217" class="s61" d="m148.3 468.7v-0.7h11.7l0.7 0.7h-2-8z"/>
		<path id="Path 218" class="s50" d="m836.7 468.7v-0.7l6.3 1.3 0.7 1.7 3.6 1.7z"/>
		<path id="Path 219" class="s65" d="m236 468.7l9-0.4 0.3 4.4-3.3 0.3-2 1.7-3-1-1-2.4z"/>
		<path id="Path 220" class="s60" d="m505.3 475.3l-2.3-2.6v-4.4h3.7l1.3 1.7v5.3z"/>
		<path id="Path 221" class="s57" d="m143 470l5.3-1.3h2.4v4l-2 1.3h-5.4l-0.6-1.3v-2.7z"/>
		<path id="Path 222" class="s51" d="m150.7 472.7v-4h8v3.6z"/>
		<path id="Path 223" class="s42" d="m158.7 472.3v-3.6h2 2.3l7 0.6-0.7 3z"/>
		<path id="Path 224" class="s56" d="m197.3 470.7l9-0.4 1.7-1.6h10.7l10.6 0.6 2.7-0.6v2.6l-1.3 1.4h-3.4l-0.6 1.3h-4l-6.4-0.7-0.3 3.4h-5.3l-0.7 2.6h-3.3l-2-2.6-20.7-1.4v-4l9.3-0.6z"/>
		<path id="Path 225" class="s53" d="m285.3 474l0.4-1.3h4.6l4.7-2.7 11.7-1.3h4v2.6l-4.7 5.4v1.3h-12.7-5.6z"/>
		<path id="Path 226" class="s46" d="m465.3 472.7v-4h6.7v6h-5z"/>
		<path id="Path 227" class="s67" d="m472 474.7v-6h5.3l2.7 2.6v4h-7.7z"/>
		<path id="Path 228" class="s67" d="m550.7 474v-5.3h16l0.3 1.3 5 3v2.3 1.4l-2.7 2.6h-4v-2.3l-3.3-3z"/>
		<path id="Path 229" class="s66" d="m581.3 469.3l5.4-0.6 0.6 1.3h6v8l-1.3 1.3h-3.7l-0.3-1.3h-2.7l-6-1.3-1.3-1.4v-2.3l3.3-1z"/>
		<path id="Path 230" class="s29" d="m765.3 475.3v-4.3l3.4-2.3 23.3 1.3 3 3.3 5 0.7 1.7 2.7h9l1.3-1.4 2 0.7v2l-0.7 5.3h-9.3l-3.7-2-6.6-0.6-0.4 4h-3.3l-0.7-1.4h-5.3l-1.3-1.3h-2.7l-0.7-3-13-2.3z"/>
		<path id="Path 231" class="s70" d="m508 470l6.7-1 3.3 4.3 1.3 5.4 3.4 0.6v9.4l-4 0.3v3.7h-3.7l-0.7 1-4.6 0.3-1.7 1.7v6.3h-5.3v-3.7l-1.7-1-1.3-5.3-1-0.7-0.7-3.3h-4.3l-0.4 1.3-6.6-0.6v-3.4l-1.4-0.6-1.3-4.4v-3.6h2.7l2 1.3h10l2.6 3.3 2.7-0.6h2.7l1.3-1.4v-4z"/>
		<path id="Path 232" class="s3" d="m106.7 475l0.6-1.3h6l0.7-1.4 5.3-0.3 0.4-1 14.3-1.7v0.7l-4 1.3-8 0.4-2 1.3h-4.3l-2 1.3-6.7 1z"/>
		<path id="Path 233" class="s61" d="m134 470v-0.7h9v0.7h-0.3z"/>
		<path id="Path 234" class="s62" d="m169.3 472.3l0.7-3h3.3l10 1 0.7 1v4l-1.3 1.4h-4.7l-2.7-3-5.3-0.4z"/>
		<path id="Path 235" class="s69" d="m387.3 471.3v-1.6l2-0.4 10.4 0.4 0.6 12.3 6.4 4.7v2l-4 1-2.7 2.6-1.3-1h-5.4l-2.6-1.3v-5.3l1.3-7.4-2.7-1.3v-3z"/>
		<path id="Path 236" class="s13" d="m847.3 472.7l-3.6-1.7-0.7-1.7 4.3 1.7v1l6.7 1.7 0.3 1.6z"/>
		<path id="Path 237" class="s53" d="m618.7 472.7v-2.4l1.3-0.6 5 0.3 3 2.7h6l1.3 1v3l-0.6 1.3h-4.7l-2-2.7h-7z"/>
		<path id="Path 238" class="s51" d="m130 471.3l4-1.3h8.7v2.7l-2.7 0.6h-10z"/>
		<path id="Path 239" class="s58" d="m314.7 471.3l2-1.3h4l2 2v2 8l-3.4 0.7-2-0.7v-4.7l-2.6-2z"/>
		<path id="Path 240" class="s58" d="m344 471.3v-1.3h6.7l1.3 1.3v5.4l-1.3 1.3h-4l-1-5.3z"/>
		<path id="Path 241" class="s53" d="m418.7 474.7l-2.7-0.7v-4h5.3v2z"/>
		<path id="Path 242" class="s58" d="m421.3 472v-2h1.7l0.3 2z"/>
		<path id="Path 243" class="s70" d="m429.3 472.7v-2.7h3.4l-0.7 2.7z"/>
		<path id="Path 244" class="s67" d="m453.3 482l-7-0.7-0.3-3.3-2-1.3v-6.7h4l6 5v1.7z"/>
		<path id="Path 245" class="s71" d="m688 480.7v-6.4l1-1h6.3l0.7-3.3h2.7l1.3 1.3v5.4 4.3l-2.7 0.7-1.3 1.6h-6.7v-2z"/>
		<path id="Path 246" class="s66" d="m376.7 471.3l0.6-0.6 10 0.6 2 1.7v3l2.7 1.3-1.3 7.4h-6.7-2.7v-10.4l-4-1z"/>
		<path id="Path 247" class="s72" d="m120 473l2-1.3 8-0.4v2l-2 0.7h-8z"/>
		<path id="Path 248" class="s53" d="m222.7 474h4l0.6-1.3h3.4l1.3-1.4h4l1 2.4 3 1v6h-2.7-10l-0.3-2.4-4.3-0.3z"/>
		<path id="Path 249" class="s53" d="m250.7 472.7l0.3-1.4h5v5.4h-5.3z"/>
		<path id="Path 250" class="s58" d="m256 476.7v-5.4h12l4 0.4 2.7 3.6v6.7h-2.4l-0.3 1.3h-4l-1-3.3-3-3z"/>
		<path id="Path 251" class="s69" d="m306 478v-1.3l4.7-5.4h4v4l2.6 2v4.7h-3l-2 2.7-4.6-0.4-1-1z"/>
		<path id="Path 252" class="s69" d="m336.7 472.7l2-1.4h5.3l1.7 1.4 1 5.3v2.7l1.3 0.6 1 3.4h4.3v6.6l-9.3-0.6v-5.4l-2-0.6-2-2.7h-4v-6.7z"/>
		<path id="Path 253" class="s67" d="m346.7 478h4l1.3-1.3v-5.4l16 0.4-0.3 11.6h-3.7-10.3l-0.4 1.4h-4.3l-1-3.4-1.3-0.6z"/>
		<path id="Path 254" class="s70" d="m368 471.7l8.7-0.4 0.6 2 4 1v10.4l-2.6 0.3v5h-3.4l-0.6-2.7h-5.4l-1.3-1.3-0.3-2.7z"/>
		<path id="Path 255" class="s26" d="m480 475.3v-4h5.3l1.4 1v4.4h-2.7z"/>
		<path id="Path 256" class="s26" d="m700 476.7v-5.4l4.7 0.4 0.6 3.6v1.4z"/>
		<path id="Path 257" class="s60" d="m722.7 472.7l1-1.4h4.3 2.7v5.4h-3l-1 1.3h-4z"/>
		<path id="Path 258" class="s26" d="m730.7 476.7v-5.4h1.3 3.3l2.4 3.4-0.4 3.3h-5.3z"/>
		<path id="Path 259" class="s11" d="m800 474v-2.7h10.7l1.3 1v3l-1.3 1.4h-9z"/>
		<path id="Path 260" class="s46" d="m829.3 472.7l2.7-0.7 2.7 0.7v2.6h-5.4z"/>
		<path id="Path 261" class="s56" d="m150.7 472.7l8-0.4h10.6l0.7 1 5.3 0.4 2.7 3-0.7 4h-5l-1.3 1.6h-2.7l-1.6-1.6h-7.7l-1.3 2.6-6.4 0.7-2-2h-6.6v-1.7l-2.7-1v-3.3h2.7l0.6-2h5.4z"/>
		<path id="Path 262" class="s44" d="m140 473.3l2.7-0.6 0.6 1.3-0.6 2h-2.7z"/>
		<path id="Path 263" class="s58" d="m240 474.7l2-1.7 3.3-0.3h5.4v4l-4.4 0.6-2.3 3.4h-4z"/>
		<path id="Path 264" class="s58" d="m331.3 474l0.4-1.3h5l-0.7 2.6h-4z"/>
		<path id="Path 265" class="s70" d="m454 476.7h4.7l1.6-4h5l1.7 2-0.3 11.3h-12v-3.3l-1.4-0.7z"/>
		<path id="Path 266" class="s70" d="m530.7 478v-2.3l3-3h3.6l13.4 1.3h11.3l3.3 3v2.3 5.4 4 4h-2-3.3l-3.7-3.7-3-0.3-0.6-3-2-2-5.4-0.4-5.3 0.4 0.3 10.3-0.6 4.3-1 1h-2.7l-2.7-2.6h-2.6v-3l-2-1v-1.4l2-1.3v-8z"/>
		<path id="Path 267" class="s69" d="m613.3 478l0.7-5.3h4.7l2.3 2.6h7l2 2.7h4.7v6.7l-1.4 0.3v7.7h-4l-1.3-1.4h-5.3-1.4v-10l-2.3-2.3z"/>
		<path id="Path 268" class="s71" d="m672 476v-3.3h4l2.7 1.6 0.6 3.4z"/>
		<path id="Path 269" class="s71" d="m705.3 475.3h12.4l2.6-1 1-1.6h1.4v5.3 3.3l1.3 2-1.3 1.4v8l-5 0.6-3-2h-2.7v-2.6l-1.3-0.4-2.7-3.6v-4.7l-2.7-3.3z"/>
		<path id="Path 270" class="s35" d="m834.7 475.3v-2.6h3.6l7.7 3.6 2 2v2.4 4h-6.7l-2-3.7-4.6-0.3z"/>
		<path id="Path 271" class="s51" d="m107 475.3l6.7-1 2-1.3h4.3v1l-1.3 1.3-5 0.4-5.7 3.6h-5.3l-2.7-1 1.3-1.3z"/>
		<path id="Path 272" class="s62" d="m128 474l2-0.7h10v2.7 3.3h-12z"/>
		<path id="Path 273" class="s63" d="m216 476.7l0.3-3.4 6.4 0.7v4h-6.7z"/>
		<path id="Path 274" class="s67" d="m744 474.7v-1.4h6.7l1.3 1.4 4.7 0.6v1.4l-2 2-9.4-0.7z"/>
		<path id="Path 275" class="s44" d="m108 479.3l5.7-3.6 5-0.4 1.3-1.3h8v5.3l-5 1.4-0.3 2.6h-3.7l-0.7 1-10.3 0.4z"/>
		<path id="Path 276" class="s69" d="m274.7 475.3h4.6l2-1.3h4l2.4 4h5.6v4l1.4 1.3v6.7h-4.4l-1-1.3h-6.6-2.4l-2.6-2.7-0.7-2.7-2.3-1.3z"/>
		<path id="Path 277" class="s12" d="m322.7 482v-8h8.6l0.7 1.3h4v6.7l-1.3 1v7h-3.7l-2-2.3-3.7-0.4v-3.6z"/>
		<path id="Path 278" class="s60" d="m637.3 476.7v-2l1.4-0.7h8.6l3.4 3v2.3l0.6 10.7h-2l-2-5.7-4.6-3.6h-4z"/>
		<path id="Path 279" class="s66" d="m466.7 486l0.3-11.3h5l0.3 0.6-0.3 10.7z"/>
		<path id="Path 280" class="s66" d="m737.3 478l0.4-3.3h6.3l1.3 3.3v5.3l2.7 1v4.4h-4.7-3l-3-4z"/>
		<path id="Path 281" class="s61" d="m101.3 476.3h1l0.4-1.3h4l0.3 0.3-5.7 1.7z"/>
		<path id="Path 282" class="s13" d="m855 475.3l4.3-0.3 0.7 1.3h3.7l0.3 1.4-0.3 0.3z"/>
		<path id="Path 283" class="s53" d="m182.7 476.7l1.3-1.4 20.7 1.4 2 2.6 0.3 4-0.3 6.7v4 2.7h-5.4-4l-0.6-3.7-4.7-0.3v-5l-2-2-7.3-1z"/>
		<path id="Path 284" class="s69" d="m472 486l0.3-10.7h7.7l4 1.4v3.6l1.3 4.4 1.4 0.6v3.4h-7.7l-0.3 1.3h-3l-1-2.7z"/>
		<path id="Path 285" class="s46" d="m504 480.7l1.3-5.4h2.7v4l-1.3 1.4z"/>
		<path id="Path 286" class="s60" d="m569.3 479.3l2.7-2.6v-1.4h4v6l3.3 1.7 0.7 5.7v3.3l1.3 1v9l-4.3 0.7-1 2-5.3-1.4v-9.3l-1.4-5.3v-4z"/>
		<path id="Path 287" class="s70" d="m580 488.7l-0.7-5.7-3.3-1.7v-6h2l1.3 1.4 6 1.3 0.7 2.7h2l0.3-1.4h3.7l1.3-1.3h20l5.7 1 2.3 2.3v10h-4v-3.6l-2-1.7h-5.6l-0.4 5.3h-6l-0.6 1.4h-2.7l-4-2.7h-10.7l-0.6-1.3z"/>
		<path id="Path 288" class="s69" d="m745.3 478l9.4 0.7 2-2v-1.4h8.6l1 1.4 13 2.3 0.7 3-1.3 2.3v3l-5.4 0.4v5l1.7 1 2.3 6.3 1.4 0.7v3.6l-3.4 2.7v3.7l-4.3 0.6-0.3 1.4h-4l-2-2.7h-13.7l-1.7 1-0.6 3-2 0.3v2.4h-2.7v-5l-2.7-1.7v-6l-4-2v-2.7h6.7 4.7l0.6-1.3-1.3-9.3v-4.4l-2.7-1z"/>
		<path id="Path 289" class="s15" d="m829.3 478v-2.7h5.4v5.4h-3.4z"/>
		<path id="Path 290" class="s66" d="m665.3 477.7l6.7-1.7 7.3 1.7v3l1.4 10.3 2 1.7v8l-2.7 0.3v5l1.3 0.7v3.3l-1.3 0.3v2.4l-1.3 0.3-4.4-1-1.3-1.3v-2.4l-2.3-2.3h-5l-2.7-2.7-0.3-1.6-2-0.4-3-2.6-1.4-6.7-5-2-0.6-10.7h9.3l0.7 1.4h4z"/>
		<path id="Path 291" class="s3" d="m91 480.7l1.7-0.4 0.6-1.3h2l0.7-1.3 5.3-1.4v0.7l-1.3 1.3-3.3 0.4-4 2.3z"/>
		<path id="Path 292" class="s58" d="m177.3 480.7l0.7-4h4.7v8h-3.4v-1.7l-2-1z"/>
		<path id="Path 293" class="s60" d="m210 479.3l0.7-2.6h5.3v1.3l-1.3 1v1.7h-4z"/>
		<path id="Path 294" class="s66" d="m244 480.7l2.3-3.4 4.4-0.6h5.3l8 0.3 3 3 1 3.3-0.7 8.7 2 0.7v2.6h-8l-1.3-1.3h-5.3l-3.4-1-3.3-4.3h-4z"/>
		<path id="Path 295" class="s58" d="m634.7 478l0.6-1.3h2l1.4 4v4h-4z"/>
		<path id="Path 296" class="s26" d="m660 479.3v-2.6h3.7l1.6 1-0.6 3h-4z"/>
		<path id="Path 297" class="s73" d="m700 481v-4.3h5.3l2.7 3.3v4.7h-1.3-3.4z"/>
		<path id="Path 298" class="s40" d="m726.7 478l1-1.3h3l1.3 1.3v6.7h-2.7l-2.6-1.4z"/>
		<path id="Path 299" class="s7" d="m863.7 478l0.3-0.3 5.3 0.3 0.4 1 3.6 0.3 0.7 1.4-3.3-0.7h-1.4z"/>
		<path id="Path 300" class="s69" d="m214.7 480.7v-1.7l1.3-1h6.7l4.3 0.3 0.3 2.4-3.3 1.6v2.4h-6.7l-2.6-1.4z"/>
		<path id="Path 301" class="s67" d="m294.7 490v-6.7l-1.4-1.3v-4h12.7l0.7 5.3 1 1 4.6 0.4 2-2.7h3l2 0.7v7.3l-0.6 4.7 1.3 1v2.3l-1.3 0.7-9-0.7-1-2-11-0.7-3-2z"/>
		<path id="Path 302" class="s69" d="m525.3 479.3v-1.3h5.4v4h-4z"/>
		<path id="Path 303" class="s67" d="m588.3 479.3l-0.3 1.4h-2l-0.7-2.7h2.7z"/>
		<path id="Path 304" class="s74" d="m724 483.3l-1.3-2v-3.3h4v5.3z"/>
		<path id="Path 305" class="s74" d="m737.3 478v6.7h-5.3v-6.7z"/>
		<path id="Path 306" class="s22" d="m813.3 483.3l0.7-5.3h7.3v4l4 2v4.7h-10.6z"/>
		<path id="Path 307" class="s45" d="m825.3 484l-4-2v-4h8l2 2.7v2.3l-1 1z"/>
		<path id="Path 308" class="s42" d="m92.7 481l4-2.3 3.3-0.4 2.7 1v5.4h-6.4l-0.6 1.3h-11.7v-2.7z"/>
		<path id="Path 309" class="s43" d="m102.7 484.7v-5.4h5.3v5.4l-4 0.6z"/>
		<path id="Path 310" class="s63" d="m122.7 483.3l0.3-2.6 5-1.4h12l2.7 1v1.7 4h-6-12.7z"/>
		<path id="Path 311" class="s66" d="m207 483.3l-0.3-4h3.3l0.7 1.4h4v2.6z"/>
		<path id="Path 312" class="s46" d="m522.7 488.7v-9.4h2.6l1.4 2.7v6.7z"/>
		<path id="Path 313" class="s46" d="m569.3 479.3v5.4h-4v-5.4z"/>
		<path id="Path 314" class="s24" d="m870.7 480l3.3 0.7 8 1.3 0.3 1.3h3.4l0.6 1.4-0.6 0.6-13.7-4z"/>
		<path id="Path 315" class="s16" d="m869.3 487.3v-7.3h1.4l1.3 1.3 13.7 4v0.4l-0.4 4.3-7.6 0.3-5-0.3-2.4-1z"/>
		<path id="Path 316" class="s48" d="m83.7 482l7.3-1.3 1.7 0.3-8.7 2.3-0.7-0.3z"/>
		<path id="Path 317" class="s66" d="m157.7 483.3l1.3-2.6h7.7l1.6 1.6-1.6 3.7-5.4 0.3z"/>
		<path id="Path 318" class="s70" d="m171 482.3l1.3-1.6h5v1.3l2 1v1.7l-2 1.6v2l-4.3-0.3-1.7-1.7z"/>
		<path id="Path 319" class="s70" d="m224 484.7v-2.4l3.3-1.6h10v9.3l2.7 0.7v4.6l-1.3 1.4h-6.7v-4.4l-1.3-1h-3.4-2v-5z"/>
		<path id="Path 320" class="s69" d="m240 490.7l-2.7-0.7v-9.3h2.7 4v8l-2.7 0.3z"/>
		<path id="Path 321" class="s69" d="m638.7 484.7v-4h4l4.6 3.6 2 5.7v6.7l-2.6 1.3-2-1.7h-2l-1.4-3.6v-5.4z"/>
		<path id="Path 322" class="s60" d="m682.7 500.7v-8l-2-1.7-1.4-10.3h8.7l1.3 0.6v2l-1.3 4 4 3v2.4 2.6l-1.3 1v5.7l1 1.3 3 0.4 0.6 3 2.7 0.6 0.7-3.6 1.3-0.7v-2.3h4.7l2.3-3.4 4.3-0.6h4.7v6.3l-2.3 0.3-1 1.4 0.6 4h4.7l1.3-2.7h3.4v4 7.3l-1.7 1-1 2.4h-8v-2l-2-0.7-1.3-2.3-2.4-0.4-2-2.6h-3.3l-1 4-2.7 2.6h-5.3l-2.7-1.3v-2.7l-2.6-2v-3.3l-0.4-7.3z"/>
		<path id="Path 323" class="s53" d="m793.3 484.7l0.4-4 6.6 0.6 3.7 2v2.7l-6.7 0.3v6.4h-2.6l-1.4-2.7z"/>
		<path id="Path 324" class="s9" d="m825.3 484h5l1-1v-2.3h3.4l4.6 0.3 2 3.7v6.6 2.7h-10l-1.3-0.7-0.7-3.6-4-1z"/>
		<path id="Path 325" class="s75" d="m848 484.7v-4l12.7 0.6 0.6 6-11-0.6z"/>
		<path id="Path 326" class="s70" d="m696 483.3l1.3-1.6 2.7-0.7 3.3 3.7h3.4l1 6.6-1 2.4 0.3 3.6-2.3 3.4h-4.7l-0.7-7.4v-2.6l-3.3-0.7z"/>
		<path id="Path 327" class="s39" d="m76 484.7l1.7-1.4h2.6l1-1.3h2.4l-0.4 1-5.6 2.3h-1z"/>
		<path id="Path 328" class="s66" d="m142.7 486v-4h6.6l2 2-0.6 3.3-6.7 1.4z"/>
		<path id="Path 329" class="s66" d="m272 483.3l0.3-1.3h2.4l2.3 1.3 0.7 2.7 2.6 2.7h2.4v5.3h-4v-2.3l-1.4-1.4-5.3-0.3z"/>
		<path id="Path 330" class="s70" d="m319.3 482.7l3.4-0.7 2.6 1.7v3.6 2.7h-6z"/>
		<path id="Path 331" class="s70" d="m334.7 490v-7l1.3-1h4l2 2.7 2 0.6v5.4l-2.7 1.3v4.7h-5.3z"/>
		<path id="Path 332" class="s66" d="m526.7 488.7v-6.7h4v8l-2 1.3-1.7-0.6z"/>
		<path id="Path 333" class="s53" d="m778.7 487.3v-3l1.3-2.3h2.7l1.3 1.3v6.7h-4z"/>
		<path id="Path 334" class="s35" d="m161.3 486.3l5.4-0.3 1.6-3.7h2.7l0.3 4 1.7 1.7 4.3 0.3 1 6.4 3 1.3v4.7l-2.6 0.3v2.3h-4-5.4l-0.6-2-6 0.4-2-2.4-0.7-5.3 1.3-3.3z"/>
		<path id="Path 335" class="s51" d="m77.7 485.3l5.6-2.3 0.7 0.3v2.7l-3.7 1.3h-2z"/>
		<path id="Path 336" class="s39" d="m70 484.7l0.7-1.4h2l-0.7 1.4-1 0.3z"/>
		<path id="Path 337" class="s28" d="m72 484.7l0.7-1.4 3.3 1.4 0.7 0.6-2.4 0.7z"/>
		<path id="Path 338" class="s53" d="m118.3 484.3l0.7-1h3.7l1.3 2.7v2.7h-5.3z"/>
		<path id="Path 339" class="s70" d="m151.3 484l6.4-0.7 3.6 3v4.4l-1.3 3.3h-5.3v-4.3l-1.4-2-2.6-0.4z"/>
		<path id="Path 340" class="s70" d="m206.7 490l0.3-6.7h7.7l2.6 1.4v8h-4-4v-2z"/>
		<path id="Path 341" class="s26" d="m269.3 492.7l-2-0.7 0.7-8.7h4v6.7l-1.3 2.7z"/>
		<path id="Path 342" class="s66" d="m353.3 484.7l0.4-1.4h10.3v9.4l-1.3 0.3v1h-5-2l-2.4-0.7v-2z"/>
		<path id="Path 343" class="s69" d="m364 492.7v-9.4h3.7l0.3 2.7 1.3 1.3v5.4z"/>
		<path id="Path 344" class="s26" d="m540.3 494l-0.3-10.3 5.3-0.4v10.7z"/>
		<path id="Path 345" class="s71" d="m545.3 494v-10.7l5.4 0.4 2 2 0.6 3 3 0.3 3.7 3.7 0.7 2.6v4l1.3 1v7l-0.7 1.4h-5.3v-2l-1.3-0.7v-7l-2.4-1.7-5-0.3z"/>
		<path id="Path 346" class="s53" d="m692 492.7v-2.4l-4-3 1.3-4h6.7v6.7l-1.3 0.3v2.4z"/>
		<path id="Path 347" class="s69" d="m717.7 493.3l5-0.6v-8l1.3-1.4h2.7l2.6 1.4v4l2 3.3 0.7 4.7v5.3l-0.7 1.3-2 0.4v1h-6.3l-0.3 1.3h-3.4l-0.6-2.7-2.7-0.3v-6.3z"/>
		<path id="Path 348" class="s60" d="m784 490v-6.7h5.3l0.7 1.4h3.3v5.3z"/>
		<path id="Path 349" class="s70" d="m804 486v-2.7h9.3l1.4 5.4-4 0.6-1.4-1.6-4.6-0.4z"/>
		<path id="Path 350" class="s15" d="m108 484.7l10.3-0.4 0.4 4.4 0.6 7.3 2.7 1.3v4h-0.7l-18.6-0.6v-5.4-6.3l1.3-1v-2.7z"/>
		<path id="Path 351" class="s39" d="m62.3 489h2.4l3.3-4.3h1.3l-0.6 1.3-0.7 1-3 2.7-2.7 0.3z"/>
		<path id="Path 352" class="s28" d="m68.7 486l0.6-1.3h0.7l1 0.3z"/>
		<path id="Path 353" class="s62" d="m71 485l1-0.3 2.3 1.3v2.7l-1.3 1.6-3.3 1-1.7-1.3v-3l0.7-1z"/>
		<path id="Path 354" class="s11" d="m95.7 486l0.6-1.3h6.4l1.3 0.6v2.7l-1.3 1v6.3h-4v-5.6l-3-1z"/>
		<path id="Path 355" class="s22" d="m177.3 488.3v-2l2-1.6h3.4l7.3 1 2 2v5 5.3 2.7l-6.7 1.3-4-1.3v-4.7l-3-1.3z"/>
		<path id="Path 356" class="s66" d="m217.3 492.7v-8h6.7l1.3 1.6v5h-4.3l-2.3 2z"/>
		<path id="Path 357" class="s69" d="m378.7 490v-5l2.6-0.3h2.7v3.3l2.7 2v5.3l-1.4 1.4h-2.6l-4-0.7v-2z"/>
		<path id="Path 358" class="s70" d="m386.7 490l-2.7-2v-3.3h6.7v5.3z"/>
		<path id="Path 359" class="s26" d="m569.3 484.7v4h-4v-4z"/>
		<path id="Path 360" class="s70" d="m633.3 492.7v-7.7l1.4-0.3h4l2.6 2.6v5.4z"/>
		<path id="Path 361" class="s53" d="m707.7 491.3l-1-6.6h1.3l2.7 3.6 1.3 0.4v2.6h-0.7z"/>
		<path id="Path 362" class="s53" d="m732 496.7l-0.7-4.7-2-3.3v-4h2.7 5.3l3 4h3l0.7 10.6h-6.7l-1-2.3z"/>
		<path id="Path 363" class="s45" d="m841.3 491.3v-6.6h6.7l2.3 2 11 0.6h8l1 1.7 2.4 1 5 0.3 0.3 4.4-2 1.6v3h-7.7l-0.3 5.4h-4-1.7l-1.6-2.7h-3.7l-5-2.7v-7l-1.3-1h-5.4z"/>
		<path id="Path 364" class="s30" d="m885.7 485.3l0.6-0.6 3.7 0.3 0.3 1 3.7 1.3 0.3 1.4-3.6-0.7-5-2.3z"/>
		<path id="Path 365" class="s76" d="m74.3 486l2.4-0.7h1l0.6 2-2.3 1.4h-1.7z"/>
		<path id="Path 366" class="s20" d="m885.3 490l0.4-4.3 5 2.3v2z"/>
		<path id="Path 367" class="s15" d="m80.3 487.3l3.7-1.3h11.7v2.7l3 1v5.6l-1.4 0.4v2.3l-9.3 1.3v-6.6l-2-1.4-5 0.4z"/>
		<path id="Path 368" class="s15" d="m124 488.7v-2.7h12.7l0.6 3.3 2.7 1.7 0.7 2.3 1.3 0.7v3.3l2.7 1v2.4l-3.4 3 0.4 7.6-1 0.7h-1.4l-1.3-2.3-2.7-0.7-3.3-5.7v-11l-1.3-1h-5.4z"/>
		<path id="Path 369" class="s35" d="m144.7 500.7v-2.4l-2.7-1v-3.3l-1.3-0.7-0.7-2.3-2.7-1.7-0.6-3.3h6l1.3 2.7 6.7-1.4 2.6 0.4 1.4 2v4.3l-1.4 4-2.6 2.7h-1.4z"/>
		<path id="Path 370" class="s60" d="m416 488.7l0.7-1.7 2-1h3.3l2 1.7v3.6l-2 1.7-0.7 3.7h-2.6l-0.7-4-2-1.7z"/>
		<path id="Path 371" class="s26" d="m454.7 495.3v-9.3h12v2.7l3.3 2.3 0.7 3.3v4.4l-2.7 2.3v3.7l-9.7 0.6-0.6 1.4-5.7 2.3-3 3.3-2 0.4-0.3 4h-10l-0.7-1.4h-2.7v-2l-1.3-0.6v-3l2.7-3.4v-5l1.3-1v-3.6l1.7-0.4 1.3-3.6h11l2 2.6v4l3.3 0.7 0.7-4z"/>
		<path id="Path 372" class="s73" d="m468 504.7v-3.7l2.7-2.3v-4.4l-0.7-3.3-3.3-2.3v-2.7h5.3l2.7 1.3 1 2.7h3l1.3 20-1.3 4.7h-8v-3l-2.7-2.7z"/>
		<path id="Path 373" class="s66" d="m609.3 491.3l0.4-5.3h5.6l2 1.7v3.6 4h-5.3v-3z"/>
		<path id="Path 374" class="s26" d="m797.3 492.7v-6.4l6.7-0.3 0.7 1.3 4.6 0.4 1.4 1.6 4-0.6h10.6l4 1 0.7 3.6 1.3 0.7-0.6 2.7h-4l-0.7 1.3h-13.3l-3 1.3h-4.4l-1.3-1.3h-2.7v-3l-2.6-2.3z"/>
		<path id="Path 375" class="s51" d="m65 489.7l3-2.7v3l-2.7 0.3z"/>
		<path id="Path 376" class="s35" d="m76 488.7l2.3-1.4h2l0.7 4.4-1.7 1.6-1.3-1.3h-2z"/>
		<path id="Path 377" class="s26" d="m325.3 490v-2.7l3.7 0.4 2 2.3h3.7l1.3 6.7-1.3 0.3v1h-5.4-4z"/>
		<path id="Path 378" class="s66" d="m369.3 492.7v-5.4h5.4l0.6 2.7v2.7h-4.6z"/>
		<path id="Path 379" class="s60" d="m778.7 500.7l-1.4-0.7-2.3-6.3-1.7-1v-5l5.4-0.4 1.3 2.7v4l2.7 1.3v5.4z"/>
		<path id="Path 380" class="s50" d="m894.3 488.7l-0.3-1.4 2 0.4 0.3 1.3h2.7v1.3h3.7l0.3 1.4h2.7l0.3 1.3 6 1.3 1 1.7h2.7l0.3 1.3h3.3l3.4 2.7h2l2.3 2.7-0.3 0.6h-0.7l-0.3-1-8.7-4.3-9-3z"/>
		<path id="Path 381" class="s53" d="m493.3 489.3l0.4-1.3h4.3l0.7 3.3h-5.4z"/>
		<path id="Path 382" class="s16" d="m890.7 490v-2l3.6 0.7 13.7 6.3v1.7h-6.3l-3-2.7h-7z"/>
		<path id="Path 383" class="s15" d="m69.7 491.3l3.3-1 1.3-1.6h1.7v3.3l-1.3 0.3v5.7l0.3 2.7-1.7 2v4.6h-3.6l-0.7 1-6 0.4-1.7 1.3h-2.3l-2.7-2.7-0.6-5.6 7-6.4 4-0.3z"/>
		<path id="Path 384" class="s75" d="m122 497.3l-2.7-1.3-0.6-7.3h5.3l1.3 2.6v4.7l-1.3 1.3z"/>
		<path id="Path 385" class="s26" d="m240 490.7l1.3-1.7 2.7-0.3h4l3.3 4.3 3.4 1v2.7h-12l-2.7-1.4z"/>
		<path id="Path 386" class="s26" d="m282.7 494v-5.3h6.6l1 1.3h4.4v3.3l3 2 11 0.7 1 2 9 0.7v12.6l-0.7 2h-2.3l-1 1v7.7h-3l-2.7-2.7h-5v-3.6l-1.3-1.4-5.4-0.3v-7l-2.6-2.7-6-0.3-0.7-5.7z"/>
		<path id="Path 387" class="s73" d="m400 492.3l2.7-2.6 4-1h9.3v2.3l2 1.7 0.7 4h2.6l0.7-3.7 2-1.7h7.3l2.7 2.4v2.3l2 0.7v3.6l-1.3 1v5l-2.7 3.4v3h-2-6l-10.7-1.4h-3.3l-1.3 2.7h-4.7l-1-0.7-0.3-9.6-2.7-1.7z"/>
		<path id="Path 388" class="s71" d="m478.7 490l0.3-1.3h7.7l6.6 0.6v2l-2.6 2.4v3l-3.4 2.3v5l1.7 1.3 3.7 0.4 2 3h4v6.6l-9.4-0.6-2-4.4-7.3-0.3z"/>
		<path id="Path 389" class="s77" d="m518.7 492.7v-3.7l4-0.3h4l0.3 2 1.7 0.6v1.4h-3l-0.4 1.3z"/>
		<path id="Path 390" class="s21" d="m565.3 492.7v-4h4l1.4 5.3h-3z"/>
		<path id="Path 391" class="s73" d="m576 504.7l1-2 4.3-0.7v-9l-1.3-1v-3.3h4.7l0.6 1.3h10.7l4 2.7 0.7 3.6 3 3.4 2 0.3 2.3 4.7v4.3l-7 5h-21v-3.7l-4-3z"/>
		<path id="Path 392" class="s60" d="m744 499.3l-0.7-10.6h4.7l1.3 9.3-0.6 1.3z"/>
		<path id="Path 393" class="s17" d="m44 497.3l0.3-1.3 6.7-1.7 0.3-1.3h2.4l0.6-1.3h2.4l1-1.4h3l0.3-1.3h1.3v1l-18.3 8z"/>
		<path id="Path 394" class="s78" d="m62.3 490l2.7-0.3 0.3 0.6-2.6 3.4v1.6l-7 6.4-9 1.6h-5l-1.7 2.7-6 0.7-3 2.6-1.3 1.4h-5.4l-2.6 2h-1.7v-2.7-5l6-3 7.3-1.3 2-1.4h4.7l1-1.3h3z"/>
		<path id="Path 395" class="s54" d="m65.3 490.3l2.7-0.3 1.7 1.3-3 3.7-4 0.3v-1.6z"/>
		<path id="Path 396" class="s77" d="m206.7 494v-4l2.6 0.7v2l-0.6 1.3z"/>
		<path id="Path 397" class="s70" d="m269.3 492.7h1.4l1.3-2.7 5.3 0.3 1.4 1.4v2.3 2.3l-1.4 1.7h-6l-0.6-2-1.4-0.7z"/>
		<path id="Path 398" class="s66" d="m320 498v-2.3l-1.3-1 0.6-4.7h6v8h-0.6z"/>
		<path id="Path 399" class="s77" d="m375.3 492.7v-2.7h3.4v4h-2.7z"/>
		<path id="Path 400" class="s66" d="m382.7 496.7h2.6l1.4-1.4v-5.3h4l2.6 1.3v3.4l2 0.3 2 2v5l-1.3 2.7h-10.7l-0.6 1.3h-2v-5.3z"/>
		<path id="Path 401" class="s21" d="m646.7 498l2.6-1.3v-6.7h2l5 2 1.4 6.7 3 2.6 2 0.4 0.3 1.6 2.7 2.7h5l2.3 2.3v2.4l1.3 1.3 4.4 1v3.7l-2.7 1.3h-3.7l-1.6-2.7h-6.4l-0.3 6.7v1.3l-2.7 2.7h-5.3-3.7l-0.3 2.7h-5.7l-2.3 1.3h-11.3l-0.7-9.3 2-2.7v-3.3l-6-0.7v-5.3-5.4h1.3l6 0.7 1 8.7 2 2h3l0.7 1.3h1.3l0.7-1.7 4-3z"/>
		<path id="Path 402" class="s60" d="m694.7 492.7v-2.4l1.3-0.3 3.3 0.7v2.6z"/>
		<path id="Path 403" class="s77" d="m782.7 500.7v-5.4l-2.7-1.3v-4h4 9.3l1.4 2.7v5.3l-1.4 0.3v5 2.7l-1.3 1.3h-4l-1-0.6v-4l-1.7-1.7z"/>
		<path id="Path 404" class="s15" d="m877.7 490.3l7.6-0.3h5.4l1 4h7l3 2.7h6.3l2 2.3 7.7 2 1 1v4l-0.7 4 0.7 5.3-9.4-1.3v-4.3l-1.3-1h-5.7l-1 0.6v2h-5.3v-3.3l-1.3-2h-6.7l-3.3-4h-8.7v-2.7-3l2-1.6z"/>
		<path id="Path 405" class="s26" d="m341.3 496.7v-4.7l2.7-1.3 9.3 0.6v2l2.4 0.7v1.7l1.6 0.3 0.4-2h5l0.6 4.3 7.4 0.4h5.3l1 2h5.7v5.3 1.3l-1.4 0.7v10l-3.6-0.7-2.4-3.3h-7.3v-6.3l-2-1.7h-8.3l-0.4 5.3h-2.6-10l-0.7-4.3-4-1v-5.7l1.3-1z"/>
		<path id="Path 406" class="s79" d="m81 491.7l5-0.4 2 1.4v6.6l-1.3 1.4h-8v-2.7l0.6-4.7z"/>
		<path id="Path 407" class="s45" d="m122 497.3h2l1.3-1.3v-4.7h5.4l1.3 1v11h-5.3l-1.4-2h-3.3z"/>
		<path id="Path 408" class="s22" d="m218.7 493.3l2.3-2h4.3 2v4.7l4.7 0.7h6.7l1.3-1.4 2.7 1.4v9.3h-6.4l-4.3 4.3v8.7l-7 0.3-1-1.3h-3.7l-3-3.3v-13.4l1.4-1.3z"/>
		<path id="Path 409" class="s26" d="m232 496.7l-4.7-0.7v-4.7h3.4l1.3 1z"/>
		<path id="Path 410" class="s26" d="m397.3 502v-5l-2-2-2-0.3v-3.4h5.4l1.3 1v9.7z"/>
		<path id="Path 411" class="s74" d="m498.7 508.7h-4l-2-3-3.7-0.4-1.7-1.3v-5l3.4-2.3v-3l2.6-2.4h5.4l1 0.7 1.3 5.3 1.7 1v3.7 5.3h-3.7z"/>
		<path id="Path 412" class="s26" d="m600 492.7h2.7l0.6-1.4h6l2.7 1v3 9.4h-4l-2.3-4.7-2-0.3-3-3.4z"/>
		<path id="Path 413" class="s73" d="m617.3 495.3v-4h4 1.4v5.4h-4.7z"/>
		<path id="Path 414" class="s60" d="m622.7 496.7v-5.4h5.3l1.3 1.4v10.6h-1.3z"/>
		<path id="Path 415" class="s66" d="m707 497.3l-0.3-3.6 1-2.4h3.6v5.4z"/>
		<path id="Path 416" class="s70" d="m711.3 496.7v-5.4h0.7 2.7l3 2-1.7 3.4z"/>
		<path id="Path 417" class="s15" d="m841.3 494v-2.7h4v4h-2.6z"/>
		<path id="Path 418" class="s9" d="m845.3 495.3v-4h5.4l1.3 1v7h-6l-0.7-1.3z"/>
		<path id="Path 419" class="s75" d="m74.7 498v-5.7l1.3-0.3h2l1.3 1.3-0.6 4.7z"/>
		<path id="Path 420" class="s35" d="m192 498v-5.3l4.7 0.3 0.6 3.7h-1.6l-1 1.3z"/>
		<path id="Path 421" class="s22" d="m206.7 494h2l0.6-1.3h4v2.6l1.4 1.4v4.3l-6.7 1v-4l-1.3-1.3z"/>
		<path id="Path 422" class="s26" d="m214.7 501v-4.3l-1.4-1.4v-2.6h4l1.4 0.6v6.7l-1.4 1.3z"/>
		<path id="Path 423" class="s73" d="m362.7 494v-1l1.3-0.3h5.3 1.4v6l-7.4-0.4z"/>
		<path id="Path 424" class="s53" d="m370.7 498.7v-6h4.6l0.7 1.3v2.7 2z"/>
		<path id="Path 425" class="s73" d="m514.3 493.7l0.7-1h3.7l6.6 1.3v2.7l-2.3 2-1.3 3-5.7 1.6z"/>
		<path id="Path 426" class="s74" d="m525.3 494l0.4-1.3h3l2 1v3 4 4l-2.7 1.6v6.4h-1.3-5.7l-2 3-5.7 0.3v-7.3l-1.3-0.4v-3.6l4-1.4 5.7-1.6 1.3-3 2.3-2z"/>
		<path id="Path 427" class="s22" d="m560.7 495.3l-0.7-2.6h3.3l-1.3 2.6z"/>
		<path id="Path 428" class="s26" d="m560.7 495.3h1.3l1.3-2.6h2l2.4 1.3h3v9.3h-2.4l-1.6 1.7v2.3h-4.7v-7l-1.3-1z"/>
		<path id="Path 429" class="s73" d="m629.3 503.3v-10.6h4 8l1.4 3.6h2l2 1.7 1.3 13.3-4 3-0.7 1.7h-1.3l-0.7-1.3h-3l-2-2-1-8.7z"/>
		<path id="Path 430" class="s26" d="m700 500.7v2.3l-1.3 0.7-0.7 3.6-2.7-0.6-0.6-3-3-0.4-1-1.3v-5.7l1.3-1v-2.6h2.7l4.6 0.6z"/>
		<path id="Path 431" class="s35" d="m794.7 498v-5.3h2.6 1.4l2.6 2.3v3h-4z"/>
		<path id="Path 432" class="s71" d="m508 502v-6.3l1.7-1.7 4.6-0.3 1.7 9.6-4 1.4-2-2.4z"/>
		<path id="Path 433" class="s15" d="m149.3 500.7h1.4l2.6-2.7 1.4-4h5.3l0.7 5.3 2 2.4-2.7 3h-6.7l-1.3-1.4h-2.7z"/>
		<path id="Path 434" class="s11" d="m254.7 496.7v-2.7h5.3l1.3 1.3v2.7l-2.6 0.7-1.4-1.7z"/>
		<path id="Path 435" class="s73" d="m271.3 498h6l1.4-1.7v-2.3h4l5.3 4.3 0.7 5.7 6 0.3 2.6 2.7v7 4l-2.6 1.3-4.4-0.6-1-2h-4l-0.6-6h-4l-1.4-2h-4.6l-0.7-2.4-3.3-0.3z"/>
		<path id="Path 436" class="s46" d="m357.7 494l-0.4 2-1.6-0.3v-1.7z"/>
		<path id="Path 437" class="s25" d="m376 496.7v-2.7h2.7v2z"/>
		<path id="Path 438" class="s74" d="m536 499.3h2.7l1-1 0.6-4.3h5l2 3 5 0.3 2.4 1.7v7h-8l-0.7-2-2.7-0.7h-2.3l-1 1.4h-4v-4z"/>
		<path id="Path 439" class="s70" d="m805.3 499.3h4.4l3-1.3h13.3l0.7-1.3h4l0.6-2.7h10l1.4 1.3v2.7l-1.4 2.7h-6.3l0.3 2.3 2 1.7v4 4l2.7 1v3.6l-2.7 1v2.4l-9.6-0.4-0.4-3-2.6-3.3h-12v-1.3l-2-1.4h-4v-6.6l-1.4-1.4z"/>
		<path id="Path 440" class="s12" d="m908 496.7v-1.7l9 3 8.7 4.3 0.3 1-3.3 2.7h-4v-4l-1-1-7.7-2z"/>
		<path id="Path 441" class="s45" d="m97.3 498v-2.3l1.4-0.4h4v5.4h-4.4z"/>
		<path id="Path 442" class="s26" d="m258.7 498.7l2.6-0.7v-2.7h8l1.4 0.7 0.6 2-0.6 8-1.4 0.7v3.3h-8l-2.3-1.3z"/>
		<path id="Path 443" class="s71" d="m454.7 495.3l1.3 0.7-0.7 4-3.3-0.7v-4z"/>
		<path id="Path 444" class="s71" d="m612 504.7v-9.4h5.3l0.7 1.4h4.7l5.3 6.6v5.4h-10.3l-3-4z"/>
		<path id="Path 445" class="s26" d="m845.3 495.3v2.7h-2.6v-2.7z"/>
		<path id="Path 446" class="s70" d="m376 496.7l2.7-0.7 4 0.7v4h-5.7l-1-2z"/>
		<path id="Path 447" class="s15" d="m194.7 498l1-1.3h1.6 4v5.3h-5.3l-1.3-1.3z"/>
		<path id="Path 448" class="s9" d="m201.3 502v-5.3h5.4l1.3 1.3v4z"/>
		<path id="Path 449" class="s29" d="m242.7 506v-9.3h12l2.6 0.3 1.4 1.7 0.3 10 2.3 1.3v2.7h-5.3l-8-1.4v-3.6l-2-1.7z"/>
		<path id="Path 450" class="s22" d="m334.7 498v-1l1.3-0.3h5.3v2.6l-1.3 1v5.7h-5.3z"/>
		<path id="Path 451" class="s26" d="m530.7 500.7v-4h2.6l2.7 2.6v1.4z"/>
		<path id="Path 452" class="s12" d="m732 502v-5.3l4.3 0.3 1 2.3v2.7z"/>
		<path id="Path 453" class="s61" d="m35.3 498.7l8.7-1.4v0.7h-3l-1 1.3h-4.7z"/>
		<path id="Path 454" class="s33" d="m75 500.7l-0.3-2.7h4v2.7z"/>
		<path id="Path 455" class="s29" d="m88 499.3l9.3-1.3 1 2.7h4.4l18.6 0.6v4l1.4 2.7 2.6 0.7 0.4 1.6-0.4 3.4 1 1.6-0.6 0.7-7.4-0.7-1.3-1.6 0.3-4-1.3-1-4 0.3v3.7h-6.3l-0.7 1h-3.7l-5-2.4h-3l-1.3-2.3-3.3-0.3-0.7-1.4h-14.7v-4.6l1.7-2h3.7 8z"/>
		<path id="Path 456" class="s9" d="m194.7 498v2.7h-2.7v-2.7z"/>
		<path id="Path 457" class="s73" d="m318.7 498.7l1.3-0.7h4.7v3.3l3.3 0.7 1.3-1.3v-2.7h5.4v8h-4.4l-7.3 5.3h-4.3z"/>
		<path id="Path 458" class="s22" d="m329.3 498v2.7l-1.3 1.3-3.3-0.7v-3.3h0.6z"/>
		<path id="Path 459" class="s70" d="m793.3 503.3v-5l1.4-0.3h2.6v5.3z"/>
		<path id="Path 460" class="s66" d="m797.3 503.3v-5.3h4 2.7l1.3 1.3v4l1.4 1.4v6.6l-0.7 2.7h-4l-4.7-4z"/>
		<path id="Path 461" class="s46" d="m837.3 508.7v-4l-2-1.7-0.3-2.3h6.3l1.4-2.7h2.6l0.7 1.3h6l5 2.7h3.7l1.6 2.7h1.7v8 2.6h-8l-0.7-2.3-4-0.3-1.3-2.4h-1.7l-1.3-1.3z"/>
		<path id="Path 462" class="s3" d="m26 501.3l1-1.3h6l0.3-1.3h2v0.6l-2 1.4-7.3 1.3z"/>
		<path id="Path 463" class="s22" d="m868 504.7l0.3-5.4h7.7v2.7 6.7h-1.3l-1.4-2.4-4.6-0.3z"/>
		<path id="Path 464" class="s29" d="m141.7 511.3l-0.4-7.6 3.4-3h4.6v2.6l-2.6 0.4v7.6z"/>
		<path id="Path 465" class="s45" d="m178.7 503.3v-2.3l2.6-0.3 4 1.3v8h-6.6z"/>
		<path id="Path 466" class="s11" d="m185.3 502l6.7-1.3h2.7l1.3 1.3v6l2.7 1.3v4.7h-5l-0.4 2.7h-5.3l-2.7-1.4v-5.3z"/>
		<path id="Path 467" class="s53" d="m528 512.7v-6.4l2.7-1.6v-4h5.3v4 4.6l-3.7 0.7-0.3 2.7z"/>
		<path id="Path 468" class="s74" d="m681.3 510v-3.3l-1.3-0.7v-5l2.7-0.3 3.6 2 0.4 7.3h-4z"/>
		<path id="Path 469" class="s26" d="m770.7 512.7l0.3-1.4 4.3-0.6v-3.7l3.4-2.7v-3.6h4l2.6 0.3 1.7 1.7v4l1 0.6h4l1.3-1.3v-2.7h4v6.7l-5.3 0.3v6.4h-3.3l-3-2.7-8 0.7-0.4 7.3h-2.6l-2.7-2z"/>
		<path id="Path 470" class="s29" d="m208 502l6.7-1 2.6 0.3v13.4l3 3.3-0.3 6.7-1.3 0.3v3.7h-11.7l-1-3.4 0.7-3.3-2.4-2h-3l-1.3-5.3-1.3-0.7v-4.7l-2.7-1.3v-6h5.3z"/>
		<path id="Path 471" class="s4" d="m4 518h1v-4h1.3v-2l1.7-2 2.3-0.3 1.7-1.4v-1.3l4-1.3 0.3-1.4 6.7-1.6 0.7-1.4h2.3v0.7l-6 3h-2.7l-4.6 3.7-2.7 2-1.3 0.3-3 4-0.4 3.3-1.3 0.4z"/>
		<path id="Path 472" class="s10" d="m125.3 508.7l-2.6-0.7-1.4-2.7v-4h0.7 3.3l1.4 2v4z"/>
		<path id="Path 473" class="s45" d="m162.7 501.7l6-0.4 0.6 2 1.4 5v7l-2 2.7h-6v-4l-2.7-1.3v-8z"/>
		<path id="Path 474" class="s45" d="m46.7 503.3l9-1.6 0.6 5.6 2.7 2.7h2.3v6h-5.6l-2.4-4.7h-4.3l-1.7 1.7-0.6 5.7h-2.7l-1.3-1.4-3.4-0.6-0.6-1.4v-3l2.3-1.3 0.3-2.3h4l1.4-2.4z"/>
		<path id="Path 475" class="s21" d="m396 504.7l1.3-2.7h2.7l2.7 1.7 0.3 9.6 1 0.7v1.3h-3l-1.3-1.3-0.7-5.7-3-1.6z"/>
		<path id="Path 476" class="s73" d="m502.7 507.3v-5.3h5.3l2 0.3 2 2.4v3.6l-6.7 0.4z"/>
		<path id="Path 477" class="s80" d="m729.3 504.7v-1l2-0.4 0.7-1.3h5.3l4 2v6l2.7 1.7v5 4 3.3l-3 0.7-2.3 2.6h-1.4l-0.3-1.3-2.3-1.3v-4-2.4l4-2.6v-4.4l-2.7-0.6-1.3-3.4h-5.4z"/>
		<path id="Path 478" class="s9" d="m876 508.7v-6.7h8.7l3.3 4v3.3l-0.3 0.7h-4.7l-1-1.3z"/>
		<path id="Path 479" class="s5" d="m926.7 503.3l0.3-0.6 3.7 1.3v1z"/>
		<path id="Path 480" class="s80" d="m719.3 506l-1.3 2.7h-4.7l-0.6-4 1-1.4 2.3-0.3 2.7 0.3z"/>
		<path id="Path 481" class="s23" d="m40 506l1.7-2.7h5v3l-1.4 2.4h-4z"/>
		<path id="Path 482" class="s11" d="m125.3 508.7l1.4-1.4v-4h5.3l3.3 5.7 2.7 0.7 1.3 2.3h1.4v2l-8.7 1-0.3-4.7h-6z"/>
		<path id="Path 483" class="s11" d="m146.7 511.3v-7.6l2.6-0.4h2.7l1.3 1.4 0.4 3.3 3.6 3.3v1.4l-1.3 4h-9z"/>
		<path id="Path 484" class="s10" d="m170.7 515.3v-7l-1.4-5h5.4v4.4l1.3 2.3-1 4.7-1.7 0.6z"/>
		<path id="Path 485" class="s11" d="m176 510l-1.3-2.3v-4.4h4v6.7z"/>
		<path id="Path 486" class="s71" d="m536 504.7h4l1-1.4h2.3l2.7 0.7 0.7 2v2.7l-7.4 0.6h-3.3z"/>
		<path id="Path 487" class="s74" d="m566.7 507.3v-2.3l1.6-1.7h2.4l5.3 1.4v2.6l4 3v3.7l-1.3 2.7-4.4-0.4-3.3-4.3-4.3-2z"/>
		<path id="Path 488" class="s27" d="m922.7 506l3.3-2.7h0.7l4 1.7 5.6 3.7 5.7 1.3 4 0.7 0.7 0.6 1.3 8.7h-1.7l-3 3.3h-10v-6.3l-4-4-5.6-1.7z"/>
		<path id="Path 489" class="s13" d="m930.7 505v-1l1.6 0.3 0.4 1.4h2.3l0.3 1.3h2.4l0.3 1.3h4l1.3 1.4-1.3 0.3-5.7-1.3z"/>
		<path id="Path 490" class="s29" d="m157.3 512.7v-1.4l-3.6-3.3-0.4-3.3h6.7v8z"/>
		<path id="Path 491" class="s63" d="m382.7 506h2l0.6-1.3h10.7v2l3 1.6 0.7 5.7 1.3 1.3h3l-0.7 10.7h-7.6l-2.7 0.7-1 2h-2.3l-1.7-2.7h-5.3l-1.4-8v-10l1.4-0.7z"/>
		<path id="Path 492" class="s60" d="m446.7 516.7l0.3-4 2-0.4 3-3.3 5.7-2.3 0.6-1.4 9.7-0.6v4.3l2.7 2.7v3l-9 0.6-0.4 5.4h-5.6l-1 2.6-6.7-1.3z"/>
		<path id="Path 493" class="s80" d="m580 514h21l7-5v-4.3h4 2.7l3 4h10.3v5.3l-1.3 2.3v3l2 1.4h3.3l0.7 9.3-0.7 1.3-10.7 1.4-1.3-1.4-0.7-4.6-8-2-3.3 0.3v3.7h-6.3l-4.4 4.6-4.6-0.6-2-2.7h-6.7l-2-2.7h-9l-1.3 2.7h-3l-0.7-1.3h-4v-8.7l-1.3-2h-1.4v-9.3l0.7-1.4h4.7v2.7l4.3 2 3.3 4.3 4.4 0.4z"/>
		<path id="Path 494" class="s53" d="m722.7 506l0.3-1.3h6.3v2.6l-1.3 2.7h-5.3z"/>
		<path id="Path 495" class="s70" d="m864 512.7v-8h4l0.7 1.3 4.6 0.3 1.4 2.4v4z"/>
		<path id="Path 496" class="s42" d="m12.7 508.7l4.6-3.7h2.7v5h-4-2.3z"/>
		<path id="Path 497" class="s15" d="m31 509.3l3-2.6 6-0.7 1.3 2.7-0.3 2.3-2.3 1.3-4-0.3-0.7-1.3h-2.3z"/>
		<path id="Path 498" class="s73" d="m232 519v-8.7l4.3-4.3h6.4 3.3l2 1.7v3.6l-1.3 4h-5l-1 4z"/>
		<path id="Path 499" class="s22" d="m269.3 510v-3.3l1.4-0.7 3.3 0.3 0.7 2.4-1 3.3h-4.4z"/>
		<path id="Path 500" class="s60" d="m318.7 511.3h4.3l7.3-5.3h4.4 5.3l4 1 0.7 4.3-0.7 10.7v2.7h-6.7v-3.7l-4-3-5.3 0.3v5h-8.7l-4.6 1.4v-2.7-7.7l1-1h2.3z"/>
		<path id="Path 501" class="s69" d="m357.3 511.3l0.4-5.3h8.3l2 1.7v6.3h-5.3l-2-2.7z"/>
		<path id="Path 502" class="s21" d="m546.7 508.7v-2.7h8l1.3 0.7v2l-0.7 3.3-2 0.7-5.3-1z"/>
		<path id="Path 503" class="s22" d="m888 509.3v-3.3h6.7l1.3 2v3.3z"/>
		<path id="Path 504" class="s75" d="m918.7 515.3l-0.7-5.3 0.7-4h4l1 5.3 5.6 1.7 4 4v6.3h-5.3l-4.3-1.3-0.4-5-1.3-1.3z"/>
		<path id="Path 505" class="s56" d="m69 508.3l0.7-1h3.6 14.7l0.7 1.4 3.3 0.3 1.3 2.3-1.3 14.7h-4.3l-1 1.3h-7.7l-4 4.4-3.7-2-0.6-3.7h-5.4v-3.3h4.7l1.3-2h1.7l1.7-1.7v-4l-1.4-1h-4z"/>
		<path id="Path 506" class="s53" d="m498.7 508.7l0.3-1.4h3.7l2.6 1.4 0.4 7.3 5.6 0.7v2.6l-2 1.4h-8l-2.6-1.4v-4z"/>
		<path id="Path 507" class="s60" d="m728 510l1.3-2.7h5.4l1.3 3.4 2.7 0.6v4.4l-4 2.6v2.4h-4v-2.7l-2.7-0.7z"/>
		<path id="Path 508" class="s37" d="m61.3 510l1.7-1.3 6-0.4 0.3 5.7-0.6 2.7h-7.4v-0.7z"/>
		<path id="Path 509" class="s21" d="m505.3 508.7l6.7-0.4 1.3 0.4v7.3l-2 0.7-5.6-0.7z"/>
		<path id="Path 510" class="s43" d="m10 510.7l2.7-2 1 1.3h2.3v3.7l-1.7 1.6h-5z"/>
		<path id="Path 511" class="s79" d="m112 512.7v-3.7l4-0.3 1.3 1-0.3 4z"/>
		<path id="Path 512" class="s71" d="m273.7 512l1-3.3h4.6l1.4 2h4l0.6 6h-2l-1.3-2h-7z"/>
		<path id="Path 513" class="s80" d="m539.3 509.3l7.4-0.6 1.3 3 5.3 1 0.4 6.6-0.4 9.4v5.3h-9.3v-8-7l-2.7-1.3-2-3z"/>
		<path id="Path 514" class="s73" d="m553.3 512.7l2-0.7 0.7-3.3h5.3v9.3l-7.6 1.3z"/>
		<path id="Path 515" class="s77" d="m837.3 520.7v-2.4l2.7-1v-3.6l-2.7-1v-4l9.7 0.3 1.3 1.3h1.7l1.3 2.4 4 0.3 0.7 2.3v12h-6.3l-1.7 1.7v3.7h-5.3l-0.7-4.4-3.3-1.6v-3.7z"/>
		<path id="Path 516" class="s35" d="m874.7 512.7v-4h1.3 6l1 1.3h4.7l-1 14.7-9.4 1.3-0.6-12z"/>
		<path id="Path 517" class="s9" d="m901.3 511.3v-2l1-0.6h5.7l1.3 1v4.3h-5.6z"/>
		<path id="Path 518" class="s23" d="m29.7 510.7l1.3-1.4 0.7 1.4h2.3l0.7 1.3v2l-4-1z"/>
		<path id="Path 519" class="s63" d="m532 512.7l0.3-2.7 3.7-0.7h3.3v5.4h-4.6z"/>
		<path id="Path 520" class="s77" d="m887.7 510l0.3-0.7 8 2h5.3l2.4 2.7h5.6l9.4 1.3 3.3 0.4 1.3 1.3 0.4 5 4.3 1.3 0.3 11.7-2.3 0.7-2 2.3h-4v-2.3l-1.3-1.7h-7.7l-2.7-2.7-0.3-1.6-3-1.4-1.7-2.3h-13.3l-3.3-1.3z"/>
		<path id="Path 521" class="s5" d="m942 510l1.3-0.3h10.4v0.3l-1 0.3-6.7 0.4z"/>
		<path id="Path 522" class="s7" d="m968 509.7v0.3h-14.3v-0.3z"/>
		<path id="Path 523" class="s13" d="m968 510v-0.3l7 0.3h-5z"/>
		<path id="Path 524" class="s44" d="m16 513.7v-3.7h4v2.7l-1.3 1.3z"/>
		<path id="Path 525" class="s79" d="m125.7 510.3h6l0.3 4.7-5.7 0.3-1-1.6z"/>
		<path id="Path 526" class="s15" d="m175 514.7l1-4.7h2.7 6.6v5.3l2.7 1.4v5.3l-5-0.7-1-1.3-5-0.7 0.3-3.6z"/>
		<path id="Path 527" class="s21" d="m261.3 512.7v-2.7h8v2l-1.3 2h-1.3l-1.4-1.3z"/>
		<path id="Path 528" class="s21" d="m478.7 514.7l1.3-4.7 7.3 0.3 2 4.4v4.6l-7 0.7-3.3-2.7z"/>
		<path id="Path 529" class="s26" d="m680 512.7v-2.4l1.3-0.3h1.4v2.7z"/>
		<path id="Path 530" class="s53" d="m682.7 512.7v-2.7h4v3.3l2.6 2v2.7l-6.6-1.3z"/>
		<path id="Path 531" class="s21" d="m720 520.7l1-2.4 1.7-1v-7.3h5.3v7.3l-2.7 0.4v7h-4.3z"/>
		<path id="Path 532" class="s60" d="m746.7 516.7v-2.4l2-0.3 0.6-3 1.7-1h13.7l2 2.7h4l1.3 7.3 2.7 2v5l-1.4 1v2h-9.3l-0.7-2-10-0.7-0.6-2.3-4.7-0.3-1.3-4z"/>
		<path id="Path 533" class="s60" d="m792 516.7v-6.4l5.3-0.3 4.7 4h4v2l-2 2v1.3h-10.7v-2z"/>
		<path id="Path 534" class="s24" d="m952.7 510.3l1-0.3h14.3 2v1.3h-8.7-8z"/>
		<path id="Path 535" class="s19" d="m970 511.3v-1.3h5l2 1.3-0.3 0.7z"/>
		<path id="Path 536" class="s4" d="m977 511.3l-2-1.3h1.7z"/>
		<path id="Path 537" class="s81" d="m946 510.7l6.7-0.4 0.6 1h-6.6z"/>
		<path id="Path 538" class="s82" d="m5.3 518.3l0.4-3.3 3-4 1.3-0.3-0.7 4.6-1.3 0.7-0.3 2.3-1.7 2z"/>
		<path id="Path 539" class="s63" d="m20 512.7h1.7l2.6-2h5.4l1 2.3 4 1 1.3 1.3v7.4l-9.3 0.6v-2.3l-2-1.7h-6.7l-3.3-1.3-0.4-2.7 1.7-1.6 2.7 0.3z"/>
		<path id="Path 540" class="s79" d="m141.7 511.3h5l0.3 5.4h-5.7l-0.6-2.7v-2z"/>
		<path id="Path 541" class="s24" d="m977 511.3l2-0.3 2 1.7h1.7 2.3l0.3 1.3h1v1l7 6.3 0.4 0.7v0.3l1 2.7-8-9-4.7-2.7-3-0.3-2.3-1z"/>
		<path id="Path 542" class="s4" d="m982.7 512.7h-1.7l-2-1.7z"/>
		<path id="Path 543" class="s15" d="m38.7 515.3l0.6 1.4 3.4 0.6 1.3 1.4h2.7l0.6-5.7 1.7-1.7h4.3l2.4 4.7h5.6v0.7l0.4 3.3 3.3 1.3 0.3 1.4v3.3h-2.3l-0.3 1-6.7 0.3h-8-6.7l-0.3-3.6-5-1v-7.4z"/>
		<path id="Path 544" class="s23" d="m92 526l1.3-14.7h3l5 2.4v4.3l-1.3 0.3v4.4l1.3 2v1.3l-2.6 1.7v5h-1.7l-1-1.7-0.7-3.3-3.3-0.4z"/>
		<path id="Path 545" class="s66" d="m246.7 515.3l1.3-4 8 1.4v8l-1.3 0.6-8-0.6z"/>
		<path id="Path 546" class="s53" d="m344 522l0.7-10.7h10v4.7l-2 1v3.7l-1 1.3z"/>
		<path id="Path 547" class="s21" d="m351.7 522l1-1.3v-3.7l2-1v-4.7h2.6 3.4l2 2.7h5.3 7.3l2.4 3.3 3.6 0.7 1.4 8-2.7 1.3h-4l-3-0.6-2-2-1.7-4.7-3.6-0.7-3 0.4-1.4 7.6h-2-4.6l-1.4-1.3v-2z"/>
		<path id="Path 548" class="s53" d="m408.7 514l1.3-2.7h3.3v4l-2.6 0.7z"/>
		<path id="Path 549" class="s60" d="m413.3 515.3v-4l10.7 1.4v8 2l-2 2h-4.3l-1.7-2.7v-5.7z"/>
		<path id="Path 550" class="s26" d="m806 514l0.7-2.7h4l2 1.4v1.3l-2 2.7-4.7-0.7z"/>
		<path id="Path 551" class="s33" d="m948 520l-1.3-8.7h6.6 8v7.4l-4.6 1.6-0.7 3h-2.7v-1.6l-1.3-1.4z"/>
		<path id="Path 552" class="s27" d="m956 523.3l0.7-3 4.6-1.6v-7.4h8.7l6.7 0.7 2.3 1-4.3 2.7-3.4 4.3-4.6 1v5.7l2 2.3 2 0.7v4.3l-2.7 2.7h-2.3l-2 1.6-2.4 3.7h-8v-5.3-0.7l5.4-0.7 0.6-4 2-1.3v-2.7l-4.3-1.3z"/>
		<path id="Path 553" class="s37" d="m34.7 514v-2l4 0.3v3h-2.7z"/>
		<path id="Path 554" class="s53" d="m266.7 514h1.3l1.3-2h4.4l1.3 2.7h7l1.3 2-0.6 9.3h-6.7l-2.7-3.7-6.6-0.3z"/>
		<path id="Path 555" class="s43" d="m105 513.7l0.7-1h6.3l5 1 1.3 1.6-1 1v4.4h-5l-0.3 1.3h-4.7v-2l-1.3-0.3-0.7-1.7z"/>
		<path id="Path 556" class="s79" d="m156 516.7l1.3-4h2.7l2.7 1.3v4l-2.7 0.7h-4z"/>
		<path id="Path 557" class="s60" d="m256 520.7v-8h5.3 4l1.4 1.3v8l-4 0.3-2-1.6z"/>
		<path id="Path 558" class="s21" d="m424 520.7v-8h6l0.7 2.6h2.6 2.7l0.7 1.4-2 5.3h-6.7l-0.7-1.3z"/>
		<path id="Path 559" class="s60" d="m433.3 515.3h-2.6l-0.7-2.6h2l1.3 0.6z"/>
		<path id="Path 560" class="s80" d="m513.3 516l5.7-0.3 2-3h5.7l0.3 8.6 1.3 1.4 4.4 0.3 0.6 3v8 2.7h-10.6l-5.4-0.7-0.6-1.7-4.7-1v-6.3l-2.7-2.3v-4l2-1.4v-2.6z"/>
		<path id="Path 561" class="s21" d="m533.3 526l-0.6-3-4.4-0.3-1.3-1.4-0.3-8.6h1.3 4l2.7 2h4.6l2 3 2.7 1.3v7z"/>
		<path id="Path 562" class="s73" d="m678.7 513l1.3-0.3h2.7v4h-2-2z"/>
		<path id="Path 563" class="s80" d="m697.3 519.3l2.7-2.6 1-4h3.3l2 2.6 2.4 0.4 1.3 2.3 2 0.7v2 7.3l-2.7 1v2.3l-1.3 1.4h-3l-1-1.4h-5.3z"/>
		<path id="Path 564" class="s26" d="m864 515.3v-2.6h10.7l2 1.3 0.6 12-2.6 0.7h-1.4l-1.3-2h-6.7v-8z"/>
		<path id="Path 565" class="s33" d="m953.3 542h8l2.4-3.7 2-1.6h2.3l2.7-2.7v-4.3l-2-0.7-2-2.3v-5.7l4.6-1 3.4-4.3 4.3-2.7 3 0.3 4.7 2.7 8 9 1.3 2.3-0.3 1.4h-3.4l-3.6-4h-4.4l-1 1.3-3 0.3-0.3 7.7-6.7 1.7-1 3.3-1.6 1.7h-1.7l-2.3 3.6v9.4 0.3h-0.7l-7.3-0.3-10.7-1-5.7-0.7h-2.6l-5.7-0.7-4.3-0.6v-3l23-3.7z"/>
		<path id="Path 566" class="s76" d="m101.3 518v-4.3h3.7l0.3 4.3z"/>
		<path id="Path 567" class="s22" d="m68.7 516.7l0.6-2.7h4l1.4 1v4l-1.7 1.7h-1.7v-1l-2.6-1.7z"/>
		<path id="Path 568" class="s44" d="m132 515l8.7-1 0.6 2.7h5.7 9v2l-4 2.3v5h-2.3l-3 3v2.3h-8v-3.6l-1.4-1.4-5.3-0.3-0.3-3-5-1.7-1-5.3 0.6-0.7z"/>
		<path id="Path 569" class="s22" d="m193.3 516.7l0.4-2.7h5l1.3 0.7 1.3 5.3 0.4 4.7h-2.4l-1.3-1h-3.3l-2.7-2 1.3-1z"/>
		<path id="Path 570" class="s60" d="m294.7 519.3l2.6-1.3v-4l5.4 0.3 1.3 1.4v3.6l-2.7 1v1.7h-6.6z"/>
		<path id="Path 571" class="s60" d="m404 515.3v-1.3h4.7l2 2 0.3 6-1.7 2v4.7h-4l-2-2.7z"/>
		<path id="Path 572" class="s83" d="m632 520.7h-3.3l-2-1.4v-3l1.3-2.3 6 0.7v3.3z"/>
		<path id="Path 573" class="s73" d="m777.3 522l0.4-7.3 8-0.7 3 2.7h3.3l1.3 0.6v2 4h-2.6-3l-1-1.3z"/>
		<path id="Path 574" class="s73" d="m810.7 516.7l2-2.7h12l2.6 3.3 0.4 3 9.6 0.4 1.4 2.3v3.7l-2 1.6-0.7 8.4h-9.3v-5l4-1.7v-3.7l-2.4-1.6h-5.3l-4 1.6-7.3-0.6z"/>
		<path id="Path 575" class="s3" d="m993.3 521.3l-7-6.3v-1l7.4 6v1.3z"/>
		<path id="Path 576" class="s79" d="m173.3 515.3l1.7-0.6 2.3 1-0.3 3.6-2 0.7-2-0.3z"/>
		<path id="Path 577" class="s63" d="m461.3 520.7l0.4-5.4 9-0.6h8l0.3 2.6 3.3 2.7 7-0.7h8v5.4l-1.3 0.3v5h-8l-0.7-1.3-6 0.3-2-2-4.3-1.7h-13.3z"/>
		<path id="Path 578" class="s60" d="m489.3 519.3v-4.6l9.4 0.6v4h-1.4z"/>
		<path id="Path 579" class="s56" d="m6 520.3l1.7-2 0.3-2.3 1.3-0.7h5l0.4 2.7-2.4 0.3-0.3 3-2.3 2.4h-1.7l-2-2z"/>
		<path id="Path 580" class="s78" d="m117.3 520.7v-4.4l1-1 7.4 0.7 1 5.3-1.4 0.7h-5.3l-1-1.3z"/>
		<path id="Path 581" class="s84" d="m168.7 518l2-2.7h2.6l-0.3 4.4 2 0.3-0.7 1.7-1.6 0.3-2.4-1.3z"/>
		<path id="Path 582" class="s26" d="m240.7 519.3l1-4h5v5.4 4h-3.4l-2.6-3.4z"/>
		<path id="Path 583" class="s21" d="m410.7 516l2.6-0.7 2.7 1v5.7h-5z"/>
		<path id="Path 584" class="s83" d="m664 522l0.3-6.7h6.4l1.6 2.7h3.7v2.3l1.3 1.7h2.7l0.7-5.3h2l6.6 1.3 2.7 1.3v6l2.7 1.4v6.6 3.4h-3.7l-2-1.4h-15.7v-1.3-7.7l-1.3-2.6-2-1.7z"/>
		<path id="Path 585" class="s35" d="m856 527.3v-12h8l1.3 1.4v8l-2.3 2-0.3 3.3h-6.7z"/>
		<path id="Path 586" class="s74" d="m804 519.3v-1.3l2-2 4.7 0.7 1 9-3.7 0.3-0.7-1.7-3.3-2.3z"/>
		<path id="Path 587" class="s27" d="m65.3 522.7l-0.3-1.4-3.3-1.3-0.4-3.3h7.4v1.3l2.6 1.7v1l-1.3 2z"/>
		<path id="Path 588" class="s79" d="m188 522v-5.3h5.3v4l-1.3 1-4 0.6z"/>
		<path id="Path 589" class="s21" d="m282.7 526l0.6-9.3h2 4l1 2 4.4 0.6v2.7l-2.7 6.7h-9.3z"/>
		<path id="Path 590" class="s63" d="m434.7 522l2-5.3h10l1.3 5.3-5.7 0.7-1 2h-6.6z"/>
		<path id="Path 591" class="s80" d="m676 518l2.7-1.3h2l-0.7 5.3h-2.7l-1.3-1.7z"/>
		<path id="Path 592" class="s71" d="m746.7 516.7v4h-2.7v-4z"/>
		<path id="Path 593" class="s80" d="m725.3 524.7v-7l2.7-0.4 2.7 0.7v2.7 4l-1.4 1.3h-2.6z"/>
		<path id="Path 594" class="s65" d="m8 523.7h1.7l2.3-2.4 0.3-3 2.4-0.3 3.3 1.3h6.7l2 1.7v2.3l-1.4 1.4h-4l-2-1.4h-4.3l-0.3 6.7-2.7-0.3-3-3z"/>
		<path id="Path 595" class="s54" d="m101.3 524.7l-1.3-2v-4.4l1.3-0.3h4l0.7 1.7 1.3 0.3v2l-2 2.7z"/>
		<path id="Path 596" class="s62" d="m160 518.7l2.7-0.7h6l1.6 2.7 2.4 1.3-0.7 2.7-8.3 0.6-1.7-1.3v-3.3z"/>
		<path id="Path 597" class="s80" d="m220 524.7l0.3-6.7h3.7l1 1.3 7-0.3 8.7 0.3v2l2.6 3.4-0.6 2.6h-8-1.4l-1.3-2.6z"/>
		<path id="Path 598" class="s21" d="m328 523.3v-5l5.3-0.3 4 3v3.7l-1.3 4h-5.3v-4z"/>
		<path id="Path 599" class="s63" d="m553.7 519.3l7.6-1.3h1.4l1.3 2v8.7h-10.7z"/>
		<path id="Path 600" class="s19" d="m4 518.7l1.3-0.4 0.7 2v1.4l-0.7 0.3h-0.3v-1h-1z"/>
		<path id="Path 601" class="s43" d="m152 526v-5l4-2.3h4l2 2v3.3l1.7 1.3-0.4 3.4h-2.6l-0.7-1.4h-2.7l-1.3-1.3z"/>
		<path id="Path 602" class="s52" d="m175 520l2-0.7 5 0.7 1 1.3-0.3 7 1.3 1.7v1.3h-2.7-7.6l-0.4 1.4h-4l-0.6-3-5.4-1 0.4-3.4 8.3-0.6 0.7-2.7 1.6-0.3z"/>
		<path id="Path 603" class="s21" d="m301.3 522v-1.7l2.7-1h5l2.7 2.7h3v2.7 4l1.3 1.3v5.3h-9.3l-3.7-2.6-1-2.4z"/>
		<path id="Path 604" class="s63" d="m361.3 527.3l1.4-7.6 3-0.4 3.6 0.7 1.7 4.7 2 2 3 0.6v4h-5.3v-2.3l-2-1.7z"/>
		<path id="Path 605" class="s80" d="m497.3 524.7v-5.4h1.4l2.6 1.4v4z"/>
		<path id="Path 606" class="s40" d="m694.7 533.3v-6.6l-2.7-1.4v-6h5.3l1.4 12-2 2z"/>
		<path id="Path 607" class="s71" d="m793.3 523.3v-4h10.7v2.7l3.3 2.3 0.7 1.7 3.7-0.3 7.3 0.6v4.4l2.3 2.3v3.7h-10l-5.3 1.3-0.7-2.7h-6.3l-1-1.3v-4.3l-2-1v-4.4z"/>
		<path id="Path 608" class="s79" d="m201.7 524.7l-0.4-4.7h3l2.4 2-0.7 3.3z"/>
		<path id="Path 609" class="s35" d="m933.3 523.3h10l3-3.3h1.7l4 0.3 1.3 1.4v1.6 8 4.7 0.7h-23.3l-1.7-1.7-0.3-11.7z"/>
		<path id="Path 610" class="s54" d="m112 522l0.3-1.3h5 1.7l1 1.3h5.3v5.3h-7l-0.3 1.4-5.7-0.7z"/>
		<path id="Path 611" class="s69" d="m246.7 524.7v-4l8 0.6v4.7h-7.4z"/>
		<path id="Path 612" class="s63" d="m254.7 521.3l1.3-0.6h4.7l2 1.6v3.7l-1.4 1v3h-1.3-5.3v-4z"/>
		<path id="Path 613" class="s80" d="m416 522l1.7 2.7h4.3l2-2v-2h3.3l0.7 1.3h6.7v2.7 4h-10.7l-13 0.6-1.7-0.6v-4.7l1.7-2z"/>
		<path id="Path 614" class="s80" d="m454.7 523.3l1-2.6h5.6l0.4 4.6-7 2z"/>
		<path id="Path 615" class="s63" d="m509.3 520.7v4h-8v-4z"/>
		<path id="Path 616" class="s83" d="m712 528v-7.3h8l1 4h4.3l1.4 1.3v4h-4-9z"/>
		<path id="Path 617" class="s53" d="m734.7 520.7v4h-4v-4z"/>
		<path id="Path 618" class="s21" d="m734.7 524.7l2.3 1.3 0.3 1.3h1.4l2.3-2.6 3-0.7v-3.3h2.7l1.3 4v9.3l-1.3 0.3v2.4h-5.4l-4.6-1.4h-8.7v-3.3l-1.3-2v-4h2.6l1.4-1.3z"/>
		<path id="Path 619" class="s3" d="m5 521v1h-1v-1z"/>
		<path id="Path 620" class="s76" d="m125.3 522l1.4-0.7 5 1.7 0.3 3-2 1.3h-4.7z"/>
		<path id="Path 621" class="s44" d="m184 530l-1.3-1.7 0.3-7 5 0.7v0.3 3l2 1v1.7 2z"/>
		<path id="Path 622" class="s7" d="m993.7 522l-0.4-0.7h0.4z"/>
		<path id="Path 623" class="s8" d="m5.3 522l0.7-0.3 2 2 1 3 3 3-0.3 0.3-4.4-3z"/>
		<path id="Path 624" class="s57" d="m188 522.3l4-0.6 2.7 2-1.4 2v2.3h-3.3v-1.7l-2-1z"/>
		<path id="Path 625" class="s3" d="m7.3 527.7l-2.3-2.7v-3h0.3l2 5z"/>
		<path id="Path 626" class="s37" d="m101.3 524.7h4l2-2.7h4.7l0.3 6 5.7 0.7 0.7 8.6-2-0.3-3-0.3-5.7-2.4-3.7-0.3-2.3-1-3.3-0.3v-5l2.6-1.7z"/>
		<path id="Path 627" class="s80" d="m262.7 522.3l4-0.3 6.6 0.3 2.7 3.7v2.7h-4l-2.3-2.7h-7z"/>
		<path id="Path 628" class="s74" d="m292 528.7l2.7-6.7h6.6l0.7 8.3 1 2.4 3.7 2.6v2.7h-5.7l-2.3-0.7-1.4-2h-5.3z"/>
		<path id="Path 629" class="s80" d="m344 524.7v-2.7h7.7l1.6 2v2l-9.3 1.3z"/>
		<path id="Path 630" class="s56" d="m434.7 524.7h6.6l1-2 5.7-0.7 6.7 1.3v4l-1.4 1.7v2.3h-4.6l-2-2.6h-6.4l-1.6 1.3h-3l-1-1.3z"/>
		<path id="Path 631" class="s74" d="m656 526h5.3l2.7-2.7v-1.3h6l2 1.7 1.3 2.6v7.7h-5.3l-2.7-3.7-5.3-0.3h-4z"/>
		<path id="Path 632" class="s71" d="m773.3 530v-2l1.4-1v-5h2.6 9.4l1 1.3h3v5.4l-3.7 3-0.3 2.3h-6.7-3.3l-3.4-2.7z"/>
		<path id="Path 633" class="s7" d="m994.7 525l-1-2.7 2.6 2 0.4 2.4-0.4 0.6h-0.3z"/>
		<path id="Path 634" class="s16" d="m26.7 523.3l9.3-0.6 5 1 0.3 3.6 0.7 6.7-0.7 6.7-4 0.3-4.3-0.3-6-2.7-0.7-1.3-5-2.7v-9.3h4z"/>
		<path id="Path 635" class="s12" d="m14.7 530l0.3-6.7h4.3l2 1.4v9.3l-3.6-1z"/>
		<path id="Path 636" class="s80" d="m314.7 524.7l4.6-1.4h8.7l2.7 1.4v4l-2.7 1v3h-6.7l-1.3-2.7h-4l-1.3-1.3z"/>
		<path id="Path 637" class="s74" d="m790.7 528.7v-5.4h2.6l2.7 1v4.4z"/>
		<path id="Path 638" class="s75" d="m953.3 531.3v-8h2.7l1 2.7 4.3 1.3v2.7l-2 1.3z"/>
		<path id="Path 639" class="s54" d="m193.3 528v-2.3l1.4-2h3.3l1.3 1 0.7 8.3-1.3 0.3-2-0.6v-1.7z"/>
		<path id="Path 640" class="s62" d="m200 533l-0.7-8.3h2.4l4.3 0.6 1 3.4-0.3 4.3z"/>
		<path id="Path 641" class="s40" d="m218.7 528.7v-3.7l1.3-0.3h12l1.3 2.6h1.4v8l-3.4 0.4-0.6 1h-6l-0.7-4.7-4.3-0.7z"/>
		<path id="Path 642" class="s40" d="m242.7 527.3l0.6-2.6h3.4l0.6 1.3h7.4v4 4h-12z"/>
		<path id="Path 643" class="s52" d="m336 528.7l1.3-4h6.7v2.6l-1.3 0.4v6.3h-6.7z"/>
		<path id="Path 644" class="s74" d="m496 530v-5l1.3-0.3h4 8l2.7 2.3v6.3l-1.3 0.7h-11.4z"/>
		<path id="Path 645" class="s83" d="m608 528.7v-3.7l3.3-0.3 8 2 0.7 4.6 1.3 1.4 10.7-1.4 0.7-1.3h11.3v8h-27.3-5l-1-1.3v-6.4z"/>
		<path id="Path 646" class="s74" d="m748 534v-9.3l4.7 0.3 0.6 2.3v6.7z"/>
		<path id="Path 647" class="s74" d="m819 526.3l4-1.6h5.3l2.4 1.6v3.7l-4 1.7v5h-5.4v-3.7l-2.3-2.3z"/>
		<path id="Path 648" class="s9" d="m862.7 530l0.3-3.3 2.3-2h6.7l1.3 2h1.4l-1.4 6h-4l-2-1.4h-4.6z"/>
		<path id="Path 649" class="s22" d="m877.3 526l9.4-1.3 3.3 1.3h13.3l1.7 2.3 3 1.4 0.3 1.6 2.7 2.7h7.7l1.3 1.7v2.3l-1.3 0.3v2.4h-5.4l-1.3-1.4h-3.7l-0.3 1.4-7 0.3-9-0.3-2-2.7h-7.3l-9.4-1.3v-4l1.4-6z"/>
		<path id="Path 650" class="s25" d="m966.7 553.7v-9.4l2.3-3.6h1.7l1.6-1.7 1-3.3 6.7-1.7 0.3-7.7 3-0.3 1-1.3h4.4l3.6 4h3.4l1.3 3v3.3l-1 2.3-0.3 2-1.7 3-4 4-2 1.7-4.7 2.7-2.6 0.3-3.7 2.7-3 0.3h-0.7z"/>
		<path id="Path 651" class="s79" d="m983.3 528.7h5.7l2.7 2 0.3 5.3-2.3 1.3-0.7 1.7-4 0.3-2.3-7.6z"/>
		<path id="Path 652" class="s74" d="m454.7 527.3l7-2h13.3l4.3 1.7 2 2v9h-2.6l-1.7-1.3h-23.7v-5.4-2.3z"/>
		<path id="Path 653" class="s43" d="m62.7 527l0.3-1h2.3 5.4l0.6 3.7 3.7 2-1 3-4 0.6-1.3-2-5.4-1.3z"/>
		<path id="Path 654" class="s29" d="m86.7 527.3l1-1.3h4.3v1.3 3.7l-2 1h-3.3z"/>
		<path id="Path 655" class="s54" d="m130 527.3l2-1.3 5.3 0.3 1.4 1.4v3.6 1.4h-8z"/>
		<path id="Path 656" class="s54" d="m146.7 531.3v-2.3l3-3h2.3 4l1.3 1.3h2.7l0.7 1.4-0.7 12.3h-4.7l-4.6-0.3v-2.7l-2.4-1.3-0.3-4.4z"/>
		<path id="Path 657" class="s40" d="m261.3 530v-3l1.4-1h7l2.3 2.7v7.3h-1.7l-1.6-0.7-0.7-2.6h-2.7l-1.3-2z"/>
		<path id="Path 658" class="s71" d="m276 528.7v-2.7h6.7v2.7 4l2.3 0.6 0.3 2v2.7h-9.3l-0.7-2z"/>
		<path id="Path 659" class="s56" d="m344 527.3l9.3-1.3 1.4 1.3h4.6v8l-0.6 2.7h-2.7-5.3l-0.7-3.7-6-0.3h-1.3v-6.3z"/>
		<path id="Path 660" class="s52" d="m380 527.3l2.7-1.3h5.3l1.7 2.7h2.3v2.6l-2.7 0.4v2.3h-8v-2l-1.3-0.7z"/>
		<path id="Path 661" class="s56" d="m392 528.7l1-2 2.7-0.7h7.6l2 2.7v2.6h-13.3z"/>
		<path id="Path 662" class="s74" d="m544 526v8h-10.7v-8z"/>
		<path id="Path 663" class="s80" d="m652 528.7l0.3-2.7h3.7v4h-4z"/>
		<path id="Path 664" class="s71" d="m836 536.7l0.7-8.4 2-1.6 3.3 1.6 0.7 4.4v5.3h-5z"/>
		<path id="Path 665" class="s3" d="m996.3 527.3l0.4-0.6 1.3 1.3v3h-0.7z"/>
		<path id="Path 666" class="s0" d="m7.3 527.7v-0.7l4.4 3 2 1.7-0.4 0.3h-2.3z"/>
		<path id="Path 667" class="s10" d="m56 527.3l6.7-0.3 0.6 5 5.4 1.3 1.3 2v2.7l2.7 1.7 0.6 2.3-3 1.3h-5.6-7l2.3-2.6v-2l-4-4.7z"/>
		<path id="Path 668" class="s9" d="m42 534l-0.7-6.7h6.7v6.7z"/>
		<path id="Path 669" class="s29" d="m56 527.3v6.7h-8v-6.7z"/>
		<path id="Path 670" class="s45" d="m75 531.7l4-4.4h7.7v4.7l-1.7 1 0.3 3-3.3 3.3-2 1.4-6.7 1.3-0.6-2.3-2.7-1.7v-2.7l4-0.6z"/>
		<path id="Path 671" class="s9" d="m92 531v-3.7l3.3 0.4 0.7 3.3z"/>
		<path id="Path 672" class="s23" d="m118 528.7l0.3-1.4h7 4.7l0.7 5.4h8l1.3 1.6v6.4h-4.3-4.4l-12.6-3.4z"/>
		<path id="Path 673" class="s74" d="m234.7 535.3v-8h8v6.7l-1.4 0.3v2.4h-6z"/>
		<path id="Path 674" class="s52" d="m359.3 535.3v-8h2 7.4l2 1.7v2.3l-2 2-4.7 0.7-0.7 1.3z"/>
		<path id="Path 675" class="s56" d="m380 527.3v4h-4v-4z"/>
		<path id="Path 676" class="s52" d="m571.7 530l1.3-2.7h9l2 2.7-1.3 8h-10.7z"/>
		<path id="Path 677" class="s71" d="m753.3 534v-6.7l10 0.7 0.7 2v2l-4 2.3v2.4h-4.7v-2z"/>
		<path id="Path 678" class="s71" d="m848 532.7v-3.7l1.7-1.7h6.3v2.7 2.7l-5.3 1.3z"/>
		<path id="Path 679" class="s8" d="m995.7 528.7l0.3-1.4h0.3l1 3.7-0.3 0.7z"/>
		<path id="Path 680" class="s83" d="m190 530v-2h3.3l3.4 3v1.7l-5.7 1z"/>
		<path id="Path 681" class="s74" d="m698.7 531.3h5.3l1 1.4h3l1.3-1.4v-2.3l2.7-1 1.7 2h9v5.3l-2.7 1.4-5.3 0.3v5 4.3h-2.4l-0.6-1-6.7-1.6-9.7-0.4-0.6-2.6v-4-3.4h2z"/>
		<path id="Path 682" class="s40" d="m160 541l0.7-12.3h2.6l5.4 1 0.6 3-1.3 1.6v7.7h-2.7z"/>
		<path id="Path 683" class="s37" d="m206.7 533l0.3-4.3h11.7l1 2.6 4.3 0.7 0.7 4.7-2 2.6h-5.4-2.6l-0.7-3.6-7.3-0.4z"/>
		<path id="Path 684" class="s37" d="m272 536v-7.3h4l-0.7 7.3z"/>
		<path id="Path 685" class="s40" d="m285.3 535.3l-0.3-2-2.3-0.6v-4h9.3v6.6z"/>
		<path id="Path 686" class="s83" d="m328 532.7v-3l2.7-1h5.3v5.3h-8z"/>
		<path id="Path 687" class="s83" d="m405.3 531.3v-2.6h4l1.7 0.6-0.3 3z"/>
		<path id="Path 688" class="s40" d="m411 529.3l13-0.6-1.3 9.3-1.4 0.3v1l-10.6-1.3v-5.7z"/>
		<path id="Path 689" class="s74" d="m422.7 538l1.3-9.3h10.7l1 1.3h3l0.3 5.3 3.7 1 0.6 1.7-3.6 1.3h-12.4l-1.6-1.3z"/>
		<path id="Path 690" class="s40" d="m438.7 530l1.6-1.3h6.4l2 2.6h4.6v5.4l-10 1.3-0.6-1.7-3.7-1z"/>
		<path id="Path 691" class="s71" d="m481.3 529l6-0.3 0.7 1.3h8l3.3 4-0.6 2.7h-12.7l-1 1.3h-3.7z"/>
		<path id="Path 692" class="s74" d="m553.3 534v-5.3h10.7 4l0.7 1.3h3l0.3 8h-6l-1.3-1.3h-10v-2z"/>
		<path id="Path 693" class="s52" d="m597.3 533.3l4.4-4.6h6.3l2.7 1.6v6.4l-13.4 1.3z"/>
		<path id="Path 694" class="s74" d="m644 530l2.3-1.3h5.7v1.3 7.3l3.3 3.4-0.6 2.6h-3.7l-1.7-1.3h-5.3v-4z"/>
		<path id="Path 695" class="s73" d="m786.7 534l0.3-2.3 3.7-3h5.3l2 1v4.3l1 1.3h6.3l0.7 2.7-2 6.7h-3.7l-0.3 2-8-0.4-0.7-4.6-4.6-1z"/>
		<path id="Path 696" class="s2" d="m11.7 530l0.3-0.3 2.7 0.3 3 3v1l-4-2.3z"/>
		<path id="Path 697" class="s40" d="m184 531.3v-1.3h6l1 3.7-1.7 3h-1.3l-2.7-1.4v-2.6z"/>
		<path id="Path 698" class="s74" d="m260 530v4h-5.3v-4z"/>
		<path id="Path 699" class="s71" d="m260 534v-4h1.3l2.7 0.7 1.3 2h2.7l0.7 2.6z"/>
		<path id="Path 700" class="s74" d="m316 535.3v-5.3h4l1.3 2.7h6.7v1.3 4l-8 0.7-0.7-2.7z"/>
		<path id="Path 701" class="s83" d="m582.7 538l1.3-8h6.7l2 2.7 4.6 0.6v4.7l-10.6 0.7z"/>
		<path id="Path 702" class="s83" d="m655.3 540.7l-3.3-3.4v-7.3h4 4v8l-2 1v1.7z"/>
		<path id="Path 703" class="s52" d="m660 538v-8l5.3 0.3 2.7 3.7v3.3 0.7h-4z"/>
		<path id="Path 704" class="s71" d="m722.7 535.3v-5.3h4l1.3 2v3.3z"/>
		<path id="Path 705" class="s73" d="m760 536.7v-2.4l4-2.3v-2h9.3v1.3l3.4 2.7h3.3v6.7l-2.7 1.3h-13.3l-3.7-3.3z"/>
		<path id="Path 706" class="s74" d="m856 532.7v-2.7h6.7v1.3l-1.4 0.4v2.3h-4.6z"/>
		<path id="Path 707" class="s85" d="m90 532l2-1h4l1 1.7h-1-6z"/>
		<path id="Path 708" class="s6" d="m997 531.7l0.3-0.7h0.7v4.7h-0.7l-0.3-0.7z"/>
		<path id="Path 709" class="s37" d="m138.7 532.7v-1.4h8l1.3 1 0.3 4.4 2.4 1.3v2.7l-0.4 0.3h-9.3l-1-0.3v-6.4z"/>
		<path id="Path 710" class="s37" d="m173.3 532.7l0.4-1.4h7.6l0.4 4-0.4 6.7h-2.6-2.7v-5l-2.3-1.3z"/>
		<path id="Path 711" class="s9" d="m181.7 535.3l-0.4-4h2.7l1.3 1.4v2.6z"/>
		<path id="Path 712" class="s74" d="m359.3 535.3h4l0.7-1.3 4.7-0.7 2-2h5.3 4l1.3 0.7v2l-1.3 0.7v4.6h-7l-1.3 1.4h-10.4-1.3l-1.3-2.7z"/>
		<path id="Path 713" class="s74" d="m389.3 534v-2.3l2.7-0.4h13.3l5.4 1v5.7l-11.7 1.3-9-1.3z"/>
		<path id="Path 714" class="s29" d="m861.3 534v-2.3l1.4-0.4h4.6l2 1.4v4 1.3h-8z"/>
		<path id="Path 715" class="s15" d="m953.3 536v-4.7h6l-0.6 4z"/>
		<path id="Path 716" class="s36" d="m13.3 532l0.4-0.3 4 2.3 3.3 2.7 6 1.3 6 2.7v1h-2.3l-0.7-1.4h-2.3l-0.7-1.3h-3.7l-0.3-1.3h-3.3l-2.7-3-3.3-1.4z"/>
		<path id="Path 717" class="s86" d="m82 539.3l3.3-3.3-0.3-3 1.7-1h3.3v0.7l-3.3 1v3.3l-1 1z"/>
		<path id="Path 718" class="s7" d="m86.7 533.7l3.3-1h6v0.6l-8.7 0.4z"/>
		<path id="Path 719" class="s87" d="m96 533.3v-0.6h1 1.7l3.3 0.3-1 0.3z"/>
		<path id="Path 720" class="s29" d="m168 542v-7.7l1.3-1.6h4l0.4 3 2.3 1.3v5h-0.7-3.3z"/>
		<path id="Path 721" class="s22" d="m191 533.7l5.7-1 2 0.6-1.4 8.7h-7.3-2v-5.3h1.3z"/>
		<path id="Path 722" class="s26" d="m842.7 538v-5.3h5.3l2.7 1.3v3.3l2.6 1.4v2l-1.3 2.6h-3.3l-0.7-1.3-2.3-0.7-1-3z"/>
		<path id="Path 723" class="s73" d="m850.7 534l5.3-1.3 0.7 1.3h4.6v4 2.7h-8v-2l-2.6-1.4z"/>
		<path id="Path 724" class="s73" d="m873.3 532.7v4h-4v-4z"/>
		<path id="Path 725" class="s88" d="m17.7 534v-1l3.6 1 5 2.7 0.7 1.3-6-1.3z"/>
		<path id="Path 726" class="s4" d="m101 533.3l1-0.3 2.3 1 0.4 1z"/>
		<path id="Path 727" class="s29" d="m198.7 533.3l1.3-0.3h6.7v2.3l-2.7 2.4v4.3l-0.3 0.3-6.4-0.3z"/>
		<path id="Path 728" class="s71" d="m510.7 534l1.3-0.7 4.7 1 0.6 1.7v2h-6.6z"/>
		<path id="Path 729" class="s38" d="m86.7 537v-3.3h0.6l1 2.6-1.3 1z"/>
		<path id="Path 730" class="s27" d="m41.3 540.7l0.7-6.7h6 8l4 4.7v2l-2.3 2.6h-0.4-1.3l-2-1.3-11-0.3z"/>
		<path id="Path 731" class="s17" d="m104.7 535l-0.4-1 3.7 0.3 5.7 2.4v1z"/>
		<path id="Path 732" class="s29" d="m241.3 536.7v-2.4l1.4-0.3h12 5.3l8.7 1.3 1.6 0.7-1 1v8h-23.6l-1.7-0.3v-4z"/>
		<path id="Path 733" class="s37" d="m328 538v-4h8 6.7 1.3v4z"/>
		<path id="Path 734" class="s74" d="m344 538v-4l6 0.3 0.7 3.7-1.7 1.3h-2.7z"/>
		<path id="Path 735" class="s71" d="m380 539.3v-4.6l1.3-0.7h8l0.7 4-3.7 2-5 0.3z"/>
		<path id="Path 736" class="s73" d="m498.7 536.7l0.6-2.7h11.4v4h-2.7l-2 2h-6.7z"/>
		<path id="Path 737" class="s71" d="m533.3 536.7v-2.7h10.7 9.3l1.4 0.7v2 2.6h-5.4-4l-1.3-1.3h-10z"/>
		<path id="Path 738" class="s40" d="m668 537.3v-3.3h5.3v1.3l-0.6 2z"/>
		<path id="Path 739" class="s73" d="m746.7 536.7v-2.4l1.3-0.3h5.3l2 0.7v2l-3.3 1.6-1.3 2.4h-1.4l-2.3-0.7z"/>
		<path id="Path 740" class="s26" d="m786.7 534v6.7h-6.7v-6.7z"/>
		<path id="Path 741" class="s75" d="m924 538l2-2.3 2.3-0.7 1.7 1.7h23.3v5.3l-0.6 2-23 3.7-4-0.4-1.4-1.3z"/>
		<path id="Path 742" class="s81" d="m996 537.3l1-2.3 0.3 0.7-1 1.6z"/>
		<path id="Path 743" class="s29" d="m181.3 542l0.4-6.7h3.6l2.7 1.4v5.3h-1.3z"/>
		<path id="Path 744" class="s11" d="m204 542v-4.3l2.7-2.4 7.3 0.4 0.7 3.6v2.7h-6z"/>
		<path id="Path 745" class="s11" d="m224.7 536.7h6l0.6-1 3.4-0.4 0.6 1.4h6l2.7 4v4h-2.3-7l-6.4-0.7-5.6-0.7v-4z"/>
		<path id="Path 746" class="s29" d="m285.3 538v-2.7h6.7 5.3l1.4 2 2.3 0.7h5.7l5.3 1.7v5.3h-10.3l-15-0.3v-6z"/>
		<path id="Path 747" class="s37" d="m306.7 538v-2.7h9.3l3.3 0.7 0.7 2.7-1.3 1v5.3h-1.7-5v-5.3z"/>
		<path id="Path 748" class="s71" d="m668 537.3h4.7l0.6-2h15.7l2 1.4h3.7v4l-2.7 1v3l-8.7 1.6h-2v-4.6l-1.3-1-12 1.3v-4z"/>
		<path id="Path 749" class="s22" d="m720 536.7l2.7-1.4h5.3 8.7l4.6 1.4v8h-3l-0.6 1.3h-13.7-4v-4z"/>
		<path id="Path 750" class="s7" d="m996.3 537.3l1-1.6h0.7v1.3l-1.3 0.7z"/>
		<path id="Path 751" class="s11" d="m269.3 545v-8l1-1h1.7 3.3l0.7 2h9.3l1.4 0.7v6l-3.7 0.3z"/>
		<path id="Path 752" class="s11" d="m517.3 538v-2l5.4 0.7v6.6h-5.4z"/>
		<path id="Path 753" class="s49" d="m113.7 537.7v-1l3 0.3-0.4 0.7z"/>
		<path id="Path 754" class="s29" d="m443.3 538l10-1.3h23.7l1.7 1.3h2.6 3.7l1-1.3h12.7l0.6 3.3h6.7l2-2h2.7 6.6v5.3l-2 0.4h-5.6-21.4-7.3-7.7-11l-2 1h-7-10.3l-4 0.3h-9.7-3.3l-4.7-0.3v-5.4-1l1.4-0.3h3l1.6 1.3h12.4z"/>
		<path id="Path 755" class="s29" d="m522.7 543.3v-6.6h10.6l0.7 1.3h10l1.3 1.3h4v4l-10.6 0.4-15.4-0.4z"/>
		<path id="Path 756" class="s29" d="m554.7 539.3v-2.6h10l1.3 1.3h6 10.7l4 0.7 10.6-0.7 13.4-1.3 1 1.3h5l0.6 3 3.7 0.3 1.7 1.4v4l-14.4-0.4h-5.3l-3.7-0.3-1.6-1h-10-11.4l-6.3-0.3-1.3-1-14-0.4z"/>
		<path id="Path 757" class="s73" d="m714.7 542v-5l5.3-0.3v5.3z"/>
		<path id="Path 758" class="s11" d="m741.3 544.7v-8h5.4l0.3 3.3 2.3 0.7v5.3h-7.6z"/>
		<path id="Path 759" class="s29" d="m749.3 540.7h1.4l1.3-2.4 3.3-1.6h4.7l0.3 2 3.7 3.3h13.3l2.7-1.3h6.7l4.6 1 0.7 4.6-42.7-0.3z"/>
		<path id="Path 760" class="s22" d="m806 538l5.3-1.3h10 5.4 9.3l1.7 1.3h5l2 0.3 1 3 2.3 0.7 0.7 1.3h3.3l1.3-2.6h8l3.7 3.3h1.7l2.6-2h3.4l1.3 2 2 0.7v4l-3.3 0.3h-5.4-12l-6.3-0.3-25.7-1.4h-6.6-4.7-8v-2.6z"/>
		<path id="Path 761" class="s9" d="m869.3 538v-1.3h4l9.4 1.3v2.7l2 1.3 0.6 2.7 2.7 1.3v3l-12-0.3v-4l-2-0.7-1.3-2h-3.4z"/>
		<path id="Path 762" class="s3" d="m85.7 538l1-1 0.3 0.3v1.4l-1 0.3z"/>
		<path id="Path 763" class="s36" d="m116.3 537.7l0.4-0.7 2 0.3 12.6 3.4h4.4v1l-13.4-1.4-0.3-1.3h-5z"/>
		<path id="Path 764" class="s6" d="m995.7 539.3l0.3-2h0.3l0.4 0.4v1.6z"/>
		<path id="Path 765" class="s36" d="m82 539.3l3.7-1.3 0.3 1h-1.7l-2 2.3-2 0.4-0.3-1z"/>
		<path id="Path 766" class="s29" d="m320 538.7l8-0.7h16l2.3 1.3h2.7l1.7-1.3h5.3v8.3h-5.7l-8.3-0.3-0.7-1h-15.3-5.3-2v-5.3z"/>
		<path id="Path 767" class="s37" d="m356 546.3v-8.3h2.7l1.3 2.7h1.3v5.6z"/>
		<path id="Path 768" class="s11" d="m381.3 540.3l5-0.3 3.7-2 9 1.3 11.7-1.3 10.6 1.3v5.4l-9 1.3h-4.6l-7.4 0.3h-11.6l-3.4-0.3h-4z"/>
		<path id="Path 769" class="s71" d="m622.7 546.7v-4l-1.7-1.4-3.7-0.3-0.6-3h27.3v4h-5.3-9l-0.4 5.3h-1.6-2.4z"/>
		<path id="Path 770" class="s71" d="m658 540.7v-1.7l2-1h4v4h-5.3z"/>
		<path id="Path 771" class="s37" d="m664 542v-4h4v4h-2.7z"/>
		<path id="Path 772" class="s35" d="m861.3 540.7v-2.7h8v4l-2.6 2h-1.7z"/>
		<path id="Path 773" class="s77" d="m888 549v-3l-2.7-1.3-0.6-2.7-2-1.3v-2.7h7.3l2 2.7v8.3z"/>
		<path id="Path 774" class="s27" d="m918.7 540.7v-2.4l1.3-0.3h4l0.3 8 1.4 1.3 4 0.4v3l-3.7 0.3h-7z"/>
		<path id="Path 775" class="s45" d="m214.7 542v-2.7h2.6v2.7h-2z"/>
		<path id="Path 776" class="s22" d="m217.3 542v-2.7h5.4v4h-0.7l-0.7-1z"/>
		<path id="Path 777" class="s29" d="m361.3 540.7h10.4l1.3-1.4h7l1.3 1v5.7h-0.6-6l-6 0.3h-6-1.4z"/>
		<path id="Path 778" class="s37" d="m554.7 539.3v4h-5.4v-4z"/>
		<path id="Path 779" class="s35" d="m908 540.7l0.3-1.4h3.7l1.3 1.4v3.3l-1.3 1v5.7h-4.7l-0.6-0.4z"/>
		<path id="Path 780" class="s55" d="m994 542.3l1.7-3h1l-0.4 2.4-1.3 0.6z"/>
		<path id="Path 781" class="s55" d="m33 541.7v-1l4.3 0.3v0.3l-0.3 0.4z"/>
		<path id="Path 782" class="s89" d="m37.3 541l4-0.3 1.7 1-0.3 0.6-5.4-1z"/>
		<path id="Path 783" class="s50" d="m73.3 542l6.7-1.3 0.3 1h-3l-0.3 1.3h-3l-1 1.3-3 0.4 0.3-1.4z"/>
		<path id="Path 784" class="s47" d="m135.7 541.7v-1h4.3l1 0.3v0.7z"/>
		<path id="Path 785" class="s8" d="m150.3 541l0.4-0.3 4.6 0.3v1h-2.6l-2.4-0.3z"/>
		<path id="Path 786" class="s29" d="m654.7 543.3l0.6-2.6h2.7l0.7 1.3h5.3 1.3v4.7l-2.3 0.6h-8z"/>
		<path id="Path 787" class="s11" d="m668 542l12-1.3 1.3 1v4.6l-3 0.4-5.6 0.3-7.4-0.3v-4.7z"/>
		<path id="Path 788" class="s37" d="m692 544.7v-3l2.7-1 0.6 2.6-3 1.4z"/>
		<path id="Path 789" class="s9" d="m892 549v-8.3l9 0.3v3.7l1.7 1.3v4l-3.7 0.3-3.7-0.3z"/>
		<path id="Path 790" class="s75" d="m901 541l7-0.3-1.3 9.6-4-0.3v-4l-1.7-1.3z"/>
		<path id="Path 791" class="s75" d="m912 550.7v-5.7l1.3-1v-3.3h5.4l0.3 10.3h-4.3-1.4z"/>
		<path id="Path 792" class="s55" d="m141 541.7v-0.7h9.3v0.7l-1.3 0.3z"/>
		<path id="Path 793" class="s90" d="m155.3 542v-1h4.7l5.3 1v0.3h-5z"/>
		<path id="Path 794" class="s36" d="m37 541.7l0.3-0.4 5.4 1 1 1.4 4-0.4 0.6 1.4h-5.3l-1.7-1.7h-4.3z"/>
		<path id="Path 795" class="s88" d="m42.7 542.3l0.3-0.6 11 0.3 2 1.3-3.3 0.4-5-0.4-4 0.4z"/>
		<path id="Path 796" class="s38" d="m149 542l1.3-0.3 2.4 0.3v1h-2.7z"/>
		<path id="Path 797" class="s39" d="m152.7 543v-1h2.6l5 0.3v0.7z"/>
		<path id="Path 798" class="s48" d="m165.3 542.3v-0.3h2.7 4v1h-5.7-0.6z"/>
		<path id="Path 799" class="s47" d="m172 543v-1h3.3v1l-2.6 0.3z"/>
		<path id="Path 800" class="s50" d="m175.3 543v-1h0.7 2.7l0.3 1z"/>
		<path id="Path 801" class="s34" d="m179 543l-0.3-1h2.6 5.4l-0.7 1z"/>
		<path id="Path 802" class="s50" d="m186 543l0.7-1h1.3 2v1z"/>
		<path id="Path 803" class="s47" d="m190 543v-1h7.3l6.4 0.3v0.7l-3.4 0.3z"/>
		<path id="Path 804" class="s8" d="m203.7 542.3l0.3-0.3h4.7v1.3l-3.7-0.3h-1.3z"/>
		<path id="Path 805" class="s90" d="m208.7 543.3v-1.3h6 0.6v1.3h-6.3z"/>
		<path id="Path 806" class="s51" d="m215.3 543.3v-1.3h2l4 0.3 0.7 1-0.7 0.4h-3.3z"/>
		<path id="Path 807" class="s11" d="m629.3 547.3l0.4-5.3h9v5.3z"/>
		<path id="Path 808" class="s29" d="m638.7 547.3v-5.3h5.3 5.3l1.7 1.3-0.3 4.4h-10.7z"/>
		<path id="Path 809" class="s10" d="m714.7 546.3v-4.3h5.3v4l-3.3 0.7z"/>
		<path id="Path 810" class="s36" d="m160.3 543v-0.7h5l0.4 0.7z"/>
		<path id="Path 811" class="s36" d="m990 546.3l4-4h1v2l-2.7 1.7-0.3 1.3h-2z"/>
		<path id="Path 812" class="s3" d="m172.7 543.3l-3.7 1.4-2-0.4-0.7-1.3h5.7z"/>
		<path id="Path 813" class="s38" d="m200.3 543.3l3.4-0.3h1.3v1.3z"/>
		<path id="Path 814" class="s41" d="m205 544.3v-1.3l3.7 0.3h0.3l0.7 1.4z"/>
		<path id="Path 815" class="s31" d="m48.3 544.7l-0.6-1.4 5 0.4v1z"/>
		<path id="Path 816" class="s30" d="m52.7 543.7l3.3-0.4h1.3v1.4h-4.6z"/>
		<path id="Path 817" class="s91" d="m57.3 544.7v-1.4h0.4 7v1.4z"/>
		<path id="Path 818" class="s34" d="m64.7 544.7v-1.4h5.6l-0.3 1.4z"/>
		<path id="Path 819" class="s0" d="m209.7 544.7l-0.7-1.4h6.3l2.7 0.4v1z"/>
		<path id="Path 820" class="s91" d="m221.3 543.7l0.7-0.4h0.7l5.6 0.7v0.3l-1.6 0.4h-5.4z"/>
		<path id="Path 821" class="s92" d="m515.3 543.7l2-0.4h5.4 0.6v1.4l-7.6-0.4h-0.4z"/>
		<path id="Path 822" class="s72" d="m523.3 544.7v-1.4l15.4 0.4 0.3 1-5.7 0.3-9-0.3z"/>
		<path id="Path 823" class="s51" d="m538.7 543.7l10.6-0.4h5.4l14 0.4 1.3 1v0.3h-10.7l-20.3-0.3z"/>
		<path id="Path 824" class="s52" d="m650.7 547.7l0.3-4.4h3.7l0.3 4z"/>
		<path id="Path 825" class="s92" d="m692.3 544.7l3-1.4 9.7 0.4 6.7 1.6 0.6 1-1 0.4-5.6-1.4-3.4-0.3-2-0.7-5.6 0.7z"/>
		<path id="Path 826" class="s34" d="m221.3 543.7v1h-3.3v-1z"/>
		<path id="Path 827" class="s90" d="m460.3 544.7l2-1h11v1h-1l-5 0.3z"/>
		<path id="Path 828" class="s92" d="m473.3 544.7v-1h7.7v0.6z"/>
		<path id="Path 829" class="s28" d="m481 544.3v-0.6h7.3v0.6h-6.3z"/>
		<path id="Path 830" class="s91" d="m488.3 544.3v-0.6h21.4v0.6l-3 0.4h-17.4z"/>
		<path id="Path 831" class="s28" d="m515.3 543.7v0.6h-5.6v-0.6z"/>
		<path id="Path 832" class="s0" d="m228.3 544.3v-0.3l6.4 0.7v1.3h-4.7z"/>
		<path id="Path 833" class="s41" d="m226.7 544.7l1.6-0.4 1.7 1.7-2.7-0.3z"/>
		<path id="Path 834" class="s41" d="m473.3 544.7l7.7-0.4h1v1.7h-11.3l1.6-1.3z"/>
		<path id="Path 835" class="s38" d="m482 546v-1.7h6.3l1 0.4-1 1z"/>
		<path id="Path 836" class="s38" d="m506.7 544.7l3-0.4h5.6 0.4v1.7l-7-0.3z"/>
		<path id="Path 837" class="s41" d="m515.7 546v-1.7l7.6 0.4h1l1 1.3z"/>
		<path id="Path 838" class="s41" d="m694.7 545l5.6-0.7 2 0.7v1h-7.6z"/>
		<path id="Path 839" class="s34" d="m234.7 546v-1.3h7l0.3 1.3z"/>
		<path id="Path 840" class="s28" d="m242 546l-0.3-1.3h2.3l1.7 0.3-0.4 1z"/>
		<path id="Path 841" class="s28" d="m283 545l3.7-0.3 15 0.3-0.4 1h-18z"/>
		<path id="Path 842" class="s72" d="m326 545h15.3l0.7 1v0.3h-6.7l-9.3-0.3z"/>
		<path id="Path 843" class="s72" d="m412.3 546l9-1.3 4.7 0.3v0.7l-10.7 0.6z"/>
		<path id="Path 844" class="s28" d="m439 545l4-0.3-0.3 1.3h-3.4z"/>
		<path id="Path 845" class="s34" d="m442.7 546l0.3-1.3h10.3v1.3z"/>
		<path id="Path 846" class="s0" d="m453.3 546v-1.3h7l7 0.3v1z"/>
		<path id="Path 847" class="s93" d="m467.3 545l5-0.3-1.6 1.3h-3.4z"/>
		<path id="Path 848" class="s93" d="m525.3 546l-1-1.3 9 0.3v1z"/>
		<path id="Path 849" class="s0" d="m533.3 545l5.7-0.3 20.3 0.3v1h-26z"/>
		<path id="Path 850" class="s28" d="m570 545v-0.3l6.3 0.3-0.3 1h-6z"/>
		<path id="Path 851" class="s34" d="m683.3 546.3l8.7-1.6h0.3l2.4 0.3v1h-4.7l-0.7 1.3h-6z"/>
		<path id="Path 852" class="s23" d="m737.7 546l0.6-1.3h3l0.4 1.3z"/>
		<path id="Path 853" class="s29" d="m800 546.7l0.3-2h3.7v2.6h-3.3z"/>
		<path id="Path 854" class="s91" d="m245.3 546l0.4-1h23.6 13.7l0.3 1z"/>
		<path id="Path 855" class="s91" d="m301.3 546l0.4-1h10.3 5l0.3 0.7-0.6 0.3z"/>
		<path id="Path 856" class="s28" d="m317.3 545.7l-0.3-0.7h1.7 2v1z"/>
		<path id="Path 857" class="s92" d="m320.7 546v-1h5.3v1h-4.7z"/>
		<path id="Path 858" class="s28" d="m426 545.7v-0.7h3.3l-0.3 1h-3z"/>
		<path id="Path 859" class="s91" d="m429 546l0.3-1h9.7l0.3 1h-9.6z"/>
		<path id="Path 860" class="s34" d="m570 545v1h-10.7v-1z"/>
		<path id="Path 861" class="s91" d="m576 546l0.3-1h11.4v0.7l-2.7 0.3z"/>
		<path id="Path 862" class="s72" d="m587.7 545.7v-0.7h10l1.6 1v0.3h-6z"/>
		<path id="Path 863" class="s0" d="m702.3 546v-1l3.4 0.3v0.7z"/>
		<path id="Path 864" class="s39" d="m705.7 546v-0.7l5.6 1.4v0.6h-3.6l-0.7-1.3z"/>
		<path id="Path 865" class="s38" d="m316.7 546l0.6-0.3 3.4 0.3h0.6v1.3l-3.6-0.3z"/>
		<path id="Path 866" class="s0" d="m415.3 546.3l10.7-0.6v0.3l-1.7 1.3h-9z"/>
		<path id="Path 867" class="s38" d="m429 546h0.7l-0.7 1-4.7 0.3 1.7-1.3z"/>
		<path id="Path 868" class="s38" d="m585 546l2.7-0.3 2.3 1.6-4.3-0.3z"/>
		<path id="Path 869" class="s93" d="m590 547.3l-2.3-1.6 5.6 0.6v1z"/>
		<path id="Path 870" class="s41" d="m321.3 547.3v-1.3h4.7l1 1.3z"/>
		<path id="Path 871" class="s93" d="m327 547.3l-1-1.3 9.3 0.3v1z"/>
		<path id="Path 872" class="s28" d="m342 546.3v-0.3l8.3 0.3-0.6 1h-7.4z"/>
		<path id="Path 873" class="s86" d="m368.7 546.3l6-0.3v1h-6z"/>
		<path id="Path 874" class="s82" d="m380.7 546v1h-6v-1z"/>
		<path id="Path 875" class="s86" d="m380.7 547v-1h0.6 4v1h-0.3z"/>
		<path id="Path 876" class="s94" d="m385.3 547v-1l3.4 0.3v0.7z"/>
		<path id="Path 877" class="s28" d="m400.3 546.3l7.4-0.3-0.4 1.3h-6.3z"/>
		<path id="Path 878" class="s34" d="m407.3 547.3l0.4-1.3h4.6l3 0.3v1z"/>
		<path id="Path 879" class="s28" d="m599.3 546.3v-0.3l3.7 0.3-0.7 1h-3z"/>
		<path id="Path 880" class="s72" d="m716.7 546.7l3.3-0.7h4v1.3 0.4l-5.7-0.4-1.6-0.3z"/>
		<path id="Path 881" class="s51" d="m724 547.3v-1.3h13.7 4 7.6l42.7 0.3 8 0.4 0.7 0.6-3.7 0.4h-20-13.7z"/>
		<path id="Path 882" class="s34" d="m335.3 547.3v-1h6.7l0.3 1z"/>
		<path id="Path 883" class="s91" d="m349.7 547.3l0.6-1h5.7 5.3 1.4v1h-1.4z"/>
		<path id="Path 884" class="s28" d="m362.7 547.3v-1h6v0.7l-0.7 0.3z"/>
		<path id="Path 885" class="s91" d="m388.7 547v-0.7h11.6l0.7 1h-11.7z"/>
		<path id="Path 886" class="s34" d="m599.3 546.3v1h-6v-1z"/>
		<path id="Path 887" class="s91" d="m602.3 547.3l0.7-1h5.3v0.7l-1.3 0.3z"/>
		<path id="Path 888" class="s92" d="m608.3 547v-0.7l14.4 0.4 2.6 0.6-2.3 0.7-4.3-0.3-6.4-0.4z"/>
		<path id="Path 889" class="s91" d="m678.3 546.7l3-0.4h2v1h-3.3l-1.7-0.3z"/>
		<path id="Path 890" class="s91" d="m711.3 546.7l1-0.4h2.4l2 0.4v0.3l-2 0.3h-3.4z"/>
		<path id="Path 891" class="s5" d="m988 548l2-1.7v1l-0.7 1.4h-1.3z"/>
		<path id="Path 892" class="s48" d="m663 547.3l2.3-0.6 7.4 0.3-1.7 1.7h-8z"/>
		<path id="Path 893" class="s93" d="m672.7 547l5.6-0.3v0.3l-2.6 1.7h-4.7z"/>
		<path id="Path 894" class="s41" d="m368 547.3l0.7-0.3h6 6 4.3l-0.3 1.7h-16.7z"/>
		<path id="Path 895" class="s38" d="m384.7 548.7l0.3-1.7h0.3 3.4l0.6 0.3-1 1z"/>
		<path id="Path 896" class="s41" d="m607 547.3l1.3-0.3 4 0.3 0.7 1.4h-4.7z"/>
		<path id="Path 897" class="s38" d="m675.7 548.7l2.6-1.7 1.7 0.3-1.3 1.4z"/>
		<path id="Path 898" class="s41" d="m714.7 547.3l2-0.3 1.6 0.3 0.7 1.4h-3z"/>
		<path id="Path 899" class="s38" d="m368 548.7l-6.7-1.4h1.4 5.3z"/>
		<path id="Path 900" class="s93" d="m613 548.7l-0.7-1.4 6.4 0.4v1z"/>
		<path id="Path 901" class="s34" d="m623 548l2.3-0.7h2.4l0.3 1.4h-5z"/>
		<path id="Path 902" class="s28" d="m628 548.7l-0.3-1.4h1.6 9.4l1.3 0.4v1z"/>
		<path id="Path 903" class="s28" d="m650.7 547.7l4.3-0.4h8v1.4h-12.3z"/>
		<path id="Path 904" class="s93" d="m719 548.7l-0.7-1.4 5.7 0.4v1z"/>
		<path id="Path 905" class="s19" d="m724 547.7v-0.4l39.3 0.4v1h-39.3z"/>
		<path id="Path 906" class="s28" d="m797 547.7l3.7-0.4h3.3 8v1.4h-14.7z"/>
		<path id="Path 907" class="s94" d="m812 548.7v-1.4h4.7v1l-1.7 0.7z"/>
		<path id="Path 908" class="s86" d="m816.7 548.3v-1h6.6v1 0.4h-4z"/>
		<path id="Path 909" class="s51" d="m823.3 548.3v-1l25.7 1.4-3 0.3h-13.3z"/>
		<path id="Path 910" class="s19" d="m618.7 548.7v-1l4.3 0.3v0.7z"/>
		<path id="Path 911" class="s94" d="m650.7 547.7v1h-10.7v-1z"/>
		<path id="Path 912" class="s48" d="m763.3 548.7v-1h13.7l-0.7 1z"/>
		<path id="Path 913" class="s34" d="m776.3 548.7l0.7-1h20l0.3 1z"/>
		<path id="Path 914" class="s7" d="m983.3 550.7l4.7-2.7v0.7 1.3h-2.7l-0.3 1.3-2.3 0.4-1.7 2.3-2.7 0.3 0.4-0.6z"/>
		<path id="Path 915" class="s38" d="m815 549l1.7-0.7 2.6 0.4v1.3z"/>
		<path id="Path 916" class="s64" d="m823.3 548.7v-0.4l9.4 0.7v1h-8z"/>
		<path id="Path 917" class="s41" d="m819.3 550v-1.3h4l1.4 1.3z"/>
		<path id="Path 918" class="s28" d="m846 549l3-0.3 6.3 0.3v1h-9.3z"/>
		<path id="Path 919" class="s51" d="m872.7 549l3.3-0.3 12 0.3h4l3.3 1-1 0.3h-9.3l-4.3-0.3-8-0.3z"/>
		<path id="Path 920" class="s48" d="m846 549v1h-13.3v-1z"/>
		<path id="Path 921" class="s94" d="m855.3 550v-1h12v1h-4.3z"/>
		<path id="Path 922" class="s86" d="m867.3 550v-1h5.4v0.7l-0.4 0.3h-4.3z"/>
		<path id="Path 923" class="s64" d="m872.3 550l0.4-0.3 8 0.3v1h-3.7l-4.3-0.3z"/>
		<path id="Path 924" class="s38" d="m868 551.3l-4.7-0.3-0.3-1h4.3 0.7z"/>
		<path id="Path 925" class="s41" d="m868 551.3v-1.3h4.3l0.4 0.7-0.7 0.6z"/>
		<path id="Path 926" class="s59" d="m880.7 551v-1l4.3 0.3v0.7z"/>
		<path id="Path 927" class="s28" d="m894.3 550.3l1-0.3 3.7 0.3v0.7h-4-0.7z"/>
		<path id="Path 928" class="s94" d="m899 550.3l3.7-0.3 4 0.3 0.6 0.4-2.3 0.3h-6z"/>
		<path id="Path 929" class="s48" d="m885 551v-0.7h9.3v0.7h-8.3z"/>
		<path id="Path 930" class="s3" d="m872 551.3l0.7-0.6 4.3 0.3v0.7z"/>
		<path id="Path 931" class="s6" d="m905 551l2.3-0.3h4.7l1.3 0.3-1.6 0.7h-6.7z"/>
		<path id="Path 932" class="s8" d="m926 551l3.7-0.3 4.3 0.6-0.3 1h-1.7-4.3-1.4z"/>
		<path id="Path 933" class="s14" d="m977 553.7l3.7-2.7 2.6-0.3-4.6 3z"/>
		<path id="Path 934" class="s4" d="m877 551.7v-0.7h3.7 4.3 1v0.7z"/>
		<path id="Path 935" class="s61" d="m886 551.7v-0.7h8.3 0.7v0.7z"/>
		<path id="Path 936" class="s87" d="m895 551.7v-0.7h4 6v0.7z"/>
		<path id="Path 937" class="s38" d="m911.7 551.7l1.6-0.7h1.4l0.6 1 2.7 0.3v0.7l-5.3-0.3z"/>
		<path id="Path 938" class="s64" d="m918 552.3l-2.7-0.3-0.6-1h4.3v1.3z"/>
		<path id="Path 939" class="s59" d="m919 552.3v-1.3h7l0.3 1.3z"/>
		<path id="Path 940" class="s24" d="m933.7 552.3l0.3-1 5.7 0.7-2 0.7z"/>
		<path id="Path 941" class="s5" d="m937.7 552.7l2-0.7h2.6v0.7l-0.6 0.3h-4z"/>
		<path id="Path 942" class="s8" d="m942.3 552.7v-0.7l5.7 0.7v1l-1 0.3h-1.7z"/>
		<path id="Path 943" class="s4" d="m918 553v-0.7h1 7.3 1.4v0.7z"/>
		<path id="Path 944" class="s13" d="m932 552.3v0.7h-4.3v-0.7z"/>
		<path id="Path 945" class="s7" d="m932 553v-0.7h1.7l4 0.4v0.3z"/>
		<path id="Path 946" class="s3" d="m941.7 553l0.6-0.3 3 1.3v0.3h-2.3z"/>
		<path id="Path 947" class="s14" d="m948 553.7v-1l10.7 1-5.7 0.3z"/>
		<path id="Path 948" class="s5" d="m947 554l1-0.3 5 0.3v0.3h-6z"/>
		<path id="Path 949" class="s6" d="m953 554l5.7-0.3 7.3 0.3-1 0.3h-12z"/>
		<path id="Path 950" class="s68" d="m966.7 554v-0.3l6.6 0.3-0.6 1.3h-5.7z"/>
		<path id="Path 951" class="s6" d="m974 554l3-0.3h1.7l-0.4 0.6h-3.3z"/>
		<path id="Path 952" class="s13" d="m947 554v0.3h-1.7v-0.3z"/>
		<path id="Path 953" class="s17" d="m965 554.3l1-0.3h0.7l0.3 1.3h-1.3z"/>
		<path id="Path 954" class="s17" d="m972.7 555.3l0.6-1.3h0.7l1 0.3v0.4l-0.3 0.3v0.3z"/>
		<path id="Path 955" class="s5" d="m974.7 554.7h0.3v0.3h-0.3z"/>
	</g>
</svg>