<svg version="1.2" xmlns="http://www.w3.org/2000/svg" viewBox="0 0 1000 1000" width="1000" height="1000">
	<title>Ichthyomyzon_unicuspis-svg</title>
	<style>
		.s0 { fill: #6a5122 } 
		.s1 { fill: #6c5725 } 
		.s2 { fill: #906d2b } 
		.s3 { fill: #775f27 } 
		.s4 { fill: #715624 } 
		.s5 { fill: #816629 } 
		.s6 { fill: #735c26 } 
		.s7 { fill: #6f5d26 } 
		.s8 { fill: #685323 } 
		.s9 { fill: #89692a } 
		.s10 { fill: #94722c } 
		.s11 { fill: #6e5d28 } 
		.s12 { fill: #786529 } 
		.s13 { fill: #635022 } 
		.s14 { fill: #7e5e26 } 
		.s15 { fill: #93752f } 
		.s16 { fill: #8c722e } 
		.s17 { fill: #856c2c } 
		.s18 { fill: #664c20 } 
		.s19 { fill: #ad9442 } 
		.s20 { fill: #966d29 } 
		.s21 { fill: #8d6627 } 
		.s22 { fill: #9c722a } 
		.s23 { fill: #866026 } 
		.s24 { fill: #917c34 } 
		.s25 { fill: #ab8f37 } 
		.s26 { fill: #60461f } 
		.s27 { fill: #9b7e2f } 
		.s28 { fill: #675524 } 
		.s29 { fill: #a67c2c } 
		.s30 { fill: #a3742a } 
		.s31 { fill: #b2993f } 
		.s32 { fill: #a48d3c } 
		.s33 { fill: #78662d } 
		.s34 { fill: #9f8632 } 
		.s35 { fill: #a78431 } 
		.s36 { fill: #705c2b } 
		.s37 { fill: #b1852d } 
		.s38 { fill: #897735 } 
		.s39 { fill: #95813c } 
		.s40 { fill: #826f31 } 
		.s41 { fill: #a08c46 } 
		.s42 { fill: #99873c } 
		.s43 { fill: #b88d2c } 
		.s44 { fill: #af994d } 
		.s45 { fill: #90794a } 
		.s46 { fill: #766735 } 
		.s47 { fill: #ac965a } 
		.s48 { fill: #af9c7c } 
		.s49 { fill: #8d785b } 
		.s50 { fill: #584a2c } 
		.s51 { fill: #9c8a6f } 
		.s52 { fill: #9e895a } 
		.s53 { fill: #b6baaa } 
		.s54 { fill: #adb299 } 
		.s55 { fill: #b9a050 } 
		.s56 { fill: #bd9d3d } 
		.s57 { fill: #baad97 } 
		.s58 { fill: #959582 } 
		.s59 { fill: #baa39c } 
		.s60 { fill: #3f3827 } 
	</style>
	<g id="Background">
		<path id="Path 3" class="s0" d="m516 482v-4h6l2 4v2zm-50 0l8-2h14v10l-8 2-14-2zm38 14l-6-4v-9l10-1-2 14zm235 10v-4l11-8 18 2 7-2 29 1h9l2 1 2 8 9-3 11 1 2 6h15l30 2 38-3 7-5h7v6l-4 6h-7l-3 3-2 11h-4l-5-9-16 1-1 18-2 3-16 1-6-8-45 3-2-6h-6l-2-3-13 2-4-1-5-5-13 5-6 8v11h-7-4-7l-6-9v-8l-5-5zm-39-6l16-1 7 4v3l-3 4h-18z"/>
		<path id="Path 4" class="s1" d="m223 456l44-2 1 10-2 10-16 2-2-6-2 6-11 1-1 11v14l-2 2-4-6h-7l-4 10-2 2h-15-6l-4-4h-10l-3-10h-8l-1 8h-6l-2-4v-5l-8-7v-10l12-2 6 4h7l2-6h7 9l7-4 7 2 6-3 1-7h5zm143 6l7-3 11 1h10 2v7l-6 7-8 2v14h-12l-2-10-6-5v-7l4-2zm36 5l1-3h13v4h-5l-1 4h-4zm26-2l8-1 1 4-2 3h-6zm8 27l30-2 14 2 8-2 2 12v6l-12 1-23-1-18-4-2-6zm142 12l-2-10h4l2 10zm93-2l1-2h12 16l2 10h18l3-4h16l6 20 5 5v8l-6 6h-12v-5l-4-4h-5l-6-10-7-2-2-6-10 2-18-2v-3l-6-3v-7zm103 46v-11l6-8 13-5 5 5-7 5-1 12-3 4h-7zm28-18l13-2 2 3h6l2 6-3 2v9l-1 1h-10l-7-1-2-2z"/>
		<path id="Path 5" class="s2" d="m694 450l10 6 18 2 4-4 1-11 19 5 1 3 11 3 2 9 13 5 15 2 3-6 9 2v14l3 2 1 9v4l-29-1-1-4h-6l-10-6v-6l-4-1v-9l-6-6-23-2-1 8-2 11h-2l-12-1-20-2-22-4v-5l7-5h6l4-7 6-5zm-188-1l11-4v5l5 2v6h-14zm31 11v-5l5-1 1-4h5l26 8v6l-3 2-1 8h-5l-7-2-5-6h-15zm43-2l9-7 13 4v3 8l7 6-1 4h-7l-4 6h-6l-7-9v-7l-4-2zm278 32h12l4-4h6l6 4 2 14-4 1-30-3-1-2v-3z"/>
		<path id="Path 6" class="s3" d="m278 454l4-2 14 4v8h-18zm-85 4l11-3 2 5-4 3v7l-7 4h-9v-10h6zm135 1l8-1h8v6l-1 3-7 2-8-1zm-188 19v-8h4l4 2v6zm548 8v-10l20 2v6zm-567 2v-4l5-2h9l13 10v8 6h-4l-2-3h-6l-5-2h-3l-1-11zm551 12v-13l3-3 10 2-1 14zm-72-2l15-3 7-5h10l4 4h10l18 4 1 4-1 8h-13l-3 3v16l5 5v1l-17-1h-6l-14-2v-6l-6-2v-5l-10-13zm168-2v-6h6l1 4zm58 5l-9 3-2-8h7zm-119 29l3-6 7 2 6 10h5l4 4v5l-3 3h-12-5z"/>
		<path id="Path 7" class="s4" d="m344 464l5-2h17v4l-4 2v7l6 5 2 10v6l-16-2-2-6-12-4-4-15 7-2zm72 4v-4l12 1 1 6-1 1h-12zm74 7l9 1 3-4 14 6v4h-8l-10 1v9l6 4 1 9-3 3h-5l-3-6h-4l-2-12v-10zm198 11l20-2 12 2 9-2h15 6v10l-11 8v4h-16v-3l-7-4-16 1h-16l1-14zm231 14l10-4v6l-7 5-38 3v-5l4-1 14-6 5 2 8 2zm-82 2l7-2h9l1 2v6h-15zm-12 35l45-3 6 8-10 5-25 2h-10-5l-4-1v-9zm-81 8l6-6 6 9-2 2h-7z"/>
		<path id="Path 8" class="s5" d="m184 462l3-4h6l-1 6h-6zm-40 3l10-1h9l3 4-2 8-12 2h-4v-6l-4-2zm426 9l1-8 3-2h6l4 2v7zm74 6l4-7 18-1 22 4v10h-3l-10-2-3 3v13l-1 2h-6l-1-4-18-4zm-55 8l2-6h6l3 4 17-2 5 6-7 5-15 3h-6v-5zm-421 16l1-8h8l3 10-4 2h-5zm322 4v-6h4l3 6-2 1zm-452 24l-13-1-1-3-6-1v-11l8-7 8 5 4 8zm658 16l2-18h9l5 18h-13z"/>
		<path id="Path 9" class="s6" d="m268 464l-1-10h11v10zm28 0v-8l32 3v9h-10l-5-4zm48 0v-6h1l4 4zm-142 6v-7l4-3h9l1 2-1 7-6 3zm-67 12l1-4h4 8 4v10l8 7v5h-12v-8zm573 2v-6l12 1v7zm-590 12v-7l3-1 6 2 1 11h-2zm474 10l2-8h6v8z"/>
		<path id="Path 11" class="s7" d="m266 474l2-10h10 18 17l5 4h10l8 1 4 15-22-2-2-4h-5l-1 4h-24zm-102 2l2-8h2l3 4 8 2-2 6h-7zm586 18v-10h2 6l10 6v6zm-170 0l1-6h8l5 5v5l-2 8h-8l-2-2zm84 16l1-8h6l3 3v7l6 3v3l-8 2zm34 10l10-2 2 6-3 6h-9zm92 26l1-12 7-5 4 1v16z"/>
		<path id="Path 12" class="s8" d="m412 473l4-1h12l-3 12h-13zm-30 17v-14l8-2v6l6 5v8l-2 3h-4l-3-6zm84-8v-8h8v6zm39 23l-1-9h2 6v10z"/>
		<path id="Path 13" class="s9" d="m694 440l9-1 24 4-1 11-4 4-18-2-10-6zm97 24l-3 6-15-2-13-5-2-9h5zm-217 0v-6h6v6zm23 18l4-6h7l1-4h29l2 8-8 5v5h-10l-5-6-17 2zm291 22l-2-14 4 1 12 6v1zm-798 0v-9l6-3h16l4 4v18l-4 1-16-5-1-5z"/>
		<path id="Path 14" class="s10" d="m517 445l12-4 1 5h10l3 4-1 4-5 1v5h-11l-4-2v-6l-5-2zm117 17l10-4h28l8-4 3 1-4 7h-6l-7 5v5l-18 1-4 7h-4l-2-8h-29l-7-6v-8h2l5 7 11-1zm90 6l1-8 23 2 6 6v9l-2 7h-2-6v-11l-4-4zm80 23l-1-9-3-2v-14l8 2 3 12 8 2 3 8v6h-7l-2-1-2-4zm36-1v-4h14l4 4-5 7h-9z"/>
		<path id="Path 15" class="s11" d="m250 476l16-2 20 8v4l-4 1v3h-33l-15-2 1-11 11-1zm60 6l1-4h5l2 4v2zm266 36l2-14h4l2 2v15zm-39-4l3-2h12l2 8h-16z"/>
		<path id="Path 16" class="s12" d="m215 460l2-4h5 1l-2 6h-5zm-47 8l6-7 4 3 6-2 2 2v10h-7l-8-2zm552 18v-7h2l5 1 2 4zm-310 9l2-3 10 1 2 5v6l-11-2zm174 26v-15h8 8l10 13v5l-15 2zm69 13l-5-5v-16l3-3h13l8 10 8-2 18 2v10l-2 18-6-1-6-16h-4l-4-5h-7l-1 6-7 2z"/>
		<path id="Path 17" class="s13" d="m390 474l6-7h6l4 5h4l2 1v11 8l-2 3-3 3h-4l-2-5h-5v-8l-6-5zm39-3h6l2-3 27 2 2 4v8 8l-30 2-2-4h-8l-1-4 3-12zm95 13v-2h17l5 4v10l-6 7v9l-3 2-13-2-12-6v-10l10-4z"/>
		<path id="Path 18" class="s14" d="m538 466l-11 1-1-7h11zm-74 4v-2h10v6h-8zm26 5l2-7h8l2 4-3 4zm-364 7v-7l5-5h5 4v8h-4l-1 4zm432 4v-6h6v6zm74 4v-5l8-5h4l2 14h-10zm297 6l11-4h2v4l-6 6h-7zm-75 12v-6l30 3v5z"/>
		<path id="Path 19" class="s15" d="m529 441l19-1v10h-5l-3-4h-10zm103 11l48-12v14l-8 4h-28l-10 4zm-28 4l16-1v9l-11 1-5-7zm218 34l-3-8-8-2-3-12 32 10v1 7 4zm32-4v-6l14 2 6 4-4 4h-12zm-723 20v-5l5 2-1 3z"/>
		<path id="Path 20" class="s16" d="m548 450v-10l41 11-9 7h-6zm132 4v-14h6 8v10h-5l-6 5zm-60 1l12-3 2 10-14 2zm-18 3v-3l2 1v2zm-368 44v-14l15 2-1 10-10 2zm-17 6l4-10h7l4 6v8l-4 2h-9zm-121 6v-4l16 5v11h-12zm435 10l-1-4-6-2v-6l13 2 1 6v4zm137 8l1-6h7l4 5h4l6 16-15-2-3-3-2-2z"/>
		<path id="Path 21" class="s17" d="m116 514v-18h2l8 5v6 8zm308-10v-6h11l2 6-3 1v5h-10z"/>
		<path id="Path 22" class="s18" d="m506 496l2-14h8l8 2-2 8-10 4zm430 6l6-6v-4h7l6 1 20 9 2 4-41 2zm-42 36l1-18 16-1 5 9h4l2-11 3-3h7v8h4l2 5 11 1 8 10-14 4h-16l-1-4-14 1-12-1z"/>
		<path id="Path 23" class="s19" d="m314 504l1-4h7l4 4 11 2-1 9h-22zm-31-2l11-1 3 3-4 6h-11zm123 18v-8l16 2v8zm-238-2l2-3h6l4 3v8h-10zm442 21l6-7 14 2v7z"/>
		<path id="Path 24" class="s20" d="m464 468l2-15 13 2-1 9-4 4zm-91-9v-5h9l2 6zm-253 5l16-4v4 6h-5l-5 5v7l-5 2v4l-3 1v7h-2l-4-4h-16l-6 3v9h-4-7l-9-1v-7l-3-8 6-5 1-5 6 1 7-7 13-1zm684 31v-4h7l2 4zm40 5v-3h9v3z"/>
		<path id="Path 25" class="s21" d="m485 454h11l10-5 2 9-21 2-3 4h-6l1-9zm-89 13v-7h6l1 4-1 3zm162 13v-8l7 2-1 6z"/>
		<path id="Path 26" class="s22" d="m436 464l1-12 29 1-2 15v2l-27-2zm-300 6v-6l8 1v5h-4zm586 9l2-11 16 1 4 4v11h-15l-2-4zm30 5l2-7 4 1v6zm-691 7l6-3 3 8-8-1zm761 5v-6h18l4 7v3l-7 2-11-1zm-796 13l2-4 13-5 11 4 4 5v5l-4 2v6h-14l-4-8zm50 10l3-4v-11h7v7l4 3v8l-1 2h-13z"/>
		<path id="Path 27" class="s23" d="m478 464h6l3-4 21-2h14l4 2 1 7 11-1h15l5 6v8 6h-12l-5-4h-17l-2-4h-6l-14-6-2-4h-8l-2 7-2 5h-14v-6-6zm92 10l14-1 7 9-2 6h-8l-1 6h-4l-4-7-8-1v-6l1-6z"/>
		<path id="Path 28" class="s24" d="m248 500l1-10h33l3 4-2 6h-18zm146-4l2-3h5l2 5-3 2h-4zm13 2l3-3 3 7h-4zm-231 10l4-2h10l4 4v6l-4 2h-10l-4-3z"/>
		<path id="Path 29" class="s25" d="m328 459l-2-14h11l-1 13zm-6 41l2-6h30l16 2 18 2 2-2h4l2 4h4v10h-13l-3-4h-10l-14-6-5 2-1 4h-17l-11-2zm112 10l20 2 1-4 23 1 2 9-1 8h-3l-54-4v-8l2-4zm62 10v-4h6l6 6 11 1 1 7-21-1zm30 10l5-6h7l2 8z"/>
		<path id="Path 30" class="s26" d="m936 508l41-2 1 9-4 9-13 13-4 1-8-10-11-1-2-5h-4v-8z"/>
		<path id="Path 31" class="s27" d="m840 486v-7l14 1v6zm-338 22l3-3 7 1 12 6v6l6 2 1 4-5 6h-5-1l-1-7-11-1-6-6zm52 12l22-2 8 3 11 5 15-2 6 2v6l-6 7h-4l-66-7-2-8v-4zm107 14l7-2 2 8h-8z"/>
		<path id="Path 32" class="s28" d="m410 472l1-4h5v4l-4 1zm-164 4l2-6 2 6zm166 16v-8h13l1 4h8l2 4-1 6h-11l-2-5zm128 20v-9l6-7v-10h12 6l8 1 4 7 2 10-2 14-22 2-2-8z"/>
		<path id="Path 33" class="s29" d="m369 452v-5l25 2v11h-10l-2-6h-9zm-233 8l18-5v9l-10 1-8-1zm-80 49l14-6 9 1v11l-3 4h-4l-4-5h-12zm34 5l-4-3v-7h4l5 1 1 5v4z"/>
		<path id="Path 34" class="s30" d="m345 458v-5l5-4 19 3 4 2v5l-7 3h-17zm49 2v-11l39 2 4 1-1 12-8 1-12-1h-13l-1-4h-6zm-353 40l4-4 16-5 1 4 8 1v7l-14 6-4-5z"/>
		<path id="Path 35" class="s31" d="m337 506h17l1-4 5-2 14 6h10l3 4h13v2 8l-37-3-27-2zm142 20l1-8 8 2v7zm157 16v-8l17 1 1 7-8 1z"/>
		<path id="Path 36" class="s32" d="m298 494l24-2 2 2-2 6h-7l-1 4h-17l-3-3v-6zm102 26v-8h6v8zm230 21v-7h6v8zm23-6v-1h8l1 6v1l-1 1h-7z"/>
		<path id="Path 37" class="s33" d="m286 486v-4h24l8 2 4 8-24 2-2-6zm-138 20v-6h12l2 4-4 5h-4zm-22 1v-6h2 3v5z"/>
		<path id="Path 38" class="s34" d="m400 500l3-2h4l2 4h4l11 2v6l-2 4-16-2h-6v-2zm34 10v-5l3-1 18 4-1 4zm61-1l2-1h5v8h-6zm234 39l3-3h12l3 5h-15-2z"/>
		<path id="Path 39" class="s35" d="m350 449v-3l14 1h5v5zm128 60l12-1 5 1 1 7v4h-8l-8-2zm-426 13v-6l4-2h12l4 5h4v5l-2 1h-7l2 8-1 2h-8l-2-10z"/>
		<path id="Path 40" class="s36" d="m318 484v-2l22 2 12 4 2 6h-30l-2-2zm52 12v-6h12 5l3 6-2 2z"/>
		<path id="Path 41" class="s37" d="m282 452v-8h22l22 1 2 14-32-3zm54 6l1-13h1l12 1v3l-5 4v5h-1zm-130-11l16-1v10h-5l-2 4h-9l-2-5zm-52 8l18-3 2 9-6 7h-2l-3-4h-9z"/>
		<path id="Path 42" class="s38" d="m232 504l2-2h4v6l-2 4h-4zm-101 2h4l1-3h6l2 3v7l4 4-1 5h-11l-9-1-1-6v-8zm23 3h4l4-5h6l3 4h5v7h-6l-2 3-14-1zm61 1l2-2 2 6h-2z"/>
		<path id="Path 43" class="s39" d="m200 514v-4h15l2 4-3 2zm-88 1l4-1 10 1 1 6-3 6h-8l-4-1z"/>
		<path id="Path 44" class="s40" d="m282 490v-3l4-1 10 2 2 6-4 1-9-1zm-134 27l-4-4v-7h4l6 3v8zm-58 5v-8h6l4 12-6 4h-2v-3l2-3z"/>
		<path id="Path 45" class="s41" d="m238 508l25-3 2-5h18v2l-1 8-2 6-16 3-22 2-6-9zm-39 8l1-2 14 2v8h-13zm-52 6l1-5h6l14 1 2 8-22 1z"/>
		<path id="Path 46" class="s42" d="m283 500l2-6 9 1v6l-11 1zm-35 0h17l-2 5-25 3v-6zm-54 16v-6h6v4l-1 2z"/>
		<path id="Path 47" class="s43" d="m222 446l58-2h2v8l-4 2h-11l-44 2h-1zm-50 6l34-5-2 8-11 3h-6l-3 4-6 2-4-3z"/>
		<path id="Path 48" class="s44" d="m282 510h11l4-6h17v11h-2l-32 1zm-54 4l4-2h4l6 9-14 1zm-38 4l4-2h5l2 8-9 1h-2zm-54 9v-5h11l1 5z"/>
		<path id="Path 49" class="s45" d="m38 532v-10h14l6 3 2 10zm854 9l2-3h6v6l-6 1zm-105 9l3-4h12l2 2-1 2z"/>
		<path id="Path 50" class="s46" d="m69 533l-2-8h7v7z"/>
		<path id="Path 51" class="s47" d="m124 527l3-6 9 1v5z"/>
		<path id="Path 52" class="s48" d="m717 550v-2h12l1 2zm37 0l2-2h7v2zm13 0v-2h7l6 2z"/>
		<path id="Path 53" class="s49" d="m912 539l14-1 1 4-15 1z"/>
		<path id="Path 54" class="s50" d="m74 525l2-1h13l3 3v3l-10 2h-8z"/>
		<path id="Path 55" class="s51" d="m876 542l16-1 2 4-28 2z"/>
		<path id="Path 56" class="s52" d="m900 544v-6l12 1v4z"/>
		<path id="Path 57" fill-rule="evenodd" class="s53" d="m919 500l-4 2-8-2zm-98 49l1-1 4 1z"/>
		<path id="Path 58" class="s54" d="m82 532l10-2h2l-12 4zm681 18v-2h4v2z"/>
		<path id="Path 59" class="s55" d="m214 516l3-2h2 9v8l-14 2zm-34 10v-8h10v7z"/>
		<path id="Path 60" class="s56" d="m488 527v-7h8l3 9z"/>
		<path id="Path 61" class="s57" d="m717 550l-18-2h13 5zm86 0l1-2 7 1z"/>
		<path id="Path 62" class="s58" d="m69 533l5-1h8v2l-14 1z"/>
		<path id="Path 64" class="s59" d="m686 440l17-1-9 1zm-40 103l8-1h7l-9 2z"/>
		<path id="Path 65" class="s60" d="m89 524l1-2 4 2-2 3z"/>
		<path id="Path 67" class="s18" d="m753 510h7l2 7-2 3-7-1z"/>
	</g>
</svg>