<svg version="1.2" xmlns="http://www.w3.org/2000/svg" viewBox="0 0 1000 1000" width="1000" height="1000">
	<title>Ictalurus_furcatus</title>
	<style>
		.s0 { opacity: .1;fill: #f5f5f5 } 
		.s1 { opacity: .5;fill: #dbdbdc } 
		.s2 { opacity: .4;fill: #ababad } 
		.s3 { opacity: .7;fill: #808081 } 
		.s4 { opacity: .5;fill: #c6c8c9 } 
		.s5 { opacity: .1;fill: #c0c1c1 } 
		.s6 { fill: #565f67 } 
		.s7 { fill: #434749 } 
		.s8 { opacity: .9;fill: #a0a1a2 } 
		.s9 { fill: #2a292a } 
		.s10 { opacity: .3;fill: #c5c6c8 } 
		.s11 { fill: #383f43 } 
		.s12 { fill: #4c5257 } 
		.s13 { opacity: .9;fill: #bebfc0 } 
		.s14 { opacity: .2;fill: #565759 } 
		.s15 { opacity: .7;fill: #bdbebe } 
		.s16 { fill: #333537 } 
		.s17 { opacity: .3;fill: #dedfdf } 
		.s18 { fill: #646c72 } 
		.s19 { fill: #6e6b67 } 
		.s20 { opacity: .6;fill: #9b9d9e } 
		.s21 { fill: #53514b } 
		.s22 { fill: #1e1d21 } 
		.s23 { fill: #6f5a4d } 
		.s24 { fill: #534438 } 
		.s25 { opacity: .7;fill: #9b9b9d } 
		.s26 { fill: #704931 } 
		.s27 { fill: #483a32 } 
		.s28 { fill: #644f41 } 
		.s29 { opacity: .7;fill: #636567 } 
		.s30 { fill: #10141c } 
		.s31 { opacity: 1;fill: #5d5b5b } 
		.s32 { opacity: .8;fill: #eaeaeb } 
		.s33 { opacity: .1;fill: #e1e0e1 } 
		.s34 { fill: #a0a1a7 } 
		.s35 { opacity: .3;fill: #f3f3f4 } 
		.s36 { opacity: .3;fill: #7e7d7d } 
		.s37 { fill: #837e7b } 
		.s38 { fill: #101010 } 
		.s39 { fill: #42403b } 
		.s40 { fill: #615f5c } 
		.s41 { fill: #261814 } 
		.s42 { opacity: .1;fill: #9a9b9d } 
		.s43 { fill: #7a828a } 
		.s44 { fill: #bebbbb } 
		.s45 { opacity: .3;fill: #9b9c9d } 
		.s46 { fill: #40332e } 
		.s47 { opacity: .5;fill: #7d7e80 } 
		.s48 { opacity: .7;fill: #4b5052 } 
		.s49 { opacity: .6;fill: #262a2c } 
		.s50 { fill: #78685d } 
		.s51 { fill: #38251d } 
		.s52 { fill: #797775 } 
		.s53 { opacity: .4;fill: #626263 } 
		.s54 { fill: #552919 } 
		.s55 { fill: #898989 } 
		.s56 { fill: #939394 } 
		.s57 { fill: #bab1ac } 
		.s58 { fill: #9a9a9c } 
		.s59 { opacity: 1;fill: #4a4e53 } 
		.s60 { fill: #968880 } 
		.s61 { fill: #b4a497 } 
		.s62 { fill: #acaaaa } 
		.s63 { fill: #707780 } 
		.s64 { fill: #c4c3c3 } 
		.s65 { fill: #c4b7b1 } 
		.s66 { fill: #cfc3bc } 
		.s67 { fill: #a6968e } 
		.s68 { fill: #c9cacd } 
		.s69 { fill: #b6aaa3 } 
		.s70 { fill: #858a94 } 
		.s71 { fill: #b2b3b9 } 
		.s72 { fill: #d8d8dd } 
		.s73 { fill: #dbd6d1 } 
		.s74 { fill: #653720 } 
		.s75 { fill: #e5e1dd } 
		.s76 { fill: #87635f } 
		.s77 { fill: #f2f0f0 } 
		.s78 { fill: #eeeae7 } 
		.s79 { fill: #dfdfe6 } 
		.s80 { fill: #f6f5f6 } 
		.s81 { fill: #825849 } 
		.s82 { fill: #e8e9ee } 
		.s83 { fill: #d1d2d9 } 
		.s84 { fill: #d4cbc7 } 
		.s85 { fill: #88736b } 
		.s86 { fill: #9a7c73 } 
		.s87 { fill: #956f67 } 
		.s88 { fill: #b19882 } 
		.s89 { opacity: .5;fill: #f0f1f0 } 
		.s90 { fill: #80533b } 
		.s91 { fill: #9f7966 } 
		.s92 { fill: #a97f55 } 
		.s93 { fill: #8e6753 } 
		.s94 { fill: #a78874 } 
		.s95 { opacity: .9;fill: #7f8081 } 
		.s96 { opacity: .9;fill: #dadbdb } 
	</style>
	<g id="Background">
		<path id="Path 0" class="s0" d="m84 499h1v1h-1z"/>
		<path id="Path 1" class="s0" d="m394 362v-2h1v2z"/>
		<path id="Path 2" class="s1" d="m395 362v-2h4v1 1h-2z"/>
		<path id="Path 3" class="s2" d="m399 360h1v1h-1z"/>
		<path id="Path 4" class="s3" d="m399 361l1-1h4l1 2h-6z"/>
		<path id="Path 5" class="s4" d="m405 362l-1-2h3v2z"/>
		<path id="Path 6" class="s5" d="m818 432h1v1h-1z"/>
		<path id="Path 7" class="s6" d="m389 364l5-2h1 2l-2 2z"/>
		<path id="Path 8" class="s7" d="m395 364l2-2h2 6 2 1l4 4v10l-2 3-3 5-5-6-10-2v-5z"/>
		<path id="Path 9" class="s0" d="m412 366l-4-4 4 1z"/>
		<path id="Path 10" class="s8" d="m383 365l5-1-5 2z"/>
		<path id="Path 11" class="s9" d="m383 366l5-2h1 6l-3 7-9 2z"/>
		<path id="Path 12" class="s10" d="m369 370l14-5v1l-9 3z"/>
		<path id="Path 13" class="s11" d="m374 369l9-3v7l-9 8-9 5h-8v-8l1-2 3-2h1z"/>
		<path id="Path 14" class="s3" d="m369 370l5-1-12 5 1-2z"/>
		<path id="Path 15" class="s12" d="m383 373l9-2v5l-1 13 12 5-1 6-2 3v1l-1 4-2 4v1l-5 7-3 3-10 1-1-13-5-4-2-16 4-5-1-5z"/>
		<path id="Path 16" class="s5" d="m358 374l5-2-1 2h-1z"/>
		<path id="Path 17" class="s13" d="m358 375v-1h3l-3 2z"/>
		<path id="Path 18" class="s5" d="m354 377l4-2v1z"/>
		<path id="Path 19" class="s13" d="m354 377l4-1-1 2-5 1v-2z"/>
		<path id="Path 20" class="s11" d="m403 394l-12-5 1-13 10 2 5 6v3l-3 6z"/>
		<path id="Path 21" class="s12" d="m403 393h1v1h-1z"/>
		<path id="Path 22" class="s14" d="m410 379l2-3-1 3z"/>
		<path id="Path 23" class="s15" d="m339 385l13-8v2l-13 8z"/>
		<path id="Path 24" class="s16" d="m352 379l5-1v8 4h-9l-5 6-7-1-1-4 1-2 2-2h1z"/>
		<path id="Path 25" class="s17" d="m407 384l3-5h1l-4 8z"/>
		<path id="Path 26" class="s18" d="m365 386l9-5 1 5-4 5h-4z"/>
		<path id="Path 27" class="s17" d="m338 387l1-2v2z"/>
		<path id="Path 28" class="s19" d="m357 390v-4h8l2 5h4l2 16-7 1-3-11-6-3z"/>
		<path id="Path 29" class="s17" d="m333 389l5-2-2 2z"/>
		<path id="Path 30" class="s17" d="m404 393l3-6-5 13 1-6z"/>
		<path id="Path 31" class="s20" d="m324 395l9-6h3l-1 2-8 5h-3z"/>
		<path id="Path 32" class="s21" d="m343 396l5-6h9v4h-5l-6 5h-3z"/>
		<path id="Path 33" class="s22" d="m327 396l8-5 1 4-6 4z"/>
		<path id="Path 34" class="s23" d="m346 399l6-5h5l6 3 3 11v22 1l-15 1v-4l-4-2v-16z"/>
		<path id="Path 35" class="s15" d="m321 397l3-2v1l-1 1z"/>
		<path id="Path 36" class="s24" d="m330 399l6-4 7 1v3l-4 4v7h-14v-6z"/>
		<path id="Path 37" class="s9" d="m323 397l1-1h3l3 3-5 5h-6v-3z"/>
		<path id="Path 38" class="s25" d="m313 402l8-5h2l-4 4-7 3z"/>
		<path id="Path 39" class="s26" d="m339 410v-7l4-4h3l1 11z"/>
		<path id="Path 40" class="s22" d="m312 404l7-3v3l-13 12h-4l-2-3 4-4 2-2z"/>
		<path id="Path 41" class="s10" d="m306 407l2-4 5-1-1 2z"/>
		<path id="Path 42" class="s27" d="m302 416h4l13-12h6v6l-1 6-7 1v9l-18-2z"/>
		<path id="Path 43" class="s10" d="m301 409l5-2-2 2z"/>
		<path id="Path 44" class="s6" d="m366 408l7-1 5 4 1 13v6h-13z"/>
		<path id="Path 45" class="s20" d="m281 422l20-13h3l-4 4-11 7-8 4z"/>
		<path id="Path 46" class="s28" d="m324 416l1-6h14 8v16h-5l-5-7z"/>
		<path id="Path 47" class="s29" d="m901 414l14-2v1l-10 1z"/>
		<path id="Path 48" class="s9" d="m915 413v-1h19l3 2-3 4h-19z"/>
		<path id="Path 49" class="s25" d="m937 414l-3-2 8 1v1 2h-1z"/>
		<path id="Path 50" class="s30" d="m289 420l11-7 2 3-3 8h-6z"/>
		<path id="Path 51" class="s5" d="m392 420l5-7-1 5z"/>
		<path id="Path 52" class="s7" d="m905 414l10-1v5l-10 2z"/>
		<path id="Path 53" class="s0" d="m942 414v-1h2v3h-1z"/>
		<path id="Path 54" class="s13" d="m889 416l1-2h8l-3 2z"/>
		<path id="Path 55" class="s9" d="m895 416l3-2h3 4v6h-1-9z"/>
		<path id="Path 56" class="s31" d="m934 418l3-4 4 2-1 2h-1l-5 1z"/>
		<path id="Path 57" class="s32" d="m942 416v-2l1 2z"/>
		<path id="Path 58" class="s33" d="m879 417l6-2-5 2z"/>
		<path id="Path 59" class="s34" d="m880 417l5-2 2 1z"/>
		<path id="Path 60" class="s24" d="m317 426v-9l7-1 13 3 5 7h5l4 2v4z"/>
		<path id="Path 61" class="s22" d="m880 417l7-1h2 6v4l-10 2-12 2v-5l5-2h1z"/>
		<path id="Path 62" class="s17" d="m940 418l1-2h1 1z"/>
		<path id="Path 63" class="s8" d="m871 418l7-1-5 2h-2z"/>
		<path id="Path 64" class="s35" d="m864 420l4-2v1z"/>
		<path id="Path 65" class="s36" d="m868 419v-1h3v1z"/>
		<path id="Path 66" class="s6" d="m905 420l10-2h19v1l-5 4h-2l-9 5h-1l-8 4-13 6-1-11 8-3 1-4z"/>
		<path id="Path 67" class="s17" d="m934 419l5-1-10 5z"/>
		<path id="Path 68" class="s37" d="m864 420l4-1h3l-10 4-2-1z"/>
		<path id="Path 69" class="s9" d="m861 423l10-4h2v5l-4 4h-8z"/>
		<path id="Path 70" class="s38" d="m281 424l8-4 4 4-2 14-12 2-2 4h-6-14v-8l5-3 9-4z"/>
		<path id="Path 71" class="s21" d="m885 422l10-2h9l-1 4-8 3h-5z"/>
		<path id="Path 72" class="s10" d="m266 430l15-8v2l-10 5z"/>
		<path id="Path 73" class="s39" d="m853 424l4-2h2l2 1v5l-2 3-6 1-9-1-1-3v-1l3-1 2-1 4-1z"/>
		<path id="Path 74" class="s40" d="m873 424l12-2 5 5h5l1 11-7 5-8 4-2-9h-8l-2-1v-9z"/>
		<path id="Path 75" class="s18" d="m379 424l10-1-5 8h-3l-2-1z"/>
		<path id="Path 76" class="s41" d="m291 438l2-14h6l18 2 34 6 15-1 1 3h11l3-3h3 2l10 1h21v8l-4 3-16 1h-14l-10-2-16 1-10 1-10-2-12-1-10-1h-13z"/>
		<path id="Path 77" class="s5" d="m619 427l5-2v1l-3 1z"/>
		<path id="Path 78" class="s42" d="m624 426v-1h21v1h-3z"/>
		<path id="Path 79" class="s0" d="m645 426v-1l6 2z"/>
		<path id="Path 80" class="s10" d="m841 427l5-1-3 1z"/>
		<path id="Path 81" class="s43" d="m621 427l3-1h18l1 2h-20z"/>
		<path id="Path 82" class="s44" d="m643 428l-1-2h3l6 1h3l4 3v2l-2-1-11-3z"/>
		<path id="Path 83" class="s20" d="m608 428l9-1-10 3z"/>
		<path id="Path 84" class="s21" d="m607 430l10-3h2 2l2 1v6 7l6 4 2 7v2l-13-1-1-4 1-5-9-3-3-9v-1z"/>
		<path id="Path 85" class="s33" d="m658 430l-4-3 5 3z"/>
		<path id="Path 86" class="s45" d="m836 429l2-2-1 2z"/>
		<path id="Path 87" class="s3" d="m837 429l1-2h3 2v1z"/>
		<path id="Path 88" class="s17" d="m604 430l4-2-1 2z"/>
		<path id="Path 89" class="s7" d="m623 434v-6h20 2v4l-6 4z"/>
		<path id="Path 90" class="s46" d="m645 432v-4l11 3-6 4z"/>
		<path id="Path 91" class="s3" d="m819 432l16-3-16 5h-1v-1z"/>
		<path id="Path 92" class="s9" d="m837 429l6-1 1 3-7 2-4 5-10 2-4-2v-4l16-5h1z"/>
		<path id="Path 93" class="s31" d="m859 431l2-3h8v9h-2l-6-1z"/>
		<path id="Path 94" class="s0" d="m909 432l8-4-8 5z"/>
		<path id="Path 95" class="s31" d="m266 430l5-1-9 4-1-2z"/>
		<path id="Path 96" class="s22" d="m366 431v-1h13l2 1-3 3h-11z"/>
		<path id="Path 97" class="s47" d="m386 431l10-1v2z"/>
		<path id="Path 98" class="s20" d="m396 432v-2h35v2h-14z"/>
		<path id="Path 99" class="s47" d="m431 432v-2h14v2h-10z"/>
		<path id="Path 100" class="s48" d="m445 432v-2h8v1 1z"/>
		<path id="Path 101" class="s49" d="m453 431v-1h14v1z"/>
		<path id="Path 102" class="s48" d="m467 431v-1h12v2z"/>
		<path id="Path 103" class="s47" d="m479 432v-2h11v2h-7z"/>
		<path id="Path 104" class="s20" d="m490 432v-2h12v2h-1z"/>
		<path id="Path 105" class="s1" d="m502 432v-2l14 2h-1-3z"/>
		<path id="Path 106" class="s1" d="m598 432l3-2v2z"/>
		<path id="Path 107" class="s20" d="m601 432v-2h3 3l-1 1-3 1z"/>
		<path id="Path 108" class="s4" d="m658 432v-2h1l3 13h-1z"/>
		<path id="Path 109" class="s47" d="m256 433l5-2 1 2-5 3-14 5-10 3v-2l20-7z"/>
		<path id="Path 110" class="s22" d="m453 432v-1h14l12 1h4v9h-8-7l-2 3h-4l-9-3z"/>
		<path id="Path 111" class="s16" d="m603 432l3-1v1z"/>
		<path id="Path 112" class="s7" d="m650 435l6-4 2 1 3 11 1 7h-2l-11-2z"/>
		<path id="Path 113" class="s23" d="m823 440l10-2 4-5 7-2 9 1 2 10v4l-10 11v9l-11 3-1 7h-4l-10-2v-30z"/>
		<path id="Path 114" class="s19" d="m853 432l6-1 2 5-6 6z"/>
		<path id="Path 115" class="s38" d="m417 440v-8h14 4v10h-6-4z"/>
		<path id="Path 116" class="s41" d="m435 442v-10h10 8v9z"/>
		<path id="Path 117" class="s41" d="m483 441v-9h7 11v10z"/>
		<path id="Path 118" class="s22" d="m501 442v-10h1 10l-1 4-1 6z"/>
		<path id="Path 119" class="s38" d="m511 436l1-4h3v4z"/>
		<path id="Path 120" class="s41" d="m515 436v-4h1 9v6l-7 2z"/>
		<path id="Path 121" class="s22" d="m525 438v-6h2l5 1-1 5z"/>
		<path id="Path 122" class="s29" d="m532 433l-5-1h18v2h-8z"/>
		<path id="Path 123" class="s25" d="m545 434v-2h10v2z"/>
		<path id="Path 124" class="s13" d="m555 434v-2l12 2h-10z"/>
		<path id="Path 125" class="s14" d="m577 434l20-2-5 2z"/>
		<path id="Path 126" class="s9" d="m592 434l5-2h1 3 2 3l3 9 9 3-1 5-24-3z"/>
		<path id="Path 127" class="s24" d="m639 436l6-4 5 3-1 13h-6l-4-3z"/>
		<path id="Path 128" class="s10" d="m896 438l13-6v1l-20 10z"/>
		<path id="Path 129" class="s9" d="m531 438l1-5 5 1v8h-4z"/>
		<path id="Path 130" class="s41" d="m537 442v-8h8 10 2v8l-5 2h-11z"/>
		<path id="Path 131" class="s22" d="m557 442v-8h10 10 15l1 12-26-2z"/>
		<path id="Path 132" class="s50" d="m629 445l-6-4v-7l16 2v9h-4z"/>
		<path id="Path 133" class="s51" d="m811 435l5-1h2 1v4l-4 6-6 1-2-1v-6l2-2z"/>
		<path id="Path 134" class="s30" d="m243 441l14-5v8l-14 2z"/>
		<path id="Path 135" class="s46" d="m510 442l1-6h4l3 4v4z"/>
		<path id="Path 136" class="s34" d="m803 437l6-1-2 2z"/>
		<path id="Path 137" class="s52" d="m855 442l6-6 6 1 1 5-3 4h-10z"/>
		<path id="Path 138" class="s35" d="m794 438l7-1-7 2z"/>
		<path id="Path 139" class="s41" d="m794 439l7-2h2l4 1v6l-11 5h-8l-2-8h2z"/>
		<path id="Path 140" class="s50" d="m868 442l-1-5h2l2 1v4z"/>
		<path id="Path 141" class="s9" d="m277 444l2-4 12-2 11 2v6l-17 2-8-2z"/>
		<path id="Path 142" class="s12" d="m518 440l7-2h6l2 4h4l4 2v2h-20l-3-2z"/>
		<path id="Path 143" class="s53" d="m788 441v-3h6v1z"/>
		<path id="Path 144" class="s24" d="m815 444l4-6 4 2-4 4z"/>
		<path id="Path 145" class="s24" d="m871 442v-4h8l2 9v1l-3 1h-5z"/>
		<path id="Path 146" class="s11" d="m302 446v-6h13v8h-10z"/>
		<path id="Path 147" class="s12" d="m315 448v-8l10 1v5 4z"/>
		<path id="Path 148" class="s7" d="m325 441l12 1v5l-4 1-8-2z"/>
		<path id="Path 149" class="s21" d="m413 443l4-3 8 2v4l-5 1z"/>
		<path id="Path 150" class="s41" d="m233 444l10-3v5l-4 6h-8l-1-7z"/>
		<path id="Path 151" class="s6" d="m435 442l18-1 9 3-5 3-14 3h-4l-4-4z"/>
		<path id="Path 152" class="s18" d="m466 444l2-3h7v5h-4z"/>
		<path id="Path 153" class="s19" d="m475 446v-5h8l18 1h9l8 2 3 2-4 6-8-2-28-2h-5z"/>
		<path id="Path 154" class="s16" d="m778 442l6-1h2l2 8-3 5h-4l-1-3-11-3v-4l5-2z"/>
		<path id="Path 155" class="s4" d="m226 445l7-3v2l-3 1-4 1z"/>
		<path id="Path 156" class="s21" d="m337 447v-5l10 2v4l-8 2z"/>
		<path id="Path 157" class="s40" d="m357 443l16-1 3 7v3l-17 1-2-3z"/>
		<path id="Path 158" class="s7" d="m376 449l-3-7 10 2-2 4z"/>
		<path id="Path 159" class="s40" d="m425 446v-4h4v4z"/>
		<path id="Path 160" class="s12" d="m429 446v-4h6v4z"/>
		<path id="Path 161" class="s40" d="m552 444l5-2 10 2v6h-4l-11-2z"/>
		<path id="Path 162" class="s5" d="m768 444l6-2-5 2z"/>
		<path id="Path 163" class="s40" d="m855 446h10l3-4h3l2 7h5l-5 4h-1l-7 5-6 5-7 5-3 2-4 1v-5-9z"/>
		<path id="Path 164" class="s31" d="m347 444l10-1v7l-10-2z"/>
		<path id="Path 165" class="s40" d="m397 444l16-1 7 4-2 5-4 1h-1l-16-1z"/>
		<path id="Path 166" class="s2" d="m662 450l-1-7h1l2 5h5v2z"/>
		<path id="Path 167" class="s5" d="m759 445l7-1-6 1z"/>
		<path id="Path 168" class="s10" d="m881 447l8-4-2 4-6 1z"/>
		<path id="Path 169" class="s9" d="m243 446l14-2h14v6l-4 4h-2l-18 5-13 1-5-1 2-7h8z"/>
		<path id="Path 170" class="s16" d="m271 450v-6h6v2l-1 4z"/>
		<path id="Path 171" class="s19" d="m381 448l2-4h14v8l-1 2h-5-6l-4-2z"/>
		<path id="Path 172" class="s37" d="m457 447l5-3h4l5 2v4l-2 2h-8z"/>
		<path id="Path 173" class="s19" d="m541 446v-2h11v4z"/>
		<path id="Path 174" class="s19" d="m567 450v-6l26 2 24 3 1 4-9 1h-10l-8-1z"/>
		<path id="Path 175" class="s11" d="m760 445l6-1h2 1v4l-8 2-1-4z"/>
		<path id="Path 176" class="s54" d="m788 449h8l11-5 2 1-2 13 4 7v12h-2l-6-2v-5l-5-2-2-6-11-2v-6z"/>
		<path id="Path 177" class="s26" d="m809 445l6-1h4v30l-4 3h-4v-12l-4-7z"/>
		<path id="Path 178" class="s2" d="m223 447l3-2v1z"/>
		<path id="Path 179" class="s30" d="m226 446l4-1 1 7-2 7-8 2-8-1v-7l4-3 5-3h1z"/>
		<path id="Path 180" class="s9" d="m631 452l-2-7h6v7z"/>
		<path id="Path 181" class="s46" d="m635 452v-7h4l4 3v5z"/>
		<path id="Path 182" class="s5" d="m748 447l6-2v1l-4 1z"/>
		<path id="Path 183" class="s36" d="m754 446v-1h5 1v1z"/>
		<path id="Path 184" class="s11" d="m276 450l1-4 8 2v5h-7z"/>
		<path id="Path 185" class="s6" d="m285 448l17-2 3 2v6l-20-1z"/>
		<path id="Path 186" class="s6" d="m325 450v-4l8 2-4 3z"/>
		<path id="Path 187" class="s55" d="m420 447l5-1h4 6l4 4-2 6h-12l-7-4z"/>
		<path id="Path 188" class="s55" d="m471 450v-4h4l1 2z"/>
		<path id="Path 189" class="s56" d="m517 452l4-6h20l11 2 11 2v4l-8 1-38-1z"/>
		<path id="Path 190" class="s16" d="m750 447l4-1h6l1 4-5 4h-7l-2-5z"/>
		<path id="Path 191" class="s2" d="m214 450l8-3-5 3z"/>
		<path id="Path 192" class="s43" d="m333 448l4-1 2 3v6h-10v-5z"/>
		<path id="Path 193" class="s56" d="m443 450l14-3 4 5-1 4-5 1-12-1z"/>
		<path id="Path 194" class="s5" d="m738 449l6-2-5 2z"/>
		<path id="Path 195" class="s12" d="m739 449l5-2h4 2l-3 2 2 5-4 4-6-2z"/>
		<path id="Path 196" class="s18" d="m305 454v-6h10l10 2 4 1v5h-11l-5 3-1-3z"/>
		<path id="Path 197" class="s55" d="m339 450l8-2 10 2 2 3 17-1 1 6v1h-22l-10-1-6-2z"/>
		<path id="Path 198" class="s37" d="m376 449l5-1v4l4 2v4h-8l-1-6z"/>
		<path id="Path 199" class="s57" d="m471 450l5-2h5l2 6-2 6-12-1v-7z"/>
		<path id="Path 200" class="s58" d="m483 454l-2-6 28 2v6l-5 2h-9l-2-3z"/>
		<path id="Path 201" class="s9" d="m643 453v-5h6l11 2-1 6-14-1z"/>
		<path id="Path 202" class="s17" d="m669 450v-2l5 2z"/>
		<path id="Path 203" class="s2" d="m726 451v-3h8v2l-3 1z"/>
		<path id="Path 204" class="s53" d="m734 450v-2l3 1z"/>
		<path id="Path 205" class="s40" d="m761 450l8-2 11 3 1 3v7l-16 1-7-3-2-5z"/>
		<path id="Path 206" class="s5" d="m878 449l3-1-8 5z"/>
		<path id="Path 207" class="s11" d="m734 450l3-1h1 1v7h-4-4v-5z"/>
		<path id="Path 208" class="s59" d="m209 452l5-2h3l-4 3-6 1z"/>
		<path id="Path 209" class="s6" d="m267 454l4-4h5l2 3-3 4h-7z"/>
		<path id="Path 210" class="s58" d="m437 456l2-6h4v6z"/>
		<path id="Path 211" class="s60" d="m509 456v-6l8 2v2l-7 2z"/>
		<path id="Path 212" class="s61" d="m563 454v-4h4l24 3v5l-18 1z"/>
		<path id="Path 213" class="s27" d="m659 456l1-6h2 7 5l2 1 1 5-1 4h-3-13z"/>
		<path id="Path 214" class="s20" d="m677 451l13-1v2h-11z"/>
		<path id="Path 215" class="s1" d="m690 452v-2l11 2h-2z"/>
		<path id="Path 216" class="s20" d="m711 452l13-1-13 2z"/>
		<path id="Path 217" class="s9" d="m677 456l-1-5h1l2 1v4z"/>
		<path id="Path 218" class="s16" d="m711 453l13-2h1v5l-6 1-8-1z"/>
		<path id="Path 219" class="s7" d="m725 456v-5h1 5v5h-2z"/>
		<path id="Path 220" class="s42" d="m198 457l3-4 8-1-2 2-6 2z"/>
		<path id="Path 221" class="s56" d="m396 454l1-2 16 1 1 1v3l-5 4-10-1z"/>
		<path id="Path 222" class="s58" d="m414 453l4-1 7 4-1 2-4 1-6-2v-3z"/>
		<path id="Path 223" class="s62" d="m460 456l1-4h8v7h-6z"/>
		<path id="Path 224" class="s19" d="m631 454v-2h4l8 1 2 2v3z"/>
		<path id="Path 225" class="s16" d="m679 456v-4h11 9l2 8-2 2-16-1z"/>
		<path id="Path 226" class="s9" d="m701 460l-2-8h2 10v1 3l-7 4z"/>
		<path id="Path 227" class="s38" d="m207 454l6-1v7l-4 5h-6l-3-7 1-2z"/>
		<path id="Path 228" class="s43" d="m275 457l3-4h7l20 1 7 2 1 3-11 3-3 4h-12l-8-2z"/>
		<path id="Path 229" class="s62" d="m413 453h1v1h-1z"/>
		<path id="Path 230" class="s57" d="m591 458v-5l8 1v5z"/>
		<path id="Path 231" class="s60" d="m609 454l9-1 13 1 14 4 1 2v2l-6 3-12 1-5-6-8 2-6-2z"/>
		<path id="Path 232" class="s5" d="m865 458l7-5-6 5z"/>
		<path id="Path 233" class="s63" d="m247 459l18-5v4l-1 13 4 5v1h-10l-5-4v-4l-6-3z"/>
		<path id="Path 234" class="s18" d="m265 458v-4h2l1 3z"/>
		<path id="Path 235" class="s55" d="m385 458v-4h6l-2 4z"/>
		<path id="Path 236" class="s62" d="m389 458l2-4h5l3 6-2 4-8-1z"/>
		<path id="Path 237" class="s64" d="m481 460l2-6 10 1 2 3v4l-7 3h-4z"/>
		<path id="Path 238" class="s65" d="m510 456l7-2 38 1v7l-34 2-11-3z"/>
		<path id="Path 239" class="s66" d="m555 455l8-1 10 5v5h-18v-2z"/>
		<path id="Path 240" class="s67" d="m599 459v-5h10v6z"/>
		<path id="Path 241" class="s19" d="m745 458l4-4h7l2 5 7 3v5h-4-7l-9-3z"/>
		<path id="Path 242" class="s24" d="m781 461v-7h4v6l-2 1z"/>
		<path id="Path 243" class="s52" d="m645 458v-3l14 1 1 4h-14z"/>
		<path id="Path 244" class="s29" d="m198 457l3-1-1 2-18 6 1-2 6-2 6-3z"/>
		<path id="Path 245" class="s34" d="m313 459l5-3h11 10l6 2v6l-3 3-11 1-10-1-2 9-4 1v7l-12 3v13h-4-11l-1-2v-4l6-3v-9l8-1-2-15 3-4z"/>
		<path id="Path 246" class="s64" d="m424 458l1-2h12 6l12 1v5l-8 2h-12l-10-1z"/>
		<path id="Path 247" class="s68" d="m455 457l5-1 3 3v5l-8-2z"/>
		<path id="Path 248" class="s69" d="m504 458l5-2h1v5h-6z"/>
		<path id="Path 249" class="s21" d="m676 460l1-4h2l4 5-2 1z"/>
		<path id="Path 250" class="s21" d="m704 460l7-4 8 1v6l-10 1z"/>
		<path id="Path 251" class="s40" d="m719 457l6-1h4v7h-10z"/>
		<path id="Path 252" class="s31" d="m729 463v-7h2 4v8z"/>
		<path id="Path 253" class="s40" d="m735 464v-8h4l6 2v6h-4z"/>
		<path id="Path 254" class="s70" d="m265 458l3-1h7l4 7v12h-11l-4-5z"/>
		<path id="Path 255" class="s68" d="m409 461l5-4 6 2v5l-11-1z"/>
		<path id="Path 256" class="s30" d="m182 464l18-6 3 7v13l4 4-1 6-5 1-7 1-5 2-14-2-12-6h-9l-3 6-7 9-5 7h-1-10-2l-21-1v-11l18-8 4-2h1l3-2h2l4-1 3-1 21-8 11-5h1z"/>
		<path id="Path 257" class="s44" d="m345 464v-6l10 1v5z"/>
		<path id="Path 258" class="s64" d="m355 459h22v5l-12 4h-4l-6-4z"/>
		<path id="Path 259" class="s71" d="m377 459v-1h8 4v5l-2 1h-10z"/>
		<path id="Path 260" class="s72" d="m420 459l4-1 1 5-5 1z"/>
		<path id="Path 261" class="s73" d="m495 462v-4h9v3l-1 3z"/>
		<path id="Path 262" class="s73" d="m573 459l18-1 8 1 10 1 6 2 3 6h7l1 14v2l-13-2v-6l-8-2-2-4h-28-2v-6z"/>
		<path id="Path 263" class="s0" d="m859 463l6-5h1z"/>
		<path id="Path 264" class="s12" d="m221 461l8-2 5 1-3 6h-10z"/>
		<path id="Path 265" class="s18" d="m234 460l13-1v7l-14 8-11-1-1-7h10z"/>
		<path id="Path 266" class="s73" d="m463 464v-5h6l12 1 3 5-7 3z"/>
		<path id="Path 267" class="s21" d="m209 465l4-5 8 1v5l1 7 11 1 3 5v6l-9 8-1 5-6 2-3-10 2-6 5-1v-6l-9-1z"/>
		<path id="Path 268" class="s72" d="m389 463l8 1 2-4 10 1v2l-3 6-13 1-5-2-1-4z"/>
		<path id="Path 269" class="s57" d="m615 462l8-2 5 6-3 2h-7z"/>
		<path id="Path 270" class="s67" d="m646 462v-2h14 13v6l-4 4-16-2h-4z"/>
		<path id="Path 271" class="s60" d="m673 466v-6h3l5 2v4z"/>
		<path id="Path 272" class="s52" d="m699 462l2-2h3l5 4v2h-7z"/>
		<path id="Path 273" class="s74" d="m783 461l2-1 11 2 2 6 5 2v5l6 2v5 10 7h-3-2l-13-11-1-17-7-5z"/>
		<path id="Path 274" class="s75" d="m503 464l1-3h6l11 3 34-2v2l-1 7-5 3-1 11h-5l-7-11h-8l-3 10-14 4-8-4z"/>
		<path id="Path 275" class="s55" d="m681 462l2-1 16 1 3 4-4 6h-3-8l-6-6z"/>
		<path id="Path 276" class="s76" d="m765 462l16-1h2v5l-4 3v7l8 12 2 16-10 8v9l-4 1 2 7-9 9h-5l-2-10 3-8 3-4-1-5 7-11 5-3 1-7-10-8-2-8-2-7z"/>
		<path id="Path 277" class="s45" d="m173 467l3-4 7-1-1 2z"/>
		<path id="Path 278" class="s77" d="m447 464l8-2 8 2 14 4-6 16h-9l-5-10-10-4z"/>
		<path id="Path 279" class="s77" d="m488 465l7-3 8 2v20l-10-2v-10z"/>
		<path id="Path 280" class="s69" d="m640 465l6-3 3 6h-8z"/>
		<path id="Path 281" class="s78" d="m393 470l13-1 3-6 11 1 5-1 10 1v8l-8 5v7l-31-2z"/>
		<path id="Path 282" class="s75" d="m435 464h12v6l-8 2h-4z"/>
		<path id="Path 283" class="s56" d="m709 464l10-1h10l6 1h6l-2 14-22-2h-4v-6l-4-4z"/>
		<path id="Path 284" class="s33" d="m852 468l7-5-2 4z"/>
		<path id="Path 285" class="s56" d="m279 476v-12l8 2v14l6 2v9l-6 3-7 2h-2l-3-8h4l4-6v-4z"/>
		<path id="Path 286" class="s68" d="m342 467l3-3h10l6 4v4l2 12-10 4h-8l-2-2-2-6z"/>
		<path id="Path 287" class="s79" d="m365 468l12-4h10l1 4 5 2 3 12-5 6h-10l-2-3h-6l-3-2-5-11z"/>
		<path id="Path 288" class="s78" d="m511 488l14-4 3-10h8l7 11h5l1-11 5-3 1-7h18v6h-7l-4 4v7l-9 4v6l4 4 21 1v9l3 1v6l-12 4h-8l-14 2-34 2-2-4h-4v-8l-6-2 1-6 8-2z"/>
		<path id="Path 289" class="s67" d="m739 478l2-14h4l9 3-5 11-8 1z"/>
		<path id="Path 290" class="s22" d="m207 482l-4-4v-13h6l6 11v5z"/>
		<path id="Path 291" class="s80" d="m477 468l7-3h4l5 7v10l10 2 8 4-1 10-8 2-1 6-13 2-1 10-21 3-24-1-7-12h-5l-5 5v7l-16 2h-12l-6 6h-12l-8-2-8-16 2-15 8-4 6 1 2-4h10l5-6 31 2 12 2 2-2-2-12 8-2 10 4 5 10h9z"/>
		<path id="Path 292" class="s75" d="m628 466l12-1 1 3h8 4v8l-13 2-1 4h-13l-1-14z"/>
		<path id="Path 293" class="s40" d="m233 474l14-8 6 3v4l5 4-1 9h-10l-8-1v-5l-3-1z"/>
		<path id="Path 294" class="s70" d="m293 482l-6-2v-14h12l2 15z"/>
		<path id="Path 295" class="s71" d="m319 476l2-9 10 1v10z"/>
		<path id="Path 296" class="s57" d="m669 470l4-4h8l6 6-8 2h-7z"/>
		<path id="Path 297" class="s58" d="m698 472l4-6h7l4 4v6h-6-5z"/>
		<path id="Path 298" class="s81" d="m787 488l-8-12v-7l4-3 7 5 1 17z"/>
		<path id="Path 299" class="s21" d="m833 476l1-7 11-3v5l-1 2-7 5-3 2z"/>
		<path id="Path 300" class="s2" d="m159 472l4-4 9-1-11 5z"/>
		<path id="Path 301" class="s64" d="m331 468l11-1-1 13-10-2z"/>
		<path id="Path 302" class="s57" d="m749 478l5-11h7v7l-4 6h-4z"/>
		<path id="Path 303" class="s65" d="m761 474v-7h4l2 7z"/>
		<path id="Path 304" class="s72" d="m361 472v-4h4v4z"/>
		<path id="Path 305" class="s73" d="m653 476v-8l16 2 3 4h7v10h-2-13l-3-2-4-6z"/>
		<path id="Path 306" class="s80" d="m578 496l-21-1-4-4v-6l9-4v-7l4-4h7 2l1 13 20 2-5 11z"/>
		<path id="Path 307" class="s77" d="m578 496h13l5-11-20-2-1-13h28l2 4 2 8h6l13 2 5 6v6h-11l-3 8-6 4h-18l-12-2-3-1z"/>
		<path id="Path 308" class="s33" d="m845 471l4-1-5 3z"/>
		<path id="Path 309" class="s75" d="m687 472h8l2 14h-10l-8-2v-10z"/>
		<path id="Path 310" class="s20" d="m133 482l3-4 23-6h2l-21 8-3 1z"/>
		<path id="Path 311" class="s75" d="m363 484l-2-12h4l5 11z"/>
		<path id="Path 312" class="s77" d="m427 484v-7l8-5h4l2 12-2 2z"/>
		<path id="Path 313" class="s73" d="m697 486l-2-14h3l4 4h5v10z"/>
		<path id="Path 314" class="s33" d="m837 478l7-5-2 4z"/>
		<path id="Path 315" class="s78" d="m613 482h-6l-2-8 8 2z"/>
		<path id="Path 316" class="s66" d="m757 480l4-6h6l2 8 1 17h-5v-13z"/>
		<path id="Path 317" class="s19" d="m815 477l4-3 10 2v3l-3 2-11 1z"/>
		<path id="Path 318" class="s16" d="m215 481v-5l9 1v6l-5 1z"/>
		<path id="Path 319" class="s55" d="m268 477v-1h11l4 2v4l-4 6h-4-9v-2z"/>
		<path id="Path 320" class="s62" d="m315 484v-7l4-1 12 2 10 2 2 6h-4-16-8z"/>
		<path id="Path 321" class="s78" d="m639 482l1-4 13-2h4l4 6-4 2z"/>
		<path id="Path 322" class="s75" d="m707 486v-10h6 4l-2 10z"/>
		<path id="Path 323" class="s73" d="m715 486l2-10 22 2 2 1v14l-2 7-4 1v5l-13-1-2-5-5-2z"/>
		<path id="Path 324" class="s7" d="m829 479v-3h4l1 4z"/>
		<path id="Path 325" class="s6" d="m257 486l1-9h10l-2 9z"/>
		<path id="Path 326" class="s50" d="m809 482v-5h2 4v5z"/>
		<path id="Path 327" class="s75" d="m741 479l8-1 4 2-1 11-11 2z"/>
		<path id="Path 328" class="s17" d="m834 480l3-2-1 5-4 2v-1z"/>
		<path id="Path 329" class="s39" d="m236 485v-6l3 1v5z"/>
		<path id="Path 330" class="s12" d="m826 481l3-2 5 1-2 4h-2z"/>
		<path id="Path 331" class="s78" d="m741 493l11-2 1-11h4l8 6v13l-6 10-8 3-4-4v-5l-8-3z"/>
		<path id="Path 332" class="s9" d="m207 482l8-1 4 3-2 6-11-2z"/>
		<path id="Path 333" class="s21" d="m815 482l11-1 4 3-3 8h-18v-10z"/>
		<path id="Path 334" class="s80" d="m626 484v-2h13l18 2v4h4l3-4h13v14l-4 2-20 2-13-2-2-4h-7v-6z"/>
		<path id="Path 335" class="s77" d="m657 484l4-2 3 2-3 4h-4z"/>
		<path id="Path 336" class="s55" d="m770 499l-1-17 10 8-1 7-5 3z"/>
		<path id="Path 337" class="s45" d="m118 487l5-4 4 1-4 2z"/>
		<path id="Path 338" class="s82" d="m363 484l7-1 3 2v6l-8 4-2 15 8 16 8 2v7l1 1v1l-8 1-3-4h-9l-3 6-22 3-4 7h-7l-2-4-8-1-2-3-9-1-14-5-10-2-8-1h-2v-9l7-1 1-9h24 16l5 15 8 3 3 6h9l3-2v-8l-8-1-3-5-7-2v-6l5-4h7l1-6 5-8h5l3-8z"/>
		<path id="Path 339" class="s11" d="m151 490l3-6h9l12 6v8l-5 2-5-6h-10z"/>
		<path id="Path 340" class="s71" d="m303 500v-13l12-3v2l-5 5v9z"/>
		<path id="Path 341" class="s77" d="m677 498v-14h2l8 2v8l4 2v4 1z"/>
		<path id="Path 342" class="s25" d="m827 492l3-8h2v1l-3 8h-2z"/>
		<path id="Path 343" class="s18" d="m226 498l1-5 9-8h3l8 1v4h-4l-9 9h-5z"/>
		<path id="Path 344" class="s77" d="m373 491v-6h6l2 3-2 4z"/>
		<path id="Path 345" class="s29" d="m118 487l5-1-18 8h-2v-2l6-2 7-3z"/>
		<path id="Path 346" class="s70" d="m247 490v-4h10 9v2l-3 6h-6z"/>
		<path id="Path 347" class="s68" d="m310 500v-9l5-5h8l-1 10-5 6z"/>
		<path id="Path 348" class="s83" d="m317 502l5-6 1-10h16l-2 18h-5l-3 4h-12z"/>
		<path id="Path 349" class="s72" d="m337 504l2-18h4l2 2v8l-5 8z"/>
		<path id="Path 350" class="s80" d="m691 500v-4l-4-2v-8h10l2 12v2z"/>
		<path id="Path 351" class="s77" d="m699 498l-2-12h10v12l-5 1z"/>
		<path id="Path 352" class="s78" d="m707 498v-12h8v12z"/>
		<path id="Path 353" class="s42" d="m71 497l-5-2v-7l6 1h-2l-3 4 5 4z"/>
		<path id="Path 354" class="s12" d="m201 489l5-1 11 2 3 10-2 7-4 2-3-3v-7l-3-3h-7z"/>
		<path id="Path 355" class="s58" d="m257 494h6l3-6h9l3 8-2 3h-6l-13-1z"/>
		<path id="Path 356" class="s79" d="m345 496v-8h8l-3 8z"/>
		<path id="Path 357" class="s26" d="m789 504l-2-16h4l13 11 1 7v4l6 21v7l-4 6 2 19h-1-1l-6-3-3-2 3-6-6-4 1-15 7-2v-10l-8-6-2-9z"/>
		<path id="Path 358" class="s6" d="m72 497l-5-4 3-4 7 9-2 2z"/>
		<path id="Path 359" class="s15" d="m77 498l-7-9h2l12 11 1-1h3v1l-7 1z"/>
		<path id="Path 360" class="s7" d="m194 490l7-1v7h-6z"/>
		<path id="Path 361" class="s12" d="m144 499l7-9 4 4-1 6-5 1z"/>
		<path id="Path 362" class="s9" d="m175 498v-8l14 2v6z"/>
		<path id="Path 363" class="s39" d="m189 492l5-2 1 6-4 2h-2z"/>
		<path id="Path 364" class="s34" d="m229 499h5l9-9h4l10 4v4h-13l-5 6v10h-6v-6l-4-2z"/>
		<path id="Path 365" class="s10" d="m93 497l3-4 7-1v2l-6 2z"/>
		<path id="Path 366" class="s7" d="m809 499v-7h18v1l3 12 2 3 1 3 9 12 5 7-4 6h-6l-8-5-2-3v-6l-7-6-1-9z"/>
		<path id="Path 367" class="s15" d="m830 505l-3-12h2l1 9z"/>
		<path id="Path 368" class="s38" d="m97 496l6-2h2v11l-6 4-4 1-6-2v-8z"/>
		<path id="Path 369" class="s63" d="m154 500l1-6h10l5 6 1 4-15-2z"/>
		<path id="Path 370" class="s71" d="m280 496l7-2v4z"/>
		<path id="Path 371" class="s3" d="m93 497l4-1-8 4h-1v-1-1z"/>
		<path id="Path 372" class="s6" d="m191 498l4-2h6 7l3 3v7l-8 1-12 1z"/>
		<path id="Path 373" class="s68" d="m270 499h6l2-3h2l7 2 1 2-11 9v5l-1 9-7 1-6-2v-13l7-6z"/>
		<path id="Path 374" class="s78" d="m617 504l3-8h11 7l2 4z"/>
		<path id="Path 375" class="s15" d="m56 520l17-15-2-8h1l3 3-2 8-7 7-11 9h-1v-1-1z"/>
		<path id="Path 376" class="s11" d="m75 500l2-2 4 3 7-1h1v8l-6 2h-4l-6-2z"/>
		<path id="Path 377" class="s0" d="m85 499l3-1v1z"/>
		<path id="Path 378" class="s12" d="m170 500l5-2h14 2v10l-1 2h-4l-4-4-11-2z"/>
		<path id="Path 379" class="s58" d="m220 500l6-2 3 1v7l-4 2-7-1z"/>
		<path id="Path 380" class="s71" d="m239 514v-10l5-6h13l13 1v4l-7 6v13l-6 5v5l-5 1-3-2v-9l-4-2v-4z"/>
		<path id="Path 381" class="s84" d="m673 500l4-2 14 3v11h-2l-14-1z"/>
		<path id="Path 382" class="s75" d="m699 500v-2l3 1z"/>
		<path id="Path 383" class="s66" d="m702 499l5-1h8l5 2 2 5-1 7-13 2-17-2v-11-1h8z"/>
		<path id="Path 384" class="s21" d="m139 506l5-7 5 2-1 7-4 2z"/>
		<path id="Path 385" class="s61" d="m759 509l6-10h5l3 1-7 11h-6z"/>
		<path id="Path 386" class="s19" d="m805 506l-1-7h2z"/>
		<path id="Path 387" class="s12" d="m805 506l1-7h3l10 8 1 9 7 6v6l-8-3-1-7-9-8h-4z"/>
		<path id="Path 388" class="s37" d="m149 501l5-1 2 2-1 6h-7z"/>
		<path id="Path 389" class="s79" d="m277 514v-5l11-9h11l2 14z"/>
		<path id="Path 390" class="s72" d="m301 514l-2-14h4 7l7 2v6 6z"/>
		<path id="Path 391" class="s73" d="m617 504l23-4 13 2 20-2 2 11-4 1h-11-15l-6 1-16 3h-6-6v-8z"/>
		<path id="Path 392" class="s84" d="m735 506v-5l4-1 8 3v5h-12z"/>
		<path id="Path 393" class="s55" d="m155 508l1-6 15 2 11 2 4 4-3 3v7l-6 1-1 3-6 1h-4l-3-3v-8l-8-2z"/>
		<path id="Path 394" class="s10" d="m830 505v-3l2 6z"/>
		<path id="Path 395" class="s31" d="m105 505l21 1-3 1v4l-12-1v-4l-4 2-6 4-2-3z"/>
		<path id="Path 396" class="s79" d="m317 508h12l3-4h5 3l-1 6h-7l-5 4v6l7 2 3 5 8 1v8l-3 2h-9l-3-6-8-3-5-15z"/>
		<path id="Path 397" class="s81" d="m779 521v-9l10-8 4 2 2 9h-6z"/>
		<path id="Path 398" class="s64" d="m721 512l1-7 13 1v2 9l-12-2z"/>
		<path id="Path 399" class="s70" d="m107 508l4-2v4l-2 1z"/>
		<path id="Path 400" class="s61" d="m123 511v-4l3-1h2l4 4-2 12-4 4h-4l-1-5z"/>
		<path id="Path 401" class="s7" d="m130 522l2-12-4-4h10v5l4 1-1 10-3 2z"/>
		<path id="Path 402" class="s39" d="m142 512l-4-1v-5h1l5 4z"/>
		<path id="Path 403" class="s52" d="m203 507l8-1 3 3-4 4-4 1-3-1z"/>
		<path id="Path 404" class="s62" d="m225 508l4-2 4 2v6h-4l-3-2z"/>
		<path id="Path 405" class="s77" d="m487 518l1-10 13-2 6 2v8z"/>
		<path id="Path 406" class="s75" d="m581 512v-6l12 2v6h-4z"/>
		<path id="Path 407" class="s58" d="m191 508l12-1v6l3 1-4 7-3 5h-4l-1-4 1-9-5-3z"/>
		<path id="Path 408" class="s56" d="m214 509l4-2 7 1 1 4-6 1-3 6-4 2v-6l-3-2z"/>
		<path id="Path 409" class="s30" d="m66 515l7-7 6 2v4l-6 6z"/>
		<path id="Path 410" class="s51" d="m83 510l6-2 6 2v8h-10l-2-4z"/>
		<path id="Path 411" class="s44" d="m101 512l6-4 2 3v8l-4 2z"/>
		<path id="Path 412" class="s60" d="m144 510l4-2h7v4l-3 2v8h-4l-7 9-7 1 4-8 3-2 1-10z"/>
		<path id="Path 413" class="s77" d="m425 520v-7l5-5h5l7 12-17 2z"/>
		<path id="Path 414" class="s72" d="m593 514v-6h18v8l-2 2h-13z"/>
		<path id="Path 415" class="s66" d="m735 517v-9h12l4 4v4l-6-1-2 3h-8z"/>
		<path id="Path 416" class="s10" d="m833 511l-1-3 4 4z"/>
		<path id="Path 417" class="s21" d="m95 510l4-1 2 3 4 9 4 5v6l-9-1-3-3-2-10z"/>
		<path id="Path 418" class="s84" d="m751 512l8-3 1 2-3 7-6-2z"/>
		<path id="Path 419" class="s22" d="m79 514v-4h4v4z"/>
		<path id="Path 420" class="s46" d="m109 511l2-1 12 1-2 10-8 2-4-4z"/>
		<path id="Path 421" class="s62" d="m183 520v-7l3-3h4l5 3-1 9-4 1z"/>
		<path id="Path 422" class="s23" d="m809 563l-2-19 4-6v-7l-6-21h4l9 8 1 7 8 3 2 3-2 12 4 3v5l14 7 1 18-1 3-4-1-8-3-4-2-6-3-8-4z"/>
		<path id="Path 423" class="s76" d="m671 512l4-1 14 1v4l-18 6z"/>
		<path id="Path 424" class="s60" d="m757 518l3-7h6l1 5-3 4h-7z"/>
		<path id="Path 425" class="s15" d="m842 523l-9-12 3 1 8 11z"/>
		<path id="Path 426" class="s69" d="m152 522v-8l3-2 8 2v8l-4 3z"/>
		<path id="Path 427" class="s19" d="m217 519l3-6 6-1 3 2v7l-10 1z"/>
		<path id="Path 428" class="s79" d="m569 516l12-4 8 2v5l-6 5h-14v-2z"/>
		<path id="Path 429" class="s67" d="m639 513l6-1v4h-6z"/>
		<path id="Path 430" class="s60" d="m645 516v-4h15l-3 6z"/>
		<path id="Path 431" class="s85" d="m657 518l3-6h11v10l-14 2z"/>
		<path id="Path 432" class="s50" d="m689 516v-4h2l17 2 1 2v4l-9 1z"/>
		<path id="Path 433" class="s67" d="m708 514l13-2 2 3-6 2-8-1z"/>
		<path id="Path 434" class="s68" d="m206 514l4-1 3 2v6l-3 3h-3l-5-3z"/>
		<path id="Path 435" class="s69" d="m623 516l16-3v3l-2 4-14 2z"/>
		<path id="Path 436" class="s46" d="m73 520l6-6h4l2 4v9l-2 1-10-2z"/>
		<path id="Path 437" class="s85" d="m229 521v-7h4 6l6 2v4l-4 5v11l-8 2h-5l-2-4 8-3v-6z"/>
		<path id="Path 438" class="s78" d="m589 519v-5h4l3 4v1z"/>
		<path id="Path 439" class="s22" d="m55 524l11-9 7 5v6l-8 2h-10z"/>
		<path id="Path 440" class="s85" d="m717 517l6-2 12 2v1 9 3l-7-2h-2l-6-4 3-2z"/>
		<path id="Path 441" class="s86" d="m743 518l2-3 6 1 6 2v2 6h-14z"/>
		<path id="Path 442" class="s74" d="m779 521l10-6h6l8 6v10l-7 2-5-4h-12z"/>
		<path id="Path 443" class="s79" d="m487 518l20-2h4l2 4v6l-5 5h-5l-1 4 11 1 2 8-8 6-19 2-5-6h-17v-25z"/>
		<path id="Path 444" class="s79" d="m547 518l14-2v6l-1 7-2 7h-1l-6-3v-7l-4-1z"/>
		<path id="Path 445" class="s75" d="m561 522v-6h8v6z"/>
		<path id="Path 446" class="s44" d="m609 518l2-2h6v7l-4 4-4-3z"/>
		<path id="Path 447" class="s71" d="m617 523v-7h6v6z"/>
		<path id="Path 448" class="s86" d="m623 522l14-2 2-4h6l12 2v6l-3 5-24 8-1-3-18 3v-7l2-3 4-4z"/>
		<path id="Path 449" class="s43" d="m671 522l18-6 11 5-4 4h-1l-1 1-7 5-4 2h-1l-3 2-6 3h-1l-3 2-6 3-4 2-5 3-9 5-3 2-5 3-11 7-1-7h-16l-6 4-8-2 1-4 7-2 24-12 3-5 24-8 3-5z"/>
		<path id="Path 450" class="s4" d="m694 525h1v1h-1z"/>
		<path id="Path 451" class="s27" d="m709 520v-4l8 1 6 5-3 2-4-1h-1l-5-2z"/>
		<path id="Path 452" class="s24" d="m85 527v-9h10l2 10h-6z"/>
		<path id="Path 453" class="s75" d="m513 520l34-2v7l-23 4-11-3z"/>
		<path id="Path 454" class="s64" d="m596 519v-1h13v6l-2 2h-10z"/>
		<path id="Path 455" class="s87" d="m735 527v-9h8v8l-2 1z"/>
		<path id="Path 456" class="s61" d="m105 521l4-2 4 4-1 3h-3z"/>
		<path id="Path 457" class="s31" d="m213 521l4-2 2 3-2 4h-7v-2z"/>
		<path id="Path 458" class="s44" d="m583 524l6-5h7l1 7-9 4h-5z"/>
		<path id="Path 459" class="s44" d="m176 524l1-3 6-1 7 3-6 9-2 1-7-3z"/>
		<path id="Path 460" class="s88" d="m241 536v-11l4-5 4 2v9l3 2-1 3z"/>
		<path id="Path 461" class="s79" d="m409 522l16-2v2l-4 5-12 1z"/>
		<path id="Path 462" class="s72" d="m425 522l17-2 24 1v25l-1 12h-8l-8-6h-9l-1 4h-4l-16 2h-12l-5 3-17-1-2-8 1-6h9l9-6 7-2v-10l12-1z"/>
		<path id="Path 463" class="s4" d="m700 521l9-1 1 1-1 1-12 3h-1z"/>
		<path id="Path 464" class="s37" d="m757 526v-6h7l-3 8z"/>
		<path id="Path 465" class="s85" d="m113 523l8-2 1 5-5 2-5-2z"/>
		<path id="Path 466" class="s64" d="m199 526l3-5 5 3v2l-4 2z"/>
		<path id="Path 467" class="s26" d="m219 522l10-1 5 4v6l-8 3-7-1-2-7z"/>
		<path id="Path 468" class="s45" d="m709 522l1-1 5 2z"/>
		<path id="Path 469" class="s26" d="m777 529l-2-7 4-1v8z"/>
		<path id="Path 470" class="s27" d="m126 526l4-4 8 2-4 8h-4z"/>
		<path id="Path 471" class="s57" d="m141 531l7-9h4l7 3v3 8h-5l-2 4-4 1z"/>
		<path id="Path 472" class="s60" d="m159 525l4-3 3 3-7 3z"/>
		<path id="Path 473" class="s87" d="m190 523l4-1 1 4-1 6-5 2-5-2z"/>
		<path id="Path 474" class="s72" d="m257 532v-5l6-5 6 2v9z"/>
		<path id="Path 475" class="s82" d="m391 528l6-6h12v6 10l-7 2-3-4h-8z"/>
		<path id="Path 476" class="s82" d="m560 529l1-7h8v2l-5 5z"/>
		<path id="Path 477" class="s17" d="m53 525v-2h1v1z"/>
		<path id="Path 478" class="s5" d="m726 528l-10-5 4 1z"/>
		<path id="Path 479" class="s25" d="m847 530l-5-7h2l23 24-10-7z"/>
		<path id="Path 480" class="s13" d="m53 525l1-1h1v4 3h-1l-1-1z"/>
		<path id="Path 481" class="s89" d="m53 530h1v1h-1z"/>
		<path id="Path 482" class="s57" d="m170 525l6-1-1 6h-4z"/>
		<path id="Path 483" class="s50" d="m207 526v-2h3v2h-2z"/>
		<path id="Path 484" class="s64" d="m564 529l5-5h14v6l-6 2-6 1-7-1z"/>
		<path id="Path 485" class="s67" d="m607 526l2-2 4 3-2 3h-4z"/>
		<path id="Path 486" class="s61" d="m159 528l7-3h4l1 5v10h-8l-4-4z"/>
		<path id="Path 487" class="s82" d="m513 526l11 3 23-4 4 1v7l-8 3h-8l-4 5-6 3h-6-4l-2-8-11-1 1-4h5z"/>
		<path id="Path 488" class="s17" d="m694 526l1-1h1 1l-10 7v-1z"/>
		<path id="Path 489" class="s54" d="m65 528l8-2 10 2v4l7 4 5 2 1 10-4 8-10-1-4-2-1-1-3-1h-1-2l-3-5 2-3-7-2z"/>
		<path id="Path 490" class="s28" d="m109 532v-6h3l5 2v6h-6z"/>
		<path id="Path 491" class="s24" d="m117 528l5-2h4l4 6-1 2h-12z"/>
		<path id="Path 492" class="s71" d="m194 532l1-6h4l4 2-4 8z"/>
		<path id="Path 493" class="s85" d="m203 528l4-2h1l-3 18-6-2v-6z"/>
		<path id="Path 494" class="s90" d="m205 544l3-18h2 7l2 7 7 1 2 4h5l-1 9-4 3-11-2-8-1z"/>
		<path id="Path 495" class="s61" d="m588 530l9-4h10v4l-5 2v4h-4l-10-1z"/>
		<path id="Path 496" class="s81" d="m741 527l2-1h14l4 2 2 10-2 2-13-4-5-1-2-2z"/>
		<path id="Path 497" class="s87" d="m83 528l2-1 6 1-1 8-7-4z"/>
		<path id="Path 498" class="s28" d="m735 530v-3h6v6h-2z"/>
		<path id="Path 499" class="s46" d="m55 531v-3h10l-2 13-6-3z"/>
		<path id="Path 500" class="s37" d="m90 536l1-8h6l3 3-1 7h-4z"/>
		<path id="Path 501" class="s77" d="m379 535v-7h12v8l-11 1v-1z"/>
		<path id="Path 502" class="s78" d="m379 535h1v1h-1z"/>
		<path id="Path 503" class="s10" d="m739 533l-8-1-3-4 7 2z"/>
		<path id="Path 504" class="s68" d="m558 536l2-7h4v3l-3 4z"/>
		<path id="Path 505" class="s54" d="m768 538l9-9h2 12l5 4-1 15 6 4-3 6h-2l-10-5-4-2-8-4-5-3z"/>
		<path id="Path 506" class="s67" d="m171 540v-10h4l7 3-2 5-4 4h-3z"/>
		<path id="Path 507" class="s67" d="m577 532l6-2h5v5l-11 3z"/>
		<path id="Path 508" class="s91" d="m602 536v-4l5-2h4v7z"/>
		<path id="Path 509" class="s12" d="m843 536l4-6 10 10-10 5-4-4z"/>
		<path id="Path 510" class="s33" d="m53 531h1v1h-1z"/>
		<path id="Path 511" class="s45" d="m54 532v-1h1l2 7 6 3 7 2-2 3v-1l-10-3-2-4-2-2z"/>
		<path id="Path 512" class="s87" d="m99 538l1-7 9 1 2 2-4 6z"/>
		<path id="Path 513" class="s61" d="m134 532l7-1 7 10-1 3-7 2-9 1-1-1-1-12 1-2z"/>
		<path id="Path 514" class="s5" d="m683 533l4-2v1z"/>
		<path id="Path 515" class="s21" d="m845 558l-14-7v-5l-4-3 2-12 8 5h6v5l4 4v9z"/>
		<path id="Path 516" class="s81" d="m182 533l2-1 5 2-2 6h-3l-4-2z"/>
		<path id="Path 517" class="s58" d="m189 534l5-2 5 4v6h-12v-2z"/>
		<path id="Path 518" class="s67" d="m252 533l5-1 12 1h2l-2 7h-13l-5-4z"/>
		<path id="Path 519" class="s69" d="m561 536l3-4 7 1v7h-10z"/>
		<path id="Path 520" class="s61" d="m571 533l6-1v6l-2 3-4-1z"/>
		<path id="Path 521" class="s69" d="m269 540l2-7 8 1-4 12h-6z"/>
		<path id="Path 522" class="s64" d="m543 536l8-3 6 3v4l-14 2z"/>
		<path id="Path 523" class="s10" d="m743 535l-4-2h2z"/>
		<path id="Path 524" class="s86" d="m107 540l4-6h6v9l-10-1z"/>
		<path id="Path 525" class="s67" d="m117 543v-9h12l1 12h-9z"/>
		<path id="Path 526" class="s65" d="m275 546l4-12 10 2v8l-6 3v5h-8z"/>
		<path id="Path 527" class="s79" d="m331 550l4-7 22-3 3-6h9l3 4 8-1 11-1h8l3 4-9 6h-9l-1 6h-8-6l-2-4h-5l-1 6h-8l-4 8-14-2z"/>
		<path id="Path 528" class="s85" d="m611 537l18-3 1 3-3 5-24 12v-6l-6-2 1-10h4z"/>
		<path id="Path 529" class="s86" d="m577 538l11-3 10 1-1 10-8 4h-10l-4-1v-8z"/>
		<path id="Path 530" class="s88" d="m152 540l2-4h5l4 4v5z"/>
		<path id="Path 531" class="s92" d="m233 538l8-2h10l5 4-4 13-7 3-17-4v-2l4-3z"/>
		<path id="Path 532" class="s57" d="m289 544v-8l14 5-7 3z"/>
		<path id="Path 533" class="s83" d="m531 541l4-5h8v6l-10 1z"/>
		<path id="Path 534" class="s67" d="m557 540v-4h1 3v4h-2z"/>
		<path id="Path 535" class="s3" d="m766 545l-11-3-7-6 13 4 8 4 5 3v1l-5-1z"/>
		<path id="Path 536" class="s24" d="m96 548l-1-10h4l8 2v2l-7 6z"/>
		<path id="Path 537" class="s26" d="m176 542l4-4 4 2-3 8h-5z"/>
		<path id="Path 538" class="s51" d="m761 540l2-2h5l1 6z"/>
		<path id="Path 539" class="s93" d="m148 541l4-1 11 5 3 4v4l-14 1-12-8 7-2z"/>
		<path id="Path 540" class="s94" d="m163 545v-5h8l2 2-7 7z"/>
		<path id="Path 541" class="s92" d="m181 548l3-8h3v2 12 2h-6z"/>
		<path id="Path 542" class="s88" d="m252 553l4-13h13v6l-2 10h-14z"/>
		<path id="Path 543" class="s88" d="m543 542l14-2h2v6h-7l-3 4-14 2h-9v-6h6l1-3z"/>
		<path id="Path 544" class="s87" d="m559 546v-6h2 10l4 1v8l-12 3z"/>
		<path id="Path 545" class="s11" d="m847 545l10-5 10 7 11 11-3 1v7l10 4 3 6-9 5-10-3v-6l-14-9-1-7-7-2z"/>
		<path id="Path 546" class="s68" d="m296 544l7-3 9 1 2 3-4 9 11 2 4 6h6v4h-7l-3 6h-4l-5-6h-9l-4-4z"/>
		<path id="Path 547" class="s69" d="m525 544l6-3 2 2-1 3h-6z"/>
		<path id="Path 548" class="s23" d="m100 548l7-6 10 1 4 3h9l1 1-1 11h-5l-2-5z"/>
		<path id="Path 549" class="s90" d="m166 549l7-7h3v6l-1 8h-6l-3-3z"/>
		<path id="Path 550" class="s67" d="m187 554v-12h12l6 2 4 3v9z"/>
		<path id="Path 551" class="s44" d="m283 552v-5l6-3h7l3 18h-6v-5z"/>
		<path id="Path 552" class="s44" d="m507 550l8-6h4l-1 8h-8z"/>
		<path id="Path 553" class="s61" d="m518 552l1-8h6l1 2v6l-5 2z"/>
		<path id="Path 554" class="s33" d="m66 547l2-2v1z"/>
		<path id="Path 555" class="s64" d="m321 556l-11-2 4-9 8 1 2 4z"/>
		<path id="Path 556" class="s15" d="m66 547l2-1 3 5-3 1z"/>
		<path id="Path 557" class="s26" d="m131 547l9-1 12 8-5 5v8l-3 1h-3l-8-2h-2-1v-2-6z"/>
		<path id="Path 558" class="s61" d="m267 556l2-10h6v6z"/>
		<path id="Path 559" class="s83" d="m465 558l1-12h17l5 6-2 4-5 2-12 1z"/>
		<path id="Path 560" class="s86" d="m549 550l3-4h7l4 6v6h-14z"/>
		<path id="Path 561" class="s50" d="m589 550l8-4 6 2v6l-7 2-1 4h-6z"/>
		<path id="Path 562" class="s85" d="m209 556v-9l8 1v6l-2 4h-4z"/>
		<path id="Path 563" class="s47" d="m774 548v-1l8 4-4 1z"/>
		<path id="Path 564" class="s1" d="m878 558l-11-11h4l16 18z"/>
		<path id="Path 565" class="s74" d="m92 556l4-8h4l23 5 2 5v6h-4-2l-7-1h-4-3l-7-2h-2z"/>
		<path id="Path 566" class="s93" d="m175 556l1-8h5v8z"/>
		<path id="Path 567" class="s91" d="m217 554v-6l11 2v2l-5 2z"/>
		<path id="Path 568" class="s83" d="m361 554l1-6h5l2 4v8h-2-3z"/>
		<path id="Path 569" class="s10" d="m645 553l9-5-8 5z"/>
		<path id="Path 570" class="s85" d="m563 552l12-3 4 1v10l3 3-11 5v-8l-8-2z"/>
		<path id="Path 571" class="s72" d="m321 556l3-6h7l4 10-4 2h-6z"/>
		<path id="Path 572" class="s61" d="m488 552l19-2 3 2v6l-5 1-18 1-1-4z"/>
		<path id="Path 573" class="s91" d="m535 552l14-2v8 6h-14z"/>
		<path id="Path 574" class="s76" d="m582 563l-3-3v-10h10v10z"/>
		<path id="Path 575" class="s45" d="m78 553l-5-2h1l3 1z"/>
		<path id="Path 576" class="s65" d="m223 554l5-2 17 4 4 4v6l-6 2-16-4-4-4z"/>
		<path id="Path 577" class="s57" d="m267 556l8-4h8l10 5v5 8l-2 2h-8-13l-21-6v-6l4-4z"/>
		<path id="Path 578" class="s68" d="m369 560v-8h6v8z"/>
		<path id="Path 579" class="s83" d="m375 560v-8h8l2 8v2h-8z"/>
		<path id="Path 580" class="s68" d="m439 556l1-4h9l8 6v5l-8 1h-9l-1-1z"/>
		<path id="Path 581" class="s91" d="m510 558v-6h8l3 2v6z"/>
		<path id="Path 582" class="s87" d="m521 554l5-2h9v12h-2-10l-2-4z"/>
		<path id="Path 583" class="s45" d="m83 558l-5-5 4 2z"/>
		<path id="Path 584" class="s23" d="m152 554l14-1 3 3 4 14-7-1h-3l-16-2v-8z"/>
		<path id="Path 585" class="s61" d="m245 556l7-3 1 3-4 4z"/>
		<path id="Path 586" class="s0" d="m642 555l3-2h1z"/>
		<path id="Path 587" class="s37" d="m187 556v-2l22 2 2 2v6h-6l-16-3z"/>
		<path id="Path 588" class="s67" d="m215 558l2-4h6v6l4 4v4l-10-1-2-3z"/>
		<path id="Path 589" class="s72" d="m349 562l4-8h8l3 6h3v8l-4 6h-12z"/>
		<path id="Path 590" class="s40" d="m845 558l2-4 7 2 1 7 14 9v6l-5 4v5l-11-4h-2l-5-4 2-1-2-2z"/>
		<path id="Path 591" class="s23" d="m83 558l-1-3 10 1 4 5v1l1 4v1 3h-8l-2-6-1-1-3-4z"/>
		<path id="Path 592" class="s50" d="m173 570l-4-14h6 6 6l2 5-1 13-4-1h-3l-5-2z"/>
		<path id="Path 593" class="s84" d="m419 558l16-2v7l1 4-6 3-3-4h-6z"/>
		<path id="Path 594" class="s62" d="m435 563v-7h4v7z"/>
		<path id="Path 595" class="s94" d="m481 558l5-2 1 4-2 4h-4z"/>
		<path id="Path 596" class="s27" d="m125 564v-6h5v6z"/>
		<path id="Path 597" class="s60" d="m211 564v-6h4v6z"/>
		<path id="Path 598" class="s66" d="m402 561l5-3h12l2 8v8l-14 1-6-3z"/>
		<path id="Path 599" class="s71" d="m457 563v-5h8l4 1v4l-11 1z"/>
		<path id="Path 600" class="s86" d="m469 559l12-1v6l-12 2v-3z"/>
		<path id="Path 601" class="s93" d="m505 559l5-1 11 2 2 4h10l-2 10h-4l-11-1-7 3-4-2z"/>
		<path id="Path 602" class="s93" d="m549 564v-6h14l8 2v8l-4 5-13 4-1-1v-9z"/>
		<path id="Path 603" class="s63" d="m595 560l8 2 6-4h16l1 7-9 5-4 3-4 2-4 3h-1l-2 2-5 3-3 2-5 3-9 4-4-5-10-1-5 4v6h-4l-2-10-3-2 2-7 13-4 4-5 11-5 7-3z"/>
		<path id="Path 604" class="s22" d="m888 576l-3-6-10-4v-7l3-1 9 7 8 7 3 4-1 3z"/>
		<path id="Path 605" class="s87" d="m487 560l18-1v15l-14 4-10 1-4 7h-12l-4-6v-8l8-6 12-2h4z"/>
		<path id="Path 606" class="s83" d="m331 562l4-2 14 2 2 12-1 1h-6l-8-9h-5z"/>
		<path id="Path 607" class="s64" d="m367 568v-8h2 6l2 2v4l-6 2z"/>
		<path id="Path 608" class="s84" d="m385 562v-2l17 1-1 11-5-5h-6l-5-1z"/>
		<path id="Path 609" class="s19" d="m188 574l1-13 16 3v10l-3 2-9-1h-4z"/>
		<path id="Path 610" class="s64" d="m293 570v-8h6l4 4v4z"/>
		<path id="Path 611" class="s66" d="m377 566v-4h8v4l-1 2z"/>
		<path id="Path 612" class="s10" d="m88 572l-2-9 1 1 1 6z"/>
		<path id="Path 613" class="s33" d="m112 565l-4-2h4z"/>
		<path id="Path 614" class="s36" d="m112 565v-2l7 1z"/>
		<path id="Path 615" class="s65" d="m436 567l-1-4h4l1 1z"/>
		<path id="Path 616" class="s61" d="m449 564l8-1 1 1-1 5-8 1z"/>
		<path id="Path 617" class="s60" d="m458 564l11-1v3l-8 6-4-3z"/>
		<path id="Path 618" class="s17" d="m815 566l-4 1-3-4h1z"/>
		<path id="Path 619" class="s62" d="m88 570l-1-6 2 6z"/>
		<path id="Path 620" class="s95" d="m121 565v-1h4 5v2z"/>
		<path id="Path 621" class="s52" d="m202 576l3-2v-10h6 4l2 3-2 11-12-1z"/>
		<path id="Path 622" class="s56" d="m227 568v-4l16 4v3l-11 1z"/>
		<path id="Path 623" class="s57" d="m436 567l4-3h9v6l-4 4-10 2-14-2v-8h6l3 4z"/>
		<path id="Path 624" class="s81" d="m531 574l2-10h2 14l4 3v9l-10 2z"/>
		<path id="Path 625" class="s42" d="m131 566l-10-1 9 1z"/>
		<path id="Path 626" class="s33" d="m895 572l-8-7h4l5 7z"/>
		<path id="Path 627" class="s67" d="m243 568l6-2 21 6v2h-21l-6-3z"/>
		<path id="Path 628" class="s44" d="m303 570v-4h9l5 6-2 4h-6z"/>
		<path id="Path 629" class="s64" d="m321 572l3-6h7 5l8 9-4 3h-9l-10-2z"/>
		<path id="Path 630" class="s86" d="m371 568l6-2 7 2v1l-8 11-9-4z"/>
		<path id="Path 631" class="s94" d="m384 568l1-2 5 1-6 2z"/>
		<path id="Path 632" class="s95" d="m97 570v-3l2 4z"/>
		<path id="Path 633" class="s20" d="m144 568l3-1 16 2z"/>
		<path id="Path 634" class="s50" d="m215 578l2-11 10 1 5 4 11-1 6 3h21l7 4v6h-6l-11-1h-1-7l-2-1h-7l-11-1h-1l-14-2z"/>
		<path id="Path 635" class="s91" d="m384 569l6-2h6l5 5 6 3v9l-6 5v9l-19-12-6-6z"/>
		<path id="Path 636" class="s34" d="m363 574l4-6h4l-4 8h-2z"/>
		<path id="Path 637" class="s45" d="m176 572h-10v-3l7 1 3 1z"/>
		<path id="Path 638" class="s76" d="m449 570l8-1 4 3v8l4 6v4l7 5-6-2h-1l-2-2-7-3-5-3-3-2h-2l-1-2v-7z"/>
		<path id="Path 639" class="s63" d="m88 572v-2h1 8l2 1v1l3 8v2l1 4h-8l-2-2v-1l-1-7-4-3z"/>
		<path id="Path 640" class="s61" d="m291 572l2-2h10l6 6-1 2h-14l-3-1z"/>
		<path id="Path 641" class="s17" d="m176 572v-1l5 2z"/>
		<path id="Path 642" class="s60" d="m270 574v-2h13l2 5v1h-8z"/>
		<path id="Path 643" class="s67" d="m285 577l-2-5h8v5z"/>
		<path id="Path 644" class="s61" d="m315 576l2-4h4v4z"/>
		<path id="Path 645" class="s5" d="m898 576l-3-4h1l6 6z"/>
		<path id="Path 646" class="s13" d="m93 583l-4-3-1-7 4 3z"/>
		<path id="Path 647" class="s33" d="m189 575l-5-2 4 1z"/>
		<path id="Path 648" class="s90" d="m509 576l7-3 11 1-2 12h-8l-8-2z"/>
		<path id="Path 649" class="s67" d="m350 575l1-1h12l2 2-2 3-8 1z"/>
		<path id="Path 650" class="s87" d="m407 575l14-1-1 7-6 4-7-1z"/>
		<path id="Path 651" class="s23" d="m420 581l1-7 14 2v5l-6 1z"/>
		<path id="Path 652" class="s87" d="m435 576l10-2v7l-7 1-3-1z"/>
		<path id="Path 653" class="s81" d="m491 578l14-4 4 2v8l-4 4-14-1z"/>
		<path id="Path 654" class="s26" d="m525 586l2-12h4l12 4v6l-10 2z"/>
		<path id="Path 655" class="s5" d="m203 578l-10-3 9 1 1 1z"/>
		<path id="Path 656" class="s60" d="m340 578l4-3h6l5 5v4l-1 2h-5l-6-2z"/>
		<path id="Path 657" class="s85" d="m308 578l1-2h6 6l10 2v6h-7-12-7z"/>
		<path id="Path 658" class="s74" d="m363 579l2-3h2l9 4 6 6-3 4-8-4h-3l-5-3z"/>
		<path id="Path 659" class="s50" d="m543 578l10-2 1 1-2 7h-9z"/>
		<path id="Path 660" class="s39" d="m845 579l1-3 2 2-2 1z"/>
		<path id="Path 661" class="s12" d="m879 581l9-5 9 3v5h-4l-8 10-5-1z"/>
		<path id="Path 662" class="s16" d="m897 579l1-3 4 2 1 1 2 2 1 1v4l-9-2z"/>
		<path id="Path 663" class="s20" d="m203 578v-1l12 1 2 1v1z"/>
		<path id="Path 664" class="s50" d="m285 578v-1h6l3 1-1 10h-2l-5-2z"/>
		<path id="Path 665" class="s93" d="m477 586l4-7 10-1v9z"/>
		<path id="Path 666" class="s23" d="m277 584v-6h8l1 8h-1l-5-1z"/>
		<path id="Path 667" class="s23" d="m293 588l1-10h14l-3 6-3 2z"/>
		<path id="Path 668" class="s50" d="m331 584v-6h9l3 6h-10z"/>
		<path id="Path 669" class="s17" d="m851 583l-10-5 4 1h1z"/>
		<path id="Path 670" class="s27" d="m864 587v-5l5-4 10 3 1 12h-1-1l-4-2h-1z"/>
		<path id="Path 671" class="s0" d="m903 579l4 2h-2z"/>
		<path id="Path 672" class="s2" d="m217 580v-1l14 2v1z"/>
		<path id="Path 673" class="s23" d="m355 580l8-1v4l5 3h-6l-7-2z"/>
		<path id="Path 674" class="s35" d="m438 582l7-1 1 2-5-1 3 6z"/>
		<path id="Path 675" class="s17" d="m231 582v-1h1l6 1v1z"/>
		<path id="Path 676" class="s71" d="m238 582l-6-1 11 1z"/>
		<path id="Path 677" class="s56" d="m414 585l6-4 9 1v22l5 4h11v3l-3 7-2 1h-1l2-5-14-3-10-4 2-13z"/>
		<path id="Path 678" class="s55" d="m429 582l6-1 3 1 6 6 1 5v6 9h-11l-5-4z"/>
		<path id="Path 679" class="s17" d="m906 582l-1-1h2v1z"/>
		<path id="Path 680" class="s33" d="m103 586l-1-4 2 5z"/>
		<path id="Path 681" class="s10" d="m238 583v-1h5v1z"/>
		<path id="Path 682" class="s45" d="m243 583v-1h7v1z"/>
		<path id="Path 683" class="s36" d="m250 583v-1l2 1z"/>
		<path id="Path 684" class="s44" d="m260 583l11 1h-4z"/>
		<path id="Path 685" class="s12" d="m906 586v-4h1l9 8 3 7-5 2h-4l-3-1z"/>
		<path id="Path 686" class="s17" d="m916 590l-9-8 5 1 5 7z"/>
		<path id="Path 687" class="s33" d="m267 585l-8-2h1l7 1z"/>
		<path id="Path 688" class="s2" d="m873 591l-17-4-3-4 11 4z"/>
		<path id="Path 689" class="s13" d="m93 589v-5l2 2v3z"/>
		<path id="Path 690" class="s42" d="m267 585v-1h4 6l3 1h-1z"/>
		<path id="Path 691" class="s42" d="m302 586l3-2h7v1l-10 2z"/>
		<path id="Path 692" class="s36" d="m312 585v-1h12v1z"/>
		<path id="Path 693" class="s14" d="m324 585v-1h7 2v1z"/>
		<path id="Path 694" class="s13" d="m333 585v-1h10l6 2h-2z"/>
		<path id="Path 695" class="s8" d="m354 586l1-2 7 2h-1z"/>
		<path id="Path 696" class="s60" d="m401 598v-9l6-5 7 1 5 9-2 13-6-2-8-4z"/>
		<path id="Path 697" class="s26" d="m491 587l14 1 4-4 8 2v9l-10 2-23 2-5-1-2-1-2-1-3-1-7-5v-4h12z"/>
		<path id="Path 698" class="s19" d="m533 586l10-2-2 8h-8z"/>
		<path id="Path 699" class="s18" d="m533 592h8l2-8h9l3 2 2 10-8 8v9l-4 3h-6v-6l-9-4v-11z"/>
		<path id="Path 700" class="s6" d="m885 594l8-10h4l9 2 1 12-1 1-16-3z"/>
		<path id="Path 701" class="s33" d="m285 586l-6-1h1z"/>
		<path id="Path 702" class="s33" d="m347 587l-14-2 14 1z"/>
		<path id="Path 703" class="s18" d="m95 589v-3h8l1 1 2 4 1 7-1 2-3-2-3-3v4h-3l-2-4z"/>
		<path id="Path 704" class="s20" d="m293 588l9-2v1l-1 3-10-2z"/>
		<path id="Path 705" class="s5" d="m347 587v-1h2 5 7v1z"/>
		<path id="Path 706" class="s36" d="m361 587v-1h1 6 3v1z"/>
		<path id="Path 707" class="s47" d="m371 587v-1l8 4 2 3h-2z"/>
		<path id="Path 708" class="s51" d="m379 590l3-4 19 12 2 3v7h-4l-7-5-1-1-1-1-9-8z"/>
		<path id="Path 709" class="s3" d="m390 601h1v1h-1z"/>
		<path id="Path 710" class="s23" d="m517 595v-9h8 8v6l-3 3-9 2z"/>
		<path id="Path 711" class="s18" d="m561 596v-6l5-4 10 1 4 5-3 3-5 3-3 2-5 2z"/>
		<path id="Path 712" class="s5" d="m445 593l-1-5 2 5z"/>
		<path id="Path 713" class="s42" d="m463 592l-7-4 7 3z"/>
		<path id="Path 714" class="s17" d="m580 592l9-4-8 7h-4z"/>
		<path id="Path 715" class="s42" d="m94 597l-1-8h2v6 2z"/>
		<path id="Path 716" class="s20" d="m914 599l5-2-3-7h1l4 2v6z"/>
		<path id="Path 717" class="s33" d="m463 592v-1l2 2z"/>
		<path id="Path 718" class="s1" d="m392 605h-3l-10-12h2l9 8 1 1 1 1z"/>
		<path id="Path 719" class="s42" d="m445 599v-6h1l1 6z"/>
		<path id="Path 720" class="s33" d="m476 598l-10-5 6 2 3 1 1 1z"/>
		<path id="Path 721" class="s5" d="m891 598l-12-5h1l5 1 5 2z"/>
		<path id="Path 722" class="s13" d="m95 597v-2l2 4v2h-2z"/>
		<path id="Path 723" class="s53" d="m100 599v-4l3 3v5l-2 6h-1z"/>
		<path id="Path 724" class="s52" d="m507 597l10-2 4 2v7h-4-10z"/>
		<path id="Path 725" class="s63" d="m521 597l9-2v11l-9-2z"/>
		<path id="Path 726" class="s17" d="m572 598l5-3-1 3z"/>
		<path id="Path 727" class="s85" d="m476 597l-1-1 2 1z"/>
		<path id="Path 728" class="s50" d="m484 599l23-2v7l-4 2h-2l-3-1-5-2h-1l-7-2z"/>
		<path id="Path 729" class="s6" d="m549 613v-9l8-8h4l3 6v1l-6 5h-1l-6 5z"/>
		<path id="Path 730" class="s20" d="m891 598l-1-2 16 3v1z"/>
		<path id="Path 731" class="s33" d="m95 601l-1-4h1z"/>
		<path id="Path 732" class="s4" d="m476 597h1v1h-1z"/>
		<path id="Path 733" class="s85" d="m477 598v-1l2 1h-1z"/>
		<path id="Path 734" class="s25" d="m103 603v-5l3 2 1-2 2 19h-3v-4l-2-4v-3-3z"/>
		<path id="Path 735" class="s4" d="m485 602l-7-4h1l5 1 1 2z"/>
		<path id="Path 736" class="s48" d="m906 599l1-1 3 1-4 1z"/>
		<path id="Path 737" class="s12" d="m97 601v-2h3v10l-3-1z"/>
		<path id="Path 738" class="s96" d="m445 608v-9h2v12h-2z"/>
		<path id="Path 739" class="s5" d="m564 602l5-2-5 3z"/>
		<path id="Path 740" class="s36" d="m96 608l-1-7h2v7z"/>
		<path id="Path 741" class="s24" d="m403 608v-7l8 4-2 3z"/>
		<path id="Path 742" class="s10" d="m485 602v-1l7 2z"/>
		<path id="Path 743" class="s3" d="m392 605v-2l7 5 1 3h-2z"/>
		<path id="Path 744" class="s70" d="m503 606l4-2h10v8l-7-1z"/>
		<path id="Path 745" class="s43" d="m517 612v-8h4l9 2 9 4v6h-4l-17-3h-1z"/>
		<path id="Path 746" class="s7" d="m403 608h6l2-3 6 2 10 4v7l4 4-1 2h-6l-2-1h-2-1l-19-12-1-3z"/>
		<path id="Path 747" class="s42" d="m501 607l-3-2 3 1z"/>
		<path id="Path 748" class="s15" d="m501 607v-1h2l7 5h-2z"/>
		<path id="Path 749" class="s0" d="m101 609l-1 3h-4v-4h1l3 1z"/>
		<path id="Path 750" class="s15" d="m411 620l-8-3-5-6h2l19 12-6-1z"/>
		<path id="Path 751" class="s11" d="m431 622l-4-4v-7l14 3-2 5h-1l-5 3z"/>
		<path id="Path 752" class="s42" d="m442 618l3-7h2l-1 5z"/>
		<path id="Path 753" class="s45" d="m517 613l-9-2h2l7 1z"/>
		<path id="Path 754" class="s5" d="m536 618l-18-5 17 3z"/>
		<path id="Path 755" class="s5" d="m545 616l4-3h2l-2 4-5 1z"/>
		<path id="Path 756" class="s13" d="m536 618l-1-2h4 6l-1 2z"/>
		<path id="Path 757" class="s33" d="m109 617v3h-3v-3z"/>
		<path id="Path 758" class="s42" d="m440 619l2-1-2 2z"/>
		<path id="Path 759" class="s8" d="m433 622l5-3-1 3-3 1h-1z"/>
		<path id="Path 760" class="s45" d="m437 622l1-3h1 1v1z"/>
		<path id="Path 761" class="s34" d="m430 624l1-2h2v1l-1 1z"/>
		<path id="Path 762" class="s33" d="m419 625v-2h1l1 1v1z"/>
		<path id="Path 763" class="s96" d="m421 624l-1-1h2v1z"/>
		<path id="Path 764" class="s8" d="m422 624v-1l2 1z"/>
		<path id="Path 765" class="s17" d="m432 624l1-1h1v2h-2z"/>
		<path id="Path 766" class="s45" d="m421 625v-1h1 2v1z"/>
		<path id="Path 767" class="s14" d="m424 625v-1h6v1z"/>
		<path id="Path 768" class="s45" d="m430 625v-1h2v1z"/>
	</g>
</svg>