<svg version="1.2" xmlns="http://www.w3.org/2000/svg" viewBox="0 0 1000 1000" width="1000" height="1000">
	<title>Ictiobus_niger</title>
	<style>
		.s0 { opacity: .3;fill: #4b6209 } 
		.s1 { fill: #9a9794 } 
		.s2 { fill: #beb190 } 
		.s3 { opacity: .3;fill: #1f26e4 } 
		.s4 { opacity: .3;fill: #264705 } 
		.s5 { opacity: .2;fill: #6d7381 } 
		.s6 { opacity: .6;fill: #708162 } 
		.s7 { opacity: .3;fill: #2c2817 } 
		.s8 { fill: #746d6d } 
		.s9 { opacity: .4;fill: #bc2dcc } 
		.s10 { fill: #b2a68b } 
		.s11 { opacity: .4;fill: #3450ef } 
		.s12 { opacity: .3;fill: #3c7bee } 
		.s13 { fill: #b7a67a } 
		.s14 { opacity: .4;fill: #28f30e } 
		.s15 { fill: #817b7d } 
		.s16 { opacity: .4;fill: #d1bae0 } 
		.s17 { fill: #c0baa1 } 
		.s18 { fill: #c9c6bf } 
		.s19 { fill: #827561 } 
		.s20 { fill: #b4a05f } 
		.s21 { fill: #c3c1b5 } 
		.s22 { fill: #d1cec7 } 
		.s23 { fill: #63564d } 
		.s24 { opacity: .4;fill: #21c713 } 
		.s25 { opacity: 1;fill: #6c5ba7 } 
		.s26 { fill: #c9c3ad } 
		.s27 { fill: #b5b3aa } 
		.s28 { opacity: .7;fill: #715146 } 
		.s29 { opacity: .9;fill: #2b291e } 
		.s30 { fill: #978f84 } 
		.s31 { fill: #9e9789 } 
		.s32 { fill: #988c78 } 
		.s33 { fill: #89793e } 
		.s34 { fill: #a0957c } 
		.s35 { fill: #77ac33 } 
		.s36 { fill: #766a5f } 
		.s37 { fill: #8b774f } 
		.s38 { fill: #aa9e79 } 
		.s39 { fill: #cfcbbb } 
		.s40 { fill: #96896d } 
		.s41 { opacity: 1;fill: #c8cac6 } 
		.s42 { fill: #928364 } 
		.s43 { fill: #887c68 } 
		.s44 { fill: #7d6d53 } 
		.s45 { opacity: 1;fill: #5a4944 } 
		.s46 { fill: #aca99f } 
		.s47 { fill: #8d7f59 } 
		.s48 { fill: #b6ad97 } 
		.s49 { fill: #6d6155 } 
		.s50 { fill: #ae9a61 } 
		.s51 { fill: #a6a194 } 
		.s52 { fill: #918b89 } 
		.s53 { fill: #a79e87 } 
		.s54 { fill: #a4905a } 
		.s55 { fill: #9f916f } 
		.s56 { fill: #8c8377 } 
		.s57 { fill: #a28c52 } 
		.s58 { fill: #9b8a62 } 
		.s59 { fill: #958558 } 
		.s60 { opacity: 1;fill: #523a32 } 
		.s61 { fill: #614d37 } 
		.s62 { fill: #a89768 } 
		.s63 { fill: #34231f } 
		.s64 { fill: #462c25 } 
		.s65 { fill: #968a49 } 
		.s66 { fill: #3c2824 } 
		.s67 { opacity: 1;fill: #47302f } 
		.s68 { fill: #796432 } 
		.s69 { fill: #82796f } 
		.s70 { fill: #716044 } 
		.s71 { opacity: 1;fill: #5b3822 } 
		.s72 { fill: #6d5129 } 
	</style>
	<g id="Background">
		<path id="Path 0" class="s0" d="m505.6 670.4l4.5-3.4-3.4 5.6-10.1-2.2z"/>
		<path id="Path 1" class="s1" d="m505.6 670.4l2.3-11.3h2.2v7.9z"/>
		<path id="Path 2" class="s2" d="m488.8 664.8l2.2-11.3 16.9 5.6-2.3 11.3h-9z"/>
		<path id="Path 3" class="s3" d="m340.3 638.9l13.4-1.1-3.3 3.4-10.2-1.2z"/>
		<path id="Path 4" class="s4" d="m330.1 637.8v-1.1h1.1l9 1.1v1.1 1.1z"/>
		<path id="Path 5" class="s5" d="m461.8 646.8h-3.4l1.1-2.3-10.1-9z"/>
		<path id="Path 6" class="s6" d="m330.1 637.8l-7.9-3.4 7.9 2.3z"/>
		<path id="Path 7" class="s6" d="m704.8 628.8v-1.1h3.3z"/>
		<path id="Path 8" class="s7" d="m690.1 625.4v-1.1l14.6 3.4v1.1z"/>
		<path id="Path 9" class="s2" d="m331.3 626.5l6.7-2.2 9 3.4 1.1 9-7.9 1.1-9-1.1z"/>
		<path id="Path 10" class="s8" d="m347 627.7l4.5-4.5h1.1l2.3 4.5v9l-1.1 1.1-13.6 1.1v-1.1l7.9-1.1z"/>
		<path id="Path 11" class="s8" d="m711.5 627.7l2.3-5.7 6.7 1.2 7.9 2.2v2.3l-4.5 1.1z"/>
		<path id="Path 12" class="s9" d="m690.1 625.4l-11.2-4.5 11.2 3.4z"/>
		<path id="Path 13" class="s10" d="m487.6 628.8l4.5-2.3v-6.7h2.3l4.5 3.4 11.2 35.9h-2.2l-16.9-5.6v-19.1z"/>
		<path id="Path 14" class="s11" d="m411.1 620.9l-6.7-1.1h6.7z"/>
		<path id="Path 15" class="s12" d="m448.3 634.4l-16.9-15.7h4.5z"/>
		<path id="Path 16" class="s13" d="m420.1 619.8l9-1.1-7.9 2.2z"/>
		<path id="Path 17" class="s14" d="m411.1 619.8h9l1.1 1.1h-10.1z"/>
		<path id="Path 18" class="s15" d="m492.1 619.8v-2.3l2.3 2.3z"/>
		<path id="Path 19" class="s16" d="m352.6 618.7l7.9-1.2 2.2 1.2z"/>
		<path id="Path 20" class="s13" d="m308.8 619.8l8.9-2.3 13.5 9v10.2h-1.1l-7.9-2.3-2.2-1.1-7.9-4.5-1.1-1.1-2.3-2.3-2.2-3.4z"/>
		<path id="Path 21" class="s6" d="m311 627.7h1.1v1.1h-1.1z"/>
		<path id="Path 22" class="s17" d="m484.3 617.5l7.8-1.1v1.1 2.3 6.7l-4.5 2.3z"/>
		<path id="Path 23" class="s5" d="m298.6 617.5v-1.1l7.9 5.6 2.2 3.4z"/>
		<path id="Path 24" class="s7" d="m492.1 616.4l4.5-3.3-1.1 5.6 3.4 4.5-4.5-3.4-2.3-2.3z"/>
		<path id="Path 25" class="s9" d="m298.6 617.5l-13.5-4.4 13.5 3.3z"/>
		<path id="Path 26" class="s18" d="m713.8 622l-10.2-6.7v-3.4h3.4l13.5 4.5v6.8z"/>
		<path id="Path 27" class="s3" d="m273.9 611.9v-1.1h5.6l4.5 2.3z"/>
		<path id="Path 28" class="s19" d="m707 611.9l2.3-4.5 6.7 2.3 5.6 2.2-1.1 4.5z"/>
		<path id="Path 29" class="s5" d="m569.8 608.6l14.6-1.2h1.1l-13.5 3.4-18-2.2h4.5z"/>
		<path id="Path 30" class="s11" d="m273.9 611.9l-24.8-4.5h2.3l22.5 3.4z"/>
		<path id="Path 31" class="s3" d="m729.5 613.1v-6.8l-1.1 21.4v-2.3z"/>
		<path id="Path 32" class="s19" d="m461.8 608.6l-2.3-2.3h5.6z"/>
		<path id="Path 33" class="s20" d="m461.8 608.6l4.4 23.6-10.1 3.3-10.1-10.1v-14.6l5.6-4.5h7.9z"/>
		<path id="Path 34" class="s6" d="m245.8 607.4h5.6-2.3z"/>
		<path id="Path 35" class="s12" d="m592.3 606.3l5.6-1.1h4.5 2.2 1.2l-20.3 2.2h-1.1z"/>
		<path id="Path 36" class="s21" d="m716 609.7v-5.6l9 1.1 4.5 7.9-1.1 12.3-7.9-2.2v-6.8l1.1-4.5z"/>
		<path id="Path 37" class="s6" d="m597.9 605.2v-1.1l4.5 1.1z"/>
		<path id="Path 38" class="s13" d="m431.4 618.7l-1.1-11.3 20.2-3.3 1.1 2.2-5.6 4.5v14.6l10.1 10.1 10.2-3.3-4.5-23.6 3.3-2.3 7.9 1.1 11.3 10.1 3.3 11.3 3.4 5.6v19.1l-2.2 11.3h-6.8l1.1-3.4-12.3-7.9-6.8-5.6-2.2-1.1-12.4-11.3-1.1-1.1-12.4-15.7z"/>
		<path id="Path 39" class="s6" d="m604.6 605.2l6.8-1.1-5.7 1.1z"/>
		<path id="Path 40" class="s22" d="m709.3 607.4l-7.9-3.3 1.1-3.4h3.4l4.5 1.1 5.6 2.3v5.6z"/>
		<path id="Path 41" class="s21" d="m592.3 606.3v-6.7h4.5l1.1 4.5v1.1z"/>
		<path id="Path 42" class="s23" d="m710.4 601.8v-3.4l5.6 1.2 9 4.5v1.1l-9-1.1z"/>
		<path id="Path 43" class="s12" d="m623.8 599.6l1.1-1.2 10.1 2.3z"/>
		<path id="Path 44" class="s24" d="m205.3 599.6l1.1-1.2 12.3 2.3z"/>
		<path id="Path 45" class="s25" d="m725 604.1l2.3-6.8 3.3 3.4-1.1 5.6v6.8l-4.5-7.9z"/>
		<path id="Path 46" class="s26" d="m567.5 598.4l24.8 1.2-0.1 6.7-7.8 1.1-14.7 1.2z"/>
		<path id="Path 47" class="s27" d="m558.5 608.6l2.3-11.3 6.7 1.1 2.3 10.2z"/>
		<path id="Path 48" class="s28" d="m201.9 598.4v-1.1h1.1 3.4v1.1l-1.2 1.2z"/>
		<path id="Path 49" class="s4" d="m197.4 598.4v-1.1h4.5v1.1z"/>
		<path id="Path 50" class="s18" d="m716 599.6v-3.4h6.8l4.5 1.1-2.3 6.8z"/>
		<path id="Path 51" class="s19" d="m705.9 600.7l1.1-4.5 3.4 2.2v3.4z"/>
		<path id="Path 52" class="s21" d="m277.3 600.7l-0.1-4.5 18 10.1 13.5 13.5-2.2 2.2-7.9-5.6-13.5-3.3h-1.1l-4.5-2.3z"/>
		<path id="Path 53" class="s29" d="m722.8 596.2l3.3-1.1 1.2 2.2z"/>
		<path id="Path 54" class="s30" d="m702.5 600.7v-5.6h2.3l2.2 1.1-1.1 4.5z"/>
		<path id="Path 55" class="s21" d="m450.5 604.1v-9l32.6 2.2 3.4 4.5h20.3l5.6 10.1-15.8 1.2-4.5 3.3-7.9 1.1-11.2-10.1-7.9-1.1h-5.6-7.9z"/>
		<path id="Path 56" class="s31" d="m333.5 596.2l3.4-1.1 3.4 1.1 11.2 22.5v4.5l-4.5 4.5-9-3.4z"/>
		<path id="Path 57" class="s28" d="m188.4 595.1h6.7l2.3 2.2v1.1l-19.2-2.2h1.2z"/>
		<path id="Path 58" class="s32" d="m174.9 596.2l-3.4-3.4h4.5 3.4v3.4h-1.2z"/>
		<path id="Path 59" class="s33" d="m179.4 592.8l9 2.3-9 1.1z"/>
		<path id="Path 60" class="s28" d="m161.4 595.1v-3.4l10.1 1.1 3.4 3.4z"/>
		<path id="Path 61" class="s6" d="m158 592.8v-1.1h3.4v3.4z"/>
		<path id="Path 62" class="s22" d="m704.8 595.1v-4.5l11.2 3.3v2.3 3.4l-5.6-1.2-3.4-2.2z"/>
		<path id="Path 63" class="s18" d="m340.3 596.2l4.4-5.6h6.8l9 14.6v12.3l-7.9 1.2h-1.1z"/>
		<path id="Path 64" class="s34" d="m191.8 590.6l13.4-1.2-2.2 7.9h-1.1-4.5l-2.3-2.2z"/>
		<path id="Path 65" class="s35" d="m151.3 590.6l6.7 1.1v1.1l-6.8-1.1z"/>
		<path id="Path 66" class="s36" d="m704.8 590.6l-1.2-2.3h3.4l9 2.3v3.3z"/>
		<path id="Path 67" class="s22" d="m639.5 596.2l2.3-7.9h8.9l1.2 3.4h-7.9l2.3 5.6z"/>
		<path id="Path 68" class="s27" d="m266 592.8v-4.5h2.3l8.9 7.9v4.5z"/>
		<path id="Path 69" class="s6" d="m143.4 589.4l7.8 1.2v1.1z"/>
		<path id="Path 70" class="s31" d="m673.3 592.8l-3.4-6.7h9l3.4 1.1 20.2 7.9v5.6l-1.1 3.4 7.9 3.3-2.3 4.5h-3.4v3.4l10.2 6.7-2.3 5.7h-3.4-3.3l-14.7-3.4-11.2-3.4-4.5-2.2-3.4-2.3-4.5-3.3 4.5-5.7z"/>
		<path id="Path 71" class="s1" d="m650.8 588.3l2.2-2.2 20.3 6.7-2.3 14.6-4.5 5.7-9-1.2-11.2-7.8-4.5 1.1-1.2-3.4-3.3-4.5 2.2-1.1 6.8 1.1-2.3-5.6h7.9z"/>
		<path id="Path 72" class="s37" d="m333.5 596.2l-3.4-1.1-1.1-9 7.9 9z"/>
		<path id="Path 73" class="s6" d="m134.4 587.2h9v2.2z"/>
		<path id="Path 74" class="s1" d="m716 590.6l-1.1-6.8 9 3.4 2.2 7.9-3.4 1.1h-6.7v-2.3z"/>
		<path id="Path 75" class="s38" d="m317.8 590.6l3.3-6.8h3.4l4.5 2.3 1.1 9 3.4 1.1 4.5 28.1-6.8 2.2-13.5-9 2.3-8.9z"/>
		<path id="Path 76" class="s10" d="m259.3 589.4l2.2-5.6 4.5 4.5v4.5z"/>
		<path id="Path 77" class="s18" d="m707 588.3l1.1-5.6h2.3l4.5 1.1 1.1 6.8z"/>
		<path id="Path 78" class="s26" d="m596.8 599.6v-10.2l7.8-7.8 19.2 2.2 1.1 14.6-1.1 1.2h-1.2l-11.2 4.5-6.8 1.1h-2.2l-4.5-1.1z"/>
		<path id="Path 79" class="s13" d="m317.8 590.6l-4.6-3.4v-5.6l7.9 2.2z"/>
		<path id="Path 80" class="s6" d="m126.5 584.9l-11.3-3.3 7.9 1.1z"/>
		<path id="Path 81" class="s21" d="m682.3 587.2l6.7-1.1 1.1-6.8h3.4l11.3 2.3 3.3 1.1-1.1 5.6h-3.4l1.2 2.3v4.5h-2.3z"/>
		<path id="Path 82" class="s23" d="m710.4 579.3l9 2.3 1.1-3.4h2.3v1.1l1.1 5.6v2.3l-9-3.4-4.5-1.1z"/>
		<path id="Path 83" class="s39" d="m351.5 590.6l2.3-4.5h20.2l6.8-7.9h27l1.1 3.4h16.9l7.8 4.5h11.3l5.6 9v9l-20.2 3.3 1.1 11.3h-2.3l-9 1.1h-9-6.7l-19.1-1.1h-22.5l-2.3-1.2v-12.3z"/>
		<path id="Path 84" class="s40" d="m898.3 587.2v-10.1h11.2l1.1 11.2z"/>
		<path id="Path 85" class="s19" d="m704.8 581.6v-4.5l4.5 1.1 1.1 1.1v3.4h-2.3z"/>
		<path id="Path 86" class="s22" d="m653 586.1v-9h2.3l13.4 1.1 10.2 7.9h-9l3.4 6.7z"/>
		<path id="Path 87" class="s39" d="m623.8 583.8l10.1-1.1 7.9-5.6h11.2v9l-2.2 2.2h-9l-2.3 7.9-2.2 1.1 3.3 4.5-5.6-1.1-10.1-2.3z"/>
		<path id="Path 88" class="s18" d="m123.1 582.7v-4.5l3.4-1.1 18 2.2-1.1 7.9h-9-2.3l-5.6-2.3z"/>
		<path id="Path 89" class="s18" d="m176 577.1l2.3-1.1 6.7 3.3 6.8 11.3 3.3 4.5h-6.7l-9-2.3h-3.4z"/>
		<path id="Path 90" class="s31" d="m693.5 579.3v-4.5l9 1.2 2.3 1.1v4.5z"/>
		<path id="Path 91" class="s41" d="m144.5 579.3l3.4-4.5 28.1 2.3v15.7h-4.5l-10.1-1.1h-3.4l-6.8-1.1-7.8-1.2v-2.2z"/>
		<path id="Path 92" class="s27" d="m709.3 578.2v-4.5l9 1.1h2.2v3.4l-1.1 3.4-9-2.3z"/>
		<path id="Path 93" class="s42" d="m295.3 606.3l2.2-4.5-12.4-16.9-1.1-11.2 13.5 1.1 15.7 6.8v5.6l4.5 3.4 2.3 18-2.3 8.9-9 2.3z"/>
		<path id="Path 94" class="s40" d="m259.3 589.4l-7.9-5.6v-10.1h7.8l2.3 10.1z"/>
		<path id="Path 95" class="s43" d="m268.3 588.3l7.8-15.7h4.5l3.4 1.1 1.1 11.2 12.4 16.9-2.3 4.5-18-10.1z"/>
		<path id="Path 96" class="s22" d="m126.5 577.1v-4.5l21.4 2.2-3.4 4.5z"/>
		<path id="Path 97" class="s21" d="m115.3 581.6l1.1-9h10.1v4.5l-3.4 1.1v4.5z"/>
		<path id="Path 98" class="s18" d="m702.5 576v-4.5l4.5 1.1 2.3 1.1v4.5l-4.5-1.1z"/>
		<path id="Path 99" class="s44" d="m266 572.6l6.8-1.1 3.3 1.1-7.8 15.7h-2.3l-4.5-4.5-2.3-10.1z"/>
		<path id="Path 100" class="s45" d="m707 572.6l1.1-2.3 10.2 4.5-9-1.1z"/>
		<path id="Path 101" class="s26" d="m352.6 572.6l19.1-2.3h5.7l3.3 7.9-6.7 7.9h-20.3l-2.2 4.5h-6.8l5.7-18z"/>
		<path id="Path 102" class="s17" d="m326.8 571.5l20.2-1.2 3.4 2.3-5.7 18-4.5 5.6-3.3-1.1-7.9-9-4.5-2.3z"/>
		<path id="Path 103" class="s21" d="m407.8 578.2l3.3-9h11.3l3.3 5.6v6.8h-16.8z"/>
		<path id="Path 104" class="s36" d="m821.8 572.6v-4.5l7.8 1.1 1.2 5.6z"/>
		<path id="Path 105" class="s36" d="m702.5 571.5l-2.3-3.4h5.7l2.2 2.2-1.1 2.3z"/>
		<path id="Path 106" class="s1" d="m668.8 578.2l2.2-10.1 9 1.1 13.5 5.6v4.5h-3.4l-1.1 6.8-6.7 1.1-3.4-1.1z"/>
		<path id="Path 107" class="s46" d="m347 570.3l4.5-2.2 1.1 4.5h-2.2z"/>
		<path id="Path 108" class="s1" d="m266 572.6v-4.5h5.6l1.2 3.4z"/>
		<path id="Path 109" class="s26" d="m528.1 570.3l4.5-3.3 4.5 5.6v4.5l6.8 5.6 9 1.1 7.8 13.5-2.2 11.3h-4.5-4.5-2.3l-12.3 1.1h-2.3-3.4-1.1l-6.7 1.1-9 1.1-5.7-10.1h-20.2l-3.4-4.5-32.6-2.2-5.6-9h-11.3l-7.9-4.5v-6.8h18 31.5l5.7 6.8 30.3 2.2 2.3-9z"/>
		<path id="Path 110" class="s27" d="m371.8 570.3l1.1-5.6 4.5 2.3v3.3z"/>
		<path id="Path 111" class="s43" d="m213.1 570.3l9-5.6h3.4l-12.4 9z"/>
		<path id="Path 112" class="s47" d="m898.3 565.8l2.2-2.2 11.3 4.5-2.3 9h-11.2z"/>
		<path id="Path 113" class="s13" d="m532.6 567l2.3-3.4h9l1.1 3.4-7.9 5.6z"/>
		<path id="Path 114" class="s39" d="m225.5 564.7l9-1.1 2.3 6.7 13.4 2.3 1.2 1.1v10.1l7.8 5.6 6.8 3.4 11.3 7.9 2.2 10.1h-5.6l-22.5-3.4h-5.7l-6.7-1.1-10.1-3.4-10.2-2.2-12.3-2.3v-1.1l5.6-10.1 1.1-13.5z"/>
		<path id="Path 115" class="s3" d="m714.9 564.7v-2.2l4.5 2.2 3.4 13.5h-2.3v-3.4l-2.2-9z"/>
		<path id="Path 116" class="s46" d="m707 563.6l1.1-1.1 6.8 2.2 3.4 1.1 2.2 9h-2.3l-10.1-4.5-2.2-2.2z"/>
		<path id="Path 117" class="s21" d="m680 569.2v-7.9h3.4l23.6 2.3-1.1 4.5h-5.7l2.3 3.4v4.5l-9-1.2z"/>
		<path id="Path 118" class="s2" d="m556.3 562.5h11.2l10.1 6.7v3.4l-19.1 2.2-4.5-6.7z"/>
		<path id="Path 119" class="s48" d="m477.5 565.8l2.3-4.5 15.7 2.3 2.3 6.7-9 3.4z"/>
		<path id="Path 120" class="s17" d="m447.1 562.5l19.1-1.2 11.3 4.5 11.2 7.9 9-3.4 12.4 1.2 3.4 3.3-2.3 9-30.3-2.2-5.7-6.8h-31.5v-9z"/>
		<path id="Path 121" class="s17" d="m377.4 567l14.6-5.7 19.1 7.9-3.3 9h-27l-3.4-7.9z"/>
		<path id="Path 122" class="s21" d="m186.1 563.6l7.9-2.3 10.1 2.3 2.3 6.7h6.7v3.4l-1.1 13.5-5.6 10.1h-3.4l2.3-7.9-13.5 1.2-6.8-11.3-6.7-3.3v-5.7z"/>
		<path id="Path 123" class="s49" d="m708.1 562.5l1.1-2.3h3.4l2.3 2.3v2.2z"/>
		<path id="Path 124" class="s26" d="m641.8 563.6l4.5-4.5h9v18h-2.3-11.2z"/>
		<path id="Path 125" class="s17" d="m577.6 572.6l23.6-2.3 6.8-11.2 33.7 4.5v13.5l-7.8 5.6-10.2 1.1-19.1-2.2-7.9 7.8v10.2h-4.5l-24.7-1.2-6.8-1.1-7.8-13.5-9-1.1-6.8-5.6v-4.5l7.9-5.6 9 1.1 4.5 6.7z"/>
		<path id="Path 126" class="s26" d="m234.5 563.6l2.3-4.5 13.4 1.1v12.4l-13.4-2.3z"/>
		<path id="Path 127" class="s27" d="m104 561.3l41.6-2.2 14.6 6.7h13.5l4.5 4.5v5.7l-2.2 1.1-28.1-2.3-21.4-2.2h-10.1l-1.2 9-11.2-5.6v-12.4z"/>
		<path id="Path 128" class="s48" d="m81.5 561.3l4.5-3.3 18 5.6v12.4l-4.5-1.2-3.4-1.1-5.6-2.2-1.1-4.5z"/>
		<path id="Path 129" class="s34" d="m848.8 563.6l7.8-6.8h5.7l23.6 11.3 6.7 9h5.7v10.1l-49.5-10.1z"/>
		<path id="Path 130" class="s3" d="m714.9 558l1.1-1.2 19.1 2.3z"/>
		<path id="Path 131" class="s42" d="m680 561.3l-2.3-4.5h5.7v4.5z"/>
		<path id="Path 132" class="s39" d="m655.3 559.1v-2.3l13.5 2.3 2.2 9-2.2 10.1-13.5-1.1z"/>
		<path id="Path 133" class="s46" d="m422.4 569.2l7.9-12.4h4.5l3.3 9h5.7v9h-18z"/>
		<path id="Path 134" class="s5" d="m709.3 560.2l3.3-4.5 3.4 1.1-1.1 1.2h-3.4l1.1 2.2z"/>
		<path id="Path 135" class="s50" d="m543.9 563.6v-4.5l5.6-3.4 6.8 1.1v5.7l-2.3 5.6-9-1.1z"/>
		<path id="Path 136" class="s44" d="m900.5 563.6v-9h15.8l16.8 21.4v8.9l-5.6 3.4h-16.9l-1.1-11.2 2.2-9z"/>
		<path id="Path 137" class="s51" d="m816.1 560.2l11.3 1.1-1.2-6.7 13.5 2.2 9 6.8v13.5l-18-2.3-1.1-5.6-7.9-1.1z"/>
		<path id="Path 138" class="s26" d="m266 568.1l-2.3-12.4 4.5-1.1 5.7 7.9 7.8 2.2-1.1 7.9h-4.5l-3.4-1.1-1.1-3.4z"/>
		<path id="Path 139" class="s27" d="m186.1 563.6l1.2-9h5.6l1.1 6.7z"/>
		<path id="Path 140" class="s13" d="m572 554.6l4.5 2.2 4.5-3.3 15.8 1.1h11.2v4.5l-6.8 11.2-23.6 2.3v-3.4l-10.1-6.7v-5.7z"/>
		<path id="Path 141" class="s49" d="m794.8 565.8v-13.5h13.5l7.8 7.9 5.7 7.9v4.5z"/>
		<path id="Path 142" class="s52" d="m774.5 553.5l6.8-1.2-3.4 9-12.4-1.1z"/>
		<path id="Path 143" class="s18" d="m204.1 563.6l4.5-7.9 7.9-3.4 6.8 6.8-1.2 5.6-9 5.6h-6.7z"/>
		<path id="Path 144" class="s31" d="m698 551.2l6.8 3.4 4.5-4.5 3.3 5.6-3.3 4.5-1.2 2.3-1.1 1.1-23.6-2.3v-4.5h3.4l1.1-4.5z"/>
		<path id="Path 145" class="s53" d="m434.8 556.8l2.2-6.7 9 2.2 1.1 10.2-3.4 3.3h-5.6z"/>
		<path id="Path 146" class="s17" d="m216.5 552.3v-2.2h11.3l8.9 2.2v6.8l-2.2 4.5-9 1.1h-3.4l1.1-5.6z"/>
		<path id="Path 147" class="s36" d="m781.3 552.3l4.5-3.3 9 3.3v13.5l-16.9-4.5z"/>
		<path id="Path 148" class="s21" d="m677.8 549l2.2-1.2h6.8l1.1 4.5-1.1 4.5h-3.4-5.6z"/>
		<path id="Path 149" class="s54" d="m572 550.1l4.5-2.3 4.5 5.7-4.5 3.3-4.5-2.2z"/>
		<path id="Path 150" class="s51" d="m430.3 556.8l-0.1-9h4.5l2.3 2.3-2.3 6.7z"/>
		<path id="Path 151" class="s46" d="m107.4 550.1l32.6-2.3 33.7 6.8v11.2h-13.5l-14.6-6.7-41.6 2.2-1.1-9z"/>
		<path id="Path 152" class="s31" d="m102.9 552.3l-1.2-4.5h5.7v2.3z"/>
		<path id="Path 153" class="s55" d="m862.3 556.8l2.2-11.2h14.6l5.7 4.5v6.7l4.5 5.7 9 3.3v11.3h-5.7l-6.7-9z"/>
		<path id="Path 154" class="s56" d="m839.8 553.5l5.6-7.9 11.2 4.5v6.7l-7.8 6.8-9-6.8z"/>
		<path id="Path 155" class="s31" d="m363.9 554.6l4.5-9h5.6 5.6l12.4 15.7-14.6 5.7-4.5-2.3z"/>
		<path id="Path 156" class="s30" d="m86 558v-12.4h6.8l8.9 2.2 1.2 4.5 1.1 9v2.3z"/>
		<path id="Path 157" class="s56" d="m77 556.8l2.3-11.2h6.7v12.4l-4.5 3.3z"/>
		<path id="Path 158" class="s10" d="m572 550.1v-6.8h4.5v4.5z"/>
		<path id="Path 159" class="s57" d="m567.5 556.8l-4.5-2.2 1.1-11.3h7.9v6.8 4.5z"/>
		<path id="Path 160" class="s54" d="m522.5 546.7l1.1-3.4 21.4 2.3 4.5 4.5v5.6l-5.6 3.4v4.5h-9l-2.3 3.4-4.5 3.3-7.8-6.7z"/>
		<path id="Path 161" class="s58" d="m880.3 543.3l5.6-2.2h4.5l10.1 13.5v9l-2.2 2.2-9-3.3-4.5-5.7v-6.7l-5.7-4.5z"/>
		<path id="Path 162" class="s20" d="m672.1 543.3l2.3-2.2h5.6v6.7l-2.3 1.2z"/>
		<path id="Path 163" class="s26" d="m656.4 550.1l1.1-9 6.8 5.6h3.3v-3.4h4.5l5.7 5.7v7.8l2.2 4.5v7.9l-9-1.1-2.2-9-13.5-2.3z"/>
		<path id="Path 164" class="s51" d="m307.6 543.3l7.9-2.2 11.2 2.2 10.2 11.3h27l9 10.1-1.2 5.6-19.1 2.3-1.1-4.5-4.5 2.2-20.3 1.2v-5.7l-9-10.1-10.1-4.5z"/>
		<path id="Path 165" class="s34" d="m187.3 554.6l-4.6-4.5v-7.9l6.8-1.1 4.5 3.4-1.1 10.1z"/>
		<path id="Path 166" class="s49" d="m77 556.8l-4.5-6.7v-9h5.6l1.2 4.5z"/>
		<path id="Path 167" class="s46" d="m839.8 553.5l-9-3.4v-3.4h5.6l-5.6-4.5 2.2-2.2 9 2.2 3.4 3.4z"/>
		<path id="Path 168" class="s10" d="m522.5 546.7l-3.4-6.7 4.5 3.3z"/>
		<path id="Path 169" class="s51" d="m133.3 541.1l6.7 2.2 3.4-4.5h12.3l3.4 6.8h12.4l2.2 9-33.7-6.8-32.6 2.3v-2.3l4.5-4.5z"/>
		<path id="Path 170" class="s59" d="m880.3 543.3l2.2-5.6 3.4 3.4z"/>
		<path id="Path 171" class="s2" d="m667.6 543.3l-1.1-5.6 7.9 3.4-2.3 2.2z"/>
		<path id="Path 172" class="s57" d="m545 545.6v-9h6.8v6.7l6.7 5.7-2.3 7.8-6.7-1.1v-5.6z"/>
		<path id="Path 173" class="s49" d="m833 540v-5.6h10.1l-1.1 7.8z"/>
		<path id="Path 174" class="s54" d="m551.8 536.6l4.5-2.2 7.8 8.9-1.1 11.3 4.5 2.2v5.7h-11.2v-5.7l2.2-7.8-6.7-5.7z"/>
		<path id="Path 175" class="s55" d="m428 545.6l-11.3-2.3 0.1-7.8 4.5-1.1 6.7 3.3z"/>
		<path id="Path 176" class="s53" d="m133.3 537.7l10.1-3.3v4.4l-3.4 4.5-6.8-2.2z"/>
		<path id="Path 177" class="s21" d="m738.5 540h5.6l1.2-6.8 4.5 2.3 2.2 6.7 7.9-5.6v5.6l5.6 1.1 9 10.2-9 6.7h-9l-6.8-1.1h-4.5-5.6-3.4-1.1l-19.1-2.3-3.4-1.1-3.3-5.6v-5.6l4.5-1.2 20.2 2.3z"/>
		<path id="Path 178" class="s53" d="m466.3 561.3l-2.3-23.6 6.7-4.5 7.9 4.5 1.1 4.5v19.1l-2.2 4.5z"/>
		<path id="Path 179" class="s50" d="m738.5 540l-1.1-7.9h1.1l6.8 1.1-1.2 6.8z"/>
		<path id="Path 180" class="s50" d="m698 541.1l-2.3-9h4.5l1.2 7.9z"/>
		<path id="Path 181" class="s32" d="m92.8 545.6v-11.2l10.1-2.3 4.5 4.5h18 1.1l6.8 1.1v3.4l-21.4 2.2-4.5 4.5h-5.6z"/>
		<path id="Path 182" class="s17" d="m700.3 532.1l2.2-1.1 6.8 13.5v5.6l-4.5 4.5-6.8-3.4v-10.1l3.4-1.1z"/>
		<path id="Path 183" class="s20" d="m683.4 537.7l1.1-6.7h2.3l1.1 9z"/>
		<path id="Path 184" class="s26" d="m686.8 531l1.1-1.1 2.2 3.3 4.5-2.2 1.2 1.1 2.2 9v10.1l-10.1 1.1-1.1-4.5h-6.8v-6.7-3.4h3.4l4.5 2.3z"/>
		<path id="Path 185" class="s50" d="m666.5 537.7v-7.8l18 1.1-1.1 6.7h-3.4v3.4h-5.6z"/>
		<path id="Path 186" class="s54" d="m657.5 541.1l-2.3-11.2h11.3v7.8l1.1 5.6v3.4h-3.4z"/>
		<path id="Path 187" class="s50" d="m576.5 543.3l1.1-11.2 3.4-2.2 10.1 1.1 5.7 23.6-15.8-1.1-4.5-5.7z"/>
		<path id="Path 188" class="s30" d="m828.5 533.2l-4.5-1.1 1.1-3.4z"/>
		<path id="Path 189" class="s17" d="m713.8 543.3v-12.3l6.7 2.2 3.4-4.5 5.6 9 4.5-2.2v-5.6l3.4 2.2 1.1 7.9-4.5 5.6z"/>
		<path id="Path 190" class="s2" d="m608 554.6v-12.4l5.6-4.5v-9h4.5l1.2 6.8h7.8l3.4 6.7 6.8-2.2 5.6 7.8 13.5 2.3-1.1 6.7v2.3h-9l-4.5 4.5-33.8-4.5z"/>
		<path id="Path 191" class="s10" d="m545 536.6v-7.9h10.1l1.2 5.7-4.5 2.2z"/>
		<path id="Path 192" class="s47" d="m864.5 529.9l13.5-2.3 4.5 10.1-2.3 5.6-1.1 2.3h-14.6z"/>
		<path id="Path 193" class="s46" d="m785.8 546.7v-19.1h4.5l4.5 12.4-4.5 6.7z"/>
		<path id="Path 194" class="s10" d="m694.6 528.7l7.9-1.1v3.4l-2.3 1.1h-4.5l-1.1-1.1z"/>
		<path id="Path 195" class="s54" d="m687.9 529.9v-2.3h3.4l3.3 1.1v2.3l-4.5 2.2z"/>
		<path id="Path 196" class="s2" d="m237.9 532.1l9-4.5 5.6 3.4-2.3 29.2-13.5-1.1v-6.8l-9-2.2 3.4-13.5z"/>
		<path id="Path 197" class="s38" d="m216.5 550.1v-11.3l5.6-11.2h7.9l1.1 9-3.4 13.5z"/>
		<path id="Path 198" class="s34" d="m125.4 528.7l6.7 2.3 3.4-3.4 3.4 1.1-5.7 7.9h-6.7-1.1l-2.3-6.7z"/>
		<path id="Path 199" class="s60" d="m72.5 541.1l5.6-13.5h5.7l-5.7 13.5z"/>
		<path id="Path 200" class="s61" d="m138.9 528.7l1.1-2.2h2.2l4.5 3.4-3.3 4.5-10.2 3.3-6.7-1.1h6.7z"/>
		<path id="Path 201" class="s46" d="m275 527.6l6.8-2.2 6.7 2.2v6.8l4.5 4.4h7.9l6.7 4.5v7.9l10.1 4.5 9.1 10.1v5.7l-2.3 12.3h-3.4l-7.8-2.2-15.8-6.8-13.5-1.1-3.4-1.1 1.2-7.9-7.9-2.2-5.6-7.9v-5.6l6.7-6.8z"/>
		<path id="Path 202" class="s62" d="m230 527.6v-2.2h5.6l2.3 6.7-6.8 4.5z"/>
		<path id="Path 203" class="s48" d="m765.5 543.3l1.1-7.8 7.9-2.3v-9h2.2l9 3.4v19.1 2.3l-4.5 3.3-6.7 1.2z"/>
		<path id="Path 204" class="s54" d="m123.1 529.9l-1.1-5.7h3.4v4.5z"/>
		<path id="Path 205" class="s19" d="m843.1 534.4l1.1-11.3h15.8l4.5 6.8v15.7l-2.3 11.2h-5.6v-6.7l-11.2-4.5-3.4-3.4z"/>
		<path id="Path 206" class="s53" d="m315.5 524.2l4.5-2.2 14.6 4.5h4.5l1.2-3.4 9 4.5h12.3l6.8 18-4.5 9h-27l-10.2-11.3-11.2-2.2z"/>
		<path id="Path 207" class="s63" d="m125.4 524.2l7.8-2.2 2.3 5.6-3.4 3.4-6.7-2.3z"/>
		<path id="Path 208" class="s43" d="m89.4 523.1l6.7-1.1 6.8 3.4v6.7l-10.2 2.3v11.2h-6.7-6.8l-1.1-4.5 5.6-13.5z"/>
		<path id="Path 209" class="s54" d="m707 523.1l14.6-2.2 16.9 1.1v10.1h-1.1l-3.4-2.2v5.6l-4.5 2.2-5.6-9-3.4 4.5-6.7-2.2v12.3l-4.5 1.2-6.8-13.5v-3.4-3.4z"/>
		<path id="Path 210" class="s64" d="m142.3 520.9l-0.1 5.6h-2.2v-5.6z"/>
		<path id="Path 211" class="s48" d="m288.5 527.6l1.1-4.5 7.9-3.4 9 3.4h6.8l2.2 1.1v16.9l-7.9 2.2-6.7-4.5h-7.9l-4.5-4.4z"/>
		<path id="Path 212" class="s58" d="m235.6 525.4v-3.4l5.7-2.3 6.7 3.4-1.1 4.5-9 4.5z"/>
		<path id="Path 213" class="s58" d="m421.3 534.4l-0.1-15.8 9 2.3 4.5 26.9h-4.5l-2.2-2.2v-7.9z"/>
		<path id="Path 214" class="s40" d="m266 525.4l-5.6 2.2-1.2-9h4.5z"/>
		<path id="Path 215" class="s65" d="m313.3 523.1l5.6-5.6 1.1 4.5-4.5 2.2z"/>
		<path id="Path 216" class="s44" d="m89.4 523.1l4.5-5.6 2.2 4.5z"/>
		<path id="Path 217" class="s62" d="m612.5 518.6l14.6-2.2 2.3 11.2 7.9 3.4v9l-6.8 2.2-3.4-6.7h-7.8l-1.2-6.8h-4.5z"/>
		<path id="Path 218" class="s38" d="m479.8 542.2h14.6l7.8-12.3v-10.2l3.4-3.3h31.5l7.9 5.6v6.7 7.9 9l-21.4-2.3-4.5-3.3 3.4 6.7-2.3 16.9 7.9 6.7-14.6 4.5-3.4-3.3-12.4-1.2-2.2-6.7-15.8-2.3z"/>
		<path id="Path 219" class="s53" d="m281.8 525.4l-0.1-9h13.5l2.3 3.3-7.9 3.4-1.1 4.5z"/>
		<path id="Path 220" class="s53" d="m155.8 538.8l5.6-8.9 12.3-2.3v-11.2h10.2l5.6 13.5v11.2l-6.8 1.1v7.9l4.5 4.5-1.1 9-7.9 6.7-4.5-4.5v-11.2l-2.2-9h-12.4z"/>
		<path id="Path 221" class="s31" d="m146.8 529.9l19.1-13.5h7.8v11.2l-12.3 2.3-5.7 8.9h-12.3v-4.4z"/>
		<path id="Path 222" class="s57" d="m122 524.2l3.4-7.8h11.2l3.4 4.5v5.6l-1.1 2.2-3.4-1.1-2.2-5.6-7.9 2.2z"/>
		<path id="Path 223" class="s62" d="m738.5 522l5.6-2.3 1.2-4.5h4.5 10.1l4.5 6.8 10.1 2.2v9l-7.9 2.3-1.1 7.8-5.6-1.1v-5.6l-7.9 5.6-2.2-6.7-4.5-2.3-6.8-1.1z"/>
		<path id="Path 224" class="s59" d="m687.9 527.6l-3.4-2.2 1.1-10.2h5.7v12.4z"/>
		<path id="Path 225" class="s38" d="m581 529.9v-12.4l15.8-3.4 2.2 4.5h13.5l1.1 10.1v9l-5.6 4.5v12.4h-11.3l-5.6-23.6z"/>
		<path id="Path 226" class="s27" d="m248 523.1l5.6-2.2v-6.8h3.4l2.3 4.5 1.1 9 5.6-2.2 9 2.2v14.6l-6.7 6.8v5.6l-4.5 1.1 2.2 12.4v4.5l-6.7 1.1h-7.9l-1.1-1.1v-12.4l2.2-29.2-5.6-3.4z"/>
		<path id="Path 227" class="s38" d="m745.3 515.2l1.1-2.2h3.4v2.2z"/>
		<path id="Path 228" class="s38" d="m627.1 516.4l12.4-3.4 6.7 10.1h9v6.8l2.3 11.2-1.1 9-13.5-2.3-5.7-7.8v-9l-7.8-3.4z"/>
		<path id="Path 229" class="s55" d="m759.9 513l5.6-1.1 9 2.2 2.3 10.1h-2.3l-10.1-2.2-4.5-6.8z"/>
		<path id="Path 230" class="s31" d="m263.8 518.6l4.4-6.7 13.5 4.5v9l-6.7 2.2-9-2.2z"/>
		<path id="Path 231" class="s59" d="m241.3 519.7l-0.1-7.8h11.3l1.1 2.2v6.8l-5.6 2.2z"/>
		<path id="Path 232" class="s46" d="m183.9 516.4l1.1-4.5 19.1 2.2 3.4 3.4-1.1 14.6-12.4 12.4-4.5-3.4v-11.2z"/>
		<path id="Path 233" class="s49" d="m878 518.6l2.3-7.9 25.8 24.8 7.9 14.6h3.4l-1.2 4.5h-15.7l-10.1-13.5h-4.5l-3.4-3.4-4.5-10.1z"/>
		<path id="Path 234" class="s23" d="m785.8 511.9v-2.3l9 3.4 1.1 11.2 9 6.8 3.4 21.3h-13.5l-9-3.3v-2.3h4.5l4.5-6.7-4.5-12.4z"/>
		<path id="Path 235" class="s10" d="m749.8 513l3.3-3.4 6.8 3.4v2.2h-10.1z"/>
		<path id="Path 236" class="s58" d="m707 510.7l6.8-1.1 6.7 3.4 1.1 7.9-14.6 2.2z"/>
		<path id="Path 237" class="s31" d="m306.5 523.1v-13.5h7.9l4.5 7.9-5.7 5.6z"/>
		<path id="Path 238" class="s55" d="m691.3 515.2l2.2-7.8 13.5 3.3v12.4l-4.5 1.1v3.4l-7.9 1.1-3.3-1.1z"/>
		<path id="Path 239" class="s40" d="m295.3 516.4l-0.1-9h2.3l9 2.2v13.5l-9-3.4z"/>
		<path id="Path 240" class="s55" d="m662 507.4l3.4-1.2 16.9 4.5 3.3 4.5-1.1 10.2 3.4 2.2v2.3l-1.1 1.1h-2.3l-18-1.1h-11.2v-6.8z"/>
		<path id="Path 241" class="s21" d="m252.5 511.9l-1.1-5.7h4.5l1.1 7.9h-3.4z"/>
		<path id="Path 242" class="s40" d="m230 525.4v-20.3h4.5l6.8 6.8v7.8l-5.7 2.3v3.4z"/>
		<path id="Path 243" class="s49" d="m102.9 513l12.3-9 15.8 1.1 3.4 4.5h5.6l2.2 11.3h-2.2l-3.4-4.5h-11.2l-3.4 7.8 1.1 5.7 2.3 6.7h-18l-4.5-4.5v-6.7l-6.8-3.4-2.2-4.5z"/>
		<path id="Path 244" class="s51" d="m185 511.9v-9h11.3l12.3 1.1 3.4 5.6h6.7l3.4 18-5.6 11.2v11.3 2.2l-7.9 3.4-4.5 7.9-10.1-2.3-1.1-6.7 1.1-10.1 12.4-12.4 1.1-14.6-3.4-3.4z"/>
		<path id="Path 245" class="s19" d="m878 518.6l-12.4-1.1-4.5-4.5v-9l10.2-2.3 9 9z"/>
		<path id="Path 246" class="s37" d="m745.3 502.9v-1.2l9 1.2-1.2 6.7-3.3 3.4h-3.4z"/>
		<path id="Path 247" class="s40" d="m765.5 511.9v-11.3h4.5l5.6 9 10.2 2.3 4.5 15.7h-4.5l-9-3.4-2.3-10.1z"/>
		<path id="Path 248" class="s42" d="m754.3 502.9l11.2-2.3v11.3l-5.6 1.1-6.8-3.4z"/>
		<path id="Path 249" class="s30" d="m218.8 509.6l-0.1-9h6.8l4.5 4.5v20.3 2.2h-7.9z"/>
		<path id="Path 250" class="s23" d="m131 502.9l18-2.3-1.1 4.5-7.9 4.5h-5.6l-3.4-4.5z"/>
		<path id="Path 251" class="s32" d="m173.8 516.4l-0.1-16.9 7.9-1.1 3.4 4.5v9l-1.1 4.5z"/>
		<path id="Path 252" class="s66" d="m78.1 527.6l4.5-13.5 13.5-13.5 6.8-2.2v14.6l-9 4.5-4.5 5.6-5.6 4.5z"/>
		<path id="Path 253" class="s47" d="m713.8 500.6l4.5-4.5 6.7 5.6 10.1-2.2 2.3 3.4h7.9l1.1 10.1-1.1 2.2-1.2 4.5-5.6 2.3-16.9-1.1-1.1-7.9-6.7-3.4z"/>
		<path id="Path 254" class="s47" d="m234.5 505.1v-9h13.5l3.4 10.1 1.1 5.7h-11.3z"/>
		<path id="Path 255" class="s42" d="m694.6 497.3l9-3.4 3.4 5.6 6.7 1.1v9l-6.7 1.1-13.5-3.3z"/>
		<path id="Path 256" class="s37" d="m654.1 502.9v-9l4.5 2.2 6.8 10.1-3.4 1.2z"/>
		<path id="Path 257" class="s42" d="m255.9 506.2l2.2-12.3 5.6 1.1 4.5 16.9-4.5 6.7h-4.5l-2.2-4.5z"/>
		<path id="Path 258" class="s1" d="m196.3 502.9l-0.1-5.6 4.5-3.4h10.2l7.8 6.7v9h-6.7l-3.4-5.6z"/>
		<path id="Path 259" class="s56" d="m225.5 500.6v-6.7l4.5-1.1 4.5 3.3v9h-4.5z"/>
		<path id="Path 260" class="s67" d="m102.9 498.4l11.2-5.6 1.1 11.2-12.3 9z"/>
		<path id="Path 261" class="s68" d="m641.8 495v-3.4l12.3 2.3v9h-5.6z"/>
		<path id="Path 262" class="s47" d="m314.4 509.6l1.1-18h12.4l7.9 6.8v18l4.5 2.2v4.5l-1.2 3.4h-4.5l-14.6-4.5-1.1-4.5z"/>
		<path id="Path 263" class="s45" d="m131 502.9l2.3-11.3h14.6l4.5 5.7-3.4 3.3z"/>
		<path id="Path 264" class="s56" d="m770 500.6l-1.1-11.2h3.4l4.5 7.9 6.7 1.1 2.3 11.2v2.3l-10.2-2.3z"/>
		<path id="Path 265" class="s33" d="m629.4 491.6l6.7-2.2 5.7 2.2v3.4l-2.3 3.4h-6.7l-3.4-5.6z"/>
		<path id="Path 266" class="s58" d="m599 493.9l7.9-4.5 4.5 5.6 13.5-2.2h4.5l3.3 5.6h6.8l2.3-3.4 6.7 7.9h5.6l7.9 4.5-6.8 15.7h-8.9l-6.8-10.1-12.4 3.4-14.6 2.2h-13.5l-2.3-4.5-4.5-18z"/>
		<path id="Path 267" class="s47" d="m371.8 518.6h-7.9l-10.2-7.9-9-14.6v-9l20.3 2.3 2.2-2.3 9 2.3v15.7z"/>
		<path id="Path 268" class="s59" d="m298.6 491.6l10.1-4.5 6.8 4.5-1.1 18h-7.9l-9-2.2z"/>
		<path id="Path 269" class="s1" d="m164.8 488.3l3.3-1.2 2.3 10.2-12.4 12.3h-6.8l-3.3-4.5 1.1-4.5 3.4-3.3z"/>
		<path id="Path 270" class="s59" d="m588.9 488.3l7.9-2.3 2.2 7.9-6.7 2.2-3.4-4.5z"/>
		<path id="Path 271" class="s69" d="m772.3 489.4v-4.5l12.3 2.2-1.1 11.3-6.7-1.1z"/>
		<path id="Path 272" class="s70" d="m745.3 486l14.6-1.1 9 4.5 1.1 11.2h-4.5l-11.2 2.3-9-1.2z"/>
		<path id="Path 273" class="s42" d="m624.9 492.8v-7.9h3.4l1.1 6.7v1.2z"/>
		<path id="Path 274" class="s58" d="m295.3 507.4l-14.7-4.5-5.6-18 18 1.1 5.6 5.6-1.1 15.8z"/>
		<path id="Path 275" class="s43" d="m842 487.1h14.6l12.4-4.5 7.9 2.3-5.7 16.8-10.1 2.3v9l4.5 4.5 12.4 1.1v9l-13.5 2.3-4.5-6.8h-15.8l-5.6-2.2-1.1-12.4 4.5-2.3z"/>
		<path id="Path 276" class="s55" d="m263.8 495l-0.1-12.4 11.3 2.3 5.6 18 14.6 4.5v9h-13.5l-13.5-4.5z"/>
		<path id="Path 277" class="s69" d="m837.5 508.5l-13.5-6.8-2.3-20.2 6.8-1.1 4.5 5.6 9 1.1v19.1z"/>
		<path id="Path 278" class="s69" d="m810.5 507.4h-4.5l-6.8-11.3-5.6-2.2-1.1-13.5h4.5l15.8 12.4z"/>
		<path id="Path 279" class="s48" d="m258.1 493.9l-1.1-13.5h4.5l2.2 2.2v12.4z"/>
		<path id="Path 280" class="s36" d="m784.6 487.1v-6.7l3.4-1.1 4.5 1.1 1.1 13.5 5.6 2.2 6.8 11.3h4.5l2.2 6.7 5.7 1.1-2.3 6.8 7.9 2.2 1.1 4.5-1.1 3.4 4.5 1.1 4.5 1.2v5.6l-2.3 2.2 5.7 4.5h-5.7v3.4l9 3.4v3.3l-13.5-2.2 1.2 6.7-11.3-1.1-7.9-7.9-3.3-21.3-9-6.8-1.2-11.2-9-3.4-2.2-11.2z"/>
		<path id="Path 281" class="s40" d="m636.1 489.4l1.1-10.1h2.3l2.2 12.3z"/>
		<path id="Path 282" class="s71" d="m677.8 484.9l-9 4.5-1.2-6.8 3.4-4.5h6.8z"/>
		<path id="Path 283" class="s55" d="m477.5 480.4l7.9-2.3 2.2 4.5h5.6l2.3 4.5h6.8l1.1 12.4 6.7 1.1 7.9-2.2 9-11.3 42.8 2.3 19.1 2.2 3.4 4.5 4.5 18-15.8 3.4v12.4l-3.4 2.2-1.1 11.2h-4.5-7.9l-7.8-8.9-1.2-5.7h-10.1v-6.7l-7.9-5.6h-31.5l-3.3 3.3v10.2l-7.9 12.3h-14.6l-1.2-4.5-7.8-4.5v-19.1l3.3-2.2v-6.8l3.4-2.2v-18z"/>
		<path id="Path 284" class="s69" d="m230 492.8v-14.7h3.4 2.2l7.9 6.8 4.5 11.2h-13.5z"/>
		<path id="Path 285" class="s49" d="m757.6 478.1l10.1-1.1 4.5 2.3v5.6 4.5h-3.3l-9-4.5z"/>
		<path id="Path 286" class="s72" d="m689 480.4h7.9l1.1 4.5h5.6l11.3-7.9 11.2 3.4 3.4-3.4 11.3 3.4 4.4 5.6v15.7 1.2h-7.8l-2.3-3.4-10.1 2.2-6.8-5.6-4.5 4.5-6.7-1.1-3.4-5.6-9 3.4-5.6-6.8z"/>
		<path id="Path 287" class="s70" d="m677.8 478.1l11.2 2.3v10.1l-7.9 1.1-3.3-6.7z"/>
		<path id="Path 288" class="s72" d="m628.3 484.9l5.6-7.9 3.4 2.3-1.2 10.1-6.7 2.2z"/>
		<path id="Path 289" class="s68" d="m477.5 484.9l-5.6-1.1 1.1-6.8 4.5 3.4z"/>
		<path id="Path 290" class="s58" d="m398.8 491.6l2.2-15.7h4.5l7.9 9v7.9z"/>
		<path id="Path 291" class="s58" d="m344.8 487.1l1.1-11.2 19.1 2.2 2.2 9-2.2 2.3z"/>
		<path id="Path 292" class="s42" d="m574.3 475.9l7.8-1.1 6.8 13.5v3.3l-19.1-2.2v-13.5z"/>
		<path id="Path 293" class="s60" d="m114.1 492.8l29.3-18 4.5 6.7 16.9 6.8-12.4 9-4.5-5.7h-14.6l-2.3 11.3v2.2l-15.7-1.1z"/>
		<path id="Path 294" class="s56" d="m772.3 479.3l2.2-5.7h2.3 9l2.2 5.7-3.4 1.1v6.7l-12.3-2.2z"/>
		<path id="Path 295" class="s44" d="m662 480.4h4.5l2.3-6.8 2.2 4.5-3.4 4.5 1.1 6.8 9.1-4.5 3.3 6.7 7.9-1.1 5.6 6.8-1.1 10.1-2.2 7.8h-5.7l-3.3-4.5-16.9-4.5-6.8-10.1z"/>
		<path id="Path 296" class="s72" d="m639.5 478.1l9-4.5 10.1 2.3 3.4 4.5-3.4 15.7-4.5-2.2-12.3-2.3-2.3-12.3z"/>
		<path id="Path 297" class="s58" d="m502.3 487.1l7.8-5.6 3.4-7.9 12.4 1.2 1.1 12.3-9 11.3-7.9 2.2-6.7-1.1z"/>
		<path id="Path 298" class="s30" d="m168.1 487.1l18-12.3 7.9-1.2 1.1 7.9 5.7 3.4v9l-4.5 3.4v5.6h-11.3l-3.4-4.5-7.8 1.1v16.9h-7.9l-19.1 13.5-4.5-3.4v-5.6l-2.3-11.3 7.9-4.5 3.4 4.5h6.7l12.4-12.3z"/>
		<path id="Path 299" class="s23" d="m767.8 477v-4.5l6.7 1.1-2.2 5.7z"/>
		<path id="Path 300" class="s66" d="m729.5 472.5l11.3-1.1-0.1 9-11.2-3.4z"/>
		<path id="Path 301" class="s34" d="m468.5 471.4l18-1.1-1.1 7.8-7.9 2.3-4.5-3.4-1.1 6.8 5.6 1.1v18l-3.4 2.2-6.7-19.1z"/>
		<path id="Path 302" class="s61" d="m740.8 471.4l13.5-2.3v6.8l3.3 2.2 2.3 6.8-14.6 1.1-4.5-5.6z"/>
		<path id="Path 303" class="s71" d="m632.8 474.8l-6.8 1.1v-6.8h7.9z"/>
		<path id="Path 304" class="s32" d="m599 471.4l3.4-2.3 3.4 4.5-6.8 4.5z"/>
		<path id="Path 305" class="s68" d="m574.3 475.9v-6.8h19.1l5.6 2.3v6.7l6.8-4.5h4.5l14.6 11.3v7.9l-13.5 2.2-4.5-5.6-7.9 4.5-2.2-7.9-7.9 2.3-6.8-13.5z"/>
		<path id="Path 306" class="s60" d="m754.3 469.1l11.2-1.1 2.3 4.5v4.5l-10.2 1.1-3.3-2.2z"/>
		<path id="Path 307" class="s34" d="m365 478.1l2.3-5.6 11.2-4.5 9 1.1 5.6 2.3 5.7-2.3 2.2 6.8-2.2 15.7-2.3 7.9 3.4 2.2v6.8l19.1 1.1 2.2 9v15.8l-4.5 1.1v7.8l11.3 2.3 2.2 2.2v9l-7.8 12.4h-11.3l-19.1-7.9-12.4-15.7h-5.6l-2.2-27 4.5-13.5v-15.7l-9-2.3z"/>
		<path id="Path 308" class="s52" d="m765.5 468l5.6-1.1 5.7 6.7h-2.3l-6.8-1.1z"/>
		<path id="Path 309" class="s56" d="m633.9 469.1l2.2-2.2 3.4 11.2v1.2h-2.2l-3.4-2.3-1.1-2.2z"/>
		<path id="Path 310" class="s42" d="m493.3 482.6l4.4-14.6 3.4-1.1h5.6l6.8 6.7-3.4 7.9-7.9 5.6h-6.7z"/>
		<path id="Path 311" class="s17" d="m236.8 469.1l2.2-2.2 9 4.5 3.4 9h5.6l1.1 13.5-2.2 12.3h-4.5l-3.4-10.1-4.5-11.2-7.9-6.8z"/>
		<path id="Path 312" class="s52" d="m194 473.6l7.9-6.7h10.1l18 11.2v14.7l-4.5 1.1v6.7h-6.8l-7.8-6.7h-10.2v-9l-5.6-3.4z"/>
		<path id="Path 313" class="s55" d="m387.5 469.1l4.5-5.6h4.5l2.3 5.6-5.7 2.3z"/>
		<path id="Path 314" class="s51" d="m225.5 469.1l6.8-5.6 1.1 5.6h3.4l-1.2 9h-2.2z"/>
		<path id="Path 315" class="s72" d="m594.5 465.8l4.5-1.2-1.1-3.3h5.6l1.1 3.3h5.7v9h-4.5l-3.4-4.5-3.4 2.3-5.6-2.3z"/>
		<path id="Path 316" class="s33" d="m558.5 464.6l3.4-3.3 12.3 2.2v5.6 6.8h-4.5l-7.8-1.1z"/>
		<path id="Path 317" class="s56" d="m797 464.6l11.3-4.4 8.9 1.1 18-1.1h9l5.7 6.7 14.6 2.2 4.5 5.7v7.8l-12.4 4.5h-14.6l-9-1.1-4.5-5.6-6.8 1.1 2.3 20.2 13.5 6.8 1.1 12.4 5.6 2.2-1.1 11.3h-10.1l-4.5-1.2-3.4-4.5-1.1-4.5-7.9-2.2 2.3-6.8-5.7-1.1-2.2-6.7 2.3-14.6-15.8-12.4z"/>
		<path id="Path 318" class="s23" d="m771.1 466.9l13.5-6.7 1.1 13.4h-9z"/>
		<path id="Path 319" class="s66" d="m665.4 460.2h9v5.6l-5.6 2.2-3.4-1.1z"/>
		<path id="Path 320" class="s71" d="m611.4 460.2l5.6-1.2h4.5v6.8l-3.4 6.7h-3.3z"/>
		<path id="Path 321" class="s63" d="m674.4 460.2l6.7-2.3 2.3 4.5 14.6 7.9 14.6 3.3 16.9-1.1v4.5l-3.4 3.4-11.2-3.4-11.3 7.9h-5.6l-1.1-4.5h-7.9l-11.2-2.3h-6.8l-2.2-4.5v-5.6l5.6-2.2z"/>
		<path id="Path 322" class="s34" d="m594.5 459l3.4-1.1v3.4l1.1 3.3-4.5 1.2z"/>
		<path id="Path 323" class="s40" d="m537.1 462.4l6.8-4.5h3.3l4.5 2.3 6.8 4.4 3.4 10.2 7.8 1.1v13.5l-42.7-2.3-1.1-12.3 7.8-5.7h3.4z"/>
		<path id="Path 324" class="s40" d="m486.5 470.3v-12.4l13.5 1.1 1.1 7.9-3.4 1.1-4.5 14.6h-5.6l-2.2-4.5z"/>
		<path id="Path 325" class="s49" d="m784.6 460.2l5.6-3.4 6.8 7.8v15.8h-4.5l-4.5-1.1-2.3-5.7z"/>
		<path id="Path 326" class="s43" d="m603.5 461.3l1.1-4.5 6.8 3.4 3.4 12.3h3.3l3.4-6.7 4.5 3.3v6.8l6.8-1.1 1.1 2.2-5.6 7.9h-3.4l-14.7-11.3v-9h-5.6z"/>
		<path id="Path 327" class="s34" d="m533.8 469.1l-2.3-7.8 5.6-4.5v5.6 6.7z"/>
		<path id="Path 328" class="s71" d="m547.3 457.9l2.2-2.2h2.3v4.5z"/>
		<path id="Path 329" class="s58" d="m468.5 461.3l9-5.6h6.8l2.2 2.2v12.4l-18 1.1z"/>
		<path id="Path 330" class="s19" d="m232.3 460.2l3.3-4.5 4.5 1.1-1.1 10.1-2.3 2.2h-3.3l-1.2-5.6z"/>
		<path id="Path 331" class="s72" d="m538.3 455.7l5.6-1.2v3.4l-6.8 4.5v-5.6z"/>
		<path id="Path 332" class="s56" d="m210.9 455.7l7.8-1.2 4.5 2.3 1.2-2.3 7.8 5.7v3.3l-6.7 5.6-9-1.1-6.8-6.7z"/>
		<path id="Path 333" class="s19" d="m871.3 466.9l13.5-2.3 6.7-11.2h2.3l-16.9 31.5-7.9-2.3v-7.8l-4.5-5.7v-2.2z"/>
		<path id="Path 334" class="s2" d="m250.3 461.3l11.2-7.9 2.2 6.8-2.2 20.2h-4.5-5.6l-3.4-9z"/>
		<path id="Path 335" class="s10" d="m242.4 454.5l6.7-2.2 1.1 9-2.2 10.1-9-4.5 1.1-10.1z"/>
		<path id="Path 336" class="s44" d="m235.6 455.7l3.4-3.4 3.4 2.2-2.3 2.3z"/>
		<path id="Path 337" class="s49" d="m201.9 466.9l2.2-14.6h3.4l3.4 3.4-1.2 5.6 6.8 6.7 9 1.1 7.9 9h-3.4l-18-11.2z"/>
		<path id="Path 338" class="s64" d="m621.5 459l2.3-7.8 41.6 9v6.7l3.3 1.1v5.6l-2.2 6.8h-4.5l-3.4-4.5-10.1-2.3-9 4.5-3.4-11.2-2.2 2.2h-7.9l-4.5-3.3z"/>
		<path id="Path 339" class="s67" d="m152.4 468l3.3 4.5 13.5 1.1 12.4-10.1 1.1-6.7 6.8-5.6 14.6 1.1-2.2 14.6-7.9 6.7-7.9 1.2-18 12.3-3.4 1.2-16.8-6.8-4.5-6.7z"/>
		<path id="Path 340" class="s30" d="m817.3 450l15.7-1.1 2.3 11.3-18 1.1z"/>
		<path id="Path 341" class="s69" d="m790.3 456.8l13.5-7.9 4.5 11.3-11.3 4.4z"/>
		<path id="Path 342" class="s71" d="m721.6 457.9l-9-9 10.1 3.4z"/>
		<path id="Path 343" class="s66" d="m617 459v-10.1h4.5l2.3 2.3-2.3 7.8z"/>
		<path id="Path 344" class="s70" d="m426.9 455.7l-1.1-6.8h4.5v5.6z"/>
		<path id="Path 345" class="s38" d="m376.3 451.2l-0.1-2.3h9l6.8 4.5v10.1l-4.5 5.6-9-1.1z"/>
		<path id="Path 346" class="s44" d="m576.5 451.2l5.6-3.4v6.7l4.5-1.1 2.3 4.5 5.6 1.1v6.8l-1.1 3.3h-19.1v-5.6z"/>
		<path id="Path 347" class="s34" d="m421.3 450l-0.1-2.2h2.3l2.2 1.1 1.2 6.8-2.3 5.6z"/>
		<path id="Path 348" class="s69" d="m708.1 463.5l-3.4-6.7 4.5-5.6-6.7-4.5 10.1 2.2 9 9z"/>
		<path id="Path 349" class="s70" d="m534.9 448.9l3.4-2.2h2.2l-2.2 6.7z"/>
		<path id="Path 350" class="s55" d="m306.5 452.3l13.5-5.6h4.5l3.4 4.5h12.3l7.9 10.1h3.4l4.5-12.4 2.2-1.1 3.4 3.4h14.6l2.3 16.8-11.3 4.5-2.2 5.6-19.1-2.2-1.1 11.2v9l9 14.6 10.1 7.9h7.9l2.2 27h-5.6l-6.8-18h-12.3l-9-4.5v-4.5l-4.5-2.2v-18l-7.9-6.8h-12.4l-6.7-4.5z"/>
		<path id="Path 351" class="s56" d="m290.8 447.8l2.2-1.1h4.5l2.2 2.2-1.1 6.8-5.6 1.1z"/>
		<path id="Path 352" class="s45" d="m207.5 452.3l2.3-5.6h8.9v7.8l-7.8 1.2z"/>
		<path id="Path 353" class="s61" d="m558.5 447.8l3.4-2.3 2.2 3.4 12.4 2.3-2.3 12.3-12.3-2.2-3.4 3.3-6.8-4.4v-4.5l6.8-3.4z"/>
		<path id="Path 354" class="s10" d="m286.3 447.8l3.3-2.3 1.1 2.3 2.3 9 5.6-1.1 1.1-6.8 4.5-3.4 2.3 6.8 2.2 34.8-10.1 4.5-5.6-5.6-18-1.1-11.3-2.3-2.2-2.2 2.2-20.2 7.9-1.2 1.1-5.6 11.3 2.3z"/>
		<path id="Path 355" class="s56" d="m540.5 446.7l3.4-2.3 5.6 11.3-2.2 2.2h-3.4v-3.4l-5.6 1.2v-2.3z"/>
		<path id="Path 356" class="s60" d="m218.8 446.7l4.4-2.3 1.2 10.1-1.2 2.3-4.5-2.3z"/>
		<path id="Path 357" class="s19" d="m803.8 448.9l10.1-5.6 3.4 6.7v11.3l-9-1.1z"/>
		<path id="Path 358" class="s51" d="m613.6 445.5l7.9-3.3v6.7h-4.5z"/>
		<path id="Path 359" class="s53" d="m421.3 447.8l-2.3-5.6h3.4l1.1 5.6z"/>
		<path id="Path 360" class="s62" d="m320 446.7l2.3-4.5 2.2 4.5z"/>
		<path id="Path 361" class="s34" d="m275 448.9h4.5l1.1-6.7h4.5l1.1 5.6-2.2 7.9-11.3-2.3z"/>
		<path id="Path 362" class="s40" d="m385.3 445.5l6.7-4.5 4.5 3.4 10.1-2.2 5.6 4.5 1.2 14.6 7.8 3.3 3.4-3.3 2.3-5.6 3.3-1.2v-5.6l2.3-2.2 4.5 10.1 13.5-1.1 3.4-7.9h4.5l10.1 13.5v10.1l-1.1 14.6 6.7 19.1v6.8l-3.4 2.2v19.1l-6.7 4.5 2.2 23.6-19.1 1.2-1.1-10.2-9-2.2-2.3-2.3-4.5-26.9-9-2.3-2.2-9-19.1-1.1v-6.8l-3.4-2.2 2.2-7.9 14.7 1.2v-7.9l-7.9-9h-4.5l-2.3-6.8-2.2-5.6h-4.5v-10.1l-6.8-4.5z"/>
		<path id="Path 363" class="s43" d="m376.3 442.2l2.2-1.2 6.7 4.5v3.4h-9z"/>
		<path id="Path 364" class="s37" d="m432.5 442.2l3.4-2.3 15.7 3.4 2.3 4.5-3.4 7.9-13.5 1.1-4.5-10.1z"/>
		<path id="Path 365" class="s55" d="m406.6 442.2l3.4-2.3 6.7 10.1h4.5l3.4 11.3-3.4 3.3-7.8-3.3-1.2-14.6z"/>
		<path id="Path 366" class="s62" d="m340.3 451.2l2.2-11.3h3.4l3.3 9h6.8l-4.5 12.4h-3.4z"/>
		<path id="Path 367" class="s19" d="m262.6 439.9l3.4-1.1 4.5 1.1 4.5 2.3v6.7l-2.3 4.5-1.1 5.6-7.9 1.2-2.2-6.8z"/>
		<path id="Path 368" class="s56" d="m864.5 466.9v-25.9l4.5-3.3 4.5 2.2-2.3 27z"/>
		<path id="Path 369" class="s60" d="m676.6 439.9l-5.6 4.5 2.2-6.7z"/>
		<path id="Path 370" class="s66" d="m531.5 443.3l2.3-5.6h4.5v9l-3.4 2.2z"/>
		<path id="Path 371" class="s53" d="m293 439.9l4.5-2.2v9h-4.5z"/>
		<path id="Path 372" class="s23" d="m223.3 444.4l1.1-4.5h6.7l2.3-3.4 5.6 3.4v12.4l-3.4 3.4-3.4 4.5-7.8-5.7z"/>
		<path id="Path 373" class="s64" d="m152.4 468l20.2-18 31.5-13.5 5.6 10.2-2.2 5.6h-3.4l-14.6-1.1-6.8 5.6-1.1 6.7-12.4 10.1-13.5-1.1z"/>
		<path id="Path 374" class="s71" d="m432.5 442.2l-1.1-6.8 4.5 4.5z"/>
		<path id="Path 375" class="s44" d="m322.3 442.2l1.1-6.8h9l10.1 4.5-2.3 11.3h-12.3l-3.4-4.5z"/>
		<path id="Path 376" class="s27" d="m597.9 436.5l9-2.2 1.1 4.5h4.5v5.6l-7.9 1.1-7.8-4.5z"/>
		<path id="Path 377" class="s44" d="m487.6 435.4l9-1.1 2.3 3.4h7.8l5.7 5.6 7.8-2.3h3.4v7.9h3.4l2.2-5.6h2.3l3.4 5.6 3.3 4.5v2.3l-1.1 1.1-5.6 4.5 2.2 7.8-7.8 5.7-12.4-1.2-6.8-6.7h-5.6l-1.1-7.9-13.5-1.1-2.3-2.2v-18z"/>
		<path id="Path 378" class="s60" d="m538.3 437.7l2.2-3.4 9-1.1 9 14.6v4.5l-6.7 3.4h-2.3l-5.6-11.3-3.4 2.3h-2.2z"/>
		<path id="Path 379" class="s70" d="m410 434.3l6.8-1.1 6.7 4.5-1.1 4.5h-3.4l2.3 5.6v2.2h-4.5l-6.8-10.1z"/>
		<path id="Path 380" class="s64" d="m266 434.3l2.3-1.1 2.2 6.7-4.5-1.1z"/>
		<path id="Path 381" class="s49" d="m239 439.9l9-6.7h6.8l1.1 6.7h6.7l-1.1 13.5-11.3 7.9-1.1-9-6.7 2.2-3.4-2.2z"/>
		<path id="Path 382" class="s56" d="m524.8 433.2l7.8 2.2 1.2 2.3-2.3 5.6h-2.2z"/>
		<path id="Path 383" class="s44" d="m357.1 433.2l2.3-1.2 16.8 10.2v6.7 2.3h-14.6l-3.4-3.4z"/>
		<path id="Path 384" class="s43" d="m813.9 443.3l21.4-12.4-2.3 18-15.7 1.1z"/>
		<path id="Path 385" class="s69" d="m649.6 433.2l1.1-2.3 12.4 4.5z"/>
		<path id="Path 386" class="s64" d="m520.3 441l-2.3-10.1h4.5l2.3 2.3 4.5 10.1-2.3 5.6h-3.4v-7.9z"/>
		<path id="Path 387" class="s1" d="m621.5 442.2l6.8-9 11.2-4.5 2.3 4.5h7.8l13.5 2.2 10.2 2.3-2.3 6.7 5.6-4.5 25.9 6.8 6.8 4.5-4.5 5.6 3.3 6.7-10.1 6.8-14.6-7.9-2.3-4.5-6.7 2.3h-9l-41.6-9-2.3-2.3z"/>
		<path id="Path 388" class="s1" d="m578.8 433.2l4.5-4.5 13.5 2.2 1.1 5.6-1.1 4.5-18-2.2z"/>
		<path id="Path 389" class="s63" d="m551.8 429.8l5.6-1.1 1.1 3.3 7.9-2.2 1.1 5.6 11.3-2.2v5.6l18 2.2 7.8 4.5 7.9-1.1 1.1 1.1 3.4 3.4v10.1l-5.6 1.2-6.8-3.4-1.1 4.5h-5.6v-3.4l-3.4 1.1-5.6-1.1-2.3-4.5-4.5 1.1v-6.7l-5.6 3.4-12.4-2.3-2.2-3.4-3.4 2.3-9-14.6z"/>
		<path id="Path 390" class="s23" d="m506.8 433.2h6.7l2.2-4.5 2.3 2.2 2.2 10.1-7.8 2.3-5.7-5.6z"/>
		<path id="Path 391" class="s64" d="m297.5 434.3l-4.5-1.1v-4.5h4.5z"/>
		<path id="Path 392" class="s66" d="m204.1 436.5l19.2-7.8 10.1 7.8-2.3 3.4h-6.7l-1.1 4.5-4.5 2.3h-9z"/>
		<path id="Path 393" class="s56" d="m639.5 428.7v-2.3l11.3 4.5-1.2 2.3h-7.9z"/>
		<path id="Path 394" class="s36" d="m496.6 430.9l9-4.5 1.1 6.8v4.5h-7.8l-2.3-3.4z"/>
		<path id="Path 395" class="s64" d="m357.1 433.2l-3.4-6.8h5.7v5.6z"/>
		<path id="Path 396" class="s23" d="m254.8 433.2l4.4-7.9 6.8 9v4.5l-3.4 1.1h-6.7z"/>
		<path id="Path 397" class="s63" d="m522.5 430.9v-6.7h9l1.1 11.2-7.8-2.2z"/>
		<path id="Path 398" class="s66" d="m474.1 429.8l-1.1 5.6h-5.6v-11.2h3.3z"/>
		<path id="Path 399" class="s70" d="m429.1 427.5l2.3-3.3h4.5l1.1 3.3 9-3.3 2.2 4.5 7.9-1.2 5.6 5.7-3.3 14.6h-4.5l-2.3-4.5-15.7-3.4-4.5-4.5z"/>
		<path id="Path 400" class="s36" d="m286.3 434.3l3.3-1.1-1.1-9 4.5 4.5v4.5l4.5 1.1v3.4l-4.5 2.2h-4.5z"/>
		<path id="Path 401" class="s45" d="m531.5 424.2l2.3-1.2 13.4 2.3 4.5 4.5-2.2 3.4-9 1.1-2.3 3.4h-4.5l-1.1-2.3z"/>
		<path id="Path 402" class="s19" d="m461.8 433.2l1.1-10.2 4.5 1.2v11.2h5.6l1.1-5.6h3.4l6.7 7.9v18h-6.7l-9 5.6-10.1-13.5z"/>
		<path id="Path 403" class="s19" d="m345.9 439.9l5.6-16.9 2.3 3.4 3.3 6.8 1.2 14.6-2.3 1.1h-6.7z"/>
		<path id="Path 404" class="s8" d="m487.6 435.4l-1.1-13.5h5.6l4.5 9v3.4z"/>
		<path id="Path 405" class="s23" d="m470.8 424.2l2.2-2.3 4.5 7.9h-3.4z"/>
		<path id="Path 406" class="s32" d="m835.3 430.9l24.7-10.1 9 4.5v12.4l-4.5 3.3v25.9 2.2l-14.6-2.2-5.6-6.7h-9l-2.3-11.3z"/>
		<path id="Path 407" class="s1" d="m557.4 428.7l7.9-7.9h3.3l-2.2 9-7.9 2.2z"/>
		<path id="Path 408" class="s69" d="m311 425.3l3.4-4.5 4.5 4.5v3.4z"/>
		<path id="Path 409" class="s49" d="m297.5 428.7l3.4-7.9 10.1 4.5 7.9 3.4 4.5 6.7-1.1 6.8-2.3 4.5-13.5 5.6-2.3-6.8-4.5 3.4-2.2-2.2v-9-3.4z"/>
		<path id="Path 410" class="s49" d="m268.3 433.2l1.1-7.9 5.6-4.5-1.1 7.9 12.3 5.6 2.3 5.6h4.5v6.8l-2.3 1.1-1.1-2.3-3.4 2.3-1.1-5.6h-4.5l-1.1 6.7h-4.5v-6.7l-4.5-2.3z"/>
		<path id="Path 411" class="s67" d="m515.8 421.9l2.2-2.2 4.5 4.5v6.7h-4.5l-2.2-2.2z"/>
		<path id="Path 412" class="s40" d="m860 420.8l9-2.2v6.7z"/>
		<path id="Path 413" class="s44" d="m392 441l4.5-22.4 5.6 1.1v6.7l3.4 1.1 4.5 6.8v5.6l-3.4 2.3-10.1 2.2z"/>
		<path id="Path 414" class="s36" d="m318.9 425.3l7.9-6.7 5.6 7.8v9h-9l-4.5-6.7z"/>
		<path id="Path 415" class="s66" d="m435.9 424.2l2.2-6.8h7.9l9 2.3h6.8l1.1 3.3-1.1 10.2-5.7-5.7-7.8 1.2-2.3-4.5-9 3.3z"/>
		<path id="Path 416" class="s49" d="m405.5 427.5l4.5-10.1 6.8 9v6.8l-6.8 1.1z"/>
		<path id="Path 417" class="s15" d="m568.6 420.8l3.4-4.5 11.2 7.9v4.5l-4.5 4.5-11.2 2.2-1.1-5.6z"/>
		<path id="Path 418" class="s49" d="m376.3 417.4l20.2 1.2-4.5 22.4-6.8 4.5-6.7-4.5-3.4-22.4z"/>
		<path id="Path 419" class="s45" d="m446 417.4l6.8-2.2 2.2 4.5z"/>
		<path id="Path 420" class="s36" d="m416.8 426.4l3.3-11.2h3.4l5.6 12.3 2.3 7.9 1.1 6.8v4.5l-2.3 2.2h-4.5l-2.2-1.1-1.1-5.6 1.1-4.5-6.8-4.5z"/>
		<path id="Path 421" class="s36" d="m351.5 421.9l6.8-3.3v-3.4l4.5 4.5 11.2-1.1h1.1l3.4 22.4-2.2 1.2-16.9-10.2v-5.6h-5.7l-2.2-3.4z"/>
		<path id="Path 422" class="s49" d="m332.4 426.4l2.2-11.2 5.7 5.6 6.7-4.5 4.5 5.6v1.1l-5.6 16.9h-3.4l-10.1-4.5z"/>
		<path id="Path 423" class="s43" d="m869 418.6l18-4.5 1.1 4.5h3.4v34.8l-6.8 11.2-13.4 2.3 2.2-27-4.5-2.2v-12.4z"/>
		<path id="Path 424" class="s8" d="m431.4 424.2l1.1-10.1h4.5l1.1 3.3-2.2 6.8z"/>
		<path id="Path 425" class="s69" d="m374 418.6v-4.5l2.3 3.3-1.2 1.2z"/>
		<path id="Path 426" class="s19" d="m887 414.1l5.6-1.2-1.1 5.7h-3.4z"/>
		<path id="Path 427" class="s49" d="m916.3 421.9l-4.5-3.3v-9l11.2 1.1z"/>
		<path id="Path 428" class="s36" d="m892.6 412.9l19.1-3.3v9l4.5 3.3-22.5 31.5h-2.2v-34.8z"/>
		<path id="Path 429" class="s66" d="m473 421.9l2.3-12.3 7.8 1.1 12.4 2.2 10.1 3.4 10.2 5.6v6.8l-2.3 4.5h-6.7l-1.2-6.8-9 4.5-4.5-9h-5.6l1.1 13.5-3.3 2.3-6.8-7.9z"/>
		<path id="Path 430" class="s56" d="m541.6 410.7l7.9-3.4 1.1 4.5 4.5-1.1 1.1 4.5h5.7l3.3 5.6-7.8 7.9-5.7 1.1-4.5-4.5-13.5-2.3-1.1-10.1z"/>
		<path id="Path 431" class="s69" d="m532.6 412.9l1.1-6.7 7.9 4.5z"/>
		<path id="Path 432" class="s44" d="m505.6 416.3l3.4-12.4h9v15.8l-2.3 2.2z"/>
		<path id="Path 433" class="s8" d="m572 416.3v-13.5l67.5 23.6v2.3l-11.3 4.5-6.7 9-7.9 3.3-1.1-1.1v-5.6h-4.5l-1.1-4.5-9 2.2-1.1-5.6-13.5-2.2v-4.5z"/>
		<path id="Path 434" class="s56" d="m495.5 412.9v-11.2h12.4l1.1 2.2-3.4 12.4z"/>
		<path id="Path 435" class="s49" d="m555.1 410.7l1.1-11.3 15.8 3.4v13.5l-3.4 4.5h-3.4l-3.3-5.6h-5.7z"/>
		<path id="Path 436" class="s36" d="m518 403.9v-4.5l14.6 2.3 1.2 4.5-1.2 6.7 1.2 10.1-2.3 1.2h-9l-4.5-4.5z"/>
		<path id="Path 437" class="s61" d="m443.8 399.4l-0.1 4.5h-6.7v-4.5z"/>
		<path id="Path 438" class="s60" d="m426.9 399.4h10.1v4.5h-6.7z"/>
		<path id="Path 439" class="s72" d="m443.8 399.4l4.4-2.2h1.2l-1.2 6.7h-4.5z"/>
		<path id="Path 440" class="s49" d="m507.9 401.7l5.6-5.6 4.5 3.3v4.5h-9z"/>
		<path id="Path 441" class="s63" d="m223.3 428.7l13.4-6.8 64.2-15.7 52.8-4.5h57.4l13.5-5.6v1.1l2.3 2.2 3.3 4.5h6.8 6.7 4.5l13.5 2.3 13.5 3.4-2.2 12.3-2.3 2.3h-3.3l-4.5-1.2-1.2-3.3h-6.7l-2.3-4.5-6.7 2.2h-7.9l-1.1-3.3h-4.5l-1.1 10.1-2.3 3.3-5.6-12.3h-3.4l-3.4 11.2-6.7-9-4.5 10.1-3.4-1.1v-6.7l-5.6-1.1-20.3-1.2-2.2-3.3v4.5l-11.3 1.1-4.5-4.5v3.4l-6.7 3.3-4.5-5.6-6.8 4.5-5.6-5.6-2.2 11.2-5.7-7.8-7.8 6.7-4.5-4.5-3.4 4.5-10.1-4.5-3.4 7.9h-4.5l-4.5-4.5 1.1 9-3.4 1.1-12.3-5.6 1.1-7.9-5.6 4.5-1.2 7.9-2.2 1.1-6.8-9-4.5 7.9h-6.7l-9 6.7-5.6-3.4z"/>
		<path id="Path 442" class="s53" d="m449.4 397.2l7.9-3.4v3.4h3.3l1.2 9-13.5-2.3z"/>
		<path id="Path 443" class="s60" d="m424.6 396.1l3.4-3.4-3.4 4.5z"/>
		<path id="Path 444" class="s31" d="m460.6 397.2l5.6-6.8h4.5l5.7 10.2 5.6 1.1 1.1 9-7.9-1.1-13.5-3.4z"/>
		<path id="Path 445" class="s45" d="m513.5 396.1v-10.2h7.9l4.5 4.5 30.4 9-1.2 11.3-4.5 1.1-1.1-4.5-7.9 3.4-7.8-4.5-1.2-4.5-14.6-2.3z"/>
		<path id="Path 446" class="s56" d="m428 392.7l10.1-10.1 10.2 7.8v6.8l-4.5 2.2h-6.8-10.1l-2.3-2.2z"/>
		<path id="Path 447" class="s36" d="m438.1 382.6l18-19.1 7.9 13.5 2.2 13.4-5.6 6.8h-3.4v-3.4l-7.8 3.4h-1.2v-6.8z"/>
		<path id="Path 448" class="s69" d="m456.1 363.5v-3.4l19.1-15.8 4.5 6.8v10.1l15.8 24.7v15.8 11.2l-12.4-2.2-1.1-9-5.6-1.1-5.7-10.2h-4.5l-2.2-13.4z"/>
		<path id="Path 449" class="s8" d="m475.3 344.3l12.3-8.9 5.6 3.3v1.2l1.2 25.8 5.6 5.6-1.1 5.7 14.6 8.9v10.2l-5.6 5.6h-12.4v-15.8l-15.8-24.7v-10.1z"/>
		<path id="Path 450" class="s23" d="m487.6 335.4l6.8-4.5 2.2 2.2-3.4 5.6z"/>
		<path id="Path 451" class="s4" d="m494.4 330.9l4.5-2.3v2.3l-5.6 9v-1.2l3.3-5.6z"/>
	</g>
</svg>