<svg version="1.2" xmlns="http://www.w3.org/2000/svg" viewBox="0 0 1000 1000" width="1000" height="1000">
	<title>Ictiobus_cyprinellus</title>
	<style>
		.s0 { opacity: .2;fill: #e4e5e4 } 
		.s1 { opacity: .3;fill: #d0d2ca } 
		.s2 { opacity: .3;fill: #e5e4e2 } 
		.s3 { opacity: .7;fill: #d3d5ce } 
		.s4 { opacity: .7;fill: #6c8871 } 
		.s5 { opacity: 1;fill: #394738 } 
		.s6 { opacity: 1;fill: #3d4c3e } 
		.s7 { opacity: .8;fill: #979c8e } 
		.s8 { opacity: .3;fill: #adb3af } 
		.s9 { fill: #374331 } 
		.s10 { fill: #34402d } 
		.s11 { fill: #8a9682 } 
		.s12 { opacity: .8;fill: #51697f } 
		.s13 { opacity: 1;fill: #303b28 } 
		.s14 { fill: #a2aea3 } 
		.s15 { opacity: .3;fill: #8ca588 } 
		.s16 { opacity: 1;fill: #47594d } 
		.s17 { opacity: 1;fill: #45615d } 
		.s18 { opacity: .7;fill: #f2f0ea } 
		.s19 { opacity: .6;fill: #7b8e80 } 
		.s20 { fill: #bbc1b4 } 
		.s21 { opacity: .5;fill: #d7d8d2 } 
		.s22 { opacity: 1;fill: #486665 } 
		.s23 { opacity: .7;fill: #afb6ac } 
		.s24 { fill: #acb5a9 } 
		.s25 { fill: #92a093 } 
		.s26 { opacity: .3;fill: #675749 } 
		.s27 { fill: #4c6b6d } 
		.s28 { fill: #3e4934 } 
		.s29 { fill: #557475 } 
		.s30 { fill: #46503a } 
		.s31 { opacity: .5;fill: #b1acb2 } 
		.s32 { fill: #4f5840 } 
		.s33 { opacity: 1;fill: #567477 } 
		.s34 { fill: #5d654a } 
		.s35 { opacity: 1;fill: #556251 } 
		.s36 { fill: #636d58 } 
		.s37 { fill: #8e9b8a } 
		.s38 { fill: #707a61 } 
		.s39 { fill: #3b5b5a } 
		.s40 { fill: #808a71 } 
		.s41 { opacity: 1;fill: #637154 } 
		.s42 { fill: #7b8064 } 
		.s43 { fill: #97987d } 
		.s44 { fill: #345555 } 
		.s45 { fill: #77836f } 
		.s46 { fill: #8d8a6c } 
		.s47 { fill: #878f79 } 
		.s48 { opacity: 1;fill: #546f69 } 
		.s49 { fill: #7a8877 } 
		.s50 { opacity: 1;fill: #2b4947 } 
		.s51 { opacity: 1;fill: #2f4f4e } 
		.s52 { fill: #6b7d71 } 
		.s53 { fill: #818f7c } 
		.s54 { fill: #949983 } 
		.s55 { fill: #9ca18b } 
		.s56 { fill: #687360 } 
		.s57 { fill: #a3a791 } 
		.s58 { fill: #acad96 } 
		.s59 { fill: #b5b49d } 
		.s60 { opacity: .5;fill: #979690 } 
		.s61 { fill: #99a69a } 
		.s62 { fill: #bdbca5 } 
		.s63 { fill: #c9c7b2 } 
		.s64 { fill: #b4bbae } 
		.s65 { fill: #d3cbb5 } 
		.s66 { fill: #c4c8bc } 
		.s67 { fill: #d2d0be } 
		.s68 { fill: #e2d8c1 } 
		.s69 { opacity: 1;fill: #203f3d } 
		.s70 { fill: #e0e1d3 } 
		.s71 { fill: #d8d8c7 } 
		.s72 { fill: #c2c2ac } 
		.s73 { fill: #e8e8dd } 
		.s74 { opacity: 1;fill: #a0aaa5 } 
		.s75 { fill: #f1f0e7 } 
		.s76 { fill: #f7f6f1 } 
		.s77 { fill: #fcfcf9 } 
		.s78 { fill: #e6e3cd } 
		.s79 { opacity: .9;fill: #17f5f3 } 
		.s80 { opacity: 1;fill: #2b433c } 
		.s81 { opacity: .4;fill: #7a7a68 } 
		.s82 { opacity: .5;fill: #b8b7a4 } 
		.s83 { opacity: .4;fill: #f4f2ed } 
		.s84 { opacity: .7;fill: #637258 } 
		.s85 { fill: #eeebd8 } 
		.s86 { opacity: 1;fill: #838062 } 
		.s87 { fill: #a49772 } 
		.s88 { fill: #aaa288 } 
		.s89 { opacity: 1;fill: #ca4fdd } 
		.s90 { opacity: .9;fill: #3a2fdb } 
		.s91 { opacity: .5;fill: #3c4e3f } 
	</style>
	<g id="Background">
		<path id="Path 0" class="s0" d="m60 554h1v1h-1z"/>
		<path id="Path 1" class="s0" d="m61 553h1v1h-1z"/>
		<path id="Path 2" class="s1" d="m466 376h1v1h-1z"/>
		<path id="Path 3" class="s2" d="m493 369v-2h3l-2 2z"/>
		<path id="Path 4" class="s3" d="m494 369l2-2h9l1 2h-1-9z"/>
		<path id="Path 5" class="s4" d="m486 371l7-2h1 2z"/>
		<path id="Path 6" class="s5" d="m486 371l10-2h9v4l9 9-2 3-2 2-1 2-11-2-28 12h-7l-14-2-6-5v-5-1h1l8-2 4 7h13l6-15z"/>
		<path id="Path 7" class="s6" d="m514 382l-9-9v-4h1 2l9 7z"/>
		<path id="Path 8" class="s3" d="m514 382l3-6-9-7h6l5 5v7l-7 4z"/>
		<path id="Path 9" class="s7" d="m473 374l13-3-11 5h-3z"/>
		<path id="Path 10" class="s1" d="m471 376l2-2-1 2z"/>
		<path id="Path 11" class="s7" d="m466 377l1-1h4l-5 2z"/>
		<path id="Path 12" class="s6" d="m466 378l5-2h1 3l-6 15h-13l-4-7 5-3 6-2z"/>
		<path id="Path 13" class="s1" d="m463 379l3-2v1z"/>
		<path id="Path 14" class="s8" d="m444 386l4-4 9-1-5 3z"/>
		<path id="Path 15" class="s0" d="m510 387l2-2v4z"/>
		<path id="Path 16" class="s8" d="m433 389l10-3v1l-4 1z"/>
		<path id="Path 17" class="s9" d="m439 388l4-1v5l6 5 14 2h7l28-12 11 2 8 7v15l13 8 46 6 25-2 19 8 16-2 13 2 3-8 15 3h2l7 2 10 3 7 4 13 13-12 2-1 3-27 2-15-4h-18l-7 4h-20l-13-2-22-10h-15l-28-6-30 1-1 7h-10v-8l28-8v-7l-11-12-4-3-58-5-8-7v-4z"/>
		<path id="Path 18" class="s10" d="m590 433l29 3 2 9-27 2-5-7z"/>
		<path id="Path 19" class="s11" d="m509 389l1-2 2 2 5 7z"/>
		<path id="Path 20" class="s12" d="m433 389l6-1-5 3-9 2h-1l2-2z"/>
		<path id="Path 21" class="s8" d="m423 393l3-2-2 2z"/>
		<path id="Path 22" class="s10" d="m425 393l9-2v4l8 7 58 5 4 3 11 12v7l-28 8h-20-6v-8l12-2 2-10-15-8-17 4 4 16-17-2-1 4h-20l-13-4h-42l-2-4h-16l-34 12-1 4-41-2-12-11v-9-1h1l6-2h1l4-1 7-2h1l5-1 10-2h1l8-2h7 2l9-1h6l12-2h2 3 6l8-2h4 7 1v12l6 4 54 6 15-7v-7l-8-7z"/>
		<path id="Path 23" class="s13" d="m281 415h17l3 3-4 11-12 2-10-5v-7z"/>
		<path id="Path 24" class="s0" d="m928 394l9-2v2h-8z"/>
		<path id="Path 25" class="s11" d="m416 394l1-1h5z"/>
		<path id="Path 26" class="s13" d="m416 394l6-1h1 1 1l1 9 8 7v7l-15 7-54-6-6-4v-12l9-2h5 12l10-1h3l8-2h2 1l5-2z"/>
		<path id="Path 27" class="s14" d="m929 394h8v2 1z"/>
		<path id="Path 28" class="s1" d="m408 396l4-2-3 2z"/>
		<path id="Path 29" class="s11" d="m409 396l3-2h2z"/>
		<path id="Path 30" class="s1" d="m916 396l6-2v1l-1 1z"/>
		<path id="Path 31" class="s15" d="m922 395v-1h3z"/>
		<path id="Path 32" class="s16" d="m922 395l3-1h3 1l8 3v3 1l-2 7v1l-2 4v2l-1 1h-4l-7-7v-13z"/>
		<path id="Path 33" class="s5" d="m652 423l-3 8-13-2-16 2-19-8-25 2-46-6-13-8v-15l7 1 1 3 9 1h2l10 3h1l9 2h6l5 2 3-1 8 3 5 1h8 3l8 2h2 1l9 1h1l11 2h4l7 2 5 2 7 1h2z"/>
		<path id="Path 34" class="s1" d="m908 397l6-1-6 2z"/>
		<path id="Path 35" class="s17" d="m908 398l6-2h2 5v13l7 7h4v2l-2 6-4 5h-10l-12-13-3-15 2-2h1z"/>
		<path id="Path 36" class="s18" d="m937 397v-1l2 4h-2z"/>
		<path id="Path 37" class="s3" d="m373 399l12-2v2z"/>
		<path id="Path 38" class="s19" d="m385 399v-2l10 1z"/>
		<path id="Path 39" class="s20" d="m534 401l-9-1-1-3z"/>
		<path id="Path 40" class="s21" d="m904 399l4-2v1z"/>
		<path id="Path 41" class="s3" d="m351 401l7-2v2z"/>
		<path id="Path 42" class="s7" d="m358 401v-2h10l-9 2z"/>
		<path id="Path 43" class="s3" d="m898 401l5-2-2 2z"/>
		<path id="Path 44" class="s20" d="m333 403l6-2v2z"/>
		<path id="Path 45" class="s7" d="m339 403v-2h8z"/>
		<path id="Path 46" class="s22" d="m888 404l9-3h1 3l3 15 12 13h10l-2 9-2 4-7-3-5 9-14 2-1 7-14 2-15 2h-5v-5l7-6 16-11h9l4-4v-8l-8-6-2-7h-9l-8 7-15 2-1-4 4-3h1l4-2 4-2 4-1 7-3 4-2h1l4-2z"/>
		<path id="Path 47" class="s23" d="m935 408l2-7-1 7z"/>
		<path id="Path 48" class="s1" d="m317 403l6-1v1z"/>
		<path id="Path 49" class="s15" d="m323 403v-1l7 1h-2z"/>
		<path id="Path 50" class="s24" d="m316 404l1-1h6 5l-12 2z"/>
		<path id="Path 51" class="s1" d="m299 406l7-2-5 2z"/>
		<path id="Path 52" class="s25" d="m301 406l5-2h4v1z"/>
		<path id="Path 53" class="s26" d="m310 405v-1h6v1z"/>
		<path id="Path 54" class="s1" d="m878 407l4-1-4 2z"/>
		<path id="Path 55" class="s21" d="m273 409l10-1-10 2z"/>
		<path id="Path 56" class="s3" d="m578 410l-8-3 9 2z"/>
		<path id="Path 57" class="s21" d="m871 411l7-4v1z"/>
		<path id="Path 58" class="s8" d="m935 409v-1h1l-1 4z"/>
		<path id="Path 59" class="s3" d="m268 411l5-2v1z"/>
		<path id="Path 60" class="s13" d="m447 429l-4-16 17-4 15 8-2 10-12 2z"/>
		<path id="Path 61" class="s6" d="m578 410l1-1h3l1 2z"/>
		<path id="Path 62" class="s3" d="m583 411l-1-2 9 2z"/>
		<path id="Path 63" class="s23" d="m933 413l2-4v3l-1 1z"/>
		<path id="Path 64" class="s15" d="m260 412l7-1-7 2z"/>
		<path id="Path 65" class="s1" d="m256 414l4-2v1z"/>
		<path id="Path 66" class="s15" d="m604 413h9-8z"/>
		<path id="Path 67" class="s14" d="m614 414l-9-1h8z"/>
		<path id="Path 68" class="s8" d="m933 415v-2h1v2z"/>
		<path id="Path 69" class="s27" d="m855 423l15-2 8-7h9l2 7 8 6v8l-4 4h-9l-16 11-7 6v5l-6 4h-6l1-9 8-4 5-8v-6l-10-7z"/>
		<path id="Path 70" class="s1" d="m932 416l1-1h1l-2 3z"/>
		<path id="Path 71" class="s1" d="m241 417l7-1v1l-6 1z"/>
		<path id="Path 72" class="s2" d="m637 418l-7-2 7 1z"/>
		<path id="Path 73" class="s2" d="m851 419l7-3-4 3z"/>
		<path id="Path 74" class="s3" d="m238 419l3-2 1 1z"/>
		<path id="Path 75" class="s9" d="m242 418l6-1v9l12 11-1 4-4-2-27 2-6-9v-7-1h1l8-3 7-2z"/>
		<path id="Path 76" class="s3" d="m637 418v-1l5 2v1z"/>
		<path id="Path 77" class="s1" d="m930 424l2-6-2 8z"/>
		<path id="Path 78" class="s23" d="m642 420v-1l7 2z"/>
		<path id="Path 79" class="s17" d="m848 421l3-2h3l1 4-2 8h-12l-4 6h-8l-8 7-1 14-8 1-1 6h-6l-3-4h-5v-6l7-7v-5l2-2 4-2h1l6-3h1l7-4 3-1 10-5 3-2 6-3z"/>
		<path id="Path 80" class="s8" d="m652 423l-1-2 11 1 5 4z"/>
		<path id="Path 81" class="s9" d="m301 439l1-4 34-12h16l2 4-19 2-18 8z"/>
		<path id="Path 82" class="s8" d="m218 426l4-2v1z"/>
		<path id="Path 83" class="s3" d="m926 429l4-5v2l-6 12z"/>
		<path id="Path 84" class="s5" d="m218 426l4-1v7l6 9-1 13 6 3 2 6h4l4 10v14h-2l-8-5-21-3-1-4-29-4-7 5v5h-12l-7-1-3-5h-6l-3-4 9-7 3-1 4 4h7l6-6-1-8 1-2 8-5 8-5 9-5 3-2 4-1 12-7z"/>
		<path id="Path 85" class="s23" d="m205 431l12-5-12 7z"/>
		<path id="Path 86" class="s8" d="m676 428l-7-2 8 1z"/>
		<path id="Path 87" class="s28" d="m301 439l16-2 18-8 19-2h42l13 4h20v4l-1 6-19-2-2-4-21-1v3h-28l-1-4-22 3-20 5-2 6h-25-10-33l-8 2-4 8-6-3 1-13 27-2 4 2 1-4z"/>
		<path id="Path 88" class="s9" d="m429 431l1-4 17 2h14v8l-17 2-4-4h-11z"/>
		<path id="Path 89" class="s3" d="m676 428l1-1 9 4z"/>
		<path id="Path 90" class="s8" d="m201 434l4-3v2z"/>
		<path id="Path 91" class="s21" d="m693 435l-7-4 8 3z"/>
		<path id="Path 92" class="s29" d="m837 437l4-6h12l10 7v6l-5 8-8 4-1 9h-9l-1-5 9-6 1-13z"/>
		<path id="Path 93" class="s30" d="m313 447l2-6 20-5 22-3 1 4-3 4h-16l-12 2-4 4z"/>
		<path id="Path 94" class="s30" d="m386 437v-3l21 1 2 4v6h-10l-3-6z"/>
		<path id="Path 95" class="s31" d="m693 435l1-1 19 18v1h-2l-2-1-3-4z"/>
		<path id="Path 96" class="s30" d="m428 441l1-6h11l4 4 17-2h6v6l8 4v4h-9l-1-4-37-4z"/>
		<path id="Path 97" class="s8" d="m189 441l3-4 6-1z"/>
		<path id="Path 98" class="s32" d="m313 447h10l4-4 12-2h16l3-4h28l10 2 3 6v4l-38 2-1-3-15 3h-30l-3 4-25 4-14 2-5-4-10 1-3 12-4 3h-8l-4-10 6-16h33l1 4h8l1-4z"/>
		<path id="Path 99" class="s28" d="m475 447l-8-4v-6h20v8z"/>
		<path id="Path 100" class="s28" d="m497 445l1-7 30-1 28 6h15l22 10 13 2h20l7-4h18l15 4 27-2v4 4l-62-3-4 5v6l-7 2h-6l-5-6-23-2-2-6-1-4-17-2-37-3h-10l-2 3h-18z"/>
		<path id="Path 101" class="s33" d="m820 458l1-14 8-7h8l12 4-1 13-9 6 1 5v2h-12z"/>
		<path id="Path 102" class="s32" d="m409 445v-6l19 2v2z"/>
		<path id="Path 103" class="s17" d="m895 457l1-7 14-2 5-9 7 3v1l-2 3-10 16-6 6-3-5h-6z"/>
		<path id="Path 104" class="s1" d="m181 446l2-4 6-1z"/>
		<path id="Path 105" class="s31" d="m794 446l4-4 8-1-2 2z"/>
		<path id="Path 106" class="s34" d="m409 445l19-2 37 4 1 4-1 8h-14l-9-4-33 2-2-6-8-2v-4z"/>
		<path id="Path 107" class="s6" d="m794 446l10-3v5l-7 7v6h-18v-8l2-2h2z"/>
		<path id="Path 108" class="s0" d="m920 446l2-3-2 4z"/>
		<path id="Path 109" class="s32" d="m475 447l12-2h10l2 6-14 2-10-2z"/>
		<path id="Path 110" class="s21" d="m173 451l2-4 6-1z"/>
		<path id="Path 111" class="s30" d="m278 447h10l-1 4h-8z"/>
		<path id="Path 112" class="s4" d="m783 451l6-5h5z"/>
		<path id="Path 113" class="s21" d="m910 462l10-16v1l-9 15z"/>
		<path id="Path 114" class="s30" d="m233 457l4-8 8-2-6 16h-4z"/>
		<path id="Path 115" class="s35" d="m345 451l15-3 1 3v7l-6 1-6 1-4-1z"/>
		<path id="Path 116" class="s32" d="m517 451l2-3h10l37 3 1 4 17 2 2 6v4h-18l-1-4-8 2h-19l-3-4h-10l-5-6h-5z"/>
		<path id="Path 117" class="s5" d="m693 453l1-3 12-2 3 4-2 5h-14z"/>
		<path id="Path 118" class="s36" d="m361 451l38-2 8 2 2 6v4l-12 2h-29l-7-5z"/>
		<path id="Path 119" class="s34" d="m287 459l25-4 3-4h30v8l-6 4-8 2-20 2h-23z"/>
		<path id="Path 120" class="s21" d="m160 458l13-7-1 2-12 6z"/>
		<path id="Path 121" class="s36" d="m465 459l1-8h9l10 2v6l-8 4z"/>
		<path id="Path 122" class="s34" d="m485 453l14-2h18v4l-2 10-2 2h-4l-16-2-1-5-7-1z"/>
		<path id="Path 123" class="s30" d="m584 457l-17-2-1-4 17 2z"/>
		<path id="Path 124" class="s8" d="m769 452l12-1-2 2h-7-3z"/>
		<path id="Path 125" class="s28" d="m707 457l2-5 2 1 5 1h1 2l4 1v7l-4 1h-6l-6-1z"/>
		<path id="Path 126" class="s0" d="m713 453v-1l4 2h-1z"/>
		<path id="Path 127" class="s0" d="m759 454l10-2v1l-9 1z"/>
		<path id="Path 128" class="s9" d="m160 459l12-6 1 8-6 6h-7l-4-4z"/>
		<path id="Path 129" class="s37" d="m716 454l-5-1h2z"/>
		<path id="Path 130" class="s14" d="m760 454l9-1h3l-12 2z"/>
		<path id="Path 131" class="s28" d="m760 455l12-2h7v8l-3 4h-17v-10z"/>
		<path id="Path 132" class="s26" d="m723 455l-4-1h40 1v1h-1-16-6z"/>
		<path id="Path 133" class="s38" d="m409 457l33-2 9 4v8h-31l-1-4-10-2z"/>
		<path id="Path 134" class="s36" d="m515 465l2-10h5l5 6h10l3 4h19l5 8 4-1v-5h18l5 5v6l-10 2-24-3-32-4-2-6z"/>
		<path id="Path 135" class="s6" d="m723 462v-7h14v8z"/>
		<path id="Path 136" class="s28" d="m737 463v-8h6v8z"/>
		<path id="Path 137" class="s30" d="m743 463v-8h16v10l-9 1h-5z"/>
		<path id="Path 138" class="s34" d="m255 470l3-12 10-1 5 4v12h-4-8z"/>
		<path id="Path 139" class="s30" d="m627 469v-6l4-5 62 3 4 2v8l-22 2-6-6h-5l-3 6-9 1-16 1-6-3z"/>
		<path id="Path 140" class="s6" d="m693 461v-4h14v5l-10 1z"/>
		<path id="Path 141" class="s39" d="m881 459l14-2v6l-3 4h-11z"/>
		<path id="Path 142" class="s8" d="m151 464l9-6v1l-4 4-3 1z"/>
		<path id="Path 143" class="s40" d="m355 459l6-1 7 5-3 4h-5z"/>
		<path id="Path 144" class="s27" d="m811 465l1-6 8-1 8 9h12l2 9-27 3v-8z"/>
		<path id="Path 145" class="s41" d="m273 461l14-2 1 8-1 6h-14z"/>
		<path id="Path 146" class="s42" d="m339 463l6-4 4 1-3 7h-7z"/>
		<path id="Path 147" class="s43" d="m349 460l6-1 5 8h5v6 4h-34v-2-8h8 7z"/>
		<path id="Path 148" class="s42" d="m451 467v-8h14l12 4v4h-8z"/>
		<path id="Path 149" class="s38" d="m477 463l8-4 7 1 1 5-2 4h-12l-2-2z"/>
		<path id="Path 150" class="s44" d="m866 461l15-2v8l-3 2-7 3v5l-2 12h-4l-2-19 3-2z"/>
		<path id="Path 151" class="s40" d="m397 463l12-2 10 2 1 4-20 2z"/>
		<path id="Path 152" class="s45" d="m759 465h17l3-4h18 5l3 4v6h-6l-17-4-5 3v11l-8 2-14-3-5-14z"/>
		<path id="Path 153" class="s39" d="m855 465l6-4h5v7l-3 2 2 19 3 18 4 4h7l6 12 2 10-2 6-10 1-3-4-7-1-9-10-9-3-3-13-3-2v-10l7-3v-9l5-3z"/>
		<path id="Path 154" class="s32" d="m697 463l10-1 6 1v6 5l-8 1h-5l-3-4z"/>
		<path id="Path 155" class="s35" d="m719 463l4-1 14 1h6l2 3-4 9h-15l-6-2-1-4z"/>
		<path id="Path 156" class="s0" d="m904 468l6-6h1l-22 23v-1l8-9z"/>
		<path id="Path 157" class="s46" d="m331 465l8-2v4h-8z"/>
		<path id="Path 158" class="s47" d="m365 467l3-4h29l3 6 20-2h31 18v8l-79 2-2-4h-23z"/>
		<path id="Path 159" class="s34" d="m559 465l8-2 1 4v5l-4 1z"/>
		<path id="Path 160" class="s35" d="m586 467v-4l23 2 5 6-3 7v1h-16l-4-1v-6z"/>
		<path id="Path 161" class="s34" d="m713 469v-6h6v6z"/>
		<path id="Path 162" class="s6" d="m892 467l3-4h6l3 5-7 7z"/>
		<path id="Path 163" class="s3" d="m141 471l2-4 8-3h2l-9 7h-2z"/>
		<path id="Path 164" class="s47" d="m311 467l20-2v2 8l-22 4z"/>
		<path id="Path 165" class="s45" d="m491 469l2-4 16 2v6l-2 4h-8l-6-2z"/>
		<path id="Path 166" class="s38" d="m513 467l2-2 8 2 2 6-11 2-1-2z"/>
		<path id="Path 167" class="s48" d="m805 471v-6h6l4 6v8l-4 5z"/>
		<path id="Path 168" class="s22" d="m840 467v-2h9 6l-2 17-5 3v9l-7 3h-4l-3-9h-9l-10 10h-5l1-14 4-5 27-3z"/>
		<path id="Path 169" class="s40" d="m741 475l4-9h5l5 14 14 3v14h-6l-7-2-1-4h-4l-10-4z"/>
		<path id="Path 170" class="s46" d="m287 473l1-6h23l-2 12-1 2h-16z"/>
		<path id="Path 171" class="s40" d="m469 475v-8h8l2 2v6h-8z"/>
		<path id="Path 172" class="s49" d="m509 473v-6h4v6z"/>
		<path id="Path 173" class="s34" d="m661 473l3-6h5l6 6v6l-8 1z"/>
		<path id="Path 174" class="s49" d="m769 483l8-2v-11l5-3 17 4v12l-4 6-7 1-9 15v15l14 10v5l-5 15-6-2-1-9-4-2v-13l-4-3-4-24z"/>
		<path id="Path 175" class="s50" d="m878 469l3-2h11l5 8-8 9-4 2v11l7 5 2 2 3 2 10 8 1 2-7 6-4 23-8 3v9l-4 3v22l-11-2-5-2h-2l-8-3v-12l11-9 3-9 2-5 10-1 2-6h4l1-5-7-5-6-12-3-18-7-4 2-12 7-3z"/>
		<path id="Path 176" class="s47" d="m479 475v-6h12l2 6 6 2v5l-15 1z"/>
		<path id="Path 177" class="s34" d="m620 471l7-2 3 3-3 5-7-1z"/>
		<path id="Path 178" class="s36" d="m713 474v-5h6l1 4z"/>
		<path id="Path 179" class="s51" d="m871 477v-5l7-3v5z"/>
		<path id="Path 180" class="s42" d="m251 473l4-3 6 3v8l-2 6-6-1z"/>
		<path id="Path 181" class="s23" d="m126 481l2-4 13-6h1z"/>
		<path id="Path 182" class="s6" d="m126 481l16-10h2l3 4h6l3 5 7 1v10l-2 2-10 2h-6l-2-6-20 2-2-5z"/>
		<path id="Path 183" class="s6" d="m175 481v-5l7-5 29 4 1 4-3 2-20 2h-6z"/>
		<path id="Path 184" class="s45" d="m611 478l3-7h6v5z"/>
		<path id="Path 185" class="s36" d="m675 473l22-2 3 4h5v10h-12l-3-4-15-2z"/>
		<path id="Path 186" class="s52" d="m795 489l4-6v-12h6l6 13-1 14-5 2-1 11h-3l-8-1z"/>
		<path id="Path 187" class="s53" d="m620 476l7 1 3-5 6 3-1 7 4 3v8l-24-2-4-12v-1z"/>
		<path id="Path 188" class="s35" d="m243 487v-14h8l2 13-4 1z"/>
		<path id="Path 189" class="s46" d="m261 481v-8h8l-2 8z"/>
		<path id="Path 190" class="s43" d="m261 481h6l2-8h4 14l5 8-3 10-10 2h-14-6v-6z"/>
		<path id="Path 191" class="s54" d="m365 477v-4h23l2 4 79-2h2v5l6 7h10l6 4 18-2 2-4 20 5 3 12 9 1 6 6v10l-15-2-5-6-19 2-9-12-31-4-2-6-8-5-36 1-10 4-23-4-21-4-1-4z"/>
		<path id="Path 192" class="s53" d="m499 477h8l2-4h4l1 2-1 8-14-1z"/>
		<path id="Path 193" class="s47" d="m514 475l11-2 32 4v4l9 10 15-3v3l-8 6h-9l-15-6-16-1-20-5v-2z"/>
		<path id="Path 194" class="s45" d="m652 474l9-1 6 7v7h-8l-7-3z"/>
		<path id="Path 195" class="s38" d="m713 474l7-1 6 2v5l-7 1-1 4h-13v-10z"/>
		<path id="Path 196" class="s40" d="m636 475l16-1v10l-13 1-4-3z"/>
		<path id="Path 197" class="s54" d="m309 479l22-4v2l-2 6-21-2z"/>
		<path id="Path 198" class="s11" d="m513 485l-2 4-18 2-6-4h-10l-6-7v-5h8l5 8 15-1 14 1z"/>
		<path id="Path 199" class="s45" d="m718 485l1-4 7-1v-5h15v12l-22 2z"/>
		<path id="Path 200" class="s55" d="m308 481l21 2 2-6h34l6 2 1 4-16 2-3 4h-10l-14-2-6 3v5h-7l-1 6-22-4v-4l-4-2 3-10z"/>
		<path id="Path 201" class="s40" d="m581 488l-15 3-9-10v-4l24 3z"/>
		<path id="Path 202" class="s53" d="m581 480l10-2 4 1v6l-6 6h-8v-3z"/>
		<path id="Path 203" class="s36" d="m209 481l3-2 21 3 8 5v6l-16-2-15-2z"/>
		<path id="Path 204" class="s11" d="m581 491h8l6-6v-6h16l4 12 24 2 3 4 17-2 14 3 1 3-2 4-26-4-9 8h-9l-3 4-16-2-2-5-9-1-3 10h-11l-17-2-2-5-14 1-6-6-9-1-3-12 16 1 15 6h9z"/>
		<path id="Path 205" class="s49" d="m667 480l8-1 15 2 3 4h12 13l1 4v10h-4-22l-2-6h-17l-7-6z"/>
		<path id="Path 206" class="s23" d="m119 486l7-5-5 5z"/>
		<path id="Path 207" class="s16" d="m163 491v-10h12l8 2v6z"/>
		<path id="Path 208" class="s56" d="m189 483l20-2 1 8-3 8h-8-9l-3-7z"/>
		<path id="Path 209" class="s35" d="m183 489v-6h6l-2 7z"/>
		<path id="Path 210" class="s57" d="m353 489l3-4 16-2 21 4v6l8 2 3 4v2h-8l-2-3-20-5h-21z"/>
		<path id="Path 211" class="s47" d="m639 485l13-1 7 3v8l-17 2-3-4z"/>
		<path id="Path 212" class="s23" d="m885 497v-11l4-2v1z"/>
		<path id="Path 213" class="s55" d="m393 487l23 4 10-4 36-1 8 5 2 6 31 4 9 12 19-2 5 6 15 2 6 3v9l-14 2-15-8h-6l-1 4h-15l-3-9-10-9-21 2-4-5-24-6-5-5-12 2h-23l-3-4-8-2z"/>
		<path id="Path 214" class="s16" d="m113 491l6-5h2l2 5 20-2 2 6-12 3-8 5-7 3-9 2-5 9h-4l-2 5-3 1h-8l-3-10 1-2h1l9-5 8-6 5-4z"/>
		<path id="Path 215" class="s38" d="m249 487l4-1 6 1v6l-2 10h-4l-4-10z"/>
		<path id="Path 216" class="s16" d="m241 493v-6h2 6v6z"/>
		<path id="Path 217" class="s57" d="m323 495v-5l6-3 14 2v6 8h-17z"/>
		<path id="Path 218" class="s53" d="m659 495v-8h8l7 6h17l2 6-19 2-1-3z"/>
		<path id="Path 219" class="s53" d="m719 489l22-2 10 4v4l-6 2v6h-10-13l-3-4z"/>
		<path id="Path 220" class="s39" d="m815 498l10-10h9l3 9-16 9v11l-6-2z"/>
		<path id="Path 221" class="s47" d="m163 491l20-2 4 1 3 7h-6l-5 7-4 1h-6l-2-5-6-2v-5z"/>
		<path id="Path 222" class="s38" d="m207 497l3-8 15 2v4l-6 1v5l-11-2z"/>
		<path id="Path 223" class="s58" d="m343 495v-6h10v4z"/>
		<path id="Path 224" class="s45" d="m793 535v-5l-14-10v-15l9-15 7-1-2 21v13l8 1v11z"/>
		<path id="Path 225" class="s51" d="m879 511h-7l-4-4-3-18h4l7 4z"/>
		<path id="Path 226" class="s56" d="m225 495v-4l16 2h8l4 10v5l-20-2v-4z"/>
		<path id="Path 227" class="s58" d="m279 493l10-2 4 2v4l-14 1z"/>
		<path id="Path 228" class="s47" d="m751 495v-4h4l1 4z"/>
		<path id="Path 229" class="s40" d="m151 495l10-2v5l-4 1h-4z"/>
		<path id="Path 230" class="s54" d="m257 503l2-10h6l-4 10z"/>
		<path id="Path 231" class="s59" d="m261 503l4-10h14v5l-6 4 1 9-3 6h-8l-2-8z"/>
		<path id="Path 232" class="s59" d="m343 495l10-2h21l20 5 2 3h8l2 6h6l2 4h5l8 6 15-1 25 13 12-2 2 3 16 1h9v4l5 4 10 1 2 3v6h-8l-5-5-14-1-13-6h-20l-3-5-9-3h-25l-10-10h-5-6l-8-8h-10l-7-4-18-2-19-2z"/>
		<path id="Path 233" class="s37" d="m133 498l12-3h6l2 4h4v8h-4l-14-2z"/>
		<path id="Path 234" class="s45" d="m219 501v-5l6-1 8 7v4l-2 2z"/>
		<path id="Path 235" class="s59" d="m315 501l1-6h7l3 8-10 2z"/>
		<path id="Path 236" class="s11" d="m745 503v-6l6-2h5l7 2v9l4 3v13l-7-3-2-9-5-5z"/>
		<path id="Path 237" class="s60" d="m101 500l7-4-5 4z"/>
		<path id="Path 238" class="s61" d="m179 504l5-7h6 9v10 6l-18-2z"/>
		<path id="Path 239" class="s14" d="m199 507v-10h8l1 2-3 8z"/>
		<path id="Path 240" class="s62" d="m279 498l14-1 22 4 1 4-1 4-13 2-1 4h-13l-1-4h-13l-1-9z"/>
		<path id="Path 241" class="s57" d="m427 499l12-2 5 5 24 6 4 5 21-2 10 9 3 9v2h-9v-6l-6-6-21 2-14-8-25-5-4-4z"/>
		<path id="Path 242" class="s53" d="m767 522v-13l-4-3v-9h6l4 24 4 3v13l-10-4z"/>
		<path id="Path 243" class="s44" d="m821 517v-11l16-9h4v10l3 2 3 13 9 3 9 10 7 1 3 4-2 5-10-1-20-19h-7l-5 12 2 29-6-1-6-18z"/>
		<path id="Path 244" class="s57" d="m125 503l8-5 6 7-1 10-8 4-5-3v-3l2-2z"/>
		<path id="Path 245" class="s11" d="m157 499l4-1 6 2 2 5v2h-12z"/>
		<path id="Path 246" class="s17" d="m804 511l1-11 5-2h5v17l6 2v30h-11l-3-7 4-3v-8l-4-4v-10z"/>
		<path id="Path 247" class="s24" d="m205 507l3-8 11 2 12 7v4l7 4-1 6-8 3-13-9z"/>
		<path id="Path 248" class="s58" d="m404 501v-2h23v5l4 4 25 5 14 8 21-2 6 6v6l-16-1-2-3-12 2-25-13-15 1-8-6h-5l-2-4h-6z"/>
		<path id="Path 249" class="s37" d="m674 501l19-2h22v5l4 2v7l-14 2-33-2-5 6h-17l-3 4h-8l-9 13h-7l-3 3-11-2-2-18 2-8 16 2 3-4h9l9-8 26 4z"/>
		<path id="Path 250" class="s11" d="m719 506l-4-2v-5h4l3 4z"/>
		<path id="Path 251" class="s20" d="m95 505l6-5h2l-8 6z"/>
		<path id="Path 252" class="s14" d="m118 506l7-3 2 8-2 2-5-1z"/>
		<path id="Path 253" class="s57" d="m253 508v-5h4 4v6h-7z"/>
		<path id="Path 254" class="s63" d="m316 505l10-2h17l19 2-1 10h-4-18l-3 4-12 2-21-2-2-4 1-4 13-2z"/>
		<path id="Path 255" class="s25" d="m719 506l3-3h13l1 7 17 9v27h-10v-10l4-2v-7l-5-2-5-8-18-4z"/>
		<path id="Path 256" class="s37" d="m753 546v-27l-17-9-1-7h10l8 2 5 5 2 9 7 3v11l10 4 4 2 1 9h-7l-2-1h-11v4h-2l-1-4z"/>
		<path id="Path 257" class="s64" d="m175 505l4-1 2 7h-2-4z"/>
		<path id="Path 258" class="s7" d="m86 511l2-4 7-2v1z"/>
		<path id="Path 259" class="s61" d="m130 519l8-4 1-10 14 2v6l-2 6v6 6l-1 4-2 9-5 2-1-13-12-10z"/>
		<path id="Path 260" class="s55" d="m169 507v-2h6v6h-4z"/>
		<path id="Path 261" class="s65" d="m361 515l1-10 18 2 7 4v5l14 10v9h-4l-8-2v-10l-6-6z"/>
		<path id="Path 262" class="s54" d="m595 515l3-10 9 1 2 5-2 8h-9z"/>
		<path id="Path 263" class="s49" d="m104 517l5-9 9-2 2 6 5 1v3l-2 1h-6-8z"/>
		<path id="Path 264" class="s53" d="m231 508l2-2 20 2 1 1-1 12-4 1-3-6h-8l-7-4z"/>
		<path id="Path 265" class="s8" d="m907 514l-10-8 5 1z"/>
		<path id="Path 266" class="s58" d="m153 513v-6h4 12l2 4-1 6h-10l-2-4z"/>
		<path id="Path 267" class="s20" d="m199 513v-6h6l11 9-14 1z"/>
		<path id="Path 268" class="s37" d="m551 509l14-1 2 5-10 9-6-3z"/>
		<path id="Path 269" class="s58" d="m253 521l1-12h7l2 8z"/>
		<path id="Path 270" class="s56" d="m801 524l-8-1v-13l8 1 2 12z"/>
		<path id="Path 271" class="s8" d="m78 516l2-4 5-1-1 2z"/>
		<path id="Path 272" class="s20" d="m170 517l1-6h4 4l-1 8h-6z"/>
		<path id="Path 273" class="s66" d="m178 519l1-8h2l18 2 3 4 14-1 13 9v4l-1 1-9 3-9-11z"/>
		<path id="Path 274" class="s63" d="m271 517l3-6h13l1 4-1 4-15 2z"/>
		<path id="Path 275" class="s63" d="m401 535v-9l-14-10v-5h10l8 8v9l8 5 6 14 4 2v6h-6l-5-4-4-10z"/>
		<path id="Path 276" class="s48" d="m801 524l2-1-2-12h3l3 4v10l4 4v8l-4 3-6-5z"/>
		<path id="Path 277" class="s35" d="m78 516l6-3 3 10-5 7-8-1-3-8 2-4z"/>
		<path id="Path 278" class="s67" d="m151 519l2-6h5l2 4v2z"/>
		<path id="Path 279" class="s57" d="m557 522l10-9 17 2-4 12-11 1-2 3h-10z"/>
		<path id="Path 280" class="s25" d="m609 537l11 2 3-3h7l9-13h8l3-4h17l5-6 33 2v8l-4 7-12 13-41-9-11 3-8 10h-17l-3-8z"/>
		<path id="Path 281" class="s61" d="m705 515l14-2 18 4 5 8 5 2v7l-4 2v10l-11 5-8 9h-4l-9-1h-10l-3-6-7 1v10l4 4-1 4-3 2h-8l-4-17-3-10-21-1-3-3h-6l-16 12-15-2-10-7v-7h4l3 8h17l8-10 11-3 41 9 12-13 4-7z"/>
		<path id="Path 282" class="s0" d="m908 516l-1-2 8 6h-1z"/>
		<path id="Path 283" class="s67" d="m272 521l15-2 1-4h13l2 4 21 2 12-2 3-4h18v5l-7 8h-5l-2 5h-8l-3 4-9 2-4-5-11-2-4-5-7-2-6 1v7h-5l-14-1z"/>
		<path id="Path 284" class="s68" d="m343 533l2-5h5l7-8v-5h4l22 2 6 6v10l-4 2-8-5h-6l-4 5h-6l-14 4z"/>
		<path id="Path 285" class="s55" d="m580 527l4-12h11l3 4h9l2 18v2h-4l-20-4z"/>
		<path id="Path 286" class="s51" d="m109 517h8v8 7l-7-5z"/>
		<path id="Path 287" class="s52" d="m123 517l2-1 5 3v4h-2-5z"/>
		<path id="Path 288" class="s66" d="m237 522l1-6h8l3 6-1 2z"/>
		<path id="Path 289" class="s69" d="m897 545l4-23 7-6 6 4 3 4 5 7 3 4v1l3 4 9 12-3 8-7 4v11l-8 9-5 1h-10-5l-11-2h-1l-2-1v-22l4-3h17l4 4h9l3-3-3-10z"/>
		<path id="Path 290" class="s53" d="m98 522l2-5h4 5l1 10-3 3v7l3 2 1 12h-3l-4-2-3-6v-12z"/>
		<path id="Path 291" class="s29" d="m117 525v-8h6v6z"/>
		<path id="Path 292" class="s64" d="m160 519v-2h10l2 2-4 6h-5l-3-2z"/>
		<path id="Path 293" class="s64" d="m253 521l10-4h8l1 4v11l-2 4-7 2-2-3-10 1-3-2v-10l1-2z"/>
		<path id="Path 294" class="s70" d="m151 525v-6h9v4z"/>
		<path id="Path 295" class="s71" d="m163 525h5l4-6h6l32 3 9 11v2h-10l-2-4h-4l-3-6h-7l-3 4-17 1-1 3-9-2z"/>
		<path id="Path 296" class="s72" d="m423 555v-6l-4-2-6-14-8-5v-9h6l1 10 14 14h25l8 4 2 10 3 2 51-4v12l-2 2-23 2-10 7-1 11 5 8-10-1-5-2-6-1h-4v-22l-10-5-3-5-13 2h-6z"/>
		<path id="Path 297" class="s62" d="m515 555l-51 4-3-2-2-10-8-4h-25l-14-14-1-10h5l10 10h25l9 3 3 5h20l13 6 14 1 5 5z"/>
		<path id="Path 298" class="s31" d="m917 524l-3-4h1z"/>
		<path id="Path 299" class="s36" d="m70 522l1-1 3 8-1 4h-4l1-10z"/>
		<path id="Path 300" class="s2" d="m68 524l2-2v1z"/>
		<path id="Path 301" class="s47" d="m95 523l3-1 3 9-6-2z"/>
		<path id="Path 302" class="s73" d="m229 525l8-3 11 2v10l3 2 2 7v10l-8-4-1-10-7-4-2-6h-6z"/>
		<path id="Path 303" class="s74" d="m68 524l2-1-1 10-1 1h-1v-6z"/>
		<path id="Path 304" class="s54" d="m82 530l5-7h8v6l6 2v12h-4l-1-3-13-1z"/>
		<path id="Path 305" class="s50" d="m117 525l6-2h5l-2 9h-9z"/>
		<path id="Path 306" class="s53" d="m126 532l2-9h2l12 10 1 13v3h-8v-11z"/>
		<path id="Path 307" class="s73" d="m151 525l9-2 3 2v6h-12z"/>
		<path id="Path 308" class="s51" d="m887 533l-2-10 7 5-1 5z"/>
		<path id="Path 309" class="s70" d="m190 529l3-4h7l3 6z"/>
		<path id="Path 310" class="s71" d="m291 533v-7l6-1 7 2 4 5 11 2 4 5 9-2 3-4h8l4 6v10l-4 6-16 2-8-8h-4l-7-9-11-3z"/>
		<path id="Path 311" class="s57" d="m521 529l1-4h6l15 8-3 5-5 1-5-5-7-1z"/>
		<path id="Path 312" class="s51" d="m833 566l-2-29 5-12h7l20 19 10 1-3 9-11 9v12h-1l-8-2-9-3z"/>
		<path id="Path 313" class="s49" d="m111 551l-1-12-3-2v-7l3-3 7 5h9l9 6v11l-19 4z"/>
		<path id="Path 314" class="s24" d="m567 531l2-3 11-1 5 8 20 4v7l10 7v6l12 8 12-5 5-7 18-2 5 4h12l4 17-7 12 8 2h-8l-8-2-3-18-14-2-8 2-4 5-29-4-21-24-12-6h-10z"/>
		<path id="Path 315" class="s1" d="m62 553l4-1 1-24v6 10 9z"/>
		<path id="Path 316" class="s43" d="m73 533l1-4 8 1 1 9h-2-8z"/>
		<path id="Path 317" class="s73" d="m172 533l1-3 17-1 13 2h4l2 4-2 4-7-2-26 2z"/>
		<path id="Path 318" class="s75" d="m228 530l1-1h6l2 6h-7z"/>
		<path id="Path 319" class="s58" d="m506 531v-2h15l2 4 7 1 5 5v4h-12l-2-3-10-1-5-4z"/>
		<path id="Path 320" class="s76" d="m219 533l9-3 2 5h7l7 4 1 10 8 4 3 12h11l7-3 3-5h12l13 9 6 5-1 22-10 5-17-3-4-8-7-10h-9l-2 3-7 2-2-11-10-10v-7l-5-6-11-1-18 8-32 2-8-3-6-8-10-1-1-1 2-9 12 1 4 10 41 1 9-3 3-9z"/>
		<path id="Path 321" class="s77" d="m282 569l8 1 4 14-3 3-10-2-2-14z"/>
		<path id="Path 322" class="s78" d="m367 535l4-5h6l8 5v18l-5 3-6-1z"/>
		<path id="Path 323" class="s75" d="m150 535l1-4h12l9 2 2 6 26-2 7 2 2-4h10l-3 9-9 3-41-1-4-10z"/>
		<path id="Path 324" class="s78" d="m272 532l14 1-1 10-12 1-8 9h-12v-10h8l2-5 7-2z"/>
		<path id="Path 325" class="s14" d="m543 533l14-2h10v8l-2 6h-4l-26-2v-4l5-1z"/>
		<path id="Path 326" class="s24" d="m925 535l-3-4 4 2z"/>
		<path id="Path 327" class="s42" d="m68 534l1-1h4v6h-3z"/>
		<path id="Path 328" class="s73" d="m285 543l1-10h5l6 4 2 9 8 9 11 3 9 9h11l6-6 7-4 18 7 5 7 7 2v4l-7 6-11 2-2-4-14-2-6 7v7l-12 2h-8l-8-2v-5l7-8-1-10-10-8h-5z"/>
		<path id="Path 329" class="s71" d="m385 535l4-2 8 2 6 24 6 4v4h-10l-8-11-6-3z"/>
		<path id="Path 330" class="s58" d="m67 544v-10h1l2 5h3 8v5l-10 3z"/>
		<path id="Path 331" class="s71" d="m251 536l10-1 2 3-2 5h-8z"/>
		<path id="Path 332" class="s78" d="m347 539l14-4v4l-10 10v8l-7 4-1-6 4-6z"/>
		<path id="Path 333" class="s70" d="m351 557v-8l10-10v-4h6l7 20 6 1 5-3 6 3 8 11v10l-8 2-10-2v-4l-7-2-5-7z"/>
		<path id="Path 334" class="s67" d="m409 567v-4l-6-4-6-24h4l7 6 4 10 5 4h6l4 8h6l1 12 5 10h-10l-5-9h-4l-6-9z"/>
		<path id="Path 335" class="s52" d="m788 550l5-15h8l6 5 3 7v13l-17-7z"/>
		<path id="Path 336" class="s47" d="m928 540l-3-4 3 2z"/>
		<path id="Path 337" class="s70" d="m344 561l-6 6h-11l-9-9-11-3-8-9-2-9 11 3 7 9h4l8 8 16-2z"/>
		<path id="Path 338" class="s31" d="m928 540v-2l11 11 2 7h-1l-3-4z"/>
		<path id="Path 339" class="s55" d="m81 544v-5h2l13 1 1 3v6h-5z"/>
		<path id="Path 340" class="s64" d="m561 545h4l2-6h10l12 6 21 24 29 4 4-5 8-2 14 2 3 18-2 1-15-2-9-6-16 2h-19l-1-6-29-20-10 1v10l-4 5-26 2-6-5-16-1v-12-6h8l8 6 24 2 6-4z"/>
		<path id="Path 341" class="s61" d="m97 549v-6h4l3 6z"/>
		<path id="Path 342" class="s75" d="m253 553h12l8-9 12-1 19 19h5l10 8 1 10-7 8v5h-6l1-22-6-5-13-9h-12l-3 5-7 3h-11z"/>
		<path id="Path 343" class="s24" d="m523 549v-6h12l26 2v8l-6 4-24-2z"/>
		<path id="Path 344" class="s14" d="m615 553l15 2 16-12h6l3 3 21 1 3 10h-12l-5-4-18 2-5 7-12 5-12-8z"/>
		<path id="Path 345" class="s63" d="m67 553v-9l4 3 1 8 5 1v9h-4l-6-7z"/>
		<path id="Path 346" class="s59" d="m71 547l10-3 11 5-1 6-14 1-5-1z"/>
		<path id="Path 347" class="s68" d="m143 546l5-2 1 1-3 6-3-2z"/>
		<path id="Path 348" class="s77" d="m146 551l3-6 10 1 6 8 8 3 32-2 18-8 11 1 5 6v7l10 10 2 11-5 3v7 5h-9l-2 4-18-2h-6l-3-6-36 4-15-7-5-9-7-2-26 3-9 3-2 6-8-2-4-2-1-1-6-21 5-2-1-6 15-6h3l5 2 6 3z"/>
		<path id="Path 349" class="s79" d="m190 572l1 8-7-1z"/>
		<path id="Path 350" class="s80" d="m889 557v-9l8-3 22 3 3 10-3 3h-9l-4-4z"/>
		<path id="Path 351" class="s44" d="m720 560h4l8-9 11-5h10l6 1 1 4-1 7-17-1-7 11 2 11 11 12v5h-7l-8-1h-8l-4-3-4-27z"/>
		<path id="Path 352" class="s22" d="m810 560v-13h11l6 18-5-2-9-3z"/>
		<path id="Path 353" class="s76" d="m91 555l1-6h5 7l4 2-15 6z"/>
		<path id="Path 354" class="s66" d="m116 553l19-4h8l3 2-24 5z"/>
		<path id="Path 355" class="s81" d="m759 558l1-7h2l-2 8z"/>
		<path id="Path 356" class="s80" d="m927 575v-11l7-4 3-8 3 4 8 18v9l-6 2-3-6z"/>
		<path id="Path 357" class="s70" d="m61 554l1-1h5v5l-3 3h-2l-1-4-1-1v-1z"/>
		<path id="Path 358" class="s25" d="m695 568l-4-4v-10l7-1 3 6-2 9z"/>
		<path id="Path 359" class="s0" d="m59 555h1v1h-1z"/>
		<path id="Path 360" class="s62" d="m77 556l14-1 2 2 1 6-5 2-10 1-2-1z"/>
		<path id="Path 361" class="s20" d="m515 567l16 1 6 5 26-2 4-5v-10l10-1 29 20 1 6-2 4h-15l-1-5-10-4h-9l-3 5-8-2-21 2-6 7-1 12h-2l-11-1h-3l4-15-4-3-2-12z"/>
		<path id="Path 362" class="s23" d="m948 583v-9l-8-18h1l6 8 2 10v9z"/>
		<path id="Path 363" class="s51" d="m748 596v-5l-11-12-2-11 7-11 17 1 1 1v2l2 6-9 2 2 18 5 9h-11z"/>
		<path id="Path 364" class="s78" d="m64 561l3-3 6 7-6 3h-1l-2-3z"/>
		<path id="Path 365" class="s45" d="m699 568l2-9h10v6l-9 6h-3z"/>
		<path id="Path 366" class="s49" d="m711 565v-6l9 1-3 5z"/>
		<path id="Path 367" class="s18" d="m64 565l-2-4h2z"/>
		<path id="Path 368" class="s63" d="m433 563l13-2 3 5 10 5v22l-8 3 4 5v8l-4 2v-9l-5-2-5-7-2-8-5-10z"/>
		<path id="Path 369" class="s82" d="m762 567l-2-6 7 9h-3z"/>
		<path id="Path 370" class="s75" d="m67 568l6-3h4l2 1-2 10-4-1-6-4z"/>
		<path id="Path 371" class="s76" d="m79 566l10-1 6 21-2-1-16-7v-2z"/>
		<path id="Path 372" class="s39" d="m702 571l9-6h6l4 27-2 1h-2l-6-2-1-12-7-2z"/>
		<path id="Path 373" class="s78" d="m399 577v-10h10 5l6 9h4l5 9h10l2 8-14-2-11-12z"/>
		<path id="Path 374" class="s50" d="m760 596l-5-9-2-18 9-2 2 3 16 7v3l-9 2 4 14z"/>
		<path id="Path 375" class="s0" d="m67 571l-1-3h1z"/>
		<path id="Path 376" class="s52" d="m694 572l1-4h4v3z"/>
		<path id="Path 377" class="s66" d="m484 597l-5-8 1-11 10-7 23-2 2 12 4 3-4 15h-10l-18-1z"/>
		<path id="Path 378" class="s23" d="m780 577l-16-7h3l11 2 3 5z"/>
		<path id="Path 379" class="s48" d="m694 572l5-1h3l1 6v14l-4-1h-3l-5-2v-14z"/>
		<path id="Path 380" class="s52" d="m684 588l-8-2 7-12h8v14h-2z"/>
		<path id="Path 381" class="s21" d="m949 583v-9l2 1v8z"/>
		<path id="Path 382" class="s83" d="m77 578l-4-3 4 1z"/>
		<path id="Path 383" class="s8" d="m867 578l-9-3h1z"/>
		<path id="Path 384" class="s50" d="m919 584l8-9 12 4 3 6-1 1h-4-9-4z"/>
		<path id="Path 385" class="s66" d="m531 600l1-12 6-7 21-2 8 2 3-5h9l10 4 1 5-1 8-21 1-1 7-3 2h-3-1l-1-5-6 1z"/>
		<path id="Path 386" class="s61" d="m258 580l2-3h9l7 10-18-5z"/>
		<path id="Path 387" class="s75" d="m363 585l11-2 7-6 10 2 8-2 17 2 11 12 14 2 5 7-3 11h-6l-28-1v-3l2-6-3-7-8-2-3-5-20 1v19h-6-6l-4-11z"/>
		<path id="Path 388" class="s17" d="m703 591v-14l7 2 1 12-3 1z"/>
		<path id="Path 389" class="s84" d="m780 580v-3h1l4 5z"/>
		<path id="Path 390" class="s76" d="m108 591l2-6 9-3 26-3 7 2 5 9 15 7 36-4 3 6-8 7v10h-6l-16-4-8-1-6-1-2-1-8-1-7-2-1-1-16-5-3-1-4-1-6-2-12-4z"/>
		<path id="Path 391" class="s83" d="m149 605h1v1h-1z"/>
		<path id="Path 392" class="s85" d="m341 593v-7l6-7 14 2 2 4-2 11 4 11-5 4-9-2h-2v-6z"/>
		<path id="Path 393" class="s72" d="m626 581l16-2 9 6-9 7-9 1v-5l-6-3z"/>
		<path id="Path 394" class="s74" d="m251 582l7-2v2l-3 4-7 1v5h-2v-7z"/>
		<path id="Path 395" class="s80" d="m775 596l-4-14 9-2 5 2 2 2v3l2-1 2 9-3 1-4 1z"/>
		<path id="Path 396" class="s8" d="m887 583l-13-3 11 2z"/>
		<path id="Path 397" class="s63" d="m590 585h15l2-4h19l1 4 6 3v5l-10 3-14 1-15 1h-1l-4-5z"/>
		<path id="Path 398" class="s38" d="m248 592v-5l7-1 3-4 18 5 4 8-9 7v3l-13-4-3-8z"/>
		<path id="Path 399" class="s60" d="m942 585l6-2h1l-2 4-6-1z"/>
		<path id="Path 400" class="s7" d="m789 586l-2 1v-3z"/>
		<path id="Path 401" class="s7" d="m914 585l5-1 5 2-10 1z"/>
		<path id="Path 402" class="s83" d="m96 587l-3-2 2 1z"/>
		<path id="Path 403" class="s3" d="m914 587l-10-2h10z"/>
		<path id="Path 404" class="s8" d="m666 587l2-1 8 2z"/>
		<path id="Path 405" class="s23" d="m788 596l3-1-2-9 5 3v6z"/>
		<path id="Path 406" class="s2" d="m937 586v2l-9-2z"/>
		<path id="Path 407" class="s76" d="m377 607v-19l20-1 3 5 8 2 3 7-2 6-4 3-11 3z"/>
		<path id="Path 408" class="s8" d="m696 590l-7-2h2z"/>
		<path id="Path 409" class="s83" d="m108 592l-8-3 8 2z"/>
		<path id="Path 410" class="s23" d="m708 592l3-1 6 2z"/>
		<path id="Path 411" class="s54" d="m246 597v-5h2l7 1 3 8h-1z"/>
		<path id="Path 412" class="s3" d="m719 593l2-1 4 3z"/>
		<path id="Path 413" class="s67" d="m297 598l10-5h6l8 2 1 6-4 5-9-2-6-3z"/>
		<path id="Path 414" class="s78" d="m329 595l12-2 8 10v6l-17-4-3-3z"/>
		<path id="Path 415" class="s45" d="m455 601l-4-5 8-3h4v8z"/>
		<path id="Path 416" class="s46" d="m463 601v-8l6 1 1 3-1 4z"/>
		<path id="Path 417" class="s67" d="m567 601l1-7 21-1 4 5-11 2z"/>
		<path id="Path 418" class="s70" d="m321 595h8v7l-7-1z"/>
		<path id="Path 419" class="s86" d="m470 597l-1-3 5 2z"/>
		<path id="Path 420" class="s45" d="m271 605v-3l9-7 17 3 6 3 1 4-3 6-4 1v6h-6l-10-2-3-6-5-2z"/>
		<path id="Path 421" class="s38" d="m470 597l4-1 10 1 3 1-5 8h-8l-5-5z"/>
		<path id="Path 422" class="s8" d="m784 597l-35-1h11 15z"/>
		<path id="Path 423" class="s76" d="m217 599l18 2 2-4h9l11 4v6h-15l-1 8h-19l-5-5z"/>
		<path id="Path 424" class="s56" d="m487 598l18 1-4 10v12h-8-1-10-1-2l-7-10 2-5h8z"/>
		<path id="Path 425" class="s16" d="m531 600l22-1v4l-4 3 2 17h-10l-6-2-6-12v-9z"/>
		<path id="Path 426" class="s22" d="m553 599l6-1 1 5h-1-6z"/>
		<path id="Path 427" class="s1" d="m582 600l11-2h1z"/>
		<path id="Path 428" class="s85" d="m203 616v-10l8-7h6v11l5 5h19l6 4h11l-1 8-24-5-10-1-5-1-5-1-7-1z"/>
		<path id="Path 429" class="s48" d="m501 621v-12l4-10h10 3l1 10v12h-16z"/>
		<path id="Path 430" class="s35" d="m519 609l-1-10 11 1v9z"/>
		<path id="Path 431" class="s73" d="m443 611l3-11 5 2v9l-4 1z"/>
		<path id="Path 432" class="s1" d="m567 601l15-1-18 3z"/>
		<path id="Path 433" class="s66" d="m257 607v-6h1l13 4 2 3-2 4h-11z"/>
		<path id="Path 434" class="s42" d="m304 605l-1-4 6 3z"/>
		<path id="Path 435" class="s58" d="m318 606l4-5 7 1 3 3-4 4z"/>
		<path id="Path 436" class="s54" d="m455 609v-8h8v8z"/>
		<path id="Path 437" class="s11" d="m463 609v-8h6l5 5-2 5z"/>
		<path id="Path 438" class="s17" d="m551 623l-2-17 4-3h6l1 10 1 1 1 7-2 2z"/>
		<path id="Path 439" class="s21" d="m560 613l-1-10h1 1v8z"/>
		<path id="Path 440" class="s56" d="m304 605l5-1 9 2 10 3 5 6-4 5v6l-16 1 2-4-6-1-12-4v-6l4-1z"/>
		<path id="Path 441" class="s87" d="m328 609l4-4 17 4h2l1 8 11 2 2 4-2 2h-14l-7-1-2-5-7-4z"/>
		<path id="Path 442" class="s75" d="m241 615l1-8h15l3 5-2 7h-11z"/>
		<path id="Path 443" class="s65" d="m360 611l5-4h6v10h-8z"/>
		<path id="Path 444" class="s68" d="m371 617v-10h6l17 6 11-3h4l28 1 2 9-1 1-29 1-18 3v-4h-6-11z"/>
		<path id="Path 445" class="s85" d="m405 610l4-3v3z"/>
		<path id="Path 446" class="s68" d="m271 612l2-4 5 2 3 6 10 2v9l-6 1 2 4h-3l-6-2-2-2h-5z"/>
		<path id="Path 447" class="s88" d="m363 619l-11-2-1-8 9 2 3 6z"/>
		<path id="Path 448" class="s88" d="m451 611l4-2h8l9 2 7 10h-16l-16-1v-8z"/>
		<path id="Path 449" class="s17" d="m519 621v-12h10l6 12-2 1h-12z"/>
		<path id="Path 450" class="s59" d="m439 620l-2-9h6l4 1v8z"/>
		<path id="Path 451" class="s8" d="m560 613l1-2v3z"/>
		<path id="Path 452" class="s78" d="m258 619l2-7h11v16l-3-1h-8-3z"/>
		<path id="Path 453" class="s38" d="m329 626v-6l4-5 7 4 2 5-3 4z"/>
		<path id="Path 454" class="s2" d="m206 618l-9-2h6z"/>
		<path id="Path 455" class="s59" d="m363 619v-2h8l3 4-3 2h-6z"/>
		<path id="Path 456" class="s62" d="m291 627v-9h6l12 4-1 5h-4z"/>
		<path id="Path 457" class="s46" d="m371 623l3-2h11l-1 6-10 2h-3z"/>
		<path id="Path 458" class="s57" d="m384 627l1-6h6v4z"/>
		<path id="Path 459" class="s8" d="m481 621h-18 16z"/>
		<path id="Path 460" class="s15" d="m503 622l-10-1h8 2z"/>
		<path id="Path 461" class="s26" d="m503 622v-1h16l2 1z"/>
		<path id="Path 462" class="s63" d="m521 622h12v1z"/>
		<path id="Path 463" class="s74" d="m533 622l2-1 6 2h-8z"/>
		<path id="Path 464" class="s61" d="m308 627l1-5 6 1-2 4z"/>
		<path id="Path 465" class="s42" d="m363 625l2-2h6v6l-2 1-3 1h-4z"/>
		<path id="Path 466" class="s56" d="m339 628l3-4 7 1-1 8z"/>
		<path id="Path 467" class="s41" d="m348 633l1-8h14l-1 6-3 3 3 2 1 1 3 4v8h-5l-3-5-5-1z"/>
		<path id="Path 468" class="s13" d="m313 627l16-1 10 2 9 5 5 10-2 12h-5-2l-10-4-5-1h-1l-4-2h-1l-6-4h-7l-6-4-5-3-7-4-1-4 13-2h4z"/>
		<path id="Path 469" class="s86" d="m287 632l-2-4 6-1h13l-13 2 1 4 7 4-3 1-1-1-3-1z"/>
		<path id="Path 470" class="s8" d="m369 630l2-1h3z"/>
		<path id="Path 471" class="s19" d="m362 636l-3-2 3-3h4l-5 1z"/>
		<path id="Path 472" class="s3" d="m292 636l-8-4h3z"/>
		<path id="Path 473" class="s31" d="m296 638l3-1 5 3h-1z"/>
		<path id="Path 474" class="s15" d="m310 644l-7-4h1z"/>
		<path id="Path 475" class="s7" d="m366 649v-8l3 3v10h-2z"/>
		<path id="Path 476" class="s19" d="m310 644h7l6 4z"/>
		<path id="Path 477" class="s6" d="m351 655l2-12 5 1 3 5-1 8-9-1z"/>
		<path id="Path 478" class="s34" d="m360 657l1-8h5l1 5v4h-1l-1 1h-1l-1-1h-1z"/>
		<path id="Path 479" class="s89" d="m365 658h1v1h-1z"/>
		<path id="Path 480" class="s79" d="m363 658h1v1h-1z"/>
		<path id="Path 481" class="s26" d="m334 652l-5-2 5 1z"/>
		<path id="Path 482" class="s15" d="m334 652v-1l10 4z"/>
		<path id="Path 483" class="s23" d="m367 658v-4h2v4z"/>
		<path id="Path 484" class="s7" d="m350 657l-4-2h5v1z"/>
		<path id="Path 485" class="s15" d="m350 657l1-1 9 1 2 1v1z"/>
		<path id="Path 486" class="s26" d="m362 658h1v1h-1z"/>
		<path id="Path 487" class="s90" d="m366 659v-1h1 2v1h-1z"/>
		<path id="Path 488" class="s8" d="m363 659h1v1h-1z"/>
		<path id="Path 489" class="s91" d="m364 659h1v1h-1z"/>
		<path id="Path 490" class="s90" d="m365 659h1v1h-1z"/>
		<path id="Path 491" class="s21" d="m366 660v-1h2v1z"/>
		<path id="Path 492" class="s1" d="m368 659h1v1h-1z"/>
	</g>
</svg>