<svg version="1.2" xmlns="http://www.w3.org/2000/svg" viewBox="0 0 1000 1000" width="1000" height="1000">
	<title>Ictiobus_bubalus</title>
	<style>
		.s0 { opacity: .2;fill: #d6cdca } 
		.s1 { opacity: .6;fill: #dfdcde } 
		.s2 { opacity: .2;fill: #e7e6e7 } 
		.s3 { opacity: .3;fill: #938679 } 
		.s4 { opacity: .8;fill: #beb9b7 } 
		.s5 { fill: #807880 } 
		.s6 { opacity: .8;fill: #dfdbdc } 
		.s7 { opacity: .7;fill: #686f60 } 
		.s8 { fill: #8d847d } 
		.s9 { opacity: 1;fill: #383530 } 
		.s10 { fill: #574d41 } 
		.s11 { opacity: 1;fill: #464038 } 
		.s12 { opacity: .2;fill: #adb8b9 } 
		.s13 { opacity: .5;fill: #abadb7 } 
		.s14 { fill: #63584a } 
		.s15 { fill: #b6acac } 
		.s16 { fill: #69645a } 
		.s17 { opacity: .7;fill: #7c7b80 } 
		.s18 { fill: #766451 } 
		.s19 { opacity: 1;fill: #866650 } 
		.s20 { opacity: 1;fill: #a27f63 } 
		.s21 { opacity: .4;fill: #e4e2e3 } 
		.s22 { fill: #83705e } 
		.s23 { fill: #bc9a7f } 
		.s24 { fill: #c6ab98 } 
		.s25 { fill: #4b4d47 } 
		.s26 { opacity: .8;fill: #a99691 } 
		.s27 { fill: #a18977 } 
		.s28 { fill: #8d7967 } 
		.s29 { fill: #d1bab0 } 
		.s30 { fill: #c8b0a5 } 
		.s31 { fill: #a99484 } 
		.s32 { opacity: .8;fill: #5f5f48 } 
		.s33 { opacity: 1;fill: #162026 } 
		.s34 { fill: #dac5bb } 
		.s35 { fill: #99918e } 
		.s36 { opacity: .4;fill: #c5b2a5 } 
		.s37 { fill: #a49d9c } 
		.s38 { opacity: .2;fill: #5d5657 } 
		.s39 { opacity: .6;fill: #948878 } 
		.s40 { opacity: .4;fill: #a49496 } 
		.s41 { fill: #736f66 } 
		.s42 { fill: #b2a297 } 
		.s43 { opacity: 1;fill: #262d2d } 
		.s44 { fill: #67737a } 
		.s45 { opacity: .3;fill: #688c95 } 
		.s46 { opacity: .6;fill: #686b7d } 
		.s47 { opacity: 1;fill: #0d1821 } 
		.s48 { opacity: .5;fill: #895d4e } 
		.s49 { opacity: .6;fill: #c8c2c3 } 
		.s50 { opacity: .6;fill: #5d4a3e } 
		.s51 { fill: #7b868d } 
		.s52 { opacity: 1;fill: #364042 } 
		.s53 { opacity: 1;fill: #14252e } 
		.s54 { fill: #595c56 } 
		.s55 { fill: #2d4653 } 
		.s56 { opacity: 1;fill: #1a2b36 } 
		.s57 { fill: #384f5b } 
		.s58 { opacity: 1;fill: #4f6269 } 
		.s59 { fill: #737d82 } 
		.s60 { fill: #546b76 } 
		.s61 { fill: #beb8bf } 
		.s62 { fill: #c6c0c6 } 
		.s63 { fill: #909295 } 
		.s64 { opacity: 1;fill: #213442 } 
		.s65 { fill: #c8c7cf } 
		.s66 { fill: #d8d2d7 } 
		.s67 { fill: #315367 } 
		.s68 { opacity: 1;fill: #3c6278 } 
		.s69 { fill: #426985 } 
		.s70 { fill: #a5959b } 
		.s71 { fill: #646886 } 
		.s72 { fill: #9aa2ad } 
		.s73 { fill: #5b859d } 
		.s74 { fill: #406d83 } 
		.s75 { fill: #a9b2bf } 
		.s76 { fill: #487992 } 
		.s77 { fill: #6a8fa6 } 
		.s78 { fill: #dfdae3 } 
		.s79 { fill: #4c7294 } 
		.s80 { fill: #7d95aa } 
		.s81 { fill: #82a4b2 } 
		.s82 { fill: #6fa0ac } 
		.s83 { opacity: .5;fill: #9788aa } 
		.s84 { fill: #8f6150 } 
		.s85 { opacity: 1;fill: #6a3b41 } 
		.s86 { opacity: .9;fill: #9c7db1 } 
		.s87 { opacity: .7;fill: #60b9be } 
		.s88 { opacity: .8;fill: #44ada5 } 
		.s89 { opacity: .3;fill: #c8398b } 
		.s90 { opacity: 1;fill: #3a7d7d } 
		.s91 { opacity: .4;fill: #a8b632 } 
	</style>
	<g id="Background">
		<path id="Path 0" class="s0" d="m168 448h1v1h-1z"/>
		<path id="Path 1" class="s1" d="m484 333l1-2h21l1 1v1l-14 1h-8z"/>
		<path id="Path 2" class="s2" d="m506 331h1v1h-1z"/>
		<path id="Path 3" class="s2" d="m554 332v-1h3v1z"/>
		<path id="Path 4" class="s3" d="m557 332v-1h3v1z"/>
		<path id="Path 5" class="s0" d="m560 331h1v1h-1z"/>
		<path id="Path 6" class="s4" d="m540 336l14-4h3l-2 3-8 2h-6-1z"/>
		<path id="Path 7" class="s5" d="m555 335l2-3h3 1l-1 4-3 1z"/>
		<path id="Path 8" class="s0" d="m560 336l1-4-1 5z"/>
		<path id="Path 9" class="s6" d="m463 335l6-2v2h-2z"/>
		<path id="Path 10" class="s4" d="m469 335v-2h7v2z"/>
		<path id="Path 11" class="s7" d="m476 335v-2h8l1 1-4 1z"/>
		<path id="Path 12" class="s8" d="m493 334l14-1h2v2z"/>
		<path id="Path 13" class="s6" d="m509 335v-2l5 2z"/>
		<path id="Path 14" class="s9" d="m481 335l4-1h8l16 1h5 1l3 1 12 3h9l1 7-4 3-4 2-8 8v4 3l-4 5h-13l-17-14-8-2-5-7z"/>
		<path id="Path 15" class="s4" d="m448 336l11-1-6 2h-5z"/>
		<path id="Path 16" class="s10" d="m453 337l6-2h4 4l-2 22 10 7 17 4 1 5v2l-26-4-6-12-8-5z"/>
		<path id="Path 17" class="s11" d="m493 373l-1-5-17-4-10-7 2-22h2 7 5l-4 13 5 7 8 2 17 14h13l4-5h2l6 4h1l8 3h1l4 2h1l6 3v5l-30-2-3-4z"/>
		<path id="Path 18" class="s12" d="m518 336l-3-1h3z"/>
		<path id="Path 19" class="s13" d="m518 336v-1l11 2 1 1v1z"/>
		<path id="Path 20" class="s14" d="m547 337l8-2 2 2-9 5z"/>
		<path id="Path 21" class="s12" d="m433 340l7-4h8v1l-6 1z"/>
		<path id="Path 22" class="s2" d="m529 337l5-1v1l-4 1z"/>
		<path id="Path 23" class="s12" d="m534 337v-1h6v1z"/>
		<path id="Path 24" class="s1" d="m557 337l3-1v1l-3 4-10 3 1-2z"/>
		<path id="Path 25" class="s14" d="m442 338l6-1h5v17l8 5 6 12-3 3-14-1-13-11v-11z"/>
		<path id="Path 26" class="s15" d="m530 338l4-1h6 1l-2 2h-9z"/>
		<path id="Path 27" class="s11" d="m539 339l2-2h6l1 5-1 2-5 2h-2z"/>
		<path id="Path 28" class="s16" d="m433 340l9-2-5 13h-8l-4-7 4-3 2-1z"/>
		<path id="Path 29" class="s0" d="m428 341l3-1-2 1z"/>
		<path id="Path 30" class="s17" d="m416 345l12-4h1l-4 3z"/>
		<path id="Path 31" class="s18" d="m416 345l9-1 4 7h8v11l13 11 14 1 3-3 26 4 2 6h12l12 6 2 14-11 2-15-2-6-4h-13l-3-6h-4l-2 7h-2l-5-7h-8l-12-5-2-5h-8l-15-14-1-9 5-3-5-9v-1z"/>
		<path id="Path 32" class="s0" d="m401 350l13-5v1l-7 3z"/>
		<path id="Path 33" class="s19" d="m407 349l7-3 5 9-5 3h-6z"/>
		<path id="Path 34" class="s2" d="m536 349l4-3h2z"/>
		<path id="Path 35" class="s20" d="m401 350l6-1 1 9-13 7v7l8 7v5l-10 2-11-2-5 1-8-8h-6-11l-2 8-23-1-5 4-2-4h-4l-5 5-7-3-13 8-2 5-6-1-4-2-5 6-5-3v-16l4-3 4-2 2-1 5-2 34-12 9-3h2l5-2h2l4-1 7-2h2l7-2h2l6-1 10-2z"/>
		<path id="Path 36" class="s21" d="m364 351l10-1-10 2z"/>
		<path id="Path 37" class="s1" d="m358 353l6-2v1z"/>
		<path id="Path 38" class="s12" d="m340 356l7-1-7 2z"/>
		<path id="Path 39" class="s0" d="m336 358l4-2v1z"/>
		<path id="Path 40" class="s22" d="m403 379l-8-7v-7l13-7h6l1 9 15 14-1 2-16-2z"/>
		<path id="Path 41" class="s0" d="m524 366v-3l2 3z"/>
		<path id="Path 42" class="s14" d="m493 375v-2l27 4 3 4v6h-4l-12-6h-12z"/>
		<path id="Path 43" class="s12" d="m553 378l-6-3 15 5h-3z"/>
		<path id="Path 44" class="s23" d="m350 385l2-8h11v8z"/>
		<path id="Path 45" class="s24" d="m363 385v-8h6l8 8 5-1-1 6-16-1z"/>
		<path id="Path 46" class="s25" d="m553 383v-5l6 2z"/>
		<path id="Path 47" class="s23" d="m403 384v-5l10 2v6h-8z"/>
		<path id="Path 48" class="s26" d="m268 381l5-1-4 3h-1z"/>
		<path id="Path 49" class="s10" d="m553 383l6-3h3 4l5 2h2l8 1h2l8 2 1 2-1 8 13 14h5l3 4h9l6 5h9l3 5h5 5l8 6 13-1h2l4 2h3l7 2 6 1h4l-10 15-7 1-6 5h-5l-3-5h-12l-2-6h-6l-2 4-18-2-2-8-5-4h-9l-5-8h-8l-12-14h-7l-11-14h-7l-2-4-9-4-9 1-4-3h-12v-6z"/>
		<path id="Path 50" class="s4" d="m261 385l7-4v2z"/>
		<path id="Path 51" class="s27" d="m413 387v-6l16 2 1-2h8l2 5 12 5v5l-11 7-8-2-2-10h-10l-3-4z"/>
		<path id="Path 52" class="s28" d="m261 385l7-2h1v16h-5l-9 8-1-3h-4l-5 7-4-1v-7l-3-2v-1l17-12 3-2z"/>
		<path id="Path 53" class="s29" d="m289 399l2-5 13-8 7 3 5-5h4l2 4 5-4 23 1h13l2 4 16 1v7l4 3 6 15-4 20-12 14-5 4h-6l-2-4-31 2-3-6h-15l-2 6-6 3v16l-10 3h-8l-1 4h-5v-14l3-4 9-6 7-10 7-1 5-5 55-2v-12l-5-2v-8l-9-10h-18l-7-3-3-5-7 2-12-2-3 4z"/>
		<path id="Path 54" class="s30" d="m381 390l1-6 11 2 3 9h7l3 6 7 2v8l-6 3-2 17-10 6-8-2 4-20-6-15-4-3z"/>
		<path id="Path 55" class="s24" d="m393 386l10-2 2 3h8 5l3 4h10l2 10-6 3-4 20-4 5-8 2h-6l2-17 6-3v-8l-7-2-3-6h-7z"/>
		<path id="Path 56" class="s6" d="m592 387l-1-2h7v2z"/>
		<path id="Path 57" class="s0" d="m598 387v-2l13 5z"/>
		<path id="Path 58" class="s0" d="m254 388l4-2-3 2z"/>
		<path id="Path 59" class="s19" d="m521 401l-2-14h4 12l4 3v8l-4 3z"/>
		<path id="Path 60" class="s11" d="m644 423h-5l-3-5h-9l-6-5h-9l-3-4h-5l-13-14 1-8h6l13 3 3 1 5 4-4 3v6l24 10z"/>
		<path id="Path 61" class="s1" d="m238 400l3-5 13-7h1z"/>
		<path id="Path 62" class="s14" d="m539 390l9-1 9 4 2 4h7l11 14h7l12 14h8l5 8h9l5 4 2 8-30 4-4-6h-8l-9-8h-11l-1-9-7-7v-10l-11-10-5-1z"/>
		<path id="Path 63" class="s31" d="m441 403l11-7v-5h8l5 7-1 31 7 5 2 10-4 7-5 2-3 8h-10l-35-2-10-7v-5l5-4v-12l8-2 4-5 12-1v-5l6-6z"/>
		<path id="Path 64" class="s23" d="m467 398l2-7h4l3 6-4 4z"/>
		<path id="Path 65" class="s3" d="m619 395l-5-4 16 7v1z"/>
		<path id="Path 66" class="s32" d="m918 394l1-3 8 2 2 6-2 5-2 1 1-9z"/>
		<path id="Path 67" class="s1" d="m894 395l6-2v2z"/>
		<path id="Path 68" class="s26" d="m900 395v-2h10v2z"/>
		<path id="Path 69" class="s32" d="m910 395v-2l6 1z"/>
		<path id="Path 70" class="s33" d="m910 395l6-1h2l8 2-1 9-8 7h-8-1l-12 2-3 1h-1l-4 2-4 2-6 3v3l-11 4-7-6-34-4-3 4h-8l-12 11-2 24 3 2 3 13-1 40 9 17 11 10 1 9h-3-3l-10-3h-2l-5-2-4-2v-1l1-67-6-23-6-10v-20l12-4 19-5 12-3h1l5-2 10-2h1l16-4 7-2h3l7-1 11-3h1 6z"/>
		<path id="Path 71" class="s34" d="m289 399h14l3-4 12 2 7-2 3 5 7 3h18l9 10v8l5 2v12l-55 2-5 5-7 1-7 10-9 6-3 4v14l-8 2h-2l-2-8-2-20-4-19 3-18 4-7 9-2 4-7z"/>
		<path id="Path 72" class="s9" d="m644 423l-5-9-24-10v-6l4-3 11 4 1 1 23 9 2 2-7 3v9z"/>
		<path id="Path 73" class="s26" d="m882 396l11-1-11 3v-1z"/>
		<path id="Path 74" class="s29" d="m269 399l5 3 5-6 4 2-4 7-9 2-4 7-3 18 4 19h-4l-4-11-5-5h-5l-1-6-5-3-2-6 2-1h8l4-12 9-8z"/>
		<path id="Path 75" class="s12" d="m874 398l8-2v1l-7 1z"/>
		<path id="Path 76" class="s28" d="m472 401l4-4h13l6 4v8l6 10 7 1 1 11 8 10 13 2v8l-7 6h-8-5l-3-8-5-2-2-15-8-6h-12l-3-9-6-4z"/>
		<path id="Path 77" class="s35" d="m875 398l7-1v1l-7 1z"/>
		<path id="Path 78" class="s27" d="m473 444l-2-10-7-5 1-31h2l5 3-1 12 6 4 3 9h12l8 6 2 15-7 2z"/>
		<path id="Path 79" class="s18" d="m535 401l4-3 5 1 11 10v10l-14-4v-6l-6-3z"/>
		<path id="Path 80" class="s36" d="m630 399v-1l4 2h-3z"/>
		<path id="Path 81" class="s37" d="m865 399l5-1 2 1-7 2z"/>
		<path id="Path 82" class="s38" d="m872 399l-2-1h4 1v1z"/>
		<path id="Path 83" class="s26" d="m631 400h3l20 8v1z"/>
		<path id="Path 84" class="s39" d="m849 403l16-4v2l-16 4z"/>
		<path id="Path 85" class="s40" d="m231 405l7-5v1z"/>
		<path id="Path 86" class="s41" d="m231 405l7-4 3 2v7l-4 3v6h-6v-8l-3-2z"/>
		<path id="Path 87" class="s42" d="m423 424l4-20 6-3 8 2v9l-6 6v5z"/>
		<path id="Path 88" class="s22" d="m530 443l-13-2-8-10-1-11-7-1-6-10v-8l15 2 11-2h14v5l6 3v6 12l-5 2z"/>
		<path id="Path 89" class="s1" d="m844 405l5-2v2h-1z"/>
		<path id="Path 90" class="s15" d="m245 411l5-7h4l1 3-4 12h-8z"/>
		<path id="Path 91" class="s12" d="m925 405l2-1-3 7-7 1z"/>
		<path id="Path 92" class="s4" d="m219 413l12-8-3 4-9 5z"/>
		<path id="Path 93" class="s26" d="m838 406l6-1h4l-10 2z"/>
		<path id="Path 94" class="s12" d="m833 409l1-3h4v1z"/>
		<path id="Path 95" class="s40" d="m654 409v-1l12 4h-3l-7-1z"/>
		<path id="Path 96" class="s40" d="m826 410l2-2 4 1-12 3-7 1z"/>
		<path id="Path 97" class="s16" d="m219 414l9-5 3 2v8l-2 7 3 2v6l-4 1-7 1-2-3-15 1-2-6 4-5 7-5z"/>
		<path id="Path 98" class="s35" d="m237 419v-6l4-3 4 1-2 8-2 1z"/>
		<path id="Path 99" class="s43" d="m649 423v-9l7-3 7 1 8 5-1 7v4l-13 1z"/>
		<path id="Path 100" class="s4" d="m670 424l1-7-8-5h3l7 5-1 4-1 3z"/>
		<path id="Path 101" class="s17" d="m813 413l7-1-19 5v-1l2-1z"/>
		<path id="Path 102" class="s44" d="m896 414l12-2-5 2h-4z"/>
		<path id="Path 103" class="s2" d="m903 414l5-2h1z"/>
		<path id="Path 104" class="s6" d="m213 418l6-5v1z"/>
		<path id="Path 105" class="s40" d="m893 415l3-1h3z"/>
		<path id="Path 106" class="s16" d="m541 427v-12l14 4 7 7 1 9h11l9 8v12l6 4v6l-8-2-29 2-7 4h-6v-16l4-2v-11l4-3v-7z"/>
		<path id="Path 107" class="s45" d="m888 417l4-2-4 4z"/>
		<path id="Path 108" class="s46" d="m794 418l5-2h2v1l-12 4-15 3v-1l4-2 10-1 3-2z"/>
		<path id="Path 109" class="s17" d="m884 419l4-2v2z"/>
		<path id="Path 110" class="s44" d="m228 435l4-1v-6l-3-2 2-7h6l4 1 2 6-2 9 5 7-3 3h-3l-11-1z"/>
		<path id="Path 111" class="s47" d="m827 549l-1-9-11-10-9-17 1-40-3-13-3-2 2-24 12-11h8l3-4 34 4 7 6 11-4h5 15l2 14-2 3-5 4-2 1-5 2-9-2-1 7h-3v3l4 2-2 5-6 5-6 5-4 3-2 8 5 2 7 3 5 3 3 2 6 5 14 13 8 8 5 5 1 1 2 2 18 21v1l-2 7-4 2-1 1-6 1h-6-1-6-10-9-2-5l-8-2-5-1h-2l-6-2h-2l-4-1-8-2h-1l-5-2h-2z"/>
		<path id="Path 112" class="s17" d="m878 425v-3l6-3-3 3 2 1v2z"/>
		<path id="Path 113" class="s4" d="m915 421h6l-4 3-2-2z"/>
		<path id="Path 114" class="s43" d="m774 424l15-3v20l-6 1v7l-8 2-12-5-5-17 1-2 7-2h2z"/>
		<path id="Path 115" class="s1" d="m903 423l7-2v2z"/>
		<path id="Path 116" class="s48" d="m910 423v-2h5v1z"/>
		<path id="Path 117" class="s33" d="m910 423l5-1 2 2v1l-15 14h-2l-2-14 1-2h4z"/>
		<path id="Path 118" class="s49" d="m198 428l8-5-4 5-4 1z"/>
		<path id="Path 119" class="s50" d="m768 425l6-2v1z"/>
		<path id="Path 120" class="s4" d="m883 425v-2h16l-1 2z"/>
		<path id="Path 121" class="s17" d="m670 428v-4h1l1 4z"/>
		<path id="Path 122" class="s36" d="m754 427l12-2-7 2z"/>
		<path id="Path 123" class="s2" d="m902 439l15-14-8 11z"/>
		<path id="Path 124" class="s51" d="m246 442l-5-7 2-9 5 3 1 6v8z"/>
		<path id="Path 125" class="s41" d="m530 443l6-14 5-2 6 3v7l-4 3v11l-4 2v16l-8 2-8-2v-12l7-6z"/>
		<path id="Path 126" class="s37" d="m753 428l1-1h5l-1 2z"/>
		<path id="Path 127" class="s21" d="m196 430l2-2v1l-1 1z"/>
		<path id="Path 128" class="s41" d="m198 429l4-1 2 6 15-1 2 3v2l-5 4-15 10-8 1-2-5-6-1v-7l3-3 9-7z"/>
		<path id="Path 129" class="s9" d="m746 430l6-2h1l5 1 5 17-8 1-10-6v-10z"/>
		<path id="Path 130" class="s4" d="m188 436l8-6h1l-9 7z"/>
		<path id="Path 131" class="s0" d="m686 432l-7-2 7 1z"/>
		<path id="Path 132" class="s48" d="m735 431l11-1-1 1-10 2z"/>
		<path id="Path 133" class="s42" d="m395 437l10-6h6v12l-5 4v5l-5 9h-5l-1-4-1-11z"/>
		<path id="Path 134" class="s48" d="m686 432v-1h6v2z"/>
		<path id="Path 135" class="s21" d="m692 433v-2l7 2h-3z"/>
		<path id="Path 136" class="s21" d="m729 433l6-2v2z"/>
		<path id="Path 137" class="s11" d="m735 433l10-2v10h-10l-8 4-5-2v-8l5-2h2z"/>
		<path id="Path 138" class="s25" d="m673 454l6-5 7-1 10-15h3 5l18 2v8l5 2v8h-11l-8 8-13 2-4 6-6-4h-10l-2-4z"/>
		<path id="Path 139" class="s26" d="m722 435l-18-2h23z"/>
		<path id="Path 140" class="s37" d="m221 436l7-1 1 9h-4l-4-6z"/>
		<path id="Path 141" class="s37" d="m249 443v-8h5l5 5 4 11-5 4-4-5z"/>
		<path id="Path 142" class="s24" d="m375 449l12-14 8 2-1 9-4 1-2 6h-9z"/>
		<path id="Path 143" class="s6" d="m183 440l5-4v1l-3 3z"/>
		<path id="Path 144" class="s35" d="m216 442l5-4 4 6v13l-5 2v5l-11 13-8 3v6l-8 1v-6l-11-6-3-6 1-6 23-2 5-6 7-2z"/>
		<path id="Path 145" class="s2" d="m898 442l2-3h2l-4 4z"/>
		<path id="Path 146" class="s22" d="m176 445l7-5h2v7l-6 5v5l-10 2-4-5 6-6 4-3z"/>
		<path id="Path 147" class="s52" d="m727 445l8-4h10l10 6v10h-17l-2-4h-9z"/>
		<path id="Path 148" class="s53" d="m783 449v-7l6-1 6 10 6 23-1 67h-4l-7-2-3-2h-1l-2-1h-3l-3-2v-7l10-11 1-53z"/>
		<path id="Path 149" class="s8" d="m193 453l8-1 15-10-1 11-7 2-5 6-23 2-1 6-10-1v-9l10-2h8z"/>
		<path id="Path 150" class="s25" d="m243 445l3-3 3 1 5 7-5 2z"/>
		<path id="Path 151" class="s0" d="m893 446l5-4v1z"/>
		<path id="Path 152" class="s54" d="m589 465v-6l-6-4v-12h8l4 6 30-4 18 2 2 4 8-2h12l3 5h5v7l-20 2-2 4-6 2-36-6z"/>
		<path id="Path 153" class="s14" d="m643 447l2-4h6l2 6-8 2z"/>
		<path id="Path 154" class="s42" d="m225 457v-13h4l11 1 1 12-14 2z"/>
		<path id="Path 155" class="s8" d="m461 461l3-8 5-2 4-7 22 5 7-2 5 2 3 8-1 10-14 2h-8l-9-2-1 9h-5l-4-5h-7z"/>
		<path id="Path 156" class="s37" d="m241 457l-1-12h3l6 7 4 13h-6z"/>
		<path id="Path 157" class="s30" d="m305 470v-16l6-3 2-6h15l3 6-2 12h-9l-5 5v5h-4z"/>
		<path id="Path 158" class="s28" d="m388 453l2-6 4-1 1 11h-7z"/>
		<path id="Path 159" class="s55" d="m755 447l8-1 12 5v60h-8l-3-1-3-17 5-4v-6l-5-6 2-18-8-2z"/>
		<path id="Path 160" class="s28" d="m179 457v-5l6-5 6 1 2 5-6 4z"/>
		<path id="Path 161" class="s33" d="m876 454l1-7 9 2-9 5z"/>
		<path id="Path 162" class="s21" d="m886 449l5-2-6 6-8 1z"/>
		<path id="Path 163" class="s49" d="m168 449l1-1h2l-6 6-3 1h-1z"/>
		<path id="Path 164" class="s42" d="m331 451l31-2 2 4h6l5-4 4 4h9v4l-3 6-4 2-8 1-2 4h-6-11l-6-3-3 4h-16v-8z"/>
		<path id="Path 165" class="s56" d="m775 451l8-2 5 14-1 53-10 11v7h-3l-5-3 1-12 6-1-1-7z"/>
		<path id="Path 166" class="s14" d="m249 452l5-2 4 5 6 17 2 10-1 3-2 1-4-1-1 4h-2l-1-8v-3l-2-13z"/>
		<path id="Path 167" class="s15" d="m258 455l5-4h4l2 20-5 1z"/>
		<path id="Path 168" class="s8" d="m396 461h5l5-9 10 7 35 2-1 8-21 3-4 11h-8l-14 4-14-16v-6z"/>
		<path id="Path 169" class="s57" d="m691 469l4-6 13-2 8-8h11 9l2 4h17l8 2-2 18 5 6v6l-5 4-24-5-3-4-21 1-19-1z"/>
		<path id="Path 170" class="s18" d="m162 455l3-1 4 5v9l-16 2-3-5z"/>
		<path id="Path 171" class="s4" d="m877 459l-4-2v-3h3l1 4z"/>
		<path id="Path 172" class="s4" d="m148 465l3-5 10-5h1l-12 10-2 1z"/>
		<path id="Path 173" class="s37" d="m201 486v-6l8-3 11-13v-5l5-2 2 2v14l-15 11z"/>
		<path id="Path 174" class="s15" d="m227 459l14-2 6 8 3 10 5 3v3l-20-4-6 6h-4l-6 8-12 2-4 4h-14l-2 6-7 4v4l-7 1v-10l4-10 5-5h11l8-1 11-2 15-11z"/>
		<path id="Path 175" class="s41" d="m385 463l3-6h7l1 4-7 4z"/>
		<path id="Path 176" class="s41" d="m509 467l1-10h5l2 10z"/>
		<path id="Path 177" class="s8" d="m517 467l-2-10h8v12h-4z"/>
		<path id="Path 178" class="s10" d="m877 459v-1h1l3 4-3 2h-1-2z"/>
		<path id="Path 179" class="s40" d="m878 464l3-2-3-4h4v5z"/>
		<path id="Path 180" class="s2" d="m882 463v-5l2 4z"/>
		<path id="Path 181" class="s5" d="m425 483l4-11 21-3 1-8h10v10 7l-9 11-13-2-5-4z"/>
		<path id="Path 182" class="s58" d="m589 465l20-2 36 6 6-2 2-4 20-2 2 4h10l6 4 3 15-8 3h-5l-3-10-13-2-7 1-5 11h-5l-2-4h-12l-7-6h-6l-6 5-3 9h-19-24l-10-10h-11l-3-12 7-4 29-2z"/>
		<path id="Path 183" class="s15" d="m315 473v-5l5-5h9v8 22l-9 1-5-5v-9z"/>
		<path id="Path 184" class="s5" d="m381 465l4-2 4 2v6h-5z"/>
		<path id="Path 185" class="s40" d="m869 469l6-5h2z"/>
		<path id="Path 186" class="s36" d="m145 467l3-2v1l-1 1z"/>
		<path id="Path 187" class="s14" d="m148 466l2-1 3 5-2 4h5v3l-6 2v4h-4l-6-7 2-4 5-5z"/>
		<path id="Path 188" class="s51" d="m255 478l-5-3-3-10h6z"/>
		<path id="Path 189" class="s35" d="m371 470l2-4 8-1 3 6-6 13-6-5z"/>
		<path id="Path 190" class="s26" d="m142 470l3-3h2l-5 5z"/>
		<path id="Path 191" class="s37" d="m329 471h16l3-4 6 3-7 12 1 14 5 5-4 3v7l-15-1-3-5-2-12z"/>
		<path id="Path 192" class="s59" d="m477 476l1-9 9 2v12h-10z"/>
		<path id="Path 193" class="s59" d="m495 469l14-2h8l2 2v8l-4 6h-17l-4-4z"/>
		<path id="Path 194" class="s37" d="m153 470l16-2 10 1 3 6 11 6v6h-11l-5 5-5-2-3-10h-9l-4-3v-3h-5z"/>
		<path id="Path 195" class="s41" d="m487 481v-12h8l-1 10z"/>
		<path id="Path 196" class="s44" d="m494 479l4 4h17l4-6v-8h4l8 2v14l-14 11v13h-10l-4-6-20-2-2-2-4-18h10z"/>
		<path id="Path 197" class="s60" d="m531 471l8-2h6l3 12h11l10 10h24l-2 8h-9l-2 4h-11-7l-6-2-17-2-3 2-1 10h-12l-6-2v-13l14-11z"/>
		<path id="Path 198" class="s40" d="m863 474l6-5-5 5z"/>
		<path id="Path 199" class="s36" d="m138 476l4-6v2l-2 4h-1z"/>
		<path id="Path 200" class="s61" d="m295 473l10-3 6 3v6l4 1v9l5 5v9l5 2v6l-8-1-5-11h-7l-3-7-7-5v-6z"/>
		<path id="Path 201" class="s35" d="m353 501l-5-5-1-14 7-12h11v7l6 5v7l-2 12z"/>
		<path id="Path 202" class="s8" d="m371 489v-7l-6-5v-7h6l1 9 6 5-3 5z"/>
		<path id="Path 203" class="s62" d="m264 472l5-1 2 8-5 3z"/>
		<path id="Path 204" class="s63" d="m378 484l6-13h5l14 16 14-4v22l-8 3v7h-12l-5-12-23-2 2-12h4z"/>
		<path id="Path 205" class="s51" d="m439 487l13 2 9-11v-7h7l4 5h5v5l4 18v3l-8 7h-9l-3 6-24-2z"/>
		<path id="Path 206" class="s62" d="m286 477l1-4h8v8h-8z"/>
		<path id="Path 207" class="s42" d="m315 480l-4-1v-6h4z"/>
		<path id="Path 208" class="s0" d="m859 477l4-3h1l-5 4z"/>
		<path id="Path 209" class="s60" d="m653 487l5-11 7-1 13 2 3 10v2l-26 2z"/>
		<path id="Path 210" class="s13" d="m129 487l9-11h1l-8 11z"/>
		<path id="Path 211" class="s54" d="m131 487l8-11h1l6 7-1 13h-2l-7-1z"/>
		<path id="Path 212" class="s64" d="m150 483v-4l6-2 4 3-3 3z"/>
		<path id="Path 213" class="s61" d="m187 503l2-6h14l4-4 12-2 6-8h4l6-6 20 4 1 8 2 8-27-4-7 2-8 8h-21z"/>
		<path id="Path 214" class="s65" d="m273 479l8-2h5l1 4h8v6l7 5 3 7h7l5 11 8 1 2 10 16 4v5l9 7-2 10-5 4h-9l-5 6h-8l-8-5-10-1-2-11 10-3 2-12-6-4-3-12-9-1-5-8-19-6z"/>
		<path id="Path 215" class="s60" d="m612 491l3-9 6-5h6l7 6h12l2 4-1 4-11 2-12-2-8 6-4-1z"/>
		<path id="Path 216" class="s6" d="m862 487l-5-2 2-8v1l3 8z"/>
		<path id="Path 217" class="s66" d="m266 482l5-3h2v15l19 6 5 8 9 1 3 12 6 4-2 12-10 3-10-12v-11l-16 2-1-12-9-2-2-10v-10z"/>
		<path id="Path 218" class="s56" d="m150 483h7l3-3h9l3 10-2 12-5 4-9 1-9-7-2-4 1-13z"/>
		<path id="Path 219" class="s59" d="m417 505v-22h8 9l5 4-2 26-8 6h-6v-9z"/>
		<path id="Path 220" class="s67" d="m713 485l21-1 3 4 24 5 3 17 3 1v6l3 2-1 12h-5-1l-5-2h-3v-7l-5-9-11-1-3-5-9 2h-8v-9l-3-2z"/>
		<path id="Path 221" class="s68" d="m686 487l8-3 19 1 3 13 3 2v9 5h-12l-11-2-3-5h-6l-6 1 1 4-1 4-18 3h-10l-10-2h-29l-3-6h-9l-3-4h-10l-9-4 2-4h9l2-8h19v5l4 1 8-6 12 2 11-2 1-4h5l2 4 26-2 4 3z"/>
		<path id="Path 222" class="s9" d="m258 489l1-4 4 1v8l-3 1z"/>
		<path id="Path 223" class="s27" d="m263 486l2-1v10l-2-1z"/>
		<path id="Path 224" class="s12" d="m862 487v-1l7 4z"/>
		<path id="Path 225" class="s16" d="m128 488l1-1h2l5 8-9 4-3 6h-4l-2-5 8-10z"/>
		<path id="Path 226" class="s69" d="m681 489v-2h5l-1 5z"/>
		<path id="Path 227" class="s58" d="m258 497l-2-8h2l2 6 3-1 2 1 2 10-4 11h-7v-4z"/>
		<path id="Path 228" class="s36" d="m116 500l10-10-8 10z"/>
		<path id="Path 229" class="s58" d="m170 502l2-12 5 2-4 10z"/>
		<path id="Path 230" class="s62" d="m216 503l8-8 7-2 27 4-2 15-37-3z"/>
		<path id="Path 231" class="s42" d="m320 494l9-1 2 12h-6l-5-2z"/>
		<path id="Path 232" class="s70" d="m124 505l3-6 9-4 7 1 1 5 3 14h-10l-4-10z"/>
		<path id="Path 233" class="s12" d="m883 500l-6-5 7 5z"/>
		<path id="Path 234" class="s5" d="m144 501l-1-5h2l2 4z"/>
		<path id="Path 235" class="s71" d="m481 502v-3l2 2z"/>
		<path id="Path 236" class="s69" d="m535 511l1-10 3-2 17 2 1 8 5-2v-4h7v14l-20 2-4-6z"/>
		<path id="Path 237" class="s22" d="m114 502l2-2h2l2 5-5 8h-3v-3z"/>
		<path id="Path 238" class="s44" d="m144 501l3-1 9 7 9-1 3 9-6 4h-8l-7-4z"/>
		<path id="Path 239" class="s37" d="m897 513l-14-13h1l15 13z"/>
		<path id="Path 240" class="s72" d="m349 511v-7l4-3h16l23 2 5 12h12l8 7h4l2 3v12l-20-4-14-12-23-3-2-3h-8z"/>
		<path id="Path 241" class="s73" d="m481 502l2-1 20 2 4 6h10l6 2v6l6 4 20 2 3 6h28l3 3v9h-21l-19-2-3-4-19-8-41-4-7-7v-7z"/>
		<path id="Path 242" class="s74" d="m562 503v4l-5 2-1-8z"/>
		<path id="Path 243" class="s36" d="m111 510v-7l3-1-2 8z"/>
		<path id="Path 244" class="s59" d="m165 506l5-4h3v10l-5 3z"/>
		<path id="Path 245" class="s66" d="m180 511v-4l7-4h8l2 7 11 2 12 9 1 16-8 2-6 6h-20l2-9 15-1 5-4v-5l-14-12z"/>
		<path id="Path 246" class="s65" d="m221 537l-1-16-12-9-11-2-2-7h21l3 6 37 3v4l-2 8h3v5l-6 4h-10l-3 5-7 1z"/>
		<path id="Path 247" class="s74" d="m569 517v-14h11l9 4h10l3 4h9l3 6h29v7l-4 5-25 1-29-5-3-4z"/>
		<path id="Path 248" class="s42" d="m115 513l5-8h4 9l4 10-1 4h-15z"/>
		<path id="Path 249" class="s65" d="m263 516l4-11 9 2 1 12-1 2h-3l-10-4z"/>
		<path id="Path 250" class="s75" d="m325 511v-6h6l3 5 15 1 7 4h8l2 3 23 3 14 12 20 4 8 9 7 3v4h-11l-4-4h-22l-2-6-29-3-6-6-9-2-2-5-10-2-16-4z"/>
		<path id="Path 251" class="s51" d="m409 515v-7l8-3 6 5v9l-2 3h-4z"/>
		<path id="Path 252" class="s74" d="m682 512l-1-4 6-1v5z"/>
		<path id="Path 253" class="s76" d="m687 512v-5h6l3 5-2 3z"/>
		<path id="Path 254" class="s68" d="m727 509l9-2 3 5 11 1 5 9v7h-8l-11-2h-5v-9l-4-4z"/>
		<path id="Path 255" class="s77" d="m461 515l3-6h9v7l7 7 41 4 19 8 3 4 19 2-4 9-7 4v9h-2-14l-8-3v-7l-5-5h-8l-10-13h-6l-3-4h-13l-2-3-17-1z"/>
		<path id="Path 256" class="s74" d="m719 514v-5h8v5l-8 1z"/>
		<path id="Path 257" class="s2" d="m109 510h1v1h-1z"/>
		<path id="Path 258" class="s1" d="m109 511l1-1h1v19h-1l-1-1z"/>
		<path id="Path 259" class="s2" d="m109 528h1v1h-1z"/>
		<path id="Path 260" class="s30" d="m111 529v-19h1v3h3l6 6-1 7-9 5z"/>
		<path id="Path 261" class="s78" d="m173 512l7-1 15 3 14 12v5l-5 4-15 1-2 9h-18l-17-3-2-6-5-3 2-12 7-2h8l6-4z"/>
		<path id="Path 262" class="s79" d="m549 523l-20-2-6-4v-6h12l10 2 4 6z"/>
		<path id="Path 263" class="s64" d="m770 519l-3-2v-6h8l1 7z"/>
		<path id="Path 264" class="s77" d="m663 519l18-3 1-4h5l7 3 2-3 11 2v11l-22 3-5-1-2 4-9 2z"/>
		<path id="Path 265" class="s80" d="m423 519h6l8-6 24 2 2 12v4l-14 2-26-8-2-3z"/>
		<path id="Path 266" class="s41" d="m905 521l-8-8h2l6 6z"/>
		<path id="Path 267" class="s80" d="m707 525v-11h12v1 12h-5l-1-1-5 1z"/>
		<path id="Path 268" class="s77" d="m719 515l8-1 4 4v9h-7-5z"/>
		<path id="Path 269" class="s15" d="m136 519l1-4h10l7 4-7 2h-9z"/>
		<path id="Path 270" class="s59" d="m257 524h-3l2-8h7v1z"/>
		<path id="Path 271" class="s66" d="m257 524l6-7 10 4-1 8h-15z"/>
		<path id="Path 272" class="s78" d="m277 519l16-2v11l-8-1h-8l-1-6z"/>
		<path id="Path 273" class="s76" d="m549 519l20-2 13 4 3 4 29 5 25-1 4-5v-7l10 2v10l4 6v6l-10 4-6-1-6 11h-6v-12l-12-2-9 2-25-2v-9l-3-3h-28l-3-6z"/>
		<path id="Path 274" class="s29" d="m111 531l9-5 1-7h15l2 2 1 13 6 6 2 8 6 3v10l-26-2-1-5-1-1-1-6-6-3-3-2-2-2z"/>
		<path id="Path 275" class="s73" d="m657 535l-4-6v-10h10l6 14-1 2-2 1z"/>
		<path id="Path 276" class="s5" d="m905 521v-2l6 6-1 1z"/>
		<path id="Path 277" class="s66" d="m153 551l-6-3-2-8-6-6-1-13h9l-2 12 5 3 2 6 17 3v4l-4 2z"/>
		<path id="Path 278" class="s70" d="m272 529l1-8h3l1 6h8v2h-5l-5 9-4 1z"/>
		<path id="Path 279" class="s61" d="m352 537l-9-7v-5l10 2 2 5 9 2 6 6 29 3 2 6-17 1-13-6h-8l-6-7z"/>
		<path id="Path 280" class="s81" d="m423 537v-12l26 8 14-2 5 6h14l8 5 3 12-12 1-11-2-13-2-2 3h-3l2 6-5 1-11-8v-4l-7-3z"/>
		<path id="Path 281" class="s33" d="m685 528l22-3 1 2v2 1l7 12v4l7 7 5 8-2 4h-6l-4 6h-15l-11-12z"/>
		<path id="Path 282" class="s40" d="m708 527l5-1-5 3z"/>
		<path id="Path 283" class="s8" d="m910 526l1-1 1 1-1 1z"/>
		<path id="Path 284" class="s59" d="m285 527l8 1 10 12 2 11v2l-5-1v-5l-9-6-6-12z"/>
		<path id="Path 285" class="s3" d="m744 573h1v1h-1z"/>
		<path id="Path 286" class="s37" d="m911 527l1-1 2 2-1 1z"/>
		<path id="Path 287" class="s82" d="m463 531v-4l17 1 2 3h13l3 4h6l10 13h8l5 5v7l-22-4-12-1v-1l-3-12-8-5h-14z"/>
		<path id="Path 288" class="s53" d="m678 531l2-4 5 1 4 31 11 12h15l4-6h6l2-4 5 2h1l4 5 4 4 1 5-3 4 6-1-3 7h-1-16-2l-8-2h-6l-3-1-5-2h-2l-6-2-2-4-4 2-6-3-4-8z"/>
		<path id="Path 289" class="s0" d="m719 528l-5-1h5z"/>
		<path id="Path 290" class="s12" d="m719 528v-1h5v1z"/>
		<path id="Path 291" class="s45" d="m724 528v-1h7 5v1z"/>
		<path id="Path 292" class="s4" d="m736 528v-1l11 2z"/>
		<path id="Path 293" class="s4" d="m913 529l1-1 18 20v1l-1 1z"/>
		<path id="Path 294" class="s78" d="m251 533l6-4h15l-1 10-1 5 4 2-2 4 2 1 14 14 5 12-2 2-24-3-18-2-4-27z"/>
		<path id="Path 295" class="s58" d="m275 538l5-9h5l6 12 9 6v5l-5 3h-3l-10-7v-5z"/>
		<path id="Path 296" class="s40" d="m715 542l-7-12 8 12z"/>
		<path id="Path 297" class="s56" d="m669 533l9-2-1 36 4 8h-6-1l-4-1h-1-1l-7-3v-1l-2-19 9-8v-8z"/>
		<path id="Path 298" class="s26" d="m774 534l-10-3h5z"/>
		<path id="Path 299" class="s66" d="m231 539l7-1 3-5h10l-6 14 4 27v5l-11-3v-1l1-4-8-6z"/>
		<path id="Path 300" class="s12" d="m779 536l-5-2h3l3 2z"/>
		<path id="Path 301" class="s67" d="m657 541v-6l9 1-3 5z"/>
		<path id="Path 302" class="s64" d="m666 536l2-1v8l-9 8 2 19-8-1h-3l-11-4v-5l8-6v-9l10-4h6z"/>
		<path id="Path 303" class="s0" d="m783 538l-4-2h1 3z"/>
		<path id="Path 304" class="s45" d="m783 538v-2l2 1z"/>
		<path id="Path 305" class="s34" d="m187 545h20l6-6 8-2 10 2v26l8 6-1 4-7-1h-3l-7-2-8-3-7-1-6-2-3-1-1-7-6-1-4-7-17-1v-4z"/>
		<path id="Path 306" class="s62" d="m331 557l5-6h9l5-4 2-10h5l6 7h8l13 6 17-1h22l4 4h11l11 8v8l-4 3v12h-7v-5h-12l-4 5v1h-13-3-6l-3-3-12-1v-6l-5-6h-8l-2 3h-5l-8-7-9 3-13-4z"/>
		<path id="Path 307" class="s44" d="m271 539l4-1 7 5v5l-8 3-2-1 2-4-4-2z"/>
		<path id="Path 308" class="s58" d="m796 541h4v1h-3z"/>
		<path id="Path 309" class="s80" d="m551 563v-9l7-4 4-9h21l25 2 4 8h5l6 6v5l-7 2-9-1v-6l-9-8h-30l-5 8v8h-7z"/>
		<path id="Path 310" class="s77" d="m608 543l9-2v10h-5z"/>
		<path id="Path 311" class="s73" d="m617 551v-10l12 2v12l-2 6 4 2-8-1v-5z"/>
		<path id="Path 312" class="s49" d="m722 553l-7-7v-4h1z"/>
		<path id="Path 313" class="s0" d="m804 544l-7-2h3z"/>
		<path id="Path 314" class="s55" d="m629 555h6l6-11 6 1v9l-8 6v5l-8-2-4-2z"/>
		<path id="Path 315" class="s35" d="m274 551l8-3 10 7v3l-1 7h-3z"/>
		<path id="Path 316" class="s21" d="m932 549v-1h2v3h-1z"/>
		<path id="Path 317" class="s29" d="m165 551l4-2 17 1 4 7 6 1 1 7-6-1-8-1-8-3-9 1h-1z"/>
		<path id="Path 318" class="s72" d="m563 565v-8l5-8h30l9 8v6 2l-15 1-1 1h-11l-1 1-13 1h-3z"/>
		<path id="Path 319" class="s0" d="m579 567h1v1h-1z"/>
		<path id="Path 320" class="s50" d="m836 552l-12-3h3z"/>
		<path id="Path 321" class="s62" d="m931 550l1-1 1 2v1l-2-1z"/>
		<path id="Path 322" class="s34" d="m153 561v-10h12v10z"/>
		<path id="Path 323" class="s35" d="m305 553v-2l10 1 8 5v4l-12-2z"/>
		<path id="Path 324" class="s69" d="m455 554l2-3 13 2-1 2h-12z"/>
		<path id="Path 325" class="s5" d="m929 558l2-7 2 1v3l-1 1-2 2z"/>
		<path id="Path 326" class="s66" d="m932 555h1v1h-1z"/>
		<path id="Path 327" class="s36" d="m933 552v-1h1v4h-1z"/>
		<path id="Path 328" class="s54" d="m295 555l5-3 5 1 6 6-2 11-2 11-2 1-6-5-1-8-7-4 1-7h3z"/>
		<path id="Path 329" class="s55" d="m469 555l1-2 11 2v8h-7-5z"/>
		<path id="Path 330" class="s49" d="m727 561l-5-8 10 10z"/>
		<path id="Path 331" class="s58" d="m454 560l-2-6h3l2 1v5h-2z"/>
		<path id="Path 332" class="s57" d="m481 555l12-1v1 4 6h-6l-6-2z"/>
		<path id="Path 333" class="s38" d="m851 556l-7-2 8 2z"/>
		<path id="Path 334" class="s5" d="m292 558v-3h3v3z"/>
		<path id="Path 335" class="s57" d="m457 560v-5h12v8z"/>
		<path id="Path 336" class="s25" d="m493 559v-4l12 1-3 3z"/>
		<path id="Path 337" class="s21" d="m932 556l1-1h1v2l-4 2v-1z"/>
		<path id="Path 338" class="s52" d="m493 559h9l3-3 22 4 8 3v8h-1l-19-3-7-1-10-2h-5z"/>
		<path id="Path 339" class="s12" d="m856 557l-5-1h1z"/>
		<path id="Path 340" class="s42" d="m323 561v-4h8l4 7h-8z"/>
		<path id="Path 341" class="s26" d="m925 560l4-2h1v1z"/>
		<path id="Path 342" class="s16" d="m309 570l2-11 12 2 4 3v12l-12-2z"/>
		<path id="Path 343" class="s49" d="m871 561l-5-2 5 1z"/>
		<path id="Path 344" class="s36" d="m166 561l9-1 8 3z"/>
		<path id="Path 345" class="s61" d="m449 561l5-1h1v7l-2 2h-4z"/>
		<path id="Path 346" class="s15" d="m455 567v-7h2l12 3h5l1 4-6 1h-5-7z"/>
		<path id="Path 347" class="s13" d="m871 561v-1l8 2z"/>
		<path id="Path 348" class="s22" d="m886 562h9v1h-2z"/>
		<path id="Path 349" class="s28" d="m895 562h10v1l-1 1h-7l-2-1z"/>
		<path id="Path 350" class="s83" d="m616 564l7-2 8 1 8 2 11 4-24-6z"/>
		<path id="Path 351" class="s0" d="m893 564l-9-2h2l7 1z"/>
		<path id="Path 352" class="s5" d="m905 563v-1h6z"/>
		<path id="Path 353" class="s12" d="m905 563l6-1h1l-8 2z"/>
		<path id="Path 354" class="s5" d="m475 567l-1-4h7l6 2v4h-11z"/>
		<path id="Path 355" class="s43" d="m535 571v-8h14v10l-8-1z"/>
		<path id="Path 356" class="s9" d="m549 573v-10h2l5 2 3 7-2 3h-2z"/>
		<path id="Path 357" class="s2" d="m737 568l-4-5 6 5z"/>
		<path id="Path 358" class="s12" d="m893 564v-1h2l2 1z"/>
		<path id="Path 359" class="s36" d="m199 566l-8-2 6 1 3 1z"/>
		<path id="Path 360" class="s41" d="m327 576v-12h8l13 4 3 4-9 7-1 10h-4v-5z"/>
		<path id="Path 361" class="s31" d="m293 577l-5-12h3l7 4 1 8z"/>
		<path id="Path 362" class="s23" d="m348 568l9-3 8 7h5l3 6 12 3 12 1 3 3-9 1-6 1h-21l1-6-6-1-8-8z"/>
		<path id="Path 363" class="s51" d="m487 569v-4h6 5v5z"/>
		<path id="Path 364" class="s35" d="m498 570v-5l10 2v3l-6 1z"/>
		<path id="Path 365" class="s63" d="m559 572l-3-7h7v4l-1 3 5 3 2 1v1z"/>
		<path id="Path 366" class="s0" d="m206 568l-7-2h1z"/>
		<path id="Path 367" class="s20" d="m453 569l2-2 2 1v3h-3z"/>
		<path id="Path 368" class="s25" d="m469 568l6-1 1 2-6 7-1-1z"/>
		<path id="Path 369" class="s80" d="m508 570v-3l7 1v4z"/>
		<path id="Path 370" class="s12" d="m580 568v-1h11z"/>
		<path id="Path 371" class="s84" d="m457 571v-3h7l-1 6h-2z"/>
		<path id="Path 372" class="s57" d="m463 574l1-6h5v7h-4z"/>
		<path id="Path 373" class="s51" d="m515 572v-4l19 3v3z"/>
		<path id="Path 374" class="s71" d="m653 569l8 1v1h-3z"/>
		<path id="Path 375" class="s3" d="m741 572l-4-4h2l5 5z"/>
		<path id="Path 376" class="s49" d="m220 572l-7-3 8 3z"/>
		<path id="Path 377" class="s61" d="m370 572l2-3h8l5 6v6l-12-3z"/>
		<path id="Path 378" class="s30" d="m445 584v-12l4-3h4l1 2-1 8-3 3 6 2z"/>
		<path id="Path 379" class="s52" d="m470 576l6-7h11v4l-12 9v3h-5l-3-4z"/>
		<path id="Path 380" class="s64" d="m475 585v-3l12-9v-4l11 1 4 1-1 4-6 3v12h-1l-5 1-14-4z"/>
		<path id="Path 381" class="s21" d="m567 575l-5-3 1-3h3z"/>
		<path id="Path 382" class="s25" d="m307 581l2-11 6 4v9z"/>
		<path id="Path 383" class="s56" d="m502 571l6-1 7 2 19 2 4 2-5 7-6 2v8l-10 1h-1-1l-19-4h-1v-12l6-3z"/>
		<path id="Path 384" class="s15" d="m453 579l1-8h3l4 3v6h-4z"/>
		<path id="Path 385" class="s71" d="m534 574v-3h1l6 1v4h-3z"/>
		<path id="Path 386" class="s1" d="m668 574l-10-3h3z"/>
		<path id="Path 387" class="s36" d="m228 574l-8-2h1z"/>
		<path id="Path 388" class="s18" d="m341 589l1-10 9-7 8 8v9l-5 5z"/>
		<path id="Path 389" class="s44" d="m541 576v-4l8 1 6 2v3z"/>
		<path id="Path 390" class="s57" d="m557 575l2-3 10 5v1l-1 3h-9l-2-3z"/>
		<path id="Path 391" class="s85" d="m742 587l3-7-6 1 3-4-1-5 3 1 1 1 1 1 4 4-2 6-2 3z"/>
		<path id="Path 392" class="s0" d="m238 576l-7-2 7 1z"/>
		<path id="Path 393" class="s29" d="m249 579v-5l18 2v6l-15-1z"/>
		<path id="Path 394" class="s52" d="m315 583v-9l12 2 10 8v5h-17z"/>
		<path id="Path 395" class="s31" d="m461 580v-6h2l2 1-1 5z"/>
		<path id="Path 396" class="s12" d="m679 577l-4 1-6-4h1l4 1h1z"/>
		<path id="Path 397" class="s20" d="m464 580l1-5h4l1 1-3 5z"/>
		<path id="Path 398" class="s67" d="m555 578v-3h2v3z"/>
		<path id="Path 399" class="s22" d="m679 577l-4-2h6l6 3 4-2 2 4-7-1z"/>
		<path id="Path 400" class="s2" d="m750 579l-4-4 5 4z"/>
		<path id="Path 401" class="s34" d="m267 582v-6l24 3-7 6-13-2-1 6-2-6z"/>
		<path id="Path 402" class="s53" d="m527 593v-8l6-2 5-7h3l14 2h2l2 3-3 14h-1l-14 1h-10l-2-1z"/>
		<path id="Path 403" class="s12" d="m569 577v-1l3 4-3-2z"/>
		<path id="Path 404" class="s23" d="m291 579l2-2h6l6 5-3 6-18-3z"/>
		<path id="Path 405" class="s8" d="m568 581l1-3 3 2v3l-1 3h-2z"/>
		<path id="Path 406" class="s20" d="m422 584l4-5h12v5z"/>
		<path id="Path 407" class="s59" d="m456 584l-6-2 3-3 4 1v4z"/>
		<path id="Path 408" class="s39" d="m699 582l-5 1-8-4 7 1z"/>
		<path id="Path 409" class="s0" d="m748 585l2-6h1l1 5z"/>
		<path id="Path 410" class="s36" d="m252 581l15 1 1 1z"/>
		<path id="Path 411" class="s20" d="m359 589v-9l6 1-1 6-4 2z"/>
		<path id="Path 412" class="s84" d="m457 584v-4h4 3l3 1 3 4v1h-1-2l-6-2z"/>
		<path id="Path 413" class="s18" d="m305 582l2-1 8 2 5 6h-4l3 9 1 5-7-5-4-7-7-3z"/>
		<path id="Path 414" class="s43" d="m556 595l3-14h9l1 5v2l-4 3-4 3z"/>
		<path id="Path 415" class="s52" d="m270 589l1-6 13 2 18 3 7 3 4 7-11 1-13-8h-9l-8 7h-2v-1-6z"/>
		<path id="Path 416" class="s12" d="m709 586l-3-2 3 1z"/>
		<path id="Path 417" class="s3" d="m391 586l9-1h6v1z"/>
		<path id="Path 418" class="s0" d="m406 586v-1h3v1z"/>
		<path id="Path 419" class="s12" d="m409 586v-1h13z"/>
		<path id="Path 420" class="s86" d="m470 586v-1h5v2z"/>
		<path id="Path 421" class="s38" d="m709 586v-1h6v2z"/>
		<path id="Path 422" class="s71" d="m715 587v-2l8 2z"/>
		<path id="Path 423" class="s0" d="m385 587l6-1-6 2z"/>
		<path id="Path 424" class="s0" d="m475 587l-6-1h1z"/>
		<path id="Path 425" class="s12" d="m569 588v-2h2z"/>
		<path id="Path 426" class="s4" d="m725 587h16l-16 1z"/>
		<path id="Path 427" class="s12" d="m360 589l4-2h21v1l-23 2z"/>
		<path id="Path 428" class="s38" d="m725 588l-10-1h8 2z"/>
		<path id="Path 429" class="s0" d="m565 591l4-3-4 5z"/>
		<path id="Path 430" class="s16" d="m354 594l5-5h1l2 1 5 5 5 5 3 4v2l-9-2h-1l-5-4-5-5z"/>
		<path id="Path 431" class="s40" d="m354 594h1v1h-1z"/>
		<path id="Path 432" class="s46" d="m515 594l-18-1-1-3z"/>
		<path id="Path 433" class="s64" d="m272 598l8-7h9l13 8 11-1 7 5 1 1 3 7-34-4-7 9 4 29 8 6v5l5 6 8 2v2l-1 1-9 6-8-1-4-1-1-4-6-15-1-2v-1l-1-3h2l-2-13-2-7-4-19v-4z"/>
		<path id="Path 434" class="s3" d="m561 594l4-3v2z"/>
		<path id="Path 435" class="s86" d="m517 594l10-1 2 2h-7z"/>
		<path id="Path 436" class="s0" d="m522 596l-6-2h1l5 1z"/>
		<path id="Path 437" class="s3" d="m556 595l5-1-6 4h-14v-1l14-2z"/>
		<path id="Path 438" class="s45" d="m522 596v-1h7z"/>
		<path id="Path 439" class="s42" d="m531 596h10v1h-9z"/>
		<path id="Path 440" class="s28" d="m541 596l14-1-14 2z"/>
		<path id="Path 441" class="s0" d="m541 598l-9-1h9z"/>
		<path id="Path 442" class="s40" d="m271 603l-1-5h2z"/>
		<path id="Path 443" class="s87" d="m320 603l-1-5 3 5-1 1z"/>
		<path id="Path 444" class="s0" d="m375 604l-3-4 4 4z"/>
		<path id="Path 445" class="s17" d="m321 604l1-1 5 10-1 1-2-3z"/>
		<path id="Path 446" class="s40" d="m376 604l-1 4h-5l-4-4 9 2v-2z"/>
		<path id="Path 447" class="s26" d="m274 626l-3-19 4 19z"/>
		<path id="Path 448" class="s56" d="m308 664l-8-2-5-6v-5l-8-6-4-29 7-9 34 4 2 3 4 11 1 9-1 5-13 15-2 2h2l-3 3-2-1z"/>
		<path id="Path 449" class="s53" d="m296 620l15 2 2 5v16l-12 2-6-10z"/>
		<path id="Path 450" class="s88" d="m326 614l1-1 3 6v6z"/>
		<path id="Path 451" class="s45" d="m330 625v-6l2 15h-1z"/>
		<path id="Path 452" class="s45" d="m276 646l-2-20h1l2 7v13z"/>
		<path id="Path 453" class="s86" d="m277 646v-13l2 13z"/>
		<path id="Path 454" class="s12" d="m330 639l1-5h1l-2 6z"/>
		<path id="Path 455" class="s36" d="m317 654l13-15v1z"/>
		<path id="Path 456" class="s83" d="m278 649l-2-3h1z"/>
		<path id="Path 457" class="s83" d="m278 653v-3l1 2z"/>
		<path id="Path 458" class="s39" d="m278 653l1-1 6 15h-1l-5-5z"/>
		<path id="Path 459" class="s36" d="m317 656h-2l2-2z"/>
		<path id="Path 460" class="s89" d="m308 664l4-6 2 1-5 7h-1z"/>
		<path id="Path 461" class="s12" d="m307 667l1-1h1l-2 2z"/>
		<path id="Path 462" class="s45" d="m286 671l-2-4h1z"/>
		<path id="Path 463" class="s87" d="m298 673l9-6v1l-8 6h-1z"/>
		<path id="Path 464" class="s36" d="m290 673l-4-2 4 1z"/>
		<path id="Path 465" class="s70" d="m290 673v-1l8 1v1l-1 1h-1-2-1l-2-1z"/>
		<path id="Path 466" class="s90" d="m297 674h1v1h-1z"/>
		<path id="Path 467" class="s87" d="m291 676v-2l2 1v1z"/>
		<path id="Path 468" class="s45" d="m297 675l1-1h1v2h-2z"/>
		<path id="Path 469" class="s83" d="m293 675h1v1h-1z"/>
		<path id="Path 470" class="s89" d="m294 676v-1h2v1z"/>
		<path id="Path 471" class="s91" d="m296 675h1v1h-1z"/>
	</g>
</svg>