<svg version="1.2" xmlns="http://www.w3.org/2000/svg" viewBox="0 0 1000 1000" width="1000" height="1000">
	<title>Labidesthes_sicculus</title>
	<style>
		.s0 { opacity: .1;fill: #e8e9e9 } 
		.s1 { opacity: .5;fill: #c7cbc6 } 
		.s2 { opacity: .1;fill: #f7f8f7 } 
		.s3 { fill: #bdc3c2 } 
		.s4 { fill: #babdb6 } 
		.s5 { opacity: .3;fill: #e5e6e5 } 
		.s6 { opacity: .5;fill: #dbddda } 
		.s7 { opacity: .1;fill: #c1c4c0 } 
		.s8 { fill: #a1abab } 
		.s9 { fill: #adb7b9 } 
		.s10 { opacity: .3;fill: #d4d7d4 } 
		.s11 { fill: #a6b0b2 } 
		.s12 { opacity: 1;fill: #abb0a8 } 
		.s13 { opacity: .7;fill: #bfc3be } 
		.s14 { fill: #a4a798 } 
		.s15 { fill: #909994 } 
		.s16 { opacity: .9;fill: #d2d5d3 } 
		.s17 { fill: #979678 } 
		.s18 { opacity: 1;fill: #b6b7ab } 
		.s19 { opacity: .5;fill: #eeefee } 
		.s20 { opacity: .7;fill: #eceeed } 
		.s21 { opacity: .7;fill: #d4d7d3 } 
		.s22 { opacity: .7;fill: #b2b5aa } 
		.s23 { fill: #848975 } 
		.s24 { fill: #9ca5a4 } 
		.s25 { fill: #afb09f } 
		.s26 { fill: #79774a } 
		.s27 { opacity: .1;fill: #d6d9d6 } 
		.s28 { opacity: .1;fill: #9d9f91 } 
		.s29 { opacity: .9;fill: #bcc1bb } 
		.s30 { fill: #727557 } 
		.s31 { fill: #a09e82 } 
		.s32 { opacity: .1;fill: #aeb1a7 } 
		.s33 { opacity: .1;fill: #878b7a } 
		.s34 { fill: #c6cbc8 } 
		.s35 { fill: #68704e } 
		.s36 { opacity: .3;fill: #c2c7c3 } 
		.s37 { opacity: .3;fill: #aeb3ac } 
		.s38 { opacity: .3;fill: #969a8c } 
		.s39 { opacity: .3;fill: #74775b } 
		.s40 { opacity: .6;fill: #757b67 } 
		.s41 { fill: #687159 } 
		.s42 { fill: #737043 } 
		.s43 { fill: #7c8267 } 
		.s44 { opacity: .5;fill: #b3b6ac } 
		.s45 { fill: #aba78d } 
		.s46 { fill: #7c7c57 } 
		.s47 { fill: #82805a } 
		.s48 { fill: #65663c } 
		.s49 { opacity: .7;fill: #979a8d } 
		.s50 { opacity: .9;fill: #9a9f93 } 
		.s51 { fill: #918e68 } 
		.s52 { fill: #878762 } 
		.s53 { fill: #919174 } 
		.s54 { fill: #8a8b6d } 
		.s55 { fill: #98a099 } 
		.s56 { fill: #777c63 } 
		.s57 { fill: #6f7c6c } 
		.s58 { fill: #8c907d } 
		.s59 { fill: #515434 } 
		.s60 { fill: #83856c } 
		.s61 { fill: #4a5444 } 
		.s62 { fill: #3a4335 } 
		.s63 { opacity: .5;fill: #94988b } 
		.s64 { fill: #484b2d } 
		.s65 { fill: #7e8a7a } 
		.s66 { fill: #5e644c } 
		.s67 { fill: #979a87 } 
		.s68 { fill: #feffff } 
		.s69 { fill: #fefdf8 } 
		.s70 { fill: #f8fcfd } 
		.s71 { fill: #d5d4cd } 
		.s72 { fill: #e3e6e6 } 
		.s73 { fill: #f3f4f4 } 
		.s74 { fill: #e0e0db } 
		.s75 { fill: #c2d3e0 } 
		.s76 { fill: #acbecc } 
		.s77 { fill: #788272 } 
		.s78 { fill: #888f85 } 
		.s79 { fill: #d1d7d9 } 
		.s80 { fill: #ccc9bb } 
		.s81 { fill: #eaf2f9 } 
		.s82 { fill: #b8c7d2 } 
		.s83 { fill: #d9e7f2 } 
		.s84 { fill: #161e1a } 
		.s85 { fill: #c7dff2 } 
		.s86 { fill: #8d948b } 
		.s87 { fill: #edebe7 } 
		.s88 { opacity: .3;fill: #f6f6f5 } 
		.s89 { fill: #f5f2eb } 
		.s90 { fill: #798684 } 
		.s91 { fill: #bdd9f0 } 
		.s92 { fill: #afd0eb } 
		.s93 { fill: #a6c5d9 } 
	</style>
	<g id="Background">
		<path id="Path 0" class="s0" d="m818 430v-2h2l-1 2z"/>
		<path id="Path 1" class="s1" d="m819 430l1-2h10v1l-1 1z"/>
		<path id="Path 2" class="s2" d="m830 429v-1h5l2 3z"/>
		<path id="Path 3" class="s3" d="m829 430l1-1 7 2v1l2 8h-7l-3-3z"/>
		<path id="Path 4" class="s4" d="m811 432l7-2h1 10v7l3 3h7l-1 10-3 2-8-8-8 1-11-1-3-4v-4z"/>
		<path id="Path 5" class="s5" d="m788 442l3-4 20-6-6 4-5 2z"/>
		<path id="Path 6" class="s6" d="m839 440l-2-8 4 2v12l-5 10-4 2 3-6 3-2z"/>
		<path id="Path 7" class="s0" d="m609 435l10-2v2h-9z"/>
		<path id="Path 8" class="s4" d="m610 435h9l5 2 5 1v4l2 3-2 5h-8l-8-4-3-10z"/>
		<path id="Path 9" class="s0" d="m596 437l5-2v1z"/>
		<path id="Path 10" class="s7" d="m601 436v-1h8 1v1z"/>
		<path id="Path 11" class="s8" d="m596 437l5-1h9l3 10-14 2-3-10z"/>
		<path id="Path 12" class="s9" d="m800 438l5-2v4z"/>
		<path id="Path 13" class="s10" d="m588 440l8-3v1z"/>
		<path id="Path 14" class="s11" d="m588 440l8-2 3 10-4 5h-6l-6-3-1-6 1-2z"/>
		<path id="Path 15" class="s12" d="m788 442l12-4 5 2 3 4 11 1v17h-8l-3-10-30-2-11 4-6-1v-1l12-5h1l4-2 5-2z"/>
		<path id="Path 16" class="s13" d="m578 443l5-1-1 2h-4z"/>
		<path id="Path 17" class="s7" d="m631 445l-2-3 3 3z"/>
		<path id="Path 18" class="s10" d="m551 448l18-1 9-4v1l-8 4-11 1h-8z"/>
		<path id="Path 19" class="s14" d="m570 448l8-4h4l1 6v2h-12z"/>
		<path id="Path 20" class="s11" d="m819 445l8-1 8 8-3 6-1 5-7 5-5-6z"/>
		<path id="Path 21" class="s9" d="m629 450l2-5h1l2 2 4 3 9 7h1l6 5h-3-7l-4-4h-7z"/>
		<path id="Path 22" class="s15" d="m599 448l14-2 8 4v9l-16-1-10-5z"/>
		<path id="Path 23" class="s16" d="m638 450l-4-3 5 2z"/>
		<path id="Path 24" class="s5" d="m543 450l8-2v1l-7 1z"/>
		<path id="Path 25" class="s17" d="m559 449l11-1 1 4h-12z"/>
		<path id="Path 26" class="s18" d="m544 450l7-1h8v3h-15z"/>
		<path id="Path 27" class="s19" d="m638 450l1-1 8 8z"/>
		<path id="Path 28" class="s20" d="m504 452l11-2v3h-10z"/>
		<path id="Path 29" class="s21" d="m515 453v-3h10v2l-7 1z"/>
		<path id="Path 30" class="s13" d="m525 452v-2h9v2z"/>
		<path id="Path 31" class="s22" d="m534 452v-2h9 1v2h-3z"/>
		<path id="Path 32" class="s23" d="m583 452v-2l6 3z"/>
		<path id="Path 33" class="s24" d="m621 459v-9h8l4 8-1 2z"/>
		<path id="Path 34" class="s25" d="m767 454l11-4 30 2 3 10-4 4h-12l-15 2-4-6h-9z"/>
		<path id="Path 35" class="s20" d="m461 453l8-1v2h-8z"/>
		<path id="Path 36" class="s13" d="m469 454v-2h9v2h-5z"/>
		<path id="Path 37" class="s22" d="m478 454v-2h26l1 1z"/>
		<path id="Path 38" class="s23" d="m518 453l7-1h9 7l-2 4h-19z"/>
		<path id="Path 39" class="s26" d="m518 453l2 3h19l2-4h3 15 12 12l6 1h6l10 5v10l-8 4-14 2h-6l-25-2-11-1-3-5h-21-7l-1 3-10 1h-8l-3-4h-9l-6-4v-8h5l27-1h10z"/>
		<path id="Path 40" class="s7" d="m758 453l3-1v1z"/>
		<path id="Path 41" class="s0" d="m428 455l7-2v1z"/>
		<path id="Path 42" class="s27" d="m435 454v-1h7v1h-6z"/>
		<path id="Path 43" class="s7" d="m442 454v-1h7v1z"/>
		<path id="Path 44" class="s28" d="m449 454v-1h12v1h-8z"/>
		<path id="Path 45" class="s7" d="m753 455l5-2-1 1z"/>
		<path id="Path 46" class="s14" d="m757 454l1-1h3l6 1v8l-10-2z"/>
		<path id="Path 47" class="s16" d="m428 455l7-1h1v2h-3-5z"/>
		<path id="Path 48" class="s29" d="m436 456v-2h6 7 4l-4 2z"/>
		<path id="Path 49" class="s30" d="m449 456l4-2h8 8 4v8l-2 4h-20l-2-4z"/>
		<path id="Path 50" class="s31" d="m753 455l4-1v6l-6 5v5l-2 5h-7l-1-6-4-4h-5l-1-1 1-2h2l14-5z"/>
		<path id="Path 51" class="s0" d="m386 457l9-2v1l-8 1z"/>
		<path id="Path 52" class="s27" d="m395 456v-1h8v1z"/>
		<path id="Path 53" class="s32" d="m403 456v-1h10v1z"/>
		<path id="Path 54" class="s28" d="m413 456v-1h7v1z"/>
		<path id="Path 55" class="s33" d="m420 456v-1h8v1h-7z"/>
		<path id="Path 56" class="s34" d="m387 457l8-1v2h-8z"/>
		<path id="Path 57" class="s18" d="m395 458v-2h8 10l-8 2z"/>
		<path id="Path 58" class="s35" d="m405 458l8-2h7 1v8h-14z"/>
		<path id="Path 59" class="s30" d="m421 464v-8h7 5v5z"/>
		<path id="Path 60" class="s35" d="m433 461v-5h3 13v6z"/>
		<path id="Path 61" class="s5" d="m354 458l8-1v1l-7 1h-1z"/>
		<path id="Path 62" class="s36" d="m362 458v-1h6v1z"/>
		<path id="Path 63" class="s37" d="m368 458v-1h5v1z"/>
		<path id="Path 64" class="s38" d="m373 458v-1h6v1z"/>
		<path id="Path 65" class="s39" d="m379 458v-1h7z"/>
		<path id="Path 66" class="s35" d="m379 458l7-1h1v1 10l-14 2-2-2-24 2-3-2-13 2-7-3v-6h3l5-1h5 7l10-1h1l18-1z"/>
		<path id="Path 67" class="s19" d="m654 462l-6-5 13 5h-4z"/>
		<path id="Path 68" class="s19" d="m326 460l6-2v2l-5 1z"/>
		<path id="Path 69" class="s1" d="m332 460v-2h4l1 2z"/>
		<path id="Path 70" class="s37" d="m337 460l-1-2h9l-1 2z"/>
		<path id="Path 71" class="s40" d="m344 460l1-2h9v1z"/>
		<path id="Path 72" class="s12" d="m355 459l7-1h6 5z"/>
		<path id="Path 73" class="s41" d="m387 468v-10h8 10l2 6v4h-10z"/>
		<path id="Path 74" class="s42" d="m605 468v-10l16 1 11 1 11 2v8h-20z"/>
		<path id="Path 75" class="s43" d="m632 460l1-2h7l4 4h-1z"/>
		<path id="Path 76" class="s19" d="m304 462l7-2v2z"/>
		<path id="Path 77" class="s44" d="m311 462v-2h15l1 1h-3z"/>
		<path id="Path 78" class="s45" d="m751 470v-5l6-5 10 2h9l4 6-5 2v4h-8-4l-3-4z"/>
		<path id="Path 79" class="s30" d="m311 462l13-1v6l7 3v8l-6 3-9-1-13-2 1-16z"/>
		<path id="Path 80" class="s46" d="m421 464l12-3 16 1 2 4-5 6h-13-10l-3-4-10 1-3-1v-4z"/>
		<path id="Path 81" class="s32" d="m280 463l5-1v2h-1-4z"/>
		<path id="Path 82" class="s21" d="m285 464v-2h7v2z"/>
		<path id="Path 83" class="s22" d="m292 464v-2h9z"/>
		<path id="Path 84" class="s41" d="m292 464l9-2h3l-1 16-1 2h-5l-10-4-4-10 1-2h1z"/>
		<path id="Path 85" class="s47" d="m471 466l2-4 6 4-6 2z"/>
		<path id="Path 86" class="s48" d="m643 470v-8h1 7v8z"/>
		<path id="Path 87" class="s35" d="m651 470v-8h3 3l6 2v6h-10z"/>
		<path id="Path 88" class="s49" d="m663 464l-6-2h4 9v2z"/>
		<path id="Path 89" class="s13" d="m670 464v-2h6v2z"/>
		<path id="Path 90" class="s21" d="m676 464v-2l13 1v1z"/>
		<path id="Path 91" class="s21" d="m726 463l6-1-1 2h-5z"/>
		<path id="Path 92" class="s8" d="m807 466l4-4h8l5 6v1l-5 3-2 3-3 3-7-7z"/>
		<path id="Path 93" class="s27" d="m264 467l16-4v1l-5 2h-3l-7 1z"/>
		<path id="Path 94" class="s28" d="m689 464v-1h11v1h-7z"/>
		<path id="Path 95" class="s7" d="m700 464v-1h19v1z"/>
		<path id="Path 96" class="s33" d="m719 464v-1h7v1h-6z"/>
		<path id="Path 97" class="s50" d="m275 466l5-2h4l-1 2z"/>
		<path id="Path 98" class="s48" d="m663 470v-6h7 6 13 4v2 4l-22 2z"/>
		<path id="Path 99" class="s50" d="m693 466v-2h7 19 1l-3 2h-14z"/>
		<path id="Path 100" class="s26" d="m717 466l3-2h6 5l1 1-2 4-13 1z"/>
		<path id="Path 101" class="s51" d="m717 470l13-1 2-4h5l4 4 1 6-1 9h-4l-14-1h-6l-3-1-1-11z"/>
		<path id="Path 102" class="s3" d="m265 467l7-1-7 2z"/>
		<path id="Path 103" class="s35" d="m265 468l7-2h3 8l4 10 2 16h-9l-3-6h-8l-5-7h-5l-4-10z"/>
		<path id="Path 104" class="s52" d="m446 472l5-6h20l2 2v6h-6l-6 1v6h-11l-4-1z"/>
		<path id="Path 105" class="s53" d="m473 468l6-2h9l3 4v11h-16l-2-7z"/>
		<path id="Path 106" class="s54" d="m509 469l1-3h7v6h-6z"/>
		<path id="Path 107" class="s51" d="m517 472v-6h21l3 5-2 10h-20z"/>
		<path id="Path 108" class="s42" d="m693 470v-4h10v4l-6 1z"/>
		<path id="Path 109" class="s35" d="m703 470v-4h14v4l-4 1z"/>
		<path id="Path 110" class="s31" d="m780 468l15-2v13h-2l-3-3-15-2v-4z"/>
		<path id="Path 111" class="s55" d="m795 479v-13h12v5l7 7 2 8 7 9-2 15h-8l-4-14-6-4z"/>
		<path id="Path 112" class="s36" d="m254 468l10-1h1v1l-10 1h-1z"/>
		<path id="Path 113" class="s6" d="m243 470l6-2v1l-5 1z"/>
		<path id="Path 114" class="s38" d="m249 469v-1h5v1h-1z"/>
		<path id="Path 115" class="s56" d="m331 470l13-2 3 2v8h-16z"/>
		<path id="Path 116" class="s43" d="m347 470l24-2 2 2v12h-4l-4-4h-18z"/>
		<path id="Path 117" class="s57" d="m373 470l14-2h10v13l-15 1h-9z"/>
		<path id="Path 118" class="s56" d="m397 481v-13h10l3 1 1 11-3 1z"/>
		<path id="Path 119" class="s43" d="m410 469l10-1 3 4v9h-12v-1z"/>
		<path id="Path 120" class="s58" d="m597 472l8-4 18 2v6 5h-26z"/>
		<path id="Path 121" class="s58" d="m244 470l5-1h4l-3 3-6-1z"/>
		<path id="Path 122" class="s59" d="m244 471l6 1 3-3h1 1l4 10-1 3-7 1-10-1v-10z"/>
		<path id="Path 123" class="s53" d="m499 470l10-1 2 3h6l2 9h-20z"/>
		<path id="Path 124" class="s44" d="m229 472l14-2h1v1l-3 1-12 1z"/>
		<path id="Path 125" class="s17" d="m491 481v-11h8v11z"/>
		<path id="Path 126" class="s54" d="m623 476v-6h20 8 2v11h-15v-3l-4-1h-7z"/>
		<path id="Path 127" class="s52" d="m653 481v-11h10l8 2v9z"/>
		<path id="Path 128" class="s60" d="m671 472l22-2 4 1v11h-2-8l-16-1z"/>
		<path id="Path 129" class="s54" d="m697 471l6-1 10 1 1 11h-8-9z"/>
		<path id="Path 130" class="s17" d="m749 475l2-5h9l3 4-5 8h-3l-6-3z"/>
		<path id="Path 131" class="s58" d="m539 481l2-10 11 1-1 9z"/>
		<path id="Path 132" class="s13" d="m223 473l6-1v1 1h-4-2z"/>
		<path id="Path 133" class="s61" d="m229 473l12-1v10 4h-4l-1-4-5-2-2-6z"/>
		<path id="Path 134" class="s60" d="m423 481v-9h10v8l-1 2z"/>
		<path id="Path 135" class="s43" d="m433 480v-8h13v8 1h-4z"/>
		<path id="Path 136" class="s17" d="m551 481l1-9 25 2v7z"/>
		<path id="Path 137" class="s17" d="m583 474l14-2v9h-14z"/>
		<path id="Path 138" class="s27" d="m216 475l7-2v1l-5 1z"/>
		<path id="Path 139" class="s61" d="m218 475l5-1h2l1 8-3 6h-4l-10-2v-8z"/>
		<path id="Path 140" class="s62" d="m226 482l-1-8h4l2 6z"/>
		<path id="Path 141" class="s60" d="m461 481v-6l6-1v7z"/>
		<path id="Path 142" class="s23" d="m467 481v-7h6l2 7z"/>
		<path id="Path 143" class="s58" d="m577 481v-7h6v7z"/>
		<path id="Path 144" class="s52" d="m758 482l5-8h4v10l-4 1z"/>
		<path id="Path 145" class="s53" d="m763 485l4-1v-10h8l15 2 3 3v5l4 3v9l-18 2-7 8-1 13h-6l-2-1h-1l-14-4 3-4-1-6 1-6 3-1 2-7h5z"/>
		<path id="Path 146" class="s63" d="m208 477l2-2h6 2l-9 3h-4-3v-1z"/>
		<path id="Path 147" class="s52" d="m741 484l1-9h7v4l-2 7h-6z"/>
		<path id="Path 148" class="s2" d="m814 478l3-3v11h-1z"/>
		<path id="Path 149" class="s57" d="m289 492l-2-16 10 4v14z"/>
		<path id="Path 150" class="s23" d="m623 481v-5l4 1v4z"/>
		<path id="Path 151" class="s5" d="m196 478l6-1v1l-5 1h-1z"/>
		<path id="Path 152" class="s58" d="m627 481v-4h7v4z"/>
		<path id="Path 153" class="s23" d="m634 481v-4l4 1v3z"/>
		<path id="Path 154" class="s6" d="m186 480l5-2v2z"/>
		<path id="Path 155" class="s40" d="m191 480v-2h5v1l-1 1h-3z"/>
		<path id="Path 156" class="s14" d="m197 479l5-1h3z"/>
		<path id="Path 157" class="s64" d="m197 479l8-1h4v8l-13 1-1-7 1-1z"/>
		<path id="Path 158" class="s60" d="m302 480l1-2 13 2-1 8h-5l-5-1z"/>
		<path id="Path 159" class="s65" d="m325 481l6-3h16 18l4 4-37 4h-7z"/>
		<path id="Path 160" class="s66" d="m258 482l1-3h5l5 7v4l-5 2-2-1v-5z"/>
		<path id="Path 161" class="s47" d="m747 486l2-7 6 3v6h-7z"/>
		<path id="Path 162" class="s67" d="m771 519l1-13 7-8 18-2v-9l-4-3v-5h2l8 13 6 4 4 14-5 16h-6l-9-1-7-2h-1z"/>
		<path id="Path 163" class="s19" d="m178 482l6-2-1 1z"/>
		<path id="Path 164" class="s23" d="m183 481l1-1h2 5 1l-9 3z"/>
		<path id="Path 165" class="s59" d="m183 483l9-3h3l1 7-1 1h-14v-5z"/>
		<path id="Path 166" class="s56" d="m226 482l5-2 5 2 1 4v6h-2l-8 1-5 2-3-4v-3h4z"/>
		<path id="Path 167" class="s65" d="m297 494v-14h5l3 7-4 2v4z"/>
		<path id="Path 168" class="s57" d="m315 488l1-8 9 1v5z"/>
		<path id="Path 169" class="s3" d="m408 481l3-1v1z"/>
		<path id="Path 170" class="s4" d="m432 482l1-2 9 1z"/>
		<path id="Path 171" class="s18" d="m446 481v-1l4 1z"/>
		<path id="Path 172" class="s50" d="m178 482l5-1v2h-2l-9 3h-7v-1l9-3z"/>
		<path id="Path 173" class="s68" d="m382 482l15-1h11 3 12l9 1 10-1h4 4 11 6 8 16 8 20 20 12 26 6 14 26 4 7 4 15 18l16 1v6h-9l-9 1-20 1h-18-6-8l-16 1h-13-5-10-5l-19 1-16-1h-6l-16 1h-6-11l-23 2-18 1-8-1-14 2 2 4 6 1 1 4h3l2 12v7h-7l-3 4h-6l-3-2-13 2-8-1-9 1-28 1v-3l-9-6-8 1v7l-19-1-9-2v-7l-8-5v-11h6l4-11 7-5 37-4h4l8 2z"/>
		<path id="Path 174" class="s27" d="m164 485l10-3-9 3z"/>
		<path id="Path 175" class="s35" d="m241 486v-4l10 1v7l-10 2z"/>
		<path id="Path 176" class="s41" d="m251 483l7-1 4 4v5h-9l-2-1z"/>
		<path id="Path 177" class="s4" d="m382 482l-1 2-8-2z"/>
		<path id="Path 178" class="s69" d="m687 488v-6h8v6h-5z"/>
		<path id="Path 179" class="s70" d="m695 488v-6h2 9l-1 6z"/>
		<path id="Path 180" class="s71" d="m705 488l1-6h8l3 1v4l-4 1z"/>
		<path id="Path 181" class="s56" d="m755 488v-6h3l5 3-2 5h-5z"/>
		<path id="Path 182" class="s48" d="m172 486l9-3v5l-2 1h-6z"/>
		<path id="Path 183" class="s72" d="m717 487v-4h6v4z"/>
		<path id="Path 184" class="s73" d="m723 487v-4l14 1v4z"/>
		<path id="Path 185" class="s74" d="m737 488v-4h4v2 2z"/>
		<path id="Path 186" class="s37" d="m158 486l6-1h1v1h-1z"/>
		<path id="Path 187" class="s22" d="m148 488l10-2h6l-15 5h-4l-4 5v-1-2-1l2-2h1z"/>
		<path id="Path 188" class="s64" d="m149 491l15-5h1 7l1 3-3 4-21 1z"/>
		<path id="Path 189" class="s31" d="m196 487l13-1 10 2v3l-5-3-19 1v-1z"/>
		<path id="Path 190" class="s30" d="m237 492v-6h4v6z"/>
		<path id="Path 191" class="s41" d="m269 490v-4h8l3 6-2 2-5-1z"/>
		<path id="Path 192" class="s75" d="m315 488l10-2h7l-7 5-4 11h-6-6v-4l1-10z"/>
		<path id="Path 193" class="s60" d="m741 488v-2h6l1 2-1 6h-6z"/>
		<path id="Path 194" class="s20" d="m823 495l-7-9h1l8 8-1 1z"/>
		<path id="Path 195" class="s76" d="m301 493v-4l4-2 5 1-1 10h-6z"/>
		<path id="Path 196" class="s23" d="m713 488l4-1h6l14 1h4v6 10 2h-8l-7-10h-13z"/>
		<path id="Path 197" class="s77" d="m179 489l2-1h14v1 1l-5 4-1 6-4 3-6-5z"/>
		<path id="Path 198" class="s69" d="m195 489l19-1 5 3 3 4v12l-7-2v-5l-4-3-2-1-1-2-6 2h-2l-5-6z"/>
		<path id="Path 199" class="s4" d="m669 489l9-1v2z"/>
		<path id="Path 200" class="s12" d="m678 490v-2h9 3l-1 2h-10z"/>
		<path id="Path 201" class="s65" d="m689 490l1-2h5 10 8v8h-4l-9 1-9-1z"/>
		<path id="Path 202" class="s17" d="m747 494l1-6h7l1 2-2 7-3 1z"/>
		<path id="Path 203" class="s54" d="m170 493l3-4h6v9h-6z"/>
		<path id="Path 204" class="s43" d="m649 490l20-1 9 1h1v8h-2-6l-22-4z"/>
		<path id="Path 205" class="s68" d="m189 500l1-6 5-4 5 6-3 9 7 5 5 1 4-4 2-2 7 2-4 9-9 4h-5l-7-3-6-6z"/>
		<path id="Path 206" class="s9" d="m241 492l10-2 2 1-2 7-1 2-7 2h-4v-5z"/>
		<path id="Path 207" class="s57" d="m264 492l5-2 4 3-2 5-5-1z"/>
		<path id="Path 208" class="s3" d="m527 491h6l-1 1z"/>
		<path id="Path 209" class="s65" d="m588 491h13v5l-6 1-6-1z"/>
		<path id="Path 210" class="s23" d="m601 491l16-1v6h-16z"/>
		<path id="Path 211" class="s60" d="m617 496v-6h8v6z"/>
		<path id="Path 212" class="s65" d="m625 496v-6h6v6z"/>
		<path id="Path 213" class="s78" d="m631 496v-6h18v4l-10 2z"/>
		<path id="Path 214" class="s56" d="m679 498v-8h10l2 6v2z"/>
		<path id="Path 215" class="s61" d="m141 496l4-5h4v3l-2 8v4h-2l-4-4z"/>
		<path id="Path 216" class="s79" d="m227 493l8-1 4 5v5l1 7-3 5-4-2-1-10z"/>
		<path id="Path 217" class="s79" d="m251 498l2-7h9l2 1 2 5v5l-3 1-4-5z"/>
		<path id="Path 218" class="s78" d="m494 492h11l3 12-2 5h-11l-4-9z"/>
		<path id="Path 219" class="s65" d="m505 492h6l4 10v2h-7z"/>
		<path id="Path 220" class="s77" d="m511 492l16-1 5 1 1 8-6 2h-12z"/>
		<path id="Path 221" class="s65" d="m532 492l1-1 16 1v4l-16 4z"/>
		<path id="Path 222" class="s58" d="m549 492l19-1-5 5h-14z"/>
		<path id="Path 223" class="s60" d="m549 496h14l5-5h5 10 5l1 5v6 4h-22l-1 4h-11l-2-2-26 2v-8l6-2z"/>
		<path id="Path 224" class="s78" d="m239 497l-4-5h2 4z"/>
		<path id="Path 225" class="s46" d="m278 494l2-2h9l8 2 2 10-2 2-8-4-8-3z"/>
		<path id="Path 226" class="s11" d="m471 494l23-2-3 8-18 5z"/>
		<path id="Path 227" class="s5" d="m139 494l2-1v2h-2z"/>
		<path id="Path 228" class="s66" d="m149 494l21-1 3 5 2 16-5 4-3-2-5-4 3-1-2-7-16-2z"/>
		<path id="Path 229" class="s80" d="m222 495l5-2 5 9 1 10h-5l-8 6-2-2 4-9z"/>
		<path id="Path 230" class="s81" d="m271 498l2-5 5 1 3 5v7h-9v-3z"/>
		<path id="Path 231" class="s45" d="m297 494l4-1 2 5-1 6h-3z"/>
		<path id="Path 232" class="s82" d="m453 495l18-1 2 11-10 3-2-2v-6l-8-2z"/>
		<path id="Path 233" class="s14" d="m202 496l6-2 1 2z"/>
		<path id="Path 234" class="s75" d="m439 501l-6-1-2-4 14-2v4z"/>
		<path id="Path 235" class="s76" d="m445 498v-4l8 1v3l-2 1z"/>
		<path id="Path 236" class="s46" d="m639 496l10-2 22 4v6l-2 1-3 3-2 2-17-2z"/>
		<path id="Path 237" class="s31" d="m741 504v-10h6l4 4-1 6z"/>
		<path id="Path 238" class="s5" d="m824 495l1-1 4 3z"/>
		<path id="Path 239" class="s1" d="m139 503v-8h2v1 6l4 4h-2l-2-1z"/>
		<path id="Path 240" class="s8" d="m821 510l2-15h1l5 2 10 5 4 3 7 8 1 1 1 4v7l-2 1h-6l-1 6h-3l-9-1h-5l-6-1-2-2 7-8-1-8z"/>
		<path id="Path 241" class="s61" d="m204 510l-7-5 3-9h2 7l2 1v3l-12 1 6 8z"/>
		<path id="Path 242" class="s43" d="m589 502v-6l6 1-2 5z"/>
		<path id="Path 243" class="s47" d="m595 497l6-1h16 8 6 8l8 12v10l-7 1-1-3h-12l-16-2-5-5-17-3v-4h4z"/>
		<path id="Path 244" class="s52" d="m691 498v-2l9 1-1 7h-8z"/>
		<path id="Path 245" class="s47" d="m700 497l9-1v8h-10z"/>
		<path id="Path 246" class="s52" d="m709 504v-8h4 13l7 10v5l-12-3h-1l-9-3z"/>
		<path id="Path 247" class="s41" d="m211 500v-3l4 3v5l-2 2z"/>
		<path id="Path 248" class="s14" d="m266 502v-5l5 1 1 5z"/>
		<path id="Path 249" class="s30" d="m175 514l-2-16h6l6 5v13h-5z"/>
		<path id="Path 250" class="s68" d="m250 500l1-2h8l4 5v9h-6l-7-6z"/>
		<path id="Path 251" class="s71" d="m302 504l1-6h6v4l-3 9-4 1z"/>
		<path id="Path 252" class="s83" d="m439 501l6-3 6 1v5l-8 1h-3z"/>
		<path id="Path 253" class="s72" d="m451 499l2-1 8 2v6l-7 3-3-5z"/>
		<path id="Path 254" class="s30" d="m671 504v-6h6v6z"/>
		<path id="Path 255" class="s46" d="m677 504v-6h2 12v6z"/>
		<path id="Path 256" class="s34" d="m281 506v-7l8 3v4l-4 1z"/>
		<path id="Path 257" class="s31" d="m185 503l4-3 2 11 6 6-2 4-8-2-2-3z"/>
		<path id="Path 258" class="s84" d="m205 509l-6-8 12-1 2 7z"/>
		<path id="Path 259" class="s85" d="m243 502l7-2v6h-6z"/>
		<path id="Path 260" class="s86" d="m473 505l18-5 4 9h11l2-5h7l2 12-33 8h-10l-7 5-4-7v-14z"/>
		<path id="Path 261" class="s64" d="m147 506v-4l16 2 2 7-3 1-13-4z"/>
		<path id="Path 262" class="s11" d="m240 509l-1-7h4l1 4z"/>
		<path id="Path 263" class="s80" d="m263 503l3-1 6 1v3l-5 7-4-1z"/>
		<path id="Path 264" class="s18" d="m289 506v-4l8 4v6h-6z"/>
		<path id="Path 265" class="s69" d="m306 511l3-9h6v11l8 5v7h-9l-5-4v-7z"/>
		<path id="Path 266" class="s23" d="m515 504v-2h12v8l-2 6h-8z"/>
		<path id="Path 267" class="s0" d="m843 505l-4-3 5 3z"/>
		<path id="Path 268" class="s2" d="m139 505v-2l2 2z"/>
		<path id="Path 269" class="s17" d="m297 506l2-2h3v8l-1 1-4-1z"/>
		<path id="Path 270" class="s87" d="m443 505l8-1 3 5-5 8h-4z"/>
		<path id="Path 271" class="s33" d="m669 505l2-1h6 14 8 10l2 1z"/>
		<path id="Path 272" class="s52" d="m741 506v-2h9l1 6-3 4-7-1z"/>
		<path id="Path 273" class="s88" d="m850 513l-7-8h1l7 8z"/>
		<path id="Path 274" class="s32" d="m145 507l-2-1h2z"/>
		<path id="Path 275" class="s36" d="m145 507v-1h2l2 2z"/>
		<path id="Path 276" class="s70" d="m240 509l4-3h6l7 6h6l4 1-2 15-11 2h-14l-3-4v-12z"/>
		<path id="Path 277" class="s68" d="m267 513l5-7h9l4 1 3 5 3 7h8v9l-1 4-7 2h-18-4l-4-6z"/>
		<path id="Path 278" class="s71" d="m285 507l4-1 2 6h-3z"/>
		<path id="Path 279" class="s18" d="m454 509l7-3 2 2v14l-10 2-4-7z"/>
		<path id="Path 280" class="s52" d="m566 510l1-4h22l17 3 5 5v7l-1 1h-17-24z"/>
		<path id="Path 281" class="s53" d="m733 511v-5h8v7z"/>
		<path id="Path 282" class="s41" d="m205 509l8-2-4 4-5-1z"/>
		<path id="Path 283" class="s36" d="m167 518l-18-10 13 4 5 4z"/>
		<path id="Path 284" class="s52" d="m527 510l26-2 2 2-2 10-8-2-8 2-12-1v-3z"/>
		<path id="Path 285" class="s77" d="m647 518v-10l17 2-2 4-9 4h-4z"/>
		<path id="Path 286" class="s0" d="m664 510l2-2-4 7v-1z"/>
		<path id="Path 287" class="s38" d="m733 512h-7l-5-4 12 3z"/>
		<path id="Path 288" class="s54" d="m537 520l8-2 8 2 2-10h11l3 12-8 5v3l-7 2h-15-2z"/>
		<path id="Path 289" class="s86" d="m808 526l5-16h8l3 2 1 8-7 8-10-1z"/>
		<path id="Path 290" class="s89" d="m302 512l4-1 3 3v7l5 4-2 3h-13v-9l2-6z"/>
		<path id="Path 291" class="s36" d="m733 512v-1l8 2 7 1 14 4z"/>
		<path id="Path 292" class="s68" d="m220 518l8-6h5l4 2v12h-10v6h-10l-10-2v-6l3-1z"/>
		<path id="Path 293" class="s87" d="m299 519h-8l-3-7h3 6l4 1z"/>
		<path id="Path 294" class="s10" d="m850 513h1v1h-1z"/>
		<path id="Path 295" class="s2" d="m851 513h1v1h-1z"/>
		<path id="Path 296" class="s57" d="m170 518l5-4 5 2v6l-4 2h-1z"/>
		<path id="Path 297" class="s77" d="m611 521v-7l16 2 1 6v1h-2l-8 1z"/>
		<path id="Path 298" class="s27" d="m653 518l9-4v1z"/>
		<path id="Path 299" class="s19" d="m852 518l-1-4h1z"/>
		<path id="Path 300" class="s49" d="m167 518v-2l3 2 5 6h-2z"/>
		<path id="Path 301" class="s67" d="m176 524l4-2v-6h5l2 3 4 7h4l10 4v2l-18-1-4-3h-2l-5-3z"/>
		<path id="Path 302" class="s4" d="m209 520l9-4 2 2-10 5z"/>
		<path id="Path 303" class="s54" d="m484 524l33-8h8v3l-2 6 2 7v4l-15 2-20-2-6-7z"/>
		<path id="Path 304" class="s65" d="m628 522l-1-6h12l1 3v1l-3 1z"/>
		<path id="Path 305" class="s74" d="m195 521l2-4 7 3 3 4v6h-2l-10-4z"/>
		<path id="Path 306" class="s4" d="m445 524v-7h4l4 7 2 14-10 3 2-10z"/>
		<path id="Path 307" class="s44" d="m640 519l7-1h2l-8 2h-1z"/>
		<path id="Path 308" class="s63" d="m765 520l-2-2 2 1z"/>
		<path id="Path 309" class="s80" d="m195 526h-4l-4-7 8 2z"/>
		<path id="Path 310" class="s51" d="m525 532l-2-7 2-6 12 1v12z"/>
		<path id="Path 311" class="s37" d="m765 520v-1h6l14 4z"/>
		<path id="Path 312" class="s9" d="m207 524l-3-4h5l1 3z"/>
		<path id="Path 313" class="s81" d="m351 528v-7l8-1 9 6v3l-4 3h-9z"/>
		<path id="Path 314" class="s10" d="m637 521l3-1h1l-4 2z"/>
		<path id="Path 315" class="s78" d="m610 522l1-1 7 3v1l-4 1h-4z"/>
		<path id="Path 316" class="s36" d="m628 522l9-1v1l-9 1z"/>
		<path id="Path 317" class="s15" d="m453 524l10-2 4 7v5l-2 8h-3l-1-4h-6z"/>
		<path id="Path 318" class="s90" d="m561 530v-3l8-5h24v10l-1 1-5 2-5 1-4 1-15-2-2-1z"/>
		<path id="Path 319" class="s15" d="m593 532v-10h17v4l-1 2h-3l-4 1z"/>
		<path id="Path 320" class="s36" d="m618 524l8-1-7 2h-1z"/>
		<path id="Path 321" class="s32" d="m176 525l-3-1h2 1z"/>
		<path id="Path 322" class="s75" d="m435 528l3-4h7l2 7-2 10h-8l-2-1v-4z"/>
		<path id="Path 323" class="s60" d="m467 529l7-5h10v5l6 7-7 3-3 5-6-1v-1l1-6-8-2z"/>
		<path id="Path 324" class="s82" d="m312 528l2-3h9l9 2v4l-3 1h-14z"/>
		<path id="Path 325" class="s0" d="m614 526l4-1h1l-5 2z"/>
		<path id="Path 326" class="s27" d="m802 528l-9-3 9 1z"/>
		<path id="Path 327" class="s20" d="m850 526l2-1v4h-2z"/>
		<path id="Path 328" class="s74" d="m227 532v-6h10l3 4v2h-9z"/>
		<path id="Path 329" class="s85" d="m396 528l9-1-5 3z"/>
		<path id="Path 330" class="s91" d="m413 528l13-2 3 2v8 2h-6l-9-2z"/>
		<path id="Path 331" class="s28" d="m609 528l1-2h4v1z"/>
		<path id="Path 332" class="s21" d="m802 528v-2h6v1 1z"/>
		<path id="Path 333" class="s11" d="m843 532l1-6h6v3l-3 3z"/>
		<path id="Path 334" class="s91" d="m329 532l3-1v-4l19 1 4 4-4 12h-8-6-4v-4l-4-2z"/>
		<path id="Path 335" class="s92" d="m396 528l4 2 5-3 8 1 1 8-1 6h-8l-14-2h-11l-1 6h-5-10l-8-1-5-1 4-12h9l4-3z"/>
		<path id="Path 336" class="s13" d="m808 528v-1l10 1 2 2h-1z"/>
		<path id="Path 337" class="s38" d="m204 533l-18-1-3-4 4 3 18 1v1z"/>
		<path id="Path 338" class="s80" d="m254 530l11-2 4 6v3 3l-5 1-6-1v-1l1-5-5-2z"/>
		<path id="Path 339" class="s83" d="m298 532l1-4h13l3 4v4h-8z"/>
		<path id="Path 340" class="s92" d="m429 536v-8h6v8z"/>
		<path id="Path 341" class="s19" d="m602 529l4-1-4 2z"/>
		<path id="Path 342" class="s83" d="m240 530h14v2l-7 2h-6l-1-2z"/>
		<path id="Path 343" class="s10" d="m593 532l9-3v1l-10 3z"/>
		<path id="Path 344" class="s2" d="m847 532l3-3h2v1l-5 3z"/>
		<path id="Path 345" class="s18" d="m205 532v-2h2l10 2v2h-7l-5-1z"/>
		<path id="Path 346" class="s78" d="m554 532l7-2v4h-7z"/>
		<path id="Path 347" class="s5" d="m826 532l-7-2h1l6 1z"/>
		<path id="Path 348" class="s36" d="m826 532v-1h5v1z"/>
		<path id="Path 349" class="s5" d="m831 532v-1l9 1v1z"/>
		<path id="Path 350" class="s29" d="m217 534v-2h10 4v4h-8l-5-1z"/>
		<path id="Path 351" class="s3" d="m231 536v-4h9l1 2v4h-9z"/>
		<path id="Path 352" class="s55" d="m247 534l7-2 5 2-1 5h-7l-4-1z"/>
		<path id="Path 353" class="s82" d="m291 534l7-2 9 4v6h-2-12z"/>
		<path id="Path 354" class="s92" d="m315 536v-4h14v6h-9z"/>
		<path id="Path 355" class="s15" d="m525 536v-4h12 2v13l-8-1v-6z"/>
		<path id="Path 356" class="s8" d="m539 545v-13h15v2l-1 10v2h-12z"/>
		<path id="Path 357" class="s36" d="m840 533v-1h3 4v1z"/>
		<path id="Path 358" class="s27" d="m210 535l-6-2h1l5 1z"/>
		<path id="Path 359" class="s71" d="m269 534h4l-4 3z"/>
		<path id="Path 360" class="s28" d="m210 535v-1h7l1 1z"/>
		<path id="Path 361" class="s11" d="m241 538v-4h6v4h-3z"/>
		<path id="Path 362" class="s12" d="m269 537l4-3h18l2 8h-4l-10-1-5-1h-5z"/>
		<path id="Path 363" class="s54" d="m465 542l2-8 8 2-1 6z"/>
		<path id="Path 364" class="s24" d="m553 544l1-10h7l2 1 2 6-1 2-2 1z"/>
		<path id="Path 365" class="s27" d="m223 537l-5-2 5 1z"/>
		<path id="Path 366" class="s11" d="m565 541l-2-6 15 2z"/>
		<path id="Path 367" class="s7" d="m582 536l5-1-5 2z"/>
		<path id="Path 368" class="s32" d="m223 537v-1h8l1 2z"/>
		<path id="Path 369" class="s76" d="m307 542v-6h8l5 2v4z"/>
		<path id="Path 370" class="s93" d="m413 542l1-6 9 2v8h-10z"/>
		<path id="Path 371" class="s82" d="m429 538v-2h6v4z"/>
		<path id="Path 372" class="s86" d="m480 544l3-5 7-3 20 2v8l-1 6h-2l-8-2-12-4-6-1z"/>
		<path id="Path 373" class="s24" d="m510 538l15-2 6 2v6l-8 2h-10-3z"/>
		<path id="Path 374" class="s1" d="m578 537l4-1v1l-18 6 1-2z"/>
		<path id="Path 375" class="s19" d="m251 540l-7-2h3l4 1z"/>
		<path id="Path 376" class="s8" d="m320 542v-4h9l4 2v4h-4l-9-1z"/>
		<path id="Path 377" class="s3" d="m423 546v-8h6l6 2 2 1v5z"/>
		<path id="Path 378" class="s67" d="m445 541l10-3h6l1 4-6 1-4 5h-7z"/>
		<path id="Path 379" class="s10" d="m251 540v-1h7v1z"/>
		<path id="Path 380" class="s10" d="m264 542l-6-2 6 1z"/>
		<path id="Path 381" class="s63" d="m264 541l5-1h5l-1 2h-9z"/>
		<path id="Path 382" class="s39" d="m273 542l1-2 5 1v1z"/>
		<path id="Path 383" class="s8" d="m379 546l1-6h11v6h-5z"/>
		<path id="Path 384" class="s14" d="m391 546v-6l14 2v4h-13z"/>
		<path id="Path 385" class="s5" d="m279 542v-1l10 1v1z"/>
		<path id="Path 386" class="s14" d="m437 546v-5h8v7h-4z"/>
		<path id="Path 387" class="s36" d="m289 543v-1h4 12v1z"/>
		<path id="Path 388" class="s37" d="m305 543v-1h2 13v1h-1z"/>
		<path id="Path 389" class="s29" d="m405 546v-4h8v4z"/>
		<path id="Path 390" class="s36" d="m456 543l6-1h3 9v1z"/>
		<path id="Path 391" class="s0" d="m329 545l-10-2h1l9 1z"/>
		<path id="Path 392" class="s27" d="m481 545l-7-2 6 1z"/>
		<path id="Path 393" class="s27" d="m562 544l2-1-2 2z"/>
		<path id="Path 394" class="s27" d="m329 545v-1h4 4v1z"/>
		<path id="Path 395" class="s7" d="m337 545v-1h6v1z"/>
		<path id="Path 396" class="s32" d="m343 545v-1h8l5 1z"/>
		<path id="Path 397" class="s82" d="m523 546l8-2 8 1 2 1v8l-15 1-3-1z"/>
		<path id="Path 398" class="s4" d="m553 546v-2h9v1l-1 3-4 1z"/>
		<path id="Path 399" class="s0" d="m364 547l-8-2 8 1z"/>
		<path id="Path 400" class="s27" d="m487 548l-6-3 6 1z"/>
		<path id="Path 401" class="s27" d="m364 547v-1h10v1z"/>
		<path id="Path 402" class="s7" d="m374 547v-1h5 7v1z"/>
		<path id="Path 403" class="s32" d="m386 547v-1h5 1v1z"/>
		<path id="Path 404" class="s28" d="m392 547v-1h13 8v1z"/>
		<path id="Path 405" class="s20" d="m413 547v-1h10 14l4 2z"/>
		<path id="Path 406" class="s13" d="m487 548v-2l12 4h-1z"/>
		<path id="Path 407" class="s8" d="m509 552l1-6h3v6z"/>
		<path id="Path 408" class="s9" d="m513 552v-6h10v8h-4l-6-1z"/>
		<path id="Path 409" class="s3" d="m541 554v-8h12l4 3v1l-1 3h-5z"/>
		<path id="Path 410" class="s27" d="m557 549l4-1-4 2z"/>
		<path id="Path 411" class="s10" d="m507 553l-9-3h1l8 2z"/>
		<path id="Path 412" class="s37" d="m507 553v-1h2 4v1z"/>
		<path id="Path 413" class="s27" d="m519 555l-6-2 6 1z"/>
		<path id="Path 414" class="s7" d="m541 554l10-1-10 2z"/>
		<path id="Path 415" class="s32" d="m519 555v-1h4l3 1z"/>
		<path id="Path 416" class="s88" d="m526 555l15-1v1l-1 2h-14z"/>
	</g>
</svg>