<svg version="1.2" xmlns="http://www.w3.org/2000/svg" viewBox="0 0 1000 1000" width="1000" height="1000">
	<title>Lepisosteus_platostomus</title>
	<style>
		.s0 { fill: #1e2423 } 
		.s1 { fill: #ecebf8 } 
		.s2 { fill: #85747b } 
		.s3 { fill: #4c4e57 } 
		.s4 { fill: #dfe1f6 } 
		.s5 { fill: #43464b } 
		.s6 { fill: #727380 } 
		.s7 { fill: #50525c } 
		.s8 { fill: #545761 } 
		.s9 { fill: #585b65 } 
		.s10 { fill: #585a5c } 
		.s11 { fill: #5e6166 } 
		.s12 { fill: #7e7680 } 
		.s13 { fill: #474952 } 
		.s14 { fill: #686c76 } 
		.s15 { fill: #777683 } 
		.s16 { fill: #646871 } 
		.s17 { fill: #232a2a } 
		.s18 { fill: #2a3030 } 
		.s19 { fill: #505152 } 
		.s20 { fill: #e4e6f7 } 
		.s21 { fill: #5e585c } 
		.s22 { fill: #4b4d4f } 
		.s23 { fill: #303637 } 
		.s24 { fill: #6a696d } 
		.s25 { fill: #cdd2ef } 
		.s26 { fill: #e6e5f4 } 
		.s27 { fill: #e0e0f2 } 
		.s28 { fill: #766f76 } 
		.s29 { fill: #383a3f } 
		.s30 { fill: #3d3f46 } 
		.s31 { fill: #3f4341 } 
		.s32 { fill: #d8dbf2 } 
		.s33 { fill: #3b3e3a } 
		.s34 { fill: #867980 } 
		.s35 { fill: #1a1e1d } 
		.s36 { fill: #7e6f76 } 
		.s37 { fill: #878ca2 } 
		.s38 { fill: #141b18 } 
		.s39 { fill: #484a46 } 
		.s40 { fill: #101614 } 
		.s41 { fill: #a3a7c5 } 
		.s42 { fill: #61656b } 
		.s43 { fill: #6f7178 } 
		.s44 { fill: #535557 } 
		.s45 { fill: #bec2e9 } 
		.s46 { fill: #d1dcf6 } 
		.s47 { fill: #c4caee } 
		.s48 { fill: #b6badd } 
		.s49 { fill: #8c7a83 } 
		.s50 { fill: #adb1d0 } 
		.s51 { fill: #81859b } 
		.s52 { fill: #0b0c0e } 
		.s53 { fill: #5d606e } 
		.s54 { fill: #635c62 } 
		.s55 { fill: #6c6e7d } 
		.s56 { fill: #848994 } 
		.s57 { fill: #7e818a } 
		.s58 { fill: #696267 } 
		.s59 { fill: #f3f2f8 } 
		.s60 { fill: #636361 } 
		.s61 { fill: #343735 } 
		.s62 { fill: #716a6f } 
		.s63 { fill: #2e302f } 
		.s64 { fill: #7b7f95 } 
		.s65 { fill: #716569 } 
		.s66 { fill: #6d5d62 } 
		.s67 { fill: #787c88 } 
		.s68 { fill: #575254 } 
		.s69 { fill: #8d7f8a } 
		.s70 { fill: #86898c } 
		.s71 { fill: #9ba2b2 } 
		.s72 { fill: #75798f } 
		.s73 { fill: #8c929c } 
		.s74 { fill: #979bb8 } 
		.s75 { fill: #a4acba } 
		.s76 { fill: #8c90ac } 
		.s77 { fill: #9ca0bd } 
		.s78 { fill: #9299a9 } 
		.s79 { fill: #9195b2 } 
		.s80 { fill: #b1bbc7 } 
		.s81 { fill: #c6c5c4 } 
		.s82 { fill: #b8babd } 
		.s83 { fill: #989da3 } 
		.s84 { fill: #949795 } 
		.s85 { fill: #282828 } 
		.s86 { fill: #a0a5aa } 
		.s87 { fill: #c9d0df } 
		.s88 { fill: #d6d4d4 } 
		.s89 { fill: #36312f } 
		.s90 { fill: #332421 } 
		.s91 { fill: #691714 } 
	</style>
	<g id="Background">
		<path id="Path 3" fill-rule="evenodd" class="s0" d="m798 437l12-5 3 5-5 6-3-3-8 1zm-36 10l4-4 5 3 3 2v4l6-2 2 1v4l15 5 6 7 4 2v4l-26-3-6 3-9-2-4-5zm-450 18v-11h8v10zm-17-9l8-1h3v10l-4 2-8-2zm-58 6l9-2v5l-6 1h-3zm631 7v-2h5v6l-4 2zm11 17l4-8h5l13 15h3v13h-3v3l5 2-1 4h-11l-4-4h-5l-3 4-12-3v-5l1-5 5-9zm-5 1l-3-5 5-1v5zm-158-2l12-3 5 5h-3l-12 1zm-610 6v-2h5v2zm649 13h-7l4-5 6 3zm210 3l-3-7h6v6zm-705 6l2-4 2 3-2 2zm6 4l6-3 3 1 9 4 9 9-1 7 1 7-5-3-1 6-10-10-6-7-5-6zm504 6l6-4 14 3 3 2-1 18-5 2h-9l-4 3-3 2-9-4-7 1 3 7h-6l-10-8-2-8v-2l4-2 6-2 8-2 10-2zm-286 27l1-7 19-2 14 3 1 6-3 5 6 6-6-2-5-5h-14l1 6-5-2z"/>
		<path id="Path 4" class="s1" d="m592 523h8l2-6h15l2 4h11l17 2 3-2h39l33 2 2 2v6h-17-5-18-36l-5 5-95 3-2-4h-6l-2-8 8-2 8 2 2-2zm-251 13l-3-5 1-6h37v10l-6 5-17 1-1-3-2-3zm61-7l20-2h30l27 3 1 8-7 1-12-3 1 5-60-2z"/>
		<path id="Path 6" class="s2" d="m965 442l3-6 12 3 8 9 7 17-2 20-7 1v7l3 1-2 7-17 21-14 7v-18h6l3-4 3-1v-6l4-13v-18l4-3-1-4v-6l-7-3-4-5zm-29 18v-5h7l1 4v6h-8zm-660 76l1-1 10 10 1 8-12-15zm37 16l10-3 2 3-7 24-5 1-9-7 7-8v-6zm447 9l11-2 5 4v6z"/>
		<path id="Path 7" class="s3" d="m544 473l-2-16h20l-1 9-11 7zm66-14l18-2h6l2 18v8l-2 6h-4v-5l-9-4-6-7-11-2v-12zm-122 10v-10h6 5l3 4 1 8-1 7-6 1v-5zm-126 6v-12h4 10l6 4v10l-20 2zm384-8l4-3 4 2v5h-8zm-460 6v-8h8l8 2v12l-2 4-10-1-4-4zm442 4l-5-2v-10l9 3v9zm-505-10l10 2 4-3h3v7h-6l-2 6-10 2-4-3v-7z"/>
		<path id="Path 8" class="s4" d="m755 506l17-3 20 6v7l-2 6-14-3-6 4-12 6-8 2-6 1h-8v-1-6l2-12v-4l4-2zm-135 5l1-2 9 2 1 2-1 8h-11l-2-4zm30 2l2-3 11 2h7l8-2 4 2 9 3-2 6h-39zm-92 1l3-2 8 2 19 1 4 2v6l-36 2v-4-6zm-57 1l9-2 14 2 2-2 10 2 7 1v4l3 1v4l-8 2h-44-11l-2-6v-4l15-2z"/>
		<path id="Path 9" class="s5" d="m440 463v-6h2l18 4v18l-8 1-3-5h-7zm196 12l-2-18h8 22 6 6v4h-7l-5 5v7l-2 4h-20zm-252-8l2-8h12l6 2v14h-10l-5-8zm-38-4l6-2h2v8h-5zm123 8l-1-10h10v8 2zm-349 7l3-1h5 4v3l-4 1h-10v-3zm716 13l2-4h8 2l3 6-1 9h-2l-9-1-3-1zm30 8v-5l3-1h1l-2 5zm-386 40h14 6l4 2-19 2-1 7-4-2z"/>
		<path id="Path 10" class="s6" d="m794 433v-11l8-8 10-1-2 19-12 5zm15 30l-1-5 8-4 1 5zm-741 21v-5h8v6h-5zm354 3h15l5-3 4 1 1 7h7l2-3h12 8v6l4 2v9l-7 4h-21-6l-16-1h-10v-4l-7-4v-4zm344 6l5-1 1 1v6h-4zm88 24l-1-3h3l10 2v3z"/>
		<path id="Path 11" class="s7" d="m532 459l1-3 9 1 2 16h-6v-3l-6-3zm132 14v-7l5-5h7 18 8l18 2 3 2v10l5 2v5l-12 3-10-2-4-4h-11-17l-1-5zm-424-7l6-1h6 3v6l-5 4h-7l-3-2zm62 1l4-2 1 6-1 8h-4zm534 3l12-5 4 5v9h-6-8zm-104-2l14-1v4l-2 4-6 2h-6zm39 24l-5-11 9-2 3 4-2 5 2 1v3l-6 1zm-646 1v-2h3l18 5 3 1v2l-24-5z"/>
		<path id="Path 12" class="s8" d="m768 434l7-7h4l1 5 6 2-4 7v4h-4l-5-2-2 3-5-3v-3zm-206 23l2-2h6l13 5 13-1h8v12l11 2 6 7-2 5-4 4h-4l-1-4h-6l-2-2-18 2-7 2v6h-5l-5-7-17-2v-11l11-7zm-353 20l5-6h4v7l-3 2zm259 2l1-8h9v4l-2 6h-8zm270-2l6-2 2-4h8l6 3 1 7-8 4 2 6-3 2-8-6h-6zm-506 2l2-6h6l3 2-5 6zm410 4v-6h20v4 6h-15zm165 2l10-1 1-3h2 8l3 8 5 2v9h-10l-4-4-4 1h-12zm-620 7v-8h2l3 6v3zm571 37l12-6-2 4zm-260 31l-1-6h14l5 5-2 11z"/>
		<path id="Path 13" class="s9" d="m922 442l12-2 2 3v12 5h-2l-10-1zm-147 31l6-3 26 3v4h-3-4l-1 4 5 3 3 1-1 12h-2l-11 1h-3l-3-9v-5l-9-1-3-4zm-113 4l2-4 9 1 1 5-12 2zm186 28v-3h2l3 2z"/>
		<path id="Path 14" class="s10" d="m270 471l1-4h8l3 6h4v5l4 4 10 1 2 12-5 7h-1l-5-1-6 5-4-2-8 3-3-6 2-7-2-13zm650 1v-1h6v4h-4zm-382 7v-6h6 6v11l-9 2zm-500 2v-6l8 1v5zm438 0l2-6h9l5 4v7h-3v3h-13zm-136 2v-2h8v12h-3zm-280 5l3-2 5 2v5h-6l-2-3zm844 36l1-7h7v8z"/>
		<path id="Path 15" class="s11" d="m219 464l3-1v1zm-8 1l3-1v1zm32 10h7l5-4h4l7 2v8l-8 3-3 5-17-4v-4zm485 7v-5h4 6v10h-3-2zm-34 7l-3-10h11l4 4v6h-1zm-75-4l2-5 9 4v5h-1-6zm-282 10l-3-12h6l5 10-2 2zm268-5l-1-5h6l1 4z"/>
		<path id="Path 16" class="s12" d="m763 432l39-26 23-10 16-3v6l7 5v14l-3 13-3 2 1 12-13 8-1-5 6-4-1-3h-5l1-28 5-1 3-6-7 1-3 4-13-2-3 4-10 1-8 8v11h-1l-7 1-6-2-1-5h-4l-7 7-3 1zm126 22l13-3-4 5-10 3v-1zm45 17l14-2h5l-1 6h-8-10zm-784 24v-11l10 4-2 5zm670 56l3-2 5 14-2 15-5-6zm-306 19l2-11 6 2 6 2 2 14-14-2z"/>
		<path id="Path 17" class="s13" d="m478 461l10-2v10h-10zm30 2v-4h20 4v8h-18zm-154 6v-8h3l5 2v12h-8zm50 6v-14h10 6 10l10 2 2 12v9l-5 3h-15l-6-7zm56 4v-18h8l1 10-1 8zm-148-14l8-1h2v7h-10zm442 6v-5h8l4 5-6 3zm-372 6v-10h2 5l5 8v3zm425-4v-4l13 2v10h-2l-11-4zm-589 31l3-2 1 6h-4zm556 43l4-3h9l2 4v3l-12-1z"/>
		<path id="Path 18" class="s14" d="m58 483v-5l10 1v5h-5zm636 12v-6h11l-1 10h-4zm93 49l5-2 3 2-2 4h-4z"/>
		<path id="Path 19" class="s15" d="m812 413l3-4 13 2 2 2-1 28-5 6 5 1 1 5-13 6-1-5 6-3v-3l-14 4 2-3-2-2-9 4 3-6-9 2 1-5-6 1-2-3 7-7h1l4 4-1 4 8-1 3 3 5-6-3-5zm-356 76l-2 3h-7l-1-7h6zm24 17v-9l-4-2v-6h13l1 17-9 2zm-295-13l2-1 5 1h1l-1 8-8 1-3-6zm112 9l5-7h4l3 7zm436 32l3-2h8v1l-4 2z"/>
		<path id="Path 20" class="s16" d="m774 448l4-3h4l1 2-3 3-6 2zm105 20l4-4v14l-4 8h-3v-5-8zm-833 13v-5l12 2v5l-11-1zm588 8l2-6h6l5 4h15l6 5v11l-6 1h-11l-15-3zm72 0v-6l10 2 2 3 12-1v6h-17zm-165-3l9-2 17 2 5 7v7l-9 1-3-6h-10l-8-2-2-2zm64 4l6-1h4l4 12-6 2-6-3-3 4z"/>
		<path id="Path 21" class="s17" d="m828 411l3-4 7-1-3 6-5 1zm-72 30l5-2 2 2-5 4 4 2v19h-8l-4-2-2-15v-2zm15 5l2-3 5 2-4 3zm9 4l3-3h2l-3 4zm108 9l10-3 9 17-2 3 7 12h-7l-1 3v2h-3l-13-15h-5v-14zm-624-1l16-1v6l-1 4h-8l-5-4-2-4zm603 50l3-1v5h-3l-2-1z"/>
		<path id="Path 22" class="s18" d="m829 448l-5-1 5-6h5l1 3zm-257 1v-4h7l-1 4zm24 10l-2-13 16 1v12h-6zm252 6l10-4 2 8 3 9-10 3-1-2v-9zm56 28v-2l10 1v7h-10zm-53 0h5v11h-3l-3-2zm-59 49l1-18 7 1 7 3v4l-4 2 1 6-5 4h-4z"/>
		<path id="Path 23" class="s19" d="m950 457l16-1 1 4-3 2-6 2-7-1-1-4zm-618 7l14-1 3 6h5v6 6h-6-8v-6l-8-5zm-190 43l1-4h4l7 2 1 3zm763 8l1-4-5-2v-3h3l10 2v7l-2 2h-7zm-181 22l2-3h7l7 1v2h-5l-1 4h-4z"/>
		<path id="Path 24" class="s20" d="m798 507l6-4h16v8h-19zm-168 14l1-8h9 10v8l-3 2zm61-6l13-2 18 2v8l-33-2zm33 16v-6h12v6h-10zm-230 8v-12h44l2 8-2 5-7 1v-3l-31 1z"/>
		<path id="Path 25" class="s21" d="m502 478l1-7h11l11 2 3 6v10 4l-7 1-13-5v-7zm441 4l1-7h8l-2 8-2 1zm-746 1l2-6h10l6 3 2 5 1 11-4 2-9-3-1-7zm733 30l4-2h14v7l-8 6v6l-7-1 1-6-4-6z"/>
		<path id="Path 26" class="s22" d="m503 471l-1-8h6l6 4v4zm418 17l1-13h4 8 10l-1 7h-13l-3 3 1 6-6 1zm-810 3v-2h3l11 2v2zm771 24l3-4h5l4 4h11v2l-1 7-16-2zm-111 44l3-5h3l8 4-3 5h-6z"/>
		<path id="Path 27" class="s23" d="m765 435l3-1-2 6-3 1-2-2zm-193 14h6l1-4h11l3 1h1l2 13-13 1-13-5zm38 10v-12l18 1v9zm60-2v-6l8 1-2 5zm-313 4l5-9h5l-1 11h-4zm520-7l5-2v3 1l-5 1zm-18 5l12-3 1 3-4 3v5 2h-8l-2-8zm-748 22l4-3h3v3h-4zm745 12l13-3v3l-3 1v5l-3 3-7 2zm-603 28l6-8h1l2 1v2l-5 6-3 1z"/>
		<path id="Path 28" class="s24" d="m936 455v-12h6 6l3 6-4 5-4 1zm-670 18v-2h4v10h-4zm-129 2l17-2-14 4h-3zm767 16l1-3h7 9l1 4h-8zm-598 4v-4h11l5 5v5l-4 1-5 2-4-2zm620 12l-3-8 11-2v7l-2 5 2 2-4 2-4-1zm-14 10l2-2 3 2-1 9-4-1z"/>
		<path id="Path 29" class="s25" d="m820 503v-2h5l-3 10h-2zm-526 8l19-5h5 16v7h-10l-3 6h-11l-2 10h-4l-15-9 1-7zm46 2v-6h6l8 1 12 1h2v9l-7 3h-21zm64 6v-10h2l7 1v6l-2 3zm184-4v-5l8 3v4h-4zm-50 25l2-5h6l2 4z"/>
		<path id="Path 30" class="s26" d="m724 513l7-2 7 2-2 12h-12l-2-2v-8zm-320 6h7l2-3 8 1 1 10-20 2-21-4v-5zm48 8v-10l22 2 7 2 2 6h11v12h-14v-1l-1-8zm140-4v-6h4 6l-2 6zm-46 2v-4h10v4l-2 2z"/>
		<path id="Path 31" class="s27" d="m422 527l-1-10h9 16 6v10zm-82-6h21l7-3 13 2v5h-5-37l-1 6 3 5-1 2-19 1-2-3-2-4h-5l-4-3 2-10h11z"/>
		<path id="Path 32" class="s28" d="m944 465v-6h6l1 4-3 2zm-18 10v-4h8v4zm-715 47l9-2 1 2v2zm76 23l1-6 5 3 8 11-8 6-5-6zm442 0l1-4h4l8 4 10 8h6v7z"/>
		<path id="Path 33" class="s29" d="m786 434l7-1-7 7-4 1zm2 9l6-1-1 5 9-2-3 6 9-4 2 2-2 3 14-4v3l-6 3-8 4 1 5-6 4-6-7-15-5v-4l3-4zm94 9l30-8v6l7 9-2 6 3 1v5 1l-13 1-9-17 4-5-13 3-7 1zm-408-4l12-1h8v12h-6l-10 2h-10-8l-18-4v-8zm168 9v-8l22 2v6zm-228 4v-11h6v11zm-47-9l19-1v8l-2 8h-2l-6-4h-10zm504 4l6-2v3l-5 2zm-609 9l4-2 5 4-1 4h-4l-4-1zm-26 52l6-3 3 2-4 2 1 3-7-1h-4l2-2z"/>
		<path id="Path 34" class="s30" d="m912 444l10-2 2 17h-5l-7-9zm-181 13l7 2 10-10 2 15-4 3-14 1-9-3-3-2v-7zm-452 10l1-4 6 2v8h-4zm-20 4l3-1 4 1v2zm561 0l16-1 2 9v8l-2 4-5-2-3-8h-8zm-605 9l3-2 4 3-5 4zm519 61l1-4h5l2 8zm37 8l3-2 3 3v4h-3z"/>
		<path id="Path 35" class="s31" d="m497 447l5-1h6v13 4h-6l-3-4h-5v-12zm31 12v-6h4l1 3-1 3zm392 12v-5h6v5zm-738 8l5-1 2 6h-2l-5 1-3-1zm-119 7v-2h5l3 1-3 3zm873 5l8-1 3 3v4h-1-10zm-776 12l2-6 4 3 4 5h-7zm754 5l4-1h8v5l4 1v4h-13l-3-2zm-670 17l9-4 1 2-2 4h-5-3z"/>
		<path id="Path 36" class="s32" d="m704 511l8-3 1 3 11 2-2 2-18-2zm-383 8l3-6h10 6v8zm222-4l6-2 7 2v6h-10l-3-1v-4zm-69 4l1-4h5l1 2v4z"/>
		<path id="Path 37" class="s33" d="m508 446l20-1v8 6h-20zm-78 15v-6l10 2v6zm-338 30v-4l14 2v2h-2zm860 15h3v-3l-4-6h2 9v3l3 7-3 4h-6-4zm-660 29l1-7 9 5v4l-5 2z"/>
		<path id="Path 38" class="s34" d="m843 445l-1-12 3-2 3-13v-14l-7-5v-6h5l6 7 3 14-1 14-7 15zm146 49l-3-1v-7l7-1zm-269 47l4-4 6 4-1 4zm-241 10l1-3 4 2 9 8-1 3zm329 31l5-31h7l1 21 5 6-8 6zm-293-5l1-2 14 2 4 2v6l-10-2z"/>
		<path id="Path 39" class="s35" d="m328 454l23-1 1 8-6 2-14 1h-4l-2-10zm-48 3l15-1-1 9h-8l-6-2zm-55 6l5-1h7v4l-4 3-10-2-1-3v-1zm579 21l-5-3 1-4h4zm-531 23l8-3 4 2-1 1-7 3-4-1z"/>
		<path id="Path 40" class="s36" d="m966 456l2-3 7 3v6l-8-2zm-13 13l5-1 6 1h8v18l-4 13h-6v-3l3-5-10-2-1-5-4-2 2-8zm-13 61v-6l8-6v-7h4 4v18zm-647 29l8-6 10 3v6l-7 8z"/>
		<path id="Path 41" class="s37" d="m532 506v-6l10 1v5l-2 5-4 1zm31-5l9-1h2l3 10-8 4-8-2-3-1-4-5v-3zm-170 3l11-1 2 6h-2l-9-1z"/>
		<path id="Path 42" class="s38" d="m351 453l11-1-5 9h-3-2zm-105 12v-5h6v5zm712-1l6-2v7l-6-1zm-95 14l-3-9h8l1 6zm-17 9v-8h6l1 2-5 6zm82 4l-1-6 3-3h13l5 2-2 5-2 1-8 1zm20 1l5-1v6h-2-4v-4zm-44 14v-7h10l4 2v6l-4 1zm-127 48v-4l12 1 2 7h-6z"/>
		<path id="Path 43" class="s39" d="m943 455l4-1 3 3v2h-6zm-17 11l8-6h2v5h8 4v4l-14 2h-8zm-888 19v-4h8l1 1v3zm896 26l-2-2 2-5 12 1 6 1v5h-4z"/>
		<path id="Path 44" class="s40" d="m956 448h8l4 5-2 3-16 1-3-3 4-5zm-32 11l10 1-8 6h-6l-3-1 2-6zm-672 1l9-1h3l2 4-4 2h-7-3zm712 2l3-2 8 2 1 4-4 3h-8zm-750 3v-1h5 3l1 3-5 4h-4zm546 9l6-3 9 2v6l-9 2 5 11-5 1-11-2-2-6 8-4zm-628 6v-3h5 3v4zm672 4v-7h3l11 4-1 3-10 1zm34 3v-8h8v8zm-60 2l-2-1 2-5 9 1v5zm175 2l2-1 10 2-3 5h-9zm-778 1l8-1 2 2-4 3-6-1z"/>
		<path id="Path 45" class="s41" d="m778 499l12-1h3l1 9-2 2-20-6v-2zm-305 11l7-4 1 2-1 7h-5zm53-3l6-1 4 6v3l-10-2zm14 4l2-5 6 1 1 6-6 2zm-263-1l7-3v6 6l-9-4zm224 0l8-1 1 4-9 2z"/>
		<path id="Path 46" class="s42" d="m934 440l8-2v5h-6zm-696 45l17 4 3-5 8-3h4l2 13-2 7-8 8-2 4h-1l-14 3-3-2v-3h-6-1v-6l-1-6-3-1 1-10zm346 0l18-2 2 2 1 5-1 14h-2-3l-8-11-6-2zm31 4l4-4 4 4h6l1 13-9 1-2-2zm-575 3l10-3 4 2 2 8h-17zm110 3l8-2 4 4-2 6-11-4v-2zm43 15h-9l8-3h1z"/>
		<path id="Path 47" class="s43" d="m54 491l6-1 2 3h6 4v7l-16-1zm474 2v-4l12 2 2 2v8l-10-1zm-185 2l2-2h3 12l3 3v7l-9 2-8-2-4-1z"/>
		<path id="Path 48" class="s44" d="m322 471v-7h6 4v6l8 5v6 2h-6-7zm192 0v-4h18l6 3v3 6h-10l-3-6zm-36 0v-2h10l8 5v5h-4l-5-4h-9zm429 2l13-1 2 3-1 13h-9l-7-12zm-869 12l-8-6 1-5 7 1v6zm316-4v-6h8v4l-2 2zm88 3v-9h7l3 5v5h-6zm194-1v-8l6 2v6zm-443 24l21-3h4v4l-25 2zm280 32l7-1v1 9l-9-6zm316 12v-3h4l2 12-4-2z"/>
		<path id="Path 49" class="s45" d="m844 513v-9l4 1 5-1h3v10h-3zm-414 4v-8l16 1v7zm22-7h21l2 5-1 4-22-2zm279 1l7-2v4z"/>
		<path id="Path 50" class="s46" d="m792 509l2-2h4l3 4-4 4-5 1z"/>
		<path id="Path 51" class="s47" d="m826 500h10l3 1 5 3v9l-8 2-13-1-1-3 3-10zm-492 13v-7l6 1v6zm34-4l1-3h5v3h4l5 2 8-2 4-1 9 1v10l-23 1-13-2z"/>
		<path id="Path 52" class="s48" d="m294 511l2-9h1 12l4 2v2zm562-7l7-2 4 6-2 3 2 1-1 4-10-2zm-465 5v-5h2l2 4zm90-1l9-2 6 4v5l-15 2-1-2zm121 1l10-2 3 4h5l-3 6h-15-6v-4l1-4zm-182 0h10v8h-9l-8-1v-6zm210 2v-3h3l7 1v4h-9zm-53-1h11v5l-19-1zm-41 2l4-1 3 4v1l-7-1zm22 2v-3l3 1z"/>
		<path id="Path 53" class="s49" d="m173 479l3-1v5h-1zm620 69l2-4h4l5 1 9 6-5 31-16-6 3-16zm-301 13l1-3 5 2 16 10 2 5-1 2z"/>
		<path id="Path 54" class="s50" d="m883 459l5-1v1l-5 5-4 4zm-79 44v-6h2 12l2 4v2zm62-4l2-1 3 4-1 5-3 1-4-6zm-581 7l6-5 5 1-2 9-4 2h-6v-6zm28-2l5-2v4h-5zm369 8l1-9h4l13 3 4 5v2l-13 2zm-42-3l10-2 2 3-2 3h-10zm-194 1h6v7h-6zm50 5v-5h5v5z"/>
		<path id="Path 55" class="s51" d="m577 493v-6l7-2 1 6 6 2 8 11h3v5h-5l-1 4-8-3h-11l-3-10zm127 6l1-10h1l7 4-1 6zm-183-5l7-1 4 7v6l-6 1-5-3zm-117 9v-5l9 3 7 4v4l-7 1-7-1zm229 2l3-4 15 3-1 3-10 2-7-1zm-267 4v-6l12 1v5h-4v-3h-5l-1 3zm378 23l6-1-6 2z"/>
		<path id="Path 56" fill-rule="evenodd" class="s52" d="m199 466l12-1h3v6l-5 6h-10l-2 6-5 7-3-6-2-6-5 1-6-1-3 1-4 3v6l6 4v3l-6-2-9-5-10-4-7-3h-3v-4l14-4 42-6zm-24 24l-2-2 2-5h1l6 2v4z"/>
		<path id="Path 57" class="s53" d="m763 441l3-1v3l-4 4-4-2zm106 34l4-2h3v8l-5 1 3 5v6h-4-1v-3l-13 3h-5l-3-6 5-6 10-3zm-91 17v-3h9l3 9-12 1zm-546 18v-5h3v6zm526 43l-3-7 7-1 9 4 3 5-3 5-11 2-2-1z"/>
		<path id="Path 58" class="s54" d="m956 437l8-1 1 6-1 6h-8zm-79 20l5-1 1 3-4 9-3 5h-3v-6h-5v-5l4-3zm-349 32v-10h10l3 7-1 5zm-180 4v-12h6 6v12zm-173-3l7-1 1 2-8 1-3-2zm118 52l-1-7 5 4 5-2 2 7 9 8-2 4-10-3z"/>
		<path id="Path 59" class="s55" d="m782 441l4-1 2 3-3 4h-2l-1-2zm-120 40l12-2h17l3 10v6l-6 3-1 5h-4l-5-2-8 2h-2v-11l-6-5zm212 6l2-1h3l-3 7h-2zm-144 6v-6h3 2l2 6zm114 11l-5-3 9 1v3z"/>
		<path id="Path 60" class="s56" d="m114 489v-8h4 10v10h-3zm516 13l-1-13h1 4l2 12-3 4zm-526 0v-11h2 5l14 2v1l-1 11zm438-1v-8l8 2 4 8v3l-6 1-6-1z"/>
		<path id="Path 61" class="s57" d="m322 454h6-2zm-246 25l39-1-4 3-3 8h-2l-14-2h-9l-7-2zm70 17l-3-15 7 3v11l-1 2zm343-7v-3h3l7 9h7l5 3 3 7-5 4-8 1h-5l-6-4zm-331 4l2-5 9 5h-3v7l-4-3zm-86 0l13-2h7 12v11l-32-2zm500 7v-7h5l-3 7zm-18 3l-4-8h10l3 6zm312 13l1-4h3l12 3 6 7-14-2-8-1z"/>
		<path id="Path 62" class="s58" d="m942 438l6-1v6h-6zm-60 17l7-1-1 4-5 1-1-3zm-576 24l1-8h5 10l5 12h7l3 12-1 7-14-1v-5l-5-5h-11zm56 0l20-2 12 1v5l10 7v8 5l-11 1h-2-13l-12-1h-3v-7l-3-3v-12zm134 0l6-1 6 4v7l-2 6h-7l-7-9v-7zm-28 10v-8h8v8zm478 16v-8h1 4l4 6v3h-3zm-30 21l1-9h13l4 6-1 6zm-117 18l5-4v5z"/>
		<path id="Path 63" class="s59" d="m792 516l5-1h3v10l-7-1-3-2zm-416 19v-10h5l21 4v10h-14l-2-3zm-62 2l5-1 2 3-2 3zm206 7l8-3-1 6h-1z"/>
		<path id="Path 64" class="s60" d="m300 483l2-4h4v12 4h-4zm-232 5l3-3h5l7 2 2 4-13 2h-4zm876 2l2-1 2 3-1 1z"/>
		<path id="Path 65" class="s61" d="m528 453v-8h34l2 10-2 2h-20l-9-1-1-3zm100 4v-9l14 1v8h-8zm-208-7l10-1v6 6h-10zm244 7v-6h6v6zm12 0l2-5 17 2-1 7h-18zm26 4v-6l18 1v7zm-617 30l-2-4h9v4zm837 1l6-1h8v6h-2l-11 2 3 8h-8v-6l-4-2v-7zm-660 17l8-8 3 6v2l-1 1-8 2z"/>
		<path id="Path 66" class="s62" d="m948 437h8v11l-5 1-3-6zm17 5l-1-6h4zm-773 48l5-7 7 5 1 7-5 2-1-5-6 1h-1zm612 50l-1-6 4-2v-4h1l6 3 9 18-3 2h-7l-9-6zm-285 10l7-3h1l4 3-3 13-6-2-6-6z"/>
		<path id="Path 67" class="s63" d="m564 455l-2-10h10v4l-2 6zm-166-4l4-1h12v11h-10l-6-2zm296 10l1-7 7 1v6zm-647 24v-3l11 1 5 1v2l-3 2-10-2zm472 65l-1-6h2l6 3z"/>
		<path id="Path 68" class="s64" d="m752 493l3-2 11 2 2 6h4v2 2l-17 3v-2l3-2-6-3z"/>
		<path id="Path 69" class="s65" d="m948 484l2-1 4 2 1 5-2 1-5 1-2-3zm-14 20v-7h2 10v8z"/>
		<path id="Path 70" class="s66" d="m394 478v-3h10l12 5 6 7-9 10v4l-9-3v-8l-10-7zm58 2l8-1h8v2 8h-12l-4-4zm-159 48l-9-9 5 1 15 9 8 4 2 4 5 5 3 4 1 3-10 3-9-8-2-7v-4z"/>
		<path id="Path 71" class="s67" d="m506 495l2-6 13 5v10l-7 1-3-7zm-170 7l1-7h6l-1 7z"/>
		<path id="Path 72" class="s68" d="m948 465l3-2 7 1v4l-5 1h-5zm-726 16l10-2 6 2v4l-6 3-1 10 1 7v5l-9-1-1-1-1-6 3-6h-6l-1-11z"/>
		<path id="Path 73" class="s69" d="m755 438l8-6 2 3-4 4-5 2zm-227 125l3-13 3 2 5 6 2 24-1 3h-6v-6l-4-2zm248 0h6l3-5h6l4 2-3 16-16-7z"/>
		<path id="Path 74" class="s70" d="m748 444l7-6 1 3-8 6zm-640 45l3-8h3v8h-3zm113 33l12-4-2 2h4l1 4 8 1v2l-16-2-7-1zm55 14l-5-8 6 7z"/>
		<path id="Path 75" class="s71" d="m193 493l6-1 1 5 5-2 9 3v6l-21 3h-1v-6zm-29 17l-1-5h7l7 1 1 8zm56 10l3-11 9 1 3 1h1v6l-3 1-12 4zm482 15v-4h5v5z"/>
		<path id="Path 76" class="s72" d="m772 493l6-1v7l-6 2v-2zm96 5l2-5h4 2l-5 9z"/>
		<path id="Path 77" class="s73" d="m731 457l17-13v3 2l-10 10zm-603 24l4-1 8 1h3l3 15-18-5zm-4 24l1-11 24 5 11 4 3 2 1 5-9-2-1-3-7-2h-4l-1 4zm133 17l5-6 4 1v5l-4 2z"/>
		<path id="Path 78" class="s74" d="m704 499h8l1-6h17 7l5 7v7l-4 2-7 2-7 2-11-2-1-3-8 3-4-5v-7zm114-2l4-1 4 4-1 1h-5zm-214 7l3-4 6 3-1 4-10 2v-5zm17-1l9-1 3 3v3h-3v3l-9-2zm-275 4v-4l8 2v3zm305-3h11l1 8-11-2-2-3zm-137 1l7-1 5 3v6l-2 2-14-2-1-4z"/>
		<path id="Path 79" class="s75" d="m166 500v-7h3l6 2 6 1 3 6 8-1v6l-8 3h9l25-2h4l1 1-3 11-9 2-33-8-1-8-7-1zm627-2l11-1v6l-6 4h-4zm-521 12l1-1 4 1-2 5-3-1zm564 5l8-2 9 1 1 3zm-524 18l-8-4h4l4 3zm372 3v-5h18v4zm-184 3l31-1v3h-3l-8 3h-2l-14-3z"/>
		<path id="Path 80" class="s76" d="m737 493l-2-6h3 6l8 6v6l-4 5h7v2l-13 1v-7zm-50 10l1-5 6-3 6 4v7zm-365-2l14 1h6l4 1v4h-6l-6-1h-16v-4zm291 2l6-2 2 2v6l-1 2h-5l-3-4zm49 1l6-1h2v9h-7zm-398 8l8-2v4l-6 3-4-1v-2z"/>
		<path id="Path 81" class="s77" d="m378 509v-5h13v5l-8 2z"/>
		<path id="Path 82" class="s78" d="m214 498l4-2h6l-3 6-3 2h-4zm18 7l-1-7 3 1 1 6zm122 0l9-2h3v6l-12-1zm-118 12v-6h6v3zm471 19v-5h17 2v3l-2 3-4 4-9-3z"/>
		<path id="Path 83" class="s79" d="m670 503l8-2 5 2-1 9-4-2-8 2zm-122 4l6-1 4 5v3l-2 1-7-2z"/>
		<path id="Path 84" class="s80" d="m797 515l4-4h19 2l1 3h-4l-19 1zm-154 21l5-5h36v5zm83-2v-3h10v1l-3 2z"/>
		<path id="Path 85" class="s81" d="m176 483v-5l6 1-3 5zm-126 3l10 2v2l-6 1-4-2z"/>
		<path id="Path 86" class="s82" d="m469 543l2-1 9 6-1 3-7-4z"/>
		<path id="Path 87" class="s83" d="m312 533v-1h5l2 4-5 1zm150 8l-1-5 12 3-2 3-2 1z"/>
		<path id="Path 88" class="s84" d="m303 455l3-1v1zm-42 4l3-1v1zm-133 18l9-2v2h-5z"/>
		<path id="Path 89" class="s85" d="m430 455v-6h12v8h-2zm-44 4v-8h12v8zm-80-4v-1h6v11 6h-5l-1-6zm14 9v-10h2 4l2 10h-6z"/>
		<path id="Path 90" class="s86" d="m254 523l3-1 5 2 2 4-17-1h5z"/>
		<path id="Path 91" class="s87" d="m284 519v-6h6l-1 7zm-22 5l4-2 5 6h-7z"/>
		<path id="Path 92" class="s88" d="m245 516l14-3-6 8-9 4-8-1-1-4 7 1-1-3zm96 20l9-1 2 3h-12zm29 4l6-5 10 1 2 3-2 1z"/>
		<path id="Path 93" class="s89" d="m255 471v-6h7v5l-3 1z"/>
		<path id="Path 94" class="s90" d="m182 485l5-1v8l-2 1-2-2-1-2z"/>
		<path id="Path 95" class="s91" d="m172 490l-3-2v-6l4-3 2 4-2 5 2 2z"/>
		<path id="Path 96" class="s61" d="m252 502h5l-1 3h-7z"/>
	</g>
</svg>