<svg version="1.2" xmlns="http://www.w3.org/2000/svg" viewBox="0 0 1000 1000" width="1000" height="1000">
	<title>Lepomis_humilis</title>
	<style>
		.s0 { opacity: .3;fill: #dcdfdc } 
		.s1 { opacity: .1;fill: #f6f7f8 } 
		.s2 { opacity: .6;fill: #dcdedc } 
		.s3 { opacity: .1;fill: #e2e4e1 } 
		.s4 { opacity: .3;fill: #f3f4f4 } 
		.s5 { opacity: .2;fill: #b9bebb } 
		.s6 { opacity: .7;fill: #c6cac6 } 
		.s7 { fill: #b5bcb3 } 
		.s8 { opacity: .4;fill: #bbbfb9 } 
		.s9 { opacity: 1;fill: #89886d } 
		.s10 { fill: #a0a79e } 
		.s11 { opacity: .5;fill: #f2f4f4 } 
		.s12 { fill: #9b9270 } 
		.s13 { opacity: .5;fill: #98a19c } 
		.s14 { fill: #807e64 } 
		.s15 { fill: #b4a885 } 
		.s16 { opacity: .9;fill: #bcc1bc } 
		.s17 { fill: #919281 } 
		.s18 { fill: #95998b } 
		.s19 { opacity: .7;fill: #b0b5b0 } 
		.s20 { fill: #969e98 } 
		.s21 { fill: #878e83 } 
		.s22 { fill: #8b9897 } 
		.s23 { opacity: .8;fill: #e5e7e5 } 
		.s24 { opacity: .3;fill: #979783 } 
		.s25 { fill: #a4a087 } 
		.s26 { fill: #6b6f58 } 
		.s27 { fill: #7c897f } 
		.s28 { fill: #799796 } 
		.s29 { fill: #717c6f } 
		.s30 { fill: #7f8777 } 
		.s31 { fill: #a7b0aa } 
		.s32 { opacity: .2;fill: #97a09c } 
		.s33 { opacity: .9;fill: #e6e8e5 } 
		.s34 { opacity: 1;fill: #7c785a } 
		.s35 { fill: #466967 } 
		.s36 { fill: #5f7e78 } 
		.s37 { fill: #495f52 } 
		.s38 { fill: #3b5347 } 
		.s39 { fill: #24433c } 
		.s40 { fill: #2d534f } 
		.s41 { opacity: 1;fill: #8d958a } 
		.s42 { fill: #3b5e5d } 
		.s43 { opacity: .8;fill: #7d8982 } 
		.s44 { fill: #50736e } 
		.s45 { fill: #698e8d } 
		.s46 { fill: #5c624b } 
		.s47 { fill: #548488 } 
		.s48 { fill: #76adc0 } 
		.s49 { fill: #699aa9 } 
		.s50 { fill: #3a4533 } 
		.s51 { fill: #77a4aa } 
		.s52 { fill: #407a8f } 
		.s53 { fill: #95caeb } 
		.s54 { fill: #60919b } 
		.s55 { fill: #90a9ac } 
		.s56 { fill: #90b9c8 } 
		.s57 { fill: #5195b4 } 
		.s58 { fill: #9fc5d0 } 
		.s59 { fill: #98b5b8 } 
		.s60 { fill: #dbf2fa } 
		.s61 { fill: #a7dbf3 } 
		.s62 { fill: #3783a9 } 
		.s63 { fill: #b6ccd6 } 
		.s64 { fill: #c4d5dd } 
		.s65 { fill: #aebcc2 } 
		.s66 { fill: #62a3c2 } 
		.s67 { opacity: .2;fill: #767860 } 
		.s68 { fill: #81bae1 } 
		.s69 { fill: #cfe1ed } 
		.s70 { fill: #bbc7c6 } 
		.s71 { fill: #e0e8e7 } 
		.s72 { fill: #b3d0e4 } 
		.s73 { fill: #eefafd } 
		.s74 { fill: #fcfdfa } 
		.s75 { fill: #d7dfdb } 
		.s76 { fill: #c3e8f6 } 
		.s77 { fill: #edf2f1 } 
		.s78 { fill: #b6b5a3 } 
		.s79 { fill: #dad5be } 
		.s80 { fill: #cbd4cd } 
		.s81 { fill: #163536 } 
		.s82 { fill: #cacab8 } 
		.s83 { fill: #e4e1cb } 
		.s84 { fill: #0a1917 } 
		.s85 { fill: #fbfbed } 
		.s86 { fill: #a6b2b8 } 
		.s87 { fill: #cfc6a6 } 
		.s88 { fill: #faf8e0 } 
		.s89 { fill: #f9f1d0 } 
		.s90 { fill: #ededda } 
		.s91 { fill: #b79b66 } 
		.s92 { fill: #d1b17a } 
		.s93 { fill: #d5bd8c } 
		.s94 { fill: #f2e3be } 
		.s95 { fill: #e8cc9d } 
	</style>
	<g id="Background">
		<path id="Path 0" class="s0" d="m141 544h1v1h-1z"/>
		<path id="Path 1" class="s0" d="m228 482h1v1h-1z"/>
		<path id="Path 2" class="s1" d="m411 354v-1h2z"/>
		<path id="Path 3" class="s2" d="m411 354l2-1h2v1 1l-10 9h-1z"/>
		<path id="Path 4" class="s3" d="m415 354v-1h4v2z"/>
		<path id="Path 5" class="s4" d="m448 355v-2h2v1z"/>
		<path id="Path 6" class="s5" d="m450 354v-1h5l2 3z"/>
		<path id="Path 7" class="s5" d="m458 362l-1-4 2 9h-1z"/>
		<path id="Path 8" class="s6" d="m415 355v-1l4 1h3v3 1z"/>
		<path id="Path 9" class="s7" d="m448 355l2-1 7 2v2l1 4-11-4z"/>
		<path id="Path 10" class="s8" d="m378 358l1-3h7v6h-1l-1-5-5 2z"/>
		<path id="Path 11" class="s9" d="m405 364l10-9 7 4 3 4 2 4v1l1 3 2 6v8l-2 2-5-4h-10l-4-2-5 5-4-6 2-6 1-6z"/>
		<path id="Path 12" class="s4" d="m443 361l5-6-1 3z"/>
		<path id="Path 13" class="s10" d="m379 358l5-2 1 5-1 2h-7v-2z"/>
		<path id="Path 14" class="s11" d="m376 361l2-3h1l-2 3z"/>
		<path id="Path 15" class="s11" d="m422 359v-1l4 4-1 1z"/>
		<path id="Path 16" class="s12" d="m443 361l4-3 11 4v5 8h-8l-1-3h-9l-2-1 2-4 3-5z"/>
		<path id="Path 17" class="s13" d="m374 372l2-11h1v2l-2 9z"/>
		<path id="Path 18" class="s13" d="m384 363l1-2h1v4h-1z"/>
		<path id="Path 19" class="s0" d="m425 363l1-1 1 5z"/>
		<path id="Path 20" class="s5" d="m439 367l4-5-3 5z"/>
		<path id="Path 21" class="s14" d="m375 372l2-9h7l1 2 2 4v1l1 6-2 9-1 6-1 4h-10l-1-4v-1-8l1-1z"/>
		<path id="Path 22" class="s5" d="m403 368l1-4h1z"/>
		<path id="Path 23" class="s0" d="m387 369l-2-4h1z"/>
		<path id="Path 24" class="s2" d="m463 377v-4l8-8h7v1l-7 3z"/>
		<path id="Path 25" class="s11" d="m478 366v-1h3l1 4h-2z"/>
		<path id="Path 26" class="s15" d="m471 369l7-3 2 3v8h-6v-6z"/>
		<path id="Path 27" class="s2" d="m436 372v-4l3-1h1l-2 4z"/>
		<path id="Path 28" class="s16" d="m458 375v-8h1l1 10z"/>
		<path id="Path 29" class="s3" d="m460 377l-1-10 4 10-1 2z"/>
		<path id="Path 30" class="s5" d="m400 374l3-6-1 6z"/>
		<path id="Path 31" class="s0" d="m428 371l-1-3 2 3z"/>
		<path id="Path 32" class="s12" d="m463 377l8-8 3 2v6l-8 5-4-1v-2z"/>
		<path id="Path 33" class="s6" d="m480 377v-8h2v14z"/>
		<path id="Path 34" class="s0" d="m495 374l10-5v2l-7 3z"/>
		<path id="Path 35" class="s6" d="m505 371v-2h7l2 4z"/>
		<path id="Path 36" class="s0" d="m388 376l-1-6 5 12z"/>
		<path id="Path 37" class="s8" d="m430 377l-2-6h1l2 4 5-3z"/>
		<path id="Path 38" class="s17" d="m436 372l2-1 2 1v7l-6 6h-4v-8z"/>
		<path id="Path 39" class="s17" d="m498 374l7-3 9 2 1 8 2 4-1 4h-8l-11-2-5-7z"/>
		<path id="Path 40" class="s4" d="m373 381l1-9h1l-1 9z"/>
		<path id="Path 41" class="s18" d="m440 379v-7h9l1 3v4z"/>
		<path id="Path 42" class="s11" d="m515 381l-1-8 2 8z"/>
		<path id="Path 43" class="s19" d="m399 377l1-3h2l-2 6-4 3-2-1z"/>
		<path id="Path 44" class="s6" d="m488 380l7-6h3l-6 6-3 1z"/>
		<path id="Path 45" class="s20" d="m450 379v-4h8l2 2 2 2v2l-3 3z"/>
		<path id="Path 46" class="s21" d="m386 385l2-9 4 6v3z"/>
		<path id="Path 47" class="s10" d="m466 382l8-5h6l2 6 1 2h1l-2 2h-12l-4-2z"/>
		<path id="Path 48" class="s22" d="m430 385h4l6-6h10l9 5 1 5v6l5 6-1 6-3 2v7l-8 3-7 1-2-8-4-2v-7l-12-2v-14z"/>
		<path id="Path 49" class="s17" d="m396 383l4-3 4 6v7l-2 2h-6l-1-5z"/>
		<path id="Path 50" class="s23" d="m483 385l5-5 1 1-5 4z"/>
		<path id="Path 51" class="s9" d="m489 381l3-1 5 7-9 7-6-2v-5l2-2z"/>
		<path id="Path 52" class="s0" d="m524 382l8-2v2z"/>
		<path id="Path 53" class="s24" d="m373 381h1v1h-1z"/>
		<path id="Path 54" class="s10" d="m404 386l5-5 4 2-4 10h-5z"/>
		<path id="Path 55" class="s14" d="m459 384l3-3 4 1v3l-6 4z"/>
		<path id="Path 56" class="s8" d="m517 385l-2-4h1l8 1-3 3z"/>
		<path id="Path 57" class="s25" d="m524 382h8v1 7l-8 1-3-6z"/>
		<path id="Path 58" class="s0" d="m351 385v-3h8l3 3-4-2z"/>
		<path id="Path 59" class="s26" d="m392 385v-3h2l2 1-1 7h-3z"/>
		<path id="Path 60" class="s22" d="m351 385l7-2 4 2 3 3-12 1-3 4z"/>
		<path id="Path 61" class="s27" d="m409 393l4-10h10l5 4v14l-2 11-3 3h-10l-2 4h-16l-4-3 1-15-8-6 1-4 7-1h3l1 5h6l1 4h5z"/>
		<path id="Path 62" class="s23" d="m532 390v-7l2 8z"/>
		<path id="Path 63" class="s5" d="m349 412l2-27-1 8v19z"/>
		<path id="Path 64" class="s0" d="m365 388l-3-3h4l4 5v1h-2z"/>
		<path id="Path 65" class="s28" d="m385 391l1-6h6v5z"/>
		<path id="Path 66" class="s20" d="m460 389l6-4 4 2-2 14h-3l-5-6z"/>
		<path id="Path 67" class="s9" d="m516 389l1-4h4l3 6-2 2h-6z"/>
		<path id="Path 68" class="s21" d="m468 401l2-14h12v5l6 2v5l11 11v7l3 3v9h-10-8l-2-1v-15l-9-1-5-5z"/>
		<path id="Path 69" class="s22" d="m488 394l9-7 11 2v9 8l4 2v9l-10 3-3-3v-7l-11-11z"/>
		<path id="Path 70" class="s3" d="m546 390l2-3h8l1 3-2-2z"/>
		<path id="Path 71" class="s29" d="m350 393l3-4 12-1 3 3 6 4h10l8 6-1 15-1 1h-15l-1 6-24 2v-13z"/>
		<path id="Path 72" class="s20" d="m546 390l9-2 2 2 2 2 1 3v1l-6-1h-8l-4-1 1-2z"/>
		<path id="Path 73" class="s14" d="m508 398v-9h8v4l-4 5z"/>
		<path id="Path 74" class="s3" d="m370 391v-1h3v1z"/>
		<path id="Path 75" class="s20" d="m524 391l8-1 2 1 4 4h2l2 4h4l2 6-1 20-6 2-4-3-1-7-10-2-4-10v-12z"/>
		<path id="Path 76" class="s7" d="m374 395l-6-4h2 3z"/>
		<path id="Path 77" class="s3" d="m538 395l5-3-1 2-2 1z"/>
		<path id="Path 78" class="s3" d="m560 395l-1-3 2 3z"/>
		<path id="Path 79" class="s22" d="m402 395l2-2h5l-1 6h-5z"/>
		<path id="Path 80" class="s10" d="m508 398h4l4-5h6v12h-7l-3 3-4-2z"/>
		<path id="Path 81" class="s4" d="m569 395l5-2v2h-1-3z"/>
		<path id="Path 82" class="s12" d="m540 395l2-1 4 1v4h-4z"/>
		<path id="Path 83" class="s17" d="m546 399v-4h8v10h-6z"/>
		<path id="Path 84" class="s30" d="m554 405v-10l6 1 2 1v8z"/>
		<path id="Path 85" class="s2" d="m560 396v-1h1 8 1l-5 2h-3z"/>
		<path id="Path 86" class="s31" d="m565 397l5-2h3l2 3v3h-4z"/>
		<path id="Path 87" class="s2" d="m575 398l-2-3h1l2 3z"/>
		<path id="Path 88" class="s17" d="m562 405v-8h3l6 4v3z"/>
		<path id="Path 89" class="s32" d="m575 401v-3h1l12 2v1z"/>
		<path id="Path 90" class="s3" d="m588 400l11-2v2z"/>
		<path id="Path 91" class="s33" d="m588 400h11v1h-11z"/>
		<path id="Path 92" class="s5" d="m599 401v-1l12 2v1z"/>
		<path id="Path 93" class="s29" d="m426 412l2-11 12 2v7l4 2 2 8v5l-2 1-13-2v-3-6z"/>
		<path id="Path 94" class="s29" d="m464 407l1-6h3v6z"/>
		<path id="Path 95" class="s9" d="m571 404v-3h4 13 11l12 2 8 4h2l3 2-2 1h-10l2 15-4 1-2-4-5-1-4-8h-5l-3-7z"/>
		<path id="Path 96" class="s23" d="m611 403v-1h5l3 5z"/>
		<path id="Path 97" class="s25" d="m562 405l9-1 20 2 3 7-22-1-6 6v13h-6l-3-6h-10l1-20h6z"/>
		<path id="Path 98" class="s21" d="m512 408l3-3h7l4 10 10 2 1 7 4 3 6-2h10l3 6v10h-6l-13 1-1-3-10-2v-6l-3-1 1-7-9-2-7-4z"/>
		<path id="Path 99" class="s27" d="m461 416v-7l3-2h4l5 5-1 8-5 3z"/>
		<path id="Path 100" class="s3" d="m624 409l-3-2 13 1 3 4-6-2z"/>
		<path id="Path 101" class="s34" d="m614 425l-2-15h10v15h-2z"/>
		<path id="Path 102" class="s26" d="m622 410l2-1 7 1-1 15h-8z"/>
		<path id="Path 103" class="s34" d="m630 425l1-15 6 2 7 5h1l6 3 5 12 1 1-1 6h-2-8l-1-7z"/>
		<path id="Path 104" class="s29" d="m473 412l9 1v15l-10-8z"/>
		<path id="Path 105" class="s10" d="m566 431v-13l6-6 22 1h5l4 8 5 1 2 4 2 5 2 18-7-1v-5h-10l-3-4h-10l-5 4h-5v-8l-8-2z"/>
		<path id="Path 106" class="s32" d="m343 427l6-2v-13h1v13l-7 3z"/>
		<path id="Path 107" class="s35" d="m423 415l3-3 5 3v6h-7z"/>
		<path id="Path 108" class="s36" d="m411 419l2-4h10l1 6v3h-12z"/>
		<path id="Path 109" class="s22" d="m390 417l1-1 4 3-4 4z"/>
		<path id="Path 110" class="s29" d="m453 419l8-3 6 7-3 5h-5l-5-3z"/>
		<path id="Path 111" class="s37" d="m374 423l1-6h15l1 6 4-4h16l1 5v1l-6 1v5l-2 16-18 4-12-2-1-8z"/>
		<path id="Path 112" class="s27" d="m502 420l10-3 7 4v6l-7 5h-8l-2-3z"/>
		<path id="Path 113" class="s1" d="m651 420l-6-3 7 3z"/>
		<path id="Path 114" class="s35" d="m446 420l7-1 1 6h-8z"/>
		<path id="Path 115" class="s37" d="m467 423l5-3 10 8 2 1v6l-4 2-11-1-5-8z"/>
		<path id="Path 116" class="s11" d="m656 432l-5-12h1l4 4z"/>
		<path id="Path 117" class="s38" d="m424 424v-3h7v3z"/>
		<path id="Path 118" class="s29" d="m519 427v-6l9 2-1 7h-3z"/>
		<path id="Path 119" class="s39" d="m350 425l24-2-1 18h-11l-2-4h-6l-16 2h-12l-2 6h-12l-1-6 11-4 8-3 3-1 10-3z"/>
		<path id="Path 120" class="s40" d="m412 425v-1h12 7l13 2v6l-4 3v6l-2 3-10 3-6-5-1-7-4-4h-5z"/>
		<path id="Path 121" class="s39" d="m406 431v-5l6-1v6z"/>
		<path id="Path 122" class="s39" d="m444 426l2-1h8l5 3-2 7-7 1-6-4z"/>
		<path id="Path 123" class="s30" d="m610 426l4-1h6v6h-8z"/>
		<path id="Path 124" class="s14" d="m620 431v-6h2 8l15 7 1 7-2 5-12 1z"/>
		<path id="Path 125" class="s5" d="m333 430l10-3v1l-10 3z"/>
		<path id="Path 126" class="s37" d="m502 429l2 3h8l7-5 5 3v6l4 2v5l9 6 3 4 1 8-8 6h-4l-8-8 1-6-4-1-4-5h-7l-2-5-11-3-2-4v-6z"/>
		<path id="Path 127" class="s38" d="m457 435l2-7h5l5 8-5 3h-5z"/>
		<path id="Path 128" class="s35" d="m484 435v-6h8v6z"/>
		<path id="Path 129" class="s0" d="m329 432l4-2v1l-3 1z"/>
		<path id="Path 130" class="s41" d="m528 438l-4-2v-6h3l3 1v6z"/>
		<path id="Path 131" class="s42" d="m404 447l2-16h6 5l4 4 1 7-2 5z"/>
		<path id="Path 132" class="s17" d="m560 441v-10h6v2 8z"/>
		<path id="Path 133" class="s22" d="m614 449l-2-18h8l12 14 12-1 2 5v12l-5 2-3 8-6 1-1-1-4-10h-7l-6-4z"/>
		<path id="Path 134" class="s8" d="m318 435l11-3h1l-8 3z"/>
		<path id="Path 135" class="s42" d="m440 441v-6l4-3 6 4-2 5z"/>
		<path id="Path 136" class="s0" d="m657 433l-1-1h2v1z"/>
		<path id="Path 137" class="s8" d="m658 433v-1l18 3v1h-3z"/>
		<path id="Path 138" class="s30" d="m566 441v-8l8 2v8z"/>
		<path id="Path 139" class="s26" d="m656 439l1-6h1l15 3 3 7h-16-3z"/>
		<path id="Path 140" class="s43" d="m311 437l7-2h4l-11 4h-1z"/>
		<path id="Path 141" class="s44" d="m450 436l7-1 2 4h5l-2 9-3-1-2 5-2 1h-4l2 10-1 6h-12l2-17-4-2v-6l2-3h8z"/>
		<path id="Path 142" class="s40" d="m480 437l4-2h8l2 4 11 3 2 5-1 6-7 3-1-5-6-4-8 1-3-1z"/>
		<path id="Path 143" class="s0" d="m676 436v-1l5 2 1 4h-2z"/>
		<path id="Path 144" class="s42" d="m464 439l5-3 11 1 1 10-3 8h-6l-10-4v-3z"/>
		<path id="Path 145" class="s20" d="m676 443l-3-7h3l4 5v12l-1 5-2 2-3 3h-1-2l5-9z"/>
		<path id="Path 146" class="s5" d="m301 442l10-5-1 2z"/>
		<path id="Path 147" class="s42" d="m338 439l16-2 1 8-1 6h-7l-1 7-4-1v-6l-4-1z"/>
		<path id="Path 148" class="s40" d="m355 445l-1-8h6l2 4v4z"/>
		<path id="Path 149" class="s44" d="m528 438l2-1 10 2 1 3 13-1 1 7-4 5-10-1-4-3-9-6z"/>
		<path id="Path 150" class="s40" d="m301 442l9-3h1l1 6v7l-5 3v8l-21 2-8-2v-9l4-3 11-5z"/>
		<path id="Path 151" class="s40" d="m324 445l2-6h12v11l-2 1h-12z"/>
		<path id="Path 152" class="s29" d="m579 443l5-4h10l3 4h10v5l-5 2v6l-4 3h-8l-2-3-8 3h-4v-10l4-2z"/>
		<path id="Path 153" class="s30" d="m644 444l2-5h8v4l-2 6h-6z"/>
		<path id="Path 154" class="s14" d="m654 443v-4h2l1 4z"/>
		<path id="Path 155" class="s35" d="m362 445v-4h11l1 8-5 6h-3-4z"/>
		<path id="Path 156" class="s29" d="m555 448l-1-7h6v5z"/>
		<path id="Path 157" class="s26" d="m560 446v-5h6l8 2 2 6v10h-6l-6-4-1-8z"/>
		<path id="Path 158" class="s23" d="m680 453v-12h2l-1 12z"/>
		<path id="Path 159" class="s5" d="m293 445l8-3-8 4z"/>
		<path id="Path 160" class="s45" d="m420 447l2-5 6 5v4h-5z"/>
		<path id="Path 161" class="s46" d="m576 449l-2-6h5l1 4z"/>
		<path id="Path 162" class="s18" d="m652 449l2-6h3 3v6z"/>
		<path id="Path 163" class="s29" d="m660 449v-6h16v11l-5 9-11 2 2-7z"/>
		<path id="Path 164" class="s36" d="m428 447l10-3v6l-3 7h-4l-3-6z"/>
		<path id="Path 165" class="s32" d="m281 450l12-5v1l-11 5z"/>
		<path id="Path 166" class="s38" d="m312 452v-7h12v6z"/>
		<path id="Path 167" class="s44" d="m354 451l1-6h7v10h-6z"/>
		<path id="Path 168" class="s6" d="m836 447l6-2v1z"/>
		<path id="Path 169" class="s13" d="m842 446v-1h9v1z"/>
		<path id="Path 170" class="s2" d="m851 446v-1h5l1 3v1z"/>
		<path id="Path 171" class="s47" d="m404 447h16l3 4h5l3 6-1 6 5 6-7 4h-14-6l-6-2-5-9-11-3v-8z"/>
		<path id="Path 172" class="s37" d="m555 448l5-2 3 1 1 8-12 2-1-4z"/>
		<path id="Path 173" class="s21" d="m836 447l6-1h9l6 3 2 1 2 4 3 9h-7l-1 6 4 8h6l1 1 1 5-1 19-7 5h-15l-2-10-6-6h-10l-1-7 8-3v-8l2-7-4-2v-16l2-1z"/>
		<path id="Path 174" class="s48" d="m457 452l2-5 3 1v3z"/>
		<path id="Path 175" class="s49" d="m478 455l3-8 3 1 3 8-1 2-4 2h-4z"/>
		<path id="Path 176" class="s44" d="m484 448l8-1v10l-5-1z"/>
		<path id="Path 177" class="s49" d="m492 457v-10l6 4 1 5 7-3 8 7v3h-3l-17-3z"/>
		<path id="Path 178" class="s35" d="m506 453l1-6h7l4 5-1 4-3 4z"/>
		<path id="Path 179" class="s5" d="m819 452l15-5-2 1z"/>
		<path id="Path 180" class="s18" d="m602 456v-6l5-2 7 1v8l6 4v5l-4 3-5-1 1-8z"/>
		<path id="Path 181" class="s17" d="m819 452l13-4v16l-18-3-2-5 1-2h2l3-2z"/>
		<path id="Path 182" class="s5" d="m857 449v-1l2 2z"/>
		<path id="Path 183" class="s44" d="m369 455l5-6 12 2v8h-14z"/>
		<path id="Path 184" class="s50" d="m540 453l-3-4 4 3z"/>
		<path id="Path 185" class="s41" d="m646 461v-12h6 8l2 9-2 7h-8l-2-4z"/>
		<path id="Path 186" class="s19" d="m265 458l16-8 1 1-4 3-19 10v-2l3-2h1z"/>
		<path id="Path 187" class="s44" d="m336 451l2-1 4 1v6l-6-1z"/>
		<path id="Path 188" class="s45" d="m431 457h4l3-7 4 2-2 17h-5l-5-6z"/>
		<path id="Path 189" class="s5" d="m861 454l-2-4 3 4z"/>
		<path id="Path 190" class="s37" d="m312 452l12-1h12v5l-13 9v4l-7-1-2-4-7-1v-8z"/>
		<path id="Path 191" class="s47" d="m346 458l1-7h7l2 4h6 4l5 14h13l2 6-2 6h-3l-32-2-3-6z"/>
		<path id="Path 192" class="s51" d="m457 452l5-1 10 4-6 18h-6v-6l-4-4-1-10z"/>
		<path id="Path 193" class="s52" d="m517 456l1-4 4 1-1 6z"/>
		<path id="Path 194" class="s39" d="m540 453l1-1 10 1 1 4v6l-7-1h-3l-1-1z"/>
		<path id="Path 195" class="s5" d="m810 454l5-2v2h-2z"/>
		<path id="Path 196" class="s6" d="m815 454v-2h3z"/>
		<path id="Path 197" class="s53" d="m453 463l-2-10h4l1 10z"/>
		<path id="Path 198" class="s3" d="m679 458l1-5h1z"/>
		<path id="Path 199" class="s39" d="m259 464l19-10v9l-4 3v5l-10 8h-8l-8-1-4 4v5l-2 1-6 2v6l-4 3-12-8 2-2 10-7 8-6 6-4 6-3 5-4z"/>
		<path id="Path 200" class="s6" d="m804 457l6-3h3l-1 2-8 3z"/>
		<path id="Path 201" class="s13" d="m864 463l-3-9h1l4 6 1 18-1-1z"/>
		<path id="Path 202" class="s54" d="m386 475l-2-6h-13l-5-14h3l3 4h14l11 3 5 9 6 2v5z"/>
		<path id="Path 203" class="s36" d="m466 473l6-18h6v5l-1 4 3 2-2 7z"/>
		<path id="Path 204" class="s50" d="m552 457l12-2 6 4v14l-5 3-1-4-5 4-6-3v-4l2-6h-3z"/>
		<path id="Path 205" class="s45" d="m323 469v-4l13-9 6 1 4 1v15l-10 2-11-2z"/>
		<path id="Path 206" class="s55" d="m486 458l1-2 5 1 2 3-6 3z"/>
		<path id="Path 207" class="s48" d="m514 460l3-4 4 3 8 8 2 8-1 11-8 4-2-1-1-7-2-9 5-2v-4l-6-2-2-2z"/>
		<path id="Path 208" class="s37" d="m580 459l8-3 2 3h8l1 11-1 7h-4l-9-2-3 11-4 1h-5v-8h-7l-1-3 5-3h8l4-1-2-5z"/>
		<path id="Path 209" class="s26" d="m598 459l4-3 10 4-1 8 5 1 3 9-1 1h-5l-14-9z"/>
		<path id="Path 210" class="s30" d="m804 459l8-3 2 5-7 8h-13l-2-3z"/>
		<path id="Path 211" class="s0" d="m788 467l16-10v2l-12 7z"/>
		<path id="Path 212" class="s35" d="m482 460l4-2 2 5-5 2z"/>
		<path id="Path 213" class="s38" d="m570 473v-14h6 4v8l-2 6z"/>
		<path id="Path 214" class="s51" d="m480 466l-3-2 1-4h4l1 5z"/>
		<path id="Path 215" class="s45" d="m488 463l6-3 17 3 1 8 4 1 1 1 2 9-5 3h-5l-3-6-28-1v-5l2-7 3-1z"/>
		<path id="Path 216" class="s47" d="m533 467l8-6 1 1-3 7h-5z"/>
		<path id="Path 217" class="s31" d="m620 466v-5h7l4 10h-7z"/>
		<path id="Path 218" class="s31" d="m632 472l6-1 3-8 5-2h4l2 4h8l11-2h2l-1 2-5 3-8 5-9 5h-1l-10 5v1l-8 3v-1z"/>
		<path id="Path 219" class="s18" d="m794 469h13l7-8 18 3 4 2-2 7-10 2h-9l-4 4 3 14-2 12h-6v-4h-10v-9l6-5v-5l-8-9z"/>
		<path id="Path 220" class="s0" d="m256 465l3-3v2l-2 1z"/>
		<path id="Path 221" class="s42" d="m539 469l3-7h3l1 7v4z"/>
		<path id="Path 222" class="s44" d="m546 469l-1-7 7 1h3l-2 6z"/>
		<path id="Path 223" class="s38" d="m274 471v-5l4-3 8 2v4l-4 2z"/>
		<path id="Path 224" class="s44" d="m286 465l21-2 7 1 2 4-3 7-4 3h-6l-1 3-20-3v-7l4-2z"/>
		<path id="Path 225" class="s54" d="m452 469l1-6h3l4 4v6h-5z"/>
		<path id="Path 226" class="s53" d="m516 472l-4-1-1-8h3l2 2z"/>
		<path id="Path 227" class="s3" d="m672 465l1-2h1z"/>
		<path id="Path 228" class="s14" d="m866 477h-6l-4-8 1-6h7z"/>
		<path id="Path 229" class="s19" d="m252 467l4-2h1l-5 4z"/>
		<path id="Path 230" class="s54" d="m516 472v-7l6 2v4l-5 2z"/>
		<path id="Path 231" class="s30" d="m616 469l4-3 4 5h7l1 1-1 14-8-8h-4z"/>
		<path id="Path 232" class="s29" d="m788 467l4-1 2 3v4l-10 1v-4l3-3z"/>
		<path id="Path 233" class="s5" d="m246 472l6-5v2z"/>
		<path id="Path 234" class="s36" d="m531 475l-2-8h4l1 2v6z"/>
		<path id="Path 235" class="s39" d="m578 473l2-6 2 5z"/>
		<path id="Path 236" class="s3" d="m779 472l2-4 6-1-3 3z"/>
		<path id="Path 237" class="s49" d="m313 475l3-7 7 1 2 4 11 2v6l-14 1z"/>
		<path id="Path 238" class="s51" d="m414 473h14l7-4h5 12l3 4-1 10h-8l-13-2-1 8h-12l-6-10z"/>
		<path id="Path 239" class="s51" d="m534 475v-6h5l7 4h7l6 3 5-4 1 4 1 3h7v8 4h4l3 3v5l-3 6 5 2v8h-16l-11-5-1-6-7-6-2-5-5-2v-6l1-7z"/>
		<path id="Path 240" class="s28" d="m546 473v-4h7v4z"/>
		<path id="Path 241" class="s50" d="m598 477l1-7 14 9h5l6 17h-3l-7-4-2-5h-11l-3-4z"/>
		<path id="Path 242" class="s30" d="m779 472l5-2v4l-2 5h-9v-3z"/>
		<path id="Path 243" class="s42" d="m256 479h8l10-8h8v7l-8 5-3 7-7 1h-6l-3-4z"/>
		<path id="Path 244" class="s5" d="m240 475l6-3-6 4z"/>
		<path id="Path 245" class="s8" d="m772 475l7-3-6 4h-1z"/>
		<path id="Path 246" class="s54" d="m336 475l10-2 3 6-3 6h-7l-3-4z"/>
		<path id="Path 247" class="s56" d="m408 478v-5h6v6h-6z"/>
		<path id="Path 248" class="s53" d="m454 483l1-10h5 6v9l-1 1-5 2z"/>
		<path id="Path 249" class="s56" d="m466 482v-9h12v5l-5 5z"/>
		<path id="Path 250" class="s17" d="m784 474l10-1 8 9v5l-6 5-8-1-6-6v-6z"/>
		<path id="Path 251" class="s41" d="m824 475l10-2v8l-8 3z"/>
		<path id="Path 252" class="s0" d="m231 482l9-7v1l-8 6z"/>
		<path id="Path 253" class="s57" d="m309 478l4-3 9 7-3 6h-3z"/>
		<path id="Path 254" class="s51" d="m384 481l2-6 22 3v1 8h-17l-1-4h-6z"/>
		<path id="Path 255" class="s44" d="m530 486l1-11h3l7 3-1 7-5 1z"/>
		<path id="Path 256" class="s42" d="m582 486l3-11 9 2v6l-2 6-8 1z"/>
		<path id="Path 257" class="s11" d="m768 478l4-3v1l-4 3z"/>
		<path id="Path 258" class="s30" d="m812 505l2-12-3-14 4-4h9l2 9 1 7h10l6 6 2 10-2 2h-29z"/>
		<path id="Path 259" class="s17" d="m768 479l4-3h1v3 8l-1 2h-9-3l-1-4 2-3z"/>
		<path id="Path 260" class="s44" d="m594 483v-6h4v6z"/>
		<path id="Path 261" class="s40" d="m244 487v-5l4-4 8 1-1 8z"/>
		<path id="Path 262" class="s52" d="m271 490l3-7 8-5 20 3 2 21-4 5h-12v-4l-3-1-4-3-8 4z"/>
		<path id="Path 263" class="s54" d="m302 481l1-3h6l7 10v7l-5 2-1 4-6 1z"/>
		<path id="Path 264" class="s51" d="m473 483l5-5 28 1 3 6-1 4h-8l-7 2-7-2-10-2z"/>
		<path id="Path 265" class="s46" d="m618 479l1-1h4l8 8v1l-1 4 4 3-3 3-7-1z"/>
		<path id="Path 266" class="s3" d="m761 482l7-4v1z"/>
		<path id="Path 267" class="s1" d="m868 483l-1-5 2 5z"/>
		<path id="Path 268" class="s51" d="m346 485l3-6 32 2 1 2-3 13-10 1-3-3-13-3-2 4h-5z"/>
		<path id="Path 269" class="s55" d="m408 487v-8h6l6 10-2 1z"/>
		<path id="Path 270" class="s12" d="m773 487v-8h9v6z"/>
		<path id="Path 271" class="s47" d="m322 482l14-1 3 4-5 5v11h-4v3l-10-2-4-7v-7h3z"/>
		<path id="Path 272" class="s28" d="m382 483l-1-2h3v2z"/>
		<path id="Path 273" class="s55" d="m432 489l1-8 13 2v7z"/>
		<path id="Path 274" class="s6" d="m228 483l1-1h2 1l-10 7v-2l4-2z"/>
		<path id="Path 275" class="s58" d="m465 483l1-1 7 1 3 4-4 7-6-2z"/>
		<path id="Path 276" class="s53" d="m514 485l5-3 1 7-4 1z"/>
		<path id="Path 277" class="s8" d="m733 492l5-4 23-6-2 3-13 4z"/>
		<path id="Path 278" class="s55" d="m379 496l3-13h2 6l1 4-6 11z"/>
		<path id="Path 279" class="s59" d="m446 490v-7h8l6 2v10l-4 6h-4l-1-3 1-5z"/>
		<path id="Path 280" class="s60" d="m460 485l5-2 1 9 6 2 1 5v3h-5l-1 5 7 1 1 1-7 9v11h-4-2v-12l-6-9v-7l4-6z"/>
		<path id="Path 281" class="s39" d="m592 489l2-6h4l3 4-4 4-5-1z"/>
		<path id="Path 282" class="s5" d="m867 502l1-19h1z"/>
		<path id="Path 283" class="s13" d="m631 487l8-3-7 4 2 4 23 6v1l-15-3-8-2-4-3z"/>
		<path id="Path 284" class="s49" d="m334 501v-11l5-5h7v10l-3 6h-7z"/>
		<path id="Path 285" class="s28" d="m508 489l1-4h5l2 5-4 6-4-1z"/>
		<path id="Path 286" class="s49" d="m535 486l5-1v6l-2 1z"/>
		<path id="Path 287" class="s14" d="m746 489l13-4 1 4h3l2 5h6l1-5 1-2 9-2 6 6v7l6 4 1 11-6 4-6-4h-9l-2-3-14 3h-10z"/>
		<path id="Path 288" class="s58" d="m522 490l8-4h5l3 6v7l-4 4-12-8z"/>
		<path id="Path 289" class="s61" d="m578 487l4-1 2 4 6 6 2 5-1 4h-4l-2-5v-4l-5-2-3-3z"/>
		<path id="Path 290" class="s5" d="m216 492l6-5v2l-2 2z"/>
		<path id="Path 291" class="s62" d="m242 488l2-1h11l3 4 2 8-2 4-8 1 6 19-5 1-5 4-4 3h-10l-6-6v-12l6-8h6l4-5z"/>
		<path id="Path 292" class="s58" d="m379 496l6 2 6-11h17l10 3-2 29-3 2-11-2v-4l-4-2-5-8-2 3 3 5v4l-4 3-2-3h-9l-1 4-16-1-6 9-4-8h-6l-7-14 4-1v-5l3-6h5l7 4 8-5 3 3z"/>
		<path id="Path 293" class="s55" d="m472 494l4-7 10 2v10h-8-5z"/>
		<path id="Path 294" class="s36" d="m577 491h-4v-4h5z"/>
		<path id="Path 295" class="s37" d="m597 491l4-4h11l2 5 7 4-2 5-2 1-2-1-2-5-5 1v4h-6v-5z"/>
		<path id="Path 296" class="s52" d="m232 499l4-3v-6l6-2v12l-4 5h-6z"/>
		<path id="Path 297" class="s63" d="m486 489l7 2 7-2-2 12-12-2z"/>
		<path id="Path 298" class="s63" d="m418 490l2-1h12v6l-2 6 3 2-3 18-4 8-4 1v5h-5l1-8-5-6 3-2z"/>
		<path id="Path 299" class="s64" d="m432 495v-6l14 1 6 3-1 5-7-1z"/>
		<path id="Path 300" class="s65" d="m498 501l2-12h8v6l4 1v7l-6 2-8-1z"/>
		<path id="Path 301" class="s60" d="m516 490l4-1 2 1v5l12 8v4h-1-5-10l-6-4v-7z"/>
		<path id="Path 302" class="s56" d="m584 490l8-1v1l-2 6z"/>
		<path id="Path 303" class="s26" d="m733 492l13-3 2 24 2 8h8l6 3v6l5 4 1 11 12 11v11h-9l-7 8v6h-5-6l-11-2-1-7-4-1 1-8 2-8-3-8-1-6 2-14-11-10 3-11-6-10 1-2h1l4-2z"/>
		<path id="Path 304" class="s9" d="m772 489l-1 5h-6l-2-5z"/>
		<path id="Path 305" class="s57" d="m264 491l7-1 2 13-3 18v4h-13l-1-2-6-19 8-1 2-4 4-2z"/>
		<path id="Path 306" class="s47" d="m590 496l2-6 5 1 5 5v5h-2-8z"/>
		<path id="Path 307" class="s40" d="m216 492l4-1 12 8v6l-6 8h-7l-15-10 1-3 3-3 4-2z"/>
		<path id="Path 308" class="s52" d="m260 499l-2-8h6v6z"/>
		<path id="Path 309" class="s56" d="m351 495l2-4 13 3-8 5z"/>
		<path id="Path 310" class="s59" d="m538 492l2-1 5 2 2 5-1 1h-8z"/>
		<path id="Path 311" class="s21" d="m794 502l-6-4v-7l8 1v9z"/>
		<path id="Path 312" class="s5" d="m212 493l4-1-4 3z"/>
		<path id="Path 313" class="s4" d="m721 495l7-3v2h-1z"/>
		<path id="Path 314" class="s8" d="m728 494v-2h4z"/>
		<path id="Path 315" class="s4" d="m208 497l4-4v2z"/>
		<path id="Path 316" class="s28" d="m580 499v-5l5 2v4z"/>
		<path id="Path 317" class="s37" d="m631 497l3-3 8 2v8l-4 3h-4l-2-3z"/>
		<path id="Path 318" class="s18" d="m721 495l6-1-1 2-5 2-9 1 2-2z"/>
		<path id="Path 319" class="s58" d="m310 501l1-4 5-2 4 7-7 4h-1l1-5z"/>
		<path id="Path 320" class="s65" d="m433 503l-3-2 2-6 12 2v8z"/>
		<path id="Path 321" class="s51" d="m608 501v-4l5-1 2 5z"/>
		<path id="Path 322" class="s47" d="m619 501l2-5h3l7 1 1 7-4 1z"/>
		<path id="Path 323" class="s50" d="m642 504v-8l15 3 4 1 6 1 5 2v4l-3 1h-6l-1-2-9 2-9-1z"/>
		<path id="Path 324" class="s46" d="m721 498l5-2 6 10-3 11-3 2-3-2-1-8z"/>
		<path id="Path 325" class="s3" d="m203 500l1-3h4l-3 3z"/>
		<path id="Path 326" class="s18" d="m444 505v-8l7 1 1 3-5 4z"/>
		<path id="Path 327" class="s3" d="m706 500l8-3-2 2-5 1z"/>
		<path id="Path 328" class="s63" d="m546 499l1-1 7 6 1 6 11 5v4l-20 2-1-12z"/>
		<path id="Path 329" class="s32" d="m657 499v-1h4v2z"/>
		<path id="Path 330" class="s5" d="m661 500v-2l21 2v1h-15z"/>
		<path id="Path 331" class="s37" d="m712 499l9-1 1 11h-6-4l-4-2-1-6v-1z"/>
		<path id="Path 332" class="s66" d="m273 503l8-4 4 3 2 5-1 8v6h-6-10z"/>
		<path id="Path 333" class="s63" d="m473 502v-3h5v4h-4z"/>
		<path id="Path 334" class="s64" d="m478 503v-4h8l12 2v3l-1 19-3 5-10 1v9h-6l-1-6-9-3v-11l7-9 3-1z"/>
		<path id="Path 335" class="s10" d="m534 503l4-4h8l-1 10-11-2z"/>
		<path id="Path 336" class="s58" d="m582 507l-5-2 3-6 5 1 2 5-1 2z"/>
		<path id="Path 337" class="s3" d="m198 503l1-3h4z"/>
		<path id="Path 338" class="s44" d="m198 503l5-3h2l-1 3-8 3 1-2z"/>
		<path id="Path 339" class="s32" d="m682 501v-1h14v1z"/>
		<path id="Path 340" class="s67" d="m696 501v-1h10 1v1h-4z"/>
		<path id="Path 341" class="s60" d="m304 502l6-1h3l-1 5-1 8-3 2z"/>
		<path id="Path 342" class="s65" d="m330 504v-3h4 2v3l-2 4z"/>
		<path id="Path 343" class="s56" d="m336 504v-3h7v5l-4 1z"/>
		<path id="Path 344" class="s7" d="m447 505l5-4h4v7h-8z"/>
		<path id="Path 345" class="s59" d="m591 505l1-4h8l2 8h8l4 6v14h-5l-3-4-4 3-3-7-5-2-2-9z"/>
		<path id="Path 346" class="s28" d="m614 515l-4-6h-8l-2-8h2 6 7l2 1 4 9h7l3 4 3 8-6-1-4-3z"/>
		<path id="Path 347" class="s44" d="m617 502l2-1 9 4v5 1h-7z"/>
		<path id="Path 348" class="s20" d="m672 503l-5-2h15v2z"/>
		<path id="Path 349" class="s21" d="m682 503v-2h14l-4 2z"/>
		<path id="Path 350" class="s38" d="m692 503l4-2h7l-1 6-4 4-6-2z"/>
		<path id="Path 351" class="s39" d="m702 507l1-6h4l1 6z"/>
		<path id="Path 352" class="s29" d="m794 502l2-1h10v4l-4 3v5h-7z"/>
		<path id="Path 353" class="s68" d="m287 507l-2-5 3 1v4z"/>
		<path id="Path 354" class="s53" d="m300 507l4-5 4 14v4l-4 1-5-5z"/>
		<path id="Path 355" class="s40" d="m313 506l7-4 10 2 4 4 4 8v9l-8 9-10 1-5-10-1-5z"/>
		<path id="Path 356" class="s65" d="m474 508l-7-1 1-5h5l1 1z"/>
		<path id="Path 357" class="s1" d="m860 507l7-5-2 5-8 3z"/>
		<path id="Path 358" class="s2" d="m178 515l13-10 6-1-1 2-3 2-9 5-4 2z"/>
		<path id="Path 359" class="s39" d="m196 506l8-3 15 10h7v12h-2l-10-5-6 1 1 10v3l-3 1-2-2v-9l-4-3-13 2-3-10 9-5z"/>
		<path id="Path 360" class="s69" d="m430 521l3-18 11 2h3l1 3v9l-2 7 6 1 5 4v10l-6 2v4l-4 2-2-1v-8l-6 2v6l-6 2-1-9-5-2 2-7 5-4 6-2-1-8h-5v5z"/>
		<path id="Path 361" class="s70" d="m474 508v-5h4v5l-3 1z"/>
		<path id="Path 362" class="s71" d="m506 505l6-2 6 4v10h-10z"/>
		<path id="Path 363" class="s39" d="m672 507v-4h10v6h-7z"/>
		<path id="Path 364" class="s50" d="m682 509v-6h10v6h-2-6z"/>
		<path id="Path 365" class="s60" d="m334 508l2-4 3 3 7 14 2 13h-4l-6-9v-9z"/>
		<path id="Path 366" class="s69" d="m497 523l1-19 8 1 2 12v3l-4 3z"/>
		<path id="Path 367" class="s31" d="m628 505l4-1 2 3-1 1-5 2z"/>
		<path id="Path 368" class="s22" d="m638 507l4-3 2 3v4h-5z"/>
		<path id="Path 369" class="s72" d="m394 513l-3-5 2-3 5 8z"/>
		<path id="Path 370" class="s51" d="m586 507l1-2h4l1 5-4 1z"/>
		<path id="Path 371" class="s27" d="m802 513v-5l4-3h6l2 4h29l4 9-5 6-4 3h-10l-16 2-9-2z"/>
		<path id="Path 372" class="s56" d="m308 516l3-2 1-8h1l1 14-4 2-2-2z"/>
		<path id="Path 373" class="s51" d="m653 508l9-2 1 2 4 5v2l-4 1 1 5-6 3-8-7v-7z"/>
		<path id="Path 374" class="s54" d="m286 515l1-8h1 12l-1 9-5 1z"/>
		<path id="Path 375" class="s73" d="m518 517v-10h10v6l-3 6h-7z"/>
		<path id="Path 376" class="s74" d="m528 513v-6h5v6z"/>
		<path id="Path 377" class="s75" d="m533 513v-6h1l11 2 1 12h-8l-2-7z"/>
		<path id="Path 378" class="s69" d="m582 515v-8h4l2 4 4-1 2 9-4 2h-5z"/>
		<path id="Path 379" class="s36" d="m633 508l1-1h4l1 4-3 2-3-3z"/>
		<path id="Path 380" class="s36" d="m644 511v-4l9 1-3 2v7h-3z"/>
		<path id="Path 381" class="s55" d="m669 508l3-1 3 2 2 5-9-1z"/>
		<path id="Path 382" class="s44" d="m698 511l4-4h6l4 2v7l-4 1v3l-5 1-4-3z"/>
		<path id="Path 383" class="s31" d="m843 509l2-2h15l-3 3-3 3-1 6 8 10-12 2-7-7 5-6z"/>
		<path id="Path 384" class="s64" d="m448 517v-9h8l6 9v12h-5l-5-4v-6z"/>
		<path id="Path 385" class="s76" d="m628 510l5-2v2l-2 5-3-4z"/>
		<path id="Path 386" class="s35" d="m667 513l-4-5h6l-1 5z"/>
		<path id="Path 387" class="s44" d="m677 514l-2-5h7 2l2 9v1l-3 3-5-3z"/>
		<path id="Path 388" class="s37" d="m686 518l-2-9h6v8z"/>
		<path id="Path 389" class="s28" d="m686 518l4-1v-8h2l6 2 1 7 4 3 5-1v6l-10 3-10-9-2-1z"/>
		<path id="Path 390" class="s55" d="m712 516v-7h4v8z"/>
		<path id="Path 391" class="s36" d="m716 517v-8h6l1 8-4 1z"/>
		<path id="Path 392" class="s58" d="m631 515l2-5 3 3 3-2h5l3 6-5 5 1 5h-3l-2-4h-4z"/>
		<path id="Path 393" class="s34" d="m758 513l14-3 2 3v10l-10 1-6-3z"/>
		<path id="Path 394" class="s40" d="m180 515l4-2 3 10v10l-5 14h-6l-2-11-9-8 6-7 2-2z"/>
		<path id="Path 395" class="s63" d="m394 517v-4h4l4 2v4z"/>
		<path id="Path 396" class="s71" d="m525 519l3-6h5l3 1 2 7h8l20-2 10 10-4 12 6 4v5l4 1 2 16h-7l-2-3 1-5-6-3-1-8-1-7h-13l-1 10h-6l-2-3-3-11h3v-5l-9-1 1-8z"/>
		<path id="Path 397" class="s45" d="m667 515v-2h1l9 1 1 5h-10z"/>
		<path id="Path 398" class="s9" d="m758 521h-8l-2-8h10z"/>
		<path id="Path 399" class="s9" d="m774 523v-10h9l6 4 2 8 4 2-1 4-18-2z"/>
		<path id="Path 400" class="s20" d="m789 517l6-4h7l1 14h-8l-4-2z"/>
		<path id="Path 401" class="s4" d="m861 529l-8-10 1-6 2 9 8 8z"/>
		<path id="Path 402" class="s19" d="m173 518l1-3h4 2l-7 4z"/>
		<path id="Path 403" class="s45" d="m286 521v-6l8 2-1 3-6 1z"/>
		<path id="Path 404" class="s64" d="m566 519v-4h16l3 6h5v8h-9-5z"/>
		<path id="Path 405" class="s31" d="m614 529v-14l10 4 2 5 2 10-2 1-10-2z"/>
		<path id="Path 406" class="s70" d="m664 521l-1-5 4-1 1 4h10l5 3v1l-1 12-2 6-4 2-9-4 1-15z"/>
		<path id="Path 407" class="s61" d="m294 517l5-1 5 5-1 6h-5l-5-7z"/>
		<path id="Path 408" class="s31" d="m434 521v-5h5l1 8-6 2z"/>
		<path id="Path 409" class="s65" d="m708 520v-3l4-1 4 1 3 1 1 15h-2l-6-2-4-5z"/>
		<path id="Path 410" class="s65" d="m378 521l1-4h9l2 3-1 7h-3z"/>
		<path id="Path 411" class="s69" d="m390 520l4-3 8 2 11 2 5 6-1 8-1 5 5 1 3 2-1 10-9 2v-6l-6-6v-8l-5-1-1 3-4-1-2-7-7-2z"/>
		<path id="Path 412" class="s65" d="m452 525l-6-1 2-7 4 2z"/>
		<path id="Path 413" class="s77" d="m508 520v-3h10v2l-5 5z"/>
		<path id="Path 414" class="s29" d="m643 527l-1-5 5-5h3l8 7-2 4h-9z"/>
		<path id="Path 415" class="s78" d="m719 518l4-1 3 2 3 8-5 6h-4z"/>
		<path id="Path 416" class="s10" d="m726 519l3-2 11 10-2 14h-7l-1-2 4-8-5-4z"/>
		<path id="Path 417" class="s32" d="m170 520l3-2v1l-2 2z"/>
		<path id="Path 418" class="s64" d="m356 529l6-9 16 1 8 6 1 15 3 3 2 8 2 8v6l-2 1h-5v-3l-5-2-2-4h-5v-9l-5-1-10-2-4-12z"/>
		<path id="Path 419" class="s74" d="m513 524l5-5h7l13 4-1 8v6h6l3 11-5 3v9l-5 3v7l6 3v14l14 2 2-3v-5l-8-7v-15l4-3v-5l1-10h13l1 7-6 1 3 9 3 6 2 7-1 6-4 1v4l6 1 2 2v8l-4 3v17h-6l-12-4v-5l-7-2-1-3h-4l-1-4h-4v5l5 1 4 2v4l-4 1v10l4 3v3l-2 8 2 1v4l-5 2-3 1-8 1-6-5-3-5h-10l-1 9-4 2v7h-2l-10 1-4 2h-4l-12-1-20 2h-10v-8l12-12 9-1 1-11 3-1v-11l2-7 17-1 2-4h10l3-12h6l4-4 4-1v-5l-1-5-5-3-1-9 1-13-3-2v-6h9z"/>
		<path id="Path 420" class="s79" d="m515 590l5 2v5l-9 2v-5z"/>
		<path id="Path 421" class="s60" d="m590 521l4-2 5 2 3 7v5l-2 1-10-5z"/>
		<path id="Path 422" class="s71" d="m626 524l-2-5 4 3z"/>
		<path id="Path 423" class="s65" d="m683 522l3-3 2 1-5 3z"/>
		<path id="Path 424" class="s6" d="m153 537l17-17 1 1-6 7z"/>
		<path id="Path 425" class="s37" d="m209 531l-1-10 6-1 1 11z"/>
		<path id="Path 426" class="s9" d="m215 531l-1-11 10 5v12h-5z"/>
		<path id="Path 427" class="s76" d="m287 521l6-1 5 7-1 6-11 3-6 1-2-10 2-2h6z"/>
		<path id="Path 428" class="s48" d="m304 521l4-1 2 2v3l-6 2h-1z"/>
		<path id="Path 429" class="s54" d="m310 522l4-2 1 5h-5z"/>
		<path id="Path 430" class="s80" d="m504 523l4-3 5 4 2 13h-9l-2-4z"/>
		<path id="Path 431" class="s63" d="m683 523l5-3 10 9v7l-6-1h-10z"/>
		<path id="Path 432" class="s81" d="m187 523l13-2 4 3v9h-17z"/>
		<path id="Path 433" class="s48" d="m270 525v-4h10v4l-2 2z"/>
		<path id="Path 434" class="s56" d="m280 525v-4h6 1l-1 4z"/>
		<path id="Path 435" class="s72" d="m348 534l-2-13h6l4 8v6h-7z"/>
		<path id="Path 436" class="s73" d="m426 529l4-8h4v5l-5 4z"/>
		<path id="Path 437" class="s10" d="m658 524l6-3 4 3-1 15-7 1-4-7v-5z"/>
		<path id="Path 438" class="s70" d="m626 524l2-2 6 1v6l4 1v6l-10-2z"/>
		<path id="Path 439" class="s53" d="m251 524l5-1 1 2-5 2z"/>
		<path id="Path 440" class="s75" d="m494 528l3-5h7v10l-7 1z"/>
		<path id="Path 441" class="s60" d="m638 530l-4-1v-6h4l2 4z"/>
		<path id="Path 442" class="s14" d="m764 524l10-1 2 6 3 13 7 1 3 6-7 7-12-11-1-11-5-4z"/>
		<path id="Path 443" class="s61" d="m246 528l5-4 1 3 5-2h13l8 2 2 10-4 4h-8-6l-3-3-9 3-4-3z"/>
		<path id="Path 444" class="s10" d="m838 527l4-3 7 7-7 2-4-1z"/>
		<path id="Path 445" class="s52" d="m224 537v-12h2l6 6-2 9h-2z"/>
		<path id="Path 446" class="s51" d="m304 527l6-2h5l5 10 10-1-2 2-8 3-6-1-10-5z"/>
		<path id="Path 447" class="s69" d="m330 534l8-9 6 9v5h-2l-6-2-4 4-4-5z"/>
		<path id="Path 448" class="s73" d="m602 528l4-3 3 4-1 4h-6z"/>
		<path id="Path 449" class="s75" d="m698 529l10-3 4 5v6l-3 3 7 2 2 2-1 12-15 1-12-2-4-1v-13l6-1 8 2-2-6z"/>
		<path id="Path 450" class="s59" d="m297 533l1-6h5 1v6l10 5-7 9-5-5z"/>
		<path id="Path 451" class="s63" d="m390 545l-3-3-1-15h3l7 2 2 7 4 1v6l-5 2z"/>
		<path id="Path 452" class="s73" d="m484 538v-9l10-1 3 6 7-1 2 4v6l-9 1-3-4-10-1z"/>
		<path id="Path 453" class="s75" d="m638 530l2-3h3l4 1 3 5h6l4 7v12l-6 6-8-7v-5l-4-3-4-7z"/>
		<path id="Path 454" class="s77" d="m724 533l5-6 5 4-4 8h-4l-2-3z"/>
		<path id="Path 455" class="s17" d="m776 529l18 2 1-4h8l9 2v4l-1 8 8 3 1 11v10l-13 1-10-17h-8l-3-6-7-1z"/>
		<path id="Path 456" class="s21" d="m812 529l16-2v5l-16 1z"/>
		<path id="Path 457" class="s41" d="m828 532v-5h10v5l-6 1z"/>
		<path id="Path 458" class="s42" d="m153 537l12-9 9 8 2 11v6l-5 4-15-2-6-14z"/>
		<path id="Path 459" class="s66" d="m232 531h10l4-3v10l4 3v6l-5 5-11-3v-8l-4-1z"/>
		<path id="Path 460" class="s82" d="m656 533h-6l-3-5h9z"/>
		<path id="Path 461" class="s60" d="m422 535v-5l4-1 3 1-2 7h-4z"/>
		<path id="Path 462" class="s73" d="m457 539v-10h5 2v10l-1 6 3 2v2l-5 4-5-2v-6z"/>
		<path id="Path 463" class="s77" d="m464 539v-10h4l9 3 1 6-4 5h-4l-1-4z"/>
		<path id="Path 464" class="s82" d="m578 545l-6-4 4-12h5l2 13-2 3z"/>
		<path id="Path 465" class="s77" d="m581 545l2-3-2-13h9l10 5v3l-3 2 1 5h-6l-7 5z"/>
		<path id="Path 466" class="s71" d="m608 533l1-4h5l2 4 10 2v14l-6 6h-4l-3-1-3-11z"/>
		<path id="Path 467" class="s21" d="m849 531l12-2 3 1 3 2 5 5 3 5 3 7v3 18l-1 1-13-4 2-14-5-6-12-1v-3l-7-4v-6z"/>
		<path id="Path 468" class="s50" d="m209 534v-3h6l4 6v6l-1 8-3 3-7 5h-9l6-6 1-12 4-1z"/>
		<path id="Path 469" class="s78" d="m543 537h-6v-6l9 1v5z"/>
		<path id="Path 470" class="s83" d="m712 537v-6l6 2v3l-2 1z"/>
		<path id="Path 471" class="s30" d="m812 533l16-1 4 1v6l-3 2 2 5h18l12 1 5 6-2 14 13 4-4 7-4 2-8 3-6 2h-3-6v-8-8l-7-1-5-2v-8l-3-3h-11l-1-11-8-3z"/>
		<path id="Path 472" class="s29" d="m832 533l6-1 4 1v6h-10z"/>
		<path id="Path 473" class="s84" d="m182 547l5-14h17l2 2v6l-1 12-6 6h-7-4l-9-3-1-3z"/>
		<path id="Path 474" class="s28" d="m286 536l11-3 5 9h-4l-4 5h-6z"/>
		<path id="Path 475" class="s79" d="m600 534l2-1h6l2 10h-8l-2-6z"/>
		<path id="Path 476" class="s79" d="m718 536v-3h2 4v3z"/>
		<path id="Path 477" class="s46" d="m206 535l3-1 1 6-4 1z"/>
		<path id="Path 478" class="s76" d="m344 539v-5h4l1 1-1 4z"/>
		<path id="Path 479" class="s70" d="m402 537l1-3 5 1v8h-6z"/>
		<path id="Path 480" class="s77" d="m626 535l2-1 10 2 4 7-7 6h-9z"/>
		<path id="Path 481" class="s69" d="m348 539l1-4h7l4 12 10 2-1 7-8-1-21 6-3-4h-9v-6l-1-3 5-5 4 7h3l3-6 6-2z"/>
		<path id="Path 482" class="s10" d="m421 541l-5-1 1-5h5l1 2z"/>
		<path id="Path 483" class="s25" d="m680 541l2-6h10v5l-6 1z"/>
		<path id="Path 484" class="s18" d="m692 540v-5l6 1 2 6z"/>
		<path id="Path 485" class="s54" d="m280 537l6-1 2 11-6 2-5-1-1-7z"/>
		<path id="Path 486" class="s73" d="m320 539l8-3 4 5v2l-5 5-3 1-4-2z"/>
		<path id="Path 487" class="s78" d="m716 537l2-1h6l2 3-1 3-7 2-2-2z"/>
		<path id="Path 488" class="s6" d="m145 542l4-5h4l-3 4-5 3z"/>
		<path id="Path 489" class="s30" d="m219 543v-6h5l4 3-3 3z"/>
		<path id="Path 490" class="s55" d="m332 541l4-4 6 2v5l-3 6h-3l-4-7z"/>
		<path id="Path 491" class="s64" d="m421 541l2-4h4l5 2 1 9 6-2h6l2 1-4 14h-6l-1-4h-9l-4-4 1-10z"/>
		<path id="Path 492" class="s25" d="m598 544l-1-5 3-2 2 6z"/>
		<path id="Path 493" class="s25" d="m716 542l-7-2 3-3h4z"/>
		<path id="Path 494" class="s1" d="m875 542l-3-5 4 5z"/>
		<path id="Path 495" class="s55" d="m250 541l9-3 3 3-4 6h-5-3z"/>
		<path id="Path 496" class="s60" d="m307 547l7-9 6 1v8l4 2v2l-6 3h-7l-3 5-9 7-3 1v5l6 1-2 14-5 2-1 8h-4v-6l-6-4v-12l-5-1-7-3h-5v5l4 2 6 1 1 8-6 8h-10l-2-12 2-32h1l15 2 4-2 14 2 1-2z"/>
		<path id="Path 497" class="s10" d="m439 546v-6l6-2v8z"/>
		<path id="Path 498" class="s70" d="m474 543l4-5h6v1 8l-6 6h-4-2v-4z"/>
		<path id="Path 499" class="s72" d="m342 544v-5h2 4v3z"/>
		<path id="Path 500" class="s31" d="m451 545v-4l6-2-1 6z"/>
		<path id="Path 501" class="s65" d="m466 547l-3-2 1-6h5l1 4z"/>
		<path id="Path 502" class="s80" d="m474 553h4l6-6v-8l10 1 3 4-4 13 5 2v5l4 1v2 8l9 6-4 4h-6l-4-3v-7l-10-10h-11z"/>
		<path id="Path 503" class="s77" d="m660 540l7-1 9 4v14 6l-4 2v6h-5l-1-6v-5l-6-8z"/>
		<path id="Path 504" class="s71" d="m725 542l1-3h4l1 2-1 4h-4z"/>
		<path id="Path 505" class="s22" d="m849 546h-18l-2-5 3-2h10l7 4z"/>
		<path id="Path 506" class="s57" d="m225 543l3-3h2l4 1v8l-8 6-1-4z"/>
		<path id="Path 507" class="s40" d="m145 544l5-3 6 14v4l-14 2-1-5h-6l3-6 2-2 4-4z"/>
		<path id="Path 508" class="s45" d="m258 547l4-6h6l-5 10h-1-3z"/>
		<path id="Path 509" class="s55" d="m263 551l5-10h8l1 7 5 1v2l-4 2z"/>
		<path id="Path 510" class="s83" d="m676 543l4-2h6v13l-3 3h-7z"/>
		<path id="Path 511" class="s31" d="m730 545l1-4h7l1 6h-9z"/>
		<path id="Path 512" class="s0" d="m142 544l3-2v2h-1z"/>
		<path id="Path 513" class="s70" d="m294 547l4-5h4l5 5-10 4z"/>
		<path id="Path 514" class="s80" d="m718 544l7-2 1 3h4v2l1 14-13-2-1 6-2 4-3 2-10-2v-12l15-1z"/>
		<path id="Path 515" class="s6" d="m878 549l-3-7h1l1 3 2 3v1z"/>
		<path id="Path 516" class="s29" d="m218 551l1-8h6v8z"/>
		<path id="Path 517" class="s64" d="m397 545l5-2h6l6 6v6l-13 4v-8l-4-2z"/>
		<path id="Path 518" class="s60" d="m466 547l4-4h4l-2 6h-6z"/>
		<path id="Path 519" class="s77" d="m497 544l9-1 3 2-1 13-6 1h-4l-5-2z"/>
		<path id="Path 520" class="s74" d="m598 544l4-1 4 33 1 8-1 7h-4-4l-4-6v-9l-10-9-2-16 3-2 7-5z"/>
		<path id="Path 521" class="s85" d="m606 576l-4-33h8l3 11 3 1v6 4 9l-4 3z"/>
		<path id="Path 522" class="s79" d="m635 549l7-6 4 3v5h-6z"/>
		<path id="Path 523" class="s6" d="m141 545l1-1h2l-4 4z"/>
		<path id="Path 524" class="s0" d="m138 550l3-5-1 3z"/>
		<path id="Path 525" class="s69" d="m392 553l-2-8h7v4l-1 4z"/>
		<path id="Path 526" class="s70" d="m447 547l4-2h5v6l5 2 2 8h7l1 6-7 4-8 2h-6-4l-3-12z"/>
		<path id="Path 527" class="s85" d="m582 551l-4-1v-5h3l4 4z"/>
		<path id="Path 528" class="s39" d="m176 553v-6h6l-4 6z"/>
		<path id="Path 529" class="s53" d="m234 549l11 3 5-5h3l5 12-3 7-5 2-5-5h-9v11l2 8 3 8-3 9h-7l-3-4h-9l-2-4-5-1 2-4-2-9 7-8 7-3v-7-4z"/>
		<path id="Path 530" class="s58" d="m250 568l5-2 3-7-5-12h5l1 4h3l-2 32h-11l-1-8z"/>
		<path id="Path 531" class="s72" d="m282 549l6-2h6l3 4-1 2-14-2z"/>
		<path id="Path 532" class="s20" d="m731 561l-1-14h9l3 8-2 8h-8z"/>
		<path id="Path 533" class="s86" d="m324 549l3-1 1 3h-4z"/>
		<path id="Path 534" class="s83" d="m554 551v5l-4 3v15l8 7v5l-2 3-14-2v-14l-6-3v-7l5-3v-9l5-3 2 3z"/>
		<path id="Path 535" class="s80" d="m566 558l-3-9 6-1 1 8z"/>
		<path id="Path 536" class="s65" d="m369 556l1-7 5 1v9h-5z"/>
		<path id="Path 537" class="s20" d="m396 553l1-4 4 2v8l-3 4-2-2z"/>
		<path id="Path 538" class="s77" d="m461 553l5-4h6v4l-2 8h-7z"/>
		<path id="Path 539" class="s74" d="m620 555l6-6h9l5 2 2 11v8l-5 1v4l4 2 1 6-2 4-8-4-3-10-9-8v-4z"/>
		<path id="Path 540" class="s9" d="m782 556l7-7h8l10 17-1 5-6 1-3 9h-13l-2-14z"/>
		<path id="Path 541" class="s5" d="m878 552v-3h1v3z"/>
		<path id="Path 542" class="s0" d="m133 557v-4l5-3-3 6z"/>
		<path id="Path 543" class="s21" d="m215 554l3-3h7l1 4v4h-8z"/>
		<path id="Path 544" class="s20" d="m318 554l6-3h4v6l-1 4-7 1z"/>
		<path id="Path 545" class="s83" d="m642 562l-2-11h6l8 7v3z"/>
		<path id="Path 546" class="s87" d="m654 558l6-6 6 8v5h-9l-3-4z"/>
		<path id="Path 547" class="s16" d="m878 570v-18h1l1 3v12l-1 3z"/>
		<path id="Path 548" class="s4" d="m880 555l-1-3h2v3z"/>
		<path id="Path 549" class="s37" d="m171 557l5-4h2l1 3 9 3v3l-4 2v5h-12z"/>
		<path id="Path 550" class="s65" d="m394 561l-2-8h4v8z"/>
		<path id="Path 551" class="s80" d="m414 555l9-2 4 4h9l1 4-1 12-7 2-7 1-18-1-6-8v-4l3-4z"/>
		<path id="Path 552" class="s7" d="m470 561l2-8h2l2 12-5 2z"/>
		<path id="Path 553" class="s41" d="m208 559l7-5 3 5v4h-10z"/>
		<path id="Path 554" class="s7" d="m308 559l3-5h7l2 8-3 4h-6z"/>
		<path id="Path 555" class="s79" d="m683 557l3-3 4 1-1 9h-5z"/>
		<path id="Path 556" class="s35" d="m156 559v-4l15 2 1 12h-4l-5-8z"/>
		<path id="Path 557" class="s73" d="m340 561l21-6 8 1 1 3h5 5l2 4-5 3-34 11h-5l-4-6z"/>
		<path id="Path 558" class="s83" d="m616 561v-6h4v6z"/>
		<path id="Path 559" class="s71" d="m689 564l1-9 12 2v12l-7 1-4-2z"/>
		<path id="Path 560" class="s18" d="m820 565v-10h11l3 3v8h-1z"/>
		<path id="Path 561" class="s5" d="m880 567v-12h1v12z"/>
		<path id="Path 562" class="s42" d="m133 557l2-1-1 4h-2z"/>
		<path id="Path 563" class="s39" d="m134 560l1-4h6l1 5-7 2z"/>
		<path id="Path 564" class="s73" d="m566 558l4-2 6 3-1 5h-6z"/>
		<path id="Path 565" class="s0" d="m128 566l1-7 4-2-1 3z"/>
		<path id="Path 566" class="s60" d="m327 561l1-4h9l3 4-6 10h-6z"/>
		<path id="Path 567" class="s78" d="m676 563v-6h7l1 7v1h-6z"/>
		<path id="Path 568" class="s82" d="m502 559l6-1 1 9h-7v-2z"/>
		<path id="Path 569" class="s44" d="m142 561l14-2 7 2 5 8-13 15-22 2h-6l-1-14 2-6 4-6h2l1 3z"/>
		<path id="Path 570" class="s44" d="m188 562v-3h4v4z"/>
		<path id="Path 571" class="s29" d="m192 563v-4h7 9v4l-6 8h-8z"/>
		<path id="Path 572" class="s51" d="m218 563v-4h8v7l-7 3z"/>
		<path id="Path 573" class="s59" d="m299 566l9-7 3 7v3l-8 2z"/>
		<path id="Path 574" class="s25" d="m502 565l-4-1v-5h4z"/>
		<path id="Path 575" class="s10" d="m717 565l1-6 13 2 1 2-3 6-5 2h-2v-4z"/>
		<path id="Path 576" class="s69" d="m320 562l7-1 1 10-4 1-7-6z"/>
		<path id="Path 577" class="s31" d="m394 567v-6h2l2 2v4z"/>
		<path id="Path 578" class="s75" d="m436 573l1-12h6l3 12-5 1z"/>
		<path id="Path 579" class="s79" d="m616 565v-4h4v4z"/>
		<path id="Path 580" class="s85" d="m642 562l12-1 3 4-1 8h-14v-3z"/>
		<path id="Path 581" class="s27" d="m184 569v-5l4-2 4 1 2 8-2 4h-5z"/>
		<path id="Path 582" class="s45" d="m194 571h8l6-8h10l1 6-7 8h-11l-3 4h-6v-6z"/>
		<path id="Path 583" class="s61" d="m236 574v-11h9l5 5-2 7h-6z"/>
		<path id="Path 584" class="s80" d="m377 566l5-3 5 2v3l-6 2z"/>
		<path id="Path 585" class="s74" d="m672 571v-6l4-2 2 2v8h-4z"/>
		<path id="Path 586" class="s21" d="m729 569l3-6h8l-1 8-3 2h-6z"/>
		<path id="Path 587" class="s78" d="m571 571l-2-7h6l2 3-2 5z"/>
		<path id="Path 588" class="s88" d="m684 565v-1h5l2 4-1 3h-6z"/>
		<path id="Path 589" class="s79" d="m471 567l5-2h11l10 10v7l-4 4h-5l-24-1v-14z"/>
		<path id="Path 590" class="s12" d="m478 577l5 2v3l-5 1z"/>
		<path id="Path 591" class="s89" d="m612 577l4-3v-9h4l9 8 3 10 8 4-1 8-7 3-4 1-7 2-1-6-6-2-2-3v-6z"/>
		<path id="Path 592" class="s90" d="m656 573l1-8h9l1 6v5l3 1v5l-9-1z"/>
		<path id="Path 593" class="s75" d="m678 573v-8h6v6l-3 2z"/>
		<path id="Path 594" class="s7" d="m715 569l2-4 5 2v4z"/>
		<path id="Path 595" class="s41" d="m807 566l13-1 13 1 1 5h4v6l-2 9h-7l-5-1h-3l-1-1-1-8-13-5z"/>
		<path id="Path 596" class="s58" d="m302 573l-6-1v-5l3-1 4 5z"/>
		<path id="Path 597" class="s64" d="m311 569v-3h6l7 6-2 3h-8z"/>
		<path id="Path 598" class="s87" d="m343 577l34-11 4 4 1 5h10l6 10-2 8h-10l-1 4h-9l-9-1-1-1v-7l-3-3h-7-6l-1-3h-5z"/>
		<path id="Path 599" class="s10" d="m838 571h-4l-1-5h1l5 2z"/>
		<path id="Path 600" class="s82" d="m392 568l2-1h4l6 8v10h-6l-6-10z"/>
		<path id="Path 601" class="s85" d="m511 581l-9-6v-8h7l5 3 1 5v5z"/>
		<path id="Path 602" class="s88" d="m571 571l4 1 2-5h7l10 9v9h-20l-2-2-2-6z"/>
		<path id="Path 603" class="s14" d="m766 581v-6l7-8h9l2 14z"/>
		<path id="Path 604" class="s1" d="m879 570l1-3h1v3z"/>
		<path id="Path 605" class="s78" d="m381 570l6-2h5v7h-10z"/>
		<path id="Path 606" class="s86" d="m690 571l1-3 4 2-3 1z"/>
		<path id="Path 607" class="s20" d="m838 571l1-3 7 1v8h-8z"/>
		<path id="Path 608" class="s29" d="m133 586l22-2 13-15h4 12l3 6-3 5 2 12v17l-4 12h-2l-7-2-2-1h-1l-7-3-5-2-2-2-5-1-3-2h-1l-8-5-4-3v-1l2-4z"/>
		<path id="Path 609" class="s76" d="m303 571l8-2 3 6v12h-14l2-14z"/>
		<path id="Path 610" class="s17" d="m695 570l7-1 10 2v4l-2 2h-6l-6 2h-6v-8z"/>
		<path id="Path 611" class="s30" d="m712 571l3-2 7 2h2l-2 4h-10z"/>
		<path id="Path 612" class="s46" d="m724 571l5-2 1 4v7h-8l-9 1h-1-1l-1-4 2-2h10z"/>
		<path id="Path 613" class="s15" d="m271 578l-4-2v-5h5z"/>
		<path id="Path 614" class="s87" d="m641 577l-4-2v-4l5-1v3z"/>
		<path id="Path 615" class="s23" d="m877 571l1-1h1v5l-6 3z"/>
		<path id="Path 616" class="s3" d="m671 617h1v1h-1z"/>
		<path id="Path 617" class="s65" d="m271 578l1-7 7 3-2 5z"/>
		<path id="Path 618" class="s25" d="m324 572l4-1h6l4 6v6l-2 7-4 3h-4l-2-6-3-7-1-5z"/>
		<path id="Path 619" class="s90" d="m456 573l8-2v14l-6 4h-6v-4l4-3z"/>
		<path id="Path 620" class="s70" d="m670 577l-3-1v-5h5l2 2v4z"/>
		<path id="Path 621" class="s78" d="m681 573l3-2h6 2v8h-6-3z"/>
		<path id="Path 622" class="s46" d="m736 573l3-2 4 1 1 7-1 1-7-1z"/>
		<path id="Path 623" class="s18" d="m797 581l3-9 6-1 13 5 1 8-16-1h-6z"/>
		<path id="Path 624" class="s1" d="m124 572h1v1h-1z"/>
		<path id="Path 625" class="s2" d="m124 573l1-1h1l1 14v2h-1l-2-2z"/>
		<path id="Path 626" class="s83" d="m429 575l7-2 5 1 2 9h7l2 2v4l-2 8v2h-10l-26-2v-8l-10-4v-10l18 1z"/>
		<path id="Path 627" class="s79" d="m441 574l5-1h4v10h-7z"/>
		<path id="Path 628" class="s82" d="m450 583v-10h6v9l-4 3z"/>
		<path id="Path 629" class="s88" d="m641 577l1-4h14l5 8v4l-9-2v6h-4l-6-6z"/>
		<path id="Path 630" class="s80" d="m674 577v-4h4 3l2 6h-7z"/>
		<path id="Path 631" class="s34" d="m730 580v-7h6v6z"/>
		<path id="Path 632" class="s58" d="m238 582l-2-8 6 1v6z"/>
		<path id="Path 633" class="s64" d="m277 579l2-5 5 1v12h-6z"/>
		<path id="Path 634" class="s49" d="m186 592l-2-12 3-5h5v6 6l-3 5z"/>
		<path id="Path 635" class="s72" d="m238 582l4-1v-6h6l1 8-3 7h-5z"/>
		<path id="Path 636" class="s60" d="m314 587v-12h8l1 5-3 6-4 1z"/>
		<path id="Path 637" class="s79" d="m607 584l-1-8 6 1v7z"/>
		<path id="Path 638" class="s68" d="m192 581h6l3-4h11l2 9-2 4 5 1 2 4h9l3 4-1 7h-7l-8 6h-6l-9-7-2-9v-7l-6-2z"/>
		<path id="Path 639" class="s15" d="m338 583v-6h5l1 5z"/>
		<path id="Path 640" class="s78" d="m572 583l-6-1v-4l4-1z"/>
		<path id="Path 641" class="s82" d="m670 582v-5h4l2 2-5 4z"/>
		<path id="Path 642" class="s46" d="m698 579l6-2v6h-4z"/>
		<path id="Path 643" class="s26" d="m704 583v-6h6l1 4-4 2z"/>
		<path id="Path 644" class="s21" d="m836 586l2-9h8v8 1z"/>
		<path id="Path 645" class="s17" d="m671 583l5-4h7 3v7l-4 2h-3l-9 2h-3l2-5z"/>
		<path id="Path 646" class="s26" d="m686 586v-7h6 6l2 4-1 1-12 2z"/>
		<path id="Path 647" class="s16" d="m743 580l1-1 11 2h-7z"/>
		<path id="Path 648" class="s70" d="m320 586l3-6 3 7h-5z"/>
		<path id="Path 649" class="s3" d="m748 582l-5-2 5 1z"/>
		<path id="Path 650" class="s78" d="m652 589v-6l9 2v-4l9 1 1 1-2 2h-5l-2 6-8 2h-2z"/>
		<path id="Path 651" class="s5" d="m707 583l4-2h1z"/>
		<path id="Path 652" class="s5" d="m748 582v-1h7v1z"/>
		<path id="Path 653" class="s32" d="m755 582v-1h6v1z"/>
		<path id="Path 654" class="s67" d="m761 582v-1h5 18v1z"/>
		<path id="Path 655" class="s6" d="m784 582v-1h13l1 2z"/>
		<path id="Path 656" class="s91" d="m338 583l6-1h5l1 3-2 8-12-3z"/>
		<path id="Path 657" class="s77" d="m488 586h5l4-4 4 3-3 12h-10z"/>
		<path id="Path 658" class="s65" d="m241 590h5l3-7h11l2 12v8l5 2-1 10-3 2h-3-6l-3-8h-10l-3 3-8-6 1-7h7z"/>
		<path id="Path 659" class="s82" d="m640 587l2-4 6 6h4v4l-13 2z"/>
		<path id="Path 660" class="s2" d="m699 584l1-1h4l-5 2z"/>
		<path id="Path 661" class="s6" d="m819 585l-15-2 16 1 1 1z"/>
		<path id="Path 662" class="s85" d="m606 591l1-7h5v6l-3 1z"/>
		<path id="Path 663" class="s24" d="m687 586l12-2v1l-12 2z"/>
		<path id="Path 664" class="s92" d="m336 590l12 3 2-8h6l2 10v8l-2 6-12 9-1 5h-7l-3-4 3-18-4-5v-3z"/>
		<path id="Path 665" class="s93" d="m358 595l-2-10h7l3 3v7z"/>
		<path id="Path 666" class="s94" d="m385 597l1-4h10l2-8h6l10 4v8l-4 2z"/>
		<path id="Path 667" class="s85" d="m458 589l6-4 24 1v11l-2 4-17 1-2 7h-10l-7-10v-2h6z"/>
		<path id="Path 668" class="s85" d="m570 613v-17l4-3v-8h20l4 6-2 16-5-2-1 6-2 1-10-1-4 4z"/>
		<path id="Path 669" class="s34" d="m662 591l2-6h5l-2 5-3 1z"/>
		<path id="Path 670" class="s4" d="m824 587l-5-2h2 3z"/>
		<path id="Path 671" class="s8" d="m824 587v-2l5 1v1z"/>
		<path id="Path 672" class="s2" d="m846 586v-1h6l-5 2z"/>
		<path id="Path 673" class="s36" d="m127 588v-2h6l4 9-2 4-2-1-5-7v-1z"/>
		<path id="Path 674" class="s64" d="m316 587l4-1 1 1 1 6h6 4v3l-13 2-3-1z"/>
		<path id="Path 675" class="s5" d="m682 588l4-2h1v1z"/>
		<path id="Path 676" class="s24" d="m829 587v-1h7 10l1 1z"/>
		<path id="Path 677" class="s48" d="m189 592l3-5 6 2v7h-6z"/>
		<path id="Path 678" class="s69" d="m272 595l6-8h6l6 4v6l-6 5v5l-6 3 1 9-3 4-10 2-3-2v-6l3-2 1-10 7-2z"/>
		<path id="Path 679" class="s69" d="m294 597l1-8 5-2h14 2v10l-4 1v3h-10-7z"/>
		<path id="Path 680" class="s78" d="m328 593h-6l-1-6h5z"/>
		<path id="Path 681" class="s5" d="m128 590l-2-2h1z"/>
		<path id="Path 682" class="s5" d="m670 590l9-2-8 2z"/>
		<path id="Path 683" class="s88" d="m450 597l2-8h6l-2 8z"/>
		<path id="Path 684" class="s87" d="m609 591l3-1 2 3-3 5z"/>
		<path id="Path 685" class="s1" d="m664 591l3-1h3 1z"/>
		<path id="Path 686" class="s5" d="m133 598l-4-2-1-5z"/>
		<path id="Path 687" class="s82" d="m596 607l2-16h4v8l5 5-5 7h-6z"/>
		<path id="Path 688" class="s90" d="m607 604l-5-5v-8h4 3l2 7 1 7z"/>
		<path id="Path 689" class="s55" d="m186 609v-17h3l3 4h6l2 9 9 7-1 1h-14l-2-4z"/>
		<path id="Path 690" class="s7" d="m611 598l3-5 6 2 1 6-7 6-2-2z"/>
		<path id="Path 691" class="s2" d="m639 595l13-2h2l-22 5z"/>
		<path id="Path 692" class="s64" d="m267 605l-5-2v-8h10l2 8z"/>
		<path id="Path 693" class="s95" d="m358 603v-8h8l1 1-3 7z"/>
		<path id="Path 694" class="s78" d="m540 601l-5-1v-5h4l1 4z"/>
		<path id="Path 695" class="s69" d="m319 598l13-2 4 5-3 18h-10l-3-3z"/>
		<path id="Path 696" class="s94" d="m358 603h6l3-7 9 1-1 9-4 5 3 16-15-1-15-1-1-2 1-5 12-9z"/>
		<path id="Path 697" class="s73" d="m284 607v-5l6-5h4l1 4-3 6z"/>
		<path id="Path 698" class="s60" d="m312 601v-3l4-1 3 1 1 18 3 3h10l3 4-2 8h-3l-19-2-9 2-2 4h-9l-6-6v-8l-7-2-1-9 6-3h8l3-6h7l-4 20 8 2 6-13z"/>
		<path id="Path 699" class="s89" d="m374 627l-3-16 4-5 1-9h9l25 2 4-2 26 2-2 28-2 18v8l-22 2-8-9v-11l-4-1-4-7h-6l-6 8h-5l-6-3z"/>
		<path id="Path 700" class="s5" d="m134 600l-1-2 2 1v1z"/>
		<path id="Path 701" class="s0" d="m628 599l4-1v5l9 4-10-3z"/>
		<path id="Path 702" class="s88" d="m438 627l2-28h10l7 10h10v11l-3 1-10 1-4 5z"/>
		<path id="Path 703" class="s88" d="m540 601v-2h4l1 3-1 1z"/>
		<path id="Path 704" class="s18" d="m621 601l7-2 3 5 10 3h1l4 2v4l-1 4 3 3-4 4-6-4h-5l-1 3h-13l-5-6v-10z"/>
		<path id="Path 705" class="s2" d="m139 603l-5-3h1z"/>
		<path id="Path 706" class="s73" d="m312 601v9l-6 13-8-2 4-20z"/>
		<path id="Path 707" class="s90" d="m544 603l1-1 7 2v5l-2 1-6-3z"/>
		<path id="Path 708" class="s2" d="m147 608l-6-1-2-4z"/>
		<path id="Path 709" class="s10" d="m602 611l5-7 5 1 2 2v10l-12 2z"/>
		<path id="Path 710" class="s78" d="m590 611l1-6 5 2v4z"/>
		<path id="Path 711" class="s10" d="m215 612l8-6h7l8 6v11l2 6v10l-2 4h-4-2l-2-2h-2l-1-1-5-2-1-6-10-2-1-9 6-2z"/>
		<path id="Path 712" class="s23" d="m227 640h1v1h-1z"/>
		<path id="Path 713" class="s85" d="m544 621l-4-3v-10l4-1 6 3-2 9z"/>
		<path id="Path 714" class="s1" d="m646 609l-4-2 9 3h-1z"/>
		<path id="Path 715" class="s21" d="m182 621l4-12h6l2 4h14l2 8 1 9v5l-5-2-10-5h-2l-6-3-5-2z"/>
		<path id="Path 716" class="s31" d="m238 612l3-3h10l3 8v4l-4 2h-12z"/>
		<path id="Path 717" class="s88" d="m550 610l2-1 12 4v14l-4 1-1 6-4 3h-3-8v-4l3-1v-7l-3-1v-3l4-2z"/>
		<path id="Path 718" class="s78" d="m646 613v-4l4 1 1 1z"/>
		<path id="Path 719" class="s3" d="m156 612l-5-2 5 1z"/>
		<path id="Path 720" class="s0" d="m651 611l-1-1h1l3 2z"/>
		<path id="Path 721" class="s2" d="m156 612v-1l2 2z"/>
		<path id="Path 722" class="s78" d="m574 615l4-4 10 1v5l6 2v4l-6 2-5-2v-7l-9 1z"/>
		<path id="Path 723" class="s18" d="m588 612l2-1h6v8h-2l-6-2z"/>
		<path id="Path 724" class="s31" d="m596 619v-8h6v8z"/>
		<path id="Path 725" class="s80" d="m646 613l5-2 3 1 13 5h4l1 1 7 4 2 2v9l-7 2h-7l-4-10-15-5-3-3z"/>
		<path id="Path 726" class="s17" d="m208 613l1-1h6l1 7-6 2z"/>
		<path id="Path 727" class="s0" d="m667 617l-13-5 9 1z"/>
		<path id="Path 728" class="s90" d="m564 627v-14h6l4 2v2 3l-4 2v5z"/>
		<path id="Path 729" class="s71" d="m574 617l9-1v7l-5 2-4-5z"/>
		<path id="Path 730" class="s63" d="m250 623l4-2v-4h6v8l4 2v4l-6 1-8-3z"/>
		<path id="Path 731" class="s60" d="m264 627l-4-2v-8h3v6l3 2z"/>
		<path id="Path 732" class="s30" d="m602 619l12-2 5 6h13l2 17-3 7h-7l-1 4h-9l-3 9-13 11h-12l-16-15h-5l-1-9 4-1 6 1h16l6 2 2-5-1-5h-7l-3-2v-6l1-6 6-2h7z"/>
		<path id="Path 733" class="s3" d="m173 620l-2-2 2 1z"/>
		<path id="Path 734" class="s5" d="m173 620v-1l7 2v2z"/>
		<path id="Path 735" class="s7" d="m276 623l3-4 7 2v8h-2-8z"/>
		<path id="Path 736" class="s7" d="m594 623v-4h2 6l-1 4z"/>
		<path id="Path 737" class="s82" d="m570 627v-5l4-2 4 5v2l-5 3h-3z"/>
		<path id="Path 738" class="s21" d="m632 623l1-3h5l6 4v15l-10 1z"/>
		<path id="Path 739" class="s10" d="m644 624l4-4 15 5 4 10v4l-19 2-4-2z"/>
		<path id="Path 740" class="s2" d="m180 623v-2h2l1 2z"/>
		<path id="Path 741" class="s85" d="m438 627h12l4-5 10-1-1 11-9 1-12 12h-6z"/>
		<path id="Path 742" class="s3" d="m681 624l-2-2 5 3z"/>
		<path id="Path 743" class="s72" d="m240 629l-2-6h12v6z"/>
		<path id="Path 744" class="s31" d="m266 625l10-2v6l-2 2h-8-2v-4z"/>
		<path id="Path 745" class="s74" d="m334 631l2-8h7l1 2v8z"/>
		<path id="Path 746" class="s7" d="m578 625l5-2 5 2-1 6-9-4z"/>
		<path id="Path 747" class="s82" d="m544 633l-2-1 2-8 3 1v7z"/>
		<path id="Path 748" class="s75" d="m681 633v-9l3 1 4 4 1 1 1 4z"/>
		<path id="Path 749" class="s71" d="m344 633v-8l15 1v6l15 13-2 10h-8l-2-6v-6l-8-2-3-8z"/>
		<path id="Path 750" class="s83" d="m359 626l15 1 1 5 6 3 1 19-5 5h-5v-4l2-10-15-13z"/>
		<path id="Path 751" class="s94" d="m381 635h5l6-8h6l4 7 4 1v11l8 9v4l-34 2-3-2 5-5z"/>
		<path id="Path 752" class="s79" d="m555 637l4-3 1-6 4-1h6v3h3l-1 5h-7l-2 3z"/>
		<path id="Path 753" class="s9" d="m573 630l5-3 9 4v6l3 2v8h-16l-2-12z"/>
		<path id="Path 754" class="s55" d="m240 639v-10h10l8 3v7l-8 2z"/>
		<path id="Path 755" class="s65" d="m274 631l2-2h8l-2 12 12 6v6h-2l-11-1-10-7-1-4z"/>
		<path id="Path 756" class="s72" d="m294 647l-12-6 2-12h2l6 6h9l1 4v8z"/>
		<path id="Path 757" class="s69" d="m301 635l2-4 9-2 19 2v9l9 3v8h-12v-7l-3-3h-7l-16-2z"/>
		<path id="Path 758" class="s9" d="m211 635v-5l10 2 1 6h-1-2l-6-3z"/>
		<path id="Path 759" class="s1" d="m690 634l-1-4 3 5z"/>
		<path id="Path 760" class="s20" d="m258 632l6-1h2v10h-2l-6-2z"/>
		<path id="Path 761" class="s86" d="m266 641v-10h8l-4 10z"/>
		<path id="Path 762" class="s77" d="m340 643l-9-3v-9h3l10 2h7l3 8v4h-2z"/>
		<path id="Path 763" class="s85" d="m508 640l1-9h10l3 5-1 4-5 3h-6z"/>
		<path id="Path 764" class="s70" d="m674 635l7-2 9 1 2 1 3 7 1 7v2h-16l-6-8z"/>
		<path id="Path 765" class="s12" d="m563 638l2-3h7l2 12-6-1z"/>
		<path id="Path 766" class="s86" d="m667 639v-4h7v8h-6z"/>
		<path id="Path 767" class="s7" d="m521 640l1-4 6 5 8-1v1l-1 10h-11v-10z"/>
		<path id="Path 768" class="s83" d="m539 639l5-2h8v10h-3l-8-2-2-4z"/>
		<path id="Path 769" class="s25" d="m552 647v-10h3l8 1 5 8-4 1h-8z"/>
		<path id="Path 770" class="s5" d="m230 643l-9-5h1l5 2 1 1h2z"/>
		<path id="Path 771" class="s21" d="m238 643l2-4 10 2-1 6-5-1-4-2h-1z"/>
		<path id="Path 772" class="s22" d="m250 641l8-2 6 2 4 12h-4-2l-13-5v-1z"/>
		<path id="Path 773" class="s63" d="m302 647v-8l16 2v8l-4 2z"/>
		<path id="Path 774" class="s10" d="m536 640l3-1v2h-3z"/>
		<path id="Path 775" class="s29" d="m590 647v-8h7l1 5-2 5z"/>
		<path id="Path 776" class="s86" d="m634 640l10-1 4 2v7l10 10v6l10 12 1 3-5 4-12 5-5 1-13-8v-6l-6-5v-5l2-12 1-6z"/>
		<path id="Path 777" class="s65" d="m648 641l19-2 1 4h6l6 8h16l-2 12-2 2-3 3-9 5-6 2-6 1-10-12v-6l-10-10z"/>
		<path id="Path 778" class="s77" d="m504 649v-7l4-2 2 3v6l-2 1z"/>
		<path id="Path 779" class="s10" d="m516 643l5-3 3 1v10l-6 2-5-4z"/>
		<path id="Path 780" class="s23" d="m230 643v-2l2 2z"/>
		<path id="Path 781" class="s55" d="m268 653l-4-12h2 4l1 4 10 7-3 6h-2l-4-2z"/>
		<path id="Path 782" class="s64" d="m318 649v-8h7l3 3v7z"/>
		<path id="Path 783" class="s88" d="m354 645v-4l8 2v6h-4z"/>
		<path id="Path 784" class="s15" d="m535 651l1-10h3l2 4 8 2-3 5-4 1z"/>
		<path id="Path 785" class="s6" d="m239 645l-5-2h4l1 1z"/>
		<path id="Path 786" class="s75" d="m340 651v-8l12 2-2 8-5 4z"/>
		<path id="Path 787" class="s75" d="m510 649v-6h6l-3 6z"/>
		<path id="Path 788" class="s0" d="m239 645v-1h1l4 2 5 1v1z"/>
		<path id="Path 789" class="s93" d="m350 653l2-8h2l4 4v4z"/>
		<path id="Path 790" class="s88" d="m436 653v-8h6v8z"/>
		<path id="Path 791" class="s86" d="m294 653v-6h8l12 4v5h-13l-1-3z"/>
		<path id="Path 792" class="s34" d="m546 652l3-5h3 4l-2 8h-6z"/>
		<path id="Path 793" class="s9" d="m546 652l2 3h6l2-8h8l1 9-4 7-7-1v3l-2 1-10-5v-8z"/>
		<path id="Path 794" class="s22" d="m623 651l1-4h7l-1 6z"/>
		<path id="Path 795" class="s7" d="m314 651l4-2 10 2h12l5 6-9 2-20-1-2-2z"/>
		<path id="Path 796" class="s83" d="m358 653v-4h4l2 6-1 3z"/>
		<path id="Path 797" class="s86" d="m492 650l10-1-2 4h-4z"/>
		<path id="Path 798" class="s18" d="m496 653h4l2-4h2l4 1-1 8h-11z"/>
		<path id="Path 799" class="s9" d="m508 650l2-1h3l5 4v9l-1 1-9 2 2-5-3-2z"/>
		<path id="Path 800" class="s4" d="m696 651v-2l1 8-3 6z"/>
		<path id="Path 801" class="s22" d="m488 652l4-2 4 3v5h-5l-3-3z"/>
		<path id="Path 802" class="s94" d="m452 653l20-2v6l-20 2z"/>
		<path id="Path 803" class="s79" d="m472 657v-6l12 1-1 3-4 3z"/>
		<path id="Path 804" class="s12" d="m518 653l6-2h11l7 2v8l-3 3 1 12v2 1l-9-4v-6l-5-2-1-2-1-4-6 1z"/>
		<path id="Path 805" class="s10" d="m611 660l3-9h9l7 2-2 12-10 2z"/>
		<path id="Path 806" class="s9" d="m278 658l3-6 11 1 2 7-2 1-13-3z"/>
		<path id="Path 807" class="s10" d="m483 655l1-3h4v3z"/>
		<path id="Path 808" class="s19" d="m269 655l-5-2h4l4 3h-2z"/>
		<path id="Path 809" class="s5" d="m269 655h1v1h-1z"/>
		<path id="Path 810" class="s25" d="m292 661l2-1-2-7h2 6l1 3-2 7h-5z"/>
		<path id="Path 811" class="s91" d="m345 657l5-4h8l5 5 2 2v10h-1-3-1l-7-1h-13-4v-10z"/>
		<path id="Path 812" class="s95" d="m414 655l22-2h6 10v6h-2-36z"/>
		<path id="Path 813" class="s79" d="m363 658l1-3h8v4l-7 1z"/>
		<path id="Path 814" class="s29" d="m479 658l4-3h5l3 3-1 7-9 3h-2l-3-1z"/>
		<path id="Path 815" class="s5" d="m276 658l-6-2h2z"/>
		<path id="Path 816" class="s9" d="m299 663l2-7h13l2 2 1 8h-3l-5-1h-3l-5-2z"/>
		<path id="Path 817" class="s17" d="m561 663l4-7h5l16 15 2 8v2l-11-4-4-2-4-4z"/>
		<path id="Path 818" class="s12" d="m452 659l20-2 7 1-3 9 3 1-2 2-5 1-4 3 11 7-4 2-8-4-5-7-8-1-5-4 1-8z"/>
		<path id="Path 819" class="s5" d="m294 663l-15-5 13 3z"/>
		<path id="Path 820" class="s12" d="m317 666l-1-8 20 1v10l-5-1h-7l-4-1z"/>
		<path id="Path 821" class="s46" d="m490 665l1-7h5 11l3 2-2 5h-6-7z"/>
		<path id="Path 822" class="s93" d="m365 660l7-1h5l3 2v5l-3 7h-2l-10-3z"/>
		<path id="Path 823" class="s91" d="m380 661l34-2h36l-1 8h-3l-16-2-3 4-17 2h-6l-15-2-9-3z"/>
		<path id="Path 824" class="s20" d="m598 671l13-11 7 7v5l-4 3 1 6-8 9-16-5-3-4v-2h8z"/>
		<path id="Path 825" class="s0" d="m518 662l6-1 1 4h-1l-1-3-6 1z"/>
		<path id="Path 826" class="s78" d="m540 676l-1-12 3-3 10 5 5 13-6 8-3-2-1-2-4-5z"/>
		<path id="Path 827" class="s7" d="m554 665v-3l7 1 8 8-1 2z"/>
		<path id="Path 828" class="s2" d="m495 665h7l-7 2z"/>
		<path id="Path 829" class="s0" d="m314 667l-5-2 5 1z"/>
		<path id="Path 830" class="s78" d="m427 669l3-4 16 2v8l-1 2h-5l-8-1z"/>
		<path id="Path 831" class="s8" d="m481 668l9-3h5v2z"/>
		<path id="Path 832" class="s8" d="m526 678l-2-13h1l1 2v8z"/>
		<path id="Path 833" class="s41" d="m552 666l2-1 14 8 1 2-1 8h-7l-4-4z"/>
		<path id="Path 834" class="s31" d="m618 667l10-2v5l6 5v6h-19l-1-6 4-3z"/>
		<path id="Path 835" class="s24" d="m314 667v-1h3l3 1h-1z"/>
		<path id="Path 836" class="s87" d="m377 673l3-7 9 3-2 5h-8z"/>
		<path id="Path 837" class="s0" d="m324 668l-5-1h1z"/>
		<path id="Path 838" class="s7" d="m446 675v-8h3l5 4v4z"/>
		<path id="Path 839" class="s82" d="m526 675v-8l5 2v6z"/>
		<path id="Path 840" class="s5" d="m340 670l-9-2 5 1h4z"/>
		<path id="Path 841" class="s5" d="m477 670l2-2h2z"/>
		<path id="Path 842" class="s67" d="m340 670v-1h13v1z"/>
		<path id="Path 843" class="s16" d="m353 670v-1l7 1z"/>
		<path id="Path 844" class="s79" d="m387 674l2-5 15 2v8l-5-1-6-1-5-1z"/>
		<path id="Path 845" class="s82" d="m410 671l17-2 5 7-2 9h-2l-7-1-5-1-4-2z"/>
		<path id="Path 846" class="s3" d="m361 670l-1 2-7-2h7z"/>
		<path id="Path 847" class="s3" d="m375 673l-11-3h1z"/>
		<path id="Path 848" class="s5" d="m472 671l5-1-5 2z"/>
		<path id="Path 849" class="s83" d="m404 679v-8h6l2 10-6-1z"/>
		<path id="Path 850" class="s65" d="m454 675v-4l8 1 5 7 8 4 4-2 3 1v5l-1 4h-6l-2-5-11-3z"/>
		<path id="Path 851" class="s8" d="m479 681l-11-7 4-3v1l2 5 8 5z"/>
		<path id="Path 852" class="s87" d="m568 673l1-2 4 4h-4z"/>
		<path id="Path 853" class="s41" d="m588 679l-2-8h12l-2 8z"/>
		<path id="Path 854" class="s2" d="m386 676l-7-2h8l1 2z"/>
		<path id="Path 855" class="s70" d="m445 677l1-2h8l8 8 5 11-6 1-10-2-2-3 1-8z"/>
		<path id="Path 856" class="s31" d="m526 678v-3h5l9 4-1 6-2 5v3h-6l-3-5z"/>
		<path id="Path 857" class="s22" d="m568 683l1-8h4l4 2 2 8z"/>
		<path id="Path 858" class="s3" d="m668 676l6-1-5 4z"/>
		<path id="Path 859" class="s5" d="m393 677l-7-1h2z"/>
		<path id="Path 860" class="s79" d="m430 685l2-9 8 1v11h-1l-6-1-3-1z"/>
		<path id="Path 861" class="s3" d="m540 678v-2l3 2z"/>
		<path id="Path 862" class="s80" d="m440 688v-11h5l5 5-1 8z"/>
		<path id="Path 863" class="s79" d="m579 685l-2-8 11 4 3 4v2h-3l-5-2-2 3h-1z"/>
		<path id="Path 864" class="s5" d="m406 680l-7-2 5 1z"/>
		<path id="Path 865" class="s31" d="m551 687l6-8 4 4h7l11 2 1 3-1 17-2 3-2 1h-3l-8-6-1-1-5-6-5-6-2-2z"/>
		<path id="Path 866" class="s3" d="m664 683l5-4 1 3z"/>
		<path id="Path 867" class="s5" d="m416 683l-10-3 6 1z"/>
		<path id="Path 868" class="s65" d="m607 690l8-9h19l13 8v1l-23 3-8 5h-5l-3-1v-1z"/>
		<path id="Path 869" class="s69" d="m467 694l-5-11 11 3 2 5-1 4h-6z"/>
		<path id="Path 870" class="s8" d="m428 686v-1h2v1z"/>
		<path id="Path 871" class="s1" d="m551 688l-3-3 3 2z"/>
		<path id="Path 872" class="s75" d="m591 687v-2l16 5 1 6h-3l-2-1-3-2-9-5z"/>
		<path id="Path 873" class="s5" d="m433 687l-5-1h2z"/>
		<path id="Path 874" class="s2" d="m481 691l1-4v10l-14-2h6 7z"/>
		<path id="Path 875" class="s0" d="m591 688l-3-1h3z"/>
		<path id="Path 876" class="s5" d="m451 693l-12-5h1l9 2z"/>
		<path id="Path 877" class="s5" d="m579 705l1-17h1z"/>
		<path id="Path 878" class="s3" d="m647 689l5-1-5 2z"/>
		<path id="Path 879" class="s70" d="m474 695l1-4h6v4z"/>
		<path id="Path 880" class="s2" d="m461 695l6-1 1 1z"/>
		<path id="Path 881" class="s3" d="m608 697l-3-1h3z"/>
		<path id="Path 882" class="s3" d="m616 698v2l-5-2z"/>
		<path id="Path 883" class="s0" d="m569 710l-5-7 8 6v1z"/>
		<path id="Path 884" class="s11" d="m575 709l2-1v2h-2z"/>
		<path id="Path 885" class="s32" d="m572 710v-1h3v1z"/>
	</g>
</svg>