<svg version="1.2" xmlns="http://www.w3.org/2000/svg" viewBox="0 0 1000 1000" width="1000" height="1000">
	<title>Lepomis_macrochirus</title>
	<style>
		.s0 { opacity: .1;fill: #cbc1bc } 
		.s1 { opacity: .6;fill: #c2b5ae } 
		.s2 { opacity: .1;fill: #f5f0ee } 
		.s3 { opacity: .7;fill: #f9f6f4 } 
		.s4 { opacity: .3;fill: #bfb2ab } 
		.s5 { fill: #634f45 } 
		.s6 { opacity: .8;fill: #ded5d0 } 
		.s7 { fill: #86674f } 
		.s8 { opacity: .6;fill: #d7ccc6 } 
		.s9 { fill: #443930 } 
		.s10 { opacity: .4;fill: #e5dcd7 } 
		.s11 { fill: #c6bab0 } 
		.s12 { fill: #684536 } 
		.s13 { fill: #775446 } 
		.s14 { opacity: .2;fill: #dfd5d0 } 
		.s15 { fill: #554942 } 
		.s16 { opacity: .4;fill: #998679 } 
		.s17 { fill: #877d72 } 
		.s18 { opacity: .5;fill: #ac9c95 } 
		.s19 { opacity: .9;fill: #826f68 } 
		.s20 { opacity: .3;fill: #f8f4f2 } 
		.s21 { fill: #b6afac } 
		.s22 { fill: #603d33 } 
		.s23 { fill: #786659 } 
		.s24 { fill: #563a2e } 
		.s25 { opacity: 1;fill: #978670 } 
		.s26 { opacity: .9;fill: #78645d } 
		.s27 { opacity: .2;fill: #a4948a } 
		.s28 { fill: #777270 } 
		.s29 { fill: #917a68 } 
		.s30 { opacity: .7;fill: #b2a29a } 
		.s31 { fill: #ab9d8b } 
		.s32 { opacity: .2;fill: #7b6056 } 
		.s33 { fill: #6d5c55 } 
		.s34 { fill: #807366 } 
		.s35 { fill: #504637 } 
		.s36 { fill: #69564b } 
		.s37 { opacity: .8;fill: #8c7a70 } 
		.s38 { fill: #625d56 } 
		.s39 { fill: #c0b6ad } 
		.s40 { fill: #575352 } 
		.s41 { opacity: .8;fill: #b2a39b } 
		.s42 { fill: #49403b } 
		.s43 { fill: #b3a898 } 
		.s44 { fill: #594e47 } 
		.s45 { fill: #958b82 } 
		.s46 { fill: #9d958a } 
		.s47 { fill: #734b3f } 
		.s48 { fill: #c7c1bf } 
		.s49 { fill: #6d6861 } 
		.s50 { fill: #432c21 } 
		.s51 { fill: #4c3427 } 
		.s52 { fill: #393a32 } 
		.s53 { fill: #252623 } 
		.s54 { fill: #272c2b } 
		.s55 { fill: #14120d } 
		.s56 { fill: #383125 } 
		.s57 { fill: #1b1815 } 
		.s58 { fill: #20201a } 
		.s59 { fill: #271f14 } 
		.s60 { fill: #34271d } 
		.s61 { fill: #2c251a } 
		.s62 { fill: #2b3334 } 
		.s63 { fill: #343229 } 
		.s64 { fill: #3d4138 } 
		.s65 { fill: #474a44 } 
		.s66 { opacity: .5;fill: #ede6e2 } 
		.s67 { fill: #78623a } 
		.s68 { fill: #878282 } 
		.s69 { fill: #949193 } 
		.s70 { opacity: .2;fill: #583a30 } 
		.s71 { fill: #9c999d } 
		.s72 { fill: #aba5a5 } 
		.s73 { fill: #968059 } 
		.s74 { fill: #a59d98 } 
		.s75 { fill: #bab6ba } 
		.s76 { fill: #a79274 } 
		.s77 { fill: #bfb29d } 
		.s78 { fill: #b6a381 } 
		.s79 { fill: #765624 } 
		.s80 { opacity: 1;fill: #8b601d } 
		.s81 { opacity: 1;fill: #96712f } 
		.s82 { fill: #ae8c4d } 
		.s83 { fill: #b9a274 } 
		.s84 { opacity: 1;fill: #a27d41 } 
		.s85 { fill: #9c6912 } 
		.s86 { fill: #b89b5f } 
		.s87 { opacity: 1;fill: #d7cdc8 } 
		.s88 { opacity: 1;fill: #ebe3df } 
		.s89 { fill: #a67b29 } 
		.s90 { fill: #c0912a } 
		.s91 { fill: #b48421 } 
		.s92 { fill: #bfad8d } 
		.s93 { fill: #a97611 } 
		.s94 { fill: #a89069 } 
		.s95 { opacity: .5;fill: #77615b } 
	</style>
	<g id="Background">
		<path id="Path 0" class="s0" d="m309 354h1v1h-1z"/>
		<path id="Path 1" class="s1" d="m403 262v-2h4v4l-4-1z"/>
		<path id="Path 2" class="s2" d="m444 262v-2h2l-1 2z"/>
		<path id="Path 3" class="s3" d="m445 262l1-2h2l1 1v1z"/>
		<path id="Path 4" class="s2" d="m448 260h1v1h-1z"/>
		<path id="Path 5" class="s0" d="m544 302h1v1h-1z"/>
		<path id="Path 6" class="s4" d="m398 266l1-4h4v1l-3 3z"/>
		<path id="Path 7" class="s1" d="m433 273l1-4 10-7h1 4v3 4l-1-6h-4l-9 11-2 1z"/>
		<path id="Path 8" class="s5" d="m400 266l3-3 4 1v8h-5l4 3v12l-6 3 1 12-3 3v7h-5v-3l-5-2v-9l2-10 3-8 4-10z"/>
		<path id="Path 9" class="s5" d="m435 274l9-11h4l1 6v1 6h-11z"/>
		<path id="Path 10" class="s2" d="m449 269v-4l2 5h-2z"/>
		<path id="Path 11" class="s6" d="m396 270l2-4h2l-3 4z"/>
		<path id="Path 12" class="s4" d="m391 280l5-10h1l-4 10z"/>
		<path id="Path 13" class="s6" d="m468 278l2-5 8-3-4 4-5 4z"/>
		<path id="Path 14" class="s7" d="m474 274l4-4h3l2 4h-7z"/>
		<path id="Path 15" class="s8" d="m483 274l-2-4 5 2v4h-1z"/>
		<path id="Path 16" class="s9" d="m406 275l-4-3h5v1 1z"/>
		<path id="Path 17" class="s2" d="m407 274v-1l2 14z"/>
		<path id="Path 18" class="s10" d="m418 288l15-15v2 1l-8 10-7 3z"/>
		<path id="Path 19" class="s11" d="m406 275l1-1 2 13h2v2l-5-2z"/>
		<path id="Path 20" class="s9" d="m433 275l2-1 3 2-3 4-2-4z"/>
		<path id="Path 21" class="s12" d="m469 278l5-4h2v6l-6 2-1-2z"/>
		<path id="Path 22" class="s13" d="m470 282l6-2v-6h7l2 2v6 1l-1 6-1 1h-13z"/>
		<path id="Path 23" class="s14" d="m509 277l7-2v3l-2-1z"/>
		<path id="Path 24" class="s15" d="m418 289l7-3 8-10 2 4-1 16-5 4-1 10h-6v-3l-6-3 2-14z"/>
		<path id="Path 25" class="s13" d="m435 280l3-4h11v7l1 3v3 15h-6l-3-8h-7z"/>
		<path id="Path 26" class="s16" d="m485 282v-6h1v6z"/>
		<path id="Path 27" class="s17" d="m509 277h5v3h-8z"/>
		<path id="Path 28" class="s4" d="m489 290l9-5 5-7 6-1-3 3-7 6-8 5z"/>
		<path id="Path 29" class="s18" d="m514 280v-3l2 1v14h-2z"/>
		<path id="Path 30" class="s19" d="m466 279l2-1h1v2h-2z"/>
		<path id="Path 31" class="s4" d="m458 287l8-8 1 1-9 8z"/>
		<path id="Path 32" class="s18" d="m382 285h9v-5h2l-3 8-8-2z"/>
		<path id="Path 33" class="s5" d="m458 288l9-8h2l1 2v8l-6 9v7h-12l-2-2v-15z"/>
		<path id="Path 34" class="s13" d="m499 286l7-6h8v12l2 4-2 12-14 2-3-4z"/>
		<path id="Path 35" class="s20" d="m485 283v-1h1l1 4z"/>
		<path id="Path 36" class="s14" d="m364 287l6-4 12 2-12 1z"/>
		<path id="Path 37" class="s14" d="m450 286l-1-3 3 4z"/>
		<path id="Path 38" class="s21" d="m484 289l1-6 2 3v2l2 2 2 1-3 2z"/>
		<path id="Path 39" class="s11" d="m370 286l12-1v1h-2z"/>
		<path id="Path 40" class="s22" d="m364 287l6-1h10v11l-8 1-10-2v-6z"/>
		<path id="Path 41" class="s12" d="m380 297v-11h2l8 2-2 10z"/>
		<path id="Path 42" class="s23" d="m450 289v-3l2 1h1l5 1z"/>
		<path id="Path 43" class="s24" d="m491 291l8-5-2 20-3 1-14-3 5-10 3-1z"/>
		<path id="Path 44" class="s14" d="m359 293v-4l5-2-2 3-2 3z"/>
		<path id="Path 45" class="s23" d="m401 302l-1-12 6-3 5 2 7 1-2 14h-2z"/>
		<path id="Path 46" class="s18" d="m411 289v-2l7 1v1 1z"/>
		<path id="Path 47" class="s14" d="m458 288l-5-1h5z"/>
		<path id="Path 48" class="s4" d="m523 288l9 1h-8z"/>
		<path id="Path 49" class="s8" d="m516 292l7-4 1 1v1l-3 3-5 3-2-4z"/>
		<path id="Path 50" class="s25" d="m524 289h8v1 2l-8-2z"/>
		<path id="Path 51" class="s7" d="m483 290l1-1 4 4-3 1z"/>
		<path id="Path 52" class="s26" d="m360 293l2-3v6l-2 1z"/>
		<path id="Path 53" class="s23" d="m464 306v-7l6-9h13l2 4-5 10-14 12-2-4z"/>
		<path id="Path 54" class="s24" d="m521 293l3-3 8 2v6 2h-6z"/>
		<path id="Path 55" class="s3" d="m532 292v-2l2 8h-2z"/>
		<path id="Path 56" class="s0" d="m341 296v-3l6 2z"/>
		<path id="Path 57" class="s27" d="m359 300v-7h1v4 3z"/>
		<path id="Path 58" class="s22" d="m516 296l5-3 5 7v5l-4 3h-8z"/>
		<path id="Path 59" class="s3" d="m558 295l4-2-1 5-3-2z"/>
		<path id="Path 60" class="s12" d="m341 296l6-1 3 7 6 14v2l-7 1-7-1-2-8v-2-7l1-4z"/>
		<path id="Path 61" class="s14" d="m350 302l-3-7 4 2v5z"/>
		<path id="Path 62" class="s8" d="m553 298l1-3h4v1l-2 2h-2z"/>
		<path id="Path 63" class="s24" d="m360 297l2-1 10 2v10 2l-12 2v-12z"/>
		<path id="Path 64" class="s28" d="m428 310l1-10 5-4h7l3 8v11l-6 4-4 13h-2-4z"/>
		<path id="Path 65" class="s29" d="m556 298l2-2 3 2-2 3h-1z"/>
		<path id="Path 66" class="s0" d="m339 301l2-4-1 4z"/>
		<path id="Path 67" class="s13" d="m372 298l8-1 8 1v9l-2 1h-14z"/>
		<path id="Path 68" class="s30" d="m545 302l8-4h1l-2 3-11 6v-2l3-2z"/>
		<path id="Path 69" class="s13" d="m552 301l2-3h2l2 3-2 3h-2z"/>
		<path id="Path 70" class="s8" d="m602 300l15-2v2l-15 1z"/>
		<path id="Path 71" class="s6" d="m358 314l1-14h1v12 2h-1z"/>
		<path id="Path 72" class="s7" d="m526 305v-5h6v2 4z"/>
		<path id="Path 73" class="s3" d="m599 302l3-2v1 1z"/>
		<path id="Path 74" class="s31" d="m602 301l15-1 5 2v1l-17 7-3-8z"/>
		<path id="Path 75" class="s32" d="m339 308v-7h1v7z"/>
		<path id="Path 76" class="s22" d="m541 307l11-6 2 3v6l-4 2v4h-7l-3 3v7l5 2v6l-5 6-8 1h-4l-2-5v-7l-4-3v-11l11-2 2-3z"/>
		<path id="Path 77" class="s14" d="m556 304l2-3h1v4l-3 1z"/>
		<path id="Path 78" class="s8" d="m356 316l-6-14h1l7 12h1z"/>
		<path id="Path 79" class="s33" d="m398 312v-7l3-3 13 2v8l-2 8h-12z"/>
		<path id="Path 80" class="s6" d="m532 306v-4l2 5 7-2v2l-6 3z"/>
		<path id="Path 81" class="s14" d="m573 303l17 2-1 1h-7l-9-2z"/>
		<path id="Path 82" class="s14" d="m591 305l8-3-4 3z"/>
		<path id="Path 83" class="s34" d="m595 305l4-3h3l3 8-2 2-5-2z"/>
		<path id="Path 84" class="s7" d="m622 303v-1h12l12 7 3 3-5 6-14 2-6-7z"/>
		<path id="Path 85" class="s14" d="m646 309l-12-7 12 6z"/>
		<path id="Path 86" class="s4" d="m568 307l5-4v1z"/>
		<path id="Path 87" class="s13" d="m605 310l17-7 2 10-6 2 1 11v3l-3 1v4h-8l-6-13-10-1-5-12 2-2 1-1h1 4l3 5v4l5-2z"/>
		<path id="Path 88" class="s35" d="m414 312v-8h2l6 3v3l-4 2z"/>
		<path id="Path 89" class="s36" d="m444 315v-11h6l2 2v6l-3 4z"/>
		<path id="Path 90" class="s15" d="m466 316l14-12 14 3 3 5 1 20h-4l-4-4h-9l-3-4-14 4h-2v-8z"/>
		<path id="Path 91" class="s37" d="m554 310v-6h2v2 2 2z"/>
		<path id="Path 92" class="s12" d="m568 307l5-3 9 2 5 2 5 12-4 16-14 2-2-10-1-7h-7l-2-3 1-8z"/>
		<path id="Path 93" class="s13" d="m522 308l4-3 6 1 3 4-2 3-11 2z"/>
		<path id="Path 94" class="s38" d="m452 312v-6h12v6z"/>
		<path id="Path 95" class="s33" d="m494 307l3-1 3 4-3 2z"/>
		<path id="Path 96" class="s39" d="m587 308l-5-2h7z"/>
		<path id="Path 97" class="s40" d="m386 308l2-1 5 2v3l-7 2z"/>
		<path id="Path 98" class="s4" d="m556 308l12-1-5 3h-7z"/>
		<path id="Path 99" class="s27" d="m339 316v-8h1v2 6z"/>
		<path id="Path 100" class="s33" d="m372 310v-2h14v6 14l-10 4-2-10z"/>
		<path id="Path 101" class="s5" d="m500 310l14-2h8v7 11l4 3v7l-6 4-16-2-6-6-1-20z"/>
		<path id="Path 102" class="s0" d="m646 309v-1l5 4h-2z"/>
		<path id="Path 103" class="s41" d="m340 316v-6l2 8v5h-2z"/>
		<path id="Path 104" class="s42" d="m360 312l12-2 2 12-14 2v-4-6z"/>
		<path id="Path 105" class="s33" d="m418 312l4-2h6v22l-8 5v4l-6-2v-18l4-1z"/>
		<path id="Path 106" class="s13" d="m550 316v-4l4-2h2 7l-1 8-6 2h-6z"/>
		<path id="Path 107" class="s43" d="m603 312l-5 2v-4z"/>
		<path id="Path 108" class="s2" d="m331 314l3-2 2 4h-1l-3-2z"/>
		<path id="Path 109" class="s38" d="m386 314l7-2h5l2 8-2 10-12-2z"/>
		<path id="Path 110" class="s44" d="m412 320l2-8h4v8l-4 1z"/>
		<path id="Path 111" class="s33" d="m449 316l3-4h12l2 4-4 4v8h-6z"/>
		<path id="Path 112" class="s13" d="m630 320l14-2 5-6h2l3 2v8l-8 5v3h-15l-1-4z"/>
		<path id="Path 113" class="s14" d="m654 314l-3-2 6 3z"/>
		<path id="Path 114" class="s45" d="m332 314l3 2 2 3v1l1 4-4-3v10h-1l-1-7z"/>
		<path id="Path 115" class="s23" d="m619 326l-1-11 6-2 6 7v6z"/>
		<path id="Path 116" class="s27" d="m331 324v-10h1v10z"/>
		<path id="Path 117" class="s46" d="m356 316l3-2h1v6l-4-2z"/>
		<path id="Path 118" class="s7" d="m654 322v-8l3 1 9 6 2 2z"/>
		<path id="Path 119" class="s38" d="m434 332l4-13 6-4 5 1 7 12v10l-4 7h-7l-3-3-3-8z"/>
		<path id="Path 120" class="s14" d="m666 321l-9-6 9 5z"/>
		<path id="Path 121" class="s0" d="m337 319l-2-3h1z"/>
		<path id="Path 122" class="s0" d="m337 320l2-4h1v7l-2 1z"/>
		<path id="Path 123" class="s47" d="m545 328l-5-2v-7l3-3h7v4 6z"/>
		<path id="Path 124" class="s9" d="m342 323v-5l7 1-2 6h-5z"/>
		<path id="Path 125" class="s44" d="m349 319l7-1 4 2v4 11l6 6v1h-8-23v-4l3-1v-5l1-4 2 1 1-4h5z"/>
		<path id="Path 126" class="s5" d="m556 320l6-2 2 3v7l-7 1-1-3z"/>
		<path id="Path 127" class="s5" d="m398 330l2-10h12l2 1v18l-4 3h-10-2z"/>
		<path id="Path 128" class="s24" d="m550 326v-6h6v6z"/>
		<path id="Path 129" class="s22" d="m588 336l4-16 10 1 6 13v3l-10 1z"/>
		<path id="Path 130" class="s0" d="m666 321v-1l8 3 2 4-8-4z"/>
		<path id="Path 131" class="s24" d="m334 331v-10l4 3 1 4-1 4z"/>
		<path id="Path 132" class="s22" d="m564 328v-7h7l1 7z"/>
		<path id="Path 133" class="s15" d="m360 324l14-2 2 10v8l-10 1-6-6z"/>
		<path id="Path 134" class="s47" d="m646 330v-3l8-5 14 1 2 9 7-3 5 3 5 5 2 2 6 11h-15l-8-1-2-5-17 1-3-3v-9z"/>
		<path id="Path 135" class="s48" d="m338 324l2-1h2v2l-1 4-2-1z"/>
		<path id="Path 136" class="s13" d="m677 329l-7 3-2-9 8 4z"/>
		<path id="Path 137" class="s2" d="m333 332l-2-8h1l1 7z"/>
		<path id="Path 138" class="s40" d="m464 328l14-4 3 4-4 5-1 13h-9l-3-8z"/>
		<path id="Path 139" class="s15" d="m545 328l5-2h6l1 3v7l-7 6v7l-4 1-5-1-1-9 5-6z"/>
		<path id="Path 140" class="s47" d="m619 329v-3h11l1 4-3 6-8-2z"/>
		<path id="Path 141" class="s0" d="m677 329l-1-2 6 5z"/>
		<path id="Path 142" class="s40" d="m376 332l10-4 12 2v12h-15l-7-2z"/>
		<path id="Path 143" class="s42" d="m456 338v-10h6 2v10z"/>
		<path id="Path 144" class="s42" d="m476 346l1-13 4-5h9l4 4v12l3 3-4 5-7-2-4-4z"/>
		<path id="Path 145" class="s24" d="m557 329l7-1h8l2 10v6l-6 5-1 9h-1l-10-2v-6l6-7v-5l-5-2z"/>
		<path id="Path 146" class="s5" d="m616 334v-4l3-1 1 5z"/>
		<path id="Path 147" class="s12" d="m628 336l3-6h15l4 3v9l3 3 17-1 2 5-4 4v7l-17 1-3-8-7-1-13-10z"/>
		<path id="Path 148" class="s15" d="m333 332v-1h1l4 1v5l-3 1h-1l-1-3z"/>
		<path id="Path 149" class="s49" d="m420 341v-4l8-5h4l-2 10-1 1-7 1z"/>
		<path id="Path 150" class="s40" d="m430 342l2-10h2l5 2 3 8z"/>
		<path id="Path 151" class="s38" d="m497 347l-3-3v-12h4l6 6v5z"/>
		<path id="Path 152" class="s24" d="m608 337v-3h8 4l8 2v6l13 10 7 1 3 8 17-1 10 8v8l-6 8h-8l-8-10-1-7-4 3h-13l-14-11-2-11-6 2h-6l-2-8z"/>
		<path id="Path 153" class="s16" d="m333 341v-6l1 3v3z"/>
		<path id="Path 154" class="s38" d="m520 340l6-4 2 5-4 4-4-1z"/>
		<path id="Path 155" class="s50" d="m550 349v-7l7-6 5 2v5l-6 7z"/>
		<path id="Path 156" class="s50" d="m574 338l14-2 2 10 8-4h10l2 8h6l4 28h-6l-15-1-7-9h-7l-1-4h-7l-10-6 1-9 6-5z"/>
		<path id="Path 157" class="s24" d="m598 342l-8 4-2-10 10 2z"/>
		<path id="Path 158" class="s51" d="m598 338l10-1v5h-10z"/>
		<path id="Path 159" class="s27" d="m689 339l-2-2 2 1z"/>
		<path id="Path 160" class="s17" d="m334 341v-3h1v4 4h-1z"/>
		<path id="Path 161" class="s52" d="m452 345l4-7h8l3 8-1 2h-10z"/>
		<path id="Path 162" class="s9" d="m504 343v-5l16 2v4l4 1v8l-4 3h-5l-1-4h-4l-1-7z"/>
		<path id="Path 163" class="s8" d="m689 339v-1l8 10-3 15h-1v-2l2-11z"/>
		<path id="Path 164" class="s53" d="m410 342l4-3 6 2 2 3v2h-11z"/>
		<path id="Path 165" class="s54" d="m366 341l10-1 7 2v5l-7 6-8-3-2-8z"/>
		<path id="Path 166" class="s9" d="m532 341l8-1 1 9 5 1v8l-4 2-8-4z"/>
		<path id="Path 167" class="s14" d="m333 347v-6h1v5z"/>
		<path id="Path 168" class="s55" d="m383 342h15 2l-2 14-1 18-1 4-15-6v-5l-5-3v-11l7-6z"/>
		<path id="Path 169" class="s56" d="m524 345l4-4h4l2 15-12 4h-2v-4l4-3z"/>
		<path id="Path 170" class="s54" d="m335 346v-4h23l4 26-6 2-6-10h-8l-5-2-2-9z"/>
		<path id="Path 171" class="s53" d="m362 368l-4-26h8l2 8 8 3v11l5 3v5l15 6v16 8h-16v-26l-8-1z"/>
		<path id="Path 172" class="s57" d="m398 356l2-14h10l1 4h11l-2 9-13-3-1 4z"/>
		<path id="Path 173" class="s58" d="m429 343l1-1h12l3 3-1 3h-12z"/>
		<path id="Path 174" class="s55" d="m422 344l7-1 3 5h12l1-3h7l4 3h10l2 8-4 3v9l2 2v8h-6-6l-12-10h-19l-3-3v-10l2-9z"/>
		<path id="Path 175" class="s56" d="m497 347l7-4 5 2 1 7v6l-9 1-2-4h-6v-3z"/>
		<path id="Path 176" class="s37" d="m333 347l1-1h1v3h-4z"/>
		<path id="Path 177" class="s59" d="m466 348l1-2h9 6l4 4v6 14l4 4v10l8 4v10l-12-1-4-4v-9l-6-6-1-7-9-1-2-2v-9l4-3z"/>
		<path id="Path 178" class="s30" d="m316 352l9-4 5 1-11 5h-4z"/>
		<path id="Path 179" class="s51" d="m616 350l6-2 2 11 14 11-2 16-1 5h-11l-4-13z"/>
		<path id="Path 180" class="s53" d="m319 354l11-5h1 4l2 9 5 2v11l4 3v12h-6l-8-14-1-12-9-1z"/>
		<path id="Path 181" class="s60" d="m546 350l4-1 6 1v6l-10 2z"/>
		<path id="Path 182" class="s22" d="m668 360v-7l4-4 8 1 2 10 11 1v2l-3 13-1 3-1 1-2-4h-8v-8z"/>
		<path id="Path 183" class="s58" d="m486 356v-6l7 2v3z"/>
		<path id="Path 184" class="s12" d="m693 361l-11-1-2-10h15z"/>
		<path id="Path 185" class="s0" d="m310 354l6-2-1 2h-1z"/>
		<path id="Path 186" class="s58" d="m406 356l1-4 13 3v10l3 3h19l12 10v18l4 6-4 2-16-12h-12v-4l-10-6-2-15-7-6z"/>
		<path id="Path 187" class="s52" d="m510 358v-6h4l1 4-1 2z"/>
		<path id="Path 188" class="s30" d="m309 355l1-1h4l-14 5 1-2h3l3-2z"/>
		<path id="Path 189" class="s54" d="m300 359l14-5h1 4l3 5 9 1 1 12h-13l-9 10h-8l-3-6-16 2-4-4 2-3 18-11z"/>
		<path id="Path 190" class="s55" d="m486 356l7-1h6l2 4 9-1h4v2 7l-4 4v5h-10l-10-2-4-4z"/>
		<path id="Path 191" class="s59" d="m397 374l1-18h8l1 5 7 6 2 15-9-8z"/>
		<path id="Path 192" class="s61" d="m514 358l1-2h5v4h-6z"/>
		<path id="Path 193" class="s59" d="m522 360l12-4 8 4v12l-8 1v9l4 2v4l-4 1v11l-8-1-2-3h-8v-4l-4-2-2-14v-5l4-4 7-2z"/>
		<path id="Path 194" class="s56" d="m546 358l10-2 10 2-2 18h-8l-12-2-2-2v-12z"/>
		<path id="Path 195" class="s0" d="m296 359l5-2-1 2h-1z"/>
		<path id="Path 196" class="s9" d="m564 376l2-18h1l10 6 1 6 7-2h7l7 9-8 1-4 6-12-2-3-5z"/>
		<path id="Path 197" class="s8" d="m281 370l15-11h3v1l-18 11z"/>
		<path id="Path 198" class="s30" d="m299 359h1v1h-1z"/>
		<path id="Path 199" class="s62" d="m346 374l-4-3v-11h8l6 10v4z"/>
		<path id="Path 200" class="s57" d="m514 367v-7h6 2l-1 5z"/>
		<path id="Path 201" class="s1" d="m690 376l3-13h1l-2 13z"/>
		<path id="Path 202" class="s60" d="m585 368l-7 2-1-6h7z"/>
		<path id="Path 203" class="s51" d="m651 370l4-3 1 7h-4z"/>
		<path id="Path 204" class="s58" d="m356 370l6-2 10 7v9h-12l-4-4v-6z"/>
		<path id="Path 205" class="s18" d="m277 372l4-2v1l-2 3h-2z"/>
		<path id="Path 206" class="s61" d="m466 378v-8l9 1 1 7z"/>
		<path id="Path 207" class="s50" d="m636 386l2-16h13l1 4h4l8 10-2 11 2 13h-3l-5-2v-6l-8-8h-5z"/>
		<path id="Path 208" class="s0" d="m271 377l6-5v2l-4 3z"/>
		<path id="Path 209" class="s62" d="m279 374l4 4 16-2 3 6h8l9-10h13l8 14-2 16-32 2-4-6-16 2-8 6v11l4 3v6l-8 7-5-11h-9l-1-8-9-4v-10l-1-4 10-9 3-3h1l7-5 3-2 4-3z"/>
		<path id="Path 210" class="s58" d="m538 384l-4-2v-9l8-1 2 2v10z"/>
		<path id="Path 211" class="s63" d="m346 386v-12h10v6l4 4-2 6z"/>
		<path id="Path 212" class="s56" d="m396 378l1-4h10l9 8 10 6v4 10h-6l-12-2-3-6h-9z"/>
		<path id="Path 213" class="s58" d="m498 388l-8-4v-10l10 2z"/>
		<path id="Path 214" class="s59" d="m544 384v-10l12 2v12z"/>
		<path id="Path 215" class="s61" d="m372 384v-9l8 1v26l-5 2z"/>
		<path id="Path 216" class="s61" d="m498 388l2-12h10l2 14-2 8h-12z"/>
		<path id="Path 217" class="s57" d="m556 388v-12h8l8 1 3 5-3 8h-15z"/>
		<path id="Path 218" class="s51" d="m664 384h8l6-8h8l2 4-4 9-9 15-2 2-4 4-5-2-2-13z"/>
		<path id="Path 219" class="s4" d="m689 379l1-3h2l-1 3z"/>
		<path id="Path 220" class="s0" d="m266 380l4-3v2z"/>
		<path id="Path 221" class="s41" d="m270 379v-2h1 2z"/>
		<path id="Path 222" class="s60" d="m587 384l4-6 8-1 15 1v6l-4 2v8l-2 8h-4l-4-8-7-2z"/>
		<path id="Path 223" class="s59" d="m458 402l-4-6v-18h6l4 14-2 10z"/>
		<path id="Path 224" class="s56" d="m464 392l-4-14h6 10l6 6v9l4 4 12 1h12 6v7l3 3 7-2 10 2 12 3 8 7 6-4h4l6 8h4l1-6-3-3v-19l14 4 11 8v4l-3 1v9l2 6v4 4 12l13 2 3 4v4 10l9 8v5l-5 3-12-3v-8l-3-3h-15v-6l-2-8h-8l-5-4h-7l-10 8h-6v-6l-5-1-10-1-9 4-16-2-2 8h-8l-16-2-5-6v-3l5-7v-6l2-2 14-4 4-4v-6l-4-1-8-11h-10l-11-16z"/>
		<path id="Path 225" class="s56" d="m614 384v-6h6l4 13v9l-4 6h-6l-6-4 2-8 8-4v-4z"/>
		<path id="Path 226" class="s41" d="m266 380l4-1-7 5z"/>
		<path id="Path 227" class="s14" d="m688 380l1-1h2l-7 11v-1z"/>
		<path id="Path 228" class="s55" d="m572 390l3-8 12 2 6 8 7 2 4 8-5 4-11-8-14-4z"/>
		<path id="Path 229" class="s6" d="m258 387l2-4 2 1-3 3z"/>
		<path id="Path 230" class="s53" d="m358 390l2-6h12l3 20-7 4-6-4z"/>
		<path id="Path 231" class="s56" d="m538 388v-4h6l12 4 1 2 1 16h-9l-1-14z"/>
		<path id="Path 232" class="s9" d="m610 394v-8l4-2 4 2v4z"/>
		<path id="Path 233" class="s52" d="m338 402l2-16h6l12 4 4 14 6 4v8h-9l-1-6-5-2-1-4z"/>
		<path id="Path 234" class="s9" d="m624 391h11l1-5 7 6h5l8 8v6l5 2 2 10-6 8h-3v-7l-7-7-11-2-3-10h-9z"/>
		<path id="Path 235" class="s1" d="m242 398l11-10 5-1h1l-10 9-4 3-3 1z"/>
		<path id="Path 236" class="s35" d="m534 400v-11l4-1 10 4 1 14-1 5-12-3z"/>
		<path id="Path 237" class="s4" d="m675 404l9-15v1l-8 14z"/>
		<path id="Path 238" class="s9" d="m510 398l2-8 4 2v4 2z"/>
		<path id="Path 239" class="s61" d="m558 406l-1-16h15l2 4v19l-8 1h-4z"/>
		<path id="Path 240" class="s63" d="m426 402v-10h12l16 12 3 19 5 1v6l2 18h-9l-4-6h-8l-2-4h-4v-4l-7-8v-4l8-3v-7l-6-1z"/>
		<path id="Path 241" class="s9" d="m462 402l2-10h7l11 16v15l4 3v8l-2 2h-8l-4-6h-10v-6l2-6z"/>
		<path id="Path 242" class="s64" d="m396 402v-8h9l3 6 12 2v15l-2 7 2 2h10l7 8v4 2h-6l-10 6-2-10-4-1-7-13-10-1z"/>
		<path id="Path 243" class="s53" d="m245 399l4-3 1 4z"/>
		<path id="Path 244" class="s60" d="m516 398v-2h8l2 3v7l-7 2-3-3z"/>
		<path id="Path 245" class="s10" d="m226 410l16-12v2l-6 5-7 4z"/>
		<path id="Path 246" class="s64" d="m282 426v-6l-4-3v-11l8-6 16-2 4 6 32-2 14 2 1 4-1 12-4 3v5h-7l-2 6h-8l-7-15-6-5h-11l-2-4-11 2-6 14z"/>
		<path id="Path 247" class="s54" d="m242 400l3-1 5 1v10h-10l-4-5z"/>
		<path id="Path 248" class="s15" d="m526 406v-7l8 1 2 8z"/>
		<path id="Path 249" class="s59" d="m614 406h6l4-6h9l3 10-4 1v11l5 1 5 7h6l1 9v7 1l-1 2 4 2 12 6v5l-3 1v5h-13l-4-3v-7l-9-8h-11v-8l-4-23-6-5z"/>
		<path id="Path 250" class="s63" d="m375 404l5-2h16l2 19-6 7h-6l-16 2-2-14v-8z"/>
		<path id="Path 251" class="s53" d="m420 417v-15h6l6 9 6 1v7l-8 3z"/>
		<path id="Path 252" class="s56" d="m454 404l4-2h4l2 16-2 6-5-1z"/>
		<path id="Path 253" class="s61" d="m599 406l5-4h4l6 4v8h-5l-1 4-6-1v-6l-3-1z"/>
		<path id="Path 254" class="s2" d="m673 406l2-2h1l-2 3z"/>
		<path id="Path 255" class="s53" d="m229 409l7-4 4 5h10l9 4 1 8-10 7-2 5h-13l-11-8-2-10z"/>
		<path id="Path 256" class="s53" d="m548 411l1-5h9l4 8-6 4z"/>
		<path id="Path 257" class="s10" d="m669 410l4-4 1 1-7 8h-1z"/>
		<path id="Path 258" class="s44" d="m352 420l1-12 5 2 1 6-1 4z"/>
		<path id="Path 259" class="s61" d="m486 434v-8l-4-3v-15h10l8 11 4 1v6l-4 4z"/>
		<path id="Path 260" class="s24" d="m663 418l-2-10h3l5 2-3 5-1 2z"/>
		<path id="Path 261" class="s6" d="m226 410l3-1-7 7-6 4h-2z"/>
		<path id="Path 262" class="s65" d="m288 426l6-14 11-2 2 4h11l6 5 7 15h8l6 5-2 14h-4l-4-5h-16l-2 9-1 17-2 10-13-6v-8l-5-6h-4l-16 2-4-1v-6l9-9h7l6-6v-6l-6-1z"/>
		<path id="Path 263" class="s59" d="m596 420v-9l3-1 3 1v6l-3 3z"/>
		<path id="Path 264" class="s56" d="m648 430h-6l-5-7-5-1v-11l4-1 11 2 7 7v7z"/>
		<path id="Path 265" class="s35" d="m566 414l8-1 3 3-1 6h-4z"/>
		<path id="Path 266" class="s56" d="m608 418l1-4h5l6 5 4 23h-9l-1-8-4-2z"/>
		<path id="Path 267" class="s0" d="m665 417l1-2h1l-1 3h-1z"/>
		<path id="Path 268" class="s58" d="m216 420l6-4 2 10-8 1-4-1z"/>
		<path id="Path 269" class="s54" d="m358 420l1-4h9l2 14-4 4-4-4v-8z"/>
		<path id="Path 270" class="s61" d="m430 426h-10l-2-2 2-7 10 5z"/>
		<path id="Path 271" class="s35" d="m599 420l3-3 6 1 2 14h-9l-3-2v-4z"/>
		<path id="Path 272" class="s66" d="m663 418l2-1v1 2l-11 15v-3l3-6z"/>
		<path id="Path 273" class="s20" d="m665 420v-2h1z"/>
		<path id="Path 274" class="s37" d="m198 437l16-17h2l-4 6-14 12z"/>
		<path id="Path 275" class="s65" d="m348 428v-5l4-3h6l4 2v8z"/>
		<path id="Path 276" class="s58" d="m598 426l-2-6h3z"/>
		<path id="Path 277" class="s65" d="m386 428h6l6-7 10 1 7 13-2 6-9 8v5l-8 1v7h-4l-8-1-6-1v-6l1-16 7-5z"/>
		<path id="Path 278" class="s54" d="m248 434l2-5 10-7h9l5 11v9l-8 2h-10z"/>
		<path id="Path 279" class="s57" d="m198 438l14-12 4 1v5l-9 4v6l-7 3-4 7h-4l-2-5 3-4z"/>
		<path id="Path 280" class="s54" d="m216 427l8-1 11 8-3 4h-10l-6-6z"/>
		<path id="Path 281" class="s52" d="m274 433l8-7h6v11l-14 5z"/>
		<path id="Path 282" class="s51" d="m648 430l6-4h3l-3 6-5 7z"/>
		<path id="Path 283" class="s40" d="m339 434l2-6h7l14 2 4 4v12h-6l-2-8-13 1z"/>
		<path id="Path 284" class="s64" d="m370 430l16-2v5l-7 5-1 16h-4l-2-6h-6v-2-12z"/>
		<path id="Path 285" class="s35" d="m464 448l-2-18h10l4 6v12l3 1v3h-14z"/>
		<path id="Path 286" class="s15" d="m598 434v-4l3 2z"/>
		<path id="Path 287" class="s62" d="m207 442v-6l9-4 6 6h10l3-4h13l8 10-2 11v9l-4 4-25-2-11 17-8-9v-14l10-2v-11z"/>
		<path id="Path 288" class="s9" d="m598 434l3-2h9l4 2 1 8-4 6-13-2z"/>
		<path id="Path 289" class="s41" d="m649 439l5-7v3l-2 3v2l-3 6z"/>
		<path id="Path 290" class="s38" d="m404 454v-5l9-8 2-6 4 1 2 10v6l-3 8h-10l-1 14-3 4h-3l-9-11v-5h4l8-1z"/>
		<path id="Path 291" class="s44" d="m479 449l-3-1v-12h8v6z"/>
		<path id="Path 292" class="s41" d="m193 442l5-5v1l-5 5z"/>
		<path id="Path 293" class="s64" d="m274 442l14-5 6 1v6l-6 6h-7l-9 9v6l-6 2-2-3h-10v-9l11-4 1-7z"/>
		<path id="Path 294" class="s38" d="m345 439l13-1 2 8-2 8-6 3-8-1-1-3z"/>
		<path id="Path 295" class="s35" d="m437 440v-2h4l2 4-1 2z"/>
		<path id="Path 296" class="s56" d="m421 446l10-6h6l5 4v14l-3 5-9 3-3-11-6-3z"/>
		<path id="Path 297" class="s0" d="m649 446l3-6-2 7 4 2h-3l-2-2z"/>
		<path id="Path 298" class="s6" d="m179 456l14-14v1l-3 4-9 9z"/>
		<path id="Path 299" class="s53" d="m196 452l4-7 7-3 9 5v11l-10 2-5-1z"/>
		<path id="Path 300" class="s9" d="m442 444l1-2h8l4 6-5 10h-4-4z"/>
		<path id="Path 301" class="s61" d="m611 448l4-6h9v8l-6 2h-4z"/>
		<path id="Path 302" class="s52" d="m254 455l2-11h10l-1 7z"/>
		<path id="Path 303" class="s28" d="m352 457l6-3 2-8h6v2l2 7v5l6 2v4l-11 1-3-4h-7z"/>
		<path id="Path 304" class="s53" d="m181 456l9-9 2 5v5l-8 6v11l-2 16-16-2-2-14 1-2 6-6z"/>
		<path id="Path 305" class="s41" d="m652 451l-4-2 1-2 2 2z"/>
		<path id="Path 306" class="s57" d="m317 457l2-9h16l4 5-1 11v6h-13l-3-11z"/>
		<path id="Path 307" class="s9" d="m368 455l-2-7h6l2 6z"/>
		<path id="Path 308" class="s56" d="m450 458l5-10h9l1 4-5 16h-6l-4-2z"/>
		<path id="Path 309" class="s8" d="m652 451l-1-2h3l20 11v1l-10-4z"/>
		<path id="Path 310" class="s44" d="m526 454l9-4 10 1-3 9h-9l-7-2z"/>
		<path id="Path 311" class="s35" d="m556 458l10-8h7l5 4v8l-4 3v9l-6 2h-8v-4l-4-2z"/>
		<path id="Path 312" class="s56" d="m618 452l6-2h11l9 8v7l4 3v10h-7l-3-6-8-2v-10l-4-4h-8z"/>
		<path id="Path 313" class="s49" d="m542 460l3-9 5 1v6 11h-2l-6-3z"/>
		<path id="Path 314" class="s54" d="m184 474v-11l8-6v-5h4l5 7 5 1v14z"/>
		<path id="Path 315" class="s44" d="m418 460l3-8 6 3 3 11 9-3 7 1 2 2 2 5-2 7h-15l-3 3-9-3-2-9z"/>
		<path id="Path 316" class="s38" d="m460 468l5-16h14l5 6 2 17h-8l-5-5h-9z"/>
		<path id="Path 317" class="s9" d="m508 460l2-8 16 2v4l2 8v10l-3 4h-4l-7-3z"/>
		<path id="Path 318" class="s59" d="m614 456v-4h4v4z"/>
		<path id="Path 319" class="s0" d="m874 457l13-5v2l-10 3z"/>
		<path id="Path 320" class="s30" d="m887 454v-2h21v2h-13z"/>
		<path id="Path 321" class="s0" d="m908 454v-2l4 3z"/>
		<path id="Path 322" class="s60" d="m338 464l1-11h4l1 3v8z"/>
		<path id="Path 323" class="s42" d="m368 455l6-1h4v6l-4 2-6-2z"/>
		<path id="Path 324" class="s64" d="m396 462v-7l8-1v7z"/>
		<path id="Path 325" class="s60" d="m578 462v-8h8l2 8z"/>
		<path id="Path 326" class="s12" d="m877 457l10-3h8l2 5 17-1 3 2 3 9v13l-16 4h-7l-5 4v8l-10 1-4 4 1 3v2h-5l-4-20 6-2 4-9v-14z"/>
		<path id="Path 327" class="s47" d="m914 458l-17 1-2-5h13l4 1z"/>
		<path id="Path 328" class="s14" d="m914 458l-2-3h4l1 5z"/>
		<path id="Path 329" class="s16" d="m170 465l9-9h2l-10 10z"/>
		<path id="Path 330" class="s36" d="m344 464v-8l8 1 1 6-1 11h-10z"/>
		<path id="Path 331" class="s60" d="m623 474l-9-8v-10h4 8l4 4v10 4z"/>
		<path id="Path 332" class="s58" d="m316 474l1-17 5 2 3 11-1 4z"/>
		<path id="Path 333" class="s56" d="m664 462v-5l10 4 7 5 1 8 4 14 10 2h10 10v6l-9 10-7 2-7-4-12 2h-3l-4-2-6-17-2-19z"/>
		<path id="Path 334" class="s14" d="m861 462l4-4 8-1-8 4z"/>
		<path id="Path 335" class="s22" d="m865 461l8-4h1 3l3 6v14l-4 9-6 2v-20l-5-5z"/>
		<path id="Path 336" class="s42" d="m439 463l3-5h4v6z"/>
		<path id="Path 337" class="s38" d="m446 464v-6h4v8h-2z"/>
		<path id="Path 338" class="s35" d="m486 475l-2-17 16 2v17l8 5v6h-2l-13-2v-7z"/>
		<path id="Path 339" class="s33" d="m528 466l-2-8 7 2v5z"/>
		<path id="Path 340" class="s63" d="m550 469v-11h6v12h-4z"/>
		<path id="Path 341" class="s23" d="m374 462l4-2 6 1v9l-4 2h-6v-6z"/>
		<path id="Path 342" class="s36" d="m384 461l8 1v5l-4 6-4-3z"/>
		<path id="Path 343" class="s49" d="m404 478l3-4 1-14h10l1 9-5 2-3 9h-5z"/>
		<path id="Path 344" class="s44" d="m508 482l-8-5v-17h8l6 17z"/>
		<path id="Path 345" class="s36" d="m528 466l5-1v-5h9v6l-4 3v10l-6 1-4-4z"/>
		<path id="Path 346" class="s1" d="m674 461v-1l10 5v1h-3z"/>
		<path id="Path 347" class="s14" d="m920 469l-3-9 4 4v5z"/>
		<path id="Path 348" class="s37" d="m861 462l4-1v2l-8 3h-5v-1h1l6-3z"/>
		<path id="Path 349" class="s9" d="m574 474v-9l4-3h10v6 8l-8 1z"/>
		<path id="Path 350" class="s67" d="m661 468v-5l3-1 2 6z"/>
		<path id="Path 351" class="s68" d="m352 474l1-11h7l3 4 11-1v6 6h6l2 1v9l-8 11-4-1-3-12-11 2h-4z"/>
		<path id="Path 352" class="s24" d="m857 466l8-3 5 5v20l4 20v2h-6l-10-2-2-10 6-8 2-9z"/>
		<path id="Path 353" class="s65" d="m214 483l11-17 25 2 4-4h10l2 3v9 2h-7l-7 10h-4l-2-4-12 2-11-2-3 6h-6z"/>
		<path id="Path 354" class="s49" d="m276 466l16-2-2 12-14-3z"/>
		<path id="Path 355" class="s28" d="m276 473l14 3 2-12h4l5 6v8l-5 6v6h-10l-20-12v-2h7z"/>
		<path id="Path 356" class="s56" d="m338 470v-6h6l-2 10h-1z"/>
		<path id="Path 357" class="s6" d="m163 472l7-7 1 1-6 6z"/>
		<path id="Path 358" class="s38" d="m266 467l6-2 4 1v7l-3 3h-7z"/>
		<path id="Path 359" class="s18" d="m684 466v-1l10 3 3 4z"/>
		<path id="Path 360" class="s4" d="m848 467l4-2v1l-3 1z"/>
		<path id="Path 361" class="s35" d="m450 471l-2-5h2l4 2v3z"/>
		<path id="Path 362" class="s28" d="m538 479v-10l4-3 6 3 1 4h3l3 5-1 6z"/>
		<path id="Path 363" class="s59" d="m682 474l-1-8h3l13 6h1l6 3-1 9h-6l-2-4h-5l-4-6z"/>
		<path id="Path 364" class="s51" d="m849 467l3-1h5l7 15-2 9-6 8h-8v-16l-4-4h-12v-5l2-2 13-4h1z"/>
		<path id="Path 365" class="s68" d="m388 473l4-6 9 11h3l2 2v9l-4 5h-8l-4-3-3-13z"/>
		<path id="Path 366" class="s4" d="m833 470l14-3-13 4z"/>
		<path id="Path 367" class="s23" d="m454 471v-3h6l4 2v7 6 1h-6z"/>
		<path id="Path 368" class="s44" d="m588 476v-8h15l3 3v8h-2l-2-3h-6-6z"/>
		<path id="Path 369" class="s35" d="m648 478v-10h13 5l2 19 6 17h-6l-8-4-15 1-11-1-4-4-2-8h-7l-3-6 5-3v-5h7l6 5 2 11 9-1z"/>
		<path id="Path 370" class="s68" d="m411 480l3-9 5-2 2 9-5 4z"/>
		<path id="Path 371" class="s36" d="m552 473h-3l-1-4h2l2 1z"/>
		<path id="Path 372" class="s32" d="m920 482v-13h1v16h-1z"/>
		<path id="Path 373" class="s53" d="m324 474l1-4h13l3 4-6 14-1 4h-5l-5-3z"/>
		<path id="Path 374" class="s28" d="m380 472l4-2 4 3-1 5-5 1-2-1z"/>
		<path id="Path 375" class="s49" d="m464 477v-7h9l5 5v7l-8 1-1-5z"/>
		<path id="Path 376" class="s38" d="m552 473v-3h4l4 2v4l-5 2z"/>
		<path id="Path 377" class="s9" d="m630 474v-4l8 2 3 6h7l-1 11-9 1-2-11z"/>
		<path id="Path 378" class="s66" d="m823 473l10-3 1 1-2 2-9 1z"/>
		<path id="Path 379" class="s49" d="m430 481l3-3h15l2-7h4l4 13v8h-4l-9 2-14-2z"/>
		<path id="Path 380" class="s37" d="m158 475l5-3h2l-1 2-5 4h-2v-1z"/>
		<path id="Path 381" class="s49" d="m380 478h-6v-6h6z"/>
		<path id="Path 382" class="s0" d="m704 475l-6-3 9 1 5 4z"/>
		<path id="Path 383" class="s14" d="m816 475l7-2v1l-6 1z"/>
		<path id="Path 384" class="s50" d="m823 474l9-1v5l-2 4h-11l-1 6-22 1-7-4v-4h2l6-1 14-3h1l5-1z"/>
		<path id="Path 385" class="s54" d="m159 478l5-4 2 14-2 2h-6z"/>
		<path id="Path 386" class="s57" d="m182 490l2-16h22l8 9v7h-9l-1 4h-2l-2-2-13 2z"/>
		<path id="Path 387" class="s54" d="m314 484l2-10h8v15 5h-4z"/>
		<path id="Path 388" class="s34" d="m335 488l6-14h1 10v14z"/>
		<path id="Path 389" class="s38" d="m568 476l6-2 6 3v7h-1l-9-1z"/>
		<path id="Path 390" class="s12" d="m696 490l-10-2-4-14h4l4 6h5l2 4z"/>
		<path id="Path 391" class="s41" d="m817 475l6-1-6 2z"/>
		<path id="Path 392" class="s6" d="m156 477l2-2-1 2z"/>
		<path id="Path 393" class="s28" d="m478 482v-7h8l7 4v7l-3 4-6-1-1-5z"/>
		<path id="Path 394" class="s60" d="m703 484l1-9 8 2h1l5 3v8l-2 2h-10z"/>
		<path id="Path 395" class="s0" d="m809 477l4-2-1 2h-1z"/>
		<path id="Path 396" class="s16" d="m812 477l1-2h3 1v1z"/>
		<path id="Path 397" class="s23" d="m525 480l3-4 4 4v6h-6z"/>
		<path id="Path 398" class="s44" d="m555 478l5-2h8l2 7v6l-12 8h-4v-13z"/>
		<path id="Path 399" class="s35" d="m580 477l8-1h2v8l-4 3-6-3z"/>
		<path id="Path 400" class="s17" d="m586 487l4-3v-8h6l2 24 2 8h6 9l2 3 19-1 2 4-2 10-18-3-8 4-7-5-5-12-8-2v-9l-6-3z"/>
		<path id="Path 401" class="s34" d="m598 500l-2-24h6l2 3 2 19v2z"/>
		<path id="Path 402" class="s30" d="m152 480l4-3h1v1l-6 5z"/>
		<path id="Path 403" class="s45" d="m464 483v-6l5 1 1 5z"/>
		<path id="Path 404" class="s49" d="m508 482l6-5 7 3-5 4v4h-8z"/>
		<path id="Path 405" class="s0" d="m718 480l-5-3 9 1 5 4z"/>
		<path id="Path 406" class="s16" d="m797 478l12-1h2l-14 3z"/>
		<path id="Path 407" class="s58" d="m151 483l6-5h2l-1 12-12 2-4-2z"/>
		<path id="Path 408" class="s49" d="m252 488l7-10h7l20 12v5l8 1 2-6v-6l5-6 13 6 6 10h4 3v2l-3 2-8 3-5-2-4 3h-6l-5 5v5l-8 2h-8v-4l-7-8-15-2-6-4z"/>
		<path id="Path 409" class="s69" d="m382 479l5-1 3 13 4 3v13l-6 1-12-2-2-7 8-11z"/>
		<path id="Path 410" class="s28" d="m416 482l5-4 9 3 1 11-5 2-4-7-6-1z"/>
		<path id="Path 411" class="s10" d="m791 481v-3h6v2z"/>
		<path id="Path 412" class="s60" d="m830 482l2-4h12l4 4v16h-11l-7-8z"/>
		<path id="Path 413" class="s68" d="m532 480l6-1 16 5v13l-4 2-1 7-2 1-5-2 1-16-11-1v-2z"/>
		<path id="Path 414" class="s23" d="m606 498l-2-19h2l12 3 3 6v5l-5 5z"/>
		<path id="Path 415" class="s8" d="m130 497l8-9 14-8-1 3-9 7-5 4-7 5z"/>
		<path id="Path 416" class="s69" d="m402 494l4-5v-9h5l5 2v4l6 1 4 7v8h-6l-3-2-10 2z"/>
		<path id="Path 417" class="s35" d="m516 488v-4l5-4h4l1 6v6l-2 4h-8z"/>
		<path id="Path 418" class="s61" d="m718 488v-8l9 2h1l12 4v6h-13v-4z"/>
		<path id="Path 419" class="s60" d="m778 482l9-1h2v4l7 4v7 4h-10l-1-7-14-9 1-2z"/>
		<path id="Path 420" class="s68" d="m470 483l8-1 5 2 1 5 6 1 2 14 1 8 5 4h9l4 4v2h-6l-4 5-8 1-2-6-7-2 1-14-8-2-3-4h-10l-2-2v-5l2-9v-1z"/>
		<path id="Path 421" class="s27" d="m740 486l-12-4 13 3v1z"/>
		<path id="Path 422" class="s30" d="m761 484l11-2-1 2z"/>
		<path id="Path 423" class="s61" d="m818 488l1-6h11v8z"/>
		<path id="Path 424" class="s13" d="m904 486l16-4v3l-4 7-12 5z"/>
		<path id="Path 425" class="s49" d="m558 497l12-8v-6l9 1v11l-3 21h-4l-4-5h-6l-4-5z"/>
		<path id="Path 426" class="s0" d="m753 485l6-1-6 2z"/>
		<path id="Path 427" class="s40" d="m220 490l3-6 11 2v8l-14 2z"/>
		<path id="Path 428" class="s44" d="m234 486l12-2 2 4v9l-2 9h-6l-2-4v-6l-4-2z"/>
		<path id="Path 429" class="s36" d="m458 492v-8h6l-2 9z"/>
		<path id="Path 430" class="s44" d="m579 495v-11h1l6 3-2 7z"/>
		<path id="Path 431" class="s51" d="m696 490l1-6h6l3 6z"/>
		<path id="Path 432" class="s59" d="m753 486l6-2h2 10l14 9 1 7v5l-2 1-5-6h-5-6-6-10l-12-8v-6h1 5z"/>
		<path id="Path 433" class="s32" d="m741 486v-1h5v1z"/>
		<path id="Path 434" class="s70" d="m746 486v-1h7v1z"/>
		<path id="Path 435" class="s14" d="m916 492l4-7h1v5l-4 2z"/>
		<path id="Path 436" class="s71" d="m356 488l11-2 3 12 4 1 2 7 12 2-2 12-4 2-8-9-10-1-2-6h-6z"/>
		<path id="Path 437" class="s33" d="m490 490l3-4 13 2 1 14-15 2z"/>
		<path id="Path 438" class="s36" d="m526 492v-6h6v2l-2 4z"/>
		<path id="Path 439" class="s47" d="m892 498v-8l5-4h7v11 1h-2-5z"/>
		<path id="Path 440" class="s55" d="m164 490l2-2 16 2 5 4 13-2 2 2 2 5 4 7-7 10-4 3-16 1-8-3-1-4-6-7z"/>
		<path id="Path 441" class="s38" d="m248 497v-9h4v8z"/>
		<path id="Path 442" class="s45" d="m329 492h5l1-4h17 4v18l-2 8-7 4h-6v-9l-9-5v-4l-5-4v-2z"/>
		<path id="Path 443" class="s28" d="m492 504l15-2-1-14h2 8v8 10l8-2 10 4 1 4 1 11-8 5h-8l-3-8h-6l-4-4h-9l-5-4z"/>
		<path id="Path 444" class="s23" d="m530 492l2-4 11 1-1 16-2 7h-5l-1-4v-11z"/>
		<path id="Path 445" class="s34" d="m621 493v-5h7l2 8z"/>
		<path id="Path 446" class="s24" d="m716 490l2-2h9v4l-1 4h-6-4z"/>
		<path id="Path 447" class="s59" d="m796 489l22-1 12 2 7 8-5 4-14-2-4 6h-4l-3-10h-11z"/>
		<path id="Path 448" class="s63" d="m324 494v-5l5 3-2 2z"/>
		<path id="Path 449" class="s57" d="m137 494l5-4 4 2v8h-4z"/>
		<path id="Path 450" class="s53" d="m146 492l12-2h6l2 16 6 7-10-3-1-7-15-3z"/>
		<path id="Path 451" class="s64" d="m204 494l1-4h9 6v6 8l-12 2-4-7h4z"/>
		<path id="Path 452" class="s38" d="m296 490l-2 6-8-1v-5z"/>
		<path id="Path 453" class="s68" d="m426 494l5-2 14 2 9-2 2 7v15l-3 2-13-2h-5l-8-5-1-7z"/>
		<path id="Path 454" class="s33" d="m456 499l-2-7h4l4 1v5z"/>
		<path id="Path 455" class="s34" d="m524 496l2-4h4l4 5v11l-10-4z"/>
		<path id="Path 456" class="s56" d="m726 496l1-4h13l12 8v6h-22z"/>
		<path id="Path 457" class="s0" d="m904 497l12-5h1l-3 5-10 1z"/>
		<path id="Path 458" class="s67" d="m606 498h10l5-5 9 3 4 4 11 1 3 9-10 4-2-4-19 1-2-3h-9v-8z"/>
		<path id="Path 459" class="s58" d="m130 499l7-5 5 6v6h-15v-2l2-4z"/>
		<path id="Path 460" class="s45" d="m204 499l-2-5h2l4 5z"/>
		<path id="Path 461" class="s38" d="m220 496l14-2 4 2v6l-17 2h-1z"/>
		<path id="Path 462" class="s45" d="m394 507v-13h8l5 8 1 7-6 2z"/>
		<path id="Path 463" class="s34" d="m579 495l5-1 6 3v9l-3 3-1 13v3l-2 1-7-4-1-6z"/>
		<path id="Path 464" class="s28" d="m248 497l4-1 6 4 15 2 7 8v4 4h-8l-9-12h-8l-3 3-6-3z"/>
		<path id="Path 465" class="s69" d="m324 498l3-2 5 4v4h-3z"/>
		<path id="Path 466" class="s44" d="m524 504l-8 2v-10h8z"/>
		<path id="Path 467" class="s44" d="m707 506l9-10h4v16l-10 1z"/>
		<path id="Path 468" class="s35" d="m720 512v-16h6l4 10h22l4 14v7l-3 1-13-1-7-10-5-2z"/>
		<path id="Path 469" class="s61" d="m796 500v-4h11l3 10-1 3-7 1h-2l-2-3z"/>
		<path id="Path 470" class="s4" d="m128 500l2-3v2l-1 1z"/>
		<path id="Path 471" class="s38" d="m549 506l1-7 4-2h4v9z"/>
		<path id="Path 472" class="s43" d="m316 501l8-3 5 6-8 11-5-1z"/>
		<path id="Path 473" class="s45" d="m456 499l6-1 2 2v12l-4 2h-4z"/>
		<path id="Path 474" class="s9" d="m832 502l5-4h11 8l2 10v4l-4 1v3l-4 2-3-3h-7l-2-3h-6z"/>
		<path id="Path 475" class="s18" d="m879 506l-1-3 4-4 10-1h5v2h-11l-5 5v1z"/>
		<path id="Path 476" class="s8" d="m897 500v-2h5z"/>
		<path id="Path 477" class="s46" d="m307 502l4-3 5 2v13l5 1v11h-3-4l-8-12z"/>
		<path id="Path 478" class="s16" d="m122 505l6-5h1l-2 4-4 2z"/>
		<path id="Path 479" class="s54" d="m142 506v-6h4l15 3 1 7-11 2z"/>
		<path id="Path 480" class="s72" d="m407 502l10-2 3 2v6l4 2v4h-2l-14-5z"/>
		<path id="Path 481" class="s72" d="m460 514l4-2v-12h10l3 4 8 2-1 14-15 2-1 3-8-2z"/>
		<path id="Path 482" class="s36" d="m606 508h-6l-2-8h8z"/>
		<path id="Path 483" class="s34" d="m645 501l15-1 8 4v10l2 8v6l-12 2-8 1-7-6-7-1 2-10 10-4z"/>
		<path id="Path 484" class="s9" d="m752 506v-6h10v6l3 2 2 5-1 7h-10z"/>
		<path id="Path 485" class="s44" d="m765 508l-3-2v-6h6v6z"/>
		<path id="Path 486" class="s15" d="m765 508l3-2v-6h6l1 10-8 3z"/>
		<path id="Path 487" class="s5" d="m775 510l-1-10h5l5 6v4l-4 1z"/>
		<path id="Path 488" class="s63" d="m786 505v-5h10l2 7h-6z"/>
		<path id="Path 489" class="s56" d="m814 506l4-6 14 2v10l-6 3v3h-3l-1-7z"/>
		<path id="Path 490" class="s49" d="m221 504l17-2 2 4h6l6 3v15h-5l-1 5-9 7-3 14h-8l-2-10-6-2 2-24z"/>
		<path id="Path 491" class="s73" d="m296 512v-5l5-5h6l-1 12h-7z"/>
		<path id="Path 492" class="s45" d="m424 510l-4-2v-6h6l1 7z"/>
		<path id="Path 493" class="s53" d="m123 506l4-2v2 4l-10 8v-5z"/>
		<path id="Path 494" class="s65" d="m208 506l12-2h1l-1 10h-8l-6 4-5-2z"/>
		<path id="Path 495" class="s17" d="m321 515l8-11h3l9 5v9l-3 14-3 5-7-3-2-6-5-2z"/>
		<path id="Path 496" class="s49" d="m668 514v-10h6l4 2-1 8z"/>
		<path id="Path 497" class="s44" d="m681 506l12-2 7 4v6h-2-6l-2-4h-5z"/>
		<path id="Path 498" class="s1" d="m117 513l-1-5 6-3 1 1z"/>
		<path id="Path 499" class="s46" d="m540 512l2-7 5 2 8 11 1 12h-5l-5 8h-9l-1 8h-2l-12-2-16-2-14-2 1-12 8-1 3 3 10-2h6 8l8-5 4-2z"/>
		<path id="Path 500" class="s42" d="m784 506l2-1 6 2v6l-8-3z"/>
		<path id="Path 501" class="s27" d="m881 506v-1h13v3l-1 1v-1l-8-2z"/>
		<path id="Path 502" class="s62" d="m117 518l10-8v-4h15l9 6-2 3h-7l-6 6v9h-12l-4-1-2-7-2-2z"/>
		<path id="Path 503" class="s68" d="m252 509l3-3h8l9 12 3 16-5 9-2 1h-10l-2-5h-4v-9-6z"/>
		<path id="Path 504" class="s74" d="m354 514l2-8h6l2 6z"/>
		<path id="Path 505" class="s34" d="m547 507l2-1h9l4 5-7 7z"/>
		<path id="Path 506" class="s71" d="m586 522l1-13 3-3 8 2 5 12-5 4z"/>
		<path id="Path 507" class="s17" d="m677 514l1-8h3l4 4h5l2 4v4l-4 1v8l-10-1v-4z"/>
		<path id="Path 508" class="s15" d="m700 508l7-2 3 7-5 4-5-3z"/>
		<path id="Path 509" class="s63" d="m809 509l1-3h4l8 5 1 7-1 9 6 3v6h-12l-4-4v-4-8-5z"/>
		<path id="Path 510" class="s33" d="m879 508v-2h2 4v2z"/>
		<path id="Path 511" class="s25" d="m885 508v-2l8 2h-5z"/>
		<path id="Path 512" class="s74" d="m388 508l6-1 8 4-2 15h-13l-1-6z"/>
		<path id="Path 513" class="s38" d="m792 513v-6h6l2 3-2 4h-3z"/>
		<path id="Path 514" class="s60" d="m858 512v-4l10 2v8l6 5v5l-11 2-3-6-2-8z"/>
		<path id="Path 515" class="s61" d="m874 510v-2h5 6 3v4h-6z"/>
		<path id="Path 516" class="s42" d="m888 512v-4h5v1l3 6v5h-8z"/>
		<path id="Path 517" class="s8" d="m893 509l1-1 3 5 6 2v2l-7-2z"/>
		<path id="Path 518" class="s75" d="m402 511l6-2 14 5 2 11 6 8-4 7h-6l-1-7-7-1-2 10h-6v-5l-4-2v-9z"/>
		<path id="Path 519" class="s71" d="m424 510l3-1 8 5-1 2-10-2z"/>
		<path id="Path 520" class="s28" d="m802 510l7-1 3 6h-8l-2-1z"/>
		<path id="Path 521" class="s52" d="m151 512l11-2 10 3 1 4-3 5-12 3h-8l-6 7h-4l-4-2v-9l6-6h7z"/>
		<path id="Path 522" class="s64" d="m767 513l8-3 5 1v16l5 9-1 9 4 8v3l-4 1-7-2-1-3 1-4-4-1-1-1v-12l-6-4v-10z"/>
		<path id="Path 523" class="s52" d="m780 511l4-1 8 3 3 1 3 7v9l-4 1v5h-9l-5-9z"/>
		<path id="Path 524" class="s45" d="m798 514l2-4h2v4z"/>
		<path id="Path 525" class="s59" d="m874 523l-6-5v-8h6l8 2v8z"/>
		<path id="Path 526" class="s17" d="m555 518l7-7h6l4 5v16l-12 2-4-4z"/>
		<path id="Path 527" class="s25" d="m288 514l8-2 3 2-2 5h-9z"/>
		<path id="Path 528" class="s72" d="m354 514l10-2 10 1 8 9 1 5-1 9h-4l-12-2-4 7-3-1-4-13-7-1-1-8z"/>
		<path id="Path 529" class="s71" d="m536 523l-1-11h5v9z"/>
		<path id="Path 530" class="s5" d="m710 513l10-1 8 3-4 4v9h-4l-1-3-11-3-3-1v-4z"/>
		<path id="Path 531" class="s53" d="m826 518v-3l6-3h6l2 3-3 4z"/>
		<path id="Path 532" class="s53" d="m854 516v-3l4-1v4z"/>
		<path id="Path 533" class="s63" d="m882 520v-8h6v8z"/>
		<path id="Path 534" class="s38" d="m206 518l6-4h8l-2 24h-2-11l-4 4v5l-6 6h-4l-21-3-2-4 2-4 28-12 2-6h4z"/>
		<path id="Path 535" class="s34" d="m280 518v-4h8v5l-2 3h-6z"/>
		<path id="Path 536" class="s72" d="m297 519l2-5h7l8 12-5 10-3 8-2 5-10-8v-9z"/>
		<path id="Path 537" class="s21" d="m430 533l-6-8-2-11h2l10 2 1-2h5l2 18-8 2z"/>
		<path id="Path 538" class="s75" d="m434 534l8-2-2-18 13 2 2 6-5 3v23l-11 2-5-8z"/>
		<path id="Path 539" class="s46" d="m453 516l3-2h4v9l-5-1z"/>
		<path id="Path 540" class="s67" d="m670 522l-2-8h9l1 8z"/>
		<path id="Path 541" class="s36" d="m692 518v-4h6v4z"/>
		<path id="Path 542" class="s17" d="m698 518v-4h2l5 3v4l3 1v8h-6l-2-2z"/>
		<path id="Path 543" class="s63" d="m798 521l-3-7h3 4l2 1v5z"/>
		<path id="Path 544" class="s23" d="m724 528v-9l4-4 5 2 7 10-3 5-11 1-2-1z"/>
		<path id="Path 545" class="s60" d="m804 520v-5h8v5z"/>
		<path id="Path 546" class="s58" d="m826 518l11 1 3-4h7l3 3v6 10h-10l-4-4h-8l-6-3 1-9z"/>
		<path id="Path 547" class="s13" d="m896 520v-5l7 2 6 4 2 1 5 5 8 14-6 1-9-6v-6l-6-6h-5z"/>
		<path id="Path 548" class="s66" d="m903 517v-2l6 5v1z"/>
		<path id="Path 549" class="s44" d="m197 519l4-3 5 2-2 6h-4z"/>
		<path id="Path 550" class="s45" d="m572 532v-16h4l1 6 7 4-3 8h-5z"/>
		<path id="Path 551" class="s57" d="m850 518l4-2h4l2 8h-10z"/>
		<path id="Path 552" class="s65" d="m170 522l3-5 8 3 16-1 3 5-2 6-28 12-2-6z"/>
		<path id="Path 553" class="s17" d="m275 534l-3-16h8v4 8l-1 4z"/>
		<path id="Path 554" class="s25" d="m338 532l3-14h6l1 8v6z"/>
		<path id="Path 555" class="s67" d="m688 527v-8l4-1h6l2 10h-4z"/>
		<path id="Path 556" class="s31" d="m286 522l2-3h9l-3 13h-8v-2z"/>
		<path id="Path 557" class="s6" d="m118 525l-2-5 2 2z"/>
		<path id="Path 558" class="s43" d="m382 522l4-2 1 6-4 1z"/>
		<path id="Path 559" class="s75" d="m468 525l1-3 15-2 7 2 2 6-1 12-1 12-19-2-2-4z"/>
		<path id="Path 560" class="s71" d="m511 522v-2h6l3 8h-6z"/>
		<path id="Path 561" class="s74" d="m598 524l5-4 7 5-1 19h-2-11v-2-11z"/>
		<path id="Path 562" class="s56" d="m756 527v-7h10v10h-5z"/>
		<path id="Path 563" class="s65" d="m798 521l6-1h8v8h-5l-1 4h-7l-1-2z"/>
		<path id="Path 564" class="s35" d="m874 523l8-3h6 8l2 4-6 6h-8l-10-2z"/>
		<path id="Path 565" class="s14" d="m909 521v-1l2 2z"/>
		<path id="Path 566" class="s25" d="m610 525l8-4 18 3 7 1 7 6v15l6 5v7h-1l-13-4-1-13-8-1-3 30-7-1-1-14-6-2-2-8-5-1z"/>
		<path id="Path 567" class="s25" d="m118 525v-3l2 7-1 1-1-4z"/>
		<path id="Path 568" class="s38" d="m158 525l12-3-2 14-10-2z"/>
		<path id="Path 569" class="s76" d="m280 530v-8h6v8z"/>
		<path id="Path 570" class="s21" d="m450 548v-23l5-3 5 1 8 2 2 21z"/>
		<path id="Path 571" class="s72" d="m501 527l4-5h6l3 6-10 2z"/>
		<path id="Path 572" class="s72" d="m586 525v-3l12 2-2 7z"/>
		<path id="Path 573" class="s25" d="m670 528v-6h8v4l-4 2z"/>
		<path id="Path 574" class="s36" d="m708 530v-8l11 3 1 3v4l-4 1h-6z"/>
		<path id="Path 575" class="s14" d="m916 527l-5-5 6 5z"/>
		<path id="Path 576" class="s17" d="m246 529l1-5h5v6z"/>
		<path id="Path 577" class="s61" d="m850 534v-10h10l3 6v5l-5 2z"/>
		<path id="Path 578" class="s12" d="m884 530h8l6-6h5l6 6v6l9 6-4 26h-14l-2 14-10 3-3 1h-7v-10-17l6-5 2-11-2-7z"/>
		<path id="Path 579" class="s65" d="m140 532h4l6-7h8v9l-6 1v7h-8l-3-3z"/>
		<path id="Path 580" class="s46" d="m584 526l2-1 10 6v11h-7l-1 6h-12v-14h5z"/>
		<path id="Path 581" class="s18" d="m102 532l16-2v-4l1 4-1 3-7-1-9 2z"/>
		<path id="Path 582" class="s34" d="m309 536l5-10h4v7l4 4v5h-6l-2-5z"/>
		<path id="Path 583" class="s49" d="m322 537l-4-4v-7h3l5 2 2 6z"/>
		<path id="Path 584" class="s73" d="m348 532v-6l7 1 4 13h-6z"/>
		<path id="Path 585" class="s21" d="m383 527l4-1h13v9l4 2v5l-1 4-17-1-4-9z"/>
		<path id="Path 586" class="s73" d="m674 528l4-2 10 1 8 1 4 12h4l1-4 5-3h6l2 20h-4-24l-10-1-4-4-1-9z"/>
		<path id="Path 587" class="s67" d="m726 533l11-1 3-5 13 1 3 10 6 36-6 1-6-7h-5l-7-2-8-8v-7l-4-3z"/>
		<path id="Path 588" class="s51" d="m753 528l3-1 5 3-1 8h-4z"/>
		<path id="Path 589" class="s1" d="m924 541l-8-14h1l2 2 7 8 1 8v1h-1z"/>
		<path id="Path 590" class="s31" d="m658 530l12-2v9l5 2 1 9 4 4v12h-4-14v-6l-4-7z"/>
		<path id="Path 591" class="s74" d="m675 539l-5-2v-9h4z"/>
		<path id="Path 592" class="s25" d="m705 536l-1 4h-4l-4-12h4l2 2z"/>
		<path id="Path 593" class="s67" d="m720 532v-4h4v4z"/>
		<path id="Path 594" class="s52" d="m806 532l1-4h5v4z"/>
		<path id="Path 595" class="s51" d="m863 530l11-2 10 2v6h-9l-1 8-4 2-12-2v-7l5-2z"/>
		<path id="Path 596" class="s44" d="m119 530l1-1 4 1v10h-7l-1 5-5-2v-11l7 1z"/>
		<path id="Path 597" class="s45" d="m234 550l3-14 9-7 6 1v9l-2 4 2 5 2 8v12l-6 5-11 1-8-2v-2l5-9z"/>
		<path id="Path 598" class="s40" d="m124 540v-10h12l4 2 1 7-3 1v8l4 8v7l-8 1-8-2-2-6-2-8z"/>
		<path id="Path 599" class="s77" d="m279 534l1-4h6v2 6l-4 1z"/>
		<path id="Path 600" class="s21" d="m546 538l5-8h5l4 4-2 10-4 3v7h-9l-1-8z"/>
		<path id="Path 601" class="s76" d="m650 531l8-1v21h-2l-6-5z"/>
		<path id="Path 602" class="s46" d="m705 536l-3-6h6l2 3z"/>
		<path id="Path 603" class="s34" d="m760 538l1-8h5l6 4v12h-6z"/>
		<path id="Path 604" class="s56" d="m794 536v-5l4-1 1 2-3 4z"/>
		<path id="Path 605" class="s53" d="m828 536v-6h8l4 4-2 14h-10z"/>
		<path id="Path 606" class="s4" d="m99 537l3-5v2l-2 3z"/>
		<path id="Path 607" class="s64" d="m102 534l9-2v11l-9 2-2-4v-4z"/>
		<path id="Path 608" class="s21" d="m282 539l4-1v-6h8v9l10 8-6 8-6 9-3 3-3 1-3-1v-9l-3-4 2-13z"/>
		<path id="Path 609" class="s76" d="m335 537l3-5h10l5 8-2 3h-7z"/>
		<path id="Path 610" class="s48" d="m410 542l2-10 7 1 1 7-4 2z"/>
		<path id="Path 611" class="s25" d="m560 534l12-2 4 2v14h-2-13l-3-4z"/>
		<path id="Path 612" class="s7" d="m716 533l4-1h4l2 1v15l4 3v7h-6l-2-5h-4z"/>
		<path id="Path 613" class="s59" d="m796 536l3-4h7 6l4 4v6h-9l-1 8h-10z"/>
		<path id="Path 614" class="s48" d="m426 540l4-7 4 1v8h-7z"/>
		<path id="Path 615" class="s44" d="m152 542v-7l6-1 10 2 2 6-2 4-13-1z"/>
		<path id="Path 616" class="s78" d="m270 543l5-9h4l3 5v4z"/>
		<path id="Path 617" class="s24" d="m322 537l6-3 7 3 9 6v9l-12-2-1-3-8-1-1-4z"/>
		<path id="Path 618" class="s31" d="m362 541l4-7 12 2v8h-6-6z"/>
		<path id="Path 619" class="s60" d="m838 548l2-14h10l8 3v7l-4 32-6 2h-16v-10l8-2v-10l1-3-3-1z"/>
		<path id="Path 620" class="s25" d="m306 544l3-8 5 1 2 5-3 2z"/>
		<path id="Path 621" class="s43" d="m378 544v-8h4l4 9z"/>
		<path id="Path 622" class="s57" d="m788 553l-4-8 1-9h9 2v14z"/>
		<path id="Path 623" class="s58" d="m816 542v-6h12v12l-4 1h-6z"/>
		<path id="Path 624" class="s24" d="m870 546l4-2 1-8h9l2 7-2 11-6 5v17l-10 2v8h-20v-8l6-2 14-10z"/>
		<path id="Path 625" class="s20" d="m98 537h1v1h-1z"/>
		<path id="Path 626" class="s6" d="m98 538l1-1h1v4h-1-1z"/>
		<path id="Path 627" class="s49" d="m191 553h4l6-6v-5l4-4h11v8l-9 2-3 10-13-1z"/>
		<path id="Path 628" class="s17" d="m216 546v-8h2l6 2 2 10h-9z"/>
		<path id="Path 629" class="s31" d="m536 546l1-8h9l-2 8z"/>
		<path id="Path 630" class="s35" d="m762 574l-6-36h4l6 8h6l1 1-1 4 4 1 1 3 7 2v11l8 6v10h-16-4-7l-1-1z"/>
		<path id="Path 631" class="s28" d="m142 556l-4-8v-8l3-1 3 3h8l3 3-9 4v7z"/>
		<path id="Path 632" class="s69" d="m252 548l-2-5 2-4h4l2 5v4z"/>
		<path id="Path 633" class="s49" d="m116 545l1-5h7l-2 8h-5z"/>
		<path id="Path 634" class="s67" d="m351 543l2-3h6l3 1 4 3v2h-12z"/>
		<path id="Path 635" class="s39" d="m416 542l4-2h6l1 2-1 7-10 1z"/>
		<path id="Path 636" class="s21" d="m472 550l19 2 1-12 14 2v6l8 5 8-5v-4l12 2v8l-10 1v9l-4 6h-8l-7 4-3-4h-6l-6-1v-1l-1-7h-4l-1 3h-7l-5-6z"/>
		<path id="Path 637" class="s31" d="m630 570l3-30 8 1 1 13 13 4v7l3 1v16l-3 6h-7l-5-8h-11z"/>
		<path id="Path 638" class="s2" d="m98 541h1v1h-1z"/>
		<path id="Path 639" class="s4" d="m99 542v-1h1l2 4 1 5z"/>
		<path id="Path 640" class="s47" d="m918 542l6-1 2 5 1 13v1 1l-5 10-4 3-4-6z"/>
		<path id="Path 641" class="s78" d="m349 664v-2h7l2 2h-1-7z"/>
		<path id="Path 642" class="s79" d="m313 544l3-2h6l1 4-3 6h-6z"/>
		<path id="Path 643" class="s77" d="m403 546l1-4h6 6v8l-13-2z"/>
		<path id="Path 644" class="s77" d="m426 549l1-7h7l5 8-1 4h-4z"/>
		<path id="Path 645" class="s75" d="m522 544v4l-8 5-8-5v-6z"/>
		<path id="Path 646" class="s25" d="m588 548l1-6h7v2 6h-8z"/>
		<path id="Path 647" class="s53" d="m806 550l1-8h9l2 7-2 6-5 3h-3z"/>
		<path id="Path 648" class="s9" d="m102 545l9-2 5 2 1 3h5l2 8-14 2-7-8z"/>
		<path id="Path 649" class="s43" d="m268 544l2-1h12l-2 13h-12z"/>
		<path id="Path 650" class="s79" d="m332 550l12 2v-9h7l3 3h12l2 14-4 2-1 10h-12l-9-2-10-14z"/>
		<path id="Path 651" class="s46" d="m258 548v-4h10v12l-4 2-5-2z"/>
		<path id="Path 652" class="s80" d="m304 549l2-5h7l1 8-2 10h-9l-5-5z"/>
		<path id="Path 653" class="s81" d="m366 546v-2h6v7l6 8-2 1h-8z"/>
		<path id="Path 654" class="s82" d="m378 559l-6-8v-7h6l8 1 17 1v2l-3 20v2h-8l-4-4-5-4z"/>
		<path id="Path 655" class="s74" d="m554 554v-7l4-3 3 4-3 6z"/>
		<path id="Path 656" class="s31" d="m596 550v-6h11v8z"/>
		<path id="Path 657" class="s73" d="m607 552v-8h2l5 1 2 8-2 1z"/>
		<path id="Path 658" class="s50" d="m854 576l4-32 12 2-2 20z"/>
		<path id="Path 659" class="s68" d="m146 556v-7l9-4 13 1 2 4 21 3v4l-11 1-2-3-15-3-1 10-8-1-2-4z"/>
		<path id="Path 660" class="s20" d="m927 546v-1h2v15h-2v-1z"/>
		<path id="Path 661" class="s28" d="m204 558l3-10 9-2 1 4-1 14h-6z"/>
		<path id="Path 662" class="s67" d="m320 552l3-6 8 1 1 3v6h-12z"/>
		<path id="Path 663" class="s43" d="m450 548l20-2 2 4v8l-6 2v12h-12l-5 3-7-3v-9l-4-5v-4l1-4z"/>
		<path id="Path 664" class="s75" d="m534 554v-8h2 8l1 8-2 10h-7z"/>
		<path id="Path 665" class="s21" d="m927 559l-1-13h1z"/>
		<path id="Path 666" class="s49" d="m776 552l-4-1 1-4 4 1z"/>
		<path id="Path 667" class="s71" d="m254 556l-2-8h6l1 8z"/>
		<path id="Path 668" class="s83" d="m400 568l3-20 13 2 2 10v8h-5z"/>
		<path id="Path 669" class="s31" d="m558 554l3-6h13l2 12v4l-2 2-13-3z"/>
		<path id="Path 670" class="s74" d="m576 560l-2-12h2 12v2l-5 10z"/>
		<path id="Path 671" class="s63" d="m824 549l4-1h10v4l2 4v10l-8 2-6-5z"/>
		<path id="Path 672" class="s78" d="m416 550l10-1 8 5v4l-4 2h-12z"/>
		<path id="Path 673" class="s42" d="m811 558l5-3 2-6h6l2 14 6 5v10l-6 2-6-2 1-13-9-1z"/>
		<path id="Path 674" class="s4" d="m113 563l-7-5-3-8 7 8z"/>
		<path id="Path 675" class="s34" d="m216 564l1-14h9 8v11l-5 9h-5z"/>
		<path id="Path 676" class="s43" d="m576 560h7l5-10h8l11 2 7 2v17l-10 3h-4l-4-6-10 2h-5l-5-6z"/>
		<path id="Path 677" class="s63" d="m788 553l8-3h10l2 8-16-2h-4z"/>
		<path id="Path 678" class="s43" d="m656 558v-7h2l4 7z"/>
		<path id="Path 679" class="s69" d="m162 562l1-10 15 3 2 3 2 15z"/>
		<path id="Path 680" class="s7" d="m312 562l2-10h6v4 6z"/>
		<path id="Path 681" class="s46" d="m680 564v-12l10 1v11h-4z"/>
		<path id="Path 682" class="s61" d="m840 556l-2-4 3 1z"/>
		<path id="Path 683" class="s46" d="m614 554l2-1 6 2 1 14-5 3-4-1z"/>
		<path id="Path 684" class="s71" d="m690 564v-11h24v9l-4 2-16 2z"/>
		<path id="Path 685" class="s45" d="m710 564l4-2v-9h4 4l2 5h6l8 8v8 7h-2l-4-1-11-2h-5-6v-6z"/>
		<path id="Path 686" class="s31" d="m434 558v-4h4v4z"/>
		<path id="Path 687" class="s43" d="m524 564v-9l10-1 2 10z"/>
		<path id="Path 688" class="s43" d="m543 564l2-10h9 4l3 9 13 3 7 12h5l1 6v2h-10l-5 5-2 13h-10l-5 4h-4l-1 4h-9l-3-6v-8l4-3v-5l-5-6 3-2-2-6z"/>
		<path id="Path 689" class="s38" d="m110 558l14-2 2 6-5 7-6-4-2-1v-1z"/>
		<path id="Path 690" class="s44" d="m142 563v-7h4l6 1 2 4-2 4z"/>
		<path id="Path 691" class="s31" d="m254 568v-12h5l5 2v6l-6 4z"/>
		<path id="Path 692" class="s39" d="m264 558l4-2h12l3 4v9l3 1-5 8-15 10h-5l-3-4v-16l6-4z"/>
		<path id="Path 693" class="s81" d="m320 562v-6h12l10 14v3l-14 1z"/>
		<path id="Path 694" class="s42" d="m784 557l4-1h4v5l8 8v5h-8l-8-6z"/>
		<path id="Path 695" class="s9" d="m800 574v-5l-8-8v-5l16 2h3l1 6-2 7-2 3h-6z"/>
		<path id="Path 696" class="s71" d="m180 558l11-1 13 1 6 6v10l-2 2h-7l-2 3h-3l-14-5v-1z"/>
		<path id="Path 697" class="s84" d="m292 566l6-9 5 5h9 8l8 12 14-1 3 9v6h-7l-3-8h-14l-19-2h-2v-5z"/>
		<path id="Path 698" class="s83" d="m430 560l4-2h4l4 5v9h-6l-4-1z"/>
		<path id="Path 699" class="s77" d="m466 572v-12l6-2 5 6h7v4 12l-5 8h-11z"/>
		<path id="Path 700" class="s46" d="m658 566l-3-1v-7h1 6v6z"/>
		<path id="Path 701" class="s85" d="m376 560l2-1 5 3-7 4z"/>
		<path id="Path 702" class="s80" d="m363 572l1-10 4-2h8v6l-3 11-6 4-1 13-1 3h-6l-7 5-11-4-3-6v-4h7l8 1 10-11z"/>
		<path id="Path 703" class="s76" d="m418 568v-8h12l2 11-2 4-4 3-2-7z"/>
		<path id="Path 704" class="s38" d="m152 565l2-4 8 1 20 11v1 6h-4l-10-3z"/>
		<path id="Path 705" class="s39" d="m484 564l1-3h4l1 7h-6z"/>
		<path id="Path 706" class="s1" d="m922 571l5-10-1 7-2 2z"/>
		<path id="Path 707" class="s49" d="m121 569l5-7 8 2 2 13 11 6-2 4-1-1-6-3h-1l-12-8-2-2h-1v-1z"/>
		<path id="Path 708" class="s45" d="m144 586h1v1h-1z"/>
		<path id="Path 709" class="s81" d="m376 566l7-4 5 4v6l-1 10-10 2-5 5v5h-6l1-13 6-4z"/>
		<path id="Path 710" class="s68" d="m134 564l8-1 10 2 16 12 10 3v5l-4 2v10l6 3-3 4-4-1h-2l-5-3-3-2h-1l-7-5-7-4-3-2 2-4-11-6z"/>
		<path id="Path 711" class="s2" d="m116 568l-3-4 2 1z"/>
		<path id="Path 712" class="s69" d="m210 574v-10h6l8 6h5v2l-7 6z"/>
		<path id="Path 713" class="s48" d="m520 570l4-6h12 7l-5 12h-8z"/>
		<path id="Path 714" class="s21" d="m574 566l2-2 5 6h5v8h-5z"/>
		<path id="Path 715" class="s72" d="m658 566l4-2h14v8l2 12-3 1h-1l-5 3h-2l-3 2-4-2h-1l-1-6z"/>
		<path id="Path 716" class="s74" d="m676 572v-8h4 6v8z"/>
		<path id="Path 717" class="s69" d="m686 572v-8h4l4 2v4l-6 2z"/>
		<path id="Path 718" class="s68" d="m694 566l16-2v8h-6l-10-2z"/>
		<path id="Path 719" class="s68" d="m810 571l2-7 9 1-1 13-2 1-4-8z"/>
		<path id="Path 720" class="s74" d="m116 568l-1-3 6 4 1 3-4-2z"/>
		<path id="Path 721" class="s86" d="m289 569l3-3 8 7v5l-8 3v-10z"/>
		<path id="Path 722" class="s84" d="m388 572v-6l4 4z"/>
		<path id="Path 723" class="s7" d="m738 574v-8l7 2-1 6z"/>
		<path id="Path 724" class="s43" d="m237 574l11-1 6-5h4v16l3 4-7 1-2 7-7 2-11 1-4-3v-7l7-7z"/>
		<path id="Path 725" class="s78" d="m400 570v-2h13l-1 6h-11z"/>
		<path id="Path 726" class="s11" d="m401 574h11l1-6h5l6 3 2 7-3 11-14 1-1-10z"/>
		<path id="Path 727" class="s76" d="m484 580v-12h6v1l-1 11z"/>
		<path id="Path 728" class="s74" d="m586 570l10-2 4 6h4l3 8h5l4 5 10 1h4l16 2 2-2h7 4 1v10l-7 8h-6l-4-6h-7-13l-3 3v10l7 7-4 9-11 2-6 7h-10l-2-5h-4l-4-4v-8l6-1 10-8v-8-12l-2-8h-13l-1-6z"/>
		<path id="Path 729" class="s23" d="m744 574l1-6h5l6 7v7l-2 1h-1-5l-1-1z"/>
		<path id="Path 730" class="s13" d="m898 582l2-14h14l4 6-1 2-15 5z"/>
		<path id="Path 731" class="s82" d="m286 570l3-1 3 2v10l-11-3z"/>
		<path id="Path 732" class="s78" d="m489 580l1-11 6 1v6l6 2v8l3 2 25 2 8 8v8l-2 10-6 3v5l-20-2-4-4h-10l-2-8-2-8v-10l2-8z"/>
		<path id="Path 733" class="s74" d="m618 572l5-3 7 1 2 10-2 4h-4l-8-4z"/>
		<path id="Path 734" class="s2" d="m122 573l-4-3 4 2z"/>
		<path id="Path 735" class="s7" d="m342 573v-3l9 2-2 10h-4z"/>
		<path id="Path 736" class="s86" d="m388 572l4-2h8l1 4 7 6 1 10v6l5 4 25-1 3 9-6 1-25-1-4-4h-5v-5l-6-4v-10l-9-3z"/>
		<path id="Path 737" class="s76" d="m502 578l-6-2v-6h6l3 4z"/>
		<path id="Path 738" class="s77" d="m505 574l7-4h8l10 6 1 8-1 6-25-2-3-2v-8z"/>
		<path id="Path 739" class="s45" d="m688 572l6-2 10 2v6l-7 2-9 1z"/>
		<path id="Path 740" class="s0" d="m922 571l2-1-7 7v-1l1-2z"/>
		<path id="Path 741" class="s87" d="m430 575l2-4 4 1v4z"/>
		<path id="Path 742" class="s21" d="m604 574l10-3 4 1v8l-6 2h-5z"/>
		<path id="Path 743" class="s43" d="m808 574l2-3h4l4 8-6 3 4 4-10-1v-1z"/>
		<path id="Path 744" class="s74" d="m222 578l7-6 8 2v8l-7 7v7h-4l-4-8z"/>
		<path id="Path 745" class="s67" d="m349 582l2-10h12v6l-10 11z"/>
		<path id="Path 746" class="s88" d="m436 576v-4h6l7 3-1 4z"/>
		<path id="Path 747" class="s78" d="m449 575l5-3h12l2 16v18l-4 4h-6v-4l-6-2v-3l-9-7h-15l-5-5 3-11 4-3 6 1 12 3z"/>
		<path id="Path 748" class="s71" d="m678 584l-2-12h10 2v9l-3 2h-3z"/>
		<path id="Path 749" class="s25" d="m704 578v-6h6v6h-2z"/>
		<path id="Path 750" class="s0" d="m124 575l-1-2 2 2z"/>
		<path id="Path 751" class="s23" d="m182 580v-6l14 5-2 5h-5z"/>
		<path id="Path 752" class="s46" d="m208 576l2-2 12 4v10l4 8 1 8-5 5-12 1-8-1-1-17 9-2z"/>
		<path id="Path 753" class="s25" d="m738 581v-7h6l3 8z"/>
		<path id="Path 754" class="s5" d="m756 575l6-1 2 9-8-1z"/>
		<path id="Path 755" class="s15" d="m792 584v-10h8 2v10z"/>
		<path id="Path 756" class="s5" d="m802 584v-10h6l-2 10z"/>
		<path id="Path 757" class="s10" d="m137 583l-6-1-7-7h1z"/>
		<path id="Path 758" class="s45" d="m199 579l2-3h7l2 14-9 2-1-2z"/>
		<path id="Path 759" class="s31" d="m531 584l-1-8h8l2 6-3 2z"/>
		<path id="Path 760" class="s22" d="m868 586v-8l10-2v10h-6z"/>
		<path id="Path 761" class="s8" d="m902 581l15-5v1l-8 3-2 2-6 1z"/>
		<path id="Path 762" class="s89" d="m266 588l15-10 11 3 8-3h2l-2 12-8 3v11l-4 4-11-2-1 10-4 2-7-4h-9v-9l5-2v-7l5-3z"/>
		<path id="Path 763" class="s90" d="m292 604v-11l8-3 2-12 19 2 2 8h8l7 4 3 6 11 4-3 8h-7l-5-5h-11l-3 6-9 1-3-5-13-1z"/>
		<path id="Path 764" class="s1" d="m697 580l7-2h4v2z"/>
		<path id="Path 765" class="s66" d="m708 580v-2h2 6z"/>
		<path id="Path 766" class="s1" d="m731 580l-10-2 11 2z"/>
		<path id="Path 767" class="s5" d="m818 579l2-1 6 2v6h-2-8l-4-4z"/>
		<path id="Path 768" class="s51" d="m826 580l6-2h16v8h-22z"/>
		<path id="Path 769" class="s17" d="m189 584h5l2-5h3l1 11h-6l-5-4z"/>
		<path id="Path 770" class="s45" d="m178 585v-5h4l7 4v2z"/>
		<path id="Path 771" class="s91" d="m338 592l-7-4h-8l-2-8h14l3 8z"/>
		<path id="Path 772" class="s83" d="m479 588l5-8h5l5 4-2 8h-10z"/>
		<path id="Path 773" class="s31" d="m612 582l6-2 8 4v4l-10-1z"/>
		<path id="Path 774" class="s46" d="m630 584l2-4h11l5 8-2 2-16-2z"/>
		<path id="Path 775" class="s10" d="m688 581l9-1-12 3z"/>
		<path id="Path 776" class="s20" d="m736 582l-5-2h1l4 1z"/>
		<path id="Path 777" class="s27" d="m736 582v-1h2l9 1 1 1z"/>
		<path id="Path 778" class="s18" d="m898 582l4-1-1 2-10 2h-3z"/>
		<path id="Path 779" class="s92" d="m345 588v-6h4l4 7z"/>
		<path id="Path 780" class="s82" d="m372 594v-5l5-5 10-2 9 3v10l6 4v5l-2 3-8 2 2 16h-7l-4 4-7-1 2-19-5-6z"/>
		<path id="Path 781" class="s21" d="m655 588l3-6 1 6z"/>
		<path id="Path 782" class="s39" d="m754 583l2-1 8 1 1 1h-4z"/>
		<path id="Path 783" class="s4" d="m148 590h-4l-6-7 6 3 1 1 3 2z"/>
		<path id="Path 784" class="s2" d="m678 584l4-1-7 2z"/>
		<path id="Path 785" class="s14" d="m761 585l-8-2h1l7 1z"/>
		<path id="Path 786" class="s48" d="m530 590l1-6h6l5 6v5l-4 3z"/>
		<path id="Path 787" class="s76" d="m587 586v-2h13l2 8h-8l-6-2z"/>
		<path id="Path 788" class="s72" d="m626 588v-4h4v4z"/>
		<path id="Path 789" class="s27" d="m761 585v-1h4 7v1z"/>
		<path id="Path 790" class="s32" d="m772 585v-1h4v1z"/>
		<path id="Path 791" class="s70" d="m776 585v-1h16 10 4v1z"/>
		<path id="Path 792" class="s71" d="m177 604l3-4-6-3v-10l4-2 11 1 5 4h6l1 2 1 17h-5l-1 4-15-5z"/>
		<path id="Path 793" class="s0" d="m816 587l-10-2 10 1z"/>
		<path id="Path 794" class="s14" d="m885 586l3-1h3l-6 2z"/>
		<path id="Path 795" class="s21" d="m555 608l5-4h10l2-13 5-5h10l1 4-6 5v11l-10 1 4 12-4 4v5l4 3 1 9-3 4-9 2h-5l-5-12h-9v-3l-8-5v-10l3-4h9 4z"/>
		<path id="Path 796" class="s32" d="m816 587v-1h8z"/>
		<path id="Path 797" class="s6" d="m872 587l-24-1h20 4z"/>
		<path id="Path 798" class="s70" d="m872 587v-1h6 7v1z"/>
		<path id="Path 799" class="s73" d="m252 596l2-7 7-1h5v5l-5 3z"/>
		<path id="Path 800" class="s92" d="m458 610h6l4-4v-18h11l3 4h10v10l-4 1v6l6 1 2 8v14l-7-2-7 2h-5l-1 4h-7l-7 7-4-1-16-6v-16l-6-5v-6l6-1 10 2z"/>
		<path id="Path 801" class="s25" d="m660 598v-10l4 2v2 1 5z"/>
		<path id="Path 802" class="s66" d="m664 590l3-2-3 4z"/>
		<path id="Path 803" class="s1" d="m148 590v-1l7 4h-1z"/>
		<path id="Path 804" class="s83" d="m409 590l14-1 5 5h15l9 7v3 6l-10-2-3-9-25 1-5-4z"/>
		<path id="Path 805" class="s72" d="m582 606v-11l6-5 6 2v10l8 2v8l-10 8-6 1v8l4 4v7h-13l-1-9-4-3v-5l4-4 7-4z"/>
		<path id="Path 806" class="s43" d="m602 604l-8-2v-10h8z"/>
		<path id="Path 807" class="s14" d="m162 598l-6-1-2-4h1z"/>
		<path id="Path 808" class="s66" d="m664 598v-5l2 5-1 1z"/>
		<path id="Path 809" class="s89" d="m352 602l7-5h6l1-3h6l1 9 5 6-2 19v5l-1 5-11-2-2-17-5-5h-7l-1-4z"/>
		<path id="Path 810" class="s31" d="m227 604l-1-8h4l4 3v5z"/>
		<path id="Path 811" class="s81" d="m245 598l7-2h9v7l-5 2v9l-12 2v-10z"/>
		<path id="Path 812" class="s73" d="m234 599l11-1-1 8-10-2z"/>
		<path id="Path 813" class="s68" d="m653 606l7-8h4l1 1 2 6v2 2l-13 1z"/>
		<path id="Path 814" class="s14" d="m665 599l1-1 1 7z"/>
		<path id="Path 815" class="s71" d="m627 620l-7-7v-10l3-3h13l4 10-2 5z"/>
		<path id="Path 816" class="s69" d="m640 610l-4-10h7l4 6z"/>
		<path id="Path 817" class="s83" d="m494 610l-6-1v-6l4-1z"/>
		<path id="Path 818" class="s0" d="m181 608l-8-5 4 1z"/>
		<path id="Path 819" class="s84" d="m222 609l5-5h7l10 2v10l-12 2h-8z"/>
		<path id="Path 820" class="s93" d="m256 614h9l7 4 4-2 1-10 11 2 4-4 6 2 2 27 13 11h20l3 4v4h-28l-10-6-18-2-3-4-33-8-12-9v-5l12-2z"/>
		<path id="Path 821" class="s92" d="m400 607l2-3h5l4 4-1 4h-8z"/>
		<path id="Path 822" class="s94" d="m452 610v-6l6 2v4z"/>
		<path id="Path 823" class="s91" d="m298 606l13 1 3 5 9-1 3-6h11l5 5h7l1 4h7l5 5 2 17-7 2-4 10-7 3-3-3h-7l-3-4h-20l-13-11z"/>
		<path id="Path 824" class="s11" d="m536 616l2-10 3 6-3 4z"/>
		<path id="Path 825" class="s75" d="m576 619l-4-12 10-1 1 9z"/>
		<path id="Path 826" class="s34" d="m640 610l7-4h6l1 4v6l-4 4h-7l-5-5z"/>
		<path id="Path 827" class="s83" d="m394 625l-2-16 8-2 2 5h8l1-4 25 1v6l6 5v16h-8l-4-7h-4-6l-1 4-5 2-5-10-7 5-6-1z"/>
		<path id="Path 828" class="s14" d="m667 609v-2l2 4h-1z"/>
		<path id="Path 829" class="s75" d="m550 612l1-4h4l-1 4z"/>
		<path id="Path 830" class="s81" d="m196 613l1-4h5l8 1 4 10-1 5-4-2-6-5z"/>
		<path id="Path 831" class="s89" d="m210 610l12-1 2 9-10 2z"/>
		<path id="Path 832" class="s17" d="m654 610l13-1 1 2 1 5-7 2-8-2z"/>
		<path id="Path 833" class="s41" d="m669 616l-1-5h1l3 7z"/>
		<path id="Path 834" class="s6" d="m203 618h-4l-3-5z"/>
		<path id="Path 835" class="s23" d="m627 620l11-5 5 5-5 5v13l-1 2h-7-4v-10l-3-1z"/>
		<path id="Path 836" class="s43" d="m530 624v-5l6-3h2v10l-8 2z"/>
		<path id="Path 837" class="s28" d="m650 620l4-4 8 2-3 9-6 1z"/>
		<path id="Path 838" class="s38" d="m662 618l7-2 3 2 1 3 2 3 4 7 5 11h-7l-3 3-2-8-13-10z"/>
		<path id="Path 839" class="s85" d="m214 620l10-2h8v5l12 9 33 8 3 4 18 2 10 6h28l4 6v4 1h-1-13l-8-2-14-2-5-1-11-3h-1l-6-2-5-2-4-2h-1l-9-3-2-1-7-2h-2l-8-3-7-2-6-2-17-10v-1z"/>
		<path id="Path 840" class="s11" d="m496 632v-14h10l4 4v10z"/>
		<path id="Path 841" class="s10" d="m673 621l-1-3 4 2 5 11h-2l-4-7z"/>
		<path id="Path 842" class="s49" d="m638 638v-13l5-5h7l3 8-3 10z"/>
		<path id="Path 843" class="s48" d="m510 632v-10l20 2v4l-6 6z"/>
		<path id="Path 844" class="s4" d="m213 627l-4-4 4 2v1z"/>
		<path id="Path 845" class="s92" d="m383 629l4-4h7l2 4-1 3h-12z"/>
		<path id="Path 846" class="s11" d="m402 630l7-5 5 10 5-2 5 2v15h-5l-2-7-15-3z"/>
		<path id="Path 847" class="s1" d="m213 627v-1l17 10h-4z"/>
		<path id="Path 848" class="s75" d="m530 628l8-2 8 5v3l-4 4h-13l-5 5v5l-17-2-1 10h-6-8l-3-4h-7v-14-6l7-2 7 2h14l14 2z"/>
		<path id="Path 849" class="s44" d="m653 628l6-1 13 10 2 8-7 10h-9l-8 5-11-2-3-9 2-3 13 1 2-6-3-3z"/>
		<path id="Path 850" class="s86" d="m376 633v-5l7 1v3l-1 1z"/>
		<path id="Path 851" class="s87" d="m383 632h12l1-3 6 1v10l-4 3-6 1-8-5-2-6z"/>
		<path id="Path 852" class="s88" d="m419 633l1-4h6l-2 6z"/>
		<path id="Path 853" class="s77" d="m424 635l2-6h4l4 7h8l16 6v4l4 1v5 8h-8l-2-11-7 3-5 2h-12l-4-4z"/>
		<path id="Path 854" class="s34" d="m596 638h10l6-7 11-2 3 1v10l-16 9v7l-6 2-2-3h-6l-1-14z"/>
		<path id="Path 855" class="s1" d="m684 642l-5-11h2l6 14v1z"/>
		<path id="Path 856" class="s39" d="m476 636l1-4h5v6z"/>
		<path id="Path 857" class="s11" d="m375 638l1-5h6l2 6 8 5-4 8h-8l-4-4z"/>
		<path id="Path 858" class="s71" d="m590 640v-7h4l2 5-1 3z"/>
		<path id="Path 859" class="s72" d="m542 638l4-4h9l5 12v2l-6 4h-10z"/>
		<path id="Path 860" class="s0" d="m236 638l-10-2h4z"/>
		<path id="Path 861" class="s82" d="m353 648l4-10 7-2 11 2 1 10 4 4-3 4h-10l-2-4-7-1z"/>
		<path id="Path 862" class="s48" d="m462 643l7-7h7l6 2v14l-4 4-16-4v-5z"/>
		<path id="Path 863" class="s21" d="m524 648v-5l5-5h13l2 14-1 2h-11z"/>
		<path id="Path 864" class="s15" d="m637 640l1-2h12l3 3-2 6-13-1z"/>
		<path id="Path 865" class="s21" d="m398 643l4-3 15 3 2 7-4 2-2-3h-11z"/>
		<path id="Path 866" class="s68" d="m565 646l9-2 3-4h13l5 1 1 14-4 7h-13l-7 4-12 4-1-6-5-3v-9l6-4 4 2z"/>
		<path id="Path 867" class="s49" d="m610 656v-7l16-9h4v9l-4 9z"/>
		<path id="Path 868" class="s33" d="m630 649v-9h7l1 6-2 3z"/>
		<path id="Path 869" class="s11" d="m462 647l-4-1v-4l4 1z"/>
		<path id="Path 870" class="s15" d="m674 645l3-3h7l3 4 4 11v3l-5 1v5h-7l-5 5-3 26 3 1v10l-5 1-3 5h-7l-5 5v7l-6 3v5l-29 1-2-2v-14l-10-11-3-8h-7l-7 7 2 15h-5l-7-6h-1l-3-2-2-8 1-12 7-4 2-13 6 1 5 8 15 1 4 4v5 5l10 11 5-2 6-1 1-27-10-11v-13l4-9h6l3 9 3 8v5l6 3 2-8v-6l8-5h9z"/>
		<path id="Path 871" class="s0" d="m263 648l-7-1-3-4 7 2 2 1z"/>
		<path id="Path 872" class="s31" d="m392 644l6-1 4 6h11l2 3 4-2h5l4 4h12v6l-9 2h-13l-26-4-4-6z"/>
		<path id="Path 873" class="s4" d="m687 646v-1l5 12h-1z"/>
		<path id="Path 874" class="s41" d="m263 648l-1-2 9 3v1z"/>
		<path id="Path 875" class="s72" d="m506 656l1-10 17 2 8 6v10l-4 1v3l-11-1-4-4h-5z"/>
		<path id="Path 876" class="s45" d="m560 648v-2h5l-1 4z"/>
		<path id="Path 877" class="s89" d="m336 652v-4h7l3 3v7h-6z"/>
		<path id="Path 878" class="s81" d="m346 651l7-3 5 3-2 7h-10z"/>
		<path id="Path 879" class="s4" d="m271 650v-1h1l4 2 5 2z"/>
		<path id="Path 880" class="s82" d="m445 652l7-3 2 11h-7z"/>
		<path id="Path 881" class="s7" d="m356 658l2-7 7 1 2 4-2 8h-7l-2-2z"/>
		<path id="Path 882" class="s7" d="m377 656l3-4h8l4 6-4 6-10-3z"/>
		<path id="Path 883" class="s76" d="m440 654l5-2 2 8-1 2-6-2z"/>
		<path id="Path 884" class="s21" d="m462 660v-8l16 4 4-4h7l3 4v10h-4l-2 4h-1-1l-6-8h-13z"/>
		<path id="Path 885" class="s69" d="m543 654l1-2h10v9l-8 1z"/>
		<path id="Path 886" class="s71" d="m532 664v-10h11l3 8-3 4h-6z"/>
		<path id="Path 887" class="s40" d="m592 662l4-7h6l2 3 6-2 16 2v13l10 11-1 27-6 1-1-6-8-8h-6v-5l-4-4-15-1-5-8z"/>
		<path id="Path 888" class="s87" d="m602 668l10 8 2 7h-4l-9-10z"/>
		<path id="Path 889" class="s34" d="m365 664l2-8h10l1 5 10 3v6 3h-2l-10-5-11-3z"/>
		<path id="Path 890" class="s72" d="m492 666v-10h8v8z"/>
		<path id="Path 891" class="s74" d="m500 664v-8h6l2 7z"/>
		<path id="Path 892" class="s19" d="m691 660v-3h1l2 4v1l1 4v1l-2-1z"/>
		<path id="Path 893" class="s66" d="m304 660l-5-2 5 1z"/>
		<path id="Path 894" class="s80" d="m340 662v-4h6 10v4h-7z"/>
		<path id="Path 895" class="s23" d="m388 664l4-6 26 4v8h-7l-4 2-19-2z"/>
		<path id="Path 896" class="s42" d="m642 666l-3-8 11 2v6z"/>
		<path id="Path 897" class="s16" d="m304 660v-1l14 2v1z"/>
		<path id="Path 898" class="s23" d="m431 662l9-2 6 2 1-2h7 8l3 2v4l2 5h9l1 3v1l2 4 2 5v2l-19-2-11-4-3-5-16-5z"/>
		<path id="Path 899" class="s9" d="m686 666v-5l5-1 2 6z"/>
		<path id="Path 900" class="s4" d="m318 662v-1l8 2z"/>
		<path id="Path 901" class="s28" d="m546 662l8-1 5 3 1 6-3 3-11-1-3-6z"/>
		<path id="Path 902" class="s77" d="m340 663v-1h9v2z"/>
		<path id="Path 903" class="s34" d="m418 670v-8h13l1 8z"/>
		<path id="Path 904" class="s17" d="m465 666v-4h13l6 8-8 1-1-4z"/>
		<path id="Path 905" class="s49" d="m572 666l7-4h13l-2 16-6-1-4-6-8-1z"/>
		<path id="Path 906" class="s4" d="m695 666l-1-4 3 5z"/>
		<path id="Path 907" class="s14" d="m350 665l-11-2h1l9 1h1z"/>
		<path id="Path 908" class="s17" d="m500 664l8-1h5l4 4-3 5h-3l-7-1h-7l-11-1 2-4h4z"/>
		<path id="Path 909" class="s0" d="m350 665v-1h7v1z"/>
		<path id="Path 910" class="s27" d="m357 665v-1h1 7v1h-1z"/>
		<path id="Path 911" class="s68" d="m528 668v-3l4-1 5 2-2 7h-5z"/>
		<path id="Path 912" class="s14" d="m376 668l-12-3h1z"/>
		<path id="Path 913" class="s15" d="m476 671h-9l-2-5 10 1z"/>
		<path id="Path 914" class="s38" d="m535 673l2-7h6l3 6 11 1 3-3 12-4v4l-8 6v11l-4 2v15h-10l-8-12h-6v-8z"/>
		<path id="Path 915" class="s44" d="m650 666l-2 8-6-3v-5z"/>
		<path id="Path 916" class="s24" d="m674 698l-3-1 3-26 5-5h7 7l2 1 2 7-4 8h-7l-6 14z"/>
		<path id="Path 917" class="s30" d="m695 667v-1l2 1 2 6 1 5-3-4z"/>
		<path id="Path 918" class="s34" d="m514 672l3-5 11 1 2 5-2 11-2 5h-2l-1-2-2-4-3-5z"/>
		<path id="Path 919" class="s28" d="m388 673v-3l19 2 4 2 19 15-12-1h-1l-3-2-10-5-8-3-6-3z"/>
		<path id="Path 920" class="s33" d="m407 672l4-2v4z"/>
		<path id="Path 921" class="s36" d="m411 674v-4h7 14l16 5 3 5 11 4 2 11h-10l-6-2h-1l-10-4h-4-3z"/>
		<path id="Path 922" class="s1" d="m476 671l8-1h1v2l-8 2z"/>
		<path id="Path 923" class="s18" d="m485 672v-2h1l11 1v1z"/>
		<path id="Path 924" class="s40" d="m560 704v-15l4-2v-11l8-6 8 1 4 6-2 13-7 4-1 12h-4z"/>
		<path id="Path 925" class="s95" d="m497 672v-1h7v1z"/>
		<path id="Path 926" class="s10" d="m504 672v-1l7 1v1z"/>
		<path id="Path 927" class="s16" d="m511 673v-1h3l4 6z"/>
		<path id="Path 928" class="s4" d="m389 675l-3-2h2l2 2z"/>
		<path id="Path 929" class="s33" d="m528 684l2-11h5l1 11z"/>
		<path id="Path 930" class="s0" d="m700 678l-1-5 2 6h-1z"/>
		<path id="Path 931" class="s13" d="m693 682l4-8 3 4v1l2 4v17 5l-3 10v1l-3 3-6-1v-8l4-16z"/>
		<path id="Path 932" class="s10" d="m396 678l-7-3h1z"/>
		<path id="Path 933" class="s20" d="m405 683l-9-5 8 3z"/>
		<path id="Path 934" class="s14" d="m481 684l-2-5 5 7z"/>
		<path id="Path 935" class="s6" d="m702 683l-2-4h1z"/>
		<path id="Path 936" class="s41" d="m405 683l-1-2 10 5-8-3z"/>
		<path id="Path 937" class="s22" d="m674 698l6-2 6-14h7l1 12-4 16-16-2z"/>
		<path id="Path 938" class="s0" d="m417 688l-11-5 8 3z"/>
		<path id="Path 939" class="s6" d="m702 700v-17l2 17z"/>
		<path id="Path 940" class="s5" d="m464 695l-2-11 19 2 4 5-3 7-5 3-9-2z"/>
		<path id="Path 941" class="s30" d="m481 686v-2l3 2 3 4v1h-2z"/>
		<path id="Path 942" class="s36" d="m526 689l2-5h8v8 10h-3l-5-7-2-5z"/>
		<path id="Path 943" class="s18" d="m433 690l-12 2-3-4 12 1h3z"/>
		<path id="Path 944" class="s30" d="m433 689h4v1h-4z"/>
		<path id="Path 945" class="s18" d="m437 690v-1l10 4z"/>
		<path id="Path 946" class="s41" d="m524 690v-1h2v1z"/>
		<path id="Path 947" class="s0" d="m487 691v-1h4l6 7-7-4z"/>
		<path id="Path 948" class="s8" d="m528 695l-4-5h2z"/>
		<path id="Path 949" class="s15" d="m482 698l3-7h2l3 2v6z"/>
		<path id="Path 950" class="s15" d="m536 702v-10h6l8 12v4l-4 2-7-7h-1z"/>
		<path id="Path 951" class="s0" d="m459 698l-8-1-3-4 6 2z"/>
		<path id="Path 952" class="s38" d="m490 699v-6l7 4h1l3 3-1 6h-6l-2-1z"/>
		<path id="Path 953" class="s46" d="m459 698l-5-3h10l4 4-5-1z"/>
		<path id="Path 954" class="s8" d="m533 703l-4-2-1-6 5 7z"/>
		<path id="Path 955" class="s42" d="m629 710l-5 2-10-11v-5h6l8 8z"/>
		<path id="Path 956" class="s0" d="m501 700l-3-3 7 3v1z"/>
		<path id="Path 957" class="s18" d="m480 703l-12-1-5-4 5 1 9 2z"/>
		<path id="Path 958" class="s28" d="m477 701l5-3 8 1 2 6h-3-2l-6-2h-1z"/>
		<path id="Path 959" class="s33" d="m500 706l1-6 4 1 1 1v4z"/>
		<path id="Path 960" class="s66" d="m505 701v-1l2 2h-1z"/>
		<path id="Path 961" class="s42" d="m592 722l-2-15 7-7h7l3 8 10 11v14l-5-1-4-6-4-2-2 4-2 2h-5z"/>
		<path id="Path 962" class="s28" d="m506 706v-4h1 1l3 4z"/>
		<path id="Path 963" class="s66" d="m511 706l-3-4 6 2-3 4z"/>
		<path id="Path 964" class="s16" d="m533 703v-1h3l2 1z"/>
		<path id="Path 965" class="s4" d="m544 711l-5-8 7 7v1z"/>
		<path id="Path 966" class="s5" d="m546 710l4-2v-4h10l10 2v8h-8l-2 4v3h-3l-11-10z"/>
		<path id="Path 967" class="s14" d="m494 707l-5-2h3l2 1z"/>
		<path id="Path 968" class="s27" d="m494 707v-1h6v2z"/>
		<path id="Path 969" class="s6" d="m500 708v-2h6 5v2z"/>
		<path id="Path 970" class="s42" d="m570 714v-8h4l2 8h-5z"/>
		<path id="Path 971" class="s12" d="m666 714l3-5 5-1 16 2v8l-23 4z"/>
		<path id="Path 972" class="s1" d="m557 723h-3l-10-12h2l11 10z"/>
		<path id="Path 973" class="s41" d="m560 718l2-4h8 1v2l-5 1-4 1z"/>
		<path id="Path 974" class="s39" d="m571 716v-2h5l3 2z"/>
		<path id="Path 975" class="s5" d="m654 726v-7l5-5h7l1 8-3 4z"/>
		<path id="Path 976" class="s14" d="m566 717l5-1h8 1v2z"/>
		<path id="Path 977" class="s37" d="m580 718v-2l7 6v2l-3-2z"/>
		<path id="Path 978" class="s10" d="m696 719l3-3-3 10-4 2z"/>
		<path id="Path 979" class="s37" d="m557 721h3v-3h2v5h-5z"/>
		<path id="Path 980" class="s47" d="m667 722l23-4 6 1-4 9v1l-5 6h-1l-25-3-9 5-4-3v-5l6-3h10z"/>
		<path id="Path 981" class="s2" d="m592 730h-3l-5-8 3 2z"/>
		<path id="Path 982" class="s49" d="m587 724v-2h5l3 8h-1-1-1z"/>
		<path id="Path 983" class="s2" d="m602 728l2-4 4 2v1z"/>
		<path id="Path 984" class="s27" d="m608 727v-1l4 6 1 3z"/>
		<path id="Path 985" class="s0" d="m600 730l2-2-3 5z"/>
		<path id="Path 986" class="s0" d="m596 733l-3-3h1z"/>
		<path id="Path 987" class="s41" d="m596 733l-2-3h1 5l-1 3z"/>
		<path id="Path 988" class="s29" d="m613 735l-1-3 5 1 2 2v5l-6-4z"/>
		<path id="Path 989" class="s13" d="m652 737l9-5 25 3-4 6-8 7h-2l-6 3h-2-1-5l-6-1z"/>
		<path id="Path 990" class="s12" d="m619 735l29-1 4 3v13 1h-1-1l-5-1h-1l-8-2h-2l-15-8z"/>
		<path id="Path 991" class="s0" d="m682 741l4-6h1l-1 5-4 2z"/>
		<path id="Path 992" class="s4" d="m634 748l-13-3-8-9 6 4z"/>
		<path id="Path 993" class="s14" d="m674 748l8-7v1l-3 5z"/>
		<path id="Path 994" class="s20" d="m637 750l-3-2h2z"/>
		<path id="Path 995" class="s1" d="m637 750l-1-2 8 2h-3z"/>
		<path id="Path 996" class="s30" d="m666 751l6-3v2h-1l-3 1z"/>
		<path id="Path 997" class="s66" d="m672 750v-2h2z"/>
		<path id="Path 998" class="s10" d="m645 752l-4-2h3 1z"/>
		<path id="Path 999" class="s16" d="m645 752v-2l5 1v1z"/>
		<path id="Path 1000" class="s31" d="m652 751v-1l6 1v1z"/>
		<path id="Path 1001" class="s2" d="m668 751l3-1-3 2z"/>
		<path id="Path 1002" class="s32" d="m650 751h1v1h-1z"/>
		<path id="Path 1003" class="s66" d="m651 752v-1h1l6 1 5-1h1v1 1h-13z"/>
		<path id="Path 1004" class="s87" d="m658 752v-1h5z"/>
		<path id="Path 1005" class="s27" d="m664 752v-1h2 2v1z"/>
	</g>
</svg>