<svg version="1.2" xmlns="http://www.w3.org/2000/svg" viewBox="0 0 1000 1000" width="1000" height="1000">
	<title>Lepomis_cyanellus</title>
	<style>
		.s0 { opacity: .1;fill: #c3c3ae } 
		.s1 { opacity: .8;fill: #e2e0d4 } 
		.s2 { opacity: .5;fill: #c5c6b4 } 
		.s3 { opacity: .3;fill: #eeede7 } 
		.s4 { opacity: .1;fill: #e7e6dc } 
		.s5 { fill: #9d9e82 } 
		.s6 { fill: #707049 } 
		.s7 { fill: #828a72 } 
		.s8 { fill: #969575 } 
		.s9 { opacity: 1;fill: #e4e1d0 } 
		.s10 { opacity: .6;fill: #d6d6ca } 
		.s11 { opacity: .6;fill: #edece5 } 
		.s12 { opacity: 1;fill: #8c9279 } 
		.s13 { fill: #788069 } 
		.s14 { opacity: .7;fill: #bbbdac } 
		.s15 { fill: #8f8553 } 
		.s16 { opacity: .4;fill: #a3a38c } 
		.s17 { fill: #757453 } 
		.s18 { opacity: 1;fill: #b1b5a4 } 
		.s19 { fill: #676745 } 
		.s20 { opacity: .8;fill: #f7f5f0 } 
		.s21 { opacity: .5;fill: #f9f8f5 } 
		.s22 { fill: #5d5e3c } 
		.s23 { fill: #bdbea9 } 
		.s24 { fill: #687059 } 
		.s25 { fill: #707864 } 
		.s26 { fill: #4d4924 } 
		.s27 { fill: #443f1c } 
		.s28 { fill: #545e48 } 
		.s29 { fill: #898964 } 
		.s30 { fill: #858f81 } 
		.s31 { fill: #4a5138 } 
		.s32 { fill: #a1a68e } 
		.s33 { opacity: .8;fill: #a8aa96 } 
		.s34 { fill: #5d6752 } 
		.s35 { fill: #312f1a } 
		.s36 { fill: #2f392e } 
		.s37 { fill: #222c1e } 
		.s38 { fill: #606e62 } 
		.s39 { fill: #414d40 } 
		.s40 { fill: #344233 } 
		.s41 { fill: #383d29 } 
		.s42 { fill: #4f5d51 } 
		.s43 { opacity: .3;fill: #d1d2c7 } 
		.s44 { fill: #0f130a } 
		.s45 { fill: #2c3325 } 
		.s46 { fill: #1d2417 } 
		.s47 { fill: #141c0e } 
		.s48 { fill: #717f73 } 
		.s49 { fill: #aba072 } 
		.s50 { opacity: .6;fill: #989a83 } 
		.s51 { fill: #475546 } 
		.s52 { fill: #9f9566 } 
		.s53 { opacity: .8;fill: #868c81 } 
		.s54 { fill: #687669 } 
		.s55 { fill: #424731 } 
		.s56 { fill: #38493c } 
		.s57 { fill: #050804 } 
		.s58 { fill: #7e7f57 } 
		.s59 { fill: #545332 } 
		.s60 { opacity: 1;fill: #cecebd } 
		.s61 { opacity: 1;fill: #d8c484 } 
		.s62 { fill: #80743e } 
		.s63 { fill: #5d521f } 
		.s64 { fill: #7a887a } 
		.s65 { fill: #685d2e } 
		.s66 { fill: #7b6520 } 
		.s67 { fill: #566659 } 
		.s68 { fill: #786f40 } 
		.s69 { fill: #736835 } 
		.s70 { fill: #243326 } 
		.s71 { fill: #8b9585 } 
		.s72 { fill: #939d8d } 
		.s73 { fill: #988c5a } 
		.s74 { fill: #efd587 } 
		.s75 { opacity: 1;fill: #e7dbaa } 
		.s76 { fill: #64786e } 
		.s77 { fill: #fae793 } 
		.s78 { fill: #a5ac99 } 
		.s79 { opacity: 1;fill: #f0efe2 } 
		.s80 { fill: #b8ad7f } 
		.s81 { opacity: .1;fill: #929480 } 
		.s82 { opacity: .2;fill: #707058 } 
		.s83 { fill: #c9bd91 } 
		.s84 { fill: #857a4a } 
		.s85 { opacity: .1;fill: #fbfaf7 } 
		.s86 { fill: #92762b } 
		.s87 { fill: #c0a45c } 
		.s88 { fill: #9e8744 } 
		.s89 { fill: #ad9756 } 
		.s90 { fill: #8f7e43 } 
		.s91 { fill: #c8b16f } 
		.s92 { fill: #b99543 } 
		.s93 { fill: #ac8835 } 
		.s94 { fill: #d8b25e } 
		.s95 { fill: #c69f4a } 
		.s96 { fill: #eac671 } 
		.s97 { fill: #fbf2b0 } 
	</style>
	<g id="Background">
		<path id="Path 0" class="s0" d="m294 427h1v1h-1z"/>
		<path id="Path 1" class="s1" d="m593 378v-1h9v1l-1 1h-5-3z"/>
		<path id="Path 2" class="s2" d="m602 378v-1h12v1z"/>
		<path id="Path 3" class="s1" d="m614 378v-1h11v2h-10z"/>
		<path id="Path 4" class="s0" d="m625 379v-2h4l4 1v1h-1z"/>
		<path id="Path 5" class="s3" d="m574 383l16-5v1l-12 5h-3z"/>
		<path id="Path 6" class="s4" d="m590 379v-1h3v1z"/>
		<path id="Path 7" class="s5" d="m601 379l1-1h12l1 1-4 6h-7l-3-3z"/>
		<path id="Path 8" class="s4" d="m633 379v-1l6 2z"/>
		<path id="Path 9" class="s5" d="m578 384l12-5h3 3l-8 10h-1-3z"/>
		<path id="Path 10" class="s6" d="m588 389l8-10h5v3l-4 4z"/>
		<path id="Path 11" class="s7" d="m611 385l4-6h10 7l5 2v8l-2 2-21 2z"/>
		<path id="Path 12" class="s1" d="m637 381l-5-2h1l6 1v1z"/>
		<path id="Path 13" class="s4" d="m639 381v-1l7 2z"/>
		<path id="Path 14" class="s8" d="m637 389v-8h2l7 1 1 1-2 6z"/>
		<path id="Path 15" class="s3" d="m452 390l9-8 11 1v3h-1l-3-3-7 2-3 3-5 3z"/>
		<path id="Path 16" class="s8" d="m597 386l4-4 3 3z"/>
		<path id="Path 17" class="s4" d="m647 383l-1-1 8 3z"/>
		<path id="Path 18" class="s3" d="m438 386l2-3 2 2z"/>
		<path id="Path 19" class="s9" d="m461 385l7-2 3 3z"/>
		<path id="Path 20" class="s10" d="m478 388l7-5 2 5v1h-2l-1-2-4 2h-2z"/>
		<path id="Path 21" class="s11" d="m558 392l3-4 13-5 1 1-7 4z"/>
		<path id="Path 22" class="s7" d="m645 389l2-6 7 2 3 2h1l4 2 7 5v5h-4l-7-1-2-4-11 1z"/>
		<path id="Path 23" class="s7" d="m568 388l7-4h3l6 5-4 4-12-2z"/>
		<path id="Path 24" class="s3" d="m428 388l4-3-1 5z"/>
		<path id="Path 25" class="s1" d="m438 386l4-1 2 3 6-1v1l-6 2-7-1v-2z"/>
		<path id="Path 26" class="s12" d="m458 388l3-3 10 1h1v1l-1 2h-9z"/>
		<path id="Path 27" class="s13" d="m597 386l7-1h7l3 8-6 5v6l-7 3-4-2-10-10v-6h1z"/>
		<path id="Path 28" class="s3" d="m414 392l6-5-2 3z"/>
		<path id="Path 29" class="s14" d="m418 390l2-3h4l2 2v1h-2-5z"/>
		<path id="Path 30" class="s3" d="m426 389l-2-2 2 1z"/>
		<path id="Path 31" class="s3" d="m433 392l4-5v2l-1 2z"/>
		<path id="Path 32" class="s3" d="m450 388v-1l2 3z"/>
		<path id="Path 33" class="s2" d="m471 389l1-2 6 1v1l-7 3z"/>
		<path id="Path 34" class="s15" d="m480 389l4-2 1 2 6 3v1h-6z"/>
		<path id="Path 35" class="s0" d="m662 389l-4-2 4 1z"/>
		<path id="Path 36" class="s16" d="m426 389v-1h2l3 2 2 2h-4l-3-2z"/>
		<path id="Path 37" class="s17" d="m437 389l7 1v1l-1 2-7-2z"/>
		<path id="Path 38" class="s18" d="m444 390l6-2 2 2 1 1h-7-2z"/>
		<path id="Path 39" class="s19" d="m453 391l5-3 4 1-1 16 3 7-2 2h-13l-3-4-6 3-11-1-2-11 2-9h4l3-1 7 2 1 4h3l-1-6z"/>
		<path id="Path 40" class="s4" d="m487 389v-1l5 2h-1z"/>
		<path id="Path 41" class="s20" d="m503 390l4-2v4h-1l-3-1z"/>
		<path id="Path 42" class="s9" d="m558 392l10-4v3l-5 4-5-2z"/>
		<path id="Path 43" class="s21" d="m662 389v-1l17 9h-2l-8-3z"/>
		<path id="Path 44" class="s22" d="m419 390h5l-1 10-9 1-3-1v-3z"/>
		<path id="Path 45" class="s6" d="m464 412l-3-7 1-16h9v3l-1 19z"/>
		<path id="Path 46" class="s19" d="m471 392l7-3h2l5 4 2 16-3 4-14-2z"/>
		<path id="Path 47" class="s23" d="m491 392l-6-3h2l4 1z"/>
		<path id="Path 48" class="s24" d="m568 391l12 2 4-4h3v6l10 10-7 8h-3l-10 1-2 14-12 1-6-4v-11l-10-9v-5l3-2 2 3h7l4-6z"/>
		<path id="Path 49" class="s25" d="m635 391l2-2h8v6l-8 2z"/>
		<path id="Path 50" class="s18" d="m414 392l4-2h1l-8 7h-3z"/>
		<path id="Path 51" class="s26" d="m423 400l1-10h2l3 2-2 9z"/>
		<path id="Path 52" class="s2" d="m491 392v-2h1v3h6l1-3h4v1l-4 3-1 1-5 1-2-3z"/>
		<path id="Path 53" class="s27" d="m443 393l1-2h2l1 6h-3z"/>
		<path id="Path 54" class="s23" d="m499 394l4-3 3 1v1z"/>
		<path id="Path 55" class="s28" d="m614 393l21-2 2 6v15l-10 1-12-2-5-4-2-3v-6z"/>
		<path id="Path 56" class="s11" d="m401 398l13-6-6 5-20 10-6 2h-1v-1l15-7 2-1z"/>
		<path id="Path 57" class="s9" d="m506 393v-1h1 6v7h-1v-3l-4-1z"/>
		<path id="Path 58" class="s4" d="m513 399v-7l1 5h5l-4 2z"/>
		<path id="Path 59" class="s2" d="m548 397l3-4 7-1v1l-8 4z"/>
		<path id="Path 60" class="s22" d="m487 409l-2-16h6l2 3 5-1 9 2 1-2 4 1v3l1 2v6l-14 5-2 6h-8l-1-1 2-7z"/>
		<path id="Path 61" class="s29" d="m499 394l7-1 2 2-1 2-9-2z"/>
		<path id="Path 62" class="s30" d="m550 397l8-4 5 2-4 6h-7l-2-3z"/>
		<path id="Path 63" class="s31" d="m645 395l11-1 2 4 7 1v5l-6 3h-9l-7 5h-6v-15z"/>
		<path id="Path 64" class="s12" d="m669 399v-5l8 3v2z"/>
		<path id="Path 65" class="s11" d="m521 397l8-2 2 3v1h-1z"/>
		<path id="Path 66" class="s24" d="m388 407l20-10h3v3h-4l-7 8-6 1z"/>
		<path id="Path 67" class="s32" d="m515 399l4-2h2l9 2v2l-13-1h-2z"/>
		<path id="Path 68" class="s0" d="m531 398l16-1-3 2h-3-10z"/>
		<path id="Path 69" class="s7" d="m544 399l3-2h1 2v1l-3 2z"/>
		<path id="Path 70" class="s32" d="m677 399v-2h2l6 4v16h-3l-4-5v-3l-8 1-1-6 10-1 1-3z"/>
		<path id="Path 71" class="s3" d="m685 401l-6-4 8 4z"/>
		<path id="Path 72" class="s7" d="m513 401l-1-2h1 2v1z"/>
		<path id="Path 73" class="s28" d="m517 400l13 1h5l-2 6 2 1v11h-14l-4-2v-10z"/>
		<path id="Path 74" class="s33" d="m530 401v-2h1 10l-1 2h-5z"/>
		<path id="Path 75" class="s34" d="m540 401l1-2h3l3 1v5h-6z"/>
		<path id="Path 76" class="s19" d="m665 404v-5h4 8l3 1-1 3-10 1z"/>
		<path id="Path 77" class="s35" d="m400 408l7-8h4l3 1-1 12-10 2z"/>
		<path id="Path 78" class="s31" d="m414 401l9-1 4 1 2 11v1h-15-1z"/>
		<path id="Path 79" class="s24" d="m513 401l2-1h2v7h-4z"/>
		<path id="Path 80" class="s36" d="m535 408l-2-1 2-6h5l1 4z"/>
		<path id="Path 81" class="s1" d="m685 417v-16h2l2 27-2-2z"/>
		<path id="Path 82" class="s37" d="m601 407l7-3 2 3-9 4z"/>
		<path id="Path 83" class="s12" d="m659 407l6-3h4l1 6-2 4-5 2h-1l-3-3z"/>
		<path id="Path 84" class="s38" d="m535 408l6-3h6l10 9v11l-14 1-8-2v-5z"/>
		<path id="Path 85" class="s39" d="m590 413l7-8 4 2v4l-2 4z"/>
		<path id="Path 86" class="s40" d="m382 409l6-2 6 2-1 2h-12z"/>
		<path id="Path 87" class="s41" d="m497 418l2-6 14-5h4v10l-2 5z"/>
		<path id="Path 88" class="s42" d="m601 411l9-4 5 4-4 3v11l7 2v4l-1 8-14-3v-7l-8-2-2-6h-6v-8h3l9 2z"/>
		<path id="Path 89" class="s5" d="m643 412l7-5h9v6l-13 5z"/>
		<path id="Path 90" class="s43" d="m376 410l5-2v1z"/>
		<path id="Path 91" class="s44" d="m394 409l6-1 3 7 10-2h1l-5 12-10 7v9l-14 4-17 2h-12l-9-12-1-9 13-5 27 2 5-3 2-9z"/>
		<path id="Path 92" class="s33" d="m376 410l5-1h1l-1 2-14 3 2-2h4z"/>
		<path id="Path 93" class="s45" d="m484 413l3-4 3 1-2 7h-3z"/>
		<path id="Path 94" class="s17" d="m670 410l8-1v3l-10 2z"/>
		<path id="Path 95" class="s44" d="m429 412l11 1 6-3 3 4h13l3 19h-19l-2-9-9-3-6-8z"/>
		<path id="Path 96" class="s46" d="m367 414l14-3h12l-2 9-5 3-27-2-1-4 8-3z"/>
		<path id="Path 97" class="s47" d="m464 412l6-1 14 2 1 4h3l1 1v5l-6 3v7l-4 1v3h-9l-3-1-2-3-3-19z"/>
		<path id="Path 98" class="s48" d="m618 427l-7-2v-11l4-3 12 2-4 14z"/>
		<path id="Path 99" class="s3" d="m366 413l3-1-2 2h-1z"/>
		<path id="Path 100" class="s38" d="m575 428l2-14 10-1v8l-4 3v9h-5z"/>
		<path id="Path 101" class="s13" d="m627 413l10-1h6l3 6-1 4-2 13v3l-8 1-4-6-8-2v-4z"/>
		<path id="Path 102" class="s49" d="m668 414l10-2 4 5v7l5 2 2 2v8 11 3l-2 8-8 9h-1v-6l5-2 1-4-11-2-1-6-3-1v-9l-6-12v-9z"/>
		<path id="Path 103" class="s50" d="m354 415l12-2v1l-8 3h-4z"/>
		<path id="Path 104" class="s47" d="m399 441v-9l10-7 5-12h15l6 8 9 3 2 9-2 4-27 2-3 3z"/>
		<path id="Path 105" class="s19" d="m646 418l13-5 3 3-5 3-12 3z"/>
		<path id="Path 106" class="s11" d="m348 417l6-2v2z"/>
		<path id="Path 107" class="s8" d="m657 419l5-3h1v9h-4z"/>
		<path id="Path 108" class="s37" d="m333 419l11-2h4 6 4l1 4-13 5-22 1-3 6-28 3v-1-4l5-2 5-2 22-6 7-2z"/>
		<path id="Path 109" class="s51" d="m515 422l2-5 4 2v3z"/>
		<path id="Path 110" class="s5" d="m687 426l-5-2v-7h3z"/>
		<path id="Path 111" class="s43" d="m324 420l8-1-7 1z"/>
		<path id="Path 112" class="s46" d="m483 433v-7l6-3v-5h8l18 4h6l5 2 3 25h-8l-5-4-13-1-3-4h-8z"/>
		<path id="Path 113" class="s33" d="m325 420l7-1-7 2z"/>
		<path id="Path 114" class="s42" d="m521 422v-3h14v5h-9z"/>
		<path id="Path 115" class="s29" d="m645 422l12-3 2 6v10l6 11v2h-4-4v-9l-3-3-11-1z"/>
		<path id="Path 116" class="s50" d="m299 427l6-4 19-3h1v1l-22 6z"/>
		<path id="Path 117" class="s48" d="m583 433v-9l4-3h6l2 6-2 5-6 1z"/>
		<path id="Path 118" class="s37" d="m529 449l-3-25h9l8 2 4 23v4h-10z"/>
		<path id="Path 119" class="s47" d="m321 433l3-6 22-1 1 9 9 12-9 12-10 1h-1v-5l-7-8h-8z"/>
		<path id="Path 120" class="s46" d="m543 426l14-1 6 4v4l-8 9v7h-8z"/>
		<path id="Path 121" class="s52" d="m665 446l-6-11v-10h4l6 12v9z"/>
		<path id="Path 122" class="s14" d="m294 428l1-1h3v2l-5 2h-2v-1z"/>
		<path id="Path 123" class="s53" d="m298 429v-2h1 4z"/>
		<path id="Path 124" class="s54" d="m593 432l2-5 8 2v7l-8 1z"/>
		<path id="Path 125" class="s25" d="m618 431v-4h5v4z"/>
		<path id="Path 126" class="s47" d="m563 429l12-1 3 5h5 4v6 12l-4 10-6-1-2-3h-6l-4-4h-7l-3-4v-7l8-9z"/>
		<path id="Path 127" class="s21" d="m689 436v-8l2 8z"/>
		<path id="Path 128" class="s2" d="m276 437l10-7h5v1l-1 1-10 4z"/>
		<path id="Path 129" class="s45" d="m290 432l1-1h2v4h-3z"/>
		<path id="Path 130" class="s55" d="m617 439l1-8h5l8 2 4 6-5 25h-3l-2-11 2-8-10-2z"/>
		<path id="Path 131" class="s56" d="m280 436l10-4v3l-3 3h-8z"/>
		<path id="Path 132" class="s38" d="m587 433l6-1 2 5-1 2h-7z"/>
		<path id="Path 133" class="s57" d="m293 436l28-3v14 8l-9 2-5 1v5l-1 3-7 3-9 1-1-3-12 1-2 8h-4l-5 7-12 2-10 9h-6l-13-1h-14l-2-8 2-2 14-4 6-6v-6h6l4-6h5l8-6 24-6 13-8z"/>
		<path id="Path 134" class="s40" d="m444 437l2-4h19l2 3-8 9h-12l-3-2z"/>
		<path id="Path 135" class="s39" d="m479 437v-3l4-1 9 7h8l3 4-5 3-16-4z"/>
		<path id="Path 136" class="s44" d="m279 438h8l3-3h3v1l-2 5-13 8-24 6v-4l11-6 9-1 2-5z"/>
		<path id="Path 137" class="s58" d="m643 438v-3l11 1 3 3v9l-9-1-1-8z"/>
		<path id="Path 138" class="s53" d="m276 437l4-1-1 2-3 1h-3z"/>
		<path id="Path 139" class="s39" d="m459 445l8-9 3 1v6l3 2-2 14h-6v-7z"/>
		<path id="Path 140" class="s51" d="m595 437l8-1 14 3v4 3h-7l-10-2-6-5z"/>
		<path id="Path 141" class="s11" d="m689 447v-11h2v11z"/>
		<path id="Path 142" class="s39" d="m414 442l3-3 27-2v6l3 2v14l-8 7v5h-12l-6-2-3-12 1-10z"/>
		<path id="Path 143" class="s51" d="m471 459l2-14-3-2v-6h9l3 6 16 4 5-3 13 1 5 4v16 7l-6 3-6-1-2-6-11-1-2 3-3 1-7-6h-10z"/>
		<path id="Path 144" class="s59" d="m635 439l8-1 4 1 1 8-3 1v12 9l-11-1-4-4z"/>
		<path id="Path 145" class="s11" d="m258 445l10-6h4l-7 5-7 2z"/>
		<path id="Path 146" class="s45" d="m265 444l7-5h1 3l-2 5-9 1z"/>
		<path id="Path 147" class="s46" d="m583 461l4-10v-12h7l6 5 10 2-1 10 10 9v9l-18-3-10-2z"/>
		<path id="Path 148" class="s4" d="m834 442l17-2v1h-2-6l-8 1z"/>
		<path id="Path 149" class="s3" d="m851 441v-1l6 2z"/>
		<path id="Path 150" class="s40" d="m385 445l14-4 15 1 5 5-1 10-17 1-9-1-7-8z"/>
		<path id="Path 151" class="s60" d="m835 442l8-1v2h-8z"/>
		<path id="Path 152" class="s23" d="m843 443v-2h6v2z"/>
		<path id="Path 153" class="s9" d="m849 443v-2h2l6 1v1h-3z"/>
		<path id="Path 154" class="s2" d="m818 447l5-4 11-1h1v1l-14 4z"/>
		<path id="Path 155" class="s3" d="m857 443v-1l8 1 4 4z"/>
		<path id="Path 156" class="s31" d="m617 446v-3l10 2-2 8-7-1z"/>
		<path id="Path 157" class="s7" d="m821 447l14-4h8v6h-13l-3 6h-4z"/>
		<path id="Path 158" class="s29" d="m843 449v-6h6 5l3 3v9l6 4 2 10-3 1-4-4-9-1v-7z"/>
		<path id="Path 159" class="s61" d="m857 446l-3-3h3l12 4 3 3 1 2-2 3z"/>
		<path id="Path 160" class="s56" d="m258 446l7-2v1l-11 6h-2z"/>
		<path id="Path 161" class="s2" d="m241 455l13-10h4v1l-6 5-9 4z"/>
		<path id="Path 162" class="s36" d="m368 447l17-2v4l7 8 9 1-9 7-16 4-11-4z"/>
		<path id="Path 163" class="s51" d="m447 459v-14h12l6 7v7h-2z"/>
		<path id="Path 164" class="s37" d="m619 465l-10-9 1-10h7l1 6 7 1 2 11z"/>
		<path id="Path 165" class="s62" d="m665 448v-2h4l3 1 1 6h-5z"/>
		<path id="Path 166" class="s52" d="m865 469l-2-10-6-4v-9l14 9 3 8-3 1v5z"/>
		<path id="Path 167" class="s45" d="m321 455v-8h8l7 8v5l-11 1z"/>
		<path id="Path 168" class="s45" d="m347 459l9-12h12l-3 18-6 2-8-2z"/>
		<path id="Path 169" class="s63" d="m645 460v-12l3-1 9 1h4v11l-7 1z"/>
		<path id="Path 170" class="s21" d="m689 450v-3h2l-2 6z"/>
		<path id="Path 171" class="s64" d="m808 450l8-3h2 3l2 8-8 5v3h-8l-5-10v-1h1z"/>
		<path id="Path 172" class="s65" d="m661 459v-11h4l3 5h5v8l-4 1v4h-4z"/>
		<path id="Path 173" class="s39" d="m521 465v-16h8l8 4v10 4z"/>
		<path id="Path 174" class="s36" d="m547 453v-4h8l3 4-1 2z"/>
		<path id="Path 175" class="s13" d="m827 455l3-6h13l6 9v7l-4 2v7l6 2 2 5-1 4h-1-13l-3-2v-8l-8-10z"/>
		<path id="Path 176" class="s1" d="m687 458l2-8v3 5z"/>
		<path id="Path 177" class="s46" d="m243 455l9-4h2v4l-8 6h-5l-4 6h-6-5l4-4z"/>
		<path id="Path 178" class="s43" d="m791 454l11-2v1l-6 1z"/>
		<path id="Path 179" class="s60" d="m871 455l2-3 4 11 1 5-4-5z"/>
		<path id="Path 180" class="s42" d="m537 463v-10h10l10 2 2 4h10l2 4 6-3 6 1 8 8 1 9 5 1 2 10-6 1-8-3-4-7-23-3-7-6-2-8z"/>
		<path id="Path 181" class="s56" d="m557 455l1-2h7l4 4v2h-10z"/>
		<path id="Path 182" class="s66" d="m673 461v-8l11 2-1 4-5 2z"/>
		<path id="Path 183" class="s48" d="m796 454l6-1 5 10v6l-6 3v17h-8l-5-11-9-9v-9l2-1z"/>
		<path id="Path 184" class="s11" d="m781 458l10-4h5l-15 5z"/>
		<path id="Path 185" class="s14" d="m236 457l5-2h2l-13 8h-1v-1l2-2h2z"/>
		<path id="Path 186" class="s37" d="m312 457l9-2 4 6-6 6h-5l-2-4z"/>
		<path id="Path 187" class="s48" d="m815 463v-3l8-5h4v10l-12 2z"/>
		<path id="Path 188" class="s44" d="m307 463v-5l5-1v6z"/>
		<path id="Path 189" class="s51" d="m401 458l17-1 3 12-11 4-6-2-1 5h-4l-8 8v5h-2l-13-11v-9l16-4z"/>
		<path id="Path 190" class="s39" d="m569 459v-2h6l2 3-6 3z"/>
		<path id="Path 191" class="s11" d="m679 467l8-9h2l-8 12h-4z"/>
		<path id="Path 192" class="s4" d="m775 460l6-2v1l-2 1-4 1z"/>
		<path id="Path 193" class="s40" d="m337 460l10-1 4 6 8 2v6l-2 4h-13l-7-2z"/>
		<path id="Path 194" class="s67" d="m439 471v-5l8-7h16v4l8 5 1 10-1 3-11-2v3l-12 1-3-6h-5z"/>
		<path id="Path 195" class="s42" d="m471 468l-8-5v-4h2 6l3 6z"/>
		<path id="Path 196" class="s68" d="m654 460l7-1 4 7-3 7-7-1z"/>
		<path id="Path 197" class="s36" d="m325 461l11-1h1v15l-3 14h-1l-8 2h-4v-4l-4-2v-6l-5-4 1-7 1-1h5z"/>
		<path id="Path 198" class="s69" d="m645 469v-9h9l1 12h-2z"/>
		<path id="Path 199" class="s3" d="m771 462l4-2v1l-1 1z"/>
		<path id="Path 200" class="s64" d="m775 461l4-1v9h-4l-1-7z"/>
		<path id="Path 201" class="s69" d="m669 466v-4l4-1h5v6l-6 1z"/>
		<path id="Path 202" class="s3" d="m223 465l6-3v1z"/>
		<path id="Path 203" class="s3" d="m761 465l10-3-8 3z"/>
		<path id="Path 204" class="s48" d="m763 465l8-3h3l1 7 4 18-8 3-3 43-3 2v8l11 6 2 6-8 2-17-2-1-6v-17l2-10 1-12 4-3-4-14-2-24z"/>
		<path id="Path 205" class="s23" d="m223 465l6-2h1l-4 4-10 6h-1v-2l6-4z"/>
		<path id="Path 206" class="s70" d="m306 466l1-3h5l2 4-1 1z"/>
		<path id="Path 207" class="s51" d="m537 467v-4h12l2 8h-4-6z"/>
		<path id="Path 208" class="s54" d="m807 469v-6h8v4z"/>
		<path id="Path 209" class="s49" d="m871 469v-5l3-1 4 5 2 11h-6l-2-4 2-4z"/>
		<path id="Path 210" class="s21" d="m878 468l-1-5 4 6 1 18-2-8z"/>
		<path id="Path 211" class="s47" d="m619 465l8-1h3l4 4-1 9h-2-7l-5-3z"/>
		<path id="Path 212" class="s55" d="m359 467l6-2 11 4v9h-3l-3-5h-11z"/>
		<path id="Path 213" class="s38" d="m471 468l3-3h10l7 6-1 18-7 2-3-12-8-1z"/>
		<path id="Path 214" class="s42" d="m521 472v-7l16 2 4 4v6z"/>
		<path id="Path 215" class="s33" d="m753 467l8-2h2l-10 4h-1z"/>
		<path id="Path 216" class="s38" d="m815 467l12-2 8 10v8l3 2-3 4-15 2-19-2v-17l6-3z"/>
		<path id="Path 217" class="s17" d="m853 481l-2-5-6-2v-7l4-2 9 1 4 4v5l-1 4z"/>
		<path id="Path 218" class="s37" d="m299 469l7-3 7 2-1 7-3 1-6-1z"/>
		<path id="Path 219" class="s29" d="m662 473l3-7h4l3 2v7h-3z"/>
		<path id="Path 220" class="s43" d="m213 471l8-4-6 4z"/>
		<path id="Path 221" class="s44" d="m216 473l10-6h5v6l-6 6-14 4v-4z"/>
		<path id="Path 222" class="s47" d="m275 476l2-8 12-1 1 3-5 10z"/>
		<path id="Path 223" class="s67" d="m494 470l2-3 11 1 2 6-3 2-8-1z"/>
		<path id="Path 224" class="s18" d="m672 468l6-1h1l-2 3-2 3 1 2h-1-3z"/>
		<path id="Path 225" class="s4" d="m741 472l12-5-1 2z"/>
		<path id="Path 226" class="s46" d="m633 477l1-9 11 1 8 3v10l-2 2h-5z"/>
		<path id="Path 227" class="s36" d="m290 470l9-1 4 6 6 1v7l4 2v6l-9 2-6-7-13 1v-7z"/>
		<path id="Path 228" class="s67" d="m410 473l11-4 6 2v10l-9 6-7-2-2-9z"/>
		<path id="Path 229" class="s55" d="m597 479l-5-1-1-9 10 2v4l-4 1z"/>
		<path id="Path 230" class="s38" d="m741 472l11-3h1l2 24h-11l-3 6-14-3-4-5v-4h6l16 1-6-12h-7z"/>
		<path id="Path 231" class="s54" d="m779 487l-4-18h4l9 9 5 11-1 5h-1z"/>
		<path id="Path 232" class="s68" d="m862 470l3-1h6l3 2-2 4h-10z"/>
		<path id="Path 233" class="s54" d="m491 471l3-1 4 5 8 1-1 13-12 1-3-1z"/>
		<path id="Path 234" class="s11" d="m675 473l2-3-1 3z"/>
		<path id="Path 235" class="s1" d="m210 474l3-3h2v2l-5 3z"/>
		<path id="Path 236" class="s42" d="m403 476l1-5 6 2-1 3z"/>
		<path id="Path 237" class="s38" d="m427 481v-10h12l1 6-2 3z"/>
		<path id="Path 238" class="s38" d="m541 477v-6h6v6z"/>
		<path id="Path 239" class="s67" d="m547 477v-6h4l7 6 23 3 4 7-7 2h-21l-8-6z"/>
		<path id="Path 240" class="s51" d="m601 475v-4l18 3 5 3 1 8-7 1z"/>
		<path id="Path 241" class="s54" d="m515 475l6-3 20 5h6l2 6-2 11-12 1-3-6-15-5z"/>
		<path id="Path 242" class="s37" d="m653 482v-10h2l7 1 7 2v10h-4z"/>
		<path id="Path 243" class="s16" d="m728 475l13-3-9 4h-3z"/>
		<path id="Path 244" class="s67" d="m210 476l5-3h1l-5 6h-4z"/>
		<path id="Path 245" class="s42" d="m357 477l2-4h11l3 5-2 36-6 4-12-5-1-9 1-7 4-2z"/>
		<path id="Path 246" class="s16" d="m676 475l-1-2h1 2v2z"/>
		<path id="Path 247" class="s21" d="m678 475v-2l8 2h-3z"/>
		<path id="Path 248" class="s11" d="m198 483l3-5 9-4v2l-3 3-2 1-1 1-6 3z"/>
		<path id="Path 249" class="s51" d="m204 480h1v1h-1z"/>
		<path id="Path 250" class="s30" d="m506 476l3-2 6 1 2 9 15 5 3 6v20 6h-11l-13-14h-4l-2-18z"/>
		<path id="Path 251" class="s51" d="m309 476l3-1 5 4v6h-4l-4-2z"/>
		<path id="Path 252" class="s56" d="m334 489l3-14 7 2-3 12z"/>
		<path id="Path 253" class="s38" d="m597 479v-3l4-1 17 11 1 7 2 10h-4l-16-7-2-7z"/>
		<path id="Path 254" class="s45" d="m669 485v-10h3 3l6 2v10h-12z"/>
		<path id="Path 255" class="s7" d="m681 477l-6-2h1 2 5l1 2z"/>
		<path id="Path 256" class="s14" d="m684 477l-1-2h3 5v2h-4z"/>
		<path id="Path 257" class="s11" d="m691 477v-2l8 2h-1z"/>
		<path id="Path 258" class="s10" d="m724 477l4-2 1 1v1z"/>
		<path id="Path 259" class="s58" d="m861 479l1-4h10l2 4-1 2h-5z"/>
		<path id="Path 260" class="s46" d="m266 483l5-7h4l10 4v7l-6 1-6 6v9h-5l-3-2z"/>
		<path id="Path 261" class="s38" d="m391 489v-5l8-8h4 6l2 9 7 2v4l8 7h5l2 5v10h-2l-9-1-3 1-8-3-5-1-3 3-7-8h-4l-1-4 4-3z"/>
		<path id="Path 262" class="s36" d="m729 477v-1h3 7l6 12-16-1z"/>
		<path id="Path 263" class="s51" d="m341 489l3-12h13v18l-4 2-7-2z"/>
		<path id="Path 264" class="s54" d="m427 481l11-1 2-3h5l3 6-3 4-6 1 2 15h-8l-2-5h-5l-8-7v-4z"/>
		<path id="Path 265" class="s39" d="m625 485l-1-8h7v8z"/>
		<path id="Path 266" class="s55" d="m631 485v-8h2l13 7-1 3z"/>
		<path id="Path 267" class="s36" d="m681 487v-10h3 3l1 1-1 9z"/>
		<path id="Path 268" class="s71" d="m688 478l-1-1h4 7v2z"/>
		<path id="Path 269" class="s33" d="m698 479v-2h1 7l1 2z"/>
		<path id="Path 270" class="s10" d="m707 479l-1-2h3v2z"/>
		<path id="Path 271" class="s1" d="m709 479v-2h14l-4 2z"/>
		<path id="Path 272" class="s40" d="m719 479l4-2h1 5v10h-6l-4-2z"/>
		<path id="Path 273" class="s34" d="m371 514l2-36h3l13 11v9l-4 2 3 12-1 5 4 6v14l-2 5 2 7v5h-9l-1-3h-5l-5-6 2-12 9-7v-5z"/>
		<path id="Path 274" class="s72" d="m471 481l1-3 8 1 3 12-9 6-6-5v-4z"/>
		<path id="Path 275" class="s45" d="m687 487l1-9 10 1h9 2 10v6l-6 5-10-1h-14z"/>
		<path id="Path 276" class="s46" d="m205 480l2-1h4v4l-2 2h-5v-4z"/>
		<path id="Path 277" class="s48" d="m460 482v-3l11 2-3 7h-4z"/>
		<path id="Path 278" class="s19" d="m853 481l8-2 7 2-1 6-15-2z"/>
		<path id="Path 279" class="s73" d="m873 481l1-2h6l2 8v3 13 1l-4 3h-5v-8l4-2-1-4z"/>
		<path id="Path 280" class="s51" d="m198 484l6-3v4l-1 1-8 2v-1z"/>
		<path id="Path 281" class="s69" d="m867 487l1-6h5l3 12h-5z"/>
		<path id="Path 282" class="s64" d="m448 483l12-1 4 6h4v4l6 5-3 5v13l4 2 4 21 9 7 1 8-4 2-16-8v-5l-8-9-3-14-17-7v-9l-2-15 6-1z"/>
		<path id="Path 283" class="s51" d="m651 484l2-2 12 3v4l-5 3-9 1v-2z"/>
		<path id="Path 284" class="s3" d="m193 487l5-4v1l-3 3z"/>
		<path id="Path 285" class="s36" d="m244 494l10-9 12-2-1 18 3 2v5l3 1-1 28h-5l-1-4v-7l-7-1-5-8h-13l-1-4 1-13 5-2z"/>
		<path id="Path 286" class="s64" d="m547 494l2-11 8 6v8z"/>
		<path id="Path 287" class="s28" d="m645 487l1-3h5v7h-4z"/>
		<path id="Path 288" class="s44" d="m203 486l1-1h5l2 8h14l1 19-13-5-3-9-9-1z"/>
		<path id="Path 289" class="s70" d="m313 491v-6h4l4 2v4l-6 1z"/>
		<path id="Path 290" class="s54" d="m618 486l7-1h6l14 2 2 4h4v2 8l-2 10-12-2v-10l-4-6h-14z"/>
		<path id="Path 291" class="s40" d="m665 489v-4h4v2 2z"/>
		<path id="Path 292" class="s42" d="m713 490l6-5 4 2v4h-5l-5 5v-1z"/>
		<path id="Path 293" class="s41" d="m835 489l3-4h13v8h-6l-10-2z"/>
		<path id="Path 294" class="s27" d="m851 493v-8h1l15 2 4 6v4h-13z"/>
		<path id="Path 295" class="s47" d="m195 488l8-2-2 11h-6l-4 4-12-1 9-7z"/>
		<path id="Path 296" class="s37" d="m285 487l13-1 6 7-10 12-21-2v-9l6-6z"/>
		<path id="Path 297" class="s43" d="m186 492l3-5h4l-5 5z"/>
		<path id="Path 298" class="s42" d="m188 492l5-5h2v1l-7 5z"/>
		<path id="Path 299" class="s72" d="m578 489l7-2 8 3 2 7-4 4v10h-2l-10-2-4-6z"/>
		<path id="Path 300" class="s51" d="m669 489v-2h12 6l2 2v5l-6 3-5-4h-9z"/>
		<path id="Path 301" class="s38" d="m753 555l17 2 8-2-2-6-11-6v-8l3-2 3-43 8-3 12 7 2 13-2 12-2 8-2 4 10 6-4 6v8l14 5 2 7h11l1 6 12 2 5 3 2 8-5 2-2 13-3 1h-4-2l-15-5h-1l-12-4-2-1h-1l-14-4-5-1h-1l-19-5-2-2z"/>
		<path id="Path 302" class="s30" d="m557 489h21l-3 14h-12v-3l-6-3z"/>
		<path id="Path 303" class="s59" d="m325 491l8-2 2 6v4h-8z"/>
		<path id="Path 304" class="s74" d="m335 495l-2-6h1 7l5 6 3 9-1 8-2 5h-8l3-8-3-10z"/>
		<path id="Path 305" class="s42" d="m389 498v-9h2l4 8-4 3z"/>
		<path id="Path 306" class="s7" d="m483 491l7-2 3 1v13l2 17 9 4 2 8h4l2-5-3-2v-8l-6-4v-6h4 4l13 14 1 5h6l7 7 1 8v14l-10 3-4 7v9l-3 3h-7-10-1l-2-7 1-9-3-9-6-1-1-4-5-2-9-7-4-21-4-2v-13l3-5z"/>
		<path id="Path 307" class="s71" d="m493 490l12-1 2 18h-4l-2-4h-8z"/>
		<path id="Path 308" class="s64" d="m593 490l6-1 2 7-6 1z"/>
		<path id="Path 309" class="s67" d="m660 492l5-3h4v4l-5 5-3-2z"/>
		<path id="Path 310" class="s42" d="m689 494v-5h14v6z"/>
		<path id="Path 311" class="s39" d="m703 495v-6l10 1v5h-5z"/>
		<path id="Path 312" class="s67" d="m792 494l1-5h8l19 2 15-2v2l2 17-4 2 1 3-6 6h-20-1v-10l-8-2v-8z"/>
		<path id="Path 313" class="s9" d="m882 503v-13l2 13z"/>
		<path id="Path 314" class="s38" d="m304 493l9-2 2 1-16 21h-5v-8z"/>
		<path id="Path 315" class="s56" d="m315 492l6-1h4l2 8 2 14-4 1v5 2l-14 2-12-10z"/>
		<path id="Path 316" class="s54" d="m713 496l5-5h5l4 5 14 3-1 14h-5l-10-2-2 3 2 18 6 3v8l-9 1-4-9v-7l-10 3h-2l-4-4v-6l-10-4-1-4h-6l-2-8v-8l6-3 14 1h5l1 4z"/>
		<path id="Path 317" class="s34" d="m837 508l-2-17 10 2v14l-6 2z"/>
		<path id="Path 318" class="s33" d="m181 495l4-3h1 2v1l-9 7h-2l1-3h1z"/>
		<path id="Path 319" class="s38" d="m651 493l9-1 1 4-3 1v4h-7z"/>
		<path id="Path 320" class="s47" d="m226 512l-1-19 13 1 1 6-1 13h-2-9z"/>
		<path id="Path 321" class="s46" d="m238 494h6v4l-5 2z"/>
		<path id="Path 322" class="s48" d="m621 503l-2-10h14l4 6v10l-6 1z"/>
		<path id="Path 323" class="s38" d="m664 498l5-5h9l5 4v8l-19-2z"/>
		<path id="Path 324" class="s67" d="m741 499l3-6h11l4 14-4 3-1 12-4-1-3 3 1 8-3 2v13l7 2 1 6-1 21h-4l-7-3h-1l-2-2 3-2v-10l-4-2-1-14 4-8v-18-4z"/>
		<path id="Path 325" class="s24" d="m845 507v-14h6l7 4-1 10z"/>
		<path id="Path 326" class="s65" d="m871 497v-4h5l1 4-4 2z"/>
		<path id="Path 327" class="s72" d="m535 495l12-1 10 3 6 3v3l-7 4h-4-6l-3 8h-8z"/>
		<path id="Path 328" class="s42" d="m793 507l-2-13h1l7 5v8z"/>
		<path id="Path 329" class="s68" d="m335 499v-4l3 4z"/>
		<path id="Path 330" class="s38" d="m349 504l-3-9 7 2-1 7z"/>
		<path id="Path 331" class="s38" d="m713 496l-4 3-1-4h5z"/>
		<path id="Path 332" class="s71" d="m595 497l6-1 16 7v7l-9 6h-4l-2-4-11-1v-10z"/>
		<path id="Path 333" class="s64" d="m658 501v-4l3-1 3 2v5l-4 1z"/>
		<path id="Path 334" class="s10" d="m161 510l17-13-1 3-2 2-1 1-7 6-4 2h-1-1z"/>
		<path id="Path 335" class="s39" d="m174 502h1v1h-1z"/>
		<path id="Path 336" class="s57" d="m191 501l4-4h6l9 1 3 9-4 4-9 2-4 3-9 8-1 9-1 4h-6l-9-2-1 6h-14v-20l2-2h6l10 2 6-2 12-12z"/>
		<path id="Path 337" class="s6" d="m857 507l1-10h13l2 2v8 2l-8 1z"/>
		<path id="Path 338" class="s32" d="m388 512l-3-12 4-2 2 2 1 4v7z"/>
		<path id="Path 339" class="s51" d="m329 513l-2-14h8 3l3 10-3 8-5 5-4-3z"/>
		<path id="Path 340" class="s44" d="m175 502l2-2h2l12 1v6l-12 12-6 2-10-2v-8l4-2 7-6z"/>
		<path id="Path 341" class="s48" d="m649 511l2-10h7l2 3 4-1 19 2 2 8v5l4 2-2 13h-6l-7-16h-10l-1 6h-12z"/>
		<path id="Path 342" class="s40" d="m271 509l-3-1v-5h5z"/>
		<path id="Path 343" class="s39" d="m271 509l2-6 21 2v8l-15 19v23l-1 2h-6-5v-4-6l4-2-1-8z"/>
		<path id="Path 344" class="s30" d="m433 513v-10h8v9l-2 1z"/>
		<path id="Path 345" class="s13" d="m503 507v6l6 4v8l3 2-2 5h-4l-2-8-9-4-2-17h8z"/>
		<path id="Path 346" class="s7" d="m556 507l7-4h12l4 6 10 2 3 15 4 3 2 16-3 8-8-2-3 4-15-2-9-2-2 6h-3l-2-16v-30z"/>
		<path id="Path 347" class="s13" d="m591 511l11 1 2 4h4l9-6v-7h4l10 7v9l-4 6-11 1 3 9 1 17-3 2h-5l-6-9h-8l-2-16-4-3-3-15z"/>
		<path id="Path 348" class="s52" d="m348 512l1-8h3l1 9-2 1z"/>
		<path id="Path 349" class="s67" d="m388 512l4-1v-7h4l7 8v3l-2 8h-10l-4-6z"/>
		<path id="Path 350" class="s75" d="m878 507l4-3v6l-3 5h-1v-2z"/>
		<path id="Path 351" class="s70" d="m209 511l4-4 13 5 1 1v8h-6v-5l-4-4z"/>
		<path id="Path 352" class="s12" d="m543 515l3-8h6l1 4v30l-11-1-1-19z"/>
		<path id="Path 353" class="s24" d="m553 511l-1-4h4z"/>
		<path id="Path 354" class="s51" d="m791 519l2-12h6l8 2v10z"/>
		<path id="Path 355" class="s35" d="m839 509l6-2h12l8 3-2 5-8-1h-11l-5-1z"/>
		<path id="Path 356" class="s15" d="m873 509v-2h5v6h-2z"/>
		<path id="Path 357" class="s40" d="m834 513l-1-3 4-2 2 1v4z"/>
		<path id="Path 358" class="s72" d="m403 512l3-3 5 1-1 4-7 1z"/>
		<path id="Path 359" class="s25" d="m631 510l6-1 12 2 2 12 2 12 7 4 3 7 2 9v8h-12l-3-14-10-4-3-6 1-20h-7z"/>
		<path id="Path 360" class="s59" d="m865 510l8-1 3 4-9 2h-4z"/>
		<path id="Path 361" class="s2" d="m158 512l3-2v1z"/>
		<path id="Path 362" class="s64" d="m403 515l7-1 1-4 8 3v4l4 2 2 4-2 14 7 8-1 7-4 4-10-1h-4l-4-17-6-2v-13z"/>
		<path id="Path 363" class="s18" d="m158 512l3-1h1l-5 5-7 5-7 5h-1v-2l1-1 8-6z"/>
		<path id="Path 364" class="s46" d="m157 516l5-5h1v8h-6z"/>
		<path id="Path 365" class="s76" d="m200 513l9-2 8 1 4 4v5l-3 5-5-3-6-2-7-2z"/>
		<path id="Path 366" class="s71" d="m422 512l9 1v10h-6l-2-4z"/>
		<path id="Path 367" class="s48" d="m731 543v-8l-6-3-2-18 2-3 10 2v4h5v18l-4 8z"/>
		<path id="Path 368" class="s2" d="m151 517l2-4 5-1z"/>
		<path id="Path 369" class="s49" d="m346 517l2-5 3 2v7l-6 3z"/>
		<path id="Path 370" class="s72" d="m419 513l3-1 1 7-4-2z"/>
		<path id="Path 371" class="s7" d="m439 513l2-1 17 7 3 14 8 9v5h-4l-6-9h-8l-8-8v-5l-4-3z"/>
		<path id="Path 372" class="s38" d="m196 516l4-3v6h-1z"/>
		<path id="Path 373" class="s40" d="m227 521v-8h9l1 4v16l-6 5v11l-6-2-2-4-1-9z"/>
		<path id="Path 374" class="s70" d="m237 517l-1-4h2l1 4z"/>
		<path id="Path 375" class="s51" d="m279 555v-23l15-19h5l12 10 2 12v2l-17-2-1 10-2 12-2 2z"/>
		<path id="Path 376" class="s40" d="m325 519v-5l4-1v6z"/>
		<path id="Path 377" class="s51" d="m351 514l2-1 12 5v11h-8v-6l-6-2z"/>
		<path id="Path 378" class="s13" d="m431 523v-10h2 6v9l4 3v5l8 8h8l6 9h4l16 8 4 20-8 4h-6l-1 8v4h-4l-1-4v-5l-4-3-3-4-2-9h-5v8h-2l-11-7-1-11-5-4 2-7 3-11z"/>
		<path id="Path 379" class="s13" d="m689 520l-4-2v-5h6l1 4z"/>
		<path id="Path 380" class="s64" d="m740 517h-5v-4h5z"/>
		<path id="Path 381" class="s48" d="m828 519l6-6h5l5 1-1 8-11-1z"/>
		<path id="Path 382" class="s12" d="m867 515l9-2h2v2l-1 3-6 9h-1-2z"/>
		<path id="Path 383" class="s28" d="m365 518l6-4 11 7v5l-9 7-7-1-1-3z"/>
		<path id="Path 384" class="s12" d="m843 522l1-8h11v8h-2l-6 1z"/>
		<path id="Path 385" class="s71" d="m855 522v-8l8 1v8h-4z"/>
		<path id="Path 386" class="s71" d="m535 521v-6h8l-2 6z"/>
		<path id="Path 387" class="s13" d="m863 523v-8h4l1 12v4h-2z"/>
		<path id="Path 388" class="s4" d="m877 518l1-3h1z"/>
		<path id="Path 389" class="s37" d="m150 521l7-5v3l-2 2z"/>
		<path id="Path 390" class="s39" d="m186 533l1-9 9-8 3 3-5 6v6l-2 2z"/>
		<path id="Path 391" class="s3" d="m143 523l3-5 5-1z"/>
		<path id="Path 392" class="s45" d="m231 549v-11l6-5v-16h2 13l5 8v8l-6 3v9l-12 12h-6z"/>
		<path id="Path 393" class="s77" d="m333 522l5-5h8l-1 7-7 6-7 5-1-6z"/>
		<path id="Path 394" class="s13" d="m663 523l1-6h10l7 16 2 8 6 18h-11l-7-4v-7l-6-2v-7z"/>
		<path id="Path 395" class="s64" d="m689 520l3-3 10 4v6l4 4-3 3v9h-10l-6-2v-8z"/>
		<path id="Path 396" class="s12" d="m631 519h7l-1 20 3 6h-5l-2-8-6-3v-9z"/>
		<path id="Path 397" class="s3" d="m871 527l6-9-1 7-4 3z"/>
		<path id="Path 398" class="s47" d="m194 531v-6l5-6h1l7 2 1 8-1 2z"/>
		<path id="Path 399" class="s59" d="m325 521v-2h4l4 3-3 7-3 1z"/>
		<path id="Path 400" class="s42" d="m789 527l2-8h16 1l5 6v4l-8 3z"/>
		<path id="Path 401" class="s36" d="m813 525l-5-6h20l4 2-3 4h-8z"/>
		<path id="Path 402" class="s44" d="m143 526l7-5h5v20 6l5 3v5l4 4-1 4-6-1-7-4-5-6-7-1-1-12 5-3-1-7z"/>
		<path id="Path 403" class="s44" d="m208 529l-1-8 6 2v5z"/>
		<path id="Path 404" class="s47" d="m218 526l3-5h6l-5 13-3 1h-6l1-6z"/>
		<path id="Path 405" class="s39" d="m311 523l14-2 2 9-4 5h-10z"/>
		<path id="Path 406" class="s28" d="m345 524l6-3 6 2v6l-2 14h-6l-1-12h-10v-1z"/>
		<path id="Path 407" class="s72" d="m539 541l-1-8-7-7h-6l-1-5h11 6l1 19z"/>
		<path id="Path 408" class="s46" d="m748 532l-1-8 3-3 4 1-2 10z"/>
		<path id="Path 409" class="s39" d="m829 525l3-4 11 1 4 1v6h-12-6z"/>
		<path id="Path 410" class="s28" d="m847 523l6-1v7h-3-3z"/>
		<path id="Path 411" class="s51" d="m853 529v-7h2l4 1v6z"/>
		<path id="Path 412" class="s51" d="m213 528v-5l5 3-4 3z"/>
		<path id="Path 413" class="s54" d="m391 537v-14h10v13z"/>
		<path id="Path 414" class="s12" d="m430 545l-7-8 2-14h6l10 11-3 11z"/>
		<path id="Path 415" class="s30" d="m660 539l-7-4-2-12h12l2 16z"/>
		<path id="Path 416" class="s31" d="m859 529v-6h4l3 8-1 1z"/>
		<path id="Path 417" class="s3" d="m139 527l3-3v2l-2 1z"/>
		<path id="Path 418" class="s56" d="m257 533v-8l7 1v7h-5z"/>
		<path id="Path 419" class="s7" d="m619 535l-3-9 11-1v9z"/>
		<path id="Path 420" class="s54" d="m813 529v-4h8v6h-4z"/>
		<path id="Path 421" class="s38" d="m821 531v-6h8v4l-2 2z"/>
		<path id="Path 422" class="s53" d="m140 527l2-1h1l-2 3h-1z"/>
		<path id="Path 423" class="s33" d="m127 539l12-12h1v2l-12 12z"/>
		<path id="Path 424" class="s37" d="m797 537l-10-6 2-4 16 5v5z"/>
		<path id="Path 425" class="s78" d="m868 531v-4h2l1 4h4 4l4 5 3 8-1 1h-3l-6-6v-4z"/>
		<path id="Path 426" class="s79" d="m875 531h-4l-1-4h1l1 1z"/>
		<path id="Path 427" class="s36" d="m208 529l5-1 1 1-1 6h-2l-4-4z"/>
		<path id="Path 428" class="s78" d="m708 531l10-3v7h-6z"/>
		<path id="Path 429" class="s3" d="m875 531l-3-3 9 2 5 7-3-1-4-5z"/>
		<path id="Path 430" class="s46" d="m128 541l12-12h1l1 7-5 3 1 12 7 1 5 6 1 15v4h-5l-5-6-1-6-1-4z"/>
		<path id="Path 431" class="s80" d="m327 530l3-1 1 6v2l-4 5h-5l1-7z"/>
		<path id="Path 432" class="s31" d="m355 543l2-14h8l1 3 7 1-2 12h-4-12z"/>
		<path id="Path 433" class="s36" d="m805 532l8-3 4 2v5l4 3v3l-14-1-2-4z"/>
		<path id="Path 434" class="s70" d="m827 531l2-2h6v8h-8z"/>
		<path id="Path 435" class="s37" d="m835 537v-8h12 3l-1 10h-10z"/>
		<path id="Path 436" class="s46" d="m849 539l1-10h3 6l6 3v4h-4l-3 5h-9z"/>
		<path id="Path 437" class="s69" d="m331 535l7-5v1 6h-5-2z"/>
		<path id="Path 438" class="s40" d="m338 531h10l1 12h-2l-8-2-1-4z"/>
		<path id="Path 439" class="s37" d="m192 533l2-2h13l4 4v18h-16-7-1l-2-5-6-3v-8h6l5 2z"/>
		<path id="Path 440" class="s48" d="m703 543v-9l3-3h2l4 4h6l4 9-1 9h-10l-8-6z"/>
		<path id="Path 441" class="s37" d="m821 539l-4-3v-5h4 6v6z"/>
		<path id="Path 442" class="s65" d="m865 532l1-1h2l8 4v4l6 6-7 2h-8l-2-11z"/>
		<path id="Path 443" class="s40" d="m752 549l-7-2v-13l3-2h4z"/>
		<path id="Path 444" class="s45" d="m185 537l1-4h6l-2 6z"/>
		<path id="Path 445" class="s40" d="m251 545v-9l6-3h2v10z"/>
		<path id="Path 446" class="s51" d="m251 545l8-2v-10h5l1 4 1 9-5 1v6 8l-2 8h-6l-5-5h-9v-7z"/>
		<path id="Path 447" class="s12" d="m683 541l-2-8h6v8z"/>
		<path id="Path 448" class="s31" d="m219 535l3-1 1 9h-4z"/>
		<path id="Path 449" class="s17" d="m619 535l8-1 6 3 2 8h5l10 4 3 14v7l-5 3h-11l-7-4h-5l-2 4h-4v-4l-2-15 3-2z"/>
		<path id="Path 450" class="s47" d="m169 541l1-6 9 2v8h-9z"/>
		<path id="Path 451" class="s45" d="m211 553v-18h2 6v8l-1 4-1 8h-5z"/>
		<path id="Path 452" class="s28" d="m295 545l1-10 17 2v6h-9l-4 3z"/>
		<path id="Path 453" class="s34" d="m313 537v-2h10l-1 7h5l4-5h2v6l-1 4h-7-6l-2-4h-4z"/>
		<path id="Path 454" class="s38" d="m391 537l10-1 6 2 4 17h-8l-3-6h-9l-2-7z"/>
		<path id="Path 455" class="s26" d="m858 541l3-5h4l2 11h-6l-3-1z"/>
		<path id="Path 456" class="s20" d="m886 544l-3-8 3 1 1 7z"/>
		<path id="Path 457" class="s37" d="m266 546l-1-9h5l1 8-4 2z"/>
		<path id="Path 458" class="s35" d="m333 543v-6h5l1 4-2 2z"/>
		<path id="Path 459" class="s51" d="m807 556l-14-5v-8l4-6h8l2 4 14 1 2 2v6l-6 5z"/>
		<path id="Path 460" class="s56" d="m821 539l6-2h8l4 2v6l-16-1-2-2z"/>
		<path id="Path 461" class="s14" d="m133 555l-7-10 1-6 1 2 11 20-1 1-2-2-1-2z"/>
		<path id="Path 462" class="s6" d="m663 546l-3-7h5v7z"/>
		<path id="Path 463" class="s70" d="m839 545v-6h10v2 5h-4z"/>
		<path id="Path 464" class="s13" d="m539 541l3-1 11 1 2 16-4 4h-4l-4-6h-4z"/>
		<path id="Path 465" class="s46" d="m164 559l-4-4v-5l-5-3v-6h14l1 4-1 14z"/>
		<path id="Path 466" class="s34" d="m337 543l2-2 8 2v4l4 1v7l-10 8-5-12z"/>
		<path id="Path 467" class="s17" d="m689 559l-6-18h4l6 2v8 8z"/>
		<path id="Path 468" class="s31" d="m849 546v-5h9v5z"/>
		<path id="Path 469" class="s76" d="m218 547l1-4h4l2 4z"/>
		<path id="Path 470" class="s58" d="m300 546l4-3h9 4l2 4v8l4 1-3 23h3v16l6 5v5l-8 2-9-3-5-9-2-12-2-17-3-10z"/>
		<path id="Path 471" class="s55" d="m332 547l1-4h4l-1 8h-2z"/>
		<path id="Path 472" class="s59" d="m351 548l-4-1v-4h2 6v2z"/>
		<path id="Path 473" class="s13" d="m693 551v-8h10v4z"/>
		<path id="Path 474" class="s25" d="m722 544l9-1h5l1 14-10 1-6-5z"/>
		<path id="Path 475" class="s42" d="m807 556l10-1 6-5v-6l16 1v6l-2 9-2 5h-2l-13-2h-11z"/>
		<path id="Path 476" class="s1" d="m885 545l1-1h1v9z"/>
		<path id="Path 477" class="s56" d="m169 559l1-14h9l6 3-3 4 5 1h1l1 10v8h-6l-1-5z"/>
		<path id="Path 478" class="s13" d="m293 557l2-12 5 1v10z"/>
		<path id="Path 479" class="s55" d="m351 548l4-3h12l1 7 8-1h5l1 3-3 2v7l6 4v4h-8l-4-3-10 2v9l-4 4h-6l-3-8-5 2-6-2v-10l2-2 10-8z"/>
		<path id="Path 480" class="s51" d="m376 551l-8 1-1-7h4z"/>
		<path id="Path 481" class="s71" d="m429 552l1-7h8l-2 7z"/>
		<path id="Path 482" class="s32" d="m489 553l-1-8 5 2 1 4v2z"/>
		<path id="Path 483" class="s25" d="m595 553l3-8h8l6 9h5l2 15h-8l-10-2-4-3z"/>
		<path id="Path 484" class="s54" d="m839 551v-6l6 1v5z"/>
		<path id="Path 485" class="s5" d="m875 547l7-2h3l2 8v4 1 4l-5-8-7-1z"/>
		<path id="Path 486" class="s31" d="m261 553v-6l5-1 1 1v6z"/>
		<path id="Path 487" class="s17" d="m665 555l-2-9h2l6 2v7z"/>
		<path id="Path 488" class="s25" d="m845 551v-5h4 9l3 1v6h-12z"/>
		<path id="Path 489" class="s36" d="m217 555l1-8h7l6 2 2 8-11 3z"/>
		<path id="Path 490" class="s19" d="m323 556l-4-1v-8h6z"/>
		<path id="Path 491" class="s31" d="m323 556l2-9h7l2 4v14l-4 2-1 10-6 2h-3z"/>
		<path id="Path 492" class="s24" d="m693 551l10-4 8 6v6l-18 1v-1z"/>
		<path id="Path 493" class="s29" d="m861 553v-6h6 8v6l-2 1-9-1z"/>
		<path id="Path 494" class="s76" d="m187 553l-5-1 3-4z"/>
		<path id="Path 495" class="s67" d="m391 554v-5h9l3 6v4h-10z"/>
		<path id="Path 496" class="s24" d="m334 565v-14h2l5 12-2 2z"/>
		<path id="Path 497" class="s25" d="m494 553v-2l6 1 3 9h-4z"/>
		<path id="Path 498" class="s58" d="m558 557l2-6 9 2v7 5h-8z"/>
		<path id="Path 499" class="s6" d="m584 555l3-4 8 2 2 11 4 3v6h-6l-12-6z"/>
		<path id="Path 500" class="s31" d="m837 560l2-9h6l4 2-6 7z"/>
		<path id="Path 501" class="s29" d="m425 556l4-4h7l5 4 1 11 11 7v13l-3 2-4 1 2 5v2l-1 2h-6l-2-3v-6l3-3h3v-8h-6l-7-6v-6l-7-3z"/>
		<path id="Path 502" class="s47" d="m189 563l-1-10h7v10z"/>
		<path id="Path 503" class="s44" d="m195 563v-10h16l1 2-2 10h-3-6z"/>
		<path id="Path 504" class="s24" d="m261 561v-8h6v4 4z"/>
		<path id="Path 505" class="s5" d="m485 555l4-2h5l5 8-4 4v8l-6 2z"/>
		<path id="Path 506" class="s17" d="m569 560v-7l15 2-1 12h-4l-2-4z"/>
		<path id="Path 507" class="s34" d="m711 559v-6h10l6 5v10h-1-3l-5-2v-4z"/>
		<path id="Path 508" class="s59" d="m843 560l6-7h12 3l3 10v6h-2l-22-3z"/>
		<path id="Path 509" class="s65" d="m867 563l-3-10 9 1v9z"/>
		<path id="Path 510" class="s58" d="m873 554l2-1 7 1 5 8v1 5l-2 2-6-1v-3l-6-3z"/>
		<path id="Path 511" class="s31" d="m385 571v-4l-6-4v-7l3-2h9l2 5h10l1 7 5 3v10l-2 2-10 1z"/>
		<path id="Path 512" class="s40" d="m210 565l2-10h5l5 5 11-3h6v7l-4 7-2 2h-10l-8-2v-4z"/>
		<path id="Path 513" class="s28" d="m278 557l1-2 12 4v7l-1 2h-7z"/>
		<path id="Path 514" class="s28" d="m403 559v-4h8 4v9l3 3v2h-9l-5-3z"/>
		<path id="Path 515" class="s25" d="m418 567l-3-3v-9l10 1v8l-1 3z"/>
		<path id="Path 516" class="s29" d="m525 574v-9l4-7 10-3h4l4 6v5l5 2-1-7 4-4h3l3 8h8v4 7l4 3v10h-8l-2-4h-9l-1 12h-3l-5-4-2-8-8-2z"/>
		<path id="Path 517" class="s24" d="m665 563v-8h6l7 4-7 6z"/>
		<path id="Path 518" class="s29" d="m293 557l7-1 3 10-2 1-5 1-5-2v-7z"/>
		<path id="Path 519" class="s40" d="m267 561v-4h5l-2 6z"/>
		<path id="Path 520" class="s31" d="m270 563l2-6h6l5 11v11h-10l-3-4z"/>
		<path id="Path 521" class="s51" d="m727 558l10-1 4 2v10l-3 2-6-1-5-2z"/>
		<path id="Path 522" class="s3" d="m887 558v-1h2v2h-1z"/>
		<path id="Path 523" class="s36" d="m151 573l-1-15 7 4-2 11z"/>
		<path id="Path 524" class="s20" d="m887 562v-4l1 1z"/>
		<path id="Path 525" class="s47" d="m163 563l1-4h5l13 7 1 5-13 2-3-2z"/>
		<path id="Path 526" class="s59" d="m665 563l6 2 7-6h11 4v1 9l-3 2h-2l-11 3-8 1-18 2h-3v-4l5-3v-7z"/>
		<path id="Path 527" class="s31" d="m693 560l18-1 7 3v4h-6-1l-7 1-2 1h-1l-8 1z"/>
		<path id="Path 528" class="s21" d="m887 562l1-3h1v4h-2z"/>
		<path id="Path 529" class="s4" d="m114 562l3-2v1z"/>
		<path id="Path 530" class="s81" d="m117 561v-1l10 2z"/>
		<path id="Path 531" class="s43" d="m134 562l2-2 2 2z"/>
		<path id="Path 532" class="s7" d="m569 565v-5l8 3 2 4v2h-10z"/>
		<path id="Path 533" class="s41" d="m835 565l2-5h6v6z"/>
		<path id="Path 534" class="s1" d="m114 562l3-1-1 2-1 8h-2v-8z"/>
		<path id="Path 535" class="s64" d="m116 563l1-2 10 1v1z"/>
		<path id="Path 536" class="s78" d="m138 562l1-1 1 4h-4l-5-2 1-1h2z"/>
		<path id="Path 537" class="s22" d="m259 569l2-8h6l3 2v12l-5 1-6-3z"/>
		<path id="Path 538" class="s58" d="m489 575l6-2v-8l4-4h4l-1 9-2 5 4 2h1l3 20-13-1-2-5-3-10-9 2v-4z"/>
		<path id="Path 539" class="s17" d="m551 561l1 7-5-2v-5z"/>
		<path id="Path 540" class="s4" d="m113 562h1v1h-1z"/>
		<path id="Path 541" class="s82" d="m127 563v-1h5l-1 1z"/>
		<path id="Path 542" class="s56" d="m155 573l2-11 6 1 4 8-4 1v3z"/>
		<path id="Path 543" class="s46" d="m115 571l1-8h11 4l5 2-1 6 2 16-11-1-8-7z"/>
		<path id="Path 544" class="s70" d="m189 571v-8h6l6 2v9l-6 2v5l-6-2z"/>
		<path id="Path 545" class="s30" d="m833 571l-12-2-1-6 13 2z"/>
		<path id="Path 546" class="s27" d="m867 569v-6h6l6 3v3z"/>
		<path id="Path 547" class="s31" d="m235 571l4-7h9l5 5v9l-5 3z"/>
		<path id="Path 548" class="s58" d="m424 567l1-3 7 3v6l7 6 3 8-3 3-4 1v4h-7l-1-4-9-2-1-8 4-4v-6z"/>
		<path id="Path 549" class="s44" d="m135 571l1-6h4l1 6z"/>
		<path id="Path 550" class="s47" d="m201 574v-9h6l-2 10z"/>
		<path id="Path 551" class="s35" d="m205 575l2-10h3l5 2v4l-3 5z"/>
		<path id="Path 552" class="s47" d="m329 577l1-10 4-2h5v10l-8 2z"/>
		<path id="Path 553" class="s71" d="m833 571v-6h2l8 1 22 3v4l-2 6h-6l-9-2-10-3z"/>
		<path id="Path 554" class="s7" d="m290 568l1-2 5 2-2 2z"/>
		<path id="Path 555" class="s68" d="m301 567l2-1 2 17-6 1v-2-7z"/>
		<path id="Path 556" class="s83" d="m455 574v-8h5l2 9z"/>
		<path id="Path 557" class="s16" d="m704 567l7-1h1l-10 2z"/>
		<path id="Path 558" class="s22" d="m296 568l5-1-2 8h-4l-1-5z"/>
		<path id="Path 559" class="s19" d="m418 569v-2h6l-3 4z"/>
		<path id="Path 560" class="s15" d="m579 569v-2h4l12 6 2 25-5 1v-6l-4-4h-11v-10z"/>
		<path id="Path 561" class="s84" d="m601 573v-6l10 2 1 7 7-3h4l3 10h-6l-8 3z"/>
		<path id="Path 562" class="s24" d="m283 579v-11h7l4 2 1 5-1 6h-9z"/>
		<path id="Path 563" class="s17" d="m363 579v-9l10-2 4 3-2 5h-6l-1 3z"/>
		<path id="Path 564" class="s16" d="m693 569l8-1-10 4-1-1z"/>
		<path id="Path 565" class="s16" d="m731 570l-5-2h1l5 2z"/>
		<path id="Path 566" class="s20" d="m885 570l2-2v6h-2z"/>
		<path id="Path 567" class="s56" d="m248 581l5-3v-9h6v4l6 3 1 12-3 5-15-7z"/>
		<path id="Path 568" class="s59" d="m409 579v-10h9l3 2v6l-4 4h-2z"/>
		<path id="Path 569" class="s84" d="m573 579l-4-3v-7h10l-2 10z"/>
		<path id="Path 570" class="s68" d="m619 573l-7 3-1-7h8z"/>
		<path id="Path 571" class="s69" d="m623 573l2-4h5l7 4v10l-9 1-2-1z"/>
		<path id="Path 572" class="s12" d="m865 573v-4h2 12l6 1v4l-1 3h-12z"/>
		<path id="Path 573" class="s23" d="m504 577l-4-2 2-5z"/>
		<path id="Path 574" class="s0" d="m740 573l-9-3h1l6 1z"/>
		<path id="Path 575" class="s0" d="m113 573v-2h2l3 8 8 7 6 6v1l-9-8h-4z"/>
		<path id="Path 576" class="s40" d="m137 587l-2-16h6l5 6-1 6 6 3v8l4 4 11 1 9 6v8l-3 1-4-1h-1l-8-5-3-2-18-12z"/>
		<path id="Path 577" class="s38" d="m163 575v-3l4-1 3 2v5l-2 2z"/>
		<path id="Path 578" class="s40" d="m170 573l13-2h6v8l6 2 6 1-2 9-3 2 2 4-1 2h-8l-6-3-4-16-9-2z"/>
		<path id="Path 579" class="s42" d="m212 576l3-5 8 2v8h-2-6z"/>
		<path id="Path 580" class="s42" d="m233 573l2-2 13 10v5l-5 2-4-5h-5-1z"/>
		<path id="Path 581" class="s59" d="m368 579l1-3h6l2-5h8l12 11-2 15-2 1-10-3-2-4h-8z"/>
		<path id="Path 582" class="s80" d="m677 574l11-3 7 16h-6-2l-2-6h-6z"/>
		<path id="Path 583" class="s1" d="m695 587l-7-16h2l1 1 8 13 1 4-2 1z"/>
		<path id="Path 584" class="s70" d="m151 577v-4h4l8 2 5 5 3 8-5 3z"/>
		<path id="Path 585" class="s67" d="m223 581v-8h10v10h-8z"/>
		<path id="Path 586" class="s29" d="m597 598l-2-25h6l11 13 1 6-4 3-6 2z"/>
		<path id="Path 587" class="s22" d="m637 583v-10h11v4l-5 3v5z"/>
		<path id="Path 588" class="s3" d="m748 577l-7-4 7 3z"/>
		<path id="Path 589" class="s5" d="m863 579l2-6 7 4h12v1l-2 4-5 6-4 3-3 1-1-7z"/>
		<path id="Path 590" class="s76" d="m195 581v-5l6-2 4 1 7 1 3 5-14 1z"/>
		<path id="Path 591" class="s73" d="m450 589l3-2v-13h2l7 1 3 4-1 6 5 2 1 4 1 6v5h-4v6h4l1 3-2 6-5-5-2-1v-15l-1-6h-3v3h-4l-3-1z"/>
		<path id="Path 592" class="s58" d="m515 577h7l3-3 10 9v8 6h4v4l-6 2-8-2v-9l-6-5z"/>
		<path id="Path 593" class="s73" d="m669 575l8-1 2 7-4 2h-6z"/>
		<path id="Path 594" class="s28" d="m840 582l-2-8 10 3-1 4-6 1z"/>
		<path id="Path 595" class="s85" d="m884 577l1-3h2l-3 4z"/>
		<path id="Path 596" class="s59" d="m265 576l5-1 3 4h10l2 2v7l-8 11h-7l-1-6h-6l3-5z"/>
		<path id="Path 597" class="s86" d="m294 581l1-6h4v7z"/>
		<path id="Path 598" class="s40" d="m331 577l8-2 6 2 2 16h-7l-9-7z"/>
		<path id="Path 599" class="s48" d="m345 577l5-2 3 8h6l2 6-2 8 4 2v10l-4 3-7-1h-3l-1-2 3-5-4-11z"/>
		<path id="Path 600" class="s15" d="m651 577l18-2v8l2 6h4l4 1v4l2 13v7h-2-8l-4-1-2-1-3-2-3-9-5-4 3-8-6-4z"/>
		<path id="Path 601" class="s43" d="m748 577v-1h4l2 2z"/>
		<path id="Path 602" class="s51" d="m175 605l-9-6-11-1-4-4v-8l-6-3 1-6h5l15 14 2 4h7l2-5-6-2-3-8 2-2 9 2 4 16-3 1v4 3z"/>
		<path id="Path 603" class="s19" d="m323 579l6-2h2v9l9 7v7l5 8-4 1h-10l-2-4v-5l-6-5z"/>
		<path id="Path 604" class="s29" d="m508 597l-3-20h10l4 10 6 5v9l-12 7-5-5z"/>
		<path id="Path 605" class="s29" d="m643 585v-5l5-3h3v8l6 4-3 8h-8-1l1-7z"/>
		<path id="Path 606" class="s13" d="m841 582l6-1 1-4 9 2 2 6-3 14h-1-12z"/>
		<path id="Path 607" class="s80" d="m439 579h6v8h-3z"/>
		<path id="Path 608" class="s43" d="m773 583l-12-1-7-4z"/>
		<path id="Path 609" class="s22" d="m359 583l4-4h5l5 12v4h-4l-3-6h-5z"/>
		<path id="Path 610" class="s22" d="m407 581l2-2 6 2v8h-6z"/>
		<path id="Path 611" class="s83" d="m469 587l-5-2 1-6 4 3z"/>
		<path id="Path 612" class="s18" d="m474 587l1-8h6v4l-2 4z"/>
		<path id="Path 613" class="s58" d="m573 589v-10h4v10z"/>
		<path id="Path 614" class="s19" d="m859 585l-2-6h6l6 6h-4z"/>
		<path id="Path 615" class="s31" d="m201 582l14-1h6v4 8l8 5v19 2h-6l-6-5-2-9-10-1-1-6 3-4-8-3z"/>
		<path id="Path 616" class="s26" d="m221 585v-4h2l2 2z"/>
		<path id="Path 617" class="s29" d="m285 588v-7h9l5 1v2l2 11-2 10h-4l-3-15z"/>
		<path id="Path 618" class="s19" d="m397 582l10-1 2 8-3 8-1 2-10-2z"/>
		<path id="Path 619" class="s19" d="m415 589v-8h2l1 8z"/>
		<path id="Path 620" class="s8" d="m481 583l9-2 3 10v5l-1 7h-6l-10-7-2-5v-4h5z"/>
		<path id="Path 621" class="s87" d="m675 583l4-2h6l2 6-8 3-4-1z"/>
		<path id="Path 622" class="s25" d="m833 597l2-13 5-2h1l2 17-5 1h-4l-1-1z"/>
		<path id="Path 623" class="s27" d="m221 585l4-2h8 1l3 6h6l6 7v7h-3l-6 3 3 4v5l-14 2v-19l-8-5z"/>
		<path id="Path 624" class="s41" d="m243 589h-6l-3-6h5l4 5z"/>
		<path id="Path 625" class="s8" d="m299 584l6-1 2 12h-6z"/>
		<path id="Path 626" class="s84" d="m535 591v-8l8 2 2 8 5 4-1 4h-10v-4l1-6z"/>
		<path id="Path 627" class="s5" d="m612 586l8-3v6l-1 2-6 1z"/>
		<path id="Path 628" class="s24" d="m620 589v-6h6l2 1v2z"/>
		<path id="Path 629" class="s67" d="m628 584l9-1 6 2 3 5-1 7-11-1-3-9-3-1z"/>
		<path id="Path 630" class="s49" d="m675 589h-4l-2-6h6z"/>
		<path id="Path 631" class="s11" d="m779 585l-5-2 5 1z"/>
		<path id="Path 632" class="s2" d="m779 585v-1l14 4z"/>
		<path id="Path 633" class="s58" d="m553 597l1-12h9l2 4 3 7 11 2 6 10v6l-5 3-15 1-4-5-1-13z"/>
		<path id="Path 634" class="s85" d="m700 589l-1-4 3 5z"/>
		<path id="Path 635" class="s7" d="m856 599l3-14h6v9l-7 5z"/>
		<path id="Path 636" class="s73" d="m865 594v-9h4l1 7-1 2z"/>
		<path id="Path 637" class="s36" d="m132 592l-6-6 11 1 1 7z"/>
		<path id="Path 638" class="s35" d="m243 588l5-2 15 7h6l1 6-1 6-8 5-5-4-7-3v-7l-6-7z"/>
		<path id="Path 639" class="s31" d="m620 589l8-3 3 1 3 9 11 1h1l1 9 9 5 6-1 3 2v5l1 5 5 1v10h-7-8l-3-4h-10-6v-5l-1-6h-5l-10-7-2-6v-14z"/>
		<path id="Path 640" class="s88" d="m679 590l8-3h2v7h-10z"/>
		<path id="Path 641" class="s89" d="m689 594v-7h6l3 3 1 7-2 4h-4v-6z"/>
		<path id="Path 642" class="s37" d="m166 591l5-3 6 2-2 5h-7z"/>
		<path id="Path 643" class="s69" d="m277 599l8-11 7 2 3 15v6h-6l-1-5-7 1-4-1z"/>
		<path id="Path 644" class="s4" d="m796 590l-2-2 2 1z"/>
		<path id="Path 645" class="s85" d="m873 591l4-3-4 5z"/>
		<path id="Path 646" class="s17" d="m363 599l-4-2 2-8h5l3 6z"/>
		<path id="Path 647" class="s73" d="m406 597l3-8h6 3l9 2 1 4 1 14v4l-2 2-9-2-4-2-1-12z"/>
		<path id="Path 648" class="s9" d="m448 595l-2-5 4-1 2 3z"/>
		<path id="Path 649" class="s90" d="m585 608l-6-10-11-2-3-7h8 4 11l4 4v6z"/>
		<path id="Path 650" class="s79" d="m698 590l2-1 2 1v2l2 3 1 7h-1l-5-5z"/>
		<path id="Path 651" class="s0" d="m796 590v-1l12 4z"/>
		<path id="Path 652" class="s60" d="m435 595v-4l4-1v6z"/>
		<path id="Path 653" class="s75" d="m459 593v-3h3l1 6-4-2z"/>
		<path id="Path 654" class="s67" d="m198 597l-2-4 3-2 8 3-3 4z"/>
		<path id="Path 655" class="s69" d="m373 595v-4h8l2 4-2 6h-6z"/>
		<path id="Path 656" class="s60" d="m471 597l-1-6h4l2 5z"/>
		<path id="Path 657" class="s60" d="m493 596v-5l2 5z"/>
		<path id="Path 658" class="s23" d="m539 597h-4v-6h5z"/>
		<path id="Path 659" class="s59" d="m613 592l6-1v14h-7l-3-2v-8z"/>
		<path id="Path 660" class="s9" d="m870 592l3-1v2l-1 1h-3z"/>
		<path id="Path 661" class="s14" d="m132 593v-1l6 2 18 12h-3z"/>
		<path id="Path 662" class="s80" d="m448 595l4-3 3 1v8h-2l-5-4z"/>
		<path id="Path 663" class="s28" d="m345 608l-5-8v-7h7l4 11-3 5z"/>
		<path id="Path 664" class="s84" d="m455 601v-8h4v1 7z"/>
		<path id="Path 665" class="s49" d="m455 601h4v-7l4 2v15h-6l-4-5v-5z"/>
		<path id="Path 666" class="s69" d="m681 607l-2-13h10l4 1v6l-4 6z"/>
		<path id="Path 667" class="s9" d="m858 599l7-5h4v1l-2 2-5 2z"/>
		<path id="Path 668" class="s4" d="m869 595v-1h3z"/>
		<path id="Path 669" class="s15" d="m299 605l2-10h6l5 9 9 3 3 6h7v5l-2 5-10 3-5 7-3-10-12 3-4-8 4-4 3-2z"/>
		<path id="Path 670" class="s84" d="m363 599l6-4h4l2 6h6l2-6 10 3v12l3 3v2l-13 1-4-3h-11l-5-4z"/>
		<path id="Path 671" class="s15" d="m429 609l-1-14h7l4 1 2 3-2 14h-5z"/>
		<path id="Path 672" class="s22" d="m603 597l6-2v8h-1z"/>
		<path id="Path 673" class="s4" d="m705 602l-1-7 3 11z"/>
		<path id="Path 674" class="s41" d="m180 601v-4l3-1 6 3v3h-6z"/>
		<path id="Path 675" class="s52" d="m471 597l5-1 10 7-1 10-1 4h-1-4l-1-6h-6l-1-3v-6z"/>
		<path id="Path 676" class="s52" d="m492 603l1-7h2l13 1v6l5 5v3l-11-1-3 5h-3l-1-2z"/>
		<path id="Path 677" class="s46" d="m197 599l1-2 6 1 1 6-1 3-7-2z"/>
		<path id="Path 678" class="s73" d="m393 598l2-1 10 2 2 14h-11l-3-3z"/>
		<path id="Path 679" class="s29" d="m405 599l1-2 7 2 1 12-2 2h-5z"/>
		<path id="Path 680" class="s90" d="m447 599l1-2 5 4v5l-6-3z"/>
		<path id="Path 681" class="s89" d="m549 601l1-4h3l7 3 1 13h-2-6l-4-5z"/>
		<path id="Path 682" class="s24" d="m597 598l6-1 5 6-9 8-5 4-9-1v-6l7-9z"/>
		<path id="Path 683" class="s19" d="m662 610l-6 1-9-5-1-9h8l5 4z"/>
		<path id="Path 684" class="s80" d="m697 601l2-4 5 5 1 9-4 2v-4l-4-1z"/>
		<path id="Path 685" class="s30" d="m830 598l3-1v2z"/>
		<path id="Path 686" class="s3" d="m834 600l-8-2h4l3 1z"/>
		<path id="Path 687" class="s45" d="m189 602v-3h8v6h-4z"/>
		<path id="Path 688" class="s65" d="m269 605l1-6h7v7l-3 1z"/>
		<path id="Path 689" class="s91" d="m439 613l2-14h6v4l6 3 4 5h6l2 1-2 11-8 2-14-4z"/>
		<path id="Path 690" class="s60" d="m838 600l5-1h12z"/>
		<path id="Path 691" class="s4" d="m838 600l17-1h1 2 4l-7 3z"/>
		<path id="Path 692" class="s24" d="m180 604v-3l3 1z"/>
		<path id="Path 693" class="s89" d="m513 608l12-7 8 2v10l-5 6-9-2-6-6z"/>
		<path id="Path 694" class="s88" d="m533 603l6-2h10v7l4 5-1 3-11 1-2-4h-6z"/>
		<path id="Path 695" class="s49" d="m689 607l4-6h4v7h-2z"/>
		<path id="Path 696" class="s31" d="m180 604l3-2h6l4 3v7l3 3 9 1 7 5 3 5 8 1 6 4-1 5-12-3-5-2-8-3h-1l-10-4-4-1h-2l-9-5-5-4 3-1v-8z"/>
		<path id="Path 697" class="s80" d="m471 608h-4v-6h4z"/>
		<path id="Path 698" class="s1" d="m705 611l-1-9h1l2 4v6z"/>
		<path id="Path 699" class="s13" d="m243 610l-3-4 6-3v6z"/>
		<path id="Path 700" class="s5" d="m246 609v-6h3l7 3-1 3z"/>
		<path id="Path 701" class="s49" d="m485 613l1-10h6l3 10z"/>
		<path id="Path 702" class="s39" d="m599 611l9-8h1l3 2 1 6h6v6l8 7v6l-8-1-10-2h-1l-1-2-1-8z"/>
		<path id="Path 703" class="s35" d="m204 607l1-3 10 1 2 9h-4z"/>
		<path id="Path 704" class="s28" d="m212 621l-7-5-9-1-3-3v-7h4l7 2 9 7z"/>
		<path id="Path 705" class="s69" d="m261 610l8-5 5 2 2 5h3v7l-6 6-15-8z"/>
		<path id="Path 706" class="s22" d="m295 611v-6h4l3 7-3 2z"/>
		<path id="Path 707" class="s86" d="m321 607l8-2 2 4v4h-7z"/>
		<path id="Path 708" class="s70" d="m619 611h-6l-1-6h7l2 6z"/>
		<path id="Path 709" class="s0" d="m159 608l-6-2h3z"/>
		<path id="Path 710" class="s26" d="m246 609h9l1-3 5 4-3 7-3 2h-5l-7-4v-5z"/>
		<path id="Path 711" class="s80" d="m274 607l3-1 4 1v4l-2 1h-3z"/>
		<path id="Path 712" class="s5" d="m281 607l7-1 1 5h-1-7z"/>
		<path id="Path 713" class="s62" d="m681 614v-7h8l6 1v5l5 3 3 15-7 3-9-1v-6l-4-2v-6l1-3z"/>
		<path id="Path 714" class="s0" d="m167 613l-6-1-2-4z"/>
		<path id="Path 715" class="s80" d="m341 609l4-1 3 1 1 2-1 2h-7z"/>
		<path id="Path 716" class="s15" d="m700 616l-5-3v-5h2l4 1v4z"/>
		<path id="Path 717" class="s73" d="m331 613v-4h10v4 3l-6 2h-4z"/>
		<path id="Path 718" class="s66" d="m359 612l4-3 5 4-4 4h-5z"/>
		<path id="Path 719" class="s91" d="m429 613v-4l5 4z"/>
		<path id="Path 720" class="s91" d="m499 615l3-5 11 1 6 6 9 2v14l-9 5-5 2-7 3h-2l-1-4-5 2h-4v-6l2-2 8-3-2-7v-5z"/>
		<path id="Path 721" class="s6" d="m279 612l2-1h7l-1 7-8 1z"/>
		<path id="Path 722" class="s63" d="m287 618l1-7h1 6l4 3-4 4-6 2z"/>
		<path id="Path 723" class="s75" d="m348 613l1-2h3l-3 4z"/>
		<path id="Path 724" class="s49" d="m349 615l3-4 7 1v5l-10 5v-3z"/>
		<path id="Path 725" class="s89" d="m412 613l2-2 4 2-1 4h-5z"/>
		<path id="Path 726" class="s61" d="m465 612l5 5 2-6h6l1 6-1 11-14-1-1-4z"/>
		<path id="Path 727" class="s36" d="m594 615l5-4 7 6 1 8h-10z"/>
		<path id="Path 728" class="s42" d="m627 624l-8-7v-6h2l10 7h5l1 6z"/>
		<path id="Path 729" class="s60" d="m701 613l4-2 2 1v16l-2 3h-2l-3-15z"/>
		<path id="Path 730" class="s59" d="m665 617v-5l2 1v4z"/>
		<path id="Path 731" class="s2" d="m176 618l-8-5 4 1 5 4z"/>
		<path id="Path 732" class="s52" d="m341 616v-3h7l1 2v4h-6z"/>
		<path id="Path 733" class="s86" d="m359 617h5l4-4h11l4 3 2 17-8 3-5 1-5-4h-12l-6-7v-4z"/>
		<path id="Path 734" class="s86" d="m396 615v-2h11 5v4l-3 1v6l-8-4-4-1z"/>
		<path id="Path 735" class="s87" d="m412 617h5l1-4 9 2v6l3 2-5 6-10 1-4-1-2-5v-6z"/>
		<path id="Path 736" class="s92" d="m427 615l2-2h5 5l2 8h-2l-9 2-3-2z"/>
		<path id="Path 737" class="s87" d="m484 617l1-4h10l1 2v6l-9-2z"/>
		<path id="Path 738" class="s52" d="m528 619l5-6h6l2 4v6l-4 3-4 5-2 2h-2-1z"/>
		<path id="Path 739" class="s29" d="m541 617l11-1 1-3h6l1 6v2l-9 2h-10z"/>
		<path id="Path 740" class="s32" d="m560 619l-1-6h2l4 5z"/>
		<path id="Path 741" class="s27" d="m667 617v-4l4 1v3z"/>
		<path id="Path 742" class="s24" d="m212 621l1-7h4l6 5v8l-8-1z"/>
		<path id="Path 743" class="s55" d="m580 617l5-3 9 1 3 10-4 1h-3l-6-2z"/>
		<path id="Path 744" class="s35" d="m671 617v-3h8v4h-6z"/>
		<path id="Path 745" class="s26" d="m679 618v-4h2l3 2-1 3z"/>
		<path id="Path 746" class="s19" d="m229 617l14-2 7 4-3 3v7 4l-6 8-12-3-1-2 1-5 2-1-2-11z"/>
		<path id="Path 747" class="s93" d="m383 616l13-1 1 4 4 1 2 11-3 7h-7l-8-5z"/>
		<path id="Path 748" class="s94" d="m496 621v-6h3l4 3v5l-6 2z"/>
		<path id="Path 749" class="s49" d="m335 618l6-2 2 3-1 4h-5z"/>
		<path id="Path 750" class="s19" d="m255 619l3-2 15 8v4 6h-6l-12-4z"/>
		<path id="Path 751" class="s74" d="m464 627l14 1 1-11h4l1 4 3-2 9 2 1 4v8l-2 2h-18-10z"/>
		<path id="Path 752" class="s95" d="m487 619l-3 2-1-4h1z"/>
		<path id="Path 753" class="s34" d="m565 618l15-1 4 7 6 2-2 5-26-3v-1l1-4-3-2v-2z"/>
		<path id="Path 754" class="s17" d="m671 623l-5-1-1-5h2 4l2 1v5z"/>
		<path id="Path 755" class="s4" d="m186 623l-10-5h1z"/>
		<path id="Path 756" class="s65" d="m279 619l8-1 2 2-5 5-4 4h-7v-4z"/>
		<path id="Path 757" class="s52" d="m289 620l6-2 4 8-10 5-5-6z"/>
		<path id="Path 758" class="s83" d="m329 623l2-5h4l2 5v4h-4z"/>
		<path id="Path 759" class="s84" d="m673 623v-5h6l4 1v6h-4z"/>
		<path id="Path 760" class="s34" d="m223 627v-8h6l2 11-2 1z"/>
		<path id="Path 761" class="s22" d="m247 629v-7l3-3h5v12h-4z"/>
		<path id="Path 762" class="s88" d="m342 623l1-4h6v3 4h-7z"/>
		<path id="Path 763" class="s95" d="m385 633l8 5h7l3-7-2-11 8 4 2 5 4 1v6l-4 3v10l-6 2h-4-8l-3-4h-9l-4-4v-7z"/>
		<path id="Path 764" class="s74" d="m430 623l9-2v3l-4 4v11l4 3v8l-8 1-2-9-4-3v-10z"/>
		<path id="Path 765" class="s96" d="m439 624v-3h2l14 4v5l-6 6-4-10z"/>
		<path id="Path 766" class="s27" d="m551 623l9-2 3 2-1 4h-7z"/>
		<path id="Path 767" class="s10" d="m192 625l-4-2 4 1z"/>
		<path id="Path 768" class="s66" d="m299 626l12-3 3 10v4l-6 5-15 1-5-7 1-5z"/>
		<path id="Path 769" class="s80" d="m314 633l5-7 10-3 4 4v12h-14l-5-2z"/>
		<path id="Path 770" class="s91" d="m337 627v-4h5v3l-1 1z"/>
		<path id="Path 771" class="s97" d="m455 625l8-2 1 4 3 8h10v8l-8 2-14 2h-5l-1-11 6-6z"/>
		<path id="Path 772" class="s96" d="m497 625l6-2 2 7-8 3z"/>
		<path id="Path 773" class="s22" d="m537 626l4-3h10l4 4-2 4h-2-5l-9-2z"/>
		<path id="Path 774" class="s55" d="m671 633v-10h2l6 2v6l-4 2z"/>
		<path id="Path 775" class="s2" d="m192 625v-1l10 4z"/>
		<path id="Path 776" class="s77" d="m439 650v-8l-4-3v-11l4-4 6 2 4 10 1 11-4 2z"/>
		<path id="Path 777" class="s27" d="m627 630v-6h10v5l-2 2h-5z"/>
		<path id="Path 778" class="s15" d="m273 629h7l4-4 5 6-1 5-15-1z"/>
		<path id="Path 779" class="s92" d="m593 626l4-1h10l1 2-5 1-1 5h-4-5z"/>
		<path id="Path 780" class="s59" d="m679 631v-6h4l4 2v6h-6z"/>
		<path id="Path 781" class="s93" d="m341 627l1-1h7l6 7h12l5 4v5l5 1 4 4v12h-4-8v-8l-4-2-8 1 2 9h-7-8l-6-1h-5v-1l-2-8 2-6 12 2 2-2v-6l-4-2z"/>
		<path id="Path 782" class="s69" d="m533 631l4-5v3l-1 2z"/>
		<path id="Path 783" class="s88" d="m588 631l2-5h3v7h-4z"/>
		<path id="Path 784" class="s87" d="m333 639v-12h4 4l2 8 4 2v6l-2 2-12-2z"/>
		<path id="Path 785" class="s13" d="m553 631l2-4h7v1l-4 3z"/>
		<path id="Path 786" class="s61" d="m602 633l1-5 5-1h1v7h-3z"/>
		<path id="Path 787" class="s83" d="m609 634v-7l10 2v7h-2z"/>
		<path id="Path 788" class="s4" d="m211 632h-5l-3-4 8 3z"/>
		<path id="Path 789" class="s33" d="m558 631l4-3 26 3 1 2h-31z"/>
		<path id="Path 790" class="s4" d="m705 631l2-3-1 5h-1z"/>
		<path id="Path 791" class="s29" d="m247 633v-4l4 2v2z"/>
		<path id="Path 792" class="s94" d="m415 630l10-1v10l4 3 2 9-10 3h-1l-2-5h-7v-10l4-3z"/>
		<path id="Path 793" class="s33" d="m536 631l1-2 9 2z"/>
		<path id="Path 794" class="s80" d="m619 636v-7l8 1 3 1-7 6z"/>
		<path id="Path 795" class="s63" d="m635 631l2-2h6v4z"/>
		<path id="Path 796" class="s65" d="m643 633v-4h10l3 4-2 2z"/>
		<path id="Path 797" class="s2" d="m211 632v-1l5 2z"/>
		<path id="Path 798" class="s84" d="m251 633v-2h4l12 4 1 13h-2-2l-9-3v-7z"/>
		<path id="Path 799" class="s0" d="m531 633l2-2h3 10v1z"/>
		<path id="Path 800" class="s82" d="m546 632v-1h5v1z"/>
		<path id="Path 801" class="s1" d="m551 632v-1h2 5v2z"/>
		<path id="Path 802" class="s74" d="m623 637l7-6h5l8 2 11 2 7 2 2 4h-2-21l-2-1-9-2h-6z"/>
		<path id="Path 803" class="s65" d="m675 633l4-2 2 2-1 2h-4z"/>
		<path id="Path 804" class="s9" d="m696 634l7-3h2v2l-1 2-5 3h-3l-7 1z"/>
		<path id="Path 805" class="s2" d="m229 638l-9-1-4-4 12 3z"/>
		<path id="Path 806" class="s68" d="m241 641l6-8h4l4 5v7l-7-1-4-1h-1z"/>
		<path id="Path 807" class="s3" d="m519 638l9-5h1z"/>
		<path id="Path 808" class="s11" d="m606 635l-8-2h4l4 1z"/>
		<path id="Path 809" class="s93" d="m654 635l2-2h8l-3 4z"/>
		<path id="Path 810" class="s94" d="m661 637l3-4h7 4l1 2-3 6h-10z"/>
		<path id="Path 811" class="s87" d="m680 635l1-2h6l9 1-7 5h-4z"/>
		<path id="Path 812" class="s85" d="m704 635l1-2h1z"/>
		<path id="Path 813" class="s2" d="m606 635v-1h3l8 2-1 1z"/>
		<path id="Path 814" class="s69" d="m268 648l-1-13h6l15 1 5 7v8h-5-3l-10-2h-4z"/>
		<path id="Path 815" class="s96" d="m477 643v-8h18v6l-5 2 1 3-4 1-1-3z"/>
		<path id="Path 816" class="s96" d="m673 641l3-6h4l5 4-6 2z"/>
		<path id="Path 817" class="s92" d="m372 637l5-1v7l-5-1z"/>
		<path id="Path 818" class="s0" d="m616 637l1-1h2l4 1v1z"/>
		<path id="Path 819" class="s86" d="m293 643l15-1 6-5 5 2 3 10v7h-1l-17-2-8-2-3-1z"/>
		<path id="Path 820" class="s0" d="m243 643l-14-5 12 3z"/>
		<path id="Path 821" class="s4" d="m689 639l7-1-17 4v-1l6-2z"/>
		<path id="Path 822" class="s89" d="m322 649l-3-10h14v4l-2 6z"/>
		<path id="Path 823" class="s58" d="m499 641l5-2 1 4h-1-4z"/>
		<path id="Path 824" class="s85" d="m640 642l-2-2 2 1z"/>
		<path id="Path 825" class="s89" d="m491 646l-1-3 5-2h4l1 2-1 2h-2z"/>
		<path id="Path 826" class="s4" d="m640 642v-1h21v1z"/>
		<path id="Path 827" class="s0" d="m661 642v-1h2 10 6v1z"/>
		<path id="Path 828" class="s11" d="m248 645l-4-2 4 1z"/>
		<path id="Path 829" class="s91" d="m469 645l8-2 9 1 1 3v1h-3l-7 2h-1-2z"/>
		<path id="Path 830" class="s11" d="m499 645l1-2h4z"/>
		<path id="Path 831" class="s2" d="m248 645v-1l7 1 9 3z"/>
		<path id="Path 832" class="s73" d="m455 647l14-2 5 5-1 5h-4v-4l-12-2z"/>
		<path id="Path 833" class="s43" d="m491 646l6-1-10 3v-1z"/>
		<path id="Path 834" class="s86" d="m381 659v-12h9l3 4-2 3 2 1v6h-5z"/>
		<path id="Path 835" class="s65" d="m446 649l4-2h5l2 2v2z"/>
		<path id="Path 836" class="s43" d="m271 650l-5-2h2l3 1z"/>
		<path id="Path 837" class="s81" d="m271 650v-1h4v2z"/>
		<path id="Path 838" class="s53" d="m275 651v-2l10 2z"/>
		<path id="Path 839" class="s88" d="m322 656v-7h9l2 8z"/>
		<path id="Path 840" class="s66" d="m359 659l-2-9 8-1 4 2v8h-4z"/>
		<path id="Path 841" class="s18" d="m405 651l6-2h7l2 5-3 1h-10-2z"/>
		<path id="Path 842" class="s27" d="m439 650l7-1 11 2 3 6-3 4h-6-19l-11-1v-6l10-3z"/>
		<path id="Path 843" class="s26" d="m457 651v-2l12 2v4l-9 2z"/>
		<path id="Path 844" class="s23" d="m473 655l1-5h2l1 8v3l-5 1z"/>
		<path id="Path 845" class="s81" d="m288 652l-13-1h10 3z"/>
		<path id="Path 846" class="s1" d="m288 652v-1h5l3 1v1z"/>
		<path id="Path 847" class="s87" d="m393 655l-2-1 2-3h8v4z"/>
		<path id="Path 848" class="s80" d="m401 655v-4h4v4z"/>
		<path id="Path 849" class="s50" d="m296 653v-1l8 2v1z"/>
		<path id="Path 850" class="s16" d="m304 655v-1l17 2v1z"/>
		<path id="Path 851" class="s26" d="m417 655l3-1h1v6 1h-4z"/>
		<path id="Path 852" class="s63" d="m393 661v-6h8 4 2v6h-6z"/>
		<path id="Path 853" class="s59" d="m407 661v-6h10v6h-2-5z"/>
		<path id="Path 854" class="s8" d="m460 657l9-2h4l-1 7-21 1v-2h6z"/>
		<path id="Path 855" class="s0" d="m321 657v-1h1l11 1v1z"/>
		<path id="Path 856" class="s4" d="m344 660l-6-2 6 1z"/>
		<path id="Path 857" class="s10" d="m477 661v-3l2 9h-1z"/>
		<path id="Path 858" class="s0" d="m344 660v-1h8v1z"/>
		<path id="Path 859" class="s81" d="m352 660v-1h7 6v2z"/>
		<path id="Path 860" class="s60" d="m365 661v-2h4 8v2h-6z"/>
		<path id="Path 861" class="s33" d="m377 661v-2h4l7 2h-4z"/>
		<path id="Path 862" class="s53" d="m421 661v-1l11 1v2h-1-10z"/>
		<path id="Path 863" class="s81" d="m371 662l-6-1h6z"/>
		<path id="Path 864" class="s0" d="m371 662v-1h6 7v1z"/>
		<path id="Path 865" class="s81" d="m384 662v-1h4 5v1z"/>
		<path id="Path 866" class="s82" d="m393 662v-1h8v1z"/>
		<path id="Path 867" class="s1" d="m401 662v-1h6 3v2z"/>
		<path id="Path 868" class="s14" d="m410 663v-2h5v2z"/>
		<path id="Path 869" class="s33" d="m415 663v-2h2 4v2z"/>
		<path id="Path 870" class="s32" d="m432 663v-2h19v2l-8 1z"/>
		<path id="Path 871" class="s9" d="m472 662l5-1 1 6-12 1h-7l-16-3v-1l8-1z"/>
		<path id="Path 872" class="s14" d="m443 665l-12-2h1l11 1z"/>
		<path id="Path 873" class="s85" d="m466 668l12-1h1v3h-13z"/>
	</g>
</svg>