<svg version="1.2" xmlns="http://www.w3.org/2000/svg" viewBox="0 0 1000 1000" width="1000" height="1000">
	<title>Lepomis_megalotis</title>
	<style>
		.s0 { opacity: .2;fill: #d7dcda } 
		.s1 { opacity: .7;fill: #c5cdca } 
		.s2 { opacity: .8;fill: #e5e9e7 } 
		.s3 { opacity: .1;fill: #f2f4f2 } 
		.s4 { opacity: .1;fill: #8a9592 } 
		.s5 { opacity: .4;fill: #61716f } 
		.s6 { opacity: 1;fill: #c4ccc5 } 
		.s7 { opacity: .8;fill: #adb7b5 } 
		.s8 { fill: #44514b } 
		.s9 { fill: #888d83 } 
		.s10 { fill: #797d72 } 
		.s11 { fill: #4c6161 } 
		.s12 { fill: #485753 } 
		.s13 { opacity: .4;fill: #f2f4f1 } 
		.s14 { fill: #809091 } 
		.s15 { opacity: .3;fill: #d0d7d5 } 
		.s16 { fill: #3d4a46 } 
		.s17 { fill: #556057 } 
		.s18 { fill: #35433f } 
		.s19 { opacity: 1;fill: #91a3a7 } 
		.s20 { opacity: .6;fill: #ebeeec } 
		.s21 { fill: #212623 } 
		.s22 { opacity: .8;fill: #839192 } 
		.s23 { fill: #788780 } 
		.s24 { opacity: .2;fill: #b4bfbd } 
		.s25 { opacity: 1;fill: #d2d8d5 } 
		.s26 { fill: #949587 } 
		.s27 { fill: #a4aa9d } 
		.s28 { fill: #999e91 } 
		.s29 { fill: #adbabb } 
		.s30 { fill: #706d54 } 
		.s31 { fill: #6e7569 } 
		.s32 { fill: #2f3c37 } 
		.s33 { fill: #212c2b } 
		.s34 { fill: #1c1618 } 
		.s35 { fill: #898767 } 
		.s36 { fill: #7b7860 } 
		.s37 { fill: #444433 } 
		.s38 { fill: #828679 } 
		.s39 { fill: #1c1e1b } 
		.s40 { fill: #636b62 } 
		.s41 { fill: #22373c } 
		.s42 { fill: #b6baad } 
		.s43 { fill: #a5a284 } 
		.s44 { opacity: .5;fill: #819090 } 
		.s45 { fill: #717e78 } 
		.s46 { fill: #909076 } 
		.s47 { fill: #182629 } 
		.s48 { fill: #5f5f46 } 
		.s49 { fill: #c4c0a8 } 
		.s50 { fill: #596c6a } 
		.s51 { fill: #a7a792 } 
		.s52 { fill: #adb1a4 } 
		.s53 { opacity: .5;fill: #9daba8 } 
		.s54 { fill: #223032 } 
		.s55 { fill: #101e21 } 
		.s56 { fill: #0f1214 } 
		.s57 { fill: #bbb69b } 
		.s58 { fill: #8d978f } 
		.s59 { opacity: 1;fill: #f1f2ec } 
		.s60 { opacity: .5;fill: #bdc7c6 } 
		.s61 { fill: #dcdac7 } 
		.s62 { fill: #c6c8b5 } 
		.s63 { fill: #98a398 } 
		.s64 { fill: #9b997c } 
		.s65 { fill: #b1ab87 } 
		.s66 { fill: #fadc95 } 
		.s67 { fill: #657675 } 
		.s68 { fill: #a9843b } 
		.s69 { fill: #927634 } 
		.s70 { fill: #785e1e } 
		.s71 { fill: #ddd4b7 } 
		.s72 { fill: #be9544 } 
		.s73 { fill: #f2ecd1 } 
		.s74 { fill: #2f332b } 
		.s75 { fill: #52523f } 
		.s76 { fill: #6a592e } 
		.s77 { fill: #4a3f23 } 
		.s78 { fill: #7b6f48 } 
		.s79 { fill: #b9b290 } 
		.s80 { fill: #786735 } 
		.s81 { fill: #9f9265 } 
		.s82 { fill: #978550 } 
		.s83 { fill: #b3a070 } 
		.s84 { fill: #d9cca8 } 
		.s85 { fill: #8a7c53 } 
		.s86 { fill: #ccb889 } 
		.s87 { fill: #d6c194 } 
		.s88 { fill: #f7e0a9 } 
		.s89 { fill: #c3a359 } 
		.s90 { fill: #e9ce9b } 
		.s91 { fill: #e6c37a } 
		.s92 { fill: #c6a86d } 
		.s93 { fill: #b1914e } 
		.s94 { fill: #f2d186 } 
		.s95 { fill: #d3b578 } 
		.s96 { fill: #856c2d } 
		.s97 { fill: #f8e9b8 } 
		.s98 { fill: #e8be61 } 
	</style>
	<g id="Background">
		<path id="Path 0" class="s0" d="m449 352h1v1h-1z"/>
		<path id="Path 1" class="s1" d="m450 353v-1h9v2h-9z"/>
		<path id="Path 2" class="s2" d="m459 354v-2h13v1 1h-11z"/>
		<path id="Path 3" class="s3" d="m413 355l7-2v1z"/>
		<path id="Path 4" class="s0" d="m420 354v-1h16v1h-14z"/>
		<path id="Path 5" class="s4" d="m436 354v-1h7v1h-5z"/>
		<path id="Path 6" class="s5" d="m443 354v-1h6 1v1z"/>
		<path id="Path 7" class="s4" d="m472 354v-1h4v1z"/>
		<path id="Path 8" class="s0" d="m476 354v-1l11 1h-10z"/>
		<path id="Path 9" class="s6" d="m413 355l7-1h2v2h-2-7z"/>
		<path id="Path 10" class="s7" d="m422 356v-2h14 2l-4 2z"/>
		<path id="Path 11" class="s8" d="m434 356l4-2h5 7 9 2l5 4 2 10-7 4h-5l-2-10-8 2h-11z"/>
		<path id="Path 12" class="s9" d="m466 358l-5-4h11 4 1l6 3v2h-7z"/>
		<path id="Path 13" class="s2" d="m483 357l-6-3h10v1z"/>
		<path id="Path 14" class="s3" d="m394 357l11-2v1l-10 1z"/>
		<path id="Path 15" class="s4" d="m405 356v-1h8v1h-5z"/>
		<path id="Path 16" class="s10" d="m483 357l4-2h1v5l-5-1z"/>
		<path id="Path 17" class="s9" d="m488 360v-5h2l9 2h2l3 1 10 2v2l-3 4h-4l-6-5z"/>
		<path id="Path 18" class="s6" d="m395 357l10-1h3v1l-11 1z"/>
		<path id="Path 19" class="s11" d="m408 357v-1h5 7v5h-11z"/>
		<path id="Path 20" class="s12" d="m420 361v-5h2 12l1 8-1 6-2 6-4 1v3h-10l4-15z"/>
		<path id="Path 21" class="s13" d="m373 360l19-3-15 3z"/>
		<path id="Path 22" class="s14" d="m377 360l15-3h2 1l2 1-1 2-19 2h-1z"/>
		<path id="Path 23" class="s8" d="m397 358l11-1 1 4-3 4-10-1v-4z"/>
		<path id="Path 24" class="s0" d="m504 358l-3-1h3z"/>
		<path id="Path 25" class="s15" d="m504 358v-1l13 1v2h-3z"/>
		<path id="Path 26" class="s16" d="m468 368l-2-10 10 1v9z"/>
		<path id="Path 27" class="s13" d="m517 360v-2l5 2h-1z"/>
		<path id="Path 28" class="s17" d="m476 368v-9h7l5 1 13 1 6 5 2 4 1 6h9l1 6v8l2 10v4l-14-2-8-12-1-9-11-1v-4l-7-7h-4z"/>
		<path id="Path 29" class="s1" d="m363 362l10-2h4l-1 2h-12z"/>
		<path id="Path 30" class="s18" d="m377 362l19-2v4l-2 4h-7l-1 4h-11l-3-4v-3z"/>
		<path id="Path 31" class="s19" d="m514 362v-2h3 4l2 2-1 1z"/>
		<path id="Path 32" class="s20" d="m523 362l-2-2h1l9 2h-5z"/>
		<path id="Path 33" class="s21" d="m396 364l10 1 3-4h11l2 4-4 15-1 4h-11l-2-8h-8l-2-8z"/>
		<path id="Path 34" class="s0" d="m348 365l11-3-6 2-4 1z"/>
		<path id="Path 35" class="s22" d="m353 364l6-2h4 1v2l-11 2z"/>
		<path id="Path 36" class="s23" d="m364 364v-2h12 1l-5 3z"/>
		<path id="Path 37" class="s16" d="m446 364l8-2 2 10v2h-10v-4z"/>
		<path id="Path 38" class="s12" d="m511 366l3-4 8 1v5l-5 1h-5z"/>
		<path id="Path 39" class="s10" d="m522 363l1-1h3l8 2 1 6-13 5v-7z"/>
		<path id="Path 40" class="s2" d="m534 364l-8-2h5l8 1v1z"/>
		<path id="Path 41" class="s2" d="m614 363l36-1v2h-24-12z"/>
		<path id="Path 42" class="s3" d="m650 364v-2l11 5-5-1z"/>
		<path id="Path 43" class="s3" d="m539 364v-1l10 2-8-1z"/>
		<path id="Path 44" class="s3" d="m585 364l9-1v1z"/>
		<path id="Path 45" class="s0" d="m594 364v-1h6v1h-5z"/>
		<path id="Path 46" class="s24" d="m600 364v-1h6v1z"/>
		<path id="Path 47" class="s4" d="m606 364v-1h8v1h-6z"/>
		<path id="Path 48" class="s25" d="m349 365l4-1v2h-3z"/>
		<path id="Path 49" class="s8" d="m353 366l11-2v4l-4 2-11-2 1-2z"/>
		<path id="Path 50" class="s16" d="m364 368v-4l8 1v3z"/>
		<path id="Path 51" class="s18" d="m434 370l1-6h11v6z"/>
		<path id="Path 52" class="s26" d="m535 370l-1-6h5 2l1 6z"/>
		<path id="Path 53" class="s27" d="m542 370l-1-6 8 1 1 1 1 2-4 2z"/>
		<path id="Path 54" class="s24" d="m578 365l7-1v2h-5-2z"/>
		<path id="Path 55" class="s2" d="m585 366v-2h9 1l-1 2z"/>
		<path id="Path 56" class="s6" d="m594 366l1-2h5v2z"/>
		<path id="Path 57" class="s28" d="m600 366v-2h6 2l1 10-3 2-6-3z"/>
		<path id="Path 58" class="s27" d="m609 374l-1-10h6 12v6l-4 2-7 2z"/>
		<path id="Path 59" class="s19" d="m626 370v-6h24l6 2v11l-2 2-22-1v-5z"/>
		<path id="Path 60" class="s29" d="m341 367l7-2h1l1 1-1 2-11 1-1-1 2-1z"/>
		<path id="Path 61" class="s0" d="m550 366l-1-1h29v1z"/>
		<path id="Path 62" class="s30" d="m509 370l-2-4h4l1 3z"/>
		<path id="Path 63" class="s25" d="m551 368l-1-2h28 2v1l-18 2z"/>
		<path id="Path 64" class="s10" d="m580 367v-1h5 9 6v7l6 3v4l-4 2h-7l-3 3h-2l-1-3h-5l-2-3z"/>
		<path id="Path 65" class="s6" d="m656 377v-11l5 1 6 3 10 6 2 1 1 2-13 1-2 3h-1z"/>
		<path id="Path 66" class="s0" d="m330 369l9-2-2 1-3 1z"/>
		<path id="Path 67" class="s31" d="m562 369l18-2 2 12-4 1v6h-6l-4-8h-8l-1-5z"/>
		<path id="Path 68" class="s23" d="m334 369l3-1 1 1-5 2z"/>
		<path id="Path 69" class="s32" d="m338 369l11-1 11 2v3l-12 7-23-2v-3l8-4z"/>
		<path id="Path 70" class="s33" d="m360 370l4-2h8l3 4h11l2 4h8 8l2 8v6l-12 12h-10l-3 4-5-2 2-8-1-5-5-3v-7l-12-8z"/>
		<path id="Path 71" class="s34" d="m386 372l1-4h7l2 8h-8z"/>
		<path id="Path 72" class="s21" d="m461 372l7-4h8l1 1-5 7-4 2h-7v-2z"/>
		<path id="Path 73" class="s35" d="m517 369l5-1v7h-3z"/>
		<path id="Path 74" class="s9" d="m547 370l4-2 11 1-3 4-9 1z"/>
		<path id="Path 75" class="s1" d="m316 377l14-8h4l-1 2-8 4-10 6h-3v-1z"/>
		<path id="Path 76" class="s16" d="m472 376l5-7h4l7 7v4l-4 3h-4z"/>
		<path id="Path 77" class="s36" d="m509 370l3-1h5l2 6v1h-9z"/>
		<path id="Path 78" class="s32" d="m432 376l2-6h12v4l-4 2z"/>
		<path id="Path 79" class="s37" d="m522 375l13-5h7 5l3 4-6 2h-9l-8 5-7 1-1-6v-1z"/>
		<path id="Path 80" class="s28" d="m622 372l4-2 6 3v5l-6 2-4-4z"/>
		<path id="Path 81" class="s13" d="m677 376l-10-6 10 5z"/>
		<path id="Path 82" class="s33" d="m456 374v-2h5v4z"/>
		<path id="Path 83" class="s38" d="m615 374l7-2v4h-7z"/>
		<path id="Path 84" class="s39" d="m348 380l12-7 12 8v7l5 3 1 5-2 8-14 2v-5l-6-8-8-4z"/>
		<path id="Path 85" class="s40" d="m550 374l9-1 1 5v16l-14-2-2-16z"/>
		<path id="Path 86" class="s18" d="m442 376l4-2h10l5 2v2l-1 12 4 3v13h-13l-3-2-2-8z"/>
		<path id="Path 87" class="s30" d="m606 376l3-2h6v2l-3 4h-6z"/>
		<path id="Path 88" class="s41" d="m315 381l10-6v3l-1 4z"/>
		<path id="Path 89" class="s3" d="m677 376v-1l2 2z"/>
		<path id="Path 90" class="s8" d="m428 380v-3l4-1h10l4 20h-6l-3-9h-7z"/>
		<path id="Path 91" class="s12" d="m468 378l4-2 8 7 1 9 6 2 3-4h10l8 12 14 2h6l5 5h5v11l-7 1-21-4-5-1-9 2h-10l-1-2-4 2h-7l-6-10 4-5z"/>
		<path id="Path 92" class="s31" d="m527 381l8-5h9l2 16-4 3v7h-4v-3l-8-5v-4z"/>
		<path id="Path 93" class="s26" d="m612 380l3-4h7l4 4v10h-10l-4-4z"/>
		<path id="Path 94" class="s15" d="m311 380l5-3-4 3z"/>
		<path id="Path 95" class="s42" d="m654 379l2-2 8 6-2 3h-6z"/>
		<path id="Path 96" class="s3" d="m680 379l-1-2 5 1 8 10z"/>
		<path id="Path 97" class="s33" d="m324 382l1-4 23 2v9l8 4 6 8v5l-2 10-3 11-3 1-6-14h-10v-12l-10-7v-10z"/>
		<path id="Path 98" class="s8" d="m464 406v-13l-4-3 1-12h7l4 25-4 5h-4z"/>
		<path id="Path 99" class="s17" d="m560 394v-16h8l4 8h6 6 5v2l-1 12 2 10v20h-4l-4 6 4 14-7-1-3-3h-8l-4-7-8-2v-7l12-2-2-10-2-18-4-2z"/>
		<path id="Path 100" class="s43" d="m626 380l6-2 22 1 2 7v2l-24 6-6-4z"/>
		<path id="Path 101" class="s36" d="m578 386v-6l4-1 2 3v4z"/>
		<path id="Path 102" class="s19" d="m665 383l2-3 13-1 12 9 2 2 5 6v1 1 5l-6 2-8-11h-7z"/>
		<path id="Path 103" class="s44" d="m299 382l12-2h1v1l-5 2-8 1z"/>
		<path id="Path 104" class="s18" d="m417 384l1-4h10l2 7-2 3h-6z"/>
		<path id="Path 105" class="s45" d="m484 383l4-3 11 1 1 9h-10z"/>
		<path id="Path 106" class="s46" d="m602 382l4-2h6v6h-10z"/>
		<path id="Path 107" class="s47" d="m307 383l5-2h3l9 1 4 3v10l-15-1-6-6z"/>
		<path id="Path 108" class="s8" d="m520 382l7-1 3 9h-10z"/>
		<path id="Path 109" class="s2" d="m290 384l9-2v2h-1l-8 2z"/>
		<path id="Path 110" class="s48" d="m584 386v-4h5l1 3-1 1z"/>
		<path id="Path 111" class="s49" d="m592 385l3-3h7v4l-2 2h-8z"/>
		<path id="Path 112" class="s39" d="m299 384l8-1v5l6 6 15 1 10 7v12l-2 3h-2l-4-5-24 2-1-7-10-1 2 6 7 3v9l-7 5-19-3v-8l-4-1-6-5v-10l6-6h11l11-6 2-6z"/>
		<path id="Path 113" class="s50" d="m490 390l-3 4-6-2-1-9h4z"/>
		<path id="Path 114" class="s14" d="m662 386l2-3h1l13 11-9 3z"/>
		<path id="Path 115" class="s24" d="m284 387l6-3v2l-3 1z"/>
		<path id="Path 116" class="s33" d="m290 386l8-2-2 6-11 6h-11v-3l13-6z"/>
		<path id="Path 117" class="s32" d="m376 404l5 2 3-4h10l12-12v-6h11l5 6h6l2-3h7l3 9-4 6h-7l-2 8h-9l-7 5-5-3-10 2-6 2h-11l-3 4h-6l-2-4h-8l2-10z"/>
		<path id="Path 118" class="s51" d="m589 386l1-1h2v3h-3z"/>
		<path id="Path 119" class="s35" d="m600 388l2-2h10l4 4h10l6 4v4l-2 8-9 1-3-3-7-8h-9z"/>
		<path id="Path 120" class="s23" d="m656 388v-2h6l7 11-3 3h-4z"/>
		<path id="Path 121" class="s22" d="m276 390l6-3h2 3l-13 6-17 7 2-3 4-2 7-3z"/>
		<path id="Path 122" class="s40" d="m588 400l1-12h3 8l2 8-1 3-3 1z"/>
		<path id="Path 123" class="s31" d="m632 394l24-6 6 12-13 7-13 2v-3l2-6-6-2z"/>
		<path id="Path 124" class="s10" d="m522 400l-2-10h10v4l8 5v3 7h-5l-5-5-1-4z"/>
		<path id="Path 125" class="s12" d="m542 402v-7l4-3 14 2v4l-1 18 7 2 2 10-12 2v-4l-6-2v-15z"/>
		<path id="Path 126" class="s47" d="m257 400l17-7v3l-6 6v10h-9l-2-4h-5v-5l1-1z"/>
		<path id="Path 127" class="s51" d="m669 397l9-3h7l8 11-3 7h-23l-1-12z"/>
		<path id="Path 128" class="s16" d="m436 402l4-6h6l2 8-2 4h-8z"/>
		<path id="Path 129" class="s46" d="m601 399l1-3h9l7 8h-4-10z"/>
		<path id="Path 130" class="s15" d="m251 402l2-4 6-1-2 3-4 2z"/>
		<path id="Path 131" class="s3" d="m699 398v-1l3 3z"/>
		<path id="Path 132" class="s45" d="m566 418l-7-2 1-18 4 2z"/>
		<path id="Path 133" class="s10" d="m630 406l2-8 6 2-2 6z"/>
		<path id="Path 134" class="s6" d="m693 405l6-2v-5l3 2 6 12v1l-6 3h-8l-4-4z"/>
		<path id="Path 135" class="s38" d="m598 400l3-1 3 5-1 2h-5z"/>
		<path id="Path 136" class="s50" d="m522 404v-4h5l1 4z"/>
		<path id="Path 137" class="s10" d="m590 410l-2-10h10v6l-4 1v3z"/>
		<path id="Path 138" class="s52" d="m649 407l13-7h4l1 12-3 3-6-1z"/>
		<path id="Path 139" class="s13" d="m708 412l-6-12 7 8v4z"/>
		<path id="Path 140" class="s53" d="m241 407l10-5h2l-1 1-12 6z"/>
		<path id="Path 141" class="s12" d="m427 410l2-8h7l2 6h8 1l-2 5z"/>
		<path id="Path 142" class="s11" d="m538 409v-7h4l8 7v15h-8l-4-4z"/>
		<path id="Path 143" class="s54" d="m240 409l12-6v5 6h-12l-2-2z"/>
		<path id="Path 144" class="s8" d="m446 408l2-4 3 2-4 2z"/>
		<path id="Path 145" class="s17" d="m603 406l1-2h10l-1 4h-9z"/>
		<path id="Path 146" class="s9" d="m613 408l1-4h4l3 3-4 4z"/>
		<path id="Path 147" class="s34" d="m304 415l-7-3-2-6 10 1 1 7z"/>
		<path id="Path 148" class="s17" d="m447 408l4-2h13v2l-1 8-19 5v10l-4 2v9l-2 8h-10l-16-2h-11l-2 7-5 2v5l-1 5-5 1-2 12v2h-9l-4-6 3-11 7-6v-10l3-3v-11l4-1 5 1 1-21 10-2 5 3 7-5h9l18 3z"/>
		<path id="Path 149" class="s31" d="m594 410v-3l4-1h5l1 2v12l-5 1z"/>
		<path id="Path 150" class="s40" d="m621 407l9-1h6v3l-7 6-6 2-5-1-1-5z"/>
		<path id="Path 151" class="s0" d="m238 409l3-2-1 2z"/>
		<path id="Path 152" class="s43" d="m636 409l13-2 9 7-13 14h-5l-1-7-10-6z"/>
		<path id="Path 153" class="s55" d="m252 414v-6h5l2 4z"/>
		<path id="Path 154" class="s40" d="m444 431v-10l19-5 1-8h4l6 10 1 5 6-3 5-2h10v12l3 2 3 12-8 4-7-1v5h-4l-1-15-4-4h-6l-4-5h-7l-1 4z"/>
		<path id="Path 155" class="s23" d="m599 421l5-1v-12h9l4 3 1 5 5 1 1 15 8 7v11l-12-2-2-6-13-3-11-9z"/>
		<path id="Path 156" class="s53" d="m227 417l11-8h2l-2 3-11 6z"/>
		<path id="Path 157" class="s40" d="m590 430v-20h4l5 11-5 9z"/>
		<path id="Path 158" class="s47" d="m227 418l11-6 2 2v12h-12l-6 6-10-2v-1l11-8z"/>
		<path id="Path 159" class="s56" d="m252 414l7-2h9l6 5v9l-2 12-4 6h-12l-2-4h-7l-1 10-8 4-19 1-8 10-9 4-2 11h-9l-3-3v-20l11-4 7-8 16-9h9l7 4 4-5v-9l9-5z"/>
		<path id="Path 160" class="s33" d="m306 414l24-2 4 5 2 7v10l-7 3-7 3-4 9v13l6 5v15l-8 3-3-2-2-3v-4h-5-7l-4-1-1-10-6-5h-7v-11l2-4 4-1v-3l-5-1-10-2 2-12h4l19 3 7-5v-9z"/>
		<path id="Path 161" class="s57" d="m664 415l3-3h23l4 4-4 6-12 2-12 2z"/>
		<path id="Path 162" class="s2" d="m708 413v-1h1l3 7-3-2z"/>
		<path id="Path 163" class="s14" d="m702 416l6-3 1 4-3 4-4 1z"/>
		<path id="Path 164" class="s39" d="m240 426v-12h12l-1 7-9 5z"/>
		<path id="Path 165" class="s32" d="m336 417l2-3h10l6 14v8l-2 1h-6v-9l-7-4z"/>
		<path id="Path 166" class="s12" d="m390 416l6-2-1 21-5-1z"/>
		<path id="Path 167" class="s51" d="m645 428l13-14 6 1 2 11-5 3-9 3h-6z"/>
		<path id="Path 168" class="s38" d="m623 417l6-2 10 6 1 7v6l6 2 1 2-1 17-4 3-10-8v-11l-8-7z"/>
		<path id="Path 169" class="s12" d="m357 427l3-11h8l2 4-8 8z"/>
		<path id="Path 170" class="s16" d="m370 420h6l3-4h11v18l-4 1v11l-3 3h-20l-1-5-4-2v-5l4-3v-6z"/>
		<path id="Path 171" class="s58" d="m481 418l4-2 1 2-5 2z"/>
		<path id="Path 172" class="s31" d="m496 418l9-2 3 5-9 11-3-2z"/>
		<path id="Path 173" class="s40" d="m508 421l-3-5 5 1z"/>
		<path id="Path 174" class="s58" d="m690 422l4-6h8v6l-8 3v-3z"/>
		<path id="Path 175" class="s1" d="m223 420l4-3v1l-4 3z"/>
		<path id="Path 176" class="s34" d="m274 426v-9l4 1v8z"/>
		<path id="Path 177" class="s17" d="m336 424l-2-7h2l3 7z"/>
		<path id="Path 178" class="s10" d="m508 421l2-4 21 4 3 10-1 8 5 2 2 3 1 13 7 7v6h-8l-6-4 2-14-15-2-1 13-4 3v14h-2-5l-3-3-2-9-4-3-6-10v-7l8-4-3-12z"/>
		<path id="Path 179" class="s59" d="m706 421l3-4 3 2v1l5 10v5 10 5l-2 6h-1l-3-2v-10l2-7-1-10z"/>
		<path id="Path 180" class="s17" d="m481 420l-6 3-1-5h7z"/>
		<path id="Path 181" class="s60" d="m210 427l13-7v1l-11 8h-2z"/>
		<path id="Path 182" class="s40" d="m531 421l7-1 4 4h8l6 2v4 7 1l-9-1-9-1v-4l-4-1z"/>
		<path id="Path 183" class="s52" d="m702 422l4-1 6 6 1 10-12-3-21 2-2-6 1-1 15-4z"/>
		<path id="Path 184" class="s17" d="m678 424l12-2h4v3l-15 4z"/>
		<path id="Path 185" class="s16" d="m336 434v-10h3l7 4v9l-3 1z"/>
		<path id="Path 186" class="s31" d="m666 426l12-2 1 5-1 1-8 2h-4-4l-1-3z"/>
		<path id="Path 187" class="s34" d="m222 432l6-6h12 2v9l-4 5-7-4h-9z"/>
		<path id="Path 188" class="s0" d="m208 430l2-3v2z"/>
		<path id="Path 189" class="s17" d="m354 428l3-1 5 1v6l-4 3-4-1z"/>
		<path id="Path 190" class="s31" d="m460 432l1-4h7l4 5h6l4 4 1 15-2 4-7 2-10-8 2-15z"/>
		<path id="Path 191" class="s26" d="m646 436l-6-2v-6h5l1 4z"/>
		<path id="Path 192" class="s23" d="m208 430l2-1h2v1l-8 5v-1l2-2z"/>
		<path id="Path 193" class="s26" d="m652 432l9-3 1 3h4v11l6 4-2 5-6 3 2 11v2l-24-6v-4l4-3 1-17z"/>
		<path id="Path 194" class="s55" d="m204 435l8-5 10 2v4l-16 9-7 8-11 4v20l3 3h9l2-11 9-4 8-10 19-1v5l4 3 4 26v6l-2 8 3 2-3 4-3 4-11 7h-4l-3-7h-10l-6 4v6l-5 2-8-4-3-12 2-1 5 1v-6h-5l-5-8h-8l-1-5-10-7h-4l-9 9v5l3 1 2 7 13 4v6l-8 10h-4l-4-5h-6v-7l-3-8-13-2v-8l11-7 1-6 4-4 12-10 5-5 2-1 6-5 4-4 8-6z"/>
		<path id="Path 195" class="s34" d="m204 495l2-1 6 2-2 8-6-2z"/>
		<path id="Path 196" class="s45" d="m204 495l-4-2 2-4 4 1v4z"/>
		<path id="Path 197" class="s12" d="m586 450l-4-14 4-6h4 4l11 9 13 3 2 6v8l8 7v6h-4l-5-2-9-6h-7l-9-11z"/>
		<path id="Path 198" class="s57" d="m670 432l8-2 2 6 21-2 2 9-3 29-3 6h-3l-21-6-4-4v-2l9-4-1-9-7-1 2-5 3-7z"/>
		<path id="Path 199" class="s10" d="m440 442v-9l4-2 16 1 6 3-2 15h-11l-1-8z"/>
		<path id="Path 200" class="s27" d="m538 441l-5-2 1-8 4 1v4z"/>
		<path id="Path 201" class="s24" d="m201 435l5-3-2 2z"/>
		<path id="Path 202" class="s9" d="m646 436v-4h6l-5 6z"/>
		<path id="Path 203" class="s43" d="m672 447l-6-4v-11h4l5 8z"/>
		<path id="Path 204" class="s7" d="m201 435l3-1v1l-15 11v-1l10-8z"/>
		<path id="Path 205" class="s18" d="m329 437l7-3 7 4v5l9-2 6 1 4 2 1 5-10 19-9 1-4-3v-8l-9-6z"/>
		<path id="Path 206" class="s61" d="m703 443l-2-9 12 3-2 7z"/>
		<path id="Path 207" class="s3" d="m717 445v-10l2 10z"/>
		<path id="Path 208" class="s12" d="m352 437l2-1 4 1v5l-6-1z"/>
		<path id="Path 209" class="s38" d="m538 441v-5l9 1v7h-7z"/>
		<path id="Path 210" class="s32" d="m324 482v-15l-6-5v-13l4-9 7-3 2 15 9 6v8l4 3v7l-3 6z"/>
		<path id="Path 211" class="s33" d="m343 438l3-1h6v4l-9 2z"/>
		<path id="Path 212" class="s58" d="m547 444v-7l9 1v13z"/>
		<path id="Path 213" class="s23" d="m556 438v-1l8 2 4 7h8l3 3v4l-6 6h-6l-6-7-5-1z"/>
		<path id="Path 214" class="s39" d="m268 444l4-6 10 2 1 5-2 4h-8z"/>
		<path id="Path 215" class="s34" d="m246 450l1-10h7l2 4-2 6z"/>
		<path id="Path 216" class="s47" d="m283 445l-1-5 5 1v3z"/>
		<path id="Path 217" class="s40" d="m438 450l2-8h12l1 8-2 4h-9z"/>
		<path id="Path 218" class="s2" d="m896 443h11v1l-6-1-1 3h-4l-10 1v-1-1z"/>
		<path id="Path 219" class="s62" d="m700 472l3-29 8 1v10l3 2-3 13-1 1-6 2z"/>
		<path id="Path 220" class="s25" d="m900 446l1-3 6 1 5 1 2 2h3l5 11 2 4 3 5 2 5 1 3h-2l-9-1-3-4-2-6 1-13-3-4-10-1z"/>
		<path id="Path 221" class="s3" d="m907 444v-1l5 2z"/>
		<path id="Path 222" class="s47" d="m246 450h8l2-6h12l5 5h8v11l-5 5v13l-1 2-3 1-5 2-7 4-14 1-4-26-4-3v-5z"/>
		<path id="Path 223" class="s9" d="m548 470v-6l-7-7-1-13h7l9 7 5 1 6 7h6l6-6v-4l7 1v9l9 7h5l3-5h7l9 6 1 8v13l5 3 1 5 12-5 2-11 7 1 2 4-1 5-7 2-1 8 8 2 1 4-5 20-6-1v-12l-7-7-9-2-2 7-3 2v7h-5l-2-8-5-1-6-1-2-8-7-5-12-14-12-3-2-4h-10z"/>
		<path id="Path 224" class="s1" d="m181 452l8-7v1z"/>
		<path id="Path 225" class="s3" d="m878 446l8-1v1z"/>
		<path id="Path 226" class="s59" d="m878 447v-1h8v1l-4 1h-4z"/>
		<path id="Path 227" class="s26" d="m886 447l10-1-2 12-10 2h-2v-12z"/>
		<path id="Path 228" class="s27" d="m894 458l2-12h4 2l2 14z"/>
		<path id="Path 229" class="s52" d="m904 460l-2-14 10 1 3 4-1 13h-4z"/>
		<path id="Path 230" class="s63" d="m487 452v-5l7 1v7h-4z"/>
		<path id="Path 231" class="s13" d="m868 450l10-3v1l-10 3z"/>
		<path id="Path 232" class="s40" d="m394 462v-5l5-2 2-7h11v12z"/>
		<path id="Path 233" class="s31" d="m412 460v-12l16 2 2 16-4 6-7-10z"/>
		<path id="Path 234" class="s17" d="m628 469v-6l-8-7v-8l12 2 10 8v4l3 10 25 8v9h-9l-5-2-7-2-2-4-7-1v-1l-1-1-5-2v-5z"/>
		<path id="Path 235" class="s50" d="m639 478h1v1h-1z"/>
		<path id="Path 236" class="s52" d="m868 451l10-3h4v12l-4 2h-8l-4-9z"/>
		<path id="Path 237" class="s8" d="m353 468l10-19h20v10l-7 6-3 11-1 12-1 5-3 1-6-9h-4l-5-2v-5z"/>
		<path id="Path 238" class="s45" d="m430 466l-2-16h10l4 4v9h-7v3z"/>
		<path id="Path 239" class="s26" d="m451 454l2-4h11l10 8v7l3 3-3 6-6-4h-10l-4-6 2-8z"/>
		<path id="Path 240" class="s9" d="m516 480v-14l4-3 1-13 15 2-2 14 6 4-2 24v4h-8v-11l-3-4-3-3z"/>
		<path id="Path 241" class="s45" d="m603 461l-3 5h-5l-9-7v-9h8z"/>
		<path id="Path 242" class="s13" d="m715 456l2-6-1 6z"/>
		<path id="Path 243" class="s20" d="m861 453l7-3v1l-2 2-5 1z"/>
		<path id="Path 244" class="s20" d="m176 455l5-3-4 4z"/>
		<path id="Path 245" class="s10" d="m481 456l2-4h4l3 3-6 4z"/>
		<path id="Path 246" class="s64" d="m666 466l-2-11 6-3 7 1 1 9-9 4z"/>
		<path id="Path 247" class="s3" d="m856 454l5-1v1z"/>
		<path id="Path 248" class="s27" d="m861 454l5-1 4 9-4 3-3-3h-9v-4z"/>
		<path id="Path 249" class="s31" d="m442 463v-9h9l5 2-2 8-11 2z"/>
		<path id="Path 250" class="s20" d="m851 457l5-3h5l-7 4h-3z"/>
		<path id="Path 251" class="s53" d="m172 458l4-3 1 1-6 5z"/>
		<path id="Path 252" class="s9" d="m484 459l6-4h4l6 10-3 5h-5-5v5l5-1h5l4 4 5-1 3 3-1 10h-6l-2-3-4 1v10l4 2v10l-4-2-4 2h-11l-3-4v-16l-5-6 1-10 3-6 4-1z"/>
		<path id="Path 253" class="s38" d="m474 458l7-2 3 3-3 8-4 1-3-3z"/>
		<path id="Path 254" class="s20" d="m711 469l3-13h1 1l-4 13z"/>
		<path id="Path 255" class="s15" d="m843 462l8-5v1z"/>
		<path id="Path 256" class="s15" d="m168 462l4-4-1 3-2 1z"/>
		<path id="Path 257" class="s42" d="m843 462l8-4h3v4l-2 4h-6l-3-3z"/>
		<path id="Path 258" class="s51" d="m884 460l10-2 10 2 6 4v6l2 6v3l-1 1h-9l-4-8h-6l-8-7z"/>
		<path id="Path 259" class="s54" d="m276 478v-13l5-5h7l6 5 1 10-6 1-6 2z"/>
		<path id="Path 260" class="s38" d="m394 462l18-2 7 2 7 10v6l2 17v15l-12-1-3-5h-7v-5h-4v5l-4 2v5l-3 3h-15v-9-5l8-4-2-8v-6-2l10-4-3-9z"/>
		<path id="Path 261" class="s43" d="m878 462l4-2h2v5l8 7v11h-2l-6-1-12-8v-3l6-3z"/>
		<path id="Path 262" class="s53" d="m163 465l5-3h1l-5 5h-1z"/>
		<path id="Path 263" class="s46" d="m670 480l-25-8-3-10 24 6h3l4 4 21 6v9l-6-2-5-4z"/>
		<path id="Path 264" class="s15" d="m825 469l18-7v1l-6 3-10 3z"/>
		<path id="Path 265" class="s64" d="m852 466l2-4h9l3 3 1 8 5 1 12 8 2 9v3h-5l-3 4h-14l-3-6h-9v-6l6-3v-9z"/>
		<path id="Path 266" class="s65" d="m866 465l4-3h8v6l-6 3v3l-5-1z"/>
		<path id="Path 267" class="s27" d="m435 466v-3h7l1 3-1 4z"/>
		<path id="Path 268" class="s51" d="m837 466l6-3 3 3-4 8h-4z"/>
		<path id="Path 269" class="s9" d="m443 466l11-2 4 6 1 14-1 8 4 3-2 28-11-6-18-3-3-4v-15l8-1 2-5-9-11h-3v-6l4-6h5l7 4z"/>
		<path id="Path 270" class="s57" d="m910 470v-6h4l2 6z"/>
		<path id="Path 271" class="s15" d="m158 470l5-5v2z"/>
		<path id="Path 272" class="s42" d="m497 470l3-5 4 3 2 9-5 1-4-4z"/>
		<path id="Path 273" class="s65" d="m666 468v-2h3v2z"/>
		<path id="Path 274" class="s28" d="m827 469l10-3 1 8-2 6h-12l-4-6z"/>
		<path id="Path 275" class="s43" d="m842 474l4-8h6l6 8v9l-6 3h-8z"/>
		<path id="Path 276" class="s23" d="m158 470l5-3h1l-12 10v-1l4-4z"/>
		<path id="Path 277" class="s31" d="m386 480l2-12 5-1 3 9z"/>
		<path id="Path 278" class="s10" d="m620 475l-1-8 5 2v6z"/>
		<path id="Path 279" class="s16" d="m344 469l9-1v10h-7l-2-2z"/>
		<path id="Path 280" class="s42" d="m492 474l-5 1v-5h5z"/>
		<path id="Path 281" class="s11" d="m624 475v-6h4l6 2v5z"/>
		<path id="Path 282" class="s3" d="m710 470l1-1h1l-3 4z"/>
		<path id="Path 283" class="s1" d="m815 472l10-3h2l-7 5h-5z"/>
		<path id="Path 284" class="s38" d="m459 484l-1-14h10l6 4-1 10z"/>
		<path id="Path 285" class="s28" d="m492 474v-4h5v4z"/>
		<path id="Path 286" class="s26" d="m538 494l2-24h8l6 6-4 20h-7z"/>
		<path id="Path 287" class="s59" d="m704 472l6-2-1 3-2 4-2 1z"/>
		<path id="Path 288" class="s52" d="m912 476l-2-6h6l3 4z"/>
		<path id="Path 289" class="s15" d="m146 480l5-7 5-1-4 4z"/>
		<path id="Path 290" class="s61" d="m697 478l3-6h4l1 6-1 2-2 2-1 1h-1z"/>
		<path id="Path 291" class="s0" d="m808 475l7-3v2z"/>
		<path id="Path 292" class="s64" d="m892 483v-11h6l4 8-4 4z"/>
		<path id="Path 293" class="s0" d="m930 475l-1-3 3 6z"/>
		<path id="Path 294" class="s26" d="m808 475l7-1h5l4 6-8 7v12l-7 4-3-1-3-14-9-8 7-3z"/>
		<path id="Path 295" class="s26" d="m836 480l2-6h4l2 12h-2-4z"/>
		<path id="Path 296" class="s14" d="m912 476l7-2 9 1v11h-8l-4-7h-4z"/>
		<path id="Path 297" class="s14" d="m289 476l6-1 4 1v2h-8z"/>
		<path id="Path 298" class="s23" d="m640 480l-2 11-12 5-1-5-5-3v-13h4l10 1 5 2 1 1z"/>
		<path id="Path 299" class="s6" d="m928 486v-11h2l2 3v2l1 6z"/>
		<path id="Path 300" class="s22" d="m146 480l6-4v1l-4 4h-2z"/>
		<path id="Path 301" class="s17" d="m283 478l6-2 2 2-1 2h-7z"/>
		<path id="Path 302" class="s27" d="m299 478v-2h7l5 4 2 3-3 2h-1z"/>
		<path id="Path 303" class="s17" d="m311 480l-5-4h5z"/>
		<path id="Path 304" class="s50" d="m341 482l3-6 2 2v4z"/>
		<path id="Path 305" class="s26" d="m372 488l1-12 4 6v5z"/>
		<path id="Path 306" class="s27" d="m550 496l4-20h10l2 4-8 5v7l8 9v18l-1 1h-5l-2-6-8-5z"/>
		<path id="Path 307" class="s3" d="m705 478l2-1-3 3z"/>
		<path id="Path 308" class="s13" d="m789 480l12-3-7 3h-4z"/>
		<path id="Path 309" class="s40" d="m275 480l1-2h7v2l-4 2z"/>
		<path id="Path 310" class="s39" d="m290 480l1-2h8l10 7v3l-19-4z"/>
		<path id="Path 311" class="s41" d="m346 482v-4h7v5l-1 1h-6z"/>
		<path id="Path 312" class="s62" d="m428 495l-2-17h3l9 11-2 5z"/>
		<path id="Path 313" class="s52" d="m694 487v-9h3l3 5-2 4-2 1z"/>
		<path id="Path 314" class="s9" d="m911 480l1-1h4l4 7-2 13-4 1-10-7v-6l6-3z"/>
		<path id="Path 315" class="s7" d="m134 490l12-10v1l-12 10z"/>
		<path id="Path 316" class="s27" d="m272 481l3-1 4 2-5 3h-2z"/>
		<path id="Path 317" class="s34" d="m279 482l4-2h7v4l-10 4-6-3z"/>
		<path id="Path 318" class="s52" d="m508 490l1-10h5l-1 10z"/>
		<path id="Path 319" class="s26" d="m513 490l1-10h2 8l3 3 3 4v11l-14 4z"/>
		<path id="Path 320" class="s28" d="m566 519v-18l-8-9v-7l8-5 12 3 12 14-6 6v5l4 4v13l-2 3h-6l-8-2-2-6z"/>
		<path id="Path 321" class="s8" d="m670 489v-9l13 1 5 4-5 8z"/>
		<path id="Path 322" class="s15" d="m783 482l6-2h1z"/>
		<path id="Path 323" class="s38" d="m783 482l7-2h4l9 8 3 14 3 1v10l-5 2-10-8v-6l-7-7-4-11z"/>
		<path id="Path 324" class="s10" d="m816 499v-12l8-7h12l2 6h4v7l5 3-3 8 3 4-3 1-2-3h-7l-4-8z"/>
		<path id="Path 325" class="s40" d="m898 484l4-4h9l-1 4-6 3h-6z"/>
		<path id="Path 326" class="s13" d="m933 486l-1-6h2v14h-1z"/>
		<path id="Path 327" class="s41" d="m134 491l12-10h2l-1 6-11 7v8l-7 3-7 1v-3z"/>
		<path id="Path 328" class="s28" d="m267 483l5-2v4l-5 1z"/>
		<path id="Path 329" class="s56" d="m159 497l-3-1v-5l9-9h4l10 7 1 5h8l5 8v5l-2 1-4-4h-7l-5-8-10-2z"/>
		<path id="Path 330" class="s18" d="m316 485l8-3h17l1 6v14 4l4 1 2 8-4 4v7l-5 4-3 4h-6v-3l-6-3v-8l-4-1v-7l-3-2 3-9 4-2v-7l-6-3z"/>
		<path id="Path 331" class="s11" d="m342 488l-1-6h5v2 4z"/>
		<path id="Path 332" class="s45" d="m377 487v-5h9v6z"/>
		<path id="Path 333" class="s15" d="m771 485l12-3v1l-12 3z"/>
		<path id="Path 334" class="s38" d="m886 491l-2-9 6 1 1 5z"/>
		<path id="Path 335" class="s31" d="m260 487l7-4v3l-3 4h-3z"/>
		<path id="Path 336" class="s66" d="m310 485l3-2 3 2 2 4 2 12-3 9-5 8h-2l-3-2 4-5 3-16-2-5z"/>
		<path id="Path 337" class="s67" d="m352 484l1-1 5 2-2 4-4-1z"/>
		<path id="Path 338" class="s3" d="m698 487l2-4h1l-2 4z"/>
		<path id="Path 339" class="s10" d="m771 486l12-3 4 11 7 7v6l-9 1-6-11-12-3-1-3-1-1h-1l4-3z"/>
		<path id="Path 340" class="s40" d="m765 490h1v1h-1z"/>
		<path id="Path 341" class="s10" d="m891 488l-1-5h2l6 1v3z"/>
		<path id="Path 342" class="s55" d="m280 488l10-4 19 4 1 2 1 5-3 16-3 3-6-3 1 6-15 9-5-3 2-5-2-10z"/>
		<path id="Path 343" class="s18" d="m346 488v-4h6v4z"/>
		<path id="Path 344" class="s28" d="m460 523l2-28-4-3 1-8h14l5 6v16l3 4-1 13 8 5v5l-4 1-1 8h-1l-7-5-2-9h-4l-1 4-5-2z"/>
		<path id="Path 345" class="s47" d="m267 486l5-1h2l6 3v20l-5 2v4h-9l-2-6-6-4v-9l2-1h4v-4z"/>
		<path id="Path 346" class="s50" d="m269 493l4 1v3l-5 1z"/>
		<path id="Path 347" class="s68" d="m309 488v-3h1l2 5h-2z"/>
		<path id="Path 348" class="s12" d="m356 489l2-4h4l6 9-2 7-2 11-6 2h-2v-6l-4-4 4-7z"/>
		<path id="Path 349" class="s10" d="m648 490l1-5 7 2v3z"/>
		<path id="Path 350" class="s12" d="m683 493l5-8 6 2 2 1v10l-8-1z"/>
		<path id="Path 351" class="s13" d="m768 487l3-2v1z"/>
		<path id="Path 352" class="s56" d="m246 488l14-1 1 3-1 4-2 1-12-1z"/>
		<path id="Path 353" class="s38" d="m847 496l-5-3v-7h2 8v6z"/>
		<path id="Path 354" class="s58" d="m918 499l2-13h8v12l-8 1z"/>
		<path id="Path 355" class="s29" d="m928 498v-12h5v8 4h-1z"/>
		<path id="Path 356" class="s17" d="m372 488l5-1 9 1 2 8-8 4h-4l-5-7z"/>
		<path id="Path 357" class="s42" d="m500 500l-4-2v-10l4-1 2 3z"/>
		<path id="Path 358" class="s27" d="m656 490v-3l5 2-3 3z"/>
		<path id="Path 359" class="s11" d="m696 488l2-1h1 2l8 3 6 1 9 3v8h-2l-12-2-14-2z"/>
		<path id="Path 360" class="s6" d="m709 490l-8-3h2l6 2z"/>
		<path id="Path 361" class="s13" d="m709 489l-6-2 6 1z"/>
		<path id="Path 362" class="s13" d="m758 490l10-3-4 3h-2z"/>
		<path id="Path 363" class="s57" d="m891 488l7-1h6v6l10 7v14h-4-6-6v-14l-8-1-4-5v-3z"/>
		<path id="Path 364" class="s16" d="m342 502v-14h4 6l4 1v8l-4 7h-5z"/>
		<path id="Path 365" class="s15" d="m709 489v-1l13 2v1h-7l-6-1z"/>
		<path id="Path 366" class="s67" d="m320 501l-2-12 6 3v7z"/>
		<path id="Path 367" class="s9" d="m658 492l3-3h9l13 4 5 4-2 17 6 3 1 7 5 1v9l11 6 3 6h14l2-10h6l2 22v8 12l-4 4h-4v-8l-5-3-3-9h-14l-2-11-3-3h-9l-4-4-8-1-2-4v-13l-4-1-2-8-14-11z"/>
		<path id="Path 368" class="s1" d="m119 502l15-12v1l-12 12-3 2z"/>
		<path id="Path 369" class="s67" d="m260 494l1-4h3v4z"/>
		<path id="Path 370" class="s69" d="m311 495l-1-5h2l2 5z"/>
		<path id="Path 371" class="s28" d="m500 500l2-10h6 5l3 12 14-4h8l5-2h7v13l8 5 2 6v14l-4 2-1 8-9 2-11-8h-21l-7-4h-9l-2-9 6-8-2-7z"/>
		<path id="Path 372" class="s38" d="m649 506l-1-4-8-2 1-8 7-2h8l2 2v14z"/>
		<path id="Path 373" class="s19" d="m715 491h7l6 1 1 2h-5z"/>
		<path id="Path 374" class="s20" d="m722 491v-1l7 2h-1z"/>
		<path id="Path 375" class="s1" d="m749 492l9-2h4l-8 4h-5z"/>
		<path id="Path 376" class="s50" d="m754 494l8-4h2 1l1 1 1 3-3 6-5 2-5-2z"/>
		<path id="Path 377" class="s1" d="m729 494l-1-2h1 5v2z"/>
		<path id="Path 378" class="s2" d="m734 494v-2h15v2l-11 1z"/>
		<path id="Path 379" class="s26" d="m847 496l5-4h9l3 6v6l-2 6h-6l-9-2-3-4z"/>
		<path id="Path 380" class="s31" d="m368 494l3-1 5 7h4v5h-9l-5-4z"/>
		<path id="Path 381" class="s34" d="m159 497l6-3 10 2 5 8-1 4h-5l-13-4z"/>
		<path id="Path 382" class="s39" d="m247 504l-3-2 2-8 12 1v9h-3l-2-2z"/>
		<path id="Path 383" class="s52" d="m538 498v-4l5 2z"/>
		<path id="Path 384" class="s17" d="m724 502v-8h5 5l4 1v5z"/>
		<path id="Path 385" class="s12" d="m738 495l11-1h5v6h-12-4z"/>
		<path id="Path 386" class="s9" d="m754 500l5 2 5-2 3-6 12 3 6 11 9-1 10 8v21l3 12-10 1v5l1 8 2 6-4 16-10-1-2-3-8 3-12-3v-16l-5-4-1-8 5-6h11l4-4-2-5-6-1v-7l-6-2-2-13h-7l-3 4h-6v-11l-4-7z"/>
		<path id="Path 387" class="s43" d="m878 498l3-4h5l4 5 8 1v14l-6 2-9-1-1-4z"/>
		<path id="Path 388" class="s60" d="m933 498v-4h1v4z"/>
		<path id="Path 389" class="s70" d="m308 511l3-16h3l-3 16z"/>
		<path id="Path 390" class="s27" d="m588 525v-13l-4-4v-5l6-6 7 5 2 8 6 1v10l11 7v29l-8 4-2-5h-4l-7-6-4-13v-11z"/>
		<path id="Path 391" class="s58" d="m692 517l-6-3 2-17 8 1 14 2 4 7v11 7l3 3h8l3 8-2 10h-14l-3-6-11-6v-9-9l-4-2z"/>
		<path id="Path 392" class="s40" d="m816 499l15-1 4 8h7l2 3 3 7h9 6 4v6l-2 2h-14l-6 1v5h-8l-6-3-1-8-11-1h-4v-3l-5-2v-10z"/>
		<path id="Path 393" class="s65" d="m864 504v-6h14l4 13-4 1z"/>
		<path id="Path 394" class="s71" d="m920 499l8-1h4l1 6-1 8-2 4h-6l-4-2z"/>
		<path id="Path 395" class="s2" d="m933 504l-1-6h1 1v6z"/>
		<path id="Path 396" class="s52" d="m402 504v-5h4v5z"/>
		<path id="Path 397" class="s49" d="m914 500l4-1h2v15h-4-2z"/>
		<path id="Path 398" class="s9" d="m714 518v-11l-4-7 12 2v16z"/>
		<path id="Path 399" class="s58" d="m724 502l14-2h4l4 7v11l-2 8h-9l-3-5h-8l-2-3v-16z"/>
		<path id="Path 400" class="s9" d="m364 512l2-11 5 4-1 7z"/>
		<path id="Path 401" class="s20" d="m109 512l10-10v3l-8 7z"/>
		<path id="Path 402" class="s56" d="m129 505l7-3 13 2 3 8-16-2-6-1z"/>
		<path id="Path 403" class="s11" d="m193 507v-5h5v6z"/>
		<path id="Path 404" class="s50" d="m247 504l6-2 2 2-1 6-8 1-2-3z"/>
		<path id="Path 405" class="s54" d="m346 507l-4-1v-4l5 2z"/>
		<path id="Path 406" class="s16" d="m119 505l3-2v3l-11 7v-1z"/>
		<path id="Path 407" class="s41" d="m179 508l1-4h7l4 4 3 12 8 4-2 5 2 1-4 5 2 17-1 5 3 3-7 2v-6l-5 3-4 2-9-5-1-20 2-22z"/>
		<path id="Path 408" class="s55" d="m254 510l1-6h3l6 4 2 6-1 2h-5z"/>
		<path id="Path 409" class="s40" d="m346 507l1-3h5l4 4v6l-8 1z"/>
		<path id="Path 410" class="s26" d="m398 511v-5l4-2h4 7l3 5 12 1 3 4 18 3 1 8-3 1-3-4-8 2-4-2v6 13l-2 8 3 7v8h-4l-1 4h-12v-15l-3-3h-9l-1-14 3-2v-8-5l-5-1z"/>
		<path id="Path 411" class="s26" d="m620 511l2-7 9 2 7 7v12l-2 7-14-6v-4l2-7z"/>
		<path id="Path 412" class="s46" d="m862 510l2-6 14 8v4h-12-4z"/>
		<path id="Path 413" class="s13" d="m932 512l1-8h1v8z"/>
		<path id="Path 414" class="s55" d="m122 506l7-1 1 4 6 1 4 14-22 10-2-5-8-5v-8l3-3z"/>
		<path id="Path 415" class="s40" d="m370 512l1-7h9v9l-2 6h-4z"/>
		<path id="Path 416" class="s26" d="m644 526l5-20h9l14 11 2 8 4 1v13l-3 3h-6l-3-6-4 2-10-8h-6z"/>
		<path id="Path 417" class="s33" d="m174 514v-6h5l-1 6z"/>
		<path id="Path 418" class="s58" d="m241 512l3-4 2 3-2 3z"/>
		<path id="Path 419" class="s11" d="m275 514v-4l5-2 2 10-2 5-4-1z"/>
		<path id="Path 420" class="s52" d="m492 510l4-2 4 2 2 7-6 8h-4z"/>
		<path id="Path 421" class="s46" d="m844 509l3-1 9 2v6h-9z"/>
		<path id="Path 422" class="s47" d="m140 524l-4-14 16 2v7l-8 5z"/>
		<path id="Path 423" class="s54" d="m246 511l8-1 6 6h5l1 14-6 3-6 1-2-4-9-3-1-9 2-4z"/>
		<path id="Path 424" class="s12" d="m312 518l5-8 3 2v7l-4 4z"/>
		<path id="Path 425" class="s26" d="m488 528l-8-5 1-13h11v15z"/>
		<path id="Path 426" class="s64" d="m856 516v-6h6v6z"/>
		<path id="Path 427" class="s34" d="m300 517l-1-6 6 3-1 2-2 1z"/>
		<path id="Path 428" class="s72" d="m305 514l3-3h3l-4 5h-3z"/>
		<path id="Path 429" class="s31" d="m380 514h15l3-3 3 9v6l2 10 1 14v12l8 6v4l-1 5h-3l-6-2v-5l-7-6h-17l-5-4-1-20 8-1 6-5v-8l-7-2-1-4z"/>
		<path id="Path 430" class="s42" d="m616 528l-11-7v-10l5 1 2 8h5l5 2v4z"/>
		<path id="Path 431" class="s62" d="m617 520v-7l3-2 4 4-2 7z"/>
		<path id="Path 432" class="s35" d="m878 512l4-1 1 4-5 1z"/>
		<path id="Path 433" class="s53" d="m99 522l10-10h2v1l-3 3-7 7h-1z"/>
		<path id="Path 434" class="s21" d="m207 522v-6l6-4h10l3 7-1 4h5 4v7h-7l-2-3h-6v-3z"/>
		<path id="Path 435" class="s45" d="m230 519l11-7 3 2-2 4h-4l-4 5h-4z"/>
		<path id="Path 436" class="s17" d="m358 514l6-2h6l4 8-1 6-1 14h-10l-2-4h-4l-2-6z"/>
		<path id="Path 437" class="s20" d="m930 516l2-4-1 13-4 3z"/>
		<path id="Path 438" class="s23" d="m804 515l5-2 5 2v3l-6 3v7l10 1 5 1v5h-3l-16 1z"/>
		<path id="Path 439" class="s47" d="m166 524l8-10h4l-2 22-8-3z"/>
		<path id="Path 440" class="s16" d="m265 516l1-2h9l1 8 4 1 5 3-1 2-6 4h-11l-2 7-5 1v-7l6-3z"/>
		<path id="Path 441" class="s8" d="m348 515l8-1h2l-4 16h-6l-4-4v-7z"/>
		<path id="Path 442" class="s61" d="m692 517l2-3 4 2v9l-5-1z"/>
		<path id="Path 443" class="s63" d="m752 518l3-4h7l2 13-7 4z"/>
		<path id="Path 444" class="s40" d="m892 516l6-2h6v4l-4 2h-8z"/>
		<path id="Path 445" class="s31" d="m904 518v-4h6v4z"/>
		<path id="Path 446" class="s23" d="m910 518v-4h4 2v6h-4z"/>
		<path id="Path 447" class="s19" d="m916 520v-6h4l4 2v14 1l-4 1-2-1z"/>
		<path id="Path 448" class="s48" d="m878 516l5-1 9 1v4l-2 1-10 1h-14v-6z"/>
		<path id="Path 449" class="s32" d="m101 523l7-7v8h-6z"/>
		<path id="Path 450" class="s59" d="m302 517l2-1h3l3 2-6 6h-1-6z"/>
		<path id="Path 451" class="s29" d="m924 530v-14h6l-3 12z"/>
		<path id="Path 452" class="s42" d="m285 526l15-9h2l-5 7h6l-9 4-9 2-1-2z"/>
		<path id="Path 453" class="s57" d="m447 526l3-1-1-8 11 6 3 7 5 2 2 6 5-1 7 5 2 12 6 2v8h-4-12l-2-10-9-2-1 4h-4l-2-6v-6l-9-10z"/>
		<path id="Path 454" class="s33" d="m234 523l4-5h4l1 9 9 3 2 4-2 5-5 4-3 1h-4l-4-1-2-13z"/>
		<path id="Path 455" class="s31" d="m304 524l6-6h2l4 5-1 7-5 2-2-7z"/>
		<path id="Path 456" class="s52" d="m728 536l-3-8h-8l-3-3v-7h8l2 3h8l3 5h9l2 8-3 2h-9z"/>
		<path id="Path 457" class="s27" d="m744 526l2-8h6l5 13-2 3h-9z"/>
		<path id="Path 458" class="s50" d="m818 529l-10-1v-7l6-3h4z"/>
		<path id="Path 459" class="s11" d="m818 529v-11l11 1 1 8 6 3 2 8h8l1 6 2 6-1 4-3 2h-7l-4-4h-8-2v-4l-4-2v-11h3v-5z"/>
		<path id="Path 460" class="s9" d="m900 520l4-2h6l2 2v9h-12v-1z"/>
		<path id="Path 461" class="s11" d="m144 524l8-5h6l4 5v6h-3l-2-3h-7v5l9 1 2 1-6 16-5 1v-3l4-4v-5l-10-5z"/>
		<path id="Path 462" class="s58" d="m230 523h-5l1-4h4z"/>
		<path id="Path 463" class="s33" d="m316 523l4-4 4 1v8l-4 4-5-2z"/>
		<path id="Path 464" class="s26" d="m565 520l1-1 4 1 2 6v2h-6z"/>
		<path id="Path 465" class="s62" d="m373 526l1-6h4l1 4z"/>
		<path id="Path 466" class="s38" d="m401 526v-6l5 1v5z"/>
		<path id="Path 467" class="s62" d="m560 534v-14h5l1 8-2 6h-1z"/>
		<path id="Path 468" class="s46" d="m890 521l2-1h8v8h-7z"/>
		<path id="Path 469" class="s58" d="m912 529v-9h4l2 11h-6z"/>
		<path id="Path 470" class="s64" d="m880 522l10-1 3 7h7v1l1 17-18-2-5-2z"/>
		<path id="Path 471" class="s20" d="m89 532l10-10 1 1-7 8z"/>
		<path id="Path 472" class="s67" d="m202 524l5-2 12 2v3l-9 4-8-1-2-1z"/>
		<path id="Path 473" class="s73" d="m432 528v-6l4 2v4z"/>
		<path id="Path 474" class="s62" d="m436 524l8-2 3 4v8l-8 1-3-7z"/>
		<path id="Path 475" class="s43" d="m864 524l2-2h14l-2 20-11-1-1-1z"/>
		<path id="Path 476" class="s41" d="m93 531l7-8h1l1 1-3 17-15 5-1-2z"/>
		<path id="Path 477" class="s47" d="m99 541l3-17h6l8 5 2 5v6l-6 1v7l-5 2z"/>
		<path id="Path 478" class="s41" d="m118 534l22-10h4v10l10 5v5l-4 4h-10l-2-8-8 2-12-2z"/>
		<path id="Path 479" class="s33" d="m162 530v-6h4l2 9 8 3 1 20-8 1-5-5h-7l-2-2 6-16z"/>
		<path id="Path 480" class="s32" d="m294 528l9-4h1l4 1 2 7v6l-3 6-2 7h-7l2-9-6-3z"/>
		<path id="Path 481" class="s51" d="m373 526l6-2 7 2v8l-6 5-8 1z"/>
		<path id="Path 482" class="s38" d="m844 530v-5l6-1-2 7z"/>
		<path id="Path 483" class="s64" d="m848 531l2-7h14l2 16h-8l-11-2z"/>
		<path id="Path 484" class="s27" d="m488 528l4-3h4l2 9v2l-10-3z"/>
		<path id="Path 485" class="s62" d="m586 528l2-3 3 1v11h-4l-1-3z"/>
		<path id="Path 486" class="s42" d="m636 532l2-7 6 1 2 4-3 8z"/>
		<path id="Path 487" class="s31" d="m339 530l5-4 4 4v4h-7z"/>
		<path id="Path 488" class="s52" d="m403 536l-2-10h5v8z"/>
		<path id="Path 489" class="s57" d="m572 528v-2l8 2v6l-3 6-5-1v-5z"/>
		<path id="Path 490" class="s51" d="m616 528l6-2 14 6 7 6 3-8h6l10 8 1 9 5 1v16 8l4 6v7l-12 1h-6l-2-7h-8l-3-5h-5l-4-2-1-7-5 3-6 3-6-5h-6v-5l8-4z"/>
		<path id="Path 491" class="s58" d="m159 533l-9-1v-5h7l2 3z"/>
		<path id="Path 492" class="s39" d="m202 530l8 1 9-4h6l2 3-7 11v7l-5 2-9 1-6 1-2-17z"/>
		<path id="Path 493" class="s28" d="m757 531l7-4 6 2v7l6 1 2 5-4 4h-11l-5 6h-7l-3-3-1-9-4-4 3-2h9z"/>
		<path id="Path 494" class="s27" d="m278 532l6-4 1 2-6 4z"/>
		<path id="Path 495" class="s74" d="m285 530l9-2v11l-4 1v4l-8 1h-5l-1 3h-4v-8l7-6z"/>
		<path id="Path 496" class="s50" d="m320 532l4-4 6 3v3l-3 6-6-1z"/>
		<path id="Path 497" class="s61" d="m432 541v-13h4l3 7 2 6 8 2 2 7 1 12-2 4h-4v-6l-2-15-4-4z"/>
		<path id="Path 498" class="s71" d="m468 532l1-4h4l2 9-5 1z"/>
		<path id="Path 499" class="s28" d="m564 534l2-6h6v6z"/>
		<path id="Path 500" class="s51" d="m580 534v-6h6v6z"/>
		<path id="Path 501" class="s20" d="m924 530l3-2-1 5h-2v-2z"/>
		<path id="Path 502" class="s51" d="m901 546l-1-17h12v2 7 6l-1 2h-9z"/>
		<path id="Path 503" class="s40" d="m159 533v-3h3l-1 4z"/>
		<path id="Path 504" class="s54" d="m220 548v-7l7-11h7l2 13-5 3-1 6-2 2h-6l-2-2z"/>
		<path id="Path 505" class="s16" d="m310 532l5-2 5 2 1 7 6 1 1 6-2 4-3 10h-5l-3-9v-7l-5-6z"/>
		<path id="Path 506" class="s10" d="m336 534l3-4 2 4-3 4z"/>
		<path id="Path 507" class="s16" d="m348 534v-4h6l2 6 5 6 1 8h-5l-3-8h-6z"/>
		<path id="Path 508" class="s36" d="m846 538h-8l-2-8h8l4 1-1 7z"/>
		<path id="Path 509" class="s1" d="m89 532l4-1-10 13-5 4v-1l1-5z"/>
		<path id="Path 510" class="s27" d="m912 538v-7h6l2 1v5l-1 1z"/>
		<path id="Path 511" class="s25" d="m920 532l4-1v2l-4 4z"/>
		<path id="Path 512" class="s9" d="m265 539l2-7h11l1 2-7 6z"/>
		<path id="Path 513" class="s38" d="m254 534l6-1v7l-4 1-4-2z"/>
		<path id="Path 514" class="s42" d="m483 542l1-8 4-1 10 3v15l3 4-3 3-4-2-2-10z"/>
		<path id="Path 515" class="s13" d="m920 537l4-4h2l-9 10 2-5z"/>
		<path id="Path 516" class="s32" d="m327 540l3-6h6l2 4 5 6v5l-5 1-3-4h-7z"/>
		<path id="Path 517" class="s17" d="m338 538l3-4h7v8 7h-4-1v-5z"/>
		<path id="Path 518" class="s51" d="m439 535l8-1 9 10v6h-5l-2-7-8-2z"/>
		<path id="Path 519" class="s51" d="m498 536v-2h9l7 4 2 5 8 4 2 11h-6-4v14l-6 2-2-4v-10l-7-5-3-4z"/>
		<path id="Path 520" class="s42" d="m555 544l1-8 4-2h3l-1 11v3h-6z"/>
		<path id="Path 521" class="s46" d="m562 545l1-11h1 8v5l5 1 3 8 1 9h5 4l10 11v6h-4l-4-8-4 1 2 13-6 2-3-5-2-10v-4l-6-5-1-11z"/>
		<path id="Path 522" class="s64" d="m577 540l3-6h6l1 3h4l4 13 7 6v10l-2 2-10-11h-4v-7l-6-2z"/>
		<path id="Path 523" class="s50" d="m804 536l16-1v11l-5 4h-7l-1-2z"/>
		<path id="Path 524" class="s10" d="m361 542l-5-6h4l2 4z"/>
		<path id="Path 525" class="s62" d="m662 538l4-2 3 6-1 6-5-1z"/>
		<path id="Path 526" class="s58" d="m736 558l-2-22h9l4 4 1 9 3 3h7l1 8 5 4v16l-6 2-6-5h-7l-1-11v-6z"/>
		<path id="Path 527" class="s23" d="m307 544l3-6 5 6h-5z"/>
		<path id="Path 528" class="s52" d="m526 558l-2-11-8-4-2-5h21l11 8v9l3 2v14l14 3 1 4h4v16l-2 2h-7l-7-2v-9l-3-3h-9v-6-15l-3-3h-7z"/>
		<path id="Path 529" class="s17" d="m847 544l-1-6h1l11 2v4h-6z"/>
		<path id="Path 530" class="s6" d="m912 544v-6h7l-2 5-1 1z"/>
		<path id="Path 531" class="s75" d="m247 543l5-4 4 2v7h-7z"/>
		<path id="Path 532" class="s17" d="m260 540l5-1 7 1v8l-6 7-7-1-3-6v-7z"/>
		<path id="Path 533" class="s67" d="m290 544v-4l4-1 6 3-2 9-3 2-4-2z"/>
		<path id="Path 534" class="s49" d="m675 542l3-3 2 4-1 3z"/>
		<path id="Path 535" class="s55" d="m112 548v-7l6-1 12 2 8-2 2 8-2 2-17 2z"/>
		<path id="Path 536" class="s40" d="m361 542l1-2h10l1 20h-5l-4 4v8h-2-8v-6l3-6 6-1-1-9z"/>
		<path id="Path 537" class="s40" d="m858 544v-4h8l1 1z"/>
		<path id="Path 538" class="s55" d="m84 546l15-5 8 9 2 7 9 6v5l-5 3-13 3v-4l-8-4-4-4h-6v-8z"/>
		<path id="Path 539" class="s57" d="m433 556l-3-7 2-8h8l4 4 2 15h-6l-2-4z"/>
		<path id="Path 540" class="s18" d="m858 544l9-3 11 1 5 2-1 12-4 2h-6-18v-4l-2-4v-6z"/>
		<path id="Path 541" class="s48" d="m348 549v-7h6l3 8h-1-4z"/>
		<path id="Path 542" class="s43" d="m490 556l-6-2-2-12h1l9 4 2 10z"/>
		<path id="Path 543" class="s43" d="m668 548l1-6h6l4 4 7 2v4l5 2 3 14v6l-12 2-2-2-2-9-10-1z"/>
		<path id="Path 544" class="s76" d="m230 552l1-6 5-3 4 1v4l-5 6z"/>
		<path id="Path 545" class="s45" d="m244 544l3-1 2 5-1 1-4-1z"/>
		<path id="Path 546" class="s27" d="m679 546l1-3 8 1-2 4z"/>
		<path id="Path 547" class="s13" d="m916 544l1-1 5 17h-1l-5-9z"/>
		<path id="Path 548" class="s18" d="m78 548l5-4 1 2-2 8h-7z"/>
		<path id="Path 549" class="s32" d="m240 548v-4h4v4z"/>
		<path id="Path 550" class="s18" d="m282 545l8-1 1 7 4 2 1 9v2h-4-4l-1-7-5-6z"/>
		<path id="Path 551" class="s9" d="m305 551l2-7h3v9z"/>
		<path id="Path 552" class="s46" d="m310 553v-9h5v7z"/>
		<path id="Path 553" class="s26" d="m546 546l9-2 1 4-1 8-6 1-3-2z"/>
		<path id="Path 554" class="s62" d="m686 548l2-4 4 4-1 6-5-2z"/>
		<path id="Path 555" class="s32" d="m849 550l-2-6h5v6z"/>
		<path id="Path 556" class="s32" d="m882 556l1-12 18 2h1l2 8-9 2z"/>
		<path id="Path 557" class="s29" d="m911 546l1-2h4v7l-4 3-1-1z"/>
		<path id="Path 558" class="s40" d="m276 548l1-3h5v6h-6z"/>
		<path id="Path 559" class="s43" d="m562 548v-3l10 2 1 11 6 5v4l-3 1v7l5 2 3 5 6-2h6l10 4v6l4 5v9l-2 16-4 4-10-2v-5l-8-7-3-14-11-2h-4v-16-4-11l-6-7z"/>
		<path id="Path 560" class="s48" d="m326 550l2-4h7l3 4v8l-6 3-1-7z"/>
		<path id="Path 561" class="s18" d="m815 550l5-4 4 2v4z"/>
		<path id="Path 562" class="s31" d="m904 554l-2-8h9v7z"/>
		<path id="Path 563" class="s60" d="m69 561l5-12 4-2v1l-3 6-3 6-2 1z"/>
		<path id="Path 564" class="s18" d="m107 550l5-2 9 4-1 5 6 4v7h-8v-5l-9-6z"/>
		<path id="Path 565" class="s32" d="m138 550l2-2h10v3l5-1 2 2-1 7h11l3 5h20l5-2 7-2h7v-4l6-4h5l2 2v11l-3 3h-6l-2 7-7 5-8 1v7l-6 1-3-10-4-1-1 15-7 1-3-8-5-1-2-5-4 2h-3l-11 1v-8l-3-3 1-15z"/>
		<path id="Path 566" class="s33" d="m215 550l5-2v4h-5z"/>
		<path id="Path 567" class="s17" d="m235 554l5-6h4l4 1v5l-6 2-7 1z"/>
		<path id="Path 568" class="s48" d="m248 549l1-1h7l3 6-1 1-10-1z"/>
		<path id="Path 569" class="s77" d="m266 555l6-7h4v3 9l-8 1z"/>
		<path id="Path 570" class="s62" d="m549 557l6-1 1-8h6v8l6 7v11h-5l-14-3z"/>
		<path id="Path 571" class="s42" d="m586 557h-5l-1-9 6 2z"/>
		<path id="Path 572" class="s26" d="m691 554l1-6h9l3 3 2 11h14l3 9 5 3v8l-2 4h-4l-4-2v-11l-14-3-10-2z"/>
		<path id="Path 573" class="s12" d="m797 554v-5l10-1 1 2-2 4z"/>
		<path id="Path 574" class="s18" d="m338 550l5-1h1v7 2h-6z"/>
		<path id="Path 575" class="s28" d="m344 556v-7h4l4 1-2 4z"/>
		<path id="Path 576" class="s16" d="m121 552l17-2 7 7-1 15h-6-2l-1-4h-9v-7l-6-4z"/>
		<path id="Path 577" class="s47" d="m206 551l9-1v2l-6 4z"/>
		<path id="Path 578" class="s78" d="m323 560l3-10 5 4 1 7-7 1z"/>
		<path id="Path 579" class="s30" d="m344 556l6-2 2-4h4l1 10-3 6-10-8z"/>
		<path id="Path 580" class="s17" d="m357 560l-1-10h1 5l1 9z"/>
		<path id="Path 581" class="s52" d="m412 568l-8-6v-12h9l3 3v15z"/>
		<path id="Path 582" class="s62" d="m452 562l-1-12h5l2 6v4z"/>
		<path id="Path 583" class="s67" d="m797 554h9l2-4h7l9 2h2l2 12-2 6-2 6-6 1v5l2 10 4 2v11l3 3h7l8-4 11 4 1 3v10l21 12 8 6-3 2v13h-5l-4-1h-1l-2-2-5-1-4-2-2-2 1-6h-5l-1 3h-3l-6-4-5-2-7-4-8-5h-1l-2-2 1-9-9-6v-6l-17-10v-3l1-8 4-16 5-1v-4l-7-1z"/>
		<path id="Path 584" class="s31" d="m848 554l1-4h3l2 4h-4z"/>
		<path id="Path 585" class="s31" d="m200 552l6-1 3 5v4h-7l-3-3z"/>
		<path id="Path 586" class="s16" d="m276 560v-9h6l5 6 1 7v2l-10-2z"/>
		<path id="Path 587" class="s48" d="m295 553l3-2h7l5 2 5-2 3 9v2l-4 1v9l-1 12-1 2 6 36h-2l-12-2v-7l-5-6v-8l-6-8v-4h3l2-5 2-4 6-2-2-6v-6l-8-2z"/>
		<path id="Path 588" class="s25" d="m912 554l4-3 5 9h-1l-8-3z"/>
		<path id="Path 589" class="s50" d="m190 564h-20l-3-5h-11l1-7h7l5 5 8-1 9 5 4-2z"/>
		<path id="Path 590" class="s14" d="m228 554l2-2 5 2v3l7-1v4l-6 4-6-3z"/>
		<path id="Path 591" class="s61" d="m462 556l1-4 9 2 2 10h-4-7l-1-4z"/>
		<path id="Path 592" class="s31" d="m828 564l-2-12h8l4 4v6l-2 2z"/>
		<path id="Path 593" class="s58" d="m904 554l7-1 1 1v3l-4 5-13-4v-2z"/>
		<path id="Path 594" class="s41" d="m72 560l3-6h7v8 4h-10z"/>
		<path id="Path 595" class="s18" d="m222 565v-11h6l2 7-2 7h-2z"/>
		<path id="Path 596" class="s26" d="m242 556l6-2v5l-6 1z"/>
		<path id="Path 597" class="s75" d="m248 559v-5l10 1-4 7z"/>
		<path id="Path 598" class="s64" d="m258 555l1-1 7 1 2 6-2 1-8 2h-4v-2z"/>
		<path id="Path 599" class="s17" d="m845 556l3-2h2v4h-5z"/>
		<path id="Path 600" class="s37" d="m850 558v-4h4v4h-2z"/>
		<path id="Path 601" class="s62" d="m498 558l3-3 7 5v10l-10-2z"/>
		<path id="Path 602" class="s14" d="m190 559l5-3v6l-5 2z"/>
		<path id="Path 603" class="s62" d="m433 564v-8h5l2 4-1 6z"/>
		<path id="Path 604" class="s27" d="m458 560v-4h4v4z"/>
		<path id="Path 605" class="s52" d="m490 564v-8h4l4 2v10l10 2 2 4v13l-7 1v-7l-7-1-3-4 1-9z"/>
		<path id="Path 606" class="s9" d="m602 566v-10h4l2 5v5l-1 1z"/>
		<path id="Path 607" class="s40" d="m838 562v-6h7v2 4z"/>
		<path id="Path 608" class="s10" d="m878 558l4-2h13v2h-4l-4 7-9-2z"/>
		<path id="Path 609" class="s59" d="m516 572v-14h4v12 2z"/>
		<path id="Path 610" class="s27" d="m908 562l4-5 8 3v9 5l-8-1z"/>
		<path id="Path 611" class="s17" d="m332 561l6-3h6l10 8v6 11h-6l-1-2v-7l-7-2h-6v12h-10l-2-12 1-7 2-3z"/>
		<path id="Path 612" class="s49" d="m520 570v-12h6 4v11z"/>
		<path id="Path 613" class="s57" d="m530 569v-11h7l3 3v15h-6z"/>
		<path id="Path 614" class="s63" d="m736 566v-8l8 2v6z"/>
		<path id="Path 615" class="s45" d="m845 562v-4h5 2v6l-4 1z"/>
		<path id="Path 616" class="s9" d="m852 564v-6h2 18v5l-8 1z"/>
		<path id="Path 617" class="s38" d="m872 563v-5h6v5z"/>
		<path id="Path 618" class="s9" d="m887 565l4-7h4l13 4 4 11-6 1h-8z"/>
		<path id="Path 619" class="s30" d="m242 560l6-1 6 3v2l-3 5-6 2-3 5h-4l-2-7v-5z"/>
		<path id="Path 620" class="s22" d="m70 561l2-1v6l-2 5h-3l1-2z"/>
		<path id="Path 621" class="s40" d="m268 561l8-1 2 4 10 2v3l-1 7-11 4-5-1 1-11-6-3v-3z"/>
		<path id="Path 622" class="s30" d="m318 562v-2h5l2 2-2 3z"/>
		<path id="Path 623" class="s30" d="m364 572v-8l4-4h5l5 4v4h-4v18l-3 8-6 4-3-9 3-3 3-2-2-8z"/>
		<path id="Path 624" class="s26" d="m439 566l1-6h6v6 2h-6z"/>
		<path id="Path 625" class="s51" d="m452 562l6-2h4l1 4h7l2 10v14l-10 3 2-9-3-6-12 3-3-2v-9-2h4z"/>
		<path id="Path 626" class="s6" d="m920 569v-9h1 1l4 11z"/>
		<path id="Path 627" class="s13" d="m926 571l-4-11 4 4 1 8z"/>
		<path id="Path 628" class="s24" d="m67 569l2-8h1l-2 8z"/>
		<path id="Path 629" class="s48" d="m228 568l2-7 6 3v5l-4 3h-2z"/>
		<path id="Path 630" class="s54" d="m82 566v-4h6l4 4v5l-4 3h-6z"/>
		<path id="Path 631" class="s48" d="m258 564l8-2v3l-6 4h-3z"/>
		<path id="Path 632" class="s35" d="m296 564v-2l8 2v6h-6z"/>
		<path id="Path 633" class="s43" d="m314 572v-9l4-1 5 3-1 7z"/>
		<path id="Path 634" class="s11" d="m800 568l-2-6 7 1v4z"/>
		<path id="Path 635" class="s12" d="m836 564l2-2h7l3 3v7l-12-2z"/>
		<path id="Path 636" class="s50" d="m864 564l8-1h6l9 2 11 9v4h-16l-16-2z"/>
		<path id="Path 637" class="s25" d="m251 569l3-5h4l-1 5-2 3h-2z"/>
		<path id="Path 638" class="s17" d="m288 566v-2h4v5h-4z"/>
		<path id="Path 639" class="s75" d="m292 569v-5h4l2 6v6l-2 2-4-3z"/>
		<path id="Path 640" class="s38" d="m378 568v-4h17l7 6v5l-2 13h-3-9v-2-9l-7-3z"/>
		<path id="Path 641" class="s52" d="m428 568l1-4h4l6 2 1 2v8h-7l-5-4z"/>
		<path id="Path 642" class="s79" d="m472 574l-2-10h4 12v12h-4z"/>
		<path id="Path 643" class="s65" d="m486 576v-12h4l4 3-1 9h-3z"/>
		<path id="Path 644" class="s46" d="m672 578l-4-6v-8l10 1 2 9-5 4z"/>
		<path id="Path 645" class="s11" d="m826 570l2-6h8v6h-2z"/>
		<path id="Path 646" class="s11" d="m848 565l4-1h12l2 12h-8l-10-4z"/>
		<path id="Path 647" class="s16" d="m219 568l3-3 4 3v4h-4z"/>
		<path id="Path 648" class="s74" d="m260 569l6-4 6 3-1 11-8 1-3-2v-6z"/>
		<path id="Path 649" class="s57" d="m626 568l5-3 1 7h-4z"/>
		<path id="Path 650" class="s47" d="m70 571l2-5h10v8l-2 6h-8z"/>
		<path id="Path 651" class="s47" d="m88 574l4-3v-5l8 4v4l-5 5-5 3z"/>
		<path id="Path 652" class="s49" d="m590 580l-2-13 4-1 4 8v6z"/>
		<path id="Path 653" class="s25" d="m600 568l2-2 5 1-1 12-6-5z"/>
		<path id="Path 654" class="s64" d="m607 567l1-1h6l6 5v13h-5-9v-5z"/>
		<path id="Path 655" class="s23" d="m736 578v-12h8l1 11z"/>
		<path id="Path 656" class="s61" d="m581 577l-5-2v-7l3-1z"/>
		<path id="Path 657" class="s12" d="m113 571l5-3h8 9l1 4-18 2h-3z"/>
		<path id="Path 658" class="s14" d="m211 575l2-7h6l3 4v4z"/>
		<path id="Path 659" class="s75" d="m226 572v-4h2l2 4z"/>
		<path id="Path 660" class="s64" d="m374 586v-18h4l3 6 7 3v9z"/>
		<path id="Path 661" class="s46" d="m412 572v-4h4v4z"/>
		<path id="Path 662" class="s43" d="m416 572v-4h12v4l5 4h7l2 2-2 10h-5l-8-2-2 4 1 4h7l2 6-1 12-6 5-2-3 1-15-5-1-2-18-3-1z"/>
		<path id="Path 663" class="s42" d="m440 576v-8h6v9l-4 1z"/>
		<path id="Path 664" class="s46" d="m620 571l6-3 2 4 2 6h6l2 9-2 7 4 2 1 11-1 9 6 3-2 5-7-1-4-7h-6v-7l-8-5 1-10v-10z"/>
		<path id="Path 665" class="s28" d="m694 574v-6l10 2v3z"/>
		<path id="Path 666" class="s1" d="m60 574l7-5h1l-1 2-6 6h-1z"/>
		<path id="Path 667" class="s64" d="m232 572l4-3 2 7-4 4z"/>
		<path id="Path 668" class="s64" d="m242 576l3-5 6-2 2 3-7 6z"/>
		<path id="Path 669" class="s30" d="m255 572l2-3h3v3z"/>
		<path id="Path 670" class="s51" d="m287 576l1-7h4v6l4 3 2 4-2 5h-3z"/>
		<path id="Path 671" class="s65" d="m520 570l10-1 4 7-2 4h-6l-6-2v-6z"/>
		<path id="Path 672" class="s19" d="m920 574v-5l6 2 1 1 2 7 1 7 2 33v1l-2 6v2l-1 2-2 5v2l-3 6-7 9h-7v-9l14-13v-7l-6-6v-6l3-7 1-16-4-2v-6z"/>
		<path id="Path 673" class="s80" d="m298 576v-6h6l2 6-6 2z"/>
		<path id="Path 674" class="s27" d="m704 573v-3l14 3v11l-6-2v-4z"/>
		<path id="Path 675" class="s45" d="m824 576l2-6h8l-1 7-6 3z"/>
		<path id="Path 676" class="s31" d="m827 580l6-3 1-7h2l12 2 10 4 2 15-2 5 4 2 3 5h5v5h-15-2l-11-4-2-6h-6l-2-4h-6z"/>
		<path id="Path 677" class="s41" d="m61 577l6-6h3l2 9 2 6h6l4 4h6 6v11h-4l-4 7h-5l-6-6-15-2-3-4 8-2v-4l-6-6z"/>
		<path id="Path 678" class="s11" d="m100 574l13-3 2 3-5 5-14 1-1-1z"/>
		<path id="Path 679" class="s33" d="m118 574l18-2h2v14l-1 5-2 6h-7l-1-5h-5l-4-3z"/>
		<path id="Path 680" class="s74" d="m138 586v-14h6l3 3v8 3z"/>
		<path id="Path 681" class="s10" d="m222 576v-4h4 4 2l2 8v2l-7 3h-6z"/>
		<path id="Path 682" class="s48" d="m246 578l7-6h2 5v6l-3 5-8 8-3-2z"/>
		<path id="Path 683" class="s30" d="m313 584l1-12h8l2 12h10 6l2-3h5l1 2-2 7 2 7-2 7-15-4-1 8-6 1v13h-6l-6-36z"/>
		<path id="Path 684" class="s35" d="m334 584v-12h6l2 9-2 3z"/>
		<path id="Path 685" class="s81" d="m342 581l-2-9 7 2v7z"/>
		<path id="Path 686" class="s46" d="m354 583v-11h8v4 8l3 2-3 3z"/>
		<path id="Path 687" class="s81" d="m362 576v-4h2l2 4z"/>
		<path id="Path 688" class="s57" d="m411 577l1-5h4l1 7h-6z"/>
		<path id="Path 689" class="s57" d="m510 574l6-2h4v6l6 2v8l2 10 2 12v1l-13-7v-7l-4-1-3-9z"/>
		<path id="Path 690" class="s52" d="m636 578h-6l-2-6h4l4 2z"/>
		<path id="Path 691" class="s0" d="m929 579l-2-7 2 6z"/>
		<path id="Path 692" class="s38" d="m694 574l10-1 8 5v4h-17l-1 4h-9l-3-3v-7z"/>
		<path id="Path 693" class="s11" d="m906 574l6-1 8 1-2 6-12-2z"/>
		<path id="Path 694" class="s24" d="m59 577l1-3v3z"/>
		<path id="Path 695" class="s21" d="m80 580l2-6h6l2 8v4 4h-6l-4-4z"/>
		<path id="Path 696" class="s21" d="m110 579l5-5h3v15l-6 1z"/>
		<path id="Path 697" class="s61" d="m472 588v-14l10 2 2 14-7 2z"/>
		<path id="Path 698" class="s6" d="m568 578h-4l-1-4h5z"/>
		<path id="Path 699" class="s26" d="m596 580v-6h4l6 5v5z"/>
		<path id="Path 700" class="s43" d="m636 578v-4h5l3 5v9l-2 1-4-2z"/>
		<path id="Path 701" class="s42" d="m675 578l5-4 2 2v7h-4z"/>
		<path id="Path 702" class="s12" d="m898 578v-4h8v4z"/>
		<path id="Path 703" class="s37" d="m204 580l7-5 11 1-1 9-7 1h-10z"/>
		<path id="Path 704" class="s65" d="m400 588l2-13 6 2-2 9z"/>
		<path id="Path 705" class="s82" d="m234 580l4-4h4l4 2v11l-5 2-7-9z"/>
		<path id="Path 706" class="s77" d="m276 580l11-4 6 11v4l-11 7-6-5v-5z"/>
		<path id="Path 707" class="s30" d="m296 578l2-2 2 2-2 4z"/>
		<path id="Path 708" class="s83" d="m365 586l-3-2v-8h4l2 8z"/>
		<path id="Path 709" class="s84" d="m449 579l12-3 3 6-2 9-2 1-11-3z"/>
		<path id="Path 710" class="s57" d="m484 590l-2-14h4 4v12l-3 2z"/>
		<path id="Path 711" class="s73" d="m490 588v-12h3l3 4-1 7z"/>
		<path id="Path 712" class="s51" d="m532 580l2-4h6v6l-1 3h-5z"/>
		<path id="Path 713" class="s9" d="m824 594l-4-2-2-10v-5l6-1 3 4-1 14z"/>
		<path id="Path 714" class="s9" d="m860 591l-2-15h8l16 2v11h-5l-1 3-6 1 2 7-2 3h-5l-3-5 2-6z"/>
		<path id="Path 715" class="s22" d="m58 579l1-2h1 1v7h-1l-1-1z"/>
		<path id="Path 716" class="s85" d="m406 586l2-9h3v2 7z"/>
		<path id="Path 717" class="s61" d="m442 578l4-1 3 2v10l-3 2-6-3z"/>
		<path id="Path 718" class="s67" d="m736 578l9-1h7l6 5v24l-5-1-20-1-1-5 4-4v-5l-4-3v-5z"/>
		<path id="Path 719" class="s58" d="m182 593l1-15 4 1 3 10 1 6-3 1-4-1z"/>
		<path id="Path 720" class="s34" d="m257 583l3-5 3 2-2 6z"/>
		<path id="Path 721" class="s64" d="m644 579h8l2 7-4 3-6-1z"/>
		<path id="Path 722" class="s9" d="m672 585v-7h3l3 5v3z"/>
		<path id="Path 723" class="s23" d="m882 589v-11h16 8l12 2v6l-2 18-2 5-17 1-3 6-4 1v11l-9-1-4-12-7-7v-5l2-3 10 2 10 2v-6l-7-4z"/>
		<path id="Path 724" class="s3" d="m929 579v-1l3 8h-2z"/>
		<path id="Path 725" class="s8" d="m90 582l5-3 1 1v6h-6z"/>
		<path id="Path 726" class="s33" d="m96 580l14-1 2 11-2 5-4 5-6 2-4-1v-11-4z"/>
		<path id="Path 727" class="s37" d="m263 580l8-1 5 1v8h-12-3v-2z"/>
		<path id="Path 728" class="s86" d="m411 586v-7h6l3 1 2 18-2 6h-3v-4l-7-3z"/>
		<path id="Path 729" class="s33" d="m80 586h-6l-2-6h8z"/>
		<path id="Path 730" class="s67" d="m161 582l4-2 2 5 5 1 3 8-6 2-8-11z"/>
		<path id="Path 731" class="s18" d="m196 588v-7l8-1v6l-1 4h-5z"/>
		<path id="Path 732" class="s71" d="m490 588l5-1 1-7 7 1v7l1 8 9 2 2 6-5 3-2 8h-5l-5-2-2-8v-9l-8-2-1-4z"/>
		<path id="Path 733" class="s61" d="m526 588v-8h6l2 5-1 3z"/>
		<path id="Path 734" class="s50" d="m758 582l6-2 12 3 2 5v4l4 1v3 7l7 9-2 1h-1-2l-20-5h-2l-4-2z"/>
		<path id="Path 735" class="s45" d="m776 583l8-3 2 3-1 3-3 2h-4z"/>
		<path id="Path 736" class="s14" d="m147 583l11-1v3l-3 4h-8v-3z"/>
		<path id="Path 737" class="s12" d="m158 585v-3h3v3z"/>
		<path id="Path 738" class="s76" d="m227 585l7-3 7 9-10 2-4-3z"/>
		<path id="Path 739" class="s79" d="m534 585h5l1-3h9l3 3v9l7 2v8l-9 7-2 7h-6v-6l-8-4-2-10 1-10z"/>
		<path id="Path 740" class="s23" d="m694 586l1-4h17l6 2 4 2v6l5 1-1-7 2-4h4v5l4 3v5l-4 4 1 5-13 1-1 2v1l-5 1-1-5h-7-12z"/>
		<path id="Path 741" class="s24" d="m60 586l-1-3 1 1z"/>
		<path id="Path 742" class="s77" d="m249 591l8-8 4 3v2l-2 6-3 4h-7l-1-3z"/>
		<path id="Path 743" class="s48" d="m348 597l-2-7 2-7h6l8 6 3 9v10l-1 1-5-5-2-6z"/>
		<path id="Path 744" class="s67" d="m678 586v-3h4l3 3-1 6h-4z"/>
		<path id="Path 745" class="s50" d="m785 586l1-3 10 1-1 8h-5z"/>
		<path id="Path 746" class="s7" d="m60 586v-2h1l6 6v4l-8 2-1 4h-2v-4l4-4h3l-2-5z"/>
		<path id="Path 747" class="s24" d="m60 586h1v1h-1z"/>
		<path id="Path 748" class="s71" d="m610 595l-4-5v-6h9l-1 10z"/>
		<path id="Path 749" class="s26" d="m614 594l1-10h5v10z"/>
		<path id="Path 750" class="s37" d="m147 589h8l3-4h3l8 11 6-2 7-1 2 2-5 14h-6l-2-8-5-5-5 2v6l-6 1-8 1-3-8z"/>
		<path id="Path 751" class="s81" d="m214 586l7-1h6v5l4 3-1 3-10 2h-4l-2-4z"/>
		<path id="Path 752" class="s38" d="m660 586l12-1 6 1 2 6h4v10h-9l-5-3-5-6h-5z"/>
		<path id="Path 753" class="s32" d="m90 590v-4h6v4z"/>
		<path id="Path 754" class="s32" d="m137 591l1-5h9v3l-3 9h-3z"/>
		<path id="Path 755" class="s77" d="m203 590l1-4h10v8l-8 1z"/>
		<path id="Path 756" class="s81" d="m365 598l6-4 3-8h14v2l1 9-1 9-3 2 1 5-1 6h-10l-5-10-5-1z"/>
		<path id="Path 757" class="s81" d="m400 588l6-2h5l-1 11-2 5h-5l-1 3h-6v-8l1-9z"/>
		<path id="Path 758" class="s84" d="m433 594h-7l-1-4 2-4 8 2z"/>
		<path id="Path 759" class="s31" d="m650 589l4-3h6v7l-2 3h-8z"/>
		<path id="Path 760" class="s14" d="m684 592l1-6h9v18l-4 2h-6v-4z"/>
		<path id="Path 761" class="s67" d="m726 586l1 7-5-1v-6z"/>
		<path id="Path 762" class="s16" d="m782 588l3-2 5 6v3l-8 1v-3z"/>
		<path id="Path 763" class="s58" d="m916 604l2-18 4 2-1 16z"/>
		<path id="Path 764" class="s2" d="m932 619l-2-33h2v9l2 2v21z"/>
		<path id="Path 765" class="s87" d="m503 588l7-1 3 9v2l-9-2z"/>
		<path id="Path 766" class="s29" d="m640 596l-4-2 2-7 4 2v7z"/>
		<path id="Path 767" class="s77" d="m190 589l6-1 2 2-2 6h-4l-1-1z"/>
		<path id="Path 768" class="s38" d="m259 594l2-6h3l-1 6z"/>
		<path id="Path 769" class="s74" d="m263 594l1-6h12v5l6 5v4l-12 4-9-2z"/>
		<path id="Path 770" class="s85" d="m389 597l-1-9h9l-1 9z"/>
		<path id="Path 771" class="s57" d="m433 594l2-6h5l6 3 2 9v8 2h-4v-6l-4-4h-5z"/>
		<path id="Path 772" class="s87" d="m462 591l10-3 5 4 7-2h3l1 4 8 2v9l-3 1h-7-9l-1-6h-7l-3-3-6-5z"/>
		<path id="Path 773" class="s59" d="m528 598l-2-10h7l-1 10z"/>
		<path id="Path 774" class="s35" d="m642 589l2-1 6 1v7h-8z"/>
		<path id="Path 775" class="s11" d="m782 593l-4-1v-4h4z"/>
		<path id="Path 776" class="s50" d="m112 590l6-1 4 3v2l-12 1z"/>
		<path id="Path 777" class="s65" d="m241 591l5-2 3 2-1 4-7 1-1 4h-8l-2-4 1-3z"/>
		<path id="Path 778" class="s88" d="m446 591l3-2 11 3 6 5-2 15 4 2v6l-12-2v-10l-1-7-7-1z"/>
		<path id="Path 779" class="s17" d="m876 592l1-3h5l3 5h-3z"/>
		<path id="Path 780" class="s40" d="m196 596l2-6h5l3 5-2 3z"/>
		<path id="Path 781" class="s17" d="m135 597l2-6 4 7h3l3 8-1 4-8-4z"/>
		<path id="Path 782" class="s8" d="m282 598l11-7 6 8v8h-9l-4-5h-4z"/>
		<path id="Path 783" class="s26" d="m862 598l-4-2 2-5 4 1z"/>
		<path id="Path 784" class="s13" d="m56 594l4-2-4 4z"/>
		<path id="Path 785" class="s45" d="m122 594v-2h5l1 5-5 1z"/>
		<path id="Path 786" class="s12" d="m790 595v-3h5v3z"/>
		<path id="Path 787" class="s43" d="m872 600l-2-7 6-1 6 2v8z"/>
		<path id="Path 788" class="s14" d="m658 596l2-3h5l5 6v5l-12-1z"/>
		<path id="Path 789" class="s74" d="m110 595l12-1 1 4-1 4-4 1v9l-10 1h-3l1-13z"/>
		<path id="Path 790" class="s10" d="m206 595l8-1 2 4 2 5v7l-5 2h-3v-4l-6-4v-6z"/>
		<path id="Path 791" class="s9" d="m256 598l3-4h4l-2 10-5 2z"/>
		<path id="Path 792" class="s65" d="m566 596l2-2h4v10h-4-2z"/>
		<path id="Path 793" class="s64" d="m572 604v-10l11 2 3 14-6 1h-2v-5z"/>
		<path id="Path 794" class="s28" d="m610 595l4-1h6l-1 10h-9z"/>
		<path id="Path 795" class="s23" d="m834 608h-7l-3-3v-11h2 6l2 4z"/>
		<path id="Path 796" class="s27" d="m882 602v-8h3l7 4v6z"/>
		<path id="Path 797" class="s77" d="m179 609l5-14 4 1v6l-2 10-3 2z"/>
		<path id="Path 798" class="s48" d="m188 596l3-1 1 1v6h-4z"/>
		<path id="Path 799" class="s36" d="m240 600l1-4 7-1 1 3 1 8v1l-3 1z"/>
		<path id="Path 800" class="s45" d="m782 596l8-1h5l17 10v6l9 6-1 9-6-3h-1l-5-3-5-2-11-4-3-2-7-9z"/>
		<path id="Path 801" class="s3" d="m934 597l-2-2h2z"/>
		<path id="Path 802" class="s11" d="m58 600l1-4 3 4 15 2 6 6 2 5h3l2 1 2 6 10-1 4 1 1 8 4 4h5v14l-8-3-15-8-5-2-9-5-11-8-5-7-5-9v-1z"/>
		<path id="Path 803" class="s77" d="m161 604v-6l5-2 5 5 2 8-2 5h-5l-2-1z"/>
		<path id="Path 804" class="s75" d="m192 602v-6h4l8 2v6l6 4v4l-3 2-6-8h-7z"/>
		<path id="Path 805" class="s6" d="m220 598l10-2 2 4-2 3-10-1z"/>
		<path id="Path 806" class="s73" d="m513 598v-2l4 1v7h-2z"/>
		<path id="Path 807" class="s42" d="m559 604v-8h7v8h-2z"/>
		<path id="Path 808" class="s23" d="m641 607l-1-11h2 8 8v7l-6 4z"/>
		<path id="Path 809" class="s37" d="m123 598l5-1h7l3 9 8 4v14l-8 1-8 1v-7l-7-7h-5v-9l4-1z"/>
		<path id="Path 810" class="s79" d="m346 604l2-7 9 1 2 6-7 2z"/>
		<path id="Path 811" class="s83" d="m388 606l1-9h7v8 2h-6z"/>
		<path id="Path 812" class="s89" d="m408 602l2-5 7 3v4 4h-5v-4z"/>
		<path id="Path 813" class="s73" d="m468 614l-4-2 2-15 3 3h7l1 6z"/>
		<path id="Path 814" class="s57" d="m218 603l-2-5h4v4z"/>
		<path id="Path 815" class="s48" d="m250 606l-1-8h7v8z"/>
		<path id="Path 816" class="s84" d="m420 604l2-6 5 1-1 15h-1l-5-4z"/>
		<path id="Path 817" class="s51" d="m530 610l-2-12h4l2 10v2z"/>
		<path id="Path 818" class="s45" d="m834 608v-10h6l2 6z"/>
		<path id="Path 819" class="s29" d="m670 604v-5l5 3-1 2z"/>
		<path id="Path 820" class="s2" d="m56 602v-2h2v3h-1z"/>
		<path id="Path 821" class="s3" d="m56 602h1v1h-1z"/>
		<path id="Path 822" class="s31" d="m100 602l6-2-1 13-3 2-2-1z"/>
		<path id="Path 823" class="s82" d="m230 603l2-3h8l7 8-3 2 1 7h-7l-1-1-1-1-3-3v-7z"/>
		<path id="Path 824" class="s85" d="m330 608l1-8 15 4 6 2 7-2 5 5v9l-6 1-1 9-9-6-1-6h-8-5z"/>
		<path id="Path 825" class="s90" d="m434 612l1-12h5l4 4v6l-2 2z"/>
		<path id="Path 826" class="s59" d="m448 608v-8l7 1 1 7z"/>
		<path id="Path 827" class="s12" d="m88 608l4-7h4l4 1v12h-10l-2-1z"/>
		<path id="Path 828" class="s78" d="m183 614l3-2 2-10h4l2 4 1 10-1 4h-9l-2-4z"/>
		<path id="Path 829" class="s80" d="m218 603l2-1 10 1 3 2v7l-7 8-7-6-1-4z"/>
		<path id="Path 830" class="s75" d="m270 606l12-4h4l4 5h9l5 6v7l-12 2-5 1-3 7h-4l-6 2-3-2z"/>
		<path id="Path 831" class="s86" d="m402 605l1-3h5l4 2v4l-8 2z"/>
		<path id="Path 832" class="s23" d="m674 604l1-2h9v4l-2 2h-8z"/>
		<path id="Path 833" class="s63" d="m652 607l6-4 12 1h4v4l-6 3v3l-13 2h-3z"/>
		<path id="Path 834" class="s60" d="m63 613l-4-2-1-7z"/>
		<path id="Path 835" class="s23" d="m155 605l6-1 3 9h-5z"/>
		<path id="Path 836" class="s37" d="m256 606l5-2 9 2 1 24-9-1h-2v-5l-8-5-2-12v-1z"/>
		<path id="Path 837" class="s87" d="m417 608v-4h3v6h-3z"/>
		<path id="Path 838" class="s86" d="m508 615l2-8 5-3h2l13 7 1 4h3l1 3-5 5-1 7h-5l-2 4v6l6 3v9 4h-4l-5-6h-7v-2-10l4-4v-4l-4-2v-8z"/>
		<path id="Path 839" class="s43" d="m548 618l2-7 9-7h5v6 8l1 7-3 3h-4l-2-7h-6z"/>
		<path id="Path 840" class="s57" d="m564 610v-6h2 2v6z"/>
		<path id="Path 841" class="s81" d="m568 610v-6h4l6 2v5l-8 1z"/>
		<path id="Path 842" class="s38" d="m608 620l2-16h9l8 5v7l-13 4z"/>
		<path id="Path 843" class="s17" d="m690 606l4-2h12l1 6-2 4-3 9h-2-1l-1-8-8-2z"/>
		<path id="Path 844" class="s12" d="m707 610l-1-6h7l1 5-4 1z"/>
		<path id="Path 845" class="s4" d="m720 605l13-1 20 1z"/>
		<path id="Path 846" class="s14" d="m914 609l2-5h5l-3 7z"/>
		<path id="Path 847" class="s75" d="m147 606l8-1 4 8h5l2 1-2 9h-5l-1 5-2 1-7-1-3-4v-14z"/>
		<path id="Path 848" class="s82" d="m396 607v-2h6l2 5-1 7-4 3h-1l-2-4z"/>
		<path id="Path 849" class="s51" d="m493 606l3-1 2 8-3 4-2-5z"/>
		<path id="Path 850" class="s0" d="m762 608l-9-3 5 1z"/>
		<path id="Path 851" class="s76" d="m195 616l-1-10h7l6 8-3 2z"/>
		<path id="Path 852" class="s90" d="m386 613l-1-5 3-2 2 1-1 6z"/>
		<path id="Path 853" class="s90" d="m468 614l9-8h9v5l-2 11 3 2-13 2-1 8h-5v-14z"/>
		<path id="Path 854" class="s88" d="m486 611v-5h7v6z"/>
		<path id="Path 855" class="s19" d="m641 607h11v9l-6 3-6-3z"/>
		<path id="Path 856" class="s48" d="m682 608l2-2h6v7h-8z"/>
		<path id="Path 857" class="s77" d="m247 608l3-1 2 12 8 5v5l-4 4-3-1-2-5-5-6-1-4-1-7z"/>
		<path id="Path 858" class="s91" d="m389 613l1-6h6v9h-6z"/>
		<path id="Path 859" class="s4" d="m719 608v-1l3 3z"/>
		<path id="Path 860" class="s16" d="m88 613h-3l-2-5h5z"/>
		<path id="Path 861" class="s82" d="m324 622v-13l6-1 4 8h5l1 5 6 1v11l6 9v4 8l-7 2-9-2v-9h4l2-5-8-2-4-2z"/>
		<path id="Path 862" class="s82" d="m364 609l1-1 5 1 5 10v13l-7-2v-9l-4-3z"/>
		<path id="Path 863" class="s92" d="m404 610l8-2h5v2 6h7v4 10l1 9 5 2v6l4 3v5l4 1v11l-8-1-4-4-1-14-6-2-4-9v-8l-8 1h-5l-4-3v-6l1-1 4-3z"/>
		<path id="Path 864" class="s73" d="m448 610v-2h8v10h-4l-4-1z"/>
		<path id="Path 865" class="s61" d="m534 610v-2l8 4v6h-7l-1-3z"/>
		<path id="Path 866" class="s30" d="m668 614v-3l6-3h8v5 13l-5 1-1-5-6-4z"/>
		<path id="Path 867" class="s19" d="m714 609l5-1 3 2v2l1 2-7 1-6-1v-4z"/>
		<path id="Path 868" class="s15" d="m784 613l-13-1-7-4z"/>
		<path id="Path 869" class="s23" d="m854 611l-1-3h2z"/>
		<path id="Path 870" class="s9" d="m854 611l1-3h15l7 7 4 12-6 6-21-12z"/>
		<path id="Path 871" class="s58" d="m171 614l2-5h6l4 5v2h-4v4l-6-1z"/>
		<path id="Path 872" class="s58" d="m890 628v-11l4-1 3-6 17-1 4 2v6l6 6v7l-14 13v9l-9 2-3-1-7-2-3-1v-11z"/>
		<path id="Path 873" class="s79" d="m213 612l5-2 1 4-3 2z"/>
		<path id="Path 874" class="s66" d="m424 616h-7v-6h3l5 4z"/>
		<path id="Path 875" class="s83" d="m442 612l2-2h4v7l-3 3h-3z"/>
		<path id="Path 876" class="s27" d="m530 611v-1h4v5h-3z"/>
		<path id="Path 877" class="s29" d="m564 618v-8h4l2 2v6z"/>
		<path id="Path 878" class="s58" d="m580 611l6-1 8 7v5 6l-12-2z"/>
		<path id="Path 879" class="s58" d="m705 614l2-4h3v4z"/>
		<path id="Path 880" class="s91" d="m487 624l-3-2 2-11 7 1 2 5z"/>
		<path id="Path 881" class="s51" d="m570 612l8-1h2l2 15-5 6-5 4 1 5-1 3h-4l-7-6 1-10 3-3 5-2v-5z"/>
		<path id="Path 882" class="s16" d="m108 613l10-1h5l7 7v7l-2 4-12 2h-5l-4-4-1-8z"/>
		<path id="Path 883" class="s81" d="m207 614l3-2h3l3 4v4l-4 3-8-4v-3z"/>
		<path id="Path 884" class="s57" d="m226 620l7-8 3 3-1 2-7 10-3-1z"/>
		<path id="Path 885" class="s87" d="m428 617l6-5h8v8l-4 6h-5l-5-6z"/>
		<path id="Path 886" class="s15" d="m723 614l-1-2 4 2 1 6h-1z"/>
		<path id="Path 887" class="s6" d="m787 613l2-1 3 2z"/>
		<path id="Path 888" class="s60" d="m68 620l-5-3v-4z"/>
		<path id="Path 889" class="s33" d="m102 615l3-2h3l-2 7-4-1z"/>
		<path id="Path 890" class="s93" d="m385 619l1-6h3l1 3h6l2 4v1 6l-6 7h-2z"/>
		<path id="Path 891" class="s73" d="m495 617l3-4 5 2v3l-5 1 2 17-4 2-18 2-5-1v-5l1-8 13-2z"/>
		<path id="Path 892" class="s36" d="m682 626v-13h8l8 2 1 8z"/>
		<path id="Path 893" class="s0" d="m803 618l-17-5h1l5 1z"/>
		<path id="Path 894" class="s67" d="m102 619l-10 1-2-6h10l2 1z"/>
		<path id="Path 895" class="s76" d="m164 623l2-9h5l2 5 6 1 3 1v7l-3 3-7 3z"/>
		<path id="Path 896" class="s93" d="m216 616l3-2 7 6-1 6-3 2-6-8z"/>
		<path id="Path 897" class="s83" d="m424 616l1-2h1l2 3v3h-4z"/>
		<path id="Path 898" class="s36" d="m655 616l13-2 2 4-2 11-7 3z"/>
		<path id="Path 899" class="s23" d="m702 623l3-9h5l6 1v7z"/>
		<path id="Path 900" class="s14" d="m716 615l7-1 3 6-1 4-8-1-1-1z"/>
		<path id="Path 901" class="s35" d="m235 617l1-2 1 1z"/>
		<path id="Path 902" class="s87" d="m503 618v-3h5l4 5v8h-6z"/>
		<path id="Path 903" class="s49" d="m179 620v-4h4l2 4-3 1z"/>
		<path id="Path 904" class="s26" d="m194 620l1-4h9v3h-6l-1 4h-1z"/>
		<path id="Path 905" class="s80" d="m235 617l2-1 1 1 1 6-3 7-8-1v-2z"/>
		<path id="Path 906" class="s79" d="m238 617h7l1 4-1 2h-6z"/>
		<path id="Path 907" class="s87" d="m346 622l-6-1-1-5h8l1 6z"/>
		<path id="Path 908" class="s27" d="m614 620l13-4h6l4 7 7 1v9l5 4-6 5h-5v-5h-5l-6 6-4-7h-5v-11z"/>
		<path id="Path 909" class="s40" d="m646 619l6-3h3l6 16-1 2-2 4-9-1-5-4v-9z"/>
		<path id="Path 910" class="s90" d="m445 620l3-3 4 1v4h-4z"/>
		<path id="Path 911" class="s83" d="m357 628l1-9 6-1 4 3v9z"/>
		<path id="Path 912" class="s94" d="m452 622v-4h4l12 2v14h-10v-7z"/>
		<path id="Path 913" class="s79" d="m500 636l-2-17 5-1 3 10v10z"/>
		<path id="Path 914" class="s65" d="m529 630l1-7 5-5h7l1 12v3l-9 1z"/>
		<path id="Path 915" class="s86" d="m543 630l-1-12h6l2 3v9z"/>
		<path id="Path 916" class="s52" d="m565 625l-1-7h6v5z"/>
		<path id="Path 917" class="s64" d="m668 629l2-11 6 4 1 5-1 1-7 1z"/>
		<path id="Path 918" class="s13" d="m932 619l2-1v2h-2z"/>
		<path id="Path 919" class="s49" d="m197 623l1-4h6l8 4v5l-4 1v4l-6-2-1-6z"/>
		<path id="Path 920" class="s95" d="m375 632v-13h10l5 15-1 2h-8z"/>
		<path id="Path 921" class="s53" d="m78 628h-4l-6-8 11 8z"/>
		<path id="Path 922" class="s30" d="m182 621l3-1h9l2 3-2 9-3 4h-5l-2-2 1-5-3-1z"/>
		<path id="Path 923" class="s96" d="m212 623l4-3 6 8v2l-6 4-4-2v-4z"/>
		<path id="Path 924" class="s30" d="m292 622l12-2 12 2v12l-6 6-8-1-1-6-8-2z"/>
		<path id="Path 925" class="s89" d="m398 620h1v1h-1z"/>
		<path id="Path 926" class="s90" d="m424 630v-10h4l5 6v4z"/>
		<path id="Path 927" class="s97" d="m438 626l4-6h3l3 2v4l-4 2h-6z"/>
		<path id="Path 928" class="s58" d="m604 624l4-4h6l4 5v11l-6 2h-10l-1-6z"/>
		<path id="Path 929" class="s6" d="m717 623l8 1 1-4h1l3 8-7 6h-9v-2z"/>
		<path id="Path 930" class="s15" d="m730 628l-3-8 5 8z"/>
		<path id="Path 931" class="s2" d="m930 626l2-6v6z"/>
		<path id="Path 932" class="s76" d="m245 623l1-2 5 6-3 1z"/>
		<path id="Path 933" class="s64" d="m550 630v-9h6l2 7-2 4h-5z"/>
		<path id="Path 934" class="s64" d="m284 630l3-7 5-1 1 9 8 2 1 6-2 5-12-2v-7z"/>
		<path id="Path 935" class="s35" d="m316 634v-12h2 6l6 14z"/>
		<path id="Path 936" class="s93" d="m352 642l-6-9v-11h2l9 6 11 2 7 2 6 4-1 8h-7l-6 6-6-1v-3l-1-4z"/>
		<path id="Path 937" class="s91" d="m448 626v-4h4l6 5v7l-1 10-6-2 1-13z"/>
		<path id="Path 938" class="s46" d="m594 628v-6l10 2-3 8h-7z"/>
		<path id="Path 939" class="s49" d="m702 623l14-1 1 1-3 9h-12-2v-9z"/>
		<path id="Path 940" class="s26" d="m158 628l1-5h5l8 11 7-3 2 5-5 4h-5l-8-6z"/>
		<path id="Path 941" class="s70" d="m194 632l2-9h1l4 2 1 6-2 1z"/>
		<path id="Path 942" class="s70" d="m236 630l3-7h6l3 5v8l-2 6h-2l-2-1-6-5z"/>
		<path id="Path 943" class="s79" d="m682 626l17-3h1v9l-3 1-20-1h-1v-4l1-1z"/>
		<path id="Path 944" class="s0" d="m822 628l-6-1-2-4 6 3z"/>
		<path id="Path 945" class="s30" d="m138 625l8-1 3 4-4 2h-4z"/>
		<path id="Path 946" class="s75" d="m130 626l8-1 3 5h4l-1 18-9-1-5-6-2-11z"/>
		<path id="Path 947" class="s62" d="m222 628l3-2 3 1v2l-4 3-2-2z"/>
		<path id="Path 948" class="s43" d="m433 630v-4h5v2 4h-4z"/>
		<path id="Path 949" class="s73" d="m444 628l4-2 4 3-1 13-4 2-4-4z"/>
		<path id="Path 950" class="s35" d="m577 632l5-6 12 2v4l-1 2-6-1-2 3-6-1z"/>
		<path id="Path 951" class="s3" d="m930 628v-2h2l-5 9 2-5z"/>
		<path id="Path 952" class="s51" d="m248 628l3-1 2 5-2 4h-3z"/>
		<path id="Path 953" class="s91" d="m392 634l6-7 4 3-2 11-6 2z"/>
		<path id="Path 954" class="s28" d="m875 633l6-6 9 1-2 11h-5z"/>
		<path id="Path 955" class="s15" d="m88 633l-7-1-3-4h1z"/>
		<path id="Path 956" class="s48" d="m145 630l4-2 7 1v5l6 2 1 7 11 3v6l-4 2v4h-8-6l-12-10z"/>
		<path id="Path 957" class="s76" d="m156 629l2-1 5 6-1 2-6-2z"/>
		<path id="Path 958" class="s49" d="m179 631l3-3 3 1-1 5-3 2z"/>
		<path id="Path 959" class="s85" d="m202 631l6 2v-4l4-1v4l4 2v7l-3 7-7 2-7-8 1-10z"/>
		<path id="Path 960" class="s59" d="m438 632v-4h6l-1 12h-4l-1-4z"/>
		<path id="Path 961" class="s73" d="m506 638v-10h6l4 2v4l-4 4h-4z"/>
		<path id="Path 962" class="s62" d="m556 632l2-4h4l-1 10-5-2z"/>
		<path id="Path 963" class="s71" d="m669 629l7-1v4l-2 1h-4z"/>
		<path id="Path 964" class="s25" d="m714 634h9l7-6h2v12l-3 10-2 7v2l-2 1 1-7-6-1v-8l-7-8z"/>
		<path id="Path 965" class="s69" d="m224 632l4-3 8 1v6l6 5-2 3h-4l-1-3-3 1h-6l-2-8z"/>
		<path id="Path 966" class="s58" d="m256 633l4-4h2l1 5-4 3-3-2z"/>
		<path id="Path 967" class="s52" d="m263 634l-1-5 9 1 3 2v4z"/>
		<path id="Path 968" class="s90" d="m407 630l8-1v8l-8 1z"/>
		<path id="Path 969" class="s46" d="m661 632l7-3h1l1 4h4v5l-3 2h-7l-4-6z"/>
		<path id="Path 970" class="s17" d="m116 632l12-2 2 11 5 6 9 1 12 10v4l-5 2-9-4-5-2-15-8-5-2-1-2z"/>
		<path id="Path 971" class="s65" d="m216 634l6-4 2 2v2l-8 7z"/>
		<path id="Path 972" class="s65" d="m274 632l6-2-5 6h-1z"/>
		<path id="Path 973" class="s81" d="m275 636l5-6h4l4 5v7l-5 9-8-3z"/>
		<path id="Path 974" class="s81" d="m400 641l2-11h5v8l7 9v9l-4-1-2-8z"/>
		<path id="Path 975" class="s97" d="m430 641l-5-2-1-9h9l1 2v4z"/>
		<path id="Path 976" class="s62" d="m528 643l-6-3v-6l2-4h5l5 4v8l-2 1z"/>
		<path id="Path 977" class="s52" d="m543 633v-3h7l1 2-1 4h-6z"/>
		<path id="Path 978" class="s69" d="m191 636l3-4h6l-1 10h-5z"/>
		<path id="Path 979" class="s38" d="m251 636l2-4 3 1v2l-2 3z"/>
		<path id="Path 980" class="s57" d="m434 636v-4h4v4z"/>
		<path id="Path 981" class="s27" d="m544 636h6l1-4h5v4l5 2 7 6v19l-8 1-2-13-8-7h-6v-2z"/>
		<path id="Path 982" class="s38" d="m573 641l-1-5 5-4 2 3-2 6z"/>
		<path id="Path 983" class="s57" d="m593 634l1-2h7l1 6v6l-5 4-4-1-2-7z"/>
		<path id="Path 984" class="s64" d="m674 633l2-1h1v6h-3z"/>
		<path id="Path 985" class="s85" d="m677 638v-6l20 1v4z"/>
		<path id="Path 986" class="s81" d="m697 633l3-1h2v5h-2-3z"/>
		<path id="Path 987" class="s65" d="m702 637v-5h12v2l-1 2-7 2z"/>
		<path id="Path 988" class="s0" d="m93 637l-5-4 5 2z"/>
		<path id="Path 989" class="s42" d="m534 634l9-1 1 3v6h-10z"/>
		<path id="Path 990" class="s29" d="m585 636l2-3 6 1-2 6h-4z"/>
		<path id="Path 991" class="s0" d="m838 638l-5-1-2-4 7 4z"/>
		<path id="Path 992" class="s36" d="m162 636l1-2 8 6h5v4l-2 2-11-3z"/>
		<path id="Path 993" class="s78" d="m181 636l3-2 2 2 3 8 5-2h5l7 8v8l-20 4v-10l-2-8h-8v-4z"/>
		<path id="Path 994" class="s80" d="m216 641l8-7 2 8-1 8-12-2z"/>
		<path id="Path 995" class="s76" d="m259 637l4-3 11 2h1v12h-3l-8 1-1 7h-6l-2-8-9-6 2-6h3l3 2 4 2z"/>
		<path id="Path 996" class="s85" d="m310 640l6-6 14 2 4 2 2 7v9l-3 3-5-1-2-4-10-1v-5z"/>
		<path id="Path 997" class="s90" d="m389 636l1-2h2l2 9-5-1z"/>
		<path id="Path 998" class="s66" d="m457 644l1-10h10 5v5l5 1 1 12-1 3h-9l-11-6z"/>
		<path id="Path 999" class="s35" d="m658 638l2-4 4 6v4h-3z"/>
		<path id="Path 1000" class="s60" d="m93 637v-2l15 8z"/>
		<path id="Path 1001" class="s51" d="m254 638l2-3 3 2-1 3z"/>
		<path id="Path 1002" class="s27" d="m577 641l2-6 6 1 2 4h4l2 7 4 1 1 10-2 2h-10-4l-4-6z"/>
		<path id="Path 1003" class="s42" d="m194 642l-5 2-3-8h5z"/>
		<path id="Path 1004" class="s83" d="m361 649l6 1 6-6h7l1-8h8v6l5 1 4 18 7 7-3 2-3-4-11 1-2-4 2-9h-7l1 10v5l-8 5v4l-4 1-6-1h-5l-1 4h-7l-3-4 2-4h6l1-4-1-8v-6z"/>
		<path id="Path 1005" class="s95" d="m430 641l4-5h4l1 4h4l4 4 2 6v2h-5l-6-2h-4l-4-3z"/>
		<path id="Path 1006" class="s90" d="m496 638l4-2 6 2h2v10l-8 1h-4z"/>
		<path id="Path 1007" class="s52" d="m612 638l6-2v12h-5z"/>
		<path id="Path 1008" class="s28" d="m618 648v-12h5l4 7-1 5z"/>
		<path id="Path 1009" class="s62" d="m706 638l7-2 7 8v8h-10l-4-6z"/>
		<path id="Path 1010" class="s95" d="m407 638l8-1 4 9-5 1z"/>
		<path id="Path 1011" class="s10" d="m627 643l6-6h5v5l1 6h6l1-4-3-2 6-5 9 1 3 6-3 12-1 3-7 2v5 4h-10l-1-3v-8l-13-1v-10z"/>
		<path id="Path 1012" class="s87" d="m677 638l20-1h3v9h-4-6l-8-2-10-1-1-3 3-2z"/>
		<path id="Path 1013" class="s84" d="m700 646v-9h2l4 1v8z"/>
		<path id="Path 1014" class="s53" d="m838 638v-1l5 2v1z"/>
		<path id="Path 1015" class="s83" d="m336 645l-2-7 8 2-2 5z"/>
		<path id="Path 1016" class="s94" d="m478 640l18-2v11l-3 6-14-3z"/>
		<path id="Path 1017" class="s87" d="m508 648v-10h4v10z"/>
		<path id="Path 1018" class="s43" d="m597 648l5-4v-6h10l1 10-3 1v7l-12 2z"/>
		<path id="Path 1019" class="s81" d="m300 644l2-5 8 1 6 6v5l-8 5v3h-1l-5-3z"/>
		<path id="Path 1020" class="s60" d="m843 640v-1l6 4z"/>
		<path id="Path 1021" class="s23" d="m880 654v-13l3-2h5v11l-3 4z"/>
		<path id="Path 1022" class="s65" d="m664 644v-4h7l1 3-5 4z"/>
		<path id="Path 1023" class="s11" d="m852 643l1-3h5l-1 6h-1z"/>
		<path id="Path 1024" class="s83" d="m232 642l3-1 1 3-1 2z"/>
		<path id="Path 1025" class="s64" d="m240 644l2-3 2 1v9l-4-3z"/>
		<path id="Path 1026" class="s92" d="m394 643l6-2 8 6 2 8 4 1v6 5l-2 3-7-2-7-7z"/>
		<path id="Path 1027" class="s52" d="m568 644h4l1-3h4l1 13-4 1v6l-3 2h-3z"/>
		<path id="Path 1028" class="s70" d="m225 650l1-8h6l3 4v2l-5 6z"/>
		<path id="Path 1029" class="s80" d="m244 651v-9h2l9 6 2 8-3 2-6-1-2 3h-2z"/>
		<path id="Path 1030" class="s83" d="m283 651l5-9 12 2 2 12h-5l-14-2z"/>
		<path id="Path 1031" class="s87" d="m352 646v-4h8l1 4z"/>
		<path id="Path 1032" class="s88" d="m447 644l4-2 6 2 1 5 11 6v5l-6 4h-3v-6l-4-2-1-6h-6z"/>
		<path id="Path 1033" class="s65" d="m532 643l2-1h10v2 11l-12-3z"/>
		<path id="Path 1034" class="s52" d="m643 642l3 2-1 4h-6l-1-6z"/>
		<path id="Path 1035" class="s53" d="m116 648l-8-5 8 3 1 2z"/>
		<path id="Path 1036" class="s83" d="m528 652v-9h4v9z"/>
		<path id="Path 1037" class="s81" d="m667 647l5-4 10 1v15l4 2v4h-2l-16-2-4-7z"/>
		<path id="Path 1038" class="s60" d="m853 646l-4-3h3l4 3z"/>
		<path id="Path 1039" class="s3" d="m917 652l7-9v4z"/>
		<path id="Path 1040" class="s80" d="m174 646l2-2h8l2 8h-12z"/>
		<path id="Path 1041" class="s30" d="m235 646l1-2h4v4h-5z"/>
		<path id="Path 1042" class="s43" d="m544 655v-11h6l8 7 2 13h-6l-2-5h-7z"/>
		<path id="Path 1043" class="s43" d="m658 656l3-12h3l3 3-3 9z"/>
		<path id="Path 1044" class="s65" d="m686 661l-4-2v-15l8 2 1 11 3 1v3z"/>
		<path id="Path 1045" class="s92" d="m352 654v-8h9v3l-5 7z"/>
		<path id="Path 1046" class="s88" d="m414 647l5-1 6 2 1 14 4 4v8h-6l-1-4-2-8h-7v-6z"/>
		<path id="Path 1047" class="s43" d="m694 658l-3-1-1-11h6v12z"/>
		<path id="Path 1048" class="s79" d="m696 658v-12h4 6l4 6v8h-8z"/>
		<path id="Path 1049" class="s24" d="m859 648l-6-2h3 1z"/>
		<path id="Path 1050" class="s13" d="m122 652l-6-4h1l5 2z"/>
		<path id="Path 1051" class="s69" d="m206 650l7-2 12 2 5 4 4 6 2 18 5 6 8-3v-7l6-11 11 1 4 14-4 3-1 18-11 5v6l-11-1-6-6h-11v-8l6-9v-12l-10-4h-14l-2-2v-10z"/>
		<path id="Path 1052" class="s76" d="m230 654l5-6h5l4 3v9h-10z"/>
		<path id="Path 1053" class="s64" d="m263 656l1-7 8-1v7l-6 2z"/>
		<path id="Path 1054" class="s82" d="m272 655v-7h3l8 3v3l-2 2z"/>
		<path id="Path 1055" class="s71" d="m500 649l8-1h4v2l1 19 7 1 4 6v6h-17v-8l1-8-6-3z"/>
		<path id="Path 1056" class="s46" d="m610 656v-7l3-1h5v8l-6 1z"/>
		<path id="Path 1057" class="s38" d="m618 656v-8h8v10z"/>
		<path id="Path 1058" class="s86" d="m493 655l3-6h4l2 14 6 3-1 8-4-6-7-1v-7l-3-2z"/>
		<path id="Path 1059" class="s15" d="m122 652v-2l15 8h-1z"/>
		<path id="Path 1060" class="s94" d="m438 656l-4-1v-5h4z"/>
		<path id="Path 1061" class="s88" d="m438 656v-6l6 2v12l-6 3z"/>
		<path id="Path 1062" class="s59" d="m449 652v-2h6l1 6h-7z"/>
		<path id="Path 1063" class="s65" d="m524 676l-4-6-7-1-1-19h7l5 6h4 4l2 5 9 1 1 14z"/>
		<path id="Path 1064" class="s24" d="m868 652l-5-2 5 1z"/>
		<path id="Path 1065" class="s6" d="m885 654l3-4 3 1v2l-4 2-2 1z"/>
		<path id="Path 1066" class="s95" d="m308 659v-3l8-5 10 1 2 4 5 1 4 4-5 4v4l-5-1z"/>
		<path id="Path 1067" class="s0" d="m868 652v-1l2 2z"/>
		<path id="Path 1068" class="s15" d="m891 653v-2l7 2z"/>
		<path id="Path 1069" class="s30" d="m170 658v-4l4-2h12v10l-6 4-10-2z"/>
		<path id="Path 1070" class="s86" d="m444 664v-12h5v4 6z"/>
		<path id="Path 1071" class="s90" d="m478 655l1-3 14 3v3l-10 6-5-4z"/>
		<path id="Path 1072" class="s52" d="m528 656v-4h4v4z"/>
		<path id="Path 1073" class="s62" d="m532 656v-4l12 3 1 4-2 3-9-1z"/>
		<path id="Path 1074" class="s29" d="m710 660v-8h10l6 1-1 7-1 5-2 3h-4l-1-4z"/>
		<path id="Path 1075" class="s25" d="m901 654l9-2h7l-1 1-4 2h-11z"/>
		<path id="Path 1076" class="s0" d="m875 655l-4-2 4 1z"/>
		<path id="Path 1077" class="s0" d="m901 655l-3-2 3 1z"/>
		<path id="Path 1078" class="s93" d="m281 656l2-2 14 2-2 8 5 4 4 4-1 8h-7l-4 7 2 11h-8l-1-25-5-4z"/>
		<path id="Path 1079" class="s93" d="m333 657l3-3 9 2 4 6-1 3-11-4z"/>
		<path id="Path 1080" class="s95" d="m345 656l7-2 4 2v6h-4-3z"/>
		<path id="Path 1081" class="s91" d="m382 664l-1-10h7l-2 9z"/>
		<path id="Path 1082" class="s79" d="m571 663l3-2v-6l4-1 4 6h4v8l-4 3-9-3z"/>
		<path id="Path 1083" class="s7" d="m875 655v-1h5 5v2l-9-1z"/>
		<path id="Path 1084" class="s68" d="m266 657l6-2 9 1-1 13 5 4 1 25h8l-2-11 4-7h7l3 2-1 14-9 11v8l14 9v5h-6l-8-1h-3l-6-2-11-1-8-2h-4l-6-2-2-1-2-10v-6l11-5 1-18 4-3-4-14z"/>
		<path id="Path 1085" class="s73" d="m469 660v-5h9v5z"/>
		<path id="Path 1086" class="s0" d="m887 655v2l-11-2 9 1z"/>
		<path id="Path 1087" class="s0" d="m912 655v2l-11-2z"/>
		<path id="Path 1088" class="s81" d="m254 658l3-2h6l3 1v7l-11-1-1-1z"/>
		<path id="Path 1089" class="s70" d="m300 668l-5-4 2-8h5l5 3v4z"/>
		<path id="Path 1090" class="s97" d="m444 664l5-2v-6h7l4 2v6l-4 3v13l-22-3-4-3v-8l8 1z"/>
		<path id="Path 1091" class="s31" d="m598 658l12-2 2 1 2 18 3 3h7l2 9v5l-15-3-1-5h-10v-8l-4-16z"/>
		<path id="Path 1092" class="s50" d="m612 657l6-1 8 2v8 8 4h-2-7l-3-3z"/>
		<path id="Path 1093" class="s46" d="m650 666v-5l7-2 1-3h6l4 7 16 2v11l-16-4-2-5z"/>
		<path id="Path 1094" class="s86" d="m246 660l2-3 6 1v4l-8 1z"/>
		<path id="Path 1095" class="s13" d="m142 662l-6-4h1l5 2z"/>
		<path id="Path 1096" class="s31" d="m156 662v-4h6v4z"/>
		<path id="Path 1097" class="s40" d="m162 662v-4h8v6h-6z"/>
		<path id="Path 1098" class="s80" d="m186 662l20-4v10l-12 7 3 9 7 2 4-4v-12h14l10 4v12l-6 9v8l-3 3h-5l-10-3-10-5h-1l-10-5-8-7 1-16v-4z"/>
		<path id="Path 1099" class="s91" d="m483 664l10-6 3 2v7l-4 5h-7z"/>
		<path id="Path 1100" class="s17" d="m626 666v-8l13 1v8h-9z"/>
		<path id="Path 1101" class="s27" d="m694 661v-3h2l6 2v4h-8z"/>
		<path id="Path 1102" class="s69" d="m300 668l7-5v-4h1l19 9-12 8-1 6h-8l-3-2 1-8z"/>
		<path id="Path 1103" class="s57" d="m543 662l2-3h7l2 5h6l8-1h3l2 5-1 10-8 2h-8l-12-4z"/>
		<path id="Path 1104" class="s13" d="m725 660l2-1-3 8v-2z"/>
		<path id="Path 1105" class="s15" d="m142 662v-2l9 4 3 4z"/>
		<path id="Path 1106" class="s96" d="m255 663l-6 11v7l-8 3-5-6-2-18h10 2v3l8-1z"/>
		<path id="Path 1107" class="s66" d="m463 664l6-4h9l5 4 2 8 1 12v12l10 5v11l10 2 2 4v10l-6 5h-1l-2 2-5 3h-2l-12-1h-4l-7-6 1-9-4-2v-8l-2-10h-10l-3-4h-8l-3-3-6-18 22 3h6z"/>
		<path id="Path 1108" class="s64" d="m586 668v-8h10l4 16h-8v-5z"/>
		<path id="Path 1109" class="s19" d="m702 664v-4h8l7 4 1 4h4l-3 7-17-1z"/>
		<path id="Path 1110" class="s90" d="m332 669v-4l5-4 11 4 4 2 5 3-1 4h-6l-2 4h-6l-4-7z"/>
		<path id="Path 1111" class="s38" d="m686 665v-4h8v3 2z"/>
		<path id="Path 1112" class="s50" d="m151 664l5-2h6l2 2v6l-2 2h-2l-6-4z"/>
		<path id="Path 1113" class="s89" d="m348 665l1-3h3v5z"/>
		<path id="Path 1114" class="s93" d="m352 667v-5h4l1 8z"/>
		<path id="Path 1115" class="s89" d="m414 667v-5h7l2 8h-3z"/>
		<path id="Path 1116" class="s81" d="m382 664l4-1 2 4v5h-4l-2-3z"/>
		<path id="Path 1117" class="s48" d="m164 670v-6h6l10 2v4l-10 3z"/>
		<path id="Path 1118" class="s94" d="m456 680v-13l4-3h3l-1 16z"/>
		<path id="Path 1119" class="s58" d="m694 666v-2h8v10h-8z"/>
		<path id="Path 1120" class="s64" d="m684 676v-11h2l8 1v8l-3 7h-7z"/>
		<path id="Path 1121" class="s2" d="m722 668l2-3v2l-7 17h-1l3-9z"/>
		<path id="Path 1122" class="s90" d="m388 667l11-1 3 4 3-2 7 2 2 4v6l-8 3-8-2-2-3h-6l-2-6z"/>
		<path id="Path 1123" class="s10" d="m626 674v-8l4 1v7z"/>
		<path id="Path 1124" class="s30" d="m650 670v-4l16 1 2 5h-7z"/>
		<path id="Path 1125" class="s91" d="m412 670l2-3 6 3v4h-6z"/>
		<path id="Path 1126" class="s97" d="m485 672h7l4-5 7 1 4 6v8l-2 3-8 1-11-2z"/>
		<path id="Path 1127" class="s9" d="m630 674v-7h9l1 3v4z"/>
		<path id="Path 1128" class="s15" d="m160 673l-6-5 6 4z"/>
		<path id="Path 1129" class="s70" d="m208 670v12l-4 4-7-2-3-9 12-7z"/>
		<path id="Path 1130" class="s68" d="m314 682l1-6 12-8 5 1 6 2 4 7v11l-8 1-3 6-12-2z"/>
		<path id="Path 1131" class="s46" d="m572 678l1-10 9 3v9h-8z"/>
		<path id="Path 1132" class="s38" d="m582 671l4-3 6 3v5 5l-1 1h-8l-1-2z"/>
		<path id="Path 1133" class="s90" d="m374 678v-4l8-5 2 3v6z"/>
		<path id="Path 1134" class="s85" d="m162 672l2-2 6 3v6l-7-5z"/>
		<path id="Path 1135" class="s69" d="m170 673l10-3-1 16-9-7z"/>
		<path id="Path 1136" class="s87" d="m420 674v-4h3l1 4z"/>
		<path id="Path 1137" class="s35" d="m640 674v-4h10l11 2 2 8h-1l-8-1-8-1z"/>
		<path id="Path 1138" class="s53" d="m160 673v-1h2l1 2v1z"/>
		<path id="Path 1139" class="s83" d="m384 678v-6h4l2 6z"/>
		<path id="Path 1140" class="s51" d="m663 680l-2-8h7l16 4v5l-8 2z"/>
		<path id="Path 1141" class="s60" d="m163 675v-1l7 5 9 7 8 7h-1l-18-11z"/>
		<path id="Path 1142" class="s94" d="m414 680v-6h6 4 6l4 3 6 18 3 3h8l3 4h10l2 10-16-2-4-6h-6l-5-8h-8z"/>
		<path id="Path 1143" class="s75" d="m626 678v-4h4 10l6 4v4h-4l-8-2z"/>
		<path id="Path 1144" class="s29" d="m691 681l3-7h8l17 1-3 9-3 4-1 2-3 3h-2l-1-7-12-2z"/>
		<path id="Path 1145" class="s49" d="m524 682v-6h20v5l-12 8-6-2z"/>
		<path id="Path 1146" class="s79" d="m532 689l12-8v-5l12 4v8l-22 9-2-1z"/>
		<path id="Path 1147" class="s28" d="m592 681v-5h8v8z"/>
		<path id="Path 1148" class="s89" d="m331 696l3-6 8-1v-11h6l3 4v5l5 1v7l7 7h4l8 10-1 3-18 1-10-4-7-9-8-4z"/>
		<path id="Path 1149" class="s86" d="m358 682l1-4h5v6h-6z"/>
		<path id="Path 1150" class="s87" d="m364 684v-6l6 1v5z"/>
		<path id="Path 1151" class="s95" d="m370 679l4-1h10 6 6l2 3-2 7-9 1-1 7-1 13-3 3h-7l-8-10 3-4v-14z"/>
		<path id="Path 1152" class="s43" d="m564 680l8-2 2 2v6l-6 4h-4z"/>
		<path id="Path 1153" class="s30" d="m626 687l-2-9h2l8 2v7z"/>
		<path id="Path 1154" class="s37" d="m646 682v-4l8 1v4z"/>
		<path id="Path 1155" class="s75" d="m654 683v-4l8 1v4z"/>
		<path id="Path 1156" class="s91" d="m406 683l8-3 13 16h8l5 8v4h-25l-2-3h-7l-1 5-20-1 1-13h10 6 6l-2-6z"/>
		<path id="Path 1157" class="s35" d="m556 688v-8h8v10h-4z"/>
		<path id="Path 1158" class="s26" d="m574 686v-6h8l1 2-5 4z"/>
		<path id="Path 1159" class="s36" d="m634 687v-7l8 2v6z"/>
		<path id="Path 1160" class="s48" d="m662 684v-4h1l13 3-1 3h-9z"/>
		<path id="Path 1161" class="s92" d="m396 688l2-7 8 2v7h-4-6z"/>
		<path id="Path 1162" class="s10" d="m591 682l1-1 8 3v4h-7z"/>
		<path id="Path 1163" class="s23" d="m676 683l8-2h7l3 3-2 12h-10l-6-4-1-6z"/>
		<path id="Path 1164" class="s93" d="m310 724l-14-9v-8l9-11 1-14h8l5 12 12 2v3l8 4 7 9v7l-8 1h-7l-2 6h-10z"/>
		<path id="Path 1165" class="s93" d="m356 688l-5-1v-5h7v2z"/>
		<path id="Path 1166" class="s90" d="m497 686l8-1 2-3h17l2 5 6 2v7h-15l-1 6h-10l-8-1z"/>
		<path id="Path 1167" class="s17" d="m578 686l5-4h8l2 6v2l-14 1z"/>
		<path id="Path 1168" class="s46" d="m642 688v-6h4l8 1 8 1 4 2v6l-6 6h-8v4h-4v-2l1-3-7-4z"/>
		<path id="Path 1169" class="s92" d="m356 688l2-4h6 6v14l-3 4h-4l-7-7z"/>
		<path id="Path 1170" class="s88" d="m496 701l-10-5v-12l11 2 1 15z"/>
		<path id="Path 1171" class="s46" d="m600 688v-4h10l1 5z"/>
		<path id="Path 1172" class="s14" d="m692 696l2-12 12 2 1 7-5 5-7 3z"/>
		<path id="Path 1173" class="s3" d="m713 688l3-4h1z"/>
		<path id="Path 1174" class="s40" d="m568 690l6-4h4l1 5-5 2h-5z"/>
		<path id="Path 1175" class="s26" d="m666 692v-6h9l1 6z"/>
		<path id="Path 1176" class="s43" d="m626 692v-5h8l8 1v5h-12z"/>
		<path id="Path 1177" class="s90" d="m386 696l1-7 9-1v2 6z"/>
		<path id="Path 1178" class="s43" d="m534 697l22-9 4 2v7l-4 3-9 2-5 1v6l-4-1h-1-3z"/>
		<path id="Path 1179" class="s75" d="m593 690v-2h7l11 1 15 3 4 1v4l-1 1h-4l-20 1-2-6h-7z"/>
		<path id="Path 1180" class="s95" d="m396 696v-6h6v6z"/>
		<path id="Path 1181" class="s90" d="m402 696v-6h4l2 6z"/>
		<path id="Path 1182" class="s9" d="m560 697v-7h4 4l1 3h5l1 8h-11z"/>
		<path id="Path 1183" class="s30" d="m579 691l14-1 3 3v7h-6v4l-14-1-1-2-1-8z"/>
		<path id="Path 1184" class="s19" d="m660 698l6-6h10l6 4h10l3 5-1 2h-2l-3 2-7 2-5 1h-20-9v-6h4 8z"/>
		<path id="Path 1185" class="s15" d="m197 698l-11-5h1z"/>
		<path id="Path 1186" class="s36" d="m596 700v-7h7l2 6-1 1z"/>
		<path id="Path 1187" class="s48" d="m630 697v-4h12l7 4-1 3h-12z"/>
		<path id="Path 1188" class="s86" d="m516 702l1-6h15l2 1v11l-2 2-5 3h-1l-7 4-3-1z"/>
		<path id="Path 1189" class="s10" d="m556 700l4-3 4 4v3h-4z"/>
		<path id="Path 1190" class="s10" d="m629 698l1-1 6 3v3h-5l-1-1z"/>
		<path id="Path 1191" class="s53" d="m208 703l-7-1-3-4z"/>
		<path id="Path 1192" class="s14" d="m605 699l20-1 1 4h4l1 1-2 6v1h-23l-2-4v-6z"/>
		<path id="Path 1193" class="s9" d="m630 702h-4l-1-4h4z"/>
		<path id="Path 1194" class="s50" d="m652 702v-4h8v4z"/>
		<path id="Path 1195" class="s3" d="m695 701l7-3-8 5z"/>
		<path id="Path 1196" class="s17" d="m547 702l9-2 4 4v3h-10z"/>
		<path id="Path 1197" class="s58" d="m590 704v-4h6 8v6h-7z"/>
		<path id="Path 1198" class="s14" d="m636 703v-3h12v2 6h-10z"/>
		<path id="Path 1199" class="s94" d="m506 714l-10-2v-11h2l8 1z"/>
		<path id="Path 1200" class="s50" d="m564 704v-3h11l1 2v6l-3 1h-9z"/>
		<path id="Path 1201" class="s91" d="m506 714v-12h10v14l-4 2h-4z"/>
		<path id="Path 1202" class="s35" d="m542 709v-6l5-1 3 5-3 2h-4z"/>
		<path id="Path 1203" class="s15" d="m219 708l-8-1-3-4 10 3z"/>
		<path id="Path 1204" class="s85" d="m223 706l3-3h11l6 6 11 1 2 10-12-2h-1l-12-5h-1l-5-3z"/>
		<path id="Path 1205" class="s11" d="m576 709v-6l14 1 7 2-12 4h-8z"/>
		<path id="Path 1206" class="s25" d="m629 709l2-6h5l2 5z"/>
		<path id="Path 1207" class="s98" d="m440 708v-4h6l4 6 16 2v8l-6 4v6h-4l-11-2-6-2 2-5 7-3v-6z"/>
		<path id="Path 1208" class="s12" d="m560 707v-3h4v6h-2z"/>
		<path id="Path 1209" class="s89" d="m405 710l1-5h7l2 3v3z"/>
		<path id="Path 1210" class="s26" d="m219 708l-1-2h5l2 4h-2z"/>
		<path id="Path 1211" class="s22" d="m585 710l12-4h7l2 4z"/>
		<path id="Path 1212" class="s29" d="m547 709l3-2h10l2 3-5 1z"/>
		<path id="Path 1213" class="s72" d="m415 711v-3h25l8 4v6l-7 3-2 5h-19v-11z"/>
		<path id="Path 1214" class="s20" d="m532 710l2-2h3z"/>
		<path id="Path 1215" class="s20" d="m543 710l-5-2 4 1h1z"/>
		<path id="Path 1216" class="s2" d="m629 709l9-1h10 9l-28 2z"/>
		<path id="Path 1217" class="s68" d="m382 712l3-3 20 1 10 1 5 4v11h-6-12l-2-10h-16z"/>
		<path id="Path 1218" class="s60" d="m543 710v-1h4l10 2v1z"/>
		<path id="Path 1219" class="s20" d="m573 710l3-1 1 1-4 2z"/>
		<path id="Path 1220" class="s15" d="m230 713l-7-3h2z"/>
		<path id="Path 1221" class="s53" d="m557 711l5-1h2 9v2h-16z"/>
		<path id="Path 1222" class="s68" d="m346 719v-7l10 4-2 3z"/>
		<path id="Path 1223" class="s69" d="m374 715l1-3h7l2 4h16l2 10h-6l-13-1-2-6z"/>
		<path id="Path 1224" class="s15" d="m243 718l-8-1-4-4z"/>
		<path id="Path 1225" class="s3" d="m519 717l7-4-2 4-5 1z"/>
		<path id="Path 1226" class="s70" d="m356 716l18-1 7 4 2 6h-3l-18-2-8-4z"/>
		<path id="Path 1227" class="s79" d="m512 718l4-2 3 1v1l-5 5z"/>
		<path id="Path 1228" class="s44" d="m258 722l-14-4 12 2 2 1z"/>
		<path id="Path 1229" class="s90" d="m508 728v-10h4l2 5-5 5z"/>
		<path id="Path 1230" class="s77" d="m338 720l8-1h8l8 4 1 8-1 3h-6-4l-5-2-3-6h-6z"/>
		<path id="Path 1231" class="s76" d="m329 726l2-6h7v6l-3 2z"/>
		<path id="Path 1232" class="s94" d="m460 730v-6l6-4 4 2-1 9z"/>
		<path id="Path 1233" class="s15" d="m258 722v-1l6 2z"/>
		<path id="Path 1234" class="s74" d="m363 731l-1-8 18 2v7l-6 4h-1-2l-3-5z"/>
		<path id="Path 1235" class="s69" d="m310 729v-5l9 2-2 4z"/>
		<path id="Path 1236" class="s0" d="m287 728l-11-3 11 1z"/>
		<path id="Path 1237" class="s21" d="m380 732v-7h3l13 1v6h-1z"/>
		<path id="Path 1238" class="s1" d="m287 728v-2l6 2z"/>
		<path id="Path 1239" class="s81" d="m317 730l2-4h10l6 2 2 4h-10l-9-1z"/>
		<path id="Path 1240" class="s30" d="m335 728l3-2h6l3 6h-7-3z"/>
		<path id="Path 1241" class="s74" d="m396 732v-6h6 12v8h-1-2z"/>
		<path id="Path 1242" class="s77" d="m414 734v-8h6 19l6 2-6 9h-7z"/>
		<path id="Path 1243" class="s7" d="m303 730l-7-2 8 1z"/>
		<path id="Path 1244" class="s8" d="m439 737l6-9 11 2-1 9h-4z"/>
		<path id="Path 1245" class="s0" d="m502 733l6-5h1z"/>
		<path id="Path 1246" class="s60" d="m303 730l1-1h6l7 1 1 1v1z"/>
		<path id="Path 1247" class="s10" d="m455 739l1-9h4l9 1 7 6-1 3z"/>
		<path id="Path 1248" class="s24" d="m318 732v-1l9 1v1z"/>
		<path id="Path 1249" class="s17" d="m362 734l1-3h5l3 5h-6z"/>
		<path id="Path 1250" class="s53" d="m327 733v-1h10 3v1h-1z"/>
		<path id="Path 1251" class="s29" d="m340 733v-1h7l5 2h-4z"/>
		<path id="Path 1252" class="s50" d="m374 736l6-4h15v2l-5 3z"/>
		<path id="Path 1253" class="s23" d="m395 734v-2h1l15 2z"/>
		<path id="Path 1254" class="s0" d="m348 735l-9-2h1l8 1z"/>
		<path id="Path 1255" class="s4" d="m348 735v-1h4 4v1z"/>
		<path id="Path 1256" class="s6" d="m356 735v-1h6l3 2h-1z"/>
		<path id="Path 1257" class="s29" d="m390 737l5-3h16 2l6 6-3 1-7-1h-7l-12-2z"/>
		<path id="Path 1258" class="s14" d="m419 740l-6-6h1l18 3-2 3h-6z"/>
		<path id="Path 1259" class="s0" d="m364 737l-8-2 8 1z"/>
		<path id="Path 1260" class="s4" d="m364 737v-1h1 6z"/>
		<path id="Path 1261" class="s7" d="m389 738l-16-2h1l16 1v1z"/>
		<path id="Path 1262" class="s71" d="m480 737l12 1v1l-5 3-3 1-2 1h-2z"/>
		<path id="Path 1263" class="s19" d="m430 740l2-3h7l12 2v4h-7z"/>
		<path id="Path 1264" class="s29" d="m455 739l20 1 1-3h4v7h-1-6-16l-6-1v-4z"/>
		<path id="Path 1265" class="s20" d="m402 740l-13-2h1z"/>
		<path id="Path 1266" class="s13" d="m416 742l-7-2 7 1z"/>
		<path id="Path 1267" class="s60" d="m416 741l3-1h5v2h-8z"/>
		<path id="Path 1268" class="s53" d="m424 742v-2h6l14 3z"/>
		<path id="Path 1269" class="s13" d="m451 745v-2l6 1v1z"/>
		<path id="Path 1270" class="s13" d="m482 744l2-1v2h-2z"/>
		<path id="Path 1271" class="s60" d="m457 745v-1h16v1z"/>
		<path id="Path 1272" class="s44" d="m473 745v-1h6v1z"/>
		<path id="Path 1273" class="s15" d="m479 745v-1h1 2v1z"/>
	</g>
</svg>