<svg version="1.2" xmlns="http://www.w3.org/2000/svg" viewBox="0 0 1000 1000" width="1000" height="1000">
	<title>Lota_lota</title>
	<style>
		.s0 { opacity: .1;fill: #f3f2f3 } 
		.s1 { opacity: .7;fill: #d8d6d7 } 
		.s2 { opacity: .7;fill: #979398 } 
		.s3 { opacity: .6;fill: #6f6d6c } 
		.s4 { opacity: .1;fill: #dcdadc } 
		.s5 { opacity: .1;fill: #9e9aa0 } 
		.s6 { opacity: .1;fill: #4c4b48 } 
		.s7 { opacity: .1;fill: #7b7977 } 
		.s8 { opacity: .1;fill: #c9c7ca } 
		.s9 { opacity: .9;fill: #5f5d5c } 
		.s10 { fill: #2c2c27 } 
		.s11 { fill: #28271d } 
		.s12 { fill: #302d1d } 
		.s13 { opacity: 1;fill: #aca8b0 } 
		.s14 { opacity: .1;fill: #bcb9bf } 
		.s15 { opacity: 1;fill: #a5a0a9 } 
		.s16 { fill: #1f211c } 
		.s17 { fill: #716a63 } 
		.s18 { opacity: .8;fill: #868483 } 
		.s19 { fill: #262621 } 
		.s20 { opacity: .3;fill: #636161 } 
		.s21 { fill: #8a8483 } 
		.s22 { opacity: .3;fill: #c7c3c6 } 
		.s23 { opacity: .5;fill: #eae8e9 } 
		.s24 { fill: #696868 } 
		.s25 { opacity: .5;fill: #9a9596 } 
		.s26 { opacity: .7;fill: #c0bdc3 } 
		.s27 { fill: #1a1b18 } 
		.s28 { fill: #323129 } 
		.s29 { fill: #1e2223 } 
		.s30 { fill: #222116 } 
		.s31 { fill: #191a11 } 
		.s32 { fill: #3f3f3a } 
		.s33 { fill: #484945 } 
		.s34 { opacity: 1;fill: #b4b0b9 } 
		.s35 { opacity: .3;fill: #f3f2f3 } 
		.s36 { opacity: .5;fill: #827f7f } 
		.s37 { opacity: .3;fill: #aaa6ac } 
		.s38 { opacity: .3;fill: #7e7b7b } 
		.s39 { opacity: .5;fill: #d4d1d4 } 
		.s40 { fill: #8e8a8e } 
		.s41 { opacity: .6;fill: #f1f1f1 } 
		.s42 { opacity: .5;fill: #bcb9bc } 
		.s43 { opacity: .7;fill: #adaab0 } 
		.s44 { fill: #232110 } 
		.s45 { fill: #78726c } 
		.s46 { opacity: .3;fill: #928f91 } 
		.s47 { opacity: .9;fill: #cbc8cb } 
		.s48 { opacity: .9;fill: #938f91 } 
		.s49 { fill: #2a2615 } 
		.s50 { opacity: .3;fill: #b4b1b4 } 
		.s51 { fill: #9e99a0 } 
		.s52 { fill: #727173 } 
		.s53 { fill: #332c15 } 
		.s54 { opacity: 1;fill: #7b7a7d } 
		.s55 { fill: #363834 } 
		.s56 { fill: #3a341c } 
		.s57 { fill: #565451 } 
		.s58 { fill: #383523 } 
		.s59 { fill: #252c2d } 
		.s60 { fill: #161c1f } 
		.s61 { fill: #0e1616 } 
		.s62 { fill: #44412f } 
		.s63 { fill: #3f3925 } 
		.s64 { fill: #49422b } 
		.s65 { opacity: .3;fill: #dedcdd } 
		.s66 { fill: #443e25 } 
		.s67 { fill: #222627 } 
		.s68 { fill: #959096 } 
		.s69 { fill: #544c36 } 
		.s70 { opacity: 1;fill: #484d51 } 
		.s71 { fill: #4d4732 } 
		.s72 { fill: #575c63 } 
		.s73 { fill: #595140 } 
		.s74 { fill: #4b473c } 
		.s75 { fill: #5e5647 } 
		.s76 { fill: #3c372c } 
		.s77 { opacity: .9;fill: #706f6d } 
		.s78 { fill: #5c5a56 } 
		.s79 { opacity: .6;fill: #5e5c5c } 
		.s80 { fill: #374044 } 
		.s81 { fill: #2e3335 } 
		.s82 { fill: #4f4e4a } 
		.s83 { fill: #635d4e } 
		.s84 { fill: #827b78 } 
		.s85 { fill: #67625a } 
		.s86 { fill: #cec9d2 } 
		.s87 { fill: #c4bfcd } 
		.s88 { fill: #83828b } 
		.s89 { opacity: 1;fill: #e4dee4 } 
		.s90 { opacity: 1;fill: #dad4da } 
		.s91 { fill: #bcb8c4 } 
		.s92 { opacity: .5;fill: #505152 } 
		.s93 { opacity: .5;fill: #bfbdbf } 
		.s94 { opacity: .7;fill: #efeeef } 
		.s95 { opacity: .3;fill: #2a2f31 } 
	</style>
	<g id="Background">
		<path id="Path 0" class="s0" d="m501 449h1v1h-1z"/>
		<path id="Path 1" class="s1" d="m501 450l1-1h4v2h-5z"/>
		<path id="Path 2" class="s2" d="m506 451v-2h7v2z"/>
		<path id="Path 3" class="s3" d="m513 451v-2h8v2h-6z"/>
		<path id="Path 4" class="s2" d="m521 451v-2h10v2z"/>
		<path id="Path 5" class="s1" d="m531 451v-2h7l1 1v1z"/>
		<path id="Path 6" class="s0" d="m538 449h1v1h-1z"/>
		<path id="Path 7" class="s4" d="m844 501h1v1h-1z"/>
		<path id="Path 8" class="s4" d="m489 452l6-2v1z"/>
		<path id="Path 9" class="s5" d="m495 451v-1h3v1z"/>
		<path id="Path 10" class="s6" d="m498 451v-1h3v1h-1z"/>
		<path id="Path 11" class="s7" d="m543 451l10-1v1h-4z"/>
		<path id="Path 12" class="s8" d="m553 451v-1l13 2h-1z"/>
		<path id="Path 13" class="s9" d="m489 452l6-1h3 2l-7 2-8 2 1-2 1-1z"/>
		<path id="Path 14" class="s10" d="m493 453l7-2h1 5 7 2v18l-8-2-2-8h-10z"/>
		<path id="Path 15" class="s11" d="m515 469v-18h6 10l-2 10v6l-2 8h-2l-10-2z"/>
		<path id="Path 16" class="s12" d="m529 461l2-10h8 4 6l2 2v8h-3-13z"/>
		<path id="Path 17" class="s13" d="m551 453l-2-2h4l12 1z"/>
		<path id="Path 18" class="s8" d="m478 454l9-2-1 1z"/>
		<path id="Path 19" class="s10" d="m551 453l14-1h1l2 1h3l2 2v8h-18l-4-2z"/>
		<path id="Path 20" class="s7" d="m568 453l9-1v1h-6z"/>
		<path id="Path 21" class="s14" d="m577 453v-1l10 1h-8z"/>
		<path id="Path 22" class="s15" d="m478 454l8-1-1 2h-4z"/>
		<path id="Path 23" class="s16" d="m485 455l8-2 2 6v8l-2 2h-6l-6-14z"/>
		<path id="Path 24" class="s17" d="m573 455l-2-2h6 2l3 2z"/>
		<path id="Path 25" class="s13" d="m582 455l-3-2h8v1 1z"/>
		<path id="Path 26" class="s18" d="m468 455l4-1h4l-11 4-10 3h-1l1-2 6-4z"/>
		<path id="Path 27" class="s19" d="m465 458l11-4h2l3 1 6 14-20 4-2-4z"/>
		<path id="Path 28" class="s20" d="m587 455v-1h5l-1 1z"/>
		<path id="Path 29" class="s21" d="m591 455l1-1h2l6 2z"/>
		<path id="Path 30" class="s22" d="m600 456l-6-2 8 2z"/>
		<path id="Path 31" class="s16" d="m573 463v-8h9 5 4l9 1h2 1v1 6h-8l-2-2z"/>
		<path id="Path 32" class="s20" d="m603 456l6-1v1l-4 1h-2z"/>
		<path id="Path 33" class="s23" d="m609 456v-1l8 2z"/>
		<path id="Path 34" class="s24" d="m605 457l4-1 8 1v1h-8z"/>
		<path id="Path 35" class="s25" d="m408 461l5-4h7v1z"/>
		<path id="Path 36" class="s26" d="m420 458v-1l9 5v1l-6-1z"/>
		<path id="Path 37" class="s27" d="m603 463v-6h2l4 1v5z"/>
		<path id="Path 38" class="s25" d="m619 458l7-1v2z"/>
		<path id="Path 39" class="s1" d="m626 459v-2l5 2h-2z"/>
		<path id="Path 40" class="s10" d="m408 461l12-3 3 4 6 1v6l-2 8h-4-10l-6-2-1-5 1-9z"/>
		<path id="Path 41" class="s28" d="m455 461l10-3v11l-10-1z"/>
		<path id="Path 42" class="s29" d="m609 463v-5h8 2l7 1h3l1 8-1 4h-4-13v-6z"/>
		<path id="Path 43" class="s14" d="m446 464l9-5-1 2z"/>
		<path id="Path 44" class="s30" d="m495 467v-8h10l2 8z"/>
		<path id="Path 45" class="s31" d="m630 467l-1-8h2 4l2 2v6z"/>
		<path id="Path 46" class="s8" d="m637 461l-2-2 12 3v1h-3z"/>
		<path id="Path 47" class="s8" d="m394 464l7-4 5 1-6 2z"/>
		<path id="Path 48" class="s32" d="m400 463l6-2h1l-1 9h-7l-4-4z"/>
		<path id="Path 49" class="s33" d="m446 464l8-3h1v7l-13-1v-2z"/>
		<path id="Path 50" class="s30" d="m529 467v-6h6v6z"/>
		<path id="Path 51" class="s11" d="m535 467v-6h13l1 14h-14z"/>
		<path id="Path 52" class="s30" d="m549 475l-1-14h3l4 2v12h-3z"/>
		<path id="Path 53" class="s11" d="m573 463l20-2 2 2v13h-8l-2 7h-9-7l-2-8h-12v-12z"/>
		<path id="Path 54" class="s16" d="m637 467v-6l7 2z"/>
		<path id="Path 55" class="s5" d="m429 463v-1h7v1h-2z"/>
		<path id="Path 56" class="s0" d="m436 463v-1l6 2z"/>
		<path id="Path 57" class="s5" d="m647 463v-1l7 2h-1z"/>
		<path id="Path 58" class="s34" d="m394 464l6-1-5 3-8 1h-6v-1l9-2z"/>
		<path id="Path 59" class="s32" d="m429 469v-6h5l8 2v2l-7 2z"/>
		<path id="Path 60" class="s34" d="m442 465l-8-2h2l6 1z"/>
		<path id="Path 61" class="s19" d="m595 476v-13h8 6l3 2v6l-1 8h-8z"/>
		<path id="Path 62" class="s19" d="m637 467l7-4h3l6 1 11 3v1l-3 17v6 8h-18l-4-11h-8v-5l-4-2-2-5v-5h4l1-4z"/>
		<path id="Path 63" class="s35" d="m381 465l9-1-9 2z"/>
		<path id="Path 64" class="s20" d="m442 465v-1h4z"/>
		<path id="Path 65" class="s36" d="m664 467l-11-3h1l12 1v2z"/>
		<path id="Path 66" class="s35" d="m358 467l8-2v2h-7z"/>
		<path id="Path 67" class="s37" d="m366 467v-2h8v1z"/>
		<path id="Path 68" class="s38" d="m374 466v-1h7v1 1h-6z"/>
		<path id="Path 69" class="s39" d="m666 467v-2h8v3h-3-2z"/>
		<path id="Path 70" class="s40" d="m366 467l8-1 1 1-16 2v-2z"/>
		<path id="Path 71" class="s28" d="m387 467l8-1 4 4v3h-12z"/>
		<path id="Path 72" class="s41" d="m338 469l5-2v2z"/>
		<path id="Path 73" class="s42" d="m343 469v-2h9l-1 2z"/>
		<path id="Path 74" class="s18" d="m351 469l1-2h6 1v2h-7z"/>
		<path id="Path 75" class="s10" d="m359 469l16-2h6 6v6l-2 10h-11l-3-10-12 1h-10v-3l3-2z"/>
		<path id="Path 76" class="s30" d="m435 469l7-2 13 1 10 1 2 4v10h-8-12l-2-3-10-1z"/>
		<path id="Path 77" class="s12" d="m493 469l2-2h12l8 2v4l-5 3-17-1z"/>
		<path id="Path 78" class="s12" d="m527 475l2-8h6v8z"/>
		<path id="Path 79" class="s24" d="m664 468v-1h2l3 1z"/>
		<path id="Path 80" class="s42" d="m677 468l8-1v2h-4z"/>
		<path id="Path 81" class="s41" d="m685 469v-2l6 2h-1z"/>
		<path id="Path 82" class="s16" d="m661 485l3-17h5 2v5 10z"/>
		<path id="Path 83" class="s29" d="m671 473v-5h3 3l4 1v1 3z"/>
		<path id="Path 84" class="s1" d="m314 470l8-1v2h-8z"/>
		<path id="Path 85" class="s43" d="m322 471v-2h5v2h-2z"/>
		<path id="Path 86" class="s18" d="m327 471v-2h11l-1 2z"/>
		<path id="Path 87" class="s17" d="m337 471l1-2h5 8 1l-3 2h-6z"/>
		<path id="Path 88" class="s11" d="m427 477l2-8h6v10h-4z"/>
		<path id="Path 89" class="s44" d="m467 473l20-4h6v6l-8 7v7h-6l-1-3-11-3z"/>
		<path id="Path 90" class="s45" d="m681 470v-1h4 5z"/>
		<path id="Path 91" class="s27" d="m681 470l9-1h1 2l4 2v10h-16v-8z"/>
		<path id="Path 92" class="s46" d="m697 471l-4-2 11 1 5 4h-2-2z"/>
		<path id="Path 93" class="s4" d="m291 472l8-2v1z"/>
		<path id="Path 94" class="s14" d="m299 471v-1h9v1h-7z"/>
		<path id="Path 95" class="s6" d="m308 471v-1h6v1h-3z"/>
		<path id="Path 96" class="s16" d="m399 473v-3h7l1 5-8 1z"/>
		<path id="Path 97" class="s47" d="m291 472l8-1h2l-1 2h-9z"/>
		<path id="Path 98" class="s48" d="m300 473l1-2h7 3z"/>
		<path id="Path 99" class="s10" d="m300 473l11-2h3 8 3v8h-10l-20-2-5 3-2-5v-2h1 2z"/>
		<path id="Path 100" class="s16" d="m325 479v-8h2 10 6v8l-10 4z"/>
		<path id="Path 101" class="s19" d="m343 479v-8h6v3 5z"/>
		<path id="Path 102" class="s10" d="m611 479l1-8h13v5l-2 5h-12z"/>
		<path id="Path 103" class="s16" d="m697 481v-10l8 3 1 11-2 4h-7z"/>
		<path id="Path 104" class="s4" d="m273 474l7-2v1z"/>
		<path id="Path 105" class="s5" d="m280 473v-1l9 1h-1z"/>
		<path id="Path 106" class="s34" d="m273 474l7-1-1 2h-6z"/>
		<path id="Path 107" class="s21" d="m279 475l1-2h8v2z"/>
		<path id="Path 108" class="s16" d="m359 474l12-1 3 10-2 3-13 1z"/>
		<path id="Path 109" class="s11" d="m385 483l2-10h12v3 9z"/>
		<path id="Path 110" class="s49" d="m493 475l17 1 5-3 10 2v14l-6 4-16 2h-6l-1-5-11-1v-7z"/>
		<path id="Path 111" class="s19" d="m671 483v-10h10v8z"/>
		<path id="Path 112" class="s35" d="m256 475l5-1v1l-4 1z"/>
		<path id="Path 113" class="s50" d="m261 475v-1h7v1h-4z"/>
		<path id="Path 114" class="s20" d="m268 475v-1h5v1h-3z"/>
		<path id="Path 115" class="s11" d="m349 479v-5h10v13l-6 2-4-2z"/>
		<path id="Path 116" class="s27" d="m706 485l-1-11h2l10 4v7z"/>
		<path id="Path 117" class="s36" d="m717 478l-10-4h2l12 3 3 2h2l1 2z"/>
		<path id="Path 118" class="s35" d="m244 477l5-2v2z"/>
		<path id="Path 119" class="s36" d="m249 477v-2h7l1 1v1h-4z"/>
		<path id="Path 120" class="s51" d="m257 476l4-1h3l-1 2h-1-5z"/>
		<path id="Path 121" class="s52" d="m263 477l1-2h4 2l-1 2z"/>
		<path id="Path 122" class="s19" d="m269 477l1-2h3 6 9l2 5-1 13-8 6v6h-5l-7-8 2-2 6-1 4-5-3-6h-7z"/>
		<path id="Path 123" class="s30" d="m399 476l8-1 6 2 2 12h-6l-2-3-8-1z"/>
		<path id="Path 124" class="s53" d="m525 489v-14h2 8 14 3v5l5 5v8l-18 10-6-2v-6z"/>
		<path id="Path 125" class="s49" d="m557 485l-5-5v-5h3 12l2 8z"/>
		<path id="Path 126" class="s44" d="m585 483l2-7h8l8 3v4l-4 1v3l-14 1z"/>
		<path id="Path 127" class="s28" d="m623 481l2-5 2 5z"/>
		<path id="Path 128" class="s54" d="m236 479l6-2h2 5 4l-12 3z"/>
		<path id="Path 129" class="s19" d="m241 480l12-3h4 5v6l-11 2h-10z"/>
		<path id="Path 130" class="s29" d="m262 483v-6h1 6l2 6v2h-8z"/>
		<path id="Path 131" class="s16" d="m290 480l5-3 20 2v10l4 4v6l2 12-3 4h-3-6l-4-9-22 1-2-2v-6l8-6z"/>
		<path id="Path 132" class="s44" d="m415 489l-2-12h10l-2 12z"/>
		<path id="Path 133" class="s12" d="m421 489l2-12h4l4 2v9l-6 1z"/>
		<path id="Path 134" class="s16" d="m717 485v-7l10 3h1l12 5 17 7-2 14h-6-11l-5-9z"/>
		<path id="Path 135" class="s8" d="m228 481l6-2-4 2z"/>
		<path id="Path 136" class="s55" d="m230 481l4-2h2l5 1v5h-12z"/>
		<path id="Path 137" class="s30" d="m319 493l-4-4v-10h10l8 4v6l-2 2z"/>
		<path id="Path 138" class="s27" d="m333 483l10-4h6v8l-16 2z"/>
		<path id="Path 139" class="s56" d="m431 488v-9h4l10 1 2 3-1 6-13 2z"/>
		<path id="Path 140" class="s12" d="m603 483v-4h8v2 2z"/>
		<path id="Path 141" class="s8" d="m727 481l-1-2 3 1-1 1z"/>
		<path id="Path 142" class="s8" d="m219 482l7-1-6 1z"/>
		<path id="Path 143" class="s46" d="m728 481l1-1 18 7-7-1z"/>
		<path id="Path 144" class="s57" d="m220 482l6-1h2 2l-1 4h-8l-1-2z"/>
		<path id="Path 145" class="s44" d="m611 483v-2h12 4l4 2v5l-16 3v-5z"/>
		<path id="Path 146" class="s11" d="m671 483l10-2h16v8l-4 2v12l-6 2h-6l-7-4-1-9-12-1v-6z"/>
		<path id="Path 147" class="s7" d="m211 483l8-1h1v1h-3z"/>
		<path id="Path 148" class="s51" d="m211 484v-1h6l-3 2h-3z"/>
		<path id="Path 149" class="s55" d="m214 485l3-2h3l1 2v2h-7z"/>
		<path id="Path 150" class="s16" d="m251 485l11-2 1 2v8h-3l-1 10h-6l-2-4z"/>
		<path id="Path 151" class="s31" d="m271 485v-2h7l3 6-4 5-6 1z"/>
		<path id="Path 152" class="s12" d="m359 487l13-1 2-3h11l14 2 8 1 2 3v8l-2 9-5 3v4h-8l-5 4h-5l-7-10h-12l-12-2v-6-10z"/>
		<path id="Path 153" class="s58" d="m446 489l1-6h12v12l-4 1v3h-10z"/>
		<path id="Path 154" class="s56" d="m459 495v-12h8l11 3 1 3 2 15-2 5-14-2v-10z"/>
		<path id="Path 155" class="s56" d="m557 485l12-2h7l4 6 5-1 14-1v2 10l-4 8h-7l-4 4h-9v-4l-6-2-2-9-10-3z"/>
		<path id="Path 156" class="s53" d="m585 488l-5 1-4-6h9z"/>
		<path id="Path 157" class="s49" d="m599 487v-3l4-1h8l4 3v5l-8 2-3-4h-5z"/>
		<path id="Path 158" class="s20" d="m198 485l13-1v1h-2l-8 1h-3z"/>
		<path id="Path 159" class="s35" d="m194 487l4-2v1z"/>
		<path id="Path 160" class="s32" d="m201 486l8-1v4l-9-1z"/>
		<path id="Path 161" class="s59" d="m209 489v-4h2 3v2z"/>
		<path id="Path 162" class="s60" d="m221 487v-2h8 12 10v14h-2-7l-3-6h-7l-1 8-10-4z"/>
		<path id="Path 163" class="s44" d="m263 493v-8h8v10l-2 2z"/>
		<path id="Path 164" class="s11" d="m704 489l2-4h11l16 13 5 9h11v11l-3 1-4-4h-11-10l-10-4v-14l-7-4z"/>
		<path id="Path 165" class="s21" d="m194 487l4-1h3l-1 2-16 4h-1l5-3z"/>
		<path id="Path 166" class="s48" d="m757 493l-17-7 7 1 11 4h2l4 1h2l5 2h3l1 1v1l-6-1z"/>
		<path id="Path 167" class="s29" d="m209 489l5-2h7v10l-1 12-6 1-12-6-7 4-10 3h-2v-16l1-3 16-4z"/>
		<path id="Path 168" class="s61" d="m333 489l16-2 4 2v10h-12l-10-1v-7z"/>
		<path id="Path 169" class="s62" d="m425 489l6-1 2 3 13-2-1 10-2 8 4 2v8l-8 2-6-2-3-7h-5l-2-9z"/>
		<path id="Path 170" class="s63" d="m615 491l16-3h8l4 11-3 4h-7-5l-6 5-16-5-7-4v-10h5l3 4z"/>
		<path id="Path 171" class="s22" d="m173 494l5-4 10-1-5 3z"/>
		<path id="Path 172" class="s62" d="m409 497v-8h6v8z"/>
		<path id="Path 173" class="s58" d="m415 497v-8h6 4l-2 12h-6z"/>
		<path id="Path 174" class="s64" d="m479 509l2-5-2-15h6l11 1 1 5-4 9 4 5h6 4l5-6h7l14-2 6 2 2 14v4l-7 6-13-4-8-8-29 2-2 3-4-1z"/>
		<path id="Path 175" class="s63" d="m519 493l6-4 8 6v6l-14 2z"/>
		<path id="Path 176" class="s44" d="m693 503v-12l4-2h7v4l7 4v14h-2-11l-2-7z"/>
		<path id="Path 177" class="s0" d="m758 491l2-1v1z"/>
		<path id="Path 178" class="s65" d="m760 491v-1l4 2z"/>
		<path id="Path 179" class="s31" d="m319 493l12-2v7l-12 1z"/>
		<path id="Path 180" class="s30" d="m661 499v-8l12 1 1 9z"/>
		<path id="Path 181" class="s57" d="m173 494l10-2h1l-1 3-12 1 1-2z"/>
		<path id="Path 182" class="s31" d="m231 501l1-8h7l3 6-6 4z"/>
		<path id="Path 183" class="s54" d="m259 503l1-10h3l6 4 7 8 1 8-6 4h-6l-2-6-3-3z"/>
		<path id="Path 184" class="s66" d="m503 495l16-2v10h-7l-5 6h-4z"/>
		<path id="Path 185" class="s63" d="m539 503l18-10 10 3 2 9 2 6v9l-6 2-24-5z"/>
		<path id="Path 186" class="s19" d="m755 507l2-14 12 2v8l-6 8h-4z"/>
		<path id="Path 187" class="s22" d="m168 495l4-1-1 2h-3z"/>
		<path id="Path 188" class="s65" d="m775 495l-1-1 5 2h-1z"/>
		<path id="Path 189" class="s50" d="m163 497l5-2v1l-1 1h-2z"/>
		<path id="Path 190" class="s67" d="m171 496l12-1v16l-5 4h-4-12-3l1-14h5l2-4 1-1z"/>
		<path id="Path 191" class="s63" d="m455 499v-3l4-1 6 2v10h-4l-6-1z"/>
		<path id="Path 192" class="s56" d="m503 509h-6l-4-5 4-9h6z"/>
		<path id="Path 193" class="s27" d="m763 511l6-8v-8l6 1h1l1 1 1 8 3 4v6l-10 2z"/>
		<path id="Path 194" class="s68" d="m775 496v-1l3 1h-2z"/>
		<path id="Path 195" class="s17" d="m777 497l-1-1h2 1 2l6 1 7 2 2 10h7 6l-8 2h-6l-2-2v-8l-10-2z"/>
		<path id="Path 196" class="s36" d="m154 499l9-2h2l-5 3-6 1z"/>
		<path id="Path 197" class="s32" d="m160 500l5-3h2l-2 4h-5z"/>
		<path id="Path 198" class="s32" d="m220 509l1-12 10 4 5 2v8l4 2-2 6h-1l-11-2z"/>
		<path id="Path 199" class="s69" d="m407 506l2-9h6l2 4-2 10h-4z"/>
		<path id="Path 200" class="s60" d="m778 505l-1-8 6 2v6z"/>
		<path id="Path 201" class="s60" d="m319 499l12-1 10 1v10l-9 4-11-2z"/>
		<path id="Path 202" class="s50" d="m140 504l14-5v2l-14 4z"/>
		<path id="Path 203" class="s19" d="m236 503l6-4h7v4l-4 2v4l-5 4-4-2z"/>
		<path id="Path 204" class="s70" d="m249 503v-4h2l2 4h-1z"/>
		<path id="Path 205" class="s29" d="m341 509v-10h12v6z"/>
		<path id="Path 206" class="s12" d="m447 509l-4-2 2-8h10v7l-2 3z"/>
		<path id="Path 207" class="s71" d="m595 507l4-8 7 4-1 8h-10z"/>
		<path id="Path 208" class="s62" d="m640 503l3-4h18l13 2 7 4 1 6-3 6-10 1v8l4 3v4h-12-8-1l-3-11-10-4z"/>
		<path id="Path 209" class="s27" d="m783 505v-6l10 2v8h-10z"/>
		<path id="Path 210" class="s59" d="m154 501l6-1v1l-1 14-6 2h-8-14v-7l1-2 3-1 5-2z"/>
		<path id="Path 211" class="s66" d="m415 511l2-10h6l2 9-3 5h-3z"/>
		<path id="Path 212" class="s47" d="m845 502v-1l7 1v1h-3-4z"/>
		<path id="Path 213" class="s71" d="m633 503h7l-1 15 10 4 3 11h-9l-2-5-16-5v-10l8-2z"/>
		<path id="Path 214" class="s38" d="m838 504l6-2h1v1l-2 1h-4z"/>
		<path id="Path 215" class="s5" d="m852 503v-1h2l-1 1z"/>
		<path id="Path 216" class="s2" d="m853 503l1-1 18 7 1 2-8-1z"/>
		<path id="Path 217" class="s72" d="m245 509v-4l4-2h3v6z"/>
		<path id="Path 218" class="s59" d="m252 509v-6h1 6l1 5-1 3-3 2z"/>
		<path id="Path 219" class="s66" d="m605 511l1-8 16 5v4l3 1v10l-14-2v-6z"/>
		<path id="Path 220" class="s73" d="m622 508l6-5h5v8l-8 2-3-1z"/>
		<path id="Path 221" class="s12" d="m687 505l6-2 3 1 2 7-1 2-10-2z"/>
		<path id="Path 222" class="s60" d="m843 504l2-1h4v8h-6z"/>
		<path id="Path 223" class="s61" d="m849 511v-8h3 1l12 7 8 1h1l1 1 2 7v3 2l-1 2h7v7 3l-6 7-14 8-1 1-9 3v-8l6-4v-4h6l4-4v-9l-10-7h-6z"/>
		<path id="Path 224" class="s43" d="m862 551h1v1h-1z"/>
		<path id="Path 225" class="s22" d="m126 509l5-4 9-1v1l-5 2-3 1z"/>
		<path id="Path 226" class="s17" d="m195 508l7-4 12 6 5 9-2 4-11-2-1-10h-10z"/>
		<path id="Path 227" class="s22" d="m824 505l8-1v1l-6 1h-2z"/>
		<path id="Path 228" class="s38" d="m832 505v-1h4l-2 1z"/>
		<path id="Path 229" class="s19" d="m834 505l2-1h2 1v7l-4 8h-14-6l-2-10 8-2 3-1h2z"/>
		<path id="Path 230" class="s29" d="m839 511v-7h4v7z"/>
		<path id="Path 231" class="s10" d="m277 513l-1-8h5l2 2v8z"/>
		<path id="Path 232" class="s74" d="m341 509l12-4 12 2-4 20-10 1h-6l-6 1h-4l-4-12 1-4z"/>
		<path id="Path 233" class="s66" d="m571 511l-2-6 6 2v4z"/>
		<path id="Path 234" class="s74" d="m682 511l-1-6h6v6z"/>
		<path id="Path 235" class="s16" d="m781 509l-3-4h5v4z"/>
		<path id="Path 236" class="s22" d="m813 507l7-2v1z"/>
		<path id="Path 237" class="s20" d="m820 506v-1h4v1l-3 1z"/>
		<path id="Path 238" class="s40" d="m826 506l6-1h2z"/>
		<path id="Path 239" class="s19" d="m283 507l22-1 4 9-6 6-6 2-14-2v-6z"/>
		<path id="Path 240" class="s73" d="m402 513v-4l5-3 4 5v6h-5z"/>
		<path id="Path 241" class="s66" d="m453 509l2-3 6 1v6h-8z"/>
		<path id="Path 242" class="s45" d="m813 507l7-1 1 1-8 2h-4l1-2z"/>
		<path id="Path 243" class="s75" d="m361 527l4-20h12l7 10h5v10l-3 2-12 1z"/>
		<path id="Path 244" class="s76" d="m461 513v-6h4l14 2-1 10h-12z"/>
		<path id="Path 245" class="s66" d="m584 511l4-4h7v4l-11 2z"/>
		<path id="Path 246" class="s10" d="m749 518v-11h6l4 4v12l-2 3h-3z"/>
		<path id="Path 247" class="s39" d="m803 509l7-2-1 2z"/>
		<path id="Path 248" class="s77" d="m126 509l6-1-1 2-7 1 1-2z"/>
		<path id="Path 249" class="s24" d="m185 511l10-3v3l-3 4-7 1z"/>
		<path id="Path 250" class="s78" d="m259 511l1-3 3 3z"/>
		<path id="Path 251" class="s65" d="m109 517l5-5 11-3-1 2-4 2-9 7h-2z"/>
		<path id="Path 252" class="s76" d="m214 510l6-1 6 8v2h-7z"/>
		<path id="Path 253" class="s52" d="m240 513l5-4h7l4 4v9l-3 2v6l4 2 1 9-1 1h-4l-1 3h-5l-2-12v-7l-3-6-4-1z"/>
		<path id="Path 254" class="s76" d="m447 517v-8h6v4l-3 4z"/>
		<path id="Path 255" class="s10" d="m781 515v-6h2 10l2 2v4h-12z"/>
		<path id="Path 256" class="s11" d="m801 511l8-2h4l2 10v6l-2 12-10 2-2-18z"/>
		<path id="Path 257" class="s14" d="m873 511l-1-2 5 3h-2l-1-1z"/>
		<path id="Path 258" class="s79" d="m874 511h1v1h-1z"/>
		<path id="Path 259" class="s80" d="m124 511l7-1v7l-3 2h-3v-4l-5-2z"/>
		<path id="Path 260" class="s73" d="m422 515l3-5h5l3 7z"/>
		<path id="Path 261" class="s57" d="m178 515l5-4h2v5l-6 2z"/>
		<path id="Path 262" class="s40" d="m192 515l3-4h10l1 10-2 1-6 3h-3v-8z"/>
		<path id="Path 263" class="s57" d="m256 513l3-2h4l2 6v8h-6l-3-3z"/>
		<path id="Path 264" class="s33" d="m318 515l3-4 11 2-1 4h-12z"/>
		<path id="Path 265" class="s74" d="m411 517v-6h4l4 4v6h-6z"/>
		<path id="Path 266" class="s69" d="m541 517l24 5 6-2v-9h4 9v2l-1 11-5 6-4 1 1 6v6h-6l-6-7h-12v-7l-10-8z"/>
		<path id="Path 267" class="s64" d="m584 513l11-2h10l6 4v6l-4 4-20 2-4-3z"/>
		<path id="Path 268" class="s58" d="m679 517l3-6h5l10 2 1 14 11 2 2 5 4 1v4h-8l-21-4-5-7z"/>
		<path id="Path 269" class="s63" d="m697 513l1-2h11v8 10l-11-2z"/>
		<path id="Path 270" class="s66" d="m709 519v-8h2l10 4v4z"/>
		<path id="Path 271" class="s16" d="m759 523v-12h4l8 6v6z"/>
		<path id="Path 272" class="s44" d="m795 515v-4h6v10h-6z"/>
		<path id="Path 273" class="s16" d="m835 519l4-8h4 6l4 8v10h-11z"/>
		<path id="Path 274" class="s79" d="m877 519l-2-7h2l2 2v5z"/>
		<path id="Path 275" class="s81" d="m111 520l9-7 5 2v4l-2 8-4 1h-1-2l-5-3z"/>
		<path id="Path 276" class="s82" d="m271 517l6-4 6 2v6 4h-6-5-1z"/>
		<path id="Path 277" class="s83" d="m389 517l5-4h8l4 4-3 10h-14z"/>
		<path id="Path 278" class="s74" d="m450 517l3-4h8l5 6-7 2z"/>
		<path id="Path 279" class="s57" d="m162 515h12l-3 6-4 2-5-1z"/>
		<path id="Path 280" class="s45" d="m153 517l6-2h3v7l5 1v5l4 1 2 6h6l1 10-2 2-19 6h-4v-4l1-2 8-2 7-3-4-4-8-3-2-3-12 3-3-2v-6l3-2 6 1 8 3-5-7z"/>
		<path id="Path 281" class="s21" d="m171 521l3-6h4l1 3v3z"/>
		<path id="Path 282" class="s68" d="m185 516l7-1 3 2v8l-16 1v-5-3z"/>
		<path id="Path 283" class="s74" d="m303 521l6-6h6v4l-3 5h-5z"/>
		<path id="Path 284" class="s62" d="m315 519v-4h3l1 2v2z"/>
		<path id="Path 285" class="s84" d="m419 521v-6h3l11 2 6 2 3 11-3 5-6 1-10-7v-6l-4-1z"/>
		<path id="Path 286" class="s83" d="m482 520l2-3 29-2 8 8 2 14-1 1h-1l-17 1h-13l-1-11z"/>
		<path id="Path 287" class="s69" d="m721 519v-4h10v6z"/>
		<path id="Path 288" class="s66" d="m731 521v-6h11l4 4-3 12-2 2h-10z"/>
		<path id="Path 289" class="s63" d="m771 517l10-2h2v12 2h-12v-6z"/>
		<path id="Path 290" class="s30" d="m783 527v-12h12v6l-2 6z"/>
		<path id="Path 291" class="s17" d="m128 519l3-2h14v8l-3 2v6h-2-1l-8-4h-1v-1l1-5z"/>
		<path id="Path 292" class="s82" d="m145 525v-8h8l1 5-3 4z"/>
		<path id="Path 293" class="s57" d="m226 519v-2l11 2-6 6z"/>
		<path id="Path 294" class="s17" d="m265 525v-8h6v8z"/>
		<path id="Path 295" class="s69" d="m319 519v-2h12l4 12h-10l-4-1z"/>
		<path id="Path 296" class="s85" d="m403 527l3-10h5l2 4h6v1l-8 7z"/>
		<path id="Path 297" class="s45" d="m439 519l8-2h3l9 4 7-2h12l4 1 8 8 1 11h-9l-8 2h-1-3l-9-12-19 1z"/>
		<path id="Path 298" class="s55" d="m673 529l-4-3v-8l10-1 2 11z"/>
		<path id="Path 299" class="s71" d="m746 519l3-1 5 8h3v7l-6 1-8-3z"/>
		<path id="Path 300" class="s70" d="m123 527l2-8h3l3 4-1 5z"/>
		<path id="Path 301" class="s82" d="m217 523l2-4h7l5 6-1 3-13 3z"/>
		<path id="Path 302" class="s51" d="m231 525l6-6h1l4 1 3 6v7h-8l-7-5z"/>
		<path id="Path 303" class="s83" d="m312 524l3-5h4l2 9h-5z"/>
		<path id="Path 304" class="s56" d="m709 529v-10h12l10 2v12l-5 4h-5l-6-2-4-1z"/>
		<path id="Path 305" class="s27" d="m815 525v-6h6v6z"/>
		<path id="Path 306" class="s31" d="m821 525v-6h14l7 10-1 8h-2-10v-8z"/>
		<path id="Path 307" class="s27" d="m853 529v-10h6l10 7v9l-4 4h-6l-2-4h-4z"/>
		<path id="Path 308" class="s37" d="m877 522v-3h2z"/>
		<path id="Path 309" class="s36" d="m109 525v-5h2v5z"/>
		<path id="Path 310" class="s51" d="m167 523l4-2h8v5l-8 3-4-1z"/>
		<path id="Path 311" class="s57" d="m204 522l2-1 11 2v8l-2 2-5 4h-2-5v-6l3-1z"/>
		<path id="Path 312" class="s78" d="m283 525v-4l14 2v5l-4 1h-8z"/>
		<path id="Path 313" class="s17" d="m297 523l6-2 4 3-6 5-4-1z"/>
		<path id="Path 314" class="s75" d="m534 527l7-6 10 8v7l-1 5-4-1h-1l-4-2-6-1-1-4z"/>
		<path id="Path 315" class="s83" d="m607 525l4-4 14 2 16 5 2 5v4h-8l-16-4-12-3z"/>
		<path id="Path 316" class="s12" d="m793 527l2-6h6l2 18h-2l-3-4h-5z"/>
		<path id="Path 317" class="s78" d="m151 526l3-4 5 7z"/>
		<path id="Path 318" class="s74" d="m198 525l6-3 2 8-3 1z"/>
		<path id="Path 319" class="s10" d="m257 532l-4-2v-6l3-2 3 3v7z"/>
		<path id="Path 320" class="s21" d="m403 527l8 2 8-7 4 1v6l-12 6h-12-10l-3-6 3-2z"/>
		<path id="Path 321" class="s85" d="m523 537l-2-14 13 4v6h-8l-1 4z"/>
		<path id="Path 322" class="s64" d="m757 526l2-3h12v6 6h-8l-6-2z"/>
		<path id="Path 323" class="s45" d="m301 529l6-5h5l4 4-1 11h-6l-1-5-7-1z"/>
		<path id="Path 324" class="s75" d="m578 530l5-6 4 3v12h-3l-5-2z"/>
		<path id="Path 325" class="s52" d="m883 526h-7l1-2h4z"/>
		<path id="Path 326" class="s37" d="m883 526l-2-2 3 1v1z"/>
		<path id="Path 327" class="s22" d="m109 527v-2h2l5 3z"/>
		<path id="Path 328" class="s82" d="m179 526l16-1h3l5 6v6l-12 2-12-4h-6l-2-6z"/>
		<path id="Path 329" class="s33" d="m259 532v-7h6 6 1v5l5 1v5l6 2-2 5-16-2v-6z"/>
		<path id="Path 330" class="s57" d="m277 531l-5-1v-5h5z"/>
		<path id="Path 331" class="s17" d="m277 531v-6h6l2 4h8v5l5 1v6l-3 3-4 1h-9l-1-2 2-5-6-2z"/>
		<path id="Path 332" class="s85" d="m587 527l20-2v5l-5 2v8l-15-1z"/>
		<path id="Path 333" class="s19" d="m813 537l2-12h6l8 4v8h-12z"/>
		<path id="Path 334" class="s35" d="m884 526v-1l2 1v2h-1z"/>
		<path id="Path 335" class="s48" d="m883 533v-7h1l1 2v4z"/>
		<path id="Path 336" class="s68" d="m119 528l4-1 7 1v1h-4z"/>
		<path id="Path 337" class="s21" d="m351 528l10-1 13 3-4 7h-8-5l-6-6z"/>
		<path id="Path 338" class="s11" d="m783 529v-2h10v8l-8 2z"/>
		<path id="Path 339" class="s35" d="m126 530l-8-2h1l7 1z"/>
		<path id="Path 340" class="s68" d="m217 531l13-3 7 5v12 8l-4 2h-6l-5 1-19 1v-8l3-3 7-3h7l2 4 9-2v-6l-8-2-3-4h-5z"/>
		<path id="Path 341" class="s68" d="m293 529l4-1 4 1v4l-3 2-5-1z"/>
		<path id="Path 342" class="s21" d="m315 539l1-11h5l4 1v4l-2 6h-4z"/>
		<path id="Path 343" class="s68" d="m325 529h10 4v4l-2 2-12-2z"/>
		<path id="Path 344" class="s21" d="m339 529l6-1v3 2h-6z"/>
		<path id="Path 345" class="s40" d="m345 531v-3h6v3z"/>
		<path id="Path 346" class="s82" d="m673 529l8-1 5 7-1 12h-15v-1l3-3v-10z"/>
		<path id="Path 347" class="s8" d="m885 532v-4h1v6h-1z"/>
		<path id="Path 348" class="s46" d="m126 530v-1h4 1v1z"/>
		<path id="Path 349" class="s43" d="m131 530v-1l8 4-5-1z"/>
		<path id="Path 350" class="s51" d="m374 530l12-1 3 6-8 8-9-2-2-4z"/>
		<path id="Path 351" class="s34" d="m411 535l12-6 10 7 6-1 6 3 1 9-1 1h-6l-10 2h-3l-15 1z"/>
		<path id="Path 352" class="s15" d="m442 530l19-1 9 12-10 4h-3l-11 2-1-9-6-3z"/>
		<path id="Path 353" class="s76" d="m771 535v-6h12l2 8v14l-3 2h-3v-4l-6-2v-4z"/>
		<path id="Path 354" class="s61" d="m841 537l1-8h11v6z"/>
		<path id="Path 355" class="s85" d="m575 537l-1-6 4-1 1 7z"/>
		<path id="Path 356" class="s40" d="m602 540v-8l5-2 12 3-1 10h-3z"/>
		<path id="Path 357" class="s51" d="m345 533v-2h6l6 6-1 2-5 2h-6z"/>
		<path id="Path 358" class="s58" d="m741 533l2-2 8 3v5h-10z"/>
		<path id="Path 359" class="s4" d="m137 536l2-2-5-2 5 1h1v3z"/>
		<path id="Path 360" class="s86" d="m145 535l12-3 2 3v4l-5 3-5 1-4-6z"/>
		<path id="Path 361" class="s80" d="m258 541l-1-9h2l6 3v6z"/>
		<path id="Path 362" class="s43" d="m883 533l2-1v2l-1 3v1h-1v-2z"/>
		<path id="Path 363" class="s87" d="m140 536v-3h2l3 2v2z"/>
		<path id="Path 364" class="s87" d="m210 537l5-4h5l3 4-3 6h-7z"/>
		<path id="Path 365" class="s88" d="m237 545v-12h8l2 12z"/>
		<path id="Path 366" class="s24" d="m298 535l3-2 7 1 1 5-4 2h-7z"/>
		<path id="Path 367" class="s15" d="m323 539l2-6 12 2 2-2h6v8h-16z"/>
		<path id="Path 368" class="s28" d="m525 537l1-4h8l1 4h-7z"/>
		<path id="Path 369" class="s88" d="m618 543l1-10 16 4v7z"/>
		<path id="Path 370" class="s78" d="m643 537v-4h9 1v6h-2-4z"/>
		<path id="Path 371" class="s33" d="m653 539v-6h8v5z"/>
		<path id="Path 372" class="s57" d="m661 538v-5h12v10l-3 3-3-1v-4z"/>
		<path id="Path 373" class="s76" d="m726 537l5-4h10v6l-2 2h-6-5z"/>
		<path id="Path 374" class="s62" d="m751 534l6-1 6 2v8h-2l-10-4z"/>
		<path id="Path 375" class="s4" d="m884 537l1-3h1v3z"/>
		<path id="Path 376" class="s15" d="m159 539v-4l8 3-4 5h-4z"/>
		<path id="Path 377" class="s84" d="m180 545l-1-10 12 4v4z"/>
		<path id="Path 378" class="s34" d="m381 543l8-8h10l1 18h-8-11z"/>
		<path id="Path 379" class="s15" d="m400 553l-1-18h12v16z"/>
		<path id="Path 380" class="s33" d="m685 547l1-12 21 4v10h-15z"/>
		<path id="Path 381" class="s33" d="m715 539v-4l6 2-3 3z"/>
		<path id="Path 382" class="s58" d="m763 543v-8h8l2 8z"/>
		<path id="Path 383" class="s28" d="m785 537l8-2h5l3 4v12h-8-8z"/>
		<path id="Path 384" class="s60" d="m841 537l12-2h4l2 4v4l-6 4v8h-14v-10-8z"/>
		<path id="Path 385" class="s39" d="m128 540l9-4v2l-9 3z"/>
		<path id="Path 386" class="s89" d="m137 538v-2h3l5 1 4 6-2 2h-7-2z"/>
		<path id="Path 387" class="s10" d="m550 541l1-5h12l6 7-1 6-9-4-6-2z"/>
		<path id="Path 388" class="s40" d="m877 543l6-7v2l-1 2-4 3z"/>
		<path id="Path 389" class="s68" d="m191 539l12-2h5l-3 3-14 3z"/>
		<path id="Path 390" class="s90" d="m205 540l3-3h2l3 6-7 3z"/>
		<path id="Path 391" class="s15" d="m220 543l3-6 8 2v6l-9 2z"/>
		<path id="Path 392" class="s34" d="m356 539l1-2h5v6h-3z"/>
		<path id="Path 393" class="s91" d="m362 543v-6h8l2 4 9 2v10h-4-1-11l-1-4z"/>
		<path id="Path 394" class="s13" d="m504 539l17-1-15 1h-1z"/>
		<path id="Path 395" class="s20" d="m522 538l1-1h2 3l1 2h-7z"/>
		<path id="Path 396" class="s92" d="m529 539l-1-2h7l6 1v1z"/>
		<path id="Path 397" class="s33" d="m575 543v-6h4l5 2-1 4-4 1z"/>
		<path id="Path 398" class="s45" d="m635 544v-7h8l4 2 2 5z"/>
		<path id="Path 399" class="s78" d="m718 540l3-3h5l2 4h5v6l-15-1z"/>
		<path id="Path 400" class="s16" d="m803 539l10-2h4v6l-4 3v7h-5-3-2l-2-2v-12z"/>
		<path id="Path 401" class="s27" d="m817 543v-6h12 10v8z"/>
		<path id="Path 402" class="s13" d="m128 541l9-3 1 7-13 1h-6l4-3z"/>
		<path id="Path 403" class="s90" d="m163 543l4-5 4 4-7 3z"/>
		<path id="Path 404" class="s50" d="m506 539l15-1h1v1l-16 1z"/>
		<path id="Path 405" class="s50" d="m541 539v-1l4 2z"/>
		<path id="Path 406" class="s88" d="m653 539l8-1 6 3v4l-16-1v-5z"/>
		<path id="Path 407" class="s4" d="m882 540l1-2h1z"/>
		<path id="Path 408" class="s21" d="m154 542l5-3v4l-4 1z"/>
		<path id="Path 409" class="s34" d="m305 541l4-2h6 4l2 10v6h-16v-8z"/>
		<path id="Path 410" class="s86" d="m321 549l-2-10h4l6 2v8z"/>
		<path id="Path 411" class="s91" d="m351 541l5-2 3 4v4h-8z"/>
		<path id="Path 412" class="s47" d="m474 541l8-2v1 1z"/>
		<path id="Path 413" class="s46" d="m482 540v-1h9 13 1v1z"/>
		<path id="Path 414" class="s65" d="m505 539h1v1h-1z"/>
		<path id="Path 415" class="s55" d="m579 544l4-1 1-4h3l15 1 13 3v15h-11-1-4l-4-1-4-1h-2l-6-1h-2l-2-2z"/>
		<path id="Path 416" class="s15" d="m649 544l-2-5h4v5z"/>
		<path id="Path 417" class="s82" d="m707 549v-10h8l3 1v6l-3 3z"/>
		<path id="Path 418" class="s33" d="m739 541l2-2h10l10 4 2 12-4 1-2 1h-2l-4 1v-8l-3-3h-9z"/>
		<path id="Path 419" class="s8" d="m123 542l5-2v1l-5 2z"/>
		<path id="Path 420" class="s87" d="m191 543l14-3 1 6-3 3-4 1-14 3h-6l-1-6 2-2z"/>
		<path id="Path 421" class="s8" d="m553 544l-7-4 4 1 3 2z"/>
		<path id="Path 422" class="s4" d="m878 543l4-3-4 4z"/>
		<path id="Path 423" class="s54" d="m257 542l1-1h7l16 2 1 2-8 5-10 2h-7l-1-1z"/>
		<path id="Path 424" class="s15" d="m295 544l3-3h7v6h-8z"/>
		<path id="Path 425" class="s87" d="m329 549v-8h16 6v6l-20 2z"/>
		<path id="Path 426" class="s0" d="m460 545l10-4h3v1z"/>
		<path id="Path 427" class="s4" d="m473 542v-1h1 8z"/>
		<path id="Path 428" class="s57" d="m733 547v-6h6v6z"/>
		<path id="Path 429" class="s23" d="m120 555l-6-3v-6l9-4v1l-4 3-2 5 3 2v1z"/>
		<path id="Path 430" class="s68" d="m149 543l5-1 1 2 1 3-1 2h-8v-4z"/>
		<path id="Path 431" class="s15" d="m252 545l1-3h4l-1 9h-3z"/>
		<path id="Path 432" class="s86" d="m155 544l4-1h4l1 2-8 2z"/>
		<path id="Path 433" class="s87" d="m359 547v-4h3l2 6z"/>
		<path id="Path 434" class="s1" d="m553 544v-1l6 2-1 2z"/>
		<path id="Path 435" class="s28" d="m568 549l1-6h6l4 1v9z"/>
		<path id="Path 436" class="s80" d="m615 558v-15h3l17 1h14 2l16 1 3 1v1l-5 7v7h-5-6-2l-10-2-5 1h-1l-5-1h-6-2z"/>
		<path id="Path 437" class="s32" d="m763 555l-2-12h2 10v4 6l-2 2h-5z"/>
		<path id="Path 438" class="s29" d="m813 553v-7l4-3 22 2v10h-2-11-5z"/>
		<path id="Path 439" class="s93" d="m863 551l14-8h1v1l-18 11 2-3z"/>
		<path id="Path 440" class="s13" d="m291 545l4-1 2 3h8v8h-4l-10-2z"/>
		<path id="Path 441" class="s24" d="m125 546l13-1h2l3 4v4l-6 3-13-1-1-2z"/>
		<path id="Path 442" class="s51" d="m143 549l-3-4h7v4z"/>
		<path id="Path 443" class="s40" d="m237 553v-8h10 5l1 6-5 2h-4l-1 1h-2z"/>
		<path id="Path 444" class="s4" d="m243 553h1v1h-1z"/>
		<path id="Path 445" class="s15" d="m274 550l8-5h9v8h-9-6z"/>
		<path id="Path 446" class="s35" d="m446 547l11-2-12 4v-1z"/>
		<path id="Path 447" class="s42" d="m558 547l1-2 9 4 11 4 2 2-10-1z"/>
		<path id="Path 448" class="s57" d="m120 553l-3-2 2-5h6l-2 7z"/>
		<path id="Path 449" class="s59" d="m715 549l3-3 15 1h6 9l3 3v8l-3 2h-1l-32-1z"/>
		<path id="Path 450" class="s91" d="m159 553l19-6 1 6-2 4h-11-7z"/>
		<path id="Path 451" class="s34" d="m331 549l20-2h8l5 2 1 4-1 1-33 1z"/>
		<path id="Path 452" class="s59" d="m665 561v-7l5-7h15l7 2-1 10-2 1-7 1h-7z"/>
		<path id="Path 453" class="s67" d="m773 553v-6l6 2v4h-2z"/>
		<path id="Path 454" class="s22" d="m429 550l10-2v1z"/>
		<path id="Path 455" class="s37" d="m439 549v-1h6v1z"/>
		<path id="Path 456" class="s21" d="m137 556l6-3v-4h4 8v4l-7 4h-6-5z"/>
		<path id="Path 457" class="s40" d="m199 550l4-1v8h-4z"/>
		<path id="Path 458" class="s13" d="m321 555v-6h8 2v6z"/>
		<path id="Path 459" class="s67" d="m691 559l1-10h15 8v10z"/>
		<path id="Path 460" class="s88" d="m185 553l14-3v7h-1-8-5z"/>
		<path id="Path 461" class="s47" d="m264 552l10-2 2 3h-1-10z"/>
		<path id="Path 462" class="s8" d="m411 551l15-1-34 4v-1h8z"/>
		<path id="Path 463" class="s47" d="m248 553l5-2h3l1 1v1z"/>
		<path id="Path 464" class="s26" d="m782 553l3-2h8l1 2h-4l-3 1z"/>
		<path id="Path 465" class="s48" d="m794 553l-1-2h8l2 2h-3z"/>
		<path id="Path 466" class="s43" d="m853 555l9-3-2 3-23 2v-2h2z"/>
		<path id="Path 467" class="s84" d="m120 554v-1h3l1 2z"/>
		<path id="Path 468" class="s34" d="m148 557l7-4h4v4h-10z"/>
		<path id="Path 469" class="s68" d="m177 557l2-4h6v4z"/>
		<path id="Path 470" class="s94" d="m233 555l4-2 4 1z"/>
		<path id="Path 471" class="s14" d="m244 554v-1h4 9z"/>
		<path id="Path 472" class="s4" d="m275 554l-10-1h10z"/>
		<path id="Path 473" class="s8" d="m275 554v-1h1 6v1z"/>
		<path id="Path 474" class="s14" d="m282 554v-1h9l10 2z"/>
		<path id="Path 475" class="s5" d="m364 554l1-1h11v1z"/>
		<path id="Path 476" class="s8" d="m376 553h1v1h-1z"/>
		<path id="Path 477" class="s14" d="m377 554v-1h4 11v1z"/>
		<path id="Path 478" class="s1" d="m771 555l2-2h4z"/>
		<path id="Path 479" class="s5" d="m787 554l-8-1h3z"/>
		<path id="Path 480" class="s5" d="m800 554l-10-1h4 6z"/>
		<path id="Path 481" class="s7" d="m800 554v-1h3 2z"/>
		<path id="Path 482" class="s18" d="m821 555l-13-2h5z"/>
		<path id="Path 483" class="s25" d="m120 555v-1l4 1 13 1v1h-1z"/>
		<path id="Path 484" class="s1" d="m826 555h11v2z"/>
		<path id="Path 485" class="s41" d="m222 556l5-1-5 2z"/>
		<path id="Path 486" class="s26" d="m759 556l4-1h3z"/>
		<path id="Path 487" class="s93" d="m203 557l19-1v1l-23 2-1-2h1z"/>
		<path id="Path 488" class="s22" d="m596 559h-5v-3l4 1z"/>
		<path id="Path 489" class="s35" d="m143 559l-7-2h1 5z"/>
		<path id="Path 490" class="s39" d="m143 559l-1-2h6 1v2z"/>
		<path id="Path 491" class="s93" d="m149 559v-2h10 7v2z"/>
		<path id="Path 492" class="s25" d="m166 559v-2h11 8 5l-1 2z"/>
		<path id="Path 493" class="s37" d="m189 559l1-2h8l1 2z"/>
		<path id="Path 494" class="s36" d="m596 559l-1-2 4 1z"/>
		<path id="Path 495" class="s36" d="m751 558l4-1v2l-7 1z"/>
		<path id="Path 496" class="s22" d="m755 559v-2h2z"/>
		<path id="Path 497" class="s65" d="m610 560l-7-2h1l6 1z"/>
		<path id="Path 498" class="s68" d="m610 559l-6-1h11l8 1h-6z"/>
		<path id="Path 499" class="s50" d="m610 560v-1h7v1z"/>
		<path id="Path 500" class="s46" d="m617 560v-1h6 2v1z"/>
		<path id="Path 501" class="s20" d="m625 560v-1h6v1z"/>
		<path id="Path 502" class="s95" d="m631 560v-1l5 1z"/>
		<path id="Path 503" class="s13" d="m637 560l5-1 1 2h-1z"/>
		<path id="Path 504" class="s21" d="m643 561l-1-2 10 2h-4z"/>
		<path id="Path 505" class="s88" d="m689 560l2-1h24l32 1h-1l-2 1h-3-52z"/>
		<path id="Path 506" class="s65" d="m636 562v-2h1l5 1v1z"/>
		<path id="Path 507" class="s77" d="m682 561l7-1v1h-5z"/>
		<path id="Path 508" class="s35" d="m744 561l2-1h1v2h-3z"/>
		<path id="Path 509" class="s50" d="m642 562v-1h1 5v1z"/>
		<path id="Path 510" class="s46" d="m648 562v-1h4 2v1z"/>
		<path id="Path 511" class="s20" d="m654 562v-1h6v1z"/>
		<path id="Path 512" class="s95" d="m660 562v-1h5 10v1z"/>
		<path id="Path 513" class="s20" d="m675 562v-1h7 2v1z"/>
		<path id="Path 514" class="s46" d="m684 562v-1h5 52v1z"/>
		<path id="Path 515" class="s22" d="m741 562v-1h3v1z"/>
	</g>
</svg>