<svg version="1.2" xmlns="http://www.w3.org/2000/svg" viewBox="0 0 1000 1000" width="1000" height="1000">
	<title>Macrhybopsis (Hybopsis)_aestivalis</title>
	<style>
		.s0 { opacity: 1;fill: #44525a } 
		.s1 { opacity: 1;fill: #525f62 } 
		.s2 { opacity: 1;fill: #3d464a } 
		.s3 { opacity: 1;fill: #997c4d } 
		.s4 { opacity: 1;fill: #9b8f7c } 
		.s5 { opacity: 1;fill: #9d7b42 } 
		.s6 { opacity: 1;fill: #a58f72 } 
		.s7 { opacity: 1;fill: #4d5658 } 
		.s8 { fill: #a2895d } 
		.s9 { opacity: 1;fill: #927541 } 
		.s10 { opacity: 1;fill: #9a8157 } 
		.s11 { opacity: 1;fill: #9a8669 } 
		.s12 { opacity: 1;fill: #9a7337 } 
		.s13 { opacity: 1;fill: #67797e } 
		.s14 { opacity: 1;fill: #9b6837 } 
		.s15 { opacity: 1;fill: #323a3c } 
		.s16 { opacity: 1;fill: #837158 } 
		.s17 { fill: #aa8b56 } 
		.s18 { fill: #b69664 } 
		.s19 { opacity: 1;fill: #616d6c } 
		.s20 { opacity: 1;fill: #906a45 } 
		.s21 { opacity: 1;fill: #888b7c } 
		.s22 { opacity: 1;fill: #b29c7e } 
		.s23 { fill: #c1a36d } 
		.s24 { opacity: 1;fill: #4c5e68 } 
		.s25 { fill: #cbbc9e } 
		.s26 { opacity: 1;fill: #6c6356 } 
		.s27 { opacity: 1;fill: #82603c } 
		.s28 { fill: #c2ab7d } 
		.s29 { fill: #bca990 } 
		.s30 { opacity: 1;fill: #8f5832 } 
		.s31 { opacity: 1;fill: #714d30 } 
		.s32 { fill: #cdb483 } 
		.s33 { opacity: 1;fill: #ddc08d } 
		.s34 { opacity: 1;fill: #2f373b } 
		.s35 { opacity: .9;fill: #4e575b } 
		.s36 { fill: #d4ac66 } 
		.s37 { opacity: 1;fill: #8d7e61 } 
		.s38 { fill: #e3cc9a } 
		.s39 { opacity: 1;fill: #8a8771 } 
		.s40 { fill: #e1d2b5 } 
		.s41 { opacity: 1;fill: #83452a } 
		.s42 { opacity: 1;fill: #a29885 } 
		.s43 { opacity: 1;fill: #777f83 } 
		.s44 { opacity: 1;fill: #474640 } 
		.s45 { fill: #e7e0d3 } 
		.s46 { fill: #c1b1ac } 
		.s47 { opacity: 1;fill: #718d83 } 
		.s48 { opacity: 1;fill: #a49a9b } 
		.s49 { fill: #f1f0eb } 
		.s50 { opacity: 1;fill: #49392b } 
		.s51 { opacity: 1;fill: #5d4130 } 
		.s52 { opacity: 1;fill: #452e20 } 
		.s53 { opacity: .9;fill: #3d4546 } 
		.s54 { opacity: .1;fill: #090709 } 
		.s55 { fill: #d69c40 } 
		.s56 { fill: #cdc8c6 } 
		.s57 { fill: #d5931c } 
		.s58 { opacity: 1;fill: #536168 } 
		.s59 { opacity: .8;fill: #4d5a60 } 
		.s60 { fill: #b07d34 } 
		.s61 { opacity: 1;fill: #2c3135 } 
		.s62 { opacity: 1;fill: #4e6b7d } 
		.s63 { opacity: 1;fill: #4e6375 } 
		.s64 { opacity: .8;fill: #464440 } 
		.s65 { opacity: 1;fill: #61422c } 
		.s66 { opacity: .9;fill: #31383a } 
		.s67 { opacity: .8;fill: #697273 } 
		.s68 { opacity: .8;fill: #736047 } 
		.s69 { opacity: .8;fill: #828c82 } 
		.s70 { opacity: 1;fill: #2b2119 } 
		.s71 { opacity: .6;fill: #404240 } 
		.s72 { opacity: 1;fill: #b1b8af } 
		.s73 { fill: #020405 } 
		.s74 { opacity: .8;fill: #302e2e } 
		.s75 { opacity: .5;fill: #4c585e } 
		.s76 { opacity: .4;fill: #52626d } 
		.s77 { opacity: .5;fill: #7d5f3d } 
		.s78 { opacity: .4;fill: #32363b } 
		.s79 { opacity: .2;fill: #695f48 } 
		.s80 { opacity: .1;fill: #525b6a } 
		.s81 { opacity: .2;fill: #3b4348 } 
		.s82 { opacity: .3;fill: #687c7f } 
		.s83 { opacity: .4;fill: #838e84 } 
		.s84 { opacity: .3;fill: #7f664b } 
		.s85 { opacity: .6;fill: #716e71 } 
		.s86 { opacity: .2;fill: #878f83 } 
		.s87 { fill: #afc0d6 } 
		.s88 { opacity: .5;fill: #939e94 } 
		.s89 { opacity: .1;fill: #15dd0b } 
		.s90 { opacity: .1;fill: #1212de } 
		.s91 { opacity: .1;fill: #1ce7fd } 
		.s92 { opacity: 1;fill: #4e4f85 } 
	</style>
	<g id="Background">
		<path id="Path 0" class="s0" d="m501 380.9v-3h5.8l2 3-1 4.9h-4.4zm19.5 20.5l-1.9-3.5 1-11.2 7.8 0.5 1.9 4.9-2.4 6.8-3.4 2.5zm322.2 34.1l0.5-3.9 3-1.9h4.4l2.9 1.9 1 3.9 3.9 3.9h12.7l1.9 3 9.8 1.9v0.5l-0.5 2.5 3.4 2.9-1.9 0.5-1 2.9-2.5 2v4.3l-1.4 2-6.4 2.9-2.4-1.9h-6.8l-2-3h-2l-0.9-4.8-3.4-3.9h-6.4l-3.4 5.8-2.9 2-12.3 1.4-1.9 2.5-2.9 0.5v10.2l1.9 2v3.4l-2.9 8.3 1.9 2.4-2.9 1h-7.8l-2.9 2.4 0.5 3.5 4.4 1.4 0.4 8.8 7.4 1 0.5 6.3 4.8 3.5h12.2l1-6.4 2.5-2.4 14.1 7.8-2.9 2.4-1 11.7-1 3.5-2.9 2.4v2.4l-13.2 2-1.4-3.9-2-1v-3.4l-5.4-3.4-4.8-6.4-10.3-1.4-1-3.5-6.8-0.4v-4.9l-4.9-2-1.9-2.4-8.3-0.5-1.5 1.9h-2.9l-9.8-0.4-3.9-5.4-1-5.9-10.7-1.9 0.5-15.6 3.9-0.5 3.4-3.5 12.2-1.9 6.3-5.4 0.5-2.4 4.4-2v-3.4l2-1.9 2.9-1.5h6.8 4.9l2-4.9 6.8-1.9h5.4l14.1-3.9 3.9-4.9zm-304.2 111.3l1.5-1v-4.9h5.4l5.4 4.4v3.9l3.4 3.9 5.8 5.4h3.4v10.3l-1.9 1.4h-3.4l-7.3-8.3h-1.5l-0.5-4.9-5.9-4.4zm39.1 30.3l2.4-1.9h4.4l6.4 4.8v4h-3.4l-1.5 2.9h-3.4l-2-2.5 0.5-4.4zm-293.4 4.9v-3.4l1.9-1 11.7 0.5 1 2h6.8v7.8l3.5 2.9h2.9l3.9 3.4 0.5 2.5 5.8 2.9 1.5 4.4-2.9-0.5-15.2 2-7.3-3-1-1.4-6.3-1.5-2.9-1.9-2-4v-6.3l-1.9-2.4z"/>
		<path id="Path 1" class="s1" d="m454.1 390.6h21.5l1.9-2.9v-3.4l3-1 3.9-4.4h4.9l1.9 2h9.8l2.4 4.9-0.5 6.8-2.9 1.5v4.8l-8.8 3.9-3.9 4.9-23.4 2.5h-3.5l-2.4 1.9h-3.9v-1.9zm360.8 42l1.5-0.5 2.9 7.3v11.7l-6.8 2h-6.3l-0.5 4.8h-6.9l-2.9 1.5-2 2v3.4l-4.3 1.9-0.5 2.5-6.4 5.3-12.2 2-3.4 3.4-3.9 0.5-0.5 15.6 0.5 6.9 11.2 0.9 3.9 5.4 9.8 0.5v9.8h-10.3l-3.4 2.4v3.4h-3.4l-7.8-3.9 1.4-7.8-5.8-2.9-6.4-1-5.3-5.9 2.9-19-3.4-2v-9.7l4.4-1.5 5.8-1 1.5-2.9 5.9-0.5 2.4-2.4 0.5-3.9 4.4-1v-3.9l-2.9-2.9-12.3 1.4-1.4 1v3.4h-9.8l-13.7-1.9v-8.3l4.9-1.5h2l16.6-2h1l9.7-1.4 2-0.5h0.5l4.4-1h0.9 1v6.4l2 2.4 20.5-1 4.9-5.8v-7.4zm-15.2 90.9h2l1-2.5 3.9-1.4 0.9-2 6.9 0.5 0.9 3.4v11.7l-1.9 0.5v1.5h-12.7l-1-2zm-448.2 42h4.9l3.9-1.9 1.9 1.9 1.5 2.5-2.5 6.3v5.9l-3.9 8.7-2.4 3-3.9-3.4v-2l-4.9-6.3 1-3.9 3.4-3zm-53.7 12.7l1.5-5.8h14.1l9.3-5.9h3.4l1.5-2h5.3l2 2.5v11.2l-7.3 2h-22-6.8z"/>
		<path id="Path 2" class="s2" d="m503.4 385.8h4.4l1-4.9h9.8l0.9 5.8-0.9 11.3 1.9 3.4v6.8h-3.9l-2-1.9-10.2 0.9-3.4 7.4v3.4l-3.9 4.4v7.8l-6.4-0.5-3.4-0.5-10.2-0.5-2.5-2.9-6.8-1v-5.4l-3.9-4.4v-4.8l23.4-2.5 3.9-4.9 8.8-3.9v-4.8l2.9-1.5zm322.8 104l-2-2.5 3-8.3v-3.4l-2-1.9v-10.3l2.9-0.5 2-2.4 12.2-1.5 2.9-1.9 3.4-5.9h6.4l3.4 3.9 1 4.9h1.9l2 2.9h6.8l2.5 2-20 13.2-14.2 6.3-5.9 3.9zm-0.9 18.1h6.8l1.9-4.9 12.3 5.9-2.5 2.4-1 6.3h-12.2l-4.9-3.4zm-220.2 2.5l7.4-0.5-0.5 6.3-3.5 7.4-21.9-3.5-0.5-4.8 1-2 2.4-1.5zm-76.7 15.2l6.9 0.9 1-2.9h1.9v2.9l6.4 4.9 5.3 3 5.4-1 6.8 4.4-0.5 5.8 6.4 6.4v3.4l-4.4 2v3.4h-3.4l-5.9-5.4-3.4-3.9v-3.9l-5.4-4.4h-5.3-5.4l-1 1.5-3.9-2.5-6.8-8.3 0.9-1.9h3.5v-2.5zm62.5 58.6v-3.9l7.8 2v3.9h-6.9z"/>
		<path id="Path 3" class="s3" d="m356.4 443.4v-8.3l2.5-1v-2.5l14.6 0.5 2.5 3.5h18.5l3 2.4v5.4l-2 1.9v7.8l-1.5 1.5-6.3 0.5-1.5 12.2-2.4 0.5-2-2h-7.8l-2.4-2.9-0.5-5.4-4.4-1-2.4-3.4h-7.9zm50.8 0l0.5-3.9 6.4-1.9h20.5l3.9 0.5 3.4 4.4h14.2l1.4 2.9h6.4l3.9 2.4v6.4l-3.9 1.9h-2l-2.4-2.9h-10.8l-0.5 3.9-7.8-0.5v-1.9l-3.9-1.5-3.4-5.4-23.4-0.5zm125 12.7l3.9-0.9 12.7 0.4 0.9 7.4h-1.4l1 4.8-7.4 1-0.9-1.4-8.8-0.5zm132.8 2.9l4.9-1 6.8 5.9 8.8 0.5 2.9 2.9v3.4l1 11.7v3.9l-12.7 2-2-2h-3.9v-4.8l-1.9-2-5.9-1v-9.7-6.4zm-257.3 4.9l1.5-2.9h5.8l0.5 0.9-2.4 3zm-295.4 6.8v-5.8h6.8v1.9l-2.9 3.9zm54.7 9.8l8.3-6.9 3.4-0.9h3.9v4.8l-2 10.8v4.9h-2.4l-2.5 3.9-3.9-0.5-3.9-5.9-2.4-0.9v-4.4l1.5-1zm30.2 1.4v-3.4h5.9v3.9zm518.5 6.4v-7.8h4l4.3 0.5v2.9l-3.4 4.4z"/>
		<path id="Path 4" class="s4" d="m278.3 443.4l1-6.9h5.4l0.5 11.7-5.9 0.5zm274.4 24.4l1.5-0.4 5.3 1.9 1 1v6.3h-6.8zm38.1 2.5l3.4-0.5 4.4 2.9v11.7h-17.6v-13.6zm-431.6 11.7l2.9-3.4 2.9-0.5 2 2.4v3.9l-1.5 1zm-59.6-2.9l4.9-0.5 2 1.4v10.3l1.9 2 5.4-0.5 4.4-3.5 7.8 2 1 3.9v2.4l-4.9 5.4h-4.4l-5.4 2.5-9.7 11.2h-6.4l-5.3-2v-4.4l5.8-6.3v-8.3l-6.8-2.9-1-3.5 0.5-4.8 1.9-2 8.3 1zm-41 9.3l14.2-0.5 0.5 14.1-3.9 3.9v3.9l-3.9-1.9v-8.3l-2-1.5h-7.3l-1.5-1.4 0.5-3.5 3.4-2.9zm609.4 7.8l0.5-1.9 8.3-2 3.4 2h5.4l2.4 3.9h6.4v5.8h-12.7l-7.3-3.9h-4.9zm40 11.8l3.9-3v-4.9h11.7v2l5.4 4.9v1.9l-4.4 6.9-12.2-1-2.4-2.9h-2zm-587.9 17.5l0.5-8.8 13.2-0.9 1 10.7v3.9h-4.9l-9.8-0.5zm-23.4 5.9l1-7.8h7.8l6.8 1.9v5.9l-13.2 0.5zm393.6-3.9l0.5-3.9h8.3l1.9 1.4 0.5 4.4-7.3 2.5zm-305.2 10.2l-0.5-4.4h7.8l-0.5 5.4zm183.1 16.6l-1.9-2v-2.9l2.9-2.4 7.8 0.9 1.5 4-1.5 0.9h-0.5l-1.4 0.5h-0.5l-2 0.5h-0.4l-2 0.5h-1z"/>
		<path id="Path 5" class="s5" d="m269.5 433.1l3-1.5 1.9 3h2l1.9-3 6.9 0.5-0.5 4.4h-5.4l-1 6.9h-6.8l1-6.9zm194.3 7.4l11.7 0.9 3.4-3.9 7.4 0.5 7.3 9.3h13.7l2.9 2.4 1.4 4.9 2.5 1.5 0.5 9.7-7.3 1-0.5 5.9-6.9 1-1.9-5.9-2-1-20-1v-2.9l-3.9-2.4-1.5-5.4-2.9-1v-6.3l-3.9-2.5zm72.3 5.9l7.8-4.9 1.9-2.9h1l2.4 0.5h0.5v5.3l1.5 2 6.3 1 3.5 4.4h3.9l2.9-2.5h4.9l4.4 2 9.7 0.5 3 2.9 0.9 8.8v6.8l-9.7 0.5-14.2-1 0.5-1.9-2.4-3 1.9-0.4 0.5-3-2.4-2.4-4.4 1.9 1.4 4.4-2.4 2v1.9l-5.4-1.9 0.5-2.5-2.4-2.4-2.5 0.5-0.9-7.3-12.7-0.5zm-187.5 4.9l1.4-7.4 6.4-0.4v9.7h-3.4zm46.8 2v-7.8l2-2h9.8l2.4 3.9 23.4 0.5 3.4 5.4 4 1.4v2l-1.5 6.3h-2.5-13.6-3.4l0.9-4.8-1.4-1.5-3.9 1v3.4h-5.9v-2.9l-3.9-1-2-4.4zm52.8 3.9l0.5-3.9h10.7l2.5 2.9h1.9v8.8h-12.2l-3.4-2.4zm147 7.8l2.9-2 31.7 1.5 5.9 1.4 3.9 3v5.8l-26.4 0.5h-4.4l-2.4-2.9-7.8 0.5-4.4-2.9 1.4-1.5zm107 0l13.2-0.5 2.4 9.3 2 1.9v4.9h-4l-2.9-1.9h-4.9l-6.8-3.9-1-4v-3.4zm-644 17.6l0.5-6.3 5.3-5.4 3-0.5 14.1 0.5 1 0.5-2 2.9-2.9 1v6.8l-1.4 3.4-3 2.5-14.1 0.5zm80.5-2v2.9h-2.9v-2.9z"/>
		<path id="Path 6" class="s6" d="m272.5 427.3l4.8-0.5 1 4.8-1.9 3h-2l-1.9-3zm-50.3 2.5l4.4-1 2.9 6.4-1.5 1.9-4.4-2.4v-3.4zm204.6 44.9l-3.9-5.4v-6.3h13.7v9.7l-3.4 2zm97.6-5.9l2-1.9h5.8l8.8 0.4 1 1.5 7.3-1h3.4l1 8.8v9.8l-11.7 1-6.3-4.4-9.3-1-1-1.5-1.5-6.8zm-140.6-1l2.5-0.5 4.3 3 2 4.4-3.4 5.3-2 1 0.5 5.4v1.9h-7.8l1-11.7 1.4-0.5zm176.8 2.5l6.4-0.5 14.1 0.9v13.7l-5.4 1-3.4 2.9-6.8-0.5v-4.4l-3.4-2.4-1.5-4.4zm-217.8 10.3l-0.9-4.4 1.9-1v-3.4h2.9v8.8zm255.9-7.9l7.8-0.4 2.5 2.9-0.5 3.4 4.4 1.5 0.4-4.9 26.4-0.5 5.9 2v9.7l-6.4 2h-5.8l-4.9-2-24.4 1-3.4-0.5-2-2.4zm-492.2 7.3l2.9-1.5v-4.9h3l0.9 2 3 1 1.9 5.8v5.9l-4.4 3.4-5.3 0.5-2-2zm-26.4 2.5l3.9-2.9v-3h7.9l1.4 2-1.9 1v1.9l-2 2-0.5 4.8h-5.3l-3-1.9zm198.3-2.9l2.9-0.5 1 2.4h3.9l-2.9 5.9h-3l-1.9-2-1.5-1.9zm166 3.9l0.5-2.5 4.4 0.5 2 6.9v1.9h-8.8v-2.4l1.9-1.5zm211 12.7v-9.8h15.6 3.9l1.9 2v3.9l-8.3 1.9-0.4 2zm-250-5.9h3.4l1.4-1.9 10.8 1v4.4l-2 3.4h-8.3l-4.4-1-0.9-2zm-191.4 3.9l1.9-4.3 4.9 0.4v3l-2 1.9h-2.9zm480.5 3.9v-3.9l15.6 2.5 2 3.4v4.9l-4 2.9-8.3-0.5-5.3-3.4zm-195.3 21.5l7.3-2h10.2l5.9 4.9v4.4l-2.9 3.4-7.4 1-10.7-2-0.5-4.4-1.9-1.4zm-187.1 38.5l3.5-3.4h9.7v3.9l-4.9 1z"/>
		<path id="Path 7" class="s7" d="m754.9 459v-3.4l1.4-1 12.3-1.5 2.9 3v3.9l-4.4 0.9-2.5-1.9zm50.8-1l0.5-4.9h6.4l-2 4.9zm-196.8 17.1h4.4l-0.5 4.9-4.4-1.5zm134.3 8.3l3.4-0.5 3.5 2-3 19h-5.8l-2-1v-6.8l3.9-3.9zm44.9 26.4h3l1.4-2 8.3 0.5 2 2.4 4.9 2v4.9l-1 1.9-3.9 1.5-1 2.4h-1.9-4.9l-6.9-3.9zm-527.3 47.4l4.9 1.5 3.9 3.4 5.4 1v1.4l6.3 5.4 4.9 1.9v5.9l-2 1v3.4l-4.8-0.5-4.9-5.4h-6.4l-1.4 1.5-5.4-3.9-2.9-2.4-2.5-4zm72.3 2l5.8-1.5h11.8l0.9 7.8-0.9 7.9-3.5 2.9-0.9 3.9h-7.8l-3.5-2v-11.2l-1.9-2.4z"/>
		<path id="Path 8" class="s8" d="m248.5 459l3.5-0.5v5.9l-4.4 0.4-0.5-5.3zm117.6 8.8v-4.9h5.4l2.5 2.9-0.5 2.9h-3.4zm66.8 6.9l3.5-2h1.9l1 2 0.5 2.9h-4.4zm-356 7.3v-6.8l3-1 3.4 1 0.5 1.5v2.9l-3.9 2.9zm441.4 2.5l6.8-3.9 1 1.4 9.3 1 6.3 4.4v10.7h-13.2l-1 1.5-6.3 0.5v-2l-2.9-1.9zm46.8 3.4l6.9 0.5 3.4-2.9 5.4-1h17.5l2 2.4 3.4 0.5 24.4-1 4.9 2h5.9l6.3-2h9.8v9.8l-4.4 1.9h-10.3l-27.8 1-8.3 3h-15.6l-5.9-4h-19.5v-9.7zm147.5 2.9l2.9-2.4h4.9l2.9 8.3v3.4h-11.7l-2-3.4v-2.5zm-268.5 14.2v-4.9l-2-1.5v-8.3h8.8l2 0.5 2.9 4.9 0.5 8.3-2 2.5 5.4 3.4v3.9l1.9 4.4h4.9v-1.5h5.9v3.9l-2.5 2-0.4 4.8h-7.4l-10.2 5.9-11.7 2v-7.9h8.3l7.3-3.9v-6.8l-5.4-5.9-2.9-4.8zm41-1v-4.9l3.4-2.9h7.3l3-2 0.5 2-3 5.3zm31.3 13.7v-3.9h5.8l3 2v4.8l2.9 1.5v3.4l-1 2-4.9-0.5v-4.4zm-107.4 19.5l0.5-17.5 2-2h5.3 7.8l1 3.9v2l-3.4 1.9-1.5 2.9v6.9z"/>
		<path id="Path 9" class="s9" d="m277.3 426.8l3.5-4.9h5.3 6.9l0.9 1.9h27.4l1 2 12.7-1 2.9 2.9h8.8l1 2h10.7l0.5 1.9v2.5l-2.5 1v8.3l-6.3 0.5-1.5 7.3-1.4 4.4 1.4 0.9h2.5l1.9-3.4h3.4 7.9l2.4 3.4-0.5 6.4v4.9l-3.9 0.5-2.9-2.5h-5.4l-0.5 3.9-6.8 2h-3l-6.3-1-11.7 1-1-2.5h-2.9l-1 4.9-2.9-1-2-2.4-1.9 0.5v-2l-3 0.5-3.4-0.9-1.9-4.4 1.9-2.5-0.5-2.9-4.4 3.4-3.4-0.5-7.3-9.3-3.9-0.9-2.9-3.5-0.5-11.7 0.5-4.4-6.9-0.5zm-41 8.8l2.9-0.9 2 0.4 0.5 5.4 3.9 3.9-1.5 1.5-5.4-0.5-1.4-2.4v-3.9l-2-2.5zm219.8 6.8l1.9-3.4h2l3.9 1.5v4.9h-6.4zm58.1 13.6l16.1-0.9 2 0.9v10.8h-5.9l-1.9 1.9-7.3-0.9-2.5-2zm138.7 20l2.4-7.3h7.8v9.8z"/>
		<path id="Path 10" class="s10" d="m390.6 404.8l4.4-1 2.5 8.3-11.8 2v-7.4zm-165 62.1l4.9-1 1-1.5h1.4l0.5 2.9 3.4 2v2.4l3.9-0.9 1.5 2.9-1.5 1.5-0.4 5.3-2.5 1.5-1.5 1-2.4-1-7.8-1.5zm-34.2 15.6l5.9-0.4 5.8 0.4 2 0.5v1.5l-1 9.8h-2.9l-0.5-1-3.9 1-7.3 1.9-2.5-2.9-1-4.9 0.5-3.4 2.5-2.5zm350.6 4.9l11.7-0.9h7.8l1.9 1.9v9.8 1.9l-21.4-1.9zm-56.7 16.6l11.2-2.5 3-5.3h19l2.9 1.9v2l-0.9 5.8-5.9 0.5v5.4l2 1.9v3.9h-10.3l-7.3 2-3.9-2-15.2 2-2.9-2.9h-4.4l0.5-7.8 8.3-1 2-3.4zm-64.5 31.2v-6.8l1.5-3 3.4-1.9v-2h12.7l1.5 1 0.4 4.9v7.8l-15.6 2z"/>
		<path id="Path 11" class="s11" d="m246.6 444.3l1.9-5.3 4.9 0.5-0.5 2.9 5.9-1v3.9 1h-4.9l-3.9-3.4zm-85.9 8.8v-9.8l4.8 0.5-1.4 3.9 1.4 1.5-0.4 0.9-2.5-0.5 1 3.5-1.5 0.9zm75.2-1.9l3.4-0.5v2h5.4v1.9l3.4 2 0.5 2.4-1.4 0.5 0.4 5.4-1.4 1.4 0.5 3.9v3l-4.4 0.4-1.5-2.9v-1.9h-2.4l-0.5-3-5.4-5.3 1-6.4zm16.1 7.3h1.9l1.5-3.4 2.9-0.5h7.9l-1.5 8.3h5.4l-1 4.9 2.9 2.5-1 2.4 1 2-1 0.9-2.9-3.9-4.4 2.5-1.9-5.4-2.5-0.5-7.3-3.9zm187 4.4l0.5 1.5 2.4-0.5 1 1.4 5.4-2.9 3.4 2.4h12.2l3.9 4.4 4.4-0.4 1-3h2.9l20 1 2 1 1.9 5.8-4.8 1-11.8-0.5-0.9-1.4h-24l-0.9 1.4-5.4 0.5-1-2.9h-2.4l-1 4.4-2.9 0.5-5.4-2-1-1.9h-1.9v-9.8zm276.3 1.5l0.5-1.5h7.8l2.5 1.9h5.3l4 3.5v3.9l1.9 1.4v7.8l-2.9 0.5-10.3-0.9-4.4-0.5v-4.9l-1.9-2zm-208.5 8.3l0.5-5.8 7.3-1 2.4 2 7.4 0.9-0.5 4.9zm138.6 3.9l7.4-0.5 10.2 2.5 5.9 0.9 1.9 2v4.9h-15.6-9.8zm-91.8 9.7v-9.7h6.9l1.4 4.4 3.5 2.4v4.4l-2 0.5-1.9-2zm-435.6 2v-5.9h6.8l4 2 6.8-1h2.9l8.8 1 0.5 1.9-2-0.4-0.4 2.9h-2.5l-1.5 3.4-7.8 0.5-2.9 1.9-3.9-0.4-1-3.9zm558.6 0l12.7-2v2.9l2 0.5 2.9 4.4v3.9h-6.4l-2.4-3.9h-5.4l-3.4-1.9zm-474.1 9.7l-1.5-3.9h3 9.7l2 1v10.2l-6.9 6.4h-4.8l-2-5.9 2-3.4zm521-1.4l3.9-2.5h3.4l4.4 2 0.5 6.8-6.9 3.9-5.3-4.9v-1.9zm-254 30.7l0.5-4.9 2.5-1.9v-3.9h4.4l2.9 2.9 15.1-1.9 3.9 1.9v3.9h-8.3l-0.4 3.9zm-60.6 9.8l11.7-2 3.9 2v9.8l-1.4 2.9-8.3-2-1-0.5-4.9-0.4v-5.9z"/>
		<path id="Path 12" class="s12" d="m385.7 414.1l11.8-2h1.9v6.9l6.9 2.4 3.4 6.3 10.2-0.9 12.7 1.4 2 3v6.3h-20.5l-6.4 2-0.5 3.9h-9.7v-5.4l-3-2.4h-18.5l-2.5-3.5-14.6-0.5-0.5-1.9h-10.7l-1-2 1-7.8h12.7l3.9-3.9h19.5zm-64.5 9.8v-3.9h7.8l4.9 1 1 3.9-12.7 0.9zm138.7 3l1.4-2h6.4l6.8 1 2.5 2.9-0.5 1.5 1.9 1 7.9 0.5 4.3 0.4 25.9 3.5 8.8 0.9 3.9 0.5 1 0.5v17.6l-16.1 1-2.5-1.5-1.4-4.9-3-2.4h-13.6l-7.3-9.3-7.4-0.5-3.4 3.9-11.7-1-3.9-1.4zm-213.9 7.3l3.9-1 3.4-5.3h10.3l1.5-2h5.3l2 1.5v4.4l-2.9 1.4-4.4 2 1.4 6.3 2 1-1 2.9h-8.8v-3.9l1-5.3-2.9-2.5-3 1-0.5 4.9-4.8-0.5zm311.5 13.2l-6.4-1-1.4-2v-5.3h1.4l2.5 0.5 3.9 0.9zm-334 4.9l5.9-1 3.9 3-1 6.3-1 3.9-1 1.5-4.8 1-2-0.5v-9.3zm-41 20.5l3.9-4.9h5.8l2 1v8.3l-2.9 0.5-1-1.5-7.8 1.5z"/>
		<path id="Path 13" class="s13" d="m722.7 525.4l1.9-7.8 13.7 1 1 10.7-9.3-1.5-1.5-0.5-1.9-0.4zm-210.5 5.8l7.3-1 3-3.4 4.8 0.5v2.4h-3.4l-0.9 2 6.8 8.3 3.9 2.4 2.4 4.4-1.4 8.3-1.5 1.5-8.3-7.8-6.3-7.3-2.5-3.9zm-368.6-3.5l14.1-0.4 3.4 2.9 0.5 5.4-3.4-0.5-14.6-3.9zm632.3 13.1l0.5-11.7h6.8l9.3 3.9h7.3l1 2h12.7v3.9l1.9 2.4 13.7 3.4 5.4 4h11.2l1-2h5.9 8.7l3 2-1 8.7-7.8 3.9-1.5 2.5-2.9 0.5h-3.4l-24.4-5.9-7.4-1.9-13.2-4.9-12.6-4.9-5.4-2.9-5.9-1zm-220.7-7.8l0.5-2 3.9 1 5.4 5.4v1l-2.9-1zm-87.4 17.6l0.4-7.4 3.5-0.5 0.9-1.9h8.8l2 1.5 8.3 0.4 5.3 6.9 1 4.9 3.9 4.4v2.4h-0.5l-7.8 2.9h-12.2l1-8.8zm-202.1 7.8l9.7-1.4 1 1.4-1.5 4.4-5.3-0.9zm277.3 7.8l3.4-3.9 2.9-0.5h1.5l7.3 8.3h3.5v2.9l3.4 2.9-4.4 4.4-1.5-0.9-12.2-9.8z"/>
		<path id="Path 14" class="s14" d="m355.5 412.1l4.9-0.5h3.9v4.4l-3.9 3.9h-12.7l-1 7.8h-8.8l-2.9-2.9-1-3.9-4.9-1v-7.8zm-69.3 2l22.4-2h6.9 5.8v7.8 3.9h-27.3l-1-1.9h-6.8zm133.8 12.7l-10.3 1-3.4-6.4-6.9-2.4v-6.9h11.8v6.4l8.3 3.9zm-193.4 1.9l1-0.9 5.8 0.4 3 7.4-1 0.9-5.9-1.4zm303.7 26.3v-17.5h5.9l-1 7.8 1 1v8.7l-3.9 1zm46.9-3.9v-8.3h1.4 2l4.4 0.5 5.8 1 16.2 2.4v5.9l-2.5 2.4-8.3 0.5-2.4 7.8h-3l-0.9-8.8-3-2.9zm-470.7 0l1-7.8h15.6l0.5 4.4-3.4 5.4v4.8l-1 6.9h-6.8l-2-2v-8.3l-1.4-2.9zm44.4 23.4l5.4-5.3 1.9 1.4h6.9v7.3l-3 0.5-2.9 3.5-7.3 1.9-3.4 3.9-0.5-1.5-0.5-1.9-0.5-6.4z"/>
		<path id="Path 15" class="s15" d="m501 418v-3.4l3.4-7.4 10.2-0.9 2 1.9v6.8l-2 1.5v3.4h-7.3l-2.4-1.9zm245.6 55.1l-6.8-3.4 0.4-5.3 2-2h2.9l5.9 3.4v5.9zm-134.3 36.6l9.8-0.5v22l-3.4 1.9-1 3.5h-2.5l-3.9 4.3 1 20.1-1.9 5.3-4 2.5v5.8l-2.4 4.9-5.4 2.5-7.8-2-6.3-4.9h-4.4l-2.5 2-2.9-1-6.8-6.3-4.4-1v-10.3-3.4l4.4-1.9v-3.5l-6.4-6.3 0.5-5.9 2.9 1v-1l-5.3-5.3-3.9-1-0.5 1.9-5.4 1-5.4-2.9-6.3-4.9v-2.9l6.3 0.5 1-2.5h8.3l5.4 3.9h3.4v-1.4l-2.9-1.5 1.4-3.4 8.3-2 9.3 0.5v-2.4h7.3l0.5 4.9 22 3.4 3.4-7.4z"/>
		<path id="Path 16" class="s16" d="m399.9 401.4l5.4-1 6.8 3.9 1 6.8-2 1h-11.7-1.9l-2.5-8.3zm-221.7 19.5l4.4-0.9h2.5 3.4v9.2l-9.8 0.5-1.9-1.4-0.5-6.4 1.5-1zm-15.7 3l2-0.5h0.5 1.9v6.3l-17.6 3.9h-7.3l-0.5 2h-15.6-3.9l-1-3.4 16.1-3.9 1-0.5 2.9-0.5h1.5l5.4-1 4.4-0.5 2.9-0.5 2-0.4 1.4-0.5h0.5l2.5-0.5zm-87 31.2l3-1.9 1.4 2.4 3.9 1.5-2.9 4.9-9.3 1.4-4.9 6.9-2.9 0.4-5.4 5.4-0.4 6.4h-10.3l2-9.3 5.8-6.8 16.1-7.9zm43.5 9.8l1-6.8 8.3 2.4v2.5l2.9 0.9-0.5 2.5-6.8 0.5h-4.9zm604.5-5.9v3.9h-7.8v-3.9zm-558.6 5.9l1.9-0.5v-3.4h7.4l4.3 3.9v7.8l-3.4 0.9-8.3 6.9-1.9-2.5v-7.3zm570.8 38.1l-0.5-6.8h3.9v6.8zm-214.4-2.9l6.4-0.5 1-1.5h13.1l21.5 2v2.9l3.4 2.4 0.5 2.5h2v9.3l-8.3 1.9-1.5-1.5v-3.9l-3.4-1.9h-11.7l-2-2h-6.8l-1.5 3v7.8l2 1v1.9l-1 2.9-6.8-0.9v-3.5l-3-1.4v-4.9l-2.9-2v-4.8l-1.9-3z"/>
		<path id="Path 17" class="s17" d="m112.3 470.7h3.9l2.9-3.9h4.9l1 7.3 10.7 6.4v2.9l-6.8 1-3.9-2h-6.8l-2-5.8-2.9-1-1-2zm179.7-1.9l5.9 0.5v7.8l-5.9 0.5zm-51.8 11.7l4.4-3.9 2.5 3.4 7.8 1 2.9 6.3-3.4 3h-7.3-5.4l-4.4-3.5 0.5-4.8zm-48.8-3l2.9-0.5 2.9 1.5v3.4l-5.8 0.5zm34.1 4.9l0.5-2 7.8 1.5-0.9 6.3h-7.4zm205.1 3.5l3.4-3 3.5 3.5 4.8 1.4v2.5 8.3l2 1.4v4.9l-1.5 1 1 3.9 6.8 1 5.4 5.8v6.9l-7.3 3.9h-8.3l-0.5-4.9-1.5-1v-6.3l2-2-1-3.9-4.4-3.4-14.6-2-1.5-1.9v-4.9l2-3.4v-4.4l8.3-1.5zm20.5 2.5h5.8l1.5-2.5 36.1 0.5 1.5-1.9h22.4v11.7h-19l-0.5-2-2.9 2h-7.3l-3.5 2.9v4.9l-1.9 0.5-2 3.4-8.3 1-0.4 7.8h-5.9l-3.9-3h-2.9v-3.9l1.4-0.4-1-3.5-3.9-1.9-0.5-8.3-2.9-4.9-1.9-0.5z"/>
		<path id="Path 18" class="s18" d="m407.7 463.9l5.4 0.9 2.4-2.9 3.9 1h3.5v6.3l3.9 5.4v3.9l-7.4 0.5-4.8-4.9-4.4-0.5-8.3-0.5-2-1.4 2-5.9zm-109.9 5.4l1.9-2.4h2.5l0.5-2.5h2.9l2 4.4 3.4 1 0.5 10.7-3 3.9-2.9 0.5-2.4-3.4h-3.5l-1.9-4.4zm75.7-0.5l0.5-2.9h7.8l1.9 1.9-1.4 8.3-1.5 0.5h-4.4l-2.4-1.9zm-11.3-0.5l3.9-0.5 3.9 1v5.8l-1.9 5.9h-6.8l-0.5-3.4-3-2 1-1.4 4.9-1.5zm-10.7 22l-1-7.4 1.4-0.4 1 1.9 3.4-1.5 1 1.5 1 5.9zm-104.5 0h7.3l3.4-3 4.9 3.5v5.8l1 5.4v3.4l-2.9 0.5-3-3.9h-5.3l-2.5-2.9-0.5-3.5-2.4-1.4zm-66.4 2.9v-4.9h5.4l0.9 4.9 2.5 2.9-1.5 2-3.4-2.5-3.4-0.9zm40-3l4.9-1.9h7.3l0.5 14.6 2.5 1.5 2.9-2.9 0.5 4.8 4.4 2 1.4 2.4v2.5l-1.9 1.9v6.4 9.7l-11.7-0.4-5.4-5.9v-3.4l2.4-5.9-1.4-1.9-5.9 0.9-2.4 3.5-3.9 0.5-3.5 3.4h-1.9l-2.9-1.5-0.5-4.9-2-1v-2.9h4.9l6.8-6.3v-10.3h3l1.9-1.9zm155.8 2.4l3.4-4.4h7.8l-0.5 5.9h-9.3zm19.1 2.4v-1h9.8l0.9 2 4.4 1h8.3v4.8l1.5 2 14.6 2 4.4 3.4 1 3.9-1.9 1.9v6.4h-12.7l-1-3.9h-7.8v-10.8l-6.9-2.9-13.6-0.5z"/>
		<path id="Path 19" class="s19" d="m405.8 399.4l24.9-8.8v7.8l2.9 1 1 3 2.9 1.9 1 7.8-1 1h-2.9-5.4l-2.4 1.5-5.9-3.5h-7.8l-1-6.8-6.8-3.9zm309.5 51.3l7.4-2h8.8v8.3 2h-7.9-7.8zm59.1 74.7v-3.5l3.4-2.4h10.3l6.8 3.9h4.9v9.8h-7.3l-9.3-3.9h-6.8zm39 9.7v-1.4l2-0.5 10.2 2.9 3.5 3.9v4.9l-13.7-3.4-2-2.5zm-363.3 24l0.5-5.4 2-2.9h15.1l14.7 4.8-1 8.8-10.3-1.4-3.4-0.5h-1.4l-7.4-1.5zm-159.1-0.5l10.2 2 10.8-2.5 8.3 1.5 4.8-1 7.8 0.5v5.4h-5.3l-1.5 1.9h-3.4l-9.3 5.9h-14.1l-1.5 5.9-11.7-0.5v-5.9l-4.9-1.9-6.4-5.4v-1.5l1.5-4.4h2l2.9 1z"/>
		<path id="Path 20" class="s20" d="m235.8 414.6l3.5-0.5h11.7 5.8 24 5.3v7.8h-5.3l-3.5 4.9-4.8 0.5-2-1.5h-5.4l-1.4 1.9h-10.3l-3.4 5.4-3.9 1-2.9-0.5-2 1.5-1.9-0.5 0.9-4.4-2.4-0.5-1.5-2.4-2.9 0.9-5.9-0.5v-11.7l7.4-1.4zm-47.4 5.3l3.4-0.5h1.5 8.8v4.4l-2 0.5v5.4l-11.7-0.5zm-68.8 12.7l1.4-0.5 1 3.4h3.9v7.4l-2.9 0.4h-15.7l-0.9 7.9h-5.4l-1 2.9-7.3-0.5v-6.4l1.9-1.4-0.4-4.9 0.4-1 6.4-2.9 5.4-0.5 4.4-1 2.9-0.9 1.9-1 2-0.5h0.5zm22 2.9l0.4-1.9h7.4v3.9h-7.8zm128.4 10.2l1.4-2.4h6.9l1 5.4-2 1.4h-6.3zm375.4 13.2v-7.8l7.9 1v3.9l-4.9 6.3zm-373.1 2.9l5.9-2.4 1.5 4.4 2.4 1.5v2.9l3.4 2.9-1 3.9 1.5 6.4h-3.9l-1-2.5-2.9 0.5-1.5-2.4 1.5-4.9-6.4-2-2.9-2.4 1-4.9zm-182.6 3.9l12.7-0.9 1.9-2h5.9l1.9 2v5.8 2.9h-2.9v4.9l-2.9 1.5-2-1.5-4.9 0.5-6.3-0.5-1.5-1.9 1-3.9-4.4-2zm88.9 6.8v-7.8h6.8l1 3-3.9 4.8zm510.7 9.8l-1-11.7h11.8l0.9 3.9 6.9 3.9v3.9z"/>
		<path id="Path 21" class="s21" d="m72.8 487.8l2.9-2.4 4.9 0.9 2.9 2h5.4l0.9 3.4 6.9 2.9v8.3l-5.9 6.4v4.4l-4.4 0.5-3.4 3.4h-1.9l-1.5-0.5-10.3-7.3v-3.9l3.9-3.9zm567.9 10.2h10.3l4.4-1.9h12.7l1.4 3.9h4.9l7.3 3.9h12.7l5.4 3.4 8.3 0.5v3.9h-19l-2.5 1.9-8.8-2.9-5.3-1.5-10.3-1.4-15.1 2.4-8.8-0.5-0.5-5.3 2.9-2.5zm-528.3 33.2v-5.8h7.8v4.3l-6.3 1.5zm22.4-1v-3.9l8.8 1.5v3.4h-1.9zm30.2 0l6.9-1 4.8 2h5.9l2 1.9 0.4 4.4-12.2-0.5-7.8-0.9zm258.3 19.5l1.5-2.9h4.9v4.9z"/>
		<path id="Path 22" class="s22" d="m207.5 451.7v-2l2-1 2.4 3.5-3.9 1.4zm-53.2 6.9l3.9 0.4-0.5 7.9-1.5 2.4-5.3 5.4-4.4-3.9 1.9-3.5-1-6.3 3-1h1zm127.9 6.9l2.9-1.5 2.9 3.9 4 1v8.8l-1 3.9h-4.9l-1.5-6.4 1-3.9-3.4-2.9zm87.9 9.3v-5.9h3.4l0.5 5.9zm-52.3-1.5l3 1 0.9-4.9h3l0.9 2.4 11.8-0.9 6.3 0.9v3.4l-1.9 1 0.9 4.4-0.9 2.9 0.9 6.9h-10.2l-2 2.4-7.8 0.5-1-4.9-2.9-4.4 0.5-5.8-1.5-1.5zm39.6 11.2l3.9-3.9h6.8l0.5 4.4 4.4 2 1 5.4h-3.4l-1.5 1.9h-8.3l-2.4-3.9zm33.7 2l0.9-2 7.4 1 2.9 4.9h2.9v3.9h-9.8v-3.9h-2.4zm-219.2 10.2l3.9 0.5 2.4-3.9h2.5l0.4 1.5 3.5 0.9v6.4l-1 3.4-2 1-0.5 4.4 3.5 3.9v2.9l8.8-0.5 4.8 2 1 6.3 2.9 3.9v3.9h-9.7-7.8l-2-1.9h-5.8l-4.9-2-6.9 1h-3.9l-3.4-2.9-14.2 0.5-8.7-1.5-1-10.7h3.9l3.9 3.9h5.9l2.4-4.4 5.4 0.5 6.8 0.4-0.5-3.9 5.4-0.5 3.9-2.4 1-2.9-2.5-2.5 2-0.5zm153.3 58.1l2.9-0.9v-3h10.8v6.9l-5.9 1.4-7.8-0.4z"/>
		<path id="Path 23" class="s23" d="m346.7 471.7l6.8-2 0.5 2h3.4l1.5 1.9-1 1.5-5.4-0.5-0.4 3.4 1.4 2-1.4 1-5.4-0.5zm-76.2 19.5h2.9l2.5-5.4 2.4-0.5 2 2v9.3l-3.9 3.4-4.4-1 0.5-2.4-2 0.5zm80.1 3.9l1-4.9h6.8l2.4 3.9h8.3l1.5-2h3.4l2.5 0.5 1.4 1.5h9.3l8.3 1 1 8.3 13.7 0.5 6.8 2.9v10.7h-5.4l-1.9 2-0.5 17.6v3.9h-10.8l-0.9-2v-9.8l-2-2.9-0.5-6.8-1.4-2h-6.9l-2.9-0.5-2.5-4.8-2.4-0.5h-10.7l-2.5-2h-5.3l-4.4-2.9h-5.4zm-161.1 1l7.3-2v4.9l-5.4 2.9-2.9-0.5-0.5-3.4zm98.6 7.8l0.5-3.9h5.9l3.4 3.9v3.9h-7.8z"/>
		<path id="Path 24" class="s24" d="m854.5 425.8l19-1 8.3 1 3 0.5 1.4 1.9-0.9 3.4-1.5 0.5 1 4.4-1.5 1v4.4l1.5 0.5 0.9 1.5-2.9 0.4-9.8-1.9-1.9-2.9h-12.7l-3.9-3.9-1-4-2.9-1.9v-3.9zm-35.2 13.7h6.4l5.8-3.9h11.3v6.8l-3.9 4.9-14.2 3.9h-5.4zm-44.9 64.4l-11.2-1-0.5-6.8 10.7 2zm41 29.3v-11.8l10.3 1.5 4.9 6.4 5.4 3.4v3.4l1.9 1 1.5 3.9 13.2-2v7.8h-5.9l-1 2h-11.2l-5.4-3.9v-4.9l-3.4-3.9zm-509.8 46.9h22l7.3-2 3.5 2h7.8l4.8 6.3v2l4 3.4-3.5 4.9-9.2 4.8h-4.9l-1.5 3h-2.9l-3-3.9h-4.3l-2 3.4-1.5-4.4-5.8-2.9-0.5-2.5-3.9-3.4h-2.9l-3.5-2.9z"/>
		<path id="Path 25" class="s25" d="m311 469.7l3-0.5v2l1.9-0.5 2 2.4v3.5l1.4 1.4-0.5 5.9 3 4.4 1 4.9-5.4 2.9h-4.9l-3.9-3.9-6.8-0.5-1.5-1.5-0.5-8.8h3.4l2.5 3.5 2.9-0.5 2.9-3.9zm108.4 9.2l-2.4 3.5h-5.9l-1-8.8 4.4 0.5zm-51.2 1.4l1.9-5.8h3.9l2.5 1.9h4.4l-1 11.7-3.4 4.4-2.5-0.5-0.9-5.3-4.4-2zm58.6-1.9v-3.9h6.3l2.4 2.9h4.4l0.5 4.9 3.9 1v2.9l-1.9 1.4-4.9-1.4-3.4-3.4-3.4 2.9-3.5-3.4zm-83.9 11.7l-1-6.8 1-3h3.9l5.3 0.5v1.5l-1.4 0.5 0.9 7.3-0.9 4.9h-4.4l-1-3.4zm25.4 29.3h9.8l0.9-7.9 2.5 0.5 2.4 4.9 2.9 0.5-0.4 5.4-2.5 0.9v13.7l-17.6 1.5-1.9 1.9-4.9 0.5-1-5.3-7.8-4-23.4-0.9 0.5-9.8h7.3l5.4-1.9h20l1.4 1.9h4.4zm-158.2 13.7l9.8-1 1.9 2.9v4.9l3 2 1.4 7.3-12.2-3.4-3.9-1.5zm24.4 18.6l1-8.8h11.7v7.3l1.5 2.9-1 1-10.7-1.5zm90.8-2.9v-3.9l10.3 0.5 4.4 3.4-1 2h-10.8-1.9z"/>
		<path id="Path 26" class="s26" d="m430.7 390.6l21.9-6.3 1.5 6.3v19.6l-15.6 1.9-1-7.8-2.9-1.9-1-3-2.9-1zm279.7 60.6l4.9-0.5 0.5 8.3v3.9l-0.5 1.5-13.2 0.5v-4.9l-5.8-3.4v-3.5l13.2-1.9zm21 7.8v-2l13.6 2v3.4h-2.9l-1.9 2-0.5 5.3 6.8 3.5v9.7l-3.4 0.5h-3.4l-2.5-1.9v-7.9l-1.9-1.4v-3.9l-3.9-3.4zm-640.2 22.4v-1.9l2-1 6.3 0.5v3.4zm-15.6 3.9l1.5-3.4 2.9 0.5 0.5 3.9zm613.8 1v-4h18.5l0.5 4.4 4.4 3.9-2.9 3.5v2.4l-15.7-2.4-2.9-4.4-1.9-0.5zm-153.4 37.1v-2l-1.9-0.9v-7.9l1.5-2.9h6.8l1.9 2h11.8l3.4 1.9v3.9l1.4 1.5-1.4 3.4 2.9 1.5v1.4h-3.4l-5.4-3.9h-8.3l-1 2.5-6.3-0.5z"/>
		<path id="Path 27" class="s27" d="m378.9 408.7l6.8-2v7.4l-1.9 1.9h-19.5v-4.4-0.5h0.9l2-0.4h1l1.9-0.5h3.4l2.5-0.5h0.5zm-49.8 3.4v7.8h-7.9v-7.8zm-110.3 4.4l2.4-0.5h0.5 5.9v11.7l-1 1-4.4 1h-5.4l-2.9-5.9h-11.7v-4.4l0.5-0.5h1l1.9-0.5h0.5l2-0.4h0.4l3-0.5 3.4-0.5 1.9-0.5zm-51.7 13.2l9.8-1.5 1.9 1.5v5.8l-9.8 0.5-1.9 7.8h-1.5l-4.9-0.5-3.4-5.3-7.8-0.5v-3.9zm55.7 6.3l0.9-1.4 4.4 2.4-0.4 2 1.9 1.4v6.4l1.5 1.4-1.5 3-5.9 0.9v-5.3l-1.9-3.9zm-96.7 6.8v-7.3h15.6v1.9 7.8h-6.3l-7.3 2.5v-0.5-3.9zm132.8 3.4v-1h8.8l0.5 1.5 1.9-1 1 4.4h6.3l2-1.5 5.8-0.4 3 3.4 3.9 0.9 7.3 9.3 3.4 0.5v2l-0.5 2.4h-2.4l-2 2.4-5.8-0.4-3.9-1-3-3.9-2.9 1.4-2.4-1.4-1.5-4.4 2.5-3.9-3-1-5.3 3.4v3.9l-2.5 1h-5.4l1.5-8.3h-7.8zm371.1 18.1v-6.9l3.9-3.4v-3.9h3.9l2.9 1 1 7.8-1 2.9-4.9 3.9zm18.6-1.9l4.9-6.4v-3.9l8.8 1 2.9 3.4v2.5l-2 3.4v6.3h-7.8l-0.9-2.9-5.4-0.5zm-252.9-9.3l7.8-0.5 1.9 4.4 3.9 1v2.9l-1.4 3-5.9 1.9-1.9 5.9-5.4 0.5-2 2.4-1.9-4.4-4.4-2.9 1.4-12.2 6.4-0.5zm68.4 2.9l3.9-1.9 2.9 0.9 1.5 5.4 3.9 2.5v2.9h-3l-0.9 2.9-4.4 0.5-3.9-4.4zm207-1.5l17.1-0.4 2.4 4.8 5.9-2.4 5.8 3.4v4.9l-1.9 2.4v3.5h-11.7v-3.5l-3-2.9-8.8-0.5-6.8-5.8zm-304.7 8.3l0.5-6.4 4.4 1 0.5 5.4zm72.7 0l1.5-6.4 7.8 0.5v5.4l-5.3 2.9-1-1.5-2.5 0.5zm-253.4 2v-4.4l2-0.5 2.4 2.9h2.5v4.9h-5.9zm31.2 8.3l2.5-4.4 4.4-2.4 1.9 0.5 0.5 13.6-0.5 2-7.8-1 1-6.8zm491.2 9.3v-4h4.9l2.9 2v7.8l-2.9 2.5-4.4-4zm16.1-1.4l10.3 1-3 3.4-0.5 8.8h-3.4l-3.9 2.4-2.9-8.3 3.4-4.4z"/>
		<path id="Path 28" class="s28" d="m292 477.5l5.9-0.4 1.9 4.3 0.5 8.8 1.5 1.5 6.8 0.5 3.9 3.9h4.9l5.4-2.9 7.8-0.5 1.9-2.5h10.3l2.4 1.5 1 3.4h4.4v11.7l-3.9 4.9h-5.9l-1-1.9h-13.1l-5.9-3.9h-8.8l-4.4 1.9h-9.7v-3.9l-3.5-3.9h-5.8l-0.5 3.9-10.8-1-0.9-2.9 3.9-3.4v-9.3h2.9l2.9-5.9h4.9zm-154.3 38.1l1-6.3 3.4 2.4h4.4l3.4 3.4-2.4 4.4h-5.9zm222.7 3.9v-9.7h5.4l2.4 1.9v7.8l-2 2h-4.4zm-162.1-0.5l2-1 1-2.9 2.9-0.5 1.9 1 0.5 4.9 3 1.4-0.5 3.5-3.4 3.9h-3.5l-2.9-3.9zm185.6 18.5v-13.7l2.4-0.9 0.5-5.4h6.8l1.5 1.9 0.5 6.9 1.9 2.9v9.8h-10.2zm-68.4 17.1v-5.9h9.8l1 2h1.9v2.9l-2.9 1z"/>
		<path id="Path 29" class="s29" d="m162.6 459l-0.5-3.9 5.4 1.9-0.5 3.9v3.5l-2 0.4-2.4-1.4zm68.8 5.4l1-4 5.4 5.4 0.5 2.9h2.4v2l-3.9 1v-2.5l-3.4-1.9-0.5-2.9zm-107.4 2.4l6.8-0.5 1 3.4 5.4 3.4h6.3l2.9-2.4 4.4 3.9-3.9 3.4-5.8 0.5-2.5 2h-2.9l-10.7-6.4zm122.5 3.4l12.2-0.5 0.5-1.4 2.5 0.5 1.9 5.3 4.4-2.4 2.9 3.9-0.5 15.6v5.9l-3.4 1-4.4-1.5v-5.9l-4.8-3.4-3-6.3-7.8-1-2.4-3.4-4.4 3.9 0.5-5.4 1.4-1.4 4.4-0.5zm-164.5 0.9l6.3-0.4 4.4 1.9-1 3.9h-7.8l-0.5-1.5-3.4-0.9zm310.6 3.4l1.9-2.5 5.4-0.4 1.9 1.4 8.3 0.5 1 8.8h5.9l2.4-3.4 7.3-0.5 0.5 3.9 3.5 3.4-1.5 2-8.3 1.4-10.8-0.9-1.4 1.9h-3.4-3l-2.9-4.9-7.3-0.9v-3l-3-1.4zm59.6 0l5.4-0.5 1-1.5h23.9l1 1.5 11.7 0.5 4.9-1 6.8-1 17.1 1 1.5 6.8-6.9 3.9h-22.4l-1.5 2-36.1-0.5-1.5 2.4h-5.9l-1.9-6.8 1.9-1-0.4-3.9zm-250 58.6v-3.9h3.4l0.9 2.9 3.5 1v11.2l-7.4-0.9-0.9-0.5-0.5-1z"/>
		<path id="Path 30" class="s30" d="m411.1 412.1l2-1h7.8l5.9 3.5 0.9 5.3 6.4 1 3.4 1 2.9 4.4 3 1.4 10.7-1.4 5.9 0.5v12.2h-2l-1.9 3.4h-14.2l-3.4-4.4-3.9-0.5v-6.3l-2-3-12.7-1.4-0.5-4.4-8.3-3.9zm-210.9 17.5v-5.3l1.9-0.5h11.8l2.9 5.8h5.4l1.4 1.5v3.4l-0.9 1.5-3.5-0.5-2.9-3.9h-1.9l-1.5 2.9-5.9-0.5-0.9-1.9-4.4-0.5zm-33.2 14.2l1.9-7.9 9.8-0.4v9.2l-6.4 0.5-2.4-1-2 1.5zm42.5 4.9l0.5-2.5 3.9-3.9 1-5.3 3.4 0.9 2 4.9h1.4l2 3.9v5.4 4.9h-8.8l-1-3.9-1.9-1zm-67.9-3.4v-7.8h7.8l7.8 0.5 3.4 5.3v9.8h-5.3v-3.9l-5.9-4.9zm426.3 3.9l0.9-6.8h0.5 5.9 0.5l1.4 0.5v8.3l-4.4-2zm-444.8-5.8l3-0.5 1.9 0.5v3.9l-4.4 0.5zm-22.9 10.7l0.9-2.9h5.4l2.5 0.5 1.4 2.9v8.3h-5.8zm541.5 4.9l-1-7.8h4.9v7.8zm-485.4 10.2l1.5-2.4 0.5-7.8h4.4v4.4l2.4 1.4v5.9h-6.8z"/>
		<path id="Path 31" class="s31" d="m246.6 444.3l3.4-1.4 3.9 3.4h4.9l-0.5 8.3-2.9 0.5-1.5 3.4h-1.9l-3.5 0.5-0.5-2.5-3.4-1.9v-2h-5.3v-1.9l0.9-2.5-1.4-2.9 5.3 0.5 1.5-1.5zm347.2 19.1l2.4-7.8 8.3-0.5 2.5-2.5v-5.8l7.3 0.5h1l5.3 1.9h5.9 1.5l5.8 1v3.9l-3.9 3.4v6.9l-31.7-1.5-3 1.9zm-389.1-10.2l2.9-1.5 0.5 2 3.9-1.5 2 1 0.9 3.9-0.9 5.9h-5.4l-0.5-4.4-3.9-1zm-119.6 3.9l0.4-1.5h4.4l1-1.9h2l7.3 0.5 4.4 8.8-2 1.9-12.7 1-1.9-3.4h-2zm550.8 8.8l4.9-4 1-2.9h3.9l2.9 3.4 0.5 3 5.4 0.5 1 2.9-2.5 7.3-7.3 0.5-5.9-2v-5.8zm-282.2 3.9l0.5-3.9h5.4l2.9 2.4 1.5 3.9-4.9 1.5-1.5-2h-3.4zm-1.5 11.3l1.5-1-1.5-2 0.5-3.4 5.4 0.5 2.9 2 0.5 3.4-3.9 3.9-1-1.5-3.4 1.5-1-2z"/>
		<path id="Path 32" class="s32" d="m196.8 494.1l3.9-0.9 0.5 0.9 1.4 3.9-5.8 1zm110.8 13.7l4.4-2h8.8l5.9 3.9h13.1l1 2h5.9l3.9-4.9h5.4l4.4 2.9v9.8h-20.1l-5.3 2h-7.4l-0.5 9.7-2.4 1-0.5 2.9h-4.9l-2.4-5.8-2.4-4.9-6.9-1zm60.6 11.7v-7.8h10.7l-1 7.8zm-148.4 12.7l0.5-1.9h4.9l1.9 1.9h3.9l0.5-1.4 11.7 0.5h2l1.9 9.7v2h-11.7v-4.4l-2.9-3-10.8-0.4z"/>
		<path id="Path 33" class="s33" d="m184.6 502v-6.4l3.4 2.4 0.5 3.5zm109.4 23.4l3.9-3.9v-13.7h9.7v15.6l-0.5 4.9-1.9 3.9 5.8 4.4 4.4 0.5v11.7 5.9l-3.4 3.4-10.7 2.5-10.3-2 5.9-10.3 1-9.2-1-5.9-2.9-3.9zm-67.9 23.9l-1.5-7.3-2.9-1.9v-4.9l10.7 0.5 3 2.9v4.4l-1 8.8zm21-8.3l16.1-1 3.9-4.4 5.4-0.5 0.5 13.7 5.3 3.4v6.3h-1.9l-1-1.4-9.8 1.4-4.9-1.4-4.3-2.9-5.9 0.4-2-1.4-1.4-3v-7.3z"/>
		<path id="Path 34" class="s34" d="m520.5 408.2h6.4l4.3-2.4 4.9 1.9 4.9 4.9 2.5 10.7 1.9 2.5-1 4.9-13.6-0.5-0.5 4.4-5.4-0.5-7.8-0.5-2-0.5-0.5-13.2v-3.4l2-1.5v-6.8zm78.1 173.8l5.4-2.4 2.4-4.9v-5.9l3.9-2.4 2-5.4-1-20 3.9-4.4h2.5l0.9-3.4 3.5-2 11.7 2 0.5 2-5.4 6.8v1.9l-7.8 6.9v4.4l1.5 1.9v30.3l-5.9 8.8-12.2 1.4-0.5-4.8-5.4-6.9z"/>
		<path id="Path 35" class="s35" d="m491.2 373.1l9.8-3v7.8 3h-9.8l-1.9-2h-4.9v-4.4l1.4-0.5zm351.1 53.7l5.4-0.9h0.5 2.4v3.9h-4.4l-2.9 1.9-0.5 3.9h-11.2l-5.9 3.9h-6.3l-3-7.3 2.5-0.5 8.3-1.9 3.9-1h1zm-575.7 150.9l1.4-1.5h6.4l4.9 5.4 4.9 0.5v2.9l1.9 2.4v6.4l-4.4-1-5.4-5.9-3.9-1.4z"/>
		<path id="Path 36" class="s36" d="m182.6 477.5l7.8-1.4 1 1.4v4.9h-2.4l-2.5 2.5-0.5 3.4h-5.3zm81 24.4h5.9l2.4-2.9 4.4 0.9 1 3 10.7 0.9 2 4h7.8v13.6l-3.9 3.9h-9.8l-2.9 3.9-7.8 3.9-1 2-5.4 0.5-3.9 4.4-16.1 1-1.9-9.8h5.3l3 3.9 9.2-0.5 7.4-10.2 3.9-1 2.4-2.5v-9.2l-1.9-2.5-9.8-1.4-1-2.5z"/>
		<path id="Path 37" class="s37" d="m168 422.9l4.4-1h3.9l0.5 6.3-9.8 1.5v-6.4zm61.5 17.6l5.4-1.4 2.4 3.9 1.5 2.4 1.5 2.9-1 2.5-3.4 0.5-4.9-3-1.5-1.4zm-138.7 0.9l3.5-0.4 0.4 4.8-1.9 1.5v6.4h-2l-0.9 1.9h-4.4l-0.5 1.5h-1l-3.9-1.5-1.5-2.4 4.4-9.8 4.9-0.5zm60.6 11.7h2.9l1 3.4-1 2-2.9 1.5zm572.2 9.7v-3.9h7.8v5.9h-5.3zm-518.6 21.5h3.4l3 3.4h3.4l1-5.9 1.9-0.5 7.8 1v5.9l-4.9 1.9-4.8-0.5-2 4.4h-9.8zm358.4 15.7v-2h19.6l5.8 3.9h15.7l0.4 8.3-15.6 1.5-2.4 1.4-2.5-3.9-7.3-3.4-7.8 2h-2l-0.4-2.5-3.5-2.4zm-46.8 13.7l-2-2v-5.4l5.9-0.5 1.9 3v4.9z"/>
		<path id="Path 38" class="s38" d="m232.9 488.3l1-6.4 2.4 1 1.5-1-0.5 4.9 4.4 3.4 0.5 4.4h-2.5l-0.9 6.9-3 2.9-2.4-1.5zm39.5 46.9l1-2 7.8-3.9 3-3.9h9.7v3.9l3 3.9 0.9 5.9-0.9 9.3-5.9 10.2-9.8 1-2.9-1v-6.3l-5.4-3.4zm43 1.9h2.9l1-1.9h4.9l1 9.7v3.9h-9.8z"/>
		<path id="Path 39" class="s39" d="m165.5 449.2l6.9-2.4 3.9 0.5 9.2 10.2h2v2.5l-2 0.5v4.3h-6.8l-4.4-3.9h-7.3l0.5-3.9h2.4l-0.5-4.4h-3.4l-1-2.4zm-114.2 44.9l-2.9-4.9-0.5-6.8h10.2l0.5 5.9v1.9l-3.4 2.9-0.5 3.5h-1l-1.4-1.5zm553.2 7.8l8.3-2.9 27.8-1v3.9l-2.9 2.4 0.5 5.4h-2.5l-13.6-0.5-9.8 0.5-7.3 0.5zm-35.2 5.9l7.8-2 7.3 3.4 2.5 3.9-1 2h-7.3v2.4l-9.3-0.5zm-128.9 27.4l11.7-2 10.3-5.8h7.3 20.5l3.9 4.4-0.5 2.4-0.5 1-3.4 1-8.3-1-2.9-2h-11.2l-7.9 2-5.8 3.4-1.5 2.4-10.2 2-2.5 3.9h-9.7-4.9v-9.8z"/>
		<path id="Path 40" class="s40" d="m172.4 445.3l6.3-0.5 0.5 3 6.8 2.4 0.5 0.5 1 6.8h-2l-9.2-10.2-3.9-0.5zm267.5 32.2l-0.4-2.9 5.3 1.9 3-0.5 2.9 0.5 0.5 3.9-2 1-4.4-0.5-0.5 2.5-3.9-1zm-243.1 21.5l5.8-1 1.5 4.4-2 3.4 2 5.9v2.9l-2.9 0.5-1 2.9-2 1-4.9-2-8.7 0.5v-2.9l-3.5-3.9 0.5-4.4 2-1 1-3.4 3.9-0.5 2.9 0.5zm-58.1 10.3l-1.5-1.5v-5.9h2.5l4.4 4.9 11.2 1v7.8l-5.4-0.5-3.4-3.4h-4.4zm70.8 12.7h2l3.4-3.4 3.9-0.5 1 3.4h6.3v3.4l5.4 5.9-0.5 1.4h-3.9l-2-1.9h-4.9l-0.4 1.9-9.8 1-3.4-1-1-2.9 3.4-3.9zm97.7 6.4l0.5-4.9 6.8 0.9 2.4 4.9zm17.1 6.9l0.5-3 2.5-0.9 23.4 0.9 7.8 3.9 1 5.4-3.4 3.4h-8.8l-7.3 3.9-4.4-3.4-10.3-0.5z"/>
		<path id="Path 41" class="s41" d="m178.7 429.7l9.8-0.5 11.7 0.5 1.5 1.9 4.4 0.5 0.9 2 5.9 0.5 1.9 2.4-0.9 5.4-3.9 3.9-0.5 2.4-2 1v2l-2.9 1.4-3.9-0.5-1-3.4-3.4-1.4-6.4 1.9v1.5l-3.4-0.5-0.5-0.5-6.8-2.4-0.5-3v-9.2zm-24.4 28.8l1-2-1-3.4h1 5.3l1.5 1v0.9l0.5 3.9h-4.4zm-72.3 4.4l3.9-0.4h2l2 3.4-1.5 4.9-6.4 0.4-0.9-0.4z"/>
		<path id="Path 42" class="s42" d="m233.4 428.2l2.9-0.9 1.5 2.4 2.4 0.5-0.9 4.4-3 1zm-20.5 6.3l1.5-2.9h1.9l3 3.9 3.4 0.5-1 6.8h-1.5l-1.9-4.9-3.4-1zm59.5 27.4v-3.9l5.4-3.4 2.9 0.9-2.4 3.9zm-181.6 51.8l5.3 1.9h6.4l9.7-11.2 5.4-2.4h4.4l4.9-5.4v-2.4l3.9 0.5 1 4.8 5.3 2.5v5.8l1.5 1.5-1 6.3h-3.9l-13.2 1-0.4 8.8h-7.9l-6.8-1.9h-7.8l-1 7.8h-6.3l-0.5-1-3.9-1.5h-0.5l-1.5-0.5-1-0.4-2.4-2.5-0.5-1.9v-2.5l0.5-1.4 0.5-2h1.9l3.5-3.4zm-34.7-12.7v-2.9h7.3l2 1.4v8.3l-7.8-3.4zm135.7 37.6l0.5-5.4h9.8l-1 8.8-8.8-2.9zm167.5 2.9l4.9-0.5 1.9-1.9 17.6-1.5 3.4 1.5h10.3l0.9 1.9h10.8v5.9l-3.4 0.5h-2l-2.9 0.5-11.3 2.9-1.9 0.5h-1l-3.9 0.5h-0.5-3.9l-1.4-3.9-7.9-1-2.9 2.4v3l2 1.9-2 0.5h-0.5l-8.3 1-1.9 1.9h-4.9-11.7v-6.8l0.9-2 7.4-3.9h8.8z"/>
		<path id="Path 43" class="s43" d="m724.6 515.6l4.4-6.8 3.4 2.4 8.8 2.5 9.8 4.4 4.9 0.5 2.9 2.9h4.4l7.8 3.9h3.4l2 3.9-0.5 11.7-9.3-1.9-10.7-4.4-8.3-1.5-8.3-3.9-1-10.7-13.7-1zm-294.9 31.2h9.8l2.4-3.9 10.2-1.9 1.5-2.5 5.9-3.4 7.8-1.9h11.2l2.9 1.9v5.9h-8.7l-1 1.9-3.4 0.5-0.5 7.3h-15.2l-1.9 3-0.5 5.3-20.5-7.3z"/>
		<path id="Path 44" class="s44" d="m438.5 412.1l15.6-1.9v1.9h3.9l2.4-1.9h3.5v4.8l3.9 4.4v5.4h-6.4l-1.4 2-5.9-0.5-1-5.9-7.8-1.9-1-1.5h-5.8l-1-3.9zm306.6 50.3v-3.4h9.8 9.8l2.4 1.9-0.5 3.9-2.4 2.5-5.9 0.5-1.4 2.9-5.9 1v-5.9zm-10.7 19.5l2.9-0.5 2.4 2h3.4v8.8l-3.9 3.9h-3.9l-4.4-2 0.5-8.8zm6.9 31.8v-9.8h5.8l5.4 5.9 6.3 1 5.9 2.9-1.5 7.8h-4.4l-2.9-2.9-4.9-0.5z"/>
		<path id="Path 45" class="s45" d="m162.1 454.1l1.5-1-1-3.4 2.4 0.5 1 2.4h3.4l0.5 4.4h-2.4l-5.4-1.9zm-31.2 40.5l2.9-1.9 7.8-0.5 1.5-3.5h2.4l0.5-2.9 1.9 0.5 0.5 1.5 3.5 1.9-1 3.4h-4.4l-5.9 2.5-1 6.3h-2.4l-5.4-2.4zm132.8 7.3l-0.9-5.4 4.4 1.5 3.4-1 1.9-0.5-0.5 2.5-2.4 2.9zm-108.4 5.9l3.4-0.5 2-2.5 8.8-0.9 2.4 2.4-1 2.9-3.9 2.5-5.3 0.5 0.4 3.9-6.8-0.5zm295.4 2.9l-6.8-1-1-3.9 1.5-0.9 3.4 0.9zm-231.9 7.4l2.4-3.5 5.9-0.9 1.4 1.9-2.4 5.9h-6.4zm248.1-1.5v1.5h-4.9l-2-4.4h3zm-151.4 20.5l-4.4-0.5-5.8-4.4 1.9-3.9 9.8 1 2.4 5.8-1 2z"/>
		<path id="Path 46" class="s46" d="m267.6 445.3l1-2.9-2-1-1.5-6.3 4.4-2 3 3.4-1 6.9-1.5 2.4-1.9 1zm-20.1 19.5l4.4-0.5 7.4 3.9-0.5 1.5-12.2 0.5-0.5-3.9zm24.4 9.7l-1-1.9 1-2.5 6.3 2-1.4 4.9-2.5-2.5zm175.8 1.5l1-4.4h2.4l1 2.9-1.5 2zm-299.3 11.7l3.4-3.9 7.4-1.9 6.3 3.4v4.4l-3.9 1.9-0.5 2.5-3.9-3.5-3.4 0.5v3.4l-2.9-1.4 0.9-3.4zm239.3 0.5v-2h3.4l2 3.9h2.4v3.9 1l-8.3-1z"/>
		<path id="Path 47" class="s47" d="m686.5 513.7l2.5-2h19 2l2.4 2.9 12.2 1v2l-1.9 7.8-7.4-2-12.2-3.4-1.4-0.5-2-0.5-0.5-0.4-1-1h-2.4-0.5l-1-0.5-1.9-0.5-2-1zm-524.9 22l-0.5-5.4h3.9v5.9zm-71.2-2.9v-1.5h6.3l2.4 0.5-2.9 8.3h-4.4l-1-1.5-0.4-4.9z"/>
		<path id="Path 48" class="s48" d="m186.5 450.7l3.4 0.5v-1.5l6.4-1.9 3.4 1.4 1 3.4 3.9 0.5-0.5 4.4-1.5-1-4.4 1-0.4 2.5-4.4 0.9-1 2h-2.5l-2.4-2.9v-2.5z"/>
		<path id="Path 49" class="s49" d="m150.9 493.2l2.9 1.4v-3.4l3.4-0.5 3.9 3.4 0.5-2.4 3.9-2 2.5 1 3.9 5.9-0.5 6.8-2 0.5-8.8 1-1.9 2.4-3.4 0.5-11.3-1-4.4-4.8 1-6.4 5.9-2.4z"/>
		<path id="Path 50" class="s50" d="m434.1 420.9l0.5-7.8h2.9l1 3.9h5.8l1 1.5 7.8 1.9 1 5.9-10.7 1.4-3-1.4-2.9-4.4zm-282.7 32.2l-2-1.9v-6.9l5.9 4.9v3.9h-1zm201.7 0l-2 3.4h-2.4l-1.5-1 1.5-4.3zm376 53.7l6.8-3.9h3.4l2 0.9v9.8l-8.8-2.4-3.4-2.5z"/>
		<path id="Path 51" class="s51" d="m426.8 414.6l2.4-1.5h5.4l-0.5 7.8-6.4-1zm-303.2 33.2l4.4-0.5v0.5 4.4l2.4 4.9-1.9 3.4-8.3-2.4v-4.9zm79.6 30.8l1.4-1.5v-3.4l-2.4-0.5v-1.5l2.4-1.4 4.9 3.4v2.4l7.4-2.9 1.9 1.5-1 6.8-1.9 0.5-1 5.8h-3.4l-2.9-3.4h-3.5v-1.4l-1.9-0.5z"/>
		<path id="Path 52" class="s52" d="m141.6 445.3l7.8-1v6.9l2 1.9v6.9h-1l-4.4-6.4-5.9-1-6.8 1.5-2.9 2.9-2.5-4.8v-4.4l7.4-2.5zm273.4 15.6v-3.4l3.9-1 1.5 1.5-1 4.9-3.9-1zm144.5 8.3v-1.9l2.5-2-1.5-4.4 4.4-1.9 2.4 2.4-0.5 2.9-1.9 0.5 2.4 3-0.5 1.9-6.3 0.5z"/>
		<path id="Path 53" class="s53" d="m501 370.1l11.2-1.9h11.7l7.4 4.4 0.9 2.9-0.9 2.4 1.4 7.9-1.4 4.8-2 1.5-2-4.9-7.8-0.5-0.9-5.8h-9.8l-2-3h-5.8zm19.5 31.3h2.9l3.5-2.5 4.4 6.9-4.4 2.4h-6.4zm-23.4 28.8v-7.8l3.9-4.4h3.9l2.4 2h7.3l0.5 13.2zm320.3 67.8l2-1h2.4l12.3 5.9-2 4.9h-6.8l-7.4-1zm-283.7 44.4l1-1.4h5.4v4.9l-1.5 0.9h-2.4zm52.2 44.5l1.5-3h3.4l1 2h6.8l5.4 6.8 0.5 4.9-11.2-1.5-5.4-1.9v-4.4z"/>
		<path id="Path 54" class="s54" d="m812.5 493.2l8.8-1.5 0.5 5.4h-2.5l-6.3-0.5zm-167 20.5l6.3-2.5v5.9l-5.3 5.4-9.8 6.8h-2.9l0.5-4.9 2.4-3.9zm-91.3 65.9v-2.9l4.9 2.9 1.4 1 12.3 7.8 0.9 1.5-0.9 2.4-8.3-3.9z"/>
		<path id="Path 55" class="s55" d="m243.2 521.5h15.6l4.4-4.4 1.4-9.3 9.8 1.5 2 2.4v9.3l-2.5 2.4-3.9 1-7.3 10.3-9.3 0.5-2.9-4h-5.4-1.9z"/>
		<path id="Path 56" class="s56" d="m241.2 435.1l2-1.5 2.9 0.5 2.4 4.9-1.9 5.3h-1l-3.9-3.9zm-75.7 14.2l-1.4-1.5 1.4-3.9h1.5l1 2 1.9-1.5 2.5 1v1.5zm63.9 1.9l1.5-2.9 4.9 2.9-2.5 2.9zm73.3 11.3l4.4-3.5 0.4 3-1.9 2.4h-2.9zm-31.8 13.2l1-1h2.4l2.5 2.5 1.5 2.4-1.5 3.9 1.5 2-2.5 0.5-2.4 5.3h-3zm116.7 10.8l-0.5-5.4 2-1 2.9 1.5v2.9l-0.9 2z"/>
		<path id="Path 57" class="s57" d="m242.2 494.6l4.9-0.5 2.4 1.5 0.5 3.4 2.4 3h5.4l2.9 3.9 3-0.5 0.9 2.4-1.4 9.3-4.4 4.4h-15.6v-6.4l1.9-1.9v-2.5l-1.4-2.4-4.4-2-0.5-4.8 0.9-6.9z"/>
		<path id="Path 58" class="s58" d="m452.6 384.3l31.8-9.8v4.4l-3.9 4.4-3 1v3.4l-1.9 2.9h-21.5zm343.8 53.3l5.3-0.5v7.3l-4.9 5.8-20.5 1-1.9-2.4v-6.4l1-0.5h0.4l3.5-0.4h0.9l7.9-1.5 4.8-1.5zm-445.8 120.1h4.9l4.9 5.9-3.9 1.9h-4.9z"/>
		<path id="Path 59" class="s59" d="m863.3 557.6l1-8.8 2.4 0.5 2.9 2.5v3.9z"/>
		<path id="Path 60" class="s60" d="m130.4 457l2.9-2.9 6.8-1.5 5.9 1 4.4 6.4-2.9 0.9-4.4-4.4-5.9-0.4-3.4 2.9-2.5 4.9-2.9-1v-2.4zm62 5.8l1-1.9 4.4-1 0.5-2.5 4.4-0.9 1.4 0.9 4 1 0.4 4.4h5.4l1-5.8h8.8v9.2l-4.4 2.5-2.5 4.4-7.3 2.9v-2.4l-4.9-3.5-2.4 1.5v1.5l2.4 0.5v3.4l-1.4 1.4h-5.9l-2.9-1.4v-8.3l-2-1zm-53.7 17.6l2.5-2 5.8-0.5 0.5 6.4-8.8-1zm103.5 14.2l-0.5-4.4h5.4v3.9z"/>
		<path id="Path 61" class="s61" d="m622.1 509.3l13.6 0.5 1 10.7-2.4 3.9-0.5 4.9v3.9l-11.7-2z"/>
		<path id="Path 62" class="s62" d="m533.2 556.6l1.5-1.4 1.4-8.3h2.5l4.4 5.8 5.8 4.4 0.5 4.9-2.9 0.5-3.4 3.9zm27.3 23.9l4.4-4.4 7.8 5.4 7.8 2.9 2 2.5h3.4l2 2.9v4.4l-15.2-5.9z"/>
		<path id="Path 63" class="s63" d="m852.5 539.1v-2.5l3-2.4 0.9-3.4 1-11.8 3-2.4 6.3 5.9 1.5 5.3-0.5 2 2.9 2.9-2.4 1.5-0.5 1.9 1.4 1-5.8 2.4 1.9 3.5h3l0.5 2.9-7.4-1v2h-8.8z"/>
		<path id="Path 64" class="s64" d="m688.5 453.6l4.9-0.5h2.9v3.4l-5.9 2.5-2.4-4.9zm-440.9 100.6l0.9-1 2 1.5 5.9-0.5 4.4 2.9-4.9 10.3-2-3-2.9-6.8z"/>
		<path id="Path 65" class="s65" d="m557.6 447.3v-6.9h2l2.4 0.5h0.5l2.4 0.5h0.5l3.4 1-0.9 6.8-3 2.5h-3.9zm-490.7 22.9l4.9-6.8 9.3-1.5 0.9 1-0.9 7.8z"/>
		<path id="Path 66" class="s66" d="m530.3 434.6l0.5-4.4 13.6 0.5-3.4 4.9h-10.2zm31.2 135.7l2-1.5 4.4 1 6.8 6.3 2.9 1 3.4 2.9-0.4 4.4-7.9-2.9-7.8-5.4-3.4-2.9z"/>
		<path id="Path 67" class="s67" d="m83 443.4l1-2 3.9 1.5zm398.4 97.6v-5.8l8.3 0.9-0.9 3 2.9 3.9-8.3-0.5z"/>
		<path id="Path 68" class="s68" d="m536.1 446.3l-0.9-1 0.9-7.8 7.4 1h2.4l-2 2.9zm129 12.7v-2.4l-3-3.5h3.4 1.5l3.9 1.5-1 3.4z"/>
		<path id="Path 69" class="s69" d="m83 545.9l7.3-7.3h0.5l1 1.4h4.4l-3.4 4.4-7.8 3.4h-1.5z"/>
		<path id="Path 70" class="s70" d="m549.8 462.9l2.4-0.5 2.5 2.4-0.5 2.5-1.5 0.5h-3.4l-1-4.9zm41.1 7.3v-6.8h2.9l1.5 1.4 0.4 3.5-1.4 1.4z"/>
		<path id="Path 71" class="s71" d="m525.4 436.5l-0.5-2.4 5.4 0.5 0.5 1-1.5 1.4zm-201.7 167.5l2-3.4h4.4l2.9 3.9h2.9v0.9l-10.7 1.5-4.4-2.4v-1z"/>
		<path id="Path 72" class="s72" d="m253.4 439.5l0.5-4.9 2.9-1 3 2.4-1 5.4-5.9 1zm-25.4-2.5l1.5-1.9 5.9 1.5 1.9 2.4v3.9l-2.4-3.9-5.4 1.5-1.9-1.5z"/>
		<path id="Path 73" class="s73" d="m131.3 463.9l2.5-4.9 3.4-2.9 5.9 0.4 4.4 4.4 0.9 6.4-1.9 3.4-2.9 2.4h-6.4l-5.4-3.4-0.9-3.4z"/>
		<path id="Path 74" class="s74" d="m81.1 461.9l2.9-4.9h1l0.9 5.4-3.9 0.5zm555.7 58.6l-1-10.8h2.5l8.7 0.5-1.4 3.4z"/>
		<path id="Path 75" class="s75" d="m855 424.8l18.5-0.5v0.5l-19 1zm30.3 6.8l0.9-3.4-1.4-1.9 5.3 3.9-0.4 1.4h-3zm-105 9.8l7.9-2v0.5zm32.2 51.8l2.9-2.5h7.8l-1.9 1zm-455.1 95.7l3.9-8.8v-5.8l2.4-6.4v15.1l-2.4 1.5-1.5 4.4z"/>
		<path id="Path 76" class="s76" d="m818.8 431.6l7.9-1.9h0.4zm-22.4 5.9l18.5-4.9-13.1 4.4zm-8.3 1.9l4.8-1-4.8 1.5zm94.7 14.2l1-3 1.9-0.5-3.4-2.9 0.5-2.4 1 2.9 4.4 2zm-172.4-2.5l11.2-2.9 14.7-1-4.9 1.5h-8.8l-7.3 1.9zm157.7 83l2.4-1.4-2.9-3 0.5-1.9 1 2.4 5.8 1v1.5zm0 8.8v-0.5l3.4 1.4v1.5l-7.8 1 3 2.9-2.5-0.5-2.9-1.9v-2l7.3 1zm-569.8 59.5l-4.4-0.4-2.9-2.5 6.3 1.5z"/>
		<path id="Path 77" class="s77" d="m281.7 412.6l26.9-0.5-22.5 2h-5.3zm204.6 19l-7.9-0.5-1.9-1 0.5-1.4 10.2 0.5zm4.4 0.5v-2.5l6.4 0.5 18 2.9 2 0.5-0.5 2zm78.1 10.2l-3.4-0.9h3.4l0.5 0.9zm102.1 12.2l-3.9-1.4 21.4 0.5-0.4 0.4z"/>
		<path id="Path 78" class="s78" d="m532.7 385.8l-1.5-7.9 1-2.4 1.5 3.4zm-16.1 49.8l0.5-1.9 7.8 0.5 0.5 2.4zm12.7 1.5l1.4-1.5h10.3l-0.5 1.5 2.9 1.4-7.3-1h-5.9zm-447.2 4.4l2.9-2.9h4.4l2.4 2-0.9 0.9-3 1.5-3.9-1.5zm735.4 56.7l-4.4-1.5 6.3 0.5z"/>
		<path id="Path 79" fill-rule="evenodd" class="s79" d="m360.4 411.6l3.9-0.5v0.5zm-109.4 2.5l5.8-0.5v0.5zm-29.3 1.9l13.2-1.4-7.3 1.4zm347.7 26.4l-0.5-1 6.3 1zm7.8 0.5l-1.4-0.5 2.9 0.5zm49.3 6.3h-5.8l-5.4-1.9zm14.1 1.9l-2.9-1 27.8 3h-3.4l-8.8-1-7.8-1zm52.8 2l16.1-2-13.2 2z"/>
		<path id="Path 80" class="s80" d="m873.5 424.8v-0.5l8.3 1.5zm-25.4 1l6.9-1-0.5 1h-3.9zm36.6 16.6l-1.5-0.5v-4.4l1.5-1-1-4.4 1.5-0.5h1.5l-2.5 1 2 2.9-2 2zm-111.3 0l1.9-0.5-0.9 0.5zm94.7 100.6h-2.9l-2-3.5 5.9-2.4 1.4 1-1.4 1-4.9 0.4 0.5 2 3.4 1zm-512.7 14.6l2-1.9 8.3-1-0.5 1.5h-4.4l-3.9 1.4 3.9 4.4 1.4 3.4-1.9-1.9zm195.3 18.5l-3.9-2.9 1-1.5-2-1.9h1l12.2 9.7-4.9-2.9-2.4-2.4v2.9h-0.5z"/>
		<path id="Path 81" class="s81" d="m826.7 429.7l4.4-1-4 1zm-340.3 1.9l1-2.4 3.4 0.5v2.4zm59.6 138.2l-7.3-5.4-7.9-9.2-3.9-2.5-1.9-3.9 8.3 7.8 9.8 9.8 3.9 3.4zm-191 22l2.5-3h2.4l-2.4 1.5-1 3.9-3.9 2-2 2.9-14.6 6.3v-0.9l1.5-3h4.8l9.3-4.8zm-49.3 13.6l15.1-1.9v1l-9.7 1.9z"/>
		<path id="Path 82" fill-rule="evenodd" class="s82" d="m647 510.3l15.1-2.5 10.3 1.5v0.5l-9.3-1-11.2 2.4-6.4 2.5zm43.5 5.8v-0.5l1.9 1zm7.8 2.5l-2.4-1h2.4zm31.8 9.3l9.2 1.4 8.3 3.9zm-588.3 3.9v-0.5h1.9l14.7 4zm348.1 4.3l3.4-0.9-1.4 3.9 5.3 10.7-5.3-6.8-3-3.9zm-275.8 11.2v-1.5l12.2 3.5 8.3 2.4 2.4 1v0.5l-16.1-3zm609.4 11.8v-0.5l24.4 5.8v0.5l-8.8-1z"/>
		<path id="Path 83" fill-rule="evenodd" class="s83" d="m677.7 511.7v-1l8.8 3 3.9 1.9v0.5zm-597.1 7.8l-1-2.4 1.4 0.5zm617.7-1v-1l1 1zm-204.1 13.2l7.3-2.5 10.8 2 3.9 6.3-0.5 0.5-2.9-4.4-6.9-2.9-9.3 0.5-2.9 2.9zm-380.4-0.5l6.4-1.4 9.8 0.5zm16.1-1h4.9l6.8 1v0.4zm636.7 8.8l-19-5.8 8.3 1.4zm-574.3 0l-19.5-1.9 12.2 0.5 6.9 0.9zm586.4 4l-12.2-4 9.3 2zm-576.2 0.5l7.3 1 3.9 1.4v1.5zm587.4 3.4l-11.2-3.9 5.8 1zm-705 1l-2.5 0.4 0.5-2.4 0.5 2zm717.8 4.4l-12.7-5.4 12.7 4.9zm-388.7-4.4v-0.5l1 0.5z"/>
		<path id="Path 84" class="s84" d="m256.8 413.6l24.9-1-0.9 1.5h-24zm-71.7 6.3l6.8-0.5-3.4 0.5zm8.3-0.5l9.3-0.5-0.5 0.5zm-21 2.5l5.3-1-1.4 1zm385.2 18.5l-3.9-1 5.9 1zm49.3 6.4l-16.1-2.5 23.4 3zm26.9 3.4l-5.9-1 9.8 1z"/>
		<path id="Path 85" class="s85" d="m399.9 401.4l5.9-2-0.5 1zm-9.3 3.4l9.3-3.4-4.9 2.4zm-298.8 35.7l2.9-0.5-0.5 1-3.4 0.5zm-9.8 0.9h2l-1 2-4.4 9.8-2.9 1.9 4.4-5.4-0.5-4.4zm433.6 96.7l0.5-0.5 2.4 3.9zm-13.7 23.5v-2.5l-3.9-4.4-1-4.9 3.5 7.4 2.4 1.9zm314-4.4v-0.5l7.3 2v0.5zm-322.3 7.3l7.8-2.9-1.9 1.9z"/>
		<path id="Path 86" fill-rule="evenodd" class="s86" d="m165 423.3l3-0.4-1 0.4zm507.3 86.5v-0.5l5.4 1.4v1zm-582 23l-0.5-2.5 0.5 1zm0 5.9v-4.9l0.4 4.9zm315.5 8.7l3.4-0.4 4.9 0.4v0.5zm-28.8 5.4l1.4-1h3.9zm-140.1 0.5v-0.5l10.7 1.5 3.5 3.4 2.9 6.8-7.8-9.7zm129.4 1.4l1.9-0.4h1zm481.4 10.2v-0.5h3.5z"/>
		<path id="Path 87" class="s87" d="m460 509.8l-5.4-3.5 1.9-2.4 3.9 2 1 3.4z"/>
		<path id="Path 88" fill-rule="evenodd" class="s88" d="m56.2 501l-2.5-4.4h1l1.5 1.4zm145.5 42l-9.3-3.9 8.8 3zm601 9.2v-0.5l13.2 4.9v0.5z"/>
		<path id="Path 89" class="s89" d="m572.8 592.3l0.9-2.5-0.9-1.4 15.1 5.8 5.4 2-1 1.4-9.8-2.9-1.4 1-5.4-1.5-0.5-1.4-1.5 0.9z"/>
		<path id="Path 90" class="s90" d="m360.8 562l-3.9-4.4 3.9-1.5z"/>
		<path id="Path 91" class="s91" d="m551.8 577.1v-2.9l2.4 2.5v2.9z"/>
		<path id="Path 92" class="s2" d="m589.8 555.7l1.5-4.9 7.8 1.9 0.5 4.9-2.4 2.5-6.4 0.4z"/>
		<path id="Path 93" class="s3" d="m327.6 435.6h13.2l1 4.8-5.9 7.8h-4.4l-3.9-5.3z"/>
		<path id="Path 94" class="s48" d="m186 450.2h0.5v0.5h-0.5z"/>
		<path id="Path 95" class="s56" d="m337.9 460.9l3.9 0.5-4.4 5.4h-1.5z"/>
		<path id="Path 96" class="s61" d="m581.1 559.6v-5.9l1.9-1.5 6.8 3.5 1 4.8-3.9 2.5z"/>
		<path id="Path 97" class="s63" d="m583 552.2l-2.4-2.4 2.4-3.4 8.3 4.4-1.5 4.9z"/>
		<path id="Path 98" class="s83" d="m85.4 528.3h0.5v0.5h-0.5z"/>
		<path id="Path 99" class="s92" d="m586.9 563l-1.5 3.4-4.8-0.5-4.9-3.9v-2.4l3.9-1 1.5 1z"/>
	</g>
</svg>