<svg version="1.2" xmlns="http://www.w3.org/2000/svg" viewBox="0 0 1000 1000" width="1000" height="1000">
	<title>Margariscus_margarita</title>
	<style>
		.s0 { fill: #243233 } 
		.s1 { fill: #2c3933 } 
		.s2 { fill: #2d3c38 } 
		.s3 { fill: #303f3d } 
		.s4 { fill: #324142 } 
		.s5 { fill: #27312d } 
		.s6 { fill: #314146 } 
		.s7 { fill: #373f35 } 
		.s8 { fill: #373a2c } 
		.s9 { fill: #333627 } 
		.s10 { fill: #3a3d2f } 
		.s11 { fill: #999886 } 
		.s12 { fill: #8e8b73 } 
		.s13 { fill: #3e4132 } 
		.s14 { fill: #444634 } 
		.s15 { fill: #4d4f3a } 
		.s16 { fill: #5f6351 } 
		.s17 { fill: #474b3a } 
		.s18 { fill: #a6a391 } 
		.s19 { fill: #4f5341 } 
		.s20 { fill: #525648 } 
		.s21 { fill: #414638 } 
		.s22 { fill: #75755c } 
		.s23 { fill: #585c45 } 
		.s24 { fill: #6a6b51 } 
		.s25 { fill: #55573e } 
		.s26 { fill: #5e5d41 } 
		.s27 { fill: #676442 } 
		.s28 { fill: #616349 } 
		.s29 { fill: #716b4b } 
		.s30 { fill: #787153 } 
		.s31 { fill: #908768 } 
		.s32 { fill: #665636 } 
		.s33 { fill: #868368 } 
		.s34 { fill: #a49c88 } 
		.s35 { fill: #686b59 } 
		.s36 { fill: #535038 } 
		.s37 { fill: #5a5237 } 
		.s38 { fill: #25271f } 
		.s39 { fill: #565950 } 
		.s40 { fill: #292e26 } 
		.s41 { fill: #576358 } 
		.s42 { fill: #494c40 } 
		.s43 { fill: #181a15 } 
		.s44 { fill: #8b805e } 
		.s45 { fill: #7f7e68 } 
		.s46 { fill: #817b5c } 
		.s47 { fill: #777966 } 
		.s48 { fill: #626860 } 
		.s49 { fill: #8a856f } 
		.s50 { fill: #958a6f } 
		.s51 { fill: #95937c } 
		.s52 { fill: #9a8e75 } 
		.s53 { fill: #9b937d } 
		.s54 { fill: #bcbb8f } 
		.s55 { fill: #384747 } 
		.s56 { fill: #727063 } 
		.s57 { fill: #979c8b } 
		.s58 { fill: #9f9783 } 
		.s59 { fill: #43504a } 
		.s60 { fill: #988768 } 
		.s61 { fill: #a39177 } 
		.s62 { fill: #9f9d8a } 
		.s63 { fill: #a38b62 } 
		.s64 { fill: #b27c5f } 
		.s65 { fill: #a79781 } 
		.s66 { fill: #4e5e4f } 
		.s67 { fill: #aaa38f } 
		.s68 { fill: #90907c } 
		.s69 { fill: #865836 } 
		.s70 { fill: #b0a896 } 
		.s71 { fill: #2f404b } 
		.s72 { fill: #b3ae9c } 
		.s73 { fill: #354c5b } 
		.s74 { fill: #435354 } 
		.s75 { fill: #b6ad9b } 
		.s76 { fill: #2e4a68 } 
		.s77 { fill: #906e4a } 
		.s78 { fill: #546967 } 
		.s79 { fill: #425b60 } 
		.s80 { fill: #b0a08b } 
		.s81 { fill: #8d9185 } 
		.s82 { fill: #849980 } 
		.s83 { fill: #354e64 } 
		.s84 { fill: #51636c } 
	</style>
	<g id="Background">
		<path id="Path 0" class="s0" d="m541 355l7-4 15-2h2l13 8 7 15 4 24 4 5-1 20-3 4 2 3-10 16-9 2-1-20-6-19h-14l-12 6h-10l-6 7-6 1v-5l9-7 3-14 9-11z"/>
		<path id="Path 1" class="s1" d="m532 360l9-5-3 29-9 11-3 14-9 7v5l-24 1-6 6v5l-14-2v-8l3-3 31-9 14-11 5-10 2-16 5-8z"/>
		<path id="Path 2" class="s2" d="m515 372l17-12 1 6-5 8-2 16-5 10-14 11-31 9-3-4 10-9 6 2 11-2 13-10 4-10z"/>
		<path id="Path 3" class="s3" d="m503 385l12-13 2 15-4 10-13 10-11 2-6-2 8-8h7l7-7z"/>
		<path id="Path 4" class="s4" d="m491 399l12-14 2 7-7 7z"/>
		<path id="Path 5" class="s5" d="m517 421l6-1 6-7h10l12-6h14l6 19 1 20-40 10-1 1h-10v-3l-9-6h-6l-12-9h-5l-2-6v-5l6-6z"/>
		<path id="Path 6" class="s6" d="m951 410h9l9 6 2 24-20 32-29 25-1-14 26-41z"/>
		<path id="Path 7" class="s4" d="m945 412l6-2-4 32-26 41 1 14-7 10h-10v-12l7-5v-6l8-14 20-24 5-16z"/>
		<path id="Path 8" class="s3" d="m925 418l20-6v18l-5 16-20 24-8 14v6l-7 5v12l-1 24 8 4 7 10-2 8h-12l-2 4h-8l-25-18h-9l-4 4h-15l-5-6h-7l-3 4h-6l-5-7v-10l5-9h68l6-10v-9l6-5 9-19 6-6 1-7 18-21v-15l-7-1z"/>
		<path id="Path 9" class="s7" d="m468 421l5-5 3 4-3 3z"/>
		<path id="Path 10" class="s2" d="m892 433l33-15 3 4 7 1v15l-18 21-1 7-6 6-9 19-6 5v9l-6 10h-68v-13l43-4 21-15 20-28 2-7v-6l-13-5z"/>
		<path id="Path 11" class="s8" d="m456 433l12-12 5 2v8l-4 7 8 11h17l15 7 4 5v6h-26l-10-5-2-8-16-9z"/>
		<path id="Path 12" class="s9" d="m513 461l-4-5-15-7h-17l-8-11 4-7 14 2 2 6h5l12 9h6l9 6v3 4z"/>
		<path id="Path 13" class="s10" d="m449 438l7-5 3 12 16 9 2 8-4 3-12-2-1-8-7-1z"/>
		<path id="Path 14" class="s1" d="m871 441l21-8 2 4 13 5v6l-2 7-20 28-21 15-43 4-4-10v-11l5-3 1-5h12l16-6 17-15z"/>
		<path id="Path 15" class="s11" d="m347 439l5-1v1z"/>
		<path id="Path 16" class="s12" d="m352 439v-1h10z"/>
		<path id="Path 17" class="s10" d="m352 439l10-1h3l1 6-5 5-24 8h-25l-9 5v5 10h-5-7l-2-6h-12v-4l2-5 18-1 17-16 21 2 2-8h10z"/>
		<path id="Path 18" class="s13" d="m303 467v-5l9-5h25l24-8 5-5-1-6h18l-1 15-9 9v11h-2l-12-2-6-7-5-1h-8l-1 6h-6z"/>
		<path id="Path 19" class="s14" d="m373 473v-11l9-9 1-15h22l-2 23 6 2 2 4v4l-25-5-1 7h-8z"/>
		<path id="Path 20" class="s13" d="m411 467l-2-4-6-2 2-23h10l10 1 24-1 4 16-13 3-1 8-1 4-5 8-12-2-4-2v-4z"/>
		<path id="Path 21" class="s8" d="m325 440l12-1-2 8-21-2-17 16-18 1-2 5h-14l-4 3v5h-7l-1 6-12 2-32-2-4 4-8 1-10-1v-7l9-5h13l23-9h17l24-5 14-12v-4h3l8-1 22-1z"/>
		<path id="Path 22" class="s2" d="m831 458l40-17-3 11-17 15-16 6h-12v-8l6-1z"/>
		<path id="Path 23" class="s9" d="m163 462l49-10 73-9v4l-14 12-24 5h-17l-23 9h-13l-9 5v7l-3 3-7-1v-4l-9-6z"/>
		<path id="Path 24" class="s14" d="m439 465l1-8 13-3 7 1 1 8v8h-6l-3-4-8-1z"/>
		<path id="Path 25" class="s10" d="m531 457l1-1 13 2-2 13-6 2-6-6z"/>
		<path id="Path 26" class="s8" d="m521 461v-4h10v10h-4z"/>
		<path id="Path 27" class="s13" d="m543 471l2-13 14 3v15l-8 2h-2z"/>
		<path id="Path 28" class="s3" d="m821 461l10-3-2 6-6 1z"/>
		<path id="Path 29" class="s10" d="m513 467v-6h8l6 6v10l-1 4-3 3-5-2-1-12z"/>
		<path id="Path 30" class="s15" d="m559 476v-15l14 2v14l-2 4h-8z"/>
		<path id="Path 31" class="s7" d="m775 473l46-12 2 4v8l-1 5-5 3v11l4 10v13l-5 9v10l5 7v7h-2l-12-1-2-6v-4l4-2-2-16-2-9v-11l-5-9-15-7h-7z"/>
		<path id="Path 32" class="s8" d="m148 464l15-2 3 15 9 6v4h-2l-10-2-2-2-3-8h-10l-10 6-2 6-4-1-11-4-1-14 9-1 6-1 9-1z"/>
		<path id="Path 33" class="s16" d="m473 465l4-3 10 5 4 15-12-1-6-7z"/>
		<path id="Path 34" class="s14" d="m339 469l1-6h8l5 1 6 7v10h-10-2v-9z"/>
		<path id="Path 35" class="s17" d="m461 471v-8l12 2v9l-9-1z"/>
		<path id="Path 36" class="s17" d="m573 477v-14l26 2v16 2h-14l-2-6z"/>
		<path id="Path 37" class="s18" d="m439 465l5 1-3 3h-3z"/>
		<path id="Path 38" class="s19" d="m599 481v-16l29 3v7l4 4h5l2 4v6h-6l-10-7z"/>
		<path id="Path 39" class="s17" d="m385 473l1-7 25 5 6 2 4 2v5l-21 1-3-6h-10z"/>
		<path id="Path 40" class="s19" d="m441 469l3-3 8 1 3 4v12 16l4 2v3l-8 1-11-5 3-5-2-8z"/>
		<path id="Path 41" class="s20" d="m487 467h26l4 3 1 12-5 1-18 2-4-3z"/>
		<path id="Path 42" class="s13" d="m259 475v-5l4-3h14v4l-2 6-12 2-2-2z"/>
		<path id="Path 43" class="s17" d="m303 477v-10l30 2v8h-20l-1 3h-5z"/>
		<path id="Path 44" class="s21" d="m411 471v-4l6 2v4z"/>
		<path id="Path 45" class="s14" d="m527 477v-10h4l6 6v4z"/>
		<path id="Path 46" class="s10" d="m109 470l11-2 1 14v3h-10z"/>
		<path id="Path 47" class="s15" d="m639 483l-2-4h-5l-4-4v-7h7l5 1 18 1 6 1h3v5l10 9h6v6 8l-2 12-15-4-5-2-1-8-7-4-5-10z"/>
		<path id="Path 48" class="s15" d="m333 477v-8h6l8 3v9h-4-8z"/>
		<path id="Path 49" class="s21" d="m433 477l5-8h3v18h-5l-3-4z"/>
		<path id="Path 50" class="s13" d="m29 515l9-13 27-18 24-10 20-4 2 15v7l-2 3h-14l-1 4-10 8v7l5 2-1 8-2 3h-9-5l-4 6-4-1-4-7h-12l-3 4-12 3-4-4 2-2z"/>
		<path id="Path 51" class="s17" d="m275 477l2-6h12l2 6-10 3h-6z"/>
		<path id="Path 52" class="s21" d="m359 481v-10l12 2v6l-4 2z"/>
		<path id="Path 53" class="s16" d="m455 483v-12h6l3 2-1 10z"/>
		<path id="Path 54" class="s19" d="m537 473l6-2 6 7-12-1z"/>
		<path id="Path 55" class="s17" d="m683 485h-6l-10-9v-5l15 1 3 1z"/>
		<path id="Path 56" class="s18" d="m685 473l-3-1 6 1z"/>
		<path id="Path 57" class="s19" d="m371 479v-6h2 4v6z"/>
		<path id="Path 58" class="s15" d="m377 479v-6h8l2 2v5z"/>
		<path id="Path 59" class="s22" d="m463 483l1-10 9 1 6 7 12 1 4 3 18-2v16l-5 7-9 1-8-2-2-5h-6l-7-7h-11z"/>
		<path id="Path 60" class="s19" d="m683 485l2-12h3l24 2-1 6-3 6-17 6-8-2z"/>
		<path id="Path 61" class="s23" d="m736 477l39-4 3 10v6l-5 1-6 9h-8l-2 6h-8-4l-3-6-17-4-34 4v-6l17-6 3-6 9-1 2-5 9 1z"/>
		<path id="Path 62" class="s10" d="m136 487l2-6 10-6h10l3 8-6 4h-8l-2 3-6 1z"/>
		<path id="Path 63" class="s17" d="m251 481l1-6h7l2 2 1 2z"/>
		<path id="Path 64" class="s19" d="m387 480v-5h10l3 6-5 3z"/>
		<path id="Path 65" class="s19" d="m421 480v-5l12 2v6h-9z"/>
		<path id="Path 66" class="s20" d="m711 481l1-6h10l-2 5z"/>
		<path id="Path 67" class="s24" d="m551 478l8-2 4 5h8l8 8v8l4 6v4h-17l-4-4h-9l-2-14z"/>
		<path id="Path 68" class="s25" d="m262 479l-1-2 2 2z"/>
		<path id="Path 69" class="s15" d="m263 479l12-2v3l2 9v8 4l-12 1-2-3-15-2-9-4v-10l12-2 11-2z"/>
		<path id="Path 70" class="s26" d="m281 480l10-3h7v4l5 3v7l7 8 11-2 5 3 1 5v4l-9 2-15-3-4-3-18-2v-2-4-8z"/>
		<path id="Path 71" class="s25" d="m303 484l-5-3v-4h5l4 3z"/>
		<path id="Path 72" class="s23" d="m312 480l1-3h20l2 4-6 6-8 1-7-3z"/>
		<path id="Path 73" class="s16" d="m526 481l1-4h10l12 1h2v11h-10l-2-4z"/>
		<path id="Path 74" class="s23" d="m571 481l2-4h10l2 6v6h-6z"/>
		<path id="Path 75" class="s27" d="m367 481l4-2h6l10 1 8 4v21h-10-7v-6l-5-3z"/>
		<path id="Path 76" class="s25" d="m277 489l-2-9h6v9z"/>
		<path id="Path 77" class="s28" d="m303 484l4-4h5l2 5 7 3v9l-11 2-7-8z"/>
		<path id="Path 78" class="s29" d="m400 481l21-1 3 3h9l3 4v7l-7 3v4h-6l-4 5-4 1-20-2v-21z"/>
		<path id="Path 79" class="s26" d="m203 485l4-4 32 2v10l-9 4-3 6h-14-6l-4-10z"/>
		<path id="Path 80" class="s27" d="m321 488l8-1 6-6h8v8l-4 3v11l-12 2-1-5-5-3z"/>
		<path id="Path 81" class="s23" d="m343 489v-8h4 2v8z"/>
		<path id="Path 82" class="s25" d="m349 489v-8h10v6l-6 4z"/>
		<path id="Path 83" class="s26" d="m353 491l6-4v-6h8l6 15 5 3v6l-1 6h-8l-3-4-10 1-3-3z"/>
		<path id="Path 84" class="s30" d="m518 482l5 2 3-3 13 4 2 4v12h-4l-24-2v-16z"/>
		<path id="Path 85" class="s28" d="m599 483v-2l24 1 10 7h6l3 4h11l7 4 1 8-1 4-8 5h-6l-3-5-10-2-2-11-10-1-6-8-12 2z"/>
		<path id="Path 86" class="s20" d="m121 485v-3l11 4-1 5-2 2-8-2z"/>
		<path id="Path 87" class="s31" d="m155 487l6-4 2 2v4l-4 7h-4z"/>
		<path id="Path 88" class="s24" d="m459 501l-4-2v-16h8l2 10z"/>
		<path id="Path 89" class="s24" d="m585 489v-6h14l4 6 12-2 6 8 10 1 2 11-4 7-35-1-7-10z"/>
		<path id="Path 90" class="s25" d="m639 489v-6h9l5 10h-11z"/>
		<path id="Path 91" class="s15" d="m778 489v-6h7l15 7 5 9v11l-8 3h-11l-1 4h-6v-8l1-4 6-3 1-10z"/>
		<path id="Path 92" class="s15" d="m111 492v-7h10v6z"/>
		<path id="Path 93" class="s30" d="m163 489v-4l10 2v6h-5z"/>
		<path id="Path 94" class="s14" d="m175 487l7 1 3-3 10 1v7l6 16-10 2-18-18v-6z"/>
		<path id="Path 95" class="s32" d="m195 486l8-1v8h-8z"/>
		<path id="Path 96" class="s33" d="m131 491l1-5 4 1 3 4-1 3z"/>
		<path id="Path 97" class="s34" d="m145 490l2-3h8v9h-5z"/>
		<path id="Path 98" class="s14" d="m436 494v-7h5l2 8-3 5h-3z"/>
		<path id="Path 99" class="s19" d="m159 496l4-7 5 4-5 5z"/>
		<path id="Path 100" class="s27" d="m277 497v-8h4v8z"/>
		<path id="Path 101" class="s14" d="m339 503v-11l4-3h6l4 2v14h-10z"/>
		<path id="Path 102" class="s35" d="m541 501v-12h10l2 14h-10z"/>
		<path id="Path 103" class="s30" d="m583 503l-4-6v-8h6l2 14z"/>
		<path id="Path 104" class="s25" d="m757 505l2-6h8l6-9 5-1 9 3-1 10-6 3-1 4-9 1-1 7-4 1-8-5z"/>
		<path id="Path 105" class="s23" d="m139 491l6-1 5 6-2 11-8 3-2-16z"/>
		<path id="Path 106" class="s14" d="m111 492l10-1 8 2 2-2 7 3 2 16-4 7h-7l-6-8h-8v-6l-6-4v-4z"/>
		<path id="Path 107" class="s25" d="m683 499v-8l8 2v6z"/>
		<path id="Path 108" class="s25" d="m163 498l5-5h5l18 18 1 10h-5-4v-7l-5-5h-14z"/>
		<path id="Path 109" class="s36" d="m201 509l-6-16h8l4 10-2 6z"/>
		<path id="Path 110" class="s36" d="m227 503l3-6 9-4 9 4-2 8h-18z"/>
		<path id="Path 111" class="s35" d="m459 501l6-8h11l7 7-1 5-11-3-1 4-11-2z"/>
		<path id="Path 112" class="s9" d="m429 501v-4l7-3 1 6-6 5h-2z"/>
		<path id="Path 113" class="s10" d="m94 499l1-4h14v4z"/>
		<path id="Path 114" class="s28" d="m691 499l34-4 17 4 3 6h4v5l4 3v8l-4 3-1 7h-20l-7 4-16-2-2-4h-6l-2-6h-10-4v-12l2-12z"/>
		<path id="Path 115" class="s35" d="m148 507l2-11h5 4l4 2 1 11-4 9-3-1z"/>
		<path id="Path 116" class="s14" d="m246 505l2-8 15 2 2 3 12-1h4v2 6l5 7-12 1-4-5-10-3h-13z"/>
		<path id="Path 117" class="s37" d="m277 501v-4h4v4z"/>
		<path id="Path 118" class="s38" d="m89 516l-5-2v-7l10-8h15l6 4v6l-2 1-3-2-3 2-11 1z"/>
		<path id="Path 119" class="s39" d="m508 506l5-7 24 2v8l-2 4h-12z"/>
		<path id="Path 120" class="s40" d="m431 505l6-5h3l11 5 8-1 11 2 4 7h17l2 10v12h-6v4l-4 3h-2l-8-5-2-10h-8l-2-4-7-2-3 8h-8v-9l-3-3h-9z"/>
		<path id="Path 121" class="s38" d="m470 506l1-4 11 3 1-5h6l2 5v6 2h-17z"/>
		<path id="Path 122" class="s28" d="m419 506l4-5h6v4l-4 4z"/>
		<path id="Path 123" class="s41" d="m537 509v-8h4l2 2v6z"/>
		<path id="Path 124" class="s13" d="m205 509l2-6h6v8h-8z"/>
		<path id="Path 125" class="s10" d="m213 511v-8h14l1 2-5 6z"/>
		<path id="Path 126" class="s36" d="m286 516l-5-7v-6l18 2 4 3v10l-4 1h-9z"/>
		<path id="Path 127" class="s9" d="m327 505l12-2 4 2 4 13 8-4 1-6 10-1 3 4v4h-5l-9 9-2 7-20 3-8-9 2-16z"/>
		<path id="Path 128" class="s39" d="m543 509v-6h10 9l4 4v5l-8 5h-13l-2-2z"/>
		<path id="Path 129" class="s39" d="m583 507v-4h4l7 10-5 7z"/>
		<path id="Path 130" class="s8" d="m213 511h10l5-6h18l1 4h13v7l3 3h7l6 8 10-2 4-6h9l-2 17 2 7h-10l-2-3-16-1-2-4-8 2 3 10-2 4h-4l-4-8h-9l-2-6h-11l-1 8-8 1-5 7h-4l-3-5h-7l-5-5v-6l6-5v-21z"/>
		<path id="Path 131" class="s36" d="m356 508l-1 6-8 4-4-13h10z"/>
		<path id="Path 132" class="s17" d="m377 511l1-6h7v8h-6z"/>
		<path id="Path 133" class="s42" d="m385 513v-8h10l20 2v10l-2 4-10-2z"/>
		<path id="Path 134" class="s1" d="m425 509l4-4h2v12h-6z"/>
		<path id="Path 135" class="s41" d="m491 511v-6l8 2-2 4z"/>
		<path id="Path 136" class="s14" d="m660 509l1-4 5 2-1 4z"/>
		<path id="Path 137" class="s19" d="m753 513l-4-3v-5h8v8z"/>
		<path id="Path 138" class="s5" d="m415 507l4-1 6 3v8h-10z"/>
		<path id="Path 139" class="s42" d="m499 507l9-1 15 7v10l6 6v8h-5l-3-4h-14l-4-8-10-2-2-10v-2h6z"/>
		<path id="Path 140" class="s21" d="m140 510l8-3 9 10v6l-4 4v8l-20 2-5-2 3-14 5-1v-3z"/>
		<path id="Path 141" class="s20" d="m545 517h13l8-5v-5h17l6 13v8l4 2v5 8l-2 3-5-1-9-2-18 2h-10l-4-2-3 6-17-2-12-2-6-5v-5-2h14l3 4h5 9l3 4 4-2z"/>
		<path id="Path 142" class="s23" d="m629 514l4-7 10 2 3 5h6l1 7h-8-6l-8-2z"/>
		<path id="Path 143" class="s13" d="m665 511l1-4 15 4v12l-4 2v6l-6 3-4-7z"/>
		<path id="Path 144" class="s6" d="m919 545l-7-10-8-4 1-24h10l-3 17 3 6 11 9 12 3 28 31 8 16 1 15v3l-10 12-12 2v-16l-4-15-8-7h-6l-4-3v-7l-2-25-3-3z"/>
		<path id="Path 145" class="s32" d="m107 510l3-2 3 2 3 6-2 4-3-8z"/>
		<path id="Path 146" class="s37" d="m303 518v-10l15 3-1 7-10 1z"/>
		<path id="Path 147" class="s40" d="m113 510l2-1h8l6 8 2 4-3 14-6 9-8 3-1-3 3-2-3-4-1-6 1-5 1-7 2-4z"/>
		<path id="Path 148" class="s20" d="m160 518l4-9h14l5 5v7h-6l-8 12h-8l-1-10z"/>
		<path id="Path 149" class="s9" d="m191 511l10-2h4v2 21l-6 5-3-1-2-7-2-8z"/>
		<path id="Path 150" class="s10" d="m290 519l-4 6-10 2-6-8h-7l-3-3v-7l10 3 4 5 12-1z"/>
		<path id="Path 151" class="s10" d="m318 511l9-2-2 16-12 2-6-4v-4l10-1z"/>
		<path id="Path 152" class="s20" d="m535 513l2-4h6v6z"/>
		<path id="Path 153" class="s21" d="m652 514l8-5 5 2 2 16h-7l-3-6h-4z"/>
		<path id="Path 154" class="s17" d="m769 517l1-7 9-1v8z"/>
		<path id="Path 155" class="s43" d="m89 516l7-5 11-1 4 2 3 8-1 7-4 4h-11l-7-4-3-3z"/>
		<path id="Path 156" class="s13" d="m797 513l8-3 2 9h-9z"/>
		<path id="Path 157" class="s13" d="m369 515v-4h8l2 2v4z"/>
		<path id="Path 158" class="s7" d="m379 517v-4h6l18 6 4 12v10l-2 8h-7l-12 8h-3l-4-8h-4v-12l12-4-1-10z"/>
		<path id="Path 159" class="s19" d="m529 537v-8l-6-6v-10h12l8 2 2 2v22l-4 2-3-4z"/>
		<path id="Path 160" class="s42" d="m589 520l5-7 35 1 2 5 8 2v6l-2 20-15-4-15-2-8-2v-4h-6v-5l-4-2z"/>
		<path id="Path 161" class="s17" d="m753 521v-8h4l8 5v3z"/>
		<path id="Path 162" class="s14" d="m785 517l1-4h11l1 6-1 4h-8z"/>
		<path id="Path 163" class="s15" d="m25 523l4-8 2 11-2 2-4-3z"/>
		<path id="Path 164" class="s8" d="m325 525l8 9 20-3 2-7 9-9h5l10 2 7 6 1 10-12 4-4-7-7 1v12l4 7-1 11v2h-5l-1 3h-6l-8-8h-4l-2-8-9-2-4-5h-5l-1-3h-8l-1-13z"/>
		<path id="Path 165" class="s8" d="m131 521l-2-4h7v3z"/>
		<path id="Path 166" class="s23" d="m157 523v-6l3 1v5z"/>
		<path id="Path 167" class="s38" d="m413 521l2-4h10 6 9l3 3v9 10l-6 5-12 1-4-3-2-8-4-3z"/>
		<path id="Path 168" class="s13" d="m765 518l4-1h10 6l4 6v6l-14 2h-7l-3-3v-7z"/>
		<path id="Path 169" class="s9" d="m299 519l4-1 4 1v4l6 4 1 13-1 7h-2-8l-4-4-2-7z"/>
		<path id="Path 170" class="s21" d="m407 531l-4-12 10 2 2 10z"/>
		<path id="Path 171" class="s1" d="m797 523l1-4h9l2 16-4 2v4h-6v-6z"/>
		<path id="Path 172" class="s16" d="m169 533l8-12h6 4v8l-4 3-4 1v10h-4l-6-4z"/>
		<path id="Path 173" class="s28" d="m187 529v-8h5l2 8z"/>
		<path id="Path 174" class="s8" d="m451 529l3-8 7 2 2 4v10h-12z"/>
		<path id="Path 175" class="s19" d="m639 527v-6h6v6z"/>
		<path id="Path 176" class="s42" d="m645 527v-6h8 4l3 6h7l4 7-5 7-13-12z"/>
		<path id="Path 177" class="s42" d="m748 531l1-7 4-3h12v7l3 3h7v10l-3 4h-8l-6-7-7-1z"/>
		<path id="Path 178" class="s42" d="m153 535v-8l4-4h3l1 10z"/>
		<path id="Path 179" class="s21" d="m493 535v-12l10 2 4 8v2h-10z"/>
		<path id="Path 180" class="s19" d="m677 531v-6l4-2h4v8z"/>
		<path id="Path 181" class="s20" d="m685 531v-8h10l2 6z"/>
		<path id="Path 182" class="s8" d="m789 529v-6h8l2 12h-6z"/>
		<path id="Path 183" class="s14" d="m77 527h9l2-3 3 3v6l-7-1 4 10 15 3v2l-8 2h-10l-13-11v-3l5-4z"/>
		<path id="Path 184" class="s24" d="m45 529l3-4h12l4 7-5 5h-11z"/>
		<path id="Path 185" class="s10" d="m68 533l4-6h5v4l-5 4z"/>
		<path id="Path 186" class="s32" d="m91 533v-6l7 4-1 3z"/>
		<path id="Path 187" class="s29" d="m109 531l4-4-1 5-2 1z"/>
		<path id="Path 188" class="s7" d="m463 537v-10h8l2 10 8 5-1 6-7-1-1-4z"/>
		<path id="Path 189" class="s20" d="m637 547l2-20h6l8 2 13 12v2z"/>
		<path id="Path 190" class="s30" d="m33 532l12-3 3 8h11v10l-2 4h-11l-4 3-9-7-6-12 4-2z"/>
		<path id="Path 191" class="s35" d="m183 532l4-3h7l2 7 3 1v6l5 5h7l3 5-5 1v15 8l-4 2h-7l-2-6h-8v-10l3-15-8-5z"/>
		<path id="Path 192" class="s7" d="m443 539v-10h8v8 2z"/>
		<path id="Path 193" class="s16" d="m685 531l12-2h6l2 4v8l-2 2h-37v-2l5-7 6-3z"/>
		<path id="Path 194" class="s21" d="m775 531l14-2 4 6h6v6 8h-8l-8-8h-8z"/>
		<path id="Path 195" class="s40" d="m368 550l-4-7v-12l7-1 4 7v12z"/>
		<path id="Path 196" class="s33" d="m103 545l-15-3-4-10 7 1 6 1 9 4v3z"/>
		<path id="Path 197" class="s44" d="m97 534l1-3h11l1 2-4 5z"/>
		<path id="Path 198" class="s13" d="m407 541v-10h8l4 3 2 8-4 1z"/>
		<path id="Path 199" class="s16" d="m721 535l7-4h20l3 6v6l-8 1-4-3-18-2z"/>
		<path id="Path 200" class="s45" d="m27 535l-1-2h5z"/>
		<path id="Path 201" class="s22" d="m59 537l5-5 4 1 4 2v3l-7 4v5h-6z"/>
		<path id="Path 202" class="s38" d="m110 533l2-1 1 6-6 3h-1v-3z"/>
		<path id="Path 203" class="s12" d="m179 543v-10l4-1v11z"/>
		<path id="Path 204" class="s35" d="m153 535l8-2h8v6l6 4v5l-1 2-6-3-27 2h-8v-12z"/>
		<path id="Path 205" class="s39" d="m705 541v-8l16 2v4z"/>
		<path id="Path 206" class="s24" d="m122 544l6-9 5 2v12 8l-5 1-5-5z"/>
		<path id="Path 207" class="s10" d="m264 547l-3-10 8-2 2 4-1 8z"/>
		<path id="Path 208" class="s20" d="m487 539v-4h6 4v7h-4z"/>
		<path id="Path 209" class="s19" d="m497 542v-7h10v5l-2 3z"/>
		<path id="Path 210" class="s39" d="m593 543v-8h6v4l-3 4z"/>
		<path id="Path 211" class="s21" d="m231 545l1-8h11l2 6v10l-7-1z"/>
		<path id="Path 212" class="s13" d="m451 539v-2h12l9 6 1 4 7 1v4l-1 4h-3l-12-7-3-1z"/>
		<path id="Path 213" class="s22" d="m751 543v-6l7 1 6 7h8l3-4h8l8 8v22 8l-10-2-4-16v-5l-8-3-11-1z"/>
		<path id="Path 214" class="s4" d="m821 541h6l3-4h7l5 6h15l4-4h9l25 18h8l2-4h12l2-8h7l3 3 2 25-35-2-3-4-23-7-4-4-20-1-7-5-18-2z"/>
		<path id="Path 215" class="s46" d="m65 547v-5l7-4 13 11v6l-5 2v4h-3l-3-5-9-1z"/>
		<path id="Path 216" class="s22" d="m107 541l6-3 3 4-3 2-5 1z"/>
		<path id="Path 217" class="s28" d="m270 547l1-8 16 1 2 3v8l-4 1v8l-4 3h-10v-6z"/>
		<path id="Path 218" class="s42" d="m437 544l6-5h8l10 9-2 4-14-1z"/>
		<path id="Path 219" class="s28" d="m483 542l4-3 6 3v7h-5z"/>
		<path id="Path 220" class="s22" d="m596 543l3-4 8 2v6z"/>
		<path id="Path 221" class="s33" d="m705 541l16-2 18 2 4 3v7h-6l-30 2-4-10z"/>
		<path id="Path 222" class="s10" d="m313 547l1-7h8l1 3v5z"/>
		<path id="Path 223" class="s45" d="m505 543l2-3 6 5-6 6h-2z"/>
		<path id="Path 224" class="s43" d="m103 545l3-4h1l1 4v3l-5-1z"/>
		<path id="Path 225" class="s9" d="m405 549l2-8 10 2-4 15-3 5h-3z"/>
		<path id="Path 226" class="s47" d="m607 547v-6l15 2-3 5z"/>
		<path id="Path 227" class="s17" d="m799 549v-8h6l2 6v6h-4z"/>
		<path id="Path 228" class="s16" d="m417 543l4-1 4 3 12-1 8 7v6l-9 4-11 4-2-3-8-1-2-3z"/>
		<path id="Path 229" class="s20" d="m480 548l1-6h2l5 7-1 3h-7z"/>
		<path id="Path 230" class="s35" d="m493 549v-7h4l8 1v8h-4z"/>
		<path id="Path 231" class="s45" d="m175 548v-5h4 4l8 5-3 15-8-4v-10z"/>
		<path id="Path 232" class="s17" d="m245 553v-10h9l4 8-7 3z"/>
		<path id="Path 233" class="s23" d="m289 551v-8h10l4 4v8h-4z"/>
		<path id="Path 234" class="s13" d="m323 548v-5h5l4 5z"/>
		<path id="Path 235" class="s48" d="m542 549l3-6 4 2-2 7z"/>
		<path id="Path 236" class="s45" d="m559 545l18-2v6h-16z"/>
		<path id="Path 237" class="s49" d="m577 549v-6l9 2-3 4z"/>
		<path id="Path 238" class="s50" d="m586 545l5 1 2-3h3l11 4 12 1v6l-4 2v11l-18 4-8 5-6 9h-4l2-15 8-6v-7l-6-8z"/>
		<path id="Path 239" class="s31" d="m619 548l3-5 15 4 29-4h37l4 10v6h-6l-8 5v10l-7 1-1-8h-21l-13 6-25-1-2-5h-9v-11l4-2z"/>
		<path id="Path 240" class="s45" d="m743 544l8-1 7 9 11 1v8l2 14-12-2v-7l-8-2v-6l-8-7z"/>
		<path id="Path 241" class="s38" d="m108 545l5-1 1 3-2 2-4-1z"/>
		<path id="Path 242" class="s22" d="m114 547l8-3 1 9h-6l-5-4z"/>
		<path id="Path 243" class="s16" d="m218 553l5-7 8-1 7 7-3 8-7 2z"/>
		<path id="Path 244" class="s51" d="m507 551l6-6 12 2v8h-18z"/>
		<path id="Path 245" class="s52" d="m547 552l2-7h10l2 4h16 6l6 8v7l-8 6-2 15-2 10-20 6v-10l4-2v-6l2-15-6-7h-4v-4z"/>
		<path id="Path 246" class="s33" d="m57 551l2-4h6v8h-8z"/>
		<path id="Path 247" class="s45" d="m95 549l8-2 5 1 4 1 5 4v8l-2 2-16-2-4-2z"/>
		<path id="Path 248" class="s47" d="m141 549l27-2 6 3-3 7-32 2v-2z"/>
		<path id="Path 249" class="s36" d="m262 551l2-4h6l1 10h-6z"/>
		<path id="Path 250" class="s24" d="m303 555v-8h8v8z"/>
		<path id="Path 251" class="s23" d="m311 555v-8h2l10 1h9l9 2 2 8-9 2z"/>
		<path id="Path 252" class="s53" d="m525 555v-8l17 2 5 3 6 5v4l-10 8h-2v-4l-9-10z"/>
		<path id="Path 253" class="s21" d="m807 553v-6l12 1v9h-4z"/>
		<path id="Path 254" class="s54" d="m174 550l1-2 5 1v10l-7 8-2-10z"/>
		<path id="Path 255" class="s41" d="m459 552l2-4 3 1-3 5z"/>
		<path id="Path 256" class="s55" d="m819 557v-9h2l18 2 7 5 20 1 4 4 23 7 3 4 35 2v7l4 3 4 36-12-2-3-15-5-8-20-1-16-12-36-12-22-12z"/>
		<path id="Path 257" class="s33" d="m85 555v-6h10v10z"/>
		<path id="Path 258" class="s56" d="m133 557v-8h8l-2 8z"/>
		<path id="Path 259" class="s20" d="m368 550l7-1h4l4 8h3v6 2h-7l-2-4h-10z"/>
		<path id="Path 260" class="s39" d="m386 557l12-8h7l2 14-7 4-3-4h-11z"/>
		<path id="Path 261" class="s51" d="m461 554l3-5 12 7-3 11h-15l-1 4h-10v-2l2-4 11-1z"/>
		<path id="Path 262" class="s51" d="m487 552l1-3h5l8 2v5h-14z"/>
		<path id="Path 263" class="s28" d="m791 571v-22h8l4 4 2 12-4 6z"/>
		<path id="Path 264" class="s49" d="m445 551l14 1 2 2-1 10-11 1-4-8z"/>
		<path id="Path 265" class="s11" d="m42 554l4-3h11v4l-2 6z"/>
		<path id="Path 266" class="s16" d="m251 554l7-3h4l3 6h6v6l-10 5-8-1z"/>
		<path id="Path 267" class="s35" d="m285 560v-8l4-1 10 4v10h-8z"/>
		<path id="Path 268" class="s53" d="m501 556v-5h4 2v4z"/>
		<path id="Path 269" class="s50" d="m707 553l30-2 2 14h-2l-2-3-9-1-15 2-4-4z"/>
		<path id="Path 270" class="s31" d="m739 565l-2-14h6l8 7v6l-7 5z"/>
		<path id="Path 271" class="s35" d="m235 560l3-8 7 1 6 1 2 13-5 5h-9z"/>
		<path id="Path 272" class="s53" d="m479 556l1-4h7v4z"/>
		<path id="Path 273" class="s46" d="m117 561v-8h6l5 5v5h-8z"/>
		<path id="Path 274" class="s22" d="m209 569v-15l5-1h4l10 9-2 6-5 1z"/>
		<path id="Path 275" class="s46" d="m769 561v-8l8 3v5z"/>
		<path id="Path 276" class="s19" d="m805 565l-2-12h4l8 4v8z"/>
		<path id="Path 277" class="s57" d="m55 561l2-6h8l9 1 3 5-7 10z"/>
		<path id="Path 278" class="s51" d="m80 561v-4l5-2 10 4 4 2v6l7 6 10 2 13-2 12 11 8 1v6l-9 1-8-7-11-4-20-2h-10l-1-11z"/>
		<path id="Path 279" class="s22" d="m299 565v-10h4 8l23 5 9-2h4l8 8v7h-17l-4 5-17-7-5-5z"/>
		<path id="Path 280" class="s58" d="m501 556l6-1h18 7l9 10v4h-15l-2-3-18 3-16-4-13 2h-4l3-11h3 8z"/>
		<path id="Path 281" class="s33" d="m128 558l5-1h6v2 6l-11-2z"/>
		<path id="Path 282" class="s45" d="m139 559l32-2 2 10v4h-14l-3-3-11 1-6-4z"/>
		<path id="Path 283" class="s12" d="m436 561l9-4 4 8-2 4-8-1z"/>
		<path id="Path 284" class="s59" d="m815 565v-8h4 6l22 12 36 12 16 12 20 1 5 8 3 15-27-7v-4l-12-7-5-7-16-3h-22l-3-7-8-4-6-8-9-1z"/>
		<path id="Path 285" class="s56" d="m410 563l3-5 2 3z"/>
		<path id="Path 286" class="s49" d="m173 567l7-8 8 4v10l-1 9 3 4v2l-13 1v-10l-4-2v-6z"/>
		<path id="Path 287" class="s12" d="m693 574v-10l8-5h6l4 4v10z"/>
		<path id="Path 288" class="s60" d="m228 562l7-2 4 12-2 9h-8v-9l-3-4z"/>
		<path id="Path 289" class="s45" d="m281 563l4-3 6 5v8h-6z"/>
		<path id="Path 290" class="s18" d="m70 571l7-10h3l10 7 1 11-2 4z"/>
		<path id="Path 291" class="s12" d="m149 585l-8-1-12-11-13 2-10-2-7-6v-6l16 2h5 8l11 2 6 4v10l4 2z"/>
		<path id="Path 292" class="s33" d="m115 563l2-2 3 2z"/>
		<path id="Path 293" class="s35" d="m367 563v-2h10l2 4v4h-10z"/>
		<path id="Path 294" class="s12" d="m410 563l5-2 8 1 2 3v13l-14 6-6-3-2-10 7-3z"/>
		<path id="Path 295" class="s11" d="m425 565l11-4 3 7 8 1v2 8l-20 4-2-5z"/>
		<path id="Path 296" class="s61" d="m543 569l10-8h4l6 7-2 15h-6l-3 4-1 6-4 3v9l-7 2-5-4v-21l8-7z"/>
		<path id="Path 297" class="s51" d="m711 563l15-2 9 1 2 3v5l-26 3z"/>
		<path id="Path 298" class="s47" d="m771 575l-2-14h8l4 16z"/>
		<path id="Path 299" class="s49" d="m253 567l8 1 10-5h10l4 10-2 4h-12l-4 6-8 1v7h-8-2l-1-19z"/>
		<path id="Path 300" class="s16" d="m361 566l1-3h5l2 6v2h-5z"/>
		<path id="Path 301" class="s56" d="m386 565v-2h11l3 4v1l-11 3z"/>
		<path id="Path 302" class="s47" d="m400 567l7-4h3v5l-7 3-3-3z"/>
		<path id="Path 303" class="s33" d="m744 569l7-5 8 2v7l-15-2z"/>
		<path id="Path 304" class="s49" d="m291 573v-8h8l13 1 5 5-2 8h-12l-4-6z"/>
		<path id="Path 305" class="s45" d="m379 569v-4h7l3 6-8 5-2-1z"/>
		<path id="Path 306" class="s34" d="m477 567l13-2 16 4 18-3 2 3-3 7-10 8v19h-4l-3 5-26 8-1 7-6 2h-4l3-16 15-2 1-4 13-3v-4l5-4 1-10-6-7-24-4z"/>
		<path id="Path 307" class="s12" d="m737 570v-5h2l5 4v2z"/>
		<path id="Path 308" class="s16" d="m801 571l4-6h10l4 4v6l-8 2v7l-8-1z"/>
		<path id="Path 309" class="s39" d="m355 573v-7h6l3 5-1 4z"/>
		<path id="Path 310" class="s62" d="m457 571l1-4h15 4v4l-6 4h-14z"/>
		<path id="Path 311" class="s49" d="m583 585l6-9 8-5 18-4h9l2 5-8 5h-6l-1 4-17 2-3 3v7h-6z"/>
		<path id="Path 312" class="s33" d="m626 572l25 1 13-6h21l1 8-31 3-22 5h-4l-15 3-3-5 1-4h6z"/>
		<path id="Path 313" class="s49" d="m145 569l11-1 3 3v8l-10 2-4-2z"/>
		<path id="Path 314" class="s63" d="m221 569l5-1 3 4v9l-4 2-4-4z"/>
		<path id="Path 315" class="s51" d="m389 571l11-3 3 3 2 10-2 8h-5l-3 6h-15-5l-4-4v-6l9-3 1-6z"/>
		<path id="Path 316" class="s64" d="m209 577v-8h12v10z"/>
		<path id="Path 317" class="s33" d="m369 571v-2h10v6h-7z"/>
		<path id="Path 318" class="s65" d="m513 603v-19l10-8 3-7h15 2v6l-8 7v21l-20 2z"/>
		<path id="Path 319" class="s66" d="m819 575v-6l9 1 6 8 8 4 3 7h22v5l-4 3-44-12z"/>
		<path id="Path 320" class="s12" d="m159 579v-8h14v6z"/>
		<path id="Path 321" class="s51" d="m315 579l2-8 17 7 1 7h-14z"/>
		<path id="Path 322" class="s12" d="m355 573l8 2 1-4h5l3 4h7l2 1-1 6-9 3h-18-18l-1-7 4-5z"/>
		<path id="Path 323" class="s34" d="m447 579v-8h10v4l-1 4z"/>
		<path id="Path 324" class="s67" d="m457 575h14l6-4 24 4 6 7-1 10-5 4v4l-13 3-1-4 3-5-1-13-13 2-19-2-1-2z"/>
		<path id="Path 325" class="s35" d="m791 579v-8h10l2 12z"/>
		<path id="Path 326" class="s31" d="m237 581l2-9h9l1 19h-12z"/>
		<path id="Path 327" class="s22" d="m190 586l-3-4 1-9h8l2 6-1 6z"/>
		<path id="Path 328" class="s51" d="m283 577l2-4h6 8l4 6-5 4-13 2-2-2z"/>
		<path id="Path 329" class="s41" d="m811 584v-7l8-2v10z"/>
		<path id="Path 330" class="s68" d="m159 579l14-2 4 2v10l-22 6-6-4v-6-4z"/>
		<path id="Path 331" class="s69" d="m205 579l4-2 12 2 4 4v8l1 6-3 16h-2l-9-2-1-7-5-1v-5l-4-4v-3z"/>
		<path id="Path 332" class="s53" d="m267 583l4-6h12v6l-5 1-5 8-6-1z"/>
		<path id="Path 333" class="s70" d="m411 584l14-6 2 5-6 3v7l-8 3 3 10 15 6 16 1 7-4 3-17 2-1-2-10 19 2 13-2 1 13-3 5h-15l-1 8-8 1-1 6-5 4v9l-2 2h-6-2v-5l-4-4-16-3-22-5-6-9 6-8v-6h4z"/>
		<path id="Path 334" class="s71" d="m633 583l22-5 25 7 11 9-4 3-19-4-7 5v4l-9-1-19-14z"/>
		<path id="Path 335" class="s62" d="m89 583l2-4h10v10z"/>
		<path id="Path 336" class="s11" d="m101 589v-10l20 2 11 4 8 7 9-1 6 4-4 5-12-1-18-8h-7l-1 4z"/>
		<path id="Path 337" class="s32" d="m197 585l1-6h7l-3 12-3-2z"/>
		<path id="Path 338" class="s62" d="m285 585l13-2 5-4h12l6 6v8h-7l-16 2-3 7-10-4-2-2z"/>
		<path id="Path 339" class="s72" d="m427 583l20-4h9l1 2 2 10-2 1-18-3-18 4v-7z"/>
		<path id="Path 340" class="s50" d="m225 583l4-2h8v10h-6-6z"/>
		<path id="Path 341" class="s18" d="m403 589l2-8 6 3-2 5h-4z"/>
		<path id="Path 342" class="s45" d="m591 593v-7l3-3 17-2 3 5v13l-1 10-3 2z"/>
		<path id="Path 343" class="s73" d="m629 583h4v4h-3z"/>
		<path id="Path 344" class="s12" d="m259 591v-7l8-1v8z"/>
		<path id="Path 345" class="s58" d="m273 592l5-8 5-1 2 2-2 11-9-2z"/>
		<path id="Path 346" class="s53" d="m547 605v-9l4-3 1-6 3-4h6v6l-4 2v10z"/>
		<path id="Path 347" class="s74" d="m614 586l15-3 1 4h3l19 14-5 4v4l-13-1-10-9h-10z"/>
		<path id="Path 348" class="s4" d="m939 619l-4-36h6l8 7 4 15v16z"/>
		<path id="Path 349" class="s34" d="m190 586l7-1 2 4-9-1z"/>
		<path id="Path 350" class="s34" d="m321 593v-8h14 18l3 8 13 2 4 4h6l1-4h15v8l2 18h-15l-9 4-29-2-1 6h-12l-5-8 9-6h24l4-4v-7l-9-7z"/>
		<path id="Path 351" class="s58" d="m380 595l-1 4h-6l-4-4-13-2-3-8h18v6l4 4z"/>
		<path id="Path 352" class="s12" d="m577 595l2-10h4l2 8z"/>
		<path id="Path 353" class="s62" d="m177 589l13-1 9 1 3 2v3l-3 2 2 23v4l-14-4v-8l-5-10-31 4v-5l4-5z"/>
		<path id="Path 354" class="s67" d="m395 595l3-6h5 2v6l-6 8h-4z"/>
		<path id="Path 355" class="s75" d="m421 593l18-4 18 3-3 17-7 4-16-1-15-6-3-10z"/>
		<path id="Path 356" class="s74" d="m863 597l4-3v-5l16 3 5 7 12 7v4z"/>
		<path id="Path 357" class="s57" d="m113 595l1-4h7l18 8 12 1v5l-1 4z"/>
		<path id="Path 358" class="s31" d="m226 597l-1-6h6v6z"/>
		<path id="Path 359" class="s44" d="m231 597v-6h6 12 2v6l-10 2h-4z"/>
		<path id="Path 360" class="s46" d="m251 597v-6h8v8z"/>
		<path id="Path 361" class="s47" d="m259 599v-8h8l6 1 1 2-3 7-6 1z"/>
		<path id="Path 362" class="s18" d="m295 602l3-7 16-2-6 15-6-2z"/>
		<path id="Path 363" class="s67" d="m308 608l6-15h7l33 4 9 7v7l-4 4h-24l-9 6h-2l-12-9z"/>
		<path id="Path 364" class="s73" d="m661 602v-4l7-5 19 4v18h-8z"/>
		<path id="Path 365" class="s11" d="m201 619l-2-23 3-2 4 4v5l5 1 1 7-1 8z"/>
		<path id="Path 366" class="s16" d="m271 601l3-7 9 2 2 2-2 5z"/>
		<path id="Path 367" class="s76" d="m687 597l4-3 5 9-3 14-6-2z"/>
		<path id="Path 368" class="s77" d="m223 613l3-16h5l6 2v4l3 6-7 4z"/>
		<path id="Path 369" class="s36" d="m241 599l10-2 8 2 6 3v15l-3 5-22-13-3-6 4-1z"/>
		<path id="Path 370" class="s23" d="m283 603l2-5 10 4 7 4-1 5-18-2z"/>
		<path id="Path 371" class="s29" d="m237 603v-4h4v3z"/>
		<path id="Path 372" class="s18" d="m471 607l1-8h15l1 4-1 4-15 2z"/>
		<path id="Path 373" class="s78" d="m613 609l1-10h10l10 9 13 1v14l-3 18-20-17 1-4-8-7z"/>
		<path id="Path 374" class="s18" d="m151 605l31-4 5 10v8l-37-10z"/>
		<path id="Path 375" class="s27" d="m265 602l6-1 12 2v6l-6 3v5h-12z"/>
		<path id="Path 376" class="s79" d="m647 609v-4l5-4 9 1 18 13v6l-9 6-1 6v6l8 11-5 3h-3l-15-6 1-22-8-2z"/>
		<path id="Path 377" class="s80" d="m397 621l-2-18h4l6 9 22 5v7l-28 1z"/>
		<path id="Path 378" class="s58" d="m479 623l1-7 26-8 3-5h4l2 2 2 10-4 3v5l-5 2h-15z"/>
		<path id="Path 379" class="s53" d="m515 605l20-2 5 4-23 8z"/>
		<path id="Path 380" class="s28" d="m301 611l1-5 6 2 4 4-4 4-1 9h-6z"/>
		<path id="Path 381" class="s67" d="m457 627v-9l5-4 1-6 8-1 1 2-3 16-10 2z"/>
		<path id="Path 382" class="s62" d="m233 613l7-4 22 13 4 3-1 10-36-6 4-6z"/>
		<path id="Path 383" class="s26" d="m277 617v-5l6-3 18 2v14 8l-16 1-4-3z"/>
		<path id="Path 384" class="s81" d="m610 611l3-2 4 4-3 2z"/>
		<path id="Path 385" class="s81" d="m211 619l1-8 9 2-2 6z"/>
		<path id="Path 386" class="s16" d="m307 625l1-9 4-4 12 9-1 6h-8z"/>
		<path id="Path 387" class="s57" d="m211 619h8l2-6h2 10v10l-4 6-28-6v-4z"/>
		<path id="Path 388" class="s82" d="m614 615l3-2 8 7-1 4z"/>
		<path id="Path 389" class="s83" d="m677 650l-8-11v-6l1-6 9-6v-6h8l6 2-7 27z"/>
		<path id="Path 390" class="s32" d="m262 622l3-5h12l4 14-7-2-8-4z"/>
		<path id="Path 391" class="s67" d="m427 624v-7l16 3 4 4v5h-12z"/>
		<path id="Path 392" class="s50" d="m513 623v-5l4 1-1 4z"/>
		<path id="Path 393" class="s45" d="m513 623h3l1-4 15 2-4 27-20-6-1-7 1-10z"/>
		<path id="Path 394" class="s41" d="m323 627l1-6h2l5 8v4h-5z"/>
		<path id="Path 395" class="s58" d="m343 629l1-6 29 2 9-4h15l2 4v8h-9l-1 4h-8l-22-2h-8z"/>
		<path id="Path 396" class="s56" d="m528 648l4-27 5 2 9 5 3 1 4 6 2 6-1 8z"/>
		<path id="Path 397" class="s60" d="m473 625l6-2 14 2v14l-22-4z"/>
		<path id="Path 398" class="s38" d="m546 628l-9-5 6 1z"/>
		<path id="Path 399" class="s84" d="m644 641l3-18 8 2-1 22z"/>
		<path id="Path 400" class="s53" d="m399 625l28-1 8 5v9l-24 3-8-2-4-6z"/>
		<path id="Path 401" class="s11" d="m265 635l1-10 8 4-2 7z"/>
		<path id="Path 402" class="s24" d="m301 633v-8h6l8 2v4l-1 2z"/>
		<path id="Path 403" class="s63" d="m459 627l10-2h4l-2 10-12-2z"/>
		<path id="Path 404" class="s49" d="m493 639v-14h15l-1 10h-7l-3 4z"/>
		<path id="Path 405" class="s35" d="m315 631v-4h8l3 6-1 1z"/>
		<path id="Path 406" class="s61" d="m455 629l2-2h2v6l-4 1z"/>
		<path id="Path 407" class="s68" d="m272 636l2-7 7 2 4 3v3z"/>
		<path id="Path 408" class="s12" d="m331 633v-4h12l8 6v7l-20-2z"/>
		<path id="Path 409" class="s58" d="m435 638v-9h12 2v7z"/>
		<path id="Path 410" class="s65" d="m449 636v-7h6v5z"/>
		<path id="Path 411" class="s14" d="m553 635l-4-6 6 5z"/>
		<path id="Path 412" class="s22" d="m314 633l1-2 10 3 2 7-10 4z"/>
		<path id="Path 413" class="s30" d="m285 634l16-1h13l3 12-7 1-16-8-9-1z"/>
		<path id="Path 414" class="s46" d="m325 634l1-1h5v7l-4 1z"/>
		<path id="Path 415" class="s51" d="m389 637l1-4h9l4 6v3h-14z"/>
		<path id="Path 416" class="s9" d="m553 635l2-1 4 7h-4z"/>
		<path id="Path 417" class="s51" d="m351 642v-7h8v7z"/>
		<path id="Path 418" class="s11" d="m359 642v-7l22 2v5z"/>
		<path id="Path 419" class="s46" d="m497 639l3-4h7l1 7z"/>
		<path id="Path 420" class="s53" d="m381 642v-5h8v5z"/>
		<path id="Path 421" class="s11" d="m403 642v-3l8 2z"/>
		<path id="Path 422" class="s76" d="m554 649l1-8h4l2 3-2 4z"/>
	</g>
</svg>