<svg version="1.2" xmlns="http://www.w3.org/2000/svg" viewBox="0 0 1000 1000" width="1000" height="1000">
	<title>Micropterus_salmoides</title>
	<style>
		.s0 { opacity: .6;fill: #edeae6 } 
		.s1 { opacity: .3;fill: #eeeae7 } 
		.s2 { opacity: .1;fill: #c5c4c5 } 
		.s3 { opacity: .1;fill: #eeebe9 } 
		.s4 { opacity: .5;fill: #676566 } 
		.s5 { opacity: .8;fill: #514f4f } 
		.s6 { opacity: .3;fill: #838284 } 
		.s7 { fill: #080506 } 
		.s8 { fill: #0f0d10 } 
		.s9 { opacity: .2;fill: #a09fa0 } 
		.s10 { fill: #171518 } 
		.s11 { fill: #1f1c20 } 
		.s12 { opacity: .7;fill: #838184 } 
		.s13 { opacity: .3;fill: #c5c3c4 } 
		.s14 { fill: #bab5ac } 
		.s15 { opacity: .9;fill: #848082 } 
		.s16 { opacity: 1;fill: #403f49 } 
		.s17 { opacity: 1;fill: #393533 } 
		.s18 { opacity: .5;fill: #817f81 } 
		.s19 { fill: #2b292d } 
		.s20 { opacity: .4;fill: #a2a0a2 } 
		.s21 { fill: #150c08 } 
		.s22 { fill: #1e150e } 
		.s23 { fill: #423726 } 
		.s24 { fill: #555049 } 
		.s25 { fill: #281c11 } 
		.s26 { opacity: .3;fill: #504f51 } 
		.s27 { fill: #878788 } 
		.s28 { fill: #4e4430 } 
		.s29 { fill: #5d5238 } 
		.s30 { opacity: .9;fill: #666465 } 
		.s31 { opacity: 1;fill: #9697a1 } 
		.s32 { fill: #292423 } 
		.s33 { fill: #5a5a68 } 
		.s34 { fill: #32313c } 
		.s35 { fill: #302517 } 
		.s36 { fill: #372d1e } 
		.s37 { fill: #686772 } 
		.s38 { fill: #48433e } 
		.s39 { fill: #757580 } 
		.s40 { fill: #4c4c59 } 
		.s41 { opacity: .8;fill: #a5a1a3 } 
		.s42 { fill: #757167 } 
		.s43 { fill: #c1c1c0 } 
		.s44 { fill: #5f5a53 } 
		.s45 { fill: #f3f2f1 } 
		.s46 { fill: #ca9a7b } 
		.s47 { fill: #e3e0dd } 
		.s48 { fill: #686256 } 
		.s49 { fill: #a7a6a0 } 
		.s50 { fill: #48361d } 
		.s51 { fill: #7e7c74 } 
		.s52 { opacity: .6;fill: #c9c5c5 } 
		.s53 { fill: #6a4931 } 
		.s54 { fill: #3f2614 } 
		.s55 { fill: #fafaf9 } 
		.s56 { fill: #9f9c8f } 
		.s57 { fill: #eae9e7 } 
		.s58 { fill: #b1aea5 } 
		.s59 { fill: #8c674e } 
		.s60 { fill: #544525 } 
		.s61 { opacity: .8;fill: #edeae5 } 
		.s62 { fill: #b38a65 } 
		.s63 { fill: #d9d8d8 } 
		.s64 { fill: #918b7a } 
		.s65 { fill: #867f69 } 
		.s66 { fill: #746d5b } 
		.s67 { fill: #5d3a26 } 
		.s68 { fill: #522e1b } 
		.s69 { fill: #948b66 } 
		.s70 { fill: #6a5f3d } 
		.s71 { fill: #706744 } 
		.s72 { fill: #bfb6a0 } 
		.s73 { fill: #cccbcb } 
		.s74 { fill: #8f8554 } 
		.s75 { fill: #62542e } 
		.s76 { fill: #aba592 } 
		.s77 { fill: #a0927d } 
		.s78 { fill: #7b704d } 
		.s79 { fill: #cdc2ae } 
		.s80 { fill: #a09b70 } 
		.s81 { fill: #969387 } 
		.s82 { fill: #827440 } 
		.s83 { fill: #837b4d } 
		.s84 { fill: #a17b57 } 
		.s85 { fill: #b1a581 } 
		.s86 { fill: #746638 } 
		.s87 { fill: #bcad8f } 
		.s88 { fill: #e1dad1 } 
		.s89 { fill: #cdc5bb } 
		.s90 { fill: #c1bcb3 } 
		.s91 { fill: #d4d2d1 } 
		.s92 { fill: #dbd2c7 } 
		.s93 { fill: #d4cbc1 } 
		.s94 { opacity: .9;fill: #d4ccc8 } 
		.s95 { fill: #d6a969 } 
		.s96 { fill: #c1975b } 
		.s97 { fill: #7f583b } 
		.s98 { fill: #95663d } 
	</style>
	<g id="Background">
		<path id="Path 0" class="s0" d="m109 495h1v1h-1z"/>
		<path id="Path 1" class="s1" d="m949 440h1v1h-1z"/>
		<path id="Path 2" class="s2" d="m154 393h1v1h-1z"/>
		<path id="Path 3" class="s2" d="m152 392h1v1h-1z"/>
		<path id="Path 4" class="s3" d="m184 390h4l1 3h-8z"/>
		<path id="Path 5" class="s4" d="m662 348l-9-3-5 2v-3z"/>
		<path id="Path 6" class="s5" d="m633 342h1v1h-1z"/>
		<path id="Path 7" class="s6" d="m835 302l10-3 5 3h-1l-5 1-1-3z"/>
		<path id="Path 8" class="s7" d="m835 302l8-2 1 3v5h-8l-4-3 1-2z"/>
		<path id="Path 9" class="s8" d="m844 303l5-1 3 2v1l-2 3h-6z"/>
		<path id="Path 10" class="s4" d="m850 302l3-1v3h-1l-3-2z"/>
		<path id="Path 11" class="s5" d="m828 306l5-3-1 2z"/>
		<path id="Path 12" class="s9" d="m852 305v-1h1 6l-1 3-3-2z"/>
		<path id="Path 13" class="s10" d="m828 306l4-1 4 3 2 13-11 9-7-11-2-4 7-7z"/>
		<path id="Path 14" class="s11" d="m844 308h6l2-3h3l2 2 2 5-1 6 6-1-1 8 2 6h3l-1 4v1l-4 2 2 4-11 10-5 4-10 1-7-2-2-13-4-1 1-11 11-9-2-13z"/>
		<path id="Path 15" class="s4" d="m857 307l-2-2 3 2z"/>
		<path id="Path 16" class="s9" d="m859 312l-2-5h1l5 4-1 3h-1z"/>
		<path id="Path 17" class="s4" d="m814 317v-3l11-6-7 7-2 2z"/>
		<path id="Path 18" class="s5" d="m864 317l-6 1 1-6 2 2-1 2z"/>
		<path id="Path 19" class="s2" d="m864 317l-4-1 1-2h1l4 1-1 2z"/>
		<path id="Path 20" class="s8" d="m816 317l2-2 2 4z"/>
		<path id="Path 21" class="s7" d="m801 331l13-14h2l4 2 7 11-1 11-4 2v13l-1 1-3 1-20-4-16 13v11l-4 2v6l-6 1-2 13-5 4v7l-3 2-9-7v-1l6-9 2-4 10-18 3-5 5-8 2-3 4-6 3-4 10-13z"/>
		<path id="Path 22" class="s12" d="m867 335l1-4h-3l-2-6 1-8h1 1l-1 7 4 1v4z"/>
		<path id="Path 23" class="s2" d="m869 325l-4-1 1-7z"/>
		<path id="Path 24" class="s13" d="m867 335l2-6 2 4-3 6 7-1-1 4h-1l-5-1h-1v-5z"/>
		<path id="Path 25" class="s14" d="m865 342l-2-4 4-2v5z"/>
		<path id="Path 26" class="s15" d="m868 341l5 1 1 6-4 4 1-7z"/>
		<path id="Path 27" class="s10" d="m822 356v-13l4-2 4 1 2 13-2 3z"/>
		<path id="Path 28" class="s16" d="m865 342l2-1h1l3 4-1 7h4l-2 4 3 13-2 11-4 1-5-5-2-10-1-8-7-6z"/>
		<path id="Path 29" class="s10" d="m460 343l5-1v3l1 7 1 2-1 4h-6l-1-5h-5l-2-3 4-4z"/>
		<path id="Path 30" class="s6" d="m634 343v-1l8 1z"/>
		<path id="Path 31" class="s1" d="m874 348l-1-6h1l2 6z"/>
		<path id="Path 32" class="s4" d="m414 344h4v9l-4-8z"/>
		<path id="Path 33" class="s4" d="m424 353l13-10 3 1 2 7h-2l-4-6-10 9h-2z"/>
		<path id="Path 34" class="s6" d="m624 344l5-1-3 1z"/>
		<path id="Path 35" class="s17" d="m626 344l3-1h4 1 8 2l4 1v3l5-2 9 3 5 4-2 1-2 7h-2l-5-4h-10-14l-7-4z"/>
		<path id="Path 36" class="s18" d="m411 347l3-3v1z"/>
		<path id="Path 37" class="s9" d="m611 346l8-2-3 2h-4z"/>
		<path id="Path 38" class="s19" d="m616 346l3-2h5 2l-1 8h-5v-4z"/>
		<path id="Path 39" class="s10" d="m411 347l3-2 4 8h1l1 1-4 10h-6l-7-6v-1l2-2 2-3z"/>
		<path id="Path 40" class="s10" d="m426 354l10-9 4 6-10 9h-4z"/>
		<path id="Path 41" class="s20" d="m445 351l11-5-4 4-4 1z"/>
		<path id="Path 42" class="s20" d="m476 351l8-5v1z"/>
		<path id="Path 43" class="s6" d="m484 347v-1h4v8h-2z"/>
		<path id="Path 44" class="s6" d="m607 347l4-1h1z"/>
		<path id="Path 45" class="s11" d="m607 347l5-1h4l4 2v4l-8 3-5-7z"/>
		<path id="Path 46" class="s10" d="m476 351l8-4 2 7v1l-7 2-4-4z"/>
		<path id="Path 47" class="s6" d="m602 348l5-1v1h-4z"/>
		<path id="Path 48" class="s12" d="m496 353l7-5h7l-2 4v-3h-3l-9 5z"/>
		<path id="Path 49" class="s4" d="m594 351l8-3h1z"/>
		<path id="Path 50" class="s21" d="m594 351l9-3h4l5 7 2 8-5 4-8 1-10-11v-4l2-2z"/>
		<path id="Path 51" class="s20" d="m667 352l-5-4h4z"/>
		<path id="Path 52" class="s13" d="m870 352l4-4h2v4h-2z"/>
		<path id="Path 53" class="s6" d="m396 352l3-2 1 6 5-3v2l-2 2h-3z"/>
		<path id="Path 54" class="s22" d="m496 354l9-5h3v3 4l2 2 2-2 3-2h4l-1 5 1 4-15 10-3-3h-35v-12l1-4 6-1h2l4 4 7-2z"/>
		<path id="Path 55" class="s22" d="m448 351l4-1 2 3 2 5v10h-12z"/>
		<path id="Path 56" class="s21" d="m430 360l10-9h2 3 3l-4 17-10 2-4-6z"/>
		<path id="Path 57" class="s20" d="m473 353l3-2-1 2z"/>
		<path id="Path 58" class="s4" d="m587 353l6-2-2 2z"/>
		<path id="Path 59" class="s8" d="m393 356l3-4 4 5 3 1 7 6v4l-22 2v-1l2-6v-1z"/>
		<path id="Path 60" class="s5" d="m405 353l2-1-2 3z"/>
		<path id="Path 61" class="s20" d="m467 354l-1-2 7 1z"/>
		<path id="Path 62" class="s5" d="m515 353l6-1-2 7h-1l1-5h-4z"/>
		<path id="Path 63" class="s23" d="m612 355l8-3h5l7 4 2 21-4 2v9l-11 2h-1l-10-19 1-4 5-4z"/>
		<path id="Path 64" class="s20" d="m665 353l2-1 1 4h7v1l-4 1z"/>
		<path id="Path 65" class="s6" d="m780 358l5-6-4 6z"/>
		<path id="Path 66" class="s24" d="m849 356l5-4 7 6 1 8-9-2z"/>
		<path id="Path 67" class="s20" d="m875 369l-3-13 2-4h2l-1 10 2 2v6z"/>
		<path id="Path 68" class="s6" d="m420 354l-1-1h5v1z"/>
		<path id="Path 69" class="s25" d="m456 358l-2-5h5l1 5z"/>
		<path id="Path 70" class="s4" d="m488 354l8-1v1l-10 1v-1z"/>
		<path id="Path 71" class="s26" d="m512 356l3-3v1z"/>
		<path id="Path 72" class="s4" d="m581 354l6-1-6 2z"/>
		<path id="Path 73" class="s22" d="m581 355l6-2h4v4l10 11 3 4v18l-6 8-6-5-9-1-2-5-7-2-1-4-11-4v-6l2-9 13-6z"/>
		<path id="Path 74" class="s27" d="m663 360l2-7 6 5v1z"/>
		<path id="Path 75" class="s21" d="m410 364h6l4-10h4 2v6 4l-3 5-13-1z"/>
		<path id="Path 76" class="s6" d="m577 356l4-2v1z"/>
		<path id="Path 77" class="s2" d="m677 356l2-2v4h-1z"/>
		<path id="Path 78" class="s21" d="m782 378v-11l16-13 20 4 2 12-5 7-2 1h-9-13z"/>
		<path id="Path 79" class="s19" d="m822 356l8 2 2-3 7 2-1 17h-6l-6-4v-9l-5-4z"/>
		<path id="Path 80" class="s26" d="m512 356l-2 2-2-2z"/>
		<path id="Path 81" class="s28" d="m634 377l-2-21h14v6l8 9 1 6 9-3-3-14h2l8-1 12 13 1 11 1 3-13 16h-7l-1 4h-4l-3-1v-6h-6l-3-5-6-1v-8z"/>
		<path id="Path 82" class="s29" d="m661 360l3 14-9 3-1-6-8-9v-6h10z"/>
		<path id="Path 83" class="s15" d="m675 357v-1h2l1 2v1z"/>
		<path id="Path 84" class="s17" d="m839 357l10-1 4 8 9 2 2 10 5 5-1 6 5 4 5 22-4 3h-4l-6-9h-6l-1-2-2-10-9 2-2-13-6-4v-6z"/>
		<path id="Path 85" class="s5" d="m403 358l-3-1h3z"/>
		<path id="Path 86" class="s4" d="m527 361l8-4 2 4-2 1v-3l-6 2z"/>
		<path id="Path 87" class="s17" d="m671 358l4-1 3 2 20 21 3 16-1 4-2 5-4 7-2 1v-5l-3-1-3-5h-5l-3 7h-8l-6-3 1-4h7l13-16 2-3h-3l-1-11-12-13z"/>
		<path id="Path 88" class="s11" d="m818 358l3-1 5 4v9h-6z"/>
		<path id="Path 89" class="s21" d="m456 368v-10h4 6v12h-2-8z"/>
		<path id="Path 90" class="s20" d="m678 359v-1h1l9 4-2 2 10 9 3 7h-1z"/>
		<path id="Path 91" class="s4" d="m779 361l1-3h1z"/>
		<path id="Path 92" class="s30" d="m519 363l-1-4h1l2 4 6-2h2l-3 3z"/>
		<path id="Path 93" class="s8" d="m529 361l6-2v3l-2 3-1 4-15 2-1 6-12 1v-5l15-10 7 1z"/>
		<path id="Path 94" class="s22" d="m426 364v-4h4v4z"/>
		<path id="Path 95" class="s2" d="m387 366l3-4v1z"/>
		<path id="Path 96" class="s6" d="m550 367l12-5-9 5z"/>
		<path id="Path 97" class="s7" d="m553 367l9-5h2l-2 9z"/>
		<path id="Path 98" class="s5" d="m387 366l3-3-2 6-4 3z"/>
		<path id="Path 99" class="s7" d="m410 368l13 1 3-5h4l4 6 10-2h12v2 6h-6l-14 4v-4l-4-2-32 2-7 2-5-3v-5z"/>
		<path id="Path 100" class="s9" d="m532 369l1-4 1 4z"/>
		<path id="Path 101" class="s8" d="m546 369l4-2h3l9 4v6l-2 4-14 1-4-2v-10z"/>
		<path id="Path 102" class="s28" d="m601 368l8-1-1 4-4 1z"/>
		<path id="Path 103" class="s11" d="m384 372l4-3v1 5l5 3-1 6h-7l-3-2v-6z"/>
		<path id="Path 104" class="s7" d="m516 377l1-6 15-2h2l6 1h2v10l-8 2h-4l-8-2z"/>
		<path id="Path 105" class="s9" d="m540 370l-6-1h6z"/>
		<path id="Path 106" class="s6" d="m540 370v-1h6l-4 1z"/>
		<path id="Path 107" class="s31" d="m873 380l2-11 2 1v2 5z"/>
		<path id="Path 108" class="s8" d="m456 376v-6h8l-1 6h-5z"/>
		<path id="Path 109" class="s7" d="m463 376l1-6h2 35l3 3v5h-6l-16 2-4-4-14 1z"/>
		<path id="Path 110" class="s17" d="m815 377l5-7h6l6 4v13l-4 2-3-7h-7v-4z"/>
		<path id="Path 111" class="s21" d="m604 372l4-1 10 19h-14z"/>
		<path id="Path 112" class="s20" d="m877 377v-5l2 7-1-2z"/>
		<path id="Path 113" class="s19" d="m400 376l32-2 4 2v4h-15l-2 4h-19z"/>
		<path id="Path 114" class="s32" d="m828 389l4-2v-13h6v6l6 4 2 13-5 7h-6l-7-9z"/>
		<path id="Path 115" class="s33" d="m381 378l1-2v6l3 2-1 4h-6v-6z"/>
		<path id="Path 116" class="s34" d="m393 378l7-2v8l-4 2-4-2z"/>
		<path id="Path 117" class="s16" d="m436 380l14-4 1 4h7l6-3 14-1 4 4 16-2 4 12 2 6 10 2v6l10 14v11l-16-1-11-6-21 2-18-9-9 6-8-1-7-7v-8l-6-7v-8l-9-6 2-4z"/>
		<path id="Path 118" class="s34" d="m458 380h-7l-1-4h6 2z"/>
		<path id="Path 119" class="s11" d="m458 380v-4h5l1 1z"/>
		<path id="Path 120" class="s34" d="m504 378l12-1 6 3v6 2l-20 2-4-12z"/>
		<path id="Path 121" class="s21" d="m560 381l2-4 11 4 1 4-4 2h-5z"/>
		<path id="Path 122" class="s35" d="m630 388v-9l4-2 8 8v8 1h-8z"/>
		<path id="Path 123" class="s23" d="m813 378l2-1 3 1v4l-1 10 6 4-5 5v7l-3 2h-5l-12-4v-15l7-7h7z"/>
		<path id="Path 124" class="s11" d="m873 380l4-3h1l-2 5 4-1-1 3 6 4 6-1 1 4-2 25h-4l-8-3-5-22-5-4 1-6z"/>
		<path id="Path 125" class="s12" d="m892 391l-1-4-6 1-6-4 1-3-4 1 2-5 1 2 14 9v1z"/>
		<path id="Path 126" class="s9" d="m362 381h17l2-3-3 4h-16z"/>
		<path id="Path 127" class="s25" d="m778 386v-6l4-2h9l1 12 6 1v15l-6 6h-10l-7-4-1-8z"/>
		<path id="Path 128" class="s35" d="m798 391l-6-1-1-12h13l1 6z"/>
		<path id="Path 129" class="s36" d="m805 384l-1-6h9l-1 6z"/>
		<path id="Path 130" class="s16" d="m522 386v-6l8 2v4z"/>
		<path id="Path 131" class="s16" d="m534 382l8-2 4 2v5l-12-2z"/>
		<path id="Path 132" class="s6" d="m701 396l-3-16h1l3 6z"/>
		<path id="Path 133" class="s20" d="m342 383l20-2v1l-20 2z"/>
		<path id="Path 134" class="s34" d="m546 382l14-1 5 6h5l3 7v8l-1 3-3-5h-8l-6-9-9-4z"/>
		<path id="Path 135" class="s37" d="m342 384l20-2h16v6l-8 3-2 5h-14l-4-1-2 3-8-2-4-4v-8z"/>
		<path id="Path 136" class="s19" d="m530 386v-4h4v3z"/>
		<path id="Path 137" class="s36" d="m823 396l-6-4 1-10h7l3 7v6z"/>
		<path id="Path 138" class="s9" d="m336 384l6-1v1z"/>
		<path id="Path 139" class="s38" d="m685 386l-1-3h3z"/>
		<path id="Path 140" class="s39" d="m316 386l17-2h3v8l-10 4h-8l-18-3v-6h2l10-1z"/>
		<path id="Path 141" class="s40" d="m378 388h6l1-4h7l4 2 4-2h19l9 6v8l6 7v8l7 7-3 7h-8v-6l-6-5h-5l-4-5h-5l-1-3h-6l-17 4-4-2v-9l-3-3h-8l-3-2 2-5z"/>
		<path id="Path 142" class="s33" d="m530 386l4-1 12 2 9 4 6 9h8l3 5-1 3-4 1v4l-7-1-1-4-5-2-8-6-5 1-17-5-2-8v-2z"/>
		<path id="Path 143" class="s11" d="m570 387l4-2 7 2 2 5v4l-10-2z"/>
		<path id="Path 144" class="s21" d="m770 400l2-13 6-1-4 14z"/>
		<path id="Path 145" class="s2" d="m288 388l4-1v1z"/>
		<path id="Path 146" class="s20" d="m292 388v-1h4z"/>
		<path id="Path 147" class="s27" d="m292 388l4-1h4v6l-12 1h-7l-1-5 6-1h2z"/>
		<path id="Path 148" class="s41" d="m123 390l11-1v1h-4l-7 1z"/>
		<path id="Path 149" class="s20" d="m274 389l12-1-6 1z"/>
		<path id="Path 150" class="s40" d="m502 390l20-2 2 8-10 2-10-2z"/>
		<path id="Path 151" class="s7" d="m619 390l11-2 4 6h8l2 2v4l7-1h6v6l3 1v16h-5l-6 1-6-3-1-6-7 2-5-2v-9l-11-10z"/>
		<path id="Path 152" class="s20" d="m893 389v-1l17 9v1l-3-1z"/>
		<path id="Path 153" class="s2" d="m134 390v-1l16 3h-8l-7-1z"/>
		<path id="Path 154" class="s9" d="m261 390l3-1v1h-2z"/>
		<path id="Path 155" class="s20" d="m264 390v-1h8z"/>
		<path id="Path 156" class="s39" d="m264 390l8-1h2 6l1 5-3 4-6 3-4-4-6-3v-3-1z"/>
		<path id="Path 157" class="s8" d="m892 391l1-2 14 8 1 5-2 5 4 8 13 14v11h-15l-1-9-17-15z"/>
		<path id="Path 158" class="s20" d="m117 407l-1-13 7-4v1l-6 5 1 7v4z"/>
		<path id="Path 159" class="s42" d="m123 391l7-1-4 14h-6l-2-1-1-7z"/>
		<path id="Path 160" class="s31" d="m126 404l4-14h4l1 1v11l-3 10-1 1-1-10-4 3z"/>
		<path id="Path 161" class="s20" d="m248 391l13-1h1v1l-6 1h-8z"/>
		<path id="Path 162" class="s8" d="m598 398l6-8h14 1v5l11 10v9l-1 2h-5-2l-1-5-9-2-7 1-5-4z"/>
		<path id="Path 163" class="s43" d="m135 402v-11l7 1 2 5-4 5z"/>
		<path id="Path 164" class="s2" d="m243 392l5-1v1z"/>
		<path id="Path 165" class="s27" d="m256 392l6-1v3h-6z"/>
		<path id="Path 166" class="s15" d="m144 397l-2-5h8 2l1 1h1l1 1v2h-5l-5 1z"/>
		<path id="Path 167" class="s39" d="m237 393l5-1h1 5 8v2 2h-10l-11 4-6 1-11 3h-13-5l-7-8h2 27l8-2z"/>
		<path id="Path 168" class="s40" d="m326 396l10-4 4 4-1 5-8 2z"/>
		<path id="Path 169" class="s34" d="m583 396v-4l9 1 6 5 2 8 5 4-1 5-4 4-4-1-2-11h-4l-2 4-1-5v-7z"/>
		<path id="Path 170" class="s40" d="m288 394l12-1 18 3-2 3-8 2-4-3-2 3-13-4z"/>
		<path id="Path 171" class="s8" d="m642 394v-1l6 1-4 2z"/>
		<path id="Path 172" class="s2" d="m155 396v-2l2 3z"/>
		<path id="Path 173" class="s3" d="m178 396l11-2 6 2h-2-5z"/>
		<path id="Path 174" class="s40" d="m256 396v-2h6l6 3-2 4-9-1z"/>
		<path id="Path 175" class="s34" d="m278 398l3-4h7l1 3-1 3h-10z"/>
		<path id="Path 176" class="s33" d="m573 402v-8l10 2 4 3v7h-4l-1-4z"/>
		<path id="Path 177" class="s17" d="m644 396l4-2 3 5-7 1z"/>
		<path id="Path 178" class="s39" d="m178 396h10l-2 2h-8l-1-1v-1z"/>
		<path id="Path 179" class="s34" d="m340 396l8 2 2-3 4 1-2 8 2 11 4 2v8l5 3v6l-2 2-14-8-7 2v5l-4 1-8-4 3-5h5v-3l-8-3-2-9-4 1-5-4 1-7 13 1 8-2z"/>
		<path id="Path 180" class="s25" d="m823 396l5-1 7 9h6l7 5 2 5v6h-13-9-6l1-5 5-3v-5l-7 2-3-1v-7z"/>
		<path id="Path 181" class="s7" d="m846 397l9-2 2 10-9 4-7-5z"/>
		<path id="Path 182" class="s44" d="m145 397l5-1-2 6z"/>
		<path id="Path 183" class="s37" d="m148 402l2-6h5l2 1 7 1h3v5l5 4-3 13h-2l-5-7v-8l-6 3h-6z"/>
		<path id="Path 184" class="s41" d="m164 398l13-2v1l-10 1z"/>
		<path id="Path 185" class="s33" d="m186 398l2-2h5l7 8h-2-12z"/>
		<path id="Path 186" class="s40" d="m235 400l11-4v5l-11 1z"/>
		<path id="Path 187" class="s16" d="m246 401v-5h10l1 4z"/>
		<path id="Path 188" class="s16" d="m316 399l2-3h8l5 7-13-1z"/>
		<path id="Path 189" class="s19" d="m363 434v-6l-5-3v-8l-4-2-2-11 2-8h14l3 2v8l7 4 3 11 5 1v10l-1 1z"/>
		<path id="Path 190" class="s19" d="m514 398l10-2 17 5-1 12-11 5h-5l-10-14z"/>
		<path id="Path 191" class="s2" d="m700 400l1-4-1 7z"/>
		<path id="Path 192" class="s31" d="m140 402l4-5h1l3 5 2 6v6l-3 1-6-3z"/>
		<path id="Path 193" class="s38" d="m167 398l10-1 1 1v5l-3 3-3 1-5-4z"/>
		<path id="Path 194" class="s19" d="m266 401l2-4 4 4 6-3v2l-1 2-4 3z"/>
		<path id="Path 195" class="s11" d="m288 400l1-3 13 4 2-3 4 3 8-2 2 3-1 7-2 3-5 2-3-3 2 11 5 1 3 2 1 11 8 2v6l-2 3h-2v-1-4l-3 1-7 5-2-4h-8v-4l1-11-2-5h-3l-4-8-1-9h-5z"/>
		<path id="Path 196" class="s40" d="m908 402l-1-5 3 1v3h5l2 1-1 3z"/>
		<path id="Path 197" class="s9" d="m910 398v-1l5 3v1h-5z"/>
		<path id="Path 198" class="s16" d="m178 403v-5h8v6z"/>
		<path id="Path 199" class="s16" d="m378 410l-7-4v-8h8l3 3v9z"/>
		<path id="Path 200" class="s34" d="m229 401l6-1v2l-3 3h-2z"/>
		<path id="Path 201" class="s11" d="m246 401l11-1 9 1 7 4-1 9-3 3-8-1-9 4h-4l-1 4 5 4v6h-3l-2 2-9-2-4-6h-6v-2-1l1-5h5l-2-8v-7l3-3z"/>
		<path id="Path 202" class="s14" d="m242 427l7 3-4 2z"/>
		<path id="Path 203" class="s10" d="m277 402l1-2h10v7 7l-3 2-2-1-6-7z"/>
		<path id="Path 204" class="s34" d="m541 401l5-1 8 6-5 8-9-1z"/>
		<path id="Path 205" class="s6" d="m698 405l2-5v3z"/>
		<path id="Path 206" class="s22" d="m762 413l3-2v-7l5-4h4l1 8 7 4v8l-3 5-7 1-10-1z"/>
		<path id="Path 207" class="s3" d="m915 401v-1l6 2v3l-4-3z"/>
		<path id="Path 208" class="s16" d="m218 404l11-3 1 4-6 7-6-2z"/>
		<path id="Path 209" class="s45" d="m132 412l3-10h5l1 10h-1z"/>
		<path id="Path 210" class="s39" d="m273 405l4-3v6l6 7-2 1-3-5-6 3z"/>
		<path id="Path 211" class="s37" d="m572 405l1-3h9l1 4-3 3-6 5h-3v-6z"/>
		<path id="Path 212" class="s32" d="m678 409l3-7h5l3 5-7 3z"/>
		<path id="Path 213" class="s7" d="m923 440v-11l-13-14-4-8 2-5 8 3 3 1-1 7 5-2 3 3 5 6 4 3-2 3 3 2 1 3h4l1 3-2 7 2 3 2 4-5 8h-11l-4-6z"/>
		<path id="Path 214" class="s12" d="m916 405l1-3 4 3v1h-2z"/>
		<path id="Path 215" class="s46" d="m118 407v-4l2 1 1 14v6h-5l1-14z"/>
		<path id="Path 216" class="s47" d="m126 406l4-3 1 10-1 11h-6l1-6z"/>
		<path id="Path 217" class="s19" d="m175 406l3-3 8 1h12l1 4-3 8-2 7v9h-5l-1 4-8-4v-8l2-11z"/>
		<path id="Path 218" class="s48" d="m121 418l-1-14h6v2l-1 12z"/>
		<path id="Path 219" class="s8" d="m199 408l-1-4h2 5z"/>
		<path id="Path 220" class="s40" d="m199 408l6-4h13v6l-2 4-4 2-10-1-6 1z"/>
		<path id="Path 221" class="s49" d="m156 408l6-3v8l-4-2-1 3h-2z"/>
		<path id="Path 222" class="s32" d="m224 412l6-7h2v7l-2 4z"/>
		<path id="Path 223" class="s23" d="m848 409l9-4 1 2v7h-8z"/>
		<path id="Path 224" class="s1" d="m921 406v-1l4 1 1 4z"/>
		<path id="Path 225" class="s44" d="m172 407l3-1 7 7-2 11h-8l-3-4z"/>
		<path id="Path 226" class="s17" d="m549 414l5-8 5 2 1 4 7 1 4 5-7 6h-12z"/>
		<path id="Path 227" class="s39" d="m580 409l3-3h4l1 5 2-4h4l2 11-3-1v-4h-3l-1 4-3-4-6 2z"/>
		<path id="Path 228" class="s10" d="m660 422v-16h4l6 3-4 4v9z"/>
		<path id="Path 229" class="s8" d="m749 410l4-4 9 7v12l-3 8-7 3h-4v-10l-6-5 4-8z"/>
		<path id="Path 230" class="s50" d="m792 412l6-6 12 4v4l4 1 1-5 3-2 3 1 2 6-1 5-6 5 1 12-3 3-5-6h-7l-2-10-8-4z"/>
		<path id="Path 231" class="s51" d="m926 414l-3-3-5 2 1-7h2l5 4z"/>
		<path id="Path 232" class="s52" d="m116 410l1-3h1l-1 3z"/>
		<path id="Path 233" class="s33" d="m288 414v-7h5l1 9-2-3z"/>
		<path id="Path 234" class="s10" d="m682 410l7-3 3 1v5l-4 3-3 3h-1-2z"/>
		<path id="Path 235" class="s53" d="m821 409l7-2v5l-5 3z"/>
		<path id="Path 236" class="s32" d="m858 414v-7h6l6 9-2 8h-8z"/>
		<path id="Path 237" class="s38" d="m150 414v-6h6l-1 6-1 2z"/>
		<path id="Path 238" class="s17" d="m386 412l17-4h6l1 3 1 23h-7l-12-2v-8l-6-2z"/>
		<path id="Path 239" class="s19" d="m567 413v-4l4-1v6h3v3l-3 1z"/>
		<path id="Path 240" class="s39" d="m605 410l7-1v9h-3l-2 5-3-8z"/>
		<path id="Path 241" class="s16" d="m315 412l2-3 5 4-1 5 4 7-1 1-7-1-3-2z"/>
		<path id="Path 242" class="s34" d="m574 414l6-5v6 2h-6z"/>
		<path id="Path 243" class="s40" d="m612 418v-9l9 2 1 5-4 6z"/>
		<path id="Path 244" class="s19" d="m666 422v-9l4-4h8l4 1v9z"/>
		<path id="Path 245" class="s1" d="m114 427l2-17h1l-1 14z"/>
		<path id="Path 246" class="s39" d="m216 414l2-4 6 2 6 4 2-4 2 8h-5l-2-4z"/>
		<path id="Path 247" class="s38" d="m386 422l-5-1-3-11h4l4 2z"/>
		<path id="Path 248" class="s6" d="m742 414l7-4-3 3z"/>
		<path id="Path 249" class="s54" d="m815 410l-1 5-4-1v-4z"/>
		<path id="Path 250" class="s12" d="m926 414v-4l5 6v4z"/>
		<path id="Path 251" class="s38" d="m157 414l1-3 4 2 5 7 1 6v4l-3 2-3-1-3-3-3-3z"/>
		<path id="Path 252" class="s38" d="m272 414l6-3 3 5 8 8h-16l-4-7z"/>
		<path id="Path 253" class="s37" d="m314 423l-5-1-2-11 3 3 5-2z"/>
		<path id="Path 254" class="s37" d="m322 413l4-1 2 9-1 4h-2l-4-7z"/>
		<path id="Path 255" class="s38" d="m411 434l-1-23h5l4 5 4 12-5 6h-5z"/>
		<path id="Path 256" class="s55" d="m131 413l1-1h8l1 9h4l5 1v9l-3 7-4 8-2 1-11-1-1-9v-7l1-6z"/>
		<path id="Path 257" class="s56" d="m145 421h-4l-1-9h1l6 3z"/>
		<path id="Path 258" class="s36" d="m782 420v-8h10v8z"/>
		<path id="Path 259" class="s16" d="m288 414l4-1 2 3 4 8v2l-4 2-5-4 1-3-5-5z"/>
		<path id="Path 260" class="s38" d="m529 418l11-5 9 1 3 10-4 5 2 21h-10l-5-16z"/>
		<path id="Path 261" class="s40" d="m580 415l6-2 3 4 1-4h3v4l3 1 4 1 5 7v4l13 10 4 8h-4v5l-2-1-2-5-13-1-7-4-4-17-10-8z"/>
		<path id="Path 262" class="s34" d="m742 414l4-1-4 8-5 5-7-2v-4l7-4h1z"/>
		<path id="Path 263" class="s25" d="m874 416l4-3 8 3v8h-12z"/>
		<path id="Path 264" class="s45" d="m147 415l3-1v8l-5-1z"/>
		<path id="Path 265" class="s27" d="m150 422v-8l4 2 1-2h2l-1 11 3 3-4 2-2-2-1 3h-2z"/>
		<path id="Path 266" class="s8" d="m202 415l10 1 1 3-10 1z"/>
		<path id="Path 267" class="s57" d="m212 416l4-2 11 2 2 4-1 5-11-5h-2l-2-1z"/>
		<path id="Path 268" class="s33" d="m629 416l1-2 5 2 3 4-4 2h-4z"/>
		<path id="Path 269" class="s19" d="m635 416l7-2 1 6h-5z"/>
		<path id="Path 270" class="s35" d="m850 420v-6h8l2 10-4 1z"/>
		<path id="Path 271" class="s11" d="m196 416l6-1 1 5-1 2-6 1h-2z"/>
		<path id="Path 272" class="s14" d="m281 416l2-1 2 1 5 5-1 3z"/>
		<path id="Path 273" class="s44" d="m449 421l9-6 18 9v5l-2 4-23-3z"/>
		<path id="Path 274" class="s33" d="m600 419l4-4 3 8-2 3z"/>
		<path id="Path 275" class="s37" d="m624 416h5l1 6-4 1-2-2z"/>
		<path id="Path 276" class="s37" d="m252 420l9-4 8 1 4 7-20 3z"/>
		<path id="Path 277" class="s17" d="m423 428l-4-12h5l6 5v6z"/>
		<path id="Path 278" class="s58" d="m618 422l4-6h2v5l-6 6z"/>
		<path id="Path 279" class="s13" d="m727 420l10-4-7 4z"/>
		<path id="Path 280" class="s22" d="m868 424l2-8h4v8 2z"/>
		<path id="Path 281" class="s10" d="m886 424v-8h4l17 15 1 9v2h-4l-8-11h-7z"/>
		<path id="Path 282" class="s6" d="m931 420v-4l5 7h-1z"/>
		<path id="Path 283" class="s38" d="m571 418l3-1h6l10 8 4 17-2 2h-12l-4-8-8 1-4-13z"/>
		<path id="Path 284" class="s59" d="m121 424v-6h4l-1 6v3z"/>
		<path id="Path 285" class="s44" d="m524 429v-11h5l6 16h-9z"/>
		<path id="Path 286" class="s16" d="m607 423l2-5h3l6 4v5l1 5 5-1 2-8 4-1h4l4 2 1 6 11 3 3 9-5 2v6h-6l-1-3-17 2-2-1-4-8-13-10v-4z"/>
		<path id="Path 287" class="s7" d="m203 420l10-1 2 1 2 2 3 4-2 10-10 2-10-2v-4l1-2h3v-8z"/>
		<path id="Path 288" class="s42" d="m441 420l8 1 2 9-11 1-2-4z"/>
		<path id="Path 289" class="s26" d="m666 422l16-3h2l-17 5-2 1h-2-2l-5-1-1-2h5z"/>
		<path id="Path 290" class="s60" d="m828 420h9l-4 5h-4z"/>
		<path id="Path 291" class="s25" d="m168 426l-1-6h2l3 4-1 1z"/>
		<path id="Path 292" class="s54" d="m217 422l-2-2h2z"/>
		<path id="Path 293" class="s16" d="m217 422v-2l11 5v1h-8z"/>
		<path id="Path 294" class="s24" d="m252 428l-5-4 1-4h4l1 7z"/>
		<path id="Path 295" class="s11" d="m634 422l4-2h5l6 3 2 1-1 6v3l-11-3-1-6z"/>
		<path id="Path 296" class="s20" d="m718 422l9-2-7 3z"/>
		<path id="Path 297" class="s16" d="m720 423l7-3h3v4l-17 8h-6l-7-6 11-2h3z"/>
		<path id="Path 298" class="s23" d="m779 425l3-5h10l8 4 2 10h-14l-4 3-4-2z"/>
		<path id="Path 299" class="s54" d="m817 437l-1-12 6-5h6l1 5h4l4-5h13l6 5v9l-6 4h-4l-5-2-11 8h-7z"/>
		<path id="Path 300" class="s40" d="m327 425l1-4 8 3v3h-5z"/>
		<path id="Path 301" class="s39" d="m618 427l6-6 2 2-2 8-5 1z"/>
		<path id="Path 302" class="s6" d="m649 423l6-1 1 2h-5z"/>
		<path id="Path 303" class="s10" d="m737 426l5-5 6 5v10h-4-5z"/>
		<path id="Path 304" class="s16" d="m196 423l6-1v8h-3z"/>
		<path id="Path 305" class="s36" d="m386 432v-10l6 2v8z"/>
		<path id="Path 306" class="s48" d="m476 424l21-2 11 6-3 9-10 1-11-3-5-1-3-5z"/>
		<path id="Path 307" class="s61" d="m707 423l4-1h4 2l-3 2h-3z"/>
		<path id="Path 308" class="s31" d="m714 424l3-2h1l2 1z"/>
		<path id="Path 309" class="s8" d="m194 432v-9h2l3 7-1 2z"/>
		<path id="Path 310" class="s41" d="m695 425l12-2 4 1-11 2-4 1-1-1z"/>
		<path id="Path 311" class="s9" d="m936 428l-3-2 2-3h1l3 1 2 7h-4z"/>
		<path id="Path 312" class="s62" d="m114 427l2-3h5l3 3v5l2 5-2 9h-4l-6-5v-9z"/>
		<path id="Path 313" class="s63" d="m124 427v-3h6l-1 6-5 2z"/>
		<path id="Path 314" class="s17" d="m171 425l1-1h8v8h-6l-2-1z"/>
		<path id="Path 315" class="s22" d="m253 427l20-3h16l5 4 1 11 3 1v5 3h-6v-3l-4 2-3-2 2-7-5-1h-6v4l-3 1h-3l-3-4h-8l1-4h-8v-6z"/>
		<path id="Path 316" class="s24" d="m298 426v-2h3l2 5z"/>
		<path id="Path 317" class="s24" d="m550 450l-2-21 4-5h12l4 13-4 4v10l10 3v4 3 1l-14 1-6-8h-4z"/>
		<path id="Path 318" class="s10" d="m650 430l1-6h5l5 1v5z"/>
		<path id="Path 319" class="s9" d="m665 425l2-1 7 1v1z"/>
		<path id="Path 320" class="s20" d="m674 425h21v1h-7-7-7z"/>
		<path id="Path 321" class="s11" d="m700 426l7 6h6l17-8 7 2 2 10 1 8v10l6 5 2 11 8 8-2 6-6-2-18-15-10-14-26-1-3-5-1-19 6-1z"/>
		<path id="Path 322" class="s50" d="m856 425l4-1h8l6 2 10 14v8l-5 4h-6l-5-10-12-8z"/>
		<path id="Path 323" class="s35" d="m874 426v-2h12l3 7-1 9h-4z"/>
		<path id="Path 324" class="s36" d="m168 426l3-1 1 6-4-1z"/>
		<path id="Path 325" class="s19" d="m326 438l-8-2-1-11 7 1z"/>
		<path id="Path 326" class="s10" d="m324 426l1-1h2l4 2-3 5 8 4v12l-10-4v-6z"/>
		<path id="Path 327" class="s8" d="m661 430v-5h2l4 2v4l-5 1z"/>
		<path id="Path 328" class="s16" d="m662 432l5-1v-4l-4-2h2l9 1h7l1 2v10l-4 8-3 4h-2l-2-7-10 2-1-3z"/>
		<path id="Path 329" class="s23" d="m759 433l3-8 10 1v8l6 2 1 7-5 1-1 4h-6l-6-6z"/>
		<path id="Path 330" class="s28" d="m772 426l7-1 1 10-2 1-6-2z"/>
		<path id="Path 331" class="s10" d="m218 436l2-10h8v2l-1 4-5 3z"/>
		<path id="Path 332" class="s10" d="m294 428l4-2 5 3-1 11h-4l-3-1z"/>
		<path id="Path 333" class="s39" d="m682 428l-1-2h7v2z"/>
		<path id="Path 334" class="s40" d="m688 428v-2h7l1 1-6 1z"/>
		<path id="Path 335" class="s48" d="m423 428l7-1h8l2 4v9l7 2 6 7-3 7h-5l-4-4-15-2-2-4h-6v-12z"/>
		<path id="Path 336" class="s37" d="m508 428l16 1 2 5v12l3 4-5 1-12-9h-6l-1-5z"/>
		<path id="Path 337" class="s57" d="m152 431l1-3 2 2-2 20-1 7-8 2-2-3 2-5 1-5 3-7z"/>
		<path id="Path 338" class="s31" d="m155 430l4-2 3 3-1 11 5-3 2 18v2l-5 1-4 1 1-5v-4l-5 1v-4l-2 1z"/>
		<path id="Path 339" class="s28" d="m227 432l1-4h6l4 6-7 2v-3z"/>
		<path id="Path 340" class="s38" d="m340 435v-5l7-2 14 8v4l-2 3h-3l-11-1z"/>
		<path id="Path 341" class="s19" d="m678 446l4-8v-10h6 2l1 19z"/>
		<path id="Path 342" class="s51" d="m451 430l23 3 2-4 3 5 5 1v7l-6 1v11l-25-5-6-7-7-2v-9z"/>
		<path id="Path 343" class="s9" d="m941 431l3-2v8h-1l-1-3z"/>
		<path id="Path 344" class="s14" d="m124 432l5-2v7h-3z"/>
		<path id="Path 345" class="s24" d="m165 432l3-2 4 1 2 1v8h-2l-3-2z"/>
		<path id="Path 346" class="s34" d="m650 433v-3h11l1 2-2 10h-7z"/>
		<path id="Path 347" class="s64" d="m147 438l3-7h2l-4 8z"/>
		<path id="Path 348" class="s37" d="m166 439l-5 3 1-11 3 1 4 6z"/>
		<path id="Path 349" class="s17" d="m888 440l1-9h7l8 11v6l-5 8h-5l-6-8z"/>
		<path id="Path 350" class="s61" d="m112 438l2-6v9l-2 1z"/>
		<path id="Path 351" class="s38" d="m174 440v-8h6l8 4v2z"/>
		<path id="Path 352" class="s32" d="m188 436l1-4h5 4v4 7h-3v-3l-7-2z"/>
		<path id="Path 353" class="s65" d="m222 435l5-3 4 1v3l-3 6-6-1z"/>
		<path id="Path 354" class="s37" d="m385 433l1-1h6v8l-6 1z"/>
		<path id="Path 355" class="s48" d="m392 440v-8l12 2v8l8 2v4l-2 6h-9l-7-2z"/>
		<path id="Path 356" class="s24" d="m363 434l22-1 1 8v10h-7l-4-7h-7l-1-3-6-1v-4z"/>
		<path id="Path 357" class="s24" d="m413 434h5v12l-2 2h-4v-4z"/>
		<path id="Path 358" class="s36" d="m752 436l7-3 2 9 6 6-2 5-7 2v3l-12 1-6-5v-10h4 3v4h4v-5z"/>
		<path id="Path 359" class="s66" d="m231 436l7-2 9 2v1l-3 8 4 2v4l-10 1-5 4-1-9-4-5z"/>
		<path id="Path 360" class="s39" d="m247 436l2-2v3h-2z"/>
		<path id="Path 361" class="s16" d="m249 437v-3h3 8l-1 4-3 3h-1l-6-2z"/>
		<path id="Path 362" class="s42" d="m412 444l-8-2v-8h7 2z"/>
		<path id="Path 363" class="s24" d="m529 450l-3-4v-12h9l5 16h-2z"/>
		<path id="Path 364" class="s7" d="m784 437l4-3h14 7l5 6v8l-3 3-8 5v5l-5 4v-7h-3l-1 8v1l-10-2-2 9-3 4-5-5-6 1-3-10-7-6v-3l7-2 2-5h6l1-4 5-1z"/>
		<path id="Path 365" class="s67" d="m850 438l6-4 12 8 5 10h6l-1 8-4 4v16l-16 4-16-13-2-26 6-3h3z"/>
		<path id="Path 366" class="s40" d="m942 444l-2-3 2-7 1 3v5z"/>
		<path id="Path 367" class="s24" d="m218 436l4-1v6l-6 1-4 5h-6l-2-3 4-2v-4z"/>
		<path id="Path 368" class="s8" d="m336 436l4-1 5 7 3 18-1 2-6-7-5-7z"/>
		<path id="Path 369" class="s27" d="m484 442v-7l11 3-1 8h-4z"/>
		<path id="Path 370" class="s22" d="m778 436l2-1 4 2-5 6z"/>
		<path id="Path 371" class="s38" d="m198 443v-7l10 2v4l-4 2z"/>
		<path id="Path 372" class="s29" d="m568 437l8-1 4 8v6l-6 4-10-3v-10z"/>
		<path id="Path 373" class="s22" d="m740 444l-1-8h5v8z"/>
		<path id="Path 374" class="s25" d="m744 444v-8h4 4l-1 7-4 1z"/>
		<path id="Path 375" class="s53" d="m823 444h7l11-8 5 2v4l-6 3 2 26 16 13v1h-5l-15-1h-13l-2-14-5-2v-14-6z"/>
		<path id="Path 376" class="s43" d="m124 446l2-9h3l1 9 2 10-3 5-6-6z"/>
		<path id="Path 377" class="s38" d="m248 451v-4l-4-2 3-8h2v2l5 4 1 2-2 4v4l-3 1z"/>
		<path id="Path 378" class="s38" d="m273 442l3-1v-4h6v9l-2 4h-1l-5 3-1-1 1-4z"/>
		<path id="Path 379" class="s31" d="m282 446v-9l5 1-2 7-1 1z"/>
		<path id="Path 380" class="s51" d="m495 438l10-1 1 5-4 8-8-4z"/>
		<path id="Path 381" class="s28" d="m814 440l3-3 6 7-5 4h-4z"/>
		<path id="Path 382" class="s2" d="m943 442v-5h1v5z"/>
		<path id="Path 383" class="s0" d="m110 447l2-9v4l-1 5z"/>
		<path id="Path 384" class="s51" d="m143 446l4-8 1 1-3 7z"/>
		<path id="Path 385" class="s57" d="m166 439l3-1 3 2 8 6 4 14h-10l-1-3h-5z"/>
		<path id="Path 386" class="s42" d="m174 440l14-2 7 2v3l-1 9-4 11-1 12-3 2-2-17-4-14-8-6z"/>
		<path id="Path 387" class="s10" d="m256 441l3-3h8l3 4 2 6-1 3-5 2-3-1v-10l-5 1z"/>
		<path id="Path 388" class="s68" d="m846 442v-4h4l-1 4z"/>
		<path id="Path 389" class="s33" d="m254 443l-5-4 6 2z"/>
		<path id="Path 390" class="s32" d="m298 445v-5h4v4 1z"/>
		<path id="Path 391" class="s25" d="m359 443l2-3 6 1 1 3v6l5 3 1 7-2 6-8-3-5-9v-7z"/>
		<path id="Path 392" class="s38" d="m386 441l6-1 2 12-4 5-3-1-1-5z"/>
		<path id="Path 393" class="s36" d="m884 448v-8h4v8z"/>
		<path id="Path 394" class="s11" d="m908 442v-2h15l1 10 4 6h11l-3 5-6 3-4 1-12 5-11 3-5-3 1-14 5-8 5-2z"/>
		<path id="Path 395" class="s46" d="m112 442l2-1 6 5-2 16-3 10h-7v-10-5l3-10z"/>
		<path id="Path 396" class="s48" d="m206 447h6l4-5 6-1 6 1 4 5 1 9-1 3-7 1-19-2z"/>
		<path id="Path 397" class="s17" d="m254 443l1-2h1l2 2v2h-3z"/>
		<path id="Path 398" class="s24" d="m258 443l5-1v10l-1 2h-6v-5l2-4z"/>
		<path id="Path 399" class="s39" d="m272 448l-2-6h3l1 6z"/>
		<path id="Path 400" class="s39" d="m319 443l3-1v4z"/>
		<path id="Path 401" class="s21" d="m348 460l-3-18 11 1 3 4v7l5 9 8 3v6l-11-1-5-11z"/>
		<path id="Path 402" class="s64" d="m478 454v-11l6-1 6 4v12l-2 3z"/>
		<path id="Path 403" class="s65" d="m502 450l4-8h6l12 9 3 9-6 4-9-3-3 5-7-1z"/>
		<path id="Path 404" class="s36" d="m592 444l2-2 7 4v5l5 5h8l2 14-6 1-6-3-12-15z"/>
		<path id="Path 405" class="s10" d="m648 450v-6l5-2h7l1 3-1 2-3-1v5l-3 1z"/>
		<path id="Path 406" class="s32" d="m904 448v-6h4l1 4z"/>
		<path id="Path 407" class="s4" d="m942 444l1-2h1l2 9-6 9-4 1 3-5 5-8z"/>
		<path id="Path 408" class="s51" d="m194 452l1-9h3l6 1 2 3v11l-1 2h-4l-3-7z"/>
		<path id="Path 409" class="s24" d="m312 448l7-5 3 3v1 9l-5 4v4l-10 3-3-3 2-7 6-2z"/>
		<path id="Path 410" class="s22" d="m359 447l-3-4h3z"/>
		<path id="Path 411" class="s8" d="m661 445l10-2 2 7-5 6-8-7v-2z"/>
		<path id="Path 412" class="s28" d="m747 444l4-1v5h-4z"/>
		<path id="Path 413" class="s29" d="m302 445v-1h8l2 4v7l-6 2-5-2-1-2z"/>
		<path id="Path 414" class="s16" d="m324 447l2-3 10 4 5 7-1 2h-4l-7-2z"/>
		<path id="Path 415" class="s36" d="m374 460l-1-7-5-3v-6h7l4 7h7l1 5-3 4z"/>
		<path id="Path 416" class="s35" d="m574 454l6-4v-6h12v9l-5 3v6l-6-2h-4l-3-2z"/>
		<path id="Path 417" class="s28" d="m120 446h4l-1 9-3 7h-2z"/>
		<path id="Path 418" class="s27" d="m253 449l2-4h3l-2 4z"/>
		<path id="Path 419" class="s32" d="m284 446l1-1 3 2 1 8h-1-4v-4z"/>
		<path id="Path 420" class="s48" d="m288 447l4-2v3l-1 7h-2z"/>
		<path id="Path 421" class="s48" d="m298 448v-3h4l-2 8h-2z"/>
		<path id="Path 422" class="s57" d="m132 456l-2-10 11 1-1 5-4 4z"/>
		<path id="Path 423" class="s69" d="m141 447l2-1h2l-1 5-2 1h-2z"/>
		<path id="Path 424" class="s27" d="m280 450l2-4h2v5h-1z"/>
		<path id="Path 425" class="s23" d="m416 448l2-2h6l2 4-1 11-3 3-4-4z"/>
		<path id="Path 426" class="s66" d="m490 458v-12h4l8 4v15l-8 1z"/>
		<path id="Path 427" class="s28" d="m614 456h-8l-5-5v-5l13 1 2 5z"/>
		<path id="Path 428" class="s44" d="m657 451v-5l3 1v2z"/>
		<path id="Path 429" class="s22" d="m675 450l3-4 13 1 3 5v7l-6 3-7-2v-4z"/>
		<path id="Path 430" class="s1" d="m108 457l2-10h1z"/>
		<path id="Path 431" class="s23" d="m322 456v-9h2l5 8-1 1z"/>
		<path id="Path 432" class="s22" d="m624 449l17-2 1 3-2 14h-7l-9-10z"/>
		<path id="Path 433" class="s58" d="m271 451l1-3h2l-1 4z"/>
		<path id="Path 434" class="s17" d="m291 455l1-7h6v5z"/>
		<path id="Path 435" class="s28" d="m410 454l2-6h4l2 12h-7z"/>
		<path id="Path 436" class="s36" d="m618 453v-5h4l2 1v5l9 10h7 2v6l-11 4-4-4h-5v-14z"/>
		<path id="Path 437" class="s29" d="m811 451l3-3h4v6h-6z"/>
		<path id="Path 438" class="s23" d="m879 452l5-4h4l6 8h5l-1 14 5 3-1 1-5 2h-2l-3 1h-3l-15 3v-16l4-4z"/>
		<path id="Path 439" class="s37" d="m153 450l2-1v4l5-1v4l-7 1h-1z"/>
		<path id="Path 440" class="s56" d="m250 454l3-1v-4h3v5l-4 4z"/>
		<path id="Path 441" class="s70" d="m450 456l3-7 25 5 10 7 1 7-1 9-4 5h-7l-5-6h-5l-1 10h-12l-2-4h-6l-8 11h-2l-7-13h-7v-12-4l3-3 1-11 15 2 4 4 4 3z"/>
		<path id="Path 442" class="s17" d="m657 451l3-2 8 7-2 10-14-2 2-12z"/>
		<path id="Path 443" class="s31" d="m274 453l5-3-1 5h-4z"/>
		<path id="Path 444" class="s24" d="m274 455h4l1-5h1l3 1-5 6 1 8-4 3-1-5z"/>
		<path id="Path 445" class="s71" d="m524 451l5-1h9v13l-11-3z"/>
		<path id="Path 446" class="s29" d="m538 463v-13h2 10v5 13h-4-8z"/>
		<path id="Path 447" class="s25" d="m640 464l2-14h6l6 2-2 12h-10z"/>
		<path id="Path 448" class="s38" d="m668 456l5-6h2l6 6v4h-3v8l-1 2h-5l-6-4z"/>
		<path id="Path 449" class="s72" d="m142 452l2-1-2 5z"/>
		<path id="Path 450" class="s29" d="m233 456l5-4 10-1 2 3 2 4 1 2 2 7-5 7v9h-2l-2-9h-8l-2-1-4-14z"/>
		<path id="Path 451" class="s23" d="m266 453l5-2 2 1 1 1v2l-3 3h-5z"/>
		<path id="Path 452" class="s73" d="m279 465l-1-8 5-6h1v4 4 5 16l3 2v10h-1-8l-3-2v-8-3h1 3v-7z"/>
		<path id="Path 453" class="s70" d="m803 461v-5l8-5 1 3h6v14h-4z"/>
		<path id="Path 454" class="s74" d="m136 456l4-4h2v4l2 3 8-2h1l-3 31h-8l-6-8h-4v-4l-6-4 5-9z"/>
		<path id="Path 455" class="s27" d="m190 463l4-11 4 1 3 7-1 4z"/>
		<path id="Path 456" class="s29" d="m262 454l1-2 3 1v5 1l-3 2z"/>
		<path id="Path 457" class="s29" d="m390 457l4-5 7 2-3 18h-11v-7l3-1z"/>
		<path id="Path 458" class="s35" d="m614 456l2-4 2 1 4 3v14h-6z"/>
		<path id="Path 459" class="s36" d="m694 459v-7l26 1 10 14 2 20-3 1h-4l-19-17v-4z"/>
		<path id="Path 460" class="s51" d="m291 455l7-2h2l1 2-6 6v6l-2-6h-4l-1 4-4-1v-5l4 1v-5h1z"/>
		<path id="Path 461" class="s60" d="m587 462v-6l5-3 12 15 6 3v7l-11 2-3-14z"/>
		<path id="Path 462" class="s70" d="m252 458l4-4h6l1 7-5 2v-4l-5 1z"/>
		<path id="Path 463" class="s75" d="m398 472l3-18h9l1 6 2 8h9v12l-6 2-5-4h-11l-2-2z"/>
		<path id="Path 464" class="s76" d="m120 462l3-7 6 6 2 2-5 9-2 2h-4z"/>
		<path id="Path 465" class="s77" d="m271 458l3-3v8l-2 1z"/>
		<path id="Path 466" class="s22" d="m284 459v-4h4v5z"/>
		<path id="Path 467" class="s36" d="m295 467v-6l6-6 5 2-2 7-8 3z"/>
		<path id="Path 468" class="s25" d="m328 456l1-1 7 2v9h-6z"/>
		<path id="Path 469" class="s33" d="m340 457l1-2 6 7 2 6h-1l-5-3z"/>
		<path id="Path 470" class="s78" d="m550 468v-13h4l6 8 2 8 6 4-1 4h-3l-2-3h-8z"/>
		<path id="Path 471" class="s79" d="m129 461l3-5h4l-5 7z"/>
		<path id="Path 472" class="s28" d="m153 457l7-1-1 5 4-1v6l1 18-2 6-6 1h-6v-3z"/>
		<path id="Path 473" class="s19" d="m317 464v-4l5-4h6l2 10v12h-10-2z"/>
		<path id="Path 474" class="s35" d="m384 460l3-4 3 1v7l-3 1z"/>
		<path id="Path 475" class="s71" d="m450 456l-1 3-4-3z"/>
		<path id="Path 476" class="s3" d="m107 462l1-5v5z"/>
		<path id="Path 477" class="s55" d="m168 459v-2h5l1 3v6h-6z"/>
		<path id="Path 478" class="s19" d="m336 466v-9h4l3 8 5 3 9 14v7 2l-9 4-4-3 7-10-9-6-2-8z"/>
		<path id="Path 479" class="s66" d="m205 460l1-2 19 2 1 10 6 3v3h-6l-6-1-9-10h-4z"/>
		<path id="Path 480" class="s71" d="m266 459v-1h5l1 6-3 5-3-1v-1z"/>
		<path id="Path 481" class="s71" d="m488 461l2-3 4 8-5 2z"/>
		<path id="Path 482" class="s29" d="m574 461v-3l3 2z"/>
		<path id="Path 483" class="s8" d="m746 459l12-1 7 6 3 10-2 3-2 1h-8l-8-8z"/>
		<path id="Path 484" class="s38" d="m794 466l1-8h3v7 1z"/>
		<path id="Path 485" class="s51" d="m163 460l5-1v7 2l-5-2z"/>
		<path id="Path 486" class="s28" d="m225 460l7-1 4 14h-4l-6-3z"/>
		<path id="Path 487" class="s80" d="m253 460l5-1v4l5-2 3-2v8h-11z"/>
		<path id="Path 488" class="s23" d="m688 462l6-3 12 8v4l-3 5 1 6-6 1-5-6h-4l-3-4z"/>
		<path id="Path 489" class="s63" d="m174 466v-6h10l2 17v5l-4 1-7-3-1-6z"/>
		<path id="Path 490" class="s81" d="m200 464l1-4h4l2 5h4l9 10 6 1 1 7-4 9 6 2 4 6 4 7-1 11-4 1-5-13-9-4-14-16v-10l-4-1z"/>
		<path id="Path 491" class="s7" d="m347 462l1-2h8l5 11 11 1 6 6-1 7-11 4-2-1-6-7-9-13z"/>
		<path id="Path 492" class="s54" d="m372 466l2-6h10l3 5v7 8l-1 9 6 8v11l-8 5v13h-6l-6-4-2-10 2-7-4-2-2-14 11-4 1-7-6-6z"/>
		<path id="Path 493" class="s29" d="m422 468h-9l-2-8h7l4 4z"/>
		<path id="Path 494" class="s69" d="m521 464l6-4 11 3v5l-14 1z"/>
		<path id="Path 495" class="s28" d="m574 461l3-1h4l-1 14h-4l-2-12z"/>
		<path id="Path 496" class="s29" d="m580 474l1-14 6 2 9 4 3 14-1 6-6 1-2-6z"/>
		<path id="Path 497" class="s35" d="m678 468v-8h3l7 2-2 11z"/>
		<path id="Path 498" class="s48" d="m288 465l1-4h4l2 6h1v7l-4 1v-5l-4 2z"/>
		<path id="Path 499" class="s70" d="m509 466l3-5 9 3 3 5v10l-2 1h-6z"/>
		<path id="Path 500" class="s29" d="m798 465l5-4 11 7-3 6-7 1-6-9z"/>
		<path id="Path 501" class="s6" d="m930 464l6-3-5 3z"/>
		<path id="Path 502" class="s0" d="m105 480l2-18h1v10l-2 8z"/>
		<path id="Path 503" class="s64" d="m115 472l3-10h2v12h-4z"/>
		<path id="Path 504" class="s75" d="m560 463l14-1 2 12-8 1-6-4z"/>
		<path id="Path 505" class="s43" d="m189 475l1-12 10 1v11l-6 3z"/>
		<path id="Path 506" class="s79" d="m272 464l2-1 1 5 1 4v7h-1l-7 2h-2l-3-4 3-9 3 1z"/>
		<path id="Path 507" class="s58" d="m287 482l-3-2v-16l4 1v7 10z"/>
		<path id="Path 508" class="s71" d="m296 467l8-3 3 3-1 5-6 4h-4v-2z"/>
		<path id="Path 509" class="s23" d="m307 467l10-3 1 14h-8l-4-6z"/>
		<path id="Path 510" class="s29" d="m642 470v-6h10l14 2 6 4-1 12 5 5h7l3 5-2 16-6 2-11-12h-17-2l-2-2-2-8v-5l4-2v-8z"/>
		<path id="Path 511" class="s9" d="m926 465l4-1h1l-6 3z"/>
		<path id="Path 512" class="s77" d="m275 468l4-3v7h-3z"/>
		<path id="Path 513" class="s82" d="m494 466l8-1 7 1 7 14-3 8-12 1-3 8-29-6-3-5 1-10h5l5 6h7l4-5 1-9z"/>
		<path id="Path 514" class="s28" d="m782 474l2-9 10 2v3z"/>
		<path id="Path 515" class="s12" d="m914 470l12-5-1 2-9 3z"/>
		<path id="Path 516" class="s81" d="m164 484l-1-18 5 2-1 6-2 10z"/>
		<path id="Path 517" class="s45" d="m168 468v-2h6v8h-7z"/>
		<path id="Path 518" class="s29" d="m330 478v-12h6l4 2 2 8-5 6 1 7h-2l-5-3v-4z"/>
		<path id="Path 519" class="s48" d="m794 467v-1h4l6 9-2 1-8-6z"/>
		<path id="Path 520" class="s65" d="m250 483v-9l5-7h11v1l-3 9 3 4-6 8h-2l-2-5z"/>
		<path id="Path 521" class="s17" d="m732 487l-2-20 18 15v9l-7 3-7-4z"/>
		<path id="Path 522" class="s37" d="m357 482l-9-14h1l9 13z"/>
		<path id="Path 523" class="s82" d="m524 469l14-1h8l4 8h4v11l-5 4h-6l-6-4-3 7h-7l-1-4-2-11z"/>
		<path id="Path 524" class="s83" d="m554 476h-4l-4-8h4z"/>
		<path id="Path 525" class="s70" d="m677 470l1-2 8 5 3 4-3 6h-2l-4-3z"/>
		<path id="Path 526" class="s65" d="m811 474l3-6h4l5 2 2 14v1l-9-2z"/>
		<path id="Path 527" class="s23" d="m288 472l4-2v5 7h-4z"/>
		<path id="Path 528" class="s23" d="m610 471l6-1h6 5l4 4v3l-3 6 3 4v6l-5 7h-7l-3-5 2-14-8-3z"/>
		<path id="Path 529" class="s60" d="m631 474l11-4 6 3v8l-4 2v5l-7 2-4-3 3-7-5-3z"/>
		<path id="Path 530" class="s60" d="m683 487h-7l-5-5 1-12h5l3 10 4 3z"/>
		<path id="Path 531" class="s42" d="m782 474l12-4 8 6v4l-8 4-6 1-2-1z"/>
		<path id="Path 532" class="s18" d="m903 473l11-3h2l-12 4h-2z"/>
		<path id="Path 533" class="s44" d="m698 483l6-1-1-6 3-5 19 17h4l4 5 3 4v1l-1 4 5 2v4h-4l-5-5h-6l-5-6 2-9-7-6h-7l-4 6-5-1-4 3-3-2v-4z"/>
		<path id="Path 534" class="s84" d="m106 480l2-8h7l1 2 1 12-1 2h-5-1z"/>
		<path id="Path 535" class="s80" d="m124 474l2-2 6 4v4l-7 4z"/>
		<path id="Path 536" class="s58" d="m276 479v-7h3v7z"/>
		<path id="Path 537" class="s69" d="m300 476l6-4 4 6-1 7h-3l-6-7z"/>
		<path id="Path 538" class="s60" d="m387 480v-8h11v4l-4 4z"/>
		<path id="Path 539" class="s78" d="m232 476v-3h4l2 1-2 6z"/>
		<path id="Path 540" class="s48" d="m768 474l6-1 5 5 3 6-4 4h-5l-7-5 2-1-2-5z"/>
		<path id="Path 541" class="s69" d="m117 486l-1-12h4 4l1 10-1 2z"/>
		<path id="Path 542" class="s55" d="m165 484l2-10h7l1 6v14l-7 2-4-1z"/>
		<path id="Path 543" class="s66" d="m236 480l2-6h8l2 9v5h-8z"/>
		<path id="Path 544" class="s85" d="m292 475l4-1v2l-1 11h-2l-1-5z"/>
		<path id="Path 545" class="s86" d="m568 475l8-1h4l10 7 2 6-3 9-14 4 1 6h-2l-9-2-5-7-7 3h-5l-3-2-2-7h6l5-4h7l3-8h3z"/>
		<path id="Path 546" class="s24" d="m779 478l3-4 4 10h-4z"/>
		<path id="Path 547" class="s81" d="m804 475l7-1 5 9-5 2-7 1-2-6v-4z"/>
		<path id="Path 548" class="s9" d="m897 476l5-2h2z"/>
		<path id="Path 549" class="s58" d="m186 477l3-2 5 3v8l-5 2v6h-3v-2-10z"/>
		<path id="Path 550" class="s76" d="m194 478l6-3 4 1v10h-10z"/>
		<path id="Path 551" class="s77" d="m227 483l-1-7h6l4 4 4 8-2 2-8-2v-4z"/>
		<path id="Path 552" class="s74" d="m295 487l1-11h4v2 8z"/>
		<path id="Path 553" class="s37" d="m338 489l-1-7 5-6 9 6-7 10h-1z"/>
		<path id="Path 554" class="s50" d="m387 480h7l4-4 2 2-3 7 1 9h21l13 18-4 12h-13l-5 4-24-2h-2v-13l8-5v-11l-6-8z"/>
		<path id="Path 555" class="s50" d="m554 487v-11h8l2 3-3 8z"/>
		<path id="Path 556" class="s21" d="m631 487l-3-4 3-6 5 3-3 7z"/>
		<path id="Path 557" class="s36" d="m686 483l3-6h4l5 6-6 1v4h-2z"/>
		<path id="Path 558" class="s38" d="m764 478l2-1 2 5-2 1h-2z"/>
		<path id="Path 559" class="s18" d="m874 480l15-3v1l-30 7h-1v-1z"/>
		<path id="Path 560" class="s9" d="m889 478v-1h3z"/>
		<path id="Path 561" class="s87" d="m295 487l5-1v-8l6 7 1 8-3 5 2 1-2 4h-4l-1-3v-4l-5-1-1-1v-7z"/>
		<path id="Path 562" class="s24" d="m309 485l1-7h8 2v6l-8 1z"/>
		<path id="Path 563" class="s28" d="m320 484v-6h10l1 4z"/>
		<path id="Path 564" class="s60" d="m419 494h-21l-1-9 3-7h11l5 4z"/>
		<path id="Path 565" class="s86" d="m599 480l11-2 8 3-2 14h-5l-4 5-7-4-2-10z"/>
		<path id="Path 566" class="s17" d="m754 484l2-6h8v5l-2 3 3 2h-10z"/>
		<path id="Path 567" class="s42" d="m268 481l7-2v3l-7 4z"/>
		<path id="Path 568" class="s75" d="m522 480l2-1 2 11h-4z"/>
		<path id="Path 569" class="s61" d="m108 488h-5l2-8h1l4 8z"/>
		<path id="Path 570" class="s82" d="m125 484l7-4h4l6 8h8v3l-1 10v1l-21-2-4-3v-11z"/>
		<path id="Path 571" class="s57" d="m175 494v-14l7 3-1 9-1 2z"/>
		<path id="Path 572" class="s86" d="m416 482l6-2h7l7 13-2 9 4 3v4 3h-6l-13-18z"/>
		<path id="Path 573" class="s50" d="m513 488l3-8h6v10l-7 2z"/>
		<path id="Path 574" class="s49" d="m794 484l8-4 2 6-6 2z"/>
		<path id="Path 575" class="s72" d="m260 489l6-8h2v5l7-4v8l-4 4-10-1z"/>
		<path id="Path 576" class="s42" d="m357 482l1-1 6 7h-1l-6 1z"/>
		<path id="Path 577" class="s88" d="m182 483l4-1v10h-5z"/>
		<path id="Path 578" class="s29" d="m287 492v-10h1 4l1 5v7l-5 1z"/>
		<path id="Path 579" class="s66" d="m320 484l11-2v4l-1 9 4-1 4 3v3l-5 1v4l5 1-4 4-4 3h-2l-3-5v-5l-4 3h-2l2-5-2-5-4-1-3-10z"/>
		<path id="Path 580" class="s60" d="m438 493l8-11h6l2 4h12l3 5 29 6 6 12-2 6-2 9-17-2 5-5v-11l-11-3-2-5-10 2-2 22-3 4h-5l-6-1-3-6 4-8-12-2v-4l3-2z"/>
		<path id="Path 581" class="s17" d="m704 488l4-6h7l7 6-2 9 5 6-3 1-3-5-6 3-7-2z"/>
		<path id="Path 582" class="s24" d="m748 491v-9l6 2 1 4-3 4z"/>
		<path id="Path 583" class="s89" d="m233 500l-4-6-6-2 4-9 3 1v4l8 2v8z"/>
		<path id="Path 584" class="s69" d="m248 488v-5h2l6 1 2 5 2 13-6-1-1-8z"/>
		<path id="Path 585" class="s48" d="m683 487l1-4h2l4 5-1 4h-3z"/>
		<path id="Path 586" class="s27" d="m755 488h10l-3-2 2-3h2l7 5v3l-15 5-1 4h-5v-8z"/>
		<path id="Path 587" class="s14" d="m811 485l5-2 9 2v3l5 2v1h-3-12z"/>
		<path id="Path 588" class="s90" d="m162 490l2-6h1l-1 11-2 9 2 2-1 1h-3l-8-1-1-4h6l-1-4 6-4z"/>
		<path id="Path 589" class="s27" d="m778 488l4-4h4l2 1-4 6h-4z"/>
		<path id="Path 590" class="s43" d="m788 485l6-1 4 4-1 7-4 2-3 3h-1v-1-4l-5-4z"/>
		<path id="Path 591" class="s51" d="m825 485v-1h13v4l-4 2h-4l-5-2z"/>
		<path id="Path 592" class="s65" d="m838 488v-4l15 1v1l-3 1-7 1z"/>
		<path id="Path 593" class="s78" d="m306 499l-2-1 3-5-1-8h3 3l3 10v2z"/>
		<path id="Path 594" class="s57" d="m804 486l7-1 4 6-3 3h-4v-3l-3 3-3 1h-4-1l1-7z"/>
		<path id="Path 595" class="s13" d="m853 486v-1h5 1z"/>
		<path id="Path 596" class="s86" d="m116 488l1-2h7v11l-8-3z"/>
		<path id="Path 597" class="s56" d="m189 494v-6l5-2h10l14 16-2 20h-6l-4-2 3-5-3-7 2-2-2-10-7 1-1 6-8-1z"/>
		<path id="Path 598" class="s28" d="m334 494l-4 1 1-9 5 3z"/>
		<path id="Path 599" class="s50" d="m592 487l6-1 2 10-10 1-1-1z"/>
		<path id="Path 600" class="s23" d="m534 494l3-7 6 4 2 7-3 2h-6z"/>
		<path id="Path 601" class="s35" d="m626 500l5-7v-6h2l4 3 2 5 1 2v7h-6-6z"/>
		<path id="Path 602" class="s19" d="m695 490l4-3 5 1 2 12 2 4h-2l-7-4-4-3v-2z"/>
		<path id="Path 603" class="s11" d="m729 488l3-1 2 3-1 3z"/>
		<path id="Path 604" class="s0" d="m110 495l-2-7h2 1l1 6z"/>
		<path id="Path 605" class="s85" d="m112 494l-1-6h5v6l8 3 4 3-7 7-4-3-1-7z"/>
		<path id="Path 606" class="s72" d="m238 490l2-2h8l5 5 1 8 6 1 2 2-6 8-4 1v3l-6-1v-7-6l-8-4z"/>
		<path id="Path 607" class="s29" d="m357 489l6-1 1 4-7-1z"/>
		<path id="Path 608" class="s69" d="m357 491l7 1-1-4h1l2 1 2 14h-1l-7-7-12 2v-3z"/>
		<path id="Path 609" class="s29" d="m498 497l3-8 12-1 2 4 7-2h4l1 4h7l2 6v10l-8 2h-4-18l-2-3z"/>
		<path id="Path 610" class="s36" d="m637 490l7-2 2 8-7-1z"/>
		<path id="Path 611" class="s17" d="m689 492l1-4h2l3 2v5z"/>
		<path id="Path 612" class="s14" d="m757 500l1-4 15-5v-3h5l2 3v7l-2 3h-5l-1 5h-6z"/>
		<path id="Path 613" class="s20" d="m834 490l4-2h5z"/>
		<path id="Path 614" class="s66" d="m156 491l6-1v4l-6 4-1-2z"/>
		<path id="Path 615" class="s77" d="m260 502l-2-13h2l1 4 10 1-6 9-3 1z"/>
		<path id="Path 616" class="s42" d="m334 494l2-5h2l5 3-2 5h-3z"/>
		<path id="Path 617" class="s45" d="m271 494l4-4 3 2-3 19-6 1-4-9z"/>
		<path id="Path 618" class="s24" d="m733 493l1-3 7 4-5 3z"/>
		<path id="Path 619" class="s2" d="m830 491v-1h4z"/>
		<path id="Path 620" class="s23" d="m149 501l1-10h6l-1 5z"/>
		<path id="Path 621" class="s51" d="m741 494l7-3 4 1v8h-3l1 5-9-1v-4l-5-2v-1z"/>
		<path id="Path 622" class="s73" d="m780 498v-7h4l5 4v4 1 1l-5 1z"/>
		<path id="Path 623" class="s3" d="m788 499h1v1h-1z"/>
		<path id="Path 624" class="s0" d="m805 494l3-3v3z"/>
		<path id="Path 625" class="s2" d="m812 494l3-3h12z"/>
		<path id="Path 626" class="s91" d="m180 494l1-2h5v2l-2 6-4-2z"/>
		<path id="Path 627" class="s63" d="m275 511l3-19h8l-3 16-1 3z"/>
		<path id="Path 628" class="s64" d="m283 508l3-16h1l1 3 5-1 1 1 2 5-1 18h-6l-3-4v-5z"/>
		<path id="Path 629" class="s21" d="m338 497h3l2-5h1l4 3v3l-2 2-5 2-3-2z"/>
		<path id="Path 630" class="s44" d="m684 508l2-16h3l6 3v2l-1 7v7l-4 3z"/>
		<path id="Path 631" class="s82" d="m438 505l-4-3 2-9h2l3 10z"/>
		<path id="Path 632" class="s67" d="m110 495l2-1 4 3 1 7-10 6-4-7 5-6 1-1z"/>
		<path id="Path 633" class="s73" d="m168 496l7-2h5v4l-2 8v6h-3l-7-6z"/>
		<path id="Path 634" class="s64" d="m184 500l2-6h3l1 8-6 5v-1z"/>
		<path id="Path 635" class="s57" d="m164 506l-2-2 2-9 4 1v10z"/>
		<path id="Path 636" class="s92" d="m296 500l-2-5 5 1v4z"/>
		<path id="Path 637" class="s85" d="m315 497v-2l4 1 2 5-2 5-4-2z"/>
		<path id="Path 638" class="s28" d="m607 500l4-5h5l3 5h7l2 4h6l3 6-3 4-7-4-9 1-9-3z"/>
		<path id="Path 639" class="s42" d="m640 497l-1-2 7 1 2 2v2z"/>
		<path id="Path 640" class="s52" d="m98 505l6-9 4 1-5 6z"/>
		<path id="Path 641" class="s51" d="m149 501l6-5 1 2 1 4h-6-2z"/>
		<path id="Path 642" class="s73" d="m198 503l1-6 7-1 2 10-2 2h-4z"/>
		<path id="Path 643" class="s72" d="m348 498l12-2 7 7-3 9-2 1-2-7h-5l-2-4h-5z"/>
		<path id="Path 644" class="s35" d="m576 506l-1-6 14-4 1 1v5z"/>
		<path id="Path 645" class="s23" d="m590 497l10-1 7 4 2 8 9 3v3h-6l-2-3-8 2-8-2-4-9z"/>
		<path id="Path 646" class="s72" d="m306 499l9-2v7l4 2h2l1 2-10 10-2 2h-4l-2-17z"/>
		<path id="Path 647" class="s35" d="m553 500l7-3 5 7-3 2h-5z"/>
		<path id="Path 648" class="s25" d="m640 504v-7l8 3h2v6z"/>
		<path id="Path 649" class="s38" d="m694 504l1-7 4 3z"/>
		<path id="Path 650" class="s3" d="m790 500l3-3 1 3-4 1z"/>
		<path id="Path 651" class="s55" d="m178 506l2-8 4 2v6z"/>
		<path id="Path 652" class="s93" d="m233 500l5-2 8 4v6l-9-1z"/>
		<path id="Path 653" class="s87" d="m346 500l2-2v4h-2z"/>
		<path id="Path 654" class="s86" d="m463 522l2-22 10-2 2 5-1 15-10 4z"/>
		<path id="Path 655" class="s36" d="m542 500l3-2 3 2v6l-4 3h-2z"/>
		<path id="Path 656" class="s24" d="m648 500v-2h2v2z"/>
		<path id="Path 657" class="s42" d="m650 500v-2h17l11 12-1 4-14 3h-3l1 5h-3l-4-6v-8h3l1-7z"/>
		<path id="Path 658" class="s73" d="m740 504l-5-2 1-4 5 2v4z"/>
		<path id="Path 659" class="s61" d="m778 501l2-3 4 4-2 3-2-3z"/>
		<path id="Path 660" class="s44" d="m713 502l6-3 3 5-1 2-5 1z"/>
		<path id="Path 661" class="s58" d="m121 507l7-7 21 2h2l1 4v12h-12l-15 1-5-2-1-5z"/>
		<path id="Path 662" class="s89" d="m295 518l1-18h3l1 3h4l2 17z"/>
		<path id="Path 663" class="s25" d="m338 506l-5-1v-4l5-1 3 2z"/>
		<path id="Path 664" class="s81" d="m341 502l5-2v2l-3 4h-5z"/>
		<path id="Path 665" class="s22" d="m536 510v-10h6v9l-4 1z"/>
		<path id="Path 666" class="s23" d="m548 506v-6h5l4 6h5v11l-5 2-4-10z"/>
		<path id="Path 667" class="s38" d="m650 506v-6l8 1-1 7h-3z"/>
		<path id="Path 668" class="s48" d="m694 504l5-4 7 4v2l-8 2v3l-1 2-3-2z"/>
		<path id="Path 669" class="s51" d="m706 504h2l-2-4 7 2 3 5 5-1 2 8-2 4-6-2-5 4-2-5h4v-3l-6-6z"/>
		<path id="Path 670" class="s43" d="m750 505l-1-5h3 5l9 6v4l-7 1-7 3z"/>
		<path id="Path 671" class="s91" d="m772 506l1-5h5v2l1 3-3 2v-3z"/>
		<path id="Path 672" class="s13" d="m778 503v-2l2 1z"/>
		<path id="Path 673" class="s3" d="m784 502l5-1h1l-5 2v3l-3-1z"/>
		<path id="Path 674" class="s88" d="m184 507l6-5 8 1 4 5h4l3 7-3 5 4 2 2 12-4 2v8l-3 4h-1l-12 2-14 2-18-2v-6h12l3-4h17l3-3-1-10-7-5h-7v-3-6l4-1z"/>
		<path id="Path 675" class="s64" d="m216 522l2-20 9 4 5 13-3 7h-7z"/>
		<path id="Path 676" class="s57" d="m343 506l3-4h2 5l2 4v4h-10z"/>
		<path id="Path 677" class="s29" d="m576 506l14-4 4 9 8 2 1 6-1 5-2 3h-5l-7-6-6 8-3-1 1-12-6-5v-5z"/>
		<path id="Path 678" class="s68" d="m98 505l5-2 4 7-3 4-3 4-6 2-9 3h-5l-1-5 2-3 2-1z"/>
		<path id="Path 679" class="s47" d="m262 504l3-1 4 9 6-1h7v3l-1 11 8 1 1 6h-8-11l-1-4-11-1-3-1v-14z"/>
		<path id="Path 680" class="s76" d="m321 506l4-3v5h-3z"/>
		<path id="Path 681" class="s50" d="m364 512l3-9h1l4 2-2 7z"/>
		<path id="Path 682" class="s83" d="m476 518l1-15 11 3v11l-5 5h-3z"/>
		<path id="Path 683" class="s48" d="m634 504h6l10 2v10h-4l-2 5-2-3h-8v-4l3-4z"/>
		<path id="Path 684" class="s81" d="m722 504l3-1h6l5 5v9 4l-6-1-7 1-2-3 2-4-2-8z"/>
		<path id="Path 685" class="s20" d="m84 513l10-6v-3l4 1-14 9z"/>
		<path id="Path 686" class="s65" d="m107 510l10-6 4 3-2 5-5 2-8 2-2-2z"/>
		<path id="Path 687" class="s28" d="m562 506l3-2 9 2v5l6 5-1 12-6 3v3l-2 6h-4l-1-15-9-1v-5l5-2z"/>
		<path id="Path 688" class="s49" d="m736 508h4v-4h1l9 1 2 9-14 3h-2z"/>
		<path id="Path 689" class="s1" d="m766 506h6l4-1v3l-4 6-9 4 3-4-7-3 7-1z"/>
		<path id="Path 690" class="s76" d="m152 518v-12l8 1 3 8 8 2 2 6-4 6-12 5v-3l-5-2z"/>
		<path id="Path 691" class="s81" d="m163 507l1-1h4l7 6v5l5 2v3l-7 1-2-6v-4z"/>
		<path id="Path 692" class="s45" d="m178 512v-6h6v1 5l-4 1z"/>
		<path id="Path 693" class="s91" d="m334 510l4-4h5l2 4v4l-3 1z"/>
		<path id="Path 694" class="s47" d="m355 510v-4h5l2 7v1l-6-1z"/>
		<path id="Path 695" class="s71" d="m544 509l4-3 5 3 4 10v5l-3 5-3-3h-7-1l-1-10z"/>
		<path id="Path 696" class="s66" d="m650 516v-10l4 2v8z"/>
		<path id="Path 697" class="s56" d="m698 511v-3l8-2 6 6v3h-4z"/>
		<path id="Path 698" class="s13" d="m776 508l3-2 1 3z"/>
		<path id="Path 699" class="s83" d="m171 517l-8-2-3-8h3l8 6z"/>
		<path id="Path 700" class="s76" d="m236 518l1-11 9 1v7l-6 3z"/>
		<path id="Path 701" class="s49" d="m282 511l1-3 3 1v5h-4z"/>
		<path id="Path 702" class="s70" d="m312 518l10-10h3l3 5-10 7h-4z"/>
		<path id="Path 703" class="s56" d="m678 510l6-2 6 6v10l-11-1-2-9z"/>
		<path id="Path 704" class="s70" d="m438 512v-3l12 2-4 8z"/>
		<path id="Path 705" class="s36" d="m502 515l2-6 2 3z"/>
		<path id="Path 706" class="s25" d="m538 510l4-1h2l-2 7h-4z"/>
		<path id="Path 707" class="s63" d="m330 513l4-3 8 5v9l-6 4h-5l-2-5z"/>
		<path id="Path 708" class="s45" d="m342 515l3-1v-4h10l1 3-3 5-6 5-5 1z"/>
		<path id="Path 709" class="s36" d="m528 512l8-2h2v6l-4 6h-6z"/>
		<path id="Path 710" class="s65" d="m618 511l9-1 7 4v4l-1 2-7 2-8-7v-1z"/>
		<path id="Path 711" class="s35" d="m602 513l8-2 2 3-1 3-8 2z"/>
		<path id="Path 712" class="s49" d="m690 514l4-3 3 2 1-2 10 4 2 5 5-4 6 2 2 3-1 7-3-1-4 3h-15l-10-3v-3z"/>
		<path id="Path 713" class="s57" d="m752 514l7-3 7 3-3 4-5 2-12-2-3 4-5-5z"/>
		<path id="Path 714" class="s3" d="m82 515l-4-3 6 1v1z"/>
		<path id="Path 715" class="s49" d="m114 514l5-2 1 5-6 1z"/>
		<path id="Path 716" class="s93" d="m180 519l-5-2v-5h3l2 1z"/>
		<path id="Path 717" class="s57" d="m252 516v-3l4-1v14h-4z"/>
		<path id="Path 718" class="s68" d="m362 513l2-1h6l2 10 6 4 2 14-22 5-1-2v-8l-6-3 2-5 4-5 5-8z"/>
		<path id="Path 719" class="s71" d="m428 524l4-12h6l8 7 3 6 6 1v4l5 2-2 10-10 7v3h-5l-6-6v-8l-4-4h-5z"/>
		<path id="Path 720" class="s70" d="m502 515l4-3h18l1 9-7 1-6 2h-12z"/>
		<path id="Path 721" class="s60" d="m525 521l-1-9h4v10z"/>
		<path id="Path 722" class="s90" d="m318 520l10-7h2l-1 10-5 1-6-2z"/>
		<path id="Path 723" class="s90" d="m353 518l3-5 6 1-5 8-4-2z"/>
		<path id="Path 724" class="s69" d="m612 514h6v1l1 8-5 5h-5l-3-2-4-2 1-5 8-2z"/>
		<path id="Path 725" class="s69" d="m101 518l3-4 2 2-4 3z"/>
		<path id="Path 726" class="s89" d="m106 516l8-2v4l-3 2-8 4-1-5z"/>
		<path id="Path 727" class="s58" d="m290 532l-1-6-8-1 1-11h4l3 4h6l11 2-3 7 7-4h2l3 1 3 6 2 10v25l-7 5-2 6-4 2 3 6v5l-18 1-8-12v-15l11-2 6 1 3-3-2-4v-12z"/>
		<path id="Path 728" class="s90" d="m663 517l14-3 2 9 11 1v3l-6 6-8 2-7-4-1-6 1-2-5-2z"/>
		<path id="Path 729" class="s15" d="m78 516l4-1-2 3h-3z"/>
		<path id="Path 730" class="s91" d="m240 518l6-3 6 1v10l-10 2z"/>
		<path id="Path 731" class="s87" d="m619 523l-1-8 8 7v2z"/>
		<path id="Path 732" class="s12" d="m64 524l14-8-1 2-3 3-8 3z"/>
		<path id="Path 733" class="s35" d="m534 522l4-6h4l1 10-9-1z"/>
		<path id="Path 734" class="s58" d="m644 521l2-5h4 4l4 6 2 12-1 1-5 1-11-5-1-7z"/>
		<path id="Path 735" class="s56" d="m114 518l6-1 5 2v2l-6 4-8 1v-6z"/>
		<path id="Path 736" class="s58" d="m661 522l-1-5h3l1 4v1z"/>
		<path id="Path 737" class="s94" d="m736 521v-4h2l5 5-1 1-4-1h-1z"/>
		<path id="Path 738" class="s54" d="m74 521l3-3h3l1 5-1 2-6 1z"/>
		<path id="Path 739" class="s76" d="m95 520l6-2 1 1 1 5v6l-8 5 3 2-1 2h-6l-2-11z"/>
		<path id="Path 740" class="s65" d="m125 519l15-1v10l-12 2v-7l-3-2z"/>
		<path id="Path 741" class="s77" d="m140 528v-10h12v11l-3 1-6 1z"/>
		<path id="Path 742" class="s43" d="m232 519l4-1h4l2 10v11l-12-3-1-10z"/>
		<path id="Path 743" class="s29" d="m310 520l2-2 2 2-2 3h-2z"/>
		<path id="Path 744" class="s58" d="m347 523l6-5v2l-3 4z"/>
		<path id="Path 745" class="s74" d="m466 522l10-4 4 4-2 6-5 3 1 5 2 18-9 2-7-4 3-10z"/>
		<path id="Path 746" class="s56" d="m633 520l1-2h8l2 3-2 3-7-2z"/>
		<path id="Path 747" class="s13" d="m743 522l3-4 12 2v1l-3-1-1 2 4 1-7 2-1 3-6-1v4l-6 2h-1l-1-7h1 5v-3z"/>
		<path id="Path 748" class="s3" d="m758 520l5-2-5 3z"/>
		<path id="Path 749" class="s69" d="m86 523l9-3-6 8h-3z"/>
		<path id="Path 750" class="s64" d="m103 524l8-4v6l-4 4h-4z"/>
		<path id="Path 751" class="s66" d="m310 523l-7 4 3-7h4z"/>
		<path id="Path 752" class="s76" d="m312 523l2-3h4v2l-3 2z"/>
		<path id="Path 753" class="s57" d="m350 524l3-4 4 2-4 5z"/>
		<path id="Path 754" class="s76" d="m626 522l7-2 2 2 3 9-3 3-11-1-1-5 4-1-1-3z"/>
		<path id="Path 755" class="s43" d="m723 521l7-1v5l-2 5-6-2z"/>
		<path id="Path 756" class="s45" d="m730 525v-5l6 1 1 1-2 4z"/>
		<path id="Path 757" class="s28" d="m66 524l8-3v5l-4 2h-3z"/>
		<path id="Path 758" class="s78" d="m119 525l6-4 3 2v7l-4 4h-4z"/>
		<path id="Path 759" class="s85" d="m512 524l6-2v12l4 3 1 10 10-2 3 2v2l-4 2 2 7-4 6-3 3-6-1-5-6v-16l-6-4v-6z"/>
		<path id="Path 760" class="s83" d="m518 522l7-1 3 1h6v3l4 5 1 9v6l-3 2-3-2-10 2-1-10-4-3z"/>
		<path id="Path 761" class="s80" d="m582 529l6-8 7 6h5v1l1 10-5 2-3-3-3-4-3 1-5-2z"/>
		<path id="Path 762" class="s66" d="m664 522v-1l5 2-1 2h-4z"/>
		<path id="Path 763" class="s57" d="m173 523l7-1h7l7 5 1 10-3 3h-17l-3 4h-12l-6-2v-8h3l12-5z"/>
		<path id="Path 764" class="s58" d="m212 534l-2-12h6l6 4v8z"/>
		<path id="Path 765" class="s91" d="m315 524l3-2 6 2-2 6h-4z"/>
		<path id="Path 766" class="s75" d="m460 526l3-4h3l-3 20h-5l2-10z"/>
		<path id="Path 767" class="s86" d="m474 536l-1-5 5-3 2-6h3l17 2 2 10v4h-10-5l-2-5z"/>
		<path id="Path 768" class="s47" d="m638 531l-3-9 7 2 1 7h-3z"/>
		<path id="Path 769" class="s89" d="m660 534l-2-12h3 3v3h4l1 6-3 4z"/>
		<path id="Path 770" class="s3" d="m735 526l2-4h1l-1 4h-1z"/>
		<path id="Path 771" class="s74" d="m80 525l1-2h5v5h-6z"/>
		<path id="Path 772" class="s14" d="m324 524l5-1 2 5-1 8h-4l-4-6z"/>
		<path id="Path 773" class="s88" d="m342 524l5-1 3 1 3 3-2 5-6 8-5 5-2-9-2-8z"/>
		<path id="Path 774" class="s88" d="m614 528l5-5 7 1 1 3-4 1 1 5 11 1 3-3h2l1 8 11 5 2 8-8 2-4-2-3-5-3 2-7-1-6-2-3-4-3-6z"/>
		<path id="Path 775" class="s65" d="m59 527l1-3h4 2l1 4h3l2 16-16 5-2-1-3-7 1-8 5-5z"/>
		<path id="Path 776" class="s60" d="m410 528l5-4h13v10h-8-10z"/>
		<path id="Path 777" class="s75" d="m502 534l-2-10h12l-2 10z"/>
		<path id="Path 778" class="s83" d="m554 529l3-5 9 1 1 15-9-2-4-3z"/>
		<path id="Path 779" class="s87" d="m600 527l2-3 4 2v1l-6 1z"/>
		<path id="Path 780" class="s69" d="m74 526l6-1v3l3 13-11 3-2-16z"/>
		<path id="Path 781" class="s70" d="m111 526l8-1 1 9h-1l-12 1v-5z"/>
		<path id="Path 782" class="s82" d="m538 530l-4-5 9 1h1v4z"/>
		<path id="Path 783" class="s55" d="m728 530l2-5 5 1h1l1 7z"/>
		<path id="Path 784" class="s90" d="m222 534v-8h7l1 10h-6z"/>
		<path id="Path 785" class="s92" d="m242 528l10-2h4l3 1-5 7v8h-7l-5-3z"/>
		<path id="Path 786" class="s90" d="m259 527l11 1 1 4 2 8h9l-2 14 4 6v3 15h-12l-6-7-2-19-8-7-2-3v-8z"/>
		<path id="Path 787" class="s67" d="m380 540l-2-14h6 2v14z"/>
		<path id="Path 788" class="s75" d="m386 540v-14l24 2v6 7l-14-2z"/>
		<path id="Path 789" class="s70" d="m460 532l-5-2v-4h5z"/>
		<path id="Path 790" class="s74" d="m544 530v-4h7l3 3v6l-5 1z"/>
		<path id="Path 791" class="s88" d="m606 527v-1l3 2v4h-3z"/>
		<path id="Path 792" class="s3" d="m51 533v-6h8l-2 1h-5v5z"/>
		<path id="Path 793" class="s92" d="m600 528l6-1v5 6h-5z"/>
		<path id="Path 794" class="s43" d="m684 533l6-6 10 3 1 7-11-1-3 4z"/>
		<path id="Path 795" class="s45" d="m715 530l4-3 5 11v4h-4l-3 1z"/>
		<path id="Path 796" class="s2" d="m724 538l-5-11 3 1 6 2 9 3h1l-7 2-3 5-3-4z"/>
		<path id="Path 797" class="s94" d="m52 533v-5h5z"/>
		<path id="Path 798" class="s80" d="m83 541l-3-13h6 3l2 11z"/>
		<path id="Path 799" class="s76" d="m128 530l12-2 3 3-3 3-12 2-4-2z"/>
		<path id="Path 800" class="s89" d="m330 536l1-8h5l2 8z"/>
		<path id="Path 801" class="s85" d="m573 534v-3l6-3 3 1v3 2z"/>
		<path id="Path 802" class="s72" d="m609 532v-4h5l3 8h-5z"/>
		<path id="Path 803" class="s90" d="m149 530l3-1 5 2v3h-3z"/>
		<path id="Path 804" class="s57" d="m700 530h15l2 13v2h-2l-4 1-10-9z"/>
		<path id="Path 805" class="s71" d="m98 537l-3-2 8-5h4v5z"/>
		<path id="Path 806" class="s47" d="m143 531l6-1 5 4v8h-3-7l-4-8z"/>
		<path id="Path 807" class="s90" d="m320 540l-2-10h4l4 6z"/>
		<path id="Path 808" class="s85" d="m539 539l-1-9h6l5 6z"/>
		<path id="Path 809" class="s90" d="m652 544l-11-5-1-8h3l11 5z"/>
		<path id="Path 810" class="s57" d="m660 534l6 1 3-4 7 4 8-2 3 7-15 12-8-1v-9l-5-7z"/>
		<path id="Path 811" class="s93" d="m282 540h-9l-2-8h11z"/>
		<path id="Path 812" class="s92" d="m282 540v-8h8l12 11v12l-7 3-11 2-4-6z"/>
		<path id="Path 813" class="s54" d="m345 540l6-8 6 3v8l-3 1h-6z"/>
		<path id="Path 814" class="s66" d="m582 534v-2l5 2-1 6h-3z"/>
		<path id="Path 815" class="s49" d="m606 538v-6h3l3 4-6 3z"/>
		<path id="Path 816" class="s3" d="m50 533h1v1h-1z"/>
		<path id="Path 817" class="s52" d="m50 534l1-1h1l-1 8h-1z"/>
		<path id="Path 818" class="s80" d="m474 536l11-3 2 5-4 7 1 5h3l5-8 9 2 1-6v-4h8v6l6 4v16l-2 1-4-2v5h4l-1 8h-7l-6 4-7 1-7-7v-10l-10-6z"/>
		<path id="Path 819" class="s72" d="m587 534l3-1 3 4-1 3h-4-2z"/>
		<path id="Path 820" class="s92" d="m107 535l12-1 3 8-6 8h-15l-4-4v-7l1-2z"/>
		<path id="Path 821" class="s88" d="m122 542l-3-8h1 4l4 2-2 6z"/>
		<path id="Path 822" class="s93" d="m128 536l12-2 4 8v14h-10l-9-1-7-1h-2v-4l6-8h4z"/>
		<path id="Path 823" class="s72" d="m208 544v-8l4-2h10l2 2-4 5 4 3h-10z"/>
		<path id="Path 824" class="s71" d="m410 541v-7h10v13z"/>
		<path id="Path 825" class="s78" d="m420 547v-13h8 5l4 4v8l6 6h5l6 3v10l-16 4-11 1z"/>
		<path id="Path 826" class="s64" d="m567 540h4l2-6h9l1 6-7 1-8 1z"/>
		<path id="Path 827" class="s87" d="m549 536l5-1 4 3-5 4 3 18h-2l-3-7-12-1-3-3v-2l3-2v-6z"/>
		<path id="Path 828" class="s47" d="m654 536l5-1 5 7v9l-10 1-2-8z"/>
		<path id="Path 829" class="s64" d="m224 544l-4-3 4-5h6l12 3 5 3-1 4z"/>
		<path id="Path 830" class="s72" d="m320 540l6-4h4 8l2 9-4 8-12 14-4-2z"/>
		<path id="Path 831" class="s45" d="m606 539l6-3h5l3 6-2 1-12 1z"/>
		<path id="Path 832" class="s45" d="m687 540l3-4 11 1 10 9v2l-6 3-3 3-3 1-5 2-14 6h-1l-2 1h-5v-12z"/>
		<path id="Path 833" class="s47" d="m592 540l1-3 3 3 5-2h5v1 5l-4 2-4-1-1 3h-3l-5-1v-1z"/>
		<path id="Path 834" class="s83" d="m492 542l-5 8h-3l-1-5 4-7h5z"/>
		<path id="Path 835" class="s74" d="m492 542v-4h10l-1 6z"/>
		<path id="Path 836" class="s79" d="m556 560l-3-18 5-4 9 2 1 2-2 18h-2z"/>
		<path id="Path 837" class="s79" d="m83 541l8-2h6v7l4 4h15v4l-13 3-2 9h-3-1l-1-1-6-1-1-1-1-1-11-5-2-1-6-2h-2l-7-2-4-3 16-5z"/>
		<path id="Path 838" class="s3" d="m88 562h1v1h-1z"/>
		<path id="Path 839" class="s95" d="m386 540l10-1 4 14-6 5-13 1-5 4v4l-10 1h-4l2-5h-6l-2-4v-12l2-2 22-5z"/>
		<path id="Path 840" class="s96" d="m376 567v-4l5-4 13-1 6-5-4-14 14 2 10 6 7 23-3 14-4 1-5-5h-11l-5-1-2-4-16-2z"/>
		<path id="Path 841" class="s67" d="m340 545l5-5 3 4h6v3l-11 5-3 2-4-1z"/>
		<path id="Path 842" class="s92" d="m568 542l8-1v9l3 4-1 8-6 1-6-3z"/>
		<path id="Path 843" class="s89" d="m576 541l7-1h3 2l1 6v1l-1 5-2 2h-7l-3-4z"/>
		<path id="Path 844" class="s45" d="m589 546l-1-6h4z"/>
		<path id="Path 845" class="s9" d="m50 544v-3h1l3 7z"/>
		<path id="Path 846" class="s79" d="m144 556v-14h7l-1 14z"/>
		<path id="Path 847" class="s72" d="m150 556l1-14h3l6 2v6 11l-3 1h-5l-1-2z"/>
		<path id="Path 848" class="s42" d="m246 546l1-4h7l2 3-8 2z"/>
		<path id="Path 849" class="s70" d="m448 552v-3l10-7h5l-3 10-6 3z"/>
		<path id="Path 850" class="s56" d="m618 543l2-1 3 4h-5z"/>
		<path id="Path 851" class="s3" d="m717 543l3-1-3 3z"/>
		<path id="Path 852" class="s96" d="m354 544l3-1 1 2-2 2h-2z"/>
		<path id="Path 853" class="s90" d="m606 544l12-1v3l-6 4-9-2-1-2z"/>
		<path id="Path 854" class="s3" d="m318 653v4l-3-1v-3z"/>
		<path id="Path 855" class="s56" d="m205 548l3-4h6v6z"/>
		<path id="Path 856" class="s88" d="m214 550v-6h10v10l-3 5 5 1v7h-5l-5-5-2-8z"/>
		<path id="Path 857" class="s92" d="m224 554v-10l22 2 2 1v7l-6 2v3l-4 2v7l7 4v7l-3 2-6-2-5-3-5-9v-7z"/>
		<path id="Path 858" class="s89" d="m248 547l8-2 8 7 2 19-10 8v12h-5l-5-2-4-8 3-2v-7l3-2 4-2 2-8v-4l-6-2z"/>
		<path id="Path 859" class="s76" d="m597 548l1-3 4 1 1 2-1 2z"/>
		<path id="Path 860" class="s3" d="m711 546l4-1-4 3z"/>
		<path id="Path 861" class="s57" d="m603 548l9 2 6-4h5l6 2-10 7-16-1-1-4z"/>
		<path id="Path 862" class="s46" d="m343 552l11-5h2v12l-7 1z"/>
		<path id="Path 863" class="s64" d="m588 552l1-5 5 1-2 4z"/>
		<path id="Path 864" class="s43" d="m636 549l3-2 3 5v4h-4z"/>
		<path id="Path 865" class="s0" d="m60 552h-5l-1-4 2 1z"/>
		<path id="Path 866" class="s76" d="m192 550l12-2v4l-5 3-4 1h-3z"/>
		<path id="Path 867" class="s58" d="m204 552v-4h1l9 2v4h-4z"/>
		<path id="Path 868" class="s63" d="m592 552l2-4h3l5 2 1 4v6l-3 3-6-3z"/>
		<path id="Path 869" class="s73" d="m619 555l10-7 7 1 2 7-6 10h-7v-5l-5-2z"/>
		<path id="Path 870" class="s79" d="m534 558l-2-7 4-2 3 3-2 6z"/>
		<path id="Path 871" class="s93" d="m157 562l3-1v-11l18 2 2 5v9 6h-14l-5 6h-5l-2-10z"/>
		<path id="Path 872" class="s56" d="m178 552l14-2v6l-12 1z"/>
		<path id="Path 873" class="s55" d="m654 552l10-1 8 1v12l-3 3-7-1-6 2 1 5-3 8-5 5-9 4-2 4h-7l-10 8-9-2-2-8v-2l9-3 1-17 5-4h7l6-10h4l4-2z"/>
		<path id="Path 874" class="s89" d="m199 555l5-3 6 2v6l6 2 5 5h5l5 9-1 4 4 3 3 9h6v4l5 3v7l8 2v8h-19l-2 3-4-1-1-2v-7l-17-15v-5l-5-5-2-11-6 2v6h-2l-4-4-14-1v-4-6l14-3 1-3 4-1z"/>
		<path id="Path 875" class="s84" d="m340 554l3-2 6 8-1 2h-4z"/>
		<path id="Path 876" class="s69" d="m454 555l6-3 7 4 1 12-14-3z"/>
		<path id="Path 877" class="s72" d="m537 558l2-6 12 1 3 7-2 12h-3l-12-8z"/>
		<path id="Path 878" class="s47" d="m586 554l2-2h4l2 8-5 4z"/>
		<path id="Path 879" class="s58" d="m642 556v-4l4 2z"/>
		<path id="Path 880" class="s59" d="m324 567l12-14 4 1 4 8h4l6 10 6 9v9l1 4-10 5-10-6-2-18-6 1-11-5z"/>
		<path id="Path 881" class="s52" d="m74 556l-5-2 6 2z"/>
		<path id="Path 882" class="s72" d="m101 566l2-9 13-3h2v5l-2 9-5 2-8-2z"/>
		<path id="Path 883" class="s85" d="m118 559v-5l7 1-3 4z"/>
		<path id="Path 884" class="s90" d="m216 562l-6-2v-6h4z"/>
		<path id="Path 885" class="s77" d="m226 560l-5-1 3-5z"/>
		<path id="Path 886" class="s72" d="m242 559v-3l6-2 6 2v4l-2 8-4 2v-6z"/>
		<path id="Path 887" class="s85" d="m467 556l9-2 10 6v10l7 7-1 3h-4l-7 2h-4v-3h-4l-5-6v-5z"/>
		<path id="Path 888" class="s91" d="m578 562l1-8h7l3 10-3 2 1 5 10-4v17h-8l-7-5-1 6-5 4v11l-7 4-3-12-5-2v-4l-1-6 4-9h2l1 3 9-1 2-6z"/>
		<path id="Path 889" class="s14" d="m603 560v-6l16 1 1 4v1l-14 2z"/>
		<path id="Path 890" class="s78" d="m122 559l3-4 9 1 1 4h-9z"/>
		<path id="Path 891" class="s93" d="m195 556l4-1v4l-4 1z"/>
		<path id="Path 892" class="s56" d="m295 558l7-3 2 4-3 3-6-1z"/>
		<path id="Path 893" class="s13" d="m77 557l-3-1h1z"/>
		<path id="Path 894" class="s85" d="m135 560l-1-4h10 6l1 4-7 2z"/>
		<path id="Path 895" class="s90" d="m180 557l12-1h3v4l-1 3-14 3z"/>
		<path id="Path 896" class="s64" d="m284 560l11-2v3l-11 2z"/>
		<path id="Path 897" class="s65" d="m530 564l4-6h3v6h-1z"/>
		<path id="Path 898" class="s79" d="m116 568l2-9h4l4 1-6 8z"/>
		<path id="Path 899" class="s93" d="m245 572l-7-4v-7l4-2 6 5v6z"/>
		<path id="Path 900" class="s97" d="m349 560l7-1 2 4v9h-4l-6-10z"/>
		<path id="Path 901" class="s24" d="m514 564h-4v-5l4 2z"/>
		<path id="Path 902" class="s57" d="m620 560v-1l5 2v5l-5 4z"/>
		<path id="Path 903" class="s93" d="m116 568h4l6-8h9l9 2 1 6-12 8v5l-7-3-3-1-6-2-4-1-1-1-1-3z"/>
		<path id="Path 904" class="s89" d="m144 562l7-2 1 2v6h-7z"/>
		<path id="Path 905" class="s72" d="m514 561l2-1 5 6 6 1 9 3 2 2-2 7 2 1-1 4-4 2-1 8-5 1v-6l-11-3v-12l-3-2 1-8z"/>
		<path id="Path 906" class="s90" d="m552 572l2-12h2 8v11l-4 9h-2l-4-4z"/>
		<path id="Path 907" class="s43" d="m564 571v-11h2l6 3v5l-6 3z"/>
		<path id="Path 908" class="s56" d="m589 564l5-4 6 3v2l-3 2-10 4-1-5z"/>
		<path id="Path 909" class="s81" d="m600 563l3-3 3 2-1 4-5-1z"/>
		<path id="Path 910" class="s45" d="m606 562l14-2v10l-1 17-9 3 2-20-7-4z"/>
		<path id="Path 911" class="s90" d="m152 568v-6h5l-3 6z"/>
		<path id="Path 912" class="s63" d="m572 563l6-1v5l-6 1z"/>
		<path id="Path 913" class="s98" d="m358 572v-9h6l-2 5h4v3l-4 1z"/>
		<path id="Path 914" class="s2" d="m677 564l2-1 1 2v-2l5 1v1l-8 1z"/>
		<path id="Path 915" class="s4" d="m680 563v2l-1-2z"/>
		<path id="Path 916" class="s76" d="m527 567l3-3h6v6z"/>
		<path id="Path 917" class="s58" d="m536 570v-6h1l12 8v4h3v6l-4 1-6-5v-6h-4z"/>
		<path id="Path 918" class="s77" d="m669 567l3-3h5v2h-3v6h10v3l-11 1h-5l-1-4z"/>
		<path id="Path 919" class="s4" d="m685 565v-1h3l-2 1z"/>
		<path id="Path 920" class="s66" d="m686 565l2-1h16 1l6 2 4 6 2 3-1 1v2h-18-13l-1-3v-3z"/>
		<path id="Path 921" class="s20" d="m716 575h1v1h-1z"/>
		<path id="Path 922" class="s92" d="m311 576l2-6 7-5 4 2-2 4-3 3-5 4z"/>
		<path id="Path 923" class="s77" d="m438 569l16-4 14 3v5l5 6v3 2h-7-10-6l-2-7h-9z"/>
		<path id="Path 924" class="s57" d="m597 567l3-2 5 1 7 4-2 20v2h-10l-3-8z"/>
		<path id="Path 925" class="s48" d="m677 566l8-1h1l-2 7h-10v-6z"/>
		<path id="Path 926" class="s3" d="m97 566h1v1h-1z"/>
		<path id="Path 927" class="s1" d="m98 567v-1h3l2 2v1z"/>
		<path id="Path 928" class="s45" d="m657 573l-1-5 6-2v5z"/>
		<path id="Path 929" class="s88" d="m662 571v-5l7 1-2 5h-3z"/>
		<path id="Path 930" class="s9" d="m715 572l-4-6 5 6z"/>
		<path id="Path 931" class="s62" d="m366 568l10-1 5 6 16 2 2 4 5 1v14l-2 6h-6l-2 3 4 5v6l-2 2-10 2-10-1-14-9 6-12-7-2-1-4h8l-4-6h7l-2-3h-7v-9l4-1z"/>
		<path id="Path 932" class="s49" d="m572 568l6-1-2 6-9 1-1-3z"/>
		<path id="Path 933" class="s61" d="m103 569v-1l8 2 1 3-4 1-2-1z"/>
		<path id="Path 934" class="s92" d="m133 581v-5l12-8h7 2l2 10h5l5-6h14v4l-6 7 2 10h-4-3l1 3-9-3-4-3-3-1h-1l-4-1h-1l-6-2z"/>
		<path id="Path 935" class="s65" d="m427 570l11-1 1 8h9l2 7-1 2h-11-8l-6-2z"/>
		<path id="Path 936" class="s58" d="m256 591v-12l10-8 6 7v7l9 10-5 3h-3l-5-5z"/>
		<path id="Path 937" class="s81" d="m319 574l3-3 11 5-1 4h-10z"/>
		<path id="Path 938" class="s93" d="m657 573l5-2 2 1v4l-4 4-2 1h-4z"/>
		<path id="Path 939" class="s84" d="m360 581l-6-9h4 4v9z"/>
		<path id="Path 940" class="s90" d="m500 576l6-4h7l3 2v12l-2 2h-4v-9z"/>
		<path id="Path 941" class="s48" d="m538 580l-2-1 2-7h4v6z"/>
		<path id="Path 942" class="s51" d="m552 576h-3v-4h3l2 4z"/>
		<path id="Path 943" class="s76" d="m664 576v-4h3l1 4h-2z"/>
		<path id="Path 944" class="s20" d="m717 575l-2-3h1l3 1z"/>
		<path id="Path 945" class="s1" d="m108 574l4-1 1 1z"/>
		<path id="Path 946" class="s90" d="m200 581v-6l6-2 2 11h-6z"/>
		<path id="Path 947" class="s56" d="m314 578l5-4 3 6-3 4h-5z"/>
		<path id="Path 948" class="s58" d="m333 576l6-1 2 18 10 6 1 6 4 3-2 8h-13l-3-3-2-21-4-12z"/>
		<path id="Path 949" class="s68" d="m673 576l11-1 1 3h-1l-12 1z"/>
		<path id="Path 950" class="s88" d="m176 593l-2-10 6-7 14 1 4 4v9l-7 4z"/>
		<path id="Path 951" class="s77" d="m234 583l-4-3 1-4 5 3z"/>
		<path id="Path 952" class="s93" d="m310 584l-3-6 4-2 3 2v6z"/>
		<path id="Path 953" class="s56" d="m493 577l7-1 10 3v9l-11 2h-11v-10h4z"/>
		<path id="Path 954" class="s73" d="m552 582v-6h2l4 4v6l-3 4-1 11 4 3v7l-10 4-14-1-1-8-5 1v7l-4 9-6-4 2-7-28 2h-6v-8h8l10-2 15-2h4l3-6 1-1 5-1 1-8 4-2 5 4h6l6-1z"/>
		<path id="Path 955" class="s72" d="m660 580l4-4h2l2 4-1 3h-5z"/>
		<path id="Path 956" class="s48" d="m668 580l-2-4h2 5l-1 3z"/>
		<path id="Path 957" class="s27" d="m716 578v-2h1l3 1v4z"/>
		<path id="Path 958" class="s20" d="m720 581v-4l4 6z"/>
		<path id="Path 959" class="s14" d="m281 595l-9-10v-7h12l8 12-4 4z"/>
		<path id="Path 960" class="s91" d="m538 580l4-2 6 5v5h-6l-5-4z"/>
		<path id="Path 961" class="s77" d="m672 579l12-1v6l-17-1 1-3z"/>
		<path id="Path 962" class="s65" d="m684 584v-6h1 13l3 8 24 3 2 5-3 7-3 5-9-3-8-8-17-1-9-3-2-1v-4h10z"/>
		<path id="Path 963" class="s64" d="m725 589l-24-3-3-8h18l4 3 4 2 1 5z"/>
		<path id="Path 964" class="s58" d="m234 583l2-4 6 2 4 8-2 3h-1-6z"/>
		<path id="Path 965" class="s65" d="m473 582v-3h4v3z"/>
		<path id="Path 966" class="s42" d="m481 582l7-2v10h-4z"/>
		<path id="Path 967" class="s47" d="m576 600v-11l5-4 1-6 7 5h8l3 8-4 6h-6l-6 5z"/>
		<path id="Path 968" class="s43" d="m319 584l3-4h10l4 12-16-2z"/>
		<path id="Path 969" class="s84" d="m404 594v-14h11l5 5-3 8z"/>
		<path id="Path 970" class="s57" d="m558 586v-6h2l1 6z"/>
		<path id="Path 971" class="s65" d="m658 581l2-1 2 3-1 3-3-1z"/>
		<path id="Path 972" class="s92" d="m198 590v-9h2l2 3v6z"/>
		<path id="Path 973" class="s97" d="m360 590v-9h2 7l2 3h-7l4 6z"/>
		<path id="Path 974" class="s56" d="m649 586l5-5h4v4l3 1v2l-10 2z"/>
		<path id="Path 975" class="s76" d="m473 584v-2h4 4l3 8-1 7-5 1-4-6z"/>
		<path id="Path 976" class="s47" d="m548 583l4-1 2 5-6 1z"/>
		<path id="Path 977" class="s54" d="m661 586l1-3h5l17 1 2 2h-10z"/>
		<path id="Path 978" class="s79" d="m202 590v-6h6l5 5v5l17 15v7l-10 1-6-3v-13z"/>
		<path id="Path 979" class="s91" d="m310 589v-5h4 5l1 6-9 2z"/>
		<path id="Path 980" class="s56" d="m420 585l4-1 6 2v7l-1 2h-3l-8-1-1-1z"/>
		<path id="Path 981" class="s49" d="m449 586l1-2h6v4z"/>
		<path id="Path 982" class="s76" d="m456 588v-4h10v4l-3 5-4 1z"/>
		<path id="Path 983" class="s56" d="m466 588v-4h7l1 8z"/>
		<path id="Path 984" class="s90" d="m438 586h11l7 2 3 6-1 3h-4-4v-4l-8 2-4-3z"/>
		<path id="Path 985" class="s58" d="m430 593v-7h8v6l-2 2z"/>
		<path id="Path 986" class="s91" d="m514 588l2-2 11 3v6l-1 1-5-1-7-1z"/>
		<path id="Path 987" class="s49" d="m555 590l3-4h3v4z"/>
		<path id="Path 988" class="s72" d="m638 594l2-4 9-4 2 4 1 4h-6v5h-8z"/>
		<path id="Path 989" class="s69" d="m661 588v-2h15v4h-13z"/>
		<path id="Path 990" class="s73" d="m292 590l18-1 1 3 9-2 16 2 2 21 3 3h13l3 6h9l-1 7-19-3-14-2-1-7-11-1-4-6-1-7h-5l-1 5-21-3v-11z"/>
		<path id="Path 991" class="s64" d="m463 593l3-5 8 4 4 6-6 2h-7z"/>
		<path id="Path 992" class="s63" d="m499 590l11-2h4v6l-9 1-1 3-5-1z"/>
		<path id="Path 993" class="s59" d="m651 590l10-2 2 2-1 3 8 1 3 6-1 6-6 6v9l-7-1-2 5h-4l1 5h-3-3l-11-3-9-3v-4h4l-1-3-9-2v-2l-2-5 17-4 1-5h8v-5h6z"/>
		<path id="Path 994" class="s9" d="m725 589v-1l2 6z"/>
		<path id="Path 995" class="s77" d="m244 592l2-3 5 2-2 3z"/>
		<path id="Path 996" class="s72" d="m191 594l7-4h4l12 11v13l-6-1-1-1-3-1h-2l-2-3v-2l2-2-9-7z"/>
		<path id="Path 997" class="s90" d="m478 598l5-1 1-7h4 11v7l-5 2-8 2-4 1v4h4v8h-2l-11-1-1-1v-12z"/>
		<path id="Path 998" class="s63" d="m558 611v-7l-4-3 1-11h6l5 2 3 12-3 7z"/>
		<path id="Path 999" class="s67" d="m670 594l-8-1 1-3h13l2 1v4z"/>
		<path id="Path 1000" class="s64" d="m249 594l2-3h5l12 2 5 5-2 1h-10z"/>
		<path id="Path 1001" class="s29" d="m678 595v-4l9 3-8 2z"/>
		<path id="Path 1002" class="s14" d="m256 608l-8-2v-7l-5-3v-4h1l5 2 12 5v6z"/>
		<path id="Path 1003" class="s65" d="m436 594l2-2 4 3v5l-6-2z"/>
		<path id="Path 1004" class="s45" d="m584 603l6-5h6l4-6h10l2 8v8l-5 7-6 3-12 1v1h-3l-2-6z"/>
		<path id="Path 1005" class="s0" d="m174 598h-8l-5-5 9 3h2z"/>
		<path id="Path 1006" class="s64" d="m170 596l-1-3h3v3z"/>
		<path id="Path 1007" class="s56" d="m172 596v-3h4l15 1 2 3-1 3h-11l-4-1h-1l-1-1h-1z"/>
		<path id="Path 1008" class="s2" d="m175 598h1v1h-1z"/>
		<path id="Path 1009" class="s69" d="m404 594l13-1 1 1 2 6-9 2-2 5-1 1h-6v-8z"/>
		<path id="Path 1010" class="s66" d="m429 595l1-2 6 1v4l-2 1h-4z"/>
		<path id="Path 1011" class="s42" d="m442 595l8-2v4h4l-1 5-11-2z"/>
		<path id="Path 1012" class="s66" d="m459 594l4-1 2 7-5 3-6 1-1-2 1-5h4z"/>
		<path id="Path 1013" class="s93" d="m281 595l7-1v11l-2 3h-8l-2-2v-8z"/>
		<path id="Path 1014" class="s84" d="m351 599l10-5 7 2-6 12h-6l-4-3z"/>
		<path id="Path 1015" class="s71" d="m420 600l-2-6 8 1-5 5z"/>
		<path id="Path 1016" class="s64" d="m504 598l1-3 9-1 7 1-2 7-15 2z"/>
		<path id="Path 1017" class="s79" d="m621 602l10-8h7v5l-1 5-17 4-1-2z"/>
		<path id="Path 1018" class="s65" d="m673 600l-3-6 8 1 1 1z"/>
		<path id="Path 1019" class="s78" d="m679 596l8-2 17 1 8 8 1 10 4 1-2 6-2 3-1 1-2 2-12 2-4-6-12 2-16-3v-9l6-6 1-6z"/>
		<path id="Path 1020" class="s9" d="m724 601l3-7-1 9z"/>
		<path id="Path 1021" class="s64" d="m421 600l5-5h3l1 4h4l-1 3h-7z"/>
		<path id="Path 1022" class="s58" d="m519 602l2-7 5 1-3 6z"/>
		<path id="Path 1023" class="s65" d="m192 600l1-3 9 7-2 2z"/>
		<path id="Path 1024" class="s56" d="m494 599l5-2 5 1v6l-10 2z"/>
		<path id="Path 1025" class="s90" d="m271 599l2-1h3v8h-4z"/>
		<path id="Path 1026" class="s90" d="m434 599l2-1 6 2 11 2 1 2-2 7-3 2-15-5-1-6z"/>
		<path id="Path 1027" class="s2" d="m183 602l-6-3 4 1z"/>
		<path id="Path 1028" class="s93" d="m256 608l5-3v-6h10l1 7-2 8-11 2h-3z"/>
		<path id="Path 1029" class="s43" d="m465 600h7v12h-12v-9z"/>
		<path id="Path 1030" class="s81" d="m486 601l8-2v7h-8z"/>
		<path id="Path 1031" class="s79" d="m183 602l-2-2h11l8 6v2h-3l-1-1h-1l-1-1h-1l-5-2z"/>
		<path id="Path 1032" class="s3" d="m196 607h1v1h-1z"/>
		<path id="Path 1033" class="s3" d="m194 606h1v1h-1z"/>
		<path id="Path 1034" class="s84" d="m398 608l-4-5 2-3h6v8z"/>
		<path id="Path 1035" class="s90" d="m409 607l2-5 9-2h1l5 2 1 6-5 2h-4z"/>
		<path id="Path 1036" class="s57" d="m569 604l7-4 8 3v11l-2 9-6 3-8 3h-1l-2 4-2 3-5 7-2 4-8 2-7 6-23 7-4 1-6 1-5 1-5 1-38 2 3-8 25 2 3-8 19-5 2-9 12-8 22-7 2-10 10-4h8z"/>
		<path id="Path 1037" class="s57" d="m612 608v-8l9 2-2 4z"/>
		<path id="Path 1038" class="s65" d="m486 606h-4v-4l4-1z"/>
		<path id="Path 1039" class="s41" d="m721 606l3-5 2 2-2 6-3 1z"/>
		<path id="Path 1040" class="s73" d="m427 608l-1-6h7l1 6z"/>
		<path id="Path 1041" class="s43" d="m309 608l1-5h5l1 7z"/>
		<path id="Path 1042" class="s91" d="m454 604l6-1v9l-4 1-4-2z"/>
		<path id="Path 1043" class="s70" d="m717 614l-4-1-1-10 9 3v4l-1 3h-1-1z"/>
		<path id="Path 1044" class="s3" d="m193 606l-3 1-2-3z"/>
		<path id="Path 1045" class="s63" d="m278 608h8l2-3 21 3 7 2 4 6 11 1 1 7h-16l-23-5-5-5h-10z"/>
		<path id="Path 1046" class="s91" d="m270 614l2-8h4l2 2v6z"/>
		<path id="Path 1047" class="s43" d="m528 614v-7l5-1 1 8z"/>
		<path id="Path 1048" class="s90" d="m612 608l7-2 1 2 2 5-8-1v3h-6-1z"/>
		<path id="Path 1049" class="s56" d="m408 608l1-1 9 3v6l-10-2z"/>
		<path id="Path 1050" class="s3" d="m202 611l-5-3h3z"/>
		<path id="Path 1051" class="s89" d="m354 616l2-8h6l14 9 10 1v8l-6 2-14-6h-9z"/>
		<path id="Path 1052" class="s64" d="m398 614v-6h4 6v6z"/>
		<path id="Path 1053" class="s49" d="m422 610l5-2h7l15 5v4l-15 1h-6l-6-2z"/>
		<path id="Path 1054" class="s6" d="m721 610l3-1-1 4h-3z"/>
		<path id="Path 1055" class="s81" d="m418 616v-6h4v6z"/>
		<path id="Path 1056" class="s51" d="m449 613l3-2 4 2 1 5-8-1z"/>
		<path id="Path 1057" class="s81" d="m456 613l4-1h12l1 1-1 7-10 1-5-3z"/>
		<path id="Path 1058" class="s56" d="m492 614l28-2-2 7-16 3-7-2h-3z"/>
		<path id="Path 1059" class="s66" d="m608 615h6v-3l8 1v2l6 5v4h-1-1-1l-5-2-12-6z"/>
		<path id="Path 1060" class="s0" d="m231 618l-10 1-13-6 6 1 6 3 10-1z"/>
		<path id="Path 1061" class="s49" d="m472 620l1-7 11 1v6z"/>
		<path id="Path 1062" class="s49" d="m717 614l1-1v6l-3 1z"/>
		<path id="Path 1063" class="s2" d="m718 619v-6h1z"/>
		<path id="Path 1064" class="s47" d="m259 616l11-2h8 10l5 5 23 5h16l14 2 4 11v4l-5 7-10-2-4-1h-10l-3-5h-12l-7-4h-10l-14-8h-12l-4-5z"/>
		<path id="Path 1065" class="s43" d="m396 616l2-2h10l10 2 2 15-18-1-1-4h-5z"/>
		<path id="Path 1066" class="s58" d="m484 620v-6h2 6v6z"/>
		<path id="Path 1067" class="s63" d="m524 623l4-9h6l14 1-2 10-22 7z"/>
		<path id="Path 1068" class="s3" d="m582 623l2-9 2 6h3z"/>
		<path id="Path 1069" class="s94" d="m601 618l6-3 1 1 12 6h-5l-12-2-2-1z"/>
		<path id="Path 1070" class="s77" d="m607 615h1v1h-1z"/>
		<path id="Path 1071" class="s67" d="m628 620l-6-5 9 2 1 3z"/>
		<path id="Path 1072" class="s88" d="m235 619l2-3h19 3v7l4 5h12l14 8h10l7 4h12l3 5-1 5v3h-2v-2l-3-3-6-1-10-3-29-7-6-3-2-1-3-2-4-1-20-10z"/>
		<path id="Path 1073" class="s58" d="m386 618l10-2v10h-2-8z"/>
		<path id="Path 1074" class="s73" d="m420 631l-2-15h4l6 2v5 7z"/>
		<path id="Path 1075" class="s73" d="m434 618l15-1 8 1 5 3v7l-6 2v5l-16-3v-6l-6-3z"/>
		<path id="Path 1076" class="s0" d="m235 620l-4-2 4 1z"/>
		<path id="Path 1077" class="s91" d="m428 623v-5h6v5z"/>
		<path id="Path 1078" class="s3" d="m589 619l12-1v1z"/>
		<path id="Path 1079" class="s91" d="m502 622l16-3 6 4v9l-12 8h-23l-5-4-20-1-2-7v-7l10-1h12 8 3l1 8h4z"/>
		<path id="Path 1080" class="s3" d="m715 620l3-1-5 4z"/>
		<path id="Path 1081" class="s73" d="m502 622l-2 6h-4l-1-8z"/>
		<path id="Path 1082" class="s50" d="m654 630l-1-5h4l2-5 7 1 16 3 6 11h-2l-18-1z"/>
		<path id="Path 1083" class="s91" d="m346 626l19 3 1-7 14 6 6-2h8v10l-6 3v7h-10-15l-9-5v-3l-4-1z"/>
		<path id="Path 1084" class="s1" d="m625 624l-10-2h5z"/>
		<path id="Path 1085" class="s29" d="m682 624l12-2 4 6 2 3h-1-4l1 4h-5-3z"/>
		<path id="Path 1086" class="s43" d="m428 630v-7h6l6 3v6z"/>
		<path id="Path 1087" class="s3" d="m628 627l-2-3h1z"/>
		<path id="Path 1088" class="s52" d="m628 627l-1-3h1l9 3 1 2-7-1z"/>
		<path id="Path 1089" class="s73" d="m394 636v-10h2 5l1 4-3 6z"/>
		<path id="Path 1090" class="s20" d="m698 628l12-2-2 3-4-1v4l-4-1z"/>
		<path id="Path 1091" class="s92" d="m638 629l-1-2 11 3h-8l-1-1z"/>
		<path id="Path 1092" class="s3" d="m639 629h1v1h-1z"/>
		<path id="Path 1093" class="s43" d="m456 635v-5l6-2 2 7z"/>
		<path id="Path 1094" class="s63" d="m399 636l3-6 18 1 8-1 12 2 16 3h8l20 1 5 4-5 6h-9l-6 9h-4l-4-5h-17l-2-5-5-1-19 4-2-4-14-2z"/>
		<path id="Path 1095" class="s3" d="m648 631l-8-1h8z"/>
		<path id="Path 1096" class="s0" d="m648 631v-1h3l12 4z"/>
		<path id="Path 1097" class="s77" d="m663 634l-12-4h3l14 4z"/>
		<path id="Path 1098" class="s4" d="m696 635l-1-4h4z"/>
		<path id="Path 1099" class="s3" d="m270 637h-5l-1-3z"/>
		<path id="Path 1100" class="s2" d="m668 635l-5-1h5z"/>
		<path id="Path 1101" class="s12" d="m668 635v-1l18 1v1h-7-5z"/>
		<path id="Path 1102" class="s4" d="m686 636v-1h2 3z"/>
		<path id="Path 1103" class="s9" d="m686 636l5-1h5l-17 2v-1z"/>
		<path id="Path 1104" class="s47" d="m388 646v-7l6-3h5l3 6 14 2 2 4 19-4 5 1 2 5h17l4 5h4l6-9h9l5-6h23l-2 9-19 5-3 8-25-2-3 8h-1l-8 1-5 1-36-4-1-7-11-3z"/>
		<path id="Path 1105" class="s2" d="m679 637l-5-1h5z"/>
		<path id="Path 1106" class="s63" d="m350 641v-4l4 1v3z"/>
		<path id="Path 1107" class="s92" d="m345 648l5-7h4l9 5h15l2 13-5-1z"/>
		<path id="Path 1108" class="s77" d="m320 650l1-5h10l-7 6z"/>
		<path id="Path 1109" class="s59" d="m324 651l7-6 4 1-8 10z"/>
		<path id="Path 1110" class="s98" d="m327 656l8-10 10 2 30 10 4 12-1 6h-9-7l-5-6h-8l-4 4-6-7-3 1-9-10z"/>
		<path id="Path 1111" class="s88" d="m380 659l-2-13h10l10 10 11 3 1 7-14-1-5-1 2 4v1l-6-4z"/>
		<path id="Path 1112" class="s72" d="m320 653v-3l4 1 3 5v2h-2l-3-2-1-1z"/>
		<path id="Path 1113" class="s1" d="m324 661l-3 1v-7l1 1z"/>
		<path id="Path 1114" class="s88" d="m324 661l-2-5 3 2z"/>
		<path id="Path 1115" class="s94" d="m324 661l1-3h2l9 10 3 6 6 2 19 16 4 6h-2l-12-6-17-14-4-7-2-2z"/>
		<path id="Path 1116" class="s84" d="m379 670l-4-12 5 1 7 6-1 5z"/>
		<path id="Path 1117" class="s69" d="m386 670l1-5 6 4 2 7h-7z"/>
		<path id="Path 1118" class="s76" d="m336 668l3-1 6 7v2l-6-2z"/>
		<path id="Path 1119" class="s2" d="m393 669v-1l3 2v6h-1z"/>
		<path id="Path 1120" class="s59" d="m345 674l4-4h8l5 6 2 6h4l1-6h9l8 2v12l-6 4-16-2-19-16z"/>
		<path id="Path 1121" class="s82" d="m378 676l1-6h7l2 6-2 2z"/>
		<path id="Path 1122" class="s97" d="m369 676l-1 6h-4l-2-6z"/>
		<path id="Path 1123" class="s78" d="m386 678l2-2h7 1v4l-2 9-8 1z"/>
		<path id="Path 1124" class="s0" d="m396 680v-4l2 4z"/>
		<path id="Path 1125" class="s52" d="m394 689l2-9h2l-3 15-4 3v-1z"/>
		<path id="Path 1126" class="s65" d="m386 690l8-1-3 8-5 2-6-5z"/>
		<path id="Path 1127" class="s58" d="m368 698l-4-6 16 2 6 5v2h-1-5z"/>
		<path id="Path 1128" class="s94" d="m386 699l5-2v1l-5 3z"/>
		<path id="Path 1129" class="s1" d="m375 702l-9-4h2l12 3v1z"/>
		<path id="Path 1130" class="s1" d="m386 701l5-3-1 4h-5v-1z"/>
		<path id="Path 1131" class="s52" d="m380 702v-1h5v1z"/>
	</g>
</svg>