<svg version="1.2" xmlns="http://www.w3.org/2000/svg" viewBox="0 0 1000 1000" width="1000" height="1000">
	<title>Micropterus_dolomieu</title>
	<style>
		.s0 { opacity: .2;fill: #d4cdca } 
		.s1 { opacity: .3;fill: #f6f4f2 } 
		.s2 { fill: #867359 } 
		.s3 { opacity: .5;fill: #8d8177 } 
		.s4 { opacity: .8;fill: #8a8079 } 
		.s5 { opacity: .9;fill: #b2a79e } 
		.s6 { fill: #695637 } 
		.s7 { opacity: .7;fill: #b8afa9 } 
		.s8 { opacity: .7;fill: #d5cfcc } 
		.s9 { fill: #5d441f } 
		.s10 { opacity: .7;fill: #f4f1f0 } 
		.s11 { opacity: .8;fill: #e5e0dd } 
		.s12 { fill: #c1a883 } 
		.s13 { opacity: .1;fill: #c6bfbd } 
		.s14 { opacity: .1;fill: #efeceb } 
		.s15 { fill: #634f28 } 
		.s16 { fill: #745f3a } 
		.s17 { fill: #765626 } 
		.s18 { opacity: .1;fill: #9c928e } 
		.s19 { opacity: .4;fill: #b8aea7 } 
		.s20 { fill: #958063 } 
		.s21 { fill: #7d6948 } 
		.s22 { fill: #4a371a } 
		.s23 { fill: #392c18 } 
		.s24 { fill: #604f31 } 
		.s25 { opacity: .3;fill: #a0948b } 
		.s26 { fill: #503e1f } 
		.s27 { opacity: .4;fill: #dfdad7 } 
		.s28 { opacity: 1;fill: #cfc4b6 } 
		.s29 { fill: #6f5e45 } 
		.s30 { fill: #332716 } 
		.s31 { fill: #413117 } 
		.s32 { fill: #564627 } 
		.s33 { fill: #433726 } 
		.s34 { fill: #2b2317 } 
		.s35 { fill: #4c3f2c } 
		.s36 { fill: #beb0a1 } 
		.s37 { opacity: .2;fill: #f1edeb } 
		.s38 { fill: #2f220e } 
		.s39 { fill: #a0948b } 
		.s40 { fill: #967c55 } 
		.s41 { fill: #9c835b } 
		.s42 { fill: #8b734e } 
		.s43 { fill: #6d5831 } 
		.s44 { fill: #7d663f } 
		.s45 { opacity: .6;fill: #f0ecea } 
		.s46 { opacity: .6;fill: #9d938b } 
		.s47 { opacity: .4;fill: #39332a } 
		.s48 { opacity: 1;fill: #716c6f } 
		.s49 { fill: #6a5f51 } 
		.s50 { fill: #211a11 } 
		.s51 { fill: #8b7b6d } 
		.s52 { fill: #b0a399 } 
		.s53 { fill: #352e24 } 
		.s54 { fill: #574b3a } 
		.s55 { fill: #a68e68 } 
		.s56 { opacity: 1;fill: #807366 } 
		.s57 { opacity: 1;fill: #9e8e7a } 
		.s58 { fill: #ad9574 } 
		.s59 { fill: #776958 } 
		.s60 { fill: #b49e81 } 
		.s61 { fill: #bcaa94 } 
		.s62 { fill: #c6b9aa } 
		.s63 { fill: #1f1d17 } 
		.s64 { fill: #8d6e3f } 
		.s65 { opacity: .5;fill: #c8c0bb } 
		.s66 { fill: #9c886d } 
		.s67 { fill: #b89b70 } 
		.s68 { opacity: .2;fill: #5d5347 } 
		.s69 { fill: #af905f } 
		.s70 { opacity: 1;fill: #908276 } 
		.s71 { fill: #4c4438 } 
		.s72 { opacity: 1;fill: #d7d0cc } 
		.s73 { fill: #605442 } 
		.s74 { opacity: 1;fill: #c3c0c6 } 
		.s75 { fill: #15110c } 
		.s76 { fill: #a78753 } 
		.s77 { fill: #957545 } 
		.s78 { fill: #a07e48 } 
		.s79 { fill: #866531 } 
		.s80 { fill: #a4a0a8 } 
		.s81 { fill: #8b8382 } 
		.s82 { opacity: 1;fill: #e8e2e1 } 
		.s83 { fill: #b7b4bb } 
		.s84 { fill: #3e3d3c } 
		.s85 { fill: #575250 } 
		.s86 { fill: #a19999 } 
		.s87 { fill: #908b90 } 
		.s88 { fill: #aeaab2 } 
		.s89 { fill: #5f5b5d } 
		.s90 { opacity: 1;fill: #696467 } 
		.s91 { opacity: .1;fill: #7d7269 } 
		.s92 { fill: #7c777a } 
		.s93 { fill: #4d4a49 } 
		.s94 { fill: #272521 } 
		.s95 { opacity: .6;fill: #655e56 } 
		.s96 { opacity: .7;fill: #776a5d } 
		.s97 { opacity: .8;fill: #504b47 } 
	</style>
	<g id="Background">
		<path id="Path 0" class="s0" d="m368 376h1v1h-1z"/>
		<path id="Path 1" class="s1" d="m496 357l5 1h-1z"/>
		<path id="Path 2" class="s2" d="m412 361l9-4 1 4 1 2v2h-3l-1-3h-7z"/>
		<path id="Path 3" class="s3" d="m457 359l12-1-3 1-9 1z"/>
		<path id="Path 4" class="s4" d="m488 359l7-2h1l4 1-6 3h-16z"/>
		<path id="Path 5" class="s5" d="m466 359l3-1v3h7l-6 2h-3z"/>
		<path id="Path 6" class="s6" d="m494 361l6-3v6l5-1h2v8l-1 2h-3z"/>
		<path id="Path 7" class="s3" d="m505 363l-5 1v-6h1v4h4z"/>
		<path id="Path 8" class="s7" d="m429 362l7-3 11 2-12 2-8 2h-4v-2h1l2 1z"/>
		<path id="Path 9" class="s8" d="m448 361l9-2v1 1l-8 2z"/>
		<path id="Path 10" class="s9" d="m457 360l9-1 1 4h3l-6 10-7-2v-10z"/>
		<path id="Path 11" class="s10" d="m518 361l6-2v1z"/>
		<path id="Path 12" class="s7" d="m524 360v-1h8v5 1h-1l-1-1v-3h-4z"/>
		<path id="Path 13" class="s9" d="m573 361l15-2h10l14 2h3l2 4v4h-1l-15 1-7 6h-4l-3-5h-14l-7-4v-4l1-2z"/>
		<path id="Path 14" class="s7" d="m612 361l-14-2h14z"/>
		<path id="Path 15" class="s11" d="m612 361v-2l9 2h-6z"/>
		<path id="Path 16" class="s12" d="m518 361l6-1 2 1-8 2z"/>
		<path id="Path 17" class="s13" d="m406 364l6-3v1l-5 2z"/>
		<path id="Path 18" class="s14" d="m423 363l-1-2 2 2z"/>
		<path id="Path 19" class="s15" d="m435 363l12-2h1l1 2v6l4 2v4l5 2h5l1-4 6-10 6-2h2 16l9 12v18l10 9-1 11h-6l-11-1-5 1h-3l-1-11-11-5-2-8h-7l1 9v5h-12l-2-6-2-6-6-2-4-11-6-3z"/>
		<path id="Path 20" class="s16" d="m449 363l8-2v10h-4l-4-2z"/>
		<path id="Path 21" class="s8" d="m508 362l5-1v2h-5z"/>
		<path id="Path 22" class="s5" d="m513 363v-2h5v2z"/>
		<path id="Path 23" class="s9" d="m518 363l8-2h4v3h-5l-10 7h-8v-8h1 5z"/>
		<path id="Path 24" class="s8" d="m558 362l9-1-1 2h-8z"/>
		<path id="Path 25" class="s17" d="m617 365l-2-4h6 2l1 2-1 2z"/>
		<path id="Path 26" class="s5" d="m624 363l-1-2h18v2h-3-5z"/>
		<path id="Path 27" class="s11" d="m641 363v-2l6 2z"/>
		<path id="Path 28" class="s0" d="m388 364l4-2v1z"/>
		<path id="Path 29" class="s13" d="m392 363v-1l10 2z"/>
		<path id="Path 30" class="s17" d="m407 364l5-2h7l1 3v8l-4 6h-11l-7-3v-1l1-10h3z"/>
		<path id="Path 31" class="s18" d="m505 363v-1h3v1h-1z"/>
		<path id="Path 32" class="s0" d="m546 364l6-2v1l-5 1z"/>
		<path id="Path 33" class="s19" d="m552 363v-1h6v1h-2z"/>
		<path id="Path 34" class="s13" d="m649 363l10 1-9-1z"/>
		<path id="Path 35" class="s20" d="m388 364l4-1 10 1v1h-3l-1 10-2 1-9 2-2-1v-6l-5-1 7-6z"/>
		<path id="Path 36" class="s21" d="m427 365l8-2v10h-8z"/>
		<path id="Path 37" class="s5" d="m547 364l5-1h4l-9 2z"/>
		<path id="Path 38" class="s22" d="m547 365l9-2h2 8v4l7 4v10l16 13v5 6 4h-9l-9-2-1 4-10-1-3 6 1 7-5 1-2-4-8-3-3-3-2-8-9-5v-9l-5-3-1-6 5-8 7-1 1-7 6-2z"/>
		<path id="Path 39" class="s23" d="m623 365l1-2h9v6h-10z"/>
		<path id="Path 40" class="s22" d="m633 369v-6h5l1 5z"/>
		<path id="Path 41" class="s24" d="m639 368l-1-5h3 6 2 1l2 2v4z"/>
		<path id="Path 42" class="s5" d="m652 365l-2-2 9 1h4l5 3h-2z"/>
		<path id="Path 43" class="s0" d="m376 372l3-5 8-3-7 6-3 2z"/>
		<path id="Path 44" class="s25" d="m402 365v-1h4 1z"/>
		<path id="Path 45" class="s26" d="m507 371h8l10-7h5l1 1 5 2-1 7-7 1-5 8h-11l-6-10z"/>
		<path id="Path 46" class="s0" d="m532 365v-1h8v1z"/>
		<path id="Path 47" class="s3" d="m540 365v-1h6 1v1h-5z"/>
		<path id="Path 48" class="s27" d="m668 367l-5-3 14 5z"/>
		<path id="Path 49" class="s16" d="m420 373v-8h3 4v8z"/>
		<path id="Path 50" class="s28" d="m536 367l-5-2h1 8 2z"/>
		<path id="Path 51" class="s22" d="m617 369v-4h6v4z"/>
		<path id="Path 52" class="s26" d="m652 369v-4l14 2v6l-1 2h-8z"/>
		<path id="Path 53" class="s29" d="m666 373v-6h2l9 2h1l9 5 6 5 7 7v9h-11l-1-11-9-3-5-8z"/>
		<path id="Path 54" class="s30" d="m633 369l6-1 13 1 5 6h8v7l5 6 9 3 1 8 3 2 4 20v10h-14l-3-3-11-1v-2-6l-8-1v-8l-4-5h-6l-1-4-9-6-10 2-6-4v-11l1-13h1 6z"/>
		<path id="Path 55" class="s23" d="m594 376l7-6 15-1-1 13-13-1-1 7 5 4 9 1 6 4v8h-8l-3-5h-5l-2-3h-8v-14z"/>
		<path id="Path 56" class="s0" d="m687 374l-9-5 8 2z"/>
		<path id="Path 57" class="s21" d="m377 372l3-2 5 1v6l-10-2z"/>
		<path id="Path 58" class="s22" d="m464 373l-1 4h-5l-5-2v-4h4z"/>
		<path id="Path 59" class="s31" d="m589 399v-5l-16-13v-10h14l3 5v6l5 1v14 2z"/>
		<path id="Path 60" class="s25" d="m373 374l3-2h1l-2 3h-1-1z"/>
		<path id="Path 61" class="s32" d="m416 379l4-6h7 8l6 3 4 11 4 8h4l2 6-1 4-23-1-4 1v4l-2 2-13-5-4-5-5 4h-6l-2-3v-3l-8-5v-16l9-2h2l7 3v7l6 5v6h4l3-6 2-2 1-6z"/>
		<path id="Path 62" class="s32" d="m512 411l1-11-10-9v-18h3l6 10h11l1 6 5 3v9l-6 1-4 9z"/>
		<path id="Path 63" class="s33" d="m665 375l1-2h8l5 8v10l-9-3-5-6z"/>
		<path id="Path 64" class="s0" d="m369 376l4-2v1z"/>
		<path id="Path 65" class="s0" d="m693 379l-6-5h4l3 5z"/>
		<path id="Path 66" class="s5" d="m369 376l4-1h1l-5 4-22 4 3-2 6-2 12-2z"/>
		<path id="Path 67" class="s24" d="m369 379l5-4h1l10 2 2 1v16l8 5v3l-3 3h-7-6v-7l-8-3z"/>
		<path id="Path 68" class="s22" d="m396 376l2-1v1z"/>
		<path id="Path 69" class="s30" d="m595 383l-5-1v-6h4z"/>
		<path id="Path 70" class="s13" d="m350 380l6-1-6 2z"/>
		<path id="Path 71" class="s6" d="m347 383l22-4 2 16-15 6h-7l-10-11v-5l7-2z"/>
		<path id="Path 72" class="s15" d="m411 391l-6-5v-7h11l5 4-1 6-3 2z"/>
		<path id="Path 73" class="s8" d="m700 395v-9l-7-7h1l8 7v10z"/>
		<path id="Path 74" class="s0" d="m338 384l12-4v1l-3 2h-1z"/>
		<path id="Path 75" class="s34" d="m615 393l-9-1-5-4 1-7 13 1z"/>
		<path id="Path 76" class="s35" d="m679 391v-10l9 3 1 11-2 6h-4l-3-2z"/>
		<path id="Path 77" class="s36" d="m338 384l8-1-7 2h-1z"/>
		<path id="Path 78" class="s7" d="m324 386l7-2h7v1l-5 2-6 2-10 1v-1z"/>
		<path id="Path 79" class="s24" d="m333 387l5-2h1v5h-6z"/>
		<path id="Path 80" class="s6" d="m327 389l6-2v3l-6 1z"/>
		<path id="Path 81" class="s22" d="m453 395h-4l-4-8 6 2z"/>
		<path id="Path 82" class="s30" d="m467 396l-1-9h7l2 8z"/>
		<path id="Path 83" class="s8" d="m299 394l18-5v1l-6 3-12 3z"/>
		<path id="Path 84" class="s24" d="m317 390l10-1v2l-4 8h-12v-6z"/>
		<path id="Path 85" class="s22" d="m417 391l3-2-2 2z"/>
		<path id="Path 86" class="s15" d="m327 391l6-1h6l10 11h7l3 8v4l-22 3-3 5-5 1-2-3-12 2-14-2v-14-2h6l4-4h12z"/>
		<path id="Path 87" class="s26" d="m418 391l-3 6h-4v-6h6z"/>
		<path id="Path 88" class="s6" d="m299 396l12-3v6l-4 4h-6z"/>
		<path id="Path 89" class="s37" d="m296 395l3-1v2h-3z"/>
		<path id="Path 90" class="s19" d="m286 399l10-4v1l-5 2z"/>
		<path id="Path 91" class="s26" d="m356 401l15-6 8 3v7 4h-20z"/>
		<path id="Path 92" class="s32" d="m467 396l8-1 11 5 1 11-4 3v6l-8-2-7-9-1-8z"/>
		<path id="Path 93" class="s38" d="m621 397l10-2 9 6 1 4h6l4 5v8 6h-2l-10-3-2-8-11-2-5-6z"/>
		<path id="Path 94" class="s33" d="m687 401l2-6h11l1 12z"/>
		<path id="Path 95" class="s39" d="m701 407l-1-12 2 1v4l1 11z"/>
		<path id="Path 96" class="s24" d="m291 398l5-2h3l2 7v2h-12l-2-4z"/>
		<path id="Path 97" class="s15" d="m595 399v-2h8l2 3-3 5h-7z"/>
		<path id="Path 98" class="s5" d="m286 399l5-1-4 3-9 2 1-2 5-2z"/>
		<path id="Path 99" class="s9" d="m589 405v-6h6v6z"/>
		<path id="Path 100" class="s26" d="m602 405l3-5h5l3 5v4l-5 3z"/>
		<path id="Path 101" class="s0" d="m703 411l-1-11 2 11z"/>
		<path id="Path 102" class="s32" d="m278 403l9-2 2 4h12v14h-9l-1 10-5 5-4-2 1-6-3-5 1-11-5-6 1-1z"/>
		<path id="Path 103" class="s21" d="m403 405l5-4 4 5 13 5v5l-4 1-2 9h-4l-1 3-1 2-7-3-4-2z"/>
		<path id="Path 104" class="s16" d="m454 405l1-4h12l1 8h-10z"/>
		<path id="Path 105" class="s29" d="m519 411l4-9 6-1 9 5 2 8-14-1-1 4h-6z"/>
		<path id="Path 106" class="s32" d="m687 421l-4-20h4l14 6 2 4h1v1 1l-3 13-3 8 16 7v2l-7 3 1 19 5 2 2 10v11l-4 2v6l-8 1-2-10h-10l-18-2-8-1-10-7h-8v-8l-14-16v-11l-6-6 1-16 11 1 10 3 5 21v15l5 5 8-2 20 4 4 2 4 6v-6l-4-8v-8l-12-8-6-4v-10h14l8-2v-4z"/>
		<path id="Path 107" class="s0" d="m273 404l4-1-1 1z"/>
		<path id="Path 108" class="s40" d="m392 405l3-3 2 3-2 2z"/>
		<path id="Path 109" class="s19" d="m263 407l9-3-5 3z"/>
		<path id="Path 110" class="s35" d="m267 407l5-3h1 3l5 6-1 11h-9-2l-2-6h-6l-1-4z"/>
		<path id="Path 111" class="s41" d="m427 409v-4l4-1v5z"/>
		<path id="Path 112" class="s42" d="m431 409v-5l23 1 4 4 1 8v9l-2 15 4 2 4 17-12 1-10-2-8-6 2-6v-6l-3-1-1-1v-8l-4-2v-11z"/>
		<path id="Path 113" class="s43" d="m379 409v-4h6v6l-6 2z"/>
		<path id="Path 114" class="s16" d="m385 411v-6h7l3 2v10h-4z"/>
		<path id="Path 115" class="s6" d="m395 407l2-2h6l-1 21-1 1-4-3-2-7z"/>
		<path id="Path 116" class="s32" d="m589 409v-4h6l-2 5z"/>
		<path id="Path 117" class="s31" d="m593 410l2-5h7l6 7-3 4 2 13h-5l-4-2z"/>
		<path id="Path 118" class="s15" d="m608 412l5-3v-4h8l5 6-1 5 3 4-1 16-10-1-3-4h-5l-2-2-2-13z"/>
		<path id="Path 119" class="s27" d="m891 407l8-2v2z"/>
		<path id="Path 120" class="s19" d="m899 407v-2h8v2z"/>
		<path id="Path 121" class="s25" d="m907 407v-2h7l-1 2z"/>
		<path id="Path 122" class="s3" d="m913 407l1-2 20 1v3h-1l-4-2h-3-12z"/>
		<path id="Path 123" class="s4" d="m257 409l6-2h4l-7 4-7 2h-3z"/>
		<path id="Path 124" class="s44" d="m570 411l1-4 9 2-1 7-8-1z"/>
		<path id="Path 125" class="s45" d="m865 409l9-2-4 3-5 1z"/>
		<path id="Path 126" class="s46" d="m870 410l4-3h10v1l-3 1z"/>
		<path id="Path 127" class="s47" d="m884 408v-1l3 1z"/>
		<path id="Path 128" class="s48" d="m891 408v-1h8 8 6 1v1z"/>
		<path id="Path 129" class="s49" d="m914 408v-1h12z"/>
		<path id="Path 130" class="s50" d="m914 408l12-1h3l2 7v2l-2 4-4 9-15 2-9 8v8l-8 5 2 39-6 3 1 7-3 4v10l-2 4h-8l-2-9-4-2v-14l-4-6-2-13v-11l9-8 4-12-17-11v-4h7l4-5 7-1 2-14 3-1h3 4z"/>
		<path id="Path 131" class="s51" d="m931 414l-2-7 4 2v2l-1 3z"/>
		<path id="Path 132" class="s13" d="m246 414l11-5-7 4z"/>
		<path id="Path 133" class="s29" d="m359 413v-4h20v4l-3 4-13-1z"/>
		<path id="Path 134" class="s16" d="m425 411l2-2h4l-2 9-4-2z"/>
		<path id="Path 135" class="s44" d="m459 417l-1-8h10l7 9v9l-8-2v-6z"/>
		<path id="Path 136" class="s42" d="m495 410l11 1-1 4h-6z"/>
		<path id="Path 137" class="s24" d="m579 416l1-7h9l4 1 5 17 4 2-2 5-9 6 2 27h-10v-4l-8-31v-1l7-1-1-5z"/>
		<path id="Path 138" class="s13" d="m859 412l6-3v2h-1l-5 2z"/>
		<path id="Path 139" class="s34" d="m870 410l11-1-2 14-7 1-4 5h-7l-2-14 5-2z"/>
		<path id="Path 140" class="s19" d="m933 411v-2h1v2z"/>
		<path id="Path 141" class="s44" d="m490 411l5-1 4 5v6l-4 1z"/>
		<path id="Path 142" class="s29" d="m558 423l-1-7 3-6 10 1 1 4v8l-4 1z"/>
		<path id="Path 143" class="s49" d="m865 411l5-1-6 3v-2z"/>
		<path id="Path 144" class="s33" d="m253 413l7-2 1 4v6l-2 8v2h-4z"/>
		<path id="Path 145" class="s42" d="m379 413l6-2 6 6-1 6h-9l-5-6z"/>
		<path id="Path 146" class="s21" d="m483 420v-6l4-3h3l5 11-2 6h-6z"/>
		<path id="Path 147" class="s21" d="m499 415h6l1-4h6 7v6l-6 1v7h-7l-1 3-4-1-2-6z"/>
		<path id="Path 148" class="s30" d="m628 420l-3-4 1-5 11 2 2 8z"/>
		<path id="Path 149" class="s52" d="m859 413l5-2v2l-5 2-13 3v-1l7-3h1z"/>
		<path id="Path 150" class="s27" d="m932 414l1-3h1v4h-2z"/>
		<path id="Path 151" class="s14" d="m704 413v-1l2 10h-2z"/>
		<path id="Path 152" class="s37" d="m854 414l5-2v1z"/>
		<path id="Path 153" class="s35" d="m246 414l4-1h3l2 18-6 5-1 9-9 2h-6v-6l2-13 8-3v-8z"/>
		<path id="Path 154" class="s2" d="m334 421l3-5 22-3 4 3-2 16-4 1-3-6-3 2-15-4z"/>
		<path id="Path 155" class="s32" d="m525 417l1-4 14 1 3 3-4 7 2 13-10-1v-11z"/>
		<path id="Path 156" class="s28" d="m701 426l3-13v9l-1 1-1 3z"/>
		<path id="Path 157" class="s46" d="m703 422h1v1h-1z"/>
		<path id="Path 158" class="s7" d="m232 419l5-4 9-1-3 3-10 4h-1z"/>
		<path id="Path 159" class="s46" d="m931 416v-2h1v1l-1 7-2 3v2l-2 2-1 5-2 2h-1l2-7 4-9z"/>
		<path id="Path 160" class="s53" d="m261 421v-6h6l2 6z"/>
		<path id="Path 161" class="s26" d="m571 423v-8l8 1 2 9h-6z"/>
		<path id="Path 162" class="s30" d="m846 418l13-3 2 14v4l-10 3v7h-13l-1-2v-10l2-9z"/>
		<path id="Path 163" class="s13" d="m914 570h1v1h-1z"/>
		<path id="Path 164" class="s54" d="m761 537v-4l6-4 4 2v6z"/>
		<path id="Path 165" class="s20" d="m361 432l2-16 13 1 5 6h9l1 3-1 6-5 3v-4l-9 2h-12z"/>
		<path id="Path 166" class="s55" d="m419 426l2-9 4-1 4 2v11l-6 2-4-2z"/>
		<path id="Path 167" class="s32" d="m233 421l10-4v8l-8 3z"/>
		<path id="Path 168" class="s21" d="m390 423l1-6h4l2 7-6 2z"/>
		<path id="Path 169" class="s15" d="m459 426v-9l8 2v6z"/>
		<path id="Path 170" class="s6" d="m513 425v-7l6-1h6l6 8v11l-8-1-5-9z"/>
		<path id="Path 171" class="s29" d="m541 437l-2-13 4-7 8 3 2 4-3 4 1 14v1h-10z"/>
		<path id="Path 172" class="s56" d="m840 419l6-2v1l-7 4-2-1z"/>
		<path id="Path 173" class="s42" d="m475 427v-9l8 2 4 8h6l1 11 12-7 5 2v3l-5 4-1 8-3 4h-7l-8-1-2-4-6-1z"/>
		<path id="Path 174" class="s50" d="m651 424v-6l8 1v6z"/>
		<path id="Path 175" class="s8" d="m222 424l10-5v2l-10 5z"/>
		<path id="Path 176" class="s42" d="m282 432l4 2 5-5 1-10h9l14 2v7l-4 6h-8l-10-2 2 4v13l-5 1-13-3v-3l-6-3v-4l4-5z"/>
		<path id="Path 177" class="s6" d="m315 421l12-2 2 3v5l-6 1h-8z"/>
		<path id="Path 178" class="s13" d="m836 421l4-2-3 2z"/>
		<path id="Path 179" class="s13" d="m829 423l1-3 5 1z"/>
		<path id="Path 180" class="s24" d="m222 426l10-5h1l2 7-2 13-8 1-14 1v-11l2-2z"/>
		<path id="Path 181" class="s34" d="m259 429l2-8h8 2v8h-6z"/>
		<path id="Path 182" class="s53" d="m271 429v-8h9l3 5-1 6h-7z"/>
		<path id="Path 183" class="s40" d="m329 422l5-1 2 4-5 2h-2z"/>
		<path id="Path 184" class="s55" d="m495 422l4-1 2 6 4 1 1 4-12 7-1-11z"/>
		<path id="Path 185" class="s23" d="m687 431v-10l8 4v4z"/>
		<path id="Path 186" class="s53" d="m829 423l6-2h1 1l2 1-2 9-21 4-2-7 1-1 12-4z"/>
		<path id="Path 187" class="s21" d="m553 424l5-1 9 1 1 6 7 2 8 31h-10l-7-4v-8l-5-5h-6v-3l-4-1-1-14z"/>
		<path id="Path 188" class="s6" d="m567 424l4-1 4 2v6 1l-7-2z"/>
		<path id="Path 189" class="s0" d="m702 426l1-3h1l-2 4z"/>
		<path id="Path 190" class="s36" d="m821 424l6-1-12 4v-1l4-2z"/>
		<path id="Path 191" class="s19" d="m213 429l9-5v2l-9 4z"/>
		<path id="Path 192" class="s57" d="m391 426l6-2 4 3 4 3v3h-7l-8-1z"/>
		<path id="Path 193" class="s33" d="m654 445l-5-21h2l8 1v2l3 18z"/>
		<path id="Path 194" class="s37" d="m812 425l7-1-4 2h-3z"/>
		<path id="Path 195" class="s58" d="m331 427l5-2 15 4v8l-4 2-16-2z"/>
		<path id="Path 196" class="s55" d="m459 426l8-1 8 2 4 20 6 1 2 4-2 11-2 4h-5l-1-3-7-1-4-2-1-1-4-17-4-2z"/>
		<path id="Path 197" class="s43" d="m505 428l1-3h7l5 1 5 9 8 1 10 1v6 12 4l4 2-1 9-3 7-6-1-1-17-11-4-6-7v-9l-6-2v-3l-5-2z"/>
		<path id="Path 198" class="s31" d="m575 431v-6h6l1 5z"/>
		<path id="Path 199" class="s1" d="m808 427l4-2v1z"/>
		<path id="Path 200" class="s59" d="m401 427l1-1 4 2-1 2z"/>
		<path id="Path 201" class="s60" d="m414 429l1-3h4v3z"/>
		<path id="Path 202" class="s46" d="m714 441l-16-7 3-8h1v1 8l15 5v1z"/>
		<path id="Path 203" class="s56" d="m808 427l4-1h3v1l-1 1-19 5-7 2 2-3 9-3z"/>
		<path id="Path 204" class="s55" d="m323 428l6-1h2v10l-1 6-8-2z"/>
		<path id="Path 205" class="s61" d="m351 429l3-2 3 6 4-1 3 1 5 10h6l6-1 1 7-5 3-14-3v-7l-12-5z"/>
		<path id="Path 206" class="s6" d="m662 445l-3-18 11 1 3 3v10l-1 6-5 2z"/>
		<path id="Path 207" class="s60" d="m311 434l4-6h8l-1 13h-3l-8-5z"/>
		<path id="Path 208" class="s58" d="m405 430l1-2 7 3-2 3-6-1z"/>
		<path id="Path 209" class="s34" d="m795 433l19-5 2 7-6 5-15-1z"/>
		<path id="Path 210" class="s0" d="m198 437l15-8v1l-2 2-9 4z"/>
		<path id="Path 211" class="s43" d="m259 431v-2h6v8h-2z"/>
		<path id="Path 212" class="s29" d="m265 437v-8h6l4 3-4 5z"/>
		<path id="Path 213" class="s62" d="m413 431l1-2h5l4 2v8l-4 4h-4l-4-2v-7z"/>
		<path id="Path 214" class="s21" d="m423 431l6-2 4 2v8h-10z"/>
		<path id="Path 215" class="s29" d="m600 434l2-5h5l2 2v8h-6z"/>
		<path id="Path 216" class="s0" d="m789 432l10-3-9 3z"/>
		<path id="Path 217" class="s34" d="m895 491l-2-39 8-5v-8l9-8 15-2-2 7-8 22v3l-8 18v3 1l-4 6-2 2z"/>
		<path id="Path 218" class="s15" d="m248 445l1-9 6-5h4l4 6v6 4h-6z"/>
		<path id="Path 219" class="s61" d="m376 433l9-2v4l-1 1h-3-3z"/>
		<path id="Path 220" class="s6" d="m609 439v-8h5l3 4-1 6z"/>
		<path id="Path 221" class="s23" d="m816 435l21-4v10h-8l-4 6-6 2h-8l-1-9z"/>
		<path id="Path 222" class="s6" d="m202 436l9-4v11l-2 2-11-1-1-4z"/>
		<path id="Path 223" class="s28" d="m295 436l-2-4 10 2v3h-4z"/>
		<path id="Path 224" class="s60" d="m385 435l5-3 8 1 4 10-1 1-12-3-4-2-1-3z"/>
		<path id="Path 225" class="s28" d="m398 433h7l6 1v7l-9 2z"/>
		<path id="Path 226" class="s19" d="m777 436l12-4h1l-2 3-3 1-5 1z"/>
		<path id="Path 227" class="s36" d="m375 443h-6l-5-10h12l2 3z"/>
		<path id="Path 228" class="s50" d="m788 435l7-2v6 4h-7l-3-7z"/>
		<path id="Path 229" class="s63" d="m851 443v-7l10-3 17 11-4 12-9 8v11l-32 2-2-8 22-2-1-12-3-2z"/>
		<path id="Path 230" class="s36" d="m303 437v-3h8v2l-2 3z"/>
		<path id="Path 231" class="s16" d="m593 467l-2-27 9-6 3 5h6l7 2 3 12-4 2h-6l-2 6 8 2 9 13-1 11-3 2-6-5h-12l-6-11z"/>
		<path id="Path 232" class="s14" d="m924 436l2-2-2 3z"/>
		<path id="Path 233" class="s31" d="m616 441l1-6 10 1 6 6v11h-14z"/>
		<path id="Path 234" class="s5" d="m198 437l4-1-5 4-7 2 2-3z"/>
		<path id="Path 235" class="s40" d="m295 449v-13l4 1v11l-2 1z"/>
		<path id="Path 236" class="s28" d="m309 439l2-3 8 5v2h-7z"/>
		<path id="Path 237" class="s55" d="m375 443l3-7h3v5 1z"/>
		<path id="Path 238" class="s57" d="m381 441v-5h3l1 3z"/>
		<path id="Path 239" class="s8" d="m766 440l11-4 3 1-5 3-8 1h-1z"/>
		<path id="Path 240" class="s38" d="m780 437l5-1 3 7-9 8-3-1-1-10z"/>
		<path id="Path 241" class="s3" d="m915 458l8-22h1v1l-7 21z"/>
		<path id="Path 242" class="s64" d="m263 443v-6h2 6v4z"/>
		<path id="Path 243" class="s41" d="m299 448v-11h4l6 2 3 4-2 4z"/>
		<path id="Path 244" class="s61" d="m330 443l1-6 16 2v5l-14 3z"/>
		<path id="Path 245" class="s36" d="m347 439l4-2 12 5v7l-3 1-3 1-3-1-1-5h-5l-1-1z"/>
		<path id="Path 246" class="s40" d="m505 449l1-8 5-4 6 2v9l6 7 11 4 1 17-4 23-15-8-1 9-12 1-4-18 11-4 2-21z"/>
		<path id="Path 247" class="s65" d="m171 449l21-10-2 3-6 3-10 4z"/>
		<path id="Path 248" class="s62" d="m381 441l4-2 4 2-2 7-5 1-1-7z"/>
		<path id="Path 249" class="s66" d="m419 443l4-4h10l1 1-1 5h-4l-6 2z"/>
		<path id="Path 250" class="s53" d="m795 443v-4l15 1 1 9-10 2z"/>
		<path id="Path 251" class="s54" d="m190 442l7-2 1 4 11 1 2 14v1l-10 1h-4l-4 1h-2l-1-4-10 2v-3l6-2-2-3v-7z"/>
		<path id="Path 252" class="s12" d="m433 445l1-5 3 1v6z"/>
		<path id="Path 253" class="s18" d="m717 441v-1l35 2v1h-18-9z"/>
		<path id="Path 254" class="s13" d="m761 442l5-2v1l-5 2z"/>
		<path id="Path 255" class="s30" d="m767 441l8-1 1 10 3 1v6h-8l-4-4z"/>
		<path id="Path 256" class="s51" d="m225 442l8-1v6l-6 1z"/>
		<path id="Path 257" class="s32" d="m263 443l8-2 6 3v3l-5 2h-5l-4-2z"/>
		<path id="Path 258" class="s67" d="m319 443v-2h3l8 2 3 4 2 12-1 4-12-5v-11z"/>
		<path id="Path 259" class="s61" d="m387 448l2-7 12 3v8l-3 3h-7v-5z"/>
		<path id="Path 260" class="s55" d="m402 443l9-2 4 2-2 19 8 1v9l-2 3h-6-6l-4-2-5-18 3-3v-8z"/>
		<path id="Path 261" class="s38" d="m672 447l1-6 6 4z"/>
		<path id="Path 262" class="s24" d="m714 443v-2h3l8 2v2h-2z"/>
		<path id="Path 263" class="s53" d="m761 443l5-2h1v12h-6z"/>
		<path id="Path 264" class="s34" d="m811 449h8l6-2 4-6h8l1 2v5l-5 2-2 17h-17l-1-4h-9l-3-12z"/>
		<path id="Path 265" class="s49" d="m211 443l14-1 2 6v9l-6 2h-10l-2-14z"/>
		<path id="Path 266" class="s17" d="m551 443v-1l4 1v3z"/>
		<path id="Path 267" class="s68" d="m752 443v-1h9v1h-8z"/>
		<path id="Path 268" class="s69" d="m310 447l2-4h7l3 4v11h-1l-8-1h-4v-1z"/>
		<path id="Path 269" class="s61" d="m421 463l-8-1 2-19h4l4 4 1 12z"/>
		<path id="Path 270" class="s42" d="m541 455v-12h10l4 3-2 11z"/>
		<path id="Path 271" class="s38" d="m713 467l-5-2-1-19 7-3 9 2-2 16z"/>
		<path id="Path 272" class="s70" d="m725 445v-2h9v2z"/>
		<path id="Path 273" class="s20" d="m734 445v-2h18 1v2h-8-6z"/>
		<path id="Path 274" class="s33" d="m753 445v-2h8v10h-2-6z"/>
		<path id="Path 275" class="s23" d="m779 451l9-8h7l6 8 3 12-4 11-7 1-14-6v-12z"/>
		<path id="Path 276" class="s50" d="m831 467l2-17 5-2v-5h13l-2 10 3 2 1 12-22 2z"/>
		<path id="Path 277" class="s55" d="m333 447l14-3 1 1 3 6v8l-1 2h-7l-8-2z"/>
		<path id="Path 278" class="s29" d="m174 449l10-4v7l-5 1-5-3z"/>
		<path id="Path 279" class="s71" d="m239 447l9-2 9 2v8 4l-4 1-14-7z"/>
		<path id="Path 280" class="s20" d="m351 451l-3-6h5l1 5z"/>
		<path id="Path 281" class="s44" d="m423 447l6-2v8 5l-5 1z"/>
		<path id="Path 282" class="s40" d="m429 453v-8h4l4 2-2 6z"/>
		<path id="Path 283" class="s15" d="m667 463l-8 2-5-5v-15h8l5 4z"/>
		<path id="Path 284" class="s31" d="m672 447l7-2 12 8v8l-4 1v5l-20-4v-14z"/>
		<path id="Path 285" class="s31" d="m721 461l2-16h2 9 5l1 5h5l2 3h6 6v16 2h-10l-5 8-11 5-4-1v-11z"/>
		<path id="Path 286" class="s32" d="m745 450h-5l-1-5h6z"/>
		<path id="Path 287" class="s26" d="m745 450v-5h8v8h-6z"/>
		<path id="Path 288" class="s44" d="m541 455l12 2 2-11h6l5 5v8l7 4v12l4 1v9l-2 10-10-1v-7l-6-4v-7l-15-6 1-9-4-2z"/>
		<path id="Path 289" class="s54" d="m227 448l6-1h6v6l-4 4h-8z"/>
		<path id="Path 290" class="s54" d="m257 455v-8h6l4 2v5l-3 1z"/>
		<path id="Path 291" class="s59" d="m272 449l5-2 13 3-1 7h-14l-2-3z"/>
		<path id="Path 292" class="s72" d="m299 448l11-1-1 9h-6l-6-3v-4z"/>
		<path id="Path 293" class="s12" d="m382 449l5-1 4 2v5l2 18h-2l-1-3-13-1-1-8 1-9z"/>
		<path id="Path 294" class="s0" d="m161 454l10-5-6 4z"/>
		<path id="Path 295" class="s39" d="m165 453l6-4h3v1l-5 3z"/>
		<path id="Path 296" class="s73" d="m267 454v-5h5l1 5h-2z"/>
		<path id="Path 297" class="s60" d="m290 450l5-1h2v4l6 3-5 9-1 2-8 1-3-4 3-7z"/>
		<path id="Path 298" class="s40" d="m360 450l3-1 14 3-1 9h-7l-8-4z"/>
		<path id="Path 299" class="s55" d="m495 453h7l3-4 7 9-2 21-11 4-2-8 2-8-4-4z"/>
		<path id="Path 300" class="s53" d="m169 453l5-3 5 3 1 4v3l-7 1-5-2z"/>
		<path id="Path 301" class="s67" d="m351 451l3-1 3 1v6l-6 2z"/>
		<path id="Path 302" class="s55" d="m357 451l3-1 1 7h-4z"/>
		<path id="Path 303" class="s74" d="m179 453l5-1 2 3-6 2z"/>
		<path id="Path 304" class="s41" d="m485 463l2-11 8 1v10z"/>
		<path id="Path 305" class="s73" d="m161 454l4-1h4l-1 6-3 2-8-3 1-2z"/>
		<path id="Path 306" class="s42" d="m235 457l4-4 14 7-7 7h-7l-4-3z"/>
		<path id="Path 307" class="s67" d="m424 459l5-1v-5h6l8 6 4 8h6l-2 38-1 4h-11v-6l2-7-2-17 2-6-7-6-5 2-1 4-7-1v-9z"/>
		<path id="Path 308" class="s15" d="m615 455l4-2h14l14 16v8 10h-10l-7-2 1-7-7-2-9-13z"/>
		<path id="Path 309" class="s38" d="m759 469v-16h2 6l4 4v12z"/>
		<path id="Path 310" class="s0" d="m155 456l6-2-3 2z"/>
		<path id="Path 311" class="s42" d="m264 455l3-1h4v7h-5z"/>
		<path id="Path 312" class="s20" d="m271 461v-7h2l2 3v4z"/>
		<path id="Path 313" class="s41" d="m257 459v-4h7l2 6-5 2z"/>
		<path id="Path 314" class="s67" d="m393 473l-2-18h7l5 18z"/>
		<path id="Path 315" class="s9" d="m615 463l-8-2 2-6h6z"/>
		<path id="Path 316" class="s65" d="m145 462l10-6h3l-1 2-4 2-8 4z"/>
		<path id="Path 317" class="s51" d="m298 465l5-9h6v1l-2 8z"/>
		<path id="Path 318" class="s26" d="m313 457l8 1 1 4-9 3z"/>
		<path id="Path 319" class="s66" d="m221 459l6-2h8v7l-12 1h-2z"/>
		<path id="Path 320" class="s41" d="m275 461v-4h14l-3 7-5 5h-4z"/>
		<path id="Path 321" class="s21" d="m307 465l2-8h4v8h-1z"/>
		<path id="Path 322" class="s41" d="m351 459l6-2h4l8 4v8l4 4v8 5l-18 1-7 4-1-6 4-7 2-6-3-11z"/>
		<path id="Path 323" class="s50" d="m771 469v-12h8v12z"/>
		<path id="Path 324" class="s35" d="m153 460l4-2 8 3v7l-5 1-7-4z"/>
		<path id="Path 325" class="s75" d="m180 460l10-2 1 4-2 5-8 7h-9l-3-5 4-8z"/>
		<path id="Path 326" class="s64" d="m322 462l-1-4h1l12 5 1 8h-4-4v-6z"/>
		<path id="Path 327" class="s19" d="m915 461v-3h2l-3 7z"/>
		<path id="Path 328" class="s63" d="m165 461l3-2 5 2-4 8-4-1z"/>
		<path id="Path 329" class="s20" d="m211 460v-1h10v6l-7 1z"/>
		<path id="Path 330" class="s55" d="m253 460l4-1 4 4v6h-12l-3-2z"/>
		<path id="Path 331" class="s76" d="m334 463l1-4 8 2v9l8 8-4 7-6-2v-6l-6-6z"/>
		<path id="Path 332" class="s41" d="m453 467h-6l-4-8 10 2z"/>
		<path id="Path 333" class="s24" d="m145 464l8-4v5l7 4-1 6h-2-5l-7-10z"/>
		<path id="Path 334" class="s41" d="m201 461l10-1 3 6-3 3h-8l-2-2z"/>
		<path id="Path 335" class="s76" d="m453 461l12-1 1 1v3l-1 7 6 8v6l-2 14h-9l-2 6h-7l2-38z"/>
		<path id="Path 336" class="s52" d="m193 462l4-1v5h-3z"/>
		<path id="Path 337" class="s20" d="m197 466v-5h4v6z"/>
		<path id="Path 338" class="s60" d="m261 463l5-2h5 4l2 8v4h-1l-10 1-5-5z"/>
		<path id="Path 339" class="s77" d="m351 478l-8-8v-9h7l3 11z"/>
		<path id="Path 340" class="s55" d="m373 473l-4-4v-8h7l1 8v4z"/>
		<path id="Path 341" class="s40" d="m466 464v-3l4 2z"/>
		<path id="Path 342" class="s24" d="m687 467v-5l4-1 4 8h-4z"/>
		<path id="Path 343" class="s26" d="m713 467l8-6 8 11v11h-2l-12-6z"/>
		<path id="Path 344" class="s46" d="m907 479l8-18-1 4-5 14z"/>
		<path id="Path 345" class="s25" d="m138 467l7-5v2 1l-6 3z"/>
		<path id="Path 346" class="s73" d="m189 467l2-5h2l1 4h3l-4 4z"/>
		<path id="Path 347" class="s9" d="m313 465l9-3 5 3v6l-3 6-2 2-5 3v5h6l4 1h4l2 5-4 5-6 4-3 2v13l-4 9-3 5-3 2-9-1-5-11 1-10 4-5 3-1 1-16 2-10 2-7 3-7z"/>
		<path id="Path 348" class="s77" d="m466 464l4-1 7 1 1 3-1 12h-6l-6-8z"/>
		<path id="Path 349" class="s64" d="m483 467l2-4h10l4 4-2 8-12-2z"/>
		<path id="Path 350" class="s16" d="m577 476l-4-1v-12h10v4 6z"/>
		<path id="Path 351" class="s50" d="m793 475l7-1 4-11h9l1 4-3 3v16l-6 10-4 24 4 11 23 13-1 9h-4l-6-7-14-1-6-6h-4l-2-37v-8l4-2z"/>
		<path id="Path 352" class="s78" d="m223 465l12-1 4 3v12h-6-4l-4-5z"/>
		<path id="Path 353" class="s61" d="m281 469l5-5 3 4v5h-2-6z"/>
		<path id="Path 354" class="s6" d="m139 468l6-3 7 10v4l3 4 2 2v6l-4 4-11-5-1-4-8 1-8-3v-6l10-7z"/>
		<path id="Path 355" class="s79" d="m214 466l7-1h2l2 9-2 8-6-1v-6l-6-6z"/>
		<path id="Path 356" class="s70" d="m297 467l1-2h9l2 7-2 7h-4l-6-5z"/>
		<path id="Path 357" class="s29" d="m309 472l-2-7h5z"/>
		<path id="Path 358" class="s24" d="m193 470l4-4 4 1 2 2v10h-2-8z"/>
		<path id="Path 359" class="s45" d="m135 469l3-2 1 1-4 3z"/>
		<path id="Path 360" class="s32" d="m181 474l8-7 4 3v9h-4z"/>
		<path id="Path 361" class="s41" d="m239 479v-12h7l3 2 4 16-2 5-5 1-3-2z"/>
		<path id="Path 362" class="s66" d="m289 468l8-1v7l-3 1-5-2z"/>
		<path id="Path 363" class="s64" d="m428 473l1-4 5-2 7 6-2 6-10-2z"/>
		<path id="Path 364" class="s41" d="m477 479l1-12h5l2 6 12 2 2 8 4 18h-4l-7-10h-7l-4-3v-7z"/>
		<path id="Path 365" class="s44" d="m583 473v-6h10l3 6z"/>
		<path id="Path 366" class="s75" d="m827 553l1-9-23-13-4-11 4-24 6-10v-16l3-3h17v2l2 8 32-2 2 13 4 6v14l4 2 2 9-2 16 8 10 2 19-8 5v9l-8 6-2 7h-10l-2-15-11-10-9-1z"/>
		<path id="Path 367" class="s21" d="m160 469l5-1 4 1 3 5-1 3h-9l-3-2z"/>
		<path id="Path 368" class="s37" d="m123 479l12-10v2l-10 7z"/>
		<path id="Path 369" class="s32" d="m203 479v-10h8l6 6v6h-6z"/>
		<path id="Path 370" class="s58" d="m251 490l2-5-4-16h12l5 5 1 5-1 6-3 5-8 3z"/>
		<path id="Path 371" class="s58" d="m277 473v-4h4v4z"/>
		<path id="Path 372" class="s69" d="m377 473v-4l13 1 1 3-2 4-6 2h-6z"/>
		<path id="Path 373" class="s26" d="m695 469v6l-4-6z"/>
		<path id="Path 374" class="s30" d="m759 471v-2h12v9l-2 5h-8z"/>
		<path id="Path 375" class="s34" d="m771 478v-9h8l14 6 2 17-4 2v8l2 37-7 8h-8l-3 6-4-2v-14-6l-4-2-2-21 6-3 2-20 1-5z"/>
		<path id="Path 376" class="s42" d="m541 477l3-7 15 6v7l6 4v7l-4 5h-6l-9-4v-7l-5-3z"/>
		<path id="Path 377" class="s12" d="m324 477l3-6h4v6z"/>
		<path id="Path 378" class="s78" d="m331 477v-6h4l6 6v6l6 2 1 6-2 3-11 3-2-4-2-5-2-1z"/>
		<path id="Path 379" class="s33" d="m733 484l11-5 5-8h10l2 12-4 30-7 2-8-2-7-6-2-16z"/>
		<path id="Path 380" class="s79" d="m419 475l2-3 7 1 1 4-1 3h-9z"/>
		<path id="Path 381" class="s55" d="m266 474l10-1v5l-9 1z"/>
		<path id="Path 382" class="s36" d="m276 478v-5h1 4 6v9l-6 4-5-2z"/>
		<path id="Path 383" class="s57" d="m287 482v-9h2l5 2v6l-3 1z"/>
		<path id="Path 384" class="s67" d="m373 481v-8h4v6z"/>
		<path id="Path 385" class="s64" d="m389 477l2-4h2 10l4 2v8l-2 10h-16l-1-4 3-4z"/>
		<path id="Path 386" class="s6" d="m577 476l6-3h13l6 11-1 17h-4-7l-8 6-1 12-6 1-4-1v-4-7l5-4v-5l5-2 2-6v-4l-6-2z"/>
		<path id="Path 387" class="s2" d="m171 477l1-3h9l8 5v6l-2 7-4 1-4-6h-6l-2-3z"/>
		<path id="Path 388" class="s29" d="m223 482l2-8 4 5v5h-5z"/>
		<path id="Path 389" class="s80" d="m294 475l3-1 6 5-4 4-5-2z"/>
		<path id="Path 390" class="s21" d="m152 479v-4h5v4h-1z"/>
		<path id="Path 391" class="s41" d="m157 479v-4h2l3 2z"/>
		<path id="Path 392" class="s16" d="m407 483v-8h6v8z"/>
		<path id="Path 393" class="s40" d="m413 483v-8h6v5l-2 3z"/>
		<path id="Path 394" class="s21" d="m531 499l4-23 6 1v8l5 3v7l9 4v6l-4 8h-8l-3-5h-7l-2 19h-10v-2-16l7-1z"/>
		<path id="Path 395" class="s21" d="m623 487l1-11 7 2-1 7v2z"/>
		<path id="Path 396" class="s61" d="m157 479l5-2h9v7l-14 1-2-2 1-4z"/>
		<path id="Path 397" class="s67" d="m322 479l2-2h7l-2 10-2 1-4-1z"/>
		<path id="Path 398" class="s42" d="m383 479l6-2 2 8-3 4h-5z"/>
		<path id="Path 399" class="s78" d="m419 480h9l1-3 10 2 2 17-2 7-16 2h-6l-6-10 6-7v-5z"/>
		<path id="Path 400" class="s21" d="m647 487v-10h8l10 7-1 9-4 2-11-4z"/>
		<path id="Path 401" class="s24" d="m711 496v-6l4-2v-11l12 6v8l-4 4z"/>
		<path id="Path 402" class="s59" d="m123 479l2-1v6l8 3v12 4h-2l-8-5-1-7-6-5 2-3z"/>
		<path id="Path 403" class="s61" d="m267 479l9-1v6l-10 1z"/>
		<path id="Path 404" class="s50" d="m769 483l2-5 3 2-1 5z"/>
		<path id="Path 405" class="s19" d="m117 482l6-3-5 4h-1z"/>
		<path id="Path 406" class="s58" d="m155 483l-3-4h4z"/>
		<path id="Path 407" class="s55" d="m189 485v-6h4 8v6h-2-8z"/>
		<path id="Path 408" class="s57" d="m201 485v-6h2l8 2v4l-3 2z"/>
		<path id="Path 409" class="s44" d="m229 484v-5h4l-1 6z"/>
		<path id="Path 410" class="s42" d="m232 485l1-6h6l4 10h-3z"/>
		<path id="Path 411" class="s21" d="m299 483l4-4h4l-2 10h-7z"/>
		<path id="Path 412" class="s64" d="m323 487h-6v-5l5-3z"/>
		<path id="Path 413" class="s2" d="m373 481l4-2h6v10l-2 5-8-8z"/>
		<path id="Path 414" class="s55" d="m471 485v-6h6l4 2v7l-4 1z"/>
		<path id="Path 415" class="s8" d="m907 482v-3h2z"/>
		<path id="Path 416" class="s66" d="m211 485v-4h6l6 1 1 2-1 1z"/>
		<path id="Path 417" class="s52" d="m291 482l3-1 5 2-1 6-2 1-5-2z"/>
		<path id="Path 418" class="s37" d="m111 487l6-5v1z"/>
		<path id="Path 419" class="s70" d="m281 486l6-4h4v6l-7 5-4-2z"/>
		<path id="Path 420" class="s5" d="m111 487l6-4h1l-2 3-6 4v4h-2z"/>
		<path id="Path 421" class="s79" d="m405 493l2-10h6 4v5l-6 7h-6z"/>
		<path id="Path 422" class="s32" d="m727 491v-8h2l4 1v7z"/>
		<path id="Path 423" class="s53" d="m757 513l4-30h8l4 2-2 20-6 3 2 21-6 4v4l-5 4-18-7-9-1h-2l-4-2v-6l20 1 6 1 3-6 5-4z"/>
		<path id="Path 424" class="s27" d="m903 489l4-6-3 7z"/>
		<path id="Path 425" class="s59" d="m157 485l14-1 2 3v7l4 5-2 4-7 3-5-1v-6-6l-6-2z"/>
		<path id="Path 426" class="s28" d="m223 485l1-1h5l3 1 8 4v4l4 2 1 10-2 10h-7v-5l-9 1-4-8z"/>
		<path id="Path 427" class="s28" d="m266 485l10-1 5 2-1 5-4 4-3 2-1-7h-9z"/>
		<path id="Path 428" class="s29" d="m601 501l1-17h12l6 5 2 9 1 7-2 8h-11l-3-3-1-7z"/>
		<path id="Path 429" class="s29" d="m647 487l2 4 11 4 4-2 1-9 8 1v9l6 4v6l4 4 8 1v7l-2 3-12 2-26-2-2 3-5-2-5-10-6-4-2-9v-6h4l2-4z"/>
		<path id="Path 430" class="s39" d="m187 492l2-7h2v7z"/>
		<path id="Path 431" class="s36" d="m191 492v-7h8l2 11-9-2z"/>
		<path id="Path 432" class="s62" d="m201 496l-2-11h2l7 2 3-2h12v18l4 8-4 2-8-9-8-2z"/>
		<path id="Path 433" class="s77" d="m469 499l2-14 6 4 2 13-2 5h-7z"/>
		<path id="Path 434" class="s24" d="m575 495l2-10 6 2v4l-2 6-5 2z"/>
		<path id="Path 435" class="s24" d="m630 487v-2l7 2-2 4h-4z"/>
		<path id="Path 436" class="s24" d="m679 498l-6-4v-9l18 2-1 8z"/>
		<path id="Path 437" class="s29" d="m110 494v-4l6-4 6 5 1 7-3 4z"/>
		<path id="Path 438" class="s81" d="m133 487l8-1 1 4-1 9h-8z"/>
		<path id="Path 439" class="s17" d="m348 491l7-4 18-1 8 8v9h-7l-3 3v7l-6 6h-2l-2-16-14-6-1-3z"/>
		<path id="Path 440" class="s43" d="m177 499l-4-5v-7h6l4 6v6z"/>
		<path id="Path 441" class="s16" d="m327 488l2-1 2 1z"/>
		<path id="Path 442" class="s2" d="m620 489l3-2h7l1 4v6l-9 1z"/>
		<path id="Path 443" class="s29" d="m690 495l1-8h10l2 10v10h-10v-9z"/>
		<path id="Path 444" class="s39" d="m284 493l7-5 5 2-6 11-3 1-6-2v-4z"/>
		<path id="Path 445" class="s40" d="m477 489l4-1 4 3v11h-6z"/>
		<path id="Path 446" class="s58" d="m244 495l-4-2v-4h3l3 2z"/>
		<path id="Path 447" class="s73" d="m296 490l2-1h7l-1 16-3 1-2-3-6 1-3-3z"/>
		<path id="Path 448" class="s79" d="m381 494l2-5h5l1 4v9l-4 1h-4z"/>
		<path id="Path 449" class="s19" d="m901 491l2-2 1 1-5 9-1-1z"/>
		<path id="Path 450" class="s57" d="m141 499l1-9 11 5 5 4v4h-2l-4-5h-5v5h-5z"/>
		<path id="Path 451" class="s72" d="m246 491l5-1 4 3v9l-10 3-1-10z"/>
		<path id="Path 452" class="s82" d="m255 493l8-3h9l1 7-8 7h-2l-8-2z"/>
		<path id="Path 453" class="s9" d="m153 495l4-4 6 2v6h-5z"/>
		<path id="Path 454" class="s59" d="m276 495l4-4 4 2-3 3z"/>
		<path id="Path 455" class="s77" d="m485 502v-11h7l7 10v6h-10z"/>
		<path id="Path 456" class="s44" d="m515 500l1-9 15 8-3 9-7 1-2-2v-6z"/>
		<path id="Path 457" class="s35" d="m711 496l12-1 4-4h6l2 16-14 1-6 5h-10l-2-6v-10z"/>
		<path id="Path 458" class="s53" d="m890 501l-1-7 6-3h6l-3 7-1 2z"/>
		<path id="Path 459" class="s73" d="m183 493l4-1h4l1 2-3 7-6-2z"/>
		<path id="Path 460" class="s66" d="m329 498l4-5 2 4-2 1z"/>
		<path id="Path 461" class="s76" d="m389 502v-9h16v2 12l4 4h8l5-1 1-5 16-2v6 5l-4 2v9 6l-2 3h-4l-5-7h-11l-4-2-4-8-10-4-1-9z"/>
		<path id="Path 462" class="s19" d="m120 505l-12-11h2l10 8v1z"/>
		<path id="Path 463" class="s40" d="m189 501l3-7 9 2 6 6-4 3z"/>
		<path id="Path 464" class="s9" d="m335 497l11-3 1 3 14 6 2 16-12 7-2-1v-11l-6-2-7-4-3-10z"/>
		<path id="Path 465" class="s21" d="m561 499l4-5 10 1 1 4v5l-5 4v7h-10v-10z"/>
		<path id="Path 466" class="s73" d="m273 497l3-2 5 1v4l-3 4-8 8-2 1h-1l-2-9z"/>
		<path id="Path 467" class="s77" d="m417 511h-8l-4-4v-12h6l6 10z"/>
		<path id="Path 468" class="s6" d="m679 498l11-3 3 3v9l-2 2-8-1-4-4z"/>
		<path id="Path 469" class="s6" d="m622 498l9-1 2 9-3 1-7-2z"/>
		<path id="Path 470" class="s22" d="m120 502l3-4 8 5-2 4-5-1-4-3z"/>
		<path id="Path 471" class="s28" d="m147 503v-5h5l4 5-1 5h-7z"/>
		<path id="Path 472" class="s59" d="m323 502l6-4h4l3 10 7 4-2 3h-6l-7-11z"/>
		<path id="Path 473" class="s8" d="m897 500l1-2 1 1-2 5z"/>
		<path id="Path 474" class="s39" d="m133 503v-4h8l1 4-4 4z"/>
		<path id="Path 475" class="s42" d="m158 503v-4h5v6h-1z"/>
		<path id="Path 476" class="s83" d="m175 503l2-4h6l6 2 14 4v6l-7 6v5h-3l-3-4h-11l-2-5z"/>
		<path id="Path 477" class="s55" d="m458 505l2-6h9l1 8-5 6h-4z"/>
		<path id="Path 478" class="s6" d="m555 505v-6h6v6z"/>
		<path id="Path 479" class="s36" d="m278 504l3-4 6 2-3 4z"/>
		<path id="Path 480" class="s42" d="m503 501l12-1 4 1v6l-8 3v9h-6l-4-2-2-10v-6z"/>
		<path id="Path 481" class="s84" d="m890 501l7-1v4 9l-7 2h-3v-10z"/>
		<path id="Path 482" class="s85" d="m287 502l3-1 3 3-1 4-6 7-7 4-3-3 1-2 7-8z"/>
		<path id="Path 483" class="s29" d="m581 519l1-12 8-6h7l2 10-2 12-8 2-3-5z"/>
		<path id="Path 484" class="s24" d="m599 511l-2-10h4l5 2 1 7z"/>
		<path id="Path 485" class="s52" d="m203 505l4-3 8 2 8 9 4-2 9-1v5 7l-3 3-18-2-7-11-5-1z"/>
		<path id="Path 486" class="s83" d="m245 505l10-3 8 2-6 3-7 13-2 1-5-6z"/>
		<path id="Path 487" class="s61" d="m320 517v-13l3-2 5 2 7 11v8h-4l-5-6z"/>
		<path id="Path 488" class="s69" d="m385 503l4-1 5 2 1 9 10 4 4 8v6l-2 3h-4l-3-4-7-1-2-8-6 1v7l-8 5v5h-14l-3-4 7-6-2-10 6-6h12z"/>
		<path id="Path 489" class="s55" d="m477 507l2-5h6l4 5-3 5-8-2z"/>
		<path id="Path 490" class="s8" d="m120 505v-2l4 3v3h-5z"/>
		<path id="Path 491" class="s56" d="m129 507l2-4h2l5 4 5 6-2 6-11 1h-1z"/>
		<path id="Path 492" class="s52" d="m138 507l4-4h5l1 5h7l7 1h1l1 6-3 4-7 2-1 4h-9l-3-6 2-6z"/>
		<path id="Path 493" class="s72" d="m155 508l1-5h2l4 2v4z"/>
		<path id="Path 494" class="s39" d="m168 506l7-3 2 10h-6l-2-1v-3z"/>
		<path id="Path 495" class="s86" d="m293 504l6-1 2 3-4 5h-2l-3-3z"/>
		<path id="Path 496" class="s78" d="m371 513v-7l3-3h7 4l-2 10z"/>
		<path id="Path 497" class="s49" d="m250 520l7-13 6-3h2l2 9-12 13v-5z"/>
		<path id="Path 498" class="s74" d="m270 512l8-8 6 2-7 8z"/>
		<path id="Path 499" class="s28" d="m162 509v-4h1l5 1 1 3h-6z"/>
		<path id="Path 500" class="s69" d="m417 511v-6h6l-1 5z"/>
		<path id="Path 501" class="s44" d="m450 509l1-4h7l3 8-10 2z"/>
		<path id="Path 502" class="s32" d="m551 513l4-8h6v10 8h-6z"/>
		<path id="Path 503" class="s59" d="m621 513l2-8 7 2-1 16-2 4h-6z"/>
		<path id="Path 504" class="s49" d="m119 509h5v-3l5 1v13l-12 2h-10l-2 3h-4l-1-5 2-3 8-5h1l7-3z"/>
		<path id="Path 505" class="s71" d="m630 507l3-1 6 4 5 10-3 3h-12z"/>
		<path id="Path 506" class="s42" d="m461 513h4l5-6h7l1 3 8 2 1 17-2 2h-14l-2-10h-9l-1 7 4 2v7l-2 2h-6l-5-10h-8l-1-4h-6v-9l4-2 3 3 9-2z"/>
		<path id="Path 507" class="s16" d="m486 512l3-5h10l2 10 4 2 2 6-2 12h-8l-2-7-8-1z"/>
		<path id="Path 508" class="s16" d="m511 519v-9l8-3 2 2v16h-10z"/>
		<path id="Path 509" class="s54" d="m691 509l2-2h10l2 6v4l-14-1z"/>
		<path id="Path 510" class="s54" d="m715 513l6-5 14-1 7 6 1 13-20-1-8-4z"/>
		<path id="Path 511" class="s39" d="m286 515l6-7 3 3-2 8h-4z"/>
		<path id="Path 512" class="s29" d="m531 527l2-19h7l3 5h8l4 10v14h-4-4l-2-4h-12z"/>
		<path id="Path 513" class="s62" d="m164 515l-1-6h6v3l-3 3z"/>
		<path id="Path 514" class="s40" d="m439 514v-5h11l1 6-9 2z"/>
		<path id="Path 515" class="s73" d="m599 511l8-1 3 3h11v14l-28 9-14-3-4-8v-5l6-1 5 1 3 5 8-2z"/>
		<path id="Path 516" class="s80" d="m196 522v-5l7-6 5 1 7 11 18 2 3 10-3 4-8 2h-24l-10 3h-18l-4-1v-6l10-2-1-10 1-7h11l3 4v5l8 2 2-4z"/>
		<path id="Path 517" class="s49" d="m293 519l2-8h2l-1 10h-3z"/>
		<path id="Path 518" class="s27" d="m101 517l9-5-8 5z"/>
		<path id="Path 519" class="s51" d="m166 515l3-3 2 1-1 8h-3z"/>
		<path id="Path 520" class="s72" d="m268 513l2-1 7 2-1 2-6 4z"/>
		<path id="Path 521" class="s20" d="m341 515l2-3 6 2v11l-6-3z"/>
		<path id="Path 522" class="s87" d="m170 521l1-8h6l2 5-1 7-7-1z"/>
		<path id="Path 523" class="s74" d="m255 526l12-13h1l2 7-7 10-6 2-2-5z"/>
		<path id="Path 524" class="s73" d="m705 517v-4h10v8z"/>
		<path id="Path 525" class="s71" d="m743 526l-1-13 8 2 2 6-3 6z"/>
		<path id="Path 526" class="s73" d="m750 515l7-2v4l-5 4z"/>
		<path id="Path 527" class="s39" d="m890 515l7-2v6 4z"/>
		<path id="Path 528" class="s29" d="m161 519l3-4h2l1 6h-3z"/>
		<path id="Path 529" class="s88" d="m233 525l3-3v-7h7l5 6-3 6-9 8z"/>
		<path id="Path 530" class="s86" d="m279 519l7-4 3 4v15l-12 11-7 5-4 1-2-4 1-7 1-3 1-5z"/>
		<path id="Path 531" class="s51" d="m335 523v-8h6l2 7z"/>
		<path id="Path 532" class="s29" d="m561 523v-8h10v4l4 1v5z"/>
		<path id="Path 533" class="s53" d="m885 519l2-4h3l7 8 1 6-1 6h-8z"/>
		<path id="Path 534" class="s89" d="m270 520l6-4 3 3-12 13h-1l-3-2z"/>
		<path id="Path 535" class="s84" d="m689 519l2-3 14 1 10 4 8 4v6h-5-2-5l-9-2-2-5-9-1z"/>
		<path id="Path 536" class="s7" d="m97 519l4-2h1l-2 3-3 1z"/>
		<path id="Path 537" class="s52" d="m316 526l4-9h6l5 6v6l-8 2-4-1z"/>
		<path id="Path 538" class="s8" d="m93 524v-4l4-1v2l-3 3z"/>
		<path id="Path 539" class="s83" d="m130 520l11-1 3 6-1 8-4 1-8-3z"/>
		<path id="Path 540" class="s21" d="m153 525l1-4 7-2 3 2-4 4z"/>
		<path id="Path 541" class="s51" d="m289 534v-15h4v2 12z"/>
		<path id="Path 542" class="s79" d="m351 526l12-7h2l2 10-7 6h-9z"/>
		<path id="Path 543" class="s15" d="m507 525l-2-6h6v6z"/>
		<path id="Path 544" class="s53" d="m644 520l5 2 2-3 26 2 12-2 2 4 9 1 2 5-1 1-16-1 2 5 2 3 10 9-1 7h-5l-2-8-8-2v-9l-3-3-32 2-1 9h-4l-4-4-10-1-2-10 2-4h12z"/>
		<path id="Path 545" class="s63" d="m883 545l-8-10 2-16h8l4 16v10z"/>
		<path id="Path 546" class="s8" d="m897 523v-4l3 7v4l-2-1z"/>
		<path id="Path 547" class="s73" d="m97 521l3-1 1 5-1 4h-5l-1-5z"/>
		<path id="Path 548" class="s88" d="m117 522l12-2h1l1 11h-14z"/>
		<path id="Path 549" class="s71" d="m248 521l2-1 5 1v5 1l-3 2-7-2z"/>
		<path id="Path 550" class="s83" d="m160 525l4-4h3 3l1 3 7 1 1 10-10 2-9-6z"/>
		<path id="Path 551" class="s26" d="m293 533v-12h3l5 11v5 6h-6z"/>
		<path id="Path 552" class="s40" d="m385 529v-7l6-1 2 8z"/>
		<path id="Path 553" class="s66" d="m463 537v-7l-4-2 1-7h9l2 10v6z"/>
		<path id="Path 554" class="s87" d="m105 525l2-3h10v9h-8-4z"/>
		<path id="Path 555" class="s48" d="m196 522l7 3-2 4-8-2v-5z"/>
		<path id="Path 556" class="s59" d="m335 523l8-1 6 3 2 1v9l-10 2h-4v-6l-6-2v-6z"/>
		<path id="Path 557" class="s54" d="m555 537v-14h6l14 2 4 8-2 6h-18z"/>
		<path id="Path 558" class="s37" d="m91 524h1v1h-1z"/>
		<path id="Path 559" class="s10" d="m91 525l1-1h1v7l-2-1z"/>
		<path id="Path 560" class="s39" d="m93 531v-7h1l1 5v4l-2-1z"/>
		<path id="Path 561" class="s81" d="m100 529l1-4h4v6h-4z"/>
		<path id="Path 562" class="s88" d="m143 533l1-8h9 7v6l9 6v6l-10 2-4-1-1-9z"/>
		<path id="Path 563" class="s79" d="m409 531v-6l4 2v4z"/>
		<path id="Path 564" class="s21" d="m435 531v-6h6l1 4z"/>
		<path id="Path 565" class="s29" d="m505 537l2-12h4 10v2 6l-5 2-1 6h-10z"/>
		<path id="Path 566" class="s60" d="m313 531l3-5 3 4-4 2z"/>
		<path id="Path 567" class="s0" d="m900 530v-4l7 23-5-11z"/>
		<path id="Path 568" class="s89" d="m236 535l9-8 7 2-2 6h3v4l-9 8-1 6h-3-7l2-8-2-6z"/>
		<path id="Path 569" class="s83" d="m252 529l3-2 2 5-4 3h-3z"/>
		<path id="Path 570" class="s21" d="m413 531v-4h11l5 7h4v8l-6 7h-6l-2-10-6-1z"/>
		<path id="Path 571" class="s56" d="m521 533v-6h10l2 6-2 9h-3z"/>
		<path id="Path 572" class="s84" d="m593 536l28-9h6l2 10 10 1 4 4-10 13h-13l-2-2-11 2h-5v-3l-9-6z"/>
		<path id="Path 573" class="s59" d="m95 533v-4h5l1 2v7l-3-1h-1z"/>
		<path id="Path 574" class="s49" d="m323 531l8-2 6 2v6l-6 2h-6z"/>
		<path id="Path 575" class="s77" d="m377 539v-5l8-5h8l7 1 3 4-2 21h-4l-8-1v-3l-5-2v-4z"/>
		<path id="Path 576" class="s59" d="m435 531l7-2h8l5 10v4l-1 2-13 1-8-4v-8z"/>
		<path id="Path 577" class="s29" d="m485 531l2-2 8 1 2 7-2 8-13-1z"/>
		<path id="Path 578" class="s47" d="m687 534l-2-5 16 1h-15z"/>
		<path id="Path 579" class="s80" d="m701 530l1-1 9 2-5 1z"/>
		<path id="Path 580" class="s71" d="m897 535l1-6 2 1 2 8v4l-4-2z"/>
		<path id="Path 581" class="s37" d="m91 532v-2l2 1v1z"/>
		<path id="Path 582" class="s90" d="m257 532l6-2 3 2-2 3-3 2-8 2v-4z"/>
		<path id="Path 583" class="s21" d="m315 532l4-2 4 1 2 8h6l-2 8h-9-3l-2-7z"/>
		<path id="Path 584" class="s90" d="m101 538v-7h4 4l2 8v4z"/>
		<path id="Path 585" class="s81" d="m111 539l-2-8h8 14l8 3 1 7-1 2-4 1-12-2z"/>
		<path id="Path 586" class="s49" d="m310 533l3-2 2 1v8h-5v-3z"/>
		<path id="Path 587" class="s44" d="m407 534l2-3h4v7l-4 1z"/>
		<path id="Path 588" class="s2" d="m471 537v-6h14l-3 13-5 3-4-1z"/>
		<path id="Path 589" class="s75" d="m647 542l1-9 32-2 3 3v9 4h-8l-2-4h-16z"/>
		<path id="Path 590" class="s91" d="m706 532l5-1h5z"/>
		<path id="Path 591" class="s4" d="m718 532v-1h5l4 2h-1z"/>
		<path id="Path 592" class="s87" d="m312 591v-2h5l2 2h-1z"/>
		<path id="Path 593" class="s14" d="m97 537h-3l-1-5 2 1z"/>
		<path id="Path 594" class="s83" d="m264 535l2-3h1l-1 5z"/>
		<path id="Path 595" class="s22" d="m301 537v-5l9 1v4z"/>
		<path id="Path 596" class="s4" d="m729 533l9 1v1z"/>
		<path id="Path 597" class="s87" d="m139 534l4-1 11 2 1 9-4-3h-11z"/>
		<path id="Path 598" class="s73" d="m289 534l4-1 2 10-2 7-11 7h-5v-2l2-2-2-8z"/>
		<path id="Path 599" class="s51" d="m515 541l1-6 5-2 7 9h3v5l-5 5-11-1z"/>
		<path id="Path 600" class="s59" d="m531 542l2-9h12l2 4h4v10l-11 4-4-4h-5z"/>
		<path id="Path 601" class="s85" d="m559 539h18l2-6 14 3v10l-2 9-2 7v7h-12l-6-8v-11l-3-3h-9z"/>
		<path id="Path 602" class="s2" d="m401 555l2-21h4l2 5-2 16z"/>
		<path id="Path 603" class="s46" d="m738 535v-1l18 7 12 9z"/>
		<path id="Path 604" class="s74" d="m261 537l3-2 2 2-1 3-3 1z"/>
		<path id="Path 605" class="s52" d="m341 537l10-2v11l11 7-3 4-10-1v-7l-8-7z"/>
		<path id="Path 606" class="s60" d="m362 553l-11-7v-11h9l3 4h14l7 6v4l-5 1v6l-4 1-4-4z"/>
		<path id="Path 607" class="s34" d="m889 545v-10h8l1 5 4 2 6 14v1l5 14v5l1 7h-11l-2-16-6-3-3-17z"/>
		<path id="Path 608" class="s0" d="m113 545l-12-3-3-5 3 1 10 5z"/>
		<path id="Path 609" class="s72" d="m253 539l8-2 1 4-5 4-13 2z"/>
		<path id="Path 610" class="s23" d="m301 543v-6h9v3l-2 7-1 2h-6z"/>
		<path id="Path 611" class="s39" d="m331 539l6-2h4v5l8 7v7l-6 7h-4-8l-2-4v-12z"/>
		<path id="Path 612" class="s59" d="m461 539l2-2h8l2 9h-6l-6-3z"/>
		<path id="Path 613" class="s51" d="m495 545l2-8h8v4l-2 6z"/>
		<path id="Path 614" class="s49" d="m551 547v-10h4l4 2v8z"/>
		<path id="Path 615" class="s0" d="m699 546l-10-9 10 5 8 8v4z"/>
		<path id="Path 616" class="s71" d="m756 541l5-4h10v14l-3-1z"/>
		<path id="Path 617" class="s51" d="m409 539l4-1 6 1 2 10v8l-12 2-2-4z"/>
		<path id="Path 618" class="s59" d="m902 542v-4l5 11 1 7z"/>
		<path id="Path 619" class="s89" d="m111 543v-4l12 3-1 5h-2l-7-2z"/>
		<path id="Path 620" class="s85" d="m225 541l8-2 2 6-2 8h-2l-6-1z"/>
		<path id="Path 621" class="s57" d="m455 543v-4h6v4z"/>
		<path id="Path 622" class="s63" d="m775 553l3-6h8l7-8h4l6 6 14 1 6 7h4l8 12 9 1 11 10 2 15-2 5-8-3-3-1-19-9-6-3-3-2-8-5-7-3-8-5h-1l-16-10h-1z"/>
		<path id="Path 623" class="s92" d="m262 541l3-1-1 7-7 2v-4z"/>
		<path id="Path 624" class="s20" d="m308 547l2-7h5l2 7z"/>
		<path id="Path 625" class="s48" d="m139 543l1-2h11l4 3 4 1v6h-14l-3-2z"/>
		<path id="Path 626" class="s90" d="m191 544l10-3h24v11h-6-6l-10 1h-12z"/>
		<path id="Path 627" class="s56" d="m503 547l2-6h10v10h-12z"/>
		<path id="Path 628" class="s84" d="m122 547l1-5 12 2v5z"/>
		<path id="Path 629" class="s56" d="m421 549h6l6-7 8 4 1 9-2 6h-9l-2-4h-6-2z"/>
		<path id="Path 630" class="s33" d="m633 555l10-13h4l-4 23-3 2-1 11-12-1-1-8 7-6z"/>
		<path id="Path 631" class="s23" d="m643 565l4-23 10 1v7l-7 7v7z"/>
		<path id="Path 632" class="s93" d="m135 544l4-1 3 6h-7z"/>
		<path id="Path 633" class="s90" d="m159 545l10-2 4 1v9l-8 1-6-2v-1z"/>
		<path id="Path 634" class="s92" d="m173 544h18v9h-12-6z"/>
		<path id="Path 635" class="s34" d="m293 550l2-7h6v6 2z"/>
		<path id="Path 636" class="s56" d="m454 545l1-2h6l6 3v5l-12 2z"/>
		<path id="Path 637" class="s30" d="m643 565l7-1v-7l7-7v-7h16l2 4v4l4 2 1 14 3 6h6l8 2v8l-4 7h-1l-3-3-10 2-4 8-6 1h-1l-7-1-10-1-13-3h-1l2-15 1-11z"/>
		<path id="Path 638" class="s63" d="m683 547v-4l8 2 2 8h-10z"/>
		<path id="Path 639" class="s49" d="m477 547l5-3 13 1 8 2v4l-20 6-5-1-1-1z"/>
		<path id="Path 640" class="s27" d="m122 550l-9-5 7 2z"/>
		<path id="Path 641" class="s48" d="m244 547l13-2v4l-1 2-13 2z"/>
		<path id="Path 642" class="s92" d="m270 550l7-5 2 8-2 2h-6z"/>
		<path id="Path 643" class="s70" d="m441 546l13-1 1 8v1l-13 1z"/>
		<path id="Path 644" class="s50" d="m857 591h10l2-7 8-6v-9l8-5-2-19h6l3 2 3 17 6 3 2 16-4 5-2 19-6 1h-2-3l-5-2h-2l-20-7-2-1-2-2z"/>
		<path id="Path 645" class="s51" d="m467 551v-5h6l4 1v8z"/>
		<path id="Path 646" class="s93" d="m591 555l2-9 9 6v3z"/>
		<path id="Path 647" class="s73" d="m698 553l1-7 8 8v6l-3 4h-3z"/>
		<path id="Path 648" class="s87" d="m122 550l-2-3h2l13 2v9l-5-3-7-5z"/>
		<path id="Path 649" class="s83" d="m257 549l7-2 2 4-9 4-1-4z"/>
		<path id="Path 650" class="s39" d="m307 549l1-2h9 3l1 12h-10l-4-5z"/>
		<path id="Path 651" class="s70" d="m321 559l-1-12h9v12z"/>
		<path id="Path 652" class="s90" d="m526 552l5-5h5l4 4-4 6z"/>
		<path id="Path 653" class="s93" d="m540 551l11-4h8 9l3 3v11l6 8v4h-3l-8-6h-10l-4 4-3-1-1-2-8 2h-1l-12 1h-10l-8-10-12 2-14-2v-4l20-6h12l11 1 10 5z"/>
		<path id="Path 654" class="s50" d="m679 553l-4-2v-4h8v6z"/>
		<path id="Path 655" class="s92" d="m135 558v-9h7l3 2v5l-2 6-5-2z"/>
		<path id="Path 656" class="s53" d="m301 551v-2h6v5l-3 2z"/>
		<path id="Path 657" class="s86" d="m379 556v-6l5-1 5 2v3l-2 5z"/>
		<path id="Path 658" class="s8" d="m908 556l-1-7 2 5 1 4-2-1z"/>
		<path id="Path 659" class="s27" d="m129 555l-6-5 7 5z"/>
		<path id="Path 660" class="s90" d="m266 551l4-1 1 5-2 2-10 6 2 3 1 20-1 1h-10l-8-1 1-7 1-6-4-2 3-3-1-5v-5l14-3z"/>
		<path id="Path 661" class="s94" d="m282 557l11-7 8 1 3 5-6 11-1 6-12 2h-9l-3-3 3-11h5z"/>
		<path id="Path 662" class="s27" d="m775 555l-5-1-2-4 3 1 4 2z"/>
		<path id="Path 663" class="s81" d="m145 556v-5h14v1l-2 7h-4z"/>
		<path id="Path 664" class="s72" d="m243 553l13-2 1 4-14 3h-4l1-5z"/>
		<path id="Path 665" class="s90" d="m455 553l12-2 10 4 1 1 1 5h4l14 2v8l3 2-1 2h-3l-6 1-14 1-5-5-10-1v-10l-6-7z"/>
		<path id="Path 666" class="s80" d="m157 559l2-7 6 2v7h-4z"/>
		<path id="Path 667" class="s72" d="m203 553l10-1v5l-8 2z"/>
		<path id="Path 668" class="s83" d="m213 557v-5h6l4 9 8 2-2 5-12-6z"/>
		<path id="Path 669" class="s87" d="m231 563l-8-2-4-9h6l6 1 1 5z"/>
		<path id="Path 670" class="s83" d="m165 554l8-1h6v8h-14z"/>
		<path id="Path 671" class="s74" d="m179 561v-8h12 12l2 6-2 4h-17z"/>
		<path id="Path 672" class="s88" d="m232 558l-1-5h2 7l-1 5z"/>
		<path id="Path 673" class="s70" d="m359 557l3-4h9l4 4v4l-12 4-4-2z"/>
		<path id="Path 674" class="s81" d="m607 555l11-2 2 2-1 2h-12z"/>
		<path id="Path 675" class="s34" d="m680 567l-1-14h4 10 5l3 11-2 10-2 1-8-2-1-5z"/>
		<path id="Path 676" class="s81" d="m304 556l3-2 4 5h10 8l2 4v6l-4 4h-8l-9-2-12-4z"/>
		<path id="Path 677" class="s92" d="m379 556l8 3 2-5 8 1v7l-4 2-9 1-9-4v-4z"/>
		<path id="Path 678" class="s89" d="m442 555l13-1 6 7v10l-3 1 2 5-3 2h-7l3-15-13-3z"/>
		<path id="Path 679" class="s0" d="m910 558l-1-4 3 10z"/>
		<path id="Path 680" class="s0" d="m138 560l-6-1-3-4h1l5 3z"/>
		<path id="Path 681" class="s87" d="m269 557l2-2h6v2l-1 3-5 1z"/>
		<path id="Path 682" class="s48" d="m397 562v-7h4 6l2 4v2z"/>
		<path id="Path 683" class="s90" d="m589 562l2-7h11 5v2l-3 3z"/>
		<path id="Path 684" class="s54" d="m619 557l1-2h13v8l-7 6h-9z"/>
		<path id="Path 685" class="s19" d="m792 565l-14-6-2-4z"/>
		<path id="Path 686" class="s89" d="m143 562l2-6 8 3v6l-6-1z"/>
		<path id="Path 687" class="s81" d="m339 563h4l6-7 10 1v6l-2 8-10 2-3-4h-5z"/>
		<path id="Path 688" class="s89" d="m483 561h-4l-1-5 5 1z"/>
		<path id="Path 689" class="s80" d="m205 559l8-2 4 5-5 1h-9z"/>
		<path id="Path 690" class="s86" d="m261 566l-2-3 10-6 2 4-4 4z"/>
		<path id="Path 691" class="s53" d="m276 560l1-3h5l-1 4h-5z"/>
		<path id="Path 692" class="s93" d="m409 559l12-2h2v6 6h-4l-10-8z"/>
		<path id="Path 693" class="s85" d="m423 563v-6h6l2 4z"/>
		<path id="Path 694" class="s59" d="m589 562l15-2 3-3h12l-2 12v1l-28 2v-3z"/>
		<path id="Path 695" class="s70" d="m913 571l-5-14 2 1 2 6v1l1 4z"/>
		<path id="Path 696" class="s48" d="m231 563l1-5h7 4v5z"/>
		<path id="Path 697" class="s93" d="m153 565v-6h4l4 2-1 7h-1z"/>
		<path id="Path 698" class="s0" d="m147 565l-9-5 5 2 4 2z"/>
		<path id="Path 699" class="s84" d="m271 561l5-1v1l-3 11 3 3h9v4h-5l-6 5h-3l-6-8 2-11z"/>
		<path id="Path 700" class="s61" d="m704 564l3-4v10z"/>
		<path id="Path 701" class="s10" d="m707 570v-10l2 12h-2z"/>
		<path id="Path 702" class="s48" d="m160 568l1-7h4 14l7 2-2 3-7 2v4l4 2-5-1-8-2-4-1z"/>
		<path id="Path 703" class="s89" d="m363 565l12-4 9 4-8 7-1 7-14-1v-7z"/>
		<path id="Path 704" class="s84" d="m397 562l12-1 10 8v6h-8-16l-2-11z"/>
		<path id="Path 705" class="s84" d="m423 563l8-2h9l13 3-3 15h-4l-3-4h-8-8v-4l-4-2z"/>
		<path id="Path 706" class="s89" d="m497 563l12-2 8 10v1l-11 1h-6l-3-2z"/>
		<path id="Path 707" class="s90" d="m212 563l5-1 12 6v1l-5 4-12-1-2-3z"/>
		<path id="Path 708" class="s85" d="m184 566l2-3h17 9l-2 6h-23z"/>
		<path id="Path 709" class="s86" d="m229 568l2-5h12l1 5-3 3h-4l-8-2z"/>
		<path id="Path 710" class="s87" d="m331 569v-6h8v6z"/>
		<path id="Path 711" class="s90" d="m357 571l2-8 4 2-2 6z"/>
		<path id="Path 712" class="s46" d="m147 565v-1l6 1 6 3v1z"/>
		<path id="Path 713" class="s71" d="m384 565l9-1 2 11-2 2-10 2h-8l1-7z"/>
		<path id="Path 714" class="s21" d="m699 574l2-10h3l3 6v2 2l-2 5h-2z"/>
		<path id="Path 715" class="s89" d="m261 566l6-1-2 11 6 8-9 2z"/>
		<path id="Path 716" class="s27" d="m801 570l-6-1-2-4z"/>
		<path id="Path 717" class="s0" d="m913 569l-1-4 2 4z"/>
		<path id="Path 718" class="s71" d="m181 574l-4-2v-4l7-2 3 3-1 6z"/>
		<path id="Path 719" class="s89" d="m297 573l1-6 12 4z"/>
		<path id="Path 720" class="s73" d="m552 571l4-4h10l8 6v5h-1l-11-1-6-1z"/>
		<path id="Path 721" class="s38" d="m689 573h-6l-3-6 8 1z"/>
		<path id="Path 722" class="s0" d="m159 569v-1h1l4 2z"/>
		<path id="Path 723" class="s19" d="m540 570l8-2 1 2z"/>
		<path id="Path 724" class="s84" d="m186 575l1-6h23l2 3 12 1 1 7-4 3h-2l-6-1-3-1-6-1h-2l-16-4z"/>
		<path id="Path 725" class="s93" d="m224 573l5-4 8 2v5l7 3-1 7h-2-5l-7-1-8-2 4-3z"/>
		<path id="Path 726" class="s92" d="m327 573l4-4h8 5l3 4v6l-9 1h-4z"/>
		<path id="Path 727" class="s22" d="m419 575v-6h4l4 2v4z"/>
		<path id="Path 728" class="s29" d="m577 573v-4h12v3 7h-2l-5-1 1-3z"/>
		<path id="Path 729" class="s24" d="m617 570v-1h9l1 8h-4z"/>
		<path id="Path 730" class="s5" d="m913 571v-2h1v1l1 1v5h-2z"/>
		<path id="Path 731" class="s0" d="m168 572l-4-2 4 1z"/>
		<path id="Path 732" class="s18" d="m527 571l12-1-12 2z"/>
		<path id="Path 733" class="s19" d="m562 579l-8-2-5-7 3 1 4 5 6 1z"/>
		<path id="Path 734" class="s33" d="m589 572l28-2 6 7-2 11h-9-1-2l-8-3-12-6z"/>
		<path id="Path 735" class="s27" d="m808 575l-7-5 7 3z"/>
		<path id="Path 736" class="s18" d="m168 572v-1l8 2v1z"/>
		<path id="Path 737" class="s84" d="m244 579l-7-3v-5h4l4 2z"/>
		<path id="Path 738" class="s93" d="m297 573l13-2 9 2-2 16h-5l-8 1h-1-3l-9-2 1-8-7-1v-4z"/>
		<path id="Path 739" class="s48" d="m347 573l10-2h4v7l-2 5-10 2-2-6z"/>
		<path id="Path 740" class="s52" d="m457 579l3-2-2-5 3-1 10 1 5 5v1l-3 2-7 3h-9z"/>
		<path id="Path 741" class="s68" d="m517 572v-1h10v1z"/>
		<path id="Path 742" class="s13" d="m915 576v-5l2 8z"/>
		<path id="Path 743" class="s18" d="m506 573l11-1-11 2z"/>
		<path id="Path 744" class="s65" d="m176 574v-1l5 1 5 1v1 1z"/>
		<path id="Path 745" class="s85" d="m317 589l2-16h8l7 7-5 4v7h-3-7z"/>
		<path id="Path 746" class="s8" d="m499 575l1-2h6v1z"/>
		<path id="Path 747" class="s50" d="m574 578v-5h3l6 2-1 3h-2-1-1z"/>
		<path id="Path 748" class="s46" d="m808 575v-2l8 5h-3z"/>
		<path id="Path 749" class="s35" d="m697 575l2-1 4 5v3l-6 1z"/>
		<path id="Path 750" class="s13" d="m705 579l2-5-1 9-4 4z"/>
		<path id="Path 751" class="s79" d="m393 577l2-2h16v4l-18 2z"/>
		<path id="Path 752" class="s64" d="m411 579v-4h8v4z"/>
		<path id="Path 753" class="s79" d="m419 579v-4h8 8v5z"/>
		<path id="Path 754" class="s44" d="m435 580v-5h8l3 4-3 2h-8z"/>
		<path id="Path 755" class="s8" d="m490 576l6-1-5 2z"/>
		<path id="Path 756" class="s19" d="m186 577v-1l16 4z"/>
		<path id="Path 757" class="s19" d="m476 577l14-1 1 1-15 2v-1z"/>
		<path id="Path 758" class="s4" d="m914 583l-1-7h2l2 3v5 2h-1z"/>
		<path id="Path 759" class="s77" d="m383 579l10-2v4h-8z"/>
		<path id="Path 760" class="s3" d="m562 579v-2l11 1z"/>
		<path id="Path 761" class="s31" d="m621 588l2-11h4l12 1-2 15h-1-2l-10-3h-1z"/>
		<path id="Path 762" class="s62" d="m359 583l2-5 14 1h8l2 2v3z"/>
		<path id="Path 763" class="s0" d="m473 580l3-2v1z"/>
		<path id="Path 764" class="s37" d="m580 580l-2-2h1l1 1z"/>
		<path id="Path 765" class="s87" d="m579 578h1v1h-1z"/>
		<path id="Path 766" class="s7" d="m580 579v-1h2l5 1v1h-7z"/>
		<path id="Path 767" class="s25" d="m819 580l-6-2h3z"/>
		<path id="Path 768" class="s85" d="m274 584l6-5h5l7 1-1 8h-2l-14-3z"/>
		<path id="Path 769" class="s90" d="m338 580l9-1 2 6-1 7h-3l-6-1z"/>
		<path id="Path 770" class="s60" d="m393 581l18-2h8l16 1v1 5l-2 1-2-1h-4-18l-18-1-6-1v-3z"/>
		<path id="Path 771" class="s62" d="m443 581l3-2h4 7v4l-3 2h-11z"/>
		<path id="Path 772" class="s19" d="m587 580v-1h2l12 6z"/>
		<path id="Path 773" class="s36" d="m697 583l6-1v-3h2l-3 8v3l-3 4-2 2h-1l-3-6z"/>
		<path id="Path 774" class="s49" d="m329 591v-7l5-4h4l1 11h-1z"/>
		<path id="Path 775" class="s25" d="m821 582l-2-2 6 3h-2z"/>
		<path id="Path 776" class="s36" d="m435 586v-5h8v4h-1z"/>
		<path id="Path 777" class="s14" d="m823 584l-2-2 2 1z"/>
		<path id="Path 778" class="s73" d="m349 585l10-2 26 1 6 1v4l-27 5v9l-6-4-2-2-8-5z"/>
		<path id="Path 779" class="s18" d="m454 585l3-2h9z"/>
		<path id="Path 780" class="s37" d="m823 584v-1h2l19 9v2z"/>
		<path id="Path 781" class="s63" d="m897 607l2-19 4-5h11l2 3 2 6 1 16-7 2-13-1z"/>
		<path id="Path 782" class="s7" d="m262 586l9-2h3l1 1v2h-9l-4 1-1-1z"/>
		<path id="Path 783" class="s10" d="m917 586v-2l2 5z"/>
		<path id="Path 784" class="s65" d="m236 587l-7-2 7 1z"/>
		<path id="Path 785" class="s3" d="m275 587v-2l14 3z"/>
		<path id="Path 786" class="s35" d="m391 589v-4l18 1-2 3-10 2h-5z"/>
		<path id="Path 787" class="s65" d="m435 586l7-1-6 2 5 11h-2l-6-11z"/>
		<path id="Path 788" class="s19" d="m609 588l-4 1-4-4z"/>
		<path id="Path 789" class="s95" d="m236 587v-1h5v1z"/>
		<path id="Path 790" class="s27" d="m241 587v-1h2l8 1v2z"/>
		<path id="Path 791" class="s75" d="m397 591l10-2 2-3h18 4l2 1 6 11 1 4v7 1l2 21v5l-2 6-2 1h-5-2l-4-2h-2l-6-3-13-7-4-3-8-5-9-6 2-14 2-4 6-1z"/>
		<path id="Path 792" class="s48" d="m918 592l-2-6h1l2 3v3z"/>
		<path id="Path 793" class="s19" d="m251 589v-2h10l1 1v1z"/>
		<path id="Path 794" class="s1" d="m262 588l4-1-4 2z"/>
		<path id="Path 795" class="s23" d="m675 597l4-8 10-2 3 3-3 7-2 1h-6-1z"/>
		<path id="Path 796" class="s0" d="m620 590l-9-2h1z"/>
		<path id="Path 797" class="s39" d="m620 590l-8-2h9l2 2z"/>
		<path id="Path 798" class="s88" d="m304 590l8-1v2z"/>
		<path id="Path 799" class="s53" d="m364 603v-9l27-5 1 2-3 8-2 4-8 1v10l-8-4-1-1z"/>
		<path id="Path 800" class="s7" d="m370 609h1v1h-1z"/>
		<path id="Path 801" class="s0" d="m318 592l-15-2h1l8 1h6z"/>
		<path id="Path 802" class="s13" d="m634 593l-4 1-6-4z"/>
		<path id="Path 803" class="s51" d="m689 597l3-7h1l3 6z"/>
		<path id="Path 804" class="s91" d="m318 592v-1h1 7v1z"/>
		<path id="Path 805" class="s68" d="m326 592v-1h3 9v1z"/>
		<path id="Path 806" class="s74" d="m338 592v-1h1l6 1-4 2z"/>
		<path id="Path 807" class="s63" d="m389 599l3-8h5l-2 7z"/>
		<path id="Path 808" class="s46" d="m341 594l4-2h3l8 5h-2z"/>
		<path id="Path 809" class="s25" d="m844 594v-2l3 1v2z"/>
		<path id="Path 810" class="s87" d="m919 608l-1-16h1l1 4z"/>
		<path id="Path 811" class="s45" d="m920 596l-1-4 2 3z"/>
		<path id="Path 812" class="s13" d="m639 595l-3-2h1 1z"/>
		<path id="Path 813" class="s95" d="m639 595l-1-2 13 3v1z"/>
		<path id="Path 814" class="s3" d="m847 595v-2l8 3 2 2-4-1z"/>
		<path id="Path 815" class="s37" d="m697 596l2-2-2 3z"/>
		<path id="Path 816" class="s0" d="m920 596l1-1 1 13-10 2 7-2z"/>
		<path id="Path 817" class="s25" d="m651 597v-1l10 1v2z"/>
		<path id="Path 818" class="s25" d="m689 597l7-1h1v1l-10 2v-1z"/>
		<path id="Path 819" class="s14" d="m357 600l-3-3h2l2 2z"/>
		<path id="Path 820" class="s47" d="m661 599v-2l7 1v1z"/>
		<path id="Path 821" class="s52" d="m669 598l6-1 5 1z"/>
		<path id="Path 822" class="s0" d="m859 600l-6-3 4 1 2 1z"/>
		<path id="Path 823" class="s3" d="m440 602l-1-4h2z"/>
		<path id="Path 824" class="s0" d="m668 599v-1h1 11 1v1z"/>
		<path id="Path 825" class="s68" d="m681 599v-1h6v1z"/>
		<path id="Path 826" class="s65" d="m357 600l1-1 6 4 6 6v1z"/>
		<path id="Path 827" class="s96" d="m859 600v-1l20 7-6 1-10-5z"/>
		<path id="Path 828" class="s50" d="m379 614v-10l8-1-2 14z"/>
		<path id="Path 829" class="s19" d="m886 608l-4 1-1-3z"/>
		<path id="Path 830" class="s85" d="m891 608l6-1 2 2-4 1z"/>
		<path id="Path 831" class="s0" d="m895 610l-6-2h2z"/>
		<path id="Path 832" class="s0" d="m440 610v-1l2 6h-1z"/>
		<path id="Path 833" class="s7" d="m381 617l-7-2-3-5 8 4 6 3 9 6h-2l-6-3-4-2z"/>
		<path id="Path 834" class="s0" d="m381 617h1v1h-1z"/>
		<path id="Path 835" class="s48" d="m442 631l-2-21 1 5 1 8z"/>
		<path id="Path 836" class="s19" d="m442 623l-1-8h1z"/>
		<path id="Path 837" class="s65" d="m402 630l-10-7h2l8 5z"/>
		<path id="Path 838" class="s8" d="m402 630v-2l4 3-1 1z"/>
		<path id="Path 839" class="s19" d="m405 632l1-1 13 7z"/>
		<path id="Path 840" class="s92" d="m440 642l2-6v5z"/>
		<path id="Path 841" class="s19" d="m425 643l-6-5 6 3z"/>
		<path id="Path 842" class="s8" d="m425 643v-2h2l1 2z"/>
		<path id="Path 843" class="s4" d="m428 643l-1-2 4 2h-1-1z"/>
		<path id="Path 844" class="s25" d="m440 642l2-1-1 4h-3v-1z"/>
		<path id="Path 845" class="s92" d="m438 643l2-1-2 2z"/>
		<path id="Path 846" class="s13" d="m429 645v-2h1v2z"/>
		<path id="Path 847" class="s7" d="m430 645v-2h1 2v2z"/>
		<path id="Path 848" class="s97" d="m433 645v-2h5v1 1z"/>
	</g>
</svg>