<svg version="1.2" xmlns="http://www.w3.org/2000/svg" viewBox="0 0 1000 1000" width="1000" height="1000">
	<title>Morone_mississippiensis</title>
	<style>
		.s0 { opacity: .2;fill: #d5d5d9 } 
		.s1 { opacity: .3;fill: #bebfc5 } 
		.s2 { opacity: .1;fill: #c6c6cb } 
		.s3 { opacity: .8;fill: #dddde1 } 
		.s4 { opacity: .1;fill: #f3f2f3 } 
		.s5 { opacity: .3;fill: #e5e5e8 } 
		.s6 { opacity: .7;fill: #b5b6be } 
		.s7 { opacity: .8;fill: #828490 } 
		.s8 { opacity: .5;fill: #adaeb6 } 
		.s9 { fill: #424d64 } 
		.s10 { fill: #2c3447 } 
		.s11 { opacity: .6;fill: #c9c9cf } 
		.s12 { fill: #282f40 } 
		.s13 { fill: #525c73 } 
		.s14 { opacity: .3;fill: #a3a4ad } 
		.s15 { fill: #2c374f } 
		.s16 { fill: #616a7f } 
		.s17 { fill: #21293c } 
		.s18 { fill: #27334c } 
		.s19 { fill: #464850 } 
		.s20 { fill: #1b2434 } 
		.s21 { opacity: .5;fill: #828591 } 
		.s22 { opacity: .6;fill: #eaeaec } 
		.s23 { fill: #232e45 } 
		.s24 { opacity: .5;fill: #d8d8dc } 
		.s25 { opacity: .9;fill: #82838f } 
		.s26 { fill: #313a52 } 
		.s27 { fill: #3d4559 } 
		.s28 { fill: #4a566e } 
		.s29 { opacity: 1;fill: #4d5265 } 
		.s30 { opacity: .6;fill: #9899a3 } 
		.s31 { fill: #58637b } 
		.s32 { fill: #838da0 } 
		.s33 { opacity: .9;fill: #6b6d7b } 
		.s34 { opacity: .5;fill: #686b7b } 
		.s35 { opacity: .1;fill: #afb0b7 } 
		.s36 { opacity: .9;fill: #bdbec4 } 
		.s37 { opacity: 1;fill: #60616b } 
		.s38 { fill: #373e4f } 
		.s39 { opacity: .2;fill: #646878 } 
		.s40 { fill: #344056 } 
		.s41 { fill: #151d2c } 
		.s42 { fill: #1c2a40 } 
		.s43 { fill: #707d94 } 
		.s44 { fill: #7a869a } 
		.s45 { fill: #677187 } 
		.s46 { fill: #a8b2c5 } 
		.s47 { fill: #909aae } 
		.s48 { fill: #98a3b6 } 
		.s49 { fill: #3a485f } 
		.s50 { opacity: 1;fill: #a2a7b4 } 
		.s51 { fill: #b3bac8 } 
		.s52 { fill: #8e94a5 } 
		.s53 { opacity: .3;fill: #3c4256 } 
		.s54 { fill: #bec4d1 } 
		.s55 { opacity: .9;fill: #9698a2 } 
		.s56 { fill: #c6c6cb } 
		.s57 { fill: #6d6d76 } 
		.s58 { opacity: 1;fill: #dbdbdf } 
		.s59 { opacity: .1;fill: #dddde1 } 
		.s60 { opacity: .3;fill: #858691 } 
		.s61 { fill: #abafbb } 
		.s62 { fill: #73798a } 
		.s63 { fill: #3f4044 } 
		.s64 { fill: #ccced6 } 
		.s65 { fill: #0e1521 } 
		.s66 { fill: #b2b1b4 } 
		.s67 { fill: #35373e } 
		.s68 { fill: #bdbcc0 } 
		.s69 { fill: #d2cfcd } 
		.s70 { fill: #d4d5dc } 
		.s71 { fill: #bcb8b4 } 
		.s72 { fill: #99979b } 
		.s73 { fill: #eae9e9 } 
		.s74 { fill: #d9d6d4 } 
		.s75 { fill: #c8c5c0 } 
		.s76 { fill: #534f49 } 
		.s77 { fill: #a4a2a1 } 
		.s78 { fill: #585758 } 
		.s79 { fill: #65625f } 
		.s80 { fill: #807e84 } 
		.s81 { fill: #7b797b } 
		.s82 { fill: #4d4f55 } 
		.s83 { fill: #cccac6 } 
		.s84 { fill: #858283 } 
		.s85 { fill: #8c8c93 } 
		.s86 { fill: #e1e0e2 } 
		.s87 { fill: #c4bfb8 } 
		.s88 { fill: #aba9a8 } 
		.s89 { fill: #898789 } 
		.s90 { opacity: .8;fill: #585f73 } 
		.s91 { fill: #a39c92 } 
		.s92 { fill: #75716c } 
		.s93 { fill: #b8b2aa } 
		.s94 { fill: #968e83 } 
		.s95 { fill: #8b8174 } 
		.s96 { fill: #b0a79b } 
	</style>
	<g id="Background">
		<path id="Path 0" class="s0" d="m88 569h1v1h-1z"/>
		<path id="Path 1" class="s1" d="m142 525h1v1h-1z"/>
		<path id="Path 2" class="s0" d="m258 437h1v1h-1z"/>
		<path id="Path 3" class="s1" d="m373 337h1v1h-1z"/>
		<path id="Path 4" class="s1" d="m374 336h1v1h-1z"/>
		<path id="Path 5" class="s2" d="m379 336v-2h1v2z"/>
		<path id="Path 6" class="s3" d="m380 336v-2h3v4h-1z"/>
		<path id="Path 7" class="s4" d="m383 338v-4h1z"/>
		<path id="Path 8" class="s5" d="m418 334h1v1h-1z"/>
		<path id="Path 9" class="s6" d="m418 335l1-1h4v2h-5z"/>
		<path id="Path 10" class="s7" d="m423 336v-2h4v5l-1 3 10 1-3 2h-2-6l-2-3 3-4z"/>
		<path id="Path 11" class="s8" d="m427 339v-5h2z"/>
		<path id="Path 12" class="s1" d="m375 336h3-1z"/>
		<path id="Path 13" class="s0" d="m413 337l4-1-2 1z"/>
		<path id="Path 14" class="s6" d="m374 337l1-1h2v2l-5 3v-2l1-1z"/>
		<path id="Path 15" class="s9" d="m377 338v-2h1 1 1l2 2-3 4z"/>
		<path id="Path 16" class="s10" d="m415 337l2-1h1 5l3 2-3 4-6 4v6l6-1v7 2l-15 7-5-5-2-6 1-7-3-3z"/>
		<path id="Path 17" class="s11" d="m409 339l2-2h2 2l-16 9h-1v-1l1-3z"/>
		<path id="Path 18" class="s12" d="m372 341l5-3 2 4-1 3-1 1-4 1-4-3z"/>
		<path id="Path 19" class="s11" d="m379 342l3-4h1l-4 7h-1z"/>
		<path id="Path 20" class="s11" d="m363 347l9-8v2l-3 3-4 3z"/>
		<path id="Path 21" class="s13" d="m423 351l-6 1v-6l6-4 2 3h6l-3 4z"/>
		<path id="Path 22" class="s14" d="m440 343l2-1v4z"/>
		<path id="Path 23" class="s15" d="m433 345l3-2h4v6l-3 2z"/>
		<path id="Path 24" class="s16" d="m437 351l3-2v-6l2 3v1l2 3 3 2 2 2-3 4-8 1-1-4z"/>
		<path id="Path 25" class="s17" d="m365 347l4-3 4 3v7h-6l-3-5z"/>
		<path id="Path 26" class="s6" d="m377 346l1-1h1l2 5-1 1-3-1z"/>
		<path id="Path 27" class="s14" d="m391 349l7-4v1l-4 2z"/>
		<path id="Path 28" class="s18" d="m428 349l3-4h2l4 6v4h-8z"/>
		<path id="Path 29" class="s19" d="m373 347l4-1v4l3 1 8 1-1 4-8 3-6-5z"/>
		<path id="Path 30" class="s20" d="m394 348l4-2h1l3 3-1 7h-4l-4-6z"/>
		<path id="Path 31" class="s7" d="m360 349l3-2h2l-1 2-4 2z"/>
		<path id="Path 32" class="s5" d="m444 350l-2-3 4 3z"/>
		<path id="Path 33" class="s21" d="m391 349l3-1-1 2-5 2-8-1 1-1z"/>
		<path id="Path 34" class="s22" d="m354 354l6-5v2l-4 3z"/>
		<path id="Path 35" class="s23" d="m360 351l4-2 3 5-1 6-8 6v4l-7 4-7-2v-2l3-6 6-7 3-3z"/>
		<path id="Path 36" class="s23" d="m423 351l5-2 1 6v3h-6z"/>
		<path id="Path 37" class="s17" d="m388 352l5-2 4 6-16 15-9 9-3 2h-4l-2-8v-4l7-6h5l4-5 8-3z"/>
		<path id="Path 38" class="s24" d="m447 352l-3-2h2 11l2 4-3-1z"/>
		<path id="Path 39" class="s25" d="m449 354l-2-2 9 1z"/>
		<path id="Path 40" class="s26" d="m449 354l7-1 3 6-5 4-3 3h-4l-1-8z"/>
		<path id="Path 41" class="s25" d="m459 359l-3-6 3 1 1 2 1 3z"/>
		<path id="Path 42" class="s11" d="m351 357l3-3h2l-3 3z"/>
		<path id="Path 43" class="s27" d="m366 360l1-6h6l6 5-4 5h-5z"/>
		<path id="Path 44" class="s4" d="m460 356l-1-2 3 2z"/>
		<path id="Path 45" class="s28" d="m429 358v-3h8l1 4-1 3h-7z"/>
		<path id="Path 46" class="s29" d="m381 371l16-15h4l2 6-14 11z"/>
		<path id="Path 47" class="s24" d="m461 359l-1-3h2v3z"/>
		<path id="Path 48" class="s30" d="m341 367l10-10h2l-6 7-5 5h-1z"/>
		<path id="Path 49" class="s31" d="m423 360v-2h6l1 4-4 2z"/>
		<path id="Path 50" class="s15" d="m438 359l8-1 1 8-3 3h-7v-7z"/>
		<path id="Path 51" class="s9" d="m454 363l5-4h2 1l4 3 1 1-2 8h-10z"/>
		<path id="Path 52" class="s24" d="m466 362l-4-3 15 1v3h-2z"/>
		<path id="Path 53" class="s29" d="m358 370v-4l8-6 4 4-7 6z"/>
		<path id="Path 54" class="s13" d="m408 367l15-7 3 4 1 6 10-1h7v5l-8 10 9 2v7l-3 2h-8l-6-9h-7l-1-4h-9v-4l-5-1-2-4z"/>
		<path id="Path 55" class="s26" d="m389 373l14-11 5 5-4 6-13 5z"/>
		<path id="Path 56" class="s10" d="m426 364l4-2h7v7l-10 1z"/>
		<path id="Path 57" class="s32" d="m467 363l-1-1 9 1z"/>
		<path id="Path 58" class="s13" d="m451 366l3-3 1 8h-3z"/>
		<path id="Path 59" class="s27" d="m465 371l2-8h8 2v1 4l-10 5z"/>
		<path id="Path 60" class="s9" d="m342 369l5-5-3 6z"/>
		<path id="Path 61" class="s6" d="m477 368v-4l6 10v1z"/>
		<path id="Path 62" class="s31" d="m444 369l3-3h4l1 5-2 3h-6z"/>
		<path id="Path 63" class="s22" d="m331 377l10-10v2l-5 7-5 4z"/>
		<path id="Path 64" class="s29" d="m467 373l10-5 6 7 11 1 1 8 5 3 2 1 1 1 3 3 1 16-2 2-16 1 2-15-2-2-10 2-1-1-6-7v-4l-6-2z"/>
		<path id="Path 65" class="s28" d="m336 376l5-7h1l2 1v2l-2 3-3 2z"/>
		<path id="Path 66" class="s13" d="m351 374l7-4h5v4l-7 8h-5z"/>
		<path id="Path 67" class="s27" d="m372 380l9-9 8 2 2 5-7 6h-7z"/>
		<path id="Path 68" class="s23" d="m450 374l2-3h3 10l2 2-1 9 6 2v4h-3-10v-7z"/>
		<path id="Path 69" class="s24" d="m323 378l1-6 5 2z"/>
		<path id="Path 70" class="s15" d="m342 375l2-3 7 2v8h-7z"/>
		<path id="Path 71" class="s8" d="m586 377l10-5h10l5 7h-1l-7-5-7 2-16 5 2-2h2z"/>
		<path id="Path 72" class="s29" d="m391 378l13-5 2 4-9 8 1 17-1 3-11 1-9-5-8-13v-6l3-2 5 4h7z"/>
		<path id="Path 73" class="s33" d="m323 378l6-4v2l-7 8 1-5z"/>
		<path id="Path 74" class="s34" d="m329 376v-2l2 3v3h-1z"/>
		<path id="Path 75" class="s23" d="m356 382l7-8 2 8z"/>
		<path id="Path 76" class="s10" d="m445 393v-7l-9-2 8-10h6l9 7v7l-1 6-8 2-3-1z"/>
		<path id="Path 77" class="s3" d="m483 375v-1h11v2z"/>
		<path id="Path 78" class="s24" d="m494 376v-2l3 1-1 7 4 4v1l-5-3z"/>
		<path id="Path 79" class="s18" d="m596 376l7-2 7 5v4l-4 1-3-4h-6z"/>
		<path id="Path 80" class="s23" d="m339 377l3-2 2 7-5 2z"/>
		<path id="Path 81" class="s20" d="m322 384l7-8 1 4-1 9 4 1-1 7-11-7z"/>
		<path id="Path 82" class="s29" d="m331 380l5-4 3 1v7l-6 6-4-1 1-9z"/>
		<path id="Path 83" class="s10" d="m580 381l16-5 1 4v8l-2 1-2 2h-1l-4 3-1 6-6 5v7 6h-4l-2-4-11-4 1-21 6-7 4-1h3z"/>
		<path id="Path 84" class="s9" d="m398 402l-1-17 9-8 5 1v4l1 5 9-1h7l6 9h8 5l3 1 4 6-7 6 3 8-1 1-4 2v4l-2 1-4-2 1-5-5-1v-5l-4-2-2-4-13 3h-7l-2-8z"/>
		<path id="Path 85" class="s24" d="m318 392l1-10 4-3-1 5-2 6z"/>
		<path id="Path 86" class="s14" d="m578 381l4-2-2 2z"/>
		<path id="Path 87" class="s11" d="m606 384l4-1v-4h1l1 5-6 3-1-1z"/>
		<path id="Path 88" class="s24" d="m563 382l7-2v2z"/>
		<path id="Path 89" class="s34" d="m570 382v-2l5 1-4 1z"/>
		<path id="Path 90" class="s26" d="m597 388v-8h6l3 4-1 2z"/>
		<path id="Path 91" class="s9" d="m339 384l5-2h7 5 9v6l-2 13-7 1-3 4h-6l-1-9h-5l-3 7h-4l-2-7 1-7z"/>
		<path id="Path 92" class="s13" d="m365 388v-6h4v6z"/>
		<path id="Path 93" class="s31" d="m421 386l-9 1-1-5h9z"/>
		<path id="Path 94" class="s29" d="m553 384l7-2h3 7 1l-6 7-5-4-13 3 1-2 4-2z"/>
		<path id="Path 95" class="s33" d="m320 390l2-6-1 6z"/>
		<path id="Path 96" class="s35" d="m546 386l6-2-4 2z"/>
		<path id="Path 97" class="s23" d="m547 388l13-3 5 4-1 21 11 4 2 4v8l-22-4-9-20-2-4-1-8v-1z"/>
		<path id="Path 98" class="s35" d="m500 387v-1l4 3h-1l-1-1z"/>
		<path id="Path 99" class="s7" d="m502 388h1v1h-1z"/>
		<path id="Path 100" class="s24" d="m543 389l3-3h2l-1 2z"/>
		<path id="Path 101" class="s14" d="m597 388l8-2 1 1-14 5v-1h1l2-2z"/>
		<path id="Path 102" class="s27" d="m363 401l2-13h4l8 13-5 6h-9z"/>
		<path id="Path 103" class="s27" d="m458 394l1-6h10l1 7h8l1 1-2 12-3 2h-9-3l-5-8z"/>
		<path id="Path 104" class="s9" d="m478 395h-8l-1-7h3z"/>
		<path id="Path 105" class="s7" d="m506 392l-3-3h1l11 5v2z"/>
		<path id="Path 106" class="s24" d="m531 394l12-5v1z"/>
		<path id="Path 107" class="s7" d="m303 394v-4h5v2z"/>
		<path id="Path 108" class="s36" d="m308 392v-2l5 4v1h-3z"/>
		<path id="Path 109" class="s23" d="m318 392l2-2h1l11 7 2 7-1 9-2 5-10-2-6-2-2-1v-5l4-4v-9z"/>
		<path id="Path 110" class="s27" d="m531 394l12-4 1 8-1 4-11-1-2-5v-2z"/>
		<path id="Path 111" class="s6" d="m587 400l1-6 4-3v1l-3 8 9 2v1l-8 1z"/>
		<path id="Path 112" class="s37" d="m303 394l5-2 2 3-1 1-5 2 1 11-2-2v-2z"/>
		<path id="Path 113" class="s24" d="m313 394l5-2-1 3h-4z"/>
		<path id="Path 114" class="s38" d="m507 408l-1-16 9 4 4 2 1 6-3 4z"/>
		<path id="Path 115" class="s18" d="m442 395l3-2 2 2z"/>
		<path id="Path 116" class="s3" d="m303 405h-2l2-11z"/>
		<path id="Path 117" class="s13" d="m450 396l8-2-1 8h-3z"/>
		<path id="Path 118" class="s23" d="m479 396l10-2 2 2-2 15-2 3h-6l-4-6z"/>
		<path id="Path 119" class="s39" d="m515 396v-2l6 1z"/>
		<path id="Path 120" class="s33" d="m521 395l9-1v2l-11 2-4-2z"/>
		<path id="Path 121" class="s29" d="m309 396l1-1h3 4v9l-4 4z"/>
		<path id="Path 122" class="s12" d="m305 409l-1-11 5-2 4 12v5l-6 1-1-1z"/>
		<path id="Path 123" class="s20" d="m519 398l11-2 2 5-2 2-10 1z"/>
		<path id="Path 124" class="s17" d="m338 404l3-7h5l1 9h6v5l-1 2-7 3-2-5v-5z"/>
		<path id="Path 125" class="s40" d="m543 402l1-4 2 4z"/>
		<path id="Path 126" class="s20" d="m398 402l9-2 2 8-1 5-5 5-4-2-2-11z"/>
		<path id="Path 127" class="s27" d="m581 412v-7l6-5 3 4 8-1 8-1-3 10v6h-16v-4z"/>
		<path id="Path 128" class="s1" d="m598 402l14-2 4 6-3 8v1l-4-3 4-3v-5l-7-2-8 1z"/>
		<path id="Path 129" class="s41" d="m353 406l3-4 7-1v6 8l-10-4z"/>
		<path id="Path 130" class="s20" d="m363 407h9l5-6 9 5-1 11-5 2v-5l-3-3-9 3-3 1h-2z"/>
		<path id="Path 131" class="s26" d="m530 403l2-2 11 1h3l9 20v4h-4-14l-6-8z"/>
		<path id="Path 132" class="s20" d="m450 416l-3-8 7-6h3l5 8h3l1 7v1l-6-1-5 1z"/>
		<path id="Path 133" class="s15" d="m603 412l3-10 7 2v5l-4 3z"/>
		<path id="Path 134" class="s27" d="m520 404l10-1 1 15-10 1-2-3-2-8z"/>
		<path id="Path 135" class="s20" d="m333 413l1-9h4l5 2v5z"/>
		<path id="Path 136" class="s18" d="m386 406l11-1 2 11-4 3-2 1-8-3z"/>
		<path id="Path 137" class="s23" d="m416 408l13-3 2 4-3 6-5 2-7-4z"/>
		<path id="Path 138" class="s0" d="m288 424l16-10-1-7 2 2 1 4-14 10z"/>
		<path id="Path 139" class="s17" d="m408 413l1-5h7v5l-6 7-1-1z"/>
		<path id="Path 140" class="s41" d="m474 410l3-2 4 6h6v9l-5 3-1-3v-3l-4-1h-2z"/>
		<path id="Path 141" class="s10" d="m505 410l2-2h10l2 8h-12z"/>
		<path id="Path 142" class="s42" d="m428 415l3-6 4 2v5 2h-6z"/>
		<path id="Path 143" class="s17" d="m466 417l-1-7h9l1 9h-4z"/>
		<path id="Path 144" class="s20" d="m489 411l16-1 2 6h12l2 3-2 11-8 3-5 1v-5l-19-6v-9z"/>
		<path id="Path 145" class="s40" d="m333 413l10-2 2 5-2 5-6-2-4 3h-2v-4z"/>
		<path id="Path 146" class="s31" d="m352 413l1-2 10 4h2v5h3v3h-3l-6-1v-2-4h-4z"/>
		<path id="Path 147" class="s28" d="m368 414l9-3 3 3-11 5z"/>
		<path id="Path 148" class="s15" d="m581 418v-6l6 2v4z"/>
		<path id="Path 149" class="s26" d="m603 418v-6h6l4 3 3 5z"/>
		<path id="Path 150" class="s40" d="m292 423l14-10 1 1-1 5 6 1v2l-2 2-7 2-10 1z"/>
		<path id="Path 151" class="s41" d="m307 414l6-1 2 1-3 6-6-1z"/>
		<path id="Path 152" class="s43" d="m345 416l7-3 3 3v4h4v2l-5 3v4l5 1v6l-4 2-6-1-1-7-6 1v-6l-4 1-1 5h-4v-9l4-3 6 2z"/>
		<path id="Path 153" class="s44" d="m399 416l4 2 5-5 1 6-6 3h-5l-3-3z"/>
		<path id="Path 154" class="s45" d="m410 420l6-7 7 4 1 4v7l-1 6-8-1-4-1 2-10-3-1z"/>
		<path id="Path 155" class="s42" d="m312 420l3-6 6 2 1 7-10-1z"/>
		<path id="Path 156" class="s32" d="m365 415l3-1 1 5-1 1h-3z"/>
		<path id="Path 157" class="s43" d="m369 419l11-5v5l5-2 8 3v11l-12 1v-8l-4 4-3-4h-5l-1-1v-3z"/>
		<path id="Path 158" class="s22" d="m613 415v-1h4l2 8-1 1-2-3z"/>
		<path id="Path 159" class="s46" d="m355 416h4v4h-4z"/>
		<path id="Path 160" class="s47" d="m423 417l5-2 1 3-2 3h-3z"/>
		<path id="Path 161" class="s28" d="m322 423l-1-7 10 2v4l-4 7-2-6z"/>
		<path id="Path 162" class="s32" d="m435 418v-2l5 1-1 5h-4z"/>
		<path id="Path 163" class="s13" d="m449 417l1-1 5 2 2 4v2l-9-1z"/>
		<path id="Path 164" class="s48" d="m455 418l5-1-3 5z"/>
		<path id="Path 165" class="s47" d="m445 423v-4l4-2-1 6z"/>
		<path id="Path 166" class="s40" d="m457 422l3-5 6 1-1 6h4l2-5h4 2l-2 7-2 3-8 2-5-3-3-4z"/>
		<path id="Path 167" class="s32" d="m466 418v-1l5 2-2 5h-4z"/>
		<path id="Path 168" class="s49" d="m427 421l2-3h6v4 7l-8-1z"/>
		<path id="Path 169" class="s17" d="m521 419l10-1 6 8 2 14v2h-5l-1-4-4 1-3-3v-3l-7 1v-4z"/>
		<path id="Path 170" class="s17" d="m577 426v-8h4 6v12h-4l-2-4z"/>
		<path id="Path 171" class="s10" d="m587 430v-12h16l13 2 2 3 4 7 2 4 1 2v3l-10 4 4 19-10-2v-6l-7-1-5-5v-6l-6-2v-6z"/>
		<path id="Path 172" class="s16" d="m393 420l2-1 3 3v10h-1-4v-1z"/>
		<path id="Path 173" class="s31" d="m403 422l6-3 1 1v1l-3 7h-4z"/>
		<path id="Path 174" class="s32" d="m475 426l2-7 4 1v3z"/>
		<path id="Path 175" class="s13" d="m312 422l10 1-1 11v1h-3v-3h-4l-4-8z"/>
		<path id="Path 176" class="s48" d="m407 428l3-7 3 1-2 10h-2z"/>
		<path id="Path 177" class="s28" d="m424 428v-7h3v7z"/>
		<path id="Path 178" class="s48" d="m327 429l4-7h2v9l-2 3h-3z"/>
		<path id="Path 179" class="s40" d="m359 430l-5-1v-4l5-3 6 1 2 5-3 3z"/>
		<path id="Path 180" class="s48" d="m398 432v-10h5v6l-1 4z"/>
		<path id="Path 181" class="s40" d="m435 429v-7h4l4 2v4l-7 2z"/>
		<path id="Path 182" class="s10" d="m555 426v-4l22 4h4l2 4v10h-10l-2-6h-5l-2-4h-6z"/>
		<path id="Path 183" class="s1" d="m618 423l1-1 3 8z"/>
		<path id="Path 184" class="s12" d="m288 424l4-1 1 4-2 11h-7l-1-10z"/>
		<path id="Path 185" class="s32" d="m321 434l1-11h3l2 6 1 5z"/>
		<path id="Path 186" class="s42" d="m367 428l-2-5h3l1 1v4z"/>
		<path id="Path 187" class="s18" d="m443 424l2-1h3l9 1 3 4-5 3-12-3z"/>
		<path id="Path 188" class="s28" d="m475 426l6-3 1 3-1 4-2 2h-4l-2-3z"/>
		<path id="Path 189" class="s43" d="m482 426l5-3 19 6v5h-3l-7 2-5-5-4 5-4-2-2-4z"/>
		<path id="Path 190" class="s1" d="m270 431l18-7-5 4-10 3z"/>
		<path id="Path 191" class="s29" d="m303 426l7-2 4 8-2 4h-5l-2-2z"/>
		<path id="Path 192" class="s49" d="m369 428v-4h5l3 4v4h4l12-1v1 7l-7 1h-15l-4-3v-2l4-3z"/>
		<path id="Path 193" class="s46" d="m377 428l4-4v8h-4z"/>
		<path id="Path 194" class="s48" d="m337 431l1-5 4-1v6l-1 2z"/>
		<path id="Path 195" class="s45" d="m293 427l10-1 2 8-2 5h2v1l-10 2h-4v-1-3z"/>
		<path id="Path 196" class="s20" d="m539 440l-2-14h14v18h-1l-7-2z"/>
		<path id="Path 197" class="s17" d="m551 444v-18h4l3 4h6l2 4h5l2 6-4 3v7l-2 2-6-5-8 1z"/>
		<path id="Path 198" class="s20" d="m273 431l10-3 1 10-1 4-2 3 4 1v6l-3 3-12 3-2 4h-7v-8l2-9-3-6z"/>
		<path id="Path 199" class="s45" d="m364 431l3-3h2l2 4-4 3z"/>
		<path id="Path 200" class="s43" d="m402 432l1-4h4l2 4z"/>
		<path id="Path 201" class="s32" d="m423 434l1-6h3l8 1 1 1-1 10-2 2h-3l1-6z"/>
		<path id="Path 202" class="s48" d="m436 430l7-2 12 3 2 7-7 3h-1l-7-3-4 2h-3z"/>
		<path id="Path 203" class="s32" d="m455 431l5-3 5 3 8-2 2 3v7l-4 1-14-2z"/>
		<path id="Path 204" class="s15" d="m342 431l6-1 1 7-5 1h-2l-1-5z"/>
		<path id="Path 205" class="s32" d="m359 436v-6l5 1 3 4v2l-6 2z"/>
		<path id="Path 206" class="s48" d="m479 432l2-2 2 4h-4z"/>
		<path id="Path 207" class="s45" d="m511 433l8-3v4l7-1v3l-3 3-4-1-2 4h-4z"/>
		<path id="Path 208" class="s23" d="m583 440v-10h4l4 4v6h-2z"/>
		<path id="Path 209" class="s11" d="m259 437l11-6h3l-13 8-2 1v-1-1z"/>
		<path id="Path 210" class="s9" d="m331 434l2-3h4l4 2 1 5-7 4-4-1z"/>
		<path id="Path 211" class="s48" d="m487 436l4-5 5 5 7-2-1 8h-9l-6-1z"/>
		<path id="Path 212" class="s50" d="m312 436l2-4h4v3l-2 5h-3z"/>
		<path id="Path 213" class="s15" d="m393 439v-7h4v7z"/>
		<path id="Path 214" class="s23" d="m397 439v-7h1 4 7 2l4 1v7h-12-3z"/>
		<path id="Path 215" class="s43" d="m475 439v-7h4v2 6z"/>
		<path id="Path 216" class="s18" d="m415 440v-7l8 1 8 2-1 6-6 2-3-4z"/>
		<path id="Path 217" class="s44" d="m506 434l5-1 2 9-3 2-8-1v-1l1-8z"/>
		<path id="Path 218" class="s51" d="m305 439h-2l2-5 2 2z"/>
		<path id="Path 219" class="s49" d="m321 435v-1h7 3v7l-2 3h-3l-5-3z"/>
		<path id="Path 220" class="s32" d="m479 440v-6h4l4 2v5h-4z"/>
		<path id="Path 221" class="s1" d="m625 436l-1-2 3 2z"/>
		<path id="Path 222" class="s42" d="m316 440l2-5h3v6h-4z"/>
		<path id="Path 223" class="s16" d="m305 439l2-3h5l1 4h-8z"/>
		<path id="Path 224" class="s40" d="m355 438l4-2 2 3 6-2 4 3-1 3-3 3-10-3z"/>
		<path id="Path 225" class="s40" d="m523 439l3-3 3 3-6 3z"/>
		<path id="Path 226" class="s3" d="m625 439v-3h2l3 6v3z"/>
		<path id="Path 227" class="s31" d="m344 438l5-1 6 1 2 5-7 3z"/>
		<path id="Path 228" class="s31" d="m283 442l1-4h7v3l-5 1z"/>
		<path id="Path 229" class="s48" d="m335 442l7-4h2l6 8 7-3 10 3 3 2 1 9h-10-12l-6-1-5 1-1-1z"/>
		<path id="Path 230" class="s49" d="m438 440l4-2 7 3 2 5-7 2-4-4z"/>
		<path id="Path 231" class="s9" d="m450 441l7-3 14 2v6l-1 2-15-2v-4z"/>
		<path id="Path 232" class="s52" d="m517 442l2-4 4 1v3l-2 4h-3z"/>
		<path id="Path 233" class="s43" d="m529 439l4-1 1 4-3 7-10-3 2-4z"/>
		<path id="Path 234" class="s0" d="m249 444l2-4 7-1v1l-8 4z"/>
		<path id="Path 235" class="s12" d="m258 440l2-1 3 6-2 9-16-2-1-3 6-5z"/>
		<path id="Path 236" class="s44" d="m371 440h15l1 8v9l-6 1-2-1v-7l-5-1-4-6z"/>
		<path id="Path 237" class="s43" d="m386 440l7-1h4l3 1-5 10-8-2z"/>
		<path id="Path 238" class="s47" d="m403 440h12 6l3 4 6-2h3l1 4 6-2 4 4 7-2h4l15 2 4 5 11 1-2 14h-8l-8-3h-5l-17-4-8-1-24-2-1-9-7-1z"/>
		<path id="Path 239" class="s23" d="m471 440l4-1 4 1 4 1v8l-12-3z"/>
		<path id="Path 240" class="s40" d="m619 462l-4-19 10-4 5 6 2 3 3 3 7 17z"/>
		<path id="Path 241" class="s40" d="m295 442l10-2h8 3l1 1-1 3-1 2-9 3-11 1z"/>
		<path id="Path 242" class="s48" d="m395 450l5-10h3l2 8 7 1 1 9h-2l-16-1z"/>
		<path id="Path 243" class="s40" d="m433 442l2-2h3l2 4-6 2z"/>
		<path id="Path 244" class="s28" d="m539 442v-2l4 2-1 1h-3z"/>
		<path id="Path 245" class="s20" d="m569 450v-7l4-3h10 6l4 18 16 2 10 2 23 6 22 8h1 1l8 2h3l8 2v8l-6 1-15-4-6 1-18-8-7 1-2-3h-10l-11-1h-5l-8 2-1-3-9-7v-6l-6-2-1-4-9-1z"/>
		<path id="Path 246" class="s17" d="m609 460l-16-2-4-18h2l6 2v6l5 5 7 1z"/>
		<path id="Path 247" class="s18" d="m286 442l5-1v1 8l-1 2h-5v-6z"/>
		<path id="Path 248" class="s45" d="m316 444l1-3h4l5 3-1 3-2 4h-3v-6z"/>
		<path id="Path 249" class="s46" d="m329 444l2-3 4 1 2 14-3-1v-8z"/>
		<path id="Path 250" class="s42" d="m451 446l-2-5h1l5 1v4z"/>
		<path id="Path 251" class="s18" d="m483 449v-8h4l6 1v7l-7 1z"/>
		<path id="Path 252" class="s9" d="m285 446l-4-1 2-3h3z"/>
		<path id="Path 253" class="s20" d="m291 450v-8h4v8z"/>
		<path id="Path 254" class="s15" d="m493 449v-7h9v1l-1 7z"/>
		<path id="Path 255" class="s31" d="m510 444l3-2h4l1 4z"/>
		<path id="Path 256" class="s31" d="m531 449l3-7h5v1 7h3v-7l1-1 7 2-2 9h-1l-15-2z"/>
		<path id="Path 257" class="s14" d="m630 445v-3l2 5v1z"/>
		<path id="Path 258" class="s47" d="m367 446l3-3 4 6 5 1v7h-8l-1-9z"/>
		<path id="Path 259" class="s23" d="m501 450l1-7 8 1 8 2h3l10 3 1 2v5h-3l-18-1-5-5z"/>
		<path id="Path 260" class="s48" d="m542 443v7h-3v-7z"/>
		<path id="Path 261" class="s1" d="m236 452l7-7 6-1h1l-6 5-7 3z"/>
		<path id="Path 262" class="s51" d="m315 446l1-2 4 1v6l-3 1z"/>
		<path id="Path 263" class="s32" d="m325 447l1-3h3l5 3v8l3 1 1 1-1 1h-10z"/>
		<path id="Path 264" class="s44" d="m548 453l2-9h1l2 4v6z"/>
		<path id="Path 265" class="s32" d="m306 449l9-3 2 6 3-1h3v7l-1 1-3 1-12 2z"/>
		<path id="Path 266" class="s43" d="m470 448l1-2 12 3 3 1-1 4-11-1z"/>
		<path id="Path 267" class="s51" d="m323 451l2-4 2 11h-4z"/>
		<path id="Path 268" class="s16" d="m553 448l8-1 6 5v2 4h-6l-8-4z"/>
		<path id="Path 269" class="s2" d="m632 448v-1l4 4h-1z"/>
		<path id="Path 270" class="s47" d="m387 457v-9l8 2v7l-2 1z"/>
		<path id="Path 271" class="s17" d="m237 452l7-3 1 3 16 2v8l-2 4h-8l-9-8h-9v-2z"/>
		<path id="Path 272" class="s47" d="m295 450l11-1 1 13-6 2-9 3h-3l-1-5 4-1v-4l-3-1v-1l1-3z"/>
		<path id="Path 273" class="s48" d="m486 450l7-1 8 1h5l5 5 18 1 1 7 6 2 3 2v9h-8l-3-3h-7l-11-2-11-1-16-2 2-14z"/>
		<path id="Path 274" class="s16" d="m290 452l1-2h4z"/>
		<path id="Path 275" class="s31" d="m567 452l2-2 2 4h-4z"/>
		<path id="Path 276" class="s21" d="m828 452l6-2h7v1l-13 2z"/>
		<path id="Path 277" class="s53" d="m841 451v-1h15l-2 1h-5z"/>
		<path id="Path 278" class="s7" d="m854 451l2-1 7 4v2z"/>
		<path id="Path 279" class="s18" d="m532 456v-5l15 2-3 6-7-1z"/>
		<path id="Path 280" class="s14" d="m642 468l-7-17h1l10 18 18 7z"/>
		<path id="Path 281" class="s17" d="m828 453l13-2h8v9l10 8v2 1l-6 9-10-2-2-6-9-8h-15v-10h2z"/>
		<path id="Path 282" class="s23" d="m859 468l-10-8v-9h5l9 5v5 1l-1 2v1z"/>
		<path id="Path 283" class="s14" d="m227 457l9-5h1l-4 4-5 2h-1z"/>
		<path id="Path 284" class="s9" d="m282 455l3-3h5l-1 3z"/>
		<path id="Path 285" class="s11" d="m811 454l8-2v2h-2z"/>
		<path id="Path 286" class="s34" d="m819 454v-2h9v1z"/>
		<path id="Path 287" class="s49" d="m544 459l3-6h1l5 1 8 4v6l-12-2z"/>
		<path id="Path 288" class="s45" d="m567 458v-4h4l9 1 1 4h-14z"/>
		<path id="Path 289" class="s6" d="m798 456l10-2-5 2z"/>
		<path id="Path 290" class="s20" d="m803 456l5-2h3 6v10l-14 2z"/>
		<path id="Path 291" class="s14" d="m863 456v-2h1v2z"/>
		<path id="Path 292" class="s45" d="m268 462l2-4 12-3h7v1l-1 6 1 5-7 2h-5l-5 5h-3v-1l3-2v-7l-4-1z"/>
		<path id="Path 293" class="s35" d="m776 459l9-4 9 1h-1l-8 2z"/>
		<path id="Path 294" class="s20" d="m228 458l5-2v2l-1 3-4-1z"/>
		<path id="Path 295" class="s54" d="m288 462l1-6 3 1v4z"/>
		<path id="Path 296" class="s23" d="m338 457l5-1v7l-6 1v-6z"/>
		<path id="Path 297" class="s17" d="m343 463v-7l6 1v6z"/>
		<path id="Path 298" class="s42" d="m349 457h12v7h-1-3l-8-1z"/>
		<path id="Path 299" class="s23" d="m361 457h10v7h-3-7z"/>
		<path id="Path 300" class="s44" d="m536 465l-6-2-1-7h3l5 2z"/>
		<path id="Path 301" class="s23" d="m785 458l8-2h1 4 5v10l-4 4-10 2-6-4h-7l-2 6h-11l-2 6h-14l-16-2v-8l5-2 7-2h2l7-2h1l6-1 10-2 6-2h1z"/>
		<path id="Path 302" class="s53" d="m863 461v-5h1v5z"/>
		<path id="Path 303" class="s0" d="m224 459l3-2v1z"/>
		<path id="Path 304" class="s42" d="m371 464v-7h8l2 1-1 7-8 1z"/>
		<path id="Path 305" class="s18" d="m381 458l6-1 6 1v8l-13-1z"/>
		<path id="Path 306" class="s23" d="m393 458l2-1 16 1v8h-11-7z"/>
		<path id="Path 307" class="s55" d="m224 459l3-1h1v2l-7 4v-2l2-2z"/>
		<path id="Path 308" class="s41" d="m228 460l4 1 1-3h9l9 8-1 4h-5-7l-7 8h-13l-3 3v9 6l4 2v18h-6l-8-2v-15l-15-8v-1l27-23 4-3z"/>
		<path id="Path 309" class="s18" d="m322 459l1-1h4 10v6l-3 1-7 1h-4z"/>
		<path id="Path 310" class="s18" d="m411 466v-8h2l24 2-2 7h-9l-11-1z"/>
		<path id="Path 311" class="s47" d="m536 465l1-7 7 1 5 3 1 10 5 4v4l-3 1-5-2-8-3v-9z"/>
		<path id="Path 312" class="s15" d="m561 464v-6h6v1 7z"/>
		<path id="Path 313" class="s23" d="m319 460l3-1 1 7h-4z"/>
		<path id="Path 314" class="s49" d="m567 466v-7h14l6 2v6l9 7h-1l-3 2h-4l-7-8-11-1z"/>
		<path id="Path 315" class="s35" d="m769 460l6-1-6 2z"/>
		<path id="Path 316" class="s15" d="m307 462l12-2v6 1l-6 3h-8-3-1v-6z"/>
		<path id="Path 317" class="s9" d="m435 467l2-7 8 1v7h-8z"/>
		<path id="Path 318" class="s34" d="m759 462l10-2v1l-10 2z"/>
		<path id="Path 319" class="s23" d="m445 468v-7l17 4-3 7h-4l-2-3z"/>
		<path id="Path 320" class="s21" d="m863 462v-1h1v2h-1z"/>
		<path id="Path 321" class="s36" d="m218 464l3-2v2l-4 3z"/>
		<path id="Path 322" class="s29" d="m259 466l2-4h7v1l-1 3z"/>
		<path id="Path 323" class="s32" d="m555 480v-4l-5-4-1-10 12 2 6 2 3 1-1 6-6 2v7h-4z"/>
		<path id="Path 324" class="s11" d="m753 464l6-2v1z"/>
		<path id="Path 325" class="s56" d="m862 464l1-2v1z"/>
		<path id="Path 326" class="s50" d="m267 466l1-3 4 1v7l-3 2z"/>
		<path id="Path 327" class="s32" d="m337 464l6-1h6l8 1-1 20h-7v-5h-3l-1 6-5-1v-11l-6-8z"/>
		<path id="Path 328" class="s24" d="m862 464l1-1h1v2h-2z"/>
		<path id="Path 329" class="s11" d="m188 490l6-8h4l10-12 10-6-1 3-27 23z"/>
		<path id="Path 330" class="s18" d="m292 467l9-3v6h-7z"/>
		<path id="Path 331" class="s48" d="m356 484l1-20h3l7 2 1-2h3l1 2 2 11 8 4v4h-13-6z"/>
		<path id="Path 332" class="s31" d="m368 464l-1 2-7-2h1z"/>
		<path id="Path 333" class="s2" d="m743 465l3-1-1 2h-2z"/>
		<path id="Path 334" class="s6" d="m745 466l1-2h6z"/>
		<path id="Path 335" class="s10" d="m803 466l14-2h15l9 8 2 6v12l-4 1-5-5h-5l-2-8h-25l-3 6h-8l-6-4h-8l-3-6 2-6h7l6 4 10-2z"/>
		<path id="Path 336" class="s48" d="m327 466l7-1 6 8v11l-2 2-9-2-3-11z"/>
		<path id="Path 337" class="s47" d="m372 466l8-1 13 1 2 6h4v13h-3l-9 1-5-1v-4l-8-4z"/>
		<path id="Path 338" class="s9" d="m459 472l3-7h5v7h-5z"/>
		<path id="Path 339" class="s18" d="m467 472v-7l8 3 1 6h-6z"/>
		<path id="Path 340" class="s1" d="m719 470l24-5v1l-7 2-9 2-4 1h-4z"/>
		<path id="Path 341" class="s21" d="m859 468l3-3-1 5h-2z"/>
		<path id="Path 342" class="s31" d="m250 470l1-4h8 8l2 7v1l-8 3h-7z"/>
		<path id="Path 343" class="s44" d="m319 467v-1h4 4l-1 7h-2z"/>
		<path id="Path 344" class="s48" d="m399 472h-4l-2-6h7z"/>
		<path id="Path 345" class="s51" d="m399 472l1-6h11 4v18l-1 2-9-1h-6z"/>
		<path id="Path 346" class="s46" d="m415 484v-18l11 1 3 13-1 4-3 2z"/>
		<path id="Path 347" class="s48" d="m426 467h9l2 1v10l-2 2h-6z"/>
		<path id="Path 348" class="s27" d="m282 469l7-2h3l2 3v2l-4 4h-5l-2-1z"/>
		<path id="Path 349" class="s47" d="m313 470l6-3 5 6-1 13h-6v-9l-4-2z"/>
		<path id="Path 350" class="s23" d="m475 468h8l16 2-1 6h-7l-15-2z"/>
		<path id="Path 351" class="s45" d="m569 473l1-6 11 1 7 8h4v5l-1 5h-8l-1-1v-1l4-1v-7l-3-1-2 5-3-1-1-6-5 3h-3z"/>
		<path id="Path 352" class="s47" d="m437 478v-10h8l8 1 2 3v3l-4 2 1 11-9-2v-6z"/>
		<path id="Path 353" class="s57" d="m727 470l9-2-5 2z"/>
		<path id="Path 354" class="s26" d="m272 474l5-5h5l1 6-5 3h-5z"/>
		<path id="Path 355" class="s52" d="m305 470h8v5l-2 12-6 1 1-12 3-1v-4z"/>
		<path id="Path 356" class="s15" d="m499 470l11 1-2 7-9-1-1-1z"/>
		<path id="Path 357" class="s9" d="m231 478l7-8h7v1l-2 5 2 1v5l-14-1z"/>
		<path id="Path 358" class="s29" d="m245 471v-1h5l4 7v3l-9 2v-5l2-1z"/>
		<path id="Path 359" class="s45" d="m294 472v-2h7 1l-5 2z"/>
		<path id="Path 360" class="s48" d="m297 472l5-2h3l1 6-1 12-4 3-6-1z"/>
		<path id="Path 361" class="s58" d="m306 476l-1-6 4 1v4z"/>
		<path id="Path 362" class="s14" d="m713 472l6-2v1l-6 2z"/>
		<path id="Path 363" class="s42" d="m723 471l4-1h4v8h-8z"/>
		<path id="Path 364" class="s59" d="m859 471v-1h2l-2 2z"/>
		<path id="Path 365" class="s44" d="m245 477l-2-1 2-5 2 5z"/>
		<path id="Path 366" class="s40" d="m508 478l2-7 11 2-4 7-8-1z"/>
		<path id="Path 367" class="s17" d="m713 473l6-2h4v7l-4 5-4 3-6 1v-12z"/>
		<path id="Path 368" class="s60" d="m853 480l6-9v1l-5 11h-1z"/>
		<path id="Path 369" class="s46" d="m285 476h5l4-4h3l-2 18-4 4-5-2z"/>
		<path id="Path 370" class="s52" d="m455 475v-3h4 3v1l-3 5z"/>
		<path id="Path 371" class="s43" d="m462 473v-1h5l3 2h-4z"/>
		<path id="Path 372" class="s34" d="m705 474l8-2v1l-4 2h-4z"/>
		<path id="Path 373" class="s61" d="m323 486l1-13h2l3 11-2 3z"/>
		<path id="Path 374" class="s54" d="m455 475l4 3 3-5 4 1-1 16-12-2h-1l-1-11z"/>
		<path id="Path 375" class="s9" d="m517 480l4-7h7l3 3v7l-8-1-5-1z"/>
		<path id="Path 376" class="s48" d="m563 482v-7l6-2v3h3l5-3 1 6 3 1 1 4v1z"/>
		<path id="Path 377" class="s23" d="m261 477l8-3h3l1 4-7 4h-2-3z"/>
		<path id="Path 378" class="s46" d="m465 490l1-16h4 6l15 2-2 12 3 5-8-1-3 3-2-3-5 2-7-2z"/>
		<path id="Path 379" class="s46" d="m592 476l3-2v6l-3 1z"/>
		<path id="Path 380" class="s32" d="m592 481l3-1v-6h1l1 3 8-2v6h4v7h-10-7l-1-2z"/>
		<path id="Path 381" class="s6" d="m695 476l10-2v1l-6 3h-4z"/>
		<path id="Path 382" class="s26" d="m761 480l2-6h11l3 6-1 7-15 3z"/>
		<path id="Path 383" class="s61" d="m278 478l5-3 2 1 1 16-7 5z"/>
		<path id="Path 384" class="s51" d="m311 487l2-12 4 2v9l-2 3z"/>
		<path id="Path 385" class="s46" d="m581 480l2-5 3 1v7l-4 1z"/>
		<path id="Path 386" class="s9" d="m609 481h-4v-6h5v3z"/>
		<path id="Path 387" class="s16" d="m610 478v-3l11 1v2l-3 4h-4v-3z"/>
		<path id="Path 388" class="s31" d="m621 476h10l2 3-1 1-9 2-2-4z"/>
		<path id="Path 389" class="s39" d="m665 476l4-1v1h-3z"/>
		<path id="Path 390" class="s4" d="m669 476v-1l5 2z"/>
		<path id="Path 391" class="s20" d="m699 478l6-3h4v12l-7 3-3-2z"/>
		<path id="Path 392" class="s54" d="m492 493l-3-5 2-12h7l1 1 4 3v13l-4 1-5-1z"/>
		<path id="Path 393" class="s18" d="m531 483v-7h8l8 3v7z"/>
		<path id="Path 394" class="s55" d="m674 478l-8-2h3l5 1z"/>
		<path id="Path 395" class="s60" d="m690 477l5-1v2h-2-3z"/>
		<path id="Path 396" class="s41" d="m254 480v-3h7v5l-6 2z"/>
		<path id="Path 397" class="s50" d="m499 494l4-1v-13l-4-3 9 1 1 1v11 7h-1z"/>
		<path id="Path 398" class="s35" d="m674 478v-1h9v1h-6z"/>
		<path id="Path 399" class="s4" d="m683 478v-1h7v1z"/>
		<path id="Path 400" class="s20" d="m215 490v-9l3-3h13v3 5l-10 4z"/>
		<path id="Path 401" class="s32" d="m266 482l7-4h5l1 19v1h-8v-11z"/>
		<path id="Path 402" class="s50" d="m435 480l2-2 6 2v6h-8z"/>
		<path id="Path 403" class="s48" d="m609 481l1-3 4 1v3 5l-4 1h-1z"/>
		<path id="Path 404" class="s46" d="m618 482l3-4 2 4-2 6z"/>
		<path id="Path 405" class="s13" d="m633 479l7-1 18 8 6-1-1 7-13 2-8-1-9-3-1-10z"/>
		<path id="Path 406" class="s61" d="m685 480l-8-2h6 7 3z"/>
		<path id="Path 407" class="s41" d="m685 480l8-2h2 4v10l-4 3-10-3z"/>
		<path id="Path 408" class="s18" d="m719 483l4-5h8l16 2v12 4h-9l-7-9-6 3-5-1z"/>
		<path id="Path 409" class="s40" d="m799 484l3-6h25l2 8-9 2-3 6h-15z"/>
		<path id="Path 410" class="s23" d="m839 491l4-1v-12l10 2v3l-5 13-1 2-8-2z"/>
		<path id="Path 411" class="s54" d="m345 485l1-6h3v5z"/>
		<path id="Path 412" class="s46" d="m509 490v-11l8 1 1 1v6l-5 3z"/>
		<path id="Path 413" class="s49" d="m547 486v-7l5 2 2 7z"/>
		<path id="Path 414" class="s20" d="m245 482l9-2 1 4-2 4-3 1-3-2z"/>
		<path id="Path 415" class="s61" d="m428 484l1-4h6v6z"/>
		<path id="Path 416" class="s42" d="m552 481l3-1 4 2v7h-2l-3-1z"/>
		<path id="Path 417" class="s62" d="m623 482l9-2 1 10-10-1h-2v-1z"/>
		<path id="Path 418" class="s15" d="m747 492v-12h14v10z"/>
		<path id="Path 419" class="s40" d="m761 490l15-3 1-7h8l6 4v14l8 2 2 4h8v18h-4l-7-8-11 1-4 4v13l-12 2-11-2-6-7-5-1v-14l-2-14v-4z"/>
		<path id="Path 420" class="s10" d="m231 486v-5l14 1 2 5-1 4-8-1-5-1z"/>
		<path id="Path 421" class="s51" d="m513 490l5-3v-6l5 1v13l3 6-3 2-10-8z"/>
		<path id="Path 422" class="s45" d="m255 484l6-2h3l-1 5-6 1h-4z"/>
		<path id="Path 423" class="s51" d="m263 487l1-5h2l5 5v11l-2 2h-2z"/>
		<path id="Path 424" class="s50" d="m526 501l-3-6v-13l8 1 16 3 7 2 3 1-6 18-8-1-6-2-2-3z"/>
		<path id="Path 425" class="s23" d="m559 489v-7h4l19 3 1 1-2 7-7 1-5-1z"/>
		<path id="Path 426" class="s44" d="m610 488l4-1v-5h4l3 6v1h-4z"/>
		<path id="Path 427" class="s31" d="m715 486l4-3 1 6 5 1-1 7-9-3z"/>
		<path id="Path 428" class="s14" d="m848 496l5-13h1l-5 13z"/>
		<path id="Path 429" class="s40" d="m327 487l2-3 9 2 2-2 5 1 4-1h7l7 1-1 7-11 1-4-1h-4l-8 2h-6l-2-1z"/>
		<path id="Path 430" class="s49" d="m369 485h13l5 1v6l-6 1h-8l-4-2z"/>
		<path id="Path 431" class="s28" d="m414 486l1-2 10 2v6l-4 2h-4l-3-3z"/>
		<path id="Path 432" class="s40" d="m425 486l3-2 7 2h8l9 2h1v6l-15-1-13-1z"/>
		<path id="Path 433" class="s26" d="m809 504h-8l-2-4-8-2v-14h8l3 10h15v10z"/>
		<path id="Path 434" class="s9" d="m362 492l1-7h6v6l-5 3z"/>
		<path id="Path 435" class="s40" d="m387 486l9-1-2 7h-7z"/>
		<path id="Path 436" class="s49" d="m394 492l2-7h3 6v7l-10 2z"/>
		<path id="Path 437" class="s40" d="m405 492v-7l9 1v5l-4 2z"/>
		<path id="Path 438" class="s28" d="m663 492l1-7 15 4v8 5h-2-7l-3-2z"/>
		<path id="Path 439" class="s62" d="m221 490l10-4 2 3v7h-5-7z"/>
		<path id="Path 440" class="s27" d="m315 489l2-3h6l4 1v6l-9 3-3-1z"/>
		<path id="Path 441" class="s40" d="m581 493l2-7h8l1 2-1 6v1h-4z"/>
		<path id="Path 442" class="s28" d="m709 487l6-1v8h-9l-4-4z"/>
		<path id="Path 443" class="s9" d="m817 494l3-6 9-2h5l5 5v5l-4 1v5l8 2-1 3-3 3-3 1h-19v-7z"/>
		<path id="Path 444" class="s44" d="m246 491l1-4 3 2-1 3z"/>
		<path id="Path 445" class="s50" d="m257 488l6-1 4 13-2 2-8 2h-4v-6l3-2z"/>
		<path id="Path 446" class="s40" d="m305 488l6-1 4 2v6l-7 1h-7v-5z"/>
		<path id="Path 447" class="s19" d="m453 488l12 2 2 2v4l-14-2z"/>
		<path id="Path 448" class="s43" d="m725 490l6-3 7 9-1 7-2 3h-9l-2-9z"/>
		<path id="Path 449" class="s32" d="m250 489l3-1h4l-1 8-3 2h-3l-1 8-4 2-5-2-4-8 2-8 8 1 3 1z"/>
		<path id="Path 450" class="s23" d="m591 494l1-6h7v6z"/>
		<path id="Path 451" class="s15" d="m599 494v-6h10 1l7 1v8l-6 1-1-2-9 2-2-2z"/>
		<path id="Path 452" class="s45" d="m679 489l6-1 10 3 4-3 3 2 4 4h9l9 3 2 9h9v14l-3 2-1 11 9 21-7 3-1-2-3-14-15-15 3-2-2-3 4-3v-6l-7-6-26-4-1-5h-6z"/>
		<path id="Path 453" class="s45" d="m233 496v-7l5 1-2 8z"/>
		<path id="Path 454" class="s51" d="m551 507l6-18h2l10 4v3l5-2 7-1 6 2-2 11h-9l1 6h-3l-7-2-14-2z"/>
		<path id="Path 455" class="s18" d="m617 497v-8h4 2v8z"/>
		<path id="Path 456" class="s23" d="m623 497v-8l10 1 9 3v7h-1-2l-11-2z"/>
		<path id="Path 457" class="s30" d="m185 492l3-2h2v1l-6 4z"/>
		<path id="Path 458" class="s63" d="m219 498l-4-2v-6h6v6z"/>
		<path id="Path 459" class="s27" d="m291 494l4-4 6 1v5l-1 2-9 2z"/>
		<path id="Path 460" class="s64" d="m509 497v-7h4v5z"/>
		<path id="Path 461" class="s65" d="m184 495l6-4 15 8v15l-6 4v4h-7l-5 4h-8l-12 3v13l-2 2h-9l-7 7 4 25-5 3-15-1v-1l-4-11-1-18 12-11v-5l4-5 16-13 8-6 11-9z"/>
		<path id="Path 462" class="s61" d="m364 494l5-3 4 2v6l-3 3h-6z"/>
		<path id="Path 463" class="s54" d="m410 493l4-2 3 3-4 2z"/>
		<path id="Path 464" class="s24" d="m178 499l7-7-1 3-5 4z"/>
		<path id="Path 465" class="s9" d="m279 497l7-5 5 2v6h-3l-1 1-2 1-1 1h-5v-5z"/>
		<path id="Path 466" class="s61" d="m287 500h1v1h-1z"/>
		<path id="Path 467" class="s50" d="m335 494l8-2v2z"/>
		<path id="Path 468" class="s51" d="m343 494v-2h4l1 6-1 8h-5z"/>
		<path id="Path 469" class="s54" d="m348 498l-1-6 4 1v5z"/>
		<path id="Path 470" class="s46" d="m351 493l11-1 2 2v8l-1 4h-8l-4-8z"/>
		<path id="Path 471" class="s54" d="m381 493l6-1h7l1 2v17l-8 1-1-11-5-2z"/>
		<path id="Path 472" class="s51" d="m395 494l10-2 5 1 3 3 4 16h-1l-8 1h-9l-4-2z"/>
		<path id="Path 473" class="s47" d="m421 494l4-2v2z"/>
		<path id="Path 474" class="s61" d="m425 494v-2l13 1v1l-3 2h-6z"/>
		<path id="Path 475" class="s9" d="m467 496v-4l7 2 5-2 2 3v5h-11z"/>
		<path id="Path 476" class="s13" d="m481 495l3-3 8 1h2v6l-3 1-10 1v-1z"/>
		<path id="Path 477" class="s46" d="m569 493l5 1-5 2z"/>
		<path id="Path 478" class="s23" d="m650 494l13-2 4 8-9 1-8-1z"/>
		<path id="Path 479" class="s61" d="m318 496l9-3 2 1-1 2-5 2z"/>
		<path id="Path 480" class="s46" d="m373 499v-6h8v6z"/>
		<path id="Path 481" class="s50" d="m438 494v-1l15 1 14 2 3 4h-4v8h-7l-12-2h-6v-10z"/>
		<path id="Path 482" class="s27" d="m494 499v-6l5 1 9 3-1 5h-7z"/>
		<path id="Path 483" class="s42" d="m642 500v-7l8 1v6z"/>
		<path id="Path 484" class="s54" d="m328 496l1-2h6l1 11 3 1v7l-4 3h-6l-1-3 2-2z"/>
		<path id="Path 485" class="s64" d="m339 506l-3-1-1-11h8l-1 12z"/>
		<path id="Path 486" class="s64" d="m413 496l4-2h4 4l4 2-1 15-11 1z"/>
		<path id="Path 487" class="s64" d="m435 496l3-2 3 2v10l-2 1-4-3z"/>
		<path id="Path 488" class="s16" d="m591 495v-1h8v2z"/>
		<path id="Path 489" class="s66" d="m308 496l7-1 3 1 5 2v12l5 3 1 3-15 3-6-1-1-20z"/>
		<path id="Path 490" class="s31" d="m509 497l4-2 10 8 3-2h9l2 3 1 5v1h-8l-7-5-10-1-6-2 1-5z"/>
		<path id="Path 491" class="s61" d="m585 506l2-11h4l8 1 2 2v6l-2 9h-4l-10-1z"/>
		<path id="Path 492" class="s20" d="m219 498l2-2h7l3 14v8l-10-1-2-1z"/>
		<path id="Path 493" class="s67" d="m231 510l-3-14h5l3 2 4 8 5 2v3h-3z"/>
		<path id="Path 494" class="s44" d="m300 498l1-2h7l-1 2z"/>
		<path id="Path 495" class="s64" d="m323 498l5-2 2 15-2 2-5-3z"/>
		<path id="Path 496" class="s66" d="m428 511l1-15h6v8l4 3v4l-3 1h-5z"/>
		<path id="Path 497" class="s51" d="m601 498l9-2 1 2v6l-2 2-8-2z"/>
		<path id="Path 498" class="s26" d="m737 503l1-7h9l2 14h-8z"/>
		<path id="Path 499" class="s15" d="m843 504l-8-2v-5l4-1 8 2z"/>
		<path id="Path 500" class="s1" d="m847 498l1-2h1l-3 9-4 2 1-3z"/>
		<path id="Path 501" class="s46" d="m611 498l6-1h6l5 1 1 2v5l-2 5 2 3v3h-2-4-4-2v-5l-6-7z"/>
		<path id="Path 502" class="s9" d="m679 502v-5h6l1 5-3 1z"/>
		<path id="Path 503" class="s51" d="m249 506l1-8h3v6z"/>
		<path id="Path 504" class="s27" d="m269 500l2-2h8v5l-10 3z"/>
		<path id="Path 505" class="s68" d="m291 500l9-2h7l1 20-7-1-6 3-4-2-4-10v-6-1l1-1z"/>
		<path id="Path 506" class="s56" d="m347 506l1-8h3l4 8h8v6l-5 2-11-2z"/>
		<path id="Path 507" class="s45" d="m629 500l-1-2 11 2z"/>
		<path id="Path 508" class="s8" d="m170 504l8-5h1l-11 9v-1z"/>
		<path id="Path 509" class="s64" d="m370 502l3-3h8l5 2 1 11h-2-10-1z"/>
		<path id="Path 510" class="s64" d="m470 500h11v1l-2 10-11 2-2-5v-8z"/>
		<path id="Path 511" class="s69" d="m481 501l10-1v7l-5 5-6 1-1-2z"/>
		<path id="Path 512" class="s64" d="m491 500l3-1 6 3-2 6-7-1z"/>
		<path id="Path 513" class="s29" d="m265 502l2-2h2v6h-4z"/>
		<path id="Path 514" class="s51" d="m629 505v-5h10 2v6l8 1v9l-6 2-7-1h-4l-3-1v-3l2-1z"/>
		<path id="Path 515" class="s52" d="m649 507l-8-1v-6h1 8l8 1v1z"/>
		<path id="Path 516" class="s44" d="m658 501l9-1 3 2v7l-4 2-2-7-6-2z"/>
		<path id="Path 517" class="s61" d="m285 502l2-1v1z"/>
		<path id="Path 518" class="s26" d="m257 504l8-2v4l-2 3-6-1z"/>
		<path id="Path 519" class="s56" d="m284 503l1-1h2v6h-2z"/>
		<path id="Path 520" class="s68" d="m363 506l1-4h6l4 10h-3-8z"/>
		<path id="Path 521" class="s68" d="m491 507l7 1 2-6h7l6 2v13l-6 1h-6-9l-3-3-3-3z"/>
		<path id="Path 522" class="s68" d="m649 507l9-5 6 2 2 7 4-2 3 3v5l-4 1h-3-5l2 4-1 6-5-2v-3l1-7-6 2-3-2z"/>
		<path id="Path 523" class="s50" d="m670 509v-7h7v10h-4z"/>
		<path id="Path 524" class="s51" d="m673 512h4v-10h2l4 1v4l2 5v6h-2l-10-1z"/>
		<path id="Path 525" class="s48" d="m683 503l3-1 26 4 7 6v6l-4 3-10-1-1 3 4 4-1 13-11-2v5l11 2 3 5-7 6h-6v-11l-6-2-1-6 1-5 4-2-4-3-1-4v-3l-5-2v-6l2-4-4-1z"/>
		<path id="Path 526" class="s51" d="m269 506l10-3h5l1 5v4l-6 1v5h-4l-1-4-5-2z"/>
		<path id="Path 527" class="s31" d="m735 506l2-3 4 7v10h-6z"/>
		<path id="Path 528" class="s38" d="m249 506l4-2h4v4l-5 3h-7v-3z"/>
		<path id="Path 529" class="s56" d="m513 517v-13l10 1v11l-1 1h-2z"/>
		<path id="Path 530" class="s15" d="m538 509l-1-5 6 2v4z"/>
		<path id="Path 531" class="s56" d="m599 513l2-9 8 2 2-2 6 7v5h-3-5-4z"/>
		<path id="Path 532" class="s27" d="m809 522v-18h8v7h-3l1 3 8 2 4 1h2 1l4 6-2 2-5 5h-2l-2-4h-8l-2-4z"/>
		<path id="Path 533" class="s64" d="m523 516v-11l7 5h8l3 2 2 10h8l2 2v8l-5-1-6 1-5-1-2-6-1-6z"/>
		<path id="Path 534" class="s70" d="m629 513l-2-3 2-5 2 7z"/>
		<path id="Path 535" class="s61" d="m257 508l6 1 2-3h4v6 8l-2 6h-3v3l7 3h2v10l3 4h-8l-2 4-7 3v-12l-4-2v-19l-4-2 1-7z"/>
		<path id="Path 536" class="s69" d="m339 513v-7h3 5v6z"/>
		<path id="Path 537" class="s71" d="m439 507l2-1h6v5 1l-8-1z"/>
		<path id="Path 538" class="s66" d="m447 511v-5l12 2v4z"/>
		<path id="Path 539" class="s38" d="m543 510v-4l8 1 2 1 2 5-2 2h-2l-2-3z"/>
		<path id="Path 540" class="s64" d="m577 512l-1-6h9v6z"/>
		<path id="Path 541" class="s1" d="m159 514l9-7v1l-8 6z"/>
		<path id="Path 542" class="s13" d="m685 512l-2-5 4 1z"/>
		<path id="Path 543" class="s66" d="m285 512v-4h2l4 10-7 3v-1z"/>
		<path id="Path 544" class="s68" d="m459 512v-4h7l2 5z"/>
		<path id="Path 545" class="s37" d="m553 515l2-2-2-5 14 2v6l-12-1z"/>
		<path id="Path 546" class="s62" d="m538 510v-1l5 1 6 2h-8z"/>
		<path id="Path 547" class="s10" d="m231 518v-8l11 1v6l-5 1z"/>
		<path id="Path 548" class="s38" d="m567 516v-6l7 2-1 4z"/>
		<path id="Path 549" class="s49" d="m741 520v-10h8v14h-6z"/>
		<path id="Path 550" class="s35" d="m836 511l3-1-3 2z"/>
		<path id="Path 551" class="s72" d="m242 517v-6h3 7l-1 7-4 1-4-1z"/>
		<path id="Path 552" class="s16" d="m387 512l8-1 4 2-2 1h-8l-4-2z"/>
		<path id="Path 553" class="s29" d="m417 512l11-1 3 1v8l-2 2-6-2h-4l-3-8z"/>
		<path id="Path 554" class="s9" d="m436 512l3-1 8 1v8h-10z"/>
		<path id="Path 555" class="s40" d="m447 512v-1l12 1 9 1 11-2 1 2v4l-2 3h-8l-1 3-22-3z"/>
		<path id="Path 556" class="s21" d="m823 516l-8-2-1-3h3 19v1h-5-3-9l3 2z"/>
		<path id="Path 557" class="s73" d="m269 520v-8l5 2 1 4h4l1 2v2l-5 2z"/>
		<path id="Path 558" class="s74" d="m279 518v-5l6-1-1 8h-4z"/>
		<path id="Path 559" class="s57" d="m339 513l8-1 11 2 5-2h8l-2 2-8 1-6 2-8-1h-6-6z"/>
		<path id="Path 560" class="s18" d="m369 514l2-2h3 1v10h-6z"/>
		<path id="Path 561" class="s40" d="m375 522v-10h10l4 2 4 8h-16z"/>
		<path id="Path 562" class="s18" d="m399 513h9l1 8v1h-12v-8z"/>
		<path id="Path 563" class="s15" d="m408 513l8-1 3 8-4 2-6-1z"/>
		<path id="Path 564" class="s40" d="m431 520v-8h5l1 8h-2z"/>
		<path id="Path 565" class="s26" d="m480 513l6-1 3 3-2 5h-3l-4-3z"/>
		<path id="Path 566" class="s75" d="m551 522h-8l-2-10h8l2 3z"/>
		<path id="Path 567" class="s40" d="m573 516l1-4h3 8v6h-1z"/>
		<path id="Path 568" class="s15" d="m585 518v-6l10 1v5h-9z"/>
		<path id="Path 569" class="s59" d="m831 512l-1 2-2-2z"/>
		<path id="Path 570" class="s19" d="m595 518v-5h4l6 3-2 4h-2-5z"/>
		<path id="Path 571" class="s6" d="m147 522l12-8h1l-16 13-2 1v-2l1-1 1-1z"/>
		<path id="Path 572" class="s20" d="m199 522v-4l6-4 8 2v4l-8 7v10l-2 7h-5l-3-6 6-4z"/>
		<path id="Path 573" class="s49" d="m361 515l8-1v8l-1 1-5 3-4-2v-2z"/>
		<path id="Path 574" class="s23" d="m393 522l-4-8h8v8 1z"/>
		<path id="Path 575" class="s26" d="m783 532v-13l4-4 11-1 7 8h4 4l2 4h8l2 4-2 4-6 8v5 5h-2l-25-2-2-3 5-8z"/>
		<path id="Path 576" class="s35" d="m823 516l-1-2 5 1v2z"/>
		<path id="Path 577" class="s18" d="m355 517l6-2-2 7h-4z"/>
		<path id="Path 578" class="s62" d="m484 520h3l2-5 3 3-1 6-7-2z"/>
		<path id="Path 579" class="s68" d="m551 522v-7h2 2v9h-2z"/>
		<path id="Path 580" class="s70" d="m555 524v-9l12 1 1 2-1 6-7 2z"/>
		<path id="Path 581" class="s76" d="m609 516h5l1 4-1 1-4-1z"/>
		<path id="Path 582" class="s59" d="m827 517v-2l2 2z"/>
		<path id="Path 583" class="s63" d="m205 537v-10l8-7v-4h6l2 1-6 11v7z"/>
		<path id="Path 584" class="s9" d="m314 519l15-3h6v8l-8 5-4-2-5 1v-7z"/>
		<path id="Path 585" class="s26" d="m335 524v-8h6v8 1l-4-1z"/>
		<path id="Path 586" class="s9" d="m341 524v-8h6l1 8z"/>
		<path id="Path 587" class="s15" d="m348 524l-1-8 8 1v5l-3 2-1 1z"/>
		<path id="Path 588" class="s28" d="m522 517l1-1 11 3 1 6-10 1v-7z"/>
		<path id="Path 589" class="s32" d="m568 518l-1-2h6l11 2-1 2z"/>
		<path id="Path 590" class="s66" d="m603 520l2-4h4l1 4z"/>
		<path id="Path 591" class="s77" d="m615 520l-1-4h3 2v4z"/>
		<path id="Path 592" class="s78" d="m619 520v-4h4v4z"/>
		<path id="Path 593" class="s72" d="m623 520v-4h4v4z"/>
		<path id="Path 594" class="s79" d="m627 520v-4h2l3 1-1 3z"/>
		<path id="Path 595" class="s80" d="m636 517l7 1v2l-5 3-2-3z"/>
		<path id="Path 596" class="s81" d="m643 518l6-2 3 2 6-2-1 7-4-3-4 2-6-2z"/>
		<path id="Path 597" class="s82" d="m215 535v-7l6-11 10 1h6l2 20-2 8-10 4-1-4-6-1v-8z"/>
		<path id="Path 598" class="s57" d="m237 518l5-1 1 1v7l3 1 3 11 1 6 1 7h-7l-7-4 2-8z"/>
		<path id="Path 599" class="s27" d="m295 520l6-3 7 1 6 1 4 2v7l-2 1-4-2-6-2-5 5-6-1z"/>
		<path id="Path 600" class="s43" d="m469 523l1-3h8l2-3 4 3v2l-3 1z"/>
		<path id="Path 601" class="s29" d="m492 518h9v7l-10-1z"/>
		<path id="Path 602" class="s9" d="m507 518l6-1h7l-1 8-12 2v-1z"/>
		<path id="Path 603" class="s40" d="m519 525l1-8h2l3 2v7 1z"/>
		<path id="Path 604" class="s77" d="m627 520h4l1-3h4v3l-3 2h-6z"/>
		<path id="Path 605" class="s82" d="m663 522l-2-4h5z"/>
		<path id="Path 606" class="s57" d="m669 518l4-1 10 1v3l-8 1h-5z"/>
		<path id="Path 607" class="s59" d="m834 523l-4-6 6 2-2 5z"/>
		<path id="Path 608" class="s37" d="m246 526l-3-1v-7l4 1z"/>
		<path id="Path 609" class="s62" d="m247 519l4-1 4 2v19h-2l-4-2-3-11z"/>
		<path id="Path 610" class="s19" d="m284 521l7-3 4 2v9h-5-3l-4 1v-8z"/>
		<path id="Path 611" class="s49" d="m501 525v-7h6v8z"/>
		<path id="Path 612" class="s56" d="m555 524l5 2 7-2 1-6 15 2 2 17-2 1h-3l-3-1-4-1-20-4v-8z"/>
		<path id="Path 613" class="s70" d="m583 520l1-2h1 1l3 2v8l6 4-1 5-5 1-4-1z"/>
		<path id="Path 614" class="s32" d="m589 520l-3-2h9l1 2z"/>
		<path id="Path 615" class="s50" d="m663 522l3-4h3l1 4h5l4 6 1 10 1 6-1 14h-7l-2-12 2-6-10-2h-2l1-10z"/>
		<path id="Path 616" class="s45" d="m683 521v-3h2l5 2v3z"/>
		<path id="Path 617" class="s69" d="m267 526l2-6 6 4h-2l-4 3z"/>
		<path id="Path 618" class="s72" d="m280 522v-2h4v1l-1 1z"/>
		<path id="Path 619" class="s56" d="m409 521l6 1v2h-6v-2z"/>
		<path id="Path 620" class="s46" d="m415 522l4-2h4v4h-8z"/>
		<path id="Path 621" class="s68" d="m423 524v-4l6 2 2-2h4l3 15 5 8h-6l-10 1-2-1-2-7z"/>
		<path id="Path 622" class="s56" d="m443 543l-5-8-3-15h2 10l22 3h12l4 16v3h-9-4-10l-6 1h-6z"/>
		<path id="Path 623" class="s56" d="m594 537l1-5-6-4v-8h7 5v10l7 5v4l-9 1z"/>
		<path id="Path 624" class="s64" d="m608 539v-4l-7-5v-10h2 7l4 1 1 19h-2z"/>
		<path id="Path 625" class="s56" d="m614 521l1-1h4 4 4v2 11l4 1v5l-8 1h-8z"/>
		<path id="Path 626" class="s68" d="m633 522l3-2 2 3-1 8 6 3v4l-4 2-8-1v-5z"/>
		<path id="Path 627" class="s70" d="m638 523l5-3 6 2v6 6h-6l-6-3z"/>
		<path id="Path 628" class="s56" d="m649 522l4-2 4 3v3 2h-8z"/>
		<path id="Path 629" class="s28" d="m708 527l-4-4 1-3 10 1 2 3-3 2z"/>
		<path id="Path 630" class="s9" d="m740 554l-9-21 1-11 3-2h6l2 4v12l4 2 2 6-6 5v5z"/>
		<path id="Path 631" class="s68" d="m397 522h12v2l-2 8h-6l-4-6v-3z"/>
		<path id="Path 632" class="s46" d="m675 522l8-1 7 2 1 4v5l-1 5-5 1h-5l-1-10z"/>
		<path id="Path 633" class="s41" d="m187 526l5-4h7l2 12-6 4h-4z"/>
		<path id="Path 634" class="s78" d="m275 524l5-2h3v8h-6l-4-2v-4z"/>
		<path id="Path 635" class="s57" d="m352 524l3-2h4v2z"/>
		<path id="Path 636" class="s80" d="m368 523l1-1h6 2l-3 4z"/>
		<path id="Path 637" class="s56" d="m374 526l3-4h16l1 4h3l4 6h6l16 4 2 7-16 2-13 1-6-8h-12z"/>
		<path id="Path 638" class="s72" d="m397 526h-3l-1-4 4 1z"/>
		<path id="Path 639" class="s66" d="m481 523l3-1 7 2 10 1 6 1v1l1 18-5 1h-4l-13-3v-1l-1-3z"/>
		<path id="Path 640" class="s64" d="m631 534l-4-1v-11h6z"/>
		<path id="Path 641" class="s83" d="m363 526l5-3 6 3 4 12-1 5-7 3-1-8-6-4z"/>
		<path id="Path 642" class="s60" d="m832 525l2-2v1z"/>
		<path id="Path 643" class="s84" d="m269 527l4-3v4l4 2v2h-4-2z"/>
		<path id="Path 644" class="s46" d="m327 529l8-5h2v4 8h-4z"/>
		<path id="Path 645" class="s85" d="m337 528v-4l4 1v2z"/>
		<path id="Path 646" class="s61" d="m341 525v-1h7l3 1v4h-2l-8-2z"/>
		<path id="Path 647" class="s56" d="m351 525l1-1h7l4 2v8l6 4 1 8-3 2-14 3-1-2 1-10 2-5-4-5z"/>
		<path id="Path 648" class="s69" d="m407 532l2-8h6 8v12z"/>
		<path id="Path 649" class="s18" d="m743 554v-5l6-5-2-6-4-2v-12h6l5 1 6 7 11 2 2 9h4l2 4h9l2 3 2 15 20 7 1 4 2 14-2 1-28-11h-10l-1-8-5-5h-7l-3-6-10-1z"/>
		<path id="Path 650" class="s61" d="m301 530l5-5 6 2-2 3h-5z"/>
		<path id="Path 651" class="s56" d="m507 527l12-2 6 2 3 3 1 18-14-2h-4l-3-1z"/>
		<path id="Path 652" class="s54" d="m525 526l10-1 2 6 5 1 1 6 2 1 1 9-1 9-8-2 3-2-1-5h-10l-1-18-3-3z"/>
		<path id="Path 653" class="s43" d="m532 531l4 1v7h-5z"/>
		<path id="Path 654" class="s1" d="m133 534l9-8v2l-5 4z"/>
		<path id="Path 655" class="s19" d="m167 542v-13l12-3-1 14-2 1z"/>
		<path id="Path 656" class="s81" d="m178 540l1-14h8l4 12v8l-3-1-5-1z"/>
		<path id="Path 657" class="s79" d="m271 532l-7-3v-3h3l2 1z"/>
		<path id="Path 658" class="s52" d="m657 528v-2l5 2-1 10h-4v-4z"/>
		<path id="Path 659" class="s47" d="m708 527l6-1 15 15 3 14-5 3h-6l-3-5-8-3-3-5v-5z"/>
		<path id="Path 660" class="s13" d="m142 528l2-1-4 5h-3z"/>
		<path id="Path 661" class="s56" d="m310 530l2-3 4 2-1 3h-5z"/>
		<path id="Path 662" class="s69" d="m318 528l5-1 2 18h-8l-2-13 1-3z"/>
		<path id="Path 663" class="s58" d="m325 545l-2-18 4 2 6 7v10l-1 4-2 1z"/>
		<path id="Path 664" class="s69" d="m337 528l4-1 8 2v8l4 2-1 10-4 1h-7l-4-4v-10z"/>
		<path id="Path 665" class="s45" d="m691 532v-5l4 3z"/>
		<path id="Path 666" class="s74" d="m287 529h3l-3 3z"/>
		<path id="Path 667" class="s64" d="m649 534v-6h8v6z"/>
		<path id="Path 668" class="s66" d="m283 530l4-1v3h-10v-2z"/>
		<path id="Path 669" class="s83" d="m287 532l3-3h5l6 1-1 16-6 1 1 5h-4l-2-4z"/>
		<path id="Path 670" class="s86" d="m305 530h5v2l-1 3z"/>
		<path id="Path 671" class="s74" d="m353 539l-4-2v-8h2l4 5z"/>
		<path id="Path 672" class="s87" d="m300 546l1-16h4l4 5-2 9-4 3z"/>
		<path id="Path 673" class="s35" d="m823 534l2-4h2l-3 4z"/>
		<path id="Path 674" class="s40" d="m542 532l6-1v4l-5 3z"/>
		<path id="Path 675" class="s45" d="m543 538l5-3v-4l5 1 20 4v7l-20-3-8-1z"/>
		<path id="Path 676" class="s20" d="m133 534l4-2h3v5l-12 11 1 18-12-2-3-14 5-5 10-8z"/>
		<path id="Path 677" class="s70" d="m276 546l-3-4v-10h4 10l2 16h-2l-4 2-5-2z"/>
		<path id="Path 678" class="s71" d="m309 535l1-3h5l2 13v7l-6 2-2-3-2-7z"/>
		<path id="Path 679" class="s23" d="m771 534l12-2 10 7-5 8h-9l-2-4h-4z"/>
		<path id="Path 680" class="s5" d="m128 537l1-3h4l-4 3z"/>
		<path id="Path 681" class="s56" d="m643 538v-4h6 8v4l-6 1z"/>
		<path id="Path 682" class="s5" d="m817 542l6-8h1z"/>
		<path id="Path 683" class="s67" d="m205 537l10-2 5 2v8l-6 5v6h-8l-1-4h-14v-6-8h4l3 6h5z"/>
		<path id="Path 684" class="s88" d="m333 546v-10h4v10z"/>
		<path id="Path 685" class="s13" d="m573 543v-7l4 1v7z"/>
		<path id="Path 686" class="s14" d="m119 544l9-7h1l-10 8z"/>
		<path id="Path 687" class="s75" d="m250 543l-1-6 4 2z"/>
		<path id="Path 688" class="s44" d="m577 544v-7l3 1 1 6z"/>
		<path id="Path 689" class="s43" d="m583 538l2-1 4 1v6h-6l2-2z"/>
		<path id="Path 690" class="s16" d="m589 538l5-1 5 3 2 5-12-1z"/>
		<path id="Path 691" class="s16" d="m685 538l5-1 1 6-7 1z"/>
		<path id="Path 692" class="s66" d="m377 543l1-5h12l6 8-6 2z"/>
		<path id="Path 693" class="s9" d="m581 544l-1-6h3l2 4-2 2z"/>
		<path id="Path 694" class="s44" d="m639 540l4-2 8 1v7h-10-2z"/>
		<path id="Path 695" class="s16" d="m651 539l6-1h4 2v7h-6l-6 1z"/>
		<path id="Path 696" class="s57" d="m663 545v-7l10 2-2 6z"/>
		<path id="Path 697" class="s49" d="m681 544l-1-6h5l-1 6z"/>
		<path id="Path 698" class="s13" d="m707 545l-11-2v-5l11 2z"/>
		<path id="Path 699" class="s72" d="m250 543l3-4h2l4 2v12l-4 1-4-4z"/>
		<path id="Path 700" class="s68" d="m485 542v-3l1 3z"/>
		<path id="Path 701" class="s56" d="m546 548l-1-9 8 1v7z"/>
		<path id="Path 702" class="s9" d="m599 540l9-1 5 1v4l-5 1h-7z"/>
		<path id="Path 703" class="s28" d="m615 540h8v4l-2 2-8-2v-4z"/>
		<path id="Path 704" class="s29" d="m623 540l8-1v6l-8-1z"/>
		<path id="Path 705" class="s16" d="m631 545v-6l8 1v6h-2z"/>
		<path id="Path 706" class="s85" d="m176 541l2-1 5 4-2 4-6-2z"/>
		<path id="Path 707" class="s64" d="m553 547v-7l20 3 4 1h4 2 6l12 1h7v3 8l-1 14-7 2-2-5-10-3h-9-7-5l-6-1-5-4z"/>
		<path id="Path 708" class="s37" d="m167 542l9-1-1 5-4 5-2 8 6 1v5l-5 7h-7-2v-11l4-2v-15z"/>
		<path id="Path 709" class="s28" d="m450 543h6l1 1v6l-4 1z"/>
		<path id="Path 710" class="s62" d="m456 543l6-1v2h-5z"/>
		<path id="Path 711" class="s80" d="m462 544v-2h10v2h-1z"/>
		<path id="Path 712" class="s85" d="m472 544v-2h4v2z"/>
		<path id="Path 713" class="s89" d="m476 544v-2h9 1v1 1l-7 1z"/>
		<path id="Path 714" class="s62" d="m370 546l7-3 1 8 5 3-7 3h-1l-1-7h-7v-2z"/>
		<path id="Path 715" class="s67" d="m383 554l-5-3-1-8 13 5v1l-1 5z"/>
		<path id="Path 716" class="s62" d="m409 545l16-2 2 1v1l-3 3h-4l-8-2z"/>
		<path id="Path 717" class="s28" d="m427 544l10-1v8l-5 2-4-1 3-5-4-2z"/>
		<path id="Path 718" class="s49" d="m437 551v-8h6 7l3 8-4 1z"/>
		<path id="Path 719" class="s28" d="m486 544v-1l13 3-1 6h-7l-7-1v-2l3-1z"/>
		<path id="Path 720" class="s61" d="m684 544l7-1 6 2v11l-3 4h-8l-6-2 1-14z"/>
		<path id="Path 721" class="s3" d="m108 552l3-5 8-3v1l-5 5z"/>
		<path id="Path 722" class="s20" d="m153 576l-4-25 7-7h9v15l-4 2v11l-4 4z"/>
		<path id="Path 723" class="s69" d="m181 548l2-4 5 1-1 5-6 2z"/>
		<path id="Path 724" class="s63" d="m303 547l4-3 2 7-7 1z"/>
		<path id="Path 725" class="s40" d="m457 550v-6h5 9v6l-8 2z"/>
		<path id="Path 726" class="s9" d="m471 550v-6h1 4l3 1 1 5-1 1h-7z"/>
		<path id="Path 727" class="s26" d="m479 545l7-1 1 4-3 1-4 1z"/>
		<path id="Path 728" class="s66" d="m608 545l5-1 8 2v10h-3l-3-2-1-5-6-1z"/>
		<path id="Path 729" class="s75" d="m621 546l2-2 8 1 6 1v8l-2 9-10 1v-5l-4-3z"/>
		<path id="Path 730" class="s72" d="m187 550l1-5 3 1v6 1z"/>
		<path id="Path 731" class="s78" d="m214 556v-6l6-5 6 1 1 4 2 8h12v4l-3 12-2 6-3 1-8-1v-8l-5-3 3-11-7-1z"/>
		<path id="Path 732" class="s75" d="m317 552v-7h8l5 6-7 4z"/>
		<path id="Path 733" class="s82" d="m396 546l13-1 3 1 3 6-20 3v-5l-5-1v-1z"/>
		<path id="Path 734" class="s18" d="m424 548l3-3 4 2-3 5h-4z"/>
		<path id="Path 735" class="s29" d="m503 546l5-1 3 1v6l-2 2-4-1z"/>
		<path id="Path 736" class="s56" d="m651 546l6-1 2 13-6 2h-8l-4-6v-8z"/>
		<path id="Path 737" class="s68" d="m659 558l-2-13h6l8 1 2 12-1 2h-5z"/>
		<path id="Path 738" class="s61" d="m171 551l4-5 6 2v4l-3 7z"/>
		<path id="Path 739" class="s67" d="m227 550l10-4 7 4v7l-3 1h-12z"/>
		<path id="Path 740" class="s62" d="m266 550l2-4h8l2 2-3 3-7 2z"/>
		<path id="Path 741" class="s78" d="m295 552l-1-5 6-1 3 1-1 5-3 1h-4z"/>
		<path id="Path 742" class="s81" d="m332 550l1-4h4l4 4h-1-7z"/>
		<path id="Path 743" class="s12" d="m415 552l-3-6 8 2-2 4z"/>
		<path id="Path 744" class="s62" d="m498 552l1-6h4l2 7h-2z"/>
		<path id="Path 745" class="s19" d="m511 552v-6h4l1 5-4 1z"/>
		<path id="Path 746" class="s62" d="m512 552l4-1-1-5 14 2h10l1 5-3 2-4 1-21-2z"/>
		<path id="Path 747" class="s68" d="m637 554v-8h2 2v8z"/>
		<path id="Path 748" class="s51" d="m546 548l7-1 3 12 5 4 2 5v14l-7-1v-4l-5-1-2-15-4-4z"/>
		<path id="Path 749" class="s90" d="m817 552v-5l2 5v1z"/>
		<path id="Path 750" class="s77" d="m275 551l3-3 5 2 4-2 2 6-1 9-12 4-5-3z"/>
		<path id="Path 751" class="s91" d="m289 554l-2-6h2l2 4v1z"/>
		<path id="Path 752" class="s37" d="m353 551l14-3v2 6l7 2-7 3-5-1 1-7h-6l2 7h-6z"/>
		<path id="Path 753" class="s29" d="m418 552l2-4h4v4l-3 2z"/>
		<path id="Path 754" class="s56" d="m608 556v-8l6 1 1 5-2 2z"/>
		<path id="Path 755" class="s67" d="m333 550h7l-2 6-5-2z"/>
		<path id="Path 756" class="s67" d="m348 550l4-1 1 2v9l-8-2z"/>
		<path id="Path 757" class="s17" d="m389 554l1-5 5 1v5l-5 1z"/>
		<path id="Path 758" class="s47" d="m480 550l4-1v2l-3 2-2-2z"/>
		<path id="Path 759" class="s41" d="m108 552l6-2 3 14 12 2 4 11h-12l-3 4h-3l-8 5h-10-6l-2-1-2-2 2-10 6-9 2-1 8 2 1-4-5-2 6-6z"/>
		<path id="Path 760" class="s68" d="m181 552l6-2 4 3v3l-2 10-11-3v-4z"/>
		<path id="Path 761" class="s37" d="m241 558l3-1v-7h7l4 4v5l4 2v11h-4l-3-5h-4v-2l2-5-5 2h-4z"/>
		<path id="Path 762" class="s57" d="m259 553l7-3 2 3-2 11h5l5 3 2 7h-6l-2 7-4-1-7-8v-11l-4-2v-5z"/>
		<path id="Path 763" class="s72" d="m330 551l2-1h1v4l5 2 1 2h-4l-1 4h-2l-3-7-6 1v-1z"/>
		<path id="Path 764" class="s37" d="m338 556l2-6h1 7l-3 8h-6z"/>
		<path id="Path 765" class="s67" d="m374 558l-7-2v-6h7l1 7z"/>
		<path id="Path 766" class="s68" d="m453 551l4-1 6 2 9-1h7l2 2v9l10 2 2 10-5 2-25 2-4 1-11-2v-3l1-22z"/>
		<path id="Path 767" class="s62" d="m463 552l8-2 1 1z"/>
		<path id="Path 768" class="s44" d="m697 556h6l7-6 8 3 3 5h6v4l-4 5-15-1-4-6h-9-1z"/>
		<path id="Path 769" class="s40" d="m813 576l-1-4-20-7-2-15 25 2v4h5l2 3v1l5 12v3z"/>
		<path id="Path 770" class="s85" d="m170 572l5-7v-5l-6-1 2-8 7 8v4l-1 13h-2-4z"/>
		<path id="Path 771" class="s54" d="m268 553l7-2-4 13h-5z"/>
		<path id="Path 772" class="s74" d="m299 553l3-1 3 8h5 1l1 13h-5v-1l-1-5-5-1h-2z"/>
		<path id="Path 773" class="s92" d="m302 552l7-1 2 3-1 6h-5z"/>
		<path id="Path 774" class="s56" d="m432 553l5-2 12 1-1 22h-5v-11l-10-2z"/>
		<path id="Path 775" class="s83" d="m481 553l3-2 7 1v12l-10-2z"/>
		<path id="Path 776" class="s69" d="m491 552h7l5 1v13l-2 8h-8l-2-10z"/>
		<path id="Path 777" class="s24" d="m93 564l7-9 7-2-6 6-4 4-2 1z"/>
		<path id="Path 778" class="s63" d="m191 553v-1h14l1 4-6 2-9-2z"/>
		<path id="Path 779" class="s86" d="m291 553v-1h4v1l-1 2z"/>
		<path id="Path 780" class="s78" d="m311 554l6-2 6 3v1 7l-12-3h-1z"/>
		<path id="Path 781" class="s66" d="m395 555l20-3h3l3 2 3-2h4l4 1 1 8v11l6 3v3l-3 1-12 2-3-1h-2l-2-11-2-5-7 2h-6l-5 1-6 3-1-14z"/>
		<path id="Path 782" class="s44" d="m509 554l2-2h1v2h-1z"/>
		<path id="Path 783" class="s49" d="m820 556h-5v-4h2l2 1z"/>
		<path id="Path 784" class="s5" d="m819 553v-1l3 7-2-3z"/>
		<path id="Path 785" class="s87" d="m289 554l2-1 3 2 1-2h4v13l-2 2-9-5z"/>
		<path id="Path 786" class="s17" d="m359 560l-2-7h6l-1 7z"/>
		<path id="Path 787" class="s56" d="m503 566v-13h2l4 1h2v10z"/>
		<path id="Path 788" class="s75" d="m512 554l21 2-1 5h-6l-7 6v5 3h-4-4-4l-6-1 2-8 8-2v-10z"/>
		<path id="Path 789" class="s68" d="m376 557l7-3-1 7h-4z"/>
		<path id="Path 790" class="s50" d="m382 561l1-7h6l1 2 1 14-1 1-7 2z"/>
		<path id="Path 791" class="s80" d="m613 556l2-2 3 2-5 2z"/>
		<path id="Path 792" class="s93" d="m635 563l2-9h4l4 6-3 3h-4z"/>
		<path id="Path 793" class="s40" d="m733 557l7-3h3l6 6v8h-4l-2-3-11-1v-2z"/>
		<path id="Path 794" class="s67" d="m323 556l6-1 3 7-6 2h-2l-1-1z"/>
		<path id="Path 795" class="s56" d="m533 556l4-1 8 2 4 4 2 15-21 1-6-1-5-4v-5l7-6h6z"/>
		<path id="Path 796" class="s16" d="m727 558l5-3 1 2-1 5h-5z"/>
		<path id="Path 797" class="s82" d="m189 566l2-10 9 2 6-2h8l2 1-5 15h-5-8l-1-5h-8z"/>
		<path id="Path 798" class="s68" d="m607 570l1-14h5v2 12z"/>
		<path id="Path 799" class="s87" d="m613 558l5-2h3l4 3v5l-3 7h-3l-6-1z"/>
		<path id="Path 800" class="s81" d="m211 572l5-15 7 1-3 11z"/>
		<path id="Path 801" class="s66" d="m374 558l1-1h1l2 4h4l1 12-7 1h-7l-2-13z"/>
		<path id="Path 802" class="s69" d="m334 562l1-4h4l-1 6z"/>
		<path id="Path 803" class="s77" d="m334 562l4 2 1-6h6l8 2h6 3l5 1 2 13v3l-14-2-28-3-1-8 6-2z"/>
		<path id="Path 804" class="s94" d="m653 560l6-2 8 2v11l-3 2-5 2h-3l-4 1 1-6z"/>
		<path id="Path 805" class="s85" d="m672 560l1-2h7l6 2-6 5h-7z"/>
		<path id="Path 806" class="s65" d="m97 563l4-4 5 2-1 4z"/>
		<path id="Path 807" class="s61" d="m245 562l5-2-2 5h-3z"/>
		<path id="Path 808" class="s66" d="m312 573l-1-13 12 3 1 1-3 8-7 1z"/>
		<path id="Path 809" class="s91" d="m642 563l3-3h8v10h-8z"/>
		<path id="Path 810" class="s89" d="m667 571v-11h5l1 5-1 5z"/>
		<path id="Path 811" class="s13" d="m680 565l6-5h8 1v8h-1-2-12z"/>
		<path id="Path 812" class="s16" d="m695 568v-8h9l4 6-2 7-3-1-5-2z"/>
		<path id="Path 813" class="s26" d="m749 568v-8l10 1 3 6-7 1z"/>
		<path id="Path 814" class="s14" d="m827 572l-5-12 4 4z"/>
		<path id="Path 815" class="s68" d="m439 578v-3l-6-3v-11l10 2v11 3l-3 1z"/>
		<path id="Path 816" class="s57" d="m238 574l3-12h4v3h3v2l-3 7z"/>
		<path id="Path 817" class="s9" d="m723 567l4-5h5v2l-4 5h-4z"/>
		<path id="Path 818" class="s83" d="m177 576l1-13 11 3v1 3l-2 6z"/>
		<path id="Path 819" class="s91" d="m276 567l12-4 9 5v6 1l-10 1-6-1-3-1z"/>
		<path id="Path 820" class="s72" d="m563 568l-2-5 6 1z"/>
		<path id="Path 821" class="s62" d="m572 564h7v4h-5z"/>
		<path id="Path 822" class="s91" d="m625 564l10-1h3l1 11 1 4-3 3-10-3-5-7z"/>
		<path id="Path 823" class="s94" d="m639 574l-1-11h4l3 7v4z"/>
		<path id="Path 824" class="s30" d="m91 567l2-3h2l-6 9h-1v-1-2l1-1z"/>
		<path id="Path 825" class="s56" d="m321 572l3-8h2l1 8z"/>
		<path id="Path 826" class="s19" d="m408 566l7-2 2 5-4 2h-4z"/>
		<path id="Path 827" class="s68" d="m563 568l4-4h5l2 4h5v1 10l4 2v7l3 3-9 6-14 1v-16z"/>
		<path id="Path 828" class="s80" d="m579 568v-4h9l-1 5h-8z"/>
		<path id="Path 829" class="s68" d="m587 569l1-5 10 3 2 5-6 7h-5z"/>
		<path id="Path 830" class="s23" d="m728 569l4-5 11 1 2 3-2 12h-12z"/>
		<path id="Path 831" class="s57" d="m672 570l1-5h7v3l-3 2z"/>
		<path id="Path 832" class="s75" d="m297 568l2-2h2l1 5v3h-5z"/>
		<path id="Path 833" class="s77" d="m302 571l-1-5 5 1 1 5z"/>
		<path id="Path 834" class="s67" d="m397 567l5-1 3 7h-1l-6-1z"/>
		<path id="Path 835" class="s80" d="m405 573l-3-7h6l1 5z"/>
		<path id="Path 836" class="s40" d="m706 573l2-7 15 1 1 2-5 5 1 6h-2-1l-5-3-3-2z"/>
		<path id="Path 837" class="s27" d="m189 570v-3h8l1 5-2 2h-5z"/>
		<path id="Path 838" class="s13" d="m245 574l3-7h4l3 5v10l-7 2-3-3z"/>
		<path id="Path 839" class="s92" d="m391 570l6-3 1 5 6 1-1 1-8 4 2 4v3h-8l-1-4 5-5-3-5z"/>
		<path id="Path 840" class="s15" d="m755 568l7-1h7l5 5 1 8-8 5h-3l-9-12z"/>
		<path id="Path 841" class="s6" d="m677 570l3-2h12z"/>
		<path id="Path 842" class="s6" d="m698 570l-4-2h1z"/>
		<path id="Path 843" class="s18" d="m743 580l2-12h4 6v5l9 12h3v10l-10 9-12-7-3-4 3-1z"/>
		<path id="Path 844" class="s37" d="m211 572l9-3 5 3v8l-13 9h-4l-2-17z"/>
		<path id="Path 845" class="s72" d="m413 571l4-2 2 11h-4z"/>
		<path id="Path 846" class="s56" d="m583 581l-4-2v-10h8l2 10z"/>
		<path id="Path 847" class="s17" d="m720 580l-1-6 5-5h4l3 11h12l2 12-3 1h-2l-5-3-2-2h-1z"/>
		<path id="Path 848" class="s78" d="m187 576l2-6 2 4v4h-4z"/>
		<path id="Path 849" class="s91" d="m600 572l7-2h6l6 1v9l-4 4v6l-7 10-5 2h-6v-5l-6-6h-5l-3-3v-7l6-2h5z"/>
		<path id="Path 850" class="s81" d="m645 574v-4h8l-1 6-4 1h-3z"/>
		<path id="Path 851" class="s11" d="m667 571l5-1-5 3h-3z"/>
		<path id="Path 852" class="s76" d="m297 574h5v-3l5 1v1 5 5l-4 3 3 8-6 14-3 1-4-5h-6l-4-12 4-6 9-3 1-8z"/>
		<path id="Path 853" class="s63" d="m383 573l7-2 3 5-5 5h-5l-2 4-7 1-1-8 3-4z"/>
		<path id="Path 854" class="s77" d="m405 573l4-2h4l2 9v1l-6 3-6-3v-7l1-1z"/>
		<path id="Path 855" class="s95" d="m619 580v-9h3l5 7v2z"/>
		<path id="Path 856" class="s35" d="m86 574l2-2v1z"/>
		<path id="Path 857" class="s78" d="m157 576l4-4h2l2 10-2 8h-8z"/>
		<path id="Path 858" class="s57" d="m165 582l-2-10h7l1 4-1 5z"/>
		<path id="Path 859" class="s57" d="m196 574l2-2h8l2 17-4 3h-12-8l-1-6 4-8h4 4z"/>
		<path id="Path 860" class="s79" d="m255 582v-10h4l7 8-3 12-8-2z"/>
		<path id="Path 861" class="s79" d="m314 573l7-1h6l28 3 2 13v6h-6l-5-14h-16l-3 3v9l-21 2-3-8 4-3v-5h6z"/>
		<path id="Path 862" class="s68" d="m519 575v-3l5 4-1 4h-3z"/>
		<path id="Path 863" class="s14" d="m709 575l-6-3 3 1z"/>
		<path id="Path 864" class="s24" d="m827 575v-3l7 10v5 1z"/>
		<path id="Path 865" class="s25" d="m86 574l2-1h1l-2 10z"/>
		<path id="Path 866" class="s78" d="m307 578v-5h5 2l-1 5z"/>
		<path id="Path 867" class="s2" d="m659 575l5-2h3z"/>
		<path id="Path 868" class="s35" d="m82 586l3-2 1-10 1 9-3 3h-1z"/>
		<path id="Path 869" class="s29" d="m191 578v-4h5l-1 4z"/>
		<path id="Path 870" class="s16" d="m236 580l2-6h7v7h-2z"/>
		<path id="Path 871" class="s63" d="m270 581l2-7h6l3 1v7l-5 2z"/>
		<path id="Path 872" class="s85" d="m369 577v-3h7l-3 4z"/>
		<path id="Path 873" class="s66" d="m397 582l-2-4 8-4v7z"/>
		<path id="Path 874" class="s66" d="m443 577v-3h5v3l-4 1z"/>
		<path id="Path 875" class="s37" d="m488 576l5-2h8l6 1v5l-12 1-4 1-3-1z"/>
		<path id="Path 876" class="s80" d="m640 578l-1-4h6v3 1z"/>
		<path id="Path 877" class="s67" d="m281 582v-7l6 1v6z"/>
		<path id="Path 878" class="s63" d="m287 576l10-1-1 8-9 3v-4z"/>
		<path id="Path 879" class="s92" d="m357 588l-2-13 14 2 4 1 1 8-3 4-6-2z"/>
		<path id="Path 880" class="s78" d="m507 580v-5h4v5l-1 1z"/>
		<path id="Path 881" class="s89" d="m511 580v-5h4v5z"/>
		<path id="Path 882" class="s57" d="m515 580v-5h4l1 5z"/>
		<path id="Path 883" class="s2" d="m652 576l4-1-7 2h-1z"/>
		<path id="Path 884" class="s14" d="m711 577l-2-2 3 2z"/>
		<path id="Path 885" class="s26" d="m813 576l14-1 7 13 3 8v1l1 5v6l-8 4-1 8h-8-6v-5l-7-7h-7l-2-13-14-9v-6l28 11 1 10 8 2 3-9-4-4h-6z"/>
		<path id="Path 886" class="s67" d="m133 578l15 1 5-3h4l-2 14-21 4z"/>
		<path id="Path 887" class="s71" d="m170 581l1-5h4v12h-4z"/>
		<path id="Path 888" class="s87" d="m175 588v-12h2 10v2l-4 8 1 6-3 2z"/>
		<path id="Path 889" class="s57" d="m463 578l25-2v5l-3 2h-6l-11 1-3-1z"/>
		<path id="Path 890" class="s57" d="m523 580l1-4 6 1v4z"/>
		<path id="Path 891" class="s85" d="m530 577l21-1 5 1v4h-5-21z"/>
		<path id="Path 892" class="s27" d="m118 581l3-4h12v1l1 16-1 1h-6l-7-3-1 6h-8l-4-6v-6l8-5 2 2z"/>
		<path id="Path 893" class="s67" d="m440 578l3-1 1 1v7h-5z"/>
		<path id="Path 894" class="s78" d="m444 578l4-1 11 2v4l-8 1-7 1z"/>
		<path id="Path 895" class="s5" d="m645 578v-1h3 1l-4 2z"/>
		<path id="Path 896" class="s2" d="m717 580l-6-3h1z"/>
		<path id="Path 897" class="s19" d="m436 579l3-1h1l-1 7h-3z"/>
		<path id="Path 898" class="s63" d="m459 579l4-1 2 5h-6z"/>
		<path id="Path 899" class="s31" d="m627 580v-2l10 3h7l4 1 1 1-4 8v9h-4l-16-10z"/>
		<path id="Path 900" class="s35" d="m637 581l3-3h5v1l-2 1h2l-1 1z"/>
		<path id="Path 901" class="s78" d="m424 581l12-2v6h-13v-3z"/>
		<path id="Path 902" class="s57" d="m212 589l13-9 8 1-2 9-6 3-12-1z"/>
		<path id="Path 903" class="s52" d="m233 581l3-1 7 1-1 7-5 9v9l-2 1-2-3h-8v-11l6-3z"/>
		<path id="Path 904" class="s88" d="m263 592l3-12 4 1 6 3 7 8 4 12 2 7-2 7-6-5h-6v-10l-5-5h-7z"/>
		<path id="Path 905" class="s92" d="m327 592v-9l3-3h16l5 14v4h-18z"/>
		<path id="Path 906" class="s67" d="m415 581v-1h4 2l2 2v3l-1 3h-3z"/>
		<path id="Path 907" class="s80" d="m423 582l-2-2 3 1z"/>
		<path id="Path 908" class="s69" d="m495 581l12-1 3 1 5 12v9h-1-10l-6-6-3-11z"/>
		<path id="Path 909" class="s56" d="m510 581l1-1h4 5 3l7 1h21l2 18v7h-10l-7-10-17-2-4-1z"/>
		<path id="Path 910" class="s57" d="m615 590v-6l4-4h8l-2 10z"/>
		<path id="Path 911" class="s5" d="m644 581l1-1 4 2h-1z"/>
		<path id="Path 912" class="s1" d="m732 588l-6-1-8-7h2z"/>
		<path id="Path 913" class="s10" d="m767 585l8-5h10v6l14 9 2 13-2 12-2 7v1l-3-1-5-2-4-2-8-4-14-9-6-6 10-9z"/>
		<path id="Path 914" class="s13" d="m118 581l-1 2-2-2z"/>
		<path id="Path 915" class="s85" d="m165 582l5-1 1 7-2 11h-4l-2-9z"/>
		<path id="Path 916" class="s29" d="m242 588l1-7h2l3 3-1 4z"/>
		<path id="Path 917" class="s84" d="m381 585l2-4h5l1 4h8v7h-11z"/>
		<path id="Path 918" class="s81" d="m397 582l6-1 6 3v8l-5 4-7-4v-7z"/>
		<path id="Path 919" class="s57" d="m409 584l6-3 4 7-2 6 2 6-6 4h-5v-6l1-6z"/>
		<path id="Path 920" class="s74" d="m485 583l3-2 3 1 4 3 3 11 6 6v3h-5l-10 1-11 2-4-1-1-7 8-9 4-1z"/>
		<path id="Path 921" class="s68" d="m491 582l4-1v4z"/>
		<path id="Path 922" class="s69" d="m553 599l-2-18h5l7 1v16l-3 1z"/>
		<path id="Path 923" class="s92" d="m248 584l7-2v8l8 2v6l-1 2-9-2-2 9-4-3v-16z"/>
		<path id="Path 924" class="s29" d="m276 584l5-2h6v4l-4 6z"/>
		<path id="Path 925" class="s8" d="m649 583l-1-1h1l8 2z"/>
		<path id="Path 926" class="s85" d="m84 586l3-3 2 2z"/>
		<path id="Path 927" class="s77" d="m451 584l8-1h6l3 1-3 6-14-1z"/>
		<path id="Path 928" class="s56" d="m468 584l11-1 2 8-8 9-8-10z"/>
		<path id="Path 929" class="s68" d="m481 591l-2-8h6v7z"/>
		<path id="Path 930" class="s16" d="m645 600v-9l4-8 8 1 1 9-1 4-4 9z"/>
		<path id="Path 931" class="s88" d="m444 585l7-1v5l-10 9-16-4-3-6 1-3h13 3z"/>
		<path id="Path 932" class="s34" d="m658 593l-1-9h4l-2 9z"/>
		<path id="Path 933" class="s29" d="m84 586l5-1 2 1 2 4h4l10 2 4 6-7 8h-1l-6-3-1-1-3-2-7-5-3-3v-1-5z"/>
		<path id="Path 934" class="s95" d="m374 586l7-1 5 7h11l7 4 4 2v6l-9 6h-9l-2 4-8 4-3-3-2-15h-24v-2-4h6l8-1h5l1-3z"/>
		<path id="Path 935" class="s30" d="m81 590v-4h1 1v5z"/>
		<path id="Path 936" class="s67" d="m97 590h-4l-2-4h6z"/>
		<path id="Path 937" class="s63" d="m97 590v-4h10v6z"/>
		<path id="Path 938" class="s0" d="m834 588v-1l3 9z"/>
		<path id="Path 939" class="s75" d="m169 599l2-11h4l6 6v10l-12-2z"/>
		<path id="Path 940" class="s37" d="m237 606v-9l5-9h5v16l-4 4z"/>
		<path id="Path 941" class="s76" d="m357 594v-6h8v5z"/>
		<path id="Path 942" class="s63" d="m365 593v-5l6 2-1 3z"/>
		<path id="Path 943" class="s77" d="m419 600l-2-6 2-6h3l3 6v7z"/>
		<path id="Path 944" class="s1" d="m734 590l-1-2 2 2z"/>
		<path id="Path 945" class="s89" d="m204 592l4-3h4l1 3-1 14-6 6h-5l-2-11 5-2z"/>
		<path id="Path 946" class="s68" d="m441 598l10-9 14 1 8 10 1 7-3 5-4 5-20-1v-4l-6-7z"/>
		<path id="Path 947" class="s1" d="m81 592v-2l2 1v1z"/>
		<path id="Path 948" class="s37" d="m134 594l21-4h8l2 9-2 1h-8l-4 8h-6l-4-5-8-1v-7z"/>
		<path id="Path 949" class="s16" d="m608 600l7-10h10l16 10v9l3 3h7l1 9h-8l-11-7-1-7-7-1-12-2z"/>
		<path id="Path 950" class="s24" d="m740 595l-6-5h1l5 3z"/>
		<path id="Path 951" class="s15" d="m813 591l2-1h6l4 4-3 9-8-2z"/>
		<path id="Path 952" class="s88" d="m577 597l9-6h5l6 6v5l-16 7-4-5z"/>
		<path id="Path 953" class="s1" d="m86 595h-3v-3z"/>
		<path id="Path 954" class="s19" d="m119 598l1-6 7 3-1 3z"/>
		<path id="Path 955" class="s80" d="m181 594l3-2h8v6l7 3 2 11-4 4h-5l-2-4h-7-1l-1-8z"/>
		<path id="Path 956" class="s81" d="m199 601l-7-3v-6h12v7z"/>
		<path id="Path 957" class="s80" d="m212 606l1-14 12 1v11l-2 2z"/>
		<path id="Path 958" class="s95" d="m306 594l21-2 6 6v4h-7l-1 6-20 2-5-2z"/>
		<path id="Path 959" class="s78" d="m404 596l5-4-1 6z"/>
		<path id="Path 960" class="s75" d="m515 602v-9l4 1-1 8z"/>
		<path id="Path 961" class="s2" d="m657 597l1-4h1z"/>
		<path id="Path 962" class="s6" d="m740 595v-2h2l3 4h-1z"/>
		<path id="Path 963" class="s66" d="m425 601v-7l16 4v7l-2 7-6 1-5-3v-8z"/>
		<path id="Path 964" class="s83" d="m518 602l1-8 17 2 7 10-3 13-7 1-10-1v-9l-4-1z"/>
		<path id="Path 965" class="s1" d="m93 600l-5-1-2-4z"/>
		<path id="Path 966" class="s57" d="m126 598l1-3h6v7l8 1 4 5v6l-2 7h-1l-4-1h-4l-4-2z"/>
		<path id="Path 967" class="s91" d="m563 598l14-1v7l4 5-6 6-8 1v-8l-7-9z"/>
		<path id="Path 968" class="s2" d="m653 606l4-9-3 10 2 22-3-3v-2-15z"/>
		<path id="Path 969" class="s11" d="m763 610l-9-3-10-10h1l12 7z"/>
		<path id="Path 970" class="s22" d="m838 602l-1-5 2 5z"/>
		<path id="Path 971" class="s37" d="m104 606l7-8h8 7l4 20-7-1h-1l-4-2h-1l-6-3h-1l-2-2z"/>
		<path id="Path 972" class="s66" d="m251 607l2-9 9 2 1-2h7l5 5v10l-4 3-5-4-5 2-1 12 3 2v6h-5l-6-8z"/>
		<path id="Path 973" class="s94" d="m333 602v-4h18v2 10l-18-2z"/>
		<path id="Path 974" class="s62" d="m163 600l2-1h4v3 8h-6z"/>
		<path id="Path 975" class="s77" d="m553 606v-7h7l7 9v8l-2 4h-4l-2-2-1-8z"/>
		<path id="Path 976" class="s1" d="m94 602l-1-2 3 2z"/>
		<path id="Path 977" class="s57" d="m151 608l4-8h8v10l-2 6h-8l-2-2z"/>
		<path id="Path 978" class="s91" d="m351 610v-10h24l2 15 3 3v2h-9-9l-5-9z"/>
		<path id="Path 979" class="s68" d="m413 604l6-4 6 1 3 1v8l5 3 2 5-4 1-7-7-8-1z"/>
		<path id="Path 980" class="s37" d="m603 602l5-2 5 4v13h-8l-3-3z"/>
		<path id="Path 981" class="s45" d="m651 612h-7l-3-3v-9h4l8 6v3z"/>
		<path id="Path 982" class="s4" d="m97 604l-3-2h2l1 1z"/>
		<path id="Path 983" class="s88" d="m169 610v-8l12 2 1 8z"/>
		<path id="Path 984" class="s91" d="m325 608l1-6h7v6z"/>
		<path id="Path 985" class="s93" d="m504 605v-3h10v6h-9z"/>
		<path id="Path 986" class="s91" d="m514 608v-6h1 3l1 7h-4z"/>
		<path id="Path 987" class="s81" d="m581 609l16-7h6l-1 12-3 1-9-1-5 6v6l-4 1v3h-12v-7l6-3v-5z"/>
		<path id="Path 988" class="s34" d="m838 608v-6h1l3 15v1h-1z"/>
		<path id="Path 989" class="s2" d="m97 604v-1l6 3v1z"/>
		<path id="Path 990" class="s47" d="m223 606l2-2h8l2 3v5l-3 2v6h-5l-4-1z"/>
		<path id="Path 991" class="s72" d="m243 608l4-4 4 3 1 19-11-5v-9z"/>
		<path id="Path 992" class="s79" d="m289 611l-2-7h6l4 5v3z"/>
		<path id="Path 993" class="s71" d="m399 610l9-6h5l3 7 8 1 7 7v12l-2 3h-7l-2 4h-19v-6l4-5v-8l-6-5z"/>
		<path id="Path 994" class="s13" d="m613 617v-13l12 2 1 7 7 1 11 7h8l1 3v2 4l-2 4-18-5-2-5h-7l-6-4h-5z"/>
		<path id="Path 995" class="s94" d="m439 612l2-7 6 7z"/>
		<path id="Path 996" class="s88" d="m489 606l10-1v7h-4-6z"/>
		<path id="Path 997" class="s75" d="m499 612v-7h5l1 3h9l1 1v6l5 5-3 6h-14v-9z"/>
		<path id="Path 998" class="s11" d="m103 607v-1h1l4 4h-4z"/>
		<path id="Path 999" class="s85" d="m201 612h5l6-6h11v13l-3 6-5 2 1 17-8-1-9-3h-3l-1-2 3-7-11-3v-6l5-1v-5h5z"/>
		<path id="Path 1000" class="s57" d="m235 607l2-1 6 2-2 4h-6z"/>
		<path id="Path 1001" class="s77" d="m478 608l11-2v6l-10 1z"/>
		<path id="Path 1002" class="s93" d="m540 619l3-13h10l5 4 1 8-14 2z"/>
		<path id="Path 1003" class="s31" d="m633 614l-7-1-1-7 7 1z"/>
		<path id="Path 1004" class="s94" d="m471 612l3-5 4 1 1 5v1z"/>
		<path id="Path 1005" class="s80" d="m145 614v-6h6v6z"/>
		<path id="Path 1006" class="s94" d="m297 609l3-1 5 2v3l-6-1h-2z"/>
		<path id="Path 1007" class="s96" d="m305 610l20-2h8l18 2 6 1 5 9h9v15l10 7-1 4h-23l4-12-11-2-2-3-11-1-6-6h-12l-13-3-1-1v-5z"/>
		<path id="Path 1008" class="s18" d="m799 620l2-12h7l7 7v5l-3 3z"/>
		<path id="Path 1009" class="s18" d="m829 620l1-8 8-4 3 10-2 15-9-5z"/>
		<path id="Path 1010" class="s74" d="m520 620l-5-5v-6h4l4 1v9z"/>
		<path id="Path 1011" class="s56" d="m651 612l2-3v15l-1-3z"/>
		<path id="Path 1012" class="s89" d="m161 616l2-6h6l13 2h1v8l4 2v6l-2 7h-1-2l-4-3-5-3-9-4-1-1z"/>
		<path id="Path 1013" class="s75" d="m388 614l2-4h9v4l6 5v8l-4 5h-6l-2-10-3-1z"/>
		<path id="Path 1014" class="s11" d="m771 618l-8-8 14 9v1h-2l-1-1z"/>
		<path id="Path 1015" class="s2" d="m774 619h1v1h-1z"/>
		<path id="Path 1016" class="s56" d="m287 618l2-7 8 1h2v6l-4 6h-4z"/>
		<path id="Path 1017" class="s84" d="m187 622l-4-2v-8h7l2 4v5z"/>
		<path id="Path 1018" class="s62" d="m232 620v-6l3-2h6v9l-6 1z"/>
		<path id="Path 1019" class="s86" d="m263 634v-6l-3-2 1-12 5-2 5 4 6 15v5h-12z"/>
		<path id="Path 1020" class="s87" d="m299 618v-6l6 1v5z"/>
		<path id="Path 1021" class="s96" d="m433 613l6-1h8v4l-12 2z"/>
		<path id="Path 1022" class="s75" d="m467 617l4-5 8 2-1 8-9 2z"/>
		<path id="Path 1023" class="s69" d="m479 613l10-1h6v14l-8 2h-9v-6l1-8z"/>
		<path id="Path 1024" class="s83" d="m495 626v-14h4l4 5v9z"/>
		<path id="Path 1025" class="s69" d="m271 616l4-3h6l6 5 4 6h4l2 10-20-3z"/>
		<path id="Path 1026" class="s37" d="m143 621l2-7h6l2 2-1 6z"/>
		<path id="Path 1027" class="s96" d="m380 618l8-4 2 7-4 1-6-2z"/>
		<path id="Path 1028" class="s57" d="m585 626v-6l5-6 9 1v7 2l-13 3z"/>
		<path id="Path 1029" class="s29" d="m599 615l3-1 3 3v5h-6z"/>
		<path id="Path 1030" class="s95" d="m567 616l8-1v5l-6 3-4-3z"/>
		<path id="Path 1031" class="s81" d="m152 622l1-6h8l2 8h-4l-5-1z"/>
		<path id="Path 1032" class="s87" d="m435 618l12-2 20 1 2 7 9-2v6h-21l-10 6h-6l-10-3v-12z"/>
		<path id="Path 1033" class="s2" d="m134 620l-11-3 7 1z"/>
		<path id="Path 1034" class="s38" d="m605 622v-5h8v3 6h-6z"/>
		<path id="Path 1035" class="s0" d="m842 618v-1l2 15h-2z"/>
		<path id="Path 1036" class="s74" d="m295 624l4-6h6l1 1 1 17-8 2-2-4z"/>
		<path id="Path 1037" class="s91" d="m545 620l14-2 2 2-2 7-1 4-5 3-3-6h-5z"/>
		<path id="Path 1038" class="s77" d="m839 633l2-15h1v14l-1 3h-2z"/>
		<path id="Path 1039" class="s50" d="m220 625l3-6 4 1-1 5-4 1z"/>
		<path id="Path 1040" class="s75" d="m299 638l8-2-1-17 13 3 6 20v2h-5l-4 6h-13l-4-3z"/>
		<path id="Path 1041" class="s93" d="m520 620l3-1 10 1v13l-10 1h-6v-8z"/>
		<path id="Path 1042" class="s96" d="m533 620l7-1 5 1v8l-4 6h-6l-2-1z"/>
		<path id="Path 1043" class="s30" d="m777 620v-1l8 4-4-1z"/>
		<path id="Path 1044" class="s11" d="m142 622l-4-2 4 1z"/>
		<path id="Path 1045" class="s85" d="m226 625l1-5h5l3 2v4h-8z"/>
		<path id="Path 1046" class="s93" d="m381 642l-10-7v-15h9l6 2v7l7 5v6l-4 2z"/>
		<path id="Path 1047" class="s92" d="m559 627l2-7h4l4 3v7h-5z"/>
		<path id="Path 1048" class="s40" d="m613 626v-6h5l1 8 14 1 18 5 6 10v16 1h-18v-8-5l-11-6-4-6h-11z"/>
		<path id="Path 1049" class="s49" d="m633 629l-14-1-1-8 6 4h7z"/>
		<path id="Path 1050" class="s23" d="m797 627l2-7 13 3 3-3h6v16h-3l-4-1-4-2-5-2z"/>
		<path id="Path 1051" class="s17" d="m821 636v-16h8l1 8 9 5v2l-3 3h-1-9-2z"/>
		<path id="Path 1052" class="s21" d="m142 622v-1h1l9 1 2 1v1z"/>
		<path id="Path 1053" class="s77" d="m235 622l6-1 11 5 6 8h5l2 2v12h-4l-6-4-16-2v-12l-4-4z"/>
		<path id="Path 1054" class="s87" d="m386 622l4-1 3 1 2 10-2 2-7-5z"/>
		<path id="Path 1055" class="s83" d="m325 642l-6-20h12l6 6v14z"/>
		<path id="Path 1056" class="s63" d="m599 624v-2h6l2 4h6v10h-14z"/>
		<path id="Path 1057" class="s14" d="m789 625l-8-3 4 1z"/>
		<path id="Path 1058" class="s5" d="m154 624v-1l5 1v1z"/>
		<path id="Path 1059" class="s60" d="m159 625v-1h4l1 1z"/>
		<path id="Path 1060" class="s19" d="m586 627l13-3v12h-6l-7-5z"/>
		<path id="Path 1061" class="s52" d="m216 644l-1-17 5-2 2 1-1 5 4 2 1 15-3-1-7-2z"/>
		<path id="Path 1062" class="s57" d="m222 626l4-1 1 1-2 7-4-2z"/>
		<path id="Path 1063" class="s14" d="m793 627l-4-2 5 2z"/>
		<path id="Path 1064" class="s89" d="m225 633l2-7h8l4 4v12l-1 8h-5l-7-2z"/>
		<path id="Path 1065" class="s96" d="m487 628l8-2h8 14v8l-26 3-4-2z"/>
		<path id="Path 1066" class="s37" d="m581 630v-3l4-1 1 1v4z"/>
		<path id="Path 1067" class="s55" d="m653 630v-4l3 3 1 3v1z"/>
		<path id="Path 1068" class="s81" d="m558 631l1-4 5 3-1 1z"/>
		<path id="Path 1069" class="s0" d="m799 630l-6-3h1l3 1z"/>
		<path id="Path 1070" class="s7" d="m797 628v-1l8 4-1 1-5-2z"/>
		<path id="Path 1071" class="s62" d="m185 635l2-7 11 3-3 7-6-1h-1z"/>
		<path id="Path 1072" class="s75" d="m337 642v-14l11 1 2 3-3 10z"/>
		<path id="Path 1073" class="s91" d="m447 634l10-6h21 9v7l4 2v7l-10 1h-10l-11 1h-7v-5l-6-3z"/>
		<path id="Path 1074" class="s77" d="m541 634l4-6h5l3 6v1l-5 1-2 4h-5z"/>
		<path id="Path 1075" class="s0" d="m178 632h-4l-1-3z"/>
		<path id="Path 1076" class="s67" d="m563 631l1-1h5 12l5 1 7 5v10h-13l-4-6h-9-2z"/>
		<path id="Path 1077" class="s31" d="m651 634l2-4 4 3 3 4 3 6v3l-6-2z"/>
		<path id="Path 1078" class="s83" d="m277 636v-5l20 3 2 4v9l-9 1-3-9z"/>
		<path id="Path 1079" class="s91" d="m420 638l2-4h7l2-3 10 3v4 8h-14z"/>
		<path id="Path 1080" class="s76" d="m553 634l5-3h5l2 9-3 2h-8l-1-2v-5z"/>
		<path id="Path 1081" class="s1" d="m804 632l1-1 5 2 4 2z"/>
		<path id="Path 1082" class="s87" d="m347 642l3-10 11 2-4 12h-7z"/>
		<path id="Path 1083" class="s96" d="m393 634l2-2h6v6l-8 2z"/>
		<path id="Path 1084" class="s1" d="m657 633v-1l3 4v1z"/>
		<path id="Path 1085" class="s89" d="m523 634l10-1 2 1v6l-12-1z"/>
		<path id="Path 1086" class="s96" d="m441 638v-4h6v4h-2z"/>
		<path id="Path 1087" class="s85" d="m491 637l26-3h6v5l-7 2 6 10-6-5-3-2-14-1-8 1z"/>
		<path id="Path 1088" class="s85" d="m535 640v-6h6v6l-3 1z"/>
		<path id="Path 1089" class="s0" d="m188 637l-4-2h1z"/>
		<path id="Path 1090" class="s93" d="m265 636h12l10 3 3 9h-17-8z"/>
		<path id="Path 1091" class="s78" d="m546 640l2-4 5-1v5z"/>
		<path id="Path 1092" class="s1" d="m818 637l-4-2 4 1z"/>
		<path id="Path 1093" class="s77" d="m836 638l3-3v2z"/>
		<path id="Path 1094" class="s35" d="m839 637v-2h2z"/>
		<path id="Path 1095" class="s17" d="m593 646v-10h6 14 11l4 6-11 10v9h-3l-10-2-1-1-1-6z"/>
		<path id="Path 1096" class="s0" d="m660 637v-1l9 13-6-6z"/>
		<path id="Path 1097" class="s35" d="m818 637v-1h3l3 2z"/>
		<path id="Path 1098" class="s35" d="m196 640l-7-3 6 1z"/>
		<path id="Path 1099" class="s35" d="m836 638l3-1-4 3v-2z"/>
		<path id="Path 1100" class="s72" d="m393 640l8-2h19l7 8-2 4h-8l-16-2-12-2v-4z"/>
		<path id="Path 1101" class="s94" d="m441 646v-8h4v8h-1z"/>
		<path id="Path 1102" class="s95" d="m445 646v-8h2l6 3v5z"/>
		<path id="Path 1103" class="s6" d="m835 640l-9-2h9z"/>
		<path id="Path 1104" class="s12" d="m522 651l-6-10 7-2 12 1 3 1 1 13h-4l-6 1z"/>
		<path id="Path 1105" class="s5" d="m208 644l-9-4 9 3z"/>
		<path id="Path 1106" class="s19" d="m538 641l3-1h5 7l1 2-1 8-2 4h-12z"/>
		<path id="Path 1107" class="s78" d="m562 642l3-2h2v6l-4-1-1-1z"/>
		<path id="Path 1108" class="s60" d="m562 644h1v1h-1z"/>
		<path id="Path 1109" class="s82" d="m567 646v-6h9l4 6v3l-8-1-4-1z"/>
		<path id="Path 1110" class="s85" d="m238 650l1-8 16 2 6 4-1 6-8-1-6-1z"/>
		<path id="Path 1111" class="s88" d="m325 644v-2h12 10l3 4-5 3-10 4-10-3z"/>
		<path id="Path 1112" class="s91" d="m380 646l1-4h8v4l-5 2z"/>
		<path id="Path 1113" class="s34" d="m499 643l14 1h-14z"/>
		<path id="Path 1114" class="s29" d="m553 650l1-8h8v2 1 1 3 3z"/>
		<path id="Path 1115" class="s60" d="m561 645h1v1h-1z"/>
		<path id="Path 1116" class="s20" d="m617 661v-9l11-10 11 6v5l-4 1-2 7h-1z"/>
		<path id="Path 1117" class="s1" d="m208 644v-1l8 1v1z"/>
		<path id="Path 1118" class="s5" d="m491 644l8-1v1l-18 1z"/>
		<path id="Path 1119" class="s45" d="m663 646v-3l6 6 3 4v1 1h-1z"/>
		<path id="Path 1120" class="s96" d="m316 650l4-6h5v6l-2 2z"/>
		<path id="Path 1121" class="s26" d="m657 660v-16l6 2 8 9v4l-5 1z"/>
		<path id="Path 1122" class="s35" d="m460 646l11-1-11 2z"/>
		<path id="Path 1123" class="s60" d="m568 647l-5-2 4 1z"/>
		<path id="Path 1124" class="s79" d="m345 649l5-3h7 23l4 2 1 4v8l-6 1-12-5h-11l-3 3v13l-10-2z"/>
		<path id="Path 1125" class="s85" d="m384 648l5-2 12 2v6h-6l-10-2z"/>
		<path id="Path 1126" class="s36" d="m425 650l2-4h14 3v1l-17 2 2 3v2z"/>
		<path id="Path 1127" class="s39" d="m444 647v-1h1 8 7v1z"/>
		<path id="Path 1128" class="s5" d="m523 654l-7-8 6 5z"/>
		<path id="Path 1129" class="s63" d="m580 649v-3h13l9 6 1 6-12-3h-1l-5-2-4-2z"/>
		<path id="Path 1130" class="s2" d="m233 650l-10-3 3 1z"/>
		<path id="Path 1131" class="s85" d="m290 648l9-1 4 3v6h-7-20-3v-8z"/>
		<path id="Path 1132" class="s35" d="m574 650l-6-3 4 1z"/>
		<path id="Path 1133" class="s80" d="m260 654l1-6h4 8v8h-4l-5-1h-4z"/>
		<path id="Path 1134" class="s62" d="m401 654v-6l16 2-2 36h-10l-4-24z"/>
		<path id="Path 1135" class="s33" d="m574 650l-2-2 8 1 1 2-4 1z"/>
		<path id="Path 1136" class="s92" d="m335 653l10-4-2 21h-4l-4-6z"/>
		<path id="Path 1137" class="s8" d="m562 652v-3l2 6-2 2-2 2-1-1z"/>
		<path id="Path 1138" class="s72" d="m303 656v-6h13l7 2-2 11-3-1-2-2h-3l-7-2h-1z"/>
		<path id="Path 1139" class="s91" d="m323 652l2-2 10 3v11l4 6 1 6-2-1h-1l-4-3h-4l-7-7-1-2z"/>
		<path id="Path 1140" class="s32" d="m415 686l2-36h8l4 4 4 4-1 11 8-1 2 4v5l-12 6-5 2h-1l-5 2h-2-1z"/>
		<path id="Path 1141" class="s10" d="m551 654l2-4 9 2-3 6h-5-1z"/>
		<path id="Path 1142" class="s25" d="m523 654l-1-3 7 4v2h-1-4z"/>
		<path id="Path 1143" class="s1" d="m577 652l4-1 4 2v1z"/>
		<path id="Path 1144" class="s24" d="m252 654l-6-2 6 1z"/>
		<path id="Path 1145" class="s57" d="m385 660v-8l10 2v8h-4z"/>
		<path id="Path 1146" class="s6" d="m429 654v-2l8 7v1l-4-2z"/>
		<path id="Path 1147" class="s5" d="m252 654v-1l8 1v1z"/>
		<path id="Path 1148" class="s57" d="m529 655l6-1v4h-3l-3-1z"/>
		<path id="Path 1149" class="s14" d="m585 654v-1l5 2z"/>
		<path id="Path 1150" class="s10" d="m633 661l2-7 4-1v8z"/>
		<path id="Path 1151" class="s81" d="m395 662v-8h6v8h-4z"/>
		<path id="Path 1152" class="s37" d="m535 658v-4h4 12l2 4h-17z"/>
		<path id="Path 1153" class="s0" d="m672 655v-1l1 6v-1z"/>
		<path id="Path 1154" class="s0" d="m269 657l-5-2 5 1z"/>
		<path id="Path 1155" class="s14" d="m604 660l-13-5 12 3 1 1z"/>
		<path id="Path 1156" class="s68" d="m671 659v-4h1l1 4z"/>
		<path id="Path 1157" class="s14" d="m269 657v-1h4 3v1z"/>
		<path id="Path 1158" class="s60" d="m276 657v-1h20v1z"/>
		<path id="Path 1159" class="s36" d="m296 657v-1h7l2 2z"/>
		<path id="Path 1160" class="s76" d="m353 672v-13l3-3h11l12 5 2 13v6h-4l-14-2z"/>
		<path id="Path 1161" class="s59" d="m306 659l-10-2 9 1h1z"/>
		<path id="Path 1162" class="s59" d="m532 659l-4-2h1l3 1z"/>
		<path id="Path 1163" class="s35" d="m306 659v-1l7 2z"/>
		<path id="Path 1164" class="s16" d="m440 668l-8 1 1-11 4 2z"/>
		<path id="Path 1165" class="s39" d="m532 659v-1h3 1v1z"/>
		<path id="Path 1166" class="s3" d="m536 659v-1h17 1z"/>
		<path id="Path 1167" class="s21" d="m437 660v-1l4 2 1 11-2-4z"/>
		<path id="Path 1168" class="s34" d="m604 660v-1l10 2z"/>
		<path id="Path 1169" class="s11" d="m666 660l5-1h2v1l-7 2z"/>
		<path id="Path 1170" class="s78" d="m379 661l6-1 6 2-3 12h-7z"/>
		<path id="Path 1171" class="s7" d="m657 661v-1h9v2h-9z"/>
		<path id="Path 1172" class="s34" d="m657 662l-25-1h1 6 18z"/>
		<path id="Path 1173" class="s0" d="m322 665l-4-3 3 1z"/>
		<path id="Path 1174" class="s37" d="m388 674l3-12h4 2l2 24-8 1-2 4-5 1-3-2v-10h6z"/>
		<path id="Path 1175" class="s57" d="m399 686l-2-24h4l4 24h-4z"/>
		<path id="Path 1176" class="s80" d="m340 676l-1-6h4l10 2 10 6 14 2v10h-1-1l-7-3-5-2h-2l-8-3-6-2-6-3z"/>
		<path id="Path 1177" class="s19" d="m381 680v-6h7l-1 6z"/>
		<path id="Path 1178" class="s59" d="m341 677l-3-2 2 1z"/>
		<path id="Path 1179" class="s24" d="m430 683l12-6-3 5-9 2z"/>
		<path id="Path 1180" class="s57" d="m377 690v-10h4v10h-2z"/>
		<path id="Path 1181" class="s0" d="m425 685l5-2v1z"/>
		<path id="Path 1182" class="s3" d="m391 687l8-1h2v2h-8z"/>
		<path id="Path 1183" class="s36" d="m401 688v-2h4 10l1 1z"/>
		<path id="Path 1184" class="s5" d="m389 691l2-4 2 1v1l-4 3z"/>
		<path id="Path 1185" class="s59" d="m401 688l15-1h1l-24 2v-1z"/>
		<path id="Path 1186" class="s22" d="m379 692l-3-2h1 2z"/>
		<path id="Path 1187" class="s30" d="m379 692v-2h2l3 2h-1z"/>
		<path id="Path 1188" class="s1" d="m384 692l5-1v1 2h-6v-2z"/>
	</g>
</svg>