<svg version="1.2" xmlns="http://www.w3.org/2000/svg" viewBox="0 0 1000 1000" width="1000" height="1000">
	<title>Morone_chrysops-svg</title>
	<style>
		.s0 { opacity: .1;fill: #e7ebee } 
		.s1 { opacity: .3;fill: #dcdee2 } 
		.s2 { opacity: .5;fill: #ecf3f7 } 
		.s3 { opacity: .9;fill: #70717b } 
		.s4 { fill: #707c88 } 
		.s5 { fill: #1f232e } 
		.s6 { opacity: .9;fill: #b4b8c2 } 
		.s7 { opacity: .2;fill: #c0c3cb } 
		.s8 { opacity: .4;fill: #d8dadf } 
		.s9 { opacity: .6;fill: #8b929e } 
		.s10 { fill: #7a7d74 } 
		.s11 { fill: #6d859c } 
		.s12 { fill: #4c5867 } 
		.s13 { fill: #262b37 } 
		.s14 { fill: #403e4a } 
		.s15 { fill: #2f3949 } 
		.s16 { opacity: .6;fill: #d0d4dc } 
		.s17 { fill: #2a3343 } 
		.s18 { opacity: .2;fill: #848690 } 
		.s19 { fill: #5c6a7a } 
		.s20 { opacity: .4;fill: #6e7079 } 
		.s21 { fill: #748695 } 
		.s22 { opacity: .1;fill: #a4a7b1 } 
		.s23 { opacity: .3;fill: #ecf3f8 } 
		.s24 { fill: #484146 } 
		.s25 { opacity: .4;fill: #b8bac4 } 
		.s26 { fill: #617793 } 
		.s27 { fill: #454e5c } 
		.s28 { fill: #62717f } 
		.s29 { opacity: .1;fill: #4e4d56 } 
		.s30 { opacity: .7;fill: #adb2bb } 
		.s31 { fill: #605d69 } 
		.s32 { opacity: .8;fill: #5b5c64 } 
		.s33 { opacity: .4;fill: #a2a4ad } 
		.s34 { fill: #53575f } 
		.s35 { fill: #667887 } 
		.s36 { fill: #556171 } 
		.s37 { fill: #3b4d64 } 
		.s38 { opacity: .2;fill: #706e75 } 
		.s39 { opacity: .1;fill: #c3cad3 } 
		.s40 { fill: #566c86 } 
		.s41 { opacity: .8;fill: #8c8e98 } 
		.s42 { fill: #374658 } 
		.s43 { fill: #334152 } 
		.s44 { fill: #42536b } 
		.s45 { fill: #5a4e62 } 
		.s46 { fill: #475972 } 
		.s47 { fill: #4c4b55 } 
		.s48 { fill: #403338 } 
		.s49 { fill: #6d6d70 } 
		.s50 { opacity: .4;fill: #888a93 } 
		.s51 { fill: #4e6179 } 
		.s52 { fill: #d7e7f1 } 
		.s53 { opacity: .8;fill: #d0d5dc } 
		.s54 { fill: #373940 } 
		.s55 { fill: #53474e } 
		.s56 { fill: #808689 } 
		.s57 { fill: #8b9496 } 
		.s58 { opacity: .5;fill: #555967 } 
		.s59 { fill: #8192a1 } 
		.s60 { fill: #849cb3 } 
		.s61 { fill: #91abbf } 
		.s62 { fill: #8ca0ad } 
		.s63 { fill: #9db9d5 } 
		.s64 { fill: #738fac } 
		.s65 { fill: #9ab4c9 } 
		.s66 { fill: #7992a9 } 
		.s67 { fill: #6984a6 } 
		.s68 { fill: #a5bed8 } 
		.s69 { opacity: .4;fill: #474751 } 
		.s70 { opacity: .3;fill: #5a5c63 } 
		.s71 { fill: #93b1d1 } 
		.s72 { fill: #89a5bd } 
		.s73 { fill: #7a98ba } 
		.s74 { fill: #b4cce2 } 
		.s75 { fill: #abbecd } 
		.s76 { fill: #acc5de } 
		.s77 { fill: #bed4e6 } 
		.s78 { fill: #81a0c6 } 
		.s79 { fill: #b5c5d3 } 
		.s80 { fill: #8aaaca } 
		.s81 { fill: #a0b4c3 } 
		.s82 { fill: #97aab8 } 
		.s83 { fill: #6c8ab9 } 
		.s84 { fill: #a9b4bb } 
		.s85 { fill: #c6d3de } 
		.s86 { fill: #64665d } 
		.s87 { fill: #cbddec } 
		.s88 { fill: #baccdb } 
		.s89 { fill: #ddedf8 } 
		.s90 { fill: #edf7fb } 
		.s91 { opacity: .3;fill: #2e323c } 
		.s92 { fill: #989fa2 } 
		.s93 { fill: #898987 } 
		.s94 { fill: #9ea7ab } 
		.s95 { opacity: .5;fill: #35353f } 
		.s96 { opacity: .7;fill: #6f717c } 
		.s97 { opacity: .8;fill: #474750 } 
	</style>
	<g id="Background">
		<path id="Path 3" class="s0" d="m923 560l3 3-3 1z"/>
		<path id="Path 4" class="s1" d="m411 316h1v1h-1z"/>
		<path id="Path 6" class="s2" d="m413 315v-3h8l-1 6v-4z"/>
		<path id="Path 7" class="s3" d="m413 315l7-1v4l-1 4-1 7-2-9-3 1-2-2v-2l1-1z"/>
		<path id="Path 8" class="s1" d="m408 321l3-4v2l-2 2z"/>
		<path id="Path 9" class="s4" d="m409 321l2-2 2 2-4 8-2 1-2-3z"/>
		<path id="Path 10" class="s5" d="m413 321l3-1 2 9 1 3h-1l-9-3z"/>
		<path id="Path 11" class="s6" d="m402 326l6-5h1l-4 6h-3z"/>
		<path id="Path 12" class="s7" d="m432 322l5-1-3 9 2-7h-4z"/>
		<path id="Path 13" class="s8" d="m391 324l3-2-2 5z"/>
		<path id="Path 14" class="s9" d="m418 329l1-7v8l9-4v2l-4 4h-5z"/>
		<path id="Path 15" class="s8" d="m428 326l1-4h3v1z"/>
		<path id="Path 16" class="s10" d="m428 326l4-3h4l-2 7v5l-3-3-3-4z"/>
		<path id="Path 17" class="s4" d="m386 326l5-2 1 3v4l-4 4-1 1h-2l1-6h-3v-1z"/>
		<path id="Path 18" class="s7" d="m394 334l8-8v1l-7 7z"/>
		<path id="Path 19" class="s11" d="m395 334l7-7h3l2 3-2 3-5 4-5-2z"/>
		<path id="Path 20" class="s12" d="m419 332h5l4-4 3 4-8 6-5-2v-4z"/>
		<path id="Path 21" class="s8" d="m378 335l5-6v1z"/>
		<path id="Path 22" class="s13" d="m407 330l2-1 9 3v4l-4 4-3 1-6-8z"/>
		<path id="Path 23" class="s14" d="m378 335l5-5h3l-1 6v1l-3 2-5-1v-2z"/>
		<path id="Path 24" class="s0" d="m388 335l4-4-1 4z"/>
		<path id="Path 25" class="s15" d="m423 338l8-6 3 3v1l1 2 3 6-12 7-7-7z"/>
		<path id="Path 26" class="s16" d="m441 337l2-5h8l-2 13 1-10-6-1z"/>
		<path id="Path 27" class="s17" d="m400 337l5-4 6 8-4 7-9 2z"/>
		<path id="Path 28" class="s18" d="m390 337l4-3h1v1l-5 3z"/>
		<path id="Path 29" class="s4" d="m441 337l3-3 6 1-1 10h-1v-7l-5 3-2-3z"/>
		<path id="Path 30" class="s19" d="m390 338l5-3 5 2-2 13 9-2 3 3-5 11-6 3-8-7h-8l-3-4 4-7-2-8 3-2v1l-1 4h3z"/>
		<path id="Path 31" class="s20" d="m372 340l5-4v2l-3 3h-2z"/>
		<path id="Path 32" class="s18" d="m385 337v-1h2l-1 2h-1z"/>
		<path id="Path 33" class="s21" d="m414 340l4-4 5 2-4 6-2 1z"/>
		<path id="Path 34" class="s22" d="m435 338l-1-2 7 1v1z"/>
		<path id="Path 35" class="s23" d="m386 338l4-1v1l-3 4h-3l1-4z"/>
		<path id="Path 36" class="s24" d="m374 341l3-3 5 1 2 8-4 7h-2l-4-6z"/>
		<path id="Path 37" class="s19" d="m438 344l-3-6h6l2 3-4 5z"/>
		<path id="Path 38" class="s5" d="m443 341l5-3v7 2l2 5v5l-4 2-2-3-11-2 6-8z"/>
		<path id="Path 39" class="s25" d="m358 350l14-10v1l-6 5-8 5z"/>
		<path id="Path 40" class="s26" d="m411 341l3-1 3 5-7 6-3-3z"/>
		<path id="Path 41" class="s27" d="m366 346l6-5h2v7h-8z"/>
		<path id="Path 42" class="s17" d="m417 345l2-1 7 7-2 4-14 12-5-5 5-11z"/>
		<path id="Path 43" class="s28" d="m426 351l12-7 1 2-6 8-5 3-4-2z"/>
		<path id="Path 44" class="s29" d="m582 346l11-1v1z"/>
		<path id="Path 45" class="s30" d="m593 346v-1l2 3h-2z"/>
		<path id="Path 46" class="s31" d="m358 351l8-5v2l-4 6-5-1z"/>
		<path id="Path 47" class="s32" d="m581 348l1-2h11v2z"/>
		<path id="Path 48" class="s33" d="m450 352l-2-5h3l1 5z"/>
		<path id="Path 49" class="s34" d="m357 353l5 1 4-6h8l4 6-13 23-5 3-8-7h-8v-2l4-4 4-6 1-2v-1l3-4v-1z"/>
		<path id="Path 50" class="s13" d="m578 349l2-1h1 12 2v1l9 17 2 10v14h-2l-18-2-3-12-5-2z"/>
		<path id="Path 51" class="s17" d="m566 354l10-5h2v25l5 2 3 12 2 14 12 5v11l-13 2-5-4v-7l-4-3v-6l-5-6-7-2-2-7-6-3-2-6-10-3v-3h-4v-9l2-2 3-1h13z"/>
		<path id="Path 52" class="s30" d="m604 366l-9-17 11 13 6 15-2-1z"/>
		<path id="Path 53" class="s1" d="m356 353l2-3v1l-1 2z"/>
		<path id="Path 54" class="s33" d="m453 352l6-1-1 10 4 8-6-9 2-8z"/>
		<path id="Path 55" class="s35" d="m450 357v-5h2 1 5l-2 8-4-1z"/>
		<path id="Path 56" class="s36" d="m360 380l5-3 13-23h2l3 4h8l8 7 1 6 4 2 3 13-1 5 4 3-1 5 7 5 4 11 2 13-2 2-8-4v-7l-8-3-1-9-17 1-3-2 2-6-5 2-13-1 1-6-8-4z"/>
		<path id="Path 57" class="s37" d="m428 357l5-3 11 2 2 3-2 7h3l5 14-2 10v6l-1 4h-5l-3-5-3 1 1 3h-2-3v-3l-2-7v-6l6-3v-9l-10-6z"/>
		<path id="Path 58" class="s38" d="m547 357l19-3-6 4h-13z"/>
		<path id="Path 59" class="s39" d="m859 356l13-2v2z"/>
		<path id="Path 60" class="s30" d="m872 356v-2h20v3l-18-1z"/>
		<path id="Path 61" class="s40" d="m410 367l14-12 4 2v8l-4 1-1 10-9 5-7-8z"/>
		<path id="Path 62" class="s41" d="m858 357l1-1h13 2l-2 2-12 2-6 2-4 1 4-4z"/>
		<path id="Path 63" class="s42" d="m872 358l2-2 18 1v5l-2 9-2 2h-3l-7-9h-6z"/>
		<path id="Path 64" class="s19" d="m446 359l4-2 2 2-5 7h-3z"/>
		<path id="Path 65" class="s18" d="m544 359l3-2v1z"/>
		<path id="Path 66" class="s43" d="m860 360l12-2v6l-12 4z"/>
		<path id="Path 67" class="s7" d="m351 361l2-2-1 2z"/>
		<path id="Path 68" class="s42" d="m447 366l5-7 4 1 6 9h1l3 1 4 3v7l-9-1-9 1z"/>
		<path id="Path 69" class="s18" d="m533 365l1-3 10-3-2 2z"/>
		<path id="Path 70" class="s1" d="m846 364l8-5-4 4z"/>
		<path id="Path 71" class="s17" d="m854 362l6-2v8h-4z"/>
		<path id="Path 72" class="s9" d="m348 365l3-4h1l-4 6z"/>
		<path id="Path 73" class="s36" d="m533 365l9-4v9l-2 5h-15l-1-3z"/>
		<path id="Path 74" class="s43" d="m399 365l6-3 5 5-3 6h-3l-4-2z"/>
		<path id="Path 75" class="s44" d="m850 363l4-1 2 6 4 22h-2-10v-4l-6-6-1-12 5-4z"/>
		<path id="Path 76" class="s16" d="m890 371l2-9 2 8-2 1z"/>
		<path id="Path 77" class="s25" d="m463 369l13-5v4l-4 2 2-4-8 4z"/>
		<path id="Path 78" class="s7" d="m831 372l5-5 10-3-5 4z"/>
		<path id="Path 79" class="s37" d="m860 368l12-4h6l7 9h3l-1 2-10 6-8 3-1 4-8 2-4-22z"/>
		<path id="Path 80" class="s8" d="m344 371v-4l4-2v2z"/>
		<path id="Path 81" class="s44" d="m423 376l1-10 4-1 10 6v9l-6 3-8-3z"/>
		<path id="Path 82" class="s9" d="m518 374l15-9-9 7z"/>
		<path id="Path 83" class="s10" d="m466 370l8-4-2 4v2l-2 1z"/>
		<path id="Path 84" class="s45" d="m606 376l-2-10 6 10z"/>
		<path id="Path 85" class="s45" d="m831 372l10-4 1 12-6 1v11l-14 2-5-10 2-3z"/>
		<path id="Path 86" class="s43" d="m540 375l2-5h4v3z"/>
		<path id="Path 87" class="s30" d="m338 379l1-5 5-3v2l-5 6z"/>
		<path id="Path 88" class="s22" d="m888 373l2-2h2l-5 4z"/>
		<path id="Path 89" class="s6" d="m470 373l2-1v8h-2z"/>
		<path id="Path 90" class="s46" d="m518 374l6-2 1 3h15l6-2 10 3 2 6 6 3 2 7-2 12h-4-8l-4-4-19-4h-18l-9-6 1-1 5-5 5-5z"/>
		<path id="Path 91" class="s25" d="m819 380l12-8-12 9z"/>
		<path id="Path 92" class="s47" d="m339 379l5-6h8l8 7v11l8 4-1 6 13 1v4h3l3 2v10h-10l-6 1h-5l2-8-5-13-6 4-10-3-4-7v-10z"/>
		<path id="Path 93" class="s19" d="m407 386l-3-13h3l7 8v5h-2z"/>
		<path id="Path 94" class="s39" d="m331 378l4-3 2 4z"/>
		<path id="Path 95" class="s16" d="m486 377l2-2 1 3h-3z"/>
		<path id="Path 96" class="s16" d="m877 381l10-6-3 5h-3l-3 1z"/>
		<path id="Path 97" class="s37" d="m414 381l9-5 1 4-4 6h-6z"/>
		<path id="Path 98" class="s48" d="m606 390v-14h4l2 1 3 7-3 6z"/>
		<path id="Path 99" class="s49" d="m331 378l6 1-2 7h-5v-1l1-5z"/>
		<path id="Path 100" class="s50" d="m483 379l3-2v1z"/>
		<path id="Path 101" class="s8" d="m615 384l-3-7 4 2 1 6z"/>
		<path id="Path 102" class="s26" d="m452 380l9-1-3 9-8 2z"/>
		<path id="Path 103" class="s11" d="m483 379l3-1h3l-1 2-4 7-3 2-3-6v-1l4-3z"/>
		<path id="Path 104" class="s34" d="m335 386l2-7h1 1l3 3v10h-6z"/>
		<path id="Path 105" class="s37" d="m458 388l3-9 9 1h2l6 3 3 6-2 4h-7l-3-5z"/>
		<path id="Path 106" class="s39" d="m329 385l2-5-1 5z"/>
		<path id="Path 107" class="s36" d="m420 386l4-6 8 3v6l-4 3h-4z"/>
		<path id="Path 108" class="s17" d="m484 387l4-7 1 2v3z"/>
		<path id="Path 109" class="s33" d="m810 386l9-6v1l-2 3-5 3z"/>
		<path id="Path 110" class="s36" d="m836 392v-11l6-1 6 6v4l-3 4-9 1z"/>
		<path id="Path 111" class="s8" d="m878 381l3-1 2 2 1-2h4v1l-6 3-4 1v-1-2z"/>
		<path id="Path 112" class="s51" d="m884 380l-1 2-2-2z"/>
		<path id="Path 113" class="s0" d="m888 381v-1l3 1v9h-1z"/>
		<path id="Path 114" class="s25" d="m868 388l1-4 8-3h1v1 2 1z"/>
		<path id="Path 115" class="s51" d="m882 384l6-3v9l-2-6z"/>
		<path id="Path 116" class="s52" d="m888 390v-9l2 9z"/>
		<path id="Path 117" class="s16" d="m489 385v-3l7 7-4-1z"/>
		<path id="Path 118" class="s45" d="m612 390l3-6 2 1 2 4 1 3 2 3 5 11 2 4v2h-7l-1-8-3-2-6-7z"/>
		<path id="Path 119" class="s31" d="m812 387l5-3 5 10-10 9v11l-2 4h-7l-4 5-7 1v-9l-8-2-3-2 1-2h1l3-3 7-5 15-11z"/>
		<path id="Path 120" class="s17" d="m878 385l4-1h4l2 6 2 8-2 8-1 3-7 7h-2l-12-4-8 6h-6l2-18 3-1 1-9h2l8-2z"/>
		<path id="Path 121" class="s38" d="m329 391v-6h1v1z"/>
		<path id="Path 122" class="s13" d="m484 387l5-2 3 3v8l-2 3-18-2v-4h7l2-4z"/>
		<path id="Path 123" class="s19" d="m329 391l1-5h5l1 6-8 1v-1z"/>
		<path id="Path 124" class="s15" d="m410 394l-4-3 1-5h5v8z"/>
		<path id="Path 125" class="s27" d="m412 394v-8h2 6l4 6v4l-5 1 4 8 2 5-1 3-4 2-4-11-1-8z"/>
		<path id="Path 126" class="s53" d="m808 389l2-3 2 1-4 3z"/>
		<path id="Path 127" class="s17" d="m450 390l8-2h11l3 5v4l-6 3-4-4-6 2-6-2z"/>
		<path id="Path 128" class="s5" d="m492 396v-8l4 1h4l2 1 9 6-1 5-11-2z"/>
		<path id="Path 129" class="s5" d="m600 407l-12-5-2-14 18 2v14z"/>
		<path id="Path 130" class="s17" d="m428 392l4-3 2 7h-6z"/>
		<path id="Path 131" class="s20" d="m502 390l-2-1h3z"/>
		<path id="Path 132" class="s22" d="m620 392l-1-3 2 3z"/>
		<path id="Path 133" class="s16" d="m793 400l15-11v1l-15 11z"/>
		<path id="Path 134" class="s54" d="m604 404v-14h2 6v5l6 7-6 2z"/>
		<path id="Path 135" class="s54" d="m845 394l3-4h10l-1 9-3 1z"/>
		<path id="Path 136" class="s30" d="m890 398l-2-8h2 1l1 8z"/>
		<path id="Path 137" class="s25" d="m321 397l7-5v1l-6 5h-1z"/>
		<path id="Path 138" class="s27" d="m328 393l8-1h6l4 7v6h-4l-4-3-2 4-7-2-4 4-3-3v-7z"/>
		<path id="Path 139" class="s14" d="m424 396v-4h4v4l-2 2z"/>
		<path id="Path 140" class="s37" d="m564 404l2-12 7 2 5 6v6z"/>
		<path id="Path 141" class="s8" d="m622 395l-2-3h1z"/>
		<path id="Path 142" class="s55" d="m822 394l14-2v3l-1 4-13 7-6 8h-4v-11z"/>
		<path id="Path 143" class="s35" d="m416 404l-7-5 1-5h2l3 2z"/>
		<path id="Path 144" class="s48" d="m836 395l9-1 9 6-2 18-5 6-1 10-1 2-24 4-4-4-1-22 6-8 13-7z"/>
		<path id="Path 145" class="s49" d="m439 399l-1-3 3-1 3 5h-1z"/>
		<path id="Path 146" class="s56" d="m423 405l-4-8 5-1 2 2z"/>
		<path id="Path 147" class="s31" d="m426 398l2-2h6v3l-2 5h2v5l-2 1h-7l-2-5z"/>
		<path id="Path 148" class="s31" d="m449 400l1-4 6 2 6-2 4 4v7l-2 3h-12z"/>
		<path id="Path 149" class="s14" d="m490 399l2-3 7 3v3h-1l-8-1z"/>
		<path id="Path 150" class="s17" d="m510 401l1-5h18l19 4 4 4v6l-10-1-13-2-5-1-13-2h-1z"/>
		<path id="Path 151" class="s18" d="m316 399l5-2v1z"/>
		<path id="Path 152" class="s34" d="m466 400l6-3 18 2v2l-9 11h-11l-4-5z"/>
		<path id="Path 153" class="s5" d="m316 399l5-1h1v7l-14 3v-5l1-1 1-1h1l4-2z"/>
		<path id="Path 154" class="s21" d="m346 399l10 3 6-4 5 13-2 8h5v5 5h-1l-5-1-6-8v-10l-12-5z"/>
		<path id="Path 155" class="s18" d="m888 406l2-8h2l-3 8z"/>
		<path id="Path 156" class="s57" d="m434 404h-2l2-5h3z"/>
		<path id="Path 157" class="s36" d="m434 404l3-5h2l4 1 2 9-1 5h-6v-4l-4-1z"/>
		<path id="Path 158" class="s47" d="m499 402v-3l11 2v3l-2 2-6-1z"/>
		<path id="Path 159" class="s58" d="m305 401h5l-1 1z"/>
		<path id="Path 160" class="s59" d="m380 402l5-2-2 6h-3z"/>
		<path id="Path 161" class="s27" d="m445 409l-2-9h1 5l3 10z"/>
		<path id="Path 162" class="s9" d="m786 405l7-5v1l-7 5z"/>
		<path id="Path 163" class="s3" d="m294 406l11-5 4 1-1 1z"/>
		<path id="Path 164" class="s40" d="m481 412l9-11 8 1 1 5-1 5h-5l-3 4h-7z"/>
		<path id="Path 165" class="s26" d="m336 406l2-4 4 3z"/>
		<path id="Path 166" class="s60" d="m499 407l-1-5h1l3 3z"/>
		<path id="Path 167" class="s14" d="m612 404l6-2 3 2 1 8 2 14 2 17-4 3-8-5-8-9 2-13 4-2z"/>
		<path id="Path 168" class="s48" d="m294 406l14-3v5l-3 4-5 1-9-3 1-4z"/>
		<path id="Path 169" class="s11" d="m325 408l4-4 7 2 6-1h4l12 5v10l6 8v5l5-4h1l10 5h6v4 6l-3 6 4 1 2-3 6 1 3 8 9 6 2 7v2l-3 1-10-1-10 1v12l4 7-6 4h-7l-1-5-12-1-5-12-9-2-4-1-1-5-9 2-4-2-1-6 5-6-2-6v-8l-8-4-2-4z"/>
		<path id="Path 170" class="s61" d="m508 406l2-2h1l-2 4z"/>
		<path id="Path 171" class="s40" d="m509 408l2-4 13 2 3 3v11l-1 10h-10l-3-11-6-4z"/>
		<path id="Path 172" class="s14" d="m552 410v-6h8l3 10 14 8v9l-9-2-2-6-5-1z"/>
		<path id="Path 173" class="s54" d="m577 431v-9l-14-8-3-10h4l14 2 4 3v7l5 4 13-2 8 1-2 13 8 9-5 2-2-4h-7l-1-4-5 4-12-3v-4l-4-1z"/>
		<path id="Path 174" class="s13" d="m600 407l4-3h8v13l-4 2-8-1z"/>
		<path id="Path 175" class="s7" d="m284 409l4-4 4 1-4 2z"/>
		<path id="Path 176" class="s40" d="m308 408l14-3 3 3-1 28-7-3-12-21z"/>
		<path id="Path 177" class="s51" d="m499 407l3-2 6 1 1 2-2 7h-7l-2-3z"/>
		<path id="Path 178" class="s35" d="m524 406l5 1-2 2z"/>
		<path id="Path 179" class="s20" d="m783 409l3-4v1z"/>
		<path id="Path 180" class="s19" d="m288 408l4-2-1 4h-1z"/>
		<path id="Path 181" class="s27" d="m386 408l17-1 1 9-6 2-7 1-5-1z"/>
		<path id="Path 182" class="s39" d="m887 409l1-3h1z"/>
		<path id="Path 183" class="s26" d="m452 410h12l2-3 4 5h11l2 4h7l3-4h5l2 3v10l5 4-3 10-2 9v5l-4 1-6 3-9-3-2 5-3-1-3-4-2 6-2 1-3 1v6l-1 1-21 1-8-2-4 2h-14-9l-2-7-9-6-3-8 3-2-1-10 3-3h4l2 8 14 1 2-2-2-11 2-2-2-13 4-2 8 3h4l7 4 1-6 1-5z"/>
		<path id="Path 184" class="s46" d="m461 424l9 1 1 3-10 1z"/>
		<path id="Path 185" class="s44" d="m527 409l2-2 13 2v9l-7 6-4 2-4-6z"/>
		<path id="Path 186" class="s35" d="m284 409l4-1 2 2v7l-4 3h-6l-1-6v-2z"/>
		<path id="Path 187" class="s7" d="m278 412l6-3-5 3z"/>
		<path id="Path 188" class="s19" d="m432 410l2-1 4 1v4l-2 2h-4z"/>
		<path id="Path 189" class="s12" d="m542 418v-9l10 1 9 12-1 6-5-2-3 2-10-5z"/>
		<path id="Path 190" class="s7" d="m776 414l6-5-1 2z"/>
		<path id="Path 191" class="s1" d="m880 416l7-7-7 8z"/>
		<path id="Path 192" class="s28" d="m290 417v-7h1l9 3v2l-4 5h-4z"/>
		<path id="Path 193" class="s36" d="m424 413l1-3h7v6z"/>
		<path id="Path 194" class="s7" d="m629 412v-2l2 4h-1z"/>
		<path id="Path 195" class="s45" d="m776 414l5-3 3 2-8 11-5-1 1-5z"/>
		<path id="Path 196" class="s1" d="m274 414l3-2v1z"/>
		<path id="Path 197" class="s41" d="m277 413v-1h1 1v2h-2z"/>
		<path id="Path 198" class="s51" d="m300 413l5-1 12 21 7 3 2 4v12 10h-3l-13 1v-6l2-5-5-2-2-16-5-1v-4l3-3-3-11z"/>
		<path id="Path 199" class="s55" d="m624 426l-2-14h7l1 2 1 5-1 5z"/>
		<path id="Path 200" class="s43" d="m858 418l8-6 12 4-4 4-3 2-6 3h-1l-3 1-3-2z"/>
		<path id="Path 201" class="s62" d="m274 414l3-1v1l-1 4h-5-2z"/>
		<path id="Path 202" class="s36" d="m776 424l8-11 8 2v9l-1 6-13 4z"/>
		<path id="Path 203" class="s1" d="m258 422l16-8-5 4-7 3-3 1z"/>
		<path id="Path 204" class="s19" d="m276 418l1-4h2l1 6h-4z"/>
		<path id="Path 205" class="s51" d="m436 416l2-2h6l-1 6z"/>
		<path id="Path 206" class="s11" d="m500 415h7l6 4 3 11 3 6h10l17 4 2 3v5l6 5-2 5 5 4v4l-3 2-4-3-7 1-1-4-3 1-13-1-3-3-3-3h-8l-4-2v-4l-4-2-2-9 3-10-5-4z"/>
		<path id="Path 207" class="s16" d="m631 419l-1-5h1l3 8z"/>
		<path id="Path 208" class="s1" d="m768 420l8-6-4 4-4 3z"/>
		<path id="Path 209" class="s24" d="m810 418l2-4h4l1 22 4 4-4 9-5 2v9l4 4v10l-2 4-10 3v5l4 4v4l-2 8-16 2v-8l-6-5v-15-29l9-9 15 2 2-2 2-3z"/>
		<path id="Path 210" class="s60" d="m296 420l4-5 3 11-3 3z"/>
		<path id="Path 211" class="s40" d="m398 418l6-2 8 3v7l-8 8h-4v-2z"/>
		<path id="Path 212" class="s22" d="m874 420l4-4h2v1z"/>
		<path id="Path 213" class="s63" d="m286 420l4-3 2 3-2 3h-4z"/>
		<path id="Path 214" class="s26" d="m262 421l7-3h2l3 5 1 7 7 8-1 6 5 7v2l-3 7h-5v-11l-10-7v-4l-5-3z"/>
		<path id="Path 215" class="s40" d="m274 423l-3-5h5v2 3z"/>
		<path id="Path 216" class="s19" d="m370 419l6-1v6h-6z"/>
		<path id="Path 217" class="s26" d="m376 424v-6h10l5 1-3 9h-8z"/>
		<path id="Path 218" class="s28" d="m391 419l7-1 2 14h-4l-8-2v-2z"/>
		<path id="Path 219" class="s64" d="m535 424l7-6v5z"/>
		<path id="Path 220" class="s49" d="m768 421l4-3-1 5-5 3h-3z"/>
		<path id="Path 221" class="s55" d="m792 424l7-1 4-5h7l2 17-2 3-2 2-15-2-9 9v29h-9l-2-10-5-3v-13-9l10-7 13-4z"/>
		<path id="Path 222" class="s14" d="m846 434l1-10 5-6h6v6l3 2-1 4v1l-3 2z"/>
		<path id="Path 223" class="s31" d="m630 424l1-5 3 3v2z"/>
		<path id="Path 224" class="s65" d="m276 423v-3h4l-1 4z"/>
		<path id="Path 225" class="s11" d="m276 423l3 1 1-4h6v3h4l2 13-3 2h-3-4l-7-8-1-7z"/>
		<path id="Path 226" class="s26" d="m290 423l2-3h4l4 9v4l-1 3h-7z"/>
		<path id="Path 227" class="s11" d="m526 430l1-10 4 6-1 4z"/>
		<path id="Path 228" class="s7" d="m756 428l12-8v1l-5 5-4 2z"/>
		<path id="Path 229" class="s66" d="m259 422l3-1 1 14-1 1-12-2-7-1z"/>
		<path id="Path 230" class="s16" d="m236 435l12-10 10-3h1l-16 11-7 3z"/>
		<path id="Path 231" class="s28" d="m560 428l1-6 5 1 2 6v13h-6v-6z"/>
		<path id="Path 232" class="s7" d="m634 424v-2l3 6z"/>
		<path id="Path 233" class="s22" d="m865 425l6-3-5 3z"/>
		<path id="Path 234" class="s35" d="m535 424l7-1 10 5 4 8v6 1h-8l-2-3-17-4 1-6 1-4z"/>
		<path id="Path 235" class="s12" d="m766 426l5-3 5 1 2 10-10 7v9h-7l-5-5v-7l10-8z"/>
		<path id="Path 236" class="s51" d="m370 429v-5h6l4 4v6z"/>
		<path id="Path 237" class="s45" d="m624 426l6-2h4l3 4v1l2 4v1l3 7 1 3 13 4h1l-1 9h-11l-5-2-3-8-11-4z"/>
		<path id="Path 238" class="s35" d="m861 426l3-1-2 4-2 1z"/>
		<path id="Path 239" class="s0" d="m862 429l2-4h1 1z"/>
		<path id="Path 240" class="s11" d="m404 434l8-8 8 4 2 11-2 2-14-1z"/>
		<path id="Path 241" class="s26" d="m552 428l3-2 5 2 2 8h-6z"/>
		<path id="Path 242" class="s45" d="m759 428l4-2h3v4l-10 8-6-1z"/>
		<path id="Path 243" class="s37" d="m369 429l-5 4v-5z"/>
		<path id="Path 244" class="s19" d="m380 434v-6h8v2l-2 4z"/>
		<path id="Path 245" class="s16" d="m744 439l12-11h3l-9 9z"/>
		<path id="Path 246" class="s46" d="m568 442v-13l9 2h1l1 6-1 5z"/>
		<path id="Path 247" class="s30" d="m860 430l2-1v3l7 2h-4l-5-3z"/>
		<path id="Path 248" class="s64" d="m386 434l2-4 8 2v5l-6 1h-4z"/>
		<path id="Path 249" class="s44" d="m529 436h-10l-3-6h10 4z"/>
		<path id="Path 250" class="s35" d="m579 437l-1-6 4 1v4z"/>
		<path id="Path 251" class="s35" d="m857 433l3-2 5 3-7 3z"/>
		<path id="Path 252" class="s67" d="m396 437v-5h4v2l-3 3z"/>
		<path id="Path 253" class="s46" d="m236 436l7-3 7 1v8l-5 4h-6l-5 8-6-3v-8l3-4z"/>
		<path id="Path 254" class="s35" d="m299 436l1-3 5 1 2 16 5 2-2 5h-4v-6l-6-4z"/>
		<path id="Path 255" class="s49" d="m846 434l11-1 1 4-1 3h-10l-2-4z"/>
		<path id="Path 256" class="s51" d="m250 442v-8l12 2v5 10l6 5v7l-4 2v4l-2 19-3 2-7 2-1-4-5-2v-11l-4-4v-5l-6-5-2-7 5-8h6l1 2v4h4l-1-4z"/>
		<path id="Path 257" class="s44" d="m858 437l7-3h4 5v1 13l-10 1v-4l-7-3v-2z"/>
		<path id="Path 258" class="s58" d="m874 435v-1h10l2 3-2 13h-1v-2-13z"/>
		<path id="Path 259" class="s39" d="m231 439l5-4v1z"/>
		<path id="Path 260" class="s19" d="m262 436l1-1 5 3v4l-6-1z"/>
		<path id="Path 261" class="s51" d="m594 439l5-4 1 4h7l2 4 5-2 8 5 2 6-1 4h-5l-1-2-7 2v-4h-6l-10-5z"/>
		<path id="Path 262" class="s37" d="m874 448v-13h9v13z"/>
		<path id="Path 263" class="s60" d="m289 438l3-2h7l1 11h-5l-2-5h-4z"/>
		<path id="Path 264" class="s40" d="m556 442v-6h6v6z"/>
		<path id="Path 265" class="s40" d="m579 437l3-1 12 3v8l-13-1-3-4z"/>
		<path id="Path 266" class="s55" d="m821 440l24-4 2 4h10v2l-1 11 6 7v8 6l-2 4-15 1-11 5h-8l-2-6 5-6 8-5-2-7-19 4-4-4v-9l5-2z"/>
		<path id="Path 267" class="s40" d="m390 438l6-1h1l1 10-3 2-6-1-1-4z"/>
		<path id="Path 268" class="s14" d="m744 439l6-2 6 1v7l-5 6-4 1v3h-6l-1-1-1-10z"/>
		<path id="Path 269" class="s64" d="m281 444l1-6h4v6z"/>
		<path id="Path 270" class="s35" d="m286 444v-6h3v4l-1 2z"/>
		<path id="Path 271" class="s66" d="m386 444v-6h4l-2 6z"/>
		<path id="Path 272" class="s16" d="m216 449l2-4 13-6-3 4-12 7z"/>
		<path id="Path 273" class="s66" d="m500 448l2-9 2 9z"/>
		<path id="Path 274" class="s25" d="m738 444l6-5-5 5z"/>
		<path id="Path 275" class="s36" d="m326 452v-12l8 4v8z"/>
		<path id="Path 276" class="s11" d="m268 463v-7l-6-5v-10l6 1 10 7v11l-2 2-6 1z"/>
		<path id="Path 277" class="s21" d="m245 446l5-4-1 6h-3z"/>
		<path id="Path 278" class="s28" d="m288 444l1-2h4l2 5h5l6 4v6l-2 3h-12l-2-6-4-1v-2z"/>
		<path id="Path 279" class="s11" d="m556 443v-1h6 6 10l3 4-1 12h-10l-10-2-2-3z"/>
		<path id="Path 280" class="s47" d="m862 460l-6-7 1-11 7 3v4 11z"/>
		<path id="Path 281" class="s40" d="m216 450l12-7v8l6 3 2 7 6 5v5l-18 3h-4v-9l-12-3v-4l2-3z"/>
		<path id="Path 282" class="s64" d="m554 453l-6-5v-5h8l2 10z"/>
		<path id="Path 283" class="s34" d="m622 446l4-3 11 4 3 8-16-3z"/>
		<path id="Path 284" class="s68" d="m286 451l-5-7h5 2z"/>
		<path id="Path 285" class="s46" d="m389 448l-2 3-4-1 3-6h2z"/>
		<path id="Path 286" class="s22" d="m656 448l-13-4 13 3z"/>
		<path id="Path 287" class="s54" d="m731 449l6-5h1 1l1 10h-9l-1-3z"/>
		<path id="Path 288" class="s36" d="m751 451l5-6 5 5h7v13l-3 2-5-1v-5l-8-3z"/>
		<path id="Path 289" class="s66" d="m580 458l1-12 13 1 10 5 2 8v4h-6l-4-2z"/>
		<path id="Path 290" class="s18" d="m656 448v-1l6 2-5-1z"/>
		<path id="Path 291" class="s36" d="m249 448l1 4h-4v-4z"/>
		<path id="Path 292" class="s51" d="m500 453v-5h4l4 2v4h-4z"/>
		<path id="Path 293" class="s24" d="m656 457l1-9 5 1h3l4 2 3 1v4l-1 2z"/>
		<path id="Path 294" class="s51" d="m864 449l10-1h9v2l-1 4-1 1-2 2-1 4-14-1z"/>
		<path id="Path 295" class="s30" d="m210 454l6-5v1l-6 5z"/>
		<path id="Path 296" class="s18" d="m669 451l-4-2 4 1z"/>
		<path id="Path 297" class="s33" d="m728 451l3-2-1 2z"/>
		<path id="Path 298" class="s69" d="m669 451v-1l8 2h-5z"/>
		<path id="Path 299" class="s9" d="m708 454l15-4v2l-5 1z"/>
		<path id="Path 300" class="s20" d="m723 452v-2l3 1-2 1z"/>
		<path id="Path 301" class="s70" d="m882 454l1-4h1z"/>
		<path id="Path 302" class="s43" d="m724 452l2-1h2 2l1 3-1 3-5 1-1-1z"/>
		<path id="Path 303" class="s19" d="m747 455v-3l4-1 1 5h-2z"/>
		<path id="Path 304" class="s12" d="m326 462v-10h8l2 6-5 6h-3z"/>
		<path id="Path 305" class="s71" d="m606 460l-2-8h6v4l-1 4z"/>
		<path id="Path 306" class="s11" d="m623 456l1-4 16 3 5 2v7l5 2v11h-2l-16-3-4-2v-6l-5-3z"/>
		<path id="Path 307" class="s27" d="m672 456v-4h5l8 1v5l-7 2z"/>
		<path id="Path 308" class="s69" d="m685 453l-8-1h14v1z"/>
		<path id="Path 309" class="s30" d="m691 453v-1h7v2h-4z"/>
		<path id="Path 310" class="s16" d="m698 454v-2l8 2h-4z"/>
		<path id="Path 311" class="s14" d="m718 453l5-1h1v5l-6 1z"/>
		<path id="Path 312" class="s43" d="m278 460h5l3-7 4 1 2 6v7l-3 2-4-1-8 9-1-9v-6z"/>
		<path id="Path 313" class="s60" d="m496 454l4-1 4 1v8h-2l-4-2z"/>
		<path id="Path 314" class="s51" d="m557 462l-5-4 2-5h4l2 3 10 2v4z"/>
		<path id="Path 315" class="s14" d="m685 458v-5h6l3 1v4z"/>
		<path id="Path 316" class="s24" d="m708 454l10-1v5l-1 1-15-1v-4h4z"/>
		<path id="Path 317" class="s2" d="m204 459l6-5v1l-2 3-3 1z"/>
		<path id="Path 318" class="s63" d="m471 460l2-6 3 4-2 2z"/>
		<path id="Path 319" class="s61" d="m476 458l3 1 2-5 9 3v10l-11-1-5-2v-4z"/>
		<path id="Path 320" class="s72" d="m490 457l6-3 2 6 4 2v6h-2-7l-3-1z"/>
		<path id="Path 321" class="s65" d="m504 462v-8h4l4 2v6z"/>
		<path id="Path 322" class="s73" d="m610 456l7-2 1 2-1 4h-8z"/>
		<path id="Path 323" class="s54" d="m694 458v-4h4 4v4l-2 2z"/>
		<path id="Path 324" class="s51" d="m730 457l1-3h9l1 1-1 6-4 5-5-3z"/>
		<path id="Path 325" class="s35" d="m740 461l1-6h6l3 1v7l-1 3h-1l-6-3z"/>
		<path id="Path 326" class="s61" d="m512 462v-6h8l3 3-1 11h-4l-6-1z"/>
		<path id="Path 327" class="s26" d="m617 460l1-4h5v7l5 3v6l-12-2-1-5z"/>
		<path id="Path 328" class="s40" d="m671 458l1-2 6 4 7-2-3 10h-7z"/>
		<path id="Path 329" class="s11" d="m750 463v-7h2l8 3v5h-4z"/>
		<path id="Path 330" class="s17" d="m304 460l2-3h4v6h-5z"/>
		<path id="Path 331" class="s26" d="m650 477v-11l-5-2v-7h11l15 1 4 10h7l3-10h9l6 2v10h-13l-1 9h-6l-7-1h-13z"/>
		<path id="Path 332" class="s66" d="m718 458l6-1 1 1v5l3 1v2l-3 2h-7l-1-9z"/>
		<path id="Path 333" class="s28" d="m725 458l5-1 1 6-3 1-3-1z"/>
		<path id="Path 334" class="s70" d="m878 461l1-4v5z"/>
		<path id="Path 335" class="s67" d="m205 459l3-1v4 6h-6v-6z"/>
		<path id="Path 336" class="s46" d="m570 462v-4h10v6h-2l-7-1z"/>
		<path id="Path 337" class="s40" d="m580 464v-6l16 4v6l-4 1z"/>
		<path id="Path 338" class="s11" d="m700 460l2-2 15 1 1 9-2 3-14-1h-2z"/>
		<path id="Path 339" class="s30" d="m202 460l2-1h1l-3 3h-1z"/>
		<path id="Path 340" class="s65" d="m522 470l1-11 3 3v8z"/>
		<path id="Path 341" class="s23" d="m198 464l4-4-1 2z"/>
		<path id="Path 342" class="s27" d="m292 467v-7h12l1 3-3 2 1 7h-5l-1-5z"/>
		<path id="Path 343" class="s74" d="m469 461l2-1h3v4h-4z"/>
		<path id="Path 344" class="s60" d="m606 464v-4h3 8l-2 5h-5z"/>
		<path id="Path 345" class="s45" d="m816 464l19-4 2 7-8 5-11 2h-2z"/>
		<path id="Path 346" class="s46" d="m862 468v-8h2l14 1 1 1 3 5 2 18 5 9-4 6h-5l-5-4-3-5v-15l-4-2v-4z"/>
		<path id="Path 347" class="s35" d="m310 463l13-1 3 7v8l-7 4v4l-3 3-10-6-3-10-1-7 3-2z"/>
		<path id="Path 348" class="s59" d="m466 468v-6l3-1 1 3h4l5 2v3z"/>
		<path id="Path 349" class="s11" d="m736 466l4-5 2 2-2 5h-3z"/>
		<path id="Path 350" class="s73" d="m198 464l3-2h1v6 1h-4l-2-2z"/>
		<path id="Path 351" class="s46" d="m208 468v-6l12 3v9h-6z"/>
		<path id="Path 352" class="s14" d="m270 463l6-1v6h-6z"/>
		<path id="Path 353" class="s66" d="m326 469l-3-7h3l2 2z"/>
		<path id="Path 354" class="s62" d="m502 468v-6h2 8v7z"/>
		<path id="Path 355" class="s66" d="m526 470v-8l13 1v3l-1 6h-9z"/>
		<path id="Path 356" class="s75" d="m539 463l3-1 1 4h-4z"/>
		<path id="Path 357" class="s66" d="m557 466v-4h13l1 1-1 7 8 4 2 5v5l-12-3-3-5h-6l-2-2 3-1v-6z"/>
		<path id="Path 358" class="s19" d="m596 468v-6l4 2v4z"/>
		<path id="Path 359" class="s34" d="m264 469v-4l4-2h2v5l-4 1z"/>
		<path id="Path 360" class="s72" d="m578 474l-8-4 1-7 7 1z"/>
		<path id="Path 361" class="s65" d="m728 464l3-1 5 3 1 2-5 2-4-4z"/>
		<path id="Path 362" class="s63" d="m740 468l2-5 6 3-3 8h-3z"/>
		<path id="Path 363" class="s63" d="m749 466l1-3 6 1v4h-4z"/>
		<path id="Path 364" class="s34" d="m765 465l3-2 5 3 2 10-5 2-3-2z"/>
		<path id="Path 365" class="s25" d="m193 469l5-5-2 3z"/>
		<path id="Path 366" class="s36" d="m326 469l2-5h3l1 6 4 2v3l-6 3-4-1z"/>
		<path id="Path 367" class="s60" d="m578 474v-10h2l12 5-1 11-7 1-4-2z"/>
		<path id="Path 368" class="s46" d="m600 468v-4h6l4 1v5z"/>
		<path id="Path 369" class="s64" d="m756 468v-4h4l5 1 2 11 3 2-2 8-6-3v-11z"/>
		<path id="Path 370" class="s62" d="m543 466l7-1 4 3v6h-8l-8-2 1-6z"/>
		<path id="Path 371" class="s44" d="m610 470v-5h5l1 5h-2z"/>
		<path id="Path 372" class="s49" d="m479 469v-3l11 1 3 1-2 2h-5z"/>
		<path id="Path 373" class="s76" d="m554 468l3-2 3 1v6l-3 1h-3z"/>
		<path id="Path 374" class="s77" d="m725 468l3-2 4 4 5-2h3l2 6v6 2h-8v-3l-9-6z"/>
		<path id="Path 375" class="s66" d="m745 474l3-8h1l3 2-1 9-4 1z"/>
		<path id="Path 376" class="s78" d="m193 469l3-2 2 2-5 6-7 3-2-2 2-2 2-2z"/>
		<path id="Path 377" class="s19" d="m289 469l3-2h5l1 5v10 2h-5z"/>
		<path id="Path 378" class="s27" d="m202 469v-1h6l6 6h6 4v9l7 7v1l-5 3-1 6-5 3-1 5-3 2-13-2-5-8-15 2h-5l-2-10 8-2h6 7l5-2 5-3-2-3-3-5z"/>
		<path id="Path 379" class="s12" d="m266 469l4-1h6l1 9-1 8h-4l-6-7z"/>
		<path id="Path 380" class="s4" d="m277 477l8-9 4 1 4 15-1 2h-14l-2-1z"/>
		<path id="Path 381" class="s61" d="m432 470l4-2 8 2 6 7v9l-4 2-14-2z"/>
		<path id="Path 382" class="s75" d="m444 470l21-1 5 6v11h-20v-9z"/>
		<path id="Path 383" class="s79" d="m465 469l1-1 13 1 7 1 1 19v4l-2 6h-7l-5-1-1-5 2-5-4-2v-11z"/>
		<path id="Path 384" class="s35" d="m491 470l2-2h7v3z"/>
		<path id="Path 385" class="s36" d="m500 471v-3h2l10 1 6 1v4l-12-1z"/>
		<path id="Path 386" class="s66" d="m592 469l4-1h4l10 2v5h-4l-7 9h-4l-4-4z"/>
		<path id="Path 387" class="s65" d="m716 471l2-3h7v5h-8z"/>
		<path id="Path 388" class="s80" d="m747 478l4-1 1-9h4l6 4v11l-3 4h-4l-1 3h-3l-3-1v-4l-1-5z"/>
		<path id="Path 389" class="s14" d="m862 474v-6l6 2v4z"/>
		<path id="Path 390" class="s25" d="m188 472l1-3h4z"/>
		<path id="Path 391" class="s46" d="m193 475l5-6h4v8l-7 1z"/>
		<path id="Path 392" class="s28" d="m262 488l2-19h2v9l6 7v4l-6 1z"/>
		<path id="Path 393" class="s65" d="m418 470h14v16l-5 1-5 1-4-2v-12z"/>
		<path id="Path 394" class="s34" d="m336 472l9-2 1 5h-10z"/>
		<path id="Path 395" class="s21" d="m409 472v-2h9v4h-7z"/>
		<path id="Path 396" class="s81" d="m487 489l-1-19h5l9 1 6 2v7l6 3v6l-6 3-6-2h-4z"/>
		<path id="Path 397" class="s4" d="m518 474v-4h4 4l3 2v3z"/>
		<path id="Path 398" class="s11" d="m610 475v-5h4v6h-4z"/>
		<path id="Path 399" class="s60" d="m614 476v-6h2l12 2 4 2v15l-4 2-8-3-4-2z"/>
		<path id="Path 400" class="s61" d="m686 479l1-9h13 2l4 11 5 1v2 7l1 11v2l-18-2v-7l-5-3-2-8z"/>
		<path id="Path 401" class="s77" d="m711 482l-5-1-4-11 14 1 1 2-1 3-5 1z"/>
		<path id="Path 402" class="s47" d="m224 474l18-3 4 4v11l-1 7-14-3-7-7z"/>
		<path id="Path 403" class="s60" d="m390 492l-4-7v-12l10-1v15l-4 5z"/>
		<path id="Path 404" class="s36" d="m298 482v-10h5l3 10z"/>
		<path id="Path 405" class="s80" d="m396 487v-15l10 1v5 8l-4 3h-2z"/>
		<path id="Path 406" class="s68" d="m406 473l3-1 2 2-1 4h-4z"/>
		<path id="Path 407" class="s75" d="m506 473l12 1 11 1 15 3 2 8v8h-4-5l-14-3h-7l-4-2v-6l-6-3z"/>
		<path id="Path 408" class="s19" d="m529 475v-3h9l8 2v3l-2 1z"/>
		<path id="Path 409" class="s48" d="m818 474l11-2-5 6h-6z"/>
		<path id="Path 410" class="s76" d="m716 476l1-3h8l9 6v3 6h-10l-5-1z"/>
		<path id="Path 411" class="s33" d="m173 484l3-5 10-5-2 2-9 7z"/>
		<path id="Path 412" class="s60" d="m406 478h4l1-4h7v12l-4 2-8-2z"/>
		<path id="Path 413" class="s36" d="m546 477v-3h8 3l2 2v3h-7z"/>
		<path id="Path 414" class="s63" d="m632 489v-15l16 3v5l-4 1v6l-2 1z"/>
		<path id="Path 415" class="s64" d="m742 480v-6h3l2 4v2z"/>
		<path id="Path 416" class="s13" d="m814 478l2-4h2v4h-2z"/>
		<path id="Path 417" class="s45" d="m834 484l11-5 15-1 2-4h6l4 2v15l3 5-14 4-3 4h-14-10l-2-8z"/>
		<path id="Path 418" class="s40" d="m186 478l7-3 2 3v6h-5l-5-3z"/>
		<path id="Path 419" class="s59" d="m330 478l6-3h10l4 1v12l10 4 2 6v6l10 6v7 7l8 2v12l-2 1-12-1v-21l-19-19-2-6-10 2h-1v-5l-4-2z"/>
		<path id="Path 420" class="s75" d="m599 484l7-9h4v1 10h-2z"/>
		<path id="Path 421" class="s60" d="m175 483l9-7 2 2-1 3-3 4-5 1z"/>
		<path id="Path 422" class="s60" d="m360 492l-10-4v-12l9 2 5 12z"/>
		<path id="Path 423" class="s46" d="m559 479v-3h6l3 5-8-2z"/>
		<path id="Path 424" class="s72" d="m610 486v-10h4l2 10z"/>
		<path id="Path 425" class="s72" d="m711 482v-5l5-1 3 11 5 1-1 9h-3l-4-6v-4l-5-3z"/>
		<path id="Path 426" class="s47" d="m770 478l5-2h9v15l6 5v8l-2 2h-14v-8l1-4-7-1v-7z"/>
		<path id="Path 427" class="s49" d="m195 478l7-1 3 5-3 1v5l-5 2-2-6z"/>
		<path id="Path 428" class="s21" d="m319 485v-4l7-4 4 1v9l-8 1z"/>
		<path id="Path 429" class="s81" d="m544 478l2-1 6 2v7h-6z"/>
		<path id="Path 430" class="s68" d="m648 482v-5h2l10 1v13l-3 1-4-2v-5z"/>
		<path id="Path 431" class="s75" d="m552 479h7 1v7h-8z"/>
		<path id="Path 432" class="s65" d="m660 491v-13h13l1 12-3 4h-4l-1-3z"/>
		<path id="Path 433" class="s68" d="m674 490l-1-12 7 1v3l-2 8z"/>
		<path id="Path 434" class="s27" d="m808 490l-4-4v-5l10-3h2l-2 12z"/>
		<path id="Path 435" class="s14" d="m814 490l2-12h2 6l2 6v12h-7l-5-2z"/>
		<path id="Path 436" class="s81" d="m560 486v-7l8 2 12 3v1l1 5-1 9-10-1-3-1-3-1v-6z"/>
		<path id="Path 437" class="s35" d="m580 484v-5l4 2v3l-4 1z"/>
		<path id="Path 438" class="s76" d="m680 482v-3h6l1 5h-3z"/>
		<path id="Path 439" class="s26" d="m584 481l7-1 4 4v2l-8-1-3-1z"/>
		<path id="Path 440" class="s76" d="m742 482v-2h5l1 5z"/>
		<path id="Path 441" class="s35" d="m182 485l3-4 5 3v6h-6z"/>
		<path id="Path 442" class="s4" d="m202 488v-5l3-1 2 3z"/>
		<path id="Path 443" class="s59" d="m298 484v-2h8l10 6v4l8 8h6v8l-16-6v-4l-4-2v-3l-12-3z"/>
		<path id="Path 444" class="s72" d="m644 489v-6l4-1 5 3v5z"/>
		<path id="Path 445" class="s72" d="m678 490l2-8 4 2-1 6z"/>
		<path id="Path 446" class="s68" d="m734 488v-6h8l6 3v4l-2 6h-2l-8-2z"/>
		<path id="Path 447" class="s73" d="m173 484l2-1 2 3-2 3-6 3-2-3 5-5z"/>
		<path id="Path 448" class="s12" d="m759 487l3-4 6 3v7l-9-1z"/>
		<path id="Path 449" class="s30" d="m166 489l6-5-5 5z"/>
		<path id="Path 450" class="s62" d="m190 490v-6h5l2 6z"/>
		<path id="Path 451" class="s28" d="m292 486l1-2h5v6l-5 1z"/>
		<path id="Path 452" class="s75" d="m580 485l4-1 3 1-6 5z"/>
		<path id="Path 453" class="s4" d="m595 486v-2h4l9 2v4 1l-11-1z"/>
		<path id="Path 454" class="s63" d="m683 490l1-6h3l2 8h-3z"/>
		<path id="Path 455" class="s74" d="m711 491v-7l5 3v4z"/>
		<path id="Path 456" class="s47" d="m826 496v-12h8l-2 12z"/>
		<path id="Path 457" class="s40" d="m177 486l5-1 2 5-8 2-1-3z"/>
		<path id="Path 458" class="s21" d="m272 489v-4h4l2 1v4z"/>
		<path id="Path 459" class="s62" d="m278 486h14l1 5 1 12-4-1-2-7-1-3-9-2z"/>
		<path id="Path 460" class="s61" d="m316 488l3-3 3 3 8-1 4 2v5l-4 6h-6l-8-8z"/>
		<path id="Path 461" class="s65" d="m581 490l6-5 8 1 2 4 11 1-1 15h-7l-12-4-8-3z"/>
		<path id="Path 462" class="s59" d="m231 490l14 3 1-7 5 2 1 4 7-2v8l6 4 4 6h5v7l-2 3h-3l-6-6-9-10h-8l-7 1-7-2-1-1v-9z"/>
		<path id="Path 463" class="s49" d="m402 489l4-3 8 2v5l-9 1z"/>
		<path id="Path 464" class="s34" d="m414 488l4-2 4 2v5h-8z"/>
		<path id="Path 465" class="s19" d="m427 487l5-1 14 2 4-2h20l4 2-2 5-22 1-6-1-4 2-10-2h-1z"/>
		<path id="Path 466" class="s65" d="m546 494v-8h6 8l4 4v6h-9-4z"/>
		<path id="Path 467" class="s28" d="m608 490v-4h2 6l4 2v3l-4 1z"/>
		<path id="Path 468" class="s34" d="m392 492l4-5 4 2-3 5z"/>
		<path id="Path 469" class="s26" d="m422 488l5-1 2 6h-3-4z"/>
		<path id="Path 470" class="s36" d="m754 490l1-3h4v5l-2 1z"/>
		<path id="Path 471" class="s77" d="m259 490l3-2 4 2-1 12-6-4z"/>
		<path id="Path 472" class="s35" d="m620 491v-3l8 3v2l-5 1z"/>
		<path id="Path 473" class="s63" d="m723 497l1-9h10l2 5 8 2 1 5h4l1 6 5 3 1 5-1 6-7 4h-9l-3 3-4 1h-12l-9-9h-15l-1-9-3-2 2-6 18 2 2 4 9-2z"/>
		<path id="Path 474" class="s16" d="m159 494l6-5-4 5z"/>
		<path id="Path 475" class="s59" d="m161 494l4-5h1 1l2 3-5 5z"/>
		<path id="Path 476" class="s51" d="m169 492l6-3 1 3 2 10-4 3 2 7h-4l-8-2-5-4 5-9z"/>
		<path id="Path 477" class="s75" d="m266 490l6-1 6 1 9 2 1 3-2 8h-9l-3 5h-5l-4-6z"/>
		<path id="Path 478" class="s60" d="m397 494l3-5h2l3 5-1 2h-7z"/>
		<path id="Path 479" class="s49" d="m487 493v-4l9 1v4z"/>
		<path id="Path 480" class="s19" d="m506 492l6-3 4 2v7h-4l-6-3z"/>
		<path id="Path 481" class="s19" d="m628 491l4-2 10 1v4l-2 1-6-1-6-1z"/>
		<path id="Path 482" class="s28" d="m642 490l2-1 9 1 4 2-2 4-8 1-5-3z"/>
		<path id="Path 483" class="s57" d="m746 495l2-6 3 1-2 5z"/>
		<path id="Path 484" class="s81" d="m293 491l5-1 12 3v3 6h4l16 6 5 10-2 6-5 1 3 4 3 9-12 1h-1l-2-13-8-6h-5l-9-8v-8l-3-1z"/>
		<path id="Path 485" class="s35" d="m360 492l4-2 12 1 1 5-15 2z"/>
		<path id="Path 486" class="s28" d="m496 494v-4h4v4z"/>
		<path id="Path 487" class="s34" d="m500 494v-4l6 2v3z"/>
		<path id="Path 488" class="s61" d="m608 491v-1l8 2 2 9 1 5-5 2h-4l-3-2z"/>
		<path id="Path 489" class="s60" d="m671 494l3-4h4 5l3 2v14h-6l-4-5h-4z"/>
		<path id="Path 490" class="s72" d="m749 495l2-5h3l3 3-1 6h-6z"/>
		<path id="Path 491" class="s13" d="m808 494v-4h6v4z"/>
		<path id="Path 492" class="s57" d="m225 500l1-6 5-3v9z"/>
		<path id="Path 493" class="s4" d="m516 498v-7h7v7l-1 1z"/>
		<path id="Path 494" class="s21" d="m523 498v-7l14 3v5l-1 1h-7z"/>
		<path id="Path 495" class="s63" d="m616 492l4-1 3 3 5-1 6 1v14l-10-2-1-5h-5z"/>
		<path id="Path 496" class="s4" d="m657 492l3-1h6l1 3-3 4-9-2z"/>
		<path id="Path 497" class="s65" d="m712 502l-1-11h5l4 6-2 5z"/>
		<path id="Path 498" class="s34" d="m335 494l10-2 2 6h-11z"/>
		<path id="Path 499" class="s61" d="m384 496l6-4h2l5 2v2l-2 4h-6l-1 3h-2l-2-2z"/>
		<path id="Path 500" class="s65" d="m450 494l22-1 1 5-2 4 4 1 1 4-2 9-4 2-8-2-2-5-10-6z"/>
		<path id="Path 501" class="s72" d="m686 506v-14h3l5 3v7l-2 6h-6z"/>
		<path id="Path 502" class="s78" d="m757 493l2-1 9 1 7 1-1 4-11 6v3l5 1v6l-2 1-10-1-1-5 3-3-2-7z"/>
		<path id="Path 503" class="s72" d="m405 494l9-1h8 4v23h-3l-2-3-11-1h-7l1-16z"/>
		<path id="Path 504" class="s61" d="m426 516v-23h3 1l1 6 9-1h4l2 19 4 3v10l-6 3-5-5-1-4h-4z"/>
		<path id="Path 505" class="s65" d="m440 498l-9 1-1-6 10 2z"/>
		<path id="Path 506" class="s75" d="m440 495l4-2v5h-4z"/>
		<path id="Path 507" class="s81" d="m444 498v-5l6 1v11l10 6 2 5-3 4h-9l-4-3z"/>
		<path id="Path 508" class="s82" d="m485 499l2-6 9 1h4l6 1 6 3-1 16-3 4h7 3l4 3v6l12 13v4h-10l-1-7-13-7-5-11-11-1-2-7-6-5v-1l3-4-4-1z"/>
		<path id="Path 509" class="s71" d="m634 494l6 1v13h-6z"/>
		<path id="Path 510" class="s83" d="m153 499l6-5h2l3 3-5 9h-4l-3-5z"/>
		<path id="Path 511" class="s62" d="m330 500l4-6h1l1 4h11l19 19v21h-6-10l-2-3-14 3-3-9 2-5 2-6-5-10z"/>
		<path id="Path 512" class="s12" d="m537 499v-5h5v5z"/>
		<path id="Path 513" class="s19" d="m542 499v-5h4l5 2v4z"/>
		<path id="Path 514" class="s61" d="m640 495l2-1 5 3 8-1 9 2v1l1 6h5l4 9-6 4-20-1v-5h-6l-2-4z"/>
		<path id="Path 515" class="s66" d="m664 498l3-4h4l1 7h-2l-6-2z"/>
		<path id="Path 516" class="s27" d="m806 502l2-8h6l5 2-1 11 3 3h13 4v12l-2 1-8-1-13-4-1-12z"/>
		<path id="Path 517" class="s7" d="m885 500l4-6 2 3-5 3z"/>
		<path id="Path 518" class="s79" d="m286 503l2-8 2 7 4 1 3 1v8l9 8-3 17h-5l-1-3 1-6-5-4-4 1v3h-3l-1-7z"/>
		<path id="Path 519" class="s11" d="m749 500h-4l-1-5h2 3l1 4z"/>
		<path id="Path 520" class="s19" d="m314 502h-4v-6l4 2z"/>
		<path id="Path 521" class="s81" d="m362 498l15-2h7v5h-4l-2 5 8 2h9l5 4 1 6h10l4 3 3-2 5-3h3l8 8 1 4h4l5 5 1 6v4l-9 7-4-4v-13l-3-4-1-5-4 1v3l-8 4v4l-5 4h-2-4l-5-14-19-2-2-7h-7v-7l-10-6z"/>
		<path id="Path 522" class="s65" d="m395 500l2-4h7l-1 16h-3l-5-4v-2z"/>
		<path id="Path 523" class="s21" d="m551 500v-4h4v4z"/>
		<path id="Path 524" class="s19" d="m555 500v-4h9l3 1-1 4h-4z"/>
		<path id="Path 525" class="s42" d="m834 510h-13l-3-3 1-11h7 6l2 8z"/>
		<path id="Path 526" class="s48" d="m858 504l3-4 14-4 5 4 1 4-1 20h-1l-3 1h-1-8-1l-3-1-5-2z"/>
		<path id="Path 527" class="s21" d="m566 501l1-4 3 1 1 6-5-1z"/>
		<path id="Path 528" class="s36" d="m570 498l10 1 8 3v5l-6-1-6-2h-5z"/>
		<path id="Path 529" class="s76" d="m712 502h6l2-5h3v9l-9 2-2-4z"/>
		<path id="Path 530" class="s27" d="m475 503l-4-1 2-4 5 1v4z"/>
		<path id="Path 531" class="s81" d="m511 514l1-16h4l6 1 7 1h7l-3 15h-5l-10-1h-5z"/>
		<path id="Path 532" class="s75" d="m522 499l1-1 6 2z"/>
		<path id="Path 533" class="s51" d="m768 508l-5-1v-3l11-6v8l-1 2z"/>
		<path id="Path 534" class="s20" d="m148 501l5-2-1 2z"/>
		<path id="Path 535" class="s21" d="m478 503v-4h7v1l-2 3 3 2v1h-5z"/>
		<path id="Path 536" class="s61" d="m536 500l1-1h5l9 1h4l7 1 2 4v4l-2 1-8 1v7h-12l-9-3z"/>
		<path id="Path 537" class="s63" d="m670 505h-5l-1-6 6 2z"/>
		<path id="Path 538" class="s67" d="m749 500l1-1h6l2 7-3 3-5-3z"/>
		<path id="Path 539" class="s75" d="m183 502l15-2 5 8 1 8h-2l-5-6h-4l-1 4-8-4z"/>
		<path id="Path 540" class="s84" d="m219 508l1-5 5-3h6l1 1 1 7-1 8h-3l-2-4h-5z"/>
		<path id="Path 541" class="s34" d="m388 503l1-3h6v6z"/>
		<path id="Path 542" class="s12" d="m486 505l-3-2 2-3 4 1z"/>
		<path id="Path 543" class="s42" d="m881 504l-1-4h5 1l1 3z"/>
		<path id="Path 544" class="s7" d="m887 503l-1-3 5 2-1 3z"/>
		<path id="Path 545" class="s66" d="m146 504l2-3h4l3 5-3 8h-5l-5-6z"/>
		<path id="Path 546" class="s85" d="m233 508l-1-7 7 2-1 5z"/>
		<path id="Path 547" class="s86" d="m386 508l-8-2 2-5h4l2 2z"/>
		<path id="Path 548" class="s63" d="m564 505l-2-4h4v2z"/>
		<path id="Path 549" class="s71" d="m619 506l-1-5h5l1 5z"/>
		<path id="Path 550" class="s71" d="m670 505v-4h2 4l4 5v5 3h-6z"/>
		<path id="Path 551" class="s79" d="m176 512l-2-7 4-3h5l1 8-4 3v9l3 4-3 3-5-7z"/>
		<path id="Path 552" class="s75" d="m239 503l7-1 2 10-3 4-7-2v-6z"/>
		<path id="Path 553" class="s77" d="m248 512l-2-10h8l9 10-5 2z"/>
		<path id="Path 554" class="s21" d="m588 507v-5l12 4v5z"/>
		<path id="Path 555" class="s14" d="m790 504l16-2 8 4 1 12-5 1-5-3h-16l-1-10z"/>
		<path id="Path 556" class="s62" d="m274 508l3-5h9l-1 18-4-1-1 4h-3v-1l1-6-4-2z"/>
		<path id="Path 557" class="s57" d="m386 508v-5h2l7 3v2z"/>
		<path id="Path 558" class="s62" d="m476 507l-1-4h3l3 3-1 1z"/>
		<path id="Path 559" class="s65" d="m564 505l2-2 5 1h5v4l-1 2-11-1z"/>
		<path id="Path 560" class="s43" d="m881 504l6-1 3 2 2 10 1 7-13 2z"/>
		<path id="Path 561" class="s7" d="m139 509l2-4 5-1-4 4z"/>
		<path id="Path 562" class="s62" d="m576 508v-4l6 2v2z"/>
		<path id="Path 563" class="s14" d="m834 510v-6h10v5l-6 1z"/>
		<path id="Path 564" class="s47" d="m844 509v-5h14v18h-3l-3-10z"/>
		<path id="Path 565" class="s46" d="m152 514l3-8h4l5 4-2 20 2 2v4h-5l-1-2-4-9z"/>
		<path id="Path 566" class="s75" d="m480 507l1-1h5l6 5 2 7 11 1 5 11 13 7 1 7h10 6l4 4-2 19-1 2-22 1-1 6-1 9 13 11-1 4-3 1v9l-1 2-4 2h-13l-4-8v-18l-5-1v-3l-7-4-14 1-3 3-12 1-9-8-5-9-10-3-3-9v-6l9-7v-4l10-1 4 11h7l2 2 6-2 6 7h10l6 4 4 1 2-3 2-18 2-3-6-1-14-4-1-8-5-3z"/>
		<path id="Path 567" class="s60" d="m582 508v-2l6 1 12 4 10 1 4 1 18 2 4 4v9l-2 23-4 1-11-10h-5l-4-12-5-4-5 1-2 12-6-3v-4l2-15-3-3h-9z"/>
		<path id="Path 568" class="s35" d="m600 511v-5h7l3 2v4z"/>
		<path id="Path 569" class="s21" d="m614 508l5-2h5l10 2h6l2 4v5l-6 2-4-4-18-2z"/>
		<path id="Path 570" class="s63" d="m680 511v-5h6v2 3z"/>
		<path id="Path 571" class="s27" d="m773 508l1-2h14l1 10-3 8h-9l-2-1-2-9z"/>
		<path id="Path 572" class="s87" d="m470 518l4-2 2-9h4v14l5 3 1 8h-14z"/>
		<path id="Path 573" class="s78" d="m139 509l3-1 5 6v4l-4 1-7 3h-5l-3-4v-1l4-3h1l5-4z"/>
		<path id="Path 574" class="s19" d="m204 516l-1-8 13 2v4 13l-1 3h-5l-4-6z"/>
		<path id="Path 575" class="s21" d="m216 510l3-2 3 4-6 2z"/>
		<path id="Path 576" class="s88" d="m232 516l1-8h5v6l7 2 1 4 2 11-5 5-7-2-4-7z"/>
		<path id="Path 577" class="s72" d="m575 510l1-2h6v6h-7z"/>
		<path id="Path 578" class="s12" d="m610 512v-4h4v5z"/>
		<path id="Path 579" class="s65" d="m686 511v-3h6l3 2 1 9-10-3z"/>
		<path id="Path 580" class="s67" d="m768 514v-6h5v6z"/>
		<path id="Path 581" class="s62" d="m562 510l2-1 11 1v4l-1 6-4 1v4l-4 1z"/>
		<path id="Path 582" class="s45" d="m838 510l6-1 8 3 3 10v1h-1-6l-10-1z"/>
		<path id="Path 583" class="s44" d="m164 532l-2-2 2-20 8 2v11l-2 9z"/>
		<path id="Path 584" class="s87" d="m183 526l-3-4v-9l4-3 8 4v11z"/>
		<path id="Path 585" class="s89" d="m192 514l1-4h4l5 6v9l-6 2-4-2z"/>
		<path id="Path 586" class="s66" d="m554 518v-7l8-1 4 16-8-1 1-5-5-1z"/>
		<path id="Path 587" class="s11" d="m680 514v-3h6v5z"/>
		<path id="Path 588" class="s4" d="m172 523v-11h4l-1 10z"/>
		<path id="Path 589" class="s62" d="m216 514l6-2h5l2 4-6 4-5 2-2 5z"/>
		<path id="Path 590" class="s66" d="m245 516l3-4 10 2 1 3 10 3 1 6-6 1-4-5-14-2z"/>
		<path id="Path 591" class="s52" d="m258 514l5-2 6 6v2l-10-3z"/>
		<path id="Path 592" class="s21" d="m411 518h-10l-1-6h3 7l1 5z"/>
		<path id="Path 593" class="s19" d="m411 517l-1-5 11 1 2 3-5 3z"/>
		<path id="Path 594" class="s35" d="m642 517v-5h6v5z"/>
		<path id="Path 595" class="s28" d="m518 514l10 1v5l-6 1-4-3z"/>
		<path id="Path 596" class="s27" d="m143 519l4-1v-4h5l2 11-9-1z"/>
		<path id="Path 597" class="s34" d="m515 518h-7l3-4h2z"/>
		<path id="Path 598" class="s59" d="m515 518l-2-4h5v4z"/>
		<path id="Path 599" class="s66" d="m574 520l1-6h7 9l3 3-2 15h-14l-2-6-1-3z"/>
		<path id="Path 600" class="s80" d="m648 517l20 1 6-4h6l6 2 10 3h15l9 9v6l-6 2-14 4h-18l-2-4h-5l-3 4h-9l-7-10-20-2v-9l6-2z"/>
		<path id="Path 601" class="s64" d="m755 520l1-6 10 1v9l-6 1z"/>
		<path id="Path 602" class="s26" d="m766 515l2-1h5l2 9-5 1h-4z"/>
		<path id="Path 603" class="s35" d="m272 518l2-3 4 2-1 6z"/>
		<path id="Path 604" class="s34" d="m528 520v-5h5l9 3v3l-4 1z"/>
		<path id="Path 605" class="s25" d="m893 522l-1-7 4 2v6l-3 1z"/>
		<path id="Path 606" class="s76" d="m202 525v-9h2l2 8-1 1z"/>
		<path id="Path 607" class="s75" d="m223 520l6-4h3v11h-4z"/>
		<path id="Path 608" class="s88" d="m459 520l3-4 8 2 2 14-2 2h-6-4z"/>
		<path id="Path 609" class="s54" d="m777 524h9l3-8h16l5 3v13l-2 9-1 5-9 2h-6l-3-8h-12l-3 4h-10v-9l7-7h5z"/>
		<path id="Path 610" class="s1" d="m124 519l4-2v1z"/>
		<path id="Path 611" class="s82" d="m380 526l-8-2v-7h7l2 7z"/>
		<path id="Path 612" class="s61" d="m411 518v-1l7 2-3 2z"/>
		<path id="Path 613" class="s36" d="m542 518h12v1 4l-12-2z"/>
		<path id="Path 614" class="s67" d="m124 519l4-1 3 4-3 3-8-2z"/>
		<path id="Path 615" class="s82" d="m269 520v-2h3l5 5v1l-4 6-3-4z"/>
		<path id="Path 616" class="s17" d="m810 519l5-1 13 4 3 10-1 2-20-2z"/>
		<path id="Path 617" class="s1" d="m116 524l8-5-4 4z"/>
		<path id="Path 618" class="s15" d="m136 522l7-3 2 5-5 8h-3z"/>
		<path id="Path 619" class="s27" d="m554 523v-4l5 1-1 5z"/>
		<path id="Path 620" class="s79" d="m216 527l2-5 5-2 5 7-3 6-9 1-1-4z"/>
		<path id="Path 621" class="s85" d="m243 536l5-5-2-11 14 2 4 5 6-1 3 4-3 10-3 7h-1l-2-3h-7l-7 6-4-2z"/>
		<path id="Path 622" class="s90" d="m280 524l1-4 4 1 1 7h-4z"/>
		<path id="Path 623" class="s84" d="m303 537l3-17h5l8 6 2 13-15 2z"/>
		<path id="Path 624" class="s77" d="m444 533l6-3v-10h9l1 14-1 2-4 2-10 1z"/>
		<path id="Path 625" class="s65" d="m522 521l6-1 10 2 2 22h-6v-4l-12-13z"/>
		<path id="Path 626" class="s27" d="m570 525v-4l4-1 1 3-3 2z"/>
		<path id="Path 627" class="s26" d="m748 524l7-4 5 5v6l-10 1h-2z"/>
		<path id="Path 628" class="s61" d="m538 522l4-1 12 2 4 2 8 1 4-1h2v1 6l1 8 9 7v13l-6 3 2 17h-6l-3 4h-4l-6-4-5-11h-8l-4-2 2-19-4-4z"/>
		<path id="Path 629" class="s42" d="m128 525l3-3h5l1 10-4 4h-5z"/>
		<path id="Path 630" class="s84" d="m172 523l3-1 5 7-12 23h-4v-3l5-12 1-5z"/>
		<path id="Path 631" class="s43" d="m831 532l-3-10 8 1v9z"/>
		<path id="Path 632" class="s14" d="m836 523l2-1 10 1 5 3v1l-1 7-16-2z"/>
		<path id="Path 633" class="s57" d="m855 523v-1h3l5 2h-1z"/>
		<path id="Path 634" class="s69" d="m880 524l13-2v2l-14 1v-1z"/>
		<path id="Path 635" class="s66" d="m116 524l4-1-3 5-2-2z"/>
		<path id="Path 636" class="s12" d="m117 528l3-5 8 2v11l-3 3-7-1-2-1z"/>
		<path id="Path 637" class="s19" d="m572 525l3-2 1 3h-4z"/>
		<path id="Path 638" class="s42" d="m770 524l5-1 2 1-1 4h-5z"/>
		<path id="Path 639" class="s38" d="m853 526l-5-3h6z"/>
		<path id="Path 640" class="s33" d="m853 526l1-3h1l7 1v4l-9-1z"/>
		<path id="Path 641" class="s22" d="m109 529l2-4 5-1-1 2-4 2z"/>
		<path id="Path 642" class="s5" d="m137 532h3l5-8 9 1 4 9-8 1v7l-2 10h-5l-9-6-1-10z"/>
		<path id="Path 643" class="s62" d="m205 525l1-1 4 6h-3z"/>
		<path id="Path 644" class="s59" d="m273 530l4-6h3l2 4-3 9-3 3h-6z"/>
		<path id="Path 645" class="s57" d="m289 528v-3l4-1 5 4-1 6-9-1z"/>
		<path id="Path 646" class="s4" d="m331 529l-3-4 5-1z"/>
		<path id="Path 647" class="s62" d="m380 526l1-2 19 2 5 14-15 4-1-5-9-1z"/>
		<path id="Path 648" class="s28" d="m424 528v-3l4-1 1 5z"/>
		<path id="Path 649" class="s34" d="m439 528h-4l-1-4h4z"/>
		<path id="Path 650" class="s67" d="m736 527l3-3h9v8h-12z"/>
		<path id="Path 651" class="s44" d="m760 525l6-1h4l1 4-7 7-4-4z"/>
		<path id="Path 652" class="s18" d="m862 528v-4h1l3 1 1 2-1 2h-1z"/>
		<path id="Path 653" class="s91" d="m876 525l3-1v1z"/>
		<path id="Path 654" class="s90" d="m183 526l9-1 4 2v7l-12 12v11l9 8 2 6 5 2-7 11h-2l-14-3-3-8-7-4v-6l3-1-2-10 12-23z"/>
		<path id="Path 655" class="s87" d="m196 527l6-2h3l2 5-1 4h-10z"/>
		<path id="Path 656" class="s22" d="m867 527l-1-2h1 8 1z"/>
		<path id="Path 657" class="s40" d="m111 528l4-2 2 2-1 9-8 1v-4z"/>
		<path id="Path 658" class="s72" d="m572 532v-6h4l2 6z"/>
		<path id="Path 659" class="s72" d="m598 539l2-12 5-1 5 4 4 12v6h-4l-11-2z"/>
		<path id="Path 660" class="s64" d="m732 528l4-1v5l-3 1z"/>
		<path id="Path 661" class="s52" d="m225 533l3-6h4l4 7 7 2 3 12 4 2-1 7-8 6-6 11-1 12-2 2-5-4 1-14v-33z"/>
		<path id="Path 662" class="s48" d="m852 534l1-7 9 1 3 1 1 1 1 6z"/>
		<path id="Path 663" class="s72" d="m109 529l2-1-3 6-3-1 3-4z"/>
		<path id="Path 664" class="s77" d="m279 537l3-9h4 3l-1 5-4 4-1 1z"/>
		<path id="Path 665" class="s75" d="m416 536v-4l8-4 5 1 3 4v13l-14-5z"/>
		<path id="Path 666" class="s73" d="m634 551l2-23 20 2 7 10-3 8-5 1-11 1-4 4z"/>
		<path id="Path 667" class="s11" d="m720 534v-6h12l1 5-5 1z"/>
		<path id="Path 668" class="s22" d="m103 532l5-3-3 4h-2z"/>
		<path id="Path 669" class="s50" d="m866 530l-1-1h1l9 1 1 3z"/>
		<path id="Path 670" class="s56" d="m206 534l1-4h3 5l1 4 1 6-11-3z"/>
		<path id="Path 671" class="s45" d="m867 536l-1-6 10 3h2v3z"/>
		<path id="Path 672" class="s27" d="m750 532l10-1 4 4v9l-1 4 3 3-10-1-6-4-2-3z"/>
		<path id="Path 673" class="s16" d="m98 537l5-5v1z"/>
		<path id="Path 674" class="s12" d="m164 536v-4h6l-1 5z"/>
		<path id="Path 675" class="s62" d="m470 534l2-2h14l14 4 4 4-2 18-2 3-4-1v-7l-6-3-1-11-15 2-4-3z"/>
		<path id="Path 676" class="s65" d="m582 560v-13l-9-7-1-8h6 14v4l6 3 1 7-3 7 2 9h-4z"/>
		<path id="Path 677" class="s12" d="m733 533l3-1h12 2l-2 11h-2l-18-3v-6z"/>
		<path id="Path 678" class="s5" d="m808 541l2-9 20 2 1-2h5l16 2 15 2h11 3l5 9 9 1 3-3 7 3 2 1 2 2 3 4v4l2 5v2l3 3v3 3l1 8h-2-2l-6-1h-10l-7-2v3l7 5 4 2 5 1h2l4 3 3 2h1l11 9-1 5-3 2-5 1-3 1-9 1h-1l-8-1-10-2-19-6-3-1-5-3h-1l1-10-11-2v-15l-3-3h-8l-11-11v-8l-3-3-13-4z"/>
		<path id="Path 679" class="s34" d="m878 533l4 1-1 2h-3z"/>
		<path id="Path 680" class="s83" d="m98 537l5-4h2l3 1v4l-5 6h-3l-4-4z"/>
		<path id="Path 681" class="s85" d="m216 534l9-1 3 4v33l-9-2-2-15v-13z"/>
		<path id="Path 682" class="s4" d="m284 537l4-4 9 1 1 3h5l3 4h-5l-1 5h-2-2v-4h-7v-4z"/>
		<path id="Path 683" class="s47" d="m150 542v-7l8-1 1 2-1 6z"/>
		<path id="Path 684" class="s77" d="m200 573l-5-2-2-6-9-8v-11l12-12h10v3l-2 21-2 14z"/>
		<path id="Path 685" class="s59" d="m459 536l1-2h4v5z"/>
		<path id="Path 686" class="s82" d="m464 539v-5h6v4l-4 1z"/>
		<path id="Path 687" class="s36" d="m714 536l6-2h8v6h-11-2z"/>
		<path id="Path 688" class="s17" d="m881 536l1-2h3l6 4 7 5-3 3-9-1z"/>
		<path id="Path 689" class="s32" d="m891 538l-6-4 6 3z"/>
		<path id="Path 690" class="s10" d="m334 538l14-3 2 3h10v15l7 13-1 4h-8l-2 4-12 4-20-2-2-4 1-14-3-2 2-17z"/>
		<path id="Path 691" class="s86" d="m125 539l3-3h5l1 10-3 2h-5z"/>
		<path id="Path 692" class="s36" d="m158 542l1-6h5l5 1-5 12-6 1z"/>
		<path id="Path 693" class="s4" d="m411 540l5-4 2 5-4 1z"/>
		<path id="Path 694" class="s79" d="m455 538l4-2 5 3h2v10h-7z"/>
		<path id="Path 695" class="s4" d="m504 540l-4-4 6 1z"/>
		<path id="Path 696" class="s73" d="m672 540l3-4h5l2 4-9 2z"/>
		<path id="Path 697" class="s31" d="m700 540l14-4 1 4-6 3-7 2h-2z"/>
		<path id="Path 699" class="s30" d="m93 541l1-4h4l-2 3z"/>
		<path id="Path 700" class="s36" d="m108 538l8-1 2 1v9l-2 3h-8l-5-6z"/>
		<path id="Path 701" class="s92" d="m204 558l2-21 11 3v13h-7l-3 5z"/>
		<path id="Path 702" class="s84" d="m276 540l3-3 4 1-3 5z"/>
		<path id="Path 703" class="s34" d="m283 538l1-1 5 1v4l-5 3h-4v-2z"/>
		<path id="Path 704" class="s41" d="m891 538v-1l14 7v2l-7-3z"/>
		<path id="Path 705" class="s26" d="m118 547v-9l7 1 1 9-1 1h-3z"/>
		<path id="Path 706" class="s93" d="m367 566l-7-13v-15h6l12 1v7l-1 20z"/>
		<path id="Path 707" class="s10" d="m378 539l2-1 9 1 1 5-12 2z"/>
		<path id="Path 708" class="s88" d="m466 539l4-1 4 3v8l-6 2-2-2z"/>
		<path id="Path 709" class="s86" d="m306 541l15-2h1l-2 17 3 2-1 14h-9l-3-10v-6l-10-10 1-5z"/>
		<path id="Path 710" class="s77" d="m474 541l15-2 1 11 6 3v7l-6-4h-10l-6-7z"/>
		<path id="Path 711" class="s40" d="m93 541l3-1 4 4-2 5-8-2v-4l1-2z"/>
		<path id="Path 712" class="s56" d="m267 547l3-7h6l4 3v2 5l-4 7-2-5-6-2z"/>
		<path id="Path 713" class="s57" d="m390 544l15-4h4l1 14-1 3-11 2v9l-4 6-4 3h-5l-8-11 1-20z"/>
		<path id="Path 714" class="s94" d="m410 554l-1-14h2l3 2v12z"/>
		<path id="Path 715" class="s26" d="m660 548l3-8h9l1 2-1 10-8 2z"/>
		<path id="Path 716" class="s19" d="m673 542l9-2h18v5h-1l-9 1-3 4v2l-5-2-10 2z"/>
		<path id="Path 717" class="s20" d="m709 543l6-3h2l-8 4z"/>
		<path id="Path 718" class="s15" d="m774 544l3-4h12l3 8-3 10-10-2h-3l-2-1z"/>
		<path id="Path 719" class="s82" d="m414 542l4-1 14 5 4 4v6l-8 2-14-4z"/>
		<path id="Path 720" class="s13" d="m807 546l1-5 4 3v4z"/>
		<path id="Path 721" class="s24" d="m148 552l2-10h8v8l-3 2z"/>
		<path id="Path 722" class="s94" d="m284 545l5-3h7v4h-4l-7 2z"/>
		<path id="Path 723" class="s66" d="m614 548v-6h5l11 10-2 4h-10z"/>
		<path id="Path 724" class="s25" d="m86 550h-2l2-7h1l-1 5z"/>
		<path id="Path 725" class="s34" d="m86 548l1-5h3v4z"/>
		<path id="Path 726" class="s18" d="m702 545l7-2v1z"/>
		<path id="Path 727" class="s41" d="m750 546l-2 1-2-4h2z"/>
		<path id="Path 728" class="s46" d="m98 549l2-5h3l5 6v3z"/>
		<path id="Path 729" class="s90" d="m250 550l7-6h7l2 3-6 11-4 3-1 14-8 7-5 4h-8l1-12 6-11 8-6z"/>
		<path id="Path 730" class="s17" d="m766 551l-3-3 1-4h10v11h-1-1l-4-3z"/>
		<path id="Path 731" class="s17" d="m812 548v-4l13 4 3 3v8l11 11-1 16h-7l-6-1-3-4-9-8-4-3-1-2z"/>
		<path id="Path 732" class="s38" d="m905 546v-2l2 3z"/>
		<path id="Path 733" class="s21" d="m280 550v-5h4l1 3 1 6-1 1z"/>
		<path id="Path 734" class="s18" d="m687 550l3-4 9-1z"/>
		<path id="Path 735" class="s48" d="m131 548l3-2 9 6-4 1z"/>
		<path id="Path 736" class="s14" d="m285 548l7-2-4 8h-2z"/>
		<path id="Path 737" class="s24" d="m288 554l4-8h4 2v14h-3l-6-2z"/>
		<path id="Path 738" class="s55" d="m298 560v-14h2l10 10v6z"/>
		<path id="Path 739" class="s73" d="m598 562l-2-9 3-7 11 2-2 14-2 2z"/>
		<path id="Path 740" class="s14" d="m798 548l9-2 5 2-4 20-7-3-3-3v-1z"/>
		<path id="Path 741" class="s28" d="m86 548l4-1 8 2 10 4 2 3-6 7h-8v-1-2l-5-5-5-4v-1z"/>
		<path id="Path 742" class="s56" d="m116 550l2-3 4 2 1 9v1l-9 1-1-4z"/>
		<path id="Path 743" class="s62" d="m260 558l6-11h1l1 3-2 7-2 2z"/>
		<path id="Path 744" class="s19" d="m125 549l1-1h5l8 5v4l-9-1z"/>
		<path id="Path 745" class="s64" d="m598 562l8 2 2-2 2-14h4l4 8v12l-6 1-3 5-9 3-6-3v-12z"/>
		<path id="Path 746" class="s19" d="m655 549l5-1 4 6-1 1h-2l-5 1z"/>
		<path id="Path 747" class="s43" d="m789 558l3-10h6v13l-5-1z"/>
		<path id="Path 748" class="s79" d="m123 558l-1-9h3l5 7-3 4-3-1z"/>
		<path id="Path 749" class="s62" d="m123 558h1v1h-1z"/>
		<path id="Path 750" class="s92" d="m158 550l6-1v3l-1 5-8 1-1-2 1-4z"/>
		<path id="Path 751" class="s36" d="m640 554l4-4 11-1 1 7-6 2h-8z"/>
		<path id="Path 752" class="s57" d="m108 553v-3h8l-3 6h-3z"/>
		<path id="Path 753" class="s86" d="m266 557l2-7 6 2 2 5v3l-3 1-1-3z"/>
		<path id="Path 754" class="s88" d="m276 557l4-7 5 5v6l-1 8-2 2-6-5v-6z"/>
		<path id="Path 755" class="s18" d="m672 552l10-2-7 4-12 1 1-1z"/>
		<path id="Path 756" class="s19" d="m630 552l4-1 6 3 2 4v8l4 2v2h-18l-1-2 1-12z"/>
		<path id="Path 757" class="s49" d="m139 553l4-1h5 7l-1 4-10 2-5-1z"/>
		<path id="Path 758" class="s89" d="m163 557l1-5h4l2 10-3 1z"/>
		<path id="Path 759" class="s84" d="m207 558l3-5h7l2 15 9 2-1 14h-9l-7-8h-4v-2l3-2z"/>
		<path id="Path 760" class="s4" d="m285 555l1-1h2l1 4 6 2v2l-10-1z"/>
		<path id="Path 761" class="s75" d="m409 557l1-3h4l14 4v8l-4 3-14 1z"/>
		<path id="Path 762" class="s18" d="m656 556l5-1-9 5-2-2z"/>
		<path id="Path 763" class="s7" d="m776 556l-3-1h1z"/>
		<path id="Path 764" class="s59" d="m104 563l6-7h3l1 4 9-1h1l3 1 1 3 14 1 1 10h-12l-1 8-20-4h-6l-1-11z"/>
		<path id="Path 765" class="s84" d="m127 560l3-4 9 1 5 1v6h-2l-14-1z"/>
		<path id="Path 766" class="s82" d="m144 558l10-2 1 2-3 6h-8z"/>
		<path id="Path 767" class="s79" d="m428 558l8-2 3 9 10 3 5 9-2 3-11-1-3-8-10-5z"/>
		<path id="Path 768" class="s11" d="m618 568v-12h10l-1 12z"/>
		<path id="Path 769" class="s38" d="m793 560l-13-1-1-3 10 2z"/>
		<path id="Path 770" class="s87" d="m155 558l8-1 4 6v6l7 4 3 8-7 3-9-3v-3l-9-7v-7z"/>
		<path id="Path 771" class="s55" d="m264 559l2-2 6 1 1 3-3 6h-1l-6-2z"/>
		<path id="Path 772" class="s84" d="m394 574l4-6v-9l11-2 1 13-7 1-3 5z"/>
		<path id="Path 773" class="s57" d="m202 572l2-14h3l3 14-3 2z"/>
		<path id="Path 774" class="s60" d="m255 575l1-14 4-3 4 1-1 6-4 8-2 2z"/>
		<path id="Path 775" class="s34" d="m646 568l-4-2v-8h8l2 2v2 2z"/>
		<path id="Path 776" class="s94" d="m273 561l3-1v6l-4 2-2-1z"/>
		<path id="Path 777" class="s34" d="m295 562v-2h3l12 2 3 10-2 5-3 1-8-8z"/>
		<path id="Path 778" class="s73" d="m578 580l-2-17 6-3 12 2v12l-4 8-5 1h-4z"/>
		<path id="Path 779" class="s71" d="m284 569l1-8 10 1 5 8-4 3z"/>
		<path id="Path 780" class="s41" d="m76 574v-10l6-2v1l-1 4-3 1 1 7v2h-1z"/>
		<path id="Path 781" class="s95" d="m82 563v-1h14v1l-7 1z"/>
		<path id="Path 782" class="s9" d="m652 564v-2h6v2h-2z"/>
		<path id="Path 783" class="s30" d="m658 564v-2l16 2z"/>
		<path id="Path 784" class="s23" d="m914 564l8-2v3l-5 2z"/>
		<path id="Path 785" class="s26" d="m81 567l1-4 7 1 3 3-2 5-6-1z"/>
		<path id="Path 786" class="s43" d="m89 564l7-1h8l-1 4h-11z"/>
		<path id="Path 787" class="s81" d="m143 574l-1-10h2 8v7l9 7v3l9 3v8l-1 2-7-1-2-7-6-4h-7v-6z"/>
		<path id="Path 788" class="s37" d="m646 568l6-4h4v11l5 5 15 3 6 6-2 4-3 11v2l-6-5h-7v-3-13l-3-3h-12v-3l-4-1 1-8z"/>
		<path id="Path 789" class="s42" d="m682 589l-6-6-15-3-5-5v-11h2 16 4v6l8 5 1 5v2z"/>
		<path id="Path 790" class="s44" d="m686 575l-8-5v-6h5l5 2v7z"/>
		<path id="Path 791" class="s38" d="m688 573v-7l-5-2 6 1v8z"/>
		<path id="Path 792" class="s24" d="m259 573l4-8 6 2-4 7z"/>
		<path id="Path 793" class="s50" d="m809 570l-6-1-2-4 7 3z"/>
		<path id="Path 794" class="s87" d="m272 568l4-2 6 5v5l-5 4h-6z"/>
		<path id="Path 795" class="s92" d="m344 578l12-4 2-4h8l1-4h10l8 11-6 9-1 11-12 1v-7l-6-2-16-5z"/>
		<path id="Path 796" class="s88" d="m424 569l4-3 10 5 3 8 11 1v16h-9z"/>
		<path id="Path 797" class="s54" d="m79 575l-1-7 3-1 3 4z"/>
		<path id="Path 798" class="s66" d="m90 572l2-5h11l1 11h-6z"/>
		<path id="Path 799" class="s59" d="m265 574l4-7h1l2 1-1 12-6 5-3-4z"/>
		<path id="Path 800" class="s72" d="m541 569l1-2 4 2-4 2z"/>
		<path id="Path 801" class="s36" d="m609 574l3-5 6-1h9l1 2v12l-18-2z"/>
		<path id="Path 802" class="s66" d="m282 571l2-2 12 4v7h-6l-8-4z"/>
		<path id="Path 803" class="s77" d="m410 570l14-1 19 27h9l11 14-2 4-24-2-4-6-5 2h-11l-1-2v-6l-6-2v-6l-10-4v-12l3-5z"/>
		<path id="Path 804" class="s61" d="m518 576l1-6 22-1 1 2-3 15-4 2-5-3-3-9z"/>
		<path id="Path 805" class="s60" d="m542 571l4-2h8l5 11 6 4-9 9-17-7z"/>
		<path id="Path 806" class="s11" d="m296 573l4-3 8 8v5l-5 1-1-4h-6z"/>
		<path id="Path 807" class="s40" d="m628 582v-12h18l-1 8-1 3-8 1z"/>
		<path id="Path 808" class="s96" d="m812 573l-3-3 4 3z"/>
		<path id="Path 809" class="s15" d="m838 586l1-16h8l3 3v15 5l-2-1-10-4z"/>
		<path id="Path 810" class="s41" d="m917 573v-3l5 4z"/>
		<path id="Path 811" class="s86" d="m79 575l5-4 6 1 8 6 1 8-2 2h-2-3l-2-2h-2l-2-1-3-3-4-5z"/>
		<path id="Path 812" class="s93" d="m200 573l2-1 5 2v2l-5 3v7l-2 2h-6l-1-4z"/>
		<path id="Path 813" class="s56" d="m311 577l2-5h9l2 4v1z"/>
		<path id="Path 814" class="s14" d="m257 575l2-2 6 1-3 7-4 2-3-1z"/>
		<path id="Path 815" class="s6" d="m686 575l2-2h1l-2 7z"/>
		<path id="Path 816" class="s25" d="m822 581l-3 1-7-9h1z"/>
		<path id="Path 817" class="s46" d="m918 581l-1-8 5 1h3l6 4-2 4z"/>
		<path id="Path 818" class="s57" d="m130 582l1-8h12l4 2v6l-1 4z"/>
		<path id="Path 819" class="s75" d="m390 577l4-3 6 2v12l2 10-8-4v-10z"/>
		<path id="Path 820" class="s26" d="m590 582l4-8 6 3-5 7h-5z"/>
		<path id="Path 821" class="s51" d="m600 577l9-3 1 6v6l8 4v6h-5l-7 8v8l-8 8 2 27v7h-6l-15-13v-5l-6-5-1-17v-6h6 6l12-10-1-14z"/>
		<path id="Path 822" class="s41" d="m931 578l-6-4 6 3z"/>
		<path id="Path 823" class="s59" d="m247 582l8-7h2l-2 7-5 4z"/>
		<path id="Path 824" class="s94" d="m202 586v-7l5-3h4l7 8-2 10-10-2v-4z"/>
		<path id="Path 825" class="s61" d="m277 580l5-4 8 4v6l-2 2h-10z"/>
		<path id="Path 826" class="s57" d="m324 577v-1l20 2v6h-6-14z"/>
		<path id="Path 827" class="s74" d="m530 596l-13-11 1-9h9l3 9 5 3 1 8z"/>
		<path id="Path 828" class="s39" d="m83 582l-5-5h1z"/>
		<path id="Path 829" class="s59" d="m308 578l3-1h13v7 4l-6-3-4 3-6-5z"/>
		<path id="Path 830" class="s81" d="m379 586l6-9h5l4 7v10h-6z"/>
		<path id="Path 831" class="s87" d="m452 580l2-3 9 8v7h9l3-8 3-3 14-1 7 4v3l-3 5v14l-33 4-11-14z"/>
		<path id="Path 832" class="s1" d="m931 578v-1l3 2z"/>
		<path id="Path 833" class="s10" d="m99 586l-1-8h6 6v8z"/>
		<path id="Path 834" class="s56" d="m110 586v-8l20 4 16 4 1 8-2 3-9 1-6-1-3-6z"/>
		<path id="Path 835" class="s43" d="m644 581l1-3 4 1v3z"/>
		<path id="Path 836" class="s40" d="m898 586l-7-5v-3l7 2v4z"/>
		<path id="Path 837" class="s82" d="m929 582l2-4 3 1-1 4h-4z"/>
		<path id="Path 838" class="s1" d="m929 583h4l1-4h2v4l-7 1z"/>
		<path id="Path 839" class="s60" d="m265 585l6-5h6l1 8-4 4h-9z"/>
		<path id="Path 840" class="s68" d="m290 586v-6h6 6l1 4-1 4z"/>
		<path id="Path 841" class="s11" d="m569 584l3-4h6l3 3-1 5h-10z"/>
		<path id="Path 842" class="s46" d="m618 596v-6l-8-4v-6l18 2h8v6l-4 8z"/>
		<path id="Path 843" class="s68" d="m170 584l7-3 14 3-3 4-18 4z"/>
		<path id="Path 844" class="s31" d="m258 583l4-2 3 4v7l-2 1-5-3z"/>
		<path id="Path 845" class="s42" d="m636 582l8-1 5 1h12l3 3v13h-6l-6-7-16-3z"/>
		<path id="Path 846" class="s50" d="m929 584h-12l-1-3h2l11 1v1z"/>
		<path id="Path 847" class="s60" d="m146 586l1-4h7l6 4 2 7-15 1z"/>
		<path id="Path 848" class="s21" d="m242 586l5-4 3 4v3l-4 5-14 3 2-5 6-2z"/>
		<path id="Path 849" class="s43" d="m250 586l5-4 3 1v7l-4 1-4-2z"/>
		<path id="Path 850" class="s19" d="m585 583l5-1v2l-1 3h-4z"/>
		<path id="Path 851" class="s50" d="m682 589l5-7-5 11h-2z"/>
		<path id="Path 852" class="s81" d="m303 584l5-1 6 5v4l-12-4z"/>
		<path id="Path 853" class="s89" d="m463 585l12-1-3 8h-9z"/>
		<path id="Path 854" class="s28" d="m580 588l1-5h4v4l-5 2z"/>
		<path id="Path 855" class="s56" d="m188 588l3-4h2l1 4-5 2z"/>
		<path id="Path 856" class="s81" d="m216 594l2-10h9l5 4 2 4-2 5-11 7-5-3z"/>
		<path id="Path 857" class="s79" d="m324 588v-4h14v8l-1 2h-5-6z"/>
		<path id="Path 858" class="s75" d="m338 592v-8h6l16 5v11l-8 2-8-10z"/>
		<path id="Path 859" class="s26" d="m556 593l9-9h4l1 4-2 20-4 2v4h-2-4l-4-6v-7z"/>
		<path id="Path 860" class="s36" d="m585 587h4l1-3h5l1 14-12 10h-6l2-19z"/>
		<path id="Path 861" class="s30" d="m898 586v-2l4 3v1z"/>
		<path id="Path 862" class="s39" d="m88 587l-2-2 2 1z"/>
		<path id="Path 863" class="s68" d="m314 588l4-3 6 3 2 6-1 2h-11v-4z"/>
		<path id="Path 864" class="s38" d="m88 587v-1h2v2z"/>
		<path id="Path 865" class="s6" d="m90 588v-2l2 2z"/>
		<path id="Path 866" class="s49" d="m97 588l2-2h11l17 5 3 6v5h-13l-3-2-14-8z"/>
		<path id="Path 867" class="s84" d="m200 588l2-2 4 2v4h-4z"/>
		<path id="Path 868" class="s87" d="m232 588l2-2h8l-2 4-6 2z"/>
		<path id="Path 869" class="s75" d="m288 588l2-2 12 2 12 4v4 10l5 4v4l-6 5-10 1-1-2-7 2h-3l-1-10 1-13-4-3z"/>
		<path id="Path 870" class="s65" d="m378 597l1-11 9 8h6l8 4v4l-10 6-4-1v-5l-6-2z"/>
		<path id="Path 871" class="s72" d="m535 588l4-2 17 7-2 8h-6-6l-6-1v-4z"/>
		<path id="Path 872" class="s93" d="m834 588l-3-2h7v2z"/>
		<path id="Path 873" class="s88" d="m496 606v-14l3-5 5 1v18z"/>
		<path id="Path 874" class="s33" d="m902 588v-1l5 2z"/>
		<path id="Path 875" class="s38" d="m95 590l-5-2h2 3z"/>
		<path id="Path 876" class="s6" d="m95 590v-2h2l3 4h-2z"/>
		<path id="Path 877" class="s4" d="m170 592l18-4 1 2-8 6v5l19 3v8l-2 4-7-1-2-1-20-20z"/>
		<path id="Path 878" class="s94" d="m189 590l5-2h6l2 4v12h-2l-19-3v-5z"/>
		<path id="Path 879" class="s74" d="m274 592l4-4h10v6l4 3-1 13h-7l-5-10-1-4h-4z"/>
		<path id="Path 880" class="s79" d="m402 598l-2-10 10 4v6l-4 4h-4z"/>
		<path id="Path 881" class="s19" d="m568 608l2-20h10v1l-2 19h-6z"/>
		<path id="Path 882" class="s15" d="m632 596l4-8 16 3 6 7v6l-4 8-17-8z"/>
		<path id="Path 883" class="s8" d="m838 588l-1 2-3-2z"/>
		<path id="Path 884" class="s13" d="m850 593v-5l11 2-1 10h-2z"/>
		<path id="Path 885" class="s47" d="m246 594l4-5 4 2v8l-4 3-4-3z"/>
		<path id="Path 886" class="s81" d="m360 600v-11l6 2v7z"/>
		<path id="Path 887" class="s33" d="m913 592l-4-3 6 1 2 4h-1z"/>
		<path id="Path 888" class="s34" d="m254 591l4-1 5 3v3 3l-5 1-4-1z"/>
		<path id="Path 889" class="s7" d="m114 600l-16-8h2z"/>
		<path id="Path 890" class="s92" d="m202 604v-12h4l10 2v7l5 3-3 5-8 1-3-6z"/>
		<path id="Path 891" class="s75" d="m263 593l2-1h9v4h-2-9z"/>
		<path id="Path 892" class="s65" d="m337 594l1-2h6l8 10-8 6h-4v-11z"/>
		<path id="Path 893" class="s8" d="m858 600l-6-1-4-7 2 1z"/>
		<path id="Path 894" class="s49" d="m147 594l15-1 7 1 20 20-7 1-5-2-9-3h-3l-9-4-8-1-12-3v-4l9-1z"/>
		<path id="Path 895" class="s18" d="m677 604l3-11h2z"/>
		<path id="Path 896" class="s31" d="m232 597l14-3v5l4 3-2 10h-8l-2-4-8 2-12-1 3-5z"/>
		<path id="Path 897" class="s88" d="m325 596l1-2h6v10l-6-3z"/>
		<path id="Path 898" class="s74" d="m332 604v-10h5l3 3v11l-8 2z"/>
		<path id="Path 899" class="s96" d="m927 608l1-5-11-9 14 8v4l-3 2z"/>
		<path id="Path 900" class="s72" d="m258 600l5-1v-3h9v4l-9 6-5-2z"/>
		<path id="Path 901" class="s82" d="m272 600v-4h2 4l1 4z"/>
		<path id="Path 902" class="s79" d="m319 610l-5-4v-10h11l1 5 6 3v6l-5 1z"/>
		<path id="Path 903" class="s66" d="m529 600l1-4h6v4h-4z"/>
		<path id="Path 904" class="s37" d="m600 647l-2-27 8-8v-8l7-8h5 14l5 8 17 8v33l-2 7 4 36v8 7h-7l-1-1-1-1-3-3-2-2-3-1-2-2v-2l3-3v-12l-6-6h-4v-5l-16-16z"/>
		<path id="Path 905" class="s30" d="m648 702h1v1h-1z"/>
		<path id="Path 906" class="s30" d="m647 701h1v1h-1z"/>
		<path id="Path 907" class="s4" d="m130 602v-5l6 1v4z"/>
		<path id="Path 908" class="s21" d="m366 598l12-1 4 3v7l-6 4 4 5v4h-2l-7-4-17 1-10-1v-8l8-6 8-2z"/>
		<path id="Path 909" class="s74" d="m406 602l4-4 6 2v6h-9z"/>
		<path id="Path 910" class="s13" d="m658 604v-6h6v3 3z"/>
		<path id="Path 911" class="s35" d="m250 602l4-3 4 1v4l5 2v4l12 10h-8l-10-2-5-6h-4z"/>
		<path id="Path 912" class="s33" d="m861 600l5 3v1z"/>
		<path id="Path 913" class="s79" d="m263 606l9-6h7l5 10h7l1 10-2 1-12-1h-3l-12-10z"/>
		<path id="Path 914" class="s59" d="m382 607v-7l6 2v5z"/>
		<path id="Path 915" class="s21" d="m526 610v-9l3-1h3v9z"/>
		<path id="Path 916" class="s35" d="m532 609v-9h4l6 1 1 7-5 2h-4z"/>
		<path id="Path 917" class="s35" d="m548 601h6v7h-6z"/>
		<path id="Path 918" class="s25" d="m117 602h13v2z"/>
		<path id="Path 919" class="s11" d="m543 608l-1-7h6v7z"/>
		<path id="Path 920" class="s17" d="m664 604v-3h7l6 5v2l-1 6h-4l-2-7z"/>
		<path id="Path 921" class="s20" d="m130 604v-2h6l12 3z"/>
		<path id="Path 922" class="s63" d="m392 608l10-6h4l1 4 1 6v10h-6l-2-1-8-3z"/>
		<path id="Path 923" class="s2" d="m931 606v-4l3 2-2 3z"/>
		<path id="Path 924" class="s7" d="m866 604v-1l3 1 9 6z"/>
		<path id="Path 925" class="s57" d="m200 612v-8h2 5l3 6v2h-4z"/>
		<path id="Path 926" class="s43" d="m654 612l4-8h6l6 3 2 7h4v7l-1 4-3 17v3l-4 9-12-2-2-7z"/>
		<path id="Path 927" class="s63" d="m878 610l-9-6 19 6 1 2h-2-4z"/>
		<path id="Path 928" class="s38" d="m156 607l-8-2 8 1z"/>
		<path id="Path 929" class="s22" d="m156 607v-1l9 4z"/>
		<path id="Path 930" class="s71" d="m408 612l-1-6h9l1 2-3 4z"/>
		<path id="Path 931" class="s73" d="m428 608l5-2 4 6-1 4h-8z"/>
		<path id="Path 932" class="s81" d="m463 610l33-4h8l4 8v1l-15 1h-3l-14-1-14-1h-1z"/>
		<path id="Path 933" class="s7" d="m928 608l3-2 1 1z"/>
		<path id="Path 934" class="s68" d="m380 616l-4-5 6-4h6l4 1v10z"/>
		<path id="Path 935" class="s34" d="m230 610l8-2 2 4v6h-9-1z"/>
		<path id="Path 936" class="s11" d="m332 610l8-2h4v8l-6 3-2 5-2-1-1-1v-1-5l-6-3v-2z"/>
		<path id="Path 937" class="s80" d="m408 612h6l3-4h11v8 2l-8 1-2 5-10-2z"/>
		<path id="Path 938" class="s12" d="m538 610l5-2h5 6l4 6-4 8h-6l-1-5-9-3z"/>
		<path id="Path 939" class="s36" d="m564 614v-4l4-2h4v6z"/>
		<path id="Path 940" class="s18" d="m676 614l1-6v13h-1z"/>
		<path id="Path 941" class="s55" d="m210 610l8-1 12 1v8h-2-1l-6-2-4 2-7-1v-5z"/>
		<path id="Path 942" class="s12" d="m526 610l6-1 2 1v4h-3l-6-2z"/>
		<path id="Path 943" class="s62" d="m319 614v-4l8 1v2l-6 1z"/>
		<path id="Path 944" class="s34" d="m534 614v-4h4v4z"/>
		<path id="Path 945" class="s26" d="m889 612l-1-2 10 2-1 1z"/>
		<path id="Path 946" class="s53" d="m916 612l3-1-5 4-6 1v-1-1z"/>
		<path id="Path 947" class="s86" d="m198 616l2-4h6l2 5-6 1-1-1z"/>
		<path id="Path 948" class="s38" d="m201 617h1v1h-1z"/>
		<path id="Path 949" class="s24" d="m208 617l-2-5h4v5z"/>
		<path id="Path 950" class="s45" d="m240 618v-6h8 4l5 6-1 2h-7z"/>
		<path id="Path 951" class="s49" d="m436 616l1-4 24 2h1v6h-2l-14-2h-3-2-1z"/>
		<path id="Path 952" class="s47" d="m521 614l4-2 6 2v5h-9z"/>
		<path id="Path 953" class="s23" d="m887 614l-4-2h4z"/>
		<path id="Path 954" class="s25" d="m887 614v-2h2l8 1v1z"/>
		<path id="Path 955" class="s69" d="m897 613l1-1 8 1v1h-9z"/>
		<path id="Path 956" class="s66" d="m907 613l9-1-8 2z"/>
		<path id="Path 957" class="s34" d="m321 614l6-1 6 3v5l-4-2h-4z"/>
		<path id="Path 958" class="s39" d="m906 614v-1h1l1 1v1z"/>
		<path id="Path 959" class="s91" d="m182 615l7-1 2 1z"/>
		<path id="Path 960" class="s48" d="m313 619l6-5h2l4 5-2 2h-10z"/>
		<path id="Path 961" class="s31" d="m462 620v-6l14 1v5h-5z"/>
		<path id="Path 962" class="s21" d="m508 615v-1h13l1 5v1l-6 1h-1l-1-4h-5z"/>
		<path id="Path 963" class="s54" d="m531 619v-5h3 4l9 3 1 5-4 2-3-1-8-2z"/>
		<path id="Path 964" class="s42" d="m554 622l4-8h4v10h-8z"/>
		<path id="Path 965" class="s12" d="m562 624v-10h2 8l1 17 6 5v5l15 13v4l-3 3h-6l-7-5v-1-7l-12-10z"/>
		<path id="Path 966" class="s34" d="m476 620v-5l14 1v4l-2 1h-12z"/>
		<path id="Path 967" class="s28" d="m493 616l15-1 1 2-1 3-4 1-11-1z"/>
		<path id="Path 968" class="s16" d="m217 618l4-2 6 2-9 1z"/>
		<path id="Path 969" class="s71" d="m336 624l2-5 6-3 10 1 3 16-7 10h-1l-6-6-2-2-2-3-2-4z"/>
		<path id="Path 970" class="s78" d="m354 617l17-1 7 4 2 10 1 7 9 3 10 5 11 6 1 21h-4l-24-13-27-26z"/>
		<path id="Path 971" class="s67" d="m380 620v-4l12 2 8 3-2 3z"/>
		<path id="Path 972" class="s67" d="m428 618v-2h8l4 2v7 1h-5z"/>
		<path id="Path 973" class="s32" d="m490 620v-4h3v4h-2z"/>
		<path id="Path 974" class="s38" d="m202 618l6-1h2l7 1 1 1z"/>
		<path id="Path 975" class="s47" d="m508 620l1-3h5l1 4z"/>
		<path id="Path 976" class="s16" d="m231 620l-3-2h2 1z"/>
		<path id="Path 977" class="s30" d="m231 620v-2h9l9 2z"/>
		<path id="Path 978" class="s97" d="m256 620l1-2 10 2z"/>
		<path id="Path 979" class="s4" d="m295 620l7-2 1 2h-3z"/>
		<path id="Path 980" class="s83" d="m418 624l2-5 8-1 7 8h5v8h-6l1 2 2 2v2l2 2 3 6v16h-8l-1-5h-9l-6-4 2-15-1-10 2-3z"/>
		<path id="Path 981" class="s16" d="m440 625v-7h1v7z"/>
		<path id="Path 982" class="s16" d="m446 620l-3-2h3z"/>
		<path id="Path 983" class="s30" d="m446 620v-2l14 2z"/>
		<path id="Path 984" class="s96" d="m303 620l10-1v2l-13 1v-2z"/>
		<path id="Path 985" class="s95" d="m323 621l2-2h4v1z"/>
		<path id="Path 986" class="s58" d="m329 620v-1l4 2v1z"/>
		<path id="Path 987" class="s96" d="m522 620v-1h9l2 2v1z"/>
		<path id="Path 988" class="s25" d="m290 622l-12-2 12 1z"/>
		<path id="Path 989" class="s9" d="m290 621l2-1h3 5v2h-10z"/>
		<path id="Path 990" class="s71" d="m380 630l-2-10h2l18 4 3 2-2 12-7-2z"/>
		<path id="Path 991" class="s9" d="m476 622l-5-2h5v1z"/>
		<path id="Path 992" class="s0" d="m488 621l2-1h1l-3 2z"/>
		<path id="Path 993" class="s16" d="m504 622l-11-2 11 1z"/>
		<path id="Path 994" class="s95" d="m504 621l4-1 7 1h1v1h-12z"/>
		<path id="Path 995" class="s2" d="m516 621l6-1-6 2z"/>
		<path id="Path 996" class="s26" d="m398 624l2-3 2 1v4h-1z"/>
		<path id="Path 997" class="s95" d="m476 622v-1h12v1z"/>
		<path id="Path 998" class="s58" d="m533 622v-1l8 2v1z"/>
		<path id="Path 999" class="s7" d="m675 625l1-4h1l-1 4z"/>
		<path id="Path 1000" class="s40" d="m402 626v-4h6l10 2 3 3-2 3z"/>
		<path id="Path 1001" class="s44" d="m544 624l4-2h6v2l2 13-1 1h-4l-5-6v-3z"/>
		<path id="Path 1002" class="s58" d="m337 628l-3-1v-4l2 1z"/>
		<path id="Path 1003" class="s25" d="m541 624v-1l3 1 2 5z"/>
		<path id="Path 1004" class="s51" d="m556 637l-2-13h8l4 14h-4-1z"/>
		<path id="Path 1005" class="s18" d="m440 626v-1h1v10l-6 1-1-2h6z"/>
		<path id="Path 1006" class="s69" d="m672 642l3-17h1v10z"/>
		<path id="Path 1007" class="s78" d="m399 638l2-12h1l17 4 1 10h-10l-2 3-6-1z"/>
		<path id="Path 1008" class="s40" d="m390 640l-9-3-1-7 12 6z"/>
		<path id="Path 1009" class="s10" d="m548 638l-2-6 5 6h4l-1 5-3-1z"/>
		<path id="Path 1010" class="s68" d="m350 643l7-10 27 26-3 5h-6l-6-1-1-1-2-2-3-3-2-2-2-2-1-1-2-2-3-3-2-2z"/>
		<path id="Path 1011" class="s7" d="m368 662h1v1h-1z"/>
		<path id="Path 1012" class="s51" d="m390 640l2-4 7 2 3 4-2 3z"/>
		<path id="Path 1013" class="s25" d="m555 638l1-1 5 1-1 1-4 1v5h-5v-3l3 1z"/>
		<path id="Path 1014" class="s18" d="m560 639l1-1h1v2h-1z"/>
		<path id="Path 1015" class="s19" d="m562 640v-2h4l12 10v7h-2l-1-1-5-6z"/>
		<path id="Path 1016" class="s30" d="m575 654h1v1h-1z"/>
		<path id="Path 1017" class="s73" d="m408 643l2-3h10l-2 15 6 4h9l1 5-2 12-4 3-16-7-1-21 1-4z"/>
		<path id="Path 1018" class="s16" d="m569 648l-8-8h1l8 8z"/>
		<path id="Path 1019" class="s40" d="m400 645l2-3 6 1 4 4-1 4z"/>
		<path id="Path 1020" class="s22" d="m351 645l-2-2h1z"/>
		<path id="Path 1021" class="s42" d="m652 652l2-7 2 7z"/>
		<path id="Path 1022" class="s38" d="m668 654l4-9-3 10h-1z"/>
		<path id="Path 1023" class="s46" d="m600 654v-7l14 2 16 16v5 6l-4 4h-2l-11-10h-1l-5-3-1-1z"/>
		<path id="Path 1024" class="s7" d="m575 655l-6-3v-4h1l5 6z"/>
		<path id="Path 1025" class="s17" d="m656 688l-4-36h4l12 2v1 7l-1 11v3l-2 6v5l-1 1z"/>
		<path id="Path 1026" class="s31" d="m594 658v-4h6l6 12-5-1-3-3z"/>
		<path id="Path 1027" class="s7" d="m578 657l-2-2h2v1z"/>
		<path id="Path 1028" class="s29" d="m668 662v-7h1v7z"/>
		<path id="Path 1029" class="s30" d="m578 657v-1l7 5v2z"/>
		<path id="Path 1030" class="s30" d="m591 661l3-3 4 4-6-1z"/>
		<path id="Path 1031" class="s74" d="m381 664l3-5 24 13v11l-7-1-8-7-4-2-1-1-5-4z"/>
		<path id="Path 1032" class="s53" d="m585 663v-2h6 1v4z"/>
		<path id="Path 1033" class="s38" d="m667 673l1-11h1z"/>
		<path id="Path 1034" class="s7" d="m377 667l-8-4 6 1z"/>
		<path id="Path 1035" class="s3" d="m375 664h6l2 4-5-1h-1z"/>
		<path id="Path 1036" class="s78" d="m432 676l2-12h8v6l-4 6z"/>
		<path id="Path 1037" class="s22" d="m606 667l-5-2 5 1 1 1z"/>
		<path id="Path 1038" class="s9" d="m388 672l-10-5 5 1z"/>
		<path id="Path 1039" class="s39" d="m612 670l-6-3h1z"/>
		<path id="Path 1040" class="s39" d="m438 676l4-6-1 7-4 3z"/>
		<path id="Path 1041" class="s6" d="m623 680l-10-10 11 10z"/>
		<path id="Path 1042" class="s44" d="m626 680l4-4v-6h4l6 6v12l-3 3-5-3z"/>
		<path id="Path 1043" class="s76" d="m408 683v-11h4l16 7v7h-2l-13-1-5-1z"/>
		<path id="Path 1044" class="s80" d="m428 679l4-3h6l-1 4-1 5h-4l-4 1z"/>
		<path id="Path 1045" class="s41" d="m631 688l-8-8h1 2l6 8z"/>
		<path id="Path 1046" class="s39" d="m426 687l-13-2 13 1z"/>
		<path id="Path 1047" class="s22" d="m428 686l4-1-6 2v-1z"/>
		<path id="Path 1048" class="s95" d="m664 688l1-1v10l-1-1z"/>
		<path id="Path 1049" class="s6" d="m637 693l-6-5h1l5 3z"/>
		<path id="Path 1050" class="s44" d="m656 696v-8h8v8z"/>
		<path id="Path 1051" class="s39" d="m642 698l-3-3 3 1z"/>
		<path id="Path 1052" class="s41" d="m642 698v-2l2 2h-1z"/>
		<path id="Path 1053" class="s47" d="m656 703v-7h8l1 1v4l-2 2z"/>
		<path id="Path 1054" class="s23" d="m648 703l-4-1-1-4h1l3 3 1 1z"/>
		<path id="Path 1055" class="s25" d="m663 703l2-2 1 2z"/>
	</g>
</svg>