<svg version="1.2" xmlns="http://www.w3.org/2000/svg" viewBox="0 0 1000 1000" width="1000" height="1000">
	<title>Morone_americana</title>
	<style>
		.s0 { opacity: .1;fill: #d3d9d3 } 
		.s1 { opacity: .1;fill: #ebf0ec } 
		.s2 { opacity: .4;fill: #b8c0b8 } 
		.s3 { opacity: .3;fill: #9da69c } 
		.s4 { opacity: .1;fill: #8e978a } 
		.s5 { opacity: .4;fill: #858f82 } 
		.s6 { opacity: .4;fill: #505a48 } 
		.s7 { opacity: .2;fill: #768072 } 
		.s8 { fill: #6b796c } 
		.s9 { fill: #707e71 } 
		.s10 { opacity: .8;fill: #6b7768 } 
		.s11 { fill: #3b4b3d } 
		.s12 { fill: #4e5c4d } 
		.s13 { fill: #2c3523 } 
		.s14 { fill: #425142 } 
		.s15 { opacity: .7;fill: #d1d7d1 } 
		.s16 { fill: #343e2b } 
		.s17 { fill: #637163 } 
		.s18 { fill: #525a42 } 
		.s19 { fill: #536254 } 
		.s20 { fill: #7b877a } 
		.s21 { fill: #464e36 } 
		.s22 { fill: #5e6247 } 
		.s23 { opacity: .2;fill: #bcc4bd } 
		.s24 { opacity: .1;fill: #a6aea5 } 
		.s25 { fill: #a0aaa0 } 
		.s26 { opacity: .5;fill: #dae0da } 
		.s27 { opacity: .3;fill: #cdd4cd } 
		.s28 { fill: #5e6751 } 
		.s29 { opacity: .7;fill: #bcc4bc } 
		.s30 { fill: #5b5937 } 
		.s31 { opacity: .9;fill: #848e82 } 
		.s32 { fill: #59675a } 
		.s33 { fill: #3e4024 } 
		.s34 { opacity: .7;fill: #a4ada4 } 
		.s35 { fill: #5f6c5e } 
		.s36 { fill: #485647 } 
		.s37 { fill: #324131 } 
		.s38 { opacity: .4;fill: #e9ede9 } 
		.s39 { opacity: .9;fill: #929c92 } 
		.s40 { fill: #687567 } 
		.s41 { fill: #374636 } 
		.s42 { opacity: .7;fill: #65705e } 
		.s43 { opacity: .9;fill: #737f74 } 
		.s44 { opacity: .8;fill: #838d80 } 
		.s45 { fill: #859185 } 
		.s46 { opacity: 1;fill: #9aa59b } 
		.s47 { fill: #808c80 } 
		.s48 { opacity: .7;fill: #949e93 } 
		.s49 { fill: #758276 } 
		.s50 { fill: #222d1e } 
		.s51 { fill: #8b958a } 
		.s52 { opacity: .6;fill: #eaefeb } 
		.s53 { fill: #8f9a90 } 
		.s54 { opacity: .5;fill: #acb4ac } 
		.s55 { fill: #959f95 } 
		.s56 { opacity: .9;fill: #b4bcb5 } 
		.s57 { fill: #abb3ab } 
		.s58 { opacity: .6;fill: #838e82 } 
		.s59 { fill: #b5bdb4 } 
		.s60 { fill: #69715b } 
		.s61 { opacity: .9;fill: #ccd3cd } 
		.s62 { opacity: .2;fill: #656c58 } 
		.s63 { fill: #848b76 } 
		.s64 { fill: #737a63 } 
		.s65 { fill: #8f9480 } 
		.s66 { fill: #c0c8c0 } 
		.s67 { fill: #989e8c } 
		.s68 { fill: #ccd4cd } 
		.s69 { fill: #b1b8ae } 
		.s70 { fill: #a1a998 } 
		.s71 { fill: #a6afa6 } 
		.s72 { fill: #c6cdc6 } 
		.s73 { fill: #6c7560 } 
		.s74 { fill: #7a826d } 
		.s75 { fill: #969577 } 
		.s76 { fill: #acb2a4 } 
		.s77 { fill: #bac2ba } 
		.s78 { fill: #d2d9d4 } 
		.s79 { fill: #d8dfda } 
		.s80 { fill: #9f9f85 } 
		.s81 { fill: #b5b399 } 
		.s82 { fill: #797957 } 
		.s83 { fill: #21362d } 
		.s84 { fill: #8d8b6c } 
		.s85 { fill: #6d6f52 } 
		.s86 { fill: #776f44 } 
		.s87 { fill: #aba278 } 
		.s88 { fill: #9d905d } 
		.s89 { fill: #6c673f } 
		.s90 { fill: #908352 } 
		.s91 { fill: #838464 } 
		.s92 { fill: #a39869 } 
		.s93 { fill: #dfe5e0 } 
		.s94 { fill: #acaa8c } 
	</style>
	<g id="Background">
		<path id="Path 0" class="s0" d="m174 504h1v1h-1z"/>
		<path id="Path 1" class="s0" d="m214 474h1v1h-1z"/>
		<path id="Path 2" class="s1" d="m438 377v-2h2l-1 2z"/>
		<path id="Path 3" class="s2" d="m439 377l1-2h3v2z"/>
		<path id="Path 4" class="s3" d="m443 377v-2h3v1z"/>
		<path id="Path 5" class="s4" d="m446 376v-1h9v1z"/>
		<path id="Path 6" class="s5" d="m455 376v-1h6v2h-6z"/>
		<path id="Path 7" class="s6" d="m461 377v-2h11v1 1h-5z"/>
		<path id="Path 8" class="s7" d="m472 376v-1h6v1z"/>
		<path id="Path 9" class="s2" d="m478 376v-1h2l3 5v1h-3v-1z"/>
		<path id="Path 10" class="s2" d="m878 546h1v1h-1z"/>
		<path id="Path 11" class="s2" d="m877 545h1v1h-1z"/>
		<path id="Path 12" class="s2" d="m876 544h1v1h-1z"/>
		<path id="Path 13" class="s8" d="m443 377l3-1h9v1l-1 2h-15v-2z"/>
		<path id="Path 14" class="s9" d="m472 377v-1h6l2 4-7-1z"/>
		<path id="Path 15" class="s10" d="m430 379l8-2h1v2l-1 1-9 1z"/>
		<path id="Path 16" class="s11" d="m454 379l1-2h6 6l1 5-1 11-12-2z"/>
		<path id="Path 17" class="s12" d="m468 382l-1-5h5l1 2z"/>
		<path id="Path 18" class="s2" d="m403 389l18-9 9-1-1 2-4 1-13 5-5 1z"/>
		<path id="Path 19" class="s13" d="m438 380l1-1h15l1 12h-6-6v-4l-5-2z"/>
		<path id="Path 20" class="s14" d="m468 382l5-3 7 1v1 4l4 2-6 7-11-1z"/>
		<path id="Path 21" class="s15" d="m483 380l8-1 1 5-9-3z"/>
		<path id="Path 22" class="s16" d="m429 381l9-1v5l5 2v4l-6 6h-10l-2-8v-7z"/>
		<path id="Path 23" class="s17" d="m484 387l-4-2v-4h3l9 3 1 3z"/>
		<path id="Path 24" class="s14" d="m412 387l13-5v7l-11 2z"/>
		<path id="Path 25" class="s0" d="m493 387l-1-3 4 3 1 8z"/>
		<path id="Path 26" class="s18" d="m407 388l5-1 2 4 1 10 1 12-1 8-1 6h-4l-1 4h-12l-2-15 9-25z"/>
		<path id="Path 27" class="s19" d="m478 394l6-7h9l4 8 2 4 3 3 2 2 3 5v1l1 6 13 5 3 7 1 1 6 2 4 8-2 7h-5l-3-4h-7l-11-6-1-14-8-5v-8l-5-4h-10-3z"/>
		<path id="Path 28" class="s20" d="m403 389l4-1-3 3h-4l2-2z"/>
		<path id="Path 29" class="s2" d="m381 394l21-5-2 2z"/>
		<path id="Path 30" class="s21" d="m414 391l11-2 2 8-12 4z"/>
		<path id="Path 31" class="s22" d="m381 394l19-3h4l-9 25-12 1 1-9-3-3-2-9 1-2z"/>
		<path id="Path 32" class="s18" d="m437 397l6-6h6v5l-1 13-9-2z"/>
		<path id="Path 33" class="s22" d="m449 396v-5h6v4z"/>
		<path id="Path 34" class="s18" d="m455 395v-4l12 2 11 1 2 11-14 4-2-9z"/>
		<path id="Path 35" class="s23" d="m593 394l17-2v1z"/>
		<path id="Path 36" class="s24" d="m610 393v-1h13v1z"/>
		<path id="Path 37" class="s1" d="m623 393v-1l3 2z"/>
		<path id="Path 38" class="s25" d="m593 394l17-1-10 2z"/>
		<path id="Path 39" class="s8" d="m600 395l10-2h13l3 1 8 13v2l4 9 4 12 7 14 3 5 1 3-8 3h-4l-8-7-6-15h-6v-13l-6-5-3-8h-6l-6-4z"/>
		<path id="Path 40" class="s2" d="m368 399l3-4 9-1-1 2z"/>
		<path id="Path 41" class="s26" d="m578 399l3-4 10-1z"/>
		<path id="Path 42" class="s19" d="m578 399l13-5h2l7 1v8l6 4 5 8h4l6 5v13l-2 12h-8v-6l-5-6-7-4h-12l-4-9v-12l-7-7 1-2z"/>
		<path id="Path 43" class="s27" d="m634 407l-8-13 8 6z"/>
		<path id="Path 44" class="s21" d="m449 396l6-1 9 5 2 9-3 8-7 1 1 5 2 8v5h-2l-12-2-4-4-3-8 10-13z"/>
		<path id="Path 45" class="s21" d="m368 399l11-3 2 9-6 1 2 11v6 7l-2 1h-6l-14 2-4 1-6-3-4-15 1-2 18-11z"/>
		<path id="Path 46" class="s28" d="m415 401l12-4h10l2 10 9 2-10 13h-13l-2-3 3-3-1-4-9 1z"/>
		<path id="Path 47" class="s2" d="m359 402l9-3-8 4z"/>
		<path id="Path 48" class="s2" d="m558 407l6-5 13-3-1 2-16 6z"/>
		<path id="Path 49" class="s18" d="m560 407l16-6 7 7v12l4 9v3h-2l-7-5h-12l-2 7-5 2-4-3v-22z"/>
		<path id="Path 50" class="s15" d="m341 414l3-5 15-7 1 1-18 11z"/>
		<path id="Path 51" class="s0" d="m504 404l-2-2 4 2z"/>
		<path id="Path 52" class="s29" d="m507 409l-3-5h2z"/>
		<path id="Path 53" class="s30" d="m377 417l-2-11 6-1 3 3-1 9z"/>
		<path id="Path 54" class="s28" d="m466 409l14-4h3v13l-2 1-16 1-2-3z"/>
		<path id="Path 55" class="s18" d="m483 418v-13h10l5 4v8l8 5 1 14-3 1-6-6h-8l-5-8z"/>
		<path id="Path 56" class="s31" d="m551 409l7-2h2l-5 4h-5z"/>
		<path id="Path 57" class="s32" d="m615 415h-4l-5-8h6z"/>
		<path id="Path 58" class="s24" d="m545 412l6-3-1 2-5 2z"/>
		<path id="Path 59" class="s27" d="m638 418l-4-9 5 9z"/>
		<path id="Path 60" class="s29" d="m524 428l-3-7-13-5-1-6 5 7 10 3 2 2v5z"/>
		<path id="Path 61" class="s28" d="m545 413l5-2h5v22h-6l-5-1-1-7v-11z"/>
		<path id="Path 62" class="s33" d="m416 413l9-1 1 4-3 3-8 2z"/>
		<path id="Path 63" class="s27" d="m531 420v-3l14-5v1l-2 1z"/>
		<path id="Path 64" class="s34" d="m339 415l2-1h1l-1 2h-2z"/>
		<path id="Path 65" class="s35" d="m531 420l12-6v11l-11 2-1-2z"/>
		<path id="Path 66" class="s26" d="m330 421l9-6v1l-9 6z"/>
		<path id="Path 67" class="s36" d="m330 422l9-6h2l4 15-1 3-3 2h-4l-12-3v-8-1z"/>
		<path id="Path 68" class="s21" d="m383 417l12-1 2 15-1 1-9-1h-3l-1-8z"/>
		<path id="Path 69" class="s18" d="m377 423v-6h6v6z"/>
		<path id="Path 70" class="s18" d="m457 423l-1-5 7-1 2 3-1 3z"/>
		<path id="Path 71" class="s21" d="m481 419l2-1 2 5h-3z"/>
		<path id="Path 72" class="s2" d="m642 430l-4-12h1z"/>
		<path id="Path 73" class="s14" d="m415 421l8-2 2 3h13l3 8-3 5h-3l-21-5v-3z"/>
		<path id="Path 74" class="s33" d="m465 420l16-1 1 4-7 6-10-2-1-4z"/>
		<path id="Path 75" class="s26" d="m529 427l2-7v5z"/>
		<path id="Path 76" class="s24" d="m324 424l6-3v1l-5 2z"/>
		<path id="Path 77" class="s36" d="m377 430v-7h6l1 8z"/>
		<path id="Path 78" class="s37" d="m459 431l-2-8h7l1 4v4z"/>
		<path id="Path 79" class="s14" d="m475 429l7-6h3l5 8-2 6h-12l-1-4z"/>
		<path id="Path 80" class="s3" d="m308 429l5-4 11-1h1v1l-13 3z"/>
		<path id="Path 81" class="s27" d="m884 425l5-1v1l-3 1h-2z"/>
		<path id="Path 82" class="s3" d="m889 425v-1h6v1z"/>
		<path id="Path 83" class="s38" d="m895 425v-1l4 3h-2z"/>
		<path id="Path 84" class="s11" d="m312 428l13-3v8l-9 1-8 11-9 2-14-1v-4l-6-3 11-5h1l6-2 5-1z"/>
		<path id="Path 85" class="s39" d="m529 427l2-2 1 2-1 4-6-2h2z"/>
		<path id="Path 86" class="s18" d="m532 427l11-2 1 7 5 1v6h-14l-4-8z"/>
		<path id="Path 87" class="s2" d="m873 427l7-2v2l-7 1z"/>
		<path id="Path 88" class="s6" d="m880 427v-2h4v1z"/>
		<path id="Path 89" class="s40" d="m886 426l3-1h6l2 2v1l-6-1z"/>
		<path id="Path 90" class="s11" d="m880 427l4-1h2l5 1v14l6 4v5 4 2l-1 1-2 7-2 5v1l-1 9-1 1-5 6-3 2-12 14-5 15v2l-2 10 2 1v1l2 3 3 6-13 1h-4l-1-5h-5l-2-5-8-2-4-18 10-9v-5l4-4-2-17 11-10 3-7h13l10-5 1-9-2-2-24 2-1-6 2-8 3-1 6-1 6-1z"/>
		<path id="Path 91" class="s14" d="m867 466l6 3 2 10-4 4-5-1z"/>
		<path id="Path 92" class="s0" d="m896 456h1v1h-1z"/>
		<path id="Path 93" class="s41" d="m409 431l1-4h4v3z"/>
		<path id="Path 94" class="s36" d="m465 431v-4l10 2v4h-6z"/>
		<path id="Path 95" class="s26" d="m524 428v-1l3 2h-2z"/>
		<path id="Path 96" class="s12" d="m559 436l5-2 2-7h12l7 5-3 20 5 3-1 4-22-4-2-3h-7l-2-11z"/>
		<path id="Path 97" class="s15" d="m861 429l6-2v2l-6 1z"/>
		<path id="Path 98" class="s42" d="m867 429v-2h6v1z"/>
		<path id="Path 99" class="s41" d="m897 445l-6-4v-14l6 1v1l2 3v12z"/>
		<path id="Path 100" class="s15" d="m897 428v-1h2v2h-2z"/>
		<path id="Path 101" class="s43" d="m308 429l4-1-10 3 3-2z"/>
		<path id="Path 102" class="s0" d="m296 432l9-3-3 2-5 1z"/>
		<path id="Path 103" class="s32" d="m587 432v-3h12l7 4 5 6v6l-2 9-12-1-5-16z"/>
		<path id="Path 104" class="s2" d="m834 439l17-9 10-1v1l-3 1-13 5-8 3z"/>
		<path id="Path 105" class="s44" d="m899 432l-2-3h2z"/>
		<path id="Path 106" class="s8" d="m375 431l2-1 7 1h3l3 11 7-5-1-5 1-1h12l5-1 21 5 2 10v5l-4 5-12 1v11l-3 6h-3l-3-4-11-2-4-5v-7l-7-1-10-13h-4z"/>
		<path id="Path 107" class="s40" d="m438 435l3-5 4 4 12 2 4 6v9l-2 1-18-2-1-5z"/>
		<path id="Path 108" class="s8" d="m344 434l1-3 6 3-2 3h-3z"/>
		<path id="Path 109" class="s8" d="m355 433l14-2v16l-4 4h-6l-3-13z"/>
		<path id="Path 110" class="s40" d="m365 451l4-4v-16h6l1 10 1 26h-8l-4-6z"/>
		<path id="Path 111" class="s20" d="m396 432l1 5-7 5-3-11z"/>
		<path id="Path 112" class="s35" d="m459 436v-5h6l4 2v7z"/>
		<path id="Path 113" class="s19" d="m488 437l2-6h8l6 6-3 6h-11z"/>
		<path id="Path 114" class="s19" d="m845 436l13-5-2 8-11 1z"/>
		<path id="Path 115" class="s23" d="m291 434l5-2h1z"/>
		<path id="Path 116" class="s19" d="m586 459l1-4-5-3 3-20h2l5 5 5 16v10l-2 2h-9z"/>
		<path id="Path 117" class="s8" d="m308 445l8-11 9-1 12 3 9 25 2 6 7 6 2 16-4 1v9 4h-3l-8-3-2 5h-3l-2-5-6 3h-4v-17l-13-7-3-24z"/>
		<path id="Path 118" class="s45" d="m351 434l4-1 1 5-7-1z"/>
		<path id="Path 119" class="s40" d="m469 440v-7h6l1 4-1 4z"/>
		<path id="Path 120" class="s19" d="m549 439v-6h6l4 3-6 5z"/>
		<path id="Path 121" class="s35" d="m619 445l2-12h6l6 15 8 7h4v5l4 3v12l6 2v8l-2 1-8 2-4-3v-2l1-7-9-3-2-4-3-17z"/>
		<path id="Path 122" class="s2" d="m276 439l4-4 10-1-11 5z"/>
		<path id="Path 123" class="s46" d="m341 436l3-2 2 3-5 3z"/>
		<path id="Path 124" class="s17" d="m437 445l-2-10h3l2 10z"/>
		<path id="Path 125" class="s35" d="m346 461l-9-25h4v4l5-3h3l7 1 3 13-6 3v7h-3z"/>
		<path id="Path 126" class="s20" d="m461 451v-9l-4-6h2l10 4 6 1 2 8 12-2 3 4h7l8 6v6 2h-10-7l-6-3-2-6h-7z"/>
		<path id="Path 127" class="s8" d="m504 437l3-1 11 6 1 7-2 4h-4l-2-4-9-1-1-5z"/>
		<path id="Path 128" class="s32" d="m837 439l8-3v4l-3 5h-5z"/>
		<path id="Path 129" class="s17" d="m475 441l1-4h12l2 6-1 4-12 2z"/>
		<path id="Path 130" class="s2" d="m272 440l4-1-4 2z"/>
		<path id="Path 131" class="s41" d="m272 441l4-2h3l6 3v4l-2 3h-16l-2-3 1-2z"/>
		<path id="Path 132" class="s32" d="m533 446l2-7h14l4 2 2 11-4 1-16-2z"/>
		<path id="Path 133" class="s23" d="m825 442l8-3-8 4z"/>
		<path id="Path 134" class="s19" d="m825 443l8-4h1 3v6l-4 4-8 1-5 6h-6l-15 8h-4v-6l16-9z"/>
		<path id="Path 135" class="s37" d="m845 440l11-1 1 6-2 8h-12l-1-8z"/>
		<path id="Path 136" class="s23" d="m266 444l6-4v1z"/>
		<path id="Path 137" class="s9" d="m377 467l-1-26h4l10 13 7 1v7l4 5-1 9-21-2z"/>
		<path id="Path 138" class="s35" d="m519 449l-1-7h7l3 4-5 4z"/>
		<path id="Path 139" class="s27" d="m811 449l14-7v1z"/>
		<path id="Path 140" class="s47" d="m489 447l1-4h11l1 5-3 3h-7z"/>
		<path id="Path 141" class="s14" d="m857 445l24-2 2 2-1 9-10 5h-13v-4l-4-2z"/>
		<path id="Path 142" class="s15" d="m253 450l13-6-1 2-9 5-5 2v-1z"/>
		<path id="Path 143" class="s2" d="m652 449l-3-5 3 1z"/>
		<path id="Path 144" class="s48" d="m897 445l2-1v6h-2z"/>
		<path id="Path 145" class="s35" d="m299 447l9-2 1 10h-8z"/>
		<path id="Path 146" class="s9" d="m437 450v-5h3l1 5z"/>
		<path id="Path 147" class="s17" d="m609 454l2-9h8l9 7 3 17h-4l-2-5h-7v-3z"/>
		<path id="Path 148" class="s13" d="m833 449l4-4h5l1 8z"/>
		<path id="Path 149" class="s11" d="m256 451l9-5 2 3v12h-7z"/>
		<path id="Path 150" class="s32" d="m283 449l2-3 14 1 2 8-5 5-8 1-5-5z"/>
		<path id="Path 151" class="s49" d="m523 450l5-4h5l2 5v9l-4 1-8-5z"/>
		<path id="Path 152" class="s25" d="m499 451l3-3 9 1 2 4v2l-6 2z"/>
		<path id="Path 153" class="s14" d="m267 461v-12h16v7h-4l-2 5z"/>
		<path id="Path 154" class="s46" d="m517 453l2-4 4 1v6h-4z"/>
		<path id="Path 155" class="s2" d="m653 452l-1-3 7 6v4 1z"/>
		<path id="Path 156" class="s27" d="m790 459l21-10-16 9-5 2z"/>
		<path id="Path 157" class="s50" d="m820 456l5-6 8-1 10 4h12l4 2v4l-3 7-11 10 2 17-4 4v5l-10 9h-14l-4-6-2-16 8-14z"/>
		<path id="Path 158" class="s51" d="m433 455l4-5h4l18 2 2 15-2 7-4 2-4-1-1-13h-7z"/>
		<path id="Path 159" class="s52" d="m897 454v-4h2z"/>
		<path id="Path 160" class="s41" d="m251 453l5-2 4 10-2 7-5 1h-8l-2-11 1-2 3-2h1z"/>
		<path id="Path 161" class="s17" d="m353 461v-7l6-3h6v10z"/>
		<path id="Path 162" class="s49" d="m459 452l2-1 14 5 2 7 7-1 6 3 1 6-6 3-16-7h-8z"/>
		<path id="Path 163" class="s47" d="m535 460v-9l16 2 3 9 9 1h1l1 12-2 6h-8l-2-9-4-4h-6z"/>
		<path id="Path 164" class="s23" d="m248 454l3-2v1z"/>
		<path id="Path 165" class="s8" d="m551 453l4-1h7l2 3-1 8-9-1z"/>
		<path id="Path 166" class="s9" d="m645 455l8-3 6 8 1 3h-11l-4-3z"/>
		<path id="Path 167" class="s53" d="m513 455v-2h4l2 3v6l5 3-9 1-2-3z"/>
		<path id="Path 168" class="s36" d="m597 463v-10l12 1 9 7v3l-4 5h-6l-4-6z"/>
		<path id="Path 169" class="s23" d="m241 456l6-2-3 2z"/>
		<path id="Path 170" class="s49" d="m288 461l8-1 5-5h8l3 24 13 7v17h-2-10v-12l-6-1-8-13v-6l-8-2-3-6z"/>
		<path id="Path 171" class="s9" d="m421 467v-11l12-1 10 7h7l1 13 4 1v11 3l-3 1 1 10-4 2-6 1h-3l-3-2-3-19 1-13-3-3z"/>
		<path id="Path 172" class="s9" d="m507 457l6-2v8h-6z"/>
		<path id="Path 173" class="s9" d="m563 463l1-8 22 4v6l-2 12h-9l-2-3v-9l-9-2z"/>
		<path id="Path 174" class="s54" d="m222 469l19-13h3l-1 2-18 12-3 1z"/>
		<path id="Path 175" class="s9" d="m277 461l2-5h4l5 5v2z"/>
		<path id="Path 176" class="s53" d="m484 462l-7 1-2-7h7z"/>
		<path id="Path 177" class="s20" d="m524 465l-5-3v-6h4l8 5-1 3z"/>
		<path id="Path 178" class="s16" d="m799 464l15-8h6l1 19-8 14 2 16-4 2-4 1 4 1v18 10h-10v-9l-3-3h-16l-3-3v-25l1-10 7-3v-9l8-1 4-4z"/>
		<path id="Path 179" class="s23" d="m894 464l2-7h1z"/>
		<path id="Path 180" class="s11" d="m225 470l18-12 2 11v4l-10 2-6-1z"/>
		<path id="Path 181" class="s35" d="m790 460l5-2v6l-5 4h-7l-3-2 1-1z"/>
		<path id="Path 182" class="s38" d="m659 460v-1l5 9h-1l-3-5z"/>
		<path id="Path 183" class="s38" d="m781 464l9-5v1l-9 5z"/>
		<path id="Path 184" class="s55" d="m531 461l4-1 8 8h6l4 4 2 9h8l2-6 8-1 2 3 3 13-1 9-6 3v11l4 2v9l4 7h-6l-7-6h-8l-2-5-9-2-6-2-3-1-2-4h-7v-2l-2-16 2-6-9-2 1 10-2 13v4l1 4h3v10l-2 5-6-1v-6l-14-10-2-18-10-7v-8l-4-2v-5l6-3h6l9 3 1-9v-2h6l2 3 9-1 6-1z"/>
		<path id="Path 185" class="s35" d="m258 468l2-7h7v10l-2 3h-7z"/>
		<path id="Path 186" class="s17" d="m267 471v-10h10l11 2 3 6 2 8-2 12-7 3-1-12-10-9z"/>
		<path id="Path 187" class="s45" d="m348 467l-2-6h4z"/>
		<path id="Path 188" class="s20" d="m348 467l2-6h3 12l4 6v8 6 10l-12-2-2-16z"/>
		<path id="Path 189" class="s20" d="m565 475l-1-12 9 2v9z"/>
		<path id="Path 190" class="s8" d="m595 465l2-2h7l4 6h6l3 10-2 2-14-1-4-3z"/>
		<path id="Path 191" class="s40" d="m655 477l-6-2v-12h11l3 5 1 5-3 4z"/>
		<path id="Path 192" class="s12" d="m614 469l4-5h7l2 5v8l-10 2z"/>
		<path id="Path 193" class="s27" d="m771 469l10-5v1l-1 1-5 2z"/>
		<path id="Path 194" class="s21" d="m783 468h7l5-4h4v6l-4 4-8 1-4-2z"/>
		<path id="Path 195" class="s25" d="m491 471l-1-6h7v6z"/>
		<path id="Path 196" class="s46" d="m497 471v-6h10l-1 9z"/>
		<path id="Path 197" class="s49" d="m584 477l2-12h9l2 12-8 2-4-1z"/>
		<path id="Path 198" class="s12" d="m775 468l5-2 3 2v5h-8l-2-2z"/>
		<path id="Path 199" class="s49" d="m369 475v-8h8l2 7-2 2z"/>
		<path id="Path 200" class="s20" d="m379 474l21 2 1-9 11 2 3 4 2 10 10 2 4 18-8-1-10 1h-8l-2-9-5-5h-9l-2-6-10-3v-4z"/>
		<path id="Path 201" class="s45" d="m418 473l3-6h11l3 3-1 13h-5l-3-8z"/>
		<path id="Path 202" class="s53" d="m459 474l2-7h8l16 7v5l4 2v8l10 7 2 18 14 10v6l-2 14 5 2-1 9h-8l-6-6h-6v-11l-5-7-11 1v11h-12l-6-6v-12l6-2 12-2v-5l-10-5v-7-7l-6-10v-10z"/>
		<path id="Path 203" class="s32" d="m253 469l5-1v6l-5 1z"/>
		<path id="Path 204" class="s2" d="m664 473l-1-5h1l5 11-3-1z"/>
		<path id="Path 205" class="s31" d="m771 469l4-1-2 3-6 2h-2l5-4z"/>
		<path id="Path 206" class="s0" d="m216 474l6-5v2l-2 2-2 1z"/>
		<path id="Path 207" class="s12" d="m245 473v-4h8v6h-5z"/>
		<path id="Path 208" class="s35" d="m293 477l-2-8 8 2v6z"/>
		<path id="Path 209" class="s14" d="m627 477v-8h4l2 4 9 3-1 7-11-1z"/>
		<path id="Path 210" class="s23" d="m759 474l11-5-5 4z"/>
		<path id="Path 211" class="s41" d="m222 471l3-1 4 4v5h-2l-7-6z"/>
		<path id="Path 212" class="s9" d="m265 474l2-3h6l10 9 1 12-3 3v16h-6l1-22z"/>
		<path id="Path 213" class="s14" d="m767 473l6-2 2 2-2 6h-6z"/>
		<path id="Path 214" class="s11" d="m218 474l2-1 7 6v10h-12v-7l-3-2z"/>
		<path id="Path 215" class="s17" d="m235 475l10-2 3 2-1 10h-12v-6z"/>
		<path id="Path 216" class="s9" d="m427 485l-10-2-2-10h3l8 2 3 8z"/>
		<path id="Path 217" class="s35" d="m661 477l3-4 2 5z"/>
		<path id="Path 218" class="s12" d="m759 474l6-1h2v6h-9l-5 5v5h-7l-1-10 2-2h2l9-3z"/>
		<path id="Path 219" class="s41" d="m773 479l2-6h8l4 2v9l-7 3-6-1z"/>
		<path id="Path 220" class="s54" d="m214 475l1-1h1 2l-6 6-4 2v-2z"/>
		<path id="Path 221" class="s14" d="m229 479v-5l6 1v4z"/>
		<path id="Path 222" class="s8" d="m253 475l5-1h7l11 15-1 22h-4l-3-4h-5l-1-19h-9v14l-6-5v-12l1-10z"/>
		<path id="Path 223" class="s20" d="m455 476l4-2 6 3v10h-10z"/>
		<path id="Path 224" class="s56" d="m750 475l8-1-9 3z"/>
		<path id="Path 225" class="s8" d="m369 481v-6l8 1v4 1z"/>
		<path id="Path 226" class="s38" d="m744 477l6-2-1 2h-2z"/>
		<path id="Path 227" class="s47" d="m284 492l7-3 2-12h6l8 13 6 1v12l-10 1-2-7-7-1 1 9v5l5-3h3l4 4v18l3 4-4 2-2-3-17-2-6-6v-13-16z"/>
		<path id="Path 228" class="s57" d="m578 490l-3-13h9l1 1 1 4h3v5l-6 6z"/>
		<path id="Path 229" class="s51" d="m589 479l8-2 4 3v11l-2 12v8l-2 1h-3l-4-9-7-5v-5l6-6v-5z"/>
		<path id="Path 230" class="s20" d="m617 479l10-2 3 5-3 6-3-2-7 2-2-7z"/>
		<path id="Path 231" class="s14" d="m655 485v-8h6l5 1 3 1h1l9 2h1 4l1 2-2 8h-8l-3-3-5 1-10-3z"/>
		<path id="Path 232" class="s58" d="m735 479l9-2h3l-2 2-10 1z"/>
		<path id="Path 233" class="s59" d="m589 482h-3l-1-4 4 1z"/>
		<path id="Path 234" class="s12" d="m227 489v-10h2 6v6l-2 5-5 2z"/>
		<path id="Path 235" class="s23" d="m711 482l24-3v1l-3 1-7 2h-5-9z"/>
		<path id="Path 236" class="s32" d="m735 480l10-1 1 10-3 4h-12l-2-4 4-3-1-5z"/>
		<path id="Path 237" class="s18" d="m753 489v-5l5-5h9 6l1 7v10l5 1v25l3 3-3 12h-5l-3-10-2-5v-10l-5-12-2-4h-5z"/>
		<path id="Path 238" class="s27" d="m198 489l10-9v2z"/>
		<path id="Path 239" class="s37" d="m208 482l4-2 3 2v7l-2 6h-6l-9 2-4 10v2l-9 1-2 9-6 4h-9l-1 8v7l-7-3-7 2-7 1-5 2-7 4-6-4 2-3 11-9 10-7 17-11 6-4 12-6 12-11z"/>
		<path id="Path 240" class="s60" d="m377 481v-1l10 3 2 6-2 12-3 1-4-3z"/>
		<path id="Path 241" class="s25" d="m601 491v-11l14 1 2 7-2 3z"/>
		<path id="Path 242" class="s24" d="m680 481l8-1v1h-4z"/>
		<path id="Path 243" class="s0" d="m688 481v-1l8 2h-1z"/>
		<path id="Path 244" class="s1" d="m885 486l5-6 1 3-6 4z"/>
		<path id="Path 245" class="s9" d="m369 491v-10h8l3 18-3 4h-4l-4-3z"/>
		<path id="Path 246" class="s53" d="m630 482l11 1v2l-2 6 2 12-5 2h-5l-1-1-3-16z"/>
		<path id="Path 247" class="s61" d="m685 483l-1-2h4l7 1v1h-4z"/>
		<path id="Path 248" class="s14" d="m725 483l7-2 1 5-4 3h-4z"/>
		<path id="Path 249" class="s62" d="m695 483v-1h1 9v1h-2z"/>
		<path id="Path 250" class="s4" d="m705 483v-1h6v1z"/>
		<path id="Path 251" class="s55" d="m427 485l2-2h5l3 19-6 1z"/>
		<path id="Path 252" class="s36" d="m683 491l2-8h6v6l-1 1z"/>
		<path id="Path 253" class="s14" d="m691 489v-6h4 8v8z"/>
		<path id="Path 254" class="s11" d="m703 491v-8h2l12 2v4l-5 3-7 3z"/>
		<path id="Path 255" class="s53" d="m717 485l-12-2h6 9z"/>
		<path id="Path 256" class="s36" d="m717 485l3-2h5v6l-4 1-4-1z"/>
		<path id="Path 257" class="s35" d="m233 490l2-5h12v12h-6-4v-5z"/>
		<path id="Path 258" class="s47" d="m521 495l-1-10 9 2-2 6z"/>
		<path id="Path 259" class="s25" d="m641 503l-2-12 2-6 4 3 8-2 1 4h3l10 3v10l8 2 2 2 2 19-8 1-14-2v-11l-4-2-1-5-4-4z"/>
		<path id="Path 260" class="s17" d="m653 486l2-1 2 1v4h-3z"/>
		<path id="Path 261" class="s55" d="m617 488l7-2 3 2 3 16-15-3v-10z"/>
		<path id="Path 262" class="s53" d="m657 490v-4l10 3v4z"/>
		<path id="Path 263" class="s21" d="m779 497l-5-1v-10l6 1z"/>
		<path id="Path 264" class="s24" d="m882 488l3-2v1l-3 2z"/>
		<path id="Path 265" class="s17" d="m253 502v-14h9l1 19h-7z"/>
		<path id="Path 266" class="s45" d="m455 490v-3h10l6 10v7l-14-3 1-9z"/>
		<path id="Path 267" class="s55" d="m667 489l5-1 3 3v14l-8-2v-10z"/>
		<path id="Path 268" class="s2" d="m865 517l5-15 12-14v1l-6 6z"/>
		<path id="Path 269" class="s54" d="m178 502l16-13h4l-12 11-12 6v-1l1-1 1-1z"/>
		<path id="Path 270" class="s36" d="m213 495l2-6h12l1 3-3 8h-2z"/>
		<path id="Path 271" class="s49" d="m353 499v-9l4-1 12 2v9l-9 3-2-4z"/>
		<path id="Path 272" class="s63" d="m384 502l3-1 2-12h9l5 5 2 9v14l6 4v4l-12 3v17l4 2 2 18v1l-17-2v-9l-4-4h-5v-11l-4-3v-14l-3-4 1-16h4z"/>
		<path id="Path 273" class="s20" d="m690 490l1-1 12 2 2 4v4l-5 4v4l-13-1-2-4z"/>
		<path id="Path 274" class="s35" d="m712 492l5-3 4 1-3 5h-5z"/>
		<path id="Path 275" class="s47" d="m721 490l4-1h4l2 4v3l-3 3h-7v6l-4 2-4-3-6 3-2-8v-4l7-3 1 3h5z"/>
		<path id="Path 276" class="s8" d="m743 493l3-4h7l4 7h5l2 4-15 2-6-5z"/>
		<path id="Path 277" class="s60" d="m228 492l5-2 4 2v5l-4 6h-6l-2-3z"/>
		<path id="Path 278" class="s51" d="m453 501l-1-10 3-1 3 2-1 9z"/>
		<path id="Path 279" class="s20" d="m577 499l1-9 5 3v5z"/>
		<path id="Path 280" class="s47" d="m683 491l7-1-5 12-4 5h-4l-2-2v-14z"/>
		<path id="Path 281" class="s53" d="m599 503l2-12h14v10 10l-8-2-2-6z"/>
		<path id="Path 282" class="s25" d="m521 495l6-2 2 16h-8l-2-1z"/>
		<path id="Path 283" class="s45" d="m731 496v-3h12v4l-3 2h-8z"/>
		<path id="Path 284" class="s64" d="m194 507l4-10 9-2 2 12 8 2v6l-6 1-2-3h-6l-2-4h-5z"/>
		<path id="Path 285" class="s65" d="m217 509l-8-2-2-12h6l10 5-1 7z"/>
		<path id="Path 286" class="s9" d="m295 505l-1-9 7 1 2 7v3h-3z"/>
		<path id="Path 287" class="s66" d="m728 499l3-3 1 3h8v5l7 3 4 20v9l-3 3v8l-4 5-4 2-8 1-3-8-14-4v-8l4-2v-5l-4-3-8 2v6l-10 2-8-2v-6l-4-3v-14l2-4 13 1h7l6-3 4 3 4-2h7z"/>
		<path id="Path 288" class="s28" d="m225 500l2 3h6l4-6h4v18l-13-2-6-6 1-7z"/>
		<path id="Path 289" class="s19" d="m241 515v-18h6l6 5 3 5-5 10z"/>
		<path id="Path 290" class="s25" d="m740 499l3-2 6 5-2 5-7-3z"/>
		<path id="Path 291" class="s25" d="m577 499l6-1 7 5 4 9h3l4 25v4l-7 6h-4l-1-11-10-5-4-7v-9l-4-2v-11z"/>
		<path id="Path 292" class="s55" d="m353 503v-4h5l2 4-6 1z"/>
		<path id="Path 293" class="s67" d="m377 503l3-4 4 3z"/>
		<path id="Path 294" class="s68" d="m700 507v-4l5-4 2 8z"/>
		<path id="Path 295" class="s69" d="m721 505v-6h7v6z"/>
		<path id="Path 296" class="s46" d="m329 503l6-3 2 5-2 3h-2l-4-1z"/>
		<path id="Path 297" class="s51" d="m340 505l2-5 8 3 4 1 6-1 9-3 4 3-1 16-15 2-8-4-3-6h-5z"/>
		<path id="Path 298" class="s53" d="m749 502l15-2 5 12v10l-2 5-2 6h-5l-1-4-8-2-4-20z"/>
		<path id="Path 299" class="s25" d="m449 503l4-2h4l14 3v7h-2l-20-4z"/>
		<path id="Path 300" class="s46" d="m615 511v-10l15 3 1 1v5l5 1v8l7 6-2 1h-20l-2-12z"/>
		<path id="Path 301" class="s70" d="m413 503l10-1v8l-10-1z"/>
		<path id="Path 302" class="s46" d="m423 510v-8l8 1 6-1 3 2 1 7v8l-14-2v-6z"/>
		<path id="Path 303" class="s69" d="m443 504l6-1v4l-4 1z"/>
		<path id="Path 304" class="s57" d="m681 507l4-5 2 4-2 4z"/>
		<path id="Path 305" class="s53" d="m303 504l10-1h10v8h-3-13l-4-4z"/>
		<path id="Path 306" class="s51" d="m323 511v-8h2 4v4l4 1v3z"/>
		<path id="Path 307" class="s47" d="m354 504l-4-1h3z"/>
		<path id="Path 308" class="s67" d="m411 521l-6-4v-14h8v6l1 8z"/>
		<path id="Path 309" class="s55" d="m599 511v-8h6l2 6z"/>
		<path id="Path 310" class="s71" d="m636 505l5-2h7l4 4 1 5 4 2v11l-6 2-8-2-7-6v-8z"/>
		<path id="Path 311" class="s25" d="m441 511l-1-7h3l2 4v3z"/>
		<path id="Path 312" class="s0" d="m171 506l3-1v1z"/>
		<path id="Path 313" class="s66" d="m300 507l-5 3v-5z"/>
		<path id="Path 314" class="s45" d="m335 508l2-3h3l1 6h-5z"/>
		<path id="Path 315" class="s69" d="m636 511l-5-1v-5h5z"/>
		<path id="Path 316" class="s37" d="m811 507l4-2 4 6h14l4 18-26-2v-18z"/>
		<path id="Path 317" class="s15" d="m168 509l3-3h3l-6 4z"/>
		<path id="Path 318" class="s12" d="m194 509v-2l2 2-1 1z"/>
		<path id="Path 319" class="s12" d="m217 509l5-2 6 6-3 5h-5l-3-3z"/>
		<path id="Path 320" class="s28" d="m251 517l5-10h7 5l3 4-2 18-1 10h-7l-5-1v-5l-5-4z"/>
		<path id="Path 321" class="s51" d="m445 508l4-1 20 4v12l-6 2-15-8-3-6z"/>
		<path id="Path 322" class="s72" d="m679 526l-2-19h4l4 3v14l4 3v6h-10z"/>
		<path id="Path 323" class="s41" d="m811 509l-4-1 4-1z"/>
		<path id="Path 324" class="s73" d="m333 511v-3h2l1 3h5 5l3 6 8 4 1 9 5 4v4l-11 7h-10l-9-10 2-8z"/>
		<path id="Path 325" class="s45" d="m519 512v-4l2 1v3z"/>
		<path id="Path 326" class="s54" d="m151 520l17-11v1l-17 11z"/>
		<path id="Path 327" class="s14" d="m183 519l2-9 9-1 1 1-2 13-8 1z"/>
		<path id="Path 328" class="s18" d="m195 510l1-1h5l2 4v10h-6-4z"/>
		<path id="Path 329" class="s9" d="m414 517l-1-8 10 1 4 1v6z"/>
		<path id="Path 330" class="s65" d="m521 512v-3h8v2 4h-5z"/>
		<path id="Path 331" class="s70" d="m599 511l8-2 8 2 4 3 2 12-3 11-7 3-3-3h-7l-4-25z"/>
		<path id="Path 332" class="s74" d="m269 529l2-18h4 6v13l6 6 17 2 2 3 4-2h9v2 10l6 4v8l-4 2-2 6h-4l-2-6-10-2-2-8-6 2-9-2-6-15-5-5z"/>
		<path id="Path 333" class="s49" d="m310 533l-3-4v-18h13l-1 22z"/>
		<path id="Path 334" class="s60" d="m319 533l1-22h3 10l2 16-2 8h-14z"/>
		<path id="Path 335" class="s55" d="m441 519v-8h4l3 6 15 8v12l6 6h12l8 9v10l-1 1-11 1v21l-1 2-9-1v-6l-12-9v-4-6l5-11-4-2v-10l-5-5v-9l-5-5z"/>
		<path id="Path 336" class="s55" d="m469 523v-12h2l10 5v5z"/>
		<path id="Path 337" class="s51" d="m529 515v-4h7l2 4z"/>
		<path id="Path 338" class="s71" d="m523 516h-3l-1-4h2l3 3z"/>
		<path id="Path 339" class="s22" d="m203 523v-10h6l2 3v7z"/>
		<path id="Path 340" class="s75" d="m225 518l3-5 13 2v14l-4 1v3h-4v-4l-6-2z"/>
		<path id="Path 341" class="s18" d="m211 516l6-1 3 3v7h-9v-2z"/>
		<path id="Path 342" class="s67" d="m241 529v-14l10 2v12h-8z"/>
		<path id="Path 343" class="s25" d="m523 516l1-1h5 9l3 1v11l-4 2-14-3z"/>
		<path id="Path 344" class="s46" d="m541 527v-11l6 2-2 9z"/>
		<path id="Path 345" class="s51" d="m411 521l3-4h13l14 2h5l5 5v9l5 5v10l4 2-5 11-7 1-1 4-12 1-2-8-8-1v-13l6-3v-2l-6-1-2-8-12-6z"/>
		<path id="Path 346" class="s74" d="m220 525v-7h5l2 9h-4z"/>
		<path id="Path 347" class="s71" d="m545 527l2-9 9 2 2 5 1 10 14 2 2 6-3 3-15-1h-9l-3-3z"/>
		<path id="Path 348" class="s21" d="m177 523l6-4 2 5-2 3-6 1z"/>
		<path id="Path 349" class="s60" d="m357 521l15-2 3 4v14l-6 1h-6v-4l-5-4z"/>
		<path id="Path 350" class="s71" d="m865 530l-2-1 2-10z"/>
		<path id="Path 351" class="s0" d="m865 530v-11l2 12h-2z"/>
		<path id="Path 352" class="s2" d="m140 527l11-7v1l-10 7z"/>
		<path id="Path 353" class="s17" d="m767 527l2-5 2 5z"/>
		<path id="Path 354" class="s11" d="m167 531l1-8h9v5 3z"/>
		<path id="Path 355" class="s65" d="m185 524l8-1h4l3 6v9l5 1v6l-6 3-9-4-1-11-4-1-2-5z"/>
		<path id="Path 356" class="s69" d="m200 529l-3-6h6v6z"/>
		<path id="Path 357" class="s76" d="m203 529v-6h8v2 4l-4 1z"/>
		<path id="Path 358" class="s9" d="m211 529v-4h9l3 2v6l-9 6-3-4z"/>
		<path id="Path 359" class="s74" d="m405 565l-2-18-4-2v-17l12-3 12 6 2 8v6 13l-2 5-12 2z"/>
		<path id="Path 360" class="s57" d="m573 537l-14-2-1-10h8l7 6z"/>
		<path id="Path 361" class="s77" d="m621 526h20v7l4 2 5 9v7l5 2v4h-8l-6-8-10-2-3-7h-7l-3-3z"/>
		<path id="Path 362" class="s59" d="m641 526l2-1 8 2v8h-6l-4-2z"/>
		<path id="Path 363" class="s77" d="m651 527l6-2 14 2v7l6 2v7l-6 5v7h-10l-2-2v-5l-7-5-1-8z"/>
		<path id="Path 364" class="s78" d="m671 527l8-1v7l-2 3-6-2z"/>
		<path id="Path 365" class="s79" d="m707 533v-6l8-2 4 3v5l-4 2z"/>
		<path id="Path 366" class="s37" d="m779 537l3-12h16l3 3v9l-16 1z"/>
		<path id="Path 367" class="s71" d="m521 531l2-5 14 3v14l-8 3-2 20 4 2v5 8h-14l-2-2v-10l2-14 1-9 4-3z"/>
		<path id="Path 368" class="s15" d="m128 537l12-10 1 1-11 9z"/>
		<path id="Path 369" class="s28" d="m177 528l6-1 2 5 4 1 1 11 9 4-2 10-4 5h-5-5v-10l-1-17-5-5z"/>
		<path id="Path 370" class="s63" d="m223 533v-6h4l6 2v4l-2 6z"/>
		<path id="Path 371" class="s57" d="m537 529l4-2h4v15l3 3-2 4h-4l-5-6z"/>
		<path id="Path 372" class="s59" d="m751 536v-9l8 2 1 4v3z"/>
		<path id="Path 373" class="s9" d="m765 533l2-6h4l3 10-3 12h-3l-1-4z"/>
		<path id="Path 374" class="s50" d="m811 537v-10l26 2 8 2 2 5 2 5-2 10 4 1v7l4 3v11l-1 6-7 6v10h-9l-4 6h-5l-6-3h-13-3l-16-8v-6l-5-5h-5v-12-7l3-3h7l6-4 13-1z"/>
		<path id="Path 375" class="s74" d="m205 539l-5-1v-9h3l4 1v5z"/>
		<path id="Path 376" class="s63" d="m207 530l4-1v6h-4z"/>
		<path id="Path 377" class="s80" d="m237 533v-3l4-1h2l-1 10h-3z"/>
		<path id="Path 378" class="s47" d="m242 539l1-10h8l5 4v5l-1 5 1 6h-3l-6-2-2-2z"/>
		<path id="Path 379" class="s67" d="m268 539l1-10h6l5 5 6 15-3 1-1 13h-7v-3-7-4l-4-1z"/>
		<path id="Path 380" class="s57" d="m518 546l-5-2 2-14 6 1 1 12z"/>
		<path id="Path 381" class="s14" d="m167 538v-7h10l5 5 1 17h-5z"/>
		<path id="Path 382" class="s46" d="m481 543v-11l11-1 5 7v11l2 10-10 3v-10z"/>
		<path id="Path 383" class="s59" d="m573 537v-6h6l10 5 1 11-1 20-18 5-12-1-1-4-1-22 15 1 3-3z"/>
		<path id="Path 384" class="s29" d="m867 534l-2-3h2z"/>
		<path id="Path 385" class="s18" d="m214 539l9-6 8 6v2 4 4l-8 3-8-1-1-3z"/>
		<path id="Path 386" class="s81" d="m231 539l2-6h4l2 6-4 2h-4z"/>
		<path id="Path 387" class="s68" d="m677 536l2-3h10l8 2v8 5l6 3v8h-14l-6-5v-9l-6-2z"/>
		<path id="Path 388" class="s78" d="m697 535l10-2 8 2v8h-6-12z"/>
		<path id="Path 389" class="s25" d="m760 536v-3h5l2 12h-6z"/>
		<path id="Path 390" class="s29" d="m870 540l-3-6 7 8 2 2 1 1 1 1 1 1 2 2 1 3v1z"/>
		<path id="Path 391" class="s82" d="m153 537l7-2 7 3 11 15-4 6-3-1-4-12-7-2v3l-7-4z"/>
		<path id="Path 392" class="s46" d="m205 539l2-4h4l3 4v9h-7l-2-3z"/>
		<path id="Path 393" class="s64" d="m319 565l2-6 4-2v-8l-6-4v-10h14l9 10h10l2 15 8 7v2h-23-18z"/>
		<path id="Path 394" class="s66" d="m655 553l-5-2v-7l-5-9h6l1 8 7 5v5z"/>
		<path id="Path 395" class="s57" d="m748 547v-8l3-3h9l1 9v8h-6l-2-6z"/>
		<path id="Path 396" class="s83" d="m849 541l-2-5h5l1 5z"/>
		<path id="Path 397" class="s48" d="m125 539l3-2h2l-2 3-3 1z"/>
		<path id="Path 398" class="s60" d="m146 538l7-1v6h-4z"/>
		<path id="Path 399" class="s20" d="m369 538l6-1 4 3v11h-10z"/>
		<path id="Path 400" class="s59" d="m594 547l7-6v-4h7l3 3v11 6h-11z"/>
		<path id="Path 401" class="s69" d="m611 540l7-3 3 3h7l3 7-1 4h-3l-9 1-7-1z"/>
		<path id="Path 402" class="s11" d="m771 549l3-12h5l6 1v9l-12 10h-2z"/>
		<path id="Path 403" class="s41" d="m785 538l16-1h10l-1 15-13 1-4-5-8-1z"/>
		<path id="Path 404" class="s28" d="m141 540l5-2 3 5-6 4z"/>
		<path id="Path 405" class="s17" d="m255 543l1-5 5 1v4z"/>
		<path id="Path 406" class="s63" d="m352 545l11-7h6v13 16h-7l-8-7z"/>
		<path id="Path 407" class="s26" d="m119 544l6-5v2l-4 3z"/>
		<path id="Path 408" class="s73" d="m235 541l4-2h3l3 6h-10z"/>
		<path id="Path 409" class="s14" d="m261 543v-4h7l3 9-1 3h-2l-6-1z"/>
		<path id="Path 410" class="s65" d="m425 545v-6l6 1v2z"/>
		<path id="Path 411" class="s33" d="m125 541l3-1 6 4v4l-2 5h-7l-4-8v-1z"/>
		<path id="Path 412" class="s84" d="m134 544l7-4 2 7-4 4-5-3z"/>
		<path id="Path 413" class="s37" d="m857 541l13-1 12 13 6 10 4 7 5 9v2l2 7v1l1 4v5l1 3v6l-1 3v1l-3 2-7-8-6-2-4-7-1-21-7-4-17 2v-11l-4-3v-7l6-3z"/>
		<path id="Path 414" class="s85" d="m231 545v-4h4v4z"/>
		<path id="Path 415" class="s41" d="m851 552l-4-1 2-10h4 4v8z"/>
		<path id="Path 416" class="s83" d="m143 547l6-4h4l7 4 1 3v3h-11l-10 4-1-6z"/>
		<path id="Path 417" class="s19" d="m256 549l-1-6h6l1 7z"/>
		<path id="Path 418" class="s69" d="m531 573v-5l-4-2 2-20 8-3 5 6h4l2-4h9l1 22-5 1v7l-4 6h-7l-3-8z"/>
		<path id="Path 419" class="s66" d="m671 555v-7l6-5 6 2v9l6 5-3 5-5 1-7-3v-6z"/>
		<path id="Path 420" class="s77" d="m703 551l-6-3v-5h12v6z"/>
		<path id="Path 421" class="s72" d="m703 551l6-2v-6h6l14 4 3 8-3 4h-22-4z"/>
		<path id="Path 422" class="s54" d="m113 549l6-5h2v1l-8 6z"/>
		<path id="Path 423" class="s81" d="m160 547v-3l7 2 4 12-4 3-4-2-2-9z"/>
		<path id="Path 424" class="s37" d="m113 551l8-6 4 8-2 10h-11l-1 8h-2-7l-4-4z"/>
		<path id="Path 425" class="s51" d="m199 548l6-3 2 3h7l1 3-1 12-3 3-8-2v-3l-6-3z"/>
		<path id="Path 426" class="s74" d="m231 549v-4h4v4z"/>
		<path id="Path 427" class="s71" d="m235 549v-4h10l2 2 3 7-2 9-7-1-6-8z"/>
		<path id="Path 428" class="s51" d="m761 553v-8h6l1 4-3 4z"/>
		<path id="Path 429" class="s72" d="m250 554l-3-7 6 2v4z"/>
		<path id="Path 430" class="s77" d="m589 567l1-20h4l6 10-1 12h-4z"/>
		<path id="Path 431" class="s66" d="m630 551l1-4 10 2 6 8v6l4 1v9h-8l-2-1v-9l-10-8z"/>
		<path id="Path 432" class="s25" d="m744 552l4-5h5l2 6-8 1z"/>
		<path id="Path 433" class="s37" d="m773 557l12-10 8 1 4 5-6 4h-7l-3 3v7l-8-2z"/>
		<path id="Path 434" class="s81" d="m132 553l2-5 5 3 1 6 3 6v3l-6-1-4-3z"/>
		<path id="Path 435" class="s85" d="m270 551l1-3 4 1v4h-4z"/>
		<path id="Path 436" class="s26" d="m89 574l24-25v2l-15 16-5 4-1 6-1 6v1l-2-1z"/>
		<path id="Path 437" class="s64" d="m223 552l8-3h4v5l6 8-4 2v5l-6 2 2 6v18l-9-3-4-11v-8l3-2v-8z"/>
		<path id="Path 438" class="s77" d="m253 553v-4h3l6 1 6 1v4l-5 1h-6z"/>
		<path id="Path 439" class="s80" d="m282 563l1-13 3-1 9 2 6-2 2 8-3 2 2 12-1 6 11 13 1 7h-3l-8-4-6-9-11-3-1-5h-7v-4z"/>
		<path id="Path 440" class="s25" d="m489 562l10-3-2-10h6l6 6h8l-2 14h-9l-3-6-4 1v13l4 3-2 7-13-2v-22z"/>
		<path id="Path 441" class="s28" d="m765 553l3-4h3v8l-5 1z"/>
		<path id="Path 442" class="s86" d="m161 553v-3l2 9h-2z"/>
		<path id="Path 443" class="s28" d="m214 563l1-12 8 1v11z"/>
		<path id="Path 444" class="s70" d="m268 555v-4h2l1 2v2z"/>
		<path id="Path 445" class="s74" d="m369 567v-16h10 5l4 4v9l-3 3z"/>
		<path id="Path 446" class="s66" d="m611 557v-6l7 1v6l-5 1z"/>
		<path id="Path 447" class="s77" d="m618 552l9-1 1 4-2 4h-5l-3-1z"/>
		<path id="Path 448" class="s78" d="m628 555l-1-4h3l1 4z"/>
		<path id="Path 449" class="s53" d="m740 554l4-2 3 2v3h-7z"/>
		<path id="Path 450" class="s15" d="m882 553v-1l4 2 3 9h-1z"/>
		<path id="Path 451" class="s21" d="m123 563l2-10h7l1 9 4 3 3 11-1 9h-2-15l-11-2-2-12h2 4l2 5h5z"/>
		<path id="Path 452" class="s50" d="m140 557l10-4h11v6l-1 4-14 3-3-3z"/>
		<path id="Path 453" class="s30" d="m174 559l4-6h5v10l-2 10-5 2-5-2v-5z"/>
		<path id="Path 454" class="s67" d="m250 554l3-1 4 3v5l-4 4-5-2z"/>
		<path id="Path 455" class="s82" d="m271 555v-2h4v7h-4z"/>
		<path id="Path 456" class="s79" d="m655 557v-4h4l2 2v7h-6z"/>
		<path id="Path 457" class="s49" d="m747 554l8-1h6 4l1 5-9 3h-6l-4-4z"/>
		<path id="Path 458" class="s47" d="m732 555l8-1v3l-4 3h-7v-1z"/>
		<path id="Path 459" class="s74" d="m263 556l5-1h3v5h-8z"/>
		<path id="Path 460" class="s79" d="m621 559h5l2-4h3l10 8v9l-13 1h-5z"/>
		<path id="Path 461" class="s78" d="m661 562v-7h10l3 1v6l-5 2h-6z"/>
		<path id="Path 462" class="s65" d="m257 561v-5h6v4l-2 1z"/>
		<path id="Path 463" class="s86" d="m302 571l-2-12 3-2 10 2 2 6v6z"/>
		<path id="Path 464" class="s72" d="m599 569l1-12h11l2 2v12l-10 1z"/>
		<path id="Path 465" class="s68" d="m651 564l-4-1v-6h8v5z"/>
		<path id="Path 466" class="s28" d="m736 560l4-3h7l4 4-3 10-6-1h-3l-3-2z"/>
		<path id="Path 467" class="s21" d="m766 558l5-1h2v8l-8 5v7l-7-1-1-3v-12z"/>
		<path id="Path 468" class="s87" d="m163 559l4 2 4-3 3 1-3 9-7 3-4-2v-6l1-4z"/>
		<path id="Path 469" class="s55" d="m193 563l4-5 6 3v3 5l-4 6h-6z"/>
		<path id="Path 470" class="s55" d="m423 563l2-5 8 1 2 8h-10z"/>
		<path id="Path 471" class="s78" d="m613 559l5-1 3 1 2 14-3 4h-7v-6z"/>
		<path id="Path 472" class="s74" d="m707 559h22v1 7h-8l-13-1-1-1z"/>
		<path id="Path 473" class="s65" d="m686 564l3-5h14 4v6l-10 2h-3-6z"/>
		<path id="Path 474" class="s85" d="m261 561l2-1h8 4v3 9l-2 2-12-1z"/>
		<path id="Path 475" class="s60" d="m729 567v-7h7v8h-4z"/>
		<path id="Path 476" class="s8" d="m253 565l4-4h4v12l-8 3v7h-7l-5-6v-4l11-2z"/>
		<path id="Path 477" class="s53" d="m447 566l1-4 7-1v6z"/>
		<path id="Path 478" class="s18" d="m748 571l3-10h6v12h-7-1z"/>
		<path id="Path 479" class="s9" d="m237 569v-5l4-2 7 1 5 2-1 6-11 2z"/>
		<path id="Path 480" class="s69" d="m651 564l4-2h6l2 2-2 9-6 1-4-1z"/>
		<path id="Path 481" class="s65" d="m669 564l5-2 7 3v5l-3 2-1 1h-2l-6-2z"/>
		<path id="Path 482" class="s41" d="m111 571l1-8h11l-1 13h-5l-2-5z"/>
		<path id="Path 483" class="s80" d="m143 566v-3l3 3-1 2z"/>
		<path id="Path 484" class="s84" d="m146 566l14-3v6l4 2v2l-5 1-11-1-3-5z"/>
		<path id="Path 485" class="s82" d="m176 575l5-2 2-10h5l-4 19h-3v5h-6l-1-7z"/>
		<path id="Path 486" class="s67" d="m184 582l4-19h5v12 11l-4 1-4-1z"/>
		<path id="Path 487" class="s85" d="m211 566l3-3h9v8l-3 2h-8l-1-4z"/>
		<path id="Path 488" class="s81" d="m275 572v-9h7l-5 9z"/>
		<path id="Path 489" class="s67" d="m411 565l12-2 2 4v4l7 8v6l9 7v7l-2 10-14 2-5-2-1-6-6-2 2-14-4-1v-9z"/>
		<path id="Path 490" class="s46" d="m477 585v-21l11-1v22z"/>
		<path id="Path 491" class="s71" d="m503 580l-4-3v-13l4-1 3 6-1 10z"/>
		<path id="Path 492" class="s34" d="m892 570l-4-7h1l3 6z"/>
		<path id="Path 493" class="s53" d="m203 569v-5l8 2v3z"/>
		<path id="Path 494" class="s88" d="m385 567l3-3 17 2v11l-4 1v13l-3 6h-6l-2-4h-5l2-13z"/>
		<path id="Path 495" class="s25" d="m661 573l2-9h6v7 1l-7 1z"/>
		<path id="Path 496" class="s25" d="m681 565l5-1 2 3-1 1-4 2h-2z"/>
		<path id="Path 497" class="s22" d="m140 576l-3-11 6 1 2 2 3 5 11 1v4l-13 1z"/>
		<path id="Path 498" class="s89" d="m315 571v-6h4l2 4h18l-2 15v4l-7 7-4-14-8-4z"/>
		<path id="Path 499" class="s87" d="m405 566v-1h6v12h-6z"/>
		<path id="Path 500" class="s42" d="m697 567l10-2 1 1v1z"/>
		<path id="Path 501" class="s16" d="m765 577v-7l8-5 8 2v12 6l-6-2-5-2z"/>
		<path id="Path 502" class="s70" d="m435 567l12-1 8 1v4l12 9v6l-2 10h-4l-2 5h-8-2v-8l-8-1-9-7v-6l-7-8v-4z"/>
		<path id="Path 503" class="s6" d="m708 567v-1l13 1z"/>
		<path id="Path 504" class="s41" d="m92 577l1-6 5-4 4 4h7l2 12-6 3-6-1-7-1v-1z"/>
		<path id="Path 505" class="s90" d="m362 569v-2h7 16l2 13-2 13h-6l-25-2-1 6-4 3-11 1-4 6-14 1v-2l10-8v-3l7-7v-4l21-6z"/>
		<path id="Path 506" class="s71" d="m553 575v-7l5-1 1 4z"/>
		<path id="Path 507" class="s66" d="m571 572l18-5 6 2v12h-9l-4 8-10 2z"/>
		<path id="Path 508" class="s38" d="m687 568l1-1h6l-7 2z"/>
		<path id="Path 509" class="s26" d="m731 569l-10-2h8l3 1z"/>
		<path id="Path 510" class="s89" d="m164 571l7-3v5l-5 3-2-3z"/>
		<path id="Path 511" class="s1" d="m683 570l4-2v1z"/>
		<path id="Path 512" class="s0" d="m731 569l1-1h4l3 2z"/>
		<path id="Path 513" class="s45" d="m199 575l4-6h8l1 4-1 8h-3-7z"/>
		<path id="Path 514" class="s40" d="m233 577l-2-6 6-2 4 4v4z"/>
		<path id="Path 515" class="s86" d="m337 584l2-15h23l-4 9z"/>
		<path id="Path 516" class="s57" d="m505 579l1-10h9v10z"/>
		<path id="Path 517" class="s68" d="m595 581v-12h4l4 3v7l8 4-2 18-2 1-10 5h-4l-2-2 3-16z"/>
		<path id="Path 518" class="s2" d="m892 570v-1l4 3 1 7z"/>
		<path id="Path 519" class="s0" d="m743 572l-4-2h3z"/>
		<path id="Path 520" class="s48" d="m743 572l-1-2 6 1 1 2-5-1z"/>
		<path id="Path 521" class="s30" d="m313 597l-1-7-11-13 1-6h13l3 6 8 4 4 14v3l-10 8-5-1z"/>
		<path id="Path 522" class="s77" d="m553 575l6-4 12 1 1 19-4 7h-7l-2-3h-8l-2-14z"/>
		<path id="Path 523" class="s79" d="m603 572l10-1v6 5l-2 1-8-4z"/>
		<path id="Path 524" class="s14" d="m669 572v-1l6 2-1 2-2 1z"/>
		<path id="Path 525" class="s11" d="m855 573l17-2 7 4 1 21 4 7 6 2 7 8-2 3-6 2-9 1-11-1-9-3h-4-1l-3-2 6-13h3v-3-14l-7-4z"/>
		<path id="Path 526" class="s69" d="m273 574l2-2h2v4l-4 2z"/>
		<path id="Path 527" class="s70" d="m628 573l13-1 2 1v6l-2 4-2 4-12 7-2-5z"/>
		<path id="Path 528" class="s11" d="m662 573l7-1 3 4-4 9-7-1z"/>
		<path id="Path 529" class="s0" d="m752 575l-8-3 5 1h1z"/>
		<path id="Path 530" class="s30" d="m159 574l5-1 2 3-7 2z"/>
		<path id="Path 531" class="s33" d="m166 576l5-3 5 2-2 5-17 7-18-2 1-9 6 3 13-1z"/>
		<path id="Path 532" class="s91" d="m211 581l1-8h8v8z"/>
		<path id="Path 533" class="s49" d="m253 583v-7l8-3 12 1v4l-2 10-6 2-11-1z"/>
		<path id="Path 534" class="s57" d="m531 581v-8h8l3 8-5 12-4-1z"/>
		<path id="Path 535" class="s77" d="m620 577l3-4h5l-3 16-6 1v6l-10 5 2-18 2-1h5z"/>
		<path id="Path 536" class="s51" d="m643 579v-6h8l4 1-4 3z"/>
		<path id="Path 537" class="s12" d="m655 574l6-1h1l-1 11 7 1 6 11 2 5 1 1 4 9 1 1 1 5-4 3v13l-1 2h-3l-1-13-2-6-6-3v-6l-7-6h-10l-4-5v-6l-6-3 2-4 9-2 1-4z"/>
		<path id="Path 538" class="s26" d="m674 575l1-2h2z"/>
		<path id="Path 539" class="s8" d="m752 575l-2-2h7l1 3-2 1z"/>
		<path id="Path 540" class="s51" d="m193 586v-11h6l2 6v7h-4z"/>
		<path id="Path 541" class="s26" d="m672 576l2-1-3 14 3 6v1l-6-11z"/>
		<path id="Path 542" class="s74" d="m273 578l4-2h7l1 5-4 12-2 2h-8v-7z"/>
		<path id="Path 543" class="s23" d="m756 577l2-1v1z"/>
		<path id="Path 544" class="s47" d="m758 577v-1l7 1 5 4-4-1h-2z"/>
		<path id="Path 545" class="s40" d="m91 583l1-6v6z"/>
		<path id="Path 546" class="s9" d="m233 595v-18h8l5 6-5 22h-4v-6z"/>
		<path id="Path 547" class="s92" d="m401 591v-13l4-1h6v9l-4 5z"/>
		<path id="Path 548" class="s72" d="m613 582v-5h7l-2 5z"/>
		<path id="Path 549" class="s19" d="m643 579l8-2-1 4-9 2z"/>
		<path id="Path 550" class="s77" d="m503 580l2-1h10l2 2v10l6 4v10h-10v-6l-10-4-2-8z"/>
		<path id="Path 551" class="s13" d="m781 585v-6h5l5 5v6h-2z"/>
		<path id="Path 552" class="s37" d="m847 595v-10l7-6 7 4v14h-4z"/>
		<path id="Path 553" class="s26" d="m897 581v-2l2 2z"/>
		<path id="Path 554" class="s85" d="m157 587l17-7 1 7v6 2h-7l-11-2z"/>
		<path id="Path 555" class="s23" d="m775 585l-9-5 4 1 5 2z"/>
		<path id="Path 556" class="s46" d="m201 588v-7h7l-1 7z"/>
		<path id="Path 557" class="s84" d="m207 588l1-7h3 9l4 11 9 3 4 4v6 5 9l2 9-2 3h-6l-6-6h-6l-2-12-1-7h-8l-1-5z"/>
		<path id="Path 558" class="s70" d="m281 593l4-12 11 3 6 9 8 4v7l4 5-9 2-10-6-2-9z"/>
		<path id="Path 559" class="s59" d="m523 595l-6-4v-10h14l2 11z"/>
		<path id="Path 560" class="s66" d="m537 593l5-12h7l2 14v10l-3 3-8-3z"/>
		<path id="Path 561" class="s93" d="m582 589l4-8h9l-1 8z"/>
		<path id="Path 562" class="s34" d="m899 588l-2-7h2v3z"/>
		<path id="Path 563" class="s70" d="m181 587v-5h3l1 4 4 1v5h-7z"/>
		<path id="Path 564" class="s2" d="m91 584v-1h1v1l3 7-2 7z"/>
		<path id="Path 565" class="s28" d="m105 586l6-3 11 2-3 8h-9l-7 8h-10v-3l2-7-3-7 7 1 1 5h4z"/>
		<path id="Path 566" class="s45" d="m241 605l5-22h7l1 6 3 14v3l-10 6-5-2z"/>
		<path id="Path 567" class="s54" d="m775 585v-2l6 2 8 5z"/>
		<path id="Path 568" class="s26" d="m899 588v-4l2 5h-2z"/>
		<path id="Path 569" class="s73" d="m105 586l-1 4h-4l-1-5z"/>
		<path id="Path 570" class="s85" d="m103 601l7-8h9l3-8h15v16h-13l-3 8h-14l-4-2z"/>
		<path id="Path 571" class="s82" d="m137 601v-16h2l18 2v6l-2 9 7 7 9 1 2 7-17-3-5-8-11-1z"/>
		<path id="Path 572" class="s59" d="m476 587l1-2h11l13 2 2 8v12l-7 4h-8l-1 4h-7l-8-7-13-1v-6l2-5h4l7 2 5-3z"/>
		<path id="Path 573" class="s59" d="m189 587l4-1 4 2v9h-6l-2-5z"/>
		<path id="Path 574" class="s80" d="m401 591h6l4-5 4 1-2 14h-12l-3-4z"/>
		<path id="Path 575" class="s71" d="m465 596l2-10 9 1 1 8-5 3z"/>
		<path id="Path 576" class="s63" d="m175 593v-6h6l1 5z"/>
		<path id="Path 577" class="s36" d="m627 594l12-7 6 3v6l4 5-4 5v11l-4 1v5h-11l-2-2-1-10-5-5 3-10z"/>
		<path id="Path 578" class="s71" d="m197 597v-9h4 6v13h-10z"/>
		<path id="Path 579" class="s71" d="m265 590l6-2v7l-2 2h-4z"/>
		<path id="Path 580" class="s20" d="m257 603l-3-14 11 1v7l-4 4z"/>
		<path id="Path 581" class="s79" d="m572 591l10-2h12l-3 16h-10l-4 3-8-3-1-7z"/>
		<path id="Path 582" class="s69" d="m619 596v-6l6-1 2 5-2 2z"/>
		<path id="Path 583" class="s58" d="m900 593l-1-4h2v3 1z"/>
		<path id="Path 584" class="s54" d="m806 599l-17-9h2l16 8z"/>
		<path id="Path 585" class="s88" d="m353 597l1-6 25 2v6h-21z"/>
		<path id="Path 586" class="s45" d="m175 593l7-1h7l2 5v10h-6l-2-4h-6l-2-8z"/>
		<path id="Path 587" class="s55" d="m441 599v-7l8 1v8h-4z"/>
		<path id="Path 588" class="s68" d="m523 595l10-3 4 1 3 12 8 3 1 16h-2l-6-1-1-7-9-1v-5l-8-5z"/>
		<path id="Path 589" class="s1" d="m901 592h1v1h-1z"/>
		<path id="Path 590" class="s65" d="m173 617l-2-7-9-1-7-7 2-9 11 2 1 8h8 6l2 4v10z"/>
		<path id="Path 591" class="s69" d="m279 595l2-2 12 3 2 9h-10l-6-1z"/>
		<path id="Path 592" class="s92" d="m379 599v-6h6 5l2 4-3 6h-6z"/>
		<path id="Path 593" class="s77" d="m900 598v-5h1v4 1z"/>
		<path id="Path 594" class="s52" d="m901 597v-4h1v4z"/>
		<path id="Path 595" class="s67" d="m177 603h-8l-1-8h7z"/>
		<path id="Path 596" class="s63" d="m269 597l2-2h8v9l-4 3v6h-5-3l-3-6 1-4z"/>
		<path id="Path 597" class="s72" d="m503 607v-12l10 4v6z"/>
		<path id="Path 598" class="s72" d="m548 608l3-3v-10h8l2 3-2 19 2 4-4 6h-7l-1-3z"/>
		<path id="Path 599" class="s0" d="m674 596v-1l3 6h-1z"/>
		<path id="Path 600" class="s21" d="m834 601l4-6h9l10 2 1 3-6 13-9-2-6-3z"/>
		<path id="Path 601" class="s8" d="m609 601l10-5h6l-3 10-9 9h-6v-13z"/>
		<path id="Path 602" class="s53" d="m191 607v-10h6v4 8h-4z"/>
		<path id="Path 603" class="s59" d="m261 601l4-4h4l-4 6z"/>
		<path id="Path 604" class="s82" d="m314 609l-4-5v-7h3l2 8 5 1v2l-2 1z"/>
		<path id="Path 605" class="s92" d="m349 600l4-3 5 2-2 4z"/>
		<path id="Path 606" class="s94" d="m383 603h6l3-6h6l3 4v14h-2l-14-2-2-4z"/>
		<path id="Path 607" class="s14" d="m858 600l-1-3h4v3z"/>
		<path id="Path 608" class="s54" d="m901 598v-1h1v3h-1z"/>
		<path id="Path 609" class="s78" d="m561 621l-2-4 2-19h7l1 7 8 3v7l-10 6z"/>
		<path id="Path 610" class="s3" d="m806 599l1-1h3l1 2z"/>
		<path id="Path 611" class="s18" d="m811 600l-1-2h13l6 3v5l-5-1-4-2z"/>
		<path id="Path 612" class="s51" d="m901 601l-1-3h1v2z"/>
		<path id="Path 613" class="s87" d="m349 600l7 3 2-4h21l4 4v6l-49-2 4-6z"/>
		<path id="Path 614" class="s59" d="m439 609l2-10 4 2v8z"/>
		<path id="Path 615" class="s3" d="m821 605l-10-5 9 3z"/>
		<path id="Path 616" class="s58" d="m901 601v-1h1v9h-1v-2z"/>
		<path id="Path 617" class="s18" d="m98 612l-5-2v-9h10v6l4 2v4h-4-1z"/>
		<path id="Path 618" class="s89" d="m121 609l3-8h13l3 4 11 1 5 8 17 3h12l6 1 3 7 7-3 10 1 6 2v9l-4 2-5 1-9-2h-5l-6-2h-2l-7-1h-1l-5-2h-4l-7-2v-1l1-6-3-3-11-1-2 7h-4l-11-3-6-1h-2v-1l1-5z"/>
		<path id="Path 619" class="s46" d="m197 609v-8h10l1 5-1 4-6 1z"/>
		<path id="Path 620" class="s66" d="m257 603l4-2 4 2-1 4-5 2-2-3z"/>
		<path id="Path 621" class="s70" d="m401 615v-14h12l6 2 1 6 5 2v10h-7l-1-6z"/>
		<path id="Path 622" class="s57" d="m445 609v-8h4 2v8h-2z"/>
		<path id="Path 623" class="s69" d="m451 609v-8h8v6l-4 2z"/>
		<path id="Path 624" class="s11" d="m645 617v-11l4-5h10l7 6v6l6 3 2 6 1 13h-1-5v-8l-6-6h-8l-2-3z"/>
		<path id="Path 625" class="s27" d="m676 601h1v1h-1z"/>
		<path id="Path 626" class="s22" d="m829 606v-5h5l3 7z"/>
		<path id="Path 627" class="s45" d="m597 607l10-5v13l-2 2h-4l-4-4z"/>
		<path id="Path 628" class="s27" d="m681 611l-4-9 7 11-2-1z"/>
		<path id="Path 629" class="s34" d="m681 611h1v1h-1z"/>
		<path id="Path 630" class="s39" d="m821 605l-1-2 4 2h-1z"/>
		<path id="Path 631" class="s77" d="m275 613v-6l4-3 6 1v8l-4 2z"/>
		<path id="Path 632" class="s47" d="m237 610v-5h4l1 5z"/>
		<path id="Path 633" class="s59" d="m285 613v-8h10l10 6v8h-5z"/>
		<path id="Path 634" class="s78" d="m503 607l10-2h10l8 5v5 8l-4 3v7l-18 2-14-2-2-10 3-12z"/>
		<path id="Path 635" class="s72" d="m577 608l4-3h10l2 2-5 5-9 3h-2z"/>
		<path id="Path 636" class="s34" d="m839 610l-11-1-5-4h1l5 1 8 2 6 3z"/>
		<path id="Path 637" class="s90" d="m207 610l1-4h8l1 7h-6z"/>
		<path id="Path 638" class="s72" d="m247 612l10-6 2 3-5 7-5 2z"/>
		<path id="Path 639" class="s12" d="m613 615l9-9 5 5 1 10v2h-11-4z"/>
		<path id="Path 640" class="s63" d="m185 617v-10h6l2 2v7l-2 2z"/>
		<path id="Path 641" class="s65" d="m259 609l5-2 3 6h3v7l-7 2-9-6z"/>
		<path id="Path 642" class="s81" d="m320 608l14-1 49 2 2 4v8l-30 2-4-7-10-1-20-2-3-4z"/>
		<path id="Path 643" class="s66" d="m455 609l4-2 13 1 8 7v4l-25-2z"/>
		<path id="Path 644" class="s55" d="m588 612l5-5h4v6z"/>
		<path id="Path 645" class="s45" d="m900 610l1-3v2z"/>
		<path id="Path 646" class="s30" d="m107 613v-4h14l4 5-1 5-5-1z"/>
		<path id="Path 647" class="s87" d="m193 616v-7h4l4 2-1 5z"/>
		<path id="Path 648" class="s68" d="m305 611l9-2h4l3 4 20 2v6l4 14-12 4-12 2-6-6v-10l-10-6z"/>
		<path id="Path 649" class="s69" d="m425 611l14-2h6 4l2 8v4h-26z"/>
		<path id="Path 650" class="s77" d="m451 617l-2-8h2 4v8z"/>
		<path id="Path 651" class="s15" d="m900 610l1-1h1v2h-1-1z"/>
		<path id="Path 652" class="s88" d="m201 611l6-1 4 3v10l-10-1-1-6z"/>
		<path id="Path 653" class="s94" d="m237 619v-9h5l5 2 2 6-2 2z"/>
		<path id="Path 654" class="s24" d="m855 615l-10-1-6-4 4 1 9 2z"/>
		<path id="Path 655" class="s72" d="m487 615l1-4h8l-3 12h-6z"/>
		<path id="Path 656" class="s44" d="m897 613l3-2v2l-3 3h-2z"/>
		<path id="Path 657" class="s3" d="m900 613v-2h1v1 1z"/>
		<path id="Path 658" class="s0" d="m901 611h1v1h-1z"/>
		<path id="Path 659" class="s49" d="m579 615l9-3 9 1 4 4-1 4-19 1h-3z"/>
		<path id="Path 660" class="s34" d="m683 617l-1-5 2 1v1l1 4z"/>
		<path id="Path 661" class="s44" d="m113 617l-10-4h4l12 5z"/>
		<path id="Path 662" class="s92" d="m211 623v-10h6l2 12h-2z"/>
		<path id="Path 663" class="s57" d="m270 620v-7h5l6 2v6z"/>
		<path id="Path 664" class="s69" d="m281 615l4-2 15 6 1 14h-5l-15-12z"/>
		<path id="Path 665" class="s69" d="m385 621v-8l14 2v8h-4z"/>
		<path id="Path 666" class="s38" d="m897 616l3-3h1l-4 4z"/>
		<path id="Path 667" class="s0" d="m685 618l-1-4 3 5z"/>
		<path id="Path 668" class="s59" d="m341 621v-6l10 1 4 7z"/>
		<path id="Path 669" class="s57" d="m399 623v-8h2 16l1 6z"/>
		<path id="Path 670" class="s79" d="m480 619v-4h7v8z"/>
		<path id="Path 671" class="s79" d="m531 623v-8l9 1 1 7h-4z"/>
		<path id="Path 672" class="s51" d="m567 621l10-6h2l-1 7-3 2h-8z"/>
		<path id="Path 673" class="s32" d="m605 617l2-2h6v8h-8z"/>
		<path id="Path 674" class="s52" d="m861 617l-5-2h4z"/>
		<path id="Path 675" class="s31" d="m861 617l-1-2 9 3h-1l-5-1z"/>
		<path id="Path 676" class="s86" d="m191 618l2-2h7l1 6-7 3z"/>
		<path id="Path 677" class="s74" d="m249 618l5-2 9 6v7 6h-6l-11-9 1-6z"/>
		<path id="Path 678" class="s3" d="m889 618l6-2h2v1l-9 3z"/>
		<path id="Path 679" class="s27" d="m124 620l-11-3 6 1 5 1z"/>
		<path id="Path 680" class="s30" d="m147 624l2-7 11 1 3 3-1 6h-4-3l-6-2h-1z"/>
		<path id="Path 681" class="s68" d="m451 621v-4h4l25 2 7 4h6l2 10-18 3-19-4-1-4-5-1z"/>
		<path id="Path 682" class="s22" d="m600 621l1-4h4v6z"/>
		<path id="Path 683" class="s41" d="m641 623v-5l4-1 8 1 2 3v12h-11z"/>
		<path id="Path 684" class="s35" d="m679 633v-13l4-3 2 1 2 3 5 6v3l-7 3z"/>
		<path id="Path 685" class="s2" d="m868 619l-5-2 5 1z"/>
		<path id="Path 686" class="s34" d="m687 621l-2-3 2 1v1z"/>
		<path id="Path 687" class="s3" d="m868 619v-1h1l11 1v1z"/>
		<path id="Path 688" class="s44" d="m880 619l9-1-1 2h-8z"/>
		<path id="Path 689" class="s75" d="m239 628l-2-9 10 1-1 6-4 2z"/>
		<path id="Path 690" class="s72" d="m301 633l-1-14h5l10 6v10z"/>
		<path id="Path 691" class="s27" d="m132 622l-6-2 6 1z"/>
		<path id="Path 692" class="s70" d="m263 622l7-2 11 1 15 12h5l14 2 6 6v4l-6 2h-4l-9-2-12-9h-8l-12-7h-7z"/>
		<path id="Path 693" class="s27" d="m687 621v-1l4 2 1 5z"/>
		<path id="Path 694" class="s62" d="m132 622v-1l11 3z"/>
		<path id="Path 695" class="s72" d="m345 635l-4-14 14 2 30-2 10 2-2 14h-14l-6 2h-4l-14-2z"/>
		<path id="Path 696" class="s66" d="m399 623l19-2h7 26l1 6 5 1 1 4-3 3h-13l-1-2-3 2h-10l-6-4-1 6h-26-2l2-14z"/>
		<path id="Path 697" class="s25" d="m557 627l4-6h6v3l-4 3z"/>
		<path id="Path 698" class="s28" d="m581 622l19-1 5 2h8 4v6l2 12h-6l-9-1h-1l-9-1-9-1z"/>
		<path id="Path 699" class="s11" d="m628 623v-2l2 2z"/>
		<path id="Path 700" class="s37" d="m655 633v-12h8l6 6v8l-6 1z"/>
		<path id="Path 701" class="s18" d="m575 624l3-2h3l4 16h-1-6-1z"/>
		<path id="Path 702" class="s72" d="m527 633v-7l4-3h6l-2 10z"/>
		<path id="Path 703" class="s66" d="m535 633l2-10h4l6 1v5l1 4v2l-13 2z"/>
		<path id="Path 704" class="s21" d="m617 629v-6h11 2 11l3 10-1 1h-10l-8-3z"/>
		<path id="Path 705" class="s62" d="m148 625l-5-1h4z"/>
		<path id="Path 706" class="s59" d="m547 629v-5h2l1 3z"/>
		<path id="Path 707" class="s28" d="m563 627l4-3h8l2 14-8-1h-3z"/>
		<path id="Path 708" class="s85" d="m213 636l4-2v-9h2 6l6 6v9h-3l-5-2h-10z"/>
		<path id="Path 709" class="s85" d="m242 628l4-2 11 9-1 2h-8z"/>
		<path id="Path 710" class="s2" d="m162 629l-4-2h4v1z"/>
		<path id="Path 711" class="s74" d="m547 629l3-2h7 6l3 10-7-2-11-2z"/>
		<path id="Path 712" class="s7" d="m162 629v-1l7 2z"/>
		<path id="Path 713" class="s22" d="m231 631h6l2-3h3l6 9h8v6h-2l-9-1-5-1-6-1h-3z"/>
		<path id="Path 714" class="s63" d="m263 635v-6h7l12 7h8l12 9-1 4h-5l-5-1-17-2v-1-5l-5-1z"/>
		<path id="Path 715" class="s22" d="m619 641l-2-12 8 2v10z"/>
		<path id="Path 716" class="s27" d="m685 633l7-3-2 4-5 1z"/>
		<path id="Path 717" class="s69" d="m421 637l1-6 6 4-5 2z"/>
		<path id="Path 718" class="s85" d="m625 641v-10l8 3v7z"/>
		<path id="Path 719" class="s81" d="m455 635l3-3 19 4v9 2h-6l-4 4h-4-8v-4l4-3z"/>
		<path id="Path 720" class="s76" d="m438 635l3-2 1 2-2 2z"/>
		<path id="Path 721" class="s70" d="m477 636l18-3 14 2v6h-3l-14 2-1 1-14 1z"/>
		<path id="Path 722" class="s0" d="m491 643h1v1h-1z"/>
		<path id="Path 723" class="s67" d="m509 635l18-2h8v4h-3l-6 1-4 2-5 1h-8z"/>
		<path id="Path 724" class="s48" d="m548 635v-2l11 2z"/>
		<path id="Path 725" class="s64" d="m643 634l1-1h11l8 3v1l-10 3h-2l-4 1h-4z"/>
		<path id="Path 726" class="s15" d="m678 635l1-2h6v2z"/>
		<path id="Path 727" class="s60" d="m633 641v-7h10v7h-1z"/>
		<path id="Path 728" class="s60" d="m256 637l1-2h6l6 4v6h-3l-10-2z"/>
		<path id="Path 729" class="s76" d="m333 639l12-4 10 2v8l-3 4-17-2-3-2z"/>
		<path id="Path 730" class="s80" d="m423 637l5-2h10l2 2 2-2h13l4 9-4 3h-8-4-7v-5l-13-1z"/>
		<path id="Path 731" class="s58" d="m663 636l6-1v2h-5-1z"/>
		<path id="Path 732" class="s15" d="m669 637v-2h5z"/>
		<path id="Path 733" class="s67" d="m355 645v-8l14 2-1 6z"/>
		<path id="Path 734" class="s80" d="m373 639l6-2v4h-4z"/>
		<path id="Path 735" class="s94" d="m379 641v-4h14 2v4h-11z"/>
		<path id="Path 736" class="s75" d="m395 641v-4h26 2v4h-22-4z"/>
		<path id="Path 737" class="s3" d="m526 638l6-1-6 2z"/>
		<path id="Path 738" class="s2" d="m578 639l-9-2 8 1h1z"/>
		<path id="Path 739" class="s27" d="m653 640l10-3h1z"/>
		<path id="Path 740" class="s6" d="m223 639l-10-1h10z"/>
		<path id="Path 741" class="s27" d="m223 639v-1l5 2z"/>
		<path id="Path 742" class="s27" d="m522 640l4-2v1z"/>
		<path id="Path 743" class="s6" d="m578 639v-1h6v1z"/>
		<path id="Path 744" class="s23" d="m584 639v-1h1l9 1v1z"/>
		<path id="Path 745" class="s82" d="m269 645v-6l5 1v5z"/>
		<path id="Path 746" class="s69" d="m321 641l12-2-1 6h-11z"/>
		<path id="Path 747" class="s63" d="m368 645l1-6h4l2 2v6h-2z"/>
		<path id="Path 748" class="s6" d="m594 640v-1l9 1z"/>
		<path id="Path 749" class="s69" d="m604 640l9 1h-2z"/>
		<path id="Path 750" class="s23" d="m240 642l-6-2 6 1z"/>
		<path id="Path 751" class="s0" d="m611 642l-8-2h1l7 1z"/>
		<path id="Path 752" class="s27" d="m647 641l4-1-4 2z"/>
		<path id="Path 753" class="s7" d="m240 642v-1l5 1h-1z"/>
		<path id="Path 754" class="s84" d="m375 647v-6h4 5v4z"/>
		<path id="Path 755" class="s85" d="m384 645v-4h11 2v4z"/>
		<path id="Path 756" class="s89" d="m397 645v-4h4v4z"/>
		<path id="Path 757" class="s85" d="m401 645v-4h22l13 1v5l-4 2h-9l-5-4h-15z"/>
		<path id="Path 758" class="s24" d="m492 643l14-2v1l-14 2z"/>
		<path id="Path 759" class="s4" d="m506 642v-1h3 8z"/>
		<path id="Path 760" class="s7" d="m611 642v-1h2 6 6v2z"/>
		<path id="Path 761" class="s56" d="m625 643v-2h8 9v1z"/>
		<path id="Path 762" class="s4" d="m642 642v-1h1 4v1z"/>
		<path id="Path 763" class="s24" d="m254 643l-10-1h1z"/>
		<path id="Path 764" class="s29" d="m273 647l-7-2h3 5v1z"/>
		<path id="Path 765" class="s64" d="m301 649l1-4 9 2v3l-8-1z"/>
		<path id="Path 766" class="s63" d="m315 647l6-2h11l3 2v6h-8-4-2l-4-1h-1l-1-1z"/>
		<path id="Path 767" class="s80" d="m352 649l3-4h13l5 2v6h-19z"/>
		<path id="Path 768" class="s67" d="m375 647l9-2h13 4 2v6l-4 1h-2l-5 1h-1-15-3v-6z"/>
		<path id="Path 769" class="s65" d="m403 651v-6h15l5 4v2z"/>
		<path id="Path 770" class="s3" d="m273 647l1-1 17 2v1z"/>
		<path id="Path 771" class="s74" d="m311 650v-3h4v4h-4z"/>
		<path id="Path 772" class="s74" d="m335 653v-6l17 2 2 4z"/>
		<path id="Path 773" class="s59" d="m432 649l4-2h7v4h-11z"/>
		<path id="Path 774" class="s66" d="m443 651v-4h4v4z"/>
		<path id="Path 775" class="s72" d="m447 651v-4h8v4z"/>
		<path id="Path 776" class="s80" d="m467 651l4-4h6l2 2v1 3h-5l-3-1z"/>
		<path id="Path 777" class="s27" d="m291 649v-1l5 1v1z"/>
		<path id="Path 778" class="s5" d="m296 650v-1h5 2v1z"/>
		<path id="Path 779" class="s56" d="m303 650v-1l8 1v1l-5 1z"/>
		<path id="Path 780" class="s25" d="m423 651v-2h9v2z"/>
		<path id="Path 781" class="s27" d="m479 650v-1l2 2z"/>
		<path id="Path 782" class="s61" d="m479 653v-3l2 1-1 2z"/>
		<path id="Path 783" class="s24" d="m306 652l5-1v1z"/>
		<path id="Path 784" class="s7" d="m311 652v-1h4l1 1z"/>
		<path id="Path 785" class="s24" d="m399 652l4-1h20 9 11 4 8 8v1z"/>
		<path id="Path 786" class="s7" d="m463 652v-1h4l4 1z"/>
		<path id="Path 787" class="s1" d="m480 653l1-2 1 3h-2z"/>
		<path id="Path 788" class="s38" d="m316 654v-2h1l1 1v1z"/>
		<path id="Path 789" class="s15" d="m318 653l-1-1 4 1z"/>
		<path id="Path 790" class="s15" d="m392 653l5-1v1z"/>
		<path id="Path 791" class="s38" d="m471 654v-2l3 1v1z"/>
		<path id="Path 792" class="s23" d="m318 654v-1h3 2v1z"/>
		<path id="Path 793" class="s4" d="m323 654v-1h4v1z"/>
		<path id="Path 794" class="s62" d="m327 654v-1h8 19 19 3v1z"/>
		<path id="Path 795" class="s24" d="m376 654v-1h15v1z"/>
		<path id="Path 796" class="s0" d="m391 654v-1h1 5v1z"/>
		<path id="Path 797" class="s23" d="m474 654v-1h5 1v1z"/>
	</g>
</svg>