<svg version="1.2" xmlns="http://www.w3.org/2000/svg" viewBox="0 0 1000 1000" width="1000" height="1000">
	<title>Moxostoma_valenciennesi</title>
	<style>
		.s0 { opacity: .3;fill: #bbb0bc } 
		.s1 { opacity: .3;fill: #dfddde } 
		.s2 { opacity: .7;fill: #c4c9cb } 
		.s3 { opacity: .7;fill: #c3b9a4 } 
		.s4 { opacity: .5;fill: #dcdcdf } 
		.s5 { fill: #9da184 } 
		.s6 { opacity: .3;fill: #5c5d5b } 
		.s7 { opacity: .9;fill: #a8a2bd } 
		.s8 { fill: #211c13 } 
		.s9 { fill: #31180e } 
		.s10 { opacity: 1;fill: #44180f } 
		.s11 { fill: #919c92 } 
		.s12 { opacity: 1;fill: #565947 } 
		.s13 { fill: #7a8373 } 
		.s14 { fill: #3d140d } 
		.s15 { opacity: 1;fill: #2d2518 } 
		.s16 { opacity: .5;fill: #bfbcb3 } 
		.s17 { opacity: 1;fill: #333020 } 
		.s18 { opacity: .4;fill: #a58090 } 
		.s19 { opacity: .7;fill: #acafad } 
		.s20 { opacity: .4;fill: #7f786e } 
		.s21 { opacity: 1;fill: #3c4130 } 
		.s22 { opacity: 1;fill: #4d4f35 } 
		.s23 { opacity: 1;fill: #433e24 } 
		.s24 { opacity: 1;fill: #3d2519 } 
		.s25 { fill: #656a53 } 
		.s26 { fill: #8c865a } 
		.s27 { fill: #868f84 } 
		.s28 { fill: #7f734c } 
		.s29 { fill: #a6ac96 } 
		.s30 { opacity: 1;fill: #797c7a } 
		.s31 { fill: #797d65 } 
		.s32 { opacity: 1;fill: #6a5935 } 
		.s33 { fill: #6a6a5c } 
		.s34 { opacity: .4;fill: #7d9a8f } 
		.s35 { fill: #9da9a6 } 
		.s36 { fill: #b7bfbc } 
		.s37 { fill: #8f9475 } 
		.s38 { fill: #62432b } 
		.s39 { fill: #d7dedc } 
		.s40 { fill: #bec9cb } 
		.s41 { fill: #c6cdc2 } 
		.s42 { fill: #c9d5da } 
		.s43 { fill: #acb5ae } 
		.s44 { fill: #c5cfd9 } 
		.s45 { fill: #d0d6cf } 
		.s46 { fill: #bec4b4 } 
		.s47 { fill: #b2b388 } 
		.s48 { fill: #acbdc2 } 
		.s49 { fill: #e0e5e5 } 
		.s50 { fill: #b4baa1 } 
		.s51 { fill: #9b996b } 
		.s52 { fill: #bdbc97 } 
		.s53 { opacity: .3;fill: #756541 } 
		.s54 { opacity: 1;fill: #6e3119 } 
		.s55 { opacity: .7;fill: #8d9489 } 
		.s56 { opacity: 1;fill: #5d2317 } 
		.s57 { opacity: 1;fill: #511d12 } 
		.s58 { fill: #c9c8a6 } 
		.s59 { fill: #cac9b3 } 
		.s60 { fill: #afa676 } 
		.s61 { opacity: 1;fill: #d4d2ba } 
		.s62 { opacity: 1;fill: #81683d } 
		.s63 { fill: #dadbc5 } 
		.s64 { fill: #e4e3ce } 
		.s65 { fill: #e7e7d8 } 
		.s66 { fill: #eef0e9 } 
		.s67 { fill: #dcd5a3 } 
		.s68 { fill: #f0efda } 
		.s69 { fill: #cebd90 } 
		.s70 { fill: #e7e4bd } 
		.s71 { fill: #bba05c } 
		.s72 { fill: #aa9159 } 
		.s73 { opacity: .7;fill: #dcd8dc } 
		.s74 { opacity: 1;fill: #5a170e } 
		.s75 { fill: #c5af7e } 
		.s76 { opacity: 1;fill: #a48040 } 
		.s77 { opacity: 1;fill: #805625 } 
		.s78 { opacity: .4;fill: #6a3625 } 
		.s79 { opacity: 1;fill: #823112 } 
		.s80 { opacity: 1;fill: #9d8049 } 
		.s81 { opacity: 1;fill: #721c0a } 
		.s82 { opacity: .4;fill: #d4c28c } 
		.s83 { opacity: .9;fill: #dc38e3 } 
		.s84 { opacity: .3;fill: #21d219 } 
		.s85 { opacity: .4;fill: #9924b6 } 
		.s86 { opacity: .4;fill: #8abbbd } 
		.s87 { opacity: 1;fill: #a35bb3 } 
		.s88 { opacity: .8;fill: #4ddfd1 } 
		.s89 { opacity: .3;fill: #172dc6 } 
		.s90 { opacity: .6;fill: #6e755e } 
	</style>
	<g id="Background">
		<path id="Path 0" class="s0" d="m429 396h1v1h-1z"/>
		<path id="Path 1" class="s1" d="m464 392h1v1h-1z"/>
		<path id="Path 2" class="s2" d="m464 393l1-1h10v2h-11z"/>
		<path id="Path 3" class="s3" d="m475 394v-2h22v2h-16z"/>
		<path id="Path 4" class="s4" d="m939 589h1v1h-1z"/>
		<path id="Path 5" class="s5" d="m920 467l11-1-1 2h-10z"/>
		<path id="Path 6" class="s6" d="m449 394h10-4z"/>
		<path id="Path 7" class="s7" d="m443 396l6-2h6z"/>
		<path id="Path 8" class="s8" d="m443 396l12-2h4 5l2 9 22 8 8 11 26 12v10l-21-3h-8l-1 3h-5l-2-4-11 2-2-4h-9l-4-8-34-7-4-7-18-5-3-7 1-2h2 5l19-3 3-1 10-2h2z"/>
		<path id="Path 9" class="s9" d="m522 434l-26-12-8-11-22-8-2-9h11 6l3 8 18 2v6l10 6 17-1 6-6 6 2 2 2 1 1 1 2-2 7-10 10z"/>
		<path id="Path 10" class="s10" d="m502 404l-18-2-3-8h16 4l9 2 6 3-2 3z"/>
		<path id="Path 11" class="s7" d="m510 396l-9-2h3 5z"/>
		<path id="Path 12" class="s0" d="m510 396l-1-2 10 5h-3z"/>
		<path id="Path 13" class="s0" d="m430 396l8-1v1z"/>
		<path id="Path 14" class="s6" d="m438 396v-1l4 1h-2z"/>
		<path id="Path 15" class="s11" d="m430 397v-1h8 2l-10 2z"/>
		<path id="Path 16" class="s0" d="m420 398l7-1v1z"/>
		<path id="Path 17" class="s12" d="m427 398v-1h2 1v1l-3 1z"/>
		<path id="Path 18" class="s13" d="m409 400l11-2h7v1l-19 3z"/>
		<path id="Path 19" class="s14" d="m502 404l12-2 2-3h3 1l2 2h1l6 3h1l5 5-6 6-17 1-10-6z"/>
		<path id="Path 20" class="s2" d="m403 402l6-2-1 2z"/>
		<path id="Path 21" class="s2" d="m523 401l4-1 2 4z"/>
		<path id="Path 22" class="s2" d="m394 404l7-2-1 2z"/>
		<path id="Path 23" class="s0" d="m379 407l8-3v2z"/>
		<path id="Path 24" class="s7" d="m387 406v-2h6l-1 2z"/>
		<path id="Path 25" class="s15" d="m392 406l1-2h1 6l3 7 18 5 4 7-6 2h-5l-3-6h-6l-12-7z"/>
		<path id="Path 26" class="s16" d="m535 409l-5-5 9 3 7 7h-2l-1-1-2-2z"/>
		<path id="Path 27" class="s17" d="m379 407l8-1h5l1 6 12 7h6l3 6-2 9-6 4-3-5-11 5-1-5-9 3-3-4h-6l-2 3-5 2-1-4h-5l-7 5-3-5-14-16 3-1h2l6-2h2l7-2h2l5-1 7-2h1l6-2z"/>
		<path id="Path 28" class="s18" d="m362 410l8-1-7 2z"/>
		<path id="Path 29" class="s19" d="m358 412l4-2 1 1z"/>
		<path id="Path 30" class="s11" d="m545 416l-1-2h2l6 5v1z"/>
		<path id="Path 31" class="s20" d="m331 417l8-1-3 1z"/>
		<path id="Path 32" class="s15" d="m522 434l11-1 10-10 2-7 7 4 3 4-7 7 1 9-1 10-10-1-1-2-7 2-8-5z"/>
		<path id="Path 33" class="s21" d="m321 419l5-2h5 5l14 16-7 7-6-1v-5h-7l-1 5-7-4h-5l-2 4-4 2-2-6-5 1-2-14h1l6-1 4-1 4-1z"/>
		<path id="Path 34" class="s19" d="m552 420v-1l5 5h-2z"/>
		<path id="Path 35" class="s22" d="m293 424l6-2h3l2 14-3 8h-5v-6l-8 1-2 7h-4l-1-6h-6l1-9-4-2 1-2 4-1 9-2z"/>
		<path id="Path 36" class="s23" d="m419 425l6-2 34 7 4 8v4l-6-5h-7l-4 4-4-5h-6l-1 3h-4l-1-4-9 1z"/>
		<path id="Path 37" class="s24" d="m549 440l-1-9 7-7h2l5 9-6 7z"/>
		<path id="Path 38" class="s19" d="m562 433l-5-9 9 9 3 9h-1z"/>
		<path id="Path 39" class="s22" d="m412 434l2-9h5l2 11-3 4v-3z"/>
		<path id="Path 40" class="s0" d="m268 429l5-2-1 2z"/>
		<path id="Path 41" class="s17" d="m259 430l5-1h4 4l4 2-1 9-2 2-2 5h-3v-5l-7-2-3 6h-5-7l-1 4-12-1-3 7-4 4-8-2-9-2-2 5-4 3-8-1-1 5h-5l3 5v4h-8l-4 4h-2l-4-2v-5l5-1 5-7v-7l-3-2 3-1 7-3 8-4 5-2 4-2h1l4 1 9-5 6-2 4-2h1l4-1h1l3-2 10-2 6-1z"/>
		<path id="Path 42" class="s25" d="m371 435l2-3h6l3 4-1 4h-3z"/>
		<path id="Path 43" class="s13" d="m343 440l7-7 3 5 7-5h5l1 4 5-2 7 5-2 6-4 1-1-4h-6l-3 7h-4v-6h-7l-1 6-4 3-3-2v-8z"/>
		<path id="Path 44" class="s13" d="m382 436l9-3 1 5 1 6-5 5-7-9z"/>
		<path id="Path 45" class="s26" d="m392 438l11-5 3 5v5l-4 5h-4l-1-4h-4z"/>
		<path id="Path 46" class="s17" d="m549 440h7l6-7 6 9v4l-7 9h-5l-2-5h-6z"/>
		<path id="Path 47" class="s27" d="m329 439l1-5h7v5l6 1v3l-7 3-1-4h-4z"/>
		<path id="Path 48" class="s28" d="m406 438l6-4 6 3v3 5l-6 4v-5l-6-1z"/>
		<path id="Path 49" class="s27" d="m304 436l5-1 2 6v2l-1 6-2 2-5-1h-7l-3-2v-4h3 5z"/>
		<path id="Path 50" class="s29" d="m315 439l2-4h5l-1 7z"/>
		<path id="Path 51" class="s30" d="m321 442l1-7 7 4 2 3v3l-8 1z"/>
		<path id="Path 52" class="s31" d="m421 436l9-1 1 4h4l1-3h6l4 5 1 6-5 5h-8l-10-1v-3l-6-3v-5z"/>
		<path id="Path 53" class="s25" d="m446 441l4-4h7l6 5 8 7v5h-5l-2-4-12 3v-6h-5z"/>
		<path id="Path 54" class="s11" d="m275 440h6l1 6h4l2-7 8-1v6h-3l-4 1 1 4-1 3-8 3-1 9h-2l-2-2v-8l4-1v-4h-4l-3-7z"/>
		<path id="Path 55" class="s32" d="m463 442v-4h9l2 4 11-2 2 4h5l1 5-11 4-2-5-9 1z"/>
		<path id="Path 56" class="s33" d="m311 441l4-2 6 3 2 4-1 5-5-1v-5l-6-2z"/>
		<path id="Path 57" class="s33" d="m209 445l9-5 4 1-9 5z"/>
		<path id="Path 58" class="s27" d="m258 446l3-6 7 2v5h3l2-5 3 7v4l-7 2v5h-7v-5l-5-1z"/>
		<path id="Path 59" class="s11" d="m372 447l4-1 2-6h3l7 9v5l-10 3h-6l-2 5-5-1v-7z"/>
		<path id="Path 60" class="s23" d="m492 444l1-3h8l21 3 8 5v5l-8 4-1-6h-9l-2 5-3-7h-8l-1 4h-3l-2-5z"/>
		<path id="Path 61" class="s25" d="m331 445v-3h4l1 4v5l-5-1z"/>
		<path id="Path 62" class="s34" d="m568 446v-4h1l2 5 5 2h-2z"/>
		<path id="Path 63" class="s35" d="m310 449l1-6 6 2v5l-2 1z"/>
		<path id="Path 64" class="s36" d="m336 446l7-3v8l3 2-3 2-5 1-2-5z"/>
		<path id="Path 65" class="s36" d="m350 450l1-6h7v6h4l3-7h6l1 4-7 7v7l5 1v4l-8 4h-4l-2-5v-10l-3-1z"/>
		<path id="Path 66" class="s11" d="m398 448h4l4-5 6 1v5 6l-4 4-8-3z"/>
		<path id="Path 67" class="s36" d="m290 449l-1-4 4-1v4z"/>
		<path id="Path 68" class="s35" d="m388 449l5-5h4l1 4 2 8-7 3-5-5z"/>
		<path id="Path 69" class="s13" d="m245 450l1-4h7l-2 4z"/>
		<path id="Path 70" class="s36" d="m323 446l8-1v5l-5 4h-4v-3z"/>
		<path id="Path 71" class="s37" d="m412 449l6-4 6 3v3l1 7v5h-4l-4-8h-5z"/>
		<path id="Path 72" class="s31" d="m251 450l2-4h5l-1 8-3 8-3 1h-2v-6z"/>
		<path id="Path 73" class="s23" d="m561 455l7-9 6 3-1 10-6 1h-4z"/>
		<path id="Path 74" class="s11" d="m434 452h8l5-5h5v6 6l3 7-1 3-10-1v-6l-8-1-2-3z"/>
		<path id="Path 75" class="s38" d="m530 449l7-2 1 2-3 5h-3-2z"/>
		<path id="Path 76" class="s13" d="m290 449l3-1 3 2-1 10h-4l-2-3v-5z"/>
		<path id="Path 77" class="s5" d="m471 449l9-1 2 5v5l-4 1-7-5z"/>
		<path id="Path 78" class="s20" d="m186 454l13-5-8 4z"/>
		<path id="Path 79" class="s22" d="m230 456l3-7 12 1-1 4-8 4-4-2z"/>
		<path id="Path 80" class="s33" d="m276 453v-4h4v4l-4 1z"/>
		<path id="Path 81" class="s39" d="m296 450h7l-1 5-3 5-3 1-1-1z"/>
		<path id="Path 82" class="s40" d="m308 451l2-2 5 2-2 7h-2l-3-2z"/>
		<path id="Path 83" class="s27" d="m482 453l11-4 2 5h3l-1 5-8 6-2-6-5-1z"/>
		<path id="Path 84" class="s23" d="m535 454l3-5 10 1h6l2 5-6 4-2-5-7-1-4 6z"/>
		<path id="Path 85" class="s22" d="m573 459l1-10h2 1l10 3 8 2 3 1 6 2h1l6 2h1l10 3h2l5 2h3l10 3v1 3l-6 4-1-5-10 1-2-4-8 3h-4l-1-4-9 2-1-5h-7l-3 5-3-1 1-5-9 1-1 3z"/>
		<path id="Path 86" class="s27" d="m244 454l1-4h6l-2 7h-4z"/>
		<path id="Path 87" class="s13" d="m302 455l1-5 5 1v5z"/>
		<path id="Path 88" class="s27" d="m315 451l2-1 5 1v3l-6 4h-3z"/>
		<path id="Path 89" class="s11" d="m326 454l5-4 5 1 2 5v2l-5-1-2 3h-2l-3-3z"/>
		<path id="Path 90" class="s41" d="m346 453l4-3 3 4-2 9 5 2 2 5v7l4 1 4 6-1 12h-3-5l-1-1v-10l-4-1-2-6v-9l-6-1-1-2v-11z"/>
		<path id="Path 91" class="s37" d="m452 453l12-3 2 4h5l7 5v7h-6l-12-2-1-5h-7z"/>
		<path id="Path 92" class="s5" d="m498 454l1-4h8l3 7v4l-5 5-7-4-1-3z"/>
		<path id="Path 93" class="s27" d="m425 458l-1-7 10 1v6h-4z"/>
		<path id="Path 94" class="s39" d="m280 464l1-9 8-3v5l-3 6-2 1z"/>
		<path id="Path 95" class="s37" d="m510 457l2-5h9l1 6 8-4h2l2 12-2 5h-6l-1-3-10 1-1-6-4-2z"/>
		<path id="Path 96" class="s25" d="m186 454l5-1-7 3 1-2z"/>
		<path id="Path 97" class="s42" d="m269 460v-5l7-2v1 8l-4 3z"/>
		<path id="Path 98" class="s26" d="m535 454l2 5 4-6 7 1 2 5 6-4h5l2 5-1 2h-6l-1 4h-4l-7 7-3-8-7 1-2-12z"/>
		<path id="Path 99" class="s0" d="m174 459l11-5-1 2-3 1z"/>
		<path id="Path 100" class="s37" d="m236 458l8-4 1 3-2 7-1 1-6-2z"/>
		<path id="Path 101" class="s42" d="m254 462l3-8 5 1v5z"/>
		<path id="Path 102" class="s35" d="m316 458l6-4h4v3l-2 4-8 1z"/>
		<path id="Path 103" class="s37" d="m356 465l-5-2 2-9 3 1z"/>
		<path id="Path 104" class="s43" d="m378 457l10-3 5 5 7-3 8 3 4-4h5l4 8h4l1 3 3 6-1 14-4 1-6-5h-6l-4 10h-10-8l-1-3h-4v-6l-3-1 2-11-6-7z"/>
		<path id="Path 105" class="s0" d="m598 455l-3-1 4 1z"/>
		<path id="Path 106" class="s35" d="m299 460l3-5 6 1 3 2-1 4h-8z"/>
		<path id="Path 107" class="s13" d="m338 456l5-1v11l-5-4v-4z"/>
		<path id="Path 108" class="s18" d="m604 457l-6-2h1z"/>
		<path id="Path 109" class="s22" d="m207 461l2-5 9 2-2 3-5 1h-2z"/>
		<path id="Path 110" class="s26" d="m226 460l4-4h2v2l-2 2z"/>
		<path id="Path 111" class="s27" d="m232 458v-2l4 2z"/>
		<path id="Path 112" class="s15" d="m174 459l7-2 3 2v7l-5 7-5 1v5l-7 1-5 6h-4l4-16 5-3v-4z"/>
		<path id="Path 113" class="s42" d="m243 464l2-7h4v6z"/>
		<path id="Path 114" class="s11" d="m286 463l3-6 2 3v3l-2 2z"/>
		<path id="Path 115" class="s31" d="m324 461l2-4 3 3-2 6-3-2z"/>
		<path id="Path 116" class="s44" d="m331 460l2-3 5 1v4z"/>
		<path id="Path 117" class="s39" d="m370 462l2-5h6v7l6 7-2 11h-1l-6-5v-10h-4l-1-1z"/>
		<path id="Path 118" class="s29" d="m216 461l2-3 8 2h4v6l-3 12h-4l-3-6h-6l-2-2 1-3 3-1z"/>
		<path id="Path 119" class="s45" d="m230 460l2-2h4v5l-2 3h-4z"/>
		<path id="Path 120" class="s13" d="m310 462l1-4h2 3v4 2l-6 1z"/>
		<path id="Path 121" class="s36" d="m425 463v-5h5v8h-4z"/>
		<path id="Path 122" class="s35" d="m430 466v-8h4l2 3 8 1v6l-5 4h-7z"/>
		<path id="Path 123" class="s46" d="m478 459l4-1 5 1 2 6 5 3v8h-15l-2-4 1-6z"/>
		<path id="Path 124" class="s0" d="m163 464l6-5h5l-7 4z"/>
		<path id="Path 125" class="s43" d="m455 466l-3-7h7l1 5z"/>
		<path id="Path 126" class="s47" d="m489 465l8-6 1 3-4 6z"/>
		<path id="Path 127" class="s5" d="m567 460l6-1 5 7 1 4-3 4h-4v-6l-5-3z"/>
		<path id="Path 128" class="s48" d="m254 462l8-2h7l3 5v2h-5l-5 7h-4l-2-4h-5v-7z"/>
		<path id="Path 129" class="s40" d="m291 463v-3h4l1 1v2z"/>
		<path id="Path 130" class="s37" d="m296 461l3-1 3 2v2h-5l-1-1z"/>
		<path id="Path 131" class="s49" d="m316 462l8-1v3l-3 3-5-3z"/>
		<path id="Path 132" class="s43" d="m324 464l3 2 2-6h2l7 2 5 4 1 2v8h-2-7v-4h-4l2 7v11h-3l-4-3v7l4 1h1v5l-7 4h-2v-4l-6-2 2-11-5 2-5-8 2-5-4-2v-2l4-7 6-1 5 3z"/>
		<path id="Path 133" class="s32" d="m562 462l1-2h4v5l-5-1z"/>
		<path id="Path 134" class="s13" d="m194 468l1-5 8 1 4-3 2 1-3 2v7l-2 7h-4l-4-2-1-4z"/>
		<path id="Path 135" class="s31" d="m211 462l5-1v5l-3 1z"/>
		<path id="Path 136" class="s49" d="m302 462h8v3l-4 7-4-1v-7z"/>
		<path id="Path 137" class="s50" d="m498 462l7 4 5-5 4 2 1 6 10-1 1 3-2 11-28-1-2-5v-8z"/>
		<path id="Path 138" class="s36" d="m206 471v-7l3-2h2l2 5-1 3-3 1z"/>
		<path id="Path 139" class="s31" d="m272 465l4-3 2 2-1 6-3 3-2-6z"/>
		<path id="Path 140" class="s37" d="m555 466l1-4h6v2l-7 4z"/>
		<path id="Path 141" class="s51" d="m578 466l1-3 9-1-1 5 3 1 1 4-9 5-3-7z"/>
		<path id="Path 142" class="s8" d="m163 464l4-1v4l-5 3-4 16-2 1h-12l-1 3-3 3-8 4-2 10-2 8v4l-7 2-7-8-4 1-7 1-9 9-9 2 1 7-2 3h-10l-4 4 1 7-6 9-8 1-6-3v-4l1-2 1-3v-1l3-5v-1l7-6 10-10 4-4 1-1 10-8 6-5 7-5 7-5 3-2 5-3h2l7-5 8-5 18-10 11-5z"/>
		<path id="Path 143" class="s29" d="m234 466l2-3 6 2v5l-4 7 6 2 3 7-1 4-4 3v19l-2 5h-3l-5-6-2-3 1-29 3-3z"/>
		<path id="Path 144" class="s35" d="m243 464l6-1h2v7l-1 2h-4l-4-2v-5z"/>
		<path id="Path 145" class="s31" d="m284 464l2-1 3 2v4l-4 1-1-2z"/>
		<path id="Path 146" class="s49" d="m289 465l2-2h5l1 1-1 8-3 2-4-1v-4z"/>
		<path id="Path 147" class="s31" d="m590 468l3-5h7l1 5v3l-7 4-3-3z"/>
		<path id="Path 148" class="s36" d="m277 470l1-6h2 4v4l-4 2z"/>
		<path id="Path 149" class="s29" d="m296 472l1-8h5v7z"/>
		<path id="Path 150" class="s50" d="m455 466l5-2 12 2v6l2 11-4 4v17l-15 1-3-4h-6l-2-5v-13l-5-5v-6l5-4 10 1z"/>
		<path id="Path 151" class="s51" d="m555 468l7-4 5 1 5 3v6l-2 2-14-2z"/>
		<path id="Path 152" class="s52" d="m534 466l7-1 3 8v4l-6 3-6-9z"/>
		<path id="Path 153" class="s0" d="m919 467l19-1h-2-5l-11 1z"/>
		<path id="Path 154" class="s40" d="m227 478l3-12h4v10l-3 3z"/>
		<path id="Path 155" class="s45" d="m362 470l8-4 1 1 1 10h3l6 5-2 8-5 8-4-2 2-9-6-3-4-6z"/>
		<path id="Path 156" class="s50" d="m429 472l-3-6h4l2 6z"/>
		<path id="Path 157" class="s52" d="m472 472v-6h6l-1 6z"/>
		<path id="Path 158" class="s50" d="m544 473l7-7h4v2l1 6 14 2v4l-12 6-5 1-5-1v-7l-4-2z"/>
		<path id="Path 159" class="s51" d="m601 468l9-2 1 4h4l8-3 2 4 10-1 1 5v6l-3 3-8-3-4 5h-2l-3-11h-4l-4 5-7-9z"/>
		<path id="Path 160" class="s32" d="m930 468l1-2h5l-1 5z"/>
		<path id="Path 161" class="s29" d="m935 471l1-5h2v5l-1 2-2 1z"/>
		<path id="Path 162" class="s44" d="m262 474l5-7h5l2 6v17l7 4 1 5-6 8v9l-6 4-6-2v-14l3-4 1-5-4-1z"/>
		<path id="Path 163" class="s27" d="m375 477h-3l-1-10h4z"/>
		<path id="Path 164" class="s0" d="m642 468v-1l7 2h-1z"/>
		<path id="Path 165" class="s1" d="m903 469l8-2-7 2z"/>
		<path id="Path 166" class="s26" d="m904 469l7-2h1l1 1v1z"/>
		<path id="Path 167" class="s53" d="m913 468l-1-1h7 1v1z"/>
		<path id="Path 168" class="s31" d="m192 473l-3-5h5l1 4z"/>
		<path id="Path 169" class="s49" d="m280 470l4-2 1 2-1 2z"/>
		<path id="Path 170" class="s35" d="m344 476v-8l6 1v9z"/>
		<path id="Path 171" class="s5" d="m642 471v-3l6 1-1 3h-2z"/>
		<path id="Path 172" class="s54" d="m913 469v-1h7l-2 6h-4z"/>
		<path id="Path 173" class="s38" d="m918 474l2-6h10l5 3v3l-7 12-12 11z"/>
		<path id="Path 174" class="s55" d="m137 475l14-6-18 10 1-2z"/>
		<path id="Path 175" class="s46" d="m285 470l4-1v4l4 1-1 6h-6l-2-2v-6z"/>
		<path id="Path 176" class="s25" d="m647 472l1-3h1 4l-3 6z"/>
		<path id="Path 177" class="s47" d="m650 475l3-6 8 1-1 5h3l1-5 8 2v5h3l1-5 9 2 5 15-5 6-9-7h-10l-2-4-10 2-4-8z"/>
		<path id="Path 178" class="s0" d="m886 471l8-2v1z"/>
		<path id="Path 179" class="s20" d="m894 470v-1h4v1z"/>
		<path id="Path 180" class="s56" d="m898 470v-1h5 1 9l1 5h4l-2 23-4 4-5 5-6 5-2 2-6 5h-1l-4 1v-9l9-12 3-17z"/>
		<path id="Path 181" class="s35" d="m209 471l3-1 2 2v2h-4z"/>
		<path id="Path 182" class="s49" d="m244 479l-6-2 4-7 4 2z"/>
		<path id="Path 183" class="s39" d="m250 472l1-2h5l2 4-2 4h-3z"/>
		<path id="Path 184" class="s42" d="m274 473l3-3h3l4 2v6l-3 1v7h4l3 6v6l4 1 6 1v6l-2 9h4v-5h10l3-6 8 1-1 8-2 8-4 1v4l-16 14h-7l-8-10h-7l-2-4h-4v-6l6-4v-9l6-8-1-5-7-4z"/>
		<path id="Path 185" class="s5" d="m362 478l-4-1v-7h4z"/>
		<path id="Path 186" class="s50" d="m576 474l3-4 3 7 9-5 3 3 3 9-7 8-12-2-2-10z"/>
		<path id="Path 187" class="s33" d="m664 470l-1 5h-3l1-5z"/>
		<path id="Path 188" class="s3" d="m871 472l11-1-4 1z"/>
		<path id="Path 189" class="s57" d="m886 471l8-1h4l2 11-3 17-9 12v9l-2 2-6 3-5-8 3-44 4-1z"/>
		<path id="Path 190" class="s46" d="m204 478l2-7h3l1 3h4l2 16 8 4v13l-9 4-2-8h-3v-7l-6-1-2-9 3-3z"/>
		<path id="Path 191" class="s40" d="m296 472l6-1 4 1v2l2 7 5 8v8l3 1 6 2v4l-1 1-8-1-3 6h-10l-2-4v-6l-6-1-2-7 2-12 1-6z"/>
		<path id="Path 192" class="s58" d="m524 482l2-11h6l6 9v7l-4 2v9l-3 2-2-9-5-3z"/>
		<path id="Path 193" class="s47" d="m594 475l7-4 7 9v5l-8 2-3-3z"/>
		<path id="Path 194" class="s37" d="m636 475l6-4 3 1v6l-2 5-7-2z"/>
		<path id="Path 195" class="s12" d="m192 473l3-1 1 4-1 1h-3z"/>
		<path id="Path 196" class="s41" d="m214 474v-2h6l3 6h4l4 1-1 29-6-1v-13l-8-4z"/>
		<path id="Path 197" class="s50" d="m244 479l2-7h4l3 6h3l-1 5-8 3z"/>
		<path id="Path 198" class="s28" d="m333 479l-2-7h4v4z"/>
		<path id="Path 199" class="s46" d="m428 486l1-14h3 7v6l5 5v13l-5 1-4-1-3-8z"/>
		<path id="Path 200" class="s59" d="m474 483l-2-11h5l2 4-2 7z"/>
		<path id="Path 201" class="s60" d="m645 478v-6h2l3 3v3z"/>
		<path id="Path 202" class="s25" d="m676 472l-1 5h-3v-5z"/>
		<path id="Path 203" class="s55" d="m856 474l11-2-1 2z"/>
		<path id="Path 204" class="s10" d="m866 474l1-2h4 7l-3 44 5 8-1 4v2l3 4 7 5 1 2-5 7v14l-12 16-11-4 4-14-2-14z"/>
		<path id="Path 205" class="s0" d="m935 474l2-1-8 13h-1z"/>
		<path id="Path 206" class="s46" d="m256 478l2-4h4l2 20v5l3 1-3 4v14h-6-5l-1-22-6-6 1-4 8-3z"/>
		<path id="Path 207" class="s25" d="m308 481l-2-7 4 2z"/>
		<path id="Path 208" class="s52" d="m570 476l2-2h4v6h-6z"/>
		<path id="Path 209" class="s27" d="m690 489l-5-15 7 1 1 1-1 13z"/>
		<path id="Path 210" class="s7" d="m839 475l11-1-10 2z"/>
		<path id="Path 211" class="s9" d="m840 476l10-2h4l2 25-12 19v17l10 18v19l-13-1v-3l-5-1-5-6-13-2-6-5v-9l7-4 1-9-3-12-5-4v-9l7-10 5-19 1-1h1l9-1z"/>
		<path id="Path 212" class="s14" d="m854 572v-19l-10-18v-17l12-19-2-25h2 10l-2 72 2 14-4 14z"/>
		<path id="Path 213" class="s50" d="m608 480l4-5h4l3 11-7 5-4-6z"/>
		<path id="Path 214" class="s0" d="m693 476l-1-1 10 2h-1z"/>
		<path id="Path 215" class="s0" d="m827 476l7-1v1z"/>
		<path id="Path 216" class="s6" d="m834 476v-1h5l1 1h-5z"/>
		<path id="Path 217" class="s58" d="m195 477l1-1 4 2-5 1z"/>
		<path id="Path 218" class="s50" d="m333 479l2-3h7v9l-3 1-1 6h-5v-2z"/>
		<path id="Path 219" class="s36" d="m342 485v-9h2l6 2 2 6-1 9 5 2 1 1-7 6h-3l-5-6 2-2z"/>
		<path id="Path 220" class="s58" d="m474 483h3l2-7h15l2 5v10l10 5v7l-4 2v6l-6 4-2-3-9 2-6-8h-9v-2-17z"/>
		<path id="Path 221" class="s43" d="m692 489l1-13 8 1v8l6 3v4l-10 3z"/>
		<path id="Path 222" class="s31" d="m826 477l1-1h7 1z"/>
		<path id="Path 223" class="s28" d="m180 481l4-4h8 3v2 5l-6 2h-5z"/>
		<path id="Path 224" class="s61" d="m538 480l6-3 4 2v7l-6 7 2 5-1 13-6 3-2-9-4-1v-4l3-2v-9l4-2z"/>
		<path id="Path 225" class="s29" d="m707 488l-6-3v-8h1 7l3 1 5 1v5h-9z"/>
		<path id="Path 226" class="s18" d="m816 479l9-2-1 1z"/>
		<path id="Path 227" class="s47" d="m195 479l5-1h4l1 5-3 3-7-2z"/>
		<path id="Path 228" class="s29" d="m285 486h-4v-7l3-1 2 2z"/>
		<path id="Path 229" class="s46" d="m636 481l7 2 2-5h5l4 8 10-2 2 4h10l9 7v4l-9-1h-22l-14-4v-4l-7-6z"/>
		<path id="Path 230" class="s15" d="m816 479l8-1-5 19-7 10v9l-6 1-2 12 4 5v10l4 1v9l-10-1-4-5 2-12-2-10 2-43 6-2h2l6-2z"/>
		<path id="Path 231" class="s55" d="m125 483l8-4-8 5z"/>
		<path id="Path 232" class="s31" d="m162 486l5-6 7-1 4 2-3 9-2 8h-9l-2-3v-5z"/>
		<path id="Path 233" class="s43" d="m717 484v-5l7 1v4z"/>
		<path id="Path 234" class="s49" d="m285 486l1-6h6l-2 12h-2z"/>
		<path id="Path 235" class="s59" d="m496 481l28 1v6l-4 1v15l6 3v7l-10-5-2-3h-6l-2-3v-7l-10-5z"/>
		<path id="Path 236" class="s58" d="m558 486l12-6h6l2 10v10l-3 6-19-2v-11z"/>
		<path id="Path 237" class="s11" d="m724 484v-4h4v5z"/>
		<path id="Path 238" class="s35" d="m728 485v-5l6 2v10h-4z"/>
		<path id="Path 239" class="s55" d="m799 482l7-1-6 2z"/>
		<path id="Path 240" class="s26" d="m175 490l3-9h2l4 5v4z"/>
		<path id="Path 241" class="s58" d="m621 486l4-5 8 3 7 6v4l-2 2-14-2z"/>
		<path id="Path 242" class="s47" d="m379 490l2-8h1l3 1v6l-1 1z"/>
		<path id="Path 243" class="s41" d="m398 492h10l4-10h6l6 5 8 14v13l-6 5v5h-13l-1-6h-6l-3-4h-5l-4-6v-8z"/>
		<path id="Path 244" class="s29" d="m734 492v-10l21 2v2l-4 3 6 3v6l7 6v4h-4l-18-4-4-2v-8z"/>
		<path id="Path 245" class="s17" d="m791 484l6-2h2l1 1-2 43h-8v-6l2-7-4-2v-5-6l-10-9v-4l1-1 8-2z"/>
		<path id="Path 246" class="s20" d="m118 487l7-4v1l-7 5z"/>
		<path id="Path 247" class="s26" d="m189 486l6-2 7 2 2 9v1l-11 2z"/>
		<path id="Path 248" class="s27" d="m356 495l-5-2 1-9 4 1z"/>
		<path id="Path 249" class="s47" d="m365 496l1-12 6 3-2 9z"/>
		<path id="Path 250" class="s45" d="m578 490l12 2 7-8 3 3 8-2 4 6 7-5h2l3 8 14 2 2-2 14 4v11l-31 3-7-2-10-2-3-4-9 2h-4l-2-6h-10z"/>
		<path id="Path 251" class="s40" d="m707 488l1-4h9 7l4 1 2 7h4l4 2v8l4 2v10h-12l-1-7-7-3-4-6h-8l-3-6z"/>
		<path id="Path 252" class="s18" d="m755 486v-2l5 1v1z"/>
		<path id="Path 253" class="s6" d="m777 485l10-1-8 2h-2z"/>
		<path id="Path 254" class="s31" d="m338 492l1-6 3-1 2 9-2 2z"/>
		<path id="Path 255" class="s0" d="m760 486v-1l8 1h-5z"/>
		<path id="Path 256" class="s0" d="m768 486l9-1v1l-7 1h-2z"/>
		<path id="Path 257" class="s21" d="m156 487l2-1h4v4z"/>
		<path id="Path 258" class="s62" d="m184 490v-4h5l4 12 11-2 4 7-1 12-4 3-3-2v-5l-7-7-5-5z"/>
		<path id="Path 259" class="s59" d="m424 487l4-1 4 2 3 8 4 1v4h-7z"/>
		<path id="Path 260" class="s47" d="m544 498l-2-5 6-7 5 1v5h-4z"/>
		<path id="Path 261" class="s63" d="m553 487l5-1-2 7-3-1z"/>
		<path id="Path 262" class="s27" d="m757 492l-6-3 4-3h5 3v2l-2 2z"/>
		<path id="Path 263" class="s11" d="m763 488v-2h5v1z"/>
		<path id="Path 264" class="s35" d="m770 487l7-1h2l-1 1z"/>
		<path id="Path 265" class="s1" d="m916 497l12-11h1l-12 14-5 1z"/>
		<path id="Path 266" class="s0" d="m116 489l2-2v2z"/>
		<path id="Path 267" class="s12" d="m143 490l1-3h12l6 3v5l-11 1-4-6z"/>
		<path id="Path 268" class="s28" d="m313 489l5-2-2 11-3-1z"/>
		<path id="Path 269" class="s26" d="m330 495l-4-1v-7l4 3z"/>
		<path id="Path 270" class="s21" d="m763 488l5-1h2 8v4l10 9v6h-10l-2-8-7-8h-8z"/>
		<path id="Path 271" class="s63" d="m526 507l-6-3v-15l4-1 5 3 2 9v4z"/>
		<path id="Path 272" class="s45" d="m384 490l1-1h4l1 3-2 8h-2z"/>
		<path id="Path 273" class="s42" d="m685 495l5-6h2l5 6 10-3 3 6h8l4 6v10l-4 2v4h-8v-3l-9-7h-12l-4-11z"/>
		<path id="Path 274" class="s51" d="m140 493l3-3h4l4 6 11-1 2 3-1 6-20 1z"/>
		<path id="Path 275" class="s60" d="m173 498l2-8h9l4 9-2 3h-9z"/>
		<path id="Path 276" class="s43" d="m237 517h3l2-5v-19l4-3 6 6 1 22-1 8-6 4v-5l-6-1-3-1z"/>
		<path id="Path 277" class="s52" d="m330 495v-5h3v2l-2 3z"/>
		<path id="Path 278" class="s52" d="m374 498l5-8h5l2 10v10h-4l-4-2-4-3z"/>
		<path id="Path 279" class="s13" d="m757 492l4-2h8l7 8 2 8 4 12h-4-5l1-6h-8l-2-4v-4l-7-6z"/>
		<path id="Path 280" class="s5" d="m292 499l-4-1v-6h2z"/>
		<path id="Path 281" class="s45" d="m331 495l2-3h5l4 4 5 6-1 9h-8v-7l-5-1-2-3z"/>
		<path id="Path 282" class="s46" d="m388 500l2-8h8l-4 8z"/>
		<path id="Path 283" class="s64" d="m544 498l5-6h4l3 1v11 9l-8 1-5-3z"/>
		<path id="Path 284" class="s21" d="m130 507l2-10 8-4 3 12-1 5-7-2z"/>
		<path id="Path 285" class="s0" d="m101 499l2-4 5-1z"/>
		<path id="Path 286" class="s47" d="m267 500l-3-1v-5l4 1z"/>
		<path id="Path 287" class="s41" d="m204 496v-1l6 1v7h-2z"/>
		<path id="Path 288" class="s39" d="m350 502l7-6h5l-3 15 9-1 8 4v8h-4l-5-3-3 9h-8v-6l-4-1h-6l-4 7-15 2-5 10h-5l-5 6-8 3-4 13 7 4 1 12h-2-7l-1 4h-3l-12-18-13-2v-6l14-2 7-14h7l16-14 4 1v-6l2-8h4v-9l7-4 2 3v8h5 8l5-1z"/>
		<path id="Path 289" class="s58" d="m376 514l-8-4-9 1 3-15h3 5l4 2v7l4 3z"/>
		<path id="Path 290" class="s41" d="m439 497l5-1 2 5-4 4-3-4z"/>
		<path id="Path 291" class="s47" d="m163 504l1-6h9l4 4h9l2-3 5 5-4 4h-21z"/>
		<path id="Path 292" class="s49" d="m654 509v-11h22v7l7 6-1 19-6 3v9h-21l-3 10-10 6-12 1-4-5v-9l3-3h5l2-5 12-2 9-6 2-12-2-7z"/>
		<path id="Path 293" class="s39" d="m682 530l1-19-7-6v-7l9 1 4 11h12l9 7v3l-7 11z"/>
		<path id="Path 294" class="s58" d="m386 510v-10h2 6v8l-4 4z"/>
		<path id="Path 295" class="s63" d="m575 506l3-6h10l2 6-2 4h-8z"/>
		<path id="Path 296" class="s39" d="m426 524v-5l6-5v-13h7l3 4v17l-4 1v5h-10z"/>
		<path id="Path 297" class="s63" d="m442 505l4-4h6l3 4 15-1v2l3 17-4 1-1 4h-17l-4-6h-5z"/>
		<path id="Path 298" class="s37" d="m346 511l1-9h3l1 8z"/>
		<path id="Path 299" class="s28" d="m203 518l4-3 1-12h2 3l2 8v3l5 1-2 9h-12z"/>
		<path id="Path 300" class="s47" d="m338 511h-5v-8l5 1z"/>
		<path id="Path 301" class="s65" d="m502 511v-6l4-2 2 3v6z"/>
		<path id="Path 302" class="s5" d="m143 505l20-1 5 4v7l-4 2v9l-3 2-2 10-8 3h-3l-3-11-9-1 2-8 3-2 1-9z"/>
		<path id="Path 303" class="s60" d="m189 508l4-4 7 7v5h-6z"/>
		<path id="Path 304" class="s27" d="m321 505l1-1h2v9h-4z"/>
		<path id="Path 305" class="s66" d="m526 507l5-3 4 1 2 9 6-3 5 3v10l7 2 5 9 7 3 2 9h7l8 9v6l-16 3h-20l-7-3-1-9-21-4-1-12 14-3 4-4v-8l-10-8z"/>
		<path id="Path 306" class="s65" d="m556 513v-9l19 2 5 4h8v6l-12 5-2-3h-10l-2-5z"/>
		<path id="Path 307" class="s65" d="m594 506l9-2 3 4 10 2 1 6-5 5-12-1-6-4z"/>
		<path id="Path 308" class="s39" d="m718 520v-4l4-2v-10l7 3 1 7h12l5 5h11l5 3 1 14-1 6-6 6-7-1 2-11-3-3-7-2-4 5h-12l-1-5-7-4z"/>
		<path id="Path 309" class="s36" d="m742 514v-10l18 4v8l-2 3h-11z"/>
		<path id="Path 310" class="s60" d="m300 510v5h-4l2-9z"/>
		<path id="Path 311" class="s67" d="m473 523l-3-17h9l6 8-3 12z"/>
		<path id="Path 312" class="s67" d="m508 512v-6h6l2 3-5 8-3-1z"/>
		<path id="Path 313" class="s64" d="m588 510l2-4h4v10h-6z"/>
		<path id="Path 314" class="s12" d="m782 518l-4-12h10v5l4 2-2 7h-6z"/>
		<path id="Path 315" class="s51" d="m128 515l2-8 5 1v4z"/>
		<path id="Path 316" class="s35" d="m215 511l9-4 6 1 2 3v12h5l3 1v10h-4l-2-6-4 2-10-1-2-5 2-9-5-1z"/>
		<path id="Path 317" class="s31" d="m135 512v-4l7 2-1 9-3 2-3-1z"/>
		<path id="Path 318" class="s51" d="m168 515v-7h21l5 8-6 5v7l-12 2-4-4v-9z"/>
		<path id="Path 319" class="s63" d="m376 514l2-6 4 2 1 8-2 4h-5z"/>
		<path id="Path 320" class="s39" d="m386 510l4 2 4-4 4 6v6h-6l-9-2-1-8z"/>
		<path id="Path 321" class="s48" d="m760 516v-8h4l2 4-2 4z"/>
		<path id="Path 322" class="s55" d="m78 517l6-8h4z"/>
		<path id="Path 323" class="s68" d="m508 516l3 1 5-8 10 5 10 8v8l-4 4-14 3 1 12 21 4 1 9h-10l-11 10-12-2-1-9-8-1-9-8v-4-16l5-1 1-10z"/>
		<path id="Path 324" class="s66" d="m623 512l31-3 3 1 2 7-2 12-9 6-12 2-2 5h-5l-3 3v9l-6 2v8l-1 1-9-1-8-2v-2l3-14 5-4 2-21 5-5h5z"/>
		<path id="Path 325" class="s49" d="m617 516l-1-6 7 2-1 4z"/>
		<path id="Path 326" class="s49" d="m237 523h-5v-12l5 6z"/>
		<path id="Path 327" class="s64" d="m496 515l6-4 6 1v4l-12 5z"/>
		<path id="Path 328" class="s69" d="m128 515l7-3v8l-5 3-2-4z"/>
		<path id="Path 329" class="s70" d="m485 514l9-2 2 3v6l-1 10-5 1-8-6z"/>
		<path id="Path 330" class="s35" d="m764 516l2-4h8l-1 6-1 6 6-1 2 5-2 2-6 6h-8l-1-14z"/>
		<path id="Path 331" class="s47" d="m110 514l4-1 7 8 1 6h-2l-9-4z"/>
		<path id="Path 332" class="s68" d="m548 514l8-1h6l2 5h10l2 3 12-5h6l6 4 12 1-2 21-5 4-3 14h-10l-2-4h-6l-8-9h-7l-2-9-7-3-5-9-7-2z"/>
		<path id="Path 333" class="s23" d="m94 524l9-9 7-1 1 9 9 4v6l-26-3z"/>
		<path id="Path 334" class="s49" d="m398 520v-6h5l3 4v10h-6l-2-1z"/>
		<path id="Path 335" class="s26" d="m164 526v-9l4-2 4 2v9z"/>
		<path id="Path 336" class="s29" d="m188 528v-7l6-5h6l3 2 3 6v10h-11z"/>
		<path id="Path 337" class="s11" d="m758 519l2-3h4l-1 6z"/>
		<path id="Path 338" class="s8" d="m812 545l-4-1v-10l-4-5 2-12 6-1 5 4 3 12-1 9z"/>
		<path id="Path 339" class="s2" d="m71 522l6-5v1l-4 4z"/>
		<path id="Path 340" class="s55" d="m77 517h1v1h-1z"/>
		<path id="Path 341" class="s44" d="m252 526l1-8h5v8z"/>
		<path id="Path 342" class="s40" d="m258 526v-8h6l6 2v6z"/>
		<path id="Path 343" class="s49" d="m376 522h5l2-4 9 2v8l-4 3v13h-10l-2-3v-8l-4-4v-7z"/>
		<path id="Path 344" class="s67" d="m406 528v-10h6l1 6z"/>
		<path id="Path 345" class="s25" d="m778 523l-6 1 1-6h5z"/>
		<path id="Path 346" class="s27" d="m778 523v-5h4l2 2v5l-4 3z"/>
		<path id="Path 347" class="s0" d="m888 519l4-1-6 3z"/>
		<path id="Path 348" class="s26" d="m121 521l7-2 2 4v1l-4 2-4 1z"/>
		<path id="Path 349" class="s67" d="m364 528l3-9 5 3v7z"/>
		<path id="Path 350" class="s32" d="m130 523l5-3 3 1-2 8-4 1-2-6z"/>
		<path id="Path 351" class="s67" d="m392 528v-8h6v7z"/>
		<path id="Path 352" class="s63" d="m682 530l21 1 7-11h8v7l7 4 1 5h12l2 8-3 4h-7l-19-2-18 2-11 1-6-7v-9z"/>
		<path id="Path 353" class="s22" d="m780 528l4-3v-5h6v6l-2 12h-5l-5-8z"/>
		<path id="Path 354" class="s11" d="m314 526v-4l4-1v6z"/>
		<path id="Path 355" class="s49" d="m308 578l-1-12-7-4 4-13 8-3 5-6h5l5-10 15-2 4-7h6v5l4 2v6l-16 2-1 5-8 5v7l-11 6 2 17-2 10h-2l-6-8z"/>
		<path id="Path 356" class="s29" d="m356 528l-4-2v-5l4 1z"/>
		<path id="Path 357" class="s0" d="m880 524l6-3-7 7z"/>
		<path id="Path 358" class="s19" d="m63 530l8-8h2l-10 10z"/>
		<path id="Path 359" class="s64" d="m438 528v-5l4-1h5l4 6h17l1-4 4-1 9 3 8 6v16h-29l-8-4h-10z"/>
		<path id="Path 360" class="s15" d="m86 533l-1-7 9-2v6l-6 3z"/>
		<path id="Path 361" class="s38" d="m126 526l4-2 2 6-2 2h-3z"/>
		<path id="Path 362" class="s71" d="m206 534v-10h12l2 5v10l-2 30-4 2v9h-8l-6-4 4-6-1-7z"/>
		<path id="Path 363" class="s42" d="m240 534v-10l6 1v5l-1 8z"/>
		<path id="Path 364" class="s65" d="m406 528l7-4h13l2 4h10l5 16h10l8 4h29v4l9 8 8 1 1 9-2 5h-13l-6-3h-22l-1-4h-10l-12-2h-11l-1 10-1 4-3 1-10-1-4-10-14-2v-6l-6-6-4-12v-13l4-3 6-1 2 1v15l3 4h6z"/>
		<path id="Path 365" class="s22" d="m122 527l4-1 1 6-3 2-4-1v-6z"/>
		<path id="Path 366" class="s47" d="m159 538l2-10 3-2h8l4 4 12-2 7 6-3 4-14 1v17l-12 6h-7z"/>
		<path id="Path 367" class="s61" d="m246 530l6-4h6 12 4l2 4v6l-6 3v5h-11l-3 3 2 11-2 6h-7l-7-2v-10l4-2-1-12z"/>
		<path id="Path 368" class="s23" d="m788 538l2-12h8l2 10-2 12-9 7h-3z"/>
		<path id="Path 369" class="s39" d="m230 530l4-2 2 6v4h-5z"/>
		<path id="Path 370" class="s64" d="m356 534v-6h8l8 1 4 4v8l-16-1z"/>
		<path id="Path 371" class="s64" d="m406 528l3 19h-6l-3-4v-15z"/>
		<path id="Path 372" class="s46" d="m132 530l4-1 9 1 3 11-3 5h-5l-6-1-4-7v-6z"/>
		<path id="Path 373" class="s29" d="m220 539v-10l10 1 1 8-3 2z"/>
		<path id="Path 374" class="s2" d="m56 538l7-8v2z"/>
		<path id="Path 375" class="s37" d="m88 533l6-3 26 3 4 1v4l-4 2h-9l-2 3-5 4-11 5h-1v-10z"/>
		<path id="Path 376" class="s45" d="m270 544v-5l6-3v-6h7l8 10-7 14-14 2z"/>
		<path id="Path 377" class="s11" d="m772 536l6-6 5 8-6 7h-4z"/>
		<path id="Path 378" class="s49" d="m738 536l4-5 7 2 3 3-2 11-6 1-4-4z"/>
		<path id="Path 379" class="s47" d="m124 534l3-2h3v6h-6z"/>
		<path id="Path 380" class="s31" d="m84 536l2-3h2l4 9v10h-8z"/>
		<path id="Path 381" class="s52" d="m178 556v-17l14-1 3-4h11l-3 29z"/>
		<path id="Path 382" class="s46" d="m236 538v-4h4l5 4 1 12-4 2-8-1v-7z"/>
		<path id="Path 383" class="s66" d="m322 576l-2-17 11-6v-7l8-5 1-5 16-2 4 6 16 1 2 3h10l4 12 6 6v6h-7l-3 3v9 2h-4-7-10l-2 3-20 2-3-1-1-7-4-3z"/>
		<path id="Path 384" class="s0" d="m889 539l-7-5 5 1z"/>
		<path id="Path 385" class="s12" d="m71 547l-1-7 4-4h10v16h-4z"/>
		<path id="Path 386" class="s36" d="m757 548l6-6 1-6h8l1 9-14 7z"/>
		<path id="Path 387" class="s41" d="m120 540l4-2h6l4 7-2 9-8 2h-6v-4z"/>
		<path id="Path 388" class="s26" d="m151 541l8-3v24l-1 6h-6v-10-6z"/>
		<path id="Path 389" class="s50" d="m228 540l3-2h5l-2 6h-6z"/>
		<path id="Path 390" class="s38" d="m777 545l6-7h5l-2 17h-8z"/>
		<path id="Path 391" class="s0" d="m53 544v-4l3-1z"/>
		<path id="Path 392" class="s61" d="m218 569l2-30 8 1v4 5l-6 2v7l3 4h7 2l-5 12-3 2h-4z"/>
		<path id="Path 393" class="s4" d="m890 541l-1-2 5 3h-1z"/>
		<path id="Path 394" class="s45" d="m109 543l2-3h9l-2 12h-7z"/>
		<path id="Path 395" class="s52" d="m145 546l3-5h3l1 11h-6z"/>
		<path id="Path 396" class="s57" d="m885 562v-14l5-7 3 1 8 6 8 6 1 1v1 4z"/>
		<path id="Path 397" class="s61" d="m652 552l3-10h21l6 7-4 1h-4l-2 4z"/>
		<path id="Path 398" class="s0" d="m901 548l-8-6h1l8 5z"/>
		<path id="Path 399" class="s36" d="m104 547l5-4 2 9h-4z"/>
		<path id="Path 400" class="s44" d="m228 549v-5h6v7h-2z"/>
		<path id="Path 401" class="s63" d="m256 564l2-6-2-11 3-3h11v12 6l13 2 12 18-2 2h-12l-16-9-1-9z"/>
		<path id="Path 402" class="s52" d="m737 548l3-4 4 4v3l-7-1z"/>
		<path id="Path 403" class="s36" d="m132 554l2-9 6 1v8z"/>
		<path id="Path 404" class="s32" d="m759 552l14-7h4l1 10h-3-17l-2-3z"/>
		<path id="Path 405" class="s63" d="m140 554v-8h5l1 6v6l-4 3-2-1z"/>
		<path id="Path 406" class="s71" d="m693 548l18-2v2h-15z"/>
		<path id="Path 407" class="s72" d="m711 548v-2l19 2v1h-10z"/>
		<path id="Path 408" class="s23" d="m65 556l6-9 9 5-7 8h-6z"/>
		<path id="Path 409" class="s11" d="m93 552l11-5 3 5h4l3 4v7l-4 1h-12-6z"/>
		<path id="Path 410" class="s5" d="m744 548l6-1 7 1 2 4h-3l-12-1z"/>
		<path id="Path 411" class="s73" d="m901 548l1-1 10 8h-2l-1-1z"/>
		<path id="Path 412" class="s55" d="m909 554h1v1h-1z"/>
		<path id="Path 413" class="s38" d="m682 549l11-1h3l-4 8v20l-14 2h-26l-10-2v-5l5-3 25-10 5-2 1-6z"/>
		<path id="Path 414" class="s56" d="m692 576v-20l4-8h15l9 1v25l-4 1h-1l-17 1h-4z"/>
		<path id="Path 415" class="s31" d="m730 549v-1h7v2z"/>
		<path id="Path 416" class="s24" d="m789 555l9-7 4 5 10 1 6 5 13 2 5 6 5 1v3l-1 5-13-2h-2l-5-2-8-6-13-2-5-1h-1v-1l-4-1z"/>
		<path id="Path 417" class="s49" d="m232 562h-7l-3-4v-7l6-2 4 2z"/>
		<path id="Path 418" class="s74" d="m720 574v-25h10l7 1 7 1 12 1 2 3h17v11l-15 4-2 1h-7-2l-8 1-7 1-3 1v-2l-8 2z"/>
		<path id="Path 419" class="s0" d="m49 555l2-5v4l-1 1z"/>
		<path id="Path 420" class="s60" d="m672 554l2-4h4l-1 6-5 2z"/>
		<path id="Path 421" class="s59" d="m232 562v-11h2l8 1v10l-3 1-5-1z"/>
		<path id="Path 422" class="s25" d="m67 560h6l7-8h4l-2 17-15 5-4 12h-7l-1-2 4-3v-7z"/>
		<path id="Path 423" class="s13" d="m82 569l2-17h8 1l-1 12-6 1-2 4z"/>
		<path id="Path 424" class="s48" d="m114 556l-3-4h7v4z"/>
		<path id="Path 425" class="s75" d="m146 558v-6h6v6z"/>
		<path id="Path 426" class="s59" d="m642 558l10-6 20 2v4l-25 10-5-3z"/>
		<path id="Path 427" class="s17" d="m50 555l1-1 6 3-3 7h-4v-5z"/>
		<path id="Path 428" class="s47" d="m124 556l8-2h8v6l-6 2h-10z"/>
		<path id="Path 429" class="s39" d="m620 564v-8l6-2 4 5-4 5z"/>
		<path id="Path 430" class="s6" d="m49 559v-4h1v4z"/>
		<path id="Path 431" class="s56" d="m775 566v-11h3 8 3v6l-4 1v1h-1l-5 3h-2z"/>
		<path id="Path 432" class="s55" d="m910 556v-1h2l3 2v1z"/>
		<path id="Path 433" class="s12" d="m57 557l8-1 2 4-8 14v7l-4 3-4-3-1-5v-12h4z"/>
		<path id="Path 434" class="s43" d="m114 563v-7h4 6v6 2z"/>
		<path id="Path 435" class="s75" d="m166 562l12-6 25 7 1 7-4 6h-8l-7-4-8 3-2 4h-5-4z"/>
		<path id="Path 436" class="s65" d="m584 562v-6h6l2 4v2z"/>
		<path id="Path 437" class="s12" d="m910 560v-4l5 2 2 1 7 6 1 1 8 11 3 7 2 4v1 5h-6l-4-14-6-2-2-8-4-1z"/>
		<path id="Path 438" class="s1" d="m915 558v-1l2 2z"/>
		<path id="Path 439" class="s71" d="m142 561l4-3h6v10l-14 14h-11l-3-6v-6h10l8-2z"/>
		<path id="Path 440" class="s46" d="m630 559l12-1v7l-2 1h-7l-4 5h-8l-2-6 1-1h6z"/>
		<path id="Path 441" class="s2" d="m48 576v-17h1 1v5 12h-1z"/>
		<path id="Path 442" class="s0" d="m924 565l-7-6 7 5z"/>
		<path id="Path 443" class="s75" d="m134 562l6-2 2 1v7l-8 2z"/>
		<path id="Path 444" class="s61" d="m592 562v-2h10v2l-2 4z"/>
		<path id="Path 445" class="s74" d="m885 562l25-2 6 9 4 1 2 8v16l-8 1-4-1h-5l-8-1h-1-1l-11-4h-4-1l-5-2-1-9z"/>
		<path id="Path 446" class="s5" d="m785 562l4-1 4 1z"/>
		<path id="Path 447" class="s60" d="m124 564v-2h10v8h-10z"/>
		<path id="Path 448" class="s71" d="m158 568l1-6h7v17h-6z"/>
		<path id="Path 449" class="s72" d="m229 574l5-12 5 1v4l5 2v3l-5 10h-7z"/>
		<path id="Path 450" class="s69" d="m239 563l3-1 7 2-2 5h-3l-5-2z"/>
		<path id="Path 451" class="s64" d="m520 572l11-10h10l7 3-1 13h-2l-2-4-22 1z"/>
		<path id="Path 452" class="s59" d="m568 565l16-3h8l8 4 2-4 8 2v12h-42z"/>
		<path id="Path 453" class="s0" d="m785 563v-1h8v1z"/>
		<path id="Path 454" class="s51" d="m110 564l4-1 10 1v6 6l-14-2z"/>
		<path id="Path 455" class="s76" d="m249 564h7l8 2 1 9 16 9v1h-5l-3-4-10-3-4-6h-15v-3h3z"/>
		<path id="Path 456" class="s0" d="m801 566l-7-3 5 1z"/>
		<path id="Path 457" class="s5" d="m84 569l2-4 6-1h6v9l-9 2z"/>
		<path id="Path 458" class="s37" d="m98 573v-9h12v10h-11z"/>
		<path id="Path 459" class="s52" d="m610 576v-12l9 1 2 6-1 5z"/>
		<path id="Path 460" class="s28" d="m801 566l-2-2 13 2 8 6-4-1h-2l-6-3z"/>
		<path id="Path 461" class="s1" d="m924 565v-1l3 2h-2z"/>
		<path id="Path 462" class="s61" d="m547 578l1-13h20v11z"/>
		<path id="Path 463" class="s52" d="m640 566l2-1 5 3-5 3h-2z"/>
		<path id="Path 464" class="s64" d="m430 576l1-10h11v10z"/>
		<path id="Path 465" class="s70" d="m442 576v-10l12 2v6z"/>
		<path id="Path 466" class="s50" d="m629 571l4-5h7v5l-6 5h-5z"/>
		<path id="Path 467" class="s18" d="m760 570l15-4h2l-4 4-13 1z"/>
		<path id="Path 468" class="s2" d="m933 577l-8-11h2l7 10z"/>
		<path id="Path 469" class="s76" d="m138 582l14-14h6l2 11h6 4v11l-5 7h-19z"/>
		<path id="Path 470" class="s49" d="m388 580v-9l3-3h7l14 2 4 10v6l-12 2-5-8z"/>
		<path id="Path 471" class="s64" d="m454 574v-6h10l1 4-4 4z"/>
		<path id="Path 472" class="s28" d="m63 586l4-12 15-5h2l5 6 1 6 7 1 6 6h13l9 4 1 5-18 1-9-2h-1l-3-7-11-3-4 1 1 9-4-1-4-6-9-1z"/>
		<path id="Path 473" class="s75" d="m214 580v-9l4-2 4 7h4v6z"/>
		<path id="Path 474" class="s70" d="m506 575l2-5 12 2 1 3-3 1-10 1z"/>
		<path id="Path 475" class="s53" d="m758 571l2-1v1z"/>
		<path id="Path 476" class="s5" d="m620 576l1-5h8v5z"/>
		<path id="Path 477" class="s32" d="m634 576l6-5h2v5z"/>
		<path id="Path 478" class="s13" d="m741 572l8-1v1h-1z"/>
		<path id="Path 479" class="s34" d="m749 572v-1h2z"/>
		<path id="Path 480" class="s0" d="m827 576l-11-5 4 1 5 2h2z"/>
		<path id="Path 481" class="s38" d="m840 576l1-5 13 1 8 2 11 4 1 9-1 1-9-2-11-3h-1l-6-2h-2l-2-1z"/>
		<path id="Path 482" class="s71" d="m175 579l2-4 8-3 7 4v6l-6 4h-6z"/>
		<path id="Path 483" class="s77" d="m239 582l5-10h15l4 6-16 2-2 4h-5z"/>
		<path id="Path 484" class="s67" d="m461 576l4-4h22l6 3v5l-1 2h-19l-11-2z"/>
		<path id="Path 485" class="s29" d="m723 574l8-2v2l-5 1z"/>
		<path id="Path 486" class="s78" d="m734 573l7-1v1z"/>
		<path id="Path 487" class="s34" d="m741 573v-1h7z"/>
		<path id="Path 488" class="s51" d="m89 575l9-2 1 1-2 8-7-1z"/>
		<path id="Path 489" class="s72" d="m97 582l2-8h11l14 2 3 6-10 2-1 4h-13z"/>
		<path id="Path 490" class="s69" d="m226 576l3-2 3 8h-6z"/>
		<path id="Path 491" class="s76" d="m442 576l12-2 7 2 1 4h-21z"/>
		<path id="Path 492" class="s69" d="m493 575h13l2 2v3h-15z"/>
		<path id="Path 493" class="s69" d="m521 575l22-1 2 4-21 2 1 5v2l-7-8v-3z"/>
		<path id="Path 494" class="s53" d="m716 575l4-1h3l3 1z"/>
		<path id="Path 495" class="s25" d="m827 576v-2l13 2 2 4-8-2z"/>
		<path id="Path 496" class="s0" d="m51 581l-2-5h1z"/>
		<path id="Path 497" class="s72" d="m175 579l5 7h6l6-4v-6h8l6 4 4 18h-3-13-5l-1-1-2-7h-16v-11z"/>
		<path id="Path 498" class="s65" d="m320 586l2-10h15l4 3 1 7-9 2-2-2-9 2z"/>
		<path id="Path 499" class="s67" d="m429 580l1-4h12l-1 4h-1z"/>
		<path id="Path 500" class="s75" d="m508 577l10-1v3l-4 2-6-1z"/>
		<path id="Path 501" class="s19" d="m642 578l-13-2h5 8z"/>
		<path id="Path 502" class="s55" d="m642 578v-2l10 2z"/>
		<path id="Path 503" class="s3" d="m678 578l14-2h2z"/>
		<path id="Path 504" class="s16" d="m933 577l1-1 3 8h-1z"/>
		<path id="Path 505" class="s79" d="m245 584l2-4 16-2 10 3 3 4v7h-9l-1 5-6-1-6-3z"/>
		<path id="Path 506" class="s70" d="m298 582l1-4h7v7l-8 1z"/>
		<path id="Path 507" class="s63" d="m306 585v-7h2 4l6 8-6 2z"/>
		<path id="Path 508" class="s0" d="m844 581l-10-3 8 2z"/>
		<path id="Path 509" class="s56" d="m922 594v-16l6 2 4 14h-7z"/>
		<path id="Path 510" class="s79" d="m441 580h21l11 2-6 9 2 19-19-13-6-1-2-1-6-5v-7l4-3z"/>
		<path id="Path 511" class="s77" d="m514 581l4-2 7 8 2 1v1l-1 3h-2z"/>
		<path id="Path 512" class="s60" d="m210 598l-4-18h8l12 2-2 7-4 2v7h-4z"/>
		<path id="Path 513" class="s61" d="m388 582v-2h11l5 8h-16z"/>
		<path id="Path 514" class="s61" d="m416 586v-6l10 1 1 7z"/>
		<path id="Path 515" class="s80" d="m426 581l3-1h11l-4 3v7h-3l-5-2h-1z"/>
		<path id="Path 516" class="s79" d="m492 582l1-2h15l6 1 10 11-2 14 6 6-1 12-2 2h-5l-1-19-10-15z"/>
		<path id="Path 517" class="s55" d="m56 586h-3l-2-5 4 3z"/>
		<path id="Path 518" class="s81" d="m473 582h19l17 10 10 15 1 19h-1-5l-4-3-7 1h-3l-4-1-7-2h-1l-4-2-15-9-2-19z"/>
		<path id="Path 519" class="s80" d="m116 588l1-4 10-2h11l8 15-7 2-7 1-6-3-1-5z"/>
		<path id="Path 520" class="s37" d="m220 598v-7l4-2 2-7h6 7l1 2-5 9-8 2v4l-1 1z"/>
		<path id="Path 521" class="s69" d="m293 584l2-2h3v4h-1z"/>
		<path id="Path 522" class="s61" d="m365 585l2-3h10v7h-11z"/>
		<path id="Path 523" class="s63" d="m377 589v-7h7v5l-6 2z"/>
		<path id="Path 524" class="s59" d="m384 587v-5h4v6h-4z"/>
		<path id="Path 525" class="s26" d="m227 599v-4l8-2 5-9h5l9 9-3 5z"/>
		<path id="Path 526" class="s26" d="m281 585v-1h12l4 2v1l-14-1z"/>
		<path id="Path 527" class="s36" d="m938 588l-2-4h1 1z"/>
		<path id="Path 528" class="s0" d="m938 588v-4l1 5h-1z"/>
		<path id="Path 529" class="s54" d="m276 592v-7h5l2 1v5l-3 1z"/>
		<path id="Path 530" class="s75" d="m298 586l8-1 6 3-1 1-13-1-1-1v-1z"/>
		<path id="Path 531" class="s69" d="m345 587l20-2 1 4-7 2h-10l-1 3-2-3z"/>
		<path id="Path 532" class="s3" d="m525 587v-2l2 3z"/>
		<path id="Path 533" class="s19" d="m64 588l-8-2h7z"/>
		<path id="Path 534" class="s62" d="m81 596l-1-9 4-1 11 3 3 7h-7z"/>
		<path id="Path 535" class="s56" d="m280 592l3-1v-5l14 1 1 1-1 22-17-6v-1z"/>
		<path id="Path 536" class="s80" d="m312 588l6-2h2l2 2v2l-11-1z"/>
		<path id="Path 537" class="s72" d="m322 588l9-2 2 2v2h-11z"/>
		<path id="Path 538" class="s71" d="m333 588l9-2 3 1 1 4h-4l-9-1z"/>
		<path id="Path 539" class="s4" d="m378 589l6-2v1l-6 2z"/>
		<path id="Path 540" class="s26" d="m873 588l1-1 5 2z"/>
		<path id="Path 541" class="s74" d="m297 610l1-22 13 1 11 1 4 16-1 16-6-1h-2l-4-2h-2l-6-2-5-2z"/>
		<path id="Path 542" class="s82" d="m433 591l-5-3 5 2z"/>
		<path id="Path 543" class="s0" d="m882 591l-9-3 6 1h1z"/>
		<path id="Path 544" class="s1" d="m359 591l7-2h11 1v1z"/>
		<path id="Path 545" class="s3" d="m526 592l1-3 2 7z"/>
		<path id="Path 546" class="s26" d="m882 591l-2-2h4v2z"/>
		<path id="Path 547" class="s31" d="m884 591v-2l11 4h-3l-6-2z"/>
		<path id="Path 548" class="s41" d="m938 594v-5h1l1 1v4l-1 1-1 1z"/>
		<path id="Path 549" class="s1" d="m939 594h1v1h-1z"/>
		<path id="Path 550" class="s80" d="m165 597l5-7h16l2 7-8 2h-14z"/>
		<path id="Path 551" class="s81" d="m325 622l1-16-4-16h11l9 1v8l3 3h7l5 6 5 10v8h-1-1-1-4-5-1-1-1-1-4l-6-2h-4l-4-1h-1z"/>
		<path id="Path 552" class="s47" d="m433 591v-1h3l6 5z"/>
		<path id="Path 553" class="s1" d="m940 594v-4h1v4z"/>
		<path id="Path 554" class="s79" d="m352 602h-7l-3-3v-8h4l2 3 4 5 1 1z"/>
		<path id="Path 555" class="s82" d="m348 594l1-3 3 8z"/>
		<path id="Path 556" class="s81" d="m266 597l1-5h9 4v11z"/>
		<path id="Path 557" class="s28" d="m528 612l-6-6 2-14h2l3 4 1 5v2 9z"/>
		<path id="Path 558" class="s28" d="m897 593l8 1h-3z"/>
		<path id="Path 559" class="s28" d="m251 598l3-5 6 3v5h-2l-5-3z"/>
		<path id="Path 560" class="s0" d="m902 595l-6-2h1l5 1z"/>
		<path id="Path 561" class="s53" d="m902 595v-1h3 5z"/>
		<path id="Path 562" class="s50" d="m914 595l8-1h3v2z"/>
		<path id="Path 563" class="s47" d="m925 596v-2h7 6v2z"/>
		<path id="Path 564" class="s3" d="m444 596l6 1 19 13 15 9-1 1-17-7-3-5z"/>
		<path id="Path 565" class="s3" d="m99 598l-8-2h7 1z"/>
		<path id="Path 566" class="s19" d="m99 598v-2l9 2z"/>
		<path id="Path 567" class="s62" d="m260 601v-5l6 1 14 6v1 5h-3l-1-1-3-2-8-3-4-2z"/>
		<path id="Path 568" class="s55" d="m139 599l7-2h19l1 2v1z"/>
		<path id="Path 569" class="s83" d="m180 599l8-2 1 1-4 1z"/>
		<path id="Path 570" class="s2" d="m185 599l4-1h5v2h-9z"/>
		<path id="Path 571" class="s19" d="m194 600v-2h13l1 2z"/>
		<path id="Path 572" class="s83" d="m208 600l-1-2h3 6v2z"/>
		<path id="Path 573" class="s84" d="m216 600v-2h4l6 2z"/>
		<path id="Path 574" class="s85" d="m166 600v-1h14 5v1z"/>
		<path id="Path 575" class="s18" d="m352 602l1-2 6 8h-2z"/>
		<path id="Path 576" class="s85" d="m530 603v-2l1 2z"/>
		<path id="Path 577" class="s18" d="m530 612v-9h1l1 10z"/>
		<path id="Path 578" class="s77" d="m280 609v-5l17 6 3 5-1 1h-4l-7-3h-1l-4-2h-1z"/>
		<path id="Path 579" class="s55" d="m362 618l-5-10h2l10 13-2 5h-3l2-5z"/>
		<path id="Path 580" class="s34" d="m282 611l-5-2h3z"/>
		<path id="Path 581" class="s13" d="m527 624l1-12h2l2 1-1 8-3 3z"/>
		<path id="Path 582" class="s30" d="m299 616l1-1 5 2-2 1z"/>
		<path id="Path 583" class="s19" d="m303 618l2-1 6 2z"/>
		<path id="Path 584" class="s77" d="m362 626v-8l4 3-2 5z"/>
		<path id="Path 585" class="s18" d="m483 620l1-1 4 2z"/>
		<path id="Path 586" class="s82" d="m327 623l-8-2 6 1z"/>
		<path id="Path 587" class="s86" d="m528 624l3-3-3 4z"/>
		<path id="Path 588" class="s0" d="m332 625l-4-2 4 1z"/>
		<path id="Path 589" class="s0" d="m500 625l-4-2 4 1z"/>
		<path id="Path 590" class="s11" d="m503 624l7-1 4 3h-1-4l-6-1z"/>
		<path id="Path 591" class="s53" d="m332 625v-1h4v1z"/>
		<path id="Path 592" class="s55" d="m336 625v-1l6 2z"/>
		<path id="Path 593" class="s18" d="m500 625v-1h3v1z"/>
		<path id="Path 594" class="s87" d="m525 626l2-2h1v1z"/>
		<path id="Path 595" class="s82" d="m346 626h1v1h-1z"/>
		<path id="Path 596" class="s83" d="m347 626h1v1h-1z"/>
		<path id="Path 597" class="s70" d="m348 626h1v1h-1z"/>
		<path id="Path 598" class="s83" d="m349 626h1v1h-1z"/>
		<path id="Path 599" class="s19" d="m350 627v-1h5v1 1h-5z"/>
		<path id="Path 600" class="s88" d="m355 627v-1h4v1h-1l-1 1h-1z"/>
		<path id="Path 601" class="s89" d="m357 627h1v1h-1z"/>
		<path id="Path 602" class="s4" d="m355 627h1v1h-1z"/>
		<path id="Path 603" class="s73" d="m359 626h1v1h-1z"/>
		<path id="Path 604" class="s34" d="m360 626h1v1h-1z"/>
		<path id="Path 605" class="s0" d="m513 627l-4-1h4z"/>
		<path id="Path 606" class="s6" d="m513 627v-1h1 5z"/>
		<path id="Path 607" class="s89" d="m346 628v-1h1 1 1v1z"/>
		<path id="Path 608" class="s4" d="m349 627h1v1h-1z"/>
		<path id="Path 609" class="s90" d="m358 628v-1h1 1v1z"/>
	</g>
</svg>