<svg version="1.2" xmlns="http://www.w3.org/2000/svg" viewBox="0 0 1000 1000" width="1000" height="1000">
	<title>Moxostoma_macrolepidotum</title>
	<style>
		.s0 { fill: #ebe4c6 } 
		.s1 { fill: #ece6d2 } 
		.s2 { fill: #e5dbb4 } 
		.s3 { fill: #9d8466 } 
		.s4 { fill: #e7dfc5 } 
		.s5 { fill: #c5aa7c } 
		.s6 { fill: #7b6a5a } 
		.s7 { fill: #ad9068 } 
		.s8 { fill: #d2b686 } 
		.s9 { fill: #90765b } 
		.s10 { fill: #836551 } 
		.s11 { fill: #63564d } 
		.s12 { fill: #906c52 } 
		.s13 { fill: #c3b18c } 
		.s14 { fill: #d5cfb4 } 
		.s15 { fill: #a99373 } 
		.s16 { fill: #c29f71 } 
		.s17 { fill: #dbc281 } 
		.s18 { fill: #6b5d53 } 
		.s19 { fill: #b0a082 } 
		.s20 { fill: #ccbd9c } 
		.s21 { fill: #756251 } 
		.s22 { fill: #a97a5c } 
		.s23 { fill: #d5c096 } 
		.s24 { fill: #cea86e } 
		.s25 { fill: #d9c78c } 
		.s26 { fill: #e2d194 } 
		.s27 { fill: #b89c75 } 
		.s28 { fill: #ddcb9f } 
		.s29 { fill: #9f6953 } 
		.s30 { fill: #8d7967 } 
		.s31 { fill: #e4d7a3 } 
		.s32 { fill: #f0eada } 
		.s33 { fill: #9c8c7a } 
		.s34 { fill: #e0c6b5 } 
		.s35 { fill: #e2d7ca } 
		.s36 { fill: #d0b877 } 
		.s37 { fill: #bd8964 } 
		.s38 { fill: #ddb278 } 
		.s39 { fill: #b6ab90 } 
		.s40 { fill: #b46c55 } 
		.s41 { fill: #bb765e } 
		.s42 { fill: #c8c0a9 } 
		.s43 { fill: #d39e56 } 
		.s44 { fill: #5b4f47 } 
		.s45 { fill: #d2ac61 } 
		.s46 { fill: #ad875b } 
		.s47 { fill: #dcbb62 } 
		.s48 { fill: #b69687 } 
		.s49 { fill: #7c7160 } 
		.s50 { fill: #c59153 } 
		.s51 { fill: #e5d78d } 
		.s52 { fill: #b6c4a9 } 
		.s53 { fill: #9a957e } 
		.s54 { fill: #cbb2a5 } 
		.s55 { fill: #cf9649 } 
		.s56 { fill: #d89c85 } 
		.s57 { fill: #bd6954 } 
		.s58 { fill: #a9af93 } 
		.s59 { fill: #524c49 } 
		.s60 { fill: #e1a2ac } 
		.s61 { fill: #3c3a3c } 
		.s62 { fill: #fafbfc } 
		.s63 { opacity: .3;fill: #00ffff } 
	</style>
	<g id="Background">
		<path id="Path 5" class="s0" d="m334 538l5-3 6 4v7l4 2 1-12 7-1 6 14 2-9 8-2 1 2v7l4-1 15 6 3 3v9l-4 3-3 17h-20l-8-6-9-1-2-5-5 1v7l-29-2v-9l-3-3h-12l-1 10-3 1-5-2v-21l4-10h8v5 3l4-1 1-3h12l2-3 8-1v4h3zm204 5l1-6 5 2 4 10 10 2v12l-17 1-3-10zm-118 23l6-8v-11l9-1v4h3l7 22-6 4h-18zm155-16l10 2 4-5 4 4 11-1 3 4h15l7 2 2 8 6 6h13l11-9v-5h7l2-6 8 2 4 10h16l11 7v3 1l-12 6-12 6-5 1-4 6-4 1-12 4 1 10-17-6-1-13-6-4h-8l-7 10-8 2-17-9-10-16-7-1v-4l-5-4zm-85 7l-4-3 1-6 12 2-1 6zm230-3l21-4 3 3v11l-10 2h-11zm-317 30v-12h5v10zm-231 2l6 1 2-3 8 3-9 9-11-2v-7zm332 26l2-4h6l2 6h-4-4zm-208 16l3-4 4 2 1 11 1 8 6 2 2 5 3-1-2 6 4-1 3 8-2 14-3 6-12 1-8-3 6-4v-4l7-1 1-12-7-5-1-11-5-4z"/>
		<path id="Path 6" class="s1" d="m393 548l1-4h8l2 10 8 6v6l-4 6h-5l-2-7-5-1v-9l-3-3zm97 9l8-1 1-6 21 2 18 2 3 10 17-1 5 1 2 9 15-3 7 1 10 16 17 9v6l-30-2v-7l-7-6-28 1-4-13-18-1-22 15 1 19-2 4-14-2-22-6-2-1-1-4-7-1-1-3h-4l-1 3-6 4-6-1-1 3-5-2v3l-9 2 3 10 11 13 3 5-2 1-10-11-1-1-2-2-5-3-1 2h-1l-2-3-2-9-38-3v-8l-9-4-34 2-3 10-30 1-4 4v11h-5v-4l-6-4v-5l-5-5-2-12 7-11v-6h5l5 2v5l7 5 4-1v-5l8-3 29 2 7-3 9 1 8 6h20l2 6h4l8-6 5-2 12-2 1-4h18l6-4h11l7-8h25zm-405 16l4-7h9l4 1v10zm537 21l7-10h8l6 4 1 13-18 2v-6zm-443 2l9-9 5 3 7 9zm319 78l11-1 3 2-2 6-4-1-3 4-8-3z"/>
		<path id="Path 7" class="s2" d="m417 516l3-2 14 26 1 3v3l-9 1v11l-6 8h-8v-6l-8-6-2-10v-5l3-21h3l10 20zm137 9v-6h5l4 9 3 10 4 11 5 1v12l5 4v4l-15 3-2-9-5-1v-12l-10-2-4-10v-5h10l2-2zm-290-1l6-4 2 4v5h5 6l5 3 8 7v5l-4 10v21h-5l-12-12-9 2-4 21h-13l-1-4-6-2v-6l7-7 1-14 5-4 1-6 3-2v-7l6-5zm-58 1l2-2 5 2 2 9 6-4 4 4 2-8 5-2v6l5 1 1 1-1 21-7 1-4 2-12 2h-7l-1-4 1-5h7l-1-10-5-2zm527 8l6 2v-5h9v3l8 1h2l3 4-3 7 5 3 3 15-22 1v-11l-3-3-21 4-5-4v-5l3-7h6l3 7h4l-1-12zm-394 2l4-4h4l1 4-3 4zm99 7l7-6 3 2 1 8 11 7v8l3 3-7 8h-11l-7-22v-4zm82-4l10-1 3 6h5v11l-18-2zm102 16v-12h1l11 2 4 5 20 4 3 3v5l-11 9h-13l-6-6-2-8zm56-10l5-2 6 8 1 4h8v8h-16l-4-10zm-289 40l3-17 4-3 5 1 2 7v12l-8 6h-4zm-89-8l1-10h12l3 3v9l-8 3-3-5zm-62 17v-5l8 2v4h-6zm272 33v-12h4l4 1 5 13-3 11-12-3-3-5h4zm-12 43l-1-6 11-9h7l-6 19-11 1z"/>
		<path id="Path 9" class="s3" d="m476 319l5-3 2 4zm-26 42l4-7 18 2 12 10 10 15 13 4 11 7 12 14 13 8h5v5l-19-1-3-4-18-4v-9l-5-2-4-7-19-2-2-11-16-13h-8zm-30 25l2-8h4l2 7zm6 38l2-3h6l1 4-1 3h-4zm-138 2l6-2v10l-8-3zm196 31l2-5 4 2 2 6 2 14h-5l-4-7zm-36 7l5 1 1-3h7l3 6-2 3h-4v7l4 3v16l-3 2-12-33zm-76 1l3-2 2 7-2 1-3-2zm104 5l6-4-3 14-5-1v-5zm95 6l5-6-1 8h-4zm-57-3v-2h2l2 5zm183 7l1-1 10 1v4l-2 3-4 7-2 1zm22 7l-2-5 7 1-1 3zm71 2l20-6 1 8 6 7 3 20v10h-11l-3-6h-7v-6l-5-7v-13l-4-2zm-408 0l5-2 3 2 2 11h6l3 4 5-1 4 4v7h-2l-4-1 1 5-3 21-6-10v-10l-4-5-4-5-1-9-6-2zm372 5l-1-6 10 1v1l-1 4-4 5-2 1zm-508-1l4-3v6l1 6h-5zm-78 6l10-2 2 2 4 9 3 8 5 2 2 12-5-4-11 4h-8l-2-6h-6l-26-14v-6l12 2 10-2h6zm662 20v-12l4-5 23 2 5 7-2 9h-7l-3 6h-11l-3-5h-4zm-130-11l6-4 1 1-2 13-3 1-3-3zm68-3l2-1h8l5 1 2 6-1 2-2-3-6 1v7l3 6h3v5h-3l-11-19zm-331 8l5-6 2 2 2 13v6h-4l-1-4zm-221 0v-2l3 1 1 9-3-1zm156 19l-5-3v-9l3-1 2 1zm125-7l5 1-2 7zm-407 5l3-4 13 5-1 9h-6l-9-2zm736 16l12-2 3-6h9l5 3 1 7v6l-12 15v10l-26-10 2-17h5zm-644 28l2-2 3 2zm44 18l4-2 3-8 2 2-1 7 4 2 2 1v8l-6-1z"/>
		<path id="Path 11" fill-rule="evenodd" class="s4" d="m288 532l-1-6 6-3 7 10 4 8v3h-8v-5zm225 3l-5-1v-8h4zm-121-5l4-1 6 10v5h-8zm-154 2l8-2 7 6 3 7-1 6-5 4-1 14-7 7v6l6 2 1 4-3 4-8-2-3-4-2-2-3 8-4 2h-5l-3-8-7-1 1-6v-5l2-14 12-2 4 1v-3l7-1zm85 13l-1-15h1l3 3 3 6 2 5zm55-6l5-6 2 1 4 12 4 2v4l-15-6zm321 7l3-9 5-1 4 8 4 1v5l5 4 3 12-14 3-11-7v-8zm-391 5l-4 1v-3zm-219 15v-8h9v8zm173 20l4-21 9-2 12 12v6l-7 11h-13zm-160-19l14-1 10 6v4l-2 7-22-6zm306 5l4-6h8l1 10-1 4-12 2zm-63 8v-7l5-1 2 5zm-48-3l3-1h5l3 5v5l-4 1-7-5zm-157 11v-8l28 2v12z"/>
		<path id="Path 12" class="s5" d="m430 390l12-2 2 2v5l6 7 12-2 27 4 12 9 7-3 18 4 3 4 19 1v4l-6 3-36-2-4 4v12l-6 1h-6l-7-3-5-5h-10l-1-3h-5l-3-3-7 2-4-6-13 2-1-4h-6l-2 3h-6v-5l-6-3v-4-6h6l3-8 7-3zm-92 50l2-4h4l3 6v6l5 1 6 2v1l-4 3 3 9 2 9-9-4-4 2 2 11h-5l-4-1-1-5-1-9-8-7-1-7 5-4 4 1zm144 26v-1l3 2 4 7 2 7h3v-3l3 2 1 9-1 8 4 6-7 1-4 1-2-3v-14l-6 6-7 1v-11l-6 2-1-2v-10h6v5l5 1zm164 19v-15l17 2 2 7-1 6v5l-6 1-6-1zm-415-13l4-1 6 11-1 7-6 3-2-3zm39 3l1-1 2 2-1 3zm-82 15l-4-8 2-4 4 4 1 7zm348-5v-7h10v6l5 1h5v5l-4 2 1 6h-9v-3l-4-1-4-4zm-209 2l2-5h4l4 4-1 6 6 5 6 4 2 7v8l-9 3-7-5v-12l-7-1v-3zm436 3v-1l13 1 2 14h-8l-2-13zm-547 18l8-2 2 1v9l5 3 1 5-5 2-2 8-4-4-1-9-1-9-3-1zm486 11l3-1 2 2v2 1h-3zm-7 7l2-5 7 5 2 5 1 5-5 1-3 9-3-8v-4zm-16 4l4 3 1-5h4v10l1 12-6-8-5 2-5-2v-10l1-2zm85 1l2-1h4l2 10h-1l-7-4zm-329 12l3-1v4h-3zm-242 30l4-2 11 1v4l4 1-1 6 7 1 3 8-10 6-6 3-5-2-7-9 3-1zm-21 13l6-4 2 2-2 3zm92 36l1-1h5l3 4-1 13h-6zm710 9v-7h6l1 9z"/>
		<path id="Path 13" class="s6" d="m437 353l29-27 2 8h-6l-18 19zm51 3l7-5 7 5v5l7 1 2 6 7 2v8h3l8 10 7 3 18 15v3l-1 3-5 2h-5l-13-8-12-14-11-7 1-5-20-17zm-184 70l5-3v12l-3-3-5 2v14h-1l-6-7 2-5zm160 14l-2-10h5l1 3v6zm-62 14l2-3 2 4zm-246 6l11-6 3 6v9l-3 4h-3l-1-7zm137 4l5-6 1 3-2 8zm229-2l4-2 1 1 1 10-5-4zm-279 0l6 1-1 10-5-4zm-136 16l29-10-1 5-11 11-14-1zm441-7l2-2-1 3zm12-1l2-1 2 7-2 4h-4zm266 6l12-7 1 5 9 8v8l-22 4zm-94 14l2-5 11 1-8 5h-3zm-153 0l3-2v12h-4v-8zm-26 8l-1-6 4-2v2l1 13-4-2zm225 6l-2-14h6l2 8-1 7zm-107-11l5-1v14h-1l-5-7zm-70 3l4-4v15l-4-1zm82 7l1-9h4l1 3-1 10zm-232-2l3-3v8l-2 9-4-7zm-16 1l5-3 2 8-5 6-3-1zm-15 11l-3-11 5-2zm43 2l-1-12 3-2 2 8-1 9zm190-13l2-1v3l-1 12-4-3zm-64 7l1-5h4v6zm69 10l3-2-1 13-4-3zm21 11l1-8 4-2v8l-1 5zm13-2v-2h3l1 8z"/>
		<path id="Path 14" class="s7" d="m433 364l17-3 4 5h8l16 13 2 11-7 3-3-4-8-1-10-10-10 2v8l-12 2-2-5-2-7 2-10zm-17 25l3-2 1 9 3 2-3 8h-6l-4-5zm-20 27l4-8h4l4 4h6v4l6 3v5l-3 6-3 2h-6zm-194 22l3-1 2 3 8-1h1v19l3 6-2 7-9 7-3-4h-7v-20-2h5l-1-8zm213 13v-4l9 3 2 2-1 6 5 1 2-3 6 8-4 4h-6l-6-2h-3l-1-13zm-192 2l2-3h10l8 12v7l5 4 1 4-5 5h-3l-6-11 1-5-6-1-4-4zm485 31v-4l4 1v2zm17 21h3l-2-15h3 3l2 1 2 5v7 4l-4 3h-5l-2-1zm-303-5l5-7 6 5 2 4-1 10-2 12 2 16-14-26v-1zm-50 2h6l3-4 6 2 1 9 4 5-5 9v7l-2 4-2-1-3-18h-5l-3 5-2-1-2-5-6-2v-10zm-72 2v-4h8l3 9-1 8h4v13 3l-5-3v-10l-3-3-6-5zm-25 12l-2-12h7l-3 12zm78 0l4-3v17l-6-5zm55 2v-4h2l7 2 1 22zm-86 1l4-1 1 2-1 13-3-3zm528 7l3-6h7 6l2 17 6 6-4 5h-14l-1-7-5-3zm-613 5l-5-1v-6h5zm92 8l5-1v10h-3v-4zm123 59l1-3h4l1 3v3h-5zm-247 3l6-3 7 8v8l-1 3-4-3zm43 25l1-10h6l5 6h4l2 16v4l-10 1-4-3v-9z"/>
		<path id="Path 15" class="s8" d="m548 423l9-1 4 8-7 7-30 7v3l8 1-6 4v8l-4 2h-7l-2-5-4-7 2-6-9-4v-12l4-4 36 2zm-180 15l6 1v-6h2l4 8-3 9 5 4 1 3 1 3 5 6 2 6 1 6-10 1v-11l-5 2-2-7 1-10-8 6-1-6-1-11 1-4zm69 4l1-3 5 3 1 2-1 6zm-115 15l1-12 8 1 2 3-5 4zm125-1l-2-6 9 6v6l-1 3-5-1zm160 8l1-3 16 3 22 6v15l-3 13-7-2 1-12-5 1-2-5h-6l-1-3-3 1h-8-5l-1-2zm-387 21l-2-7h7l1 4zm306 7l-4-14h6 3l5 7v5l-5 1-2-4zm44 6l3-7 5 1v8l-4 7-1 9 1 10-5 3-5-2v-21l-5 4-8 1v-5l-5 4-2-3v-9h9v5l4 2-1-13h8l1 5 3 8zm48 12l-1-10h8v7l4 4v5h-3l-3-5zm-410 9l2-6h6l1 7 3 1 1 9-6 4-2-9-5-2zm499 4v-1l11 1v10l4-1v-6h6l2 7 1 12h-4l-3-7h-6l-3 7-4-1-4-8-1-5zm113 25l2-2h4l-1 6h-5zm-608 29l-4-1v-4h4zm532 3l4-2 5 3-1 9h-6l-2-1zm-59 5l12-6 1 4 7 3v7l5 5v13l-2 5h-18v-6l-6-4v-4l4-9 3-4-5-2zm-227 16v-3l7 1 1 4-6 1zm-186 37l1-13 11 1 4 22h-6l-5-9zm20 42v-18h2l6 2 2 10v4l-6 4h-2z"/>
		<path id="Path 16" fill-rule="evenodd" class="s9" d="m437 353h7l18-19h6l11 18 9 4v7l20 17-1 5-13-4-10-15-12-10-18-2-4 7-17 3-2-3zm31 86v-6h10l5 5-1 5-3 4-2 3h-4l-3-7zm28 2l6-1 9 4-2 6-6 1-1 4h-2v-5zm-318 19l3-6h17v24l-12-4-8-8zm373-3l1-1h3v11l-4-2zm-174 13l5-2v11l-6-1-1-7zm288 9l-2-7 4 1 4 9-1 8-4-5zm-58-1h5v16l-6-7 1-7zm175 12l8-1v5l4 2v13h-3v-7l-7-4zm44 4l22-4h14l3 4h9v13h-6l-4 4h-2l-5-7-23-2-4 5v12l-10-1-3-20zm-285 11l-1-11 4 1v12zm-314 1l3 1 2-3h2l-3 15-5-3v-9zm283 12l-7-5-1-9 6 1zm-264-4l-2 5-3-8zm7-2l2-1 1 8zm603 42v-6h14v6zm-619 68v-6l7-6 5 6-1 10h-7z"/>
		<path id="Path 17" class="s10" d="m417 430l3-6h6l4 4v3l-9 3zm35-1l7-2 3 3 2 10v4l1 9-5-3-8-13zm386 40l55-36 3 15 12 7 4 17-8 8v8h-6l-5 4h-12v-7l-5-3-13 2-1 6h-14v-8l-9-8zm-394-25l6-6 4 18-9-6h-2zm38-1l1-5 7 3-3 4zm-64-3l5 2 1 8-9-3zm50 16l5-5 1 6 1 11-8-6zm-85 1l6-3 1 6h-6zm201 27l2-12 2 19zm10-8l5-1v2l-1 15-3-3zm-96 13l4-1v16l-1-1-4-6zm-432 47v-5l7-7 9-1 5 7-6 5h-6l-3 5z"/>
		<path id="Path 18" class="s11" d="m310 436l5-4v13l-6-5zm-41 2l2-1v11l-5-6zm165 11l-6-1 3-10h1l2 4zm-133-1l4-2 1 1v9h-2l-4-3v-5zm153 8l5-4 2 10h-7zm-132 1l6-4 1 7-2 7-5-5zm46 2l8-6-1 10-3 2-4-2zm30 1l4-6 4 1 1 11-1 2h-2l-6-4zm-91 0l6-3 2 3v2l-5 6-4-4zm175 5l-1-6 3-2 1 10zm32 6v-4l-4-2 3-8 2 5 1 9zm-234-10l4-3 1 3v9l-5-3zm109 5l-5-6h6zm45 2l4-4h2l2 11-2 2-5-3zm-12-2l6 2-2 12-6-5-1-5zm111 7l3-3v8 7l-5-7zm-200 7l-4-4v-5h6v5zm173-8l2 1 1 8-5-1zm40 6l-1-5 3-2 1 1 2 13-5-1zm12 6v-4h4l2 6-1 2zm133 1l6-5 3 15v8l-5-1 1-8zm-643 25l14-6 9-9 25-11v6l-4 2v4l10 8v6l-2 2-11-2-1 11-6 2-9 1-7 7v5l-7-4-3-4-14 3v-8zm671-23l4-1 3 4 2 15h-3l-3-5zm31 7l-2-6h5l1 6zm-634 14l-3-8-6-2v-8h9l6 5v6 4zm577 14l4-1-2 5h-3z"/>
		<path id="Path 19" class="s12" d="m363 421l2-1 3 2-2 5-3-2zm530 12l12-7 3 2 3 12 1 12-4 3-12-7zm-459 16v-7h3l6 8h2l2 6h-8zm428 41l1-6 13-2 5 3v7l-7 2h-9zm-18 89v-10l12-15h14l8 1 2 12 6 4 8 14 9 6v8l5 3v7l-44-20zm-633 19l10-6h5l8 9 6 1 4 8-7 6v6l-12-1-7-7v-8z"/>
		<path id="Path 20" class="s13" d="m254 425l11-2 1 7v6l3 2-3 4h-8l-2-4v-2zm-18 4l8-2v9h-2-6zm19 34l-3-4v-9h7l1 1v7l5 3 2 2-1 5 3 1 2 5-1 1h-4l-5 1v8l3 2v4h-4-4v6h-6v-6l-4 3-3-3 1-8 5-5h2v6l5 3-1-12 1-2h3v-7zm325-7l22 4v6h-8-4l-8-2-2-3zm353 12l6-4 4 2-3 8-13 11h-5zm-429 12l5 1-1-8h6l4 3v6l8 10v8l5 5 3 3-3 11h5l8 15v5l-5-2-9-3-5-2-3-12 2-11-6-1-4-4-6 1-6-1v-16l-4 1-1-9zm-295 12l-1-9h5l1 4 6 2 3 2-2 6 3 9-8 2h-6v-4zm347-7l2-1 5 4 1 4h-8v-2zm73 8l2-2 5 5 7 2h8l2 4-3 11 4 3 4 3-2 8 4 3 6 7v5 2l-7 2-1 7-20-4-4-5-11-2-3-10v-4l2-10h-3l-1 6-3-2 2-12h1l5 1 3 5h3v-5zm89 17l7-1 2 1 4 9v5l-3 2h-6v-3h-4l-1-3zm-612 17l-8-5-1-6 3-1h3l4 7zm492 0l1-7h8l1 2v4 6l1 5-9 1zm-420 3l11-4 5 4v7l5 3 1 10-9 2-4-2-5-8h-4zm510 8v-10h4l4 6v4zm-343 1l3-4 2 1-1 12-4-2zm418 9l-5-3 3-7h2zm-693-2l2-2h7l1 10h-6zm368 4h-3v-4h3zm520 37l5-1 20 30-3 1v7h-6l-2-2v-14l-9-3-1-2z"/>
		<path id="Path 21" class="s14" d="m702 494l4-7 1 6zm-10 24l3-10h5l-1 8 3 3 2 4v3l-7-5-4 1zm71 2v-10h5l11 19-2 10-5 1-2-10-1-8-3 1zm-487 4l1-5 5 4 1 6h-6zm336 2l3-4 3 2 2 4v4h-8zm291-2l3-1 10 11v4l11 8-4 4-6-9-7-1 1-6-10-4zm-841 25l1-5 7 2 4 8h6l9 4v8l-4 7-19-5-3-7 2-3zm122 12l3-11 4 2-5 11zm-68-3l4-4 14 4h4l3 4 20-2 11-5 6 9v6l-10 12-28-2-14-4v-4l-10-6zm81 13l5-8-2-6h2l2 3 3-2h7l-2 14h-4zm747 1l4-5 15 19-5 1-11-2 3-7zm-210 7l-2-6h2l14 5-4 2zm-226 75l-2-8 2-10 12 3 2 3-3 4-2 6-2 2z"/>
		<path id="Path 22" class="s15" d="m972 397l3-1-1 3zm-592 15l15-8 5 4-4 8h-16zm168 2l5-2 5 4-1 6-9 1v-4zm-333 20l7-2v6l-6 1h-1zm31 8l-4-1v-5h2 2zm-54 0l10-4v6l-4 2h-6zm197 24l1-6h8v4l6 4v2l-8 2h-5zm188 0l3-5 2 3v4h-4zm-167 0l3-2 6 2h3l-3 4 1 5-8 1-2-7zm-224 12v-4l12 4 3 1 2 10-1 5h-5l-2-4 1-5-3-4-3 1zm87-2l12-2h5l10 11v15 4l-4 1v5h-4-4l-2-6-4-2-4-11-6-3v-9zm60 4l2-4h3l1 5 4 1-1 3-5 1-4-4zm16 3l1-3h6l6 5v6l-8 6zm-115 9l6-3 1 17-1 1-6-3h-2zm231 7l4-5 5 4 2 6-1 3-8 2-2-8zm-333 27l2-16h2l26 14-3 8-5 1-2 4-8-1-6-10zm599-7l2-1 3 6h3v6 5l-6-2-2-9zm35 4l3-1 1 8h-4zm-645 5l1-3h2v3zm-79 3l14-3 3 4-3 2v8h-11l-4-7z"/>
		<path id="Path 23" class="s16" d="m420 386l8-1 2 5v5l-7 3-3-2-1-9zm42 14l-12 2-6-7v-5h10zm-58 8l6-7 4 5v6h-6zm-29 15l5-7h16l12 16v4 2l-4 7 6 7 3 2v10l-3 2h-3l-1-11-2-4-2 3-4 6h-8l-1-6-6 3-1-3-2-13-4-8zm-44 7l2-7 7 3v5zm-109 8l9 2 5-4h6v5l4 1v6l6 2v9l3 4 1 9-1 2-4 3h-2l-1-4 1-10-6-1-8-12h-10l-2 3-2 5h-5v-19zm490 45v-2l5 1 2 5 3 13h-10l-1-5zm-340 13l1-8 9 1-1 9-3 4h-6zm-92 8l2-2 4 2 2 6h4v8l7 2 1 13-7-10-6 3 1 6-5-3-1-6-5-4v-3zm542 28l8-1 2-10h4l3 5h11v12h-9l-3 6-12 2h-4zm-448 8l4-1v7l-4 1zm421 24l-1-16h2l8 1 2 17zm-539 79l10-1 6 7-5 17-4-2-6-4-3-3-4-4 6-5z"/>
		<path id="Path 24" fill-rule="evenodd" class="s17" d="m464 444l6-1 3 7v1l-5 5-3-3zm13 6l2-3 5 1 2 4-2 5-3 2 1 6v1l-6 4-1-2-1-11 3-1zm-109 13l-3-4h3zm126 11l-2-14h4l6 7 4 5-2 8h-7l-3-2zm118 4h8l-1 10 3 3 2-11h6l2 5-1 6-2 2-4 7h-8l1-10-6 5zm72 16l1-9h6l5 9-1 8 5 1v-8l2-1 5-1 1 2-2 9-6 4h-5v-3l-7 3v-1l1-10-1-3zm72 6l2-1h5l5 6v5h-11l-1-2zm-312 9l4-1 4 7 1 6-7 1zm-87 4l1-2 4 1 6 2 2 5-3 1v9l5 3 1 6-8 2-2 9-6-14zm-36 4l1-3h4v4l-4 1zm191 9l1-8h5l4 2 3 12 5 2v3l-10 1-7-3zm212 52v-6l8 1 2 6v8l-8-1zm-219 53l2-5h3l-1 5z"/>
		<path id="Path 25" fill-rule="evenodd" class="s18" d="m430 431v-3h4v7l-2 3h-1zm-22 5v-4h6v4zm2 16l-6-7 4-7zm-94-6l6-5 1 4-1 12-3-2zm66 8l-5-4 3-9zm-184-8l4-2 1 8h-5zm62 5l4-2v5l1 7-5-3zm153 3l2-3 3 2 1 13-6-2zm83 6l4-5h2v12zm42-2l2-1 1 11-4-1-1-6zm-390 6l8-4 7 6 1 7h3l3-4v-9h8v6l8 8v4l-2 4 4 8-2 2-1 6-5 1-2-2-10 2-10-1h-8zm71 0h3l1 9-6-2zm129 18l-2-11 4-2v11l-1 3zm146-1h-3l-2-7h5zm-281 2l3-6 2 1 2 7v4l-6-2zm-117 1l11-6 3 5 14 1 2 16-4 1v-6l-6-5h-20zm350-3l2-1v18l-6-7zm232 1l8-2-1 5-1 9-2-2zm-488 0l3-1 3 4-1 5-3-1h-1zm279 4l6-2v11l-1 3-5-4zm163-1l5-1-1 12-5-5zm-106 7l3-5 2 4v14l-5-5zm132-1l6-1v15l-2-1-4-10zm-46 4l6-5-1 10 1 10h-1l-4-6zm150-1l1-4 5 1 2 13-2 1-5-6zm-137 6l4-7v18l-4-4zm81 4l2-9h3l1 5v9l-2-5-3 1zm30-1v-7h6l1 14-1 1zm-72 2l4-1v14l-4-6zm24 3l7-3v3l-3 10-3-1zm-496 10l-5-2-3-8h4l4 4zm565-8h6v10l-5-2zm-53 16v-3h3l-1 8z"/>
		<path id="Path 26" class="s19" d="m495 351l1-4h3l7 4v7l5 1-2 3-7-1v-5zm26 27l1-3 7 3 1 6 8 4-1 2-1 1-7-3zm32 34l1-3h5 7l4 5-2 14-7 2-4-8 1-6zm-241 8l1-4h5v6zm-107 17l10-3v5l-8 1zm80 33v-9l8 3 4 5 2-8 7 3 4 4 4 3v9l8 8v6l5 4v3l-1 13h-4l-1 3-5-2-5-6-3-9h-8v-15l-10-11h-5zm82 15l5-16 3 2 1 7 6 1 10-1 4 2v-8l8-2 5 11 3-5 8-1 6 5 2 6-1 7-5 7-5 2 3 11v1l-3 2-7-2v-7l-4-4-5 1-3-4h-6l-2-11-3-2-5 2-9-1-5-1zm304-3l-4-9 31 6-1 1-6 5h-6l1-5-8 2zm-473-4v-4h7l3 4-2 1h-5zm66 8l2-11h4l2 4v9l-4 2h-4zm379 12l3-13 6 5v4l-1 4zm-176 11l8-2 3 9-3 4 1 15-2 1-5-8-3-10zm-351 10v-3h6l-1 8h-1zm591 1l5-4 5 4 1 3-11-1zm-583 8l8-2h6l6 10-2 12-4 6h-4l-4-6h-9l-3-8-1-10 4-2zm484 4v-6h4v6zm-45-4l1-1 5 2v7l-3 2z"/>
		<path id="Path 27" class="s20" d="m322 424v-9h9l2 8-2 7-8-2zm-53 14l-3-2v-6h6v6l-1 1zm-4 23l-1-7h8l8 7v6l-9-6-4 2zm314 29l-3-6h8l4 7-4 9h-2v-12zm-377 4l1-5 6 3 1 12-2 2-4-2zm392 10v-8h7v10l4 1h3v6l-1 7h-8l1-7-3 1-3-4zm60 12l1-12h7l2 1v7l4 6v8l5 6v10h-7v-5l-6-7 1-13-3 2zm-118 3l3-14h2l3 2 2 3 2 11 2 4h4l2 7-2 2h-10zm40 7v-10h8l1 10zm152 0l3-2 2 9h-3zm-586 22l2-12 8 1v7zm-21 0h9l4 6v4l-14-4zm-74 16l8-2 1 5h-7z"/>
		<path id="Path 28" class="s21" d="m466 326l10-7 7 1 2 9 5 3 1 5-1 4 6 6-1 4-7 5-9-4-11-18zm-31 99l13-2 4 6v8l-9-2v7l-5-3-1-4h-3v-7zm-88 17l5-2v9l-5-1zm93 18l-1-4h8l1 8-1 2zm-304 8l12-4 2 34-2 8-12-2h-6l-4-4-2-16 11-11zm94-3l6 1-1 5-4 1h-1zm372 2l5-3-1 12-4-4zm-138 1l3-1 1 7v10l-6-13zm-60 2v-2h2l1 3 3-2 2 7-3 5zm-13 2h5v8l-4-2zm127 4l3-3 1 5 4 14-8-10zm190 8l4-1-1 12h-3l-1-2-1-6zm15 2l1-3 5 1v6h-3zm-295 0l6-2-1 14-6-5zm-91 0l5-1v12l-6-5zm-15 2l5-1v11l-5-4zm160 6l6-6v14l-6-5zm272 14l-4-3v-11h4l2 6v8zm-208 2l5-4v5 3l-3 7zm-458 11l1-11 11 2v3l-3 1 1 6 8 5 10 1 4-4h1l1 1-1 3-4 2-11 1-13-5zm530 3l1-6h3l-2 10z"/>
		<path id="Path 30" class="s22" d="m913 422l26-14-2 7-9 4v7l7 6 1 7-4 5-21-4-3-12 6-2zm-39 72l7-2h12l-1 10-8 6-10-1zm-726 12l2-8h8v6zm-66 17l6-2 5 5-3 4h-3zm788 25l4-5 20 1v6l4 2v4l-20-1-8-1zm-431 82l-11-13-3-10 9-2v-3l5 2 1-3 6 1-2 26z"/>
		<path id="Path 31" class="s23" d="m294 418l8-1 2 9-8 10-2-2v-10zm15 5l3-3 6 2v2 4l-3 4-5 4-1-1zm-51 23v-4h8l5 6v2l1 4h-8v-5l-4 2-1-1zm300 10v-4l22 4v5l-3 5h-9v-8l-4 2-2-4zm-42 15l-1-9h7l1 5-2 6-3 3zm-296 14l6-3 6 7 2 3-2 12-2 3-3-1-1-16-3 1-3-2zm274 19l7-1 1 1 1 9 7 5h3l-1 8h-4-6l-5-1-7-1-3-9 2-2 5 2zm238 6l4-3h3l3 4v6l5 6 3 2-2 5h-9v-6h-3l-3-6zm-522 3v-5h6v3 2zm379-4l5 1 3 4-1 6h-8l1-10-5 6h-8v-6l8-1zm-157 15l2-12 3 1 4 11zm-260 31l6-13h4l5 8-3 11-6 3zm580 35l1-9 5 2-1 3 13 16-1 3-3 2zm-514 3l-4-2 1-7 3 4zm434 0l4-1h10l2 1-4 9-10-1z"/>
		<path id="Path 32" class="s24" d="m459 452l1-2 5 3 3 3-1 6 8 6 1 2-2 4h-6l-1-7-3 1-3-6zm62 21l2-6 5 4v7h-6zm-251 47l5-4h2v3l-1 5h-4zm427 59l12-6 4 4 11 1 2 8v8l-3 1-2-1-2 4h-9l-5-5v-7l-7-3zm-237 25l6-1 2 1v8h-5zm-21 26l5-2h14l-1 5-10 11-2-1-5-7 2-1zm-173 12v-4h6l5 1 5 9v8l10 6v18l-11-2-4-5-10-7 5-17z"/>
		<path id="Path 33" class="s25" d="m360 438l3-13 3 2 1 11-1 4-4 2zm142 17l1-4 6-1 4 7-3 8 4 2v4 2h-6l-2-1-4-5zm-187 5l4-5 3 2v5l5 5 2 4v5l4 4v2h-4l-5-1v-14l-2-2-6 2-1-5zm125 4v-4l7 6 12 33v6l-5 1v-8l-3 3-3-3v-18l-2 1-4-6zm22 33v-16l-4-3v-7h4l6 13 1 2v8l-4 5zm-221 9l-1-17 3 1 3 3v9zm411-12v-4l6 1v3zm24 12v-14h6l2 2-1 9-2 2zm-425-4l-1-6h6v3l-4 3zm-20 17l3-15 6 3 1 4 3 8 2-5 7-2 3 7 3 5h5l1 5-6 5-6 2-7-6-8 2-1-1v-7h-5zm277-14l6-1 4 4v10h-5-3zm-158 11v-8h8v3l-1 2-4 3zm-36 1l2-2 5 2 1 2 1 11h-1-8zm168-1l5-1 3 9-6 5-2-7zm-156 17l1-13h8l3 9 3 1 2 1-4 4-5 3-5 1zm243-4l5-3h2 9l3 4 1 17-4 5-10-2-5-1-4-11 3-2zm-184 5l2-4h5l2 14-1 4-4-2zm-97 114l-4-22h8l4 2 1 13 5 4 1 11 7 5-1 12-7 1-2-10-6-2v-6l-5-3z"/>
		<path id="Path 34" class="s26" d="m602 466v-6l6 1-1 3-5 3zm-288 51h-4l1-8 5 6zm73 13v-7l5-9 4 5v10l-4 1zm-15-10l3-5h5l3 18-5 6-4 1-1-2-1-6zm88 8v-10l3-3 3 3 3 10zm296 6l-2-4 4 1v3zm-147 3l-1-5h4 8l3 10h-1zm-344 84l-15-16v-7h13l9 6h10l5 5v5l6 4v4l-1 4h-8l-11-1-3-4zm237 0l-11-4-1-7 14 2 2 2z"/>
		<path id="Path 35" class="s27" d="m442 388v-8l10-2 10 10 8 1 3 4 7-3 19 2 4 7 5 2v9l-7 3-12-9-27-4-8-10h-10zm-79 25l17-1v4l-5 7-7-1-3-2-2-5zm-141 19l14-3v7l-5 4-9-2zm118-1l4-1v6h-4zm68 7v-2h6l4 4-3 7v4l-2 3-3-2zm-50 13l3-3 6 5 1 6h-3-6l-1-7zm48 17l1-2h3v3l-3 2zm20 12l2-12h6l1 6 5 3 2-2 4 6-4 10 6 7 3 3-3 7-4 1-2-2-2-8-5 3-2-4 1-14-6 2zm136 0l2-4 2 1v9h-2zm167 10v-6l5 1-2 5zm-461 0l4-2 6 3 4 11-2 2h-7l-6-6zm191 9l3-2 3 2v2l-3 2 1 12-3 3v10h-5l-2-7-1-6 2-9 5-1zm115 8l4-7h4 2v9l-8 1zm-248 7l1-13 7 1v12l7 5v11l-3-1-3-9h-8l-1-2zm-85-8l5-4h5 1l3 9-2 1-7 2-5-3-1-4zm367 1l5-3 4 6-2 12-3 4h-4v-4l2-1-2-8zm-484 18l6-15h4l-2 16-8 2zm424-4l3-7 3 5v6h-4zm136-1l5-3 3 1 1 4-1 4v2h-4-4zm-407 9h-5v-5h4zm-171 2l11-1 1 10h-13zm-50 11v-8l3-2 7 4 6 4v4l-2 2-7-2-1 5-6-3zm740 0l3-4h3l4 10-2 1-8-1zm-24-2l5-1 1 1v7l-7-3v-4zm-532 62v-8h6l4 4v7l15 16-1 1h-4l-5-6h-6l-5-6z"/>
		<path id="Path 36" class="s28" d="m280 420l6-1 2 7-2 5-7 3v-6zm251 37l1-9 8 1-2 9-2 3zm51 11v-4l8 2-1 5 5 4v1l1 13 3 3 1-15 8 3-1 7 6 7v1l1 9-5 3h-3v-15l-4 4h-7v-3l-3 2-1 9-1 5h-5v-9l4-9-2-19zm82 22v-5h2l4 5 1 3-1 6 5 7 1 8 4 1 1-10 2-2 5 4v1l1 9-5 3-4 2-1 8h-5l-1-13-5 1v-14l-4 1zm-133 1l5-1 4 4 1 11h-2l-5 3-3-3zm-56 4l7-1v3 1l-6 6-2-6zm-269 30l-8-8 1-16 5 6-1 9 5 3v4zm345-14l8-1v9h-5l-3-5zm37 19v-10h8l2 7 2 11 9-1 13 5v12h-15l-3-4-11 1-4-4zm190 17v-7l8 2v6l-4 2zm-112-3v-2h7l5 2v8l-8-2zm-479 30l6-1 3 16-3 1-5-3-8-3-2-2 4-8zm105 52l1-4h5l1 2-3 4zm450 26l1-6h3l13 5 1 7-14-3zm-266 16v-2l22 3v5l-3 7-9-1-4-5z"/>
		<path id="Path 37" class="s29" d="m905 426l8-4 1 4-6 2zm3 29l4-3-1-12 21 4-4 13 5 11-11 17-2 1-15 3-1-1v-8l8-8zm0 154v-7l-5-3v-8l-9-6-8-14-6-4-2-12 20 1 5 12 10 5v9l12 7 8 14 13 5v10l6 3v5l-9-2z"/>
		<path id="Path 38" fill-rule="evenodd" class="s30" d="m419 376l7-9 2 1-2 10h-4zm-24 28l16-19 5 4-6 12-6 7h-4zm-77 24v-4h4l1 4zm-74 8v-9h3l3 9zm-77 18l25-12v12h-11l-3 6h-8zm138-8l3-4-2 5zm2 14l-3-4h2zm-40 3l4-2-2 8-3-1zm43 5l5-6 1 5-2 4zm-54 4l-1-9 4 2v7zm334-6h4v9l-5-4zm220 17l16-7v18l-9 4-6-7zm-190-5l3-1 1 3-2 11-3-3zm-380 11l1-7h3l-1 8zm-52 1l3-1h1l2 11-2 1-6-9zm68 0h4v10l-4-1zm-33 1l3-1 1 16-1 1-2-1-3-9zm-25 9l-1-6h5l2 10 4 2 2-2v9l-2 6-5-3 1-9-5-6zm278 4l6-6v24l-4-6-3-9zm-354-3l4-1 4 4v6l-6 15h-2l-1-1 1-8h-6l-2-5 2-3 6-3zm236 2l4-1v10l-4-1zm132 2l4-1v11l-5-2zm69 5l5-4v21l-1 1-4-9zm14 6l1-9 2 3v6zm11 0l5-6-1 10v10l-3-4zm201-5l5-1v9l-6-2v-4zm-188 3l3-1-2 14-2-7z"/>
		<path id="Path 39" class="s31" d="m551 457l-5-2v-5l6 1v5zm43 18v-9h8v1 5l-3 3-5 1zm-28 2l5-1v2l-1 6-4 2zm-161 41l-1-5 4 1v4zm-64 1l9-3h3l-2 9 6 5v5l-7 1-2-1-1-4h-4l-2-1zm128 9l5 8 2-1-1-15 3-4 4 6 2 7 6-5 7 1 3 8 2-7h6v8l5 1 7 3v14l-21-2-12-2-1 6 4 3-2 7h-25l-3-3v-8l-11-7-1-8-2-10v-6l7-1 2 7h5zm-170-8l7-3 3 3v10l5 3v-3h8l1 15-2 3h-12l-5-7-4-8zm135 20l-2-16h9l1 4 3 8-7 6-3 1zm329-2l1-2 7 4v4l7 3 4 3-2 12-14 1-3-15zm-74 12l-1-12h8l3 8-1 8h-8zm-31 3l1-7 7-2 4 6-2 6h-7zm-156 68l4-7h4v12h-3zm-31 47l-2-5 7 3v2z"/>
		<path id="Path 40" class="s32" d="m506 608l-1-19 22-15 18 1 4 13 28-1 7 6v7l-60 4-11-2-1 6zm-174-2l3-10 34-2 9 4v8zm282-10l8-2 4 3v6l-12-1z"/>
		<path id="Path 41" class="s33" d="m554 409v-3h2l3 3zm-197 55l2-5h6l3 4 4 2v4l-5 16h-5l-6-5h-6v-11l9 4zm-30 3l2-7 8 7 1 9h-3v-5h-6zm-58 2l2-8 9 6 5 3v4l-12 2-2-2zm47-2l6-2 2 2v14l5 1-2 5-5 1-8-8v-9zm250 19l4-2 1-6h4l1 6 3 6-1 2-5-1-3 7-5-1-1-5-1-4 1-2zm110 20l5-1-1 10-4-1-1-8zm-158 12v-10l6 1-2 11zm232 7l3-1 1 6 2 4-8-1v-3zm-669 10l6-5h3v8h-9zm79 1h5l5-6h8v12l-6 13-11 5-3-6zm31 16l9-2v7l2 6-5 8-4 2-6 1-3-2 2-9z"/>
		<path id="Path 42" class="s34" d="m302 417l11-1-1 4-3 3-5 3zm16-1l4-1v9h-4v-2zm45 5l-2-1 2-5 2 5zm-17-1l1-3h3v5zm412 114v-3h6v5l-1 2h-2zm-634 49l2-7 14 4v8zm562 9v-5l5 2-3 4zm60 46l-5-3v-4l5 1 6 5z"/>
		<path id="Path 43" class="s35" d="m98 566v-8h18v8l-14 1zm80-2l6-3 2 2-2 9-2 2-4 8-6 4-4 1v-5l10-12zm68 26l3-4h13l5 6h13l2 12h-10l-9-6h-13l-4-4z"/>
		<path id="Path 44" class="s36" d="m344 430l2-4 4 1 4 9 6 2 2 6-1 4-3 3-6-2v-9l-5 2-3-6zm-29 2l3-4h5l8 2 9 1v5l-2 4-7 6-8-1-1-4-6 5-1-1zm-36 2l7-3 8 3 2 2-2 5 6 7v5l4 3 3 4-1 4-7-3-1-3-5 6-8-3-1-3-4 3-1-16-4 6-4-1v-2-11l1-1zm-33 8v-6h4 6v2l-3 7 5 1 1 4h-7l-6-2zm-27 22l-3-6h5l5 3 4 4v7l-5 6h-7l-2-1-3 6h-5l-2-4 2-1 9-7 6 2-1-9zm357 6l2-2h4l4 4-2 12h-8l-1-6zm-234 15l1-3h5l1 1 5 14 8-6v-6h5l1 2v7l4 2v6h-10l-4 1v5h-8l-2-7-6-4zm328 5l1-8h7l4 10h-6l-5 1zm67 1l8-5 3 2 2 6v11l4 3-1 16-3 1-3-2 1-13h-5l-1-14h-5zm-481 8l4 1v-10h4 4l-1 8 6 6 2 12-5 4-6 4h-5l-3-5-1-8-3-9zm527 6l1-7 7 4v7l-1 1-5 1zm-71 4v-9h10l3 5v4l-7 1zm24-2v-4l3 4zm-444 3h4v-5l4-1v8l6 5-7 3-7-2zm-190 0l6 2v3h-5-3v-3zm680 148l-6-31h7l11 17v6l-2 4 2 3z"/>
		<path id="Path 45" class="s37" d="m432 438l2-3h3l1 4-1 3h-3zm473 51l15-3v7l-4 5-8 2-6 8-3 12 4 4-2 6-5 2-2 12-20-1-6-6-2-17 2-6-4-3 4-4h6l10 1 8-6 12-6zm-85 39v-10l10 1 2 2-2 10-8 1zm-21 10l-3-4 3-12h7l3 6-7 10zm5 11l2-1h14v4l-2 17-10-2-2-1zm148 53v-5l-5-4v-8l11 2 4 16zm-506 0l6-4 1 3h5l2 3 3 8h5l1 10-11 6h-14zm520 27v-5l6-2 2 2v7z"/>
		<path id="Path 46" class="s38" d="m366 427l2-5 7 1 1 10h-2l-5-2-1 7h-1zm186 29v-5l6 1v4h-3zm157 117v-1h15v6l-11-1zm25 14v-8l10 1v9zm-73 20l-1-10 12-4 2 8 10 1v4l6 4v6l-2 7 2 3h-3-1l-14-10-2-1-4-3zm-193 5v-8l22 6 1 7 11 4 5 5-2 5 3 5-2 10 2 8-11 9 1 6-22-3-7-3-9-5-2-2-1-1-10-11 10-11 1-5 11-6zm-176 50l-10-6v-8h6l1 5 5 3v6z"/>
		<path id="Path 47" class="s39" d="m568 428l2-14 8 8-6 5zm-303-5l9-2v7l-2 2h-6zm43 19l1-2 6 5 1 1 3 9-4 5-2-3-6 3-1-4v-9zm636 13l6-5 3 1-10 15-4-2zm-759 43l1-6 6 9 2-1h4l1 1-1 16 8 8 2 12 5 2 1 10h-7l-1 5-4 3h-2v-7l-1-10-5-3v-7l-2-12v-6l-4-4v-7zm297 0v-1l6 5 2 3-1 8-2 2-5 1zm-375 24l9-3 4 5-4 4-10-1zm52 10l3-8h6l2 6-5 6h-5zm618 7l2-10h3l6 10 8 3v6h-2-8v-6l-8-2zm-524-3l6-2v7l-3 2zm-174 8l2-6h9l9 2-2 18h-8l-9-4zm225 0v-3l5 7-1 3-4-2z"/>
		<path id="Path 48" class="s40" d="m932 444l4-5 6 3 2 13-5 9-6 4-5-11zm-34 112v-4l24 1h5l2 5h4l3 8 8 6 6 6-3 7v8l5 4v5 8l4 1-4 10-6-3v-10l-13-5-8-14-12-7v-9l-10-5z"/>
		<path id="Path 49" class="s41" d="m939 408l33-11 2 2-6 10v11l-10 14-5 11-3 5-6 5-2-13-6-3-1-7-7-6v-7l9-4zm-452 37l3-4h6l4 9h-12zm406 47l5-4h6l1 1-1 7-12 6zm-91 46l7-10h11l2 4v14l-2 2h-14zm92 6l2-12 5-2 10 4-1 6 7 1 6 9-1 3-24-1-4-2zm62 67l7-6 9 3v14l-6 2v5l-14-3v-5z"/>
		<path id="Path 51" class="s42" d="m481 316l8-1-1 12 6 4-2 6h-1l-1-5-5-3-2-9zm28 46l2-3 3 6h5l3 4v6l-1 3h-3v-8l-7-2zm-223 57l4-1h4v6l-6 2zm-39 8l7-2 2 11h-6zm706 18l5-11 6 1v5l-8 8zm-33 41l2-1h5l-7 8zm-726 14l-2-11 3 1 2 4 1 6zm709 24l-4-4 3-12 6-8 8-2-9 10-1 15zm-196-19l3-1 2 5v7l-5 4-2-2zm83 5l1-1h3l5 7v6l-3 12 3 4-3 4-8-3-6-10v-5h-3l-3-6v-7l6-1 2 3v4l6 2zm-638 27l2-4 5-1 1 4-2 18 3 6-20 2-3-4v-4l4-6 10-4zm-55 21l2-18h6 13l3 8-1 6-4 4h-18zm826-8l4-4 13 10 8 11-4 5-8-6-3-8h-4l-2-5h-5zm-697 6l4-2v3zm-171 6l8-1 3 7h-8l-2-1zm925 62v-7l3-1 7 12v6l-9-1zm-198 34l12-1v4l-8 3-10-2z"/>
		<path id="Path 52" class="s43" d="m414 432l3-2 4 4 9-3 1 7-3 10 6 1 5 7 1 4v4h-2l-6-8-3-5-3 1-2-2-1-8-5-2-4-4zm29 10v-7l9 2 8 13-1 2-5 4-4-18-6 6zm36 5l3-4 5 2 1 5h12v5l-4 5h-4l-2-6-4-2-2-4zm48 14h3l1-4 5 4 1 6-1 3-3 3-5-2zm163 165l-2-3 2-7h18l33 15v4l5 3v8h-3l-1 6-21-9-24-11-6-4zm56 6v-3l9-6 7 5v5l-2 5-8-1z"/>
		<path id="Path 53" class="s44" d="m331 446l7-6-1 10-4-1zm31-2l4-2 1 11-6-5zm64 8l3-1 3 5-2 3-5-1zm-324 58v-6l-10-8v-4l4-2h11v8l6 2 3 8-2 3-6 1zm78-11l5-1 3 3v7h-4zm-154 28l8-12 14-5-6 13v8l-1 4h-6z"/>
		<path id="Path 54" class="s45" d="m538 458l2-9 6 1v5l5 2v8l4 2 5 3-2 10v4l-2 1h-5l-2-13 1-3-2 2-3 2 1 5h-10v-8l1-3 4 1-1-11zm-65-7v-1h4v6l-3 1zm282 172l1-9-9-14-1-10h6l14 17 2 9 5 3 3 8 6 31-6 4-7-1-9-3-1-7-13-5v-8l6-1 8 1 2-5v-5z"/>
		<path id="Path 55" class="s46" d="m346 426l-1-6h1l4 2v5zm-74 4l2-2h5v6l-7 2zm96 8l1-7 5 2v6zm-176 16v-8h6v6 2zm334 6v-8l6-4-1 9-1 4h-3zm2 18v-7l5 2-2 5zm-370 26v-6l10 1-4 5zm702 16l2-9h2l4 3-2 6zm-643 97l1-3 7 7 12 1 4 4h7l4 5v9l4 3v5l-6 5h-1l-8-9-2 1-9-11-1-2z"/>
		<path id="Path 58" class="s47" d="m301 448v-14l5-2 3 3 1 1-1 4-1 2-3 4zm254 19v-11h3 4l2 4-1 5 5 1h9l1 2-2 2-5 6-5 1-2-1-2-7-2 1zm44 8l3-3 4 4 1 2v2l-8-3z"/>
		<path id="Path 59" class="s48" d="m347 414l16-1v2l-2 5 2 1v4l-3 13-6-2-4-9v-5-5h-3zm-300 150l-3-2-1-9-13-4-5-15 1-7 9 8h6l4 7h11v4l6 3 3 9-2 3-8 1z"/>
		<path id="Path 60" class="s49" d="m426 367l5-6 2 3-5 4zm-15 18l8-9 3 2-2 8-1 1-3 2zm-153 61l-5-1 3-7 2 4zm13 4l4 1 4-6 1 16-8-7zm-50 8l2-5 3 8zm343 2l4-2v8l-5-1zm-339 18l5-6h1l1 17-6-7zm26-1l4-3 1 12-5-3zm13 9l-3-2v-8l5-1zm-61 3l-2-10h5l2 4 1 9zm169 7l-4-2v-7l5 1zm364 0l-2-5h3v5zm-146 8l1-9 3-2v3 8zm-25-7l5 1-2 7zm-435 13v-6h6v6h-2zm404-2l5-3-3 14h-5zm178 8v-7l6 1-1 10zm19 3l-4-9h5l1 8zm11-8l1-1h5l-1 13-5-6zm-135 9l1-7 2 8-2 1zm-33 6l-1-10h3v10zm94-8l5-1 1 13-1 2-5-6zm54 8v6l-4 1v-10h4z"/>
		<path id="Path 61" class="s50" d="m719 598l2-4 2 1-1 4z"/>
		<path id="Path 62" class="s51" d="m664 485l1-6 1 6zm94 14l4-5 1 5zm-228 38v-3l9 3-1 6h-5z"/>
		<path id="Path 64" class="s52" d="m975 396l5-1v5l-16 35-6-1 10-14v-11l6-10zm-25 54l3-5 3 3-3 3z"/>
		<path id="Path 65" class="s53" d="m536 391l1-1 6 3h1l13 9-1 4h-2zm-191 29l-4-6h6v3l-1 3zm-273 120l3-5h6v3l-2 6h-7zm130 17l4-3 1 4-3 2z"/>
		<path id="Path 66" class="s54" d="m496 347l-6-6 1-4h1l4 1 3 9zm-165 68l4-1h6l4 6 1 6-2 4-4 1v-5l-7-3zm-57 6l6-1-1 8h-5zm377 77l1-4h6l4 10h-7v-3l-2 1zm25 94l4-6 5-1 1 2v5zm90 15l3-2 5 3v6l9 13h-7l-3-8-5-3z"/>
		<path id="Path 67" class="s55" d="m464 440l4-1 2 4-6 1zm259 155l3-1v-8l8 1 10 2 2 1 1 10 9 14-1 9-9 6v3l-5-1-33-15 2-5 17 5 1-4-6-3v-10z"/>
		<path id="Path 68" class="s56" d="m782 550l4-2h8l1 16-15-2zm-72 61v-13h9l3 1v10l6 3-1 4z"/>
		<path id="Path 69" class="s57" d="m956 611l-4-1v-8l10 1 1 2z"/>
		<path id="Path 72" class="s58" d="m753 524l1-16h2l1 2 1 8 5 2 3 3v7l-2 1h-6l-4-1zm-308 12l-3-8h4l2 10zm-311 22v-4h4v4z"/>
		<path id="Path 74" class="s59" d="m357 464l-3-9 4-3 1 7z"/>
		<path id="Path 75" class="s60" d="m668 615l-2-3 4 3z"/>
		<path id="Path 81" class="s61" d="m108 512l6-1 2 5v3l-9 3-4-7h5z"/>
		<path id="Path 89" class="s62" d="m457 655h1v1h-1z"/>
		<path id="Path 92" fill-rule="evenodd" class="s6" d="m543 393h1v1h-1zm-261 44l2 5h-4zm60 16l3 12-3 1-4-5v-5z"/>
		<path id="Path 93" class="s9" d="m264 504l3 10-5-1z"/>
		<path id="Path 94" class="s18" d="m394 440l2 11-5-2z"/>
		<path id="Path 95" class="s21" d="m515 488l2 14-7-8z"/>
		<path id="Path 96" class="s30" d="m290 445h3l-1 10-7-3zm354 74h3v11l-4-2z"/>
		<path id="Path 97" class="s49" d="m641 501l1 10-4-1z"/>
		<path id="Path 98" class="s63" d="m937 689h1v1h-1z"/>
	</g>
</svg>