<svg version="1.2" xmlns="http://www.w3.org/2000/svg" viewBox="0 0 1000 1000" width="1000" height="1000">
	<title>Neogobius_melanostomus</title>
	<style>
		.s0 { opacity: .1;fill: #f5f6f8 } 
		.s1 { opacity: .5;fill: #dee2e6 } 
		.s2 { opacity: .5;fill: #c5cfd7 } 
		.s3 { opacity: .1;fill: #a2b0bf } 
		.s4 { opacity: 1;fill: #8897ad } 
		.s5 { fill: #7a95bd } 
		.s6 { fill: #798ca8 } 
		.s7 { opacity: .7;fill: #d0d7db } 
		.s8 { fill: #87a4cc } 
		.s9 { opacity: .1;fill: #d6dbdf } 
		.s10 { fill: #778391 } 
		.s11 { fill: #597293 } 
		.s12 { opacity: .6;fill: #b5bfc8 } 
		.s13 { fill: #5f7ba2 } 
		.s14 { opacity: .3;fill: #d3dae1 } 
		.s15 { fill: #595b58 } 
		.s16 { fill: #6b6e6c } 
		.s17 { fill: #777b78 } 
		.s18 { fill: #818584 } 
		.s19 { fill: #48515a } 
		.s20 { fill: #515a63 } 
		.s21 { opacity: .1;fill: #c2cbd1 } 
		.s22 { fill: #4a617d } 
		.s23 { opacity: .8;fill: #bcc6cf } 
		.s24 { opacity: .2;fill: #747f8a } 
		.s25 { fill: #4f5152 } 
		.s26 { fill: #636460 } 
		.s27 { fill: #646e76 } 
		.s28 { fill: #45494a } 
		.s29 { fill: #6a7b95 } 
		.s30 { opacity: .3;fill: #f0f1f3 } 
		.s31 { opacity: .4;fill: #b9c4cd } 
		.s32 { fill: #5a646b } 
		.s33 { fill: #728eb6 } 
		.s34 { opacity: .8;fill: #9ba8b8 } 
		.s35 { fill: #3c4143 } 
		.s36 { opacity: 1;fill: #6e7881 } 
		.s37 { fill: #8e908b } 
		.s38 { fill: #536a86 } 
		.s39 { opacity: .9;fill: #b0bac5 } 
		.s40 { fill: #35393a } 
		.s41 { fill: #32404c } 
		.s42 { fill: #272f35 } 
		.s43 { opacity: .6;fill: #9ca7b1 } 
		.s44 { fill: #5d6d7e } 
		.s45 { fill: #405062 } 
		.s46 { fill: #2b3640 } 
		.s47 { opacity: .4;fill: #475665 } 
		.s48 { fill: #22272c } 
		.s49 { fill: #65758b } 
		.s50 { opacity: 1;fill: #93999d } 
		.s51 { fill: #49596b } 
		.s52 { fill: #364859 } 
		.s53 { fill: #a7b1b4 } 
		.s54 { opacity: .3;fill: #848d97 } 
		.s55 { fill: #86909b } 
		.s56 { fill: #132537 } 
		.s57 { opacity: .3;fill: #a5b0bb } 
		.s58 { fill: #415975 } 
		.s59 { opacity: .5;fill: #f1f2f4 } 
		.s60 { fill: #3f4852 } 
		.s61 { opacity: .1;fill: #e4e6ea } 
		.s62 { fill: #526375 } 
		.s63 { fill: #293f56 } 
		.s64 { fill: #181f24 } 
		.s65 { fill: #6987b3 } 
		.s66 { fill: #0d1622 } 
		.s67 { fill: #19324c } 
		.s68 { fill: #060d19 } 
		.s69 { fill: #152b42 } 
		.s70 { fill: #2e4964 } 
		.s71 { fill: #213e5b } 
		.s72 { opacity: .5;fill: #879098 } 
		.s73 { opacity: .7;fill: #666e76 } 
		.s74 { fill: #90a0b5 } 
		.s75 { fill: #0e1c2b } 
		.s76 { fill: #0a1f36 } 
		.s77 { fill: #b8c3c9 } 
		.s78 { fill: #24364b } 
		.s79 { opacity: 1;fill: #eff1f3 } 
		.s80 { fill: #a7b9cd } 
		.s81 { opacity: 1;fill: #dde3e9 } 
		.s82 { fill: #95aac6 } 
		.s83 { fill: #9ea197 } 
		.s84 { fill: #98a3af } 
		.s85 { opacity: 1;fill: #c5cbcb } 
		.s86 { fill: #a5aaa1 } 
		.s87 { fill: #b6bab5 } 
		.s88 { opacity: .8;fill: #e8eaee } 
		.s89 { fill: #39506b } 
		.s90 { fill: #819cc5 } 
		.s91 { fill: #71839d } 
		.s92 { fill: #9dc0e2 } 
		.s93 { opacity: 1;fill: #b5cde1 } 
		.s94 { fill: #d0d6db } 
		.s95 { fill: #6782a7 } 
		.s96 { fill: #c6d9ea } 
		.s97 { fill: #8eb3de } 
		.s98 { fill: #9db3cf } 
	</style>
	<g id="Background">
		<path id="Path 0" class="s0" d="m511 398h1v1h-1z"/>
		<path id="Path 1" class="s1" d="m511 399l1-1h8v2l-13 2h-1z"/>
		<path id="Path 2" class="s2" d="m520 400v-2h8v2h-4z"/>
		<path id="Path 3" class="s1" d="m528 400v-2h7l1 2h-4z"/>
		<path id="Path 4" class="s3" d="m691 442h1v1h-1z"/>
		<path id="Path 5" class="s4" d="m507 402l13-2h4v6l-9 6-9-8z"/>
		<path id="Path 6" class="s5" d="m524 406v-6h4 4v6z"/>
		<path id="Path 7" class="s6" d="m532 406v-6h4 5l2 2v6h-7z"/>
		<path id="Path 8" class="s7" d="m543 402l-2-2 10 2z"/>
		<path id="Path 9" class="s7" d="m498 405l8-3h1l-1 2-8 2z"/>
		<path id="Path 10" class="s8" d="m543 408v-6h8 1l3 2-1 3z"/>
		<path id="Path 11" class="s7" d="m555 404l-3-2h8v2z"/>
		<path id="Path 12" class="s9" d="m560 404v-2l7 3h-1z"/>
		<path id="Path 13" class="s10" d="m498 406l8-2 9 8-2 4-12 5-5-13z"/>
		<path id="Path 14" class="s11" d="m554 407l1-3h5l6 1v6l-6 1z"/>
		<path id="Path 15" class="s12" d="m483 412l3-4 12-3v1l-2 2-6 2z"/>
		<path id="Path 16" class="s13" d="m566 411v-6h1 1l4 2v5l-5-1z"/>
		<path id="Path 17" class="s14" d="m572 407l-4-2 6 2z"/>
		<path id="Path 18" class="s15" d="m515 412l9-6h8l4 2v18l-2 4h-10l-4 3-2-11-5-2v-4z"/>
		<path id="Path 19" class="s16" d="m543 408l11-1 6 5v6h-7l-9 9-8-1v-18z"/>
		<path id="Path 20" class="s4" d="m572 412v-5h2 1l10 5-2 3-3 1h-8z"/>
		<path id="Path 21" class="s2" d="m585 412l-10-5 9 1 5 4z"/>
		<path id="Path 22" class="s17" d="m490 410l6-2 5 13-1 3h-5l-5-3z"/>
		<path id="Path 23" class="s18" d="m483 412l7-2v11h-1l-7-1-2-6 1-2z"/>
		<path id="Path 24" class="s19" d="m560 412l6-1h1l-1 9h-6v-2z"/>
		<path id="Path 25" class="s20" d="m566 420l1-9 5 1v4 4z"/>
		<path id="Path 26" class="s21" d="m473 417l2-4 6-1-1 2-6 3z"/>
		<path id="Path 27" class="s22" d="m583 415l2-3h4 2l3 2v5l-5 1-1-4z"/>
		<path id="Path 28" class="s3" d="m594 414l-3-2 12 1v1h-4z"/>
		<path id="Path 29" class="s9" d="m603 414v-1l11 2z"/>
		<path id="Path 30" class="s3" d="m358 417l7-3v2z"/>
		<path id="Path 31" class="s23" d="m365 416v-2l22 1v1h-9-11z"/>
		<path id="Path 32" class="s17" d="m474 417l6-3 2 6z"/>
		<path id="Path 33" class="s11" d="m594 419v-5h5l1 2v3z"/>
		<path id="Path 34" class="s23" d="m600 416l-1-2h4l11 1v1h-8z"/>
		<path id="Path 35" class="s24" d="m387 416v-1h39v1h-6-10-10z"/>
		<path id="Path 36" class="s0" d="m426 416v-1l5 2h-1z"/>
		<path id="Path 37" class="s25" d="m580 416l3-1 5 1 1 4-5 5-4-1z"/>
		<path id="Path 38" class="s9" d="m614 416v-1l5 2z"/>
		<path id="Path 39" class="s26" d="m358 417l7-1h2l5 6v5l6 7-2 4h-14l-8-3v-3l-4-1v-3l-1-6 3-3 4-2z"/>
		<path id="Path 40" class="s15" d="m372 422l-5-6h11v5z"/>
		<path id="Path 41" class="s26" d="m378 421v-5h9 13v11l-4 1h-5l-10-2z"/>
		<path id="Path 42" class="s16" d="m400 427v-11h10v10l-4 1z"/>
		<path id="Path 43" class="s26" d="m410 426v-10h10v8l-4 2h-1z"/>
		<path id="Path 44" class="s27" d="m420 424v-8h6v7l-4 1z"/>
		<path id="Path 45" class="s16" d="m426 423v-7l4 1 1 4z"/>
		<path id="Path 46" class="s28" d="m501 421l12-5v4l5 2 2 11-2 7-5-3-4-10h-8l-1-3z"/>
		<path id="Path 47" class="s16" d="m572 420v-4h8v8h-5z"/>
		<path id="Path 48" class="s29" d="m600 419v-3h6v6h-6z"/>
		<path id="Path 49" class="s6" d="m606 422v-6h8l5 1 1 1v3z"/>
		<path id="Path 50" class="s30" d="m348 420l8-3-4 2z"/>
		<path id="Path 51" class="s31" d="m426 423l5-2-1-4h1l1 6-10 2v-1z"/>
		<path id="Path 52" class="s1" d="m444 435l22-17 6-1-5 5-5 3-8 5-4 4z"/>
		<path id="Path 53" class="s27" d="m467 422l5-5h1 1l8 3 7 1 3 6-2 5h-12l-5-7h-6z"/>
		<path id="Path 54" class="s2" d="m620 418l-1-1 20 5h-5z"/>
		<path id="Path 55" class="s32" d="m544 427l9-9h7v2 6l-16 6z"/>
		<path id="Path 56" class="s33" d="m620 421v-3l14 4v1l-3 2-5 1h-3z"/>
		<path id="Path 57" class="s34" d="m348 420l4-1-3 3-5 1-7 1v-2z"/>
		<path id="Path 58" class="s35" d="m589 420l5-1h6v3 10l6 2v6h-10l-12-6v-9z"/>
		<path id="Path 59" class="s25" d="m560 426v-6h6 6l3 4-7 2z"/>
		<path id="Path 60" class="s18" d="m372 422l6-1 3 5 10 2-1 2-4 4v1l-8-1-6-7z"/>
		<path id="Path 61" class="s10" d="m492 427l-3-6h1l5 3z"/>
		<path id="Path 62" class="s26" d="m606 422l14-1 3 5-17 8-6-2v-10z"/>
		<path id="Path 63" class="s21" d="m328 425l9-3v2z"/>
		<path id="Path 64" class="s16" d="m344 423l5-1 1 6h-6z"/>
		<path id="Path 65" class="s36" d="m462 425l5-3v3l-2 1z"/>
		<path id="Path 66" class="s6" d="m634 423v-1h5 1l1 6-3 1v-4z"/>
		<path id="Path 67" class="s23" d="m641 428l-1-6h4v6z"/>
		<path id="Path 68" class="s37" d="m337 424l7-1v5h-4l-11-1-1-1v-1z"/>
		<path id="Path 69" class="s38" d="m631 425l3-2 4 2v4l-3 2-3 1z"/>
		<path id="Path 70" class="s39" d="m416 426l4-2h2v1l-1 1z"/>
		<path id="Path 71" class="s40" d="m492 427l3-3h5l1 3-7 6-1 14-15 1-6-4v-6l6-6h12z"/>
		<path id="Path 72" class="s28" d="m568 426l7-2h5l4 1v9l-3 3v7h-11z"/>
		<path id="Path 73" class="s24" d="m318 427l10-2v1h-4z"/>
		<path id="Path 74" class="s16" d="m454 430l8-5 3 1-3 13-9-3z"/>
		<path id="Path 75" class="s20" d="m465 426l2-1h6l5 7-6 6-9 2-1-1z"/>
		<path id="Path 76" class="s32" d="m626 426l5-1 1 7-10 6h-1-2l7-6z"/>
		<path id="Path 77" class="s17" d="m318 427l6-1-6 2z"/>
		<path id="Path 78" class="s20" d="m318 428l6-2h4l1 1 1 6 8 2v9h-4l-18-4-7-2v8l-5 3-20-3-6-5-2-7 1-2h9l11-2h4l8-1 6-1z"/>
		<path id="Path 79" class="s23" d="m406 427l4-1h5l-1 2h-8z"/>
		<path id="Path 80" class="s9" d="m414 428l1-2h1 5z"/>
		<path id="Path 81" class="s20" d="m534 430l2-4 8 1v5l-2 3-5 1z"/>
		<path id="Path 82" class="s40" d="m544 432l16-6h8l2 18-2 8-6 1v5h-6l-4-2v-8l-10-13z"/>
		<path id="Path 83" class="s41" d="m606 434l17-8h3v6l-7 6-5 2h-8z"/>
		<path id="Path 84" class="s30" d="m309 428l6-1v1l-6 1z"/>
		<path id="Path 85" class="s24" d="m315 428v-1h3v1z"/>
		<path id="Path 86" class="s32" d="m338 435l-8-2-1-6 11 1v7z"/>
		<path id="Path 87" class="s2" d="m396 428l4-1h6v1l-10 2z"/>
		<path id="Path 88" class="s42" d="m478 448l15-1 1-14 7-6h8l4 10 5 3 1 4h3v8h-21l1 8h-2l-20-1-2-1z"/>
		<path id="Path 89" class="s14" d="m301 430l8-2v1z"/>
		<path id="Path 90" class="s25" d="m340 435v-7h4 6v3 4h-1z"/>
		<path id="Path 91" class="s43" d="m390 430l1-2h5v2h-5z"/>
		<path id="Path 92" class="s30" d="m638 429l3-1-3 4-16 6 10-6 3-1z"/>
		<path id="Path 93" class="s21" d="m386 434l4-4h1l-3 3 11 2z"/>
		<path id="Path 94" class="s18" d="m450 434l4-4-1 6h-2z"/>
		<path id="Path 95" class="s19" d="m520 433l4-3h10l3 6-9 7-6 1h-3l-1-4z"/>
		<path id="Path 96" class="s44" d="m350 435v-4l4 1v3z"/>
		<path id="Path 97" class="s34" d="m248 433l9-1v2h-9z"/>
		<path id="Path 98" class="s23" d="m257 434v-2h20l-1 2z"/>
		<path id="Path 99" class="s9" d="m236 435l6-2v1z"/>
		<path id="Path 100" class="s24" d="m242 434v-1h6v1h-5z"/>
		<path id="Path 101" class="s9" d="m651 435l11-2v2z"/>
		<path id="Path 102" class="s39" d="m236 435l6-1h1l-2 2h-5z"/>
		<path id="Path 103" class="s17" d="m241 436l2-2h5v4h-7z"/>
		<path id="Path 104" class="s32" d="m248 438v-4h9 19l2 7 6 5v6l-16 1v-8l-3-3-12-1z"/>
		<path id="Path 105" class="s45" d="m376 438l2-4 8 1 2 1v4l-8 2z"/>
		<path id="Path 106" class="s39" d="m386 435v-1l13 1v1h-11z"/>
		<path id="Path 107" class="s36" d="m444 435l6-1 1 2-6 5-5-1v-2l1-1z"/>
		<path id="Path 108" class="s42" d="m581 444v-7l3-3 12 6-1 12-1 4h-10z"/>
		<path id="Path 109" class="s39" d="m651 435h11l-11 1z"/>
		<path id="Path 110" class="s3" d="m226 437l10-2v1h-3z"/>
		<path id="Path 111" class="s41" d="m338 444v-9h2 9l1 15h-8l-4-2z"/>
		<path id="Path 112" class="s46" d="m350 450l-1-15h1 4l8 3v12l-9 2z"/>
		<path id="Path 113" class="s47" d="m399 436v-1h18v1h-1-14z"/>
		<path id="Path 114" class="s21" d="m417 436v-1l7 2h-1z"/>
		<path id="Path 115" class="s48" d="m537 436l5-1 10 13v8l-14-1v-6l-10-6z"/>
		<path id="Path 116" class="s9" d="m644 437l7-2v1h-1z"/>
		<path id="Path 117" class="s49" d="m651 436l11-1h3l3 2v5h-6l-12-4v-2z"/>
		<path id="Path 118" class="s9" d="m668 437l-3-2 4 2z"/>
		<path id="Path 119" class="s50" d="m226 437l7-1v2h-2-5z"/>
		<path id="Path 120" class="s36" d="m233 438v-2h3 5v2l-7 2z"/>
		<path id="Path 121" class="s51" d="m388 440v-4h11 3v4z"/>
		<path id="Path 122" class="s52" d="m402 440v-4h14l4 2v8 1h-7l-2-5z"/>
		<path id="Path 123" class="s53" d="m420 438l-4-2h1l6 1z"/>
		<path id="Path 124" class="s52" d="m440 440l5 1 6-5h2l9 3 1 1 2 7-1 11-13 1-4-4-19-1v-8l1-6z"/>
		<path id="Path 125" class="s6" d="m644 437l6-1v2l-16 5v-1z"/>
		<path id="Path 126" class="s54" d="m214 438l12-1v1h-1l-11 2z"/>
		<path id="Path 127" class="s19" d="m420 438l3-1h1 3l2 3-1 6h-8z"/>
		<path id="Path 128" class="s55" d="m429 440l-2-3h3l10 1v2z"/>
		<path id="Path 129" class="s31" d="m440 438l-10-1h11z"/>
		<path id="Path 130" class="s31" d="m633 442l3-4 8-1-10 5z"/>
		<path id="Path 131" class="s38" d="m668 442v-5h1 3l2 2v4z"/>
		<path id="Path 132" class="s9" d="m674 439l-2-2 4 1v1z"/>
		<path id="Path 133" class="s30" d="m209 440l5-2v2h-2z"/>
		<path id="Path 134" class="s32" d="m214 440l11-2v4l-6 4h-7v-6z"/>
		<path id="Path 135" class="s27" d="m225 442v-4h1 5l-1 4z"/>
		<path id="Path 136" class="s28" d="m225 442h5l1-4h2l1 2-2 16v19l-2 7 4 3-1 1h-16l-5-4v-17l-3-7h-5l-3-3-1-9h2 10 7z"/>
		<path id="Path 137" class="s35" d="m234 440l7-2h7l5 3v19l-3 2-8-1-3-5h-7z"/>
		<path id="Path 138" class="s35" d="m309 446v-8l7 2-2 6z"/>
		<path id="Path 139" class="s42" d="m362 450v-12h14l4 4 8-2h14l9 2 2 5-1 7z"/>
		<path id="Path 140" class="s56" d="m463 440l9-2v6l-7 3z"/>
		<path id="Path 141" class="s54" d="m614 440l5-2v2l-7 3z"/>
		<path id="Path 142" class="s30" d="m619 440v-2h2z"/>
		<path id="Path 143" class="s35" d="m634 443l16-5 12 4 1 7 3 1v14l-13-1-2-7h-11l-3-4h-9l-1-3 2-3z"/>
		<path id="Path 144" class="s57" d="m676 439v-1h8l5 4-11-2z"/>
		<path id="Path 145" class="s58" d="m674 443v-4h2l2 1 3 8-3 1-4-3z"/>
		<path id="Path 146" class="s59" d="m201 442l5-2-3 2z"/>
		<path id="Path 147" class="s27" d="m203 442l3-2h3 3v6h-10z"/>
		<path id="Path 148" class="s60" d="m314 446l2-6 18 4v4l-16 2z"/>
		<path id="Path 149" class="s44" d="m595 452l1-12h10 8l-2 3-2 1-5 5-7 4z"/>
		<path id="Path 150" class="s5" d="m681 448l-3-8 11 2h2l1 1 3 3-5 2z"/>
		<path id="Path 151" class="s28" d="m253 460v-19l12 1 3 3v8l-6 7z"/>
		<path id="Path 152" class="s9" d="m195 443l5-1-5 2z"/>
		<path id="Path 153" class="s18" d="m195 444l5-2h1 2l-1 4h-2-8z"/>
		<path id="Path 154" class="s3" d="m621 445l9-3-3 2z"/>
		<path id="Path 155" class="s49" d="m627 444l3-2h3 1v1l-5 3z"/>
		<path id="Path 156" class="s19" d="m666 450l-3-1-1-7h6l6 1v3z"/>
		<path id="Path 157" class="s14" d="m186 447l9-4v1l-3 2z"/>
		<path id="Path 158" class="s56" d="m522 444l6-1 10 6v6l-1 1h-7l-8-4z"/>
		<path id="Path 159" class="s61" d="m610 444l2-1-2 2z"/>
		<path id="Path 160" class="s3" d="m695 446l-3-3 10 4z"/>
		<path id="Path 161" class="s40" d="m334 448v-4h4v4z"/>
		<path id="Path 162" class="s41" d="m465 447l7-3 6 4v10h-14z"/>
		<path id="Path 163" class="s46" d="m568 452l2-8h11l3 12v6h-4-6l-2-2v-6z"/>
		<path id="Path 164" class="s54" d="m605 449l5-5v1l-3 4z"/>
		<path id="Path 165" class="s51" d="m621 445l6-1 2 2-2 3-12 2v-3z"/>
		<path id="Path 166" class="s54" d="m609 449l5-4h7l-6 3-4 1z"/>
		<path id="Path 167" class="s25" d="m186 447l6-1h8l1 9-1 5 1 7v5l7 10v10l-1 2h-7l-5-6h-8l-14-16-2-4-6-5 4-9 3-2 1-1 8-2z"/>
		<path id="Path 168" class="s22" d="m284 452v-6l20 3v9h-8z"/>
		<path id="Path 169" class="s11" d="m304 449l5-3h5l4 4-5 4v5l-9-1z"/>
		<path id="Path 170" class="s41" d="m420 447v-1h8v8h-8z"/>
		<path id="Path 171" class="s40" d="m666 450l8-4 4 3 2 12-9 3h-5z"/>
		<path id="Path 172" class="s58" d="m690 448l5-2 7 1 9 2v1l-1 6h-1l-15-4z"/>
		<path id="Path 173" class="s14" d="m181 448l5-1-5 2z"/>
		<path id="Path 174" class="s46" d="m412 454l1-7h7v7z"/>
		<path id="Path 175" class="s57" d="m173 450l8-2v1l-8 2z"/>
		<path id="Path 176" class="s62" d="m318 450l16-2h4l4 2v12 1l-13 3-15-2-1-5v-5z"/>
		<path id="Path 177" class="s63" d="m611 449l4-1v3l-3 1z"/>
		<path id="Path 178" class="s28" d="m678 449l3-1h9l4 4v12h-8l-6-3z"/>
		<path id="Path 179" class="s7" d="m711 449l8 1 5 8h-1l-12-8z"/>
		<path id="Path 180" class="s42" d="m598 453l7-4h2 2 2l1 3v8h-10l-4-4z"/>
		<path id="Path 181" class="s64" d="m615 451l12-2 1 3-1 6-11 4-4-2v-8z"/>
		<path id="Path 182" class="s59" d="m169 452l4-2v1l-1 1z"/>
		<path id="Path 183" class="s22" d="m342 462v-12h8l3 2-2 11z"/>
		<path id="Path 184" class="s58" d="m353 452l9-2 50 4h8 8l2 8 6 6v6 6l4 1v3 4l-14 2h-6l-1-7-11-2v-11l-5-4-11 1v11l-12 2-17-2-5-11-7-2v-2z"/>
		<path id="Path 185" class="s65" d="m710 456l1-6 12 8-1 9-4-9z"/>
		<path id="Path 186" class="s34" d="m158 457l2-4 9-1h3l-3 2-11 4z"/>
		<path id="Path 187" class="s52" d="m268 453l16-1 12 6-2 10-5 3-5 1h-5l-17-2v-10z"/>
		<path id="Path 188" class="s66" d="m502 460l-1-8h21l8 4v6 2h-18z"/>
		<path id="Path 189" class="s67" d="m562 458v-5l6-1 4 2v6l-4 1z"/>
		<path id="Path 190" class="s45" d="m594 456l1-4 3 1v3z"/>
		<path id="Path 191" class="s42" d="m627 458l1-6h9l3 4v6l-4 1z"/>
		<path id="Path 192" class="s46" d="m694 464v-12l15 4-2 10-7 2z"/>
		<path id="Path 193" class="s32" d="m158 458l11-4-4 9-3 3 4 5 2 2-1 7h-5l-3-8-5-1-2-2v-5l-4-4z"/>
		<path id="Path 194" class="s22" d="m436 468l-6-6-2-8 19 1 4 4-1 9z"/>
		<path id="Path 195" class="s55" d="m200 460l1-5 3 3z"/>
		<path id="Path 196" class="s66" d="m537 456l1-1 14 1 4 2v10l-20-2v-4z"/>
		<path id="Path 197" class="s19" d="m232 475v-19h7l3 5 8 1v6 6 2l-4 2v10l-8-3v-8z"/>
		<path id="Path 198" class="s68" d="m530 462v-6h7l-1 6z"/>
		<path id="Path 199" class="s67" d="m584 462v-6h10 4l4 4h10l4 2v4l-2 6 10 4v5l4 2v11 6h-4l-3 6-26-2-7 4v6h-12v-4-8l15-1 1-5-10-9v-7l-7-3-2-7 1-1 6 1 11-3-2-5z"/>
		<path id="Path 200" class="s66" d="m640 462v-6h11l2 7-5 1z"/>
		<path id="Path 201" class="s51" d="m707 466l2-10h1l8 2 4 9v3z"/>
		<path id="Path 202" class="s14" d="m143 460l15-3v1l-10 2z"/>
		<path id="Path 203" class="s32" d="m200 460l4-2h5l3 7-11 2z"/>
		<path id="Path 204" class="s45" d="m294 468l2-10h8l9 1 1 5-3 3z"/>
		<path id="Path 205" class="s58" d="m451 459l13-1h14l2 1 4 26-11 1-5-10-12-2v-4l-6-2z"/>
		<path id="Path 206" class="s68" d="m556 468v-10h6l6 3v9z"/>
		<path id="Path 207" class="s69" d="m616 462l11-4 9 5v5l-20-2z"/>
		<path id="Path 208" class="s1" d="m722 467l1-9h1l2 8-2 4 3 2-5-2z"/>
		<path id="Path 209" class="s70" d="m484 485l-4-26 20 1v10l10 2 6 14-2 4h-12l-4-5z"/>
		<path id="Path 210" class="s12" d="m127 463l4-3 10 1-4 1-10 2z"/>
		<path id="Path 211" class="s19" d="m142 461l1-1h5l4 4v5l-1 1-9-2z"/>
		<path id="Path 212" class="s58" d="m250 462l3-2h9v10 10l-5 2-2-8-5-6z"/>
		<path id="Path 213" class="s71" d="m510 472l-10-2v-10h2l10 4h18l6 2 20 2 12 2h5l2 7 7 3v7l10 9-1 5-15 1-2-5h-5l-9-9h-8l-2-4-2-8h-9l-1 8v2h-12v-5l-7-9z"/>
		<path id="Path 214" class="s66" d="m568 461l4-1 2 2v7l-1 1h-5z"/>
		<path id="Path 215" class="s1" d="m798 462l8-2v2z"/>
		<path id="Path 216" class="s12" d="m806 462v-2h14v2h-8z"/>
		<path id="Path 217" class="s43" d="m820 462v-2h17v1l-9 1z"/>
		<path id="Path 218" class="s72" d="m837 461v-1h40v1h-13-23z"/>
		<path id="Path 219" class="s73" d="m877 461v-1h10l-1 2h-6z"/>
		<path id="Path 220" class="s33" d="m886 462l1-2 6 2 5 2 8 3 5 3 1 2v9h-2l-8-3-4-5-10-1-2-2z"/>
		<path id="Path 221" class="s25" d="m137 462l4-1h1v7h-6z"/>
		<path id="Path 222" class="s68" d="m671 464l9-3 6 3-2 2h-6z"/>
		<path id="Path 223" class="s26" d="m828 462l9-1h4l1 9h-10l-4-2z"/>
		<path id="Path 224" class="s32" d="m842 470l-1-9h23v11l-4 4h-12v-4z"/>
		<path id="Path 225" class="s62" d="m864 472v-11h13l3 1v8 6h-2z"/>
		<path id="Path 226" class="s16" d="m127 464l10-2-1 6v3l-4 2-3 2 1 4-1 1-4-2 1-13z"/>
		<path id="Path 227" class="s74" d="m342 463v-1l9 1v2l-3 5h-4z"/>
		<path id="Path 228" class="s56" d="m530 464v-2h6v4z"/>
		<path id="Path 229" class="s75" d="m574 469v-7h6v8z"/>
		<path id="Path 230" class="s66" d="m580 470v-8h4 5l2 5z"/>
		<path id="Path 231" class="s76" d="m636 463l4-1 8 2v5l-12-1z"/>
		<path id="Path 232" class="s23" d="m766 464l14-2-4 2z"/>
		<path id="Path 233" class="s62" d="m776 464l4-2h4v9h-8z"/>
		<path id="Path 234" class="s51" d="m784 471v-9h14 8v5l-12 5z"/>
		<path id="Path 235" class="s62" d="m806 467v-5h6v4l-3 1z"/>
		<path id="Path 236" class="s32" d="m812 466v-4h8 8v6l-6 2-4-4z"/>
		<path id="Path 237" class="s38" d="m880 470v-8h6v8z"/>
		<path id="Path 238" class="s3" d="m898 464l-5-2 5 1z"/>
		<path id="Path 239" class="s30" d="m118 470l3-5 6-2v1l-1 1z"/>
		<path id="Path 240" class="s77" d="m166 471l-4-5 3-3 6 5h-4z"/>
		<path id="Path 241" class="s50" d="m314 464l15 2 13-3 2 7v8l-8 1-9-3-9 5v-5l-7-9z"/>
		<path id="Path 242" class="s67" d="m648 464l5-1 13 1h5l7 2 4 24-7 1-3-10-10-4-2-5h-6l-1-3h-5z"/>
		<path id="Path 243" class="s24" d="m756 464h8-2z"/>
		<path id="Path 244" class="s9" d="m898 463h1v1h-1z"/>
		<path id="Path 245" class="s14" d="m898 464l1-1 7 4z"/>
		<path id="Path 246" class="s78" d="m684 466l2-2h8l6 4-2 8-12-1z"/>
		<path id="Path 247" class="s39" d="m756 465v-1h6l-6 2z"/>
		<path id="Path 248" class="s70" d="m756 466l6-2h2 2 10v7l-2 11-20-2-9-2-2-5v-2l3-1 7-3z"/>
		<path id="Path 249" class="s17" d="m118 470l8-5-1 13-3 1h-4l-1-7z"/>
		<path id="Path 250" class="s60" d="m201 467l11-2v17h-4l-7-10z"/>
		<path id="Path 251" class="s6" d="m344 470h4l3-5 7 2 5 11-3 1-1 14-1 7h-4v-9l-6-2v-9l-4-2z"/>
		<path id="Path 252" class="s54" d="m753 467l3-2v1z"/>
		<path id="Path 253" class="s22" d="m392 478v-11l11-1 5 4v11l-11 1z"/>
		<path id="Path 254" class="s68" d="m624 476l-10-4 2-6 20 2 12 1h5l1 3v6z"/>
		<path id="Path 255" class="s69" d="m682 490l-4-24h6l2 9 12 1-2 12z"/>
		<path id="Path 256" class="s71" d="m700 468l7-2 15 4 5 2h1l2 2 2 21 4 2 4 17-6 1v9h-5l-5 8h-4l-6-10h-7l-6 14h-6l-3-6-2-4h-4v-4l-5-2-4 4v6h-6l-1-4-5-2v-8l1-5-11-15-27-2v-11l-4-2v-5l30 2 8-1 10 4 3 10 7-1 14-2 2-12z"/>
		<path id="Path 257" class="s41" d="m809 467l3-1h6l4 4v10l10 2 4 11v6l-8 1-2-7-3-1-4-2-7-4h-2z"/>
		<path id="Path 258" class="s37" d="m294 468l17-1 7 9v5 9l-6 4h-4v-8l-4-4h-8l-7-6v-5z"/>
		<path id="Path 259" class="s54" d="m746 468l7-1-7 3z"/>
		<path id="Path 260" class="s28" d="m794 472l12-5h3l1 19h-8l-1-4-4-1z"/>
		<path id="Path 261" class="s52" d="m136 471v-3h6l9 2 3 1 1 6-3 3-9 1-6-2-1-3z"/>
		<path id="Path 262" class="s79" d="m166 471l1-3h4l2 4-5 1z"/>
		<path id="Path 263" class="s56" d="m250 474v-6l5 6z"/>
		<path id="Path 264" class="s70" d="m436 474v-6h14l6 2v4l-13 2z"/>
		<path id="Path 265" class="s14" d="m741 470l5-2v2l-3 1h-2z"/>
		<path id="Path 266" class="s45" d="m822 470l6-2 4 2 1 7-1 5-10-2z"/>
		<path id="Path 267" class="s41" d="m151 470l1-1 2 2z"/>
		<path id="Path 268" class="s30" d="m116 472l2-2-1 2z"/>
		<path id="Path 269" class="s51" d="m262 480v-10l17 2-3 8h-13z"/>
		<path id="Path 270" class="s73" d="m728 472l13-2v1 2l-11 1z"/>
		<path id="Path 271" class="s62" d="m833 477l-1-7h10l6 2v4l-1 2z"/>
		<path id="Path 272" class="s32" d="m880 476v-6h6l2 2-2 4z"/>
		<path id="Path 273" class="s14" d="m912 472l-1-2 3 2z"/>
		<path id="Path 274" class="s80" d="m132 473l4-2v5l-2 1z"/>
		<path id="Path 275" class="s36" d="m152 480l3-3-1-6 5 1 3 8-2 2h-7z"/>
		<path id="Path 276" class="s17" d="m284 472l5-1v5h-4z"/>
		<path id="Path 277" class="s49" d="m741 473v-2h2v2z"/>
		<path id="Path 278" class="s42" d="m774 482l2-11h8l10 1 3 9-2 3-12 4z"/>
		<path id="Path 279" class="s53" d="m113 475l3-3h1l1 7-2 1-4-2z"/>
		<path id="Path 280" class="s15" d="m168 473l5-1 14 16-1 2h-1l-7-3-6-7h-5z"/>
		<path id="Path 281" class="s16" d="m276 480l3-8h5l1 4h4l7 6 2 14-4 4h-6v-6l-7-4z"/>
		<path id="Path 282" class="s67" d="m516 486l-6-14h9l7 9v5z"/>
		<path id="Path 283" class="s64" d="m654 478v-6h6l2 5z"/>
		<path id="Path 284" class="s28" d="m860 476l4-4 14 4v8l-5 3-9-1z"/>
		<path id="Path 285" class="s26" d="m886 476l2-4 10 1 4 5-4 6-10 1-2-1z"/>
		<path id="Path 286" class="s5" d="m912 481v-9h2l3 3 2 2 1 3 1 4h-4v-3z"/>
		<path id="Path 287" class="s81" d="m130 479l-1-4 3-2 2 4z"/>
		<path id="Path 288" class="s67" d="m730 474l11-1h2l2 5-1 10 6 3v3 5l-2 9 6 2v10h-2-5l-7-6-4-17-4-2z"/>
		<path id="Path 289" class="s41" d="m250 476v-2h5l2 8v3h-1l-6-2z"/>
		<path id="Path 290" class="s44" d="m440 481l-4-1v-6l7 2z"/>
		<path id="Path 291" class="s45" d="m443 476l13-2 12 2 5 10 11-1h14l4 5v10l-8 1v7h-6-12l-2-12-16-2h-12l-2-6v-3l-4-1v-3z"/>
		<path id="Path 292" class="s31" d="m108 480l5-5-1 3z"/>
		<path id="Path 293" class="s41" d="m234 485l-4-3 2-7 6 2v8z"/>
		<path id="Path 294" class="s58" d="m134 477l2-1 1 3-1 4-6 1-1-4 1-1z"/>
		<path id="Path 295" class="s82" d="m246 488v-10l4-2v7l1 7h-5z"/>
		<path id="Path 296" class="s83" d="m318 481l9-5 9 3v9l-18 2z"/>
		<path id="Path 297" class="s69" d="m538 484l1-8h9l2 8z"/>
		<path id="Path 298" class="s35" d="m847 478l1-2h12l4 10 1 8-3 3-11-2-1-15z"/>
		<path id="Path 299" class="s25" d="m878 484v-8h2 6v8z"/>
		<path id="Path 300" class="s40" d="m832 482l1-5 14 1 3 2 1 15-15-2z"/>
		<path id="Path 301" class="s0" d="m920 480l-1-3 2 3z"/>
		<path id="Path 302" class="s55" d="m108 480l4-2 4 2-1 8h-5l-1-3h-4l1-3z"/>
		<path id="Path 303" class="s45" d="m122 479l3-1 4 2 1 4v7l4 3v8l-7 3-5-9z"/>
		<path id="Path 304" class="s84" d="m336 479l8-1 4 2v9l-2 1-8-1-2-1z"/>
		<path id="Path 305" class="s45" d="m359 493l1-14 3-1 17 2v15l4 3v2h-4l-13-2-3-5z"/>
		<path id="Path 306" class="s52" d="m380 480l12-2 5 4-1 6-4 10h-8l-4-3z"/>
		<path id="Path 307" class="s69" d="m750 494v-3l-6-3 1-10 9 2 4 14z"/>
		<path id="Path 308" class="s70" d="m898 484l4-6 8 3v5l-6 2z"/>
		<path id="Path 309" class="s25" d="m116 480l2-1h4v17h-4l-3-8z"/>
		<path id="Path 310" class="s68" d="m136 483l1-4 6 2-1 6v1l-3 1-3-1z"/>
		<path id="Path 311" class="s46" d="m143 481l9-1 1 2-7 4-4 1z"/>
		<path id="Path 312" class="s16" d="m160 482l2-2h5 5l6 7-2 4-8 1-2 3-6-7z"/>
		<path id="Path 313" class="s77" d="m257 482l5-2h1l-1 6-5-1z"/>
		<path id="Path 314" class="s26" d="m262 486l1-6h13l5 10 7 4v6l-2 6-13-2 1-12-8-2-4-1z"/>
		<path id="Path 315" class="s56" d="m758 494l-4-14 20 2 9 6v9l-10 5-1 10h-8l-2-14z"/>
		<path id="Path 316" class="s59" d="m921 484l-1-4h1l5 9h-2z"/>
		<path id="Path 317" class="s78" d="m397 482l11-1 11 2 1 7v7h-6l-8-9h-10z"/>
		<path id="Path 318" class="s75" d="m795 484l2-3 4 1 1 4h8 2l2 6h5 4l3 1 2 7v6l-26-4z"/>
		<path id="Path 319" class="s22" d="m904 488l6-2v-5h2 5v3l-2 3-3 7 5 8-1 4-4 1-8-3v-1-1-6z"/>
		<path id="Path 320" class="s14" d="m103 486l3-4-1 3-1 1z"/>
		<path id="Path 321" class="s55" d="m104 485h1v1h-1z"/>
		<path id="Path 322" class="s20" d="m146 486l7-4h7v6l6 7v4 5l-6 5h-5l-1-9v-6l-6-4z"/>
		<path id="Path 323" class="s32" d="m208 492v-10h4l5 4-3 6z"/>
		<path id="Path 324" class="s18" d="m294 500l4-4-2-14h8l4 4v8l-5 4-1 8h-8z"/>
		<path id="Path 325" class="s67" d="m130 484l6-1v5l3 1-1 5h-4l-4-3z"/>
		<path id="Path 326" class="s22" d="m251 490l-1-7 6 2-1 7h-4z"/>
		<path id="Path 327" class="s69" d="m440 488v-4l4 1v3z"/>
		<path id="Path 328" class="s70" d="m538 486v-2h12l2 4h8l9 9h5l2 5v8h-12l-3-8-11 1-8-1-4-8z"/>
		<path id="Path 329" class="s68" d="m783 488l12-4 7 18-2 14-5 2-1 4-8 1-11-6v-4l-3-1 1-10 10-5z"/>
		<path id="Path 330" class="s51" d="m873 487l5-3h8l2 1v10l-2 1h-8l-5-3z"/>
		<path id="Path 331" class="s62" d="m888 485l10-1 6 4v8h-6l-10-1z"/>
		<path id="Path 332" class="s65" d="m915 487l2-3h4l3 5v1z"/>
		<path id="Path 333" class="s19" d="m104 486l1-1h4l1 3-2 12-1 1-11 1v-3l1-3 6-9v-1z"/>
		<path id="Path 334" class="s62" d="m233 486l1-1h4l8 3v2 4l-2 1-9-1z"/>
		<path id="Path 335" class="s6" d="m255 492l1-7h1l5 1v3l-6 3z"/>
		<path id="Path 336" class="s85" d="m142 487l4-1 2 4-6 2v-4z"/>
		<path id="Path 337" class="s45" d="m214 492l3-6h16l2 8-3 1v12l-2 3h-6v-9l-10-5z"/>
		<path id="Path 338" class="s63" d="m514 490l2-4h10 12v8l-1 11-1 1h-7l-3 4-6 3-5-5 1-6z"/>
		<path id="Path 339" class="s46" d="m819 492h-5l-2-6 7 4z"/>
		<path id="Path 340" class="s20" d="m865 494l-1-8 9 1v6z"/>
		<path id="Path 341" class="s14" d="m96 496l7-9-6 9z"/>
		<path id="Path 342" class="s17" d="m176 491l2-4 7 3-7 3z"/>
		<path id="Path 343" class="s33" d="m917 502l-5-8 3-7 9 3 3 6v3l-1 3z"/>
		<path id="Path 344" class="s36" d="m108 500l2-12h5l3 8-3 7h-1l-4-2z"/>
		<path id="Path 345" class="s36" d="m139 489l3-1v4l6-2 6 4v6l-14-4-2-2z"/>
		<path id="Path 346" class="s18" d="m186 490l1-2h8l5 6-2 2-7-3-1-3z"/>
		<path id="Path 347" class="s86" d="m318 490l18-2 2 1v23l-5 6-21-2-2-6 2-16z"/>
		<path id="Path 348" class="s19" d="m392 498l4-10h10l8 9h6l6 1v6h-14-6l-6-2h-8z"/>
		<path id="Path 349" class="s40" d="m426 490l14-2h4l2 6h12v7l-2 1h-22l-1 8h-1l-6-6v-6z"/>
		<path id="Path 350" class="s49" d="m256 492l6-3 4 1v12h-6v-4l-4-2z"/>
		<path id="Path 351" class="s53" d="m338 512v-23l8 1-4 22z"/>
		<path id="Path 352" class="s80" d="m346 490l2-1 6 2v9 14h-6l-6-2z"/>
		<path id="Path 353" class="s2" d="m924 490v-1h2l1 3v4z"/>
		<path id="Path 354" class="s79" d="m168 492l8-1 2 2v5l-9 1z"/>
		<path id="Path 355" class="s81" d="m178 493l7-3h1 4l1 3-6 5h-7z"/>
		<path id="Path 356" class="s4" d="m246 494v-4h5v2z"/>
		<path id="Path 357" class="s46" d="m266 502v-12l8 2-1 12-7 4z"/>
		<path id="Path 358" class="s28" d="m420 497v-7h6v8z"/>
		<path id="Path 359" class="s52" d="m502 500v-10h12l2 12h-10z"/>
		<path id="Path 360" class="s48" d="m819 492v-2l4 2z"/>
		<path id="Path 361" class="s77" d="m166 495l2-3 1 7h-3z"/>
		<path id="Path 362" class="s20" d="m207 494l1-2h6v4h-6z"/>
		<path id="Path 363" class="s29" d="m246 494l5-2h4 1v4l-6 4-1 16-2 2h-3v-23z"/>
		<path id="Path 364" class="s80" d="m185 498l6-5 7 3-2 6-6 4-5-2z"/>
		<path id="Path 365" class="s41" d="m358 500l1-7h5l3 5-3 2-6 1z"/>
		<path id="Path 366" class="s48" d="m836 499v-6l15 2 11 2v11l-5 1h-16v-7z"/>
		<path id="Path 367" class="s42" d="m865 494l8-1 5 3v10l-16 2v-11z"/>
		<path id="Path 368" class="s52" d="m134 502v-8h4l2 2v6z"/>
		<path id="Path 369" class="s29" d="m198 496l2-2h7l1 2v6l-7 4v8h-10l-1-8 6-4z"/>
		<path id="Path 370" class="s19" d="m232 507v-12l3-1 9 1v23l-4 5h-6v-7l2-8z"/>
		<path id="Path 371" class="s83" d="m302 506l1-8 5-4h4l-2 16 2 6 21 2 4 5-5 5h-10-20z"/>
		<path id="Path 372" class="s42" d="m458 501v-7l16 2 2 12v6l3 2v4h-4l-3 6h-2-3l-10-2-2-9 1-1h6l2-6v-4z"/>
		<path id="Path 373" class="s56" d="m537 505l1-11 4 8v3z"/>
		<path id="Path 374" class="s70" d="m628 500v-6l27 2 11 15-1 5-8-4h-17v-9z"/>
		<path id="Path 375" class="s78" d="m750 499v-5h8l4 4 2 14v6l4 3v7h-9l-2-7-3-1v-10l4-2v-6z"/>
		<path id="Path 376" class="s35" d="m886 496l2-1 10 1v6l-1 1-10 2z"/>
		<path id="Path 377" class="s31" d="m93 502l3-6h1l-1 3-2 3z"/>
		<path id="Path 378" class="s20" d="m115 503l3-7h4l5 9-4 5-6 1z"/>
		<path id="Path 379" class="s27" d="m140 502v-6l14 4 1 9-1 7-3 4h-9v-4z"/>
		<path id="Path 380" class="s51" d="m201 514v-8l7-4v-6h6l10 5v9 6h-8-12z"/>
		<path id="Path 381" class="s51" d="m249 516l1-16 6-4 4 2v4l-1 6-1 8z"/>
		<path id="Path 382" class="s40" d="m878 506v-10h8l1 9-1 1z"/>
		<path id="Path 383" class="s60" d="m898 502v-6h6v6h-1z"/>
		<path id="Path 384" class="s4" d="m169 499l9-1v22l-1 10h-8l-8-4-1-3v-7-7l6-5v-5z"/>
		<path id="Path 385" class="s10" d="m178 520v-22h7v6l5 2 1 8-3 7z"/>
		<path id="Path 386" class="s64" d="m364 500l3-2 13 2v6l-8 3-2 5-5-2-1-8z"/>
		<path id="Path 387" class="s20" d="m384 500v-2h8v4 2h-8z"/>
		<path id="Path 388" class="s49" d="m94 502l2-3v3z"/>
		<path id="Path 389" class="s76" d="m754 510l-6-2 2-9 8 3v6z"/>
		<path id="Path 390" class="s64" d="m828 500l8-1 5 3v7l-2 4-11 5v-12z"/>
		<path id="Path 391" class="s12" d="m926 502l1-3v5h-1z"/>
		<path id="Path 392" class="s87" d="m107 501l1-1 2 1z"/>
		<path id="Path 393" class="s17" d="m286 506l2-6h6v6l-3 2z"/>
		<path id="Path 394" class="s29" d="m354 514v-14h4v1l1 4v7l-1 2z"/>
		<path id="Path 395" class="s48" d="m358 501l6-1v4l-5 1z"/>
		<path id="Path 396" class="s19" d="m380 506v-6h4v4z"/>
		<path id="Path 397" class="s60" d="m494 508v-7l8-1 4 2v6l-6 6-3-2z"/>
		<path id="Path 398" class="s78" d="m621 506l3-6h4l12 3v9 12h-10l-1-8-7-3z"/>
		<path id="Path 399" class="s10" d="m96 502l11-1 2 8 4 4v4l-3 5-12-4-11-3 1-5 5-8h1z"/>
		<path id="Path 400" class="s79" d="m109 509l-2-8h3l4 2v4z"/>
		<path id="Path 401" class="s51" d="m456 502l2-1 6 3v4l-2 6h-6z"/>
		<path id="Path 402" class="s36" d="m127 505l7-3h6l2 14-6 2h-3l-3-4h-6l-1-4z"/>
		<path id="Path 403" class="s29" d="m259 508l1-6h6v6l-2 1z"/>
		<path id="Path 404" class="s40" d="m392 504v-2h8l-1 6h-5z"/>
		<path id="Path 405" class="s64" d="m399 508l1-6 6 2-1 6-5 2z"/>
		<path id="Path 406" class="s62" d="m433 510l1-8h22v12l-1 1-9 3h-4z"/>
		<path id="Path 407" class="s42" d="m506 508v-6h10l-1 6z"/>
		<path id="Path 408" class="s46" d="m542 505v-3l8 1v9h-3z"/>
		<path id="Path 409" class="s63" d="m550 503l11-1 3 8-3 3-11-1z"/>
		<path id="Path 410" class="s66" d="m800 516l2-14 26 4v12l-4 2-16 1h-4z"/>
		<path id="Path 411" class="s62" d="m897 503l1-1h5l1 1v1l-4 2z"/>
		<path id="Path 412" class="s51" d="m903 502h1v1h-1z"/>
		<path id="Path 413" class="s5" d="m912 507l4-1 1-4h9v2l-1 4-5 5-6 5h-2v-3-4z"/>
		<path id="Path 414" class="s53" d="m109 509l5-2v-4h1l2 8-4 2z"/>
		<path id="Path 415" class="s49" d="m887 505l10-2 3 3v8l-3 4h-7l-4-2v-10z"/>
		<path id="Path 416" class="s18" d="m266 508l7-4 13 2 5 2-2 5-14 1-7 12h-6l1-10 1-7z"/>
		<path id="Path 417" class="s46" d="m359 505l5-1 1 8h-6z"/>
		<path id="Path 418" class="s35" d="m380 506l4-2h8l2 4h5l1 4v6h-7l-5 5-3-3h-14l-1-6 2-5z"/>
		<path id="Path 419" class="s40" d="m405 510l1-6h6v11h-2z"/>
		<path id="Path 420" class="s48" d="m412 515v-11h14l6 6-4 6-15 3z"/>
		<path id="Path 421" class="s70" d="m588 514v-6l7-4 26 2 1 7-1 11-1 6h-8l-10-5-2-9h-12z"/>
		<path id="Path 422" class="s38" d="m900 506l4-2 8 3v4l-3 3h-9z"/>
		<path id="Path 423" class="s88" d="m925 508l1-4h1v4h-1z"/>
		<path id="Path 424" class="s22" d="m536 506l1-1h5l5 7v6l-1 1-9-1-1-5z"/>
		<path id="Path 425" class="s37" d="m291 508l3-2h8v22l-9 1h-14l-1 5-16-2v-6h6l7-12 14-1z"/>
		<path id="Path 426" class="s89" d="m526 510l3-4h7v7l-7 1z"/>
		<path id="Path 427" class="s51" d="m862 508l16-2h8v10l-2 2h-12-14l-1-9z"/>
		<path id="Path 428" class="s44" d="m230 510l2-3 4 1-2 8h-4z"/>
		<path id="Path 429" class="s90" d="m258 516l1-8 5 1-1 7z"/>
		<path id="Path 430" class="s66" d="m479 516l-3-2v-6h12v6l-4 2z"/>
		<path id="Path 431" class="s48" d="m488 514v-6h6l3 4-4 2z"/>
		<path id="Path 432" class="s51" d="m500 514l6-6h9l5 5 4 9 2 4h4v12l-4 1-1-1-2-6-9-1-10-2-1-7-3-1z"/>
		<path id="Path 433" class="s45" d="m841 509h16l1 9v16h-6l-7-2-2-5-13-1-6-2v-4l4-2 11-5z"/>
		<path id="Path 434" class="s31" d="m920 513l5-5h1l-5 5z"/>
		<path id="Path 435" class="s21" d="m596 594l5-1-16 3z"/>
		<path id="Path 436" class="s84" d="m154 516l1-7h5v7z"/>
		<path id="Path 437" class="s14" d="m81 525v-5l7-10-1 5-3 6z"/>
		<path id="Path 438" class="s49" d="m117 511l6-1 1 4v6h-8l-3-3v-4z"/>
		<path id="Path 439" class="s19" d="m224 516v-6h6v6h-4z"/>
		<path id="Path 440" class="s46" d="m400 512l5-2 5 5v5l-10-2z"/>
		<path id="Path 441" class="s28" d="m413 519l15-3 4-6h1l9 8h4v12h-6l-8-6h-8-9l-2-4z"/>
		<path id="Path 442" class="s66" d="m520 513l6-3 3 4-1 6-4 2z"/>
		<path id="Path 443" class="s75" d="m561 513l3-3h12v4 12h-8v-7z"/>
		<path id="Path 444" class="s65" d="m909 514l3-3v4z"/>
		<path id="Path 445" class="s18" d="m333 518l5-6h4l6 2v9h-3-8z"/>
		<path id="Path 446" class="s19" d="m358 514l1-2h6l5 2 1 6-1 2h-8l-3-1z"/>
		<path id="Path 447" class="s42" d="m493 514l4-2 3 2v7l-7 2z"/>
		<path id="Path 448" class="s56" d="m547 518v-6h3l11 1 7 6v7 2h-4l-8-2z"/>
		<path id="Path 449" class="s58" d="m640 524v-12h17l8 4v8l-5 2v6 8l-3 3-9-1-2-15z"/>
		<path id="Path 450" class="s70" d="m768 521l-4-3v-6h8l3 1v4z"/>
		<path id="Path 451" class="s78" d="m529 514l7-1 1 5 1 8h-8-4l-2-4 4-2z"/>
		<path id="Path 452" class="s56" d="m621 524l1-11 7 3 1 8z"/>
		<path id="Path 453" class="s61" d="m914 518l6-5h1l-2 4z"/>
		<path id="Path 454" class="s55" d="m124 520v-6h6l3 4-3 4h-6z"/>
		<path id="Path 455" class="s49" d="m188 521l3-7h10l3 2-6 17-9 1z"/>
		<path id="Path 456" class="s32" d="m348 523v-9h6 4l1 7 3 1v8h-6l-2-1v-3z"/>
		<path id="Path 457" class="s75" d="m484 516l4-2h5v9l-2 2h-7z"/>
		<path id="Path 458" class="s76" d="m576 526v-12h12v2l-1 6-2 3-8 1z"/>
		<path id="Path 459" class="s70" d="m734 524v-9l6-1 7 6z"/>
		<path id="Path 460" class="s33" d="m897 518l3-4h9l3 1v3l-6 5v1l-6 2z"/>
		<path id="Path 461" class="s36" d="m84 521l3-6 11 3v6h-13z"/>
		<path id="Path 462" class="s6" d="m204 516h12l-1 6-5 2-4 14h-4l-4-5z"/>
		<path id="Path 463" class="s42" d="m410 520v-5h2l1 4v1z"/>
		<path id="Path 464" class="s35" d="m446 518l9-3 2 9 10 2-1 8-6 2-9-1-5-5z"/>
		<path id="Path 465" class="s20" d="m136 518l6-2v4l-3 2z"/>
		<path id="Path 466" class="s10" d="m151 520l3-4h6v7l-5 1z"/>
		<path id="Path 467" class="s20" d="m215 522l1-6h8 2v6l-4 4h-5z"/>
		<path id="Path 468" class="s29" d="m222 526l4-4v-6h4 4v7l-1 9-3 2-8-2z"/>
		<path id="Path 469" class="s62" d="m247 518l2-2h9l-2 5-8 1z"/>
		<path id="Path 470" class="s80" d="m256 521l2-5h5l-1 10v6h-3l-4-4z"/>
		<path id="Path 471" class="s64" d="m479 520v-4h5v9h-4z"/>
		<path id="Path 472" class="s22" d="m587 522l1-6h12l2 9-10-1z"/>
		<path id="Path 473" class="s75" d="m786 523l8-1 1-4 5-2 4 5-4 5v6l-2 6h-4l-7-5z"/>
		<path id="Path 474" class="s11" d="m884 518l2-2 4 2v6h-6z"/>
		<path id="Path 475" class="s51" d="m110 522l3-5 3 3v9l-1 5h-5z"/>
		<path id="Path 476" class="s42" d="m768 521l7-4 11 6 1 10 7 5v4h-10v-3h-3l-13-11z"/>
		<path id="Path 477" class="s32" d="m98 524v-6l12 4v12l-5-2-1-3h-6z"/>
		<path id="Path 478" class="s19" d="m130 522l3-4h3l3 4-3 10h-5z"/>
		<path id="Path 479" class="s91" d="m240 523l4-5h3l1 4 8-1-1 7-9 5-3 7h-3v-8z"/>
		<path id="Path 480" class="s32" d="m388 523l5-5h7l10 2h3l2 4v5l3 1v10h-27-7l-1-6z"/>
		<path id="Path 481" class="s11" d="m538 526l-1-8 9 1v12l-4 1-4-2z"/>
		<path id="Path 482" class="s52" d="m546 519l1-1 9 8v6l-10-1z"/>
		<path id="Path 483" class="s62" d="m858 534v-16h14v8l-4 7z"/>
		<path id="Path 484" class="s38" d="m872 526v-8h12v6 2z"/>
		<path id="Path 485" class="s65" d="m890 524v-6h7l3 8-1 2-5 1z"/>
		<path id="Path 486" class="s30" d="m906 523l6-5h2l-2 4z"/>
		<path id="Path 487" class="s27" d="m116 529v-9h8v2l-2 9z"/>
		<path id="Path 488" class="s36" d="m139 522l3-2h9l4 4 5-1 1 3-6 12h-15-4v-6z"/>
		<path id="Path 489" class="s32" d="m177 530l1-10 10 1 1 13-2 7h-7l-2-1z"/>
		<path id="Path 490" class="s28" d="m370 522l1-2h14l3 3-5 11h-7l-6-4z"/>
		<path id="Path 491" class="s51" d="m472 526l3-6h4l1 5h4 7l5 7 1 10v4l-1 2-12-4v-6-4z"/>
		<path id="Path 492" class="s58" d="m677 530v-6l4-4 5 2v4l2 5 1 6-2 3h-9z"/>
		<path id="Path 493" class="s52" d="m734 524l13-4h5v8l4 2v5l-8 9h-3l-7-8h-14v-4l5-8z"/>
		<path id="Path 494" class="s41" d="m756 530l-4-2v-8h2l3 1 2 7z"/>
		<path id="Path 495" class="s78" d="m808 521l16-1v4l-5 4h-11z"/>
		<path id="Path 496" class="s18" d="m81 525l3-4 1 3h13v5l-1 4-1 9h-4v4l-12-1v-1-7-3-4z"/>
		<path id="Path 497" class="s62" d="m493 523l7-2 3 1 1 7v3h-8l-5-7z"/>
		<path id="Path 498" class="s56" d="m800 532v-6l4-5h4v7 4z"/>
		<path id="Path 499" class="s32" d="m122 531l2-9h6l1 10 2 9-5 5h-5l1-8z"/>
		<path id="Path 500" class="s26" d="m206 538l4-14 5-2 2 4h5v6l-1 7-5 3h-6z"/>
		<path id="Path 501" class="s27" d="m362 530v-8h8v8z"/>
		<path id="Path 502" class="s89" d="m577 526l8-1 2-3 5 2-1 12-9 3-5-4z"/>
		<path id="Path 503" class="s58" d="m701 536l6-14h7l6 10h4v4 7h-9l-4-5z"/>
		<path id="Path 504" class="s25" d="m233 532l1-9h6v9z"/>
		<path id="Path 505" class="s80" d="m332 528l5-5h8l1 10-2 9-1 6h-3l-3-6h-5z"/>
		<path id="Path 506" class="s92" d="m346 533l-1-10h3l6 3v3z"/>
		<path id="Path 507" class="s19" d="m415 524h9v6h-6l-3-1z"/>
		<path id="Path 508" class="s32" d="m424 530v-6h8l8 6h6l5 5 9 1-2 7-12 1-11-1v-7z"/>
		<path id="Path 509" class="s63" d="m591 536l1-12 10 1 10 5 2 14-4 2h-6v-5l-5-5h-5z"/>
		<path id="Path 510" class="s58" d="m620 530l1-6h9v9l-7 1z"/>
		<path id="Path 511" class="s22" d="m630 533v-9h10l6 3 2 15-5 1z"/>
		<path id="Path 512" class="s52" d="m660 532v-6l5-2 5 2 1 4z"/>
		<path id="Path 513" class="s35" d="m808 528h11l5-4 6 2v7l-5 7-7 2h-8l-2-10z"/>
		<path id="Path 514" class="s33" d="m884 526v-2h6l4 5v1l-7 3-6 2z"/>
		<path id="Path 515" class="s0" d="m900 526l6-2-7 4z"/>
		<path id="Path 516" class="s21" d="m79 530l2-5-1 5z"/>
		<path id="Path 517" class="s80" d="m155 538l6-12 8 4-1 8-11 2z"/>
		<path id="Path 518" class="s60" d="m466 534l1-8h3v8z"/>
		<path id="Path 519" class="s20" d="m470 534v-8h2l12 8v4h-9z"/>
		<path id="Path 520" class="s62" d="m530 538v-12h8v4l4 2v6h-8z"/>
		<path id="Path 521" class="s51" d="m556 532v-6l8 2v8h-8z"/>
		<path id="Path 522" class="s52" d="m568 528v-2h8 1v9l-9 1z"/>
		<path id="Path 523" class="s68" d="m688 531l-2-5h4l2 4z"/>
		<path id="Path 524" class="s28" d="m830 533v-7l13 1 2 5z"/>
		<path id="Path 525" class="s13" d="m868 533l4-7h12l-3 9h-4l-7-1z"/>
		<path id="Path 526" class="s93" d="m243 540l3-7 9-5 4 4-1 10-5 4v4l-7 2-2-2z"/>
		<path id="Path 527" class="s83" d="m278 534l1-5h14l-3 7z"/>
		<path id="Path 528" class="s86" d="m293 529l9-1h20v12h-17l-1 4h-17l-1-4-28 2 1-10h3l16 2 12 2z"/>
		<path id="Path 529" class="s53" d="m322 540v-12h10v14l-8 2z"/>
		<path id="Path 530" class="s41" d="m564 536v-8h4v8h-2z"/>
		<path id="Path 531" class="s51" d="m756 530l3-2h9l13 11 1 3-1 2h-15l-2-8-8-1z"/>
		<path id="Path 532" class="s0" d="m894 529l5-1-5 2z"/>
		<path id="Path 533" class="s94" d="m97 533l1-4h6l1 3z"/>
		<path id="Path 534" class="s84" d="m115 534l1-5 6 2 2 7h-8z"/>
		<path id="Path 535" class="s36" d="m346 533l8-4 2 1v11l-1 1h-11z"/>
		<path id="Path 536" class="s45" d="m504 532v-3l10 2-1 2h-5z"/>
		<path id="Path 537" class="s3" d="m79 533v-3h1v4h-1z"/>
		<path id="Path 538" class="s55" d="m168 538l1-8h8l1 10z"/>
		<path id="Path 539" class="s26" d="m356 541v-11h6 8l6 4v6z"/>
		<path id="Path 540" class="s27" d="m418 540v-10h6l11 6v7l-17 1z"/>
		<path id="Path 541" class="s11" d="m610 546l4-2-2-14h8l3 4 7-1 13 10-11 9-18 4h-4z"/>
		<path id="Path 542" class="s38" d="m660 532l11-2h6l1 10h-2-16z"/>
		<path id="Path 543" class="s46" d="m688 531l4-1 3 6-6 1z"/>
		<path id="Path 544" class="s46" d="m513 533l1-2 9 1 2 6h-6-5z"/>
		<path id="Path 545" class="s41" d="m542 532l4-1 10 1v4l-2 3-7 5-5-6z"/>
		<path id="Path 546" class="s55" d="m97 533l8-1 5 2h5l1 4h8l-1 8-1 4h-8l-1-9-12 5h-2l-3-4z"/>
		<path id="Path 547" class="s25" d="m133 541l-2-9h5v6z"/>
		<path id="Path 548" class="s6" d="m221 539l1-7 8 2-1 7-5 1z"/>
		<path id="Path 549" class="s32" d="m230 534l3-2h7v8l-7 4-4-3z"/>
		<path id="Path 550" class="s35" d="m497 542l-1-10h8l4 1 1 5-1 2-4 2z"/>
		<path id="Path 551" class="s41" d="m798 538l2-6h8l2 10h-12z"/>
		<path id="Path 552" class="s38" d="m830 533l15-1 7 2v4l-1 1-17 2h-1-6l-2-1z"/>
		<path id="Path 553" class="s0" d="m78 533h1v1h-1z"/>
		<path id="Path 554" class="s4" d="m189 534l9-1 4 5v12h14v8h-5l-2 6h-12l-15-2-1-16 6-5z"/>
		<path id="Path 555" class="s56" d="m509 538l-1-5h5l1 5z"/>
		<path id="Path 556" class="s91" d="m858 534l10-1 2 1-1 2-7 2h-3-7v-4z"/>
		<path id="Path 557" class="s7" d="m78 537v-3h1 1v3z"/>
		<path id="Path 558" class="s15" d="m376 540v-6h7l1 6h-4z"/>
		<path id="Path 559" class="s27" d="m460 536l6-2h4l5 4h9v6l-2 10h-3l-12-2-4 6h-5l-2-4h-9l-1-10 12-1z"/>
		<path id="Path 560" class="s23" d="m869 536l1-2 7 1v1z"/>
		<path id="Path 561" class="s38" d="m568 536l9-1 5 4v7h-2-14v-10z"/>
		<path id="Path 562" class="s62" d="m748 544l8-9 8 1 2 8h-6-11z"/>
		<path id="Path 563" class="s62" d="m554 539l2-3h8 2v10l-9 1z"/>
		<path id="Path 564" class="s41" d="m582 539l9-3h3l3 10-9 2-6-2z"/>
		<path id="Path 565" class="s42" d="m597 546l-3-10h5l5 5v5z"/>
		<path id="Path 566" class="s11" d="m689 537l6-1h6l10 2 4 5 3 9v1h-1l-2 1-11 4h-10-6l-6-6h-8l2-12h2 9z"/>
		<path id="Path 567" class="s62" d="m724 543v-7h14l7 8-5 2-11 2h-2z"/>
		<path id="Path 568" class="s3" d="m862 538l7-2h8z"/>
		<path id="Path 569" class="s39" d="m78 543v-6h2v7h-1z"/>
		<path id="Path 570" class="s59" d="m78 543h1v1h-1z"/>
		<path id="Path 571" class="s18" d="m133 541l3-3h4v8l-6 8v8h-10v-10h4v-6z"/>
		<path id="Path 572" class="s55" d="m140 546v-8h15l2 2v8h-6z"/>
		<path id="Path 573" class="s84" d="m157 540l11-2 10 2 2 1 1 5 1 16-7 4-1 12h-11-3l-1-2 1-5-8-9 6-7-1-7z"/>
		<path id="Path 574" class="s18" d="m216 550h-14v-12h4l4 4h6z"/>
		<path id="Path 575" class="s60" d="m508 540l1-2h5 5l1 6-2 4-10-2z"/>
		<path id="Path 576" class="s20" d="m520 544l-1-6h6l1 1-2 5z"/>
		<path id="Path 577" class="s44" d="m526 539l4-1h4v14 4l-14 1-2-1v-8l2-4h4z"/>
		<path id="Path 578" class="s49" d="m534 552v-14h8l5 6 2 4 8-1 9-1h14v8l-24 6-17-5v-3z"/>
		<path id="Path 579" class="s52" d="m794 542v-4h4v4z"/>
		<path id="Path 580" class="s12" d="m851 539l1-1h7l-8 2z"/>
		<path id="Path 581" class="s10" d="m216 542l5-3 3 3v8l3 3-3 5h-6-2v-8z"/>
		<path id="Path 582" class="s32" d="m547 544l7-5 3 8-8 1z"/>
		<path id="Path 583" class="s45" d="m782 542l-1-3h3v3z"/>
		<path id="Path 584" class="s57" d="m834 541l17-2v1l-17 2z"/>
		<path id="Path 585" class="s6" d="m233 544l7-4h3l1 10-10 9v7l-11 3-5-5v-6h6l3-5 6-4z"/>
		<path id="Path 586" class="s87" d="m258 542l28-2 1 4-11 11v9h-4l-4-7-15-7v-4z"/>
		<path id="Path 587" class="s87" d="m304 544l1-4h17l2 4v6l-9 2z"/>
		<path id="Path 588" class="s16" d="m356 541l20-1h4v7l-19 3-6-8z"/>
		<path id="Path 589" class="s27" d="m380 547v-7h4 7v7l-3 1z"/>
		<path id="Path 590" class="s17" d="m388 548l3-1v-7h27v4l-1 7h-6l-4-1-1 4h-6l-12-2z"/>
		<path id="Path 591" class="s41" d="m504 542l4-2v6h-4z"/>
		<path id="Path 592" class="s13" d="m648 542l9 1 3-3h16l-2 12-11 2-1 8-11 3-13-1-2-4-20 2-2-6 18-4 11-9z"/>
		<path id="Path 593" class="s4" d="m818 542l7-2 2 1v1l-3 1h-5-1z"/>
		<path id="Path 594" class="s80" d="m827 541h6l-6 1z"/>
		<path id="Path 595" class="s82" d="m101 546l12-5 1 9-10 2z"/>
		<path id="Path 596" class="s36" d="m181 546l-1-5h7z"/>
		<path id="Path 597" class="s36" d="m224 542l5-1 4 3v5l-6 4-3-3z"/>
		<path id="Path 598" class="s31" d="m827 542l6-1h1v1l-10 1z"/>
		<path id="Path 599" class="s94" d="m92 546v-4h4l3 4z"/>
		<path id="Path 600" class="s93" d="m324 544l8-2h5l3 6-3 7-9 5v-7l-4-3z"/>
		<path id="Path 601" class="s18" d="m343 548l1-6h11l6 8 19-3 8 1v4l-4 1v10h-5l-3 4-7 1-6-10h-8l-4-6h-5z"/>
		<path id="Path 602" class="s19" d="m497 546v-4h7v4z"/>
		<path id="Path 603" class="s91" d="m781 544l1-2h2 10 4v2h-3z"/>
		<path id="Path 604" class="s84" d="m798 544v-2h12 8v1z"/>
		<path id="Path 605" class="s36" d="m418 544l17-1 11 1 1 10-3 4h-12l-7-1-1-5-7-1z"/>
		<path id="Path 606" class="s49" d="m718 552l-3-9h9l3 5-5 2z"/>
		<path id="Path 607" class="s3" d="m798 544l20-1h1l-24 2v-1z"/>
		<path id="Path 608" class="s61" d="m78 545v-1h1 1v1l1 3z"/>
		<path id="Path 609" class="s85" d="m276 564v-9l11-11h17l11 8 1 10v2h-6l-2 4h-4l-1-6z"/>
		<path id="Path 610" class="s10" d="m482 554l2-10 12 4 1 8-3 4h-6z"/>
		<path id="Path 611" class="s39" d="m740 546l5-2h3 1v2z"/>
		<path id="Path 612" class="s23" d="m749 546v-2h11l1 1-1 1z"/>
		<path id="Path 613" class="s24" d="m761 545l-1-1h6 15 14v1z"/>
		<path id="Path 614" class="s50" d="m81 548l-1-3 12 1h7 2l3 6v8 5l-12-4-9-10z"/>
		<path id="Path 615" class="s26" d="m122 550l1-4h5v6h-4z"/>
		<path id="Path 616" class="s37" d="m134 562v-8l6-8 11 2-3 14h-10z"/>
		<path id="Path 617" class="s32" d="m496 548l1-2h7 4l10 2v8l-12 2-9-2z"/>
		<path id="Path 618" class="s13" d="m580 554v-8h2l6 2v5l4 4 6 1v7l-12 1v-10z"/>
		<path id="Path 619" class="s38" d="m588 548l9-2h7 6v10l-12 2-6-1-4-4z"/>
		<path id="Path 620" class="s3" d="m729 548l11-2h9 11z"/>
		<path id="Path 621" class="s50" d="m148 562l3-14h6l1 7-6 7z"/>
		<path id="Path 622" class="s4" d="m337 555l3-7h3l3 4v6h-7z"/>
		<path id="Path 623" class="s37" d="m104 552l10-2h8l2 2v10l-20-2z"/>
		<path id="Path 624" class="s82" d="m234 566v-7l10-9 2 2v14h-8z"/>
		<path id="Path 625" class="s85" d="m246 552l7-2 15 7 4 7-2 10h-6l-3-6-9 3-6-5z"/>
		<path id="Path 626" class="s94" d="m315 552l9-2 4 3v7l-2 2h-10z"/>
		<path id="Path 627" class="s18" d="m406 554l1-4 4 1z"/>
		<path id="Path 628" class="s0" d="m718 552l4-2-4 3z"/>
		<path id="Path 629" class="s0" d="m92 563l-9-12 9 10z"/>
		<path id="Path 630" class="s50" d="m406 554l5-3h6l7 1 1 5-1 9h-18l-6-6v-6z"/>
		<path id="Path 631" class="s50" d="m346 558v-6h5l4 6h8l6 10-2 3h-7l-4-7h-6z"/>
		<path id="Path 632" class="s55" d="m384 563v-10l4-1 12 2v6h-8l-2 3z"/>
		<path id="Path 633" class="s5" d="m463 558l4-6 12 2v7l5 7v8h-9l-4 8-3-1h-5-4l-13 2v-13-4l12-2h5l1 4 4-1v-5l-4-1z"/>
		<path id="Path 634" class="s95" d="m534 556v-4h5v3z"/>
		<path id="Path 635" class="s38" d="m662 562l1-8 11-2h8l6 6-4 8-8 2h-8v-4z"/>
		<path id="Path 636" class="s21" d="m715 554l2-1-5 5z"/>
		<path id="Path 637" class="s10" d="m444 558l3-4h9l2 4v8l-12 2-2-2z"/>
		<path id="Path 638" class="s6" d="m484 568l-5-7v-7h3l6 6h6l3-4 9 2 12-2 2 1v9h-6z"/>
		<path id="Path 639" class="s95" d="m556 560l24-6 6 2v10h-9l-3 7h-14l-4-3z"/>
		<path id="Path 640" class="s90" d="m704 558l11-4-3 4-6 3z"/>
		<path id="Path 641" class="s82" d="m328 560l9-5 2 3h7l4 6v4l-24-2v-4z"/>
		<path id="Path 642" class="s33" d="m534 556l5-1 17 5v10l-15 3-11-1-10-6v-9z"/>
		<path id="Path 643" class="s29" d="m598 558l12-2h4l2 6v4h-14l-4-1z"/>
		<path id="Path 644" class="s4" d="m424 566l1-9 7 1v8z"/>
		<path id="Path 645" class="s91" d="m209 564l2-6h5 2v6l-9 1z"/>
		<path id="Path 646" class="s55" d="m432 566v-8h12v8h-6z"/>
		<path id="Path 647" class="s6" d="m458 566v-8h5l1 5-1 3z"/>
		<path id="Path 648" class="s65" d="m676 568l8-2 4-8h6v9l-4 4v5l-4 1-10-3z"/>
		<path id="Path 649" class="s5" d="m694 567v-9h10l2 3-4 4v1l-5 1z"/>
		<path id="Path 650" class="s0" d="m706 561l6-3-6 7h-4z"/>
		<path id="Path 651" class="s55" d="m104 565v-5l20 2h10 4l-1 13-11-2h-2l-11-3-3-1-5-2z"/>
		<path id="Path 652" class="s82" d="m390 563l2-3h8l6 6h18 8 6v6l-3 10-7-2-26-2-7-2z"/>
		<path id="Path 653" class="s11" d="m616 562l20-2 2 4v4h-4-14l-4-2z"/>
		<path id="Path 654" class="s23" d="m92 563v-2l12 4 1 2v1z"/>
		<path id="Path 655" class="s4" d="m137 575l1-13h10 4l8 9-1 5h-12z"/>
		<path id="Path 656" class="s90" d="m174 578l1-12 7-4 15 2 1 4h10l1-3 9-1 5 5v4l-8 9h-2-12l-3-1h-7-4l-13-2z"/>
		<path id="Path 657" class="s96" d="m276 564l27-2 1 6-6 3-18 2-10 1 2-10z"/>
		<path id="Path 658" class="s74" d="m316 564v-2h10v4h-8z"/>
		<path id="Path 659" class="s51" d="m651 565l11-3 6 2v4l-2 5-10 2-4-3z"/>
		<path id="Path 660" class="s80" d="m376 567l3-4h5 6l5 13-4-1-7-2h-3-1z"/>
		<path id="Path 661" class="s90" d="m463 566l1-3 4 1v5l-4 1z"/>
		<path id="Path 662" class="s5" d="m209 565l-1 3h-10l-1-4h12z"/>
		<path id="Path 663" class="s4" d="m308 568l2-4h6l2 2v4h-8z"/>
		<path id="Path 664" class="s84" d="m350 568v-4h6l4 7-10 4z"/>
		<path id="Path 665" class="s49" d="m638 568v-4l13 1 1 7 4 3-8 4-6-1 2-8z"/>
		<path id="Path 666" class="s49" d="m586 566l12-1 4 1v8h-9l-7 5-12-3v-3l3-7z"/>
		<path id="Path 667" class="s97" d="m223 569l11-3h4l2 18h-6-6-2v-8l-3-3z"/>
		<path id="Path 668" class="s92" d="m240 584l-2-18h8l6 5 6 5 2 7-8 1z"/>
		<path id="Path 669" class="s55" d="m318 570v-4h8l24 2v7l-15 1-6 4-7-2v-6z"/>
		<path id="Path 670" class="s74" d="m438 572v-6h6l2 2v4z"/>
		<path id="Path 671" class="s33" d="m484 568l30-2-2 14h-12l-12-2-4-2z"/>
		<path id="Path 672" class="s95" d="m512 580l2-14h6l10 6v6l-8 2h-8z"/>
		<path id="Path 673" class="s38" d="m602 574v-8h14l4 2v10l5 3-2 3h-15v-5z"/>
		<path id="Path 674" class="s0" d="m697 567l5-1-4 2 1 2h-1z"/>
		<path id="Path 675" class="s34" d="m105 568v-1l5 2h-4z"/>
		<path id="Path 676" class="s93" d="m369 568l7-1 4 6-10 3-6 2h-7l-9 1-4 4-7 2-15 1h-4l-1-2v-6h5l7 2 6-4 15-1 10-4h7z"/>
		<path id="Path 677" class="s90" d="m690 576v-5l4-4h3l1 3 1 5-2 1z"/>
		<path id="Path 678" class="s96" d="m252 571l9-3 3 6v1l-6 1z"/>
		<path id="Path 679" class="s10" d="m298 571l6-3h4l2 2v8l-9 1z"/>
		<path id="Path 680" class="s62" d="m625 581l-5-3v-10h14v7l3 3z"/>
		<path id="Path 681" class="s32" d="m637 578l-3-3v-7h4l6 2-2 8z"/>
		<path id="Path 682" class="s11" d="m666 573l2-5h8v6h-8z"/>
		<path id="Path 683" class="s31" d="m113 570l-7-1h4z"/>
		<path id="Path 684" class="s18" d="m310 578v-8h8l4 2v6h-5z"/>
		<path id="Path 685" class="s49" d="m541 573l15-3 4 3v15h-9l-2 6h-18l-9-7v-7l8-2 5 2 5-2z"/>
		<path id="Path 686" class="s9" d="m699 575l-1-5h1l2 5z"/>
		<path id="Path 687" class="s6" d="m280 573l18-2 3 8v1l-9 1-2 3-9-1h-1v-1z"/>
		<path id="Path 688" class="s90" d="m435 582l3-10h8v13h-3l-7-2h-1z"/>
		<path id="Path 689" class="s29" d="m530 578v-6l11 1-1 5-5 2z"/>
		<path id="Path 690" class="s3" d="m147 578l-21-5 11 2 10 1z"/>
		<path id="Path 691" class="s92" d="m215 582l8-9 3 3v8l-5-1h-5z"/>
		<path id="Path 692" class="s5" d="m270 574l10-1v9h-16v-7-1z"/>
		<path id="Path 693" class="s21" d="m370 576l10-3h1z"/>
		<path id="Path 694" class="s44" d="m560 588v-15h14v3 12h-2l-6 1z"/>
		<path id="Path 695" class="s90" d="m656 575l10-2 2 1v7l-12-1-4 3-3 1-1-5z"/>
		<path id="Path 696" class="s44" d="m586 579l7-5h9l6 5v5l-5 2h-7-9z"/>
		<path id="Path 697" class="s8" d="m668 581v-7h8l10 3-2 3-15 1z"/>
		<path id="Path 698" class="s90" d="m258 576l6-1v7 1h-3-1z"/>
		<path id="Path 699" class="s9" d="m402 578l-11-3 4 1z"/>
		<path id="Path 700" class="s9" d="m697 576l2-1-2 2z"/>
		<path id="Path 701" class="s23" d="m147 578v-2h12l1 2z"/>
		<path id="Path 702" class="s6" d="m471 584l4-8h9l4 2v7l-9 5z"/>
		<path id="Path 703" class="s27" d="m574 588v-12l12 3 1 7z"/>
		<path id="Path 704" class="s7" d="m686 577l4-1h7v1l-13 3z"/>
		<path id="Path 705" class="s7" d="m174 580l-11-2h11v1z"/>
		<path id="Path 706" class="s98" d="m301 579l9-1h7v6h-15l-1-4z"/>
		<path id="Path 707" class="s88" d="m344 583l4-4 9-1z"/>
		<path id="Path 708" class="s29" d="m488 585v-7l12 2v11l-6-1z"/>
		<path id="Path 709" class="s97" d="m625 581l12-3h5l6 1 1 5v1l-2 2-5 1-18 2-1-6z"/>
		<path id="Path 710" class="s1" d="m174 580v-1l13 2v1z"/>
		<path id="Path 711" class="s92" d="m290 584l2-3 9-1 1 4-2 2h-3-7z"/>
		<path id="Path 712" class="s14" d="m435 583l-7-3 7 2z"/>
		<path id="Path 713" class="s49" d="m500 591v-11h12 2l-1 13h-9z"/>
		<path id="Path 714" class="s29" d="m513 593l1-13h8v7l9 7-2 5h-9z"/>
		<path id="Path 715" class="s31" d="m652 583l4-3 12 1h1v1z"/>
		<path id="Path 716" class="s14" d="m669 581l15-1-3 3-12-1z"/>
		<path id="Path 717" class="s31" d="m187 582v-1h4v1z"/>
		<path id="Path 718" class="s57" d="m191 582v-1h7v1z"/>
		<path id="Path 719" class="s30" d="m198 582v-1l3 1v1z"/>
		<path id="Path 720" class="s14" d="m201 583v-1h12v1z"/>
		<path id="Path 721" class="s31" d="m213 583v-1h2l1 1z"/>
		<path id="Path 722" class="s57" d="m264 583v-1h16v1z"/>
		<path id="Path 723" class="s0" d="m228 585l-7-2 5 1h2z"/>
		<path id="Path 724" class="s21" d="m252 584l8-1h1l-9 2z"/>
		<path id="Path 725" class="s3" d="m290 586l-9-3 9 1z"/>
		<path id="Path 726" class="s31" d="m446 585l13-2-5 4-11-2z"/>
		<path id="Path 727" class="s7" d="m481 593l-8-3-5-7 3 1 8 6z"/>
		<path id="Path 728" class="s9" d="m649 584l3-1-3 2z"/>
		<path id="Path 729" class="s21" d="m228 585v-1h6v1z"/>
		<path id="Path 730" class="s3" d="m234 585v-1h6v1z"/>
		<path id="Path 731" class="s24" d="m240 585v-1h12v1z"/>
		<path id="Path 732" class="s88" d="m300 586l2-2h15l1 2z"/>
		<path id="Path 733" class="s92" d="m603 586l5-2h15l1 6-20 2z"/>
		<path id="Path 734" class="s9" d="m322 586l15-1-15 2z"/>
		<path id="Path 735" class="s33" d="m479 590l9-5 6 5-5 6-8-3z"/>
		<path id="Path 736" class="s9" d="m297 587l-7-1h7z"/>
		<path id="Path 737" class="s61" d="m297 587v-1h3 18 4v1z"/>
		<path id="Path 738" class="s93" d="m574 588l13-2h9v8l-11 2-10 1-3-9z"/>
		<path id="Path 739" class="s96" d="m596 594v-8h7l1 6-1 1h-2z"/>
		<path id="Path 740" class="s90" d="m549 594l2-6h9l6 1-7 6z"/>
		<path id="Path 741" class="s92" d="m566 589l6-1 3 9-3 5h-7l-6-1v-6z"/>
		<path id="Path 742" class="s31" d="m624 590l18-2-13 4-26 1 1-1z"/>
		<path id="Path 743" class="s90" d="m489 596l5-6 6 1 4 2v10h-1-1l-9-3-3-2z"/>
		<path id="Path 744" class="s9" d="m490 598l-9-5 8 3z"/>
		<path id="Path 745" class="s5" d="m504 603v-10h9l7 6-2 7h-4l-3-1h-2z"/>
		<path id="Path 746" class="s97" d="m520 599h9l2-5h18l10 1v6h-1-3v3l-21 1h-2l-2 1h-12z"/>
		<path id="Path 747" class="s9" d="m575 597l10-1-9 1v4l-4 2v-1z"/>
		<path id="Path 748" class="s21" d="m534 605l21-1v-3h3v1l-2 3z"/>
		<path id="Path 749" class="s30" d="m558 602v-1h1l6 1v1z"/>
		<path id="Path 750" class="s57" d="m565 603v-1h7v1z"/>
		<path id="Path 751" class="s14" d="m509 605l-6-2h1z"/>
		<path id="Path 752" class="s30" d="m511 607v-2l3 1v1z"/>
		<path id="Path 753" class="s0" d="m530 606l2-1v2h-2z"/>
		<path id="Path 754" class="s21" d="m514 607v-1h4 12v1z"/>
	</g>
</svg>