<svg version="1.2" xmlns="http://www.w3.org/2000/svg" viewBox="0 0 1000 1000" width="1000" height="1000">
	<title>Notemigonus_crysoleucas</title>
	<style>
		.s0 { fill: #575953 } 
		.s1 { fill: #46403a } 
		.s2 { fill: #423a2a } 
		.s3 { fill: #736a56 } 
		.s4 { fill: #585c5f } 
		.s5 { fill: #5e5f58 } 
		.s6 { fill: #666b70 } 
		.s7 { fill: #5f6164 } 
		.s8 { fill: #7c8386 } 
		.s9 { fill: #777468 } 
		.s10 { fill: #7b7259 } 
		.s11 { fill: #625b4b } 
		.s12 { fill: #585547 } 
		.s13 { fill: #6f6d5f } 
		.s14 { fill: #767b80 } 
		.s15 { fill: #534e3f } 
		.s16 { fill: #818078 } 
		.s17 { fill: #999589 } 
		.s18 { fill: #938d82 } 
		.s19 { fill: #aaa499 } 
		.s20 { fill: #9d9f99 } 
		.s21 { fill: #676457 } 
		.s22 { fill: #514831 } 
		.s23 { fill: #bbb8b3 } 
		.s24 { fill: #b6a78c } 
		.s25 { fill: #a39b8e } 
		.s26 { fill: #3e3f36 } 
		.s27 { fill: #c6bbac } 
		.s28 { fill: #d7cab8 } 
		.s29 { fill: #73684a } 
		.s30 { fill: #3f4443 } 
		.s31 { fill: #cdc4b7 } 
		.s32 { fill: #e6d7c3 } 
		.s33 { fill: #e3d6cd } 
		.s34 { fill: #4d5048 } 
		.s35 { fill: #484942 } 
		.s36 { fill: #d7cdc5 } 
		.s37 { fill: #6f613c } 
		.s38 { fill: #afb1ad } 
		.s39 { fill: #a39575 } 
		.s40 { fill: #656864 } 
		.s41 { fill: #847a65 } 
		.s42 { fill: #615537 } 
		.s43 { fill: #cec0a9 } 
		.s44 { fill: #f2e1d4 } 
		.s45 { fill: #c3beba } 
		.s46 { fill: #d5c6ad } 
		.s47 { fill: #b5aa99 } 
		.s48 { fill: #6a624a } 
		.s49 { fill: #c8b79a } 
		.s50 { fill: #777973 } 
		.s51 { fill: #6d7068 } 
		.s52 { fill: #958560 } 
		.s53 { fill: #7c6f4d } 
		.s54 { fill: #fef0dd } 
		.s55 { fill: #999994 } 
		.s56 { fill: #eddfcd } 
		.s57 { fill: #2d2b23 } 
		.s58 { fill: #b3a379 } 
		.s59 { fill: #f9e9d7 } 
		.s60 { fill: #dcd4c7 } 
		.s61 { fill: #fae1b9 } 
		.s62 { fill: #eeddc5 } 
		.s63 { fill: #aca18a } 
		.s64 { fill: #353836 } 
		.s65 { fill: #d6bb70 } 
		.s66 { fill: #cbc9c5 } 
		.s67 { fill: #ded0b9 } 
		.s68 { fill: #bfb08b } 
		.s69 { fill: #e5cfa3 } 
		.s70 { fill: #ababa2 } 
		.s71 { fill: #b5ada4 } 
		.s72 { fill: #bab4a8 } 
		.s73 { fill: #6d7377 } 
		.s74 { fill: #8d8775 } 
		.s75 { fill: #a3a19f } 
		.s76 { fill: #f5e4cd } 
		.s77 { fill: #e1cec3 } 
		.s78 { fill: #888983 } 
		.s79 { fill: #8e918e } 
		.s80 { fill: #e7dbd0 } 
		.s81 { fill: #4f5354 } 
		.s82 { fill: #6f6e71 } 
		.s83 { fill: #bfc2c1 } 
	</style>
	<g id="Background">
		<path id="Path 0" class="s0" d="m456.7 611.7l11.6-3.4 5 1.7v8.3z"/>
		<path id="Path 1" class="s1" d="m453.3 610l3.4-6.7 10 1.7 1.6 3.3-11.6 3.4z"/>
		<path id="Path 2" class="s2" d="m425 595l5-6.7 20 10 6.7 5-3.4 6.7-25-11.7-1.6-1.6z"/>
		<path id="Path 3" class="s3" d="m426.7 596.7h1.6v1.6h-1.6zm-1.7-1.6h1.7v1.6h-1.7z"/>
		<path id="Path 4" class="s4" d="m626.7 593.3v-6.6h13.3v8.3z"/>
		<path id="Path 5" class="s5" d="m613.3 590l6.7-3.3h6.7v6.6z"/>
		<path id="Path 6" class="s6" d="m466.7 605l3.3-18.3h16.7l1.6 5 10-3.4 5 21.7-8.3 3.3-1.7 8.4-20-3.4v-8.3l-5-1.7z"/>
		<path id="Path 7" class="s7" d="m486.7 583.3l8.3-1.6 3.3 6.6-10 3.4-1.6-5z"/>
		<path id="Path 8" class="s8" d="m640 586.7v-8.4l15 16.7h-15z"/>
		<path id="Path 9" class="s9" d="m450 598.3v-23.3h10l10 1.7v10l-3.3 18.3-10-1.7z"/>
		<path id="Path 10" class="s10" d="m430 588.3l1.7-15h8.3l10 1.7v23.3z"/>
		<path id="Path 11" class="s11" d="m351.7 575l6.6-1.7 8.4 3.4v6.6l-15-1.6z"/>
		<path id="Path 12" class="s12" d="m345 581.7v-8.4l6.7 1.7v6.7z"/>
		<path id="Path 13" class="s13" d="m333.3 580v-6.7h11.7v8.4z"/>
		<path id="Path 14" class="s0" d="m486.7 573.3l13.3-1.6h6.7l3.3 6.6-15 3.4-8.3 1.6z"/>
		<path id="Path 15" class="s14" d="m470 576.7v-5h13.3l3.4 1.6v10 3.4h-16.7z"/>
		<path id="Path 16" class="s9" d="m370 573.3l15-1.6h11.7l6.6 1.6 1.7 13.4-38.3-3.4v-6.6z"/>
		<path id="Path 17" class="s15" d="m506.7 571.7l1.6-1.7h6.7l1.7 8.3h-6.7z"/>
		<path id="Path 18" class="s16" d="m460 575l3.3-5 6.7 1.7v5z"/>
		<path id="Path 19" class="s3" d="m403.3 573.3l3.4-6.6h15l10 6.6-1.7 15-5 6.7-20-8.3z"/>
		<path id="Path 20" class="s9" d="m296.7 566.7l20-1.7 16.6 8.3v6.7l-46.6-8.3 1.6-5z"/>
		<path id="Path 21" class="s0" d="m896.7 571.7v-8.4h10v10z"/>
		<path id="Path 22" class="s6" d="m620 586.7v-23.4h5l15 8.4v6.6 8.4h-13.3z"/>
		<path id="Path 23" class="s17" d="m360 566.7l10-3.4v10l-3.3 3.4-8.4-3.4z"/>
		<path id="Path 24" class="s18" d="m500 571.7v-10l8.3 1.6v6.7l-1.6 1.7z"/>
		<path id="Path 25" class="s19" d="m440 573.3v-11.6l6.7 1.6 16.6 3.4v3.3l-3.3 5h-10z"/>
		<path id="Path 26" class="s12" d="m593.3 585l3.4-25h16.6l6.7 3.3v23.4l-6.7 3.3z"/>
		<path id="Path 27" class="s20" d="m483.3 571.7v-11.7l16.7 1.7v10l-13.3 1.6z"/>
		<path id="Path 28" class="s18" d="m421.7 563.3l18.3-1.6v11.6h-8.3l-10-6.6z"/>
		<path id="Path 29" class="s20" d="m370 563.3l10-3.3 5 11.7-15 1.6z"/>
		<path id="Path 30" class="s21" d="m906.7 553.3v10h-10v-10z"/>
		<path id="Path 31" class="s22" d="m555 556.7l15-3.4h13.3l3.4 21.7-6.7 5-23.3-8.3z"/>
		<path id="Path 32" class="s21" d="m540 563.3v-10h3.3z"/>
		<path id="Path 33" class="s12" d="m543.3 553.3l11.7-1.6v5l1.7 15-15-5-1.7-3.4z"/>
		<path id="Path 34" class="s9" d="m515 570l1.7-11.7 11.6 1.7 1.7-8.3 10 1.6v10l1.7 3.4-10 1.6-5 10h-10z"/>
		<path id="Path 35" class="s15" d="m583.3 553.3l6.7-3.3h6.7v10l-3.4 25-13.3-5 6.7-5z"/>
		<path id="Path 36" class="s23" d="m463.3 551.7l6.7-3.4 13.3 11.7v11.7h-13.3l-6.7-1.7v-3.3z"/>
		<path id="Path 37" class="s24" d="m296.7 566.7l-3.4-20 23.4 1.6v16.7z"/>
		<path id="Path 38" class="s25" d="m271.7 566.7l6.6-20h15l3.4 20h-8.4l-1.6 5z"/>
		<path id="Path 39" class="s26" d="m596.7 543.3v6.7h-6.7v-6.7z"/>
		<path id="Path 40" class="s11" d="m571.7 546.7l10-3.4h8.3v6.7l-6.7 3.3h-13.3z"/>
		<path id="Path 41" class="s3" d="m555 551.7l13.3-8.4 3.4 3.4-1.7 6.6-15 3.4z"/>
		<path id="Path 42" class="s27" d="m396.7 571.7l-6.7-28.4h6.7l13.3 3.4 11.7 16.6v3.4h-15l-3.4 6.6z"/>
		<path id="Path 43" class="s19" d="m318.3 546.7l6.7-5 10 3.3 1.7 8.3h6.6l16.7 13.4-1.7 6.6-6.6 1.7-6.7-1.7h-11.7l-16.6-8.3v-16.7z"/>
		<path id="Path 44" class="s21" d="m208.3 546.7l11.7-6.7h6.7l20 1.7 1.6 18.3z"/>
		<path id="Path 45" class="s1" d="m596.7 543.3l18.3-5-1.7 21.7h-16.6v-10z"/>
		<path id="Path 46" class="s5" d="m896.7 553.3l-6.7-6.6v-10h6.7l10 5v11.6z"/>
		<path id="Path 47" class="s28" d="m343.3 553.3l3.4-16.6h23.3l20 6.6 6.7 28.4h-11.7l-5-11.7-10 3.3-10 3.4z"/>
		<path id="Path 48" class="s29" d="m246.7 541.7v-5h13.3l6.7 3.3v8.3l-6.7 15-11.7-3.3z"/>
		<path id="Path 49" class="s30" d="m666.7 543.3l-5-1.6v-6.7l10 1.7z"/>
		<path id="Path 50" class="s31" d="m443.3 536.7l11.7-1.7 1.7 13.3 6.6 3.4v15l-16.6-3.4-3.4-23.3z"/>
		<path id="Path 51" class="s12" d="m858.3 558.3l5-6.6v-18.4l26.7 3.4v10l6.7 6.6v10 8.4z"/>
		<path id="Path 52" class="s32" d="m455 535l1.7-1.7h20l-6.7 15-6.7 3.4-6.6-3.4z"/>
		<path id="Path 53" class="s33" d="m410 546.7l3.3-13.4 30 6.7 3.4 23.3-6.7-1.6-18.3 1.6z"/>
		<path id="Path 54" class="s34" d="m615 538.3l5-8.3h6.7 6.6l1.7 20 11.7 5v6.7l-21.7 1.6h-5l-6.7-3.3z"/>
		<path id="Path 55" class="s7" d="m896.7 536.7l1.6-8.4 33.4 21.7 15 16.7-3.4 8.3-8.3 1.7-28.3-3.4v-10-10-11.6z"/>
		<path id="Path 56" class="s19" d="m288.3 533.3l1.7-5h5l-3.3 6.7z"/>
		<path id="Path 57" class="s15" d="m198.3 530l15-1.7h5l1.7 11.7-11.7 6.7-13.3-5z"/>
		<path id="Path 58" class="s31" d="m476.7 533.3l10-6.6 30 1.6 6.6 6.7 6.7 16.7-1.7 8.3-11.6-1.7-1.7 11.7h-6.7v-6.7l-8.3-1.6-16.7-1.7-13.3-11.7z"/>
		<path id="Path 59" class="s13" d="m218.3 528.3l1.7-1.6 6.7 3.3v10h-6.7z"/>
		<path id="Path 60" class="s35" d="m633.3 530l20-5 8.4 10v6.7l5 1.6-11.7 16.7-8.3 1.7v-6.7l-11.7-5z"/>
		<path id="Path 61" class="s36" d="m281.7 528.3l5-3.3 3.3 3.3-1.7 5z"/>
		<path id="Path 62" class="s35" d="m180 536.7v-11.7l11.7 1.7 6.6 3.3-3.3 11.7z"/>
		<path id="Path 63" class="s37" d="m246.7 536.7l-5-5 1.6-13.4h6.7l10 8.4v10z"/>
		<path id="Path 64" class="s15" d="m163.3 516.7l11.7-1.7 5 10v11.7l-21.7-10 1.7-10z"/>
		<path id="Path 65" class="s35" d="m696.7 523.3l1.6-10h11.7v8.4z"/>
		<path id="Path 66" class="s38" d="m541.7 515l11.6-1.7 18.4 13.4h10l3.3 6.6-3.3 10-10 3.4-3.4-3.4-13.3 8.4-11.7 1.6h-3.3l-10-1.6-6.7-16.7 5-15z"/>
		<path id="Path 67" class="s36" d="m320 516.7v-3.4h16.7l10 10v13.4l-3.4 16.6h-6.6l-1.7-8.3-10-3.3z"/>
		<path id="Path 68" class="s15" d="m710 513.3l1.7-1.6h3.3l16.7 1.6h5v8.4h-26.7z"/>
		<path id="Path 69" class="s39" d="m220 526.7l10-15 13.3 6.6-1.6 13.4 5 5v5l-20-1.7v-10z"/>
		<path id="Path 70" class="s5" d="m628.3 513.3l5 1.7 3.4-5 6.6 1.7 10 1.6v11.7l-20 5h-6.6z"/>
		<path id="Path 71" class="s40" d="m616.7 513.3l1.6-3.3 10 3.3-1.6 16.7h-6.7z"/>
		<path id="Path 72" class="s31" d="m286.7 515l10-5h10l13.3 6.7 5 25-6.7 5-26.6-11.7 3.3-6.7h-5l-3.3-3.3z"/>
		<path id="Path 73" class="s41" d="m250 518.3l6.7-8.3 10 5 15 13.3 6.6 5 3.4 1.7 26.6 11.7-1.6 1.6-23.4-1.6h-15l-6.6 20-11.7-3.4 6.7-15v-8.3l-6.7-3.3v-10z"/>
		<path id="Path 74" class="s42" d="m736.7 513.3l26.6-5v10l11.7 8.4v6.6l-38.3-11.6z"/>
		<path id="Path 75" class="s19" d="m516.7 528.3l-6.7-8.3 3.3-13.3h6.7l6.7 1.6 1.6 11.7-5 15z"/>
		<path id="Path 76" class="s43" d="m386.7 510l11.6-3.3h8.4l6.6 26.6-3.3 13.4-13.3-3.4z"/>
		<path id="Path 77" class="s1" d="m686.7 506.7l6.6-1.7 5 8.3-1.6 10h-15l-10 13.4-10-1.7-8.4-10v-11.7l8.4-5 13.3 5h8.3z"/>
		<path id="Path 78" class="s5" d="m675 513.3l3.3-8.3h6.7l1.7 1.7-3.4 6.6z"/>
		<path id="Path 79" class="s19" d="m553.3 513.3v-10h18.4l10 13.4v10h-10z"/>
		<path id="Path 80" class="s18" d="m541.7 515l1.6-11.7h10v10z"/>
		<path id="Path 81" class="s33" d="m306.7 510v-6.7h3.3l10 3.4v6.6 3.4z"/>
		<path id="Path 82" class="s13" d="m693.3 505l6.7-3.3h3.3l8.4 10-1.7 1.6h-11.7z"/>
		<path id="Path 83" class="s44" d="m406.7 501.7v5h-8.4v-5z"/>
		<path id="Path 84" class="s45" d="m148.3 511.7l8.4-10h1.6l1.7 1.6 3.3 13.4h-3.3z"/>
		<path id="Path 85" class="s11" d="m846.7 513.3h-13.4l-3.3-13.3 21.7 1.7v5z"/>
		<path id="Path 86" class="s42" d="m850 523.3l-13.3 3.4-11.7-5-8.3-8.4v-13.3h13.3l3.3 13.3h13.4z"/>
		<path id="Path 87" class="s19" d="m703.3 501.7l1.7-1.7h5l6.7 3.3-1.7 8.4h-3.3z"/>
		<path id="Path 88" class="s16" d="m571.7 503.3l1.6-3.3 20 3.3h5l1.7 8.4 16.7 1.6 3.3 16.7-5 8.3-18.3 5h-6.7-8.3l3.3-10-3.3-6.6v-10z"/>
		<path id="Path 89" class="s32" d="m406.7 501.7l3.3-1.7 20 3.3 6.7 13.4v15l6.6 5v3.3l-30-6.7-6.6-26.6z"/>
		<path id="Path 90" class="s46" d="m386.7 510l1.6-10 10 1.7v5z"/>
		<path id="Path 91" class="s47" d="m213.3 510l3.4-10 8.3 1.7 5 10-10 15-1.7 1.6h-5z"/>
		<path id="Path 92" class="s38" d="m158.3 501.7v-1.7h3.4l-1.7 3.3z"/>
		<path id="Path 93" class="s16" d="m143.3 503.3v-3.3l13.4 1.7-8.4 10-5-1.7z"/>
		<path id="Path 94" class="s19" d="m175 503.3l5-5h5l3.3 1.7 3.4 26.7-11.7-1.7-5-10-3.3-3.3z"/>
		<path id="Path 95" class="s1" d="m115 503.3l6.7-5 21.6 5v6.7l5 1.7 11.7 5-1.7 10-33.3-13.4z"/>
		<path id="Path 96" class="s40" d="m851.7 506.7h8.3l3.3-10 35 31.6-1.6 8.4h-6.7l-26.7-3.4-13.3-10-3.3-10z"/>
		<path id="Path 97" class="s18" d="m661.7 503.3l8.3-6.6h3.3l11.7 8.3h-6.7l-3.3 8.3-13.3-5z"/>
		<path id="Path 98" class="s17" d="m636.7 510l-1.7-13.3h11.7l-3.4 15z"/>
		<path id="Path 99" class="s19" d="m616.7 501.7l5-5h11.6 1.7l1.7 13.3-3.4 5-5-1.7-10-3.3z"/>
		<path id="Path 100" class="s46" d="m456.7 533.3v-8.3l-6.7-5v-23.3h10l16.7 3.3 10 15v11.7l-10 6.6z"/>
		<path id="Path 101" class="s11" d="m716.7 503.3l6.6-8.3 8.4 18.3-16.7-1.6z"/>
		<path id="Path 102" class="s16" d="m646.7 496.7v-1.7h6.6l8.4 8.3v5l-8.4 5-10-1.6z"/>
		<path id="Path 103" class="s44" d="m161.7 500l6.6-5 6.7 8.3-3.3 8.4 3.3 3.3-11.7 1.7-3.3-13.4z"/>
		<path id="Path 104" class="s48" d="m710 500l3.3-6.7 3.4 10z"/>
		<path id="Path 105" class="s27" d="m520 506.7l3.3-13.4h3.4l15 5 1.6 5-1.6 11.7-13.4 5-1.6-11.7z"/>
		<path id="Path 106" class="s28" d="m513.3 506.7v-13.4h10l-3.3 13.4z"/>
		<path id="Path 107" class="s32" d="m336.7 513.3v-20h6.6 10 10l1.7 20-1.7 5 6.7 6.7v11.7h-23.3v-13.4z"/>
		<path id="Path 108" class="s49" d="m225 501.7l3.3-8.4h8.4l11.6 1.7v10l8.4 5-6.7 8.3h-6.7l-13.3-6.6z"/>
		<path id="Path 109" class="s7" d="m851.7 501.7l8.3-10 3.3 5-3.3 10h-8.3z"/>
		<path id="Path 110" class="s27" d="m633.3 496.7v-5l13.4 3.3v1.7h-11.7z"/>
		<path id="Path 111" class="s49" d="m188.3 500l1.7-6.7 6.7-1.6-1.7 16.6 18.3 1.7v18.3l-15 1.7-6.6-3.3z"/>
		<path id="Path 112" class="s15" d="m138.3 495l1.7-3.3 10 1.6 8.3 3.4v3.3 1.7h-1.6l-13.4-1.7z"/>
		<path id="Path 113" class="s3" d="m770 498.3l-5 5-11.7-3.3-1.6-11.7 15 5z"/>
		<path id="Path 114" class="s50" d="m705 500l-1.7-11.7h8.4l1.6 5-3.3 6.7z"/>
		<path id="Path 115" class="s28" d="m248.3 491.7l5-3.4 13.4 13.4v13.3l-10-5-8.4-5v-10z"/>
		<path id="Path 116" class="s7" d="m700 501.7l-8.3-10 1.6-5 10 1.6 1.7 11.7-1.7 1.7z"/>
		<path id="Path 117" class="s51" d="m593.3 503.3v-16.6h1.7l5 1.6-1.7 15z"/>
		<path id="Path 118" class="s52" d="m236.7 493.3v-6.6l11.6 5v3.3z"/>
		<path id="Path 119" class="s53" d="m185 498.3l3.3-11.6h10l-1.6 5-6.7 1.6-1.7 6.7z"/>
		<path id="Path 120" class="s54" d="m171.7 488.3l3.3-1.6 5 11.6-5 5-6.7-8.3z"/>
		<path id="Path 121" class="s0" d="m158.3 496.7l8.4-10h1.6l3.4 1.6-3.4 6.7-6.6 5h-3.4z"/>
		<path id="Path 122" class="s55" d="m103.3 493.3l-8.3-8.3 5 3.3z"/>
		<path id="Path 123" class="s18" d="m595 486.7l5-3.4h10l6.7 18.4 1.6 8.3-1.6 3.3-16.7-1.6-1.7-8.4 1.7-15z"/>
		<path id="Path 124" class="s32" d="m460 496.7l1.7-13.4 15 3.4v13.3z"/>
		<path id="Path 125" class="s2" d="m100 488.3l8.3-5 13.4 15-6.7 5-11.7-10z"/>
		<path id="Path 126" class="s56" d="m410 483.3l16.7-3.3 13.3 5 10 11.7v23.3l6.7 5v8.3l-1.7 1.7-11.7 1.7-6.6-5v-15l-6.7-13.4-20-3.3z"/>
		<path id="Path 127" class="s47" d="m150 488.3l8.3-8.3h1.7l6.7 6.7-8.4 10-8.3-3.4z"/>
		<path id="Path 128" class="s44" d="m343.3 493.3l3.4-15h5l1.6 15z"/>
		<path id="Path 129" class="s13" d="m811.7 486.7l3.3-10h10l5 6.6v16.7h-13.3v-10z"/>
		<path id="Path 130" class="s2" d="m766.7 493.3v-16.6h6.6l25 33.3-1.6 13.3-21.7 3.4-11.7-8.4v-10l6.7-1.6v-8.4z"/>
		<path id="Path 131" class="s17" d="m723.3 495l3.4-18.3h3.3l8.3 8.3 13.4 1.7v1.6l1.6 11.7 11.7 3.3 5-5v8.4l-6.7 1.6-26.6 5h-5z"/>
		<path id="Path 132" class="s29" d="m670 496.7l-5-20 10 8.3-1.7 11.7z"/>
		<path id="Path 133" class="s57" d="m141.7 478.3l16.6-1.6v3.3l-8.3 8.3z"/>
		<path id="Path 134" class="s28" d="m306.7 503.3l-6.7-16.6 1.7-11.7h5l5 1.7-1.7 26.6z"/>
		<path id="Path 135" class="s58" d="m140 491.7l-6.7-16.7 6.7 1.7 1.7 1.6 8.3 10v5z"/>
		<path id="Path 136" class="s0" d="m756.7 475l6.6-1.7 3.4 3.4v16.6l-15-5v-1.6z"/>
		<path id="Path 137" class="s59" d="m426.7 480v-6.7l13.3 5v6.7z"/>
		<path id="Path 138" class="s60" d="m351.7 478.3l3.3-5 8.3 3.4v16.6h-10z"/>
		<path id="Path 139" class="s59" d="m253.3 488.3l-1.6-15 8.3 1.7 16.7 6.7-1.7 13.3 11.7 20v10l-5 3.3-15-13.3v-13.3z"/>
		<path id="Path 140" class="s61" d="m198.3 486.7l1.7-8.4h8.3v-5l13.4 3.4 6.6 16.6-3.3 8.4-8.3-1.7-3.4 10-18.3-1.7 1.7-16.6z"/>
		<path id="Path 141" class="s62" d="m311.7 476.7l5-5 11.6 1.6 1.7 15 6.7 5v20h-16.7v-6.6l-10-3.4z"/>
		<path id="Path 142" class="s3" d="m108.3 483.3l-1.6-11.6h15l8.3 18.3 8.3 5 5 5v3.3l-21.6-5z"/>
		<path id="Path 143" class="s5" d="m825 476.7l1.7-6.7h6.6 13.4l8.3 10 5 11.7-8.3 10-21.7-1.7v-16.7z"/>
		<path id="Path 144" class="s42" d="m811.7 486.7h-13.4l-5-5v-11.7h16.7l5 6.7z"/>
		<path id="Path 145" class="s22" d="m773.3 476.7l1.7-6.7h11.7 6.6v11.7l5 5h13.4l5 3.3v10 13.3l8.3 8.4 11.7 5 13.3-3.4 13.3 10v18.4l-5 6.6-83.3-25v-6.6l21.7-3.4 1.6-13.3z"/>
		<path id="Path 146" class="s63" d="m648.3 473.3l5-3.3h8.4l3.3 6.7 5 20-8.3 6.6-8.4-8.3v-15z"/>
		<path id="Path 147" class="s59" d="m328.3 473.3l8.4-3.3 10 3.3v5l-3.4 15h-6.6l-6.7-5z"/>
		<path id="Path 148" class="s46" d="m225 473.3l5-3.3 5 8.3 1.7 8.4v6.6h-8.4l-6.6-16.6z"/>
		<path id="Path 149" class="s64" d="m141.7 471.7l15-1.7 1.6 6.7-16.6 1.6-1.7-1.6z"/>
		<path id="Path 150" class="s52" d="m156.7 470l5-1.7-1.7 11.7h-1.7v-3.3z"/>
		<path id="Path 151" class="s65" d="m133.3 475l1.7-6.7 6.7 3.4-1.7 5z"/>
		<path id="Path 152" class="s17" d="m691.7 475l6.6-8.3 8.4 3.3 5 18.3h-8.4l-10-1.6z"/>
		<path id="Path 153" class="s66" d="m286.7 471.7v-5h6.6l8.4 8.3-1.7 11.7 6.7 16.6v6.7h-10z"/>
		<path id="Path 154" class="s19" d="m251.7 473.3l-1.7-6.6h3.3l6.7 1.6v6.7z"/>
		<path id="Path 155" class="s9" d="m235 478.3l8.3-11.6h6.7l1.7 6.6 1.6 15-5 3.4-11.6-5z"/>
		<path id="Path 156" class="s67" d="m176.7 468.3l13.3-1.6h1.7l-3.4 20-3.3 11.6h-5l-5-11.6z"/>
		<path id="Path 157" class="s50" d="m168.3 486.7l3.4-6.7-3.4-13.3h5l3.4 1.6-1.7 18.4-3.3 1.6z"/>
		<path id="Path 158" class="s18" d="m726.7 476.7l-1.7-6.7 5-5 3.3 1.7-3.3 10z"/>
		<path id="Path 159" class="s11" d="m191.7 466.7l1.6-1.7 10 1.7 5 6.6v5h-8.3l-1.7 8.4h-10z"/>
		<path id="Path 160" class="s15" d="m763.3 465l3.4-1.7 8.3 6.7-1.7 6.7h-6.6l-3.4-3.4z"/>
		<path id="Path 161" class="s17" d="m751.7 475l5-11.7 6.6 1.7v8.3l-6.6 1.7z"/>
		<path id="Path 162" class="s24" d="m661.7 466.7l8.3-3.4h8.3l1.7 11.7h11.7l1.6 11.7-1.6 5 8.3 10-6.7 3.3-6.6 1.7-1.7-1.7-11.7-8.3 1.7-11.7-10-8.3-3.3-6.7z"/>
		<path id="Path 163" class="s27" d="m653.3 470v-6.7h6.7l1.7 3.4v3.3z"/>
		<path id="Path 164" class="s68" d="m600 466.7l6.7-3.4h6.6l1.7 15-5 5h-10z"/>
		<path id="Path 165" class="s46" d="m260 468.3l16.7-5 10 8.4 10 38.3-10 5-11.7-20 1.7-13.3-16.7-6.7z"/>
		<path id="Path 166" class="s69" d="m161.7 468.3v-5l6.6 3.4 3.4 13.3-3.4 6.7h-1.6l-6.7-6.7z"/>
		<path id="Path 167" class="s70" d="m95 463.3h1.7v1.7h-1.7z"/>
		<path id="Path 168" class="s47" d="m276.7 463.3v-1.6l8.3 3.3 1.7 1.7v5z"/>
		<path id="Path 169" class="s70" d="m96.7 461.7h1.6v1.6h-1.6z"/>
		<path id="Path 170" class="s29" d="m786.7 470l3.3-10h20v10h-16.7z"/>
		<path id="Path 171" class="s70" d="m733.3 466.7l3.4-6.7 10 15h5 5l-5 11.7-13.4-1.7-8.3-8.3z"/>
		<path id="Path 172" class="s21" d="m730 465v-5h6.7l-3.4 6.7z"/>
		<path id="Path 173" class="s27" d="m698.3 463.3l6.7-3.3 1.7 5v5l-8.4-3.3z"/>
		<path id="Path 174" class="s36" d="m586.7 461.7l1.6-1.7 11.7 6.7v16.6l-5 3.4h-1.7z"/>
		<path id="Path 175" class="s56" d="m306.7 475l-1.7-15h5 6.7v11.7l-5 5z"/>
		<path id="Path 176" class="s53" d="m135 468.3l8.3-8.3 18.4 3.3v5l-5 1.7-15 1.7z"/>
		<path id="Path 177" class="s71" d="m706.7 465l5-6.7 8.3 6.7 10-5v5l-5 5 1.7 6.7-3.4 18.3-6.6 8.3-3.4-10-1.6-5-5-18.3z"/>
		<path id="Path 178" class="s72" d="m613.3 463.3l3.4-5 10 3.4 6.6 30v5h-11.6l-5 5-6.7-18.4 5-5z"/>
		<path id="Path 179" class="s46" d="m513.3 493.3v-8.3l-6.6-6.7v-20h15l5 6.7v28.3h-3.4z"/>
		<path id="Path 180" class="s45" d="m285 465l5-6.7h3.3v8.4h-6.6z"/>
		<path id="Path 181" class="s9" d="m225 473.3l-10-15h5l8.3 3.4 1.7 8.3z"/>
		<path id="Path 182" class="s23" d="m173.3 466.7l1.7-8.4 15 8.4-13.3 1.6z"/>
		<path id="Path 183" class="s70" d="m101.7 458.3h1.6v1.7h-1.6z"/>
		<path id="Path 184" class="s73" d="m846.7 470v-13.3h13.3l8.3 1.6-13.3 21.7z"/>
		<path id="Path 185" class="s9" d="m833.3 470v-13.3h10 3.4v13.3z"/>
		<path id="Path 186" class="s45" d="m681.7 460l10-3.3 6.6 6.6v3.4l-6.6 8.3h-11.7l-1.7-11.7z"/>
		<path id="Path 187" class="s70" d="m670 463.3l8.3-6.6 3.4 3.3-3.4 3.3z"/>
		<path id="Path 188" class="s17" d="m653.3 463.3l-1.6-6.6h8.3v6.6z"/>
		<path id="Path 189" class="s74" d="m638.3 463.3l-5-6.6h6.7z"/>
		<path id="Path 190" class="s43" d="m626.7 461.7l3.3-5h3.3l5 6.6 10 10 5 6.7v15h-6.6l-13.4-3.3z"/>
		<path id="Path 191" class="s46" d="m316.7 460l1.6-3.3h6.7l11.7 13.3-8.4 3.3-11.6-1.6z"/>
		<path id="Path 192" class="s18" d="m203.3 466.7l1.7-10 10 1.6 10 15-3.3 3.4-13.4-3.4z"/>
		<path id="Path 193" class="s17" d="m253.3 466.7l1.7-11.7 21.7 1.7v5 1.6l-16.7 5z"/>
		<path id="Path 194" class="s3" d="m810 460l1.7-6.7h15l6.6 3.4v13.3h-6.6l-1.7 6.7h-10l-5-6.7z"/>
		<path id="Path 195" class="s75" d="m640 456.7l5-3.4 6.7 3.4 1.6 6.6v6.7l-5 3.3-10-10z"/>
		<path id="Path 196" class="s51" d="m586.7 461.7l-13.4-1.7v-6.7h3.4 6.6l5 3.4v3.3z"/>
		<path id="Path 197" class="s76" d="m443.3 455l8.4 3.3 5-5 3.3 5 5-1.6-3.3 26.6-1.7 13.4h-10l-10-11.7v-6.7z"/>
		<path id="Path 198" class="s46" d="m423.3 456.7l5-3.4 11.7 1.7h3.3l-3.3 23.3-13.3-5z"/>
		<path id="Path 199" class="s67" d="m355 455l8.3-1.7h6.7v10h6.7 13.3l15 20h5v16.7l-3.3 1.7h-8.4l-10-1.7-1.6 10 10 33.3h-6.7l-20-6.6v-11.7l-6.7-6.7 1.7-5-1.7-20v-16.6l-8.3-3.4z"/>
		<path id="Path 200" class="s10" d="m175 458.3l10-5 8.3 11.7-1.6 1.7h-1.7z"/>
		<path id="Path 201" class="s55" d="m588.3 456.7l6.7-5 11.7 1.6v10l-6.7 3.4-11.7-6.7z"/>
		<path id="Path 202" class="s43" d="m521.7 453.3l10-1.6h10l10 11.6h8.3l13.3 36.7-1.6 3.3h-18.4-10l-1.6-5-15-5v-28.3l-5-6.7z"/>
		<path id="Path 203" class="s77" d="m310 460v-8.3l6.7 1.6 1.6 3.4-1.6 3.3z"/>
		<path id="Path 204" class="s44" d="m293.3 458.3l6.7-6.6 5 8.3 1.7 15h-5l-8.4-8.3z"/>
		<path id="Path 205" class="s78" d="m606.7 453.3l5-3.3 5 3.3v5l-3.4 5h-6.6z"/>
		<path id="Path 206" class="s46" d="m390 450v13.3h-13.3v-13.3z"/>
		<path id="Path 207" class="s32" d="m370 453.3l3.3-3.3h3.4v13.3h-6.7z"/>
		<path id="Path 208" class="s79" d="m616.7 453.3l8.3-5 5 8.4-3.3 5-10-3.4z"/>
		<path id="Path 209" class="s25" d="m561.7 450l3.3-1.7 8.3 5v6.7l13.4 1.7 6.6 25v16.6l-20-3.3-13.3-36.7z"/>
		<path id="Path 210" class="s72" d="m541.7 451.7l1.6-3.4 18.4 1.7-1.7 13.3h-8.3z"/>
		<path id="Path 211" class="s32" d="m390 450l23.3-1.7 10 8.4 3.4 16.6v6.7l-16.7 3.3h-5l-15-20z"/>
		<path id="Path 212" class="s80" d="m316.7 453.3v-5h8.3v8.4h-6.7z"/>
		<path id="Path 213" class="s50" d="m276.7 453.3h6.6l1.7-5h5v10l-5 6.7-8.3-3.3v-5z"/>
		<path id="Path 214" class="s50" d="m843.3 456.7l3.4-10h13.3v10h-13.3z"/>
		<path id="Path 215" class="s37" d="m790 460v-13.3h15l6.7 6.6-1.7 6.7z"/>
		<path id="Path 216" class="s12" d="m750 448.3l8.3-1.6h5l3.4 16.6-3.4 1.7-6.6-1.7-5 11.7h-5l-10-15 1.6-10h6.7z"/>
		<path id="Path 217" class="s57" d="m678.3 456.7l-1.6-10 21.6 1.6 15 1.7h25l-1.6 10h-6.7l-10 5-8.3-6.7-5 6.7-1.7-5-6.7 3.3-6.6-6.6-10 3.3z"/>
		<path id="Path 218" class="s51" d="m240 448.3l5-1.6h5v8.3h5l-1.7 11.7h-3.3-6.7z"/>
		<path id="Path 219" class="s50" d="m758.3 446.7l5-1.7v1.7z"/>
		<path id="Path 220" class="s67" d="m465 456.7l3.3-5 10 1.6v-8.3l10 10 10-1.7 8.4 5v20l6.6 6.7v8.3 13.4l-3.3 13.3 6.7 8.3-30-1.6v-11.7l-10-15v-13.3l-15-3.4z"/>
		<path id="Path 221" class="s56" d="m413.3 446.7l11.7 3.3 3.3-5v8.3l-5 3.4-10-8.4z"/>
		<path id="Path 222" class="s19" d="m276.7 453.3v-8.3h6.6l1.7 3.3-1.7 5z"/>
		<path id="Path 223" class="s9" d="m595 451.7l1.7-8.4 13.3 1.7 1.7 5-5 3.3z"/>
		<path id="Path 224" class="s19" d="m325 448.3l3.3-5 15 1.7 11.7 8.3v1.7 18.3l-3.3 5h-5v-5l-10-3.3-11.7-13.3z"/>
		<path id="Path 225" class="s64" d="m645 453.3l1.7-11.6h3.3 1.7l5 1.6 20 3.4 1.6 10-8.3 6.6-8.3 3.4-1.7-3.4v-6.6h-8.3z"/>
		<path id="Path 226" class="s55" d="m460 443.3l5-1.6 8.3 1.6 5 1.7v8.3l-10-1.6-3.3 5-5 1.6-3.3-5z"/>
		<path id="Path 227" class="s35" d="m220 458.3v-11.6l6.7-5 13.3 6.6 3.3 18.4-8.3 11.6-5-8.3-1.7-8.3z"/>
		<path id="Path 228" class="s73" d="m646.7 441.7l-3.4-1.7 6.7 1.7z"/>
		<path id="Path 229" class="s78" d="m543.3 448.3v-8.3h13.4l6.6 3.3 1.7 5-3.3 1.7z"/>
		<path id="Path 230" class="s17" d="m528.3 441.7l15-1.7v8.3l-1.6 3.4h-10z"/>
		<path id="Path 231" class="s23" d="m250 446.7l3.3-6.7 23.4 3.3v1.7 8.3 3.4l-21.7-1.7h-5z"/>
		<path id="Path 232" class="s81" d="m586.7 440l3.3-1.7 6.7 5-1.7 8.4-6.7 5-5-3.4z"/>
		<path id="Path 233" class="s82" d="m573.3 440l3.4-1.7 10 1.7-3.4 13.3h-6.6z"/>
		<path id="Path 234" class="s14" d="m563.3 443.3l3.4-5 6.6 1.7 3.4 13.3h-3.4l-8.3-5z"/>
		<path id="Path 235" class="s83" d="m521.7 453.3l-6.7-15h5l3.3 5 5-1.6 3.4 10z"/>
		<path id="Path 236" class="s45" d="m363.3 453.3l3.4-15 6.6 3.4v8.3l-3.3 3.3z"/>
		<path id="Path 237" class="s10" d="m805 440l15-3.3 6.7 6.6v10h-15l-6.7-6.6z"/>
		<path id="Path 238" class="s79" d="m498.3 453.3l8.4-16.6 8.3 1.6 6.7 15v5h-15z"/>
		<path id="Path 239" class="s78" d="m428.3 445v-8.3l10 1.6 1.7 16.7-11.7-1.7z"/>
		<path id="Path 240" class="s50" d="m276.7 443.3v-6.6h3.3l3.3 8.3h-6.6z"/>
		<path id="Path 241" class="s38" d="m245 446.7l-1.7-10 10 1.6v1.7l-3.3 6.7z"/>
		<path id="Path 242" class="s48" d="m763.3 445l26.7-10v11.7 13.3l-3.3 10h-11.7l-8.3-6.7-3.4-16.6z"/>
		<path id="Path 243" class="s23" d="m465 441.7v-5l6.7-1.7 1.6 8.3z"/>
		<path id="Path 244" class="s27" d="m316.7 448.3l3.3-13.3 8.3 3.3v5l-3.3 5z"/>
		<path id="Path 245" class="s51" d="m860 446.7v-13.4h13.3l11.7 3.4-16.7 21.6-8.3-1.6z"/>
		<path id="Path 246" class="s11" d="m790 435l8.3-1.7 6.7 6.7v6.7h-15z"/>
		<path id="Path 247" class="s4" d="m543.3 440v-6.7h10l3.4 6.7z"/>
		<path id="Path 248" class="s70" d="m343.3 436.7l8.4-1.7 3.3 18.3-11.7-8.3z"/>
		<path id="Path 249" class="s78" d="m226.7 441.7l6.6-8.4 8.4 1.7 1.6 1.7 1.7 10-5 1.6z"/>
		<path id="Path 250" class="s57" d="m590 438.3v-8.3h5l6.7 1.7h1.6l6.7 1.6h1.7l6.6 1.7h1.7l6.7 1.7 16.6 3.3 3.4 1.7-1.7 11.6-5 3.4h-6.7-3.3l-5-8.4-8.3 5-5-3.3-1.7-5-13.3-1.7z"/>
		<path id="Path 251" class="s5" d="m520 438.3v-8.3h20l3.3 3.3v6.7l-15 1.7-5 1.6z"/>
		<path id="Path 252" class="s38" d="m440 435h6.7l1.6-5 6.7 3.3-1.7 8.4 6.7 1.6-3.3 10-5 5-8.4-3.3h-3.3l-1.7-16.7z"/>
		<path id="Path 253" class="s70" d="m295 433.3l6.7-3.3 8.3 21.7v8.3h-5l-5-8.3z"/>
		<path id="Path 254" class="s55" d="m253.3 431.7h13.4l3.3 5 6.7-6.7v6.7 6.6l-23.4-3.3v-1.7z"/>
		<path id="Path 255" class="s38" d="m590 430v-1.7l5 1.7z"/>
		<path id="Path 256" class="s79" d="m410 431.7l8.3-3.4 10 8.4v8.3l-3.3 5-11.7-3.3z"/>
		<path id="Path 257" class="s20" d="m366.7 433.3l6.6-5 36.7 3.4 3.3 15v1.6l-23.3 1.7h-13.3-3.4v-8.3l-6.6-3.4z"/>
		<path id="Path 258" class="s38" d="m280 436.7l6.7-8.4 3.3 3.4 5-3.4v5l5 18.4-6.7 6.6h-3.3v-10h-5l-1.7-3.3z"/>
		<path id="Path 259" class="s14" d="m241.7 435l10-6.7 1.6 3.4v6.6l-10-1.6z"/>
		<path id="Path 260" class="s29" d="m798.3 433.3l18.4-6.6 3.3 10-15 3.3z"/>
		<path id="Path 261" class="s40" d="m506.7 436.7l-3.4-10 16.7 3.3v8.3h-5z"/>
		<path id="Path 262" class="s64" d="m576.7 438.3v-13.3h3.3l10 3.3v1.7 8.3l-3.3 1.7z"/>
		<path id="Path 263" class="s79" d="m301.7 430l11.6-6.7 1.7 10 5 1.7-3.3 13.3v5l-6.7-1.6z"/>
		<path id="Path 264" class="s16" d="m473.3 426.7l13.4 1.6 3.3-6.6h8.3l5 5 3.4 10-8.4 16.6-10 1.7-10-10-5-1.7-1.6-8.3z"/>
		<path id="Path 265" class="s41" d="m816.7 426.7l16.6-6.7 13.4 26.7-3.4 10h-10l-6.6-3.4v-10l-6.7-6.6z"/>
		<path id="Path 266" class="s6" d="m251.7 428.3l1.6-5 33.4-3.3v8.3l-6.7 8.4h-3.3v-6.7l-6.7 6.7-3.3-5h-13.4z"/>
		<path id="Path 267" class="s57" d="m540 430v-13.3l26.7 3.3 10 5v13.3l-3.4 1.7-6.6-1.7-3.4 5-6.6-3.3-3.4-6.7h-10z"/>
		<path id="Path 268" class="s50" d="m448.3 430l-1.6-13.3 26.6 10-1.6 8.3-6.7 1.7v5l-5 1.6-6.7-1.6 1.7-8.4z"/>
		<path id="Path 269" class="s34" d="m440 435l5-18.3h1.7l1.6 13.3-1.6 5z"/>
		<path id="Path 270" class="s50" d="m335 416.7l16.7-1.7h3.3l11.7 18.3v5l-3.4 15-8.3 1.7v-1.7l-3.3-18.3-8.4 1.7-8.3-8.4z"/>
		<path id="Path 271" class="s50" d="m286.7 420l1.6-5 25 1.7v6.6l-11.6 6.7-6.7 3.3v-5l-5 3.4-3.3-3.4z"/>
		<path id="Path 272" class="s48" d="m833.3 420l16.7-6.7 3.3 16.7 6.7 3.3v13.4h-13.3z"/>
		<path id="Path 273" class="s16" d="m313.3 416.7l18.4-1.7 3.3 1.7v11.6l8.3 8.4v8.3l-15-1.7v-5l-8.3-3.3-5-1.7-1.7-10z"/>
		<path id="Path 274" class="s35" d="m331.7 415l1.6-5h13.4l5 5-16.7 1.7z"/>
		<path id="Path 275" class="s5" d="m416.7 411.7l13.3-6.7 15 11.7-5 18.3-1.7 3.3-10-1.6-10-8.4z"/>
		<path id="Path 276" class="s40" d="m355 415l11.7-10 5 8.3 25-5 20 3.4 1.6 16.6-8.3 3.4-36.7-3.4-6.6 5z"/>
		<path id="Path 277" class="s21" d="m850 413.3l26.7-10-3.4 30h-13.3l-6.7-3.3z"/>
		<path id="Path 278" class="s9" d="m566.7 420l-3.4-20h13.4l3.3 25h-3.3z"/>
		<path id="Path 279" class="s40" d="m876.7 403.3l18.3-5 8.3 23.4-18.3 15-11.7-3.4z"/>
		<path id="Path 280" class="s57" d="m396.7 408.3v-11.6h5 18.3 13.3l-3.3 8.3-13.3 6.7z"/>
		<path id="Path 281" class="s64" d="m366.7 405v-8.3h8.3 11.7 10v11.6l-25 5z"/>
		<path id="Path 282" class="s57" d="m345 398.3l15-1.6h3.3 3.4v8.3l-11.7 10h-3.3l-5-5h-13.4l-1.6 5-18.4 1.7-25-1.7-1.6 5-33.4 3.3-1.6 5-10 6.7-8.4-1.7-6.6 8.4-6.7 5v11.6h-5l-10-1.6-1.7 10-10-1.7-8.3-11.7-10 5-1.7 8.4h-5l-6.6-3.4-18.4-3.3-8.3 8.3-1.7 6.7 6.7 16.7-1.7 3.3-8.3-5-8.3-18.3h-15l1.6 11.6-8.3 5-5-3.3-1.7-3.3 1.7-16.7 1.7-1.7 1.6-1.6 3.4-1.7 1.6-1.7h1.7l5-1.6 41.7-13.4 5-1.6 5-1.7 6.6-1.7 5-1.6h1.7l5-1.7h1.7l5-1.7 6.6-1.6 5-1.7h1.7l5-1.7h1.7l5-1.6 5-1.7h1.6l3.4-1.7 6.6-1.6 5-1.7 6.7-1.7 5-1.6 18.3-5 5-1.7h1.7l5-1.7 5-1.6h1.7l6.6-1.7 6.7-1.7h1.7l11.6-1.6h3.4l10-1.7h6.6l10-1.7z"/>
		<path id="Path 283" class="s73" d="m905 396.7l5-1.7h11.7l1.6 8.3-20 18.4-8.3-23.4z"/>
		<path id="Path 284" class="s14" d="m576.7 400l6.6-5 16.7 1.7v15l-10 16.6-10-3.3z"/>
		<path id="Path 285" class="s64" d="m466.7 396.7l6.6-1.7h1.7l21.7 5 6.6 3.3h8.4l25 8.4 3.3 5v13.3h-20l-16.7-3.3-5-5h-8.3l-3.3 6.6-13.4-1.6-26.6-10h-1.7l-15-11.7 3.3-8.3h8.4z"/>
		<path id="Path 286" class="s78" d="m466.7 396.7v-1.7h6.6z"/>
		<path id="Path 287" class="s75" d="m466.7 395v1.7h-25v-1.7z"/>
		<path id="Path 288" class="s55" d="m420 396.7v-1.7h21.7v1.7h-8.4z"/>
		<path id="Path 289" class="s79" d="m420 395v1.7h-18.3v-1.7z"/>
		<path id="Path 290" class="s55" d="m386.7 396.7v-1.7h15v1.7h-5z"/>
		<path id="Path 291" class="s20" d="m386.7 395v1.7h-11.7v-1.7z"/>
		<path id="Path 292" class="s38" d="m363.3 396.7l11.7-1.7v1.7h-8.3z"/>
		<path id="Path 293" class="s29" d="m511.7 403.3l6.6-10h15l3.4 18.4z"/>
		<path id="Path 294" class="s21" d="m475 395l21.7-10v15z"/>
		<path id="Path 295" class="s11" d="m496.7 385l6.6-1.7v20l-6.6-3.3z"/>
		<path id="Path 296" class="s48" d="m503.3 383.3l11.7-5 3.3 15-6.6 10h-8.4z"/>
		<path id="Path 297" class="s3" d="m515 378.3l6.7-1.6h11.6v16.6h-15z"/>
		<path id="Path 298" class="s75" d="m521.7 376.7l13.3-3.4-1.7 3.4z"/>
		<path id="Path 299" class="s10" d="m535 373.3l18.3-3.3 10 15v15l3.4 20-26.7-3.3-3.3-5-3.4-18.4v-16.6z"/>
		<path id="Path 300" class="s13" d="m553.3 370l16.7-3.3 13.3 6.6v21.7l-6.6 5h-13.4v-15z"/>
		<path id="Path 301" class="s9" d="m570 366.7l11.7-1.7 1.6 8.3z"/>
		<path id="Path 302" class="s73" d="m581.7 365l21.6-1.7 5 1.7v5l-1.6 1.7-6.7 8.3v16.7l-16.7-1.7v-21.7z"/>
	</g>
</svg>