<svg version="1.2" xmlns="http://www.w3.org/2000/svg" viewBox="0 0 1000 1000" width="1000" height="1000">
	<title>Notropis_nubilus</title>
	<style>
		.s0 { fill: #6a7379 } 
		.s1 { fill: #a79c8d } 
		.s2 { fill: #999286 } 
		.s3 { fill: #958a78 } 
		.s4 { fill: #867b69 } 
		.s5 { fill: #7d745a } 
		.s6 { fill: #5d6264 } 
		.s7 { fill: #898578 } 
		.s8 { fill: #646867 } 
		.s9 { fill: #8e8367 } 
		.s10 { fill: #988157 } 
		.s11 { fill: #aca59a } 
		.s12 { fill: #675430 } 
		.s13 { fill: #646c74 } 
		.s14 { fill: #a39478 } 
		.s15 { fill: #775f34 } 
		.s16 { fill: #7a6842 } 
		.s17 { fill: #65471c } 
		.s18 { fill: #a3a0a5 } 
		.s19 { fill: #555444 } 
		.s20 { fill: #524726 } 
		.s21 { fill: #b4ab9c } 
		.s22 { fill: #9e8c67 } 
		.s23 { fill: #4d5045 } 
		.s24 { fill: #504b30 } 
		.s25 { fill: #605b44 } 
		.s26 { fill: #947433 } 
		.s27 { fill: #cbc8cb } 
		.s28 { fill: #af9f7d } 
		.s29 { fill: #b1a48c } 
		.s30 { fill: #b9b7b9 } 
		.s31 { fill: #666247 } 
		.s32 { fill: #545951 } 
		.s33 { fill: #706e72 } 
		.s34 { fill: #575234 } 
		.s35 { fill: #c7bbb1 } 
		.s36 { fill: #b5b2b2 } 
		.s37 { fill: #787669 } 
		.s38 { fill: #453e26 } 
		.s39 { fill: #4f4d3a } 
		.s40 { fill: #313223 } 
		.s41 { fill: #594f2a } 
		.s42 { fill: #dad9db } 
		.s43 { fill: #e6e6e5 } 
		.s44 { fill: #22241a } 
		.s45 { fill: #b4aea7 } 
		.s46 { fill: #b8bbc6 } 
		.s47 { fill: #babed2 } 
		.s48 { fill: #97999a } 
		.s49 { fill: #a9a9ab } 
		.s50 { fill: #c8cad9 } 
		.s51 { fill: #c4bec6 } 
		.s52 { fill: #7e848b } 
		.s53 { fill: #757978 } 
		.s54 { fill: #a7acb6 } 
		.s55 { fill: #aeb3bb } 
		.s56 { fill: #9ca3ae } 
		.s57 { fill: #151e1a } 
		.s58 { fill: #2b2819 } 
		.s59 { fill: #8f928e } 
		.s60 { fill: #5c6056 } 
		.s61 { fill: #3c3e33 } 
		.s62 { fill: #746b53 } 
		.s63 { fill: #17160a } 
		.s64 { fill: #525c61 } 
		.s65 { fill: #8f764e } 
		.s66 { fill: #8e939a } 
		.s67 { fill: #34362d } 
		.s68 { fill: #444a48 } 
		.s69 { fill: #acb2c5 } 
		.s70 { fill: #949ca8 } 
		.s71 { fill: #7c817c } 
		.s72 { fill: #868a89 } 
		.s73 { fill: #171a10 } 
		.s74 { fill: #1e1f12 } 
		.s75 { fill: #868d96 } 
		.s76 { fill: #0e120a } 
		.s77 { fill: #6d6f66 } 
		.s78 { fill: #454433 } 
		.s79 { fill: #656659 } 
	</style>
	<g id="Background">
		<path id="Path 0" class="s0" d="m616.7 579.5l25-1.6-3.4 18.3h-16.6l-15-8.3z"/>
		<path id="Path 1" class="s0" d="m506.7 591.2l5-15 21.6 1.7 13.4 8.3v8.3l-8.4 5z"/>
		<path id="Path 2" class="s1" d="m430 586.2l1.7-10 8.3 1.7 1.7 6.6z"/>
		<path id="Path 3" class="s2" d="m383.3 587.9l1.7-11.7h11.7v13.3z"/>
		<path id="Path 4" class="s3" d="m351.7 582.9v-6.7h1.6 10v8.3z"/>
		<path id="Path 5" class="s4" d="m340 581.2l1.7-5h10v6.7z"/>
		<path id="Path 6" class="s5" d="m320 579.5l3.3-6.6h13.4l5 3.3-1.7 5z"/>
		<path id="Path 7" class="s6" d="m533.3 577.9l3.4-6.7 8.3 5 1.7 10z"/>
		<path id="Path 8" class="s4" d="m483.3 579.5l3.4-10h23.3l1.7 6.7-5 15z"/>
		<path id="Path 9" class="s7" d="m250 571.2l-5-1.7h5z"/>
		<path id="Path 10" class="s8" d="m598.3 569.5l16.7-1.6 1.7 11.6-10 8.4-21.7-10 11.7-1.7z"/>
		<path id="Path 11" class="s7" d="m245 569.5l-6.7-1.6h6.7z"/>
		<path id="Path 12" class="s9" d="m448.3 569.5l18.4-3.3v13.3l-25 5-1.7-6.6z"/>
		<path id="Path 13" class="s3" d="m310 579.5v-13.3h10l3.3 6.7-3.3 6.6z"/>
		<path id="Path 14" class="s10" d="m466.7 566.2l10-1.7h8.3l1.7 5-3.4 10h-16.6z"/>
		<path id="Path 15" class="s7" d="m231.7 566.2l-5-1.7h5z"/>
		<path id="Path 16" class="s10" d="m353.3 576.2l3.4-13.3h6.6v13.3z"/>
		<path id="Path 17" class="s11" d="m396.7 576.2l6.6-15 40 1.7 5 6.6-8.3 8.4-8.3-1.7-1.7 10-33.3 3.3z"/>
		<path id="Path 18" class="s12" d="m245 567.9v-8.4h8.3 1.7l-5 10h-5z"/>
		<path id="Path 19" class="s13" d="m621.7 559.5l30-1.6-10 20-25 1.6-1.7-11.6z"/>
		<path id="Path 20" class="s14" d="m363.3 562.9h10l1.7-5h21.7l6.6 3.3-6.6 15h-11.7l-1.7 11.7-20-3.4v-8.3z"/>
		<path id="Path 21" class="s2" d="m293.3 561.2l6.7-3.3h10v8.3 13.3l-23.3-3.3 3.3-11.7z"/>
		<path id="Path 22" class="s4" d="m266.7 574.5l10-16.6 13.3 6.6-3.3 11.7z"/>
		<path id="Path 23" class="s15" d="m253.3 559.5v-1.6h3.4l-1.7 1.6z"/>
		<path id="Path 24" class="s1" d="m485 564.5l5-8.3h16.7l6.6 1.7-3.3 11.6h-23.3z"/>
		<path id="Path 25" class="s16" d="m356.7 562.9l1.6-6.7 16.7 1.7-1.7 5h-10z"/>
		<path id="Path 26" class="s16" d="m256.7 557.9l10-1.7 10 1.7-10 16.6-16.7-3.3v-1.7l5-10z"/>
		<path id="Path 27" class="s17" d="m231.7 564.5l1.6-8.3h10l1.7 3.3v8.4h-6.7-1.6l-5-1.7z"/>
		<path id="Path 28" class="s2" d="m513.3 557.9l23.4-1.7v15l-3.4 6.7-21.6-1.7-1.7-6.7z"/>
		<path id="Path 29" class="s18" d="m820 552.9h1.7v1.6h-1.7z"/>
		<path id="Path 30" class="s19" d="m806.7 561.2l-3.4-8.3h8.4z"/>
		<path id="Path 31" class="s20" d="m571.7 564.5l1.6-11.6h20v8.3l-11.6 6.7z"/>
		<path id="Path 32" class="s21" d="m476.7 564.5v-11.6l13.3 3.3-5 8.3z"/>
		<path id="Path 33" class="s22" d="m310 557.9l5-5h5v13.3h-10z"/>
		<path id="Path 34" class="s7" d="m536.7 556.2l18.3-5-8.3 23.3-1.7 1.7-8.3-5z"/>
		<path id="Path 35" class="s23" d="m811.7 552.9l5-3.4 3.3 3.4 1.7 1.6 10 10 3.3 13.4-3.3 5-8.4 8.3-23.3-5 6.7-6.7v-18.3z"/>
		<path id="Path 36" class="s24" d="m565 551.2l6.7-1.7 1.6 3.4-1.6 11.6-6.7-1.6z"/>
		<path id="Path 37" class="s25" d="m555 551.2l1.7-1.7h3.3l5 1.7v11.7l6.7 1.6 10 3.4 11.6-6.7 5 8.3-1.6 6.7-11.7 1.7-15-10h-5l-3.3 8.3-15-1.7z"/>
		<path id="Path 38" class="s2" d="m320 547.9v5h-5v-5z"/>
		<path id="Path 39" class="s10" d="m243.3 556.2v-8.3l10 1.6v8.4 1.6h-8.3z"/>
		<path id="Path 40" class="s12" d="m201.7 554.5l15-6.6 15 1.6 1.6 6.7-1.6 8.3h-5-1.7l-5-1.6z"/>
		<path id="Path 41" class="s24" d="m746.7 559.5l13.3-13.3h11.7l6.6 6.7h21.7 3.3l3.4 8.3v18.3l-6.7 6.7-11.7-5-3.3-1.7-3.3-1.6-3.4-1.7-15-6.7-3.3-1.6-3.3-1.7-10-5z"/>
		<path id="Path 42" class="s26" d="m336.7 572.9l-5-20 10-6.7h6.6l10 3.3v6.7l-1.6 6.7-3.4 13.3h-1.6-10z"/>
		<path id="Path 43" class="s27" d="m293.3 561.2l-3.3-15h8.3l1.7 11.7z"/>
		<path id="Path 44" class="s28" d="m253.3 549.5l10-3.3h3.4v10l-10 1.7h-3.4z"/>
		<path id="Path 45" class="s14" d="m320 547.9l8.3-5 13.4 3.3-10 6.7 5 20h-13.4l-3.3-6.7v-13.3z"/>
		<path id="Path 46" class="s29" d="m266.7 546.2l1.6-3.3h5l16.7 3.3 3.3 15-3.3 3.3-13.3-6.6-10-1.7z"/>
		<path id="Path 47" class="s15" d="m231.7 549.5l1.6-6.6 8.4 1.6 1.6 3.4v8.3h-10z"/>
		<path id="Path 48" class="s30" d="m298.3 546.2l8.4-5 8.3 1.7v5 5l-5 5h-10z"/>
		<path id="Path 49" class="s31" d="m241.7 544.5v-3.3l8.3 1.7 13.3 3.3-10 3.3-10-1.6z"/>
		<path id="Path 50" class="s32" d="m800 552.9v-13.4h3.3l13.4 10-5 3.4h-8.4z"/>
		<path id="Path 51" class="s24" d="m656.7 547.9v-8.4h6.6l16.7 1.7 13.3 1.7 10 1.6v3.4z"/>
		<path id="Path 52" class="s19" d="m571.7 542.9l13.3-3.4h8.3v13.4h-20l-1.6-3.4z"/>
		<path id="Path 53" class="s33" d="m560 549.5l6.7-10 5 3.4v6.6l-6.7 1.7z"/>
		<path id="Path 54" class="s34" d="m593.3 539.5l26.7-1.6 1.7 21.6-6.7 8.4-16.7 1.6-5-8.3v-8.3z"/>
		<path id="Path 55" class="s34" d="m706.7 537.9h13.3l-3.3 8.3h-5l-8.4 1.7v-3.4z"/>
		<path id="Path 56" class="s35" d="m268.3 539.5l3.4-3.3 1.6 6.7h-5z"/>
		<path id="Path 57" class="s20" d="m216.7 537.9l10-1.7 6.6 6.7-1.6 6.6-15-1.6z"/>
		<path id="Path 58" class="s36" d="m396.7 542.9h-6.7l-3.3-8.4 10 1.7z"/>
		<path id="Path 59" class="s37" d="m266.7 536.2l1.6-1.7h3.4v1.7l-3.4 3.3z"/>
		<path id="Path 60" class="s38" d="m740 547.9l6.7-5v-10h10l3.3 13.3-13.3 13.3z"/>
		<path id="Path 61" class="s39" d="m693.3 542.9v-10h3.4l10 5-3.4 6.6z"/>
		<path id="Path 62" class="s19" d="m680 541.2v-8.4h6.7 6.6v10.1z"/>
		<path id="Path 63" class="s25" d="m663.3 539.5v-6.6h6.7 10v8.3z"/>
		<path id="Path 64" class="s32" d="m653.3 534.5v-1.6h10v6.6h-6.6z"/>
		<path id="Path 65" class="s39" d="m620 537.9l10-5h5l18.3 1.6 3.4 5v8.4h-6.7l1.7 6.6v3.4l-30 1.6z"/>
		<path id="Path 66" class="s27" d="m453.3 537.9l3.4-5h5l6.6 20h-6.6z"/>
		<path id="Path 67" class="s1" d="m250 536.2l10-3.4 6.7 3.4 1.6 3.3v3.4l-1.6 3.3h-3.4l-13.3-3.3z"/>
		<path id="Path 68" class="s21" d="m241.7 541.2l-3.4-8.4h5l6.7 3.4v6.7z"/>
		<path id="Path 69" class="s40" d="m226.7 536.2l3.3-3.4h8.3l3.4 8.4v3.3l-8.4-1.6z"/>
		<path id="Path 70" class="s30" d="m396.7 536.2l20-5 36.6 6.7 8.4 15h6.6 8.4v11.6l-10 1.7-18.4 3.3-5-6.6-40-1.7-6.6-3.3v-15z"/>
		<path id="Path 71" class="s41" d="m740 547.9l-6.7-5v-13.4h3.4 6.6l3.4 3.4v10z"/>
		<path id="Path 72" class="s31" d="m720 537.9l3.3-8.4h6.7 3.3v13.4l6.7 5 6.7 11.6v1.7l-35-15h5z"/>
		<path id="Path 73" class="s42" d="m306.7 541.2v-11.7h3.3 3.3l1.7 13.4z"/>
		<path id="Path 74" class="s43" d="m291.7 531.2l1.6-1.7h13.4v11.7l-8.4 5h-8.3z"/>
		<path id="Path 75" class="s44" d="m200 532.9l1.7-3.4h1.6l13.4 8.4v10l-15 6.6-1.7-5v-1.6z"/>
		<path id="Path 76" class="s35" d="m330 529.5l8.3-1.7 10 1.7v16.7h-6.6l-13.4-3.3z"/>
		<path id="Path 77" class="s11" d="m313.3 529.5l8.4 3.4 3.3-5.1 5 1.7-1.7 13.4-8.3 5h-5v-5z"/>
		<path id="Path 78" class="s11" d="m273.3 529.5l11.7-1.7 6.7 3.4-1.7 15-16.7-3.3-1.6-6.7v-1.7z"/>
		<path id="Path 79" class="s45" d="m260 529.5h8.3v5l-1.6 1.7-6.7-3.3z"/>
		<path id="Path 80" class="s23" d="m201.7 527.8h1.6v1.7h-1.6z"/>
		<path id="Path 81" class="s30" d="m506.7 539.5l-8.4-3.3v-10h5l5 5z"/>
		<path id="Path 82" class="s18" d="m416.7 527.8l5-1.6h31.6l3.4 6.7-3.4 5-36.6-6.7z"/>
		<path id="Path 83" class="s1" d="m293.3 529.5l3.4-3.3 13.3 1.6v1.7h-3.3z"/>
		<path id="Path 84" class="s46" d="m566.7 526.2l16.6-1.7 1.7 15-13.3 3.4-5-3.4z"/>
		<path id="Path 85" class="s47" d="m556.7 549.5l-3.4-25 13.4 1.7v13.3l-6.7 10z"/>
		<path id="Path 86" class="s48" d="m386.7 526.2h26.6l3.4 1.6v3.4l-20 5-10-1.7z"/>
		<path id="Path 87" class="s49" d="m350 526.2h33.3 3.4v8.3l3.3 8.4h6.7v15h-21.7l-16.7-1.7v-6.7l-10-3.3v-16.7z"/>
		<path id="Path 88" class="s50" d="m508.3 527.8l25-5h5l15 1.7 3.4 25-1.7 1.7-18.3 5-23.4 1.7-6.6-1.7v-16.7l1.6-8.3z"/>
		<path id="Path 89" class="s9" d="m503.3 526.2v-5h10l-5 6.6v3.4z"/>
		<path id="Path 90" class="s51" d="m476.7 522.8l10-1.6 8.3 1.6 3.3 3.4v10l8.4 3.3v16.7h-16.7l-13.3-3.3h-8.4l-6.6-20 3.3-6.7z"/>
		<path id="Path 91" class="s52" d="m340 522.8l10 3.4-1.7 3.3-10-1.7z"/>
		<path id="Path 92" class="s40" d="m743.3 519.5v10h-6.6v-10z"/>
		<path id="Path 93" class="s53" d="m718.3 521.2l10-1.7 1.7 10h-6.7z"/>
		<path id="Path 94" class="s54" d="m670 522.8l11.7-3.3h3.3l1.7 13.4h-6.7-10z"/>
		<path id="Path 95" class="s55" d="m630 532.9l1.7-13.4 5 1.7-1.7 11.7z"/>
		<path id="Path 96" class="s32" d="m260 529.5v-10h6.7l1.6 10z"/>
		<path id="Path 97" class="s56" d="m533.3 521.2v-3.4l5 1.7v3.3h-5z"/>
		<path id="Path 98" class="s32" d="m413.3 519.5l8.4-1.7v8.4l-5 1.6-3.4-1.6z"/>
		<path id="Path 99" class="s57" d="m243.3 522.8l3.4-5h5l8.3 1.7v10 3.4l-10 3.3-6.7-3.3z"/>
		<path id="Path 100" class="s8" d="m800 539.5h-13.3l-3.4-15 8.4-8.3h11.6l-13.3 16.7 13.3 6.6z"/>
		<path id="Path 101" class="s58" d="m743.3 519.5l3.4-3.3h8.3l1.7 16.7h-10l-3.4-3.4z"/>
		<path id="Path 102" class="s59" d="m685 519.5l1.7-3.3 10 3.3v13.4h-3.4-6.6z"/>
		<path id="Path 103" class="s55" d="m513.3 521.2l3.4-5h5l11.6 5v1.6l-25 5z"/>
		<path id="Path 104" class="s60" d="m325 527.8l1.7-11.6h8.3l5 6.6-1.7 5-8.3 1.7z"/>
		<path id="Path 105" class="s61" d="m296.7 526.2v-10l13.3 1.6v10z"/>
		<path id="Path 106" class="s44" d="m285 527.8l-5-1.6v-8.4l13.3-1.6h3.4v10l-3.4 3.3-1.6 1.7z"/>
		<path id="Path 107" class="s38" d="m266.7 519.5v-5h1.6l5 3.3v11.7l-1.6 5h-3.4v-5z"/>
		<path id="Path 108" class="s62" d="m240 516.2l6.7-1.7v3.3l-3.4 5z"/>
		<path id="Path 109" class="s63" d="m216.7 516.2l8.3-1.7 5 18.3-3.3 3.4-10 1.7-13.4-8.4v-1.7l6.7-6.6z"/>
		<path id="Path 110" class="s64" d="m533.3 516.2v-3.4h6.7l-1.7 6.7-5-1.7z"/>
		<path id="Path 111" class="s33" d="m486.7 516.2l8.3-3.4v10l-8.3-1.6z"/>
		<path id="Path 112" class="s53" d="m476.7 522.8v-10l10 3.4v5z"/>
		<path id="Path 113" class="s65" d="m251.7 517.8v-5l15 1.7v5h-6.7z"/>
		<path id="Path 114" class="s20" d="m246.7 514.5l5-1.7v5h-5z"/>
		<path id="Path 115" class="s52" d="m631.7 512.8h16.6l-5 15 10 5.1v1.6l-18.3-1.6 1.7-11.7-5-1.7z"/>
		<path id="Path 116" class="s8" d="m521.7 516.2l6.6-5 5 5v1.6 3.4z"/>
		<path id="Path 117" class="s18" d="m718.3 521.2h-5l-3.3-11.7h13.3l5 10z"/>
		<path id="Path 118" class="s52" d="m696.7 519.5l6.6-3.3v-6.7h6.7l3.3 11.7h5l5 8.3-3.3 8.4h-13.3l-10-5z"/>
		<path id="Path 119" class="s66" d="m540 512.8l10-3.3h10 16.7l6.6 5v10l-16.6 1.7-13.4-1.7-15-1.7v-3.3z"/>
		<path id="Path 120" class="s40" d="m503.3 521.2l3.4-11.7 10 6.7-3.4 5z"/>
		<path id="Path 121" class="s67" d="m310 517.8v-8.3h10l6.7 6.7-1.7 11.6-3.3 5.1-8.4-3.4h-3.3v-1.7z"/>
		<path id="Path 122" class="s44" d="m225 514.5l5-5h5l5 6.7 3.3 6.6v10.1h-5-8.3z"/>
		<path id="Path 123" class="s68" d="m216.7 516.2l13.3-6.7-5 5z"/>
		<path id="Path 124" class="s68" d="m230 509.5l5-1.7v1.7z"/>
		<path id="Path 125" class="s34" d="m736.7 519.5l-3.4-13.3h10l3.4 10-3.4 3.3z"/>
		<path id="Path 126" class="s46" d="m686.7 507.8l3.3-1.6h1.7l11.6 3.3v6.7l-6.6 3.3-10-3.3z"/>
		<path id="Path 127" class="s69" d="m681.7 519.5l-5-6.7 3.3-6.6 6.7 1.6v8.4l-1.7 3.3z"/>
		<path id="Path 128" class="s8" d="m293.3 509.5l8.4-3.3h5l3.3 3.3v8.3l-13.3-1.6h-3.4z"/>
		<path id="Path 129" class="s53" d="m320 509.5l1.7-5 8.3 1.7 6.7 1.6-1.7 8.4h-8.3z"/>
		<path id="Path 130" class="s62" d="m268.3 514.5l1.7-10 23.3 5v6.7l-13.3 1.6v8.4l5 1.6-11.7 1.7v-11.7z"/>
		<path id="Path 131" class="s23" d="m691.7 506.2l15-3.4h16.6l10 3.4 3.4 13.3v10h-3.4-3.3l-1.7-10-5-10h-13.3-6.7z"/>
		<path id="Path 132" class="s70" d="m670 522.8l-6.7-3.3-3.3-16.7 20 3.4-3.3 6.6 5 6.7z"/>
		<path id="Path 133" class="s70" d="m360 512.8l-11.7 3.4-5-5v-5l8.4 1.6 3.3-5 5 5z"/>
		<path id="Path 134" class="s6" d="m650 502.8l-13.3-3.3h13.3z"/>
		<path id="Path 135" class="s69" d="m620 501.2l6.7-1.7h10l13.3 3.3h10l3.3 16.7 6.7 3.3v10.1h-6.7-10l-10-5.1 5-15h-16.6l-11.7-1.6z"/>
		<path id="Path 136" class="s55" d="m610 506.2v-6.7l10 1.7v10h-8.3z"/>
		<path id="Path 137" class="s49" d="m550 509.5v-10l10 1.7v8.3z"/>
		<path id="Path 138" class="s52" d="m360 507.8l8.3-8.3 11.7 3.3 5 3.4-1.7 8.3-23.3-1.7z"/>
		<path id="Path 139" class="s18" d="m601.7 499.5l3.3-1.7 5 1.7v6.7h-6.7z"/>
		<path id="Path 140" class="s50" d="m560 501.2l8.3-3.4 11.7 1.7-3.3 10h-16.7z"/>
		<path id="Path 141" class="s68" d="m330 506.2l6.7-8.4 10 1.7h8.3v3.3l-3.3 5-8.4-1.6v5l5 5 11.7-3.4 23.3 1.7v11.7h-33.3l-10-3.4-5-6.6 1.7-8.4z"/>
		<path id="Path 142" class="s48" d="m580 499.5v-3.3l21.7 3.3 1.6 6.7h6.7l1.7 5h8.3l11.7 1.6v6.7l-1.7 13.4-10 5-26.7 1.6h-8.3l-1.7-15v-10l-6.6-5z"/>
		<path id="Path 143" class="s63" d="m706.7 502.8v-8.3h15 1.6v8.3z"/>
		<path id="Path 144" class="s32" d="m610 499.5l6.7-5 10 5-6.7 1.7z"/>
		<path id="Path 145" class="s56" d="m535 496.2l1.7-1.7 13.3 5v10l-10 3.3h-6.7z"/>
		<path id="Path 146" class="s54" d="m506.7 497.8l10-3.3 18.3 1.7-1.7 16.6v3.4l-5-5-6.6 5h-5l-10-6.7z"/>
		<path id="Path 147" class="s64" d="m355 499.5l3.3-5 10 1.7v3.3l-8.3 8.3-5-5z"/>
		<path id="Path 148" class="s71" d="m721.7 494.5l8.3-1.7-6.7 1.7z"/>
		<path id="Path 149" class="s44" d="m690 506.2v-13.4h1.7l15 1.7v8.3l-15 3.4z"/>
		<path id="Path 150" class="s6" d="m580 494.5l6.7-1.7 18.3 5-3.3 1.7-21.7-3.3z"/>
		<path id="Path 151" class="s40" d="m733.3 492.8l6.7-1.6h5l-1.7 15h-10l-10-3.4v-8.3l6.7-1.7z"/>
		<path id="Path 152" class="s33" d="m690 492.8l-5-1.6 6.7 1.6z"/>
		<path id="Path 153" class="s56" d="m476.7 494.5l5-3.3 15 1.6 10 5v11.7l-3.4 11.7v5h-5l-3.3-3.4v-10l-8.3 3.4-10-3.4z"/>
		<path id="Path 154" class="s8" d="m380 496.2l5-5 10 3.3 6.7 1.7 5 20 6.6 3.3v6.7h-26.6-3.4v-11.7l1.7-8.3-5-3.4z"/>
		<path id="Path 155" class="s32" d="m368.3 496.2l3.4-5 8.3 5v6.6l-11.7-3.3z"/>
		<path id="Path 156" class="s71" d="m740 491.2l5-1.7v1.7z"/>
		<path id="Path 157" class="s72" d="m568.3 492.8l6.7-3.3 5 5v1.7 3.3l-11.7-1.7z"/>
		<path id="Path 158" class="s6" d="m395 494.5l6.7-5 1.6 6.7h-1.6z"/>
		<path id="Path 159" class="s73" d="m285 491.2l6.7-1.7 1.6 10 8.4 6.7-8.4 3.3-23.3-5-1.7 10h-1.6l-15-1.7-5 1.7-6.7 1.7-5-6.7v-1.7l45-15z"/>
		<path id="Path 160" class="s74" d="m650 499.5l3.3-11.7h8.4 1.6l8.4 1.7h3.3l6.7 1.7h3.3l5 1.6v13.4l-3.3 1.6-6.7-1.6-20-3.4h-10z"/>
		<path id="Path 161" class="s75" d="m428.3 491.2l11.7-1.7-5 10-6.7-1.7z"/>
		<path id="Path 162" class="s37" d="m653.3 487.8v-1.6l8.4 1.6z"/>
		<path id="Path 163" class="s66" d="m536.7 491.2l6.6-5 15 8.3 10-1.7v5l-8.3 3.4-10-1.7-13.3-5z"/>
		<path id="Path 164" class="s75" d="m516.7 487.8l3.3-1.6 6.7 3.3 5-3.3 5 5v3.3l-1.7 1.7-18.3-1.7z"/>
		<path id="Path 165" class="s0" d="m496.7 492.8v-6.6l10 1.6h10v6.7l-10 3.3z"/>
		<path id="Path 166" class="s66" d="m481.7 491.2l1.6-5h13.4v6.6z"/>
		<path id="Path 167" class="s76" d="m296.7 487.8l5-1.6h1.6 3.4v20h-5l-8.4-6.7-1.6-10z"/>
		<path id="Path 168" class="s52" d="m440 489.5l23.3-5 5 8.3 8.4 1.7v18.3 10l-11.7 3.4-3.3 6.7h-5l-3.4-6.7h-31.6v-8.4l-8.4 1.7-6.6-3.3-5-20h1.6l5-5 11.7 3.3 3.3-5 5 1.7v6.6l6.7 1.7z"/>
		<path id="Path 169" class="s72" d="m303.3 486.2l5-1.7-1.6 1.7z"/>
		<path id="Path 170" class="s24" d="m758.3 486.2l11.7-3.4-3.3 20-11.7 13.4h-8.3l-3.4-10 1.7-15v-1.7h1.7l5-1.7h1.6z"/>
		<path id="Path 171" class="s44" d="m401.7 489.5l3.3-6.7h15l3.3 6.7-3.3 5-11.7-3.3-5 5z"/>
		<path id="Path 172" class="s73" d="m616.7 494.5v-13.3h3.3 1.7l8.3 1.6h1.7l8.3 1.7h1.7l10 1.7h1.6v1.6l-3.3 11.7h-13.3-10z"/>
		<path id="Path 173" class="s59" d="m616.7 481.2l-5-1.7 8.3 1.7z"/>
		<path id="Path 174" class="s74" d="m586.7 492.8v-16.6h1.6 1.7l8.3 1.6h3.4l6.6 1.7h3.4l5 1.7v13.3l-6.7 5-5-1.7z"/>
		<path id="Path 175" class="s44" d="m506.7 487.8v-11.6h6.6l6.7 1.6v8.4l-3.3 1.6z"/>
		<path id="Path 176" class="s73" d="m335 477.8l5-1.6h1.7 5v23.3l-10-1.7-6.7 8.4-8.3-1.7-1.7 5h-10l-3.3-3.3v-20l1.6-1.7 6.7-1.7 6.7-1.6 5-1.7h1.6l5-1.7z"/>
		<path id="Path 177" class="s7" d="m586.7 476.2l-6.7-1.7 8.3 1.7z"/>
		<path id="Path 178" class="s44" d="m575 489.5l1.7-15h1.6 1.7l6.7 1.7v16.6l-6.7 1.7z"/>
		<path id="Path 179" class="s7" d="m341.7 476.2l6.6-1.7-1.6 1.7z"/>
		<path id="Path 180" class="s7" d="m576.7 474.5l-8.4-1.7 10 1.7z"/>
		<path id="Path 181" class="s34" d="m801.7 472.8l8.3-1.6h5v20l-11.7 10v15h-11.6l-8.4 8.3 3.4 15h13.3v13.4h-21.7l-6.6-6.7h-11.7l-3.3-13.3-1.7-16.7 11.7-13.4 3.3-20 26.7-8.3z"/>
		<path id="Path 182" class="s74" d="m358.3 472.8l8.4-1.6h1.6 1.7l1.7 20-3.4 5-10-1.7-3.3 5h-8.3v-23.3l1.6-1.7h1.7l6.7-1.7z"/>
		<path id="Path 183" class="s53" d="m810 471.2l6.7-1.7-1.7 1.7z"/>
		<path id="Path 184" class="s77" d="m368.3 471.2l6.7-1.7-5 1.7z"/>
		<path id="Path 185" class="s32" d="m833.3 496.2v-28.4l11.7 1.7v15z"/>
		<path id="Path 186" class="s19" d="m816.7 469.5l16.6-1.7v28.4l-30 20v-15l11.7-10v-20z"/>
		<path id="Path 187" class="s73" d="m513.3 476.2l1.7-11.7h8.3l-3.3 13.3z"/>
		<path id="Path 188" class="s74" d="m523.3 464.5l3.4-1.7 16.6 5 16.7 1.7 6.7 3.3h1.6l8.4 1.7-1.7 15-6.7 3.3-10 1.7-15-8.3-6.6 5-5-5-5 3.3-6.7-3.3v-8.4z"/>
		<path id="Path 189" class="s7" d="m438.3 462.8v-1.7h6.7z"/>
		<path id="Path 190" class="s27" d="m431.7 462.8l6.6-1.7v1.7z"/>
		<path id="Path 191" class="s32" d="m543.3 467.8v-8.3h16.7v10z"/>
		<path id="Path 192" class="s63" d="m506.7 476.2l-8.4-6.7v-10h5l11.7 5-1.7 11.7z"/>
		<path id="Path 193" class="s8" d="m560 459.5l3.3-3.4h6.7v6.7l-3.3 10-6.7-3.3z"/>
		<path id="Path 194" class="s73" d="m473.3 456.1l5-1.6h3.4l16.6 5v10l8.4 6.7v11.6l-10-1.6h-13.4l-1.6 5-5 3.3-8.4-1.7-5-8.3-23.3 5-11.7 1.7-5-1.7-3.3-6.7h-15l-3.3 6.7-6.7 5-10-3.3-5 5-8.3-5-1.7-20 5-1.7 21.7-3.4 10-1.6h6.6l13.4-1.7h5 6.6l6.7-1.7h3.3l11.7-1.6 11.7-3.4z"/>
		<path id="Path 195" class="s59" d="m471.7 456.1h1.6v1.7h-1.6z"/>
		<path id="Path 196" class="s59" d="m478.3 454.5l3.4-1.7v1.7z"/>
		<path id="Path 197" class="s19" d="m526.7 462.8v-13.3h16.6v10 8.3z"/>
		<path id="Path 198" class="s67" d="m481.7 452.8l15-5 6.6 11.7h-5l-16.6-5z"/>
		<path id="Path 199" class="s43" d="m570 456.1v-11.6h1.7l-1.7 18.3z"/>
		<path id="Path 200" class="s78" d="m496.7 447.8l15-5h11.6l3.4 6.7v13.3l-3.4 1.7h-8.3l-11.7-5z"/>
		<path id="Path 201" class="s25" d="m511.7 442.8l31.6-8.3v15h-16.6l-3.4-6.7z"/>
		<path id="Path 202" class="s77" d="m563.3 456.1l-6.6-10v-13.3h13.3v11.7 11.6z"/>
		<path id="Path 203" class="s79" d="m543.3 434.5l13.4-1.7v13.3l6.6 10-3.3 3.4h-16.7v-10z"/>
		<path id="Path 204" class="s0" d="m570 432.8v-1.7h8.3l-6.6 13.4h-1.7z"/>
		<path id="Path 205" class="s49" d="m556.7 432.8l13.3-1.7v1.7z"/>
	</g>
</svg>