<svg version="1.2" xmlns="http://www.w3.org/2000/svg" viewBox="0 0 1000 1000" width="1000" height="1000">
	<title>Notropis_texanus</title>
	<style>
		.s0 { fill: #3b5f83 } 
		.s1 { fill: #295069 } 
		.s2 { fill: #204965 } 
		.s3 { fill: #2b4e72 } 
		.s4 { fill: #143446 } 
		.s5 { fill: #294e5e } 
		.s6 { fill: #335367 } 
		.s7 { fill: #647c8f } 
		.s8 { fill: #577489 } 
		.s9 { fill: #6082a0 } 
		.s10 { fill: #879cb1 } 
		.s11 { fill: #45749a } 
		.s12 { fill: #6a869a } 
		.s13 { fill: #416b96 } 
		.s14 { fill: #668db3 } 
		.s15 { fill: #718fb4 } 
		.s16 { fill: #224457 } 
		.s17 { fill: #a3c0e5 } 
		.s18 { fill: #8aa7ca } 
		.s19 { fill: #accbf1 } 
		.s20 { fill: #385f78 } 
		.s21 { fill: #7aa8d8 } 
		.s22 { fill: #95b1d5 } 
		.s23 { fill: #315775 } 
		.s24 { fill: #506a77 } 
		.s25 { fill: #5c737b } 
		.s26 { fill: #6587a9 } 
		.s27 { fill: #2d4a54 } 
		.s28 { fill: #88acd6 } 
		.s29 { fill: #476477 } 
		.s30 { fill: #2a4c62 } 
		.s31 { fill: #7b95ab } 
		.s32 { fill: #9ab6dc } 
		.s33 { fill: #2b5b85 } 
		.s34 { fill: #a8b4ba } 
		.s35 { fill: #93accb } 
		.s36 { fill: #365259 } 
		.s37 { fill: #5c7c9c } 
		.s38 { fill: #405b69 } 
		.s39 { fill: #51799b } 
		.s40 { fill: #4f7190 } 
		.s41 { fill: #7fa1bc } 
		.s42 { fill: #5490ca } 
		.s43 { fill: #5b7b94 } 
		.s44 { fill: #496368 } 
		.s45 { fill: #5a7692 } 
		.s46 { fill: #89b1e0 } 
		.s47 { fill: #649bd5 } 
		.s48 { fill: #436889 } 
		.s49 { fill: #0a2331 } 
		.s50 { fill: #537da7 } 
		.s51 { fill: #3871a7 } 
		.s52 { fill: #447aad } 
		.s53 { fill: #6ba3dd } 
		.s54 { fill: #b5c3af } 
		.s55 { fill: #1f4b71 } 
		.s56 { fill: #4986be } 
		.s57 { fill: #326592 } 
		.s58 { fill: #4e81b0 } 
		.s59 { fill: #588cbb } 
		.s60 { fill: #245177 } 
		.s61 { fill: #145287 } 
		.s62 { fill: #123d5b } 
		.s63 { fill: #8fb4e5 } 
		.s64 { fill: #92a7b7 } 
		.s65 { fill: #a1ae94 } 
		.s66 { fill: #9ec5ef } 
		.s67 { fill: #223f47 } 
		.s68 { fill: #526866 } 
		.s69 { fill: #6d93be } 
		.s70 { fill: #7798ba } 
		.s71 { fill: #7aa5cd } 
		.s72 { fill: #769cc7 } 
		.s73 { fill: #7baee3 } 
		.s74 { fill: #5a84ac } 
		.s75 { fill: #5b6e68 } 
		.s76 { fill: #384f4a } 
		.s77 { fill: #435953 } 
		.s78 { fill: #4d615a } 
		.s79 { fill: #2e4646 } 
		.s80 { fill: #748da3 } 
		.s81 { fill: #d5dde4 } 
		.s82 { fill: #243e39 } 
	</style>
	<g id="Background">
		<path id="Path 0" class="s0" d="m436.7 589.5l8.3-6.6h3.3v8.3z"/>
		<path id="Path 1" class="s1" d="m448.3 582.9l26.7-1.7-1.7 10h-25z"/>
		<path id="Path 2" class="s2" d="m425 586.2l-1.7-13.3 15 3.3 6.7 6.7-8.3 6.6z"/>
		<path id="Path 3" class="s3" d="m405 577.9l1.7-11.7h6.6l10 6.7 1.7 13.3z"/>
		<path id="Path 4" class="s4" d="m301.7 592.9l-18.4-16.7v-10h6.7l10 1.7 8.3 10 1.7 3.3v10z"/>
		<path id="Path 5" class="s5" d="m275 582.9v-16.7h8.3v10l18.4 16.7-23.4-5z"/>
		<path id="Path 6" class="s6" d="m261.7 571.2l1.6-5h11.7v16.7z"/>
		<path id="Path 7" class="s7" d="m290 566.2l20-1.7h15v3.4h-23.3l6.6 10-8.3-10z"/>
		<path id="Path 8" class="s8" d="m396.7 572.9v-10l10 3.3-1.7 11.7z"/>
		<path id="Path 9" class="s9" d="m256.7 566.2v-3.3l6.6 3.3-1.6 5z"/>
		<path id="Path 10" class="s10" d="m330 562.9l16.7-1.7 1.6 6.7h-23.3v-3.4z"/>
		<path id="Path 11" class="s9" d="m346.7 561.2l23.3-1.7v8.4h-21.7z"/>
		<path id="Path 12" class="s11" d="m453.3 557.9l13.4-1.7 8.3 25-26.7 1.7h-3.3l-6.7-6.7 3.4-16.7z"/>
		<path id="Path 13" class="s11" d="m466.7 556.2v-1.7l10 1.7z"/>
		<path id="Path 14" class="s12" d="m373.3 552.9l18.4-1.7 5 11.7v10l-26.7-5v-8.4z"/>
		<path id="Path 15" class="s13" d="m598.3 551.2l11.7-1.7 1.7 16.7-18.4 3.3z"/>
		<path id="Path 16" class="s13" d="m440 547.9l13.3-1.7v11.7l-11.6 1.6z"/>
		<path id="Path 17" class="s14" d="m413.3 566.2l-1.6-20h5 18.3l5 1.7 1.7 11.6-3.4 16.7-15-3.3z"/>
		<path id="Path 18" class="s15" d="m391.7 551.2l5-5h15l1.6 20h-6.6l-10-3.3z"/>
		<path id="Path 19" class="s16" d="m466.7 554.5v-11.6h8.3 5v13.3h-3.3z"/>
		<path id="Path 20" class="s0" d="m453.3 544.5l10-1.6h3.4v11.6 1.7l-13.4 1.7v-11.7z"/>
		<path id="Path 21" class="s17" d="m280 549.5h13.3l3.4-6.6h13.3v21.6l-20 1.7h-6.7z"/>
		<path id="Path 22" class="s18" d="m240 564.5l-3.3-20 13.3-1.6 6.7 20v3.3z"/>
		<path id="Path 23" class="s8" d="m168.3 551.2l1.7-8.3h6.7v10z"/>
		<path id="Path 24" class="s19" d="m310 542.9h20v20l-5 1.6h-15z"/>
		<path id="Path 25" class="s20" d="m526.7 549.5l6.6-1.6v-8.4h6.7l6.7 3.4v18.3l-23.4-6.7z"/>
		<path id="Path 26" class="s21" d="m435 546.2l1.7-6.7h8.3l8.3 5v1.7l-13.3 1.7z"/>
		<path id="Path 27" class="s0" d="m546.7 542.9l8.3-6.7h8.3 10l3.4 10h10l11.6 5-5 18.3-46.6-8.3z"/>
		<path id="Path 28" class="s5" d="m526.7 549.5l-3.4-15h6.7l3.3 5v8.4z"/>
		<path id="Path 29" class="s6" d="m500 536.2l23.3-1.7 3.4 15-3.4 5-26.6-5-5 6.7h-11.7v-13.3z"/>
		<path id="Path 30" class="s3" d="m573.3 536.2v-3.4h11.7l1.7 13.4h-10z"/>
		<path id="Path 31" class="s17" d="m396.7 546.2v-13.4h21.6l-1.6 13.4h-5z"/>
		<path id="Path 32" class="s18" d="m276.7 536.2l6.6-3.4 10 3.4 3.4 6.7-3.4 6.6h-13.3z"/>
		<path id="Path 33" class="s22" d="m250 542.9l11.7-10 15 3.3 3.3 13.3 3.3 16.7h-8.3-11.7l-6.6-3.3z"/>
		<path id="Path 34" class="s16" d="m530 534.5v-3.3h10v8.3h-6.7z"/>
		<path id="Path 35" class="s23" d="m585 532.9v-3.4h20l8.3 6.7-3.3 13.3-11.7 1.7-11.6-5z"/>
		<path id="Path 36" class="s24" d="m133.3 544.5l3.4-15h13.3l3.3 15-3.3 3.4z"/>
		<path id="Path 37" class="s25" d="m105 536.2l1.7-6.7h10l3.3 11.7z"/>
		<path id="Path 38" class="s26" d="m838.3 529.5l5-1.7h26.7z"/>
		<path id="Path 39" class="s5" d="m540 531.2l15-3.4v8.4l-8.3 6.7-6.7-3.4z"/>
		<path id="Path 40" class="s27" d="m555 527.8l8.3-1.6v10h-8.3z"/>
		<path id="Path 41" class="s28" d="m445 539.5v-13.3h11.7l6.6 5v11.7l-10 1.6z"/>
		<path id="Path 42" class="s17" d="m330 542.9l20-10 3.3-6.7h20v26.7l-3.3 6.6-23.3 1.7-16.7 1.7z"/>
		<path id="Path 43" class="s29" d="m170 531.2l5-5h8.3l-6.6 16.7h-6.7z"/>
		<path id="Path 44" class="s25" d="m150 529.5l1.7-3.3h3.3l15 5v11.7l-1.7 8.3-18.3-3.3 3.3-3.4z"/>
		<path id="Path 45" class="s30" d="m563.3 526.2l10-1.7v8.3 3.4h-10z"/>
		<path id="Path 46" class="s12" d="m261.7 532.9v-8.4l18.3 3.3 3.3 5.1-6.6 3.3z"/>
		<path id="Path 47" class="s31" d="m781.7 524.5l-11.7-1.7h6.7z"/>
		<path id="Path 48" class="s6" d="m573.3 524.5l3.4-3.3 6.6 1.6 1.7 6.7v3.4h-11.7z"/>
		<path id="Path 49" class="s32" d="m418.3 532.9l8.4-11.7 18.3 5v13.3h-8.3l-1.7 6.7h-18.3z"/>
		<path id="Path 50" class="s33" d="m875 527.8l1.7-6.6 10-1.7-5 8.3z"/>
		<path id="Path 51" class="s34" d="m743.3 521.2l-15-1.7h15z"/>
		<path id="Path 52" class="s14" d="m456.7 526.2l3.3-6.7h13.3l1.7 23.4h-8.3-3.4v-11.7z"/>
		<path id="Path 53" class="s32" d="m373.3 526.2l3.4-6.7h13.3l6.7 13.3v13.4l-5 5-18.4 1.7z"/>
		<path id="Path 54" class="s35" d="m203.3 521.2l5-1.7h11.7v10l-6.7 6.7h-10z"/>
		<path id="Path 55" class="s29" d="m583.3 522.8l6.7-6.6h20l6.7 5-3.4 15-8.3-6.7h-20z"/>
		<path id="Path 56" class="s22" d="m390 519.5l5-3.3 11.7 3.3 3.3-3.3h13.3l3.4 5-8.4 11.7h-21.6z"/>
		<path id="Path 57" class="s12" d="m183.3 526.2l15-10 5 5v15l-6.6 20-20-3.3v-10z"/>
		<path id="Path 58" class="s26" d="m473.3 516.2l16.7-3.4h10v23.4l-20 6.7h-5l-1.7-23.4z"/>
		<path id="Path 59" class="s32" d="m280 527.8v-15l36.7 3.4 33.3-3.4 3.3 13.4-3.3 6.7-20 10h-20-13.3l-3.4-6.7-10-3.3z"/>
		<path id="Path 60" class="s10" d="m220 519.5l3.3-6.7h6.7 16.7l11.6 3.4 3.4 8.3v8.4l-11.7 10-13.3 1.6 3.3 20-43.3-8.3 6.6-20h10l6.7-6.7z"/>
		<path id="Path 61" class="s26" d="m155 526.2l3.3-11.7 8.4-1.7 8.3 13.4-5 5z"/>
		<path id="Path 62" class="s6" d="m743.3 519.5v-10h6.7v11.7h-6.7z"/>
		<path id="Path 63" class="s9" d="m500 512.8l6.7-3.3 18.3 1.7 5 20v3.3h-6.7l-23.3 1.7z"/>
		<path id="Path 64" class="s18" d="m395 516.2v-6.7h11.7l3.3 6.7-3.3 3.3z"/>
		<path id="Path 65" class="s26" d="m136.7 529.5v-20h8.3l6.7 16.7-1.7 3.3z"/>
		<path id="Path 66" class="s36" d="m726.7 519.5l3.3-11.7 13.3 1.7v10h-15z"/>
		<path id="Path 67" class="s26" d="m525 511.2l15-5h13.3 18.4l5 15-3.4 3.3-10 1.7-8.3 1.6-15 3.4h-10z"/>
		<path id="Path 68" class="s18" d="m350 512.8l3.3-6.6h20l3.4 1.6v11.7l-3.4 6.7h-20z"/>
		<path id="Path 69" class="s22" d="m258.3 516.2l1.7-10h13.3l6.7 6.6v15l-18.3-3.3z"/>
		<path id="Path 70" class="s37" d="m198.3 516.2l10-10h5l-5 13.3-5 1.7z"/>
		<path id="Path 71" class="s24" d="m80 519.5l10-3.3v-10h13.3l3.4 23.3-1.7 6.7z"/>
		<path id="Path 72" class="s38" d="m68.3 509.5l20-3.3h1.7v10l-10 3.3z"/>
		<path id="Path 73" class="s28" d="m376.7 507.8l15-3.3 3.3 5v6.7l-5 3.3h-13.3z"/>
		<path id="Path 74" class="s19" d="m246.7 512.8v-10l13.3 3.4-1.7 10z"/>
		<path id="Path 75" class="s17" d="m223.3 512.8v-11.6h5l1.7 11.6z"/>
		<path id="Path 76" class="s22" d="m213.3 506.2l10-5v11.6l-3.3 6.7h-11.7z"/>
		<path id="Path 77" class="s39" d="m473.3 516.2v-16.7h3.4 13.3v13.3z"/>
		<path id="Path 78" class="s40" d="m460 519.5l3.3-20h10v16.7 3.3z"/>
		<path id="Path 79" class="s41" d="m228.3 501.2v-1.7h6.7l11.7 3.3v10h-16.7z"/>
		<path id="Path 80" class="s8" d="m103.3 506.2v-6.7l8.4 1.7 6.6 8.3 16.7-1.7 1.7 1.7v20l-3.4 15-13.3-3.3-3.3-11.7h-10z"/>
		<path id="Path 81" class="s9" d="m590 516.2l1.7-18.4h15l3.3 5v13.4z"/>
		<path id="Path 82" class="s20" d="m776.7 522.8v-26.6h16.6l3.4 15 16.6 5 3.4 13.3-35-5z"/>
		<path id="Path 83" class="s26" d="m630 499.5l15-3.3h11.7l3.3 20-43.3 5-6.7-5v-13.4z"/>
		<path id="Path 84" class="s42" d="m391.7 504.5l5-8.3h10v13.3h-11.7z"/>
		<path id="Path 85" class="s29" d="m135 507.8l8.3-11.6 5 1.6-3.3 11.7h-8.3z"/>
		<path id="Path 86" class="s9" d="m670 516.2v-23.4h16.7l6.6 1.7-1.6 20z"/>
		<path id="Path 87" class="s43" d="m540 496.2l6.7-3.4h6.6v13.4h-13.3z"/>
		<path id="Path 88" class="s14" d="m463.3 499.5v-6.7h1.7 11.7v6.7h-3.4z"/>
		<path id="Path 89" class="s44" d="m730 491.2l8.3-1.7h11.7v20h-6.7l-13.3-1.7z"/>
		<path id="Path 90" class="s43" d="m693.3 494.5v-5l16.7 3.3v23.4l-18.3-1.7z"/>
		<path id="Path 91" class="s8" d="m656.7 496.2l1.6-6.7h8.4l3.3 3.3v23.4h-10z"/>
		<path id="Path 92" class="s43" d="m630 492.8l6.7-3.3 8.3 6.7-15 3.3z"/>
		<path id="Path 93" class="s45" d="m606.7 497.8l10-8.3 13.3 3.3v6.7l-20 3.3z"/>
		<path id="Path 94" class="s8" d="m553.3 492.8l5-3.3h26.7l6.7 8.3-1.7 18.4-6.7 6.6-6.6-1.6-5-15h-18.4z"/>
		<path id="Path 95" class="s8" d="m710 492.8l15-5 5 3.4v16.6l-3.3 11.7-16.7-3.3z"/>
		<path id="Path 96" class="s45" d="m506.7 509.5v-11.7l18.3-10h8.3l6.7 8.4v10l-15 5z"/>
		<path id="Path 97" class="s46" d="m193.3 491.2l16.7-1.7-1.7 16.7-10 10-15 10h-8.3l-8.3-13.4 3.3-16.6 6.7-5 13.3 3.3z"/>
		<path id="Path 98" class="s29" d="m686.7 492.8v-6.6h3.3l3.3 3.3v5z"/>
		<path id="Path 99" class="s47" d="m353.3 491.2l6.7-5h6.7l6.6 20h-20z"/>
		<path id="Path 100" class="s48" d="m228.3 499.5l-1.6-13.3h8.3v13.3z"/>
		<path id="Path 101" class="s2" d="m143.3 496.2l1.7-10h8.3l1.7 3.3-6.7 8.3z"/>
		<path id="Path 102" class="s49" d="m113.3 494.5l-5-8.3h21.7l-5 10z"/>
		<path id="Path 103" class="s50" d="m210 486.2h16.7l1.6 13.3v1.7h-5l-10 5h-5l1.7-16.7z"/>
		<path id="Path 104" class="s21" d="m155 489.5l8.3-5 6.7 11.7-3.3 16.6-8.4 1.7-3.3 11.7h-3.3l-6.7-16.7 3.3-11.7z"/>
		<path id="Path 105" class="s37" d="m823.3 482.8h1.7v1.7h-1.7z"/>
		<path id="Path 106" class="s6" d="m776.7 496.2l3.3-13.4h13.3v13.4z"/>
		<path id="Path 107" class="s40" d="m506.7 486.2l10-3.4h6.6l1.7 5-18.3 10v11.7l-6.7 3.3h-10v-13.3l6.7-6.7h6.6z"/>
		<path id="Path 108" class="s11" d="m496.7 484.5l6.6-1.7h3.4v3.4l-3.4 6.6h-6.6z"/>
		<path id="Path 109" class="s50" d="m476.7 492.8l18.3-10 1.7 1.7v8.3l-6.7 6.7h-13.3z"/>
		<path id="Path 110" class="s51" d="m396.7 496.2l3.3-13.4h6.7v13.4z"/>
		<path id="Path 111" class="s4" d="m176.7 489.5l-6.7-6.7h10z"/>
		<path id="Path 112" class="s0" d="m163.3 484.5v-1.7h3.4 3.3l6.7 6.7v1.7l-6.7 5z"/>
		<path id="Path 113" class="s49" d="m63.3 487.8l5-5h5 6.7l10 13.4-1.7 10-20 3.3-1.6-1.7-1.7-3.3-1.7-3.3v-1.7z"/>
		<path id="Path 114" class="s47" d="m235 486.2l3.3-5 31.7 3.3 3.3 21.7h-13.3l-13.3-3.4-11.7-3.3z"/>
		<path id="Path 115" class="s52" d="m348.3 484.5v-5h5l6.7 1.7v5l-6.7 5z"/>
		<path id="Path 116" class="s53" d="m273.3 481.2l8.4 5 1.6-6.7h8.4l-1.7 6.7h6.7l5-6.7h13.3l8.3 3.3 1.7 6.7h5l3.3-6.7h5l3.4 6.7 6.6-5 5 6.7v15l-3.3 6.6-33.3 3.4-36.7-3.4-6.7-6.6-3.3-21.7z"/>
		<path id="Path 117" class="s13" d="m180 482.8l8.3-3.3 5 11.7-3.3 3.3-13.3-3.3v-1.7z"/>
		<path id="Path 118" class="s54" d="m103.3 499.5l-5-6.7 1.7-13.3 8.3 5v1.7l5 8.3-1.6 6.7z"/>
		<path id="Path 119" class="s38" d="m68.3 482.8l5-3.3v3.3z"/>
		<path id="Path 120" class="s55" d="m843.3 527.8l-26.6-20-6.7-10v-20h8.3l5 5 1.7 1.7 5 3.3 18.3 8.4 5 1.6h1.7l5 1.7h1.7l5 1.7 11.6 3.3 8.4 15-10 1.7-1.7 6.6h-5z"/>
		<path id="Path 121" class="s56" d="m406.7 482.8l5-5 11.6 1.7 21.7-1.7 5 3.4 13.3 11.6v6.7l-3.3 20-3.3 6.7h-11.7l-18.3-5-3.4-5h-13.3l-3.3-6.7v-13.3z"/>
		<path id="Path 122" class="s57" d="m338.3 482.8l10-3.3v5l-6.6 5z"/>
		<path id="Path 123" class="s57" d="m328.3 479.5l5-1.7v5l-3.3 6.7h-5l-1.7-6.7z"/>
		<path id="Path 124" class="s33" d="m445 477.8l5-1.6v5z"/>
		<path id="Path 125" class="s33" d="m291.7 477.8l10 1.7-5 6.7h-6.7l1.7-6.7z"/>
		<path id="Path 126" class="s58" d="m533.3 482.8l3.4-8.3h8.3l1.7 18.3-6.7 3.4-6.7-8.4z"/>
		<path id="Path 127" class="s59" d="m523.3 482.8v-8.3h8.4l1.6 8.3v5h-8.3z"/>
		<path id="Path 128" class="s20" d="m793.3 472.8v10h-13.3v-10z"/>
		<path id="Path 129" class="s4" d="m720 481.2l1.7-6.7 16.6-1.7v16.7l-8.3 1.7-5-3.4z"/>
		<path id="Path 130" class="s60" d="m690 486.2l3.3-13.4h10l16.7 8.4 5 6.6-15 5-16.7-3.3z"/>
		<path id="Path 131" class="s13" d="m686.7 486.2l3.3-13.4h3.3l-3.3 13.4z"/>
		<path id="Path 132" class="s56" d="m506.7 482.8l1.6-10h8.4v10l-10 3.4z"/>
		<path id="Path 133" class="s61" d="m503.3 482.8v-10h5l-1.6 10z"/>
		<path id="Path 134" class="s42" d="m495 482.8l-1.7-10h6.7 3.3v10l-6.6 1.7z"/>
		<path id="Path 135" class="s60" d="m460 474.5l5-1.7v13.4l-5-1.7z"/>
		<path id="Path 136" class="s42" d="m450 476.2v-3.4l10 1.7v10l5 1.7v6.6h-1.7l-13.3-11.6z"/>
		<path id="Path 137" class="s58" d="m366.7 486.2l20-13.4 5 3.4 6.6-3.4 1.7 10-3.3 13.4-5 8.3-15 3.3-3.4-1.6z"/>
		<path id="Path 138" class="s33" d="m273.3 477.8l10-5v6.7l-1.6 6.7-8.4-5z"/>
		<path id="Path 139" class="s62" d="m108.3 484.5l10-11.7 10 3.4 1.7 10h-21.7z"/>
		<path id="Path 140" class="s49" d="m738.3 472.8l8.4-1.6 6.6 5-3.3 13.3h-11.7z"/>
		<path id="Path 141" class="s57" d="m560 474.5l15-3.3 13.3 3.3 21.7-3.3 6.7 6.6v11.7l-10 8.3h-15l-6.7-8.3h-26.7z"/>
		<path id="Path 142" class="s52" d="m545 474.5l8.3-3.3 6.7 3.3-1.7 15-5 3.3h-6.6z"/>
		<path id="Path 143" class="s33" d="m531.7 474.5l5-3.3v3.3l-3.4 8.3z"/>
		<path id="Path 144" class="s57" d="m516.7 472.8l6.6 1.7v8.3h-6.6z"/>
		<path id="Path 145" class="s59" d="m465 472.8l5-1.6 23.3 1.6 1.7 10-18.3 10h-11.7v-6.6z"/>
		<path id="Path 146" class="s23" d="m793.3 472.8l10-3.3 6.7 8.3v20l6.7 10 26.6 20-5 1.7h-21.6l-3.4-13.3-16.6-5-3.4-15v-13.4z"/>
		<path id="Path 147" class="s33" d="m616.7 472.8l10-3.3h6.6l6.7 1.7-3.3 18.3-6.7 3.3-13.3-3.3v-11.7z"/>
		<path id="Path 148" class="s57" d="m226.7 471.2l3.3-1.7 11.7 5 5-5 26.6 8.3v3.4l-3.3 3.3-31.7-3.3-3.3 5h-8.3z"/>
		<path id="Path 149" class="s40" d="m633.3 466.1v3.4h-6.6v-3.4z"/>
		<path id="Path 150" class="s63" d="m163.3 482.8l-5-8.3 3.4-8.4h3.3l1.7 16.7z"/>
		<path id="Path 151" class="s64" d="m128.3 476.2l3.4-10.1 11.6 6.7 1.7 13.4-1.7 10-8.3 11.6-16.7 1.7-6.6-8.3 1.6-6.7 11.7 1.7 5-10z"/>
		<path id="Path 152" class="s65" d="m108.3 469.5l23.4-3.4-3.4 10.1-10-3.4-10 11.7-8.3-5z"/>
		<path id="Path 153" class="s13" d="m643.3 466.1h18.4l5 23.4h-8.4l-1.6 6.7h-11.7l-8.3-6.7 3.3-18.3z"/>
		<path id="Path 154" class="s29" d="m93.3 464.5h1.7v1.6h-1.7z"/>
		<path id="Path 155" class="s63" d="m386.7 472.8v-10h11.6v10l-6.6 3.4z"/>
		<path id="Path 156" class="s20" d="m180 467.8l3.3-5h10 5l11.7 23.4v3.3l-16.7 1.7-5-11.7z"/>
		<path id="Path 157" class="s39" d="m165 466.1l6.7-3.3 8.3 5 8.3 11.7-8.3 3.3h-10-3.3z"/>
		<path id="Path 158" class="s58" d="m153.3 486.2l-6.6-20.1 10-3.3 5 3.3-3.4 8.4 5 8.3v1.7l-8.3 5z"/>
		<path id="Path 159" class="s15" d="m633.3 466.1v-5h6.7l3.3 5-3.3 5.1-6.7-1.7z"/>
		<path id="Path 160" class="s66" d="m246.7 467.8l-3.4-6.7 6.7 3.4z"/>
		<path id="Path 161" class="s67" d="m100 462.8l6.7-1.7 1.6 8.4-8.3 10-1.7 13.3 5 6.7v6.7h-13.3-1.7l1.7-10-10-13.4h-6.7v-3.3l20-13.4 1.7-1.6h1.7z"/>
		<path id="Path 162" class="s68" d="m661.7 466.1l3.3-6.6h16.7l8.3 13.3-3.3 13.4v6.6h-16.7l-3.3-3.3z"/>
		<path id="Path 163" class="s69" d="m616.7 466.1l8.3-6.6 1.7 6.6v3.4l-10 3.3z"/>
		<path id="Path 164" class="s70" d="m575 466.1l1.7-5 11.6-1.6h23.4l5 6.6v6.7 5l-6.7-6.6-21.7 3.3-13.3-3.3z"/>
		<path id="Path 165" class="s71" d="m450 462.8l15-3.3h5v11.7l-5 1.6-5 1.7-10-1.7z"/>
		<path id="Path 166" class="s72" d="m316.7 462.8l1.6-3.3h6.7l3.3 20-5 3.3-8.3-3.3z"/>
		<path id="Path 167" class="s38" d="m746.7 461.1l11.6-3.3 6.7 6.7h13.3l1.7 8.3v10l-3.3 13.4v26.6h-6.7l-20-1.6v-11.7-20l3.3-13.3-6.6-5z"/>
		<path id="Path 168" class="s21" d="m355 472.8l10-5v-10l21.7 1.7v3.3 10l-20 13.4h-6.7v-5l-6.7-1.7z"/>
		<path id="Path 169" class="s63" d="m353.3 459.5l8.4-1.7h3.3v10l-10 5z"/>
		<path id="Path 170" class="s71" d="m500 459.5l21.7-3.4 15 1.7 3.3 5 6.7-5 13.3 3.3 5-3.3 10 8.3v5.1l-15 3.3-6.7-3.3-8.3 3.3h-8.3v-3.3l-5 3.3h-8.4l-6.6-1.7h-8.4-5-3.3z"/>
		<path id="Path 171" class="s63" d="m250 464.5l5-8.4 31.7 1.7 5 20v1.7h-8.4v-6.7l-10 5-26.6-8.3v-1.7z"/>
		<path id="Path 172" class="s36" d="m198.3 462.8v-6.7h16.7l11.7 15.1v15h-16.7z"/>
		<path id="Path 173" class="s67" d="m198.3 456.1v6.7h-5v-6.7z"/>
		<path id="Path 174" class="s41" d="m470 459.5l5-5 25 5v13.3h-6.7l-23.3-1.6z"/>
		<path id="Path 175" class="s73" d="m401.7 456.1l3.3-1.6 11.7 6.6 6.6 18.4-11.6-1.7-5 5h-6.7l-1.7-10v-10z"/>
		<path id="Path 176" class="s28" d="m286.7 457.8l11.6-1.7 6.7 8.4 11.7-1.7-1.7 16.7h-13.3l-10-1.7z"/>
		<path id="Path 177" class="s68" d="m703.3 472.8l3.4-20h13.3 13.3l13.4 8.3v10.1l-8.4 1.6-16.6 1.7-1.7 6.7z"/>
		<path id="Path 178" class="s25" d="m565 457.8v-5h8.3 10l5 6.7-11.6 1.6-1.7 5z"/>
		<path id="Path 179" class="s69" d="m418.3 454.5l18.4-1.7 8.3 1.7 5 8.3v10 3.4l-5 1.6-21.7 1.7-6.6-18.4z"/>
		<path id="Path 180" class="s69" d="m230 456.1l16.7-3.3 8.3 3.3-5 8.4-6.7-3.4 3.4 6.7v1.7l-5 5-11.7-5z"/>
		<path id="Path 181" class="s74" d="m215 456.1l1.7-3.3 13.3 3.3v13.4l-3.3 1.7z"/>
		<path id="Path 182" class="s15" d="m388.3 452.8l8.4-1.7 5 5-3.4 6.7h-11.6v-3.3z"/>
		<path id="Path 183" class="s24" d="m465 459.5v-10h10v5l-5 5z"/>
		<path id="Path 184" class="s9" d="m405 451.1l1.7-1.6 11.6 5-1.6 6.6-11.7-6.6z"/>
		<path id="Path 185" class="s26" d="m396.7 451.1h8.3v3.4l-3.3 1.6z"/>
		<path id="Path 186" class="s71" d="m325 459.5l13.3-10h8.4v6.6l6.6 3.4 1.7 13.3-1.7 6.7h-5l-10 3.3h-5v-5l-5 1.7z"/>
		<path id="Path 187" class="s14" d="m298.3 456.1l3.4-6.6h6.6l10 10-1.6 3.3-11.7 1.7z"/>
		<path id="Path 188" class="s1" d="m803.3 469.5v-15l10-8.4h15l5 10-11.6 10-3.4 11.7h-8.3z"/>
		<path id="Path 189" class="s75" d="m521.7 456.1v-10h15l25 3.4 3.3 3.3v5l-5 3.3-13.3-3.3-6.7 5-3.3-5z"/>
		<path id="Path 190" class="s12" d="m436.7 452.8l6.6-6.7h18.4l3.3 3.4v10l-15 3.3-5-8.3z"/>
		<path id="Path 191" class="s4" d="m153.3 447.8l5-1.7h1.7 5l6.7 6.7v10l-6.7 3.3h-3.3l-5-3.3-10 3.3 6.6 20.1h-8.3l-1.7-13.4-11.6-6.7-23.4 3.4-1.6-8.4 10-3.3 5-1.7 18.3-5 5-1.6h1.7l5-1.7z"/>
		<path id="Path 192" class="s76" d="m706.7 446.1l13.3-1.6v8.3h-13.3z"/>
		<path id="Path 193" class="s68" d="m480 446.1h41.7v10l-21.7 3.4-25-5v-5z"/>
		<path id="Path 194" class="s9" d="m366.7 446.1l5-1.6 15 3.3 1.6 5-1.6 6.7-21.7-1.7h-3.3z"/>
		<path id="Path 195" class="s29" d="m160 446.1l5-1.6v1.6z"/>
		<path id="Path 196" class="s27" d="m720 444.5l6.7-1.7h6.6v10h-13.3z"/>
		<path id="Path 197" class="s77" d="m583.3 452.8l1.7-10h11.7l31.6 1.7 11.7 1.6h66.7v6.7l-3.4 20h-10-3.3l-8.3-13.3h-16.7l-3.3 6.6h-18.4l-3.3-5h-6.7v5h-6.6l-1.7-6.6-8.3 6.6-5-6.6h-23.4z"/>
		<path id="Path 198" class="s38" d="m216.7 452.8v-10h30v10l-16.7 3.3z"/>
		<path id="Path 199" class="s31" d="m726.7 442.8l6.6-1.7v1.7z"/>
		<path id="Path 200" class="s10" d="m585 442.8v-1.7l11.7 1.7z"/>
		<path id="Path 201" class="s78" d="m573.3 452.8v-13.3l11.7 1.6v1.7l-1.7 10z"/>
		<path id="Path 202" class="s77" d="m561.7 449.5l1.6-10h10v13.3h-8.3z"/>
		<path id="Path 203" class="s68" d="m406.7 449.5l1.6-10 35 3.3v3.3l-6.6 6.7-18.4 1.7z"/>
		<path id="Path 204" class="s24" d="m346.7 449.5l1.6-10h13.4l5 6.6-5 11.7-8.4 1.7-6.6-3.4z"/>
		<path id="Path 205" class="s49" d="m180 441.1l5-1.6h1.7 5l1.6 16.6v6.7h-10l-3.3 5-8.3-5v-10l-6.7-6.7v-1.6h1.7l5-1.7h1.6l5-1.7z"/>
		<path id="Path 206" class="s5" d="m740 439.5l8.3-1.7 1.7 8.3 8.3 1.7v10l-11.6 3.3-13.4-8.3v-10-1.7h1.7z"/>
		<path id="Path 207" class="s7" d="m186.7 439.5l5-1.7v1.7z"/>
		<path id="Path 208" class="s6" d="m748.3 437.8l16.7-1.7 1.7 3.4-1.7 6.6-6.7 1.7-8.3-1.7z"/>
		<path id="Path 209" class="s79" d="m536.7 446.1v-10l26.6 3.4-1.6 10z"/>
		<path id="Path 210" class="s77" d="m461.7 446.1l3.3-10h15v10l-5 3.4h-10z"/>
		<path id="Path 211" class="s44" d="m246.7 442.8l5-8.3 96.6 5-1.6 10h-8.4l-13.3 10h-6.7l-10-10h-6.6l-3.4 6.6-11.6 1.7-31.7-1.7-8.3-3.3z"/>
		<path id="Path 212" class="s20" d="m765 436.1l20-3.3-3.3 6.7h-15z"/>
		<path id="Path 213" class="s27" d="m198.3 436.1l16.7-3.3 1.7 10v10l-1.7 3.3h-16.7-5l-1.6-16.6v-1.7h1.6z"/>
		<path id="Path 214" class="s76" d="m493.3 432.8h18.4l25 3.3v10h-15-41.7v-10z"/>
		<path id="Path 215" class="s30" d="m800 431.1l6.7-1.6h1.6 5v16.6l-10 8.4v15l-10 3.3h-13.3l-1.7-8.3h-13.3l-6.7-6.7v-10l6.7-1.7 1.7-6.6h15l3.3-6.7h5l6.7-1.7z"/>
		<path id="Path 216" class="s77" d="m371.7 444.5l16.6-15h11.7l8.3 10-1.6 10-1.7 1.6h-8.3l-8.4 1.7-1.6-5z"/>
		<path id="Path 217" class="s37" d="m808.3 429.5l5-1.7v1.7z"/>
		<path id="Path 218" class="s79" d="m443.3 442.8l1.7-15h15l5 8.3-3.3 10h-18.4z"/>
		<path id="Path 219" class="s16" d="m480 436.1v-10h13.3v6.7z"/>
		<path id="Path 220" class="s79" d="m215 432.8l33.3-6.7h1.7l1.7 8.4-5 8.3h-30z"/>
		<path id="Path 221" class="s7" d="m248.3 426.1l8.4-1.6-6.7 1.6z"/>
		<path id="Path 222" class="s60" d="m856.7 442.8l-6.7-21.7h10l18.3 1.7 1.7 8.3z"/>
		<path id="Path 223" class="s3" d="m813.3 427.8l36.7-6.7 6.7 21.7-23.4 13.3-5-10h-15v-16.6z"/>
		<path id="Path 224" class="s67" d="m343.3 419.5l13.4-1.7h21.6 10v11.7l-16.6 15-5 1.6-5-6.6h-13.4l-96.6-5-1.7-8.4 6.7-1.6h1.6l6.7-1.7h3.3l10-1.7 36.7-1.6h15z"/>
		<path id="Path 225" class="s80" d="m343.3 419.5v-1.7h13.4z"/>
		<path id="Path 226" class="s34" d="m343.3 417.8v1.7h-13.3v-1.7z"/>
		<path id="Path 227" class="s81" d="m315 419.5l15-1.7v1.7z"/>
		<path id="Path 228" class="s80" d="m378.3 417.8l15-1.7-5 1.7z"/>
		<path id="Path 229" class="s82" d="m393.3 416.1l5-1.6 1.7 15h-11.7v-11.7z"/>
		<path id="Path 230" class="s67" d="m398.3 414.5l15-5 8.4 10 18.3 1.6 5 6.7-1.7 15-35-3.3-8.3-10z"/>
		<path id="Path 231" class="s20" d="m480 426.1l-3.3-16.6 6.6-6.7h10v23.3z"/>
		<path id="Path 232" class="s1" d="m466.7 392.8l6.6-1.7h10v11.7l-6.6 6.7 3.3 16.6v10h-15l-5-8.3h-15l-5-6.7-18.3-1.6-8.4-10 33.4-11.7 5-1.7z"/>
		<path id="Path 233" class="s80" d="m523.3 389.4h1.7v1.7h-1.7z"/>
		<path id="Path 234" class="s0" d="m493.3 402.8l-1.6-13.4h10 20 1.6l1.7 1.7-1.7 8.3-10 11.7-1.6 21.7h-18.4v-6.7z"/>
		<path id="Path 235" class="s3" d="m483.3 391.1l8.4-1.7 1.6 13.4h-10z"/>
	</g>
</svg>