<svg version="1.2" xmlns="http://www.w3.org/2000/svg" viewBox="0 0 1000 1000" width="1000" height="1000">
	<title>Notropis_heterolepis</title>
	<style>
		.s0 { fill: #798589 } 
		.s1 { fill: #767c76 } 
		.s2 { fill: #868c86 } 
		.s3 { fill: #646b64 } 
		.s4 { fill: #656856 } 
		.s5 { fill: #62634a } 
		.s6 { fill: #707d83 } 
		.s7 { fill: #6a7777 } 
		.s8 { fill: #706d62 } 
		.s9 { fill: #4f4d3d } 
		.s10 { fill: #746c44 } 
		.s11 { fill: #848d91 } 
		.s12 { fill: #6a7368 } 
		.s13 { fill: #5c6253 } 
		.s14 { fill: #625a31 } 
		.s15 { fill: #787a66 } 
		.s16 { fill: #8e8650 } 
		.s17 { fill: #696335 } 
		.s18 { fill: #5c5e37 } 
		.s19 { fill: #6d7159 } 
		.s20 { fill: #868979 } 
		.s21 { fill: #696b4b } 
		.s22 { fill: #787659 } 
		.s23 { fill: #5b6663 } 
		.s24 { fill: #515a51 } 
		.s25 { fill: #434630 } 
		.s26 { fill: #4c5035 } 
		.s27 { fill: #929085 } 
		.s28 { fill: #979a89 } 
		.s29 { fill: #cdd2cf } 
		.s30 { fill: #858467 } 
		.s31 { fill: #9ea397 } 
		.s32 { fill: #c5bea5 } 
		.s33 { fill: #565127 } 
		.s34 { fill: #b4ac89 } 
		.s35 { fill: #a7a99a } 
		.s36 { fill: #a5a18a } 
		.s37 { fill: #666441 } 
		.s38 { fill: #4f4a22 } 
		.s39 { fill: #3b381b } 
		.s40 { fill: #4a4d29 } 
		.s41 { fill: #bab79b } 
		.s42 { fill: #1a1d0d } 
		.s43 { fill: #a59c77 } 
		.s44 { fill: #938e67 } 
		.s45 { fill: #504c2d } 
		.s46 { fill: #565534 } 
		.s47 { fill: #8d9489 } 
		.s48 { fill: #cdcab5 } 
		.s49 { fill: #8a7842 } 
		.s50 { fill: #989d95 } 
		.s51 { fill: #d4c69a } 
		.s52 { fill: #7d8376 } 
		.s53 { fill: #f5f6f5 } 
		.s54 { fill: #b8b8aa } 
		.s55 { fill: #b1b0a5 } 
		.s56 { fill: #c0c4b7 } 
		.s57 { fill: #c4c9c8 } 
		.s58 { fill: #8e9795 } 
		.s59 { fill: #283638 } 
		.s60 { fill: #a9aea7 } 
		.s61 { fill: #9ea7a7 } 
		.s62 { fill: #afb4ab } 
		.s63 { fill: #b7bbb9 } 
		.s64 { fill: #ad9759 } 
		.s65 { fill: #abb2b5 } 
		.s66 { fill: #bf9d33 } 
		.s67 { fill: #b1af9a } 
		.s68 { fill: #434a3f } 
		.s69 { fill: #8d917b } 
		.s70 { fill: #4a5146 } 
		.s71 { fill: #383e2b } 
		.s72 { fill: #38443e } 
		.s73 { fill: #535f5f } 
		.s74 { fill: #969478 } 
		.s75 { fill: #444223 } 
		.s76 { fill: #303320 } 
		.s77 { fill: #6a6449 } 
		.s78 { fill: #2b2b12 } 
		.s79 { fill: #1a231e } 
	</style>
	<g id="Background">
		<path id="Path 0" class="s0" d="m463.3 626.2l13.4-11.6 20-6.7-10 23.3-13.4 1.7z"/>
		<path id="Path 1" class="s1" d="m440 606.2v-6.7h13.3l-3.3 16.7z"/>
		<path id="Path 2" class="s2" d="m440 606.2l-13.3-20 13.3 13.3z"/>
		<path id="Path 3" class="s3" d="m553.3 592.9l10-10h20l3.4 16.6-3.4 6.7z"/>
		<path id="Path 4" class="s4" d="m856.7 589.5v-13.3h20l3.3 11.7-6.7 3.3z"/>
		<path id="Path 5" class="s5" d="m846.7 587.9v-11.7h10v13.3z"/>
		<path id="Path 6" class="s6" d="m876.7 576.2v-6.7h10l11.6 8.4 1.7 10-8.3 5-18.4-1.7 6.7-3.3z"/>
		<path id="Path 7" class="s6" d="m610 571.2l5-1.7-3.3 6.7z"/>
		<path id="Path 8" class="s7" d="m583.3 582.9v-13.4h10l16.7 1.7 1.7 5 1.6 25-15 8.4-15-3.4 3.4-6.7z"/>
		<path id="Path 9" class="s7" d="m453.3 599.5l1.7-33.3h18.3 10l11.7 1.7-1.7 10 6.7 8.3-3.3 21.7-20 6.7-13.4 11.6-13.3-10z"/>
		<path id="Path 10" class="s8" d="m221.7 566.2v5h-5v-5z"/>
		<path id="Path 11" class="s9" d="m221.7 566.2l16.6-1.7-1.6 6.7h-15z"/>
		<path id="Path 12" class="s10" d="m260 569.5v-6.6h21.7l13.3 3.3 3.3 8.3z"/>
		<path id="Path 13" class="s11" d="m876.7 569.5v-8.3l10 8.3z"/>
		<path id="Path 14" class="s12" d="m563.3 582.9v-21.7h5l15 8.3v13.4z"/>
		<path id="Path 15" class="s13" d="m531.7 574.5l15-13.3h16.6v21.7l-10 10z"/>
		<path id="Path 16" class="s14" d="m238.3 564.5l21.7-1.6v6.6l-23.3 1.7z"/>
		<path id="Path 17" class="s15" d="m386.7 572.9v-13.4h3.3 16.7l10 3.4v6.6z"/>
		<path id="Path 18" class="s16" d="m313.3 574.5v-10l8.4-5 38.3 3.4 6.7 10z"/>
		<path id="Path 19" class="s17" d="m201.7 561.2l3.3-1.7-1.7 6.7z"/>
		<path id="Path 20" class="s18" d="m183.3 562.9l10-3.4 8.4 1.7 1.6 5-8.3 5-11.7-1.7z"/>
		<path id="Path 21" class="s12" d="m426.7 586.2v-20l8.3-8.3h5l15 3.3v5l-1.7 33.3h-13.3z"/>
		<path id="Path 22" class="s19" d="m840 562.9v-6.7h3.3l8.4 5 5 15h-10z"/>
		<path id="Path 23" class="s20" d="m755 557.9l-5-1.7h5z"/>
		<path id="Path 24" class="s21" d="m840 562.9h-6.7l-1.6-8.4 8.3 1.7z"/>
		<path id="Path 25" class="s22" d="m370 572.9l3.3-18.4h3.4l10 5v13.4z"/>
		<path id="Path 26" class="s23" d="m593.3 554.5l28.4-1.6v3.3 1.7l-1.7 5-3.3 5-1.7 1.6-5 1.7-16.7-1.7z"/>
		<path id="Path 27" class="s24" d="m568.3 561.2l3.4-8.3h21.6v1.6 15h-10z"/>
		<path id="Path 28" class="s19" d="m458.3 556.2l15-3.3v13.3h-18.3v-5z"/>
		<path id="Path 29" class="s22" d="m170 569.5v-18.3h3.3 5v10l5 1.7v6.6z"/>
		<path id="Path 30" class="s10" d="m156.7 566.2l5-15h8.3v18.3z"/>
		<path id="Path 31" class="s2" d="m120 552.9l-3.3-1.7h1.6 1.7z"/>
		<path id="Path 32" class="s11" d="m621.7 552.9l1.6-3.4-1.6 6.7z"/>
		<path id="Path 33" class="s25" d="m508.3 559.5l-1.6-10h10 20l10 5v6.7l-15 13.3-15-15z"/>
		<path id="Path 34" class="s26" d="m483.3 566.2v-16.7h20 3.4l1.6 10-13.3 8.4z"/>
		<path id="Path 35" class="s21" d="m473.3 552.9l6.7-3.4h3.3v16.7h-10z"/>
		<path id="Path 36" class="s27" d="m390 559.5v-10h3.3 13.4v10z"/>
		<path id="Path 37" class="s28" d="m376.7 554.5l3.3-5h10v10h-3.3z"/>
		<path id="Path 38" class="s29" d="m250 552.9l-11.7 6.6v-10h5z"/>
		<path id="Path 39" class="s30" d="m205 559.5l6.7-10h3.3l1.7 16.7v5h-21.7l8.3-5z"/>
		<path id="Path 40" class="s31" d="m178.3 551.2l8.4-1.7h6.6v10l-10 3.4-5-1.7z"/>
		<path id="Path 41" class="s2" d="m115 549.5h1.7v1.7h-1.7z"/>
		<path id="Path 42" class="s14" d="m120 551.2l8.3-3.3 13.4 1.6-3.4 11.7-16.6-6.7-1.7-1.6z"/>
		<path id="Path 43" class="s2" d="m120 552.9h1.7v1.6h-1.7z"/>
		<path id="Path 44" class="s20" d="m623.3 549.5l10-3.3h13.4 33.3 6.7 6.6 28.4v1.7z"/>
		<path id="Path 45" class="s27" d="m440 557.9v-11.7h6.7l11.6 10-3.3 5z"/>
		<path id="Path 46" class="s32" d="m193.3 549.5l11.7-3.3 6.7 3.3-6.7 10-3.3 1.7-8.4-1.7z"/>
		<path id="Path 47" class="s28" d="m410 546.2l10-1.7 15 13.4-8.3 8.3v20l-10-16.7v-6.6l-10-3.4v-10z"/>
		<path id="Path 48" class="s33" d="m161.7 551.2v-6.7l11.6 1.7v5h-3.3z"/>
		<path id="Path 49" class="s34" d="m261.7 552.9l1.6-10h6.7l3.3 10z"/>
		<path id="Path 50" class="s18" d="m173.3 546.2l1.7-3.3h11.7v6.6l-8.4 1.7h-5z"/>
		<path id="Path 51" class="s10" d="m128.3 547.9l1.7-5 11.7 1.6v5z"/>
		<path id="Path 52" class="s5" d="m186.7 542.9l3.3-1.7 3.3 1.7v6.6h-6.6z"/>
		<path id="Path 53" class="s1" d="m843.3 556.2v-16.7l33.4 21.7v8.3 6.7h-20l-5-15z"/>
		<path id="Path 54" class="s18" d="m503.3 549.5v-10h13.4v10h-10z"/>
		<path id="Path 55" class="s35" d="m205 546.2l3.3-6.7h6.7v10h-3.3z"/>
		<path id="Path 56" class="s17" d="m141.7 544.5h11.6l1.7-5 6.7 5v6.7l-5 15-18.4-5 3.4-11.7z"/>
		<path id="Path 57" class="s2" d="m111.7 544.5l-1.7-5h1.7z"/>
		<path id="Path 58" class="s36" d="m215 539.5l1.7-1.6h5l16.6 11.6v10l11.7-6.6h11.7 11.6l8.4 3.3v6.7h-21.7l-21.7 1.6-16.6 1.7h-5l-1.7-16.7z"/>
		<path id="Path 59" class="s37" d="m766.7 561.2l6.6-10v-15h43.4l5 13.3h8.3l1.7 5 1.6 8.4h6.7l6.7 13.3v11.7z"/>
		<path id="Path 60" class="s33" d="m741.7 539.5l6.6-3.3 11.7 11.7v6.6l-5 1.7h-5l-10-3.3z"/>
		<path id="Path 61" class="s38" d="m721.7 546.2l1.6-10h8.4l10 3.3-1.7 13.4-18.3-5z"/>
		<path id="Path 62" class="s25" d="m693.3 536.2v10h-6.6v-10z"/>
		<path id="Path 63" class="s39" d="m680 546.2l-1.7-10h5 3.4v10z"/>
		<path id="Path 64" class="s40" d="m646.7 546.2l3.3-10h23.3 5l1.7 10z"/>
		<path id="Path 65" class="s25" d="m613.3 539.5l20-3.3v10l-10 3.3-1.6 3.4-28.4 1.6v-1.6l1.7-11.7z"/>
		<path id="Path 66" class="s41" d="m393.3 549.5v-13.3h10l6.7 10-3.3 3.3z"/>
		<path id="Path 67" class="s42" d="m111.7 539.5l13.3-3.3 5 6.7-1.7 5-8.3 3.3h-1.7l-1.6-1.7h-1.7l-1.7-1.6-1.6-3.4z"/>
		<path id="Path 68" class="s14" d="m116.7 549.5h1.6v1.7h-1.6z"/>
		<path id="Path 69" class="s2" d="m113.3 547.9h1.7v1.6h-1.7z"/>
		<path id="Path 70" class="s15" d="m830 549.5l1.7-15 11.6 5v16.7h-3.3l-8.3-1.7z"/>
		<path id="Path 71" class="s43" d="m316.7 534.5h11.6l1.7 10-13.3-3.3z"/>
		<path id="Path 72" class="s44" d="m308.3 537.9v-5l8.4 1.6v6.7z"/>
		<path id="Path 73" class="s36" d="m155 539.5v-6.6h5l15 5v5l-1.7 3.3-11.6-1.7z"/>
		<path id="Path 74" class="s14" d="m748.3 536.2l3.4-5h5l16.6 5v15l-6.6 10-11.7-3.3v-1.7l5-1.7v-6.6z"/>
		<path id="Path 75" class="s45" d="m693.3 536.2l3.4-5 21.6 3.3 5 1.7-1.6 10h-28.4z"/>
		<path id="Path 76" class="s19" d="m816.7 536.2l6.6-6.7h3.4l5 5-1.7 15h-8.3z"/>
		<path id="Path 77" class="s33" d="m633.3 536.2v-6.7h16.7v6.7l-3.3 10h-13.4z"/>
		<path id="Path 78" class="s46" d="m518.3 537.9l11.7-8.4h10l-3.3 20h-20v-10z"/>
		<path id="Path 79" class="s47" d="m480 549.5l1.7-23.3h11.6l6.7 3.3 3.3 10v10h-20z"/>
		<path id="Path 80" class="s32" d="m380 549.5l-3.3-23.3h3.3 13.3v10 13.3h-3.3z"/>
		<path id="Path 81" class="s48" d="m360 536.2v-10h16.7l3.3 23.3-3.3 5h-3.4l-13.3-5z"/>
		<path id="Path 82" class="s49" d="m270 542.9l10-8.4-1.7-8.3h8.4l11.6 3.3 10 8.4 8.4 3.3 13.3 3.3 8.3 1.7 3.4-5 5 6.7 13.3 1.6 13.3 5-3.3 18.4h-3.3l-6.7-10-38.3-3.4-8.4 5v10h-15l-3.3-8.3-13.3-3.3v-6.7l-8.4-3.3z"/>
		<path id="Path 83" class="s50" d="m193.3 542.9l10-16.7h3.4l1.6 13.3-3.3 6.7-11.7 3.3z"/>
		<path id="Path 84" class="s3" d="m500 529.5h6.7l1.6-5 8.4 3.3 1.6 10.1-1.6 1.6h-13.4z"/>
		<path id="Path 85" class="s32" d="m346.7 527.8l6.6-3.3v10l6.7 1.7v13.3l-13.3-1.6-5-6.7z"/>
		<path id="Path 86" class="s51" d="m183.3 529.5l10-5-3.3 16.7-3.3 1.7h-11.7v-5z"/>
		<path id="Path 87" class="s5" d="m756.7 522.8v8.4h-5v-8.4z"/>
		<path id="Path 88" class="s52" d="m720 524.5l6.7-1.7 5 13.4h-8.4l-5-1.7z"/>
		<path id="Path 89" class="s46" d="m616.7 524.5l16.6-1.7v6.7 6.7l-20 3.3v-10z"/>
		<path id="Path 90" class="s53" d="m353.3 524.5v-1.7l6.7 3.4v10l-6.7-1.7z"/>
		<path id="Path 91" class="s54" d="m298.3 529.5l1.7-6.7h10 6.7v11.7l-8.4-1.6v5z"/>
		<path id="Path 92" class="s15" d="m216.7 537.9l-1.7-15.1 10 3.4-3.3 11.7z"/>
		<path id="Path 93" class="s55" d="m206.7 526.2l8.3-3.4 1.7 15.1-1.7 1.6h-6.7z"/>
		<path id="Path 94" class="s56" d="m440 546.2l-6.7-25h6.7l6.7 25z"/>
		<path id="Path 95" class="s13" d="m671.7 524.5l1.6-5h6.7l3.3 16.7h-5-5z"/>
		<path id="Path 96" class="s46" d="m658.3 522.8l6.7-3.3 6.7 5 1.6 11.7h-23.3v-6.7z"/>
		<path id="Path 97" class="s33" d="m560 529.5h26.7l8.3-10 18.3 10v10l-18.3 1.7-1.7 11.7h-21.6l-3.4 8.3h-5-16.6v-6.7l-10-5 3.3-20 11.7-5z"/>
		<path id="Path 98" class="s48" d="m396.7 522.8l11.6-3.3h3.4l8.3 25-10 1.7-6.7-10h-10v-10z"/>
		<path id="Path 99" class="s27" d="m225 526.2l11.7-6.7 3.3 3.3-1.7 5 10 5-5 16.7h-5l-16.6-11.6z"/>
		<path id="Path 100" class="s44" d="m278.3 521.2l1.7-3.4 6.7 1.7v6.7h-8.4z"/>
		<path id="Path 101" class="s35" d="m263.3 542.9v-25.1h6.7l8.3 3.4v5l1.7 8.3-10 8.4z"/>
		<path id="Path 102" class="s46" d="m756.7 522.8v-6.6l30 3.3 3.3 5 23.3-1.7 10 6.7-6.6 6.7h-43.4l-16.6-5z"/>
		<path id="Path 103" class="s12" d="m681.7 517.8l5-1.6 10 8.3v6.7l-3.4 5h-6.6-3.4l-3.3-16.7z"/>
		<path id="Path 104" class="s15" d="m640 519.5l11.7-3.3 6.6 6.6-8.3 6.7h-16.7v-6.7z"/>
		<path id="Path 105" class="s57" d="m240 522.8l13.3-6.6 10 1.6v25.1l-1.6 10h-11.7l-6.7-3.4 5-16.6-10-5.1z"/>
		<path id="Path 106" class="s4" d="m193.3 524.5v-8.3h5l5 10-10 16.7-3.3-1.7z"/>
		<path id="Path 107" class="s58" d="m125 516.2h1.7v1.6h-1.7z"/>
		<path id="Path 108" class="s25" d="m751.7 522.8l-3.4-5 5-3.3 3.4 1.7v6.6z"/>
		<path id="Path 109" class="s59" d="m160 532.9v-8.4l8.3-10 8.4 1.7 6.6 13.3-8.3 8.4z"/>
		<path id="Path 110" class="s20" d="m516.7 527.8l-3.4-15h13.4l3.3 16.7-11.7 8.4z"/>
		<path id="Path 111" class="s60" d="m300 514.5l10-1.7v10h-10z"/>
		<path id="Path 112" class="s61" d="m720 524.5v-10l6.7-3.3v11.6z"/>
		<path id="Path 113" class="s26" d="m270 517.8v-6.6h6.7l3.3 6.6-1.7 3.4z"/>
		<path id="Path 114" class="s12" d="m526.7 512.8l5-3.3 3.3 6.7 6.7-1.7h5l5 10-11.7 5h-10z"/>
		<path id="Path 115" class="s62" d="m396.7 519.5v-10h10l1.6 10-11.6 3.3z"/>
		<path id="Path 116" class="s56" d="m326.7 512.8l10-3.3v8.3l10 10-5 13.4-3.4 5-8.3-1.7-1.7-10h-11.6v-11.7h5z"/>
		<path id="Path 117" class="s63" d="m288.3 514.5l8.4-5 3.3 5v8.3l-1.7 6.7-11.6-3.3v-6.7z"/>
		<path id="Path 118" class="s64" d="m155 532.9l-3.3-13.4 11.6-10h3.4l1.6 5-8.3 10v8.4z"/>
		<path id="Path 119" class="s13" d="m595 517.8l1.7-10h11.6 6.7l1.7 11.7v5l-3.4 5-18.3-10z"/>
		<path id="Path 120" class="s12" d="m406.7 509.5v-1.7h5v11.7h-3.4z"/>
		<path id="Path 121" class="s56" d="m380 519.5h5v-11.7h5l6.7 11.7v3.3l-3.4 3.4h-13.3z"/>
		<path id="Path 122" class="s62" d="m310 512.8l3.3-5h10l3.4 5-5 10h-5-6.7z"/>
		<path id="Path 123" class="s65" d="m276.7 511.2l10-3.4 1.6 6.7-1.6 5-6.7-1.7z"/>
		<path id="Path 124" class="s36" d="m176.7 516.2l1.6-8.4h8.4l6.6 8.4v8.3l-10 5z"/>
		<path id="Path 125" class="s66" d="m166.7 509.5l3.3-1.7h8.3l-1.6 8.4-8.4-1.7z"/>
		<path id="Path 126" class="s20" d="m686.7 516.2l-1.7-10h15l-3.3 18.3z"/>
		<path id="Path 127" class="s67" d="m681.7 517.8l-1.7-11.6h3.3 1.7l1.7 10z"/>
		<path id="Path 128" class="s1" d="m616.7 519.5l6.6-5v-8.3h5l1.7 5 5-1.7 5 1.7v8.3l-6.7 3.3-16.6 1.7z"/>
		<path id="Path 129" class="s58" d="m588.3 507.8l1.7-1.6 6.7 1.6-1.7 10-6.7-1.6z"/>
		<path id="Path 130" class="s68" d="m583.3 514.5v-6.7h5v8.4z"/>
		<path id="Path 131" class="s23" d="m560 529.5l-5-10 3.3-13.3 5 8.3 6.7-1.7h3.3l10 1.7 5 1.7 6.7 1.6v1.7l-8.3 10z"/>
		<path id="Path 132" class="s35" d="m411.7 507.8l1.6-1.6h6.7l6.7 10 6.6 5 6.7 25v11.7h-5l-15-13.4-8.3-25z"/>
		<path id="Path 133" class="s52" d="m673.3 519.5v-15l6.7 1.7 1.7 11.6-1.7 1.7z"/>
		<path id="Path 134" class="s68" d="m573.3 502.8v10h-3.3v-10z"/>
		<path id="Path 135" class="s13" d="m541.7 514.5l-1.7-11.7h5l1.7 11.7z"/>
		<path id="Path 136" class="s62" d="m628.3 506.2l3.4-5 3.3 3.3v5l-5 1.7z"/>
		<path id="Path 137" class="s52" d="m198.3 516.2v-15h8.4 6.6l5 10-5 5 1.7 6.6-8.3 3.4h-3.4z"/>
		<path id="Path 138" class="s28" d="m635 504.5l16.7-5 11.6 3.3 10 1.7v15l-1.6 5-6.7-5-6.7 3.3-6.6-6.6-11.7 3.3v-8.3l-5-1.7z"/>
		<path id="Path 139" class="s56" d="m615 507.8l1.7-8.3 6.6 6.7v8.3l-6.6 5z"/>
		<path id="Path 140" class="s57" d="m590 506.2v-6.7l6.7 8.3z"/>
		<path id="Path 141" class="s69" d="m493.3 504.5l13.4-5 1.6 25-1.6 5h-6.7l-6.7-3.3-3.3-16.7z"/>
		<path id="Path 142" class="s2" d="m396.7 509.5l1.6-10h8.4v8.3 1.7z"/>
		<path id="Path 143" class="s21" d="m186.7 507.8l6.6-8.3 5 1.7v15h-5z"/>
		<path id="Path 144" class="s50" d="m573.3 502.8l3.4-5h13.3v1.7 6.7l-1.7 1.6h-5v6.7l-10-1.7z"/>
		<path id="Path 145" class="s4" d="m420 506.2v-8.4h6.7v18.4z"/>
		<path id="Path 146" class="s70" d="m406.7 499.5l5-1.7 1.6 8.4-1.6 1.6h-5z"/>
		<path id="Path 147" class="s71" d="m126.7 516.2l33.3-18.4 3.3 11.7-11.6 10 3.3 13.3v6.7l-1.7 5h-11.6l-11.7-1.6-5-6.7-13.3 3.3h-1.7l1.7-8.3 5-5 1.6-1.7 5-6.7h1.7z"/>
		<path id="Path 148" class="s52" d="m851.7 516.2l1.6-13.4 16.7-6.6 1.7 11.6z"/>
		<path id="Path 149" class="s22" d="m726.7 499.5l6.6-3.3h13.4l6.6 6.6v11.7l-5 3.3 3.4 5v8.4l-3.4 5-6.6 3.3-10-3.3-5-13.4v-11.6z"/>
		<path id="Path 150" class="s15" d="m700 499.5l10-3.3h6.7l10 3.3v11.7l-6.7 3.3v10l-1.7 10-21.6-3.3v-6.7l3.3-18.3z"/>
		<path id="Path 151" class="s68" d="m490 509.5l-1.7-10 5-3.3v8.3z"/>
		<path id="Path 152" class="s63" d="m353.3 522.8l6.7-26.6 6.7 20 10-6.7 3.3 10v6.7h-3.3-16.7z"/>
		<path id="Path 153" class="s72" d="m338.3 507.8l-1.6-11.6h5z"/>
		<path id="Path 154" class="s73" d="m236.7 519.5v-16.7l6.6-6.6h10 8.4l6.6 5 1.7 10v6.6h-6.7l-10-1.6-13.3 6.6z"/>
		<path id="Path 155" class="s37" d="m683.3 506.2l1.7-11.7h5l10 5v6.7h-15z"/>
		<path id="Path 156" class="s50" d="m411.7 497.8v-3.3h5l3.3 3.3v8.4h-6.7z"/>
		<path id="Path 157" class="s59" d="m160 497.8l10-3.3v13.3l-3.3 1.7h-3.4z"/>
		<path id="Path 158" class="s74" d="m590 497.8l11.7-5 6.6 15h-11.6l-6.7-8.3z"/>
		<path id="Path 159" class="s28" d="m426.7 497.8l3.3-5h3.3l6.7 6.7v21.7h-6.7l-6.6-5z"/>
		<path id="Path 160" class="s22" d="m601.7 492.8v-1.6l28.3 1.6 1.7 8.4-3.4 5h-5l-6.6-6.7-1.7 8.3h-6.7z"/>
		<path id="Path 161" class="s67" d="m570 492.8l5-1.6 1.7 6.6-3.4 5h-3.3z"/>
		<path id="Path 162" class="s75" d="m716.7 489.5v6.7h-6.7v-6.7z"/>
		<path id="Path 163" class="s14" d="m630 492.8l13.3-3.3h6.7l1.7 10-16.7 5-3.3-3.3z"/>
		<path id="Path 164" class="s20" d="m313.3 494.5v-5h20l3.4 6.7 1.6 11.6-1.6 1.7-10 3.3-3.4-5h-10z"/>
		<path id="Path 165" class="s65" d="m261.7 496.2l8.3-6.7-1.7 11.7z"/>
		<path id="Path 166" class="s35" d="m556.7 489.5l5-1.7 1.6 5h6.7v10 10l-6.7 1.7-5-8.3z"/>
		<path id="Path 167" class="s10" d="m753.3 502.8l8.4-1.6 5-15 28.3 3.3 18.3 18.3v15l-23.3 1.7-3.3-5-30-3.3-3.4-1.7z"/>
		<path id="Path 168" class="s75" d="m733.3 496.2v-10h11.7l1.7 10z"/>
		<path id="Path 169" class="s40" d="m716.7 489.5l5-3.3h11.6v10l-6.6 3.3-10-3.3z"/>
		<path id="Path 170" class="s3" d="m710 489.5l-16.7-3.3h28.4l-5 3.3z"/>
		<path id="Path 171" class="s71" d="m690 494.5v-8.3h3.3l16.7 3.3v6.7l-10 3.3z"/>
		<path id="Path 172" class="s76" d="m685 494.5l-1.7-8.3h6.7v8.3z"/>
		<path id="Path 173" class="s69" d="m416.7 494.5l1.6-8.3h1.7 6.7l3.3 6.6-3.3 5h-6.7z"/>
		<path id="Path 174" class="s57" d="m733.3 486.2l16.7-1.7-5 1.7z"/>
		<path id="Path 175" class="s2" d="m683.3 486.2l-3.3-1.7 10 1.7z"/>
		<path id="Path 176" class="s46" d="m663.3 502.8l3.4-18.3h8.3 5l3.3 1.7 1.7 8.3-1.7 11.7h-3.3l-6.7-1.7z"/>
		<path id="Path 177" class="s28" d="m510 486.2l10-1.7 6.7 1.7 30 3.3 1.6 16.7-3.3 13.3 5 10-8.3-5-5-10-1.7-11.7h-5l1.7 11.7-6.7 1.7-3.3-6.7-5 3.3h-13.4z"/>
		<path id="Path 178" class="s63" d="m410 486.2h8.3l-1.6 8.3h-5z"/>
		<path id="Path 179" class="s76" d="m170 494.5l25-10-1.7 15-6.6 8.3h-8.4-8.3z"/>
		<path id="Path 180" class="s77" d="m750 484.5l11.7-1.7 5 3.4-5 15-8.4 1.6-6.6-6.6-1.7-10z"/>
		<path id="Path 181" class="s2" d="m666.7 484.5v-1.7l8.3 1.7z"/>
		<path id="Path 182" class="s37" d="m561.7 487.8l3.3-5h26.7l10 8.4v1.6l-11.7 5h-13.3l-1.7-6.6-5 1.6h-6.7z"/>
		<path id="Path 183" class="s60" d="m493.3 486.2l10-3.4 6.7 3.4 3.3 26.6 3.4 15-8.4-3.3-1.6-25-13.4 5v-8.3z"/>
		<path id="Path 184" class="s62" d="m480 484.5l5 3.3 5-5 3.3 3.4v10l-5 3.3 1.7 10 3.3 16.7h-11.6l-1.7-25h-5l-1.7-13.4z"/>
		<path id="Path 185" class="s19" d="m313.3 494.5l-11.6-1.7-1.7-10h10l3.3 6.7z"/>
		<path id="Path 186" class="s38" d="m650 489.5v-8.3l16.7 1.6v1.7l-3.4 18.3-11.6-3.3z"/>
		<path id="Path 187" class="s31" d="m433.3 492.8l3.4-11.6 36.6 6.6 1.7 13.4h5l1.7 25-1.7 23.3-6.7 3.4-15 3.3-11.6-10-6.7-25v-21.7z"/>
		<path id="Path 188" class="s28" d="m381.7 486.2l3.3-5h18.3l6.7 5 1.7 8.3v3.3l-5 1.7h-8.4l-15-6.7z"/>
		<path id="Path 189" class="s58" d="m333.3 489.5l11.7-8.3 8.3 11.6h6.7v3.4l-6.7 26.6v1.7l-6.6 3.3-10-10v-8.3l1.6-1.7 3.4-11.6h-5z"/>
		<path id="Path 190" class="s75" d="m643.3 489.5v-10l6.7 1.7v8.3z"/>
		<path id="Path 191" class="s1" d="m360 492.8l8.3-13.3h5l8.4 6.7 1.6 6.6 15 6.7-1.6 10v10l-6.7-11.7h-5v11.7h-5l-3.3-10-10 6.7-6.7-20z"/>
		<path id="Path 192" class="s78" d="m195 484.5l11.7-5v21.7h-8.4l-5-1.7z"/>
		<path id="Path 193" class="s14" d="m526.7 486.2l10-10h16.6l11.7 6.6-3.3 5-5 1.7z"/>
		<path id="Path 194" class="s19" d="m403.3 481.2v-5h16.7v10h-1.7-8.3z"/>
		<path id="Path 195" class="s15" d="m253.3 496.2v-13.4l43.4-6.6 3.3 6.6 1.7 10 11.6 1.7v13.3l-3.3 5-10 1.7-3.3-5-8.4 5-1.6-6.7-10 3.4h-6.7l-1.7-10 1.7-11.7-8.3 6.7z"/>
		<path id="Path 196" class="s7" d="m888.3 496.2l1.7-21.7h3.3l10 8.3z"/>
		<path id="Path 197" class="s22" d="m761.7 482.8l56.6-8.3v6.7l18.4 13.3-3.4 28.3-6.6 6.7h-3.4l-10-6.7v-15l-18.3-18.3-28.3-3.3z"/>
		<path id="Path 198" class="s21" d="m490 482.8v-8.3h13.3v8.3l-10 3.4z"/>
		<path id="Path 199" class="s79" d="m206.7 479.5l15-5 8.3 3.3v10l-16.7 13.4h-6.6z"/>
		<path id="Path 200" class="s63" d="m890 474.5l-1.7-1.7 5 1.7z"/>
		<path id="Path 201" class="s1" d="m870 496.2l-1.7-23.4h20l1.7 1.7-1.7 21.7-16.6 11.6z"/>
		<path id="Path 202" class="s15" d="m818.3 474.5l50-1.7 1.7 23.4-16.7 6.6-1.6 13.4-18.4 6.6 3.4-28.3-18.4-13.3z"/>
		<path id="Path 203" class="s37" d="m503.3 474.5l3.4-1.7 13.3 6.7v5l-10 1.7-6.7-3.4z"/>
		<path id="Path 204" class="s22" d="m480 484.5v-11.7l10 1.7v8.3l-5 5z"/>
		<path id="Path 205" class="s58" d="m576.7 471.2v-1.7l8.3 1.7z"/>
		<path id="Path 206" class="s39" d="m553.3 476.2v-6.7l23.4 1.7h8.3l10 1.6h1.7l8.3 1.7h1.7l8.3 1.7 16.7 1.6 6.6 1.7h5v10l-13.3 3.3-28.3-1.6-10-8.4h-26.7z"/>
		<path id="Path 207" class="s21" d="m436.7 481.2v-13.4l43.3 5v11.7l-6.7 3.3z"/>
		<path id="Path 208" class="s37" d="m420 476.2l5-10.1 11.7 1.7v13.4l-3.4 11.6h-3.3l-3.3-6.6h-6.7z"/>
		<path id="Path 209" class="s5" d="m303.3 469.5l60-5 5 15-8.3 13.3h-6.7l-8.3-11.6-11.7 8.3h-20l-3.3-6.7h-10l-3.3-6.6z"/>
		<path id="Path 210" class="s18" d="m403.3 476.2l-1.6-13.4 23.3 3.3-5 10.1z"/>
		<path id="Path 211" class="s21" d="m373.3 466.1l16.7-3.3h10 1.7l1.6 13.4v5h-18.3l-3.3 5-8.4-6.7z"/>
		<path id="Path 212" class="s37" d="m363.3 464.5l6.7-1.7 3.3 3.3v13.4h-5z"/>
		<path id="Path 213" class="s39" d="m506.7 472.8v-13.3h18.3l11.7 16.7-10 10-6.7-1.7v-5z"/>
		<path id="Path 214" class="s71" d="m525 459.5v-3.4h13.3l15 13.4v6.7h-16.6z"/>
		<path id="Path 215" class="s71" d="m290 454.5l6.7-1.7h3.3 3.3v16.7l-6.6 6.7-43.4 6.6v13.4h-10l-6.6 6.6v16.7l-11.7 6.7-10-3.4-1.7-6.6 5-5-5-10 16.7-13.4v-10l-8.3-3.3 28.3-10 5-1.7 5-1.7h1.7l5-1.6 6.6-1.7 6.7-1.7h1.7l6.6-1.6z"/>
		<path id="Path 216" class="s47" d="m300 452.8l6.7-1.7-3.4 1.7z"/>
		<path id="Path 217" class="s25" d="m506.7 452.8l6.6-5h6.7l5 8.3v3.4h-18.3z"/>
		<path id="Path 218" class="s39" d="m318.3 449.5l8.4-1.7h6.6 18.4l1.6 5h16.7v10l-6.7 1.7-60 5v-16.7l3.4-1.7h1.6l8.4-1.6z"/>
		<path id="Path 219" class="s76" d="m370 452.8v-6.7h10l10 8.4v8.3l-16.7 3.3-3.3-3.3z"/>
		<path id="Path 220" class="s71" d="m351.7 447.8v-1.7h8.3 10v6.7h-16.7z"/>
		<path id="Path 221" class="s12" d="m333.3 447.8l18.4-1.7v1.7z"/>
		<path id="Path 222" class="s71" d="m380 446.1v-1.6h13.3 8.4l-1.7 18.3h-10v-8.3z"/>
		<path id="Path 223" class="s65" d="m360 446.1l20-1.6v1.6h-10z"/>
		<path id="Path 224" class="s1" d="m393.3 444.5l23.4-1.7-15 1.7z"/>
		<path id="Path 225" class="s15" d="m436.7 442.8v-1.7h5z"/>
		<path id="Path 226" class="s62" d="m425 442.8l11.7-1.7v1.7z"/>
		<path id="Path 227" class="s76" d="m441.7 441.1l5-1.6 16.6 3.3 43.4 10v6.7 13.3l-3.4 1.7h-13.3l-10-1.7-43.3-5-11.7-1.7-23.3-3.3h-1.7l1.7-18.3 15-1.7h8.3 11.7z"/>
		<path id="Path 228" class="s5" d="m446.7 439.5l13.3-10 3.3 13.3z"/>
		<path id="Path 229" class="s15" d="m481.7 412.8l1.6-1.7h3.4l20 11.7 6.6 25-6.6 5-43.4-10-3.3-13.3z"/>
		<path id="Path 230" class="s60" d="m481.7 411.1h1.6v1.7h-1.6z"/>
		<path id="Path 231" class="s60" d="m483.3 411.1l3.4-1.6v1.6z"/>
		<path id="Path 232" class="s1" d="m486.7 409.5l38.3-16.7 16.7 13.3v5l-10 8.4 1.6 11.6 13.4 6.7 3.3 18.3 8.3 8.4 18.4 5v1.7l-23.4-1.7-15-13.4h-13.3l-5-8.3h-6.7l-6.6-25-20-11.7z"/>
		<path id="Path 233" class="s52" d="m525 392.8l25-8.4h11.7l1.6 10-21.6 16.7v-5z"/>
	</g>
</svg>