<svg version="1.2" xmlns="http://www.w3.org/2000/svg" viewBox="0 0 1000 1000" width="1000" height="1000">
	<title>Notropis_hudsonius</title>
	<style>
		.s0 { fill: #6985a7 } 
		.s1 { fill: #758ba8 } 
		.s2 { fill: #3a5269 } 
		.s3 { fill: #828fa1 } 
		.s4 { fill: #5b728b } 
		.s5 { fill: #979aa4 } 
		.s6 { fill: #8796ab } 
		.s7 { fill: #98a7b9 } 
		.s8 { fill: #909eb6 } 
		.s9 { fill: #acb2c0 } 
		.s10 { fill: #a09693 } 
		.s11 { fill: #213649 } 
		.s12 { fill: #597597 } 
		.s13 { fill: #536476 } 
		.s14 { fill: #b4bac8 } 
		.s15 { fill: #a4abb7 } 
		.s16 { fill: #a7b5ca } 
		.s17 { fill: #a0adc4 } 
		.s18 { fill: #566b85 } 
		.s19 { fill: #7a92ae } 
		.s20 { fill: #acbad2 } 
		.s21 { fill: #616d7b } 
		.s22 { fill: #bdc4ce } 
		.s23 { fill: #b9c6da } 
		.s24 { fill: #b6b5bb } 
		.s25 { fill: #a29da3 } 
		.s26 { fill: #908e94 } 
		.s27 { fill: #b0abb2 } 
		.s28 { fill: #a3bad8 } 
		.s29 { fill: #47596d } 
		.s30 { fill: #a2b4d3 } 
		.s31 { fill: #89a5c8 } 
		.s32 { fill: #233338 } 
		.s33 { fill: #758494 } 
		.s34 { fill: #708eb1 } 
		.s35 { fill: #617da0 } 
		.s36 { fill: #7996b9 } 
		.s37 { fill: #91a4c3 } 
		.s38 { fill: #aabddd } 
		.s39 { fill: #8ba2bd } 
		.s40 { fill: #e0e4ed } 
		.s41 { fill: #0d1927 } 
		.s42 { fill: #869bb8 } 
		.s43 { fill: #c8d5e7 } 
		.s44 { fill: #b3bed5 } 
		.s45 { fill: #91abcc } 
		.s46 { fill: #d7dce5 } 
		.s47 { fill: #67798e } 
		.s48 { fill: #9bb2cd } 
		.s49 { fill: #cfdcf3 } 
		.s50 { fill: #32434a } 
		.s51 { fill: #93afd3 } 
		.s52 { fill: #809fc3 } 
		.s53 { fill: #95a9c5 } 
		.s54 { fill: #9badcc } 
		.s55 { fill: #adc3de } 
		.s56 { fill: #46729f } 
		.s57 { fill: #08111b } 
		.s58 { fill: #86aad3 } 
		.s59 { fill: #416a99 } 
		.s60 { fill: #324757 } 
		.s61 { fill: #2b4863 } 
		.s62 { fill: #c2cee3 } 
		.s63 { fill: #5684b4 } 
		.s64 { fill: #2a4257 } 
		.s65 { fill: #3a4f5a } 
		.s66 { fill: #36618f } 
		.s67 { fill: #162734 } 
		.s68 { fill: #6893be } 
		.s69 { fill: #2b3c3c } 
		.s70 { fill: #4d79aa } 
		.s71 { fill: #516c92 } 
		.s72 { fill: #334b63 } 
		.s73 { fill: #2a3e48 } 
		.s74 { fill: #43525b } 
		.s75 { fill: #3f5e7f } 
	</style>
	<g id="Background">
		<path id="Path 0" class="s0" d="m468.3 575.8l3.4-10h23.3v11.6z"/>
		<path id="Path 1" class="s1" d="m825 562.5l-6.7-1.7h1.7z"/>
		<path id="Path 2" class="s2" d="m820 549.1l33.3 3.4 3.4-5 5 1.6 5 11.7-8.4 3.3h-15-6.6l-8.4-1.6h-3.3l-5-1.7z"/>
		<path id="Path 3" class="s3" d="m361.7 554.1v-6.6h6.6l5 6.6z"/>
		<path id="Path 4" class="s4" d="m550 552.5l1.7-6.7h11.6l-1.6 8.3z"/>
		<path id="Path 5" class="s5" d="m351.7 554.1v-8.3h5l5 1.7v6.6z"/>
		<path id="Path 6" class="s6" d="m298.3 549.1v-3.3h15v5z"/>
		<path id="Path 7" class="s7" d="m416.7 554.1l5-10h13.3v20z"/>
		<path id="Path 8" class="s1" d="m471.7 544.1l8.3-1.6 8.3 6.6 6.7 16.7h-23.3z"/>
		<path id="Path 9" class="s8" d="m435 544.1l8.3-1.6 28.4 1.6v21.7l-3.4 10-33.3-11.7z"/>
		<path id="Path 10" class="s3" d="m273.3 545.8l6.7-3.3 18.3 3.3v3.3z"/>
		<path id="Path 11" class="s6" d="m856.7 547.5l-5-6.7 10 8.3z"/>
		<path id="Path 12" class="s9" d="m326.7 552.5l6.6-11.7h13.4l5 5v8.3z"/>
		<path id="Path 13" class="s10" d="m386.7 554.1l6.6-15h3.4l23.3 3.4 1.7 1.6-5 10z"/>
		<path id="Path 14" class="s11" d="m806.7 542.5v-6.7h10l3.3 10z"/>
		<path id="Path 15" class="s12" d="m563.3 545.8l11.7-10h36.7l16.6 18.3-3.3 10-63.3-10z"/>
		<path id="Path 16" class="s13" d="m500 544.1h-6.7l6.7-11.6h13.3v10z"/>
		<path id="Path 17" class="s3" d="m480 542.5v-10h20l-6.7 11.6h6.7l-11.7 5z"/>
		<path id="Path 18" class="s14" d="m356.7 545.8v-13.3h13.3l-1.7 15h-6.6z"/>
		<path id="Path 19" class="s15" d="m370 532.5v-1.7h20l3.3 8.3-6.6 15h-13.4l-5-6.6z"/>
		<path id="Path 20" class="s16" d="m420 542.5v-13.4h13.3 10v13.4l-8.3 1.6h-13.3z"/>
		<path id="Path 21" class="s17" d="m396.7 539.1v-10h23.3v13.4z"/>
		<path id="Path 22" class="s14" d="m390 530.8v-1.7h6.7v10h-3.4z"/>
		<path id="Path 23" class="s18" d="m540 549.1v-13.3l6.7-10h20l8.3 10-11.7 10h-11.6l-1.7 6.7z"/>
		<path id="Path 24" class="s19" d="m500 532.5v-6.7h10l3.3 1.7v5z"/>
		<path id="Path 25" class="s20" d="m333.3 540.8l-3.3-15h23.3l3.4 6.7v13.3h-5l-5-5z"/>
		<path id="Path 26" class="s21" d="m513.3 527.5l26.7-6.7 6.7 5-6.7 10v13.3l-26.7-6.6v-10z"/>
		<path id="Path 27" class="s3" d="m830 519.2h1.7v1.6h-1.7z"/>
		<path id="Path 28" class="s17" d="m443.3 529.1l3.4-9.9h16.6l16.7 13.3v10l-8.3 1.6-28.4-1.6z"/>
		<path id="Path 29" class="s5" d="m191.7 530.8l3.3-11.6h10l6.7 5v11.6z"/>
		<path id="Path 30" class="s22" d="m286.7 522.5h18.3l5-5 16.7 3.3 3.3 5 3.3 15-6.6 11.7-13.4-1.7v-5h-15l-18.3-3.3 1.7-16.7z"/>
		<path id="Path 31" class="s3" d="m823.3 514.2h1.7v1.6h-1.7z"/>
		<path id="Path 32" class="s14" d="m165 522.5l5-8.3h10l15 5-3.3 11.6z"/>
		<path id="Path 33" class="s23" d="m370 530.8l-6.7-8.3v-10h6.7 13.3l6.7 16.6v1.7z"/>
		<path id="Path 34" class="s24" d="m270 514.2l13.3-1.7 3.4 10-5 3.3-1.7 16.7-6.7 3.3-10-1.7z"/>
		<path id="Path 35" class="s15" d="m205 519.2l8.3-6.7h13.4l6.6 10h6.7l1.7 18.3-30-5v-11.6z"/>
		<path id="Path 36" class="s2" d="m636.7 514.2v-8.4h6.6l8.4 5 13.3-3.3 1.7 6.7z"/>
		<path id="Path 37" class="s25" d="m228.3 507.5l11.7-1.7v16.7h-6.7l-6.6-10z"/>
		<path id="Path 38" class="s26" d="m130 509.2l5-3.4h10l5 3.4v8.3z"/>
		<path id="Path 39" class="s13" d="m695 519.2v-15h8.3v16.6z"/>
		<path id="Path 40" class="s22" d="m180 504.2v10h-10v-10z"/>
		<path id="Path 41" class="s27" d="m156.7 505.8l13.3-1.6v10l-5 8.3-15-5v-8.3z"/>
		<path id="Path 42" class="s4" d="m541.7 510.8h6.6l5-8.3 13.4 8.3v15h-20l-6.7-5z"/>
		<path id="Path 43" class="s28" d="m433.3 529.1l-6.6-26.6h8.3l11.7 16.7-3.4 9.9z"/>
		<path id="Path 44" class="s29" d="m703.3 504.2l6.7-3.4 8.3 13.4 16.7 8.3 71.7 20 13.3 3.3v3.3 11.7h-1.7l-75-30-40-10z"/>
		<path id="Path 45" class="s30" d="m363.3 512.5l-3.3-11.7h6.7l3.3 11.7z"/>
		<path id="Path 46" class="s31" d="m500 525.8l-3.3-21.6 3.3-5h10v26.6z"/>
		<path id="Path 47" class="s10" d="m240 505.8l5-6.6 20 3.3 5 11.7-6.7 29.9-21.6-3.3-1.7-18.3z"/>
		<path id="Path 48" class="s32" d="m710 500.8l1.7-5h21.6l10 10 31.7 3.4 28.3 10 3.4 16.6v6.7l-71.7-20-16.7-8.3z"/>
		<path id="Path 49" class="s28" d="m283.3 512.5v-15l6.7-1.7h11.7l8.3 6.7v15l-5 5h-18.3z"/>
		<path id="Path 50" class="s23" d="m213.3 512.5v-16.7h11.7l3.3 11.7-1.6 5z"/>
		<path id="Path 51" class="s33" d="m106.7 497.5l6.6-1.7h13.4l8.3 10-5 3.4z"/>
		<path id="Path 52" class="s0" d="m795 494.2h1.7v1.6h-1.7z"/>
		<path id="Path 53" class="s34" d="m626.7 502.5v-10h13.3 3.3v13.3h-6.6z"/>
		<path id="Path 54" class="s23" d="m145 505.8l1.7-13.3h6.6l3.4 13.3-6.7 3.4z"/>
		<path id="Path 55" class="s0" d="m791.7 490.8h1.6v1.7h-1.6z"/>
		<path id="Path 56" class="s35" d="m643.3 492.5l13.4-1.7 23.3 1.7 10 1.7 5 10v15l-28.3-5-1.7-6.7-13.3 3.3-8.4-5z"/>
		<path id="Path 57" class="s34" d="m586.7 505.8v-16.6h3.3 15l6.7 13.3z"/>
		<path id="Path 58" class="s0" d="m586.7 505.8l-16.7-6.6v-10h16.7z"/>
		<path id="Path 59" class="s36" d="m605 489.2l1.7-3.4h10l10 6.7v10h-15z"/>
		<path id="Path 60" class="s30" d="m385 489.2l21.7-3.4 3.3 5h10l6.7 11.7 6.6 26.6h-13.3-23.3-6.7l-6.7-16.6z"/>
		<path id="Path 61" class="s37" d="m366.7 500.8v-15h18.3v3.4l-1.7 23.3h-13.3z"/>
		<path id="Path 62" class="s13" d="m553.3 502.5l-3.3-18.3 20 5v10l16.7 6.6 25-3.3h15l10 3.3v8.4l-10 1.6-1.7 8.4-13.3 11.6h-36.7l-8.3-10v-15z"/>
		<path id="Path 63" class="s0" d="m535 485.8l13.3-1.6h1.7l3.3 18.3-5 8.3h-6.6l-5-5z"/>
		<path id="Path 64" class="s36" d="m510 499.2v-15l25 1.6 1.7 20 5 5-1.7 10-26.7 6.7-3.3-1.7z"/>
		<path id="Path 65" class="s7" d="m126.7 484.2l6.6-3.4h1.7l8.3 3.4 3.4 8.3-1.7 13.3h-10l-8.3-10z"/>
		<path id="Path 66" class="s3" d="m690 494.2l3.3-15h10l3.4 1.6 5 15-1.7 5-6.7 3.4h-8.3z"/>
		<path id="Path 67" class="s38" d="m616.7 479.2v6.6h-10v-6.6z"/>
		<path id="Path 68" class="s39" d="m360 500.8l-16.7-8.3v-13.3h20l3.4 6.6v15z"/>
		<path id="Path 69" class="s40" d="m170 480.8l3.3-1.6h13.4l3.3 5 3.3-5h6.7 10l3.3 16.6v16.7l-8.3 6.7h-10l-15-5v-10h-10l-13.3 1.6-3.4-13.3 5-3.3z"/>
		<path id="Path 70" class="s21" d="m100 485.8v-6.6h11.7l1.6 16.6-6.6 1.7z"/>
		<path id="Path 71" class="s2" d="m161.7 482.5l5-5 3.3 3.3-11.7 8.4z"/>
		<path id="Path 72" class="s3" d="m111.7 479.2l1.6-1.7 10 1.7 3.4 5v11.6h-13.4z"/>
		<path id="Path 73" class="s41" d="m706.7 480.8l1.6-5h21.7l3.3 5v15h-21.6z"/>
		<path id="Path 74" class="s42" d="m385 485.8l1.7-10h15l5 10-21.7 3.4z"/>
		<path id="Path 75" class="s37" d="m143.3 484.2v-8.4l11.7 1.7 6.7 5-3.4 6.7-5 3.3h-6.6z"/>
		<path id="Path 76" class="s43" d="m135 480.8l1.7-5h6.6v8.4z"/>
		<path id="Path 77" class="s9" d="m100 485.8v-10 3.4z"/>
		<path id="Path 78" class="s44" d="m225 495.8l3.3-21.6h5v8.3l11.7 16.7-5 6.6-11.7 1.7z"/>
		<path id="Path 79" class="s45" d="m656.7 490.8v-18.3h3.3 18.3l1.7 20z"/>
		<path id="Path 80" class="s43" d="m200 474.2l3.3-1.7h6.7v6.7h-10z"/>
		<path id="Path 81" class="s46" d="m193.3 479.2v-6.7l6.7 1.7v5z"/>
		<path id="Path 82" class="s47" d="m166.7 477.5v-5h3.3l3.3 1.7v5l-3.3 1.6z"/>
		<path id="Path 83" class="s31" d="m155 477.5l5-5h6.7v5l-5 5z"/>
		<path id="Path 84" class="s21" d="m123.3 479.2v-8.3h6.7l3.3 9.9-6.6 3.4z"/>
		<path id="Path 85" class="s15" d="m113.3 477.5v-6.6h10v8.3z"/>
		<path id="Path 86" class="s48" d="m640 492.5v-23.3h10l6.7 3.3v18.3l-13.4 1.7z"/>
		<path id="Path 87" class="s48" d="m693.3 479.2v-11.7h6.7l3.3 8.3v3.4z"/>
		<path id="Path 88" class="s49" d="m210 472.5l15-5 3.3 6.7-3.3 21.6h-11.7l-3.3-16.6z"/>
		<path id="Path 89" class="s50" d="m730 475.8l6.7-9.9h10v11.6l-13.4 3.3z"/>
		<path id="Path 90" class="s51" d="m678.3 467.5v-1.6l15 1.6v11.7l-3.3 15-10-1.7-1.7-20z"/>
		<path id="Path 91" class="s52" d="m678.3 467.5v5h-18.3v-5z"/>
		<path id="Path 92" class="s36" d="m650 469.2l1.7-3.3 8.3 1.6v5h-3.3z"/>
		<path id="Path 93" class="s53" d="m590 489.2l-6.7-23.3h10l13.4 13.3v6.6l-1.7 3.4z"/>
		<path id="Path 94" class="s29" d="m193.3 472.5l3.4-6.6 6.6 1.6v5l-3.3 1.7z"/>
		<path id="Path 95" class="s45" d="m616.7 479.2l6.6-15h5l11.7 5v23.3h-13.3l-10-6.7z"/>
		<path id="Path 96" class="s13" d="m100 475.8l10-11.6 3.3 6.7v6.6l-1.6 1.7h-11.7z"/>
		<path id="Path 97" class="s17" d="m225 467.5l1.7-5 6.6 1.7v10h-5z"/>
		<path id="Path 98" class="s52" d="m593.3 460.9l10-1.7 20 5-6.6 15h-10l-13.4-13.3z"/>
		<path id="Path 99" class="s36" d="m581.7 462.5v-3.3l11.6 1.7v5h-10z"/>
		<path id="Path 100" class="s54" d="m306.7 460.9v-1.7h11.6l18.4 5v8.3l6.6 6.7v13.3l16.7 8.3 3.3 11.7v10l6.7 8.3v1.7h-13.3l-3.4-6.7h-23.3l-3.3-5-16.7-3.3v-15l-8.3-6.7z"/>
		<path id="Path 101" class="s55" d="m290 495.8v-21.6l-10-6.7v-8.3l26.7 1.7-5 34.9z"/>
		<path id="Path 102" class="s33" d="m170 472.5v-13.3h3.3l3.4 13.3-3.4 1.7z"/>
		<path id="Path 103" class="s16" d="m131.7 462.5l5-3.3 3.3 5 3.3 11.6h-6.6l-1.7 5h-1.7l-3.3-9.9z"/>
		<path id="Path 104" class="s56" d="m678.3 464.2l15-6.7 13.4 10-3.4 8.3-3.3-8.3h-6.7l-15-1.6z"/>
		<path id="Path 105" class="s57" d="m140 464.2l8.3-6.7 8.4 1.7 3.3 13.3-5 5-11.7-1.7z"/>
		<path id="Path 106" class="s58" d="m581.7 462.5h-5l-1.7-6.6h6.7v3.3z"/>
		<path id="Path 107" class="s45" d="m456.7 460.9l13.3-5h36.7l3.3 28.3v15h-10l-3.3 5 3.3 21.6v6.7h-20l-16.7-13.3z"/>
		<path id="Path 108" class="s48" d="m196.7 457.5l23.3-1.6 6.7 6.6-1.7 5-15 5h-6.7v-5l-6.6-1.6z"/>
		<path id="Path 109" class="s53" d="m186.7 479.2v-23.3h6.6l3.4 1.6v8.4l-3.4 6.6v6.7l-3.3 5z"/>
		<path id="Path 110" class="s4" d="m851.7 457.5l1.6-3.3h1.7z"/>
		<path id="Path 111" class="s59" d="m651.7 465.9l-1.7-11.7 20 3.3 8.3 6.7v1.7 1.6h-18.3z"/>
		<path id="Path 112" class="s60" d="m110 464.2l11.7-10 1.6 8.3h8.4l-1.7 8.4h-6.7-10z"/>
		<path id="Path 113" class="s61" d="m816.7 475.8l6.6-23.3 30 1.7-1.6 3.3z"/>
		<path id="Path 114" class="s45" d="m540 455.9l1.7-3.4 33.3 3.4 1.7 6.6h5l1.6 3.4 6.7 23.3h-3.3-16.7l-20-5h-1.7l-8.3-15z"/>
		<path id="Path 115" class="s38" d="m258.3 454.2l15 3.3v-5h6.7v6.7 8.3l10 6.7v21.6l-6.7 1.7v15l-13.3 1.7-5-11.7 1.7-6.7-15-23.3v-16.6z"/>
		<path id="Path 116" class="s62" d="m173.3 459.2l1.7-6.7 11.7 3.4v23.3h-13.4v-5l3.4-1.7z"/>
		<path id="Path 117" class="s28" d="m156.7 459.2l5-6.7h1.6l6.7 6.7v13.3h-3.3-6.7z"/>
		<path id="Path 118" class="s63" d="m635 454.2l11.7-3.3 3.3 3.3 1.7 11.7-1.7 3.3h-10l-11.7-5z"/>
		<path id="Path 119" class="s33" d="m143.3 452.5l11.7-1.6 6.7 1.6-5 6.7-8.4-1.7-8.3 6.7-3.3-5z"/>
		<path id="Path 120" class="s64" d="m806.7 454.2l13.3-5 3.3 3.3-6.6 23.3-23.4 10-1.6 5 1.6 1.7 1.7 1.7 1.7 1.6 1.6 1.7 6.7 5 18.3 11.7 1.7 1.6 5 3.4 1.7 1.6 6.6 6.7 13.4 13.3 5 6.7-3.4 5-33.3-3.4v-3.3l-3.3-10h-10l-3.4-16.6-28.3-10-1.7-25 16.7-8.4z"/>
		<path id="Path 121" class="s65" d="m193.3 455.9v-6.7h16.7 15l6.7 3.3 1.6 11.7-6.6-1.7-6.7-6.6-23.3 1.6z"/>
		<path id="Path 122" class="s32" d="m131.7 450.9l5-1.7h1.6 5v3.3l-6.6 6.7-5 3.3h-8.4l-1.6-8.3z"/>
		<path id="Path 123" class="s14" d="m681.7 449.2v-1.7h26.6l-15 1.7z"/>
		<path id="Path 124" class="s4" d="m681.7 449.2l-10-1.7h10z"/>
		<path id="Path 125" class="s4" d="m163.3 452.5l11.7-3.3v3.3l-1.7 6.7h-3.3z"/>
		<path id="Path 126" class="s29" d="m138.3 449.2l5-1.7v1.7z"/>
		<path id="Path 127" class="s66" d="m603.3 447.5l15-1.6 16.7 8.3-6.7 10h-5l-20-5z"/>
		<path id="Path 128" class="s51" d="m508.3 450.9l3.4-5 8.3 1.6 1.7 8.4h18.3v13.3l8.3 15-13.3 1.6-25-1.6-3.3-28.3z"/>
		<path id="Path 129" class="s47" d="m175 449.2l6.7-3.3 11.6 3.3v6.7h-6.6l-11.7-3.4z"/>
		<path id="Path 130" class="s67" d="m145 447.5l5-1.6h5v5l-11.7 1.6v-3.3-1.7z"/>
		<path id="Path 131" class="s68" d="m520 447.5l3.3-3.3 18.4 1.7v6.6l-1.7 3.4h-18.3z"/>
		<path id="Path 132" class="s52" d="m450 449.2l1.7-5 18.3 1.7v10l-13.3 5z"/>
		<path id="Path 133" class="s45" d="m306.7 447.5l8.3-3.3 3.3 15h-11.6z"/>
		<path id="Path 134" class="s52" d="m273.3 447.5l26.7-3.3 6.7 3.3v11.7 1.7l-26.7-1.7v-6.7h-6.7z"/>
		<path id="Path 135" class="s34" d="m260 445.9l11.7-1.7 1.6 3.3v5 5l-15-3.3z"/>
		<path id="Path 136" class="s23" d="m231.7 452.5v-6.6l10-1.7v6.7l10 5v16.6l15 23.3-1.7 6.7-20-3.3-11.7-16.7v-8.3-10z"/>
		<path id="Path 137" class="s29" d="m150 445.9l5-1.7v1.7z"/>
		<path id="Path 138" class="s32" d="m743.3 444.2l6.7-1.7h1.7 5v16.7l-10 6.7h-10l-6.7 9.9h-21.7l-1.6 5-3.4-1.6v-3.4l3.4-8.3-13.4-10v-8.3l15-1.7h6.7l11.7-1.6h3.3l10-1.7z"/>
		<path id="Path 139" class="s59" d="m581.7 455.9v-13.4l21.6 5v11.7l-10 1.7-11.6-1.7z"/>
		<path id="Path 140" class="s31" d="m411.7 447.5l16.6-5 1.7 6.7h20l6.7 11.7 6.6 58.3h-16.6l-11.7-16.7h-8.3l-6.7-11.7h-10l-3.3-5-5-10h-15l-3.4-29.9h8.4z"/>
		<path id="Path 141" class="s52" d="m338.3 444.2l13.4-1.7 11.6 3.4 11.7-1.7 8.3 1.7 3.4 29.9-1.7 10h-18.3l-3.4-6.6h-20l-6.6-6.7v-8.3z"/>
		<path id="Path 142" class="s33" d="m751.7 442.5l6.6-1.6-1.6 1.6z"/>
		<path id="Path 143" class="s36" d="m315 444.2l5-3.3 18.3 3.3-1.6 20-18.4-5z"/>
		<path id="Path 144" class="s63" d="m501.7 442.5l1.6-3.3 8.4 6.7-3.4 5z"/>
		<path id="Path 145" class="s68" d="m470 445.9l16.7-6.7 15 3.3 6.6 8.4-1.6 5h-36.7z"/>
		<path id="Path 146" class="s63" d="m428.3 442.5l5-3.3h15l3.4 5-1.7 5h-20z"/>
		<path id="Path 147" class="s67" d="m210 449.2l3.3-10 11.7 10z"/>
		<path id="Path 148" class="s69" d="m766.7 439.2l5-1.7h5l26.6 5 3.4 11.7-16.7 21.6-16.7 8.4 1.7 25-31.7-3.4-10-10v-15l13.4-3.3v-11.6l10-6.7v-16.7l1.6-1.6h1.7l5-1.7z"/>
		<path id="Path 149" class="s11" d="m351.7 442.5l1.6-5 10 1.7v6.7z"/>
		<path id="Path 150" class="s32" d="m170 439.2l5-1.7h1.7 3.3l1.7 8.4-6.7 3.3-11.7 3.3h-1.6l-6.7-1.6v-5-1.7l3.3-1.7z"/>
		<path id="Path 151" class="s6" d="m771.7 437.5l5-1.6v1.6z"/>
		<path id="Path 152" class="s63" d="m543.3 437.5l11.7-1.6 21.7 5 5 1.6v13.4h-6.7l-33.3-3.4v-6.6z"/>
		<path id="Path 153" class="s13" d="m176.7 437.5l5-1.6-1.7 1.6z"/>
		<path id="Path 154" class="s67" d="m576.7 440.9l1.6-8.4h6.7 1.7l5 1.7h1.6l6.7 1.7 18.3 3.3 6.7 1.7h3.3l6.7 1.6h3.3l6.7 1.7h3.3l8.4 1.7h3.3l8.3 1.6h3.4l10 1.7h11.6v8.3l-15 6.7-8.3-6.7-20-3.3-3.3-3.3-11.7 3.3-16.7-8.3-15 1.6-21.6-5z"/>
		<path id="Path 155" class="s69" d="m363.3 439.2l10-6.7 1.7 11.7-11.7 1.7z"/>
		<path id="Path 156" class="s70" d="m300 444.2v-11.7h13.3l6.7 8.4-5 3.3-8.3 3.3z"/>
		<path id="Path 157" class="s60" d="m790 432.5l6.7-1.6h1.6 5v11.6l-26.6-5v-1.6z"/>
		<path id="Path 158" class="s3" d="m578.3 432.5v-1.6l6.7 1.6z"/>
		<path id="Path 159" class="s7" d="m798.3 430.9l6.7-1.7-1.7 1.7z"/>
		<path id="Path 160" class="s11" d="m555 435.9l1.7-6.7h10 3.3l8.3 1.7v1.6l-1.6 8.4z"/>
		<path id="Path 161" class="s70" d="m523.3 432.5l10-3.3 10 8.3-1.6 8.4-18.4-1.7z"/>
		<path id="Path 162" class="s63" d="m373.3 432.5l6.7-3.3 13.3 3.3-1.6 13.4h-8.4l-8.3-1.7z"/>
		<path id="Path 163" class="s41" d="m201.7 430.9l5-1.7h1.6 5l1.7 5-1.7 5-3.3 10h-16.7l-11.6-3.3-1.7-8.4 1.7-1.6h1.6l5-1.7h1.7l5-1.7z"/>
		<path id="Path 164" class="s50" d="m805 429.2l15-1.7v21.7l-13.3 5-3.4-11.7v-11.6z"/>
		<path id="Path 165" class="s22" d="m556.7 429.2v-1.7l10 1.7z"/>
		<path id="Path 166" class="s56" d="m503.3 430.9l10-3.4 10 5v11.7l-3.3 3.3-8.3-1.6-8.4-6.7z"/>
		<path id="Path 167" class="s68" d="m241.7 444.2l3.3-16.7h3.3l6.7 1.7 5 3.3v13.4l-1.7 8.3-6.6 1.7-10-5z"/>
		<path id="Path 168" class="s3" d="m208.3 429.2l5-1.7v1.7z"/>
		<path id="Path 169" class="s4" d="m866.7 440.9l5-3.4-5-11.6 10 3.3v8.3l-21.7 16.7z"/>
		<path id="Path 170" class="s64" d="m866.7 440.9l-8.4-5v-10h3.4 5l5 11.6z"/>
		<path id="Path 171" class="s60" d="m820 427.5l30-1.6h8.3v10l8.4 5-11.7 13.3h-1.7l-30-1.7-3.3-3.3z"/>
		<path id="Path 172" class="s70" d="m260 432.5l-1.7-6.6 8.4 1.6 6.6 8.4-1.6 8.3-11.7 1.7z"/>
		<path id="Path 173" class="s51" d="m255 429.2v-3.3h3.3l1.7 6.6z"/>
		<path id="Path 174" class="s35" d="m215 434.2l10-6.7h20l-3.3 16.7-10 1.7v6.6l-6.7-3.3-11.7-10z"/>
		<path id="Path 175" class="s46" d="m850 425.9h11.7-3.4z"/>
		<path id="Path 176" class="s32" d="m533.3 429.2v-5h3.4l20 3.3v1.7l-1.7 6.7-11.7 1.6z"/>
		<path id="Path 177" class="s64" d="m393.3 432.5l10-9.9 6.7 4.9 1.7 20-20-1.6z"/>
		<path id="Path 178" class="s59" d="m248.3 427.5l1.7-4.9 5 3.3v3.3z"/>
		<path id="Path 179" class="s11" d="m233.3 422.6l6.7-1.7h3.3 6.7v1.7l-1.7 4.9h-3.3-20l-10 6.7-1.7-5v-1.7l6.7-1.6 5-1.7h1.7l5-1.6z"/>
		<path id="Path 180" class="s1" d="m533.3 424.2l-6.6-5 10 5z"/>
		<path id="Path 181" class="s67" d="m513.3 427.5v-8.3h13.4l6.6 5v5l-10 3.3z"/>
		<path id="Path 182" class="s71" d="m283.3 420.9l11.7-1.7 5 13.3v11.7l-26.7 3.3-1.6-3.3 1.6-8.3 10-1.7z"/>
		<path id="Path 183" class="s56" d="m266.7 427.5l5-8.3 11.6 1.7v13.3l-10 1.7z"/>
		<path id="Path 184" class="s59" d="m243.3 420.9l6.7-1.7v1.7z"/>
		<path id="Path 185" class="s32" d="m483.3 425.9v-8.3l26.7 1.6h3.3v8.3l-10 3.4-1.6-5z"/>
		<path id="Path 186" class="s59" d="m433.3 420.9l6.7-3.3 25 8.3h18.3 18.4l1.6 5v8.3l-1.6 3.3-15-3.3-16.7 6.7-18.3-1.7-3.4-5h-15z"/>
		<path id="Path 187" class="s66" d="m403.3 422.6v-6.7l30 5v18.3l-5 3.3-16.6 5-1.7-20z"/>
		<path id="Path 188" class="s56" d="m380 417.6l23.3-1.7v6.7l-10 9.9-13.3-3.3z"/>
		<path id="Path 189" class="s59" d="m320 417.6l10-1.7h13.3l13.4 3.3 3.3-3.3h20v1.7 11.6l-6.7 3.3-10 6.7-10-1.7-1.6 5-13.4 1.7-18.3-3.3-6.7-8.4h-13.3l-5-13.3 1.7-1.6h11.6z"/>
		<path id="Path 190" class="s11" d="m308.3 412.6v5h-11.6v-5z"/>
		<path id="Path 191" class="s67" d="m280 414.2l8.3-1.6h8.4v5l-1.7 1.6-11.7 1.7-11.6-1.7-5 8.3-8.4-1.6h-3.3l-5-3.3v-1.7-1.7h1.7l6.6-1.6h1.7l6.7-1.7h3.3l6.7-1.7z"/>
		<path id="Path 192" class="s11" d="m320 417.6v-6.7h10v5z"/>
		<path id="Path 193" class="s32" d="m308.3 412.6l1.7-1.7h8.3 1.7v6.7h-11.7z"/>
		<path id="Path 194" class="s6" d="m296.7 412.6l13.3-1.7-1.7 1.7z"/>
		<path id="Path 195" class="s67" d="m343.3 415.9v-6.7h6.7 10v6.7l-3.3 3.3z"/>
		<path id="Path 196" class="s60" d="m330 410.9l1.7-1.7h10 1.6v6.7h-13.3z"/>
		<path id="Path 197" class="s21" d="m318.3 410.9l13.4-1.7-1.7 1.7h-10z"/>
		<path id="Path 198" class="s32" d="m360 409.2l3.3-1.6h13.4 3.3v8.3h-20z"/>
		<path id="Path 199" class="s6" d="m350 409.2v-1.6h13.3l-3.3 1.6z"/>
		<path id="Path 200" class="s46" d="m341.7 409.2l8.3-1.6v1.6h-6.7z"/>
		<path id="Path 201" class="s33" d="m376.7 407.6l15-1.7-11.7 1.7z"/>
		<path id="Path 202" class="s72" d="m473.3 412.6v-10h3.4l5 10z"/>
		<path id="Path 203" class="s67" d="m391.7 405.9l15-5 13.3 1.7 6.7 6.6 13.3-1.6 33.3 5h8.4l1.6 5v8.3h-18.3l-25-8.3-6.7 3.3-30-5-23.3 1.7v-1.7-8.3z"/>
		<path id="Path 204" class="s69" d="m406.7 400.9l13.3-5v6.7z"/>
		<path id="Path 205" class="s73" d="m420 395.9l10-3.3h5l5 15-13.3 1.6-6.7-6.6z"/>
		<path id="Path 206" class="s47" d="m430 392.6l5-1.7v1.7z"/>
		<path id="Path 207" class="s65" d="m435 390.9l16.7-5 5 13.3 16.6 3.4v10l-33.3-5-5-15z"/>
		<path id="Path 208" class="s74" d="m461.7 382.6l11.6-3.4 3.4 23.4h-3.4l-16.6-3.4-5-13.3 5-1.7z"/>
		<path id="Path 209" class="s75" d="m510 419.2l-3.3-30-6.7-5v-8.3h10 8.3l6.7 1.7-5 23.3 6.7 18.3h-13.4z"/>
		<path id="Path 210" class="s2" d="m473.3 379.2l26.7-3.3v8.3l6.7 5 3.3 30-26.7-1.6-1.6-5-5-10z"/>
	</g>
</svg>