<svg version="1.2" xmlns="http://www.w3.org/2000/svg" viewBox="0 0 1000 1000" width="1000" height="1000">
	<title>Noturus_gyrinus</title>
	<style>
		.s0 { opacity: .2;fill: #b3b5be } 
		.s1 { opacity: 1;fill: #d0cfd4 } 
		.s2 { opacity: .5;fill: #edf0f8 } 
		.s3 { opacity: .4;fill: #edeff8 } 
		.s4 { opacity: .1;fill: #e3e6f3 } 
		.s5 { fill: #ebeef8 } 
		.s6 { fill: #d1d9f1 } 
		.s7 { fill: #c1bfbf } 
		.s8 { fill: #e1d4c6 } 
		.s9 { fill: #e2dfe5 } 
		.s10 { fill: #a89480 } 
		.s11 { opacity: 1;fill: #808b97 } 
		.s12 { fill: #98816e } 
		.s13 { fill: #c9b6a3 } 
		.s14 { fill: #dbe3fa } 
		.s15 { opacity: .8;fill: #b8bbc2 } 
		.s16 { fill: #54585a } 
		.s17 { opacity: .5;fill: #cfd0d8 } 
		.s18 { fill: #4e4e43 } 
		.s19 { fill: #494f50 } 
		.s20 { opacity: 1;fill: #72644b } 
		.s21 { opacity: 1;fill: #b5b0ac } 
		.s22 { fill: #746a60 } 
		.s23 { opacity: .6;fill: #a6a8ab } 
		.s24 { fill: #655b4c } 
		.s25 { fill: #c8cfe4 } 
		.s26 { fill: #40433d } 
		.s27 { fill: #958b82 } 
		.s28 { opacity: .1;fill: #f7f9fc } 
		.s29 { opacity: 1;fill: #a3abb8 } 
		.s30 { fill: #25363e } 
		.s31 { opacity: .8;fill: #7e8285 } 
		.s32 { fill: #76726a } 
		.s33 { fill: #867f78 } 
		.s34 { fill: #585448 } 
		.s35 { fill: #0e1f1e } 
		.s36 { fill: #14292e } 
		.s37 { fill: #26291a } 
		.s38 { fill: #313223 } 
		.s39 { opacity: .3;fill: #a8a8aa } 
		.s40 { opacity: .4;fill: #ccd0dc } 
		.s41 { fill: #a8a096 } 
		.s42 { fill: #b59e7d } 
		.s43 { fill: #d8c7b3 } 
		.s44 { fill: #30362e } 
		.s45 { fill: #3e3f31 } 
		.s46 { fill: #68655f } 
		.s47 { opacity: .8;fill: #dde0ed } 
		.s48 { opacity: .8;fill: #7c776a } 
		.s49 { fill: #cdb591 } 
		.s50 { fill: #bcc5db } 
		.s51 { opacity: .2;fill: #939393 } 
		.s52 { fill: #bda47a } 
		.s53 { opacity: .1;fill: #cdd0da } 
		.s54 { opacity: .3;fill: #655a4c } 
		.s55 { fill: #737a81 } 
		.s56 { fill: #6b563a } 
		.s57 { fill: #b9a890 } 
		.s58 { fill: #796d5a } 
		.s59 { fill: #84766a } 
		.s60 { fill: #615f59 } 
		.s61 { opacity: .7;fill: #ced1db } 
		.s62 { fill: #4f4836 } 
		.s63 { fill: #38454c } 
		.s64 { opacity: 1;fill: #9199a3 } 
		.s65 { fill: #8e7b72 } 
		.s66 { fill: #666f72 } 
		.s67 { fill: #836f62 } 
		.s68 { opacity: 1;fill: #5d676b } 
		.s69 { fill: #cbab80 } 
		.s70 { fill: #513c1c } 
		.s71 { fill: #c19f67 } 
		.s72 { fill: #997b5e } 
		.s73 { fill: #aa8c6b } 
		.s74 { opacity: .7;fill: #ebeef7 } 
		.s75 { fill: #a2754b } 
		.s76 { opacity: 1;fill: #b3b9cb } 
		.s77 { fill: #ab8659 } 
		.s78 { fill: #7c5d3b } 
		.s79 { fill: #6c502d } 
		.s80 { fill: #8b5b2a } 
		.s81 { fill: #8e6339 } 
		.s82 { fill: #e0bb8c } 
		.s83 { fill: #a16938 } 
		.s84 { fill: #a6632a } 
		.s85 { fill: #ce954c } 
		.s86 { fill: #5d492a } 
		.s87 { fill: #7c5220 } 
		.s88 { fill: #64461a } 
		.s89 { fill: #eecfa9 } 
		.s90 { fill: #eac499 } 
		.s91 { fill: #c98537 } 
		.s92 { fill: #e0ad5e } 
		.s93 { fill: #916e4b } 
		.s94 { fill: #f1e2d0 } 
	</style>
	<g id="Background">
		<path id="Path 0" class="s0" d="m326 427h1v1h-1z"/>
		<path id="Path 1" class="s1" d="m403 380l6-1v6h-2-2l-2-4z"/>
		<path id="Path 2" class="s2" d="m416 378v-1h13v1 1h-13z"/>
		<path id="Path 3" class="s3" d="m818 472h1v1h-1z"/>
		<path id="Path 4" class="s2" d="m769 456l-7-1 10 2z"/>
		<path id="Path 5" class="s4" d="m454 439h1v1h-1z"/>
		<path id="Path 6" class="s4" d="m403 380l13-2v1h-7z"/>
		<path id="Path 7" class="s5" d="m416 379h13v5l-5 5h-9l-6-4v-6z"/>
		<path id="Path 8" class="s4" d="m429 379v-1l8 2z"/>
		<path id="Path 9" class="s6" d="m424 389l5-5v-5l8 1h2v13h-14z"/>
		<path id="Path 10" class="s4" d="m396 382l7-2v1z"/>
		<path id="Path 11" class="s5" d="m439 393v-13l12 10v3z"/>
		<path id="Path 12" class="s7" d="m396 382l7-1 2 4-4 3h-2l-3-1-9-1 8-4z"/>
		<path id="Path 13" class="s3" d="m383 387l3-4 9-1-8 4-2 1z"/>
		<path id="Path 14" class="s8" d="m401 388l4-3h2v6h-6z"/>
		<path id="Path 15" class="s9" d="m407 391v-6h2l6 4v4z"/>
		<path id="Path 16" class="s10" d="m385 387l2-1 9 1v3l-1 5-9 6-3-6z"/>
		<path id="Path 17" class="s11" d="m378 390l4-3h1 2l-2 8h-3l-3-2v-2z"/>
		<path id="Path 18" class="s12" d="m396 390v-3l3 1z"/>
		<path id="Path 19" class="s13" d="m396 390l3-2h2v3 4h-6z"/>
		<path id="Path 20" class="s14" d="m415 393v-4h9l1 4h14 12l2 4 2 12v6l-1 3-2 6-3 1-3-9-5-4h-6l-8-1-3-14z"/>
		<path id="Path 21" class="s4" d="m374 392l4-2-1 1z"/>
		<path id="Path 22" class="s15" d="m374 392l3-1v2l-7 4h-2z"/>
		<path id="Path 23" class="s1" d="m401 395v-4h6l8 2 9 4 3 14-2 4h-6z"/>
		<path id="Path 24" class="s16" d="m370 397l7-4 3 2-1 7-8 1z"/>
		<path id="Path 25" class="s12" d="m379 402l1-7h3l3 6v1l-6 2z"/>
		<path id="Path 26" class="s7" d="m386 401l9-6h6l18 20h6l2 16h-8l-11-14-9 2-5 6h-5l-2-8-1-15z"/>
		<path id="Path 27" class="s17" d="m354 407l5-7 9-3-5 5-8 5z"/>
		<path id="Path 28" class="s18" d="m363 402l5-5h2l1 6v2l-5 1z"/>
		<path id="Path 29" class="s19" d="m355 407l8-5 3 4-1 5-6 4-7-3z"/>
		<path id="Path 30" class="s20" d="m371 403l8-1 1 2-5 10h-3l-2-2 1-7z"/>
		<path id="Path 31" class="s21" d="m380 404l6-2 1 15-4 1v3h-4l-4-7z"/>
		<path id="Path 32" class="s22" d="m366 406l5-1-1 7-5-1z"/>
		<path id="Path 33" class="s23" d="m348 412l6-5h1l-3 5-4 2z"/>
		<path id="Path 34" class="s4" d="m455 415v-6l1 6z"/>
		<path id="Path 35" class="s24" d="m359 415l6-4 5 1 2 2-6 11h-3l-4-4z"/>
		<path id="Path 36" class="s25" d="m425 415l2-4 8 1v10l9 8-5 3-2 2-6 2v-4l-4-2z"/>
		<path id="Path 37" class="s2" d="m343 417l5-5v2l-3 3z"/>
		<path id="Path 38" class="s26" d="m348 414l4-2 7 3v6l4 4-1 4-1 2-11-1-3-3v-6l-3-2 1-2z"/>
		<path id="Path 39" class="s6" d="m444 430l-9-8v-10h6l5 4 3 9-2 3z"/>
		<path id="Path 40" class="s27" d="m366 425l6-11h3l4 7v6h-11z"/>
		<path id="Path 41" class="s28" d="m454 418l1-3h1z"/>
		<path id="Path 42" class="s23" d="m336 422l7-5h2l-1 2-7 5h-2z"/>
		<path id="Path 43" class="s29" d="m383 421v-3l4-1 2 8-4 2z"/>
		<path id="Path 44" class="s21" d="m394 425l5-6 9-2 11 14v6l-6 2h-4-3l-2-6z"/>
		<path id="Path 45" class="s30" d="m337 424l7-5 3 2v6l-4 2-8-2z"/>
		<path id="Path 46" class="s11" d="m379 427v-6h4l2 6v2z"/>
		<path id="Path 47" class="s4" d="m333 425l3-3-1 2z"/>
		<path id="Path 48" class="s31" d="m333 425l2-1h2l-2 3-1 1h-3z"/>
		<path id="Path 49" class="s28" d="m449 425l3-1-5 4z"/>
		<path id="Path 50" class="s23" d="m327 427l6-2-2 3-5 1v-1z"/>
		<path id="Path 51" class="s32" d="m362 429l1-4h3l2 2v2z"/>
		<path id="Path 52" class="s33" d="m385 427l4-2h5l10 8 2 6-17-3v-5l-4-2z"/>
		<path id="Path 53" class="s34" d="m368 427h11l6 2 4 2v5l-2 1-5-4h-7l-7-4z"/>
		<path id="Path 54" class="s35" d="m334 428l1-1 8 2 4-2 3 3 11 1v8h-24z"/>
		<path id="Path 55" class="s0" d="m318 432l3-4h5v1z"/>
		<path id="Path 56" class="s36" d="m326 429l5-1h3l3 11-8 7 2 11-2 4h-4l-4-8-8 1 2 12-5 16-5 5h-18l-4-6h-9l-8 7-17-1-14 1-9 10-2 8h-4l-7 7-6-3v-8l-8-5v-8l6-5 3-2 9-5h1l10-5 4-1 22-10 8-4 6-2 6-2 25-11 18-10h1z"/>
		<path id="Path 57" class="s37" d="m361 431l1-2h6l7 4v8l-14-2z"/>
		<path id="Path 58" class="s29" d="m419 437v-6h8l4 2v4 1l-1 3h-5l-2-4z"/>
		<path id="Path 59" class="s3" d="m158 433l6-1-2 11 1-10z"/>
		<path id="Path 60" class="s15" d="m313 433l4-1-18 10h-1l1-2 1-1 3-1 7-4z"/>
		<path id="Path 61" class="s3" d="m523 433h29v1h-1-27-1z"/>
		<path id="Path 62" class="s5" d="m156 437l2-4h5l-1 10h-1-6z"/>
		<path id="Path 63" class="s38" d="m375 441v-8h7l5 4v8h-12z"/>
		<path id="Path 64" class="s3" d="m508 435l6-2v2z"/>
		<path id="Path 65" class="s39" d="m514 435v-2h9v1l-6 1z"/>
		<path id="Path 66" class="s8" d="m524 434h27l-6 1-6-1-10 1h-4z"/>
		<path id="Path 67" class="s39" d="m552 434v-1h7v1z"/>
		<path id="Path 68" class="s40" d="m559 434v-1h5v2h-1z"/>
		<path id="Path 69" class="s3" d="m564 435v-2l8 2z"/>
		<path id="Path 70" class="s33" d="m517 435l6-1h1l1 1v6h-2l-6-5z"/>
		<path id="Path 71" class="s41" d="m529 435l10-1v6l-6 3-4-1z"/>
		<path id="Path 72" class="s42" d="m539 440v-6l6 1v6z"/>
		<path id="Path 73" class="s41" d="m545 435l6-1h1 7l4 1 3 6-3 2h-6l-9-1-3-1z"/>
		<path id="Path 74" class="s3" d="m431 437l6-2-6 3z"/>
		<path id="Path 75" class="s2" d="m494 437l5-2v2h-4z"/>
		<path id="Path 76" class="s23" d="m499 437v-2h9v1l-3 1z"/>
		<path id="Path 77" class="s11" d="m508 436v-1h6 3v1l-9 1z"/>
		<path id="Path 78" class="s27" d="m525 441v-6h4v7z"/>
		<path id="Path 79" class="s43" d="m566 441l-3-6h1 8l7 2h3l2 2-3 4h-1z"/>
		<path id="Path 80" class="s44" d="m387 437l2-1 17 3h3v10h-22v-4z"/>
		<path id="Path 81" class="s45" d="m505 437l3-1v1 2h-3z"/>
		<path id="Path 82" class="s34" d="m508 437l9-1 6 5v4h-11l-4-6z"/>
		<path id="Path 83" class="s3" d="m153 444l3-7-1 6z"/>
		<path id="Path 84" class="s46" d="m413 439l6-2h4l2 4z"/>
		<path id="Path 85" class="s0" d="m463 438l19-1v2h-2-11-5-1z"/>
		<path id="Path 86" class="s47" d="m482 439v-2h7v2z"/>
		<path id="Path 87" class="s48" d="m489 439v-2h5 1v2z"/>
		<path id="Path 88" class="s32" d="m495 439v-2h4 6v2z"/>
		<path id="Path 89" class="s4" d="m584 439l-2-2 14 3h-1z"/>
		<path id="Path 90" class="s4" d="m603 439l24-2-4 2h-3z"/>
		<path id="Path 91" class="s49" d="m623 439l4-2h4l4 6-2 4h-4z"/>
		<path id="Path 92" class="s7" d="m635 443l-4-6h20v4 2h-8z"/>
		<path id="Path 93" class="s1" d="m651 441v-4h36v6l-1 2-3 2h-8l-14-2-2-4z"/>
		<path id="Path 94" class="s50" d="m687 443v-6h12v6z"/>
		<path id="Path 95" class="s25" d="m699 443v-6h5l1 2v5z"/>
		<path id="Path 96" class="s4" d="m705 439l-1-2 12 1v1z"/>
		<path id="Path 97" class="s51" d="m430 441l1-3 15 2v1h-1-11z"/>
		<path id="Path 98" class="s4" d="m455 439l8-1v1z"/>
		<path id="Path 99" class="s3" d="m716 439v-1l6 4z"/>
		<path id="Path 100" class="s47" d="m132 442l1-3 6 1v17l1 2 2 5v4l-5-1-2 7h-2v-4l-2-2v-25z"/>
		<path id="Path 101" class="s44" d="m331 457l-2-11 8-7h24l14 2v4l-22 2-3 6h-12z"/>
		<path id="Path 102" class="s45" d="m409 449v-10h4l12 2h5 4l7 2v10l-1 2h-22l-1-4h-8z"/>
		<path id="Path 103" class="s15" d="m455 440v-1h8 1l-1 2h-8z"/>
		<path id="Path 104" class="s29" d="m463 441l1-2h5v2z"/>
		<path id="Path 105" class="s31" d="m469 441v-2h11l-8 2z"/>
		<path id="Path 106" class="s44" d="m472 441l8-2h2 7 6l4 14h-10l-4-5-12-1z"/>
		<path id="Path 107" class="s37" d="m499 453l-4-14h10 3l4 6h11l4 1-2 9z"/>
		<path id="Path 108" class="s10" d="m581 443l3-4 11 1v1l-1 4-4 1z"/>
		<path id="Path 109" class="s47" d="m603 440v-1h17l-9 2h-8z"/>
		<path id="Path 110" class="s52" d="m611 441l9-2h3l6 8v4h-10l-8-2z"/>
		<path id="Path 111" class="s50" d="m705 444v-5h11l6 3 12 5h2v1l2 7-17-5z"/>
		<path id="Path 112" class="s53" d="m296 442l3-2-1 2z"/>
		<path id="Path 113" class="s54" d="m446 441v-1h8 1v1z"/>
		<path id="Path 114" class="s45" d="m533 443l6-3 6 1 3 1v5h-13l-2-1z"/>
		<path id="Path 115" class="s51" d="m595 441v-1h1 7v1z"/>
		<path id="Path 116" class="s55" d="m441 443l-7-2h11z"/>
		<path id="Path 117" class="s26" d="m441 443l4-2h1 9 8 6 3l1 6 12 1 4 5v6l-3 2-38-4-1-4h-6z"/>
		<path id="Path 118" class="s16" d="m523 445v-4h2l4 1 4 1v3h-6z"/>
		<path id="Path 119" class="s27" d="m563 443l3-2 14 2-4 4h-11z"/>
		<path id="Path 120" class="s27" d="m594 445l1-4h8 8v8l-1 3h-5l-2-3h-8z"/>
		<path id="Path 121" class="s21" d="m651 443v-2h8l2 4v4l-10-2z"/>
		<path id="Path 122" class="s28" d="m131 442h1v1h-1z"/>
		<path id="Path 123" class="s48" d="m288 445l8-3h2 1l-25 11 3-3h1l6-3z"/>
		<path id="Path 124" class="s16" d="m548 447v-5l9 1v4h-7z"/>
		<path id="Path 125" class="s3" d="m734 447l-12-5 8 1z"/>
		<path id="Path 126" class="s9" d="m153 444l2-1h6l1 2v6l-3 4h-8z"/>
		<path id="Path 127" class="s40" d="m162 445l-1-2h1z"/>
		<path id="Path 128" class="s19" d="m557 447v-4h6l2 4z"/>
		<path id="Path 129" class="s56" d="m576 447l4-4h1l9 3-6 3z"/>
		<path id="Path 130" class="s41" d="m633 447l2-4h8v8l-3 3-7-1z"/>
		<path id="Path 131" class="s57" d="m643 451v-8h8v4l-6 4z"/>
		<path id="Path 132" class="s41" d="m686 445l1-2h12l6 1 16 6-2 3-14-2-8-1h-6z"/>
		<path id="Path 133" class="s26" d="m350 453l3-6 22-2h12v4l-23 3-1 9-12-4z"/>
		<path id="Path 134" class="s45" d="m590 446l4-1 1 4v4h-10l-1-4z"/>
		<path id="Path 135" class="s13" d="m661 449v-4l14 2-1 8h-8z"/>
		<path id="Path 136" class="s10" d="m683 447l3-2 5 5v17l-3 8h-4l-9-4-7-8-20-6-3-6 6-4 10 2 5 6h8l7 2z"/>
		<path id="Path 137" class="s44" d="m525 455l2-9h6l2 1 1 7 13 1 1-8h7 8 11l8 2 1 4h10l3 6h7 6l4 5 13 1 3 5-8 2-9-5-23-1-5-5h-12l-1 10-7 2h-7l-7-2-6-6-16-2z"/>
		<path id="Path 138" class="s37" d="m550 447l-1 8-13-1-1-7h13z"/>
		<path id="Path 139" class="s10" d="m629 451v-4h4v6h-4z"/>
		<path id="Path 140" class="s57" d="m674 455l1-8h8l-2 10z"/>
		<path id="Path 141" class="s28" d="m736 448v-1l8 3z"/>
		<path id="Path 142" class="s6" d="m738 455l-2-7 8 2 5 2v1 5l-6 1z"/>
		<path id="Path 143" class="s18" d="m363 461l1-9 23-3h22v2 7l-1 1-9 1v13h-5-11l-7-3-3-5h-6z"/>
		<path id="Path 144" class="s18" d="m595 453v-4h8l2 3v7h-7z"/>
		<path id="Path 145" class="s58" d="m610 452l1-3 8 2v4h-8z"/>
		<path id="Path 146" class="s33" d="m697 450l8 1-3 6h-5z"/>
		<path id="Path 147" class="s0" d="m268 453l9-3-3 3-6 2z"/>
		<path id="Path 148" class="s59" d="m688 475l3-8v-17h6v7 7l3 3 9 2v7l-12 4z"/>
		<path id="Path 149" class="s27" d="m719 453l2-3 17 5 5 4 5 14-3 2-9-10-15-2z"/>
		<path id="Path 150" class="s17" d="m159 455l3-4-1 12h-1z"/>
		<path id="Path 151" class="s34" d="m409 458v-7h8l1 4-3 4z"/>
		<path id="Path 152" class="s33" d="m619 455v-4h10v2 2z"/>
		<path id="Path 153" class="s32" d="m640 454l3-3h2l3 6 20 6 7 8 9 4-3 5-12-1-8-1-4-3-1-7-13-3-3-2z"/>
		<path id="Path 154" class="s32" d="m697 457h5l3-6 14 2 2 10v4l-12 2-9-2-3-3z"/>
		<path id="Path 155" class="s34" d="m605 459v-7h5l1 3v4z"/>
		<path id="Path 156" class="s3" d="m749 453v-1l13 3z"/>
		<path id="Path 157" class="s3" d="m261 457l7-4v2l-6 2z"/>
		<path id="Path 158" class="s30" d="m310 482l5-16-2-12 8-1 4 8h4l2-4 7-4h12l1 4 12 4 4 4-1 9-4 3h-5l-6-6h-5l-3 4-21-2-3 12v4h-6z"/>
		<path id="Path 159" class="s18" d="m440 455l1-2h6l1 4z"/>
		<path id="Path 160" class="s45" d="m489 459v-6h10l26 2 5 8-1 2h-34z"/>
		<path id="Path 161" class="s60" d="m629 455v-2h4l7 1v9l-11-2z"/>
		<path id="Path 162" class="s25" d="m749 458v-5l13 2 7 1v5l-2 2z"/>
		<path id="Path 163" class="s1" d="m151 461v-6h8l1 8-1 4-7 1z"/>
		<path id="Path 164" class="s24" d="m415 459l3-4h22l8 2 38 4 1 10-2 4h-10l-2-4h-9l-15-2h-15l-2 3-5 1h-2v-6l-10-4z"/>
		<path id="Path 165" class="s16" d="m611 459v-4h8 10v6l-1 4-13-1z"/>
		<path id="Path 166" class="s6" d="m769 461v-5l3 1h7v1l-2 3z"/>
		<path id="Path 167" class="s3" d="m140 459l-1-2 2 2z"/>
		<path id="Path 168" class="s0" d="m249 462l4-4 8-1h1l-8 4z"/>
		<path id="Path 169" class="s4" d="m779 458v-1l10 3-4-1z"/>
		<path id="Path 170" class="s60" d="m408 459l1-1 6 1v4h-5z"/>
		<path id="Path 171" class="s41" d="m743 459l6-1 18 5v4l-1 2h-6l-4 4h-8z"/>
		<path id="Path 172" class="s25" d="m777 461l2-3 6 1v6h-8z"/>
		<path id="Path 173" class="s4" d="m142 464l-2-5h1z"/>
		<path id="Path 174" class="s46" d="m399 473v-13l9-1 2 4 1 8 6 2v6 6h-8v-6z"/>
		<path id="Path 175" class="s34" d="m486 461l3-2 6 6v6h-8z"/>
		<path id="Path 176" class="s6" d="m785 465v-6l4 1 2 1v4z"/>
		<path id="Path 177" class="s28" d="m791 461l-2-1 7 2z"/>
		<path id="Path 178" class="s61" d="m147 480l4 5v-24l1 7 1 16v7 3l-7-12v-2z"/>
		<path id="Path 179" class="s31" d="m249 462l5-1-22 10 5-4 6-2 5-3z"/>
		<path id="Path 180" class="s45" d="m573 471l1-10h12l5 5 23 1 9 5 8-2 6 1v14l-8 6h-5l-5-6h-18l-2-6h-16z"/>
		<path id="Path 181" class="s19" d="m628 465l1-4 11 2 3 2v6h-6l-6-1z"/>
		<path id="Path 182" class="s7" d="m767 463l2-2h8v4 1l-10 1z"/>
		<path id="Path 183" class="s25" d="m791 465v-4l5 1h3l3 2-1 7h-4z"/>
		<path id="Path 184" class="s28" d="m802 464l-3-2 12 5h-1z"/>
		<path id="Path 185" class="s23" d="m159 467l1-4h1v5h-1z"/>
		<path id="Path 186" class="s22" d="m417 473l-6-2-1-8h5l10 4v6z"/>
		<path id="Path 187" class="s62" d="m529 465l1-2 16 2 6 6-1 2-18-2-4-2z"/>
		<path id="Path 188" class="s59" d="m721 467v-4l15 2 9 10v6l-18-4v-4z"/>
		<path id="Path 189" class="s50" d="m801 471l1-7 8 3 8 9-7 1z"/>
		<path id="Path 190" class="s63" d="m319 485l3-12 21 2 3-4h5l6 6h5l4-3 1-9h6l3 5 7 3v4l-9 2-1 4-23 2-3 8h-6l-12-2-2-6z"/>
		<path id="Path 191" class="s24" d="m495 471v-6h34v4l4 2 18 2 1-2 7 2v6 12h-13l-7-3-4-6h-9l-7-3h-18v-6z"/>
		<path id="Path 192" class="s16" d="m643 471v-6l13 3 1 7z"/>
		<path id="Path 193" class="s64" d="m777 466v-1h8v5h-8z"/>
		<path id="Path 194" class="s29" d="m785 470v-5h6l6 6h-3z"/>
		<path id="Path 195" class="s33" d="m767 467l10-1v4l-4 3-7-1v-3z"/>
		<path id="Path 196" class="s29" d="m135 474l2-7 5 1 4 12v2h-3l1 13-5-5-1-5-2-5z"/>
		<path id="Path 197" class="s21" d="m152 468l7-1 1 1 2 12v3l-5-3-2 4h-2z"/>
		<path id="Path 198" class="s0" d="m228 472l3-4 6-1-5 4z"/>
		<path id="Path 199" class="s58" d="m709 469l12-2 6 6v4l-3 4h-5l-2-4-8-1z"/>
		<path id="Path 200" class="s47" d="m818 476l-8-9h1l7 5 1 1 1 1v2h-1z"/>
		<path id="Path 201" class="s28" d="m131 470v-2l2 2z"/>
		<path id="Path 202" class="s4" d="m146 480l-4-12 5 12z"/>
		<path id="Path 203" class="s3" d="m162 480l-2-12h1z"/>
		<path id="Path 204" class="s65" d="m432 472l2-3h15v8l-4 4-12-2z"/>
		<path id="Path 205" class="s59" d="m445 481l4-4v-8l15 2v7l5 7 6-4v-6h10l2 6 14-2h18l7 3-1 6 4 3 3 9v3h-11l-2-4h-9l-1 8h-8l-3-6h-7l-1-3-17-1-21-4-5 4-14 2v-8l12-2z"/>
		<path id="Path 206" class="s59" d="m756 473l4-4h6v3l-2 4h-6z"/>
		<path id="Path 207" class="s66" d="m773 473l4-3h8l9 1 2 12 5 3v9 1l-16 1h-6v-6l-6-4z"/>
		<path id="Path 208" class="s67" d="m475 475v6l-6 4-5-7v-7h9z"/>
		<path id="Path 209" class="s22" d="m485 475l2-4h8l6 2v6l-14 2z"/>
		<path id="Path 210" class="s62" d="m566 473l7-2 10 8v4h-12l-5-5z"/>
		<path id="Path 211" class="s38" d="m637 485v-14h6l14 4 4 3v5l-6 2z"/>
		<path id="Path 212" class="s55" d="m801 495v-9l-5-3-2-12h3 4l10 6 5 14 7 4 2 14h-5l-2 4-4 1h-3v-9-8z"/>
		<path id="Path 213" class="s0" d="m218 477l3-4 7-1z"/>
		<path id="Path 214" class="s33" d="m427 473l5-1 1 7h-6z"/>
		<path id="Path 215" class="s60" d="m758 476h6l2-4 7 1v14l6 4v6h-20l-4-6v-11z"/>
		<path id="Path 216" class="s19" d="m383 477v-4h11l-2 5z"/>
		<path id="Path 217" class="s16" d="m383 477l9 1 2-5h5l10 6v6l-14-1-3 3v8l-1 1-12 3h-4l-2-16 1-4z"/>
		<path id="Path 218" class="s32" d="m417 479v-6h8 2v6z"/>
		<path id="Path 219" class="s34" d="m559 479v-6h7v5z"/>
		<path id="Path 220" class="s58" d="m745 475l3-2h8l2 3-3 4v11h-5l-5-5v-5z"/>
		<path id="Path 221" class="s4" d="m136 480l-3-6h2z"/>
		<path id="Path 222" class="s3" d="m820 476v-2l2 3z"/>
		<path id="Path 223" class="s34" d="m681 480l3-5h4l9 5 7 8v10h-1l-10-4v-6z"/>
		<path id="Path 224" class="s32" d="m697 480l12-4 8 1 2 4h5l3-4 18 4v5l5 5v5l-6 7-13-1-1-6h-9l-3 3-14-1v-10z"/>
		<path id="Path 225" class="s29" d="m811 477l7-1h1v8l5 7-1 4-7-4z"/>
		<path id="Path 226" class="s6" d="m824 491l-5-7v-8h1l2 1 5 7v1l1 1 1 5z"/>
		<path id="Path 227" class="s0" d="m208 482l3-4 6-1z"/>
		<path id="Path 228" class="s46" d="m559 479l7-1 5 5-2 5 3 2v6l-3 2v7h-8v-4l-2-10z"/>
		<path id="Path 229" class="s44" d="m661 483v-5l8 1v4z"/>
		<path id="Path 230" class="s16" d="m417 485v-6h10 6l12 2v8l-12 2-16-4z"/>
		<path id="Path 231" class="s34" d="m583 483v-4h16l2 6-3 6h-6z"/>
		<path id="Path 232" class="s37" d="m669 483v-4l12 1 12 8v6h-6l-5-1-9-4z"/>
		<path id="Path 233" class="s33" d="m155 484l2-4 5 3v2h-6z"/>
		<path id="Path 234" class="s30" d="m249 487l17 1 8-7h9l4 6v12h-2-9l-2 4h-8l-4-6h-10l-1-1-2-5z"/>
		<path id="Path 235" class="s46" d="m144 495l-1-13h3l7 12v4l-4 1v5z"/>
		<path id="Path 236" class="s0" d="m201 485l7-3-3 2z"/>
		<path id="Path 237" class="s63" d="m305 487l5-5 3 7-5 3z"/>
		<path id="Path 238" class="s65" d="m529 491l-4-3 1-6h9l4 6-2 3z"/>
		<path id="Path 239" class="s53" d="m162 485v-2l2 2h-1z"/>
		<path id="Path 240" class="s19" d="m347 493l3-8 23-2 2 16-12 2-13 1 1-7z"/>
		<path id="Path 241" class="s60" d="m569 505v-7l3-2v-6l-3-2 2-5h12l9 8 1 6h6v2 6 1z"/>
		<path id="Path 242" class="s18" d="m655 485l6-2h8l4 6 9 4-7 4h-13l-1-4h-6z"/>
		<path id="Path 243" class="s11" d="m153 491v-7h2l1 1z"/>
		<path id="Path 244" class="s48" d="m201 485l4-1-6 5h-4l1-2z"/>
		<path id="Path 245" class="s32" d="m392 495v-8l3-3 14 1h8v2l-6 6-11 1z"/>
		<path id="Path 246" class="s66" d="m153 491l3-6h6 1l1 3 3 8v1l2 5v2l-3-3-10 2-3-5v-4z"/>
		<path id="Path 247" class="s40" d="m164 488l-1-3h1z"/>
		<path id="Path 248" class="s19" d="m319 489v-4h8l2 6-1 6-4 1z"/>
		<path id="Path 249" class="s24" d="m598 491l3-6h18l5 6h5v3l-16 1-2-3h-12z"/>
		<path id="Path 250" class="s62" d="m629 491l8-6h18v8l-4 4h-16l-6-3z"/>
		<path id="Path 251" class="s28" d="m828 486l-1-1 2 1z"/>
		<path id="Path 252" class="s63" d="m224 506l2-8 9-10 14-1v4l-1 1-9 10-2 3-9 6z"/>
		<path id="Path 253" class="s3" d="m829 491l-1-5h1l3 10z"/>
		<path id="Path 254" class="s0" d="m188 492l8-5-1 2z"/>
		<path id="Path 255" class="s44" d="m287 499v-12h18l3 5-5 9h-12z"/>
		<path id="Path 256" class="s33" d="m411 493l6-6 16 4v8l-6 2h-17z"/>
		<path id="Path 257" class="s59" d="m537 491l2-3 7 3-1 10-5 1-1-2z"/>
		<path id="Path 258" class="s30" d="m188 492l7-3h4v8l8 5v8h-1l-12 3 1 3h4v3l-7 9h-1l-8 1-11 2h-3v-4l-8-4 1-6h15l9-1 2-5v-9l-7-4 4-4 2-2z"/>
		<path id="Path 259" class="s34" d="m308 492l5-3h6l5 9 1 7 10 2v6l-8 2h-4l-8-2-2-8h-7l1 9v3h-8v-8l-8-4v-4h12z"/>
		<path id="Path 260" class="s23" d="m149 509l-10-19 5 5 5 9 3 6z"/>
		<path id="Path 261" class="s68" d="m248 492l1-1 2 5h-2z"/>
		<path id="Path 262" class="s37" d="m328 497l1-6 12 2v6z"/>
		<path id="Path 263" class="s60" d="m532 500l-3-9h8l2 9z"/>
		<path id="Path 264" class="s60" d="m545 501l1-10h13l2 10z"/>
		<path id="Path 265" class="s46" d="m599 497h-6l-1-6h6l1 1z"/>
		<path id="Path 266" class="s22" d="m599 492h12l2 3 16-1 6 3-2 16h-17l-3 5-8 1-6-13v-1l7-1-1-5h-6v-2z"/>
		<path id="Path 267" class="s34" d="m744 503l6-7v-5h5l4 6-3 7-7 5z"/>
		<path id="Path 268" class="s50" d="m823 495l1-4h5l3 5v4l1 11h-7l-1-2z"/>
		<path id="Path 269" class="s0" d="m181 495l6-3-2 2z"/>
		<path id="Path 270" class="s1" d="m239 502l9-10 1 4-1 3-5 4z"/>
		<path id="Path 271" class="s45" d="m341 499v-6h6l4 2-1 7-1 1h-8z"/>
		<path id="Path 272" class="s1" d="m400 494l11-1-1 8-1 2-10 2v-4z"/>
		<path id="Path 273" class="s12" d="m433 499l14-2 5-4 21 4v16h-4l-8-6-7 3-9-1-10-1 1 8 6 1 5 6v6l-6 2h-6-2v-6l-6-4v-20z"/>
		<path id="Path 274" class="s34" d="m651 497l4-4h6l1 4-10 1z"/>
		<path id="Path 275" class="s32" d="m675 497l7-4 5 1v8l-2 1h-10z"/>
		<path id="Path 276" class="s15" d="m181 495l4-1-4 4-8 5-4 1v-2h2z"/>
		<path id="Path 277" class="s43" d="m392 495l8-1-1 7h-8v-5z"/>
		<path id="Path 278" class="s68" d="m687 502v-8h6l10 4v9l3 3v1h-13l-1-6z"/>
		<path id="Path 279" class="s68" d="m801 496v-1l10 2v8h-4z"/>
		<path id="Path 280" class="s19" d="m248 499l1-3h2l1 1z"/>
		<path id="Path 281" class="s69" d="m379 499l12-3v5l-8 8h-4z"/>
		<path id="Path 282" class="s58" d="m718 499l3-3h9l1 6-4 3 1 16h-19-2l-1-10v-1h7l5-5z"/>
		<path id="Path 283" class="s16" d="m785 497l16-1 6 9-2 9-4 7 8 9v5l-2 6-7-8h-4l-9-12-2-9 2-4z"/>
		<path id="Path 284" class="s2" d="m169 502l-2-5 4 5z"/>
		<path id="Path 285" class="s63" d="m248 499l4-2h10l4 6-3 3v7l-3 3-9 1-7-6-1-6v-2z"/>
		<path id="Path 286" class="s70" d="m324 498l4-1 13 2v4l-6 4-10-2z"/>
		<path id="Path 287" class="s10" d="m473 513v-16l17 1 1 3v10 6l-12 2-2-5z"/>
		<path id="Path 288" class="s32" d="m633 513l2-16h16l1 1-5 7v10 4h-10z"/>
		<path id="Path 289" class="s46" d="m652 498l10-1h13v6l-3 20 8 3-1 9h-13l-3-4-4-13-3-3h-9v-10z"/>
		<path id="Path 290" class="s18" d="m749 509l7-5 3-7h20 6l2 11-2 4-6 2v5l8 2 9 12h4l7 8-3 6-18 2-3 6-6 1v5h-4-11l-15-4v-11l4-5 12 2h6l3-4h7l3-3-5-9h-9l-2-3-15-1z"/>
		<path id="Path 291" class="s45" d="m149 504v-5l4-1 3 5 10-2 3 3 4-1v4h-6l-5 6-9 2-1-5z"/>
		<path id="Path 292" class="s36" d="m173 503l8-5 7 4v9l-2 5-9 1v-7l-4-3z"/>
		<path id="Path 293" class="s60" d="m706 510l-3-3v-9h1l14 1v6l-5 5z"/>
		<path id="Path 294" class="s19" d="m274 503l2-4h9l1 6-3 2h-8z"/>
		<path id="Path 295" class="s62" d="m286 505l-1-6h2l4 2v4z"/>
		<path id="Path 296" class="s71" d="m363 501l12-2h4v10l-2 2-9 2-1 4v4 2l-16-4v-6-3l10-3z"/>
		<path id="Path 297" class="s65" d="m509 507l1-8h9l2 4v6h-12z"/>
		<path id="Path 298" class="s34" d="m599 505v-6h6l1 5z"/>
		<path id="Path 299" class="s33" d="m532 503v-3h7l1 2-2 6z"/>
		<path id="Path 300" class="s3" d="m833 511l-1-11h2v33h-2v-1z"/>
		<path id="Path 301" class="s65" d="m350 502l13-1-2 6-10 3-3-1 1-6z"/>
		<path id="Path 302" class="s7" d="m383 509l8-8h8v4l-9 5-7 1z"/>
		<path id="Path 303" class="s65" d="m409 503l1-2h17v20l-12-2v-7l-6-3z"/>
		<path id="Path 304" class="s27" d="m491 511v-10h7l3 6v4z"/>
		<path id="Path 305" class="s65" d="m540 502l5-1h16v4 10l-22-3-1-4z"/>
		<path id="Path 306" class="s9" d="m237 505l2-3 4 1v2l-3 2z"/>
		<path id="Path 307" class="s66" d="m685 503l2-1 5 3 1 6v6h-6z"/>
		<path id="Path 308" class="s24" d="m728 521l-1-16 4-3 13 1 5 6 2 14h-7l-1 4h-12z"/>
		<path id="Path 309" class="s16" d="m263 513v-7l3-3h8l1 4-3 6h-5z"/>
		<path id="Path 310" class="s20" d="m335 507l6-4h8l-1 6-5 3-4 1h-4z"/>
		<path id="Path 311" class="s27" d="m399 505l10-2v6l6 3v7h-18v-4l-7-5z"/>
		<path id="Path 312" class="s12" d="m521 509v-6h11l6 5 1 4-8 8-7-3v-6z"/>
		<path id="Path 313" class="s33" d="m680 526l-8-3 3-20h10l2 14v5l-3 4z"/>
		<path id="Path 314" class="s43" d="m228 511l9-6 3 2-1 2-10 9-12 5-2-3z"/>
		<path id="Path 315" class="s16" d="m240 507l3-2 1 6 7 6v4h-6l-6-2v-10z"/>
		<path id="Path 316" class="s67" d="m283 507l3-2h5l8 4v8l-1 4h-7l-8-6z"/>
		<path id="Path 317" class="s18" d="m307 514l-1-9h7l2 8z"/>
		<path id="Path 318" class="s67" d="m561 515v-10h8l30 1 6 13h-23l-1 8h-15l1-8z"/>
		<path id="Path 319" class="s46" d="m805 514l2-9h4v9z"/>
		<path id="Path 320" class="s19" d="m213 513l7-7h4l4 5-13 9h-2z"/>
		<path id="Path 321" class="s35" d="m162 513l5-6h6l4 3v7h-15z"/>
		<path id="Path 322" class="s32" d="m272 513l3-6h8v8l-6 1z"/>
		<path id="Path 323" class="s72" d="m442 517l-6-1-1-8 10 1v7z"/>
		<path id="Path 324" class="s73" d="m454 510l7-3 8 6v4h-6l-7-1z"/>
		<path id="Path 325" class="s12" d="m501 511v-4h8v2l-2 4h-4z"/>
		<path id="Path 326" class="s74" d="m151 515l-2-6 3 1 1 5-2 2z"/>
		<path id="Path 327" class="s29" d="m199 516h-4l-1-3 12-3z"/>
		<path id="Path 328" class="s32" d="m229 518l10-9v10l-6 3z"/>
		<path id="Path 329" class="s73" d="m343 512l5-3 3 1v3z"/>
		<path id="Path 330" class="s43" d="m377 511l2-2h4v2l-6 4z"/>
		<path id="Path 331" class="s75" d="m445 516v-7l9 1 2 6z"/>
		<path id="Path 332" class="s72" d="m503 513h4l2-4h12l3 2v6l7 3v4l-4 1-24-4z"/>
		<path id="Path 333" class="s76" d="m818 513l2-4h5l1 2-1 12h-6l-1-4z"/>
		<path id="Path 334" class="s44" d="m199 516l7-6h1l6 3v7l-7 3-7-4z"/>
		<path id="Path 335" class="s41" d="m383 511l7-1 7 5v4l-4 2h-18v-4l2-2z"/>
		<path id="Path 336" class="s7" d="m367 517l1-4 9-2v4l-2 2z"/>
		<path id="Path 337" class="s73" d="m491 517v-6h10l2 2v8h-4z"/>
		<path id="Path 338" class="s16" d="m693 517v-6h13l1 10-8 1-6-1z"/>
		<path id="Path 339" class="s6" d="m825 523l1-12h7l-1 21z"/>
		<path id="Path 340" class="s77" d="m339 513l4-1 8 1v6l-4 3h-8z"/>
		<path id="Path 341" class="s73" d="m531 520l8-8 22 3 6 4-1 8h-11l-20-2-4-1z"/>
		<path id="Path 342" class="s60" d="m787 521l-8-2v-5l6-2z"/>
		<path id="Path 343" class="s36" d="m153 515l9-2v4l-1 6h-10v-5-1z"/>
		<path id="Path 344" class="s27" d="m260 516l3-3h4v3l-7 3z"/>
		<path id="Path 345" class="s12" d="m267 516v-3h5l5 3-4 5h-7z"/>
		<path id="Path 346" class="s20" d="m307 514l8-1 8 2v6l-2 2h-13l-1-6z"/>
		<path id="Path 347" class="s73" d="m327 515l8-2h4v9l-6 3-6-1v-3z"/>
		<path id="Path 348" class="s75" d="m469 517v-4h4l4 1 2 5h-7z"/>
		<path id="Path 349" class="s59" d="m613 518l3-5h17l4 6v14l-4 3h-8v-6l-6-2z"/>
		<path id="Path 350" class="s29" d="m814 514l4-1v6l-4-1z"/>
		<path id="Path 351" class="s11" d="m809 535v-5l-8-9 4-7h6 3v4l4 1 1 4 3 12h-5z"/>
		<path id="Path 352" class="s40" d="m143 521l8-6v2 1l-4 3z"/>
		<path id="Path 353" class="s78" d="m277 516l6-1 8 6-2 10-14 2-2-3v-9z"/>
		<path id="Path 354" class="s72" d="m323 521v-6h4v6z"/>
		<path id="Path 355" class="s59" d="m647 519v-4h9l3 3 4 13h-6l-2-9z"/>
		<path id="Path 356" class="s34" d="m251 517l9-1v3l-7 6-2-4z"/>
		<path id="Path 357" class="s7" d="m260 519l7-3-1 5-6 8-2 2h-2l-4-4 1-2z"/>
		<path id="Path 358" class="s78" d="m442 517l3-1h11l7 1v6l6 4 2 10v8l-10-2 2-3-2-5h-14-4l-2-4 6-2v-6z"/>
		<path id="Path 359" class="s79" d="m298 521l1-4h8l1 6-1 4h-8z"/>
		<path id="Path 360" class="s57" d="m367 521v-4h8v4z"/>
		<path id="Path 361" class="s80" d="m469 527l-6-4v-6h6l3 2v8z"/>
		<path id="Path 362" class="s81" d="m479 519l12-2 8 4v7l-6 1h-6l-10-1-5-1v-8z"/>
		<path id="Path 363" class="s68" d="m687 522v-5h6v4z"/>
		<path id="Path 364" class="s63" d="m147 521l4-3v5 6l-2 1-3-7z"/>
		<path id="Path 365" class="s67" d="m217 523l12-5 4 4v5h-10l-6-2z"/>
		<path id="Path 366" class="s72" d="m605 519l8-1 6 10 6 2v6l-6 2v4l-4 4 1 7-1 4h-5l-1-4h-8l-9-11v-4h5 8l-2-5h-5l-2-3-15-3 1-8z"/>
		<path id="Path 367" class="s18" d="m192 528l7-9 7 4-5 4z"/>
		<path id="Path 368" class="s46" d="m233 522l6-3 6 2 2 8-6 5-2-6-6-1z"/>
		<path id="Path 369" class="s82" d="m347 522l4-3 16 4v5l-2 3-13-2v-4z"/>
		<path id="Path 370" class="s57" d="m393 521l4-2h18l12 2 6 4v6l-14 2h-5l-4-8h-8l-3 4h-6z"/>
		<path id="Path 371" class="s65" d="m637 533v-14h10l8 3 2 9-9 2z"/>
		<path id="Path 372" class="s57" d="m206 523l7-3h2l2 3v2l-1 1-9 4-10 2-4 1h-2v-5h1l9-1z"/>
		<path id="Path 373" class="s15" d="m142 522l1-1h4l-1 2-4 1z"/>
		<path id="Path 374" class="s20" d="m247 529l-2-8h6l2 4-1 2z"/>
		<path id="Path 375" class="s73" d="m260 529l6-8h7v9z"/>
		<path id="Path 376" class="s80" d="m289 531l2-10h7l1 6-2 4z"/>
		<path id="Path 377" class="s83" d="m321 523l2-2h4v3l-5 1z"/>
		<path id="Path 378" class="s69" d="m367 523v-2h8 18v8l-6 4h-8l-12-5z"/>
		<path id="Path 379" class="s78" d="m499 528v-7h4l24 4v9l-17-1 1-5z"/>
		<path id="Path 380" class="s60" d="m687 522l6-1 6 1v8l-4 7-10-2-1-9z"/>
		<path id="Path 381" class="s24" d="m699 522l8-1h2v7l-10 11h-4v-2l4-7z"/>
		<path id="Path 382" class="s20" d="m699 539l10-11v-7h19l3 6v12l-8 6-12 1-2 6-5 1-5-8z"/>
		<path id="Path 383" class="s61" d="m133 531v-3l9-6v2l-7 7z"/>
		<path id="Path 384" class="s69" d="m333 525l6-3h8l5 3v4l-9 6-11-4z"/>
		<path id="Path 385" class="s16" d="m142 524l4-1 3 7v7l-2 8-1 6-4-1-2-5-1-4-4-4v-6z"/>
		<path id="Path 386" class="s44" d="m151 529v-6h10l8 4v4l-5 1-4-3z"/>
		<path id="Path 387" class="s84" d="m299 527h8l1-4h13l1 2-4 8-8 2-5 6-3 2-1 16h-14v-6l9-10 1-12z"/>
		<path id="Path 388" class="s62" d="m743 527l1-4h7l15 1 2 3-5 5v11l-12-2-4 5v11h-5-11l-8-4v-8l8-6 13 2z"/>
		<path id="Path 389" class="s50" d="m822 535l-3-12h6l7 9v1 4l-2 4h-6z"/>
		<path id="Path 390" class="s85" d="m322 525l5-1 6 1-1 6-11 5-3-3z"/>
		<path id="Path 391" class="s81" d="m527 525l4-1 4 1v10l-8-1z"/>
		<path id="Path 392" class="s70" d="m216 526l1-1 6 2v4h-6z"/>
		<path id="Path 393" class="s13" d="m399 529l3-4h8l4 8-5 6-10-3z"/>
		<path id="Path 394" class="s80" d="m535 535v-10l20 2v6l-6 2h-8z"/>
		<path id="Path 395" class="s86" d="m207 530l9-4 1 5-2 10h-4l-4-3z"/>
		<path id="Path 396" class="s68" d="m679 535l1-9h4l1 9z"/>
		<path id="Path 397" class="s56" d="m223 531v-4h10l6 1 2 6-4 4-8 5-6 1z"/>
		<path id="Path 398" class="s1" d="m247 529l5-2 4 4-7 8-8 5h-2l-2-6 4-4z"/>
		<path id="Path 399" class="s72" d="m471 537l-2-10h3l5 1 1 7-3 2z"/>
		<path id="Path 400" class="s87" d="m555 533v-6h11l-1 4-8 2z"/>
		<path id="Path 401" class="s88" d="m557 533l8-2 1-4h15l15 3 2 3-1 5h-5l-35 2z"/>
		<path id="Path 402" class="s56" d="m731 539v-12h12l1 14z"/>
		<path id="Path 403" class="s45" d="m763 543v-11l5-5h9l5 9-3 3h-7l-3 4z"/>
		<path id="Path 404" class="s10" d="m183 529l8-1v5l-8 1z"/>
		<path id="Path 405" class="s89" d="m352 529l13 2 2-3 12 5v6l-14 2h-22v-6z"/>
		<path id="Path 406" class="s57" d="m478 535l-1-7 10 1v4z"/>
		<path id="Path 407" class="s73" d="m493 529l6-1h12l-1 5-15 1-2-1z"/>
		<path id="Path 408" class="s19" d="m149 530l2-1h9l4 3-1 7h-9l-5-2z"/>
		<path id="Path 409" class="s12" d="m172 531l11-2v5 1l-12 2z"/>
		<path id="Path 410" class="s83" d="m258 531l2-2 13 1 2 3 14-2h8l-1 12-9 10-13-1-1-4-2-7h-8z"/>
		<path id="Path 411" class="s90" d="m379 533h8l6-4h6v7l-5 4-15-1z"/>
		<path id="Path 412" class="s42" d="m487 533v-4h6v4l-5 1z"/>
		<path id="Path 413" class="s56" d="m197 532l10-2v8l4 3v6h-4l-10-8z"/>
		<path id="Path 414" class="s15" d="m134 538l-1-7h2v6l4 4-3-1z"/>
		<path id="Path 415" class="s58" d="m164 532l5-1h3l-1 6v3l-8-1z"/>
		<path id="Path 416" class="s79" d="m215 541l2-10h6v13l-3 3h-5z"/>
		<path id="Path 417" class="s81" d="m249 539l7-8h2l5 10 1 7h9l1 4 13 1v6h-8l-16 1-2-7h-8l-2-6z"/>
		<path id="Path 418" class="s90" d="m321 536l11-5 11 4v6h-14-8z"/>
		<path id="Path 419" class="s81" d="m419 533l14-2h2l2 11-2 1h-9l-7-6z"/>
		<path id="Path 420" class="s88" d="m437 542l-2-11h6l2 4h4l1 7z"/>
		<path id="Path 421" class="s22" d="m648 533l9-2h6l3 4-9 5-9-1v-1z"/>
		<path id="Path 422" class="s86" d="m193 533l4-1v7h-4z"/>
		<path id="Path 423" class="s70" d="m183 534l8-1h2v6l-4 6h-6v-10z"/>
		<path id="Path 424" class="s71" d="m305 541l5-6 8-2 3 3v5 2z"/>
		<path id="Path 425" class="s71" d="m409 539l5-6h5v4l7 6-1 7h-2l-7-4-3-5h-4z"/>
		<path id="Path 426" class="s56" d="m478 535l9-2 1 1v4l3 1 1 8v1l-5-1h-6l-6-2v-8z"/>
		<path id="Path 427" class="s78" d="m488 534l5-1 2 1-4 5-3-1z"/>
		<path id="Path 428" class="s70" d="m495 534l15-1 17 1 8 1h6v6l-6 2-12 1-9 1-22 2-1-8z"/>
		<path id="Path 429" class="s70" d="m549 535l6-2h2v7l-2 1h-6z"/>
		<path id="Path 430" class="s70" d="m597 538l1-5h5l2 5z"/>
		<path id="Path 431" class="s56" d="m633 536l4-3h11v5l-6 1h-9z"/>
		<path id="Path 432" class="s7" d="m701 569v-2h9v2h-3-5z"/>
		<path id="Path 433" class="s3" d="m830 541l2-4-3 6z"/>
		<path id="Path 434" class="s86" d="m171 537l12-2v10l-2 2h-8l-2-7z"/>
		<path id="Path 435" class="s70" d="m448 542l-1-7h14l2 5-2 3h-8z"/>
		<path id="Path 436" class="s88" d="m541 541v-6h8v6z"/>
		<path id="Path 437" class="s32" d="m657 540l9-5h13 6l10 2v2 6l-13-1-1 5-13 4-3-4h-6z"/>
		<path id="Path 438" class="s55" d="m807 541l2-6h8l-2 13-7 3-4-1v-3z"/>
		<path id="Path 439" class="s29" d="m815 548l2-13h5l2 6-3 7z"/>
		<path id="Path 440" class="s85" d="m379 539l15 1 5-4 10 3v2l-4 6-4 1v3h-6l-11 2h-17-4l2-12z"/>
		<path id="Path 441" class="s24" d="m619 542v-4l6-2h8v3l-2 6h-6z"/>
		<path id="Path 442" class="s34" d="m147 545l2-8 5 2-1 6z"/>
		<path id="Path 443" class="s79" d="m471 545v-8h4v8z"/>
		<path id="Path 444" class="s7" d="m229 543l8-5 2 6-8 5z"/>
		<path id="Path 445" class="s73" d="m557 540l35-2v4l9 11 2 12-3 11-13-5-2-2v-7l-3-3-11-1-13-6-3-5v-6z"/>
		<path id="Path 446" class="s33" d="m642 539l6-1v1l-5 3z"/>
		<path id="Path 447" class="s70" d="m147 545h6l1-6h9l8 1 2 7h8v8l4 3 2 3h6l1 10-1 3h-3l-9-5-5-8h-8l-3 11-6-7-2-2-5-6-6-5v-1z"/>
		<path id="Path 448" class="s88" d="m183 545h6l4-6h4l10 8v4l-8 3-14 4-4-3v-8z"/>
		<path id="Path 449" class="s80" d="m241 544l8-5 2 8h-10z"/>
		<path id="Path 450" class="s22" d="m631 545l2-6h9l1 3v7l-4 1v3l-8-1z"/>
		<path id="Path 451" class="s55" d="m643 542l5-3 9 1 2 9v6h-9-3l-4-6z"/>
		<path id="Path 452" class="s58" d="m695 545v-6h4v6z"/>
		<path id="Path 453" class="s53" d="m143 553l-5-3 1-8-3-2 3 1 1 4-1 4z"/>
		<path id="Path 454" class="s78" d="m211 547v-6h4v6l-2 1z"/>
		<path id="Path 455" class="s75" d="m273 548h-9l-1-7h8z"/>
		<path id="Path 456" class="s91" d="m301 559l1-16 3-2 16 2 2 4h6l6 2-1 8-2 1h-5l-14 1h-6-1z"/>
		<path id="Path 457" class="s85" d="m321 543v-2h8v6h-6z"/>
		<path id="Path 458" class="s92" d="m329 547v-6h14 22l-2 12-3 2h-6-4l-5 1-11 1 1-8z"/>
		<path id="Path 459" class="s84" d="m405 547l4-6h4l3 5-4 5h-3-1z"/>
		<path id="Path 460" class="s72" d="m535 543l6-2h8 6v6h-16-3z"/>
		<path id="Path 461" class="s6" d="m821 548l3-7h6l-1 2-2 2-3 3-3 1z"/>
		<path id="Path 462" class="s49" d="m435 543l2-1h11l5 1v6h-16z"/>
		<path id="Path 463" class="s75" d="m523 544l12-1 1 4-1 8-7 1-5-4z"/>
		<path id="Path 464" class="s93" d="m616 553l-1-7 4-4 6 3v8z"/>
		<path id="Path 465" class="s13" d="m223 544l6-1 2 6-8 4-3-6z"/>
		<path id="Path 466" class="s82" d="m425 550l1-7h9l2 6v7z"/>
		<path id="Path 467" class="s69" d="m453 549v-6h8l10 2v2l-2 2h-14z"/>
		<path id="Path 468" class="s81" d="m231 549l8-5h2v3l-1 6 6 5v5l-3 2h-19-6-5v-7-1l10-4z"/>
		<path id="Path 469" class="s77" d="m514 545l9-1v8l-9-3z"/>
		<path id="Path 470" class="s59" d="m681 549l1-5 13 1h4l5 8v9l6 4v1h-9-1l-2-4h-4v-8l-8-6z"/>
		<path id="Path 471" class="s31" d="m143 553l-4-4 1-4 2 5 4 1v1 1h-2z"/>
		<path id="Path 472" class="s71" d="m471 547v-2h4l6 2-8 1z"/>
		<path id="Path 473" class="s93" d="m492 547l22-2v4l-4 4h-11l-7-5z"/>
		<path id="Path 474" class="s59" d="m625 553v-8h6v7l-1 1z"/>
		<path id="Path 475" class="s18" d="m709 552l2-6 12-1v8z"/>
		<path id="Path 476" class="s79" d="m412 551l4-5 7 4v6h-2z"/>
		<path id="Path 477" class="s93" d="m207 551v-4h4l2 1v3h-3z"/>
		<path id="Path 478" class="s21" d="m213 548l2-1h5l3 6-10 4v-6z"/>
		<path id="Path 479" class="s83" d="m246 563v-5l-6-5 1-6h10l2 6-2 10z"/>
		<path id="Path 480" class="s79" d="m401 551v-3l4-1 3 4h-6z"/>
		<path id="Path 481" class="s43" d="m469 549l2-2 2 1z"/>
		<path id="Path 482" class="s8" d="m473 548l8-1h6v11l-9 2-1 5-10 2-4-6h-6l-2-12h14z"/>
		<path id="Path 483" class="s1" d="m487 558v-11l5 1 7 5v6h-9z"/>
		<path id="Path 484" class="s73" d="m535 555l1-8h3v8z"/>
		<path id="Path 485" class="s52" d="m539 555v-8h16l3 5 13 6v8l-16-1v-5l-5-5z"/>
		<path id="Path 486" class="s68" d="m783 555l3-6 18-2v3l-3 5-6 4h-12z"/>
		<path id="Path 487" class="s76" d="m808 551l7-3h6v1l-4 4-9 5h-1l-2 1 1-4z"/>
		<path id="Path 488" class="s4" d="m821 549l3-1-7 5z"/>
		<path id="Path 489" class="s89" d="m437 556v-7h16 2l2 12v7l-4-1-13-8z"/>
		<path id="Path 490" class="s57" d="m499 553h11l4-4 9 3 5 4 7-1h4 11l5 5v5l-2 8-8 8-7-1-7-2h-2l-6-3-12-7-5-3-3-2h-1l-3-4z"/>
		<path id="Path 491" class="s65" d="m639 553v-3l4-1 4 6v4h-4l-4-2z"/>
		<path id="Path 492" class="s59" d="m659 555v-6h6l3 4-1 2z"/>
		<path id="Path 493" class="s12" d="m668 553l13-4h5l8 6v8l-9-4-12 1-6-5z"/>
		<path id="Path 494" class="s87" d="m423 556v-6h2l12 6 3 3-5 6-3-1z"/>
		<path id="Path 495" class="s11" d="m801 555l3-5 4 1-2 4z"/>
		<path id="Path 496" class="s42" d="m199 554l8-3h3v7l-10 1z"/>
		<path id="Path 497" class="s7" d="m210 558v-7h3v6 1z"/>
		<path id="Path 498" class="s15" d="m384 553l11-2v2z"/>
		<path id="Path 499" class="s61" d="m395 553v-2h6 1z"/>
		<path id="Path 500" class="s15" d="m421 557l-12-6h3l9 5z"/>
		<path id="Path 501" class="s66" d="m146 553v-1l6 5-2-1z"/>
		<path id="Path 502" class="s41" d="m630 553l1-1 8 1v4h-7z"/>
		<path id="Path 503" class="s34" d="m704 553l5-1 14 1 8 4v8l-21 1-6-4z"/>
		<path id="Path 504" class="s4" d="m145 559l4-2-5-4h2l4 3-1 3h-2z"/>
		<path id="Path 505" class="s80" d="m251 563l2-10h8l2 7v1h-3l-6 2z"/>
		<path id="Path 506" class="s2" d="m360 555l3-2h4z"/>
		<path id="Path 507" class="s57" d="m603 565l-2-12h8l1 4z"/>
		<path id="Path 508" class="s21" d="m610 557h5l1-4h9 5l2 4-3 7-4 1v5l-4 1-5-2-3 3v9h-12l-1-5 3-11z"/>
		<path id="Path 509" class="s3" d="m808 558l9-5-3 4z"/>
		<path id="Path 510" class="s93" d="m185 558l14-4 1 5-1 2h-6-6z"/>
		<path id="Path 511" class="s39" d="m345 556l5-1v2h-5z"/>
		<path id="Path 512" class="s3" d="m350 557v-2h4z"/>
		<path id="Path 513" class="s12" d="m647 559v-4h3z"/>
		<path id="Path 514" class="s42" d="m647 559l3-4h9 8l6 5v5h-5-5l-10-2z"/>
		<path id="Path 515" class="s66" d="m777 561v-5l6-1v4z"/>
		<path id="Path 516" class="s29" d="m783 559h12l6-4h5l-1 4-5 3-27 5-1-2 1-4h4z"/>
		<path id="Path 517" class="s17" d="m149 559l1-3 2 1 5 6z"/>
		<path id="Path 518" class="s51" d="m334 557l11-1v1l-13 1z"/>
		<path id="Path 519" class="s61" d="m421 557v-1h2l9 8 3 2 8 5 2 3v1l-9-5-2-2z"/>
		<path id="Path 520" class="s43" d="m313 559l14-1v1h-11z"/>
		<path id="Path 521" class="s25" d="m629 564l3-7h7l4 2h-3l-3 14v1l-3 1-5-5z"/>
		<path id="Path 522" class="s58" d="m731 565v-8h11l-3 8h-1z"/>
		<path id="Path 523" class="s27" d="m739 565l3-8h5l15 4v2l-9 2h-7z"/>
		<path id="Path 524" class="s87" d="m200 559l10-1h3v7l-14 4v-8z"/>
		<path id="Path 525" class="s9" d="m477 565l1-5 9-2 3 1-1 6z"/>
		<path id="Path 526" class="s71" d="m571 566v-8l11 1 3 3v7h-8z"/>
		<path id="Path 527" class="s4" d="m805 559l2-1-7 5v-1z"/>
		<path id="Path 528" class="s74" d="m153 572l-7-5-1-8h2v6l6 6z"/>
		<path id="Path 529" class="s50" d="m153 571l-6-6v-6h2l8 4 2 2-2 5 2 2z"/>
		<path id="Path 530" class="s15" d="m263 560l16-1v1l-16 1z"/>
		<path id="Path 531" class="s54" d="m279 560v-1h8 14 5v1z"/>
		<path id="Path 532" class="s0" d="m306 559h1v1h-1z"/>
		<path id="Path 533" class="s51" d="m307 560v-1h6 3v1z"/>
		<path id="Path 534" class="s0" d="m316 560v-1h11z"/>
		<path id="Path 535" class="s81" d="m435 565l5-6 13 8-2 4h-8l-8-5z"/>
		<path id="Path 536" class="s5" d="m477 565h12l1-6h9l3 4-3 9-5 1-17 4-5 1h-3l-1-1-1-4v-6z"/>
		<path id="Path 537" class="s2" d="m637 573l3-14h3v1l-2 10z"/>
		<path id="Path 538" class="s51" d="m643 560v-1h4l6 4z"/>
		<path id="Path 539" class="s57" d="m673 560l12-1 9 4h4l2 4h-5-17l-4-1-1-1z"/>
		<path id="Path 540" class="s53" d="m263 561l16-1-19 3v-2z"/>
		<path id="Path 541" class="s78" d="m165 572l3-11h8l5 8h-9v3l9 12h-9l-4-4-2-4z"/>
		<path id="Path 542" class="s88" d="m194 571l-1-10h6v8z"/>
		<path id="Path 543" class="s61" d="m254 563l6-2v2z"/>
		<path id="Path 544" class="s94" d="m457 568v-7h6l4 6v6z"/>
		<path id="Path 545" class="s64" d="m762 563v-2h11l-1 4-7 1z"/>
		<path id="Path 546" class="s3" d="m773 567l27-5v1l-10 4-17 1z"/>
		<path id="Path 547" class="s61" d="m243 565l3-2h5z"/>
		<path id="Path 548" class="s50" d="m753 565l9-2 3 3 7-1 1 2v1l-1 1h-9l-4 1z"/>
		<path id="Path 549" class="s33" d="m435 566l-3-2 3 1z"/>
		<path id="Path 550" class="s50" d="m625 570v-5l4-1v6z"/>
		<path id="Path 551" class="s27" d="m159 572l-2-2 2-5 6 7 1 4-3-1z"/>
		<path id="Path 552" class="s27" d="m199 569l14-4h5l-4 3-4 1-3 2-10 4h-1l-3-1 1-3z"/>
		<path id="Path 553" class="s40" d="m214 568l4-3h6z"/>
		<path id="Path 554" class="s49" d="m553 573l2-8 16 1 6 3-2 4z"/>
		<path id="Path 555" class="s40" d="m669 567l-6-2h5z"/>
		<path id="Path 556" class="s23" d="m669 567l-1-2h5l1 1v1z"/>
		<path id="Path 557" class="s64" d="m710 566l21-1h7l-5 4h-23v-2z"/>
		<path id="Path 558" class="s50" d="m733 569l5-4h1 7l-1 6-6 1-6-2z"/>
		<path id="Path 559" class="s6" d="m745 571l1-6h7l6 5-3 1z"/>
		<path id="Path 560" class="s3" d="m674 567v-1l4 1v1z"/>
		<path id="Path 561" class="s32" d="m443 571h8l2-4 4 1 10 5 1 4-6 1h-10l-4-2-3-2z"/>
		<path id="Path 562" class="s40" d="m678 568v-1h17v1h-1z"/>
		<path id="Path 563" class="s9" d="m695 568v-1h5 1v2z"/>
		<path id="Path 564" class="s4" d="m210 569l4-1-7 4v-1z"/>
		<path id="Path 565" class="s40" d="m523 575h-4l-8-7z"/>
		<path id="Path 566" class="s4" d="m702 570l-8-2h1l6 1h1z"/>
		<path id="Path 567" class="s49" d="m181 584l-9-12v-3h9l9 5 2 4 1 1v2l-6 7z"/>
		<path id="Path 568" class="s43" d="m553 573h22l2-4h8l2 2v12l-3 4-13-1-1-5-8 2h-11-5l-1-2z"/>
		<path id="Path 569" class="s76" d="m613 581v-9l3-3 5 2-1 10-3 1z"/>
		<path id="Path 570" class="s53" d="m702 570v-1h5v1z"/>
		<path id="Path 571" class="s0" d="m707 570v-1h3 23v1z"/>
		<path id="Path 572" class="s28" d="m759 570l4-1v1l-7 2v-1z"/>
		<path id="Path 573" class="s4" d="m763 570v-1h9z"/>
		<path id="Path 574" class="s6" d="m621 571l4-1h4l5 5-1 3h-2l-9 3h-2z"/>
		<path id="Path 575" class="s61" d="m153 572v-1l6 1 4 3h-2z"/>
		<path id="Path 576" class="s1" d="m197 575l10-4v1l-1 1-1 7-8 1z"/>
		<path id="Path 577" class="s7" d="m587 583v-12l13 5 1 5v2h-2z"/>
		<path id="Path 578" class="s4" d="m739 572l6-1h11v1z"/>
		<path id="Path 579" class="s0" d="m205 580l1-7 1 8z"/>
		<path id="Path 580" class="s3" d="m477 577l17-4-5 4z"/>
		<path id="Path 581" class="s0" d="m192 578l-2-4h3l3 1h-5z"/>
		<path id="Path 582" class="s39" d="m445 575v-1l3 2v1z"/>
		<path id="Path 583" class="s4" d="m634 575l3-1-4 4z"/>
		<path id="Path 584" class="s40" d="m168 580l-7-5h2l3 1z"/>
		<path id="Path 585" class="s0" d="m193 579l3 1v-5h1v6h-4z"/>
		<path id="Path 586" class="s51" d="m448 577v-1l4 2z"/>
		<path id="Path 587" class="s51" d="m462 578l6-1 1 1z"/>
		<path id="Path 588" class="s28" d="m622 581l9-3-9 4z"/>
		<path id="Path 589" class="s17" d="m173 589l-4-3-1-6 4 4 3 5z"/>
		<path id="Path 590" class="s7" d="m197 581l8-1 2 1-1 8-1 4 7 4h1v1l-5 7-5-1-2-1-3-3-4-2-7-6v-4l6-7z"/>
		<path id="Path 591" class="s53" d="m546 583l-8-3 7 1z"/>
		<path id="Path 592" class="s9" d="m562 583l8-2 1 5h-2l-6-1z"/>
		<path id="Path 593" class="s6" d="m601 583v-2h12l4 1v1l-5 2-7 1z"/>
		<path id="Path 594" class="s74" d="m617 582l3-1h2v1l-5 1z"/>
		<path id="Path 595" class="s61" d="m563 585l-12-2h11z"/>
		<path id="Path 596" class="s9" d="m584 587l3-4h12v4h-1z"/>
		<path id="Path 597" class="s5" d="m599 587v-4h2l4 3z"/>
		<path id="Path 598" class="s27" d="m175 589l-3-5h9l6 4v4l-7-1z"/>
		<path id="Path 599" class="s3" d="m569 587l-6-2 6 1z"/>
		<path id="Path 600" class="s3" d="m605 586l7-1-14 3v-1h1z"/>
		<path id="Path 601" class="s40" d="m569 587v-1h2l13 1h14v1z"/>
		<path id="Path 602" class="s4" d="m181 593l-8-4h2l5 2z"/>
		<path id="Path 603" class="s15" d="m212 597l-7-4 1-4z"/>
		<path id="Path 604" class="s15" d="m181 593l-1-2 7 1 7 6z"/>
		<path id="Path 605" class="s4" d="m213 598v-1l9 3z"/>
		<path id="Path 606" class="s6" d="m208 605l5-7 9 2 2 1-1 5h-8z"/>
		<path id="Path 607" class="s4" d="m215 606h8l1-5v6h-9z"/>
		<path id="Path 608" class="s3" d="m203 605l-2-2 2 1z"/>
		<path id="Path 609" class="s40" d="m203 605v-1l5 1 7 1v1h-10z"/>
	</g>
</svg>