<svg version="1.2" xmlns="http://www.w3.org/2000/svg" viewBox="0 0 1000 1000" width="1000" height="1000">
	<title>Oncorhynchus_gorbuscha</title>
	<style>
		.s0 { fill: #e5e7e3 } 
		.s1 { fill: #dde0db } 
		.s2 { fill: #585957 } 
		.s3 { fill: #5e5b59 } 
		.s4 { fill: #65615e } 
		.s5 { fill: #d3d8d4 } 
		.s6 { opacity: 1;fill: #d8d8d0 } 
		.s7 { fill: #75655c } 
		.s8 { fill: #6a706b } 
		.s9 { fill: #845c4e } 
		.s10 { fill: #91695d } 
		.s11 { fill: #868482 } 
		.s12 { fill: #836159 } 
		.s13 { fill: #715f57 } 
		.s14 { fill: #76746b } 
		.s15 { fill: #54504d } 
		.s16 { fill: #acafa9 } 
		.s17 { opacity: 1;fill: #d2cec1 } 
		.s18 { fill: #b8bfba } 
		.s19 { opacity: 1;fill: #454341 } 
		.s20 { fill: #7f6c63 } 
		.s21 { fill: #c0c1b9 } 
		.s22 { fill: #cbd0cc } 
		.s23 { fill: #747f77 } 
		.s24 { fill: #c5cac5 } 
		.s25 { fill: #5d4742 } 
		.s26 { fill: #978d89 } 
		.s27 { fill: #735448 } 
		.s28 { fill: #b6b0a6 } 
		.s29 { fill: #76797b } 
		.s30 { fill: #695752 } 
		.s31 { fill: #a7a298 } 
		.s32 { fill: #4e4e57 } 
		.s33 { opacity: 1;fill: #a97447 } 
		.s34 { fill: #656761 } 
		.s35 { fill: #6c443a } 
		.s36 { opacity: 1;fill: #9c9b9b } 
		.s37 { fill: #94634a } 
		.s38 { fill: #7e4f40 } 
		.s39 { fill: #837d73 } 
		.s40 { fill: #9c7061 } 
		.s41 { fill: #a17d6b } 
		.s42 { fill: #917d74 } 
		.s43 { fill: #737d82 } 
		.s44 { opacity: 1;fill: #cbc2b0 } 
		.s45 { fill: #a8614d } 
		.s46 { fill: #a66762 } 
		.s47 { fill: #965348 } 
		.s48 { opacity: 1;fill: #cab39a } 
		.s49 { opacity: 1;fill: #c0794c } 
		.s50 { opacity: 1;fill: #33393b } 
		.s51 { fill: #b2726a } 
		.s52 { fill: #8d9192 } 
		.s53 { opacity: 1;fill: #473936 } 
		.s54 { fill: #2d3233 } 
		.s55 { fill: #a7887e } 
		.s56 { fill: #bf685d } 
		.s57 { fill: #c1816d } 
		.s58 { fill: #383e47 } 
		.s59 { opacity: 1;fill: #c5957d } 
		.s60 { opacity: 1;fill: #616666 } 
		.s61 { fill: #b7a090 } 
		.s62 { opacity: 1;fill: #3c4252 } 
		.s63 { fill: #748679 } 
		.s64 { fill: #aa9783 } 
		.s65 { fill: #859493 } 
		.s66 { fill: #4b2c26 } 
		.s67 { fill: #606d64 } 
		.s68 { opacity: .2;fill: #d9d9d4 } 
		.s69 { opacity: .5;fill: #d1d0cc } 
		.s70 { fill: #bc5f55 } 
		.s71 { opacity: .7;fill: #d5d3cb } 
		.s72 { opacity: .4;fill: #d5d3ce } 
		.s73 { opacity: 1;fill: #6c7b8f } 
		.s74 { opacity: 1;fill: #c39261 } 
		.s75 { fill: #b78686 } 
		.s76 { fill: #576573 } 
		.s77 { opacity: .8;fill: #bcb7b2 } 
		.s78 { opacity: .7;fill: #c3b9af } 
		.s79 { opacity: 1;fill: #77a393 } 
		.s80 { opacity: 1;fill: #6f9273 } 
		.s81 { opacity: .7;fill: #adb4b9 } 
		.s82 { opacity: .5;fill: #c0b9b8 } 
		.s83 { opacity: .3;fill: #e1df1b } 
	</style>
	<g id="Background">
		<path id="Path 0" class="s0" d="m395 592l9-9 10-3 9 9 17 3 22-14 10-1 5-7 17-6h7l2 4 21 2 6-9 50 1 4-4 13-1 4 5 19 2 30-12 11-1 12 11 3 10 9 6v4l-6 6h-4l-3 7-5 3v8l-1 2-8-4-5-13-10-5h-13l-7 4-12 1v16l-22 1h-2l-6-5-18 2h-8-8l-15 1-6 1-2 8h-2l-3 1h-3l-5 1h-1l-3 1h-4l-9 1h-6l-9 1h-5l-11 1h-3-11v-1l-2-8-8 2v6l-6 1h-19-3l-1-9-15-13zm302-4l-2-13 3-3 9 3-1 12v1z"/>
		<path id="Path 1" fill-rule="evenodd" class="s1" d="m388 582l20-22 13 4v7l5 7 15 2 10-10 21-7 17-11 11 1 3 4 14 3 14-13 19 5 15-2 16 2 9-5 29 1 22-7 36-1 15-7 17-3v9l10 5h7l12-7h11l2 11 6 6v6l-15 8-13 4-7 7-16 8 1-12-9-3-3 3 2 13-1 6-7 1 1 5-5 3-1 5-7-1h-1l-9-1v-8l5-3 3-7h4l6-6v-4l-9-6-3-10-12-11-11 1-30 12-19-2-4-5-13 1-4 4-50-1-6 9-21-2-2-4h-7l-17 6-5 7-10 1-22 14-17-3-9-9-10 3-9 9zm-99-36l20 2 12 7 4 6 8 1 4 11-2 1h-6l-7 2-7 1-19-1-7-10zm2 41l2-1h6l5 4-1 22h-2l-3-1-4-1-9-1v-7zm320 20v-16l12-1 7-4h13l10 5 5 13-5 3zm-218-7l2-1 15 13 1 9h-9l-3-1v-5l-7-10zm46 20v-6l8-2 2 8z"/>
		<path id="Path 2" class="s2" d="m334 365l32-5h21 8l4 1h5l1 1-4 14-13 14 3 22 13 10 8 2h17l4 4 23-2 3 9-4 5-21-2-5 4h-14l-92-4-2 4-26 4h-53l-7 4v6h-4-3v-14l4-3-2-5 10-5 8-5 8-8 1-1 1-1 4-5 4-5 10-10 6-5 3-2 3-2 4-1 1 8-24 17 3 9 19-5 25 1 9 5 26-5 11-9 6-11h5l4-4v-10l-14-3-6-7-22-2zm565 121l10-2v10l-4 3v5h-10l-1-10 5-1zm-826 41v-9l8 4v7h-4zm110 3v-6h5v5zm-68-4l5-1h3v3l-2 8h-6zm668 58l-14-11v-5h12l4 12zm-426 2l4-6h6l2 28-4 2h-6v-4l4-13zm213 32v-2l8 2 2 4 9 1 5 19-6 8-3 23-6 5-9 2-5-6 3-9 7-1 4-8v-28z"/>
		<path id="Path 3" fill-rule="evenodd" class="s3" d="m235 456v-6l7-4h53l26-4 2-4 92 4h14l5-4 21 2 4-5-3-9-23 2-4-4h-17l-8-2-13-10-3-22 13-14 4-14h4l10 1v7h-5l-4 4v5l-7 8-2 21 5 4 10-2 21 6 3-4h16l5 4 13-2 3 4 19 4 55 4 14 13v9l-8 5-16 1-56-8-51 1-1 5-3 2h-23l-2-4h-6l-3-4-33-2h-14v4h-39l-5 2v4h-14l-3-4h-26l-3 6h-7l-1 4zm77-84l22-7 1 3 22 2 6 7 14 3v10l-4 4h-5l-6 11-11 9-26 5-9-5-25-1-19 5-3-9 24-17-1-8 8-6zm582 120l-1-6h6v5zm-813 37v-7l8 2 1 1v1l-1 5zm688 35l11-2 3 6h-14z"/>
		<path id="Path 4" fill-rule="evenodd" class="s4" d="m565 448v-9l-14-13-55-4-19-4-3-4-13 2-5-4h-16l-3 4-21-6-10 2-5-4 2-21 7-8v-5l4-4h5l-2 25 4 5 11 2 12-2 19 2 3-3v-24l18 2 1 7-6 3v5l12 15 16 5h14l15 6h16l25 12v5l4 3h12v6zm-216 0v-4h14l33 2 3 4v6h-10l-5-4h-13l-2-3zm84 4l1-5 51-1 56 8v4l-25 2-9-5-22-3zm462 50h10v7l6 1v13l-2 7-14-2zm-357 148l-6-18h3zm32 30l9-2v5l-6 4-3-2z"/>
		<path id="Path 5" class="s5" d="m687 520l15-4 30 2 4 4-3 8h-24l-17 3-15 7-36 1-22 7-29-1-9 5-16-2-15 2-19-5-14 13-14-3-3-4-11-1-17 11-21 7-10 10-15-2-5-7v-7l-13-4-20 22-12-6-8-2-7-1h-24l-4-11 4-10 20 4 19 12h7l15-13 16-3 6 2 12 14h8l9-9 21-5 17-10 12-1 5 5h13l15-14 17 6h66l28-8 34-2 9-3zm-431 68l8-5 13 4v12l8 3v6h-3l-25-6 2-10-4-2zm48 2l9-2 8 2v14l-4 1v10l-14-3z"/>
		<path id="Path 6" class="s6" d="m753 520l10-2h19l17 2 15 1h11l17 9h13l3-1 5 7v16l-10 2 2 4-29-20h-16l-9 1h-2l-28 3-3 4h3v6l-6 4-8-2-6-6-2-11h-11l-12 7h-7l-10-5v-9h24l3-8zm-463 16l3-2h10l22 10h12v8l-4 10-8-1-4-6-12-7-20-2v-4zm-211 7l2-7h8l10 2 10 2 11 5 5 3 22 1 6 5v7l8 5v12l-57-21-19-10zm202 44h10l-6 15-8-3v-12zm106 22l5-4 7 10v5h-12z"/>
		<path id="Path 7" class="s7" d="m593 434l34 2 3-4 15-2 3-4h4l3 1 4 1 4 1 19 5-2 14 3 11 11 6 1 5-6 6-22-4-4 4h-13l-1 4h-13l-7-8-3-24-6-4h-27v-6zm143 13l5-2h5l1 3v4h-10l-1-4zm13 23v-14h4 6l4 2v8l-1 4-5 2zm-233-10l25-2 12 4h30l1 4-1 2h-6l-16 2-46-2v-4zm257 6v-4h8 12 8v4l-12 4-14-1zm-650 59l1-4h7l7 5-1 6-5 2-9-6zm768 10v-6l4-1 14 2 2 4v4l-2 3 3 3-1 2-12-1-2-7zm-569 41l7-2v5l-6 1z"/>
		<path id="Path 8" class="s8" d="m564 352v-4l6-6h6l17 15 18 5 4 8 12 10 6 36h-11-7v-4l-4-1h-2l-1-4h-11l-2-5h-8l-6-6v-15l-6-5v-6l-11-14zm-79 21l2-5 9 2v14h-11l-1-7zm36 39l-5-8h-9l-8-8v-6h12l6 4v6l4 4 12 6h10l2 3 11 1 11 6 20 4v6h-10l-25-12h-16zm-150 44v-4h13l5 4h6v6h-24zm-80 2v-4h14l6 4v6h-9l-1-4zm34 0l1-4 35 2v6l-2 5-28-1v-4zm82-2v-2h23l2 4h41l7 1v3l-38 2-1 4h-13l-1 4h-8l-2-5-10-1v-4zm-310 34l-1-2h9 6v7l-5 3zm-52 26l5-4h3v6l-1 3-8-1v-2zm735 46l4-6h5l4 16h-2l-8-4zm-201 116l6-5h8l-2 5-12 5z"/>
		<path id="Path 9" class="s9" d="m905 424l9-5 8 3 9 12 6 2 4 5v9h-13l-1 8-13 2h-7l-13 16h-3l-6-2v-5l4-4v-11l-13-12 11-9 3-2h2l3 5h4l6-7zm-56 35l16-8-2 19-10 3 2 10 2 11v4h-15l-4-2-5 2h-25l-1 4h-7l-9-1-2-6v-19h42l11 2 3-3-1-11 2-3zm-612 47v-8h8l1 4-1 4zm-30 18l6-2 14 1 2 9h10l3 4 21 4v4l-6 6-14-2v-6h-3l-2 8h-17l-1-7-7-7h-6zm710 16v-4h4l8 5v9l-3 5-7-2-1-9zm-542 40l1-4 12 6 7 10v7l-2 1-3-4h-5l-1-10z"/>
		<path id="Path 10" class="s10" d="m855 483l7-2 1-11h6l4 4v5l-7 11-9 4zm-308 3l3-8h7l4-4h16 6l43 8 10-2h13l2 3 13 1 8 4 17-2 35 3 1 7-26 2-34-6-79-2zm234 14l1-5h7l2 6zm-558 0l14-2v8l-9 4-1 13-14-1v-6l8-4 2-10zm-75 11l6-2 1 5h-7v-2zm11 11v-3l4-1h6l8 6v6l-2 7-8 3-2-4h-8v-2-6zm758 38l3-3 7 3-1 17h-6l-1-3-6-7v-2zm-550 20l1-6 8 2-1 4zm-86 7l2-9h10v8l-2 1z"/>
		<path id="Path 11" class="s11" d="m511 390l2-16 20 4 3 4h25l2 13 18 1 6 6v5l-5 3-22-6h-17l-2-6-14-2-10-2zm-223-5l12-7-8 6zm323 32v-6l4 1v4l-1 1zm-316 53l7-6h9l7 3 13-1 28 1 3 9 11-2 26 2 5 4h9l6-8h8l3 6 39 6v8l-14-2-19 2-8-4-34 2-31-3-19 4-10-9h-12l-3-5-21-3zm-30 6l3-4h5 6v18l-4 2-9-10zm-206 16v-5l6-1 8 2v4zm130 8v-5l12 1 7 2v7h-9zm-58 21l-5-9v-4l5-3 4 5 13 2v2l-2 4 4 3 1 4 6 3v6l-13-5-6-3zm-22-1l1-2 6 4-1 1h-1zm695 39l-3-15 5 1v7zm-62 9l15-8h4v3l-11 8-8-1zm43 12l6-4v-4h2 5l-13 25-4-1 2-12z"/>
		<path id="Path 12" class="s12" d="m583 468l1-2 45 6 7 8-10 2-43-8zm166 2l8 2 5-2 1-4h10l2 3 14 1v6 19h-7l-1 5h-19l-1-4h-16l-10 1-10-1-1-7-35-3v-10l6-6 33 8 12-2zm-188 0l16-2v6h-16zm294 13l-2-10 10-3-1 11zm56 63l1-2h6l1 9 1 4-3 3-6-2z"/>
		<path id="Path 13" class="s13" d="m695 470l-1-5-11-6-3-11 2-14 22 6 1 18 13 8 12-1 6-6 1-7h10l2 4v14l-9 6-12 2zm-130-22l28-4h27l6 4 3 24-45-6-1-4h-30l-12-4v-4l16-1zm224 22l12-4 7 3 7 2h2l4 1h4l6 1v3h-42zm-612 60v-6h6v6zm734 8v-4h4l2 2v4zm-754 2v-4h8l2 4v2zm158 37l7-1 1 4-2 1-8 1z"/>
		<path id="Path 14" class="s14" d="m633 416l-6-36h2 2l12 10 5 8v11l-5 7zm-100-6l-12-6-4-4v-6l10 2v6l6 4zm64-2v-1h11l1 4-8 1zm-8 13l13-1h3 10l16 2h1l11 2 5 1v1l-3 4-15 2-3 4-34-2-6-4v-6zm164 35v-8h6v8zm28 6l1-10 11 2v8zm-420 0v-6h10v6zm34 0v-6h4 8v6zm46 6l1-4 38-2 35 2v4l-6 8-65-5zm-106 106l2-1h24v7l-4 6h-4l-4-1-2-4h-10l-2-1z"/>
		<path id="Path 15" class="s15" d="m215 442l15-8 2 5-4 3v14h-7l-10-10 2-3zm-42 17l5-3h2 4l-3 5zm736 25v-5l6-1 4 7-4 10v12l-4 3-6-1v-7-5l4-3zm-770 16l6-5v1l-2 3zm44 30l5-1v-5l13 1v13l-2 6-14 2-10-9 2-7zm-46 2l1-6 6 3-1 5h-4zm232 76l-2-28h8l9 6 1 10-6 10-7 2z"/>
		<path id="Path 16" class="s16" d="m123 491l20-1 3 2-1 3-6 5h-5l-3 5-5 3v4l5 9h-7l-1-3-3-11-1-11zm206 28l-2-10 40 1 36 6h34l19-6 17 4-1 5h-5l-4 5h-13l-13 6h-15l-73-8zm-209 26l6-8h3l10 3 8 9-22-1zm651 1l9-1v2l-3 5h-6zm-599 16l4-7 3 1 1 6zm151 18l6-1 6 1 2 1 2 17-2 4h-4l-1-9-3-3h-8v-9zm232 31v-6h8v7h-6z"/>
		<path id="Path 17" class="s17" d="m544 309l5-2h3l3 1 4-1 10 5 11 15 21 12 17 17-2 5h-5l-2-5-13-6-4-6-14-4-8-5-4-6-12-1-4-14zm-500 212v-1l8 1 3 3 18 3 4 2 4 7-2 7h-2l-27-13zm249 13l2-10 24 4 11 6h7v8 2h-12l-22-10zm570 18v-16h10v6l-4 11zm-702 26v-12l-8-5v-7l19 8h8v1l-1 5h6v8h-11l-2 6zm218 34l8-3v11l-5 1h-5l-8-1v-3z"/>
		<path id="Path 18" class="s18" d="m88 499l3-12 5 1 1 2-6 11zm19 14l2-12 11 6 3 11h-4l-1 4h-2l-6-4zm356 11h18l7-4 15 3v7h-14l-12 6-36 8h-15l-8-4-13-1-1-3h-22l-30-6-3-8 73 8h15l13-6zm317 21l8-1 1 1v1l-9 1zm-561 35l14-3 1 3-6 16-18-3v-1l5-11zm102 24v-14h8l3 3 1 9v7h-6zm41 16l3-3h4v3z"/>
		<path id="Path 19" class="s19" d="m184 456l8-1 4 4-3 25 8 4v8l-12-1-20-3-10 2v5l-3-1-11-2v-1l1-3-3-2-20 1h-1v-7l-5-6h-10l-2 10h-9l-5-1-14-4-11-2-17 2v-7l6-3 7-2 15-1 13-2h1 16l12-2h6l11-2 37-5 8 2zm503 175l2-5h6l1 8-1 4h-1zm-138 34l6-3 1-14-10-6-1-8 14 2 3 3 5 7 1 19-3 9h-12z"/>
		<path id="Path 20" class="s20" d="m793 462v-8h6l2 8zm-30 4v-8h8l2 4v4zm-254 10l6-8 46 2v4l-4 4h-7l-3 8h-10l-19-2-9-4zm68-2v-6h6v6zm72 6l1-4h13l4-4 22 4v10l-17 2-8-4-13-1zm-478 30l13-2h14l3 8h10 2v6l-6 2-6 1-13-1h-5-6l-8-6v-6zm716 27l4-2 6 3 2 7 12 1v12 4h-7l-13-6zm-526 43v-7l7 1-1 6zm-32-1v-5h6v6z"/>
		<path id="Path 21" class="s21" d="m616 361l2-5 3 1 4 11 7 4 1 6-2 2h-2l-2-7-7-4zm-113 162l12-1 7-3 3-5 37 6h51l2-4 33-2h25 10v6l-31 2-9-2-25 7-68-1-28 2h-6l-4 4-9-2zm-184-3l10-1 20 3 3 8 30 6h22l1 3-26 3-42-8h-7l-11-6zm-147 62l2-6h11l10 2v12zm145 33v-10l4-1 6 5v6l6 1v2z"/>
		<path id="Path 22" class="s22" d="m652 522l31-2h4l-1 7-9 3-34 2-28 8h-66l-17-6-15 14h-13l-5-5-12 1-17 10-21 5-9 9h-8l-12-14-6-2-16 3-15 13h-7l-19-12-20-4v-8-2l39 10h17l8-6h15l15 10h10l9-6 28-6 8-6 28 2 8-7v-5l28-2 1 6 12 2 54-1 6-4 28-3zm206 7l3-5h6l7 6 1 5-2 1h-10zm-101 31v-6l8 2-1 2-3 2zm-572 8l2-2 8 2 4 1v5l-4 4-10-2zm64 25l6-3 4 2-2 10-10-3z"/>
		<path id="Path 23" class="s23" d="m509 338l12-3 18 9 1 4-2 4h-12l-4 4h-7l-11-12zm34 72v-6h17l22 6 6 5 1 6-2 3-20-4-11-6-11-1zm-340 37l10-4-2 3-8 2zm74 13l14-2 10 2 1 4-7 6h-16l-2-2zm34 4v-6h14l6 4v4l-13 1z"/>
		<path id="Path 24" class="s24" d="m73 488l4-5 14 4-3 12-15-6v-1zm18 13l6-11 9 8 3 3-2 12-5 1zm459 25l68 1 25-7 9 2-1 4-28 3-6 4-54 1-12-2zm-47 4l9 2 4-4h6v5l-8 7-28-2-8 6-28 6-9 6h-10l-15-10h-15l-8 6h-17l-39-10v-8l42 8 26-3 13 1 8 4h15l36-8 12-6zm-304 39l5 1v4l-3 5 6 1 8 1-5 11h-6l-9-2v-12l4-4z"/>
		<path id="Path 25" class="s25" d="m203 448l8-2 10 10h7 3l2 13h-10l-10 5 3 14 6 4-1 5-3 1h-10l-7-2v-8l-8-4 3-25-4-4 3-4zm711 12l13-2 4 10-2 12-4 29-10 11h-4v-10l4-3v-12l4-10-4-7z"/>
		<path id="Path 26" class="s26" d="m49 483l17-2-1 5-6 1v5 1h-1l-4 1h-7v-10zm295 8l19-4 31 3 34-2 8 4 19-2 14 2 4 4v7l-68 3-28-4-9-4-24-2zm-133 17l7-6h5l-2 10-8 4h-2zm-93 14l1-4h4l1 3-1 4h-3zm39 6l-6-3-1-4 9 1zm604 32l3-2 1 6-4-1zm-428 56l-6-1v-6h6zm425 12l3-6h2l3 2-3 5zm-65 11l-12-11h1l5 3 7 7z"/>
		<path id="Path 27" class="s27" d="m896 426l7-5 2 3v5l-6 7h-4l-3-5zm-159 26l-1 7-6 6-12 1-13-8-1-18 25 6 7 2zm190 6l1-8h13v4 8l-2 18h-10l2-12zm-88 8l3-2h2l1 11-3 3-11-2v-3l1-1 1-1 1-1 2-1zm-684 48l5-2 3 2v4l-4 1v3l-9-1-4-3 2-4zm760 20v-10h6v12h-4zm-776 6v-6h4l5 5 9 1 10 2v7l9 6-4 7-19-8-6-5zm62-2l6-2h6l7 7 1 7-3 9-7 4v10l-4 3-3-2v-4l-5-1-4-1-2-4h-6l-7-1v-1l-1-6 6-5v-5l14-2z"/>
		<path id="Path 28" class="s28" d="m65 486l1-5 11 2-4 5zm88 16l3-4 3 1 2 5-1 8-5 2-1-5zm365-1l5-1 22 4 10 6h13l18 2h11l16 1 2 3-2 4h-51l-37-6-3 5-7 3-12 1-15-3-7 4h-18l4-5h5l1-5 36-2 8-4v-6zm-239 6l4-3h25l19 5 2 10-10 1-16-6h-12l-9 7zm-51 89l6-16 12 1 1 3 2 9-2 6zm85-14l8-1v9l-8-2v-4zm211 33l2-8 6-1v3l-1 6-2 1h-1zm23-3v-7h8v6z"/>
		<path id="Path 29" class="s29" d="m487 368l17-24 11 12-2 18-2 16h-12l-3-6v-14zm74 14h6l8-6 6 5v15l-18-1zm-28 28v-4l-6-4v-6l14 2 2 6v6zm54-3v-5h8l2 5v1zm-328 54l18-1v8l-4 1v3h-5l-3 4-7-6zm114 13l-2-12h24 12v4l-8 5v5zm-267 24l5-3 4 2 1-2 3 1 1 11-11-6zm-53 20v-6l8 1 11 5-9-4h-7zm736 27l12-1 3 15-6 13h-5l-4-16v-10z"/>
		<path id="Path 30" class="s30" d="m233 469l-2-13h4l16 4v10l-1 2h-3zm658 7h3l13-16h7l1 18-6 1v5l-10 2h-6zm-728 38l6-2v6h-6zm746 16l2-7 4 1v10h-4zm-708-5l6-1v12l-6 2zm-58 9l1-5 13 5v2 4l-9-1zm-11 0l5-2 2 2v6l-10-3zm35 6l8-3 10 9v5l-6 5-3-1-9-6v-7z"/>
		<path id="Path 31" class="s31" d="m281 501l5-5h18l22 8 51-2 28 4 68-3 3 3h13l3-6h5l20 2v6l-8 4-36 2-17-4-19 6h-34l-36-6-40-1-19-5h-25zm-121 11l1-8h8l2 6-2 2-6 2zm437-6l6-1 10 3v5l-16-1zm-29 4v-2h17l1 4zm-361 70l-6-1 3-5 3 2zm532 67l2-4h2l4 3-5 4z"/>
		<path id="Path 32" class="s32" d="m53 518l3-4h7l9 4h1v9l-18-3-3-3zm36 13l1-5h9v8l-10-2zm653 39l8 1 11-8 4 1h4v4 5l14 11-2 12-6 2h-2l-2-10-5-10-23-2zm-35 20h7v-3l7-1 1-4h5v4l-8 8h-7l-23 26-2-3 2-9h4l2-8 5-2 1-4h5zm-175 19l13 4 3 5 9-1 13 1 9 10v28l-4 8-7 1-1-19-5-7-3-3-14-2-10-2h-3l-1-4 2-1-2-12z"/>
		<path id="Path 33" class="s33" d="m952 383l16 1-5 53v18l-2 7-8 12h-4v-12l-2-7 4-2v-24l-6-6-2-19v-6l-1-10v-1l5-2 3-1zm-13 130l2-21h6v7 8l-1 7h-3zm1 49l5-7v-11l4-2h6l10 39-8 1v10l-7 4-7-3-1 4 3 3-10 9-2 6h-2l-6-4-22-18-1-1-1-1h-1l-3-5 2-11 4-1h6l2-3 8 3 1 3h6v2l9 11h3v-3l-5-7 5-6v-6l9 1zm-575 48l4-2h3l1 3 6 1-10 5h-4z"/>
		<path id="Path 34" class="s34" d="m419 370v-7l15 2 3 1 5 1 4 1 6 1 1 1 13 5v24l-3 3-19-2-12 2-11-2-4-5zm102 42h-14l-16-5-12-15v-5l6-3h11l3 6v6l8 8h9zm72 26h-12l-4-3v-5h10l6 4zm-288 16v-4l5-2h39l20 1 2 3v4h-10l-35-2-1 4h-14zm94 2v-6h6l2 4v2zm31-2l3-2h52l22 3 9 5-1 4-35-2v-3l-7-1h-41zm-179 6l1-4h7v5l-1 9h-7z"/>
		<path id="Path 35" class="s35" d="m903 421l11-10v8l-9 5zm38 41v-8l6 1 2 7zm-719 30l15-2 3-5 6-2 1-11h3l14 13v8l-3 3h-8l-8 2h-8l-14 2-2-3zm689 28h4l10-11 4-29h10l2 2v10l-2 21-4 2v9h-14-6l-4-1zm-676 45l6-7 8 2v8l-11 4zm676-3v-4l6 2-4 5z"/>
		<path id="Path 36" class="s36" d="m107 468l1-2h5 6zm-30 2l1-2h6 3 3zm198 22l4-2h34l6 4 25 2 24 2 9 4-51 2-22-8h-18l-5 5h-3zm-159 3v-3l6-1h1l-4 5zm43 4v-5l10-2 20 3v5l-5 4v4l-13 2-2-6h-8zm49-1h10v4l-7 6-3-3zm-69 2l4-1 3 4 2 8v1l-13-2-4-5 3-5zm-37 14l5-1 3 5-1 2zm7 26v-5l6 1h6l5 1-6 8zm613 39l7-7 13-4v2l1 6-7-1-9 7h-5zm-45 28l7 1 1-5 5-3-1-5 7-1 1-6h9l1 2-1 4h-5l-1 4-5 2-2 8h-4l-2 9zm-344 2v-7h4l4 6v10h-5-3v-2zm230-4l18-2 6 5 5 4 4 4 1 1 1 3-9-1-3-3-8 2-8-2-7-4zm-31 1l15-1v7l-2 1-13-4zm173 44v-1l9 5v2z"/>
		<path id="Path 37" class="s37" d="m938 389l4-1 1 10h-7l-2 5 9 1 2 19 6 6v24l-4 2-6-1v-4-9l-4-5-6-2-9-12-8-3v-8l3-6 16-13 3-2 1-1zm-68 57l6-4 13 12v11l-4 4v5h-12l-4-4h-6l2-19zm-633 60h8l1-4h7l6 4v9l8 2 7 7 1 14-12 2-21-4-3-4h-10l-2-9 1-13zm698 18v-9l4-2 4 1 4 7 2 21-4 2v11l-5 7h-6l4 6v6l-5 6-7-1v-2l1-17-1-5 3-5h5v-5l5-4v-5l-4-3z"/>
		<path id="Path 38" class="s38" d="m939 480l2-18h8v12l-1 7-7 1zm-694 18l8-2v6h-7zm676 38v-12h14v9l4 3v5l-5 4v5h-5v-9zm-658 4l12-2 5 4-3 17-4 5-10 4h-14v-8l-8-2v-4l2-6 14 2 6-6zm-52 33v-10l7-4 3-9h17v3l-3 12 3 7-5 5-14 3-1-6zm161 35l7-2 6-10h5l3 4-1 5-5 4-8 3-6-1z"/>
		<path id="Path 39" class="s39" d="m764 438l25 1 8 5 2 4v6h-6l-11-2-1 10h-8l-2-4h-8l-4-2v-8l-1-9h3zm-405 29l2-5h10l2 12-11 2zm40 9v-5l8-5 10 1 2 5-6 8h-9zm28-4l1-4h13l3 3 65 5v4h-33l-7 4-39-6zm-389 11l6-8 10-2h1l-6 3-8 4v4h6v10l-8 1-1-2-1-1v-8zm77 40l1-1h2l2 3-5 1-2-1zm120 42l3-12 3 1v4zm3 7l11-4h14l1 15-8 5-3-4h-6l-1-3-12-1-1-3zm55 6l3-2 19 1-2 5v2l-14 2h-6z"/>
		<path id="Path 40" class="s40" d="m799 454v-6h3l9 11v7l-3 3-7-3v-4zm-262 38v-6h10l39 4 79 2 34 6v5l-47-1-3-4-12-2-2 8h-6l-26-4-23-2-5-4h-11l-1 6h-18zm-274 76l10-4 4-5 12 1v6l7 10-3 2h-10l-2 9h-4l-13-4zm640 6l1-12h7l2 3v2l-3 1 1 3-2 3zm-544 46v-10h6v7l-3 3z"/>
		<path id="Path 41" class="s41" d="m576 342l2-2 14 4 4 6 13 6 2 5v1l-18-5zm-53 158l2-8h12l8 8v4zm40 0l1-6h11l5 4 23 2v5l-6 1-12-2-18-2zm-420-1l2-3 11 2-3 4-7 1zm756 76l-8-7v-12l13 6-1 12zm-692 1l4-3 7 1 1 6-4 1-8-1zm147 43l-1-9h6v10h-3zm360 35l11-1-1 3h-6-4z"/>
		<path id="Path 42" class="s42" d="m611 362v-1h5l4 8 7 4 2 7h-2l-12-10zm285 63l21-20-3 6-11 10-7 5zm-143 15l3-1h2l1 9h-6-6l-1-3h-5zm-284 44l7-4h33l9 4 19 2v6h-12l-2 8-5 1-9-5h-11l-1 4h-5l-2-4h-17l-4-4zm-285 24v-4l5-4 10 5-1 3zm596 39l9-1v10h-5l-4 6-11 2h-4l-1-6 1-2 6-4h6zm-595 21h-6l1-5 7 1v2zm156 50v-10h6 5l1 2 1 9-6 1-5-1z"/>
		<path id="Path 43" class="s43" d="m515 356h7l4-4h12l2-4h6l4 4h14v4l11 14v6l-8 6h-6-25l-3-4-20-4z"/>
		<path id="Path 44" class="s44" d="m527 320l17-11 6 5 4 14v1l-3 1-22-1zm-245 201l9-7h12l16 6v8l-24-4-2 10-3 2h-6zm450-3l11-2h10v4l-17 2zm-651 18l-4-7h4l8 2v1 4zm874 6v-11h3l13 47 1 2v4 1 15 7 2 6 2l-1 2-2 5-6 2h-7l11-5-2-40zm-82-6l2-1 2 7h-4zm-574 50l14-2v4l-9 2z"/>
		<path id="Path 45" class="s45" d="m943 404l-9-1 2-5h7zm-2 78l7-1v3l-1 8h-6zm-134 20l1-4h25l2 4h6l1-4h15l2 12v4l-4 2-16 2-12-11z"/>
		<path id="Path 46" class="s46" d="m857 494l9-4 7-11v-5h12l6 2 2 10 1 6 1 10v14l-6-2v-8l-7-10-13 2-4 12h-6l-2-12zm-222 10l2-8 12 2 3 4v2zm64-6l26-2 10 1v5l-14 2-22-1zm46 2v-4h16l1 4-3 2zm-527-2l3-1 2 3v2h-5z"/>
		<path id="Path 47" class="s47" d="m250 472l1-2h7l7 6 1 6 9 10 3 9 1 6 3 14 2 15-1 5-3 1-5-4-1-14-7-7-8-2v-9l-6-4v-6h8l3-3v-8zm583 26l5-2 4 2-1 4h-6zm-279 182l-1-6h12l5 6v5l-9 1z"/>
		<path id="Path 48" class="s48" d="m516 330l11-10 2 9-8 1zm38-1v-1l12 1 4 6-1 3-12-2zm-275 178l-1-6h3l2 3zm667 7l1-7 2 1 9 23h-3l-1-6-6-6zm-263 0v-2h17l2 4-15 4h-4zm70 6v-4h10v2zm-664 16v-4l10 2v4zm479 157l-11-5-5-8h2l7 6 9-1 3 2 4 5-1 1h-1-2-3-1z"/>
		<path id="Path 49" class="s49" d="m947 521l-4-7h3l2 5zm-663 15h6l-1 6-6-1zm666 60l7-4v-10l8-1 2 40-11 5h-3l-20-11 2-6 10-9 6 1z"/>
		<path id="Path 50" class="s50" d="m105 488l2-10h10l5 6v7l-6 1v3l-1 2-4-2v-7zm597 146l1-6 14-13 10-13v-4l13-10 11 1 10 5 4 9 5 2-2 9-5 8h-2l-14-22h-9l-13 11v5l-8 9v5l7 10-2 3-14 1z"/>
		<path id="Path 51" class="s51" d="m865 510l4-12 13-2 7 10v8l6 2v12l-4 1v6l-4 2-10-7-6-17zm-213-6v-2l47 1 22 1v4h-17l-4 4h-17l-10-2-19-2z"/>
		<path id="Path 52" class="s52" d="m582 410l5-3 10 1 4 4 1 8-13 1-1-6zm-457 55l5-1h3 3l-11 2zm188 25l2-5 7-3h12l10 9v5l-25-2zm-115 18l1-3h9l3 3v8h-10zm469 98l9 1h-5l-2 4-3-3zm14 22l-12-17 13 17zm82-6l5-8h5l-7 10zm-70 17l1-1h1l10 11v1zm-100 34l6-27h4l1 6-6 15-1 2z"/>
		<path id="Path 53" class="s53" d="m222 492l-6-4-3-14 10-5h10l14 3-1 11-6 2-3 5zm-175-8h-6v-4l8-4v7zm865 60l-3-3 2-3 6 2 1 4zm21 36l5 7v3h-3l-9-11zm-264 31l2-4h5 1l10 10 2 3v6l-2 5-5-3zm-131 39l-3-18 10 2 1 8 10 6-1 14-6 3-5-6zm157-12l1-4h6l6 10 14-1 2-3 17 3-2 4-14 6-11 1-9-5z"/>
		<path id="Path 54" class="s54" d="m146 503l7-1 1 7-6 2zm-25 33l2-8 9 6-3 3h-3zm790 35l-1-3 3-1 6 7zm-187 69l-7-10v-5l8-9v-5l13-11h9l14 22-3 6-5 6-5 5-5 4h-2z"/>
		<path id="Path 55" class="s55" d="m509 338l7-8h5v5zm340 121l21-13-5 5zm-376 44v-7h17l2 4-3 6h-13zm24-3l1-4h11l9 5-1 1zm106 5v-5l26 4v4h-16zm-35 3l-1-6 18 2v4zm-319 85l-2-9h6l3 4-1 2zm499 46l5-5 1 6-3 2zm-206 21l2-1 5 6 4 9 1 6h-2zm37 23l12-5-10 14h-4l-4-5z"/>
		<path id="Path 56" class="s56" d="m735 502l10-2 14 2 3-2h19l10 1 9 1 1 6h11l4 5 7 1 2 7h-11l-4-6-11 1h-16l-7-6-9 1-4 5h-10-10l-1-5-21-3v-4zm-455 40l3-1 6 1v4 14l-12-1z"/>
		<path id="Path 57" class="s57" d="m700 512l4-4h17l21 3 1 5-11 2-30-2zm63 4l4-5 9-1 7 6-1 2h-19zm92 0l4-2v-4h6l6 3 6 17 10 7 4 19v12l8 7-2 11-9-5-9-7 2-29-4-3-2-7-1-5-7-6h-6l-3 5-3 1zm-56 0l11-1 4 6-15-1z"/>
		<path id="Path 58" class="s58" d="m727 586l31-4 7 6h6l2 10-3 7-5-2-4-9-10-5-11-1-13 10v4l-10 13-14 13-1 6h-6l-1-8 17-20 6-1 1-11z"/>
		<path id="Path 59" class="s59" d="m569 338l1-3 8 5-2 2h-6zm378 154l1-8h5l3 1-6 12-3 2zm-165 26l1-2h16v4zm81 34l6 1 4-11h4l4 3-2 29-24-16-2-4z"/>
		<path id="Path 60" class="s60" d="m259 456l3-6h26l3 4v4l-14 2-18 1zm526 124l-4-12h2l8 4v4zm-228 37v-5h6l7 4v2zm21 1l8-2 3 3v4l-9-1zm7 55l3-23 6-8 5 4-6 27z"/>
		<path id="Path 61" fill-rule="evenodd" class="s61" d="m551 330l3-1 3 7h-4zm246 114l-8-5 8 4zm156 30l8-12 1 2-6 21-3-1zm-340 39v-5h16l18 2 1 4-33 2zm60 1v-4l10 2v2zm-574 24v-4l10 1v5zm430 78l2-1 2 12-2 1-2-8zm224 18l5-6 5 1-2 6-7 5zm-28 19l14-6 3 3-6 6h-12z"/>
		<path id="Path 62" class="s62" d="m102 524h6l5 1 2 1v10l-6-1-10-1v-8zm625 58l9-7 7 1 23 2 5 10h-6l-7-6-31 4zm-38 38l23-26h7l-1 11-6 1-17 20h-6z"/>
		<path id="Path 63" class="s63" d="m529 329l22 1 2 6h4l12 2 1 4-6 6v4h-14l-4-4h-6l-1-4-18-9v-5zm-334 121l8-3v1l-8 3zm552 2v-4h6v8h-4zm-558 0l6-1-3 4-8 1h-4v-1l6-2zm84 20v-3l4-1 2 2v2z"/>
		<path id="Path 64" class="s64" d="m601 412l8-1h2v6h-5l-1 3h-3zm-56 92v-4h18l4 2 1 6v2h-13zm40 4v-4l12 2v6h-11zm-347 42l2-8h3v6l-2 6-3-1z"/>
		<path id="Path 65" class="s65" d="m279 472v-2h16l3 4 21 3 3 5-7 3-2 5h-34zm-92 92h6l2 4-8-2zm519 23l16-8v3l-1 4-7 1v3h-7l-1-2zm-369-6h10l2 4-2 23h-6l-4-6 2-4z"/>
		<path id="Path 66" class="s66" d="m920 557l-1-4 7 2 1 5zm18 11l-4-6h6l7 7zm7 32l-3-3 1-4 7 3 1 5z"/>
		<path id="Path 67" class="s67" d="m352 608l3-2h4v4h-6z"/>
		<path id="Path 68" fill-rule="evenodd" class="s68" d="m614 417l1-1h7v1l-5 2 14 3-16-2zm-530 51l3-1v1zm687 78h-3l3-4 28-3-1 3-10 2-8 1zm201 38v-4h1v4zm0 16v-15h1v15zm-762-7l-6-1h6zm762 16v-2h1v2zm-624 11l6-1 2 1zm29 1l-21-1h13zm586 5h-11 1 3z"/>
		<path id="Path 69" fill-rule="evenodd" class="s69" d="m79 543h-2l8 4zm206 65h-3l3 1zm688 7v-6h-1v6zm-373 8h1l-4-6 1 3zm-198-1v-1l-3-1h-12l-5 1zm31 0h16v-2h-10l-6 1z"/>
		<path id="Path 70" class="s70" d="m735 497l10-1v4l-10 2zm90 24l-2-7-7-1-4-5h-11l-1-6h7l20 5 12 11 16-2v14h-13z"/>
		<path id="Path 71" class="s71" d="m798 542l9 2-1 8v-7l-5-1-12 1-1-1zm-225 152v-1h2v1z"/>
		<path id="Path 72" fill-rule="evenodd" class="s72" d="m549 307v-1h3v1zm403 76l16-2 1 7-1-4zm-14 6l4-2v1zm-316 28v-1h22zm-17 3l1-3h8l1 3zm43 6v-1l4 1zm11 2l-4-1 5 1zm-529 36l3-1v1zm-17 2l12-1v1zm-26 2v-1h4v1zm-50 15h1v1h-1zm492 137l-1-4h1zm-186-1l-7-1h5zm59 3v-1h8zm31 0l-19-1h19zm16 0v-1h11zm120 71h1v1h-1zm6 0h1v1h-1z"/>
		<path id="Path 73" class="s73" d="m347 608l2-23 4 1 2 20-3 2zm423-3l3-7h2l3 9-5 7h-5z"/>
		<path id="Path 74" class="s74" d="m948 481l1-7h4v10h-5zm-1 40l1-2 6 6 1 6v11h-6z"/>
		<path id="Path 75" class="s75" d="m629 508v-4h6 17l2 4 19 2v4h-25l-1-4zm114 135l5-4 3 3-4 4z"/>
		<path id="Path 76" class="s76" d="m355 606l-2-20h4l6 7-4 13zm192 6l8-1 2 1v5l-9 1-3-5z"/>
		<path id="Path 77" class="s77" d="m631 380l2-2 10 11v1zm332 57l5-53 1 4zm-166 7v-1l11 8 3 7v1l-9-11h-3zm-701 23l4-1h8l-1 2h-16v-1zm508 164h-4v-8h1z"/>
		<path id="Path 78" fill-rule="evenodd" class="s78" d="m643 390v-1l6 6 2 12-7 9h-1l5-7v-11zm318 72l2-7-1 9zm-150-4l2 8-2.7 3.6-2.3-0.6 3-3zm-0.7 11.6l4.7 1.4-5-1zm136.7 29.4l3-2-1 11-2-1zm-355 113l-5-4h2zm360 14l-7-1-14-10h2l20 11z"/>
		<path id="Path 79" class="s79" d="m775 598l6-2 4 1-7 10zm-233 62l-4-10 6 9z"/>
		<path id="Path 80" class="s80" d="m589 623v-4l9 1 2 3v8h4v4 1 1l-1 9h-4l-5-4z"/>
		<path id="Path 81" class="s81" d="m133 463l43-7h2l-5 3-37 5h-3zm698 10l-6-1h7zm-723 51l6-1h1l-2 2zm-18 1l12-1-3 2h-9z"/>
		<path id="Path 82" fill-rule="evenodd" class="s82" d="m405 362l-1-1 5 1zm61 13l-13-5 18.4 5.6zm5.4 0.6l9.9 1.1-0.3 0.3h-5zm13.6-2.6l-1 4-2.7-0.3zm405 58l6-6v1l-4 5zm-227-2l-4-1h1zm73 19l-7-2 7 1zm-547 4l6-2v1zm-13 4l4-1v1zm666 8l4-3-2 3zm-780 7l16-3-1 2zm-8 2l8-2-7 2zm5 20v-1h14v1zm-20 2l8-1h7zm11 17l5-2 6 3-8-1zm838 69l9 5 3 5zm84 26v-7h1v7zm-243 49l-2 2-9-2z"/>
		<path id="Path 83" class="s83" d="m568 693h1v1h-1zm2 1v-1h3v1z"/>
		<path id="Path 84" class="s66" d="m947 577l4 1 2 9-5 1-5-4v-4z"/>
		<path id="Path 85" class="s67" d="m588 364h12l7 5 4 4v9l-5 4h-7l-10-10z"/>
		<path id="Path 86" class="s68" d="m603 635h1v1h-1z"/>
		<path id="Path 87" class="s69" d="m37 492h1v1h-1zm559 124h1v1h-1z"/>
		<path id="Path 88" class="s72" d="m937 389h1v1h-1z"/>
		<path id="Path 89" class="s81" d="m257 414h1v1h-1zm-1 1h1v1h-1zm577 55h1v1h-1zm-1 1h1v1h-1zm-788 50v-3 2z"/>
		<path id="Path 90" class="s82" d="m452 369h1v1h-1zm449 222h1v1h-1zm1 1h1v1h-1z"/>
	</g>
</svg>