<svg version="1.2" xmlns="http://www.w3.org/2000/svg" viewBox="0 0 1000 1000" width="1000" height="1000">
	<title>Oncorhynchus_mykiss</title>
	<style>
		.s0 { fill: #f0e5e3 } 
		.s1 { fill: #ece1de } 
		.s2 { fill: #574d41 } 
		.s3 { fill: #3e3b40 } 
		.s4 { fill: #e8ded9 } 
		.s5 { fill: #e1dad4 } 
		.s6 { fill: #53443d } 
		.s7 { fill: #464447 } 
		.s8 { fill: #766554 } 
		.s9 { fill: #38353b } 
		.s10 { fill: #6c5d4a } 
		.s11 { fill: #4c484b } 
		.s12 { fill: #463f44 } 
		.s13 { fill: #69545a } 
		.s14 { fill: #5d4f53 } 
		.s15 { fill: #524c4f } 
		.s16 { fill: #504136 } 
		.s17 { fill: #e6d5d3 } 
		.s18 { fill: #d9d2cd } 
		.s19 { fill: #865f65 } 
		.s20 { fill: #585658 } 
		.s21 { fill: #938786 } 
		.s22 { fill: #e3d0ce } 
		.s23 { fill: #ebd9d8 } 
		.s24 { fill: #cbb2a8 } 
		.s25 { fill: #725b62 } 
		.s26 { fill: #7b585c } 
		.s27 { fill: #9d9391 } 
		.s28 { fill: #dcc3b9 } 
		.s29 { fill: #7e7477 } 
		.s30 { fill: #cd96a5 } 
		.s31 { fill: #91816c } 
		.s32 { fill: #a79e9c } 
		.s33 { fill: #c4a29e } 
		.s34 { fill: #aa7481 } 
		.s35 { fill: #332d33 } 
		.s36 { fill: #ba9594 } 
		.s37 { fill: #b67e8d } 
		.s38 { fill: #beac9e } 
		.s39 { fill: #d4a3ad } 
		.s40 { fill: #e1c6c8 } 
		.s41 { fill: #d7adb1 } 
		.s42 { fill: #7b646b } 
		.s43 { fill: #6f5451 } 
		.s44 { fill: #ae878c } 
		.s45 { fill: #634c4d } 
		.s46 { fill: #655242 } 
		.s47 { fill: #a27a83 } 
		.s48 { fill: #3a3036 } 
		.s49 { fill: #2e282e } 
		.s50 { fill: #bdb5b0 } 
		.s51 { fill: #d1c7bf } 
		.s52 { fill: #615a61 } 
		.s53 { fill: #5f5549 } 
		.s54 { fill: #9f6a76 } 
		.s55 { fill: #7d6e5e } 
		.s56 { fill: #93636d } 
		.s57 { fill: #5d483e } 
		.s58 { fill: #463836 } 
		.s59 { fill: #826f58 } 
		.s60 { fill: #8a6872 } 
		.s61 { fill: #706a6f } 
		.s62 { fill: #686067 } 
		.s63 { fill: #d9ccc3 } 
		.s64 { fill: #272027 } 
		.s65 { fill: #645d58 } 
		.s66 { fill: #1d171e } 
		.s67 { fill: #83756b } 
		.s68 { fill: #b5a294 } 
		.s69 { fill: #8c8079 } 
		.s70 { fill: #966e7c } 
		.s71 { fill: #6c645f } 
		.s72 { fill: #b3acac } 
		.s73 { fill: #756e67 } 
		.s74 { fill: #877762 } 
		.s75 { fill: #877d81 } 
		.s76 { fill: #ada6a6 } 
		.s77 { fill: #a79586 } 
		.s78 { fill: #bf8696 } 
		.s79 { fill: #c58c9d } 
		.s80 { fill: #dfb5c0 } 
		.s81 { fill: #a28c73 } 
		.s82 { fill: #9a8b7a } 
		.s83 { fill: #e0cebc } 
		.s84 { fill: #5b4348 } 
		.s85 { fill: #d9b8b5 } 
		.s86 { fill: #997277 } 
		.s87 { fill: #ab977c } 
		.s88 { fill: #b5a488 } 
		.s89 { fill: #c4c0bb } 
		.s90 { fill: #cebfb3 } 
		.s91 { fill: #91696b } 
		.s92 { fill: #917561 } 
		.s93 { fill: #9a7d6c } 
		.s94 { fill: #f3e9ea } 
	</style>
	<g id="Background">
		<path id="Path 4" class="s0" d="m328 568l23-7 63 4 15 4 75 5 48 13 67-8 11 4 8 13 8 3v5h-4v3l-2 2-16-2-31 9-53 5-1-1v-5l-6-6h-26l-4 6-9-2-7-2-7-2-8 4-2-7-16-3-71 3-61-2-6-6v-6l12-16z"/>
		<path id="Path 5" class="s1" d="m414 565v-3l54 1 60 8 21 2 1 6h31l13-2 3-6h38l2 4h13l37-4 5 6-1 4h-3v6l-16 2v4l-4 1 1 7-9-3 3 7h-3l-10-4 2 6-5-1-1-2v-5l-8-3-8-13-11-4-67 8-48-13-75-5zm-313 2l20-1 1 3v8l-12-2zm217 6l5-6h4l1 1v8l-12 16v6l6 6 61 2 71-3 16 3 2 7v2l-5-1-11-5h-35l-3 6-14 2-23-2-1 8-5 2h-2v-3l-11-1-5-6h-10l-3 3v7h-24v-5l-4-3v-9l-7-5-1-10 4-12 6-2zm-128 30l-28-7-2-7 26 4 4 3zm313 12l4-6h26l6 6v5l-11-2h-4-8l-8-2h-5z"/>
		<path id="Path 7" class="s2" d="m542 376l4-2 9 5 7 9-2 4-12 3v-6l-3-1zm-128 19l17-20 7 4v3l-4 3-1 6 4 9 7 6v5l-14 2-5-4-5 1-7-4zm496 42v-4l16 4v17l4 3v9l6 6 1 15 4 3-3 7-10 4v-25l-5-5-9-2-2-15 2-13zm-204 2l9-1 4 7-2 3h-5v-4l-4 1zm156 20l4-1 8 7-1 10h-3l-3-11-5 1zm95 21l-5-2v-5l8 1zm-888 9l2-11 7-3h2v9 7l-3 2h-5zm873 54l-3-18 19 3 5 15-9 4zm-30 27v-14l-6-7v-9l16-1h5l3 6v22h-9l-2 5zm-40-3h8l7-8h5l4 7 15 6 3 7-1 5 6 5v6l-4 6-30-11-15-9v-14z"/>
		<path id="Path 8" fill-rule="evenodd" class="s3" d="m295 417l5-1h2v9l-9 2-2 4h-6l-2 3h-7l-14-1v-12l17-2 4-1zm121 8l-1-6h5l40 8 18 4v4l-6 4v22h-9l-7-6v-4l-4-2-1-15-25-9zm79 12l19-2 2 10v2h-10l-5-5h-5zm31 8l1-6 16 1 27 3 2 12v8l8 2 8 10v6l-1 3-2 3-10-1-3-4-2-7-1-1-12-4-3-4-14 1-3-8h-11zm302 9l4-1 2 1-1 3h-5zm-194 5l1-4 24 2 9 6 1 10h-19l-5-10-7 1zm80 0v-4l11 2 8 1h3l4 1v14h-3l-9-2-1-8zm-119 12l-5-8v-6h17l3 4-1 9-3 1zm-115-8l1-4 9 1v7h-7zm276 9l-6-6v-6h8l16 1-1 13-6 1zm-224 3l-1-4h5zm-485 35l3-4 4 1v4zm70-3l4-1 2 1-1 5h-4zm748 56l2-3 5 2v5h-2z"/>
		<path id="Path 9" class="s4" d="m703 553l20-3 2-5h13v4l6 3v5l-16 7 2 9h-3l-6-1-11-2-7-1-11 8-5-6-37 4h-13l-2-4 3-4 22-2 1-4 29-2 9 1zm-581 24v-8l10 2v10zm427-4l48-2-3 6-13 2h-31zm-410 10l1-4h15l22 4 7 5 25 6 1 13-20-4v-7l-4-3-26-4h-14zm159 14v-4h4 6l1 10 7 5v9l4 3v5l-20-2zm82 26l1-8 23 2 14-2 3-6h35l11 5 1 8-3 1-3 1 1 3h-24l-4-2-1-4-4 1v3l-19 2h-16zm-36 2v-7l3-3h10l5 6v4z"/>
		<path id="Path 10" class="s5" d="m744 552l-6-3v-4h8zm76 5v-8l25 3 5 7-9 6h-6l-1-4zm-130-4l12-2 1 2-4 7-9-1zm-558 28v-10l18 1 7 3h17l29 3 4 5 7 2 20 9 10 4 9 6-5 4v6l-28-2-1-3-9-2-1-13-25-6-7-5-22-4h-15l-1 4zm176-6v-3l4-1 6 2v6l-6 2-4-2zm-35 29l17-7h8l2 26-24-4zm89 21v-4l11 1v3zm68 0v-3l4-1 1 4z"/>
		<path id="Path 11" class="s6" d="m447 355l4-5 5 3-4 5zm83 50v-10l6 1 2 8-4 4zm422 36l2-16 6 2 2 14zm-24 60l10-4 3-7-4-3-1-15-6-6v-9l-4-3v-17h2 4l4 12 7 3 2 13 7 8v5l5 2-1 13-2 11 2 7 2 17-19-3 3 18-12 2-3-6h-5v-12l7-1-1-3h-6l1-18zm-84 20l3-1 2 5-3 1zm75 51l2-5h9l3 2 2 3-4 7zm3 17v-9l10 4 8 22-12-5-6-6z"/>
		<path id="Path 12" class="s7" d="m438 446l-8-9h-6l-7-5-1-7h10l25 9 1 15 4 2v4l-2 1-4-1-3-8zm54 13l-4-22h7l1 5h5l5 5h10l-3 11-3 1zm336-2h5l1-3 5 2 3 5-2 14h-6l-6-4v-4zm-205 5l2-3h9l4 5-6 3h-7zm117 11v-14h5 2l3 1v6l6 6-1 4h-4l-3-3zm62-13l1-1h4 5v8l-4 4h-6zm-103 7l3-1 11 3 4 6 5 18h-9l-7-8h-5l-4-14zm-678 50h5v4h-6z"/>
		<path id="Path 13" class="s8" d="m461 338l10-11 9 1-2 14-6 6-4 3-1-2 3-7h-5zm63 39l2-5 4-1h7l5 5 3 12-9 8-6-1-4-6v-5l-2-4zm-86 5l5-1 9 8h7l5 4 1 6h8l14-10 5-1 6 5v9l-6 7v9l-12 1-7-4-4-10-5 1v8l-4 2-15-2-1-3v-5l-7-6-4-9 1-6zm510 16l16-4 1 6-9 8-8 1v-4zm-19 6l4-1 3 4v4h-6zm-27 12l12-5 10 4v16l4 6h-2l-16-4-8-11zm60 35v-8h8l-2 7-2 1zm-244 130l8-2h7l-3 12-11-1zm-24 38l2-10 13 3 10 15-7 17-6 1-10-5zm-210 5l10-1h6l2 16-2 8-11 2-10-8-2-6z"/>
		<path id="Path 14" class="s9" d="m247 423l12-2h3v12l-11 2-16 1-1-10 6-2h3l3-1zm323 20l1-11h3l29 5 14 2 24 4 15 2 16 2v8l4 4h6l4 7-8 2-2 4-7 1-1-10-9-6-24-2-1 4h-9l-2 3-13-1-3-4h-17-10l-8-2zm-56-8v-2h4l9 6-1 6h-10zm-130 22l1-8h5l6 4v7l-7 1zm-30-4l18-1 2 9-1 4h-6l-1 4-5 2h-7zm172 14v-8h11l3 8-4 4h-5zm176-1l2-7h10l13 4 1 8-1 5-10-1-4-6zm-602 32l6-3 3 3-2 4-7 1-4-3z"/>
		<path id="Path 15" class="s10" d="m451 350l10-12 4 4-9 11zm52-3l5-2 13 6 9 9-1 3-11 2h-8l4-7v-3h-3zm-46 16l10-14 1 2-5 6 1 7zm22-11l3-1v4h-3zm-2 33l5-4 7 2-2 6-14 10-2-6zm497 15l6-4 4 5-4 23-2 1zm-482 18v-9l6-7 6 1v17zm394 12l16-8 8 11v4l-22-2-3-3zm70 22l6-1h4v10l-3 6-7-6zm-853 28l1-4 5 4v11l-3 2-3-2zm851 67l9-4 5 14-7-5h-7zm-739 30l-1-9 10-1h4 10v6l-4 4zm511 2l1-6h3l4 2-1 4z"/>
		<path id="Path 16" class="s11" d="m358 421v-2h26 30 1l1 6 1 7 7 5h6l8 9-18 9h-5l-5-5-7-15h-13l-13-2-8-6h-8zm114 40v-22l6-4h5l5 2 4 22-2 1-9-1-1 4h-8zm108 4l-8-2v-8l8 2zm193 9l1-13h6v12l-2 2h-3zm67 1l2-14 15 5 2 1 1 16h-6l-4-7zm-330 8v-18l16 2 5 4 1 4-7 10zm298-12l4-4h16v4l6 4v6l-4 3-22-5zm-616 66l-6-3v-9h10l4 8zm-164-2l4-4 6 1 5 4-1 7-5 1z"/>
		<path id="Path 17" class="s12" d="m478 435v-4h2l3 4zm38 12v-2h10v14 8l-16-2v-6l3-1zm300 10l12-3v3 10h-16v-8zm-28 4l14-1v11l-3 6-6-1-3-4-6 1h-4v-12zm-310 17l-5-3-1-12h8l3 4h7v14h-6l-1-3zm110 3v-6h4v6zm-240 8l7-3 3 9v3l-6 2zm321 6l-1-7 8-1v8zm-487 6l8-1 2 5-3 7h-5l-2-2zm-28 13l3-2 5 2-1 5h-7zm-126 21l-6-5-2-9h6l6 10zm122-2v-9h4l2 9z"/>
		<path id="Path 18" class="s13" d="m420 455l18-9 9 1 3 8 4 1 2 15h-8l-1-5-10-5-5 2v5l-2 1-10-6zm-92 4l13-1 4-5h7 2v18l-9 10-6-3-6-1-2-8-3-1v-5zm-52 8l1-12h9l2 18-2 2h-10zm100 8v-8h2l21 2-1 12-7 1-2 5h-3l-1-9-4-4zm-218 2v-8h6l4 2v6zm448-6l3-1 11 2 2 5v10h-11l-1 6h-12l-2-6v-4l9-1zm-402 13l-1-11 6 4v6l-1 2zm638 1l12-2h6l4 3v9l2 8v7l-1 8h-3l-5-6 1-11-18 5-4-7zm-51 15l1-13h4l-1 17h-3zm-397 16h4l2-5 7 8-2 5h-3l-5-1zm333 0l-9 1-1-6h1 7l2 3z"/>
		<path id="Path 19" class="s14" d="m454 456l2-1 7 6h9v2l1 12 5 3-1 3-7 2-8-2-6-10zm-76 5l6-4 5 4 7-1 4 3v3l-1 3-21-2zm-214 8v-10h9l1 10 1 14h-3l-4-6v-6zm326-9l2-1h18v6 18l-1 2h-5l-12-2-2-2v-14zm102 15l3-4h11l-1 11-9 1-4-2zm248 6v-6l10 1 4 7-12 2zm-786 26l4-1 4 7-5 1-3-3zm79 33l5-19 12 3v9l2 8-4 4h-13zm739 22l2-14h4l9 11-7 8h-8z"/>
		<path id="Path 20" class="s15" d="m390 449v-14h13l7 15 5 5h5v8l-16 1-4-1-4-3v-7zm-68 20l-2-6h8v5zm374 2v-4h3l-2 4zm-451-1l2 12-7 3-5-6 3-11zm482 6l1-5 9 2-1 3zm107 5v-6h6v6zm-703 16l10-2 6 7v6l-9 1-8-4zm-73 9l4-5h9v3l-3 2v7h-6zm94 35l-2-8h6l2 2z"/>
		<path id="Path 21" class="s16" d="m483 349l3-2 8 9-4 10h5l3 3-1 6-8 8-7-2 3-6h-6l-5 8-4 2-4-4h-6l-5-8h-6l1-4 7-6 7 1 2 3 6-6 8 2 3 1 3-4v-5h-4v-4zm-52 26l16-20 5 3-5 10-5 8-4 3zm87-10l11-2 1 8-4 1-2 5-7-1 1-5zm414 72l2-4 14-8h6l-2 16-6 4v6l-3 1-7-3zm-26 55v-5h4l-1 5zm54 73l-6-7v-6h7l7 5 2 5-2 3z"/>
		<path id="Path 22" class="s17" d="m744 552l2-7h32l11 3 2-3h25l4 4v8h-76zm-318 1v-4l15 2-1 6-12-1zm-114 18l1-10 5-5 10-1-1 12h-4l-5 6zm210-10h-6l-1-4h1 6zm6 2l30 4h32l14-6 38 2 19-2-1 4-22 2-3 4h-38l-48 2-21-2z"/>
		<path id="Path 23" class="s18" d="m788 535h41l3-3h2l15 3 2 6h7l3 5-3 6-8 7-5-7-25-3-4-4h-25l-3-4zm-655 28l12-1 5 5v5l-18-1-10-2-1-3 3-1zm41 12v-4h9 13 5l2 7zm128 18v-18h6v4l4 2-4 12zm-49 11l15-1 5 1 3 15-28-5v-6z"/>
		<path id="Path 24" class="s19" d="m448 476v-5h8l6 10 8 2v8h-8l-7-9-7-1zm-131 7l4-2 1 5h-2zm253 15l2-12h3l10 1-5 14zm40-5l1-6h11l2 9 6 3 2 6 4 18h-2l-3-4h-8l-2-4 1-4h-4l-3-6h-5zm80 1v-5h6v5zm23 1v-2h9 7l5 5v13l-7 3-2-3h-7l-1-8-3-1zm105 12l1-8h9v12l-6 2zm-708 10l4-10h3l1 5v6l-4 3zm588 3l-1 6-4 1-4-2v-6zm-456 11l9-5v4l-4 2 2 6v3l-1 2-4-2z"/>
		<path id="Path 25" class="s20" d="m328 424l22-3h8l3 6h8l8 6 13 2v14h-5l-4-6h-9l-20-1h-1l-8-7zm-37 7l2-4 9-2h14v8h-5l-2 4h-16zm289 34v-8h10v6l5 8-3 4h-4zm107 1l9 1v4h-7zm112 11l3-6h6v8h-2l-6-1zm-728 24l1-8h5l5 5 8 2v5h-8-6l-5-1zm83 23v-5h7l4 6-7 10-2-2zm720 18l3-3 17 6-2 14h-5l-9-11z"/>
		<path id="Path 26" class="s21" d="m343 438v-3l8 7-4 1zm354 11l11-3 2 4-1 3h-5zm-556 3l12-1 3 5-14 1zm95 7l2-2h5l3 6-1 7-7-2v-1zm515 1v-1h7v1zm-545 3l3-1 3 1v11l-3 3-6-4v-6zm-34 34v-14h3l13 3 4 4v7l-2 3-8 1-9-1zm608-8v-6h5l-1 11zm-671 9l15-9h1v8l-4 9-4 1h-3l-2-4-5-1zm847 13l-2-7 2-11zm-723-6l3-5 7 2 3 9h-4l-2-4h-7zm-83-3l11-1v5l-4 6-3 2-7-6v-6zm-93 12l5-1h6l4 3v14l-6-1-5-5-7-5 3-1zm420 30l1-1h6v6l-4 1zm-291 9h-3l-1-4h4zm-94 13l-1-15 25 2 2 8h6v4l-3 1-20 1zm380 47l8-4 7 2-3 6-12-2z"/>
		<path id="Path 27" class="s22" d="m778 545l1-4h9l3 4-2 3zm-334 6v-6h9l2 6zm-28 0l1-4 9 2v4zm-110 0l8-2h18l1 2-1 4h-4l-10 1-5 5-1 10-4 1v3h-6v-6-11zm174-1l4-1 2 6h-6zm28 5v-6h6l2 3v5h-1zm134-2l30-2 16 2h2v6l-29 2-19 2-38-2-14 6h-32l-30-4-6-2v-4l4-2h6l33 2 9-2 3 4h10l7-4h12 10l16 2 4-4z"/>
		<path id="Path 28" class="s23" d="m328 555h4l1-4h83l10 2 2 3 12 1 1-6h3 11 2l9 2 3 5 11-3h6 22l7 2 1 4h6l6 2v8l-60-8-54-1v3l-63-4-23 7-1-1z"/>
		<path id="Path 29" class="s24" d="m774 523l5-1 15 4 9-3h13l14 3 2 4v2l-3 3h-41l-22-4v-5zm72 3l3-1 9 1v7h-9zm-141 3l5-2 17 1 1 5-5 3-1 5-20 2-14 2h-16l-2-2-28 2v-4l1-5 1-3h38l2 5h3l1-4 2-3zm-173 26v-7l8-5v-7h6l4 9 6-6h10l8 2 2 9-2 5-9 2zm-264 44l7-2 6-8h5l4 8-17 7-5-1z"/>
		<path id="Path 30" class="s25" d="m289 454l15-1 11 10h5l2 6-1 12-4 2-15 2-8-2v-6l-6-4-2-18zm143 14v-5l5-2 10 5 1 5v5h-6l-2-7zm237 5l7-1 2 9-2 6-8 1 1 7-3 1v9l-8 6-14 1-1-11-8 2-5-4-6-3-2-9v-10h6l4-4 17 2 1-2zm-460 4l3-3 5 1 1 8h-9zm47 40l-1-9 6-4 3 9-4 4zm-133-10l7-2 8 4v12l-5 19-8-3-1-3-2-7h-6l-2-4v-2l4-3v-6h4zm119 4l-1 3h-4l-4-7h7z"/>
		<path id="Path 31" class="s26" d="m404 464l16-1 10 6 4 16-5 1-6 8h-6l-1 4-7 1-11-18 1-12 1-3zm136 3l14-1 3 4 12 4 1 1 2 7v4l-2 12h-4l-2 5h-10v8l-5 2-2-5-4 3-7-6-2-7-8-3-1-10 7-10 4-4zm-179 4l5-2 8 7v11l-6-3-6-4zm-28 12v-6l6 1-1 5zm343 4l2-6h9l3 8v5l-2 3-12-2zm-184 5v-9l12 2v17l-4 3-5-9zm-300 13l12-1 4 4v5l-2 4h-8l-2 8h-10-2v-13h5zm120 20l3-3 1 4-3 3zm-56 9l1-6 3 3zm239 7l6-6v9z"/>
		<path id="Path 32" class="s27" d="m231 426l9-2-6 2zm27 28l1-10h9l1 8-3 3zm-80 1v-8l10 1 1 10 16 1 1 4-3 4-21-6zm629 4l9-2-4 2zm-49 1v-1h15l1 2zm30 1l1-2h14l-1 1zm-655 22l11-1 6 5v15h-3l-6-7-10 2h-6v-8zm-61 33l3-2 1-9h6l2 10 24 8 2 6-2 4h-11l-5 8-9-1-8-5-3-5zm-24 27l8-2h4l2 3-6 12-12-7 4-1zm32 21v-17l11 1v3l1 15h-6zm86-10l6-2v7h-2-8zm494 51h3l-3-7 9 3 11 8 2 8h-5l-3 4-3-4h-12zm-18 2v-3h4l1 2z"/>
		<path id="Path 33" class="s28" d="m208 530l4-5 10 1v4l8 5 4 3v3l-16-2-3-6-7-1zm74 9l21-4h1 10v10h-5l-3 4h-11l-3 4-10-2-19 2-8-4h-16l-2-5v-3h7l4 2 1-2zm360 6l28-2 2 2v6l-30 2zm46 0l14-2v8l-12 2h-2zm-72 7l10-7h7l3 8-4 4-16-2z"/>
		<path id="Path 34" class="s29" d="m383 410v-1h14l-13 2zm-97 29l7-2h16l1 7-5 3-1 6-15 1zm-71 5v-5h7v4l-4 1zm-37 3l5-4 11-1v6h-6zm34 16l14-2v6l-9 8-5-1zm579 18l2-5 6 1 1 1v7l-4 2h-4zm-723 32v-7l3-2 5 1-1 9-3 2zm40 20l2-4h6l8 5 1 3v6l-5 2-16-2zm92 0l6-4 2 1v2l-12 17-2-4-2-3v-5zm674 15v-6l4 6z"/>
		<path id="Path 35" class="s30" d="m212 500l-4-4 1-8 5 1 3 10 2-4h3l3-6h11v11l-3 5h-13l-3-5zm200 19l6-2v-8h6l6 2v5l4 4v3 4l-18 1-14-1v-3h3l2-5zm-114-8l7-1 23 5 4 8v4h-8l-8-1-1-4-3 3-17 1 1-13zm160 16v-8h6l6 2h11l2 8v2h-5z"/>
		<path id="Path 36" class="s31" d="m488 342v-10l13 6 7 7-5 2h-5l-5-5zm34 67h-8l-1-9h6l3 6zm252 108v-2l6 2-1 5-5 1zm-550 50v-4h4v4z"/>
		<path id="Path 37" class="s32" d="m191 433l13-3-2 2zm47 24v-7l4-3 1 10zm728-6l2-1-2 11zm-866 52l7-1 5 1 2 4-4 10h-3v-4l-5-2-3-6zm-44 53l6-12 10 1 8 2v17zm399-5l-2-6 4 1v5zm-331 10l6-2h2l1 4-9 2z"/>
		<path id="Path 38" class="s33" d="m644 525l12 2 3-5h6l11-8 13 1v4 6l4 2 4-1 1-6 6 2 1 7-15 2-2 3-3-3-3 2h-38zm138-9l7-1 11 4 3 4-9 3-15-4 1-5zm-28 7h8l6-6h6v6l-8 3v5l-14 1-1-5zm-151 5l9-7h5l5 1v8l7-1 2 4v2l-5 3v7l-10 7-3-3h-7l-4-9zm-116 1l15-3 14 1 3 4h18l3 5v7l-8 5v7h-6l-4-3-3-2-1-7-4 1v5h-6l-7-5v-9l-6 6-9-2zm87 12l4-8h13l3 9-2 8h-16zm-18-2l1-5h7l2 5z"/>
		<path id="Path 39" class="s34" d="m273 481v7l-8 3-3-3v-13h6zm60 2h5l1-5 6 3 3 8 4 11-8 5h-7l-5-7v-15zm104 2l1-3 3 1-1 4zm-135 0l15-2 3 3v16l-14 2v-9l-5-5zm164 26l-4-20h8l4 4h8v9l-5 7 5 9-1 1h-11v-9zm-50-13l1-4h6l1 15h-6zm-40 6l-3-9h3l4 2-1 7zm290 1v-9l3-1h7l12 2 1 18-13-1-2-9zm-179-1l8-8 5 9v8h-9zm77-1l2-5h4l10 3 1 11-3 21-4 8-8-2-2-5h-7l-3-11-3-1-3-7 1-2 5-2h8zm53 18l1-6h3l2 4-1 3z"/>
		<path id="Path 40" class="s35" d="m358 411l1-1h16 8l1 1v8h-26v-4zm-29 2l18-2h2 1v4 6l-22 3-12 1h-14v-9h2l3-1h3l14-2zm185 20l-1-10 5 1v9zm-310-3l27-4h3l1 10-4 1-9 2h-7l-13 1v-8zm339 10l-1-12 16 1 12 2 1 1-1 11zm-444 15l32-11 25-4 2 8-5 3-12 1-7 2 2 13-5 3v9l-7 4v6l-15 9-3-3v-2l3-2v-11l-5-4-4-4zm584-8l7-2 7 4 7 4v6l-2 7-3 1h-3l-9-1h-1l-4-7h-6l-4-4v-8h2zm-253 22l2-1 8 1 2 7-1 7-3-1-1 3h-3zm-136 18v-4l8 2-1 5-3 1zm-244 19l2-9h8l2 4-4 5-4 1z"/>
		<path id="Path 41" class="s36" d="m800 519v-10h8l2 4h4l2 1v9h-13zm-90 8l-2-17 9 1 1 6 9-1 5 5h6l13 6 1 5-14 4-10-3-1-5zm58-10v-6l6 1v3 2zm-190 16l3-21 7 6 2 7 1 6v2zm53 0l3-10h2l8 2v8l-1 3-5 1-7-2z"/>
		<path id="Path 42" class="s37" d="m282 484l3-2 9 1v4l-12 2zm84 9l2-9 6 3 2 2v6h-3zm43 6l7-1 2 11v8l-6 2-3-12zm-133 14l4-12h10v8l-2 14-6 1zm224-8l4-3 6 6 5 5 7-2h9l5-6 7 6 1 5 4-1 3 7-6 6 1 8h-6l-3-5h-18l-3-4-14-1-2-13zm-106 11l-4-3v-7h6l4 3v2l-2 5zm224-1v-4h4l-1 4z"/>
		<path id="Path 43" class="s38" d="m505 363l6-8h3v3l-4 7-4 1zm43 32l12-3 1 3-10 8-16 12-1-7 4-4 9-4zm-458 80v-4h4l-2 5zm10 7l3-2v11h-2l-1-3zm734 43v-7h4l6 3 2 5 3 7v2l-15-3v-2zm-778 16v-8l-10-6h13l1 3v11zm35 7l1-5h12l16 2v5l-4 3-25-2zm165 18v-5h30l2 8-2 20h-5l-6 8-7 2v-10l8-7v-8l-8-3-1-4h-5zm285 99l-5-4v-18l6-12 2 1v25z"/>
		<path id="Path 44" class="s39" d="m212 513v-13h5l3 5h13v2l4 7h4l1-3h4l2 5 1 5h3v-4h4 4l8 8v6h-8l-3-3-1 6-7 4-2-6 4-2v-4l-9 5-6-2v-4l-11-8-3 9-10-1zm234 16l4-10h8v8l-2 4h-3v4h-7zm-97-4l4-2h8l3 4-2 6-6 1v5l-6 2-10-2-1-3 1-9zm-54 1l17-1 1 4 3-3 8 1v8h-10-10l-2-2-7-3zm121 2l18-1 2 2v6l-8 1-5 1-7-1zm62 15v-12h5l2 8-1 4z"/>
		<path id="Path 45" class="s40" d="m336 540l4-1 10 2 6-2 67 4 5-1 16 3v6h-3l-15-2-9-2-1 4h-83l-1-2v-7zm148 3l1-4h1l9 2 6 3 7 5v6h-22l-2-6zm-27 3l2-3 18 1 3 6v5l-11 3-3-5-9-2zm-151 3l3-4h5v4l-8 2zm300 6v-6h7l3 3v3zm-101 124l2-10h2l5 4-6 7z"/>
		<path id="Path 46" class="s41" d="m282 524l6-1 4 7h3l7 3 1 2-21 4-2-6zm42 11v-8h8 8l-1 9-3 1zm132-4l2-4 20 4v12l-1 1-18-1-2-4zm-20 4v-6h6 4v6l-4 2zm190 10v-7l5-3 7 2v4h-4l-1 4z"/>
		<path id="Path 47" class="s42" d="m266 455l3-3 7 1 1 2-1 12-7-2zm456 38l-5-18 10 1h9l2 13v8l-4 1-5-5zm28-9l1-8h4l3 8zm56 1v-6h2l22 5 2 15h-4-9l-2-1-1-3h-5zm-38 8v-10h6 6v6l-8 6zm-67-6v-2h5l7 8v2h-5zm-413 36l2-14 6 4-1 13v4h-3zm-112-12l6-1 2 2v13h-6zm30 6l2-4h4v12l-4 5-2-1zm16 9l3-9 11 8v4h-5l-1 6-8-5z"/>
		<path id="Path 48" class="s43" d="m940 407l8-2v4l-1 6-7-2zm-574 62l1-4h6l3 2v8l-2 1zm221 15l1-3h4l4 2v4zm-15 2v-4l3 4zm-63-1l1-2 15 2 1 10-9-1zm325 33v-5h4v5zm-212 4l1-3h8l3 4-3 10-2-4-7 1zm-31 9h5l3-4 4 1-1 12-5-3-3 5-3-9z"/>
		<path id="Path 49" class="s44" d="m840 506l18-5-1 11 5 6-1 8h-3l-9-1-2-5-3 1-6-3v-5zm-240 4h5v-4l5-1h5l3 6v4l-1 6h-5l-9 7-4-1-3-6-6 4-2-7 2-8zm154 1l8-6 5 1 1 5v6l-6 6h-8zm-27 3l7-3h4v10h-6l-5-5z"/>
		<path id="Path 50" class="s45" d="m400 466v-3l4 1zm-22 47l-2-9h3l3 3-1 6zm-29 12l-1-9 5 2v5zm197 11l-1-8 6-6 3 1 3 11-1 5-6 6zm136-3l3-2 3 3-1 4h-3zm237 56l-6-5 1-5 8 1v9z"/>
		<path id="Path 51" class="s46" d="m498 356v-9h5l8 8-6 8h-8zm-6 32l7-10h1l4 3v5h3l4 4-5 5v5l-2 3-6-1v-9zm25 3l9-2 4 6v10l-8 1-3-6h-6l-1-2zm431 18l8-1 9-8h9l4 25-8 18h-8v-2l-2-14-6-2h-6l-1-10zm-12 2v-4h4v6zm7 41l3-1 10 1v9l7 6-3 7-8-1-7-8zm17 113h8l2-3 5 13-14-3z"/>
		<path id="Path 52" class="s47" d="m204 497v-13l4 1 1 3-1 8 4 4v13h-4v-5l-4-4zm78-8l12-2 4 4v8l-8 2h-10zm486 10l4-1 6 5v2l-4 7-6-1-1-5zm18 2l5-1 1 4h3l5 5v10l-11-4-7 1-1-7 5-4zm-151 2l8-2 1 11 14-1 8-6h8l2 9-11 8h-6l-3 5-12-2-8-2-4-18zm179 6l4-2 4 6-6 1-2-1zm-76 2l6-1 10 1v12l-3 4-13-6z"/>
		<path id="Path 53" class="s48" d="m350 415v-4h8v4zm354 44v-6h5l4 2h1v4zm-427 22l-1-6h10l-1 7-3 2zm323 29l-4-7 2-10h12v12l-5 1v4zm162-5v-8h4l2 2-1 7zm49-3l6-4 2 1-1 8-4 2h-3zm-37 10l4-7 3 4 1 7-2 1-6-2zm-231-1l4-3 2 5-1 2-4 1zm-109 9l2-8 3-1 6 7-3 6-8-1z"/>
		<path id="Path 54" class="s49" d="m397 409l7-4 7 4 3 10h-30v-8zm23 1l5-1 5 4v8l-10-2zm98 14l2-1 20 4h1l1 1 1 12-16-1-9-6zm-327 9l11-1v8l-8 2-11 1-5 4h-4l-16 1-2-8zm-101 26l9-4 1 17-6-1h-4zm-30 38v-8h9l3 4-1 8h-9zm712-2l8-6 4 5v7l-6 2-6-5z"/>
		<path id="Path 55" class="s50" d="m205 459l-16-1-1-10h6l10 1 1 8zm-119 22v-5l4-1 2 1v3l-2 3zm772 52v-7h3l2 8 3 1v6l-5 5-3-5zm-766 8l5-8h11l-4 10h-12zm42 10l1-6h13l1 6-8 4zm36 14v-6h2l12 6-1 6h-9zm522 12l11-8 7 1v5l-10 11v5l-12-2v-2-6h3zm-45 29l5 1-2-6 10 4-1 12-4 3-5-2-8-6-2-3 2-2zm-163 72l7-1 6 3-2 8-6-1-5-6z"/>
		<path id="Path 56" class="s51" d="m59 527l2-3 5 5-6 1zm790 8v-2h9v8h-7zm-777 10l3-10 8 5 9 1v2l-1 5-11-1zm117 19l5-9h6l3 8-2 8h-5v-4zm-44-2l11-2h3l2 5h9l4 6v4h-17l-7-3v-5z"/>
		<path id="Path 57" class="s52" d="m316 425l12-1 15 11v3l-20-1-7-4zm-33 9l2-3h6l2 6-7 2zm69 8l20 1v9l-18 1h-2zm-48 11l1-6 5-3 10 7h6l2 8v4h-8-5zm-173 26v-9l5-3-2-13 7-2 1 5 14-1 2 3v10 8l-12-3-2 8-11 1zm605-3l1-3h3 8l3 3-1 8-6 5h-6zm42-1l2-2h4v4zm52 9l4-3h6l2 4-6 14h-4zm-673 28l4-6 4 4-3 4zm-19-3l9-1 7 6v5 5h-4l-12-3zm36 19l4-3h6 2v9l6 3v5l-9 3-5-10zm-13 19l3-12h5l7 5v9l-4 3-6 2-1-5zm-124-3l5-1 1-7h1l4 7v5l-4 1z"/>
		<path id="Path 58" class="s53" d="m877 435l8-3 3 3 22 2 4 4-2 13 2 15 9 2 5 5v25l-5 4-1 18v4 12l-16 1v9l6 7v14l-1 2-15-6-4-7 2-14-1-24 5-4v-13l8-8 4-1-1-3 1-5 2-10-6-1-4-1-4-16-14-2-12-17zm-167 15l2-2h5l-4 7-4-2zm155 113l-7-8 9 5z"/>
		<path id="Path 59" class="s54" d="m441 483l1-7h6v5l7 1 7 9 4 20-3 2-12-2-1 8-4 10h-4v-5l3-6-6-7-3 1-2 8-4-4v-5l-6-2-1-15 6-8 5-1h3l3 2zm-52 4l2-5 7-1 11 18v8l-9 2-4-3v-8zm-67-1l10-3v15l5 7-1 4-6 1-1-4h-5l-4-4v-16zm263 1l2-3 9 3 2 6-2 10 4 7h-10l-2 8-7-6-1-11zm-100 6l7-1 3 4-8 8h-5v-9zm203 4l2-3h6l7 9h5v7l2 17-5 2-1-7-6-2-9-1v-4zm-134 14v-8h10l-2 8z"/>
		<path id="Path 60" class="s55" d="m933 403l15-5v7l-8 2h-4zm-19 8l15-7 1 7-6 4zm-450 3v-8l5-1 4 10-4 2zm212 58l2-4 8-2h1l2 5h7 1l4 14v2l-5 2h-6l-3-8h-9zm-576 26l1-7h2l3 2v2zm806-2v-4h3l1 3zm-672 45v-3h3v3 3h-3zm280 8v-5l4-1 1 7-3 2zm397 23l1-2 7 2 12 7 1 5-10-4-8-1zm-193 9v-7l3-2 6 1-1 6zm0 11l1-2 11 1-5 10-7-2zm-32 18l-3-6h6l7 3v2l-2 10-8-4zm-202 7l3-6 7 2v10l-10 1z"/>
		<path id="Path 61" class="s56" d="m286 475l2-2 6 4v6l-9-1zm184 8l7-2 1-3h5l1 3 1 12-3 2h-8l-4-4zm34 19v-17h5l8 9 9 1 8 3 2 7-5 6h-9l-4-7-8 4zm-128-13l10-2h3l7 11v8h-6l-8 1-3-3 1-7-4-2zm358 9l4-1 6 2v11l-6 1h-4zm94 13v-12h4 4l4 7-2 7h-4z"/>
		<path id="Path 62" class="s57" d="m486 347l2-5h5l5 5v9h-4zm-14 14l6-5 2 7zm-28 16l5-4h6l5 8h6l4 4-6 8-5-4h-7l-9-8zm56 1l3-4 5 3-4 4zm7 8l10-10 7 1v3l-1 3 3 1v5l-9 2-6-1zm417 29l6-4h6l4 2 7 2 1 10-14 8-2 4h-4l-4-6zm22 36v-6l6-4h10v2 8l-6 1zm-356 74l6-4 3 6-3 4h-5zm340 20l12-2 12 4v5 6l6 7 1 7 14 3 3 17v10 10l-5 9h-14l-17-8-2-7-8-22-1-5 4-7 6 1v-3l-8-1-3-2z"/>
		<path id="Path 63" class="s58" d="m495 366l2-3h8l1 3 4-1h8v6l-10 6-5-3v-3l-5-2zm195 79l16-6 2 6v1l-11 3zm121 57v-7h5l1 3zm-329 18l-5-9 5-7h5l4 9zm-152-10l6-1 4 4v5l-8 5-4-8zm589 85v-6h3v6z"/>
		<path id="Path 64" class="s59" d="m504 403l2-3h4 3l1 9h8l-2 14-2 1-5-1-9-3zm-270 174l4-4v-6h6 6l-4 18h-10zm255 72l11-2-4 10h-6z"/>
		<path id="Path 65" class="s60" d="m253 463l5-9 8 1 3 10 7 2v8l1 6h-4l-5-6h-6zm-45 22l1-2h9l1 5v7l-2 4-3-10-5-1zm530 4h6l6-5h8l4 13v8l-8 6-10-1v-11l-6-2zm58-2l4-2h6l5 10v7 7h3v4h-4l-2-4h-8l-5-5zm-18 16l6-2h2v4l-5 4-3-4zm-526 14v4h-3l-1-5zm84 20l3-1 1 3-4 1z"/>
		<path id="Path 66" class="s61" d="m251 435l11-2 14 1v19l-7-1-1-8h-9l-8-5zm-29 4l9-2v4l-9 2zm-20 1l13-1v5l-11 5-10-1v-6zm170 12v-9h9l4 6-1 8-6 4h-4zm-214-4l16-1v8l-1 4h-9-6l-2-3-3-5zm609 27l6-1 2 1-1 8h-6zm-643 14v-6l7-4 2 4-8 6zm45 46l4-2 5 2 5 10-2 3-5 1v-9zm17 14l8-4 2 4-2 3-8 1zm-37 2l3-1 4 10-11 2-12 1-1-4 9-4z"/>
		<path id="Path 67" class="s62" d="m309 437l2-4h5l7 4 20 1 4 5 4-1h1v11h-7l-4 5-13 1-2-8h-6l-10-7zm-33 16v-19h7l3 5 3 15-3 1h-9zm479 23l1-4 11 3 1 8v10l-2 4h-4l-4-13zm-665 29v-5h6l4 3-1 2zm72 9l3-4 5 1-1 9-4 5-4-6zm-10 36l2-3h7l4 2 1 5-4 5-3 1h-3z"/>
		<path id="Path 68" class="s63" d="m752 532l14-1 22 4v6h-9l-1 4h-32-8v-9zm-556 17l12-17 7 1 3 6-4 24h-11l-3-8h-6v-3zm506-6l20-2 3 4-2 5-20 3-1-2zm-30 8v-6h16v8zm-98 4l2-5h16l2 5-7 4h-10zm-390 10l5-1 7 3v4h-13zm114 28l-2-24h6v6 18z"/>
		<path id="Path 69" class="s64" d="m411 409l2-3 7 4v9h-5-1zm19 4l14-2 1 3 15 2v11l-30-6zm-80 8v-6h8v4 2zm130-2l12-1 12 2 9 3 1 10v2l-19 2h-7l-5-2-3-4zm-404 45l14-5v12l-10 4h-2zm246 5l6-1 3 1 2 8v6h-1l-10 3-1-5zm-270 28v-6l8-2v8z"/>
		<path id="Path 70" class="s65" d="m866 441l6-1 12 17 1 7 5 3 2 12 2 8h12v5 4l-8 8v13l-5 4 1 24-17-6-2-10-7-1-2-18v-7l3-4 8-2-2-5 1-9-3-2v-6l1-10-8-7zm-15 3l5-3 6 11v7 6l-3 2-2-1zm-693 25v-10h6v10zm451 1l1-9 13 1 2 5h7v6l-4 4h-6l-2-5zm-579 40h9v3zm885 91l4-6h3l6 6-5 4z"/>
		<path id="Path 71" class="s66" d="m460 416l4-2 5 3 4-2 7 4v12h-2l-18-4zm-437 82l3-8 11-9 39-17 2 11-7 3-2 11h-9l-8 2v6l-2 9-3 4h-8-9-1l-6-4v-3zm353-23l5-1 4 4 1 9-10 2-2-2v-11zm-284 4l8 3v6l-3 3h-9l-5-7 3-3 4 1z"/>
		<path id="Path 72" class="s67" d="m404 405l10-10-1 11-2 3zm461 31l11-6 1 5-5 5-6 1zm-33 17l8-3-1 6-5-2zm-659 6l1-4h4l4 6-4 8h-4zm689 6l5-1 3 11h3v6l3 2-1 9-6 3h-5v-9l-4-3-1-16zm30 14h6l4-4 4 1v11h-12zm-62 47l4-1v5h-2zm20 33l8-7v3l7 8 5 4v14h-2l-27-16z"/>
		<path id="Path 73" class="s68" d="m560 392l2-4 2 5-3 2zm302 126h3l1-8 2 18-2 7-3-1-2-8zm-40-5l6-2 6 2v5 7l-4 1-14-3v-9zm-559 60l5-2 8 3v8l-8 7v10 4l-15 1-9-6 8-5 1-5 3-1v-4l5-1zm263 64l3-1-1-18 11 2 1 1 2 10-6 12v18l5 4-8 11-5-9zm-42 28h12l3-3 8 7-2 10-8 1-6-3-7 1-4-6 2-5z"/>
		<path id="Path 74" class="s69" d="m876 430l7-4 3 4-1 2-8 3zm-702 39h4l4-8 21 6v6l1 11v13h-5v-5l-7-2-4-4-13-3zm610 4l6-1 3 4-2 5h-5l-2-4zm82 30l-2-8h5v4zm-705-2l2-4h9l1 3 9 1v9l-6 1h-6l-5-1-4-4zm-123 31v-6l6 1v9h-1zm484 25v-5l4 3zm456 45v-10l2 10zm-513 21l3-1v2z"/>
		<path id="Path 75" class="s70" d="m245 470l1-7h7l9 12v13l3 3 8-3v-7h4l5 3v5l-2 12-4 12h-5l1-11-7-7-29-6h-11l-6-1-1-5-1-8 9-8h12v1l-3 11 5 6 7-3zm540 13l1-2h5l1 6-1 13-5 1h-2v-7zm-487 8l3-1 5 5v9l-1 6-7 1v-12zm468 6l2-4 4 2v3l-4 1z"/>
		<path id="Path 76" class="s71" d="m529 363l1-3 16 14-4 2-5-5h-7zm311 87l11-6 6 22-15-5-3-5zm-202 14l7-1 5 10-1 2-17-2v-6zm-599 49v-3h8l7 1 3 3v4l-3 1zm68 4l-5-2v-4l5 2zm-81 4v-4h1l11 9v6l-6-1zm90 8v-2h6l2 7z"/>
		<path id="Path 77" class="s72" d="m204 449l11-5h3l2 7 10 2v5l-4 3-14 2-3-1v-4l-4-1zm521 8h7l1 1zm15 2l-4-1 9 1zm-632 64l-24-8-2-10h8 9l3 6v4l5 2h3l4 4v2zm57 2l4-5 3 1 2 7 4 7-5-2-4 2h-5l-3 12h-7l-2 3-3 1-1-6 4-4 6-6zm-45 20l5-2v-6l8 3 2 5-1 6-4 2v6l-6 2h-6l-2-8 4-3zm63 0l9-3 2 3-8 4h-4l-1-1zm486 56l-1-7 4-1v-4l16-2v2l-5 8 6 7h-6l3 6-6-1z"/>
		<path id="Path 78" class="s73" d="m856 441l9-5 1 5v17l-4 1v-7zm36 38l-2-12-5-3-1-7 14 2 4 16-4 4zm14 8v-11l6 1-2 10zm-37 8l6-3 2 5-8 2zm-759 34l-2-6h6l2 4v2zm756 6l2-7 7 1 2 10-3 3v6l-2 14-5-2-9-5v-3l3-6 5-5zm57 70l5-4 12 5 2 7zm-455 17l-1-8 5 1 12 2v7l-7 11-9-11z"/>
		<path id="Path 79" class="s74" d="m478 342l2-14 8 4v10l-2 5-3 2zm32 58l2-2 1 2zm412 127v-4h6l1 3zm-708 58l1-8h19l2 8-2 9zm487 9l17-2v7l7 2-6 26-10-15-13-3v-2-7zm-27 27l3-4h5l-2-8 6 1v5l8 4 2 21-7-3-15-11zm-180 2v-10l9 2v1l-3 7z"/>
		<path id="Path 80" class="s75" d="m375 410l8-1v1zm167 18l-1-1 15 1 2 1zm29 4l-1-1 4 1zm-336 4l16-1v4l8 5-1 10-5 9h-7l-3-6-1-10-2-4-9-2v-4zm-61 19v-8h4v8zm52 6l4-3 6 1 2 8h-12zm524-1l-3-1h4v1zm24 23l1-8h3l6 2 2 4-1 2h-5zm26 2v-7l6 1v6zm-631 35l1-9h6l2 14-4 3-2-7z"/>
		<path id="Path 81" class="s76" d="m349 411l10-1-1 1h-8zm-127 32l9-2 9 2 2 4-4 3v7l-2 2-6-1v-5l-10-2-2-7zm-17 16v-2l4 1v4l-3 1zm-61 23l2-8 12 3h10l4 6v14h-9l-2 4-11 1v-15zm32 67l5-1 1 1 1 4h3l8-1v3l-5 9-5 1-12-6v-7zm-46 10v-6l4-2 7 4-9 4zm848 53v-10h2z"/>
		<path id="Path 82" class="s77" d="m80 475l10-4v4l-4 1v5l-3 3h-3zm620 116v-5l10-11v-5l11 2-3 2v7l1 9-1 2-17 2zm-45 29l4-3h12l3 4v5l15 11-4 3-8-5zm-178 47l-5-12 12 2v8l-2 2z"/>
		<path id="Path 83" class="s78" d="m358 495l8-2 7 2 3 9 2 9-2 14h-12l-3-4h-8v-5l-5-2 1 9-9 2h-8v-4l8-5v-5l-4-4 1-4h7l8-5 6-2zm-68 6l8-2v12l-2 2-6-4zm342 4l-2-6 5 4zm-232 4l9-2 3 12h-5l-7-8zm82 11l9-7h9l2 13-15 3h-4l-2-8z"/>
		<path id="Path 84" class="s79" d="m219 495v-7l6 1-3 6zm17 5v-11l29 6 7 7-1 11h5l6 11-2 9-12-2v-6l-8-8 4-4-3-9-6 4 1 9h-4l-4-1-2-5-3-9zm70 4l14-2 4 4h5l1 4-2 5-23-5zm76 3l8-1v7l4 3 3 7 5 1v3h-17l-3 4h-4l-2-4 2-14h3zm68 12l1-8 12 2 1 6h-6z"/>
		<path id="Path 85" class="s80" d="m356 539v-5l6-1 2-6h12l2 4h4l3-4h17l14 1v8l7 1v6zm-42 6v-10h10l12 2v3l-4 2v7h-18zm114-9l8-1 6 2 4-2h7l4 4 2 4-2 3-4-1h-9l-16-3z"/>
		<path id="Path 86" fill-rule="evenodd" class="s81" d="m479 352l3-1 1-2-5-7-6 6zm45 28l-1 3 3 1zm-60 13l1 6h8l-2-6 6-8-3-2-4 2zm-214 174l6-1v-5h-12v6zm3 21l3-1v-4l-5 2zm259 79l-3 2 5 4 12 5 7-2-5-9-2-30-2-19h-8l-1 26-5 1z"/>
		<path id="Path 87" class="s82" d="m438 379l4-3 2 1-1 4-5 1zm84 27l8-1 4 3 1 7-7 9 12 3-20-4 2-14zm361 20l19-10v6l-16 8zm-175 19l4-1v4l-2 2-2-4zm-664 91v-9h2l10 6v8l-8 2zm157 35l2-8h11 10v4l-10 1 1 9-1 8-7-2-4-5zm488 33l-6-7 5-8 12 2 1 3-5 6v7zm-226 23l-1-3 3-1 3 1 9 11 2 6 10 8 1 8h-6l-12-2-6-14z"/>
		<path id="Path 88" class="s83" d="m214 563l4-24 16 2v3h3l2 5h16l8 4 19-2 10 2 3-4h11v2l-4 7v11h-6-8l-2-8h-30-12l-16 2h-4z"/>
		<path id="Path 89" class="s84" d="m373 465l1-4h4v6h-2zm112 28l-1-12h6l2 2v9zm-293 4v-7l7 2v5zm318 11l8-4 4 7-7 2zm-47 5l3-2 4 1v9l-6-2zm-267 12l2-8h8v12l-6 4z"/>
		<path id="Path 90" class="s85" d="m230 535l1-6h5l6 2 2 10h-7v-3h-3zm26-1l4-3h8l12 2 2 6-33 2v-3zm47 1l-1-2 2 2zm291 7l3-5 5 3 4 9v6h-12l-2-5zm39 3l1-4h4 4v4 8h-6z"/>
		<path id="Path 91" class="s86" d="m121 506l4-9h6l-1 8-7 2zm587-3l6-1 3 1 1 8h-1l-9-1zm-225 28v-2h4l-1 10h-1zm-30 4v-4h3l1 8zm-30 2l5-1v6l-5 1z"/>
		<path id="Path 92" class="s87" d="m468 351l4-3 7 4v3h3 4v5l-3 4-3-1-2-7-6 5-6 6-2-3-1-7zm-26 25l5-8 3 1-1 4-5 4zm55-1l1-6 5 2v3l-3 4h-1zm-23 8l5-8h6l-3 6-5 4zm-382 93l2-5 6 1 4 4-1 4-3 2-8-3zm171 97l-1-6h5l1 4zm263 64l-2-19h4l1 18zm-42 28v-8h6 6l3 5-3 3z"/>
		<path id="Path 93" class="s88" d="m456 353l9-11h5l-3 7-10 14-7 6-3-1 5-10zm39 13h-5l4-10h4l-1 7zm13 11l10-6-1 5-10 10h-3v-5zm-19 6l8-8 2 3-7 10-5 1zm47 13l9-8 3 1v6l-1 5-9 4zm-25-6l6 1-5 7-2 2h-4v-5zm-434 103l3-2v-7h3l5 7h9l3-3 1 3-1 7-4 2h-6l-8-2zm403 179l-3-5h5z"/>
		<path id="Path 94" class="s89" d="m774 461l-1-2h16l-1 2h-8zm-714 69l6-1 6 1 3 5-3 10-10-1-2-3zm99 30l3-1h8v6h-9z"/>
		<path id="Path 95" class="s90" d="m832 532v-2h2v2zm-110 9l1-5 5-3 10 3v9h-13zm-206 11l3-2 3 2v5h-6zm-230 37l2-20h8l2 24v4h-8z"/>
		<path id="Path 96" class="s91" d="m345 481l9-10h7l1 9 6 4-2 9-8 2-3-9-7 3zm351 8l5-2 7 8h5l1 7-6 1h-5l-7-9zm-506 11l2-3h7 5v7l-12 1zm244 27v-4l8 1v5h-6zm204 10l5-1-1 5h-4z"/>
		<path id="Path 97" class="s92" d="m964 394l12-1 4 3-6 4h-9zm-714 173l6-1 6 1 1 6-2 9-5 1-5 2h-5zm683 2l8 1v3l-6-1zm-433 54l3-7h5l2 29 2 22-3 2h-2l-8-7-3-5 4-10 2-8z"/>
		<path id="Path 98" class="s93" d="m228 563l16-2v6h-6-10zm6 31l2-9h10 5l2 3-1 5-8 5zm276 51l-2-29 8 2-1 26z"/>
		<path id="Path 101" class="s94" d="m356 571l66 3 22 11 1 7-52 9-61-3-5-2 2-13 12-10z"/>
		<path id="Path 102" class="s43" d="m569 474h1v1h-1z"/>
		<path id="Path 103" class="s87" d="m468 370h6l1 4-8 6-2-6z"/>
	</g>
</svg>