<svg version="1.2" xmlns="http://www.w3.org/2000/svg" viewBox="0 0 1000 1000" width="1000" height="1000">
	<title>Oncorhynchus_tshawytscha</title>
	<style>
		.s0 { fill: #d5d5d6 } 
		.s1 { fill: #d2d1d1 } 
		.s2 { fill: #b3b2b2 } 
		.s3 { fill: #b8b7b7 } 
		.s4 { fill: #d9d8d9 } 
		.s5 { fill: #a8a7a8 } 
		.s6 { fill: #cecdcd } 
		.s7 { fill: #bcbcbc } 
		.s8 { fill: #c1c0c0 } 
		.s9 { fill: #dddcdd } 
		.s10 { fill: #adadad } 
		.s11 { fill: #cac9c9 } 
		.s12 { fill: #c5c5c5 } 
		.s13 { fill: #a2a1a2 } 
		.s14 { fill: #2b2c29 } 
		.s15 { fill: #252523 } 
		.s16 { fill: #2f2f2d } 
		.s17 { fill: #282826 } 
		.s18 { fill: #dcdad5 } 
		.s19 { fill: #353533 } 
		.s20 { fill: #32322f } 
		.s21 { fill: #464542 } 
		.s22 { fill: #d5d1ce } 
		.s23 { fill: #cdc9c5 } 
		.s24 { fill: #383836 } 
		.s25 { fill: #3b3b39 } 
		.s26 { fill: #42413f } 
		.s27 { fill: #7f7e7f } 
		.s28 { fill: #c4c0bd } 
		.s29 { fill: #3f3e3c } 
		.s30 { fill: #787778 } 
		.s31 { fill: #d8d5d2 } 
		.s32 { fill: #c8c5c1 } 
		.s33 { fill: #717071 } 
		.s34 { fill: #74716c } 
		.s35 { fill: #504e4a } 
		.s36 { fill: #66635e } 
		.s37 { fill: #c0bcb8 } 
		.s38 { fill: #20211f } 
		.s39 { fill: #5f5c57 } 
		.s40 { fill: #918e89 } 
		.s41 { fill: #494945 } 
		.s42 { fill: #d0cdcb } 
		.s43 { fill: #e2e2e2 } 
		.s44 { fill: #817f7b } 
		.s45 { fill: #9d9d9d } 
		.s46 { fill: #939293 } 
		.s47 { fill: #9a999a } 
		.s48 { fill: #4b4b49 } 
		.s49 { fill: #979697 } 
		.s50 { fill: #7a7774 } 
		.s51 { fill: #6e6c6a } 
		.s52 { fill: #bbb7b4 } 
		.s53 { fill: #8c8b8c } 
		.s54 { fill: #afadab } 
		.s55 { fill: #6a6865 } 
		.s56 { fill: #848385 } 
		.s57 { fill: #8f8e90 } 
		.s58 { fill: #888788 } 
		.s59 { fill: #b5b2b0 } 
		.s60 { fill: #878582 } 
		.s61 { fill: #616061 } 
		.s62 { fill: #aaa8a5 } 
		.s63 { fill: #979592 } 
		.s64 { fill: #5a5959 } 
		.s65 { fill: #d3cec8 } 
		.s66 { fill: #54534f } 
		.s67 { fill: #5d5c5d } 
		.s68 { fill: #a4a29f } 
		.s69 { fill: #575655 } 
		.s70 { fill: #9e9c99 } 
		.s71 { fill: #525154 } 
		.s72 { fill: #656365 } 
		.s73 { fill: #69686b } 
		.s74 { fill: #4d4c4f } 
		.s75 { fill: #595650 } 
		.s76 { fill: #1c1c1b } 
		.s77 { fill: #6f6b63 } 
		.s78 { fill: #464548 } 
		.s79 { fill: #8c8981 } 
		.s80 { fill: #7e7a72 } 
		.s81 { fill: #bfb7b0 } 
		.s82 { fill: #b9b3ab } 
		.s83 { fill: #858178 } 
		.s84 { fill: #171716 } 
		.s85 { fill: #b4ada6 } 
		.s86 { fill: #a39c94 } 
		.s87 { fill: #a9a29a } 
		.s88 { fill: #9b958c } 
		.s89 { fill: #aea8a0 } 
		.s90 { fill: #e1e0d9 } 
	</style>
	<g id="Background">
		<path id="Path 3" class="s0" d="m165 498v-5h4l6 1 2 14h-1l-8-4zm391 12l14-2 4-10h6 12l12 12-1 7-5 5v13l10 5 4 8h-25l-9 7v11l-12 4-2-5-16 1-2-4v-5l4-3v-11l5-7v-4l-7-7v-9l1-4zm107 3l-10 1-3-14h6 6zm89-11l6-1h10l6 6 8 2v11 6l-3 3-19-5v-9l-7-4zm92 27v-11h6l4 2-2 10zm-348 11l14-2 2 22h-7l-3-3zm-169 36l2-12h27l14 6 1 7 9 7v4l-14 2v-4l-10-7-11-1-4 5-12-5z"/>
		<path id="Path 4" class="s1" d="m556 500l2-4h8l8 2-4 10-14 2zm56 8v-10h10l4 2-3 7zm-507-5l1-1h4v4h-4zm757 9l6-2 2 1 2 10-1 9h-2l-7-7zm-64 12l2-13 14 1v15l-4 4-10-2zm-266-8l10-1 6 1v9l-18 5v-8zm-372 5v-5h13l1 10-7 1-1 7 1 4 10 3 1 15-10-4-4-7v-6l-7-5v-3l3-1zm-32 29v-10h11l3 11-10 1zm360-6l2-4h6l6 17 3 3h7 6l3 4 25-2 2 4 16-1 2 5-4 6v8l-6 3v12l-11 2-3-9h-10v-4l-9-6-12-10h-15v-9l-6-5zm90 22v-11l9-7h25l10 2 2 7-2 15v4h-15l-8 4h-5l-2-7zm-262 6l2-10 11 2-2 12-7-1zm64 16v-4l-9-7-1-7 26 10 4 10-9 1z"/>
		<path id="Path 5" class="s2" d="m380 378l8-2h10l-12 2zm-136 90v-4l7-1 2 3 3-3 2 6 2 3 2 2 1 22 9 7v7h-6l-14-5v-16l2-7-3-12zm231-1l2-4 5 2 4 13 26 7 1 11 12 9 1 9-4 3v5l-14 2-2-23-7-9h-5l-3-6-16-11zm-255 0v-1l3 1 5 6 2 21-3 4h-3l-4-11 3-7-4-4zm154 3l4-3 4 8 2 9-2 2-6-1zm239 2l3-3 4 1 6-1 4 7-2 10-6 4-10-5zm111 17l5-2 3 6 9-2 7 2v7l-21 2-9-1v-7h4zm70 1h7l-1 6-7-2zm-26 3l13-1-1 7 5 3 1 6-4 1-8-2-6-6zm-395 11l-8-2-1-5h5zm-217 2v-4h2l1 6h-2zm764 2l-1-3 9 1v2zm-608 17l8-7h3l4 7 6 3 1 6v10h-10l-12-11zm-28 7v-2l12 3-2 17h-5l-5-4zm77 22v-4l-11-9-1-7h8l7 2 1 6 7 8-5 4zm-169-6v-10h11v2l-7 11zm218 8v-10l17 3 1 7h-5zm-171 2l5-7 12 2v13h-2l-8-1-8-1h-5l5-2zm-21 4l8-1 4 3-7 2h-5l-8-2 2-2zm374 56l-1-2h11l-2 4h-5z"/>
		<path id="Path 6" class="s3" d="m394 464l3-1 3 4v5l6 7-3 9-6 1-6-13zm-56 4l2-2h6l4 14 5 5h9v12l1 5 8 2h4l5-9 8 7 2 14-12 11-16 1-2-3-6-21-18-23zm-46 10v-8l17 8 9 14-3 3h-6l-11-8zm242-3l4-5 15 8v8l5 10-2 4-14-2-4-5zm94 11l2-10h4l2 10zm26 4l1-8h2 3l4 18h-2-6zm-45-2l3-3 10 5v8h-10zm66 2l7-1 1 3h5l9-4 12 1 2 5-1 7h-23l-13-1zm167 20l8-9 2 1v8l-2 8h-6zm-669 6l3-8h1 13v6 12h-16zm699 5l3-3h5v3l7 3-4 5 8 4-6 1-3-3h-4l1 2-1 1-7-4zm-559 29l-11-13v-12l6-2 4 2v8l12 11v4zm21-6v-10h15l1 7 11 9v4l-17-1-2-7zm-223 7v-3l6-1 4 3-1 4h-2zm316-2v-1l16 4 5 8v9l-5 2-15-15zm-341 7v-5l7 3-1 2zm76 0l1-4h5l10 4 7 14-3 4 2 4-9 2-5-6v-6l-8-4zm-9 14l-1-6h8v10z"/>
		<path id="Path 7" fill-rule="evenodd" class="s4" d="m626 500l9-2 8 2 3 15 22 4 16 10v17l-9 3-7-1-3-12-3-2-9 2-1 20-14 5h-8l-6-4-2-7-10-2-4-8-10-5v-13l5-5 1-7 8-2 11-1zm37 13l-1-13h10l-2 10zm-574-3l5-2v11l-2 2-4-2-8-7 6-2zm693-1l4-1 14 3-2 13h-11l-1-4h-4zm-252 21l18-5 7 7v4l-5 7v11l-4 3v5l-25 2-3-4h-6l-2-22 7-6zm180 3l1-7h6l2 5-3 3zm-369 50l4-5 11 1 10 7v4l-17 3v-2l-6-5z"/>
		<path id="Path 8" class="s5" d="m523 456l4-3v6l5 5h6v6l-4 5-12-3v-13zm-241 10l4-6 6 3v5zm146-3l7-1 3 5 8 14 5 24 6 9 17-3 3-3v-12h13l4-4h5l7 9 2 23-12 9v7h-6l-2 4h-14l-8-4h-11l-3 4v16h-4l-5-8-16-4-3-3v-14l-4-5v-17l4-5 12-6-2-10-6-2 2-7v-5l-3-1zm-158 7l3-6 7 4 1 6-5 1-1-4zm318 0l8-1 6 6v9l-8 2-5-5zm-336 19l-4-1v-6h6zm-146 2l8-1 5 5-3 5-6 2h-4zm675 1v-2h7l5 4 7 2v3h10v7l12 1 2 3v2h-10l-14-1-14-3-1-6-5-3zm-33 8v-7l10 1v7l-6 1zm112 2v-2l8 4v6l-6 2-2-2zm-496 26l16-1 12-11h8l3 14 7 8v8 10l-1 8-17-2-7-9-13-3-7-8-1-6zm457-1l4-3 4 6-7 2zm-644 14l15-3v10l-8 5v3h10l1 3-7 11h-3l-7-14z"/>
		<path id="Path 9" class="s6" d="m594 486l8-2 7 4 3 10v10l-8 2-12-12zm116 15l1-7h7v7zm-440 35l-18-12v-19l14 5 3 18 4 4zm580-18l2-8h8l2 2v11l7 7-1 4-16-4 2-10zm-342 6l14-2h8v8l-13 2-7 6-14 2v-7zm-30 42l-4-22h14l2 14 6 5v9h-6zm-165-16l11-2 20 5 17 1h6l2 5 11 6 11 1 8 10 11 2 2 16-12-4-4-10-26-10-14-6h-27l-11-2-2 10h-10l-18-4-3-1-1-10 5-7h5l15 3z"/>
		<path id="Path 10" class="s7" d="m346 463h3v-4l3 1v4l4 2 8 14v5h-9l-5-5-4-14zm-66 5l2-2 10 2v2 8h-8l-3-4zm-18 4l8-2 5 1 1 4 2 15 15 12 1 8 3 2-1 6-12-1-4-7h-8v-7l-9-7-1-22zm380 14l-2-12 14 2 1 6-1 8h-6zm-84 10l-5-10v-8h1l12 10v8zm-442 4l3-5h11l6 6v3 18l2 6-2 4h-6l-7-8h-7v-4l2-3-2-11zm777 8l-3-4h7v4zm-69 2l9 1 1-3 8 2 2 8v11l-4 1-3-1v3h-1l-7-2-4-6-1-12zm-554 26l3-4h11v14l5 4-5 7 1 10-1 1h-8l-16-2h-4v-13l14-8zm630 16l-8-5v-5l8-1 1 3-1 5 3 3zm-476 33l4-15-5-14h5l15 15 5-2v-9h4l2 23 4 11-21 6-7-2h-6zm-264-11v-10h2l8 4v6h-6z"/>
		<path id="Path 11" class="s8" d="m326 470l5-4 7 2v13l18 23 6 21-5 3v6h-8-15l-1-6-6-3-4-7 3-19-2-7zm194 15l2-13 12 3 4 18 4 5v17l-10 1-6-2-1-9 5-3v-6zm114-9l4-2h2l2 12h-6zm-529 5h7l3 1-1 8-8 1zm543 19v-10h6l2 10h-6zm-540 19l-2-13h4 6l2 11-2 3zm762-8l6-1-1 8-3 3zm-546 37v-4h10l8 2 2 7zm-130 8h-10v-3l8-5 4 3v1zm173-2l5-4 13 3 7 9-1 4-11-1-11-6zm301 2l7-1 13 1 1 15 3 4-6 4-2-3h-6l-14-3-6-11v-4zm-259 8l1-8h13l5 14-4 15-6-4-1-14z"/>
		<path id="Path 12" class="s9" d="m158 502l1-4h6l3 6 8 4-3 8h-13l-1-8zm-48 0l6-2v6h-6zm32 2l2-4h4l2 5 6 1 1 2 1 13-1 10v3h-11l-2-9v-3l7-4 1-4-4-1zm542 38v-13l-16-10-22-4-3-15h5 2l3 14 10-1 7-3 2-10h2l13 1-2 8 12 7h23l7-9v-5l21-2 4 2 1 9 7 4v9l-27 4-4 5h-3l-7-2-2-5h-6l-1 7-12 6-8 3zm-584-38l5-1 1 3 2 13h-14v-11-1zm4 29l12-9h7l7 8-4 6 2 2v10h-7l-4-3-6-6z"/>
		<path id="Path 13" class="s10" d="m402 376l6-1v1zm154 90l4-7h3l1 3h11l7 2 1 5 5 1 1 11 5 5-2 12h-12l-4-10h-10l-12-10zm-90 21v-21l9 1v8l16 11 3 6-4 4h-13zm-238-14v-6l12 1 2 3 6 11v6l4 1v16 19l18 12v9l-14 8-12-2-5-7 4-8-2-6-5-3-2-17-7-12 3-4zm154 2l9 1 6 13 3 27h-8l-2-14-8-7v-9l2-2zm143 30l-12-9-1-11h2 6l10 11v6zm-335 21v-12l13 3v21h-11zm-38 31l10-1v8h-2-8zm-31 18l11-1-7 6-15 1-8-1v-2l8-2zm35 17l1-6h4l4 3v6 4l-9-1z"/>
		<path id="Path 14" class="s11" d="m622 490l6-4h8 6l6 4v10h-5l-8-2-9 2-4-2zm-56 6v-8h10l4 10h-6zm-251-1l3-3h6l2 7-3 19h-3zm-42 37l-4-4-3-18h6 8l4 7v13 2zm-195-7l-2-9 10 8 6 11-2 4-7-13zm60 3l6-3 2 9h11l7 5v6l-1 7-1 4-10 1-6-1-4-5-3-11-3-8zm253 38l1-4 17 2 1 14-11-2zm83 24v-21l4-3 12 6-4 18z"/>
		<path id="Path 15" class="s12" d="m276 475l5-1 3 4h8l6 9 11 8h6l5 23-8 7-4-2-6 2v12l11 13-4 3-15-3 2-17-12-3v-13l12 1 1-6-3-2-1-8-15-12zm-124 5l2-3h5l1 5-2 9 7 2v5h-6l-1 4h-2l-2-4-2-14zm390 35v-17l14 2v10l-7 2-1 4zm272 12v-15h10l1 12-4 3zm-292-5v-5l4-3 6 2-2 6zm278 15v-8l10 2v5zm-348 23v-16l3-4h11l8 4 4 22-4 3v21l-2 4h-14l-4-11zm-42 18l-1-14 8 3 1 14 6 4v13h-8l-4-4z"/>
		<path id="Path 16" class="s13" d="m438 467l3-10 5 1 3 5h5l4 21 8 3 11 9v12l-3 3-17 3-6-9-5-24zm100-3l4-4h6l2 4 5-1 1 3-2 12h-1l-15-8zm58 5v-5h5l7 6 4-2 1 4-1 13-3 3-7-4v-9zm279 13l4-8 9 1 1 1v1l-3 5-5 3h-6zm-478 7l6-1 6 5 8 1 7 10-4 5v17l4 5v14l3 3v1l-17-3v-8l-7-8-3-14zm361 5l1-4 6 2 3-2v3 8h-10zm158 4l2-1 4 1v3h-6zm-739 43l-10-3-1-4 1-7 7-1h16l2 12zm-49-1l-2-2 4-6h6l3 8zm75 19l6-14h2v4l7 4v9h-6l-6-2z"/>
		<path id="Path 17" class="s14" d="m466 364l7-2 4 10-1 4h-2-8zm-48 10l12-1 2 9h10l4 22v2h-4v-4l-7-8-9-1v-7l-8-5zm504 12l8-5 2 19h-6v-9zm-35 26l13-10 8 13 1 11-5 6-3-4-7-1v-8zm-291-6l2-2 12 2v6l-7 4-6-1zm334 14l-4-12h6l4 6v6zm-192 10v-6l7 2v6h-7zm-75 11l-1-9h14l2 5-2 5-9 4 1-5-3 2zm-503 12v-5h8 6l3 2v6l-5 2v9l-6-1-1-8zm-56 5l12-1v7l-2 9-2 3h-4v-10l-7-4v-3zm704 12v-10h6v10zm126 104l2-12h12l4 5v7l-6 1v8l10 2 2 6 6 4-3 8-10-2-6-2-5-3-3-18zm-370 37l4-1h3l2 2-2 2 7 2 1 6-1 2h-2-12zm-44 7l10-1v7l-9-1h-1z"/>
		<path id="Path 18" class="s15" d="m435 372l11-2-4 12h-10l-2-9h2zm495 9l22-9 4 3 1 10 6 1 1 5v3l-4 1-2 5-2 9-5 7-4 1-3-3h-8l-4-6v-8zm-357 27l9-2h14l1 9 6 1 7-4h4l6 12v7l-4 2-4-3-8 2-7-8-7 6-2-5-6 5h-4l-4-7 2-12zm305 11l9-7 7 7v8l-7 6-2 1zm-710 29v-4h4l2 4zm-74 16l7-2 7 4v10l-5 3h-9zm129 102l7-2h3 5v10h-5l-10-2zm733 19l-10-2v-8l6-1 4 3zm-636 19l-4-6 2-21h2l4 5 4 20zm222 8l15-2h7v1 13h-4-14-4z"/>
		<path id="Path 19" class="s16" d="m479 359l7-1v12l-3 2h-6l-4-10zm-71 16l10-1v7l8 5v7l-1 3-8-1-6-6-3-13zm49 30l-1-22 5-7h5 8v10 8l-1 9 3 6-2 4-6-3v-5l-5 1zm59 13l-10-12-2-21 8 1 10 2 18 6v9l5 6 1 7-8 5-2 6-9-3-5-6zm410-10v-8h6v8zm4 18v-6h6l7 2v6l-1 6h-1-11zm-128 45v-12h3 3v1 10l-1 5zm-686-7l15-2 6 7-1 7h-3l-6-3h-13zm820 98l-3-3-1-21 8 1 5 8h4l1 1 1 1 1 1 3 15 6 4 3 13 3 1 4 5 1 4 2 8v8h-9l-4-5 3-8-6-4-2-6v-8l-4-3v-7l-4-5zm-632 14l2-2 12 3-2 21 4 6-14 3v-9l2-8-4-1zm275 46l-1-6h2l2 1v5zm-15 14l-4-12h4 12v12z"/>
		<path id="Path 20" class="s17" d="m446 370l20-6v12h-5l-5 7 1 22-1 2h-3l-1-4-6 1-4-22zm506 2l8-2h7l1 8-2 4-3 4-6-1-1-10zm-383 52l-3-8 1-10 6 2 3 3-2 12zm367-4v-6h8l3 3-4 5zm-808 32l15-5h4l5 7v13l-15 2-6-7-15 2v-7l3-2 7 1zm-43 35v-3h5 4v3l-4 4zm746 57v-5h5l2 3v4l-5-1zm-300 72l9-4h2v12h-6-6v-7zm-30 2l4-2h6l7 2h2v5h-5l-11 2z"/>
		<path id="Path 21" class="s18" d="m366 590l14-2 11 3v5l13 9 8 11v12l-30 2-2-6h-11l-1 5-22-1-3-11-6 1-1 10-56-5-22-5v-12l4-2 11 2 15 2 11-1h7l14-3 8-2h2l4-1h5l10-8zm-144 22l2-8 10 1 2 9z"/>
		<path id="Path 22" class="s19" d="m512 386v-6h10v8zm-20 1v-3h10l2 1 2 21 10 12-2 6h-4l-1-3h-9l-8-20zm122 25v-5l49 12-1 13 1 9-7 5-6-2-9-8-9 11-5-7v-6l-7-3v-7zm295 14l-1-11h10l6 6v5l-2 6-6-2-1-5zm-360 5l-3-1 1-5-4-1 5-5 4 2zm174-5l5-1v5 6h-8l-2-6zm-25 20v-5l-6-6 2-8 8 2 4 6v8l-4 7zm230-3l2-9h11l-5 8zm-808 7l6-1 2 3-2 4-7-1zm664 22l-1-4-10-7v-7l13 2 3 1h3l2 17-6 1zm134 4l14-2 3 1 1 6-2 3h-6-10l-1-5zm0 15l4-1h6l-1 7-5 1-4-1zm-9 24l3-1h5v1zm-884 21l11-1v5l8 7v7 2h-6l-5-2-2-4-9-4v-7zm35 8v-6h6 8l5 6-6 3 3 4-2 2-10-2zm178 30v-10l8 1v9h-2zm61 33l-1-9h8v9zm277 29v-12h2l7 5 1 6-4 1z"/>
		<path id="Path 23" class="s20" d="m900 402l22-16 4 5v9 8l4 12v6h-6v-5l-6-6h-10zm-475-6l1-3 9 1 7 8v4 8l-3 1-3-9h-6l-5-5zm185 16v-6l4 1v5zm184 62l-2-17 8 1 2 1v12l-2 4 2 3zm107 110l-2-3h5l7 5-3 2z"/>
		<path id="Path 24" class="s21" d="m525 351l6-1 6 5-3 2v9h-6l-5-15zm-189 31l30-3v8l12 12v7l6 4v4l-1 4 5-1 2 7-6 10-6-1-5-1-4-8-6 1 2 7-4-2-9 2-4-11-15-7-3-10-5-3-2-17zm392 54v-6h10v2l-2 6zm-572 6v-8l8 4v4h-4zm672 28v-6l10 1 2 11h-6zm-787 21l3-16 8-2 6 2v11 5l3 9 5-2 8 2 1 3-1 2-5 1 6 4 5 2 8 7-2 5-10-8-8-7h-4l-1 7 3 5h-2l-10-9zm838 42l-1-2h4l3 3-1 1zm-31 18l-1-3h3l11 4 6 4 22 16 3 3-2 2zm-135 13l4-3 3 7-7-1zm-459 10v-8h2 4l-1 8z"/>
		<path id="Path 25" class="s22" d="m790 538v-14h8l2 5v8zm-565 12l5-6h4v12l5 2-1 4-5 2h-3l-4-3zm443 6v-8l7 1v6zm-444 34l3-1 13 8 11 2 1 5 6 2v12l-22-4-2-9-10-1zm204 38v-10l-12-14v-6h8 6l2 6 3 8h8l11-8 19-1 6 7v6l-3 9zm150-12l-7-2 2-2h4 2l2 3-1 1zm-210 13l1-5h11l2 6z"/>
		<path id="Path 26" class="s23" d="m782 526l5-2h3v14l-4 1h-4l-3-10zm-571 19l3-13h3l-1 4v12l9 2 1 11-8 1v-9l-7-4zm464 4l9-3 6 2-2 8-13-1zm-81 37v-6h5v5zm-70 8l-1-12 9 6v4 2zm32 5v-12l6-3 22 2v14l-2 4h-8l-2-2-5 2h-3zm-84-5l2-4h12l14 6v15l-2 7h-6l-13-2v-6l-6-7zm-271 13l3-15h8l-2 17zm231-3l-2-6 7 2-1 4zm-174 2l-6-2-1-5h7l4 5z"/>
		<path id="Path 27" class="s24" d="m527 376l1-10h6l10 2 3 2-3 5 14 7 1 3h-8l4 5-5 5h6l1 5h5l5 6-1 10 3 8-1 7h-5l-7-11-4 1-4-2-2-3-1-7-5-6v-9l-18-6v-8l1-2zm440-6l5-1h3v4l-5 5h-2zm-493 24v-8h12l6 1v14l8 20-2 2h-5v-5l-4-4h-7l-2-5 1-12zm202 38l5-8 13 3-2 8 6 6v5l-4 4h-8l-9-4-1-4 2-5zm-524 22l8-1 5 5 1 8-2 4-10 2-2-5zm22 15l8-1v5l5 5-1 2-8-2v-5zm-126 85l6-10h6l4 7-2 9h-6l-8-2zm250 36l6-1 4 1-2 8h-8zm676 18v-8h5l3 6z"/>
		<path id="Path 28" fill-rule="evenodd" class="s25" d="m514 352l3-1h6l5 15-1 10h-4l-7-7-10 1v-8l-4-7v-1zm20 14v-9l3-2 3 1 4 12zm-148 12l12-2h10l3 13 6 6 8 1v5l5 5v9h-12l-6 5-6-1v-6l-4-1-3-8-9 1-8-7v-13zm276 54l1-13 18 5-5 8zm260 0l2-6h6v8l-2 9-3 1-4-7zm-154 43l-12-14 1-11 16 4v7l10 7 1 4v7l-6-2-1 6zm140 19l10-3v6l-2 1-8-1zm-864 60v-7l-8-7v-5l18 4v5l-6 10zm870-13l10 1 2-4h6l1 21 3 3-2 12-4-1 2-12-8-4 1-7zm-24 18l-5-5h3zm-644 6l8 1v8h-8zm678 21l6-8h7l3 18h-4zm-342 36v-5l10 1 3 2-3 1-7 1z"/>
		<path id="Path 29" class="s26" d="m486 358l10-3h3 3l4 7v8l-2 1h-8l-10-1zm-117 21l3-1h8 6l-4 7v13l8 7v5l-2 4h-4v-4l-6-4v-7l-12-12v-8zm-53 6l7-1 2 17 5 3 3 10-3 3-4 1-2-3v-9l-8-12zm170 1v-2h6v3zm-10 23l-3-6 1-9 7 3-1 12zm106-3v-6l16 4-2 2zm-194 11v-1h6 5l3 9-2 3h-7l-3-4zm536 30l12-1 2 1-4 4 2 8-4 1h-7zm-54 8l1-5 4-2 4 6-2 2zm-733 14l15-2 2 5-2 4 2 1-2 3-4 2-4 1v-4l-3 1h-5v-4zm-79 22v-5l5 1v4zm844 7v-4h6v3l-1 1zm-828 7l1-2 5 2 3-2h4l2 7h-3l-11-3zm744 33v-3h1l10 1 2 3v5zm-764 1l6-1v6h-6zm784 7v-4l3 4zm40 4v-2h3l2 2v2zm-152 2l6-1 4 21-16-4-3-7zm-682 4v-2h4v4h-4zm254 34l-4-4v-12l10 2v13zm419 2l1-2-4-1 1-5 6-2 4 1 2 5-1 5 2 5h-4-7zm-173 40l2-8h14l4 12-8-1z"/>
		<path id="Path 30" fill-rule="evenodd" class="s27" d="m537 453l5-2v4l-4 1zm59 7l1-4 10 3 5 7v2l-4 2-7-6h-5zm-21-1l6-1 1 6-7-2zm339 3l11-2h7v14l-14 2-1-4 1-3-5-6zm-652 12l-2-2h2zm477 4h14l6 12-1 4-10-1-7-2-3-10zm91 12l10-2h10v13l-8 9-8-2zm-752 40v-5l5 1 7 13 2-4 3 2 1 13v4h-3l-7-3v-7zm128 33v-3l6 2-2 2zm490 20l1-6 5 1v6h-4z"/>
		<path id="Path 31" class="s28" d="m678 586v-10h6l2 3-1 4-5 3zm-462-2l1-1 5 3v4h-6zm-38 6l9-6h8l9 1v7l-3 15-23-5v-10z"/>
		<path id="Path 32" class="s29" d="m390 405l9-1 3 8-3 4h-5l-4-6zm66 2l1-2 6 1-2 4h-5zm289 25v-6l8 9v9l-7-3zm-39 11v-8l-4-6 16 1 2 6h8l8 2 8 10v10l-8 3-10-12-12-6zm194 98v-3h3l1 4zm-38 9l1-4-6-2 4-5h4l6 7v1l-2 2zm18-5l-1-3 4 3-1 1zm-119 13l-1-8h6l1 3zm-575 20l2-3h3l-1 3-1 2-2 3z"/>
		<path id="Path 33" class="s30" d="m290 426l9-1 3 7-12-4zm-58 18l6-3 4 5v5l-12 1-1-7zm-20 10v-6l5 8h3v10 1l-7 1-4-5 4-4zm330-3l1-3h5l15 6v5h-3l-4 7-1-3-5 1-2-4h-6v-5zm347 1l3-2 2 2v2h-4zm-703 8l-3-4h4l2 4zm690 10l3-6h3l4 2-1 4h4l-1 5-9-1zm-264-4h8v4l-4-1-3 3-1-4zm189 24l1-3 13 1 2 4 9-4 4 2 4 18-1 3-9-1-2-3-12-1v-7h-10v-3zm49 11v-13h4l6 12v2h-8zm76 37l-2-14 8 2v12zm-89-6v-3l3 1v2zm-22 5l3-2v3zm-741 16l2-2-3-4 6-3h7v7 5h-6l-5 5h-2zm803-2l1-1 5 2 2 2 5 5 6 1 8 8-2 6 2 7h-5l2 3-11-7 2-2-3-3-22-16 1-3zm-756 24l-3-21h2l10 6 1 7 7 1 11 1 1 3v4h-6l-12-2zm81-9l4-3 4 1 8 2-4 2 3 4v1h-7l-8-1zm-38 16v-8h6l5 6 9-2h2l1 5v1l-9 6-3-8zm156-5v-2l7 1 2 2v3l-5 1zm-238 3l4-2 4 2v3zm423 34l6 1v1h-6z"/>
		<path id="Path 34" class="s31" d="m782 526v-6h4l1 4zm-130 30l1-20 9-2 3 2 3 12v8l-10 2zm-261 35l9-1 12 4 4 4v6l12 14v10h-1-15v-12l-8-11-13-9z"/>
		<path id="Path 35" class="s32" d="m684 546v-4h6v6zm-54 24v-9h8l-1 9zm-31 10l8-4h15l-5 15-11 1-12 9-10-1v-14h10l5-1zm-377 10v-4l5 1v2l-3 1zm302 16v-12h8l6 7v6l-12 1z"/>
		<path id="Path 36" class="s33" d="m558 382l-14-7 3-5 9 3 2 8zm-206 50l9-2 4 2-2-7 6-1 4 8 5 1v15l3 3-5 9h-3l-3-6h-5l-2-10-11-5zm-110 14l1-3 4 2 3-2 2 3h12l6 4v8h-7l-5 11-2-6-3 3-2-3-7 1v4l-2 3-2-3-12-1-2-3-3 3-3-1v-10l4-4h6l12-1zm-40 10l2-5 8 3 1 5-4 4-4 1-3-3zm551 22v-8h3l9 7 3-2 9 8 4 7v2l-13 1v-3l-3 2-6-2zm-34-4v-3h6l8 10-4 6-5 2-1-5-4-1zm199 13v-3h10v6h-6v-3zm-852 11l-5 2-3-9h5l3 4zm143 10v-5l-8-11h3l14 11 2 10h-4-2l-2 1zm-52 0h2l1 8v5h-2zm763 6v-6h8v4l-6 2zm-98 18l7-2 7 2v7h-5l-2-3-10-1zm82 49l-2-7 2-6h3 7v9l10 9 12 10-2 5-26-13 3-2zm-202-3l11-2 6 2 2 4-6 2-1 5 4 1-1 2h-7v-6l-8-2zm241 26l2-5 6 2v6zm-403 8v-4h2l15 2-15 2z"/>
		<path id="Path 37" class="s34" d="m966 382l2-4h2l-3 4zm-662 50l9-12 5 4v4l6 6 8 2 8 4 12-1 11 5 2 10-5 4-8 2-3-1v4h-3l-1-5h-5l-9-2-13-2-1-4h-3v-5l-7-5zm136 8l-4-20h2l11 18h5l13 9v4l-3 1-16-6zm64 4v-4h4v4zm190 6l4-4 4 4 2 4 6 2 6 17 3 1v9h-6l-9-7v-10l-8-1-3-8zm183 6l2-2 4 2 3 7-4 1h-3zm-141 5l8-3 4 8-3 3-7-1zm-633 18l5-3h4v5h-7zm778 6l5-3h4l1 4h6l1 2v5l4 1v4l1 6h-6-7l-9-8zm-817 36h2l-3-5 1-7h4l8 7 2 9v5l-6 1-4-4zm772 18v-7h1 3l8 4 2 12h-3l1 3-15-6 5 1h3l-3-4zm67-1l3-2 8 5 11 9-1 7-9 5h-7l-1-5-7-1v-4h3l-3-3 1-5 3-2zm-31 7l-2-6 8 6v2zm-115 1l4-2h5l4 4-3 5-1-3h-6-3zm-503 34v-6h5l9 11 10 1 5 4 5 18-15-2-1-11zm-104 12l-4-2-2-14h6l2 7 5 3-1 6zm-40-11l15-1v3l-5 2-10-1zm408 33l9-2 4 4-1 1-10 1h-2z"/>
		<path id="Path 38" class="s35" d="m474 386v-10h2l6 3 4 5v2zm28-6l1-4 9 4v6l-8-1-2-1zm-257 21l14-4v5l11 8 6 16-3 7-6 3-5-9-7 1-10-13zm-25 7l11-3 2 12 9 6v7l7 5 1 3v5l-3 2-4-2-1 3-4-5-6 3-1-7-7-7v-15zm-34 11l11-4 7 13 8 7v13 6l-8-3-2-7h-6l-10-13zm383 5l5-1 4 7h4l-2 8h-4l-8-7zm318 9l7-6 7 1 3 4 7 6 10-1 4 7-1 3 1 13-11 2v-6l-12-6-2-7-8-1-1-7zm-41 32l14-1v5l6 3-2 9-6 2-12-9zm-112 85l12-1 11 1h3l1 8-9 10-7 6v4l-4 2-5-4v-4l-4-21zm-30 20l9-6v3l-2 4-6 1zm-11 16l3-3 2 1v6h-4z"/>
		<path id="Path 39" class="s36" d="m956 409l2-9 1 1zm-514 5l7 1 9 11h7l7 8v6l-5 7-13-9h-5l-11-18 1-5zm505 3l4-1-3 12h-5v-6zm-439 23l2-16h4v9l2 7 4 2v6l-12-2v-2zm82-10l7-6 7 8 8-2 4 3v4l6 6 10 5v12l-6 3v3h-6-8l-5-7-10-3-1-11-6-6zm-30 8v-6l3-1h5l8 7h4l1 8 7 4 1 4-1 4h-7l-6 1-7-6v-5zm126 12h8l-1 7-5-1zm209 6l8-2 4 10-4 3-9 2v-3l-6-2 3-2 4-1zm-28 4l3-5 7 1 2 8-3 6h-5zm-118 6l7-1v5h-3zm-59 135v-5h4v6z"/>
		<path id="Path 40" class="s37" d="m141 480l3-1v4l4-1 4 2 2 14-6 2h-4v-7-5l-4-3zm744 33l7-3 4 1v7l-11-3zm-156 20l4-5 27-4 19 5 3 10-11 2v5l-1 2-4-4h-5l-5-4-10 5-8-1v-6zm-39 9l8-3 4 31-2 3-3 2h-5l-3-4-1-15 2-8zm-53 28l5 2 9-8 7-2 6 11 14 3v10l-2 4-16 8-2-3h-6l-2 3-48 9-8 1v-7l12-9 11-1 5-15v-4l8-2zm-433 15v-5h6l6 4v6l-4 2h-8zm-39 10l13-3v10l-13-3z"/>
		<path id="Path 41" class="s38" d="m871 425l7-6 7 15-7 8zm-143 0l10-1v6h-10zm-581 22l9-5h4v6 5l-8 1zm669 11l9-4 3 10v6l-6 3-8-3v-10zm-737 11l11-5h4v15l-4 2-5-1h-6zm138 103l-3-4 4-2h5v6zm107 10l5-1 13 6 7 4v2l-10 8h-5l-4 1h-2z"/>
		<path id="Path 42" class="s39" d="m483 372l3-2 10 1v5l6 4v4h-10-6l-4-5zm1 62l-2-20h7l4 4v5h5l6 17v4h-6-3l-1-8zm-72-14l6-5h12l6 5 4 20-12 2-4-4-9-1-3-9zm102 4l2-6h6l5 6 9 3 12 13v8h-5l-1 3-5 2-6-2-4 2-4 3-2-1-1-7v-6l-4-2-2-7zm140 29l-4-3v-6l6 2 2 6zm248-2v-1l12 6v6l-1 1-6 1-4-10zm-202 122l2-3h2l1 2zm26 20l1-5h5l2 4z"/>
		<path id="Path 43" class="s40" d="m292 447v-1l20 7v7l-18-1zm606 41l5-2h9l6 1h4v3l-4 1-10 3h-6l-4-1zm-806 68l1-2h3l4 6h6l4 16-8 2-6-9h-4v-7zm97 24l2-1h4v5h-8v-1zm391 36l1-1 10 1 1 2-10-1zm-76 9l11-2v4l-11-1z"/>
		<path id="Path 45" class="s41" d="m476 376l1-4h6l-1 7zm-179 12l19-3v9l8 12v9l-6 9-5-4v-3l-11-9zm259 7l12-1 4 4 10 2v6l-9 2-6-2-5-6h-5zm-400 36l8-3 8 5v11h-4l-4-2v-4l-8-4zm580 7l2-6h7l1 9 7 3-1 4 5 2-1 11 12 14-3 2-9-7v-5l-7 1h-1l-4-8v-10zm149-4l2-1 4 2 1 7-2 3 2 5-3 2-6 4-4-2-4-6 3-6zm-759 11l16-7 1 9-15 5-2-3zm-85 46l-8-5v-6l7-8 12-4v5l-8 2zm899 48l1-5 5 2 3 11h-4zm-746 17l2-4-1 7zm702 4l2-2 9 7v3h-3z"/>
		<path id="Path 46" class="s42" d="m622 572l2-15 6 4v9zm-56-2l12-4 14 7 2 7v6h-10l-22-2v-8zm-80 20l4-18h6 15l12 10 1 12v12h-10l-6-9-8-1zm-274 2l4-2h6 2v14l-2 8h-6l-6-3z"/>
		<path id="Path 47" class="s43" d="m148 500l6-2 2 4v4l-6-1zm579 2v5l-7 9h-23l-12-7 2-8h23 8zm-635 19l2-2h14l8 1v4l-12 9h-5z"/>
		<path id="Path 48" class="s44" d="m284 432l1-5 5 1 12 4h2l3 8 7 5v5l-2 3-20-7zm215 25l-1-13h6 4v2 12zm-51-1v-10l16 6-1 10h-7l-2-4zm-261 22l-5-5v-5h7l3 13zm22 63l4-18 9 2v11h-6l1-4h-3l-3 13h-2zm673 5l1-1 3 2v3h-3l-2-2zm-776 14v-5l5-4 7 3 3 21-11 1zm78 18l-2-4 3-4h3v5l-2 3zm60 1v-5h2 8v6zm327 31l3-2 3 4h-4z"/>
		<path id="Path 49" class="s45" d="m258 469l5-11h7l3 6-3 6-8 2h-2zm196-6l2-1h7l3 4v21l-8-3zm203 9l5-1 1 3 9 2-1 8-11-2h-3zm-582 38l-6-4 5-1 1 2zm-4 64l4-11 7 1v5l4 3v6l-4 2z"/>
		<path id="Path 50" class="s46" d="m376 460l5-9h6l7 13-3 12-9-1-4-8zm-153 7l3-3 2 3v6zm-87 34l2-9 6 1v7l-2 4h-6zm2 27l-2-6h8v3zm-18 26l1-4h7l4 2v6l6 4v6l-7-1-1-7zm164 14l1-1 3 1v2zm402 11l6-4h5v2l-1 6-3 3h-7l-1-3zm-108 45l1-2h3 3v3l7 3-1 7-9 1 4-1-1-6z"/>
		<path id="Path 51" class="s47" d="m499 355l3-1v1zm121 115v-4h6v3zm250 13l5-1v3l-3 3zm-453 11l1-8h10l6 2 2 10-12 6zm484 50l-1-3 4 1zm-662 14l-5-2v-12h5l5 7zm-183 9v-7h6l11 1h2v2l-4 11z"/>
		<path id="Path 52" class="s48" d="m259 397l38-9 5 20 11 9v3l-9 12h-2l-3-7-9 1h-2l2-5-7 4-7 1-6-16-11-8zm-28 8l14-4v14l10 13 1 6-5 2-2-1-7-5v-7l-9-6zm211 9v-8h4l10 4h5l4 16h-7l-9-11zm-278 14l22-9v12l10 13v12 4l-3 2-4-2-2-4h-4-6v-6l-3-2-2-4v-11zm-22 10l14-7v3 8l-9 5h-4zm-90 30l10-3 5 9 1 20-2 1-3-4v-4l-5-1v-11l-6-2zm755 7l1-5h6l8 3v9h-5zm85 35l1-2h4l-1 3zm-194 80v-6h4l8 2v6h7v6l-2 2-10 1-1-6z"/>
		<path id="Path 53" class="s49" d="m527 453l4-2 6 2 1 3 4-1v5l-4 4h-6l-5-5zm-7 6l1-4 2 1-1 3zm-278 12l2-3 7 2 3 12h-6zm467 18l4-6h6l4 1 1 5-2 5h-4-7zm-607 52l-3-8h5l7 8zm240 46l1-1 6 5z"/>
		<path id="Path 54" class="s50" d="m276 426l7-1 2 2-1 5-2 9 4 8v3h-9l-3-5 4-10-5-4zm-21 2l7-1 5 9-7 1-4-3zm212 19l5-7v-6h6 6l10 2 1 8-7 8v6l-5 1-10-7h-5l-1-1zm-52 5v-15l9 1 4 4 12-2 8 6v10l-2 2-5-1-3 10-3-5-7 1zm248-11l2 2 3-2-1 5-5 7-4-1-2-6zm203 31l5-2h5l3 4-4 8-5 1-6-2zm-690 8l2-2 8 2 11 17-7-1-7-9-7 1zm-86 1l4-2h9l2 2 1 10v11l-1 1-5 1-6-17v-3h-4zm801 52l7-8h2l6 6v5l-3 2h-3v3l-8 1v5l8 5v4l-2 2-2 2-6-1-2-5-2-4v-3l2-2-3-3 1-1h3l-3-3-2-3 1-1zm-795 17l6-1v-8h9l6 6-6 1v3l-5 4v5h-6l-4-6z"/>
		<path id="Path 55" class="s51" d="m388 414l2-4 4 6h-6zm148 13l2-6 8-5 2 3-5 5 4 1-1 5 3 1 3 7h8l8 10v5l-5 1-15-6v-8zm-155 24l-3-3v-15l6 1 6 4v10l-3 3zm396 32l1-6 6 2 10 11-1 4-5-4h-7zm124 1l4-4h7v6h-9zm-827 16v-6h3l2 5 1-2 4 2-1 4-3 2-5-2zm829 20h5l1-5h8l1 6 4 1 2 2 2 14-2 4-10-1-8-5v-5l-6-6zm-865 39v-3h6v2zm869 6l1-3h7l-1 6h-7zm-619 5v-2l18 4v2l-2 2-10-2z"/>
		<path id="Path 56" class="s52" d="m907 464l6-1 5 6-1 3h-14v-5zm-197 69l6 1 3-3 7 2v19l-9 9-4 3-9 6h-2l-4-31zm-72 28l14-5 6 2v4l-7 2-9 8-5-2zm-439 4l4-6 3 1v3l-4 3zm301 46v-15l8 1 6 9v8l-3 1-6-1z"/>
		<path id="Path 57" class="s53" d="m250 438l-1-3 2 1zm152 16l13-2 13 11-1 10 3 1v5l-2 7h-10l-6-18-10-2zm161 0l5-1 7 6v3h-11l-1-3zm-203 4l5-4h5l3 6h3l2 7-4 3-10-5zm221 0h7l1-4 7 6v4 5l-8 1-5-1-1-5zm-135 0l2-2 6 2 2 4-2 1h-5zm236 18l14-2 8 2 9 7-4 6-12-1-9 4h-5l-1-3zm47 11l4-6h5l3 10-9 2zm143 1l3-3h6v11l9 8 3 4-1 2-7 3-7-3v-14l-6-4zm-10 62l7-1-1 4-1 3-6-4z"/>
		<path id="Path 58" class="s54" d="m483 459l5-1 11 2 14 16 1 9h-2l-26-7-4-13zm-191 4l2-4 18 1 6 5h5l3 5-2 22h-6l-9-14-17-8v-2zm372 37l-4-18 11 2 4 6-1 10h-2zm-488-12l7-1 7 9v12h-13l-2-14-6-1 1-5zm676 14h8v8h-8zm-720 50l10-1 4 5 6 1v7l1 6-3 2-1-3-11-1v-6l-6-4zm78 28v-7h7v10l-1 1zm-21 0l1-2 1 1zm393 24l2-4 10 1v7l-12 3z"/>
		<path id="Path 59" class="s55" d="m388 417l-5 1 1-4h4v2zm-4 17l6-10 3 4h7l2-3 2 3h8l3 9v15l-13 2-12-6v-10zm198-4l6-5 2 5v9l6 6 1 11-1 4-7-6-1-4-7-4-1-8zm50 17l9-11 9 8v6l4 3v6l8 5v7l-5 1-6-8-13-2-6-2v-12zm259 15l-3-4 2-4h4l1 2v5zm-195 12v-9l8 1v10zm29-3l1-3h7l6 10-1 3h-5zm160 71l-3-2 3-2 1 3z"/>
		<path id="Path 60" class="s56" d="m270 450l4-3 3 5h9v8l-4 6-2 2-7-4-3-6zm642 56l7-1 1 3v6h-3-5zm-236 84l2-4h2v3z"/>
		<path id="Path 61" class="s57" d="m189 468l-3-8h3l4 2 3-2 3 3 3-2 3 3 4-1 4 5 7-1-1 9 4 4-3 7 4 11h3l7 12 2 17 5 3 2 6-4 8h-5-4l-2-8h-6v-11l-9-2-1-9 2-1h2 4l-2-10-14-11-1-5h-6l-5-6zm211-1l2-1 10 2 6 18-1 8-8-1-6-5 3-9-6-7zm271 17l1-8h10v13l-7 1zm218-7v-1h4l9 1 3 1v2l-4 4-4 2h-6l-1-4zm-14 41l1-8h2l7 3v2l-5 3zm-569 54h10l4 3v2h-2l-12-3zm23 9v-3l12 5 2 3-1 1zm-168 5l-1-4h4 11l3 8v2l-13 3v-6zm519 0l5-3 1 3-1 4h-3l-2-1z"/>
		<path id="Path 62" class="s58" d="m283 425l7-4-2 5h2v2l-5-1zm645 18l8-1v4l-12 1 1-3zm-541 8l3-3 12 6v12l-2 1-3-4-3 1zm415 8l-2-1 5 1zm6 0l8-1-2 2h-6zm94 15l1-2h14l1 4-1 3-5 1h-7v-2l-3-2zm-44 9l6-2 6 2 2 5v4l6 4v14h-2l-6 1-2-1v-6l-8-4-6-12zm-733 97l7-6 12 2 2 14 4 2-2 4-18-4v-5l-5-4z"/>
		<path id="Path 63" class="s59" d="m902 477v-1l3 2zm-764 11l2-3 4 3v5l-6-1zm672 43l4-4h7l1 5-3 3h-1l-3 2-5-1zm-243 73l5-2 2 2v4l-3 2h-3z"/>
		<path id="Path 64" class="s60" d="m558 382v-1l4 5h4l-2 6 4 2-12 1h-6l5-5-4-5h8zm-70 76v-6l7-8h3l1 13v3zm20 0v-12l12 2 1 7-1 4zm-222-9l6-2 2 12-2 4-6-3v-8zm191 14l-9-11h5l10 7-1 6zm161 11v-12l13 2 6 8v10h-2l-1-6-14-2zm-112 134l12-1 2 1v4l-9 4-4-4zm-11 19v-4h5 1l-2 5z"/>
		<path id="Path 65" class="s61" d="m960 370l12-1-5 1zm-486 43l2-4h4l2 5 2 20h-6zm-156 11l6-9 2 3 4-1 2 19-8-2-6-6zm-51 12l6-3 5 4-4 10-4 3-6-4h-12l-2-3v-5l1-2 5-2 4 3zm400 10l9-4 1 4 9 4 2 6 5 1 3 8v9l-14 2h-10l-9-2-1-3v-7l-8-5v-6l4-1 4 1zm117 33v-7l4 3 6-1 8 4v9l-1 3h-7zm114 46l-2-7 7 2-3 5zm17 37l9-5 8 4-2 12 4 1 3 4h-7l-6 8-10-9v-9zm-239 28l4-1 2 1v11l-20-1-2-2zm-157 38l2-5 9 1h6v7z"/>
		<path id="Path 66" class="s62" d="m340 458h5l1 5v3h-6zm17 76v-6l5-3 2 3v8zm-194 18l1-7 4 7zm-62 33l9-1 10 1v5zm47 11l2-4h6v6zm366 18v-8h10l2 2 1 4-9 2z"/>
		<path id="Path 67" class="s63" d="m312 453l2-3h3l1 4 13 2v10l-5 4-3-5h-5l-6-5zm152-1l3-1 1 1 9 11-2 4-9-1-3-4zm162 14v-3l6-3 6 2v12l-4 2h-4l-4-7zm-541 16l-8 2 2-4h6zm80 11l-7-2 2-9 9 2 1 4-1 5zm742 5l1-1 8 1v3l-7 3 3 2v8l-3 1-1 5h-5l-7-2v-7l1-3v-4h6l4-1zm-771 24v-18h6l6 9 4 1-1 4-7 4zm704 8l4-1 8 1 16 4 2 5 2 6-1 1-6-7h-4l-4 5 6 2-1 4-1 2-11-4-2-12-8-4zm46 11l-1-3h1l3 3zm-811 20l5-5h6v6l-4 2-7-1zm-37-2l6-1h4l8 2v7zm526 51v-6h3l1 6-4 1zm-66 8l2-7 5 3v2l-4 2z"/>
		<path id="Path 68" class="s64" d="m463 406l5-1v5l6 3 4 21h-6l-7-8-4-16zm446 20l6-1 1 5 6 2-1 5-10 1-7-6zm3 54l5-1 1 5v3l-6-1zm-846 15l2-1h6v6l-8-2zm851 20v-1h3 2v8l-4-1zm-855 45l2-9 10 2-1 8zm88 12l3-2 7 4h4v8h-4l1 4h-4l-5-3-2-7zm535 18l1-4h7l1 4v6h-4z"/>
		<path id="Path 69" class="s65" d="m532 594v-2h10l3 9-3 7h-2l-2-1v-6zm-95 6l21-6h14l1 9-19 1-11 8h-8l-3-8h4z"/>
		<path id="Path 70" class="s66" d="m197 415l23-7 4 7v15l7 7 1 7-3 1 1 7h-6l-4 4h-3l-5-8v-13l-8-7zm505 35l4-7h8l12 6 10 12 2 7 7 1 3-3h1l4 4v8h-14l-6-10 1-4-8-7-4 6 4 1v4l-1 3h-6v3l-3-1-6-17-6-2zm-599 2l17-5v3l-1 5-3 2-12 1zm-13 4l10-3 1 6v3l-7 2h-4zm770 8l7-4 4 10-5 2-6-3zm-22 1l2-1 6 1v9l12 9-4 5h-4-10v-12zm-637 27l-4-5h6l1 5zm75 76h8l4 2 6 4v12l4 4v8l1 9-11 1-5-18-5-4zm443 10l1-10 16 4v4l5 4-2 5-7 3h-5l-2-5-4-1zm-25 18v-6h4l6 5 1 6-11 1zm280 4l-2-8 7 8z"/>
		<path id="Path 71" class="s67" d="m399 416l3-4 4 1v6l6 1v8h-8l-2-3zm99 7l2-2h9l1 3-2 16h-4zm-302 37v-4h6v5l-3 2zm701 26l4-2 2 2-5 2zm-215 115v-11h3l5 6v5zm269 6v-6l10 2 4 5h-5z"/>
		<path id="Path 72" class="s68" d="m331 466v-10l9 2v8l-2 2zm168-6v-3l9 1 12 1h2v13l-2 13h-6l-1-9zm-147 0l8-2 4 7 10 5 2 15 6 1v9l-5 9h-4l-4-7h-5v-12-5l-8-14-4-2zm-162 48v-12l7 1 6 11v9l-13-3zm1 67l8-10 3 1v6l8 1v7h-6l-9-1h-4l-1-1zm-105-3l6-3h4l6 9v2h-6-6l-4-2zm144 10l3-8h5 6v5l-2 7zm315 19l11-2 8 5v6h-7l-15-2z"/>
		<path id="Path 73" class="s69" d="m446 404l6-1 1 4h3v3l-10-4zm-16 11v-9h6l3 9-1 5h-2zm-100 2l3-3 15 7 4 11v7l-12 1-8-4zm286 16l4-2 7 3v6l5 7v1l-10-5-6-6zm-496 14l6-2v4l-6 1zm-35 35v-2l5 1v3h-5zm837 16l5-1 1 9-9-1-7 1-3-2 7-3h6zm-663 76l1-8 16 2 2 18-10-1zm277 57v-7h6 4l-2 8z"/>
		<path id="Path 74" class="s70" d="m868 534l1-4h2l7 4 1 8 1 3h-2l-8-6zm3 12l1-1 6 2v1 2l-1 1-6-4zm-789 18l4-2h6v7l-6 3-4-3zm38 21l5-2 5 4v5l-10-2zm454 23v-4h8v7l-3 1h-2z"/>
		<path id="Path 75" class="s71" d="m196 456v-12h6l2 7-2 5zm-121 5l15-5v8l-11 5-4-3zm747 12l6-3 6 6h6v12l-10 2-4-2-4-6zm-735 30l3-3 4 7v1l-5 2z"/>
		<path id="Path 76" class="s72" d="m523 378v-2h4zm-237 71l-4-8 2-9 8 14v1zm646 11l4-1 1 1v5l4 2-2 14h-3l-1-6-3-1zm-130 18l-2-3 2-4 5 4 10 7h5l4 6-9 4-2-4-13-1zm-730 53l6-1 8 14h-7l-5-6zm639 40l2-4 7 1-1 10-6-2zm223 30l2-5h4l5 3-2 5z"/>
		<path id="Path 77" class="s73" d="m893 476l9-2v2 1zm-13 42l5-3 11 3 2 7-7 8-8-4 4-5-7-3zm52 20v-12h4l5 8-1 5zm-842 45v-3h6v4zm421 32l3-1h4v4l-7-2z"/>
		<path id="Path 78" class="s74" d="m100 453l3-1 1 6-3 1zm72 14v-9l5-2h6l3 4 3 8h-7l-8 1zm-110-2l13-4v5l4 3v11l-2 4 8-2v2 3l-8 7h-3-6l-1-20zm824 17l3-5 1 5zm-796 9l4-4 6 17-6 3-4-7zm832 23l6-2 8 7v7h-4l-8-2-2-2zm-836 10l2-5 4 2 7 12 3 8v8l-6 1-1-13-3-2z"/>
		<path id="Path 79" class="s75" d="m506 370l10-1 7 7v2l-1 2h-10l-9-4 1-5zm386 80l-2-5 2-3 8 1 2 7v1l-8 1zm-757 30l-2-4h3v4zm-105 75l-12-11v-5l7-3-3 3v7l9 4 2 4z"/>
		<path id="Path 80" class="s76" d="m843 445l28-20 7 17-3 6-4 2-1 5-3 5-7 4-14 1-6-1v-6l4-3zm-683 3v-6h4l4 2v4zm43 69v-9h6l3 6 1 9-4 18-6-1v-2z"/>
		<path id="Path 81" class="s77" d="m552 421l4-1 7 11-3 1v6h-8l-3-7zm-440 55l2-3h13l6 3 2 4v6h-5l-15-4-3-1zm816 8h6l2-3h3l-5 17 10 21 2 17-5-2-5-8v-7l-8-7v-4-2l-1-9 1-7z"/>
		<path id="Path 82" class="s78" d="m80 497v-5l6-1-2 8zm789 52l2-2 6 4-9 2z"/>
		<path id="Path 83" class="s79" d="m942 434l1-6h5l-4 6zm-5 26l4-1v8l-4-2zm-789 22l4-2v4zm21 2l4-4h3v8h-6zm-12 47l1-10h2v9zm-127 24l3-1 5 2v3zm187 18v-1h6l10 2-3 8-3 5-5-1-5-3z"/>
		<path id="Path 84" class="s80" d="m496 371h8l-1 5-1 4-6-4zm440 88l-2-8 4-4 3 1v11l-4 1zm-801 27v-6h1 5l-1 5-2 3zm-39 98v-4h6l8 1v3l-9 1z"/>
		<path id="Path 85" class="s81" d="m77 494l8-7 5 4v9l-3 3h-4l1-4 2-8-6 1v5l-1 2zm668 84v-4l7-6-2 7zm-13 10l7-3-5 8v-1zm-82 10l2-3h6l2 3 2 2zm65 2l2-2h7z"/>
		<path id="Path 86" class="s82" d="m882 464l4-1 2 1 6 2v3l9-2v5l-1 2-9 2h-4l-1-1 1-5h-4l1-4zm-752 31v-9h5l3 2v4l-2 9zm95 55l-9-2v-12h6 6l2 8z"/>
		<path id="Path 87" class="s83" d="m726 468v-4l-4-1 4-6 8 7-1 4zm-562 2l2-4 6 1 2 2 4 4v5l-2 2h-3zm570 80l4-6 8 1v4z"/>
		<path id="Path 88" class="s84" d="m825 454l18-9 1 10-4 3v6l-2 1-10-1zm-639 26l1-2 5 3 5 6 4 5 8 11v5h-6l-6-11zm10 71l7-11 6 1v4l-6 14-4 6-8 10h-3v-5l7-11 1-7z"/>
		<path id="Path 89" class="s85" d="m958 400l2-5 4-1-5 7zm-64 52l8-1 1 3-8 2-1-2zm-168 100v-19h3l9 5v6l-4 6-2 1zm31-6l-1-6 5 4zm121 1v-2h2l2 1-1 2h-3zm-683 37v-5l9 1v5zm281 41l3-9 13 2v7z"/>
		<path id="Path 90" class="s86" d="m883 456l6-4 1 2-2 4 3 4-3 2-2-1zm-641 130l2-7 10 1 18 15 1 11-11-2-4-5h-7l-11-2zm484 7l8-1v1l-2 5h-4z"/>
		<path id="Path 91" class="s87" d="m154 472l10-2 9 10-4 4-9-2-1-5h-5l-2-1zm-79 38v-3l11 3-6 2zm671 35l10-5 1 6v4l-11-1zm152 13l2-2 7 1 1 5-1 3z"/>
		<path id="Path 92" class="s88" d="m936 442l5-8h1 2l-3 14-3-1-2-1zm-822 48l1-8 15 4v9h-11zm853 93l-3-1-3-13-6-4-3-15 5 14 6 4zm-262-11l6-1 2 5-11 2-5-1v-2l3-2zm-478 15l3-5 12 4-2 11-13-8zm265 38v-7h6 3l3 7v1z"/>
		<path id="Path 93" class="s89" d="m963 386l3-4h1l-3 9zm-60 118l-1-6h5v5zm-25 30l1-1 5 2 2 3h-1l-3 2 3 2 3 3-2 2-3-2-4-3zm-792 28v-6h6v6z"/>
		<path id="Path 94" class="s90" d="m336 628l1-10 6-1 3 11z"/>
		<path id="Path 95" class="s2" d="m974 608h-14 5z"/>
		<path id="Path 96" class="s9" d="m621 522l11 2v6l-4 4h-6l-4-6z"/>
		<path id="Path 97" class="s40" d="m883 552v-2h3l2 4h-3z"/>
		<path id="Path 98" class="s88" d="m950 548h1v1h-1z"/>
	</g>
</svg>