<svg version="1.2" xmlns="http://www.w3.org/2000/svg" viewBox="0 0 1000 1000" width="1000" height="1000">
	<title>Oncorhynchus_kisutch-svg</title>
	<style>
		.s0 { fill: #d7bba6 } 
		.s1 { fill: #d6b59d } 
		.s2 { fill: #cfaf94 } 
		.s3 { fill: #cab3a0 } 
		.s4 { fill: #b69c87 } 
		.s5 { fill: #dfc2aa } 
		.s6 { fill: #806a41 } 
		.s7 { fill: #bea793 } 
		.s8 { fill: #8a7652 } 
		.s9 { fill: #765f33 } 
		.s10 { fill: #beb4a7 } 
		.s11 { fill: #413211 } 
		.s12 { fill: #d8c1b1 } 
		.s13 { fill: #201308 } 
		.s14 { fill: #33210b } 
		.s15 { fill: #6f5d3e } 
		.s16 { fill: #776649 } 
		.s17 { fill: #ad9888 } 
		.s18 { fill: #928a83 } 
		.s19 { fill: #827b70 } 
		.s20 { fill: #927f61 } 
		.s21 { fill: #c1a78d } 
		.s22 { fill: #97918d } 
		.s23 { fill: #a19285 } 
		.s24 { fill: #8d8578 } 
		.s25 { fill: #a49a8f } 
		.s26 { fill: #cfbdae } 
		.s27 { fill: #9d8971 } 
		.s28 { fill: #ae927c } 
		.s29 { fill: #5b4823 } 
		.s30 { fill: #b3ada1 } 
		.s31 { fill: #100a05 } 
		.s32 { opacity: .9;fill: #938062 } 
		.s33 { fill: #645336 } 
		.s34 { fill: #695329 } 
		.s35 { fill: #503e1a } 
		.s36 { fill: #b0a497 } 
		.s37 { opacity: .9;fill: #a7907a } 
		.s38 { fill: #807058 } 
		.s39 { fill: #c8a182 } 
		.s40 { fill: #9292a1 } 
		.s41 { fill: #827f82 } 
		.s42 { opacity: .9;fill: #8c7758 } 
		.s43 { fill: #45392a } 
		.s44 { fill: #726a61 } 
		.s45 { fill: #dfc6b3 } 
		.s46 { opacity: .9;fill: #806a4a } 
		.s47 { fill: #a58667 } 
		.s48 { opacity: .9;fill: #9c896c } 
		.s49 { fill: #a4a198 } 
		.s50 { fill: #544735 } 
		.s51 { fill: #c1bfb7 } 
		.s52 { fill: #574e4b } 
		.s53 { opacity: .9;fill: #69583b } 
		.s54 { opacity: .8;fill: #836e52 } 
		.s55 { opacity: .9;fill: #c7c5ba } 
		.s56 { fill: #bfc9cd } 
		.s57 { opacity: .9;fill: #c6b8a3 } 
		.s58 { fill: #9ea0b2 } 
		.s59 { opacity: .8;fill: #a8907d } 
		.s60 { opacity: .3;fill: #715c38 } 
		.s61 { opacity: .6;fill: #897450 } 
		.s62 { opacity: .9;fill: #140e08 } 
		.s63 { opacity: .1;fill: #7e6f45 } 
		.s64 { opacity: .4;fill: #4b361b } 
		.s65 { opacity: .1;fill: #885330 } 
		.s66 { opacity: .1;fill: #3be3de } 
		.s67 { opacity: .1;fill: #d3a666 } 
		.s68 { opacity: .1;fill: #3322d7 } 
		.s69 { opacity: .1;fill: #dfe0e2 } 
		.s70 { opacity: .5;fill: #725b35 } 
	</style>
	<g id="Background">
		<path id="Path 0" class="s0" d="m361.9 538.8l12.1-2.6 16.1 1.3 4 4h13.4l25.5 14.7 2.7 9.4-10.8 9.4-22.8 4-1.3 9.4 8 1.3v8l10.8 9.4 24.1 1.4 1.3 4 17.5 4-1.4 5.3-13.4 2.7-72.4-2.7-20.1-4-13.4-10.7 4-4-1.3-8 5.4-9.4v-28.1l1.3-12.1zm315 18.8v-5.4l16.1-10.7h34.9l5.3 8-29.5 21.5-8 10.7h-8.1l5.4-17.4-5.4-6.7zm-75 5.3l14.7-10.7h37.6l8 5.4-1.3 4-21.5 9.4h-14.7l-22.8 2.6zm8 42.9v-4l9.4 4-1.3 2.7z"/>
		<path id="Path 1" class="s1" d="m390.1 537.5v-4h13.4l4 8h-13.4zm394.1 9.4v-5.4h8l1.4 4-2.7 4.1zm-445 2.6l4-5.3 8 1.3-1.3 12.1h-6.7zm348.5 32.1h8.1l8-10.7 29.5-21.4h13.4l1.3 5.3-14.7 12.1-10.7 2.7-13.4 13.3-2.7 9.4-9.4 5.4-12.1 17.4v6.7h-4l-16.1-2.7-14.7-1.3h-5.4l-2.7-4.1-12 1.4-1.4 9.4h-6.7-17.4v-5.4l-9.4-8 2.7-5.4h12.1l8 2.7 1.3-2.7 24.2 2.7 16.1-13.4h14.7zm-166.2 29.5l5.4-8.1 5.3 2.7v5.4zm-195.7 5.3l16.1-9.4 13.4 10.7 20.1 4.1 72.4 2.6 13.4-2.6 1.3-5.4 40.2-2.7-2.6 13.4-9.4 2.7-1.4 6.7v1.3l-20.1 2.7-40.2 2.7-8 1.3-57.7 1.4-16.1-1.4v-1.3l-2.6-9.4-14.8-5.3z"/>
		<path id="Path 2" class="s2" d="m793.6 545.5l25.4-4h10.8 9.3l1.4 21.4-10.7 4v9.4l-14.8-5.3h-21.4l-18.8 2.6h-16.1v6.7l-8 1.4-4.1 6.7-4 1.3v5.4l-12 2.6h-5.4l-4 8.1h-10.7l-4.1 4v9.4l-10.7 6.7h-4l-6.7-4.1v-6.6l12.1-17.5 9.3-5.3 2.7-9.4 13.4-13.4 10.7-2.7 14.8-12 36.2-8 6.7 2.6zm-290.9 68.3l13.4-2.6v21.4l-26.8 4 1.3-6.7 9.4-2.7zm84.5 4l1.3-6.7h6.7l9.4 8.1v5.3l-5.4 2.7-4 1.3-2.7 1.4-4-5.4zm-355.2 5.4l1.3-9.4h10.7l8.1 6.7v9.4h-2.7-2.7l-13.4-5.4zm76.4-4l17.5-2.7 4 12.1 14.7 5.3 2.7 9.4h-4l-38.9-4v-16.1z"/>
		<path id="Path 3" class="s3" d="m403.5 533.5v-5.4h13.4l9.4 5.4 69.7 2.7 4 4 26.8 1.3 8.1 4 13.4-4 38.8 5.4 17.5-10.7h16l13.4 2.6 9.4-5.3h25.5l22.8 2.7 1.3 5.3-16.1 10.7v5.4h-2.6-12.1l-8-5.4h-37.6l-14.7 10.7-73.7 2.7-12.1-5.3h-26.8l-8.1 5.3h-45.5l-2.7-9.4-25.5-14.7zm324.4 8l4-8h14.8l32.1 2.7 5.4 5.3v5.4l-36.2 8-1.3-5.3h-13.4zm-418.3 32.1v-12l8.1-8.1 21.4-4 4 8h6.7v28.2l-5.3 9.3-12.1-10.7-13.4-4z"/>
		<path id="Path 4" class="s4" d="m856.6 514.7l9.4-1.3 10.7 9.4 1.3 21.4-13.4-1.4-1.3-5.3-13.4-9.4v-5.3l2.6-6.7zm-501.3 10.7v-5.4h8l10.8 5.4v10.7l-12.1 2.7zm33.5 0l9.4-4 5.4 6.6v5.4h-13.4zm-97.9-1.3l9.4 1.3-1.4 5.4h-8zm-166.2 38.8l30.8-2.7 8.1 8 20.1 2.7 2.6 1.4 4.1-6.7 8-4 2.7 1.3-4 21.4-8.1 4-2.7 24.1-13.4-1.3-8-2.7-13.4-2.7-6.7-1.3-9.4-4-18.8-10.7zm110 5.3l1.3-1.3h9.4l5.3 1.3v10.7l5.4 2.7 2.7 16.1h-5.4l-5.3-8.1h-8.1zm471.9 50.9v-9.3l4-4.1h10.7v12.1l-1.3 4h-10.7z"/>
		<path id="Path 5" class="s5" d="m639.4 571l4 12h13.4l16.1-13.4 1.4-12h2.6 10.8l5.3 6.7-5.3 17.4-13.4 13.4h-14.8l-16.1 13.4-24.1-2.7-9.4-4v-9.4l14.8-13.4v-8zm-193.1 32.1h29.5l28.2-8h22.8v8l-5.4 8h-5.4l-13.4 2.7-40.2 2.7-17.4-4-1.3-4z"/>
		<path id="Path 6" class="s6" d="m483.9 391.5v-2.6h8.1l22.7 5.3 5.4-5.3h12.1l25.4 22.7 13.4 1.4 4.1 2.6 6.7 8.1-4.1 5.3h4.1l4 2.7 4 2.7 4 4-8 12.1-57.6-2.7-8.1-2.7-14.7 2.7 4 20.1h-6.7l-29.5-34.8-56.3-5.4v-6.7l13.4-10.7 16.1 5.3 33.5-2.6 13.4 8 25.5 2.7v-8.1l-22.8-8zm-109.9 83l2.6-20.1-9.3-9.3-1.4-12.1 26.8-1.3 1.4 17.4 9.3 9.4 6.8 16-12.1 5.4-24.1-1.4zm-13.4-5.3h-17.5l-5.3-5.4-2.7-26.7 20.1 2.6zm-179.6 13.4l-2.7-17.4h18.8l10.7 9.4h10.7v9.4l9.4 9.3 2.7 21.5-4.1 5.3v16.1l-8 8 2.7-24.1v-5.3l-4-1.4-1.4-6.7-2.7-8-2.6-13.4z"/>
		<path id="Path 7" class="s7" d="m416.9 528.1v-5.3l12.1-8.1h26.8l14.7 5.4 59 5.3 16.1 9.4 2.7 6.7-13.4 4-8.1-4-26.8-1.3-4-4-69.7-2.7zm-126 2.7h8l1.4-5.4h12 42.9l6.7 13.4-10.7 6.7-8.1-1.4-4 5.4-21.4 4-8.1 8v12.1l-13.4-1.3-4-5.4-9.4 1.3-17.4-2.6-20.1-2.7-9.4-1.4h-4l10.7-12v-5.4h6.7l12.1 5.4 12-12.1 12.1-1.3zm-89.8 32.1l8-2.6 5.4 4 5.4 1.3 14.7 2.7 5.4 21.4-8.1 8.1h-5.3l-29.5-13.4z"/>
		<path id="Path 8" class="s8" d="m392.8 431.7l24.1-4 56.3 5.4 29.5 34.8v6.7h-29.5l-12.1-2.7-50.9 2.7-6.7-16.1-9.4-9.4zm233.2 42.9l-13.4-32.2h2.7l22.8 5.4 1.4 1.3-1.4 17.4 4 4v9.4 2.7zm-116.6-6.7l-4-20.1 14.7-2.7 8.1 2.7 1.3 26.8h-13.4zm249.3 112.5v-6.7h16.1l-8 9.4z"/>
		<path id="Path 9" class="s9" d="m509.4 366.1l20.1-14.7 10.7-1.4 8.1 22.8 2.6 9.4-8 5.3 8-1.3h1.4l4-1.4 2.7 4.1v4h4 1.3l1.4 5.3 5.3 10.7v4.1l-13.4-1.4-25.4-22.7v-9.4zm-44.3 28.1l4.1-2.7h14.7l12.1 16.1 22.8 8v8.1l-25.5-2.7-13.4-8-33.5 2.6-16.1-5.3-13.4 10.7v6.7l-24.2 4-26.8 1.3 1.4 12.1 9.4 9.4-2.7 20-13.4-5.3-5.4-29.5-20.1-2.6-4-4.1-24.1-1.3-8.1-8-14.7-1.4v-5.3l1.3-1.4h2.7l8-1.3 17.5-1.3 9.3-1.4h4.1l8-1.3h4l12.1-1.4 26.8-1.3 18.8-1.3 34.8-1.4 22.8-2.7h8.1zm-308.4 69.7l2.7-2.7h13.4l5.4 4 2.7 17.4-5.4 5.4-14.7-2.7-4.1-5.4zm-128.6 67l6.7-8 12-1.4 13.4 5.4v5.3l-8 4h-13.4v4.1l-10.7-1.4z"/>
		<path id="Path 10" class="s10" d="m634 512.1l13.5-2.7 4-6.7 22.8-4 6.7 12 14.7 1.4 13.4-2.7h6.7l9.4-9.4 1.3 1.3-1.3 6.7 10.7 12.1h8.1l6.7 8h17.4l13.4-1.3 21.4 8h12.1l4 6.7-25.4 4-1.4-4h-8l-5.4-5.3-32.2-2.7h-14.7l-4 8h-34.9l-1.3-5.3-22.8-2.7h-25.5l-9.4 5.3-13.4-2.6 1.4-6.7 10.7-4.1z"/>
		<path id="Path 11" class="s11" d="m904.8 477.2l9.4-2.6 6.7 13.3 8.1 22.8-2.7 14.7h-8.1-4l1.3-6.7v-6.6l-5.3-4.1 1.3-13.4-6.7-5.3zm-819 10.7l25.5-10.7 6.7 9.4v5.3h-6.7v12.1l6.7 4-14.8 10.7v-4l2.7-6.7-2.7-9.4h-4l1.3 9.4-8 1.3v5.4l-1.3 4-8.1 1.3-9.4 2.7-8 4h-5.4l-13.4-5.3v-10.7l-5.3-5.4 32.1-16.1 9.4 2.7zm761.4 4l14.7-2.6v20l-5.3 1.4v4l-4 1.3-6.7 1.4-4.1-4-2.6-9.4-14.8-8 4-1.4 6.7-1.3zm-794.9 44.2l8.1-4.1 5.3 1.4 4.1 2.7-1.4 8h-4l-1.3-1.3zm-13.4 10.7l5.3-1.4 14.8 5.4v4l-4.1 1.3-6.7 1.4-2.6-5.4-10.8 1.4-1.3-1.4 2.7-4zm863.2 37.5l10.8-12.1 10.7 1.4 10.7 13.4v32.1l4 5.4 16.1 5.3 4 5.4-1.3 13.4-17.4-5.4-25.5-16.1 1.3-8-6.7-6.7-1.3-10.7-5.4-4z"/>
		<path id="Path 12" class="s12" d="m601.9 573.6l22.8-2.6v8l-14.8 13.4v9.4 4h-12l-2.7 5.3h-6.7l-16.1-2.6-26.8-2.7h-13.4l-5.4-2.7v-8-12.1l-6.7-6.7 10.7-2.7 16.1 5.4h30.8zm-193 16.1l14.8-8.1 22.8-1.3v22.8l-2.7 5.3-24.2-1.3-10.7-9.4z"/>
		<path id="Path 13" class="s13" d="m914.2 474.6l17.4-4.1v13.4l8.1 9.4 14.7 2.7-4 10.7h-10.7l-9.4-17.4-9.4-1.4zm-4 68.3l-1.4-4 9.4-4h8.1v1.3l2.7 10.8h16l13.4 49.5 9.4 17.4-12 4-1.4 12.1-16.1-5.4-4-5.3v-32.2l-10.7-13.4-4-18.7-2.7-12.1zm-695.7 21.5l1.3-2.7h10.7v4h-6.7zm91.2 28.1v-4l13.4-8 13.4 4 12.1 10.7 1.3 8-4 4-16.1 9.4-17.4 2.7-8.1-8 1.4-6.7v-6.7z"/>
		<path id="Path 14" class="s14" d="m926.3 525.4l2.7-14.7-8.1-22.8 9.4 1.4 9.4 17.4h10.7l-4 14.7 2.7 17.4-4.1 1.4-18.7-4v-1.4zm-710.5-5.3l1.4-6.7 4 1.3v5.4zm84.4 73.6l5.4-1.3-4 5.3zm576.4 2.7l6.7-1.3-5.4 1.3zm24.1 22.8l8.1-6.7 6.7 6.7-1.3 8z"/>
		<path id="Path 15" class="s15" d="m273.5 418.3l5.3-1.3h5.4v5.3l14.7 1.4 8.1 8 2.7 20.1 12 8 1.4 20.1-10.8 2.7-8-2.7-8.1 2.7-34.8-1.3-8-1.4-24.2-6.7 2.7-28.1-8-6.7-17.5-1.3-2.6-4 14.7-4.1 4-1.3 6.7-1.3 4-1.4 9.4-1.3 4-1.4h2.7l4.1-1.3h2.6l5.4-1.3zm612.6 104.4l2.7-8h14.7l12.1 4-1.4 6.7h4.1v9.4l-9.4 4 1.3 4v4h-10.7l-13.4-12 2.7-4.1zm-155.5 75l12-2.7h4.1v10.8l-10.8 2.6-5.3-4zm-158.2 29.5l-5.4-5.4v-9.4l5.4-4 16.1 2.7-1.4 6.7-10.7 2.7-1.3 4z"/>
		<path id="Path 16" class="s16" d="m323.1 479.9l-1.4-20.1-12-8-2.7-20.1 24.1 1.4 4 4 2.7 26.7 5.4 5.4h17.4l13.4 5.4v4 1.3h-18.8l-2.7-2.7-16 2.7zm-205.1 28.1l-6.7-4v-12h6.7l9.4 6.7v6.7zm-25.5 6.7v-5.4l8-1.3h5.4l-2.7 6.7zm784.2 48.2l1.3-18.8 16.1 4 2.7 33.5 5.4 2.7v13.4l-16.1-2.7v-24.1zm-789.6-10.7l10.8-2.7h5.3l1.4 2.7-1.4 5.3-12.1-1.3zm148.8 9.4l9.4 1.3v4h-9.4zm506.7 33.5v-5.4l4.1-1.3v6.7zm-12.1 25.4l4-2.6 4 4h16.1l4.1 1.3-1.4 9.4-5.4 2.7h-12-9.4z"/>
		<path id="Path 17" class="s17" d="m398.1 509.4l16.1-6.7 115.3 6.7v10.7 5.3l-59-5.3-14.7-5.4h-26.8l-12.1 8.1v5.3h-13.4l-5.4-6.7zm-85.8 16.1l2.7-10.7h26.8l13.4 5.3v5.4zm-59-2.7l29.5-2.7 8.1 4.1v6.6l-5.4 5.4-12 1.3-12.1 12.1-12.1-5.4zm-107.2 26.8l24.1 1.4 5.4-4.1 18.7 6.7-2.6 6.7-8.1 10.7-20.1-2.6-8-8.1-30.9 2.7v-8-2.7l8.1-2.7z"/>
		<path id="Path 18" class="s18" d="m600.5 483.9l-1.3-9.3 8 2.6zm-84.4-1.3l8 2.7 9.4-8.1 8.1 1.4-1.4 10.7-8 9.4h-17.5l-9.3-5.4v-10.7zm-219.9 0l8.1-2.7 8 2.7 5.4 8 18.7-2.6 18.8 2.6 2.7 13.4-59-1.3zm155.5 10.7v-8h21.4l2.7 8-5.3 2.7zm-305.7 48.2v-5.4h5.4 16.1l8 2.7v8l-5.3 4-24.2-1.3zm72.4 2.7l8.1-8h13.4l2.7 8v5.3l-10.8 12.1h-5.3-10.8l-2.6-9.4z"/>
		<path id="Path 19" class="s19" d="m502.7 474.6v-6.7h6.7l6.7 6.7v8h-10.7zm-92.5 0l50.9-2.7 12.1 2.7v10.7h-21.5-5.3l-4.1 8-28.1 2.7-17.4-2.7-9.4 5.4-13.4-12.1v-6.7-1.3l24.1 1.3zm-191.7 0l10.7-1.3 24.2 6.7-2.7 4h-8.1l-1.3 6.7-13.4 2.7-9.4-9.4zm118 5.4l16.1-2.7 2.6 2.7v10.7l-18.7-2.7zm-179.6 9.4l4-4 14.7 2.6v24.1l-4 2.7h-12.1zm-5.3 46.9v-18.8h8l2.7 5.4h5.4v13.4zm46.9 25.4l14.7-9.3 2.7 9.3-1.3 2.7-5.4-4-8 2.7zm81.7 21.4l-4-2.7v-9.4h6.7l2.7 1.4v6.7z"/>
		<path id="Path 20" class="s20" d="m528.2 447.8l57.6 2.7 8 10.7v13.4l-20.1 2.6-25.4-2.6-6.7 4-8.1-1.4-4-2.6z"/>
		<path id="Path 21" class="s21" d="m837.8 526.8v-13.4h4l4 4v5.4l-5.3 4zm-463.8 9.4v-10.8h14.7l1.4 8.1v4zm455.7 40.2v-9.4l10.7-4h6.8l5.3 6.7-12.1 9.3h-2.6zm-643.5 36.2l2.7-24.1 8.1-4 29.5 13.4h5.3l8.1-8.1h8l5.4 8.1h5.3l2.7 5.3h8l4.1 8.1 6.7 1.3 6.7 9.4-1.4 13.4h-17.4-2.7l-8-2.7-5.4-1.4v-1.3-9.4l-8-6.7h-10.7l-1.4 9.4-8-1.3-9.4-2.7-4-1.4h-2.7l-13.4-2.6h-1.4l-5.3-1.4zm109.9 12.1l8-1.4v16.1l-9.3-1.3-1.4-1.4z"/>
		<path id="Path 22" class="s22" d="m261.4 481.3l34.8 1.3 2.7 20.1-16.1 9.4v8l-29.4 2.7-13.5 1.3v12.1h-13.4v-16.1l4.1-5.4-2.7-21.4 13.4-2.7 8 10.7h5.4zm-56.3 25.5v-8.1h8l2.7 8.1zm-83.1 29.4l8-12 9.4 1.3 6.7 10.7v5.4h-13.4-10.7z"/>
		<path id="Path 23" class="s23" d="m541.6 478.6l6.7-4 25.4 2.6-9.4 24.1-22.7 1.4-12.1 6.7-115.3-6.7v-6.7l28.2-2.7h9.3l18.8 2.7 5.4-2.7h29.5l9.3 5.4h17.5l8-9.4zm-242.6 24.1l59 1.3 5.3 2.7v13.4h-8l-13.4-5.4h-26.8l-2.7 10.8h-12.1l-9.4-1.4-8-4v-8zm-59 33.4v-12l13.4-1.4-4 21.5h-6.7zm-115.3 16l-2.7-10.7h10.8v8.1z"/>
		<path id="Path 24" class="s24" d="m473.2 485.3v-10.7h29.5l2.7 8v10.7h-29.5zm42.9-2.7v-8h13.4l4 2.7-9.4 8zm-203.7 0l10.7-2.7h13.4v8.1l-18.8 2.6zm42.9 8.1v-10.7h18.8v6.7l13.4 12 9.4-5.3 17.4 2.6v6.7l-16.1 6.7-34.8-2.7-5.4-2.6zm87.1 2.6l4-8h5.4v8zm-282.8 24.1v-2.6h12l-4 8h-5.4z"/>
		<path id="Path 25" class="s25" d="m573.7 477.2l20.1-2.6h5.4l1.3 9.3-13.4 18.8-6.7 1.3-1.3 8.1h-10.7l-17.5 8h-21.4v-10.7l12.1-6.7 22.7-1.4zm68.4 5.4v-2.7l4 1.4zm-495.9 58.9v8h-13.5v-8z"/>
		<path id="Path 26" class="s26" d="m435.7 565.6h45.5l8.1-5.3h26.8l12.1 5.3 73.7-2.7v10.7l-24.2 5.4h-30.8l-16.1-5.4-10.7 2.7h-52.3l-21.4 4-22.8 1.4-14.8 8-8-1.3 1.3-9.4 22.8-4z"/>
		<path id="Path 27" class="s27" d="m363.3 520.1v-13.4l34.8 2.7v12l-9.4 4h-14.7zm-93.8 83.1l-1.4-13.4-6.7-6.7v-14.8h4l10.8 2.7v9.4l4 2.7v29.4l-6.7-1.3z"/>
		<path id="Path 28" class="s28" d="m91.2 556.2l12 1.4 1.4-5.4 20.1 2.7v8l-8.1 26.8h-9.4l-12-4h-2.7l-8-2.7v-14.7zm167.5 41.5l-2.7-16.1-5.3-2.6v-10.8h10.7v14.8l6.7 6.7 1.3 13.4h-8zm273.5 13.3v-5.3h13.4v26.8h-6.7-6.7zm163.5 14.7l10.7-6.7 2.7 2.7-1.3 6.7z"/>
		<path id="Path 29" class="s29" d="m469.2 391.5l13.4-9.3 1.3 6.7v2.6zm-14.7 10.8l10.7-8.1-2.7 8.1zm-302.9 50.8l6.7-2.6 1.3 10.7-2.7 2.6-5.3-1.3zm-40.3 18.8l13.5-5.4 12 1.3 9.4 12.1h10.7l4 5.3-4 4.1-25.4-1.4-13.4-1.3-6.8-9.4zm-37.5 17.4l6.7-2.7 5.4 1.4-2.7 4zm829.8 25.4l6.7-6.7 5.3 4.1v6.7zm6.7 32.1v-4h6.7l2.7 12h-6.7z"/>
		<path id="Path 30" class="s30" d="m674.3 498.7l2.6-10.8 13.4 2.7 5.4 10.7v10.8l-14.7-1.4zm68.3-2.7l18.8 1.4 5.4 4 1.3 18.7v8.1h-17.4l-6.7-8.1h-8.1l-10.7-12 1.3-6.7h14.8zm-138.1 40.2l2.7-24.1h26.8l-1.3 13.3-10.8 4.1-1.3 6.7zm235.9-9.4l5.4-4h4v5.3l13.4 9.4 1.4 5.4 13.4 1.3-1.4 18.7-9.4 2.7-14.7 4-5.4-6.7h-6.7l-1.3-21.4z"/>
		<path id="Path 31" class="s31" d="m931.6 470.5l33.5-1.3 1.4 5.4-12.1 21.4-14.7-2.7-8.1-9.4zm-910.2 61.6v-10.7l20.2-16.1 5.3 5.4v10.7l-12 1.4-6.7 8zm184.9 6.7l9.4-18.8h5.4l-2.7 24.1-5.4 8.1-14.7 9.3-8 4.1 1.3-5.4 2.7-6.7zm738.6 8h-16.1l-2.7-10.7 18.8 4zm9.4 83.1l1.3-12.1 12.1-4 13.4 38.8-24.2-4 1.4-13.4z"/>
		<path id="Path 32" class="s32" d="m585.8 450.5l8-12.1 6.7 1.3h5.4l6.7 2.7 13.4 32.2-18.8 2.6-8-2.6h-5.4v-13.4zm56.3 29.4v-9.3l-4-4.1 1.4-17.4h4l6.7 1.4 25.4 8-1.3 21.4-1.3 2.7-26.8-1.3zm50.9 0l1.3-17.4 20.1 4h1.4l16.1 5.3h8l5.4 1.4h5.3l6.7 2.6 13.4 4.1 6.7 2.6 4.1 13.4v1.4l-14.8 4-5.3-4-18.8-1.4-8.1-2.6-9.3 5.3-8.1-12-16.1-1.4zm26.8 142l1.4-4.1 9.4 2.7v14.7l-10.8-2.6zm-147.4 5.3l2.7-2.7h13.4l4 5.4-6.7 2.7h-13.4z"/>
		<path id="Path 33" class="s33" d="m167.6 446.4l36.2-13.3 2.6 4 17.5 1.3 8 6.7-2.7 28.1-10.7 1.4h-10.7l-10.7-9.4v-6.7l-5.4-5.4h-17.4zm-49.6 45.6v-5.4l13.4 1.3v8.1l-4.1 2.7zm776.2 56.2l5.3-1.3h10.8l2.7 8h6.7l4 18.7-10.7-1.3-10.8 12-5.3-2.6zm-628.7 20.1v-2.7l17.4 2.7v2.6h-6.7zm481.2 20.1l4.1-6.7 8-1.3 8 2.7v2.6l-2.6 12.1-2.7 13.4v6.7l1.3 4-4 1.3-4-1.3-1.4-13.4-6.7-2.7v-10.7zm124.7 9.4l5.4-1.4h1.3v5.4z"/>
		<path id="Path 34" class="s34" d="m482.6 382.2l9.4-6.7v13.4h-8.1zm-345.8 85.7l5.3-5.4h9.4l5.4 1.3v16.1h-10.7z"/>
		<path id="Path 35" class="s35" d="m158.2 450.5l9.4-4.1 6.7 6.7h17.4l5.4 5.4v6.7h-18.8l-5.4-4h-13.4zm703.8 38.8l42.9-12.1v12.1l6.7 5.4-1.4 13.3-6.7 6.7h-14.7l-2.7 8.1h-9.4l-10.7-9.4-4-4zm64.3 36.1v9.4h-8v-9.4z"/>
		<path id="Path 36" class="s36" d="m725.2 498.7l9.4-5.4 8 2.7-1.3 5.3h-14.8l-1.3-1.3zm-29.5 13.4v-10.7h10.7l2.7 8zm-116.6 0l20.1-2.7 8 2.7-2.6 24.1-17.5 10.7-38.8-5.3-2.7-6.7-16.1-9.4v-5.4h21.4l17.5-8z"/>
		<path id="Path 37" class="s37" d="m672.9 482.6l1.4-2.7h18.7l8.1 5.4 16.1 1.3 8 12.1v1.3l-9.4 9.4h-6.7l-2.7-8.1h-10.7l-5.4-10.7-13.4-2.7zm108.6 13.4l29.5 4.1 8.1 6.7v4l-12.1-4-16.1 1.3-9.4-10.7zm-711.8 61.6l6.7 2.6 8.1-8h2.7l4 4-6.7 12.1v14.7h-9.4l-5.4-1.3-8-2.7h-1.4l-5.3-2.7v-20.1l4-1.3 5.4 5.3zm638 71l1.4-6.7h10.7v10.7l-12.1-2.6z"/>
		<path id="Path 38" class="s38" d="m118 508l9.3-2.6 2.7 9.3v9.4l-8 12.1h-4l-9.4-8.1-13.4-2.7v-2.6l8-4.1zm738.6 6.7v-4l5.4-1.3 4 4zm-753.3 29.5l13.4 2.6 1.3-5.3h4l2.7 10.7v2.7l-20.1-2.7-1.3-2.7zm764 21.4l9.4-2.6 9.4 8v24.1h-2.7l-6.7 1.3-5.3 1.4-12.1-5.4-2.7-4 9.4-5.4zm-581.8 13.4v-6.7h6.7l2.7 6.7zm435.7 26.8l4-8h5.3v6.7l5.4 4-1.3 9.4-4.1 2.6-9.3-2.6z"/>
		<path id="Path 39" class="s39" d="m516.1 632.6v-21.5h5.3 10.8v21.5zm112.6-8.1l1.3-9.3 12.1-1.4 2.7 4-12.1 6.7zm-53.6 0l1.3-4 10.7-2.7 1.4 6.7zm-289.6 10.7l1.4-13.4h6.7l2.7 2.7-2.7 12.1z"/>
		<path id="Path 40" class="s40" d="m253.4 479.9l8 1.4-6.7 20h-5.4l-8-10.7 1.3-6.7h8.1zm-75.1 32.2l6.7-16.1 20.1 2.7v8l-2.7 12.1-8 5.3v9.4l12.1 5.3-12.1 14.8-18.8-6.7v-8.1z"/>
		<path id="Path 41" class="s41" d="m175.6 487.9l5.4-5.3 29.5 2.7 2.6 13.4h-8l-20.1-2.7-6.7 16.1h-2.7zm-45.6 36.1v-9.4l21.5 2.7v18.8h-5.4l-6.7-10.8z"/>
		<path id="Path 42" class="s42" d="m781.5 496l-4-13.4 28.1 8 2.7 4 16.1 1.4 14.7 8 2.7 9.4h-4l-18.8-6.7-8-6.7zm-705.1 40.2l1.3-6.7 10.8 1.3v4l12 4 2.7 5.4v5.4h-5.4l-9.3-9.4zm776.1 33.5l14.7-4.1-1.3 17.5-9.4 5.3-16.1-9.4z"/>
		<path id="Path 44" class="s43" d="m73.7 522.8l9.4-2.7 2.7 5.3h9.4l13.4 2.7 9.4 8.1v5.3l-1.4 5.4-13.4-2.7-2.7-5.4-12-4v-4l-10.8-1.3zm804.3 21.4l-1.3-21.4h9.4l2.7 8-2.7 4 13.4 12.1-5.4 1.3zm-819 6.7l5.4-2.7h1.3l2.7 1.4 1.3 8-5.3 2.7-5.4-5.4zm-29.5 5.4l4-4.1 1.4 1.4-1.4 4 1.4 6.7-5.4-2.7zm848.5 40.2l5.4-1.3h2.7l16.1 2.6 5.3 4 1.4 10.8-8.1 6.7-16.1-9.4-6.7-8.1zm-584.4 25.5v-14.7l8-2.7-1.3 6.7 8 8-4 4-8 1.4zm442.3-13.4l10.7-2.7 6.7 2.7 1.4 13.4h-16.1l-4-4.1z"/>
		<path id="Path 45" class="s44" d="m127.3 498.7l4.1-2.7v-8.1l25.4 1.4 2.7 25.4v2.7h-8l-21.5-2.7-2.7-9.3zm-5.3 37.4v5.4h-4v-5.4zm158.1 46.9l5.4-4h9.4l5.3 14.7 1.4 4v6.7l-8.1 2.7v14.7h-6.7l-6.7-9.3z"/>
		<path id="Path 46" class="s45" d="m639.4 571l21.5-9.4 1.3-4h12.1l-1.4 12-16.1 13.4h-13.4zm-193 9.4l21.4-4h52.3l6.7 6.7v12h-22.8l-28.1 8.1h-29.5z"/>
		<path id="Path 47" class="s46" d="m492 375.5l17.4-9.4 22.8 13.4v9.4h-12.1l-5.4 5.3-22.7-5.3zm-431.7 151.3h5.4v6.7l-5.4-1.4z"/>
		<path id="Path 48" class="s47" d="m545.6 632.6v-26.8l26.8 2.7-5.4 4v9.3l5.4 5.4v5.4h-4-10.8-8z"/>
		<path id="Path 49" class="s48" d="m674.3 479.9l1.3-21.4 18.8 4-1.4 17.4zm-573.7 28.1l-1.3-9.3h4l2.7 9.3zm745.3 9.4l6.7-1.3-2.7 6.7h-4zm-762.8 2.6l8.1-1.3 4 4v2.7h-9.4z"/>
		<path id="Path 50" class="s49" d="m607.2 477.2l18.8-2.6 16.1 8 4-1.3 26.8 1.3 4 5.3-2.6 10.8-22.8 4-4 6.7-13.5 2.7h-26.8l-8-2.7-20.1 2.7 1.3-8.1 6.7-1.3 13.4-18.8z"/>
		<path id="Path 51" class="s50" d="m91.2 518.7l1.3-4h10.7v4l-8 4.1zm-21.5 38.8l-1.3-8 16.1 2.6-8.1 8.1zm150.2 8h6.7v-4h5.3 4v5.3l-1.3 1.4zm63 2.7l9.4-1.4 4 5.4 13.4 1.3 9.4 6.7-13.4 8v4.1l-5.4 1.3-5.3-14.7-2.7-6.7h-6.7l-2.7-1.4z"/>
		<path id="Path 53" class="s51" d="m829.8 528.1l8-1.3h2.7l-1.4 14.7h-9.3z"/>
		<path id="Path 54" class="s52" d="m183.6 571l8.1-10.7-1.4 5.3-4 6.7zm61.7-4v-4l20.1 2.6v2.7h-4-10.7z"/>
		<path id="Path 55" class="s53" d="m124.7 466.5l26.8-13.4v9.4h-9.4l-5.4 5.4zm-28.1 10.7l14.7-5.4v5.4l-25.4 10.7-5.4-1.4 12.1-6.6 1.3-1.4h1.3zm-75 54.9l6.7-1.3v8z"/>
		<path id="Path 58" class="s54" d="m550.9 382.2l-2.6-9.4h4l1.3 2.7 1.4 4zm-485.3 144.6l8-4 4.1 6.7-1.4 6.7h-6.7l-4-2.7zm-30.8 26.8l10.7-1.4 2.7 5.4h-14.8z"/>
		<path id="Path 60" class="s55" d="m790.9 508l16.1-1.3 12 4 10.8 17.4v13.4h-10.8l-4-6.7h-12.1l-21.4-8v-4z"/>
		<path id="Path 61" class="s56" d="m768.1 528.1v-8l13.4 2.7v4z"/>
		<path id="Path 63" class="s57" d="m766.8 501.3l14.7-4 9.4 10.7-9.4 14.8-13.4-2.7zm52.3 9.4v-4.1l18.7 6.7v13.4l-8 1.4z"/>
		<path id="Path 65" class="s58" d="m206.4 538.8l-12-5.3v-9.4l8-5.4 2.7-12h10.7l1.4 6.7-1.4 6.7zm-34.8-24.1l4-2.7h2.7l-2.7 26.8-8.1-2.7v-13.4z"/>
		<path id="Path 67" class="s59" d="m48.3 557.6l6.7-1.4v20.1l-6.7-1.3-13.4-10.7-1.4-6.7z"/>
		<path id="Path 69" class="s60" d="m563 388.9v4h-4v-4zm-284.2 28.1l6.7-1.4-1.3 1.4zm482.5 194.1l2.7-13.4h2.7zm1.3 10.8l-1.3-4.1 4 1.4z"/>
		<path id="Path 73" class="s61" d="m548.3 372.8l-8.1-22.8 6.7 4.1 5.4 18.7zm210.4 250.4l4.1-1.4-1.4 13.4-9.4 1.4v-1.4l5.4-2.6z"/>
		<path id="Path 74" class="s62" d="m68.4 544.2l1.3-8h6.7l12.1 4 9.4 9.3-10.8 2.7h-2.6l-16.1-2.7-2.7-1.3z"/>
		<path id="Path 76" class="s63" d="m550.9 386.2l-8 1.3 8-5.3zm20.1 26.7v-4l4.1 6.7zm10.7 16.1h-4l4-5.4 2.7 1.4zm57.6 20.1l-1.3-1.4 5.3 1.4z"/>
		<path id="Path 78" class="s64" d="m64.3 546.9v-2.7h4.1l-2.7 4h-1.4z"/>
		<path id="Path 83" class="s65" d="m764.1 597.7l2.7-12h2.6l-1.3 8-1.3 4z"/>
		<path id="Path 84" class="s66" d="m467.8 656.7v1.3h-6.7v-1.3z"/>
		<path id="Path 85" class="s67" d="m622 627.2v-2.7h6.7 4z"/>
		<path id="Path 86" class="s68" d="m564.3 654l1.4-2.7 1.3 2.7z"/>
		<path id="Path 87" class="s5" d="m378 554.9h9.4l2.7 8-4 4-8.1-1.3z"/>
		<path id="Path 88" class="s69" d="m686.3 628.5l10.8 4.1h-8.1z"/>
		<path id="Path 90" class="s64" d="m63 542.8h1.3v1.4h-1.3z"/>
		<path id="Path 91" class="s70" d="m95.2 477.2h1.3v1.4h-1.3zm-2.7 1.3h1.3v1.4h-1.3z"/>
	</g>
</svg>