<svg version="1.2" xmlns="http://www.w3.org/2000/svg" viewBox="0 0 1000 1000" width="1000" height="1000">
	<title>Osmerus_mordax</title>
	<style>
		.s0 { opacity: .5;fill: #e6dfdf } 
		.s1 { opacity: .5;fill: #b19898 } 
		.s2 { opacity: .1;fill: #f1eded } 
		.s3 { fill: #864e50 } 
		.s4 { opacity: .1;fill: #d0bfbf } 
		.s5 { fill: #764043 } 
		.s6 { opacity: 1;fill: #a99291 } 
		.s7 { opacity: .3;fill: #dccfcf } 
		.s8 { fill: #74373a } 
		.s9 { opacity: .7;fill: #c7b5b5 } 
		.s10 { opacity: 1;fill: #8e5e60 } 
		.s11 { fill: #795455 } 
		.s12 { opacity: .1;fill: #dfd3d3 } 
		.s13 { fill: #604144 } 
		.s14 { opacity: .5;fill: #cab7b7 } 
		.s15 { fill: #6c5051 } 
		.s16 { fill: #6c2e30 } 
		.s17 { opacity: .7;fill: #886263 } 
		.s18 { fill: #382224 } 
		.s19 { fill: #5a3438 } 
		.s20 { opacity: .1;fill: #a48a89 } 
		.s21 { opacity: .1;fill: #7c5455 } 
		.s22 { fill: #442a2c } 
		.s23 { opacity: 1;fill: #9e7677 } 
		.s24 { fill: #482223 } 
		.s25 { opacity: .1;fill: #906e6e } 
		.s26 { opacity: 1;fill: #b3a2a0 } 
		.s27 { fill: #503b3d } 
		.s28 { opacity: .3;fill: #9b7677 } 
		.s29 { opacity: .3;fill: #663b3d } 
		.s30 { opacity: .5;fill: #8e6667 } 
		.s31 { opacity: 1;fill: #988986 } 
		.s32 { fill: #423235 } 
		.s33 { opacity: .7;fill: #e3d9d9 } 
		.s34 { opacity: .7;fill: #a08382 } 
		.s35 { fill: #4b3031 } 
		.s36 { opacity: .1;fill: #baa6a6 } 
		.s37 { fill: #4d484c } 
		.s38 { fill: #494346 } 
		.s39 { opacity: .3;fill: #f3eeef } 
		.s40 { opacity: .5;fill: #a08282 } 
		.s41 { fill: #534d50 } 
		.s42 { opacity: .3;fill: #c0abab } 
		.s43 { fill: #642323 } 
		.s44 { fill: #5b1c1c } 
		.s45 { opacity: .7;fill: #b69e9e } 
		.s46 { fill: #59585d } 
		.s47 { fill: #545256 } 
		.s48 { fill: #524749 } 
		.s49 { fill: #876d6d } 
		.s50 { fill: #7f4446 } 
		.s51 { fill: #5c2122 } 
		.s52 { fill: #6e747b } 
		.s53 { fill: #5a4f4f } 
		.s54 { fill: #696c71 } 
		.s55 { fill: #778089 } 
		.s56 { fill: #818b92 } 
		.s57 { fill: #64666c } 
		.s58 { fill: #929ba1 } 
		.s59 { fill: #5e5657 } 
		.s60 { fill: #a2abb1 } 
		.s61 { fill: #5d5f65 } 
		.s62 { fill: #443b3e } 
		.s63 { fill: #b5bec3 } 
		.s64 { fill: #9aa3aa } 
		.s65 { opacity: .5;fill: #815859 } 
		.s66 { fill: #642b2e } 
		.s67 { fill: #8a8b88 } 
		.s68 { opacity: .7;fill: #744b4d } 
		.s69 { fill: #d6d8dc } 
		.s70 { fill: #c7cacd } 
		.s71 { opacity: 1;fill: #b4b2b1 } 
		.s72 { fill: #787775 } 
		.s73 { fill: #999b98 } 
		.s74 { fill: #65605f } 
		.s75 { fill: #e2e4e8 } 
		.s76 { fill: #531819 } 
		.s77 { fill: #abb3b9 } 
		.s78 { opacity: .5;fill: #ded3d3 } 
		.s79 { fill: #80827f } 
		.s80 { fill: #7a736f } 
		.s81 { fill: #899399 } 
		.s82 { fill: #91938f } 
		.s83 { opacity: .5;fill: #f7f4f4 } 
		.s84 { fill: #a5a8a7 } 
		.s85 { fill: #86827d } 
		.s86 { fill: #736865 } 
		.s87 { opacity: .2;fill: #572222 } 
		.s88 { fill: #907e7c } 
		.s89 { opacity: 1;fill: #ededf1 } 
		.s90 { opacity: .1;fill: #644445 } 
		.s91 { opacity: 1;fill: #bfbbb9 } 
		.s92 { opacity: .9;fill: #dcd0d0 } 
	</style>
	<g id="Background">
		<path id="Path 0" class="s0" d="m556 405v-2h4v2z"/>
		<path id="Path 1" class="s1" d="m560 405v-2h8l3 3v1 1l-3-3z"/>
		<path id="Path 2" class="s2" d="m571 406l-3-3h2z"/>
		<path id="Path 3" class="s3" d="m548 407l7-2h1 4 8l3 3 1 2v8l-2 1-9-1-3 5h-5l-1 8-18 2v-2-10l7-12 3-2z"/>
		<path id="Path 4" class="s4" d="m524 412l7-4 13-1-3 2z"/>
		<path id="Path 5" class="s2" d="m571 408v-1l1 3z"/>
		<path id="Path 6" class="s5" d="m524 412l17-3-7 12h-14v-6l2-3z"/>
		<path id="Path 7" class="s6" d="m513 415l7-3h2l-2 3-7 1z"/>
		<path id="Path 8" class="s7" d="m509 417l4-2v1z"/>
		<path id="Path 9" class="s3" d="m513 416l7-1v6 6l-15-1-1-5 5-4z"/>
		<path id="Path 10" class="s7" d="m491 427l8-7 10-3-5 4z"/>
		<path id="Path 11" class="s8" d="m552 431l1-8h5l3-5 9 1v7 3l-3 4z"/>
		<path id="Path 12" class="s9" d="m570 419l2-1v8h-2z"/>
		<path id="Path 13" class="s5" d="m491 427l13-6 1 5-3 7h-7l-6-4 1-2z"/>
		<path id="Path 14" class="s10" d="m520 427v-6h14v10h-10z"/>
		<path id="Path 15" class="s11" d="m502 433l3-7 15 1 4 4v4h-18z"/>
		<path id="Path 16" class="s4" d="m570 429v-3h2l-2 7z"/>
		<path id="Path 17" class="s12" d="m481 432l9-5-1 2-7 3z"/>
		<path id="Path 18" class="s13" d="m482 432l7-3 6 4h7l4 2v6h-21l-4-6z"/>
		<path id="Path 19" class="s14" d="m567 433l3-4v4l-6 12-5 3v4l-2-1z"/>
		<path id="Path 20" class="s15" d="m524 435v-4h10v2 2z"/>
		<path id="Path 21" class="s16" d="m534 433l18-2 15 2-10 18h-5l-2-4h-6l-2-6h-8v-6z"/>
		<path id="Path 22" class="s17" d="m465 437l16-5h1l-1 3-8 3-7 1h-1z"/>
		<path id="Path 23" class="s18" d="m473 438l8-3 4 6-1 4-6 2h-4z"/>
		<path id="Path 24" class="s19" d="m506 441v-6h18 10v6l-8 2h-20z"/>
		<path id="Path 25" class="s9" d="m459 439l6-2v2z"/>
		<path id="Path 26" class="s4" d="m435 439l8-1v1h-2z"/>
		<path id="Path 27" class="s20" d="m443 439v-1h7v1z"/>
		<path id="Path 28" class="s21" d="m450 439v-1l7 1h-6z"/>
		<path id="Path 29" class="s22" d="m466 439l7-1 1 9h-2-6z"/>
		<path id="Path 30" class="s9" d="m434 441l1-2h6l-1 2z"/>
		<path id="Path 31" class="s23" d="m440 441l1-2h2 7 1z"/>
		<path id="Path 32" class="s24" d="m440 441l11-2h6 2 6 1v8 4h-27l-1-4h-10v-6h2 4z"/>
		<path id="Path 33" class="s12" d="m411 442l10-2v1l-9 1z"/>
		<path id="Path 34" class="s25" d="m421 441v-1l9 1h-2-3z"/>
		<path id="Path 35" class="s26" d="m412 442l9-1h4z"/>
		<path id="Path 36" class="s22" d="m412 442l13-1h3v6l-2 6-17-2-1-4v-4l3-1z"/>
		<path id="Path 37" class="s22" d="m478 447l6-2 1-4h21v2 12l-2 1h-25l-1-5z"/>
		<path id="Path 38" class="s27" d="m526 443l8-2h8l2 6-13 2z"/>
		<path id="Path 39" class="s7" d="m388 444l10-2v1l-9 1z"/>
		<path id="Path 40" class="s28" d="m398 443v-1h6v1h-1-4z"/>
		<path id="Path 41" class="s29" d="m404 443v-1h7l-3 1z"/>
		<path id="Path 42" class="s0" d="m363 446v-3h7v2z"/>
		<path id="Path 43" class="s1" d="m370 445v-2h5v2z"/>
		<path id="Path 44" class="s30" d="m375 445v-2h6v2z"/>
		<path id="Path 45" class="s29" d="m381 445v-2l3 1v1z"/>
		<path id="Path 46" class="s31" d="m389 444l9-1h1v1z"/>
		<path id="Path 47" class="s10" d="m399 444v-1h4l-1 1z"/>
		<path id="Path 48" class="s24" d="m402 444l1-1h1 4v4h-6z"/>
		<path id="Path 49" class="s32" d="m506 455v-12h20l5 6 13-2h6l2 4 2 10v2l-39-2-1-4z"/>
		<path id="Path 50" class="s22" d="m384 445v-1h4 1 10 3v3 6l-6 2-12-2z"/>
		<path id="Path 51" class="s33" d="m343 447l6-2v2z"/>
		<path id="Path 52" class="s34" d="m349 447v-2l10 1z"/>
		<path id="Path 53" class="s35" d="m363 446l7-1h5 6 3v8h-14l-2 7-22 1-8-2v-10l1-2h4 6l10-1z"/>
		<path id="Path 54" class="s33" d="m324 449l6-2v2z"/>
		<path id="Path 55" class="s34" d="m330 449v-2h9l-1 2z"/>
		<path id="Path 56" class="s32" d="m402 453v-6h6l1 4v2z"/>
		<path id="Path 57" class="s32" d="m426 453l2-6h10l1 4-2 4h-11z"/>
		<path id="Path 58" class="s32" d="m466 451v-4h6v4h-2z"/>
		<path id="Path 59" class="s35" d="m472 451v-4h2 4v4z"/>
		<path id="Path 60" class="s36" d="m313 451v-3l8 1-7 2z"/>
		<path id="Path 61" class="s22" d="m314 451l7-2h3 6 8v10l-11 2-13-4z"/>
		<path id="Path 62" class="s32" d="m303 452l8-1h2 1v6l-10 4h-18v-5l7-2h2l7-2z"/>
		<path id="Path 63" class="s37" d="m409 453v-2l17 2v2l-12 6h-4z"/>
		<path id="Path 64" class="s37" d="m437 455l2-4h27 4v8 14h-6l-4-1-3-9-9 3v6l-10-1z"/>
		<path id="Path 65" class="s38" d="m470 459v-8h2 6l1 5z"/>
		<path id="Path 66" class="s22" d="m554 461l-2-10h5l2 1 10 4h1v5z"/>
		<path id="Path 67" class="s39" d="m293 453l3-1-1 2h-2z"/>
		<path id="Path 68" class="s40" d="m295 454l1-2h6z"/>
		<path id="Path 69" class="s1" d="m569 456l-10-4 10 1z"/>
		<path id="Path 70" class="s40" d="m281 455l12-2v1l-7 2h-5z"/>
		<path id="Path 71" class="s37" d="m368 460l2-7h14l12 2v8l-21 1z"/>
		<path id="Path 72" class="s41" d="m396 455l6-2h7l1 8-14 2z"/>
		<path id="Path 73" class="s34" d="m271 457l10-2v1l-10 3z"/>
		<path id="Path 74" class="s41" d="m414 461l12-6h11l1 16h-24z"/>
		<path id="Path 75" class="s38" d="m504 456l2-1 8 2 1 4-1 4-5-1z"/>
		<path id="Path 76" class="s14" d="m909 457l13-2 5 7-2 6v-7l-3-3z"/>
		<path id="Path 77" class="s35" d="m271 459l10-3h5v5 6h-10l-6-2v-6z"/>
		<path id="Path 78" class="s41" d="m470 459l9-3h25l5 8 5 1v14l-9 2-1 3h-6l-6-2-2-5-20-4z"/>
		<path id="Path 79" class="s32" d="m570 461v-5h3l9 1h5l7 2h4l3 10v2h-13l-4-5-9-1z"/>
		<path id="Path 80" class="s9" d="m266 459l5-2v2h-1z"/>
		<path id="Path 81" class="s41" d="m304 461l10-4 13 4v9l-7 4-9-9h-7z"/>
		<path id="Path 82" class="s42" d="m876 465l19-7 12-1-15 5-12 3z"/>
		<path id="Path 83" class="s43" d="m892 462l15-5h2l-1 6-14 2z"/>
		<path id="Path 84" class="s44" d="m892 462l2 3 14-2 1-6 13 1 3 3v7 1l-5 12-3 6h-2-10l-5 4v11l-12 7-2-10-14 2 4-18-1-15 5-3z"/>
		<path id="Path 85" class="s45" d="m258 461v-3l6 1z"/>
		<path id="Path 86" class="s4" d="m599 459l10 1-9-1z"/>
		<path id="Path 87" class="s32" d="m258 461l6-2h2 4v6l-3 2h-6l-1 4h-7l-3 6h-8v-13l3-2h4l7-1z"/>
		<path id="Path 88" class="s46" d="m327 461l11-2 8 2v9l7 5-9 2-17 2-7 1v-6l7-4z"/>
		<path id="Path 89" class="s22" d="m601 469l-3-10h1 1l9 2h5l9 1h1 1l6 1 9 2v6l-3 4-3 1-9-1-5-6z"/>
		<path id="Path 90" class="s26" d="m609 461l-9-2 9 1z"/>
		<path id="Path 91" class="s47" d="m346 461l22-1 7 4 21-1 14-2h4v10l-2 2h-14l-12 2-20 1-13-1-7-5z"/>
		<path id="Path 92" class="s21" d="m609 461v-1h6l-1 1z"/>
		<path id="Path 93" class="s45" d="m614 461l1-1h5l3 2z"/>
		<path id="Path 94" class="s12" d="m623 462l-3-2 4 2z"/>
		<path id="Path 95" class="s36" d="m708 461l5-1v1z"/>
		<path id="Path 96" class="s7" d="m713 461v-1l4 2z"/>
		<path id="Path 97" class="s37" d="m286 467v-6h18v4l-6 2h-8z"/>
		<path id="Path 98" class="s48" d="m514 465l1-4 39 2 3 8 10 1 1 7h-5l-1 4-2 2-34-2-6-1h-2l-4-3z"/>
		<path id="Path 99" class="s38" d="m554 463v-2h16l5 4 9 1 4 5v8h-2l-16 2-2-2-1-7-10-1z"/>
		<path id="Path 100" class="s45" d="m705 462l3-1h5l4 1h1l1 2-5-2-7 2h-3z"/>
		<path id="Path 101" class="s39" d="m239 463l6-1-3 2h-3z"/>
		<path id="Path 102" class="s29" d="m631 463l-6-1h6z"/>
		<path id="Path 103" class="s49" d="m631 463v-1h4l8 2-3 1z"/>
		<path id="Path 104" class="s7" d="m643 464l-8-2 9 2z"/>
		<path id="Path 105" class="s7" d="m696 467l9-5-1 2z"/>
		<path id="Path 106" class="s50" d="m707 464l7-2 5 2 8 5v3 3l-6-4h-8-5z"/>
		<path id="Path 107" class="s7" d="m719 464l-1-2 6 1 3 6z"/>
		<path id="Path 108" class="s30" d="m223 467l16-4v1l-17 5z"/>
		<path id="Path 109" class="s41" d="m448 472v-6l9-3 3 9-6 3z"/>
		<path id="Path 110" class="s30" d="m646 464l6-1v2z"/>
		<path id="Path 111" class="s7" d="m652 465v-2h5v3z"/>
		<path id="Path 112" class="s18" d="m222 469l17-5h3v13 2h-10l-3 4h-5-7l-3 3v7l-9 1-7 1-10 2-12-1-7 1-1-9 6-4h1l8-3 8-2 14-5h1l6-2 1-1z"/>
		<path id="Path 113" class="s24" d="m640 465l3-1h1 2l6 1 5 1h3l9 1h2l9 2h4v2 6l-5 4h-15l-5-4-11-1-2-5h-6z"/>
		<path id="Path 114" class="s5" d="m696 467l8-3h3l1 7v4h-5l-12-4v-2l4-2z"/>
		<path id="Path 115" class="s38" d="m267 467l3-2 6 2v18h-4l-6-6v-7z"/>
		<path id="Path 116" class="s47" d="m298 467l6-2h7l9 9v6h-5l-7-1-2-4-8-2z"/>
		<path id="Path 117" class="s17" d="m869 467l7-2h4l-5 3-6 1z"/>
		<path id="Path 118" class="s20" d="m213 470l10-3-1 2-9 2z"/>
		<path id="Path 119" class="s37" d="m260 471l1-4h6l-1 5z"/>
		<path id="Path 120" class="s47" d="m276 485v-18h10 4l1 17-6 3z"/>
		<path id="Path 121" class="s46" d="m291 484l-1-17h8v6l8 2 2 4v4l-12 1z"/>
		<path id="Path 122" class="s17" d="m680 469l-9-2h9z"/>
		<path id="Path 123" class="s21" d="m680 469v-2l6 1v1h-2z"/>
		<path id="Path 124" class="s36" d="m686 468l9-1-4 2h-5z"/>
		<path id="Path 125" class="s33" d="m859 470l10-3v2l-7 2h-2z"/>
		<path id="Path 126" class="s51" d="m869 469l6-1 1 15h-8l-6-7v-5z"/>
		<path id="Path 127" class="s38" d="m601 471v-2h19l5 6-5 8h-4l-4-10z"/>
		<path id="Path 128" class="s23" d="m684 471v-2h2 5v2z"/>
		<path id="Path 129" class="s6" d="m920 481l5-12 1 6-4 5z"/>
		<path id="Path 130" class="s7" d="m209 472l4-2v1l-1 1z"/>
		<path id="Path 131" class="s45" d="m854 472l3-2h2l1 1-8 3-6 2-8 1 5-4z"/>
		<path id="Path 132" class="s47" d="m250 477l3-6h7l6 1v7l6 6-1 2-10 4h-7l-3-3z"/>
		<path id="Path 133" class="s52" d="m412 473l2-2h24l10 1 6 3 1 12 5 2 2 7v9h-22-8l-2-2v-10l-10-2-1-7-7-5z"/>
		<path id="Path 134" class="s53" d="m588 479v-8h13l11 2 4 10h-20z"/>
		<path id="Path 135" class="s38" d="m637 475l3-4h6l2 5-2 3h-6z"/>
		<path id="Path 136" class="s18" d="m684 477v-6h7l12 4-1 6h-2z"/>
		<path id="Path 137" class="s13" d="m708 475v-4h5l-1 4z"/>
		<path id="Path 138" class="s19" d="m712 475l1-4h8l6 4 1 5-6 1-10-1z"/>
		<path id="Path 139" class="s43" d="m852 474l8-3h2v5l6 7h8l-4 18-5 8h-9l-2-18-4-3v-5z"/>
		<path id="Path 140" class="s7" d="m204 473l3-1-1 2h-1z"/>
		<path id="Path 141" class="s34" d="m206 474l1-2h2 3z"/>
		<path id="Path 142" class="s54" d="m454 475l6-3 4 1v4l10 7 8 11v10l-18 1-2-1v-9l-2-7-5-2z"/>
		<path id="Path 143" class="s39" d="m727 475v-3l7 10-6-2z"/>
		<path id="Path 144" class="s34" d="m191 477l13-4 1 1-14 5z"/>
		<path id="Path 145" class="s55" d="m386 475l12-2v14h-8z"/>
		<path id="Path 146" class="s56" d="m398 487v-14h14v6l7 5 1 7 1 12-2 3-3 1-6-2v-12z"/>
		<path id="Path 147" class="s57" d="m482 505v-10l-8-11-10-7v-4h6l20 4 2 5 6 2v19z"/>
		<path id="Path 148" class="s16" d="m846 476l6-2v9h-6z"/>
		<path id="Path 149" class="s58" d="m344 477l9-2 13 1 1 8-3 5v12l8 4v5l-16 1v-5l1-10-9-7h-5l-1-6z"/>
		<path id="Path 150" class="s56" d="m366 476l20-1 4 12-8 6-6-2-5-7h-4z"/>
		<path id="Path 151" class="s59" d="m620 483l5-8 9 1 3 13-15 2z"/>
		<path id="Path 152" class="s53" d="m634 476l3-1 3 4h6l2-3 11 1 5 4v8 2h-20l-7-2z"/>
		<path id="Path 153" class="s22" d="m702 481l1-6h5 4v5z"/>
		<path id="Path 154" class="s8" d="m838 477l8-1v7l-1 5-9 1-7-8 8-4z"/>
		<path id="Path 155" class="s42" d="m179 482l12-5v2l-8 2z"/>
		<path id="Path 156" class="s37" d="m242 479v-2h8l1 11 3 3h7l6 5v2l-4 3-11-8-3-2v-3l-7-4z"/>
		<path id="Path 157" class="s56" d="m327 479l17-2-2 6-10 1z"/>
		<path id="Path 158" class="s27" d="m679 481l5-4 16 4v12h-10l-2-6h-6z"/>
		<path id="Path 159" class="s42" d="m819 482l18-5-8 4z"/>
		<path id="Path 160" class="s41" d="m229 483l3-4h10v5 9l-5 2v5l5 2-5 5-9-8z"/>
		<path id="Path 161" class="s57" d="m308 483v-4l7 1v3z"/>
		<path id="Path 162" class="s60" d="m320 480l7-1 5 5 1 8 5 3 3 11 1-11 1-6h5l9 7-1 10-11-1v8h-21v-4-6-10l-7-4-2-6v-3z"/>
		<path id="Path 163" class="s54" d="m504 484l1-3 9-2 4 3-2 7z"/>
		<path id="Path 164" class="s37" d="m562 483l1-4h5l2 2v2z"/>
		<path id="Path 165" class="s46" d="m570 481l16-2-2 11 2 13v2h-6l-2-4-8-1v-5-12z"/>
		<path id="Path 166" class="s61" d="m586 503l-2-13 2-11h2l8 4h20 4l2 8 4 12v6l-2 2h-9l-3 4-8 1-4-1-2-11z"/>
		<path id="Path 167" class="s48" d="m702 481l10-1 10 1 2 14-8 2h-10-4l-2-4v-12z"/>
		<path id="Path 168" class="s27" d="m722 481l6-1 6 2h5l1 1v8 4h-12-4z"/>
		<path id="Path 169" class="s7" d="m920 481l2-1-1 5-4 2z"/>
		<path id="Path 170" class="s45" d="m179 482l4-1-8 3 1-2z"/>
		<path id="Path 171" class="s57" d="m520 482l6 1-2 1z"/>
		<path id="Path 172" class="s48" d="m664 489v-8h15l3 6v6h-9l-1-4z"/>
		<path id="Path 173" class="s19" d="m819 482l10-1 7 8v16l6 7-4 13h-12l-1-4 1-22-8-8v-6-2z"/>
		<path id="Path 174" class="s42" d="m169 485l7-3-1 2h-1z"/>
		<path id="Path 175" class="s52" d="m504 484l12 5 2-7h2l4 2-3 19h-1-22v-19z"/>
		<path id="Path 176" class="s7" d="m740 483l-1-1 7 2z"/>
		<path id="Path 177" class="s39" d="m809 483l5-1v1l-4 1z"/>
		<path id="Path 178" class="s28" d="m814 483v-1h5l-1 1z"/>
		<path id="Path 179" class="s32" d="m214 493v-7l3-3h7v6l-4 4z"/>
		<path id="Path 180" class="s62" d="m220 493l4-4v-6h5l-1 16h-6z"/>
		<path id="Path 181" class="s63" d="m296 484l12-1h7l2 6 7 4v10l-4 1v5l-2 6-11-2-2-5-11-1-1-6 1-8-3-2z"/>
		<path id="Path 182" class="s64" d="m332 484l10-1 1 6-1 6h-4l-5-3z"/>
		<path id="Path 183" class="s61" d="m524 484l2-1 34 2 4 10 1 6-7 7v5l-29-4-1-4-7-2z"/>
		<path id="Path 184" class="s47" d="m560 485l2-2h8v12h-6z"/>
		<path id="Path 185" class="s38" d="m740 491v-8l6 1v7z"/>
		<path id="Path 186" class="s30" d="m748 484l5-1v2h-3z"/>
		<path id="Path 187" class="s7" d="m753 485v-2h6v3z"/>
		<path id="Path 188" class="s0" d="m796 485l8-2v2l-6 1h-2z"/>
		<path id="Path 189" class="s65" d="m804 485v-2h5l1 1v1h-4z"/>
		<path id="Path 190" class="s49" d="m810 484l4-1h4v2h-6-2z"/>
		<path id="Path 191" class="s66" d="m836 489l9-1 1-5h6v5l4 3 2 18-2 6 2 2 2 12h-20l-2-4 4-13-6-7z"/>
		<path id="Path 192" class="s45" d="m169 485l5-1-6 4-4 1 1-2z"/>
		<path id="Path 193" class="s67" d="m242 493v-9l7 4v3l-4 2z"/>
		<path id="Path 194" class="s60" d="m276 485l9 2 6-3h5l-5 7h-7l-13-1v-3l1-2z"/>
		<path id="Path 195" class="s64" d="m372 510v-5l-8-4v-12l3-5h4l5 7 6 2v16z"/>
		<path id="Path 196" class="s62" d="m746 491v-7h2l2 1v6z"/>
		<path id="Path 197" class="s27" d="m750 491v-6h3l6 1h2l1 1v6h-10z"/>
		<path id="Path 198" class="s68" d="m761 486l7-1v2h-6z"/>
		<path id="Path 199" class="s40" d="m768 487v-2h7v2z"/>
		<path id="Path 200" class="s14" d="m775 487v-2h14v2h-9z"/>
		<path id="Path 201" class="s68" d="m789 487v-2h7v1z"/>
		<path id="Path 202" class="s49" d="m798 486l6-1h2l-2 1z"/>
		<path id="Path 203" class="s18" d="m804 486l2-1h4 2v6l-7 1z"/>
		<path id="Path 204" class="s22" d="m812 491v-6h6v6z"/>
		<path id="Path 205" class="s32" d="m789 487l7-1h2 6l1 6 7-1h6l8 8-1 22-10-1 1-13-6-1-18-5-5-4-7-1v-9z"/>
		<path id="Path 206" class="s7" d="m156 492l9-5-1 2z"/>
		<path id="Path 207" class="s64" d="m261 491l10-4v3l-4 6z"/>
		<path id="Path 208" class="s58" d="m382 493l8-6h8l12 6v12h-12l-4 6-12-2z"/>
		<path id="Path 209" class="s53" d="m682 493v-6h6l2 6z"/>
		<path id="Path 210" class="s35" d="m762 493v-6h6 7 5v9l-5 3h-7v-3z"/>
		<path id="Path 211" class="s43" d="m900 502v-11l5-4h10l-3 6-5 5-3 3z"/>
		<path id="Path 212" class="s7" d="m912 493l3-6h2z"/>
		<path id="Path 213" class="s19" d="m164 489l4-1 1 9-1 2-6 6h-12v-6l-3-1 6-4 3-2z"/>
		<path id="Path 214" class="s46" d="m622 491l15-2 7 2 2 13-8 2-6-3h-6z"/>
		<path id="Path 215" class="s59" d="m664 491v-2h8l1 4-7 2z"/>
		<path id="Path 216" class="s63" d="m267 496l4-6 13 1 2 10-2 12v11h-4l-3 6-2 2-6-3 1-12-2-6-8 1-3-4v-6l-5-5v-4l11 8 8 6 2 5h3l-2-5-7-9z"/>
		<path id="Path 217" class="s69" d="m245 493l4-2 3 2v4h-7z"/>
		<path id="Path 218" class="s70" d="m286 501l-2-10h7l3 2-1 8z"/>
		<path id="Path 219" class="s55" d="m421 503l-1-12 10 2v10z"/>
		<path id="Path 220" class="s61" d="m646 504l-2-13h20l2 4 7-2h9 8v11l-18 3-5-4z"/>
		<path id="Path 221" class="s48" d="m740 495v-4h6v6z"/>
		<path id="Path 222" class="s59" d="m746 497v-6h4l2 2v6h-6z"/>
		<path id="Path 223" class="s7" d="m153 493l3-1-3 2z"/>
		<path id="Path 224" class="s42" d="m141 498l12-5v1l-6 4-6 2z"/>
		<path id="Path 225" class="s48" d="m205 494l9-1h6l2 6-3 4-7-3-6-2z"/>
		<path id="Path 226" class="s71" d="m242 502l-5-2v-5l5-2h3v4z"/>
		<path id="Path 227" class="s54" d="m690 504v-11h10l2 4v6l-4 1z"/>
		<path id="Path 228" class="s41" d="m752 499v-6h10l6 3v3l-10 2z"/>
		<path id="Path 229" class="s72" d="m198 495l7-1 1 4h-7z"/>
		<path id="Path 230" class="s73" d="m176 496l12 1 6 7-2 10-5-1-1-3-4 1v-7l-5-3z"/>
		<path id="Path 231" class="s74" d="m188 497l10-2 1 3 2 20-2 3h-5l-2-3v-4l2-10z"/>
		<path id="Path 232" class="s63" d="m342 495l-1 11-3-11z"/>
		<path id="Path 233" class="s57" d="m565 501l-1-6h6v5z"/>
		<path id="Path 234" class="s54" d="m716 497l8-2h4l-2 10-10-3z"/>
		<path id="Path 235" class="s61" d="m726 505l2-10h12l6 2v2 10l-19-1z"/>
		<path id="Path 236" class="s67" d="m169 497l7-1 1 5-7 2-2-4z"/>
		<path id="Path 237" class="s59" d="m775 499l5-3 7 1v4l-5 2z"/>
		<path id="Path 238" class="s75" d="m242 502l3-5h7l5 5v6l-5 2v7 7l-4 11h-6l-5-6h-4l-4-4-2-9 7-7 3-2z"/>
		<path id="Path 239" class="s52" d="m702 503v-6h4v6z"/>
		<path id="Path 240" class="s57" d="m706 503v-6h10v5l-6 4z"/>
		<path id="Path 241" class="s47" d="m787 501v-4l5 4z"/>
		<path id="Path 242" class="s7" d="m136 502l5-4v2z"/>
		<path id="Path 243" class="s24" d="m141 500l6-2 3 1v6l-2 4-14 2-5-2 1-2 5-5h1z"/>
		<path id="Path 244" class="s70" d="m199 521l2-3-2-20h7l6 2v17l-6 5-2 3h-4z"/>
		<path id="Path 245" class="s52" d="m263 501l4-3 7 9h-3z"/>
		<path id="Path 246" class="s20" d="m904 501l3-3-3 4z"/>
		<path id="Path 247" class="s70" d="m162 505l6-6 2 4-1 7 5 6 6-1 2-4 4-1 1 3-2 10-8 1-1-5-9 1-6-7z"/>
		<path id="Path 248" class="s38" d="m219 503l3-4h6l9 8-3 2-8 3h-6z"/>
		<path id="Path 249" class="s54" d="m746 509v-10h6l6 2v9z"/>
		<path id="Path 250" class="s52" d="m758 501l10-2h7l7 4 2 14-23-4-3-3z"/>
		<path id="Path 251" class="s76" d="m872 501l14-2 2 10-1 2-3 2h-2-2l-4 3 4 2v3h-10l-2-4-1-8z"/>
		<path id="Path 252" class="s56" d="m212 517v-17l7 3 1 9 2 5v10h-7l-2-3z"/>
		<path id="Path 253" class="s59" d="m565 501l5-1 8 1 2 4 2 8v4l-9 8h-5l-3-5h-5l-2-7v-5z"/>
		<path id="Path 254" class="s18" d="m170 503l7-2 5 3v7l-2 4-6 1-5-6z"/>
		<path id="Path 255" class="s77" d="m284 513l2-12h7l1 6v4z"/>
		<path id="Path 256" class="s55" d="m782 503l5-2h5l18 5-3 14-3 1-16-2-4-2z"/>
		<path id="Path 257" class="s14" d="m900 502l4-1v1l-14 9h-3l1-2z"/>
		<path id="Path 258" class="s78" d="m128 507l3-5h4l-5 5z"/>
		<path id="Path 259" class="s48" d="m710 506l6-4 10 3 1 3 19 1 12 1 3 3-1 4h-28l-2 3-10 1-10-2h-2z"/>
		<path id="Path 260" class="s77" d="m320 509v-5l4-1v6z"/>
		<path id="Path 261" class="s61" d="m419 506l2-3h9l2 2v8h-6z"/>
		<path id="Path 262" class="s59" d="m482 505l16-2h22v8l-2 6h-13l-11-1-28-1h-2v-9z"/>
		<path id="Path 263" class="s53" d="m520 511v-8h1l7 2 1 4z"/>
		<path id="Path 264" class="s47" d="m586 505v-2l12 1 2 11h-8l-4-3z"/>
		<path id="Path 265" class="s41" d="m626 509v-6h6v6z"/>
		<path id="Path 266" class="s47" d="m632 509v-6l6 3-1 4h-3z"/>
		<path id="Path 267" class="s59" d="m646 504l21-1 5 4v12l-38 2v-4-7h3l1-4z"/>
		<path id="Path 268" class="s38" d="m698 504l4-1h4l4 3-2 13h-10z"/>
		<path id="Path 269" class="s48" d="m672 507l18-3h8v15l-10 2h-10l-6-2z"/>
		<path id="Path 270" class="s13" d="m148 509l2-4h12l-1 8 6 7 1 2-4 4v7l-14 2h-2l-4-2-1-2 1-9 4-1-2-4z"/>
		<path id="Path 271" class="s56" d="m345 513v-8l11 1v5l-2 3z"/>
		<path id="Path 272" class="s79" d="m382 509l12 2 4-6h12l6 2 1 9-5 13h-10l-4-4h-9l-3 8h-6l-6-9-12-3h-6l-2-7 2-3 16-1z"/>
		<path id="Path 273" class="s46" d="m432 513v-8h8v8z"/>
		<path id="Path 274" class="s74" d="m440 513v-8h22l2 1v9h-6z"/>
		<path id="Path 275" class="s38" d="m582 513l-2-8h6l2 7z"/>
		<path id="Path 276" class="s80" d="m416 507l3-1 7 7v4l-9-1z"/>
		<path id="Path 277" class="s46" d="m804 521l3-1 3-14 6 1-1 13-3 3h-8z"/>
		<path id="Path 278" class="s78" d="m126 509l2-2v2z"/>
		<path id="Path 279" class="s34" d="m128 509v-2h2l-1 2z"/>
		<path id="Path 280" class="s55" d="m274 507l2 5h-3l-2-5z"/>
		<path id="Path 281" class="s64" d="m294 511v-4l11 1 2 5-4 1z"/>
		<path id="Path 282" class="s69" d="m252 517v-7l5-2 3 4-1 3z"/>
		<path id="Path 283" class="s34" d="m126 510v-1h2l-2 5-1-1z"/>
		<path id="Path 284" class="s22" d="m126 514l2-5h1l5 2v7l4 3v7h-2l-7-5-3-4v-2z"/>
		<path id="Path 285" class="s32" d="m134 511l14-2-2 8-3 4h-5l-4-3z"/>
		<path id="Path 286" class="s73" d="m226 512l8-3-7 7-2-1z"/>
		<path id="Path 287" class="s67" d="m307 513l11 2 2-6h4v4 10h-16l-5-9z"/>
		<path id="Path 288" class="s74" d="m520 511l9-2 29 4 2 7-2 3-23 3-4-5h-11l-2-4z"/>
		<path id="Path 289" class="s74" d="m624 511l2-2h6l2 1v7h-8z"/>
		<path id="Path 290" class="s18" d="m858 517l-2-2 2-6h9l1 8z"/>
		<path id="Path 291" class="s12" d="m124 513v-3h2l-1 3z"/>
		<path id="Path 292" class="s81" d="m260 512l8-1 2 6h-11v-2z"/>
		<path id="Path 293" class="s73" d="m284 513l10-2 9 3 5 9h16l20 2 2 7-5 5-15 2-19-2-10-6h-13v-7z"/>
		<path id="Path 294" class="s48" d="m612 515l3-4h9l2 6h8v4l-2 10h-10l-3-6-7-2z"/>
		<path id="Path 295" class="s7" d="m884 513l3-2h3z"/>
		<path id="Path 296" class="s53" d="m222 517l-2-5h6l-1 3z"/>
		<path id="Path 297" class="s54" d="m582 513l6-1 4 3v10 4h-14l-5-4 9-8z"/>
		<path id="Path 298" class="s30" d="m124 517v-4h1l1 1v3z"/>
		<path id="Path 299" class="s77" d="m185 523l2-10 5 1v4z"/>
		<path id="Path 300" class="s82" d="m324 523v-10h21l9 1 2 7h6l4 22v6l-20-2-11 1-1 6h-6l-2-1v-1l-2-5h-4l-10-2-3-8 19 2 15-2 5-5-2-7z"/>
		<path id="Path 301" class="s79" d="m426 517v-4h6 8l18 2v8h3l5-8 28 1v15l-13 6-8-1-3-6h-8l-3 5-14 4-15-4z"/>
		<path id="Path 302" class="s27" d="m760 517l1-4 23 4 4 2-1 3-13 1z"/>
		<path id="Path 303" class="s49" d="m880 518l-4-2 4-3 1 4h3 2l2 2z"/>
		<path id="Path 304" class="s83" d="m884 517h-3l-1-4h2z"/>
		<path id="Path 305" class="s79" d="m222 517l3-2 2 1 2 9-1 2h-6z"/>
		<path id="Path 306" class="s58" d="m252 517l7-2v2l-2 7h-5z"/>
		<path id="Path 307" class="s72" d="m466 515l-5 8h-3v-8h6z"/>
		<path id="Path 308" class="s72" d="m494 516l11 1-1 10-4 1v3h-6z"/>
		<path id="Path 309" class="s57" d="m592 525v-10h8l4 1v7z"/>
		<path id="Path 310" class="s37" d="m604 516l8-1v8l-4 2-4-2z"/>
		<path id="Path 311" class="s82" d="m412 529l5-13 9 1 4 18h-6l-4 4h-6z"/>
		<path id="Path 312" class="s1" d="m124 519v-2h2v2z"/>
		<path id="Path 313" class="s53" d="m143 521l3-4 2 4-4 1z"/>
		<path id="Path 314" class="s77" d="m206 522l6-5 1 7z"/>
		<path id="Path 315" class="s55" d="m257 524l2-7h11l-1 12-6 6-4-4z"/>
		<path id="Path 316" class="s79" d="m504 527l1-10h13l2 4h11l4 5-1 7-14 2h-9l-2-1v-4z"/>
		<path id="Path 317" class="s35" d="m720 521l10-1 2-3h28l14 6 13-1 1-3 16 2v2l-4 9-8-1h-23-18-19-6-2v-4l-4-2z"/>
		<path id="Path 318" class="s51" d="m860 529l-2-12h10l2 4h10l8 3v7l-3 2-11-2h-11z"/>
		<path id="Path 319" class="s4" d="m888 519l-2-2 10 5z"/>
		<path id="Path 320" class="s59" d="m185 523l7-5 2 3-6 8h-4l-4 6h-4l-4-3v-8h5z"/>
		<path id="Path 321" class="s43" d="m880 521v-3l8 1 8 3 8 5 5 4 17 20v2h-12l-4-2v-4-6l-7-1-6-9h-9v-7z"/>
		<path id="Path 322" class="s0" d="m124 521v-2h2l3 4z"/>
		<path id="Path 323" class="s82" d="m167 520l9-1 1 5h-5l-4-2z"/>
		<path id="Path 324" class="s27" d="m634 521l38-2 6 2v6l-1 3h-7l-4 7h-2l-12-2-18-2-2-2z"/>
		<path id="Path 325" class="s35" d="m688 521l10-2h10 2v6l-20 3-2-1z"/>
		<path id="Path 326" class="s32" d="m710 525v-6l10 2v4z"/>
		<path id="Path 327" class="s72" d="m535 526l23-3 2-3h5l3 5-1 6h-12l-3 4-8 1-2 3h-8v-6z"/>
		<path id="Path 328" class="s18" d="m804 523h8l3-3 10 1 1 4-2 6-10 6-11-3-3-2z"/>
		<path id="Path 329" class="s15" d="m182 547v-4h4l6 2v4l-8-1h-1z"/>
		<path id="Path 330" class="s35" d="m138 528v-7h5l1 1-1 9z"/>
		<path id="Path 331" class="s84" d="m188 529l6-8h5l1 4h4v3l-16 3z"/>
		<path id="Path 332" class="s67" d="m366 543l-4-22 12 3 6 9v5l-8 5z"/>
		<path id="Path 333" class="s19" d="m678 527v-6h10v6z"/>
		<path id="Path 334" class="s53" d="m164 533v-7l4-4 4 2v8l-5 1z"/>
		<path id="Path 335" class="s54" d="m204 525l2-3 7 2 2 3-3 6h-6l-2-5z"/>
		<path id="Path 336" class="s4" d="m904 527l-8-5 6 1z"/>
		<path id="Path 337" class="s42" d="m136 528l-5-1-2-4z"/>
		<path id="Path 338" class="s74" d="m592 525l12-2 4 2 2 14-6 2h-4-1-5l-2-12z"/>
		<path id="Path 339" class="s27" d="m608 525l4-2 7 2 3 6-2 8h-10z"/>
		<path id="Path 340" class="s60" d="m248 535l4-11h5l2 7-6 3 1 10-4 1h-2v-3l2-1z"/>
		<path id="Path 341" class="s84" d="m277 530l3-6h4v7z"/>
		<path id="Path 342" class="s70" d="m228 527l1-2 4 4h-5z"/>
		<path id="Path 343" class="s73" d="m386 533l3-8h9l4 4v8l-14 2-2-1z"/>
		<path id="Path 344" class="s80" d="m567 531l1-6h5l5 4v4h-11z"/>
		<path id="Path 345" class="s24" d="m690 528l20-3h10l4 2v4l-3 3-31 1z"/>
		<path id="Path 346" class="s76" d="m814 537l10-6 2-6h12l2 4v4h-3l-8 10-8-2z"/>
		<path id="Path 347" class="s82" d="m212 533l3-6h7 6v2l4 16 4 2v4h-22z"/>
		<path id="Path 348" class="s85" d="m500 531v-3l4-1 5 3v4h-7z"/>
		<path id="Path 349" class="s18" d="m677 530l1-3h10l2 1v7l-2 2h-9z"/>
		<path id="Path 350" class="s36" d="m909 531l-5-4 8 4z"/>
		<path id="Path 351" class="s42" d="m144 533l-6-1-2-4h2l5 3z"/>
		<path id="Path 352" class="s85" d="m188 531l16-3 2 5h6l2 18h-2-1-14l-5-1v-1-4l-6-2z"/>
		<path id="Path 353" class="s73" d="m180 535l4-6h4v2l-2 12h-4z"/>
		<path id="Path 354" class="s71" d="m236 547l-4-2-4-16h5 4l5 6v5l6 2v3l-7 2z"/>
		<path id="Path 355" class="s77" d="m263 535l6-6 6 3v5l-9 4-4-2z"/>
		<path id="Path 356" class="s67" d="m402 537v-8h10l2 10h-2z"/>
		<path id="Path 357" class="s86" d="m578 533v-4h14l2 12h-12z"/>
		<path id="Path 358" class="s43" d="m840 533v-4h20l3 2v7l5 5h6l3 5 13 6 16 7h8l6 6-1 2h-2-5-9-3-2l-5-1h-1l-16-5h-2l-4-2-14-6-1-8-11-4v-8z"/>
		<path id="Path 359" class="s72" d="m275 532l2-2 7 1v10h-8l-1-4z"/>
		<path id="Path 360" class="s80" d="m459 535l3-5h8l3 6-1 1h-12z"/>
		<path id="Path 361" class="s24" d="m666 537l4-7h7l2 7z"/>
		<path id="Path 362" class="s54" d="m254 544l-1-10 6-3 4 4-1 4 4 2v4h-6z"/>
		<path id="Path 363" class="s85" d="m284 541v-10h13l10 6 3 8 10 2v4h-34z"/>
		<path id="Path 364" class="s86" d="m481 537l13-6h6l2 3h7l2 1 1 8h8v4l-4 10h-6l-2-6h-6l-5 5-14-5-4-2 1-6z"/>
		<path id="Path 365" class="s86" d="m552 535l3-4h12v2l-1 8h-7-7z"/>
		<path id="Path 366" class="s35" d="m620 539l2-8h10l2 2v6h-11z"/>
		<path id="Path 367" class="s4" d="m721 534l3-3h2v1l-14 15-5 1z"/>
		<path id="Path 368" class="s25" d="m726 532v-1h6v1z"/>
		<path id="Path 369" class="s21" d="m732 532v-1h19v1z"/>
		<path id="Path 370" class="s87" d="m751 532v-1h18v1z"/>
		<path id="Path 371" class="s9" d="m769 532v-1h23v2z"/>
		<path id="Path 372" class="s34" d="m792 533v-2l8 1 3 2v1z"/>
		<path id="Path 373" class="s44" d="m874 543h-6l-5-5v-7h11z"/>
		<path id="Path 374" class="s76" d="m874 543v-12l11 2v6l4 4 9 4h12v4l4 2v8h-8l-16-7-13-6z"/>
		<path id="Path 375" class="s44" d="m885 533l3-2h9l6 9 7 1v6h-12l-9-4-4-4z"/>
		<path id="Path 376" class="s6" d="m926 551l-17-20h3l9 6 3 8 3 4v1 1z"/>
		<path id="Path 377" class="s67" d="m167 533l5-1 4 3v10h-3-1l-5-2-2-2z"/>
		<path id="Path 378" class="s42" d="m172 544h1v1h-1z"/>
		<path id="Path 379" class="s88" d="m150 535l14-2h3l-2 8-9-3h-2z"/>
		<path id="Path 380" class="s82" d="m380 538v-5h6v5z"/>
		<path id="Path 381" class="s86" d="m520 535l14-2v6 2h-14z"/>
		<path id="Path 382" class="s59" d="m566 541l1-8h11l4 8h-5z"/>
		<path id="Path 383" class="s18" d="m634 539v-6l18 2v5l-13 3-4-2z"/>
		<path id="Path 384" class="s66" d="m829 543l8-10h3l4 2v8h-5l-2 5h-3l-4-3z"/>
		<path id="Path 385" class="s16" d="m690 535l31-1-14 14-3 1-12-4-4-8z"/>
		<path id="Path 386" class="s1" d="m803 535v-1l11 3 7 4 1 2z"/>
		<path id="Path 387" class="s39" d="m154 538l-6-3h2z"/>
		<path id="Path 388" class="s82" d="m176 545v-10h4l2 8v4z"/>
		<path id="Path 389" class="s89" d="m248 542l-6-2v-5h6l2 6z"/>
		<path id="Path 390" class="s86" d="m420 539l4-4h6l15 4 14-4 1 2v8l-9 1h-1l-21 1h-9z"/>
		<path id="Path 391" class="s59" d="m520 543h-8l-1-8h9v6z"/>
		<path id="Path 392" class="s74" d="m542 539l2-3 8-1v6l-7 1v1h-3z"/>
		<path id="Path 393" class="s35" d="m652 540v-5l12 2-3 4z"/>
		<path id="Path 394" class="s53" d="m472 537l1-1 8 1-1 6h-6z"/>
		<path id="Path 395" class="s79" d="m266 541l9-4 1 4-6 4h-4z"/>
		<path id="Path 396" class="s80" d="m388 539l14-2 10 2v8l-2 1h-8-1l-7-1h-6z"/>
		<path id="Path 397" class="s74" d="m460 545v-8h12l2 6h6l-1 6-6-1h-1l-6-2z"/>
		<path id="Path 398" class="s8" d="m661 541l3-4h2 13 9l4 8v13l-5 5-2 1-13 1h-2l-3-1h-4l-2-2h-2l-1-1-7-5 10-8z"/>
		<path id="Path 399" class="s36" d="m167 543l-11-5 9 3z"/>
		<path id="Path 400" class="s72" d="m372 543l8-5h6l2 1v8l-2 2h-3-9-2z"/>
		<path id="Path 401" class="s72" d="m412 547v-8h2 6v8z"/>
		<path id="Path 402" class="s48" d="m534 541v-2h8v4h-6z"/>
		<path id="Path 403" class="s6" d="m604 541l6-2h10 3l-1 2z"/>
		<path id="Path 404" class="s9" d="m622 541l1-2h11l1 2z"/>
		<path id="Path 405" class="s5" d="m639 543l13-3 9 1v7l-10 8z"/>
		<path id="Path 406" class="s49" d="m270 545l6-4h8l2 10h-5-10-1z"/>
		<path id="Path 407" class="s74" d="m520 543v-2h14l2 2v6h-4l-12-2z"/>
		<path id="Path 408" class="s90" d="m545 542l7-1h7v1h-10z"/>
		<path id="Path 409" class="s9" d="m559 542v-1h7 11v1z"/>
		<path id="Path 410" class="s90" d="m577 542v-1h5 12 5v1z"/>
		<path id="Path 411" class="s36" d="m599 541h1v1h-1z"/>
		<path id="Path 412" class="s20" d="m600 542v-1h4 18 13v2z"/>
		<path id="Path 413" class="s9" d="m635 543v-2l4 2 12 13 7 5v2h-4l-14-15-2-2z"/>
		<path id="Path 414" class="s23" d="m822 543l-1-2 8 2 1 2-7-2z"/>
		<path id="Path 415" class="s78" d="m545 543v-1h4l3 5h-1l-5-3z"/>
		<path id="Path 416" class="s79" d="m366 549v-6h6v6z"/>
		<path id="Path 417" class="s13" d="m536 549v-6h6 3l1 1v7z"/>
		<path id="Path 418" class="s42" d="m834 548l-8-1-3-4 7 2z"/>
		<path id="Path 419" class="s16" d="m837 548l2-5h5l11 4 1 8-8-2h-2-1z"/>
		<path id="Path 420" class="s53" d="m250 545l4-1 6 1v6h-5-1l-4-2z"/>
		<path id="Path 421" class="s11" d="m546 551v-7l5 3 1 4z"/>
		<path id="Path 422" class="s42" d="m183 548l-10-3h3l6 2z"/>
		<path id="Path 423" class="s23" d="m241 547l7-2h2v4l4 2h-11z"/>
		<path id="Path 424" class="s11" d="m260 551v-6h6 4v6h-5z"/>
		<path id="Path 425" class="s26" d="m429 547l21-1-19 2h-2z"/>
		<path id="Path 426" class="s65" d="m451 546l9-1 6 1v1h-15z"/>
		<path id="Path 427" class="s5" d="m692 558v-13l12 4-10 9z"/>
		<path id="Path 428" class="s42" d="m431 548l19-2h1v1z"/>
		<path id="Path 429" class="s1" d="m466 547v-1l6 2z"/>
		<path id="Path 430" class="s26" d="m236 551v-4h5l2 4z"/>
		<path id="Path 431" class="s88" d="m320 551v-4h4l2 5z"/>
		<path id="Path 432" class="s67" d="m334 554l1-6 11-1-2 8z"/>
		<path id="Path 433" class="s88" d="m344 555l2-8 20 2 3 5v1l3 5v3h-3-1l-3-2h-2l-3-2-7-1h-4l-5-2z"/>
		<path id="Path 434" class="s26" d="m386 549l2-2h6v2h-5z"/>
		<path id="Path 435" class="s91" d="m394 549v-2l7 1z"/>
		<path id="Path 436" class="s28" d="m410 548l2-1h8 9v1z"/>
		<path id="Path 437" class="s11" d="m510 557h6l4-10 12 2 3 9 9 4v5l-2 1h-1-2l-5-1-6-1-16-2-2-2z"/>
		<path id="Path 438" class="s9" d="m552 551l-1-4h1l4 20h-2l-1-1z"/>
		<path id="Path 439" class="s42" d="m191 550l-7-2 8 1v1z"/>
		<path id="Path 440" class="s4" d="m394 549l7-1h1l-13 2v-1z"/>
		<path id="Path 441" class="s4" d="m483 552l-10-4 6 1 4 2z"/>
		<path id="Path 442" class="s12" d="m704 549l3-1-8 9-5 1z"/>
		<path id="Path 443" class="s42" d="m845 553l-11-5h3z"/>
		<path id="Path 444" class="s92" d="m369 554l-3-5h6 2v1l-4 2-1 1z"/>
		<path id="Path 445" class="s25" d="m374 550v-1h9v1z"/>
		<path id="Path 446" class="s36" d="m383 550v-1h3 3v1z"/>
		<path id="Path 447" class="s5" d="m544 567v-5l-9-4-3-9h4l10 2h6l1 15-7 1z"/>
		<path id="Path 448" class="s12" d="m197 552l-6-2h1l5 1z"/>
		<path id="Path 449" class="s12" d="m927 551v-1l2 3z"/>
		<path id="Path 450" class="s90" d="m197 552v-1h14v1z"/>
		<path id="Path 451" class="s36" d="m211 551h1v1h-1z"/>
		<path id="Path 452" class="s20" d="m212 552v-1h2 22 7 11 1v1z"/>
		<path id="Path 453" class="s25" d="m255 552v-1h5 5v1z"/>
		<path id="Path 454" class="s90" d="m265 552v-1h5 1v1z"/>
		<path id="Path 455" class="s33" d="m271 552v-1h10v2z"/>
		<path id="Path 456" class="s9" d="m281 553v-2h5 34l6 1v1z"/>
		<path id="Path 457" class="s0" d="m483 552v-1l14 5 6 4z"/>
		<path id="Path 458" class="s80" d="m497 556l5-5h6l2 6v5l-4-1-3-1z"/>
		<path id="Path 459" class="s26" d="m926 553v-2h1l2 2 1 3v1 1h-1z"/>
		<path id="Path 460" class="s2" d="m369 554v-1l2 3-2-1z"/>
		<path id="Path 461" class="s0" d="m848 555l-2-2h2z"/>
		<path id="Path 462" class="s34" d="m848 555v-2l8 2 14 6-6-1h-2l-3-2h-3l-4-2-3-1z"/>
		<path id="Path 463" class="s44" d="m914 561v-8h12l3 5v3l-1 3-4 3h-4z"/>
		<path id="Path 464" class="s2" d="m930 556l-1-3 2 1v2z"/>
		<path id="Path 465" class="s1" d="m344 557l-16-3h6l10 1v1z"/>
		<path id="Path 466" class="s78" d="m372 560l-3-5 2 1z"/>
		<path id="Path 467" class="s0" d="m850 556l-1-1 3 1z"/>
		<path id="Path 468" class="s4" d="m344 557v-1l5 2z"/>
		<path id="Path 469" class="s12" d="m856 558l-6-2h2z"/>
		<path id="Path 470" class="s36" d="m930 556h1v1h-1z"/>
		<path id="Path 471" class="s25" d="m930 558v-1h1v5h-1v-1z"/>
		<path id="Path 472" class="s4" d="m360 561l-7-3 7 1z"/>
		<path id="Path 473" class="s2" d="m687 563l5-5h2l-2 4z"/>
		<path id="Path 474" class="s17" d="m929 561v-3h1v3z"/>
		<path id="Path 475" class="s9" d="m360 561v-2l3 2z"/>
		<path id="Path 476" class="s78" d="m369 563h3v-3l2 5z"/>
		<path id="Path 477" class="s4" d="m506 562l-3-2 3 1z"/>
		<path id="Path 478" class="s12" d="m874 563l-10-3 6 1z"/>
		<path id="Path 479" class="s4" d="m365 563l-5-2h3 2z"/>
		<path id="Path 480" class="s9" d="m365 563v-2l3 2z"/>
		<path id="Path 481" class="s0" d="m506 562v-1l4 1 2 2v1z"/>
		<path id="Path 482" class="s23" d="m658 563v-2l1 1v1z"/>
		<path id="Path 483" class="s23" d="m928 564l1-3h1v1 1l-1 1z"/>
		<path id="Path 484" class="s33" d="m929 563h1v1h-1z"/>
		<path id="Path 485" class="s1" d="m659 563v-1h2l2 2h4l3 1h2v2h-7z"/>
		<path id="Path 486" class="s4" d="m930 563v-1h1v3h-2v-1z"/>
		<path id="Path 487" class="s2" d="m685 564l2-1-2 2z"/>
		<path id="Path 488" class="s45" d="m892 568l-11-1-5-4z"/>
		<path id="Path 489" class="s1" d="m512 565v-1l16 2v1z"/>
		<path id="Path 490" class="s30" d="m672 565l13-1v1l-13 2z"/>
		<path id="Path 491" class="s14" d="m924 567l4-3h1v1l-5 3z"/>
		<path id="Path 492" class="s7" d="m528 567v-1l6 1v1z"/>
		<path id="Path 493" class="s6" d="m546 567l7-1 1 1-1 2h-6-1z"/>
		<path id="Path 494" class="s28" d="m534 568v-1l5 1z"/>
		<path id="Path 495" class="s91" d="m542 568l2-1h2v2z"/>
		<path id="Path 496" class="s0" d="m553 569l1-2h2v3h-3z"/>
		<path id="Path 497" class="s6" d="m893 568l5 1h-2z"/>
		<path id="Path 498" class="s31" d="m919 569l1-2h4v1z"/>
		<path id="Path 499" class="s12" d="m547 570l-6-2h1l4 1h1z"/>
		<path id="Path 500" class="s12" d="m896 570l-3-2 3 1z"/>
		<path id="Path 501" class="s25" d="m919 569l5-1-7 2v-1z"/>
		<path id="Path 502" class="s36" d="m547 570v-1h6v1z"/>
		<path id="Path 503" class="s28" d="m896 570v-1h2 2v1h-1z"/>
		<path id="Path 504" class="s45" d="m900 570v-1h3l1 2h-4z"/>
		<path id="Path 505" class="s23" d="m904 571l-1-2h9v2z"/>
		<path id="Path 506" class="s26" d="m912 571v-2h5v1z"/>
		<path id="Path 507" class="s4" d="m899 570h1v1h-1z"/>
		<path id="Path 508" class="s4" d="m912 571l5-1v2h-5z"/>
		<path id="Path 509" class="s4" d="m900 572v-1h4v1z"/>
		<path id="Path 510" class="s20" d="m904 572v-1h8v1z"/>
	</g>
</svg>