<svg version="1.2" xmlns="http://www.w3.org/2000/svg" viewBox="0 0 1000 1000" width="1000" height="1000">
	<title>Percopsis_omiscomaycus</title>
	<style>
		.s0 { opacity: .1;fill: #f5f5f6 } 
		.s1 { opacity: .7;fill: #cdcdca } 
		.s2 { opacity: .1;fill: #e1e2e0 } 
		.s3 { opacity: .1;fill: #aeada3 } 
		.s4 { opacity: .2;fill: #858982 } 
		.s5 { opacity: .1;fill: #636352 } 
		.s6 { opacity: .1;fill: #787b6f } 
		.s7 { opacity: .9;fill: #c4c6c4 } 
		.s8 { fill: #697067 } 
		.s9 { fill: #65695e } 
		.s10 { fill: #737972 } 
		.s11 { opacity: .1;fill: #c5c5c1 } 
		.s12 { fill: #85867f } 
		.s13 { opacity: .5;fill: #c3c5c2 } 
		.s14 { opacity: .3;fill: #9d9f98 } 
		.s15 { fill: #626556 } 
		.s16 { fill: #5f614e } 
		.s17 { opacity: .5;fill: #dadbda } 
		.s18 { opacity: .8;fill: #89877a } 
		.s19 { fill: #524b30 } 
		.s20 { opacity: .1;fill: #9e9e97 } 
		.s21 { fill: #7d8485 } 
		.s22 { fill: #c3c2c3 } 
		.s23 { fill: #b5b0a3 } 
		.s24 { fill: #858887 } 
		.s25 { opacity: .3;fill: #dedfde } 
		.s26 { opacity: .3;fill: #71756a } 
		.s27 { fill: #4f5039 } 
		.s28 { fill: #a9a79f } 
		.s29 { fill: #979285 } 
		.s30 { opacity: .5;fill: #93958f } 
		.s31 { opacity: .7;fill: #787665 } 
		.s32 { fill: #5d5437 } 
		.s33 { fill: #464733 } 
		.s34 { opacity: .7;fill: #aaa9a2 } 
		.s35 { fill: #78807d } 
		.s36 { opacity: .9;fill: #7c7f76 } 
		.s37 { fill: #bdb9b2 } 
		.s38 { fill: #c5c8d0 } 
		.s39 { opacity: .3;fill: #c9cbc9 } 
		.s40 { opacity: .3;fill: #b3b5b1 } 
		.s41 { fill: #b7bbc6 } 
		.s42 { fill: #8f908b } 
		.s43 { opacity: .4;fill: #eff0f0 } 
		.s44 { fill: #6c7570 } 
		.s45 { fill: #3c4033 } 
		.s46 { fill: #7a7d77 } 
		.s47 { fill: #625b40 } 
		.s48 { fill: #585743 } 
		.s49 { opacity: .9;fill: #90938d } 
		.s50 { fill: #676246 } 
		.s51 { opacity: .5;fill: #afb1ac } 
		.s52 { fill: #635e45 } 
		.s53 { fill: #79725c } 
		.s54 { opacity: .7;fill: #e8e9e9 } 
		.s55 { opacity: .8;fill: #6e7671 } 
		.s56 { opacity: .7;fill: #babcb9 } 
		.s57 { fill: #7e7867 } 
		.s58 { fill: #6f7062 } 
		.s59 { fill: #6b6851 } 
		.s60 { fill: #857f6e } 
		.s61 { fill: #8f9498 } 
		.s62 { fill: #888e92 } 
		.s63 { fill: #706c57 } 
		.s64 { fill: #a0a3a7 } 
		.s65 { fill: #757466 } 
		.s66 { fill: #989da2 } 
		.s67 { fill: #aaaeb7 } 
		.s68 { fill: #263b40 } 
		.s69 { fill: #a4a8af } 
		.s70 { opacity: 1;fill: #999b99 } 
		.s71 { fill: #bec2cc } 
		.s72 { fill: #cbcfd9 } 
		.s73 { fill: #b5b7bd } 
		.s74 { fill: #a69f91 } 
		.s75 { fill: #dee0e8 } 
		.s76 { fill: #b0b2b3 } 
		.s77 { fill: #d1cfcd } 
		.s78 { fill: #d4d7de } 
		.s79 { fill: #eceef2 } 
		.s80 { fill: #a39982 } 
		.s81 { fill: #b2aa98 } 
		.s82 { fill: #8a887c } 
		.s83 { fill: #b9b4ac } 
		.s84 { opacity: .4;fill: #616150 } 
		.s85 { opacity: .3;fill: #f1f1f2 } 
		.s86 { fill: #6e6549 } 
		.s87 { fill: #c4bfb8 } 
		.s88 { opacity: 1;fill: #9c988d } 
		.s89 { fill: #918973 } 
		.s90 { opacity: .7;fill: #8f918b } 
	</style>
	<g id="Background">
		<path id="Path 0" class="s0" d="m499 444h1v1h-1z"/>
		<path id="Path 1" class="s1" d="m499 445l1-1h12v1 1h-1-12z"/>
		<path id="Path 2" class="s2" d="m463 447l8-2v1z"/>
		<path id="Path 3" class="s3" d="m471 446v-1h9v1h-5z"/>
		<path id="Path 4" class="s4" d="m480 446v-1h5v1z"/>
		<path id="Path 5" class="s5" d="m485 446v-1h14v1h-9z"/>
		<path id="Path 6" class="s6" d="m512 446v-1h9v1z"/>
		<path id="Path 7" class="s3" d="m521 446v-1h3v1z"/>
		<path id="Path 8" class="s0" d="m524 446v-1l7 4-4-1z"/>
		<path id="Path 9" class="s7" d="m463 447l8-1h4l-12 2z"/>
		<path id="Path 10" class="s8" d="m463 448l12-2h5 5 5v6l-4 3v11l-28-2v-14-2z"/>
		<path id="Path 11" class="s9" d="m490 452v-6h9 12l-2 5z"/>
		<path id="Path 12" class="s10" d="m490 452l19-1 2-5h1 9v5l7 4v15l-42-4v-11z"/>
		<path id="Path 13" class="s8" d="m528 470v-15l-7-4v-5h3l3 2 14 6 3 2 3 1 1 1v10l4 2v5l-8 1z"/>
		<path id="Path 14" class="s11" d="m449 449l7-2v1l-5 1z"/>
		<path id="Path 15" class="s4" d="m456 448v-1h7v1h-5z"/>
		<path id="Path 16" class="s12" d="m451 449l5-1h2v2z"/>
		<path id="Path 17" class="s13" d="m541 454l-14-6 4 1z"/>
		<path id="Path 18" class="s14" d="m424 452l23-3-7 2-16 2z"/>
		<path id="Path 19" class="s15" d="m440 451l7-2h2 2l7 1v14l-18-1v-1z"/>
		<path id="Path 20" class="s16" d="m424 453l16-2v11l-13-1-7-6v-1z"/>
		<path id="Path 21" class="s17" d="m418 454l6-2v1l-4 1z"/>
		<path id="Path 22" class="s11" d="m394 459l18-5-2 2-10 2-5 1z"/>
		<path id="Path 23" class="s18" d="m410 456l2-2h6 2v1z"/>
		<path id="Path 24" class="s13" d="m544 456l-3-2 3 1z"/>
		<path id="Path 25" class="s1" d="m858 455h9v1h-1-8z"/>
		<path id="Path 26" class="s19" d="m410 456l10-1 7 6 13 1v1l-2 5-10 3v9l-4 2h-26v-6l-2-10v-6l4-2z"/>
		<path id="Path 27" class="s11" d="m544 456v-1l3 2z"/>
		<path id="Path 28" class="s2" d="m846 457l6-2v1z"/>
		<path id="Path 29" class="s20" d="m852 456v-1h6v1z"/>
		<path id="Path 30" class="s2" d="m867 456v-1l1 8z"/>
		<path id="Path 31" class="s21" d="m846 457l6-1h6 8l1 8v2l-2 2-4-4h-16l-5 3v5l-6 3v7l-10 2-11-2-4 4h-7l-2-14v-6l6-2h2l4-1 19-3 4-1h1z"/>
		<path id="Path 32" class="s22" d="m867 464l-1-8h1l1 7z"/>
		<path id="Path 33" class="s11" d="m548 458l-1-1 4 2z"/>
		<path id="Path 34" class="s23" d="m395 459l5-1-4 2z"/>
		<path id="Path 35" class="s24" d="m552 475v-5l-4-2v-10l3 1h1l5 4v1l5 8 3 2z"/>
		<path id="Path 36" class="s25" d="m356 460l11-1v1h-5l-5 1h-1z"/>
		<path id="Path 37" class="s14" d="m367 460v-1h12v1h-1z"/>
		<path id="Path 38" class="s26" d="m379 460v-1h11z"/>
		<path id="Path 39" class="s27" d="m379 460l11-1h4 1l1 1v6l-12 1-2 9-8 1v9h-11-10l-3-6h-14l-2-4-19 2-2 9-7 3h-16l-4-4-1-6 4-4 20 1 7-7v-6l10-1 13-1h8l9-1h1l5 1 16-2z"/>
		<path id="Path 40" class="s0" d="m557 463l-5-4 5 1z"/>
		<path id="Path 41" class="s25" d="m811 462l20-3v1l-19 3z"/>
		<path id="Path 42" class="s14" d="m831 460v-1h4z"/>
		<path id="Path 43" class="s13" d="m326 462l5-2h7l1 2-13 1z"/>
		<path id="Path 44" class="s14" d="m339 462l-1-2h9v2z"/>
		<path id="Path 45" class="s26" d="m347 462v-2h9v1z"/>
		<path id="Path 46" class="s28" d="m357 461l5-1v2z"/>
		<path id="Path 47" class="s29" d="m362 462v-2h5 11z"/>
		<path id="Path 48" class="s30" d="m308 464l8-2v2z"/>
		<path id="Path 49" class="s31" d="m316 464v-2h10v1z"/>
		<path id="Path 50" class="s1" d="m808 464l3-2 1 1z"/>
		<path id="Path 51" class="s32" d="m428 480v-9l10-3 2-5 18 1 28 2 42 4 16 6 8-1 13-1h1 1v4l7 4v12h-14-19l-3-4-28 1-13-7h-15l-8 8h-2l-2-4h-6l-2-4h-12l-2-6-18 2z"/>
		<path id="Path 52" class="s18" d="m298 465l9-1-9 2z"/>
		<path id="Path 53" class="s33" d="m298 466l9-2h1 8v6l-7 7-20-1-4 4h-5l-2-10 7-2h3l9-2z"/>
		<path id="Path 54" class="s25" d="m562 472l-5-8 4 2z"/>
		<path id="Path 55" class="s34" d="m798 465l8-1-6 2h-2z"/>
		<path id="Path 56" class="s35" d="m840 472v-5l5-3h16l4 4-8 9-6 2-3-7z"/>
		<path id="Path 57" class="s4" d="m288 467l10-2v1h-1z"/>
		<path id="Path 58" class="s11" d="m788 467l10-2v1z"/>
		<path id="Path 59" class="s36" d="m288 467l9-1-9 2z"/>
		<path id="Path 60" class="s32" d="m382 476l2-9 12-1 2 10h-14z"/>
		<path id="Path 61" class="s24" d="m788 467l10-1h2v6h-10l-2-4z"/>
		<path id="Path 62" class="s2" d="m865 468l2-2-1 6-9 5z"/>
		<path id="Path 63" class="s20" d="m278 468l10-1v1h-3z"/>
		<path id="Path 64" class="s2" d="m646 469l6-2v1l-5 1z"/>
		<path id="Path 65" class="s0" d="m652 468v-1l2 2h-1z"/>
		<path id="Path 66" class="s11" d="m778 469l10-2v1z"/>
		<path id="Path 67" class="s37" d="m278 469v-1h7l-7 2z"/>
		<path id="Path 68" class="s38" d="m647 469l5-1 1 1z"/>
		<path id="Path 69" class="s21" d="m778 469l10-1 2 4-2 6h-17v-7-1h1l5-1z"/>
		<path id="Path 70" class="s25" d="m269 471l6-2-4 2z"/>
		<path id="Path 71" class="s16" d="m271 471l4-2h3v1l2 10v4h-6l-2-3z"/>
		<path id="Path 72" class="s13" d="m632 472l14-3v1l-5 1-9 2z"/>
		<path id="Path 73" class="s24" d="m646 470v-1h1 6 1 1l-1 9-8-2z"/>
		<path id="Path 74" class="s21" d="m654 478l1-9h2l7 3h1l4 2 8 7 2 3v1l-25-1z"/>
		<path id="Path 75" class="s39" d="m764 470l8-1v1h-1l-6 1h-1z"/>
		<path id="Path 76" class="s14" d="m772 470v-1h5z"/>
		<path id="Path 77" class="s21" d="m641 471l5-1v6h-4z"/>
		<path id="Path 78" class="s40" d="m747 472l17-2v1l-6 1-10 1h-1z"/>
		<path id="Path 79" class="s41" d="m765 471l6-1v1z"/>
		<path id="Path 80" class="s42" d="m261 472l6-1v2l-7 2-10 1 3-2z"/>
		<path id="Path 81" class="s33" d="m267 473v-2h2 2l1 10h-4z"/>
		<path id="Path 82" class="s10" d="m632 473l9-2 1 5v6l-17-2v-2l2-2h1z"/>
		<path id="Path 83" class="s35" d="m758 472l6-1h1 6v7l-4 4h-9z"/>
		<path id="Path 84" class="s25" d="m565 474l-3-2 4 2z"/>
		<path id="Path 85" class="s43" d="m628 475l4-3v1l-4 3z"/>
		<path id="Path 86" class="s43" d="m739 474l8-2v1l-7 1z"/>
		<path id="Path 87" class="s10" d="m748 473l10-1v10l-8 2z"/>
		<path id="Path 88" class="s35" d="m788 478l2-6h10l2 14h7l4-4 11 2 2 8-3 3h-1l-3 3-7 5-20-1-4-4z"/>
		<path id="Path 89" class="s44" d="m834 482v-7l6-3h8l3 7v1l-4 2-3 1-3 2-4 1z"/>
		<path id="Path 90" class="s45" d="m260 475l7-2 1 8h-8z"/>
		<path id="Path 91" class="s46" d="m740 474l7-1h1l2 11 8-2h9l4-4h17v20l-23-2-3 14h-6l-4-10-4-2v-6l-6-2-2-8z"/>
		<path id="Path 92" class="s11" d="m248 475l5-1-3 2h-2z"/>
		<path id="Path 93" class="s47" d="m574 494v-12l-7-4v-4h4l15 2h4l10 2h10v4l-2 10h-11l-1 4h-16z"/>
		<path id="Path 94" class="s1" d="m586 476l-15-2 15 1z"/>
		<path id="Path 95" class="s2" d="m677 481l-8-7 5 1z"/>
		<path id="Path 96" class="s11" d="m728 477l9-3-8 3z"/>
		<path id="Path 97" class="s35" d="m729 477l8-3h2 1v8h-7l-4-4z"/>
		<path id="Path 98" class="s39" d="m238 479l10-4v1l-7 3h-2z"/>
		<path id="Path 99" class="s32" d="m250 476l10-1v6l-2 9h-4l-10-2-3-9 7-3z"/>
		<path id="Path 100" class="s6" d="m586 476v-1h7v1h-3z"/>
		<path id="Path 101" class="s3" d="m593 476v-1h7v1z"/>
		<path id="Path 102" class="s11" d="m600 476v-1h7v1z"/>
		<path id="Path 103" class="s2" d="m607 476v-1l9 2h-1z"/>
		<path id="Path 104" class="s2" d="m620 476l8-1v1h-1z"/>
		<path id="Path 105" class="s48" d="m306 490l7-3 2-9 19-2 2 4v9l-4 1-9-2-5 8h-12z"/>
		<path id="Path 106" class="s47" d="m374 486v-9l8-1h2v10z"/>
		<path id="Path 107" class="s48" d="m384 486v-10h14v6 6l-10 1z"/>
		<path id="Path 108" class="s49" d="m600 478l-10-2h3 7z"/>
		<path id="Path 109" class="s7" d="m600 478v-2h7l8 1-5 1z"/>
		<path id="Path 110" class="s7" d="m619 477l1-1h7l-2 2z"/>
		<path id="Path 111" class="s44" d="m642 482v-6h4l8 2v6z"/>
		<path id="Path 112" class="s50" d="m610 478l5-1h1 3l6 1v2l-1 2h-14z"/>
		<path id="Path 113" class="s40" d="m713 484l3-4 12-3h1v1l-9 4z"/>
		<path id="Path 114" class="s11" d="m851 479l6-2-6 3z"/>
		<path id="Path 115" class="s47" d="m430 480l18-2 2 6v2h-20z"/>
		<path id="Path 116" class="s9" d="m720 482l9-4 4 4h7l2 8-1 2h-7l-8-2-4-2-2-4z"/>
		<path id="Path 117" class="s51" d="m224 482l14-3h1l-15 5z"/>
		<path id="Path 118" class="s33" d="m224 484l15-5h2l3 9-2 13-8 1-16 1-4-1-2-3v-5-6l3-2 5-2h1z"/>
		<path id="Path 119" class="s32" d="m280 484v-4h5l1 6z"/>
		<path id="Path 120" class="s16" d="m336 489v-9h14l3 6-4 4-7 3z"/>
		<path id="Path 121" class="s52" d="m424 482l4-2h2v6h-6z"/>
		<path id="Path 122" class="s47" d="m624 482l1-2 17 2 12 2 25 1 6 1h9l1 7-7 11-20 1-2 3h-7l-4-6h-13l-2-3-16-1z"/>
		<path id="Path 123" class="s50" d="m258 490l2-9h8l2 15h-8z"/>
		<path id="Path 124" class="s53" d="m270 496l-2-15h4l2 3h6l6 2 4 4 1 9-3 1-6 1v6l-1 1h-9v-4z"/>
		<path id="Path 125" class="s54" d="m221 484l3-2v2z"/>
		<path id="Path 126" class="s16" d="m398 488v-6h26v4 7l-6 1-11-2z"/>
		<path id="Path 127" class="s32" d="m608 492l2-10h14v16h-4z"/>
		<path id="Path 128" class="s42" d="m713 484l7-2v2l-6 2h-3l1-2z"/>
		<path id="Path 129" class="s10" d="m824 484l10-2 3 4v1l-5 3h-1l-5 2z"/>
		<path id="Path 130" class="s11" d="m844 483l3-1-3 2z"/>
		<path id="Path 131" class="s2" d="m841 485l3-2v1z"/>
		<path id="Path 132" class="s11" d="m210 486l10-2-5 2z"/>
		<path id="Path 133" class="s50" d="m450 486v-2h12l2 4v4l-14-2z"/>
		<path id="Path 134" class="s50" d="m474 492l8-8h15l13 7v12l-2 1-10-1-13-3z"/>
		<path id="Path 135" class="s55" d="m679 485v-1h6v2z"/>
		<path id="Path 136" class="s34" d="m685 486v-2h10v2h-1z"/>
		<path id="Path 137" class="s56" d="m695 486v-2h10v2z"/>
		<path id="Path 138" class="s1" d="m705 486v-2h7l-1 2h-5z"/>
		<path id="Path 139" class="s47" d="m714 486l6-2 2 4-4 5-4-1z"/>
		<path id="Path 140" class="s2" d="m837 486l4-1-4 2z"/>
		<path id="Path 141" class="s51" d="m198 492l12-6h5l-3 2-7 3-5 1z"/>
		<path id="Path 142" class="s8" d="m349 490l4-4h10v5l5 1-1 13-1 3-10-1z"/>
		<path id="Path 143" class="s9" d="m368 492l-5-1v-5h11v5z"/>
		<path id="Path 144" class="s15" d="m374 491v-5h10l4 3v4l-9 1z"/>
		<path id="Path 145" class="s15" d="m424 493v-7h6 20v4l-4 6-4 4h-6l-8-2z"/>
		<path id="Path 146" class="s50" d="m695 493l-1-7h1 10 1v6z"/>
		<path id="Path 147" class="s32" d="m706 492v-6h5 3v6z"/>
		<path id="Path 148" class="s52" d="m205 491l7-3v6h-4z"/>
		<path id="Path 149" class="s48" d="m242 501l2-13 10 2-5 13-4 3h-2z"/>
		<path id="Path 150" class="s57" d="m318 496l5-8 9 2-1 16-10 1-3-3z"/>
		<path id="Path 151" class="s8" d="m388 489l10-1 9 4-1 12-3 3-2 2-8-2-1-10-4-4z"/>
		<path id="Path 152" class="s52" d="m464 492v-4h6l2 4-8 2z"/>
		<path id="Path 153" class="s19" d="m718 493l4-5 4 2v6l-1 2h-6z"/>
		<path id="Path 154" class="s46" d="m332 490l4-1 6 4v9 3l-4 1-2 6h-5v-6z"/>
		<path id="Path 155" class="s58" d="m245 506l4-3 5-13h4l4 6h8l2 8h-11l-1 4-5 9-6-1v-6z"/>
		<path id="Path 156" class="s16" d="m291 499l-1-9h16v6 6h-5l-7-2z"/>
		<path id="Path 157" class="s10" d="m342 493l7-3 7 17-1 1-4-5-9-1z"/>
		<path id="Path 158" class="s9" d="m446 496l4-6 14 2v2l-1 4-5 2h-4l-2-4z"/>
		<path id="Path 159" class="s59" d="m510 491l28-1 3 4h19v10h-6l-10 2-18-1-9 1-7-3z"/>
		<path id="Path 160" class="s50" d="m726 496v-6l8 2v4z"/>
		<path id="Path 161" class="s57" d="m741 492l1-2 6 2v6h-2z"/>
		<path id="Path 162" class="s0" d="m826 492l5-2-2 4-6 1z"/>
		<path id="Path 163" class="s50" d="m200 492l5-1 3 3v4l4 1 2 3v4l-7 2-5-3-8 1h-4v-8l1-2h1z"/>
		<path id="Path 164" class="s46" d="m368 492l6-1 5 3 9-1 4 4 1 10-4 1-8-2h-5l-9-1z"/>
		<path id="Path 165" class="s56" d="m192 494l6-2h2l-8 4z"/>
		<path id="Path 166" class="s35" d="m406 504l1-12 11 2v12h-4z"/>
		<path id="Path 167" class="s10" d="m464 494l8-2h2l11 8-2 5h-3l-4-3-8 1-5-5z"/>
		<path id="Path 168" class="s50" d="m596 496l1-4h11l12 6v10h-15l-3-4-6-1z"/>
		<path id="Path 169" class="s59" d="m695 493l11-1h8l4 1 1 5-1 8h-6-12-12v-2z"/>
		<path id="Path 170" class="s60" d="m734 496v-4h7l5 6-2 8-8 1z"/>
		<path id="Path 171" class="s61" d="m418 494l6-1 4 5 8 2v8h-12l-6-2z"/>
		<path id="Path 172" class="s39" d="m188 497l4-3v2h-1z"/>
		<path id="Path 173" class="s19" d="m212 499l-4-1v-4h4z"/>
		<path id="Path 174" class="s50" d="m560 504v-10h14l6 2v4l-5 4z"/>
		<path id="Path 175" class="s0" d="m819 498l3-3-3 4z"/>
		<path id="Path 176" class="s56" d="m188 497l3-1-1 2h-2z"/>
		<path id="Path 177" class="s9" d="m306 502v-6h12v8l3 3-1 7 5 4-7 2-6-8v-4z"/>
		<path id="Path 178" class="s62" d="m436 500h6l4-4h6l2 4v5l-4 2-4-2-2 5-6 1-2-3z"/>
		<path id="Path 179" class="s59" d="m580 500v-4h16v7l-6 1z"/>
		<path id="Path 180" class="s63" d="m725 498l1-2h8l2 11-2 2-8-1z"/>
		<path id="Path 181" class="s10" d="m762 510l3-14 23 2 4 4 20 1v4l1 5-20 3-1 9-8 6-12-2z"/>
		<path id="Path 182" class="s39" d="m166 509l8-7 14-5v1l-4 2z"/>
		<path id="Path 183" class="s47" d="m184 500l4-2h2v8h-6z"/>
		<path id="Path 184" class="s64" d="m458 500l5-2 5 5v3l-8 1-2-2z"/>
		<path id="Path 185" class="s59" d="m620 508v-10h4l16 1 2 3-2 6h-6z"/>
		<path id="Path 186" class="s58" d="m718 506l1-8h6l1 10-2 1z"/>
		<path id="Path 187" class="s65" d="m736 507l8-1 2-8h2l4 2 4 10-2 9 3 8-1 9h-8v-2l-2-8h-8-6v-6l2-11z"/>
		<path id="Path 188" class="s54" d="m812 503l7-5v1l-5 8h-2z"/>
		<path id="Path 189" class="s66" d="m288 500l3-1 3 1v4h-6z"/>
		<path id="Path 190" class="s59" d="m166 509l18-9v6l-4 4v8l-5 8h-5v-10l-6-4z"/>
		<path id="Path 191" class="s57" d="m234 502l8-1 1 5-5 1z"/>
		<path id="Path 192" class="s64" d="m282 507v-6l6-1v4z"/>
		<path id="Path 193" class="s67" d="m294 504v-4l7 2 6 10 1 12-4 1-6-3v-6h5v-5l-5 1z"/>
		<path id="Path 194" class="s66" d="m454 505v-5h4v5z"/>
		<path id="Path 195" class="s61" d="m483 505l2-5 13 3v5 2l-10-1z"/>
		<path id="Path 196" class="s65" d="m575 504l5-4 10 4v4h-6l-8-1z"/>
		<path id="Path 197" class="s58" d="m214 506v-4l4 1-2 4z"/>
		<path id="Path 198" class="s68" d="m218 503l16-1 4 5v7l-4 5-2 2-8 2-8-7v-9z"/>
		<path id="Path 199" class="s10" d="m307 512l-6-10h5l6 6v4z"/>
		<path id="Path 200" class="s66" d="m342 505v-3l9 1 4 5-5 8h-2v-9z"/>
		<path id="Path 201" class="s69" d="m468 503l8-1 4 3v6h-9l-3-5z"/>
		<path id="Path 202" class="s64" d="m498 503l10 1v4h-10z"/>
		<path id="Path 203" class="s58" d="m640 508l2-6h13l4 6-4 2h-7-4z"/>
		<path id="Path 204" class="s70" d="m508 504l2-1 7 3v4h-8l-1-2z"/>
		<path id="Path 205" class="s24" d="m590 504l6-1 6 1 3 4-6 2-9-2z"/>
		<path id="Path 206" class="s61" d="m260 508l1-4h11v4 6h-2l-6-6z"/>
		<path id="Path 207" class="s61" d="m282 507l6-3h6l4 8v4 6l-12 2h-7l5-3-3-13z"/>
		<path id="Path 208" class="s69" d="m403 507l3-3 8 2v2h-8z"/>
		<path id="Path 209" class="s66" d="m544 506l10-2v6h-5z"/>
		<path id="Path 210" class="s61" d="m554 510v-6h6 15l1 3-2 3-8 1h-2z"/>
		<path id="Path 211" class="s46" d="m666 508l2-3 20-1v2l-3 4h-9-4z"/>
		<path id="Path 212" class="s53" d="m194 506l8-1 5 3v2l-2 1-11-1z"/>
		<path id="Path 213" class="s37" d="m238 507l5-1h2l4 4v6l-5 6h-5l-1-3h-4l4-5z"/>
		<path id="Path 214" class="s67" d="m336 512l2-6 4-1 6 2v9h-12z"/>
		<path id="Path 215" class="s71" d="m366 508l1-3 9 1v4l4 1v4l5 3 2 10-5 2-9-2z"/>
		<path id="Path 216" class="s38" d="m444 510l2-5 4 2v9h-6z"/>
		<path id="Path 217" class="s72" d="m450 507l4-2h4l2 2-2 9h-8z"/>
		<path id="Path 218" class="s73" d="m480 511v-6h3l5 4-4 3h-4z"/>
		<path id="Path 219" class="s69" d="m517 506l9-1v10l-4 1-5-2v-4z"/>
		<path id="Path 220" class="s67" d="m526 515v-10l18 1 5 4v2l-9 4-12-1z"/>
		<path id="Path 221" class="s63" d="m180 518v-8l4-4h6 4v4l-6 8z"/>
		<path id="Path 222" class="s74" d="m207 508l7-2 2 1v9l-5-6h-4z"/>
		<path id="Path 223" class="s74" d="m321 507l10-1v6l-3 6h-3l-5-4z"/>
		<path id="Path 224" class="s73" d="m380 511l-4-1v-4h5z"/>
		<path id="Path 225" class="s38" d="m380 511l1-5 8 2-1 9-3 1-5-3z"/>
		<path id="Path 226" class="s38" d="m414 508v-2h4l6 2v6h-8z"/>
		<path id="Path 227" class="s71" d="m460 507l8-1 3 5h9v1 6l-3 7-6-8-9 3-4-4z"/>
		<path id="Path 228" class="s61" d="m685 510l3-4h12v4l-2 2z"/>
		<path id="Path 229" class="s66" d="m700 510v-4h12v6h-5z"/>
		<path id="Path 230" class="s70" d="m712 512v-6h6l6 3v9h-2l-7-2z"/>
		<path id="Path 231" class="s73" d="m355 508l1-1 10 1 7 20 9 2 5-2h5 6l2 16v8l-4 2-21-1-3-3h-12l-7-8h-7l-1-4-11-8v-2h14l2-12z"/>
		<path id="Path 232" class="s73" d="m389 508l4-1 8 2 2-2 3 1 2 14-6 2-1-3h-9v-3l-4-1z"/>
		<path id="Path 233" class="s41" d="m574 510l2-3 8 1v6 2h-6z"/>
		<path id="Path 234" class="s34" d="m813 512l-1-5h2l5 8 3 2v1z"/>
		<path id="Path 235" class="s64" d="m255 517l5-9h4l6 6v7l4 2 3 1-5 10h-5l-2-5-7-1v-6l-3-1z"/>
		<path id="Path 236" class="s9" d="m272 514v-6h9l3 13-5 3h-2l-3-1z"/>
		<path id="Path 237" class="s75" d="m408 522l-2-14h8l2 6v8z"/>
		<path id="Path 238" class="s22" d="m424 514v-6h12l2 3-2 9h-10z"/>
		<path id="Path 239" class="s73" d="m498 510v-2h10l1 2-1 4h-8z"/>
		<path id="Path 240" class="s67" d="m584 514v-6h6l9 2 6-2h15 14v4h-11l-6 6 5 9 6 2-4 4h-8l-18-3 4-10z"/>
		<path id="Path 241" class="s76" d="m634 512v-4h6l4 2v6h-6z"/>
		<path id="Path 242" class="s69" d="m655 510l4-2h7l6 2-6 8h-8l-3-2z"/>
		<path id="Path 243" class="s73" d="m724 509l2-1 8 1-2 11-8-2z"/>
		<path id="Path 244" class="s39" d="m155 517l6-7 5-1-2 3-8 6h-1z"/>
		<path id="Path 245" class="s72" d="m484 512l4-3 10 1 2 4v8 2h-8l-8-6z"/>
		<path id="Path 246" class="s60" d="m180 518h8l6-8 11 1v8l5 6-1 6-23 2-4-5h-6l-1-2z"/>
		<path id="Path 247" class="s77" d="m205 511l2-1h4l5 6 8 7 8-2 2 4-2 3h-6l-16-3-5-6z"/>
		<path id="Path 248" class="s41" d="m438 511l6-1v6l-8 4z"/>
		<path id="Path 249" class="s71" d="m508 514l1-4h8v4l5 2 1 8-3 4h-10l-3-6z"/>
		<path id="Path 250" class="s73" d="m549 512v-2h5l10 1 2 2 2 16-8 2v-5l-6-2z"/>
		<path id="Path 251" class="s71" d="m566 511l8-1 4 6 2 10v4l-12-1-2-16z"/>
		<path id="Path 252" class="s41" d="m644 516v-6h4v6z"/>
		<path id="Path 253" class="s67" d="m648 516v-6h7v6l3 2v4h-10z"/>
		<path id="Path 254" class="s72" d="m666 518l6-8h4l2 13h-8z"/>
		<path id="Path 255" class="s71" d="m678 523l-2-13h9l13 2 2-2 7 2 2 9-3 4-8 1h-10-10z"/>
		<path id="Path 256" class="s8" d="m756 536l1-9-3-8 2-9h6l10 18v8l-5 7-11-1z"/>
		<path id="Path 257" class="s75" d="m298 512l5-1v5h-5z"/>
		<path id="Path 258" class="s38" d="m566 513l-2-2h2z"/>
		<path id="Path 259" class="s47" d="m156 518l8-6 6 4v10h-6l-8-4z"/>
		<path id="Path 260" class="s21" d="m308 524l-1-12h5l6 8v8h-4z"/>
		<path id="Path 261" class="s42" d="m328 518l3-6h5v4l-5 6h-3z"/>
		<path id="Path 262" class="s78" d="m480 518v-6h4v6z"/>
		<path id="Path 263" class="s75" d="m540 516l9-4 5 12-10 1-4-3z"/>
		<path id="Path 264" class="s38" d="m628 529l-6-2-5-9 6-6h11l4 4h6 4v6 4l-16 3z"/>
		<path id="Path 265" class="s73" d="m709 521l-2-9h5l3 4z"/>
		<path id="Path 266" class="s44" d="m772 528l12 2 8-6 1-9 20-3 9 6 10 4 4 2 8 5 3 3-3 4v14l-7 2h-5-6l-1-7-5 1v6l-8 1h-8-4v-12l-5-3-9 1 2 14h-6l-10-1h-5l-13-2h-4v-8h6l11 1 5-7z"/>
		<path id="Path 267" class="s46" d="m274 523l-4-2v-7h2z"/>
		<path id="Path 268" class="s71" d="m416 522v-8h8l2 6-5 2z"/>
		<path id="Path 269" class="s75" d="m500 522v-8h8l-1 8z"/>
		<path id="Path 270" class="s78" d="m528 515l12 1v6h-12z"/>
		<path id="Path 271" class="s38" d="m584 516v-2l18 6-4 10h-11v-4l1-7z"/>
		<path id="Path 272" class="s72" d="m522 516l4-1h2v7 2h-5z"/>
		<path id="Path 273" class="s65" d="m244 522l5-6 6 1v4l-5 5-4 2z"/>
		<path id="Path 274" class="s69" d="m331 522l5-6h12 2l-2 12h-14z"/>
		<path id="Path 275" class="s66" d="m436 520l8-4h6 8l4 4v5l-15 4 1 17h-8-5l-11-12-3-12 5-2z"/>
		<path id="Path 276" class="s72" d="m580 526l-2-10h6l4 3-1 7z"/>
		<path id="Path 277" class="s28" d="m709 521l6-5 7 2v10h-2-12l-2-3z"/>
		<path id="Path 278" class="s43" d="m143 529l12-12v1l-5 6-5 5h-1z"/>
		<path id="Path 279" class="s72" d="m385 518l3-1 4 1v3 7h-5z"/>
		<path id="Path 280" class="s61" d="m462 520l9-3 6 8 1 3h14l4 3 6-1 8-2h10l2 4 1 12-17 7v10l-2 3-19-2-5-4-15-8 1-23-4-2z"/>
		<path id="Path 281" class="s39" d="m822 518v-1l10 5z"/>
		<path id="Path 282" class="s65" d="m150 524l5-6h1v4l-1 2z"/>
		<path id="Path 283" class="s29" d="m318 520l7-2h3v4 8h-8l-2-2z"/>
		<path id="Path 284" class="s73" d="m477 525l3-7h4l8 6v4h-14z"/>
		<path id="Path 285" class="s38" d="m658 522v-4h8l4 5v3h-10z"/>
		<path id="Path 286" class="s66" d="m722 528v-10h2l8 2v6l-2 2z"/>
		<path id="Path 287" class="s78" d="m232 521l2-2h4l1 3-5 3z"/>
		<path id="Path 288" class="s38" d="m250 526l5-5 3 1v6l-5 1z"/>
		<path id="Path 289" class="s41" d="m392 528v-7h9l1 3-4 4z"/>
		<path id="Path 290" class="s16" d="m155 524l1-2 8 4v4h-6z"/>
		<path id="Path 291" class="s74" d="m234 525l5-3h5l2 6-6 6h-6l-2-6z"/>
		<path id="Path 292" class="s79" d="m286 524l12-2 6 3v4l-3 4-6 1v4l-5 3-4-3z"/>
		<path id="Path 293" class="s80" d="m328 530v-8h3l3 6v2z"/>
		<path id="Path 294" class="s67" d="m402 524l6-2h8 5l3 12h-9l-1 6h-5l-2 4h-7l-2-16z"/>
		<path id="Path 295" class="s41" d="m500 524v-2h7l3 6-8 2z"/>
		<path id="Path 296" class="s38" d="m528 524v-2h12l4 3-1 5h-12z"/>
		<path id="Path 297" class="s73" d="m648 526v-4h10l2 4-2 2z"/>
		<path id="Path 298" class="s64" d="m670 526v-3h8v3 3l-8 1z"/>
		<path id="Path 299" class="s15" d="m145 529l5-5h5l3 6h6v8l-17-2z"/>
		<path id="Path 300" class="s78" d="m272 534l5-10h2 7v14h-12z"/>
		<path id="Path 301" class="s73" d="m304 525l4-1 6 4v1h-10z"/>
		<path id="Path 302" class="s66" d="m492 528v-4h8l2 6-6 1z"/>
		<path id="Path 303" class="s69" d="m520 528l3-4h5l3 6-9 2z"/>
		<path id="Path 304" class="s76" d="m544 525l10-1 6 2v5l-17 1v-2z"/>
		<path id="Path 305" class="s39" d="m844 529l-8-5 6 1z"/>
		<path id="Path 306" class="s74" d="m209 531l1-6 16 3v10l-8 5h-8z"/>
		<path id="Path 307" class="s21" d="m448 546l-1-17 15-4 4 2-1 23h-7l-1-3h-7z"/>
		<path id="Path 308" class="s42" d="m688 526h10v2l-5 4h-5z"/>
		<path id="Path 309" class="s12" d="m698 526l8-1 2 3v2h-8l-2-2z"/>
		<path id="Path 310" class="s57" d="m164 530v-4h6 5l1 2v8l-4 2h-8z"/>
		<path id="Path 311" class="s77" d="m246 528l4-2 3 3-9 11h-11l-3 7-8 2-1 9-5 4h-4v-9l-4-2 2-8h8l8-5h5l3-4h6z"/>
		<path id="Path 312" class="s67" d="m580 530v-4h7v4z"/>
		<path id="Path 313" class="s61" d="m632 529l16-3 10 2 2-2h10v4 5l-3 2-6 1h-22l-7-5z"/>
		<path id="Path 314" class="s24" d="m678 529v-3h10v6h-9z"/>
		<path id="Path 315" class="s58" d="m730 528l2-2h6v8h-4l-4-2z"/>
		<path id="Path 316" class="s63" d="m738 534v-8h8l2 8z"/>
		<path id="Path 317" class="s12" d="m176 536v-8h6l4 5-2 3z"/>
		<path id="Path 318" class="s81" d="m226 538v-10h6l2 6-3 4z"/>
		<path id="Path 319" class="s67" d="m253 529l5-1 7 1 2 5-4 8-5 6h-12l-2-2v-6z"/>
		<path id="Path 320" class="s28" d="m314 529v-1h4l2 2v8l8 8v5h-1l-9 3-2 10-4 5 1 7v10l-1 2h-6l-4-11-9-3 2-6 8-5 3-10 7-12z"/>
		<path id="Path 321" class="s58" d="m693 532l5-4 2 2v6h-6z"/>
		<path id="Path 322" class="s58" d="m708 530v-2h12l-1 5-5 1h-4z"/>
		<path id="Path 323" class="s63" d="m714 534l5-1 1-5h2 8v4l4 2v6h-7l-1 7-13-2v-1z"/>
		<path id="Path 324" class="s51" d="m138 534v-4l5-1h1z"/>
		<path id="Path 325" class="s8" d="m138 534l6-5h1l2 7-1 10-9-1-1-2v-5-1-1z"/>
		<path id="Path 326" class="s72" d="m295 538v-4l6-1 3-4h10l-1 12-7 12-2-3h-6z"/>
		<path id="Path 327" class="s24" d="m560 531l8-2 12 1h7 11l18 3v13h-26l-8-1-8-5h-13l-8 5-15 1v-4l5-10z"/>
		<path id="Path 328" class="s24" d="m624 533l4-4h4v4l7 5-5 3h-6l-4-3z"/>
		<path id="Path 329" class="s82" d="m670 530l8-1 1 3-2 3h-7z"/>
		<path id="Path 330" class="s39" d="m847 532l-3-3 11 5v1l-5-2z"/>
		<path id="Path 331" class="s81" d="m328 551v-5l-8-8v-8h8 6l11 8 1 4 2 15 10 3 2 26v6h-16l-2-12-8-2 2-15-3-7v-3z"/>
		<path id="Path 332" class="s62" d="m522 532l9-2h12v2l-5 10-10 2h-5z"/>
		<path id="Path 333" class="s59" d="m700 536v-6h8l2 4h4l-1 10-10-1-3-1z"/>
		<path id="Path 334" class="s23" d="m186 533l23-2 1 12-2 8 4 2v9l-20-2-1-10-7-4v-10z"/>
		<path id="Path 335" class="s59" d="m670 535h7l2-3h9 5l1 4v6 1h-1l-16 2h-3-1l-4-1-2-7z"/>
		<path id="Path 336" class="s10" d="m844 550v-14l3-4 3 1-2 17z"/>
		<path id="Path 337" class="s46" d="m616 546v-13h8v5l4 3v4z"/>
		<path id="Path 338" class="s35" d="m848 550l2-17 5 2 7 2 6 1h4v10l-4 2h-7-7z"/>
		<path id="Path 339" class="s22" d="m263 542l4-8h5l2 4-4 6z"/>
		<path id="Path 340" class="s69" d="m414 540l1-6h9l11 12h5v6h-16l-4-1z"/>
		<path id="Path 341" class="s16" d="m734 540v-6h4 10v2 4z"/>
		<path id="Path 342" class="s0" d="m855 535v-1l7 3z"/>
		<path id="Path 343" class="s65" d="m146 546l1-10 17 2v6 6l-14-1z"/>
		<path id="Path 344" class="s74" d="m172 538l4-2h8v10l-12-2z"/>
		<path id="Path 345" class="s50" d="m694 542v-6h6v6z"/>
		<path id="Path 346" class="s58" d="m748 540v-4h8v6h-6z"/>
		<path id="Path 347" class="s2" d="m134 539v-2h2v1z"/>
		<path id="Path 348" class="s50" d="m661 538l6-1 2 7-1 2-2 1h-2-3z"/>
		<path id="Path 349" class="s6" d="m868 538l-6-1h6z"/>
		<path id="Path 350" class="s4" d="m868 538v-1h8v1h-4z"/>
		<path id="Path 351" class="s40" d="m876 538v-1l6 2v1z"/>
		<path id="Path 352" class="s13" d="m134 539l2-1v5h-2z"/>
		<path id="Path 353" class="s70" d="m164 544v-6h8v6z"/>
		<path id="Path 354" class="s75" d="m270 544l4-6h12l4 3v4l-6 5v7l-3 1-11-7z"/>
		<path id="Path 355" class="s38" d="m290 541l5-3 3 12-1 9-5 1-2-3h-6v-7l6-5z"/>
		<path id="Path 356" class="s59" d="m634 541l5-3h22v9l-5 1-6 2h-4l-7 2h-2-1l-3-1v-5z"/>
		<path id="Path 357" class="s10" d="m788 553l-2-14 9-1 5 3v12h-11z"/>
		<path id="Path 358" class="s10" d="m872 548v-10h4l6 2v3 1l-1 1-4 2z"/>
		<path id="Path 359" class="s54" d="m882 540v-1h1l1 1v2l-2 1z"/>
		<path id="Path 360" class="s0" d="m883 539h1v1h-1z"/>
		<path id="Path 361" class="s23" d="m230 547l3-7h11v6l-4 2-9 1z"/>
		<path id="Path 362" class="s73" d="m407 544l2-4h5l6 11-12 3z"/>
		<path id="Path 363" class="s46" d="m538 546l15-1 8-5h13l8 5v5l-7 7-3 1h-8-18l-12 9v6h-9l-1-1v-6l1-4 3-10 8-2z"/>
		<path id="Path 364" class="s8" d="m726 547l1-7h7 14l2 2v8h-2-6l-8-2z"/>
		<path id="Path 365" class="s63" d="m628 545v-4h6l-1 5z"/>
		<path id="Path 366" class="s77" d="m258 548l5-6 7 2v7l11 7v5l-6 2-10-3-7-8z"/>
		<path id="Path 367" class="s83" d="m358 560l-10-3-2-15h7l7 8v7z"/>
		<path id="Path 368" class="s12" d="m528 544l10-2v4l-2 4-8 2z"/>
		<path id="Path 369" class="s84" d="m694 543v-1h6l3 1v1h-9z"/>
		<path id="Path 370" class="s85" d="m882 543l2-1v2h-2z"/>
		<path id="Path 371" class="s17" d="m134 546v-3h2l1 2 6 7h-4l-4-5z"/>
		<path id="Path 372" class="s0" d="m134 546h1v1h-1z"/>
		<path id="Path 373" class="s28" d="m677 545l16-2-14 2z"/>
		<path id="Path 374" class="s39" d="m679 545l14-2h1v1z"/>
		<path id="Path 375" class="s14" d="m703 544v-1l10 1v1z"/>
		<path id="Path 376" class="s42" d="m164 550v-6h8l12 2 7 4 1 10v8h-5l-2 6-1 6-6-1-16-3v-5l6-5v-12z"/>
		<path id="Path 377" class="s38" d="m400 552v-8h7l1 10h-4z"/>
		<path id="Path 378" class="s24" d="m506 561v-10l17-7h5v8l-3 10h-5l-9-1z"/>
		<path id="Path 379" class="s57" d="m582 545l8 1-3 4h-5z"/>
		<path id="Path 380" class="s37" d="m668 546l1-2 4 1z"/>
		<path id="Path 381" class="s42" d="m143 552l-6-7 9 1 4 3-4 4z"/>
		<path id="Path 382" class="s86" d="m616 546l12-1 5 1v5l-2 6-10 1-23 4-2-2-18 2-3-5 7-7h5l3-4z"/>
		<path id="Path 383" class="s2" d="m668 546l5-1h1l-8 2z"/>
		<path id="Path 384" class="s11" d="m734 550l-21-5 13 2 8 1z"/>
		<path id="Path 385" class="s8" d="m820 552v-6l5-1 1 7z"/>
		<path id="Path 386" class="s83" d="m240 548l4-2 2 2v4h-6z"/>
		<path id="Path 387" class="s64" d="m440 552v-6h8l2 1v5l-2 1z"/>
		<path id="Path 388" class="s67" d="m221 558l1-9 8-2 1 2-1 8 6 4v5h-5l-5-8z"/>
		<path id="Path 389" class="s70" d="m450 552v-5h7l1 3-2 2z"/>
		<path id="Path 390" class="s2" d="m656 548l5-1h3l-8 2z"/>
		<path id="Path 391" class="s11" d="m872 548l5-1-9 3z"/>
		<path id="Path 392" class="s22" d="m231 549l9-1v4 6l-4 3-6-4z"/>
		<path id="Path 393" class="s73" d="m246 552v-4h12v6l7 8-6 4h-7l-1-1-1-3h-6v-4z"/>
		<path id="Path 394" class="s0" d="m650 550l6-2v1z"/>
		<path id="Path 395" class="s34" d="m734 550v-2l8 2z"/>
		<path id="Path 396" class="s70" d="m146 553l4-4 14 1 4 4v12l-6 5v5h-3l-5-1h-3l-2-2-1-7 3-4 2-2 2-2-7-3z"/>
		<path id="Path 397" class="s78" d="m292 560l5-1 1-9h6l2 3-3 10-8 5-3-2z"/>
		<path id="Path 398" class="s37" d="m360 557v-7h12l3 3-2 3z"/>
		<path id="Path 399" class="s76" d="m456 552l2-2h7l15 8-2 6h-14l-8-3z"/>
		<path id="Path 400" class="s17" d="m754 552l-6-2h2 4z"/>
		<path id="Path 401" class="s51" d="m754 552v-2l13 2h-1z"/>
		<path id="Path 402" class="s56" d="m837 552l7-2h4 6v2z"/>
		<path id="Path 403" class="s54" d="m854 552v-2h7z"/>
		<path id="Path 404" class="s77" d="m316 564l2-10 9-3 1 5h5l3 7-2 15-5 1-10-3 5-10z"/>
		<path id="Path 405" class="s78" d="m333 556h-5l-1-5h1l5 2z"/>
		<path id="Path 406" class="s83" d="m408 554l12-3 4 1 2 15-4 3v8h-14l-1-9-3-2v-13z"/>
		<path id="Path 407" class="s24" d="m631 557l2-6 3 1-1 3 12 4v3l-5 3h-3-1z"/>
		<path id="Path 408" class="s25" d="m148 555h-4l-1-3 3 1z"/>
		<path id="Path 409" class="s71" d="m240 558v-6h6l-2 6z"/>
		<path id="Path 410" class="s37" d="m396 554l4-2 4 2v13l3 2 1 9-8 3v9h-6l-11 1h-4l-3-5-2-17 3-3h13l6-6z"/>
		<path id="Path 411" class="s23" d="m422 578v-8l4-3-2-15h16l8 1v5l4 3v5l-2 14h-18z"/>
		<path id="Path 412" class="s87" d="m448 553l2-1h6v9h-4l-4-3z"/>
		<path id="Path 413" class="s11" d="m647 559l-12-4 1-3h1z"/>
		<path id="Path 414" class="s43" d="m772 554l-6-2h1 5z"/>
		<path id="Path 415" class="s14" d="m772 554v-2l10 1v1z"/>
		<path id="Path 416" class="s14" d="m812 553l8-1v2h-8z"/>
		<path id="Path 417" class="s25" d="m820 554v-2h6 6z"/>
		<path id="Path 418" class="s23" d="m360 557l13-1 2-3 21 1v6l-6 6h-13l-3 3 2 17h-16l-2-26z"/>
		<path id="Path 419" class="s26" d="m782 554v-1h6 1v1z"/>
		<path id="Path 420" class="s25" d="m789 554v-1h11 4v1z"/>
		<path id="Path 421" class="s26" d="m804 554v-1h8v1z"/>
		<path id="Path 422" class="s11" d="m153 560l-5-5 7 3z"/>
		<path id="Path 423" class="s41" d="m281 558l3-1h6l2 3v6l3 2-2 6h-5-2l-1-8-4-3z"/>
		<path id="Path 424" class="s50" d="m572 558l3-1 3 5-6 1z"/>
		<path id="Path 425" class="s21" d="m621 558l10-1 7 8-4 2-4 1h-7z"/>
		<path id="Path 426" class="s88" d="m216 562l5-4h5l5 8-2 6-13-4z"/>
		<path id="Path 427" class="s41" d="m236 561l4-3h4v4 4h-2-6z"/>
		<path id="Path 428" class="s37" d="m478 564l2-6 5 4v2z"/>
		<path id="Path 429" class="s32" d="m534 573v-6l12-9h18v14l-4 1h-1-15z"/>
		<path id="Path 430" class="s47" d="m564 572v-14h8v5l-2 9z"/>
		<path id="Path 431" class="s24" d="m598 562l23-4 2 10-2 2h-7l-8 2h-4-5-2l3-3z"/>
		<path id="Path 432" class="s11" d="m647 562v-3l2 3z"/>
		<path id="Path 433" class="s29" d="m192 568v-8l20 2h4v6 6h-22z"/>
		<path id="Path 434" class="s88" d="m511 561l9 1v4l-5 4-4-2z"/>
		<path id="Path 435" class="s58" d="m578 562l18-2 2 2v7l-3 3-6 1h-1-16l-2-1 2-9z"/>
		<path id="Path 436" class="s80" d="m452 566v-5h4l8 3-3 4h-5z"/>
		<path id="Path 437" class="s74" d="m504 564l2-3h5v7l4 2 3 3-2 2h-2l-8 3-2-4z"/>
		<path id="Path 438" class="s56" d="m148 573l-2-9 5-2-3 4 1 7z"/>
		<path id="Path 439" class="s76" d="m244 566v-4h6l1 3z"/>
		<path id="Path 440" class="s70" d="m252 566h7l6-4 10 3 1 9-2 6-4 2h-4l-14-4z"/>
		<path id="Path 441" class="s83" d="m485 564v-2l19 2v10l-6 3 3 3-9 2h-4v-13z"/>
		<path id="Path 442" class="s29" d="m520 566v-4h5l-1 4z"/>
		<path id="Path 443" class="s73" d="m275 565l6-2 4 3 1 8h-10z"/>
		<path id="Path 444" class="s76" d="m313 576l-1-7 4-5 8 2-5 10z"/>
		<path id="Path 445" class="s87" d="m456 568h5l3-4h14 7l3 5v13h-6l-2 3h-8l-4-1-2-6-10-3z"/>
		<path id="Path 446" class="s64" d="m244 566l7-1 1 1v12h-8l-2-12z"/>
		<path id="Path 447" class="s11" d="m634 567l4-2h1z"/>
		<path id="Path 448" class="s28" d="m229 572l2-6h5 6l2 12h-14z"/>
		<path id="Path 449" class="s28" d="m450 580l2-14 4 2v7l10 3 2 6-4 1-12 1z"/>
		<path id="Path 450" class="s57" d="m515 570l5-4h4v6l-5 1h-1z"/>
		<path id="Path 451" class="s0" d="m630 568l4-1-4 2z"/>
		<path id="Path 452" class="s88" d="m185 574l2-6h5l2 6z"/>
		<path id="Path 453" class="s89" d="m216 574v-6l13 4 1 6h-11z"/>
		<path id="Path 454" class="s20" d="m621 570l2-2h7v1z"/>
		<path id="Path 455" class="s30" d="m519 573l5-1 1 1v1h-6z"/>
		<path id="Path 456" class="s28" d="m560 573l4-1h6l2 1v1z"/>
		<path id="Path 457" class="s30" d="m589 573l6-1h2l-1 2h-7z"/>
		<path id="Path 458" class="s85" d="m596 574l1-2h5z"/>
		<path id="Path 459" class="s11" d="m151 575l-3-2h1z"/>
		<path id="Path 460" class="s25" d="m516 575l2-2h1v1z"/>
		<path id="Path 461" class="s26" d="m525 574v-1h9 10v1z"/>
		<path id="Path 462" class="s84" d="m544 574v-1h15v1z"/>
		<path id="Path 463" class="s25" d="m559 574v-1h1l12 1 16-1h1v1z"/>
		<path id="Path 464" class="s23" d="m572 574v-1h16z"/>
		<path id="Path 465" class="s53" d="m184 580l1-6h9 22l3 4-7 3v5h-3l-6-1h-1l-6-2-11-2z"/>
		<path id="Path 466" class="s29" d="m274 580l2-6h10 2v6z"/>
		<path id="Path 467" class="s89" d="m288 580v-6h5l9 3 4 11v4h-10v-6l-8-2z"/>
		<path id="Path 468" class="s12" d="m501 580l-3-3 6-3 2 4-2 2h-2z"/>
		<path id="Path 469" class="s11" d="m159 577l-5-2 5 1z"/>
		<path id="Path 470" class="s25" d="m506 578l8-3-10 5z"/>
		<path id="Path 471" class="s3" d="m159 577v-1h3l16 3v1z"/>
		<path id="Path 472" class="s73" d="m313 586v-10h6l10 3-7 7z"/>
		<path id="Path 473" class="s86" d="m212 586v-5l7-3h11 14 8l14 4v10h-3l-10-2h-5-3l-10-2-15-2z"/>
		<path id="Path 474" class="s80" d="m329 579l5-1 8 2 2 12h-1-21v-6z"/>
		<path id="Path 475" class="s80" d="m400 590v-9l8-3h14l10 2v8h-5l-12 2z"/>
		<path id="Path 476" class="s90" d="m178 580v-1l6 1 1 1v1z"/>
		<path id="Path 477" class="s57" d="m270 582l4-2h14v4 8h-6-7-1v-7z"/>
		<path id="Path 478" class="s74" d="m432 588v-8h18l2 6h-1-10z"/>
		<path id="Path 479" class="s51" d="m492 582l9-2h1z"/>
		<path id="Path 480" class="s30" d="m185 582v-1l11 2v1z"/>
		<path id="Path 481" class="s63" d="m266 592v-10h4l4 3v7h-6z"/>
		<path id="Path 482" class="s51" d="m480 585l2-3h6 4z"/>
		<path id="Path 483" class="s51" d="m196 584v-1l6 2z"/>
		<path id="Path 484" class="s60" d="m288 592v-8l8 2v6z"/>
		<path id="Path 485" class="s14" d="m464 585l4-1 4 1z"/>
		<path id="Path 486" class="s51" d="m209 587l-6-2 6 1z"/>
		<path id="Path 487" class="s3" d="m452 586l12-1-13 2v-1z"/>
		<path id="Path 488" class="s5" d="m209 587v-1h3 8l-1 1z"/>
		<path id="Path 489" class="s7" d="m219 587l1-1 15 2h-5-10z"/>
		<path id="Path 490" class="s74" d="m312 588l1-2h9v6h-10z"/>
		<path id="Path 491" class="s74" d="m360 592v-6h16l3 5-9 1h-4z"/>
		<path id="Path 492" class="s3" d="m432 588l9-2v1l-14 2v-1z"/>
		<path id="Path 493" class="s4" d="m441 587v-1h10v1z"/>
		<path id="Path 494" class="s2" d="m230 589l-10-1h10z"/>
		<path id="Path 495" class="s3" d="m230 589v-1h5l10 2z"/>
		<path id="Path 496" class="s42" d="m306 592v-4h6v4z"/>
		<path id="Path 497" class="s6" d="m415 590l12-2v1z"/>
		<path id="Path 498" class="s17" d="m254 592l-6-2h5z"/>
		<path id="Path 499" class="s34" d="m254 592l-1-2 10 2z"/>
		<path id="Path 500" class="s43" d="m383 591l11-1-11 2z"/>
		<path id="Path 501" class="s56" d="m370 592l9-1h4v1h-12z"/>
		<path id="Path 502" class="s17" d="m268 594v-2h6 1v2z"/>
		<path id="Path 503" class="s51" d="m275 594v-2h7v2z"/>
		<path id="Path 504" class="s30" d="m282 594v-2h6 8v2z"/>
		<path id="Path 505" class="s51" d="m296 594v-2h10 6 10 21v2z"/>
		<path id="Path 506" class="s13" d="m343 594v-2h1 16 6l-1 2z"/>
		<path id="Path 507" class="s25" d="m365 594l1-2h4 1l-1 2z"/>
	</g>
</svg>