<svg version="1.2" xmlns="http://www.w3.org/2000/svg" viewBox="0 0 1000 1000" width="1000" height="1000">
	<title>Perca_flavescens</title>
	<style>
		.s0 { opacity: .1;fill: #f6f6f7 } 
		.s1 { opacity: .6;fill: #bdbec1 } 
		.s2 { opacity: .4;fill: #f4f4f5 } 
		.s3 { opacity: .2;fill: #e1e1e4 } 
		.s4 { opacity: .2;fill: #b9b9be } 
		.s5 { fill: #444b45 } 
		.s6 { fill: #6a6f72 } 
		.s7 { opacity: .8;fill: #a3a4a7 } 
		.s8 { fill: #acadba } 
		.s9 { fill: #343a37 } 
		.s10 { fill: #3c433f } 
		.s11 { opacity: .4;fill: #878887 } 
		.s12 { opacity: .4;fill: #dfdedf } 
		.s13 { opacity: .6;fill: #b6b5b9 } 
		.s14 { fill: #666964 } 
		.s15 { opacity: .6;fill: #ececee } 
		.s16 { fill: #878b92 } 
		.s17 { fill: #777b7c } 
		.s18 { opacity: .6;fill: #d6d6d8 } 
		.s19 { fill: #9a9da9 } 
		.s20 { fill: #2d3433 } 
		.s21 { opacity: .2;fill: #cfcfd2 } 
		.s22 { fill: #585749 } 
		.s23 { opacity: 1;fill: #8f929a } 
		.s24 { fill: #83827e } 
		.s25 { fill: #5e6057 } 
		.s26 { fill: #565a54 } 
		.s27 { fill: #77746a } 
		.s28 { fill: #898476 } 
		.s29 { fill: #5f6360 } 
		.s30 { fill: #4a504a } 
		.s31 { fill: #716f66 } 
		.s32 { fill: #d9d6d4 } 
		.s33 { fill: #656150 } 
		.s34 { opacity: .2;fill: #9f9fa4 } 
		.s35 { opacity: .8;fill: #dadadc } 
		.s36 { fill: #3e4238 } 
		.s37 { fill: #505550 } 
		.s38 { fill: #828689 } 
		.s39 { fill: #7e7b70 } 
		.s40 { fill: #1d201d } 
		.s41 { fill: #706b56 } 
		.s42 { fill: #262824 } 
		.s43 { fill: #222420 } 
		.s44 { opacity: .9;fill: #6c7170 } 
		.s45 { fill: #928f87 } 
		.s46 { opacity: .4;fill: #c5c4c7 } 
		.s47 { opacity: .6;fill: #969798 } 
		.s48 { fill: #a4a09c } 
		.s49 { fill: #91866e } 
		.s50 { fill: #908a7d } 
		.s51 { fill: #6a695c } 
		.s52 { fill: #2b2d28 } 
		.s53 { fill: #32342b } 
		.s54 { fill: #837b68 } 
		.s55 { fill: #494530 } 
		.s56 { fill: #4e4e42 } 
		.s57 { fill: #78725e } 
		.s58 { opacity: .4;fill: #acaaab } 
		.s59 { opacity: .8;fill: #bdbec4 } 
		.s60 { opacity: .2;fill: #707270 } 
		.s61 { opacity: 1;fill: #7d7d7a } 
		.s62 { fill: #b7a990 } 
		.s63 { fill: #a49986 } 
		.s64 { fill: #c2b194 } 
		.s65 { fill: #bab0a3 } 
		.s66 { fill: #3a3a2d } 
		.s67 { opacity: .7;fill: #5f615e } 
		.s68 { fill: #b09d79 } 
		.s69 { fill: #ada08a } 
		.s70 { fill: #9d9076 } 
		.s71 { fill: #a69471 } 
		.s72 { fill: #d5c5ab } 
		.s73 { fill: #8d7c58 } 
		.s74 { fill: #60593d } 
		.s75 { fill: #9a9790 } 
		.s76 { fill: #cebc99 } 
		.s77 { fill: #bca984 } 
		.s78 { fill: #9a8861 } 
		.s79 { fill: #786a46 } 
		.s80 { fill: #a89266 } 
		.s81 { fill: #857550 } 
		.s82 { fill: #676047 } 
		.s83 { fill: #514c37 } 
		.s84 { opacity: .2;fill: #f5f5f6 } 
		.s85 { opacity: .8;fill: #f4f4f5 } 
		.s86 { fill: #9a8458 } 
		.s87 { fill: #e3d2b5 } 
		.s88 { fill: #c8baa7 } 
		.s89 { fill: #c8c2be } 
		.s90 { opacity: .6;fill: #6c6f6c } 
		.s91 { fill: #aea9a6 } 
		.s92 { opacity: 1;fill: #b9bac7 } 
		.s93 { fill: #d6cec5 } 
		.s94 { fill: #af8a54 } 
		.s95 { fill: #b07d41 } 
		.s96 { fill: #a77130 } 
	</style>
	<g id="Background">
		<path id="Path 0" class="s0" d="m411 379v-1h2z"/>
		<path id="Path 1" class="s1" d="m411 379l2-1h8l1 2h-5l-8 2v-1z"/>
		<path id="Path 2" class="s2" d="m422 380l-1-2h3v2z"/>
		<path id="Path 3" class="s3" d="m738 460h1v1h-1z"/>
		<path id="Path 4" class="s3" d="m543 418h1v1h-1z"/>
		<path id="Path 5" class="s4" d="m476 400h1v1h-1z"/>
		<path id="Path 6" class="s5" d="m409 382l8-2v8h4v14h3v10l-9-7h-9v-21z"/>
		<path id="Path 7" class="s6" d="m421 388h-4v-8h5 2 1l5 2 1 2-8 4z"/>
		<path id="Path 8" class="s4" d="m430 382l-5-2 12 3z"/>
		<path id="Path 9" class="s4" d="m386 383l23-2v1z"/>
		<path id="Path 10" class="s7" d="m386 383l23-1-3 2h-19l-17 8-3-2-9 2v-1l1-1 3-2 11 2 3-2 2-2 3-1 3-2z"/>
		<path id="Path 11" class="s8" d="m431 384l-1-2 7 1 2 2h1v2l-3-1z"/>
		<path id="Path 12" class="s9" d="m370 392l17-8h19v21h-6l-4 4-8 1h-5l-3-8h-10z"/>
		<path id="Path 13" class="s10" d="m423 388l8-4 6 2-5 8h-4z"/>
		<path id="Path 14" class="s11" d="m440 387v-2l11 1v2z"/>
		<path id="Path 15" class="s5" d="m432 394l5-8 3 1 11 1 6 1 7 3 3 1h1v1l1 3-3 7-4 2v6h-4l-6-10-14-2v-3z"/>
		<path id="Path 16" class="s12" d="m451 388v-2l6 2v1z"/>
		<path id="Path 17" class="s13" d="m595 388l17-2 1 2v1h-1l-8-1-9 1z"/>
		<path id="Path 18" class="s14" d="m424 402h-3v-14h2l5 6-4 3z"/>
		<path id="Path 19" class="s15" d="m457 389v-1l7 3v1z"/>
		<path id="Path 20" class="s3" d="m591 390l4-2v1z"/>
		<path id="Path 21" class="s16" d="m595 389l9-1v8l-8 7h-3l-10-7v-1l3-2 5-3z"/>
		<path id="Path 22" class="s17" d="m604 396v-8l8 1v7z"/>
		<path id="Path 23" class="s18" d="m613 389v-1l4 2z"/>
		<path id="Path 24" class="s19" d="m612 396v-7h1l4 1h2l3 2 5 6 5 5 2 2 3 3 2 2 1 3-2 10-6-1-3-1-4-13h-7z"/>
		<path id="Path 25" class="s20" d="m358 392l9-2 3 2v10l-1 3-7 4-6 4-9 4-3-3h-7v-8l20-14z"/>
		<path id="Path 26" class="s3" d="m622 392l-3-2 3 1z"/>
		<path id="Path 27" class="s21" d="m354 393l4-2v1h-1z"/>
		<path id="Path 28" class="s3" d="m464 392v-1l3 2z"/>
		<path id="Path 29" class="s12" d="m622 392v-1h4l1 7z"/>
		<path id="Path 30" class="s13" d="m354 393l3-1-20 14-12 8h-2-1v-1l22-17z"/>
		<path id="Path 31" class="s3" d="m468 394v-1l4 3z"/>
		<path id="Path 32" class="s22" d="m424 402v-5l4-3h4l6 3v3l4 7-2 13h-8l-8-1v-7z"/>
		<path id="Path 33" class="s23" d="m469 397l-1-3 4 2 2 2 2 2 1 1 2 2 2 2v1l-6-4z"/>
		<path id="Path 34" class="s3" d="m578 399l5-4v1z"/>
		<path id="Path 35" class="s17" d="m578 399l5-3 10 7-5 5h-9l-3-6 1-2z"/>
		<path id="Path 36" class="s24" d="m596 403l8-7h8l6 12h7l4 13 3 1-1 3h-4l-11-10-11 1-9-5z"/>
		<path id="Path 37" class="s10" d="m466 404l3-7 6 5-1 2z"/>
		<path id="Path 38" class="s25" d="m440 420l2-13-4-7 14 2 6 10h4l4 8v8l1 4v2l-19-1-1-7-7-2z"/>
		<path id="Path 39" class="s12" d="m571 405l6-5-1 2z"/>
		<path id="Path 40" class="s14" d="m369 405l1-3h10l3 8-1 4h-5v-4l-7-2z"/>
		<path id="Path 41" class="s26" d="m474 404l1-2 6 4 8 7v1l-2 4h-3-8z"/>
		<path id="Path 42" class="s27" d="m571 405l5-3 3 6h9v10h-5l-3 6h-8l-2-6-1-11z"/>
		<path id="Path 43" class="s4" d="m481 405l-2-2 3 2z"/>
		<path id="Path 44" class="s28" d="m588 408l5-5h3v8l9 5-1 14h-9l-3-10-4-2z"/>
		<path id="Path 45" class="s29" d="m462 412v-6l4-2h8l2 14-2 1-8 1z"/>
		<path id="Path 46" class="s29" d="m362 409l7-4 1 3 7 2v4l-1 4h-8z"/>
		<path id="Path 47" class="s30" d="m396 409l4-4h6 9l9 7v7 9h-8l-22-4v-8z"/>
		<path id="Path 48" class="s7" d="m481 406v-1h1l7 6v1 1z"/>
		<path id="Path 49" class="s13" d="m558 408l13-3-2 2-11 2z"/>
		<path id="Path 50" class="s9" d="m325 414l12-8v8l-3 3v7 1l-8-1z"/>
		<path id="Path 51" class="s17" d="m558 409l11-2 1 11h-3-8l-5-5 2-3z"/>
		<path id="Path 52" class="s3" d="m556 410l2-2v1z"/>
		<path id="Path 53" class="s25" d="m356 413l6-4 6 9-3 6h-7l-2-5z"/>
		<path id="Path 54" class="s31" d="m388 410l8-1-2 7-6-2z"/>
		<path id="Path 55" class="s30" d="m382 414l1-4h5v4z"/>
		<path id="Path 56" class="s3" d="m553 413l3-3-2 3z"/>
		<path id="Path 57" class="s12" d="m640 413l-1-3 3 4z"/>
		<path id="Path 58" class="s0" d="m489 412v-1h7l1 4-2-1z"/>
		<path id="Path 59" class="s32" d="m489 413v-1l6 2h-2-4z"/>
		<path id="Path 60" class="s3" d="m319 415l3-2v1z"/>
		<path id="Path 61" class="s33" d="m347 417l9-4v6l-10 5z"/>
		<path id="Path 62" class="s3" d="m549 415l3-2-2 2z"/>
		<path id="Path 63" class="s27" d="m550 415l2-2h1 1l5 5h8v5l3 1-2 10h-10l-5-10 1-6-4-1z"/>
		<path id="Path 64" class="s8" d="m638 423l2-10 2 1 1 1 9 7 2 4 3 5v1h-4l-1 4h-10-2z"/>
		<path id="Path 65" class="s4" d="m846 415l8-2v1z"/>
		<path id="Path 66" class="s34" d="m854 414v-1h6v1z"/>
		<path id="Path 67" class="s35" d="m860 414v-1l7 3v5l-4-3z"/>
		<path id="Path 68" class="s7" d="m319 415l3-1h1l-8 7 1-3z"/>
		<path id="Path 69" class="s10" d="m315 421l8-7h2l1 10-6 2-6-2v-2z"/>
		<path id="Path 70" class="s36" d="m334 424v-7l3-3h7l3 3-1 7z"/>
		<path id="Path 71" class="s37" d="m376 418l1-4h5l2 10v2h-8z"/>
		<path id="Path 72" class="s29" d="m384 424l-2-10h6l6 2v8z"/>
		<path id="Path 73" class="s20" d="m487 418l2-4h4l3 6z"/>
		<path id="Path 74" class="s38" d="m496 420l-3-6h2l2 1 1 3v5h-1z"/>
		<path id="Path 75" class="s38" d="m846 415l8-1h6l3 4-3 24-2 8-8 5-7-5v-7l-8-3-1-10-3-9v-1l5-2 8-3z"/>
		<path id="Path 76" class="s21" d="m498 418l-1-3 2 3z"/>
		<path id="Path 77" class="s3" d="m544 418l4-3-1 2-1 1z"/>
		<path id="Path 78" class="s7" d="m547 417l1-2h1 1v2z"/>
		<path id="Path 79" class="s39" d="m605 416l11-1 11 10h4v9l5 4-2 10-16-3-2-5-10 2h-2v-12z"/>
		<path id="Path 80" class="s15" d="m652 422l-9-7 6 1z"/>
		<path id="Path 81" class="s14" d="m546 418l1-1h3l4 1-1 6-7 1-2-4z"/>
		<path id="Path 82" class="s12" d="m309 425l7-7-1 3-1 1z"/>
		<path id="Path 83" class="s9" d="m365 424l3-6h8v8z"/>
		<path id="Path 84" class="s10" d="m474 419l2-1h8l2 16-7-4 2-4h-7z"/>
		<path id="Path 85" class="s30" d="m486 434l-2-16h3l9 2 1 3v6l8 6v1l1 2-15-1z"/>
		<path id="Path 86" class="s34" d="m498 423v-5h1v5z"/>
		<path id="Path 87" class="s7" d="m543 419l1-1h2l-2 3h-2v-1z"/>
		<path id="Path 88" class="s28" d="m570 424l-3-1v-5h3l2 6z"/>
		<path id="Path 89" class="s39" d="m580 424l3-6h5l4 2 3 10-1 12h-5z"/>
		<path id="Path 90" class="s16" d="m860 442l3-24 4 3v4l1 8v9z"/>
		<path id="Path 91" class="s40" d="m346 424l10-5 2 5h7l11 2h8l4 4v8l-6 1-2 11-30-2-2-8z"/>
		<path id="Path 92" class="s37" d="m424 428v-9l8 1v6 3z"/>
		<path id="Path 93" class="s5" d="m466 420l8-1v7l-8 2z"/>
		<path id="Path 94" class="s29" d="m432 426v-6h8v4z"/>
		<path id="Path 95" class="s35" d="m531 428l11-8v1l-6 6z"/>
		<path id="Path 96" class="s3" d="m821 425l3-4 7-1v1l-7 3z"/>
		<path id="Path 97" class="s41" d="m536 427l6-6h2l2 4-2 7h-6l-2-2z"/>
		<path id="Path 98" class="s17" d="m824 424l7-3 3 9h-8z"/>
		<path id="Path 99" class="s7" d="m309 425l5-3v2l-6 3z"/>
		<path id="Path 100" class="s38" d="m631 425l1-3 6 1 2 13-4 2-5-4z"/>
		<path id="Path 101" class="s18" d="m505 435l-8-6v-6h1 1v5l6 5z"/>
		<path id="Path 102" class="s42" d="m308 427l6-3 6 2 6-2 8 1 2 10 12 5 2 8 2 8v2h-6l-10-2-8-7v-8l-3-3h-11l-3-4-29 4v-3l3-2 19-6z"/>
		<path id="Path 103" class="s43" d="m334 425v-1h12l2 16-12-5z"/>
		<path id="Path 104" class="s43" d="m384 426v-2h10l22 4v24l-12-1v-4l-8-8-8-1v-8z"/>
		<path id="Path 105" class="s9" d="m432 426l8-2 7 2 1 7-12 1-4-5z"/>
		<path id="Path 106" class="s24" d="m546 425l7-1 5 10-4 4-10-6z"/>
		<path id="Path 107" class="s24" d="m568 434l2-10h2 8l9 18v5l-4 5h-3l-8-4v-4l-4-1z"/>
		<path id="Path 108" class="s27" d="m821 425l3-1 2 6h-6l-1-3z"/>
		<path id="Path 109" class="s12" d="m304 426l5-1-1 2h-4z"/>
		<path id="Path 110" class="s3" d="m816 428l5-3-2 2z"/>
		<path id="Path 111" class="s4" d="m868 433l-1-8 2 8z"/>
		<path id="Path 112" class="s44" d="m285 431l19-5v1l-19 6v-1z"/>
		<path id="Path 113" class="s38" d="m466 428l8-2h7l-2 4-12 2z"/>
		<path id="Path 114" class="s27" d="m531 428l5-1v3l-6 1-4-1 1-2z"/>
		<path id="Path 115" class="s28" d="m816 428l3-1 1 3h6v10l-2 17v9l-6 1-2-10-8-7-2-11 1-6 4-3z"/>
		<path id="Path 116" class="s42" d="m416 452v-24h8l8 1 4 5 4 20-2 6h-10l-5-8z"/>
		<path id="Path 117" class="s1" d="m518 433l1-3 8-2-1 2-6 4h-2z"/>
		<path id="Path 118" class="s42" d="m467 432l12-2 7 4 5 3-1 7h-18l-5-10z"/>
		<path id="Path 119" class="s5" d="m520 434l6-4 4 1v5z"/>
		<path id="Path 120" class="s31" d="m530 431l6-1 2 2v5l-8-1z"/>
		<path id="Path 121" class="s24" d="m594 442l1-12h9v12l-10 2z"/>
		<path id="Path 122" class="s3" d="m806 433l5-3-4 3z"/>
		<path id="Path 123" class="s45" d="m826 440v-10h8l1 10h-1z"/>
		<path id="Path 124" class="s3" d="m281 433l4-2v1z"/>
		<path id="Path 125" class="s0" d="m657 432v-1l4 2 1 5z"/>
		<path id="Path 126" class="s7" d="m281 433l4-1v1l-3 2-20 7 1-2z"/>
		<path id="Path 127" class="s25" d="m538 437v-5h6l10 6v4h-8z"/>
		<path id="Path 128" class="s19" d="m652 436l1-4h4l5 6 3 6-3 6-8-2z"/>
		<path id="Path 129" class="s40" d="m436 434l12-1 19 1 5 10-1 2-22 1-1 7h-8z"/>
		<path id="Path 130" class="s46" d="m505 435v-2l5 2v1h-5z"/>
		<path id="Path 131" class="s47" d="m510 435l8-2v1l-5 2h-3z"/>
		<path id="Path 132" class="s31" d="m801 435l4-2h1 1l-1 6-13 4-3-2 4-3z"/>
		<path id="Path 133" class="s35" d="m868 442v-9h1l2 13-2 5-2 1z"/>
		<path id="Path 134" class="s40" d="m282 438l29-4 3 4-4 14h-7l-3 8-22-2v-16z"/>
		<path id="Path 135" class="s42" d="m513 436l5-2h2l10 2 8 1 8 5 1 13 11 9v6h-4-6v-7l-5-5h-15l-8-2-4-4v-5l-7-4-2-5z"/>
		<path id="Path 136" class="s17" d="m554 438l4-4h10l2 9v3l-16-4z"/>
		<path id="Path 137" class="s43" d="m262 442l20-7v3l-4 4v16 4l-20 1 2 19-4 1 2 19h-12l-6-7v-17l12-8-2-22 4-3z"/>
		<path id="Path 138" class="s38" d="m506 438l-1-2h5 3l-6 2z"/>
		<path id="Path 139" class="s48" d="m636 438l4-2h2v13l-6 2-2-3z"/>
		<path id="Path 140" class="s23" d="m642 449v-13h10l2 12 8 2v5l5 3-1 6v7l-7-1v-5l-9-7-5-9z"/>
		<path id="Path 141" class="s43" d="m490 444l1-7 15 1h1l2 5 7 4v5h-16l-7-3z"/>
		<path id="Path 142" class="s43" d="m310 452l4-14h11l3 3v8l-7 1-1 4h-10z"/>
		<path id="Path 143" class="s42" d="m380 450l2-11 6-1 8 1 8 8v4l-10 3z"/>
		<path id="Path 144" class="s12" d="m665 444l-3-6 4 2 1 5z"/>
		<path id="Path 145" class="s15" d="m786 441l8-3-4 3-4 1z"/>
		<path id="Path 146" class="s49" d="m793 443l13-4 2 11h-16z"/>
		<path id="Path 147" class="s1" d="m251 445l12-5-1 2-8 3z"/>
		<path id="Path 148" class="s45" d="m606 442l10-2 2 5 16 3 2 3v8l-5 3h-8l-13-8v-7z"/>
		<path id="Path 149" class="s50" d="m824 457l2-17h8l2 17z"/>
		<path id="Path 150" class="s24" d="m836 457l-2-17h1l8 3v7l7 5-4 19h-10v-8z"/>
		<path id="Path 151" class="s4" d="m778 445l3-4h5v1z"/>
		<path id="Path 152" class="s51" d="m786 442l4-1 3 2-1 7v8l-6 1v7l10 7v7l-4 8h-4l-2-6v-7l-10-19v-4l-5-2h-2l8-5h1z"/>
		<path id="Path 153" class="s43" d="m558 470v-6l-11-9-1-13h8l16 4 4 2 8 4-1 9-7 4v7z"/>
		<path id="Path 154" class="s23" d="m589 447v-5h5v2l-3 3z"/>
		<path id="Path 155" class="s38" d="m594 444l10-2h2l4 5v7l-4 3-9-1-5-2-1-7z"/>
		<path id="Path 156" class="s23" d="m850 455l8-5 2-8h8l-1 10v1 1l-5 17v2l-5 6-5 7-4 4v-4l3-7-5-5z"/>
		<path id="Path 157" class="s6" d="m570 446v-3l4 1v4z"/>
		<path id="Path 158" class="s52" d="m471 446l1-2h18l3 5 7 3h16l4 4v6h-4-16l-5-2-1 6-3 2h-11l-3-4-15 1-14-1v-8l21-2z"/>
		<path id="Path 159" class="s8" d="m662 450l3-6 2 1 3 11v2h-3l-5-3z"/>
		<path id="Path 160" class="s38" d="m243 448l6-3h2 3l-4 3-19 6 1-2 4-2z"/>
		<path id="Path 161" class="s12" d="m670 456l-3-11 4 1 1 10z"/>
		<path id="Path 162" class="s12" d="m761 451l16-6-8 5-5 2h-3z"/>
		<path id="Path 163" class="s43" d="m448 454l1-7 22-1-2 8-21 2z"/>
		<path id="Path 164" class="s29" d="m585 452l4-5h2l1 7z"/>
		<path id="Path 165" class="s40" d="m231 454l19-6 2 22-12 8-6-2z"/>
		<path id="Path 166" class="s52" d="m352 456l-2-8 30 2 14 4v5l-10 3h-16l-4-5-8-1z"/>
		<path id="Path 167" class="s53" d="m320 454l1-4 7-1 8 7v5l-15 1z"/>
		<path id="Path 168" class="s39" d="m636 451l6-2h3l5 9 9 7v5l-28-4v-4l5-3z"/>
		<path id="Path 169" class="s4" d="m229 453l7-3-4 2z"/>
		<path id="Path 170" class="s37" d="m764 452l5-2h2l-2 4z"/>
		<path id="Path 171" class="s26" d="m769 454l2-4 5 2v4h-7z"/>
		<path id="Path 172" class="s54" d="m792 458v-8h16l8 7 2 10-4 19h-6l-4-6v-8l-3-11z"/>
		<path id="Path 173" class="s53" d="m394 454l10-3 12 1h7l5 8-3 6-7 2h-6l-12-1v-6l-6-2z"/>
		<path id="Path 174" class="s21" d="m758 453l3-2v1z"/>
		<path id="Path 175" class="s0" d="m867 452l2-1-2 2z"/>
		<path id="Path 176" class="s13" d="m229 453l3-1-1 2-19 8h-1v-2z"/>
		<path id="Path 177" class="s42" d="m300 460l3-8h7v2 8z"/>
		<path id="Path 178" class="s42" d="m574 472v-7l7-4 1-9h3l7 2 5 2-1 6-8 2-6 10h-8z"/>
		<path id="Path 179" class="s5" d="m758 453l3-1h3l5 2v2l-3 5-3 3h-7l-2-9 3-2z"/>
		<path id="Path 180" class="s21" d="m753 455l4-2-3 2z"/>
		<path id="Path 181" class="s42" d="m212 462l19-8 3 22-11 3-1-1v-7l-3-3h-7z"/>
		<path id="Path 182" class="s52" d="m310 462v-8h10l1 8-2 3h-3z"/>
		<path id="Path 183" class="s20" d="m438 460l2-6h8v2 8 2h-6-4z"/>
		<path id="Path 184" class="s17" d="m606 457l4-3 13 8v2l-15-4z"/>
		<path id="Path 185" class="s12" d="m862 471l5-17-1 12z"/>
		<path id="Path 186" class="s21" d="m744 458l8-3-4 2z"/>
		<path id="Path 187" class="s37" d="m748 457l4-2h1 1l2 9v4h-8-4l-2-6z"/>
		<path id="Path 188" class="s9" d="m336 461v-5l10 2v5h-6z"/>
		<path id="Path 189" class="s37" d="m352 458v-2h4l1 12-5-2z"/>
		<path id="Path 190" class="s10" d="m357 468l-1-12 8 1 4 5h16v6 10l3 2-3 6-2 4h-4l-3-5-5-8h-5z"/>
		<path id="Path 191" class="s36" d="m520 462v-6l8 2v4z"/>
		<path id="Path 192" class="s52" d="m582 474l6-10 8-2 1-6 9 1 2 3v10l10 2v7l8 3v7l-8 1-3-4h-9l-12-1-10-6z"/>
		<path id="Path 193" class="s35" d="m670 458v-2h2v11l-2-3z"/>
		<path id="Path 194" class="s25" d="m766 461l3-5h7l10 19v7h-6v-5l-10-7v-6z"/>
		<path id="Path 195" class="s7" d="m744 458l4-1-6 5-14 7-4 2-10 3v-1l4-2 6-5 7-1 3-2 3-2h1l1-1z"/>
		<path id="Path 196" class="s39" d="m824 466v-9h12v9h-10z"/>
		<path id="Path 197" class="s20" d="m278 462v-4l22 2 10 2 6 3 2 9-4 1-2-6-4 3-18 2-6-8h-6z"/>
		<path id="Path 198" class="s5" d="m346 463v-5h6v8l5 2 8 9h5l5 8-1 7 4-2h4l-4 9-7-3-4-10-6 5-3-8-4-1h-4v-15z"/>
		<path id="Path 199" class="s52" d="m528 462v-4h15l5 5v7h-2-11v-4z"/>
		<path id="Path 200" class="s16" d="m666 464l1-6h3v6z"/>
		<path id="Path 201" class="s31" d="m796 473l-10-7v-7l6-1 9 3 3 11z"/>
		<path id="Path 202" class="s9" d="m384 462l10-3 6 2v6l-6 3-10-2z"/>
		<path id="Path 203" class="s46" d="m201 465l10-5v2l-6 2z"/>
		<path id="Path 204" class="s55" d="m425 466l3-6h10v6l1 6-5 6-7-6z"/>
		<path id="Path 205" class="s53" d="m494 466l1-6 5 2v4z"/>
		<path id="Path 206" class="s42" d="m618 472l-10-2v-10l15 4 8 2 28 4 7 1 8 3h6l-2 14v2h-7l-9-2v-4l-5-2h-10l-1 4h-8l-2-4h-8v-10l-2-2z"/>
		<path id="Path 207" class="s10" d="m321 462l15-1 4 2v11l-4 4-12-2v-5l-5-6z"/>
		<path id="Path 208" class="s51" d="m763 464l3-3 4 3v6h-6z"/>
		<path id="Path 209" class="s43" d="m205 464l6-2h1v6l-6 1-2-3z"/>
		<path id="Path 210" class="s52" d="m260 482l-2-19 20-1v4l-2 20h-8z"/>
		<path id="Path 211" class="s36" d="m500 466v-4h16l4 13-8 3-6-1-6-2z"/>
		<path id="Path 212" class="s9" d="m520 475l-4-13h4 8l7 4v4l-9 5z"/>
		<path id="Path 213" class="s6" d="m623 464v-2h8v4z"/>
		<path id="Path 214" class="s5" d="m728 469l14-7 2 6h4v6l-6 4h-6v-6z"/>
		<path id="Path 215" class="s56" d="m340 474v-11h6l4 4v15h-2-2l-2-6z"/>
		<path id="Path 216" class="s7" d="m201 465l4-1-1 2-9 3-13 3v-2z"/>
		<path id="Path 217" class="s10" d="m448 466v-2l14 1 2 12h-10l-6-4z"/>
		<path id="Path 218" class="s9" d="m462 465l15-1 3 4v8l-13 1h-3z"/>
		<path id="Path 219" class="s19" d="m666 471v-7h4l2 3v4l1 1 1 2z"/>
		<path id="Path 220" class="s22" d="m756 468v-4h7l1 6-8 1z"/>
		<path id="Path 221" class="s50" d="m318 474l-2-9h3l5 6v5 2h-2z"/>
		<path id="Path 222" class="s42" d="m195 469l9-3 2 3-2 10 3 2 1 8-14 18-3-3v-6l-1-5v-9l6-6z"/>
		<path id="Path 223" class="s9" d="m276 486l2-20h6l6 8v6 4l-4 2z"/>
		<path id="Path 224" class="s56" d="m418 468l7-2 2 6-9 2z"/>
		<path id="Path 225" class="s36" d="m439 472l-1-6h4v6z"/>
		<path id="Path 226" class="s5" d="m442 472v-6h6v7l-2 1z"/>
		<path id="Path 227" class="s9" d="m491 468l3-2h6v9h-2l-5-2z"/>
		<path id="Path 228" class="s57" d="m818 467l6-1h2l2 14v16h-12l-2-10z"/>
		<path id="Path 229" class="s54" d="m828 480l-2-14h10v8l-2 6z"/>
		<path id="Path 230" class="s33" d="m394 470l6-3 12 1v8 6h-3l-5-2-5 4-1-1v-5l-4-2z"/>
		<path id="Path 231" class="s40" d="m206 469l6-1h7l3 3v7l-8 3-3 8h-3l-1-8-3-2z"/>
		<path id="Path 232" class="s5" d="m387 480l-3-2v-10l10 2v6 4z"/>
		<path id="Path 233" class="s41" d="m412 476v-8h6v6l-3 2z"/>
		<path id="Path 234" class="s10" d="m480 476v-8h11l2 5 5 2v7l-6 1-6-6h-6z"/>
		<path id="Path 235" class="s30" d="m742 478l6-4v-6h8v3l-2 17-3 4-9-1z"/>
		<path id="Path 236" class="s40" d="m182 472l13-3 1 9-6 6v9l-5 2h-5l-2 4h-13l-7-13v-5l18-7z"/>
		<path id="Path 237" class="s31" d="m308 472l4-3 2 6 4-1 4 4-2 2h-4l-4-1z"/>
		<path id="Path 238" class="s43" d="m724 471l4-2 8 3v6l-10 2z"/>
		<path id="Path 239" class="s58" d="m171 475l11-5v2l-6 2z"/>
		<path id="Path 240" class="s56" d="m526 475l9-5h11l2 14v4h-4-7z"/>
		<path id="Path 241" class="s9" d="m548 484l-2-14h2 6v7l4 3v4z"/>
		<path id="Path 242" class="s20" d="m558 480l-4-3v-7h4l16 2v2 6z"/>
		<path id="Path 243" class="s43" d="m618 472l8-2 2 2v10h-2l-8-3z"/>
		<path id="Path 244" class="s26" d="m756 471l8-1h6l10 7v5h-11l-3 3v7h-4l-8-4z"/>
		<path id="Path 245" class="s3" d="m673 472l-1-1 12 2z"/>
		<path id="Path 246" class="s42" d="m714 474l10-3 2 9-10 6h-6l-9-2-1-8h1z"/>
		<path id="Path 247" class="s30" d="m290 474l18-2 4 7-2 3-3-1-1 4-7 3-4-2v-4l-5-2z"/>
		<path id="Path 248" class="s33" d="m418 474l9-2 7 6v6l-5 5-3-1-4-5-6-1-1-6z"/>
		<path id="Path 249" class="s6" d="m434 478l5-6h3l4 2v4l5 2-3 4-1-2-10 2h-3z"/>
		<path id="Path 250" class="s59" d="m674 474l-1-2 11 1v1h-4z"/>
		<path id="Path 251" class="s57" d="m796 473l8-1v8h-8z"/>
		<path id="Path 252" class="s37" d="m446 474l2-1 6 4v1l-3 2-5-2z"/>
		<path id="Path 253" class="s60" d="m684 474v-1h9v1h-5z"/>
		<path id="Path 254" class="s34" d="m693 474v-1h7v1z"/>
		<path id="Path 255" class="s4" d="m700 474v-1h14v1h-13z"/>
		<path id="Path 256" class="s3" d="m857 479l5-6-1 5z"/>
		<path id="Path 257" class="s61" d="m171 475l5-1-18 7-5 1 3-4h5l8-3z"/>
		<path id="Path 258" class="s31" d="m336 478l4-4 4 2 2 6-4 9-2-7-4-2z"/>
		<path id="Path 259" class="s9" d="m574 480v-6h8l2 5-2 3z"/>
		<path id="Path 260" class="s52" d="m678 488l2-14h4 4l12 2 1 8-5 5-6 1z"/>
		<path id="Path 261" class="s24" d="m700 476l-12-2h5 7 1v2z"/>
		<path id="Path 262" class="s23" d="m701 476v-2h13z"/>
		<path id="Path 263" class="s39" d="m834 480l2-6h10l5 5-3 7h-12z"/>
		<path id="Path 264" class="s33" d="m498 482v-7h2l6 2v5l-5 2z"/>
		<path id="Path 265" class="s33" d="m512 478l8-3h6l11 13-6 7-9 1-2-7-8-8z"/>
		<path id="Path 266" class="s52" d="m223 479l11-3 6 2v17l6 7-4 4h-19l-5-16z"/>
		<path id="Path 267" class="s22" d="m324 478v-2l12 2v4 8h-5l-2-6-5-1z"/>
		<path id="Path 268" class="s45" d="m394 480v-4l4 2v5z"/>
		<path id="Path 269" class="s45" d="m412 482v-6h3l1 6z"/>
		<path id="Path 270" class="s26" d="m467 477l13-1v1 7l7 4v4l-6 6h-11v-8z"/>
		<path id="Path 271" class="s29" d="m454 478v-1h10 3l3 13-14-3z"/>
		<path id="Path 272" class="s30" d="m487 492v-4l-7-4v-7h6l6 6-1 8-1 1z"/>
		<path id="Path 273" class="s51" d="m506 482v-5l6 1v3l-2 1z"/>
		<path id="Path 274" class="s53" d="m211 489l3-8 8-3 1 1-5 11z"/>
		<path id="Path 275" class="s56" d="m320 480l2-2h2v5l-4 1z"/>
		<path id="Path 276" class="s48" d="m451 480l3-2 2 9-4 1h-4v-4z"/>
		<path id="Path 277" class="s10" d="m726 480l10-2h6v13l-6 2v10l-9 6-7-4-4-5v-14z"/>
		<path id="Path 278" class="s22" d="m310 482l2-3 4 1v4l-3 9-7 1-7-1v-5l7-3 4 2z"/>
		<path id="Path 279" class="s56" d="m582 482l2-3 10 6v8l-8 1-4-2z"/>
		<path id="Path 280" class="s38" d="m290 484v-4l5 2v4z"/>
		<path id="Path 281" class="s62" d="m316 484v-4h4v4 1z"/>
		<path id="Path 282" class="s22" d="m384 486l3-6h7l4 3 1 1v7l-2 3h-6z"/>
		<path id="Path 283" class="s24" d="m399 484l5-4 5 2 2 9-7 1-5-1z"/>
		<path id="Path 284" class="s10" d="m558 484v-4h16l8 2v10l-2 2-8 2-6-3-3-5h-5z"/>
		<path id="Path 285" class="s41" d="m792 488l4-8h8l4 6h6l2 10v15l6 3v8 6l10 6 2 6-6 4-10-2v-6l-8-2-1-4 3-6-2-11-4-4h-6l-5-2v-4l-3-1v-7z"/>
		<path id="Path 286" class="s27" d="m828 496v-16h6l2 6v10h-2z"/>
		<path id="Path 287" class="s3" d="m148 483l4-1-2 1z"/>
		<path id="Path 288" class="s10" d="m153 482l5-1v5h-7l-1-3 2-1z"/>
		<path id="Path 289" class="s63" d="m306 485l1-4 3 1v5z"/>
		<path id="Path 290" class="s50" d="m510 482l2-1 8 8 2 7-2 2-10-2z"/>
		<path id="Path 291" class="s42" d="m258 502l-2-19 4-1 8 4v14z"/>
		<path id="Path 292" class="s64" d="m336 490v-8l4 2 2 7 3 6-3 2-4-5z"/>
		<path id="Path 293" class="s63" d="m342 491l4-9h2l1 7 5 2v-9l4 1 3 8 3 5-1 6h-4-9v-4l-5-1z"/>
		<path id="Path 294" class="s41" d="m354 482v9l-5-2-1-7h2z"/>
		<path id="Path 295" class="s51" d="m411 491l-2-9h3 4l6 1 4 5-4 6-2-4z"/>
		<path id="Path 296" class="s65" d="m437 484l10-2 1 2v4l-5 4h-3z"/>
		<path id="Path 297" class="s51" d="m492 483l6-1 3 2 1 12h-4l-7-5z"/>
		<path id="Path 298" class="s41" d="m501 484l5-2h4v14l-5 2-3-2z"/>
		<path id="Path 299" class="s20" d="m626 489v-7h2 8l2 4v6h-11z"/>
		<path id="Path 300" class="s36" d="m646 486l1-4h10l5 2v4 4h-6-8z"/>
		<path id="Path 301" class="s5" d="m766 492v-7l3-3h11 6l2 6v5l-12 3-1-3z"/>
		<path id="Path 302" class="s9" d="m143 485l4-2h1 2l1 3-5 8h-6l-3-4 1-2z"/>
		<path id="Path 303" class="s57" d="m320 484l4-1 5 1 2 6-1 5-9 1-1-2v-9z"/>
		<path id="Path 304" class="s55" d="m286 486l4-2 5 2 4 2v5l-1 3h-11z"/>
		<path id="Path 305" class="s54" d="m313 493l3-9 4 1v9l-4 1z"/>
		<path id="Path 306" class="s31" d="m429 489l5-5h3l3 8-8 3z"/>
		<path id="Path 307" class="s5" d="m548 488v-4h10v4l-3 2z"/>
		<path id="Path 308" class="s30" d="m696 489l5-5 9 2v12h-10z"/>
		<path id="Path 309" class="s3" d="m136 488l7-3-5 3z"/>
		<path id="Path 310" class="s39" d="m378 490l-4 2 1-7z"/>
		<path id="Path 311" class="s22" d="m594 493v-8l12 1v14l-2 1h-4z"/>
		<path id="Path 312" class="s52" d="m140 494h6l5-8h7l7 13h13l1 5-3 18h-6-6l-28-2v-12l4-2z"/>
		<path id="Path 313" class="s53" d="m268 500v-14h8v12l-4 3z"/>
		<path id="Path 314" class="s66" d="m276 498v-12h10l1 10-1 2z"/>
		<path id="Path 315" class="s54" d="m361 491l6-5 4 10h-7z"/>
		<path id="Path 316" class="s27" d="m382 490l2-4 7 8v10l3 1v5l-1 4h-1-4l-8-7-2-8z"/>
		<path id="Path 317" class="s51" d="m606 500v-14h9l3 4 8-1 1 3 2 5 11 5 1 9-3 9v2h-4l-6-2-1-4-5-10h-8z"/>
		<path id="Path 318" class="s9" d="m638 492v-6h8l2 6v2h-6z"/>
		<path id="Path 319" class="s37" d="m710 498v-12h6v14h-6z"/>
		<path id="Path 320" class="s17" d="m836 496v-10h12v4 4l2 3 6 8 1 7-1 6h-12l-2-10 2-10z"/>
		<path id="Path 321" class="s0" d="m848 490l4-4-3 7 3 4h-2l-2-3z"/>
		<path id="Path 322" class="s51" d="m452 488l4-1 14 3v8 3l-2 3h-4l-1-3-5 2-6-6z"/>
		<path id="Path 323" class="s67" d="m131 490l5-2h2l-1 2-8 3v-1z"/>
		<path id="Path 324" class="s68" d="m422 494l4-6 3 1 3 6v3l-2 8-8-1z"/>
		<path id="Path 325" class="s69" d="m443 492l5-4h4v9l6 6 5-2 1 3-4 4-2 22h-4l-5-2v-4l1-8v-14l-4-2v-6z"/>
		<path id="Path 326" class="s49" d="m522 496l9-1 6-7h7v7l18 14 1 8-5 3-9-12-7-3-7 3-4-3-1 4-6-2-4-6v-3z"/>
		<path id="Path 327" class="s51" d="m562 509l-18-14v-7h4l7 2 1 6 8 1v8z"/>
		<path id="Path 328" class="s30" d="m555 490l3-2h5l3 5-2 4-8-1z"/>
		<path id="Path 329" class="s10" d="m662 492v-4l9 2-1 10h-8v-2z"/>
		<path id="Path 330" class="s30" d="m678 490v-2l12 2-2 12h-5-1v-8z"/>
		<path id="Path 331" class="s37" d="m751 492l3-4 8 4v4l-8 2z"/>
		<path id="Path 332" class="s33" d="m788 493v-5h4v7z"/>
		<path id="Path 333" class="s55" d="m194 507l14-18h3l7 1 5 16h19v6l-8 8-12 2-12-6h-4l-3 6-6 5-7 1-4-1v-1l-2-6z"/>
		<path id="Path 334" class="s26" d="m690 490l6-1 4 9v6 2h-4l-8-4z"/>
		<path id="Path 335" class="s34" d="m128 491l3-1-2 2z"/>
		<path id="Path 336" class="s42" d="m129 493l8-3 3 4v12l-4 2-4-4h-13l-3-3z"/>
		<path id="Path 337" class="s68" d="m330 495l1-5h5l2 4-2 1h-4z"/>
		<path id="Path 338" class="s70" d="m411 491l9-1 2 4v11l-4 2v10l-2 3h-7l-3-9 2-5-4-2v-12z"/>
		<path id="Path 339" class="s5" d="m670 500l1-10h7l4 4v8h-12z"/>
		<path id="Path 340" class="s13" d="m111 501l17-10 1 1v1l-13 8-9 6-2 1 1-3 2-2h1z"/>
		<path id="Path 341" class="s28" d="m397 494l2-3 5 1v12l4 2-2 5-6-1h-6v-5z"/>
		<path id="Path 342" class="s27" d="m490 492l1-1 7 5v12l-4 1v3 4l-1 3h-3l1 6v4l-1 1-4-1v5l-11-5-1-9v-3h3v-6h-3l-2-1-2-9v-3h11l1 5 5-2z"/>
		<path id="Path 343" class="s5" d="m727 509l9-6v-10l6-2 9 1 3 6v8l4 2v8 8l-2 3-13 1-1-4h-7l-7-1-1-8z"/>
		<path id="Path 344" class="s63" d="m432 495l8-3h3l3 2v6l4 2v14l-11 2-1-1-1-10-4-3-1-6z"/>
		<path id="Path 345" class="s33" d="m481 498l6-6h3l-3 9-5 2z"/>
		<path id="Path 346" class="s33" d="m580 494l2-2 4 2v5l-6-3z"/>
		<path id="Path 347" class="s26" d="m640 502l-11-5-2-5h11l4 2v6z"/>
		<path id="Path 348" class="s5" d="m648 494v-2h8v6h-6z"/>
		<path id="Path 349" class="s30" d="m656 498v-6h6v6z"/>
		<path id="Path 350" class="s33" d="m762 496v-4h4l9 1 1 3v11l-5 1h-5v-10z"/>
		<path id="Path 351" class="s30" d="m185 495l5-2 1 5h-5z"/>
		<path id="Path 352" class="s51" d="m298 496l1-3 7 1v6h-8z"/>
		<path id="Path 353" class="s31" d="m306 494l7-1 3 2v9h-4l-6-4z"/>
		<path id="Path 354" class="s14" d="m564 497l2-4 6 3 1 7-5 4-4-2z"/>
		<path id="Path 355" class="s54" d="m586 494l8-1 6 8h4l-1 4-4 3-7-1-5-3-1-5z"/>
		<path id="Path 356" class="s25" d="m776 496l12-3 4 2v7l-9 6-7-1z"/>
		<path id="Path 357" class="s41" d="m316 495l4-1 1 2-2 8h-3z"/>
		<path id="Path 358" class="s71" d="m321 496l9-1h2v7l-4 1v5h-8l-1-4z"/>
		<path id="Path 359" class="s72" d="m332 495h4v7h-4z"/>
		<path id="Path 360" class="s73" d="m336 495l2-1 4 5 3-2 5 1v4l-4 3v15h-8l-4-9 5-2-3-7z"/>
		<path id="Path 361" class="s31" d="m394 505l-3-1v-10h6z"/>
		<path id="Path 362" class="s51" d="m572 496l8-2v2l-4 7h-3z"/>
		<path id="Path 363" class="s25" d="m642 500v-6h6l2 4v2l-5 3z"/>
		<path id="Path 364" class="s29" d="m178 499l2-4h5l1 3h5v6l-4 2-8-2z"/>
		<path id="Path 365" class="s41" d="m286 498l1-2h11v4l-2 4h-10z"/>
		<path id="Path 366" class="s22" d="m363 502l1-6h7l7 3 2 8 8 7v6 7l-3 7-3 1-12-4v-20z"/>
		<path id="Path 367" class="s54" d="m498 508v-12h4l3 2v10h-5z"/>
		<path id="Path 368" class="s70" d="m505 498l5-2 10 2v3l-2 7 5 3 3 8-4 1-7-12-5 2-5-2z"/>
		<path id="Path 369" class="s28" d="m573 503h3l4-7 6 3 1 5-1 6v4l-4 8h-8l-6-4v-11z"/>
		<path id="Path 370" class="s14" d="m754 498l8-2 4 2v10h-8l-4-2z"/>
		<path id="Path 371" class="s33" d="m822 514l-6-3v-15h12v8l3 2-5 8z"/>
		<path id="Path 372" class="s31" d="m831 506l-3-2v-8h6v10z"/>
		<path id="Path 373" class="s14" d="m834 506v-10h2l8 2-2 10z"/>
		<path id="Path 374" class="s32" d="m856 505l-6-8h2l2 3 3 3 1 2z"/>
		<path id="Path 375" class="s74" d="m272 501l4-3h10v6l-5 5h-5l-3 5-6 3-3 7-10 4-1-6 3-10 12-2z"/>
		<path id="Path 376" class="s72" d="m430 506l2-8 1 6 4 3 1 10-4-2-2-6z"/>
		<path id="Path 377" class="s51" d="m650 500v-2h6 6v2 3z"/>
		<path id="Path 378" class="s25" d="m700 504v-6h10v2 4z"/>
		<path id="Path 379" class="s66" d="m258 502l10-2 4 1-4 9-12 2-9 1-5-1v-6l4-4z"/>
		<path id="Path 380" class="s57" d="m296 504l2-4h8l6 4v8l-6-1v6l4 4-8 1-6-3z"/>
		<path id="Path 381" class="s69" d="m604 501l2-1 8 6v6h-8l-3-7z"/>
		<path id="Path 382" class="s57" d="m640 502l2-2 3 3-1 7-3 1z"/>
		<path id="Path 383" class="s70" d="m645 503l5-3 12 3 6 3 3 16-3 6h-12l-3-7-15-1 3-9 3-1z"/>
		<path id="Path 384" class="s29" d="m662 503v-3h8v2l-2 4z"/>
		<path id="Path 385" class="s54" d="m710 504v-4h6l4 5-6 1z"/>
		<path id="Path 386" class="s43" d="m107 507l9-6 3 3h13l4 4v12l-24 4-5-6z"/>
		<path id="Path 387" class="s75" d="m468 504l2-3 2 9-3-1z"/>
		<path id="Path 388" class="s76" d="m526 519l-3-8-5-3 2-7 4 6 6 2 2 2 1 12z"/>
		<path id="Path 389" class="s77" d="m328 508v-5l4-1h4l3 7-5 2-4 1z"/>
		<path id="Path 390" class="s78" d="m346 520v-15l4-3h9l1 13 4 4v9l3 3-1 11-2 7h-4l-8-7 2-14z"/>
		<path id="Path 391" class="s79" d="m367 531l-3-3v-9l-4-4-1-13h4l7 9v20z"/>
		<path id="Path 392" class="s31" d="m668 506l2-4h12 1l-1 11 4 7-12 2h-3z"/>
		<path id="Path 393" class="s28" d="m686 520l-4-7 1-11h5l8 4v8l-1 7-3 1z"/>
		<path id="Path 394" class="s56" d="m783 508l9-6 3 1v4l-1 9-11 2-1-4z"/>
		<path id="Path 395" class="s0" d="m858 505l-1-2 2 2z"/>
		<path id="Path 396" class="s53" d="m176 522l3-18 8 2 4-2 3 3-10 13-4 2z"/>
		<path id="Path 397" class="s51" d="m281 509l5-5h10v15l-4 1h-6v-7z"/>
		<path id="Path 398" class="s74" d="m312 512v-8h4 3l1 4-1 11 4 2v4h-4l-8 11-7-1-2-5v-8l8-1z"/>
		<path id="Path 399" class="s31" d="m458 530l2-22 4-4h4l1 5 1 11v9l-12 2z"/>
		<path id="Path 400" class="s62" d="m586 510l1-6 5 3v3z"/>
		<path id="Path 401" class="s49" d="m700 506v-2h10l4 2 2 14-16 1v-7z"/>
		<path id="Path 402" class="s21" d="m98 518l1-8 7-5-1 3z"/>
		<path id="Path 403" class="s64" d="m418 517v-10l4-2 8 1 2 3-2 9-4 1z"/>
		<path id="Path 404" class="s64" d="m530 509l1-4 4 3-3 3z"/>
		<path id="Path 405" class="s62" d="m535 508l7-3 7 3 9 12 2 8-2 4-1 8h-13l-16-2-10-2v-8l-5-4-3-10v-4l5-2 7 12 4-1 7 4-1-12z"/>
		<path id="Path 406" class="s27" d="m562 509l2-4 4 2v11l-5-1z"/>
		<path id="Path 407" class="s64" d="m592 507l7 1 4-3 3 7h8l8 4-1 11-2 3-10 3-5-10-12-7v-6z"/>
		<path id="Path 408" class="s57" d="m714 506l6-1 7 4v6l-9 5h-2z"/>
		<path id="Path 409" class="s19" d="m857 512l-1-7h2 1l3 3 2 2 1 2-1 1z"/>
		<path id="Path 410" class="s63" d="m614 512v-6h8l5 10h-5z"/>
		<path id="Path 411" class="s70" d="m696 514v-8h4v8z"/>
		<path id="Path 412" class="s27" d="m822 514h4l5-8h3l8 2 2 10v4h-22z"/>
		<path id="Path 413" class="s20" d="m105 508l2-1v11l5 6v16l-2 4h-2l-10-10v-2-8-4-2z"/>
		<path id="Path 414" class="s36" d="m771 508l5-1 7 1-1 6h-8z"/>
		<path id="Path 415" class="s74" d="m794 516l1-9 5 2v7z"/>
		<path id="Path 416" class="s80" d="m323 525v-4l-4-2 1-11h8l2 4 4-1 4 9h8l8 8-2 14 8 7-2 5-7 3-4-5h-7v-15l-3-3h-8z"/>
		<path id="Path 417" class="s69" d="m494 512v-3l4-1h2l-1 4z"/>
		<path id="Path 418" class="s64" d="m494 512h5l1-4h5l5 6 3 10 5 4v8h-7l-4 8-3 1-3-3 1-8v-6l-4-4v-6l-4-2z"/>
		<path id="Path 419" class="s49" d="m510 514l-5-6 5 2z"/>
		<path id="Path 420" class="s37" d="m758 516v-8h8 5l3 6v8l8 1v7h-6l-11-14z"/>
		<path id="Path 421" class="s27" d="m273 514l3-5h5l5 4v7l-9 9-2-2z"/>
		<path id="Path 422" class="s78" d="m430 518l2-9 2 6 4 2 1 1 1 7h-2z"/>
		<path id="Path 423" class="s57" d="m470 520l-1-11 3 1 2 1v6 3z"/>
		<path id="Path 424" class="s33" d="m800 516v-7h6l4 4 2 11-3 6h-4z"/>
		<path id="Path 425" class="s73" d="m393 514l1-4h6l-2 6z"/>
		<path id="Path 426" class="s68" d="m398 516l2-6 6 1 3 9v4h-11z"/>
		<path id="Path 427" class="s71" d="m586 514v-4h6v6z"/>
		<path id="Path 428" class="s3" d="m865 512l-1-2 5 1 2 4h-1z"/>
		<path id="Path 429" class="s77" d="m310 521l-4-4v-6l6 1z"/>
		<path id="Path 430" class="s62" d="m474 517v-6h3v6z"/>
		<path id="Path 431" class="s79" d="m234 520l8-8 5 1v7l6 2 1 6-6 8-6-1v-7l-5-1z"/>
		<path id="Path 432" class="s55" d="m247 513l9-1-3 10-6-2z"/>
		<path id="Path 433" class="s6" d="m856 518l1-6 7 1 5 15h-13z"/>
		<path id="Path 434" class="s23" d="m864 513l1-1 5 3 9 16v2 1 6l-1 4h-6l-3-16z"/>
		<path id="Path 435" class="s57" d="m264 524l3-7 6-3 2 13-5 2v3h-6z"/>
		<path id="Path 436" class="s41" d="m388 520v-6h4v6z"/>
		<path id="Path 437" class="s81" d="m392 520v-6h1l5 2v8l-6 2z"/>
		<path id="Path 438" class="s77" d="m582 522l4-8 6 2 12 7 5 10-9 8-2 1-5-1-11-12z"/>
		<path id="Path 439" class="s54" d="m695 521l1-7h4v7l-2 1z"/>
		<path id="Path 440" class="s5" d="m782 523l-8-1v-8h8l1 4z"/>
		<path id="Path 441" class="s37" d="m718 520l9-5 1 8-2 1h-8z"/>
		<path id="Path 442" class="s35" d="m879 531l-9-16h1l8 8z"/>
		<path id="Path 443" class="s74" d="m203 522l3-6h4l12 6v5l-3 3h-6z"/>
		<path id="Path 444" class="s72" d="m439 518l11-2-1 8-6-5v6h-3z"/>
		<path id="Path 445" class="s39" d="m493 519l1-3 4 2v6h-4z"/>
		<path id="Path 446" class="s70" d="m621 527l1-11h5l1 4 6 2-1 3-7-1-1 3z"/>
		<path id="Path 447" class="s26" d="m758 524v-8h7l11 14v6h-4l-4-3-2-9z"/>
		<path id="Path 448" class="s22" d="m783 518l11-2h6l5 14-1 8h-4-10-2v-6l-6-2v-7z"/>
		<path id="Path 449" class="s71" d="m416 520l2-3 8 2-1 13-9-5z"/>
		<path id="Path 450" class="s24" d="m558 520l5-3 5 1 6 4v10h-10-6l2-4z"/>
		<path id="Path 451" class="s49" d="m426 519l4-1 8 7v3 10h-13v-6z"/>
		<path id="Path 452" class="s39" d="m844 522v-4h12v10 3h-6-3z"/>
		<path id="Path 453" class="s81" d="m292 520l4-1 6 3v8h-8l-3-2z"/>
		<path id="Path 454" class="s71" d="m440 525h3v-6l6 5v4l5 2 1 6-1 8-6 2 1-16-4-1-3 3-4-4v-3z"/>
		<path id="Path 455" class="s48" d="m491 525l-1-6h3l1 5z"/>
		<path id="Path 456" class="s18" d="m96 524v-4h2v4z"/>
		<path id="Path 457" class="s10" d="m112 524l24-4 28 2v4l-2 4-14 2-18 1-2 7h-16z"/>
		<path id="Path 458" class="s22" d="m180 522l4-2 2 6h-6z"/>
		<path id="Path 459" class="s82" d="m222 522l12-2 3 7 5 1v7h-4l-6 1-6-4v-4l-4-1z"/>
		<path id="Path 460" class="s74" d="m277 529l9-9h6l-1 8-9 10-5 4-3-4z"/>
		<path id="Path 461" class="s49" d="m388 527v-7h4v6 1z"/>
		<path id="Path 462" class="s78" d="m409 524v-4h7v7l9 5v6l-1 6h-7l-4 6-3-1v-7z"/>
		<path id="Path 463" class="s63" d="m470 529v-9h4l1 9z"/>
		<path id="Path 464" class="s78" d="m638 522v-2l15 1 3 7-4 4h-10v-8z"/>
		<path id="Path 465" class="s36" d="m674 522l12-2 6 2 1 4-1 8-9 2h-2-4-5v-6z"/>
		<path id="Path 466" class="s36" d="m700 521l16-1h2v4l-4 8h-12l-4-6v-4z"/>
		<path id="Path 467" class="s36" d="m164 522h6v4h-6z"/>
		<path id="Path 468" class="s22" d="m692 522l3-1 3 1v4h-5z"/>
		<path id="Path 469" class="s33" d="m170 526v-4h6 4v4l-4 2z"/>
		<path id="Path 470" class="s41" d="m190 528l7-1 6-5 10 8-1 12-4 6h-6l-10-2-2-16z"/>
		<path id="Path 471" class="s49" d="m574 532v-10h8v7l11 12-1 7-9 1-5-5z"/>
		<path id="Path 472" class="s41" d="m625 527l1-3 7 1 1-3h4l4 2v8 2h-13z"/>
		<path id="Path 473" class="s56" d="m668 528l3-6h3l-2 8h-4z"/>
		<path id="Path 474" class="s33" d="m832 534l-10-6v-6h22l3 9-2 3h-8z"/>
		<path id="Path 475" class="s36" d="m726 524l2-1 7 1 1 7-5 6-6-2-1-2z"/>
		<path id="Path 476" class="s7" d="m96 531v-7h2v8z"/>
		<path id="Path 477" class="s28" d="m254 528l10-4v8 7l-4 5h-8l-4-1v-7z"/>
		<path id="Path 478" class="s80" d="m392 526l6-2h11l1 18h-6l-8-1-2-5-2-9z"/>
		<path id="Path 479" class="s63" d="m491 525l3-1h4l4 4v6h-6l-1-4-4-1z"/>
		<path id="Path 480" class="s9" d="m714 532l4-8h8l-2 9-7-1z"/>
		<path id="Path 481" class="s56" d="m736 531l-1-7h7l1 4-1 3z"/>
		<path id="Path 482" class="s25" d="m756 527l2-3h8l2 9 4 3v10h-6-2l-6-2z"/>
		<path id="Path 483" class="s79" d="m311 536l8-11h4l6 9-6 7-1 7h-10z"/>
		<path id="Path 484" class="s22" d="m148 532l14-2 2-4h6l6 2v5l-6 4v7 4h-10l-3-6-9-3z"/>
		<path id="Path 485" class="s25" d="m176 528l4-2h6v1 3 16l-2 1-3-3h-11v-7l6-4z"/>
		<path id="Path 486" class="s5" d="m692 534l1-8h5l4 6-1 2h-7z"/>
		<path id="Path 487" class="s83" d="m186 530v-3l4 1v2z"/>
		<path id="Path 488" class="s41" d="m219 530l3-3 4 1v4l-2 2h-5z"/>
		<path id="Path 489" class="s50" d="m270 532v-3l5-2 2 2-3 9h-4z"/>
		<path id="Path 490" class="s54" d="m385 534l3-7h4l2 9z"/>
		<path id="Path 491" class="s54" d="m619 530l2-3h4l4 7-7 2z"/>
		<path id="Path 492" class="s39" d="m743 528l13-1 2 17h-5-4v-1l1-6-6-2-2-4z"/>
		<path id="Path 493" class="s64" d="m282 538l9-10 3 2v10 5l-6 1z"/>
		<path id="Path 494" class="s76" d="m438 538v-10l4 4 3-3 4 1-1 16h-6v-6z"/>
		<path id="Path 495" class="s22" d="m642 532h10l4-4h12v2 7l-4 2h-2-1l-4-1-1 4-10 2-4-1v-9z"/>
		<path id="Path 496" class="s38" d="m856 531v-3h13l3 16h-5l-10-6-1-3z"/>
		<path id="Path 497" class="s49" d="m458 531l12-2h5l11 5 4-4 1-1 4 1 1 4h6l-1 8 3 3v5h-8l-2 7-2 2-14-2-20-21z"/>
		<path id="Path 498" class="s65" d="m486 534v-5l4 1z"/>
		<path id="Path 499" class="s33" d="m186 546v-16h4l2 16z"/>
		<path id="Path 500" class="s54" d="m212 542l1-12h6v4l-2 6z"/>
		<path id="Path 501" class="s45" d="m294 540v-10h8l2 5-3 5z"/>
		<path id="Path 502" class="s72" d="m455 536l-1-6h4v1 5z"/>
		<path id="Path 503" class="s39" d="m609 533l10-3 3 6-3 5h-19z"/>
		<path id="Path 504" class="s5" d="m668 537v-7h4v6z"/>
		<path id="Path 505" class="s25" d="m776 536v-6h6l6 2v6z"/>
		<path id="Path 506" class="s74" d="m804 538l1-8h4l1 4v4z"/>
		<path id="Path 507" class="s12" d="m96 534v-3l2 1v2z"/>
		<path id="Path 508" class="s57" d="m366 542l1-11h3l12 4v7h-4z"/>
		<path id="Path 509" class="s57" d="m731 537l5-6h6l2 4 6 2-1 6-10-2-5-2h-1z"/>
		<path id="Path 510" class="s31" d="m837 534h8l2-3h3l1 4h5l1 3-1 8h-12l-8-2v-4z"/>
		<path id="Path 511" class="s25" d="m856 535h-5l-1-4h6z"/>
		<path id="Path 512" class="s26" d="m128 540l2-7 18-1v7l9 3 3 6-2 4h-6-6l-2-8-7 2h-5z"/>
		<path id="Path 513" class="s75" d="m224 534l2-2 6 4 6-1v7h-4l-6-1z"/>
		<path id="Path 514" class="s54" d="m264 539v-7h6v6 4h-4z"/>
		<path id="Path 515" class="s57" d="m557 540l1-8h6v7l9 7 2 6-2 8-3 2h-7l-3-19z"/>
		<path id="Path 516" class="s54" d="m575 552l-2-6-9-7v-7h10l4 12 5 5-1 3z"/>
		<path id="Path 517" class="s7" d="m701 534l1-2h12 3v2z"/>
		<path id="Path 518" class="s44" d="m717 534v-2l7 1 1 2-1 1z"/>
		<path id="Path 519" class="s84" d="m879 534v-1h2v15h-2l1-8z"/>
		<path id="Path 520" class="s12" d="m108 544h-4l-6-6v-4z"/>
		<path id="Path 521" class="s50" d="m212 542l5-2 2-6h5l4 7 6 1v7h-4l-6 8-11 1-5-10z"/>
		<path id="Path 522" class="s81" d="m312 548h10l1-7 6-7h8l3 3v15l-1 3h-5l-3 4-5 3h-10v-8l-4-2z"/>
		<path id="Path 523" class="s81" d="m382 535l3-1 9 2 2 5 1 8-11 3h-1l-3-10z"/>
		<path id="Path 524" class="s56" d="m622 536l7-2h13v9l-5 5-5 1h-9l-4-8z"/>
		<path id="Path 525" class="s1" d="m683 536l9-2h2z"/>
		<path id="Path 526" class="s84" d="m676 600v-5 6z"/>
		<path id="Path 527" class="s82" d="m810 538v-4l8 2v6h-2z"/>
		<path id="Path 528" class="s39" d="m834 540l-2-6h5l-1 6z"/>
		<path id="Path 529" class="s85" d="m879 540v-6l1 6z"/>
		<path id="Path 530" class="s45" d="m238 542v-7h4l6 1v7 1z"/>
		<path id="Path 531" class="s54" d="m301 540l3-5 7 1 1 12h-10z"/>
		<path id="Path 532" class="s13" d="m724 536l1-1 6 2 2 2z"/>
		<path id="Path 533" class="s68" d="m454 544l1-8h3l20 21v4l-5 2-3-5-6-2-4-2v-7z"/>
		<path id="Path 534" class="s68" d="m507 544l4-8h7l10 2v10l5 6-3 9-14-1v-5l-8-3v-4z"/>
		<path id="Path 535" class="s47" d="m668 537l4-1h5v2l-13 1z"/>
		<path id="Path 536" class="s12" d="m677 538v-2h4z"/>
		<path id="Path 537" class="s14" d="m772 546v-10h4l12 2h2l-2 10z"/>
		<path id="Path 538" class="s82" d="m270 542v-4h4l3 4-1 4-3 1z"/>
		<path id="Path 539" class="s62" d="m277 542l5-4 6 8-2 4-10-4z"/>
		<path id="Path 540" class="s68" d="m424 544l1-6h13l4 2v6l-4 4h-10l-4-1z"/>
		<path id="Path 541" class="s80" d="m533 554l-5-6v-10l16 2v7l-6 7z"/>
		<path id="Path 542" class="s19" d="m646 544l10-2 1-4 4 1-3 2 2 4v13l-14 7v15h-5l-3-3-24-5v-6l-6-2v-6l24 2h8 6l4-4-4-10z"/>
		<path id="Path 543" class="s31" d="m788 548l2-10h10l2 12h-4l-10-1z"/>
		<path id="Path 544" class="s57" d="m802 550l-2-12h4 6l6 4v12h-3l-9-2z"/>
		<path id="Path 545" class="s14" d="m856 546l1-8 10 6-3 6h-8z"/>
		<path id="Path 546" class="s75" d="m260 544l4-5 2 3-2 4h-4z"/>
		<path id="Path 547" class="s3" d="m660 545l-2-4 3-2h1l-1 6z"/>
		<path id="Path 548" class="s9" d="m110 544l2-4h16l4 6-3 9-7-3-10-5z"/>
		<path id="Path 549" class="s62" d="m294 545v-5h7l1 8v8l6 3 5 4-9 1-4-1-2-5v-9z"/>
		<path id="Path 550" class="s63" d="m533 554h5l6-7v-7h13l3 3 3 19v2l-15 2-18 2v-5z"/>
		<path id="Path 551" class="s54" d="m818 542l10 2 6-4h2v4l-2 12h-6l-12-2v-12z"/>
		<path id="Path 552" class="s18" d="m878 544l1-4h1l-1 8h-1z"/>
		<path id="Path 553" class="s73" d="m397 549l-1-8 8 1v6z"/>
		<path id="Path 554" class="s39" d="m592 548l1-7 5 1-2 6z"/>
		<path id="Path 555" class="s22" d="m598 542l2-1h19l4 8-10 1-5 4h-3l-2-3h-7v-3z"/>
		<path id="Path 556" class="s21" d="m749 544l-10-3 10 2z"/>
		<path id="Path 557" class="s24" d="m234 549v-7h4l10 2v2 8l-7 2z"/>
		<path id="Path 558" class="s31" d="m264 546l2-4h4l3 5-2 5-3 4h-4z"/>
		<path id="Path 559" class="s49" d="m364 549l2-7h12v10h-12z"/>
		<path id="Path 560" class="s73" d="m378 552v-10h4l3 10z"/>
		<path id="Path 561" class="s86" d="m404 548v-6h6v7z"/>
		<path id="Path 562" class="s39" d="m248 544v-1l4 1v2h-4z"/>
		<path id="Path 563" class="s29" d="m637 548l5-5 4 1v2l-6 2z"/>
		<path id="Path 564" class="s46" d="m112 548h-3l-1-4h2l2 3z"/>
		<path id="Path 565" class="s29" d="m137 546l7-2 2 8h-5z"/>
		<path id="Path 566" class="s29" d="m170 548v-4h11l3 3v7h-10z"/>
		<path id="Path 567" class="s50" d="m252 546v-2h8v2l-4 4z"/>
		<path id="Path 568" class="s71" d="m413 550l4-6h7v5l-3 9-8-2z"/>
		<path id="Path 569" class="s72" d="m448 546l6-2 6 3v7l4 2v16l-6 2h-18-16l1-15 3-9h10l4-4z"/>
		<path id="Path 570" class="s77" d="m504 545l3-1 1 6h-4z"/>
		<path id="Path 571" class="s1" d="m764 546l-11-2h5z"/>
		<path id="Path 572" class="s27" d="m834 556l2-12 8 2v11h-1-4z"/>
		<path id="Path 573" class="s17" d="m856 550h8l3-6h5 6v4l-1 3-2 3-5 5h-14z"/>
		<path id="Path 574" class="s87" d="m288 546l6-1 4 4v9l-8 1-4-3v-6z"/>
		<path id="Path 575" class="s8" d="m646 580v-15l14-7v-13h1l3 1v4l3 9v2l-5 5 2 26h-6l-4-7z"/>
		<path id="Path 576" class="s36" d="m129 555l3-9h5l4 6-2 8-4-1h-2z"/>
		<path id="Path 577" class="s39" d="m184 547l2-1h6l10 2v4l-5 4h-11l-2-2z"/>
		<path id="Path 578" class="s38" d="m248 554v-8h4l4 4v4z"/>
		<path id="Path 579" class="s51" d="m256 550l4-4h4v10l-6 2-2-4z"/>
		<path id="Path 580" class="s88" d="m273 547l3-1 10 4v6l4 3v3h-6l-6-1v-6l-7-3z"/>
		<path id="Path 581" class="s23" d="m640 548l6-2 4 10-4 4h-6z"/>
		<path id="Path 582" class="s12" d="m773 548l-7-2h6z"/>
		<path id="Path 583" class="s47" d="m773 548l-1-2 16 2v1z"/>
		<path id="Path 584" class="s6" d="m844 557v-11h12v4 9h-2z"/>
		<path id="Path 585" class="s34" d="m112 548v-1l10 5v2z"/>
		<path id="Path 586" class="s33" d="m158 552l2-4h10l4 6h10l2 2v10h-2-10l-2-4h-12z"/>
		<path id="Path 587" class="s54" d="m186 556h11l5-4v-4h6l5 10-4 4-1 14h-5l-1-4h-6l-6-6h-4z"/>
		<path id="Path 588" class="s73" d="m308 559l-6-3v-8h10v4l-4 1z"/>
		<path id="Path 589" class="s77" d="m397 549l7-1 6 1 3 1v6l-8 4-8 1-11 1v-10z"/>
		<path id="Path 590" class="s82" d="m583 549l9-1h4v3 5l-5 7h-6l-1-1-2-10z"/>
		<path id="Path 591" class="s38" d="m632 549l5-1h3v12h-8z"/>
		<path id="Path 592" class="s46" d="m877 551l1-3h1z"/>
		<path id="Path 593" class="s51" d="m224 557l6-8h4l7 7-9 10h-4v-5z"/>
		<path id="Path 594" class="s68" d="m358 554l2-5h4l2 3-1 15h-4l-3-3z"/>
		<path id="Path 595" class="s64" d="m421 558l3-9 4 1-3 9z"/>
		<path id="Path 596" class="s17" d="m608 554l5-4 10-1h9v11l-24-2z"/>
		<path id="Path 597" class="s34" d="m798 551l-10-2 10 1z"/>
		<path id="Path 598" class="s71" d="m494 557l2-7h8 4v4 4z"/>
		<path id="Path 599" class="s7" d="m798 551v-1h4l2 2h-6z"/>
		<path id="Path 600" class="s33" d="m596 556v-5h7l2 3z"/>
		<path id="Path 601" class="s46" d="m875 554l2-3-1 3z"/>
		<path id="Path 602" class="s18" d="m122 554v-2l7 3 4 4-5-1-2-2z"/>
		<path id="Path 603" class="s37" d="m139 560l2-8h5 6l4 10-3 6-4-1z"/>
		<path id="Path 604" class="s56" d="m156 562l-4-10h6l2 10z"/>
		<path id="Path 605" class="s89" d="m268 556l3-4 7 3v6l-3 4-9 2z"/>
		<path id="Path 606" class="s78" d="m308 559v-6l4-1 4 2v8l-1 1h-2z"/>
		<path id="Path 607" class="s63" d="m339 555l1-3h7l4 5-2 5h-9z"/>
		<path id="Path 608" class="s64" d="m365 567l1-15h12v8l4 3v3l-10 4z"/>
		<path id="Path 609" class="s68" d="m382 563l-4-3v-8h7 1v10z"/>
		<path id="Path 610" class="s74" d="m573 560l2-8h7l2 10h-5z"/>
		<path id="Path 611" class="s34" d="m813 554l-15-2h6z"/>
		<path id="Path 612" class="s31" d="m241 556l7-2h8l2 4v10l-4 1v4l1 6 3 1v8l-1 1h-1-5l-18-2-4-1 1-10-6-1v-8l4-1h4z"/>
		<path id="Path 613" class="s64" d="m351 557l7-3v10l3 3-3 3-8-2-1-6z"/>
		<path id="Path 614" class="s69" d="m508 558v-4l8 3v5h-6z"/>
		<path id="Path 615" class="s38" d="m596 556l9-2h3v4 6l-6 1v7 11l-4 1-9-2-5-6-6-8 1-2 6-3h6z"/>
		<path id="Path 616" class="s21" d="m870 559l5-5h1v4z"/>
		<path id="Path 617" class="s48" d="m331 559l3-4h5l1 7-4 2h-3z"/>
		<path id="Path 618" class="s54" d="m258 558l6-2h4l-2 11v1h-6-2z"/>
		<path id="Path 619" class="s88" d="m405 560l8-4 8 2 4 1-1 15-4 3-6 1h-8l-1-4z"/>
		<path id="Path 620" class="s88" d="m464 572v-16l6 2 3 5 1 4v5z"/>
		<path id="Path 621" class="s13" d="m839 558l-11-2h6l5 1z"/>
		<path id="Path 622" class="s27" d="m213 558l11-1 4 4v5l-4 1v8l-11 3h-5v-2l1-14z"/>
		<path id="Path 623" class="s65" d="m478 561v-4l14 2 5 11-3 6h-4l-8 2h-8v-6-5l5-2z"/>
		<path id="Path 624" class="s63" d="m492 559l2-2 14 1 2 4v8h-13z"/>
		<path id="Path 625" class="s90" d="m839 558v-1h4v1z"/>
		<path id="Path 626" class="s12" d="m843 558v-1h1l10 2z"/>
		<path id="Path 627" class="s32" d="m290 559l8-1 2 5 4 1v7l-3 3h-7-2l-2-12z"/>
		<path id="Path 628" class="s21" d="m135 561l-2-2h2z"/>
		<path id="Path 629" class="s13" d="m135 561v-2l4 1 10 7-3-1-8-3-2-2z"/>
		<path id="Path 630" class="s91" d="m326 562l5-3 2 5h3v3l-4 1h-6z"/>
		<path id="Path 631" class="s87" d="m397 561l8-1v14h-3z"/>
		<path id="Path 632" class="s82" d="m570 562l3-2 6 2v4l-1 2-8 2v-2z"/>
		<path id="Path 633" class="s91" d="m275 565l3-4 6 1v10l8 2h2v4h-12l-4-1-3-5z"/>
		<path id="Path 634" class="s72" d="m386 562l11-1 5 13-1 3-3 1h-11l-5-12v-3z"/>
		<path id="Path 635" class="s5" d="m473 563l5-2 1 4-5 2z"/>
		<path id="Path 636" class="s92" d="m664 592l-2-26 5-5 2 7 3 8v4l4 15v5l-1 3-1 4h-8z"/>
		<path id="Path 637" class="s26" d="m153 568l3-6h4 12l2 4v9h-7l-4-1-10-5z"/>
		<path id="Path 638" class="s89" d="m292 574l-8-2v-10h6z"/>
		<path id="Path 639" class="s63" d="m315 563l1-1h10v6h-9z"/>
		<path id="Path 640" class="s65" d="m336 564l4-2h9l1 6v6h-8v-4l-6-3z"/>
		<path id="Path 641" class="s45" d="m510 570v-8h6v12h-5z"/>
		<path id="Path 642" class="s50" d="m516 574v-12l14 1v5 4l-1 2h-10z"/>
		<path id="Path 643" class="s33" d="m563 564v-2h7v6z"/>
		<path id="Path 644" class="s33" d="m579 566v-4h5l1 1z"/>
		<path id="Path 645" class="s89" d="m304 564l9-1h2l2 5h9 6v6l-6 3h-12l-11-1-2-2 3-3z"/>
		<path id="Path 646" class="s51" d="m548 566l15-2 7 4v2l2 12-3 2-4-1-7-3-1-1-9-4z"/>
		<path id="Path 647" class="s23" d="m602 572v-7l6-1 6 2v6z"/>
		<path id="Path 648" class="s48" d="m266 567l9-2v7l-9-4z"/>
		<path id="Path 649" class="s3" d="m153 569l-7-3 3 1 4 1z"/>
		<path id="Path 650" class="s22" d="m174 575v-9h10l4 10v5h-2-1l-4-2h-3l-4-2z"/>
		<path id="Path 651" class="s51" d="m188 576l-4-10h2 4l6 6v4z"/>
		<path id="Path 652" class="s88" d="m372 570l10-4 5 12-4 4h-9l-3-5z"/>
		<path id="Path 653" class="s31" d="m530 568l18-2v9l-9-2-9-1z"/>
		<path id="Path 654" class="s93" d="m332 568l4-1 6 3v4l-6 1-4-1z"/>
		<path id="Path 655" class="s93" d="m358 570l3-3h4l7 3-1 7-13-1z"/>
		<path id="Path 656" class="s24" d="m258 580l-3-1-1-6v-4l4-1h2v12z"/>
		<path id="Path 657" class="s38" d="m260 580v-12h6l9 4 3 5-12 3z"/>
		<path id="Path 658" class="s89" d="m350 574v-6l8 2v6z"/>
		<path id="Path 659" class="s17" d="m570 570l8-2 6 8-4 1-2 10-5-1-4-2 3-2z"/>
		<path id="Path 660" class="s21" d="m163 574l-7-1-3-4z"/>
		<path id="Path 661" class="s24" d="m494 576l3-6h13l1 4-1 2h-3-5l-5 1z"/>
		<path id="Path 662" class="s31" d="m196 576v-4h6l1 4-5 1z"/>
		<path id="Path 663" class="s63" d="m458 574l6-2h10v6l-1 1-2 1 1 7-4 3-8 1z"/>
		<path id="Path 664" class="s59" d="m529 574l1-2 9 1v1z"/>
		<path id="Path 665" class="s16" d="m602 583v-11h12l24 5 3 3-2 8-5 2v-3l-11-8h-10l-1 7h-4z"/>
		<path id="Path 666" class="s47" d="m539 574v-1l9 2 9 4z"/>
		<path id="Path 667" class="s21" d="m167 576l-4-2 4 1z"/>
		<path id="Path 668" class="s75" d="m294 578v-4h7l2 2-3 2z"/>
		<path id="Path 669" class="s69" d="m326 577l6-3 4 1-1 11h-7z"/>
		<path id="Path 670" class="s77" d="m336 575l6-1h8l8 2 13 1 3 5-5 3-13 1v6l-8 2h-5l-8-8z"/>
		<path id="Path 671" class="s68" d="m401 577l1-3h3l1 4z"/>
		<path id="Path 672" class="s94" d="m420 577l4-3h16v7l-17 1z"/>
		<path id="Path 673" class="s68" d="m440 581v-7h18l2 17-15 1 3-8z"/>
		<path id="Path 674" class="s18" d="m510 576l1-2h5 3z"/>
		<path id="Path 675" class="s44" d="m167 576v-1h7v2h-6z"/>
		<path id="Path 676" class="s22" d="m213 578l11-3 6 1-1 10h-6-6l-4-2z"/>
		<path id="Path 677" class="s5" d="m188 581v-5h8l2 1v5h-4-1z"/>
		<path id="Path 678" class="s56" d="m198 577l5-1h5v2 6h-6l-4-2z"/>
		<path id="Path 679" class="s49" d="m300 578l3-2 11 1 1 7 5 3-1 5h-8-7z"/>
		<path id="Path 680" class="s11" d="m482 578l8-2v2z"/>
		<path id="Path 681" class="s90" d="m490 578v-2h4l3 1v1z"/>
		<path id="Path 682" class="s47" d="m497 577l5-1v2h-5z"/>
		<path id="Path 683" class="s12" d="m502 578v-2h5z"/>
		<path id="Path 684" class="s49" d="m578 587l2-10 4-1 5 6 9 2v8l2 7h-1-1l-5-3-5-2-6-3z"/>
		<path id="Path 685" class="s4" d="m178 579l-10-2h6z"/>
		<path id="Path 686" class="s27" d="m266 580l12-3 4 1v12h-8-6l-2-1z"/>
		<path id="Path 687" class="s63" d="m319 592l1-5-5-3-1-7h12l2 9-2 8h-6z"/>
		<path id="Path 688" class="s78" d="m398 578l3-1 5 1v4h-8z"/>
		<path id="Path 689" class="s95" d="m414 578l6-1 3 5 17-1 8 3-3 8-5 2h-21-3l-2-10z"/>
		<path id="Path 690" class="s30" d="m208 584v-6h5v6z"/>
		<path id="Path 691" class="s54" d="m282 590v-12h12 6l4 14h-2-6-1l-10-2z"/>
		<path id="Path 692" class="s86" d="m383 582l4-4h11v4l-3 3h-11z"/>
		<path id="Path 693" class="s86" d="m406 582v-4h8v6z"/>
		<path id="Path 694" class="s12" d="m473 579l1-1h8z"/>
		<path id="Path 695" class="s38" d="m612 586l1-7h10l11 8v3 8h-6l-2-4h-4l-1-5h-7z"/>
		<path id="Path 696" class="s51" d="m258 588v-8h2 6v9z"/>
		<path id="Path 697" class="s2" d="m468 590l4-3-1-7 3 1v7l-6 3z"/>
		<path id="Path 698" class="s75" d="m634 590l5-2 2-8h5l8 5 4 7-2 14h-2-4l-12-2v-4l-4-2z"/>
		<path id="Path 699" class="s13" d="m676 595l-4-15 4 6z"/>
		<path id="Path 700" class="s4" d="m193 582l-7-1h2z"/>
		<path id="Path 701" class="s59" d="m202 584l-8-2h4z"/>
		<path id="Path 702" class="s96" d="m369 585l5-3h9l1 3h11l3-3h8l8 2 2 10h-12l-13 1h-6l-12-1h-1z"/>
		<path id="Path 703" class="s70" d="m598 584l4-1 6 3v6h-10z"/>
		<path id="Path 704" class="s1" d="m217 586l-9-2h5z"/>
		<path id="Path 705" class="s13" d="m223 586h6l4 1v1z"/>
		<path id="Path 706" class="s94" d="m356 592v-6l13-1 3 9h-13z"/>
		<path id="Path 707" class="s70" d="m326 594l2-8h7l8 8z"/>
		<path id="Path 708" class="s59" d="m581 591l-7-2-1-3 5 1 4 4z"/>
		<path id="Path 709" class="s71" d="m608 592v-6h4l2 3h7l1 5-10 2z"/>
		<path id="Path 710" class="s90" d="m233 588v-1l18 2z"/>
		<path id="Path 711" class="s92" d="m257 589l1-1 8 1 2 1h-4z"/>
		<path id="Path 712" class="s3" d="m264 591l-8-2h1l7 1z"/>
		<path id="Path 713" class="s34" d="m264 591v-1h4 6v1z"/>
		<path id="Path 714" class="s60" d="m274 591v-1h8 3l-1 1z"/>
		<path id="Path 715" class="s59" d="m284 591l1-1 10 2h-11z"/>
		<path id="Path 716" class="s59" d="m460 591l8-1v1l-4 3h-24l5-2z"/>
		<path id="Path 717" class="s3" d="m588 594l-7-3h1z"/>
		<path id="Path 718" class="s4" d="m296 593l-12-1h11 1z"/>
		<path id="Path 719" class="s34" d="m296 593v-1h6v1z"/>
		<path id="Path 720" class="s60" d="m302 593v-1h2 7v1z"/>
		<path id="Path 721" class="s35" d="m311 593v-1h8l1 2z"/>
		<path id="Path 722" class="s67" d="m348 594l8-2 3 2z"/>
		<path id="Path 723" class="s79" d="m600 599l-2-7h10l4 4v6l-6-1h-1z"/>
		<path id="Path 724" class="s91" d="m656 606l2-14h6l2 15h-3z"/>
		<path id="Path 725" class="s18" d="m373 596l-14-2h13 1z"/>
		<path id="Path 726" class="s1" d="m373 596v-2l12 1v1z"/>
		<path id="Path 727" class="s1" d="m391 595l13-1v2h-13z"/>
		<path id="Path 728" class="s18" d="m404 596v-2h12 3z"/>
		<path id="Path 729" class="s81" d="m612 596l10-2h4l2 4v6h-7-4l-5-2z"/>
		<path id="Path 730" class="s47" d="m385 596v-1h6v1z"/>
		<path id="Path 731" class="s86" d="m628 604v-6h6l4 2v4h-6z"/>
		<path id="Path 732" class="s84" d="m605 601l-6-2h1z"/>
		<path id="Path 733" class="s46" d="m675 603l1-3v1 2z"/>
		<path id="Path 734" class="s3" d="m617 604l-11-3 6 1z"/>
		<path id="Path 735" class="s21" d="m666 607h8l1-4h1v5h-13v-1z"/>
		<path id="Path 736" class="s18" d="m632 606l-11-2h7 4z"/>
		<path id="Path 737" class="s15" d="m632 606v-2h6l12 2z"/>
		<path id="Path 738" class="s12" d="m654 608v-2h2l7 1v1z"/>
	</g>
</svg>