<svg version="1.2" xmlns="http://www.w3.org/2000/svg" viewBox="0 0 1000 1000" width="1000" height="1000">
	<title>Percina_caprodes</title>
	<style>
		.s0 { opacity: .5;fill: #f1f3f5 } 
		.s1 { opacity: .1;fill: #f7f8f9 } 
		.s2 { opacity: .7;fill: #ebf0f2 } 
		.s3 { opacity: .1;fill: #e5ebee } 
		.s4 { fill: #c5d2dd } 
		.s5 { fill: #d7e2ec } 
		.s6 { opacity: .3;fill: #f0f3f5 } 
		.s7 { fill: #cbd9e7 } 
		.s8 { opacity: 1;fill: #ecf4f8 } 
		.s9 { opacity: .5;fill: #dce1e3 } 
		.s10 { fill: #b5c2d0 } 
		.s11 { fill: #bfccd7 } 
		.s12 { opacity: .1;fill: #d1d7d7 } 
		.s13 { fill: #e1ecf5 } 
		.s14 { fill: #d2dbdc } 
		.s15 { fill: #bbc9c9 } 
		.s16 { opacity: .9;fill: #dde3e8 } 
		.s17 { fill: #cad4ce } 
		.s18 { fill: #b3c2bc } 
		.s19 { fill: #dce2d4 } 
		.s20 { fill: #a7b5b9 } 
		.s21 { fill: #a6b3ab } 
		.s22 { fill: #acbab1 } 
		.s23 { opacity: 1;fill: #ebefe9 } 
		.s24 { fill: #9dacb0 } 
		.s25 { fill: #8e9d9a } 
		.s26 { opacity: .3;fill: #d0d8d9 } 
		.s27 { fill: #adbbc4 } 
		.s28 { fill: #96a595 } 
		.s29 { fill: #8a957d } 
		.s30 { fill: #5e6c5a } 
		.s31 { fill: #696f50 } 
		.s32 { fill: #899791 } 
		.s33 { fill: #888c67 } 
		.s34 { fill: #b2c0aa } 
		.s35 { fill: #9ba17d } 
		.s36 { opacity: .7;fill: #c8cdc8 } 
		.s37 { fill: #9ba98b } 
		.s38 { fill: #72806d } 
		.s39 { fill: #7d8a73 } 
		.s40 { fill: #9eada2 } 
		.s41 { opacity: .6;fill: #929a94 } 
		.s42 { fill: #919e88 } 
		.s43 { fill: #6a7864 } 
		.s44 { fill: #94a1a5 } 
		.s45 { opacity: .1;fill: #b9bdb0 } 
		.s46 { fill: #919474 } 
		.s47 { fill: #757959 } 
		.s48 { fill: #a4b198 } 
		.s49 { fill: #58604a } 
		.s50 { fill: #829188 } 
		.s51 { opacity: .8;fill: #ccd5d8 } 
		.s52 { fill: #99a89b } 
		.s53 { opacity: .3;fill: #b7beb3 } 
		.s54 { opacity: 1;fill: #8e999e } 
		.s55 { opacity: 1;fill: #c2cdc2 } 
		.s56 { fill: #bbc8b5 } 
		.s57 { fill: #d1d5bc } 
		.s58 { fill: #465549 } 
		.s59 { opacity: 1;fill: #79867f } 
		.s60 { fill: #c4c6a4 } 
		.s61 { fill: #aab7a1 } 
		.s62 { fill: #404932 } 
		.s63 { fill: #969972 } 
		.s64 { fill: #bfb988 } 
		.s65 { fill: #847e55 } 
		.s66 { fill: #615f36 } 
		.s67 { fill: #0b1713 } 
		.s68 { fill: #9b9667 } 
		.s69 { opacity: 1;fill: #b6bda1 } 
		.s70 { fill: #afb694 } 
		.s71 { fill: #e1d9b2 } 
		.s72 { fill: #938d5c } 
		.s73 { fill: #c9c094 } 
		.s74 { fill: #a9ad88 } 
		.s75 { fill: #ebe7c9 } 
		.s76 { fill: #d3cca9 } 
		.s77 { fill: #fbfdfc } 
		.s78 { fill: #dace97 } 
		.s79 { fill: #f0e6b4 } 
		.s80 { fill: #fcfbea } 
		.s81 { opacity: .3;fill: #909a97 } 
		.s82 { fill: #fcf8d0 } 
		.s83 { fill: #aba477 } 
		.s84 { fill: #f5eec4 } 
		.s85 { opacity: .4;fill: #a4a487 } 
		.s86 { opacity: .5;fill: #bec4be } 
		.s87 { fill: #303c2b } 
		.s88 { opacity: .1;fill: #898b73 } 
		.s89 { opacity: .4;fill: #8a8f82 } 
		.s90 { opacity: .4;fill: #9ea5a4 } 
		.s91 { opacity: .9;fill: #a4a286 } 
		.s92 { opacity: .8;fill: #abab9a } 
	</style>
	<g id="Background">
		<path id="Path 0" class="s0" d="m432 426l-10-1 17 2z"/>
		<path id="Path 1" class="s1" d="m598 405h1v1h-1z"/>
		<path id="Path 2" class="s2" d="m598 406l1-1h12l1 1 12 4 3 5-3-1-8-4-5-3h-12-1z"/>
		<path id="Path 3" class="s1" d="m611 405h1v1h-1z"/>
		<path id="Path 4" class="s3" d="m585 409l6-2-5 2z"/>
		<path id="Path 5" class="s4" d="m586 409l5-2h3v12l4 2v8l-2 2h-16-15l1-4 2-2 3-3 2-2 3-3 2-2 3-3z"/>
		<path id="Path 6" class="s5" d="m598 421l-4-2v-12h4 1l3 12z"/>
		<path id="Path 7" class="s4" d="m602 419l-3-12h12l5 3v8 1z"/>
		<path id="Path 8" class="s6" d="m581 412l4-3h1z"/>
		<path id="Path 9" class="s7" d="m616 418v-8l8 4z"/>
		<path id="Path 10" class="s5" d="m616 418l8-4 3 1 15 12 5 3 2 2 2 3-8 6 7 8v12l-10-2-2-4h-8l-4-5-10-1h-6l-14-2-1-6 1-10 2-2h12l4 1v-3l2-8z"/>
		<path id="Path 11" class="s0" d="m642 427l-15-12h4z"/>
		<path id="Path 12" class="s8" d="m598 421l4-2h14l-2 8-4 2h-12z"/>
		<path id="Path 13" class="s6" d="m400 425l22-2v2h-14l-8 1z"/>
		<path id="Path 14" class="s0" d="m376 427l9-2v1z"/>
		<path id="Path 15" class="s9" d="m385 426v-1h15v1h-10z"/>
		<path id="Path 16" class="s10" d="m400 426l8-1v8h-8z"/>
		<path id="Path 17" class="s11" d="m408 433v-8h14l10 1v17l-5 1-6-1-3-4h-6z"/>
		<path id="Path 18" class="s11" d="m376 427l9-1h5v7 4h-15l-1-10z"/>
		<path id="Path 19" class="s7" d="m390 433v-7h10v7z"/>
		<path id="Path 20" class="s4" d="m432 443v-17l7 1h5v6l6 6v7l-6 1z"/>
		<path id="Path 21" class="s4" d="m361 430l7-3h6l1 10-9 2v-4l-5-4z"/>
		<path id="Path 22" class="s11" d="m450 439l-6-6v-6h10l4 2v10z"/>
		<path id="Path 23" class="s12" d="m458 429l-4-2 6 1v1z"/>
		<path id="Path 24" class="s9" d="m563 432l3-5-1 4z"/>
		<path id="Path 25" class="s11" d="m610 429l4-2v3z"/>
		<path id="Path 26" class="s3" d="m460 429v-1l12 2v1z"/>
		<path id="Path 27" class="s10" d="m458 439v-10h2l12 2h6l6 1 8 3v6h-12l-6 1z"/>
		<path id="Path 28" class="s3" d="m356 432l5-2v1z"/>
		<path id="Path 29" class="s12" d="m472 431v-1h6v1z"/>
		<path id="Path 30" class="s6" d="m478 431v-1l6 2z"/>
		<path id="Path 31" class="s13" d="m580 431h16l-1 10-8 1-5 3h-4l1-6z"/>
		<path id="Path 32" class="s11" d="m356 432l5-1 5 4v4l-6 6h-3l-2-5-7 1h-2v-4z"/>
		<path id="Path 33" class="s5" d="m563 432l2-1h15l-1 8-17-5z"/>
		<path id="Path 34" class="s6" d="m492 435l-8-3 11 1 6 4z"/>
		<path id="Path 35" class="s9" d="m558 435l5-3-1 2-4 2z"/>
		<path id="Path 36" class="s6" d="m651 435l-2-3 5 1 2 4z"/>
		<path id="Path 37" class="s14" d="m390 437v-4h10 8l4 6v6h-6l-5-1-3-5h-6z"/>
		<path id="Path 38" class="s15" d="m558 436l4-2 17 5-1 6h-19z"/>
		<path id="Path 39" class="s4" d="m492 441v-6l9 2h3l2 2-2 17h-5v-6z"/>
		<path id="Path 40" class="s6" d="m556 437l2-2v1z"/>
		<path id="Path 41" class="s11" d="m650 449l-7-8 8-6 5 2 8 5-5 7z"/>
		<path id="Path 42" class="s5" d="m556 437l2-1 1 9-1 4-5 1-7-2v-1l2-2 3-3 2-2z"/>
		<path id="Path 43" class="s16" d="m343 438l3-1v4h-6z"/>
		<path id="Path 44" class="s17" d="m366 439l9-2h15l2 2 1 12h-7-18-5l-3-1v-5z"/>
		<path id="Path 45" class="s3" d="m506 439l-2-2 4 1v1z"/>
		<path id="Path 46" class="s2" d="m664 442l-8-5 6 1z"/>
		<path id="Path 47" class="s9" d="m338 442l5-4-3 3z"/>
		<path id="Path 48" class="s6" d="m508 439v-1l12 5 4 9-6-8z"/>
		<path id="Path 49" class="s18" d="m393 451l-1-12h6l3 5 5 1v6h-2z"/>
		<path id="Path 50" class="s19" d="m412 445v-6h6l3 4v2z"/>
		<path id="Path 51" class="s14" d="m450 446v-7h8l16 3 1 5-3 6h-16l-6-1 2-3z"/>
		<path id="Path 52" class="s20" d="m504 456l2-17h2l10 5 6 8 4 5v1h-23z"/>
		<path id="Path 53" class="s21" d="m348 441l7-1 2 5h3v5l3 1-1 2h-12-2z"/>
		<path id="Path 54" class="s22" d="m338 442l2-1h6 2v12l-14-2 1-6z"/>
		<path id="Path 55" class="s23" d="m474 442l6-1-1 6h-4z"/>
		<path id="Path 56" class="s7" d="m479 447l1-6h12l7 9v6 1l-16-2h-4l2-4z"/>
		<path id="Path 57" class="s10" d="m587 442l8-1 1 6-6 2-3-2z"/>
		<path id="Path 58" class="s9" d="m328 447l3-4 7-1-3 3-5 3h-2z"/>
		<path id="Path 59" class="s20" d="m582 445l5-3v5z"/>
		<path id="Path 60" class="s4" d="m659 449l5-7 7 3 11 5 3 3 1 10 11 2 1-4 4 1 2 8 1 5v8l-11 1-12-1-9-1-5-3-6 1-4-4-3-9 3-6z"/>
		<path id="Path 61" class="s17" d="m421 445v-2l6 1v9h-3z"/>
		<path id="Path 62" class="s18" d="m427 444l5-1 12 4-1 5-7 1h-6-3z"/>
		<path id="Path 63" class="s9" d="m858 445l10-2v1l-5 1z"/>
		<path id="Path 64" class="s6" d="m868 444v-1h6l5 4-5-1z"/>
		<path id="Path 65" class="s7" d="m863 445l5-1 6 2v7 8l-12-4v-8z"/>
		<path id="Path 66" class="s10" d="m330 448l5-3-1 6h-3z"/>
		<path id="Path 67" class="s24" d="m406 451v-6h6v6z"/>
		<path id="Path 68" class="s22" d="m412 451v-6h9l3 8h-3l-7-2z"/>
		<path id="Path 69" class="s14" d="m558 449l1-4h19 4l5 2 3 2v7l-4 1-3-3h-10z"/>
		<path id="Path 70" class="s6" d="m682 450l-11-5h5z"/>
		<path id="Path 71" class="s0" d="m851 447l7-2v1z"/>
		<path id="Path 72" class="s11" d="m858 446v-1h5l-1 4z"/>
		<path id="Path 73" class="s25" d="m444 447l6-1 2 3-2 3 6 1v2l-12 1-1-4z"/>
		<path id="Path 74" class="s10" d="m851 447l7-1 4 3v8l-14 2v-12z"/>
		<path id="Path 75" class="s4" d="m874 453v-7l5 1 2 5z"/>
		<path id="Path 76" class="s6" d="m323 450l5-3v1z"/>
		<path id="Path 77" class="s25" d="m472 453l3-6h4l2 4-2 4h4v2h-9z"/>
		<path id="Path 78" class="s26" d="m543 450l3-3v1z"/>
		<path id="Path 79" class="s4" d="m590 449l6-2 14 2-2 12-4 1-6-2h-6l-2-4z"/>
		<path id="Path 80" class="s4" d="m843 448l5-1v12 8h-4l-7-3-1-8v-5-1z"/>
		<path id="Path 81" class="s2" d="m881 452l-2-5 3 1v4z"/>
		<path id="Path 82" class="s27" d="m323 450l5-2h2l1 3-9 2h-2z"/>
		<path id="Path 83" class="s22" d="m543 450l3-2 7 2-1 9-8-2-1-6z"/>
		<path id="Path 84" class="s28" d="m553 450l5-1 15 5-1 8-12 1-8-3v-1z"/>
		<path id="Path 85" class="s27" d="m608 461l2-12h6l-2 14-2 1z"/>
		<path id="Path 86" class="s11" d="m614 463l2-14 10 1 4 5 2 17-5 2-1-6h-4l-2-5z"/>
		<path id="Path 87" class="s7" d="m650 461v-12h9l-1 12z"/>
		<path id="Path 88" class="s6" d="m318 452l5-2-3 3h-2z"/>
		<path id="Path 89" class="s6" d="m534 455l9-5v1l-7 4z"/>
		<path id="Path 90" class="s6" d="m685 453l-3-3 10 5z"/>
		<path id="Path 91" class="s3" d="m829 452l7-2v1z"/>
		<path id="Path 92" class="s29" d="m322 453l9-2h3l2 14-8 1-2-3-4-7z"/>
		<path id="Path 93" class="s30" d="m336 465l-2-14 14 2h2l1 14-6 5-7-5z"/>
		<path id="Path 94" class="s31" d="m362 453l1-2h5l4 3v5l-1 5h-7z"/>
		<path id="Path 95" class="s32" d="m372 459v-5l-4-3h18l-3 6-6 2z"/>
		<path id="Path 96" class="s31" d="m383 457l3-6h7 11v5l-4 1h-10l-3 4z"/>
		<path id="Path 97" class="s29" d="m404 456v-5h2 6 2l2 6h4v6l4 2v7l-9 1h-2l-3-6-1-8z"/>
		<path id="Path 98" class="s33" d="m420 457h-4l-2-6 7 2z"/>
		<path id="Path 99" class="s34" d="m536 455l7-4 1 6-8-1z"/>
		<path id="Path 100" class="s11" d="m829 452l7-1v5h-8v-3z"/>
		<path id="Path 101" class="s26" d="m308 453l10-1v1l-10 2z"/>
		<path id="Path 102" class="s35" d="m436 453l7-1 1 4-2 7h-5z"/>
		<path id="Path 103" class="s36" d="m528 457l-4-5 3 3h7 2v1z"/>
		<path id="Path 104" class="s6" d="m818 455l11-3-1 1z"/>
		<path id="Path 105" class="s11" d="m874 453l7-1h1l3 8 1 16-2 11-10-2-2-12 4-4-2-8z"/>
		<path id="Path 106" class="s9" d="m885 460l-3-8 4 3v5z"/>
		<path id="Path 107" class="s6" d="m303 455l5-2v2z"/>
		<path id="Path 108" class="s37" d="m308 455l10-2h2 2v3l-4 2v5 4l4 2v6h-10l-4-2v-6-10h-5v-2z"/>
		<path id="Path 109" class="s33" d="m351 467l-1-14h12l2 11v3h-7z"/>
		<path id="Path 110" class="s38" d="m420 457l1-4h3 3 3v8l-6 4-4-2z"/>
		<path id="Path 111" class="s39" d="m424 465l6-4v-8h6l1 10-1 8-5 4h-5l-2-3z"/>
		<path id="Path 112" class="s29" d="m456 455v-2h16l2 4v10l6 6v2h-3l-3-4-10-1-4-2v-10z"/>
		<path id="Path 113" class="s11" d="m698 461l-1 4-11-2-1-10 7 2z"/>
		<path id="Path 114" class="s5" d="m818 455l10-2v3l-4 3v7l-7 3-9-2-4-7 4-2 5-1z"/>
		<path id="Path 115" class="s40" d="m572 462l1-8h10l3 3v10h-5l-3-2z"/>
		<path id="Path 116" class="s0" d="m284 457l7-2-1 2z"/>
		<path id="Path 117" class="s36" d="m290 457l1-2h6v2h-6z"/>
		<path id="Path 118" class="s41" d="m297 457v-2h6v2h-1z"/>
		<path id="Path 119" class="s31" d="m444 456l12-1 4 3v10 5h-7l-3-1-8-9z"/>
		<path id="Path 120" class="s42" d="m483 457v-2l16 2 2 3-1 5h-10z"/>
		<path id="Path 121" class="s27" d="m632 472l-2-17h8l2 4v11l-6 2z"/>
		<path id="Path 122" class="s2" d="m698 461l-6-6h4l6 7z"/>
		<path id="Path 123" class="s31" d="m318 463v-5l4-2 4 7z"/>
		<path id="Path 124" class="s43" d="m400 457l4-1 5 3 1 8h-4-6z"/>
		<path id="Path 125" class="s37" d="m499 457v-1h5l1 2-4 2z"/>
		<path id="Path 126" class="s33" d="m528 457l8-1 8 1 8 2v1l-4 5v7l4 4-4 1-12-4v-8l-8-3v-4z"/>
		<path id="Path 127" class="s44" d="m586 457l4-1 2 4v7h-6z"/>
		<path id="Path 128" class="s20" d="m824 466v-7l4-3h8l1 8 7 3 6 24v6l-2 4h-4v-6l-6-2v-10l-7-5-3-11z"/>
		<path id="Path 129" class="s45" d="m256 462l19-5v2l-10 2z"/>
		<path id="Path 130" class="s36" d="m275 459v-2h8z"/>
		<path id="Path 131" class="s42" d="m275 459l8-2h1 6 1l-3 6 7 5-3 2v9l-6 1-4-4h-6l-2-3v-6l-4-3-5-2v-1z"/>
		<path id="Path 132" class="s43" d="m295 468l-7-5 3-6h6 5v10l-3 2z"/>
		<path id="Path 133" class="s31" d="m302 467v-10h1 5v10z"/>
		<path id="Path 134" class="s42" d="m377 459l6-2 4 4 7 7v1l-14 2h-2z"/>
		<path id="Path 135" class="s30" d="m387 461l3-4h10v10l-6 1z"/>
		<path id="Path 136" class="s31" d="m480 473l-6-6v-10h9l7 8v8z"/>
		<path id="Path 137" class="s27" d="m848 459l14-2 12 4 2 8-4 4h-12l-12-6z"/>
		<path id="Path 138" class="s30" d="m501 460l4-2h23v4 11l-7 2h-3l-6-1-4-6-8-1v-2z"/>
		<path id="Path 139" class="s3" d="m803 460l5-2-4 2z"/>
		<path id="Path 140" class="s39" d="m364 464h7l1-5h5l1 12h-9l-5-4z"/>
		<path id="Path 141" class="s20" d="m640 470v-11l10 2h8l-3 6-7-1-6 4z"/>
		<path id="Path 142" class="s31" d="m552 476l-4-4v-7l4-5 8 3 2 12-5 4z"/>
		<path id="Path 143" class="s21" d="m592 467v-7h6v9h-4z"/>
		<path id="Path 144" class="s28" d="m598 469v-9l6 2v7l-3 2z"/>
		<path id="Path 145" class="s14" d="m799 462l4-2h1l4 7-1 2h-12v-5l1-2z"/>
		<path id="Path 146" class="s6" d="m886 476l-1-16h1l1 16z"/>
		<path id="Path 147" class="s29" d="m256 462l9-1v1l-1 4 3 2 1 5-2 3h-5l-1 3h-7l1-10-9-3v-1l9-3z"/>
		<path id="Path 148" class="s44" d="m604 462l4-1 4 3v5h-8z"/>
		<path id="Path 149" class="s26" d="m235 465l19-3-9 3-10 1z"/>
		<path id="Path 150" class="s31" d="m267 468l-3-2 1-4 5 2z"/>
		<path id="Path 151" class="s46" d="m528 473v-11l8 3v8h-2z"/>
		<path id="Path 152" class="s35" d="m560 463l12-1 6 3 2 4 3 10-3 2h-10l-3-6h-5z"/>
		<path id="Path 153" class="s0" d="m704 470l-2-8 4 3v5z"/>
		<path id="Path 154" class="s3" d="m791 465l5-3-1 2z"/>
		<path id="Path 155" class="s43" d="m322 469l-4-2v-4h8l2 3-1 3z"/>
		<path id="Path 156" class="s42" d="m436 471l1-8h5l8 9-13 1z"/>
		<path id="Path 157" class="s20" d="m612 464l2-1h6l2 5h4l1 6-3 1-9-3-3-3z"/>
		<path id="Path 158" class="s47" d="m267 468l3-4 4 3v6h-6z"/>
		<path id="Path 159" class="s17" d="m791 465l4-1v5l-7 2h-2v-4z"/>
		<path id="Path 160" class="s0" d="m229 467l6-2v1z"/>
		<path id="Path 161" class="s33" d="m235 466l10-1v1l-1 5 5 6-13 2-8-2v-9-1h1z"/>
		<path id="Path 162" class="s48" d="m328 466l8-1 2 2-4 7-7-5z"/>
		<path id="Path 163" class="s29" d="m490 473v-8h10v2 7l-4 2h-4z"/>
		<path id="Path 164" class="s38" d="m580 469l-2-4 3 2z"/>
		<path id="Path 165" class="s49" d="m249 477l-5-6 1-5 9 3-1 10h-2z"/>
		<path id="Path 166" class="s5" d="m642 470l6-4 7 1 3 9-9 2v-5h-7z"/>
		<path id="Path 167" class="s18" d="m817 469l7-3 4 1 3 11 7 5v10l-6 1h-8l-4-6-2-13z"/>
		<path id="Path 168" class="s12" d="m211 470l17-3v1l-16 2z"/>
		<path id="Path 169" class="s50" d="m299 469l3-2h6v6l-4 1h-3z"/>
		<path id="Path 170" class="s22" d="m334 474l4-7 7 5 3 4-1 13h-9z"/>
		<path id="Path 171" class="s25" d="m345 472l6-5h6l1 18h-5l-4 5-2-1 1-13z"/>
		<path id="Path 172" class="s18" d="m358 485l-1-18h7l5 4-1 10-1 4h-5z"/>
		<path id="Path 173" class="s50" d="m394 468l6-1h6v6l-6 2-6-6z"/>
		<path id="Path 174" class="s32" d="m406 473v-6h4l3 6-5 2z"/>
		<path id="Path 175" class="s39" d="m500 474v-7l8 1 4 6-6 1z"/>
		<path id="Path 176" class="s43" d="m580 469l1-2h5 6l2 2v8l-2 3-9-1z"/>
		<path id="Path 177" class="s26" d="m778 470l4-3v2z"/>
		<path id="Path 178" class="s16" d="m782 469v-2h4v4h-4z"/>
		<path id="Path 179" class="s40" d="m807 469l1-2 9 2 1 6h-8z"/>
		<path id="Path 180" class="s15" d="m850 491l-6-24h4l12 6 1 13-3 5z"/>
		<path id="Path 181" class="s38" d="m212 470l16-2v9l-10 2h-4l-2-8z"/>
		<path id="Path 182" class="s21" d="m286 480l6-1v-9l3-2 4 1 2 5h3v23l-4 3-10-1-4-2v-6l-5-5 5-1z"/>
		<path id="Path 183" class="s28" d="m460 473v-5l4 2v3z"/>
		<path id="Path 184" class="s25" d="m322 475v-6h5l7 5 4 15 2 8v3l-4 5-8-4 1-10-3-2v-8z"/>
		<path id="Path 185" class="s18" d="m380 471l14-2 6 6-6 18h-5l-2-5-7-3v-4z"/>
		<path id="Path 186" class="s38" d="m594 477v-8h4l3 2 1 6z"/>
		<path id="Path 187" class="s37" d="m601 471l3-2h8l3 3v9h-11l-2-4z"/>
		<path id="Path 188" class="s51" d="m778 470l4-1v2l-6 2h-3v-1-1z"/>
		<path id="Path 189" class="s52" d="m788 471l7-2h12l3 6v4l-8 2h-6l-8-4z"/>
		<path id="Path 190" class="s53" d="m201 472l10-2h1v1h-3z"/>
		<path id="Path 191" class="s22" d="m464 473v-3l10 1 3 4v3l-10 8h-3z"/>
		<path id="Path 192" class="s52" d="m634 472l6-2h2v3 4h-8z"/>
		<path id="Path 193" class="s9" d="m705 475l-1-5h2v5z"/>
		<path id="Path 194" class="s54" d="m201 472l8-1-3 2h-5z"/>
		<path id="Path 195" class="s30" d="m206 473l3-2h3l2 8h-8z"/>
		<path id="Path 196" class="s22" d="m368 481l1-10h9 2v10z"/>
		<path id="Path 197" class="s21" d="m431 475l5-4 1 2-1 4z"/>
		<path id="Path 198" class="s32" d="m776 473l6-2h4 2v6l-11 4h-1z"/>
		<path id="Path 199" class="s53" d="m183 475l18-3v1l-3 1-14 2z"/>
		<path id="Path 200" class="s18" d="m415 473l9-1 2 3v13h-12l-5-9h3z"/>
		<path id="Path 201" class="s18" d="m437 473l13-1 3 1 1 16-1 4h-1l-12-2v-4l-5-1 1-9z"/>
		<path id="Path 202" class="s39" d="m615 481v-9l9 3-1 10h-5z"/>
		<path id="Path 203" class="s37" d="m627 474l5-2h2v5l1 8h-9-3l1-10z"/>
		<path id="Path 204" class="s6" d="m763 475l7-3v1l-6 2z"/>
		<path id="Path 205" class="s26" d="m770 473v-1h3v1z"/>
		<path id="Path 206" class="s49" d="m198 474l3-1h5v6l-2 1-4 1z"/>
		<path id="Path 207" class="s32" d="m266 476l2-3h6l2 3 1 9h-4l-1 3-4-1z"/>
		<path id="Path 208" class="s32" d="m304 474l4-1 4 2v8l6 8-7 4v4h-3l-4-2z"/>
		<path id="Path 209" class="s44" d="m400 475l6-2 2 2 1 4 5 9-4 4h-6l-2 3-8-2z"/>
		<path id="Path 210" class="s27" d="m408 475l5-2h2l-3 6h-3z"/>
		<path id="Path 211" class="s44" d="m454 489l-1-16h7 4v13l-3 3z"/>
		<path id="Path 212" class="s32" d="m480 475v-2h10l2 3-4 3z"/>
		<path id="Path 213" class="s32" d="m521 475l7-2h6v8h-7z"/>
		<path id="Path 214" class="s21" d="m534 481v-8h2l12 4v6l-6 2h-6z"/>
		<path id="Path 215" class="s22" d="m642 477v-4h7v5l-1 1z"/>
		<path id="Path 216" class="s52" d="m764 475l6-2h3 3v8h-11l-2-4z"/>
		<path id="Path 217" class="s10" d="m861 486l-1-13h12l2 12-4 1z"/>
		<path id="Path 218" class="s31" d="m184 476l14-2 2 7v6l4 1-1 5h-8l-5-7h-7l-3-7v-1z"/>
		<path id="Path 219" class="s15" d="m496 476l4-2 6 1v16h-6l-4-2z"/>
		<path id="Path 220" class="s18" d="m506 475l6-1 6 1v6l-6 1v9h-6z"/>
		<path id="Path 221" class="s0" d="m176 478l7-3 1 1-4 2-1 1h-1-2z"/>
		<path id="Path 222" class="s49" d="m179 478h1v1h-1z"/>
		<path id="Path 223" class="s22" d="m318 491l-6-8v-8h10l4 6v8l-6 3z"/>
		<path id="Path 224" class="s24" d="m426 488v-13h5l5 2-1 9v3h-9z"/>
		<path id="Path 225" class="s18" d="m467 486l10-8v-3h3l8 4 2 10v4l-12-2-10 2z"/>
		<path id="Path 226" class="s20" d="m518 481v-6h3l6 6h7l2 4v14h-4-2l-4-14z"/>
		<path id="Path 227" class="s50" d="m557 479l5-4h5l3 6-8 3z"/>
		<path id="Path 228" class="s6" d="m705 483v-8h1v7h33v1h-1l-19 1h-5z"/>
		<path id="Path 229" class="s9" d="m758 477l5-2h1l-1 2h-4z"/>
		<path id="Path 230" class="s42" d="m810 479v-4h8l2 13-4 2-6-3z"/>
		<path id="Path 231" class="s55" d="m260 479l1-3h5l2 11 4 1v4l6 2 3 5-2 4h-5l-6-2-1-6-6-7z"/>
		<path id="Path 232" class="s11" d="m277 485l-1-9h6l4 4v5l-5 1z"/>
		<path id="Path 233" class="s21" d="m488 479l4-3h4v13h-6z"/>
		<path id="Path 234" class="s22" d="m548 477l4-1 5 3 5 5-2 2-12-3z"/>
		<path id="Path 235" class="s40" d="m649 478l9-2 4 4 2 7h8v4l-18-2-4-2-2-8z"/>
		<path id="Path 236" class="s0" d="m884 487l2-11h1v27l-3-8z"/>
		<path id="Path 237" class="s34" d="m218 479l10-2 8 2v7l-8 5h-6v-5l-4-2z"/>
		<path id="Path 238" class="s56" d="m236 479l13-2 2 2 3 14h-6l-8-7h-4z"/>
		<path id="Path 239" class="s32" d="m592 480l2-3h8l2 4-2 3h-6z"/>
		<path id="Path 240" class="s43" d="m635 485l-1-8h8l6 2 2 8h-8z"/>
		<path id="Path 241" class="s51" d="m751 478l7-1h1l-1 2-6 2h-6v-1z"/>
		<path id="Path 242" class="s42" d="m758 479l1-2h4l2 4-2 4h-5z"/>
		<path id="Path 243" class="s57" d="m777 481l11-4 8 4v10l-9 2-5-3-5-4z"/>
		<path id="Path 244" class="s12" d="m173 480l3-2v1z"/>
		<path id="Path 245" class="s29" d="m173 480l3-1h2l-9 6v3l-5 4-3-3 1-3 6-4z"/>
		<path id="Path 246" class="s58" d="m169 488v-3l9-6h1 1l3 7-5 7-2 6-4-1v-9z"/>
		<path id="Path 247" class="s42" d="m204 480l2-1h8 4v5l-10 4-5 12h-1l1-7 1-5z"/>
		<path id="Path 248" class="s48" d="m254 493l-3-14h2 7l1 9 6 7z"/>
		<path id="Path 249" class="s18" d="m580 481l3-2 9 1 4 4h6l2-3h11l3 4-4 3v5l4 6-1 5h-3-6-6l-4-1v-11l-3-3h-9-6z"/>
		<path id="Path 250" class="s50" d="m662 480l6-1 5 3-1 5h-8z"/>
		<path id="Path 251" class="s29" d="m752 481l6-2v6l-1 1h-4z"/>
		<path id="Path 252" class="s46" d="m802 481l8-2v8h-2-6z"/>
		<path id="Path 253" class="s35" d="m200 481l4-1v8l-4-1z"/>
		<path id="Path 254" class="s12" d="m739 482l7-2v1z"/>
		<path id="Path 255" class="s40" d="m367 485l1-4h12v4l-4 10h-10v-4z"/>
		<path id="Path 256" class="s15" d="m512 491v-9l6-1 8 4 4 14h-4-10v-5z"/>
		<path id="Path 257" class="s15" d="m562 484l8-3h10v8l-2 12-9 1h-7l-4-3 2-13z"/>
		<path id="Path 258" class="s59" d="m739 482l7-1h6l1 5-7 3h-2l1-6h-6z"/>
		<path id="Path 259" class="s60" d="m763 485l2-4h11 1v5l5 4-1 4-5 2-8-3h-4z"/>
		<path id="Path 260" class="s61" d="m796 491v-10h6v6l-2 4z"/>
		<path id="Path 261" class="s6" d="m158 487l3-4 7-1-6 4z"/>
		<path id="Path 262" class="s52" d="m672 487l1-5 9 1v6l-6 2h-4z"/>
		<path id="Path 263" class="s17" d="m542 485l6-2 12 3-2 13-12-3-4-4z"/>
		<path id="Path 264" class="s39" d="m682 489v-6l12 1-1 7h-1-8z"/>
		<path id="Path 265" class="s48" d="m694 484l11-1 9 1v7h-4-17z"/>
		<path id="Path 266" class="s17" d="m719 484l19-1-2 6 2 1 2 12-4 1h-7l-1-4-6-2v-7l4-1 1-4z"/>
		<path id="Path 267" class="s30" d="m738 490l-2-1 2-6h1 6l-1 6z"/>
		<path id="Path 268" class="s8" d="m203 500l5-12 10-4 4 2v5l-6 5-4 2-2 12-6 1-3-5z"/>
		<path id="Path 269" class="s38" d="m714 491v-7h5l8 1-1 4-4 1z"/>
		<path id="Path 270" class="s38" d="m272 488l1-3h4l4 1 5 5v6l-5 2-3-5-6-2z"/>
		<path id="Path 271" class="s59" d="m349 490l4-5h5 4l4 6v4 12l-2 8-5-4h-7l-5-10v-4z"/>
		<path id="Path 272" class="s21" d="m366 491l-4-6h5z"/>
		<path id="Path 273" class="s32" d="m376 495l4-10 7 3 2 5-1 8h-8z"/>
		<path id="Path 274" class="s18" d="m536 499v-14h6v7l4 4 12 3 4 3v8l-8 3h-4l-4-2v-7z"/>
		<path id="Path 275" class="s14" d="m618 499l-4-6v-5l4-3h5 3v12z"/>
		<path id="Path 276" class="s55" d="m626 497v-12h9l7 2 4 6v11h-8l-4-6z"/>
		<path id="Path 277" class="s57" d="m757 486l1-1h5l1 8-2 5h-3z"/>
		<path id="Path 278" class="s25" d="m870 486l4-1 10 2v8l-8 2h-4z"/>
		<path id="Path 279" class="s54" d="m158 487l4-1-1 3-3 2-8 4-5 2h-2v-2l5-3 2-1 7-4z"/>
		<path id="Path 280" class="s10" d="m178 493l5-7h7l5 7v5l-10 1z"/>
		<path id="Path 281" class="s32" d="m228 491l8-5h4l8 7v10l-8-1-2-4h-8z"/>
		<path id="Path 282" class="s22" d="m435 489v-3l5 1v4h-5z"/>
		<path id="Path 283" class="s40" d="m454 489h7l3-3h3l1 7-1 2-14-2z"/>
		<path id="Path 284" class="s17" d="m746 489l7-3h4l2 12-3 3-10-3z"/>
		<path id="Path 285" class="s44" d="m858 491l3-5h9l2 11-8 1h-6z"/>
		<path id="Path 286" class="s12" d="m150 490l7-3-7 4z"/>
		<path id="Path 287" class="s21" d="m646 504v-11l-4-6h8l4 2 1 17-5 3z"/>
		<path id="Path 288" class="s35" d="m800 491l2-4h6v18h-8z"/>
		<path id="Path 289" class="s37" d="m808 505v-18h2l6 3v13l-4 2z"/>
		<path id="Path 290" class="s62" d="m164 492l5-4 3 1v9l-4 1v-1l-4-4z"/>
		<path id="Path 291" class="s52" d="m410 492l4-4h12v1l2 8h6v16l-18-2z"/>
		<path id="Path 292" class="s21" d="m816 490l4-2 4 6v7l-2 2h-6z"/>
		<path id="Path 293" class="s63" d="m158 491l3-2 3 3v2l-3 2-3-2z"/>
		<path id="Path 294" class="s52" d="m320 492l6-3 3 2-1 10-8-4z"/>
		<path id="Path 295" class="s24" d="m340 497l-2-8h9l2 1-2 7z"/>
		<path id="Path 296" class="s50" d="m434 497h-6l-2-8h9v2z"/>
		<path id="Path 297" class="s24" d="m490 493v-4h6l4 2v6l-10-1z"/>
		<path id="Path 298" class="s17" d="m578 501l2-12h6l1 12-3 2h-5z"/>
		<path id="Path 299" class="s14" d="m587 501l-1-12h9l3 3v11l-3 1-5-1z"/>
		<path id="Path 300" class="s17" d="m655 506l-1-17 18 2h4v12l-3 3-11 1z"/>
		<path id="Path 301" class="s15" d="m676 491l6-2 2 2v11l-3 1h-5z"/>
		<path id="Path 302" class="s22" d="m738 490l6-1h2v9l10 3v6 8h-8l-3-8-5-5z"/>
		<path id="Path 303" class="s0" d="m148 492l2-2v1z"/>
		<path id="Path 304" class="s55" d="m714 491l8-1v7l6 2 1 4-2 2-17-4v-10z"/>
		<path id="Path 305" class="s31" d="m781 494l1-4 5 3-1 2z"/>
		<path id="Path 306" class="s49" d="m150 495l8-4v3l-6 2z"/>
		<path id="Path 307" class="s18" d="m216 496l6-5h6l2 7v5h-9z"/>
		<path id="Path 308" class="s39" d="m311 499v-4l7-4 2 1v5l-4 3z"/>
		<path id="Path 309" class="s21" d="m434 497l1-6h5l12 2v20l-15 1-3-1z"/>
		<path id="Path 310" class="s21" d="m468 493l10-2 12 2v3l2 11v6l-22 2-3-20z"/>
		<path id="Path 311" class="s22" d="m500 497v-6h6 6l4 3v5l-14 2z"/>
		<path id="Path 312" class="s40" d="m684 502v-11h8v12z"/>
		<path id="Path 313" class="s17" d="m692 503v-12h1 17v10l-16 4z"/>
		<path id="Path 314" class="s64" d="m787 493l9-2h4v14 2h-8v-6l-5-3-1-3z"/>
		<path id="Path 315" class="s38" d="m850 497v-6h8v7z"/>
		<path id="Path 316" class="s0" d="m143 495l1-3h4z"/>
		<path id="Path 317" class="s38" d="m402 495l2-3h6l6 19-9 5h-3l-2-9z"/>
		<path id="Path 318" class="s43" d="m176 499l2-6 7 6-1 1z"/>
		<path id="Path 319" class="s49" d="m195 498v-5h8l-1 7-7 3z"/>
		<path id="Path 320" class="s18" d="m248 503v-10h6l13 2 1 6-4 3 1 3-7 4-2-5h-8z"/>
		<path id="Path 321" class="s21" d="m388 501l1-8h5l8 2v12h-12z"/>
		<path id="Path 322" class="s38" d="m452 513v-20h1l14 2 3 20v10l-9 6-4-1v-6l-4-3z"/>
		<path id="Path 323" class="s48" d="m762 498l2-5h4v4l-5 2z"/>
		<path id="Path 324" class="s33" d="m768 497v-4l8 3v5h-4z"/>
		<path id="Path 325" class="s34" d="m832 494l6-1 6 2v6l-10 1-2-1z"/>
		<path id="Path 326" class="s65" d="m152 496l6-2 3 2 2 3-1 10h-4l-1-4-5-2z"/>
		<path id="Path 327" class="s30" d="m161 496l3-2 4 4-5 1z"/>
		<path id="Path 328" class="s35" d="m776 496l5-2 5 1 1 3-2 3-6 2-3-2z"/>
		<path id="Path 329" class="s32" d="m824 501v-7h8v7z"/>
		<path id="Path 330" class="s0" d="m138 498l1-3h4v2l-4 2h-1z"/>
		<path id="Path 331" class="s66" d="m145 497l5-2 2 1v7h-4z"/>
		<path id="Path 332" class="s18" d="m366 507v-12h10l4 6v6z"/>
		<path id="Path 333" class="s24" d="m876 497l8-2 3 8 2 7 1 7 2 6v2 6 1 6l-3 5-3 3-1-3h-5l-4-22v-4l3-8-3-4z"/>
		<path id="Path 334" class="s22" d="m210 510l2-12 4-2 5 7h9v6 6h-10-7z"/>
		<path id="Path 335" class="s59" d="m492 507l-2-11 10 1 2 4v6z"/>
		<path id="Path 336" class="s49" d="m139 499l4-2h2l3 6-1 8 3 2-4 4-11-2-2-9z"/>
		<path id="Path 337" class="s63" d="m281 499l5-2 4 2v10h-7l-4-6z"/>
		<path id="Path 338" class="s57" d="m300 500l4-3 4 2v6l4 4 1 6v2h-10l-1-2z"/>
		<path id="Path 339" class="s56" d="m316 500l4-3 8 4 8 4v8l-17 2h-6l-1-6 4-4z"/>
		<path id="Path 340" class="s52" d="m340 500v-3h7v4z"/>
		<path id="Path 341" class="s22" d="m618 499l8-2 8 1 4 6v5l-15 1-4-3-2-3z"/>
		<path id="Path 342" class="s39" d="m763 499l5-2 4 4v10h-2-4l-3-4z"/>
		<path id="Path 343" class="s24" d="m848 501l2-4 8 1v7l4 2v7l-2 2h-6v-6l-6-1z"/>
		<path id="Path 344" class="s4" d="m864 498l8-1v8l-2 2h-6z"/>
		<path id="Path 345" class="s15" d="m872 505v-8h4v8z"/>
		<path id="Path 346" class="s3" d="m133 502l5-4v1z"/>
		<path id="Path 347" class="s46" d="m163 499l5-1v1l-1 5 3 4v7h-5l-3-6z"/>
		<path id="Path 348" class="s67" d="m168 499l4-1 4 1 8 1v4l-6 5-8-1-3-4z"/>
		<path id="Path 349" class="s25" d="m185 499l10-1v5l7-3h1l-2 6-7 6h-3l-7-5v-3-4z"/>
		<path id="Path 350" class="s27" d="m230 503v-5h8l2 4-5 7h-5z"/>
		<path id="Path 351" class="s42" d="m756 501l3-3h3l1 1v8h-7z"/>
		<path id="Path 352" class="s68" d="m785 501l2-3 5 3v6 1h-2z"/>
		<path id="Path 353" class="s10" d="m862 507l-4-2v-7h6v9z"/>
		<path id="Path 354" class="s52" d="m133 502l5-3h1l-6 7-6 2h-1l2-3z"/>
		<path id="Path 355" class="s69" d="m290 509v-10l10 1 2 15-9 1z"/>
		<path id="Path 356" class="s37" d="m312 509l-4-4v-6h3l5 1v5z"/>
		<path id="Path 357" class="s48" d="m502 501l14-2h10v8l-8 5v5h-10l-6-2v-8z"/>
		<path id="Path 358" class="s28" d="m526 507v-8h4 2l-2 8z"/>
		<path id="Path 359" class="s39" d="m530 507l2-8h4l10 5v7l-6 1v13h-4-4v-4z"/>
		<path id="Path 360" class="s34" d="m336 505l4-5 7 1 5 10v7h-2l-11-1-3-4z"/>
		<path id="Path 361" class="s33" d="m265 507l-1-3 4-3 6 2v7l-2 1z"/>
		<path id="Path 362" class="s40" d="m380 507v-6h8l2 6-2 6h-4z"/>
		<path id="Path 363" class="s50" d="m569 502l9-1 1 2-3 6h-6z"/>
		<path id="Path 364" class="s30" d="m584 503l3-2 3 2-1 5h-3z"/>
		<path id="Path 365" class="s56" d="m694 505l16-4 17 4 7 10v2l-12 4h-20l-8-3v-6z"/>
		<path id="Path 366" class="s38" d="m772 511v-10h4l3 2-1 8z"/>
		<path id="Path 367" class="s58" d="m779 503l6-2 5 7-2 5-6 1-4-3z"/>
		<path id="Path 368" class="s27" d="m822 503l2-2h8l2 1v9 6 6h-6l-2-8-4-2z"/>
		<path id="Path 369" class="s13" d="m834 502l10-1h4v8l-4 2h-10z"/>
		<path id="Path 370" class="s3" d="m128 505l1-3h4z"/>
		<path id="Path 371" class="s21" d="m235 509l5-7 8 1v3l-2 7-3 2-3 1z"/>
		<path id="Path 372" class="s28" d="m562 510v-8h7l1 7-4 1z"/>
		<path id="Path 373" class="s25" d="m681 503l3-1 8 1 2 2v7l-12-3-1-1z"/>
		<path id="Path 374" class="s32" d="m736 503l4-1 5 5-9 1z"/>
		<path id="Path 375" class="s62" d="m150 513l-3-2 1-8h4l5 2 1 4-2 3z"/>
		<path id="Path 376" class="s70" d="m274 510v-7h5l4 6v4h-4z"/>
		<path id="Path 377" class="s61" d="m576 509l3-6h5l2 5h3l1-5 5 1 2 9-1 10h-8l-12-2z"/>
		<path id="Path 378" class="s52" d="m595 504l3-1 4 1v9h-5z"/>
		<path id="Path 379" class="s21" d="m673 506l3-3h5v5l-3 3h-3z"/>
		<path id="Path 380" class="s28" d="m727 505l2-2h7v5l-2 7z"/>
		<path id="Path 381" class="s13" d="m812 505l4-2h6v10l-2 1-8-1z"/>
		<path id="Path 382" class="s65" d="m178 509l6-5v3l-2 10h-2-2z"/>
		<path id="Path 383" class="s38" d="m602 513v-9h6v15h-4z"/>
		<path id="Path 384" class="s43" d="m608 519v-15h6l1 4h3v13l-2 3h-6z"/>
		<path id="Path 385" class="s38" d="m618 508h-3l-1-4h3l2 3z"/>
		<path id="Path 386" class="s40" d="m638 509v-5h8l4 5v6h-6v-4z"/>
		<path id="Path 387" class="s9" d="m123 508l1-3h4l-2 3-3 1z"/>
		<path id="Path 388" class="s42" d="m800 507v-2h8 4v8l8 1v8h-2l-5-3h-11z"/>
		<path id="Path 389" class="s25" d="m870 507l2-2h4l3 4-3 8-6-2z"/>
		<path id="Path 390" class="s31" d="m127 508l6-2 2 9-7-1-3-2z"/>
		<path id="Path 391" class="s23" d="m194 512l7-6 3 5-6 4h-4z"/>
		<path id="Path 392" class="s17" d="m246 513l2-7h8l2 5v4h-10z"/>
		<path id="Path 393" class="s61" d="m650 509l5-3 7 1v11l-12-3z"/>
		<path id="Path 394" class="s56" d="m662 507l11-1 2 5h3v6l-16 1z"/>
		<path id="Path 395" class="s42" d="m182 517l2-10 7 5-3 6z"/>
		<path id="Path 396" class="s71" d="m258 511l7-4 7 4v4h-7l-2 4h-3l-2-4z"/>
		<path id="Path 397" class="s34" d="m364 515l2-8h14l4 6h4l2-6h12l2 9v3h-20l-12-2h-8z"/>
		<path id="Path 398" class="s29" d="m492 513v-6h10v8h-10z"/>
		<path id="Path 399" class="s61" d="m518 517v-5l8-5h4l2 14-12-1z"/>
		<path id="Path 400" class="s42" d="m618 508l1-1 4 3v7l-1 4h-4z"/>
		<path id="Path 401" class="s38" d="m736 508l9-1 3 8-3 2v8l-8 2-3-10v-2z"/>
		<path id="Path 402" class="s40" d="m756 515v-8h7l3 4-4 4z"/>
		<path id="Path 403" class="s48" d="m792 508v-1h8l2 12-2 3-7-2-1-7z"/>
		<path id="Path 404" class="s21" d="m862 514v-7h2 6v8z"/>
		<path id="Path 405" class="s6" d="m118 513l5-5v1l-3 4z"/>
		<path id="Path 406" class="s25" d="m123 509l3-1h1l-2 4-5 2v-1z"/>
		<path id="Path 407" class="s58" d="m170 515v-7l8 1v8h-6z"/>
		<path id="Path 408" class="s39" d="m678 511l3-3 1 1v8h-4z"/>
		<path id="Path 409" class="s59" d="m788 513l2-5h2v5z"/>
		<path id="Path 410" class="s72" d="m156 512l2-3h4l3 6-1 2z"/>
		<path id="Path 411" class="s25" d="m230 515v-6h5l5 7-3 3z"/>
		<path id="Path 412" class="s73" d="m283 513v-4h7l3 7-1 3h-6z"/>
		<path id="Path 413" class="s74" d="m566 510l4-1h6v12h-10z"/>
		<path id="Path 414" class="s34" d="m623 510l15-1 6 2v4l-2 2h-19z"/>
		<path id="Path 415" class="s43" d="m682 517v-8l12 3v6 8l-6 1-6-1z"/>
		<path id="Path 416" class="s32" d="m844 511l4-2 6 1v6l-3 2-8-1z"/>
		<path id="Path 417" class="s70" d="m204 511l6-1 3 5h7l1 9 4 2-6 5-1 8-27-2-5-4v-8l2-7 3-6h3v3h4z"/>
		<path id="Path 418" class="s57" d="m272 511l2-1 5 3-3 3-4-1z"/>
		<path id="Path 419" class="s61" d="m554 513l8-3h4v11l-12 2v-5z"/>
		<path id="Path 420" class="s3" d="m890 517l-1-7 2 7z"/>
		<path id="Path 421" class="s29" d="m352 518v-7h7l5 4v2z"/>
		<path id="Path 422" class="s48" d="m407 516l9-5 18 2 3 1 1 13-1 3-7 1-10-2-5-1-10-9z"/>
		<path id="Path 423" class="s38" d="m540 525v-13l6-1 4 2v5l-2 5-2 2z"/>
		<path id="Path 424" class="s48" d="m756 515h6l4-4h4v10h-7l-7-2z"/>
		<path id="Path 425" class="s37" d="m770 521v-10h2 6l4 3-3 12z"/>
		<path id="Path 426" class="s48" d="m834 517v-6h10l-1 6h-3z"/>
		<path id="Path 427" class="s30" d="m120 514l5-2 3 2v7l-4 1-4-2v-5z"/>
		<path id="Path 428" class="s68" d="m150 513l6-1 8 5v6l-18-2v-4z"/>
		<path id="Path 429" class="s36" d="m116 515l2-2h2v1 1l-4 3v-1z"/>
		<path id="Path 430" class="s75" d="m243 515l3-2 2 2v2z"/>
		<path id="Path 431" class="s71" d="m276 516l3-3h4l3 6h6l1 4-3 7 1 13-2 4-12-8z"/>
		<path id="Path 432" class="s75" d="m319 515l17-2 3 4 11 1v6l-23 1-7-4z"/>
		<path id="Path 433" class="s52" d="m437 514l15-1 1 8-5 1v5h-10z"/>
		<path id="Path 434" class="s52" d="m470 515l22-2v2l-3 10h-19z"/>
		<path id="Path 435" class="s43" d="m550 518v-5h4v5z"/>
		<path id="Path 436" class="s34" d="m596 523l1-10h5l2 6v4z"/>
		<path id="Path 437" class="s39" d="m782 514l6-1h4l1 7 7 2 2 16-6 3-14-2-3-13z"/>
		<path id="Path 438" class="s28" d="m820 514l2-1 4 2 2 8v4h-3l-1-4-4-1z"/>
		<path id="Path 439" class="s33" d="m124 522l4-1v-7l7 1 11 2v4l-6 2h-4l-1 4-9 3-2-1z"/>
		<path id="Path 440" class="s15" d="m860 516l2-2 8 1 6 2v4l-10 3-6-3z"/>
		<path id="Path 441" class="s39" d="m116 518l4-3v5l4 2v7h-4l-5-4v-5z"/>
		<path id="Path 442" class="s33" d="m164 517l1-2h5l2 2v4l4 2v7l4 3v6h-10l-2-13-4-3z"/>
		<path id="Path 443" class="s33" d="m225 526l-4-2-1-9h10l7 4-7 6z"/>
		<path id="Path 444" class="s76" d="m240 516l3-1 5 2 1 13-3 2-6 1-10-8 7-6z"/>
		<path id="Path 445" class="s73" d="m248 517v-2h10l2 4-1 6-3 6-7-1z"/>
		<path id="Path 446" class="s77" d="m263 519l2-4h7l4 1 1 23-9 11h-2l-14 1-1-5v-1l4-3 1-11 3-6 4-1z"/>
		<path id="Path 447" class="s78" d="m293 516l9-1 1 2-3 6h-7l-1-4z"/>
		<path id="Path 448" class="s71" d="m313 517v-2h6l1 6h-2z"/>
		<path id="Path 449" class="s42" d="m489 525l3-10h10l6 2 4 14-2 6h-6l-10-2v-5z"/>
		<path id="Path 450" class="s74" d="m642 517l2-2h6l12 3 16-1h4v9 3h-8l-6-1-12-1-14-2z"/>
		<path id="Path 451" class="s37" d="m745 525v-8l3-2h8v4l-7 6z"/>
		<path id="Path 452" class="s29" d="m404 519v-3h3l-2 3z"/>
		<path id="Path 453" class="s5" d="m851 518l3-2h6v5h-9z"/>
		<path id="Path 454" class="s26" d="m114 520v-3h2v1l-1 2z"/>
		<path id="Path 455" class="s49" d="m176 523l-4-2v-4h6 2v5z"/>
		<path id="Path 456" class="s50" d="m180 522v-5h2l6 1-2 7z"/>
		<path id="Path 457" class="s79" d="m293 523h7l3-6h10l5 4v12l-8 3-2 5-10 3-7-1-1-13z"/>
		<path id="Path 458" class="s71" d="m352 518l12-1h8v8h-11l-1 4-10-5v-6z"/>
		<path id="Path 459" class="s75" d="m372 525v-8l12 2v7z"/>
		<path id="Path 460" class="s37" d="m512 531l-4-14h10l2 3 12 1v4l-6 4z"/>
		<path id="Path 461" class="s70" d="m622 521l1-4h19v8l-6 2h-7-7z"/>
		<path id="Path 462" class="s35" d="m722 521l12-4 3 10-1 2h-8l-6-2z"/>
		<path id="Path 463" class="s19" d="m834 523v-6h6v6z"/>
		<path id="Path 464" class="s11" d="m840 523v-6h3l8 1v3l-1 1-9 1z"/>
		<path id="Path 465" class="s0" d="m892 523l-2-6h1z"/>
		<path id="Path 466" class="s28" d="m548 523l2-5h4v5z"/>
		<path id="Path 467" class="s37" d="m694 526v-8l8 3v6z"/>
		<path id="Path 468" class="s80" d="m259 525l1-6h3v5z"/>
		<path id="Path 469" class="s57" d="m384 526v-7h20 1l10 9-1 7h-10l-2-4h-6z"/>
		<path id="Path 470" class="s29" d="m604 523v-4h4l2 5-3 5h-3z"/>
		<path id="Path 471" class="s74" d="m749 525l7-6 7 2-3 6h-11z"/>
		<path id="Path 472" class="s35" d="m800 522l2-3h11l5 3v7 9l-8 2-6-1-2-1z"/>
		<path id="Path 473" class="s81" d="m114 525v-5h1v5z"/>
		<path id="Path 474" class="s35" d="m140 523l6-2 18 2 4 3 2 13-5 6h-3l-3-4-1-6-6 2h-6v-2-6l-6-3z"/>
		<path id="Path 475" class="s82" d="m308 541l2-5 8-3v-12h2l7 4 23-1 10 5 3 4 16 1 4 5 13-2h8v5l6 5v6h-2l-9-7z"/>
		<path id="Path 476" class="s48" d="m448 527v-5l5-1 4 3v6l-2 1h-5z"/>
		<path id="Path 477" class="s37" d="m554 523l12-2h10l12 2v6l-21 1h-10z"/>
		<path id="Path 478" class="s74" d="m616 524l2-3h4v6h-6z"/>
		<path id="Path 479" class="s74" d="m702 527v-6h20v6z"/>
		<path id="Path 480" class="s83" d="m749 527h11l3-6h7l9 5 3 13-4 4h-4l-11-1-6-1-9-2z"/>
		<path id="Path 481" class="s27" d="m850 522l1-1h9l6 3v10 4h-10l-2-5h-4z"/>
		<path id="Path 482" class="s25" d="m866 524l10-3 4 22v6h-6v-7l-4-3v-4l-4-1z"/>
		<path id="Path 483" class="s39" d="m176 523l4-1 6 3v8h-6l-4-3z"/>
		<path id="Path 484" class="s39" d="m818 529v-7h2l4 1 1 4z"/>
		<path id="Path 485" class="s44" d="m841 523l9-1v11l-6 2-3-3z"/>
		<path id="Path 486" class="s83" d="m135 527l1-4h4v3l-2 1z"/>
		<path id="Path 487" class="s63" d="m546 525l2-2h6l3 7h10l1 9-22-2z"/>
		<path id="Path 488" class="s74" d="m588 529v-6h8v5l-6 1z"/>
		<path id="Path 489" class="s48" d="m596 528v-5h8v6h-4z"/>
		<path id="Path 490" class="s18" d="m828 527v-4h6 6 1v9l3 3v7h-6l-2 7h-8z"/>
		<path id="Path 491" class="s33" d="m607 529l3-5h6v3l-2 12h-8v-4z"/>
		<path id="Path 492" class="s1" d="m114 528v-3h1v3z"/>
		<path id="Path 493" class="s36" d="m115 528v-3l5 4v2h-2z"/>
		<path id="Path 494" class="s75" d="m225 526l5-1 10 8v7l-22-1 1-8z"/>
		<path id="Path 495" class="s79" d="m360 529l1-4h11l12 1 12 5v6l-13 2-4-5-16-1z"/>
		<path id="Path 496" class="s37" d="m461 531l9-6h19l5 5v5l-2 2-20-2-11-1z"/>
		<path id="Path 497" class="s35" d="m512 531l14-2 6-4h4v13l-16 5h-10v-6z"/>
		<path id="Path 498" class="s46" d="m536 538v-13h4 6v12z"/>
		<path id="Path 499" class="s35" d="m636 527l6-2 14 2v6h-20z"/>
		<path id="Path 500" class="s68" d="m737 527l8-2h4v2l-1 12-5-1h-2l-5-3v-6z"/>
		<path id="Path 501" class="s0" d="m892 531v-6h2v6z"/>
		<path id="Path 502" class="s18" d="m138 527l2-1 6 3v6h-6z"/>
		<path id="Path 503" class="s33" d="m682 529v-3l6 1v2z"/>
		<path id="Path 504" class="s68" d="m688 527l6-1 8 1h20l6 2v5l-1 1h-6-6l-14 1-11 1-2-8z"/>
		<path id="Path 505" class="s48" d="m126 530l9-3h3l2 8h6v2l-4 7-10-2v-3l-4-1z"/>
		<path id="Path 506" class="s60" d="m437 530l1-3h10l2 4h5l1 4-2 8h-4l-3-3-5 1v-6l-4-1z"/>
		<path id="Path 507" class="s68" d="m614 539l2-12h6 7l1 6h6 20l3 12v4l-1 2-12-1-9-3-2-3-1 4-3 3h-9l-4-2v-7z"/>
		<path id="Path 508" class="s63" d="m636 533h-6l-1-6h7z"/>
		<path id="Path 509" class="s63" d="m656 533v-6l12 1v5z"/>
		<path id="Path 510" class="s21" d="m818 529l7-2h3v22h-8l-1-5-1-6z"/>
		<path id="Path 511" class="s71" d="m414 535l1-7 5 1v6z"/>
		<path id="Path 512" class="s63" d="m590 529l6-1 4 1v6h-10z"/>
		<path id="Path 513" class="s35" d="m668 533v-5l6 1v6h-6z"/>
		<path id="Path 514" class="s59" d="m120 531v-2h4l2 1 2 8-3 3-5-2z"/>
		<path id="Path 515" class="s57" d="m420 535v-6l10 2v6z"/>
		<path id="Path 516" class="s35" d="m567 530l21-1h2v6l-2 4h-20z"/>
		<path id="Path 517" class="s35" d="m600 535v-6h4 3l-1 6z"/>
		<path id="Path 518" class="s72" d="m674 535v-6h8 6l2 8h-3l1 4-10 2h-2z"/>
		<path id="Path 519" class="s72" d="m728 534v-5h8v6h-3z"/>
		<path id="Path 520" class="s79" d="m246 532l3-2 7 1-1 11-4 3v-3l-6 1-1-3z"/>
		<path id="Path 521" class="s76" d="m430 531l7-1 1 4 4 1v6 3l-2 11v1l-3 1h-1l-6-5v-6-9z"/>
		<path id="Path 522" class="s69" d="m455 531l2-1 4 1v3l-5 1z"/>
		<path id="Path 523" class="s45" d="m128 543l-9-2-1-10h2v8l5 2 3 1z"/>
		<path id="Path 524" class="s71" d="m396 537v-6h6l2 4v2z"/>
		<path id="Path 525" class="s1" d="m892 532v-1h2v1z"/>
		<path id="Path 526" class="s82" d="m240 533l6-1-2 8h-2-2z"/>
		<path id="Path 527" class="s74" d="m180 539v-6h6l5 4v2h-7z"/>
		<path id="Path 528" class="s72" d="m659 545l-3-12h12v2 10z"/>
		<path id="Path 529" class="s11" d="m844 535l6-2h4l2 5v11h-13l3-3-2-4z"/>
		<path id="Path 530" class="s73" d="m456 535l5-1 11 1v4l-4 1v15h-7-5l-2-12z"/>
		<path id="Path 531" class="s26" d="m727 535l1-1 5 1 1 2z"/>
		<path id="Path 532" class="s20" d="m866 538v-4l4 1v4z"/>
		<path id="Path 533" class="s58" d="m152 537l6-2 1 6h-7z"/>
		<path id="Path 534" class="s84" d="m404 537v-2h10 6l10 2v9l-20 1-6-5z"/>
		<path id="Path 535" class="s64" d="m472 539v-4l20 2 2-2 10 2v16l-3 1-16-1 1-8-6-5z"/>
		<path id="Path 536" class="s68" d="m588 539l2-4h10 6v4 6h-14z"/>
		<path id="Path 537" class="s33" d="m668 545v-10h6l2 8-6 2z"/>
		<path id="Path 538" class="s85" d="m701 536l14-1v2h-14z"/>
		<path id="Path 539" class="s53" d="m715 537v-2h6v2z"/>
		<path id="Path 540" class="s26" d="m721 537v-2h6z"/>
		<path id="Path 541" class="s86" d="m734 537l-1-2h3l5 3z"/>
		<path id="Path 542" class="s53" d="m690 537l11-1v1l-12 1 5 6-2 9 1-8-5-4-1-4z"/>
		<path id="Path 543" class="s33" d="m142 544l4-7h6v4l-2 6-7-2z"/>
		<path id="Path 544" class="s85" d="m142 544h1v1h-1z"/>
		<path id="Path 545" class="s64" d="m191 539v-2l27 2 22 1h2l1 4-11 3-12 3-22-2z"/>
		<path id="Path 546" class="s83" d="m504 553v-16h6v6l-2 10z"/>
		<path id="Path 547" class="s72" d="m536 538l10-1 22 2h20l4 6v7l-7 5-13 1-11 3-5-1-1-2-11 2h-1-1l-2-2-4-4-16-1v-10z"/>
		<path id="Path 548" class="s28" d="m125 541l3-3 4 1v3h-4z"/>
		<path id="Path 549" class="s53" d="m757 542l-14-4 5 1 9 2z"/>
		<path id="Path 550" class="s15" d="m796 541l6-3 2 1v8 1h-4v-3h-3z"/>
		<path id="Path 551" class="s50" d="m810 540l8-2 1 6-7 4h-1l-4-1z"/>
		<path id="Path 552" class="s24" d="m856 549v-11h10l4 1 4 3v7l-7 1-8-1z"/>
		<path id="Path 553" class="s72" d="m165 545l5-6h10 4v10h-14z"/>
		<path id="Path 554" class="s68" d="m184 549v-10h7l7 9-3 3z"/>
		<path id="Path 555" class="s76" d="m268 550l9-11 12 8-1 6-12-3z"/>
		<path id="Path 556" class="s78" d="m468 555v-15l4-1 8 1 6 5-1 8-3 2h-5-8z"/>
		<path id="Path 557" class="s72" d="m606 545v-6h8l4 3v7l-3 3-8 2-1-2z"/>
		<path id="Path 558" class="s52" d="m778 543l4-4 14 2 1 4-4 1-7-1h-3z"/>
		<path id="Path 559" class="s55" d="m804 547v-8l6 1-3 7z"/>
		<path id="Path 560" class="s76" d="m243 544l-1-4h2l1 3z"/>
		<path id="Path 561" class="s87" d="m442 541l5-1 3 3-3 3-5-2z"/>
		<path id="Path 562" class="s65" d="m150 547l2-6h7l3 4-4 2 1 5-6-2z"/>
		<path id="Path 563" class="s77" d="m298 544l10-3 91 5 9 7 2 6v5l-4 2v8l-10 1-20-1-6-1-7-1-25-1-12-1-5-2-12-3-2-4-7-2z"/>
		<path id="Path 564" class="s27" d="m678 543l10-2 5 4-1 8-1 2-2 3-2 1-5-2z"/>
		<path id="Path 565" class="s88" d="m757 542v-1l6 1z"/>
		<path id="Path 566" class="s41" d="m128 543v-1h4l10 2v1z"/>
		<path id="Path 567" class="s72" d="m245 543l6-1v3 1l-3 5 3 6-3 6h-9v-1l1-5-5-2-3-8 11-3z"/>
		<path id="Path 568" class="s32" d="m836 549l2-7h6l2 4-3 3z"/>
		<path id="Path 569" class="s82" d="m289 547l2-4 7 1 2 15h-1l-11-6z"/>
		<path id="Path 570" class="s64" d="m447 546l3-3h4l2 12-3 1-7-1z"/>
		<path id="Path 571" class="s33" d="m508 553l2-10h10v10h-9z"/>
		<path id="Path 572" class="s20" d="m670 545l6-2h2l4 14-8-1v-5l-4-2z"/>
		<path id="Path 573" class="s9" d="m783 545l-9-2h4z"/>
		<path id="Path 574" class="s59" d="m880 549v-6h5l1 3-5 3z"/>
		<path id="Path 575" class="s12" d="m886 546l3-3-3 7h-5v-1z"/>
		<path id="Path 576" class="s68" d="m440 555l2-11 5 2-1 9z"/>
		<path id="Path 577" class="s72" d="m634 548l1-4 2 3z"/>
		<path id="Path 578" class="s18" d="m812 548l7-4 1 5h-3z"/>
		<path id="Path 579" class="s85" d="m153 550l-10-5 7 2z"/>
		<path id="Path 580" class="s66" d="m159 552l-1-5 4-2h3l5 4h14l11 2-1 4-6 1-20-2-7-1h-1z"/>
		<path id="Path 581" class="s65" d="m592 552v-7h14v7z"/>
		<path id="Path 582" class="s21" d="m659 549v-4h9 2v4l-4 1z"/>
		<path id="Path 583" class="s26" d="m793 547l-7-2 7 1z"/>
		<path id="Path 584" class="s89" d="m793 546l4-1h3v3l-7-1z"/>
		<path id="Path 585" class="s52" d="m248 551l3-5 1 5z"/>
		<path id="Path 586" class="s75" d="m410 547l20-1v6l-10 1h-10z"/>
		<path id="Path 587" class="s47" d="m220 550l12-3 3 8 5 2-1 5-11-1h-6l-3-2z"/>
		<path id="Path 588" class="s24" d="m634 548l3-1 9 3v5h-7l-8-2v-2z"/>
		<path id="Path 589" class="s89" d="m804 548v-1h3l4 1z"/>
		<path id="Path 590" class="s72" d="m195 551l3-3 22 2-1 9h-6-7l-7-1h-4l-7-2 6-1z"/>
		<path id="Path 591" class="s3" d="m817 550l-6-2h1l5 1z"/>
		<path id="Path 592" class="s65" d="m276 550l12 3 11 6-5 2h-8-10l-1-6z"/>
		<path id="Path 593" class="s40" d="m615 552l3-3 4 2v2z"/>
		<path id="Path 594" class="s32" d="m658 551l1-2 7 1v3h-7z"/>
		<path id="Path 595" class="s24" d="m666 550l4-1 4 2v5l-3 1-5-4z"/>
		<path id="Path 596" class="s45" d="m817 550v-1h3 8 8 7 13 3v1z"/>
		<path id="Path 597" class="s53" d="m859 550v-1l8 1v2z"/>
		<path id="Path 598" class="s88" d="m867 550l7-1h6 1v1z"/>
		<path id="Path 599" class="s85" d="m160 553l-7-3 6 2z"/>
		<path id="Path 600" class="s40" d="m252 551l14-1v4l-3 2-12 1-3-6z"/>
		<path id="Path 601" class="s74" d="m266 554v-4h2 8l-1 5z"/>
		<path id="Path 602" class="s27" d="m646 555v-5l12 1 1 2-1 6h-8z"/>
		<path id="Path 603" class="s27" d="m622 553v-2h9v2l-1 11-5 6-6-3z"/>
		<path id="Path 604" class="s5" d="m420 553l10-1 6 5-1 9-3 1-6 1h-1l-1-4-5-1v-4z"/>
		<path id="Path 605" class="s44" d="m585 557l7-5h14l1 2-1 9-14-1h-4z"/>
		<path id="Path 606" class="s20" d="m607 554l8-2 7 1-3 14-13-4z"/>
		<path id="Path 607" class="s9" d="m168 555l-7-2 7 1z"/>
		<path id="Path 608" class="s14" d="m410 559l-2-6h2 10l-1 6z"/>
		<path id="Path 609" class="s41" d="m482 555l3-2 16 1v1z"/>
		<path id="Path 610" class="s36" d="m501 554l3-1h4 3l-1 2h-9z"/>
		<path id="Path 611" class="s86" d="m510 555l1-2h9v2z"/>
		<path id="Path 612" class="s41" d="m520 555v-2l16 1 4 4h-1l-5-3z"/>
		<path id="Path 613" class="s10" d="m625 570l5-6 1-11 8 2 2 8 9 2 2 1-2 10-3 4-19-5z"/>
		<path id="Path 614" class="s11" d="m658 559l1-6h7l5 4v2l-7 2z"/>
		<path id="Path 615" class="s85" d="m168 555v-1l20 2 7 2z"/>
		<path id="Path 616" class="s31" d="m263 556l3-2 9 1 1 6h-3-10z"/>
		<path id="Path 617" class="s90" d="m440 556v-1h6l7 1v1h-13z"/>
		<path id="Path 618" class="s86" d="m453 556l3-1h5l-1 2h-7z"/>
		<path id="Path 619" class="s26" d="m460 557l1-2h7 1l1 2z"/>
		<path id="Path 620" class="s9" d="m470 557l-1-2h8l-1 2z"/>
		<path id="Path 621" class="s26" d="m476 557l1-2h5z"/>
		<path id="Path 622" class="s5" d="m650 565l-9-2-2-8h7l4 4z"/>
		<path id="Path 623" class="s66" d="m251 557l12-1v5l-3 2h-12z"/>
		<path id="Path 624" class="s53" d="m437 557l3-1v1z"/>
		<path id="Path 625" class="s4" d="m671 557l3-1 8 1 5 2v1l-3 2h-3l-10-3z"/>
		<path id="Path 626" class="s53" d="m435 566l1-9h1z"/>
		<path id="Path 627" class="s15" d="m572 558l13-1 3 5h4l5 14-7 5-4-1-5-2-3-1v-11z"/>
		<path id="Path 628" class="s12" d="m206 560l-7-2 7 1z"/>
		<path id="Path 629" class="s3" d="m542 560l-3-2h1z"/>
		<path id="Path 630" class="s61" d="m544 560l11-2 1 2-6 4h-2l-2-1z"/>
		<path id="Path 631" class="s27" d="m561 561l11-3 6 8v11l-17-4v-1z"/>
		<path id="Path 632" class="s1" d="m687 559l2-1-2 2z"/>
		<path id="Path 633" class="s88" d="m206 560v-1h7v1z"/>
		<path id="Path 634" class="s91" d="m213 560v-1h6l3 2h-1-4z"/>
		<path id="Path 635" class="s36" d="m294 561l5-2h1l7 2 2 4h-1z"/>
		<path id="Path 636" class="s13" d="m410 564v-5h9v4z"/>
		<path id="Path 637" class="s13" d="m650 565v-6h8l6 2 7-2 10 3v3l-2 3-2 2-5 4-4 2-3-7-13-3z"/>
		<path id="Path 638" class="s3" d="m217 562l-4-2 4 1z"/>
		<path id="Path 639" class="s45" d="m546 563l-3-3h1z"/>
		<path id="Path 640" class="s55" d="m550 564l6-4 5 1v11h-2l-6-4z"/>
		<path id="Path 641" class="s1" d="m684 562l3-2-3 3z"/>
		<path id="Path 642" class="s45" d="m217 562v-1h4v1z"/>
		<path id="Path 643" class="s88" d="m221 562v-1h1 6v1z"/>
		<path id="Path 644" class="s51" d="m228 562v-1l11 1v1z"/>
		<path id="Path 645" class="s92" d="m260 563l3-2h10v2z"/>
		<path id="Path 646" class="s36" d="m273 563v-2h3 10z"/>
		<path id="Path 647" class="s13" d="m597 576l-5-14 14 1 13 4 6 3 3 5v5l10 8v3h-14l-1-5-8-3-5-5-8 1z"/>
		<path id="Path 648" class="s8" d="m681 565v-3h3v1l-2 2z"/>
		<path id="Path 649" class="s8" d="m410 564l9-1 5 1 1 4-8 4-5 1-6 1v-8z"/>
		<path id="Path 650" class="s6" d="m553 568l-5-4h2z"/>
		<path id="Path 651" class="s26" d="m321 568l-13-3h1z"/>
		<path id="Path 652" class="s1" d="m679 568l2-3h1z"/>
		<path id="Path 653" class="s27" d="m650 576l2-10 13 3 3 7-1 2h-1l-12 1z"/>
		<path id="Path 654" class="s3" d="m417 572l8-4h1z"/>
		<path id="Path 655" class="s3" d="m338 572l-12-2 12 1z"/>
		<path id="Path 656" class="s36" d="m338 571l25 1v1l-25-1z"/>
		<path id="Path 657" class="s91" d="m363 572l7 1h-1-6z"/>
		<path id="Path 658" class="s53" d="m561 573l-2-1h2z"/>
		<path id="Path 659" class="s9" d="m376 575l-7-2h1l6 1z"/>
		<path id="Path 660" class="s36" d="m376 574l20 1h-20z"/>
		<path id="Path 661" class="s26" d="m406 574l6-1-5 4-11-2z"/>
		<path id="Path 662" class="s53" d="m581 578h-12l-8-5 17 4z"/>
		<path id="Path 663" class="s1" d="m668 576l4-2-5 4z"/>
		<path id="Path 664" class="s8" d="m638 591v-3l-10-8v-5l19 5 7 3 3 1v1l-5 4z"/>
		<path id="Path 665" class="s14" d="m590 581l7-5 5 3-1 8h-3l-2-2-3-1-2-1z"/>
		<path id="Path 666" class="s11" d="m647 580l3-4 4 3v4z"/>
		<path id="Path 667" class="s10" d="m602 579l8-1 5 5-2 8h-8l-2-1-2-2v-1z"/>
		<path id="Path 668" class="s7" d="m654 579l12-1-2 4-5 1-2 1-3-1z"/>
		<path id="Path 669" class="s3" d="m591 583l-5-3 4 1z"/>
		<path id="Path 670" class="s11" d="m613 591l2-8 8 3 1 5h-5l-6 1z"/>
		<path id="Path 671" class="s1" d="m657 584l2-1-2 2z"/>
		<path id="Path 672" class="s26" d="m601 588l-3-1h3z"/>
		<path id="Path 673" class="s3" d="m638 591l14-2-3 3h-25v-1z"/>
		<path id="Path 674" class="s1" d="m605 592l-2-2 2 1z"/>
		<path id="Path 675" class="s45" d="m605 592v-1h8v1z"/>
		<path id="Path 676" class="s6" d="m613 592l6-1v1 1h-6z"/>
		<path id="Path 677" class="s45" d="m619 592v-1h5v1z"/>
	</g>
</svg>