<svg version="1.2" xmlns="http://www.w3.org/2000/svg" viewBox="0 0 1000 1000" width="1000" height="1000">
	<title>Percina_shumardi</title>
	<style>
		.s0 { opacity: .5;fill: #e9f5f5 } 
		.s1 { opacity: .1;fill: #f2f9f9 } 
		.s2 { opacity: .7;fill: #eef8f8 } 
		.s3 { fill: #d7f8fc } 
		.s4 { opacity: 1;fill: #d9eeee } 
		.s5 { opacity: .5;fill: #cee0dc } 
		.s6 { fill: #7e9f99 } 
		.s7 { opacity: 1;fill: #b8cab1 } 
		.s8 { fill: #bad2c6 } 
		.s9 { opacity: .1;fill: #d5e4de } 
		.s10 { opacity: 1;fill: #aac2b1 } 
		.s11 { fill: #98b19a } 
		.s12 { opacity: .3;fill: #b7cbc1 } 
		.s13 { opacity: 1;fill: #a3c6c5 } 
		.s14 { fill: #c8edf4 } 
		.s15 { opacity: .3;fill: #eef7f7 } 
		.s16 { fill: #b8e8f5 } 
		.s17 { fill: #9db8a7 } 
		.s18 { opacity: .3;fill: #d1e4e1 } 
		.s19 { opacity: 1;fill: #6f938f } 
		.s20 { fill: #95ab87 } 
		.s21 { fill: #859f7d } 
		.s22 { fill: #c1ddde } 
		.s23 { fill: #49725b } 
		.s24 { fill: #8ba993 } 
		.s25 { fill: #799477 } 
		.s26 { fill: #627e60 } 
		.s27 { fill: #658b78 } 
		.s28 { fill: #2d5546 } 
		.s29 { fill: #acba9e } 
		.s30 { fill: #749683 } 
		.s31 { fill: #425940 } 
		.s32 { fill: #556e52 } 
		.s33 { fill: #0d2e22 } 
		.s34 { fill: #4b5832 } 
		.s35 { fill: #5a6e45 } 
		.s36 { fill: #274933 } 
		.s37 { opacity: .6;fill: #baccbf } 
		.s38 { fill: #3a5033 } 
		.s39 { opacity: .3;fill: #a0a887 } 
		.s40 { fill: #788657 } 
		.s41 { opacity: .5;fill: #879f90 } 
		.s42 { fill: #909c69 } 
		.s43 { fill: #466649 } 
		.s44 { fill: #4c6241 } 
		.s45 { fill: #667850 } 
		.s46 { fill: #88905d } 
		.s47 { fill: #a9cfd3 } 
		.s48 { opacity: .8;fill: #a2b4a1 } 
		.s49 { fill: #b0dae6 } 
		.s50 { fill: #cadbd2 } 
		.s51 { fill: #717d4e } 
		.s52 { fill: #809569 } 
		.s53 { fill: #3d6453 } 
		.s54 { fill: #85a088 } 
		.s55 { fill: #6b8a6d } 
		.s56 { fill: #4e7867 } 
		.s57 { fill: #dbcf96 } 
		.s58 { fill: #537458 } 
		.s59 { fill: #ced6b2 } 
		.s60 { fill: #ebe2b8 } 
		.s61 { fill: #363d1e } 
		.s62 { fill: #e7daa9 } 
		.s63 { fill: #a4b391 } 
		.s64 { fill: #587f6d } 
		.s65 { fill: #b1b485 } 
		.s66 { fill: #0e413a } 
		.s67 { fill: #a4a97a } 
		.s68 { opacity: .7;fill: #d2e1db } 
		.s69 { fill: #becba6 } 
		.s70 { fill: #b7bf94 } 
		.s71 { fill: #a49f64 } 
		.s72 { fill: #ccca9d } 
		.s73 { fill: #cab874 } 
		.s74 { fill: #d5e0c4 } 
		.s75 { fill: #718865 } 
		.s76 { fill: #95a476 } 
		.s77 { fill: #8b8850 } 
		.s78 { fill: #fdfacb } 
		.s79 { fill: #f1dc95 } 
		.s80 { fill: #c8be8c } 
		.s81 { fill: #fcfffb } 
		.s82 { fill: #f9eeb1 } 
		.s83 { fill: #f6f9e8 } 
		.s84 { fill: #f2efcf } 
		.s85 { fill: #d6e7da } 
		.s86 { opacity: .1;fill: #b7c8bb } 
		.s87 { fill: #eaf9f9 } 
		.s88 { fill: #dbc780 } 
		.s89 { fill: #b3ab66 } 
		.s90 { opacity: .9;fill: #e6f6f7 } 
		.s91 { opacity: .2;fill: #79875e } 
		.s92 { opacity: .5;fill: #9cb09f } 
		.s93 { opacity: .4;fill: #729282 } 
		.s94 { opacity: .9;fill: #c9dfe0 } 
	</style>
	<g id="Background">
		<path id="Path 0" class="s0" d="m443 418v-1h10v1z"/>
		<path id="Path 1" class="s1" d="m453 418v-1h1l2 1v1z"/>
		<path id="Path 2" class="s1" d="m456 417h1v1h-1z"/>
		<path id="Path 3" class="s2" d="m456 418l1-1h10l-1 2h-6-3-1z"/>
		<path id="Path 4" class="s3" d="m466 419l1-2h6l2 1v1l-1 4h-6z"/>
		<path id="Path 5" class="s0" d="m475 418l-2-1h2z"/>
		<path id="Path 6" class="s1" d="m475 418v-1h1l3 3-4-1z"/>
		<path id="Path 7" class="s1" d="m906 502h1v1h-1z"/>
		<path id="Path 8" class="s1" d="m908 471v-14l-1 23z"/>
		<path id="Path 9" class="s1" d="m440 419l3-1-2 1z"/>
		<path id="Path 10" class="s4" d="m441 419l2-1h10l3 1h1l-2 3-12 1-3-2z"/>
		<path id="Path 11" class="s5" d="m428 425l12-6h1l-1 2-10 4z"/>
		<path id="Path 12" class="s6" d="m455 422l2-3h3l2 4-6 2z"/>
		<path id="Path 13" class="s7" d="m456 425l6-2-2-4h6l2 4 3 22-2 3-8 1-1-5h-6l-1-2-1-13z"/>
		<path id="Path 14" class="s8" d="m468 423h6l1-4 4 1 6 1h2l1 6h7l2-3h5v11l-9 4-11 3-6 3h-5z"/>
		<path id="Path 15" class="s1" d="m485 421l-6-1h6z"/>
		<path id="Path 16" class="s9" d="m485 421v-1h6v1h-4z"/>
		<path id="Path 17" class="s0" d="m491 421v-1h5l1 3v1z"/>
		<path id="Path 18" class="s10" d="m430 425l10-4 3 2 1 19h-4l-4 5h-2l-4-6z"/>
		<path id="Path 19" class="s4" d="m497 424l-2 3h-7l-1-6h4z"/>
		<path id="Path 20" class="s11" d="m443 423l12-1 1 3-4 4 1 13-7 2-2-2z"/>
		<path id="Path 21" class="s12" d="m497 424v-1h13l6 4-10-3h-4z"/>
		<path id="Path 22" class="s13" d="m502 435v-11h4l2 9v2z"/>
		<path id="Path 23" class="s14" d="m508 433l-2-9 10 3h2l3 3-2 2z"/>
		<path id="Path 24" class="s0" d="m419 427l9-2-6 2z"/>
		<path id="Path 25" class="s13" d="m422 427l6-2h2v16l4 6-8 4-2-1 2-7-9 5-3-2 4-5 7-5-3-3z"/>
		<path id="Path 26" class="s14" d="m413 432l6-5h3v6l-7 3-3 1 1-4z"/>
		<path id="Path 27" class="s15" d="m521 430l-3-3 6 1 3 4h-1z"/>
		<path id="Path 28" class="s1" d="m654 430l16-1-16 2z"/>
		<path id="Path 29" class="s16" d="m654 431l16-2 6 3 11 6 2 2 1 2-12 5-2-2-8 2h-14l-2-16z"/>
		<path id="Path 30" class="s13" d="m519 432l2-2 5 2 1 6-1 1h-6z"/>
		<path id="Path 31" class="s1" d="m639 432l6-2v1z"/>
		<path id="Path 32" class="s9" d="m645 431v-1h9v1h-2z"/>
		<path id="Path 33" class="s14" d="m639 432l6-1h7l2 16-11 2-17-4v-6l-3-2 5-2 10-3z"/>
		<path id="Path 34" class="s17" d="m508 433l11-1 1 7v2h-4-6l-2-6z"/>
		<path id="Path 35" class="s4" d="m527 438l-1-6h1l6 4z"/>
		<path id="Path 36" class="s15" d="m533 436l-6-4 7 3z"/>
		<path id="Path 37" class="s18" d="m408 442l5-9-1 4v2l-3 3z"/>
		<path id="Path 38" class="s19" d="m415 436l7-3 3 3-7 5-3-3z"/>
		<path id="Path 39" class="s15" d="m548 435l7-2 4 4h-1l-9-2z"/>
		<path id="Path 40" class="s20" d="m493 439l9-4h6l2 6-2 4h-13z"/>
		<path id="Path 41" class="s21" d="m533 436l1-1h6v7l-4 1h-10v-4l1-1z"/>
		<path id="Path 42" class="s6" d="m540 442v-7h8 1l7 11v6l-6-1-2-8h-7z"/>
		<path id="Path 43" class="s13" d="m556 446l-7-11 9 2 1 2v4 3z"/>
		<path id="Path 44" class="s6" d="m412 437l3-1v2l-3 1z"/>
		<path id="Path 45" class="s18" d="m559 439l-1-2h1v1z"/>
		<path id="Path 46" class="s22" d="m618 438l5-1 3 2v6h-4-6-11l4-3 4-2z"/>
		<path id="Path 47" class="s23" d="m412 439l3-1 3 3-4 5-4 1-4-1 3-4z"/>
		<path id="Path 48" class="s1" d="m559 439v-1l2 5h-2z"/>
		<path id="Path 49" class="s24" d="m482 442l11-3 2 6-7 4h-6z"/>
		<path id="Path 50" class="s25" d="m520 441v-2h6v4l-2 1z"/>
		<path id="Path 51" class="s1" d="m690 442l-1-2 2 2z"/>
		<path id="Path 52" class="s25" d="m508 445l2-4h6v5l-7 2z"/>
		<path id="Path 53" class="s26" d="m516 446v-5h4l4 3-2 2z"/>
		<path id="Path 54" class="s5" d="m396 450l12-8h1l-3 4-2 1-7 4z"/>
		<path id="Path 55" class="s24" d="m436 447l4-5h4l2 2v3h3v2l-3 1-8 1z"/>
		<path id="Path 56" class="s8" d="m446 444l7-2 1 2-5 3h-3z"/>
		<path id="Path 57" class="s11" d="m476 445l6-3v7l-6 1-1-1z"/>
		<path id="Path 58" class="s26" d="m536 443l4-1 1 1 3 5-1 6h-3-1l1-5-4-1z"/>
		<path id="Path 59" class="s5" d="m596 445l13-3-4 3-7 1h-2z"/>
		<path id="Path 60" class="s3" d="m678 447l12-5h1l1 1 2 2 2 2 11 5 3 2-3 3-9-1h-6l-4-3h-10z"/>
		<path id="Path 61" class="s27" d="m414 446l3 2 9-5-2 7 2 1v2l-7-2-9 2-2-2 2-4z"/>
		<path id="Path 62" class="s28" d="m524 444l2-1h10v5l-4 1h-10v-3z"/>
		<path id="Path 63" class="s20" d="m543 454l1-6-3-5h7l2 8z"/>
		<path id="Path 64" class="s6" d="m449 447l5-3h6l1 5-2 3-10-3z"/>
		<path id="Path 65" class="s27" d="m469 448l2-3h5l-1 4z"/>
		<path id="Path 66" class="s26" d="m488 449l7-4h13l1 3-1 8-4 1h-16z"/>
		<path id="Path 67" class="s0" d="m591 447l5-2v1z"/>
		<path id="Path 68" class="s24" d="m598 446l7-1h11v7l-1 2h-6l-11-3z"/>
		<path id="Path 69" class="s29" d="m616 452v-7h6l-1 7z"/>
		<path id="Path 70" class="s11" d="m621 452l1-7h4l17 4 3 7-23-1z"/>
		<path id="Path 71" class="s14" d="m668 447l8-2 2 2v6l-3 2h-4z"/>
		<path id="Path 72" class="s0" d="m885 447l11-2v2l-10 1z"/>
		<path id="Path 73" class="s28" d="m404 447l2-1 4 1-2 4h-4z"/>
		<path id="Path 74" class="s23" d="m509 448l7-2h6v3 6 6h-6l-8-5z"/>
		<path id="Path 75" class="s8" d="m556 452v-6h3v4l7 1h3l-1 2z"/>
		<path id="Path 76" class="s11" d="m591 447l5-1h2v5l-6 2h-10v-4l6-2z"/>
		<path id="Path 77" class="s14" d="m886 448l10-1h2l9 7 1 3v14h-8v-9l-7-3-4-3z"/>
		<path id="Path 78" class="s30" d="m397 451l7-4v4l-3 2h-5z"/>
		<path id="Path 79" class="s31" d="m426 451l8-4h2l2 4 2 12v2h-8l-2-3v-7l-4-2z"/>
		<path id="Path 80" class="s9" d="m573 450l15-3-6 2z"/>
		<path id="Path 81" class="s8" d="m643 449l11-2h14l3 8-1 2h-22l-2-1z"/>
		<path id="Path 82" class="s15" d="m707 452l-11-5 8 1z"/>
		<path id="Path 83" class="s22" d="m873 448l12-1 1 1 3 8-6 2-11-5v-4z"/>
		<path id="Path 84" class="s15" d="m907 454l-9-7 6 1z"/>
		<path id="Path 85" class="s32" d="m461 449l8-1 6 1 1 1v5h-4-10l-3-3z"/>
		<path id="Path 86" class="s33" d="m532 449l4-1 4 1-1 5-7 1z"/>
		<path id="Path 87" class="s1" d="m860 449l13-1-1 1h-11z"/>
		<path id="Path 88" class="s34" d="m446 450l3-1 10 3 3 3-8 10-8-2z"/>
		<path id="Path 89" class="s35" d="m476 450l6-1h6v8l-8 2-4-4z"/>
		<path id="Path 90" class="s36" d="m522 455v-6h10v6z"/>
		<path id="Path 91" class="s10" d="m573 450l9-1v4 2h-4l-5-4z"/>
		<path id="Path 92" class="s15" d="m853 452l7-3h1z"/>
		<path id="Path 93" class="s14" d="m853 452l8-3h11v4l-8 2-10 2h-4v-4z"/>
		<path id="Path 94" class="s37" d="m388 453l8-3 1 1-1 2-7 2h-1z"/>
		<path id="Path 95" class="s38" d="m438 451l8-1v13h-6z"/>
		<path id="Path 96" class="s1" d="m566 451l-7-1h7z"/>
		<path id="Path 97" class="s39" d="m566 451v-1h7v1h-4z"/>
		<path id="Path 98" class="s31" d="m401 453l3-2h4l2 2v6l-9-2z"/>
		<path id="Path 99" class="s38" d="m410 453l9-2 7 2 4 2v7h-4l-1 4-12 1v-6l-3-2z"/>
		<path id="Path 100" class="s35" d="m543 454l7-3 6 1 12 1 9 3 1 13-3 6h-5l-6-2h-6l-20-6v-6l2-7z"/>
		<path id="Path 101" class="s26" d="m568 453l1-2h4l5 4-1 1z"/>
		<path id="Path 102" class="s40" d="m592 453l6-2 11 3v11l-5 1-12-3z"/>
		<path id="Path 103" class="s40" d="m615 454l1-2h5l2 3v2h-5z"/>
		<path id="Path 104" class="s15" d="m710 454l-3-2 7 1 2 4z"/>
		<path id="Path 105" class="s15" d="m836 457l5-4 12-1-3 1-6 2z"/>
		<path id="Path 106" class="s41" d="m377 455l11-2v2l-6 1-5 1z"/>
		<path id="Path 107" class="s32" d="m389 455l7-2h5v4l-3 1v5h-8z"/>
		<path id="Path 108" class="s42" d="m582 455v-2h10v10l12 3v5 6h-10l-10-2v-6l2-8z"/>
		<path id="Path 109" class="s10" d="m675 455l3-2h10l4 3-2 7h-2-9z"/>
		<path id="Path 110" class="s3" d="m844 455l6-2v4h-5z"/>
		<path id="Path 111" class="s8" d="m864 455l8-2 11 5 1 10v14l-4 1-9-2-7 2h-10-9l-3-6h-8l-4-12 6-3h7l4 7 7-2 10 2 2-2z"/>
		<path id="Path 112" class="s43" d="m532 455l7-1h1l-2 7h-6z"/>
		<path id="Path 113" class="s44" d="m609 465v-11h6l3 3v12h-7z"/>
		<path id="Path 114" class="s16" d="m707 457l3-3 6 3v6h-7-1z"/>
		<path id="Path 115" class="s5" d="m373 457l4-2v2z"/>
		<path id="Path 116" class="s31" d="m382 456l6-1h1l1 8v2h-8z"/>
		<path id="Path 117" class="s45" d="m446 463l8 2 8-10h10v14l-32 3v-7-2z"/>
		<path id="Path 118" class="s40" d="m472 469v-14h4l4 4v10h-6z"/>
		<path id="Path 119" class="s32" d="m522 461v-6h10v6z"/>
		<path id="Path 120" class="s46" d="m577 456l1-1h4l4 6-2 8h-6z"/>
		<path id="Path 121" class="s35" d="m623 457v-2l23 1 2 1v6l-20-1z"/>
		<path id="Path 122" class="s20" d="m670 457l1-2h4l4 8-3 2h-9z"/>
		<path id="Path 123" class="s4" d="m836 457l8-2 1 2-2 5h-7z"/>
		<path id="Path 124" class="s7" d="m854 457l10-2 2 12-2 2-10-2z"/>
		<path id="Path 125" class="s43" d="m377 457l5-1v9h-9l-2-6 1-2h1z"/>
		<path id="Path 126" class="s40" d="m504 457l4-1 8 5v8h-12z"/>
		<path id="Path 127" class="s45" d="m648 457h22l-3 8-2 2-15-1-2-3z"/>
		<path id="Path 128" class="s17" d="m690 463l2-7h6v6 1z"/>
		<path id="Path 129" class="s47" d="m698 462v-6l9 1 1 6z"/>
		<path id="Path 130" class="s47" d="m883 458l6-2 4 3-2 6-7 3z"/>
		<path id="Path 131" class="s9" d="m356 460l10-3-1 2h-2z"/>
		<path id="Path 132" class="s48" d="m365 459l1-2h6l-1 2z"/>
		<path id="Path 133" class="s44" d="m398 463v-5l3-1 9 2 3 2v6l-5 2-8-2z"/>
		<path id="Path 134" class="s45" d="m480 459l8-2h16v12l-3 6-7-1-7-1h-5l-2-4z"/>
		<path id="Path 135" class="s34" d="m618 469v-12h5l5 5 20 1 2 3 15 1v10l-25 2-5-4h-7l-3-6z"/>
		<path id="Path 136" class="s49" d="m716 463v-6l3 1 3 4h1l4 5 1 2h-6z"/>
		<path id="Path 137" class="s3" d="m823 460l8-3h5v5l-6 3h-7v-4z"/>
		<path id="Path 138" class="s50" d="m843 462l2-5h5 4v10l-7 2z"/>
		<path id="Path 139" class="s7" d="m356 460l7-1-5 2z"/>
		<path id="Path 140" class="s31" d="m358 461l5-2h2 6l2 6-1 4h-11z"/>
		<path id="Path 141" class="s49" d="m884 468l7-3 2-6 7 3v9l-2 16-7 6-3-4v-6l-4-1z"/>
		<path id="Path 142" class="s48" d="m348 461l4-1h3l-10 5-9 1v-1l5-1 3-2z"/>
		<path id="Path 143" class="s32" d="m345 465l10-5h1l2 1 3 8-1 6h-12z"/>
		<path id="Path 144" class="s1" d="m814 462l9-2v1z"/>
		<path id="Path 145" class="s45" d="m516 469v-8h6 10 6v6 4h-16z"/>
		<path id="Path 146" class="s4" d="m814 462l9-1v4h-10v-2z"/>
		<path id="Path 147" class="s15" d="m341 463l3-1-3 2z"/>
		<path id="Path 148" class="s32" d="m425 466l1-4h4l2 3h8v7l-4 1h-6z"/>
		<path id="Path 149" class="s24" d="m698 463v-1l10 1h1l8 10h-3l-16-1z"/>
		<path id="Path 150" class="s15" d="m796 465l18-3-1 1z"/>
		<path id="Path 151" class="s12" d="m336 465l5-2v1z"/>
		<path id="Path 152" class="s45" d="m390 465v-2h8l2 4 8 2v6h-9l-3 3-6-3z"/>
		<path id="Path 153" class="s46" d="m676 465l3-2h9l3 8 3 10v4h-2l-10-1-2-4h-4z"/>
		<path id="Path 154" class="s21" d="m691 471l-3-8h2 8v9z"/>
		<path id="Path 155" class="s13" d="m717 473l-8-10h7l6 6v4h-4z"/>
		<path id="Path 156" class="s22" d="m796 465l17-2v2l-9 4-10-1v-1z"/>
		<path id="Path 157" class="s5" d="m329 467l4-2v1z"/>
		<path id="Path 158" class="s12" d="m333 466v-1h3v1h-1z"/>
		<path id="Path 159" class="s31" d="m336 466l9-1 3 10-12 2-2-4 1-7z"/>
		<path id="Path 160" class="s32" d="m372 469l1-4h9 8v10h-3-13z"/>
		<path id="Path 161" class="s46" d="m604 466l5-1 2 4-1 2h-6z"/>
		<path id="Path 162" class="s51" d="m665 467l2-2h9v15l-2 1-6-1-3-3z"/>
		<path id="Path 163" class="s5" d="m781 467l15-2-2 2-14 2z"/>
		<path id="Path 164" class="s7" d="m804 469l9-4h10 7l4 12-12 4-8-2h-6l-3-5z"/>
		<path id="Path 165" class="s32" d="m329 467l4-1h2l-1 7h-6l-1-4 1-2z"/>
		<path id="Path 166" class="s43" d="m413 467l12-1 5 7-1 13-6 5-1 6h-6l-2-6v-7l-6-9v-6z"/>
		<path id="Path 167" class="s12" d="m293 475l35-8-1 2-13 3-13 3-8 1z"/>
		<path id="Path 168" class="s26" d="m538 471v-4l20 6v8h-17z"/>
		<path id="Path 169" class="s18" d="m728 469l-1-2 2 3z"/>
		<path id="Path 170" class="s9" d="m771 470l10-3-1 2h-1z"/>
		<path id="Path 171" class="s20" d="m780 469l14-2v1l-2 4 3 4-3 1h-10-2l-2-5 1-3z"/>
		<path id="Path 172" class="s25" d="m795 476l-3-4 2-4 10 1 1 5-7 2z"/>
		<path id="Path 173" class="s35" d="m314 472l13-3 1 4h6l2 4v14h-2l-5-2-3-6h-12z"/>
		<path id="Path 174" class="s26" d="m360 475l1-6h11l2 6-2 10-6 3z"/>
		<path id="Path 175" class="s26" d="m440 472l32-3h2l4 25-4 2-1 11-11-7h-6l-3-5h-5l-8-2v-12l-4-3v-5z"/>
		<path id="Path 176" class="s25" d="m478 494l-4-25h6l2 4h5l1 4 6-3 7 1v2l-4 8-7 1v8z"/>
		<path id="Path 177" class="s26" d="m501 475l3-6h12l6 2v20h-4v-7l-5-7h-12z"/>
		<path id="Path 178" class="s40" d="m575 475l3-6h6v6z"/>
		<path id="Path 179" class="s45" d="m610 471l1-2h7v7l-3 1-5-2z"/>
		<path id="Path 180" class="s35" d="m618 476v-7h7l3 6-4 3z"/>
		<path id="Path 181" class="s47" d="m722 473v-4h6l1 1 2 2 1 1v2h-4z"/>
		<path id="Path 182" class="s48" d="m771 470l8-1-1 3h-7v-1z"/>
		<path id="Path 183" class="s9" d="m761 472l4-2v1z"/>
		<path id="Path 184" class="s12" d="m765 471v-1h6v1z"/>
		<path id="Path 185" class="s25" d="m522 491v-20h16l3 10-1 8h-5l-1 4h-10z"/>
		<path id="Path 186" class="s52" d="m604 477v-6h6v4z"/>
		<path id="Path 187" class="s35" d="m694 481l-3-10 7 1 16 1v8z"/>
		<path id="Path 188" class="s6" d="m761 472l4-1h6v1l-7 1h-3z"/>
		<path id="Path 189" class="s16" d="m891 493l7-6 2-16h8l-1 9v5l-3 5-2 3 2 9-8 10h-2z"/>
		<path id="Path 190" class="s26" d="m301 475l13-3v11l-8 3 1 8-1 5 6 4v5l-12 1-2 3-4-1v-9l-11-2 4-11 7-3h5l2-4 3-1-3-4z"/>
		<path id="Path 191" class="s15" d="m732 473l-1-1h24v1z"/>
		<path id="Path 192" class="s12" d="m755 473v-1h6v1h-1z"/>
		<path id="Path 193" class="s32" d="m764 473l7-1h7l2 5-16 2z"/>
		<path id="Path 194" class="s53" d="m422 497l1-6 6-5 1-13h6v5l4 3v12l3 13-5 3h-8l-8-6z"/>
		<path id="Path 195" class="s54" d="m494 474l-6 3-1-4z"/>
		<path id="Path 196" class="s55" d="m558 481v-8h6v6l-1 2z"/>
		<path id="Path 197" class="s25" d="m564 479v-6l6 2v4z"/>
		<path id="Path 198" class="s43" d="m714 481v-8h3 1l2 8z"/>
		<path id="Path 199" class="s56" d="m720 481l-2-8h4l6 2v6h-4z"/>
		<path id="Path 200" class="s8" d="m732 475v-2h23 5l-8 2h-15z"/>
		<path id="Path 201" class="s45" d="m752 475l8-2h1 3v6l-12 2z"/>
		<path id="Path 202" class="s57" d="m798 476l7-2 3 5-2 7h-4z"/>
		<path id="Path 203" class="s0" d="m289 477l4-2v1z"/>
		<path id="Path 204" class="s25" d="m293 476l8-1v2l-3 2h-6-6l2-2h1z"/>
		<path id="Path 205" class="s28" d="m336 477l12-2h12l6 13 3 3v6l-2 4-3 4-8-1-3-3-7-8h-4l-6-2z"/>
		<path id="Path 206" class="s28" d="m372 485l2-10h13l3 8 6 2 2 2-3 11 3 1-1 22h-9l-10-3-4-7v-5l2-1-2-8-1-6z"/>
		<path id="Path 207" class="s58" d="m396 485l-6-2-3-8h3l6 3z"/>
		<path id="Path 208" class="s26" d="m396 478l3-3h9l6 9v7h-8l-2-4h-6l-2-2z"/>
		<path id="Path 209" class="s54" d="m570 479v-4h5 9v6l-2 8-4 2h-4v-10z"/>
		<path id="Path 210" class="s21" d="m584 481v-6l10 2v4z"/>
		<path id="Path 211" class="s25" d="m604 477l6-2 5 2 1 8-2 9-3 3h-7v-7l-10-9v-4z"/>
		<path id="Path 212" class="s25" d="m624 478l4-3h7l5 4 25-2 3 3 2 7v8h-4l-6-2h-12-3l-2-9-10-1-5 4-4-2z"/>
		<path id="Path 213" class="s55" d="m728 481v-6h4 5l-1 6z"/>
		<path id="Path 214" class="s42" d="m736 481l1-6h15v6l-14 2z"/>
		<path id="Path 215" class="s55" d="m615 477l3-1 6 2v7h-8z"/>
		<path id="Path 216" class="s59" d="m782 477h10v10h-8z"/>
		<path id="Path 217" class="s60" d="m792 477l3-1h3l4 10-4 8-6-1v-6z"/>
		<path id="Path 218" class="s18" d="m274 482l14-5-2 2-6 2z"/>
		<path id="Path 219" class="s34" d="m298 479l3-2 3 4-3 1z"/>
		<path id="Path 220" class="s58" d="m497 485l4-8h12l5 7v7l-4 2-16-2z"/>
		<path id="Path 221" class="s29" d="m764 479l16-2h2l2 10v4h-7l-2 8-4 1v4l-4 3-21 2h-4l-4-2v-3-21l14-2z"/>
		<path id="Path 222" class="s29" d="m822 481l12-4h8l3 6h9v6 5l-4 2v11l-16-2-12 2-2-1v-12l-3-3z"/>
		<path id="Path 223" class="s43" d="m280 481l6-2h6l2 7-7 3-7-7z"/>
		<path id="Path 224" class="s61" d="m294 486l-2-7h6l3 3-2 4z"/>
		<path id="Path 225" class="s11" d="m563 481l1-2h6l4 2v10h-8z"/>
		<path id="Path 226" class="s62" d="m806 486l2-7h6v8z"/>
		<path id="Path 227" class="s59" d="m814 487v-8l8 2-5 10h-2z"/>
		<path id="Path 228" class="s63" d="m670 487l-2-7 6 1v6z"/>
		<path id="Path 229" class="s25" d="m674 481l2-1h4l2 4-4 5-4-2z"/>
		<path id="Path 230" class="s17" d="m274 482l6-1v1l-16 6-10 3 1-2 4-2h2l12-5z"/>
		<path id="Path 231" class="s64" d="m540 489l1-8h17 5l3 10-1 9h-2l-9-7h-12z"/>
		<path id="Path 232" class="s55" d="m578 491l4-2 2-8h10l10 9v7l-5 3-5 2v6l-9 11-3-6-1-11-3-1z"/>
		<path id="Path 233" class="s55" d="m694 485v-4h20v8l-6 1-5-5z"/>
		<path id="Path 234" class="s25" d="m714 489v-8h6 4v10z"/>
		<path id="Path 235" class="s21" d="m724 491v-10h4 8l2 2v21l-6-1-3-1z"/>
		<path id="Path 236" class="s29" d="m864 483l7-2 9 2v6h-4-12z"/>
		<path id="Path 237" class="s18" d="m261 487l4-4 8-1z"/>
		<path id="Path 238" class="s31" d="m264 488l16-6 7 7-4 11-5 3-6-6h-4z"/>
		<path id="Path 239" class="s17" d="m880 483l4-1 4 1v6h-8z"/>
		<path id="Path 240" class="s25" d="m307 494l-1-8 8-3h12l3 6-8 3-3 5z"/>
		<path id="Path 241" class="s11" d="m628 487l5-4 10 1 2 9-1 7-4 2 1 4-9-3z"/>
		<path id="Path 242" class="s63" d="m854 489v-6h10v6z"/>
		<path id="Path 243" class="s54" d="m678 489l4-5 10 1v7l-8 7h-4l-2-4z"/>
		<path id="Path 244" class="s27" d="m366 488l6-3 1 6h-4z"/>
		<path id="Path 245" class="s55" d="m490 494v-8l7-1 1 6-3 3z"/>
		<path id="Path 246" class="s29" d="m614 494l2-9h8l4 2 4 16h-4-6l-3-7z"/>
		<path id="Path 247" class="s24" d="m692 492v-7h2 9l5 5v7l-4 4h-4z"/>
		<path id="Path 248" class="s65" d="m798 494l4-8h4l8 1 1 4-3 3-12 1z"/>
		<path id="Path 249" class="s9" d="m253 489l6-2-4 2z"/>
		<path id="Path 250" class="s55" d="m398 499l-3-1 3-11h6l2 4v8z"/>
		<path id="Path 251" class="s30" d="m670 495v-8h4l4 2v6z"/>
		<path id="Path 252" class="s63" d="m784 491v-4h8v6h-5z"/>
		<path id="Path 253" class="s53" d="m254 491l10-3 4 9-1 3-7 1-8-8z"/>
		<path id="Path 254" class="s37" d="m251 490l2-1h2l-1 2-2 2-12 5-4 1v-1l5-5 8-1z"/>
		<path id="Path 255" class="s45" d="m318 497l3-5 8-3 5 2v8l4 8-1 4-6 1-8 1-5-11z"/>
		<path id="Path 256" class="s54" d="m534 493l1-4h5l2 4v2h-6z"/>
		<path id="Path 257" class="s27" d="m708 490l6-1 10 2 5 11-3 5-4 10h-12v-9l5-5-7-6z"/>
		<path id="Path 258" class="s7" d="m854 494v-5h10 12l3 7-6 9h-10l-1-2v-6z"/>
		<path id="Path 259" class="s47" d="m879 496l-3-7h4 8l3 4 3 19-3 3 2 4v5l-7 7-6-1v-7l4-2 2-22z"/>
		<path id="Path 260" class="s26" d="m334 499v-8h2l6 2-1 6z"/>
		<path id="Path 261" class="s26" d="m369 497v-6h4l1 6h-4z"/>
		<path id="Path 262" class="s27" d="m406 499v-8h8l2 6-1 2z"/>
		<path id="Path 263" class="s43" d="m495 494l3-3 16 2 2 12 4 2 2 9v5h-8l-8-1-10-9z"/>
		<path id="Path 264" class="s31" d="m514 493l4-2h4l2 2v14h-4l-4-2z"/>
		<path id="Path 265" class="s20" d="m565 500l1-9h8 4v10z"/>
		<path id="Path 266" class="s55" d="m775 499l2-8h7l3 2-1 6z"/>
		<path id="Path 267" class="s25" d="m812 494l3-3h2l3 3v12l-4 3h-2z"/>
		<path id="Path 268" class="s29" d="m680 499h4l8-7 8 9 2 9-10 1-2 3h-6l-8 7h-2l4-5-1-5z"/>
		<path id="Path 269" class="s66" d="m240 498l12-5 8 8-1 5-1 7-18 2-5-4 1-8z"/>
		<path id="Path 270" class="s55" d="m341 499l1-6h4l7 8h-11z"/>
		<path id="Path 271" class="s55" d="m443 506l-3-13 8 2v12h-4z"/>
		<path id="Path 272" class="s52" d="m524 507v-14h10l2 2v8l-4 2-8 3z"/>
		<path id="Path 273" class="s32" d="m542 495v-2h12l9 7v11l-5 1v5l-7-2v-4l-7-8z"/>
		<path id="Path 274" class="s30" d="m644 500l1-7h3l-2 8z"/>
		<path id="Path 275" class="s23" d="m646 501l2-8h12l-1 12-7 5-6-1z"/>
		<path id="Path 276" class="s27" d="m652 510l7-5 1-12 6 2v11l6 5h5l1 5-4 5-5 4-10-9-7-1z"/>
		<path id="Path 277" class="s30" d="m786 499l1-6h5l6 1 2 1-4 12-10-3z"/>
		<path id="Path 278" class="s34" d="m312 503l-6-4 1-5 11 3v5z"/>
		<path id="Path 279" class="s42" d="m473 507l1-11 4-2h12 5l1 17-2 3h-8-3l-3-5h-7z"/>
		<path id="Path 280" class="s63" d="m611 497l3-3 5 2 3 7-9 6h-5l-1-2z"/>
		<path id="Path 281" class="s64" d="m800 495l12-1 2 15-2 8-2 1h-8l-6-11z"/>
		<path id="Path 282" class="s65" d="m850 507v-11l4-2 8 3v6l-4 1v5z"/>
		<path id="Path 283" class="s54" d="m448 507v-12h5l3 5-2 7z"/>
		<path id="Path 284" class="s21" d="m536 503v-8h6l2 8z"/>
		<path id="Path 285" class="s64" d="m677 511h-5l-6-5v-11h4 8l2 4z"/>
		<path id="Path 286" class="s10" d="m873 505l6-9 7 3-2 22-4 2v7l-4 1h-8v-10l2-10z"/>
		<path id="Path 287" class="s32" d="m267 500l1-3h4l6 6v8h-6v-4l-5-1z"/>
		<path id="Path 288" class="s36" d="m367 501l2-4h1v4z"/>
		<path id="Path 289" class="s53" d="m370 501v-4h4l2 8-2 1z"/>
		<path id="Path 290" class="s28" d="m415 499l1-2h6v6h-6z"/>
		<path id="Path 291" class="s32" d="m599 500l5-3h7l-4 10h-5z"/>
		<path id="Path 292" class="s56" d="m704 501l4-4 7 6-5 5-5-2z"/>
		<path id="Path 293" class="s9" d="m233 500l3-2v1z"/>
		<path id="Path 294" class="s6" d="m236 499l4-1-4 5h-5v-1l2-1z"/>
		<path id="Path 295" class="s37" d="m233 500l3-1-3 2z"/>
		<path id="Path 296" class="s52" d="m338 507l-4-8h7l1 2z"/>
		<path id="Path 297" class="s26" d="m397 521l1-22h8 9l1 4v12h-2l-6 1v5h-6z"/>
		<path id="Path 298" class="s27" d="m771 504v-4l4-1h11v5l-11 2z"/>
		<path id="Path 299" class="s9" d="m231 502l2-2v1z"/>
		<path id="Path 300" class="s6" d="m260 501l7-1v6 1l-8-1z"/>
		<path id="Path 301" class="s23" d="m278 503l5-3 11 2v9l-6 3-6 1-4-4z"/>
		<path id="Path 302" class="s27" d="m454 507l2-7h6l11 7v2 7l-1 2-12 1h-2l-2-4z"/>
		<path id="Path 303" class="s65" d="m563 511v-11h2l13 1 3 1 1 11h-18z"/>
		<path id="Path 304" class="s56" d="m594 508v-6l5-2 3 7z"/>
		<path id="Path 305" class="s58" d="m641 506l-1-4 4-2 2 1v8h-2z"/>
		<path id="Path 306" class="s67" d="m338 507l4-6h11l3 3v5h-8l-6 2h-5z"/>
		<path id="Path 307" class="s44" d="m364 505l3-4h3l4 5v5h-8z"/>
		<path id="Path 308" class="s54" d="m702 510l-2-9h4l1 5 5 2v9 1l-4-1z"/>
		<path id="Path 309" class="s68" d="m215 512l10-9 6-1v1l-7 5-9 6z"/>
		<path id="Path 310" class="s32" d="m312 503l6-1 5 11-9 4-2-9z"/>
		<path id="Path 311" class="s55" d="m726 507l3-5 3 1v4z"/>
		<path id="Path 312" class="s3" d="m896 512l8-10h2l1 1 2 2 3 5v4l-5 11-3 3-2 2-5 3h-1l-10 3v-5l7-7v-5z"/>
		<path id="Path 313" class="s23" d="m224 508l7-5h5l-1 8-3 3 1 7-1 1-4-5h-4z"/>
		<path id="Path 314" class="s31" d="m416 515v-12h6l8 6v5l-4 7h-5v-5z"/>
		<path id="Path 315" class="s42" d="m532 505l4-2h8l7 8v4l-5 1-11-3z"/>
		<path id="Path 316" class="s69" d="m613 509l9-6h6v12 12h-4l-1 4h-9l-5-6v-4l3-2z"/>
		<path id="Path 317" class="s7" d="m628 515v-12h4l9 3 3 3 1 7-2 3-5-4z"/>
		<path id="Path 318" class="s26" d="m732 507v-4l6 1v3h-2z"/>
		<path id="Path 319" class="s70" d="m858 509v-5l4-1 1 2v4z"/>
		<path id="Path 320" class="s71" d="m356 509v-5l8 1 2 6v2h-8z"/>
		<path id="Path 321" class="s11" d="m767 507l4-3 4 2 1 9v2l-8-1z"/>
		<path id="Path 322" class="s6" d="m775 506l11-2 10 3 6 11-2 3h-5l-1-4h-6l-12-2z"/>
		<path id="Path 323" class="s70" d="m524 508l8-3 3 8 11 3 8 14v5h-14l-9-8h-5l-1-11z"/>
		<path id="Path 324" class="s63" d="m822 507l12-2 16 2 8 2h5l7 2-2 10h-9l-2 8h-8l-5-4h-11l-3-8h-8z"/>
		<path id="Path 325" class="s67" d="m863 509v-4h10l-3 6z"/>
		<path id="Path 326" class="s1" d="m912 510l-3-5 3 3z"/>
		<path id="Path 327" class="s53" d="m258 513l1-7 8 1 2 6-2 3-5 2-2 5h-2z"/>
		<path id="Path 328" class="s31" d="m267 507v-1l5 1v4l-3 2z"/>
		<path id="Path 329" class="s51" d="m438 509l5-3 1 1v8 6l-9 2h-5l-4-2 4-7 6 1z"/>
		<path id="Path 330" class="s70" d="m816 509l4-3 2 1v10l-6 2v-2z"/>
		<path id="Path 331" class="s67" d="m444 515v-8h4 6l2 8z"/>
		<path id="Path 332" class="s35" d="m522 516l-2-9h4v1l1 8z"/>
		<path id="Path 333" class="s58" d="m594 508l8-1h5l1 2-4 4v5l5 3v4h-5l-18-2-1-4z"/>
		<path id="Path 334" class="s30" d="m722 517l4-10h6 4v8l-4 3 6 3v2h-10-4z"/>
		<path id="Path 335" class="s10" d="m738 521l-6-3 4-3v-8h2l4 2 1 4h3l4 6v2l-4 2z"/>
		<path id="Path 336" class="s59" d="m746 509l21-2 1 9-15 3h-3l-4-6z"/>
		<path id="Path 337" class="s27" d="m215 514l9-6v9h-2l-12 3v-1z"/>
		<path id="Path 338" class="s53" d="m298 512l2-3 12-1 2 9v2h-5l-5 6h-5l-2-4z"/>
		<path id="Path 339" class="s72" d="m342 511l6-2-1 6h-5z"/>
		<path id="Path 340" class="s73" d="m347 515l1-6h8l2 4h8l14 12v2l-28-6z"/>
		<path id="Path 341" class="s32" d="m430 514v-5h8l-2 6z"/>
		<path id="Path 342" class="s10" d="m473 516v-7h7l3 5-5 2z"/>
		<path id="Path 343" class="s21" d="m609 521l-5-3v-5l4-4h5l-1 10z"/>
		<path id="Path 344" class="s26" d="m645 516l-1-7h2l6 1v5l-2 1z"/>
		<path id="Path 345" class="s74" d="m746 513h-3l-1-4h4z"/>
		<path id="Path 346" class="s67" d="m812 517l2-8h2v8z"/>
		<path id="Path 347" class="s74" d="m690 514l2-3 10-1 4 7 4 1v4l-6 1-13 2z"/>
		<path id="Path 348" class="s33" d="m233 521l-1-7 3-3 5 4 18-2v10l-4 3-12 1v-9z"/>
		<path id="Path 349" class="s30" d="m269 513l3-2h6l4 4v4h-11l-4-3z"/>
		<path id="Path 350" class="s6" d="m288 514l6-3 4 1-1 9-9-2z"/>
		<path id="Path 351" class="s70" d="m331 512l6-1h5v4l-1 2-9 2z"/>
		<path id="Path 352" class="s75" d="m366 513v-2h8l4 7 10 3v4h-8z"/>
		<path id="Path 353" class="s58" d="m494 514l2-3 10 9v4h-5l-7-5z"/>
		<path id="Path 354" class="s76" d="m558 517v-5l5-1 1 2-1 9-5 1z"/>
		<path id="Path 355" class="s0" d="m208 519l1-4 6-3v2l-5 5z"/>
		<path id="Path 356" class="s65" d="m323 513l8-1 1 7v8h-18v-8-2z"/>
		<path id="Path 357" class="s49" d="m893 519l-2-4 3-3h2z"/>
		<path id="Path 358" class="s10" d="m486 514h8v5l-6-1z"/>
		<path id="Path 359" class="s70" d="m558 523l5-1 1-9h18l3 6 1 4-2 10-10 1-16-4z"/>
		<path id="Path 360" class="s11" d="m282 515l6-1v5h-6z"/>
		<path id="Path 361" class="s3" d="m478 516l5-2h3l2 4 6 1 1 6-14 2-3-4z"/>
		<path id="Path 362" class="s59" d="m676 521l8-7h6l1 11-9 2z"/>
		<path id="Path 363" class="s1" d="m907 525l5-11v1z"/>
		<path id="Path 364" class="s60" d="m341 517l1-2h5l5 6-1 5-7-3z"/>
		<path id="Path 365" class="s67" d="m408 521v-5l6-1 2 6h4v6h-2l-4-1-2-5z"/>
		<path id="Path 366" class="s77" d="m420 521h-4l-2-6h2l5 1v5z"/>
		<path id="Path 367" class="s71" d="m444 521v-6h12l2 4-4 2h-4z"/>
		<path id="Path 368" class="s52" d="m546 516l5-1 7 2v6 7h-4z"/>
		<path id="Path 369" class="s74" d="m628 527v-12h10l5 4v6l-2 4z"/>
		<path id="Path 370" class="s25" d="m650 516l2-1 7 1 10 9v2l-20 2-1-4z"/>
		<path id="Path 371" class="s20" d="m776 517v-2l12 2-1 11-4 3h-7z"/>
		<path id="Path 372" class="s15" d="m678 564l6-1-24 4 1-2h1z"/>
		<path id="Path 373" class="s29" d="m260 523l2-5 5-2 4 3h11 6l9 2 2 4h5v4l-5 2-4-4-3 6-14-1-3 4-5 1h-10z"/>
		<path id="Path 374" class="s22" d="m472 518l1-2h5v7h-6z"/>
		<path id="Path 375" class="s67" d="m522 521v-5h3l1 11-4 9-4-1v-7l4-2z"/>
		<path id="Path 376" class="s11" d="m643 519l2-3h5l-2 9h-5z"/>
		<path id="Path 377" class="s42" d="m753 519l15-3 8 1v14h-3-7l-5-1-5-1v-6l-3-2z"/>
		<path id="Path 378" class="s31" d="m210 520l12-3v12l-2 3-7 2-5-1v-10z"/>
		<path id="Path 379" class="s53" d="m222 529v-12h2 4l4 5-1 4-3 3z"/>
		<path id="Path 380" class="s78" d="m332 519l9-2 3 6-6 7v5l6 2v8l2 5-6 4-6-5-3-6v-4l1-12z"/>
		<path id="Path 381" class="s21" d="m710 518v-1h12l2 6-13 1-1-2z"/>
		<path id="Path 382" class="s69" d="m783 531l4-3 1-11h6l1 4-1 6 4 2-4 4h-8z"/>
		<path id="Path 383" class="s24" d="m810 518l2-1h4v2 8h-5l-1-2z"/>
		<path id="Path 384" class="s54" d="m816 519l6-2h8l3 8-2 4h-3-6l-6-2z"/>
		<path id="Path 385" class="s64" d="m233 521l9-3v9l-2 1-9-2 1-4z"/>
		<path id="Path 386" class="s11" d="m460 519l12-1v5l-4 6h-4l-4-2z"/>
		<path id="Path 387" class="s75" d="m800 521l2-3h8v7l-8 2z"/>
		<path id="Path 388" class="s37" d="m206 522l2-3h2v1l-2 3h-1z"/>
		<path id="Path 389" class="s63" d="m304 525l5-6h5v8l-2 2h-8z"/>
		<path id="Path 390" class="s7" d="m454 521l4-2h2v8h-6z"/>
		<path id="Path 391" class="s17" d="m495 525l-1-6 7 5v3z"/>
		<path id="Path 392" class="s76" d="m750 521v-2h3v2z"/>
		<path id="Path 393" class="s26" d="m506 524v-4l8 1v6h-2z"/>
		<path id="Path 394" class="s79" d="m351 526l1-5 28 6v4 5l-20 4-4-6h-4z"/>
		<path id="Path 395" class="s52" d="m388 525v-4h9 5l-3 8h-2-6z"/>
		<path id="Path 396" class="s80" d="m399 529l3-8h6 4l2 5z"/>
		<path id="Path 397" class="s46" d="m420 527v-6h1 5l4 2v4h-8z"/>
		<path id="Path 398" class="s80" d="m435 523l9-2h6v6l-2 2h-12l-1-2z"/>
		<path id="Path 399" class="s72" d="m450 527v-6h4v6z"/>
		<path id="Path 400" class="s51" d="m514 527v-6h8v5l-4 2z"/>
		<path id="Path 401" class="s42" d="m669 525l5-4h2l6 6v10h-4v-3l-9-7z"/>
		<path id="Path 402" class="s21" d="m738 523v-2l8 2 1 6-9 2z"/>
		<path id="Path 403" class="s52" d="m746 523l4-2h3l3 2v6h-9z"/>
		<path id="Path 404" class="s76" d="m798 529l-4-2 1-6h5l2 6v2z"/>
		<path id="Path 405" class="s29" d="m857 529l2-8h9v10h-4z"/>
		<path id="Path 406" class="s68" d="m197 532l9-10 1 1-6 8-2 3-3 1v-2z"/>
		<path id="Path 407" class="s52" d="m704 523l6-1 1 2-3 7h-4z"/>
		<path id="Path 408" class="s23" d="m201 531l6-8h1v10h-3z"/>
		<path id="Path 409" class="s21" d="m254 526l4-3h2v14l-1 5-4 2v-5z"/>
		<path id="Path 410" class="s81" d="m344 537l-6-2v-5l6-7 7 3 1 8-2 3z"/>
		<path id="Path 411" class="s42" d="m430 527v-4h5v4z"/>
		<path id="Path 412" class="s74" d="m464 529h4l4-6h6l3 4-11 6h-6z"/>
		<path id="Path 413" class="s40" d="m584 533l2-10 18 2v10l-4 4h-12z"/>
		<path id="Path 414" class="s76" d="m691 525l13-2v8l1 4-1 4h-6-12l-4-2v-10z"/>
		<path id="Path 415" class="s40" d="m711 524l13-1h4v11 1h-12-8v-4z"/>
		<path id="Path 416" class="s75" d="m728 534v-11h10v8z"/>
		<path id="Path 417" class="s21" d="m501 527v-3h5l6 3v6h-5z"/>
		<path id="Path 418" class="s70" d="m380 527v-2h8l3 4-3 2h-8z"/>
		<path id="Path 419" class="s81" d="m481 527l14-2 6 2 6 6 1 5-6 8-4 1-4 9h-2-10l-12-1-16 1-16-1h-28-5l-11-1h-8l-4-1 2-7 10-1h20l42 1h11l3-3v-10z"/>
		<path id="Path 420" class="s52" d="m604 535v-10h5l5 6v4z"/>
		<path id="Path 421" class="s63" d="m641 529l2-4h5l1 4v4h-7z"/>
		<path id="Path 422" class="s17" d="m802 527l8-2 1 2-3 4-6-2z"/>
		<path id="Path 423" class="s7" d="m831 529l2-4h11l5 4-1 2h-4-4z"/>
		<path id="Path 424" class="s11" d="m228 529l3-3 9 2 3 13h-4l-11-6z"/>
		<path id="Path 425" class="s53" d="m242 527l12-1 1 13h-8l-2 5-2-3-3-13z"/>
		<path id="Path 426" class="s82" d="m399 529l15-3 4 1v4l-3 2-1 12h-20v-10l3-6z"/>
		<path id="Path 427" class="s83" d="m292 533l3-6 4 4 1 8h-6z"/>
		<path id="Path 428" class="s73" d="m312 529l2-2h18l-1 12h-8l-4-5-7-1z"/>
		<path id="Path 429" class="s62" d="m418 531v-4h2 2v4z"/>
		<path id="Path 430" class="s59" d="m422 531v-4h8 5l1 2z"/>
		<path id="Path 431" class="s84" d="m448 529l2-2h4 6l4 2v4l-2 4h-6-4z"/>
		<path id="Path 432" class="s76" d="m512 533v-6h2l4 1v7h-2z"/>
		<path id="Path 433" class="s57" d="m522 536l4-9h5l9 8h14l2 8-34-2z"/>
		<path id="Path 434" class="s20" d="m623 531l1-4h4l13 2 1 4-2 2-15-1z"/>
		<path id="Path 435" class="s52" d="m649 529l20-2 9 7v3 10h-12-6l-11-10v-4z"/>
		<path id="Path 436" class="s22" d="m808 531l3-4h5l6 2v6l-8 1-6-1z"/>
		<path id="Path 437" class="s20" d="m220 532l2-3h6v6h-8z"/>
		<path id="Path 438" class="s59" d="m299 531l5-2h8v4l-2 6-8 1-2-1z"/>
		<path id="Path 439" class="s62" d="m388 531l3-2h6l-3 6h-6z"/>
		<path id="Path 440" class="s78" d="m422 531l14-2h12l4 8h4v9l-42-1 1-12 3-2z"/>
		<path id="Path 441" class="s48" d="m738 531l9-2v1 1l-5 1-3 1-11 3v-1-1z"/>
		<path id="Path 442" class="s39" d="m747 530v-1h9l5 1z"/>
		<path id="Path 443" class="s3" d="m794 533l4-4h4l6 2v4h-5l-7-1z"/>
		<path id="Path 444" class="s50" d="m822 535v-6h6v6l-5 1z"/>
		<path id="Path 445" class="s85" d="m828 535v-6h3l9 2v4z"/>
		<path id="Path 446" class="s4" d="m848 531l1-2h8l7 2v6h-2l-14-1z"/>
		<path id="Path 447" class="s65" d="m554 535v-5h4l16 4v7l-5 1-3 5h-8l-2-4z"/>
		<path id="Path 448" class="s9" d="m766 532l-5-2 5 1z"/>
		<path id="Path 449" class="s4" d="m876 531l4-1 6 1v5l-10 1z"/>
		<path id="Path 450" class="s53" d="m199 534l2-3 4 2v5l-7 3z"/>
		<path id="Path 451" class="s82" d="m380 536v-5h8v4z"/>
		<path id="Path 452" class="s76" d="m614 535v-4h9l2 3 15 1v14l-2 6h-13l-2-9-9-1z"/>
		<path id="Path 453" class="s46" d="m705 535l-1-4h4v4z"/>
		<path id="Path 454" class="s86" d="m766 532v-1h7v1z"/>
		<path id="Path 455" class="s68" d="m773 532v-1h3 7l3 2z"/>
		<path id="Path 456" class="s4" d="m840 535v-4h4v4z"/>
		<path id="Path 457" class="s87" d="m844 535v-4h4v5h-3z"/>
		<path id="Path 458" class="s3" d="m864 537v-6h4 8v6z"/>
		<path id="Path 459" class="s1" d="m196 532h1v1h-1z"/>
		<path id="Path 460" class="s67" d="m213 534l7-2v3l-4 7-4-1v-4z"/>
		<path id="Path 461" class="s84" d="m275 536l3-4 14 1 2 6h6l2 1v5 2h-8l-6-4-12 1z"/>
		<path id="Path 462" class="s45" d="m205 538v-5h3l5 1-1 3z"/>
		<path id="Path 463" class="s88" d="m310 539l2-6 7 1 4 5v2h-11z"/>
		<path id="Path 464" class="s83" d="m456 537h6l2-4h6v10l-3 3h-11z"/>
		<path id="Path 465" class="s89" d="m508 538l-1-5h5l4 2v6h-6z"/>
		<path id="Path 466" class="s67" d="m574 534l10-1 4 6-2 2h-6-6z"/>
		<path id="Path 467" class="s42" d="m640 535l2-2h7v4l11 10-20 2z"/>
		<path id="Path 468" class="s12" d="m728 536l11-3-4 4-9 1z"/>
		<path id="Path 469" class="s0" d="m796 535l-10-2h8l2 1z"/>
		<path id="Path 470" class="s15" d="m886 536l10-3-10 5h-24v-1h2 12z"/>
		<path id="Path 471" class="s48" d="m196 535l3-1-1 7v2h-2z"/>
		<path id="Path 472" class="s82" d="m350 537l2-3h4l4 6v9l-9-1-1-3z"/>
		<path id="Path 473" class="s15" d="m796 535v-1l7 1z"/>
		<path id="Path 474" class="s80" d="m216 542l4-7h8l11 6-1 12-4 2 1 6-8-2-8-1-5-2v-9z"/>
		<path id="Path 475" class="s78" d="m380 536l8-1h6v10l-10 1-2 7h-6l-14-2-2-2v-9z"/>
		<path id="Path 476" class="s88" d="m516 541v-6h2l4 1v5z"/>
		<path id="Path 477" class="s46" d="m588 539h12l4-4h10v10l-2 8-16-1-10-5v-6z"/>
		<path id="Path 478" class="s29" d="m704 539l1-4h3 8v7l-1 2-10-1z"/>
		<path id="Path 479" class="s10" d="m716 542v-7h12v1l-2 2-3 3z"/>
		<path id="Path 480" class="s15" d="m814 537l-11-2h5l6 1z"/>
		<path id="Path 481" class="s5" d="m814 536l8-1 1 1v1h-9z"/>
		<path id="Path 482" class="s12" d="m823 536l5-1h12 4l1 1v1h-22z"/>
		<path id="Path 483" class="s60" d="m270 537l5-1 1 8-6 1z"/>
		<path id="Path 484" class="s18" d="m845 537v-1h3l14 1v1z"/>
		<path id="Path 485" class="s76" d="m205 538l7-1v4l-4 4-8 2h-2v-1-3-2z"/>
		<path id="Path 486" class="s59" d="m259 542l1-5h10v8h-2-8z"/>
		<path id="Path 487" class="s84" d="m344 545v-8h6v8z"/>
		<path id="Path 488" class="s71" d="m678 547v-10h4l4 2v6z"/>
		<path id="Path 489" class="s79" d="m502 546l6-8 2 3h6 6l34 2 2 4v14h-16-2l-1-11-12-1-1 4h-5l-2-3-14-1z"/>
		<path id="Path 490" class="s1" d="m723 541l3-3-3 5z"/>
		<path id="Path 491" class="s61" d="m245 544l2-5h8v5 2l-9 1z"/>
		<path id="Path 492" class="s57" d="m302 540l8-1 2 2v4h-10z"/>
		<path id="Path 493" class="s79" d="m323 541v-2h8v4h-7z"/>
		<path id="Path 494" class="s89" d="m686 545v-6h12v6z"/>
		<path id="Path 495" class="s65" d="m698 545v-6h6l1 4-5 3z"/>
		<path id="Path 496" class="s72" d="m208 545l4-4 4 1-2 5z"/>
		<path id="Path 497" class="s89" d="m235 561l-1-6 4-2 1-12h4l2 3 1 3v8l4 2v5 1h-6z"/>
		<path id="Path 498" class="s82" d="m312 545v-4h11l1 2v4z"/>
		<path id="Path 499" class="s89" d="m566 547l3-5 5-1h6v6l-12 4h-2z"/>
		<path id="Path 500" class="s71" d="m580 547v-6h6v6z"/>
		<path id="Path 501" class="s14" d="m716 542l7-1v2l-1 2-3 3h-1l-3-4z"/>
		<path id="Path 502" class="s80" d="m255 544l4-2 1 3h8v7l4 3v4l-10-1-7-12z"/>
		<path id="Path 503" class="s68" d="m196 545v-2h2v3z"/>
		<path id="Path 504" class="s62" d="m276 544l12-1 6 4v12h-8-6l-1-3-7-1-4-3v-7h2z"/>
		<path id="Path 505" class="s62" d="m324 547v-4h7l3 6h-10z"/>
		<path id="Path 506" class="s4" d="m700 546l5-3 10 1 3 4-1 2-3 3-8 4v-6l-6-2z"/>
		<path id="Path 507" class="s9" d="m196 547v-2l2 1v1z"/>
		<path id="Path 508" class="s10" d="m200 547l8-2 6 2v9h-1l-7-3-5-3z"/>
		<path id="Path 509" class="s60" d="m302 547v-2h10l12 2v2 6h-4l-18-2z"/>
		<path id="Path 510" class="s79" d="m346 550l-2-5h6l1 3z"/>
		<path id="Path 511" class="s71" d="m612 553l2-8 9 1 2 9-1 2h-2l-10-2z"/>
		<path id="Path 512" class="s69" d="m678 547l8-2h12l2 1v3l-22 2z"/>
		<path id="Path 513" class="s51" d="m246 547l9-1 7 12v6h-4l-8-2v-5l-4-2z"/>
		<path id="Path 514" class="s78" d="m494 556l4-9 4-1 3 3 14 1 2 3-1 4h-7-7z"/>
		<path id="Path 515" class="s9" d="m201 550l-3-3h2z"/>
		<path id="Path 516" class="s59" d="m294 559v-12h8v6l-2 5-4 1z"/>
		<path id="Path 517" class="s80" d="m558 561v-14h8v4l-4 2v8z"/>
		<path id="Path 518" class="s65" d="m568 551l12-4h6l10 5v9l-6-1-8-1-12 2h-2z"/>
		<path id="Path 519" class="s29" d="m640 549l20-2h6v4l-9 1-5 8-14-1v-4z"/>
		<path id="Path 520" class="s70" d="m666 551v-4h12v4 1h-12z"/>
		<path id="Path 521" class="s73" d="m346 550l5-2 9 1 2 2 2 12-1 1-24 1-1-10 2-1z"/>
		<path id="Path 522" class="s9" d="m717 550l1-2h1z"/>
		<path id="Path 523" class="s84" d="m324 555v-6h10l6 5-2 1-11 3z"/>
		<path id="Path 524" class="s82" d="m526 553l1-4 12 1 1 11h-12z"/>
		<path id="Path 525" class="s87" d="m678 551l22-2 6 2v6l-4 2-3 1-6 3h-9l-6 1v-5-7z"/>
		<path id="Path 526" class="s88" d="m364 563l-2-12 14 2v6l-4 5-4-1h-1z"/>
		<path id="Path 527" class="s70" d="m562 561v-8l4-2h2v10z"/>
		<path id="Path 528" class="s22" d="m652 560l5-8 9-1v1 6l-4 3z"/>
		<path id="Path 529" class="s63" d="m596 561v-9l16 1v2l-4 1-1 5h-1-9z"/>
		<path id="Path 530" class="s14" d="m666 558v-6h12v7z"/>
		<path id="Path 531" class="s15" d="m213 557l-7-4 7 3z"/>
		<path id="Path 532" class="s65" d="m300 558l2-5 18 2 1 4h6l1 8h-5-16-1v-6z"/>
		<path id="Path 533" class="s82" d="m376 559v-6h6l4 1v5z"/>
		<path id="Path 534" class="s60" d="m520 557l1-4h5l2 8h-8v-2z"/>
		<path id="Path 535" class="s80" d="m386 559v-5h8v5z"/>
		<path id="Path 536" class="s57" d="m394 559v-5l11 1-3 6z"/>
		<path id="Path 537" class="s73" d="m272 559v-4l7 1 1 3-4 1z"/>
		<path id="Path 538" class="s59" d="m327 559h-6l-1-4h4l3 3z"/>
		<path id="Path 539" class="s70" d="m327 558l11-3 1 10-5 3h-5l-1-1-1-8z"/>
		<path id="Path 540" class="s71" d="m402 561l3-6h5v8z"/>
		<path id="Path 541" class="s67" d="m410 563v-8h28v8l-4 1v4h-2l-8-1z"/>
		<path id="Path 542" class="s71" d="m438 563v-8l16 1v7l-1 2h-5-9z"/>
		<path id="Path 543" class="s76" d="m454 556l16-1v8h-16z"/>
		<path id="Path 544" class="s67" d="m470 563v-8l12 1v8l-9 3z"/>
		<path id="Path 545" class="s63" d="m482 556h10l1 6-6 1-5 1z"/>
		<path id="Path 546" class="s85" d="m607 561l1-5 4-1 10 2-2 7h-2l-5-1z"/>
		<path id="Path 547" class="s10" d="m624 557l1-2h13v4z"/>
		<path id="Path 548" class="s12" d="m213 557v-1h1l5 2z"/>
		<path id="Path 549" class="s80" d="m493 562l-1-6h2l12 1v2l-4 1-8 2z"/>
		<path id="Path 550" class="s65" d="m506 559v-2h7v2z"/>
		<path id="Path 551" class="s70" d="m513 559v-2h7v2z"/>
		<path id="Path 552" class="s87" d="m620 564l2-7h2l14 2 14 1 10 1v4h-1-8l-7 1z"/>
		<path id="Path 553" class="s9" d="m227 560l-8-2 8 1z"/>
		<path id="Path 554" class="s77" d="m262 564v-6l10 1 4 1v5h-5z"/>
		<path id="Path 555" class="s67" d="m296 559l4-1 6 3v6l-10-1v-1z"/>
		<path id="Path 556" class="s3" d="m662 561l4-3 12 1v5l-16 1z"/>
		<path id="Path 557" class="s86" d="m227 560v-1l8 2 9 2z"/>
		<path id="Path 558" class="s71" d="m276 560l4-1h6v6h-10z"/>
		<path id="Path 559" class="s65" d="m286 565v-6h8 2v6h-9z"/>
		<path id="Path 560" class="s84" d="m372 564l4-5h10 8l8 2 8 2 14 4v5l-3 7-3 6h-18l-2 3-17-15-3-3z"/>
		<path id="Path 561" class="s39" d="m502 560l4-1h7 7v2z"/>
		<path id="Path 562" class="s90" d="m570 561l12-2v1 1z"/>
		<path id="Path 563" class="s91" d="m582 560v-1l8 1h-1z"/>
		<path id="Path 564" class="s9" d="m597 562l-8-2h1l6 1h1z"/>
		<path id="Path 565" class="s9" d="m542 562l-22-1h8 12 2z"/>
		<path id="Path 566" class="s86" d="m542 562v-1h16 4 6 2 12z"/>
		<path id="Path 567" class="s86" d="m597 562v-1h9v1z"/>
		<path id="Path 568" class="s5" d="m606 562v-1h1l6 2z"/>
		<path id="Path 569" class="s37" d="m250 563v-1l8 2v1z"/>
		<path id="Path 570" class="s0" d="m363 564l1-1h3l-4 2z"/>
		<path id="Path 571" class="s5" d="m378 570h-4l-6-7 4 1z"/>
		<path id="Path 572" class="s76" d="m434 568v-4l4-1 1 2-4 3z"/>
		<path id="Path 573" class="s20" d="m453 565l1-2h16l3 4v1l-6 2-11 1z"/>
		<path id="Path 574" class="s5" d="m482 564l5-1-3 4-11 1v-1z"/>
		<path id="Path 575" class="s5" d="m618 565l-5-2 5 1z"/>
		<path id="Path 576" class="s12" d="m258 565v-1h4l9 1 1 2z"/>
		<path id="Path 577" class="s92" d="m339 565l24-1v1l-29 3z"/>
		<path id="Path 578" class="s15" d="m618 565v-1h2l26 2v1z"/>
		<path id="Path 579" class="s41" d="m272 567l-1-2h5 10 1v2z"/>
		<path id="Path 580" class="s93" d="m287 567v-2h9v1 1z"/>
		<path id="Path 581" class="s24" d="m435 568l4-3h9v8h-2l-3 2-6-2z"/>
		<path id="Path 582" class="s63" d="m448 573v-8h5l3 6-4 2z"/>
		<path id="Path 583" class="s12" d="m646 566l7-1 1 2h-8z"/>
		<path id="Path 584" class="s5" d="m654 567l-1-2h8l-1 2z"/>
		<path id="Path 585" class="s18" d="m296 567v-1l10 1h1v1z"/>
		<path id="Path 586" class="s12" d="m307 568v-1h16v1z"/>
		<path id="Path 587" class="s39" d="m323 568v-1h5l1 1z"/>
		<path id="Path 588" class="s22" d="m424 572v-5l8 1v7z"/>
		<path id="Path 589" class="s8" d="m432 575v-7h2 1l2 5 6 2v2h-7z"/>
		<path id="Path 590" class="s86" d="m456 571l11-1-15 3z"/>
		<path id="Path 591" class="s81" d="m421 579l3-7 8 3 4 2v4z"/>
		<path id="Path 592" class="s94" d="m443 575l3-2 2 4v2l-5-2z"/>
		<path id="Path 593" class="s14" d="m436 581v-4h7l5 2 6 6-4 4-14-2z"/>
		<path id="Path 594" class="s2" d="m448 579v-2l14 10-8-2z"/>
		<path id="Path 595" class="s83" d="m418 585l3-6 15 2v6l-4 4-12-2z"/>
		<path id="Path 596" class="s81" d="m398 588l2-3h18l2 4 12 2 1 5 5 3h12l9 8h15l6 2 2 4h7l4 3v2l-1 1-2 2h-15l-14-3h-3l-17-5-3-1-5-2-6-2-4-3-5-2-5-3-5-3-5-3z"/>
		<path id="Path 597" class="s3" d="m450 589l4-4 8 2 5 3 2 2 3 3 2 2 4 2-4 8h-15l-9-8z"/>
		<path id="Path 598" class="s4" d="m432 591l4-4 14 2v10h-12l-5-3z"/>
		<path id="Path 599" class="s14" d="m474 607l4-8 1 1 1 1v8z"/>
		<path id="Path 600" class="s1" d="m480 601l-1-1 5 2z"/>
		<path id="Path 601" class="s16" d="m480 609v-8l4 1h3l5 2 1 3-4 6h-7z"/>
		<path id="Path 602" class="s1" d="m492 604l-5-2 6 2z"/>
		<path id="Path 603" class="s90" d="m493 607l-1-3h1l4 3z"/>
		<path id="Path 604" class="s3" d="m489 613l4-6h4l1 6-1 1-4 2z"/>
		<path id="Path 605" class="s15" d="m458 618l-13-1-4-4z"/>
		<path id="Path 606" class="s1" d="m493 616l4-2-4 4z"/>
		<path id="Path 607" class="s1" d="m475 622v-1h15v1z"/>
	</g>
</svg>