<svg version="1.2" xmlns="http://www.w3.org/2000/svg" viewBox="0 0 1000 1000" width="1000" height="1000">
	<title>Petromyzon_marinus</title>
	<style>
		.s0 { opacity: .2;fill: #d9cdbb } 
		.s1 { fill: #5c473e } 
		.s2 { opacity: .5;fill: #c0b7b1 } 
		.s3 { opacity: .3;fill: #cbbfb5 } 
		.s4 { opacity: .7;fill: #bfb4ab } 
		.s5 { opacity: 1;fill: #94817b } 
		.s6 { fill: #57443b } 
		.s7 { fill: #604e47 } 
		.s8 { fill: #614c43 } 
		.s9 { fill: #53433d } 
		.s10 { opacity: 1;fill: #4e3f38 } 
		.s11 { fill: #5a4841 } 
		.s12 { opacity: 1;fill: #4a3c35 } 
		.s13 { opacity: 1;fill: #473931 } 
		.s14 { opacity: .8;fill: #beb1a8 } 
		.s15 { opacity: 1;fill: #a79c99 } 
		.s16 { fill: #69534a } 
		.s17 { opacity: .2;fill: #cac0b8 } 
		.s18 { fill: #634c41 } 
		.s19 { opacity: 1;fill: #6a564e } 
		.s20 { fill: #c9a77a } 
		.s21 { fill: #695043 } 
		.s22 { opacity: 1;fill: #d0bca0 } 
		.s23 { fill: #72584e } 
		.s24 { fill: #b38c75 } 
		.s25 { opacity: 1;fill: #9c928d } 
		.s26 { opacity: 1;fill: #b4a086 } 
		.s27 { fill: #ab8a78 } 
		.s28 { opacity: .6;fill: #c4b9ad } 
		.s29 { fill: #856757 } 
		.s30 { fill: #735748 } 
		.s31 { opacity: 1;fill: #b9a38f } 
		.s32 { fill: #ba957b } 
		.s33 { fill: #806252 } 
		.s34 { fill: #8d6d58 } 
		.s35 { fill: #d2b17e } 
		.s36 { fill: #785c50 } 
		.s37 { opacity: 1;fill: #a58474 } 
		.s38 { fill: #bf986f } 
		.s39 { fill: #9e7960 } 
		.s40 { fill: #8d614f } 
		.s41 { fill: #996953 } 
		.s42 { fill: #87654f } 
		.s43 { fill: #d6b889 } 
		.s44 { fill: #76615d } 
		.s45 { fill: #b08766 } 
		.s46 { fill: #a78169 } 
		.s47 { opacity: 1;fill: #c0a287 } 
		.s48 { opacity: 1;fill: #ac9781 } 
		.s49 { fill: #a27d64 } 
		.s50 { fill: #a2765a } 
		.s51 { fill: #7c5a4a } 
		.s52 { fill: #ab856f } 
		.s53 { fill: #98745a } 
		.s54 { opacity: 1;fill: #c3b7aa } 
		.s55 { fill: #8a6f66 } 
		.s56 { fill: #a1806e } 
		.s57 { fill: #987660 } 
		.s58 { opacity: 1;fill: #c9b293 } 
		.s59 { fill: #9d7a67 } 
		.s60 { fill: #b78e6b } 
		.s61 { fill: #80604b } 
		.s62 { fill: #906f60 } 
		.s63 { fill: #926146 } 
		.s64 { fill: #8f705f } 
		.s65 { fill: #805d46 } 
		.s66 { fill: #b2917d } 
		.s67 { opacity: .5;fill: #cec1b1 } 
		.s68 { fill: #927468 } 
		.s69 { fill: #8f766c } 
		.s70 { fill: #715444 } 
		.s71 { fill: #87736d } 
		.s72 { fill: #896a4c } 
		.s73 { fill: #987b6c } 
		.s74 { fill: #d5c6b0 } 
		.s75 { fill: #ddd2bd } 
		.s76 { fill: #584336 } 
		.s77 { opacity: 1;fill: #ccbdab } 
		.s78 { fill: #a87f60 } 
		.s79 { fill: #947252 } 
		.s80 { opacity: 1;fill: #b0a292 } 
		.s81 { opacity: 1;fill: #c0b19f } 
		.s82 { fill: #5e483a } 
		.s83 { opacity: 1;fill: #7a6367 } 
		.s84 { fill: #87593e } 
		.s85 { fill: #664c3c } 
		.s86 { fill: #826d6b } 
		.s87 { fill: #775137 } 
		.s88 { fill: #8e755d } 
		.s89 { opacity: 1;fill: #beaa97 } 
		.s90 { opacity: 1;fill: #a38c7e } 
		.s91 { opacity: 1;fill: #8d7972 } 
		.s92 { opacity: 1;fill: #9c8174 } 
	</style>
	<g id="Background">
		<path id="Path 0" class="s0" d="m251 441v-1h17v1z"/>
		<path id="Path 1" class="s1" d="m564 472h1v1h-1z"/>
		<path id="Path 2" class="s2" d="m235 442l5-1-2 1z"/>
		<path id="Path 3" class="s1" d="m238 442l2-1h11 17 3v1l-4 4v5l8 2 8-5v-6h8 2l10 1h5l7 1h2v6l-12 1v6l8 6v4l1 9-1 2-8-4-3-6h-7l-15-6h-9l-5 5h-4l-3-5h-6l-3-6h-6l-3 3v11h-10l-3-3h-10l-3-7 1-15 3-2h1 14z"/>
		<path id="Path 4" class="s2" d="m271 442v-1h10v1z"/>
		<path id="Path 5" class="s3" d="m281 442v-1l10 1h-8z"/>
		<path id="Path 6" class="s4" d="m220 443l14-1v1z"/>
		<path id="Path 7" class="s5" d="m234 443v-1h1 3z"/>
		<path id="Path 8" class="s6" d="m283 442v6l-8 5-8-2v-5l4-4h10z"/>
		<path id="Path 9" class="s2" d="m212 444l4-1v1z"/>
		<path id="Path 10" class="s7" d="m216 444v-1h3l-3 2z"/>
		<path id="Path 11" class="s2" d="m205 445l5-1-3 1z"/>
		<path id="Path 12" class="s8" d="m207 445l3-1h2 4v1l-1 15 3 7-6 2-3 5-3-1-5-5v-14l6-2z"/>
		<path id="Path 13" class="s9" d="m317 450v-6h8l2 1v13h-8z"/>
		<path id="Path 14" class="s2" d="m327 445l-2-1 11 1z"/>
		<path id="Path 15" class="s2" d="m196 446l6-1-1 1z"/>
		<path id="Path 16" class="s1" d="m201 446l1-1h3 2v7l-6 2z"/>
		<path id="Path 17" class="s10" d="m327 458v-13h9l1 1 5 12 12 10h7 2v7l-8 5-11-3-2-3h-6l-2-10z"/>
		<path id="Path 18" class="s2" d="m337 446l-1-1 11 1h-2z"/>
		<path id="Path 19" class="s11" d="m187 447l5-1h4 5v8 14l-18 1-2-3h-6v-11l-4-5z"/>
		<path id="Path 20" class="s12" d="m361 468h-7l-12-10-5-12h8v5l16 13z"/>
		<path id="Path 21" class="s13" d="m361 468v-4l-16-13v-5h2l20 3 10 2-4 8 1 7v2h-11z"/>
		<path id="Path 22" class="s14" d="m367 449l-20-3 20 1v1z"/>
		<path id="Path 23" class="s3" d="m367 448v-1l4 1z"/>
		<path id="Path 24" class="s15" d="m367 449v-1h4 8l7 1 15 1v1h-24z"/>
		<path id="Path 25" class="s8" d="m156 452l15-2 4 5v11l-20-2z"/>
		<path id="Path 26" class="s6" d="m313 467v-4l-8-6v-6l12-1 2 8v9z"/>
		<path id="Path 27" class="s2" d="m401 451v-1l6 2z"/>
		<path id="Path 28" class="s12" d="m374 466l-1-7 4-8h24l6 1h8l1 1v4l-6 6-14 1-5 8h-6l-2-5z"/>
		<path id="Path 29" class="s16" d="m139 458l17-6-1 12-5 2-11-2z"/>
		<path id="Path 30" class="s17" d="m416 453l-1-1 3 1z"/>
		<path id="Path 31" class="s10" d="m391 472l5-8 14-1 6-6v-4h2 1l4 1 23 4 44 8 1 2v10l-6 6-14 2h-12l-3-6h-5v-8l-5-4-40 2-3 6h-12z"/>
		<path id="Path 32" class="s18" d="m241 470v-11l3-3h6l3 6v9l-11 3z"/>
		<path id="Path 33" class="s19" d="m107 468l32-10v6l-19 8-2 14h-10l-1 4-6-1v-2-5l2-12z"/>
		<path id="Path 34" class="s11" d="m319 467v-9h8l7 6 2 10-4 8h-5l-6-6z"/>
		<path id="Path 35" class="s20" d="m740 464l8-4 11 2v6l-10 2h-8z"/>
		<path id="Path 36" class="s21" d="m253 471v-9h6l3 5h4l5-5h9l15 6-2 8h-1l-14 1-14 2-8-3z"/>
		<path id="Path 37" class="s22" d="m759 468v-6l16 6 3 4-7 3-7-7z"/>
		<path id="Path 38" class="s23" d="m118 486l2-14 19-8 11 2 5-2 20 2h6l2 3v14l-6 1-9-2-2-8h-11l-25-2-6 4-2 9z"/>
		<path id="Path 39" class="s24" d="m729 468l11-4 1 6-1 6h-9z"/>
		<path id="Path 40" class="s25" d="m934 482l15-14 9-4h11l9 8v1l-15-8-17 9-11 10h-1z"/>
		<path id="Path 41" class="s10" d="m946 474l17-9v13l5 7h6l2 3 10-1 1 10v1 4l-5 3-6-6h-7l-6-11h-14z"/>
		<path id="Path 42" class="s12" d="m986 487l-10 1-2-3h-6l-5-7v-13l15 8 2 1 6 2 2 3v3z"/>
		<path id="Path 43" class="s10" d="m374 468v-2l9 1 2 5h-10z"/>
		<path id="Path 44" class="s2" d="m491 468l-1-2 7 2z"/>
		<path id="Path 45" class="s2" d="m590 467l3-1-2 1z"/>
		<path id="Path 46" class="s26" d="m591 467l2-1h4v4h-6z"/>
		<path id="Path 47" class="s27" d="m597 470v-4h16l4 1v7h-7l-3 3z"/>
		<path id="Path 48" class="s28" d="m617 467l-4-1 5 1z"/>
		<path id="Path 49" class="s29" d="m209 474l3-5 6-2h10l3 3v5l6 5v6l-4 2v4h-8l-8-2v-4l-6-2-2-2z"/>
		<path id="Path 50" class="s30" d="m314 476l-1-9h6l2 9z"/>
		<path id="Path 51" class="s31" d="m585 468l5-1h1v3 3l-6 1z"/>
		<path id="Path 52" class="s32" d="m617 474v-7h1l9 3-2 4z"/>
		<path id="Path 53" class="s5" d="m100 470l7-2-4 2z"/>
		<path id="Path 54" class="s33" d="m183 469l18-1 5 5-1 9-2 3-20-2z"/>
		<path id="Path 55" class="s34" d="m293 476l2-8h7l3 6z"/>
		<path id="Path 56" class="s6" d="m363 475v-7h11l1 4h10v4 10l-15-1-1-8z"/>
		<path id="Path 57" class="s9" d="m403 476l3-6 40-2 5 4v8l-8 3v5h-7l-2 3h-4l-2 5h-7l-6-1-1-7-11-7z"/>
		<path id="Path 58" class="s9" d="m491 478v-10h6 4l4 1 11 2 7 1h3l1 1v7l-8 6h-16l-5-7z"/>
		<path id="Path 59" class="s26" d="m565 472l20-4v6l-1 2-20-3z"/>
		<path id="Path 60" class="s27" d="m718 474l11-6 2 8-2 2h-10z"/>
		<path id="Path 61" class="s35" d="m749 470l10-2h5l7 7v9h-14l-3-2-1-4h-4z"/>
		<path id="Path 62" class="s28" d="m91 472l7-2-3 2z"/>
		<path id="Path 63" class="s36" d="m95 472l3-2h2 3l-2 12-4-1z"/>
		<path id="Path 64" class="s33" d="m237 480l-6-5v-5h10l1 4-1 6z"/>
		<path id="Path 65" class="s37" d="m591 473v-3h6l10 7v10l-6 1-1-4h-5v-2l3-6z"/>
		<path id="Path 66" class="s24" d="m625 474l2-4 14 4 1 8 9 5 1 5-2 3-4-4-9 2-5-9h-5z"/>
		<path id="Path 67" class="s38" d="m740 476l1-6h8v8 3l-8-1z"/>
		<path id="Path 68" class="s39" d="m79 476l-1-3 8-1z"/>
		<path id="Path 69" class="s40" d="m242 474l11-3 3 5 8 3-3 3h-3l-2-2-13 2-2-2z"/>
		<path id="Path 70" class="s41" d="m79 476l7-4h5l-4 18h-8-2l-2-12 2-2z"/>
		<path id="Path 71" class="s42" d="m87 490l4-18h4l2 9-1 4 5 2v2l-4 3z"/>
		<path id="Path 72" class="s36" d="m118 486l4-1 2-9 6-4 25 2v14h-10l-2-2-6 2-9 1-3 11-7 2-1-4z"/>
		<path id="Path 73" class="s1" d="m385 476v-4h6v4z"/>
		<path id="Path 74" class="s3" d="m527 473l-1-1 3 1z"/>
		<path id="Path 75" class="s43" d="m771 475l7-3 19 9 2 1v6l-5 2v3l-14-2-2-5h-5l-2-2z"/>
		<path id="Path 76" class="s28" d="m978 473v-1l2 2z"/>
		<path id="Path 77" class="s34" d="m205 482l1-9 3 1v8z"/>
		<path id="Path 78" class="s6" d="m527 480v-7h2 1l7 1 1 2-1 4z"/>
		<path id="Path 79" class="s3" d="m537 474l-7-1 8 1z"/>
		<path id="Path 80" class="s1" d="m558 474l4-1h2l20 3 3 6v4l-16 1v15l4 2 2 16-13-4-6-6-7-2-6-2-9-2-3 6h-4l-6-2h-6-8l-2-5-6-1 2-16h16l8-6h10l1-4z"/>
		<path id="Path 81" class="s8" d="m585 474l6-1 7 3-3 6h-8l-3-6z"/>
		<path id="Path 82" class="s44" d="m155 488v-14h11l2 8-7 6z"/>
		<path id="Path 83" class="s45" d="m293 476l12-2 8 4 4 3v5l-8 4h-14l-3-14z"/>
		<path id="Path 84" class="s30" d="m332 482l4-8h6l2 3-1 7 4 3v5h-2-5l-1-4h-5z"/>
		<path id="Path 85" class="s25" d="m538 476l-1-2h1 20z"/>
		<path id="Path 86" class="s46" d="m607 477l3-3h7 8l2 10-3 5-4 1-5-5-8 2z"/>
		<path id="Path 87" class="s47" d="m652 492l-1-5-9-5-1-8 13 5 4 1 9 7v12l-7-1-4-6z"/>
		<path id="Path 88" class="s48" d="m706 481l12-7 1 4-1 3-5 1z"/>
		<path id="Path 89" class="s11" d="m935 484l11-10 3 14v5l6 4v9 8l-8 3-4-11-8-4z"/>
		<path id="Path 90" class="s28" d="m986 476l-6-2 7 2z"/>
		<path id="Path 91" class="s49" d="m278 477l14-1 3 14v8l-2 2h-7l-11-4v-8l4-3z"/>
		<path id="Path 92" class="s30" d="m355 480l8-5 6 2 1 8-1 11-5 3-7-5-2-8z"/>
		<path id="Path 93" class="s28" d="m74 478l3-2-2 2z"/>
		<path id="Path 94" class="s50" d="m313 478l1-2h7l6 6v4h-10v-5z"/>
		<path id="Path 95" class="s21" d="m385 486v-10h6 12v5l11 7 1 7-2 1h-22v-5z"/>
		<path id="Path 96" class="s50" d="m729 478l2-2h9l1 4 8 1 5 1 3 2v10h-6-6l-3-6-13-3z"/>
		<path id="Path 97" class="s5" d="m988 479l-2-3h1l1 1v1z"/>
		<path id="Path 98" class="s39" d="m264 479l14-2 1 8-4 3-14-4v-2z"/>
		<path id="Path 99" class="s51" d="m347 487l-4-3 1-7 11 3v6z"/>
		<path id="Path 100" class="s2" d="m988 477h1v1h-1z"/>
		<path id="Path 101" class="s50" d="m67 481l7-3h1l2 12h-8l-2-8z"/>
		<path id="Path 102" class="s11" d="m485 484l6-6 7 1 5 7-2 16-1 5h-4l-3-9-8-2z"/>
		<path id="Path 103" class="s52" d="m718 481l1-3h10v7l-2 1h-8z"/>
		<path id="Path 104" class="s20" d="m749 481v-3h4l1 4z"/>
		<path id="Path 105" class="s14" d="m988 479v-1h1v4h-1z"/>
		<path id="Path 106" class="s34" d="m237 486v-6h4l2 2v4z"/>
		<path id="Path 107" class="s53" d="m243 482l13-2 2 2v2l-15 2z"/>
		<path id="Path 108" class="s11" d="m443 488v-5l8-3h5l3 6v8l-8 1z"/>
		<path id="Path 109" class="s28" d="m50 485l17-4v1l-8 2-8 1z"/>
		<path id="Path 110" class="s54" d="m101 487l-5-2 1-4 4 1z"/>
		<path id="Path 111" class="s55" d="m702 484l4-3 7 1v4l-8 2-3-2z"/>
		<path id="Path 112" class="s51" d="m713 482l5-1 1 5h-6z"/>
		<path id="Path 113" class="s17" d="m799 482l-2-1 5 1z"/>
		<path id="Path 114" class="s41" d="m59 484l8-2 2 8-1 6h-6-3v-6z"/>
		<path id="Path 115" class="s52" d="m161 488l7-6 9 2v10l-6 3v3h-6l-4-6z"/>
		<path id="Path 116" class="s56" d="m203 485l2-3h4l2 2v5l-7 2z"/>
		<path id="Path 117" class="s57" d="m258 484v-2h3v2z"/>
		<path id="Path 118" class="s39" d="m327 486v-4h5l2 6v2h-7z"/>
		<path id="Path 119" class="s11" d="m587 486v-4h8v2 6h-8z"/>
		<path id="Path 120" class="s58" d="m799 488v-6h3 2l3 1h1l3 1v6z"/>
		<path id="Path 121" class="s14" d="m925 490l9-8v2l-8 6z"/>
		<path id="Path 122" class="s25" d="m986 487l2-5v2 6 5 2h-1z"/>
		<path id="Path 123" class="s3" d="m988 484v-2h1v2z"/>
		<path id="Path 124" class="s24" d="m177 484l6-1 20 2 1 6 7-2 4 1v16l-18 2-2-8-18-6z"/>
		<path id="Path 125" class="s0" d="m811 484l-3-1 5 1z"/>
		<path id="Path 126" class="s50" d="m51 485l8-1v6h-8z"/>
		<path id="Path 127" class="s55" d="m211 489v-5l6 2v4h-2z"/>
		<path id="Path 128" class="s59" d="m243 486l15-2h3l14 4v8l-4 6h-6l-16 2-8-2v-5l-8-5v-4l4-2z"/>
		<path id="Path 129" class="s18" d="m471 486l14-2v12l-4 1v4h-8l-2-5z"/>
		<path id="Path 130" class="s16" d="m595 490v-6h5l1 4v2z"/>
		<path id="Path 131" class="s21" d="m624 489l3-5h5l5 9-6 1z"/>
		<path id="Path 132" class="s5" d="m686 495l16-11v2l-8 6-7 4h-1z"/>
		<path id="Path 133" class="s60" d="m757 494v-10h14l2 2-9 7z"/>
		<path id="Path 134" class="s22" d="m811 490v-6h2l10 1v4z"/>
		<path id="Path 135" class="s19" d="m926 490l8-6h1v18h-2l-9 1-5 7-11-1-2-6v-1l2-2 9-2z"/>
		<path id="Path 136" class="s41" d="m45 486l3-1h2 1v5 6l-11 3-14 1-1-1 6-8z"/>
		<path id="Path 137" class="s25" d="m25 499h1v1h-1z"/>
		<path id="Path 138" class="s61" d="m369 496l1-11 15 1 6 5v5l-2 4z"/>
		<path id="Path 139" class="s6" d="m607 487l8-2 5 5 4-1 7 5 6-1 9-2 4 4 10 3 7 1 10 1 1 12-13-2h-8l-8 1v11 6l-3 4h-3-1l-5-5v-15l-9-2-1 6h-6l-6-3-6-2-1 3h-4l-3-24v-2z"/>
		<path id="Path 140" class="s40" d="m727 486l2-1 13 3 3 6v3l-13 1-3-2z"/>
		<path id="Path 141" class="s58" d="m823 489v-4l11 3v1l-1 2z"/>
		<path id="Path 142" class="s16" d="m107 490l1-4h10l-1 12h-6z"/>
		<path id="Path 143" class="s62" d="m137 488l6-2 2 2v6h-7z"/>
		<path id="Path 144" class="s52" d="m309 490l8-4h10v4 8h-18z"/>
		<path id="Path 145" class="s29" d="m347 487l8-1 2 8-9 1-1-3z"/>
		<path id="Path 146" class="s30" d="m459 494v-8h12v10h-10z"/>
		<path id="Path 147" class="s18" d="m577 520l-2-16-4-2v-15l16-1v4 9l8 6-1 19h-4l-3-5-7 1z"/>
		<path id="Path 148" class="s11" d="m694 492l8-6 3 2v9h-2z"/>
		<path id="Path 149" class="s21" d="m705 488l8-2h6 8l2 10 3 2v4h-15l-12-5z"/>
		<path id="Path 150" class="s34" d="m764 493l9-7h5l2 5 14 2 3 11-17 2-3-4h-8l-5-4z"/>
		<path id="Path 151" class="s58" d="m667 499v-12l9 5v5h5 1l-5 3z"/>
		<path id="Path 152" class="s34" d="m125 500l3-11 9-1 1 6-5 6z"/>
		<path id="Path 153" class="s57" d="m145 494v-6h10v6h-5z"/>
		<path id="Path 154" class="s59" d="m155 494v-6h6v6z"/>
		<path id="Path 155" class="s34" d="m334 490v-2h5l1 4h-2z"/>
		<path id="Path 156" class="s30" d="m434 491l2-3h7l8 7-2 4h-7z"/>
		<path id="Path 157" class="s60" d="m794 493v-3l5-2 12 2 12-1 10 2v13l-3 2-6-2-8 3-7-3-8 3-4-3z"/>
		<path id="Path 158" class="s17" d="m834 489v-1l3 1z"/>
		<path id="Path 159" class="s9" d="m955 506v-9l-6-4v-5h14l6 11h7l6 6-14 5-3-4z"/>
		<path id="Path 160" class="s7" d="m97 492l4-3 6 1 4 8-2 5h-11z"/>
		<path id="Path 161" class="s45" d="m833 491l1-2h3l10 1 8 1h6 2l7 1 12 3v1l-3 4-10 2-4 1h-4l-1 3-6 4-24 1v-5l3-2z"/>
		<path id="Path 162" class="s63" d="m51 496v-6h8v6z"/>
		<path id="Path 163" class="s40" d="m68 496l1-6h8 2l-4 8h-7z"/>
		<path id="Path 164" class="s51" d="m68 498h7l4-8h8l10 2 1 11h11v5l-4 3v5l-8 1v7l-1 1-1 3-10 2-2-19-14-3-2-8z"/>
		<path id="Path 165" class="s32" d="m215 506v-16h2l8 2v12l-6 2z"/>
		<path id="Path 166" class="s60" d="m295 498v-8h14v8z"/>
		<path id="Path 167" class="s59" d="m327 498v-8h7l4 2v6l-1 2h-8z"/>
		<path id="Path 168" class="s12" d="m594 524l1-19-8-6v-9h8 6l3 24-3 7-6 4z"/>
		<path id="Path 169" class="s28" d="m855 491l-8-1h8z"/>
		<path id="Path 170" class="s0" d="m855 491v-1l6 1z"/>
		<path id="Path 171" class="s25" d="m907 500l18-10h1l-9 8-9 2z"/>
		<path id="Path 172" class="s17" d="m988 495v-5h1v5z"/>
		<path id="Path 173" class="s42" d="m428 496l2-5h4l8 8-1 7h-10z"/>
		<path id="Path 174" class="s47" d="m225 504v-12h8l8 5v5 6h-8z"/>
		<path id="Path 175" class="s62" d="m338 498v-6h2 5v4z"/>
		<path id="Path 176" class="s64" d="m345 496v-4h2l1 3z"/>
		<path id="Path 177" class="s65" d="m650 495l2-3h4l4 6z"/>
		<path id="Path 178" class="s9" d="m687 496l7-4 9 5v15h-8z"/>
		<path id="Path 179" class="s41" d="m757 494l7-1v5l-13 2v-6z"/>
		<path id="Path 180" class="s56" d="m133 500l5-6h7 5l1 10-18 2z"/>
		<path id="Path 181" class="s37" d="m151 504l-1-10h5 6l4 6v10h-9z"/>
		<path id="Path 182" class="s66" d="m171 500v-3l6-3 18 6 2 8-18 2h-8z"/>
		<path id="Path 183" class="s55" d="m348 495l9-1 7 5v6l5 4 22 3 26 2 6 2v12l-4 1v7h-7l-3-3-30-3-15-2-3-2-2-6-8-2-14-10v-8l1-2 7-2z"/>
		<path id="Path 184" class="s34" d="m451 495l8-1 2 2v12l-4 2-8-2v-9z"/>
		<path id="Path 185" class="s16" d="m745 497v-3h6v6h-2z"/>
		<path id="Path 186" class="s29" d="m413 496l2-1 6 1v10l-4 2-4-2z"/>
		<path id="Path 187" class="s2" d="m681 497l5-2v1l-4 1z"/>
		<path id="Path 188" class="s67" d="m882 496v-1l3 1z"/>
		<path id="Path 189" class="s17" d="m716 572h1v1h-1z"/>
		<path id="Path 190" class="s21" d="m40 499l11-3h8 3l1 4h4l2 8v6l6 4v10l-6-1-9-1-6-2-1 4-13-3-8-4 1-10 7-5z"/>
		<path id="Path 191" class="s30" d="m67 500h-4l-1-4h6v2z"/>
		<path id="Path 192" class="s68" d="m271 502l4-6 11 4-1 3z"/>
		<path id="Path 193" class="s62" d="m364 499l5-3 20 4 2 4v8l-22-3-5-4z"/>
		<path id="Path 194" class="s34" d="m389 500l2-4h22v10l-22-2z"/>
		<path id="Path 195" class="s53" d="m421 506v-10h7l3 10h-4z"/>
		<path id="Path 196" class="s51" d="m461 508v-12h10l2 5-4 4v5z"/>
		<path id="Path 197" class="s53" d="m481 501v-4l4-1 8 2 3 9-3 5h-11z"/>
		<path id="Path 198" class="s10" d="m682 497l4-1h1l8 16v14 4h-5l-3-6h-5l-4-5v-7l-1-12z"/>
		<path id="Path 199" class="s41" d="m879 500l3-4h3l2 1 2 3-4 2z"/>
		<path id="Path 200" class="s18" d="m703 512v-15h2l12 5v9l12 11v6l-9 9h-8l-3-1v-6l-6-4z"/>
		<path id="Path 201" class="s18" d="m732 498l13-1 4 3v7l-14-1-3-4z"/>
		<path id="Path 202" class="s4" d="m889 500l-2-3 8 4-1 4h-1z"/>
		<path id="Path 203" class="s28" d="m987 497h1v1h-1z"/>
		<path id="Path 204" class="s23" d="m109 503l2-5h6l1 4-2 5-3 1h-4z"/>
		<path id="Path 205" class="s69" d="m293 500l2-2h14 18l2 2v8l-4 6h-22l-1-4-9-6z"/>
		<path id="Path 206" class="s11" d="m751 500l13-2 5 4 2 10-2 4h-20v-9-7z"/>
		<path id="Path 207" class="s70" d="m26 500l14-1v7l-7 5-1 10-9-3v-12l2-6z"/>
		<path id="Path 208" class="s53" d="m441 506l1-7h7v9h-5z"/>
		<path id="Path 209" class="s25" d="m18 507l7-7-2 6-5 2z"/>
		<path id="Path 210" class="s53" d="m118 502l7-2h8v6l-2 6h-11l-4-5z"/>
		<path id="Path 211" class="s27" d="m165 510v-10h6v10z"/>
		<path id="Path 212" class="s71" d="m285 503l1-3h7v4l9 6 1 4h22l4-6h8l14 10v8l-11-2-13-3-38-1-6-2z"/>
		<path id="Path 213" class="s68" d="m329 508v-8h8v8z"/>
		<path id="Path 214" class="s51" d="m869 502l10-2 6 2 4-2 4 5-7 6-10-1-1-4h-4z"/>
		<path id="Path 215" class="s71" d="m906 501l1-1h1l-2 2z"/>
		<path id="Path 216" class="s72" d="m469 510v-5l4-4h8l1 11-1 4h-8z"/>
		<path id="Path 217" class="s4" d="m896 505l10-4v1 1l-8 2z"/>
		<path id="Path 218" class="s37" d="m241 508v-6l8 2v5z"/>
		<path id="Path 219" class="s73" d="m249 504l16-2-2 14-10-1-4-6z"/>
		<path id="Path 220" class="s69" d="m263 516l2-14h6l14 1-2 15h-10z"/>
		<path id="Path 221" class="s53" d="m500 507l1-5 6 1 2 5h8l-2 6h4v8h-8v-6l-8-2z"/>
		<path id="Path 222" class="s1" d="m729 528v-6l-12-11v-9h15l3 4 14 1v9l-2 7 2 5h-2l-2-2-12 2z"/>
		<path id="Path 223" class="s7" d="m771 512l-2-10h8l3 4 17-2 4 3v5h-7l-1 4h-14l-1-3z"/>
		<path id="Path 224" class="s36" d="m865 503l4-1 2 4h-6z"/>
		<path id="Path 225" class="s16" d="m906 503l2 6 11 1 5-7 9-1v10l-8 1v9l-13 4v-5l-13-11-1-5z"/>
		<path id="Path 226" class="s8" d="m933 512v-10h2l8 4 4 11-7 2h-5z"/>
		<path id="Path 227" class="s23" d="m860 506l1-3h4v3z"/>
		<path id="Path 228" class="s27" d="m133 506l18-2 5 6-15 3-1 8h-6l-3-1v-8z"/>
		<path id="Path 229" class="s74" d="m219 506l6-2 8 4v5h-14z"/>
		<path id="Path 230" class="s64" d="m391 512v-8l22 2 4 2v6z"/>
		<path id="Path 231" class="s34" d="m529 510h4l3-6 9 2 2 12-1 4h-4l-2 4h-5v-7l-7-2v-2z"/>
		<path id="Path 232" class="s16" d="m801 507l8-3 7 3 8-3 6 2v5l-2 3h-11l-16-2z"/>
		<path id="Path 233" class="s21" d="m886 511l7-6h1 2 2l1 5 13 11v5l-7 5-13 4-14-3-1 4h-6v-16l4-2 10-2z"/>
		<path id="Path 234" class="s36" d="m18 508l5-2v12l-4-2-1-5z"/>
		<path id="Path 235" class="s75" d="m197 508l18-2h4v7l-8 1-7 1-8 1-8 1-2 1h-7v-8z"/>
		<path id="Path 236" class="s62" d="m417 508l4-2h6v10h-4l-6-2z"/>
		<path id="Path 237" class="s57" d="m427 516v-10h4 10l3 2-1 8z"/>
		<path id="Path 238" class="s76" d="m547 518l-2-12 6 2 1 5z"/>
		<path id="Path 239" class="s7" d="m830 511l24-1 6-4h5 6 4l1 4-1 8-4 2v16l-1 3h-6l-4-3-13 2-9-10h-16l-5-2v-12h11z"/>
		<path id="Path 240" class="s7" d="m955 514v-8h10l3 4z"/>
		<path id="Path 241" class="s2" d="m17 507h1v1h-1z"/>
		<path id="Path 242" class="s39" d="m113 508l3-1 4 5-2 4h-5z"/>
		<path id="Path 243" class="s46" d="m482 512h11l3-5h4l3 7 4 8v8h-9l-2 3h-6v-3l-9-6v-8z"/>
		<path id="Path 244" class="s54" d="m17 511v-3h1v3z"/>
		<path id="Path 245" class="s70" d="m75 528v-10l-6-4v-6l14 3 2 19-8-1z"/>
		<path id="Path 246" class="s40" d="m105 516v-5l4-3h4v8l-6 1z"/>
		<path id="Path 247" class="s77" d="m233 513v-5h8l8 1 4 6 10 1 10 2v6l-14-1z"/>
		<path id="Path 248" class="s59" d="m443 516l1-8h5l8 2 4-2 8 2 4 6v8l-16 2h-10z"/>
		<path id="Path 249" class="s21" d="m519 514h-4l2-6h6v3z"/>
		<path id="Path 250" class="s72" d="m523 511v-3l6 2-1 5z"/>
		<path id="Path 251" class="s51" d="m552 513l-1-5 7 2z"/>
		<path id="Path 252" class="s74" d="m140 521l1-8 15-3h9 6 8v8l-5 1h-3l-4 1h-1l-5 1z"/>
		<path id="Path 253" class="s78" d="m552 513l6-3 6 6v7l9 4v5l-22-2v-6l-5-2 1-4z"/>
		<path id="Path 254" class="s21" d="m627 516l1-6 9 2v15l-4 1h-5l-1-4z"/>
		<path id="Path 255" class="s18" d="m649 522v-11l8-1-4 12z"/>
		<path id="Path 256" class="s21" d="m653 522l4-12h8l1 17-2 2-10-1z"/>
		<path id="Path 257" class="s70" d="m666 527l-1-17 13 2v7l4 5-5 10h-4z"/>
		<path id="Path 258" class="s11" d="m875 518l1-8 10 1-1 5z"/>
		<path id="Path 259" class="s17" d="m17 511h1v1h-1z"/>
		<path id="Path 260" class="s25" d="m18 512v-1l1 5 4 2 9 3 8 4-22-7-1-1v-2l1-1z"/>
		<path id="Path 261" class="s2" d="m17 517h1v1h-1z"/>
		<path id="Path 262" class="s79" d="m519 514l4-3 5 4v2l-2 7h-7v-2z"/>
		<path id="Path 263" class="s70" d="m608 514l1-3 6 2v7h-4z"/>
		<path id="Path 264" class="s48" d="m118 516l2-4h11v8l-1 1h-2-4-3z"/>
		<path id="Path 265" class="s1" d="m695 526v-14h8v14z"/>
		<path id="Path 266" class="s9" d="m769 516l2-4 7 1 1 3v8h-2l-7-2z"/>
		<path id="Path 267" class="s11" d="m793 516l1-4h7l16 2v12l-3 7h-4l-5-7v-6l-10-2z"/>
		<path id="Path 268" class="s21" d="m925 522v-9l8-1 2 7-1 2h-2z"/>
		<path id="Path 269" class="s18" d="m615 520v-7l6 3v8l-3 1-3-1z"/>
		<path id="Path 270" class="s3" d="m17 514h1v1h-1z"/>
		<path id="Path 271" class="s45" d="m507 522l-4-8 8 2v6z"/>
		<path id="Path 272" class="s65" d="m595 525l6-4 3-7h4l3 6h4v4l3 1-6 6 1 7-6-4h-10z"/>
		<path id="Path 273" class="s29" d="m97 524v-7l8-1 2 1v6l-6 1z"/>
		<path id="Path 274" class="s80" d="m107 517l6-1h5l3 5-4 1-4 1h-6z"/>
		<path id="Path 275" class="s68" d="m423 528v-12h4 16l4 10-2 2h-8z"/>
		<path id="Path 276" class="s49" d="m473 524v-8h8v8z"/>
		<path id="Path 277" class="s61" d="m573 527l-9-4v-7l13 4h3v6z"/>
		<path id="Path 278" class="s61" d="m621 524v-8h6v8z"/>
		<path id="Path 279" class="s6" d="m749 528l-2-5 2-7h20l1 6-3 7-6 1z"/>
		<path id="Path 280" class="s1" d="m779 524v-8h14l2 2v12h-10v-4z"/>
		<path id="Path 281" class="s60" d="m526 524l2-7 7 2v7l-7 2z"/>
		<path id="Path 282" class="s0" d="m174 519l5-1h7z"/>
		<path id="Path 283" class="s74" d="m273 524v-6h10l6 2v5z"/>
		<path id="Path 284" class="s69" d="m351 526v-8l8 2 2 6-8 2z"/>
		<path id="Path 285" class="s9" d="m795 530v-12l10 2v6l5 7-3 6-4 1h-4v-6z"/>
		<path id="Path 286" class="s39" d="m580 520l7-1 3 5-2 6h-5l-3-4z"/>
		<path id="Path 287" class="s2" d="m934 521l1-2h5z"/>
		<path id="Path 288" class="s2" d="m130 521l1-1 3 1z"/>
		<path id="Path 289" class="s75" d="m289 525v-5l38 1 1 7h-4z"/>
		<path id="Path 290" class="s74" d="m328 528l-1-7 13 3v5h-5l-5-1z"/>
		<path id="Path 291" class="s81" d="m925 522l7-1-25 10h-2l7-5z"/>
		<path id="Path 292" class="s59" d="m507 530v-8h4 8v2l-6 8z"/>
		<path id="Path 293" class="s45" d="m540 526l2-4h4l5 2v6h-10z"/>
		<path id="Path 294" class="s42" d="m649 528v-6h4l1 6h-1z"/>
		<path id="Path 295" class="s82" d="m767 529l3-7 7 2v11l-3 3-7-1z"/>
		<path id="Path 296" class="s63" d="m53 528l1-4 6 2-3 4h-3z"/>
		<path id="Path 297" class="s3" d="m96 525l1-1h4z"/>
		<path id="Path 298" class="s22" d="m340 529v-5l11 2 2 2v3h-2l-3-1z"/>
		<path id="Path 299" class="s83" d="m457 526l16-2h8l9 6v3l-5 5-1 8h-7-8l-8-3-8-2z"/>
		<path id="Path 300" class="s68" d="m513 532l6-8h7l2 4 7-2h5l1 4v6l-13 6-1 12-15-4z"/>
		<path id="Path 301" class="s84" d="m588 530l2-6h4l1 1 2 9-5 4v-7z"/>
		<path id="Path 302" class="s38" d="m618 525l3-1h6l1 4-1 4v8h-8l-5-1-1-1-1-7z"/>
		<path id="Path 303" class="s85" d="m677 534l5-10h5l3 6-2 6-1 1-9 1z"/>
		<path id="Path 304" class="s85" d="m777 535v-11h2l6 2v4 10l-5 2z"/>
		<path id="Path 305" class="s66" d="m54 531l-14-6 13 3 1 2z"/>
		<path id="Path 306" class="s3" d="m95 528l1-3-1 5z"/>
		<path id="Path 307" class="s46" d="m57 530l3-4 9 1v8h-5l-3-1h-1l-1-1h-1z"/>
		<path id="Path 308" class="s2" d="m59 533h1v1h-1z"/>
		<path id="Path 309" class="s27" d="m353 528l8-2 3 2-1 4h-2l-8-1z"/>
		<path id="Path 310" class="s86" d="m445 528l2-2h10l-4 15h-6l-2-3z"/>
		<path id="Path 311" class="s59" d="m573 527l7-1 3 4h5l4 1v7h-5-8l-6-6z"/>
		<path id="Path 312" class="s85" d="m695 530v-4h8l6 4v6h-4-5z"/>
		<path id="Path 313" class="s82" d="m733 528l12-2 2 2v7 5l-12-1z"/>
		<path id="Path 314" class="s30" d="m814 533l3-7 5 2-1 8h-6z"/>
		<path id="Path 315" class="s52" d="m69 535v-8l6 1 2 1v8z"/>
		<path id="Path 316" class="s52" d="m633 528l4-1 5 5-3 1-6-1z"/>
		<path id="Path 317" class="s61" d="m664 529l2-2 7 7v2h-6z"/>
		<path id="Path 318" class="s66" d="m85 530l10-2v2l-2 5-8 1z"/>
		<path id="Path 319" class="s26" d="m363 532l1-4 15 2v5l-14-2z"/>
		<path id="Path 320" class="s69" d="m419 536v-7l4-1h14v10l-2 1z"/>
		<path id="Path 321" class="s71" d="m437 538v-10h8v10z"/>
		<path id="Path 322" class="s65" d="m627 532l1-4h5v4z"/>
		<path id="Path 323" class="s78" d="m646 532l3-4h4l-2 5z"/>
		<path id="Path 324" class="s60" d="m651 533l2-5h1l10 1 3 7v10 2h-8l-8-5-1-1z"/>
		<path id="Path 325" class="s61" d="m720 537l9-9h4l2 11-4 4v5h-4-2v-7l-5-2z"/>
		<path id="Path 326" class="s76" d="m747 535v-7h2l12 2v7l-4 1z"/>
		<path id="Path 327" class="s72" d="m821 536l1-8h16l9 10v9l-13 1-1-4h-9z"/>
		<path id="Path 328" class="s32" d="m77 537v-8l8 1v6h-3l-3 1z"/>
		<path id="Path 329" class="s61" d="m761 530l6-1v8h-6z"/>
		<path id="Path 330" class="s31" d="m54 531v-1h3l1 3z"/>
		<path id="Path 331" class="s48" d="m379 535v-5l30 3 3 3-1 4z"/>
		<path id="Path 332" class="s55" d="m496 533l2-3h9l6 2-1 18-13-2z"/>
		<path id="Path 333" class="s73" d="m541 536v-6h10l22 2 6 6h8l1 22-17-2v-6l-6-2-3-5-15 1v-8z"/>
		<path id="Path 334" class="s79" d="m688 536l2-6h5l5 6z"/>
		<path id="Path 335" class="s72" d="m785 540v-10h10l4 4v6z"/>
		<path id="Path 336" class="s28" d="m892 535l13-4h2l-18 7z"/>
		<path id="Path 337" class="s2" d="m365 533l-4-1h2z"/>
		<path id="Path 338" class="s59" d="m627 540v-8h6l6 1v4l2 8v5l-8 2-4-2z"/>
		<path id="Path 339" class="s24" d="m639 533l3-1h1v5h-4z"/>
		<path id="Path 340" class="s87" d="m643 537v-5h3l5 1-1 9h-2z"/>
		<path id="Path 341" class="s51" d="m877 536l1-4 14 3-3 3-3 1z"/>
		<path id="Path 342" class="s86" d="m484 546l1-8 5-5h6l3 15-10 2z"/>
		<path id="Path 343" class="s57" d="m807 539l3-6h4l1 3h6l3 8-1 4h-6-6z"/>
		<path id="Path 344" class="s68" d="m592 538l5-4h10l6 4 1 1-7 9-10 5v9h-6l-3-2-1-22z"/>
		<path id="Path 345" class="s88" d="m673 536v-2h4l1 4 9-1 6 9v6h-12l-8-6z"/>
		<path id="Path 346" class="s88" d="m747 540v-5l10 3-2 4h-2z"/>
		<path id="Path 347" class="s72" d="m767 537l7 1 3-3 3 7-3 1v7l-8 2-8-2v-4l-6-4 2-4 4-1z"/>
		<path id="Path 348" class="s80" d="m411 540l1-4h7l16 3v5l-8-1-5-1z"/>
		<path id="Path 349" class="s69" d="m527 554l1-12 13-6 6 2v8 10l-10 1z"/>
		<path id="Path 350" class="s52" d="m667 546v-10h6v10z"/>
		<path id="Path 351" class="s60" d="m687 537l1-1h12 5v6l-2 4h-10z"/>
		<path id="Path 352" class="s45" d="m705 542v-6h4l3 1-1 5z"/>
		<path id="Path 353" class="s34" d="m847 538l13-2 4 3-4 5-13 3z"/>
		<path id="Path 354" class="s55" d="m870 539l1-3h6l9 3-10 4h-5z"/>
		<path id="Path 355" class="s73" d="m641 545l-2-8h4l5 5v2z"/>
		<path id="Path 356" class="s87" d="m711 542l1-5h8v2l-1 7z"/>
		<path id="Path 357" class="s89" d="m435 539l2-1h8l2 3h6l8 2v6l-26-5z"/>
		<path id="Path 358" class="s69" d="m597 562v-9l10-5 7-9 5 1v10l-5 12h-12-3z"/>
		<path id="Path 359" class="s78" d="m719 546l1-7 5 2v7z"/>
		<path id="Path 360" class="s39" d="m731 548v-5l4-4 12 1 6 2v10 9l-12 1v-5z"/>
		<path id="Path 361" class="s39" d="m803 540l4-1 4 9v7l-6 2h-2z"/>
		<path id="Path 362" class="s90" d="m860 544l4-5h6l1 4h5l-16 6z"/>
		<path id="Path 363" class="s73" d="m619 550v-10h8l2 10z"/>
		<path id="Path 364" class="s79" d="m780 542l5-2h14 4v17l-8 1-2-6h-12l-4-2v-7z"/>
		<path id="Path 365" class="s52" d="m648 544v-2h2l1 1z"/>
		<path id="Path 366" class="s52" d="m693 546h10l2-4h6l8 4 6 2h2v12 5l-8 1h-6-8-2v-7l-10-7z"/>
		<path id="Path 367" class="s79" d="m753 552v-10h2l6 4v4 2z"/>
		<path id="Path 368" class="s48" d="m461 549v-6l8 3v3z"/>
		<path id="Path 369" class="s66" d="m648 544l3-1 8 5v6l-4 2h-6l-8-6v-5z"/>
		<path id="Path 370" class="s53" d="m823 548l1-4h9l1 4-5 4h-6z"/>
		<path id="Path 371" class="s80" d="m847 547l13-3v5l-22 9-3 1-6 1v-8l5-4z"/>
		<path id="Path 372" class="s91" d="m547 546l15-1 3 5v8h-6-6l-6-2z"/>
		<path id="Path 373" class="s26" d="m469 549v-3h8v4h-3z"/>
		<path id="Path 374" class="s48" d="m477 550v-4h7l5 4v2h-3l-8-1z"/>
		<path id="Path 375" class="s73" d="m667 548v-2h6l8 6v4l-14-2z"/>
		<path id="Path 376" class="s89" d="m489 550l10-2 13 2 15 4 10 3v3l-46-7-2-1z"/>
		<path id="Path 377" class="s56" d="m659 554v-6h8v6z"/>
		<path id="Path 378" class="s56" d="m727 560v-12h4l10 9v5l-4 1-3-3z"/>
		<path id="Path 379" class="s59" d="m811 555v-7h6v6z"/>
		<path id="Path 380" class="s46" d="m817 554v-6h6v4z"/>
		<path id="Path 381" class="s3" d="m478 551l-4-1h3z"/>
		<path id="Path 382" class="s5" d="m565 558v-8l6 2v6z"/>
		<path id="Path 383" class="s91" d="m614 562l5-12h10l4 2v9l-5 3h-11z"/>
		<path id="Path 384" class="s90" d="m633 552l8-2 8 6h6v12h-6l-2-3h-10l-4-4z"/>
		<path id="Path 385" class="s39" d="m761 552v-2l8 2v4h-6z"/>
		<path id="Path 386" class="s57" d="m769 552l8-2 4 2v9l-10 1-2-6z"/>
		<path id="Path 387" class="s17" d="m491 553l-5-1h3z"/>
		<path id="Path 388" class="s37" d="m681 556v-4h12l10 7v7l-4 2v5h-2-1l-2-1h-4-3-6z"/>
		<path id="Path 389" class="s49" d="m753 561v-9h8l2 4h6l2 6-11 2z"/>
		<path id="Path 390" class="s39" d="m781 561v-9h12l2 6-6 2z"/>
		<path id="Path 391" class="s89" d="m817 554l6-2h6v8l-22 5-2-8 6-2z"/>
		<path id="Path 392" class="s92" d="m655 556l4-2h8l14 2v16h-11-2-1-3-4l-5-4z"/>
		<path id="Path 393" class="s31" d="m537 557l10-1 6 2-1 5-15-3z"/>
		<path id="Path 394" class="s81" d="m795 558l8-1h2l2 8-18 3v-8z"/>
		<path id="Path 395" class="s89" d="m552 563l1-5h6v6z"/>
		<path id="Path 396" class="s58" d="m559 564v-6h6 6l17 2 3 2v5l-21-2-4-1z"/>
		<path id="Path 397" class="s66" d="m727 565v-5h7l3 3v5h-2l-2-3z"/>
		<path id="Path 398" class="s54" d="m781 561l8-1v8h-4l-6 1-19-3v-2l11-2z"/>
		<path id="Path 399" class="s26" d="m617 564h11l5-3 4 4h10l2 3v4l-32-2z"/>
		<path id="Path 400" class="s22" d="m741 562l12-1 7 3v2l-22 2h-1v-5z"/>
		<path id="Path 401" class="s22" d="m591 567v-5h6 2v6z"/>
		<path id="Path 402" class="s81" d="m599 568v-6h3v7z"/>
		<path id="Path 403" class="s89" d="m602 569v-7h12l3 2v6z"/>
		<path id="Path 404" class="s54" d="m719 566l8-1h6l2 3v1l-7 1-3 1-6 1z"/>
		<path id="Path 405" class="s26" d="m699 573v-5l4-2h2v6l-1 1z"/>
		<path id="Path 406" class="s58" d="m705 572v-6h8v6h-1-1z"/>
		<path id="Path 407" class="s89" d="m713 572v-6h6v6h-2-1z"/>
		<path id="Path 408" class="s31" d="m649 572v-4h6l5 4z"/>
		<path id="Path 409" class="s17" d="m735 569v-1h2 1z"/>
		<path id="Path 410" class="s67" d="m704 573l1-1h6v1z"/>
		<path id="Path 411" class="s17" d="m711 572h1v1h-1z"/>
		<path id="Path 412" class="s17" d="m697 574v-1h2v1z"/>
	</g>
</svg>