<svg version="1.2" xmlns="http://www.w3.org/2000/svg" viewBox="0 0 1000 1000" width="1000" height="1000">
	<title>Phoxinus_eos</title>
	<style>
		.s0 { fill: #8a938c } 
		.s1 { fill: #7e7c5d } 
		.s2 { fill: #888666 } 
		.s3 { fill: #9a9775 } 
		.s4 { fill: #878a75 } 
		.s5 { fill: #767c62 } 
		.s6 { fill: #818c85 } 
		.s7 { fill: #7c8470 } 
		.s8 { fill: #938d63 } 
		.s9 { fill: #9e915c } 
		.s10 { fill: #867c51 } 
		.s11 { fill: #72755c } 
		.s12 { fill: #beb37a } 
		.s13 { fill: #aba786 } 
		.s14 { fill: #a89b6c } 
		.s15 { fill: #7b7550 } 
		.s16 { fill: #b5ab78 } 
		.s17 { fill: #ac9a58 } 
		.s18 { fill: #9c8b45 } 
		.s19 { fill: #a2a07e } 
		.s20 { fill: #797344 } 
		.s21 { fill: #6b6e44 } 
		.s22 { fill: #ada378 } 
		.s23 { fill: #9a8631 } 
		.s24 { fill: #bdb997 } 
		.s25 { fill: #89762a } 
		.s26 { fill: #63674b } 
		.s27 { fill: #bab186 } 
		.s28 { fill: #6a7256 } 
		.s29 { fill: #dad099 } 
		.s30 { fill: #6d6633 } 
		.s31 { fill: #444423 } 
		.s32 { fill: #565327 } 
		.s33 { fill: #9ca7a7 } 
		.s34 { fill: #979c89 } 
		.s35 { fill: #d8ca8a } 
		.s36 { fill: #cdc599 } 
		.s37 { fill: #667163 } 
		.s38 { fill: #f2e7ba } 
		.s39 { fill: #676741 } 
		.s40 { fill: #8d9797 } 
		.s41 { fill: #707b72 } 
		.s42 { fill: #d9c979 } 
		.s43 { fill: #898559 } 
		.s44 { fill: #aaae9e } 
		.s45 { fill: #816806 } 
		.s46 { fill: #efe299 } 
		.s47 { fill: #616040 } 
		.s48 { fill: #272e1c } 
		.s49 { fill: #645c2e } 
		.s50 { fill: #c8bc8b } 
		.s51 { fill: #756c40 } 
		.s52 { fill: #737151 } 
		.s53 { fill: #59634b } 
		.s54 { fill: #35412e } 
		.s55 { fill: #cfc387 } 
		.s56 { fill: #caba76 } 
		.s57 { fill: #465241 } 
		.s58 { fill: #404a33 } 
		.s59 { fill: #555734 } 
		.s60 { fill: #5c5f37 } 
		.s61 { fill: #525b42 } 
		.s62 { fill: #4f4d31 } 
		.s63 { fill: #465137 } 
		.s64 { fill: #939da3 } 
		.s65 { fill: #978a56 } 
		.s66 { fill: #404c3d } 
		.s67 { fill: #7c7b51 } 
		.s68 { fill: #9c9567 } 
		.s69 { fill: #b0a269 } 
		.s70 { fill: #6b694a } 
		.s71 { fill: #928f6e } 
		.s72 { fill: #656b53 } 
		.s73 { fill: #37493d } 
		.s74 { fill: #49574b } 
		.s75 { fill: #d0d1cd } 
		.s76 { fill: #c4c9c6 } 
		.s77 { fill: #98a199 } 
		.s78 { fill: #c0c1b8 } 
		.s79 { fill: #757a51 } 
	</style>
	<g id="Background">
		<path id="Path 0" class="s0" d="m493.3 612.9l1.7-20 8.3-3.4 20 5 1.7 10.1-6.7 10z"/>
		<path id="Path 1" class="s1" d="m303.3 582.9v10h-16.6v-10z"/>
		<path id="Path 2" class="s2" d="m451.7 587.9l1.6-8.4h13.4l-3.4 15z"/>
		<path id="Path 3" class="s3" d="m370 581.2l3.3-1.7h10l3.4 16.7h-16.7z"/>
		<path id="Path 4" class="s2" d="m350 582.9l13.3-3.4 6.7 1.7v15l-20-1.7z"/>
		<path id="Path 5" class="s4" d="m270 591.2v-11.7h16.7v3.4 10z"/>
		<path id="Path 6" class="s5" d="m578.3 584.5l1.7-8.3h6.7l6.6 3.3v10z"/>
		<path id="Path 7" class="s6" d="m503.3 589.5v-13.3h8.4l13.3 3.3-6.7 3.4 5 11.6z"/>
		<path id="Path 8" class="s4" d="m468.3 577.9l25-1.7h10v13.3l-8.3 3.4-1.7 20-30-18.4 3.4-15z"/>
		<path id="Path 9" class="s5" d="m231.7 579.5l15-3.3h8.3v11.7l-25-1.7z"/>
		<path id="Path 10" class="s7" d="m255 576.2l1.7-1.7h5l8.3 5v11.7l-15-3.3z"/>
		<path id="Path 11" class="s8" d="m425 591.2l-5-1.7-1.7-16.6h35v6.6l-1.6 8.4z"/>
		<path id="Path 12" class="s9" d="m303.3 576.2l10-3.3 30 3.3 6.7 6.7v11.6l-46.7-1.6v-10z"/>
		<path id="Path 13" class="s10" d="m286.7 579.5v-6.6l16.6 3.3v6.7h-16.6z"/>
		<path id="Path 14" class="s11" d="m556.7 576.2l5-5h11.6l6.7 5-1.7 8.3z"/>
		<path id="Path 15" class="s12" d="m453.3 572.9l3.4-3.4h10l1.6 8.4-1.6 1.6h-13.4z"/>
		<path id="Path 16" class="s13" d="m386.7 572.9l16.6-3.4 15 3.4 1.7 16.6 5 1.7-38.3 5-3.4-16.7z"/>
		<path id="Path 17" class="s14" d="m231.7 579.5l-1.7-10h16.7v6.7z"/>
		<path id="Path 18" class="s15" d="m196.7 572.9l11.6-3.4h5v13.4l-20-3.4z"/>
		<path id="Path 19" class="s16" d="m466.7 569.5l16.6-3.3h10v10l-25 1.7z"/>
		<path id="Path 20" class="s17" d="m373.3 579.5v-13.3h6.7l6.7 6.7-3.4 6.6z"/>
		<path id="Path 21" class="s18" d="m363.3 579.5v-13.3h10v13.3l-3.3 1.7z"/>
		<path id="Path 22" class="s19" d="m246.7 569.5l1.6-3.3h8.4v8.3l-1.7 1.7h-8.3z"/>
		<path id="Path 23" class="s20" d="m213.3 569.5l13.4-3.3 3.3 3.3 1.7 10-1.7 6.7-16.7-3.3z"/>
		<path id="Path 24" class="s21" d="m170 576.2l-15-11.7h11.7l6.6 6.7z"/>
		<path id="Path 25" class="s22" d="m493.3 566.2l20-3.3 3.4 1.6-5 11.7h-8.4-10z"/>
		<path id="Path 26" class="s23" d="m343.3 576.2v-13.3h6.7l13.3 3.3v13.3l-13.3 3.4z"/>
		<path id="Path 27" class="s24" d="m208.3 569.5l-1.6-6.6h6.6v6.6z"/>
		<path id="Path 28" class="s13" d="m196.7 572.9v-10h10l1.6 6.6z"/>
		<path id="Path 29" class="s25" d="m313.3 562.9l18.4-1.7 11.6 1.7v13.3l-30-3.3z"/>
		<path id="Path 30" class="s13" d="m256.7 566.2l3.3-5 1.7 13.3h-5z"/>
		<path id="Path 31" class="s26" d="m573.3 571.2v-11.7l13.4 1.7v15h-6.7z"/>
		<path id="Path 32" class="s3" d="m166.7 564.5l13.3-5 13.3 3.4h3.4v10l-3.4 6.6-23.3-3.3 3.3-5z"/>
		<path id="Path 33" class="s10" d="m525 559.5l10-1.6 3.3 11.6-13.3 10-13.3-3.3 5-11.7z"/>
		<path id="Path 34" class="s27" d="m213.3 562.9l6.7-6.7 6.7 5v5l-13.4 3.3z"/>
		<path id="Path 35" class="s28" d="m586.7 561.2l6.6-6.7h8.4l15 16.7v16.7l-8.4 5-15-3.4v-10l-6.6-3.3z"/>
		<path id="Path 36" class="s29" d="m513.3 562.9l3.4-8.4 8.3 5-8.3 5z"/>
		<path id="Path 37" class="s30" d="m286.7 572.9l-6.7-6.7 3.3-11.7h3.4l10 1.7h8.3l8.3 6.7v10l-10 3.3z"/>
		<path id="Path 38" class="s20" d="m535 557.9l11.7-6.7v21.7l-8.4-3.4z"/>
		<path id="Path 39" class="s3" d="m210 556.2l6.7-5 3.3 1.7v3.3l-6.7 6.7h-6.6z"/>
		<path id="Path 40" class="s31" d="m193.3 552.9l5-1.7 6.7 1.7 5 3.3-3.3 6.7h-10-3.4z"/>
		<path id="Path 41" class="s32" d="m180 559.5l1.7-8.3 11.6 1.7v10z"/>
		<path id="Path 42" class="s33" d="m141.7 559.5l-6.7-1.6 1.7-6.7z"/>
		<path id="Path 43" class="s34" d="m798.3 551.2l-10-1.7h10z"/>
		<path id="Path 44" class="s35" d="m350 562.9v-13.4l26.7 3.4 3.3 13.3h-6.7-10z"/>
		<path id="Path 45" class="s36" d="m220 552.9l10-3.4-3.3 11.7-6.7-5z"/>
		<path id="Path 46" class="s17" d="m231.7 549.5l16.6-1.6 5 6.6-5 11.7-1.6 3.3h-16.7l-3.3-3.3v-5l3.3-11.7z"/>
		<path id="Path 47" class="s37" d="m601.7 554.5l3.3-8.3 25 3.3-3.3 18.4-10 3.3z"/>
		<path id="Path 48" class="s38" d="m253.3 554.5l11.7-8.3 1.7 6.7-6.7 8.3-3.3 5h-8.4z"/>
		<path id="Path 49" class="s39" d="m550 549.5l16.7-5v10l6.6 5v11.7h-11.6l-5 5-10-3.3v-21.7z"/>
		<path id="Path 50" class="s40" d="m833.3 552.9v-10l11.7 1.6v10z"/>
		<path id="Path 51" class="s41" d="m630 549.5l11.7-6.6h13.3 3.3l-13.3 1.6 5 10-1.7 25-11.6 15-15 3.4-13.4-5 8.4-5v-16.7l10-3.3z"/>
		<path id="Path 52" class="s42" d="m406.7 546.2l26.6-1.7 11.7 1.7 8.3 6.7 3.4 16.6-3.4 3.4h-35l-15-3.4z"/>
		<path id="Path 53" class="s16" d="m248.3 547.9l8.4-5h8.3v3.3l-11.7 8.3z"/>
		<path id="Path 54" class="s43" d="m216.7 551.2l6.6-8.3 8.4 1.6v5h-1.7l-10 3.4z"/>
		<path id="Path 55" class="s9" d="m198.3 551.2v-8.3h6.7v10z"/>
		<path id="Path 56" class="s36" d="m433.3 544.5l1.7-3.3 10 1.7v3.3z"/>
		<path id="Path 57" class="s39" d="m276.7 542.9l3.3-1.7h6.7v13.3h-3.4-8.3z"/>
		<path id="Path 58" class="s44" d="m265 542.9h11.7l-1.7 11.6h8.3l-3.3 11.7 6.7 6.7v6.6h-16.7l-8.3-5-1.7-13.3 6.7-8.3-1.7-6.7z"/>
		<path id="Path 59" class="s45" d="m286.7 541.2l10-1.7v16.7l-10-1.7z"/>
		<path id="Path 60" class="s46" d="m488.3 539.5l15-1.6 5 8.3h6.7l1.7 8.3-3.4 8.4-20 3.3h-10l-3.3-21.7z"/>
		<path id="Path 61" class="s9" d="m401.7 539.5l8.3-1.6 23.3 1.6 1.7 1.7-1.7 3.3-26.6 1.7z"/>
		<path id="Path 62" class="s23" d="m296.7 539.5h10l-1.7 16.7h-8.3z"/>
		<path id="Path 63" class="s47" d="m728.3 544.5l1.7-8.3h6.7v10z"/>
		<path id="Path 64" class="s29" d="m451.7 537.9l36.6-1.7v3.3l-8.3 5 3.3 21.7-16.6 3.3h-10l-3.4-16.6-8.3-6.7v-3.3z"/>
		<path id="Path 65" class="s12" d="m333.3 537.9l3.4-1.7 65 3.3 5 6.7-3.4 23.3-16.6 3.4-6.7-6.7-3.3-13.3-26.7-3.4-11.7-3.3z"/>
		<path id="Path 66" class="s17" d="m306.7 539.5l11.6-3.3h5l-5 11.7 13.4 13.3-18.4 1.7-8.3-6.7z"/>
		<path id="Path 67" class="s29" d="m323.3 536.2l10 1.7 5 8.3 11.7 3.3v13.4h-6.7l-11.6-1.7-13.4-13.3z"/>
		<path id="Path 68" class="s29" d="m505 534.5l6.7-1.6 3.3 1.6v11.7h-6.7l-5-8.3z"/>
		<path id="Path 69" class="s27" d="m488.3 536.2l11.7-3.4 5 1.7-1.7 3.4-15 1.6z"/>
		<path id="Path 70" class="s48" d="m180 537.9l10-5 8.3 5v5 8.3l-5 1.7-11.6-1.7z"/>
		<path id="Path 71" class="s49" d="m626.7 532.9l13.3-1.7h10l5 11.7h-13.3l-11.7 6.6-25-3.3-3.3 8.3h-8.4l-6.6 6.7-13.4-1.7-6.6-5v-10l41.6-6.6z"/>
		<path id="Path 72" class="s50" d="m515 534.5l15-3.3 13.3 1.7h6.7v16.6l-3.3 1.7-11.7 6.7-10 1.6-8.3-5-1.7-8.3z"/>
		<path id="Path 73" class="s27" d="m550 532.9l15-5.1 1.7 16.7-16.7 5z"/>
		<path id="Path 74" class="s51" d="m683.3 542.9v-16.7h3.4 13.3 6.7v15z"/>
		<path id="Path 75" class="s30" d="m666.7 527.8l16.6-1.6v16.7h-25-3.3l-5-11.7z"/>
		<path id="Path 76" class="s52" d="m231.7 544.5l6.6-5-1.6-10 6.6-3.3 10 3.3 3.4 13.4-8.4 5-16.6 1.6z"/>
		<path id="Path 77" class="s50" d="m586.7 526.2l16.6-1.7 3.4 1.7 1.6 11.7-41.6 6.6-1.7-16.7h1.7z"/>
		<path id="Path 78" class="s53" d="m433.3 539.5l3.4-15h1.6l11.7 5 1.7 8.4-6.7 5-10-1.7z"/>
		<path id="Path 79" class="s54" d="m318.3 529.5l15-5h3.4v11.7l-3.4 1.7-10-1.7h-5z"/>
		<path id="Path 80" class="s3" d="m190 532.9v-8.4l15 5-6.7 8.4z"/>
		<path id="Path 81" class="s2" d="m180 537.9l-1.7-10.1 11.7-3.3v8.4z"/>
		<path id="Path 82" class="s6" d="m155 524.5h1.7v1.7h-1.7z"/>
		<path id="Path 83" class="s10" d="m730 536.2l-6.7-5v-8.4h10l3.4 13.4z"/>
		<path id="Path 84" class="s55" d="m626.7 532.9v-10.1h13.3v8.4z"/>
		<path id="Path 85" class="s27" d="m606.7 526.2l20-3.4v10l-18.4 5.1z"/>
		<path id="Path 86" class="s10" d="m243.3 526.2l10-3.4v6.7z"/>
		<path id="Path 87" class="s56" d="m640 522.8l5-1.6h16.7 5v6.6l-16.7 3.4h-10z"/>
		<path id="Path 88" class="s1" d="m798.3 549.5l5-30h6.7l5 13.4-11.7 18.3h-5z"/>
		<path id="Path 89" class="s52" d="m778.3 521.2l18.4-1.7h6.6l-5 30h-10-1.6v-8.3l-10-8.4z"/>
		<path id="Path 90" class="s20" d="m706.7 526.2l5-6.7h8.3l3.3 3.3v8.4l6.7 5-1.7 8.3-21.6-3.3z"/>
		<path id="Path 91" class="s14" d="m686.7 526.2v-6.7l11.6 1.7 1.7 5z"/>
		<path id="Path 92" class="s12" d="m666.7 521.2l10-1.7h10v6.7h-3.4l-16.6 1.6z"/>
		<path id="Path 93" class="s57" d="m410 522.8v-3.3h15l11.7 5-3.4 15-23.3-1.6z"/>
		<path id="Path 94" class="s58" d="m336.7 524.5l26.6-5 46.7 3.3v15.1l-8.3 1.6-65-3.3z"/>
		<path id="Path 95" class="s59" d="m500 532.9v-15.1h13.3l-1.6 15.1-6.7 1.6z"/>
		<path id="Path 96" class="s8" d="m253.3 522.8l3.4-5 10 1.7 5 13.4 8.3 1.6v6.7l-3.3 1.7h-11.7-8.3l-3.4-13.4z"/>
		<path id="Path 97" class="s39" d="m760 547.9v-11.7l-8.3-6.7-1.7-13.3h3.3 20l5 5-1.6 11.7 10 8.3v8.3z"/>
		<path id="Path 98" class="s60" d="m733.3 522.8v-6.6h10 6.7l1.7 13.3 8.3 6.7v11.7l-23.3-1.7v-10z"/>
		<path id="Path 99" class="s48" d="m280 534.5l1.7-18.3 8.3 1.6 8.3 8.4 20 3.3v6.7l-11.6 3.3h-10l-10 1.7h-6.7z"/>
		<path id="Path 100" class="s61" d="m513.3 517.8l16.7-3.3v16.7l-15 3.3-3.3-1.6z"/>
		<path id="Path 101" class="s1" d="m223.3 539.5l-5-25h6.7l3.3 20z"/>
		<path id="Path 102" class="s62" d="m566.7 527.8v-15h16.6l3.4 13.4z"/>
		<path id="Path 103" class="s59" d="m543.3 517.8l11.7-5h11.7v15h-1.7l-15 5.1h-6.7z"/>
		<path id="Path 104" class="s39" d="m530 514.5l6.7-1.7 6.6 5v15.1l-13.3-1.7z"/>
		<path id="Path 105" class="s63" d="m470 516.2l15 1.6 1.7-5 13.3 5v15l-11.7 3.4-36.6 1.7-1.7-8.4-11.7-5 1.7-6.7 16.7-1.6z"/>
		<path id="Path 106" class="s39" d="m583.3 512.8l1.7-3.3h11.7 6.6v15l-16.6 1.7z"/>
		<path id="Path 107" class="s31" d="m225 514.5l6.7-5h25v8.3l-3.4 5-10 3.4-6.6 3.3 1.6 10-6.6 5-8.4-1.6v-3.4l5-5z"/>
		<path id="Path 108" class="s64" d="m833.3 542.9l-3.3-36.7 25 20 6.7 13.3-3.4 13.4-13.3 1.6v-10z"/>
		<path id="Path 109" class="s61" d="m661.7 521.2l-1.7-15h16.7v13.3l-10 1.7z"/>
		<path id="Path 110" class="s52" d="m645 521.2l-1.7-15h16.7l1.7 15z"/>
		<path id="Path 111" class="s47" d="m603.3 509.5l10-3.3h13.4 16.6l1.7 15-5 1.6h-13.3l-20 3.4-3.4-1.7z"/>
		<path id="Path 112" class="s65" d="m536.7 512.8v-6.6h16.6l1.7 6.6-11.7 5z"/>
		<path id="Path 113" class="s2" d="m256.7 509.5l1.6-3.3 10 8.3-1.6 5-10-1.7z"/>
		<path id="Path 114" class="s52" d="m333.3 516.2l-10-3.4 1.7-8.3h6.7z"/>
		<path id="Path 115" class="s59" d="m753.3 516.2v-13.4h3.4l33.3 1.7 6.7 6.7v8.3l-18.4 1.7-5-5z"/>
		<path id="Path 116" class="s63" d="m743.3 516.2v-13.4h10v13.4h-3.3z"/>
		<path id="Path 117" class="s66" d="m733.3 516.2l3.4-13.4h6.6v13.4z"/>
		<path id="Path 118" class="s26" d="m676.7 506.2l3.3-3.4 6.7 1.7 13.3 1.7h10 10v13.3h-8.3l-5 6.7h-6.7l-1.7-5-11.6-1.7h-10z"/>
		<path id="Path 119" class="s1" d="m331.7 504.5l31.6-1.7v16.7l-26.6 5h-3.4v-8.3z"/>
		<path id="Path 120" class="s54" d="m160 522.8l46.7-21.6v6.6l11.6 6.7 5 25v3.4l-6.6 8.3-6.7 5-5-3.3v-10h-6.7v-5l6.7-8.4-15-5-11.7 3.3 1.7 10.1 1.7 13.3-1.7 8.3-13.3 5h-11.7l-13.3-5-5-8.3 3.3-13.3 15-11.7 1.7-1.7z"/>
		<path id="Path 121" class="s8" d="m410 519.5l-3.3-20h6.6 13.4l-1.7 20z"/>
		<path id="Path 122" class="s67" d="m426.7 499.5l10-1.7 3.3 20-1.7 6.7h-1.6l-11.7-5z"/>
		<path id="Path 123" class="s43" d="m363.3 502.8l43.4-3.3 3.3 20v3.3l-46.7-3.3z"/>
		<path id="Path 124" class="s32" d="m258.3 506.2l5-8.4h11.7v10l6.7 8.4-1.7 18.3-8.3-1.6-5-13.4 1.6-5z"/>
		<path id="Path 125" class="s4" d="m808.3 501.2l8.4-5h8.3l5 8.3v1.7l3.3 36.7v10l-30-1.7 11.7-18.3-5-13.4z"/>
		<path id="Path 126" class="s9" d="m553.3 506.2v-10h16.7 13.3l1.7 13.3-1.7 3.3h-16.6-11.7z"/>
		<path id="Path 127" class="s68" d="m536.7 506.2l-5-10h21.6v10z"/>
		<path id="Path 128" class="s47" d="m275 497.8l13.3-1.6h1.7v21.6l-8.3-1.6-6.7-8.4z"/>
		<path id="Path 129" class="s12" d="m596.7 509.5v-15h3.3l13.3 5v6.7l-10 3.3z"/>
		<path id="Path 130" class="s69" d="m583.3 496.2l13.4-1.7v15h-11.7z"/>
		<path id="Path 131" class="s9" d="m486.7 512.8l-3.4-18.3h3.4l45 1.7 5 10v6.6l-6.7 1.7-16.7 3.3h-13.3z"/>
		<path id="Path 132" class="s43" d="m456.7 496.2l13.3-1.7v21.7h-13.3z"/>
		<path id="Path 133" class="s70" d="m290 496.2l26.7-1.7 8.3 10-1.7 8.3 10 3.4v8.3l-15 5-20-3.3-8.3-8.4z"/>
		<path id="Path 134" class="s70" d="m743.3 492.8v10h-6.6v-10z"/>
		<path id="Path 135" class="s1" d="m720 506.2v-13.4h16.7v10l-3.4 13.4v6.6h-10l-3.3-3.3z"/>
		<path id="Path 136" class="s3" d="m700 506.2l3.3-13.4h6.7v13.4z"/>
		<path id="Path 137" class="s27" d="m680 502.8l1.7-10h5v11.7z"/>
		<path id="Path 138" class="s22" d="m643.3 506.2v-13.4l16.7 1.7v11.7z"/>
		<path id="Path 139" class="s16" d="m626.7 494.5l16.6-1.7v13.4h-16.6z"/>
		<path id="Path 140" class="s13" d="m613.3 499.5v-6.7l13.4 1.7v11.7h-13.4z"/>
		<path id="Path 141" class="s14" d="m600 494.5v-1.7h13.3v6.7z"/>
		<path id="Path 142" class="s65" d="m470 494.5h13.3l3.4 18.3-1.7 5-15-1.6z"/>
		<path id="Path 143" class="s10" d="m436.7 497.8l3.3-5h13.3l3.4 3.4v20l-16.7 1.6z"/>
		<path id="Path 144" class="s19" d="m660 494.5l13.3-3.3 8.4 1.6-1.7 10-3.3 3.4h-16.7z"/>
		<path id="Path 145" class="s2" d="m710 492.8v-3.3l10 3.3v13.4h-10z"/>
		<path id="Path 146" class="s71" d="m686.7 492.8l6.6-3.3h10v3.3l-3.3 13.4-13.3-1.7z"/>
		<path id="Path 147" class="s0" d="m825 496.2l1.7-10h10l3.3 10-10 8.3z"/>
		<path id="Path 148" class="s10" d="m808.3 501.2l-5-1.7v-13.3h3.4l10 5v5z"/>
		<path id="Path 149" class="s72" d="m703.3 489.5l3.4-3.3 3.3 3.3v3.3h-6.7z"/>
		<path id="Path 150" class="s73" d="m288.3 496.2l3.4-10 23.3-1.7 1.7 10-26.7 1.7z"/>
		<path id="Path 151" class="s51" d="m756.7 502.8v-20h20l13.3 3.4h13.3v13.3l5 1.7 1.7 18.3h-6.7-6.6v-8.3l-6.7-6.7z"/>
		<path id="Path 152" class="s39" d="m743.3 492.8l3.4-10h10v20h-3.4-10z"/>
		<path id="Path 153" class="s74" d="m570 496.2v-13.4h21.7l8.3 10v1.7h-3.3l-13.4 1.7z"/>
		<path id="Path 154" class="s66" d="m453.3 492.8l5-10h25l3.4 11.7h-3.4-13.3l-13.3 1.7z"/>
		<path id="Path 155" class="s67" d="m776.7 482.8v-10h10l3.3 13.4z"/>
		<path id="Path 156" class="s73" d="m673.3 491.2v-18.4h20v16.7l-6.6 3.3h-5z"/>
		<path id="Path 157" class="s57" d="m413.3 499.5v-26.7h95l28.4 6.7h30l3.3 3.3v13.4h-16.7-21.6l-45-1.7-3.4-11.7h-25l-5 10h-13.3l-3.3 5-10 1.7z"/>
		<path id="Path 158" class="s66" d="m693.3 472.8l3.4-1.6h10v15l-3.4 3.3h-10z"/>
		<path id="Path 159" class="s75" d="m653.3 472.8v-1.6h43.4l-3.4 1.6h-20z"/>
		<path id="Path 160" class="s76" d="m653.3 471.2v1.6h-53.3v-1.6z"/>
		<path id="Path 161" class="s77" d="m600 472.8l-11.7-1.6h11.7z"/>
		<path id="Path 162" class="s34" d="m826.7 486.2l-3.4-16.7 13.4 6.7v10z"/>
		<path id="Path 163" class="s57" d="m708.3 471.2l16.7-1.7h6.7 10l5 13.3-3.4 10h-6.6-16.7l-10-3.3-3.3-3.3v-15z"/>
		<path id="Path 164" class="s54" d="m566.7 479.5v-10l18.3 1.7h3.3l11.7 1.6h53.3 20v18.4l-13.3 3.3-16.7-1.7-16.6 1.7-13.4-1.7h-13.3l-8.3-10h-21.7z"/>
		<path id="Path 165" class="s66" d="m315 484.5l6.7-8.3h40l15-6.7 36.6 3.3v26.7h-6.6l-43.4 3.3-31.6 1.7h-6.7l-8.3-10z"/>
		<path id="Path 166" class="s78" d="m731.7 469.5l11.6-1.7-1.6 1.7z"/>
		<path id="Path 167" class="s28" d="m760 466.1l5-1.6h3.3 6.7l1.7 8.3v10h-20-10l-5-13.3 1.6-1.7h5l8.4-1.7z"/>
		<path id="Path 168" class="s33" d="m768.3 464.5l6.7-1.7v1.7z"/>
		<path id="Path 169" class="s79" d="m776.7 462.8l6.6-1.7h1.7 1.7v11.7h-10l-1.7-8.3v-1.7z"/>
		<path id="Path 170" class="s44" d="m785 461.1l5-1.6-3.3 1.6z"/>
		<path id="Path 171" class="s61" d="m528.3 464.5l15-5 3.4 10z"/>
		<path id="Path 172" class="s1" d="m793.3 459.5l6.7-1.7h1.7 5v28.4h-3.4-13.3l-3.3-13.4v-11.7l3.3-1.6z"/>
		<path id="Path 173" class="s44" d="m801.7 457.8l5-1.7v1.7z"/>
		<path id="Path 174" class="s71" d="m806.7 456.1l11.6-1.6 5 15 3.4 16.7-1.7 10h-8.3v-5l-10-5v-28.4z"/>
		<path id="Path 175" class="s41" d="m566.7 469.5v-15h3.3l13.3 13.3 1.7 3.4z"/>
		<path id="Path 176" class="s33" d="m855 476.2l-8.3-5 1.6-18.4 11.7 6.7z"/>
		<path id="Path 177" class="s77" d="m818.3 454.5l30-1.7-1.6 18.4 8.3 5-5 13.3-10 6.7-3.3-10v-10l-13.4-6.7z"/>
		<path id="Path 178" class="s48" d="m463.3 451.1l6.7-1.6h1.7l3.3 5 25 3.3 23.3 5 5 1.7 18.4 5h20v10h-30l-28.4-6.7h-95l-36.6-3.3-15 6.7h-40l-6.7 8.3-23.3 1.7-3.4 10-13.3 1.6h-11.7l-5 8.4-1.6 3.3h-25l-6.7 5h-6.7l-11.6-6.7v-6.6l73.3-28.4 6.7-1.6 6.6-1.7h1.7l6.7-1.7 6.6-1.7h1.7l6.7-1.6h1.6l6.7-1.7h3.3l6.7-1.7h1.7l8.3-1.6h3.3l11.7-1.7 28.3-1.7 16.7-1.6h10l28.3-1.7h5l11.7-1.7z"/>
		<path id="Path 179" class="s34" d="m470 449.5l3.3-1.7-1.6 1.7z"/>
		<path id="Path 180" class="s11" d="m566.7 454.5l-3.4-11.7h3.4l5 1.7-1.7 10z"/>
		<path id="Path 181" class="s63" d="m473.3 447.8l20-6.7 6.7 3.4v13.3l-25-3.3-3.3-5z"/>
		<path id="Path 182" class="s52" d="m543.3 459.5v-20l20 3.3 3.4 11.7v15h-20z"/>
		<path id="Path 183" class="s47" d="m493.3 441.1l21.7-8.3 8.3 30-23.3-5v-13.3z"/>
		<path id="Path 184" class="s39" d="m515 432.8l13.3-5 8.4 1.7 6.6 10v20l-15 5-5-1.7z"/>
		<path id="Path 185" class="s7" d="m528.3 427.8l23.4-8.3 15 3.3v20h-3.4l-20-3.3-6.6-10z"/>
		<path id="Path 186" class="s6" d="m566.7 422.8l1.6-10 10 3.3 8.4 20-3.4 31.7-13.3-13.3 1.7-10-5-1.7z"/>
		<path id="Path 187" class="s0" d="m551.7 419.5l16.6-6.7-1.6 10z"/>
	</g>
</svg>