<svg version="1.2" xmlns="http://www.w3.org/2000/svg" viewBox="0 0 1000 1000" width="1000" height="1000">
	<title>Pimephales_notatus</title>
	<style>
		.s0 { opacity: .3;fill: #c6cac6 } 
		.s1 { opacity: .6;fill: #d9dbdc } 
		.s2 { opacity: .2;fill: #dddedf } 
		.s3 { opacity: 1;fill: #929697 } 
		.s4 { opacity: 1;fill: #94999e } 
		.s5 { opacity: .7;fill: #cacccc } 
		.s6 { opacity: .9;fill: #8c99a7 } 
		.s7 { fill: #726f53 } 
		.s8 { opacity: 1;fill: #6b694e } 
		.s9 { fill: #b7b8b4 } 
		.s10 { opacity: 1;fill: #959791 } 
		.s11 { opacity: .5;fill: #d7d9d9 } 
		.s12 { opacity: .3;fill: #aba8b2 } 
		.s13 { opacity: .3;fill: #8d8555 } 
		.s14 { opacity: .3;fill: #868981 } 
		.s15 { opacity: .3;fill: #a0a08d } 
		.s16 { opacity: 1;fill: #62624b } 
		.s17 { opacity: 1;fill: #676752 } 
		.s18 { opacity: 1;fill: #6e6d58 } 
		.s19 { fill: #afb1b0 } 
		.s20 { fill: #c7cacb } 
		.s21 { opacity: .3;fill: #4c5a66 } 
		.s22 { fill: #8a8a7d } 
		.s23 { fill: #79755a } 
		.s24 { opacity: 1;fill: #7f7b63 } 
		.s25 { fill: #909189 } 
		.s26 { opacity: .3;fill: #dde0e0 } 
		.s27 { fill: #9c9f9e } 
		.s28 { opacity: 1;fill: #a0a4ad } 
		.s29 { opacity: 1;fill: #5a5b48 } 
		.s30 { opacity: 1;fill: #959386 } 
		.s31 { opacity: 1;fill: #787766 } 
		.s32 { opacity: 1;fill: #535641 } 
		.s33 { fill: #8c8e8a } 
		.s34 { opacity: 1;fill: #4c4f3b } 
		.s35 { opacity: 1;fill: #a4a6a3 } 
		.s36 { fill: #8e8a76 } 
		.s37 { fill: #cdcfce } 
		.s38 { fill: #b2b6b7 } 
		.s39 { fill: #a3a397 } 
		.s40 { fill: #a9acaa } 
		.s41 { fill: #a9a89e } 
		.s42 { fill: #938f7b } 
		.s43 { opacity: 1;fill: #6f736c } 
		.s44 { fill: #b6babc } 
		.s45 { opacity: .7;fill: #7c7d78 } 
		.s46 { fill: #aeada5 } 
		.s47 { opacity: .7;fill: #bfbebf } 
		.s48 { opacity: 1;fill: #a39d85 } 
		.s49 { fill: #818279 } 
		.s50 { fill: #878473 } 
		.s51 { fill: #c1c1bc } 
		.s52 { fill: #c3c6c8 } 
		.s53 { opacity: .7;fill: #aaaaaa } 
		.s54 { fill: #bec2c4 } 
		.s55 { opacity: .7;fill: #dddfdf } 
		.s56 { fill: #babec0 } 
		.s57 { fill: #7a7d74 } 
		.s58 { fill: #868983 } 
		.s59 { fill: #b8b2a3 } 
		.s60 { fill: #d2d3d1 } 
		.s61 { fill: #d7dad9 } 
		.s62 { fill: #dcdede } 
		.s63 { opacity: 1;fill: #696b61 } 
		.s64 { fill: #9c9b8e } 
		.s65 { fill: #d0cec7 } 
		.s66 { fill: #d4d6d5 } 
		.s67 { opacity: .5;fill: #bbbcbc } 
		.s68 { opacity: 1;fill: #747a80 } 
		.s69 { opacity: 1;fill: #868c91 } 
		.s70 { opacity: 1;fill: #83816d } 
		.s71 { fill: #cbc9c2 } 
		.s72 { opacity: 1;fill: #c1b9ac } 
		.s73 { fill: #b7a07b } 
		.s74 { opacity: 1;fill: #847b5e } 
		.s75 { fill: #b29e82 } 
		.s76 { fill: #b8ac95 } 
		.s77 { fill: #beb899 } 
		.s78 { fill: #99947f } 
		.s79 { opacity: 1;fill: #8c846b } 
		.s80 { fill: #c8c1b5 } 
		.s81 { opacity: .7;fill: #9d9c94 } 
		.s82 { opacity: 1;fill: #ab9876 } 
		.s83 { opacity: 1;fill: #9a9373 } 
		.s84 { opacity: 1;fill: #aba58b } 
		.s85 { opacity: .3;fill: #b1b1a0 } 
	</style>
	<g id="Background">
		<path id="Path 0" class="s0" d="m115 459h1v1h-1z"/>
		<path id="Path 1" class="s1" d="m829 409l1-2h12v2z"/>
		<path id="Path 2" class="s2" d="m854 507h1v1h-1z"/>
		<path id="Path 3" class="s3" d="m819 411l6-2h2l2 32 4 3v2l-1 2-5 5-5 5-2 1-3-2 2-37-4-4v-5z"/>
		<path id="Path 4" class="s4" d="m833 444l-4-3-2-32h2 13l5 2 1 12-6 10v4l-6 6z"/>
		<path id="Path 5" class="s5" d="m328 412l8-1-1 2h-7z"/>
		<path id="Path 6" class="s6" d="m335 413l1-2h13l-3 2z"/>
		<path id="Path 7" class="s7" d="m346 413l3-2h10l2 15-6 5-7 6-1-3-13 1-1-10 2-4h8z"/>
		<path id="Path 8" class="s8" d="m361 426l-2-15h8l14 2h14 27 11v4l10 8h4l6-6h14l2 6-6 12-8 3-4-1-1-3-7 2-4-4-10 3-3-4-7 1-6-3-6 3-6-3-16 1-5-5h-5z"/>
		<path id="Path 9" class="s6" d="m381 413l-14-2h14z"/>
		<path id="Path 10" class="s9" d="m381 413v-2h14v2z"/>
		<path id="Path 11" class="s5" d="m395 413v-2l27 1v1z"/>
		<path id="Path 12" class="s10" d="m804 414l9-3h2v5l4 4-2 37 3 2-3 4-5 5h-5l-6-11 2-25-4-5-15-4 1-2h1l6-3 4-2 4-1z"/>
		<path id="Path 13" class="s11" d="m842 433l6-10-1-12 4 6-2 8z"/>
		<path id="Path 14" class="s2" d="m299 414l11-2v1l-10 1z"/>
		<path id="Path 15" class="s12" d="m310 413v-1h8v1h-1z"/>
		<path id="Path 16" class="s13" d="m318 413v-1h10v1z"/>
		<path id="Path 17" class="s14" d="m422 413v-1h32v1h-1-20z"/>
		<path id="Path 18" class="s15" d="m454 413v-1h11v1z"/>
		<path id="Path 19" class="s12" d="m465 413v-1h15v1h-9-4z"/>
		<path id="Path 20" class="s0" d="m480 413v-1h10v1h-3z"/>
		<path id="Path 21" class="s2" d="m490 413v-1l12 2h-1z"/>
		<path id="Path 22" class="s9" d="m300 414l10-1h7l-17 2z"/>
		<path id="Path 23" class="s8" d="m300 415l17-2h1 10 7 11l-3 8h-8l-2 4-28 2-1-3-27 1v-9l2-1h13z"/>
		<path id="Path 24" class="s16" d="m453 419l-6 6h-4l-10-8v-4h20z"/>
		<path id="Path 25" class="s17" d="m453 419v-6h1 11 2v6z"/>
		<path id="Path 26" class="s18" d="m467 419v-6h4l8 2v8l-10 2z"/>
		<path id="Path 27" class="s19" d="m479 415l-8-2h9 7v2z"/>
		<path id="Path 28" class="s20" d="m487 415v-2h3l11 1v1h-8z"/>
		<path id="Path 29" class="s2" d="m276 416l3-2v1l-2 1z"/>
		<path id="Path 30" class="s0" d="m279 415v-1h13v1z"/>
		<path id="Path 31" class="s21" d="m292 415v-1h7 1v1z"/>
		<path id="Path 32" class="s22" d="m501 415v-1h1l5 1 9 1-1 11-14-3z"/>
		<path id="Path 33" class="s14" d="m507 415l-5-1h5z"/>
		<path id="Path 34" class="s0" d="m507 415v-1l9 2z"/>
		<path id="Path 35" class="s23" d="m479 423v-8h8 6l1 9h7l14 3 4 4h6l2 4h4v11l-1 2-27-2-4-3-6 2h-6l-1-3h-9l-1-3 9-8v-6z"/>
		<path id="Path 36" class="s24" d="m501 424h-7l-1-9h8z"/>
		<path id="Path 37" class="s0" d="m260 417l11-1-11 2z"/>
		<path id="Path 38" class="s17" d="m260 418l11-2h5 1v9l-4 5 1 4-3 6-4-5h-4-4v-16z"/>
		<path id="Path 39" class="s25" d="m515 427l1-11h9l2 2v9l-2 4h-6z"/>
		<path id="Path 40" class="s11" d="m527 418l-2-2 11 3h-1z"/>
		<path id="Path 41" class="s26" d="m790 418l6-2-4 2z"/>
		<path id="Path 42" class="s1" d="m249 421l11-4v1l-1 1z"/>
		<path id="Path 43" class="s27" d="m527 427v-9l8 1v8z"/>
		<path id="Path 44" class="s1" d="m786 421l4-3h2z"/>
		<path id="Path 45" class="s16" d="m249 421l10-2v16l-2 1h-4l-8-1v-12l3-2z"/>
		<path id="Path 46" class="s28" d="m535 427v-8h1l16 3 6 1 14 13 10 5-33-4-12-3z"/>
		<path id="Path 47" class="s15" d="m238 424l10-3-3 2z"/>
		<path id="Path 48" class="s0" d="m776 426l9-5-1 2z"/>
		<path id="Path 49" class="s29" d="m238 424l7-1v12l-8 1-3-10 2-2z"/>
		<path id="Path 50" class="s7" d="m469 425l10-2 6 2v6l-9 8-5-1-2 3h-4l-2-4z"/>
		<path id="Path 51" class="s30" d="m776 426l8-3 15 4 4 5-2 25h-12l-4-15-13-1-15 12-5 9-9 1v-8-3l8-3 3-6h3l3-6 12-4 1-6 1-1z"/>
		<path id="Path 52" class="s0" d="m229 426l7-2-2 2z"/>
		<path id="Path 53" class="s18" d="m277 425l27-1 1 3v15l-18 2-2-1-7-10-4 1-1-4z"/>
		<path id="Path 54" class="s31" d="m305 427l28-2 1 10v2h-6l-8 2-4-3-5 8-6-2z"/>
		<path id="Path 55" class="s26" d="m216 427l8-1v1z"/>
		<path id="Path 56" class="s15" d="m224 427v-1h3v1z"/>
		<path id="Path 57" class="s32" d="m227 427v-1h2 5l3 10v9h-7l-1-2z"/>
		<path id="Path 58" class="s33" d="m355 431l6-5 14 1v1l-9 8h-6v-3z"/>
		<path id="Path 59" class="s0" d="m768 429l6-3-1 1z"/>
		<path id="Path 60" class="s1" d="m204 429l10-2-1 2z"/>
		<path id="Path 61" class="s34" d="m213 429l1-2h2 8 3l2 16-10 2h-2z"/>
		<path id="Path 62" class="s35" d="m375 428v-1h5l5 5v4l-8-1z"/>
		<path id="Path 63" class="s36" d="m525 431l2-4h8l2 7-6 1h-4z"/>
		<path id="Path 64" class="s4" d="m768 429l5-2-1 6-12 4v-4l1-1z"/>
		<path id="Path 65" class="s37" d="m366 436l9-8 2 7-5 4h-1-4z"/>
		<path id="Path 66" class="s32" d="m194 431l8-2h2 9l4 16h-12-3l-13-2-2 7-5 1-3-5-14-1v3l8 3v11l-3 3-7 1-10-5-2 7-3 5-7 3-3 4h-5l4-7-3-28 2-2 5-2h2l13-3 8-2h4l7-2h1l9-1 6-2z"/>
		<path id="Path 67" class="s12" d="m176 434l10-3-1 2z"/>
		<path id="Path 68" class="s19" d="m185 433l1-2h5z"/>
		<path id="Path 69" class="s38" d="m348 437l7-6 5 2v3 15l-8 1-7-3-2-2v-6z"/>
		<path id="Path 70" class="s39" d="m385 432l16-1 6 3v15l-7 1-11 1v-4-10l-4-1z"/>
		<path id="Path 71" class="s35" d="m407 434l6-3 6 3v7l-2 12h-6l-4-4z"/>
		<path id="Path 72" class="s0" d="m757 433l4-1-1 1z"/>
		<path id="Path 73" class="s40" d="m274 434l4-1 7 10-14 2v-5z"/>
		<path id="Path 74" class="s41" d="m419 434l7-1 3 4-2 4h-8z"/>
		<path id="Path 75" class="s27" d="m755 434l2-1h3v4l-3 6h-3l-15 3-2 9-6 3v7h-5l-7-2v-6l1-8h-8l2-3h2l6-2h1l8-3 11-3 8-2h1z"/>
		<path id="Path 76" class="s42" d="m334 435l13-1 1 3-5 4-9-4z"/>
		<path id="Path 77" class="s19" d="m429 437l10-3 4 4 7-2 1 3v6l4 3v3l-4 1v7h-12-9l-3-3v-15z"/>
		<path id="Path 78" class="s7" d="m531 435l6-1 12 3v12h-4l-14-3z"/>
		<path id="Path 79" class="s17" d="m237 436l8-1 8 1-2 5-9 5-5-1z"/>
		<path id="Path 80" class="s43" d="m257 436l2-1h4l-1 6h-3z"/>
		<path id="Path 81" class="s27" d="m262 441l1-6h4l4 5v5h-4z"/>
		<path id="Path 82" class="s40" d="m372 439l5-4 8 1 4 1v10h-6l-4-1-1-5z"/>
		<path id="Path 83" class="s14" d="m155 437l9-1-8 2z"/>
		<path id="Path 84" class="s25" d="m242 446l9-5 2-5h4l2 5-1 4-3 2-8 6-5-2z"/>
		<path id="Path 85" class="s44" d="m305 442l6 2 5-8 4 3 8-2v7l5 3 2 20 4 12-2 1-6-1-2-5-8-2-4 2-28-6-2-24z"/>
		<path id="Path 86" class="s41" d="m360 451v-15h6l1 3h4v10l-1 2z"/>
		<path id="Path 87" class="s45" d="m143 441l12-4 1 1z"/>
		<path id="Path 88" class="s39" d="m333 447l-5-3v-7h6l9 4v6z"/>
		<path id="Path 89" class="s39" d="m455 440l8-3 2 4h4v6h-12z"/>
		<path id="Path 90" class="s18" d="m549 449v-12l33 4h4l9 2h3l1 2v4 7h-6l-7-1-24-2-11-1z"/>
		<path id="Path 91" class="s46" d="m469 441l2-3 5 1 1 3h9l1 3v4l-18-2z"/>
		<path id="Path 92" class="s46" d="m371 449v-10h1l6 2 1 5-1 3z"/>
		<path id="Path 93" class="s40" d="m455 448l-4-3v-6l4 1 2 7z"/>
		<path id="Path 94" class="s0" d="m132 443l9-2-5 2z"/>
		<path id="Path 95" class="s19" d="m258 445l1-4h3l5 4v18l-8 3-3 5h-5v-11l-4-4v-3l8-6 4 2z"/>
		<path id="Path 96" class="s46" d="m417 453l2-12h8v15l3 3-5 8h-4v-11z"/>
		<path id="Path 97" class="s38" d="m595 443l-9-2h8z"/>
		<path id="Path 98" class="s12" d="m595 443l-1-2 9 1v1h-5z"/>
		<path id="Path 99" class="s42" d="m743 463l9-1 5-9 15-12 13 1 4 15v8h-6l-11-2-10 4-1 6-8 6-8-4-2-8z"/>
		<path id="Path 100" class="s2" d="m603 443v-1l5 1z"/>
		<path id="Path 101" class="s47" d="m116 459l2-5 14-11h4l-2 2-14 10-5 9v-4z"/>
		<path id="Path 102" class="s20" d="m187 450l2-7 13 2 3 2 4 1v5l-7 5 3 15h-5l-3-6h-10v-8z"/>
		<path id="Path 103" class="s18" d="m219 445l10-2 1 2-1 8h-6l-4-1z"/>
		<path id="Path 104" class="s38" d="m271 445l14-2 2 1 2 24-11 1-7-2-4-4v-18z"/>
		<path id="Path 105" class="s41" d="m493 445l6-2 4 3v3h-6-4z"/>
		<path id="Path 106" class="s27" d="m599 445l-1-2h5v2z"/>
		<path id="Path 107" class="s20" d="m603 445v-2h5v2z"/>
		<path id="Path 108" class="s12" d="m608 445v-2l8 1v1h-5z"/>
		<path id="Path 109" class="s10" d="m737 455l2-9 15-3-3 6-8 3v3z"/>
		<path id="Path 110" class="s2" d="m833 444l3-1-3 3z"/>
		<path id="Path 111" class="s43" d="m205 445h12 2v7l-10 1v-5l-4-1z"/>
		<path id="Path 112" class="s2" d="m616 445v-1l6 1z"/>
		<path id="Path 113" class="s34" d="m115 464l5-9 14-10 3 28-4 7-8 6-10-12z"/>
		<path id="Path 114" class="s48" d="m173 462v-11l-8-3v-3l14 1 3 5 1 8v5z"/>
		<path id="Path 115" class="s49" d="m205 447l-3-2h3z"/>
		<path id="Path 116" class="s50" d="m229 453l1-8h7l5 1v5l-6 4z"/>
		<path id="Path 117" class="s38" d="m255 447l3-2 1 4z"/>
		<path id="Path 118" class="s19" d="m487 449v-4h6v4 2h-6z"/>
		<path id="Path 119" class="s46" d="m503 446l27 2 1-2 14 3 2 8v6l-2 18h-10v-2l-6 2-10-2-1 10-5-1v-6l-5-1v-5l6-2 2-6-7-15-6-4z"/>
		<path id="Path 120" class="s16" d="m599 449v-4h4v4z"/>
		<path id="Path 121" class="s17" d="m603 449v-4h5 3l11 1h6l1 1 8 2-2 9-11-1-17-1z"/>
		<path id="Path 122" class="s51" d="m622 446l-11-1h5 6z"/>
		<path id="Path 123" class="s52" d="m378 449l1-3 4 1v4h-5z"/>
		<path id="Path 124" class="s12" d="m629 447l-1-1h2z"/>
		<path id="Path 125" class="s40" d="m629 447l1-1h14l2 3h-9z"/>
		<path id="Path 126" class="s47" d="m646 449l-2-3 15 3v1z"/>
		<path id="Path 127" class="s53" d="m694 449l20-3-2 3-18 3v-1z"/>
		<path id="Path 128" class="s41" d="m335 467l-2-20h10l2 2 2 6v14h-2z"/>
		<path id="Path 129" class="s9" d="m383 451v-4h6v4l-2 2z"/>
		<path id="Path 130" class="s44" d="m455 448l2-1h12l18 2v2 6h-9l-1 4h-15l-7-10z"/>
		<path id="Path 131" class="s20" d="m347 455l-2-6 7 3z"/>
		<path id="Path 132" class="s9" d="m370 451l1-2h7v2l-1 4h-5z"/>
		<path id="Path 133" class="s54" d="m400 450l7-1 4 4v14h-4l-6-2z"/>
		<path id="Path 134" class="s38" d="m493 451v-2h4v6h-4z"/>
		<path id="Path 135" class="s19" d="m497 455v-6h6l6 4 7 15-2 6-6 2-7-1v-8-9z"/>
		<path id="Path 136" class="s41" d="m547 457l-2-8h4l2 3v5z"/>
		<path id="Path 137" class="s23" d="m599 456v-7h4l4 7-1 2z"/>
		<path id="Path 138" class="s18" d="m635 458l2-9h9l13 1 8 2v8l-32-1z"/>
		<path id="Path 139" class="s53" d="m659 450v-1h10l1 2v1h-3z"/>
		<path id="Path 140" class="s55" d="m670 451l-1-2 8 2z"/>
		<path id="Path 141" class="s55" d="m689 451l5-2v2z"/>
		<path id="Path 142" class="s16" d="m694 452l18-3h8l-1 8-6 2h-8l-12-1v-5z"/>
		<path id="Path 143" class="s43" d="m182 451l5-1v9h-4z"/>
		<path id="Path 144" class="s20" d="m389 451l11-1 1 15 6 2v11l3 3-5 8h-8l-10-4v-19l-3-3h-7v-8l1-4h5l4 2z"/>
		<path id="Path 145" class="s9" d="m236 455l6-4 5 2v3l-2 11h-7z"/>
		<path id="Path 146" class="s54" d="m352 452l8-1h10l2 4h5v8l-4 3 2 10-2 7h-12l-3-4h-5v-2-6l-6-2v-14z"/>
		<path id="Path 147" class="s54" d="m451 459v-7l4-1 7 10h-10z"/>
		<path id="Path 148" class="s56" d="m487 457v-6h6v4l-2 2z"/>
		<path id="Path 149" class="s46" d="m551 452l11 1-2 8h-7l-2-4z"/>
		<path id="Path 150" class="s6" d="m670 452v-1h7 12 5v1l-1 1h-8-6z"/>
		<path id="Path 151" class="s57" d="m209 453l10-1 4 1v17l-13 3h-5l-3-15z"/>
		<path id="Path 152" class="s17" d="m667 460v-8h3l9 1v6l-4 2z"/>
		<path id="Path 153" class="s58" d="m223 470v-17h6l7 2 2 12-1 3h-10z"/>
		<path id="Path 154" class="s9" d="m411 467v-14h6l4 3v11l-4 3z"/>
		<path id="Path 155" class="s44" d="m560 461l2-8 24 2-4 8h-21z"/>
		<path id="Path 156" class="s18" d="m679 459v-6h6v6z"/>
		<path id="Path 157" class="s17" d="m685 459v-6h8v5l-7 1z"/>
		<path id="Path 158" class="s54" d="m491 457l2-2h4l4 3v9h-8z"/>
		<path id="Path 159" class="s56" d="m582 463l4-8 7 1v5l6 4v6h-10z"/>
		<path id="Path 160" class="s25" d="m731 465v-7l6-3h6v8 4z"/>
		<path id="Path 161" class="s49" d="m245 467l2-11 4 4v11z"/>
		<path id="Path 162" class="s38" d="m599 471v-6l-6-4v-5h6l7 2 3 2v17l-6 2z"/>
		<path id="Path 163" class="s19" d="m606 458l1-2 17 1-1 9 8 9v7l-7 4-5 2v3l-20-2v-7l4-3 6-2v-17z"/>
		<path id="Path 164" class="s52" d="m477 461l1-4h9 4l2 10h8v8 8l-9 2-4-18z"/>
		<path id="Path 165" class="s19" d="m547 463v-6h4l2 4v2z"/>
		<path id="Path 166" class="s38" d="m631 475l-8-9 1-9 11 1v1 16z"/>
		<path id="Path 167" class="s10" d="m713 459l6-2v6h-6z"/>
		<path id="Path 168" class="s25" d="m789 465v-8h12l6 11 6 24v15l-6 6h-6l-8-6v-8l5-3 1-14 4-1v-10l-8-2z"/>
		<path id="Path 169" class="s35" d="m686 459l7-1 12 1v9l-2 5h-6l-8 10h-6v-15l5-2z"/>
		<path id="Path 170" class="s2" d="m820 459l2-1-5 5z"/>
		<path id="Path 171" class="s31" d="m183 464v-5h4v8l-2 1-2-1z"/>
		<path id="Path 172" class="s9" d="m425 467l5-8h9v12l-4 6h-4l-6-5z"/>
		<path id="Path 173" class="s52" d="m439 471v-12h12l1 2-7 10z"/>
		<path id="Path 174" class="s19" d="m635 475v-16l32 1 8 1v6l-6 5v11 2l-4 4-18 2-2-4h-4v-10z"/>
		<path id="Path 175" class="s40" d="m675 461l4-2h6 1l2 7-5 2v15l-8 2h-4l-2-2v-11l6-5z"/>
		<path id="Path 176" class="s39" d="m705 468v-9h8v4 4l-4 2z"/>
		<path id="Path 177" class="s0" d="m114 464l1-4v4z"/>
		<path id="Path 178" class="s59" d="m151 468l2-7 10 5 7-1v4l-1 6-13-1z"/>
		<path id="Path 179" class="s20" d="m439 471h6l7-10h10 15l11 6 4 18-17 4h-24-8l-3-6-9-2v-4h4z"/>
		<path id="Path 180" class="s56" d="m553 463v-2h7l1 2v6h-4l-4-2z"/>
		<path id="Path 181" class="s60" d="m170 465l3-3 10 2v3l-5 5-3 1-5-4z"/>
		<path id="Path 182" class="s61" d="m256 471l3-5 8-3 4 4 1 5 6-3 11-1 28 6-1 14-5 6v5h-2-6-12l-18 1v-6l-8-13-9-3z"/>
		<path id="Path 183" class="s52" d="m373 483l2-7-2-10 4-3h7l3 3v19l-14 2z"/>
		<path id="Path 184" class="s54" d="m545 481l2-18h6v4l4 2v12h-9z"/>
		<path id="Path 185" class="s54" d="m561 469v-6h21l7 8h10l4 8-4 3-5 1v5h-6l-1-5h-7l-1 6h-4l-2-8v-6l-8-2z"/>
		<path id="Path 186" class="s30" d="m709 469l4-2v-4h6l7 2-7 11v5h-8l-2-4z"/>
		<path id="Path 187" class="s36" d="m761 473l1-6 10-4 11 2v6z"/>
		<path id="Path 188" class="s5" d="m113 474v-10h1 1v10z"/>
		<path id="Path 189" class="s22" d="m719 481v-5l7-11h5l12 2 2 8-8 6-8 2h-9z"/>
		<path id="Path 190" class="s22" d="m783 471v-6h6l6 4v8l4 5-1 14-5 3h-8v-8l4-14z"/>
		<path id="Path 191" class="s50" d="m178 472l5-5 2 1-3 6h-2z"/>
		<path id="Path 192" class="s61" d="m185 468l2-1h10l3 6-1 12h-8v-7l-9-4z"/>
		<path id="Path 193" class="s20" d="m237 470l1-3h7l6 4h5v7 3l-15-4z"/>
		<path id="Path 194" class="s62" d="m278 469l-6 3-1-5z"/>
		<path id="Path 195" class="s39" d="m339 479l-4-12 10 2-2 8z"/>
		<path id="Path 196" class="s52" d="m410 481l-3-3v-11h4l6 3v9z"/>
		<path id="Path 197" class="s39" d="m417 470l4-3h4v5l-3 1-1 6h-4z"/>
		<path id="Path 198" class="s63" d="m148 473l3-5 5 6-3 3z"/>
		<path id="Path 199" class="s64" d="m703 473l2-5 4 1v8h-4z"/>
		<path id="Path 200" class="s3" d="m813 507v-15l-6-24h5l2 3 7 3 11 3 5 9 5 5 4 5-1 5-15 11-5 9h-6v-11z"/>
		<path id="Path 201" class="s65" d="m169 475l1-6 5 4-1 2z"/>
		<path id="Path 202" class="s44" d="m343 477l2-8h2l6 2v6z"/>
		<path id="Path 203" class="s20" d="m557 481v-12h4l4 4v8h-4z"/>
		<path id="Path 204" class="s33" d="m799 482l-4-5v-8l8 2v10z"/>
		<path id="Path 205" class="s61" d="m210 473l13-3h4l-2 11h-10z"/>
		<path id="Path 206" class="s60" d="m210 473l5 8h10l2-11h10l4 7v11l6 7-2 17 2 2-3 5-10-1-5-5v-6l-7-4v-8l1-8-16 4h-8v-6l1-12h5z"/>
		<path id="Path 207" class="s50" d="m761 473l22-2 6 6-4 14-32-2v-10z"/>
		<path id="Path 208" class="s31" d="m175 473l3-1 2 2-4 4-2-3z"/>
		<path id="Path 209" class="s66" d="m317 474l4-2 8 2 2 5-7 7-1 9v6h-6l-6-2v-5l5-6z"/>
		<path id="Path 210" class="s54" d="m421 479l1-6 3-1 6 5v4z"/>
		<path id="Path 211" class="s64" d="m141 476l7-3 5 4v3l-2 11h-2l-4-2v-10z"/>
		<path id="Path 212" class="s52" d="m565 481v-8l8 2v6h-4z"/>
		<path id="Path 213" class="s10" d="m689 483l8-10h6l2 4v6l-6 8h-8z"/>
		<path id="Path 214" class="s67" d="m113 475v-1h2l10 12 1 2h-3z"/>
		<path id="Path 215" class="s24" d="m153 477l3-3 13 1h5l2 3-2 3-9 2h-5l-7-3z"/>
		<path id="Path 216" class="s62" d="m176 478l4-4h2l9 4v7l2 8-2 2-6-4h-7l-4-10z"/>
		<path id="Path 217" class="s14" d="m669 519l7-1-19 2 2-1z"/>
		<path id="Path 218" class="s56" d="m501 483v-8l7 1v5l-1 2z"/>
		<path id="Path 219" class="s44" d="m631 482v-7h4l6 2v10l-6 2v-5z"/>
		<path id="Path 220" class="s43" d="m737 481l8-6 8 4v10l-4 4h-8z"/>
		<path id="Path 221" class="s49" d="m138 480l3-4 4 3v10h-6z"/>
		<path id="Path 222" class="s37" d="m247 495l-6-7v-11l15 4 1 12z"/>
		<path id="Path 223" class="s37" d="m339 479l4-2h10v2 12l-16-2v-9z"/>
		<path id="Path 224" class="s25" d="m705 483v-6h4l2 4-2 2z"/>
		<path id="Path 225" class="s66" d="m256 481v-3l9 3 8 13v6h-2l-14-7z"/>
		<path id="Path 226" class="s60" d="m323 495l1-9 7-7 6 1v9l-4 6z"/>
		<path id="Path 227" class="s20" d="m353 491v-12h5l3 4h12v4z"/>
		<path id="Path 228" class="s37" d="m410 481l7-2h4l10 2 9 2 3 6h8v6l-18 2-2-6h-6l-14 8h-14v-10h8z"/>
		<path id="Path 229" class="s10" d="m518 489l1-10 10 2 2 8-3 3h-3z"/>
		<path id="Path 230" class="s63" d="m529 481l6-2v2l-1 8h-3z"/>
		<path id="Path 231" class="s31" d="m125 486l8-6h5l1 9v8l-6-4-7-5z"/>
		<path id="Path 232" class="s3" d="m151 491l2-11 7 3 1 6-1 4z"/>
		<path id="Path 233" class="s61" d="m165 483l9-2 4 10h7l6 4-1 8h-7l-12-2-9-4-2-4 1-4 4-1z"/>
		<path id="Path 234" class="s3" d="m507 483l1-2 5 1v6z"/>
		<path id="Path 235" class="s35" d="m534 489l1-8h10 3l-3 12-5 4h-5z"/>
		<path id="Path 236" class="s38" d="m545 493l3-12h9v7l4 2v1l3 14-3 5-6-1-6-2-1-11z"/>
		<path id="Path 237" class="s68" d="m561 490l-4-2v-7h4z"/>
		<path id="Path 238" class="s40" d="m561 490v-9h4 4v8l-8 2z"/>
		<path id="Path 239" class="s69" d="m569 489v-8h4l2 8z"/>
		<path id="Path 240" class="s58" d="m709 483l2-2h8l1 2-1 7 4 11v12l-8 1v7h-3l-6-1-3-1-27-1-7 1v-6l2-6 32 2 5-7z"/>
		<path id="Path 241" class="s57" d="m729 483l8-2 4 12-10 2z"/>
		<path id="Path 242" class="s69" d="m594 488v-5l5-1v7z"/>
		<path id="Path 243" class="s57" d="m624 486l7-4 4 2v5l-7 2z"/>
		<path id="Path 244" class="s4" d="m161 489l-1-6h5v5z"/>
		<path id="Path 245" class="s37" d="m492 485l9-2h6l6 5 5 1 7 3v7l-3 10v4h-1l-4-4h-9l1 12v6l11 6-1 3-9 3 2 2v1l-6 1h-1l-3-4-15 1-4-3v-6l1-10-1-1v-9l-3-2-5-10v-10z"/>
		<path id="Path 246" class="s66" d="m483 520h1v1h-1z"/>
		<path id="Path 247" class="s10" d="m579 489l1-6h7l1 5z"/>
		<path id="Path 248" class="s39" d="m669 485v-2l2 2z"/>
		<path id="Path 249" class="s25" d="m675 485l8-2h6l2 8-16 4z"/>
		<path id="Path 250" class="s33" d="m691 491h8l6-8h4l-1 19-5 7-32-2v-8l4-4z"/>
		<path id="Path 251" class="s49" d="m723 501l-4-11 1-7h9l2 12v6z"/>
		<path id="Path 252" class="s66" d="m193 493l-2-8h8v6l-2 2z"/>
		<path id="Path 253" class="s65" d="m373 487l14-2 10 4v10l-6 8v6h-8l-12-2-2 3 4 23v2h-12v-5l-13-14-25-14v-5-6h10l4-6 16 2z"/>
		<path id="Path 254" class="s10" d="m647 491l18-2 4-4h2 4v10l-4 4-23-1z"/>
		<path id="Path 255" class="s30" d="m619 491v-3l5-2 4 5-4 4z"/>
		<path id="Path 256" class="s65" d="m207 491l16-4-1 8h-8l-1 4h-6z"/>
		<path id="Path 257" class="s25" d="m635 489l6-2h4l2 4 1 7 23 1v8l-2 6-10 2-15-4h-19l-1-16 4-4z"/>
		<path id="Path 258" class="s67" d="m133 493h-4l-3-5z"/>
		<path id="Path 259" class="s27" d="m579 489l9-1h6l5 1 20 2 5 4 1 16-6 4-25 2-7-2-2-4-10 2h-6v-5l-5-3-3-14 8-2h6z"/>
		<path id="Path 260" class="s24" d="m139 497v-8h6l4 2 2 12z"/>
		<path id="Path 261" class="s60" d="m451 495v-6h24v10h-9l-3 4h-6v-6z"/>
		<path id="Path 262" class="s39" d="m528 492l3-3h3l1 8h-6z"/>
		<path id="Path 263" class="s36" d="m749 493l4-4 32 2v8h-10-26z"/>
		<path id="Path 264" class="s70" d="m151 503l-2-12h2l9 2 2 4-1 8h-3z"/>
		<path id="Path 265" class="s71" d="m197 493l2-2h8v8 8h-6l-4-3z"/>
		<path id="Path 266" class="s60" d="m397 499h14l14-8h6l2 6v6l-25 4h-4l-1 4-10 2h-2v-6z"/>
		<path id="Path 267" class="s19" d="m525 499v-7h3l1 5v2z"/>
		<path id="Path 268" class="s72" d="m191 495l2-2h4v11h-4l-3-1z"/>
		<path id="Path 269" class="s73" d="m247 495l10-2 14 7-2 11-16 1-2 3-4-1-2-2z"/>
		<path id="Path 270" class="s61" d="m540 497l5-4 3 3 1 11-4 2-4-3-1-3z"/>
		<path id="Path 271" class="s70" d="m731 495l10-2h8v6 16h-8l-2-11-8-3z"/>
		<path id="Path 272" class="s71" d="m213 499l1-4h8v8l7 4v6l-12 1-2-1z"/>
		<path id="Path 273" class="s66" d="m433 497l18-2 6 2v6l-2 4h-9l-2-4h-11z"/>
		<path id="Path 274" class="s4" d="m819 521h6l5-9 15-11 1-5 8 11 1 1v3 5 1l-1 2-1 2-3 2h-1l-7 3-4 2h-9l-10 1z"/>
		<path id="Path 275" class="s74" d="m161 505l1-8 9 4v7h-2-2z"/>
		<path id="Path 276" class="s64" d="m529 499v-2h6 5v6h-9z"/>
		<path id="Path 277" class="s51" d="m207 507v-8h6l2 14h-6z"/>
		<path id="Path 278" class="s75" d="m273 500l18-1v12l-10 9h-10l-2-9 2-11z"/>
		<path id="Path 279" class="s76" d="m291 511v-12h12v8l-2 4z"/>
		<path id="Path 280" class="s77" d="m303 507v-8h6v5z"/>
		<path id="Path 281" class="s72" d="m303 507l6-3v-5h2l6 2-4 30h-7l-4-4-1-16z"/>
		<path id="Path 282" class="s61" d="m463 503l3-4h9l5 10h-15z"/>
		<path id="Path 283" class="s78" d="m522 509l3-10h4l2 4h9l1 3z"/>
		<path id="Path 284" class="s78" d="m749 515v-16h26v8l-2 8-20 2z"/>
		<path id="Path 285" class="s42" d="m775 507v-8h10 8v8h-4z"/>
		<path id="Path 286" class="s79" d="m171 508v-7l12 2-1 8-8-1h-1l-1-1z"/>
		<path id="Path 287" class="s12" d="m172 509h1v1h-1z"/>
		<path id="Path 288" class="s80" d="m313 531l4-30h6v5l-3 1-2 15 5 3 2 10h-12z"/>
		<path id="Path 289" class="s50" d="m723 513v-12h8l8 3 2 11-2 8h-9l-7-2z"/>
		<path id="Path 290" class="s36" d="m182 511l1-8h7l3 1v11l-10-2z"/>
		<path id="Path 291" class="s61" d="m408 507l25-4h11l2 4-1 4-14 3v5l11 10 1 8-4 4h-6l-10-1-11 1-1-6-11 3-7-9v-16l10-2h4z"/>
		<path id="Path 292" class="s62" d="m446 507h9l2-4h6l2 6h15l3 2v9l1 1-1 10h-6l-29 2-1 4h-4l-1-8-11-10v-5l14-3z"/>
		<path id="Path 293" class="s42" d="m193 515v-11h4l4 3v11l-3-1-4-1z"/>
		<path id="Path 294" class="s81" d="m167 508l-9-3h3z"/>
		<path id="Path 295" class="s66" d="m561 510l3-5 5 3v5l-7 2z"/>
		<path id="Path 296" class="s71" d="m325 535l-2-10-5-3 2-15 3-1 25 14 13 14v5l-1 4h-5l-22-4z"/>
		<path id="Path 297" class="s42" d="m522 509l19-3 4 3-2 6h-15l-6-2z"/>
		<path id="Path 298" class="s78" d="m201 518v-11h6l2 6h6l2 1-2 7-10-2z"/>
		<path id="Path 299" class="s66" d="m403 511l1-4h4l-1 4z"/>
		<path id="Path 300" class="s22" d="m545 509l4-2 6 2v8l-1 6-9 2-2-2v-8z"/>
		<path id="Path 301" class="s64" d="m773 515l2-8h14v9z"/>
		<path id="Path 302" class="s30" d="m789 516v-9h4l8 6v6h-7z"/>
		<path id="Path 303" class="s10" d="m801 513h6l6-6 6 3v11 8l-5-1h-8l-5-9z"/>
		<path id="Path 304" class="s0" d="m172 510l-3-2h2l1 1z"/>
		<path id="Path 305" class="s2" d="m855 511v-3h1v3z"/>
		<path id="Path 306" class="s66" d="m509 521l-1-12h9l4 4-5 8z"/>
		<path id="Path 307" class="s42" d="m555 517v-8l6 1 1 5-1 3z"/>
		<path id="Path 308" class="s12" d="m183 513l-9-3 8 1z"/>
		<path id="Path 309" class="s82" d="m251 515l2-3 16-1 2 9v9l4 4v5h-4l-8-3-12-3v-1-10z"/>
		<path id="Path 310" class="s59" d="m281 520l10-9h10l1 16 4 4h7v4 10l-16-2-1-2-1-6-13-4z"/>
		<path id="Path 311" class="s60" d="m373 537l-4-23 2-3 12 2 1 14 9 2 7 9-2 4h-14l-9-2z"/>
		<path id="Path 312" class="s36" d="m575 513l10-2 2 4v2h-12z"/>
		<path id="Path 313" class="s22" d="m619 515l6-4h19l15 4v4l-2 1-18 3h-12z"/>
		<path id="Path 314" class="s15" d="m855 516v-5h1v5z"/>
		<path id="Path 315" class="s83" d="m217 514l12-1 5 5 10 1 7 2v10l-7-1-9-2-6-2-1-1-12-3-1-1z"/>
		<path id="Path 316" class="s81" d="m228 525h1v1h-1z"/>
		<path id="Path 317" class="s66" d="m393 529l-9-2-1-14h8 2z"/>
		<path id="Path 318" class="s36" d="m516 521l5-8h1l6 2-10 11z"/>
		<path id="Path 319" class="s22" d="m562 515l7-2h6v4 6h-12l-2-1v-4z"/>
		<path id="Path 320" class="s33" d="m659 515l10-2v6h-10z"/>
		<path id="Path 321" class="s70" d="m715 521v-7l8-1v8h-2z"/>
		<path id="Path 322" class="s20" d="m244 519l3-5 4 1v6z"/>
		<path id="Path 323" class="s50" d="m518 526l10-11h15v8l-10 5v5l-4 1v6l-17 1-2-2 9-3 1-3z"/>
		<path id="Path 324" class="s22" d="m587 517v-2l7 2-5 2z"/>
		<path id="Path 325" class="s50" d="m594 517l25-2 8 8v7l-2 1-6-2-10 2h-7l-1 4h-12v-16z"/>
		<path id="Path 326" class="s64" d="m739 523l2-8h8l4 2v6z"/>
		<path id="Path 327" class="s39" d="m753 517l20-2 16 1 5 3v6h-8l-33-2z"/>
		<path id="Path 328" class="s2" d="m855 517v-1h1v3h-1z"/>
		<path id="Path 329" class="s37" d="m554 523l1-6 6 1v4z"/>
		<path id="Path 330" class="s70" d="m575 523v-6h12l2 2v16l-10 2v-9z"/>
		<path id="Path 331" class="s55" d="m854 519l1-2v2z"/>
		<path id="Path 332" class="s15" d="m216 522l-11-3 10 2z"/>
		<path id="Path 333" class="s35" d="m794 525v-6h7l5 9h-4l-8-2z"/>
		<path id="Path 334" class="s26" d="m853 521l1-2h1z"/>
		<path id="Path 335" class="s84" d="m275 533l-4-4v-9h10l1 11-1 2z"/>
		<path id="Path 336" class="s60" d="m520 533l-11-6v-6h7l2 5z"/>
		<path id="Path 337" class="s14" d="m721 522l-9-1h3 6z"/>
		<path id="Path 338" class="s5" d="m721 522v-1h2l7 2z"/>
		<path id="Path 339" class="s31" d="m554 523l7-1 2 1-2 10h-15l-1-8z"/>
		<path id="Path 340" class="s70" d="m533 533v-5l10-5 2 2 1 8-2 7-3-2-8 2z"/>
		<path id="Path 341" class="s23" d="m561 533l2-10h12l4 5v9l-10-2-8 2z"/>
		<path id="Path 342" class="s11" d="m842 526l7-3-7 4z"/>
		<path id="Path 343" class="s55" d="m794 527l-8-2h8v1z"/>
		<path id="Path 344" class="s12" d="m794 527v-1l8 2z"/>
		<path id="Path 345" class="s12" d="m838 528l4-2v1z"/>
		<path id="Path 346" class="s2" d="m829 528v2l-15-2 5 1z"/>
		<path id="Path 347" class="s58" d="m609 531l10-2 6 2v3l-2 2-3 1h-3l-8-2z"/>
		<path id="Path 348" class="s85" d="m251 532l-7-2 7 1z"/>
		<path id="Path 349" class="s2" d="m625 531l2-1-2 4z"/>
		<path id="Path 350" class="s48" d="m281 533l1-2 13 4 1 6h-9l-2-1-4-1z"/>
		<path id="Path 351" class="s60" d="m447 537l1-4 29-2v6l-26 4z"/>
		<path id="Path 352" class="s65" d="m477 537v-6h6v6z"/>
		<path id="Path 353" class="s69" d="m601 535l1-4h7v4z"/>
		<path id="Path 354" class="s78" d="m275 538v-5h6v6h-3z"/>
		<path id="Path 355" class="s23" d="m529 540v-6l4-1v7h-2z"/>
		<path id="Path 356" class="s18" d="m544 540l2-7h15v4l-12 6z"/>
		<path id="Path 357" class="s41" d="m313 545v-10h12l8 4 1 9z"/>
		<path id="Path 358" class="s48" d="m400 538l11-3 1 6 11-1v9l-4 1-1 1-10 1-19 1-6-2 1-9h14z"/>
		<path id="Path 359" class="s4" d="m561 537l8-2 10 2 10-2h12 8l8 2v9l-35-3-4 4-7 3v6l-3-1-6-2-4-3-9-7z"/>
		<path id="Path 360" class="s37" d="m373 539v-2l2 3h-1z"/>
		<path id="Path 361" class="s80" d="m439 541l4-4h4l4 4v8h-12z"/>
		<path id="Path 362" class="s51" d="m451 541l26-4h6l4 3v9l-3 1-7 1h-17l-1-1-8-1z"/>
		<path id="Path 363" class="s15" d="m285 540l-7-1h3z"/>
		<path id="Path 364" class="s48" d="m334 548l-1-9 22 4v6h-5z"/>
		<path id="Path 365" class="s59" d="m360 543l1-4h12l1 1-1 11-5-1-7-1z"/>
		<path id="Path 366" class="s77" d="m423 540l10 1v8h-10z"/>
		<path id="Path 367" class="s19" d="m487 540l15-1 3 4v4l-1 1-17 1z"/>
		<path id="Path 368" class="s84" d="m373 551l1-11h1l9 2-1 9h-7z"/>
		<path id="Path 369" class="s14" d="m512 541l17-1h2l-19 2z"/>
		<path id="Path 370" class="s85" d="m297 543l-10-2h9z"/>
		<path id="Path 371" class="s72" d="m433 549v-8h6v8h-5z"/>
		<path id="Path 372" class="s84" d="m355 549v-6h5l1 6z"/>
		<path id="Path 373" class="s0" d="m505 547v-4h1z"/>
		<path id="Path 374" class="s28" d="m578 547l4-4 35 3v8 1h-14l-6 5v6l-4-1-13-3-4-4z"/>
		<path id="Path 375" class="s27" d="m571 556v-6l7-3-2 11h-3z"/>
		<path id="Path 376" class="s0" d="m487 549l17-1-20 2z"/>
		<path id="Path 377" class="s85" d="m368 550l-18-1h5 6z"/>
		<path id="Path 378" class="s85" d="m419 550l4-1h10 1v1z"/>
		<path id="Path 379" class="s0" d="m434 550v-1h5 12l8 1z"/>
		<path id="Path 380" class="s0" d="m376 552l-8-2 5 1h3z"/>
		<path id="Path 381" class="s15" d="m376 552v-1h7l6 2z"/>
		<path id="Path 382" class="s47" d="m617 555v-1l1 9z"/>
		<path id="Path 383" class="s26" d="m573 558l-5-3 3 1z"/>
		<path id="Path 384" class="s38" d="m597 566v-6l6-5h14l1 8-1 1-2 2-3 1-1 1h-12l-1-1z"/>
		<path id="Path 385" class="s2" d="m611 567h1v1h-1z"/>
		<path id="Path 386" class="s0" d="m598 567h1v1h-1z"/>
		<path id="Path 387" class="s0" d="m598 567l-5-2 4 1z"/>
	</g>
</svg>