<svg version="1.2" xmlns="http://www.w3.org/2000/svg" viewBox="0 0 1000 1000" width="1000" height="1000">
	<title>Pimephales_promelas</title>
	<style>
		.s0 { opacity: .6;fill: #99a8b5 } 
		.s1 { opacity: .3;fill: #d1d5d4 } 
		.s2 { opacity: .8;fill: #96abb1 } 
		.s3 { opacity: .3;fill: #b1bab6 } 
		.s4 { opacity: .2;fill: #e3e3e3 } 
		.s5 { opacity: 1;fill: #808f90 } 
		.s6 { opacity: 1;fill: #798784 } 
		.s7 { fill: #7d8575 } 
		.s8 { opacity: 1;fill: #8a989c } 
		.s9 { opacity: .8;fill: #babeb5 } 
		.s10 { fill: #747c6d } 
		.s11 { opacity: 1;fill: #8797a3 } 
		.s12 { fill: #6c7666 } 
		.s13 { opacity: 1;fill: #848d7f } 
		.s14 { opacity: 1;fill: #88938d } 
		.s15 { fill: #545e4b } 
		.s16 { fill: #3a4633 } 
		.s17 { opacity: 1;fill: #354130 } 
		.s18 { opacity: .3;fill: #98a192 } 
		.s19 { opacity: .3;fill: #676e58 } 
		.s20 { opacity: .4;fill: #7d8382 } 
		.s21 { opacity: 1;fill: #2f3b2b } 
		.s22 { opacity: 1;fill: #8f9fa7 } 
		.s23 { opacity: .5;fill: #dcdddc } 
		.s24 { opacity: .8;fill: #88989e } 
		.s25 { opacity: .7;fill: #84877e } 
		.s26 { opacity: .4;fill: #dddede } 
		.s27 { fill: #424b36 } 
		.s28 { opacity: .7;fill: #d8dad9 } 
		.s29 { opacity: .5;fill: #87918e } 
		.s30 { opacity: 1;fill: #45503b } 
		.s31 { fill: #465343 } 
		.s32 { fill: #4c5a4e } 
		.s33 { fill: #a4aca2 } 
		.s34 { fill: #787d67 } 
		.s35 { fill: #4f6056 } 
		.s36 { opacity: 1;fill: #4e543b } 
		.s37 { fill: #707c75 } 
		.s38 { fill: #72765e } 
		.s39 { fill: #586961 } 
		.s40 { fill: #62664f } 
		.s41 { fill: #6b6f57 } 
		.s42 { opacity: 1;fill: #5e6145 } 
		.s43 { fill: #626f64 } 
		.s44 { fill: #657570 } 
		.s45 { fill: #596558 } 
		.s46 { opacity: 1;fill: #6a6649 } 
		.s47 { fill: #adac97 } 
		.s48 { fill: #b1b5af } 
		.s49 { opacity: 1;fill: #979c8c } 
		.s50 { fill: #b6bbab } 
		.s51 { fill: #666d5b } 
		.s52 { fill: #8b8d75 } 
		.s53 { fill: #c2c4b6 } 
		.s54 { fill: #d0ccba } 
		.s55 { fill: #9fa392 } 
		.s56 { fill: #8f8664 } 
		.s57 { fill: #c2bba0 } 
		.s58 { fill: #d6d2c3 } 
		.s59 { opacity: 1;fill: #959883 } 
		.s60 { fill: #a79162 } 
		.s61 { opacity: 1;fill: #deded7 } 
		.s62 { fill: #cec7ac } 
		.s63 { fill: #b7b092 } 
		.s64 { fill: #a7a086 } 
		.s65 { fill: #cabd96 } 
		.s66 { fill: #706e50 } 
		.s67 { opacity: .5;fill: #bec6c1 } 
		.s68 { opacity: 1;fill: #5a5736 } 
		.s69 { fill: #c3b285 } 
		.s70 { fill: #8b7f56 } 
		.s71 { opacity: 1;fill: #777756 } 
		.s72 { opacity: 1;fill: #7e7c5e } 
		.s73 { opacity: .6;fill: #a9ac97 } 
		.s74 { opacity: .6;fill: #798156 } 
		.s75 { fill: #998b62 } 
		.s76 { fill: #92804d } 
		.s77 { opacity: 1;fill: #989577 } 
		.s78 { opacity: 1;fill: #6e724d } 
		.s79 { opacity: .4;fill: #b636e5 } 
		.s80 { opacity: .6;fill: #647d6d } 
		.s81 { opacity: .4;fill: #8f999f } 
	</style>
	<g id="Background">
		<path id="Path 0" class="s0" d="m168 499h1v1h-1z"/>
		<path id="Path 1" class="s1" d="m169 498h1v1h-1z"/>
		<path id="Path 2" class="s1" d="m170 497h1v1h-1z"/>
		<path id="Path 3" class="s1" d="m171 496h1v1h-1z"/>
		<path id="Path 4" class="s2" d="m504 410h1v1h-1z"/>
		<path id="Path 5" class="s3" d="m532 398v-1h12v1z"/>
		<path id="Path 6" class="s4" d="m544 398v-1h3v2z"/>
		<path id="Path 7" class="s5" d="m523 402l9-4h12l3 1 5 2 3 2 1 1 3 2 2 1 1 10h-3-7l-6-6h-9l-4-6-10-2z"/>
		<path id="Path 8" class="s3" d="m518 404l5-2v1z"/>
		<path id="Path 9" class="s6" d="m518 404l5-1 10 2 4 6h-17z"/>
		<path id="Path 10" class="s7" d="m511 406l7-2 2 7h17 9l6 6v8l10 8v7l7 8-1 4v4h-7l-1-3v-9l-8-5-9-16-28 1-11-12v-1l1-1 3-1z"/>
		<path id="Path 11" class="s8" d="m562 417l-1-10 2 1 5 7-2 2z"/>
		<path id="Path 12" class="s9" d="m568 415l-5-7 11 8 5 10z"/>
		<path id="Path 13" class="s2" d="m494 416l10-5v1l-7 4z"/>
		<path id="Path 14" class="s10" d="m497 416l7-4 11 12 28-1 9 16 8 5v9l-14-2-1-5-6 2-10-1-1-3-20-4v-8l-8-7z"/>
		<path id="Path 15" class="s11" d="m566 417l2-2 11 11 3 12-3 4-13-11v-6z"/>
		<path id="Path 16" class="s2" d="m488 419l6-3-6 4z"/>
		<path id="Path 17" class="s12" d="m488 420l6-4h3l3 9 8 7v8l-6-1-2-4h-7l-6-6-2-6z"/>
		<path id="Path 18" class="s13" d="m562 433l-10-8v-8h7v6l7 2v6z"/>
		<path id="Path 19" class="s14" d="m566 425l-7-2v-6h3 4z"/>
		<path id="Path 20" class="s9" d="m470 431l18-12v1l-3 3-7 5-5 4-3 1z"/>
		<path id="Path 21" class="s15" d="m478 428l7-5 2 6z"/>
		<path id="Path 22" class="s16" d="m473 432l5-4 9 1 6 6h7l2 4 6 1 20 4 1 3-3 6-34 4h-26l-2-4-9-2-43 2-63 8-6 2-1 4-14 3-7 1-1 4-14 2h-12l2-7 82-21 25-1 18-5 51 2 3-3z"/>
		<path id="Path 23" class="s17" d="m388 433l16-2 21 2h36 9l3-1 2 10-3 3-51-2-18 5-25 1-82 21-2 7-8 3v5l-8 6-8 2v-6l17-22 43-10 20-9 16-2 4-4v-5l14-2z"/>
		<path id="Path 24" class="s18" d="m461 432l9-1v2h-9z"/>
		<path id="Path 25" class="s5" d="m562 433l4-2 13 11-1 4-3 2-5 4h-2l1-4-7-8z"/>
		<path id="Path 26" class="s18" d="m370 433h18-4z"/>
		<path id="Path 27" class="s19" d="m425 433l36-1v1z"/>
		<path id="Path 28" class="s14" d="m369 434l1-1h14l-14 2z"/>
		<path id="Path 29" class="s1" d="m356 436l6-2v1l-5 1z"/>
		<path id="Path 30" class="s20" d="m362 435v-1h6l-3 1z"/>
		<path id="Path 31" class="s21" d="m365 435l3-1h1l1 1v5l-4 4-16 2-20 9-43 10-17 22h-13l-1 5h-16l-12-1-1-3-6-1-12 8h-5l-10-8 6-4h2l10-4 6-3 5-2 4-1h1l13-5 15-5 8-2 11-5h2l30-10h1l14-3h1l20-4 3-1 9-2h1 1z"/>
		<path id="Path 32" class="s22" d="m357 436l5-1h3z"/>
		<path id="Path 33" class="s20" d="m345 437l10-1-9 2z"/>
		<path id="Path 34" class="s23" d="m339 439l6-2 1 1-3 1z"/>
		<path id="Path 35" class="s4" d="m579 442l3-4-4 8z"/>
		<path id="Path 36" class="s24" d="m323 443l16-4h4z"/>
		<path id="Path 37" class="s3" d="m308 446l7-4 7 1z"/>
		<path id="Path 38" class="s25" d="m299 447l3-1h5l-30 10 1-2 4-2z"/>
		<path id="Path 39" class="s12" d="m539 448l6-2 1 5z"/>
		<path id="Path 40" class="s26" d="m851 447l6-1 5 3z"/>
		<path id="Path 41" class="s27" d="m492 457l34-4 3-6 10 1 7 3 14 2 1 3-9 11-19 1-19-5h-17z"/>
		<path id="Path 42" class="s28" d="m841 449l5-2-2 2z"/>
		<path id="Path 43" class="s22" d="m844 449l2-2h5l11 2 5 5v2 1 10 1l-3 15-10 7-7-19z"/>
		<path id="Path 44" class="s8" d="m834 451l7-2h3l3 22 7 19-6 4-8-9z"/>
		<path id="Path 45" class="s1" d="m867 454l-5-5 5 2z"/>
		<path id="Path 46" class="s27" d="m342 467l1-4 6-2 63-8 43-2 9 2 2 4-55 2z"/>
		<path id="Path 47" class="s14" d="m822 453l8-2h4l6 34h-12l-10-30v-1z"/>
		<path id="Path 48" class="s29" d="m568 456v-4h2l-1 4z"/>
		<path id="Path 49" class="s1" d="m274 456l4-2-1 2h-2z"/>
		<path id="Path 50" class="s1" d="m811 456l7-2v1z"/>
		<path id="Path 51" class="s13" d="m811 456l7-1 10 30v6l-14 4-16-22-2-14 5-2z"/>
		<path id="Path 52" class="s2" d="m264 459l10-3h1l-11 5z"/>
		<path id="Path 53" class="s30" d="m552 467l9-11h7 1 2l13 4v5l6 4h9l6-6 7-1h1l1 1 2 2v8l-23 2z"/>
		<path id="Path 54" class="s24" d="m584 460l-13-4 16 1 5 2h5v2z"/>
		<path id="Path 55" class="s26" d="m867 457v-1h2v12h-2v-1z"/>
		<path id="Path 56" class="s31" d="m342 467l69-8 55-2h26l5 6h17l19 5v5l-9 2-9 1-9 1-2-4-30-2-3-5-14-1-10-2-8 4-25-2-14 4h-37l-3 4h-13l-29 9-4 4v5l-1 6-5 4h-18l-5-8 4-4h11l6-12 14-2 7-1 1-4z"/>
		<path id="Path 57" class="s28" d="m794 459l7-2-5 2z"/>
		<path id="Path 58" class="s9" d="m256 462l8-3v2l-8 2z"/>
		<path id="Path 59" class="s28" d="m597 461v-2l5 2z"/>
		<path id="Path 60" class="s7" d="m785 461l9-2h2l2 14 16 22v19l-4 6v9l-2 20 2 28-2 10-4 3h-1l-5-2-4-4 2-50 6-15v-14l-15-18-11-23z"/>
		<path id="Path 61" class="s27" d="m605 463l-6 6h-9l-6-4v-5l13 1h5 2z"/>
		<path id="Path 62" class="s28" d="m605 463l-1-2 8 1z"/>
		<path id="Path 63" class="s3" d="m774 464l11-3-9 3z"/>
		<path id="Path 64" class="s3" d="m237 468l19-6v1l-15 5z"/>
		<path id="Path 65" class="s4" d="m614 463l-1-1 7 1z"/>
		<path id="Path 66" class="s32" d="m314 491v-5l4-4 29-9h13l3-4h37l14-4 25 2 8-4 10 2-5 4-10 1-4 7-8-5-21-1-32 4-1 4h-8l-9-2-6 6-26 2-7 6z"/>
		<path id="Path 67" class="s33" d="m616 465l-2-2h6l2 1v1z"/>
		<path id="Path 68" class="s1" d="m622 465v-1l7 2z"/>
		<path id="Path 69" class="s34" d="m768 466l5-2h1 2l11 23 15 18v14l-6 15-2 50-5-1h-1l-5-3-10-5 8-13 1-56-4-4v-5l-8-6-4-12-11-10v-1l8-2z"/>
		<path id="Path 70" class="s35" d="m376 479l1-4 32-4 21 1 8 5 4-7 10-1 5-4 14 1 3 5-11 7-23 4-39-3-3 13-1 1-8-3-13-5z"/>
		<path id="Path 71" class="s27" d="m616 473v-8h6l7 1h3l5 2h2l3 1v6z"/>
		<path id="Path 72" class="s1" d="m755 467l8-1-8 2z"/>
		<path id="Path 73" class="s36" d="m533 468l19-1 41 8 23-2 26 2 8 4h12 6l7 1 1 3v6l-16 2-54-8-30-1-20-1-23-8z"/>
		<path id="Path 74" class="s28" d="m639 468l8 1h-5z"/>
		<path id="Path 75" class="s23" d="m749 469l6-2v1 1z"/>
		<path id="Path 76" class="s37" d="m228 473l3-4 6-1h4z"/>
		<path id="Path 77" class="s30" d="m642 475v-6h5 3l7 2h4l1 2v6h-12z"/>
		<path id="Path 78" class="s28" d="m739 471l9-2-1 2h-5z"/>
		<path id="Path 79" class="s38" d="m747 471l1-2h1 6l11 10 4 12 8 6v5l4 4-1 56-8 13h-5l-10-7 11-14-1-17v-24l-2-5-6-3v-7z"/>
		<path id="Path 80" class="s30" d="m320 475l1-4 7-1-1 4z"/>
		<path id="Path 81" class="s39" d="m398 492l3-13 39 3 23-4 11-7 30 2 2 4v5l-4 2 1 8-1 5-21-1-5 4-2-5-22 1-5-5h-3l-2 5-14-3-8 1-6 5-1-6-7-3-4 3z"/>
		<path id="Path 82" class="s2" d="m662 473l-1-2 8 1v1h-1z"/>
		<path id="Path 83" class="s18" d="m726 472l4-1v2h-4z"/>
		<path id="Path 84" class="s9" d="m730 473v-2h7l-3 2z"/>
		<path id="Path 85" class="s40" d="m734 473l3-2h2 3l2 18 10 16v10l-8 1v9l10 2v12l-4 24h-6-1l-7-3h-2l-2-2-4-17 2-12 4-3 2-17-2-8h-7l-17-8-22 2-5-2v-4l1-4 16-2 18 1 2 3h6l6-6z"/>
		<path id="Path 86" class="s41" d="m754 505l-10-16-2-18h5l13 27v7z"/>
		<path id="Path 87" class="s19" d="m669 473v-1h5v1z"/>
		<path id="Path 88" class="s3" d="m674 473v-1l9 1z"/>
		<path id="Path 89" class="s3" d="m719 474l7-2v1l-6 1z"/>
		<path id="Path 90" class="s7" d="m524 475l9-2 23 8v8h-8l-24-4z"/>
		<path id="Path 91" class="s27" d="m662 479v-6h6v6z"/>
		<path id="Path 92" class="s30" d="m668 479v-6h1 5l10 1h3l1 1 13 1h1v7l-16 2-10-2-1-3z"/>
		<path id="Path 93" class="s22" d="m684 474l-10-1h9z"/>
		<path id="Path 94" class="s42" d="m720 474l6-1h4 4v8l-6 6h-6l-2-3z"/>
		<path id="Path 95" class="s18" d="m688 475l-1-1h5v1z"/>
		<path id="Path 96" class="s1" d="m692 475v-1l10 2h-1z"/>
		<path id="Path 97" class="s31" d="m709 476l8-2h2 1v10l-18-1v-7z"/>
		<path id="Path 98" class="s12" d="m515 476l9-1v10h-2-4z"/>
		<path id="Path 99" class="s14" d="m701 476l-13-1h4z"/>
		<path id="Path 100" class="s3" d="m209 479l9-3-6 3z"/>
		<path id="Path 101" class="s27" d="m294 477h12l-6 12h-11l-3-4v-5z"/>
		<path id="Path 102" class="s43" d="m506 477l9-1 3 9-15 7-1-8 4-2z"/>
		<path id="Path 103" class="s35" d="m314 491h6l7-6 26-2 6-6 9 2v6l-2 7-6 3h-11l-2 6h-5l-17 3-5-1-4 5-8-1v-6l5-4z"/>
		<path id="Path 104" class="s44" d="m203 481l6-2h3l-10 4z"/>
		<path id="Path 105" class="s45" d="m368 485v-6h8v6z"/>
		<path id="Path 106" class="s3" d="m197 483l6-2-1 2h-2z"/>
		<path id="Path 107" class="s34" d="m556 489v-8l20 1v9z"/>
		<path id="Path 108" class="s10" d="m576 491v-9l30 1 54 8v13l4 5v6l-6 4-31-2-1-3-22-1-11-5 4-14-3-3z"/>
		<path id="Path 109" class="s9" d="m172 496l9-7 16-6h3l-6 4-15 6-12 10v-2l1-1 1-1 1-1 1-1z"/>
		<path id="Path 110" class="s42" d="m676 489v-6l10 2-1 4z"/>
		<path id="Path 111" class="s46" d="m278 491l8-6 3 4-4 4z"/>
		<path id="Path 112" class="s39" d="m366 492l2-7h8l13 5-2 7h-4l-1-4-4 1-6 2-4-1z"/>
		<path id="Path 113" class="s44" d="m503 492l15-7h4v14l-8 3-4-4-8-1z"/>
		<path id="Path 114" class="s37" d="m522 499v-14h2l24 4v10l-2 2-6-1z"/>
		<path id="Path 115" class="s5" d="m828 491v-6h12l8 9v2l-3 3-2 2-2 2-4 5-4 5v-14z"/>
		<path id="Path 116" class="s17" d="m167 503l12-10 15-6 10 8h5l12-8 6 1 1 3-8 10h-4-8l6 7 2 7-3 5-7 3-8-5v-10l-6 2-2-3-11-2-14 15-8 1v-2l5-11z"/>
		<path id="Path 117" class="s16" d="m256 492l1-5h13v6l-3 1z"/>
		<path id="Path 118" class="s44" d="m548 499v-10h8l20 2h18l3 3-4 14-36 1v-4z"/>
		<path id="Path 119" class="s12" d="m660 491l16-2h9v4l5 2v6l-12 3v9l-14 2v-6l-4-5z"/>
		<path id="Path 120" class="s47" d="m387 497l2-7 8 3v4l-5 2z"/>
		<path id="Path 121" class="s48" d="m402 493l4-3 7 3 1 6v6h-10l-2-8z"/>
		<path id="Path 122" class="s4" d="m848 494l6-4-6 6z"/>
		<path id="Path 123" class="s41" d="m220 501l8-10 12 1 2 21h-11l-6 13h-2l-3-3 2-4 1-12-3-2z"/>
		<path id="Path 124" class="s49" d="m270 493l8-2 7 2 5 8 1 11-1 2-8-4-16 1v-4l1-13z"/>
		<path id="Path 125" class="s48" d="m442 496l2-5h3l5 5v5l-10 2z"/>
		<path id="Path 126" class="s6" d="m814 495l14-4 5 8v14l-1 1-4 3h-7l-7 12h-4v-9l4-6z"/>
		<path id="Path 127" class="s15" d="m242 513l-2-21h16l11 2-1 13-11 4-2 2z"/>
		<path id="Path 128" class="s48" d="m360 495l6-3 2 3-2 4h-6z"/>
		<path id="Path 129" class="s7" d="m397 493l1-1 4 1v4h-5z"/>
		<path id="Path 130" class="s50" d="m378 494l4-1 1 4h4l5 2 5-2h5l2 8v8h-7l-3-5-16-5z"/>
		<path id="Path 131" class="s50" d="m414 499l6-5 8-1 14 3v7l-9 6-19-4z"/>
		<path id="Path 132" class="s51" d="m690 495l22-2 17 8h7l2 8-2 17-4 3-6-4-2-12-17-4-3-6-14-2z"/>
		<path id="Path 133" class="s52" d="m372 496l6-2v9l-5 2z"/>
		<path id="Path 134" class="s50" d="m452 496l22-1 2 5 5-4 21 1 8 1 4 4 2 11-4 3v13l-6 2h-4l-4-18-9-10-33 2-4-4z"/>
		<path id="Path 135" class="s47" d="m347 501l2-6h11v4l-8 2z"/>
		<path id="Path 136" class="s53" d="m366 499l2-4 4 1 1 9v2h-7z"/>
		<path id="Path 137" class="s33" d="m522 499l18 1v4l-10 8v9l-2 4-4 2-10 2h-2v-13l4-3-2-11z"/>
		<path id="Path 138" class="s54" d="m352 501l8-2h6v8l-6 10h-4l-4-6z"/>
		<path id="Path 139" class="s49" d="m546 501l2-2 9 6v4l-11 4z"/>
		<path id="Path 140" class="s47" d="m325 504l17-3-10 12h-8z"/>
		<path id="Path 141" class="s55" d="m530 521v-9l10-8v-4l6 1v12l-5 7-9 1z"/>
		<path id="Path 142" class="s0" d="m160 508l7-7v2l-5 5z"/>
		<path id="Path 143" class="s56" d="m214 508l-6-7h8v3z"/>
		<path id="Path 144" class="s7" d="m216 504v-3h4v4z"/>
		<path id="Path 145" class="s45" d="m291 512l-1-11h18v6 6z"/>
		<path id="Path 146" class="s57" d="m332 513l10-12h5 5v10h-7l-1 6h-12z"/>
		<path id="Path 147" class="s53" d="m442 503l10-2 4 4 33-2 9 10 4 18-4 4h-8l-1 4-10-1-5-20-59 1-8-2-3-4v-8h10l19 4z"/>
		<path id="Path 148" class="s43" d="m678 513v-9l12-3 14 2 3 6-2 3-11 1z"/>
		<path id="Path 149" class="s55" d="m316 508l4-5 5 1-1 9h-8z"/>
		<path id="Path 150" class="s54" d="m373 505l5-2 16 5 3 5h7l3 4 8 2 59-1 5 20-30 4-2-3h-33l-3-4h-17l-3-12-11-7-2-6-5-3z"/>
		<path id="Path 151" class="s58" d="m214 508l2-4 4 1 3 2-1 12h-5l-1-4z"/>
		<path id="Path 152" class="s16" d="m157 521l8-1 14-15 11 2 2 3-1 5-10 1-8 12-12 7-4-9z"/>
		<path id="Path 153" class="s51" d="m754 515v-10h6l6 3 2 5v24l-12 2v-12z"/>
		<path id="Path 154" class="s33" d="m255 511l11-4v4z"/>
		<path id="Path 155" class="s59" d="m308 513v-6l8 1v5 11l-2 3-6-4z"/>
		<path id="Path 156" class="s58" d="m360 517l6-10h7l5 3 2 6 11 7 3 12-2 4-21 2h-13l-2-8 4-7z"/>
		<path id="Path 157" class="s9" d="m156 516l4-8h2l-5 11h-1z"/>
		<path id="Path 158" class="s60" d="m192 510l6-2v10l8 5v5l-8-2-7-11z"/>
		<path id="Path 159" class="s38" d="m557 509l36-1 11 5 22 1 1 3-76 4-1 12-4 1v13h-6l1-27 5-7z"/>
		<path id="Path 160" class="s12" d="m694 513l11-1 2-3 17 4 2 12h-6l-15-4-9 2z"/>
		<path id="Path 161" class="s61" d="m266 511l16-1 8 4-2 7-5 6-12 2-1 8h-12l-6-2v-2l-1-12 2-8 2-2z"/>
		<path id="Path 162" class="s62" d="m344 517l1-6h7l4 6h4v9l-4 7-6-2v-8z"/>
		<path id="Path 163" class="s12" d="m290 514l1-2 17 1v10l-20 4v-6z"/>
		<path id="Path 164" class="s7" d="m225 526l6-13h11v10h-4l-8 9-4-2z"/>
		<path id="Path 165" class="s34" d="m242 523v-10h11l-2 8h-4l-1 4h-4z"/>
		<path id="Path 166" class="s63" d="m316 524v-11h8 8v4 14h-4l-9-1z"/>
		<path id="Path 167" class="s38" d="m664 515l14-2h16l2 10 9-2 15 4v16l-8 2-11-2-3-4h-10l-12-4-4-6-12-2-2-6z"/>
		<path id="Path 168" class="s28" d="m828 517l4-3-3 6z"/>
		<path id="Path 169" class="s27" d="m161 535l12-7 8-12 10-1 7 11-2 7h-13l-10 10-1 5-4-2z"/>
		<path id="Path 170" class="s64" d="m213 520l3-5 1 4h5l-2 4-4 1z"/>
		<path id="Path 171" class="s45" d="m756 527l-10-2v-9l8-1z"/>
		<path id="Path 172" class="s23" d="m154 517l2-1v3 7 1l-2-1z"/>
		<path id="Path 173" class="s65" d="m332 531v-14h12l6 6v8l6 2 2 8h13v6l5 4-2 8-14-2-4-5h-6z"/>
		<path id="Path 174" class="s66" d="m550 533l1-12 76-4 31 2 2 6 12 2 4 6 12 4v9h-18v-5l-6-6-18-7-43-3-14 4h-22l-1 4h-14z"/>
		<path id="Path 175" class="s5" d="m814 529l7-12h7l1 3v1l3 9v1l2 3v2l-6 5-1 18h-7z"/>
		<path id="Path 176" class="s37" d="m156 526v-7h1v2 5z"/>
		<path id="Path 177" class="s38" d="m206 523l7-3 3 4v5l-10-1z"/>
		<path id="Path 178" class="s7" d="m532 521l9-1-1 27v4h-4l-4-10v-16z"/>
		<path id="Path 179" class="s54" d="m246 525l1-4h4l1 12h-4z"/>
		<path id="Path 180" class="s47" d="m283 527l5-6v6z"/>
		<path id="Path 181" class="s49" d="m528 525l2-4h2v4z"/>
		<path id="Path 182" class="s42" d="m216 524l4-1 3 3-1 5h-6v-2z"/>
		<path id="Path 183" class="s50" d="m230 532l8-9h4v2l-2 13-4 7h-2l-4-6z"/>
		<path id="Path 184" class="s56" d="m288 527l20-4 6 4v6h-13l-5 7-1 11h-5l-2-8-5-1v-3z"/>
		<path id="Path 185" class="s60" d="m314 527l2-3 3 6 9 1-2 10h-4l-8-8z"/>
		<path id="Path 186" class="s59" d="m240 538l2-13h4l2 8v5l-1 1z"/>
		<path id="Path 187" class="s13" d="m524 527l4-2h4v16h-6-2z"/>
		<path id="Path 188" class="s46" d="m566 533l1-4h22l14-4 43 3 18 7 6 6v5h-15-4-11l-5-1-11 2-18 2h-7l-1-4-3-8z"/>
		<path id="Path 189" class="s41" d="m720 541v-16h6l6 4-2 12h-8z"/>
		<path id="Path 190" class="s67" d="m156 527v-1h1l4 9 7 11v1l-9-9z"/>
		<path id="Path 191" class="s68" d="m172 548l1-5 10-10h13l2-7 8 2 10 1v2 13l-7 5-7 2-9 2-4 5h-1-2l-11-6z"/>
		<path id="Path 192" class="s34" d="m222 531l1-5h2l1 4-1 1z"/>
		<path id="Path 193" class="s58" d="m270 537l1-8 12-2h5l-5 12h-11z"/>
		<path id="Path 194" class="s55" d="m514 529l10-2v14h-9z"/>
		<path id="Path 195" class="s47" d="m506 531l6-2h2l1 12-4 8h-5l-2-8z"/>
		<path id="Path 196" class="s13" d="m804 590l4-3 2-10-2-28 2-20h4l6 30-2 4 2 16-4 16-8-2z"/>
		<path id="Path 197" class="s55" d="m225 531l1-1 4 2v7h-6z"/>
		<path id="Path 198" class="s38" d="m216 544v-13h6 3l-1 8-2 1-5 4z"/>
		<path id="Path 199" class="s69" d="m326 541l2-10h4l18 21-4 1-10-5h-8z"/>
		<path id="Path 200" class="s57" d="m489 539l1-4h8l4-4h4l-2 10z"/>
		<path id="Path 201" class="s53" d="m248 538v-5h4v2z"/>
		<path id="Path 202" class="s70" d="m295 551l1-11 5-7h13l8 8h4l2 7-6 5-7-4-7 1 2 10 8 4v7l-4 2-14-1-6-7v-8z"/>
		<path id="Path 203" class="s41" d="m546 547v-13l4-1h2v14h-4z"/>
		<path id="Path 204" class="s40" d="m552 547v-14h14l29 4 3 8-18 4-11 2-4 4h-8l-2-7z"/>
		<path id="Path 205" class="s1" d="m834 536v-2l3 5z"/>
		<path id="Path 206" class="s48" d="m248 538l4-3 6 2-2 8-7-2-2-4z"/>
		<path id="Path 207" class="s62" d="m371 541l21-2 2-4h17l3 4h33l2 3-5 7h-6l-1-5-11-1-6 10-16 2-4 6-8 1v5l-1 2-14-3-3-7 2-8-5-4z"/>
		<path id="Path 208" class="s8" d="m827 559l1-18 6-5 3 3 2 3 3 4 1 2 1 5-6 1v6l-4 5 2 19v14h-10l-1-2 3-17z"/>
		<path id="Path 209" class="s50" d="m256 545l2-8h12l2 2v8l3 2-8 7-9-3z"/>
		<path id="Path 210" class="s71" d="m688 546v-9h10l3 4 11 2v7h-4-2l-3-2h-3l-10-2z"/>
		<path id="Path 211" class="s41" d="m756 539l12-2 1 17-11 14-5-1-1-4z"/>
		<path id="Path 212" class="s52" d="m236 545l4-7 7 1 2 4 7 2 2 8 9 3-2 7h-7l-8-6h-7z"/>
		<path id="Path 213" class="s63" d="m449 542l30-4 10 1 15 2 2 8-9 4-26-4-13 8h-13l-4 4-15 4v-2-4l12-10h6z"/>
		<path id="Path 214" class="s53" d="m222 540l2-1h6l4 6-4 8-8-1z"/>
		<path id="Path 215" class="s53" d="m275 549l-3-2v-8h11v3l-6 7z"/>
		<path id="Path 216" class="s50" d="m217 544l5-4v12l-5-2z"/>
		<path id="Path 217" class="s64" d="m506 549h5l4-8h9 2v14h-6l-6 6h-9l-3 4h-14l-3-5-16-1-17 10-10 1-10 5-2 4h-12v-6l6-3 2-5 15-4 4-4h13l13-8 26 4z"/>
		<path id="Path 218" class="s52" d="m526 555v-14h6l4 10-2 8-6 2z"/>
		<path id="Path 219" class="s66" d="m712 543l8-2h2v14l-5-2-5-3z"/>
		<path id="Path 220" class="s46" d="m722 555v-14h8l4 17h-1-2l-8-3z"/>
		<path id="Path 221" class="s34" d="m277 549l6-7 5 1 2 8v6h-10v-6z"/>
		<path id="Path 222" class="s57" d="m392 567v-5l8-1 4-6 16-2 6-10 11 1 1 5-12 10v4l-15 4z"/>
		<path id="Path 223" class="s71" d="m209 549l7-5h1v6l5 2 8 1 1 9 3 2-1 6h-4l-13-3-4-1-1-1 3-3-4-9z"/>
		<path id="Path 224" class="s72" d="m230 553l4-8h2l7 12h7l8 6v6l-4 1v6l-8-1-12-3-1-2 1-6-3-2z"/>
		<path id="Path 225" class="s51" d="m580 549l18-4 1 4-1 4-16 2h-2z"/>
		<path id="Path 226" class="s73" d="m624 547l11-2v2h-9v3h-1z"/>
		<path id="Path 227" class="s0" d="m635 547v-2l5 1v1z"/>
		<path id="Path 228" class="s28" d="m640 546h11v1h-11z"/>
		<path id="Path 229" class="s25" d="m655 546h15 18 2v1h-35z"/>
		<path id="Path 230" class="s73" d="m168 547v-1l4 2 3 4h-1z"/>
		<path id="Path 231" class="s74" d="m651 547v-1h4v1z"/>
		<path id="Path 232" class="s29" d="m690 547v-1l10 2z"/>
		<path id="Path 233" class="s12" d="m540 551v-4h6 2v7l8 3v4l4 1-2 4-1 2-3 3h-10z"/>
		<path id="Path 234" class="s51" d="m556 557l-8-3v-7h4l3 1 2 7z"/>
		<path id="Path 235" class="s37" d="m606 549l18-2 1 3-1 8-2 5h-1l-4-4-15 2-3 7-15 12-5-2v-2l20-19h4z"/>
		<path id="Path 236" class="s75" d="m322 553l6-5h8l10 5v12l-6 11v7h-12l-3-9-7-3v-7l4-2z"/>
		<path id="Path 237" class="s23" d="m844 553l-1-5 4 8z"/>
		<path id="Path 238" class="s56" d="m202 551l7-2 1 4h-6z"/>
		<path id="Path 239" class="s38" d="m267 556l8-7h2l3 2v6 8l-4 2h-9l-2-4z"/>
		<path id="Path 240" class="s76" d="m318 564l-8-4-2-10 7-1 7 4v9z"/>
		<path id="Path 241" class="s45" d="m557 555h8l4-4 11-2v6l-13 11-4-2-1-1-2-1-4-1v-4z"/>
		<path id="Path 242" class="s44" d="m582 555l16-2 1-4h7l-3 8h-4l-20 19-7-5 8-6z"/>
		<path id="Path 243" class="s29" d="m624 558l1-8h1z"/>
		<path id="Path 244" class="s73" d="m717 553l-9-3h4z"/>
		<path id="Path 245" class="s42" d="m189 558l4-5 9-2 2 2 2 10h-3-3l-7-3h-2z"/>
		<path id="Path 246" class="s75" d="m290 557v-6h5l-1 6z"/>
		<path id="Path 247" class="s10" d="m528 561l6-2 2-8h4l4 20h-4-2l-10-2z"/>
		<path id="Path 248" class="s23" d="m186 558l-12-6h1z"/>
		<path id="Path 249" class="s77" d="m346 553l4-1h6l4 5 2 24-2 12h-14l-3-2-3-8v-7l6-11z"/>
		<path id="Path 250" class="s46" d="m206 563l-2-10h6l4 9-3 3z"/>
		<path id="Path 251" class="s11" d="m836 584l-2-19 4-5v-6l6-1 3 3 2 5 1 7-8 6-2 9z"/>
		<path id="Path 252" class="s59" d="m514 561l6-6h6l2 6v8l-10 1-10 6h-10l-8 5-4-2 2-14h14l1 5h7l4-4z"/>
		<path id="Path 253" class="s43" d="m567 566l13-11h2l-2 10-8 6z"/>
		<path id="Path 254" class="s72" d="m280 565v-8h10 4v8l6 7 14 1 4 16-5-1h-6l-3-1h-2v-2l-1-7-15-1v-10z"/>
		<path id="Path 255" class="s64" d="m362 581l-2-24 14 2 3 7-3 2 2 11v2z"/>
		<path id="Path 256" class="s18" d="m191 560l-3-2h1z"/>
		<path id="Path 257" class="s3" d="m736 560l-3-2h1z"/>
		<path id="Path 258" class="s77" d="m452 569l17-10 16 1 3 5-2 14-9 2-4-1h-11l-1-4-9-1z"/>
		<path id="Path 259" class="s6" d="m584 580l15-12 3-7 15-2 4 4-1 4-1 3v1l-1 2-13 2-9 9v6h-2l-3-2-3-3-2-2z"/>
		<path id="Path 260" class="s14" d="m816 595l4-16-2-16 2-4h7l1 20-3 17h-8z"/>
		<path id="Path 261" class="s49" d="m502 565l3-4h9v5l-4 4h-7z"/>
		<path id="Path 262" class="s1" d="m850 568l-1-7 3 9z"/>
		<path id="Path 263" class="s3" d="m558 566l2-4 2 1z"/>
		<path id="Path 264" class="s74" d="m212 567l-9-4h3l5 2 1 1z"/>
		<path id="Path 265" class="s51" d="m258 569v-6h7l2 4-1 4h-4z"/>
		<path id="Path 266" class="s47" d="m392 567h19l15-4v2l-2 5-6 3-24 1-3-5z"/>
		<path id="Path 267" class="s18" d="m620 567l1-4h1l-1 4z"/>
		<path id="Path 268" class="s7" d="m753 567l-7-4h6z"/>
		<path id="Path 269" class="s9" d="m563 566v-2l4 2 5 5 7 5v2l-8-3-7-8z"/>
		<path id="Path 270" class="s3" d="m563 566h1v1h-1z"/>
		<path id="Path 271" class="s71" d="m276 567l4-2 6 2v10 6l-8-1-5-2v-1z"/>
		<path id="Path 272" class="s19" d="m212 567v-1l4 1z"/>
		<path id="Path 273" class="s55" d="m376 579l-2-11 3-2 14 3 3 5 24-1v6l-8 4-8-2-14 2-4-4z"/>
		<path id="Path 274" class="s41" d="m262 571h4l1-4h9l-3 12h-10l-1-1z"/>
		<path id="Path 275" class="s4" d="m619 570l1-3h1z"/>
		<path id="Path 276" class="s4" d="m554 571l3-3-3 4z"/>
		<path id="Path 277" class="s22" d="m836 584l4-1 2-9 8-6 2 2 2 13-2 6-3 4-2 3-3 2h-8z"/>
		<path id="Path 278" class="s78" d="m254 576v-6l4-1 4 2v7h-5z"/>
		<path id="Path 279" class="s59" d="m430 579l2-4 10-5 10-1v6l-6 4v6l-3 1-4 1-8 1z"/>
		<path id="Path 280" class="s14" d="m508 576l10-6 10-1 10 2-3 2-9 7v15h-5l-3 6h-6l-3-1-3-2z"/>
		<path id="Path 281" class="s79" d="m234 572l-5-2h4z"/>
		<path id="Path 282" class="s56" d="m314 573l4-2 7 3 3 9v6h-8-2z"/>
		<path id="Path 283" class="s4" d="m535 573l3-2h2v1l-3 2z"/>
		<path id="Path 284" class="s18" d="m540 572v-1h4 10v1z"/>
		<path id="Path 285" class="s4" d="m618 573l1-2-1 5z"/>
		<path id="Path 286" class="s8" d="m526 595v-15l9-7 2 1 2 3 2 2-3 3v7l-8 8z"/>
		<path id="Path 287" class="s5" d="m596 590v-6l9-9 13-2v3l-1 4-2 4-8 6-10 1z"/>
		<path id="Path 288" class="s80" d="m246 575l8 1 3 2z"/>
		<path id="Path 289" class="s52" d="m446 585v-6l6-4 9 1 1 4-7 2z"/>
		<path id="Path 290" class="s13" d="m490 581l8-5h10l-2 22-13-5-3-3z"/>
		<path id="Path 291" class="s38" d="m286 583v-6l15 1 1 7h-6z"/>
		<path id="Path 292" class="s9" d="m586 583l-7-5 5 2z"/>
		<path id="Path 293" class="s20" d="m273 580l-10-1h10z"/>
		<path id="Path 294" class="s49" d="m376 581v-2h8l4 4 14-2 8 2 8-4h12l1 9-1 1-11 1-1 1-14 2h-12l-1-5-8-1z"/>
		<path id="Path 295" class="s56" d="m477 581l9-2 4 2v9h-2l-5-3-5-3-1-1z"/>
		<path id="Path 296" class="s22" d="m530 597l8-8v-7l3-3 1 2 2 5v4 10l-2 3h-3-9z"/>
		<path id="Path 297" class="s81" d="m477 583l-4-3 4 1z"/>
		<path id="Path 298" class="s59" d="m360 593l2-12h14l7 6 8 1 1 5-2 2z"/>
		<path id="Path 299" class="s7" d="m328 589v-6h12l3 8-15-1z"/>
		<path id="Path 300" class="s28" d="m798 588l-9-5 5 1z"/>
		<path id="Path 301" class="s9" d="m302 587l-6-2h6z"/>
		<path id="Path 302" class="s23" d="m544 590v-4l2 4z"/>
		<path id="Path 303" class="s1" d="m320 590l-7-2 5 1h2z"/>
		<path id="Path 304" class="s20" d="m320 590v-1h8v1z"/>
		<path id="Path 305" class="s18" d="m346 593l-18-3 15 1z"/>
		<path id="Path 306" class="s24" d="m493 593l-5-3h2z"/>
		<path id="Path 307" class="s67" d="m544 600v-10h2z"/>
		<path id="Path 308" class="s3" d="m597 592l-3-2h2l1 1z"/>
		<path id="Path 309" class="s18" d="m597 591l10-1-10 2z"/>
		<path id="Path 310" class="s3" d="m808 593l-5-3h1z"/>
		<path id="Path 311" class="s5" d="m518 601l3-6h5l4 2v6h-4-7z"/>
		<path id="Path 312" class="s81" d="m826 598l-9-2h8z"/>
		<path id="Path 313" class="s18" d="m519 603l-7-2h6z"/>
		<path id="Path 314" class="s3" d="m529 605l-3-2h4v2z"/>
		<path id="Path 315" class="s28" d="m530 605v-2h9v1l-1 1z"/>
		<path id="Path 316" class="s4" d="m538 604h1v1h-1z"/>
	</g>
</svg>