<svg version="1.2" xmlns="http://www.w3.org/2000/svg" viewBox="0 0 1000 1000" width="1000" height="1000">
	<title>Pimephales_vigilax</title>
	<style>
		.s0 { opacity: .8;fill: #afbfcb } 
		.s1 { opacity: .4;fill: #a2b8c3 } 
		.s2 { opacity: .5;fill: #788ba8 } 
		.s3 { opacity: .7;fill: #d0d6dd } 
		.s4 { opacity: .2;fill: #d4dadf } 
		.s5 { opacity: 1;fill: #53799b } 
		.s6 { opacity: 1;fill: #497296 } 
		.s7 { opacity: .3;fill: #aabac5 } 
		.s8 { opacity: 1;fill: #4d7294 } 
		.s9 { opacity: .5;fill: #c7cfd8 } 
		.s10 { opacity: 1;fill: #5b84ab } 
		.s11 { opacity: 1;fill: #426689 } 
		.s12 { opacity: .6;fill: #a3b2c1 } 
		.s13 { fill: #41607c } 
		.s14 { opacity: 1;fill: #3d5563 } 
		.s15 { opacity: 1;fill: #5f7f99 } 
		.s16 { fill: #405a6a } 
		.s17 { fill: #67849c } 
		.s18 { opacity: 1;fill: #465962 } 
		.s19 { opacity: 1;fill: #8196aa } 
		.s20 { opacity: 1;fill: #4b626d } 
		.s21 { opacity: .7;fill: #89969a } 
		.s22 { opacity: .7;fill: #7890a9 } 
		.s23 { fill: #567286 } 
		.s24 { opacity: 1;fill: #4a6577 } 
		.s25 { opacity: 1;fill: #516874 } 
		.s26 { opacity: .3;fill: #8f9dac } 
		.s27 { opacity: .3;fill: #43657e } 
		.s28 { fill: #617c90 } 
		.s29 { opacity: .3;fill: #5b666d } 
		.s30 { opacity: 1;fill: #91a1b0 } 
		.s31 { opacity: .4;fill: #d3dadf } 
		.s32 { fill: #516c7e } 
		.s33 { opacity: 1;fill: #374956 } 
		.s34 { opacity: .7;fill: #51646f } 
		.s35 { fill: #728490 } 
		.s36 { fill: #698395 } 
		.s37 { opacity: 1;fill: #2f3b4b } 
		.s38 { fill: #58778e } 
		.s39 { fill: #c8d6e9 } 
		.s40 { fill: #748da0 } 
		.s41 { opacity: .5;fill: #5a7480 } 
		.s42 { fill: #6c94b4 } 
		.s43 { fill: #6f9cc4 } 
		.s44 { fill: #6c8ba6 } 
		.s45 { fill: #7ba9d3 } 
		.s46 { fill: #84a8cd } 
		.s47 { fill: #98b4d1 } 
		.s48 { fill: #bac9e0 } 
		.s49 { fill: #9fbedf } 
		.s50 { fill: #b1c4de } 
		.s51 { opacity: 1;fill: #5c7481 } 
		.s52 { fill: #8ba9c6 } 
		.s53 { fill: #7795af } 
		.s54 { fill: #93abbf } 
		.s55 { fill: #abc6e6 } 
		.s56 { fill: #b6cfeb } 
		.s57 { fill: #7b9dbd } 
		.s58 { fill: #8b979c } 
		.s59 { fill: #90b6da } 
		.s60 { fill: #5e81a1 } 
		.s61 { fill: #d8e0ef } 
		.s62 { opacity: 1;fill: #608ab3 } 
		.s63 { fill: #9db3c7 } 
		.s64 { opacity: .7;fill: #6f7b8d } 
		.s65 { fill: #a6bcd5 } 
		.s66 { fill: #849eb6 } 
		.s67 { fill: #8895a0 } 
		.s68 { opacity: .4;fill: #8aa66f } 
		.s69 { opacity: 1;fill: #5a6c71 } 
		.s70 { fill: #808f97 } 
		.s71 { opacity: 1;fill: #737f87 } 
		.s72 { opacity: 1;fill: #6b7a7a } 
		.s73 { opacity: 1;fill: #3d6c9d } 
		.s74 { opacity: 1;fill: #4d575a } 
		.s75 { opacity: .6;fill: #aaabac } 
		.s76 { opacity: .6;fill: #cecd6b } 
		.s77 { opacity: 1;fill: #223e57 } 
		.s78 { opacity: .7;fill: #b5bf4b } 
		.s79 { opacity: .4;fill: #778e9d } 
		.s80 { opacity: .3;fill: #c743d1 } 
		.s81 { opacity: 1;fill: #8f7ba4 } 
		.s82 { opacity: .3;fill: #d5da2f } 
		.s83 { opacity: 1;fill: #a68c8e } 
		.s84 { opacity: .3;fill: #b2a499 } 
		.s85 { opacity: .4;fill: #af38be } 
		.s86 { opacity: .4;fill: #2f4953 } 
		.s87 { opacity: .3;fill: #b74730 } 
	</style>
	<g id="Background">
		<path id="Path 0" class="s0" d="m514 399l1-2h3v1z"/>
		<path id="Path 1" class="s1" d="m518 398v-1h20v1z"/>
		<path id="Path 2" class="s2" d="m538 398v-1h6v1z"/>
		<path id="Path 3" class="s3" d="m544 398v-1h4l1 1v1z"/>
		<path id="Path 4" class="s4" d="m548 397h1v1h-1z"/>
		<path id="Path 5" class="s5" d="m514 399l4-1h20 6l5 1h1v1l-3 4-17 5-16 1-4 5-8 2-10-4 8-7 3-2 4-3 6-2z"/>
		<path id="Path 6" class="s1" d="m550 400v-1l4 2 3 9z"/>
		<path id="Path 7" class="s6" d="m530 409l17-5 3-4 7 10 4 8v2l-34 15-7-2 1-8 8-7z"/>
		<path id="Path 8" class="s7" d="m498 406l5-2-3 2z"/>
		<path id="Path 9" class="s0" d="m488 414l10-8h2l-8 7z"/>
		<path id="Path 10" class="s8" d="m492 413l10 4 8-2 4-5 16-1-1 9-8 7-1 8-31-2h-6l-1-2v-6l-3-2 8-7h1z"/>
		<path id="Path 11" class="s9" d="m561 418l-4-8 5 8z"/>
		<path id="Path 12" class="s9" d="m473 424l3-5 11-5-8 7z"/>
		<path id="Path 13" class="s3" d="m851 417l16-2v2h-11z"/>
		<path id="Path 14" class="s5" d="m838 419l13-2h5l9 23-7 9-8 5-6-11h-6l-2-8-13 5-19 21-2 12h-8v-11l4-3 4-12 7-6 3-11 12-6h2l9-4z"/>
		<path id="Path 15" class="s10" d="m865 440l-9-23h11l6 2 2 7-3 7-3 3-2 2v1z"/>
		<path id="Path 16" class="s0" d="m561 420v-2h1l10 18z"/>
		<path id="Path 17" class="s1" d="m872 433l3-7-2-7 3 1v9z"/>
		<path id="Path 18" class="s11" d="m520 433l7 2 34-15 11 16v1l5 7v1l4 6v2l-6 2-19-4-1-6-14-3-3 2v9h-12l-7-6h-11l-18-1-1-15z"/>
		<path id="Path 19" class="s7" d="m826 424l4-4h5z"/>
		<path id="Path 20" class="s6" d="m473 424l6-3 3 2v6h-8l-5-1v-1l3-3z"/>
		<path id="Path 21" class="s9" d="m468 427l4-3-3 3z"/>
		<path id="Path 22" class="s12" d="m808 429l16-5-12 6h-4z"/>
		<path id="Path 23" class="s0" d="m446 444l22-17h1v1l-14 12z"/>
		<path id="Path 24" class="s13" d="m455 440l14-12 5 1v6l-4 3v5h-6-8z"/>
		<path id="Path 25" class="s14" d="m474 435v-6h8l1 2z"/>
		<path id="Path 26" class="s7" d="m803 432l5-3v1z"/>
		<path id="Path 27" class="s15" d="m803 432l5-2h4l-3 11-7 6-4 12-4 3v11l1 10-1 2-8 1-4 2-2 1h-4l2-12-2-18 4-12 4-2v-6l4-2 8-3h2l4-2z"/>
		<path id="Path 28" class="s16" d="m474 435l9-4h6l1 15-20-3v-5z"/>
		<path id="Path 29" class="s8" d="m802 473l2-12 19-21 13-5 2 8-16 17 1 13-3 3h-1l-3 2-8 3h-4z"/>
		<path id="Path 30" class="s17" d="m780 440l4-1v6l-4 2-4 12 2 18-2 12h-9l-5-10-5-2-1-16 2-12 2-4 8-1 4-2h1z"/>
		<path id="Path 31" class="s7" d="m865 440l2-1-9 10z"/>
		<path id="Path 32" class="s18" d="m446 444l9-4 1 3h8v7l8 6 31-1 5-4 18 3 4 5-2 11-6 4-10 1h-4l-2-6h-44l-2-6-23-9-1-7h2z"/>
		<path id="Path 33" class="s13" d="m538 453v-9l3-2 14 3 1 6-10 2z"/>
		<path id="Path 34" class="s14" d="m508 451l-5 4-31 1-8-6v-7h6l20 3 18 1z"/>
		<path id="Path 35" class="s6" d="m823 473l-1-13 16-17h6l6 11-1 2-2 2-5 3-5 4-4 3h-1l-3 3h-2z"/>
		<path id="Path 36" class="s3" d="m581 451l-4-6 5 6z"/>
		<path id="Path 37" class="s19" d="m751 449l9-4-2 4z"/>
		<path id="Path 38" class="s3" d="m388 449l10-2v2z"/>
		<path id="Path 39" class="s0" d="m398 449v-2h17z"/>
		<path id="Path 40" class="s20" d="m398 449l17-2h21l1 7 23 9 2 6-4 2-11-1-6-7-81-6-16 2-9 6-3 11-10 2-3-3-5 2-17-2-3-4v-10l1-1 13-1 6-2h4l7-2h3l5-1h6l7-2h3l10-1 14-2h15z"/>
		<path id="Path 41" class="s16" d="m508 451v-4h11l7 6v1z"/>
		<path id="Path 42" class="s21" d="m359 450l14-1-14 2z"/>
		<path id="Path 43" class="s15" d="m745 450l3-1h3 7l-2 12h-10l-2-10z"/>
		<path id="Path 44" class="s7" d="m850 454l8-5-9 7z"/>
		<path id="Path 45" class="s7" d="m349 452l10-2v1z"/>
		<path id="Path 46" class="s7" d="m739 452l6-2-1 1z"/>
		<path id="Path 47" class="s16" d="m546 453l10-2 19 4v9l-3 3h-17l-9-8z"/>
		<path id="Path 48" class="s22" d="m581 453v-2h1l3 4z"/>
		<path id="Path 49" class="s23" d="m739 452l5-1 2 10-1 5-5 1h-4l-2-13 4-2z"/>
		<path id="Path 50" class="s7" d="m733 454l5-2-4 2z"/>
		<path id="Path 51" class="s20" d="m526 454v-1h12 8v6l9 8h17l3-3v-9l6-2 4 2 6 4 6 1 9 1 8 1 8 1h2l25 1h2 25l8-1 5-1h5v8l-18 5h-23l-1-2-8 2h-13l-2 3h-15-8-21-7l-16-5-18 2-12-2-4-3 2-11z"/>
		<path id="Path 52" class="s7" d="m724 455l7-1-4 2h-3z"/>
		<path id="Path 53" class="s24" d="m727 456l4-2h2 1l2 13h-8z"/>
		<path id="Path 54" class="s9" d="m719 457l5-2v1l-4 1z"/>
		<path id="Path 55" class="s16" d="m720 457l4-1h3l1 11h-8z"/>
		<path id="Path 56" class="s25" d="m332 476l3-11 9-6 16-2 81 6 6 7-1 3h-7l-3-4-44-1-8-3h-21l-7 5v7l-2 2-15-1z"/>
		<path id="Path 57" class="s14" d="m711 459l6-2h2 1v10l-5 2h-13v-8l5-2z"/>
		<path id="Path 58" class="s26" d="m696 460l11-1-5 2h-6z"/>
		<path id="Path 59" class="s7" d="m288 462l7-2-1 1z"/>
		<path id="Path 60" class="s27" d="m606 461l-9-1h9z"/>
		<path id="Path 61" class="s7" d="m606 461v-1l8 2z"/>
		<path id="Path 62" class="s7" d="m689 462l7-2v1l-2 1z"/>
		<path id="Path 63" class="s18" d="m288 462l6-1v10l-6 1-2-9z"/>
		<path id="Path 64" class="s18" d="m694 462l2-1h6v8l-5 1h-3z"/>
		<path id="Path 65" class="s28" d="m740 467l5-1 1-5h10l1 16 5 2 5 10-1 3-6-1-2-5h-6l-2 3h-5v-5l-5-1z"/>
		<path id="Path 66" class="s7" d="m276 464l7-2v1z"/>
		<path id="Path 67" class="s29" d="m283 463v-1h5l-2 1z"/>
		<path id="Path 68" class="s29" d="m622 463l-8-1h8z"/>
		<path id="Path 69" class="s7" d="m622 463v-1h10v1h-8z"/>
		<path id="Path 70" class="s4" d="m632 463v-1l19 2h-2z"/>
		<path id="Path 71" class="s7" d="m676 464l8-2v1z"/>
		<path id="Path 72" class="s29" d="m684 463v-1h5z"/>
		<path id="Path 73" class="s14" d="m276 464l7-1h3l2 9 1 9-1 2h-9l-3 6-9 1-5-3v-6l7-5 1-10 2-2z"/>
		<path id="Path 74" class="s30" d="m649 464l-25-1h8z"/>
		<path id="Path 75" class="s31" d="m266 466l6-2-2 2z"/>
		<path id="Path 76" class="s12" d="m258 467l7-1-7 2z"/>
		<path id="Path 77" class="s32" d="m356 477v-7l7-5h21l8 3v11l-9 6-5 1-2 1-11-1-3-6z"/>
		<path id="Path 78" class="s33" d="m258 468l7-2h1 4l-1 10-7 5v6l-15 2-10-4h-7v5 2l-3 2-3-5v-12l1-1 6-2h2l4-2h1 2l1 6 7 1 5-9z"/>
		<path id="Path 79" class="s34" d="m249 469l9-2v1l-5 2h-4z"/>
		<path id="Path 80" class="s35" d="m715 469l5-2h8 8 4v16l-4 4h-12v-11l-9-4z"/>
		<path id="Path 81" class="s23" d="m392 479v-11l44 1 3 4-1 9-14-1-13-2-3 4h-10z"/>
		<path id="Path 82" class="s7" d="m238 472l11-3v1l-9 2z"/>
		<path id="Path 83" class="s28" d="m458 471l4-2h44l2 6v4h-33l-5 4h-8l-4-4z"/>
		<path id="Path 84" class="s36" d="m697 470l5-1h13v3l-8 3h-4l-6-4z"/>
		<path id="Path 85" class="s37" d="m240 472l9-2h4l-5 9-7-1z"/>
		<path id="Path 86" class="s38" d="m446 473l1-3 11 1v8h-8z"/>
		<path id="Path 87" class="s38" d="m522 474l6-4 4 3v4h-6-3z"/>
		<path id="Path 88" class="s17" d="m676 475l18-5h3v1l-1 6-2 4-17-1z"/>
		<path id="Path 89" class="s24" d="m288 472l6-1 3 4-1 3-7 3z"/>
		<path id="Path 90" class="s39" d="m696 477l1-6 6 4-3 2z"/>
		<path id="Path 91" class="s26" d="m823 473l4-2-2 4-5 1z"/>
		<path id="Path 92" class="s40" d="m707 475l8-3 9 4v11l-8 1-2 3-20 2v-5l9-7 4-1z"/>
		<path id="Path 93" class="s28" d="m438 482l1-9h7l4 6-4 4z"/>
		<path id="Path 94" class="s15" d="m532 477v-4l12 2-1 10h-7z"/>
		<path id="Path 95" class="s17" d="m544 475l18-2 16 5 1 21-5 2h-5v-7l-7-5-18-2-1-2z"/>
		<path id="Path 96" class="s17" d="m644 475l8-2 1 2-3 4h-6z"/>
		<path id="Path 97" class="s38" d="m795 483l-1-10h8l2 8-5 2z"/>
		<path id="Path 98" class="s41" d="m225 475l6-1-6 2z"/>
		<path id="Path 99" class="s42" d="m512 475l10-1 1 3-11 2z"/>
		<path id="Path 100" class="s12" d="m221 477l4-2v1l-1 1h-2z"/>
		<path id="Path 101" class="s43" d="m296 478l1-3 17 2 5-2 3 3 1 6 5 1-2 6h-4l-5-6h-15z"/>
		<path id="Path 102" class="s38" d="m508 479v-4h4v4l-2 1z"/>
		<path id="Path 103" class="s36" d="m629 478l2-3h13v4l-4 1v5h-8z"/>
		<path id="Path 104" class="s44" d="m644 479h6l3-4h23l1 5 17 1v7 5 6h-6l-8 1v9l-4 4-18-1-1-8-4-4h-5l-8-5v-10-5z"/>
		<path id="Path 105" class="s19" d="m700 477l3-2h4v5l-4 1z"/>
		<path id="Path 106" class="s10" d="m322 478l10-2 7 2-2 5-9 2-5-1z"/>
		<path id="Path 107" class="s34" d="m213 479l8-2h1l-9 3z"/>
		<path id="Path 108" class="s37" d="m213 480l9-3h2v12h-11l2 9v6l-5 6-8 1-8-5-2-8 3-5 6-3v-6z"/>
		<path id="Path 109" class="s45" d="m339 478l15 1v12l6 6v10l-41-2-9-7h-8v-7-6h15l5 6h4l2-6 9-2z"/>
		<path id="Path 110" class="s46" d="m354 479l2-2 6 3 3 6 11 1v6l-16 4-6-6z"/>
		<path id="Path 111" class="s47" d="m512 479l11-2h3v7l6 3 1 17-25-1-3-8v-6l5-9z"/>
		<path id="Path 112" class="s36" d="m532 487l-6-3v-7h6l4 8z"/>
		<path id="Path 113" class="s28" d="m585 478h21l-2 7-3 2v6l4 2 1 4h-22z"/>
		<path id="Path 114" class="s48" d="m694 481l2-4h4l3 4-9 7z"/>
		<path id="Path 115" class="s49" d="m289 481l7-3 6 7v6l-5-4-4 1h-4l-1-5z"/>
		<path id="Path 116" class="s36" d="m579 499l-1-21h7l-1 21z"/>
		<path id="Path 117" class="s17" d="m604 485l2-7h8v7l-1 11-7 3-1-4z"/>
		<path id="Path 118" class="s44" d="m614 485v-7h15l3 7-5 5-9 1v-4z"/>
		<path id="Path 119" class="s26" d="m198 484l5-4 10-1v1l-12 4z"/>
		<path id="Path 120" class="s28" d="m383 485l9-6 6 4v4l-12 2-3-3z"/>
		<path id="Path 121" class="s28" d="m408 483l3-4 13 2v6h-7l-1 4h-4l-4-4z"/>
		<path id="Path 122" class="s36" d="m438 482l8 1 4-4h8l4 4h8l5-4h33l2 1-5 9-16 1-1 5-14 1-17-1-2 4h-5l-12-2-2-7-8 3-4-6v-6z"/>
		<path id="Path 123" class="s16" d="m276 489l3-6h9l1 5h4l-1 9 3 5-4 1-6-8-2-4h-6z"/>
		<path id="Path 124" class="s36" d="m398 487v-4h10v4l-4 3z"/>
		<path id="Path 125" class="s36" d="m724 487h12l4-4 5 1v5l-1 6-1 1-21 1-8-2v-4l2-3z"/>
		<path id="Path 126" class="s3" d="m794 485l1-2h4z"/>
		<path id="Path 127" class="s33" d="m193 485l3-1h2 3v6l-6 3-3-1-1-4 1-3z"/>
		<path id="Path 128" class="s50" d="m378 486l5-1v1z"/>
		<path id="Path 129" class="s51" d="m181 489l11-4-1 3z"/>
		<path id="Path 130" class="s42" d="m230 490v-5h7l-1 4z"/>
		<path id="Path 131" class="s45" d="m236 489l1-4 10 4 1 7-9-4z"/>
		<path id="Path 132" class="s40" d="m532 487l4-2h7l1 2v16l-11 1z"/>
		<path id="Path 133" class="s52" d="m605 495l-4-2v-6l3-2z"/>
		<path id="Path 134" class="s52" d="m613 496l1-11 4 2v4l-1 5z"/>
		<path id="Path 135" class="s52" d="m627 490l5-5h8v10l-7 7h-4z"/>
		<path id="Path 136" class="s47" d="m376 487l2-1h5l3 3-2 12h-8v-8z"/>
		<path id="Path 137" class="s37" d="m750 489l2-3h6l2 5-2 4h-5l-3-1z"/>
		<path id="Path 138" class="s16" d="m247 489l15-2 5 3-2 6 3 6-15 3-1 4-4-1-1-5 3-3-2-4z"/>
		<path id="Path 139" class="s43" d="m293 488l4-1 5 4v7l-5 4h-2l-3-5z"/>
		<path id="Path 140" class="s53" d="m386 489l12-2 6 3 4 5h4v4l-4 4 2 10h-5l-9-12-5 2h-5l-2-2z"/>
		<path id="Path 141" class="s47" d="m404 490l4-3 4 4v4h-4z"/>
		<path id="Path 142" class="s54" d="m416 491l1-4h7l4 6v3l-4 5-6-2z"/>
		<path id="Path 143" class="s44" d="m544 503v-16l18 2 7 5v7l-1 4-8 2-4-2-5 2z"/>
		<path id="Path 144" class="s14" d="m181 489l10-1 1 4-3 5-1 12v2h-5l-1 4h-13l-1-16 2-8 6-1z"/>
		<path id="Path 145" class="s7" d="m780 489l2-1v4z"/>
		<path id="Path 146" class="s30" d="m215 498l-2-9h11l3 5-1 2-10 2z"/>
		<path id="Path 147" class="s55" d="m230 490l6-1 3 3v6l-8 3-1-9z"/>
		<path id="Path 148" class="s56" d="m267 490l9-1 1 2 5 7v2l-8 7h-4l-2-5-3-6z"/>
		<path id="Path 149" class="s40" d="m488 495l1-5 16-1v6h-13z"/>
		<path id="Path 150" class="s33" d="m744 495l1-6h5v5z"/>
		<path id="Path 151" class="s38" d="m760 491l6 1 1-3h9 4l2 3 4 2h19l5 1 2 15 4 7-5 9-19 1-1-5h-7l-3-3-9-2-16 2 2-24z"/>
		<path id="Path 152" class="s31" d="m161 496l2-6h5v1z"/>
		<path id="Path 153" class="s27" d="m168 491v-1h8l-6 1z"/>
		<path id="Path 154" class="s52" d="m428 493l8-3 2 7-10-1z"/>
		<path id="Path 155" class="s57" d="m618 491l9-1 2 12-3 1h-6l-3-7z"/>
		<path id="Path 156" class="s11" d="m161 496l7-5h2l-2 8-8 1 1-3z"/>
		<path id="Path 157" class="s58" d="m282 498l-5-7h6l2 4z"/>
		<path id="Path 158" class="s44" d="m412 495v-4h4l2 8h-6z"/>
		<path id="Path 159" class="s17" d="m694 493l20-2v4l-2 2h-7l-4 4-7-2z"/>
		<path id="Path 160" class="s30" d="m189 497l3-5 3 1-3 5z"/>
		<path id="Path 161" class="s17" d="m227 494l3-2 1 9h-5v-5z"/>
		<path id="Path 162" class="s56" d="m231 501l8-3v-6l9 4 2 4-3 3 1 5-3 3v11l-3 2-15 1-3-9 6-8z"/>
		<path id="Path 163" class="s59" d="m360 497l16-4v8l-2 8-14-2z"/>
		<path id="Path 164" class="s13" d="m744 495l6-1 3 1-3 6h-6l-1-5z"/>
		<path id="Path 165" class="s4" d="m810 495l-5-1 7 1z"/>
		<path id="Path 166" class="s40" d="m282 498l3-3 6 8 4-1h2l1 6 4 3v7h-6l-8-7-1-7-5-4z"/>
		<path id="Path 167" class="s57" d="m455 499l2-4 17 1-6 5z"/>
		<path id="Path 168" class="s46" d="m474 496l14-1h4l3 12h-1l-17-4-3 6-10 2-14-2v-10h5l13 2z"/>
		<path id="Path 169" class="s59" d="m495 507l-3-12h13l3 8z"/>
		<path id="Path 170" class="s8" d="m629 502h4l7-7 8 5-4 11h-18v-8z"/>
		<path id="Path 171" class="s28" d="m712 497l2-2 8 2v10l-6 6-12 1-3-3 2-5 8-2z"/>
		<path id="Path 172" class="s32" d="m744 501h6l3-6h5l-2 24v8l-7 8h-4-5l-7-2h-4l-1-2v-10l9-3 1-9 5-3z"/>
		<path id="Path 173" class="s5" d="m816 517l-4-7-2-15h2 3l6 2 8 2 1 2-2 16z"/>
		<path id="Path 174" class="s50" d="m216 498l10-2v5l-7 12-5-2z"/>
		<path id="Path 175" class="s57" d="m424 501l4-5 10 1 12 2v10l-1 6-15-1-10-4z"/>
		<path id="Path 176" class="s8" d="m606 499l7-3h4l3 7v4h-5l-3 4h-10l-22 2-6-6v-6l5-2h5z"/>
		<path id="Path 177" class="s38" d="m722 497l21-1 1 5-1 5-5 3-8 1-2 11-26 2-9-4-8 2-71 4 1-9 4 2 4-7h3 18l14 1 18 1 4-4h8l13 2 3 3 12-1 6-6z"/>
		<path id="Path 178" class="s31" d="m158 502l3-5-1 3z"/>
		<path id="Path 179" class="s54" d="m188 509l1-12 3 1 2 8-1 3z"/>
		<path id="Path 180" class="s15" d="m694 499l7 2 4-4h7l-1 7-8 2-2 5-13-2v-10z"/>
		<path id="Path 181" class="s35" d="m210 510l5-6v-6h1l-2 13z"/>
		<path id="Path 182" class="s55" d="m297 502l5-4h8l9 7 41 2 14 2v2l-15 4-1 12-12-2-2 6h-10l-4 3v5h-4l-24-21v-7l-4-3z"/>
		<path id="Path 183" class="s33" d="m160 500l8-1 1 16-5 12h-7l-6 5h-1l-2-3v-1-4-5l5-1v-4l-4-1 9-11z"/>
		<path id="Path 184" class="s42" d="m410 513l-2-10 4-4h6l6 2v9l-1 3z"/>
		<path id="Path 185" class="s60" d="m680 509v-9l8-1v10z"/>
		<path id="Path 186" class="s7" d="m830 501l-1-2 7 3z"/>
		<path id="Path 187" class="s61" d="m270 507h4l8-7 5 4 1 7-9 20h-1l-5-1-9-17z"/>
		<path id="Path 188" class="s5" d="m644 511l4-11h5l4 4 1 8z"/>
		<path id="Path 189" class="s38" d="m219 513l7-12h5l-1 7-6 8-4 1z"/>
		<path id="Path 190" class="s57" d="m374 509l2-8h8l2 2 2 5v7h-4l-4-4h-6z"/>
		<path id="Path 191" class="s52" d="m391 503l5-2 9 12h5 13l1 10h-4l-2 4-14-2-2-6h-10l-4-4v-7z"/>
		<path id="Path 192" class="s5" d="m568 505l1-4h5v6h-6z"/>
		<path id="Path 193" class="s60" d="m828 517l2-16 6 1 3 2 10 5 1 2-2 18-12 9v7h-8l-2-4h-8v-6l12-8z"/>
		<path id="Path 194" class="s12" d="m148 512v-3l10-7-9 11h-1z"/>
		<path id="Path 195" class="s55" d="m252 509l1-4 15-3 2 5-6 6h-10z"/>
		<path id="Path 196" class="s10" d="m386 503h5l-3 5z"/>
		<path id="Path 197" class="s59" d="m450 509l14 2 10-2 3-6 17 4 4 22h-7l-3 4-10-2-1-5h-8l-5-7h-14l-1-4z"/>
		<path id="Path 198" class="s49" d="m495 507l13-4 25 1 11-1 7 4 1 4-1 10-19 2-6 4-7 2-6 10h-6l-3-8-6-2-4-22z"/>
		<path id="Path 199" class="s62" d="m620 507v-4h6v8h-3z"/>
		<path id="Path 200" class="s45" d="m551 507l5-2 4 2v3l-1 1h-7z"/>
		<path id="Path 201" class="s62" d="m560 507l8-2v2l-2 4h-5l-1-1z"/>
		<path id="Path 202" class="s28" d="m188 509h5l1-3 8 5 8-1 4 1 5 2 1 4v5l-5 1-2 4-9 2v11l-16-1-3-4-1-10 1-8 3-1v-5z"/>
		<path id="Path 203" class="s60" d="m566 511l2-4h6l6 6v6l-5 2v5l-5 1-2-2z"/>
		<path id="Path 204" class="s43" d="m612 511l3-4h5l3 4-4 7-4-2z"/>
		<path id="Path 205" class="s49" d="m224 516l3 9 15-1 3-2v-11l3-3 4 1 2 4v16l4 4v6l-13-4-4 6-3 2-12-4-6-17v-5z"/>
		<path id="Path 206" class="s23" d="m728 521l2-11 8-1-1 9z"/>
		<path id="Path 207" class="s4" d="m850 511l-1-2 4 2z"/>
		<path id="Path 208" class="s47" d="m423 513l1-3 10 4v11l-10-2z"/>
		<path id="Path 209" class="s46" d="m559 511l1-1 1 1-1 1z"/>
		<path id="Path 210" class="s16" d="m182 515l1-4h5v5l-3 1z"/>
		<path id="Path 211" class="s54" d="m279 531l9-20 8 7v13l-2 2h-6z"/>
		<path id="Path 212" class="s50" d="m358 527l1-12 15-4h6l4 4v7l5 5 15-2 14 2v4l7 4 10-8h8l5 6v8l-9 2-1 6-24 5-4 7h-4-16l-27-4-3-4v-7l3-3 29 6 2-8-7-9-27-1z"/>
		<path id="Path 213" class="s43" d="m551 521l1-10h7l1 1v12l-9 3z"/>
		<path id="Path 214" class="s42" d="m560 512l1-1h5l2 14-8-1z"/>
		<path id="Path 215" class="s38" d="m580 513l22-2v8l-3 1v6l-3 2v7l-4 5-18 3h-5v-2l1-14 5-1 5-2v-5z"/>
		<path id="Path 216" class="s23" d="m602 519v-8h10l3 5-1 9-10 1z"/>
		<path id="Path 217" class="s10" d="m836 545v-7l12-9 2-18h3l1 1 3 2 15 8 10 12v5 1l-3 3-1 1-4 2-4 2-2 1h-3l-3-6z"/>
		<path id="Path 218" class="s4" d="m146 512h1v1h-1z"/>
		<path id="Path 219" class="s3" d="m146 513l1-1h1v1 3h-2z"/>
		<path id="Path 220" class="s37" d="m148 516v-3h1l4 1v4l-5 1z"/>
		<path id="Path 221" class="s56" d="m258 533l-4-4v-16h10l9 17 5 1-7 9h-7v-5z"/>
		<path id="Path 222" class="s49" d="m434 514l15 1 1 4h14l5 7h8l1 5-4 2h-19-7l-5-6h-8l-1-2z"/>
		<path id="Path 223" class="s20" d="m164 527l5-12h13l3 2-1 8-8 1v9l-6 2v9h-2l-5-3h-1l-2-3 3-2z"/>
		<path id="Path 224" class="s63" d="m404 525l-15 2-5-5v-7h4l4 4h10z"/>
		<path id="Path 225" class="s64" d="m146 524v-8h2v3 5z"/>
		<path id="Path 226" class="s28" d="m756 519l16-2 9 2 3 3h7l1 5-10 2-11-6-15 4z"/>
		<path id="Path 227" class="s15" d="m792 527l19-1 5-9h12l2 10-12 8v6l-3 7h-1-2l-4-2h-2l-7-2-10-3h-4l-9-2v-6l-4-3h-7l-1 7-5-1h-8l-2-1 7-8 15-4 11 6z"/>
		<path id="Path 228" class="s30" d="m296 531v-13h6l24 21v7l8 5v6h-14v-10l-6-2-2-11z"/>
		<path id="Path 229" class="s47" d="m575 526v-5l5-2v5z"/>
		<path id="Path 230" class="s47" d="m599 526v-6l3-1 2 7z"/>
		<path id="Path 231" class="s23" d="m685 521l8-2 9 4v10h-11-3v-9z"/>
		<path id="Path 232" class="s44" d="m526 527l6-4 19-2v6l-5 5-9-1-5 6 2 22 1 7 6 5-4 4v9l-3 4h-1l2-12-13 2-1-13z"/>
		<path id="Path 233" class="s32" d="m614 525l71-4 3 3v9l-5 1h-3l-3-5-27 2-54 4v-7l3-2h5z"/>
		<path id="Path 234" class="s51" d="m702 523l26-2v10h-9-2l-11 2h-4z"/>
		<path id="Path 235" class="s45" d="m213 527l2-4 5-1 6 17h-9z"/>
		<path id="Path 236" class="s65" d="m418 527l2-4h4l10 2 1 2-10 8-7-4z"/>
		<path id="Path 237" class="s3" d="m146 527v-3h2v4h-1z"/>
		<path id="Path 238" class="s4" d="m146 527h1v1h-1z"/>
		<path id="Path 239" class="s28" d="m551 527l9-3 8 1 2 2-1 14h-4l-1 4v2h-14l-4-4v-11z"/>
		<path id="Path 240" class="s23" d="m176 535v-9l8-1 1 10h-5z"/>
		<path id="Path 241" class="s48" d="m344 531l2-6 12 2 2 4 27 1 7 9-2 8-29-6-3 3v7h-6l-4-8v-6z"/>
		<path id="Path 242" class="s18" d="m151 532l6-5h7l-1 11-3 2-7-4z"/>
		<path id="Path 243" class="s36" d="m204 540v-11l9-2 4 12-1 4z"/>
		<path id="Path 244" class="s53" d="m513 539l6-10 7-2-5 38h-11v-8l2-6 4-2v-8z"/>
		<path id="Path 245" class="s26" d="m149 532l-1-3 2 3z"/>
		<path id="Path 246" class="s47" d="m488 533l3-4h7l6 2 3 8-3 6-8 1v7h-9l-4 5-18 3-1 6h-6v-9l5-5 17-1 8-9z"/>
		<path id="Path 247" class="s24" d="m650 531l27-2 3 5-6 2-9 1h-15z"/>
		<path id="Path 248" class="s17" d="m764 537l1-7h7l4 3v6h-4l-1-1h-1l-4-1z"/>
		<path id="Path 249" class="s7" d="m771 538h1v1h-1z"/>
		<path id="Path 250" class="s66" d="m271 540l7-9h1l9 2v6l-3 8h-7l-7-5z"/>
		<path id="Path 251" class="s58" d="m294 533l2-2 16 3 2 11-2 2-18-8z"/>
		<path id="Path 252" class="s50" d="m330 539v-5l4-3h10l6 8v6h-10z"/>
		<path id="Path 253" class="s65" d="m474 533l4-2 10 2v10l-8 9-17 1v-5l11-5z"/>
		<path id="Path 254" class="s17" d="m534 559l-2-22 5-6 9 1v11l-4 1v11l-3 4z"/>
		<path id="Path 255" class="s20" d="m596 535l54-4v6l-2 1-7 2-4 3-22-2-4 4-17-2-2-3z"/>
		<path id="Path 256" class="s0" d="m729 533l-10-2h9z"/>
		<path id="Path 257" class="s7" d="m153 536l-4-4h1 1z"/>
		<path id="Path 258" class="s55" d="m258 539v-6l6 2v5l-1 1z"/>
		<path id="Path 259" class="s67" d="m288 539v-6h6v6z"/>
		<path id="Path 260" class="s55" d="m438 549l1-6 9-2v-8h7l1 14z"/>
		<path id="Path 261" class="s50" d="m456 547l-1-14h19v10l-11 5z"/>
		<path id="Path 262" class="s9" d="m683 534l5-1h3l-8 2z"/>
		<path id="Path 263" class="s68" d="m674 536l6-2h3v1z"/>
		<path id="Path 264" class="s3" d="m882 539v-5h2v5h-1z"/>
		<path id="Path 265" class="s69" d="m170 546v-9l6-2h4v5l5 4 30 5 7 6v6h-1l-8-1-5-1-4-1h-2l-4-2h-4l-3-1-7-2-7-2-2-1z"/>
		<path id="Path 266" class="s51" d="m222 555l-7-6-30-5-5-4v-5h5l3 4 16 1 12 3 1-4h9l12 4v5l-4 7z"/>
		<path id="Path 267" class="s44" d="m241 541l4-6 13 4 5 2 1 4v4l-7 1-15-3z"/>
		<path id="Path 268" class="s31" d="m751 536l-6-1h4z"/>
		<path id="Path 269" class="s7" d="m162 543l-9-7 7 4z"/>
		<path id="Path 270" class="s7" d="m766 538l-7-2 5 1h2z"/>
		<path id="Path 271" class="s27" d="m648 538l2-1h15z"/>
		<path id="Path 272" class="s26" d="m766 538v-1l4 1z"/>
		<path id="Path 273" class="s70" d="m278 547h7l3-8h6l18 8v8l8 4v12l-10-2-2-9-9-8-7-1h-14z"/>
		<path id="Path 274" class="s63" d="m334 551l-8-5v-7h4l10 6v6z"/>
		<path id="Path 275" class="s66" d="m504 545l3-6h6l3 2v8l-4 2-2 6h-10v-4l4-3z"/>
		<path id="Path 276" class="s7" d="m785 541l-13-2h4z"/>
		<path id="Path 277" class="s9" d="m882 539h1v1h-1z"/>
		<path id="Path 278" class="s57" d="m263 541l1-1h7v2l-3 3h-4z"/>
		<path id="Path 279" class="s14" d="m574 543l18-3 2 3v10l-6 7v7l-2 2-6-1-14-5 1-9 7-5z"/>
		<path id="Path 280" class="s4" d="m637 543l4-3-4 5z"/>
		<path id="Path 281" class="s9" d="m879 543l3-3v3z"/>
		<path id="Path 282" class="s17" d="m238 543l3-2 1 6-4 1z"/>
		<path id="Path 283" class="s24" d="m564 545l1-4h4v2z"/>
		<path id="Path 284" class="s16" d="m594 543l17 2 4-4 22 2v2 1l-2 4v3 2l-21 1-2-3h-18z"/>
		<path id="Path 285" class="s3" d="m795 544l-6-3 10 3z"/>
		<path id="Path 286" class="s44" d="m815 548l3-7h8l2 4v6h-4z"/>
		<path id="Path 287" class="s71" d="m268 545l3-3 7 5v4l-4 1-6-3z"/>
		<path id="Path 288" class="s38" d="m542 555v-11l4-1 4 4v8z"/>
		<path id="Path 289" class="s18" d="m564 545l5-2h5v6l-7 5-1 9-1 2-3 5-6 1v-4l-6-2-11-6 3-4h8l7 2 5-2 2-8z"/>
		<path id="Path 290" class="s62" d="m836 545l26-2 3 6v1l-4 1-6 2h-4-12l-11-2v-6z"/>
		<path id="Path 291" class="s31" d="m806 546l-11-2h4z"/>
		<path id="Path 292" class="s51" d="m264 549v-4h4v4z"/>
		<path id="Path 293" class="s67" d="m312 547l2-2 6 2v10 2l-8-4z"/>
		<path id="Path 294" class="s65" d="m340 551v-6h10l4 8z"/>
		<path id="Path 295" class="s54" d="m496 553v-7l8-1v5l-4 3z"/>
		<path id="Path 296" class="s1" d="m175 550l-7-4h2z"/>
		<path id="Path 297" class="s20" d="m238 548l4-1 15 3v7h-8l-3 9h-2l-5-2-5-1v-8z"/>
		<path id="Path 298" class="s49" d="m438 549l18-2 7 1v5l-5 5v9h-2l-19-2-1-4h-7l-3 8-8 1-10 1-2-2v-8h4l4-7z"/>
		<path id="Path 299" class="s20" d="m550 555v-8h14l-2 8-5 2z"/>
		<path id="Path 300" class="s4" d="m824 551l-10-3h1z"/>
		<path id="Path 301" class="s69" d="m257 550l7-1h4l6 3v4l10 10h8l7 5 1 6h-10l-6-1-7-2-12-4v-1l1-7-9-5z"/>
		<path id="Path 302" class="s7" d="m865 550v-1h3z"/>
		<path id="Path 303" class="s72" d="m274 552l4-1h14v6l12 12h6l10 2 4 4v6l-9-1-15-1v-2l-1-6-7-5h-8l-10-10z"/>
		<path id="Path 304" class="s71" d="m310 569h-6l-12-12v-6l7 1 9 8z"/>
		<path id="Path 305" class="s54" d="m334 557v-6h6l14 2h6l3 4 27 4v6h-17l-37-10z"/>
		<path id="Path 306" class="s52" d="m464 567l1-6 18-3 4-5h9 4v4l-6 6-14 5-2 10-12-1z"/>
		<path id="Path 307" class="s13" d="m588 567v-7l6-7h18l2 3-2 6-9 1h-8z"/>
		<path id="Path 308" class="s7" d="m635 555v-2l2 6z"/>
		<path id="Path 309" class="s3" d="m851 553l-1 2-11-2z"/>
		<path id="Path 310" class="s18" d="m222 561v-6h12v8h-1-6z"/>
		<path id="Path 311" class="s73" d="m614 556l21-1 2 4v1l2 7v2l-2 12-27 2-6-2-3-2 2-16 9-1z"/>
		<path id="Path 312" class="s74" d="m246 566l3-9h8l9 5-1 7-7-1h-1l-6-2z"/>
		<path id="Path 313" class="s19" d="m320 559v-2h14 2l1 7 11 3 5 6h7l8 9-6 2-28-3 1 4h-1l-3-2h-1l-2-2h-4v-6l-4-4z"/>
		<path id="Path 314" class="s66" d="m368 582l-8-9h-7l-5-6-11-3-1-7 37 10h17l3 2-1 12z"/>
		<path id="Path 315" class="s57" d="m478 578l2-10 14-5 6-6h10v8l-12 8v7l-16-1z"/>
		<path id="Path 316" class="s7" d="m208 560l-4-2 4 1z"/>
		<path id="Path 317" class="s29" d="m208 560v-1l5 1z"/>
		<path id="Path 318" class="s33" d="m541 571l-6-5-1-7h5l11 6v6z"/>
		<path id="Path 319" class="s12" d="m227 563l-6-2h1z"/>
		<path id="Path 320" class="s65" d="m390 567v-6h16v8h-13z"/>
		<path id="Path 321" class="s47" d="m426 569l3-8h7l1 4z"/>
		<path id="Path 322" class="s75" d="m566 563l14 5 2 3-17-6z"/>
		<path id="Path 323" class="s76" d="m239 565l-6-2h1l5 1z"/>
		<path id="Path 324" class="s11" d="m588 567l7-4h8l-2 16-5-2-10-8z"/>
		<path id="Path 325" class="s29" d="m239 565v-1l5 2z"/>
		<path id="Path 326" class="s35" d="m426 569l11-4 19 2v10l-4 1v5h-15-5l-2-6h-12v-7z"/>
		<path id="Path 327" class="s42" d="m498 580v-7l12-8h11l1 13z"/>
		<path id="Path 328" class="s14" d="m550 571v-6l6 2v4z"/>
		<path id="Path 329" class="s40" d="m456 577v-10h2 6l2 10h-6z"/>
		<path id="Path 330" class="s26" d="m265 570l-7-2 7 1z"/>
		<path id="Path 331" class="s58" d="m582 571l-2-3 6 1 10 8-3-1z"/>
		<path id="Path 332" class="s19" d="m392 581l1-12h13l2 2v6 2l-13 2z"/>
		<path id="Path 333" class="s0" d="m637 581l2-12h1v8z"/>
		<path id="Path 334" class="s36" d="m408 571l10-1v7h-10z"/>
		<path id="Path 335" class="s77" d="m522 578l13-2-2 12-2 3-3 2h-2-2-6-7-2-10l-6-1-5-1-7-2 1-10 16 1z"/>
		<path id="Path 336" class="s7" d="m604 581l-11-5 3 1 5 2z"/>
		<path id="Path 337" class="s29" d="m300 579l-10-2h10z"/>
		<path id="Path 338" class="s51" d="m408 579v-2h10 12l2 6-4 1h-20z"/>
		<path id="Path 339" class="s20" d="m452 583v-5l4-1h4v6h-4z"/>
		<path id="Path 340" class="s37" d="m460 583v-6h6l12 1 4 1-1 10h-1l-10-2-2-1-7-2z"/>
		<path id="Path 341" class="s28" d="m395 581l13-2v5h-10v5l-6 4 4-4z"/>
		<path id="Path 342" class="s33" d="m335 585l-1-4 28 3v9h-5-1-2-2l-4-1-2-1h-3z"/>
		<path id="Path 343" class="s37" d="m368 582l24-1h3l1 8-4 4h-1-1l-4 1h-5-17-2v-1-9z"/>
		<path id="Path 344" class="s75" d="m610 583l27-2-2 4z"/>
		<path id="Path 345" class="s76" d="m331 583l3 2v1z"/>
		<path id="Path 346" class="s78" d="m428 584l4-1h5l-7 2z"/>
		<path id="Path 347" class="s21" d="m460 585l-4-2h4l1 1z"/>
		<path id="Path 348" class="s79" d="m398 589v-5h10 20l2 1h-31z"/>
		<path id="Path 349" class="s79" d="m460 585l1-1 7 2z"/>
		<path id="Path 350" class="s22" d="m334 586v-1h1l8 6-6-1z"/>
		<path id="Path 351" class="s80" d="m531 591l2-3h1v3z"/>
		<path id="Path 352" class="s76" d="m348 593l-2-2 2 1z"/>
		<path id="Path 353" class="s22" d="m348 592l4 1h-4z"/>
		<path id="Path 354" class="s12" d="m493 593l-5-2 5 1z"/>
		<path id="Path 355" class="s75" d="m493 592l6 1h-6z"/>
		<path id="Path 356" class="s81" d="m511 593h7v1h-1-1z"/>
		<path id="Path 357" class="s12" d="m518 593h6l-1 2h-5v-1z"/>
		<path id="Path 358" class="s82" d="m355 595l-1-2h2v1 1z"/>
		<path id="Path 359" class="s83" d="m356 593h1v1h-1z"/>
		<path id="Path 360" class="s22" d="m357 594v-1h5v1l-2 1h-3z"/>
		<path id="Path 361" class="s75" d="m386 594l4-1v1 1h-4z"/>
		<path id="Path 362" class="s84" d="m390 593h1v1h-1z"/>
		<path id="Path 363" class="s85" d="m510 595l-1-2h2l5 1v1z"/>
		<path id="Path 364" class="s82" d="m523 595l1-2h2l-1 2z"/>
		<path id="Path 365" class="s84" d="m356 594h1v1h-1z"/>
		<path id="Path 366" class="s27" d="m360 595l2-1h2v1z"/>
		<path id="Path 367" class="s86" d="m364 595v-1h17v1z"/>
		<path id="Path 368" class="s27" d="m381 595v-1h5v1z"/>
		<path id="Path 369" class="s84" d="m516 594h1v1h-1z"/>
		<path id="Path 370" class="s87" d="m517 594h1v1h-1z"/>
	</g>
</svg>