<svg version="1.2" xmlns="http://www.w3.org/2000/svg" viewBox="0 0 1000 1000" width="1000" height="1000">
	<title>Platygobio_gracilis</title>
	<style>
		.s0 { opacity: .2;fill: #ffffff } 
		.s1 { opacity: .3;fill: #ffffff } 
		.s2 { opacity: .1;fill: #ffffff } 
		.s3 { fill: #ecebe1 } 
		.s4 { fill: #efefe5 } 
		.s5 { fill: #ece9d8 } 
		.s6 { fill: #f2efe0 } 
		.s7 { fill: #e4dcbe } 
		.s8 { fill: #dacaa3 } 
		.s9 { fill: #e8e0c4 } 
		.s10 { fill: #ebe4ca } 
		.s11 { fill: #cfc3a4 } 
		.s12 { fill: #f9f6e5 } 
		.s13 { fill: #f3f2e9 } 
		.s14 { fill: #dfd6b9 } 
		.s15 { fill: #dbd7c1 } 
		.s16 { fill: #c9c9bb } 
		.s17 { fill: #d2cebb } 
		.s18 { fill: #eadab3 } 
		.s19 { fill: #dedcd0 } 
		.s20 { fill: #b7b5a3 } 
		.s21 { fill: #675a47 } 
		.s22 { fill: #c4bb9f } 
		.s23 { fill: #d5d3c7 } 
		.s24 { fill: #bfbfac } 
		.s25 { fill: #afb0a2 } 
		.s26 { fill: #bfb293 } 
		.s27 { fill: #b0a48b } 
		.s28 { fill: #c8b794 } 
		.s29 { fill: #a8aa9c } 
		.s30 { fill: #f1ecd8 } 
		.s31 { fill: #d3cbaf } 
		.s32 { fill: #a4a495 } 
		.s33 { fill: #dbd0b2 } 
		.s34 { fill: #aaa391 } 
		.s35 { fill: #9f9d8e } 
		.s36 { fill: #b4a07f } 
		.s37 { fill: #b7aa90 } 
		.s38 { fill: #e4d1a3 } 
		.s39 { fill: #b39e76 } 
		.s40 { fill: #c0c1b3 } 
		.s41 { fill: #9e8659 } 
		.s42 { fill: #c4ac7b } 
		.s43 { fill: #b2b6aa } 
		.s44 { fill: #b89a65 } 
		.s45 { fill: #928978 } 
		.s46 { fill: #c0ac85 } 
		.s47 { fill: #cab486 } 
		.s48 { fill: #e5e1ce } 
		.s49 { fill: #d8c496 } 
		.s50 { fill: #9b9586 } 
		.s51 { fill: #bea574 } 
		.s52 { fill: #8d8473 } 
		.s53 { fill: #a78f67 } 
		.s54 { fill: #b5af9c } 
		.s55 { fill: #beb8a5 } 
		.s56 { fill: #c8c5b1 } 
		.s57 { fill: #c5a467 } 
		.s58 { fill: #968e7d } 
		.s59 { fill: #9d9480 } 
		.s60 { fill: #bead8c } 
		.s61 { fill: #877d6d } 
		.s62 { fill: #a59479 } 
		.s63 { fill: #73634b } 
		.s64 { fill: #d7bc85 } 
		.s65 { fill: #a49c8a } 
		.s66 { fill: #7f7565 } 
		.s67 { fill: #aa9d84 } 
		.s68 { fill: #afa997 } 
		.s69 { fill: #86765e } 
		.s70 { fill: #94846c } 
		.s71 { fill: #f2e4c0 } 
		.s72 { fill: #d0b277 } 
		.s73 { fill: #dfc48d } 
		.s74 { fill: #9d8c6f } 
		.s75 { fill: #fbfbf7 } 
		.s76 { fill: #fefefe } 
		.s77 { fill: #8d7855 } 
		.s78 { fill: #ad9773 } 
		.s79 { fill: #f6f6f0 } 
		.s80 { fill: #b7a586 } 
		.s81 { fill: #7e6d51 } 
		.s82 { fill: #cfbe98 } 
		.s83 { fill: #f4ebd0 } 
		.s84 { fill: #ae9260 } 
		.s85 { fill: #2e2c29 } 
		.s86 { fill: #968261 } 
		.s87 { fill: #504536 } 
		.s88 { fill: #766a5a } 
		.s89 { fill: #e7e5d8 } 
		.s90 { opacity: .5;fill: #ffffff } 
	</style>
	<g id="Background">
		<path id="Path 0" class="s0" d="m263.8-65.6h-1.5v1.5h1.5z"/>
		<path id="Path 2" class="s0" d="m737.7 1064.1h-1.5v1.5h1.5z"/>
		<path id="Path 3" class="s1" d="m740.6 1064.1h-1.5v1.5h1.5z"/>
		<path id="Path 4" class="s2" d="m742 1062.7h-1.4v1.4h1.4z"/>
		<path id="Path 11" class="s3" d="m536.2 655.7v27.5h-11.6v-27.5z"/>
		<path id="Path 12" class="s4" d="m547.8 670.2l-2.9-14.5h-8.7v27.5l11.6-1.4z"/>
		<path id="Path 13" class="s5" d="m524.6 655.7h-5.8l-2.9-5.8-13 2.9-7.2 10.1 8.6 13.1 20.3 7.2z"/>
		<path id="Path 15" class="s6" d="m544.9 655.7l2.9-18.8-11.6-4.4-17.4 5.8-2.9 11.6 2.9 5.8h5.8 11.6z"/>
		<path id="Path 17" class="s7" d="m487 649.9l8.7-11.6v-8.7h-13.1l-7.2 2.9v7.3z"/>
		<path id="Path 18" class="s5" d="m713 670.2l-2.9-7.3 2.9-33.3h-14.4v5.8l-11.6 7.3-2.9 20.2 7.2 24.7 7.3 8.6 10.1-1.4z"/>
		<path id="Path 19" class="s8" d="m482.6 629.6l-1.4-1.4h-7.3l1.5 4.3z"/>
		<path id="Path 20" class="s9" d="m518.8 638.3l-5.8-5.8v-8.7h-11.6l-5.7 5.8v8.7l-8.7 11.6v5.8l8.7 7.2 7.2-10.1 13-2.9z"/>
		<path id="Path 21" class="s10" d="m687 642.7l-8.7-8.7v-10.2h-7.3l-5.8 8.7 13.1 30.4h5.8z"/>
		<path id="Path 22" class="s11" d="m481.2 628.2v-7.3h-8.7l1.4 7.3z"/>
		<path id="Path 25" class="s12" d="m539.1 623.8l-5.8-5.8h-14.5l-5.8 4.4v1.4 8.7l5.8 5.8 17.4-5.8z"/>
		<path id="Path 26" class="s13" d="m547.8 670.2h7.3l7.2-10.2 8.7-23.1v-18.9l-31.9 5.8-2.9 8.7 11.6 4.4-2.9 18.8z"/>
		<path id="Path 27" class="s6" d="m698.6 629.6v-11.6l-17.4 1.5-2.9 4.3v10.2l8.7 8.7 11.6-7.3z"/>
		<path id="Path 29" class="s14" d="m513 615.1l-20.2-4.3h-5.8l-5.8 10.1v7.3l1.4 1.4h13.1l5.7-5.8h11.6v-1.4z"/>
		<path id="Path 30" class="s15" d="m513 615.1v-8.7h-8.7l-11.5 4.4z"/>
		<path id="Path 31" class="s4" d="m713 670.2l7.3-2.9 24.6-44.9-1.4-16h-11.6l-18.9 23.2-2.9 33.3z"/>
		<path id="Path 32" class="s16" d="m447.8 610.8l-1.4-7.2h-17.4v5.7z"/>
		<path id="Path 33" class="s17" d="m533.3 618v-14.4l-20.3 2.8v8.7 7.3l5.8-4.4z"/>
		<path id="Path 34" class="s13" d="m731.9 606.4l-1.5-2.8h-11.6l-14.5 4.3-5.7 10.1v11.6h14.4z"/>
		<path id="Path 35" class="s18" d="m671 623.8l-4.3-21.7h-11.6l-4.4 1.5 4.4 17.3 10.1 11.6z"/>
		<path id="Path 37" class="s19" d="m585.5 607.9l-8.7-1.5-2.9-5.7h-8.7l-31.9 2.9v14.4l5.8 5.8 31.9-5.8 17.4-5.8z"/>
		<path id="Path 38" class="s20" d="m627.5 603.6l-7.2-2.9h-8.7v10.1l13-1.5z"/>
		<path id="Path 40" class="s21" d="m926.1 602.1l-10.2-1.4h-7.2l1.4 2.9h5.8z"/>
		<path id="Path 41" class="s15" d="m381.2 603.6l-4.4-5.8h-8.7l-2.9 4.3z"/>
		<path id="Path 42" class="s22" d="m504.3 606.4v-8.6h-17.3l-8.7 1.4-7.3 13v5.8l1.5 2.9h8.7l5.8-10.1h5.8z"/>
		<path id="Path 43" class="s23" d="m350.7 600.7v-5.8l-11.6 1.4 2.9 4.4z"/>
		<path id="Path 44" class="s24" d="m429 603.6l-2.9-8.7h-17.4-17.4l-2.9 8.7 40.6 5.7z"/>
		<path id="Path 45" class="s25" d="m611.6 600.7v-5.8h-17.4l-8.7 13 2.9 4.3 23.2-1.4z"/>
		<path id="Path 46" class="s26" d="m655.1 602.1v-7.2h-5.8l-4.4 5.8 5.8 2.9z"/>
		<path id="Path 47" class="s12" d="m718.8 603.6l-1.4-8.7h-4.4l-15.9 1.4-10.1 1.5-14.5 2.9-5.8 1.4 4.3 21.7h7.3l2.9-4.3 17.4-1.5 5.7-10.1z"/>
		<path id="Path 48" class="s27" d="m672.5 594.9l-2.9-2.9h-11.6l-2.9 2.9v7.2h11.6l5.8-1.4z"/>
		<path id="Path 49" class="s28" d="m687 597.8v-5.8h-5.8l-8.7 2.9v5.8z"/>
		<path id="Path 50" class="s11" d="m697.1 596.3l-4.3-4.3h-5.8v5.8z"/>
		<path id="Path 51" class="s29" d="m620.3 600.7v-10.2h-7.3l-1.4 4.4v5.8z"/>
		<path id="Path 52" class="s24" d="m368.1 597.8l-1.4-8.7h-8.7l-7.3 5.8v5.8l14.5 1.4z"/>
		<path id="Path 53" class="s10" d="m730.4 603.6v-14.5h-8.7l-4.3 5.8 1.4 8.7z"/>
		<path id="Path 54" class="s28" d="m946.4 603.6l-1.5-14.5h-8.7l-10.1 13-10.2 1.5v1.4h27.6z"/>
		<path id="Path 55" class="s30" d="m743.5 599.2l-1.5-11.6-11.6 1.5v14.5l1.5 2.8h11.6z"/>
		<path id="Path 56" class="s31" d="m962.3 600.7l-2.9-13.1-14.5 1.5 1.5 14.5 15.9-1.5z"/>
		<path id="Path 57" class="s25" d="m446.4 603.6v-17.4h-14.5-23.2v8.7h17.4l2.9 8.7z"/>
		<path id="Path 58" class="s29" d="m594.2 594.9l-5.8-8.7h-20.3l-2.9 14.5h8.7l2.9 5.7 8.7 1.5z"/>
		<path id="Path 59" class="s32" d="m634.8 600.7v-14.5l-14.5 2.9v1.4 10.2l7.2 2.9z"/>
		<path id="Path 60" class="s32" d="m658 592v-5.8h-8.7v8.7h5.8z"/>
		<path id="Path 62" class="s33" d="m976.8 596.3l-5.8-10.1h-11.6v1.4l2.9 13.1z"/>
		<path id="Path 64" class="s34" d="m681.2 592v-8.7h-11.6v8.7l2.9 2.9z"/>
		<path id="Path 65" class="s29" d="m649.3 586.2l-5.8-4.4h-7.3l-1.4 4.4v14.5h10.1l4.4-5.8z"/>
		<path id="Path 66" class="s35" d="m692.8 592v-10.2l-11.6 1.5v8.7h5.8z"/>
		<path id="Path 68" class="s20" d="m487 597.8v-17.4l-37.7 2.9-2.9 2.9v17.4l1.4 7.2 8.7 1.4h14.5l7.3-13z"/>
		<path id="Path 69" class="s29" d="m669.6 583.3l-8.7-2.9-2.9 5.8v5.8h11.6z"/>
		<path id="Path 70" class="s24" d="m504.3 597.8l5.8-20.3h-11.5-11.6v2.9 17.4z"/>
		<path id="Path 71" class="s32" d="m713 594.9v-17.4h-17.3l-2.9 4.3v10.2l4.3 4.3z"/>
		<path id="Path 72" class="s36" d="m913 578.9l-11.6-1.4-1.4 23.2 10.1 2.9-1.4-2.9h7.2l1.5-20.3z"/>
		<path id="Path 73" class="s17" d="m305.8 589.1v-14.5h-11.6l-1.4 11.6 1.4 2.9z"/>
		<path id="Path 74" class="s29" d="m449.3 583.3l-1.5-7.3-7.2-1.4-8.7 4.3v7.3h14.5z"/>
		<path id="Path 75" class="s37" d="m823.2 583.3v-8.7h-8.7l-2.9 7.2z"/>
		<path id="Path 76" class="s38" d="m866.7 584.7l-14.5-10.1h-4.4l-11.6 8.7 36.3 8.7z"/>
		<path id="Path 77" class="s39" d="m901.4 577.5l-2.8-8.7h-11.6l-14.5 2.9v8.7l-5.8 4.3 5.8 7.3 23.2 8.7h4.3z"/>
		<path id="Path 78" class="s40" d="m498.6 577.5l-1.5-10.2h-7.2l-2.9 10.2z"/>
		<path id="Path 79" class="s16" d="m588.4 586.2l2.9-20.3h-11.6l-11.6 10.1v10.2z"/>
		<path id="Path 80" class="s20" d="m660.9 580.4v-14.5h-11.6l-5.8 15.9 5.8 4.4h8.7z"/>
		<path id="Path 81" class="s27" d="m847.8 574.6l-7.2-8.7-13.1 1.4-4.3 7.3v8.7h13z"/>
		<path id="Path 82" class="s41" d="m872.5 571.7l-1.5-5.8h-10.1l-8.7 2.9v5.8l14.5 10.1 5.8-4.3z"/>
		<path id="Path 83" class="s16" d="m330.4 594.9v-31.9h-17.4v5.8l-7.2 5.8v14.5l11.6 5.8z"/>
		<path id="Path 84" class="s15" d="m959.4 586.2v-11.6l-5.8-5.8-7.2-5.8h-14.5l4.3 26.1h8.7l14.5-1.5z"/>
		<path id="Path 85" class="s42" d="m898.6 560.1v8.7h-11.6v-8.7z"/>
		<path id="Path 86" class="s28" d="m913 578.9v-18.8h-8.7-5.7v8.7l2.8 8.7z"/>
		<path id="Path 87" class="s43" d="m313 563l-7.2-5.8h-11.6l-4.3 13 4.3 4.4h11.6l7.2-5.8z"/>
		<path id="Path 88" class="s25" d="m408.7 565.9l-5.8-8.7h-5.8l-4.3 4.4 1.4 13h13z"/>
		<path id="Path 89" class="s44" d="m871 565.9l-1.4-8.7h-8.7v8.7z"/>
		<path id="Path 90" class="s11" d="m931.9 563l-5.8-5.8h-13.1v2.9 18.8l4.4 1.5-1.5 20.3 10.2 1.4 10.1-13z"/>
		<path id="Path 91" class="s16" d="m294.2 557.2l-4.3-1.4-18.9 1.4h-15.9l-4.4 11.6 30.5 15.9 11.6 1.5 1.4-11.6-4.3-4.4z"/>
		<path id="Path 92" class="s43" d="m392.8 561.6l-17.4-8.7h-14.5-13.1l-17.4 1.4v8.7 31.9l8.7 1.4 11.6-1.4 7.3-5.8h8.7l1.4 8.7h8.7l4.4 5.8h7.2l2.9-8.7h17.4v-8.7l-1.5-11.6h-13z"/>
		<path id="Path 93" class="s25" d="m721.7 557.2l-17.4-8.7h-5.7l-4.4 5.8h-15.9l-4.4 8.7-13 2.9v14.5l8.7 2.9h11.6l11.6-1.5 2.9-4.3h17.3l8.7-10.2z"/>
		<path id="Path 94" class="s29" d="m750.7 565.9v-17.4h-14.5l-14.5 8.7v10.1l-8.7 10.2v17.4h4.4l4.3-5.8h8.7l11.6-1.5 4.4-1.4-1.5-13.1z"/>
		<path id="Path 95" class="s11" d="m330.4 554.3l-10.1-7.2h-7.3l-7.2 10.1 7.2 5.8h17.4z"/>
		<path id="Path 96" class="s35" d="m811.6 554.3l-21.7-7.2-27.6 1.4v14.5l-11.6 2.9-5.8 7.2 1.5 13.1h13 10.2l42-4.4 2.9-7.2v-20.3z"/>
		<path id="Path 97" class="s29" d="m402.9 545.6v11.6h-5.8v-11.6z"/>
		<path id="Path 98" class="s25" d="m579.7 565.9l-2.9-20.3h-11.6l-8.7 1.5-21.7 17.3-16 2.9-8.7 10.2-5.8 20.3v8.6h8.7l20.3-2.8 31.9-2.9 2.9-14.5v-10.2z"/>
		<path id="Path 99" class="s45" d="m860.9 557.2l-2.9-11.6h-11.6l-5.8 20.3 7.2 8.7h4.4v-5.8l8.7-2.9z"/>
		<path id="Path 100" class="s33" d="m913 557.2l-1.4-11.6h-7.3v14.5h8.7z"/>
		<path id="Path 101" class="s1" d="m-111.6 542.7h-1.4v1.5h1.4z"/>
		<path id="Path 103" class="s46" d="m289.9 555.8l2.9-13.1h-2.9-8.7l-4.4 8.7h-5.8v5.8z"/>
		<path id="Path 104" class="s47" d="m313 547.1l-1.4-4.4h-18.8l-2.9 13.1 4.3 1.4h11.6z"/>
		<path id="Path 105" class="s29" d="m375.4 552.9v-10.2h-4.4l-10.1 5.8v4.4z"/>
		<path id="Path 106" class="s32" d="m489.9 567.3l-2.9-24.6h-8.7l-11.6 11.6-20.3-4.3h-17.4l-1.5 8.7-18.8 7.2-1.5 8.7 1.5 11.6h23.2v-7.3l8.7-4.3 7.2 1.4 1.5 7.3 37.7-2.9v-2.9z"/>
		<path id="Path 107" class="s24" d="m678.3 554.3v-11.6h-8.7-8.7l-5.8 8.7h-17.4l-11.6 11.6-5.8 26.1 14.5-2.9 1.4-4.4h7.3l5.8-15.9h11.6l13-2.9z"/>
		<path id="Path 108" class="s32" d="m762.3 548.5l-5.8-5.8-5.8 5.8v17.4l11.6-2.9z"/>
		<path id="Path 109" class="s48" d="m973.9 563l-11.6-2.9-17.4-14.5-33.3-4.3v4.3l1.4 11.6h13.1l5.8 5.8h14.5l7.2 5.8 5.8 5.8v11.6h11.6l5.8 10.1 8.7-4.3v-16z"/>
		<path id="Path 110" class="s17" d="m211.6 547.1l2.9-7.3h-5.8v5.8z"/>
		<path id="Path 111" class="s20" d="m271 551.4l-10.1-11.6h-5.8v17.4h15.9z"/>
		<path id="Path 112" class="s49" d="m347.8 552.9v-11.6l-4.3-1.5-20.3 1.5-2.9 5.8 10.1 7.2z"/>
		<path id="Path 113" class="s32" d="m397.1 545.6v-5.8h-14.5l-7.2 2.9v10.2l17.4 8.7 4.3-4.4z"/>
		<path id="Path 114" class="s50" d="m402.9 539.8v5.8h-5.8v-5.8z"/>
		<path id="Path 115" class="s51" d="m887 560.1l-1.5-8.7-13-11.6h-5.8-8.7v5.8l2.9 11.6h8.7l1.4 8.7 1.5 5.8 14.5-2.9z"/>
		<path id="Path 116" class="s15" d="m208.7 539.8l-11.6-2.9-2.9 2.9 4.4 5.8h10.1z"/>
		<path id="Path 117" class="s20" d="m698.6 548.5l-8.7-11.6h-7.3l-4.3 5.8v11.6h15.9z"/>
		<path id="Path 119" class="s16" d="m226.1 554.3l5.8-5.8v-13h-2.9l-14.5 1.4v2.9l-2.9 7.3 5.8 7.2z"/>
		<path id="Path 120" class="s52" d="m808.7 536.9l-10.1-1.4-8.7 11.6 21.7 7.2z"/>
		<path id="Path 121" class="s24" d="m255.1 539.8h-8.7l-5.8-5.8-8.7 1.5v13l-5.8 5.8 8.7 8.7 15.9 5.8 4.4-11.6z"/>
		<path id="Path 122" class="s44" d="m289.9 534v8.7h-8.7v-8.7z"/>
		<path id="Path 123" class="s35" d="m429 550l-14.5-16h-2.9-5.8l-2.9 5.8v5.8 11.6l5.8 8.7 18.8-7.2z"/>
		<path id="Path 124" class="s50" d="m478.3 542.7l-8.7-8.7h-8.7l-14.5 8.7v7.3l20.3 4.3z"/>
		<path id="Path 125" class="s7" d="m911.6 541.3v-5.8l-7.3-2.9-2.9 4.3 2.9 8.7h7.3z"/>
		<path id="Path 126" class="s53" d="m281.2 534l-17.4-2.9-2.9 8.7 10.1 11.6h5.8l4.4-8.7z"/>
		<path id="Path 127" class="s31" d="m382.6 534l-5.8-2.9-5.8 2.9v8.7h4.4l7.2-2.9z"/>
		<path id="Path 128" class="s54" d="m556.5 547.1l-2.9-16-31.9 2.9-2.9 17.4-11.6 4.4-10.1 11.5 1.5 10.2h11.5l8.7-10.2 16-2.9z"/>
		<path id="Path 129" class="s54" d="m576.8 545.6l1.5-14.5-13.1 2.9v11.6z"/>
		<path id="Path 130" class="s55" d="m669.6 542.7l-2.9-11.6h-14.5-10.2l-4.3 4.4v15.9h17.4l5.8-8.7z"/>
		<path id="Path 131" class="s56" d="m637.7 535.5l-5.8-4.4-23.2-1.4-8.7 2.9v18.8l-7.2 5.8-1.5 8.7-2.9 20.3 5.8 8.7h17.4l1.4-4.4h7.3v-1.4l5.8-26.1 11.6-11.6z"/>
		<path id="Path 132" class="s54" d="m704.3 548.5v-10.1l-8.6-8.7-5.8 1.4v5.8l8.7 11.6z"/>
		<path id="Path 133" class="s8" d="m901.4 536.9h-14.4l-4.4-7.2-10.1 10.1 13 11.6 1.5 8.7h11.6 5.7v-14.5z"/>
		<path id="Path 134" class="s17" d="m240.6 534v-5.8h-11.6v7.3h2.9z"/>
		<path id="Path 135" class="s24" d="m600 532.6l-5.8-5.8h-14.5l-1.4 4.3-1.5 14.5 2.9 20.3h11.6l1.5-8.7 7.2-5.8z"/>
		<path id="Path 136" class="s57" d="m347.8 526.8l-49.2-1.5-8.7 8.7v8.7h2.9 18.8l1.4 4.4h7.3l2.9-5.8 20.3-1.5z"/>
		<path id="Path 137" class="s58" d="m794.2 529.7l-37.7-4.4v17.4l5.8 5.8 27.6-1.4 8.7-11.6z"/>
		<path id="Path 138" class="s59" d="m846.4 545.6l-1.5-20.3h-7.2-5.8l-1.5 24.7-15.9 4.3v20.3h8.7l4.3-7.3 13.1-1.4z"/>
		<path id="Path 139" class="s55" d="m608.7 529.7v-7.3h-11.6l-2.9 4.4 5.8 5.8z"/>
		<path id="Path 140" class="s60" d="m260.9 523.9l-16-2.9-4.3 7.2v5.8l5.8 5.8h8.7 5.8l2.9-8.7v-5.8z"/>
		<path id="Path 141" class="s61" d="m831.9 525.3v-5.7h-5.8l-17.4 13v4.3l2.9 17.4h2.9l15.9-4.3z"/>
		<path id="Path 142" class="s52" d="m837.7 519.6v5.7h-5.8v-5.7z"/>
		<path id="Path 143" class="s62" d="m858 539.8v-20.2h-11.6l-1.5 5.7 1.5 20.3h11.6z"/>
		<path id="Path 144" class="s11" d="m156.5 526.8v-10.1h-5.8l-15.9 1.4z"/>
		<path id="Path 145" class="s26" d="m420.3 519.6l-5.8-2.9h-2.9v17.3h2.9l5.8-5.8z"/>
		<path id="Path 146" class="s37" d="m411.6 516.7l-14.5-2.9-5.8 17.3-8.7 2.9v5.8h14.5 5.8l2.9-5.8h5.8z"/>
		<path id="Path 147" class="s33" d="m229 516.7l-1.5-4.4-11.6 1.5-1.4 23.1 14.5-1.4v-7.3z"/>
		<path id="Path 148" class="s31" d="m247.8 513.8v-1.5l-18.8 4.4v11.5h11.6l4.3-7.2z"/>
		<path id="Path 149" class="s63" d="m260.9 523.9l-2.9-11.6-10.2 1.5-2.9 7.2z"/>
		<path id="Path 150" class="s22" d="m215.9 513.8l-1.4-2.9h-8.7l-14.5 2.9-26.1-2.9h-2.9l-5.8 5.8v10.1l37.7 13 2.9-2.9 11.6 2.9h5.8v-2.9z"/>
		<path id="Path 151" class="s47" d="m298.6 515.2h-10.2l-1.4-4.3h-5.8l-8.7 1.4 2.9 10.1-11.6 2.9v5.8l17.4 2.9h8.7l8.7-8.7z"/>
		<path id="Path 152" class="s64" d="m347.8 526.8l10.2-7.2v-8.7h-13.1-21.7l-24.6 4.3v10.1z"/>
		<path id="Path 153" class="s60" d="m397.1 513.8l-2.9-2.9h-14.5l-2.9 20.2 5.8 2.9 8.7-2.9z"/>
		<path id="Path 154" class="s65" d="m452.2 515.2h-11.6l-4.4-4.3-15.9 8.7v8.6l-5.8 5.8 14.5 16h17.4v-7.3l14.5-8.7-1.5-15.9z"/>
		<path id="Path 155" class="s59" d="m459.4 518.1l1.5-7.2h-7.3l-1.4 4.3z"/>
		<path id="Path 156" class="s66" d="m826.1 519.6v-8.7h-34.8l2.9 18.8 4.4 5.8 10.1 1.4v-4.3z"/>
		<path id="Path 157" class="s47" d="m379.7 510.9l-2.9-1.5-18.8 1.5v8.7l-10.2 7.2-4.3 13 4.3 1.5v11.6h13.1v-4.4l10.1-5.8v-8.7l5.8-2.9z"/>
		<path id="Path 158" class="s41" d="m272.5 512.3l-7.3-4.3-7.2 4.3 2.9 11.6 2.9 1.4 11.6-2.9z"/>
		<path id="Path 159" class="s67" d="m487 542.7l20.2-23.1-2.9-11.6h-15.9l-5.8 10.1-13 8.7v7.2l8.7 8.7z"/>
		<path id="Path 160" class="s59" d="m721.7 508v4.3h-7.2v-4.3z"/>
		<path id="Path 161" class="s5" d="m907.2 510.9l-2.9-2.9h-7.2l-14.5 13v8.7l4.4 7.2h14.4l2.9-4.3z"/>
		<path id="Path 162" class="s62" d="m162.3 510.9v-4.4l-5.8-1.4-5.8 1.4v10.2h5.8z"/>
		<path id="Path 163" class="s27" d="m127.5 515.2v-13h-5.8l-2.9 10.1z"/>
		<path id="Path 164" class="s67" d="m147.8 503.6l-8.7-1.4h-11.6v13l7.3 2.9 15.9-1.4v-10.2z"/>
		<path id="Path 165" class="s67" d="m214.5 510.9v-8.7h-4.4l-4.3 8.7z"/>
		<path id="Path 166" class="s17" d="m281.2 510.9l-2.9-8.7h-5.8-5.8l-1.5 5.8 7.3 4.3z"/>
		<path id="Path 167" class="s54" d="m287 510.9v-7.3l-8.7-1.4 2.9 8.7z"/>
		<path id="Path 168" class="s68" d="m579.7 526.8v-24.6h-17.4l-5.8 2.9-2.9 26 2.9 16 8.7-1.5v-11.6l13.1-2.9z"/>
		<path id="Path 169" class="s65" d="m714.5 508v-5.8h-10.2v8.7l-8.6 4.3v14.5l8.6 8.7v10.1l17.4 8.7 14.5-8.7h14.5l5.8-5.8v-17.4l-23.2-13h-11.6-7.2z"/>
		<path id="Path 170" class="s52" d="m733.3 512.3v-10.1h-8.7l-2.9 5.8v4.3z"/>
		<path id="Path 171" class="s49" d="m897.1 508l-7.2-5.8h-13.1l-2.9 14.5-7.2 2.9v20.2h5.8l10.1-10.1v-8.7z"/>
		<path id="Path 172" class="s69" d="m837.7 519.6l-2.9-18.9-8.7 1.5v8.7 8.7h5.8z"/>
		<path id="Path 173" class="s27" d="m704.3 502.2l-17.3-2.9v8.7l-4.4 2.9v26h7.3v-5.8l5.8-1.4v-14.5l8.6-4.3z"/>
		<path id="Path 174" class="s61" d="m791.3 505.1l-10.1-5.8h-42.1l-5.8 2.9v10.1l23.2 13 37.7 4.4-2.9-18.8z"/>
		<path id="Path 175" class="s70" d="m826.1 502.2l-29-2.9-5.8 5.8v5.8h34.8z"/>
		<path id="Path 176" class="s12" d="m249.3 509.4v-10.1l-10.2-1.5-11.6 14.5 1.5 4.4 18.8-4.4z"/>
		<path id="Path 177" class="s20" d="m147.8 503.6v-7.2h-8.7v5.8z"/>
		<path id="Path 178" class="s27" d="m669.6 497.8l-13.1-1.4-4.3 34.7h14.5z"/>
		<path id="Path 179" class="s54" d="m687 499.3l-2.9-2.9-14.5 1.4-2.9 33.3 2.9 11.6h8.7l4.3-5.8v-26l4.4-2.9z"/>
		<path id="Path 180" class="s61" d="m724.6 502.2v-5.8h-7.2l-2.9 5.8v5.8h7.2z"/>
		<path id="Path 181" class="s62" d="m210.1 502.2l-4.3-7.3h-11.6l-2.9 18.9 14.5-2.9z"/>
		<path id="Path 182" class="s58" d="m488.4 508l-4.3-13.1-11.6 1.5-11.6 5.8v8.7l-1.5 7.2 1.5 15.9h8.7v-7.2l13-8.7z"/>
		<path id="Path 183" class="s60" d="m239.1 497.8v-4.3h-15.9l-8.7 8.7v8.7l1.4 2.9 11.6-1.5z"/>
		<path id="Path 184" class="s34" d="m618.8 502.2l-4.3-8.7-34.8 8.7v24.6h14.5l2.9-4.4h11.6l2.9-7.2 7.2-1.4z"/>
		<path id="Path 185" class="s44" d="m860.9 496.4h-8.7l-2.9-4.4-14.5 8.7 2.9 18.9v5.7h7.2l1.5-5.7h11.6z"/>
		<path id="Path 186" class="s54" d="m156.5 505.1v-14.5h-5.8-2.9v5.8 7.2l2.9 2.9z"/>
		<path id="Path 187" class="s71" d="m904.3 508v-18.9l-14.4 5.8v7.3l7.2 5.8z"/>
		<path id="Path 188" class="s45" d="m472.5 496.4v-8.7h-11.6-8.7l-16 17.4v5.8l4.4 4.3h11.6l1.4-4.3h7.3v-8.7z"/>
		<path id="Path 189" class="s68" d="m656.5 496.4l-5.8-8.7h-15.9l-11.6 14.5h-4.4v11.6l-7.2 1.4-2.9 7.2v7.3l23.2 1.4 5.8 4.4 4.3-4.4h10.2z"/>
		<path id="Path 190" class="s45" d="m704.3 502.2v-14.5h-11.5l-8.7 4.3v4.4l2.9 2.9z"/>
		<path id="Path 191" class="s72" d="m876.8 502.2l-1.4-14.5h-7.3l-7.2 8.7-2.9 23.2v20.2h8.7v-20.2l7.2-2.9z"/>
		<path id="Path 192" class="s55" d="m139.1 496.4l-7.2-10.2h-10.2v16h5.8 11.6z"/>
		<path id="Path 193" class="s25" d="m147.8 490.6l-5.8-5.8-10.1 1.4 7.2 10.2h8.7z"/>
		<path id="Path 194" class="s38" d="m249.3 509.4l7.2-4.3-2.9-20.3h-2.9l-10.1 4.3-1.5 4.4v4.3l10.2 1.5z"/>
		<path id="Path 195" class="s66" d="m344.9 510.9v-26.1h-14.5-11.6l4.4 26.1z"/>
		<path id="Path 196" class="s61" d="m452.2 487.7v-2.9h-8.7l-8.7 11.6-11.6 2.9-8.7 7.2v10.2l5.8 2.9 15.9-8.7v-5.8z"/>
		<path id="Path 197" class="s70" d="m724.6 496.4v-11.6h-14.5l-5.8 2.9v14.5h10.2l2.9-5.8z"/>
		<path id="Path 198" class="s54" d="m631.9 484.8l-16-1.5-1.4 10.2 4.3 8.7h4.4l11.6-14.5z"/>
		<path id="Path 199" class="s73" d="m889.9 494.9l-8.7-11.6-5.8 4.4 1.4 14.5h13.1z"/>
		<path id="Path 200" class="s43" d="m150.7 490.6v-8.7h-5.8l-2.9 2.9 5.8 5.8z"/>
		<path id="Path 201" class="s24" d="m156.5 490.6l4.4-8.7h-10.2v8.7z"/>
		<path id="Path 202" class="s64" d="m250.7 484.8l-4.3-2.9h-5.8v7.2z"/>
		<path id="Path 203" class="s66" d="m394.2 484.8l-5.8-2.9-5.8 2.9-5.8 24.6 2.9 1.5h14.5z"/>
		<path id="Path 204" class="s45" d="m421.7 483.3l-10.1-1.4-17.4 2.9v26.1l2.9 2.9 14.5 2.9h2.9v-10.2l8.7-7.2z"/>
		<path id="Path 205" class="s68" d="m517.4 484.8l-21.7-2.9-11.6 4.3v8.7l4.3 13.1h15.9v-5.8l13.1-8.7z"/>
		<path id="Path 206" class="s36" d="m797.1 499.3l-60.9-17.4h-2.9l5.8 17.4h42.1l10.1 5.8z"/>
		<path id="Path 207" class="s74" d="m733.3 481.9l-4.3-1.5-4.4 4.4v11.6 5.8h8.7l5.8-2.9z"/>
		<path id="Path 208" class="s15" d="m98.6 505.1l-1.5-8.7-24.6-17.4h-8.7l2.9 11.6z"/>
		<path id="Path 209" class="s35" d="m173.9 484.8l-2.9-5.8h-5.8l-4.3 2.9-4.4 8.7v14.5l5.8 1.4v4.4h2.9z"/>
		<path id="Path 210" class="s47" d="m194.2 494.9l-7.2-15.9h-8.7l-4.4 5.8-8.7 26.1 26.1 2.9z"/>
		<path id="Path 211" class="s75" d="m220.3 484.8l-1.5-5.8h-2.9l-7.2 5.8v5.8z"/>
		<path id="Path 212" class="s50" d="m472.5 479v8.7h-11.6v-8.7z"/>
		<path id="Path 213" class="s76" d="m1066.7 479l-14.5 5.8v11.6l13 5.8 13.1-2.9z"/>
		<path id="Path 214" class="s45" d="m287 479l-2.9-1.4-13.1 7.2 1.5 17.4h5.8v-10.2z"/>
		<path id="Path 215" class="s32" d="m240.6 481.9l-2.9-5.8h-5.8l-5.8 8.7h-5.8l-11.6 5.8-2.9 4.3 4.3 7.3h4.4l8.7-8.7h15.9l1.5-4.4z"/>
		<path id="Path 216" class="s22" d="m246.4 481.9l-1.5-5.8h-4.3-2.9l2.9 5.8z"/>
		<path id="Path 217" class="s61" d="m317.4 480.4l-5.8-4.3-24.6 2.9-8.7 13v10.2l8.7 1.4v7.3l1.4 4.3h10.2l24.6-4.3-4.4-26.1z"/>
		<path id="Path 218" class="s52" d="m382.6 484.8l-1.4-8.7-7.3 5.8h-8.7-11.6l-8.7 2.9v26.1h13.1l18.8-1.5z"/>
		<path id="Path 219" class="s50" d="m388.4 481.9l-1.4-5.8h-5.8l1.4 8.7z"/>
		<path id="Path 220" class="s37" d="m602.9 477.6l-10.1 8.6-1.5-10.1h-11.6l-17.4 15.9v10.2h17.4l34.8-8.7 1.4-10.2-1.4-4.3z"/>
		<path id="Path 221" class="s36" d="m729 480.4l-18.9-5.7v10.1h14.5z"/>
		<path id="Path 222" class="s77" d="m178.3 479v-5.8h-4.4l-2.9 5.8 2.9 5.8z"/>
		<path id="Path 223" class="s3" d="m231.9 476.1l-1.5-2.9h-4.3l-7.3 5.8 1.5 5.8h5.8z"/>
		<path id="Path 224" class="s65" d="m365.2 481.9v-8.7h-8.7l-2.9 8.7z"/>
		<path id="Path 225" class="s62" d="m460.9 479l-5.8-5.8-2.9 11.6v2.9h8.7z"/>
		<path id="Path 226" class="s34" d="m602.9 477.6v-7.3h-7.2l-4.4 5.8 1.5 10.1z"/>
		<path id="Path 227" class="s65" d="m284.1 477.6v-8.7h-14.5l-5.8 10.1h-5.8l-4.4 5.8 2.9 20.3-7.2 4.3-1.5 2.9v1.5l10.2-1.5 7.2-4.3 1.5-5.8h5.8l-1.5-17.4z"/>
		<path id="Path 228" class="s78" d="m710.1 473.2l-17.3-4.3-1.5 1.4 1.5 17.4h11.5l5.8-2.9v-10.1z"/>
		<path id="Path 229" class="s79" d="m165.2 479l2.9-11.6h-4.3l-13.1 2.9h-4.3l-1.5 11.6h5.8 10.2z"/>
		<path id="Path 230" class="s65" d="m330.4 484.8l5.8-17.4h-11.6v11.6l-7.2 1.4 1.4 4.4z"/>
		<path id="Path 231" class="s45" d="m652.2 468.9l-5.8-1.5h-4.4l-10.1 8.7v8.7l2.9 2.9h15.9z"/>
		<path id="Path 232" class="s80" d="m692.8 468.9l-4.4-1.5 2.9 2.9z"/>
		<path id="Path 233" class="s31" d="m173.9 473.2l1.5-7.2h-4.4l-2.9 1.4-2.9 11.6h5.8z"/>
		<path id="Path 234" class="s43" d="m231.9 467.4l-2.9-1.4-2.9 7.2h4.3z"/>
		<path id="Path 235" class="s70" d="m688.4 467.4l-5.8-1.4h-27.5l-2.9 2.9-1.5 18.8 5.8 8.7 13.1 1.4 14.5-1.4v-4.4l8.7-4.3-1.5-17.4z"/>
		<path id="Path 236" class="s33" d="m118.8 470.3l-4.3-5.8h-7.3l-5.8 20.3 17.4 1.4z"/>
		<path id="Path 237" class="s23" d="m146.4 470.3l-2.9-5.8h-2.9l-2.9 4.4-13.1 1.4h-5.8v15.9h2.9 10.2l10.1-1.4 2.9-2.9z"/>
		<path id="Path 238" class="s78" d="m244.9 476.1l1.5-11.6-5.8 1.5v10.1z"/>
		<path id="Path 239" class="s60" d="m520.3 467.4l-8.7-2.9h-7.3l-8.6 7.3v10.1l21.7 2.9 4.3-7.2z"/>
		<path id="Path 240" class="s67" d="m579.7 467.4l-24.6-2.9-13.1 11.6v8.7l14.5 13v7.3l5.8-2.9v-10.2l17.4-15.9z"/>
		<path id="Path 241" class="s64" d="m189.9 464.5l-1.5-1.4-8.7 2.9-1.4 7.2v5.8h8.7z"/>
		<path id="Path 242" class="s50" d="m240.6 466l-2.9-2.9h-2.9l-2.9 4.3-1.5 5.8 1.5 2.9h5.8 2.9z"/>
		<path id="Path 243" class="s8" d="m75.4 464.5l-5.8-2.9h-5.8v2.9l4.3 8.7h-4.3v5.8h8.7z"/>
		<path id="Path 244" class="s81" d="m140.6 464.5l-2.9-2.9h-4.4l-8.7 2.9v5.8l13.1-1.4z"/>
		<path id="Path 245" class="s67" d="m455.1 463.1l-17.4-1.5-16 21.7 1.5 16 11.6-2.9 8.7-11.6h8.7l2.9-11.6z"/>
		<path id="Path 246" class="s59" d="m642 467.4v-5.8h-7.2l-20.3 17.4 1.4 4.3 16 1.5v-8.7z"/>
		<path id="Path 247" class="s70" d="m646.4 467.4v-5.8h-2.9-1.5v5.8z"/>
		<path id="Path 248" class="s62" d="m655.1 466l-1.5-4.4h-7.2v5.8l5.8 1.5z"/>
		<path id="Path 249" class="s11" d="m107.2 464.5l-1.4-4.3h-4.4l-5.7 7.2-11.6-2.9h-8.7l-2.9 14.5 24.6 17.4 1.5 8.7 20.2 7.2 2.9-10.1v-16h-2.9l-17.4-1.4z"/>
		<path id="Path 250" class="s74" d="m123.2 461.6l-5.8-1.4-2.9 4.3 4.3 5.8h5.8v-5.8z"/>
		<path id="Path 251" class="s75" d="m163.8 461.6l-11.6-1.4-1.5 10.1 13.1-2.9z"/>
		<path id="Path 252" class="s37" d="m258 467.4l2.9-4.3-4.4-2.9z"/>
		<path id="Path 253" class="s82" d="m472.5 479l2.9-13-5.8-5.8-14.5 2.9v10.1l5.8 5.8z"/>
		<path id="Path 254" class="s12" d="m152.2 460.2l-5.8-1.5-2.9 5.8 2.9 5.8h4.3z"/>
		<path id="Path 255" class="s19" d="m213 464.5l-13-5.8-1.4 1.5-1.5 4.3h-7.2l-2.9 14.5 7.2 15.9h11.6l2.9-4.3v-5.8l7.2-5.8z"/>
		<path id="Path 256" class="s68" d="m318.8 461.6l-20.2-2.9-4.4 8.7-10.1 1.5v8.7l2.9 1.4 24.6-2.9-1.5-8.7z"/>
		<path id="Path 257" class="s26" d="m437.7 461.6l-2.9-2.9-20.3 2.9-2.9 20.3 10.1 1.4z"/>
		<path id="Path 258" class="s59" d="m520.3 467.4l2.9-8.7h-11.6v5.8z"/>
		<path id="Path 259" class="s13" d="m178.3 460.2l-5.8-2.9-1.5 8.7h4.4z"/>
		<path id="Path 260" class="s83" d="m198.6 460.2l-7.3-1.5-2.9 4.4 1.5 1.4h7.2z"/>
		<path id="Path 261" class="s11" d="m229 466l-2.9-8.7h-13.1v7.2l2.9 14.5h2.9l7.3-5.8z"/>
		<path id="Path 262" class="s36" d="m682.6 466l-27.5-8.7-1.5 4.3 1.5 4.4z"/>
		<path id="Path 263" class="s11" d="m133.3 461.6l-4.3-5.8h-4.4l-1.4 5.8 1.4 2.9z"/>
		<path id="Path 264" class="s41" d="m256.5 460.2l-1.4-4.4h-4.4l-4.3 8.7-1.5 11.6 1.5 5.8 4.3 2.9h2.9l4.4-5.8v-11.6z"/>
		<path id="Path 265" class="s55" d="m387 476.1l5.8-5.8 1.4-14.5h-5.8l-20.3 5.8-2.9 11.6v8.7h8.7l7.3-5.8z"/>
		<path id="Path 267" class="s82" d="m69.6 461.6l-2.9-7.2h-2.9v7.2z"/>
		<path id="Path 268" class="s62" d="m210.1 455.8l-8.7-1.4-1.4 4.3 13 5.8v-7.2z"/>
		<path id="Path 269" class="s80" d="m655.1 457.3l-11.6-4.4v8.7h2.9 7.2z"/>
		<path id="Path 271" class="s39" d="m84.1 464.5v-13l-17.4 2.9 2.9 7.2 5.8 2.9z"/>
		<path id="Path 272" class="s46" d="m100 452.9l-15.9-1.4v13l11.6 2.9 5.7-7.2z"/>
		<path id="Path 273" class="s65" d="m137.7 461.6l1.4-10.1h-5.8l-4.3 4.3 4.3 5.8z"/>
		<path id="Path 274" class="s37" d="m178.3 460.2v-8.7h-4.4l-10.1 7.2v2.9 5.8h4.3l2.9-1.4 1.5-8.7z"/>
		<path id="Path 275" class="s78" d="m643.5 452.9l-4.4-1.4-4.3 1.4v8.7h7.2 1.5z"/>
		<path id="Path 277" class="s65" d="m117.4 460.2l-1.5-10.2h-8.7l-1.4 10.2 1.4 4.3h7.3z"/>
		<path id="Path 278" class="s69" d="m201.4 454.4l-2.8-4.4-7.3 2.9v5.8l7.3 1.5 1.4-1.5z"/>
		<path id="Path 279" class="s84" d="m237.7 463.1l2.9-2.9-2.9-10.2h-2.9v13.1z"/>
		<path id="Path 280" class="s37" d="m511.6 458.7l-1.5-8.7h-5.8v14.5h7.3z"/>
		<path id="Path 281" class="s28" d="m639.1 451.5l-4.3-1.5v2.9z"/>
		<path id="Path 282" class="s70" d="m107.2 450l-1.4-1.4-5.8 1.4v2.9l1.4 7.3h4.4z"/>
		<path id="Path 283" class="s73" d="m234.8 450l-4.4-1.4-4.3 8.7 2.9 8.7 2.9 1.4 2.9-4.3z"/>
		<path id="Path 284" class="s23" d="m124.6 455.8l-4.3-8.7-4.4 2.9 1.5 10.2 5.8 1.4z"/>
		<path id="Path 285" class="s12" d="m230.4 448.6l-15.9-1.5h-2.9l-1.5 8.7 2.9 1.5h13.1z"/>
		<path id="Path 286" class="s23" d="m340.6 450l1.4-2.9h-2.9z"/>
		<path id="Path 287" class="s68" d="m388.4 455.8v-8.7h-8.7l-11.6 14.5z"/>
		<path id="Path 288" class="s83" d="m211.6 447.1l-13-1.4v4.3l2.8 4.4 8.7 1.4z"/>
		<path id="Path 289" class="s24" d="m339.1 447.1l-5.8-1.4-8.7 7.2v7.3l-5.8 1.4-8.7 5.8 1.5 8.7 5.8 4.3 7.2-1.4v-11.6h11.6l4.4-17.4z"/>
		<path id="Path 290" class="s9" d="m178.3 451.5l5.8-4.4-4.4-2.9h-4.3l-1.5 7.3z"/>
		<path id="Path 291" class="s34" d="m504.3 450h-14.4l-11.6-5.8h-5.8l-2.9 16 5.8 5.8-2.9 13v8.7 8.7l11.6-1.5v-8.7l11.6-4.3v-10.1l8.6-7.3z"/>
		<path id="Path 292" class="s58" d="m573.9 451.5v-7.3h-4.3l-1.5 5.8z"/>
		<path id="Path 293" class="s59" d="m602.9 470.3v-26.1h-11.6l-7.2 2.9-1.5 5.8-2.9 14.5v8.7h11.6l4.4-5.8z"/>
		<path id="Path 294" class="s33" d="m139.1 451.5l2.9-4.4-7.2-4.3-1.5 1.4v7.3z"/>
		<path id="Path 295" class="s12" d="m175.4 444.2l-2.9-1.4-8.7 7.2v8.7l10.1-7.2z"/>
		<path id="Path 296" class="s14" d="m58 447.1l-7.3-5.8v14.5l13.1 8.7v-2.9-7.2z"/>
		<path id="Path 297" class="s85" d="m133.3 444.2l-7.2-2.9-5.8 5.8 4.3 8.7h4.4l4.3-4.3z"/>
		<path id="Path 298" class="s42" d="m198.6 445.7l-2.9-4.4h-8.7l4.3 11.6 7.3-2.9z"/>
		<path id="Path 299" class="s65" d="m304.3 448.6l4.4-2.9-1.5-4.4h-5.8z"/>
		<path id="Path 300" class="s62" d="m617.4 444.2l-11.6-2.9h-1.5l-1.4 2.9v26.1 7.3l11.6 1.4 20.3-17.4v-8.7-2.9z"/>
		<path id="Path 301" class="s30" d="m923.2 502.2l-1.5-17.4 4.4-2.9 11.6-40.6h-5.8l-7.3 8.7h-8.7l-8.7 13.1-2.9 26v18.9l2.9 2.9h10.2z"/>
		<path id="Path 302" class="s53" d="m881.2 483.3l5.8-18.8 20.2-21.7-1.4-2.9-13 10.1-13.1 14.5-24.6 21.7-5.8 5.8 2.9 4.4h8.7l7.2-8.7h7.3z"/>
		<path id="Path 303" class="s47" d="m150.7 442.8l4.4-4.4h-4.4z"/>
		<path id="Path 304" class="s65" d="m569.6 444.2l-7.3-5.8h-8.7l-30.4 20.3-2.9 8.7 1.4 10.2-4.3 7.2v8.7l-13.1 8.7v5.8l2.9 11.6-20.2 23.1 2.9 24.6h7.2l10.1-11.5 11.6-4.4 2.9-17.4 31.9-2.9 2.9-26v-7.3l-14.5-13v-8.7l13.1-11.6 24.6 2.9 2.9-14.5-8.7-1.4-5.8-1.5z"/>
		<path id="Path 305" class="s86" d="m600 439.9l-7.2-1.5h-1.5v5.8h11.6l1.4-2.9z"/>
		<path id="Path 306" class="s69" d="m97.1 441.3l-8.7-4.3-27.5 1.4-2.9 8.7 5.8 7.3h2.9l17.4-2.9 15.9 1.4v-2.9z"/>
		<path id="Path 307" class="s67" d="m591.3 438.4l-4.3-1.4-10.2 1.4-2.9 5.8v7.3l8.7 1.4 1.5-5.8 7.2-2.9z"/>
		<path id="Path 308" class="s78" d="m229 438.4l-11.6-2.8-2.9 11.5 15.9 1.5 4.4 1.4h2.9z"/>
		<path id="Path 309" class="s16" d="m388.4 441.3h4.4l1.4-5.7z"/>
		<path id="Path 310" class="s68" d="m478.3 444.2l-1.5-8.6h-4.3v8.6z"/>
		<path id="Path 311" class="s6" d="m956.5 438.4l-5.8-2.8h-7.2l-5.8 5.7-11.6 40.6-4.4 2.9 1.5 17.4h10.1l8.7-8.7 11.6-29z"/>
		<path id="Path 312" class="s59" d="m60.9 438.4v-4.3l-10.2 7.2 7.3 5.8z"/>
		<path id="Path 313" class="s87" d="m107.2 435.6l-5.8-1.5-4.3 7.2 2.9 8.7 5.8-1.4z"/>
		<path id="Path 314" class="s37" d="m217.4 435.6l-2.9-1.5-11.6 1.5h-8.7l1.5 5.7 2.9 4.4 13 1.4h2.9z"/>
		<path id="Path 315" class="s82" d="m605.8 441.3v-7.2h-5.8v5.8l4.3 1.4z"/>
		<path id="Path 316" class="s10" d="m617.4 444.2v-7.2l-5.8-2.9h-5.8v7.2z"/>
		<path id="Path 317" class="s18" d="m915.9 450v-15.9l-10.1 5.8 1.4 2.9-20.2 21.7-5.8 18.8 8.7 11.6 14.4-5.8 2.9-26z"/>
		<path id="Path 318" class="s18" d="m172.5 442.8l-4.4-10.1h-5.8v5.7h-7.2l-4.4 4.4-4.3 15.9 5.8 1.5 11.6 1.4v-2.9-8.7z"/>
		<path id="Path 319" class="s63" d="m247.8 445.7l-5.8-10.1-11.6-2.9h-1.4v5.7l8.7 11.6 2.9 10.2-2.9 2.9 2.9 2.9 5.8-1.5 4.3-8.7z"/>
		<path id="Path 320" class="s53" d="m592.8 438.4v-5.7h-5.8v4.3l4.3 1.4z"/>
		<path id="Path 321" class="s64" d="m600 434.1l-5.8-1.4h-1.4v5.7l7.2 1.5z"/>
		<path id="Path 322" class="s28" d="m179.7 444.2l-1.4-5.8 7.2-1.4-2.9-5.8h-7.2l-7.3 1.5 4.4 10.1 2.9 1.4z"/>
		<path id="Path 323" class="s16" d="m307.2 437v-5.8l-7.2 1.5 1.4 8.6h5.8z"/>
		<path id="Path 324" class="s50" d="m333.3 445.7v-14.5l-7.2 1.5 1.4 8.6-5.8 2.9 2.9 8.7z"/>
		<path id="Path 325" class="s53" d="m88.4 437l-2.9-7.2-24.6 4.3v4.3z"/>
		<path id="Path 326" class="s70" d="m150.7 438.4l-1.4-8.6h-13.1l-1.4 13 7.2 4.3-2.9 4.4-1.4 10.1 2.9 2.9h2.9l2.9-5.8 4.3-15.9z"/>
		<path id="Path 327" class="s65" d="m272.5 432.7v-2.9h-1.5z"/>
		<path id="Path 328" class="s51" d="m587 432.7l-16-2.9h-8.7v8.6l7.3 5.8h4.3l2.9-5.8 10.2-1.4z"/>
		<path id="Path 329" class="s17" d="m252.2 429.8l-17.4-1.5-4.4 4.4 11.6 2.9 5.8 10.1 5.8-8.7v-5.8z"/>
		<path id="Path 330" class="s39" d="m562.3 429.8l-8.7-1.5v10.1h8.7z"/>
		<path id="Path 331" class="s54" d="m101.4 434.1l2.9-7.2-18.8 2.9 2.9 7.2 8.7 4.3z"/>
		<path id="Path 332" class="s63" d="m214.5 434.1v-7.2h-11.6v8.7z"/>
		<path id="Path 333" class="s21" d="m229 432.7l-5.8-5.8h-8.7v7.2l2.9 1.5 11.6 2.8z"/>
		<path id="Path 334" class="s56" d="m300 432.7l-1.4-4.4-16-1.4-10.1 2.9v2.9l5.8 8.6v10.2h-21.8l-1.4 4.3 1.4 4.4 4.4 2.9-2.9 4.3v11.6h5.8l5.8-10.1h14.5l10.1-1.5 4.4-8.7 5.7-10.1-2.9-7.3z"/>
		<path id="Path 335" class="s40" d="m359.4 428.3l-5.8-1.4-2.9 8.7z"/>
		<path id="Path 336" class="s50" d="m394.2 429.8v-2.9h-11.6l-2.9 20.2h8.7v-5.8l5.8-5.7z"/>
		<path id="Path 337" class="s53" d="m107.2 435.6l10.2-1.5-1.5-8.7-11.6 1.5-2.9 7.2z"/>
		<path id="Path 338" class="s88" d="m202.9 426.9l-2.9-2.9h-8.7l-8.7 7.2 2.9 5.8-7.2 1.4 1.4 5.8 4.4 2.9-5.8 4.4v8.7l-2.9 5.8-1.5 7.2h4.4l1.4-7.2 8.7-2.9 2.9-4.4v-5.8l-4.3-11.6h8.7l-1.5-5.7h8.7z"/>
		<path id="Path 339" class="s50" d="m253.6 437l10.2-7.2v-5.8h-2.9l-7.3 7.2z"/>
		<path id="Path 340" class="s23" d="m333.3 431.2l2.9-7.2h-10.1l-8.7 2.9-10.2 10.1v4.3l1.5 4.4-4.4 2.9-5.7 10.1 20.2 2.9 5.8-1.4v-7.3l-2.9-8.7 5.8-2.9-1.4-8.6z"/>
		<path id="Path 341" class="s23" d="m420.3 428.3l5.8 2.9 5.8-7.2z"/>
		<path id="Path 342" class="s40" d="m450.7 431.2h4.4l2.9-7.2-7.3 2.9z"/>
		<path id="Path 343" class="s3" d="m469.6 429.8l1.4-4.4-7.2-1.4v5.8z"/>
		<path id="Path 344" class="s58" d="m507.2 426.9l-20.2-2.9-7.3 4.3-2.9 7.3 1.5 8.6 11.6 5.8h14.4 5.8z"/>
		<path id="Path 345" class="s10" d="m950.7 435.6l-1.4-11.6-20.3 1.4-13.1 8.7v15.9h8.7l7.3-8.7h5.8l5.8-5.7z"/>
		<path id="Path 346" class="s67" d="m136.2 429.8l-1.4-7.3-18.9 2.9 1.5 8.7-10.2 1.5-1.4 13 1.4 1.4h8.7l4.4-2.9 5.8-5.8 7.2 2.9 1.5-1.4z"/>
		<path id="Path 347" class="s19" d="m271 424h-7.2v5.8l-10.2 7.2-5.8 8.7 2.9 10.1h4.4l1.4-4.3h21.8v-10.2l-5.8-8.6-1.5-2.9z"/>
		<path id="Path 348" class="s25" d="m373.9 424l-2.9-1.5h-2.9l-8.7 5.8-8.7 7.3-8.7 11.5-1.4 2.9-4.4 17.4-5.8 17.4h14.5l8.7-2.9 2.9-8.7h8.7l2.9-11.6 11.6-14.5 2.9-20.2z"/>
		<path id="Path 349" class="s23" d="m418.8 426.9l-1.4-4.4h-5.8l-4.4 10.2z"/>
		<path id="Path 350" class="s36" d="m149.3 429.8l1.4-8.7-15.9 1.4 1.4 7.3z"/>
		<path id="Path 351" class="s19" d="m326.1 424l-1.5-2.9-8.7 1.4 1.5 4.4z"/>
		<path id="Path 352" class="s89" d="m394.2 429.8l7.2-1.5 2.9-7.2-10.1 5.8z"/>
		<path id="Path 353" class="s59" d="m463.8 424l-1.5-2.9h-4.3v2.9l-2.9 7.2h-4.4l-15.9 17.4v10.1l2.9 2.9 17.4 1.5 14.5-2.9 2.9-16v-8.6l-2.9-5.8h-5.8z"/>
		<path id="Path 354" class="s75" d="m487 424l-5.8-2.9-1.5 7.2z"/>
		<path id="Path 355" class="s78" d="m162.3 432.7l1.5-13.1-13.1 1.5-1.4 8.7 1.4 8.6h4.4 7.2z"/>
		<path id="Path 356" class="s70" d="m175.4 431.2l-4.4-11.6h-7.2l-1.5 13.1h5.8z"/>
		<path id="Path 357" class="s34" d="m350.7 421.1l-5.8-1.5h-7.2l-1.5 4.4-2.9 7.2v14.5l5.8 1.4h2.9l8.7-11.5 2.9-8.7z"/>
		<path id="Path 358" class="s3" d="m611.6 434.1v-11.6l-11.6-2.9-5.8 4.4v8.7l5.8 1.4h5.8z"/>
		<path id="Path 360" class="s16" d="m307.2 426.9l4.4-1.5v-7.2l-5.8 1.4z"/>
		<path id="Path 361" class="s45" d="m368.1 422.5h-11.6l-1.4-4.3-4.4 2.9 2.9 5.8 5.8 1.4z"/>
		<path id="Path 362" class="s69" d="m234.8 418.2l-8.7-1.5-14.5 1.5h-11.6v5.8l2.9 2.9h11.6 8.7l5.8 5.8h1.4l4.4-4.4z"/>
		<path id="Path 363" class="s4" d="m373.9 424l5.8-7.3h-8.7v5.8z"/>
		<path id="Path 364" class="s78" d="m191.3 424v-8.7l-20.3 4.3 4.4 11.6h7.2z"/>
		<path id="Path 365" class="s53" d="m200 418.2l-1.4-2.9h-7.3v8.7h8.7z"/>
		<path id="Path 366" class="s17" d="m272.5 421.1l7.2-5.8h-5.8z"/>
		<path id="Path 367" class="s16" d="m282.6 424l8.7-2.9-1.4-5.8-5.8 1.4z"/>
		<path id="Path 368" class="s19" d="m355.1 418.2l-7.3-2.9-2.9 4.3 5.8 1.5z"/>
		<path id="Path 369" class="s79" d="m431.9 421.1l10.1-7.3h-8.7z"/>
		<path id="Path 370" class="s65" d="m456.5 416.7l-10.1 2.9-2.9-5.8h-1.5l-10.1 7.3v2.9l-5.8 7.2-5.8-2.9-1.5-1.4-11.6 5.8-2.9 7.2-8.6 4.3-1.5 11.6-1.4 14.5-5.8 5.8 1.4 5.8 5.8 2.9 17.4-2.9 2.9-20.3 20.3-2.9v-10.1l15.9-17.4v-4.3l7.3-2.9v-2.9-4.4z"/>
		<path id="Path 371" class="s16" d="m468.1 415.3l-1.4-1.5-8.7 2.9v4.4h4.3z"/>
		<path id="Path 372" class="s78" d="m552.2 426.9l-16-2.9-4.3-5.8-24.7-2.9v11.6l2.9 23.1 1.5 8.7h11.6l30.4-20.3v-10.1z"/>
		<path id="Path 373" class="s60" d="m211.6 418.2v-5.8l-13 2.9 1.4 2.9z"/>
		<path id="Path 374" class="s16" d="m260.9 424l5.8-11.6-11.6 7.2-2.9 10.2 1.4 1.4z"/>
		<path id="Path 375" class="s19" d="m413 413.8l-7.2-2.9-1.5 7.3z"/>
		<path id="Path 376" class="s58" d="m433.3 413.8v-2.9l-10.1 7.3h-5.8v-4.4h-4.4l-8.7 4.4v2.9l-2.9 7.2-7.2 1.5v5.8l-1.4 5.7h-4.4v5.8 8.7h5.8l1.5-11.6 8.6-4.3 2.9-7.2 4.4-10.2h5.8l1.4 4.4 1.5 1.4 11.6-4.3v-2.9z"/>
		<path id="Path 377" class="s70" d="m481.2 421.1v-10.2l-13.1 4.4-5.8 5.8 1.5 2.9 7.2 1.4-1.4 4.4 2.9 5.8h4.3l2.9-7.3z"/>
		<path id="Path 378" class="s78" d="m226.1 416.7v-7.2l-14.5 2.9v5.8z"/>
		<path id="Path 379" class="s16" d="m313 418.2l10.2-4.4-5.8-4.3z"/>
		<path id="Path 380" class="s53" d="m507.2 415.3l-8.6-5.8h-17.4v1.4 10.2l5.8 2.9 20.2 2.9z"/>
		<path id="Path 381" class="s5" d="m600 419.6l-7.2-10.1h-5.8l-11.6 5.8-4.4 14.5 16 2.9h5.8 1.4v-8.7z"/>
		<path id="Path 382" class="s19" d="m291.3 413.8h4.4l2.9-7.2h-1.5z"/>
		<path id="Path 383" class="s61" d="m317.4 409.5v-2.9l-13.1 8.7 1.5 4.3 5.8-1.4h1.4z"/>
		<path id="Path 384" class="s69" d="m394.2 426.9l-2.9-20.3-11.6 7.2v2.9l-5.8 7.3 8.7 2.9z"/>
		<path id="Path 385" class="s62" d="m234.8 418.2l7.2-2.9 1.5-10.2-17.4 4.4v7.2z"/>
		<path id="Path 386" class="s50" d="m304.3 415.3l2.9-10.2h-5.8l-2.8 1.5-2.9 7.2h-4.4l-1.4 1.5 1.4 5.8-8.7 2.9v2.9l16 1.4 1.4 4.4 7.2-1.5v-4.3l-1.4-7.3z"/>
		<path id="Path 387" class="s74" d="m258 405.1l-1.5-1.4-13 1.4-1.5 10.2-7.2 2.9v10.1l17.4 1.5 2.9-10.2z"/>
		<path id="Path 388" class="s69" d="m266.7 412.4v-8.7l-8.7 1.4-2.9 14.5z"/>
		<path id="Path 389" class="s58" d="m330.4 406.6l-11.6-2.9-1.4 2.9v2.9l5.8 4.3-10.2 4.4h-1.4v7.2l-4.4 1.5v4.3 5.8l10.2-10.1-1.5-4.4 8.7-1.4z"/>
		<path id="Path 390" class="s82" d="m456.5 416.7l-4.3-13h-8.7v10.1l2.9 5.8z"/>
		<path id="Path 391" class="s36" d="m466.7 405.1l-11.6-1.4h-2.9l4.3 13h1.5l8.7-2.9z"/>
		<path id="Path 392" class="s78" d="m481.2 409.5l-11.6-5.8-2.9 1.4v8.7l1.4 1.5 13.1-4.4z"/>
		<path id="Path 393" class="s74" d="m301.4 405.1l-4.3-2.9v4.4h1.5z"/>
		<path id="Path 394" class="s37" d="m443.5 403.7l-5.8-1.5-4.4 8.7v2.9h8.7 1.5z"/>
		<path id="Path 395" class="s31" d="m266.7 403.7l4.3-2.9-14.5 2.9 1.5 1.4z"/>
		<path id="Path 396" class="s70" d="m279.7 415.3l1.5-14.5h-10.2l-4.3 2.9v8.7l-5.8 11.6h2.9 7.2l1.5-2.9 1.4-5.8z"/>
		<path id="Path 397" class="s62" d="m297.1 402.2l-1.4-2.9-14.5 1.5-1.5 14.5-7.2 5.8-1.5 2.9v5.8h1.5l10.1-2.9v-2.9l1.5-7.3 5.8-1.4 1.4-1.5 5.8-7.2z"/>
		<path id="Path 398" class="s60" d="m417.4 413.8l2.9-14.5h-14.5v11.6l7.2 2.9z"/>
		<path id="Path 399" class="s11" d="m437.7 402.2l-17.4-2.9-2.9 14.5v4.4h5.8l10.1-7.3z"/>
		<path id="Path 400" class="s11" d="m318.8 403.7v-5.8l-23.1 1.4 1.4 2.9 4.3 2.9h5.8l-2.9 10.2 13.1-8.7z"/>
		<path id="Path 401" class="s26" d="m330.4 406.6v-8.7h-11.6v5.8z"/>
		<path id="Path 402" class="s60" d="m379.7 413.8v-15.9h-49.3v8.7l-5.8 14.5 1.5 2.9h10.1l1.5-4.4h7.2l2.9-4.3 7.3 2.9 1.4 4.3h11.6 2.9v-5.8h8.7z"/>
		<path id="Path 403" class="s28" d="m391.3 406.6l1.5-8.7h-13.1v15.9z"/>
		<path id="Path 404" class="s36" d="m405.8 399.3l-13-1.4-1.5 8.7 2.9 20.3 10.1-5.8v-2.9l1.5-7.3z"/>
		<path id="Path 408" class="s38" d="m505.8 380.5l-4.4-4.3-31.8 24.6v2.9l11.6 5.8h17.4v-10.2l10.1-11.5z"/>
		<path id="Path 409" class="s73" d="m511.6 374.7l-2.9-4.3-7.3 5.8 4.4 4.3z"/>
		<path id="Path 410" class="s6" d="m559.4 374.7l-20.3 5.8-4.3-10.1h-5.8l-11.6 14.5-8.7 2.9-10.1 11.5v10.2l8.6 5.8 24.7 2.9 4.3 5.8 16 2.9 1.4-18.9 8.7-5.8z"/>
		<path id="Path 411" class="s84" d="m530.4 355.9l-5.8-1.5-15.9 16 2.9 4.3z"/>
		<path id="Path 412" class="s5" d="m559.4 374.7v-20.3h-13l-11.6 16 4.3 10.1z"/>
		<path id="Path 413" class="s82" d="m530.4 355.9l11.6-10.1-1.4-7.3-2.9 1.5-11.6 11.6-1.5 2.8z"/>
		<path id="Path 415" class="s7" d="m559.4 354.4v-14.4l8.7-13.1-2.9-7.2-24.6 18.8 1.4 7.3-11.6 10.1-18.8 18.8-5.8 5.8 2.9 7.3 8.7-2.9 11.6-14.5h5.8l11.6-16z"/>
		<path id="Path 417" class="s89" d="m587 409.5l-7.3-94.2-7.2-1.4-7.3 5.8 2.9 7.2-8.7 13.1v14.4 20.3l2.9 27.5-8.7 5.8-1.4 18.9 1.4 1.4 8.7 1.5h8.7l4.4-14.5z"/>
		<path id="Path 432" class="s90" d="m-110.1 538.4h-1.5v1.4h1.5z"/>
		<path id="Path 437" class="s76" d="m1087 441.3l-26.1-15.9-17.4 5.8v18.8l11.6 8.7h13l5.8 11.6h7.3l10.1-11.6z"/>
		<path id="Path 438" class="s1" d="m1113 460.2v-4.4h-1.4v4.4z"/>
		<path id="Path 439" class="s2" d="m-111.6 539.8h-1.4v1.5h1.4z"/>
	</g>
</svg>