<svg version="1.2" xmlns="http://www.w3.org/2000/svg" viewBox="0 0 1000 1000" width="1000" height="1000">
	<title>Pomoxis_nigromaculatus</title>
	<style>
		.s0 { opacity: .1;fill: #d4cfcd } 
		.s1 { opacity: .4;fill: #f5f2f1 } 
		.s2 { opacity: .6;fill: #b2aba9 } 
		.s3 { opacity: .3;fill: #8b8280 } 
		.s4 { opacity: .6;fill: #dcd6d5 } 
		.s5 { opacity: .1;fill: #f3efee } 
		.s6 { opacity: .6;fill: #8d8581 } 
		.s7 { opacity: .4;fill: #bfb8b5 } 
		.s8 { opacity: .2;fill: #b6afad } 
		.s9 { opacity: .7;fill: #cdc6c4 } 
		.s10 { fill: #41342f } 
		.s11 { opacity: .9;fill: #908785 } 
		.s12 { fill: #383536 } 
		.s13 { fill: #433f3f } 
		.s14 { fill: #594b45 } 
		.s15 { fill: #4f4039 } 
		.s16 { opacity: .3;fill: #d0c9c7 } 
		.s17 { fill: #372e29 } 
		.s18 { fill: #8f8277 } 
		.s19 { fill: #2f2c2e } 
		.s20 { opacity: .8;fill: #b8b2b0 } 
		.s21 { opacity: .3;fill: #e4dfde } 
		.s22 { opacity: .6;fill: #756d68 } 
		.s23 { opacity: 1;fill: #a59f99 } 
		.s24 { fill: #4d4b4a } 
		.s25 { opacity: .3;fill: #9f9694 } 
		.s26 { fill: #71655a } 
		.s27 { opacity: .1;fill: #ada5a2 } 
		.s28 { opacity: .7;fill: #a69d9a } 
		.s29 { fill: #989596 } 
		.s30 { fill: #2c231e } 
		.s31 { fill: #948e8a } 
		.s32 { fill: #252222 } 
		.s33 { fill: #332825 } 
		.s34 { opacity: .9;fill: #766b67 } 
		.s35 { fill: #242627 } 
		.s36 { fill: #1b1d1e } 
		.s37 { fill: #171719 } 
		.s38 { fill: #141212 } 
		.s39 { fill: #241b18 } 
		.s40 { opacity: .8;fill: #61544f } 
		.s41 { fill: #495865 } 
		.s42 { opacity: .1;fill: #756b67 } 
		.s43 { fill: #7a736b } 
		.s44 { fill: #3e4c56 } 
		.s45 { fill: #314d5f } 
		.s46 { fill: #253033 } 
		.s47 { fill: #1e282e } 
		.s48 { fill: #67696c } 
		.s49 { fill: #32444d } 
		.s50 { fill: #3d5a6f } 
		.s51 { fill: #66564c } 
		.s52 { fill: #253846 } 
		.s53 { opacity: 1;fill: #604e45 } 
		.s54 { fill: #486780 } 
		.s55 { fill: #274150 } 
		.s56 { fill: #2d383d } 
		.s57 { fill: #626f7e } 
		.s58 { fill: #58748f } 
		.s59 { fill: #67809b } 
		.s60 { fill: #526471 } 
		.s61 { fill: #5b6977 } 
		.s62 { fill: #778494 } 
		.s63 { fill: #7f8b9c } 
		.s64 { fill: #aba8ab } 
		.s65 { opacity: .2;fill: #4b403d } 
		.s66 { opacity: .4;fill: #756c69 } 
		.s67 { fill: #727477 } 
		.s68 { fill: #687686 } 
		.s69 { fill: #606264 } 
		.s70 { fill: #969bab } 
		.s71 { fill: #585859 } 
		.s72 { opacity: 1;fill: #eee9eb } 
		.s73 { fill: #808081 } 
		.s74 { fill: #87898f } 
		.s75 { fill: #8292ac } 
		.s76 { fill: #a3a6b4 } 
		.s77 { fill: #c7c7d7 } 
		.s78 { fill: #7289a7 } 
		.s79 { fill: #8c939e } 
		.s80 { fill: #b8b4b2 } 
		.s81 { fill: #d0cac8 } 
		.s82 { fill: #e6e0e1 } 
		.s83 { fill: #747d8b } 
		.s84 { fill: #9f9da3 } 
		.s85 { fill: #b0b0c3 } 
		.s86 { fill: #8c9dbd } 
		.s87 { fill: #c2bdbf } 
		.s88 { opacity: 1;fill: #dbd6da } 
		.s89 { fill: #b1b0bb } 
		.s90 { fill: #d3ced4 } 
		.s91 { fill: #bbbbce } 
		.s92 { opacity: 1;fill: #c8c3ca } 
		.s93 { fill: #897462 } 
		.s94 { fill: #a6b0cc } 
		.s95 { opacity: .7;fill: #554a48 } 
		.s96 { fill: #9ca7c1 } 
	</style>
	<g id="Background">
		<path id="Path 0" class="s0" d="m113 507h1v1h-1z"/>
		<path id="Path 1" class="s0" d="m389 326h1v1h-1z"/>
		<path id="Path 2" class="s1" d="m506 294h1v1h-1z"/>
		<path id="Path 3" class="s1" d="m509 294v-2h3z"/>
		<path id="Path 4" class="s2" d="m509 294l3-2h3l1 2-10 2v-1l1-1z"/>
		<path id="Path 5" class="s3" d="m516 294l-1-2h2v3z"/>
		<path id="Path 6" class="s4" d="m538 294v-2h5l1 1v1z"/>
		<path id="Path 7" class="s5" d="m543 292h1v1h-1z"/>
		<path id="Path 8" class="s5" d="m569 294v-2h2l-1 2z"/>
		<path id="Path 9" class="s4" d="m570 294l1-2h5v2l-4 1z"/>
		<path id="Path 10" class="s2" d="m576 294v-2h11v2z"/>
		<path id="Path 11" class="s6" d="m587 294v-2h8v2h-1z"/>
		<path id="Path 12" class="s7" d="m595 294v-2h16l1 1-1 4h-5l1-3z"/>
		<path id="Path 13" class="s5" d="m611 292h1v1h-1z"/>
		<path id="Path 14" class="s8" d="m638 416h1v1h-1z"/>
		<path id="Path 15" class="s5" d="m658 320h1v1h-1z"/>
		<path id="Path 16" class="s9" d="m474 296l5-2-2 6v-3h-3z"/>
		<path id="Path 17" class="s10" d="m506 296l10-2 1 1v2l2 4 1 1-3 3-17 1-2-5 3-3 3-2z"/>
		<path id="Path 18" class="s11" d="m531 296l7-2h6l-11 4-9 3 1-2h1z"/>
		<path id="Path 19" class="s12" d="m533 298l11-4h3l7 2h2l2 12 6-2v-6h6l2-4 6 2v8l4 16v7l-4 1-5-2-1-5h-5l1 13-1 11-6 1-10-2-1-17-10-7z"/>
		<path id="Path 20" class="s4" d="m559 296l6-2-1 2z"/>
		<path id="Path 21" class="s10" d="m564 296l1-2h4 1l2 1v1l-2 4h-6z"/>
		<path id="Path 22" class="s13" d="m572 295l4-1h11 7v6l3 1 5 2 8 1h2v18l-18 2 2 10-2 12h-3-6l-3-13v-4-7l7-1 1-5-6-10h-6v-8l-6-2z"/>
		<path id="Path 23" class="s14" d="m597 301l-3-1v-6h1 12l-1 3-7 3z"/>
		<path id="Path 24" class="s3" d="m470 299l4-3v1l-3 3z"/>
		<path id="Path 25" class="s15" d="m474 297h3v3 1 3l-9 1-1-1 4-4z"/>
		<path id="Path 26" class="s16" d="m498 298l6-2-3 2z"/>
		<path id="Path 27" class="s17" d="m564 300v6l-6 2-2-12h3 5z"/>
		<path id="Path 28" class="s5" d="m439 300v-3h4l-1 1z"/>
		<path id="Path 29" class="s18" d="m442 298l1-1h2l2 3v1l-5-1z"/>
		<path id="Path 30" class="s9" d="m439 300l3-2v2l-3 4-4 5v-3z"/>
		<path id="Path 31" class="s9" d="m496 299l2-1h3l-3 3-5 2 1-2z"/>
		<path id="Path 32" class="s19" d="m524 301l9-3 7 24 10 7 1 17-6 5-11-1-6-10-7-5-2-5-4 1-15-7v-6-12l17-1 3-3 2-1h1z"/>
		<path id="Path 33" class="s20" d="m463 306l1-4 6-3 1 1-4 4z"/>
		<path id="Path 34" class="s16" d="m523 301l2-2-1 2z"/>
		<path id="Path 35" class="s14" d="m439 304l3-4 5 1v1 1l-1 1z"/>
		<path id="Path 36" class="s21" d="m597 301l2-1 3 2v1z"/>
		<path id="Path 37" class="s9" d="m477 304v-3l4 5z"/>
		<path id="Path 38" class="s17" d="m493 303l5-2 2 5v12h-5z"/>
		<path id="Path 39" class="s16" d="m520 302l-1-1h3z"/>
		<path id="Path 40" class="s16" d="m447 303v-1l2 9-1-1z"/>
		<path id="Path 41" class="s10" d="m481 306l12-3 2 15 1 6-3 9h-4l-5 6h-8l-1-14-5-1-2-16v-3l9-1z"/>
		<path id="Path 42" class="s22" d="m602 303v-1h8v2z"/>
		<path id="Path 43" class="s6" d="m610 304v-2h16l1 4v1l-5-2-10-1z"/>
		<path id="Path 44" class="s23" d="m446 304l1-1 1 7z"/>
		<path id="Path 45" class="s10" d="m435 309l4-5h7l2 6 1 1 2 3 5-1v7l-12 4h-11l-1-4 1-6v-2z"/>
		<path id="Path 46" class="s13" d="m463 306l4-2 1 1v3h-6z"/>
		<path id="Path 47" class="s24" d="m612 322v-18l10 1v7 12l-9 3z"/>
		<path id="Path 48" class="s14" d="m622 312v-7l5 2 2 4z"/>
		<path id="Path 49" class="s1" d="m414 311l2-5h3v3z"/>
		<path id="Path 50" class="s8" d="m433 312l2-6v3z"/>
		<path id="Path 51" class="s25" d="m449 311l5 1 9-6-1 2-6 5-5 1z"/>
		<path id="Path 52" class="s19" d="m582 322l-4-16h6l6 10-1 5z"/>
		<path id="Path 53" class="s25" d="m627 307v-1l5 5 12 1 5 4-20-5z"/>
		<path id="Path 54" class="s26" d="m414 311l5-2 3 6v1l8 3 1-3v-1l2-1-1 6h-5l-4 8-3 4h-5v-6-4l-3-1v-3l1-2z"/>
		<path id="Path 55" class="s17" d="m456 313l6-5h6l2 16-7 1-7-5z"/>
		<path id="Path 56" class="s15" d="m622 312l7-1 20 5h1l3 3-11 6v9h-11v-6l-9-4z"/>
		<path id="Path 57" class="s8" d="m431 315l2-3v2z"/>
		<path id="Path 58" class="s7" d="m393 319v-3h3l1 8-1-1z"/>
		<path id="Path 59" class="s0" d="m411 318l2-2-1 2z"/>
		<path id="Path 60" class="s8" d="m431 316l-1 3-8-3z"/>
		<path id="Path 61" class="s27" d="m653 319l-3-3 8 4v1h-1z"/>
		<path id="Path 62" class="s28" d="m411 319v-1h1v3l-2 4-4 7-3 1 1-2 2-2 3-7z"/>
		<path id="Path 63" class="s13" d="m496 324l-1-6h5v6z"/>
		<path id="Path 64" class="s7" d="m390 326l3-7-1 6-2 8-1-6z"/>
		<path id="Path 65" class="s29" d="m392 325l1-6 3 4z"/>
		<path id="Path 66" class="s10" d="m642 334v-9l11-6 4 2 11 13 6 12 4 11 1 1v1l1 5v8l-7 9-10 4h-2-6l-3-3v-8l4-4 7-1-3-4 2-15-4-4-8 3-6-5z"/>
		<path id="Path 67" class="s17" d="m423 328l4-8h5l1 4-3 4z"/>
		<path id="Path 68" class="s12" d="m444 324l12-4 7 5 7-1 5 1 1 14-2 5-10 2-14-3-5-3-2-7z"/>
		<path id="Path 69" class="s30" d="m410 325l2-4 3 1v4z"/>
		<path id="Path 70" class="s31" d="m668 334l-11-13h1 1l3 3 2 2 3 4 1 3z"/>
		<path id="Path 71" class="s10" d="m594 346l2-12-2-10 18-2 1 5-1 16 10 12h6l4 5 2 12-2 5h-6l-8-1v-6l-16-15v-7z"/>
		<path id="Path 72" class="s10" d="m392 325l4-2 1 1 4 7 1 2v9l-13-2 1-4v-3z"/>
		<path id="Path 73" class="s19" d="m568 336l-1-13h5l1 5 5 2 1 4z"/>
		<path id="Path 74" class="s32" d="m430 328l3-4h11l-1 9-7 7h-6z"/>
		<path id="Path 75" class="s32" d="m493 333l3-9h4l15 7 2 4h4l7 5 6 10v2l-8 2h-20v-8l2-7-3-3h-7z"/>
		<path id="Path 76" class="s30" d="m613 327l9-3 9 4v6l-2 5 3 5 2 15-2 1-4-5h-6l-10-12z"/>
		<path id="Path 77" class="s33" d="m406 332l4-7 5 1v6l-4 3z"/>
		<path id="Path 78" class="s13" d="m415 332h5l3-4h7v12l-1 2h-18v-7z"/>
		<path id="Path 79" class="s30" d="m578 330l4-1v4l-3 1z"/>
		<path id="Path 80" class="s14" d="m515 331l4-1 2 5h-4z"/>
		<path id="Path 81" class="s5" d="m668 333l-1-3 2 3z"/>
		<path id="Path 82" class="s34" d="m378 345v-14l8 6 4-1-1 4h-1l-8-2v8l-2 2z"/>
		<path id="Path 83" class="s19" d="m403 333l3-1 5 3v7l-2 3h-6l-1-3v-9z"/>
		<path id="Path 84" class="s26" d="m436 340l7-7 2 7-2 3h-7z"/>
		<path id="Path 85" class="s35" d="m484 339l5-6h4l5 3 2 10v2l-16-4z"/>
		<path id="Path 86" class="s15" d="m579 334l3-1 3 13-2 3-11 2-3 6h-5l-3-2v-7l6-1 1-11z"/>
		<path id="Path 87" class="s9" d="m668 334v-1h1l7 9 1 7-3-3z"/>
		<path id="Path 88" class="s33" d="m632 344l-3-5 2-5h11l2 10z"/>
		<path id="Path 89" class="s13" d="m500 346l-2-10h7l3 3-2 7z"/>
		<path id="Path 90" class="s10" d="m380 346v-8l8 2v7z"/>
		<path id="Path 91" class="s32" d="m474 344l2-5h8v5z"/>
		<path id="Path 92" class="s36" d="m388 347v-7h1l13 2 1 3-4 3z"/>
		<path id="Path 93" class="s37" d="m429 342l1-2h6v3z"/>
		<path id="Path 94" class="s37" d="m443 343l2-3 5 3z"/>
		<path id="Path 95" class="s38" d="m403 345h6l2-3h18l7 1h7 7l14 3 10-2h10l16 4v6 9l-4 3h-12-8-19l-9 10h-4l-3-4h-9l-4-8h-8l-5-8h-14l-5 5v9h-5l-5 6-18-4-3 4-24 2-1 12v3l-6 3h-4v-8l-8-9v-5-6l12-5 11-4h1l17-5h1l8-3h1l5-3 2-2 8 1 11 1z"/>
		<path id="Path 96" class="s15" d="m632 360l2-1-2-15h12l6 5-4 4v12l4 2 2 7v8l3 3-12 3h-2-2-3v-10l-4-1 2-5z"/>
		<path id="Path 97" class="s4" d="m373 351l5-6v3z"/>
		<path id="Path 98" class="s39" d="m500 348v-2h6v8h-6z"/>
		<path id="Path 99" class="s33" d="m545 351l6-5 10 2v7l3 2 1 10-3 5-11-1-7-7v-6z"/>
		<path id="Path 100" class="s30" d="m583 349l2-3h6l-1 8 4 3v5l-2 2h-4l-4-6z"/>
		<path id="Path 101" class="s15" d="m594 362v-5l-4-3 1-8h3l8 2v7l16 15v6l-4 3v5h-2l-7-3-1-3h-8l-1-4v-6z"/>
		<path id="Path 102" class="s17" d="m650 349l8-3 4 4-2 15-4 5-4 4-2-7-4-2v-12z"/>
		<path id="Path 103" class="s18" d="m678 357l-4-11 3 3v1z"/>
		<path id="Path 104" class="s39" d="m569 357l3-6 11-2 1 9-4 1v5l-2 6h-2l-3-1z"/>
		<path id="Path 105" class="s30" d="m534 352v-2l11 1-1 7h-10z"/>
		<path id="Path 106" class="s8" d="m678 357l-1-7 2 8z"/>
		<path id="Path 107" class="s35" d="m526 354l8-2v6h-6z"/>
		<path id="Path 108" class="s27" d="m346 359l6-4 11-1z"/>
		<path id="Path 109" class="s37" d="m500 363v-9h6 20l2 4h6l2 11 1 9-3 2-10-2-3-6h-9l-4-2-2-5z"/>
		<path id="Path 110" class="s37" d="m396 370v-9l5-5h14l5 8v6z"/>
		<path id="Path 111" class="s37" d="m562 372l3-5-1-10h5l4 12 3 1v14l-2 5-3 2h-5z"/>
		<path id="Path 112" class="s36" d="m536 369l-2-11h10v6l7 7 11 1 4 19 4 19v1l-10-4-6-4v-12l-6-3-4-7v-8z"/>
		<path id="Path 113" class="s15" d="m580 364v-5l4-1 4 6-4 2z"/>
		<path id="Path 114" class="s25" d="m330 362l15-3-11 4z"/>
		<path id="Path 115" class="s8" d="m680 364l-1-5 2 5z"/>
		<path id="Path 116" class="s40" d="m318 368l1-3 4 1 7-4 4 1-12 5z"/>
		<path id="Path 117" class="s39" d="m592 364l2-2 1 6h-3z"/>
		<path id="Path 118" class="s41" d="m496 366l4-3 6 2 2 5-6 2-6-1z"/>
		<path id="Path 119" class="s12" d="m420 370v-6h8l4 8v4h-10z"/>
		<path id="Path 120" class="s10" d="m578 370l2-6 4 2v4z"/>
		<path id="Path 121" class="s38" d="m584 366l4-2h4v4 6h-4l-4-4z"/>
		<path id="Path 122" class="s42" d="m680 372v-8h1v8z"/>
		<path id="Path 123" class="s43" d="m656 370l4-5 3 4z"/>
		<path id="Path 124" class="s36" d="m448 376l9-10h19v5l4 2-2 7h-9l-9-1-3 4h-6z"/>
		<path id="Path 125" class="s44" d="m480 373l-4-2v-5h8v6z"/>
		<path id="Path 126" class="s36" d="m484 372v-6h12v5l-2 9h-3z"/>
		<path id="Path 127" class="s7" d="m306 371l5-4 5 1-1 1-4 1z"/>
		<path id="Path 128" class="s39" d="m315 369l1-1h2 4v6h-8z"/>
		<path id="Path 129" class="s10" d="m592 374v-6h3v6z"/>
		<path id="Path 130" class="s17" d="m311 370l4-1-1 5-1 2-5 1-2-3z"/>
		<path id="Path 131" class="s45" d="m537 378l-1-9 8 4v8z"/>
		<path id="Path 132" class="s34" d="m306 371l5-1-5 4-9 2v-1l2-3h2l4-1z"/>
		<path id="Path 133" class="s36" d="m386 376l5-6h5 24l2 6v4h-2l-16 2h-18z"/>
		<path id="Path 134" class="s35" d="m502 372l6-2 4 2v8h-8z"/>
		<path id="Path 135" class="s17" d="m576 384v-14h2 6l4 4v12h-10z"/>
		<path id="Path 136" class="s46" d="m494 380l2-9 6 1 2 8h8l3 1 2 5h6l3 6v5h-5l-1 4-4 1-2-2-12 2-2-10v-9z"/>
		<path id="Path 137" class="s2" d="m287 377l12-5-2 3-7 3h-3z"/>
		<path id="Path 138" class="s37" d="m340 390l1-12 24-2 3-4 18 4v6l-1 3-15 2-9-1-3 4z"/>
		<path id="Path 139" class="s35" d="m432 376v-4h9l3 4-2 7-5 1-1-2v-5z"/>
		<path id="Path 140" class="s47" d="m480 373l4-1 7 8-4 4v5l-5 1-4-1-5-2-4-1v-6h9z"/>
		<path id="Path 141" class="s36" d="m512 380v-8h9l3 6 10 2v11l-2 1h-6l-3-6-2-5h-6z"/>
		<path id="Path 142" class="s21" d="m673 381l7-9h1l-2 7-6 3z"/>
		<path id="Path 143" class="s37" d="m297 376l9-2 2 3 4 3 1-4 1-2h8v5l8 9v8l-4 1v4l-14 1h-4v-11l-3-3h-15v-8z"/>
		<path id="Path 144" class="s30" d="m588 386v-12h4 3l1 4h8l1 3-5 2v7l5 2v9l-3 1-3-1-2-9-9-2z"/>
		<path id="Path 145" class="s14" d="m290 378l7-3v1l-7 4z"/>
		<path id="Path 146" class="s48" d="m308 377l5-1-1 4z"/>
		<path id="Path 147" class="s49" d="m422 380v-4h10l4 1v5z"/>
		<path id="Path 148" class="s50" d="m442 383l2-7h4l3 7-1 3z"/>
		<path id="Path 149" class="s51" d="m614 384v-5l4-3 8 1 1 10 9 1h3l-2 2h-3l-3 2-4 3-3 2-4 3h-1l-3 1 2-6v-10z"/>
		<path id="Path 150" class="s16" d="m276 384l11-7v1l-9 6z"/>
		<path id="Path 151" class="s39" d="m636 388l-9-1-1-10h6l4 1z"/>
		<path id="Path 152" class="s10" d="m278 384l9-6h3v2 8l-13 10-8 3-2-3 3-8z"/>
		<path id="Path 153" class="s46" d="m534 380l3-2 7 3 4 7 6 3v12h-4l-7-7h-5v-4l-4-1z"/>
		<path id="Path 154" class="s52" d="m451 383h6l3-4 9 1v6l4 1v5l-7 9-12-1-1 4h-5l-2-4h-4l-8 1-6 1v-14l9-4 5-1 8 3z"/>
		<path id="Path 155" class="s52" d="m404 382l16-2 2 8v11l-1 4-5 1-12-1-4-3v-7l4-5z"/>
		<path id="Path 156" class="s46" d="m422 388l-2-8h2l14 2 1 2-9 4z"/>
		<path id="Path 157" class="s50" d="m487 389v-5l4-4h3l6 3v9z"/>
		<path id="Path 158" class="s44" d="m523 386h-6l-2-5h6z"/>
		<path id="Path 159" class="s53" d="m605 392l-5-2v-7l5-2 7 3-3 7z"/>
		<path id="Path 160" class="s3" d="m663 385l10-4v1z"/>
		<path id="Path 161" class="s46" d="m385 385l1-3h18v6l-4 5h-6l-7-3z"/>
		<path id="Path 162" class="s7" d="m263 394l3-5 10-5h2l-8 6z"/>
		<path id="Path 163" class="s38" d="m574 389l2-5 2 2v3z"/>
		<path id="Path 164" class="s30" d="m609 391l3-7h2l4 1v10h-6z"/>
		<path id="Path 165" class="s52" d="m370 387l15-2 2 5 7 3 1 7-3 6h-6l-10-2h-4z"/>
		<path id="Path 166" class="s3" d="m643 388l12-3h6l-11 4z"/>
		<path id="Path 167" class="s46" d="m358 390l3-4 9 1 2 17-6 2h-6l-2-11z"/>
		<path id="Path 168" class="s39" d="m578 389v-3h10v4l-4 5-4-1z"/>
		<path id="Path 169" class="s54" d="m473 392v-5l5 2z"/>
		<path id="Path 170" class="s38" d="m277 398l13-10h15l3 3v11l-12 6h-8-8v-7z"/>
		<path id="Path 171" class="s45" d="m422 399v-11h6v14l-1 1z"/>
		<path id="Path 172" class="s27" d="m637 390l2-2h2z"/>
		<path id="Path 173" class="s55" d="m473 392l5-3 4 1v9l-7 3 3 6-1 4h-5l-4-1-2-10z"/>
		<path id="Path 174" class="s52" d="m482 390l5-1 13 3 2 10-20-3z"/>
		<path id="Path 175" class="s56" d="m571 391l3-2h4l2 5-3 2z"/>
		<path id="Path 176" class="s18" d="m263 394l7-4-3 8-6 3-4-2z"/>
		<path id="Path 177" class="s47" d="m340 393v-3h18v5l-16 1z"/>
		<path id="Path 178" class="s38" d="m584 395l4-5 9 2 2 9 3 1 3 8 5 1 1 2-1 5-2 6-11-1-6-5-1-8v-5l-4-3z"/>
		<path id="Path 179" class="s56" d="m532 392l2-1 4 1v4l-2 4h-4z"/>
		<path id="Path 180" class="s35" d="m570 410l-4-19h5l6 5 3 7v7z"/>
		<path id="Path 181" class="s15" d="m605 392l4-1 3 4h6l-2 6-6 3v7l-5-1-3-8 3-1z"/>
		<path id="Path 182" class="s47" d="m526 397v-5h6v8h-4z"/>
		<path id="Path 183" class="s52" d="m334 396l6-3 2 3 16-1 2 11-4 1-11-5h-11z"/>
		<path id="Path 184" class="s45" d="m395 400l-1-7h6v7z"/>
		<path id="Path 185" class="s16" d="m256 399l3-5h4l-6 5z"/>
		<path id="Path 186" class="s41" d="m577 396l3-2 4 1 2 7-6 1z"/>
		<path id="Path 187" class="s46" d="m326 401v-4l4-1h4v6z"/>
		<path id="Path 188" class="s47" d="m536 400l2-4h5l7 7v8l-4 1-4-1z"/>
		<path id="Path 189" class="s54" d="m520 401l1-4h5l2 3-4 4z"/>
		<path id="Path 190" class="s12" d="m261 401l6-3 2 3-8 7h-2v-2z"/>
		<path id="Path 191" class="s37" d="m269 401l8-3 3 3v7l-2 4h-12l-5-4z"/>
		<path id="Path 192" class="s16" d="m249 404l7-5-6 5z"/>
		<path id="Path 193" class="s26" d="m250 404l6-5h1l4 2-2 5-9-1z"/>
		<path id="Path 194" class="s57" d="m421 403l1-4 5 4-1 3z"/>
		<path id="Path 195" class="s58" d="m478 408l-3-6 7-3 20 3 12-2 2 2v6l-4 5-8-3-10 4-10-2-2-4z"/>
		<path id="Path 196" class="s49" d="m392 406l3-6h5l4 3 3 7-1 6h-8l-6-4z"/>
		<path id="Path 197" class="s59" d="m434 401l8-1v6h-8z"/>
		<path id="Path 198" class="s50" d="m442 406v-6h4l2 4-2 6h-3z"/>
		<path id="Path 199" class="s58" d="m453 404l1-4 12 1 2 10 4 1v4l-6 5h-6l-1-3 1-5z"/>
		<path id="Path 200" class="s45" d="m524 404l4-4h4 4l6 11-4 5h-6l-8-8z"/>
		<path id="Path 201" class="s21" d="m616 401l3-1-2 4-5 1z"/>
		<path id="Path 202" class="s55" d="m312 402l14-1 8 1h11l11 5v17l-4 2v4 6l-2 7-6 3-9 2-2-6v-8l3-1 12-5-1-4-11 2h-6l-5-1-7-9h-6z"/>
		<path id="Path 203" class="s41" d="m428 402l6-1v5l-2 7-6-1v-6l1-3z"/>
		<path id="Path 204" class="s55" d="m516 402l4-1 4 3v4h-8z"/>
		<path id="Path 205" class="s28" d="m610 411v-7l6-3-4 4v5l4 2v1h-5z"/>
		<path id="Path 206" class="s52" d="m296 408l12-6h4v14l-15 2-1-4z"/>
		<path id="Path 207" class="s58" d="m404 403l12 1-2 6h-7z"/>
		<path id="Path 208" class="s36" d="m580 403l6-1 4 3v5h-10z"/>
		<path id="Path 209" class="s50" d="m416 404l5-1 5 3v6l-4 1v3h-8v-6z"/>
		<path id="Path 210" class="s60" d="m550 411v-8h4l6 4-2 5z"/>
		<path id="Path 211" class="s7" d="m233 417l16-13h1v1l-17 13z"/>
		<path id="Path 212" class="s54" d="m366 406l6-2h4v10h-7z"/>
		<path id="Path 213" class="s58" d="m376 414v-10l10 2v6l-2 2z"/>
		<path id="Path 214" class="s55" d="m446 410l2-6h5l7 9-1 5-4 4h-7v-2z"/>
		<path id="Path 215" class="s51" d="m233 418l17-13 9 1v2l-26 17-4-3 2-3z"/>
		<path id="Path 216" class="s45" d="m356 407l4-1h6l3 8h7 8l1 10 1 8v6l-5 4-3-4-8 4-10-3-2-3h-6v-6l6-3-2-3z"/>
		<path id="Path 217" class="s45" d="m386 412v-6h6v6z"/>
		<path id="Path 218" class="s57" d="m432 413l2-7h8l1 4-1 9-8-1z"/>
		<path id="Path 219" class="s52" d="m550 411l8 1 2-5 10 4v3 9l9 1 6 4v6l5 1-2 7h-4-4l-3-7-8-4h-5v6l5 9 6 2v4h9v4l6 3-2 11-9 2-7 1v-5l-4-1 2-10-4-5-3-5h-5l-1 3-4 2v6l-6-1-1-5-4-1-3-1 2-10 14-1v-8l-10-5-1-6 2-8z"/>
		<path id="Path 220" class="s38" d="m233 425l26-17h2l5 4v7l-7 2-10 11-10 2-7-6z"/>
		<path id="Path 221" class="s46" d="m278 412l2-4h8v7h-10z"/>
		<path id="Path 222" class="s19" d="m288 415v-7h8v6l-3 2z"/>
		<path id="Path 223" class="s45" d="m477 412l1-4h4l2 4-2 2z"/>
		<path id="Path 224" class="s52" d="m494 414l10-4 8 3 4-5h8l8 8v7l-6-4h-12l-5 5h-10l-2 6h-11l-2-6 2-2h6z"/>
		<path id="Path 225" class="s60" d="m406 416l1-6h7v6l-6 6z"/>
		<path id="Path 226" class="s58" d="m442 419l1-9h3l2 10z"/>
		<path id="Path 227" class="s47" d="m570 411v-1h10 10l1 8-3 2v7l-3 1-6-4-2-9-7-1z"/>
		<path id="Path 228" class="s58" d="m538 416l4-5 4 1-2 8z"/>
		<path id="Path 229" class="s35" d="m266 419v-7h12v3l-6 5z"/>
		<path id="Path 230" class="s61" d="m384 414l2-2h6l6 4v8h-2-11z"/>
		<path id="Path 231" class="s49" d="m422 416v-3l4-1 6 1 2 5 8 1 6 1v2 6h-2-8v8l-4 7-7-1-3-7 2-6-4-2z"/>
		<path id="Path 232" class="s62" d="m472 416v-4h5l5 2 4 8-2 2h-8-1z"/>
		<path id="Path 233" class="s55" d="m482 414l2-2 10 2-2 8h-6z"/>
		<path id="Path 234" class="s40" d="m616 413v-1l10 2v2l-9-1z"/>
		<path id="Path 235" class="s39" d="m610 418l1-5h5l1 2-1 3z"/>
		<path id="Path 236" class="s55" d="m293 416l3-2 1 4h-3z"/>
		<path id="Path 237" class="s50" d="m579 424l-9-1v-9l7 1z"/>
		<path id="Path 238" class="s28" d="m626 416v-2l5 2h-3z"/>
		<path id="Path 239" class="s44" d="m272 420l6-5h10l5 1 1 2-1 9-7 1v4 3l-10-1-4-7z"/>
		<path id="Path 240" class="s37" d="m616 418l1-3 9 1h2v12 4h-9l-3-8z"/>
		<path id="Path 241" class="s45" d="m297 418l15-2h6l7 9 5 1v7l-11 2-3-5h-4l-2 6 4 1 3 8-4 6-5 1v5l-1 6-7 4v9h-13l-1-29 4-2v-8l-4-2v-3l8-2-1-3 1-9z"/>
		<path id="Path 242" class="s63" d="m303 424l6 2-9 2z"/>
		<path id="Path 243" class="s58" d="m398 424v-8h8l2 6v1z"/>
		<path id="Path 244" class="s55" d="m408 422l6-6h8v11l-8 3h-6v-7z"/>
		<path id="Path 245" class="s41" d="m459 418l1 3h6l6-5 3 8-3 1v5l-2 9-8 1-6-6-1-4v-8z"/>
		<path id="Path 246" class="s55" d="m532 423v-7h6l6 4 1 6-7 2z"/>
		<path id="Path 247" class="s39" d="m628 428v-12h3 1l7 2 1 1v11h-2l-3-4z"/>
		<path id="Path 248" class="s28" d="m639 418l-7-2h1 5l1 1z"/>
		<path id="Path 249" class="s25" d="m231 419l2-2v1z"/>
		<path id="Path 250" class="s8" d="m639 418v-1l17 5v1l-16-4z"/>
		<path id="Path 251" class="s0" d="m854 419l9-2v1l-8 1z"/>
		<path id="Path 252" class="s27" d="m863 418v-1h20v1h-11z"/>
		<path id="Path 253" class="s8" d="m883 418v-1l8 2h-1l-6-1z"/>
		<path id="Path 254" class="s60" d="m588 427v-7l3-2 6 5-1 5 7 1 1 5-1 5-3 1 1 7v1h-7l-3-1-3-5 2-7 3-6z"/>
		<path id="Path 255" class="s35" d="m608 424l2-6h6v6z"/>
		<path id="Path 256" class="s64" d="m855 419l8-1-1 2z"/>
		<path id="Path 257" class="s31" d="m862 420l1-2h9v2z"/>
		<path id="Path 258" class="s34" d="m872 420v-2h11 1v2h-6z"/>
		<path id="Path 259" class="s29" d="m884 420v-2l6 1v1h-1z"/>
		<path id="Path 260" class="s25" d="m221 425l10-6-2 3-5 4-2 1z"/>
		<path id="Path 261" class="s49" d="m249 432l10-11 7-2 6 1v7l-7 3v5l1 11v4l5 2v9l5 3-1 8-19-1-2-8-4-1-4-20 1-4 3-2 3-4z"/>
		<path id="Path 262" class="s62" d="m509 424l5-5h12l6 4 6 5v9l-28-9z"/>
		<path id="Path 263" class="s37" d="m640 430v-11l16 4 8 3h1l5 2h4l9 2h5v9h-7l-7-2-3-4-8 3h-6l-1-7h-10z"/>
		<path id="Path 264" class="s21" d="m821 421l8-2v1l-7 1z"/>
		<path id="Path 265" class="s8" d="m829 420v-1h8v1z"/>
		<path id="Path 266" class="s42" d="m837 420v-1h5v1h-1z"/>
		<path id="Path 267" class="s65" d="m842 420v-1l7 1h-1z"/>
		<path id="Path 268" class="s32" d="m853 420l1-1h1l7 1h10 6l-2 19 9 1 4-6 13 1v5l-6 4-6 12-7 1-11-1-2-12-4-1-4-7h-11l-1-10 3-1z"/>
		<path id="Path 269" class="s3" d="m890 420v-1h1l7 3v1z"/>
		<path id="Path 270" class="s21" d="m799 422l6-2v2z"/>
		<path id="Path 271" class="s25" d="m805 422v-2h5v2z"/>
		<path id="Path 272" class="s66" d="m810 422v-2l7 1z"/>
		<path id="Path 273" class="s29" d="m822 421l7-1-1 2z"/>
		<path id="Path 274" class="s67" d="m828 422l1-2h8 4l-9 2z"/>
		<path id="Path 275" class="s17" d="m832 422l9-2h1 6v6h-16z"/>
		<path id="Path 276" class="s30" d="m848 426v-6h1 4v5l-3 1z"/>
		<path id="Path 277" class="s36" d="m889 434l-4 6-9-1 2-19h6 5z"/>
		<path id="Path 278" class="s39" d="m889 434v-14h1l8 3 5 4 3 4v3l-4 1z"/>
		<path id="Path 279" class="s30" d="m810 422l7-1h3v17l4 2v8l-5 2-6-1-1-9-4-5z"/>
		<path id="Path 280" class="s33" d="m824 440l-4-2v-17h1 1l6 1h4v4 12z"/>
		<path id="Path 281" class="s14" d="m224 426l5-4 4 3-1 3-4 1z"/>
		<path id="Path 282" class="s52" d="m448 428v-6h7v8z"/>
		<path id="Path 283" class="s7" d="m656 423v-1h5l3 4z"/>
		<path id="Path 284" class="s4" d="m784 424l7-2v2z"/>
		<path id="Path 285" class="s6" d="m791 424v-2l5 1-1 1z"/>
		<path id="Path 286" class="s15" d="m796 423l3-1h6 5l-2 13-13-11z"/>
		<path id="Path 287" class="s27" d="m898 423v-1l5 3v2z"/>
		<path id="Path 288" class="s49" d="m398 424l10-1v7h-12v-6z"/>
		<path id="Path 289" class="s47" d="m604 434l-1-5-7-1 1-5 11 1h8l3 8v2l-7 3-2-3z"/>
		<path id="Path 290" class="s58" d="m336 426l11-2 1 4-12 5z"/>
		<path id="Path 291" class="s44" d="m352 430v-4l4-2 2 3z"/>
		<path id="Path 292" class="s52" d="m386 432l-1-8h11v6l-6 2z"/>
		<path id="Path 293" class="s52" d="m472 430v-5l3-1h1v6z"/>
		<path id="Path 294" class="s45" d="m476 430v-6h8l2 6-3 8h-6z"/>
		<path id="Path 295" class="s44" d="m497 430l2-6h10l1 4 28 9 3 3-2 10 3 1v6l-10-1-4 5-7-3-2-12h-7-6l2-10-4-2z"/>
		<path id="Path 296" class="s9" d="m766 426l7-2v2h-5z"/>
		<path id="Path 297" class="s11" d="m773 426v-2h6z"/>
		<path id="Path 298" class="s19" d="m773 426l6-2h1v6h-12v-4z"/>
		<path id="Path 299" class="s32" d="m780 430v-6h4 7 4l13 11 4 5 1 9 1 7 5-1v-5l5-2v-8l8-2 10 2 4 12v10l-6 8v12l-1 4-17 6v-10l-8-2-4-12-2-5h-6l-4-5-6 1-12-1 2-6z"/>
		<path id="Path 300" class="s9" d="m214 432l7-7 1 2-4 4-2 1z"/>
		<path id="Path 301" class="s28" d="m665 426l6 1-1 1z"/>
		<path id="Path 302" class="s0" d="m745 426l11-1v1h-1z"/>
		<path id="Path 303" class="s42" d="m756 426v-1l7 1h-1z"/>
		<path id="Path 304" class="s5" d="m903 427v-2l3 3z"/>
		<path id="Path 305" class="s15" d="m222 427l2-1 4 3-6 4-4-2z"/>
		<path id="Path 306" class="s68" d="m330 433v-7h6v7l-3 1z"/>
		<path id="Path 307" class="s59" d="m538 428l7-2 10 5v8l-14 1-3-3z"/>
		<path id="Path 308" class="s69" d="m628 428l7-2 3 4v6l-10-4z"/>
		<path id="Path 309" class="s20" d="m744 428l1-2h10l-1 2h-2z"/>
		<path id="Path 310" class="s34" d="m754 428l1-2h1 6l-1 2z"/>
		<path id="Path 311" class="s35" d="m761 428l1-2h1 3 2v4z"/>
		<path id="Path 312" class="s19" d="m832 438v-12h16 2l1 10-1 16h-4l-4-12z"/>
		<path id="Path 313" class="s41" d="m265 435v-5l7-3 4 7-2 1z"/>
		<path id="Path 314" class="s59" d="m286 432v-4l7-1 1 3z"/>
		<path id="Path 315" class="s63" d="m414 430l8-3 4 2-2 6-10 1z"/>
		<path id="Path 316" class="s70" d="m438 436v-8h8v8z"/>
		<path id="Path 317" class="s46" d="m585 428l3-1 5 2-3 6-5-1z"/>
		<path id="Path 318" class="s42" d="m670 428l1-1h5v1h-2z"/>
		<path id="Path 319" class="s27" d="m676 428v-1h6v1z"/>
		<path id="Path 320" class="s0" d="m682 428v-1h34v1h-33z"/>
		<path id="Path 321" class="s27" d="m716 428v-1h13v1h-2z"/>
		<path id="Path 322" class="s42" d="m729 428v-1l9 1h-4z"/>
		<path id="Path 323" class="s2" d="m906 431l-3-4 3 1 1 2v1z"/>
		<path id="Path 324" class="s37" d="m228 429l4-1 7 6-1 2-9 5-7 1v-9z"/>
		<path id="Path 325" class="s50" d="m446 436v-8h2l7 2 1 4-2 7-8-1z"/>
		<path id="Path 326" class="s31" d="m683 430l-9-2h2 6 1z"/>
		<path id="Path 327" class="s64" d="m683 430v-2h33l-1 2h-7-20z"/>
		<path id="Path 328" class="s31" d="m715 430l1-2h11v2h-7z"/>
		<path id="Path 329" class="s34" d="m727 430v-2h2 5z"/>
		<path id="Path 330" class="s36" d="m727 430l7-2h4 6 8v22l-6-1v-7l-3-3-6 1 1 6 4 3v5h-5l-7-5-10-15v-4z"/>
		<path id="Path 331" class="s39" d="m752 450v-22h2 7l7 2h12l2 22-2 6-4 5-12-3h-3l-2-9-6-1z"/>
		<path id="Path 332" class="s24" d="m640 430l6-1-1 7h-7v-6z"/>
		<path id="Path 333" class="s71" d="m645 436l1-7h10l1 7-3 2z"/>
		<path id="Path 334" class="s59" d="m314 437l-4-1 2-6h4l3 5z"/>
		<path id="Path 335" class="s50" d="m390 432l6-2h12 6v6l-3 7-5 3h-12l-3-8z"/>
		<path id="Path 336" class="s59" d="m470 439l2-9h4l1 8-1 2z"/>
		<path id="Path 337" class="s68" d="m483 438l3-8h11l1 6 6-2 4 2-2 10-3 8h-3v-6l-7-2-4-6h-5z"/>
		<path id="Path 338" class="s70" d="m504 434l-6 2-1-6z"/>
		<path id="Path 339" class="s39" d="m688 439v-9h20v7h-2l-4 1-1 6h-9z"/>
		<path id="Path 340" class="s37" d="m708 437v-7h7 5v4l-5 4z"/>
		<path id="Path 341" class="s21" d="m907 431v-1l2 1v2h-1z"/>
		<path id="Path 342" class="s17" d="m216 432l2-1 4 2v9l2 8v3l-6 1h-6v-2-8-8z"/>
		<path id="Path 343" class="s59" d="m584 452h-9v-4l-6-2-5-9v-6h5l8 4 3 7h4z"/>
		<path id="Path 344" class="s23" d="m906 434v-3h1l1 2v6 1l-1 1h-1z"/>
		<path id="Path 345" class="s72" d="m907 440h1v1h-1z"/>
		<path id="Path 346" class="s34" d="m212 434l2-2h2l-4 4z"/>
		<path id="Path 347" class="s48" d="m239 434l10-2 1 4-3 2-4 2-5-4z"/>
		<path id="Path 348" class="s73" d="m250 436l-1-4h4z"/>
		<path id="Path 349" class="s58" d="m386 438v-6h4l1 6z"/>
		<path id="Path 350" class="s52" d="m619 434v-2h9l10 4h7l9 2v6h-1l-10 6-9-1-8-1-6-1-2-7z"/>
		<path id="Path 351" class="s52" d="m319 435l11-2 3 1v8l-11 2-5 1-3-8z"/>
		<path id="Path 352" class="s49" d="m663 436l8-3 3 4 3 6-1 2h-4l-9-4z"/>
		<path id="Path 353" class="s7" d="m908 439v-6h1v6z"/>
		<path id="Path 354" class="s9" d="m198 447l11-13h3v2l-7 7-5 4z"/>
		<path id="Path 355" class="s58" d="m274 435l2-1 10 1 4 2v8l-4 2-6-5h-6z"/>
		<path id="Path 356" class="s45" d="m454 441l2-7 6 6v4l5 4v6h-3l-3-1-4-4z"/>
		<path id="Path 357" class="s52" d="m603 439l1-5h6l2 3v3l-4 2z"/>
		<path id="Path 358" class="s58" d="m612 437l7-3-1 6h-6z"/>
		<path id="Path 359" class="s24" d="m715 438l5-4 10 15-8-5v-4h-7z"/>
		<path id="Path 360" class="s15" d="m902 435l4-1v7l-1 5-1 3v7 1 1l-14-2 6-12 6-4z"/>
		<path id="Path 361" class="s45" d="m266 446l-1-11h9v7l-2 4z"/>
		<path id="Path 362" class="s57" d="m414 436l10-1 3 7-6 2v6l4 4-4 5h-3l-5-7-2-9z"/>
		<path id="Path 363" class="s53" d="m205 443l7-7v8h-5z"/>
		<path id="Path 364" class="s41" d="m229 441l9-5 5 4v2z"/>
		<path id="Path 365" class="s50" d="m350 443l2-7h6l2 3-3 6z"/>
		<path id="Path 366" class="s74" d="m434 443l4-7h8v4 6h-8z"/>
		<path id="Path 367" class="s35" d="m654 438l3-2h6v5l-5 3h-4z"/>
		<path id="Path 368" class="s37" d="m850 452l1-16h11l4 7 4 1 2 12v6l-6 2h-6v-7z"/>
		<path id="Path 369" class="s36" d="m677 443l-3-6 7 2z"/>
		<path id="Path 370" class="s69" d="m701 444l1-6 4-1v3l-5 5z"/>
		<path id="Path 371" class="s61" d="m706 440v-3h2l7 1v2l-2 2h-3z"/>
		<path id="Path 372" class="s55" d="m243 440l4-2-1 4h-3z"/>
		<path id="Path 373" class="s62" d="m360 439l10 3 8-4 3 4 1 6-2 8 8 7-2 6-8 1-2-8h-8v-7l-8-1-3-1v-8z"/>
		<path id="Path 374" class="s60" d="m381 442l5-4h5l3 8v2h-12z"/>
		<path id="Path 375" class="s44" d="m476 440l1-2h6l1 2-1 10-4 1-3-1z"/>
		<path id="Path 376" class="s50" d="m462 440l8-1 6 1v10l3 1-1 5-6-1-5-1v-6l-5-4z"/>
		<path id="Path 377" class="s46" d="m601 447l-1-7 3-1 5 3v6h-4z"/>
		<path id="Path 378" class="s41" d="m677 443l4-4h7l4 5v2l-3 6-8-2v-3l-5-2z"/>
		<path id="Path 379" class="s44" d="m742 449l-4-3-1-6 6-1 3 3v7z"/>
		<path id="Path 380" class="s21" d="m908 440v-1h1v3h-2v-1z"/>
		<path id="Path 381" class="s75" d="m446 446v-6l8 1 3 8-2 1h-7z"/>
		<path id="Path 382" class="s73" d="m483 450l1-10h5l4 6 1 10-2 2-6-5z"/>
		<path id="Path 383" class="s69" d="m608 442l4-2h6l2 7-2 3h-9l-1-2z"/>
		<path id="Path 384" class="s76" d="m701 445l5-5 4 2-3 5-7 2v-2z"/>
		<path id="Path 385" class="s67" d="m713 442l2-2h7v4l8 5 7 5v2l-5 2h-7-8l-1 8-5 8h-6v-2l2-4-5-2h-2l3-4 9-5-2-10 3-1z"/>
		<path id="Path 386" class="s44" d="m222 442l7-1 14 1h3l4 20h-3l-2-4h-7-4l-1-6-9-2z"/>
		<path id="Path 387" class="s59" d="m658 444l5-3 9 4v1l-8 3v5l-6-2z"/>
		<path id="Path 388" class="s29" d="m905 446l1-5h1v1 2l-1 2z"/>
		<path id="Path 389" class="s50" d="m272 446l2-4h6l6 5 1 29-1 6h-8l-3-10 1-8-5-3v-9z"/>
		<path id="Path 390" class="s58" d="m322 444l11-2 2 6 9-2 2 10-7 6h-5l-3-7-9-5z"/>
		<path id="Path 391" class="s70" d="m425 454l-4-4v-6l6-2 7 1 4 3v5l-3 5z"/>
		<path id="Path 392" class="s58" d="m584 452v-10h4l3 5-1 5z"/>
		<path id="Path 393" class="s77" d="m707 447l3-5h3v4l-3 1z"/>
		<path id="Path 394" class="s17" d="m122 575v-4l3-1 7 2 9 9 2 5h-3l-7-3h-1l-4-3h-1z"/>
		<path id="Path 395" class="s21" d="m683 562h1v1h-1z"/>
		<path id="Path 396" class="s17" d="m200 447l5-4 2 1-1 8-3 2h-4l-2-3z"/>
		<path id="Path 397" class="s75" d="m344 446l6-3 7 2v8l-3 2-8 1z"/>
		<path id="Path 398" class="s78" d="m406 446l5-3 2 9h-7z"/>
		<path id="Path 399" class="s39" d="m206 452l1-8h5v8z"/>
		<path id="Path 400" class="s54" d="m317 445l5-1v6l9 5 3 7v9l-1 7-11-9-8-1v-4-5l-6-2v-5l5-1z"/>
		<path id="Path 401" class="s78" d="m643 450l10-6-2 8-8-1z"/>
		<path id="Path 402" class="s49" d="m651 452l2-8h1 4v8l6 2v6l5 5-2 4-6 2h-3-4l-2-5z"/>
		<path id="Path 403" class="s67" d="m692 446v-2h9v1l-1 2z"/>
		<path id="Path 404" class="s5" d="m906 446l1-2-1 3z"/>
		<path id="Path 405" class="s59" d="m512 446h7l2 12h-10z"/>
		<path id="Path 406" class="s70" d="m672 446v-1h4l5 2v3l-6 4h-3z"/>
		<path id="Path 407" class="s52" d="m271 452l-5-2v-4h6z"/>
		<path id="Path 408" class="s41" d="m394 448v-2h12v6l-2 4-10-1z"/>
		<path id="Path 409" class="s79" d="m438 451v-5h8l2 4-4 4z"/>
		<path id="Path 410" class="s70" d="m494 456l-1-10 7 2v6z"/>
		<path id="Path 411" class="s55" d="m503 454l3-8h6l-1 12-2 2h-5z"/>
		<path id="Path 412" class="s80" d="m664 454v-5l8-3v8z"/>
		<path id="Path 413" class="s81" d="m689 452l3-6 8 1v2l-2 10 5 3-3 4-9-3z"/>
		<path id="Path 414" class="s6" d="m904 449l1-3h1v1 2z"/>
		<path id="Path 415" class="s6" d="m192 452l6-5h2l-3 4-5 3z"/>
		<path id="Path 416" class="s59" d="m557 450l1-3h5l3 5-4 1h-4z"/>
		<path id="Path 417" class="s59" d="m590 452l1-5 3 1v5h-2z"/>
		<path id="Path 418" class="s54" d="m601 448v-1l3 1-2 1z"/>
		<path id="Path 419" class="s63" d="m618 450l2-3 6 1-2 13-6-1z"/>
		<path id="Path 420" class="s82" d="m700 449l7-2h3l2 10-9 5-5-3z"/>
		<path id="Path 421" class="s44" d="m388 463l-8-7 2-8h12v7 9z"/>
		<path id="Path 422" class="s79" d="m594 453v-5h7l1 1-2 6z"/>
		<path id="Path 423" class="s41" d="m602 449l2-1h4l1 2v7l9 3 6 1 6 7 1 10v4h-6l-6-3-7-8-4 1-6 2-2-4v-15z"/>
		<path id="Path 424" class="s44" d="m624 461l2-13 8 1-2 7 2 6-2 6h-2z"/>
		<path id="Path 425" class="s63" d="m634 449l9 1v1l-4 11h-5l-2-6z"/>
		<path id="Path 426" class="s60" d="m455 450l2-1 4 4-4 1z"/>
		<path id="Path 427" class="s47" d="m742 454v-5h4l6 1h1v6h-3-8z"/>
		<path id="Path 428" class="s38" d="m819 450v5l-5 1-1-7z"/>
		<path id="Path 429" class="s4" d="m904 456v-7h2v6z"/>
		<path id="Path 430" class="s47" d="m224 453v-3l9 2 1 6h-6z"/>
		<path id="Path 431" class="s48" d="m444 454l4-4h7l2 4-1 6h-12z"/>
		<path id="Path 432" class="s67" d="m479 451l4-1 3 3v4l-8-1z"/>
		<path id="Path 433" class="s73" d="m553 458v-6l4-2 1 3h4l-2 8z"/>
		<path id="Path 434" class="s75" d="m618 460l-9-3v-7h9z"/>
		<path id="Path 435" class="s71" d="m675 454l6-4 8 2 2 11 9 3h2v6h-8-3-5-4l-1-4 1-6z"/>
		<path id="Path 436" class="s44" d="m753 456v-6l6 1 2 9-3 8h-1l-1-11z"/>
		<path id="Path 437" class="s10" d="m192 454l5-3 2 3-9 12h-6l-1-3v-1z"/>
		<path id="Path 438" class="s24" d="m435 456l3-5 6 3v6h-6z"/>
		<path id="Path 439" class="s57" d="m542 457v-6l4 1 1 5z"/>
		<path id="Path 440" class="s70" d="m639 462l4-11 8 1 1 14-9-2z"/>
		<path id="Path 441" class="s4" d="m181 462l8-10h3v2l-9 8z"/>
		<path id="Path 442" class="s37" d="m203 454l3-2h6v2 8l-8 4h-2z"/>
		<path id="Path 443" class="s41" d="m218 454l6-1 4 5-1 2-2 1h-5z"/>
		<path id="Path 444" class="s73" d="m404 456l2-4h7l5 7-6 1-8-3z"/>
		<path id="Path 445" class="s62" d="m562 453l4-1 4 5-2 10-3 3h-5v-9z"/>
		<path id="Path 446" class="s46" d="m590 459l-6-3v-4h6l2 1z"/>
		<path id="Path 447" class="s36" d="m846 462v-10h4l10 5v7z"/>
		<path id="Path 448" class="s54" d="m354 455l3-2 3 1v12l-3 4h-3z"/>
		<path id="Path 449" class="s64" d="m457 454l4-1 3 1 2 6h6v8l-4 2h-5l-7-10z"/>
		<path id="Path 450" class="s71" d="m486 457v-4l6 5 11 8 3 4v6h-6l-5 1-10-6-2-5z"/>
		<path id="Path 451" class="s61" d="m590 459l2-6h2l6 2v15l-2 4h-4l-2-4h-4z"/>
		<path id="Path 452" class="s38" d="m190 466l9-12h4l-1 12-2 1-5 3z"/>
		<path id="Path 453" class="s13" d="m212 462v-8h6l2 7-6 1z"/>
		<path id="Path 454" class="s60" d="m360 466v-12l8 1v7l-2 4h-2z"/>
		<path id="Path 455" class="s44" d="m421 459l4-5 10 2 3 4v9l-4 2-6-2-3 3v5l5 6v5l-4 2-18-3v-11l4-3 9-7z"/>
		<path id="Path 456" class="s76" d="m472 460h-6l-2-6h3l5 1z"/>
		<path id="Path 457" class="s83" d="m494 456l6-2h3l1 6-1 6-11-8z"/>
		<path id="Path 458" class="s64" d="m669 465l-5-5v-6h8 3l7 8-1 6h-8z"/>
		<path id="Path 459" class="s61" d="m737 456v-2h5v2h-2z"/>
		<path id="Path 460" class="s41" d="m346 456l8-1v15l-2 4-10-3-3-9z"/>
		<path id="Path 461" class="s79" d="m394 464v-9l10 1v1 8l-4 3z"/>
		<path id="Path 462" class="s84" d="m472 460v-5l6 1 8 1-3 9-3 6h-5l-3-4z"/>
		<path id="Path 463" class="s75" d="m742 456h8l-4 14-6 2v-1-5-10z"/>
		<path id="Path 464" class="s5" d="m904 456l2-1-2 2z"/>
		<path id="Path 465" class="s84" d="m528 461l4-5 10 1h5l6 1 7 3v9h-2l-5 2-9-2-4 4h-2l-5-6-5-1z"/>
		<path id="Path 466" class="s85" d="m732 458l5-2h3v10h-6z"/>
		<path id="Path 467" class="s58" d="m746 470l4-14h3l3 1 1 11v1z"/>
		<path id="Path 468" class="s12" d="m872 462v-6l11 1v4l-5 2z"/>
		<path id="Path 469" class="s14" d="m883 457l7-1 14 2v5l-2 6v1l-10 17-5 5h-1l-8-19v-10l5-2z"/>
		<path id="Path 470" class="s86" d="m307 463l1-6 6 2v5h-6z"/>
		<path id="Path 471" class="s70" d="m404 465v-8l8 3-3 6h-3z"/>
		<path id="Path 472" class="s24" d="m227 460l1-2h6v4h-6z"/>
		<path id="Path 473" class="s79" d="m234 462v-4h4v7z"/>
		<path id="Path 474" class="s83" d="m238 465v-7h7l2 4-4 3z"/>
		<path id="Path 475" class="s70" d="m509 460l2-2h10l7 3v6l-1 1h-5-8l-5-4z"/>
		<path id="Path 476" class="s72" d="m716 466l1-8h8l2 7-3 7h-6z"/>
		<path id="Path 477" class="s79" d="m724 472l3-7-2-7h7l2 8v6l-2 3h-2l-6-1z"/>
		<path id="Path 478" class="s37" d="m776 463l4-5 12 1 1 9h17l4 12 4 12-4 4v12l14 6v24h7l2 4 15 1 2 5h9l3 6h4l10-5v-13h4l3 4-2 13-8 8-1 9-8 8h-11l-1 10h-13-4-1l-4-2v-20l-14-9 1-21-8-8h-23l-2-11-4-3v-8l-5-2-1 11 4 3v6l-7 3 3 13-9 2-3-4h-8l-2-16 1-9-3-1v-4l3-1 3-13-2-10h10l6-1v-5z"/>
		<path id="Path 479" class="s38" d="m792 459l6-1 4 5h6l2 5h-17z"/>
		<path id="Path 480" class="s63" d="m412 460l6-1h3v7l-9 7v-6l-3-1z"/>
		<path id="Path 481" class="s63" d="m225 461l2-1 1 2-2 2z"/>
		<path id="Path 482" class="s71" d="m438 469v-9h6 12l7 10-1 4-7-3-9 3-4-5z"/>
		<path id="Path 483" class="s41" d="m503 466l1-6h5v4l5 4v2h-8z"/>
		<path id="Path 484" class="s32" d="m758 468l3-8h3v12l4 6v6h-10v-1-4-10z"/>
		<path id="Path 485" class="s36" d="m768 478l-4-6v-12l12 3-2 15z"/>
		<path id="Path 486" class="s83" d="m214 462l6-1h5l1 3-5 8h-6l3-6h-4z"/>
		<path id="Path 487" class="s2" d="m175 467l6-5h2v1l-8 6z"/>
		<path id="Path 488" class="s68" d="m204 466l8-4h2v4l-4 2h-6z"/>
		<path id="Path 489" class="s49" d="m226 464l2-2h6l4 3h5l1 5-3 3-5 1h-6l-13 12h-9-1v-6l3-8h5 6z"/>
		<path id="Path 490" class="s45" d="m243 465l4-3h3l4 1 2 8-2 3h-6l-4-4z"/>
		<path id="Path 491" class="s50" d="m334 471v-9h5l3 9z"/>
		<path id="Path 492" class="s63" d="m366 466l2-4h8l2 8-9-1z"/>
		<path id="Path 493" class="s73" d="m632 468l2-6h5l4 2-1 5z"/>
		<path id="Path 494" class="s35" d="m840 482v-12l6-8 14 2h6l8 9v11l-4 2-1 6h-8l-5-1-2-4-9-1-1-4z"/>
		<path id="Path 495" class="s32" d="m866 464l6-2 6 1v10h-4z"/>
		<path id="Path 496" class="s17" d="m175 469l8-6 1 3-1 6-5 3-4-4z"/>
		<path id="Path 497" class="s50" d="m300 476v-9l7-4 1 1 1 4h5l8 1 11 9 1 6v8h-2l-5-1-3-5h-16z"/>
		<path id="Path 498" class="s57" d="m386 469l2-6 6 1v10l-4 2h-3z"/>
		<path id="Path 499" class="s58" d="m314 468h-5l-1-4h6z"/>
		<path id="Path 500" class="s48" d="m394 474v-10l6 4v4z"/>
		<path id="Path 501" class="s44" d="m642 469l1-5 9 2 2 5h4l1 7-11 7z"/>
		<path id="Path 502" class="s63" d="m400 468l4-3 2 1-1 6h-5z"/>
		<path id="Path 503" class="s43" d="m661 471l6-2 2-4 4 3v4h-7z"/>
		<path id="Path 504" class="s37" d="m183 472l1-6h6l5 4-1 4v4h-2-6z"/>
		<path id="Path 505" class="s74" d="m200 467l2-1h2v2l-2 2z"/>
		<path id="Path 506" class="s24" d="m210 468l4-2h4l-3 6h-5z"/>
		<path id="Path 507" class="s44" d="m357 470l3-4h4v6h5l5 2v8l-6 3-10-1v-6z"/>
		<path id="Path 508" class="s62" d="m369 472h-5v-6h2l3 3z"/>
		<path id="Path 509" class="s13" d="m405 472l1-6h3l3 1v6l-4 3z"/>
		<path id="Path 510" class="s24" d="m480 472l3-6 2 5-3 1z"/>
		<path id="Path 511" class="s24" d="m702 472v-6l5 2-2 4z"/>
		<path id="Path 512" class="s23" d="m711 474l5-8 2 6h6v2 4 1l-9-2z"/>
		<path id="Path 513" class="s77" d="m734 472v-6h6v5z"/>
		<path id="Path 514" class="s4" d="m163 477l12-10v2l-1 2-4 4-8 6h-1v-2z"/>
		<path id="Path 515" class="s48" d="m195 470l5-3 2 3-3 4h-5z"/>
		<path id="Path 516" class="s29" d="m527 468l1-1 5 1 5 6v4h-6z"/>
		<path id="Path 517" class="s46" d="m565 470l3-3 4 1v5l-2 1h-5z"/>
		<path id="Path 518" class="s46" d="m202 470l2-2h6v4l-3 8h-5-5l-3-2v-4h5z"/>
		<path id="Path 519" class="s13" d="m468 470l4-2 3 4-1 4h-4z"/>
		<path id="Path 520" class="s29" d="m514 470v-2h8l6 17v6l5 6-1 9h-8l-2-8-9-14 1-9z"/>
		<path id="Path 521" class="s74" d="m528 485l-6-17h5l5 10h6l2 9-8 1z"/>
		<path id="Path 522" class="s64" d="m631 478l-1-10h2l10 1 6 16 11-7 7 2 5 3-1 9 3 7-7 1-2-12h-9l-3 4h-6-2l-1-7z"/>
		<path id="Path 523" class="s31" d="m673 472v-4h8l1 4h4l-1 4-1 7-2 1-5-3 3-7-6-2z"/>
		<path id="Path 524" class="s35" d="m757 468h1v1h-1z"/>
		<path id="Path 525" class="s41" d="m369 472v-3l9 1 8-1 1 7-2 8 5 1 4 3v6l-3 9-2 5h-4l-9-8v-8l-2-10v-8z"/>
		<path id="Path 526" class="s79" d="m430 483l-5-6v-5l3-3 6 2v12z"/>
		<path id="Path 527" class="s84" d="m434 471l4-2h4l4 5 4 16v11h-8l-4-3v-8l-4-7z"/>
		<path id="Path 528" class="s56" d="m746 470l11-1h1v10h-8l-7 2-3-1v-8z"/>
		<path id="Path 529" class="s54" d="m241 473l3-3 4 4h6l2-3 19 1 3 10-4 3v7l6 1 7 9-1 5 3 2-1 3h-6-2v-8l-8-2-12-4h-8l-4 4-10-1-3-7 1-8 6-2z"/>
		<path id="Path 530" class="s59" d="m352 474l2-4h3l1 8h-4z"/>
		<path id="Path 531" class="s48" d="m462 474l1-4h5l2 6h4v5l-3 6 7 1 2 10 3 7 8-1 4 1v15l-3 2-8-12-14-4v-8l-9-11z"/>
		<path id="Path 532" class="s12" d="m506 476v-6h8v5z"/>
		<path id="Path 533" class="s13" d="m540 474l4-4 9 2 5-2 1 7v12l-5 2-6-2v-8z"/>
		<path id="Path 534" class="s69" d="m559 477l-1-7h2 5v4h5l-1 4z"/>
		<path id="Path 535" class="s29" d="m579 472l9-2h4l2 4v4h-2z"/>
		<path id="Path 536" class="s49" d="m598 474l2-4 2 4-4 4z"/>
		<path id="Path 537" class="s16" d="m892 487l10-17-1 7z"/>
		<path id="Path 538" class="s33" d="m170 475l4-4 4 4-2 2z"/>
		<path id="Path 539" class="s62" d="m333 478l1-7h8l10 3 2 4-1 6-5 2-14-2z"/>
		<path id="Path 540" class="s64" d="m446 474l9-3 7 3-1 13-7 3h-4z"/>
		<path id="Path 541" class="s41" d="m482 472l3-1 10 6-1 1h-6z"/>
		<path id="Path 542" class="s70" d="m608 472l4-1 7 8-1 3-8 2h-2z"/>
		<path id="Path 543" class="s87" d="m659 478l-1-7h3l5 1v8z"/>
		<path id="Path 544" class="s76" d="m734 472l6-1v1 8l-4 2h-3l-1-7z"/>
		<path id="Path 545" class="s38" d="m178 475l5-3 3 6-10 2v-3z"/>
		<path id="Path 546" class="s79" d="m394 474l6-2h5l3 4v11l18 3v6l-32-2v-6l-4-3v-9z"/>
		<path id="Path 547" class="s64" d="m474 476l1-4h5 2l6 6v4h-10l-4-1z"/>
		<path id="Path 548" class="s70" d="m572 473l7-1 13 6v7l-2 3h-7l-9-1-5-9 1-4z"/>
		<path id="Path 549" class="s79" d="m602 474l6-2v12h-6l-10 1v-7h2 4z"/>
		<path id="Path 550" class="s81" d="m666 480v-8h7 1v9l-3 2z"/>
		<path id="Path 551" class="s88" d="m674 481v-9l6 2-3 7z"/>
		<path id="Path 552" class="s88" d="m685 476l1-4h5l-1 4z"/>
		<path id="Path 553" class="s82" d="m685 476h5l1-4h3l11 2h6l4 3v8l7 1v6l-2 3-4-1-1-6-11-1-1-3h-5-12l-2-1z"/>
		<path id="Path 554" class="s29" d="m705 474l-11-2h8 3z"/>
		<path id="Path 555" class="s58" d="m236 474l5-1 1 11-6 2z"/>
		<path id="Path 556" class="s13" d="m869 492l1-6 4-2v-11h4l8 19-4 8h-5z"/>
		<path id="Path 557" class="s61" d="m217 486l13-12h6v12l-1 8h-8l-5 5h-2z"/>
		<path id="Path 558" class="s44" d="m538 478v-4h2l8 7v8h-4l-4-2z"/>
		<path id="Path 559" class="s57" d="m594 478v-4h4v4z"/>
		<path id="Path 560" class="s12" d="m724 478v-4l6 1v5h-4z"/>
		<path id="Path 561" class="s17" d="m162 481l8-6 6 2v3 8l-5 2z"/>
		<path id="Path 562" class="s70" d="m500 476h6l2 8-6 4-2-6z"/>
		<path id="Path 563" class="s68" d="m506 476l8-1-1 9h-5z"/>
		<path id="Path 564" class="s68" d="m730 480v-5h2l1 7-3 1z"/>
		<path id="Path 565" class="s56" d="m286 482l1-6h13l8 10-2 7h-7l-8-3z"/>
		<path id="Path 566" class="s70" d="m390 485l-5-1 2-8h3z"/>
		<path id="Path 567" class="s76" d="m495 477l5-1v6h-6v-4z"/>
		<path id="Path 568" class="s29" d="m559 489v-12l10 1 5 9-3 6h-1z"/>
		<path id="Path 569" class="s72" d="m722 486l-7-1v-8l9 2v6z"/>
		<path id="Path 570" class="s36" d="m176 480l10-2h6l2 4v6h-2-12-4z"/>
		<path id="Path 571" class="s24" d="m194 482l-2-4h2l3 2z"/>
		<path id="Path 572" class="s60" d="m353 484l1-6h4v6l-2 2z"/>
		<path id="Path 573" class="s68" d="m488 482v-4h6v4l-4 5z"/>
		<path id="Path 574" class="s80" d="m631 482v-4l12 7 1 7-8 2-6-2z"/>
		<path id="Path 575" class="s29" d="m724 479v-1l2 2v6h-1l-1-1z"/>
		<path id="Path 576" class="s63" d="m750 479h8v4l-6 2h-2z"/>
		<path id="Path 577" class="s38" d="m768 484v-6h6v5z"/>
		<path id="Path 578" class="s21" d="m156 482l5-3v2l-3 1z"/>
		<path id="Path 579" class="s23" d="m610 484l8-2 1-3 6 3-1 12h-1-10l-3-7z"/>
		<path id="Path 580" class="s70" d="m743 481l7-2v6h-7z"/>
		<path id="Path 581" class="s19" d="m194 482l3-2h5v6l-4 3-4-1z"/>
		<path id="Path 582" class="s35" d="m202 486v-6h5v6z"/>
		<path id="Path 583" class="s13" d="m726 486v-6h4v3l3-1h3v11h-5z"/>
		<path id="Path 584" class="s49" d="m736 482l4-2 3 1v4 9l6 2 3-2v-9l6-2v1l2 10-3 13-3 1-4-5h-5l-1-4h-4l-4-6z"/>
		<path id="Path 585" class="s35" d="m818 492l-4-12 8 2v10z"/>
		<path id="Path 586" class="s15" d="m158 482l3-1h1l9 9-7 5 2 11-6 8h-4v-6l-8-2v-11l-5-4 3-3z"/>
		<path id="Path 587" class="s76" d="m478 488l-7-1 3-6 4 1z"/>
		<path id="Path 588" class="s71" d="m671 483l3-2h3l5 3 1 16-7-1h-3l-3-7z"/>
		<path id="Path 589" class="s4" d="m146 487l10-5h2l-12 6z"/>
		<path id="Path 590" class="s45" d="m287 502l-7-9-6-1v-7l4-3h8l5 8 8 3-6 9z"/>
		<path id="Path 591" class="s62" d="m358 484l10 1 6-3 2 10h-16l-4-4v-2z"/>
		<path id="Path 592" class="s23" d="m478 488v-6h10l2 5v3l-10 8z"/>
		<path id="Path 593" class="s64" d="m490 487l4-5h6l2 6v6h6v6l-2 4h-10l-1-4-4 4-8 1-3-7 10-8z"/>
		<path id="Path 594" class="s71" d="m624 494l1-12h6l-1 10-2 2z"/>
		<path id="Path 595" class="s19" d="m839 486l1-4h4l1 4z"/>
		<path id="Path 596" class="s67" d="m426 490l4-2v-5h4l4 7v8l4 3v3l-12 1-4-3v-6z"/>
		<path id="Path 597" class="s12" d="m592 485l10-1v6l-3 4h-4l-5-6z"/>
		<path id="Path 598" class="s23" d="m682 484l2-1 2 1-2 12 6 5v6l-6-1-1-6z"/>
		<path id="Path 599" class="s68" d="m334 492v-8l14 2v3l-4 3z"/>
		<path id="Path 600" class="s57" d="m348 486l5-2 3 2v2l-6 1h-2z"/>
		<path id="Path 601" class="s71" d="m502 488l6-4h5l9 14h-8l-2-4h-4-6z"/>
		<path id="Path 602" class="s29" d="m602 490v-6h6 2v3l-2 3z"/>
		<path id="Path 603" class="s88" d="m690 507v-6l-6-5 2-12h12l-1 4 1 9 6 5v8z"/>
		<path id="Path 604" class="s26" d="m697 488l1-4h5l1 3z"/>
		<path id="Path 605" class="s71" d="m532 506l1-9-5-6v-6l4 3 8-1 4 2-1 6-6 5v7l-4 2z"/>
		<path id="Path 606" class="s88" d="m722 486l2-1 1 1v6h-3z"/>
		<path id="Path 607" class="s41" d="m752 485v9l-3 2-6-2v-9h7z"/>
		<path id="Path 608" class="s56" d="m198 489l4-3h5 1l-1 7-9 1z"/>
		<path id="Path 609" class="s83" d="m207 493l1-7h9l3 13-10 3z"/>
		<path id="Path 610" class="s62" d="m306 493l2-7h16l3 5-3 6 3 5-8-1-6 2-6 1z"/>
		<path id="Path 611" class="s75" d="m725 492v-6h1l5 7h5l4 6v4h-14v-5z"/>
		<path id="Path 612" class="s36" d="m822 492l17-6h6l9 1 2 4 5 1v6l11 7v7l-4 4v11l4 2 2 7h6v13l-10 5h-4l-3-6h-9l-2-5-15-1-2-4h-7v-24l-14-6v-12l4-4z"/>
		<path id="Path 613" class="s7" d="m138 492l8-5v1l-3 3-3 1z"/>
		<path id="Path 614" class="s57" d="m454 490l7-3 9 11v8 2l-7-2-6-3-3-2z"/>
		<path id="Path 615" class="s56" d="m571 493l3-6 9 1-3 8h-7z"/>
		<path id="Path 616" class="s13" d="m608 490l2-3 3 7-4 1z"/>
		<path id="Path 617" class="s67" d="m697 488l7-1 11 1 1 6 4 1v3l-3 6-1 1h-4l-2-3h-6l-6-5z"/>
		<path id="Path 618" class="s5" d="m887 492l5-5-1 5-4 2z"/>
		<path id="Path 619" class="s38" d="m171 490l5-2h4v6 8l-2 4h-12l-2-11z"/>
		<path id="Path 620" class="s37" d="m180 494v-6h12v5l-3 2z"/>
		<path id="Path 621" class="s24" d="m192 493v-5h2l4 1v5z"/>
		<path id="Path 622" class="s75" d="m350 489l6-1 4 4v6h-10z"/>
		<path id="Path 623" class="s79" d="m580 496l3-8h7l5 6-3 7-4 7-8-2z"/>
		<path id="Path 624" class="s80" d="m652 492l3-4h9l2 12h-12z"/>
		<path id="Path 625" class="s79" d="m344 492l4-3h2v9 1h-6z"/>
		<path id="Path 626" class="s84" d="m537 507v-7l6-5 1-6h4l6 2 5-2 11 4-2 10-9 2v6l4 3-1 4-8 3v-6l-5-1-1-4-4 1z"/>
		<path id="Path 627" class="s70" d="m450 501v-11h4v11z"/>
		<path id="Path 628" class="s31" d="m599 494l3-4h6l1 5-3 2z"/>
		<path id="Path 629" class="s10" d="m140 492l3-1 5 4v11l-4 6h-5l-3-4-2-5v-7z"/>
		<path id="Path 630" class="s75" d="m327 502l-3-5 3-6 5 1v10z"/>
		<path id="Path 631" class="s6" d="m133 494l5-2h2l-6 4h-2z"/>
		<path id="Path 632" class="s63" d="m332 502v-10h2 10v7l-3 1-5-1-1 3z"/>
		<path id="Path 633" class="s63" d="m360 498v-6h16v8l9 8-7 6-4-2-3-4h-5l-4-2z"/>
		<path id="Path 634" class="s70" d="m628 494l2-2 6 2v5l5 6-3 3-9 2h-1v-7z"/>
		<path id="Path 635" class="s71" d="m636 494l8-2h2l1 11-3 2h-3l-5-6z"/>
		<path id="Path 636" class="s87" d="m644 505l3-2-1-11h6l2 8h12l7-1h3l3 7h5l6 1 14 3h7l1 8-4 2-13-2-3 1-6-2-17 3-4-7-5-6-7 3h-7-2z"/>
		<path id="Path 637" class="s72" d="m720 495l2-3h3l1 6h-6z"/>
		<path id="Path 638" class="s37" d="m872 505l-11-7v-6h8l8 8z"/>
		<path id="Path 639" class="s6" d="m882 500l4-8h1v2l-1 1-2 2 3 8 1 4v1l-2-1z"/>
		<path id="Path 640" class="s46" d="m189 495l3-2 6 1-1 8-8-1z"/>
		<path id="Path 641" class="s41" d="m198 494l9-1 3 9v11l-3 5h-7l-3-16z"/>
		<path id="Path 642" class="s79" d="m293 502l6-9h7l1 11-5 1-1 4h-5l-3-2z"/>
		<path id="Path 643" class="s71" d="m568 503l2-10h1l2 3h7v10l8 2v10h-6l-4-2-1-6-8-1z"/>
		<path id="Path 644" class="s16" d="m124 499l9-5-1 2z"/>
		<path id="Path 645" class="s35" d="m180 502v-8l9 1v6z"/>
		<path id="Path 646" class="s58" d="m222 499l5-5h8l3 7 10 1v11l-4 1v26l-2 2-9 2v14h-4l-5-7v-12l5-1 1-4-2-7-7-6z"/>
		<path id="Path 647" class="s73" d="m391 503l3-9 32 2v6l-8 2h-13-9z"/>
		<path id="Path 648" class="s85" d="m508 500v-6h4l2 4-2 2z"/>
		<path id="Path 649" class="s76" d="m592 501l3-7h4l7 3v5z"/>
		<path id="Path 650" class="s84" d="m609 495l4-1h10l-4 9v6l4 2-1 1h-6l-2-4h-6l-2-6v-5z"/>
		<path id="Path 651" class="s69" d="m619 503l4-9h1 4v9z"/>
		<path id="Path 652" class="s24" d="m124 499l8-3h2v7l-2 1h-8l-2 4h-3z"/>
		<path id="Path 653" class="s59" d="m248 502l4-4h8l12 4v10l6 2 2 2-4 26-4 3-8-1-4-3-1-12-7-7v-8l-4-1z"/>
		<path id="Path 654" class="s61" d="m350 499v-1h10l2 8 4 2v8l-7 1-1-1v-8l-6-2z"/>
		<path id="Path 655" class="s48" d="m512 500l2-2h8l2 8-3 4h-5l-4-4z"/>
		<path id="Path 656" class="s82" d="m717 504l3-6h6v5l-2 1z"/>
		<path id="Path 657" class="s16" d="m114 507h4l1-6 5-2-5 9-5 1h-1v-1z"/>
		<path id="Path 658" class="s59" d="m210 502l10-3h2l-1 22 7 6 2 7-1 4-5 1-7-1-3-8 1-6-8-4v-2l3-5z"/>
		<path id="Path 659" class="s41" d="m335 502l1-3 5 1-1 6h-5z"/>
		<path id="Path 660" class="s60" d="m341 500l3-1h6l2 7-3 10-5 1 1 9v2l-3 2h-2l-8-14 3-10h5z"/>
		<path id="Path 661" class="s67" d="m684 506h-5l-3-7 7 1z"/>
		<path id="Path 662" class="s57" d="m740 503v-4h4l1 4-1 4h-4z"/>
		<path id="Path 663" class="s71" d="m491 504l4-4 1 4-1 1z"/>
		<path id="Path 664" class="s89" d="m506 504l2-4h4v6h-4z"/>
		<path id="Path 665" class="s32" d="m872 505l5-5h5l4 9-14 3z"/>
		<path id="Path 666" class="s13" d="m180 502l9-1 8 1 3 16-3 9-4 5-3 2-6 1-2-5v-15l-4-9z"/>
		<path id="Path 667" class="s49" d="m313 503l6-2v7h-5z"/>
		<path id="Path 668" class="s50" d="m319 508v-7l8 1h5 3v4l-3 10-6-2z"/>
		<path id="Path 669" class="s48" d="m442 504v-3h8 4l3 2-1 5-4 3-6 1-4-3z"/>
		<path id="Path 670" class="s64" d="m588 508l4-7 14 1 2 6v6l-5 2 2 8-2 4-7-5-6 2-1-1-1-6z"/>
		<path id="Path 671" class="s58" d="m278 514l-6-2v-10l8 2v8z"/>
		<path id="Path 672" class="s58" d="m289 509l-3-2 1-5h6v5z"/>
		<path id="Path 673" class="s18" d="m418 504l8-2 4 3v11l-8 10h-6l-2-5 1-5z"/>
		<path id="Path 674" class="s82" d="m704 510v-8h6l2 3v5h-1z"/>
		<path id="Path 675" class="s68" d="m726 503h14v4l-2 3h-4l-1-4-9 1v-3z"/>
		<path id="Path 676" class="s17" d="m132 504l2-1 2 5h-4z"/>
		<path id="Path 677" class="s45" d="m307 504l6-1 1 5-4 6-4 2-5-2v-5l1-4z"/>
		<path id="Path 678" class="s24" d="m389 508l2-5 5 1v6h-4z"/>
		<path id="Path 679" class="s51" d="m405 504h13l-3 12-5-9h-5z"/>
		<path id="Path 680" class="s76" d="m456 508l1-5 6 3z"/>
		<path id="Path 681" class="s24" d="m563 514l-4-3v-6l9-2 1 6-3 4z"/>
		<path id="Path 682" class="s24" d="m623 511l-4-2v-6h9v7z"/>
		<path id="Path 683" class="s47" d="m744 507l1-4h5l4 5v4h-5z"/>
		<path id="Path 684" class="s39" d="m122 508l2-4h8v4 8l-2 2h-6z"/>
		<path id="Path 685" class="s26" d="m396 510v-6h9v3l-1 3z"/>
		<path id="Path 686" class="s69" d="m430 505l12-1v5l-3 3 1 8-9 4-2 11-5 1-2-10 8-10z"/>
		<path id="Path 687" class="s23" d="m495 505l1-1h10l2 2-5 16 11 4v5l-3 3h-5v-7l-7-7h-4z"/>
		<path id="Path 688" class="s90" d="m716 505l1-1h7v3l-1 2-5 1-2-1z"/>
		<path id="Path 689" class="s38" d="m758 538h8l3 4 9-2-3-13 7-3v-6l-4-3 1-11 5 2v8l4 3 2 11v12l-4 1-2 7-11 2-1 6-33-16-1-12h6l7 10z"/>
		<path id="Path 690" class="s91" d="m638 508l3-3h3v5z"/>
		<path id="Path 691" class="s31" d="m712 510v-5h4v4z"/>
		<path id="Path 692" class="s5" d="m888 509l-1-4 2 4z"/>
		<path id="Path 693" class="s71" d="m144 512l4-6 8 2v6l-7 2h-5z"/>
		<path id="Path 694" class="s37" d="m160 514l6-8h12l4 9v15h-4l-12-2z"/>
		<path id="Path 695" class="s78" d="m349 516l3-10 6 2v8h-6z"/>
		<path id="Path 696" class="s89" d="m456 508l7-2 7 2 4 10-2 2-6 3-10 2-4-1v-13z"/>
		<path id="Path 697" class="s64" d="m470 508v-2l14 4 8 12v10h-5l-3-2v-6l-6-6h-4z"/>
		<path id="Path 698" class="s69" d="m514 526l-11-4 5-16h4l4 4z"/>
		<path id="Path 699" class="s64" d="m516 510h5l3-4h8l1 3-1 15-4 3v13h-4l-2-2-3-7h-5v-5z"/>
		<path id="Path 700" class="s56" d="m724 507l9-1 1 4h-4l-2 4h-4l-1-5z"/>
		<path id="Path 701" class="s70" d="m289 509l4-2 3 2v9h-4v4l-7 4v3l-5 7v6h-4l4-26 2-4h6z"/>
		<path id="Path 702" class="s13" d="m404 510l1-3h5l5 9-1 5-10-3z"/>
		<path id="Path 703" class="s76" d="m533 509l4-2 7 4v7l-3 4-3 4-1 8-7 6h-2v-13l4-3z"/>
		<path id="Path 704" class="s69" d="m653 510l7-3 5 6-8 1-3-1z"/>
		<path id="Path 705" class="s55" d="m738 510l2-3h4l5 5h5l3 1-1 9-12 2-4-2z"/>
		<path id="Path 706" class="s15" d="m114 509l5-1h3l2 10-4 1-9-1-1 8-2-1v-1-10z"/>
		<path id="Path 707" class="s35" d="m132 516v-8h4l3 4z"/>
		<path id="Path 708" class="s57" d="m310 514l4-6h5l7 6-4 7-3-3h-7z"/>
		<path id="Path 709" class="s41" d="m366 516v-8h5l3 4-2 4z"/>
		<path id="Path 710" class="s51" d="m378 514l7-6h4l3 2v8 8l-11-1-4-5z"/>
		<path id="Path 711" class="s89" d="m608 514v-6h6l2 4 1 8h-2z"/>
		<path id="Path 712" class="s92" d="m629 510l9-2 6 2h2l-1 12-5 1h-8l3 7v8l-4 5h-5l-3-7-6 2-5-5v-7h3v-6h2 5l7-1z"/>
		<path id="Path 713" class="s25" d="m108 514l5-5h1z"/>
		<path id="Path 714" class="s60" d="m296 518v-9h5v5l5 2v4l-8 1z"/>
		<path id="Path 715" class="s29" d="m440 520l-1-8 3-3 4 3 6-1v13l4 1v5l-6 3-4 1-6-3z"/>
		<path id="Path 716" class="s70" d="m566 513l3-4 8 1 1 6-3 1z"/>
		<path id="Path 717" class="s43" d="m712 510l4-1 2 1v9h-5l-1-1-1-8z"/>
		<path id="Path 718" class="s79" d="m718 510l5-1 1 5h4v10h-3-5l-2-5z"/>
		<path id="Path 719" class="s35" d="m872 512l14-3 2 1 2 4 2 8-8 1v13h-4-6l-2-7-4-2v-11z"/>
		<path id="Path 720" class="s25" d="m888 510v-1h1l2 5h-1z"/>
		<path id="Path 721" class="s14" d="m392 518v-8h4 8v8z"/>
		<path id="Path 722" class="s41" d="m544 511l4-1 1 4-1 4h-4z"/>
		<path id="Path 723" class="s87" d="m623 511l5-1h1v9l-7 1v-8z"/>
		<path id="Path 724" class="s89" d="m645 522l1-12h7l1 3v5l-3 1v4h-5z"/>
		<path id="Path 725" class="s41" d="m728 514l2-4h4 4l2 12-5 4-9 1-1-3h3z"/>
		<path id="Path 726" class="s56" d="m132 516l7-4h5v4 12h-1-14l1-10z"/>
		<path id="Path 727" class="s57" d="m278 514l2-2h2l-2 4z"/>
		<path id="Path 728" class="s13" d="m372 516l2-4 4 2-1 6z"/>
		<path id="Path 729" class="s77" d="m617 520l-1-8h6v8z"/>
		<path id="Path 730" class="s78" d="m244 540v-26l4-1 4 1v8l7 7 1 12 4 3v12h-7l-7-4v-10z"/>
		<path id="Path 731" class="s76" d="m563 514l3-1 9 4v6l7 1 4 2v4l-5 2-12-4-1 13-11-1 2 10 6 4-3 7h-5l-2-6h-5v-6l-6-6v-1h5l4-5-1-12 2-4 8-3z"/>
		<path id="Path 732" class="s76" d="m654 518v-5l3 1v4z"/>
		<path id="Path 733" class="s31" d="m657 514l8-1 4 7-4 1-6 1-2-4z"/>
		<path id="Path 734" class="s9" d="m108 524l-2-1 2-9z"/>
		<path id="Path 735" class="s13" d="m149 516l7-2h4l6 14v5l-6 1-7-6z"/>
		<path id="Path 736" class="s78" d="m306 516l4-2 2 4v12l-1 2-3-3-2-9z"/>
		<path id="Path 737" class="s79" d="m322 521l4-7 6 2 8 14-9 3-6-6z"/>
		<path id="Path 738" class="s69" d="m548 518l1-4 5 1v6l-2 4-4-1z"/>
		<path id="Path 739" class="s41" d="m605 524l-2-8 5-2 7 6v6h-3z"/>
		<path id="Path 740" class="s2" d="m892 522l-2-8h1l3 3v8h-2z"/>
		<path id="Path 741" class="s49" d="m144 528v-12h5l4 12 7 6v5l5 4-1 1-10-2-7-10z"/>
		<path id="Path 742" class="s70" d="m345 526l-1-9 5-1h3v6z"/>
		<path id="Path 743" class="s75" d="m352 522v-6h6l1 1-5 5z"/>
		<path id="Path 744" class="s26" d="m359 517l7-1h6l5 4 4 5 11 1 2 18h-2l-13-3-1 8-6 4v9l4 2v6l-1 2-7 4-8-10-9-2-3-7 4-3v-14l2-8v-10z"/>
		<path id="Path 745" class="s41" d="m575 517l3-1 4 2v6l-7-1z"/>
		<path id="Path 746" class="s15" d="m686 517l6 2 3 1 1 4-4 1h-1l-5-1z"/>
		<path id="Path 747" class="s51" d="m669 520l17-3v7l-2 1h-1l-6 1h-5-4l-3-5z"/>
		<path id="Path 748" class="s36" d="m110 526l1-8 9 1 4 11-9 4z"/>
		<path id="Path 749" class="s71" d="m120 519l4-1h6l-1 10-3 2h-2z"/>
		<path id="Path 750" class="s58" d="m197 527l3-9h7v2l-5 8z"/>
		<path id="Path 751" class="s41" d="m292 522v-4h4l2 3-1 3z"/>
		<path id="Path 752" class="s55" d="m312 530v-12h7l3 3 3 6z"/>
		<path id="Path 753" class="s93" d="m392 526v-8h12l10 3 2 5h6l2 10v8h-5l-2 4h-7l-2-4h-8-6z"/>
		<path id="Path 754" class="s80" d="m472 520l2-2h4l6 6v6l3 2-1 4-9 5-3-7-2-10z"/>
		<path id="Path 755" class="s48" d="m541 522l3-4h4v6h-7z"/>
		<path id="Path 756" class="s24" d="m582 524v-6h6l1 6-3 2z"/>
		<path id="Path 757" class="s67" d="m651 523v-4l3-1h3l2 4-2 3z"/>
		<path id="Path 758" class="s18" d="m692 519l3-1v2z"/>
		<path id="Path 759" class="s26" d="m695 520v-2l13 2 4-2 1 1-1 7h-6-4l-6-2z"/>
		<path id="Path 760" class="s33" d="m713 519h5l2 5h5l1 3-1 4h-3l-7-4-3-1z"/>
		<path id="Path 761" class="s94" d="m202 528l5-8 8 4-1 6-12 2z"/>
		<path id="Path 762" class="s63" d="m298 521l8-1 2 9-6 7h-8v-2l3-10z"/>
		<path id="Path 763" class="s31" d="m424 536l5-1 2-11 9-4v11l6 3 2 5v6l-3 5-2 3-9 1h-2v-5l-5-2-3-3z"/>
		<path id="Path 764" class="s69" d="m466 523l6-3v4z"/>
		<path id="Path 765" class="s89" d="m492 522l3-2h4l7 7v7l-6 3v3h-8v-8z"/>
		<path id="Path 766" class="s26" d="m659 522l6-1 3 5-5 3h-3l-3-4z"/>
		<path id="Path 767" class="s60" d="m285 529v-3l7-4 5 2-3 10h-4z"/>
		<path id="Path 768" class="s24" d="m345 526l7-4h2v10h-8l-1-4z"/>
		<path id="Path 769" class="s41" d="m538 526l3-4v2z"/>
		<path id="Path 770" class="s48" d="m635 530l-3-7h8v5z"/>
		<path id="Path 771" class="s26" d="m640 523l5-1 1 1v5h-6z"/>
		<path id="Path 772" class="s36" d="m735 526l5-4 4 2v4h-6z"/>
		<path id="Path 773" class="s32" d="m744 524l12-2 2 16h-7l-7-10z"/>
		<path id="Path 774" class="s32" d="m884 536v-13l8-1v3 4 11h-5z"/>
		<path id="Path 775" class="s67" d="m456 525l10-2 6 1 2 10-11 1-7-5z"/>
		<path id="Path 776" class="s91" d="m590 525l6-2 7 5v6l9-1 5 5-2 10h-6l-1 4-4 10-4-1v-7h-7v-4l-5-4v-6l3-1z"/>
		<path id="Path 777" class="s64" d="m646 528v-5h5l6 2 3 4-14 4z"/>
		<path id="Path 778" class="s68" d="m538 526l3-2h7l4 1 1 12-4 5h-5v-6l-7-2z"/>
		<path id="Path 779" class="s83" d="m586 526l3-2 1 1 1 14-3 1-7-2v-6l5-2z"/>
		<path id="Path 780" class="s60" d="m603 528l2-4 7 2v7l-9 1z"/>
		<path id="Path 781" class="s65" d="m684 525l2-1 5 1z"/>
		<path id="Path 782" class="s80" d="m692 525l4-1 6 2h-4z"/>
		<path id="Path 783" class="s16" d="m115 540l-2-6-4-2-1-7 2 1 5 8 4 9-4-1z"/>
		<path id="Path 784" class="s27" d="m677 526l6-1h1l-12 2v-1z"/>
		<path id="Path 785" class="s0" d="m698 527l-7-2h1l6 1z"/>
		<path id="Path 786" class="s6" d="m892 529v-4h2v4z"/>
		<path id="Path 787" class="s9" d="m663 529l5-3h4v1l-9 3z"/>
		<path id="Path 788" class="s27" d="m698 527v-1h4 4v1z"/>
		<path id="Path 789" class="s42" d="m706 527v-1h6l3 1h-1z"/>
		<path id="Path 790" class="s32" d="m726 527l9-1 3 2 1 12h-1-1l-12-9z"/>
		<path id="Path 791" class="s67" d="m193 532l4-5 5 1v4 2z"/>
		<path id="Path 792" class="s44" d="m312 530l13-3 6 6-1 6-4 3h-8l-5 1-2-6v-5z"/>
		<path id="Path 793" class="s4" d="m722 532l-8-5h1l7 4z"/>
		<path id="Path 794" class="s44" d="m126 530l3-2h14l1 4h3l7 10 10 2 3 8 1 5 7 5v10h-2-5l-6-8h-9-9l-2-4v-19z"/>
		<path id="Path 795" class="s45" d="m147 532h-3l-1-4h1z"/>
		<path id="Path 796" class="s36" d="m166 533v-5l12 2v8h-7z"/>
		<path id="Path 797" class="s17" d="m342 530l3-2 1 4z"/>
		<path id="Path 798" class="s64" d="m568 541l1-13 12 4v6h-6l-7 6z"/>
		<path id="Path 799" class="s31" d="m635 530l5-2h6v5l-1 3-1 5 1 2-7-1-3-4z"/>
		<path id="Path 800" class="s36" d="m790 540v-12h23l8 8-1 21 14 9v20h-3-2l-6-1h-1l-11-5-11-5-2-2 2-18-10-7z"/>
		<path id="Path 801" class="s68" d="m280 542v-6l5-7 5 5-5 4v5h-3z"/>
		<path id="Path 802" class="s94" d="m302 536l6-7 3 3v5l-3 3h-3z"/>
		<path id="Path 803" class="s7" d="m646 533l14-4h3v1l-17 6h-1z"/>
		<path id="Path 804" class="s95" d="m892 540v-11h2v18h-2z"/>
		<path id="Path 805" class="s12" d="m115 534l9-4h2l16 11v19l-8 1-10-1-6-4-7 1-5-5h-6l-3-8v-4l4-2 14 4 4 1z"/>
		<path id="Path 806" class="s46" d="m178 538v-8h4l2 5v2z"/>
		<path id="Path 807" class="s75" d="m202 532l12-2 3 8 1 10-14 4v-4l-2-14z"/>
		<path id="Path 808" class="s15" d="m331 533l9-3h2l4 2v6l6 2v14l-4 3-16 2v-5l4-2v-9l-6-4z"/>
		<path id="Path 809" class="s48" d="m450 533l6-3 7 5-1 6-12-3z"/>
		<path id="Path 810" class="s91" d="m511 534l3-3h5l3 7-4 1-5-1z"/>
		<path id="Path 811" class="s2" d="m722 532v-1h3l12 9z"/>
		<path id="Path 812" class="s63" d="m190 534l3-2 9 2 2 14h-6l-4-6h-4v-5z"/>
		<path id="Path 813" class="s10" d="m352 540l-6-2v-6h8z"/>
		<path id="Path 814" class="s73" d="m486 536l1-4h5v8l-3 1v-4z"/>
		<path id="Path 815" class="s46" d="m160 534l6-1 5 5-1 5h-5l-5-4z"/>
		<path id="Path 816" class="s67" d="m446 534l4-1v5l-2 1z"/>
		<path id="Path 817" class="s16" d="m93 536l6-1v1z"/>
		<path id="Path 818" class="s71" d="m184 535l6-1v3h-6z"/>
		<path id="Path 819" class="s75" d="m285 543v-5l5-4h4v2 8l-6 1z"/>
		<path id="Path 820" class="s89" d="m463 535l11-1 3 7 1 5h6v9l-4 1v10h-7l-1 5-3 2-1 10 4 3v4l-3 1v4l5 1v9h-11l-10-10 3-13-6-1v-9l1-1 7-1v-9l-10-1-5-7 2-3 4-2-1-3v-6l2-1 12 3z"/>
		<path id="Path 821" class="s67" d="m500 540v-3l6-3h5l2 4 5 1 1 7-2 5 7 5-2 5-6 3h-5l-5-8v-11z"/>
		<path id="Path 822" class="s71" d="m530 540l7-6 7 2v6 1l-8 1z"/>
		<path id="Path 823" class="s9" d="m89 537l3-1-3 5h-1v-3z"/>
		<path id="Path 824" class="s25" d="m99 536v-1l16 5v2l-14-4z"/>
		<path id="Path 825" class="s24" d="m89 541l3-5h1 6l2 2-4 2v4h-9v-2z"/>
		<path id="Path 826" class="s96" d="m294 544v-8h8l3 4-3 4z"/>
		<path id="Path 827" class="s69" d="m477 541l9-5 3 1v4l-5 5h-6z"/>
		<path id="Path 828" class="s73" d="m617 538l6-2 3 7 2 8-1 1h-11l-1-4z"/>
		<path id="Path 829" class="s1" d="m644 541l1-5h1l1 5z"/>
		<path id="Path 830" class="s5" d="m88 537h1v1h-1z"/>
		<path id="Path 831" class="s60" d="m178 538l6-1h6v5l-6 7h4l2 9-2 4h-4-2l-5-16-4-1-3-2 1-5z"/>
		<path id="Path 832" class="s68" d="m308 540l3-3 2 6-1 2h-2z"/>
		<path id="Path 833" class="s54" d="m218 548l-1-10 7 1v12z"/>
		<path id="Path 834" class="s76" d="m518 539l4-1 2 2v6h-5z"/>
		<path id="Path 835" class="s92" d="m568 544l7-6h6l7 2v6l5 4v4 8l-2 2h-3l-6-5v-7l-8-2-4 5v8l5 3v5l-5 1-8-11 3-7 5-2z"/>
		<path id="Path 836" class="s23" d="m626 543h5l4-5 3 4-10 9z"/>
		<path id="Path 837" class="s19" d="m326 542l4-3 6 4v9l-4 2-6-2z"/>
		<path id="Path 838" class="s69" d="m565 554l-6-4-2-10 11 1v3l2 8z"/>
		<path id="Path 839" class="s62" d="m242 542l2-2 6 2v10l-2 8h-1-4z"/>
		<path id="Path 840" class="s63" d="m302 544l3-4h3l2 5-2 9h-5z"/>
		<path id="Path 841" class="s91" d="m489 541l3-1h8l6 5v11l5 8v2 5l11 11-1 6h-5l-1-8-9-2-7-4-3-8-8-2-4-9v-9z"/>
		<path id="Path 842" class="s85" d="m524 546v-6h4 2l6 4 8-1 6 6v6l-6 5h-12l-6-4z"/>
		<path id="Path 843" class="s21" d="m775 560l-35-16-2-4h1l33 16 3 3z"/>
		<path id="Path 844" class="s37" d="m772 556l1-6 11-2 2-7 4-1v8l10 7-2 18-10-7-5-3h-1l-7-4z"/>
		<path id="Path 845" class="s39" d="m868 578l8-8 1-9 8-8 2-13h5v7 4l-5 13-10 19-4 3h-1-4z"/>
		<path id="Path 846" class="s6" d="m88 541h1v1h-1z"/>
		<path id="Path 847" class="s43" d="m378 549l1-8 13 3v10h-9v-3z"/>
		<path id="Path 848" class="s4" d="m645 543l-1-2h3l12 6 1 2z"/>
		<path id="Path 849" class="s94" d="m190 558l-2-9h-4l6-7h4l4 6h6v4l1 10h-11z"/>
		<path id="Path 850" class="s75" d="m233 558v-14l9-2 1 18-2 2h-5z"/>
		<path id="Path 851" class="s75" d="m272 545l4-3h4l2 1v5l-10 1z"/>
		<path id="Path 852" class="s32" d="m313 543l5-1v6h-5l-1-3z"/>
		<path id="Path 853" class="s12" d="m318 548v-6h8v10h-3z"/>
		<path id="Path 854" class="s51" d="m628 551l10-9 7 1 15 6 2 3h-6l-9-1-5 14-6 3v-4l-9-5v-7z"/>
		<path id="Path 855" class="s83" d="m164 544l1-1h5l3 2-6 7z"/>
		<path id="Path 856" class="s58" d="m282 548v-5h3l3 2-2 6h-4z"/>
		<path id="Path 857" class="s36" d="m88 548v-4h9l3 8-2 7-8-8z"/>
		<path id="Path 858" class="s57" d="m264 556v-12l8 1v4l-4 8-3 1z"/>
		<path id="Path 859" class="s86" d="m288 545l6-1h8l1 10-1 12 4 4-4 25-10-3-2-9-14-3-1-6v-3l5-2v-9l-3-3 5-6h4z"/>
		<path id="Path 860" class="s18" d="m392 554v-10h2 6v11l4 3v4h-2-9z"/>
		<path id="Path 861" class="s71" d="m404 558l-4-3v-11h8l2 4v8z"/>
		<path id="Path 862" class="s71" d="m417 548l2-4h5l3 3-3 7z"/>
		<path id="Path 863" class="s75" d="m167 552l6-7 4 1 5 16h-7l-7-5z"/>
		<path id="Path 864" class="s69" d="m308 554l2-9h2l1 3h5l5 4v3l-7-1 2 10h-4l-6-5z"/>
		<path id="Path 865" class="s87" d="m445 550l3-5 1 3z"/>
		<path id="Path 866" class="s91" d="m524 556l-7-5 2-5h5l2 10z"/>
		<path id="Path 867" class="s69" d="m424 554l3-7 5 2v5l-8 2z"/>
		<path id="Path 868" class="s5" d="m660 549l-1-2 2 2z"/>
		<path id="Path 869" class="s1" d="m892 551v-4h2l-2 5z"/>
		<path id="Path 870" class="s11" d="m88 550v-2l2 3z"/>
		<path id="Path 871" class="s78" d="m204 552l14-4 6 3 5 7-3 17-6 2-15-15z"/>
		<path id="Path 872" class="s94" d="m272 549l10-1v3l-5 6-3 3-6-3z"/>
		<path id="Path 873" class="s31" d="m404 558l6-2v-8h7l7 6v2l-1 10-3 4h-12v-5l-4-3z"/>
		<path id="Path 874" class="s88" d="m608 552l1-4h6l1 4z"/>
		<path id="Path 875" class="s73" d="m376 570v-6l-4-2v-9l6-4 5 2v3l1 15z"/>
		<path id="Path 876" class="s4" d="m662 552l-2-3h1l12 6 2 1 5 4 2 1 1 1 1 1 1 1v2z"/>
		<path id="Path 877" class="s7" d="m88 552v-2l2 1 8 8v1h-4z"/>
		<path id="Path 878" class="s88" d="m570 572l5-1v-5l-5-3v-8l4-5 8 2v7l6 5-2 9 2 2-1 4-4-3-5 1 2 11-2 2-8-2-3-12z"/>
		<path id="Path 879" class="s32" d="m636 568l6-3 5-14 9 1v7l-4 2-1 8 1 10-2 13-2 5h-6l-4-5 2-12-8-2-2-8z"/>
		<path id="Path 880" class="s8" d="m887 564l5-13v1l-1 8z"/>
		<path id="Path 881" class="s30" d="m98 559l2-7h6l5 5 1 11h-2l-5-3-7-5z"/>
		<path id="Path 882" class="s96" d="m248 560l2-8 7 4 3 5 5-3 3-1 6 3-1 7-3 1v5l5 1 1 6-2 8-4 6h-7l-1-4v-10l-4-3-1-9z"/>
		<path id="Path 883" class="s13" d="m323 555v-3h3l6 2v5h-5z"/>
		<path id="Path 884" class="s92" d="m604 562l4-10h8v12l-2 2h-7z"/>
		<path id="Path 885" class="s43" d="m616 564v-12h11v7l-5 2v3z"/>
		<path id="Path 886" class="s10" d="m656 559v-7h6v8z"/>
		<path id="Path 887" class="s53" d="m662 560v-8l23 14 3 3-2 6-12-9h-5l-3-6z"/>
		<path id="Path 888" class="s91" d="m434 554l9-1 5 7v4h-6-6z"/>
		<path id="Path 889" class="s73" d="m593 554h7v7l-7 1z"/>
		<path id="Path 890" class="s78" d="m306 570l-4-4 1-12h5v5l6 5v5 1z"/>
		<path id="Path 891" class="s84" d="m318 564l-2-10 7 1 4 4 1 4v1l-6 1v11h-2-4l-2-6v-1h4z"/>
		<path id="Path 892" class="s71" d="m384 569l-1-15h9l1 8-1 8z"/>
		<path id="Path 893" class="s85" d="m424 556l8-2h2l2 10v3h-8l-5-1z"/>
		<path id="Path 894" class="s85" d="m480 566v-10l4-1 4 9-1 3-4 1z"/>
		<path id="Path 895" class="s67" d="m544 560l6-5h5l2 6-4 4v8h-8z"/>
		<path id="Path 896" class="s19" d="m111 557l7-1 6 4 1 10-3 1v4l-5-2-5-5z"/>
		<path id="Path 897" class="s61" d="m265 558l-5 3-3-5h7z"/>
		<path id="Path 898" class="s87" d="m522 561l2-5h2l6 4v4h-8z"/>
		<path id="Path 899" class="s75" d="m274 560l3-3 3 3v9l-5 2-2-4z"/>
		<path id="Path 900" class="s51" d="m332 559l16-2 3 7-1 5-9 9h-2l-7-14-4-1-1-4z"/>
		<path id="Path 901" class="s59" d="m184 562h4l2-4 4 4v8l-8 1h-2z"/>
		<path id="Path 902" class="s57" d="m226 575l3-17h4l3 4h5l4 5 1 8-5 5-5 1-6-2z"/>
		<path id="Path 903" class="s15" d="m622 564v-3l5-2 9 5v4l-6 2-5 1z"/>
		<path id="Path 904" class="s51" d="m651 569l1-8 4-2 6 1h4l3 6v4l-14 2z"/>
		<path id="Path 905" class="s8" d="m775 560v-1l7 4z"/>
		<path id="Path 906" class="s7" d="m104 565l-6-5 7 5z"/>
		<path id="Path 907" class="s24" d="m125 570l-1-10 10 1v9l-2 2z"/>
		<path id="Path 908" class="s71" d="m134 561l8-1 2 4-2 9-8-3z"/>
		<path id="Path 909" class="s70" d="m241 562l2-2h4l-2 7z"/>
		<path id="Path 910" class="s94" d="m245 567l2-7h1l9 8 1 9 4 3v10l-22 2 1-12 5-5z"/>
		<path id="Path 911" class="s48" d="m448 564v-4l10 1v9l-7 1z"/>
		<path id="Path 912" class="s91" d="m532 564v-4h12l1 13-1 3h-4z"/>
		<path id="Path 913" class="s92" d="m516 564l6-3 2 3h8l8 12h4l4 16-4 3-4-10-14-1v-10l-7-3-3-5z"/>
		<path id="Path 914" class="s77" d="m553 573v-8l4-4h5l8 11-3 4-8 2z"/>
		<path id="Path 915" class="s80" d="m593 562l7-1 4 1 3 4-1 7v2l-13-4-2-7z"/>
		<path id="Path 916" class="s57" d="m175 572v-10h7 2v9l-1 1z"/>
		<path id="Path 917" class="s75" d="m194 570v-8h11l15 15-1 4-11 5h-6v-10z"/>
		<path id="Path 918" class="s29" d="m392 570l1-8h9v10h-6z"/>
		<path id="Path 919" class="s84" d="m402 572v-10h2l4 3v5 2z"/>
		<path id="Path 920" class="s63" d="m153 564h9l6 8-6 5-8-4z"/>
		<path id="Path 921" class="s93" d="m328 564v-1l4 1 7 14 1 8-2 3-9-6-2-7z"/>
		<path id="Path 922" class="s2" d="m787 567h-3l-1-4 5 3z"/>
		<path id="Path 923" class="s69" d="m142 573l2-9h9l1 9-4 1 4 11-1 8-5-1-5-2-3-4h3l-2-5z"/>
		<path id="Path 924" class="s48" d="m314 569v-5h4v5z"/>
		<path id="Path 925" class="s81" d="m322 576v-11l6-1-1 12z"/>
		<path id="Path 926" class="s73" d="m341 578l9-9 1-5 9 2 8 10-4 2v7l-4 3h-4l-3-7-10 1z"/>
		<path id="Path 927" class="s62" d="m436 567v-3h6v8h-2z"/>
		<path id="Path 928" class="s70" d="m442 572v-8h6l3 7-1 1z"/>
		<path id="Path 929" class="s71" d="m487 567l1-3 8 2 3 8h-4z"/>
		<path id="Path 930" class="s83" d="m511 566v-2h5v2z"/>
		<path id="Path 931" class="s74" d="m588 575l-2-2 2-9h3l2 7z"/>
		<path id="Path 932" class="s51" d="m614 566l2-2h6l3 7-2 12-3 1h-6l-2-13z"/>
		<path id="Path 933" class="s21" d="m685 566v-2l9 8-6-3z"/>
		<path id="Path 934" class="s7" d="m877 583l10-19-6 16-2 2-1 1z"/>
		<path id="Path 935" class="s0" d="m110 570l-6-5h1l5 3z"/>
		<path id="Path 936" class="s57" d="m420 570l3-4 5 1 1 8-9 1z"/>
		<path id="Path 937" class="s69" d="m472 571l1-5h7l3 2-2 4z"/>
		<path id="Path 938" class="s73" d="m521 588l1-6-11-11v-5h5l3 5 7 3v10l-1 4 5 2v8h-4l-2-2v-7z"/>
		<path id="Path 939" class="s29" d="m606 573l1-7h7l-2 5z"/>
		<path id="Path 940" class="s33" d="m669 570v-4h5l12 9 4 4-1 5 7 3 4 3 2 8h6l2 1v1 9 4h-3l-2-5h-15v-7l-12-8-3-6 1-6-6-4z"/>
		<path id="Path 941" class="s25" d="m787 567l1-1 10 7 2 2h-2l-5-1z"/>
		<path id="Path 942" class="s83" d="m275 574l-5-1v-5l3-1 2 4z"/>
		<path id="Path 943" class="s67" d="m420 576l9-1-1-8h8l4 5-1 9-4 4-6 1h-4l-7-2v-6z"/>
		<path id="Path 944" class="s67" d="m483 568l4-1 8 7-7 6h-4l-3-8z"/>
		<path id="Path 945" class="s4" d="m110 570v-2h2l5 5h-2z"/>
		<path id="Path 946" class="s84" d="m376 570l8-1 8 1 4 2v4h-14l-7-4z"/>
		<path id="Path 947" class="s39" d="m652 579l-1-10 4 3 14-2 1 7-3 1v5l3 4v9h-6v-4l-5-2 1-8z"/>
		<path id="Path 948" class="s51" d="m686 575l2-6 6 3 4 4 1 2-7 1h-2z"/>
		<path id="Path 949" class="s74" d="m132 572l2-2 8 3-1 8z"/>
		<path id="Path 950" class="s86" d="m186 571l8-1 8 6v10l-4 1-2-3h-6v-9z"/>
		<path id="Path 951" class="s76" d="m302 595l4-25h8l2 6h4v10 8l4 3 2 11v8l-14-2-10-5z"/>
		<path id="Path 952" class="s76" d="m408 572v-2h12v6l-2 2h-7z"/>
		<path id="Path 953" class="s36" d="m625 571l5-1 2 8v12l6 2 4 5 1 8 15 4 1-3-11-9 2-5 9-2 5 2v4l-1 4 6 3 5 9v10l-4 5v11l-14-4-1-9-16-13h-7v-6-4l-6-3-6-5v-10l3-1z"/>
		<path id="Path 954" class="s70" d="m183 572l1-1h2l4 4v9l-2 8-4 1h-3l-1-9z"/>
		<path id="Path 955" class="s74" d="m472 586l-4-3 1-10 3-2 9 1 3 8h-7l-2 6z"/>
		<path id="Path 956" class="s69" d="m588 575l5-4 13 4v3h-5l-2 5-3 2-9-3v-3z"/>
		<path id="Path 957" class="s53" d="m606 573l6-2 2 13h-8v-6-3z"/>
		<path id="Path 958" class="s67" d="m154 573l8 4 6-5h5v10l7 2 1 9-3 8 4 2v1l-9-2-5-2-12-5h-2l-1-2 1-8-4-11z"/>
		<path id="Path 959" class="s62" d="m180 584l-7-2v-10h2 8z"/>
		<path id="Path 960" class="s85" d="m368 576l7-4 7 4v15h-4l-1 3-3 6 3 2-1 11-4 2-12-1-2-10 2-16 4-3v-7z"/>
		<path id="Path 961" class="s89" d="m396 576v-4h6 6l3 6h7v6l7 2v3h3l1-3 6-1 3 9 5 2v1l-6 8-1 7h-11l-6 5-11 1-2-8-6-4v-7l1-11-3-2z"/>
		<path id="Path 962" class="s91" d="m439 581l1-9h2 8v9l-5 4z"/>
		<path id="Path 963" class="s21" d="m698 576l-4-4 6 4z"/>
		<path id="Path 964" class="s21" d="m127 580l-12-7h2l5 2z"/>
		<path id="Path 965" class="s90" d="m544 576l1-3h8l6 5 4 17-9-1-6-2z"/>
		<path id="Path 966" class="s92" d="m488 580l7-6h4l7 4v14l-2 12-4 2-2-2v-10z"/>
		<path id="Path 967" class="s48" d="m220 577l6-2 4 4v3l-11-1z"/>
		<path id="Path 968" class="s16" d="m811 582l-13-7h2l11 5z"/>
		<path id="Path 969" class="s64" d="m320 586v-10h2 5l2 7-4 3z"/>
		<path id="Path 970" class="s91" d="m382 591v-15h14l2 10-5 1-2 4-9 1z"/>
		<path id="Path 971" class="s74" d="m559 578l8-2 3 12 8 2 2-2h9l-7 7-4 3-1 1-8 1-1-4h-5v-1z"/>
		<path id="Path 972" class="s64" d="m580 588l-2-11 5-1 4 3v3l9 3-7 3z"/>
		<path id="Path 973" class="s9" d="m699 578l-1-2h2v2z"/>
		<path id="Path 974" class="s7" d="m700 578v-2l7 9v1h-1l-3-4z"/>
		<path id="Path 975" class="s51" d="m670 587l-3-4v-5l3-1 6 4-1 6z"/>
		<path id="Path 976" class="s83" d="m340 586l-1-8h2l2 4z"/>
		<path id="Path 977" class="s90" d="m506 592v-14l9 2 1 8-3 4z"/>
		<path id="Path 978" class="s10" d="m599 583l2-5h5v6z"/>
		<path id="Path 979" class="s14" d="m638 592l-6-2v-12l8 2z"/>
		<path id="Path 980" class="s10" d="m692 579l7-1h1l3 4h-7z"/>
		<path id="Path 981" class="s38" d="m856 588l1-10h11v8l-2 2h-2-6z"/>
		<path id="Path 982" class="s83" d="m230 582v-3l6 2-4 3z"/>
		<path id="Path 983" class="s71" d="m650 592l2-13 8 3-1 8z"/>
		<path id="Path 984" class="s53" d="m696 587l-7-3 1-5h2l4 3z"/>
		<path id="Path 985" class="s16" d="m132 583l-2 1-2-4z"/>
		<path id="Path 986" class="s76" d="m236 581l5-1-1 12-4 1 1 14-5 4v5h-6l-2-22 8-10z"/>
		<path id="Path 987" class="s59" d="m274 588l2-8 14 3 2 9z"/>
		<path id="Path 988" class="s77" d="m475 586l2-6h7 4l10 14v10h-2l-13 2-5-11-2-4z"/>
		<path id="Path 989" class="s66" d="m811 582v-2l11 5z"/>
		<path id="Path 990" class="s31" d="m208 586l11-5 11 1 2 2-8 10h-16z"/>
		<path id="Path 991" class="s96" d="m343 582l10-1 3 7h4l-2 16-6 1-4-9-10-4v-3l2-3z"/>
		<path id="Path 992" class="s85" d="m435 585l4-4 6 4-2 11-5-2z"/>
		<path id="Path 993" class="s73" d="m445 585l5-4 6 1-3 13-10 2v-1z"/>
		<path id="Path 994" class="s17" d="m696 587v-5h7l3 4 2 6 1 1v1 3l-1 1h-6l-2-8z"/>
		<path id="Path 995" class="s4" d="m143 590l-9-3-1-4 7 3z"/>
		<path id="Path 996" class="s77" d="m325 586l4-3 9 6v3l-1 2-10-2z"/>
		<path id="Path 997" class="s15" d="m596 585l3-2 7 1h8 6v10l-2 2h-6l-5 4h-7l-5 8h-1-5l-2-8-5-2v-3l7-7z"/>
		<path id="Path 998" class="s27" d="m873 586l4-3h1l-2 4z"/>
		<path id="Path 999" class="s76" d="m188 592l2-8h6l2 3-6 5z"/>
		<path id="Path 1000" class="s88" d="m530 598v-8l-5-2 1-4 14 1 4 10v6l4 5-5 4-7-1-5-4z"/>
		<path id="Path 1001" class="s5" d="m707 586v-1l2 5h-1z"/>
		<path id="Path 1002" class="s18" d="m198 587l4-1h6v8l-3 19-6-2-8-5 3-8-2-6z"/>
		<path id="Path 1003" class="s91" d="m326 608l-2-11-4-3v-8h5l2 6 10 2 3 16 6 1 4 6-5 4-1 7h-15l-1 5-6 2v5h-6-6l-13-2-1-1-7-2-21-5h-5l-11-2-9-3v-1l-3-11 6-5 16-4 21-2 7 8 12-1 10 5 14 2 6-4-1-4z"/>
		<path id="Path 1004" class="s67" d="m391 591l2-4 5-1 3 2-1 11-5 1-3-1z"/>
		<path id="Path 1005" class="s77" d="m429 586l-1 3h-3v-3z"/>
		<path id="Path 1006" class="s64" d="m472 590v-4h3l1 5z"/>
		<path id="Path 1007" class="s64" d="m708 592l-2-6h1l1 4z"/>
		<path id="Path 1008" class="s11" d="m832 588l-1-2h3l4 2z"/>
		<path id="Path 1009" class="s11" d="m866 588l2-2h4v3z"/>
		<path id="Path 1010" class="s19" d="m670 596v-9h5l3 6 12 8v7 8h-9l-2-4h-5l-5-9z"/>
		<path id="Path 1011" class="s94" d="m263 594h7l4-6 18 4 10 3v14l-12 1-7-8-21 2z"/>
		<path id="Path 1012" class="s80" d="m513 592l3-4h5l3 1v7h-2z"/>
		<path id="Path 1013" class="s27" d="m844 590l-5-2h4z"/>
		<path id="Path 1014" class="s95" d="m844 590l-1-2h13 2v2z"/>
		<path id="Path 1015" class="s9" d="m858 590v-2h6z"/>
		<path id="Path 1016" class="s85" d="m240 592l22-2 1 4-1 10-16 4-6 5 3 11h-5l-6-2v-6-5l5-4-1-14z"/>
		<path id="Path 1017" class="s73" d="m474 596l-5-1v-4l3-1 4 1 2 4z"/>
		<path id="Path 1018" class="s27" d="m708 592v-2h1v3z"/>
		<path id="Path 1019" class="s79" d="m377 594l1-3h4v1z"/>
		<path id="Path 1020" class="s76" d="m382 592l9-1 1 8-15 3-3-2 3-6z"/>
		<path id="Path 1021" class="s16" d="m154 595l-6-3 5 1z"/>
		<path id="Path 1022" class="s26" d="m184 593l4-1h4l2 6-3 8h-3l-5-1h-1v-1-1l3-3z"/>
		<path id="Path 1023" class="s76" d="m337 594l1-2 10 4 4 9 6-1 2 10v4l-10-1-4-6-6-1z"/>
		<path id="Path 1024" class="s88" d="m504 604l2-12h7l9 4v8l-6 4h-8z"/>
		<path id="Path 1025" class="s82" d="m544 595l4-3 6 2 1 8-3 4h-2-2l-4-5z"/>
		<path id="Path 1026" class="s51" d="m182 603l-4-2 3-8h3l1 7z"/>
		<path id="Path 1027" class="s29" d="m205 613l3-19h16l2 22-7 2z"/>
		<path id="Path 1028" class="s92" d="m555 602l-1-8 9 1v1l-1 2-4 4z"/>
		<path id="Path 1029" class="s35" d="m618 596l2-2 6 5v5l6 2v6h-4l-7-1v-9l-3-2z"/>
		<path id="Path 1030" class="s27" d="m709 597v-3l3 6h-2v-1z"/>
		<path id="Path 1031" class="s9" d="m168 600l-8-1-4-4z"/>
		<path id="Path 1032" class="s91" d="m443 597l10-2 10 10-5 6v9h-1l-15 3-6-6v-5l1-7z"/>
		<path id="Path 1033" class="s84" d="m474 596l4-1 5 11 13-2 2 6v6l-1 7h-7l-2-10-12 1-2-9z"/>
		<path id="Path 1034" class="s71" d="m578 598l4-3v3z"/>
		<path id="Path 1035" class="s82" d="m522 604v-8h2l2 2v6z"/>
		<path id="Path 1036" class="s69" d="m562 598l1-2h5l1 4-1 1-4 1z"/>
		<path id="Path 1037" class="s36" d="m595 608l5-8h7l5-4 6 4 3 2v9l7 1v10l-7 2-7-3-3-9h-9z"/>
		<path id="Path 1038" class="s37" d="m618 600l-6-4h6z"/>
		<path id="Path 1039" class="s69" d="m669 603l-6-3 1-4h6z"/>
		<path id="Path 1040" class="s13" d="m648 597l11 9-1 3-15-4-1-8z"/>
		<path id="Path 1041" class="s13" d="m708 598l1-1 1 2z"/>
		<path id="Path 1042" class="s87" d="m526 604v-6h4l1 7-3 1z"/>
		<path id="Path 1043" class="s73" d="m558 602l4-4 2 4-3 3z"/>
		<path id="Path 1044" class="s37" d="m577 599l1-1h4l5 2 2 8-1 8-1 7-8 1-5-8v-10z"/>
		<path id="Path 1045" class="s91" d="m377 602l15-3 3 1v5l-5 4v9h-8l-6-5z"/>
		<path id="Path 1046" class="s76" d="m395 600l5-1v7l-5-1z"/>
		<path id="Path 1047" class="s24" d="m569 600l8-1-3 7h-4l-2-5z"/>
		<path id="Path 1048" class="s14" d="m632 606l-6-2v-5l6 3z"/>
		<path id="Path 1049" class="s11" d="m710 609v-9h2v9z"/>
		<path id="Path 1050" class="s8" d="m173 602l9 2v1z"/>
		<path id="Path 1051" class="s19" d="m564 602l4-1 2 5h4v10h-4v-3l-9-6v-2z"/>
		<path id="Path 1052" class="s31" d="m552 606l3-4h3l3 3v2l-5 3z"/>
		<path id="Path 1053" class="s81" d="m498 610l-2-6h2l2 2v3z"/>
		<path id="Path 1054" class="s73" d="m500 606l4-2 4 4v5l-3 1-5-5z"/>
		<path id="Path 1055" class="s81" d="m516 608l6-4h4l2 2-1 5 3 1 1 6h-1-8l-6-3z"/>
		<path id="Path 1056" class="s0" d="m188 607l-5-2 5 1z"/>
		<path id="Path 1057" class="s92" d="m390 618v-9l5-4 5 1 6 4 2 8-2 6h-6-6z"/>
		<path id="Path 1058" class="s90" d="m458 620v-9l5-6h11l2 9-4 3-1 10-4 1h-3l-1-7z"/>
		<path id="Path 1059" class="s69" d="m528 606l3-1 5 4v3h-6l-3-1z"/>
		<path id="Path 1060" class="s20" d="m188 607v-1h3l8 5-3-1z"/>
		<path id="Path 1061" class="s18" d="m536 609l7 1 5-4h2v8l-4 3-4 1-4 1-2-7z"/>
		<path id="Path 1062" class="s26" d="m550 614v-8h2l4 4-2 4z"/>
		<path id="Path 1063" class="s13" d="m556 610l5-3 9 6v3 10h-7l-2-3h-13l-2-6 4-3h4z"/>
		<path id="Path 1064" class="s85" d="m326 616v-8h5l1 4z"/>
		<path id="Path 1065" class="s82" d="m505 614l3-1v-5h8v7l6 3-1 6h-5l-1-3-11-1v-4z"/>
		<path id="Path 1066" class="s17" d="m588 616l1-8h5v8z"/>
		<path id="Path 1067" class="s38" d="m594 616v-8h1l7 4v4h-6z"/>
		<path id="Path 1068" class="s32" d="m690 616v-8h15l2 5-4 2-1 5h-7z"/>
		<path id="Path 1069" class="s77" d="m498 610l2-1 5 5-1 2h-6z"/>
		<path id="Path 1070" class="s40" d="m710 613v-4h2v6l-2 1z"/>
		<path id="Path 1071" class="s16" d="m222 620l-26-10 3 1 6 2 14 5z"/>
		<path id="Path 1072" class="s92" d="m419 617l6-5h11v5l6 6v7l-6 3v4l-22-4 6-10z"/>
		<path id="Path 1073" class="s64" d="m531 618l-1-6h6l2 7h-4z"/>
		<path id="Path 1074" class="s15" d="m602 616v-4h9l3 9-4 1z"/>
		<path id="Path 1075" class="s37" d="m628 622v-10h4 7l16 13 1 9-14 5-5 5-10-3v-8l5-1z"/>
		<path id="Path 1076" class="s35" d="m674 622v-10h5l2 4-1 6z"/>
		<path id="Path 1077" class="s90" d="m372 615l4-2 6 5-1 6-7 2z"/>
		<path id="Path 1078" class="s88" d="m476 614l12-1 2 10h7l4 1 1 6-8 8h-2-12-7l-1-4-1-7 1-10z"/>
		<path id="Path 1079" class="s30" d="m702 620l1-5 4-2h3v3 7 2l-2 1z"/>
		<path id="Path 1080" class="s91" d="m360 618v-4l12 1 2 11v6h-8v-8z"/>
		<path id="Path 1081" class="s9" d="m710 616l2-1-1 8h-1z"/>
		<path id="Path 1082" class="s64" d="m219 618l7-2h6v6h-4l-5-2h-1z"/>
		<path id="Path 1083" class="s72" d="m497 623l1-7h6v4l-3 4z"/>
		<path id="Path 1084" class="s38" d="m570 626v-10h4l5 8 8-1 9-1 4 3v12l22 18v5l-6 6h-11l-9 17h-6l-4-2-1-4-6-1-4-5-7-1-2-5-1-11-2-8 11-9v-8z"/>
		<path id="Path 1085" class="s10" d="m587 623l1-7h6 2v6z"/>
		<path id="Path 1086" class="s39" d="m596 622v-6h6l8 6v6l8 3v7l9 3 10 3 5-5 14-5 14 4h5l5-16 1-6h9l5 4h7l6 6-4 18-4 1-10-5-1 6-1 8 10 5-1 5h-9-7l-5 1-12 7-4 5v7l-8 2-13 2-3 4h-7l-1 4-16-2-4-4-10-2-2-5 9-17h11l6-6v-5l-22-18v-12z"/>
		<path id="Path 1087" class="s88" d="m344 628l1-7 5-4 10 1 6 6v8l-21-2z"/>
		<path id="Path 1088" class="s88" d="m408 618l11-1 1 6-6 10-9 1-5-2v-8h6z"/>
		<path id="Path 1089" class="s30" d="m542 618l4-1 2 6-3 4-3-1z"/>
		<path id="Path 1090" class="s88" d="m374 626l7-2 1-6h8l4 6v8h-11-9z"/>
		<path id="Path 1091" class="s80" d="m516 624h5l1-6h8l-1 2-7 8-6 2z"/>
		<path id="Path 1092" class="s12" d="m529 620l1-2h1l3 1v5h-4z"/>
		<path id="Path 1093" class="s24" d="m538 619l4-1v8l-8-2v-5z"/>
		<path id="Path 1094" class="s82" d="m442 623l15-3v6l7 2-2 10-8-1-3-6-9-1z"/>
		<path id="Path 1095" class="s72" d="m464 628l-7-2v-6h1l5 1z"/>
		<path id="Path 1096" class="s81" d="m501 624l3-4 11 1 1 3v6l-8 3-6-3z"/>
		<path id="Path 1097" class="s48" d="m522 628l7-8 1 4-6 4z"/>
		<path id="Path 1098" class="s38" d="m610 622l4-1 7 3v6l-3 1-8-3z"/>
		<path id="Path 1099" class="s16" d="m238 625l-10-3h4l6 2z"/>
		<path id="Path 1100" class="s13" d="m621 624l7-2 4 10-5 1v8l-9-3v-7l3-1z"/>
		<path id="Path 1101" class="s32" d="m670 638v-11l4-5h6l-5 16z"/>
		<path id="Path 1102" class="s32" d="m545 627l3-4h13l2 3-7 7 2 12-2 5h-8l2-15z"/>
		<path id="Path 1103" class="s27" d="m710 625v-2h1v6h-1z"/>
		<path id="Path 1104" class="s25" d="m238 625v-1h5v1z"/>
		<path id="Path 1105" class="s82" d="m394 632v-8h6v8h-5z"/>
		<path id="Path 1106" class="s13" d="m524 628l6-4h4l8 2 3 1 5 8-2 15-2 2-4 2-6-1-4-6h-8z"/>
		<path id="Path 1107" class="s20" d="m708 626l2-1v4l-1 3-3 11-2 1z"/>
		<path id="Path 1108" class="s37" d="m558 645l-2-12 7-7h7l4 3v8l-11 9z"/>
		<path id="Path 1109" class="s31" d="m467 628l4-1 1 7h-4z"/>
		<path id="Path 1110" class="s80" d="m328 633l1-5h15l1 2-13 7z"/>
		<path id="Path 1111" class="s87" d="m462 638l2-10h3l1 6h4l1 4-8 2h-2z"/>
		<path id="Path 1112" class="s14" d="m516 630l6-2h2v19l-4 2-5-4v-4l-9-6 2-2z"/>
		<path id="Path 1113" class="s21" d="m709 632l1-3h1z"/>
		<path id="Path 1114" class="s16" d="m289 635l-14-1-7-4z"/>
		<path id="Path 1115" class="s93" d="m332 637l13-7 21 2h8 9l1 2v6l-4 4h-7l-13-1h-1l-16-1-9-1h-2z"/>
		<path id="Path 1116" class="s81" d="m436 637v-4l6-3 9 1 3 6-4 2-12-1z"/>
		<path id="Path 1117" class="s31" d="m494 638l8-8 6 3-2 2-10 3z"/>
		<path id="Path 1118" class="s23" d="m384 634l-1-2h11 1v2z"/>
		<path id="Path 1119" class="s64" d="m395 634v-2h5l5 2h-3z"/>
		<path id="Path 1120" class="s18" d="m322 640v-5l6-2 4 4v4h-4z"/>
		<path id="Path 1121" class="s43" d="m405 634l9-1 22 4 2 1v4l-4 2h-2l-2-1-10-1h-6l-5 1h-1l-3-4z"/>
		<path id="Path 1122" class="s26" d="m384 640v-6h11 7v5z"/>
		<path id="Path 1123" class="s53" d="m402 639v-5h3v5z"/>
		<path id="Path 1124" class="s12" d="m496 638l10-3 9 6v4l-5 4-7 1-7-6z"/>
		<path id="Path 1125" class="s23" d="m450 639l4-2 8 1 1 2h-8-5z"/>
		<path id="Path 1126" class="s48" d="m438 642v-4l12 1v1l-2 3z"/>
		<path id="Path 1127" class="s26" d="m465 640l8-2h7v2l-6 1v5h-4z"/>
		<path id="Path 1128" class="s23" d="m480 640v-2h12l-2 2h-6z"/>
		<path id="Path 1129" class="s33" d="m490 640l2-2h2 2v6h-6z"/>
		<path id="Path 1130" class="s23" d="m384 640l18-1h3l3 4-28 1z"/>
		<path id="Path 1131" class="s4" d="m328 642l-12-2h6l6 1z"/>
		<path id="Path 1132" class="s24" d="m448 643l2-3h5l-3 5h-4z"/>
		<path id="Path 1133" class="s15" d="m452 645l3-5h8 2l5 6v8l-6 4h-6z"/>
		<path id="Path 1134" class="s17" d="m474 646v-5l6-1h4l2 12v2h-8-2z"/>
		<path id="Path 1135" class="s71" d="m486 652l-2-12h6v4 8z"/>
		<path id="Path 1136" class="s8" d="m689 646l1-6 10 5 4-1 2-1-2 4-9-3-4-2v3h3l7 7-1 3z"/>
		<path id="Path 1137" class="s22" d="m328 642v-1h4 2v1z"/>
		<path id="Path 1138" class="s21" d="m334 642v-1l9 1v2z"/>
		<path id="Path 1139" class="s25" d="m343 644v-2l16 1v1z"/>
		<path id="Path 1140" class="s87" d="m360 643l13 1h-12z"/>
		<path id="Path 1141" class="s66" d="m409 643l5-1v2h-5z"/>
		<path id="Path 1142" class="s65" d="m414 644v-2h6v2z"/>
		<path id="Path 1143" class="s66" d="m420 644v-2l10 1v1z"/>
		<path id="Path 1144" class="s19" d="m434 644l4-2 10 1v2l-6 5h-8z"/>
		<path id="Path 1145" class="s39" d="m694 645h-3v-3l4 2z"/>
		<path id="Path 1146" class="s5" d="m359 644v-1h1l1 1v1z"/>
		<path id="Path 1147" class="s8" d="m380 644l28-1h1v1l-36 1v-1z"/>
		<path id="Path 1148" class="s8" d="m430 644v-1l2 1v1h-1z"/>
		<path id="Path 1149" class="s16" d="m361 645v-1h12v1z"/>
		<path id="Path 1150" class="s73" d="m432 645v-1h2v6l-2 8z"/>
		<path id="Path 1151" class="s19" d="m490 652v-8h6l7 6 5 8h6l3 3-1 6 7 4 1 4v3 8l3 2v1l-3 3-6-2-5-4-1-1h-1l-4-4v-4l-13-10v-5z"/>
		<path id="Path 1152" class="s6" d="m512 685h1v1h-1z"/>
		<path id="Path 1153" class="s25" d="m431 658v-13h1v13z"/>
		<path id="Path 1154" class="s10" d="m442 650l6-5h4l6 13 1 9 5 1 5 4-2 4-3 3-4-2-6-11h-4-3-3l-2-13z"/>
		<path id="Path 1155" class="s32" d="m510 649l5-4 5 4v5l-6 2z"/>
		<path id="Path 1156" class="s15" d="m556 650l2-5 5 1 2 8h-7z"/>
		<path id="Path 1157" class="s71" d="m470 654v-8h4l2 8z"/>
		<path id="Path 1158" class="s30" d="m698 659l-10-5 1-8 11 9v4z"/>
		<path id="Path 1159" class="s35" d="m520 649l4-2h8l4 6 6 1v11l9 5 1 6v14l-8-1-3-1-3-2h-1l-2-2-5 2-2 2h-1l-3-2v-8l2-3-1-8 2-8-7-5z"/>
		<path id="Path 1160" class="s69" d="m503 650l7-1 4 7v2h-6z"/>
		<path id="Path 1161" class="s17" d="m432 658l2-8h8v3l-4 9-6-2z"/>
		<path id="Path 1162" class="s37" d="m546 652l2-2h8l2 4h7l1 11h-6z"/>
		<path id="Path 1163" class="s13" d="m486 654v-2h4l4 10h-4z"/>
		<path id="Path 1164" class="s32" d="m542 654l4-2 14 13 1 7-1 4h-8l-1-6-9-5z"/>
		<path id="Path 1165" class="s24" d="m432 660l6 2 4-9 2 13h-4l-6-1-2-3z"/>
		<path id="Path 1166" class="s13" d="m464 658l6-4h6 2l1 7 13 21 3 3h7l-2 3-5 3-7-6-2-2-11-14-6 3-5-4z"/>
		<path id="Path 1167" class="s30" d="m502 685h-7l-3-3-13-21-1-7h8l4 8h4v5l13 10v4l-3 4z"/>
		<path id="Path 1168" class="s37" d="m514 656l6-2 7 5-2 8-8-6-3-3z"/>
		<path id="Path 1169" class="s42" d="m431 662v-4h1v2 2z"/>
		<path id="Path 1170" class="s24" d="m464 668l-5-1-1-9h6z"/>
		<path id="Path 1171" class="s69" d="m688 664h9l1-5h2v2l-4 5h-7z"/>
		<path id="Path 1172" class="s13" d="m524 675l-1-4-7-4 1-6 8 6 1 8z"/>
		<path id="Path 1173" class="s5" d="m696 666l4-5 1 4-5 2z"/>
		<path id="Path 1174" class="s0" d="m434 665h-3v-3h1z"/>
		<path id="Path 1175" class="s84" d="m676 665l5-1v2l-1 3z"/>
		<path id="Path 1176" class="s11" d="m681 666v-2h7l1 2z"/>
		<path id="Path 1177" class="s0" d="m440 668l-6-3 6 1z"/>
		<path id="Path 1178" class="s20" d="m450 666h4l6 11-2-1z"/>
		<path id="Path 1179" class="s10" d="m561 672l-1-7h6l2 5z"/>
		<path id="Path 1180" class="s30" d="m660 684v-7l4-5 12-7 4 4 8 9v6l-6 5-10-5z"/>
		<path id="Path 1181" class="s9" d="m440 668v-2h4 3l-1 2h-5z"/>
		<path id="Path 1182" class="s27" d="m680 669l1-3h8v1l-8 2z"/>
		<path id="Path 1183" class="s42" d="m689 667v-1h7v1z"/>
		<path id="Path 1184" class="s7" d="m469 672l6-3 11 14-12-11-7 5v-1z"/>
		<path id="Path 1185" class="s34" d="m688 684v-6l-8-9h1l3 3 2 2 1 1 2 2 2 2z"/>
		<path id="Path 1186" class="s39" d="m561 672l7-2 7 1 4 5v4l5 2v6l-2 9-3-1-8-3-3-1v-9l-8-7z"/>
		<path id="Path 1187" class="s32" d="m524 678v-3h2z"/>
		<path id="Path 1188" class="s4" d="m467 677l-1 5h-5l-3-6 2 1 4 2 3-3z"/>
		<path id="Path 1189" class="s19" d="m552 690v-14h8l8 7v9h-8z"/>
		<path id="Path 1190" class="s15" d="m584 682l-5-2v-4l6 1 1 4z"/>
		<path id="Path 1191" class="s27" d="m688 684l3-5v6l-9 5v-1z"/>
		<path id="Path 1192" class="s4" d="m504 685l3-4 4 4-3-2z"/>
		<path id="Path 1193" class="s17" d="m584 682l2-1 4 2-2 5h-4z"/>
		<path id="Path 1194" class="s33" d="m588 688l2-5h6l2 5-1 7-9 1z"/>
		<path id="Path 1195" class="s80" d="m530 686l5-2 2 2z"/>
		<path id="Path 1196" class="s17" d="m652 686l8-2h12l10 5v1l-1 1-3 2h-1l-10 5h-3l-8 1-4-6z"/>
		<path id="Path 1197" class="s9" d="m489 688l-1-3 7 6 5-3-1 2-2 2h-4l-2-2z"/>
		<path id="Path 1198" class="s8" d="m500 688l2-3h2l-5 5z"/>
		<path id="Path 1199" class="s27" d="m513 687l-2-2h1l1 1z"/>
		<path id="Path 1200" class="s6" d="m513 687v-1l5 4h-4z"/>
		<path id="Path 1201" class="s0" d="m528 688l2-2h7z"/>
		<path id="Path 1202" class="s10" d="m636 692l3-4 13-2v7l-8 3h-8z"/>
		<path id="Path 1203" class="s4" d="m559 693h-13l-5-5 3 1 4 3h11z"/>
		<path id="Path 1204" class="s30" d="m582 697l2-9h4v8l-1 3z"/>
		<path id="Path 1205" class="s17" d="m588 696l9-1 1-7 10 2 4 4 2 8v4h-4-5-4l-5-1h-2l-3-2-4-2v-2z"/>
		<path id="Path 1206" class="s5" d="m524 692l3-3-3 4z"/>
		<path id="Path 1207" class="s48" d="m559 692h-11l-4-3 8 1 8 2z"/>
		<path id="Path 1208" class="s6" d="m524 693h-5l-1-3 6 2z"/>
		<path id="Path 1209" class="s27" d="m681 691l1-1-1 2z"/>
		<path id="Path 1210" class="s0" d="m678 693l3-2v1z"/>
		<path id="Path 1211" class="s66" d="m559 693v-1h1 8l3 1z"/>
		<path id="Path 1212" class="s17" d="m628 696l1-4h7v4 8h-7-1z"/>
		<path id="Path 1213" class="s8" d="m579 698l-8-5 8 3z"/>
		<path id="Path 1214" class="s19" d="m644 696l8-3 4 6-4 2h-1l-4 2h-1-2z"/>
		<path id="Path 1215" class="s0" d="m667 698l10-5-1 4z"/>
		<path id="Path 1216" class="s33" d="m614 702l-2-8 16 2v8h-1z"/>
		<path id="Path 1217" class="s34" d="m579 698v-2l3 1 5 2v2l-4-1z"/>
		<path id="Path 1218" class="s12" d="m636 704v-8h8v7l-4 2h-1z"/>
		<path id="Path 1219" class="s22" d="m656 699l8-1-5 4h-7v-1z"/>
		<path id="Path 1220" class="s34" d="m614 702l13 2v1h-1-3l-2-2-2 2h-2l-1 3h-6v-2h4z"/>
		<path id="Path 1221" class="s22" d="m647 703l4-2-1 2z"/>
		<path id="Path 1222" class="s25" d="m650 703l1-2h1v1z"/>
		<path id="Path 1223" class="s8" d="m619 705l2-2 2 2z"/>
		<path id="Path 1224" class="s25" d="m640 705l4-2h2z"/>
		<path id="Path 1225" class="s29" d="m596 705l5 1h-1z"/>
		<path id="Path 1226" class="s9" d="m616 708l1-3 1 3z"/>
		<path id="Path 1227" class="s28" d="m627 705v-1h1 1l1 2z"/>
		<path id="Path 1228" class="s73" d="m630 706l-1-2h7l3 1-3 1z"/>
		<path id="Path 1229" class="s0" d="m600 707l-4-2 4 1z"/>
		<path id="Path 1230" class="s5" d="m618 708l-1-3h2z"/>
		<path id="Path 1231" class="s27" d="m636 707l-10-2h1l3 1h6z"/>
		<path id="Path 1232" class="s0" d="m636 706l3-1-3 2z"/>
		<path id="Path 1233" class="s65" d="m600 707v-1h1 4v1h-1z"/>
		<path id="Path 1234" class="s28" d="m605 707v-1h5v2h-5z"/>
		<path id="Path 1235" class="s0" d="m604 707h1v1h-1z"/>
	</g>
</svg>