<svg version="1.2" xmlns="http://www.w3.org/2000/svg" viewBox="0 0 500 500" width="500" height="500">
	<title>Proterorhinus_marmoratus</title>
	<style>
		.s0 { opacity: .4;fill: #c8cac2 } 
		.s1 { opacity: .1;fill: #dadbd3 } 
		.s2 { opacity: .9;fill: #c7cac7 } 
		.s3 { opacity: .2;fill: #deded7 } 
		.s4 { opacity: .9;fill: #dadcd7 } 
		.s5 { opacity: .3;fill: #cccdc6 } 
		.s6 { fill: #e9e4cd } 
		.s7 { opacity: .8;fill: #d0cfc4 } 
		.s8 { opacity: 1;fill: #c3c0ac } 
		.s9 { opacity: .6;fill: #dadad2 } 
		.s10 { fill: #b7b39e } 
		.s11 { fill: #c5bc97 } 
		.s12 { opacity: .7;fill: #b2b09e } 
		.s13 { opacity: .2;fill: #bbb7a4 } 
		.s14 { fill: #c29b48 } 
		.s15 { opacity: .5;fill: #ddded7 } 
		.s16 { fill: #907d54 } 
		.s17 { fill: #c6b374 } 
		.s18 { fill: #8a704a } 
		.s19 { opacity: .7;fill: #bfbeb1 } 
		.s20 { opacity: .5;fill: #ccccc4 } 
		.s21 { fill: #a98a4e } 
		.s22 { fill: #ac9456 } 
		.s23 { fill: #9f7b47 } 
		.s24 { fill: #cdbb80 } 
		.s25 { fill: #a6a89b } 
		.s26 { fill: #cdab4a } 
		.s27 { fill: #46423c } 
		.s28 { fill: #ab9b6d } 
		.s29 { fill: #727163 } 
		.s30 { fill: #766d55 } 
		.s31 { fill: #827b62 } 
		.s32 { fill: #8c8873 } 
		.s33 { fill: #5a5446 } 
		.s34 { fill: #c6c6be } 
		.s35 { fill: #9e885b } 
		.s36 { opacity: 1;fill: #b7bab5 } 
		.s37 { opacity: .4;fill: #dfdfd9 } 
		.s38 { fill: #dddcd4 } 
		.s39 { fill: #534539 } 
		.s40 { opacity: 1;fill: #b0a682 } 
		.s41 { fill: #b9a362 } 
		.s42 { opacity: .1;fill: #dfdfd7 } 
		.s43 { fill: #adb0a8 } 
		.s44 { opacity: .8;fill: #878782 } 
		.s45 { opacity: .1;fill: #c4c5bd } 
		.s46 { fill: #948767 } 
		.s47 { fill: #6d5e47 } 
		.s48 { fill: #a39877 } 
		.s49 { opacity: 1;fill: #9e9f91 } 
		.s50 { fill: #604f3e } 
		.s51 { fill: #666253 } 
		.s52 { opacity: .5;fill: #bbbaad } 
		.s53 { fill: #563f32 } 
		.s54 { fill: #4e4b41 } 
		.s55 { fill: #cdb363 } 
		.s56 { fill: #707873 } 
		.s57 { fill: #bea355 } 
		.s58 { fill: #f6f6f4 } 
		.s59 { fill: #7a674a } 
		.s60 { fill: #443c35 } 
		.s61 { fill: #bca96f } 
		.s62 { fill: #3b3530 } 
		.s63 { opacity: 1;fill: #d1c8a3 } 
		.s64 { opacity: 1;fill: #d4cfbb } 
		.s65 { fill: #674937 } 
		.s66 { fill: #e4dec1 } 
		.s67 { fill: #b29a61 } 
		.s68 { fill: #77593f } 
		.s69 { fill: #dfd6b6 } 
		.s70 { fill: #352d28 } 
		.s71 { fill: #bcb28c } 
		.s72 { fill: #866441 } 
		.s73 { opacity: .5;fill: #9d9d8f } 
		.s74 { fill: #4b392e } 
		.s75 { fill: #ebebe0 } 
		.s76 { fill: #1f1b16 } 
		.s77 { fill: #403229 } 
		.s78 { fill: #2b2520 } 
		.s79 { fill: #0f0d0a } 
		.s80 { fill: #e1d39f } 
		.s81 { opacity: .8;fill: #6e7172 } 
		.s82 { fill: #5e4334 } 
		.s83 { fill: #585b53 } 
		.s84 { fill: #a39168 } 
		.s85 { fill: #6f513c } 
		.s86 { opacity: 1;fill: #d1d4d3 } 
		.s87 { fill: #8d9083 } 
		.s88 { fill: #9a9680 } 
		.s89 { fill: #b98847 } 
		.s90 { fill: #d48f48 } 
		.s91 { fill: #cbcdc9 } 
		.s92 { fill: #dbc685 } 
		.s93 { fill: #d3b456 } 
		.s94 { fill: #e0c868 } 
	</style>
	<g id="Background">
		<path id="Path 0" class="s0" d="m170 355l-1-1h1z"/>
		<path id="Path 1" class="s1" d="m188 354l1-1v2z"/>
		<path id="Path 2" class="s0" d="m168 364l-7-11 3 1 5 6z"/>
		<path id="Path 3" class="s2" d="m170 354l3-4 16 17-19-12z"/>
		<path id="Path 4" class="s1" d="m185 346l1-2 3 9z"/>
		<path id="Path 5" class="s3" d="m155 346l-3-2h3z"/>
		<path id="Path 6" class="s4" d="m173 344l3-2 12 12 1 1 1 2-1 2z"/>
		<path id="Path 7" class="s0" d="m161 348l-3-7h1l5 5z"/>
		<path id="Path 8" class="s5" d="m170 346l-4-7 6 5z"/>
		<path id="Path 9" class="s6" d="m152 344l-3-6h5l1 6z"/>
		<path id="Path 10" class="s7" d="m172 335l3-4 11 13-1 2z"/>
		<path id="Path 11" class="s8" d="m158 323l7-3 10 11-3 4 4 7-3 2h-1l-6-5 4 7 3 4-3 4h-1l-5-8-5-5h-1l3 7 3 6-3-1-6-7v-2l-1-6z"/>
		<path id="Path 12" class="s3" d="m158 340h1v1h-1z"/>
		<path id="Path 13" class="s9" d="m288 318l3-1h1l1 2 1-1h1v6z"/>
		<path id="Path 14" class="s1" d="m292 317l3 1h-1l-1 1z"/>
		<path id="Path 15" class="s10" d="m157 314l1-2h9l4 2-6 6-7 3z"/>
		<path id="Path 16" class="s0" d="m277 317l-4-6 3 2z"/>
		<path id="Path 17" class="s11" d="m149 338l-7-22-9-5 11 3h13l1 9-4 15z"/>
		<path id="Path 20" class="s11" d="m186 311l2-3h3l7 4h-12z"/>
		<path id="Path 21" class="s3" d="m318 310v-3l1 3z"/>
		<path id="Path 22" class="s12" d="m288 318l-7-11h4l6 10z"/>
		<path id="Path 23" class="s13" d="m188 308l1-2h5l2 1-5 1z"/>
		<path id="Path 24" class="s7" d="m321 306l4-1 8 10z"/>
		<path id="Path 25" class="s9" d="m309 307l-3-2 3 1z"/>
		<path id="Path 26" class="s14" d="m167 312l2-7 11 1v4l-7 4h-2z"/>
		<path id="Path 27" class="s15" d="m338 304l7 7-10-7z"/>
		<path id="Path 28" class="s7" d="m273 311l-4-7h3l4 9z"/>
		<path id="Path 29" class="s16" d="m158 305l8-3 3 3-2 7h-9z"/>
		<path id="Path 30" class="s17" d="m180 306l8-4 1 4-1 2-2 3-6-1z"/>
		<path id="Path 31" class="s18" d="m126 301l1-1h5l-2 7-4-4z"/>
		<path id="Path 32" class="s19" d="m318 302l2-3 5 6-4 1-3-3z"/>
		<path id="Path 33" class="s19" d="m319 298h1v1h-1z"/>
		<path id="Path 35" class="s2" d="m267 304l-1-6h4l2 6h-3-1z"/>
		<path id="Path 36" class="s20" d="m258 299l2-1 6 16z"/>
		<path id="Path 37" class="s19" d="m223 300l5-2h4z"/>
		<path id="Path 38" class="s20" d="m345 298l1-2 12 11z"/>
		<path id="Path 39" class="s21" d="m194 306v-10h5l1 11h-4z"/>
		<path id="Path 40" class="s22" d="m188 302l6-6v10h-5z"/>
		<path id="Path 41" class="s23" d="m132 300l4-4 8 18-11-3-3-4z"/>
		<path id="Path 42" class="s12" d="m256 294l3-1 1 5-2 1z"/>
		<path id="Path 43" class="s9" d="m338 294l4-2 4 4-1 2z"/>
		<path id="Path 44" class="s10" d="m312 293l3-1 4 6 1 1-2 3-5-4z"/>
		<path id="Path 45" class="s19" d="m289 296l2-4 15 25 1 1-2 2-2-2-8-9-2-3z"/>
		<path id="Path 46" class="s24" d="m228 298l-2-6 6 1 6 1-6 4z"/>
		<path id="Path 47" class="s9" d="m341 291h1v1h-1z"/>
		<path id="Path 48" class="s25" d="m264 292l4-1 2 7h-4z"/>
		<path id="Path 49" class="s26" d="m219 300l1-9h2l4 1 2 6-5 2z"/>
		<path id="Path 50" class="s27" d="m126 301l-1-10 2 9z"/>
		<path id="Path 51" class="s1" d="m222 291v-1h7l-3 2z"/>
		<path id="Path 52" class="s14" d="m199 296l3-6 10 10 1 3v4h-6-6-1z"/>
		<path id="Path 53" class="s28" d="m89 303l1-13h5l-3 14z"/>
		<path id="Path 54" class="s8" d="m322 291l3-2 13 15h-3z"/>
		<path id="Path 55" class="s29" d="m64 294v-8h2 4l3 6-2 4-2-1-4-1z"/>
		<path id="Path 56" class="s21" d="m136 296l7-11 3 1v3 6l12 10v7l-1 2h-13z"/>
		<path id="Path 57" class="s30" d="m57 292v-7l7 1v8z"/>
		<path id="Path 58" class="s9" d="m360 287l3-3 12 8-2 1z"/>
		<path id="Path 59" class="s7" d="m344 286l4-2 20 18z"/>
		<path id="Path 60" class="s31" d="m95 290l10-6 3 18-16 2z"/>
		<path id="Path 61" class="s3" d="m259 286l2-3v3z"/>
		<path id="Path 62" class="s8" d="m273 284l3-2 2 2v1l1 3 6 19h-4l-8-17z"/>
		<path id="Path 63" class="s32" d="m71 283l4-1-2 10-3-6z"/>
		<path id="Path 64" class="s33" d="m66 286v-4h2l3 1-1 3z"/>
		<path id="Path 65" class="s34" d="m261 283v-2h5l2 8v2l-4 1-1-2-1-3-1-1z"/>
		<path id="Path 66" class="s35" d="m202 290v-9h12l6 10-1 9h-7z"/>
		<path id="Path 67" class="s0" d="m382 283l1-3 2 3z"/>
		<path id="Path 68" class="s36" d="m305 303l-14-23h4l13 19 1 7-3-1z"/>
		<path id="Path 69" class="s25" d="m282 281h5l4 11-2 4-2-3-1-1-2-6z"/>
		<path id="Path 70" class="s19" d="m286 292h1v1h-1z"/>
		<path id="Path 71" class="s37" d="m276 282l6-1 2 5-6-2z"/>
		<path id="Path 72" class="s38" d="m266 281l2-1 5 4v6l-5-1z"/>
		<path id="Path 73" class="s2" d="m248 286l-1-6h5l9 1v2l-2 3v7l-3 1z"/>
		<path id="Path 74" class="s17" d="m470 288l1-9 8 1z"/>
		<path id="Path 75" class="s21" d="m214 281l6-2 2 11v1h-2z"/>
		<path id="Path 76" class="s19" d="m370 281l2-3 10 5h3z"/>
		<path id="Path 77" class="s3" d="m312 280l-3-2h3z"/>
		<path id="Path 78" class="s14" d="m222 279h16l-1 10-8 1h-7l-2-11z"/>
		<path id="Path 79" class="s39" d="m68 282l2-4h6l-1 4-4 1z"/>
		<path id="Path 81" class="s40" d="m246 278h6v2h-5z"/>
		<path id="Path 82" class="s41" d="m238 279l6-2 2 1 1 2 1 6-11 3z"/>
		<path id="Path 83" class="s40" d="m444 277l4-1 6 12-10-4z"/>
		<path id="Path 84" class="s0" d="m383 277l3-1v1z"/>
		<path id="Path 85" class="s42" d="m318 277l-1-1h5v1z"/>
		<path id="Path 86" class="s25" d="m312 278v-2h5l1 1 7 12-3 2-10-11z"/>
		<path id="Path 87" class="s31" d="m169 277l12-1 13 2 8 3v9l-3 6h-5l-6 6-8 4-11-1-3-3 1-20z"/>
		<path id="Path 88" class="s18" d="m146 286v-10h12l9 6-1 20-8 3-12-10v-6z"/>
		<path id="Path 89" class="s43" d="m366 279v-4l5 2 1 1-2 3z"/>
		<path id="Path 90" class="s3" d="m330 278l-2-3 5 1z"/>
		<path id="Path 91" class="s43" d="m322 276l5-1h1l2 3 11 13 1 1-4 2-16-17z"/>
		<path id="Path 92" class="s43" d="m301 277l7-2 4 1v2h-3l6 14-3 1z"/>
		<path id="Path 93" class="s29" d="m42 277l3-2h4l8 10v7l-5-2-1-1-1-1-3-2-1-1-4-3-1-1z"/>
		<path id="Path 94" class="s44" d="m51 289h1v1h-1zm-1-1h1v1h-1zm-4-3h1v1h-1z"/>
		<path id="Path 95" class="s45" d="m462 276l-2-2h2 3l15 4-1 2-8-1-7-3z"/>
		<path id="Path 96" class="s41" d="m252 278l5-4h3 8v6l-2 1h-5l-9-1z"/>
		<path id="Path 97" class="s16" d="m105 281l12-7 7 2 1 15 1 10v2l-18-1-3-18z"/>
		<path id="Path 98" class="s46" d="m76 278l2-4 4 1 2 15h6l-1 13-18-7 2-4 2-10z"/>
		<path id="Path 99" class="s47" d="m66 282l-4-8 8 4-2 4z"/>
		<path id="Path 100" class="s20" d="m460 274v-1l2 1z"/>
		<path id="Path 101" class="s47" d="m427 278v-5l4 1z"/>
		<path id="Path 102" class="s48" d="m451 273l7-1h1l1 1v1l2 2h2l7 3-1 9h-16l-6-12v-3z"/>
		<path id="Path 103" class="s49" d="m431 274l2-2 10 2 1 3v7l-18-6h1z"/>
		<path id="Path 104" class="s41" d="m420 274l5-2 2 1v5h-1l-6-3z"/>
		<path id="Path 105" class="s50" d="m158 276v-4h6l5 5-2 5z"/>
		<path id="Path 106" class="s28" d="m27 274l5-2 10 5-1 4-14-4z"/>
		<path id="Path 107" class="s40" d="m27 277l-7-5 7 2z"/>
		<path id="Path 108" class="s42" d="m451 273l3-2 4 1z"/>
		<path id="Path 109" class="s46" d="m443 274v-3l5 2v3l-4 1z"/>
		<path id="Path 110" class="s2" d="m375 274l1-3 10 5-3 1v3z"/>
		<path id="Path 111" class="s19" d="m371 277h1v1h-1z"/>
		<path id="Path 112" class="s51" d="m257 274v-3h1 2v3z"/>
		<path id="Path 113" class="s30" d="m245 272l12-1v3l-5 4h-6l-2-1z"/>
		<path id="Path 114" class="s22" d="m117 274l1-3 6 2v3z"/>
		<path id="Path 115" class="s25" d="m356 274v-4l9 3 1 2v4z"/>
		<path id="Path 116" class="s52" d="m353 276l-6-6 7 3z"/>
		<path id="Path 117" class="s34" d="m327 275l7-5h4 4v4l6 10-4 2-11-10-5-1z"/>
		<path id="Path 118" class="s39" d="m146 276v-6h8l4 2v4z"/>
		<path id="Path 119" class="s53" d="m124 273l4-3 15 15-7 11-4 4h-5l-2-9-1-15z"/>
		<path id="Path 120" class="s54" d="m420 274l1-5 4 3z"/>
		<path id="Path 121" class="s8" d="m342 270l2-1 3 1 6 6 10 8-3 3-18-13z"/>
		<path id="Path 122" class="s55" d="m268 274l18-5 6 1 3 7v3h-4l-4 1h-5l-6 1-3 2-5-4z"/>
		<path id="Path 124" class="s56" d="m45 275l1-7 3 7z"/>
		<path id="Path 125" class="s57" d="m431 269l2-2 10 4v3l-10-2z"/>
		<path id="Path 126" class="s10" d="m421 269l3-2 5 1 2 1 2 3-2 2-4-1-2-1z"/>
		<path id="Path 127" class="s58" d="m376 271l6-4 11 9-7 1v-1z"/>
		<path id="Path 128" class="s59" d="m181 276l5-9 9 3-1 8z"/>
		<path id="Path 129" class="s60" d="m82 275l10-8 6 3 7 11v3l-10 6h-5-6z"/>
		<path id="Path 130" class="s61" d="m429 268v-2h4v1l-2 2z"/>
		<path id="Path 131" class="s55" d="m308 269l6-3h5 15v4l-7 5-5 1h-5-5l-4-1z"/>
		<path id="Path 132" class="s57" d="m292 268l7-2 9 1v2 6l-7 2h-6l-3-7z"/>
		<path id="Path 133" class="s14" d="m286 269l1-4 5 3v2z"/>
		<path id="Path 134" class="s62" d="m92 267l3-2 3 5z"/>
		<path id="Path 135" class="s1" d="m485 266v-2h2l-1 2z"/>
		<path id="Path 136" class="s63" d="m465 274l4-10h3l7 1 5 1h1 1l-6 12z"/>
		<path id="Path 137" class="s64" d="m433 266l1-2 7 1 13 6-3 2h-3l-5-2-10-4z"/>
		<path id="Path 138" class="s35" d="m424 267v-3l5 2v2z"/>
		<path id="Path 139" class="s16" d="m403 265l3-1 7 2-4 4-6-4z"/>
		<path id="Path 140" class="s36" d="m361 268v-4h4l17 3-6 4-1 3-8-3z"/>
		<path id="Path 141" class="s22" d="m308 267l2-3 4 2-6 3z"/>
		<path id="Path 142" class="s16" d="m260 271l27-7v1l-1 4-18 5h-8z"/>
		<path id="Path 143" class="s1" d="m469 264l-1-1 4 1z"/>
		<path id="Path 144" class="s40" d="m350 264l7-1 4 1v4l-5 2v4l-2-1-7-3-3-1v-5z"/>
		<path id="Path 145" class="s1" d="m477 263l-4-1h1z"/>
		<path id="Path 146" class="s45" d="m357 263l3-1 5 2h-4z"/>
		<path id="Path 147" class="s26" d="m338 270v-8h1l5 2v5l-2 1z"/>
		<path id="Path 148" class="s21" d="m334 266v-4h4v8h-4z"/>
		<path id="Path 149" class="s47" d="m195 270l3-8 14 2 10 15h-2l-6 2h-12l-8-3z"/>
		<path id="Path 150" class="s50" d="m186 264l4-2h8l-3 8-9-3z"/>
		<path id="Path 151" class="s65" d="m154 264l4-2 6 1v9h-6l-4-2z"/>
		<path id="Path 152" class="s30" d="m20 272l-6-10h9l9 10-5 2z"/>
		<path id="Path 153" class="s1" d="m465 261l-4-1h3z"/>
		<path id="Path 154" class="s66" d="m424 264l-1-4 7 2 4 2-1 2h-4z"/>
		<path id="Path 155" class="s45" d="m365 261v-1h6z"/>
		<path id="Path 156" class="s22" d="m319 266l2-6 13 2v4z"/>
		<path id="Path 157" class="s39" d="m164 263l4-3 18 4v3l-5 9-12 1-5-5z"/>
		<path id="Path 158" class="s61" d="m441 265v-6h4l5 1 18 3 1 1-4 10h-3l-2-1-1-1h-1l-4-1z"/>
		<path id="Path 159" class="s20" d="m459 272h1v1h-1z"/>
		<path id="Path 160" class="s52" d="m371 260l1-1h7z"/>
		<path id="Path 161" class="s16" d="m339 262v-3h5 5l1 5h-6z"/>
		<path id="Path 162" class="s21" d="m117 262l3-4h7l1 12-4 3-6-2z"/>
		<path id="Path 163" class="s67" d="m435 258l3-1 3 2v6l-7-1-4-2v-4z"/>
		<path id="Path 164" class="s68" d="m63 260l7-3 5 1 3 16-2 4h-6l-8-4z"/>
		<path id="Path 165" class="s39" d="m45 263l18-3-1 14 4 8v4h-2l-7-1-8-10-3-7z"/>
		<path id="Path 166" class="s63" d="m482 264v-8h2 6l-3 8h-2z"/>
		<path id="Path 167" class="s37" d="m438 257l6-1 2 1-1 2h-4z"/>
		<path id="Path 168" class="s37" d="m435 258l1-2 2 1z"/>
		<path id="Path 169" class="s41" d="m423 260v-4h3l4 2v4z"/>
		<path id="Path 170" class="s47" d="m95 265l4-9h3l15 6 1 9-1 3-12 7-7-11z"/>
		<path id="Path 171" class="s67" d="m390 260v-5l10 5 3 5v1z"/>
		<path id="Path 172" class="s57" d="m355 256h8l2 4v1l-5 1-3 1-7 1-1-5z"/>
		<path id="Path 173" class="s11" d="m474 262v-8h4l4 2v8l-5-1z"/>
		<path id="Path 174" class="s18" d="m287 264l11-10 1 12-7 2-5-3z"/>
		<path id="Path 175" class="s39" d="m13 255l3-1h8l-1 8h-9z"/>
		<path id="Path 176" class="s69" d="m426 256v-3l6 1 4 2-1 2h-5z"/>
		<path id="Path 177" class="s59" d="m298 254l9-1 3 11-2 3-9-1z"/>
		<path id="Path 178" class="s70" d="m158 262l2-9h2l6 7-4 3z"/>
		<path id="Path 179" class="s11" d="m423 256l-5-4h7l1 1v3z"/>
		<path id="Path 180" class="s55" d="m379 255l3-3 8 3v5l-11-1z"/>
		<path id="Path 181" class="s14" d="m372 253l3-1 4 3v4h-7z"/>
		<path id="Path 182" class="s22" d="m363 256l3-4 6 1v6l-1 1h-6z"/>
		<path id="Path 183" class="s17" d="m474 254v-3h4v3z"/>
		<path id="Path 184" class="s71" d="m464 260l1-10h4l5 1v3 8h-1l-8-1z"/>
		<path id="Path 185" class="s24" d="m456 259l-3-9h12l-1 10h-3z"/>
		<path id="Path 186" class="s35" d="m448 257v-7h4 1l3 9 5 1 4 1 8 1 4 1 5 1h3v2h-1l-5-1-7-1-4-1-18-3-5-1 1-2h1z"/>
		<path id="Path 187" class="s41" d="m444 256v-6h2 2v7h-1-1z"/>
		<path id="Path 188" class="s72" d="m307 253l2-3 30 9v3h-1-4l-13-2-2 6h-5l-4-2z"/>
		<path id="Path 189" class="s70" d="m258 258l-12-8h5l4 2 4 3z"/>
		<path id="Path 190" class="s73" d="m13 255l3-5v4z"/>
		<path id="Path 191" class="s67" d="m432 254v-5h1 5l6 1v6l-6 1-2-1z"/>
		<path id="Path 192" class="s35" d="m425 252v-3h7v5l-6-1z"/>
		<path id="Path 193" class="s18" d="m75 258l7-9 8 1 9 6-4 9-3 2-10 8-4-1z"/>
		<path id="Path 194" class="s59" d="m52 253l13-4 5 8-7 3-18 3-2-8z"/>
		<path id="Path 195" class="s8" d="m484 256l2-8 6 1-2 7z"/>
		<path id="Path 196" class="s18" d="m375 252l4-4 3 4-3 3z"/>
		<path id="Path 197" class="s53" d="m102 256v-8h2l15 6 1 4-3 4z"/>
		<path id="Path 198" class="s74" d="m90 250l4-2h8v8h-3z"/>
		<path id="Path 199" class="s68" d="m24 251l11-3 8 7 2 8 1 5-1 7-3 2-10-5-9-10 1-8z"/>
		<path id="Path 200" class="s75" d="m469 250v-3l9 1v3h-4z"/>
		<path id="Path 201" class="s6" d="m452 250v-4h8l8 1h1v3h-4-12z"/>
		<path id="Path 202" class="s38" d="m446 250v-4h6v4h-4z"/>
		<path id="Path 203" class="s64" d="m438 249v-3h8v4h-2z"/>
		<path id="Path 204" class="s63" d="m433 249v-3h5v3z"/>
		<path id="Path 205" class="s66" d="m425 249l3-3h5v3h-1z"/>
		<path id="Path 206" class="s30" d="m251 250l2-4 2 6z"/>
		<path id="Path 207" class="s60" d="m235 249l2-3 9 4 12 8v13h-1l-12 1z"/>
		<path id="Path 208" class="s74" d="m146 270l-9-24h5l12 18v6z"/>
		<path id="Path 209" class="s50" d="m18 247l3-2h1l2 6v3h-8v-4-1z"/>
		<path id="Path 210" class="s73" d="m16 249h1v1h-1z"/>
		<path id="Path 211" class="s63" d="m486 248v-4h7l-1 5z"/>
		<path id="Path 212" class="s74" d="m230 248v-5l7 3-2 3z"/>
		<path id="Path 213" class="s28" d="m418 252l-2-10h6 6v4l-3 3v3z"/>
		<path id="Path 214" class="s74" d="m344 259l-2-17h4l2 2 7 12-6 3z"/>
		<path id="Path 215" class="s60" d="m121 246l4-4h3l9 4 9 24v6 10l-3-1-15-15-1-12h-7l-1-4z"/>
		<path id="Path 216" class="s76" d="m121 246l-2-4h5 1z"/>
		<path id="Path 217" class="s70" d="m94 248v-6h2l8 6h-2z"/>
		<path id="Path 218" class="s44" d="m18 247l3-5v3z"/>
		<path id="Path 219" class="s77" d="m142 246l2-5 16 12-2 9-4 2z"/>
		<path id="Path 220" class="s70" d="m400 260l-4-20 8 2 2 22-3 1z"/>
		<path id="Path 221" class="s74" d="m366 252v-12l13 8-4 4-3 1z"/>
		<path id="Path 222" class="s70" d="m348 244l7-4h11v12l-3 4h-8z"/>
		<path id="Path 223" class="s28" d="m460 242l3-3h5v8l-8-1z"/>
		<path id="Path 224" class="s17" d="m468 239l10-1v10l-9-1h-1z"/>
		<path id="Path 225" class="s78" d="m346 242l2-4h7v2l-7 4z"/>
		<path id="Path 226" class="s76" d="m252 244l-5-6h6z"/>
		<path id="Path 227" class="s60" d="m166 245l10-7h4l6 2 4 22-4 2-18-4-6-7z"/>
		<path id="Path 228" class="s39" d="m82 239l2-1h4l6 4v6l-4 2-8-1z"/>
		<path id="Path 229" class="s53" d="m66 243l6-5 10 1v10l-7 9-5-1-5-8z"/>
		<path id="Path 230" class="s79" d="m52 246l-4-8 4 1 3 1z"/>
		<path id="Path 231" class="s39" d="m186 240l9-3 12 8 5 19-14-2h-8z"/>
		<path id="Path 232" class="s70" d="m166 241l6-4 4 1-10 7z"/>
		<path id="Path 233" class="s6" d="m444 237l4-1h6v4z"/>
		<path id="Path 234" class="s39" d="m342 242l-1-6h7v2l-2 4z"/>
		<path id="Path 235" class="s29" d="m21 242l7-6h1l-7 9h-1z"/>
		<path id="Path 236" class="s75" d="m463 239v-4h2l13 3-10 1z"/>
		<path id="Path 237" class="s80" d="m454 236l2-1h7v4l-3 3-6-2z"/>
		<path id="Path 238" class="s57" d="m406 236l2-1 8 7 2 10 5 4v4l1 4v3l-3 2-1 5v1l-11-5 4-4-7-2-2-22z"/>
		<path id="Path 239" class="s77" d="m84 238v-4h4v4z"/>
		<path id="Path 240" class="s35" d="m444 237v-5h3l1 4z"/>
		<path id="Path 241" class="s11" d="m421 234l3-2 4 10h-6z"/>
		<path id="Path 242" class="s50" d="m340 234l-3-2h1z"/>
		<path id="Path 243" class="s50" d="m230 243v-11h6l10 2 1 4 5 6 1 2-2 4h-5l-9-4z"/>
		<path id="Path 244" class="s81" d="m28 236l8-5-7 5z"/>
		<path id="Path 245" class="s17" d="m447 232l4-2h5v5l-2 1h-6z"/>
		<path id="Path 246" class="s17" d="m408 235l2-5 11 4 1 8h-6z"/>
		<path id="Path 247" class="s77" d="m246 234l2-4h6l-1 8h-6z"/>
		<path id="Path 248" class="s53" d="m88 234l1-4h5l2 2v10h-2l-6-4z"/>
		<path id="Path 249" class="s35" d="m456 230l8-1 1 6h-2-7z"/>
		<path id="Path 250" class="s78" d="m254 230l3-1 9 13-7 13-4-3-2-6-1-2 1-6z"/>
		<path id="Path 251" class="s76" d="m84 230v-1l5 1-1 4h-4z"/>
		<path id="Path 252" class="s64" d="m486 244l-2-16h7l2 16z"/>
		<path id="Path 253" class="s66" d="m442 229l6-1h3v2l-4 2h-3z"/>
		<path id="Path 254" class="s70" d="m72 238v-10h4l8 2v4 4l-2 1z"/>
		<path id="Path 255" class="s62" d="m36 231l4-3h2l6 10 4 8v7l-9 2-8-7-11 3-2-6 7-9z"/>
		<path id="Path 256" class="s76" d="m128 242l2-15 5 1 9 13-2 5h-5z"/>
		<path id="Path 257" class="s46" d="m382 227l6-1v2h-10v-1z"/>
		<path id="Path 258" class="s68" d="m364 229l3-3 11 2h10l7-2h1v14l4 20-10-5-8-3-3-4-13-8z"/>
		<path id="Path 259" class="s50" d="m195 237l-1-11h6l18 22h12l5 1 10 23-1 5-6 2h-16l-10-15-5-19z"/>
		<path id="Path 260" class="s54" d="m76 228v-2h8v3 1z"/>
		<path id="Path 261" class="s27" d="m59 232l2-6 11 2v10l-6 5z"/>
		<path id="Path 262" class="s51" d="m40 228l2-2v2z"/>
		<path id="Path 263" class="s64" d="m453 226l12-1-1 4-8 1h-5v-2z"/>
		<path id="Path 264" class="s60" d="m356 227l8 2 2 11h-11v-2z"/>
		<path id="Path 265" class="s74" d="m119 242l-4-17 9 17z"/>
		<path id="Path 266" class="s28" d="m410 230v-6h9l5 8-3 2z"/>
		<path id="Path 267" class="s74" d="m349 225l3-1 4 3-1 11h-7v-2-10z"/>
		<path id="Path 268" class="s39" d="m102 225l6-1h5l2 1 4 17 2 4-2 8-15-6-8-6v-10z"/>
		<path id="Path 269" class="s53" d="m338 224l5-1 5 3v10h-7l-1-2-2-2z"/>
		<path id="Path 270" class="s82" d="m155 224l9-1 8 14-6 4-12-6z"/>
		<path id="Path 271" class="s83" d="m53 224l7-1 1 3-2 6z"/>
		<path id="Path 272" class="s74" d="m396 226l3-4h4l3 14-2 6-8-2z"/>
		<path id="Path 273" class="s57" d="m448 222l4-1 1 5-2 2h-3z"/>
		<path id="Path 274" class="s33" d="m87 222h7v8h-5l-5-1v-3z"/>
		<path id="Path 275" class="s84" d="m391 224l6-4-2 6-7 2v-2z"/>
		<path id="Path 276" class="s63" d="m378 221v-1h2l2 2v5h-4z"/>
		<path id="Path 277" class="s8" d="m368 221l1-1h4l5 1v6 1l-11-2z"/>
		<path id="Path 278" class="s65" d="m330 222l6-2 1 2 1 2v8h-1z"/>
		<path id="Path 279" class="s70" d="m300 224v-4h4l8 1-2 9h-8z"/>
		<path id="Path 280" class="s65" d="m236 232v-12h12v10l-2 4z"/>
		<path id="Path 281" class="s54" d="m94 222l3-2h5v5l-6 7-2-2z"/>
		<path id="Path 282" class="s62" d="m53 224v-4l7 3z"/>
		<path id="Path 283" class="s11" d="m440 220l7-1 1 3v6l-6 1z"/>
		<path id="Path 284" class="s31" d="m76 226l1-7 9 1 1 2-3 4z"/>
		<path id="Path 285" class="s55" d="m452 221l14-3-1 7-12 1z"/>
		<path id="Path 286" class="s82" d="m399 222v-4l4 4z"/>
		<path id="Path 287" class="s85" d="m397 220l2-2v4l-3 4h-1z"/>
		<path id="Path 289" class="s46" d="m344 220l5-2 1 2-1 5-1 1-5-3z"/>
		<path id="Path 290" class="s43" d="m337 222l5-4 2 2-1 3-5 1z"/>
		<path id="Path 291" class="s82" d="m180 238l-2-20h12l4 8 1 11-9 3z"/>
		<path id="Path 292" class="s65" d="m164 223l6-5h8l2 20h-4l-4-1z"/>
		<path id="Path 293" class="s70" d="m108 224v-6h4l1 6z"/>
		<path id="Path 294" class="s27" d="m102 220l6-2v6l-6 1z"/>
		<path id="Path 295" class="s5" d="m386 218l-3-1h3z"/>
		<path id="Path 297" class="s49" d="m371 217l4-1v2l-2 2h-4z"/>
		<path id="Path 298" class="s48" d="m336 220l4-4 2 1v1l-5 4z"/>
		<path id="Path 299" class="s82" d="m312 219l5-3 6 6h6 1l7 10 3 2 1 2 1 6 2 17h-5l-30-9-7-20h8l2-9z"/>
		<path id="Path 300" class="s74" d="m266 242l8-1 2-25h4l20 8 2 6 7 20-2 3-9 1-11 10-27 7h-2v-13l1-3z"/>
		<path id="Path 301" class="s53" d="m248 220v-4h4l6 3-1 10-3 1h-6z"/>
		<path id="Path 302" class="s60" d="m228 226v-10h6l2 4v12h-6z"/>
		<path id="Path 303" class="s70" d="m228 226l-10-10h10z"/>
		<path id="Path 304" class="s65" d="m200 222l14-6h4l10 10 2 6v11 5h-12l-18-22z"/>
		<path id="Path 305" class="s78" d="m46 219l4-3 3 4v4l6 8 7 11-1 6-13 4v-7l3-6-3-1-4-1-6-10v-2z"/>
		<path id="Path 306" class="s71" d="m466 218l10-3 8 13 2 16v4l-2 8h-2l-4-2v-3-3-10l-13-3-1-6 1-4z"/>
		<path id="Path 307" class="s38" d="m386 217l4-2 5 1-4 8-3 2-6 1v-5l4-4z"/>
		<path id="Path 310" class="s86" d="m350 220l5-5h1l3 2-7 7-3 1z"/>
		<path id="Path 311" class="s46" d="m324 218l5-3v7h-6z"/>
		<path id="Path 312" class="s83" d="m304 216l4-1 4 4v2l-8-1z"/>
		<path id="Path 313" class="s35" d="m399 218l7-4h2l2 10v6l-2 5-2 1-3-14z"/>
		<path id="Path 314" class="s70" d="m258 219l18-3-2 25-8 1-9-13z"/>
		<path id="Path 315" class="s77" d="m112 217l8-3h6l4 13-2 15h-3-1l-9-17-2-1-1-6z"/>
		<path id="Path 316" class="s81" d="m46 219l4-5v2z"/>
		<path id="Path 317" class="s32" d="m351 215l3-2 1 2-5 5-1-2z"/>
		<path id="Path 319" class="s36" d="m329 215l2-2h5l4 1v2l-4 4-6 2h-1z"/>
		<path id="Path 320" class="s6" d="m450 218l19-6h7v3l-10 3-14 3-4 1-1-3z"/>
		<path id="Path 321" class="s44" d="m406 214l3-2-1 2z"/>
		<path id="Path 322" class="s77" d="m200 222v-10h10l4 4z"/>
		<path id="Path 323" class="s76" d="m155 224l-5-12h6l8 2h6v4l-6 5z"/>
		<path id="Path 324" class="s40" d="m375 216l5-5h2l1 4-6 3h-2z"/>
		<path id="Path 325" class="s43" d="m291 212l5-1h2l-1 4z"/>
		<path id="Path 326" class="s53" d="m190 212l4-1 6 1v10 4h-6l-4-8z"/>
		<path id="Path 327" class="s78" d="m136 212h14l5 12-1 11 12 6v4l-4 8h-2l-16-12-9-13z"/>
		<path id="Path 328" class="s74" d="m128 212l6-1 2 1-1 16-5-1-4-13z"/>
		<path id="Path 329" class="s29" d="m50 214l23-2 4 7-1 7v2h-4l-11-2-1-3-7-3-3-4z"/>
		<path id="Path 332" class="s29" d="m298 211l3-1h1l2 6v4h-4l-3-5z"/>
		<path id="Path 333" class="s47" d="m234 216l2-6 8 2 4 4v4h-12z"/>
		<path id="Path 334" class="s78" d="m170 214v-4h8l6 1 6 1v6h-12-8z"/>
		<path id="Path 335" class="s70" d="m156 212v-2h2 6v4z"/>
		<path id="Path 336" class="s87" d="m73 212l11-2 2 10-9-1z"/>
		<path id="Path 337" class="s49" d="m364 211l6-1 2 1-3 4-6 4 5 2-1 5-3 3-8-2-4-3 7-7z"/>
		<path id="Path 339" class="s35" d="m331 213l4-4 1 3v1z"/>
		<path id="Path 340" class="s33" d="m280 213l3-4 8 3 6 3 3 5v4l-20-8z"/>
		<path id="Path 341" class="s67" d="m409 212l7-4 3 16h-9l-2-10z"/>
		<path id="Path 342" class="s17" d="m382 211l6-3-1 4-4 3z"/>
		<path id="Path 344" class="s49" d="m317 212l7-4 1 2-1 8-1 4-6-6z"/>
		<path id="Path 345" class="s36" d="m309 209l4-1 3 2 1 2v4l-5 3-4-4z"/>
		<path id="Path 346" class="s64" d="m302 210l5-2 2 1-1 6-4 1z"/>
		<path id="Path 347" class="s83" d="m252 210l12-1 4 1 6-2 6 5v3h-4l-18 3-6-3z"/>
		<path id="Path 348" class="s74" d="m164 210l2-2 4 2v4h-6z"/>
		<path id="Path 349" class="s16" d="m112 210l2-2 6 6-8 3z"/>
		<path id="Path 350" class="s88" d="m84 210l11-1 2 11-3 2h-7l-1-2z"/>
		<path id="Path 351" class="s88" d="m340 214l7-7h1l2 2-2 4-6 4-2-1z"/>
		<path id="Path 353" class="s59" d="m236 208v-1h4l4 1v4l-8-2z"/>
		<path id="Path 354" class="s51" d="m244 208l3-2 2 1 3 3v6h-4l-4-4z"/>
		<path id="Path 356" class="s46" d="m313 208l2-3 2 2-1 3z"/>
		<path id="Path 357" class="s54" d="m264 209l3-4 1 2v3z"/>
		<path id="Path 358" class="s12" d="m227 207v-2h2v1z"/>
		<path id="Path 359" class="s29" d="m95 209l12-4 5 5v7 1h-4l-6 2h-5z"/>
		<path id="Path 360" class="s40" d="m468 206l8-2v8h-7z"/>
		<path id="Path 361" class="s40" d="m356 210l6-6h1l3 2-4 4-6 5h-1l-1-2 1-2z"/>
		<path id="Path 362" class="s61" d="m107 205l7-1v4l-2 2z"/>
		<path id="Path 363" class="s61" d="m416 208l10-5 5 2 9 15 2 9 2 3v5l10 3 6 2v4h-8-6-8-5-5v-4l-4-10-5-8z"/>
		<path id="Path 364" class="s35" d="m324 208l3-5h1l2 2-1 2-4 3z"/>
		<path id="Path 365" class="s36" d="m268 207l3-4h1l2 1v4l-6 2z"/>
		<path id="Path 366" class="s51" d="m210 204l6-1 11 4 2-1 7 2v2l-2 6h-6-10-4l-4-4z"/>
		<path id="Path 367" class="s18" d="m178 210v-7h5l1 8z"/>
		<path id="Path 368" class="s84" d="m114 204l6-1h6l2 9-2 2h-6l-6-6z"/>
		<path id="Path 371" class="s24" d="m315 204l3-2 2 1-3 4-2-2z"/>
		<path id="Path 372" class="s83" d="m267 205l1-3 3 1-3 4z"/>
		<path id="Path 373" class="s36" d="m240 207l2-5h5v4l-3 2z"/>
		<path id="Path 374" class="s2" d="m388 202l1-1 5 9h-1l-6 2 1-4z"/>
		<path id="Path 375" class="s24" d="m335 207l4-6 2 1 2 3-7 7-1-3z"/>
		<path id="Path 377" class="s10" d="m282 205l6-4 2 1 6 9-5 1-8-3z"/>
		<path id="Path 378" class="s8" d="m230 203l4-2h2v6 1l-7-2v-1z"/>
		<path id="Path 379" class="s88" d="m126 203l7-2 1 1v9l-6 1z"/>
		<path id="Path 380" class="s57" d="m426 203l5-3v5z"/>
		<path id="Path 381" class="s24" d="m370 210l15-10v2l-6 6-7 3z"/>
		<path id="Path 383" class="s38" d="m290 202l3-2 2 1h1l4 3 2 1-1 5-3 1h-2z"/>
		<path id="Path 384" class="s25" d="m251 205l9-5h3l5 2-1 3-3 4-12 1-3-3z"/>
		<path id="Path 385" class="s35" d="m209 204l1-4h6v3l-6 1z"/>
		<path id="Path 386" class="s72" d="m157 202l1-2h4l4 2v6l-2 2h-6z"/>
		<path id="Path 387" class="s0" d="m339 201l3-1-1 2z"/>
		<path id="Path 389" class="s45" d="m295 201l1-2v2z"/>
		<path id="Path 390" class="s59" d="m198 201l5-2 6 5h1v8h-10l-6-1v-6z"/>
		<path id="Path 391" class="s30" d="m183 203l3-4 3 3 5 3v6l-4 1-6-1z"/>
		<path id="Path 392" class="s29" d="m146 202l3-3 4 1 4 2 1 8h-2z"/>
		<path id="Path 393" class="s49" d="m385 200v-2h1l3 3-1 1h-3z"/>
		<path id="Path 394" class="s61" d="m357 199l4 1-2 2-4 4-4 3h-1l-2-2 4-4 3-3z"/>
		<path id="Path 395" class="s71" d="m328 203l5-5 2 2-5 5z"/>
		<path id="Path 396" class="s71" d="m307 199l3-1 2 1v2l-5 7-5 2h-1l1-5z"/>
		<path id="Path 398" class="s28" d="m236 201l3-3h3v4l-2 5h-4z"/>
		<path id="Path 399" class="s69" d="m189 202l4-4 5 3-4 4z"/>
		<path id="Path 400" class="s51" d="m169 200l4-2h3l2 5v7h-8l-4-2v-6z"/>
		<path id="Path 401" class="s11" d="m136 201v-3l5 2z"/>
		<path id="Path 402" class="s12" d="m354 198l3 1-2 1z"/>
		<path id="Path 403" class="s84" d="m268 202l3-5 2 2-1 4h-1z"/>
		<path id="Path 404" class="s63" d="m476 204l5-8 10 32h-7l-8-13v-3z"/>
		<path id="Path 405" class="s55" d="m431 200l8-4 11 22-3 1-7 1-9-15z"/>
		<path id="Path 407" class="s21" d="m321 197l3 3-4 3-2-1z"/>
		<path id="Path 408" class="s4" d="m283 201l7-5-2 5-6 4z"/>
		<path id="Path 409" class="s89" d="m216 200l1-4h3 3l3 6 1 3v2l-11-4z"/>
		<path id="Path 410" class="s64" d="m163 197l2-1 4 4-3 2-4-2z"/>
		<path id="Path 411" class="s35" d="m158 200l4-4 1 1-1 3z"/>
		<path id="Path 412" class="s12" d="m363 204l11-9 1 3-9 8z"/>
		<path id="Path 414" class="s71" d="m274 204l8-9 1 6-1 4 1 4-3 4-6-5z"/>
		<path id="Path 415" class="s83" d="m210 196l2-1 5 1-1 4h-6z"/>
		<path id="Path 416" class="s8" d="m146 202l1-7h2v4z"/>
		<path id="Path 417" class="s21" d="m133 201v-6h2l1 3v3l-2 1z"/>
		<path id="Path 418" class="s55" d="m347 195l3-1 1 2-1 2-6 7h-1l-2-3 1-2 2-1 3-3z"/>
		<path id="Path 420" class="s17" d="m271 197l2-3 2 1-2 4z"/>
		<path id="Path 421" class="s48" d="m261 195l1-1h3l-2 6h-3z"/>
		<path id="Path 423" class="s24" d="m203 199v-5l7 2v4l-1 4z"/>
		<path id="Path 424" class="s40" d="m298 198l2-5h3 3l-1 2-2 3-3 6-4-3v-2z"/>
		<path id="Path 425" class="s28" d="m247 202l5-9h2v3l-3 9-2 2-2-1z"/>
		<path id="Path 426" class="s35" d="m239 198l3-5 2 1-2 4z"/>
		<path id="Path 427" class="s66" d="m194 194h9v5l-5 2-5-3z"/>
		<path id="Path 428" class="s16" d="m173 198l3-5 2 1-2 4z"/>
		<path id="Path 429" class="s22" d="m150 194l4-1-1 7-4-1v-4z"/>
		<path id="Path 430" class="s19" d="m374 195h8l-7 3z"/>
		<path id="Path 431" class="s48" d="m230 203l4-11h2l-2 9z"/>
		<path id="Path 432" class="s35" d="m187 196l6-4 1 2-1 4-4 4-3-3z"/>
		<path id="Path 433" class="s10" d="m462 196l-6-5h6z"/>
		<path id="Path 434" class="s24" d="m449 192l4-1h3l6 5 6 10 1 6-19 6-11-22z"/>
		<path id="Path 435" class="s15" d="m300 193l-1-2 4 1v1z"/>
		<path id="Path 436" class="s40" d="m291 193l3-2h3v1l-2 4-1 2-1 2-3 2-2-1 2-5v-1z"/>
		<path id="Path 437" class="s46" d="m288 193l1-2 2 2-1 2v1l-7 5-1-6 2-2z"/>
		<path id="Path 438" class="s0" d="m277 195l7-4v2l-2 2-8 9-2-1 1-4 2-4z"/>
		<path id="Path 439" class="s38" d="m178 194l4-3 5 5-1 3-3 4h-5l-2-5z"/>
		<path id="Path 440" class="s86" d="m154 193l7-1 1 4-4 4-1 2-4-2z"/>
		<path id="Path 441" class="s64" d="m462 191l3-1h4l4 1h2l6 5-5 8-8 2-6-10z"/>
		<path id="Path 442" class="s3" d="m347 195l6-5-3 4z"/>
		<path id="Path 443" class="s35" d="m316 194l2-3-1 3z"/>
		<path id="Path 444" class="s71" d="m284 191l1-1h1 3v1l-1 2h-4z"/>
		<path id="Path 445" class="s90" d="m212 195l2-5h4l2 6h-3z"/>
		<path id="Path 446" class="s83" d="m138 191l5-1 2 3 2 2-1 7 10 8v2h-6-14l-2-1v-9l2-1 5-1-5-2-1-3z"/>
		<path id="Path 447" class="s2" d="m218 190v-1l5 7h-3z"/>
		<path id="Path 448" class="s91" d="m145 193l5-4v5l-1 1h-2z"/>
		<path id="Path 449" class="s84" d="m294 191l-3-3h1 4l1 3z"/>
		<path id="Path 450" class="s1" d="m289 190l2-2 3 3-3 2-2-2z"/>
		<path id="Path 451" class="s48" d="m252 193l1-5h1l2 1-2 4z"/>
		<path id="Path 453" class="s59" d="m163 191l4-3 1 2-3 6-2 1-1-1-1-4z"/>
		<path id="Path 454" class="s12" d="m368 189l1-2 5 6-13 7-4-1z"/>
		<path id="Path 455" class="s37" d="m285 190v-3l1 3z"/>
		<path id="Path 456" class="s6" d="m168 190l4-3 4 6-3 5-4 2-4-4z"/>
		<path id="Path 457" class="s28" d="m333 187l-8 8 7-9z"/>
		<path id="Path 458" class="s61" d="m274 189l4-3h3l-4 9h-2l-2-1z"/>
		<path id="Path 460" class="s40" d="m262 194l2-8h2l2 1-3 7z"/>
		<path id="Path 461" class="s51" d="m150 189l12-3 1 5-2 1-7 1-4 1z"/>
		<path id="Path 462" class="s90" d="m134 187l4 4-3 4h-2z"/>
		<path id="Path 463" class="s1" d="m292 188v-3h1l3 2v1z"/>
		<path id="Path 464" class="s57" d="m359 185l4-1-7 8-3 3-1 1h-1l-1-2 3-4z"/>
		<path id="Path 465" class="s0" d="m352 195h1v1h-1z"/>
		<path id="Path 466" class="s0" d="m264 186v-2l2 2z"/>
		<path id="Path 467" class="s80" d="m214 190l-5-6 9 5v1z"/>
		<path id="Path 468" class="s92" d="m184 185l6-1 5 4-2 4-6 4-5-5z"/>
		<path id="Path 469" class="s48" d="m285 187l5-4 2 2v3h-1l-2 2h-3z"/>
		<path id="Path 471" class="s93" d="m172 187l4-5 7 2 1 1-2 6-4 3-2-1z"/>
		<path id="Path 472" class="s71" d="m296 187l4-6h1l2 2-4 8-2 1v-1l-1-3z"/>
		<path id="Path 473" class="s37" d="m281 186l4-5 5 1v1l-5 4z"/>
		<path id="Path 474" class="s40" d="m254 188l4-7h3v1l-5 7z"/>
		<path id="Path 475" class="s84" d="m246 182l1-1 2 1-2 6-3 6-2-1z"/>
		<path id="Path 476" class="s94" d="m134 187l10-6 1 2-2 7-5 1z"/>
		<path id="Path 477" class="s0" d="m352 183l1-3 5 4z"/>
		<path id="Path 478" class="s28" d="m333 198l18-18h1 1l-1 3-13 14-2 2-2 1z"/>
		<path id="Path 480" class="s67" d="m234 192l7-12-5 12z"/>
		<path id="Path 481" class="s55" d="m201 182l8 2 5 6-2 5-2 1-7-2h-9l-1-2 2-4z"/>
		<path id="Path 482" class="s1" d="m351 180l-4-1 5 1z"/>
		<path id="Path 483" class="s90" d="m183 184l6-5 1 5-6 1z"/>
		<path id="Path 484" class="s90" d="m167 188l9-6-4 5-4 3z"/>
		<path id="Path 485" class="s90" d="m145 183l12-4 6 1-1 6-12 3-5 4-2-3z"/>
		<path id="Path 486" class="s92" d="m144 181l4-3h9v1l-12 4z"/>
		<path id="Path 487" class="s17" d="m313 191l14-14 2 1-11 13-2 3-4 5-2-1v-2l3-4z"/>
		<path id="Path 488" class="s17" d="m310 182l5-5 3 1-12 15h-3v-1l2-3 3-5z"/>
		<path id="Path 489" class="s40" d="m290 182l3-5h1l2 2-3 6h-1l-2-2z"/>
		<path id="Path 490" class="s28" d="m278 186l6-9h2v1l-1 2v1l-4 5z"/>
		<path id="Path 491" class="s45" d="m148 178l9-1v1z"/>
		<path id="Path 492" class="s17" d="m332 186l8-10h1 3v2l-11 9z"/>
		<path id="Path 493" class="s37" d="m286 177l1-1-1 2z"/>
		<path id="Path 495" class="s80" d="m173 177l28 5-6 6-5-4-1-5-6 5-7-2-9 6-4 3-1-5 1-6 3-2h5z"/>
		<path id="Path 496" class="s64" d="m157 177l9 1-3 2-6-1v-1z"/>
		<path id="Path 498" class="s3" d="m299 176h5l-3 5h-1l-3-2z"/>
		<path id="Path 499" class="s11" d="m327 177l7-2-5 3z"/>
		<path id="Path 500" class="s40" d="m304 176l4-3 1 2-6 8-2-2z"/>
		<path id="Path 501" class="s84" d="m294 177l4-6 2 1-1 4-2 3h-1z"/>
		<path id="Path 502" class="s67" d="m263 172h3l-2 4-3 5h-3z"/>
		<path id="Path 503" class="s61" d="m247 181l7-10-5 11z"/>
		<path id="Path 504" class="s11" d="m315 177l9-7-6 8z"/>
		<path id="Path 505" class="s66" d="m284 177v-7h1 3v4l-1 2-1 1z"/>
		<path id="Path 509" class="s19" d="m310 169h6-1l-6 6-1-2z"/>
		<path id="Path 510" fill-rule="evenodd" class="s3" d="m282 168l1-1 5 2v1h-3v-1h-1v1z"/>
		<path id="Path 512" class="s19" d="m298 170l8-4-6 6-2-1z"/>
		<path id="Path 514" class="s19" d="m288 169h5l-2 3-3 2v-4z"/>
		<path id="Path 515" class="s19" d="m262 171l10-5-5 5-1 1h-3z"/>
		<path id="Path 516" class="s71" d="m275 168l8-1-1 1-12 18-2 1-2-1-2-2-2-1 5-3h2l4-8z"/>
	</g>
</svg>