<svg version="1.2" xmlns="http://www.w3.org/2000/svg" viewBox="0 0 1000 1000" width="1000" height="1000">
	<title>Pylodictis_olivaris</title>
	<style>
		.s0 { opacity: .1;fill: #f7f7f4 } 
		.s1 { opacity: .5;fill: #afb1a3 } 
		.s2 { opacity: .3;fill: #f6f6f3 } 
		.s3 { opacity: .8;fill: #d5d4c8 } 
		.s4 { opacity: .7;fill: #a7aa9a } 
		.s5 { opacity: .5;fill: #e2e1da } 
		.s6 { opacity: .1;fill: #cac8b8 } 
		.s7 { opacity: .1;fill: #e3e2db } 
		.s8 { fill: #7f826c } 
		.s9 { fill: #7b7c64 } 
		.s10 { fill: #747c6a } 
		.s11 { fill: #929178 } 
		.s12 { opacity: .3;fill: #cdccbf } 
		.s13 { fill: #77755a } 
		.s14 { opacity: .7;fill: #f1f1ee } 
		.s15 { opacity: .5;fill: #cccbbd } 
		.s16 { opacity: .5;fill: #f6f6f3 } 
		.s17 { opacity: .9;fill: #969d90 } 
		.s18 { fill: #8a9381 } 
		.s19 { fill: #878c76 } 
		.s20 { fill: #535a46 } 
		.s21 { fill: #4b503d } 
		.s22 { fill: #5d6e61 } 
		.s23 { fill: #888468 } 
		.s24 { fill: #535e4e } 
		.s25 { fill: #516355 } 
		.s26 { opacity: .9;fill: #8d9486 } 
		.s27 { opacity: 1;fill: #65624d } 
		.s28 { fill: #59614d } 
		.s29 { fill: #6e7561 } 
		.s30 { opacity: .1;fill: #a9ac9b } 
		.s31 { opacity: .1;fill: #818778 } 
		.s32 { opacity: .3;fill: #e4e3dc } 
		.s33 { fill: #9da596 } 
		.s34 { fill: #656e5d } 
		.s35 { fill: #908b6f } 
		.s36 { opacity: .5;fill: #959b8c } 
		.s37 { opacity: .3;fill: #acb0a2 } 
		.s38 { fill: #7b8471 } 
		.s39 { fill: #454c37 } 
		.s40 { opacity: .5;fill: #656c5c } 
		.s41 { opacity: .7;fill: #e3e1d9 } 
		.s42 { fill: #374335 } 
		.s43 { fill: #5d6754 } 
		.s44 { opacity: .9;fill: #e6e5df } 
		.s45 { opacity: .7;fill: #c3c2b3 } 
		.s46 { fill: #5a6a5d } 
		.s47 { opacity: 1;fill: #c2c3b5 } 
		.s48 { opacity: 1;fill: #d2cfbe } 
		.s49 { opacity: 1;fill: #bbbbab } 
		.s50 { opacity: 1;fill: #a7ad9e } 
		.s51 { fill: #a7a58e } 
		.s52 { opacity: .2;fill: #565f4f } 
		.s53 { fill: #363e30 } 
		.s54 { fill: #3c4c40 } 
		.s55 { fill: #3d4633 } 
		.s56 { fill: #435144 } 
		.s57 { fill: #9f9e85 } 
		.s58 { fill: #2d382b } 
		.s59 { fill: #9b977a } 
		.s60 { fill: #4a5b4e } 
		.s61 { opacity: .3;fill: #929887 } 
		.s62 { fill: #6a6e56 } 
		.s63 { fill: #4e5542 } 
		.s64 { fill: #55665a } 
		.s65 { fill: #617263 } 
		.s66 { fill: #697664 } 
		.s67 { fill: #4d5f52 } 
		.s68 { opacity: .7;fill: #8e9486 } 
		.s69 { opacity: 1;fill: #748274 } 
		.s70 { fill: #657769 } 
		.s71 { fill: #6e7e71 } 
		.s72 { fill: #768575 } 
		.s73 { fill: #475648 } 
		.s74 { fill: #828e7e } 
		.s75 { fill: #6b7b6c } 
		.s76 { fill: #7d8a79 } 
		.s77 { fill: #969d8d } 
		.s78 { fill: #636851 } 
		.s79 { fill: #909787 } 
		.s80 { opacity: 1;fill: #b0b4a7 } 
		.s81 { opacity: 1;fill: #ded8c9 } 
		.s82 { fill: #d0c7af } 
		.s83 { fill: #bbb394 } 
		.s84 { fill: #b1ad96 } 
		.s85 { opacity: .4;fill: #7b8173 } 
		.s86 { fill: #dccfb4 } 
		.s87 { fill: #f0e3cd } 
		.s88 { fill: #e7e0d1 } 
		.s89 { fill: #cbbe9f } 
		.s90 { fill: #ada27e } 
		.s91 { fill: #f1e8d9 } 
		.s92 { opacity: .9;fill: #656d5d } 
		.s93 { fill: #f6f1e4 } 
		.s94 { fill: #e7d9bd } 
		.s95 { opacity: .8;fill: #f3f2ef } 
	</style>
	<g id="Background">
		<path id="Path 0" class="s0" d="m105 514h1v1h-1z"/>
		<path id="Path 1" class="s1" d="m254 467l3-1-1 2-6 2h-4-5z"/>
		<path id="Path 2" class="s2" d="m893 412h1v1h-1z"/>
		<path id="Path 3" class="s3" d="m893 413l1-1h13v2h-7-7z"/>
		<path id="Path 4" class="s4" d="m907 414v-2h14v2h-1-12z"/>
		<path id="Path 5" class="s5" d="m921 414v-2h3v1 1z"/>
		<path id="Path 6" class="s6" d="m878 417l7-4h8v1z"/>
		<path id="Path 7" class="s7" d="m924 414v-1l3 2z"/>
		<path id="Path 8" class="s8" d="m878 417l15-3h7l2 10-8 10-6 1-3-10-5-1-3-6v-1z"/>
		<path id="Path 9" class="s9" d="m902 424l-2-10h7 1v10z"/>
		<path id="Path 10" class="s10" d="m908 424v-10h12l-3 9z"/>
		<path id="Path 11" class="s11" d="m917 423l3-9h1 3l3 1 3 3 2 10-12-2z"/>
		<path id="Path 12" class="s7" d="m930 418l-3-3h4l1 3z"/>
		<path id="Path 13" class="s12" d="m868 420l9-3v1l-7 2z"/>
		<path id="Path 14" class="s13" d="m870 420l7-2 3 6 5 1 3 10-2 15-2 4h-11l-1 4h-4l-2-6h-10v-6l-4-4 2-16 6-2z"/>
		<path id="Path 15" class="s4" d="m932 428l-2-10h2l2 14v1z"/>
		<path id="Path 16" class="s14" d="m451 422l6-2v2h-5z"/>
		<path id="Path 17" class="s15" d="m457 422v-2h10v2h-7z"/>
		<path id="Path 18" class="s16" d="m467 422v-2l4 2z"/>
		<path id="Path 19" class="s17" d="m861 422l7-2h2l-10 4z"/>
		<path id="Path 20" class="s6" d="m433 425l12-3-1 2-9 2h-2z"/>
		<path id="Path 21" class="s17" d="m444 424l1-2h6 1v2l-2 1h-5z"/>
		<path id="Path 22" class="s18" d="m452 424v-2h5 3v2z"/>
		<path id="Path 23" class="s9" d="m460 424v-2h7 4 1l4 3 2 5h-8z"/>
		<path id="Path 24" class="s0" d="m476 425l-4-3h4l1 3z"/>
		<path id="Path 25" class="s6" d="m849 427l12-5-1 2-6 2z"/>
		<path id="Path 26" class="s19" d="m908 424l9-1 3 3-2 16-3 3h-7l-10 7-12-2 2-15 6-1 8-10z"/>
		<path id="Path 27" class="s19" d="m435 426l9-2 1 1-2 3h-5z"/>
		<path id="Path 28" class="s20" d="m450 425l2-1h8l10 6 2 11v7l-12 2h-6l-4-14z"/>
		<path id="Path 29" class="s12" d="m428 427l5-2v1z"/>
		<path id="Path 30" class="s21" d="m443 428l2-3h5v11l-5-1z"/>
		<path id="Path 31" class="s3" d="m478 430l-2-5h1l4 4 1 8v1l-2-1z"/>
		<path id="Path 32" class="s22" d="m428 427l5-1h2l3 2-4 3v9h-10l-1-11 4-2z"/>
		<path id="Path 33" class="s9" d="m849 427l5-1-2 16 4 4v6l-10-3-2-3h-7l-2 4h-3l-6-6v-11l1-1h2z"/>
		<path id="Path 34" class="s23" d="m918 442l2-16 12 2 2 5v12 3l-8-2-2-4z"/>
		<path id="Path 35" class="s12" d="m416 430l11-3-4 2-4 1z"/>
		<path id="Path 36" class="s1" d="m829 432l6-4 14-1z"/>
		<path id="Path 37" class="s24" d="m434 440v-9l4-3h5l2 7 5 1 4 14h-18z"/>
		<path id="Path 38" class="s25" d="m419 430l4-1 1 11h-4l-5-7z"/>
		<path id="Path 39" class="s26" d="m409 432l7-2h3l-4 3-5 2-8 1z"/>
		<path id="Path 40" class="s27" d="m472 441l-2-11h8l2 7z"/>
		<path id="Path 41" class="s6" d="m398 437l3-4 8-1-7 4z"/>
		<path id="Path 42" class="s6" d="m818 434l9-2-1 1-4 1z"/>
		<path id="Path 43" class="s16" d="m934 433v-1l2 13h-2z"/>
		<path id="Path 44" class="s28" d="m410 435l5-2 5 7-2 9h-6z"/>
		<path id="Path 45" class="s29" d="m822 434l4-1v11h-4-10l-1-5 2-2h1z"/>
		<path id="Path 46" class="s1" d="m814 437l4-3h4z"/>
		<path id="Path 47" class="s20" d="m402 436l8-1 2 14-6 1-15-2-2-4 2-4 2-1 4-2h1z"/>
		<path id="Path 48" class="s30" d="m698 436l11-1v1h-3z"/>
		<path id="Path 49" class="s31" d="m709 436v-1h11v1h-8z"/>
		<path id="Path 50" class="s32" d="m720 436v-1l12 3 2 5-10-6z"/>
		<path id="Path 51" class="s33" d="m698 437v-1h8l-2 2z"/>
		<path id="Path 52" class="s29" d="m704 438l2-2h3 3l1 10 3 2v4l-12-4z"/>
		<path id="Path 53" class="s10" d="m716 448l-3-2-1-10h8l4 1-2 11z"/>
		<path id="Path 54" class="s32" d="m393 438l4-1-4 2z"/>
		<path id="Path 55" class="s29" d="m472 441l8-4 2 1 5 8 1 2-11 1-5-1z"/>
		<path id="Path 56" class="s5" d="m482 438v-1l5 8v1z"/>
		<path id="Path 57" class="s12" d="m684 438l9-1-1 1-6 1h-2z"/>
		<path id="Path 58" class="s28" d="m692 438l1-1h3l-2 16h-12v-13l2-1h2z"/>
		<path id="Path 59" class="s34" d="m694 453l2-16h2l6 1v10l12 4 4 6v2h-3l-9-3z"/>
		<path id="Path 60" class="s35" d="m722 448l2-11 10 6v7z"/>
		<path id="Path 61" class="s12" d="m801 442l4-4 8-1-2 2z"/>
		<path id="Path 62" class="s14" d="m381 442l9-4v2z"/>
		<path id="Path 63" class="s36" d="m390 440v-2h3v1l-2 1z"/>
		<path id="Path 64" class="s2" d="m669 440l6-2v2z"/>
		<path id="Path 65" class="s37" d="m675 440v-2h9v1l-2 1z"/>
		<path id="Path 66" class="s13" d="m801 442l10-3 1 5-3 4h-9l-1-5 1-1z"/>
		<path id="Path 67" class="s38" d="m381 442l9-2h1l-2 4 2 4h-11v-4-2z"/>
		<path id="Path 68" class="s39" d="m418 449l2-9h4 10l2 10-4 3v5l8 7 7-5h13l4 2v5l-4 3-18 1-18-1h-8l-2-2v-10z"/>
		<path id="Path 69" class="s16" d="m649 442l7-2v2h-1z"/>
		<path id="Path 70" class="s1" d="m656 442v-2h7v1 1z"/>
		<path id="Path 71" class="s40" d="m663 441v-1l4 1z"/>
		<path id="Path 72" class="s20" d="m667 441l2-1h6 7v13l-3 3h-7l-2-5-5-1-2-8v-1z"/>
		<path id="Path 73" class="s3" d="m373 443l7-1v2h-7z"/>
		<path id="Path 74" class="s6" d="m626 443l9-1v2h-2-7z"/>
		<path id="Path 75" class="s41" d="m635 444v-2h8v2z"/>
		<path id="Path 76" class="s4" d="m643 444v-2h6 6z"/>
		<path id="Path 77" class="s42" d="m643 444l12-2h1 7l2 8 5 1 2 5v12h-8-4-8-16-7-13-9l-19-2v-7l-4-5v-6h13l17-2h4 7l8-2h2z"/>
		<path id="Path 78" class="s12" d="m788 447l3-4 9-1-1 1-10 4z"/>
		<path id="Path 79" class="s43" d="m915 445l3-3h6l2 4v4h-6z"/>
		<path id="Path 80" class="s7" d="m360 444l6-1v1z"/>
		<path id="Path 81" class="s30" d="m366 444v-1h7v1h-1-4z"/>
		<path id="Path 82" class="s0" d="m618 445l8-2v1h-1z"/>
		<path id="Path 83" class="s16" d="m734 450v-7l2 10h-2z"/>
		<path id="Path 84" class="s8" d="m789 447l10-4 1 5v6h-10z"/>
		<path id="Path 85" class="s30" d="m355 445l5-1v2h-5z"/>
		<path id="Path 86" class="s3" d="m360 446v-2h6 2z"/>
		<path id="Path 87" class="s29" d="m360 446l8-2h4v6l-7 4-9 2h-4v-9l3-1z"/>
		<path id="Path 88" class="s10" d="m372 450v-6h1 7v4z"/>
		<path id="Path 89" class="s44" d="m618 445l7-1v2h-7z"/>
		<path id="Path 90" class="s45" d="m625 446v-2h1 7z"/>
		<path id="Path 91" class="s23" d="m809 448l3-4h10v12l-4 2v4h-10v-8z"/>
		<path id="Path 92" class="s13" d="m822 456v-12h4l6 6v6z"/>
		<path id="Path 93" class="s7" d="m349 447l6-2v1l-3 1z"/>
		<path id="Path 94" class="s12" d="m487 446v-1h4v1z"/>
		<path id="Path 95" class="s0" d="m491 446v-1l6 2z"/>
		<path id="Path 96" class="s7" d="m508 446l73-1v1h-60-3z"/>
		<path id="Path 97" class="s6" d="m581 446v-1h29v1h-13z"/>
		<path id="Path 98" class="s31" d="m610 446v-1h8v1h-4z"/>
		<path id="Path 99" class="s46" d="m898 452l10-7h7l5 5h6l2 11h-4l-4 7h-6l-2-4h-14z"/>
		<path id="Path 100" class="s15" d="m934 448v-3h2v20h-2v-4z"/>
		<path id="Path 101" class="s47" d="m488 448l-1-2h4l6 1v1h-3z"/>
		<path id="Path 102" class="s48" d="m508 447v-1h10v2h-10z"/>
		<path id="Path 103" class="s49" d="m518 448v-2h3v2z"/>
		<path id="Path 104" class="s47" d="m521 448v-2h60v2h-5-6-11-12-7-12z"/>
		<path id="Path 105" class="s49" d="m581 448v-2h16v2h-13z"/>
		<path id="Path 106" class="s50" d="m597 448v-2h13 4z"/>
		<path id="Path 107" class="s51" d="m835 450l2-4h7l2 3-6 5z"/>
		<path id="Path 108" class="s34" d="m926 450v-4l8 2v13h-1-5z"/>
		<path id="Path 109" class="s7" d="m341 448l6-1-6 2z"/>
		<path id="Path 110" class="s10" d="m341 449l6-2h2 3v9h-10-4v-6z"/>
		<path id="Path 111" class="s52" d="m497 448v-1h11v1z"/>
		<path id="Path 112" class="s32" d="m783 448l3-1-3 2z"/>
		<path id="Path 113" class="s34" d="m783 449l3-2h2 1l1 7 1 12-5 5v7h-5l-2 4h-10l-1 4-24-2-9-10h-13v-10h8 20l10-2 6-1 6-3v-4l2-2z"/>
		<path id="Path 114" class="s37" d="m330 450l11-2v1l-3 1-8 1z"/>
		<path id="Path 115" class="s42" d="m372 450l8-2h11l15 2 2 8h6v10h-7-8l-1 4h-4l-20-3-4-6h-4l-1-9z"/>
		<path id="Path 116" class="s53" d="m460 450l12-2 5 1v6l-5 3v4h-8l-4-2z"/>
		<path id="Path 117" class="s42" d="m477 449l11-1h6v16l-2 2h-16l-4-4v-4l5-3z"/>
		<path id="Path 118" class="s54" d="m494 464v-16h3 11 10 3 7l1 7-5 7v7h-10l-2-3z"/>
		<path id="Path 119" class="s42" d="m529 455l-1-7h12v6z"/>
		<path id="Path 120" class="s55" d="m540 454v-6h7l-1 5z"/>
		<path id="Path 121" class="s56" d="m540 454l6-1 1-5h12l-1 16h-13l-1 4-20 1v-7l5-7z"/>
		<path id="Path 122" class="s54" d="m558 464l1-16h11v6l-2 12-2 2h-6z"/>
		<path id="Path 123" class="s21" d="m570 454v-6h6v6z"/>
		<path id="Path 124" class="s39" d="m576 454v-6h5 3v6z"/>
		<path id="Path 125" class="s19" d="m716 452v-4h6l12 2v3l-2 4v3h13l-15 1-2-3h-8z"/>
		<path id="Path 126" class="s12" d="m774 452l9-4v1z"/>
		<path id="Path 127" class="s57" d="m800 454v-6h9l-1 6z"/>
		<path id="Path 128" class="s58" d="m406 450l6-1h6l-4 9h-6z"/>
		<path id="Path 129" class="s35" d="m840 454l6-5 10 3h10l2 6v6l-2 4h-17l-4-4-5-6z"/>
		<path id="Path 130" class="s5" d="m324 452l6-2v1z"/>
		<path id="Path 131" class="s29" d="m330 451l8-1v6l-11 1-5 4-14 2-5-6 5-2 6-1 9-2h1z"/>
		<path id="Path 132" class="s42" d="m460 460h-13l-7 5-8-7v-5l4-3h18 6z"/>
		<path id="Path 133" class="s59" d="m832 456v-6h3l5 4v4h-3z"/>
		<path id="Path 134" class="s34" d="m884 454l2-4 12 2v12l-2 2h-10z"/>
		<path id="Path 135" class="s30" d="m314 453l9-1-9 2z"/>
		<path id="Path 136" class="s7" d="m764 455l7-3-1 2-5 1z"/>
		<path id="Path 137" class="s12" d="m770 454l1-2h3l-2 2z"/>
		<path id="Path 138" class="s6" d="m308 455l6-2v1z"/>
		<path id="Path 139" class="s39" d="m679 456l3-3h12l14 4v5l-8-1-2-3-18 2z"/>
		<path id="Path 140" class="s53" d="m356 456l9-2 1 9h-5l-5-1z"/>
		<path id="Path 141" class="s56" d="m568 466l2-12h6 8l4 5v7l-10 1z"/>
		<path id="Path 142" class="s60" d="m765 455l5-1h2v4l-6 3-1-5z"/>
		<path id="Path 143" class="s29" d="m791 466l-1-12h10 8v8l-4 4z"/>
		<path id="Path 144" class="s38" d="m872 458l1-4h11l2 12-2 2-9 1-3-1v-4z"/>
		<path id="Path 145" class="s6" d="m299 457l9-2-5 2z"/>
		<path id="Path 146" class="s30" d="m759 457l5-2h1v1l-5 1z"/>
		<path id="Path 147" class="s53" d="m322 461l5-4 11-1h4v8l-1 9h-6l-4-7h-9z"/>
		<path id="Path 148" class="s55" d="m342 464v-8h10 4v6l-1 1-5 1z"/>
		<path id="Path 149" class="s56" d="m672 468v-12h7l1 4 18-2 2 3 8 1 2 3-4 5v7h-2-7l-9-7h-16z"/>
		<path id="Path 150" class="s56" d="m760 457l5-1 1 5-6 1z"/>
		<path id="Path 151" class="s9" d="m818 462v-4l4-2h10l5 2v7l3 1v6l-2 4h-8l-7-8h-5z"/>
		<path id="Path 152" class="s32" d="m289 458l6-1v1l-3 1h-3z"/>
		<path id="Path 153" class="s61" d="m295 458v-1h3z"/>
		<path id="Path 154" class="s62" d="m295 458l3-1h1 4l5 6v5l-4 6-10-2-2-13z"/>
		<path id="Path 155" class="s55" d="m708 462v-5l9 3-7 5z"/>
		<path id="Path 156" class="s32" d="m745 460h-13v-3l14 1v2z"/>
		<path id="Path 157" class="s2" d="m751 458l6-1-6 2z"/>
		<path id="Path 158" class="s63" d="m751 459l6-2h2 1v5l-10 2v-4z"/>
		<path id="Path 159" class="s36" d="m280 460l9-2v1l-9 3z"/>
		<path id="Path 160" class="s54" d="m720 460v-2h8l2 3v3h-8z"/>
		<path id="Path 161" class="s36" d="m746 460v-2h5v1l-1 1z"/>
		<path id="Path 162" class="s13" d="m840 466l-3-1v-7h3l5 6z"/>
		<path id="Path 163" class="s19" d="m868 464v-6h4v6z"/>
		<path id="Path 164" class="s27" d="m280 462l9-3h3l2 13h-8-8v-3l-5-2v-2l5-3z"/>
		<path id="Path 165" class="s5" d="m274 462l6-2v2h-2z"/>
		<path id="Path 166" class="s43" d="m710 465l7-5h3l2 4v10l-3 4h-2l-11-1v-7z"/>
		<path id="Path 167" class="s24" d="m730 461l15-1h1 4v4h-20z"/>
		<path id="Path 168" class="s39" d="m308 463l14-2v5l-2 2h-12z"/>
		<path id="Path 169" class="s60" d="m920 468l4-7h4 5l-1 12v5 1l-2 1-3-6h-7z"/>
		<path id="Path 170" class="s17" d="m932 473l1-12h1v4 5 3z"/>
		<path id="Path 171" class="s6" d="m254 467l17-5-2 2-12 2z"/>
		<path id="Path 172" class="s17" d="m269 464l2-2h3 4l-5 3h-4z"/>
		<path id="Path 173" class="s22" d="m355 463l1-1 5 1v3h-5z"/>
		<path id="Path 174" class="s20" d="m464 467v-5h8l4 4v4h-9z"/>
		<path id="Path 175" class="s38" d="m804 466l4-4h10v6l-4 3v9h-6z"/>
		<path id="Path 176" class="s46" d="m350 464l5-1 1 3h5l3 6-4 8-10-4z"/>
		<path id="Path 177" class="s43" d="m361 466v-3h5 4l4 6-10 3z"/>
		<path id="Path 178" class="s19" d="m257 466l12-2v1l-1 2-6 1h-6z"/>
		<path id="Path 179" class="s60" d="m341 473l1-9h8v12h-9z"/>
		<path id="Path 180" class="s46" d="m492 466l2-2 18 2 2 3-1 7-20 1z"/>
		<path id="Path 181" class="s64" d="m544 468l1-4h13l2 4v6h-16v-2z"/>
		<path id="Path 182" class="s23" d="m840 466l5-2 4 4h17l2 8-2 8h-8l-4-9-14-3z"/>
		<path id="Path 183" class="s29" d="m866 468l2-4h4v4l3 1 1 7h-8z"/>
		<path id="Path 184" class="s64" d="m896 466l2-2h14l2 4v8l-2 14-5 2-3 20h-8-2v-12l4-7-4-12z"/>
		<path id="Path 185" class="s28" d="m268 467l1-2h4v2l-5 1z"/>
		<path id="Path 186" class="s16" d="m934 470v-5h2z"/>
		<path id="Path 187" class="s63" d="m320 468l2-2h9l4 7-1 7-2 2h-11l-1-4z"/>
		<path id="Path 188" class="s43" d="m476 470v-4h16l1 11-7 2-2-9z"/>
		<path id="Path 189" class="s65" d="m566 468l2-2 10 1v7l-2 2h-6l-4-2z"/>
		<path id="Path 190" class="s22" d="m578 467l10-1 19 2 1 14-2 2h-14l-5-8-9-2z"/>
		<path id="Path 191" class="s10" d="m786 478v-7l5-5h13l4 14v20h-8l-6-4-3-8 1-8z"/>
		<path id="Path 192" class="s22" d="m884 468l2-2h10l-2 15 4 12-4 7-8-2-2-15z"/>
		<path id="Path 193" class="s55" d="m262 468l6-1v1l-1 3h-4z"/>
		<path id="Path 194" class="s39" d="m268 468l5-1 5 2v3 10h-8l-5 4h-7l-8-2v-14l6-2h6l1 3h4z"/>
		<path id="Path 195" class="s60" d="m460 470l4-3 3 3h9 8l2 9-14 1-1-4-9-2z"/>
		<path id="Path 196" class="s20" d="m304 474l4-6h12v10h-11-5z"/>
		<path id="Path 197" class="s56" d="m398 472l1-4h8v9h-8z"/>
		<path id="Path 198" class="s25" d="m407 477v-9h7l2 2v9z"/>
		<path id="Path 199" class="s22" d="m524 469l20-1v4h-2l-15 1-5 11h-6v-6l-3-2 1-7z"/>
		<path id="Path 200" class="s10" d="m560 474v-6h6v6z"/>
		<path id="Path 201" class="s46" d="m608 482l-1-14h9l2 14z"/>
		<path id="Path 202" class="s64" d="m618 482l-2-14h13l1 16h-5-5z"/>
		<path id="Path 203" class="s22" d="m630 484l-1-16h7l1 5 15 3 8-2h4 6l2-4h16l9 7-1 6-8 9h-4l-6-4h-7l-1 8-4 1v3h-5l-4-6h-11l-6-8z"/>
		<path id="Path 204" class="s46" d="m652 476l-15-3-1-5h16z"/>
		<path id="Path 205" class="s64" d="m652 476v-8h8v6z"/>
		<path id="Path 206" class="s65" d="m660 474v-6h4v6z"/>
		<path id="Path 207" class="s46" d="m664 474v-6h8v2l-2 4z"/>
		<path id="Path 208" class="s51" d="m814 480v-9l4-3h5l7 8v19l-6 1-4-4h-6z"/>
		<path id="Path 209" class="s66" d="m875 469l9-1v15h-6l-2-7z"/>
		<path id="Path 210" class="s67" d="m914 476v-8h6v6 2z"/>
		<path id="Path 211" class="s65" d="m364 472l10-3 20 3v7l-2 13 4 3v7h-5l-4 4-1 14-6 3-3-3h-9v-3l-8-5v-13l-4-5-9 2-1 8h-6l-4-4v-6l-4-2v-10l2-2 7-4h9l10 4z"/>
		<path id="Path 212" class="s68" d="m232 472l9-2h5l-6 2-8 1z"/>
		<path id="Path 213" class="s55" d="m240 472l6-2h4v14h-2-8l-2-4v-5z"/>
		<path id="Path 214" class="s64" d="m416 479v-9h8v10h-7z"/>
		<path id="Path 215" class="s22" d="m424 480v-10l18 1-2 17h-6z"/>
		<path id="Path 216" class="s66" d="m442 471l18-1 2 4 3 12 7 2 2 7v15l-3 1-3-3h-8l-6-8h-9l-5-12z"/>
		<path id="Path 217" class="s7" d="m211 477l15-5-1 2-8 2z"/>
		<path id="Path 218" class="s3" d="m225 474l1-2h6v1 1z"/>
		<path id="Path 219" class="s69" d="m232 473l8-1-2 3-5 1-1-2z"/>
		<path id="Path 220" class="s28" d="m278 482v-10h8v14h-6z"/>
		<path id="Path 221" class="s43" d="m286 486v-14h8l10 2v4 4 10l-8 1z"/>
		<path id="Path 222" class="s22" d="m394 479v-7h4l1 5z"/>
		<path id="Path 223" class="s70" d="m522 484l5-11 15-1v2l-6 5v11 8 13l-6 6-4-1v-7l-4-3z"/>
		<path id="Path 224" class="s71" d="m542 474v-2h2v2z"/>
		<path id="Path 225" class="s35" d="m838 476l2-4 14 3 4 9h8v16h-8l-3-6h-11z"/>
		<path id="Path 226" class="s25" d="m334 480l1-7h6v3z"/>
		<path id="Path 227" class="s41" d="m932 478v-5h2z"/>
		<path id="Path 228" class="s29" d="m217 476l8-2h7l1 2v2l-4 1-14 3-2-3z"/>
		<path id="Path 229" class="s22" d="m472 488l-7-2-3-12 9 2 1 4z"/>
		<path id="Path 230" class="s72" d="m536 490v-11l6-5h2 16 6l4 2 2 16-22 2-3-4z"/>
		<path id="Path 231" class="s70" d="m576 476l2-2 9 2 5 8h14v10l-17 7-1-3v-12l-10-4z"/>
		<path id="Path 232" class="s38" d="m719 478l3-4h13l9 10 24 2 4 4v7l3 3 10 1 1 9-10 2h-8l-4-4h-12l-13-2-1-4h-11l-4 5h-3l-8-3v-8l4-4 2-11z"/>
		<path id="Path 233" class="s56" d="m920 476v-2h7l3 6 2 12 2 5 2 14 1 6-2 3 3 1v10l-2 7h-3l-7-8v-11l-5-6-1-7 4-5v-11l1-7z"/>
		<path id="Path 234" class="s39" d="m233 476l5-1v5h-5v-2z"/>
		<path id="Path 235" class="s45" d="m211 477l6-1-4 3-3 1-10 3-5 1h-2v-1l8-5z"/>
		<path id="Path 236" class="s70" d="m493 477l20-1 3 2v6l-8 7v9l-4 2h-6-8-7l-3-7h-6l-2-7v-8l14-1z"/>
		<path id="Path 237" class="s71" d="m572 492l-2-16h6l2 6 10 4v12l-14-2z"/>
		<path id="Path 238" class="s11" d="m830 495v-19h8l6 18v10h-5l-2 7-7 5h-10l-1-9-7-1v-6l2-8h6l4 4v7l7 2z"/>
		<path id="Path 239" class="s10" d="m866 484l2-8h8l2 7 2 15 1 18-1 3-15-1v-3l1-15z"/>
		<path id="Path 240" class="s73" d="m912 490l2-14h6l5 7-1 7z"/>
		<path id="Path 241" class="s70" d="m394 479l5-2h8l9 2 1 1-1 20 4 3 2 13v4h-9l-1-3h-6v-8l-10-7v-7l-4-3z"/>
		<path id="Path 242" class="s71" d="m688 492l8-9 1-6h7l4 19-1 8-3 4-10 2-2-8-1-8z"/>
		<path id="Path 243" class="s66" d="m708 496l-4-19h2l11 1 1 3-2 11-4 4z"/>
		<path id="Path 244" class="s63" d="m229 479l4-1v2l-4 2z"/>
		<path id="Path 245" class="s34" d="m304 482v-4h5l-1 4z"/>
		<path id="Path 246" class="s25" d="m304 482h4l1-4h11l1 4-3 3v11 6h-4l-1-6-9-4z"/>
		<path id="Path 247" class="s74" d="m718 481l-1-3h2z"/>
		<path id="Path 248" class="s38" d="m779 482l2-4h5l6 2-1 8-12-1z"/>
		<path id="Path 249" class="s43" d="m210 480l3-1 2 3v4h-5z"/>
		<path id="Path 250" class="s39" d="m215 482l14-3v3l-8 9h-5l-1-5z"/>
		<path id="Path 251" class="s3" d="m930 480l2-1v13z"/>
		<path id="Path 252" class="s34" d="m200 483l10-3v6h-10z"/>
		<path id="Path 253" class="s24" d="m229 482l4-2h5l2 4-4 14-22-2-4-3v-7h5l1 5h5z"/>
		<path id="Path 254" class="s75" d="m422 516l-2-13-4-3 1-20h7l10 8-2 24-2 4z"/>
		<path id="Path 255" class="s19" d="m808 500v-20h6v12l-2 8z"/>
		<path id="Path 256" class="s43" d="m265 486l5-4h8l2 4v16l-6 3v7l8 3v5l-4 1v3h-8v-6l-8-2-2-8v-4l4-2-2-9z"/>
		<path id="Path 257" class="s46" d="m318 496v-11l3-3h11v10h-5l-1 4z"/>
		<path id="Path 258" class="s69" d="m606 484l2-2h10l2 2v4 5l10 6v5l-1 4h-7l-6-8h-4l-6-6z"/>
		<path id="Path 259" class="s10" d="m768 486l1-4h10v5l-7 3z"/>
		<path id="Path 260" class="s32" d="m183 487l10-4v1z"/>
		<path id="Path 261" class="s29" d="m195 484l5-1v3h-5z"/>
		<path id="Path 262" class="s75" d="m880 498l-2-15h6l2 15z"/>
		<path id="Path 263" class="s13" d="m183 487l10-3h2v2l-1 5-12 1v-3z"/>
		<path id="Path 264" class="s43" d="m236 498l4-14h8v16l-8 1z"/>
		<path id="Path 265" class="s34" d="m248 500v-16h2l8 2v6l4 1 2 9-4 2v4h-6l-2-6z"/>
		<path id="Path 266" class="s65" d="m508 500v-9l8-7h6v22h-6l-3-6z"/>
		<path id="Path 267" class="s70" d="m620 488v-4h5l-1 4z"/>
		<path id="Path 268" class="s71" d="m620 488h4l1-4h5l10 2 6 8v9l-2 1h-14v-5l-10-6z"/>
		<path id="Path 269" class="s28" d="m194 491l1-5h5 10v7l4 3v10l-12 2v-13z"/>
		<path id="Path 270" class="s28" d="m262 493l-4-1v-6h7z"/>
		<path id="Path 271" class="s24" d="m280 502v-16h6l10 7v6l-4 5h-6z"/>
		<path id="Path 272" class="s32" d="m171 492l4-4 8-1-1 2-4 1z"/>
		<path id="Path 273" class="s19" d="m772 490l7-3 12 1 3 8 6 4v12l-2 2-12-4-1-9-10-1-3-3z"/>
		<path id="Path 274" class="s76" d="m432 512l2-24h6l5 12h9l6 8v8l-6 10h-7l-5-4v-7l-3-3z"/>
		<path id="Path 275" class="s71" d="m670 496l1-8h7l6 4v9h-4l-9-2z"/>
		<path id="Path 276" class="s28" d="m178 490l4-1v3l-3 1-1-2z"/>
		<path id="Path 277" class="s77" d="m171 492l7-2v1l-7 3h-4l2-2z"/>
		<path id="Path 278" class="s74" d="m536 498v-8h11l3 4v4h-8z"/>
		<path id="Path 279" class="s60" d="m904 512l3-20 5-2h12v11l-4 5 1 7 5 6v11h-12v-11z"/>
		<path id="Path 280" class="s43" d="m171 494l7-3 1 2v4l-7 1z"/>
		<path id="Path 281" class="s21" d="m182 492l12-1 8 4v13l-4 2h-17l-2-13v-4z"/>
		<path id="Path 282" class="s6" d="m161 495l8-3-2 2-3 2h-3z"/>
		<path id="Path 283" class="s56" d="m296 493l8-1 9 4 1 6v2l-12-1-6-4z"/>
		<path id="Path 284" class="s75" d="m326 496l1-4h5l4 2v6l-8 5-2-1z"/>
		<path id="Path 285" class="s18" d="m550 494l22-2 2 4v5l6 4 2 6v9l-5 4-3 2-8 2v8l4 2v29h-5l-1-9-7-7-7 1v8l-10-4v-8l-10-4 2-16h6l6-7v-11h4 13l-5-10h-6v-2z"/>
		<path id="Path 286" class="s72" d="m684 501v-9h4l3 2 1 8z"/>
		<path id="Path 287" class="s3" d="m934 497l-2-5 3 2v3z"/>
		<path id="Path 288" class="s78" d="m164 496l3-2h4l1 4h-6z"/>
		<path id="Path 289" class="s70" d="m346 504l1-8 9-2 4 5v13h-12z"/>
		<path id="Path 290" class="s76" d="m589 501l17-7 6 6h4l6 8v8 6h-8l-5-12h-8l-1 4h-10z"/>
		<path id="Path 291" class="s69" d="m646 503v-9h11l4 6-1 4z"/>
		<path id="Path 292" class="s59" d="m844 504v-10h11l3 6-2 6h-8z"/>
		<path id="Path 293" class="s0" d="m935 497v-3l1 3z"/>
		<path id="Path 294" class="s32" d="m158 497l3-2v1z"/>
		<path id="Path 295" class="s76" d="m474 510v-15h6l3 7-1 8z"/>
		<path id="Path 296" class="s23" d="m824 496l6-1 1 10-7-2z"/>
		<path id="Path 297" class="s28" d="m158 497l3-1h3l2 2v6h-6l-10 1v9h-4l-2-9 3-3 10-5z"/>
		<path id="Path 298" class="s60" d="m214 506v-10l22 2 4 3v15h-4-8l-2-6z"/>
		<path id="Path 299" class="s65" d="m318 502v-6h8v8z"/>
		<path id="Path 300" class="s75" d="m582 520v-9l-2-6-6-4v-5l14 2 1 3 1 13v10h-6z"/>
		<path id="Path 301" class="s75" d="m666 500v-3l4-1 1 3 9 2v9h-6l-2-5h-6z"/>
		<path id="Path 302" class="s10" d="m707 504l1-8h4v8z"/>
		<path id="Path 303" class="s32" d="m144 502l13-5-10 5z"/>
		<path id="Path 304" class="s39" d="m172 498l7-1 2 13-6 3-7-3-2-6v-6z"/>
		<path id="Path 305" class="s36" d="m936 511l-2-14h1 1l1 13v1z"/>
		<path id="Path 306" class="s76" d="m530 517l6-6v-13h6l2 12v11l-6 7h-6z"/>
		<path id="Path 307" class="s77" d="m544 510l-2-12h8v2l-2 10z"/>
		<path id="Path 308" class="s46" d="m881 516l-1-18h6l8 2v12h-5l-1 4z"/>
		<path id="Path 309" class="s22" d="m292 504l4-5 6 4v7h-7-3z"/>
		<path id="Path 310" class="s46" d="m240 501l8-1 4 2 2 6h6l2 8 2 10v2h-13l-4-4v-5l-7-3z"/>
		<path id="Path 311" class="s39" d="m328 505l8-5 4 4v8l6 2v6l-1 6h-9l-1-10-7-6z"/>
		<path id="Path 312" class="s71" d="m504 502l4-2h5l3 6v4l-2 2-10-2z"/>
		<path id="Path 313" class="s79" d="m548 510l2-10h6l5 10z"/>
		<path id="Path 314" class="s72" d="m660 504l1-4h5v5l-1 3h-4z"/>
		<path id="Path 315" class="s75" d="m800 512v-12h8 4v6l-2 6z"/>
		<path id="Path 316" class="s9" d="m856 506l2-6h8l-1 15h-3v-5z"/>
		<path id="Path 317" class="s66" d="m680 510v-9h4l8 1 2 8-5 5h-2z"/>
		<path id="Path 318" class="s12" d="m128 508l16-6-14 6z"/>
		<path id="Path 319" class="s72" d="m130 508l14-6h3l-3 3 2 9-4 2-15-5z"/>
		<path id="Path 320" class="s73" d="m282 515l-8-3v-7l6-3 6 2v8z"/>
		<path id="Path 321" class="s78" d="m314 504v-2h4l8 2 2 1v5l-4 1-2 5-8-2z"/>
		<path id="Path 322" class="s75" d="m386 520l1-14 4-4h5l10 7v8l2 5v8h-7-5v-6z"/>
		<path id="Path 323" class="s29" d="m482 510l1-8h7v8l-1 2z"/>
		<path id="Path 324" class="s72" d="m490 510v-8h8v8z"/>
		<path id="Path 325" class="s74" d="m498 510v-8h6v8z"/>
		<path id="Path 326" class="s9" d="m723 507l4-5h11l1 4-2 9-5 3z"/>
		<path id="Path 327" class="s9" d="m302 510v-7l12 1v10l-2 2-5 1h-5z"/>
		<path id="Path 328" class="s66" d="m644 504l2-1 14 1 1 4-1 6h-4l-6-2h-6z"/>
		<path id="Path 329" class="s39" d="m150 514v-9l10-1v12z"/>
		<path id="Path 330" class="s21" d="m160 516v-12h6l2 6-4 6z"/>
		<path id="Path 331" class="s46" d="m286 512v-8h6v6l-2 2z"/>
		<path id="Path 332" class="s66" d="m346 514l-6-2v-8h6l2 8z"/>
		<path id="Path 333" class="s34" d="m629 508l1-4h14v8 8l-8 5-6-1v-8z"/>
		<path id="Path 334" class="s28" d="m704 508l3-4h5l8 3v15l3 2v2h-11l-6-6z"/>
		<path id="Path 335" class="s8" d="m830 516l7-5 2-7h5l4 2 2 12-4 7v11l-12-2-4-6z"/>
		<path id="Path 336" class="s65" d="m665 508l1-3h6l2 5-6 5-2-1z"/>
		<path id="Path 337" class="s64" d="m202 508l12-2 12 4 2 6v4l-12 7-8-3-3-5-7-1v-8z"/>
		<path id="Path 338" class="s38" d="m516 510v-4h6l4 3v7l-7-2z"/>
		<path id="Path 339" class="s13" d="m732 518l5-3 2-9 13 2 2 18h-3-12l3 4 1 2-3-1-8-7z"/>
		<path id="Path 340" class="s10" d="m810 512l2-6 7 1 1 9h-6z"/>
		<path id="Path 341" class="s23" d="m850 518l-2-12h8l6 4v5l-4 3z"/>
		<path id="Path 342" class="s62" d="m723 524l-3-2v-15h3l9 11v6h-4z"/>
		<path id="Path 343" class="s1" d="m111 515l17-7h2l-3 3-6 3-7 3-6 1-1-1h2z"/>
		<path id="Path 344" class="s18" d="m460 516v-8h8l3 3v5z"/>
		<path id="Path 345" class="s38" d="m622 516v-8h7l1 8z"/>
		<path id="Path 346" class="s34" d="m660 514l1-6h4l1 6z"/>
		<path id="Path 347" class="s63" d="m694 510l10-2 2 12-6 4h-7l-4-9z"/>
		<path id="Path 348" class="s9" d="m754 526l-2-18h12l4 4v10 6h-4l-8-2z"/>
		<path id="Path 349" class="s43" d="m164 516l4-6 7 3 1 6-11 1z"/>
		<path id="Path 350" class="s75" d="m175 513l6-3h17v8l-4 2h-17l-1-1z"/>
		<path id="Path 351" class="s65" d="m290 512l2-2h3v7l3 2-1 3h-6z"/>
		<path id="Path 352" class="s11" d="m298 519l-3-2v-7h7v7z"/>
		<path id="Path 353" class="s20" d="m322 516l2-5 4-1 7 6 1 10-2 4h-8l-4-6z"/>
		<path id="Path 354" class="s33" d="m471 511l3-1h8l7 2 1-2h8 6l10 2 1 3 4-1 7 2 4 1 2 11-2 16v9l-2 5-1 3h-7l-3 5h-1l-8 1h-2l-2-19v-10h8l3 7 5-3v-9l-5-5-11-2-6-8-14 2 2 29-2 3h-7l-7-6-4-13 6-8-1-9z"/>
		<path id="Path 355" class="s80" d="m514 512l2-2 3 4-4 1z"/>
		<path id="Path 356" class="s75" d="m600 514l1-4h8l5 12 1 7v6l-7 2v-7l-8-2z"/>
		<path id="Path 357" class="s20" d="m668 515l6-5h6l7 5-1 12-2 1h-10-4z"/>
		<path id="Path 358" class="s29" d="m776 512l10-2 12 4 2 8v5h-9l-6-7h-9z"/>
		<path id="Path 359" class="s2" d="m937 511v-1h2v2h-1z"/>
		<path id="Path 360" class="s73" d="m121 514l6-3 15 5v12h-4l-8-10h-9z"/>
		<path id="Path 361" class="s80" d="m937 517l-1-6h1l1 1v3 2z"/>
		<path id="Path 362" class="s70" d="m282 515l4-3h4l1 10-3 6h-4l-2-8z"/>
		<path id="Path 363" class="s24" d="m346 514l2-2h12l8 5v3h-22z"/>
		<path id="Path 364" class="s74" d="m430 516l2-4h7l3 3v7h-12z"/>
		<path id="Path 365" class="s28" d="m644 520v-8h6l-1 8z"/>
		<path id="Path 366" class="s43" d="m649 520l1-8 6 2 6 14-9 3z"/>
		<path id="Path 367" class="s13" d="m768 522v-10h8v8l-2 2z"/>
		<path id="Path 368" class="s76" d="m798 514l2-2h10l4 4h6l2 12-2 4-12-2v-6l-8-2z"/>
		<path id="Path 369" class="s67" d="m888 516l1-4h5 2v7h-6z"/>
		<path id="Path 370" class="s54" d="m896 519v-7h8l10 7v11l-12-1v-7z"/>
		<path id="Path 371" class="s12" d="m938 515v-3h1v3z"/>
		<path id="Path 372" class="s3" d="m101 515l4-1 1 1 1 2h-6l-5 7v-1l2-8z"/>
		<path id="Path 373" class="s56" d="m114 517l7-3v4l-7 2z"/>
		<path id="Path 374" class="s60" d="m142 516l4-2h4l10 2h4l1 4-1 16-3 2h-5l-2-4h-8l-4-6z"/>
		<path id="Path 375" class="s39" d="m312 516l2-2 8 2v8h-8l-2-4z"/>
		<path id="Path 376" class="s65" d="m590 524v-10h10v14l-4 3h-4z"/>
		<path id="Path 377" class="s28" d="m662 528l-6-14h4 6l2 1 2 13z"/>
		<path id="Path 378" class="s28" d="m686 527l1-12h2l4 9-1 3z"/>
		<path id="Path 379" class="s21" d="m858 518l4-3h3v3l-1 4h-4z"/>
		<path id="Path 380" class="s61" d="m938 517v-2h1v21h-1v-5-10z"/>
		<path id="Path 381" class="s70" d="m228 520v-4h8v6z"/>
		<path id="Path 382" class="s75" d="m236 522v-6h4l7 3v5l4 4h13v8l-11 3-6-1-5 4-2-2v-11z"/>
		<path id="Path 383" class="s60" d="m264 526l-2-10 8 2v6z"/>
		<path id="Path 384" class="s53" d="m307 517l5-1v4h-4z"/>
		<path id="Path 385" class="s69" d="m422 520v-4h8v6l-2 4h-6z"/>
		<path id="Path 386" class="s77" d="m442 522l5 4h7l6-10h11l1 9-6 8 4 13-7 6v6l-1 6h-4l-2 4-8-3v-7l2-2-2-13-3-3-11 1-4-2-2-13 2-4z"/>
		<path id="Path 387" class="s66" d="m622 522v-6h8v8l-2 2h-6z"/>
		<path id="Path 388" class="s23" d="m822 528l-2-12h10v12z"/>
		<path id="Path 389" class="s69" d="m880 519l1-3h7l2 3-1 3h-7z"/>
		<path id="Path 390" class="s76" d="m96 524l5-7h6l1 1-3 6-2 2h-5l-3 5-6 2v7l-5-3 4-7z"/>
		<path id="Path 391" class="s34" d="m108 518l6-1v3 4h-9z"/>
		<path id="Path 392" class="s55" d="m298 519l4-2h5l1 3h4l2 4-2 10h-6l-8-3-1-9z"/>
		<path id="Path 393" class="s65" d="m408 522l-2-5h6l1 3z"/>
		<path id="Path 394" class="s73" d="m938 521l-3-1 2-3h1z"/>
		<path id="Path 395" class="s25" d="m114 520l7-2h9l8 10-2 12v1l-8 1-6-2-8-16z"/>
		<path id="Path 396" class="s22" d="m194 520l4-2 7 1 3 5 8 3 2 9v16h-6l-5-5h-9v-1z"/>
		<path id="Path 397" class="s80" d="m486 549l-2-29 14-2 6 8v12 10z"/>
		<path id="Path 398" class="s29" d="m846 536v-11l4-7h8l2 4v14z"/>
		<path id="Path 399" class="s24" d="m864 522l1-4 15 1 2 3h7l1 4v8l-18-2z"/>
		<path id="Path 400" class="s25" d="m165 520l11-1 1 1-5 16h-4-4z"/>
		<path id="Path 401" class="s65" d="m889 522l1-3h6l6 3v7h-2l-10-3z"/>
		<path id="Path 402" class="s70" d="m172 536l5-16h17l4 26h-4l-4-6h-6-12z"/>
		<path id="Path 403" class="s65" d="m216 527l12-7 8 2 4 7v11l-14-1-2-3h-6z"/>
		<path id="Path 404" class="s71" d="m278 524v-3l4-1 2 8v2h-6z"/>
		<path id="Path 405" class="s28" d="m345 526l1-6h22v12l-6 4-4 1v5l-8 7h-4z"/>
		<path id="Path 406" class="s34" d="m368 532v-12h9l3 3v7l-1 2z"/>
		<path id="Path 407" class="s38" d="m380 523l6-3 10 4v6h-16z"/>
		<path id="Path 408" class="s76" d="m408 522l5-2h9v6l-2 4h-8-4z"/>
		<path id="Path 409" class="s38" d="m577 524l5-4 2 4-4 2h-2z"/>
		<path id="Path 410" class="s20" d="m636 525l8-5h5l4 11-5 1h-12z"/>
		<path id="Path 411" class="s78" d="m700 524l6-4 6 6 2 16h-8v-6l-6-7z"/>
		<path id="Path 412" class="s20" d="m774 522l2-2h9l6 7-1 6h-2-2l-5-2-8-2v-1z"/>
		<path id="Path 413" class="s42" d="m284 528h4l3-6h6l1 9-5 4-9-1v-4z"/>
		<path id="Path 414" class="s64" d="m615 529l-1-7h8v4z"/>
		<path id="Path 415" class="s21" d="m768 528v-6h6l-1 6h-4z"/>
		<path id="Path 416" class="s70" d="m800 527v-5l8 2v6h-6z"/>
		<path id="Path 417" class="s43" d="m860 536v-14h4l8 10-3 7-5 2z"/>
		<path id="Path 418" class="s7" d="m88 530l8-7v1z"/>
		<path id="Path 419" class="s64" d="m103 526l2-2h9l8 16v5h-5l-3-5h-8z"/>
		<path id="Path 420" class="s72" d="m264 526l6-2h8v6 5 5l-6 4-4-1v-5l-4-2v-8z"/>
		<path id="Path 421" class="s21" d="m312 534l2-10h8l4 6h8l2 6-2 18-2 1-8-1v-10l-12-4z"/>
		<path id="Path 422" class="s81" d="m574 526l3-2 1 2-2 2z"/>
		<path id="Path 423" class="s54" d="m580 526l4-2h6l2 7h-5z"/>
		<path id="Path 424" class="s63" d="m628 526l2-2 6 1v7l-4 2h-4z"/>
		<path id="Path 425" class="s9" d="m692 527l1-3h7v5l-7 2z"/>
		<path id="Path 426" class="s42" d="m723 526v-2h5v6h-4z"/>
		<path id="Path 427" class="s53" d="m728 530v-6h4l8 7-2 3h-8z"/>
		<path id="Path 428" class="s54" d="m89 540v-7l6-2 3-5h5l3 14h8l3 5h5l5 1 1 11-2 3h-5l-1-4h-6l-10-2-3-6h-5l-2-4-2-1z"/>
		<path id="Path 429" class="s55" d="m334 530l2-4h9l1 23-4 7-8-2 2-18z"/>
		<path id="Path 430" class="s18" d="m412 530h8l2-4h6l2 13 4 2-3 10-13 8-4-2z"/>
		<path id="Path 431" class="s50" d="m504 538v-12l11 2 5 5v9l-5 3-3-7z"/>
		<path id="Path 432" class="s74" d="m570 538l-4-2v-8l8-2 2 2 1 8v2z"/>
		<path id="Path 433" class="s71" d="m576 528l2-2h2l7 5v5h-10z"/>
		<path id="Path 434" class="s24" d="m615 529l7-3h6v8l-8 3-5-2z"/>
		<path id="Path 435" class="s54" d="m714 542l-2-16h11l1 4 2 9v5l-2 8h-7z"/>
		<path id="Path 436" class="s30" d="m742 530l-3-4h12v1h-10z"/>
		<path id="Path 437" class="s52" d="m751 527v-1h3 2v1z"/>
		<path id="Path 438" class="s41" d="m756 527v-1l8 2z"/>
		<path id="Path 439" class="s56" d="m890 534v-8l10 3v7l9 1 3 5v6h-4-10l-2-4v-6z"/>
		<path id="Path 440" class="s10" d="m684 528l2-1h6l1 4v1h-9z"/>
		<path id="Path 441" class="s63" d="m790 533l1-6h9l2 3v7z"/>
		<path id="Path 442" class="s46" d="m136 540l2-12h4l4 6v6z"/>
		<path id="Path 443" class="s60" d="m596 531l4-3 8 2v7l-10 1-2-2z"/>
		<path id="Path 444" class="s79" d="m653 531l9-3h8 4v8l-19 4h-4l-3-8z"/>
		<path id="Path 445" class="s38" d="m674 536v-8h10v4l-2 8h-5z"/>
		<path id="Path 446" class="s5" d="m773 530l-4-2h4v1z"/>
		<path id="Path 447" class="s29" d="m820 532l2-4h8l4 6-1 12-5-1-6-3 2-5z"/>
		<path id="Path 448" class="s60" d="m693 531l7-2 6 7v6l-5 2-7-2-1-10z"/>
		<path id="Path 449" class="s37" d="m773 530v-1l8 2v1z"/>
		<path id="Path 450" class="s58" d="m912 542l-3-5-9-1v-7h2l12 1h12l7 8z"/>
		<path id="Path 451" class="s32" d="m84 538l-1-5 5-3-4 7z"/>
		<path id="Path 452" class="s46" d="m278 535v-5h6v4z"/>
		<path id="Path 453" class="s19" d="m379 532l1-2h16 5l-1 23h-7l-3-5v-8l-8-1z"/>
		<path id="Path 454" class="s77" d="m400 553l1-23h7 4l2 27 4 2-1 5h-3-8l-1-7z"/>
		<path id="Path 455" class="s73" d="m726 539l-2-9h4l2 4z"/>
		<path id="Path 456" class="s30" d="m743 532l-1-2 2 2z"/>
		<path id="Path 457" class="s20" d="m802 537v-7h6l12 2 4 5-2 5-9-1-9-3h-2z"/>
		<path id="Path 458" class="s21" d="m293 535l5-4 8 3v6l-6 8-5-1z"/>
		<path id="Path 459" class="s46" d="m587 536v-5h5 4v5l-8 2z"/>
		<path id="Path 460" class="s60" d="m730 534h8l2-3 3 1h1l1 2-3 2v8h-2-14v-5z"/>
		<path id="Path 461" class="s32" d="m781 532v-1l5 2z"/>
		<path id="Path 462" class="s50" d="m936 538l2-7v5l-1 11h-1z"/>
		<path id="Path 463" class="s23" d="m362 536l6-4h11l3 7-2 2-14-1z"/>
		<path id="Path 464" class="s9" d="m632 534l4-2h12l3 8-7 4h-12z"/>
		<path id="Path 465" class="s67" d="m682 540l2-8h9l1 10z"/>
		<path id="Path 466" class="s30" d="m745 534l-1-2 3 3z"/>
		<path id="Path 467" class="s64" d="m864 541l5-2 3-7 18 2 6 4v6h-9l-1 8-4 1v7h-3l-11-3-3-1h-2v-2z"/>
		<path id="Path 468" class="s6" d="m802 538l-9-1-5-4h2l12 4z"/>
		<path id="Path 469" class="s43" d="m146 540v-6h8l2 4v4z"/>
		<path id="Path 470" class="s20" d="m278 535l6-1 9 1 2 12 5 1v7l5 3 2 7-3 1-14-3-2-1-9-8-7-4v-6l6-4z"/>
		<path id="Path 471" class="s20" d="m306 540v-6h6v6z"/>
		<path id="Path 472" class="s13" d="m620 537l8-3h4v10l-8 2-4-4z"/>
		<path id="Path 473" class="s56" d="m742 544v-8l3-2 2 1 3 9z"/>
		<path id="Path 474" class="s66" d="m833 546l1-12 12 2h14l4 5-1 13h-3l-6-1h-1l-12-5h-2-2z"/>
		<path id="Path 475" class="s18" d="m608 537l7-2 5 2v5h-4-7z"/>
		<path id="Path 476" class="s6" d="m750 544l-3-9 4 4v7h-1z"/>
		<path id="Path 477" class="s70" d="m161 538l3-2h4v4l-6 5-1-1z"/>
		<path id="Path 478" class="s22" d="m168 540v-4h4v4z"/>
		<path id="Path 479" class="s34" d="m218 552v-16h6l2 3 8 11-4 8h-3z"/>
		<path id="Path 480" class="s77" d="m253 539l11-3 4 2v5l-2 2h-6l-4 5h-4z"/>
		<path id="Path 481" class="s11" d="m350 549l8-7v-5l4-1 4 4v10l-2 2h-12z"/>
		<path id="Path 482" class="s10" d="m577 538v-2h10l1 2v4h-10z"/>
		<path id="Path 483" class="s29" d="m588 538l8-2 2 2v10h-8l-2-6z"/>
		<path id="Path 484" class="s60" d="m655 540l19-4 3 4-1 4-14 1h-7z"/>
		<path id="Path 485" class="s12" d="m937 547l1-11h1v12h-2z"/>
		<path id="Path 486" class="s12" d="m84 538v-1l5 3 3 3h-1l-5-1z"/>
		<path id="Path 487" class="s38" d="m598 538l10-1 1 5-1 6h-10z"/>
		<path id="Path 488" class="s34" d="m156 542v-4h5v6z"/>
		<path id="Path 489" class="s80" d="m242 542l5-4 6 1-1 11-2 4h-8l-6-5z"/>
		<path id="Path 490" class="s38" d="m570 567v-29h7l1 4v18l4 2v5 1l-10 2z"/>
		<path id="Path 491" class="s32" d="m812 542l-8-4 9 3z"/>
		<path id="Path 492" class="s54" d="m912 542l21-4h3v9l-9 7-1 1-8 3h-2l-10 3h-3l-5-9v-4h10v4h4v-4z"/>
		<path id="Path 493" class="s17" d="m926 554h1v1h-1z"/>
		<path id="Path 494" class="s43" d="m234 550l-8-11 14 1 2 2-6 7z"/>
		<path id="Path 495" class="s11" d="m380 541l2-2 8 1v8h-8-2z"/>
		<path id="Path 496" class="s46" d="m122 545v-5l6 2-1 4z"/>
		<path id="Path 497" class="s10" d="m136 541v-1h10l10 2 5 2 1 1-2 5-14 1z"/>
		<path id="Path 498" class="s18" d="m162 545l6-5h4l2 14-2 6h-11l-1-2v-8z"/>
		<path id="Path 499" class="s79" d="m174 554l-2-14h12v6l-4 3v5z"/>
		<path id="Path 500" class="s77" d="m184 546v-6h6l4 6z"/>
		<path id="Path 501" class="s39" d="m300 548l6-8h6l12 4v10l-4 1v12h-1l-12-2-2-7-5-3z"/>
		<path id="Path 502" class="s35" d="m366 550v-10l14 1v7l-7 3z"/>
		<path id="Path 503" class="s33" d="m434 541l11-1 3 3 2 13-2 2-14-3-3-4z"/>
		<path id="Path 504" class="s73" d="m644 544l7-4h4v5l-11 2z"/>
		<path id="Path 505" class="s64" d="m676 544l1-4h5l12 2 7 2 1 21-18-3v-11z"/>
		<path id="Path 506" class="s76" d="m128 542l8-1 10 10v7l-1 1-13 1-4-3-1-11z"/>
		<path id="Path 507" class="s37" d="m812 542l1-1 9 1 6 3z"/>
		<path id="Path 508" class="s34" d="m582 562l-4-2v-18h10l2 6v8l-2 6z"/>
		<path id="Path 509" class="s34" d="m608 548l1-6h7v6h-5z"/>
		<path id="Path 510" class="s62" d="m616 548v-6h4l4 4-2 2z"/>
		<path id="Path 511" class="s73" d="m701 544l5-2h8l3 10h7l5 8-1 6h-5l-4 4h-14l-3-5z"/>
		<path id="Path 512" class="s32" d="m94 547l-3-4h1l2 1z"/>
		<path id="Path 513" class="s9" d="m266 545l2-2 4 1v6h-4z"/>
		<path id="Path 514" class="s1" d="m94 547v-3l2 4-2 2h-2l1-2z"/>
		<path id="Path 515" class="s76" d="m530 553v-9l10 4v8l-2 2h-4v-4z"/>
		<path id="Path 516" class="s54" d="m624 546l8-2h12v3l-5 1-4 7-7 1h-4l-2-8z"/>
		<path id="Path 517" class="s46" d="m662 545l14-1 8 7v11l-12 1v-4l-10-7z"/>
		<path id="Path 518" class="s56" d="m724 552l2-8h14l-2 14-9 2z"/>
		<path id="Path 519" class="s54" d="m729 560l9-2 2-14h2 8v2l-2 11-6 6-7 4-7 3v-4z"/>
		<path id="Path 520" class="s67" d="m886 552l1-8h9l2 4v4z"/>
		<path id="Path 521" class="s74" d="m256 550l4-5h6l2 5v6l-12 2z"/>
		<path id="Path 522" class="s64" d="m644 547l11-2h7v7l10 7v4 5l9 6-5-1-6-2-4-2-8-3-9-3-8-4-6-4 4-7z"/>
		<path id="Path 523" class="s30" d="m837 548l-9-3 5 1z"/>
		<path id="Path 524" class="s34" d="m180 554v-5l4-3h10 4v1 11 2h-3l-4-6z"/>
		<path id="Path 525" class="s50" d="m463 558v-6l7-6 7 6h7l2-3 18-1 2 19h-4l-6 6-6-5h-6l-12-6-2-4z"/>
		<path id="Path 526" class="s61" d="m748 557l2-11h1l-2 11z"/>
		<path id="Path 527" class="s29" d="m198 558v-11h9l5 5v6z"/>
		<path id="Path 528" class="s17" d="m927 554l9-7h1v1 1l-2 2-3 2h-1z"/>
		<path id="Path 529" class="s37" d="m73 552l5-4h15l-1 2-15 1z"/>
		<path id="Path 530" class="s73" d="m94 550l2-2h5l3 6v6h-4l-8-2z"/>
		<path id="Path 531" class="s51" d="m373 551l7-3h2l2 10v4l-11-3z"/>
		<path id="Path 532" class="s57" d="m384 558l-2-10h8l3 5h7l5 4 1 7v2h-6-4l-4-7z"/>
		<path id="Path 533" class="s63" d="m590 556v-8h8 10 3l-1 8-9 1z"/>
		<path id="Path 534" class="s56" d="m610 556l1-8h5 6l2 8-3 2-4 1-7 2z"/>
		<path id="Path 535" class="s32" d="m841 550l-2-2h2z"/>
		<path id="Path 536" class="s15" d="m841 550v-2l12 5z"/>
		<path id="Path 537" class="s42" d="m912 548v4h-4v-4z"/>
		<path id="Path 538" class="s49" d="m234 550l2-1 6 5h8v4l-2 6h-16l-2-6z"/>
		<path id="Path 539" class="s19" d="m342 556l4-7h4l2 3v11l-14 6-1-1z"/>
		<path id="Path 540" class="s10" d="m77 551l15-1h2l-2 8-5 3v9l-2 1-7-1h-2l-8-4-2-4v-4-1l4-3z"/>
		<path id="Path 541" class="s79" d="m146 551l14-1v8l-8 1-6-1z"/>
		<path id="Path 542" class="s57" d="m250 554l2-4h4v8h-6z"/>
		<path id="Path 543" class="s35" d="m268 556v-6h4l7 4-5 2z"/>
		<path id="Path 544" class="s59" d="m364 552l2-2 7 1v8l-9 1z"/>
		<path id="Path 545" class="s17" d="m73 552l4-1-7 3 1-2z"/>
		<path id="Path 546" class="s47" d="m418 559l13-8 3 4-2 13h-12l-3-4z"/>
		<path id="Path 547" class="s76" d="m550 560v-8l7-1 7 7 1 9v1h-8z"/>
		<path id="Path 548" class="s7" d="m66 557v-3l5-2-1 2z"/>
		<path id="Path 549" class="s62" d="m212 558v-6h6l9 6-5 6-10-2z"/>
		<path id="Path 550" class="s51" d="m352 563v-11h12v8 8h-6z"/>
		<path id="Path 551" class="s60" d="m882 560v-7l4-1h12l5 9-2 1h-10l-8-1z"/>
		<path id="Path 552" class="s18" d="m528 558l2-5 4 1v4h-3z"/>
		<path id="Path 553" class="s6" d="m860 556l-6-3 6 1z"/>
		<path id="Path 554" class="s6" d="m927 554l4-1-4 2z"/>
		<path id="Path 555" class="s64" d="m104 560v-6l10 2v5l-6 4-4-1z"/>
		<path id="Path 556" class="s23" d="m172 560l2-6h6v12l-8 1z"/>
		<path id="Path 557" class="s9" d="m180 566v-12h11l4 6-3 5z"/>
		<path id="Path 558" class="s82" d="m274 556l5-2 9 8h-11l-3-1z"/>
		<path id="Path 559" class="s63" d="m320 567v-12l4-1 8 1v13z"/>
		<path id="Path 560" class="s39" d="m332 555l2-1 8 2-5 12h-5z"/>
		<path id="Path 561" class="s45" d="m860 556v-2h3v2z"/>
		<path id="Path 562" class="s49" d="m432 568l2-13 14 3v7l8 3 2 4h-26z"/>
		<path id="Path 563" class="s4" d="m628 556l7-1 6 4h-3l-5-2z"/>
		<path id="Path 564" class="s6" d="m918 558l8-3h1z"/>
		<path id="Path 565" class="s58" d="m114 561v-5h6l1 4-1 2z"/>
		<path id="Path 566" class="s83" d="m256 558l12-2h6v5l-8 2-6 9-6 6-1 11-4-1h-1l-7-3-5-2-2-2v-5l-6-1-6-7v-4l5-6h3l2 6h16 6z"/>
		<path id="Path 567" class="s10" d="m538 558l2-2 10 4 7 8-1 12-2 4-5-1v-1l1-9-3-3h-9v-4z"/>
		<path id="Path 568" class="s21" d="m588 562l2-6 11 1 2 6-7 1z"/>
		<path id="Path 569" class="s53" d="m601 557l9-1v5h-1l-4 2h-1-1z"/>
		<path id="Path 570" class="s31" d="m621 558l3-2h4l5 1z"/>
		<path id="Path 571" class="s6" d="m865 558l-5-2h3 2z"/>
		<path id="Path 572" class="s45" d="m865 558v-2l3 1v1z"/>
		<path id="Path 573" class="s0" d="m64 559v-2h2v1z"/>
		<path id="Path 574" class="s34" d="m126 560l2-3 4 3v4h-6z"/>
		<path id="Path 575" class="s12" d="m742 563l6-6h1l-3 6z"/>
		<path id="Path 576" class="s17" d="m868 558v-1l11 3-4 1z"/>
		<path id="Path 577" class="s16" d="m64 559l2-1v4l-2-1z"/>
		<path id="Path 578" class="s24" d="m87 570v-9l5-3 8 2v10h-7z"/>
		<path id="Path 579" class="s13" d="m145 559l1-1 6 1v7l-4 3-2-1z"/>
		<path id="Path 580" class="s23" d="m152 559l8-1 1 2-1 6h-8z"/>
		<path id="Path 581" class="s8" d="m198 560v-2h14v4 6h-10z"/>
		<path id="Path 582" class="s84" d="m248 564l2-6h6l-2 6z"/>
		<path id="Path 583" class="s84" d="m384 562v-4l8 1 4 7h4v5l-16-1z"/>
		<path id="Path 584" class="s80" d="m462 564l1-6h7l2 4v4l-4 2z"/>
		<path id="Path 585" class="s66" d="m517 566l3-5h7l1-3h3l1 8v4l-10 2v-4z"/>
		<path id="Path 586" class="s39" d="m532 566l-1-8h3 4v8z"/>
		<path id="Path 587" class="s16" d="m617 559l4-1-3 2z"/>
		<path id="Path 588" class="s36" d="m906 561l10-3-10 4z"/>
		<path id="Path 589" class="s62" d="m132 560l13-1 1 9h-11l-3-4z"/>
		<path id="Path 590" class="s83" d="m364 560l9-1 11 3v8 4l-14-1-1-4h-5v-1z"/>
		<path id="Path 591" class="s37" d="m610 561l7-2 1 1z"/>
		<path id="Path 592" class="s37" d="m649 563l-11-4h3z"/>
		<path id="Path 593" class="s22" d="m100 570v-10h4v4l4 1v4l-2 1z"/>
		<path id="Path 594" class="s43" d="m120 562l1-2h5v4l-2 6h-4z"/>
		<path id="Path 595" class="s62" d="m160 566l1-6h11v7l-9 1z"/>
		<path id="Path 596" class="s57" d="m192 565l3-5h3l4 8-2 2h-5z"/>
		<path id="Path 597" class="s85" d="m875 561l4-1h3l1 1v1z"/>
		<path id="Path 598" class="s73" d="m108 565l6-4 6 1v8l-6 2-6-3z"/>
		<path id="Path 599" class="s86" d="m260 572l6-9 8-2 3 1 1 8v8h-6l-2-4h-6z"/>
		<path id="Path 600" class="s37" d="m883 562v-1l8 1v1z"/>
		<path id="Path 601" class="s32" d="m901 562l2-1h3v1l-5 1z"/>
		<path id="Path 602" class="s23" d="m212 568v-6l10 2v4z"/>
		<path id="Path 603" class="s87" d="m278 570l-1-8h11l2 1v7z"/>
		<path id="Path 604" class="s81" d="m468 568l4-2v-4l12 6 3 9-17 11-10-2v-12h5z"/>
		<path id="Path 605" class="s29" d="m582 567v-5h6l8 2v1l-3 1-6 1z"/>
		<path id="Path 606" class="s54" d="m672 563l12-1 18 3 3 5h14l2 4-4 4-8 2h-8l-7-1-8-3-5-2-9-6z"/>
		<path id="Path 607" class="s61" d="m891 563v-1h10v1z"/>
		<path id="Path 608" class="s88" d="m290 570v-7l14 3 14 3 3 3-1 6h-2l-16 2-12-2z"/>
		<path id="Path 609" class="s47" d="m338 569l14-6 6 5v8l-2 2-20-2z"/>
		<path id="Path 610" class="s37" d="m596 564l7-1h1l-7 2h-1z"/>
		<path id="Path 611" class="s7" d="m658 567h-5l-4-4 9 3z"/>
		<path id="Path 612" class="s6" d="m735 567l7-4-7 5z"/>
		<path id="Path 613" class="s13" d="m124 570l2-6h6l3 4-8 6h-2z"/>
		<path id="Path 614" class="s84" d="m406 566v-2h8v7l-8 1z"/>
		<path id="Path 615" class="s48" d="m414 571v-7h3l3 4v4z"/>
		<path id="Path 616" class="s47" d="m456 568l2-4h4l6 4-3 6h-5l-2-2z"/>
		<path id="Path 617" class="s89" d="m180 566l12-1 3 5-1 7-26-1h-6l1-8 9-1z"/>
		<path id="Path 618" class="s19" d="m304 566l3-1 12 2-1 2z"/>
		<path id="Path 619" class="s7" d="m593 566l3-1h1l-4 2z"/>
		<path id="Path 620" class="s14" d="m76 570h-5l-3-4z"/>
		<path id="Path 621" class="s90" d="m148 569l4-3h8l3 2-1 8h-7-7z"/>
		<path id="Path 622" class="s50" d="m400 571v-5h6v6h-1z"/>
		<path id="Path 623" class="s76" d="m508 567l8-1v7l-3 4-5-1z"/>
		<path id="Path 624" class="s25" d="m516 573v-7h1l5 2v4 1z"/>
		<path id="Path 625" class="s55" d="m532 570v-4h6v4z"/>
		<path id="Path 626" class="s6" d="m587 567l6-1v1l-6 1z"/>
		<path id="Path 627" class="s26" d="m658 567v-1l8 3h-5z"/>
		<path id="Path 628" class="s58" d="m719 570l4-4h5v4l-2 3-5 1z"/>
		<path id="Path 629" class="s50" d="m318 569l1-2h1l12 1h5l1 1-2 7h-10l-5-4z"/>
		<path id="Path 630" class="s79" d="m496 573l6-6h4 2v9l-8 2h-4z"/>
		<path id="Path 631" class="s29" d="m565 568v-1h5l2 3-3 2h-1z"/>
		<path id="Path 632" class="s37" d="m582 568v-1h5v1z"/>
		<path id="Path 633" class="s12" d="m728 570l7-3v1l-9 5z"/>
		<path id="Path 634" class="s83" d="m127 574l8-6h11l2 1v7h-21z"/>
		<path id="Path 635" class="s90" d="m200 570l2-2h10 10l6 7 6 1v5h-1l-11-2-14-1h-8z"/>
		<path id="Path 636" class="s49" d="m358 576v-8h6v1 5 2z"/>
		<path id="Path 637" class="s82" d="m420 572v-4h12v4l-7 5z"/>
		<path id="Path 638" class="s84" d="m487 577l-3-9h6l6 5v5h-6z"/>
		<path id="Path 639" class="s34" d="m556 580l1-12h8l3 4v1 3l6 1v1l2 4h-16z"/>
		<path id="Path 640" class="s37" d="m572 570l10-2-13 4z"/>
		<path id="Path 641" class="s62" d="m106 570l2-1 6 3v2l-4 4h-3v-2l-1-3v-1z"/>
		<path id="Path 642" class="s82" d="m364 574v-5h5l1 4z"/>
		<path id="Path 643" class="s12" d="m670 572l-9-3h5l4 2z"/>
		<path id="Path 644" class="s12" d="m94 573l-16-3 7 1 8 1h1z"/>
		<path id="Path 645" class="s49" d="m85 571l2-1h6v2z"/>
		<path id="Path 646" class="s79" d="m93 572v-2h7 6v2h-12z"/>
		<path id="Path 647" class="s59" d="m114 572l6-2h4l1 4h-11z"/>
		<path id="Path 648" class="s83" d="m194 577l1-7h5v8h-5z"/>
		<path id="Path 649" class="s91" d="m278 578v-8h12v8l-9 1z"/>
		<path id="Path 650" class="s47" d="m384 574v-4l16 1 5 1v5l-5 2h-10z"/>
		<path id="Path 651" class="s29" d="m522 572l10-2h6 9l3 3-1 9-8 1-12 1-7-11z"/>
		<path id="Path 652" class="s81" d="m406 572l8-1 6 1 5 5 1 9h-26v-7l5-2v-5z"/>
		<path id="Path 653" class="s6" d="m670 572v-1l6 2z"/>
		<path id="Path 654" class="s37" d="m94 573v-1h12v1z"/>
		<path id="Path 655" class="s82" d="m253 589l1-11 6-6 4 2v8l8 2 1 12-5-1-7-2-3-1-5-2z"/>
		<path id="Path 656" class="s81" d="m320 578l1-6 5 4h10l20 2v6l-10 2-16-2z"/>
		<path id="Path 657" class="s86" d="m425 577l7-5h26l2 2v12l10 2v10l-14 5h-2l-4 1-3 1-8 1-2-5h-4l-1 7h-5l-11 1v-9l14-4v-8l-4-2z"/>
		<path id="Path 658" class="s37" d="m106 576v-3l1 3z"/>
		<path id="Path 659" class="s81" d="m364 574l6-1 14 1 6 5v4l-4 1-20 2-2-2v-8z"/>
		<path id="Path 660" class="s13" d="m513 577l3-4h6l7 11v1l-4 1h-7v-6z"/>
		<path id="Path 661" class="s6" d="m574 577l-6-1v-3z"/>
		<path id="Path 662" class="s6" d="m687 578l-11-5 5 1 5 2z"/>
		<path id="Path 663" class="s12" d="m721 574l5-1-2 4-7 1z"/>
		<path id="Path 664" class="s3" d="m110 578l4-4h11 2v2h-2l-11 1-2 2h-2z"/>
		<path id="Path 665" class="s87" d="m272 584l-8-2v-8h6l2 4z"/>
		<path id="Path 666" class="s61" d="m103 586l3-10h1v2l-2 8z"/>
		<path id="Path 667" class="s7" d="m114 577l11-1v1z"/>
		<path id="Path 668" class="s6" d="m125 577v-1h2 21 7v1z"/>
		<path id="Path 669" class="s30" d="m155 577v-1h7 6v1z"/>
		<path id="Path 670" class="s41" d="m168 577v-1l26 1 1 1z"/>
		<path id="Path 671" class="s88" d="m356 578l2-2h6v8h-8z"/>
		<path id="Path 672" class="s59" d="m500 578l8-2 5 1 5 3v6l-4 2h-10l-4 1z"/>
		<path id="Path 673" class="s92" d="m687 578l-1-2 8 3-5-1z"/>
		<path id="Path 674" class="s89" d="m470 588l17-11 3 1-2 8-2 7-4 2-5 2-3 1h-3-1z"/>
		<path id="Path 675" class="s37" d="m574 578v-1l15 5z"/>
		<path id="Path 676" class="s10" d="m105 586l2-8h3v1l-1 4v2l-1 1z"/>
		<path id="Path 677" class="s5" d="m222 580l-14-2 14 1z"/>
		<path id="Path 678" class="s81" d="m272 584v-6h6l3 1v11l-3 8h-4l-1-2z"/>
		<path id="Path 679" class="s93" d="m281 579l9-1 12 2 16-2v6l-7 2-3 6-27-2z"/>
		<path id="Path 680" class="s91" d="m308 592l3-6 7-2v-6h2l10 6v6l-18 2z"/>
		<path id="Path 681" class="s48" d="m390 579h10v7l-10-3z"/>
		<path id="Path 682" class="s90" d="m488 586l2-8h6 4v11l-3 1h-4z"/>
		<path id="Path 683" class="s33" d="m576 582l-2-4 15 4h1l6 11-3 3h-1v-2l2-5-6-3z"/>
		<path id="Path 684" class="s85" d="m701 582l-12-4 5 1 7 1z"/>
		<path id="Path 685" class="s12" d="m709 580l8-2-3 4h-5z"/>
		<path id="Path 686" class="s6" d="m109 583l1-4h2z"/>
		<path id="Path 687" class="s1" d="m222 580v-1l11 2v1z"/>
		<path id="Path 688" class="s21" d="m554 584l2-4 4 2 1 5h-1z"/>
		<path id="Path 689" class="s40" d="m701 582v-2h8v2z"/>
		<path id="Path 690" class="s32" d="m233 582v-1h1l2 2z"/>
		<path id="Path 691" class="s52" d="m541 583l8-1v1z"/>
		<path id="Path 692" class="s58" d="m561 587l-1-5h16l12 4v8h-2-8-3l-3-1z"/>
		<path id="Path 693" class="s0" d="m596 593l-6-11 6 3z"/>
		<path id="Path 694" class="s91" d="m386 584l4-1 10 3h26l4 2v8l-14 4-6-2-14 2v-4l-10-8z"/>
		<path id="Path 695" class="s52" d="m529 584l12-1-12 2z"/>
		<path id="Path 696" class="s30" d="m560 588l-11-5 5 1 6 3z"/>
		<path id="Path 697" class="s88" d="m330 590v-6l16 2v6z"/>
		<path id="Path 698" class="s91" d="m346 586l10-2h8l2 2-2 14h-15l-3-8z"/>
		<path id="Path 699" class="s87" d="m366 586l20-2v4l10 8v4l-4 3v7h-2-6-10l-1-6-9-4z"/>
		<path id="Path 700" class="s7" d="m108 586l1-1-2 8z"/>
		<path id="Path 701" class="s0" d="m525 586l4-1-4 2z"/>
		<path id="Path 702" class="s33" d="m103 595v-9h2 3l-1 7v4l-4-1z"/>
		<path id="Path 703" class="s59" d="m486 593l2-7 5 4-5 3h-1z"/>
		<path id="Path 704" class="s31" d="m514 588l4-2h7v1z"/>
		<path id="Path 705" class="s53" d="m588 594v-8l6 3-2 5z"/>
		<path id="Path 706" class="s85" d="m560 588v-1h1l11 6h-1z"/>
		<path id="Path 707" class="s32" d="m253 590l-4-2 4 1z"/>
		<path id="Path 708" class="s12" d="m500 589l4-1-7 2z"/>
		<path id="Path 709" class="s94" d="m278 598l3-8 27 2h4v8 6l-4-1-9-2-20-4z"/>
		<path id="Path 710" class="s87" d="m312 592l18-2 16 2 3 8-2 3h-7l-2 5h-12l-6-2-1-5-7-1z"/>
		<path id="Path 711" class="s12" d="m488 593l5-3h4z"/>
		<path id="Path 712" class="s7" d="m482 595l4-2h1z"/>
		<path id="Path 713" class="s7" d="m575 594l-4-1h1z"/>
		<path id="Path 714" class="s0" d="m593 596l3-3-3 4z"/>
		<path id="Path 715" class="s17" d="m578 595v-1h8v2h-1z"/>
		<path id="Path 716" class="s92" d="m586 596v-2h2 4v2z"/>
		<path id="Path 717" class="s7" d="m101 603l2-8v1l-1 7z"/>
		<path id="Path 718" class="s7" d="m274 598l-6-3 5 1z"/>
		<path id="Path 719" class="s30" d="m585 597l-7-2 7 1z"/>
		<path id="Path 720" class="s50" d="m102 603l1-7 4 1v4l-2 3z"/>
		<path id="Path 721" class="s31" d="m585 597v-1h1 6 1v1z"/>
		<path id="Path 722" class="s94" d="m396 600l14-2 6 2v9l-10 2h-13l-1-1v-7z"/>
		<path id="Path 723" class="s2" d="m456 603l14-5h1z"/>
		<path id="Path 724" class="s89" d="m312 606v-6l7 1 1 5z"/>
		<path id="Path 725" class="s94" d="m338 608l2-5h7l2-3h15l9 4 1 6v1l-16-2-15-1z"/>
		<path id="Path 726" class="s1" d="m105 604l2-3-1 11h-1z"/>
		<path id="Path 727" class="s89" d="m432 608l1-7h4l2 5-2 2z"/>
		<path id="Path 728" class="s26" d="m101 605v-2h1l3 1v8l-1 3-4 1v-6z"/>
		<path id="Path 729" class="s2" d="m450 604l4-1-4 2z"/>
		<path id="Path 730" class="s6" d="m447 605l3-1v1z"/>
		<path id="Path 731" class="s7" d="m99 610l2-5-1 5z"/>
		<path id="Path 732" class="s6" d="m326 608l-18-3 4 1h8z"/>
		<path id="Path 733" class="s6" d="m439 606l8-1-10 3z"/>
		<path id="Path 734" class="s14" d="m358 610l-15-2 15 1z"/>
		<path id="Path 735" class="s2" d="m416 609l11-1-21 4v-1z"/>
		<path id="Path 736" class="s32" d="m358 610v-1l16 2v1z"/>
		<path id="Path 737" class="s30" d="m98 616l1-6h1v6z"/>
		<path id="Path 738" class="s15" d="m374 611v-1h10v2h-10z"/>
		<path id="Path 739" class="s1" d="m384 612v-2h6v2z"/>
		<path id="Path 740" class="s15" d="m390 612v-2h2l1 1v1z"/>
		<path id="Path 741" class="s32" d="m393 612v-1h13v1z"/>
		<path id="Path 742" class="s5" d="m104 615l1-3h1l-2 14h-1z"/>
		<path id="Path 743" class="s80" d="m100 616l4-1-1 11h-3v-2z"/>
		<path id="Path 744" class="s95" d="m98 624v-8h2v8z"/>
		<path id="Path 745" class="s7" d="m99 628l-1-4h2v2 2z"/>
		<path id="Path 746" class="s14" d="m100 628v-2h3v2z"/>
		<path id="Path 747" class="s2" d="m103 628v-2h1v2z"/>
	</g>
</svg>