<svg version="1.2" xmlns="http://www.w3.org/2000/svg" viewBox="0 0 1000 1000" width="1000" height="1000">
	<title>Rhinichthys_atratulus</title>
	<style>
		.s0 { fill: #d8cbb3 } 
		.s1 { fill: #dcd0bb } 
		.s2 { fill: #d3c5ab } 
		.s3 { fill: #e0d8c5 } 
		.s4 { fill: #d7c8a7 } 
		.s5 { fill: #d3c094 } 
		.s6 { fill: #ebdcba } 
		.s7 { fill: #ece0c9 } 
		.s8 { fill: #c6b490 } 
		.s9 { fill: #ddcda6 } 
		.s10 { fill: #dec998 } 
		.s11 { fill: #e4d1a1 } 
		.s12 { fill: #f0e8d8 } 
		.s13 { fill: #c0ad89 } 
		.s14 { fill: #e8d6ac } 
		.s15 { fill: #cfb276 } 
		.s16 { fill: #dfd0ad } 
		.s17 { fill: #e6d8c0 } 
		.s18 { fill: #c1aa78 } 
		.s19 { fill: #c8ab6e } 
		.s20 { fill: #baa06e } 
		.s21 { fill: #d9c38f } 
		.s22 { fill: #c8b17f } 
		.s23 { fill: #b49e76 } 
		.s24 { fill: #c1a265 } 
		.s25 { fill: #e2d4b9 } 
		.s26 { fill: #ab8c5c } 
		.s27 { fill: #baa781 } 
		.s28 { fill: #b9985d } 
		.s29 { fill: #d1c8b6 } 
		.s30 { fill: #ccbfa9 } 
		.s31 { fill: #d4c49f } 
		.s32 { fill: #d5bb83 } 
		.s33 { fill: #91734f } 
		.s34 { fill: #ab8349 } 
		.s35 { fill: #d9c89f } 
		.s36 { fill: #92836a } 
		.s37 { fill: #cfbe99 } 
		.s38 { fill: #cabba0 } 
		.s39 { fill: #c1b29d } 
		.s40 { fill: #b7a78f } 
		.s41 { fill: #ae9d80 } 
		.s42 { fill: #643718 } 
		.s43 { fill: #6a3c1a } 
		.s44 { fill: #8e795a } 
		.s45 { fill: #9e8c6d } 
		.s46 { fill: #725232 } 
		.s47 { fill: #6c4122 } 
		.s48 { fill: #decfb3 } 
		.s49 { fill: #885b32 } 
		.s50 { fill: #73411a } 
		.s51 { fill: #5f3212 } 
		.s52 { fill: #5f4025 } 
		.s53 { fill: #83542a } 
		.s54 { fill: #7c4c23 } 
		.s55 { fill: #794d2c } 
		.s56 { fill: #7d5b39 } 
		.s57 { fill: #734623 } 
		.s58 { fill: #866c4b } 
		.s59 { fill: #8e633a } 
		.s60 { fill: #54290d } 
		.s61 { fill: #946230 } 
		.s62 { fill: #816443 } 
		.s63 { fill: #ceb889 } 
		.s64 { fill: #99805c } 
		.s65 { fill: #9d764b } 
		.s66 { fill: #aa946f } 
		.s67 { fill: #986d3f } 
		.s68 { fill: #a48a62 } 
		.s69 { fill: #b39567 } 
		.s70 { fill: #a37842 } 
		.s71 { fill: #b38f54 } 
		.s72 { fill: #a58152 } 
		.s73 { fill: #a3937a } 
		.s74 { fill: #453727 } 
		.s75 { fill: #534028 } 
		.s76 { fill: #3e2c16 } 
		.s77 { fill: #4a351c } 
		.s78 { fill: #3c220a } 
		.s79 { fill: #261b0f } 
		.s80 { fill: #6a5a43 } 
		.s81 { fill: #392e22 } 
		.s82 { fill: #1b1007 } 
		.s83 { fill: #322412 } 
		.s84 { fill: #5f4c33 } 
		.s85 { fill: #7e705b } 
		.s86 { fill: #2e241b } 
		.s87 { fill: #443a30 } 
		.s88 { fill: #72634c } 
		.s89 { fill: #65533b } 
		.s90 { fill: #e5decf } 
		.s91 { fill: #d8d2bf } 
		.s92 { fill: #f8f2e5 } 
	</style>
	<g id="Background">
		<path id="Path 9" class="s0" d="m559 328l3-3h10l2 12-6 2-2-3h-7z"/>
		<path id="Path 10" class="s1" d="m574 337l-2-12h6l3 4-1 8z"/>
		<path id="Path 11" class="s2" d="m545 335l5-5 9-2v8l-13 1z"/>
		<path id="Path 12" class="s3" d="m580 337l1-8h4l7 8v8h-7l-5-4z"/>
		<path id="Path 14" class="s4" d="m538 337l7-2 1 2-2 13h-2l-12-1-1-2z"/>
		<path id="Path 15" class="s5" d="m546 337l13-1h7l2 3 3 8-1 18-16 2v-14l-10-3z"/>
		<path id="Path 16" class="s6" d="m568 339l6-2h6v4l5 4 5 26-2 4-5-1-3-5v-19l-9-3z"/>
		<path id="Path 18" class="s7" d="m590 371l-5-26h7l3 1 4 25z"/>
		<path id="Path 19" class="s8" d="m517 356l12-9 1 2 2 12v4l-8 6-3-4h-5l-3-4 1-4z"/>
		<path id="Path 20" class="s9" d="m570 365l1-18 9 3v19h-4l-2-4z"/>
		<path id="Path 21" class="s10" d="m532 361l-2-12 12 1v7l-4 4z"/>
		<path id="Path 22" class="s11" d="m532 361h6l4-4v-7h2l10 3v14l-3 8-8 6h-6l-9-2-5 7-8 3-3-2v-4l9-6 3-6 8-6z"/>
		<path id="Path 23" class="s12" d="m508 366v-7h6l-1 4z"/>
		<path id="Path 24" class="s13" d="m508 366l5-3 3 4-8 8v8l-6 2-5 1-5-1v-2z"/>
		<path id="Path 25" class="s14" d="m554 367l16-2h4l2 4 4 28v4l-24 3-6-3-14 9-5-4 8-8 4-4-2-2-5 2-9 2v-7l10-8h6l8-6z"/>
		<path id="Path 26" class="s15" d="m508 383v-8l8-8h5l3 4-3 6-9 6z"/>
		<path id="Path 27" class="s16" d="m580 397l-4-28h4l3 5 5 1 2 20z"/>
		<path id="Path 28" class="s17" d="m588 375l2-4h9l1 2 2 27h-6l-2-5h-4z"/>
		<path id="Path 32" class="s18" d="m523 386l5-7 9 2-10 8z"/>
		<path id="Path 33" class="s19" d="m502 385l6-2h4v4l-8 5-2-1z"/>
		<path id="Path 34" class="s20" d="m488 390l4-5 5 1v4l3 1v6l-2 4h-8l-1-4z"/>
		<path id="Path 35" class="s21" d="m497 386l5-1v6h-2l-3-1z"/>
		<path id="Path 36" class="s22" d="m515 389l8-3 4 3v7l-4 7-11-2-2-3z"/>
		<path id="Path 37" class="s10" d="m504 392l8-5 3 2-5 9-4 2-3-3z"/>
		<path id="Path 38" class="s23" d="m481 397l7-7 1 7z"/>
		<path id="Path 39" class="s24" d="m500 397v-6h2l2 1-1 5z"/>
		<path id="Path 40" class="s13" d="m536 394l5-2 2 2-4 4z"/>
		<path id="Path 47" class="s18" d="m527 396l9-2 3 4-8 8-7 3-1-6z"/>
		<path id="Path 48" class="s25" d="m580 397l10-2h4l2 5h6v19l-2 2h-5l-1 4-4 3v13l5 2 2 5v1l-9-1-16-2-2-21 5-6h5 5l4-4-1-4h-7l-1-10z"/>
		<path id="Path 52" class="s26" d="m480 398l1-1h8l1 4-2 12h-6l-2-2z"/>
		<path id="Path 53" class="s21" d="m498 401l2-4h3l3 3-5 6z"/>
		<path id="Path 54" class="s27" d="m478 399l2-1v13h-4l-8 3h-2l7-9z"/>
		<path id="Path 55" class="s28" d="m506 400l4-2 2 3-2 7-6 4-3-6z"/>
		<path id="Path 56" class="s29" d="m957 401l3-2h6v1 7h-6z"/>
		<path id="Path 57" class="s30" d="m966 407v-7h10v7z"/>
		<path id="Path 58" class="s29" d="m976 407v-7l9 4 3 20-2 11-3 2-3-12 2-12-6-2z"/>
		<path id="Path 60" class="s24" d="m488 413l2-12h8l3 5 3 6v4l6 4v5 6h-4l-12-3v-5l-6-4z"/>
		<path id="Path 61" class="s21" d="m510 408l2-7 11 2 1 6v4h-6l-1-3z"/>
		<path id="Path 62" class="s13" d="m536 410l14-9 6 3-5 6-11 4h-3z"/>
		<path id="Path 63" class="s6" d="m556 404l24-3 1 10-1 8h-5l-5 6h-8l-2-7-9-2v-6z"/>
		<path id="Path 65" class="s31" d="m946 403l11-2 3 6v6l-24 2-1-6z"/>
		<path id="Path 67" class="s11" d="m524 409l7-3 5 4 1 4h3v6l-2 13h-5l-1-5h-4v-10l-4-5z"/>
		<path id="Path 70" class="s5" d="m960 413v-6h6 10v4 6h-11z"/>
		<path id="Path 71" class="s32" d="m504 412l6-4 7 2 1 3-8 7-6-4z"/>
		<path id="Path 72" class="s30" d="m930 411l1-2h4l1 6v2h-6z"/>
		<path id="Path 73" class="s14" d="m540 414l11-4v6l-6 4h-5z"/>
		<path id="Path 76" class="s33" d="m468 414l8-3-2 9 3 1v1 2l-9-3z"/>
		<path id="Path 77" class="s19" d="m477 421l-3-1 2-9h4l2 2z"/>
		<path id="Path 78" class="s2" d="m580 419l1-8h7l1 4-4 4z"/>
		<path id="Path 79" class="s31" d="m921 416l6-5h3v6h-6z"/>
		<path id="Path 80" class="s31" d="m976 417v-6l6 2-2 12h-4v-2z"/>
		<path id="Path 82" class="s34" d="m477 421l5-8h6v6l6 4v5h-8l-3-1-2-5h-4z"/>
		<path id="Path 83" class="s10" d="m510 420l8-7h6l4 5v10l-8 3-4-6h-6z"/>
		<path id="Path 84" class="s35" d="m936 415l24-2 5 4h11v6l-16 1-4 4v5l-6 3 2 13h-15l-1 8h-6v-10-11l6-4v-15z"/>
		<path id="Path 85" class="s36" d="m461 419l4-5h1 2v7l-2 1-5-1z"/>
		<path id="Path 88" class="s37" d="m545 420l6-4 9 2 2 7h8l2 21-14-1-8-3h-1z"/>
		<path id="Path 89" class="s5" d="m902 425l19-9 3 1-4 16-14 2-10-4z"/>
		<path id="Path 92" class="s21" d="m920 433l4-16h6 6v15l-6 4v11h-10z"/>
		<path id="Path 93" class="s38" d="m331 421l14-2v2z"/>
		<path id="Path 94" class="s39" d="m345 421v-2h9 24v2h-2l-30 1z"/>
		<path id="Path 95" class="s40" d="m378 421v-2h9v2z"/>
		<path id="Path 96" class="s41" d="m387 421v-2h3 3v2z"/>
		<path id="Path 97" class="s40" d="m393 421v-2l16 2-9 1z"/>
		<path id="Path 98" class="s30" d="m452 421l9-2v2l-11 3-2-1v-2z"/>
		<path id="Path 100" class="s13" d="m538 433l2-13h5l4 22h-4l-7-3z"/>
		<path id="Path 101" class="s39" d="m294 423l10-2h8v2h-12z"/>
		<path id="Path 102" class="s41" d="m312 423v-2h13v2z"/>
		<path id="Path 103" class="s36" d="m325 423v-2h6 14l1 1-12 1h-8z"/>
		<path id="Path 104" class="s42" d="m346 422l30-1v6h-11l-1 4-8 1v9h-8l-13-2-1-16z"/>
		<path id="Path 105" class="s43" d="m376 427v-6h2 9 6l7 1v1 8l8 5-2 15 4 2v12l-4 5v9l-5 2h-7l-4-4-2-31-1-4-11-3z"/>
		<path id="Path 106" class="s44" d="m400 422l9-1h3v2h-12z"/>
		<path id="Path 107" class="s45" d="m412 423v-2h6v2z"/>
		<path id="Path 108" class="s41" d="m418 423v-2h7v2z"/>
		<path id="Path 109" class="s13" d="m425 423v-2h10v2z"/>
		<path id="Path 110" class="s38" d="m435 423v-2h13v2z"/>
		<path id="Path 111" class="s46" d="m450 424l11-3 5 1v7h-5-9z"/>
		<path id="Path 112" class="s47" d="m466 422l2-1 9 3 3 3v4l-14-2z"/>
		<path id="Path 113" class="s48" d="m594 425l1-4h5v4z"/>
		<path id="Path 115" class="s39" d="m275 425l15-3 1 1-1 2-15 1z"/>
		<path id="Path 116" class="s49" d="m477 424v-2h4l2 5h-3z"/>
		<path id="Path 118" class="s36" d="m290 425l1-2h3 6z"/>
		<path id="Path 119" class="s42" d="m290 425l10-2h12 13 1l-1 10-33-2-3 4h-8l-1 4-8 1v11l-10 3 2 15v6h-10-2v-6l-7-4v-9l-3-3-16 2-14 1-4 23-5-4h-7l-12-12v-8l7-4h9l2-6h6 12l5-8 10-1 2-5 17-2h8l5-1 8-2z"/>
		<path id="Path 120" class="s43" d="m280 439l1-4h8l3-4 33 2 1-10h8l1 16v4h-6l-4 4-1 13 3 2 1 8h-4l-11 9-5-4-2-8-8-2h-9v-8l-10-5z"/>
		<path id="Path 121" class="s50" d="m408 436l-8-5v-8h12 6 7 10 13l2 1 2 5 1 12 1 7-2 3h-14l-1-8-13-10h-11z"/>
		<path id="Path 122" class="s4" d="m956 433v-5l4-4 16-1v2l-4 10z"/>
		<path id="Path 124" class="s40" d="m261 427l9-2h5v1l-8 2h-5z"/>
		<path id="Path 125" class="s20" d="m510 431v-6h6l4 6v3z"/>
		<path id="Path 126" class="s0" d="m595 443l-5-2v-13l4-3h6v16z"/>
		<path id="Path 127" class="s2" d="m972 435l4-10h4l3 12v6l-5 4h-6z"/>
		<path id="Path 128" class="s40" d="m228 430l27-3-1 2-17 2-12 2z"/>
		<path id="Path 129" class="s44" d="m254 429l1-2h1 5l1 1v1z"/>
		<path id="Path 130" class="s50" d="m364 431l1-4h11v12l-1 4h-7v-9z"/>
		<path id="Path 131" class="s51" d="m480 431v-4h3l3 1v3z"/>
		<path id="Path 132" class="s52" d="m262 429v-1h5z"/>
		<path id="Path 133" class="s43" d="m486 431v-3h8l12 3 3 11-1 17h-12l-2-5v-7l-1-8-5-2z"/>
		<path id="Path 134" class="s23" d="m520 431l8-3h4l1 5h5v6h-2l-16-5z"/>
		<path id="Path 135" class="s53" d="m453 441l-1-12h9l-3 12z"/>
		<path id="Path 136" class="s54" d="m458 441l3-12h5l14 2v10 10h-8l-6-2v-4z"/>
		<path id="Path 137" class="s52" d="m225 433l12-2-2 5-10 1-5 8h-12v-5l16-7z"/>
		<path id="Path 138" class="s43" d="m356 441v-9l8-1 4 3v9h-8z"/>
		<path id="Path 139" class="s55" d="m480 441v-10h6l2 6 5 2 1 8-7-6z"/>
		<path id="Path 140" class="s42" d="m509 442l-3-11h4l10 3 16 5 3 4-3 4-13-2-2-3z"/>
		<path id="Path 141" class="s15" d="m892 432l4-1 10 4v22h-5l-9 12h-8l-2-16v-8l10-6-1-4z"/>
		<path id="Path 142" class="s44" d="m202 439l22-6-16 7h-6z"/>
		<path id="Path 143" class="s55" d="m408 436l5-3h11l13 10 1 8 4 12-9-3-5-7h-18l-4-2z"/>
		<path id="Path 144" class="s32" d="m906 435l14-2v14l-4 3v7h-10z"/>
		<path id="Path 145" class="s31" d="m952 449l-2-13 6-3 16 2v12l-2 6h-12z"/>
		<path id="Path 146" class="s13" d="m861 454l30-19 1 4-10 6v8h-8l-2 4h-9z"/>
		<path id="Path 152" class="s38" d="m189 441l9-2h2v2l-9 4-10 2z"/>
		<path id="Path 153" class="s56" d="m200 441v-2h2v1l-1 1z"/>
		<path id="Path 154" class="s51" d="m272 451v-11l8-1-1 13-5 1z"/>
		<path id="Path 155" class="s55" d="m335 443v-4l13 2v7l-2 1-9-2z"/>
		<path id="Path 156" class="s57" d="m375 443l1-4 11 3 1 4-12 1z"/>
		<path id="Path 157" class="s58" d="m539 443l-3-4h2l7 3z"/>
		<path id="Path 158" class="s43" d="m201 441l1-1h6v5h-6z"/>
		<path id="Path 160" class="s47" d="m191 445l9-4h1l1 4-2 6h-9z"/>
		<path id="Path 161" class="s57" d="m348 448v-7h8l4 2v6z"/>
		<path id="Path 162" class="s59" d="m454 448l-1-7h5l8 4v4h-4z"/>
		<path id="Path 163" class="s57" d="m480 451v-10h7l7 6v7l-8 3h-6z"/>
		<path id="Path 164" class="s57" d="m508 459l1-17h12l2 3 13 2 3 7 8 5 2 9 7 1 15 1 13 10v11h-6l-7-1-13 1-5-8-6 2h-6l-6-16h-19z"/>
		<path id="Path 165" class="s54" d="m539 443l6-1h4 1v7l4 2v9l4 2-2 7-7-1-2-9-8-5-3-7z"/>
		<path id="Path 166" class="s56" d="m554 451l-4-2v-7l8 3v6z"/>
		<path id="Path 167" class="s47" d="m328 470l-1-8-3-2 1-13 4-4h6l2 4 9 2 4 16 7 5-2 4-5 1-10-5z"/>
		<path id="Path 168" class="s55" d="m360 449v-6h8 7l1 4-2 8h-4l-2-6z"/>
		<path id="Path 172" class="s52" d="m181 447l10-2v6l-7 4v8h-20-7l-4-4v-4l10-3 17-5z"/>
		<path id="Path 173" class="s59" d="m558 451v-6l14 1 16 2v23h-2l-6-6-1-7-7-1-4-4z"/>
		<path id="Path 174" class="s47" d="m376 447l12-1 2 31-12 1v-2-5l-4-1v-15z"/>
		<path id="Path 175" class="s40" d="m166 449l9-2h5l-17 5v-2z"/>
		<path id="Path 176" class="s5" d="m916 457v-7l4-3h10v10l-4 3v9h-10z"/>
		<path id="Path 177" class="s30" d="m970 453l2-6h6v6l-6 2z"/>
		<path id="Path 179" class="s60" d="m346 449l2-1 12 1h8l2 6-2 16v4h-6l-5-5-7-5z"/>
		<path id="Path 180" class="s51" d="m438 451h14l2-3 8 1v5l6 5 2 10v3l-7 9-12-3-1-6-8-9z"/>
		<path id="Path 181" class="s53" d="m588 471v-23l9 1 3 1 12 3v6 18l-2 2h-6l-3-4h-8z"/>
		<path id="Path 182" class="s38" d="m597 449v-1l3 1v1z"/>
		<path id="Path 185" class="s43" d="m468 459l-6-5v-5h4l6 2v8z"/>
		<path id="Path 186" class="s13" d="m600 450v-1h8l16 4h-3-9z"/>
		<path id="Path 187" class="s4" d="m936 457l1-8h15l6 4-2 18-4 6h-6l-1-6-8-2z"/>
		<path id="Path 188" class="s41" d="m157 451l6-1v2l-10 3h-4z"/>
		<path id="Path 189" class="s57" d="m264 469l-2-15 10-3 2 2v15l-3 1z"/>
		<path id="Path 190" class="s51" d="m472 459v-8h8v6l-2 2z"/>
		<path id="Path 191" class="s53" d="m556 469l2-7-4-2v-9h4l10 2 4 4 1 8-2 5z"/>
		<path id="Path 192" class="s47" d="m274 453l5-1 10 5v8l-1 12h-4l-3-4h-5l-2-5z"/>
		<path id="Path 193" class="s57" d="m226 455l16-2 3 3v9l7 4v6h-10l-2-6h-10l-4-6z"/>
		<path id="Path 194" class="s42" d="m410 465v-12h18l5 7 9 3 8 9 1 6-6 3h-8l-3-6h-6l-2-4h-7l-2-6z"/>
		<path id="Path 195" class="s49" d="m612 459v-6h9v4l-1 2z"/>
		<path id="Path 196" class="s58" d="m621 457v-4h3l9 2v1z"/>
		<path id="Path 198" class="s24" d="m872 457l2-4h8l2 16v2h-10z"/>
		<path id="Path 199" class="s0" d="m952 477l4-6 2-18h12l2 2v6l-13 22-4 1-3-1z"/>
		<path id="Path 201" class="s51" d="m486 457l8-3 2 5v16h-8-2z"/>
		<path id="Path 202" class="s39" d="m633 455h15l3 3-12-1-3-1h-3z"/>
		<path id="Path 204" class="s23" d="m854 457l7-3 2 3-3 6h-10v-2z"/>
		<path id="Path 205" class="s59" d="m136 456l7-1-1 6v2h-12v-4z"/>
		<path id="Path 206" class="s47" d="m142 461l1-6h3 3 4v4z"/>
		<path id="Path 207" class="s54" d="m208 479l4-23 14-1v8l4 6 2 8 10-2h10 2l-1 8h-10l-2 3-6-1-3 3-18-4z"/>
		<path id="Path 208" class="s57" d="m368 471l2-16h4v15l-1 1z"/>
		<path id="Path 209" class="s13" d="m122 458l10-2h4l-6 3-10 2h-3z"/>
		<path id="Path 210" class="s55" d="m621 457l12-1h3v3l-2 8-2 2h-6l-6-10z"/>
		<path id="Path 211" class="s56" d="m636 459v-3l3 1v2z"/>
		<path id="Path 212" class="s43" d="m478 459l2-2h6v18h-12l-4-3v-3l8-5z"/>
		<path id="Path 213" class="s61" d="m573 465l-1-8 7 1 1 7z"/>
		<path id="Path 214" class="s62" d="m639 459v-2l12 1h2l4 3-1 8h-6l-1-3-7-1z"/>
		<path id="Path 216" class="s7" d="m847 461l1-4h6l-4 4z"/>
		<path id="Path 217" class="s28" d="m850 463h10l3-6h9l2 14v6l-6 1 2 19v3h-10l-4-4v-8l-8-7z"/>
		<path id="Path 218" class="s63" d="m892 469l9-12h5 10v12l-7 6-1 12-9 1-1-3h-4v-4z"/>
		<path id="Path 219" class="s31" d="m926 469v-9l4-3h6l1 12 8 2 1 6v6 12l-14 3-2-21z"/>
		<path id="Path 220" class="s0" d="m657 461l-4-3h8l7 3h-2z"/>
		<path id="Path 221" class="s53" d="m120 461l10-2v4l-10 2z"/>
		<path id="Path 222" class="s54" d="m142 461l11-2 4 4h7v9l-6 1-2-4h-11l-3-6z"/>
		<path id="Path 223" class="s47" d="m470 469l-2-10h4 6v5z"/>
		<path id="Path 224" class="s60" d="m496 475v-16h12l8 10-2 12-14 2h-2z"/>
		<path id="Path 225" class="s57" d="m612 477v-18h8l6 10v6 2h-6z"/>
		<path id="Path 226" class="s53" d="m634 467l2-8h3l3 6z"/>
		<path id="Path 229" class="s64" d="m112 462l5-1-3 4h-7v-1z"/>
		<path id="Path 230" class="s54" d="m114 465l3-4h3v4l-6 2z"/>
		<path id="Path 231" class="s59" d="m656 469l1-8h9l1 8v1h-8z"/>
		<path id="Path 232" class="s33" d="m667 469l-1-8h2 10 2v6l-4 3z"/>
		<path id="Path 233" class="s65" d="m680 467v-6h3l9 2v4h-10z"/>
		<path id="Path 234" class="s66" d="m834 464l13-3h3v2l-2 18h-8l-6-4z"/>
		<path id="Path 236" class="s61" d="m120 465l10-2h12l3 6-1 10-4 4h-8l-16-2-2-14z"/>
		<path id="Path 237" class="s50" d="m164 472v-9h20l12 12-2 6-12 2h-3l-1-4h-7l-1-4z"/>
		<path id="Path 238" class="s33" d="m692 467v-4l16 2 3 2-1 6h-13z"/>
		<path id="Path 240" class="s23" d="m826 465l8-1v13h-4-9l-2-3 1-7z"/>
		<path id="Path 241" class="s49" d="m98 469l9-4h7v2l2 14-1 12-11-2-5 1-3-7-12 1 2-12 8-1z"/>
		<path id="Path 242" class="s51" d="m288 477l1-12h9v10 6h-6z"/>
		<path id="Path 243" class="s60" d="m298 475v-10l8 2 2 8h-2z"/>
		<path id="Path 244" class="s57" d="m406 479v-9l4-5h7l2 6-4 10z"/>
		<path id="Path 245" class="s42" d="m571 470l2-5h7l6 6v8l-2 1z"/>
		<path id="Path 246" class="s50" d="m634 467l8-2 7 1 1 3v6l-8 1-4 5h-4l-2-6v-6z"/>
		<path id="Path 247" class="s38" d="m711 467l-3-2 31 2h-7-12z"/>
		<path id="Path 248" class="s40" d="m800 469l8-3 6 1v6h-6l-8-1z"/>
		<path id="Path 249" class="s67" d="m676 470l4-3h2v8h-5-1z"/>
		<path id="Path 250" class="s59" d="m682 475v-8h10l5 6-7 2z"/>
		<path id="Path 251" class="s49" d="m710 473l1-6h9v6l4 2v6h-4-8z"/>
		<path id="Path 252" class="s59" d="m724 475l-4-2v-6h12v8z"/>
		<path id="Path 253" class="s49" d="m732 475v-8h7 12l3 6v10l-2 1h-6l-7-7z"/>
		<path id="Path 254" class="s65" d="m754 473l-3-6 10 1v2l-1 3z"/>
		<path id="Path 255" class="s27" d="m814 473v-6h6l-1 7z"/>
		<path id="Path 256" class="s60" d="m271 469l3-1 2 5-2 2-3-1z"/>
		<path id="Path 257" class="s40" d="m761 470v-2l13 1h11v2h-13z"/>
		<path id="Path 258" class="s68" d="m88 471l10-2-4 4-8 1v-1z"/>
		<path id="Path 259" class="s53" d="m144 479l1-10h11l2 4v6z"/>
		<path id="Path 260" class="s50" d="m242 475l-10 2-2-8h10z"/>
		<path id="Path 261" class="s54" d="m264 475v-6h7v5l3 1v6l-4 2z"/>
		<path id="Path 262" class="s47" d="m514 481l2-12h19l6 16-5 2-12-2z"/>
		<path id="Path 263" class="s51" d="m626 475v-6h6v6z"/>
		<path id="Path 264" class="s57" d="m650 475v-6h6l3 1-4 6z"/>
		<path id="Path 265" class="s54" d="m667 470v-1l9 1v5h-4-3z"/>
		<path id="Path 266" class="s38" d="m785 471v-2h11 4v3h-5-7z"/>
		<path id="Path 267" class="s13" d="m884 471v-2h8l2 12h-4v-4z"/>
		<path id="Path 268" class="s37" d="m908 487l1-12 7-6h10l4 8 2 21v21l-4 6h-13l-3 10h-4l-2 4h-12l-12-2-4-12h-14v-4l2-2h5l1-4 1-2 7-2h10l4-14 4-2 9-2z"/>
		<path id="Path 269" class="s50" d="m313 479l11-9h4 12l10 5v6l-15 4-11 1-11-5z"/>
		<path id="Path 270" class="s54" d="m350 475l5-1 2-4 5 5h6v6l-1 2-17-2z"/>
		<path id="Path 271" class="s42" d="m373 471l1-1 4 1v5h-3z"/>
		<path id="Path 272" class="s47" d="m650 475l5 1 4-6h8l2 5h3v8 11l-4 1h-10-12l-1-7-7-1v-6l4-5z"/>
		<path id="Path 273" class="s46" d="m760 473l1-3 11 1v4l-2 5h-4z"/>
		<path id="Path 275" class="s50" d="m368 475v-4h5l2 5h3v2l-1 3h-9z"/>
		<path id="Path 276" class="s49" d="m415 481l4-10h7l2 4 3 8-1 2h-6l-9-3z"/>
		<path id="Path 277" class="s43" d="m586 479v-8h2l5 4-2 4z"/>
		<path id="Path 278" class="s62" d="m772 475v-4h13l3 1v7z"/>
		<path id="Path 279" class="s18" d="m874 477v-6h10l6 6v4l2 4v5l-6 5h-6l-2-14z"/>
		<path id="Path 280" class="s43" d="m158 473l6-1 6 3 1 4-3 8-10-1v-7z"/>
		<path id="Path 281" class="s49" d="m463 481l7-9 4 3h12 2v8 3l-23-1z"/>
		<path id="Path 282" class="s59" d="m788 479v-7h7l1 9h-4z"/>
		<path id="Path 283" class="s65" d="m796 481l-1-9h5l8 1v10z"/>
		<path id="Path 284" class="s33" d="m73 477l13-4v1l-2 12-4 2-4 9h-4l-4-4h-6l-2-10 7-3z"/>
		<path id="Path 285" class="s57" d="m274 475l2-2h5l3 4-3 8h-3l-4-4z"/>
		<path id="Path 286" class="s57" d="m690 475l7-2h13l2 8v8h-8l-2-4-12-2z"/>
		<path id="Path 287" class="s55" d="m754 483v-10h6l6 7v3h-6z"/>
		<path id="Path 288" class="s67" d="m808 483v-10h6l5 1 2 3h9v10h-6z"/>
		<path id="Path 290" class="s65" d="m194 481l2-6h7l5 4 6 5-1 4h-7l-2-3h-10z"/>
		<path id="Path 291" class="s53" d="m253 483l1-8h10l6 8-3 2-10 2h-4z"/>
		<path id="Path 292" class="s57" d="m298 481v-6h8l3 10v2h-3l-8-1z"/>
		<path id="Path 293" class="s42" d="m309 485l-3-10h2l5 4v2z"/>
		<path id="Path 294" class="s50" d="m431 483l-3-8h6l3 6z"/>
		<path id="Path 295" class="s47" d="m488 483v-8h8l2 8z"/>
		<path id="Path 296" class="s57" d="m591 479l2-4h8l3 4v6h-11z"/>
		<path id="Path 297" class="s52" d="m626 477v-2h6l2 6h-1-7z"/>
		<path id="Path 298" class="s60" d="m672 483v-8h4 1v7z"/>
		<path id="Path 299" class="s55" d="m677 482v-7h5 8v8z"/>
		<path id="Path 300" class="s57" d="m724 481v-6h8l7 2 7 7v9l-16 2-6-8z"/>
		<path id="Path 301" class="s55" d="m770 480l2-5 16 4 4 2v10l-2 2h-16-2l-1-10z"/>
		<path id="Path 302" class="s54" d="m281 485l3-8h4l4 4h6v5l-8 3z"/>
		<path id="Path 303" class="s53" d="m378 478l12-1 4 4-6 4h-8l-3-4z"/>
		<path id="Path 304" class="s51" d="m610 479l2-2h8v6 3l-9-1z"/>
		<path id="Path 305" class="s42" d="m620 483v-6h6v4l-3 2z"/>
		<path id="Path 306" class="s65" d="m830 487v-10h4l6 4v8l-6 2z"/>
		<path id="Path 307" class="s69" d="m870 497l-2-19 6-1 4 4 2 14v1z"/>
		<path id="Path 308" class="s25" d="m946 483v-6h6v6z"/>
		<path id="Path 309" class="s70" d="m445 481l6-3 12 3 2 4-5 6h-10z"/>
		<path id="Path 310" class="s50" d="m132 483h8l4-4h14v7l-4 3-8 1-9 1-5-3z"/>
		<path id="Path 311" class="s53" d="m168 487l3-8h7l1 4-3 6h-6z"/>
		<path id="Path 312" class="s70" d="m401 481l5-2 9 2v1l-3 3h-10z"/>
		<path id="Path 313" class="s49" d="m584 480l2-1h5l2 6v6h-7-2z"/>
		<path id="Path 314" class="s49" d="m604 485v-6h6l1 6-1 2z"/>
		<path id="Path 315" class="s60" d="m766 483v-3h4l1 3z"/>
		<path id="Path 317" class="s53" d="m115 493l1-12 16 2v5l5 3v6l-1 3-6 2v6h-2-5l-4-3 1-7z"/>
		<path id="Path 318" class="s67" d="m182 483l12-2v4 2h-8z"/>
		<path id="Path 319" class="s71" d="m270 483l4-2 4 4-6 6v4l-1 2h-3l-1-12z"/>
		<path id="Path 320" class="s70" d="m309 485l4-4 11 5 2 9h-2-9l-6-8z"/>
		<path id="Path 321" class="s70" d="m335 485l15-4 17 2 1-2h9l3 4v8l-4 4h-2l-8-2-6 1-12-1h-6-4z"/>
		<path id="Path 322" class="s71" d="m388 485l6-4h7l1 4h10v9h-10l-10 1-4-2z"/>
		<path id="Path 323" class="s28" d="m431 483l6-2h8l5 10-3 4-5 1-8-1-4-3v-7z"/>
		<path id="Path 324" class="s67" d="m500 483l14-2 10 4v7l-1 5-2 2-17-2v-6l-4-2z"/>
		<path id="Path 325" class="s51" d="m623 483l3-2h7l-4 7-6-2z"/>
		<path id="Path 326" class="s57" d="m629 488l4-7h1 4v6l-6 5z"/>
		<path id="Path 327" class="s46" d="m712 489v-8h8v6z"/>
		<path id="Path 328" class="s52" d="m720 487v-6h4v6z"/>
		<path id="Path 329" class="s60" d="m792 491v-10h4v10z"/>
		<path id="Path 330" class="s42" d="m796 491v-10l12 2 1 17h-7l-4-2z"/>
		<path id="Path 331" class="s26" d="m834 491l6-2v-8h8l8 7v8l4 4-1 5-1 2-9 1-1-5h-5l-1 8h-3-4l-8-7v-4l7-3z"/>
		<path id="Path 332" class="s9" d="m892 485l-2-4h4v4z"/>
		<path id="Path 333" class="s28" d="m412 485l3-3 9 3 2 8-1 2h-11l-2-1z"/>
		<path id="Path 334" class="s56" d="m672 483l5-1 13 1 12 2 2 4v2h-11l-1 6h-14l-6-3z"/>
		<path id="Path 336" class="s72" d="m52 486l8-3 2 10-1 6h-7l-10-5z"/>
		<path id="Path 337" class="s72" d="m176 489l3-6h3l4 4 1 6-3 2h-8z"/>
		<path id="Path 338" class="s26" d="m241 486l2-3h10v4l-5 1v7l-1 2-5-1z"/>
		<path id="Path 339" class="s70" d="m488 486v-3h10 2v6h-4-6z"/>
		<path id="Path 340" class="s49" d="m547 485l6-2 5 8-2 2h-8z"/>
		<path id="Path 341" class="s55" d="m620 486v-3h3v3z"/>
		<path id="Path 342" class="s47" d="m752 484l2-1h6v10h-8z"/>
		<path id="Path 343" class="s52" d="m760 493v-10h6 5l1 10-1 2z"/>
		<path id="Path 344" class="s55" d="m809 500l-1-17 16 4 3 13v4l-5 4v4l-8-1v-7z"/>
		<path id="Path 345" class="s29" d="m946 495v-12h6l3 1-3 9-4 4z"/>
		<path id="Path 346" class="s68" d="m213 488l1-4 18 4v9h-6-7v-4z"/>
		<path id="Path 347" class="s51" d="m746 493v-9h6v9z"/>
		<path id="Path 349" class="s53" d="m84 486l12-1 3 7-4 2h-5l-4 4v5h-8l-2-6 4-9z"/>
		<path id="Path 350" class="s23" d="m194 487v-2h10l2 3-1 9-5-2-6-3z"/>
		<path id="Path 351" class="s69" d="m232 488l3-3 6 1 1 10-8 1h-2z"/>
		<path id="Path 352" class="s20" d="m257 487l10-2 1 12-10-2z"/>
		<path id="Path 353" class="s69" d="m272 495v-4l6-6h3l9 4v3l-5 5h-6z"/>
		<path id="Path 354" class="s28" d="m324 486l11-1 3 10-10 1-2-1z"/>
		<path id="Path 355" class="s34" d="m380 493v-8h8v8z"/>
		<path id="Path 356" class="s71" d="m426 493l-2-8h6v7z"/>
		<path id="Path 357" class="s28" d="m460 491l5-6 23 1 2 3v8h-6l-9 2h-5l-9-3z"/>
		<path id="Path 358" class="s61" d="m524 492v-7l12 2v6l-6-1z"/>
		<path id="Path 359" class="s70" d="m536 487l5-2h6l1 8h-12z"/>
		<path id="Path 360" class="s59" d="m593 491v-6h11l6 2 1-2 9 1h3l6 2 3 4v2l-8 5h-10l-16-2-1-1z"/>
		<path id="Path 361" class="s41" d="m892 490v-5h2 4l1 3-1 2z"/>
		<path id="Path 362" class="s65" d="m154 489l4-3 10 1 2 2-1 6-11 2-4-1z"/>
		<path id="Path 363" class="s26" d="m290 489l8-3 8 1v6l-4 2h-8l-4-3z"/>
		<path id="Path 364" class="s69" d="m187 493l-1-6h8v5h-1z"/>
		<path id="Path 365" class="s69" d="m248 495v-7l5-1h4l1 8-2 2z"/>
		<path id="Path 366" class="s65" d="m306 493v-6h3l6 8-1 2z"/>
		<path id="Path 367" class="s55" d="m632 492l6-5 7 1 1 7-14-1z"/>
		<path id="Path 368" class="s49" d="m712 489l8-2h4l6 8v2h-19l-7-2v-4-2z"/>
		<path id="Path 369" class="s59" d="m827 500l-3-13h6l4 4v6z"/>
		<path id="Path 370" class="s16" d="m899 488l9-1-1 6-9 2v-5z"/>
		<path id="Path 371" class="s73" d="m205 497l1-9h7l6 5v4l-5 2h-8z"/>
		<path id="Path 373" class="s58" d="m146 490l8-1v7l-8-1z"/>
		<path id="Path 374" class="s68" d="m169 495l1-6h6v6h-2z"/>
		<path id="Path 375" class="s18" d="m490 497v-8h6v8l-1 1z"/>
		<path id="Path 376" class="s69" d="m496 497v-8h4l4 2v6z"/>
		<path id="Path 377" class="s33" d="m137 491l9-1v5l-9 2z"/>
		<path id="Path 378" class="s26" d="m558 491l13-1-1 11h-6-8v-8z"/>
		<path id="Path 379" class="s72" d="m570 501l1-11 7 1v9l-3 2z"/>
		<path id="Path 380" class="s9" d="m886 495l6-5h6v5l-4 2h-8z"/>
		<path id="Path 382" class="s20" d="m99 492l5-1v9h-3l-6-6z"/>
		<path id="Path 383" class="s69" d="m104 500v-9l11 2 5 5-1 7h-3l-8-2h-1z"/>
		<path id="Path 384" class="s26" d="m447 495l3-4h10l1 5-5 2z"/>
		<path id="Path 385" class="s65" d="m575 502l3-2v-9h6 2v4l7 4v6h-17z"/>
		<path id="Path 386" class="s70" d="m593 499l-7-4v-4h7l4 5z"/>
		<path id="Path 387" class="s59" d="m692 497l1-6h11v4 1z"/>
		<path id="Path 388" class="s50" d="m790 493l2-2h4l2 7-8 1z"/>
		<path id="Path 389" class="s74" d="m187 493l6-1 3 9-12 2v-8z"/>
		<path id="Path 390" class="s75" d="m196 501l-3-9h1l6 3v6z"/>
		<path id="Path 391" class="s76" d="m285 497l5-5 4 3v6z"/>
		<path id="Path 392" class="s46" d="m426 493l4-1 4 3h-2l-7 1v-1z"/>
		<path id="Path 393" class="s69" d="m523 497l1-5h6v6z"/>
		<path id="Path 394" class="s26" d="m530 498v-6l6 1h12v8z"/>
		<path id="Path 395" class="s59" d="m61 499l1-6h6l4 4v6l-10 2z"/>
		<path id="Path 396" class="s77" d="m302 495l4-2 8 4v4l-6 3-6-3z"/>
		<path id="Path 397" class="s52" d="m376 497l4-4h8l4 2v2z"/>
		<path id="Path 398" class="s69" d="m548 501v-8h8v8z"/>
		<path id="Path 399" class="s67" d="m730 495l16-2h6 8l11 2 3 1 6 5v8h-4-20-16v-7l-10-5z"/>
		<path id="Path 400" class="s57" d="m771 495l1-2h2v3z"/>
		<path id="Path 401" class="s54" d="m774 496v-3h16v6l-4 2h-6z"/>
		<path id="Path 403" class="s70" d="m41 497l3-3 10 5v8l-6 4h-6z"/>
		<path id="Path 404" class="s19" d="m86 503v-5l4-4h5l6 6v5l-1 4h-4l-4-1-1-5z"/>
		<path id="Path 405" class="s78" d="m294 495h8v6h-8z"/>
		<path id="Path 406" class="s78" d="m392 495l10-1v7h-9l-1-4z"/>
		<path id="Path 407" class="s77" d="m402 501v-7h10l2 1v5z"/>
		<path id="Path 408" class="s72" d="m624 499l8-5 14 1h12v12h-2l-30-1-2-1z"/>
		<path id="Path 409" class="s67" d="m668 495l4-1 6 3v12 1l-6-1-5-2z"/>
		<path id="Path 411" class="s77" d="m137 497l9-2 8 1 4 1v6h-18l-4-3z"/>
		<path id="Path 412" class="s79" d="m158 497l11-2h5v10l-3 8h-9l-4-10z"/>
		<path id="Path 413" class="s78" d="m174 505v-10h2 8v8z"/>
		<path id="Path 414" class="s80" d="m200 501v-6l5 2 1 2v2z"/>
		<path id="Path 415" class="s81" d="m247 497l1-2 8 2 2-2 10 2h3 8 6l9 4h8l6 3 6-3h10 4l7 6 2 9-2 4-7 1-10-1-10-1-21 3h-4l-2 4-5-3-7 2-10-4-5-4v-11l-7-2z"/>
		<path id="Path 416" class="s75" d="m271 497l1-2 7 2z"/>
		<path id="Path 417" class="s76" d="m314 497l1-2h9v6h-10z"/>
		<path id="Path 418" class="s82" d="m324 501v-6h2l2 1v5z"/>
		<path id="Path 419" class="s83" d="m328 496l10-1h4l2 6v4 2h-9l-7-6z"/>
		<path id="Path 420" class="s75" d="m344 501l-2-6h6l-1 6z"/>
		<path id="Path 421" class="s78" d="m347 501l1-6 12 1v5z"/>
		<path id="Path 422" class="s83" d="m360 496l6-1v6h-6z"/>
		<path id="Path 423" class="s76" d="m366 501v-6l8 2v4h-7z"/>
		<path id="Path 424" class="s75" d="m414 500v-5h11v1 2l-5 2z"/>
		<path id="Path 425" class="s78" d="m425 496l7-1v7h-6l-1-4z"/>
		<path id="Path 426" class="s76" d="m432 502v-7h2l8 1v7l-6 4h-4z"/>
		<path id="Path 427" class="s77" d="m442 496l5-1 9 3v5h-14z"/>
		<path id="Path 428" class="s65" d="m658 507v-12h10l-1 12h-3z"/>
		<path id="Path 429" class="s34" d="m704 496v-1l7 2-1 4h-3z"/>
		<path id="Path 430" class="s35" d="m880 496v-1h6v2l-5 2z"/>
		<path id="Path 431" class="s30" d="m932 498l14-3 2 2-8 10-2 8-2 4h-4z"/>
		<path id="Path 432" class="s74" d="m234 497l8-1 5 1v7l-7 1-6-4z"/>
		<path id="Path 433" class="s75" d="m456 498l5-2 9 3v6l-14-2z"/>
		<path id="Path 434" class="s68" d="m593 499l4-3 1 1v8l-1 1-4-1z"/>
		<path id="Path 435" class="s65" d="m692 497l12-1 3 5h3l1-4h19l10 5v7h-62v-12z"/>
		<path id="Path 436" class="s63" d="m870 497l10-1 1 3-1 8h-8l-2-7z"/>
		<path id="Path 438" class="s65" d="m36 499l3-2h2l1 14-7 2-7-2v-5z"/>
		<path id="Path 439" class="s62" d="m72 503v-6h4l2 6z"/>
		<path id="Path 440" class="s74" d="m214 499l5-2h7v4 7l-4 3-9-8z"/>
		<path id="Path 441" class="s75" d="m226 501v-4h6 2v4z"/>
		<path id="Path 442" class="s83" d="m374 501v-4h2 16l1 4z"/>
		<path id="Path 443" class="s77" d="m475 499l9-2-3 8h-6z"/>
		<path id="Path 444" class="s79" d="m481 505l3-8h6l5 1 3 5v8h-13z"/>
		<path id="Path 445" class="s76" d="m495 498l1-1h8l17 2 1 3h7l4 4-1 5h-4l-12-2-4-5-14-1z"/>
		<path id="Path 446" class="s84" d="m521 499l2-2 7 1 18 3h8 8v4l-21-1-8 2h-2l-4-4h-7z"/>
		<path id="Path 447" class="s72" d="m598 505v-8l16 2v6l-2 1z"/>
		<path id="Path 448" class="s8" d="m881 499l5-2h8l-4 14h-10v-4z"/>
		<path id="Path 449" class="s85" d="m206 499h8l-1 4 9 8 3 7 15 3-12 4-9-5-6 1-1-2v-10l-6-4v-4z"/>
		<path id="Path 450" class="s79" d="m420 500l5-2 1 4z"/>
		<path id="Path 451" class="s81" d="m470 499h5v6h-5z"/>
		<path id="Path 452" class="s59" d="m790 499l8-1 4 2v12l-10-1-6-1v-1-8z"/>
		<path id="Path 453" class="s67" d="m54 507v-8h7l1 6-2 2z"/>
		<path id="Path 454" class="s68" d="m614 505v-6h10v6l-4 1z"/>
		<path id="Path 455" class="s74" d="m101 505v-5h3l3 3z"/>
		<path id="Path 456" class="s86" d="m130 508v-6l6-2 4 3h18l4 10-3 1h-15l-2-5z"/>
		<path id="Path 457" class="s86" d="m402 501l12-1h6l6 2h6v5 12h-11-4v-4l-8-6h-16l-1 13-22 2-2-1-8-3-12 1-4-6v-8-2h7l2 4 9 2 5-10h7 19z"/>
		<path id="Path 458" class="s33" d="m802 512v-12h7l5 4v7l-8 1z"/>
		<path id="Path 459" class="s22" d="m859 505l1-5h10l2 7 1 6-1 2h-6z"/>
		<path id="Path 460" class="s87" d="m184 503l12-2h4 6v4l6 4v10l-11-3h-26l-4-3 3-8z"/>
		<path id="Path 461" class="s87" d="m226 508v-7h8l6 4 7-1 7 2v11l5 4-1 4-8-2-7-2 1-7-6-6z"/>
		<path id="Path 462" class="s81" d="m344 505v-4h3 13 6 1l-5 10-9-2-2-4z"/>
		<path id="Path 463" class="s76" d="m564 505v-4h6l5 1 1 3-5 2z"/>
		<path id="Path 464" class="s65" d="m780 509v-8h6v8z"/>
		<path id="Path 465" class="s74" d="m62 505l10-2h6v8l-1 10-1 1-14 1h-2v-16z"/>
		<path id="Path 466" class="s80" d="m78 511v-8h8v4l-4 4z"/>
		<path id="Path 467" class="s84" d="m86 507v-4h5l1 5 4 1h-3v4l5 6-8 1-5-1v-2l3-1z"/>
		<path id="Path 468" class="s82" d="m101 505l6-2h1l3 3v10l-4 3h-9l-5-6v-4h3 4z"/>
		<path id="Path 469" class="s88" d="m107 519l4-3v-10l-3-3 8 2 1 12-2 3h-7-1z"/>
		<path id="Path 470" class="s86" d="m436 507l6-4h14l14 2h5 6l4 6h13v14h-3-8l-13-7-4 1-7 1-3 1-24-2z"/>
		<path id="Path 471" class="s81" d="m498 511v-8l14 1 4 5 12 2v12l-1 1h-11l-5 3-2-3-11 1z"/>
		<path id="Path 472" class="s79" d="m543 504l21 1 7 2 5-2h17l4 1-1 8-5 1-1 8-18 2h-12l-1-4h-5l-10-1-2-9z"/>
		<path id="Path 473" class="s64" d="m842 511l1-8h5l1 5v3z"/>
		<path id="Path 474" class="s86" d="m535 506l8-2-1 7h-6z"/>
		<path id="Path 475" class="s68" d="m822 512v-4l5-4 8 7-2 6h-4z"/>
		<path id="Path 476" class="s78" d="m117 517l-1-12h3l4 3v3l-1 6z"/>
		<path id="Path 477" class="s82" d="m597 506l1-1 14 1v13h-6l-10-5z"/>
		<path id="Path 478" class="s79" d="m612 506l2-1 6 1-1 17h-7v-4z"/>
		<path id="Path 479" class="s81" d="m620 506l4-1 2 1v7l5 4 25-2 8 2h8l8-1 8 1 2 8-2 2h-14-3-20l-3-4h-12l-4 2h-5l-8-2z"/>
		<path id="Path 480" class="s64" d="m858 507l1-2 7 10v4l-2 2h-4z"/>
		<path id="Path 481" class="s45" d="m23 509l5-3v5l-4 3-4 3v5h-1v-7z"/>
		<path id="Path 482" class="s87" d="m528 511h4l1-5h2l1 5h6l2 9v5l-9-2h-7z"/>
		<path id="Path 483" class="s76" d="m656 515l-25 2-5-4v-7l30 1z"/>
		<path id="Path 484" class="s77" d="m48 511l6-4h6v16h-6-4z"/>
		<path id="Path 485" class="s82" d="m82 511l4-4 2 9-3 1z"/>
		<path id="Path 486" class="s85" d="m123 508h5v3h-5z"/>
		<path id="Path 487" class="s79" d="m337 516l-2-9h9v8z"/>
		<path id="Path 488" class="s81" d="m432 519v-12h4v12z"/>
		<path id="Path 489" class="s83" d="m656 515v-8h2 6v10z"/>
		<path id="Path 490" class="s79" d="m664 517v-10h3l5 2v8z"/>
		<path id="Path 491" class="s58" d="m849 508l9-1 2 14v6l-2 12h-10l-3-4 5-4-1-16v-4z"/>
		<path id="Path 492" class="s27" d="m873 513l-1-6h8v4z"/>
		<path id="Path 493" class="s81" d="m128 511v-3h2l12 1 2 5-4 2-5 2h-6z"/>
		<path id="Path 494" class="s81" d="m222 511l4-3h12l6 6-1 7h-3l-15-3z"/>
		<path id="Path 495" class="s83" d="m678 509h62 16v16h-10l-2-6h-10l-20-2-8 1v7l-3 2-13-2-2-8-8-1-2-6z"/>
		<path id="Path 496" class="s81" d="m392 522l1-13h16l8 6v4l-5 4-3-2-5 2-5-2-6 3z"/>
		<path id="Path 497" class="s82" d="m672 517v-8l6 1 2 6z"/>
		<path id="Path 498" class="s81" d="m756 525v-16h20l-4 19h-4z"/>
		<path id="Path 499" class="s74" d="m772 528l4-19h4 6v1l-1 6 7 1 7 2 7-2 4 4-1 8h-7-10z"/>
		<path id="Path 500" class="s83" d="m792 517l-7-1 1-6 6 1z"/>
		<path id="Path 502" class="s84" d="m24 514l4-3 7 2v2h-7z"/>
		<path id="Path 503" class="s76" d="m35 513l7-2h6l2 12h-1-9-4-2l1-8z"/>
		<path id="Path 504" class="s85" d="m77 521l1-10h4l3 6v2z"/>
		<path id="Path 505" class="s45" d="m117 517h5l1-6h5l1 7h6l1 5-3 4-5 3-4 3-22 1v-3-1h5l3-4 5-2v-4z"/>
		<path id="Path 506" class="s76" d="m792 517v-6l10 1h4v5l-7 2z"/>
		<path id="Path 507" class="s77" d="m806 512l8-1 8 1 7 5-5 5-14-1-4-4z"/>
		<path id="Path 508" class="s84" d="m833 517l2-6h4v5l-2 3z"/>
		<path id="Path 509" class="s77" d="m839 516v-5h3 7v4z"/>
		<path id="Path 510" class="s84" d="m144 514h15l-1 5-8 3-8-2-2-4z"/>
		<path id="Path 511" class="s88" d="m159 514l3-1h9l4 3-1 3-10 2-6-2z"/>
		<path id="Path 513" class="s86" d="m20 522v-5l4-3 4 1v7l-6 3z"/>
		<path id="Path 514" class="s86" d="m590 523l1-8 5-1 10 5v3l-4 3-7 2-5-2z"/>
		<path id="Path 515" class="s79" d="m28 522v-7h7l-1 8z"/>
		<path id="Path 516" class="s74" d="m337 516l7-1 4 6v2h-2-8l-3-3z"/>
		<path id="Path 517" class="s76" d="m839 516l10-1 1 16-5 4h-4l-4-2v-14z"/>
		<path id="Path 518" class="s23" d="m866 519v-4h6l-1 4z"/>
		<path id="Path 519" class="s64" d="m135 518l5-2 2 4 8 2-1 4-4 1-9-4z"/>
		<path id="Path 520" class="s36" d="m174 519l1-3h26l11 3 1 2-1 2-11-2-8 6-7 1-8-7h-4z"/>
		<path id="Path 521" class="s86" d="m706 525v-7l8-1v8h-2z"/>
		<path id="Path 522" class="s81" d="m714 525v-8l20 2v7z"/>
		<path id="Path 523" class="s88" d="m824 522l5-5h4l4 2v14l4 2h-1-6l-2-4h-8z"/>
		<path id="Path 524" class="s8" d="m90 520l8-1 4 3v8 1h-4l-8-3z"/>
		<path id="Path 525" class="s44" d="m470 519l4-1 13 7-2 1-9 1-7-3z"/>
		<path id="Path 526" class="s13" d="m77 521l8-2 5 1v8l-2 1-10-2-2-5z"/>
		<path id="Path 527" class="s80" d="m102 522l-4-3h9v1z"/>
		<path id="Path 528" class="s24" d="m150 522l8-3 6 2v6l-7 5-12-3v-2l4-1z"/>
		<path id="Path 529" class="s22" d="m164 521l10-2v2 6h-10z"/>
		<path id="Path 530" class="s29" d="m213 521l6-1-3 13-14 1-2 13-4 1v5h-4l-8-6v-8l-1-8 3-3 7-1 8-6 11 2z"/>
		<path id="Path 531" class="s36" d="m287 522l21-3 1 6v2h-8-12l-2-1z"/>
		<path id="Path 532" class="s44" d="m309 525l-1-6 10 1v5h-3z"/>
		<path id="Path 533" class="s84" d="m412 523l5-4h4l-2 4z"/>
		<path id="Path 534" class="s44" d="m419 523l2-4h11 4l24 2v4h-12l-10 2-6-2z"/>
		<path id="Path 535" class="s89" d="m463 520l7-1-1 5-5 1z"/>
		<path id="Path 536" class="s74" d="m606 522v-3h6v4h-1-5z"/>
		<path id="Path 537" class="s87" d="m734 526v-7h10l2 6z"/>
		<path id="Path 538" class="s4" d="m928 525l4-6h4v11l4 7h-4-8z"/>
		<path id="Path 539" class="s35" d="m102 522l5-2h1l2 6-3 4h-5z"/>
		<path id="Path 540" class="s40" d="m110 526l-2-6h7v4z"/>
		<path id="Path 541" class="s39" d="m216 533l3-13 9 5v6l-6 5v8l-7-1z"/>
		<path id="Path 542" class="s36" d="m318 525v-5l10 1v2z"/>
		<path id="Path 543" class="s45" d="m328 521l7-1 3 3-1 2-9-2z"/>
		<path id="Path 544" class="s58" d="m348 521l12-1 8 3h-6-14z"/>
		<path id="Path 545" class="s88" d="m460 521l3-1 1 5h-4z"/>
		<path id="Path 546" class="s74" d="m544 525v-5l10 1v4h-2z"/>
		<path id="Path 547" class="s8" d="m174 527v-6h4l8 7-3 3h-9z"/>
		<path id="Path 548" class="s8" d="m228 525l12-4h3l7 2 2 3-2 7h-14l-8-2z"/>
		<path id="Path 549" class="s45" d="m258 525l1-4 10 4-11 1z"/>
		<path id="Path 550" class="s68" d="m370 524l22-2 1 2-6 3h-15z"/>
		<path id="Path 551" class="s22" d="m393 524l6-3 5 2v6l-4 3v5h-10v-7l-3-3z"/>
		<path id="Path 552" class="s13" d="m404 523l5-2 3 2h7l13 2v6 5l-10 7-10-2v-10l-8-2z"/>
		<path id="Path 553" class="s80" d="m554 525v-4h5l1 4z"/>
		<path id="Path 554" class="s84" d="m809 529l1-8 14 1v9h-4z"/>
		<path id="Path 555" class="s45" d="m860 527v-6h4v4 2z"/>
		<path id="Path 556" class="s40" d="m19 523v-1h1l2 3v2z"/>
		<path id="Path 557" class="s85" d="m22 525l6-3 6 1h2l-3 3 1 5h-7l-5-4z"/>
		<path id="Path 558" class="s21" d="m62 523l14-1 2 5-1 4h-15z"/>
		<path id="Path 559" class="s27" d="m281 526l2-4h4v4z"/>
		<path id="Path 560" class="s85" d="m572 525l18-2v2l-4 2h-13z"/>
		<path id="Path 561" class="s44" d="m602 525l4-3v1z"/>
		<path id="Path 568" class="s41" d="m34 531l-1-5 3-3h4v2 6z"/>
		<path id="Path 569" class="s44" d="m40 525v-2h9l-1 2z"/>
		<path id="Path 570" class="s8" d="m48 525l1-2h1 4v14h-4l-2-4z"/>
		<path id="Path 571" class="s37" d="m54 537v-14h6 2v8 6z"/>
		<path id="Path 572" class="s32" d="m133 527l3-4 9 4v2l-2 1z"/>
		<path id="Path 573" class="s64" d="m252 526l-2-3 8 2v1z"/>
		<path id="Path 574" class="s5" d="m269 525l7-2 5 3h6l2 1-1 11-4 2v11h-11l-1 4h-4l-1-5-9-3-8-14 2-7h6z"/>
		<path id="Path 575" class="s31" d="m318 525l10-2 9 2 1 10-6 1-5-3h-13l-1-4 2-4z"/>
		<path id="Path 576" class="s37" d="m337 525l1-2h8v10l-8 2z"/>
		<path id="Path 577" class="s8" d="m346 533v-10h2 14v6 6h-9z"/>
		<path id="Path 578" class="s13" d="m362 529v-6h6l2 1 2 3v2z"/>
		<path id="Path 579" class="s88" d="m527 524l1-1h7l-6 3z"/>
		<path id="Path 580" class="s73" d="m529 526l6-3 9 2h8v4l-6 6h-16l-1-6z"/>
		<path id="Path 581" class="s73" d="m602 525l4-2h5l2 5-13 1-4 4h-10v-6l4-2 5 2z"/>
		<path id="Path 582" class="s44" d="m613 528l-2-5h1 7l8 2-2 3h-4z"/>
		<path id="Path 583" class="s73" d="m632 525l4-2 1 5-5 1z"/>
		<path id="Path 584" class="s85" d="m637 528l-1-5h12l3 4h20l-2 3z"/>
		<path id="Path 585" class="s13" d="m464 525l5-1 7 3 9-1v4l-1 11-6-1-5-9h-6l-7-1v-5z"/>
		<path id="Path 586" class="s85" d="m498 525l11-1 2 3-1 2-8 1h-5l-2-5z"/>
		<path id="Path 587" class="s41" d="m511 527l5-3h11l2 2v3l-13 2-6-2z"/>
		<path id="Path 588" class="s13" d="m40 531v-6h8v8z"/>
		<path id="Path 589" class="s37" d="m309 527v-2h6l-2 4z"/>
		<path id="Path 590" class="s8" d="m432 531v-6l6 2v4z"/>
		<path id="Path 591" class="s13" d="m438 527l10-2v8h-9l-1-2z"/>
		<path id="Path 592" class="s8" d="m448 533v-8h12v5l-7 3z"/>
		<path id="Path 593" class="s23" d="m485 526l2-1h8l2 5h-12z"/>
		<path id="Path 594" class="s41" d="m552 529v-4h2 6 12l1 2-5 2-9 2z"/>
		<path id="Path 595" class="s41" d="m625 528l2-3h5v4l-4 2z"/>
		<path id="Path 596" class="s36" d="m688 527l2-2 13 2 3 2v3l-18-1z"/>
		<path id="Path 597" class="s85" d="m703 527l3-2h6l-2 3-4 1z"/>
		<path id="Path 598" class="s36" d="m710 528l2-3h2l20 1 12-1h10l12 3-1 5h-12l-41-2z"/>
		<path id="Path 599" class="s27" d="m864 527v-2h14l4 12-12 2-3-1z"/>
		<path id="Path 600" class="s9" d="m912 535l3-10h13v12l-8 2h-5z"/>
		<path id="Path 601" class="s16" d="m289 527h12l1 22-8 3v11h-7l-3-12v-11l4-2z"/>
		<path id="Path 602" class="s25" d="m301 527h8l4 2 1 4-2 22h-6l-4-6z"/>
		<path id="Path 603" class="s63" d="m372 527h15l3 3v7h-16l-2-8z"/>
		<path id="Path 604" class="s38" d="m573 527h13v6 8l-7-4h-9l-2-8z"/>
		<path id="Path 605" class="s11" d="m77 531l1-4 10 2 4 4v5l-14 1z"/>
		<path id="Path 606" class="s14" d="m128 530l5-3 10 3-1 20-1 1h-7l-1-14z"/>
		<path id="Path 607" class="s11" d="m157 532l7-5h10v4l-4 6h-13z"/>
		<path id="Path 608" class="s40" d="m637 528l32 2 2-3h3l3 5v5l-19 2-12-2v-2l-6 2-2 2h-7l-3-6v-2l4-2z"/>
		<path id="Path 609" class="s73" d="m677 532l-3-5h14v4z"/>
		<path id="Path 610" class="s23" d="m858 539l2-12h4l3 11 3 1v14 4h-6l-2-4h-4z"/>
		<path id="Path 612" class="s73" d="m88 529l2-1 8 3v3l-6-1z"/>
		<path id="Path 613" class="s0" d="m596 533l4-4 13-1h8l1 5h6l3 6h7v6 16l-2 2h-9l-5-8-20-2v-9l-6-3z"/>
		<path id="Path 614" class="s4" d="m628 533h-6l-1-5h4l3 3z"/>
		<path id="Path 615" class="s39" d="m706 529l4-1 4 3v4h-6l-2-3z"/>
		<path id="Path 616" class="s73" d="m767 533l1-5h4l20 1 1 5-4 3-22-3z"/>
		<path id="Path 617" class="s21" d="m143 530l2-1 12 3v5l-3 8-4 6h-4l-4-1z"/>
		<path id="Path 618" class="s21" d="m362 535v-6h10l2 8h-8z"/>
		<path id="Path 619" class="s31" d="m400 537v-5l4-3 8 2v10h-12z"/>
		<path id="Path 620" class="s4" d="m502 530l8-1 6 2v8h-14z"/>
		<path id="Path 621" class="s39" d="m516 531l13-2 1 6-5 8h-5l-4-4z"/>
		<path id="Path 622" class="s0" d="m546 535l6-6 7 2 9-2 2 8-4 8-11 3-9-9z"/>
		<path id="Path 623" class="s45" d="m793 534l-1-5h10v8h-7z"/>
		<path id="Path 624" class="s68" d="m802 537v-8h7l11 2v5l-6 7z"/>
		<path id="Path 625" class="s17" d="m102 534l22-1 4-3 5 7 1 14-1 4-12-2-1-6-4-8-16 2v-7z"/>
		<path id="Path 626" class="s31" d="m453 533l7-3 7 1 1 12-4 2-10-2-1-4z"/>
		<path id="Path 627" class="s31" d="m484 541l1-11h12 5v9 6l-4 1v3h-12z"/>
		<path id="Path 628" class="s2" d="m688 531l18 1 2 3h6l5 6 1 8-4 1v7l-18 2-2-10-2-9-17-3v-5z"/>
		<path id="Path 629" class="s40" d="m28 533l-1-2h7 6l8 2 2 4v2l-16-2z"/>
		<path id="Path 630" class="s16" d="m62 537v-6h15l1 8-4 6h-6z"/>
		<path id="Path 631" class="s44" d="m98 534v-3h4v3h-2z"/>
		<path id="Path 632" class="s12" d="m170 537l4-6h9l1 8h-14z"/>
		<path id="Path 633" class="s21" d="m222 544v-8l6-5 8 2v18h-12l-2-1z"/>
		<path id="Path 634" class="s37" d="m432 536v-5h6l1 2-1 4z"/>
		<path id="Path 635" class="s37" d="m468 543l-1-12h6l5 9-6 4z"/>
		<path id="Path 636" class="s38" d="m714 535v-4l41 2-1 14-21 4-9-2h-4l-1-8z"/>
		<path id="Path 637" class="s44" d="m820 536v-5h4 8l2 4v2l-11 2z"/>
		<path id="Path 640" class="s1" d="m92 538v-5l6 1h2v7h-4z"/>
		<path id="Path 641" class="s17" d="m200 547l2-13 14-1-1 10-5 6h-8z"/>
		<path id="Path 642" class="s11" d="m236 551v-18h14l8 14 2 11v7h-4l-11-10h-6z"/>
		<path id="Path 643" class="s48" d="m312 555l2-22h13l5 3v10 5 7l3 3h9l2 4v4h-16l-6-6h-12z"/>
		<path id="Path 644" class="s0" d="m338 535l8-2 7 2v8l-1 4h-12l-8-1v-10z"/>
		<path id="Path 645" class="s31" d="m438 537l1-4h9v6l-10 2z"/>
		<path id="Path 646" class="s35" d="m448 539v-6h5v6z"/>
		<path id="Path 647" class="s39" d="m586 541v-8h10v8z"/>
		<path id="Path 648" class="s2" d="m754 547l1-14h12v1l-5 15z"/>
		<path id="Path 649" class="s38" d="m762 549l5-15 22 3 7 9v9l-23-4-4 5h-5z"/>
		<path id="Path 650" class="s8" d="m789 537l4-3 2 3h7l12 6 4 2-2 16-4 2-7-6-9-2v-9z"/>
		<path id="Path 651" class="s48" d="m353 543v-8h9l4 2v6z"/>
		<path id="Path 652" class="s1" d="m520 543h5l5-8h16v4l9 9 11-3 4-8h9l7 4h10l6 3v9h-17l-1 10-22 2-31 2-1-4h-6v-12l-4-4z"/>
		<path id="Path 653" class="s2" d="m640 537l6-2v2l-2 2z"/>
		<path id="Path 654" class="s45" d="m834 537v-2h6v4h-4z"/>
		<path id="Path 655" class="s64" d="m840 539v-4h1 4l3 4v2z"/>
		<path id="Path 656" class="s35" d="m906 539l2-4h4l3 4h5v6l10 2 1 5-5 7h-6l-5-8-6-1z"/>
		<path id="Path 657" class="s2" d="m422 543l10-7 6 1v4l-4 1v7h-12z"/>
		<path id="Path 658" class="s23" d="m814 543l6-7 3 3 11-2 2 2 2 24h-8l-3-3 1-13-10-2z"/>
		<path id="Path 659" class="s30" d="m33 541l1-4 16 2v6l-7 5-6-1 1-7z"/>
		<path id="Path 660" class="s39" d="m50 539v-2h4 8l6 8h6l3 5 8 3-1 8h-8l-22-6 2-7-6-3z"/>
		<path id="Path 661" class="s7" d="m154 545l3-8h13v2l-3 5z"/>
		<path id="Path 662" class="s4" d="m366 543v-6h8 16v8h-8z"/>
		<path id="Path 663" class="s25" d="m390 545v-8h10v4l-2 4z"/>
		<path id="Path 664" class="s1" d="m638 539l2-2 4 2v6h-6z"/>
		<path id="Path 665" class="s0" d="m644 539l2-2 12 2 19-2 17 3 2 9h-6l-12-2-15 4-14-2-5-4z"/>
		<path id="Path 666" class="s22" d="m870 539l12-2 12 2 3 18 5 3v7l-4 1-2 5-8 1-4-11-2-10h-12z"/>
		<path id="Path 667" class="s31" d="m920 539l8-2h8v13l12 11h4l2 6h6l1 5-1 13h-2-12l-2 4h-6l-5-6h-8l-1-5-4-19h6l5-7-1-5-10-2z"/>
		<path id="Path 668" class="s30" d="m952 561h-4l-12-11v-13h4l5 5 9 18z"/>
		<path id="Path 669" class="s3" d="m78 539l14-1 4 3v6 6h-11l-8-3-3-5z"/>
		<path id="Path 670" class="s7" d="m100 541l16-2 4 8h-24v-6z"/>
		<path id="Path 671" class="s90" d="m154 545l13-1 3-5h14v8l-4 1v7h-7l-3 4h-14l-6-8z"/>
		<path id="Path 672" class="s0" d="m438 541l10-2h5l1 4v8l-20-2v-7z"/>
		<path id="Path 673" class="s0" d="m502 545v-6h14l4 4v4h-5z"/>
		<path id="Path 674" class="s68" d="m838 563l-2-24h4l8 2v7l4 5 3 12v2l-11 2z"/>
		<path id="Path 675" class="s66" d="m848 541v-2h10v14h-6l-4-5z"/>
		<path id="Path 676" class="s5" d="m902 567v-7l-5-3-3-18h12l3 11 6 1 5 8 4 19-10 1-2-4-6-1z"/>
		<path id="Path 677" class="s1" d="m472 544l6-4 6 1 2 8-14 2z"/>
		<path id="Path 678" class="s73" d="m33 545v-4l5 1-1 7z"/>
		<path id="Path 679" class="s0" d="m398 545l2-4h12l10 2v6l-4 4-16 1-4-1z"/>
		<path id="Path 681" class="s37" d="m210 549l5-6 7 1v6l-2 1h-10z"/>
		<path id="Path 682" class="s1" d="m352 547l1-4h13l16 2 3 16v2l-33 2v-12z"/>
		<path id="Path 683" class="s2" d="m454 551v-8l10 2v6z"/>
		<path id="Path 684" class="s0" d="m464 545l4-2 4 1v7h-8z"/>
		<path id="Path 686" class="s0" d="m43 550l7-5 6 3-2 7-10-2z"/>
		<path id="Path 687" class="s30" d="m385 561l-3-16h8 8v8l-2 8h-4z"/>
		<path id="Path 688" class="s29" d="m498 549v-3l4-1 13 2-3 10h-6l-2-5z"/>
		<path id="Path 689" class="s48" d="m638 561v-16h6l5 4 14 2-2 5-10 1-1 4z"/>
		<path id="Path 690" class="s27" d="m816 561l2-16 10 2-1 13z"/>
		<path id="Path 691" class="s30" d="m332 551v-5l8 1v4z"/>
		<path id="Path 692" class="s91" d="m96 553v-6h24l1 6-13 2z"/>
		<path id="Path 693" class="s0" d="m180 555v-7l4-1 8 6-2 4h-8z"/>
		<path id="Path 694" class="s25" d="m196 553v-5l4-1 2 2v4z"/>
		<path id="Path 695" class="s10" d="m260 558l-2-11 9 3 1 5z"/>
		<path id="Path 696" class="s2" d="m340 551v-4h12v6z"/>
		<path id="Path 697" class="s91" d="m498 549l6 3 2 5h6l3-10h5l4 4v12 4h-5l-1 4-14 4h-20l-6-4-34 2-6-6-8 2-3-4-23 2-2-6v-7l16-1 4-4h12l20 2h10 8l14-2z"/>
		<path id="Path 698" class="s25" d="m663 551l15-4 12 2v12l-10 2h-28l-2-2 1-4 10-1z"/>
		<path id="Path 699" class="s30" d="m733 551l21-4 8 2 2 7v7l-72 4v-6l6-2 18-2 8-2 8-1z"/>
		<path id="Path 700" class="s4" d="m202 553v-4h8v2l-4 5z"/>
		<path id="Path 701" class="s48" d="m294 563v-11l8-3 4 6v8h-6z"/>
		<path id="Path 702" class="s48" d="m690 561v-12h6l2 10-6 2z"/>
		<path id="Path 703" class="s0" d="m716 557v-7l4-1h4v6z"/>
		<path id="Path 704" class="s2" d="m724 555v-6l9 2-1 3z"/>
		<path id="Path 705" class="s37" d="m141 551l1-1 4 1v4h-5z"/>
		<path id="Path 706" class="s69" d="m220 551l2-1 2 1-3 3z"/>
		<path id="Path 707" class="s31" d="m133 555l1-4h7v4l-3 4z"/>
		<path id="Path 708" class="s3" d="m146 555v-4h4l6 8v2h-8z"/>
		<path id="Path 709" class="s23" d="m206 556l4-5h10l1 3-4 11h-5l-6-2z"/>
		<path id="Path 710" class="s63" d="m221 554l3-3h12l3 4-1 10 11 8v3l-1 9-1 2h-7l-4-1v-3l-7-4-5-7-6-1-1-6z"/>
		<path id="Path 711" class="s9" d="m272 555l1-4h11l3 12-1 2h-4l-2-5z"/>
		<path id="Path 712" class="s4" d="m346 565l-2-4h-9l-3-3v-7h8l12 2v12z"/>
		<path id="Path 713" class="s39" d="m764 556h5l4-5 23 4 9 2 7 6 4 6h-6l-9-4h-11l-26-2z"/>
		<path id="Path 715" class="s30" d="m84 561l1-8h11l12 2-2 10h-12l-6-2z"/>
		<path id="Path 716" class="s29" d="m108 555l13-2 12 2 5 4 2 6h8l4 5-2 5-16-2-16-3-2-3h-10v-2z"/>
		<path id="Path 717" class="s35" d="m182 557h8l2-4h4 6l4 3v7l6 2v6h-7-10l-1-4-10 2h-2z"/>
		<path id="Path 718" class="s1" d="m396 561l2-8 4 1v7z"/>
		<path id="Path 719" class="s16" d="m584 563l1-10h17l20 2 5 8v7l7 2v4l4 2v11l-4 2v4h-10l-13-11-7-1-6-1 2-15-7-4z"/>
		<path id="Path 720" class="s20" d="m855 565l-3-12h6 4l2 4-2 8z"/>
		<path id="Path 721" class="s18" d="m870 557v-4h12l2 10h-8z"/>
		<path id="Path 723" class="s17" d="m138 559l3-4h5l2 6v4h-8z"/>
		<path id="Path 724" class="s6" d="m170 559l3-4h7l2 2v12h-4-8v-6z"/>
		<path id="Path 725" class="s21" d="m249 576v-3l-11-8 1-10h6l11 10h4v4 5z"/>
		<path id="Path 726" class="s14" d="m260 558l8-3h4l8 5 2 5h4v8l-1 3-25-7v-4z"/>
		<path id="Path 727" class="s1" d="m306 563v-8h6v8z"/>
		<path id="Path 728" class="s69" d="m862 565l2-8h6l6 6v14l4 3v5l-11 1v-4l-7-6v-7z"/>
		<path id="Path 729" class="s7" d="m156 561v-2h14v4z"/>
		<path id="Path 730" class="s73" d="m816 561l11-1 3 3v9h-2l-12-3-4-6z"/>
		<path id="Path 731" class="s91" d="m952 561l2-1 6 3v4h-6z"/>
		<path id="Path 733" class="s25" d="m148 565v-4h8l14 2v6 7l-2 1h-18v-2l2-5z"/>
		<path id="Path 734" class="s91" d="m385 563v-2h7l-2 6h-4z"/>
		<path id="Path 735" class="s3" d="m385 563l1 4h4l2-6h4 6l2 6 23-2 3 4 8-2 6 6 34-2 6 4v6l-46 2h-5l-1-4h-16l-2-2-36 2-26-2v-4l-6-4v-4h6z"/>
		<path id="Path 736" class="s3" d="m636 563l2-2h12l2 2v6l-2 3-14-1z"/>
		<path id="Path 737" class="s29" d="m680 563l10-2h2v6h-12z"/>
		<path id="Path 740" class="s25" d="m286 565l1-2h7 6v10h-14z"/>
		<path id="Path 741" class="s17" d="m300 573v-10h6 6 12l6 6h16l6 4v4 6l-6 4-15-1-3-2-6-7h-18z"/>
		<path id="Path 742" class="s0" d="m524 567v-4h6l1 4-3 2z"/>
		<path id="Path 743" class="s25" d="m562 565l22-2h9l7 4-2 15-2 1h-7l-2 5h-3l-5-5-4 1-8 1-1-1v-11l-4-2z"/>
		<path id="Path 744" class="s90" d="m634 572l-7-2v-7h9v8z"/>
		<path id="Path 745" class="s91" d="m652 569v-6h28v4l-2 2h-7z"/>
		<path id="Path 747" class="s66" d="m830 572v-9h8l6 6 11-2 7 2v7l7 6v4 1l-12-5-11-6-7-4z"/>
		<path id="Path 748" class="s20" d="m880 585v-5l-4-3v-14h8l4 11v12z"/>
		<path id="Path 751" class="s5" d="m212 571v-6h5l1 6v2h-5z"/>
		<path id="Path 752" class="s17" d="m531 567l31-2v6l4 2v11l-1 1h-8l-5-1-16-1-1-2-1-7-6-1v-4z"/>
		<path id="Path 754" class="s26" d="m855 567v-2h7v4z"/>
		<path id="Path 756" class="s63" d="m184 569l10-2 1 4-8 6h-3v-4z"/>
		<path id="Path 757" class="s1" d="m518 571l1-4h5l4 2v4h-2-8z"/>
		<path id="Path 758" class="s32" d="m888 574l8-1 2-5 4-1 4 7 6 1 2 4v8l8 2-1 8-6 2h-15-5l-6-6-1-7z"/>
		<path id="Path 759" class="s16" d="m170 576v-7h8v4 4z"/>
		<path id="Path 760" class="s13" d="m178 573v-4h4 2v4z"/>
		<path id="Path 761" class="s32" d="m260 574v-5l25 7 3 12v9l6 4v6l-5 7h-4l-4-5-3-18-14-4v-9z"/>
		<path id="Path 765" class="s3" d="m187 577l8-6h10l1 6 7-4h5l2 8-2 4h-11l-7-4-12-1z"/>
		<path id="Path 766" class="s7" d="m213 573l-7 4-1-6h7z"/>
		<path id="Path 767" class="s25" d="m218 573v-2l6 1 5 7-3 2h-6z"/>
		<path id="Path 768" class="s3" d="m504 575l14-4v2 8h-14z"/>
		<path id="Path 769" class="s9" d="m634 572l2-1 14 1 1 2-1 7 4 3v5l-6 2-10-2v-11l-4-2z"/>
		<path id="Path 772" class="s2" d="m960 585l1-13 4 1 14 20 4 14h-5-6l-4-1-2-13-1-6z"/>
		<path id="Path 774" class="s30" d="m178 577v-4h6v4z"/>
		<path id="Path 775" class="s16" d="m285 576l1-3h14l4 4v6l8 10 16 2v7l6 5v8h-8l-6-9-10-1-15-16-7-1z"/>
		<path id="Path 776" class="s90" d="m518 581v-8h8v8z"/>
		<path id="Path 777" class="s7" d="m526 581v-8h2l6 1 1 7z"/>
		<path id="Path 778" class="s19" d="m249 576l11-2 4 4v9 2l-16-4z"/>
		<path id="Path 779" class="s16" d="m648 591l6-2v-5l-4-3 1-7 19 2 1 33-3 5 1 26-3 21h-8l-2-14-4-2 4-19 2-1-2-21-8-5z"/>
		<path id="Path 780" class="s17" d="m484 581v-6h20v6l-3 4h-5z"/>
		<path id="Path 784" class="s48" d="m328 595l-16-2-8-10v-6h18l6 7 2 2v9z"/>
		<path id="Path 785" class="s7" d="m352 583v-6l26 2v4l-12 2h-4z"/>
		<path id="Path 786" class="s17" d="m378 579l36-2 2 2v10h-3-4l-1-4-18-2h-10-2z"/>
		<path id="Path 787" class="s21" d="m914 579l10-1 1 5-3 6-8-2z"/>
		<path id="Path 788" class="s30" d="m226 581l3-2 7 4v3h-10z"/>
		<path id="Path 789" class="s7" d="m416 589v-10h16l1 4-1 8h-8z"/>
		<path id="Path 790" class="s91" d="m218 585l2-4h6v5l-4 1z"/>
		<path id="Path 791" class="s25" d="m438 583l46-2 12 4v16l-2 4h-5-7l-6-2v-4l-6-2-3-4h-10l-1 3h-8l-2-4-8-1z"/>
		<path id="Path 792" class="s1" d="m496 585h5l3-4h14 8 9l1 2v10h-4l-26 2-2 4-2 2h-6z"/>
		<path id="Path 793" class="s35" d="m596 583l2-1 6 1v7l-5 3h-3z"/>
		<path id="Path 795" class="s91" d="m346 587l6-4 10 2v4 6h-16z"/>
		<path id="Path 796" class="s48" d="m366 585l12-2h2v8l-14-2z"/>
		<path id="Path 797" class="s25" d="m380 591v-8h10v8z"/>
		<path id="Path 798" class="s48" d="m390 591v-8l18 2 1 4-1 7-4 1h-14z"/>
		<path id="Path 799" class="s6" d="m432 591l1-8h5v8z"/>
		<path id="Path 800" class="s25" d="m536 593v-10l16 1v4l-4 2 2 11-7-3-3-5z"/>
		<path id="Path 801" class="s8" d="m575 584l4-1 5 5v3h-6z"/>
		<path id="Path 802" class="s37" d="m587 588l2-5h7v10h-9v-2z"/>
		<path id="Path 803" class="s5" d="m599 593l5-3v-7l7 1 13 11v14l7 2v8h-9l-3-8-11-5-9-9z"/>
		<path id="Path 804" class="s5" d="m922 589l3-6h8l5 6h6l2-4h12v8h-5l-3 4h-11l-1 8-3 4 1 8v14h-3l-9-5-24-15v-2-10h15l5 2 1-4z"/>
		<path id="Path 805" class="s0" d="m330 586l-2-2 3 2z"/>
		<path id="Path 806" class="s6" d="m552 588v-4l5 1v3h-2z"/>
		<path id="Path 807" class="s14" d="m565 585l1-1 1 1v1h-2z"/>
		<path id="Path 808" class="s63" d="m567 585l8-1 3 7h6 3v2l-1 4-7 1-11-5-1-7z"/>
		<path id="Path 809" class="s8" d="m247 587l1-2 16 4 2 10z"/>
		<path id="Path 810" class="s25" d="m362 589v-4h4v4z"/>
		<path id="Path 811" class="s21" d="m557 588v-3h8v1l-1 3z"/>
		<path id="Path 812" class="s8" d="m869 586l11-1 8 1 1 7 6 6h5v10l-15-9-16-13z"/>
		<path id="Path 813" class="s37" d="m958 593v-8h2l5 2 1 6z"/>
		<path id="Path 815" class="s29" d="m330 595v-9h1l15 1v8l-1 4h-5l-3-4z"/>
		<path id="Path 816" class="s18" d="m564 589l1-3h2l1 7h-4z"/>
		<path id="Path 820" class="s15" d="m264 589v-2l14 4 3 18-15-10z"/>
		<path id="Path 821" class="s21" d="m294 607v-6l-6-4v-9l7 1 15 16v6h-8l-3-4z"/>
		<path id="Path 822" class="s18" d="m550 601l-2-11 4-2h3v8l7 1 5 7v11h-2z"/>
		<path id="Path 823" class="s19" d="m562 597l-7-1v-8h2l7 1v4z"/>
		<path id="Path 824" class="s9" d="m584 591v-3h3v3z"/>
		<path id="Path 825" class="s29" d="m362 595v-6h4l14 2h10v6h-26z"/>
		<path id="Path 826" class="s41" d="m408 596l1-7h4l-2 8z"/>
		<path id="Path 827" class="s8" d="m411 597l2-8h3l8 2-1 20-3-1z"/>
		<path id="Path 828" class="s14" d="m634 595v-4l4-2 10 2v8l-4 2h-10z"/>
		<path id="Path 830" class="s63" d="m423 611l1-20h8 6l8 1 2 4-2 11h-9l-3 11-3 1z"/>
		<path id="Path 831" class="s31" d="m456 596l1-3h10l3 4v6l-9 2z"/>
		<path id="Path 834" class="s32" d="m562 597l2-4h4l11 5 1 8 4 2-2 11-15-4v-11z"/>
		<path id="Path 835" class="s11" d="m579 598l7-1 1-4h9 3v4l9 9 11 5 3 8-4 1v15l-4 8-7 1-15-3v-7l-10-11v-4l2-11-4-2z"/>
		<path id="Path 836" class="s31" d="m938 605l1-8h11l3-4h5 8l2 13-22 1z"/>
		<path id="Path 837" class="s25" d="m334 607l-6-5v-7h2 7l3 4v8z"/>
		<path id="Path 839" class="s9" d="m631 611l-7-2v-14h10v6z"/>
		<path id="Path 841" class="s5" d="m446 607l2-11h8l5 9 9-2h6v6l-2 10h-8l-3-4h-9v-3z"/>
		<path id="Path 843" class="s35" d="m470 603v-6l6 2v4z"/>
		<path id="Path 844" class="s21" d="m915 599l6-2-1 4z"/>
		<path id="Path 846" class="s3" d="m340 607v-8h5l11 13-2 7h-4z"/>
		<path id="Path 847" class="s92" d="m502 601l2-2 9 7v3l-10-2z"/>
		<path id="Path 848" class="s9" d="m644 601l4-2 8 5 2 21-2 1-6-3 2-13-6-3z"/>
		<path id="Path 850" class="s0" d="m494 605l2-4h6l1 6-1 2z"/>
		<path id="Path 852" class="s35" d="m631 611l3-10h10l2 6 6 3-2 13 6 3-4 19-16-9v-10l-5-7z"/>
		<path id="Path 854" class="s9" d="m476 609v-6l6 2v4z"/>
		<path id="Path 855" class="s10" d="m310 611v-6l10 1 6 9v4h-8-6z"/>
		<path id="Path 856" class="s16" d="m482 609v-4h7l-2 5h-3z"/>
		<path id="Path 857" class="s35" d="m484 610h3l2-5h5l8 4v12 10h-10l-4 6h-6l-2-2v-14z"/>
		<path id="Path 858" class="s35" d="m936 617l-1-8 3-4 8 2v9l10 6v9h-6l-5-10-4-4z"/>
		<path id="Path 859" class="s4" d="m946 607l22-1 4 1v6 6h6l2 12-4 4h-8-4v-11l-8-2-10-6z"/>
		<path id="Path 860" class="s15" d="m289 614l5-7h5l3 4v11l-12-5z"/>
		<path id="Path 861" class="s48" d="m334 615v-8h6l10 12h4l-2 16-9 2h-1l-1-8-3-2v-8z"/>
		<path id="Path 862" class="s21" d="m434 618l3-11h9l8 5v3l2 14h-9z"/>
		<path id="Path 863" class="s17" d="m502 609l1-2 10 2 6 9 3 15v2h-6l-6-13-8-1z"/>
		<path id="Path 864" class="s0" d="m972 613v-6h6v6z"/>
		<path id="Path 865" class="s29" d="m978 613v-6h5l2 3 1 5v19l-4 5h-14v-4h8l4-4-2-12z"/>
		<path id="Path 868" class="s31" d="m474 619l2-10h6l2 1-4 11z"/>
		<path id="Path 869" class="s90" d="m669 640l-1-26 3-5h3l-2 31z"/>
		<path id="Path 871" class="s32" d="m302 622v-11h8l2 8-2 7z"/>
		<path id="Path 873" class="s48" d="m978 619h-6v-6h6z"/>
		<path id="Path 874" class="s11" d="m326 619v-4h8l4 4v8h-4-6z"/>
		<path id="Path 875" class="s11" d="m456 629l-2-14h9l3 4v9l9 7h5l2 2-3 21-13-6-5-6 1-5z"/>
		<path id="Path 876" class="s63" d="m589 643l-24-28h2l15 4v4l10 11v7z"/>
		<path id="Path 879" class="s31" d="m936 631v-14h5l4 4 5 10v6z"/>
		<path id="Path 880" class="s37" d="m431 619l3-1 13 11-1 3-8-4z"/>
		<path id="Path 881" class="s63" d="m310 626l2-7h6v8 3z"/>
		<path id="Path 882" class="s21" d="m318 627v-8h8l2 8h-6z"/>
		<path id="Path 884" class="s9" d="m480 635h-5l-9-7v-9h8l6 2z"/>
		<path id="Path 886" class="s9" d="m618 635v-15l4-1h9l5 7v10l16 9 4 2 2 14v10l-2 4-4 4h-5l-1-1v-19l-8-6-2-9-12-9z"/>
		<path id="Path 888" class="s16" d="m502 631v-10l8 1 6 13-2 5-7-9z"/>
		<path id="Path 889" class="s31" d="m956 631v-9l8 2v11h-8z"/>
		<path id="Path 891" class="s37" d="m318 630v-3h4v4z"/>
		<path id="Path 892" class="s4" d="m322 631v-4h6 6v9l-11-2z"/>
		<path id="Path 893" class="s0" d="m334 636v-9h4l3 2 1 8z"/>
		<path id="Path 894" class="s31" d="m446 632l1-3h9l6 12-1 5z"/>
		<path id="Path 895" class="s9" d="m482 637h6l4-6h10 5l7 9v3l-4 8-18 5-5 7-6-1-2-4z"/>
		<path id="Path 898" class="s38" d="m950 637v-6h6v4 4z"/>
		<path id="Path 902" class="s3" d="m514 640l2-5h6l-2 8h-6z"/>
		<path id="Path 903" class="s14" d="m607 644l7-1 4-8h6l12 9 2 9h-5l-3 6h-4l-3-6h-7l-6-2z"/>
		<path id="Path 904" class="s30" d="m956 639v-4h8 4v4 1h-11z"/>
		<path id="Path 909" class="s37" d="m589 643l3-2 15 3 3 7 6 2-2 11-10-5z"/>
		<path id="Path 910" class="s0" d="m510 651l4-8h6v8l-6 7z"/>
		<path id="Path 913" class="s16" d="m487 663l5-7 18-5 4 7-3 6-7 3-16-2z"/>
		<path id="Path 916" class="s11" d="m614 664l2-11h7l3 6v8l-2 4z"/>
		<path id="Path 917" class="s35" d="m630 659l3-6h5l8 6v19l-5 1-9-1-4-4 2-7z"/>
		<path id="Path 918" class="s9" d="m626 667v-8h4v8z"/>
		<path id="Path 919" class="s3" d="m658 671v-10h8v6l-6 5z"/>
		<path id="Path 923" class="s30" d="m624 671l2-4h4l-2 7z"/>
		<path id="Path 925" class="s91" d="m656 675l2-4 2 1z"/>
		<path id="Path 926" class="s12" d="m641 679l5-1 1 1-6 2z"/>
	</g>
</svg>