<svg version="1.2" xmlns="http://www.w3.org/2000/svg" viewBox="0 0 1000 1000" width="1000" height="1000">
	<title>Salmo_trutta</title>
	<style>
		.s0 { fill: #dbd4da } 
		.s1 { fill: #efd15d } 
		.s2 { fill: #d2cdd5 } 
		.s3 { fill: #7e744e } 
		.s4 { fill: #e8cd68 } 
		.s5 { fill: #debf6a } 
		.s6 { fill: #e6dee1 } 
		.s7 { fill: #b8a27e } 
		.s8 { fill: #ecd475 } 
		.s9 { fill: #e1c981 } 
		.s10 { fill: #c2c4d1 } 
		.s11 { fill: #f2c728 } 
		.s12 { fill: #cdb79c } 
		.s13 { fill: #6a6048 } 
		.s14 { fill: #f1af25 } 
		.s15 { fill: #696c4d } 
		.s16 { fill: #967644 } 
		.s17 { fill: #c7ac83 } 
		.s18 { fill: #ccab63 } 
		.s19 { fill: #cfc5c1 } 
		.s20 { fill: #e8c54f } 
		.s21 { fill: #cfbfb1 } 
		.s22 { fill: #8e7d54 } 
		.s23 { fill: #af9b6a } 
		.s24 { fill: #565b47 } 
		.s25 { fill: #e79c2b } 
		.s26 { fill: #96875c } 
		.s27 { fill: #dccdc6 } 
		.s28 { fill: #d2b57a } 
		.s29 { fill: #e7d198 } 
		.s30 { fill: #dac599 } 
		.s31 { fill: #e5d4bc } 
		.s32 { fill: #eaa930 } 
		.s33 { fill: #213136 } 
		.s34 { fill: #ddb751 } 
		.s35 { fill: #e9d6a8 } 
		.s36 { fill: #efd152 } 
		.s37 { fill: #2b4348 } 
		.s38 { fill: #beaa92 } 
		.s39 { fill: #737b60 } 
		.s40 { fill: #c79c4d } 
		.s41 { fill: #816a40 } 
		.s42 { fill: #af8040 } 
		.s43 { fill: #bc8741 } 
		.s44 { fill: #b19f90 } 
		.s45 { fill: #d39e3e } 
		.s46 { fill: #cc8f3d } 
		.s47 { fill: #374440 } 
		.s48 { fill: #554848 } 
		.s49 { fill: #d9a747 } 
		.s50 { fill: #a19171 } 
		.s51 { fill: #b79050 } 
		.s52 { fill: #c3a69e } 
		.s53 { fill: #a6a29d } 
		.s54 { fill: #ab9157 } 
		.s55 { fill: #a2aeb0 } 
		.s56 { fill: #a78355 } 
		.s57 { fill: #e2b441 } 
		.s58 { fill: #3c514c } 
		.s59 { fill: #8a9683 } 
		.s60 { fill: #928c75 } 
		.s61 { fill: #a17c39 } 
		.s62 { fill: #dc8d32 } 
		.s63 { fill: #a56c3b } 
		.s64 { fill: #597258 } 
		.s65 { fill: #bc783c } 
		.s66 { fill: #425c58 } 
		.s67 { fill: #596a67 } 
		.s68 { fill: #f0d543 } 
		.s69 { fill: #9f9988 } 
		.s70 { fill: #32382d } 
		.s71 { fill: #ac967c } 
		.s72 { fill: #bfb5bf } 
		.s73 { fill: #beb5a8 } 
		.s74 { fill: #ea7d2d } 
		.s75 { fill: #47614f } 
		.s76 { fill: #babebd } 
		.s77 { fill: #63868d } 
		.s78 { fill: #758577 } 
		.s79 { fill: #8e9899 } 
		.s80 { fill: #a18e8a } 
		.s81 { fill: #a8b0c4 } 
		.s82 { fill: #886142 } 
		.s83 { fill: #cd5e47 } 
		.s84 { fill: #58777a } 
		.s85 { fill: #b38277 } 
		.s86 { fill: #db283e } 
		.s87 { fill: #60908c } 
		.s88 { fill: #3d5b62 } 
		.s89 { fill: #96484f } 
		.s90 { fill: #6679aa } 
		.s91 { fill: #6d648f } 
		.s92 { fill: #9f7d93 } 
		.s93 { fill: #bd39b7 } 
	</style>
	<g id="Background">
		<path id="Path 0" class="s0" d="m225.9 493.8l4.8-4.8 10.5 0.8 6.5 4.8 0.8 0.9 2.5 3.2v1.6l1.6 5.7v4.8l3.2 1.6-0.8 6.5 3.2-0.8h7.3l0.8 7.3-1.6 3.2-2.4 3.3-11.3-10.5h-6.5l-9.7 8.9v4.8l-3.3 4.1h-12.1l-1.6-3.3 2.4-4h2.4l1.6-4.1 1.7-0.8-1.7-5.6 10.6-1.7 2.4-11.3 6.5-0.8v-5.7l-2.5-2.4-6.4 2.4-6.5-1.6-3.3-0.8zm436.6 1.6l-0.8-4.8 12.9 2.4-1.6 7.3 2.4 0.8-0.8 4 6.5 4.1-1.6 5.6-4.1 0.9-8.9-15.4 0.8-3.3zm-110.9 4.9l1.6-2.4 4 1.6-0.8 2.4h-4zm221.1-0.8l1.6-1.6 4.1 1.6 4.8 12.1-0.8 2.5-8.1-2.5-1.6-5.6zm-587.2 12.1l0.8-5.7h2.5l5.6 3.3 0.8 5.7-1.6 3.2h-0.8-6.5zm421.2 4.8h-2.5l1.7-4.8h1.6l3.2 5.7zm-506.2 4l2.5-8.1 6.4 0.8 0.9 2.4 12.9 0.9v8.9l-3.2-0.9-2.5-2.4-12.1-0.8zm527.2 0.8v-3.2l6.5-3.3 4.9 4.1-0.8 3.2h-3.3l-4 0.8zm-87.5-3.2l4.1-1.6 6.4 0.8v0.8l-1.6 7.3-8.1 0.8-1.6-1.6zm153.1 5.6l-1.7-5.6h5.7l2.4 9.7-1.6 1.6-4-1.6 1.6-2.4zm-192.8 0l4.1-4.1h8.9l2.4 6.5-0.8 4-3.2 1.6-1.6-2.4v-4.8h-4.1v6.4l-5.7-1.6zm-424.3 8.9l4-4.8h3.2l4.1 6.4zm-6.5-0.8l3.3-1.6 0.8 2.4zm255.9 9.8l4.9-0.9v4.9l-2.5 0.8-2.4-0.8zm108.5 47.7l6.5-4 9.7 2.4v5.7l-16.2 2.4zm22.7-0.8l7.3-0.8v4l-7.3 0.9zm-165.2 8l0.8-5.6h2.4l24.3 3.2 12.2-2.4 2.4 2.4-1.6 4.1z"/>
		<path id="Path 1" class="s1" d="m562 548.9l13.7-8.1 18.7 1.6 2.4-3.2h16.2l10.5 4v5.7l3.2 4 9 1.6 4-6.4 13 2.4 7.3-8.9h2.4l1.6 25.1 5.7 3.2 1.6 4.9-5.7 5.6h-4.8-2.5l-2.4-4 1.6-5.7h-4.8l-0.8 2.4-7.3 3.3-8.9 1.6h-12.2l-8.1-2.4-8.1-0.8h-4l-3.3-2.5-20.2 0.8-0.8-7.2-4.1-4.1h-8.1l-4.8-4.8zm-171.7 3.2l8.1 1.6 2.4-3.2 7.3-0.8 15.4 1.6 7.3 4h14.5l13.8-4 9.7 7.3h9.7l-2.4 6.4h-47l-8.1-3.2-19.4 0.8-14.6-0.8-8.1-3.2-11.3 0.8-2.4-2.5 1.6-3.2zm385.5 3.3l-2.4-5.7h6.4l0.8 5.7zm-268.8 4.8l1.6-6.5h22.7l1.6 3.3-4.9 4.8zm37.3 38.1l0.8-6.5 5.6 2.4v6.5h-0.8zm238.1 8.9l-1.6-0.8 1.6-7.3 2.5 2.4z"/>
		<path id="Path 2" class="s2" d="m511.7 505.2l1.7-15.4 3.2 2.4-0.8 4.9h4.9l4 8.1v2.4l-7.3-0.8zm77-13.8h10.5 3.2l3.3 4.1 1.6 16.2h-1.6l-8.1-4.1-3.3-5.7h-4l0.8-6.4zm220.3 4.8l1.6-0.8 4.9 2.4 2.4 2.5 3.2 8.9v4l-4 1.6-5.7-0.8v-3.2l-4-3.2 2.4-3.3zm-336.1 21.1l-4.1-5.7-0.8-14.6h2.4l5.7 6.5 3.3 10.5 10.5 5.7-0.8 6.5-5.7-1.7-0.8-3.2h-4.1zm-254.3-7.3l7.3 1.6 2.5-2.4v-8.9l6.4 1.6 2.5 6.5-2.5 11.3-10.5 1.7-6.5-1.7-1.6-8.9zm521.6-6.4l3.2-3.3 3.3 0.8v2.5zm-201.7 0.8l4-2.5h3.3l4 1.7 0.8 13.7-6.4-0.8v-2.4l-3.3-0.8-0.8 4.8-0.8 6.5-5.7-1.6 0.8-16.2zm106.1 0.8v-3.2h4.1l-2.4 3.2zm-587.2 15.4v-3.3h1.6 7.3v2.5zm215.4 11.3l1.7-6.5h0.8l4 0.8h3.3l-0.9 4.9-3.2 0.8zm53.5-4h3.2l0.8-2.5 7.3 0.8v4.9l-1.6 1.6-3.3 6.5-2.4 1.6-4.9 0.8-4-7.3zm-88.3 63.2l1.6-14.6h13l1.6 6.5 12.2 1.6 0.8-2.4h2.4l5.7 5.6 9.7 1.6 7.3 1.7-0.8 5.6-23.5-0.8zm279.4-8.9l7.3-4 12.9-0.9v5.7l-9.7 2.4-9.7-0.8zm-53.4 5.7l14.5-1.6 4.9 1.6-0.8 2.4-18.6 1.6zm-13.8 5.7v-5.7h4.8l1.7 0.9v4z"/>
		<path id="Path 3" class="s3" d="m489.1 330.4l6.4-1.7 2.5 0.9v6.4l-4.1 0.8-3.2 4.9-4.9-0.8v-5.7l1.6-3.2zm-27.5 24.3l5.7-7.3 0.8 0.8v4l-2.4 2.5zm37.2 14.5l4.1-4.8 1.6 4-0.8 1.6zm26.7 11.4l8.1-8.9 1.6 3.2-0.8 1.6-7.3 7.3-3.2 0.8zm-200.1 53.4v-4.8h1.7l4 6.4h-4.9zm84.3 3.3l-0.8-4.9 2.4-1.6 5.7 4.1 10.5 0.8 12.1 13.7-3.2 8.9-4-1.6v-5.7l-2.5-2.4-8.9 1.6-7.3-4 4.1-1.6-0.8-6.5zm-167.7 1.6l5.7-0.8v2.4h-3.3zm341 0l4.1-0.8 3.2 7.3 8.9 1.6v6.5l-4 1.6v2.4l-6.5 1.7-4.1-3.3-7.3-3.2-0.8-4.1v-8.1zm-246.2 9.8v-9.8l16.2 2.5v3.2h-2.4l-1.6 4.9-5.7 4-3.2-4.8zm65.6-8.9l4.8 0.8-4.8 1.6zm204.1 1.6l4.8-0.8 11.4 4 1.6 2.5v5.6l-5.7 0.8-3.2 4.1-3.3-0.8v-1.6l2.5-3.3h-4.1v-6.5l-4-1.6zm-44.6 4.1l1.6-2.5h4.9l3.2 5.7v4.1h-5.6l-4.1-3.3zm-359.6 5.7l0.8-3.3 3.3 0.9v-2.5l3.2 0.8 0.8-2.4 1.6 0.8-0.8 9.7-8.9-1.6zm623.6-2.4l16.2 1.6 10.6-4.9h5.6 8.9l9 4.9v5.7l-4.9 1.6v10.5h-11.3l-5.7-6.5h-5.7l-8.1-1.6-3.2-5.7h-4.9l-1.6 4.1h-4.9l-4-3.2 0.8-6.5zm-643.9 2.4l15.4-0.8v3.2l-4.8 6.5h-5.7l-2.4 3.3-2.5 14.5h-6.4l-2.5-2.4v-7.3l1.6-9.7v-4.9zm552.4 3.3l2.4-2.5 6.5 1.7-0.8 2.4zm-164.4 10.5l-0.8-6.5 4-3.2h0.8l1.7 7.3zm191.1-4.9v-4.8h3.2l1.6 2.4 4.9-1.6 0.8 2.4-1.6 1.6zm-622 28.4v-10.6h4.9l1.6 4.9-4.9 5.7zm47-4.1l3.2-1.6 4.9 4.8v3.3l-5.7 0.8-1.6-3.2zm-127.1 33.1l2.4-2.4v-6.5l4.8-1.6 11.4 0.8 5.6 4.1-1.6 3.2 6.5 0.8 5.7 2.4 0.8 3.3h-4.1l-4 4.8h-1.6l-10.6-5.6-1.6-2.5-6.5-0.8zm801 25.1v-6.5h6.5l1.6 6.5zm-18.6-0.8l8.9-0.8 3.2 3.2-0.8 3.3-12.1 4.8v-6.4zm-523.2 28.3v-5.7l5.7 0.8v4.9zm-127.2 0v-0.8h3.3l3.2 0.8 0.8 5.6-2.4 4.1-4.9-0.8z"/>
		<path id="Path 4" fill-rule="evenodd" class="s4" d="m535.2 374.9l3.3-1.6 2.4-6.5h3.2l2.5 9.7-5.7 1.6-0.8 2.4h-4.1l-1.6-4zm26.7 9.7v-4.9l5.7 0.9-0.8 3.2 4.9 0.8-3.3 7.3h-4l-1.6-1.6 1.6-5.7zm3.2 11.3l2.4-0.8v3.3h-2.4zm-404.9 137.5v-6.4l4.8-4.1h13l0.8 9.7 5.7 4.9h4.8v4.8l-4.8 3.3v6.4l-6.5-2.4-1.6-7.3zm549.9-7.2l8.9-1.7 13 4.9v14.6l-2.5 3.2-5.6-0.8v-3.3l-3.3-0.8 1.6 4.9v8.1l-5.6 0.8-3.3-4 0.8-6.5-3.2-0.8v-4.9l-8.1-7.3v-4.8l1.6-2.5zm30 1.7h12.1l2.5-2.5 14.5 0.8 17.9 0.9h3.2v10.5l-46.2 4v-3.2l-7.3-8.9zm-315.8 16.2l4 3.2h5.7l5.7-0.8 3.2-4.1 15.4-3.2 11.3 11.3h7.3l3.3 4.9-1.7 3.2h-9.7l-9.7-7.2-13.8 4h-14.5l-7.3-4-15.4-1.7v-4l3.2-1.6zm84.3 9.7l0.8-9.7 8.9-4.9h25.9l2.4 4.9 15.4 4.8v8.1l-8.1 1.6-21-1.6-1.7-3.2zm-170.9-12.2l2.5-0.8h8.9l3.2 4.1 10.6 0.8 12.9-1.6 5.7-3.3h10.5v0.8l-1.6 10.6-23.5 1.6-1.6 3.2-10.5-0.8-2.5-2.4h-5.6l-9.8-2.4zm-47.7 12.9v-8.9l17.8 1.6 1.6 4.9-13 2.4zm8.1 3.2l-11.3 1.7 10.5-4.1z"/>
		<path id="Path 5" class="s5" d="m518.2 357.9l-3.2-10.5 3.2-8.1h2.5l12.9 11.3v2.4h2.4v3.3l-2.4 2.4-2.4 4h3.2l0.8 1.7-4.8 3.2-5.7-5.7-0.8-6.4zm-45.4-1.7l4.1-4.8 2.4 4.8-2.4 3.3-1.6 0.8zm70.4 0l3.3 0.8-0.8 4-2.5-0.8zm-87.4 15.4l1.6-0.8 2.4 4 5.7 2.5-2.5 6.4 3.3 0.9v3.2l-2.4 1.6-5.7-3.2v-3.3l-2.4-0.8h-4.1v-3.2zm116.6 35.6l7.3-2.4 4.9 2.4-0.8 3.2 2.4 0.8-1.6 6.5-5.7 0.8v-0.8-2.4h-4.8l-1.7-4.9zm379.1 54.3l-0.8-10.6 4.8-4 1.6 14.6zm-729.7 22.6l1.6-7.3 3.3 1.6v5.7zm289.9 47.8l3.3-1.7 0.8-4 5.6 0.8 4.1 6.5-0.8 5.6h-6.5l-8.9 4.9-0.8 9.7-1.6 6.5h-8.9l-4.1-4.9h-13.8l-3.2-4.8h-7.3l-11.3-11.4-15.4 3.3-3.3 4-5.6 0.8h-5.7l-4-3.2v-6.5l12.1 1.6 4.1-4.8 2.4-0.8 8.9 0.8 3.2-4.1 10.6-1.6 2.4 8.9h11.3l2.5-3.2 7.2-2.4 10.6 6.4 7.3-2.4zm278.6 5.7v-9.7l11.3 1.6-0.8 8.9zm-649.5-1.6v-3.3h5.6l-0.8 7.3zm129.6 14.6l4.1-0.8 4-12.2h4.9l2.4 6.5 4 1.6v8.9l-17 4.1-2.4-1.7zm131.2-11.3l4.9-1.6 4.8 2.4v4.1l-3.2 1.6-6.5-3.2zm-152.3 5.6l10.6-5.6 5.6 4.8-3.2 4.1-4-0.9-2.5 2.5-6.5-1.6zm694.9-4.1l8.1-1.6 1.6 27.5h-1.6-4zm-880.4 7.3v-4.1h4.1l1.6-3.2 8.1 0.8 2.4 8.1-0.8 4.1-7.3-0.9-4.8-4.8zm120.6 4v-6.4l4.9-3.3h4.9l0.8 4.1-0.8 10.5h-3.3-4.8zm-82.6 0l4.8-0.8v8.1l-8.9-1.6-0.8-5.7zm842.3 38.8l3.2-2.4v-4h4.9l4 2.4-4 12.1h-8.1z"/>
		<path id="Path 6" class="s6" d="m502.8 323.9l2.5-1.6h6.4l2.5 3.2-4.1 3.2-7.3-2.4zm-17.8 5.7l4.1-1.6v2.4l-1.7 1.6h-3.2zm-253.5 209.6l3.3-4v-4.9l9.7-8.9h6.4l11.4 10.5-2.4 7.3-10.6 5.7h-4.8l-4.1 3.2-7.3-2.4zm404.2 38.8l8.9-1.6-4.1 3.2h-4.8zm-273.8 5.7l13.8-0.8 5.7 1.6 12.1 1.6 0.8-1.6 20.3-1.6 12.9 1.6 6.5 4.9v6.4l-56.7 3.3-45.3-0.8 1.6-4.1 4.8-0.8zm200.9 34.8l1.6-1.6-1.6-4.9 2.4-2.4 0.8 5.7 4.9 2.4-1.6 4.1 2.4 4-5.7 3.2v3.3l4.9 1.6-4.9 11.3-4-0.8-3.3-4 0.8-6.5h4.1l-2.4-7.3 4-4.8zm137.7 7.2l2.4-0.8 20.3 17 7.3 2.5 10.5 4 5.7 0.8v0.8l-5.7 1.6-17.8-7.2-17.8-12.2z"/>
		<path id="Path 7" class="s7" d="m520.7 339.3l3.2-2.5 5.7 2.5v4.8l4.8 2.5-0.8 4zm-207.3 83.3l12.1-1.6v2.5l-4.8 0.8h-7.3zm-25.1 2.4l9.7-0.8 0.8 2.4-8.1 2.4-2.4-1.6zm-71.3 14.6l10.5-2.4v1.6l-3.2 2.4-3.2 2.4h-4.1zm341.8 19.5l5.6-0.9 1.7-5.6h5.6l1.7 2.4-4.1 3.2 0.8 6.5-1.6 6.5-13-3.2-1.6-7.3zm56.7-1.6l3.2-4.1 5.7-0.8 3.3 1.6 4.8-0.8 4.1 6.5 4.8 0.8 9.7 4.9-3.2 19.4h-3.2v-11.4l-3.3-0.8-3.2-6.4-6.5 0.8h-2.4v-2.5h-8.9l-4.9-4zm-228.4-4.1v2.5h-2.4v-2.5zm95.6 3.3l2.4-0.8 2.4 0.8 3.3 9.7-0.9 2.4-5.6-0.8-1.6-6.5zm238.1 9.8l-7.3-2.5-0.8-5.6h1.6 4l4.1 3.2v3.2zm-579.9-3.2l5.7-0.8 4 0.8v8.1 1.6h-4.8l-1.7-4-4.8-1.7zm358 2.5l3.2-2.5 2.4 3.3-6.5 1.6zm-373.3 1.6l8.1-3.2v4l-4.1 4.1h-2.4l-1.6-2.5zm651.9 12.2v-10.5l7.3-2.5h3.3l3.2 3.3 4.9-1.6 7.3 2.4 2.4 5.6 7.3 3.3 1.6 8.1-4 8.1-1.7 0.8-3.2-4.1-10.5-2.4-3.3-2.4-4.8-4.1-8.1-0.8zm51-6.5l0.8-1.6h7.3l4 9.7-0.8 8.1h-1.6l-3.2-6.4h-4.1l0.8-7.3zm-71.2 1.6l2.4-1.6 3.2 4-3.2 0.8zm-272.9 0l4-0.8v4.1l-2.4 0.8zm-405.8 9.7l20.3-8.1v4.9l-4.9-0.9-4.9 0.9-2.4 4-4 0.8h-4.1zm754 34.8l1.6-0.8 9.8 2.4v7.3l-3.3 1.6-8.1-4zm-480.2 4.8l0.8-2.4h6.5l1.6 5.7-1.6 2.4h-5.7z"/>
		<path id="Path 8" class="s8" d="m189.4 537.5h-4.9l-5.6-4.8-0.8-9.7h3.2l4.1 1.6 3.2 5.7 1.6 7.2zm497.3-8.9l4.8-0.8h2.5l4 1.6 1.6-1.6h3.3v4.9l8.1 7.3v4.8l-8.9 1.6-1.6 8.1-6.5 9.7-8.9 3.3v5.6l-3.3 2.5-10.5-0.8-1.6-4.9-5.7-3.2-1.6-25.1 9.7-3.3 8.9-6.4zm-133.6 2.4l12.1-2.4 6.5 0.8 15.4 8.1h4.9l4.8-4.9 17 1.6-0.8 4.9h-16.2l-2.4 3.2-18.6-1.6-13.8 8.1-15.4-4.9-2.4-4.8v-4.1zm70.4 12.2l4.9-0.8 6.5-9.7 21 0.8 4.1 8.1-7.3 8.9-13-2.5-4 6.5-8.9-1.6-3.3-4.1zm-231.6-1.6l4.9-0.8 4.8 1.6 6.5 3.3v4l-7.3 0.8-2.4 3.3-8.1-1.7zm387.9 19.5l-4-5.7h4.8zm-414.6 19.4l7.3-4 3.2 2.4v4.1l-13.8 0.8zm197.6 38l-4.8-4v-5.7l2.4-1.6h3.3l1.6 2.4-2.5 2.4 1.7 4.9zm190.3 30.7l-1.6-2.4 1.6-0.8 4.9 0.8zm-207.4 2.4l4.9-0.8h1.6v8.9l-5.7 2.5-0.8-3.3-0.8-5.6z"/>
		<path id="Path 9" class="s9" d="m536 353l2.5-0.8 4.8 4.1v4l-8.1 4.1-0.8-1.7 0.8-1.6 4.1-3.2-3.3-1.6zm-53.4 4l4-2.4 1.7 0.8-1.7 4.8-3.2 7.3h-2.4l-2.5-2.4 2.5-4zm64.8 21l15.3-2.4-0.8 4v4.9l-4.8 1.6-0.8 3.2-5.7-0.8v-3.2l-3.2-1.6zm-49.4 8.1l4.8-7.3 3.3 2.4-0.9 7.3-0.8 4.8h-4l-2.4-1.6zm8.9 8.1l6.4-4 1.7 1.6-4.9 4.8zm14.6 6.5l0.8-3.2 1.6 1.6-1.6 1.6zm39.7 13l11.3-3.3 1.6 4.9-2.4 3.2 7.3-0.8v0.8l-10.5 2.4-2.5-5.6h-4.8zm-443 95.5h6.4l3.3-4.1 2.4 1.6-0.8 3.3-2.4 4h-8.9zm46.9 13.8l2.5-10.5 7.3 2.4v8.1zm426.8-1.6l8.9-0.8 5.6-4.1 4.1 0.8 11.3 2.4 0.8 1.7 0.9 6.4-7.3 1.7-2.5 4.8-17-1.6-4.8 4.8h-4.9l-15.4-8 3.3-7.3 4.8 1.6 6.5-2.4zm117.4-3.3l2.5-1.6 7.3 8.1-9 1.6-2.4-3.2zm-187.9 8.9l4.9-4.1h7.3l5.6 1.7 1.7 1.6 3.2 8.9v4h-19.4l0.8-5.6zm265.6 0v-4.1h1.6l1.7 4.1zm-449.5 4l8.1 2.4 8.1-4h5.6l9.8 6.5h10.5l5.6-4.1 2.5 0.8 4 1.6v6.5h-10.5l-5.7 3.3-12.9 1.6-10.6-0.8-3.2-4.1h-8.9l-4.1-8.1zm394.5 13v-14.6h4.8l7.3 8.9v3.2zm-315.8-8l4.8-3.3h3.3v4.9 6.4h-13v-4l1.6-1.6 2.4 0.8zm-132.8 1.6l0.8-3.2 5.7 0.8 4.9 2.4 1.6-2.4 3.2-0.8h18.6 3.3l4 7.3v4l2.5 0.8 0.8 2.4v2.5h-8.1l-7.3 0.8h-4.1l-1.6-4.9-17.8-1.6-4-1.6zm113.3 3.2l0.8-1.6h4.1v3.2zm325.6 6.5l1.6-0.8 5.7 0.8 2.4 1.6-6.5 6.5h-3.2zm-643.1 6.5l0.8-4.1 5.7 0.8v4.9zm873.1 30.7v-17.8h1.6l3.2 1.7-0.8 18.6zm-401.7 16.2v-6.5l8.9 4.8 4.1 8.1h-3.3l-4.8-5.6z"/>
		<path id="Path 10" class="s10" d="m216.9 500.3l8.1-0.8 3.3 0.8v8.9l-2.4 2.4-7.3-1.6-1.7-3.2zm-28.3 5.6v-4l5.7-0.8 10.5 0.8 4 8.1 1.7 5.7 3.2 7.2v4.9 4h-2.4v4.9h-1.6l-0.9-0.8-1.6-4.9h-4-4.1v-4l0.8-1.6 2.5-4.9-1.7-5.7h-5.6l-0.8-5.6zm63.9 0l2.5-1.6 4.8 1.6 4.9 5.7 0.8 6.4h-7.3l3.3-7.3-5.7 1.7-3.3-1.7zm68.9 4.9l2.4-2.4 4.1 1.6 4.8 8.9 8.1-7.3 10.6 1.6v4.9h-4.9l-0.8-1.6-3.3 1.6-0.8 4.8-4 3.3-7.3-0.8-3.2-2.5-0.9 4.9-4.8 6.5h-3.3l0.9-4.9-6.5-3.2h-7.3l-5.7 4.8h-2.4l0.8-5.6-3.2-2.5-3.3 1.7-8.9 1.6h-3.2l-1.6-0.8 1.6-4.1 0.8-2.4h4.8l0.9-3.2 7.2-0.9 4.1 3.3h4.9l0.8 3.2h2.4l0.8-4.8 11.3-5.7 2.5 3.2zm-273.8 7.3l1.6-0.8h4.1 4v3.2zm18.7 1.7v-2.5l6.5 0.8 1.6 2.5v2.4zm-18.7 7.3h6.5l11.4 5.6v1.7h-1.7l-11.3-2.5zm35.6 0.8l1.7-1.6h1.6l12.1 4.1 1.6 2.4-0.8 8.1h-6.4l-5.7-3.2v-3.3zm25.1 23.5l-1.6-10.5 2.4-1.6 8.1 6.4-1.6 7.3zm-4.1 18.6l1.7-3.2h7.2l5.7 1.6 0.8-1.6 8.1 3.2v0.8l-0.8 4.9zm148.2 6.5l0.8-1.7h3.3l10.5 7.3-0.8 2.5-12.2-1.7zm-29.9 2.5l12.1-2.5h4.9l-1.6 14.6-25.1-2.4v-4.1-2.4l4-1.6zm456.8 25.9l1.6-1.6 8.1 6.4 13.8 15.4-2.5 0.8z"/>
		<path id="Path 11" class="s11" d="m772.5 622.5l-0.8-5.7-4-2.4-1.7-4.8-8.1-4.9-1.6-10.5 1.6-45.3 15.4 0.8 2.5 5.6 4 5.7v4.9l2.4 1.6-1.6 12.9 1.6 1.6-4 13 4 4-1.6 7.3 1.6 0.8-1.6 4.1-1.6 8.9-1.6 3.2zm-234.1-21.8l5.7-2.5 5.7 2.5v8.1l2.4 1.6-1.6 12.1 3.2 3.3-3.2 25-4.9 0.8-3.2-2.4-4.9-3.2 1.6-17-4.8-4.1z"/>
		<path id="Path 12" class="s12" d="m515.8 332l2.4-1.6 3.3 0.8 3.2 1.6-0.8 4-3.2 2.5h-2.5zm433.3 67.9l4.9-1.6 2.4 6.5-1.6 6.5 4 4.8v27.5h-3.2l-1.6-26.7-4.1-6.4zm-434.1 6.4l3.3-4v3.2h2.4l1.6 3.3-0.8 6.4-1.6 0.8-4.9-1.6zm-332.8 42.1l28.3-7.3v3.3l-0.8 2.4-3.2-0.8v2.4l-3.3-0.8-0.8 3.2-0.8-3.2-4.1 2.4-15.3 0.8zm406.5 10.6l6.5-1.7 3.2 2.5 3.3-1.6 2.4 0.8 4.1 6.4 3.2 0.8v1.7l-2.4 5.6 3.2 2.5 1.6 4.8h6.5v7.3l4.1 0.8 2.4 12.1 4.8 2.5 2.5 1.6 0.8 6.5-0.8 3.2-6.5 3.2v3.3h-4.9l-0.8-1.6-0.8-7.3-4.8-4.9-4.1-12.9-3.2-1.7v-6.4l-2.5-3.3-5.6-0.8v-3.2l1.6-4.9-1.6-1.6-4.1 1.6-7.3-3.2-1.6-8.1zm67.2 25.9l4.9-9.7-3.2-15.4h0.8l4 0.8 13.8 6.5-2.4 3.2v8.9l6.4 5.7 2.5 7.3-8.1 0.8-13-2.4v-2.5zm64.8-18.6l1.6-1.6 4.1 6.5h-6.5zm-222.7 1.6l6.4-1.6 0.9 4h7.2l2.5 2.5 0.8 2.4 3.2-0.8 0.8 1.6-1.6 7.3 1.6 5.6-0.8 3.3h-2.4l-3.2-2.4v-3.3l-4.9-2.4 1.6-4.9h-8.1l-5.7-5.6-0.8-5.7zm64.8 12.1l-5.6-5.6-1.7-6.5 13 3.2 1.6 8.1-6.5 0.8zm-40.5-5.6v-3.3l3.3-0.8 3.2 2.5v2.4l-1.6 2.4zm208.1-0.8l6.5-2.4 2.5 4 4 0.8 5.7-4 8.1 2.4 2.4 3.2v3.3h-2.4-4.9l0.8 2.4 2.4 2.4 0.9 9.8-12.2-1.7-0.8 6.5-3.2 3.2-4.9 5.7v8.9l4.9 4.1v5.6l-3.3 1.6h-4.8l-13-4.8-7.3-8.1-5.7-8.1v-12.1l-4-5.7-8.1-3.2 2.4-11.4 6.5-3.2 3.2 2.4 13.8-1.6 4.9 8.1h4.8zm-93.9 11.3v-9.7l4.8-2.4 3.3 0.8v11.3l-6.5 0.8zm-455.2 4.9l5.7-1.6 1.6 3.2-1.6 4.9-4 0.8-1.7-0.8zm-21 16.1l-3.2-0.8 1.6-8.1h4.8l1.6 3.3-3.2 0.8v3.2l2.4 0.8zm364.5 1.7v-2.5l9.7 1.6-0.8 16.2h-7.3zm118.3 4.1l3.2-3.3 12.1 1.7 6.5 9.7-0.8 3.2h-5.7l-12.9-6.5zm139.3 2.5l0.8-2.5h5.7l1.6 2.5-1.6 4.8h-3.3zm-422.7 7.3v-6.5h12.1l2.4 8.1 11.4 8.9-5.7 4.1h-10.5l-9.7-6.5 1.6-2.4zm-165.2 35.6l0.8-10.5h4.8l7.3 6.4v4.1h-3.2l-3.3 5.6-4.8-0.8zm579.9 75.3v-4.9h0.8z"/>
		<path id="Path 13" class="s13" d="m872.1 416.1l9-6.4-0.9 5.6zm-466.5 0l4.1-1.6h8.1l3.2 8.1-0.8 9.7 6.5-2.4-0.8-4.9 6.5-2.4 4 1.6 2.5-1.6 3.2 3.2 0.8 4.9-4 5.7 1.6 2.4v7.3l4 2.4-4.8 0.8-12.2-13.7-10.5-0.9-5.7-4v-5.7-3.2l-4.8-2.4zm-25.1 2.4l6.4-0.8h8.1v6.5h-4l-0.8 4 4.8 4.9v0.8 1.6l-8.1 0.8-12.9-2.4-4.9-1.6-0.8 6.4-0.8 1.7h-4.9l-2.4 3.2-0.8-2.4h-6.5l-16.2-2.5-5.7-3.2-4-6.5v-4.8l10.5-2.5 10.6-0.8 6.4-1.6h1.7l0.8 4.1h3.2l0.8-3.3 16.2-1.6-1.6 5.7 4.9 1.6zm445.4 25.1l35.6-19.5 1.6 10.6-4.8 4v6.5h-5.7l-10.5 4.8-16.2-1.6zm-84.2-12.9l3.2-1.6 1.6 4-3.2 0.8zm-225.2 8.9l0.8-3.2 8.1 0.8 4.9 4.8-0.8 9.8-6.5 1.6-1.6-13zm217.9 0.8l8.9-3.2 4 3.2-0.8 11.4-3.2 1.6-6.5-1.6v-3.3l-4.9-1.6v-4zm26.7 0.8l3.3-1.6 8.1 4.8-0.8 8.1v0.8l-7.3 1.6h-3.3zm-549.1 4.1h4.1l2.4 6.5 8.1 8 1.6 11.4-1.6 2.4-5.6-0.8-4.1-4.1v-10.5l-5.7-3.2zm600.2 4.8l8.9-4 1.6 2.4-0.8 6.5-2.5 0.8-4.8-0.8-2.4-1.6zm-307.8-2.4v2.4h-4.9v-2.4zm90.8 9.7v-2.5l4-1.6 2.4 0.8v4.1l-3.2 1.6zm63.2-0.8l2.4-1.6h1.6v5.6l-4-0.8zm-78.6 4.9l1.6-4.9 3.3-0.8 4 3.2-0.8 4.1zm-397.7 16.2l2.5-14.6 2.4-3.2h5.7l3.2 8.1 7.3 0.8-2.4 14.5-2.5 4.1h-4l-4.9-4.9-3.2 1.7zm332.9-4.9l4.8-2.4-0.8 4-3.2 0.8zm325.5 79.3l12.2-4.8 0.8-3.3h4.9v4.1l8.9 15.4-0.8 12.9-29.2-21zm38.1 34l0.8-1.7h4.8l10.6 9.8 4.8-1.7 4.1 1.7v2.4l-2.5 5.6z"/>
		<path id="Path 14" class="s14" d="m715.8 586.1l1.7-8.9 12.1-8.9h4.1l14.5-12.2 1.7-7.2h8l-1.6 45.3 1.6 10.5 8.1 4.9 1.7 4.8 4 2.4 0.8 5.7v4.1l-22.6-1.7-14.6-4.8-13.8-17v-7.3zm-187.9 68l-1.6-11.4-6.5-8-3.2-11.4v-15.3l9.7-10.6h9.7l2.4 3.3-4 24.2 4.8 4.1-1.6 17 4.9 3.2 2.4 4.1 0.8 5.6h-8.1l-1.6-4.8z"/>
		<path id="Path 15" class="s15" d="m481 336l4.8-0.8v5.7l-3.2 3.2h-0.8l-1.6-0.8v-5.7zm-182.3 90.7l7.3-0.8 1.6 7.3 5.7 2.4 7.3 2.4 5.7 3.3v-5.7h4.8l5.7 3.2v9.7h-4.9l-3.2-3.2-5.7 0.8-3.2 7.3-2.4 1.6-8.9 1.6h-4.1v-5.6l-2.4-2.5h-17.8l-0.9 3.3-4-0.8-0.8 2.4-4.9 1.6-0.8-5.7-7.3-0.8-5.6-2.4-0.9-5.7-4-0.8-1.6 4.9 1.6 2.4-8.9 9.7-13.8-11.3-0.8-5.7 0.8-0.8h8.1l-0.8 8.1 4.9-1.6v-4.9h3.2l4.1-0.8 0.8-3.2 0.8-0.8 9.7-3.3 8.9 0.9 4.1-4.1h5.6l1.6 1.6 1.7 4.9h3.2l1.6-4.9 0.8-1.6zm309.4 4.1v-2.5l5.7 0.8 3.2 4.9h3.3l2.4 6.5v4l-11.3-4 1.6-6.5zm-39.7 6.5v-2.5l6.5-4 1.6 0.8v8.9 8.1h-4.9l-3.2-5.7zm77.7-4.8l6.5-1.6h2.4l7.3 6.4 8.1-2.4h2.5l0.8 0.8 1.6 4.9 4.9-0.8 0.8 0.8-0.8 8.1-2.5 0.8v4l-4.8 2.4-3.3-5.6h-5.6l-3.3 0.8-4.8-1.6-1.7 3.2h-4l-5.7-7.3h-3.2l1.6-7.3-4.1-3.2v-2.4zm100.5 19.4l0.8-11.3h9.7l4.1 0.8v13.7 4.9l-2.5 4.9-1.6 1.6-4.9-3.3v-5.6l-3.2 0.8zm-59.1-8.1l8.1-1.6 5.6 0.8 6.5 4.8v4.9l-1.6 4.8-0.8 3.3h-2.4l-3.3-1.6v-4.1l-7.3 1.6-2.4-2.4-3.2-5.7zm-471.4 1.7l0.8-1.7h4.1l2.4 4.1h4.9l3.2 8.9-0.8 3.2h-4.1l-8.1-8.1zm-98 29.2h3.3v-3.3l4-1.6 1.7 2.4 2.4 1.7 2.4 3.2 7.3 0.8v10.5l-6.5 2.4-17-0.8-2.4 4.1h-3.3l-1.6-8.9 2.5-4.1h3.2zm-35.6 11.4l4-0.8 2.4 3.2-0.8 2.4-3.2 0.8-2.4-0.8zm7.3 14.6l5.6-1.6h1.6v6.4l-8.1-0.8zm223.6 74.5l4.8-4.9h5.7l1.6 8.9-1.6 8.1h-13v-5.6z"/>
		<path id="Path 16" class="s16" d="m925.6 383.8l7.3-2.5 3.2 8.1-4 3.3h-4.1l-3.2-4.9zm-13.8 5.7l5.7-2.4 3.2 1.6 0.8 6.5-3.2 1.6zm-3.2 30.7l9.7-4v6.4l-10.6 6.5h-4zm-165.2 13.8l3.2-0.8 2.5 2.4h7.2l0.8 4.9h-9.7l-4-3.3zm132.8 16.2l13-2.4 2.4-5.7 4-2.4 9.8 0.8 1.6 15.4 6.5 4v3.3 4.8l3.2 0.8v12.2l-6.5 5.6v7.3l3.3 5.7-2.5 12.9-2.4 0.8h-11.3l-2.5-0.8-0.8-10.5v-4.9l1.6-18.6-2.4-4.8-5.7-2.5v-8l-6.4-6.5-4.9-0.8zm-790.4 61.5v-5.7l3.2-1.6 8.1 0.8 1.6 7.3-1.6 0.8-7.3-0.8-2.4-0.8zm764.5 22.6l6.5-0.8 3.2 2.4v6.5l-1.6 1.6h-4.9l-3.2-3.2zm-25.1 14.6l5.7-3.3h9.7v6.5l-3.3 3.2zm49.5 6.5l-3.3-1.6v-8.1h6.5v8.1zm-556.4 0l2.4-0.8 14.6 2.4v4.9l-3.2 4.8 1.6 13-1.6 5.6-8.1 1.7 1.6-8.1-1.6-8.9v-4.9l-5.7-0.8h-0.8v-5.7zm434.9 90.7v-8.9l9.7 2.4 1.6 4.9-6.4 2.4zm-237.3 22.6l1.6-3.2h4l4.1 5.7 2.4-0.8v4l-8.1-1.6z"/>
		<path id="Path 17" class="s17" d="m499.6 329.6l3.2-3.3 7.3 2.4-1.6 2.5h-0.8l-1.6-2.5-4.1 0.9zm-19.4 3.2l4.8-3.2-0.8 2.4h3.3l-1.6 3.2-4.9 0.8zm248.6 97.9l10.6-2.4 0.8 2.4-10.6 3.3zm-501.3 6.5l4.9-0.8v2.4l-0.8 0.8-4.1-0.8zm-17 4l6.5-1.6v4.1l-0.8 1.6h-4.1l-1.6-0.8zm-38.9 10.5l10.6-3.3v2.5l-7.3 2.4zm469.7 8.9l3.3-6.5 4.8-0.8 1.6 6.5h6.5l3.3 15.4-4.9 9.7-5.7 2.4-2.4-2.4 3.2-19.4zm-482.7-5.7l4.1-0.8-4.1 4zm447.1 2.5l6.5-0.9 3.2 0.9v3.2l-4 5.7-3.3-0.8-4-6.5zm-59.1 6.5l5.6-4.1 1.6 0.8 1.7 7.3 1.6 6.5 5.7 5.6-3.3 5.7-4.8 0.8-4.1-2.4-3.2-8.1-3.3-0.8-2.4-2.4zm29.2-1.7l4-0.8 8.1 1.6 1.6 8.1 7.3 3.3 4.1 4.8v3.3l-1.7 8.9h-10.5l-6.5-1.7-5.6-8-6.5-2.5-1.6-8.1 1.6-6.4zm167.6 4l0.8-1.6h4.1v4l-4.1 0.8zm60 4.1l3.2-5.7 8.1 0.8 3.3 3.3-0.9 4-2.4 0.8-0.8 5.7h-0.8l-7.3-3.2zm-120.7 21.8l-2.4-7.3-6.5-5.6v-8.9l2.4-3.3h1.7l5.6 2.4h4.1 5.7l3.2 1.7v4.8l-2.4 11.4zm37.2-18.7v-2.4h6.5l4.1 2.4-0.9 8.1h-4.8zm-568.6 25.1l4.9-4h2.4v2.4l-1.6 8.1 3.2 0.8 0.9 3.2-5.7 0.8v-2.4l-3.3-0.8-1.6-3.2zm236.5 34l1.6-6.5h4.1l3.2 4.8-0.8 3.3h-4zm-256 29.9h12.2l3.2 6.5-7.3 0.8-0.8-3.2h-8.1zm124.8 12.1l5.6-3.2h7.3l2.4 8.1-2.4 2.4h-2.4z"/>
		<path id="Path 18" class="s18" d="m502 335.2l5.7-4h0.8l7.3 0.8 2.4 7.3-3.2 8.1 3.2 10.5-6.5 5.6-3.2 0.9-2.4-5.7 2.4-8.1-4.9-0.8-1.6-13.8zm-25.1 16.2l4.9-7.3h0.8l4.8 6.5-0.8 4.1-4 2.4-3.3-0.8zm-11.3 3.2l2.4-2.4 1.7 4h3.2l2.4 4.1-4 7.3 4.8 0.8 1.7 3.2-4.1 5.7h-8.1l-5.7-2.5-2.4-4 0.8-3.2 0.8-2.5 5.7-5.6zm8.9 24.2l6.5-0.8-0.8 5.7-5.7 0.8zm468.1 0.8h6.5l2.4 12.2h-3.2l-4.9-6.5zm-456.7 6.5l1.6-0.9 3.2 0.9 0.8 3.2-4 0.8zm18.6 16.2l5.7-2.4 0.8 0.8-0.8 5.6h-0.8zm25.1 6.5l5.6-0.8 11.4-7.3 7.3 3.3 3.2 1.6-0.8 2.4h2.4v4.9l-5.6 2.4 0.8 2.4 7.3-2.4h4.8l2.4 5.6-7.2 1.7-5.7 1.6-6.5 0.8v2.4h-1.6l-4.9-0.8v-4l0.8-4.1h-3.2l-1.6-2.4-0.8-4.9-5.7 1.7-2.4-1.7zm119.8 44.5l0.8-0.8h4.1l4 4.1v3.2h-0.8-6.4zm23.4 2.4l4.9-2.4 12.1 0.8 2.5 2.5 7.3-1.7v4.1l3.2 1.6h2.4l0.8-3.2 4.1-0.8 2.4 1.6 0.8 5.6 7.3 2.5-0.8 4.8v2.4l-13.8 1.7-3.2-2.5-3.2-4.8-3.3-4.1-3.2 5.7h-5.7v-5.7l-2.4-0.8-4.9-3.2-2.4 7.3h-1.6l-13.8-6.5v-5.7l1.6-0.8 4.1 2.5zm75.3 8.9l4-1.7 4.9 3.3 2.4 6.4-2.4 1.7-8.1-2.5-0.8-3.2zm-521.6 13.8l1.7-2.5 12.9 11.4v2.4l-10.5-0.8-4.1-4.9zm-73.7 4.1l10.6-1.6 8.1 8v5.7h-4.1l-0.8-0.8-4-5.7-7.3 0.8h-4.9v-6.4zm52.6 16.2v-7.3l3.3 2.4v4.9zm604.2 25.9l8.9-1.7 7.3 6.5-5.7 4.9-2.4 11.3-17-7.3 0.8-8.9 3.2-2.4h4.1zm-598.6 12.1v-4.8h2.5l1.6 4h2.4l1.6 3.2 6.5 8.9-0.8 8.1 4.9 3.3v4.8l7.3 6.5-2.5 5.7-12.1 2.4 0.8-6.5-6.5-5.6h-4.8-4.9l-0.8-2.5 0.8-7.2v-4.1l6.5-8.9v-6.5zm-86.7 4.1l0.8-7.3h4.9l4 4v6.5l-0.8 1.6h-4.8zm-17.9 18.6v-8h1.7l7.3 1.6 3.2 3.2-2.4 4.1h-1.7zm206.6-7.3l7.3-0.8v3.2l-2.5 0.8h-4.8zm-122.3 11.3v-6.4h3.2l1.6 4.8-1.6 1.6zm4.9 16.2l2.4-4h7.3v4 0.8h-4.9zm748.4 21.1v-1.6h8.1l-3.3 5.6-4 1.6z"/>
		<path id="Path 19" fill-rule="evenodd" class="s19" d="m611.4 466.3l4-5.6 4.9 4v16.2h-6.5l-1.6-4.9 2.4-5.6-3.2-2.5zm85 4.9l3.2-3.2 3.3 4.8-6.5 3.2zm51.8-2.4l0.8 3.3-5.6 4-4.1-0.8-2.4-4.1v-0.8h3.2zm-275.3 2.5l4.8-1.7 5.7 3.3 0.8 1.6 1.6 4.1 2.5-0.9 2.4 6.5-5.7 2.4h-2.4v-2.4l-1.6-5.6-7.3 0.8-2.4-3.3zm340.9 8.1l0.8-5.6 2.5-0.9 10.5 9.8 0.8 7.2 3.2 3.3-0.8 4 3.3 21.1-1.7 0.8-4-0.8-1.6-5.7-5.7-3.2-3.2-8.9 1.6-1.7-1.6-4v-5.7l3.2-1.6v-4zm-294-3.3l2.4-1.6 4.9 3.2 2.4 8.1 4.9-1.6h2.4l2.4 0.8-4 8.9h-2.4l-8.9-0.8-4.1-4-1.6-5.7zm113.4 13l3.2-4.1 1.6 0.8-0.8 7.3 2.5 4.9h-4.1l1.6 4h3.3v4.1l4-0.9h1.6v3.3l-3.2 3.2h-8.1l-0.8-6.5-2.4-1.6-0.9-8.1 2.5-1.6zm-78.6-2.4l4.9-0.8 2.4 8.1-8.1-1.6zm240.5 3.2h-3.2v-2.4zm-232.4 4l5.6-4 3.3 5.6-1.6 3.3 3.2-0.8 3.2 0.8 1.7 7.2 6.4 2.5v3.2l1.7 9.7-6.5 2.4-4.9-1.6-1.6-2.4h-8.1l-1.6-3.2h-3.3v-9.7l-4-4.9 0.8-2.4 5.7-1.6zm-21.1 4.8l2.4-1.6 5.7 0.8v2.4l-4 1.6h-3.3zm-25.9 10.6l-4-0.8v-3.3l5.6 1.6zm-144.1 5.7l2.4-3.2 4.9 1.6v4.8l4-1.6 4.1 1.6v5.7l2.4 2.4-1.6 6.5-2.5-0.8-11.3-8.9zm-25.9 4.9l0.8-1.7h4.8l1.7 3.3-0.8 2.4-7.3-1.6zm-271.3 3.2v-2.4l10.5 5.7-1.6 1.6h-3.3v-2.5zm356.4 8.1l5.6-8.9h6.5l2.5 5.7-2.5 5.7-2.4 0.8zm-234.1 4l2.5-4h4l1.6 4.8-0.8 3.3h-4zm99.6-1.7l0.8-2.4h2.4v3.3l-3.2 0.8zm119.9 2.4v-4.9l4.8 1.7zm-316.7 4.8l0.9-8.1h3.2l5.7 6.5-2.5 1.6 1.7 10.5h-1.7l-4.8 0.8zm16.2 12.2l1.6-7.3 9.7 4 6.5 6.5-1.6 2.4h-9.7l-3.3-2.4zm141.7 0.8l3.3-1.6 1.6 6.5-6.5-0.8z"/>
		<path id="Path 20" class="s20" d="m145.7 540l0.8-7.3 12.1 1.6v9.7l-4 3.2h-2.4zm554.7 14.6l8.1 1.6-0.8-4h5.7l3.2 4-4 5.7h-7.3l-4.1 4.9h-5.6l-1.7-2.5zm-221.9 4.1l1.7-3.3h13.7l4.1 4.9h8.9l21 1.6 4.9-4.8 21.1 1.6 8.1-1.6 4.8 4.8h8.1l4.1 4.1 0.8 7.2-9.7-0.8-9 2.5-7.2-0.9-6.5 1.7-0.8 2.4-4.1-3.2-4.8 2.4-13 0.8-7.3 4-13.8 0.8-8.1-5.6-8.1-0.8-3.2 2.4v8.9h-0.8l-4.9-1.6-14.5 1.6-7.3 0.8-1.6-0.8v-8.1l3.2-3.2 12.9-2.5 4.9-8.9zm464.1 16.2l3.2-1.6 2.4-6.5h4.1v17.8h-4.9l-4.8-0.8zm-163.6 45.3l1.6-8.9 2.4 4.1z"/>
		<path id="Path 21" class="s21" d="m955.6 446.9v-3.2h3.2l1.6 7.2v14.6h-1.6l-1.6-4zm-272.1 22.6l1.6-6.5 2.4 0.9v5.6zm-63.2 11.4v-16.2h8.9v2.4l-4 4.9 4.9 0.8 1.6-5.7 6.5-0.8 3.2 6.5-4.9 2.4v9.7l-3.2 4h-8.9l-4.1-0.8zm-91.5-8.1l4.1-3.2 6.4 0.8 0.9 2.4-3.3 11.4h-2.4l-1.6-8.9h-4.1zm70.5 18.6l1.6-8.9 5.7 0.8 2.4 3.2v6.5l3.2 1.6 4.1 13 4.8 4.8 0.9 7.3-11.4-2.4-3.2-5.7-1.6-16.2-3.3-4zm51-4.1l5.7-2.4 5.7 3.2v2.5l0.8 4.8v4.9h4l8.9 15.4-3.2 4h-3.2-4.1l-6.5-9.7v-5.7l-5.6-7.3zm-494.9 1.7l7.3-0.8 4.1 5.6h-3.3l-4.8 0.8h-2.5zm50.3 0l4-0.8 4.9 2.5-2.5 3.2h-3.2l-3.2-2.4zm344.2 14.5l2.4-1.6h4l4.1 4.9v9.7l-9.7 1.6v-0.8zm190.3 24.3v-5.7l-4.9-4v-8.9l4.9-5.7h6.5l8.1 8.1v13.7l-2.5 2.5zm-622-13.8l-8.1-4 3.3-3.3 4.8 2.5zm25.2-4.1l1.6-3.2 3.2 1.6-0.8 4.8-4.9 0.9-0.8-1.7zm372.6-0.8l1.6-2.4 7.3 0.8 1.6 15.4-4.9 4-5.6-0.8-2.5-6.5 2.5-2.4zm185.4 4.9v-4.9l4.9-0.8 5.7 8.1-2.5 1.6zm-209.7 5.7l0.8-10.5h5.7l6.4 10.5-4 4zm304.5-8.9l4.1-0.8 4.8 4.9h4.9v7.3l-4.9 2.4-8.9-5.7-1.6-4zm-209.8 10.5l-1.6-9.7 5.7 2.4 1.6 7.3zm-244.6 1.6l3.3-0.8 7.2 1.6 1.7 5.7-8.1 4-8.1-2.4v-4.9zm-59.2 3.3l8.9-1.6-0.8 8.1-0.8 2.4-5.6-0.8-2.5-3.3zm-88.2 11.4l2.4-2.5 3.2 4.1h4.1l4 3.2 1.6-5.6h1.7l2.4 0.8v6.4l-6.5 8.9-7.3-6.4h-4.8l-0.8-4.1zm66.4 14.6l1.6-2.4 6.5 0.8h1.6v6.4l-6.5 1.7h-1.6z"/>
		<path id="Path 22" fill-rule="evenodd" class="s22" d="m480.2 370l0.8-2.4h2.4l2.4 1.6-4 7.3zm73.7 34l7.3-1.6-4.1 3.2zm25.1 13.8l-7.3 0.8 2.5-3.3h4.8zm-136 13l3.2 1.6 2.4-2.4h3.3l3.2 4.8-0.8 10.5h-7.3l-1.6-5.6-4.9-0.8-1.6-2.5zm20.3 6.5l6.4-5.6 9.8 4.8-2.5 3.2-1.6-1.6-4 1.6v3.3l4 2.4-0.8 7.3-1.6 0.8-3.3-0.8-0.8-8.1zm165.2-3.2l4.9-0.8 1.6 2.4 1.6 8.9 4.9 0.8h3.2l5.7 7.3-0.8 0.8-4.9 0.8-3.2 6.5-4.9-0.8-4-6.5-4.9 0.8 0.8-8.1-4 0.8-1.6-2.4v-4.1l5.6-3.2zm-259.9 4.9h4l1.6-4.9 13 2.4v3.3l-5.7-0.8-1.6 4.8 0.8 5.7 2.5 0.8 1.6 3.2v2.4l-6.5 0.9-4.1-3.3v-2.4l-3.2-0.8-3.2-6.5v-3.2zm26.7-3.3v-1.6l7.3 5.7v2.4l-0.8 0.8h-4.1zm-147.4 2.4l4.9-1.6-0.8 3.3-4.1 0.8zm245.4 3.2l4.9-2.4 9.7 0.8 5.7 1.6 3.2-1.6 4.9 0.8 1.6 13-12.2 4.8-6.4-8.1v-6.5h-3.3l-2.4 4.1-5.7-0.8zm106.1 5.6l7.3-3.2 4 1.6v8.1h-4.8l-4.1 0.8-2.4-0.8zm-47 0l9.8-1.6v4l-3.3 2.5-4.8-0.8-1.7-2.5zm-268.8 4.9l0.8-3.2h17.8l2.4 2.4v5.6l-0.8 1.7-4 0.8-0.9 4h-4.8zm588 16.2v-10.5l4.8-1.6 4.9 0.8 6.5 6.4v8.1l-1.7 3.3h-6.4l-0.8-3.3zm-703-0.8v-5.6l6.4-3.3-1.6 9.7zm-38.8 6.5l-2.5-1.6h2.5zm14.5 4l1.6-4.8h4.9v9.7h-4.9zm54.3 9.7l2.4-4h4.9v15.3l-0.8 0.8-5.7-7.2zm695.7 9.7v4.8h-4.8v-4.8zm-44.6 31.5l0.8-0.8h6.5v5.7l-6.5 0.8zm-536.9 27.5l0.8-0.8h4.8l-0.8 3.2zm417.9 86.6l9.7 2.5 0.9 3.2-10.6-4z"/>
		<path id="Path 23" class="s23" d="m535.2 424.2l4.9-1.6h2.4v4.1h-1.6-4.9zm90.7 6.4v-1.6l20.3 0.8v2.5h-7.3v2.4l-4 0.8-1.7-2.4-4.8 0.8zm-306.2 22.6l3.3-7.2 5.6-0.9 3.3 3.3 0.8 6.5-1.6 4.8h-2.5zm126.4-4.8l0.8-3.3h7.3l2.4 3.3v6.4l5.7 0.8 1.6-2.4 5.7-0.8 3.2 0.8v4.9l-1.6 5.6 1.6 2.5v4.8l-1.6 4.9h-2.4l-5.7-1.6-4.9-8.1h-6.4l-3.3-1.7 1.6-5.6-4-0.8zm44.5 2.4l2.5-4.1 5.6 0.9h0.8v2.4h4.9l6.5 8.1 12.1-4.9 6.5-1.6 6.5 1.6 4.8-1.6h8.1l4.9-0.8 4.9 0.8v7.3l-4.9 1.6-1.6-0.8-3.3-4.9-4 1.7 1.6 7.2-4.8 8.9h-1.7l-0.8-2.4-6.5-0.8v-1.6-6.5l-3.2-0.8-2.4 0.8 0.8 6.5-2.4 2.4-3.3 0.8v3.3l-2.4 1.6-0.8-1.6 0.8-4.1-4.9 2.4-2.4-2.4h-7.3l-0.8-4-2.4-3.3-4.9-2.4v3.2l-2.4 2.5h-4.1l-3.2-9.7 2.4-0.9zm170.1 0l3.2-0.8v4.1l-1.6 0.8h-1.6zm158.7 4.9l2.5-0.9 4 3.3h4.9l3.2 3.2h4.9v5.7l-2.5 4h-7.2l-2.5-7.3h-3.2l-2.4 2.5 1.6 2.4-2.5 0.8-2.4-0.8-3.2-3.2v-4.1l4.8-2.4zm-441.3 0.8l6.4-0.8h2.5l0.8 4.8 4-2.4h4.1l0.8 2.4 3.2 6.5v0.8l-4.8 0.8 0.8 3.3-2.5 3.2-5.6-8.1h-4.9l-5.7-4.8zm371 1.6l3.2-0.8v5.6l-4 1.7h-4.1l-0.8-1.7v-3.2zm38.9 5.7l3.2-6.5 5.7 2.4-0.8 8.1-4.9 1.6-3.2-3.2zm-9.7-2.4l1.6-0.8 4.8 4v1.6l-7.3 2.4v10.6l-5.6 1.6-8.9-4.1-3.3-4-2.4-6.5 1.6-1.6h12.2l1.6 3.2 5.7-0.8zm-55.9 3.3v-3.3h8.1l6.5 1.6v7.3 0.8l-6.5 2.5-4.1-2.5zm-501.3 8.1l5.7 0.8 1.6 2.5-1.6 2.4-3.3-1.6zm-70.4 17.8v-1.6h4.8l0.8 5.6-4.8 4.1zm-94.8 4l8.9-4 0.8 1.6-3.2 2.4-5.7 0.8zm154.7 21.1l-1.6-5.7h4.1v1.6zm-105.3 10.5v-4.8l12.1 0.8 2.4 2.4v3.3h-6.4zm191.1 28.3l13-2.4h4v3.2l-0.8 0.8h-3.2l-11.4 1.6-0.8-2.4zm-26.7 17l0.8-0.8h4.9l2.4 8.1-5.7 0.8z"/>
		<path id="Path 24" fill-rule="evenodd" class="s24" d="m534.4 362.7h-3.2l2.4-4 1.6 2.4zm-116.6 51.8l8.1-1.6 6.5 1.6v8.1l-6.5 2.4-4.9-2.4zm21.9 0l7.3-0.8 4.9 2.4 1.6 6.5 4.8-1.6-0.8-3.3 4.9-3.2h17l4.9 3.2 9.7 3.3h6.5l1.6 6.5 8.1 1.6-2.5 10.5-9.7-0.8-4.8 2.4-7.3-2.4-0.8-2.4h-5.7l-9.7-4.9-6.5 5.7-8.1-2.5-3.2-4.8h-3.3l-1.6-4.1h-4.9l-3.2-3.2zm-44.5 3.2l10.5-1.6 0.8 3.2v4.1l4.9 1.6v5.7l-2.5 1.6 0.8 4.9-0.8 3.2h-1.6l-4.9-0.8-7.2-5.7v-0.8l1.6-0.8-1.6-8.1zm-34.1 2.4l-0.8 3.3h-3.2l-0.8-4.1zm-40.5 4.1l4.8-0.8 1.7 0.8v4.8h-1.7l-6.4 0.8zm-7.3 11.4l-5.7-2.5-1.6-7.2h6.5zm227.5 2.4v-7.3h6.5l9.7 6.5h11.4v5.6h-4.9l-1.6 2.5-9.7 1.6-4.1-4.9h-4.8zm35.6-6.4l4.1-0.9 1.6 0.9 0.8 7.2-6.5 1.7zm11.4 0l5.6-0.9 5.7 1.7h4.9l2.4 8.9v2.4l-7.3 3.2-8.9-1.6-3.3-7.3zm121.5 3.3l13.8-2.5 3.2 3.3v5.6l5.7 1.7v4l-4.9 4.1-9.7 4h-3.2v3.2h-1.6l-2.5-1.6-2.4-4v-4.9l-6.5-4.8v-5.7h8.1zm-338.5 15.4l-6.5-0.8 3.3-5.7zm450.3-4.1l4.8-2.4v4.9h-3.2zm-628.5 13.7l4.9-6.4h4.8l8.9 1.6 5.7 3.2v10.5l-2.4 2.5h-5.7l-5.7-2.5-7.3-0.8zm335.3 8.1l-0.8-6.5 2.5-0.8 3.2 0.8v6.5zm-234.9 17.8l0.8-1.6 1.7 1.6-0.9 1.6zm-227.5 6.5l6.4-1.6 0.9 4.9 4.8 4v8.1l-11.3-0.8v-7.3l-4.1-4.9zm-15.4 43.7l1.7-0.8 6.4 2.5-3.2 7.2h-4.9zm828.6 50.2l-8.1-6.5h5.6l3.3 4.9zm-138.5 59.1v-4.1l6.5 2.5v5.6l-5.7-0.8zm-237.3 0.8l4-0.8 10.6 20.2-1.7 3.3-11.3-14.6z"/>
		<path id="Path 25" class="s25" d="m365.2 580.4l-12.2-12.9 1.6-11.4 10.6 0.9 2.4 2.4v3.2l5.7 5.7-0.9 8.1zm314.3 6.5l2.4-4.1h21.9l3.2 3.2h8.9l5.7 9.8v7.2l13.8 17 14.5 4.9 22.7 1.6 1.6 0.8v4.9l-9.7 12.1-1.6-4.8-9.7-2.5-5.7 1.6-7.3-3.2-2.4-4.8h-4.9l-0.8 2.4h-1.6l-8.1-7.3h-4l-16.2-13.8-6.5-8.1h-4.1l-0.8-6.4zm-172.5 6.4l16.2-0.8 3.2 4.9-9.7 10.5v15.4l3.3 11.3 6.4 8.1 1.7 11.3-7.3 4.1-11.4-26.7-2.4-13.8-4-4h-8.9l-2.5-8.1 0.8-5.7 6.5-2.4 5.7 1.6z"/>
		<path id="Path 26" class="s26" d="m477.7 344.1l2.5-0.8 1.6 0.8-4.9 7.3-4 4.9h-3.3l-1.6-4.1v-4l8.1-1.7zm-0.8 15.4l2.4-3.2 3.3 0.8-1.7 4zm-21 4.1l2.4-0.8 0.8 2.4-0.8 2.4-3.2-2.4zm164.4 70.4h-3.3l-3.2-4.8h12.2v1.6h-4.1zm-166 11.3l0.8-10.5 8.1 2.4 5.7 7.3 0.8 8.1-5.7 0.8v-3.2l-7.3-1.7zm-67.2-8.9l8.1-0.8 2.4 7.3-2.4 3.3 0.8 4h4.9l2.4-3.2 8.1-0.8h2.4l7.3 4 8.9-1.6 2.4 2.4v5.7l4.1 1.6 0.8 3.2 1.6 11.4-4.8 0.8-2.5-2.5-2.4-5.6-1.6-7.3h-4.1l-0.8 6.5h-7.3l-4-2.5-2.4-2.4h-6.5v-2.4h-3.3l-2.4 3.2-0.8-2.4h-4.1l0.9-4.1-5.7-0.8h-2.4l-1.7-3.2 0.9-0.8 4-3.2-0.8-6.5zm89.9 3.2l2.4-3.2h5.7l0.8 2.4-1.6 4.9h-4.9zm-230.8 17l8.9-9.8 4.1 0.9 1.6 19.4-0.8 1.6-5.7 0.8-8.1-1.6zm431.7-3.3v-4l2.4-0.8h6.5l3.2 5.7zm-399.3 0l0.9-2.5 4 0.8 10.5 11.4-5.6 4v4.1l-9.8-1.7v-6.4zm-115.8 0.8l8.9-2.4 3.3 1.6v4.8l-6.5 3.3v5.6l-6.5 4.1-3.2-12.2v-0.8zm154.7 0.8l2.4-1.6 8.9 6.5-1.6 6.5h-3.3zm413.1 1.6l4-2.4 8.1 1.6 0.8 4v3.3h-6.4l-6.5-1.7zm-16.2 1.7v-3.3h3.2l0.8 3.3zm135.3 10.5l-0.8-7.3h5.7l5.6 6.5h11.4l7.2 3.2 0.9 3.2-0.9 12.2 5.7 0.8v9.7l-4 1.6-0.8 8.9 2.4 2.4h5.7v15.4l-0.9 0.8h-4.8l-8.1-0.8-2.4-4h-8.9l-5.7 6.5h-6.5v-8.1l5.7-4.1 4.8-1.6 5.7-8.1-1.6-20.2-8.9-10.5v-4.1zm-716-0.8l5.7-0.8 4.9 1.6 1.6 4.1-1.6 4.8h-4.9l-7.3-0.8-2.4-3.2v-1.7zm-78.6 76.9l3.3-7.3h4.8l4.1 1.7 2.4 1.6-1.6 3.2h-4.1v4.1h-2.4zm145.8 17.8l3.2-5.7h3.3l-0.8 7.3zm-32.4 7.3l0.8-3.3 9.7 4.1-0.8 5.6h-4.1zm94 1.7l1.6-4.9h5.7l0.8 4-0.8 0.9z"/>
		<path id="Path 27" class="s27" d="m510.9 400.8l6.5-3.3 1.6 3.3-0.8 1.6-3.2 4h-4.9zm-301.3 87.4v-4h12.2 4.9l4 4.8-4.9 4.9-2.4-3.2h-8.9zm328.8 13.7l-1.6-3.2h3.2zm-325.5 9.7l3.2-0.8 1.6 8.9-2.4 2.4-1.6 0.8-3.3-7.3zm-80.1 2.5l3.2-2.5 5.7 0.8 0.8 1.7-2.5 2.4 1.7 2.4-0.8 4.1-6.5 0.8v8.1l-11.4-6.5v-8.9zm501.4 0.8l0.8-3.2h8.1l2.4 4.8-6.5 2.5zm63.2 3.2l4-4.1 8.1 4.1-1.6 4.8 2.4 3.3-5.6-0.8-1.6 2.4h-3.3zm-227.6 8.1v-7.3l3.3-1.6 5.6 4 0.9 4.1 4-0.8 5.7 1.6v5.7l-7.3 2.4-6.5-8.1zm317.5-3.2l-1.6-4.1h3.2v4.1zm-598.5 7.2l5.7-5.6 4.8 2.4v4l-2.4 4.1-2.4 2.4h-4.1zm318.3 0.8l3.2-1.6 1.7 2.4-4.9 4.1zm-217 4l0.8-2.4h0.8l3.2 0.8h1.6v1.6l-1.6 2.5zm40.5 5.6l2.4-1.6 4.9 2.4-0.8 9.7h-0.8-7.3v-2.4l1.6-3.2zm-239.7 9.7v-9.7h2.4 6.5l2.4 11.3h-4.8zm171.7-2.4l3.2-4.1h0.8l2.4 1.7v4.8l-6.4-0.8zm275.3 29.1l4.9-2.4 4 3.2 0.8 4.1-9.7 0.8zm63.2 4l2.4-6.4h4.1v6.4zm22.6-0.8v-2.4h12.2v1.6z"/>
		<path id="Path 28" fill-rule="evenodd" class="s28" d="m458.3 386.2l5.7 3.2-0.8 5.7 4 0.8v2.4l-4.9 4.1h-2.4l-3.2-0.8 0.8-5.7-4.1-0.8v-4zm37.3 6.4l2.4-0.8 2.4 1.6-3.2 4.9-1.6-1.6zm453.5 7.3l-0.8-8.1h3.3l2.4 6.4zm-362 0.9l-3.3-4.1h3.3zm-473.8 70.4l12.1-4v2.4l-4 1.6v3.2h-3.3l-1.6-3.2zm-8.9 3.2l8.1-3.2-4.9 6.5h-1.6zm108.6 31.5l4 0.9 1.6 3.2-2.4 0.8-3.2 0.8zm51 0.8l0.8-0.8h0.8l4 6.5 1.7 4.8 0.8 7.3-1.6 1.6-4.1-0.8-0.8-7.2-0.8-6.5zm498.9 3.2l9.7-4 1.6 5.6 8.1 2.5 3.3 4.8 1.6 4.1v4l-17.8-0.8zm-674.7 4.9l1.6-2.5 7.3 0.8v4.9h-3.2l-5.7-2.4zm716.8 9.7l4.8-2.5v2.5l-0.8 2.4h-4zm-505.4 6.5l5.7-4.9h7.3l6.4 3.3-0.8 4.8h-18.6zm-37.3 0.8l2.5-3.2 0.8 5.7h3.2l-2.4 9.7h-0.8l-5.7-4.9zm16.2 0l3.3-0.8 2.4 3.2-0.8 3.3h-4.9zm117.4 2.4l0.9-3.2h8.1l1.6 6.4-4.9 1.7h-4zm28.3-1.7l6.5-1.6 9.7 3.3-4 4.8-12.2-1.6zm-289.9 11.3v-6.5h2.4l4.1 3.3v3.2zm12.1 6.5h4.9l0.8-3.2h2.4l6.5 8.9v5.6h-8.1l-6.5-6.4zm139.3 34.8l4.1-0.9 4 2.5 0.8 4h-2.4l-7.3-1.6z"/>
		<path id="Path 29" class="s29" d="m489.1 327.9l4.8-1.6 1.6 2.4-6.4 1.7zm8.1 29.1l6.4-7.3 4.9 0.8-2.4 8.1-3.3 5.7-4 4.8-1.6 2.5-8.9 9.7-0.9 4-1.6 0.8-5.6-0.8v-1.6l0.8-5.7 0.8-1.6 4-7.3 6.5-6.4zm47 9.7l2.4-4.1 8.1 1.6 3.2 4.1-1.6 4 6.5 1.7v1.6l-15.4 2.4-0.8-1.6zm-35.6-2.4l3.2-0.9 1.6 0.9-3.2 3.2-1.6-1.6zm26.7 21l-1.6-2.4 2.4-2.4h4.1l3.2 4-0.8 2.4h-4.1zm33.2 6.5l3.3-7.3h2.4l4.9 7.3v4.1l4.8 0.8 3.3 4 4 2.4-6.5 4.1-4.8-2.4-0.8-2.5-4.9 0.8h-4l-2.5-4.8v-3.3zm-413 118.2l5.7-0.8 6.4 2.4v0.8l-2.4 10.5-4.8 4.1v6.5l-1.7 0.8-12.1-1.6h-5.7v-9.8l0.8-4 6.5-0.8 0.8-4.1zm19.5 4.9l6.4-0.8v8.9h-3.2-3.2zm481 18.6l2.5-10.5h5.6 4.9l4 5.6h5.7l2.4 3.3-8.9 6.5-9.7 3.2h-2.4zm-115-7.3l8.1-0.8 4 5.7-8.9 4zm72.9 8.1l2.4-4.8 7.3-1.7h8.1l3.3 4.9-6.5 9.7-4.9 0.8-10.5-4zm-221.9 6.4v-6.4h4l1.6 4.8-0.8 1.6-4.8 0.8zm-151.5 7.3l4.1-3.2h4.8v3.2l-2.4 2.5-6.5 1.6z"/>
		<path id="Path 30" class="s30" d="m487.4 350.6l6.5-4.1-0.8 4.9-4.8 4.1-1.7-0.9zm-11.3 17.8l2.4-3.2 2.5 2.4-0.9 2.5-2.4 1.6zm-9.7 16.2l8.1-5.7v5.7l-0.8 4.8 4.8-0.8 1.7-3.2 5.6 0.8 1.7 4 0.8 6.5 3.2-1.6v-3.2l4.1 0.8v4l-6.5 4.1v4.8h2.4v3.2h-1.6l-5.7-0.8-1.6-4-2.4-5.7-5.7 3.3-3.2 0.8v-2.5l-4.1-1.6v-2.4l3.2-7.3-4-0.8zm42.1 25.9l0.8-4h0.8 4.9v8h-0.8l-3.3-0.8zm440.6 65.6l2.5-14.6h5.6l1.6 4.1-2.4 17 2.4 44.5-1.6 41.2-3.2-1.6-1.6-27.5 1.6-10.5-3.3-13v-25zm-803.4 29.1l4.9-1.6 1.6 3.2-4 1.6-3.3-1.6zm609.1 6.5l4.8-1.6h3.3l6.4 16.1-14.5-0.8zm-666.6 3.3l-0.8-3.3 2.4 0.8zm700.6 4.1l1.6-4.9 4.1 0.8 1.6 4.1 8.9 5.7v2.4l-3.2 2.4-11.4-1.6v-0.8l-1.6-4.1zm21.1-4l1.6-0.8 5.6 0.8 1.7 8.1-8.9 1.6v-2.4zm-125.6 2.4l7.3 0.8 1.6 5.7-2.4 1.6 0.8 2.4-4.9 0.8zm-195.1 8.9l0.8-6.4h1.6l8.9 4v5.7l5.7 1.6h0.8v4.8l-7.3 2.5-10.5-6.5zm76.1 2.4v-8.9h8.1l1.6 2.5-3.2 7.2zm98.8-5.6l0.8-3.3h4v3.3zm-198.4 5.6l4.1-2.4h5.6l6.5 8.1-2.4 3.2h-11.4zm-22.6 4.9l2.4-5.7h8.1l1.6 2.5-3.2 4zm-173.3 0l2.4 0.8 0.8-2.4h5.7v5.7l-4.1 12.1-4 0.8h-1.6v-4.9l-2.5-1.6 2.5-9.7zm63.1 5.7l3.3-6.5 4 8.1-2.4 0.8zm-143.4 3.2v-4.8h0.8 4.1v4.8zm532.9 4.9l-1.6-4.9 3.2 0.9v3.2zm-636.6 8.1v-4.9h4.9l6.5 1.6 0.8 5.7-8.9 0.8zm451.1 117.4l8.1-5.7 1.6 1.6-3.2 8.9h-2.5-0.8-1.6l-1.6-1.6z"/>
		<path id="Path 31" class="s31" d="m493.9 326.3l8.9-2.4v2.4l-3.2 3.3h-1.6l-2.5-0.9zm24.3 31.6l5.7-2.4 0.8 6.5-4.8 3.2-6.5-0.8-1.6-0.8zm17 6.4l8.1-4 2.4 0.8 0.8 1.6-2.4 4.1h-3.3l-4.8 0.8-2.4 4-8.1 8.9-2.5-0.8v-2.4l7.3-9.7zm4.9 16.2l0.8-2.5 5.6-1.6 0.9 1.6v5.7l-4.1 0.8zm-49.4 5.7l3.2-1.6 2.5 1.6h1.6v5.6l-2.4 0.9-4.1-0.9v-2.4zm65.6 3.3l0.8-3.3 4.9-1.6h2.4l-1.6 5.7-4.1 2.4-2.4-1.6zm-35.6 5.6l2.4-4 6.5 1.6v4.1l-5.7 2.4-1.6-1.6zm-23.5 3.2l3.3-4.9h4l2.4 0.9 3.3 2.4v3.2l-5.7 2.4-4.9 2.5-0.8-1.6zm40.5 0.8l4.1-4.9 8.1 0.8-3.3 5.7-11.3 7.3-5.7 0.8-1.6-0.8 5.7-4.1zm-5.7 13.8l5.7-1.6 0.8 4.8-6.5 0.8h-2.4zm-350.7 101.2l2.4-2.4h1.6l0.9 6.4h6.4l0.8 3.3 0.9 1.6v1.6l-5.7 5.7-3.3-5.7-4-1.6zm-84.2-0.8l1.6-0.8h4l-2.4 8.1h-1.6l-1.6-2.5zm578.2 2.5l4.1-0.9 4.8 2.5 2.5 11.3-5.7 3.2-2.4-3.2h-5.7l-4-5.7v-3.2h3.2zm-124.7 2.4l9.7-1.6h3.2l1.6 3.3v8.9l-12.1 2.4-4.1-5.7zm88.3 0.8l6.5-2.4 13 6.5-2.5 10.5-21-0.8-3.3-4.9 0.8-2.4 2.5-3.2h3.2zm-413 29.1l-6.5-8.9h12.1l1.7 6.5 7.3 2.4v4h-5.7zm-148.2-6.4l12.9-0.8v9.7h-4.8l-5.7-0.8zm574.2 31.5l0.8-2.4h4.9l-1.6 5.7zm-105.3 4.8l0.8-2.4 6.5-1.6 7.3 0.8 2.4 6.5-16.2 0.8zm60.7-3.3l8.1 0.8 0.8 4.9-8.9 0.8zm-225.9 8.1l9.7-1.6 3.2 3.2-0.8 1.6-12.1-1.6zm46.1 1.6l5.7-1.6 7.3 2.4-6.5 4.1zm124.7 66.3l4.9-3.2-0.8-5.7 2.4-1.6 3.3 4.1 1.6 6.4-3.3 0.9-7.3 9.7-0.8-1.7z"/>
		<path id="Path 32" class="s32" d="m732 548.9h17.9l-1.7 7.2-14.5 12.2h-4.1l-12.1 8.9-1.7 8.9h-8.9l-3.2-3.2h-21.9v-7.3l3.3-2.5 8.9-2.4 1.6-4h5.7l4-4.9h7.3l4-5.7 5.7-0.8h3.3zm-196 48.6l1.6-8.1 7.3 2.4-0.8 6.5-5.7 2.4zm-15.4 60.7l7.3-4h8.1l1.6 4.8-9.7 11.4-2.4 0.8-4.1-5.7z"/>
		<path id="Path 33" class="s33" d="m432.4 414.5l4.8-0.8 2.5 0.8-0.8 8.1-2.5 1.6-4-1.6zm25.1 3.3l0.8 3.2-4.9 1.6-1.6-6.5zm-76.9 0.8v7.3l-4.9-1.6 1.6-5.7zm30.8 6.5l-4.9-1.6v-4l4.9 2.4zm14.6 0l0.8 4.8-6.5 2.5 0.8-9.7zm-30.7 8l-4.9-4.8 0.8-4.1h4.1l1.6 8.1zm47.8-2.4l-0.9-4.8h4.9l1.6 4-2.4 2.4zm139.3 0.8l3.2-1.6 2.5 1.6-0.8 6.5-4.1 0.8zm21.9 0.8l4-1.6 4.9 3.3-1.6 6.4-4.9 0.8zm-235.7 6.5l0.8-6.5 4.9 1.7-1.6 4.8zm266.4-3.2l4.1-0.8 4 3.2-1.6 7.3-4.9-0.8zm-225.1 1.6l7.3 0.8 0.8 6.5-4.1 1.6h-2.4l-2.4-5.7zm285.9 4.9l0.8-4.9h4.8v5.7zm-220.2 3.2l-4.1-2.4v-3.2l4.1-1.7 1.6 1.7 2.4 4zm63.2 0l2.4-7.3 2.4 4.1-0.8 3.2-1.6 1.6zm-283.5 1.6l-1.6-2.4 1.6-4.8 4.1 0.8 0.8 5.6-0.8 1.7zm148.2 0l-2.4 3.2h-4.9l-0.8-4.1 2.4-3.2h4.1zm-20.3 3.2l-2.4-0.8-0.8-5.6 4 5.6zm241.4-3.2l4-0.8-0.8 8.1-3.2-1.6zm-140.1 2.4l4-1.6 2.5 3.2-0.8 4.9-2.5 0.8-2.4-0.8zm-212.2 10.5l-5.7-1.6-0.8-9.7 7.3 0.8 0.8 5.6zm471.4-6.4l3.2-1.7 2.4 6.5-5.6 1.6-0.8-4zm21 1.6l7.3-1.6-0.8 2.4-4.9 1.6zm45.4 2.5l2.4-4.1 2.5 1.6-0.9 4.9h-3.2zm-579.1 2.4l0.8-3.2 4.1 0.8 2.4 4.8zm68.1 3.3l0.8-4.1 4-0.8 2.4 4.9-3.2 5.6-3.2-0.8zm123.9 1.7l0.8-6.5h4l1.7 7.3zm347.4-4.9l1.6-1.6h3.3l3.2 3.2v5.7l-5.7 0.8-1.6-3.2zm-275.3 6.4l2.4-2.4 1.6 1.6-0.8 2.5h-2.4zm-247.1 28.3l-0.8-5.7 2.5-0.8 2.4 2.4 0.8 4.9h-4zm-33.3-4.1h9l2.4 3.3-0.8 5.6-8.1 0.9-4.9-6.5zm-106.9 12.1l2.4-8.9h3.3l0.8 2.4 11.3-0.8 2.5 3.3v6.4l-3.3 4.1h-6.5l-4.8-2.4zm85.8 18.6l0.8-3.3h5.7l2.4 2.5-2.4 4.8-5.7-2.4zm71.3 7.3l1.6-3.3 4.1 0.9-0.8 7.2-0.8 0.8h-3.3zm401.7 60.7l1.6-1.6 9.8 4.1 8.1 10.5 4.8 2.4 1.6 3.3-3.2 1.6-8.1-6.5-6.5-4.9z"/>
		<path id="Path 34" class="s34" d="m519.8 365.2l4.9-3.3 5.7 5.7-7.3 9.7-1.6-0.8v-6.5l-2.5-2.4zm4.1 19.4l3.2-0.8 4.1 3.2-1.6 4.1 4 0.8 4.9-4.9h4l0.8-2.4 4.1-0.8 3.2 1.6v3.3l-4.9 2.4v2.4l10.6-2.4 2.4 1.6 4.1-2.4 1.6 1.6-4.1 4.9 4.9-0.9v2.5l-4.1 4-7.3 1.6-7.2-3.2 3.2-5.7-8.1-0.8-4.1 4.9-5.6-0.8-2.4 2.4 0.8 3.2h3.2l-5.7 4.1-5.6 0.8-1.7-3.2 1.7-4.9 1.6-1.6 5.7-2.4v-4.1l-6.5-1.6-2.5 4-3.2 2.5-6.5 3.2-0.8-0.8v-3.2l4.9-4.9zm34.8 23.5l11.3-4.9h4.1l-3.3 2.4 1.7 1.7v3.2l-11.4 3.2-2.4-0.8zm-349.9 63.1h5.7l2.4-2.4 4.1 4.1 2.4 4-1.6 7.3h-12.2v4l-4 0.8v-5.6zm735.4 21l6.4-1.6v25.1l3.3 12.9-1.6 10.6-8.1 1.6-0.8-3.3 0.8-10.5-3.3-2.4 0.8-30.8zm-810.7 53.5l0.8-1.7h6.5l5.7 6.5v4.9h-4.1l-6.4-1.7zm103.6 25.1l-7.3-6.4v-4.9l-4.8-3.2 0.8-8.1 8.9 4 6.5 15.4v1.6z"/>
		<path id="Path 35" class="s35" d="m504.5 368.4l4-2.4 1.6 1.6 1.6 3.2 0.9 4.9-4.9 5.6h-1.6l-3.3-2.4-3.2-1.6 0.8-4.9 3.2-2.4zm16.2 13l2.5-1.7 2.4 0.9-1.6 4-8.9 7.3-1.6-1.6-1.7-4.9v-3.2zm40.5 21l4.1-4h2.4l2.4 4.8-11.3 4.9h-2.4l0.8-2.4zm62.3 125.4l-0.8-6.5h4.9l3.2 1.6 1.6 2.5-0.8 2.4zm-489.1 4v-8.1l6.4-0.8v9.7 3.3l-3.2-0.8zm566.1 22.6l1.6-8.1 8.9-1.6 3.3 0.8-0.8 6.5h-5.7l0.8 4.1zm-139.3 20.2l8.9-2.4 9.7 0.8 20.3-0.8 3.2 2.4-2.4 6.5h-37.3zm55.1 5.6l-0.8-4.8 8.1 2.4v2.4zm-240.5 2.4v-4l5.6 4v1.7zm170.9 79.3l5.7-2.5 0.8 1.7-0.8 4-5.7 3.2-1.6-1.6zm-13.8 13l4.1-2.5v3.3z"/>
		<path id="Path 36" class="s36" d="m367.6 559.4l11.3-0.8 8.1 3.2 14.6 0.8 19.4-0.8 8.1 3.2h47l-4.9 9-12.9 2.4-3.2 3.2v8.1h-4.9l-9.7-2.4-7.3-2.4-5.7 1.6-12.9-1.6-20.3 1.6-3.2-3.3-9.7 1.7-5.7-4.1-3.3-2.4 0.9-8.1-5.7-5.7z"/>
		<path id="Path 37" class="s37" d="m533.6 358.7l2.4-2.4 3.3 1.6-4.1 3.2zm-20.2 5.7l6.5 0.8-0.8 2.4-7.3 3.3-1.7-3.3zm2.5 14.6l5.6-2.4 1.7 0.8v2.4l-2.5 1.6zm-19.4 7.3l-0.8-4.9 7.3-2.4-4.9 7.3zm-41.3 3.2l-1.6-4.8 2.4-2.4 2.5 0.8v3.2zm50.2-0.8l6.4-3.2 1.7 4.8-6.5 4.1-2.4-0.9zm51 2.5l-10.6 2.4v-2.4l4.9-2.5 5.7 0.9zm-127.2 8.9l4.1-5.7 2.4 0.8-1.6 5.7zm104.5 4h-3.3l-0.8-3.2 2.4-2.5 5.7 0.9zm-110.9 3.2l4-4.1 3.2 5.7-4 0.8zm170.9 23.5v-2.4h4l1.6 4zm-303.7 0l-1.6 4.9h-3.2l-1.6-4.9zm30.7 7.3l1.7-4.1h3.2l0.8 1.7v5.6zm359.6 1.6l-4.9 0.9-1.6-4.9h4.9zm51.8 3.2l-5.7-1.6v-5.6h3.3l4.8 4.8zm-352.3 0.8l1.7-4.8 5.6 0.8 0.8 6.4-4 3.3zm64.8 4.8l-4.1-2.4v-7.3l4.9 0.8 1.6 5.7-0.8 3.2zm-91.5-4v-3.2h6.5l0.8 2.4-4.1 2.4zm374.2 6.5l4.8-4.1 4.9 1.7v3.2l-2.4 2.4-4.1 2.4zm-116.6 0.9h4.1l-2.5 3.2-1.6-1.6zm-223.5 1.6l5.6 0.8-0.8 4-4 2.5-0.8-4.9zm-54.3 1.6h4.1l2.4 4.9-2.4 3.2h-4.1l-1.6-3.2zm498.1 3.2l1.6-4h4.9l3.2 5.7-1.6 1.6h-4.9zm-51 2.4l4.9-5.7h6.4v2.5l-3.2 6.4-3.2 0.8zm34-0.8l0.8-4.8 4.8 0.8v3.2l-4.8 2.5zm-463.3 4l0.8-8.1h4.1v8.1zm46.1-3.2l2.5-3.3h3.2v2.5l0.8 4-3.2 3.2zm399.3 7.3l0.8-8.1h7.3l2.4 4.9-3.3 5.6zm24.3 1.7l2.5-0.8-1.6-2.5 2.4-2.4h3.2l2.5 7.3-0.9 1.6-4 0.8zm-658.4 1.6l6.4-4 4.9 0.8v7.3l-8.1 0.8-3.2-3.2zm26.7 20.2l5.6-0.8 1.7 4-1.7 5.7h-4.8l-2.4-4.1zm-98.8 1.7l5.6-0.9v6.5l-5.6 1.6-0.9-4zm166.1 56.6l2.4-2.4 4 0.8v1.6l-1.6 2.5-3.2 1.6z"/>
		<path id="Path 38" class="s38" d="m348.1 418.6l6.5-0.8v1.6l-6.5 1.6zm-22.6 2.4l12.1-1.6v2.4l-10.5 2.5-1.6-0.8zm-65.6 8.9l21.8-4.1v3.2h-5.6l-4.1 4.1-8.9-0.8zm-27.5 6.5l21-5.7v4.9l-0.8 0.8-4.8 1.6-5.7 0.8h-1.6-8.1zm369.3 17.8l4-0.8v4l-1.6 1.6-2.4-0.8zm-461.7 7.3l7.3-2.4-0.8 3.2-5.6 0.8zm228.3 4.9l0.9-3.2 4-1.7 4.1 0.8 5.6 4.9h4.9l5.6 8.1 1.7 3.2 3.2-1.6-2.4-4.8-0.8-3.3 4.8-0.8 6.5 3.3h2.4v8l-2.4 5.7 4.9 0.8v-6.5l3.2-4h3.2l1.7 3.2 3.2-0.8 3.2 1.6v13l11.4 17.8-0.8 12.1-5.7 8.9-6.5 1.7h-3.2l-4.9-1.7-3.2-4.8-0.8-14.6-18.7-18.6-1.6-4h-4.8l-5.7-9.8-10.5-8-3.3-2.5v-0.8zm80.2 3.3l3.3-3.3h6.4l4.9 8.1v3.2 9.8l-6.5 0.8v-4.1l-4.8-1.6-3.3-4.9zm387.9 1.7l2.5-4.1 6.5 2.4 1.6 11.4h-6.5zm-76.9 6.4l3.2-0.8 8.9 4.1 5.7-1.6 1.6 3.2-0.8 13.8 4 1.6 3.3 6.5h4l6.5 6.4-1.6 4.1-4.1-0.8-1.6-2.5h-5.7l-4.8-12.1-4.1-1.6v-3.3h-3.2l-0.8-4-10.5-9.7zm55 9.7l-1.6-8.1h0.8l7.3 4v4.1l-3.2 1.6zm-255.1-1.6l3.2-5.7h0.8l4.9 9.7-5.7 4.1h-0.8zm272.1 7.3l-3.2-3.3-0.8-7.2h3.2 4l3.3 6.4-5.7 4.1zm-758-6.5l4.8-2.4v1.6l-3.2 1.6zm558 17l-4.9-2.4-2.4-12.2h8.9v4.9l-2.4 1.6zm-53.5-4.8l4.1-8.9 6.5 1.6 2.4 4-0.8 6.5h4l3.3 5.7 8.1 4-1.7 4.9h2.5l-5.7 4-8.9 0.8-1.6-7.3-5.7-2.4v-3.2-4.1zm-218.7 4.9l1.7-4.9h7.3l2.4 2.4 3.2 10.6-2.4 3.2h-12.2zm-87.4 76.1l5.6-0.8 5.7 2.4 2.4 4-0.8 4.1-9.7-1.6-5.7-5.7z"/>
		<path id="Path 39" class="s39" d="m498 336v-6.4h1.6 2.4v5.6 0.8zm-30.8 11.4l7.3-8.9 3.3 0.8v4.8l-1.6 2.5-8.1 1.6zm95.5 28.3v-1.6l3.3 1.6 1.6 4.8-5.7-0.8zm-118.2 4.1l2.4-3.3 4.9 2.5v3.2h4l-2.4 2.4 1.6 4.9-1.6 1.6-4.9-1.6-3.2-2.4zm-2.4 20.2l-3.3-1.6 0.8-4.1 4.1 0.8v4.9zm-16.2 9.7l4-0.8 7.3 0.8v4.1l-4.8 0.8-6.5-1.7zm-113.4 16.2l0.8-1.6h7.3l-1.6 5.7 6.4-0.8v4.8h-3.2l-1.6 4.1-7.3-2.5zm366.1 9.8v-3.3l24.3 2.4v2.5h-1.7-4.8l-0.8 4.8-8.1 1.6-6.5-3.2-0.8-0.8zm-454.4 5.7l3.3-2.5 4 0.8 0.8 5.7 13.8 11.3v11.4l-4 3.2 0.8 6.5 7.3 7.3-0.9 3.2-2.4 0.8 0.8 5.7-6.5-4.9v-2.4l-12.9-11.3-1.6-2.5 1.6-2.4-1.6-11.3h4l7.3 2.4-2.4-4.8-4.1-0.9-3.2-8.9v-4zm-26.7 8.9l4-2.4 0.8 3.2v2.4h-4.8zm299.6 13.8v-3.2l4.9 2.4-3.3 2.4zm-352.3 39.7l0.9-13h4.8l0.8 8.1-0.8 4.9-4.8 1.6zm110.1-0.8l3.2-1.6 2.5 4-0.8 0.8-4.9-1.6zm-106.9 5.7l4-1.7 3.3 0.8v2.5l-6.5 4-1.6-0.8zm107.7 4.1l5.7-1.7-3.3 7.3-3.2 0.8zm61.5 51.8h-5.6l-2.5-8.1h3.3l4.8 2.5zm-68-3.3h4.9l1.6-3.2 6.5 0.8h1.6v8.1l-1.6 4.8-5.7 3.3h-3.2l-5.7-2.4-0.8-9.8v-0.8zm-89.1 11.4l3.2-2.5h4.9l5.7 6.5-0.9 0.8-12.9-2.4zm18.6-1.6l4.1-0.8h8.1v8.9l-7.3 0.8-5.7-3.3z"/>
		<path id="Path 40" class="s40" d="m485.8 340.9l4.9 0.8 3.2-4.9 4.1-0.8h4l1.6 13.8-6.4 7.3-0.8-6.5-3.3 0.8 0.8-4.8-6.5 4-4.8-6.5zm1.6 44.5l0.8-4 8.9-9.7 3.3 0.8-0.8 4.8 3.2 1.7-7.3 2.4 0.8 4.8-2.4-1.6-3.3 1.6zm20.3-4l4.9-5.7 3.2 3.3 4.9 2.4-9 0.8zm19.5 2.4l7.3-7.3 1.6 4.1-2.4 2.4 1.6 2.4-4.1 1.7zm217.9 42.9l12.9-0.8-1.6 9.7h-7.3l-2.4-2.5-1.6-4zm-604.2 61.5l4.9-5.7h4.8v6.5 1.6h-4.8zm30.7 0.8l6.5-1.6 3.3 2.4v6.5l-6.5-0.8-3.3-0.8zm-83.4 26.7l-6.4-0.8 1.6-3.2h2.4 1.6l0.8 3.2zm10.6 5.7v-0.9h1.6l4.8 0.9v4.8l-1.6 6.5h-3.2l-1.6-2.4zm719.1 24.2l2.5-11.3 5.6-4.9h4.9v6.5 9.7l-5.7 3.3zm-570.9 4.8l2.4-2.4 6.5 1.6 1.6 4.1-1.6 4-1.7 3.2h-4.8zm-104.5 8.1v-3.2h4.1l6.4 6.5h8.1l2.5 3.2v4.9l-3.3 2.4-8.9-2.4-4-0.8-3.3-6.5zm63.2 17l1.6-3.3h3.3v5.7 1.6h-4.9z"/>
		<path id="Path 41" class="s41" d="m917.5 387l8.1-3.2-0.8 4-4.1 0.8zm-36.4 22.7l30.8-20.2 6.4 7.2 1.7 15.4-1.7 4.1-9.7 4-4-11.3-10.5 0.8v18.6l3.2 4.1-1.6 7.2-4.1 2.5-2.4 5.6-13 2.5-8.9-4.9h-8.9v-6.5l4.9-4-1.6-10.5 10.5-8.1 8.1-0.8zm-338.6 35.6l0.9-3.3h4.8l4.1 4.9v1.6h-3.3l-0.8-2.4zm229.2 8.1v-0.8l4.1 0.8-0.8 4.8h-3.3l-0.8-2.4zm86.7 90.6l1.6-1.6h8.1l3.2 3.2v8.1l3.3 1.7v8.1h-7.3l-8.9-15.4zm-140.1 85.8v-4.1h4l8.1 7.3z"/>
		<path id="Path 42" class="s42" d="m502.8 364.4l3.3-5.7 2.4 5.7v1.6l-4 2.4zm402.5 76.1l3.2-4.9h4.9l9.7 10.5v17l-4.9 1.6-4.8-1.6v-3.2l-6.5-4.1zm-17.8 85l8.9-1.6 0.8-10.5h11.3v8.9l3.3 1.6 2.4 12.9 5.7 4.1 1.6 4.8v10.6l-7.3 4.8-0.8 3.3-16.2-4.1-9.7-6.5h-9.7v-8.1l6.4-4v-9.7l3.3-0.8-0.8-4.9z"/>
		<path id="Path 43" class="s43" d="m920.7 388.6l4.1-0.8 3.2 4.9h4.1l0.8 30.7 1.6 9.7 3.2 3.3v31.5h-1.6l-6.5-4.8h-6.4v-17l-9.8-10.5h-4.8l-0.8-6.5 10.5-6.5v-6.5l1.6-4-1.6-15.4 3.2-1.6zm-4 80.1l-3.2-0.8v-4.8l4.8 1.6zm-715.9 14.5l2.4-14.5 5.7 2.4-3.3 12.1zm707.9 30l2.4-0.8 2.4-13-3.2-5.6v-7.3l6.5-5.7 3.2 3.3-1.6 5.6 6.5 21.9-1.6 6.4-11.4 5.7-3.2-1.6zm-701.4 59.1v-5.7h4.9l-1.6 5.7zm282.6 46.1l-4-19.4 6.4 0.8-0.8 5.6-2.4-0.8z"/>
		<path id="Path 44" class="s44" d="m297.9 424.2l9.8-0.8v2.5h-1.7l-7.3 0.8zm-13.7 1.6l4-0.8v2.4zm52.7 37.2l2.4-3.2h3.2l0.8 3.2 7.3 0.8h4.9 5.7l-0.8 6.5 2.4 3.2 4.8-4.8 3.3 2.4-1.6 8.9-6.5 8.9h-4.9-4l-2.5-4.8v-4.1l-2.4 0.8-5.7-0.8zm102.1 9.7l-1.6-11.3 7.3 1.6 0.8 4.9 3.2 1.6v8.1l3.3 4.8-1.7 1.7h-4.8zm-38.9-5.7l3.2-3.2 3.3 3.2v4l-6.5-3.2zm-108.5 5.7l8.1-0.8 3.2 8.9-1.6 3.2-5.7 1.6-1.6-1.6zm548.3 16.2l0.8-8.1h6.5l5.7 6.5-2.5 9.7 4.9 3.2v4.9h-6.5zm-43.7 21.8l-6.5-6.5h-4.1l-3.2-6.4-4-1.6 0.8-13.8 8.1 0.8 4.8 4.1v2.4h3.3l10.5 2.4 3.2 4.1 0.8 8-2.4 3.3 4.1 3.2v3.3l-1.7 0.8h-4.8l-4.9-4.9zm-319.1-25.9l5.7-0.8v2.4h2.4l5.7-2.4 3.2 4.9v10.5l4.1 4.8v4.9h-5.7l-4.8-8.1-9.8-5.7zm43.8 12.2h-4.9l0.8-4.9h2.4l2.5 4.1zm23.5 0v-4.9h9.7l8.1 1.6h0.8v4.1l-5.7 1.6-4-1.6-1.6 2.4h-1.7v-2.4zm-196 6.5l1.7-5.7 8.9 1.6 0.8 4.1v11.3l-7.3-1.6-0.8-8.1zm190.3-1.6l1.6-3.3h1.6l0.9 3.3-4.1 2.4zm278.6 12.9l4.1-1.6v-4l5.6 3.2 1.6 5.7 4.1 0.8v6.4l-1.6 4.1h-4.9l-7.3-6.5z"/>
		<path id="Path 45" class="s45" d="m932.1 392.7l4-3.3 3.3 3.3 0.8 15.4 4 12.9v10.5l-3.2 4.9h-3.3l-3.2-3.3-1.6-9.7zm-12.2 91.5h11.4l4.8-4.9v-11.3h1.7l7.2 8.1-4 7.3 0.8 8.9v1.6l-0.8 30.7-5.7 3.3v4.8l4.1 4.9h4l0.8 3.2 4.1 25.9-2.4 6.5-3.3 1.6-8.1-15.4-1.6-15.3-9.7-25.9 1.6-6.5-6.5-21.9zm-816.4 48.6l1.7-6.5 8.1 1.6 1.6 9.8 9.7 3.2 4.1 4.8-1.7 4.1-9.7-4.1-8.1-6.4zm60 37.2v-4.9l5.6 1.7-0.8 3.2zm47 2.4l1.6-5.6h4.9l6.4 5.6-0.8 6.5-5.6 1.6-0.8-2.4h-5.7zm293.2 10.5l13.7-0.8 0.8 2.4 9.8 0.8 9.7 4.1-1.6 8.1h-9.8l-3.2-4.9-16.2 0.8-3.2-2.4zm-21.1 7.3l0.8-2.4h0.8 9.7l4.9 5.6v4.1l-6.5 2.4-6.5-0.8zm454.4 11.3l7.3-0.8 0.8 5.7-5.7 3.2z"/>
		<path id="Path 46" class="s46" d="m756.3 435.6l1.6-9.7 6.5 1.6v12.1l-3.2 1.6-4.1-0.8zm162 29.2l4.9-1.7h6.5l6.4 4.9v11.3l-4.8 4.9h-11.4l-3.2-3.3v-12.1zm-6.5 59.1l11.4-5.7 9.7 25.9 1.6 15.4 8.1 15.4v8.9l-1.6 5.6 3.2 1.6v8.1 1.7l-7.3 0.8-7.3-8.1-3.2-8.9-6.5-4.1-1.6-7.3-4.9-3.2v-5.7l0.8-3.2 7.3-4.9v-10.5l-1.6-4.8-5.7-4.1zm-576.6 33.2l0.8-5.7h0.8l9.7 2.5-6.4 8.1h-4.9zm-11.3 29.9l8.1-1.6 6.4 8.1-4.8 0.8-2.4-2.4-12.2 2.4-24.3-3.2-0.8-4.1h7.3 9.7z"/>
		<path id="Path 47" class="s47" d="m464 389.4l2.4-1.6 4 0.8-3.2 7.3-4-0.8zm35.6 15.4l4.8-2.4 4.9 4-0.8 4h-8.9v-2.4zm8.1 34.8l2.4-10.5 7.3 2.4v4.9l-0.8 3.2-3.2 1.6zm-9 8.1l2.5-4h3.2v4h-4.8zm-125.6 13.8l0.8-8.1 4.1 3.2-0.8 5.7zm-270.5 19.4l3.2-3.2h1.6l3.3 3.2-2.5 4.1-4.8 0.8zm150.6 9.7l0.8-2.4 4.9-0.9 3.2 7.3zm-85 11.4l6.5-1.7h8.9v11.4l-2.5 2.4-6.4 0.8-7.3-2.4v-0.8l-2.5-6.5zm96.4 0l7.3 0.8v4.1l-6.5-0.9h-0.8zm20.3 17l-2.5-2.4 0.9-4 2.4 3.2zm-13.8-1.6l3.3 1.6 0.8-3.2 4 5.6-1.6 4.1h-2.4-0.8l-2.5-0.8z"/>
		<path id="Path 48" class="s48" d="m464 453.4l-1.7 2.4-5.6-0.8v-6.5l7.3 1.6zm94.7-1.6l3.3-2.4 4 3.2-1.6 5.7-5.7 0.8zm-12.1 12.1l-1.7-7.2 4.1-1.7 3.2 4.9zm-73.7 2.4l-1.6-2.4 1.6-5.7h4.9l1.6 3.3-1.6 4.8zm204.9 0.8l2.4-7.3 4.9 3.3-1.6 6.5zm-267.3 1.6l0.8-6.5 4.1 2.4-1.7 5.7zm7.3 6.5l2.5-4.1 2.4 6.5-3.2 0.8zm45.3 2.4v-3.2l5.7 1.6-1.6 2.4zm-335.3 21.1l8.9-3.3 2.4 0.9 1.6 8 2.5 5.7-1.7 2.4-5.6-0.8-3.3 2.5-0.8-1.7v-2.4h-2.4l0.8-3.2-2.4-1.6zm65.6 19.4l1.6-3.3h5.7l1.6 5.7-2.5-2.4h-5.6zm149 0l3.2-1.6 0.8 1.6-0.8 1.6z"/>
		<path id="Path 49" class="s49" d="m511.7 370.8l7.3-3.2 2.5 2.4v6.5l-5.7 2.4-3.2-3.2zm421.1 10.5l9.7-1.6 0.8 5.6 4.9 6.5 0.8 8.1 0.8 10.5 4.1 6.5 1.6 26.7v3.3l-4.9 4 0.8 10.5-2.4 14.6h-4.1l-7.2-8.1v-31.6h3.2l3.2-4.8v-10.5l-4-13-0.8-15.4-3.3-3.2zm-427.6 7.3l0.8-7.3h1.6l4.1 0.8v3.2zm436.5 105.2v-1.6h2.5zm-435.8 37.3v-6.5h4.1v4.8l-3.3 1.7zm-381.4 9.7l-9.7-3.3-1.7-9.7h6.5l5.7 5.7zm115.8 11.3l6.5-1.6 2.4 10.5-2.4 0.8-0.8 0.8-4.9 4.9-6.5-15.4zm80.2 2.4v-3.2h8.1 7.3l-0.8 5.7zm-184.7 1.6v-2.4l6.5 1.6v3.2zm47 13.8l3.2-13h4.9v6.5 5.7 0.8zm482.7 10.5l5.7-5.7 10.5 0.8v7.3l-2.4 4.1-4.9 0.8-2.4-3.3-4.9-0.8z"/>
		<path id="Path 50" class="s50" d="m443.7 395.1l4.9-5.7 4.8 1.7v4l-1.6 4.9 1.6 2.4-2.4 1.6h-4l-3.3-4zm52.7 10.5l2.4-2.4 0.8 1.6v3.2h-2.4zm242.9 22.7l5.7-1.7v2.5l-3.2 1.6h-1.7zm-485.9 2.4l6.5-0.8 3.2 2.4-9.7 3.3zm417.1 4l-8.1 2.5-7.3-6.5 15.4 0.8zm-366.9 23.5l0.8-1.7h4.1l0.8 7.3 4 5.7-0.8 7.3 2.5 1.6-8.1 3.2-4.1-0.8-3.2-8.9v-4l3.2 0.8 3.3-5.7zm-150.7 1.6l5.7-0.8 3.2 12.2v1.6h-5.6l-5.7-1.6v-8.1zm250.2 4l-0.8-4h6.5l2.4 2.4-0.8 6.5-1.6 2.4h-2.4v-4zm435.7-2.5l1.6-1.6 8.1 1.6 0.8 7.3-4 0.8-6.5-2.4zm-560.4 1.6v6.5h-4.9v-6.5zm506.2 1.6l3.2-0.8v2.4h-3.2zm-720 25.9l8.9-4 1.6 0.8-3.2 3.2-6.5 1.7zm24.3-2.5l4.9-0.8 3.2 0.8v2.5l-1.6 1.6-5.7 0.8-1.6-2.4zm169.2 12.9l-2.4-4 4.9 1.6 4 3.2v4.1l-0.8 0.8-3.2-1.6zm-52.7 79.3v-0.8h4.9l2.4 2.4v2.4l-6.5 0.8z"/>
		<path id="Path 51" class="s51" d="m474.5 338.5l5.7-5.7 0.8 3.2-0.8 1.6-2.5 1.7zm255.1 95.5l10.6-3.3h1.6l1.6 3.3v3.2l-8.9 3.2-4.9-4.8zm-575.8 45.3l2.4-6.5h5.7l3.3 3.3 8-0.8 2.5 2.4h6.5l4 6.5 0.8 4-5.7 1.6-3.2-2.4-6.5 1.6-8.1-8.1-10.5 1.6zm-26.7 34.8l2.4-4h2.4v2.4zm-40.5 12.2l4.1-4.9h4 4.1v8.9zm797.7 5.7l-2.4-5.7h4.9l0.8 4.9zm-53.5 13.7v-9.7h9.7l0.8 5.7-0.8 4zm-636.5 17.8v5.7h-3.3v-5.7z"/>
		<path id="Path 52" class="s52" d="m472.9 471.2v-4.9h4.8v3.3zm165.2 14.5l6.5-0.8h3.3l2.4 2.4 2.4 9.8 5.7 7.2v5.7l-12.2-1.6v-3.3l2.5-3.2h-4.1l-4.8-4-2.5-4.9zm44.6 6.5l11.3-4.9 8.1 3.3 4.1 5.6v12.2l-4.9 0.8v4.8l-4 4.1h-5.7l-7.3-0.8-4.9-2.5 1.7-5.6-6.5-4.1 0.8-4-2.4-0.8 1.6-7.3zm-161.2 4l2.4-3.2 9 0.8v3.2l3.2 0.9 0.8 0.8 1.6 3.2v2.4l-4 2.5-9.7-1.7-4.1-8.1zm309.4 0.9l0.8-4.1h0.8zm-87.5 3.2l0.8-6.4 12.2 1.6 3.2 14.6-4.8 1.6-8.1-8.1v-2.4zm-158.8 8l-6.4-2.4-1.7-7.3h1.7l6.4 5.7z"/>
		<path id="Path 53" class="s53" d="m354.6 417.8l32.4-3.3v3.3l-6.5 0.8h-3.2l-16.2 1.6-4.9-0.8h-1.6zm118.3 35.6l1.6-0.8 3.2 4v1.6h-4.8zm-321.6 4.1l7.3-2.4v3.2 0.8l-5.6 0.8zm585.5 13v-7.3h6.5l0.8 1.6-0.8 1.6h-3.2v4.1zm-430.1 11.3l8.1-3.2 1.6 0.8 9.7 1.6v4.8l3.3 1.7v1.6l-2.5 8.1 9 4 3.2 2.4h8.9l3.2 1.7 0.9 8.1h-0.9l-10.5-1.7-8.1 7.3-4.8-8.9-4.1-1.6-2.4 2.4-3.3-2.4-2.4-5.7-4-1.6-4.9-12.9v-2.5zm-33.2 6.5l1.6-5.6h6.5l2.4 4-2.4 4.9-6.5 0.8zm176.6-4.1l1.6-1.6 4.9 1.6v4.1h-4.1zm-92.3 8.1v-3.3h4.8zm35.7 0.8h-5.7l-0.8-4h4.8zm-308.5-1.6l3.2-0.8 1.6 2.4-0.8 3.2zm761.3 27.5l2.5-3.2v-10.5h6.4l0.8 10.5-5.6 4zm-709.5 18.7l0.8-2.5 3.3 0.8 4.8 4.1 6.5 7.3-0.8 3.2h-4.9l-5.6-6.5v-3.2zm16.2 38.8l-1.7-6.4 8.9 2.4v2.4z"/>
		<path id="Path 54" class="s54" d="m452.6 368.4l2.5-3.2 3.2 2.4-0.8 3.2-1.6 0.8zm270.5 64l5.6-1.6 0.8 3.2v1.6h-3.2zm-362.8 11.3l2.4-3.2h4.9v3.2l-3.3 5.7 6.5 0.8 3.2 0.8v2.4l-0.8 8.1-4 1.7-0.8 3.2h-1.6l-5.7-2.4h-5.7v-8.1h-4l-0.8 8.1-7.3-0.8-0.8-3.3 0.8-6.5 5.6-4 1.7-4.9h2.4l3.2 1.7zm115 1.6l4.1-1.6h4.8v5.6l0.8 6.5-2.4 0.8h-4.8l-3.3-4zm65.6 1.6l1.6-1.6 5.7 0.8 0.8 2.4v3.2h-8.1zm-101.2 2.5l4.8-0.8h1.7v9.7l-1.7 4.8-7.2-1.6-0.9-3.2zm266.5 8.1l1.6-4.9 2.4 4.1zm-100.4 0v-4.1h4.9l1.6 1.6v1.6zm198.4 0.9l5.7-0.9 0.8 2.5h3.2l0.9 1.6v4l-8.1-0.8-2.5-4.8zm-45.3 6.4l2.4-4.8h8.9l0.8 4.8zm125.5 22.7l-5.6-0.8 0.8-12.1h6.5zm-839.9 16.1l6.5-7.2 4.9-1.7 0.8 0.8-8.1 7.3zm843.1 6.5h-5.7l-2.4-2.4 0.8-8.9 4-1.6h4.9v4.8zm-56.7 19.4l1.6-4 8.1 4v6.5h-9.7zm-636.6 34l1.6-1.6 4.9 0.8 5.7 1.6 0.8 2.4v5.7l-1.6 3.2h-7.3l-0.8-5.6-3.3-0.8z"/>
		<path id="Path 55" class="s55" d="m477.7 466.3l1.6-4.8h3.3l1.6 6.4-0.8 4.9-5.7-3.2zm-182.2 19.4l5.7-1.6 1.6 2.4v2.4l4-0.8 4.9 13 4.1 1.6 2.4 5.6-0.8 2.5-11.4 5.6-2.4-0.8-1.6 2.4h-4.9l-4-3.2-7.3 0.8-2.4-3.2-8.1-17v-3.2l6.4-0.9 3.3 0.9 8.9 6.4 2.4-1.6-1.6-9.7zm34 1.6l1.6-3.2 5.7 1.6v2.4l-7.3 0.8zm-133.6 7.3l3.2-2.4 5.7 7.3v2.4l-10.5-0.8v-0.8zm-130.4 38l4-0.8 4.1 0.8h2.4l11.3 1.6v3.3l5.7 3.2h-2.4l-13 0.8-8.1-0.8-2.4-1.6 0.8-3.2-2.4-1.7zm3.2 23.5l3.2-3.2 7.3 0.8 6.5 1.6 3.3 3.2 8.9-0.8 8.9 1.6 8.1 0.9-1.7 6.4h-7.2l-1.7 3.3-25.1-7.3zm71.3 13.7l7.3-0.8 4 0.8 1.7 6.5-0.8 3.2-1.7 0.9-14.5-3.3v-5.6zm97.1 0.8l4.1-1.7 6.5 3.3 5.6 2.4-0.8 1.6h-12.9-4.9zm442.2 34l-4.8-6.5 6.4 4.9z"/>
		<path id="Path 56" class="s56" d="m483.4 367.6l3.2-7.3 0.8 2.4h4.9l-6.5 6.5zm13.8 4.1l1.6-2.5 4.9 0.8-3.3 2.5zm-12.9 72l1.6-4.9 7.3 2.5v5.6l-2.4 4.1-2.5-3.3-4 1.7zm-81.8-1.7l4.8-1.6h1.7l2.4 5.7-8.1 0.8-1.6-4.1zm261.6 12.2v-4.1h5.6l3.3 5.7-4.9 0.8zm53.5 0.8l9.7-4 3.2 5.6v4.9h-8.1l-4-3.2zm-24.3 14.5l3.2-5.6 3.3 4-3.3 3.2zm-542.6 3.3v-1.6l5.7 1.6-2.5 6.5-3.2-1.7zm735.4 1.7l1.6-3.3 5.7 2.4 2.4 4.9-1.6 18.6h-4.9-4.8v-9.7zm-681.2 25.1l0.8-0.8h3.3l4 7.3v4h-4l-4.1-8.1zm682.8 10.5l1.6-8.1h4.8l0.9 10.6 2.4 0.8-0.8 10.5-8.9 1.6zm-30.8 17.8l5.7-6.5h8.9l2.4 4.1 8.1 0.8 2.4 5.7v9.7l-6.4 4h-6.5l-3.3-3.2-1.6-6.5h-6.5l-3.2-2.4zm-16.2 1.6l3.2-1.6 5.7 0.8 0.8 5.7v6.4l-8.9 0.8-0.8-5.6z"/>
		<path id="Path 57" class="s57" d="m941.8 492.2l-0.8-8.9 4-7.3h4.1l1.6 14.6-6.5 1.6zm1.6 45.3h-4l-4.1-4.8v-4.9l5.7-3.2 3.3 2.4zm-788.9 9.7l4.1-3.2 6.5 5.7h12.9l6.5 2.4 1.6 4.8-3.2 13-4.1 0.8-9.7-4.1-5.7-1.6-2.4-3.2v-5.7zm-27.5 2.5l1.6-4.1h4.8l2.5 8.1v2.4h-2.5zm558.1 23.5v-5.7l8.9-3.2 1.6 2.4-1.6 4.1zm-200.9 14.5v-8.9l3.3-2.4 8.1 0.8 8.1 5.7v8.1l-4.9 2.4-4.9-5.7zm460 3.3l-3.2-1.6 1.6-5.7 4.9 0.8v4zm-171.7 35.7v-4.1l4.9 0.8-2.5 4.1h-0.8zm-244.6 43.7l9.7-11.4h8.1l0.9 3.3-1.7 4.8-8.1 5.7-4 2.4-4.9-0.8z"/>
		<path id="Path 58" class="s58" d="m477.7 339.3l2.5-1.7v5.7l-2.5 0.8zm15.4 12.2l3.3-0.8 0.8 6.4-4.9 5.7h-4.9l-0.8-2.4 1.7-4.9zm-17.9 8.9l1.7-0.8 4 1.6-2.4 4.1-2.5 3.2-4.8-0.8zm58.3 11.3l2.4-4 4.9-0.8-2.4 6.4-3.3 1.7zm-86.6 4.8l5.6-8.1 3.3 3.3-4.1 7.2zm30.8-4.8l2.4-1.6 1.6 6.4-0.8 1.7-6.4 0.8-8.1 5.6-3.3-0.8 2.5-6.4h8zm-3.2 12.9l5.7-0.8v1.6l-1.6 3.2-4.9 0.9zm56.7 2.4l4-1.6 3.3 1.6-4.9 4.8-4-0.8zm34 8.9l-4.9 0.8 4.1-4.8h4l-0.8 3.2zm-73.7 9.7h-2.4v-4.8l6.5-4.1 1.6 1.7 1.6 4.8-2.4 2.4zm-17-4l5.6-3.2 2.5 5.6-4.1 1.6-4-1.6zm43.7 0.8l0.8-1.6h2.4 0.9l-1.7 4.9h-2.4zm55.9 0.8l4.8-0.8 0.9 2.4-7.3 2.4-1.7-1.6zm-106 5.7l9.7-0.8 1.6 3.2v3.2h-11.3l-1.7-2.4zm54.3 0l5.7-0.8 1.6 0.8v2.4l-5.7 4.9-2.4-0.8zm-38.1 2.4l5.7-2.4h1.6l3.2 1.6 0.9 1.6-4.9 2.4h-6.5zm77 4.1l-7.3 2.4-0.8-2.4 5.6-2.4 2.5 0.8zm-60 3.2h5.7l-0.8-2.4 4.8-2.5 3.3 0.9 0.8 3.2-3.2 2.4 0.8 2.4 6.4-0.8 2.5-1.6h7.3l6.4 4.1 0.9 2.4h4.8v4 7.3l-2.4 7.3-4.9-4-3.2 0.8-4.9-4.9-8.1-0.8v-4.8l-7.3-2.5-8.1-1.6-1.6-6.5zm46.2 12.2v-3.3h1.6 10.5l1.6 9.7h-4zm-302.9 9.8v4.8l-4.9 1.6 0.9-8.1h1.6zm435.7 8.1l0.8-8.1 6.5 3.3-0.8 4.8zm-459.2-4.8l3.2-2.5 4.1 2.5v4h-4.9zm146.6 25.1l-4.9 4.9-2.4-3.3 0.8-6.4 5.7 2.4 0.8 1.6zm-113.4 0.8l5.7-0.8 0.8 8.9-3.3-0.8zm60.8 8.9l-2.5-1.6 0.9-7.3 5.6 3.2-2.4 6.5zm78.6-3.2l2.4-3.3 2.4 4.9-3.2 1.6zm-243 7.3v-4.9l3.3 1.6-0.9 3.3zm-75.3 4.8l3.3-1.6h4v4.9l2.4 0.8 4.1 4.8 0.8 4.1-0.8 4-3.3 1.7v5.6h-2.4l-5.6-4v-8.1l-4.9-4.1-0.8-4.8zm99.6 12.9v-4.8l6.5 0.8 1.6 0.8 0.8 3.2zm-130.4 3.3l4.1-0.8 4 6.4 0.8 8.1h-4l-4.9-1.6-3.2-5.7zm-4.9 34l10.5-1.6v8.9l-0.8 1.6z"/>
		<path id="Path 59" class="s59" d="m519 419.4l0.8-0.8 1.7 1.6-2.5 1.6zm55.9 11.3v-3.2l6.5 0.8-0.8 2.4-4.1 0.9zm-304.5 43.7v-4.9h3.3 4.8l9.7 1.6 3.3 1.6 2.4 11.4-0.8 1.6-7.3 0.8h-1.6l-2.4-4.1h-6.5l-1.6-3.2-0.9-4.8zm-138.4 84.1l1.6-2.4h2.4l6.5 2.4 1.6 4.1h-12.1zm-18.7 8.1l1.6-6.5h1.7l3.2 6.5-0.8 1.6zm70.5 12.9l7.2-0.8v7.3h-8.1z"/>
		<path id="Path 60" class="s60" d="m709.4 434.8v2.4h-6.5v-2.4zm-179 7.2l3.2-0.8 4.9 4.1 2.4 1.6v4.9l-4.8 1.6-6.5-1.6zm-271.3 5.6l0.8-1.6 5.6 2.4 0.9 9.7 5.6 1.7 1.6 3.2v6.5h-3.2l-9.7-2.5zm73.7 7.3l-0.8-6.5h4.8 3.3l3.2 4.9-0.8 6.5h-3.2l-2.5-4.9zm239-2.4v-4.1h4.8l0.8 4.1-3.2 2.4h-0.8zm-263.2 4.1l8.9-1.6 6.4 11.3-0.8 4-4 2.5-5.7-3.3-4-5.6zm-20.3 14.5v-4l5.7-4.1h4.9l0.8 4.9v4l-8.1 0.8zm-38.1 13.8l-7.3-7.3-0.8-6.5 4-3.2 8.1 1.6 3.3 7.3zm595.3-15.4l4-0.8 6.5 2.4v4.1l8.9 10.5 1.6 20.2-5.7 8.1-4.8 1.7-0.8-10.6v-4.8l-4.9-3.3 2.4-9.7-5.6-6.4zm-797.8 48.5l-3.2-2.4 4.9 1.6zm146.5 6.5v-1.6l5.7 2.4-0.8 1.6zm16.2 55v-1.6h5.7l0.8 2.4-4.1 1.7zm-9.7 6.4v-5.6h4.9l0.8 4.8-1.6 1.6z"/>
		<path id="Path 61" class="s61" d="m333.6 579.6l-1.7-12.9 3.3-4.9h4.8l-0.8 13zm332.9 5.6l0.8-1.6 4.9 0.8 2.4 3.3 4.9-0.9 11.3 10.6 0.8 6.4-0.8 0.8-4.9-2.4-8.1-10.5-9.7-4zm-162 68.7l-7.2-11.3-6.5-19.4 4 2.4 2.5 12.2 5.6 8zm0-19.4h3.3l1.6-3.2 11.3 26.7 0.8 7.3h-4l-10.5-20.3z"/>
		<path id="Path 62" class="s62" d="m764.4 439.6v-12.1l13 4.8 4.8 8.1-9.7 4.1zm-424.4 122.2l6.5-8.1h5.7l2.4 2.4-1.6 11.3 12.2 13-3.3 3.2-23.5 9.7-6.5-8.1 1.7-5.6 5.6-4.9zm158.8 31.6l4.8-2.5 3.3 2.5-2.5 5.6-5.6-1.6zm5.6 41.3l-10.5-21h8.9l4.1 4 2.4 13.8-1.6 3.2z"/>
		<path id="Path 63" class="s63" d="m897.3 432.3l-3.3-4v-18.6l10.5-0.8 4.1 11.3-4.9 8.9zm-783.9 61.5l2.4-4 17 0.8 4 4.8-8.9 3.3-2.4-3.3-11.3 0.8zm761.3 61.5l3.2-1.6h9.7l9.7 6.5-1.6 23.5 3.3 2.4 0.8 6.5-4.9 1.6-10.5-9.7h-4.9l-3.2-4.9-1.6-16.2zm-174.2 58.3l1.7-1.6 16.2 13.7v4.1l-8.1-4.1z"/>
		<path id="Path 64" class="s64" d="m502 329.6l4.1-0.9 1.6 2.5-5.7 4zm15.4 68l3.3-2.4 1.6 2.4-0.8 3.2h-2.5zm-33.2 20.3v-3.3h6.5l0.8 3.3h2.4v3.2zm47.8-0.8l6.5-0.8 1.6 2.4v4.1l-4.8 1.6-6.5-4.1zm259.2 38.1l11.3-0.8 1.6 4v1.6h-7.3l-5.6-2.4zm-683.6 22.7l4.9-6.5h0.8 3.2l1.6 3.2-4 6.5h-3.3zm-13.7 9.7v-7.3l4.8 0.8h4.1l0.8 4.9 4.9-0.8 1.6 8.9-2.5 8.9-5.6-4.1v-3.2l-4.9-4.9v-2.4zm157.1 11.3l-2.4-3.2h4.1l3.2 1.6 2.4 4.1-3.2 1.6-2.4-2.4zm19.4 58.2l2.4 1.6 17-4h6.5l0.8 0.8-10.5 4.1 11.3-1.7 11.4-1.6 2.4 8.1h5.7 0.8v5.7l-4.9 4.8-8.1-3.2-2.4 4.8-13-1.6-4.8-4.8-9.7 0.8h-4.9l-0.8-4.1h-5.7v-8.1zm30.8 30l1.6-5.7h8.1v5.7z"/>
		<path id="Path 65" class="s65" d="m897.3 432.3l6.4-3.2h4.1l0.8 6.5-3.3 4.8-9.7-0.8zm2.5 160.2l-0.8-6.4-3.3-2.5 1.6-23.4 16.2 4v5.7l4.9 3.2 1.6 7.3 6.5 4.1 3.2 8.9 7.3 8.1 2.4 8-16.2 0.9v-4.1l-7.2-4-4.9-4.9-7.3-0.8v-2.4zm-233.2-7.3l-5.7-4.9h4.9l1.6 3.3zm24.3 19.4l0.8-0.8h4l6.5 8.1-1.6 1.6-8.1-5.7z"/>
		<path id="Path 66" class="s66" d="m455.9 363.5l5.6-8.9h4.1l-0.8 4.9-5.7 5.7-0.8-2.5zm-19.4 27.6l8.1-11.4 0.8 7.3 3.2 2.4-4.9 5.7-4-0.8zm51-0.8l4.1-0.8v2.4 3.2l-3.3 1.7zm-36.4 13.7l2.4-1.6-1.6-2.4 1.6-4.9 4.1 0.8-0.8 5.7 3.2 0.8v2.4l-8.9 2.4zm42.9 17v-3.2l7.3 0.8-0.8 2.4zm86.6 9.8l0.9-2.5h4v1.6l-3.2 1.7zm92.3 4v-2.4h5.7v3.2h-4.9zm-228.4 28.3l1.6-4.8 4.1 0.8-1.6 5.7 3.2 1.6-3.2 3.2-3.3-1.6zm-358 21.8l2.5-4 4.8-0.8v7.3l-4.8 0.8zm214.6-0.8l1.6-3.3 4.1 0.8v4.1l-4.1 0.8zm-25.9 11.3l-4.9-1.6 3.3-5.7 1.6 4.1zm-179.8-3.2l1.6-1.7 4.9 4.9v3.2h-4.9-1.6zm68.8 13l-2.4-0.8v-3.3l3.3-0.8h3.2v1.6l-3.2 3.3zm-128 23.4l7.3 2.5 1.6-4.9 2.4 0.8 4.9 4.9-0.8 3.2-1.6 0.8-10.6 1.6-4-5.6v-3.3z"/>
		<path id="Path 67" class="s67" d="m426.7 403.2l2.4-3.2 4.9 0.8 3.2 5.6v3.3l-7.3-0.8zm-144.9 25.9v-3.3h2.4l4.1 1.6 2.4 1.7-0.8 1.6h-6.5zm259.2 1.6v-4.1h1.6l4.8 0.9v3.2zm20.3 6.5l-1.6-9.7h15.4v3.2l-6.5 4v2.5zm-462.5 38.8l5.7-1.6 1.6 3.2-3.2 3.3h-4.1zm-1.6 29.1v-6.5h4.9l5.6 4.1 5.7 4-3.2 3.3 8.1 4h8.9l4.8-1.6 0.8 1.6-9.7 2.4-12.9-0.8-0.8-2.4-6.5-0.8h-4.1zm43.8-0.8l4-0.8 0.8 1.6-0.8 1.6-1.6 3.2zm19.4 1.7l4.1-0.8h0.8l2.4 6.4-6.5-2.4zm109.4 6.5l-4.1-6.5 6.5 0.8zm33.2 63.9l2.4-4.8 8.1 3.2-2.4 6.5h-8.1z"/>
		<path id="Path 68" class="s68" d="m158.6 534.3l1.7-0.8 16.1 8.9 1.7 7.3h-13l-6.5-5.7zm392 116.5l3.3-25-3.3-3.3 1.6-12.1-2.4-1.6v-8.1h0.8l4.9 0.8 4.8 5.6-2.4 1.7v5.6l4.9 4.1 2.4 3.2-4.1 4.9 2.5 7.2h-4.1l-0.8 6.5-2.4 1.6 0.8 5.7-4.9 3.2z"/>
		<path id="Path 69" class="s69" d="m387 414.5l22.7-3.2v3.2l-4.1 1.6-10.5 1.7h-8.1zm128 3.2l-0.8-3.2h0.8l4.8 1.6v2.4l-0.8 0.8zm34 34v-3.2h3.3l1.6 2.4zm105.3 0.8l1.6-3.2 4.9 1.6v4l-2.5 1.7zm-380.6 2.4l4.9-1.6v9.7h-4.9l-1.6-3.3zm50.2 11.4h3.2l1.6-6.5h2.5l1.6 3.2h4l6.5 17-1.6 5.7h-4.9l-5.6-1.6-2.5-4.1-2.4 0.8-9.7-1.6 2.4-6.5 4.1-2.4zm-64 2.4l0.8-1.6 9.7 2.5v4.8l0.8 4.9-5.6 2.4-4.9-4.1zm-127.1 21.9l6.4-2.4h1.7l4.8 2.4-0.8 12.9-4 0.9-1.7-8.1-2.4-0.9zm-38.1 30.8l-0.8-3.2h3.3l1.6 2.4v0.8z"/>
		<path id="Path 70" class="s70" d="m234.8 501.9l6.4-2.4 2.5 2.4v5.7l-6.5 0.8zm-19.4 20.2l2.4-2.4 6.5 1.6 1.6 5.7-1.6 0.8-8.1 1.6-0.8-1.6zm76.1 2.4l3.2-1.6 3.3 2.4-0.8 5.7-0.9 2.4h-1.6l-0.8-5.6-2.4 4.8h-0.8zm375 64.8l-8.1-8.9h2.4l5.7 4.8 1.6 2.4zm-176.6 29.2l-0.8-13.8 2.4 0.8 2.5 8.1 10.5 21.1 2.4 10.5-4 0.8-5.7-8.1-2.4-12.1-4.1-2.5zm199.3-8.9l3.2-1.6 8.1 5.7 9.7 12.1 8.1 4.1 12.2 3.2h1.6l3.2 3.2 4.9 4.9v4l-9.7-2.4-4.9-3.2h-2.4v2.4l-20.3-17z"/>
		<path id="Path 71" class="s71" d="m521.5 415.3l2.4 0.8 5.7-4.8 2.4 1.6-2.4 4.1h2.4l-3.2 3.2h-7.3l-1.7-1.6v-2.5zm-213.8 8.1l5.7-0.8v1.6l-0.8 1.7h-4.9zm338.6 8.9v-2.5l6.4 0.9zm24.3 2.4v-3.3l2.5 0.9v2.4zm-96.4 20.2l3.2-2.4 7.3 3.2-3.2 0.8-1.6 4.9-4.1 0.8zm-96.4 3.2v-1.6h4.9v4.9h-3.2zm-67.3 10.5l3.3 1.6 1.6-5.7h7.3l6.5 0.8 2.4 5.7-1.6 3.3 1.6 1.6-3.2 3.2h-2.5l-3.2-1.6-2.4-6.5-2.5 4.1h-3.2l-3.3 4h-2.4v-8.1zm125.5 29.1l-3.2-0.8v-3.2h2.4zm307.8 22.7l2.4-1.7 4.1 0.9v8l-0.8 0.9-5.7-0.9zm-724 7.3v-3.2l3.2 0.8 11.3 6.5 3.3 3.2-0.8 2.4h-2.5l-4-4h-4.9zm-3.2 32.4l2.4-4.1 3.3 2.4h9.7v4.1l-0.8 4-3.3 3.3-8.1-3.3z"/>
		<path id="Path 72" class="s72" d="m540.1 484.1l4-8.9 3.3 0.8 3.2 8.1 4.1 2.5-0.8 5.6h-9.8zm270.5 11.3l4.1-8 3.2 1.6v5.6l-2.4 3.3zm-606.6 43.7l0.8-3.3h4.1l0.8 0.8-1.7 5.7z"/>
		<path id="Path 73" fill-rule="evenodd" class="s73" d="m491.5 408.9v-3.3h4.9l0.8 2.5-2.5 2.4zm-153.8 10.5l10.5-0.8v2.4l-10.5 0.8zm29.9 48.6l-0.8-1.6h1.6zm123.1-1.7h4.1l0.8 1.7 0.8 5.6 5.7 5.7 2.4 5.7 4.1-0.8 4.8 2.4v3.2l-1.6 15.4v3.2l4 0.8v8.1l-2.4 2.5h-8.9l-6.5-10.6v-4.8l-4-4.9v-10.5l-3.3-4.8-2.4-6.5v-4.1zm-128 22.7l6.5-8.9 1.6-8.9 10.6 8.1 5.6 9.7 0.9 4h5.6l18.6 18.7 0.9 14.5 3.2 4.9v4.8h-3.2v2.5l-1.7 1.6-4.8-2.5-1.6-6.4h-8.1l-3.3-4.9h-4l-2.5-2.4v-5.7l-4-1.6-0.8-4-3.3 0.8-4.8-1.6-3.3-10.6-2.4-2.4h-7.3l-2.4 0.8-8.9-1.6-2.4-9.7-5.7-2.4 1.6-5.7 5.7 0.8-0.8 4 3.2-0.8 2.4 4.9v4l4.1-0.8zm68.8-12.9l-1.6-1.6 1.6-3.3 2.5 2.5 4.8-0.9 6.5 11.4h4.9l2.4 4h4l6.5-0.8v-9.7l4.1 0.8 1.6-2.4h2.4l2.4 3.2 3.3 5.7 0.8 10.5 9.7 5.7 4.9 8.1-0.8 10.5h-1.7l-10.5-5.7-3.2-10.5-5.7-6.5-0.8-5.6-2.4 0.8 0.8 4.8 0.8 14.6 4 5.7-3.2 1.6v7.3l-4.1 2.4-10.5 1.6-1.6-2.4h-8.1l-2.4-5.7v-4.8l-2.5 1.6 0.8 3.2h-4.8l0.8-12.1-11.3-17.8v-13h2.4l1.6 4.1h3.2l1.7-2.5zm132 4.1l6.5-0.8 6.4 2.4 5.7 8.1-4 8.9h-1.7l-3.2-0.8-1.6-2.4-3.3-5.7zm192 3.2l1.6-2.4h2.4l10.6 9.7 0.8 4.1 1.6 4.8v6.5l-9.7 4h-3.3l-3.2-14.5-0.8-9.7zm76.9 9.7l5.7-4.1h1.6l8.9 16.2v10.5l-2.4 3.3-2.4 1.6-9.8-2.4-3.2-21.1zm-286.7 8.9l4-1.6h1.7l0.8 1.6-2.5 1.6zm-194.3 16.2v-4.8h0.8l7.3 1.6v6.5h-6.5zm-137.7 13.7v-4h1.6l0.8 1.6 4.1 2.4-2.4 4.1h-2.5z"/>
		<path id="Path 74" class="s74" d="m732 633l0.8-2.4h4.9l2.4 4.9-4.8 0.8z"/>
		<path id="Path 75" class="s75" d="m433.2 394.3l3.2-3.2 3.3 3.2-0.8 4 3.2 1.7v3.2l-4.9 3.2-3.2-5.6 1.6-5.7zm187.1 39.7l1.6-3.3h4.1l2.4 3.3v3.2l-5.7 3.2zm182.3 20.3l9.7-4.1v3.3l-2.5 4-5.6 0.8zm-27.6 4.1l0.8-4.9h7.3l1.7 1.6-4.9 5.7-1.6 0.8zm-291.6 14.6l0.8-4.9 5.7 0.8-1.6 4.9-4.1 0.8zm-212.2 6.5l-0.8-4.9h2.5l0.8 4.9zm77.7 1.6l2.4-0.8v4l-3.2 0.8zm-292.4 14.6l5.7-0.8 4.1 4.8v7.3l-4.9 1.6v6.5l-2.4 2.4h-1.7-4l-0.8-8.1-4.1-6.4z"/>
		<path id="Path 76" class="s76" d="m817.1 472.8l0.8-4.1 2.4 0.9 4.1 4 4-0.8 3.2 2.4-0.8 7.3h-3.2zm-608.2 25.9v-4.9h3.2l4.9 6.5v6.5l-4.1-0.8z"/>
		<path id="Path 77" fill-rule="evenodd" class="s77" d="m447 413.7v-9.7h4v3.2l8.9-2.4 1.6 1.6 0.8 8.1-4.8 3.3-5.7-1.7zm32.4 0.9v-3.3h4.9v6.5zm39.7 7.3l-6.5 0.8-0.8-2.4 3.2-2.5 4.1 1.6zm236.4 64l-2.4-2.4h2.4zm-502.9 9.7l-0.8-4.9h1.6l8.9 4.1-1.6 4-4.9-1.6zm-38.8 27.5l1.6-0.8v5.7h-1.6zm-177.4 5.6l3.2-4.8 5.7 2.4-1.6 4.8zm12.9 17.8l0.9-1.6h4.8l6.5 3.3-1.6 4z"/>
		<path id="Path 78" class="s78" d="m461.5 406.4l2.5-0.8h4v3.3l-1.6 3.2 1.6 2.4h-5.7zm-51.8 4.9l13-4.1 3.2 2.5v3.2l-8.1 1.6h-8.1zm175.8 18.6v-1.6h8.1v2.4l-5.7 0.9zm13.8 2.4l-1.7-4.1h10.6v2.5l-4.1 1.6zm-404.9 58.2v-3.2h4l0.8 4.9-3.2 2.4zm-30.8 6.5v-3.3h3.2l0.9 0.8 0.8 5.7h-3.3zm96.4 8.9l0.8-0.8 3.3 1.6 0.8 4.9zm-208.2 29.1l0.8-3.2 11.4 2.4-0.8 3.2h-4.9zm223.5 35.6l9.8-0.8 4.8 4.9v9.7l-4 0.8-2.5-4-5.6-2.5zm-102.1 6.5l0.8-0.8h4.1l5.6 3.2-0.8 6.5-9.7-1.6zm17.8 8.9v-7.3l4.9 0.8 4.9 0.8v5.7z"/>
		<path id="Path 79" fill-rule="evenodd" class="s79" d="m471.2 402.4l3.3-0.8v2.4l4 1.6 4.1-1.6 1.6 4.1 5.7 0.8-5.7 2.4h-4.9l-1.6-3.2-9.7 0.8v-3.3zm24.3 9.7l4.1-1.6h8.9l2.4 3.3-4.9 2.4 0.8 2.4h-5.6l-7.3-0.8h-2.4l-0.9-3.2zm-245.3 72.8l7.2-8.1 3.3 0.8 4.8 4.1 5.7-2.5h2.4l1.7 3.3-1.7 5.6-3.2 5.7 4.9 1.6 8.1 17-0.9 4.1 2.5 2.4h-4.9l-0.8 2.4-4-5.7-0.9 3.3-3.2-1.6-1.6-4.9 2.4-5.7v-4l-7.3-0.8-4-3.2 1.6-4.1-3.2-7.3-4.9 0.8-0.8 2.5h-1.6l-2.5-2.5zm35.7 1.7l7.3-0.9 1.6 1.7 1.6 9.7-2.4 1.6-8.9-6.5zm43.7 2.4l7.3-0.8 5.7 2.5v5.6l-4.9 0.8-1.6 4.1-8.9-4.1zm-78.6 11.4v-1.7l1.6 1.7zm-57.5 21l-0.8-3.2h1.6zm77 4.8l1.6-1.6 2.4 0.8-1.6 6.5-0.8 2.4-2.4-0.8zm8.9 0l-4.1-0.8h2.5zm-216.3 11.3l0.8-3.2h1.6l2.5 1.6-0.8 3.3zm-3.3 14.5l1.6-4h5.7l4.9 4.8-3.3 3.3zm68.1 17.8l3.2-3.3h8.1l0.8 3.3-4 1.6-8.1-0.8zm25.1 6.5l7.3-1.7 12.9 2.5v7.2l-8.1-0.8-2.4-0.8-5.7-0.8-4.8-2.4z"/>
		<path id="Path 80" class="s80" d="m539.3 484.9l0.8-0.8 4 8.1v4.9l-2.4 1.6h-1.6-3.3l-0.8-0.8-0.8-4.1zm-380.6 9.7l4.8-0.8v3.3h-4.8zm485.9 10.5l-4 0.8v-4h-3.3l-1.6-4.1h4.1l4.8 4.1zm-353.1 27.5l2.4-4.9 0.8 5.7z"/>
		<path id="Path 81" class="s81" d="m459.9 404.8v-2.4h2.4l1.7 3.2-2.5 0.8zm-123.1 83.4v-2.4h4.9l5.7 2.4 2.4 9.7-1.6 5.7h-8.9l-3.3-2.5 1.6-4 4.9-0.8v-5.7zm-84.2 17.8l-1.7-5.6h1.7l2.4 2.4v1.6zm-47.8 29.9l-1.6-4.8h4l1.7 4.8zm-77 34.8l8.1 0.9v5.6l-8.9-1.6zm78.6 14.6l6.5-0.8v4l-8.1-1.6z"/>
		<path id="Path 82" class="s82" d="m142.4 514.1l4.9-0.8 1.6 0.8-0.8 4-6.5 0.8-1.6-2.4zm724 62.3l0.9-12.9h7.2l1.7 16.1h-5.7zm34.8 25.9l2.4-5.6 7.3 0.8 4.9 4.8-0.8 6.5zm-166 34l4.8-0.8 7.3 3.2 5.7-1.6v8.9l-1.6 0.8 1.6 2.5-6.5 0.8v-0.8-5.7l-6.5-2.4z"/>
		<path id="Path 83" fill-rule="evenodd" class="s83" d="m772.5 444.5l9.7-4.1 3.3 6.5-2.4 6.5h-7.3l-4.1-0.8zm-32.4 25.9v-4.1h3.3l0.8 3.2zm-108.6-3.2l-1.6 5.7-4.8-0.8 4-4.9zm-163.6 30l-0.8-4.9 2.4-0.8 0.8 5.7zm105.3 0.8l-3.2 0.8 1.6-3.3zm-194.4 15.4l3.3-0.8 0.8 4-4.1 1.7zm-37.2 9.7l0.8-4.9 3.2 1.6-0.8 2.5z"/>
		<path id="Path 84" class="s84" d="m462.3 402.4l4.9-4.1 4 1.7v2.4l-3.2 3.2h-4zm-25.1 4.1l4.8-3.3v-3.2h1.6l3.3 4v9.8l-7.3 0.8-2.4-0.8v-4.1zm57.5 4.1l2.4-2.5h2.4v2.5l-4 1.6zm45.3 12.1v-4h3.3l-0.9 4zm-392.7 36.4l4-1.6 1.6 2.4-2.4 3.3-4.1-0.8zm-13.7 4.8l6.5-2.4 0.8 1.6-1.7 4.1-5.6 0.8zm82.6 65.5l8.1-1.6-1.6 4h-2.5zm73.7 55.1v-9.7l13 1.6v4.8l-1.6 5.7h-7.3zm-139.3-4l1.6-0.9 4.9 2.5z"/>
		<path id="Path 85" class="s85" d="m612.2 476l-3.3-2.4 2.5-5.7 3.2 2.5zm-75.3 8.1l3.2-11.4h1.6l2.5 2.5-4.1 8.9-0.8 0.8zm59.9-9.7l4.1-1.7 1.6 1.7-1.6 4.8zm-69.7 3.2l1.7-2.4h4l1.6 8.9-4.8 1.6zm-168.5 21.9l2.4-0.8-1.6 4.8z"/>
		<path id="Path 86" class="s86" d="m770.9 494.6h3.2v3.3l-1.6 1.6zm44.6 3.2l2.4-3.2 1.6 4-1.6 1.7zm-149 2.4h-4.1v-4.9l4.9 1.7zm-349.1 10.5l0.8-2.5 3.3 2.5-1.6 3.2zm222.7 7.3l0.8-4.9 3.2 0.8v2.5zm-98.8 4l-0.8-3.2 2.4-1.6v4.8zm42.2 2.5l-4.1 0.8-0.8-4.1h4zm147.4-1.6l4.1-0.8-2.4 3.2zm60.7 4.9l-0.8-2.4 2.4-1.7 2.5 1.7-1.7 2.4zm-278.6 10.5v-2.4h3.3l-0.8 3.2zm-85.1 8.1l2.5-0.8-1.7 3.2zm217.1 106.9l-2.4-4.1 3.2 2.4z"/>
		<path id="Path 87" class="s87" d="m182.9 497.1l4.1-0.8 2.4 4h4.9v0.8l-5.7 0.8v4.1h-2.4l-0.8 5.6h-1.7v-11.3zm58.4 70.4l4.8-4.8h0.8l0.8 9.7-6.4-3.3z"/>
		<path id="Path 88" class="s88" d="m753.1 483.3l-0.8-2.4h4.8l-1.6 2.4zm-584.7 17l-0.8-5.7h4l3.3 0.9v4.8l-6.5 1.6z"/>
		<path id="Path 89" class="s89" d="m326.3 480.9l2.4-0.8 2.4 4-1.6 3.3-3.2-1.7zm-44.6 10.6l2.5-4.9h1.6l-0.8 5.7zm76.1 0.8l-4 0.8v-4.1h4zm-55.9 25.9l1.6-2.4 2.5 0.8-0.8 4.9h-2.5zm613.1 90.6l0.8-6.5 7.3 4.1v4z"/>
		<path id="Path 90" class="s90" d="m519 492.2l0.8-3.2 4.1 4-2.4 3.3z"/>
		<path id="Path 91" class="s91" d="m428.3 479.3l3.3-3.3 3.2 4.9-1.6 2.4h-3.3zm-17 0v6.5l-4.8-0.8 2.4-5.7zm-108.5 7.3l4-0.8v2.4l-4 0.8z"/>
		<path id="Path 92" class="s92" d="m525.5 470.4l2.4-2.5h4.9v1.7l-4 3.2zm-51.9 8.9l7.3-0.8 1.6 5.7-5.6 0.8zm28.3 0h8.1l-1.6 4.8-4.1 0.8zm-175.7 48.6l0.8-4.9 3.2 2.5-0.8 2.4zm396.9 114.1v-2.4h2.4l4.9 3.2v1.6z"/>
		<path id="Path 93" class="s37" d="m543.3 407.2l5.7 2.5-8.1 2.4z"/>
		<path id="Path 94" class="s48" d="m664.8 466.3l4.1 3.3-3.3 4-2.4-3.2z"/>
		<path id="Path 95" class="s70" d="m242.9 530.3l4 0.8 0.8 4-3.2 4.1h-4.1l-1.6-4.1z"/>
		<path id="Path 96" class="s72" d="m414.6 494.6l3.2-2.4 4.9 1.6-0.9 11.4h-5.6l-3.3-3.3z"/>
		<path id="Path 97" class="s77" d="m123 497.1l1.6 0.8-2.4 2.4z"/>
		<path id="Path 98" class="s84" d="m246.1 561.8h0.8v0.8h-0.8z"/>
		<path id="Path 99" class="s86" d="m414.6 494.6l0.8-4.8 2.4 2.4zm183 1.6h3.3v4.1l-3.3 1.6z"/>
		<path id="Path 100" class="s93" d="m540.1 676.7h0.8v0.8h-0.8z"/>
	</g>
</svg>