<svg version="1.2" xmlns="http://www.w3.org/2000/svg" viewBox="0 0 1000 1000" width="1000" height="1000">
	<title>Splake</title>
	<style>
		.s0 { opacity: .2;fill: #6a686f } 
		.s1 { opacity: .3;fill: #beac49 } 
		.s2 { opacity: .2;fill: #a29074 } 
		.s3 { opacity: .5;fill: #736145 } 
		.s4 { opacity: 1;fill: #696049 } 
		.s5 { fill: #5a5543 } 
		.s6 { fill: #55503f } 
		.s7 { fill: #5e5a49 } 
		.s8 { opacity: 1;fill: #93754a } 
		.s9 { opacity: .7;fill: #9c7f49 } 
		.s10 { opacity: 1;fill: #4b4739 } 
		.s11 { fill: #6e6751 } 
		.s12 { fill: #4f4e42 } 
		.s13 { fill: #605d57 } 
		.s14 { fill: #807156 } 
		.s15 { fill: #57564f } 
		.s16 { opacity: .3;fill: #4c4537 } 
		.s17 { fill: #67635a } 
		.s18 { opacity: 1;fill: #494a4a } 
		.s19 { opacity: 1;fill: #4d5056 } 
		.s20 { opacity: 1;fill: #494b4c } 
		.s21 { opacity: 1;fill: #595b5f } 
		.s22 { opacity: 1;fill: #3d4149 } 
		.s23 { opacity: .4;fill: #987a44 } 
		.s24 { opacity: 1;fill: #6c503b } 
		.s25 { opacity: .3;fill: #768289 } 
		.s26 { opacity: .2;fill: #6c5e3f } 
		.s27 { opacity: 1;fill: #8e5d3d } 
		.s28 { fill: #524c3a } 
		.s29 { opacity: .4;fill: #65707a } 
		.s30 { opacity: .2;fill: #89919a } 
		.s31 { opacity: .7;fill: #6a7079 } 
		.s32 { opacity: 1;fill: #42423e } 
		.s33 { opacity: .6;fill: #4d4d4b } 
		.s34 { opacity: .5;fill: #5c5d59 } 
		.s35 { opacity: .3;fill: #a1afb7 } 
		.s36 { fill: #767977 } 
		.s37 { fill: #6b6a62 } 
		.s38 { fill: #99999b } 
		.s39 { fill: #8b8879 } 
		.s40 { opacity: .7;fill: #c0b6bb } 
		.s41 { fill: #7f8189 } 
		.s42 { opacity: .5;fill: #45403b } 
		.s43 { opacity: 1;fill: #646e74 } 
		.s44 { fill: #8d8f91 } 
		.s45 { fill: #a7a9ab } 
		.s46 { fill: #858480 } 
		.s47 { fill: #73726b } 
		.s48 { opacity: 1;fill: #433f34 } 
		.s49 { opacity: 1;fill: #363129 } 
		.s50 { opacity: .5;fill: #9ca4a6 } 
		.s51 { fill: #6e726d } 
		.s52 { opacity: 1;fill: #d6d3d5 } 
		.s53 { opacity: .8;fill: #5a5b5a } 
		.s54 { fill: #bfbebe } 
		.s55 { opacity: .8;fill: #7b8792 } 
		.s56 { fill: #7c7975 } 
		.s57 { fill: #807e6d } 
		.s58 { opacity: 1;fill: #3c2f1f } 
		.s59 { fill: #726e5c } 
		.s60 { fill: #787565 } 
		.s61 { opacity: 1;fill: #28211c } 
		.s62 { fill: #635641 } 
		.s63 { fill: #aeaaa1 } 
		.s64 { fill: #646455 } 
		.s65 { fill: #98958b } 
		.s66 { opacity: 1;fill: #191819 } 
		.s67 { fill: #626552 } 
		.s68 { fill: #8c8a66 } 
		.s69 { opacity: .7;fill: #36302a } 
		.s70 { fill: #8d9e53 } 
		.s71 { opacity: 1;fill: #c29766 } 
		.s72 { opacity: 1;fill: #776846 } 
		.s73 { opacity: 1;fill: #4d4334 } 
		.s74 { opacity: .5;fill: #5d4d38 } 
		.s75 { opacity: 1;fill: #7c4834 } 
		.s76 { opacity: 1;fill: #603428 } 
		.s77 { opacity: .2;fill: #c5cccd } 
		.s78 { fill: #5e6e52 } 
		.s79 { opacity: .8;fill: #4d4d48 } 
		.s80 { opacity: 1;fill: #332c39 } 
		.s81 { opacity: 1;fill: #cdac89 } 
		.s82 { opacity: 1;fill: #a09b82 } 
		.s83 { opacity: .3;fill: #35302e } 
		.s84 { opacity: .8;fill: #a1948f } 
		.s85 { opacity: 1;fill: #7c5342 } 
		.s86 { opacity: 1;fill: #568f82 } 
		.s87 { opacity: .7;fill: #3c9994 } 
	</style>
	<g id="Background">
		<path id="Path 0" class="s0" d="m864 489h1v1h-1z"/>
		<path id="Path 1" class="s1" d="m563 391h1v1h-1z"/>
		<path id="Path 2" class="s2" d="m506 339h1v1h-1z"/>
		<path id="Path 3" class="s3" d="m496 341l8-5v2z"/>
		<path id="Path 4" class="s0" d="m504 338v-2l2 3z"/>
		<path id="Path 5" class="s4" d="m496 341l8-3 2 1 1 1 9 10 1 1 4 5-2 9-1 4-5 2-4-1-9-4-8-11h-7l-1-4 6-6z"/>
		<path id="Path 6" class="s3" d="m482 351l8-6-6 6z"/>
		<path id="Path 7" class="s3" d="m472 359l10-8-3 4z"/>
		<path id="Path 8" class="s5" d="m479 355l3-4h2l1 4-2 1z"/>
		<path id="Path 9" class="s1" d="m521 356l-4-5 9 8z"/>
		<path id="Path 10" class="s6" d="m472 359l7-4 4 1v13h-12l-3-6z"/>
		<path id="Path 11" class="s7" d="m483 356l2-1h7l8 11 9 4v3l-2 2-20-2-4-4z"/>
		<path id="Path 12" class="s8" d="m519 365l2-9 5 3 3 6z"/>
		<path id="Path 13" class="s9" d="m529 365l-3-6 8 7v1z"/>
		<path id="Path 14" class="s10" d="m462 369l6-6 3 6v13h-2l-14-2v-2l3-4z"/>
		<path id="Path 15" class="s11" d="m513 371l5-2 1-4h10l5 2 2 3-3 2v7h-7l-1 4-5 2h-5l-2-12z"/>
		<path id="Path 16" class="s1" d="m534 367v-1l13 12-11-8z"/>
		<path id="Path 17" class="s12" d="m471 382v-13h12l4 4v7l-5 3z"/>
		<path id="Path 18" class="s13" d="m509 373v-3l4 1v2z"/>
		<path id="Path 19" class="s14" d="m533 379v-7l3-2 11 8 12 10 4 3 1 1v5l-8 4v-7l-11-1-3-5-6-2z"/>
		<path id="Path 20" class="s15" d="m487 380v-7l20 2 2-2h4l2 12z"/>
		<path id="Path 21" class="s16" d="m451 383l4-5v2z"/>
		<path id="Path 22" class="s17" d="m525 383l1-4h7l3 7-1 6h-5l-5-5z"/>
		<path id="Path 23" class="s18" d="m451 383l4-3 14 2v7l-6 8h-8-4v-4l-4-2 2-5z"/>
		<path id="Path 24" class="s19" d="m482 383l5-3 28 5h5l5 2 5 5h5l10 3 4 9-6 6-4 6 14 4 2 9 8 1 6 6v8l-18-1-10-2-1-3-7-2-2-5-5 4-5 2h-4l-8-4v-5l8-6v-10l-6-6-28-5z"/>
		<path id="Path 25" class="s20" d="m463 397l6-8v-7h2l11 1 1 18-15 2z"/>
		<path id="Path 26" class="s21" d="m520 385l5-2v4z"/>
		<path id="Path 27" class="s16" d="m445 392l4-6-2 5z"/>
		<path id="Path 28" class="s13" d="m535 392l1-6 6 2 3 5v2z"/>
		<path id="Path 29" class="s22" d="m445 392l2-1 4 2v4l-3 4-7-3v-1z"/>
		<path id="Path 30" class="s1" d="m564 397v-5l3 1v4z"/>
		<path id="Path 31" class="s15" d="m545 395v-2l11 1v7l-7 3z"/>
		<path id="Path 32" class="s20" d="m448 401l3-4h4v8l5 3v6l-9-2-3-7z"/>
		<path id="Path 33" class="s22" d="m460 414v-6l-5-3v-8h8l5 6 15-2 28 5 6 6v10l-8 6v5h-13l-5-3-4 2-5-5h-5l-8-1v-7l-6-1z"/>
		<path id="Path 34" class="s21" d="m439 400l2-2 7 3v4h-10l-1-3z"/>
		<path id="Path 35" class="s23" d="m880 400l13-2v1l-5 2h-8z"/>
		<path id="Path 36" class="s1" d="m893 399v-1l9 2-1 4-1-1-3-3z"/>
		<path id="Path 37" class="s24" d="m888 401l5-2 4 1 1 5-2 9-7-4z"/>
		<path id="Path 38" class="s25" d="m421 402l18-2-2 2-16 1z"/>
		<path id="Path 39" class="s26" d="m874 402l6-2v1l-2 1z"/>
		<path id="Path 40" class="s27" d="m898 405l-1-5 3 3z"/>
		<path id="Path 41" class="s28" d="m878 402l2-1h8l1 9 7 4-5 18-4-2-5-10z"/>
		<path id="Path 42" class="s29" d="m401 403l3-1h2v2l-7 1h-17v-1z"/>
		<path id="Path 43" class="s30" d="m406 404v-2h15v1z"/>
		<path id="Path 44" class="s22" d="m421 403l16-1 1 3h10l3 7h-4l-2 5-46-2v-10l7-1z"/>
		<path id="Path 45" class="s26" d="m864 404l8-2-4 2z"/>
		<path id="Path 46" class="s10" d="m868 404l4-2h2 4l4 18 5 10 4 2v2l-5 9-9-12z"/>
		<path id="Path 47" class="s9" d="m898 405l2-2 1 1-4 20-6 10v-2l5-18z"/>
		<path id="Path 48" class="s31" d="m370 405l3-1h9v1l-5 2h-8z"/>
		<path id="Path 49" class="s32" d="m859 406l4-2h1 4l9 27 9 12-5 8-3 4-4 5-3 4-4 5-1 1-4 5-3 3-11-12-11-49 3-3 9-4 6-2 3-2z"/>
		<path id="Path 50" class="s16" d="m866 469h1v1h-1z"/>
		<path id="Path 51" class="s29" d="m357 406l13-1-1 2-13 1z"/>
		<path id="Path 52" class="s20" d="m377 407l5-2h17v10l-15 2-1 13-14 1v-10l8-5z"/>
		<path id="Path 53" class="s29" d="m345 408l8-2 1 2-9 1z"/>
		<path id="Path 54" class="s30" d="m354 408l-1-2h4l-1 2z"/>
		<path id="Path 55" class="s26" d="m855 407l3-1-3 2z"/>
		<path id="Path 56" class="s22" d="m356 408l13-1h8v9l-8 5v10l-10 1h-15v4h-3l-17-2h-15l4-21 12-2 20-2 9-1z"/>
		<path id="Path 57" class="s16" d="m849 410l6-3v1z"/>
		<path id="Path 58" class="s31" d="m332 409l5-1h8v1l-20 2v-1z"/>
		<path id="Path 59" class="s25" d="m303 413l22-3v1l-12 2-10 1z"/>
		<path id="Path 60" class="s25" d="m553 420l-14-4 4-6-1 5 19 5v1z"/>
		<path id="Path 61" class="s16" d="m839 414l10-4-9 4z"/>
		<path id="Path 62" class="s19" d="m399 415l46 2 2-5h4l9 2 3 4 6 1v7l-1 5h-7l-8-1-9-1-3-4-5 2-4 2-28 2h-4v-3l-6 3h-3-7l-1-1 1-13z"/>
		<path id="Path 63" class="s0" d="m292 415l11-2v1l-11 2z"/>
		<path id="Path 64" class="s32" d="m303 414l10-1-4 21v1h-14v-6l-7-6v-5-1l4-1z"/>
		<path id="Path 65" class="s33" d="m821 423l18-9h1l-3 3z"/>
		<path id="Path 66" class="s25" d="m288 416l4-1v1l-4 1z"/>
		<path id="Path 67" class="s29" d="m271 419l17-3v1 1l-17 2z"/>
		<path id="Path 68" class="s18" d="m821 423l16-6 11 49 11 12 1 4 1 4-6 3h-6l-7-10v-7l-3-1-2-16v-5l-15-17h-8l-2-5z"/>
		<path id="Path 69" class="s12" d="m271 420l17-2v5l7 6v6l-14 4-8 2h-11l-9 4h-5l-11 9-9 3-3-2 1-22 38-11z"/>
		<path id="Path 70" class="s34" d="m264 420l7-1v1l-7 2z"/>
		<path id="Path 71" class="s29" d="m220 433l44-13v2l-38 11-6 1z"/>
		<path id="Path 72" class="s20" d="m569 444v-8l-6-6-8-1-2-9 8 1 3 1 12 3 4 20h-8z"/>
		<path id="Path 73" class="s35" d="m561 421v-1l3 1v1z"/>
		<path id="Path 74" class="s25" d="m564 422v-1l22 4v2l-10-2z"/>
		<path id="Path 75" class="s36" d="m436 427l5-2 3 4 9 1 1 5h5l-10 6-2-6-10-1z"/>
		<path id="Path 76" class="s18" d="m580 445l-4-20 10 2h2l13 3v20h-9z"/>
		<path id="Path 77" class="s30" d="m586 427v-2l2 1v1z"/>
		<path id="Path 78" class="s37" d="m468 431l1-5 8 1-1 6z"/>
		<path id="Path 79" class="s29" d="m588 427v-1l18 3v2l-5-1z"/>
		<path id="Path 80" class="s38" d="m432 429l4-2 1 7-4 1z"/>
		<path id="Path 81" class="s39" d="m476 433l1-6h5l5 5v7l-11-1z"/>
		<path id="Path 82" class="s40" d="m800 435l12-7 2 5-6 1-5 1z"/>
		<path id="Path 83" class="s41" d="m394 431l6-3v3l-2 2z"/>
		<path id="Path 84" class="s36" d="m404 431l28-2 1 6v4h-9l-6-4h-12z"/>
		<path id="Path 85" class="s30" d="m606 431v-2l4 2h-1z"/>
		<path id="Path 86" class="s42" d="m699 430l15-1 6 4 3 7v1l-3-2-4-7-7-1h-10z"/>
		<path id="Path 87" class="s43" d="m369 431l14-1 1 1 1 4-2 3h-14z"/>
		<path id="Path 88" class="s44" d="m384 431h7l-1 4h-5z"/>
		<path id="Path 89" class="s45" d="m459 435h-5l-1-5 8 1v4z"/>
		<path id="Path 90" class="s46" d="m487 432l4-2 5 3h13l8 4v5l-2 7-28-10z"/>
		<path id="Path 91" class="s12" d="m601 450v-20l5 1h3l4 2v17l-8 1z"/>
		<path id="Path 92" class="s23" d="m692 433l7-3v1z"/>
		<path id="Path 93" class="s47" d="m359 432l10-1v7l-9 1-1-2z"/>
		<path id="Path 94" class="s17" d="m385 435h5l1-4h3l4 2 2-2h4l2 4h12l6 4-1 12-4 7-1 4-2 1-6-1-2-4-29 2-6-3-6 2-10 2-1-3h-9l-8 5h-9l-21-22v-6-1h15l3 11 12 2 2-4h6 12l1-4 9-1h14z"/>
		<path id="Path 95" class="s38" d="m461 435v-4h7l8 2v5l-9 1z"/>
		<path id="Path 96" class="s21" d="m526 435l5-4 2 5z"/>
		<path id="Path 97" class="s29" d="m613 433l-4-2h1l12 2v1z"/>
		<path id="Path 98" class="s48" d="m692 433l7-2h10l2 10 9-2 3 2v10h-11l3 4v6h-4-15l-7-3v-11l2-12z"/>
		<path id="Path 99" class="s49" d="m720 439l-9 2-2-10 7 1z"/>
		<path id="Path 100" class="s36" d="m344 436v-4h15v5h-12z"/>
		<path id="Path 101" class="s50" d="m215 435l5-2v1l-3 1z"/>
		<path id="Path 102" class="s48" d="m220 434l6-1-1 22h-2-6-8l4-16 4-4z"/>
		<path id="Path 103" class="s32" d="m613 450v-17l9 1 7 1h3l16 2h22 15v8l4 2v11h-4l-8-2-14 2-4-4-42-4z"/>
		<path id="Path 104" class="s25" d="m622 434v-1l7 2z"/>
		<path id="Path 105" class="s34" d="m670 437l22-4-1 2-6 2z"/>
		<path id="Path 106" class="s20" d="m808 434l6-1h8l15 17v5l-11-5-7-9-10-2z"/>
		<path id="Path 107" class="s13" d="m341 443l-2 4-12-2-3-11 17 2z"/>
		<path id="Path 108" class="s51" d="m433 435l4-1 10 1 2 6-3 2v7l-6 1-7-8v-4z"/>
		<path id="Path 109" class="s52" d="m803 435l5-1 1 5h-4l-2-2z"/>
		<path id="Path 110" class="s53" d="m204 439l11-4h2l-4 4-9 1z"/>
		<path id="Path 111" class="s37" d="m281 439l14-4h14v6l21 22-2 4-9-1-6-1-2-6h-8l-3-6h-9l-10-8z"/>
		<path id="Path 112" class="s47" d="m449 441l10-6h2l6 4 9-1 11 1 28 10h8l2 4 6 2h10v5l4 2v7l3 2-1 19h-4l-4 7-10 2-2-8-17 2h-16l-4 4h-4l-3-6h-16-12l-1-5-5-3v-7l-6-5-4-8 1-12 6-1v-7z"/>
		<path id="Path 113" class="s46" d="m521 437l5-2 7 1 7 2 1 3-3 6h-15v-5z"/>
		<path id="Path 114" class="s15" d="m685 437l6-2-2 12-4-2z"/>
		<path id="Path 115" class="s18" d="m790 440l10-5h3v2l-7 7h5v3l-6 2-2-3z"/>
		<path id="Path 116" class="s21" d="m341 443v-7h3l3 1v6z"/>
		<path id="Path 117" class="s13" d="m347 443v-6h12l1 2-1 4z"/>
		<path id="Path 118" class="s38" d="m517 442v-5h4l2 5z"/>
		<path id="Path 119" class="s54" d="m801 444h-5l7-7 2 2z"/>
		<path id="Path 120" class="s55" d="m192 443l12-4v1l-9 5h-3z"/>
		<path id="Path 121" class="s49" d="m204 440l9-1-4 16-5 1-9-1v-10z"/>
		<path id="Path 122" class="s51" d="m273 441l8-2v6h-7z"/>
		<path id="Path 123" class="s37" d="m419 458l4-7 1-12h9v4l7 8-1 12-3 1-1 10v6l-6 3h-8l-6-11 1-9 2-1 4 4 3-1v-4z"/>
		<path id="Path 124" class="s15" d="m801 444l4-5h4l10 2 7 9 11 5 2 16h-2l-14-2-2-8-6-2-2-4-3-8h-9z"/>
		<path id="Path 125" class="s23" d="m723 441v-1l2 11h-2z"/>
		<path id="Path 126" class="s48" d="m774 447l16-7 3 6-4 3v6l-6 4h-4v-7z"/>
		<path id="Path 127" class="s56" d="m253 445l9-4h11l1 4 3 21-4 3-10-4-9 1z"/>
		<path id="Path 128" class="s36" d="m523 447h15l3-6 10 2v10l-10 2h-10l-6-2-2-4z"/>
		<path id="Path 129" class="s56" d="m515 449l2-7h6v5 2z"/>
		<path id="Path 130" class="s53" d="m167 453l25-10v2l-18 9-7 1z"/>
		<path id="Path 131" class="s57" d="m551 453v-10l18 1 3 1v7l-13 3z"/>
		<path id="Path 132" class="s58" d="m174 454l18-9h3v10l-4 1v3l-12 2h-4z"/>
		<path id="Path 133" class="s57" d="m237 454l11-9h5l1 21-1 1h-5l-2-6z"/>
		<path id="Path 134" class="s47" d="m277 466l-3-21h7l10 8v14h-13z"/>
		<path id="Path 135" class="s37" d="m572 452v-7h8l12 5 1 6 12-1 5 4 1 6-9 2-1 8 9 4 1 9-7 1-3 4-19-2-1-1v-10l2-8-4-3v-7z"/>
		<path id="Path 136" class="s36" d="m789 455v-6l4-3 2 3v4l-2 2z"/>
		<path id="Path 137" class="s12" d="m762 451l12-4 5 5v7l-4 4v6l-9 1-12-3-5-8v-4l6-2z"/>
		<path id="Path 138" class="s20" d="m795 449l6-2h9l3 8-16 2-2-4z"/>
		<path id="Path 139" class="s57" d="m605 455l-12 1-1-6h9l4 1z"/>
		<path id="Path 140" class="s44" d="m605 451l8-1-3 9-5-4z"/>
		<path id="Path 141" class="s59" d="m610 459l3-9h4v9l6 4v6h-9l-3-4z"/>
		<path id="Path 142" class="s60" d="m623 469v-6l-6-4v-9l42 4 4 4-4 9v22l-1 2-19-1v-6l-10-6z"/>
		<path id="Path 143" class="s34" d="m715 455l-3-4h11l4 2v2z"/>
		<path id="Path 144" class="s0" d="m754 453l8-2-7 2z"/>
		<path id="Path 145" class="s59" d="m559 455l13-3 7 10v7l4 3-2 8-15-8-7-9z"/>
		<path id="Path 146" class="s29" d="m124 478l16-12 27-13v2h-1l-7 4-17 10-10 6z"/>
		<path id="Path 147" class="s51" d="m291 467v-14h9l3 6v7z"/>
		<path id="Path 148" class="s60" d="m541 455l10-2 8 2v8l7 9 15 8v10l-8 3-9-4-17 1 1-19-3-2v-7l-4-2z"/>
		<path id="Path 149" class="s0" d="m727 455v-2h17v2h-1-13z"/>
		<path id="Path 150" class="s34" d="m744 455v-2h10 1l-6 2z"/>
		<path id="Path 151" class="s32" d="m793 455l2-2 2 4h-2z"/>
		<path id="Path 152" class="s61" d="m167 455l7-1 1 7-5 2-3 7-8 2-6 3-5 1-6-7 17-10 7-4z"/>
		<path id="Path 153" class="s60" d="m228 457l9-3 9 7 2 6 3 4 1 8-3 1-16-1-5-18z"/>
		<path id="Path 154" class="s48" d="m191 459v-3l4-1 9 1-1 5h-4z"/>
		<path id="Path 155" class="s12" d="m204 456l5-1h8v8l-4 3v11l-4 2-10-2v-16h4z"/>
		<path id="Path 156" class="s15" d="m217 463v-8h6v6l-2 2z"/>
		<path id="Path 157" class="s17" d="m223 461v-6h2l3 2v4z"/>
		<path id="Path 158" class="s62" d="m715 461v-6h12 3l1 7-3 3h-13z"/>
		<path id="Path 159" class="s5" d="m731 462l-1-7h13v4z"/>
		<path id="Path 160" class="s48" d="m743 459v-4h1 5v4z"/>
		<path id="Path 161" class="s15" d="m783 459l6-4h4l2 2v17l-3 3-9-2v-6z"/>
		<path id="Path 162" class="s19" d="m797 457l16-2 2 4 6 2 2 8v4h-7l-16 20-7-6-1-10 3-3v-17z"/>
		<path id="Path 163" class="s37" d="m663 458l14-2 8 2 6 10v6l5 8 9 3v8l-6 2-15-2-2 4h-15v-4l-8-4v-22z"/>
		<path id="Path 164" class="s44" d="m367 459l6-2 6 3v11h-5l-7-2z"/>
		<path id="Path 165" class="s46" d="m339 463l8-5h9l1 3-3 10-12 2z"/>
		<path id="Path 166" class="s46" d="m379 460l29-2 2 4 6 1-1 9h-4l-10 1-22-2z"/>
		<path id="Path 167" class="s63" d="m418 462l1-4 6 3v4l-3 1z"/>
		<path id="Path 168" class="s60" d="m691 468l-6-10h4l7 3h15v4z"/>
		<path id="Path 169" class="s32" d="m179 461l12-2 8 2v16l-12 1h-5l-3-4z"/>
		<path id="Path 170" class="s47" d="m303 466v-7h8l2 6v2z"/>
		<path id="Path 171" class="s38" d="m357 461l10-2v10 1l-13 1z"/>
		<path id="Path 172" class="s13" d="m731 462l12-3h6l5 8 12 3 3 15-2 2h-4l-5-8h-7l-5-4-15 2-20-2v-8l4-2h13z"/>
		<path id="Path 173" class="s60" d="m775 469v-6l4-4h4v10z"/>
		<path id="Path 174" class="s49" d="m167 470l3-7 5-2h4v13l-2 5-5 4h-3v-4l-5-4 5-3z"/>
		<path id="Path 175" class="s37" d="m221 463l2-2h5l5 18v2l-11 6-5-6v-4l4-2z"/>
		<path id="Path 176" class="s56" d="m711 465v-4h4v4l-4 2z"/>
		<path id="Path 177" class="s38" d="m330 463h9l3 10-1 4-5-1-4-4-4-5z"/>
		<path id="Path 178" class="s64" d="m213 477v-11l4-3h4v12l-4 2z"/>
		<path id="Path 179" class="s65" d="m435 474l1-10 3-1 4 8-3 2z"/>
		<path id="Path 180" class="s45" d="m254 466l9-1 10 4 3 2v7l3 3-2 8h-2l-11-11-5-7h-6v-4z"/>
		<path id="Path 181" class="s65" d="m313 467v-2l6 1-1 2z"/>
		<path id="Path 182" class="s17" d="m611 488l-1-9-9-4 1-8 9-2 3 4h9l6 9 10 6v6l-1 5-19-2-4-5z"/>
		<path id="Path 183" class="s59" d="m691 468l20-3v2 8l-6 10-9-3-5-8z"/>
		<path id="Path 184" class="s36" d="m273 469l4-3 1 1-2 4z"/>
		<path id="Path 185" class="s38" d="m291 467l12-1 10 1 5 1-1 8v8l-5 2v3h-1l-13-1-4 3-10-2-3 2-4-2 2-8-3-3v-7l2-4z"/>
		<path id="Path 186" class="s54" d="m318 468l1-2 9 1 4 5-10 1-2 3h-3z"/>
		<path id="Path 187" class="s63" d="m251 471l-3-4h5v4z"/>
		<path id="Path 188" class="s66" d="m132 475l10-6 6 7-11 6h-4z"/>
		<path id="Path 189" class="s39" d="m367 470v-1l7 2-1 3-2 1z"/>
		<path id="Path 190" class="s17" d="m766 470l9-1h8v6l-2 9 3 3-1 7h-5l-1-6-8-3z"/>
		<path id="Path 191" class="s13" d="m823 473v-4l14 2v8l-2 4h-8l-1-8z"/>
		<path id="Path 192" class="s46" d="m159 472l8-2 2 2-5 3h-5z"/>
		<path id="Path 193" class="s37" d="m354 471l13-1 4 5v6l-8 3v7l-20 2h-2v-16l1-4z"/>
		<path id="Path 194" class="s34" d="m862 475l4-5h1z"/>
		<path id="Path 195" class="s64" d="m252 479l-1-8h2 6l5 7-5 4z"/>
		<path id="Path 196" class="s13" d="m373 474l1-3h5l22 2 2 12-10 2h-12v-4l-4-2z"/>
		<path id="Path 197" class="s59" d="m440 473l3-2 6 5v7l-8-2z"/>
		<path id="Path 198" class="s19" d="m837 479v-8h2l3 1v7z"/>
		<path id="Path 199" class="s32" d="m153 475l6-3v3h5l5 4v4l-4 1-4 2-5-1z"/>
		<path id="Path 200" class="s46" d="m320 476l2-3 10-1 4 4-3 7-6 1-4-1z"/>
		<path id="Path 201" class="s15" d="m401 473l10-1 2 16v15h-10l-4-7-6-1v-8l10-2z"/>
		<path id="Path 202" class="s13" d="m413 488l-2-16h4l6 11-4 5z"/>
		<path id="Path 203" class="s15" d="m435 474l5-1 1 8 8 2 5 3 1 5h12v6l-6 2v6h-9l-1-4h-6-10-5l-1-18 6-3z"/>
		<path id="Path 204" class="s21" d="m800 493l16-20h7l3 2 1 8h8v12l-8 1v11h-4l-2 4h-16z"/>
		<path id="Path 205" class="s12" d="m177 479l2-5 3 4z"/>
		<path id="Path 206" class="s64" d="m371 475l2-1 4 7h-6z"/>
		<path id="Path 207" class="s61" d="m124 478l8-3 1 7-7 3-2 5-5 4v-4l-7 1-2-2 5-5z"/>
		<path id="Path 208" class="s15" d="m148 476l5-1 3 10 5 1 4 4 8 4 2 13-5 5h-5l-6-4 1-6 4 2v-4l-2-2-3 2-5-1-2-6h-9-5l-1-11z"/>
		<path id="Path 209" class="s17" d="m705 485l6-10 20 2 15-2 5 4h7l5 8-4 4 2 12v18h-8-6v-10l-4-6h-6l-7-8-25-4z"/>
		<path id="Path 210" class="s13" d="m784 487l-3-3 2-9 9 2 1 10z"/>
		<path id="Path 211" class="s34" d="m859 478l3-3-2 7z"/>
		<path id="Path 212" class="s39" d="m317 484v-8h3l3 7z"/>
		<path id="Path 213" class="s59" d="m327 484l6-1 3-7 5 1v16l-14 2z"/>
		<path id="Path 214" class="s39" d="m187 478l12-1 10 2 1 4h-11l4 10-15-7z"/>
		<path id="Path 215" class="s17" d="m209 479l4-2h4v4l-2 3-5-1z"/>
		<path id="Path 216" class="s56" d="m177 479l5-1h5l1 8 15 7-2 16 4 4v4h-6l-4-6h-7l-2 10 3 4v8l-3 1-5 1 2 4v5l-7 5h-3-2v-8l5 1v-5l-4-2-7-10v-13h5l5-5-2-13 3-9-4-2z"/>
		<path id="Path 217" class="s56" d="m259 482l5-4 11 11v5l-4 1-9-2-2-2z"/>
		<path id="Path 218" class="s46" d="m233 481v-2l16 1 1 7 10 4 2 2-1 7-9 5h-9l-2-4v-8l-5-2v-8z"/>
		<path id="Path 219" class="s44" d="m249 480l3-1 7 3 1 9-10-4z"/>
		<path id="Path 220" class="s15" d="m835 483l2-4h5l7 10h6v5l4 4-4 9 2 14-4 4v6h-22l-8-4-2-16 2-4h4l10-2-2-10z"/>
		<path id="Path 221" class="s45" d="m210 483l5 1 2-3 5 6v1l-5 2v3h-14l-4-10z"/>
		<path id="Path 222" class="s65" d="m222 487l11-6 3 2v8l5 2v8l-6 3-12-2v-7l2-4-3-3z"/>
		<path id="Path 223" class="s67" d="m363 491v-7l8-3h6l4 2v4l-9 6z"/>
		<path id="Path 224" class="s21" d="m124 490l2-5 7-3h4l1 11-1 3h-7z"/>
		<path id="Path 225" class="s0" d="m861 486l-1-4 2 4z"/>
		<path id="Path 226" class="s44" d="m165 484l4-1h3l4 2-3 9-8-4z"/>
		<path id="Path 227" class="s17" d="m317 484l6-1 4 1v11 6h-7l-5-6-3-6v-3z"/>
		<path id="Path 228" class="s7" d="m413 488h4l4-5h8l1 18-3 6h-10l-4-4z"/>
		<path id="Path 229" class="s34" d="m107 490l2-4 6-2-5 5z"/>
		<path id="Path 230" class="s41" d="m161 486l4-2v6z"/>
		<path id="Path 231" class="s64" d="m767 487l2-2 8 3 1 6h5v5l-6 6-8-2z"/>
		<path id="Path 232" class="s12" d="m855 489l6-3h1l2 2v1l1 1 2 4 17 23-3 1v13h-14l-3-8-7-2-2-14 4-9-4-4z"/>
		<path id="Path 233" class="s7" d="m363 491l9 2 9-6h12v8l6 1 4 7v6h-11l-5 4h-3l-3-6-18-2-20 2v-14z"/>
		<path id="Path 234" class="s37" d="m761 503l-2-12 4-4h4l2 16z"/>
		<path id="Path 235" class="s47" d="m783 494l1-7h9l7 6 5 18-2 14h-14l-28-2v-2-18h8l8 2 6-6z"/>
		<path id="Path 236" class="s54" d="m217 493v-3l5-2 3 3-2 4z"/>
		<path id="Path 237" class="s15" d="m294 491l4-3 13 1v6l-4 10-22 2-6-2v-6l-4-5v-5h2l4 2 3-2 1 6h6z"/>
		<path id="Path 238" class="s12" d="m582 491l19 2 3-4 7-1h4l4 5-1 6h-6l-1 6h-21l-3 5-17 3-2-2v-5l5-7h4z"/>
		<path id="Path 239" class="s48" d="m107 490l3-1 2 2-1 4h-4z"/>
		<path id="Path 240" class="s68" d="m294 491l-3 4h-6l-1-6z"/>
		<path id="Path 241" class="s67" d="m311 495v-6h1l3 6z"/>
		<path id="Path 242" class="s15" d="m547 490l17-1 9 4v6l-5 7-4-3-4 2-19-2-2-6 4-7z"/>
		<path id="Path 243" class="s7" d="m658 491l1-2 8 4v4l-7 1z"/>
		<path id="Path 244" class="s69" d="m99 500l2-6 6-4v5l-4 6-2 3h-2z"/>
		<path id="Path 245" class="s21" d="m112 491l7-1v4 7h-4-2l-2-6z"/>
		<path id="Path 246" class="s22" d="m119 494l5-4 6 6-3 5h-8z"/>
		<path id="Path 247" class="s7" d="m573 493l8-3 1 1-5 8h-4z"/>
		<path id="Path 248" class="s6" d="m638 495l1-5 19 1 2 7 7-1h15l3 15-2 3-15-4-18 2-9-1v-14z"/>
		<path id="Path 249" class="s0" d="m867 494l-2-4 3 4z"/>
		<path id="Path 250" class="s7" d="m467 497v-6h16l3 6v6h-13z"/>
		<path id="Path 251" class="s15" d="m510 493l17-2 2 8-6 6h-12z"/>
		<path id="Path 252" class="s46" d="m137 496l1-3h5v12h-4z"/>
		<path id="Path 253" class="s36" d="m143 505v-12h9l2 6-6 7h-5z"/>
		<path id="Path 254" class="s38" d="m205 513l-4-4 2-16h14l6 2v7l-4 11h-6z"/>
		<path id="Path 255" class="s37" d="m252 505l9-5 1-7 9 2 1 11-1 7h-7l-3 4h-4z"/>
		<path id="Path 256" class="s67" d="m327 495l14-2h2v14l-12 2-4-8z"/>
		<path id="Path 257" class="s7" d="m490 497l4-4h16l1 12h-6l-12-2z"/>
		<path id="Path 258" class="s28" d="m618 499l1-6 19 2 3 3v14 7l-7 4v3l-7 2-12-1-3-8h-12l-7 16v18l8 8h9l1 4-1 1-3 1h-1l-7 1-12 1v-4l-9-10h-9l-19-2-7 12-16 4 1-7 5-3-4-17v-5l-7-7 1-15 15-2 3 4 12 12h7l9-4 1-12 17-3 3-5h21 6z"/>
		<path id="Path 259" class="s5" d="m682 497l2-4 15 2v12l-14 5z"/>
		<path id="Path 260" class="s7" d="m699 495l6-2 25 4 7 8h6l4 6v10 6h-27l-13 2h-6-7l-2-3-9 1v-12l2-3 14-5z"/>
		<path id="Path 261" class="s13" d="m271 495l4-1 4 5v6l-7 1z"/>
		<path id="Path 262" class="s3" d="m884 517l-17-23h1l17 19 6 12z"/>
		<path id="Path 263" class="s51" d="m103 501l4-6h4l2 6z"/>
		<path id="Path 264" class="s7" d="m307 505l4-10h4l5 6h7l4 8-1 3-12 1-3-4h-6z"/>
		<path id="Path 265" class="s13" d="m827 507v-11l8-1 2 10z"/>
		<path id="Path 266" class="s56" d="m119 501h8l3-5h7l2 9-3 3-21 1v-8z"/>
		<path id="Path 267" class="s5" d="m461 505v-6l6-2 6 6h13 7l12 2-2 8-15 2-2 3h-6l-8-7h-9z"/>
		<path id="Path 268" class="s70" d="m486 503v-6h4l3 6z"/>
		<path id="Path 269" class="s12" d="m529 499l10-2 2 6v9l-3 1-15 2v-10z"/>
		<path id="Path 270" class="s71" d="m159 500l3-2 2 2v4l-4-2z"/>
		<path id="Path 271" class="s66" d="m148 506l6-7 5 1 1 2-1 6-6 2z"/>
		<path id="Path 272" class="s10" d="m611 505l1-6h6l-1 6z"/>
		<path id="Path 273" class="s30" d="m99 505v-5 4z"/>
		<path id="Path 274" class="s65" d="m101 504l2-3h10 2v8l-1 4-5-1-5-2z"/>
		<path id="Path 275" class="s47" d="m235 504l6-3 2 4-3 6h-5z"/>
		<path id="Path 276" class="s5" d="m413 503l4 4h10l3-6h5v8l-3 3-21 1-8-4v-6z"/>
		<path id="Path 277" class="s6" d="m403 509l8 4 21-1 3-3v-8h10v8 6l-5 1v5l3 1v3l-14 2-12-2-2 6-22 2v-9l-6-3v-8l5-4z"/>
		<path id="Path 278" class="s5" d="m445 509v-8h6l1 4-1 4z"/>
		<path id="Path 279" class="s14" d="m219 513l4-11 12 2v7z"/>
		<path id="Path 280" class="s6" d="m541 512v-9l19 2 1 4 7 2 2 2-1 12-9 4h-7l-12-12z"/>
		<path id="Path 281" class="s70" d="m560 505l4-2 4 3v5l-7-2z"/>
		<path id="Path 282" class="s31" d="m99 505v-1h2l3 6h-1l-4-1z"/>
		<path id="Path 283" class="s39" d="m115 509l21-1 3-3h4v1 11l4 6v5l-1 8h-2l-11-8-10-8-9-7z"/>
		<path id="Path 284" class="s13" d="m240 511l3-6h9l5 12v4l-2 4h-8l-2-9z"/>
		<path id="Path 285" class="s7" d="m272 506l7-1 6 2v9l10 6 4 11h-4l-12-5-5-11h-7v-4z"/>
		<path id="Path 286" class="s5" d="m285 507l22-2 2 4h6l3 4 12-1 1-3 12-2 20-2 18 2 3 6h3v8h-6l-6-6-12 2h-16l-9-2-7 3 1 21 11 7 1 7-2 7-2 1-9-4-2-16-7-8-18 1-5-1-4-11-10-6z"/>
		<path id="Path 287" class="s6" d="m451 509l1-4h9l2 6h9l8 7h6l2-3 15-2 2-8h6 12v10l-1 15 7 7v5h-7l-7-7h-8l-6-4-8 1-6 9-6 1v10l6 5 2 9h-8l-3-11h-9l-3-3-1-25-12-4z"/>
		<path id="Path 288" class="s57" d="m147 523l-4-6v-11h5l5 4 6-2 6 4v13z"/>
		<path id="Path 289" class="s12" d="m445 515v-6h6l2 14-10 2v-3z"/>
		<path id="Path 290" class="s25" d="m109 512l-6-2h1z"/>
		<path id="Path 291" class="s41" d="m189 525l-3-4 2-10h7l4 6v10h-2z"/>
		<path id="Path 292" class="s4" d="m219 513l16-2h5l5 5 2 9v4h-4l-9-2-7-8-8-2z"/>
		<path id="Path 293" class="s62" d="m641 512l9 1-1 6h-8z"/>
		<path id="Path 294" class="s4" d="m650 513l18-2 15 4v12 8l-6 1v9l-6 5-24 8h-11l-1-9 1-5 9-3v-5l-8-10h-3v-3l7-4h8z"/>
		<path id="Path 295" class="s7" d="m803 525l2-14h16l2 16-12 2h-7z"/>
		<path id="Path 296" class="s25" d="m123 520l-14-8 5 1z"/>
		<path id="Path 297" class="s72" d="m538 513l3-1v5z"/>
		<path id="Path 298" class="s51" d="m205 517v-4h8v4l-4 1z"/>
		<path id="Path 299" class="s17" d="m213 517v-4h6v4z"/>
		<path id="Path 300" class="s64" d="m261 517l3-4h7v4l-10 2z"/>
		<path id="Path 301" class="s6" d="m344 553l-1-7-11-7-1-21 7-3 9 2 2 36z"/>
		<path id="Path 302" class="s6" d="m363 517l12-2 6 6 4 12h-4l-11-8h-5z"/>
		<path id="Path 303" class="s8" d="m443 522l-3-1v-5l5-1z"/>
		<path id="Path 304" class="s6" d="m199 527v-10h6l4 1v9h-8z"/>
		<path id="Path 305" class="s62" d="m209 518l4-1h6l8 2 7 8 9 2 2 8v8l-3 2h-17v-7l-16-13z"/>
		<path id="Path 306" class="s68" d="m257 521v-4h4v2z"/>
		<path id="Path 307" class="s11" d="m261 519l10-2h7l5 11 12 5v11l-2 5h-10v-7l-12-9h-12l-4-2v-6l2-4z"/>
		<path id="Path 308" class="s12" d="m349 553l-2-36h16l2 8h5l11 8-3 26h-15l-2-6z"/>
		<path id="Path 309" class="s6" d="m881 531v-13l3-1 7 8 4 10-4 2h-6z"/>
		<path id="Path 310" class="s6" d="m610 561h-9l-8-8v-18l7-16h12l3 8v2h-10l-4 3 1 10 7 1z"/>
		<path id="Path 311" class="s12" d="m385 533l-4-12h6l6 3v9z"/>
		<path id="Path 312" class="s10" d="m747 527v-6h6v6z"/>
		<path id="Path 313" class="s28" d="m753 527v-6h8v2 6z"/>
		<path id="Path 314" class="s18" d="m853 531v-6l4-4 7 2 3 8v5l-8 7h-4z"/>
		<path id="Path 315" class="s46" d="m147 528v-5l18 2 7 10h-3v4h-3l-13-11z"/>
		<path id="Path 316" class="s28" d="m443 525l10-2 12 4 1 25 3 3h9l3 11-14 3-6-2v-6l-12-9-3-12-6-6-25-3 2-6 12 2z"/>
		<path id="Path 317" class="s10" d="m761 529v-6l28 2v11l-24-5-4-1z"/>
		<path id="Path 318" class="s60" d="m189 533v-8l8 2-1 6z"/>
		<path id="Path 319" class="s7" d="m247 529v-4h8v6h-6z"/>
		<path id="Path 320" class="s28" d="m789 536v-11h14l1 4-4 10h-4z"/>
		<path id="Path 321" class="s9" d="m895 535l-4-10 10 15 2 9v2l-5-10z"/>
		<path id="Path 322" class="s11" d="m627 528l7-2h3l8 10v5l-9 3-1 5h-7l-5-7-8-1 1-8h9z"/>
		<path id="Path 323" class="s6" d="m683 527l9-1 2 3-9 6h-2z"/>
		<path id="Path 324" class="s12" d="m196 533l1-6h2 2v10h-4z"/>
		<path id="Path 325" class="s73" d="m201 537v-10h8l16 13v7h-6l-12-2z"/>
		<path id="Path 326" class="s4" d="m615 529v-2l12 1-2 5h-9z"/>
		<path id="Path 327" class="s74" d="m707 529l13-2v1l-7 1z"/>
		<path id="Path 328" class="s16" d="m720 528v-1h27 6l8 2v1h-1z"/>
		<path id="Path 329" class="s12" d="m811 529l12-2 8 4h22l2 12-2 12h-1l-9-2-14-4-21-7z"/>
		<path id="Path 330" class="s2" d="m141 536l-8-8 11 8-3 1z"/>
		<path id="Path 331" class="s4" d="m146 536l1-8h6l13 11-6 4-3-3-4 1h-5z"/>
		<path id="Path 332" class="s12" d="m245 537l-2-8h4l2 2v6z"/>
		<path id="Path 333" class="s5" d="m609 543l-7-1-1-10 4-3h10l1 4-1 8z"/>
		<path id="Path 334" class="s75" d="m685 535l9-6h7l1 3 8 2-7 9h-18z"/>
		<path id="Path 335" class="s26" d="m710 534l-8-2-1-3h6 6l-5 2 9 4z"/>
		<path id="Path 336" class="s10" d="m800 539l4-10h7l-3 13z"/>
		<path id="Path 337" class="s0" d="m765 532l-5-2h1l4 1z"/>
		<path id="Path 338" class="s4" d="m249 537v-6h6l4 2-2 8h-6z"/>
		<path id="Path 339" class="s10" d="m393 533l22-2 25 3 6 6 3 12 12 9v6l-12 2-7-7-23-11h-20l-11 4-3 6-7-2 3-26h4z"/>
		<path id="Path 340" class="s5" d="m489 566l-2-9-6-5v-10l6-1 6-9 8-1 6 4-1 12-2 3-3 3v15z"/>
		<path id="Path 341" class="s26" d="m765 532v-1l24 5 7 3z"/>
		<path id="Path 342" class="s10" d="m867 536v-5h14l4 6 3 12 5 2v10h-2-1l-7-2-4-17-6-6z"/>
		<path id="Path 343" class="s62" d="m304 534l18-1 7 8 2 16h-8l-10-2v-6l-8-4z"/>
		<path id="Path 344" class="s32" d="m186 534l3-1h7l1 4h4l6 8 2 8v8l-17-4-4-2 1-12-3-4z"/>
		<path id="Path 345" class="s72" d="m257 541l2-8h12l12 9v7l-5 10h-7l-14-5-1-6z"/>
		<path id="Path 346" class="s4" d="m295 544v-11h4l5 1 1 11h-9z"/>
		<path id="Path 347" class="s49" d="m183 539l-2-4 5-1v5z"/>
		<path id="Path 348" class="s76" d="m703 543l7-9 7 1 4 2v6l-2 7-2 5-8-3z"/>
		<path id="Path 349" class="s54" d="m169 539v-4h3l4 2v5l-5-1z"/>
		<path id="Path 350" class="s62" d="m506 547l1-12h8l7 7h7l4 17-5 3-1 7-2 5h-9l-5-4-10-2v-15l3-3z"/>
		<path id="Path 351" class="s24" d="m677 545v-9l6-1h2v8 2z"/>
		<path id="Path 352" class="s24" d="m891 537l4-2 3 6h-5z"/>
		<path id="Path 353" class="s77" d="m122 541l19-5v1 1l-8 2-7 1z"/>
		<path id="Path 354" class="s78" d="m141 537l3-1h2l2 5-3 1-4-3v-1z"/>
		<path id="Path 355" class="s32" d="m855 543h4l8-7h6l6 6 4 17h-4-8-2l-16-4z"/>
		<path id="Path 356" class="s5" d="m245 545v-8h4l2 4h6l-1 7z"/>
		<path id="Path 357" class="s28" d="m893 561v-10l-5-2-3-12h6l2 4h5l5 10 2 4-3 6h-2z"/>
		<path id="Path 358" class="s63" d="m133 540l8-2v1l-2 2h-6z"/>
		<path id="Path 359" class="s76" d="m139 541l2-2 4 3-5 1z"/>
		<path id="Path 360" class="s60" d="m160 543l6-4h3l2 2v8h-11z"/>
		<path id="Path 361" class="s18" d="m176 549l7-5v-5h3l3 4-1 12h-3-2l-6-2z"/>
		<path id="Path 362" class="s45" d="m126 541l7-1v1l-1 4-6 2-1-4z"/>
		<path id="Path 363" class="s65" d="m153 541l4-1 3 3v6l-7 2z"/>
		<path id="Path 364" class="s35" d="m109 542l10-1v2h-6-4z"/>
		<path id="Path 365" class="s40" d="m119 543v-2h3 4l-1 2z"/>
		<path id="Path 366" class="s43" d="m132 545l1-4h6l1 2v1z"/>
		<path id="Path 367" class="s63" d="m145 542l3-1h5v10h-11l1-6-3-1v-1z"/>
		<path id="Path 368" class="s62" d="m609 543l6-2 8 1 5 7-1 10-1 1-6 4-3 1h-6l-1-4z"/>
		<path id="Path 369" class="s77" d="m93 546l9-4v1l-7 4h-2z"/>
		<path id="Path 370" class="s30" d="m102 543v-1h7v1h-6z"/>
		<path id="Path 371" class="s52" d="m95 547l7-4h1l1 4h9 13l6-2 8-1 3 1-1 6-11 2h-8l-18-1-9-1z"/>
		<path id="Path 372" class="s41" d="m113 547h-9l-1-4h6 4z"/>
		<path id="Path 373" class="s21" d="m113 547v-4h6 6l1 4z"/>
		<path id="Path 374" class="s58" d="m685 545v-2h18l6 9 8 3-5 14-12-2-13-15z"/>
		<path id="Path 375" class="s59" d="m293 549l2-5 1 1v4z"/>
		<path id="Path 376" class="s37" d="m209 553l-2-8 12 2v6z"/>
		<path id="Path 377" class="s12" d="m242 547l3-2 11 3 1 6-10 6-6-3z"/>
		<path id="Path 378" class="s24" d="m296 549v-4h9l8 4v6h-8-4z"/>
		<path id="Path 379" class="s61" d="m647 558l24-8 6-5h8l2 7 13 15 12 2-1 6-1 3-1 2-11 24-3-2v-12l-6-17-8-8-10-4h-11l-15 22-10-5-2-4z"/>
		<path id="Path 380" class="s50" d="m93 551v-4h2l1 4v2z"/>
		<path id="Path 381" class="s15" d="m219 553v-6h6 17l-1 10h-10-10z"/>
		<path id="Path 382" class="s32" d="m153 551l7-2h11 2v4l-12 2h-1-7z"/>
		<path id="Path 383" class="s49" d="m173 553v-4h3l1 4z"/>
		<path id="Path 384" class="s49" d="m271 559h7l5-10h10 3l5 6h4v4l-10 2-9 6-1 7-6-4h-7l-1-1z"/>
		<path id="Path 385" class="s24" d="m627 559l1-10h7l1 9-5 3z"/>
		<path id="Path 386" class="s1" d="m903 551v-2l2 6z"/>
		<path id="Path 387" class="s53" d="m96 553v-2l9 1v5z"/>
		<path id="Path 388" class="s12" d="m131 553l11-2h11v4l-4 2h-4-14z"/>
		<path id="Path 389" class="s48" d="m378 559l7 2 3-6 11-4h20l23 11 7 7 12-2 6 2v12l-3 2-5-5-9 1-68 2-10-1-13-1-3-8h-14l-2-10 2-1 21-1z"/>
		<path id="Path 390" class="s79" d="m105 557v-5l18 1v4l-4 1-11-1z"/>
		<path id="Path 391" class="s20" d="m123 557v-4h8v4z"/>
		<path id="Path 392" class="s16" d="m161 555l12-2h4l6 2z"/>
		<path id="Path 393" class="s48" d="m209 561v-8h10l2 4-1 4h-8z"/>
		<path id="Path 394" class="s10" d="m342 560l2-7h5 12l2 6z"/>
		<path id="Path 395" class="s73" d="m543 565l7-12 19 2v17l-4 1h-5-8-8z"/>
		<path id="Path 396" class="s48" d="m247 560l10-6 14 5v10h-4l-13-3-7-2z"/>
		<path id="Path 397" class="s16" d="m149 557l4-2h7z"/>
		<path id="Path 398" class="s34" d="m192 557l-7-2h3z"/>
		<path id="Path 399" class="s76" d="m305 559v-4h8l10 2 3 10z"/>
		<path id="Path 400" class="s10" d="m569 572v-17h9l9 10v4l-1 1z"/>
		<path id="Path 401" class="s42" d="m869 559h-10l-7-4h1z"/>
		<path id="Path 402" class="s1" d="m902 561l3-6 2 1v3z"/>
		<path id="Path 403" class="s16" d="m119 559l-11-2 11 1z"/>
		<path id="Path 404" class="s34" d="m119 558l4-1h8 14l-26 2z"/>
		<path id="Path 405" class="s32" d="m220 561l1-4h10v6l-10-1z"/>
		<path id="Path 406" class="s18" d="m231 563v-6h10l6 3v4h-9z"/>
		<path id="Path 407" class="s75" d="m326 567l-3-10h8l9 4 2 10-12-1z"/>
		<path id="Path 408" class="s80" d="m636 558h11l-14 16-8-7 2-4 4-2z"/>
		<path id="Path 409" class="s61" d="m285 574l1-7 9-6 10-2 21 8 4 3 2 12 8 9 10 5v4l1 8v1 1l-19-5-17-12-2-2 2-2-2-7-7-3-8 2-11-5z"/>
		<path id="Path 410" class="s81" d="m626 560l1-1 4 2-4 2z"/>
		<path id="Path 411" class="s26" d="m879 561l-8-2h8z"/>
		<path id="Path 412" class="s42" d="m879 561v-2h4l7 2z"/>
		<path id="Path 413" class="s82" d="m620 564l6-4 1 3-2 4h-4z"/>
		<path id="Path 414" class="s0" d="m221 563l-9-2h8l1 1z"/>
		<path id="Path 415" class="s66" d="m645 583l15-22h11l10 4 8 8 6 17v12l3 2v2l-2 4-2 1-5 1-14-5-15-13-6-4-4-1z"/>
		<path id="Path 416" class="s26" d="m900 561l-4 2-5-2h2z"/>
		<path id="Path 417" class="s16" d="m221 563v-1l10 1 7 1v1z"/>
		<path id="Path 418" class="s83" d="m238 565v-1h9l7 2v1z"/>
		<path id="Path 419" class="s84" d="m617 565l3-1 1 3h4l8 7 2 4-1 1-4-1-13-12z"/>
		<path id="Path 420" class="s10" d="m527 569l16-4 1 8-3 2h-1-13l-2-1z"/>
		<path id="Path 421" class="s29" d="m610 566l1-1h6v1l-7 1z"/>
		<path id="Path 422" class="s42" d="m254 567v-1l13 3h-1z"/>
		<path id="Path 423" class="s73" d="m467 569l14-3h8l12 2 10 2v5 6l-2 2-9 1-10-3-1-4h-7l-1 4h-6-8z"/>
		<path id="Path 424" class="s26" d="m607 567l3-1v1z"/>
		<path id="Path 425" class="s26" d="m599 568l7-1-7 2z"/>
		<path id="Path 426" class="s3" d="m587 569l12-1v1l-13 2v-1z"/>
		<path id="Path 427" class="s2" d="m272 570l-6-1h1 4z"/>
		<path id="Path 428" class="s29" d="m287 577l-8-7 6 4 2 2z"/>
		<path id="Path 429" class="s49" d="m350 596l-10-5-8-9-2-12 12 1h14l3 8h-5l-1 8v7z"/>
		<path id="Path 430" class="s28" d="m511 575v-5l5 4-1 1z"/>
		<path id="Path 431" class="s42" d="m569 572l17-2v1l-18 2h-3z"/>
		<path id="Path 432" class="s42" d="m541 575l3-2h8v2h-10z"/>
		<path id="Path 433" class="s83" d="m552 575v-2h8v2z"/>
		<path id="Path 434" class="s26" d="m560 575v-2h5 3z"/>
		<path id="Path 435" class="s27" d="m515 575l1-1h9l2 1v10l-4 2-8-6z"/>
		<path id="Path 436" class="s85" d="m511 581v-6h4v6z"/>
		<path id="Path 437" class="s8" d="m527 585v-10h13l1 12z"/>
		<path id="Path 438" class="s23" d="m541 587l-1-12h1 1l2 18h-1z"/>
		<path id="Path 439" class="s31" d="m287 577v-1l11 5v1 2h-2z"/>
		<path id="Path 440" class="s48" d="m481 581l1-4h7l1 4z"/>
		<path id="Path 441" class="s16" d="m450 579l9-1-1 2h-8z"/>
		<path id="Path 442" class="s50" d="m458 580l1-2 5 5 1 3h-1z"/>
		<path id="Path 443" class="s50" d="m639 586l-9-8 4 1 6 7z"/>
		<path id="Path 444" class="s65" d="m634 579l1-1 10 5 5 6-1 2h-1-1l-2-1-5-4z"/>
		<path id="Path 445" class="s66" d="m298 581l8-2 7 3 2 7-2 2-15-9z"/>
		<path id="Path 446" class="s2" d="m353 587l1-8v1z"/>
		<path id="Path 447" class="s83" d="m354 580v-1h5l13 1v1z"/>
		<path id="Path 448" class="s83" d="m382 581l68-2v1l-68 2z"/>
		<path id="Path 449" class="s16" d="m372 581v-1l10 1v1z"/>
		<path id="Path 450" class="s26" d="m698 604l11-24-3 13-8 13z"/>
		<path id="Path 451" class="s80" d="m464 583l3-2h8v12l-5-3-5-4z"/>
		<path id="Path 452" class="s49" d="m475 593v-12h6 9l10 3 3 14-3 15-7-6-7-1-5-7-3 1-2-2z"/>
		<path id="Path 453" class="s32" d="m509 583l2-2h4l8 6 2 8v4h-8v-5l-7-5z"/>
		<path id="Path 454" class="s43" d="m298 584v-2l15 9 2 2-1 2-4-1-3-2z"/>
		<path id="Path 455" class="s80" d="m500 584l9-1 1 6 7 5v5l1 7 11 13 14 2-1 10-1 1-5 1-5-2-22-10-9-8 3-15z"/>
		<path id="Path 456" class="s50" d="m306 592l-10-8h2l9 8z"/>
		<path id="Path 457" class="s85" d="m523 587l4-2 14 2 2 6v1l-18 1z"/>
		<path id="Path 458" class="s35" d="m480 604l-16-18h1l5 4 6 8 2 2 2 3z"/>
		<path id="Path 459" class="s30" d="m645 591l-6-5h1l5 4z"/>
		<path id="Path 460" class="s43" d="m649 591l1-2 4 1-1 4z"/>
		<path id="Path 461" class="s57" d="m476 598l-6-8 5 3z"/>
		<path id="Path 462" class="s35" d="m645 591v-1l2 1v1z"/>
		<path id="Path 463" class="s86" d="m653 594l1-4 6 4-2 3z"/>
		<path id="Path 464" class="s43" d="m647 591h1v1h-1z"/>
		<path id="Path 465" class="s50" d="m648 592v-1h1l4 3 5 3 2 3z"/>
		<path id="Path 466" class="s30" d="m310 594l-4-2h1z"/>
		<path id="Path 467" class="s86" d="m314 595l1-2 17 12 19 5v3l-10-2-4-1-5-2-4-2-12-8z"/>
		<path id="Path 468" class="s0" d="m543 594v-1h1l1 6-2-1z"/>
		<path id="Path 469" class="s35" d="m316 598l-6-4 4 1z"/>
		<path id="Path 470" class="s87" d="m350 596l3-2-1 6h-2z"/>
		<path id="Path 471" class="s18" d="m525 595l18-1v4 6l-14 1-4-6z"/>
		<path id="Path 472" class="s38" d="m658 597l2-3 15 13-5-1-3-2-3-2-4-2z"/>
		<path id="Path 473" class="s33" d="m543 604v-6l2 1v21h-2z"/>
		<path id="Path 474" class="s46" d="m478 600l3-1 5 7h-1l-5-3z"/>
		<path id="Path 475" class="s22" d="m543 621l-14-2-11-13-1-7h8l4 6 14-1v16z"/>
		<path id="Path 476" class="s0" d="m351 608l-1-8h2z"/>
		<path id="Path 477" class="s50" d="m480 604v-1l5 3 1 2h-1z"/>
		<path id="Path 478" class="s45" d="m486 608l-1-2h1l7 1 7 6 9 8 1 2-4-1-10-6-8-6z"/>
		<path id="Path 479" class="s2" d="m690 614l-20-8 5 1 14 5 1 1z"/>
		<path id="Path 480" class="s35" d="m488 610l-3-2h1z"/>
		<path id="Path 481" class="s0" d="m351 610v-1l1 5-11-2v-1l10 2z"/>
		<path id="Path 482" class="s30" d="m341 612l-4-2 4 1z"/>
		<path id="Path 483" class="s30" d="m694 611l2-1-3 6-3-2v-1l3 1z"/>
		<path id="Path 484" class="s19" d="m689 612l5-1-1 3-3-1z"/>
		<path id="Path 485" class="s77" d="m506 623l-10-7 10 6z"/>
		<path id="Path 486" class="s42" d="m543 621v-1h2v9l-3 2z"/>
		<path id="Path 487" class="s43" d="m510 623l-1-2 22 10h-1z"/>
		<path id="Path 488" class="s35" d="m506 623v-1l4 1 20 8 2 2v1z"/>
		<path id="Path 489" class="s55" d="m532 633l-2-2h1l5 2z"/>
		<path id="Path 490" class="s25" d="m536 633l5-1-2 3-7-1v-1z"/>
	</g>
</svg>