<svg version="1.2" xmlns="http://www.w3.org/2000/svg" viewBox="0 0 1000 1000" width="1000" height="1000">
	<title>Salvelinus_namaycush</title>
	<style>
		.s0 { opacity: .2;fill: #d4c3ae } 
		.s1 { opacity: .1;fill: #c6bcaa } 
		.s2 { opacity: .6;fill: #cbc0af } 
		.s3 { fill: #c9b790 } 
		.s4 { fill: #cbbb9a } 
		.s5 { opacity: 1;fill: #d2c29b } 
		.s6 { fill: #c8b384 } 
		.s7 { fill: #d0c4a8 } 
		.s8 { fill: #b7926c } 
		.s9 { fill: #c3ac7b } 
		.s10 { opacity: .9;fill: #ccc3b0 } 
		.s11 { fill: #ac865b } 
		.s12 { fill: #c5b594 } 
		.s13 { fill: #c2af8b } 
		.s14 { fill: #bc9d73 } 
		.s15 { fill: #cbbea3 } 
		.s16 { fill: #c0a47d } 
		.s17 { opacity: .2;fill: #e4ddcc } 
		.s18 { fill: #976c48 } 
		.s19 { fill: #785138 } 
		.s20 { fill: #896246 } 
		.s21 { fill: #634332 } 
		.s22 { fill: #b99664 } 
		.s23 { fill: #a07449 } 
		.s24 { fill: #83593d } 
		.s25 { fill: #bfaa91 } 
		.s26 { fill: #5f4737 } 
		.s27 { fill: #6d4a35 } 
		.s28 { fill: #a57e4e } 
		.s29 { fill: #6a4d3b } 
		.s30 { fill: #7e5c44 } 
		.s31 { fill: #b99c5d } 
		.s32 { fill: #ab8868 } 
		.s33 { fill: #af9471 } 
		.s34 { fill: #b69d7b } 
		.s35 { fill: #c7b79f } 
		.s36 { fill: #74543f } 
		.s37 { fill: #583f32 } 
		.s38 { fill: #c3a86e } 
		.s39 { fill: #8c6b50 } 
		.s40 { fill: #9e795a } 
		.s41 { fill: #be9f55 } 
		.s42 { fill: #a58965 } 
		.s43 { opacity: 1;fill: #cab269 } 
		.s44 { fill: #926540 } 
		.s45 { fill: #957456 } 
		.s46 { fill: #ae8c51 } 
		.s47 { fill: #bda685 } 
		.s48 { fill: #b19d81 } 
		.s49 { fill: #c8baa6 } 
		.s50 { fill: #c2af97 } 
		.s51 { fill: #a78068 } 
		.s52 { fill: #c4b29d } 
		.s53 { fill: #d8cfbf } 
		.s54 { fill: #c4b8a5 } 
		.s55 { fill: #b7a48c } 
		.s56 { fill: #ccc1ad } 
		.s57 { fill: #93795a } 
		.s58 { fill: #44342b } 
		.s59 { fill: #cec4b3 } 
		.s60 { fill: #d5cbb7 } 
		.s61 { fill: #d8cbb0 } 
		.s62 { fill: #d0be90 } 
		.s63 { fill: #d0c7ba } 
		.s64 { opacity: 1;fill: #dfd5c0 } 
		.s65 { fill: #dbd0b8 } 
		.s66 { opacity: 1;fill: #d1bc85 } 
		.s67 { fill: #e3dbc6 } 
		.s68 { opacity: 1;fill: #ebdac4 } 
		.s69 { opacity: 1;fill: #d1bf7b } 
		.s70 { opacity: 1;fill: #d8c9a3 } 
		.s71 { opacity: 1;fill: #f0e2c9 } 
		.s72 { opacity: 1;fill: #e8e4cd } 
		.s73 { opacity: .6;fill: #e6dbcb } 
		.s74 { opacity: .7;fill: #d1c4ae } 
		.s75 { opacity: .5;fill: #dae74f } 
		.s76 { opacity: .2;fill: #8bdad3 } 
		.s77 { opacity: .6;fill: #17e9e0 } 
		.s78 { opacity: .2;fill: #09dcc2 } 
	</style>
	<g id="Background">
		<path id="Path 0" class="s0" d="m510 337l3-3h11l2 3-7-1z"/>
		<path id="Path 1" class="s1" d="m975 379h1v1h-1z"/>
		<path id="Path 2" class="s2" d="m548 358h1v1h-1z"/>
		<path id="Path 3" class="s3" d="m510 337l9-1 6 13v6h-2l-14-3v-13z"/>
		<path id="Path 4" class="s4" d="m525 349l-6-13 7 1 2 1z"/>
		<path id="Path 5" class="s0" d="m507 339l3-2-1 2z"/>
		<path id="Path 6" class="s5" d="m525 349l3-11 20 20 1 1 1 1v2l-4 4h-7l-14-11z"/>
		<path id="Path 7" class="s4" d="m495 348l12-9h2v13l4 13 6 2 6 8-2 17v1l-6-3-2-7h-4v-12l-9-6v-8l-6-4z"/>
		<path id="Path 8" class="s3" d="m485 356l10-8 1 5 6 4v8l9 6v12l-2 5h-6l-4-18-10-4v-6z"/>
		<path id="Path 9" class="s6" d="m523 392l2-17-6-8-6-2-4-13 14 3v8l6 3 4 20-2 6z"/>
		<path id="Path 10" class="s7" d="m533 386l-4-20-6-3v-8h2l14 11h7l4-4 5 6v9l-2 9-6 2z"/>
		<path id="Path 11" class="s4" d="m480 361l5-5 4 4v6h-5z"/>
		<path id="Path 12" class="s2" d="m550 362v-2l7 8h-2z"/>
		<path id="Path 13" class="s8" d="m469 375l11-14 4 5-3 10z"/>
		<path id="Path 14" class="s9" d="m481 376l3-10h5l10 4 4 18v4h-4l-8-2v-5z"/>
		<path id="Path 15" class="s10" d="m555 377v-9h2l6 11z"/>
		<path id="Path 16" class="s11" d="m456 393l13-18 12 1 10 9v5l-5 2-12-2-2 7-5 2-8-2z"/>
		<path id="Path 17" class="s4" d="m553 386l2-9 8 2 12 26v1l2 4-1 2-19-1-2-6z"/>
		<path id="Path 18" class="s0" d="m574 405h1v1h-1z"/>
		<path id="Path 19" class="s12" d="m961 381l9-4 5 2 1 1v5 3 1 1 2 1 4l-1 2-6 29h-12v-4l-4-2z"/>
		<path id="Path 20" class="s13" d="m949 386l12-5-8 41h-7l-6 4-7 10-10-2 3-13-4-4 2-10 11-5 2-6h8l4-4z"/>
		<path id="Path 21" class="s14" d="m509 388l2-5h4l2 7 6 3 13 15 1 7h-9l-7-6-2-6-8-2-2-7z"/>
		<path id="Path 22" class="s1" d="m976 388v-3h1v3z"/>
		<path id="Path 23" class="s9" d="m523 392h8l2-6 14 2 2 17v5l6 2 2 10 10 7v3 4l1 4-3 1-11-6h-3l1 4-3 1-2-5v-5l-8-6-2-9-1-7-13-15z"/>
		<path id="Path 24" class="s15" d="m547 388l6-2 2 19h-6z"/>
		<path id="Path 25" class="s16" d="m937 392l12-6v6l-4 4h-8z"/>
		<path id="Path 26" class="s6" d="m503 392v-4h6v6z"/>
		<path id="Path 27" class="s17" d="m976 389h1v1h-1z"/>
		<path id="Path 28" class="s18" d="m472 397l2-7 12 2 5-2 8 2v7l6 12-1 19-8-2-1-10-5-2-5 2-10-4 4-12z"/>
		<path id="Path 29" class="s11" d="m505 411l-6-12v-7h4l6 2 2 7 8 2 2 6 7 6h9l2 9 8 6v5l-20-5-6-8h-5v-5z"/>
		<path id="Path 30" class="s14" d="m920 403l17-11v4l-2 6-11 5z"/>
		<path id="Path 31" class="s1" d="m976 392h1v1h-1z"/>
		<path id="Path 32" class="s19" d="m452 398l4-5 3 4 8 2v11l8 4 10 4v8l-4 1v6l-4 3-7-2-3-15-1-5h-9v-5l5-5h-6z"/>
		<path id="Path 33" class="s20" d="m467 399l5-2 7 5-4 12-8-4z"/>
		<path id="Path 34" class="s21" d="m444 409l8-11 4 6 1 5v5l-7 3-1 4-11 4-6-1v-3l7-5 7-2z"/>
		<path id="Path 35" class="s22" d="m456 404h6l-5 5z"/>
		<path id="Path 36" class="s8" d="m891 425l29-22 4 4-2 10-10 7-1 4h-8l-12-2z"/>
		<path id="Path 37" class="s6" d="m555 412l-6-2v-5h6l2 6z"/>
		<path id="Path 38" class="s11" d="m439 416l5-7 2 5z"/>
		<path id="Path 39" class="s2" d="m576 412l1-2 2 14-4 4z"/>
		<path id="Path 40" class="s23" d="m504 430l1-19 11 6v5l-1 10h-6z"/>
		<path id="Path 41" class="s12" d="m555 412l2-1 19 1-1 16-1 1-2 1-2 2h-3v-3l-10-7z"/>
		<path id="Path 42" class="s11" d="m449 421l1-4 7-3h9l1 5-9-1-1 3z"/>
		<path id="Path 43" class="s24" d="m485 418l5-2 5 2 1 10-11-2z"/>
		<path id="Path 44" class="s25" d="m911 428l1-4 10-7 4 4-3 13h-10z"/>
		<path id="Path 45" class="s21" d="m457 421l1-3 9 1 3 15 7 2 2 4v3l-10 3-1-8-4 4-5-6z"/>
		<path id="Path 46" class="s26" d="m420 423l12-2v3l-3 3 1 4-1 2h-5l-3-6z"/>
		<path id="Path 47" class="s27" d="m438 425l11-4h8l2 15h-11v-6l-3-1-5 12h-3l-1-2-1-4-6-2 1-2 7 1z"/>
		<path id="Path 48" class="s28" d="m515 432l1-10h5l6 8v1l-12 2z"/>
		<path id="Path 49" class="s3" d="m933 436l7-10 6-4h7l4 2v4 6l-8 2v6l-8 8v6l-8 14-1 13-7 6-4-3 2-24 9-11z"/>
		<path id="Path 50" class="s29" d="m361 424h24v6l-3 6 3 2v2l-5 1-5-2-2-6-4 2-8-4z"/>
		<path id="Path 51" class="s30" d="m385 424l7-1 1 12-8-5z"/>
		<path id="Path 52" class="s27" d="m393 435l-1-12h28l1 4-2 4-12 3-5 5-6-2h-1z"/>
		<path id="Path 53" class="s30" d="m345 425l8-1v3h-8z"/>
		<path id="Path 54" class="s11" d="m353 427v-3h8v7z"/>
		<path id="Path 55" class="s31" d="m430 431l-1-4 3-3 6 1-1 7z"/>
		<path id="Path 56" class="s6" d="m319 426l7-1 1 3-4 3-4-1z"/>
		<path id="Path 57" class="s20" d="m323 431l4-3-1-3h5v6l1 7h7v3 4l-5 1-3-3-4 1-4-2v-4l3-1-3-4z"/>
		<path id="Path 58" class="s30" d="m331 431v-6h8l2 4v5z"/>
		<path id="Path 59" class="s22" d="m341 429l-2-4h6v2z"/>
		<path id="Path 60" class="s32" d="m869 445l22-20v1l-4 5v6l10 30v11h-4l-13-5-2-12z"/>
		<path id="Path 61" class="s9" d="m298 427l6-1-1 4h-5z"/>
		<path id="Path 62" class="s30" d="m298 427v3h5l1-4h15v4l4 1v2l-2 4-5-1-4-4h-5l-8 3-4 6h-1l-5-4v-9z"/>
		<path id="Path 63" class="s27" d="m481 433v-6l4-1 11 2 8 2 5 2v2l-8 4-6-5h-5l1 4 9 3 5 2-1 7 4-1 4 2 1 3-1 3h-7l-5-5-5 3-2 1-4-3 2-4 3-4-5-2v3l-9 6-1-8v-3l5-1z"/>
		<path id="Path 64" class="s33" d="m897 478v-11l-10-30v-6l4-5 12 2 2 8-1 12 7 2 2 10v21l-5 3z"/>
		<path id="Path 65" class="s18" d="m341 429l4-2h8l8 4 8 4 1 5 1 4-6 6-5 1-7-3v-3l-3-10-9-1z"/>
		<path id="Path 66" class="s11" d="m419 431l2-4 3 6h5l6 2 1 4-9-1z"/>
		<path id="Path 67" class="s9" d="m277 429l5-1 2 4-4 6 3 2-1 3-11-5v-3h4z"/>
		<path id="Path 68" class="s20" d="m282 443l1-3-3-2 4-6-2-4h7v9l-2 5 3 6-1 1-5-1z"/>
		<path id="Path 69" class="s34" d="m905 436l-2-8h8l2 6-2 2z"/>
		<path id="Path 70" class="s35" d="m957 434v-6h12l-2 8z"/>
		<path id="Path 71" class="s36" d="m266 430l11-1-2 6h-4l-5-3z"/>
		<path id="Path 72" class="s31" d="m440 441l5-12 3 1v6l-4 5-2 2z"/>
		<path id="Path 73" class="s2" d="m572 430l2-1-1 1z"/>
		<path id="Path 74" class="s30" d="m253 431l13-1v2l-4 1v3l9 2 11 5 2 5-2 3h-3l-6-4-2 5-4-6h-4-4l-5-5 4-7-5-1z"/>
		<path id="Path 75" class="s9" d="m385 438l-3-2 3-6 8 5 2 2z"/>
		<path id="Path 76" class="s21" d="m527 431v-1l20 5 2 5v4h-4l-1 3-3 3h-6l-2-6v-7l-5-2z"/>
		<path id="Path 77" class="s17" d="m570 432l2-2h1z"/>
		<path id="Path 78" class="s20" d="m245 432l8-1v2l-3 4 3 4v5l5 4v4l-1 4-10-2 1-11h-3z"/>
		<path id="Path 79" class="s6" d="m339 438h-7l-1-7 10 3 9 1 3 10-5-3-1-3z"/>
		<path id="Path 80" class="s19" d="m402 439l5-5 12-3 8 7 9 1 1 2v4l-4 6-7-7-2-6-4 4h-6v-3l-5 1 2 5-5 2-2-2z"/>
		<path id="Path 81" class="s37" d="m515 433l12-2 1 4 5 2v7h-5-4l-1-4-5 1-3-2v-4z"/>
		<path id="Path 82" class="s36" d="m231 434l14-2v13l-4 4-10-10z"/>
		<path id="Path 83" class="s6" d="m271 438l-9-2v-3l4-1 5 3z"/>
		<path id="Path 84" class="s14" d="m295 441l4-6 8-3-6 10z"/>
		<path id="Path 85" class="s18" d="m301 442l6-10h5l4 4-1 7-4-3-6 3z"/>
		<path id="Path 86" class="s20" d="m509 434v-2h6v1 2z"/>
		<path id="Path 87" class="s17" d="m567 436v-4h3l3 5z"/>
		<path id="Path 88" class="s9" d="m253 441l-3-4 3-4 5 1-4 7z"/>
		<path id="Path 89" class="s14" d="m321 437l2-4 3 4-3 1v4h-2z"/>
		<path id="Path 90" class="s38" d="m369 435l4-2 2 6-5 1z"/>
		<path id="Path 91" class="s6" d="m477 436l4-3 3 6-5 1z"/>
		<path id="Path 92" class="s38" d="m500 440l-9-3-1-4h5l6 5z"/>
		<path id="Path 93" class="s19" d="m219 436l12-2v5l-1 3 6 8-5 2h-9l-4-6 1-7z"/>
		<path id="Path 94" class="s28" d="m501 438l8-4 6 1v4l-5 1-2 8-4 1 1-7-5-2z"/>
		<path id="Path 95" class="s12" d="m911 436l2-2h10l10 2-1 15-9 11-10-2-2-10z"/>
		<path id="Path 96" class="s4" d="m925 489l7-6 1-13 8-14v-6l8-8v-6l8-2 10 2-9 24-9 14h-7l-3 3-4 6v9l-10 2z"/>
		<path id="Path 97" class="s13" d="m316 436l5 1v5l-6 1z"/>
		<path id="Path 98" class="s27" d="m549 440l3-1-1-4h3l11 6v2l-14 1h-2z"/>
		<path id="Path 99" class="s27" d="m214 437l5-1v3l-5 3z"/>
		<path id="Path 100" class="s26" d="m444 441l4-5h11l5 6-2 4h-3l-5-4-7 2z"/>
		<path id="Path 101" class="s39" d="m568 440l-1-4 6 1v4h-3z"/>
		<path id="Path 102" class="s13" d="m911 450l-7-2 1-12h6z"/>
		<path id="Path 103" class="s19" d="m205 439l9-2v5l-1 4-2 1-6-1v-4z"/>
		<path id="Path 104" class="s9" d="m290 448l-3-6 2-5 5 4v6z"/>
		<path id="Path 105" class="s24" d="m385 438l10-1h1l-2 10-5 3-4-3v-7z"/>
		<path id="Path 106" class="s11" d="m394 447l2-10 6 2 2 6-8 2z"/>
		<path id="Path 107" class="s18" d="m573 441v-4l9 2-3 5z"/>
		<path id="Path 108" class="s40" d="m339 441v-3l8 1 1 3h-3z"/>
		<path id="Path 109" class="s31" d="m420 442l4-4 2 6h-5z"/>
		<path id="Path 110" class="s14" d="m464 442l4-4 1 8-2 4-5-4z"/>
		<path id="Path 111" class="s41" d="m582 439l7 1-8 9-2-5z"/>
		<path id="Path 112" class="s28" d="m201 440l4-1v3z"/>
		<path id="Path 113" class="s31" d="m214 442l5-3-1 7h-5z"/>
		<path id="Path 114" class="s42" d="m236 450l-6-8 1-3 10 10v3z"/>
		<path id="Path 115" class="s30" d="m370 440l5-1 5 2v4l-9-1z"/>
		<path id="Path 116" class="s11" d="m411 445l-2-5 5-1v3l-2 3z"/>
		<path id="Path 117" class="s21" d="m508 448l2-8 5-1 3 2 1 7-2 2h-5z"/>
		<path id="Path 118" class="s27" d="m193 442l8-2 4 2v4l1 7 5-6 2-1h5l4 6h9v6h-6l-9-3v5h5v4h-3v3h-3l-1-3-5 1h-2l-4-8-2-6-7-3z"/>
		<path id="Path 119" class="s13" d="m305 443l6-3 4 3 8 11-4 7h-3l-6-9h-4z"/>
		<path id="Path 120" class="s14" d="m380 441l5-1v7l4 3v12h-24l-2-6 2-6 6-6 9 1z"/>
		<path id="Path 121" class="s43" d="m518 441l5-1 1 4-1 4h-4z"/>
		<path id="Path 122" class="s38" d="m565 441l3-1 2 1 1 7h-4l-2-5z"/>
		<path id="Path 123" class="s24" d="m581 449l8-9h3v7l16 3 1 2-1 8-3 4-5 1v-5l-15-1z"/>
		<path id="Path 124" class="s38" d="m586 447h4l1 3-5 4z"/>
		<path id="Path 125" class="s28" d="m608 450l-16-3v-7l17 3 2 6z"/>
		<path id="Path 126" class="s14" d="m258 450l-5-4v-5h1l5 5z"/>
		<path id="Path 127" class="s40" d="m290 448l4-1v-6h1l6 1 4 1 1 9-2 6-9 2-7 3-5 1-3-4-1-9h3l6 5 1-7z"/>
		<path id="Path 128" class="s3" d="m339 445v-4l6 1v4z"/>
		<path id="Path 129" class="s29" d="m437 445v-4h3l2 2 2-2 3 3v4l-1 4-7-1 1-5z"/>
		<path id="Path 130" class="s44" d="m571 448l-1-7h3l6 3 2 5 4 10v2h-11l-1-3-2-5z"/>
		<path id="Path 131" class="s24" d="m174 447l19-5 1 6 1 4-1 2-8 2-2 4h-4l-4-8z"/>
		<path id="Path 132" class="s45" d="m315 443l6-1h2l4 2v9l-4 1z"/>
		<path id="Path 133" class="s28" d="m345 446v-4h3l5 3v3h-8z"/>
		<path id="Path 134" class="s36" d="m412 445l2-3h6l1 2-3 3-3 2z"/>
		<path id="Path 135" class="s31" d="m447 444l7-2 5 4v4l-12-2z"/>
		<path id="Path 136" class="s31" d="m489 445v-3l5 2-3 4z"/>
		<path id="Path 137" class="s9" d="m327 444l4-1 3 3v7h-7z"/>
		<path id="Path 138" class="s31" d="m469 446l10-3 1 8 3 11h-8l-1-6-1-4-6-2z"/>
		<path id="Path 139" class="s19" d="m551 444l14-1 2 5h4v5l-8 1-2 4-11 1-4-6 1-5z"/>
		<path id="Path 140" class="s43" d="m552 449l4 5-5 1z"/>
		<path id="Path 141" class="s19" d="m608 450l3-1-2-6 17 3-1 2-4 1v3l6 2 4 2v1l-7 5-2-3-3 1h-4v-6l-6-2z"/>
		<path id="Path 142" class="s11" d="m418 447l3-3h5l7 7v5l-7 1h-5z"/>
		<path id="Path 143" class="s18" d="m519 448h4l1-4h4l3 10v6l-4 2h-9l-6-6 1-3 4-3z"/>
		<path id="Path 144" class="s46" d="m531 454l-3-10h5l2 6z"/>
		<path id="Path 145" class="s41" d="m544 447l1-3h4 2l-4 4z"/>
		<path id="Path 146" class="s11" d="m241 449l4-4h3l-1 11 10 2 6 6v8l-9 2h-10l-1-9v-6l-4-1 2-6z"/>
		<path id="Path 147" class="s11" d="m334 446l5-1 6 1v2l-1 4-3 4-7-3z"/>
		<path id="Path 148" class="s30" d="m396 447l8-2 2 2-2 4h-5z"/>
		<path id="Path 149" class="s22" d="m406 447l5-2h1l3 4v5h-11v-3z"/>
		<path id="Path 150" class="s14" d="m433 451l4-6 3 1-1 5 7 1 2 3h7v6h-11l-11-5z"/>
		<path id="Path 151" class="s9" d="m480 451l9-6 2 3-2 4 4 3 1 4h4l1 9v2h-8l-3-6-5-2z"/>
		<path id="Path 152" class="s33" d="m862 451l7-6 9 16z"/>
		<path id="Path 153" class="s31" d="m211 447l-5 6-1-7z"/>
		<path id="Path 154" class="s40" d="m258 450l1-4h4v6l-5 2z"/>
		<path id="Path 155" class="s8" d="m263 452v-6h4l4 6v2z"/>
		<path id="Path 156" class="s24" d="m459 450v-4h3l5 4 6 2 1 4h-7l-8-3z"/>
		<path id="Path 157" class="s27" d="m625 448l1-2 24 4v6l5-2 2 10v2l-7-1v-2l-2-5-8-2-9-2-2-1z"/>
		<path id="Path 158" class="s46" d="m163 451l11-4 2 5-13 1z"/>
		<path id="Path 159" class="s47" d="m271 452l2-5 6 4 1 9-4 3-3-1-2-8z"/>
		<path id="Path 160" class="s13" d="m284 448l5 1-1 7-6-5z"/>
		<path id="Path 161" class="s8" d="m389 450l5-3h2l3 4h5v3 4h-4l-3 5-8-1z"/>
		<path id="Path 162" class="s16" d="m415 449l3-2 3 10-5 2-1-5z"/>
		<path id="Path 163" class="s31" d="m541 450l3-3 3 1-1 5h-5z"/>
		<path id="Path 164" class="s46" d="m195 452l-1-4 7 3 2 6h-2z"/>
		<path id="Path 165" class="s8" d="m344 452l1-4h8l7 3v5l-3 2-9-2z"/>
		<path id="Path 166" class="s44" d="m446 452l1-4 12 2v3l-4 2h-7z"/>
		<path id="Path 167" class="s38" d="m627 454l-6-2v-3l4-1 4 5z"/>
		<path id="Path 168" class="s9" d="m512 450h5l-4 3z"/>
		<path id="Path 169" class="s36" d="m231 452l5-2 5 2-2 6v1l-7 1-1-2z"/>
		<path id="Path 170" class="s12" d="m360 451l5-1-2 6h-3z"/>
		<path id="Path 171" class="s44" d="m531 454l4-4h6v3h5l4 6-3 2-16-1z"/>
		<path id="Path 172" class="s31" d="m655 454l-5 2v-6l5 1z"/>
		<path id="Path 173" class="s45" d="m740 452l13-2 1 2-1 16h-6z"/>
		<path id="Path 174" class="s19" d="m159 453l4-2v2l-2 1z"/>
		<path id="Path 175" class="s14" d="m495 454l5-3 5 5h7l6 6-7 1-4 5h-8l-1-9 1-4z"/>
		<path id="Path 176" class="s19" d="m655 454v-3l12 2-2 4 2 1v4l-1 1-9 1z"/>
		<path id="Path 177" class="s45" d="m852 459l10-8 16 10 2 12 13 5 3 15-3 5 8 2-1 8-4 1 1 8-3 3-1 8 7 2v2l-2 6 3 10h-9v-7l-8 1-1-17v-10l-3-2-2-17-3-2-4-6-3-8-13-5v-14z"/>
		<path id="Path 178" class="s27" d="m163 453l13-1 4 8 1 18-3 4h-5l-1-5-7-3v-6l-8-4v-6l4-4z"/>
		<path id="Path 179" class="s19" d="m194 454l1-2 6 5v9l6-1h2l6 2h3l4 3v2l-1 1-5-2-4 3 2 13h-8l-7 1-4-5-8-2-6-3-1-18h4l10-2z"/>
		<path id="Path 180" class="s48" d="m258 454l5-2 8 2 2 8-1 10h-9v-8l-6-6z"/>
		<path id="Path 181" class="s35" d="m304 458l2-6h4l6 9h3l4-7 4-1h7l7 3v5l-3 19-10 5-13-1-2-17z"/>
		<path id="Path 182" class="s12" d="m341 456l3-4 4 4-2 5h-5z"/>
		<path id="Path 183" class="s38" d="m608 460l1-8 6 2v6z"/>
		<path id="Path 184" class="s20" d="m733 456l7-4 7 16 2 4 4-1h5 8l8 3v2h-5l-1 10h-6l-2 3-7 1-9-2-2-5-2-6h-4l-6-3 4-7z"/>
		<path id="Path 185" class="s42" d="m753 468l1-16 6 4 4 11-6 4h-5z"/>
		<path id="Path 186" class="s28" d="m155 454l4-1 2 1-4 4z"/>
		<path id="Path 187" class="s16" d="m455 455l4-2 8 3 3 7-3 4-10 1-2-7z"/>
		<path id="Path 188" class="s6" d="m561 458l2-4 8-1 2 5z"/>
		<path id="Path 189" class="s31" d="m627 454l2-1 2 1v2z"/>
		<path id="Path 190" class="s16" d="m667 458l-2-1 2-4 6 1 1 5z"/>
		<path id="Path 191" class="s21" d="m147 458l8-4 2 4v6l-8-1z"/>
		<path id="Path 192" class="s31" d="m184 460l2-4 8-2v4z"/>
		<path id="Path 193" class="s34" d="m404 458v-4h11l1 5-3 5h-4z"/>
		<path id="Path 194" class="s42" d="m493 455l2-1 4 1-1 4h-4z"/>
		<path id="Path 195" class="s38" d="m631 456v-2l9 2v2l-9-1z"/>
		<path id="Path 196" class="s27" d="m674 459l-1-5 19 4v9l-2 5 2 1v2h-4l-7-9 1-5-8 1z"/>
		<path id="Path 197" class="s8" d="m221 460h-5v-5l9 3v2z"/>
		<path id="Path 198" class="s15" d="m341 461h5l2-5 9 2 3 7h5l7 10 17 1v4l-2 4-22 2-15-1-15 12v8l7 6 2 10 9 1 8 6v10l-12 1-7-9-7 2h-6l-4-1-8-11 2-29-4-3v-4l13 1 10-5z"/>
		<path id="Path 199" class="s13" d="m357 458l3-2h3l2 6v3h-5z"/>
		<path id="Path 200" class="s47" d="m426 457l7-1 11 5h11l2 7-3 5-7 1v-3l-11-9h-9z"/>
		<path id="Path 201" class="s34" d="m470 463l-3-7h7l1 6z"/>
		<path id="Path 202" class="s46" d="m640 458v-2l8 2 2 5z"/>
		<path id="Path 203" class="s36" d="m724 461l9-5 1 11-4 7h-4l-1-3z"/>
		<path id="Path 204" class="s22" d="m207 465l-6 1v-9h2z"/>
		<path id="Path 205" class="s25" d="m416 459l5-2h5l1 5h9l11 9v3l-4 4-17 4-6-5-1-7-6-2v-4z"/>
		<path id="Path 206" class="s24" d="m624 462l7-5 9 1 10 5v2l-6 3-1-4-6-1 1 6-8 1-6-4z"/>
		<path id="Path 207" class="s27" d="m116 470l31-12 2 5v13l-2 14 6 8h6v4l-2 2 2 5h-2l-3-2-3 3-4-1 2-8-4-1-2-8-3-1-6-2-1-1-1-6-13-3z"/>
		<path id="Path 208" class="s34" d="m225 460v-2h6l1 2-1 3z"/>
		<path id="Path 209" class="s25" d="m239 459v-1l4 1v6h-3z"/>
		<path id="Path 210" class="s25" d="m295 460l9-2 9 9 2 17v4h-9l-1-4v-7l-10-7z"/>
		<path id="Path 211" class="s35" d="m389 462l8 1 3-5h4l5 6h4v4 8l-11-2-9 2h-4l-17-1-7-10v-3z"/>
		<path id="Path 212" class="s8" d="m550 459l11-1h12l1 3-1 2-10 7-13-1-3-4v-4z"/>
		<path id="Path 213" class="s29" d="m667 462v-4l7 1v3l-3 4z"/>
		<path id="Path 214" class="s19" d="m692 467v-9l9 2-2 3 2 3 8 5v5l-4 2-7-3-1-2 1-5z"/>
		<path id="Path 215" class="s40" d="m232 460l7-1 1 6h3l1 9-1 6-4 2-4-1-5-9 1-9z"/>
		<path id="Path 216" class="s47" d="m585 461v-2l15 1v5l-1 7v10h-10l-7-10z"/>
		<path id="Path 217" class="s38" d="m619 460l3-1 2 3v4l-5-2z"/>
		<path id="Path 218" class="s11" d="m845 464l7-5 3 2v14h-2l-6-3z"/>
		<path id="Path 219" class="s24" d="m221 464v-4h4l6 3-1 9h-8v-2l2-5z"/>
		<path id="Path 220" class="s12" d="m276 463l4-3 3 4-5 2z"/>
		<path id="Path 221" class="s49" d="m288 463l7-3v10h-5z"/>
		<path id="Path 222" class="s33" d="m527 462l4-2 16 1v4l-4 5v6h-12z"/>
		<path id="Path 223" class="s40" d="m605 464l3-4h7 4v4l5 2 6 4-1 4h-13l-4-8h-5z"/>
		<path id="Path 224" class="s14" d="m709 471l-8-5-2-3 2-3h1l8 8z"/>
		<path id="Path 225" class="s24" d="m709 471l1-3-8-8 13 2v10l4 3v3l-10-2z"/>
		<path id="Path 226" class="s13" d="m908 484l5-3v-21l10 2-2 24 4 3v5l-1 1v2l-13 1-3-8z"/>
		<path id="Path 227" class="s15" d="m924 494h1v1h-1z"/>
		<path id="Path 228" class="s32" d="m573 463l1-2h11l-3 11h-5z"/>
		<path id="Path 229" class="s22" d="m674 462l8-1-1 5-4 6 6 1v5l-2 2-9-3-3-5-3-9 1-1 4 4z"/>
		<path id="Path 230" class="s19" d="m715 462l9-1 1 10-6 4-4-3z"/>
		<path id="Path 231" class="s49" d="m272 472l1-10 3 1 2 3-1 6z"/>
		<path id="Path 232" class="s50" d="m470 463l5-1h8l5 2 3 6-1 12h-4l-19-15z"/>
		<path id="Path 233" class="s48" d="m507 468l4-5 7-1h9l4 14-2 3-10-1-4-5h-6z"/>
		<path id="Path 234" class="s19" d="m149 476v-13l8 1 8 4v6l-5 2z"/>
		<path id="Path 235" class="s25" d="m283 464l5-1 2 7-3 5-8-1-2-2 1-6z"/>
		<path id="Path 236" class="s50" d="m563 470l10-7 4 9h5l7 10-4 6v8l-2 2h-16l-4-8z"/>
		<path id="Path 237" class="s47" d="m638 469l-1-6 6 1 1 4z"/>
		<path id="Path 238" class="s32" d="m657 464l9-1 3 9h-8l-4-6z"/>
		<path id="Path 239" class="s11" d="m209 465l5-1 1 3z"/>
		<path id="Path 240" class="s47" d="m218 467v-3h3l3 1-2 5z"/>
		<path id="Path 241" class="s51" d="m600 465l5-1 2 2-2 6h-6z"/>
		<path id="Path 242" class="s40" d="m837 470l8-6 2 8-5 2z"/>
		<path id="Path 243" class="s7" d="m543 470l4-5 3 4z"/>
		<path id="Path 244" class="s33" d="m644 468l6-3 7 1 4 6h8l3 5 9 3v4l-15 4h-13l-21-5-3-9 1-4 8-1z"/>
		<path id="Path 245" class="s33" d="m605 472l2-6h5l4 8-2 5-7 1z"/>
		<path id="Path 246" class="s44" d="m683 478v-5l-6-1 4-6 7 9-1 3z"/>
		<path id="Path 247" class="s52" d="m457 468l10-1 19 15v3h3l1-3 1-12h8l4 3 2 9 15 11 1 4-4 4v9l-4 4-29-6-1-4h-8-6l-5-6-8-2h-24l-6-7v-7l17-4 4-4 7-1z"/>
		<path id="Path 248" class="s9" d="m692 473l-2-1 2-5 6 1-1 5z"/>
		<path id="Path 249" class="s53" d="m758 471l6-4 2 4z"/>
		<path id="Path 250" class="s52" d="m413 476v-8l6 2 1 7z"/>
		<path id="Path 251" class="s25" d="m499 470v-2h8l2 5h6l4 5 10 1 4 4v11 3h-12l-1-4-15-11-2-9z"/>
		<path id="Path 252" class="s51" d="m753 471l-4 1-2-4h6z"/>
		<path id="Path 253" class="s25" d="m543 470l7-1 13 1v20l4 8-8 1-3-6-13-3v-14z"/>
		<path id="Path 254" class="s37" d="m91 479l25-9 3 9-2 5 6 4v9h-5l1 11-11-5v-3l-7-1h-4v-15z"/>
		<path id="Path 255" class="s50" d="m287 475l3-5h5l10 7v7l-12 2-6-2z"/>
		<path id="Path 256" class="s39" d="m829 474l8-4 5 4 5-2 6 3v13h-15l-7-2z"/>
		<path id="Path 257" class="s22" d="m214 487l-2-13 4-3 5 2v14z"/>
		<path id="Path 258" class="s9" d="m719 475l6-4 1 3-1 4h-6z"/>
		<path id="Path 259" class="s33" d="m221 473l1-1h8l5 9 4 1-1 14h-7-5l-5-9z"/>
		<path id="Path 260" class="s54" d="m254 474l9-2h9 5l2 2v10l-7 3-2-5h-7l-6-1z"/>
		<path id="Path 261" class="s48" d="m599 482v-10h6l2 8v5h-5z"/>
		<path id="Path 262" class="s52" d="m616 474h13l3 9-7 9h-6l-3-5-9-2v-5l7-1z"/>
		<path id="Path 263" class="s42" d="m692 475v-2h5l1 2v3z"/>
		<path id="Path 264" class="s28" d="m160 476l5-2 7 3 1 5h5l3-4 6 3 2 25-7-6h-9l-1-8-4-4h-5z"/>
		<path id="Path 265" class="s34" d="m243 480l1-6h10l3 7 6 1v6h-14l-2-6z"/>
		<path id="Path 266" class="s47" d="m279 484v-10l8 1v9z"/>
		<path id="Path 267" class="s49" d="m393 476l9-2 11 2 7 1 6 5v7l6 7h24l8 2 5 6v5l-2 7-16-2-3-6-12 2-12-3-9-14-8-5h-9l-5-8z"/>
		<path id="Path 268" class="s24" d="m725 478l1-4h4l6 3v4l-4 1-7-2z"/>
		<path id="Path 269" class="s30" d="m774 476v-2l14 2-5 10z"/>
		<path id="Path 270" class="s20" d="m817 477l12-3 2 12-1 4-2 4h-3l-1-6-6 2-1-1z"/>
		<path id="Path 271" class="s15" d="m935 492v-9l4-6 3-3h7l-9 18z"/>
		<path id="Path 272" class="s47" d="m683 478h4l1-3h4l6 3 3 7v9h-6-7l-1-6-6-4v-4z"/>
		<path id="Path 273" class="s16" d="m698 478v-3l7 3v4l-4 3z"/>
		<path id="Path 274" class="s40" d="m853 488v-13h2l13 5 3 8h-17z"/>
		<path id="Path 275" class="s44" d="m147 490l2-14h11l3 12v6h-3z"/>
		<path id="Path 276" class="s52" d="m389 480v-4h4v4z"/>
		<path id="Path 277" class="s55" d="m529 479l2-3h12v14 4h-10v-11z"/>
		<path id="Path 278" class="s11" d="m705 478l4-2 10 2v4l-2 2-12-2z"/>
		<path id="Path 279" class="s31" d="m768 486l1-10h5l9 10 5-10 8 1-1 4h9l2 4-5 6-12 4-16-1-4-2z"/>
		<path id="Path 280" class="s30" d="m796 477h21v12h-4l-2-4h-5l-2-4h-9z"/>
		<path id="Path 281" class="s34" d="m736 481v-4h4l2 6z"/>
		<path id="Path 282" class="s20" d="m719 482v-4h6v2l-1 5z"/>
		<path id="Path 283" class="s42" d="m896 493l-3-15h4l11 6v6l-8 3z"/>
		<path id="Path 284" class="s30" d="m83 482l8-3 6 5v15h4v3l-1 5-1 3-3 3h-2l-15-12-1-11 4-1z"/>
		<path id="Path 285" class="s44" d="m123 488l-6-4 2-5 13 3 1 6z"/>
		<path id="Path 286" class="s47" d="m239 482l4-2 4 2 2 6h14l7 2 3 27 8 7v4h-14l-6-6v-12l-10-2-3-8h-6l-4-4z"/>
		<path id="Path 287" class="s56" d="m365 486l22-2 2-4h4l5 8h9l8 5 9 14 12 3 12-2 3 6-2 8-6 6-8 3 1 9-2 3-23 1v-4l-6-4h-9l-8-2-3 3-4-3h-10l-4-6 4-30-5-4z"/>
		<path id="Path 288" class="s13" d="m724 485l1-5 7 2-1 8-7-1z"/>
		<path id="Path 289" class="s46" d="m189 506l-2-25 8 2 4 5 7-1-1 15v12h-2l-8-3-6-2z"/>
		<path id="Path 290" class="s32" d="m732 482l4-1 6 2 2 5-3 6-8 1-2-5z"/>
		<path id="Path 291" class="s29" d="m76 485l7-3-1 7-4 1z"/>
		<path id="Path 292" class="s25" d="m263 488v-6h7l2 5-2 3z"/>
		<path id="Path 293" class="s35" d="m490 482l-1 3h-3v-3z"/>
		<path id="Path 294" class="s52" d="m585 496v-8l4-6h10l3 3-5 11z"/>
		<path id="Path 295" class="s55" d="m701 485l4-3 12 2 2 6v8h-15l-3-4z"/>
		<path id="Path 296" class="s50" d="m717 484l2-2 5 3v4l-5 1z"/>
		<path id="Path 297" class="s49" d="m607 485l9 2 3 5h6l7-9 21 5 5 11 9-3 21-2h7l4 8h4l1-4h15l3 6v7l9 5v18l4 3v7h-22l-9-10h-7l-2 3-12-2-4 3v9l-8 1-4-1-4-7-2-12h-10l-3 4h-5l-4-12-10 1-2 19v8l-2 10 4 8v2h-21l-5-4v-11l-11-14-18 1-1-2-2-25-10-2-2-9v-3l8-1h16l1 5 9 3 4-4v-6l5-11z"/>
		<path id="Path 298" class="s12" d="m272 487l7-3h8l6 2v8l-7 3-1 10 8 8v9 4h-4-8v-4l-8-7-3-27z"/>
		<path id="Path 299" class="s35" d="m293 486l12-2 1 4-1 8h-4l-8-2z"/>
		<path id="Path 300" class="s50" d="m666 488l15-4 6 4 1 6-21 2z"/>
		<path id="Path 301" class="s28" d="m64 490l12-5 2 5 1 11 15 12-1 11-2 10 5 6-4 4-19-4-2-2v-13l4-1v-5l-6-1-6-2-1-8-4-4 8-8z"/>
		<path id="Path 302" class="s7" d="m361 528l-8-6-9-1-2-10-7-6v-8l15-12 15 1 1 8 5 4-4 30z"/>
		<path id="Path 303" class="s40" d="m801 491l5-6h5l2 4v3l-4 3z"/>
		<path id="Path 304" class="s47" d="m760 489l2-3h6l1 6-8 2z"/>
		<path id="Path 305" class="s11" d="m830 490l1-4 7 2-3 6z"/>
		<path id="Path 306" class="s11" d="m205 502l1-15h8 7l5 9h5v10h-5l-6-2-3-4-4 3-4 1z"/>
		<path id="Path 307" class="s46" d="m123 497v-9h10l1 1 2 13-3 3z"/>
		<path id="Path 308" class="s23" d="m163 494v-6h5l4 4 1 8v3l-3 3h-3l-3-3z"/>
		<path id="Path 309" class="s4" d="m305 496l1-8h9l4 3-2 29 8 11 4 1v12l-4 2-5-2v-4l-10-10-17-6v-9l-8-8 1-10 7-3 8 2 2 4z"/>
		<path id="Path 310" class="s52" d="m667 496l-9 3-5-11h13z"/>
		<path id="Path 311" class="s34" d="m741 494l3-6 9 2 1 6v3h-9z"/>
		<path id="Path 312" class="s52" d="m818 490l6-2 1 6h3l2-4 5 4 4 8v8l-5 1 1 5 4 18h-15l-1-5-4-2v-9l-8-7-2-16 4-3z"/>
		<path id="Path 313" class="s25" d="m835 494l3-6h15 1l2 6 9 2v4 6h-16l-10-4z"/>
		<path id="Path 314" class="s33" d="m865 500v-4l-9-2-2-6h17l4 6-5 6z"/>
		<path id="Path 315" class="s19" d="m136 502l-2-13 6 2v9l-1 2z"/>
		<path id="Path 316" class="s52" d="m719 490l5-1 7 1 2 5-2 7-9 2-3-6z"/>
		<path id="Path 317" class="s51" d="m753 490l7-1 1 5-2 2h-5z"/>
		<path id="Path 318" class="s34" d="m813 492v-3h4l1 1z"/>
		<path id="Path 319" class="s29" d="m38 506l26-16 2 6-8 8-7 12h-7l-1-2v-4z"/>
		<path id="Path 320" class="s28" d="m159 498h-6l-6-8 13 4z"/>
		<path id="Path 321" class="s52" d="m543 494v-4l13 3 3 6v3l-16-4z"/>
		<path id="Path 322" class="s12" d="m900 493l8-3 3 8 13-1 2 20 9 25v12h-5l-3-12-8-2-6-10v-4l-6-2-2-13-5-3 1-8z"/>
		<path id="Path 323" class="s22" d="m140 500v-9l3 1 2 8-2 2z"/>
		<path id="Path 324" class="s50" d="m789 495l12-4 8 4 2 16 8 7v9l-20-1-4-7v-5l-6-4z"/>
		<path id="Path 325" class="s50" d="m761 494l8-2 4 2v6h-14v-4z"/>
		<path id="Path 326" class="s56" d="m925 494l10-2h5l-4 15 1 18 10 28 13 23 8 32-9 1v14l-6-1v-14l-6-16v-12-5l-10-12-2-9v-12l-9-25-2-20v-2z"/>
		<path id="Path 327" class="s13" d="m901 500l-8-2 3-5h4z"/>
		<path id="Path 328" class="s20" d="m159 498l1-4h3l1 9-5-1z"/>
		<path id="Path 329" class="s49" d="m533 497v-3h10v4l-6 2z"/>
		<path id="Path 330" class="s35" d="m704 498l-1 4h-4l-4-8h6z"/>
		<path id="Path 331" class="s35" d="m733 495l8-1 4 5h9l5 1h14l12 8 1 11-1 21-9 2-1 4-14 2-10 1-16-5v-7l-4-3v-18l-9-5v-7l9-2z"/>
		<path id="Path 332" class="s52" d="m773 500v-6l16 1v15l6 4v5h-9l-1-11z"/>
		<path id="Path 333" class="s34" d="m870 500l5-6 3 2 2 17 3 2v10h-11l-3-4v-15z"/>
		<path id="Path 334" class="s9" d="m231 506v-10h7l4 4h6l3 8v20l5 3 2 8 9 10v7l-4 2-13-2-3-3-1-13-7-4v-6l3-1-2-3-3-12z"/>
		<path id="Path 335" class="s3" d="m305 496l-2 4-2-4z"/>
		<path id="Path 336" class="s54" d="m583 498l2-2h12v6l-4 4-9-3z"/>
		<path id="Path 337" class="s25" d="m754 499v-3h5v4z"/>
		<path id="Path 338" class="s33" d="m119 508l-1-11h5l10 8v5l-5 12-5-1-4-4z"/>
		<path id="Path 339" class="s56" d="m517 510v-9l4-4h12l4 3 6-2 16 4 2 9 10 2 2 25h-10-8l-4-7h-10l-2-5h-4l-1-13-3-3z"/>
		<path id="Path 340" class="s45" d="m101 502v-3l7 1v3 1h-6z"/>
		<path id="Path 341" class="s27" d="m139 502l1-2 3 2v7 3h-6v-2z"/>
		<path id="Path 342" class="s50" d="m143 502l2-2 4 1-2 8h-4z"/>
		<path id="Path 343" class="s11" d="m173 503v-3h9l7 6v3l2 4v13h-3l-9-7-8 3-2-6 1-2 4 1v-5z"/>
		<path id="Path 344" class="s42" d="m213 503l4-3 3 4-1 3z"/>
		<path id="Path 345" class="s55" d="m865 506v-6h5l-1 6z"/>
		<path id="Path 346" class="s14" d="m100 507l1-5 1 2 1 4z"/>
		<path id="Path 347" class="s55" d="m133 505l3-3h3l-2 8h-4z"/>
		<path id="Path 348" class="s25" d="m159 509l-2-5 2-2 5 1 3 3-1 9 3 1 2 6-4 3-5-3 1-8-4-1z"/>
		<path id="Path 349" class="s13" d="m205 514v-12l4 2 2 9-4 1z"/>
		<path id="Path 350" class="s50" d="m839 510v-8l10 4h16 4v15l-7 3-23-9z"/>
		<path id="Path 351" class="s57" d="m108 504v-1l11 5v9l4 4-4 5-10-3v-5l-1-6z"/>
		<path id="Path 352" class="s34" d="m170 506l3-3 1 7h-4z"/>
		<path id="Path 353" class="s32" d="m209 504l4-1 6 4-4 9-4-3z"/>
		<path id="Path 354" class="s46" d="m51 516l7-12 4 4 1 8v9l-2 9-11 2-4-5z"/>
		<path id="Path 355" class="s58" d="m100 507l3 1-1-4h6v8l-6 1-3-3z"/>
		<path id="Path 356" class="s49" d="m219 507l1-3 6 2 12 20v4h-11v-8l-12-4v-2z"/>
		<path id="Path 357" class="s35" d="m469 509v-5h6v4z"/>
		<path id="Path 358" class="s49" d="m475 508v-4h8l1 4-3 2z"/>
		<path id="Path 359" class="s19" d="m226 506h5l6 8 3 12h-2z"/>
		<path id="Path 360" class="s44" d="m35 508l3-2 5 4v4h-7z"/>
		<path id="Path 361" class="s40" d="m169 516l-3-1 1-9h3v4 4z"/>
		<path id="Path 362" class="s48" d="m151 510l3-3 3 2-3 5h-3z"/>
		<path id="Path 363" class="s36" d="m25 529v-14l10-7 1 6h7l1 2-1 15-10-1z"/>
		<path id="Path 364" class="s34" d="m267 556v-7l-9-10-2-8-5-3v-20l10 2v12l6 6h14l2 11 7 7v8l6 5-4 11h-3l-5-7-15-4z"/>
		<path id="Path 365" class="s56" d="m469 509l6-1 6 2 3-2 29 6 1 13 11 11v12h-5l-4-5-12-1-1 8h-8l-10-4-1-10-12-6-5-16z"/>
		<path id="Path 366" class="s50" d="m894 520l3-3-1-8 4-1 5 3 2 13h-3v3l3 3-7 2v-2l2-7z"/>
		<path id="Path 367" class="s20" d="m143 512v-3h4l4 1v4h-4-3z"/>
		<path id="Path 368" class="s40" d="m154 514l3-5h2v4l4 1-1 8 5 3-1 6 5 6v5l-7-1-3-6v-5h-6z"/>
		<path id="Path 369" class="s40" d="m191 513l-2-4 6 2z"/>
		<path id="Path 370" class="s33" d="m96 513l3-3 3 3 6-1 1 6h-9z"/>
		<path id="Path 371" class="s20" d="m128 522l5-12h4v2 3l-4 5 4 7-1 5h-3l-4-8z"/>
		<path id="Path 372" class="s54" d="m170 514v-4h4v5z"/>
		<path id="Path 373" class="s59" d="m513 514l4-4h14l3 3 1 13-4 3v8l-6 1-11-11z"/>
		<path id="Path 374" class="s35" d="m835 516l-1-5 5-1v5z"/>
		<path id="Path 375" class="s14" d="m191 513l4-2 8 3v6l-4 4v5h-5l-3-3z"/>
		<path id="Path 376" class="s39" d="m137 515v-3h6l1 2v4 2l-4 1z"/>
		<path id="Path 377" class="s39" d="m93 524l1-11h2l4 5h9v5z"/>
		<path id="Path 378" class="s33" d="m207 514l4-1 4 3v2l-6 2h-2z"/>
		<path id="Path 379" class="s50" d="m144 518v-4h3z"/>
		<path id="Path 380" class="s45" d="m144 518l3-4h4 3l1 16 1 5v2l-5 5-6-3-7-3v-2l4-1-1-8 4-2-1-3z"/>
		<path id="Path 381" class="s52" d="m203 520v-6h2 2v6z"/>
		<path id="Path 382" class="s15" d="m443 528l6-6 2-8 16 2 5 16 12 6 1 10v10l-2 4h-12v-4l-6-2-4-8-2-10h-9-4l-3-2z"/>
		<path id="Path 383" class="s55" d="m136 532l1-5-4-7 4-5 3 6 4-1 1 3-4 2 1 8-4 1z"/>
		<path id="Path 384" class="s47" d="m835 516l4-1 23 9-1 6h-5l-3 4h-14z"/>
		<path id="Path 385" class="s20" d="m43 531l1-15h7l-5 15z"/>
		<path id="Path 386" class="s20" d="m63 525v-9l6 2v6z"/>
		<path id="Path 387" class="s9" d="m69 524v-6l6 1v5l-4 1z"/>
		<path id="Path 388" class="s9" d="m209 520l6-2 12 4v8l-7 6v4h-3-6l-4-3z"/>
		<path id="Path 389" class="s13" d="m171 522l8-3 9 7 1 7-2 11 10 10-2 8h-8l-13-1-1-5-2-8v-6-5l-5-6 1-6z"/>
		<path id="Path 390" class="s13" d="m785 540l1-21h9l4 7-2 12-6 2z"/>
		<path id="Path 391" class="s16" d="m199 529v-5l4-4h4 2l-2 17 4 3v10l-11 1-4-17z"/>
		<path id="Path 392" class="s35" d="m627 540l2-19 10-1 4 12h5l3-4h10l2 12-12 2-18-2z"/>
		<path id="Path 393" class="s32" d="m900 530l-7-2 1-8 8 3z"/>
		<path id="Path 394" class="s39" d="m119 526l4-5 5 1 1 2-2 7h-2z"/>
		<path id="Path 395" class="s33" d="m862 524l7-3 3 4h11l1 17 8-1v7l-8 15-7 3-6-7h-6v-6l-5-6 1-17z"/>
		<path id="Path 396" class="s33" d="m93 524l16-1 10 3 6 5-6 6 6 5-2 6v8l-15-3-3-4 2-6-11-3-5-6z"/>
		<path id="Path 397" class="s11" d="m63 525l6-1 2 1v13l-10-4z"/>
		<path id="Path 398" class="s52" d="m127 531l2-7 4 8 2 5v2l-6-2z"/>
		<path id="Path 399" class="s3" d="m293 528v-4l17 6 10 10v4l5 2v7l-6 7-4 2 6 1v13l-14 3-2-5h-7l-6-4 4-11 11-5-2-6-1-7-7-1-4-8z"/>
		<path id="Path 400" class="s32" d="m907 530l-3-3v-3h3l6 2v4z"/>
		<path id="Path 401" class="s34" d="m189 533l-1-7h3l3 3v3z"/>
		<path id="Path 402" class="s20" d="m238 530v-4h2l2 3-3 1z"/>
		<path id="Path 403" class="s49" d="m531 537v-8l4-3h4l2 5v9h-7z"/>
		<path id="Path 404" class="s47" d="m797 538l2-12 20 1 4 2 1 5-1 13h-1-14l-2-6z"/>
		<path id="Path 405" class="s16" d="m296 559l-6-5v-8l-7-7-2-11h8v4 8l8 1 4 7h4l2 6z"/>
		<path id="Path 406" class="s13" d="m289 532v-4h4v4z"/>
		<path id="Path 407" class="s4" d="m361 538v-10h6l4 6h10l4 3v11l-2 4h-6l-4-9h-8z"/>
		<path id="Path 408" class="s4" d="m436 540l-1-9 8-3v8l3 2v2z"/>
		<path id="Path 409" class="s33" d="m28 539l-3-10 8 1v9z"/>
		<path id="Path 410" class="s54" d="m194 532v-3h5l-3 5z"/>
		<path id="Path 411" class="s52" d="m33 539v-9l10 1h3l4 5-1 14-4 6-14-10 5-2z"/>
		<path id="Path 412" class="s54" d="m156 535l-1-5h6v5z"/>
		<path id="Path 413" class="s4" d="m220 540v-4l7-6h11 1v6l-6 8v6 8h-1-8l3-8z"/>
		<path id="Path 414" class="s12" d="m335 532l7-2 7 9v5h-14z"/>
		<path id="Path 415" class="s34" d="m839 534h14l3-4h5l-1 17 5 6v6l-14 5-18-14-8-2-2-1 1-13z"/>
		<path id="Path 416" class="s34" d="m900 532l7-2h6l6 10v12l-5 3-8-1-5-6-3-10z"/>
		<path id="Path 417" class="s30" d="m125 542l-6-5 6-6h2l2 6v6z"/>
		<path id="Path 418" class="s52" d="m541 540v-9h10l4 7h8v5l-4 5-8 1z"/>
		<path id="Path 419" class="s32" d="m135 537l-2-5h3l2 2v2z"/>
		<path id="Path 420" class="s47" d="m189 533l5-1 2 2 4 17v3h-3l-10-10z"/>
		<path id="Path 421" class="s12" d="m297 541l-8-1v-8h4l4 8z"/>
		<path id="Path 422" class="s13" d="m329 544v-12h6v12z"/>
		<path id="Path 423" class="s4" d="m50 536l11-2 10 4 2 2v10h-24z"/>
		<path id="Path 424" class="s15" d="m385 537l3-3 8 2-1 12h-10z"/>
		<path id="Path 425" class="s12" d="m679 547v-9l4-3 12 2 2-3h7l9 10-1 7-9 11h-7l-7-5v-3z"/>
		<path id="Path 426" class="s42" d="m156 537v-2h5l3 6 2 7h5l2 8-9 2-6-8-1-7z"/>
		<path id="Path 427" class="s35" d="m135 537l3-1 7 3-2 3-7-1-1-2z"/>
		<path id="Path 428" class="s22" d="m233 550v-6l6-8 7 4 1 13 3 3-4 2-4-2-1-6z"/>
		<path id="Path 429" class="s4" d="m395 548l1-12h9l6 4v4l-2 12v9l-12 3z"/>
		<path id="Path 430" class="s39" d="m129 543v-6l6 2 1 2-4 3z"/>
		<path id="Path 431" class="s13" d="m151 542l5-5 1 6h-6z"/>
		<path id="Path 432" class="s25" d="m525 538l6-1 3 3h7l10 9v7l-7 7h-3l-16-13z"/>
		<path id="Path 433" class="s3" d="m349 539l12-1 4 5h8l4 9h6l2-4h10l2 20v2l-8 3v7l-12 1-8-7h-9l-7-5v-14l-4-5v-6z"/>
		<path id="Path 434" class="s59" d="m446 540v-2h4v2z"/>
		<path id="Path 435" class="s12" d="m450 540v-2h9l2 10h-9z"/>
		<path id="Path 436" class="s54" d="m563 543v-5h10l1 2-3 4z"/>
		<path id="Path 437" class="s50" d="m574 540l18-1 11 14v11l-16 3-2-3h-6l-1-3-7-1v-6-10z"/>
		<path id="Path 438" class="s59" d="m791 540l6-2 9 3 2 6-4 1h-11z"/>
		<path id="Path 439" class="s39" d="m31 546l-3-7h5l3 5z"/>
		<path id="Path 440" class="s12" d="m143 542l2-3 6 3v1 3l-7-1z"/>
		<path id="Path 441" class="s49" d="m73 550v-10l19 4 2 4z"/>
		<path id="Path 442" class="s39" d="m92 544l4-4 11 3-2 6-11-1z"/>
		<path id="Path 443" class="s13" d="m211 550v-10h6l3 12h-9z"/>
		<path id="Path 444" class="s59" d="m220 552l-3-12h3l7 10-3 8h-3z"/>
		<path id="Path 445" class="s6" d="m297 541v-1l7 1 1 7h-4z"/>
		<path id="Path 446" class="s3" d="m411 544l23-1 2-3h10 4l2 8-7 8v14h-6-6l-2-8h-9l-2-4h-5l-6-2z"/>
		<path id="Path 447" class="s59" d="m627 548v-8h6l-2 8z"/>
		<path id="Path 448" class="s25" d="m631 548l2-8 18 2-6 12h-10z"/>
		<path id="Path 449" class="s13" d="m651 542l12-2 4 7 4 1v12l-6 1v8l-11 1-5-2v-4l-4-2v-8z"/>
		<path id="Path 450" class="s60" d="m775 546l1-4 9-2h6l2 8-11 2z"/>
		<path id="Path 451" class="s13" d="m901 548l5 6 8 1 5-3v-12l8 2 3 12-3 18-21-2-1 8-11 2-5-2-1-5-11-3v-4l7-3 8-15z"/>
		<path id="Path 452" class="s40" d="m132 544l4-3 7 1 1 3-5 2z"/>
		<path id="Path 453" class="s4" d="m171 548h-5l-2-7 7 1z"/>
		<path id="Path 454" class="s35" d="m123 548l2-6 4 1 3 1 7 3 1 4-1 5-10-1v-4z"/>
		<path id="Path 455" class="s8" d="m151 546v-3h6l1 7 6 8v2h-6z"/>
		<path id="Path 456" class="s25" d="m559 548l4-5 8 1v10h-12z"/>
		<path id="Path 457" class="s47" d="m325 546l4-2h6 14v6l4 5v14l-18 7h-14v-13l-2-3 6-7z"/>
		<path id="Path 458" class="s3" d="m503 552l1-8 12 1 4 5h5l16 13v5l-15 1-19-6-4-5z"/>
		<path id="Path 459" class="s7" d="m703 562l9-11 1-7h22l16 5v13l-5 2-12-1-2 5h-7l-4 6h-6l-6 1-6-1z"/>
		<path id="Path 460" class="s38" d="m139 547l5-2 7 1 7 14v4l-6 3-6-7 1-5-7-4z"/>
		<path id="Path 461" class="s53" d="m761 548l14-2 7 4-3 2 1 15-7 1-2-3-8-1z"/>
		<path id="Path 462" class="s59" d="m94 548l11 1 3 4-12 7h-30l-2 5-19-9 4-6h24z"/>
		<path id="Path 463" class="s3" d="m671 548l8-1 10 7v3 7l-14 4v-6l-4-2z"/>
		<path id="Path 464" class="s2" d="m825 548l-3-1h1z"/>
		<path id="Path 465" class="s11" d="m123 556v-8l6 3v4z"/>
		<path id="Path 466" class="s4" d="m445 570v-14l7-8h9l4 8v6l-3 4-4 2v4h-13z"/>
		<path id="Path 467" class="s3" d="m485 558v-10l10 4v8h-6z"/>
		<path id="Path 468" class="s50" d="m551 549l8-1v6l-8 2z"/>
		<path id="Path 469" class="s50" d="m629 566l-4-8 2-10h4l4 6v8 4z"/>
		<path id="Path 470" class="s60" d="m751 549l10-1 2 16h-4l-8-2z"/>
		<path id="Path 471" class="s59" d="m200 551l11-1v2 6h-8l-3-4z"/>
		<path id="Path 472" class="s5" d="m233 558v-8h8l1 6 4 2v2z"/>
		<path id="Path 473" class="s59" d="m139 556l1-5 7 4-1 5h-5z"/>
		<path id="Path 474" class="s56" d="m211 558v-6h9l1 6v4h-6z"/>
		<path id="Path 475" class="s60" d="m495 560v-8h8v6z"/>
		<path id="Path 476" class="s60" d="m64 565l2-5h30l12-7 15 3 6-1 10 1 2 4h5l6 7 6-3 6-2 10-1 13 1-1 5-12 1-2 5-12 3h-13l-2-5-19-3-7 3v6l-39-6z"/>
		<path id="Path 477" class="s60" d="m195 562l2-8h3l3 4h8l4 4h6l4 8h-13z"/>
		<path id="Path 478" class="s15" d="m551 556l8-2h12v6 10l-16 2-1-3-6-1h-3l-1-5z"/>
		<path id="Path 479" class="s35" d="m635 562v-8h10v8h-4z"/>
		<path id="Path 480" class="s3" d="m927 572l3-18h5l2 9 10 12v5h-10z"/>
		<path id="Path 481" class="s15" d="m164 558l9-2 1 5-10 1v-2z"/>
		<path id="Path 482" class="s61" d="m246 558l4-2 13 2 1 6 4-1 11 9 10-2h3l6 4h7l2 5-9 7v4h-8l-6 8-9-7-9-5-5-8-5-1-4-8-4 1-2-10z"/>
		<path id="Path 483" class="s14" d="m263 558l4-2 2 3-1 4-4 1z"/>
		<path id="Path 484" class="s62" d="m409 565v-9l6 2v7z"/>
		<path id="Path 485" class="s7" d="m465 562v-6l6 2v4z"/>
		<path id="Path 486" class="s5" d="m689 564v-7l7 5-1 2z"/>
		<path id="Path 487" class="s7" d="m221 562v-4h3 8l1 12-3 1-5-1z"/>
		<path id="Path 488" class="s62" d="m233 570l-1-12h1l13 2 2 10v5z"/>
		<path id="Path 489" class="s53" d="m415 565v-7h5l2 4h9l2 8h-8l-3-5z"/>
		<path id="Path 490" class="s53" d="m483 562l2-4 4 2v2z"/>
		<path id="Path 491" class="s5" d="m495 560l8-2 4 5-3 5h-15v-6-2z"/>
		<path id="Path 492" class="s7" d="m268 563l1-4 15 4 5 7-10 2z"/>
		<path id="Path 493" class="s6" d="m851 564l14-5h6l6 7v4l-7 4v5z"/>
		<path id="Path 494" class="s63" d="m158 564v-4h6v2z"/>
		<path id="Path 495" class="s13" d="m321 563l-6-1 4-2z"/>
		<path id="Path 496" class="s7" d="m571 570v-10l7 1 1 3v6z"/>
		<path id="Path 497" class="s4" d="m665 569v-8l6-1 4 2v6 2z"/>
		<path id="Path 498" class="s53" d="m119 577v-6l7-3 19 3 2 5h13l12-3 2-5 12-1 1-5h8l17 8h13l5 1 2 8-44-1-12 3-2 8z"/>
		<path id="Path 499" class="s61" d="m462 566l3-4h6 12 6v6l-7 4h-17z"/>
		<path id="Path 500" class="s15" d="m635 566v-4h6l-2 6h-4z"/>
		<path id="Path 501" class="s6" d="m639 568l2-6h4l4 2v4l-5 3h-5z"/>
		<path id="Path 502" class="s60" d="m695 564l1-2h7v12l-2 3h-6z"/>
		<path id="Path 503" class="s6" d="m746 564l5-2 8 2v7l4 5-5 17-7 7h-8v-4l-6-6v-4l5-4 5-4z"/>
		<path id="Path 504" class="s64" d="m489 568h15l3-5 19 6 15-1h4 3v5l7-1 16-2h8l8 2 4 6v4h-28l-48-1-18 1-23-2-15 6-15-2-4 4-35-2v-8l12-1 2 3h6l15-5h4l1-3h13 7 17z"/>
		<path id="Path 505" class="s60" d="m541 568v-5h3l1 5z"/>
		<path id="Path 506" class="s33" d="m732 568l2-5 12 1 1 14-5 4-5-14z"/>
		<path id="Path 507" class="s60" d="m579 570v-6h6l2 3v5z"/>
		<path id="Path 508" class="s65" d="m587 567l16-3 5 4h21v5l-7 5h-17-14l-4-6z"/>
		<path id="Path 509" class="s53" d="m675 568l14-4h6v13 6l-14 1-6-8v-6z"/>
		<path id="Path 510" class="s5" d="m763 576l-4-5v-7h4l8 1 2 3v8z"/>
		<path id="Path 511" class="s61" d="m397 568l12-3h6 7l3 5h8 6l1 5-15 5h-6l-2-3-12 1-8-8z"/>
		<path id="Path 512" class="s65" d="m458 572v-4l4-2 3 6z"/>
		<path id="Path 513" class="s61" d="m629 568v-2h6v2 3l-6 2z"/>
		<path id="Path 514" class="s65" d="m773 568l7-1v40l-7-1 2-20-2-10z"/>
		<path id="Path 515" class="s61" d="m555 572l-7 1v-5l6 1z"/>
		<path id="Path 516" class="s7" d="m635 571v-3h4v3z"/>
		<path id="Path 517" class="s65" d="m644 571l5-3 5 2-3 3z"/>
		<path id="Path 518" class="s40" d="m715 574h6l4-6h7 5l5 14-5 4v4l-8 3h-7l-7-10h-4v-3l4-1z"/>
		<path id="Path 519" class="s33" d="m248 570l4-1 4 8-1 1-7-3z"/>
		<path id="Path 520" class="s7" d="m335 576l18-7 7 5-9 7v3h-14z"/>
		<path id="Path 521" class="s64" d="m654 570l11-1 10 1v6l6 8-5 6v8l-14-5-1-6-6-3h-50v-6h17l7-5 6-2h4 5l7 2z"/>
		<path id="Path 522" class="s20" d="m230 571l3-1 15 5 7 3v13l-7 6-16-18z"/>
		<path id="Path 523" class="s65" d="m389 580v-7l8-3 8 8v8l-3 2-13-2z"/>
		<path id="Path 524" class="s65" d="m440 575l-1-5h6v2l-1 3z"/>
		<path id="Path 525" class="s3" d="m870 579v-5l7-4 11 3 1 5-4 4h-5l-1 4z"/>
		<path id="Path 526" class="s4" d="m905 578l1-8 21 2 10 8-4 6-21-6z"/>
		<path id="Path 527" class="s65" d="m351 584v-3l9-7h9l8 7-2 5-8 2h-14z"/>
		<path id="Path 528" class="s6" d="m701 577l2-3 6 1v5h-1-6z"/>
		<path id="Path 529" class="s9" d="m709 575l6-1v5l-4 1h-2z"/>
		<path id="Path 530" class="s65" d="m307 579l14-3h14l2 8-6 6-15-2-3 4h-5l-1 4h-6l-3-6v-4z"/>
		<path id="Path 531" class="s66" d="m743 600h8l7-7 5-17h10l2 10-2 20-4 2v10h-7l-15-1-6-5z"/>
		<path id="Path 532" class="s40" d="m255 578l1-1 5 1 5 8 9 5-2 15-11 7-6-4-2-2v-1l5-2 2-7v-5l-6-1z"/>
		<path id="Path 533" class="s4" d="m695 583v-6h6l1 3-1 3-4 1z"/>
		<path id="Path 534" class="s64" d="m174 589l2-8 12-3 44 1 16 18 2 6h-1l-5-4-10-1-5-1h-5z"/>
		<path id="Path 535" class="s67" d="m591 582v-4h14v6z"/>
		<path id="Path 536" class="s4" d="m879 586l1-4h5l4-4 5 2-3 14z"/>
		<path id="Path 537" class="s5" d="m894 580l11-2 7 2-1 12-7 2-3 6-10-6z"/>
		<path id="Path 538" class="s64" d="m377 581l12-1v6l-9 2-6 7-35 3-13 2-3 6-8 2-8-5v-7l1-4h5l3-4 15 2 6-6h14l2 4h14l8-2z"/>
		<path id="Path 539" class="s67" d="m405 586l35 2 4-4 15 2 15-6 23 2-2 16-34 4-32-1-39-7-9 4-2 6-40 2v-8l35-3 6-7 9-2 13 2z"/>
		<path id="Path 540" class="s68" d="m497 582l18-1 4 24-5-1-7 4-12-10z"/>
		<path id="Path 541" class="s38" d="m701 583l1-3h6l1 3-1 8-6-3z"/>
		<path id="Path 542" class="s45" d="m709 583l-1-3h1 2v3z"/>
		<path id="Path 543" class="s7" d="m911 592l1-12 21 6 2 6h12l6 16v14l-21-7-3-8-8-1-1-7z"/>
		<path id="Path 544" class="s15" d="m933 586l4-6h10v12h-12z"/>
		<path id="Path 545" class="s67" d="m519 605l-4-24 48 1v4l-9 6-1 10-4 2v4l-13-1z"/>
		<path id="Path 546" class="s68" d="m553 602l1-10 9-6v-4h28l14 2h50l6 3 1 6-46 7-3-6-16-2-8 6v4l-12 2 3 9-13-1-2-5-10-1z"/>
		<path id="Path 547" class="s69" d="m681 584l14-1 2 1 2 6v7l-2 6 9 9h7l6 2 4-4h6l10 2v14l-9 2-6-2-10-4-11-6-5-3-8-6-5-3-9-6v-8z"/>
		<path id="Path 548" class="s8" d="m697 584l4-1 1 5-3 2z"/>
		<path id="Path 549" class="s11" d="m708 591l1-8h2 4l7 10-3 9h-6l-4-4z"/>
		<path id="Path 550" class="s28" d="m699 590l3-2 6 3 1 7-10-1z"/>
		<path id="Path 551" class="s70" d="m284 598l6-8h8l3 6h6v7l8 5v10l-4 6-6-2-3-11-15-3z"/>
		<path id="Path 552" class="s9" d="m729 593l8-3 6 6v4l-2 12h-2l-10-2z"/>
		<path id="Path 553" class="s39" d="m248 597l7-6 6 1v5l-2 7-5 2-4-3z"/>
		<path id="Path 554" class="s22" d="m273 606l2-15 9 7 3 10-1 4-1 4h-6z"/>
		<path id="Path 555" class="s71" d="m589 602v-4l8-6 16 2 3 6z"/>
		<path id="Path 556" class="s70" d="m901 600l3-6 7-2 9 7 1 7v4z"/>
		<path id="Path 557" class="s14" d="m719 602l3-9h7v17h-6z"/>
		<path id="Path 558" class="s72" d="m379 604l2-6 9-4 39 7-4 6v10l-42-1z"/>
		<path id="Path 559" class="s73" d="m224 597h5l-2 1z"/>
		<path id="Path 560" class="s17" d="m227 598l2-1 5 1z"/>
		<path id="Path 561" class="s22" d="m713 612h-7l-9-9 2-6 10 1 4 4z"/>
		<path id="Path 562" class="s17" d="m249 603l-15-5 10 1z"/>
		<path id="Path 563" class="s68" d="m323 606l3-6 13-2v8l-12 5z"/>
		<path id="Path 564" class="s71" d="m429 601l32 1 34-4 12 10-1 4-3 3-78 2v-10z"/>
		<path id="Path 565" class="s74" d="m683 604l-7-6 9 6z"/>
		<path id="Path 566" class="s64" d="m549 608v-4l4-2 2 4-3 3z"/>
		<path id="Path 567" class="s38" d="m713 612v-10h6l4 8-4 4z"/>
		<path id="Path 568" class="s2" d="m254 607l-5-4h1l4 3z"/>
		<path id="Path 569" class="s71" d="m339 606l40-2 4 12-56-2v-3z"/>
		<path id="Path 570" class="s11" d="m507 608l7-4 5 1 17 2 5 12-4 22-27-22-4-7z"/>
		<path id="Path 571" class="s17" d="m690 608l-7-4h2l5 3z"/>
		<path id="Path 572" class="s11" d="m262 613l11-7 6 10-7 6-6-4-1-1-2-2z"/>
		<path id="Path 573" class="s74" d="m265 617h1v1h-1z"/>
		<path id="Path 574" class="s67" d="m315 608l8-2 4 5v3l-7 1-1 3h-4z"/>
		<path id="Path 575" class="s61" d="m552 609l3-3 10 1 2 5v4l-14-2z"/>
		<path id="Path 576" class="s61" d="m769 618v-10l4-2 7 1-4 12z"/>
		<path id="Path 577" class="s5" d="m921 610v-4l8 1 3 8z"/>
		<path id="Path 578" class="s69" d="m541 619l-5-12 13 1 3 1 1 5v8h-5l-1-3z"/>
		<path id="Path 579" class="s73" d="m690 608v-1l8 6z"/>
		<path id="Path 580" class="s62" d="m286 612l1-4 15 3 3 11h-4-5l-3-7z"/>
		<path id="Path 581" class="s59" d="m959 623v-14l9-1v14z"/>
		<path id="Path 582" class="s74" d="m263 615l-7-6 6 4z"/>
		<path id="Path 583" class="s14" d="m285 616l1-4 7 3 3 7h5v8l6 7v6l-5 2-2-1-3-2-3-2-1-1-3-2-1-1-2-3 2-13z"/>
		<path id="Path 584" class="s2" d="m293 639h1v1h-1z"/>
		<path id="Path 585" class="s2" d="m289 636h1v1h-1z"/>
		<path id="Path 586" class="s70" d="m503 615l3-3 4 7z"/>
		<path id="Path 587" class="s70" d="m567 616v-4l13 1 3 5 3 27-10 1-3-19z"/>
		<path id="Path 588" class="s62" d="m739 626v-14h2l6 5v7 2z"/>
		<path id="Path 589" class="s62" d="m553 622v-8l14 2 6 11 3 19-7 4-4-18-10-3z"/>
		<path id="Path 590" class="s8" d="m272 622l7-6h6l4 4-2 13h-2z"/>
		<path id="Path 591" class="s75" d="m713 622l-10-6 11 6z"/>
		<path id="Path 592" class="s70" d="m747 624v-7l15 1-3 6z"/>
		<path id="Path 593" class="s64" d="m311 624l4-6h4l3 16-1 3h-5l-5-7z"/>
		<path id="Path 594" class="s65" d="m747 624h12l3-6h7l7 1-6 12-3-3-17 2-3-4z"/>
		<path id="Path 595" class="s38" d="m537 641l4-22h6l1 3 1 15-3 10h-2l-2-1-1-1-1-1-3-2z"/>
		<path id="Path 596" class="s2" d="m541 645h1v1h-1z"/>
		<path id="Path 597" class="s2" d="m540 644h1v1h-1z"/>
		<path id="Path 598" class="s69" d="m302 645l5-2v-6l-6-7v-8h4l6 2v6l5 7 1 10-4 2h-3z"/>
		<path id="Path 599" class="s6" d="m549 637l-1-15h5l2 7v7z"/>
		<path id="Path 600" class="s17" d="m726 629l-13-7h1l10 4z"/>
		<path id="Path 601" class="s73" d="m726 629l-2-3 6 2 5 5z"/>
		<path id="Path 602" class="s64" d="m730 628l9-2h8l3 4 17-2 3 3-3 6-5 1h-13l-14-5z"/>
		<path id="Path 603" class="s66" d="m549 637l6-1v-7l10 3 4 18-10 4-9-3h-1l-1-1-2-3z"/>
		<path id="Path 604" class="s73" d="m549 650h1v1h-1z"/>
		<path id="Path 605" class="s2" d="m289 636l-4-3h2z"/>
		<path id="Path 606" class="s73" d="m321 637l1-3 2 7-1 4z"/>
		<path id="Path 607" class="s67" d="m313 649l4-2-1-10h5l2 8-2 6h-5-2z"/>
		<path id="Path 608" class="s17" d="m323 645l1-4 2 7-3 4-7-1h5z"/>
		<path id="Path 609" class="s64" d="m576 646l10-1 1 6-1 8-8 5h-1l-5-2-13-6v-2l10-4z"/>
		<path id="Path 610" class="s74" d="m548 650l-4-3h2z"/>
		<path id="Path 611" class="s76" d="m323 652l3-4v4z"/>
		<path id="Path 612" class="s2" d="m314 651l-4-2h3z"/>
		<path id="Path 613" class="s73" d="m556 655l-6-4 9 3v2z"/>
		<path id="Path 614" class="s77" d="m578 664l8-5 1-8v9l-2 4h-2-1z"/>
		<path id="Path 615" class="s17" d="m572 663l-16-8 3 1 13 6z"/>
		<path id="Path 616" class="s76" d="m585 664l2-4 1 4z"/>
		<path id="Path 617" class="s76" d="m572 663v-1l5 2h-1z"/>
		<path id="Path 618" class="s17" d="m578 665l-2-1h1 1z"/>
		<path id="Path 619" class="s76" d="m578 665v-1h4v1z"/>
		<path id="Path 620" class="s78" d="m582 664h1v1h-1z"/>
		<path id="Path 621" class="s17" d="m583 665v-1h2z"/>
	</g>
</svg>