<svg version="1.2" xmlns="http://www.w3.org/2000/svg" viewBox="0 0 1000 1000" width="1000" height="1000">
	<title>Salvelinus_fontinalis</title>
	<style>
		.s0 { opacity: 1;fill: #863318 } 
		.s1 { fill: #929485 } 
		.s2 { opacity: 1;fill: #a43a1e } 
		.s3 { opacity: .5;fill: #a77e57 } 
		.s4 { fill: #492912 } 
		.s5 { fill: #747356 } 
		.s6 { opacity: 1;fill: #b2612f } 
		.s7 { opacity: 1;fill: #592d14 } 
		.s8 { fill: #772512 } 
		.s9 { opacity: 1;fill: #9b4b24 } 
		.s10 { opacity: 1;fill: #ad361d } 
		.s11 { fill: #3f210e } 
		.s12 { opacity: 1;fill: #ab5224 } 
		.s13 { opacity: 1;fill: #753919 } 
		.s14 { opacity: .3;fill: #9a9992 } 
		.s15 { fill: #201e12 } 
		.s16 { opacity: .6;fill: #655c4d } 
		.s17 { opacity: .7;fill: #785533 } 
		.s18 { opacity: .8;fill: #af5b46 } 
		.s19 { opacity: 1;fill: #8d6e4d } 
		.s20 { opacity: .8;fill: #703768 } 
		.s21 { opacity: .4;fill: #85827a } 
		.s22 { opacity: .8;fill: #5c4e2a } 
		.s23 { fill: #9b2a17 } 
		.s24 { opacity: 1;fill: #343b4b } 
		.s25 { opacity: .4;fill: #b3a086 } 
		.s26 { opacity: .6;fill: #856144 } 
		.s27 { fill: #d3d9cd } 
		.s28 { fill: #84623f } 
		.s29 { fill: #4d431e } 
		.s30 { fill: #bfbaa1 } 
		.s31 { fill: #a0785d } 
		.s32 { fill: #a19772 } 
		.s33 { fill: #b4a887 } 
		.s34 { fill: #494e46 } 
		.s35 { fill: #af7c58 } 
		.s36 { fill: #b1896c } 
		.s37 { opacity: 1;fill: #b37337 } 
		.s38 { fill: #787981 } 
		.s39 { fill: #b0784b } 
		.s40 { fill: #c8c7b3 } 
		.s41 { fill: #a66444 } 
		.s42 { fill: #a16d48 } 
		.s43 { fill: #a9a397 } 
		.s44 { fill: #332612 } 
		.s45 { fill: #af844c } 
		.s46 { fill: #996339 } 
		.s47 { fill: #7b4b20 } 
		.s48 { fill: #7a7b68 } 
		.s49 { fill: #908456 } 
		.s50 { opacity: 1;fill: #865525 } 
		.s51 { fill: #795d2b } 
		.s52 { fill: #935a2e } 
		.s53 { fill: #5f6143 } 
		.s54 { fill: #7b5335 } 
		.s55 { fill: #7a6c3d } 
		.s56 { fill: #474a2b } 
		.s57 { fill: #565839 } 
		.s58 { fill: #321cf6 } 
		.s59 { fill: #2d322c } 
		.s60 { fill: #6b6338 } 
		.s61 { fill: #64685f } 
		.s62 { opacity: 1;fill: #6c5422 } 
		.s63 { fill: #686a4b } 
		.s64 { opacity: 1;fill: #63491e } 
		.s65 { fill: #5e5629 } 
		.s66 { opacity: .2;fill: #b6b0a1 } 
		.s67 { fill: #585b53 } 
		.s68 { fill: #3d4124 } 
		.s69 { fill: #3a412f } 
		.s70 { opacity: 1;fill: #5b3b19 } 
		.s71 { fill: #63717a } 
		.s72 { fill: #464c39 } 
		.s73 { fill: #544f28 } 
		.s74 { fill: #323623 } 
		.s75 { fill: #373d38 } 
		.s76 { opacity: 1;fill: #29291e } 
		.s77 { fill: #545344 } 
		.s78 { fill: #353b3f } 
		.s79 { opacity: 1;fill: #342f19 } 
		.s80 { fill: #857c42 } 
		.s81 { fill: #868777 } 
		.s82 { fill: #42371a } 
		.s83 { opacity: 1;fill: #272416 } 
		.s84 { opacity: .7;fill: #4d4428 } 
		.s85 { opacity: .6;fill: #56513d } 
		.s86 { opacity: 1;fill: #946022 } 
		.s87 { opacity: .7;fill: #3f391f } 
		.s88 { fill: #a26a27 } 
		.s89 { opacity: 1;fill: #a07b2a } 
		.s90 { opacity: .7;fill: #a07629 } 
	</style>
	<g id="Background">
		<path id="Path 0" class="s0" d="m511.3 662.5l3.7-6.3h5 7.5l2.5 8.8-5 2.5z"/>
		<path id="Path 1" class="s1" d="m741.3 650l3.7-6.3 2.5 1.3 1.3 6.3-7.5-0.1z"/>
		<path id="Path 2" class="s2" d="m515 656.3l-3.8-12.5 8.8 3.7v8.8z"/>
		<path id="Path 3" class="s3" d="m748.8 642.5l-1.3-7.5h3.8z"/>
		<path id="Path 4" class="s4" d="m478.8 631.3l6.2-2.5 1.2 7.5 7.5 5-2.5 5-12.5-6.3 2.5-1.2z"/>
		<path id="Path 5" class="s5" d="m703.8 637.5l-8.8-5 2.5-1.3-2.5-3.7h8.8z"/>
		<path id="Path 6" class="s6" d="m736.3 647.5l-11.3-12.5v-8.8l22.5 8.8 1.3 7.5-1.3 2.5-2.5-1.3-3.7 6.3z"/>
		<path id="Path 7" class="s0" d="m715 640l1.3-16.3 5 0.1 3.7 2.5v8.7l11.3 12.5z"/>
		<path id="Path 8" class="s7" d="m258.8 625l3.7-3.8h2.5l5 10.1z"/>
		<path id="Path 9" class="s8" d="m485 628.8l-2.5-10h6.3l7.5 10 12.4 7.5 2.5 7.5 3.8 12.5-3.8 6.2-6.2-1.2v-3.8l-13.8-11.2 2.6-5-7.5-5z"/>
		<path id="Path 10" class="s9" d="m265 621.3l6.3-5h8.7l3.8 7.5h3.7l-2.5 7.5-5 2.5-6.2 1.2h-1.3l-2.5-3.7z"/>
		<path id="Path 11" class="s10" d="m512.5 615l8.8-6.3 3.7 1.3 6.2 25v15l-3.7 6.3-7.5-0.1v-8.7l-8.8-3.8-2.5-7.5 3.8-2.5z"/>
		<path id="Path 12" class="s4" d="m242.5 608.8l11.3-2.5 8.7 3.7v11.3l-3.8 3.7-16.2-13.7z"/>
		<path id="Path 13" class="s11" d="m242.5 611.3h-6.3l-2.5-2.5 2.5-2.5 6.3 2.5z"/>
		<path id="Path 14" class="s12" d="m512.5 615l-7.5-3.8 1.3-7.5h11.2l3.8 5z"/>
		<path id="Path 15" class="s13" d="m253.8 606.3l-0.1-5h6.3l2.5 8.7z"/>
		<path id="Path 16" class="s14" d="m413.8 600l-0.1-1.3 5 0.1h1.3z"/>
		<path id="Path 17" class="s12" d="m280 616.3l-2.5-17.5h12.5l1.3 6.2-0.1 8.8-3.7 10h-3.8z"/>
		<path id="Path 18" class="s15" d="m456.3 603.8l3.7-6.3 10 5v5l7.5 2.5 5 8.8 2.5 10-6.3 2.5-7.5-2.5 1.3-5z"/>
		<path id="Path 19" class="s16" d="m418.8 598.8l-0.1-1.3h5l-3.7 1.3z"/>
		<path id="Path 20" class="s17" d="m397.5 598.8l13.8-1.3 2.4 1.3v1.2h-16.2z"/>
		<path id="Path 21" class="s18" d="m506.3 603.8l-7.6-3.8v-3.7h3.8l13.7 1.2 7.5 6.3 1.3 6.2-3.8-1.2-3.7-5z"/>
		<path id="Path 22" class="s16" d="m425 597.5l11.3-1.3 3.7 3.8z"/>
		<path id="Path 23" class="s19" d="m411.3 597.5l6.2-2.5 1.2 2.5v1.3l-5-0.1z"/>
		<path id="Path 24" class="s20" d="m952.5 595h10l-1.3 2.5z"/>
		<path id="Path 25" class="s21" d="m498.8 596.3l-1.3-2.5h2.5 10 2.5l-10 2.5z"/>
		<path id="Path 26" class="s22" d="m948.8 593.8l3.7-1.3v2.5z"/>
		<path id="Path 27" class="s23" d="m470 602.5v-10l27.5 1.3 1.3 2.5-0.1 3.7 7.5 3.8-1.2 7.5 7.5 3.7v18.8l-3.8 2.4-12.5-7.5-7.5-10h-6.2l-5-8.7-7.5-2.5z"/>
		<path id="Path 28" class="s13" d="m668.8 597.5l-3.8-6.3 20 5 17.5 11.3 13.8 16.3-1.3 16.2-11.2-2.5v-10l-5-8.8-15-7.5z"/>
		<path id="Path 29" class="s15" d="m653.8 601.3l-2.5-8.8 5-1.2 12.5 6.2 15 13.8 15 7.5 5 8.7h-8.8l-7.5-6.2-5 1.2v-5l-12.5-11.2-11.2-5 3.7 5-2.5 1.2z"/>
		<path id="Path 30" class="s24" d="m447.5 596.3l2.5-5h7.5l2.5 6.2-3.8 6.3z"/>
		<path id="Path 31" class="s25" d="m945 593.8l-8.8-3.8h2.6z"/>
		<path id="Path 32" class="s26" d="m537.5 591.3l1.3-1.3h5z"/>
		<path id="Path 33" class="s8" d="m457.5 591.3l3.8-1.3 8.7 2.5v10l-10-5z"/>
		<path id="Path 34" class="s27" d="m741.3 651.3l-26.3-3.8-20-10-36.2-26.2-15-6.3-16.3-16.2 8.8 1.2 3.7 2.5 2.5 5 3.8-3.7 7.5 7.5 6.2 6.2 2.5-1.2-3.7-5 11.2 5 12.5 11.2v5l5-1.2 7.5 6.2 2.5 3.8-2.5 1.2 8.8 5 11.2 2.5 21.3 7.5 5 2.5z"/>
		<path id="Path 35" class="s27" d="m436.3 596.3l-0.1-5 6.3-2.5 5 7.5 8.7 7.5 16.3 20-1.3 5 7.5 2.5 2.5 7.5-2.5 1.2 12.5 6.3 13.8 11.2v3.8l6.2 1.2 13.8 5-5 2.5-18.8-5-23.7-18.7-2.5-2.5-16.3-23.8-7.5-5-2.5-8.7-8.7-6.3z"/>
		<path id="Path 36" class="s3" d="m572.5 588.8l5-1.3h3.8z"/>
		<path id="Path 37" class="s28" d="m640 592.5l2.5-6.3h7.5l6.3 5-5 1.3 2.5 8.8-7.5-7.6-3.8 3.8z"/>
		<path id="Path 38" class="s29" d="m636.3 590l3.7-3.8h2.5l-2.5 6.3z"/>
		<path id="Path 39" class="s2" d="m685 596.3l-2.5-7.5 7.5-3.8 6.3 1.3 23.7 18.7 1.3 18.8h-5l-13.8-16.3z"/>
		<path id="Path 40" class="s30" d="m927.5 585l-5-3.8h1.3l9.9 2.5 5 6.3h-2.5l-5-2.5z"/>
		<path id="Path 41" class="s31" d="m622.5 588.8l2.5-7.5h15v5l-3.8 3.7-8.7-1.2z"/>
		<path id="Path 42" class="s32" d="m640 581.3l8.8-1.3 1.2 6.3h-7.5-2.5z"/>
		<path id="Path 43" class="s25" d="m205 578.8l-6.3-1.3h3.8z"/>
		<path id="Path 44" class="s33" d="m922.5 581.3l-7.5-5h7.5l1.3 5z"/>
		<path id="Path 45" class="s31" d="m510 593.8v-17.5h20l8.8 13.7-1.3 1.3h-3.8l-5 1.2h-3.7l-7.5 1.3h-5z"/>
		<path id="Path 46" class="s33" d="m427.5 577.5l7.5-1.3 12.5 0.1 5 1.2 8.8 12.5-3.8 1.3h-7.5l-2.5 5-5-7.5-6.3 2.5v5l-11.2 1.2z"/>
		<path id="Path 47" class="s34" d="m922.5 576.3v-1.3h6.3l5 8.8-10.1-2.5z"/>
		<path id="Path 48" class="s35" d="m500 575l5-1.3 5 2.5v17.6l-10-0.1z"/>
		<path id="Path 49" class="s36" d="m452.5 577.5l1.3-3.8 23.7 2.5 7.5-2.5 15 1.3v18.8l-2.5-0.1-27.5-1.2-8.8-2.5z"/>
		<path id="Path 50" class="s30" d="m330 576.3l1.3-2.5h16.2l5 6.2-5 6.3h-6.2l-8.8-2.5z"/>
		<path id="Path 51" class="s25" d="m913.8 575l-5-2.5h2.5z"/>
		<path id="Path 52" class="s12" d="m696.3 586.3l5-8.8 8.7-5 10 1.3 1.3 11.2 8.7 5 2.5 23.8 7.5 5 3.8 10 7.5 2.5v3.7h-3.8l-22.5-8.7-3.7-2.5-1.3-18.8z"/>
		<path id="Path 53" class="s25" d="m908.8 572.5l-3.8-1.3 2.5 0.1z"/>
		<path id="Path 54" class="s37" d="m265 573.8l5-2.5 15 3.7 3.8 17.5 1.2 6.3h-12.5l-3.8-2.5 0.1-7.5-8.8-6.3z"/>
		<path id="Path 55" class="s14" d="m967.5 571.3l1.3-1.3-1.3 10z"/>
		<path id="Path 56" class="s11" d="m952.5 592.5l2.5-7.5 7.5-1.3v-13.7l5 1.2v8.8l-5 15h-10z"/>
		<path id="Path 57" class="s38" d="m907.5 571.3l3.8-2.5v3.7h-2.5z"/>
		<path id="Path 58" class="s39" d="m477.5 576.3v-7.5h7.5v5z"/>
		<path id="Path 59" class="s30" d="m372.5 571.3l8.8 1.2 4.9-3.7 6.3 2.5 3.7 5h8.8l3.7-5 8.8 2.5 10 3.7-2.5 20h-1.3-5l-1.2-2.5-6.3 2.5-13.7 1.3v-6.3l-7.5-6.2h-15l-3.8-5z"/>
		<path id="Path 60" class="s40" d="m290 571.3l12.5 6.2 1.3-8.7 6.2 1.2 2.5 7.5 17.5-1.2 2.5 7.5 8.8 2.5h6.2l5-6.3 18.8 1.3 3.7 5h15l7.5 6.2v6.3 1.2h-3.8l-33.7-1.2h-2.5l-8.8-1.3h-8.7l-6.2-1.2-12.5-1.3-8.8-1.2-8.7-1.3-5-1.2h-5l-5 1.2-3.8-17.5z"/>
		<path id="Path 61" class="s39" d="m265 573.8l1.3-6.3h3.7v3.8z"/>
		<path id="Path 62" class="s24" d="m911.3 568.8l2.5-2.5 7.5 2.5 1.2 6.2v1.3h-7.5l-1.2-1.3-2.5-2.5z"/>
		<path id="Path 63" class="s41" d="m572.5 568.8l37.5-2.5 15 10v5l-2.5 7.5-30-1.3h-3.8-2.5-3.7-1.3-3.7z"/>
		<path id="Path 64" class="s33" d="m290 571.3l2.5-5 11.3 2.5-1.3 8.7z"/>
		<path id="Path 65" class="s41" d="m485 568.8l3.8-3.8h11.2l5 1.3v7.5l-5 1.2-15-1.2z"/>
		<path id="Path 66" class="s33" d="m310 570l7.5-5h7.5l6.3 8.8-1.3 2.4-17.5 1.3z"/>
		<path id="Path 67" class="s42" d="m505 566.3l5-2.5h6.3l16.2 2.5 17.5 5 22.5-2.5 5 18.7-5 1.3h-11.3l-4.9 1.2h-12.5-5l-8.8-13.7h-20l-5-2.5z"/>
		<path id="Path 68" class="s35" d="m435 565l7.5-1.3 3.8 0.1 1.2 12.4h-12.5z"/>
		<path id="Path 69" class="s37" d="m270 563.8v3.7h-3.8v-3.7z"/>
		<path id="Path 70" class="s42" d="m655 566.3l12.5-3.8v3.8l-2.5 6.2-8.8 1.3z"/>
		<path id="Path 71" class="s35" d="m408.8 566.3l6.2-3.8 2.5 1.3v10l-8.8-2.5z"/>
		<path id="Path 72" class="s33" d="m392.5 565l10 3.8 3.8-6.3 2.5 3.8v5l-3.8 5h-8.8l-3.7-5z"/>
		<path id="Path 73" class="s33" d="m347.5 563.8l3.8-1.3 3.7 7.5 17.5 1.3-1.3 10-18.7-1.3-5-6.2z"/>
		<path id="Path 74" class="s43" d="m171.3 563.8l29.9 10 1.3 3.7h-3.8l-5-1.2-1.2-1.3-6.3-1.2-15-6.3z"/>
		<path id="Path 75" class="s4" d="m962.5 570v-8.8l5 0.1 1.3 8.7-1.3 1.3z"/>
		<path id="Path 76" class="s44" d="m903.8 563.8v-2.5h7.5l2.5 5-2.5 2.5-3.8 2.5h-2.5l2.5-5z"/>
		<path id="Path 77" class="s36" d="m417.5 563.8l10-2.5 7.5 3.7v11.3l-7.5 1.2-10-3.7z"/>
		<path id="Path 78" class="s2" d="m260 601.3v-8.8l-6.3-12.5-5-2.5-1.2-16.2h10l8.8 2.5-0.1 3.7-1.2 6.3v8.7l8.7 6.3v7.5l3.8 2.5 2.5 17.5h-8.8l-6.2 5h-2.5v-11.3z"/>
		<path id="Path 79" class="s21" d="m150 562.5l7.5-1.3v1.3z"/>
		<path id="Path 80" class="s44" d="m208.8 571.3l-5.1-11.3 11.3 5 38.7 36.3v5l-11.2 2.5-6.3-2.5-20-23.8-2.5-10z"/>
		<path id="Path 81" class="s38" d="m888.8 560l5-1.3 5 7.5 5-2.5 3.7 2.5-2.5 5-16.2-8.7z"/>
		<path id="Path 82" class="s45" d="m667.5 566.3h10l12.5-7.5h2.5l-2.5 26.2-7.5 3.8 2.5 7.5-20-5 3.8 6.2-12.6-6.2-6.2-5-1.3-6.3 7.5-6.2 8.8-1.3z"/>
		<path id="Path 83" class="s46" d="m446.3 563.8l6.2-5h10l12.5 2.5 2.5 7.5v7.5l-23.8-2.5-1.2 3.7-5-1.2z"/>
		<path id="Path 84" class="s36" d="m270 563.8l3.8-6.3h5l13.7 8.8-2.5 5-5 3.7-15-3.7v-3.8z"/>
		<path id="Path 85" class="s1" d="m157.5 561.3l10-3.8v5l3.8 1.3v3.7l-6.3-2.5-3.8-1.2-3.7-1.3z"/>
		<path id="Path 86" class="s39" d="m692.5 558.8l3.8-2.5h13.7v16.2l-8.8 5-4.9 8.8-6.3-1.3z"/>
		<path id="Path 87" class="s28" d="m415 562.5l1.3-6.3h3.7 5l2.5 5-10 2.5z"/>
		<path id="Path 88" class="s47" d="m500 555l10-1.3v10.1l-5 2.5-5-1.3z"/>
		<path id="Path 89" class="s23" d="m215 565v-11.3l21.3 2.6 11.2 5 1.3 16.2 5 2.5 6.2 12.5v8.8h-6.3z"/>
		<path id="Path 90" class="s48" d="m131.3 560l-0.1-6.3h3.8l5 2.5v5z"/>
		<path id="Path 91" class="s32" d="m877.5 553.8l3.8-1.3 6.2 2.5 1.3 5-0.1 2.5-11.2-3.7z"/>
		<path id="Path 92" class="s33" d="m873.8 556.3v-3.8l3.7 1.3v5z"/>
		<path id="Path 93" class="s36" d="m325 565v-12.5l7.5 1.3 7.5 12.4 7.5-2.5v10h-16.3z"/>
		<path id="Path 94" class="s35" d="m317.5 553.8l7.5-1.3v12.5h-7.5z"/>
		<path id="Path 95" class="s49" d="m122.5 557.5l-1.3-5 7.5 3.8 0.1 3.7z"/>
		<path id="Path 96" class="s36" d="m690 558.8v-7.5h5l1.3 5-3.8 2.5z"/>
		<path id="Path 97" class="s31" d="m667.5 562.5l10-10 10-1.3 2.5 0.1v7.5l-12.5 7.5h-10z"/>
		<path id="Path 98" class="s50" d="m516.3 563.8l3.7-12.5h12.5v15z"/>
		<path id="Path 99" class="s46" d="m510 553.8v-2.5h10l-3.8 12.5h-6.2z"/>
		<path id="Path 100" class="s51" d="m405 552.5l2.5-1.3 8.8 5-1.3 6.3-6.3 3.8-2.5-3.8z"/>
		<path id="Path 101" class="s28" d="m392.5 565l-2.5-13.8 15 1.3 1.3 10-3.8 6.3z"/>
		<path id="Path 102" class="s46" d="m360 553.8l12.5-2.5h17.5l2.5 13.7v6.3l-6.3-2.5-5 3.7-8.7-1.2-17.5-1.3-3.8-7.5 1.3-7.5z"/>
		<path id="Path 103" class="s52" d="m332.5 553.8l2.5-2.5h10l7.5 3.7-1.3 7.5-3.7 1.3-7.5 2.5z"/>
		<path id="Path 104" class="s0" d="m203.8 560l-3.8-11.3 11.2 0.1 3.8 5v11.2z"/>
		<path id="Path 105" class="s53" d="m115 555l2.5-2.5-3.8-3.8h6.3l1.3 3.8 1.2 5z"/>
		<path id="Path 106" class="s43" d="m861.3 551.3l1.2-3.8 11.3 3.8v1.2 3.8z"/>
		<path id="Path 107" class="s54" d="m475 556.3l16.3-8.8 8.7 7.5v10h-11.3l-3.7 3.8h-7.5l-2.5-7.5z"/>
		<path id="Path 108" class="s31" d="m258.8 548.8h12.4l2.5 8.7-3.7 6.3h-3.8l-8.7-2.5z"/>
		<path id="Path 109" class="s27" d="m171.3 552.5l18.7 1.3 2.5-6.3 7.5 1.2 3.7 11.3 5 11.3 5 1.2 2.5 10 20 23.8-2.5 2.4 2.5 2.5h6.3l16.2 13.8 11.3 6.2 2.5 3.8-5 1.2-1.3-3.7-12.5-2.5-11.2-7.5-6.3-5-1.2-1.3-16.3-17.5-1.2-1.2-5-7.5-3.8-5-1.2-3.8-2.5-2.5-2.5-1.2-1.3-3.8-30-10-3.7-1.2v-5z"/>
		<path id="Path 110" class="s55" d="m462.5 558.8v-12.5h10l3.8 3.7-1.3 6.3v5z"/>
		<path id="Path 111" class="s56" d="m462.5 546.3v12.5h-10v-12.5z"/>
		<path id="Path 112" class="s57" d="m120 548.8v-2.5h2.5 12.5v7.5h-3.8v6.2h-2.5v-3.7l-7.5-3.8z"/>
		<path id="Path 113" class="s58" d="m113.8 548.8l-1.3-2.5h7.5v2.5z"/>
		<path id="Path 114" class="s54" d="m345 546.3l12.5-1.3 2.5 8.8-7.5 1.2-7.5-3.7z"/>
		<path id="Path 115" class="s59" d="m97.5 551.3l2.5-6.3h11.3l1.2 1.3 1.2 2.5 3.8 3.7-2.5 2.5-12.5-2.5z"/>
		<path id="Path 116" class="s6" d="m720 573.8l2.5-10 20-20 7.5 1.2 6.3 1.3 13.7 2.5-1.2 3.7-1.3 6.3-13.8 16.2-6.2 18.8 3.8 37.5-7.5-2.5-3.8-10-7.5-5-2.5-23.8-8.7-5z"/>
		<path id="Path 117" class="s42" d="m695 551.3v-7.5h10l7.5 5-2.5 7.5h-13.8z"/>
		<path id="Path 118" class="s60" d="m420 556.3l1.3-12.5h12.4l8.8 12.5v7.5l-7.5 1.2-7.5-3.7-2.5-5z"/>
		<path id="Path 119" class="s54" d="m316.3 545l17.4-1.3 1.3 7.5-2.5 2.5-7.5-1.2-7.5 1.3z"/>
		<path id="Path 120" class="s31" d="m287.5 545l10 6.3 15-7.5 3.8 1.2 1.2 8.8v11.2l-7.5 5-6.3-1.2-11.2-2.5-13.8-8.8 0.1-7.5z"/>
		<path id="Path 121" class="s37" d="m712.5 548.8h12.5l12.5-6.3 5 1.3-20 20-2.5 10-10-1.3v-16.2z"/>
		<path id="Path 122" class="s52" d="m535 543.8l7.5-1.3 7.5 1.3v27.5l-17.5-5v-15z"/>
		<path id="Path 123" class="s61" d="m90 550l-1.3-7.5 11.3 2.5-2.5 6.3z"/>
		<path id="Path 124" class="s47" d="m686.3 543.8l1.2-2.5 7.5 2.5v7.5h-5-2.5z"/>
		<path id="Path 125" class="s53" d="m333.8 543.8l-0.1-2.5h8.8l2.5 5v5h-10z"/>
		<path id="Path 126" class="s30" d="m122.5 546.3v-5l7.5 1.2 10 1.3-5 2.5z"/>
		<path id="Path 127" class="s21" d="m737.5 540v-1.3l3.8 0.1z"/>
		<path id="Path 128" class="s28" d="m535 543.8v-5h6.3l1.2 3.7z"/>
		<path id="Path 129" class="s51" d="m520 551.3l-1.3-12.5h11.3 5v5l-2.5 7.5z"/>
		<path id="Path 130" class="s62" d="m510 551.3v-8.8l5-3.7h3.8l1.2 12.5z"/>
		<path id="Path 131" class="s60" d="m357.5 545l2.5-5 11.3-1.3 1.2 12.6-12.5 2.5z"/>
		<path id="Path 132" class="s47" d="m287.5 545v-6.3h10 10l5 1.3v3.8l-15 7.5z"/>
		<path id="Path 133" class="s19" d="m236.3 556.3l-0.1-17.5h12.5l10 10-1.2 12.5h-10z"/>
		<path id="Path 134" class="s11" d="m880 538.8l2.5-1.3 13.8 5 7.4 5-2.5 11.3 2.5 2.5v2.5l-5 2.5-5-7.5-5 1.2-1.2-5-6.3-2.5z"/>
		<path id="Path 135" class="s21" d="m743.8 538.8v-1.3h3.7z"/>
		<path id="Path 136" class="s51" d="m606.3 538.8l1.2-2.5h7.5v5z"/>
		<path id="Path 137" class="s63" d="m406.3 541.3l4.9-5h7.5l2.5 7.5-1.2 12.5h-3.8l-8.7-5z"/>
		<path id="Path 138" class="s28" d="m278.8 550l-2.6-13.8 11.3 2.6v6.2z"/>
		<path id="Path 139" class="s30" d="m170 538.8l12.5-2.5h2.5 2.5v6.2h5v5l-2.5 6.3-18.8-1.3h-11.2l11.3-8.7z"/>
		<path id="Path 140" class="s64" d="m873.8 551.3l-3.8-16.3 5 1.3 5 2.5 1.3 13.7-3.8 1.3-3.7-1.3z"/>
		<path id="Path 141" class="s46" d="m557.5 542.5l10 1.3 3.8-8.8h3.7l8.8 1.3-0.1 7.5 8.8 3.7 5 7.5 20 2.5 7.5 7.5 30 1.3 1.2 7.5-7.5 6.2-8.7 1.3h-15v-5l-15-10.1-37.5 2.5-22.5 2.5v-27.4-1.3z"/>
		<path id="Path 142" class="s57" d="m371.3 538.8h13.7l3.7-3.8 10 1.3 2.5 5h5l1.3 10-2.5 1.2-15-1.2h-17.5z"/>
		<path id="Path 143" class="s65" d="m312.5 540l8.8-5 8.7 1.3 3.8 5v2.5l-17.6 1.2-3.7-1.3z"/>
		<path id="Path 144" class="s66" d="m826.3 535l-10-1.3 10 0.1z"/>
		<path id="Path 145" class="s46" d="m707.5 536.3l25-2.5 5 5v1.2 2.5l-12.5 6.3h-12.5l-7.5-5 1.3-7.5z"/>
		<path id="Path 146" class="s16" d="m60 537.5l-6.3-3.8h1.3z"/>
		<path id="Path 147" class="s44" d="m875 536.3l-1.3-3.8h6.3l2.5 5-2.5 1.3z"/>
		<path id="Path 148" class="s26" d="m812.5 533.8l-17.5-1.3h8.8z"/>
		<path id="Path 149" class="s26" d="m775 533.8v-1.3h5z"/>
		<path id="Path 150" class="s49" d="m187.5 536.3l8.8-2.5-1.3 5 5 2.5v7.5l-7.5-1.3v-5h-5z"/>
		<path id="Path 151" class="s64" d="m687.5 541.3v-10h13.8l4.9 5-1.2 7.5h-10z"/>
		<path id="Path 152" class="s64" d="m236.3 538.8l-1.3-7.5h7.5 7.5v1.2l-1.3 6.3z"/>
		<path id="Path 153" class="s47" d="m203.8 532.5l21.2-1.3 10 0.1 1.2 7.5v17.4l-21.2-2.4-3.8-5h-11.2v-7.5z"/>
		<path id="Path 154" class="s64" d="m196.3 533.8l2.4-2.5 5 1.2-3.7 8.8-5-2.5z"/>
		<path id="Path 155" class="s48" d="m55 533.8v-2.5h2.5l31.3 11.2 1.2 7.5-30-12.5z"/>
		<path id="Path 156" class="s63" d="m433.8 543.8l3.7-13.8 10 1.3v11.2l5 3.8v12.5l-6.3 5h-3.7v-7.5z"/>
		<path id="Path 157" class="s54" d="m250 532.5l12.5-2.5 10 1.3 3.8 5 2.5 13.7v7.5h-5l-2.5-8.8-12.6 0.1-9.9-10z"/>
		<path id="Path 158" class="s50" d="m615 536.3l17.5-7.5v12.5h-17.5z"/>
		<path id="Path 159" class="s52" d="m588.8 530l7.5-1.3 3.7 10.1h6.3l8.7 2.5h17.5l6.3 7.5h8.7l3.8-3.8v-8.8l8.7-2.4 16.3 2.5 5 7.5h5l1.2 7.5-10 1.2-10 10-12.5 3.8-30-1.3-7.5-7.5-20-2.5-5-7.5-8.7-3.7v-7.5l5-1.3z"/>
		<path id="Path 160" class="s49" d="m147.5 538.8l10-10 6.3 5-1.3 5h7.5l1.3 5-11.3 8.7h11.3l-3.8 5-10 3.8-7.5 1.2-10-1.2v-5l10-10z"/>
		<path id="Path 161" class="s53" d="m130 542.5l1.3-13.8 8.7 0.1 1.3 8.7 6.2 1.3 2.5 7.5-10 10-5-2.5v-7.5l5-2.5z"/>
		<path id="Path 162" class="s63" d="m120 537.5l1.3-8.8 6.2 0.1h3.8l-1.3 13.7-7.5-1.2z"/>
		<path id="Path 163" class="s62" d="m632.5 528.8l2.5-1.3 16.3 8.8-0.1 8.7-3.7 3.8h-8.8l-6.2-7.5z"/>
		<path id="Path 164" class="s51" d="m560 528.8l8.8-1.3 2.4 7.5-3.7 8.8-10-1.3-1.3-11.2z"/>
		<path id="Path 165" class="s1" d="m103.8 531.3l2.5-3.8 13.7 10 2.5 3.8v5h-2.5-7.5l-1.2-1.3-7.5-11.2z"/>
		<path id="Path 166" class="s44" d="m880 530h-6.3l1.3-3.8h3.8l2.5 2.5z"/>
		<path id="Path 167" class="s50" d="m660 533.8v-7.5h21.3l6.2 5v10l-1.3 2.5h-5l-5-7.5z"/>
		<path id="Path 168" class="s63" d="m388.8 535l1.2-8.8 7.5 0.1 3.7 1.2-2.5 8.8z"/>
		<path id="Path 169" class="s48" d="m307.5 538.8v-6.3l11.3-6.2 2.4 2.5v6.2l-8.7 5z"/>
		<path id="Path 170" class="s62" d="m568.8 527.5l6.2-2.5v10h-3.7z"/>
		<path id="Path 171" class="s67" d="m185 536.3l7.5-11.3 5 1.3 1.3 5-2.5 2.5-8.8 2.5z"/>
		<path id="Path 172" class="s40" d="m57.5 531.3v-6.3h12.5l10 1.3 23.8 7.5 7.4 11.2h-11.2l-11.3-2.5z"/>
		<path id="Path 173" class="s46" d="m792.5 532.5v-8.8l7.5 0.1 3.8 1.2v7.5h-8.8z"/>
		<path id="Path 174" class="s41" d="m775 532.5v-8.8l15 0.1h2.5v8.7h-12.5z"/>
		<path id="Path 175" class="s34" d="m548.8 535l-8.8-1.3v-9.9h10z"/>
		<path id="Path 176" class="s68" d="m491.3 547.5l-0.1-8.8 15-14.9h8.8v15l-5 3.7v8.8 2.5l-10 1.2z"/>
		<path id="Path 177" class="s69" d="m437.5 530v-6.3h12.5l-2.5 7.5z"/>
		<path id="Path 178" class="s5" d="m80 526.3v-3.8h3.8 6.2l13.8 8.8-0.1 2.5z"/>
		<path id="Path 179" class="s30" d="m55 531.3l-10-6.3 10-2.5 2.5 2.5v6.3z"/>
		<path id="Path 180" class="s70" d="m881.3 528.8l5-7.5h1.2l10 12.5-1.2 8.7-13.8-5-2.5-5v-2.5z"/>
		<path id="Path 181" class="s50" d="m575 525l6.3-3.8 6.2 2.5 1.3 6.3-0.1 5-5 1.3-8.7-1.3z"/>
		<path id="Path 182" class="s71" d="m242.5 523.8l2.5-2.5 6.3 2.5-1.3 7.5h-7.5z"/>
		<path id="Path 183" class="s48" d="m70 525v-3.8l10 1.3v3.8z"/>
		<path id="Path 184" class="s54" d="m732.5 522.5l10-2.5 1.3 17.5-0.1 1.3-2.5-0.1h-3.7l-5-5z"/>
		<path id="Path 185" class="s72" d="m321.3 528.8l26.2-8.8 20 3.8 6.2-2.5h13.8l2.5 5-1.3 8.7-3.7 3.8h-13.8l-11.2 1.2-2.5 5-12.5 1.3-2.5-5h-8.8l-3.7-5-8.8-1.3z"/>
		<path id="Path 186" class="s54" d="m878.8 526.3l1.2-7.5 6.3 2.5-5 7.5z"/>
		<path id="Path 187" class="s31" d="m828.8 520l11.2-1.3 8.8 1.3 12.5 11.3 1.2 16.2-1.2 3.8-35-16.3v-1.2z"/>
		<path id="Path 188" class="s52" d="m742.5 520l12.5-1.3 13.8 0.1 6.2 5v8.7 1.3l-27.5 3.7h-3.8z"/>
		<path id="Path 189" class="s73" d="m607.5 536.3v-10l-5-7.5 17.5 2.5 2.5-2.5h7.5l5 2.5v6.2l-2.5 1.3-17.5 7.5z"/>
		<path id="Path 190" class="s53" d="m450 523.8l2.5-5 8.8 1.2 3.7 13.8-2.5 12.5h-10l-5-3.8v-11.2z"/>
		<path id="Path 191" class="s5" d="m367.5 523.8v-5l6.3 2.5z"/>
		<path id="Path 192" class="s50" d="m710 522.5l10-6.3 12.5 6.3v11.3l-25 2.4z"/>
		<path id="Path 193" class="s68" d="m530 538.8v-22.5h5l5 7.5v10l8.8 1.2 1.2 7.5v1.3l-7.5-1.3-1.3-3.7h-6.2z"/>
		<path id="Path 194" class="s73" d="m225 531.3v-15h2.5l8.8 7.5h6.2v7.5h-7.5z"/>
		<path id="Path 195" class="s5" d="m55 522.5v-6.3h2.5l12.5 5v3.8h-12.5z"/>
		<path id="Path 196" class="s51" d="m662.5 516.3l10-2.5h5l3.8 12.5h-21.3v-5z"/>
		<path id="Path 197" class="s68" d="m630 518.8v-5h5 10l1.3 5 13.7 2.5v5 7.5l-8.8 2.5-16.2-8.8v-6.2z"/>
		<path id="Path 198" class="s56" d="m622.5 516.3l2.5-2.5h5v5h-7.5z"/>
		<path id="Path 199" class="s74" d="m550 523.8v-10l10 2.5v12.5l-3.8 2.5 1.3 11.2h-7.5l-1.3-7.5z"/>
		<path id="Path 200" class="s56" d="m515 523.8v-10h5l10 2.5v22.5h-11.3-3.7z"/>
		<path id="Path 201" class="s57" d="m506.3 523.8l-1.3-10h10v10z"/>
		<path id="Path 202" class="s75" d="m387.5 521.3l1.3-7.5h7.5l1.2 12.5h-7.5z"/>
		<path id="Path 203" class="s43" d="m57.5 516.3l10-2.5 10 2.5 6.3 2.5v3.7h-3.8l-10-1.2z"/>
		<path id="Path 204" class="s63" d="m32.5 518.8l3.8-5h17.4l1.3 2.5v6.2l-10 2.5 10 6.3v2.5h-1.2l-10-6.3-2.5-1.2-3.8-3.8z"/>
		<path id="Path 205" class="s42" d="m790 515l2.5-2.5 7.5 2.5v8.8l-7.5-0.1h-2.5z"/>
		<path id="Path 206" class="s52" d="m802.5 512.5l15-1.3 7.5 0.1 3.8 8.7-2.5 13.8h-10.1-3.7l-8.8-1.3 0.1-7.5-3.8-1.3v-8.7z"/>
		<path id="Path 207" class="s74" d="m645 513.8l15-2.5 2.5 5-2.5 5-13.8-2.5z"/>
		<path id="Path 208" class="s69" d="m245 521.3v-10h17.5v18.7l-12.5 2.5v-1.2l1.3-7.5z"/>
		<path id="Path 209" class="s57" d="m157.5 528.8l2.5-17.5h2.5 10l-2.5 17.5h5l2.5 6.2 5 1.3-12.5 2.5h-7.5l1.3-5z"/>
		<path id="Path 210" class="s72" d="m145 515l6.3-3.8h8.7l-2.5 17.6-10 9.9-6.2-1.2-1.3-8.8z"/>
		<path id="Path 211" class="s5" d="m67.5 513.8v-2.5h3.8l6.2 5z"/>
		<path id="Path 212" class="s53" d="m210 512.5l7.5-2.5 7.5 6.3v14.9l-21.3 1.3-4.9-1.3-1.3-5-5-1.2-1.2-6.3 6.2-5z"/>
		<path id="Path 213" class="s57" d="m55 511.3l6.3-0.1h6.2v2.5l-10 2.5h-2.5l-1.3-2.5z"/>
		<path id="Path 214" class="s76" d="m602.5 518.8l-7.5-3.8v-6.2h20l7.5 7.5v2.5l-2.5 2.5z"/>
		<path id="Path 215" class="s68" d="m582.5 511.3l7.5-2.6h5v6.3l7.5 3.7 5 7.5v10l-1.3 2.5h-6.2l-3.8-10-7.5 1.3-1.2-6.3-6.3-2.5z"/>
		<path id="Path 216" class="s55" d="m127.5 510l10-1.3 7.5 6.3-5 13.8-8.8-0.1h-3.7z"/>
		<path id="Path 217" class="s14" d="m61.3 511.3l11.2-3.8-1.2 3.7h-3.8z"/>
		<path id="Path 218" class="s49" d="m817.5 507.5l7.5-1.3v5l-7.5 0.1z"/>
		<path id="Path 219" class="s50" d="m765 512.5l11.3-6.3 6.2 3.8 7.5 5v8.8l-15-0.1-6.3-5h-13.7v-5h5z"/>
		<path id="Path 220" class="s59" d="m461.3 520l13.7-13.8 21.2 0.1 8.8 3.7v3.8l1.2 10-15 15v8.7l-16.2 8.8 1.2-6.3-3.7-3.7h-10l2.5-12.5z"/>
		<path id="Path 221" class="s75" d="m310 507.5l7.5-1.3 2.5 5-1.3 15.1-11.2 6.2v6.3h-10l-3.8-21.3 12.5-3.7z"/>
		<path id="Path 222" class="s72" d="m227.5 516.3v-10h2.5 10l5 5v10l-2.5 2.5h-6.3z"/>
		<path id="Path 223" class="s77" d="m217.5 510v-3.8h10v10.1h-2.5z"/>
		<path id="Path 224" class="s77" d="m755 513.8l-1.3-7.5 5-1.3 1.3 8.8z"/>
		<path id="Path 225" class="s71" d="m758.8 505l7.5 2.5-1.3 5-5 1.3z"/>
		<path id="Path 226" class="s74" d="m505 510l5-6.3 10 2.5v7.5h-5-10z"/>
		<path id="Path 227" class="s75" d="m435 506.3l11.3-2.6 6.2 2.5v12.5l-2.5 5h-12.5z"/>
		<path id="Path 228" class="s60" d="m850 508.8l1.3-6.3h6.2v5z"/>
		<path id="Path 229" class="s19" d="m840 505l3.8-2.5 6.2 6.3 7.5-1.3 6.3 1.3 11.2 17.4-1.2 3.8h6.2v2.5h-6.2l1.2 3.8-5-1.3 3.8 16.3-11.3-3.8-1.2-16.3-12.5-11.2-8.8-1.2z"/>
		<path id="Path 230" class="s34" d="m677.5 503.8v9.9h-5v-10z"/>
		<path id="Path 231" class="s67" d="m661.3 503.8l11.2-0.1v10l-10 2.5-2.5-5z"/>
		<path id="Path 232" class="s75" d="m348.8 506.3l7.4-3.8 11.3 16.2v5l-20-3.7z"/>
		<path id="Path 233" class="s64" d="m880 518.8l3.8-17.5h8.7v13.7l-5 6.3h-1.2z"/>
		<path id="Path 234" class="s55" d="m863.8 508.8l3.7-6.3 7.5-1.3h3.8 5l-3.8 17.5-1.2 7.5h-3.8z"/>
		<path id="Path 235" class="s68" d="m776.3 506.3l1.2-5.1h5v8.8z"/>
		<path id="Path 236" class="s72" d="m677.5 503.8l16.3-2.6 16.2 21.3-2.5 13.7h-1.3l-5-5h-13.7l-6.3-5-3.7-12.5z"/>
		<path id="Path 237" class="s59" d="m397.5 503.8l10-2.6 15 2.5 2.5 3.8 10-1.3 2.5 17.5v6.3l-3.8 13.7h-12.4l-2.5-7.5h-7.5l-5 5h-5l-2.5-5 2.5-8.7-3.8-1.3-1.3-12.5z"/>
		<path id="Path 238" class="s77" d="m387.5 503.8l2.5-2.6 7.5 2.5-1.3 10h-7.5z"/>
		<path id="Path 239" class="s77" d="m275 503.8l10-2.6h2.5v10l-10-1.2z"/>
		<path id="Path 240" class="s72" d="m262.5 511.3l2.5-10.1h3.8l6.2 2.5 2.5 6.3 10 1.2 6.3 6.3 3.7 21.2h-10l-11.3-2.5-3.7-5-10-1.2z"/>
		<path id="Path 241" class="s53" d="m81.3 508.8l3.7-7.6 23.8 12.5 3.7 11.3 8.8 3.7-1.3 8.8-13.7-10z"/>
		<path id="Path 242" class="s69" d="m32.5 518.8l-7.5-6.3v-8.7l5-2.5 11.3 7.5 3.7 1.2h3.7l6.3 1.3-1.3 2.5h-17.4z"/>
		<path id="Path 243" class="s69" d="m792.5 512.5l3.8-13.8 6.2 1.3v12.5l-2.5 2.5z"/>
		<path id="Path 244" class="s71" d="m496.3 506.3l6.2-7.6h5l2.5 5-5 6.3z"/>
		<path id="Path 245" class="s34" d="m356.3 500l12.4-1.3 18.8 5 1.2 10.1-1.2 7.5h-13.8l-6.2-2.5-11.3-16.3z"/>
		<path id="Path 246" class="s75" d="m240 506.3l3.8-7.6h6.2 12.5l2.5 2.5-2.5 10h-17.5z"/>
		<path id="Path 247" class="s53" d="m162.5 511.3v-11.3l6.3-1.3 3.7 3.8v8.7z"/>
		<path id="Path 248" class="s67" d="m802.5 500l10-2.5 5 10v3.8l-15 1.2z"/>
		<path id="Path 249" class="s30" d="m63.8 500l-1.3-2.5 5 1.3 13.8 9.9 25 18.8-2.5 3.7-13.8-8.7h-6.2v-3.8l-6.3-2.5-6.2-5 1.2-3.7-6.2-5z"/>
		<path id="Path 250" class="s55" d="m825 506.3l3.8-10.1h6.2l5 8.8v13.7l-11.3 1.3-3.7-8.8z"/>
		<path id="Path 251" class="s75" d="m635 513.8v-17.5h17.5l8.8 7.5-1.3 7.5-15 2.5z"/>
		<path id="Path 252" class="s63" d="m558.8 498.8l8.7-2.6 3.8 3.8-3.8 6.2h-6.2z"/>
		<path id="Path 253" class="s5" d="m348.8 506.3l-1.3-10.1 8.7 3.8v2.5z"/>
		<path id="Path 254" class="s32" d="m85 501.3v-5.1h5 8.8l13.7 2.5 7.5 2.5 7.5 8.8v18.7h-6.3l-8.7-3.7-3.8-11.3z"/>
		<path id="Path 255" class="s25" d="m63.8 500l-5-3.8 3.7 1.3z"/>
		<path id="Path 256" class="s76" d="m550 496.3l3.8-1.3 5 3.7 2.5 7.5h6.2l3.8-6.2 8.7 2.5 2.5 8.7-1.2 10-6.3 3.8-6.2 2.5-8.8 1.2v-12.5l-10-2.5z"/>
		<path id="Path 257" class="s34" d="m595 508.8l2.5-13.8 18.8-1.3 8.7 7.5v12.5l-2.5 2.5-7.5-7.5z"/>
		<path id="Path 258" class="s34" d="m335 498.8l12.5-5.1v2.5l1.3 10-1.3 13.8-26.3 8.7-2.4-2.5 1.2-15h6.3z"/>
		<path id="Path 259" class="s67" d="m317.5 506.3v-12.6l17.5 5-8.8 12.5h-6.2z"/>
		<path id="Path 260" class="s61" d="m307.5 497.5v-3.8h10v12.6l-7.5 1.2z"/>
		<path id="Path 261" class="s34" d="m287.5 501.3l8.8-7.6 1.2 5 10-1.2 2.5 10-3.8 6.2-12.5 3.8-6.2-6.3z"/>
		<path id="Path 262" class="s67" d="m215 495l2.5-1.3 12.5 2.5v10.1h-2.5-10z"/>
		<path id="Path 263" class="s67" d="m782.5 501.3l3.8-8.8h7.5l2.5 6.2-3.8 13.8-2.5 2.5-7.5-5z"/>
		<path id="Path 264" class="s75" d="m502.5 498.8v-6.3l5 1.2v5z"/>
		<path id="Path 265" class="s61" d="m210 500v-7.5l5 2.5 2.5 11.3v3.7l-7.5 2.5z"/>
		<path id="Path 266" class="s76" d="m875 501.3l-1.3-10.1h5l0.1 10z"/>
		<path id="Path 267" class="s69" d="m812.5 497.5l13.8-6.3 2.4 5-3.7 10.1-7.5 1.2z"/>
		<path id="Path 268" class="s34" d="m250 498.8v-7.6h7.5l5 7.5z"/>
		<path id="Path 269" class="s74" d="m150 491.3l3.8 3.7-3.8 2.5-2.5-6.3z"/>
		<path id="Path 270" class="s65" d="m113.8 495l11.2-3.8h8.8l2.5 7.5 8.7 1.3 6.3 6.3v5l-6.3 3.7-7.5-6.3-10 1.3-7.5-8.8-7.5-2.4z"/>
		<path id="Path 271" class="s57" d="m67.5 498.8l3.8-7.6 16.2 1.3 2.5 3.7h-5v5l-3.7 7.5z"/>
		<path id="Path 272" class="s60" d="m190 491.3l3.8-1.3 8.7 1.2 2.5 7.5 5 1.3v12.5l-12.5 1.2-7.5-12.5z"/>
		<path id="Path 273" class="s70" d="m878.8 491.3l16.2-2.6 1.3 10-3.8 2.5h-8.7-5z"/>
		<path id="Path 274" class="s34" d="m695 496.3l5-6.3 10-1.3 10 15v12.5l-10 6.3-16.3-21.3z"/>
		<path id="Path 275" class="s78" d="m452.5 506.3l3.8-2.6v-10l6.2-5h15 12.5 10l2.5 3.8v6.2l-6.3 7.5h-21.2l-13.8 13.8-8.7-1.3z"/>
		<path id="Path 276" class="s5" d="m296.3 493.8l8.7-5.1 2.5 5v3.8l-10 1.2z"/>
		<path id="Path 277" class="s67" d="m268.8 501.3l3.7-11.3 10-1.3 2.5 12.5-10 2.5z"/>
		<path id="Path 278" class="s79" d="m98.8 496.3l1.2-7.6h5l6.3 1.3 2.5 5-1.3 3.7z"/>
		<path id="Path 279" class="s5" d="m57.5 495l-1.3-7.5 11.3 2.5 3.7 1.3-3.7 7.5-5-1.3-3.8-1.3z"/>
		<path id="Path 280" class="s59" d="m553.8 487.5l13.7-1.3v10.1l-8.7 2.5-5-3.8z"/>
		<path id="Path 281" class="s80" d="m95 487.5l1.3-1.3 8.7 0.1v2.5h-5z"/>
		<path id="Path 282" class="s81" d="m42.5 491.3l-5-6.3 15 1.2 3.8 1.3 1.2 7.5h-6.3l-5-1.3z"/>
		<path id="Path 283" class="s67" d="m550 496.3l-8.8-2.6 2.6-10 10 3.8v7.5z"/>
		<path id="Path 284" class="s74" d="m193.8 490l3.7-6.3h7.5l5 8.8v7.5l-5-1.3-2.5-7.5z"/>
		<path id="Path 285" class="s47" d="m895 488.8l1.3-7.6 7.5 1.3 3.7 6.2h10v13.8l13.8 7.5 8.7 25 10 6.2v7.5l12.5 12.5v8.8 13.7l-7.5 1.3-2.5 7.5-3.8 1.2h-3.7l-6.3-3.7-5-6.3-5-8.7h-6.2l-1.3-6.3-7.5-2.5-2.5-5h-7.5l-2.5-2.5 2.5-11.2-7.5-5 1.3-8.8-10-12.5 5-6.2v-13.8l3.8-2.5z"/>
		<path id="Path 286" class="s53" d="m390 501.3v-20.1h2.5l15 6.3v13.7l-10 2.5z"/>
		<path id="Path 287" class="s80" d="m166.3 486.3l13.7-5.1 6.2 10h3.8v10l7.5 12.5-6.3 5 1.3 6.3-7.5 11.2h-2.5l-5-1.2-2.5-6.3h-5l2.5-17.5v-8.7l-3.8-3.8z"/>
		<path id="Path 288" class="s59" d="m688.8 483.8l3.7-3.8 17.5 1.2v7.5l-10 1.3-5 6.2-6.2-6.2z"/>
		<path id="Path 289" class="s76" d="m637.5 483.8l17.5-5.1 3.8 7.5 29.9-2.5 0.1 6.3 6.2 6.2-1.2 5-16.3 2.5h-5-11.2l-8.8-7.5h-17.5z"/>
		<path id="Path 290" class="s71" d="m477.5 488.8l1.3-6.3 8.7-3.8 2.5 10z"/>
		<path id="Path 291" class="s61" d="m347.5 493.8l5-15.1 32.5 2.5h5v20l-2.5 2.5-18.8-5-12.4 1.3-8.8-3.8z"/>
		<path id="Path 292" class="s61" d="m217.5 493.8v-15.1l20 1.3 12.5 11.2v7.5h-6.3l-3.7 7.5h-10v-10z"/>
		<path id="Path 293" class="s68" d="m125 481.3l25-2.6v12.5h-2.5-13.8-8.7z"/>
		<path id="Path 294" class="s76" d="m67.5 490l3.8-11.3 9.9 0.1 6.3 13.7-16.3-1.2z"/>
		<path id="Path 295" class="s72" d="m205 483.8v-7.6h8.8l3.7 2.5v15l-2.5 1.3-5-2.5z"/>
		<path id="Path 296" class="s64" d="m108.8 477.5l6.2-1.3-3.7 13.8-6.3-1.3v-2.5z"/>
		<path id="Path 297" class="s59" d="m610 476.3l6.3-1.3 2.5 6.2 11.2-3.7 7.5 6.2-2.5 12.5v17.5h-5-5v-12.5l-8.8-7.5-18.7 1.3-2.5 13.7h-5l3.8-27.5 8.7 1.3z"/>
		<path id="Path 298" class="s74" d="m827.5 478.8l3.8-5.1h13.7l5 6.3h7.5l5 8.7 8.8-1.2 2.5 3.7 1.2 10-7.5 1.3-3.8 6.2-6.2-1.2v-5h-6.3l-1.2 6.2-6.3-6.2-3.7 2.5-5-8.8h-6.3l-2.5-5z"/>
		<path id="Path 299" class="s15" d="m96.3 486.3l-2.5-8.8 3.7-3.8 11.3 2.5v1.3l-3.8 8.7z"/>
		<path id="Path 300" class="s55" d="m95 487.5l-5-6.3 3.8-7.5h3.7l-3.8 3.8 2.5 8.8z"/>
		<path id="Path 301" class="s67" d="m655 478.8l1.3-7.6 36.2 3.8v5l-3.8 3.7-30 2.5z"/>
		<path id="Path 302" class="s60" d="m385 481.3v-10.1h7.5v10h-2.5z"/>
		<path id="Path 303" class="s76" d="m37.5 485v-5l8.8-8.8 4.9 3.8 1.3 11.3z"/>
		<path id="Path 304" class="s13" d="m917.5 488.8l5-16.3 6.3-2.5 11.2 11.2 2.5 16.3 13.8 11.2 1.2 15 7.5 2.5 1.3 15 1.2 20h-5l-12.5-12.5v-7.5l-10-6.2-8.8-25-13.7-7.5z"/>
		<path id="Path 305" class="s28" d="m108.8 476.3l2.5-6.3 3.7 6.2-6.2 1.3z"/>
		<path id="Path 306" class="s62" d="m786.3 475l6.2-6.3 7.5 6.3z"/>
		<path id="Path 307" class="s48" d="m610 476.3v-7.6l20 2.5v6.3l-11.3 3.7-2.4-6.2z"/>
		<path id="Path 308" class="s73" d="m150 478.8v-6.3l7.5-5 10 3.7-1.3 15 2.5 12.5-6.2 1.3v11.2h-2.5-8.8l0.1-5-6.3-6.2-8.8-1.3-2.4-7.5h13.7l2.5 6.3 3.8-2.5-3.8-3.8z"/>
		<path id="Path 309" class="s32" d="m97.5 473.8l3.8-6.3 9.9 2.5-2.5 6.2z"/>
		<path id="Path 310" class="s56" d="m692.5 475l3.8-10h6.2l15 10-1.3 6.3h-6.2l-17.5-1.3z"/>
		<path id="Path 311" class="s61" d="m630 471.3l1.3-5.1 6.2-1.2 5 3.7 11.3-2.5 2.4 5-1.2 7.5-17.5 5-7.5-6.2z"/>
		<path id="Path 312" class="s48" d="m213.8 476.3l-1.3-11.3h12.5l15 1.2 17.5 1.3 18.7 2.5 18.8 2.5 21.2 6.2 8.8-1.2 10 1.2h17.5l-5 15-12.5 5-17.5-5h-10l-2.5-5-8.8 5-8.7 7.5h-2.5l-2.5-12.5-10 1.3-3.8 11.2h-3.7l-2.5-2.5-5-7.5h-7.5l-12.5-11.2-20-1.3z"/>
		<path id="Path 313" class="s67" d="m593.8 481.3l-6.3-11.3 1.3-6.3h6.2l15 5v7.5l-7.5 6.3z"/>
		<path id="Path 314" class="s82" d="m800 467.5v-6.3h7.5v7.5z"/>
		<path id="Path 315" class="s76" d="m702.5 465v-3.8l15 2.5 5 5 8.8-3.7 28.7 6.3 26.3 3.7h13.7l7.5-1.3 12.5 0.1 2.5 5h5l-1.3 12.4-13.7 6.3-10 2.5-6.3-1.3-2.5-6.2h-7.5l-3.7 8.8-5-0.1-1.3 5-11.2 6.3 1.2-5-7.5-2.5-5 1.2 1.3 7.5v5l-12.5 1.3-10 2.5-12.5-6.3v-12.5l-10-15v-7.5h6.2l1.3-6.2z"/>
		<path id="Path 316" class="s71" d="m728.8 493.8l11.2 2.4v5l-12.5 5z"/>
		<path id="Path 317" class="s74" d="m485 467.5l2.5-6.3 6.3 2.5-1.3 3.8z"/>
		<path id="Path 318" class="s72" d="m392.5 471.3l30 1.2 13.8-11.3h3.7l10 1.3 7.5 8.7 5 17.5-6.3 5v10l-3.7 2.5-6.3-2.5-11.2 2.5-10 1.3-2.5-3.8-15-2.5v-13.7l-15-6.3z"/>
		<path id="Path 319" class="s76" d="m187.5 465l2.5-3.8h8.8l6.2 15.1v7.5h-7.5z"/>
		<path id="Path 320" class="s62" d="m157.5 467.5v-5l7.5-1.3 5 2.5-2.5 7.5z"/>
		<path id="Path 321" class="s69" d="m493.8 463.8l23.7-3.8v3.7l11.2 8.8 10 1.2 5 10-2.5 10 8.8 2.5v17.5 10h-10l-5-7.5h-5l-10-2.5v-7.5l-10-2.5-2.5-5v-5l-5-1.2-2.5-3.8h-10l-2.5-10-8.8 3.8-1.2 6.2h-15l-5-17.5h20l7.5-3.7h7.5z"/>
		<path id="Path 322" class="s68" d="m845 460l20-1.3 5 5 1.3 23.8-8.8 1.2-5-8.7h-7.5l-5-6.3z"/>
		<path id="Path 323" class="s69" d="m377.5 461.3l5-2.6 10 2.5v10h-7.5l-7.5-3.7z"/>
		<path id="Path 324" class="s75" d="m198.8 458.8l8.7-1.3 5 7.5 1.2 11.2h-8.7l-6.3-15z"/>
		<path id="Path 325" class="s76" d="m637.5 465l2.5-8.8 35 0.1 17.5 3.7 3.8 5-3.8 10-36.3-3.7-2.5-5-11.2 2.5z"/>
		<path id="Path 326" class="s69" d="m568.8 456.3l8.7-1.3 11.3 8.7-1.3 6.3 6.3 11.2-3.8 27.5-7.5 2.5-2.5-8.7-8.7-2.5-3.8-3.8v-10l-2.5-23.7z"/>
		<path id="Path 327" class="s29" d="m717.5 463.8v-8.8l10-1.3 3.8 11.3-8.8 3.7z"/>
		<path id="Path 328" class="s76" d="m553.8 457.5l2.5-3.8 12.5 2.5-3.8 6.3z"/>
		<path id="Path 329" class="s56" d="m392.5 461.3l7.5-7.6h28.8l7.4 7.5-13.7 11.3-30-1.3z"/>
		<path id="Path 330" class="s63" d="m240 466.3v-12.6h8.8l8.7 7.5v6.3z"/>
		<path id="Path 331" class="s53" d="m225 456.3l8.8-2.6h6.2v12.5l-15-1.2z"/>
		<path id="Path 332" class="s29" d="m800 461.3l-1.3-8.8h8.8v8.7z"/>
		<path id="Path 333" class="s62" d="m800 467.5l-12.5-5 2.5-10h8.8l1.2 8.8z"/>
		<path id="Path 334" class="s69" d="m325 477.5l-2.5-25h12.5v26.3z"/>
		<path id="Path 335" class="s83" d="m46.3 471.3l13.7-10.1 28.8-8.7 5 21.2-3.8 7.5 5 6.3 5 1.2-1.2 7.5h-8.8l-2.5-3.7-6.2-13.8h-10l-3.8 11.3-11.2-2.5-3.8-1.3-1.2-11.2z"/>
		<path id="Path 336" class="s47" d="m928.8 460v-8.8l6.2 1.3v5z"/>
		<path id="Path 337" class="s84" d="m780 452.5l-5-1.3 40 0.1-7.5 1.2h-8.8-8.7z"/>
		<path id="Path 338" class="s76" d="m780 452.5l-2.5 7.5h-8.8l-1.2-8.8 5 0.1h2.5z"/>
		<path id="Path 339" class="s64" d="m546.3 453.8l8.7-2.6 1.3 2.5-2.5 3.8z"/>
		<path id="Path 340" class="s74" d="m517.5 460l6.3-8.8 22.4 2.6 7.6 3.7 11.2 5 2.5 23.8-13.7 1.2-10-3.8-5-10-10-1.2-11.3-8.8z"/>
		<path id="Path 341" class="s72" d="m276.3 470l-1.3-17.5 10-1.3 7.5 10.1 2.5 11.2z"/>
		<path id="Path 342" class="s56" d="m182.5 455l5-3.8h6.3l5 7.5v2.5h-8.8l-2.5 3.8-7.5-3.8z"/>
		<path id="Path 343" class="s85" d="m767.5 451.3v-1.3l5 1.2z"/>
		<path id="Path 344" class="s57" d="m207.5 452.5l8.8-1.3 8.7 5v8.8h-12.5l-5-7.5z"/>
		<path id="Path 345" class="s55" d="m175 451.3l3.8-1.3 3.7 5-2.5 6.2 7.5 3.8 10 18.7-3.8 6.3-3.7 1.2h-3.8l-6.2-10-13.8 5 1.3-15 2.5-7.5-5-2.5v-3.7l7.5-1.3z"/>
		<path id="Path 346" class="s83" d="m760 471.3v-22.6h2.5l3.8 1.3h1.2v1.2l1.3 8.8h8.7l2.5-7.5h10l-2.5 10 12.5 5 7.5 1.2v5l-7.5 1.3-7.5-6.3-6.2 6.3z"/>
		<path id="Path 347" class="s79" d="m487.5 451.3l35-2.6 1.3 2.5-6.3 8.8-23.8 3.7-6.2-2.5z"/>
		<path id="Path 348" class="s79" d="m88.8 452.5l12.5-5v20l-3.8 6.3h-3.7z"/>
		<path id="Path 349" class="s16" d="m970 450v-3.8h1.3z"/>
		<path id="Path 350" class="s79" d="m815 451.3l15-5.1 15 13.8v13.7h-13.8l-3.7 5h-5l-2.5-5h-12.5v-5-7.5-8.7z"/>
		<path id="Path 351" class="s65" d="m367.5 461.3v-15.1l12.5 2.5 2.5 10-5 2.5z"/>
		<path id="Path 352" class="s1" d="m205 448.8l12.5-2.6-1.3 5-8.7 1.3h-5z"/>
		<path id="Path 353" class="s51" d="m195 447.5l7.5-1.3 2.5 2.5-2.5 3.8h5v5l-8.8 1.3-4.9-7.5z"/>
		<path id="Path 354" class="s82" d="m865 458.8v-15.1h7.5l8.8 12.5h3.7l11.3 13.8-0.1 11.2-1.2 7.5-16.3 2.5h-5l-2.5-3.7-1.2-23.8z"/>
		<path id="Path 355" class="s49" d="m217.5 446.3l3.8-2.6h6.2l8.8 1.3-2.6 8.7-8.7 2.5-8.8-5z"/>
		<path id="Path 356" class="s7" d="m935 452.5h3.8l7.5-11.3 13.7 0.1 10 5v3.7l-10 43.8 2.5 18.7 1.3 5 1.2 8.8-7.5-2.5-1.2-15-13.8-11.3-2.5-16.2-11.2-11.3v-10l6.2-2.5z"/>
		<path id="Path 357" class="s74" d="m428.8 453.8l3.7-12.6 12.5 1.3-5 18.7h-3.8z"/>
		<path id="Path 358" class="s68" d="m380 448.8l2.5-8.8h11.3l3.7 1.2 2.5 12.5-7.5 7.5-10-2.5z"/>
		<path id="Path 359" class="s82" d="m682.5 438.8l-2.5 7.4h-3.8l-3.7-7.5z"/>
		<path id="Path 360" class="s62" d="m660 438.8l1.3 4.9-6.3-5z"/>
		<path id="Path 361" class="s73" d="m445 442.5l8.8-3.8 2.4 10.1 12.5 7.5 11.3-5h7.5v9.9l-2.5 6.3-7.5 3.8h-20l-7.5-8.8-10-1.2z"/>
		<path id="Path 362" class="s56" d="m335 452.5v-13.8l8.8 0.1 18.7 22.4 5 0.1h10v6.2l7.5 3.8v10l-32.5-2.5h-17.5z"/>
		<path id="Path 363" class="s14" d="m672.5 438.8l-2.5-1.3h26.3l-0.1 1.2h-13.7z"/>
		<path id="Path 364" class="s86" d="m222.5 438.8l5-1.3v6.2h-6.3z"/>
		<path id="Path 365" class="s83" d="m101.3 447.5l43.7-10-2.5 11.3-22.5 2.4v27.6l5 2.4v10l-11.3 3.8-2.4-5 3.7-13.8-3.7-6.2-10-2.5z"/>
		<path id="Path 366" class="s87" d="m655 438.8l-1.3-2.6 7.5 1.3-1.2 1.2z"/>
		<path id="Path 367" class="s29" d="m830 446.3l27.5-11.3 7.5 8.7v15l-20 1.3z"/>
		<path id="Path 368" class="s83" d="m640 456.3v-11.3l-5-2.5v-7.5h8.8 1.2l7.5 1.2h1.2l1.3 2.5 6.2 5-1.2-5 1.2-1.2h8.8l2.5 1.2 3.7 7.5h3.8l2.5-7.5h13.7l6.3 12.5v10 3.8h-6.3l-3.7-5-17.5-3.8z"/>
		<path id="Path 369" class="s84" d="m635 435v-1.3l8.8 1.3z"/>
		<path id="Path 370" class="s79" d="m453.8 438.8l2.4-5.1h7.5l12.5 2.5 3.8 15-11.3 5-12.5-7.5z"/>
		<path id="Path 371" class="s53" d="m292.5 436.3l15-2.6 13.8 2.5 1.2 16.3 2.5 25-8.8 1.2-21.2-6.2-2.5-11.3-7.5-10v-8.7z"/>
		<path id="Path 372" class="s65" d="m285 442.5l-2.5-8.8 10 2.6z"/>
		<path id="Path 373" class="s79" d="m602.5 441.3l13.8-1.3 2.4-7.5h2.5l13.8 1.2v1.3 7.5l5 2.5v11.2l-2.5 8.8-6.3 1.2-1.2 5-20-2.5-15-5v-16.2z"/>
		<path id="Path 374" class="s60" d="m322.5 433.8l3.8-1.3h5l3.7 6.2v13.8h-12.5l-1.3-16.3z"/>
		<path id="Path 375" class="s83" d="m175 451.3l-2.5-18.8h7.5l-3.8 8.7h5l6.3 10-5 3.8-3.8-5z"/>
		<path id="Path 376" class="s79" d="m145 437.5l27.5-5 2.5 18.8-2.5 4.9-7.5 1.3v3.7l-7.5 1.3v5l-7.5 5v6.2l-25 2.5-5-2.5v-27.5l22.5-2.5z"/>
		<path id="Path 377" class="s4" d="m960 441.3l2.5-10.1h8.8l-0.1 15h-1.2z"/>
		<path id="Path 378" class="s84" d="m618.8 432.5l-11.3-1.3 13.8 1.3z"/>
		<path id="Path 379" class="s44" d="m602.5 441.3v-10.1h5l11.3 1.3-2.6 7.5z"/>
		<path id="Path 380" class="s62" d="m180 432.5l5-1.3 10 16.3-1.3 3.7h-6.2l-6.3-10h-5z"/>
		<path id="Path 381" class="s68" d="m343.8 438.8l-0.1-5.1 6.3-5h7.5l10 8.8v8.7 15h-5z"/>
		<path id="Path 382" class="s62" d="m857.5 435l22.5-7.5 6.3 7.5-1.3 21.3-3.8-0.1-8.7-12.5h-7.5z"/>
		<path id="Path 383" class="s51" d="m242.5 428.8l5-1.3 10 5 22.5-3.8 2.5 5 2.5 8.8v8.7l-10 1.3 1.3 17.5-18.8-2.5v-6.3l-8.8-7.5h-8.7-6.2l2.5-8.7-8.8-1.3v-6.2l7.5 1.2z"/>
		<path id="Path 384" class="s82" d="m185 431.3l16.3-3.8h1.2v18.7l-7.5 1.3z"/>
		<path id="Path 385" class="s79" d="m722.5 430l20-3.8h10l10 2.5 6.3 7.5-1.3 5-18.8 2.5 11.3 5v22.6l-28.8-6.3-3.7-11.3-10 1.3v8.7l-15-2.5v-10l-6.2-12.5v-1.2l21.2-6.3z"/>
		<path id="Path 386" class="s79" d="m382.5 440l-1.3-13.8 11.3 3.8 1.2 10z"/>
		<path id="Path 387" class="s74" d="m322.5 433.8v-7.6h2.5l1.3 6.3z"/>
		<path id="Path 388" class="s17" d="m201.3 427.5l3.7-1.3-2.5 1.3z"/>
		<path id="Path 389" class="s65" d="m307.5 433.8v-6.3l5-2.5 10 1.2v7.5l-1.3 2.5z"/>
		<path id="Path 390" class="s29" d="m208.8 426.3l3.7-1.3h2.5 3.7l3.8 13.7-1.3 5-3.7 2.5-12.5 2.5-2.5-2.5v-18.7l2.5-1.3z"/>
		<path id="Path 391" class="s64" d="m880 427.5l10-3.8h2.5v6.3l-6.3 5z"/>
		<path id="Path 392" class="s82" d="m456.3 433.8l1.2-10.1 10 2.5-3.8 7.5z"/>
		<path id="Path 393" class="s87" d="m215 425l3.8-1.3v1.3z"/>
		<path id="Path 394" class="s16" d="m890 423.8l3.8-1.3-1.3 1.2z"/>
		<path id="Path 395" class="s74" d="m357.5 423.8l10-2.6h10l3.8 5 1.2 13.8-2.5 8.7-12.5-2.5v-8.7l-10-8.8z"/>
		<path id="Path 396" class="s29" d="m350 428.8v-7.6l7.5 2.5v5z"/>
		<path id="Path 397" class="s62" d="m312.5 425v-3.8h11.3l1.2 5h-2.5z"/>
		<path id="Path 398" class="s70" d="m893.8 422.5l8.7-2.5 10 7.5 3.8 12.5 7.5 1.3 5 9.9v8.8 10l-6.3 2.5-5 16.3-10-0.1-3.7-6.2-7.5-1.3v-11.2l-11.3-13.8 1.3-21.2 6.2-5v-6.3z"/>
		<path id="Path 399" class="s83" d="m482.5 427.5l13.8 6.3 3.7-15.1h10l7.5 1.3h1.2l7.5 1.2 15 2.5 3.8 1.3h1.2 3.8 2.5l7.5 1.2h1.2l16.3 1.3h1.2l6.3 1.2 17.5 2.5v10.1l-7.5 6.2v16.3l-6.3-0.1-11.2-8.7-8.8 1.2-12.5-2.5-1.2-2.5-8.8 2.5-22.4-2.5-1.3-2.5-35 2.5h-7.5l-3.8-15z"/>
		<path id="Path 400" class="s64" d="m467.5 426.3l2.5-7.6 6.3 1.3 6.2 7.5-6.3 8.7-12.4-2.5z"/>
		<path id="Path 401" class="s29" d="m397.5 441.3l7.5-5.1-3.8-17.5h6.3l3.8 5h17.4l-1.2 8.8 5 2.5v6.2l-3.7 12.5h-28.8z"/>
		<path id="Path 402" class="s79" d="m242.5 428.8l-1.3-10.1h5l1.3 8.8z"/>
		<path id="Path 403" class="s82" d="m233.8 420l7.4-1.3 1.3 10.1-7.5 10-7.5-1.3-5 1.3-3.8-13.8v-1.2l10-2.5z"/>
		<path id="Path 404" class="s21" d="m241.3 418.8l6.2-1.3-1.3 1.2z"/>
		<path id="Path 405" class="s83" d="m428.8 423.8l6.2-0.1 6.2-7.5h13.8l2.5 7.5-1.3 10-2.5 5-8.7 3.8-12.5-1.3v-6.2l-5-2.5z"/>
		<path id="Path 406" class="s62" d="m902.5 420l15-6.3 2.5 15.1 5 2.5-1.3 9.9-7.5-1.2-3.7-12.5z"/>
		<path id="Path 407" class="s44" d="m476.3 420l-0.1-6.3 21.3 2.5 2.5 2.5-3.8 15.1-13.7-6.3z"/>
		<path id="Path 408" class="s4" d="m470 418.8l2.5-8.8 3.8 3.7v6.3z"/>
		<path id="Path 409" class="s29" d="m292.5 410l17.5-2.5 2.5 13.8v3.7l-5 2.5v6.2l-15 2.5-10-2.5-2.5-5-22.5 3.8-10-5-1.3-8.8 1.3-1.2 15-2.5 8.8-1.3 14.9-2.5z"/>
		<path id="Path 410" class="s64" d="m917.5 413.8l20-7.6v13.8l6.3 3.7 2.5 17.5-7.5 11.3h-3.8l-6.3-1.3-5-10 1.3-10-5-2.5z"/>
		<path id="Path 411" class="s79" d="m331.3 405l13.7-1.3 5 0.1v17.4 7.6l-6.3 5v5h-8.7l-3.8-6.3h-5l-1.2-6.2-1.3-5h-11.2l-2.5-13.8h8.7l5-1.2h1.3z"/>
		<path id="Path 412" class="s16" d="m967.5 402.5h1.3l-0.1 1.3-1.2-0.1z"/>
		<path id="Path 413" class="s7" d="m962.5 431.3l-5-12.6v-16.2h10l1.3 1.2 1.2 1.3 1.3 5-0.1 12.5v3.7 5z"/>
		<path id="Path 414" class="s70" d="m951.3 403.8l3.7-1.3h2.5v16.2l5 12.5-2.5 10h-13.7l-2.5-17.5-6.3-3.7v-13.8z"/>
		<path id="Path 415" class="s16" d="m345 403.8l5-1.3v1.2z"/>
		<path id="Path 416" class="s82" d="m350 402.5l13.8-2.5 3.7 21.3-10 2.4-7.5-2.5v-17.4z"/>
		<path id="Path 417" class="s70" d="m497.5 416.3l-3.8-17.6 12.6 5v5l5 2.5-1.3 7.5h-10z"/>
		<path id="Path 418" class="s83" d="m363.8 400l2.4-1.3 13.8 15.1 21.2 5 3.8 17.4-7.5 5.1-3.8-1.3-1.2-10-11.3-3.7-3.7-5h-10z"/>
		<path id="Path 419" class="s44" d="m366.3 398.8l33.7-26.3 10 13.7h25v3.8h13.7l7.5 11.2 10-2.5 5 3.8 1.3 7.5-2.5 8.7-2.5 7.5-10-2.5-2.5-7.5h-13.8l-6.2 7.5h-6.3-17.5l-3.7-5h-6.3l-21.2-5z"/>
		<path id="Path 420" class="s88" d="m518.8 372.5l5-2.5h3.7l18.8 20 2.5 21.3-5 1.2h-1.3l-6.2 1.2-18.8 6.3-7.5-1.3 1.3-7.5-5-2.5v-5l-12.5-5v-15l11.2-5 10-5z"/>
		<path id="Path 421" class="s33" d="m515 373.8l3.8-3.8v2.5z"/>
		<path id="Path 422" class="s89" d="m527.5 370l6.3-2.5 16.2 18.8 7.5 21.2-8.8 3.8-2.4-21.3z"/>
		<path id="Path 423" class="s21" d="m518.8 368.8l8.7-5.1-3.7 6.3-5 2.5v-2.5z"/>
		<path id="Path 424" class="s82" d="m400 372.5l15-12.5 3.8 1.3v6.2l13.7 6.3 2.5 12.4h-25z"/>
		<path id="Path 425" class="s89" d="m518.8 368.8l-6.3-13.8 10 2.5 5 6.2z"/>
		<path id="Path 426" class="s70" d="m431.3 358.8l6.2-3.8 5 10v12.5l3.7 3.7h11.3l7.5 8.8 1.2 8.7-10 2.5-7.5-11.2h-13.7v-3.8l-2.5-12.5z"/>
		<path id="Path 427" class="s47" d="m415 360l7.5-6.3 8.8 5 1.2 15.1-13.8-6.3 0.1-6.3z"/>
		<path id="Path 428" class="s90" d="m512.5 355l6.3-2.5 3.7 5z"/>
		<path id="Path 429" class="s86" d="m422.5 353.8l15-12.6 2.5 10-2.5 3.8-6.3 3.7z"/>
		<path id="Path 430" class="s47" d="m437.5 341.3l11.3-8.8 6.2 1.2v12.5l7.5 6.3 2.5 13.7 12.5 12.5h11.3l4.9 5v15l3.8 17.5-21.3-2.5-3.7-3.7-1.3-7.5-5-3.8-1.2-8.7-7.5-8.8h-11.3l-3.7-3.7v-12.5l-5-10 2.5-3.8z"/>
		<path id="Path 431" class="s86" d="m448.8 332.5l6.2-5v6.3z"/>
		<path id="Path 432" class="s50" d="m455 327.5l20-8.8v12.6l21.3 18.7 8.7 28.8-11.3 5-4.9-5h-11.3l-12.5-12.5-2.5-13.8-7.5-6.2v-12.5z"/>
		<path id="Path 433" class="s86" d="m475 318.8l8.8-3.8 4.9 6.2 1.3 3.8 1.2 3.7 16.3 12.5 5 10-5 5 5-1.2 6.2 13.7v1.3l-3.7 3.7-10 5-8.8-28.7-21.2-18.8z"/>
	</g>
</svg>