<svg version="1.2" xmlns="http://www.w3.org/2000/svg" viewBox="0 0 1000 1000" width="1000" height="1000">
	<title>Sander_vitreus-canadense</title>
	<style>
		.s0 { opacity: .4;fill: #aeb2ad } 
		.s1 { opacity: .6;fill: #b1b5b1 } 
		.s2 { opacity: .4;fill: #999b9b } 
		.s3 { opacity: 1;fill: #b7b6a4 } 
		.s4 { opacity: .2;fill: #999692 } 
		.s5 { opacity: .2;fill: #c2c4be } 
		.s6 { opacity: .2;fill: #a9acac } 
		.s7 { opacity: 1;fill: #b3b6ac } 
		.s8 { opacity: .5;fill: #9a9c9e } 
		.s9 { opacity: 1;fill: #9e9d90 } 
		.s10 { opacity: .8;fill: #b3b9b4 } 
		.s11 { opacity: 1;fill: #a9a99e } 
		.s12 { opacity: .3;fill: #cbcac2 } 
		.s13 { opacity: .1;fill: #5c5767 } 
		.s14 { opacity: .6;fill: #cccbc5 } 
		.s15 { opacity: .8;fill: #2dc3c1 } 
		.s16 { opacity: .4;fill: #8a8982 } 
		.s17 { opacity: 1;fill: #d1d5db } 
		.s18 { opacity: 1;fill: #b8bcbc } 
		.s19 { opacity: 1;fill: #939182 } 
		.s20 { opacity: 1;fill: #888a7d } 
		.s21 { opacity: .2;fill: #7c848e } 
		.s22 { opacity: 1;fill: #90938b } 
		.s23 { opacity: 1;fill: #a1a5a7 } 
		.s24 { fill: #827a78 } 
		.s25 { opacity: 1;fill: #858383 } 
		.s26 { opacity: .8;fill: #959793 } 
		.s27 { opacity: 1;fill: #77797f } 
		.s28 { opacity: 1;fill: #c4cad3 } 
		.s29 { opacity: 1;fill: #978c70 } 
		.s30 { opacity: 1;fill: #b9c0c9 } 
		.s31 { fill: #615e52 } 
		.s32 { opacity: 1;fill: #aeb1b6 } 
		.s33 { fill: #3d3b38 } 
		.s34 { fill: #735f46 } 
		.s35 { opacity: 1;fill: #59595d } 
		.s36 { opacity: 1;fill: #a1a3b1 } 
		.s37 { opacity: 1;fill: #a19679 } 
		.s38 { opacity: 1;fill: #8d8a77 } 
		.s39 { opacity: 1;fill: #928162 } 
		.s40 { fill: #474944 } 
		.s41 { opacity: 1;fill: #a19c85 } 
		.s42 { fill: #7f7758 } 
		.s43 { fill: #705136 } 
		.s44 { fill: #635340 } 
		.s45 { opacity: 1;fill: #898f9d } 
		.s46 { fill: #595349 } 
		.s47 { opacity: 1;fill: #392926 } 
		.s48 { opacity: 1;fill: #647d8d } 
		.s49 { fill: #7d8171 } 
		.s50 { fill: #857e6b } 
		.s51 { fill: #79654e } 
		.s52 { opacity: 1;fill: #8d8f92 } 
		.s53 { fill: #6b675c } 
		.s54 { opacity: 1;fill: #939282 } 
		.s55 { opacity: 1;fill: #9a9b9b } 
		.s56 { fill: #493c2f } 
		.s57 { opacity: 1;fill: #726a56 } 
		.s58 { fill: #747563 } 
		.s59 { opacity: 1;fill: #564e53 } 
		.s60 { fill: #695d4a } 
		.s61 { opacity: 1;fill: #4f3228 } 
		.s62 { opacity: 1;fill: #2a2224 } 
		.s63 { opacity: 1;fill: #75706c } 
		.s64 { fill: #554938 } 
		.s65 { fill: #302f2f } 
		.s66 { fill: #633f2b } 
		.s67 { opacity: 1;fill: #7b7a76 } 
		.s68 { fill: #89704e } 
		.s69 { opacity: 1;fill: #201921 } 
		.s70 { fill: #816e60 } 
		.s71 { opacity: .5;fill: #2a1f28 } 
		.s72 { opacity: .2;fill: #857f7d } 
		.s73 { opacity: .3;fill: #392930 } 
		.s74 { opacity: .2;fill: #4c3c43 } 
		.s75 { opacity: 1;fill: #646769 } 
		.s76 { opacity: .5;fill: #57525a } 
		.s77 { opacity: 1;fill: #886956 } 
		.s78 { opacity: .7;fill: #816f57 } 
		.s79 { fill: #514448 } 
		.s80 { opacity: .5;fill: #4a3c4c } 
		.s81 { opacity: 1;fill: #14101a } 
		.s82 { opacity: 1;fill: #4b2d40 } 
		.s83 { opacity: .5;fill: #948f87 } 
		.s84 { opacity: .6;fill: #5e6b6e } 
		.s85 { opacity: .8;fill: #81837e } 
		.s86 { opacity: .7;fill: #96938b } 
	</style>
	<g id="Background">
		<path id="Path 0" class="s0" d="m315 652v-1l5 2 4 2v2z"/>
		<path id="Path 1" class="s1" d="m649 652l-1-2h16l-1 2z"/>
		<path id="Path 2" class="s2" d="m326 652l12-2h1l-15 7v-2z"/>
		<path id="Path 3" class="s3" d="m320 653v-6h2l4 5-2 3z"/>
		<path id="Path 4" class="s4" d="m338 650l2-4h1l-2 4z"/>
		<path id="Path 5" class="s5" d="m635 646v-1l13 5 1 2z"/>
		<path id="Path 6" class="s5" d="m664 650l11-6h1l-13 8z"/>
		<path id="Path 7" class="s6" d="m635 646l-5-3h1l4 2z"/>
		<path id="Path 8" class="s0" d="m340 646l1-3h5v3h-5z"/>
		<path id="Path 9" class="s7" d="m315 651l-7-12 12 8v6z"/>
		<path id="Path 10" class="s6" d="m315 652l-10-9 1-5h2v1l7 12z"/>
		<path id="Path 11" class="s2" d="m346 643l6-9h1l-1 8-6 4z"/>
		<path id="Path 12" class="s0" d="m609 628l1-1 13 9 8 7h-1z"/>
		<path id="Path 13" class="s6" d="m609 628l-3-3h2l2 2z"/>
		<path id="Path 14" class="s5" d="m934 626l-8 3-10-5h1l14 2z"/>
		<path id="Path 15" class="s8" d="m932 623v-1h2v4h-3z"/>
		<path id="Path 16" class="s7" d="m608 623l4-1 12 7-1 7-13-9-2-2z"/>
		<path id="Path 17" class="s9" d="m648 620l-5 8h-7l-2-8h6z"/>
		<path id="Path 18" class="s10" d="m929 618l2-1 1 5v1z"/>
		<path id="Path 19" class="s6" d="m352 634v-18h1v18z"/>
		<path id="Path 20" class="s11" d="m656 620v-6l4 1z"/>
		<path id="Path 21" class="s12" d="m888 614v-1l6 1 23 10h-1z"/>
		<path id="Path 22" class="s3" d="m612 622l1-10h11l10 8 2 8h7l5-8h8l4-5 8-2 15 12-8 19-11 6h-16l-13-5-4-2-8-7 1-7z"/>
		<path id="Path 23" class="s12" d="m931 617v-7h1l2 12h-2z"/>
		<path id="Path 24" class="s6" d="m453 611l2-1h3z"/>
		<path id="Path 25" class="s13" d="m437 613l1-3h10l3 1z"/>
		<path id="Path 26" class="s5" d="m430 613l2-3h6l-1 3z"/>
		<path id="Path 27" class="s1" d="m419 611l13-1-2 3h-11z"/>
		<path id="Path 28" class="s5" d="m880 610v-1h2l6 4v1z"/>
		<path id="Path 29" class="s5" d="m392 610v-1l27 2v2z"/>
		<path id="Path 30" class="s2" d="m606 625l-20-17h2l4 1 16 14v2z"/>
		<path id="Path 31" class="s14" d="m455 610v-2h11v2h-8z"/>
		<path id="Path 32" class="s15" d="m448 610l6-2h1v2l-2 1h-2z"/>
		<path id="Path 33" class="s0" d="m373 609v-2l19 2v1z"/>
		<path id="Path 34" class="s5" d="m371 608v-1h2v2z"/>
		<path id="Path 35" class="s12" d="m466 608l33-2v1l-33 3z"/>
		<path id="Path 36" class="s12" d="m359 607v-1h3l9 1v1z"/>
		<path id="Path 37" class="s9" d="m341 643l-1-37 12 10v18l-6 9z"/>
		<path id="Path 38" class="s16" d="m287 607v-1l21 32h-2z"/>
		<path id="Path 39" class="s6" d="m870 606l1-1 9 4v1z"/>
		<path id="Path 40" class="s13" d="m504 607l3-2v1z"/>
		<path id="Path 41" class="s17" d="m895 606l21-2 9 4 4 10 3 5-1 3-14-2-23-10z"/>
		<path id="Path 42" class="s18" d="m882 609l13-3-1 8-6-1z"/>
		<path id="Path 43" class="s16" d="m499 606l8-2v1l-3 2h-5z"/>
		<path id="Path 44" class="s6" d="m348 605v-1l11 2v1z"/>
		<path id="Path 45" class="s4" d="m340 605l8-1v1l-4 1 9 10h-1l-12-10z"/>
		<path id="Path 46" class="s19" d="m640 620l2-18 10 1 4 11v6h-8z"/>
		<path id="Path 47" class="s11" d="m592 609v-7h4l10 4 7 6-1 10-4 1z"/>
		<path id="Path 48" class="s6" d="m507 604l13-3v1l-13 4v-1z"/>
		<path id="Path 49" class="s4" d="m931 610l-3-10h1l3 10z"/>
		<path id="Path 50" class="s2" d="m860 602v-2l11 5-1 1z"/>
		<path id="Path 51" class="s8" d="m578 602v-2l10 8h-2z"/>
		<path id="Path 52" class="s20" d="m596 602l2-4 8 1v7z"/>
		<path id="Path 53" class="s0" d="m520 601l6-3h10v1l-16 3z"/>
		<path id="Path 54" class="s19" d="m322 647l4-19-6-12v-19l20 8v1l1 37-1 3-2 4-12 2z"/>
		<path id="Path 55" class="s20" d="m628 597l8-1 6 1v5l-2 18h-6l-10-8z"/>
		<path id="Path 56" class="s21" d="m287 607l-8-11h1l7 10z"/>
		<path id="Path 57" class="s19" d="m916 604v-7l9-2 3 5 3 10v7l-2 1-4-10z"/>
		<path id="Path 58" class="s0" d="m683 625l9-14v-16h1l1 17-18 32h-1z"/>
		<path id="Path 59" class="s6" d="m540 596l9-1v1l-13 3v-1z"/>
		<path id="Path 60" class="s22" d="m606 599l10-5h8l4 3-4 15h-11l-7-6z"/>
		<path id="Path 61" class="s0" d="m549 595l9-3 14 1 6 7v2l-10-8-19 2z"/>
		<path id="Path 62" class="s23" d="m572 593l1-3h9 3l7 12v7l-4-1-10-8z"/>
		<path id="Path 63" class="s20" d="m280 592l32 1 8 4v19l6 12-4 19h-2l-12-8v-1l-21-32-7-10z"/>
		<path id="Path 64" class="s6" d="m687 591v-2l6 6h-1z"/>
		<path id="Path 65" class="s24" d="m585 590l13-2v10l-2 4h-4z"/>
		<path id="Path 66" class="s25" d="m598 588l2-1h16v7l-10 5-8-1z"/>
		<path id="Path 67" class="s2" d="m261 588v-1l19 5v4h-1l-3-5z"/>
		<path id="Path 68" class="s26" d="m834 587l1-1h5v4z"/>
		<path id="Path 69" class="s21" d="m680 587v-1l7 3v2z"/>
		<path id="Path 70" class="s7" d="m668 613l2-20 7-7 3 1 7 4 5 4v16l-9 14z"/>
		<path id="Path 71" class="s27" d="m616 587l8-1v8h-8z"/>
		<path id="Path 72" class="s28" d="m473 588l5 7 11 1 6-10h15l12 1 4 11-6 3-13 3-8 2-33 2h-11-1l-1-7-35-1-4-10h6z"/>
		<path id="Path 73" class="s29" d="m842 586l5-1 2 1-1 7-8-3v-4z"/>
		<path id="Path 74" class="s16" d="m251 587v-2l10 2v1z"/>
		<path id="Path 75" class="s4" d="m826 585v-1l8 3 6 3 8 3 12 7v2z"/>
		<path id="Path 76" class="s22" d="m636 596v-12h10l-4 13z"/>
		<path id="Path 77" class="s25" d="m624 586l8-2h4v12l-8 1-4-3z"/>
		<path id="Path 78" class="s30" d="m522 587l4-3h14v12l-4 2h-10z"/>
		<path id="Path 79" class="s6" d="m245 585v-1h3l3 1v2z"/>
		<path id="Path 80" class="s30" d="m473 588l9-6 13 4-6 10-11-1z"/>
		<path id="Path 81" class="s18" d="m412 583l1-1h4l3 8h-6z"/>
		<path id="Path 82" class="s17" d="m362 606v-14l8-7 25-3h11l6 1 2 7 4 10 35 1 1 7-6 2h-10-6l-13 1-27-2-19-2h-2z"/>
		<path id="Path 83" class="s4" d="m226 581l1-1 18 4v1z"/>
		<path id="Path 84" class="s23" d="m825 582l1-3 5 1 4 6-1 1-8-3z"/>
		<path id="Path 85" class="s30" d="m582 590v-12h18v9l-2 1-13 2z"/>
		<path id="Path 86" class="s31" d="m413 582v-5l4 2v3z"/>
		<path id="Path 87" class="s0" d="m669 578l7-2v1l-4 4 8 5v1l-3-1-9-6z"/>
		<path id="Path 88" class="s18" d="m543 577l7-1h4l4 3v13l-9 3-9 1v-12z"/>
		<path id="Path 89" class="s0" d="m214 577v-1l13 4-1 1z"/>
		<path id="Path 90" class="s31" d="m826 579l-3-5 10 2-2 4z"/>
		<path id="Path 91" class="s22" d="m329 578l1-4h6v5z"/>
		<path id="Path 92" class="s6" d="m676 576l8-3v1l-8 3z"/>
		<path id="Path 93" class="s23" d="m632 584v-11l13 4 1 7h-10z"/>
		<path id="Path 94" class="s7" d="m395 578l3-5 6 1 2 8h-11z"/>
		<path id="Path 95" class="s4" d="m206 574v-1l4 1 4 2v1z"/>
		<path id="Path 96" class="s28" d="m358 577l19-5 8 4 10 2v4l-25 3-8 7v14h-3l-11-2-8 1-20-8-8-4 10-15h7l7 1h16z"/>
		<path id="Path 97" class="s20" d="m352 579v-7l6 5z"/>
		<path id="Path 98" class="s32" d="m530 572l7-1 6 6-3 7h-14v-11z"/>
		<path id="Path 99" class="s33" d="m413 577l1-6 6 4-3 4z"/>
		<path id="Path 100" class="s34" d="m842 586l2-16h4l-1 15z"/>
		<path id="Path 101" class="s0" d="m800 572v-2l25 12 1 2v1z"/>
		<path id="Path 102" class="s32" d="m554 576v-6h12l7 20-1 3-14-1v-13z"/>
		<path id="Path 103" class="s7" d="m550 576v-6h4v6z"/>
		<path id="Path 104" class="s11" d="m537 571l1-1h6 6v6l-7 1z"/>
		<path id="Path 105" class="s7" d="m482 572l15-2 9 2 4 14h-15l-13-4z"/>
		<path id="Path 106" class="s11" d="m448 571l5 6 13 3 6-10h8l2 2v10l-9 6-53 2-3-8v-3l3-4 4-1h12l8 2z"/>
		<path id="Path 107" class="s35" d="m303 576l3-6v6z"/>
		<path id="Path 108" class="s30" d="m250 574h20l4-4 29 6h3 14l2 2-10 15-32-1-19-5-10-2-3-1z"/>
		<path id="Path 109" class="s0" d="m195 571v-1h6l5 3v1z"/>
		<path id="Path 110" class="s0" d="m687 571l15-2v2l-18 3v-1z"/>
		<path id="Path 111" class="s36" d="m668 580l-12-3 2-8h4l7 9z"/>
		<path id="Path 112" class="s37" d="m891 579l17-1 4-10h4l9 27-9 2v7l-21 2-13 3h-2l-9-4-11-5-12-7 1-7h12l12 4 3 6h8l7-8z"/>
		<path id="Path 113" class="s6" d="m795 569v-1l5 2v2z"/>
		<path id="Path 114" class="s32" d="m600 575h9l9-7h8l6 5v11l-8 2-8 1h-16v-9z"/>
		<path id="Path 115" class="s18" d="m566 570l5-2 11 10v12h-9z"/>
		<path id="Path 116" class="s11" d="m512 570l8-2 6 5v11l-4 3-12-1-4-14z"/>
		<path id="Path 117" class="s9" d="m330 574v-6h6v6z"/>
		<path id="Path 118" class="s18" d="m320 576l2-8h8v6l-1 4h-7z"/>
		<path id="Path 119" class="s29" d="m520 568v-2h8l2 6-4 1z"/>
		<path id="Path 120" class="s11" d="m398 573l4-7h12v5l-1 6v5l-1 1-6-1-2-8z"/>
		<path id="Path 121" class="s7" d="m377 572v-6l13 1-5 9z"/>
		<path id="Path 122" class="s28" d="m210 574v-8h3 5l27 4 5 4-2 10h-3l-18-4-13-4z"/>
		<path id="Path 123" class="s30" d="m201 570l9-4v8l-4-1z"/>
		<path id="Path 124" class="s5" d="m702 569l19-4v1l-19 5z"/>
		<path id="Path 125" class="s22" d="m414 566l1-1 7 1h2v8l-4 1-6-4z"/>
		<path id="Path 126" class="s4" d="m183 566v-1h3l9 5v1z"/>
		<path id="Path 127" class="s2" d="m784 566v-2l11 4v1z"/>
		<path id="Path 128" class="s0" d="m721 565l10-1v2h-10z"/>
		<path id="Path 129" class="s19" d="m424 566l7-2 5 2v8h-12z"/>
		<path id="Path 130" class="s20" d="m308 565l4-1 10 4-2 8h-14v-6z"/>
		<path id="Path 131" class="s38" d="m576 566l4-3 1 6z"/>
		<path id="Path 132" class="s37" d="m544 570v-7h2l4 7z"/>
		<path id="Path 133" class="s39" d="m538 570v-7h6v7z"/>
		<path id="Path 134" class="s6" d="m731 564l13-2v1l-13 3z"/>
		<path id="Path 135" class="s36" d="m213 566l5-4v4z"/>
		<path id="Path 136" class="s2" d="m174 563v-1h4l5 3v1z"/>
		<path id="Path 137" class="s4" d="m746 562l20-1 12 1 5 1 1 1v2l-40-3v-1z"/>
		<path id="Path 138" class="s40" d="m415 565l7-4v5z"/>
		<path id="Path 139" class="s41" d="m893 562v-2h7v6z"/>
		<path id="Path 140" class="s42" d="m520 566v-6h4l14 3v7l-1 1-7 1-2-6z"/>
		<path id="Path 141" class="s39" d="m512 570v-10h8v6 2z"/>
		<path id="Path 142" class="s29" d="m497 570l-1-10h4 12v10l-6 2z"/>
		<path id="Path 143" class="s4" d="m170 561v-1l4 2v1z"/>
		<path id="Path 144" class="s11" d="m580 563l13-4 7 16v3h-18l-11-10 1-2h4l5 3z"/>
		<path id="Path 145" class="s43" d="m844 570v-12h5l-1 12z"/>
		<path id="Path 146" class="s22" d="m656 560l8-2 7 4-9 7h-4z"/>
		<path id="Path 147" class="s44" d="m422 561l4-4 5 7-7 2h-2z"/>
		<path id="Path 148" class="s37" d="m480 570l1-14 15 4 1 10-15 2z"/>
		<path id="Path 149" class="s19" d="m339 558l5-2h7l1 16v7h-16v-5-6z"/>
		<path id="Path 150" class="s45" d="m178 562v-6h8v9h-3z"/>
		<path id="Path 151" class="s46" d="m814 559l1-5h7v19l-8-7z"/>
		<path id="Path 152" class="s32" d="m788 555l6-1 5 8 15 4 8 7 1 1 3 5-1 3-25-12-5-2-11-4-1-1z"/>
		<path id="Path 153" class="s32" d="m766 561v-7h6l6 2v6z"/>
		<path id="Path 154" class="s38" d="m402 566l-3-12 27 3-4 4-7 4-1 1z"/>
		<path id="Path 155" class="s32" d="m235 556l5-2 26 6 8 10-4 4h-20l-5-4-10-10z"/>
		<path id="Path 156" class="s30" d="m218 562v-8h10l7 6 10 10-27-4z"/>
		<path id="Path 157" class="s38" d="m900 560l2-7 10 15-4 10-17 1-1-17h3l7 4z"/>
		<path id="Path 158" class="s2" d="m148 555v-2l12 3 10 4v1z"/>
		<path id="Path 159" class="s42" d="m814 559l-5-7 6 2z"/>
		<path id="Path 160" class="s30" d="m746 553l14-1 6 2v7l-20 1z"/>
		<path id="Path 161" class="s18" d="m702 556l33-4 11 1v9h-2l-13 2-10 1-19 4-15 2-1-6z"/>
		<path id="Path 162" class="s32" d="m694 554l5-2 3 4-16 9 1 6-3 2-8 3-7 2-7-9 9-7 8-6 7 1z"/>
		<path id="Path 163" class="s19" d="m618 568l-6-16h2l12 4v12z"/>
		<path id="Path 164" class="s9" d="m595 556l13-4h4l6 16-9 7h-9l-7-16z"/>
		<path id="Path 165" class="s47" d="m339 558l-2-6h9l-2 4z"/>
		<path id="Path 166" class="s48" d="m235 556l-1-4h6v2z"/>
		<path id="Path 167" class="s49" d="m664 552l12-1 3 5-8 6-7-4z"/>
		<path id="Path 168" class="s22" d="m351 556l11-5 14 2 1 13v6l-19 5-6-5z"/>
		<path id="Path 169" class="s21" d="m141 552v-1h3l4 2v2z"/>
		<path id="Path 170" class="s41" d="m902 553v-3h6l8 18h-4z"/>
		<path id="Path 171" class="s20" d="m654 552l2-2 8 2v6l-8 2z"/>
		<path id="Path 172" class="s50" d="m546 563v-13h14l2 8h9l1 8-1 2-5 2h-12-4z"/>
		<path id="Path 173" class="s23" d="m266 556l16-6 4 3 5 2-2 8h4l15 2-2 5-3 6-29-6-8-10z"/>
		<path id="Path 174" class="s36" d="m228 554v-4l6 2 1 4v4z"/>
		<path id="Path 175" class="s23" d="m794 554v-5l15 3 5 7v7l-15-4z"/>
		<path id="Path 176" class="s9" d="m627 555l17-6 2 5 8-2 2 8 2 9-2 8 12 3 9 6-7 7-2 20-8 2-4-1-4-11-10-1v-5l4-13-1-7-13-4-6-5v-12z"/>
		<path id="Path 177" class="s39" d="m849 558l1-10h1l9 1 12 13h18l1 17v9l-7 8h-8l-3-6-12-4h-12l-2-1 1-15z"/>
		<path id="Path 178" class="s51" d="m844 558v-10h6l-1 10z"/>
		<path id="Path 179" class="s39" d="m833 576l7-28h4v10 12l-2 16h-2-5l-4-6z"/>
		<path id="Path 180" class="s22" d="m786 552l2-4 6 1v5l-6 1z"/>
		<path id="Path 181" class="s52" d="m760 552l2-4 10 1v5h-6z"/>
		<path id="Path 182" class="s53" d="m694 554v-6h4l1 4z"/>
		<path id="Path 183" class="s54" d="m676 551l10-3v9l-7-1z"/>
		<path id="Path 184" class="s50" d="m312 564l2-12 21-4 2 4 2 6-3 10h-6-8z"/>
		<path id="Path 185" class="s16" d="m126 549v-1l15 3v1z"/>
		<path id="Path 186" class="s55" d="m772 549l10-3 4 6 2 3-5 8-5-1v-6l-6-2z"/>
		<path id="Path 187" class="s19" d="m686 548l1-2 7 2v6l-8 3z"/>
		<path id="Path 188" class="s53" d="m608 552v-6l6 6h-2z"/>
		<path id="Path 189" class="s35" d="m560 550l4-4h9l-2 12h-9z"/>
		<path id="Path 190" class="s55" d="m240 552l4-6 22 10v4l-26-6z"/>
		<path id="Path 191" class="s16" d="m908 550v-5h1l20 55h-1l-3-5-9-27z"/>
		<path id="Path 192" class="s53" d="m573 546l2-1 9 1 11 10-2 3-13 4-4 3h-4l-1-8z"/>
		<path id="Path 193" class="s4" d="m117 546l1-1 8 3v1z"/>
		<path id="Path 194" class="s50" d="m293 545l5-1-5 19h-4l2-8-5-2z"/>
		<path id="Path 195" class="s29" d="m840 548l1-5 3 5z"/>
		<path id="Path 196" class="s56" d="m435 546l-6 2 2-5h3z"/>
		<path id="Path 197" class="s57" d="m698 548l4-6 24 2 9 8-33 4-3-4z"/>
		<path id="Path 198" class="s50" d="m500 560v-18h12l6 2 6 16h-4-8z"/>
		<path id="Path 199" class="s2" d="m112 544v-2l6 3-1 1z"/>
		<path id="Path 200" class="s58" d="m644 549l6-9h6v10l-2 2-8 2z"/>
		<path id="Path 201" class="s31" d="m575 545l1-5h19l1 4h11l1 2v6l-13 4-11-10z"/>
		<path id="Path 202" class="s31" d="m524 542l12-2 4 1 6 9v13h-2-6l-14-3-6-16z"/>
		<path id="Path 203" class="s23" d="m178 556l-2-16h8l8 7 8-1 2 6-16 4z"/>
		<path id="Path 204" class="s3" d="m888 540l2-2h8l4 12v3l-2 7h-7z"/>
		<path id="Path 205" class="s58" d="m434 543v-5h12v5l-10 3h-1z"/>
		<path id="Path 206" class="s38" d="m431 539l3-1v5h-3z"/>
		<path id="Path 207" class="s50" d="m613 540l11-3 3 18-1 1-12-4-6-6-1-2z"/>
		<path id="Path 208" class="s6" d="m98 538v-1l10 3 4 2v2z"/>
		<path id="Path 209" class="s31" d="m446 538l2-2 6 1-2 6h-6z"/>
		<path id="Path 210" class="s19" d="m376 541l4-5 4 6-7 3z"/>
		<path id="Path 211" class="s36" d="m184 540v-4h12l4 10-8 1z"/>
		<path id="Path 212" class="s36" d="m144 551v-15h10l6 6v14l-12-3z"/>
		<path id="Path 213" class="s9" d="m898 538l7-3 3 10v5h-6z"/>
		<path id="Path 214" class="s59" d="m545 539l6-4h7l6 11-4 4h-14l-6-9z"/>
		<path id="Path 215" class="s55" d="m214 536l2-1h2 5l5 5v10 4h-10z"/>
		<path id="Path 216" class="s32" d="m223 535l4-1 1 6z"/>
		<path id="Path 217" class="s49" d="m536 540v-7l9 6-5 2z"/>
		<path id="Path 218" class="s40" d="m266 535l5-2 3 5-10 4z"/>
		<path id="Path 219" class="s57" d="m656 540l7-7 11-1 3 6 10 3v5l-1 2-10 3-12 1-8-2z"/>
		<path id="Path 220" class="s49" d="m512 542v-10h5l7 3v7l-6 2z"/>
		<path id="Path 221" class="s31" d="m460 536l1-4h4z"/>
		<path id="Path 222" class="s9" d="m227 534l14-2 3 5v9l-4 6h-6l-6-2v-10z"/>
		<path id="Path 223" class="s32" d="m196 536v-4h2 10l6 4 4 18v8l-5 4h-3l-9 4h-6l-9-5v-9l16-4-2-6z"/>
		<path id="Path 224" class="s60" d="m731 532l4-1 12 3 7 1v6l8 7-2 4-14 1-11-1-9-8z"/>
		<path id="Path 225" class="s34" d="m216 535v-4l2 4z"/>
		<path id="Path 226" class="s4" d="m905 535l2-5h2v15h-1z"/>
		<path id="Path 227" class="s33" d="m801 532l8-2 1 6z"/>
		<path id="Path 228" class="s38" d="m465 532l7-2 22 7 6 5v18h-4l-15-4-1 14h-8l-6 10-13-3-5-6v-13l-11-5-1-7 10-3h6l2-6 6-1z"/>
		<path id="Path 229" class="s31" d="m465 546h5l1 5-5 1z"/>
		<path id="Path 230" class="s55" d="m154 536l1-6h7l2 8 12 2 2 16v6h-4l-4-2-10-4v-14z"/>
		<path id="Path 231" class="s32" d="m108 540v-10h8l28 6v15h-3l-15-3-8-3-6-3z"/>
		<path id="Path 232" class="s44" d="m818 536v-8l13 3 9 3 1 9-1 5-7 28-10-2-1-1v-19-15z"/>
		<path id="Path 233" class="s34" d="m759 532l18-4 21 2 3 2 9 4h8l4 3v15h-7l-6-2-15-3-6-1-2 4-4-6-10 3-10-1-8-7v-6z"/>
		<path id="Path 234" class="s61" d="m747 534l5-6h6l1 4-5 3z"/>
		<path id="Path 235" class="s4" d="m74 529v-1h3l16 6 5 3v1z"/>
		<path id="Path 236" class="s57" d="m624 537l16-10h6l4 1v12l-6 9-17 6z"/>
		<path id="Path 237" class="s46" d="m595 540l1-13 14 4 3 9-6 4h-11z"/>
		<path id="Path 238" class="s20" d="m495 531l15-4 2 5v10h-12l-6-5z"/>
		<path id="Path 239" class="s49" d="m380 536l8-9h8l8 1 22 2 1 9h4v4l-2 5 6-2h1l1 7 11 5v13l-4 5-8-2v-8l-5-2-5-7-27-3 3 12-4 7-3 5-10-2 5-9-13-1-1-13-14-2v-5l5-5h9l1 4 7-3z"/>
		<path id="Path 240" class="s62" d="m271 533l-1-4 8-2 12 6 3 12-7 8-4-3-8-12z"/>
		<path id="Path 241" class="s22" d="m244 537l19-10 3 8-2 7 10-4 8 12-16 6-22-10z"/>
		<path id="Path 242" class="s36" d="m196 532l-4-5h5l1 5z"/>
		<path id="Path 243" class="s42" d="m868 533l-4-7h6z"/>
		<path id="Path 244" class="s40" d="m551 535l1-9h5l3 5 14 1 2 8-1 5-2 1h-9l-6-11z"/>
		<path id="Path 245" class="s53" d="m354 540v-14l8 4 5 11-5 5z"/>
		<path id="Path 246" class="s63" d="m341 527l13-1v14h-10z"/>
		<path id="Path 247" class="s58" d="m306 540l18-2 10-12 7 1 3 13h10l8 6v5l-11 5h-7l2-4h-9l-2-4-21 4-2 12-4 1-15-2 5-19z"/>
		<path id="Path 248" class="s25" d="m182 528l10-1 4 5v4h-12z"/>
		<path id="Path 249" class="s23" d="m93 534l1-8h10l4 4v10l-10-3z"/>
		<path id="Path 250" class="s9" d="m77 528l3-2h14l-1 8z"/>
		<path id="Path 251" class="s41" d="m870 526l2-2h10l8 14-2 2h-14l-6-7z"/>
		<path id="Path 252" class="s64" d="m809 530l1-6h6l2 4v8h-8z"/>
		<path id="Path 253" class="s34" d="m702 542l-2-18h14l7 7 10 1-5 12z"/>
		<path id="Path 254" class="s60" d="m640 527v-3h6v3z"/>
		<path id="Path 255" class="s25" d="m510 527l8-3-1 8h-5z"/>
		<path id="Path 256" class="s52" d="m197 526l5-2 6 2v6h-10l-1-5z"/>
		<path id="Path 257" class="s22" d="m164 526l6-2 12 4 2 8v4h-8l-12-2-2-8z"/>
		<path id="Path 258" class="s27" d="m144 530l-6-6h6z"/>
		<path id="Path 259" class="s58" d="m472 530v-7l7-1 7 6 9 3-1 6z"/>
		<path id="Path 260" class="s57" d="m307 530h7l8-8h10l2 4-10 12-18 2z"/>
		<path id="Path 261" class="s55" d="m116 523l8-1h4 10v2l6 6v6l-28-6z"/>
		<path id="Path 262" class="s60" d="m674 522v-1l12 1h6 7l1 2 2 18-4 6h-4l-7-2v-5l-10-3-3-6z"/>
		<path id="Path 263" class="s33" d="m448 536l-2-15h2l13 11-1 4-6 1z"/>
		<path id="Path 264" class="s58" d="m404 528l1-4 13-3h8v9z"/>
		<path id="Path 265" class="s65" d="m559 522l5-2 7 2 3 10-14-1-3-5z"/>
		<path id="Path 266" class="s31" d="m552 526v-6h5l2 2-2 4z"/>
		<path id="Path 267" class="s23" d="m382 521l-4 3 1-4z"/>
		<path id="Path 268" class="s52" d="m144 524l6-4h12l2 6-2 4h-7l-1 6h-10v-6z"/>
		<path id="Path 269" class="s22" d="m104 526v-6l12 3v7h-8z"/>
		<path id="Path 270" class="s20" d="m94 526v-6h10v6z"/>
		<path id="Path 271" class="s66" d="m816 519l15-1v13l-13-3-2-4z"/>
		<path id="Path 272" class="s56" d="m810 524v-6h4l2 1v5z"/>
		<path id="Path 273" class="s58" d="m536 533l-3-15h1l18 2v6l-1 9-6 4z"/>
		<path id="Path 274" class="s49" d="m263 527l2-9h11l2 9-8 2 1 4-5 2z"/>
		<path id="Path 275" class="s63" d="m144 524v-6h4l2 2z"/>
		<path id="Path 276" class="s67" d="m518 524l4-7 11 1 3 15v7l-12 2v-7l-7-3z"/>
		<path id="Path 277" class="s2" d="m907 530l6-14 1 1-5 13z"/>
		<path id="Path 278" class="s38" d="m864 526v-9l4-1 4 8-2 2z"/>
		<path id="Path 279" class="s43" d="m699 522l12-6 25 2-1 13-4 1-10-1-7-7h-14z"/>
		<path id="Path 280" class="s43" d="m686 522v-5l6-1v6z"/>
		<path id="Path 281" class="s42" d="m646 524v-8l28 6v10l-11 1-7 7h-6v-12l-4-1z"/>
		<path id="Path 282" class="s40" d="m426 521l1-5h15l4 5 2 15-2 2h-12l-3 1h-4l-1-9z"/>
		<path id="Path 283" class="s32" d="m198 519l4-3v8l-5 2z"/>
		<path id="Path 284" class="s25" d="m162 520l1-5h5l2 9-6 2z"/>
		<path id="Path 285" class="s66" d="m777 528l10-14h11v16z"/>
		<path id="Path 286" class="s44" d="m636 516l2-2 8 2v8h-6z"/>
		<path id="Path 287" class="s40" d="m557 520l1-6h6v6l-5 2z"/>
		<path id="Path 288" class="s68" d="m840 534l4-22h8l4 20-5 16h-1-6l-3-5z"/>
		<path id="Path 289" class="s62" d="m798 514l2-2h7l3 6v6l-1 6-8 2-3-2z"/>
		<path id="Path 290" class="s62" d="m752 528l4-16h8l-6 16z"/>
		<path id="Path 291" class="s53" d="m396 518l14-6h7l1 9-13 3-1 4-8-1z"/>
		<path id="Path 292" class="s24" d="m168 515l3-3h18l9 7-1 7v1h-5l-10 1-12-4z"/>
		<path id="Path 293" class="s67" d="m80 513h14v7 6h-14z"/>
		<path id="Path 294" class="s27" d="m74 528l-8-14 9-3 5 2v13l-3 2z"/>
		<path id="Path 295" class="s69" d="m736 518v-8h15 3l2 2-4 16-5 6-12-3z"/>
		<path id="Path 296" class="s70" d="m148 518l8-8 7 5-1 5h-12z"/>
		<path id="Path 297" class="s25" d="m94 513l4-3h19l7 12-8 1-12-3h-10z"/>
		<path id="Path 298" class="s71" d="m754 510l19-1v1l-9 2h-8z"/>
		<path id="Path 299" class="s47" d="m807 512l7-4v10h-4z"/>
		<path id="Path 300" class="s33" d="m572 510l16-2 8 4v15l-1 13h-19l-2-8-3-10-7-2v-6z"/>
		<path id="Path 301" class="s65" d="m483 510l9-2 16 1-4 8-15 3-3 8-7-6-5-10z"/>
		<path id="Path 302" class="s40" d="m474 509l9-1v2l-9 2z"/>
		<path id="Path 303" class="s72" d="m74 529l-11-16 12-4v2l-9 3 8 14z"/>
		<path id="Path 304" class="s35" d="m128 522v-15l8 1 2 14z"/>
		<path id="Path 305" class="s73" d="m733 508v-2l18 4h-15z"/>
		<path id="Path 306" class="s71" d="m727 507v-1h6v2z"/>
		<path id="Path 307" class="s70" d="m216 531l1-11h10l17-14 15 4 6 8-2 9-19 10-3-5-14 2-4 1h-5z"/>
		<path id="Path 308" class="s43" d="m831 518l1-14h8l4 8-4 22-9-3z"/>
		<path id="Path 309" class="s47" d="m773 510l23-6h4v8l-2 2h-11l-10 14-18 4-1-4 6-16z"/>
		<path id="Path 310" class="s66" d="m698 508l10-4 19 3 6 1 3 2v8l-25-2-12 6h-7v-6z"/>
		<path id="Path 311" class="s64" d="m588 508v-4h9l18 2 3 14 18-4 4 8v3l-16 10-11 3-3-9-14-4v-15z"/>
		<path id="Path 312" class="s40" d="m522 517l4-13h12l-4 14h-1z"/>
		<path id="Path 313" class="s33" d="m510 507l10-3h6l-4 13-4 7-8 3-15 4-9-3 3-8 15-3 4-8z"/>
		<path id="Path 314" class="s46" d="m417 512l3-8h22l4 4 2 13h-2l-4-5h-15l-1 5h-8z"/>
		<path id="Path 315" class="s33" d="m362 506l10-2h2v8h-12z"/>
		<path id="Path 316" class="s31" d="m322 522v-18l18 4 10 1 4 5 8-2h12l5 8-1 4 4-3 8-5 6 2v9h-8l-8 9-4 5h-9l-5-11-8-4-13 1-7-1-2-4z"/>
		<path id="Path 317" class="s60" d="m307 530l-3-8 6-4v-11l12-3v18l-8 8z"/>
		<path id="Path 318" class="s46" d="m142 506l12-2h2v6l-8 8h-4z"/>
		<path id="Path 319" class="s46" d="m867 508h-5v-5h2l4 3z"/>
		<path id="Path 320" class="s74" d="m773 509l23-6v1l-23 6z"/>
		<path id="Path 321" class="s61" d="m814 508l4-6h6 8v2l-1 14-15 1-2-1z"/>
		<path id="Path 322" class="s74" d="m708 504v-2h5l14 4v1z"/>
		<path id="Path 323" class="s64" d="m442 504l4-2v6z"/>
		<path id="Path 324" class="s64" d="m374 504h16v12l-8 5-3-1-5-8z"/>
		<path id="Path 325" class="s40" d="m340 504l16-2 6 4v6l-8 2-4-5-10-1z"/>
		<path id="Path 326" class="s57" d="m446 502v-2h16l12 9v3l5 10-7 1v7l-7 2h-4l-13-11-2-13z"/>
		<path id="Path 327" class="s64" d="m410 512v-12l10 4-3 8z"/>
		<path id="Path 328" class="s31" d="m156 504l14-4h2l-1 12-3 3h-5l-7-5z"/>
		<path id="Path 329" class="s47" d="m698 508v-9h1l8 2 1 1v2z"/>
		<path id="Path 330" class="s56" d="m616 502l20-3 2 15-2 2-18 4-3-14z"/>
		<path id="Path 331" class="s69" d="m800 504l12-6h2l4 4-4 6-7 4h-7z"/>
		<path id="Path 332" class="s73" d="m796 503l15-5h1l-12 6h-4z"/>
		<path id="Path 333" class="s21" d="m707 501l6-3v2 2h-5z"/>
		<path id="Path 334" class="s59" d="m119 500h20l3 6 2 12v6h-6v-2l-2-14-8-1z"/>
		<path id="Path 335" class="s62" d="m672 510l16-4 5-9 5 2v9l-6 8-6 1v5l-12-1z"/>
		<path id="Path 336" class="s62" d="m597 504l3-8h6l10 6-1 4z"/>
		<path id="Path 337" class="s34" d="m558 514l-8-18h4l13 2 5 12-8 4z"/>
		<path id="Path 338" class="s57" d="m538 504v-8h12l8 18-1 6h-5l-18-2z"/>
		<path id="Path 339" class="s63" d="m204 504l20-8h16l4 10-17 14h-10l-1 11v4l-2 1-6-4v-6l-6-2v-8l-4 3-9-7h-18l1-12 3-2h15l6 8z"/>
		<path id="Path 340" class="s53" d="m170 500v-5l5 3-3 2z"/>
		<path id="Path 341" class="s29" d="m852 512l-2-18h6l6 9v5h5l1 8-4 1v9l4 7 6 7h14l5 20v2h-3-18l-12-13-9-1 5-16z"/>
		<path id="Path 342" class="s62" d="m814 498l8-4h2v8h-6z"/>
		<path id="Path 343" class="s51" d="m510 507l3-13h7v10z"/>
		<path id="Path 344" class="s56" d="m356 496l8-2 8 4v6l-10 2-6-4z"/>
		<path id="Path 345" class="s60" d="m259 510l5-16 12 15v9h-11z"/>
		<path id="Path 346" class="s75" d="m87 496l19-2 13 6 9 7v15h-4l-7-12h-19l-6-3z"/>
		<path id="Path 347" class="s27" d="m92 507l-15-4-5-9h7l8 2z"/>
		<path id="Path 348" class="s44" d="m520 494l3-1 11 1 4 2v8h-12-6z"/>
		<path id="Path 349" class="s47" d="m824 494l6-2 2 10h-8z"/>
		<path id="Path 350" class="s74" d="m811 498l11-6v2l-8 4h-2z"/>
		<path id="Path 351" class="s60" d="m390 504v-12h14l6 8v12l-14 6-6-2z"/>
		<path id="Path 352" class="s21" d="m75 509l10-1-13-6-1-10 1 1v1l5 9 15 4 6 3-4 3h-14l-5-2z"/>
		<path id="Path 353" class="s76" d="m822 492l5-2h4l-1 2-6 2h-2z"/>
		<path id="Path 354" class="s64" d="m340 504v-10l6-4h8l2 6v6z"/>
		<path id="Path 355" class="s11" d="m864 503v-14h6l2 5h6l2 10-12 2z"/>
		<path id="Path 356" class="s69" d="m672 510v-21h3l14 6 4 2-5 9z"/>
		<path id="Path 357" class="s11" d="m699 499l5-11h13l3 6-7 4-6 3z"/>
		<path id="Path 358" class="s62" d="m523 493l3-5h8v6z"/>
		<path id="Path 359" class="s75" d="m224 496l1-8h13l2 8z"/>
		<path id="Path 360" class="s6" d="m913 516l11-29h2l-12 30z"/>
		<path id="Path 361" class="s70" d="m856 494l5-7 3 2v14h-2z"/>
		<path id="Path 362" class="s44" d="m364 494v-7l26 5v12h-16-2v-6z"/>
		<path id="Path 363" class="s77" d="m836 487l4-1 3 7 7 1 2 18h-8l-4-8h-8v-2l-2-10 1-2z"/>
		<path id="Path 364" class="s34" d="m492 508l6-22 11 1 4 7-3 13-2 2z"/>
		<path id="Path 365" class="s60" d="m297 490l2-4 12 1-5 7-7 1z"/>
		<path id="Path 366" class="s40" d="m72 493l6-7 1 8h-7z"/>
		<path id="Path 367" class="s13" d="m827 490l9-5v2l-5 3z"/>
		<path id="Path 368" class="s78" d="m836 485l2-1h2v2l-4 1z"/>
		<path id="Path 369" class="s55" d="m689 495l8-11 7 4-5 11h-1l-5-2z"/>
		<path id="Path 370" class="s51" d="m483 508l3-24 12 2-6 22-9 2z"/>
		<path id="Path 371" class="s40" d="m151 492l4-8h13l2 11v5l-14 4h-2z"/>
		<path id="Path 372" class="s53" d="m238 488l2-5h3l21 3v8l-5 16-15-4-4-10z"/>
		<path id="Path 373" class="s20" d="m870 489l2-7h5l1 12h-6z"/>
		<path id="Path 374" class="s66" d="m636 499l20-17 16 7v21l2 11v1l-28-6-8-2z"/>
		<path id="Path 375" class="s43" d="m555 484l5-2 28 22v4l-16 2-5-12-13-2z"/>
		<path id="Path 376" class="s31" d="m297 490h-9l-2-8h12l1 4z"/>
		<path id="Path 377" class="s46" d="m272 482l10-3 4 3 2 8h9l2 5 7-1 5-7 9-3 11-2h13l2 8-6 4v10 4l-18-4-12 3v11l-6 4 3 8-1 10-8 4-5 1-3-12-12-6-2-9v-9l-12-15v-8-4z"/>
		<path id="Path 378" class="s59" d="m78 486l24-7 4 15-19 2-8-2z"/>
		<path id="Path 379" class="s68" d="m442 481l5-3 23 2 16 3v1l-3 24-9 1-12-9h-16z"/>
		<path id="Path 380" class="s69" d="m540 478l4-1 11 7-1 12h-4-12l-4-2v-6z"/>
		<path id="Path 381" class="s77" d="m442 481l-1-5 6 2z"/>
		<path id="Path 382" class="s35" d="m204 504v-13l8-3 7-12 18 1 3 6-2 5h-13l-1 8z"/>
		<path id="Path 383" class="s39" d="m840 484l19-10 2 13-5 7h-6l-7-1-3-7z"/>
		<path id="Path 384" class="s66" d="m560 482l5-7 9-1 14 2 3 6 7 1 2 13-3 8h-9z"/>
		<path id="Path 385" class="s64" d="m320 484v-9l8-1 3 8z"/>
		<path id="Path 386" class="s58" d="m272 475l4-1 6 5-10 3z"/>
		<path id="Path 387" class="s69" d="m607 484h17l4-11 28 9-20 17-20 3-10-6z"/>
		<path id="Path 388" class="s74" d="m71 492l10-11 33-8v1l-12 5-24 7-6 7z"/>
		<path id="Path 389" class="s43" d="m488 476l20-4h8v6l10 10-3 5-3 1h-7l-4-7-11-1-12-2v-1z"/>
		<path id="Path 390" class="s34" d="m364 478l6-6h12l17 3h3l2 17h-14l-26-5z"/>
		<path id="Path 391" class="s79" d="m114 474l13-2 3 16 21 4 3 12-12 2-3-6h-20l-13-6-4-15z"/>
		<path id="Path 392" class="s51" d="m404 472l22-1 12 5h3l1 5 4 19v2l-4 2h-22l-10-4-6-8-2-17z"/>
		<path id="Path 393" class="s66" d="m516 472l16-1 8 7-6 10h-8l-10-10z"/>
		<path id="Path 394" class="s69" d="m470 476l4-6 14 6-2 7-16-3z"/>
		<path id="Path 395" class="s67" d="m399 475v-5h3l2 2-2 3z"/>
		<path id="Path 396" class="s80" d="m114 473l16-3v1l-3 1-13 2z"/>
		<path id="Path 397" class="s37" d="m859 474l13-5v13l-2 7h-6l-3-2z"/>
		<path id="Path 398" class="s27" d="m258 470l8-2h1l5 7v7h-8l-7-6z"/>
		<path id="Path 399" class="s81" d="m607 484l-6-9 1-8 10 1 16 5-4 11z"/>
		<path id="Path 400" class="s35" d="m267 468l9-1v7l-4 1z"/>
		<path id="Path 401" class="s0" d="m924 487l2-21 2 1-2 20z"/>
		<path id="Path 402" class="s63" d="m672 468h13l12 16-8 11-14-6z"/>
		<path id="Path 403" class="s51" d="m382 472l-1-6h4l14 4v5z"/>
		<path id="Path 404" class="s59" d="m168 484l14-10h21l9-8h10 8l12 2 1 15h-3l-3-6-18-1-7 12-8 3v13l-8 2-6-8h-15l-5-3z"/>
		<path id="Path 405" class="s16" d="m838 484l20-14 16-5h1l-3 4-13 5-19 10z"/>
		<path id="Path 406" class="s68" d="m370 466l2-2 9 2 1 6h-12z"/>
		<path id="Path 407" class="s51" d="m352 466h18v6l-6 6h-9z"/>
		<path id="Path 408" class="s60" d="m330 465l12-1h8l2 2 3 12h9v9 7l-8 2-2-6h-8l-2-8h-13l-3-8z"/>
		<path id="Path 409" class="s53" d="m307 465l17-1 6 1-2 9-8 1v9l-9 3-12-1-1-4z"/>
		<path id="Path 410" class="s79" d="m242 468v-4h8l6 1 2 5-1 6 7 6v4l-21-3z"/>
		<path id="Path 411" class="s61" d="m574 474l3-11 25 3v1l-1 8 6 9-1 12h-6l-2-13-7-1-3-6z"/>
		<path id="Path 412" class="s67" d="m286 465l6-2 9 2h6l-9 17h-12l-4-3-6-5v-7z"/>
		<path id="Path 413" class="s4" d="m874 465l6-3v1l-5 2z"/>
		<path id="Path 414" class="s61" d="m426 471v-9h12v2 12z"/>
		<path id="Path 415" class="s74" d="m130 470l22-8v2l-22 7z"/>
		<path id="Path 416" class="s11" d="m880 463l6-3h4l3 15-14 1-2 6h-5v-13l3-4z"/>
		<path id="Path 417" class="s53" d="m612 468l5-8h12l27 12 10-4h6l3 21h-3l-16-7-28-9z"/>
		<path id="Path 418" class="s61" d="m508 472l6-9 10-3h12l4 2 4 15-4 1-8-7-16 1z"/>
		<path id="Path 419" class="s82" d="m230 466l1-6h7l4 4v4z"/>
		<path id="Path 420" class="s6" d="m880 462l6-3v1l-6 3z"/>
		<path id="Path 421" class="s33" d="m256 465l8-6 2 9-8 2z"/>
		<path id="Path 422" class="s0" d="m886 459l10-3v1l-6 3h-4z"/>
		<path id="Path 423" class="s9" d="m685 468l10-3 8-9 34 27-3 7-14 4-3-6h-13l-7-4z"/>
		<path id="Path 424" class="s57" d="m656 472v-16h4l5 2 1 10z"/>
		<path id="Path 425" class="s66" d="m402 460l19-4 5 6v9l-22 1-2-2z"/>
		<path id="Path 426" class="s81" d="m540 462l5-7 13 3 10 2 9 3-3 11-9 1-5 7-5 2-11-7z"/>
		<path id="Path 427" class="s1" d="m896 456l3-2h2l-5 3z"/>
		<path id="Path 428" class="s62" d="m438 464l6-1 6-9 8 8v9l12 5v4l-23-2-6-2h-3z"/>
		<path id="Path 429" class="s69" d="m372 464v-10h14l-1 12h-4z"/>
		<path id="Path 430" class="s80" d="m152 462l24-8 1 1-25 9z"/>
		<path id="Path 431" class="s62" d="m524 460v-8h7 5v8z"/>
		<path id="Path 432" class="s56" d="m238 460v-8l11 5 1 7h-8z"/>
		<path id="Path 433" class="s6" d="m926 466l2-15h1l-1 16z"/>
		<path id="Path 434" class="s74" d="m176 454l10-3v1l-9 3z"/>
		<path id="Path 435" class="s7" d="m901 454l16-4 11 1-2 15-2 21-11 29-6 14-2 5-7 3h-8l-8-14h-10l-4-8-1-8 1-2 12-2-2-10-1-12 2-6 14-1-3-15 6-3z"/>
		<path id="Path 436" class="s69" d="m536 452l5-2 4 5-5 7-4-2z"/>
		<path id="Path 437" class="s47" d="m450 454v-4h12l2 8 10 3v9l-4 6-12-5v-9z"/>
		<path id="Path 438" class="s83" d="m514 451v-2l11 1h7l-1 2h-7z"/>
		<path id="Path 439" class="s1" d="m917 450v-2l12 3h-1z"/>
		<path id="Path 440" class="s5" d="m899 454l18-6v2l-16 4z"/>
		<path id="Path 441" class="s76" d="m533 449l5-1h3v2l-5 2h-5l1-2z"/>
		<path id="Path 442" class="s5" d="m525 449h8l-1 1h-7z"/>
		<path id="Path 443" class="s56" d="m462 450l9-2 6 8-3 5-10-3z"/>
		<path id="Path 444" class="s63" d="m558 458l4-12 8 3-2 11z"/>
		<path id="Path 445" class="s81" d="m480 454l5-1 1-7h6l8 2 14 3 10 1v8l-10 3-6 9-20 4-14-6v-9l3-5z"/>
		<path id="Path 446" class="s62" d="m480 454v-8h6l-1 7z"/>
		<path id="Path 447" class="s61" d="m222 452l6-6 10 6v8h-7l-1 6h-8z"/>
		<path id="Path 448" class="s4" d="m692 446v-1l48 39-9 10-18 6v-2l7-4 14-4 3-7-34-27z"/>
		<path id="Path 449" class="s82" d="m205 446l9-1 2 7h6v14h-10l-9 8h-21l-14 10h-13l-4 8-21-4-3-16 3-1 22-7 25-9 9-3z"/>
		<path id="Path 450" class="s80" d="m186 451l19-6v1l-19 6z"/>
		<path id="Path 451" class="s65" d="m471 448l1-4 6 1 2 1v8l-3 2z"/>
		<path id="Path 452" class="s56" d="m264 459l5-14 5-1 12 8v13l-10 2-9 1h-1z"/>
		<path id="Path 453" class="s12" d="m514 449l-4-6h1l14 6v1z"/>
		<path id="Path 454" class="s47" d="m214 445l8-2h6v3l-6 6h-6z"/>
		<path id="Path 455" class="s33" d="m450 450v-8h8 10l4 2-1 4-9 2z"/>
		<path id="Path 456" class="s61" d="m399 443l13-1 9 14-19 4-9-1v-12z"/>
		<path id="Path 457" class="s56" d="m393 447v-5l6 1z"/>
		<path id="Path 458" class="s73" d="m205 445l17-3v1l-8 2-9 1z"/>
		<path id="Path 459" class="s25" d="m553 443l7-2 2 5-4 12-13-3-4-5v-2z"/>
		<path id="Path 460" class="s69" d="m438 462l4-4v-17l8 1v8 4l-6 9-6 1z"/>
		<path id="Path 461" class="s16" d="m682 441v-1l10 5v1z"/>
		<path id="Path 462" class="s72" d="m538 448l16-8-1 3-12 5z"/>
		<path id="Path 463" class="s53" d="m492 446v-6l7 1 1 7z"/>
		<path id="Path 464" class="s56" d="m350 464l-2-15 4-9h14l6 14v10l-2 2h-18z"/>
		<path id="Path 465" class="s74" d="m222 442l9-2v1l-3 2h-6z"/>
		<path id="Path 466" class="s81" d="m412 439l6-1h12l10 2 2 1v17l-4 4h-12l-5-6-9-14z"/>
		<path id="Path 467" class="s47" d="m274 444l2-6 14 9 2 16-6 2v-13z"/>
		<path id="Path 468" class="s84" d="m554 440l7-3h1l-2 4-7 2z"/>
		<path id="Path 469" class="s0" d="m510 443l-3-6h1l3 6z"/>
		<path id="Path 470" class="s73" d="m231 440l13-2-13 3z"/>
		<path id="Path 471" class="s58" d="m478 445l3-9 7 2 4 2v6h-6-6z"/>
		<path id="Path 472" class="s69" d="m244 438l20-3h12v3l-2 6-5 1-5 14-8 6-6-1-1-7-11-5-10-6v-3l3-2z"/>
		<path id="Path 473" class="s47" d="m394 435l10-1 8 5v3l-13 1-6-1v5 12l9 1v10h-3l-14-4 1-12v-10l6-9z"/>
		<path id="Path 474" class="s81" d="m366 440l1-6h12 6l7 1-6 9v10h-14z"/>
		<path id="Path 475" class="s19" d="m660 456v-13l8-10 14 8 10 5 11 10-8 9-10 3h-13-6l-1-10z"/>
		<path id="Path 476" class="s60" d="m441 438l11-6 6 6v4h-8l-8-1-2-1z"/>
		<path id="Path 477" class="s39" d="m430 438v-6h8l3 6-1 2z"/>
		<path id="Path 478" class="s62" d="m276 435l7-3h3v6l11 8 4 19-9-2-2-16-14-9z"/>
		<path id="Path 479" class="s73" d="m264 435l19-3-7 3z"/>
		<path id="Path 480" class="s65" d="m352 440v-9h2 7 5l1 3-1 6z"/>
		<path id="Path 481" class="s62" d="m324 464v-13l10-20h2 4l2 33-12 1z"/>
		<path id="Path 482" class="s46" d="m462 434l6-4v12h-10v-4z"/>
		<path id="Path 483" class="s31" d="m425 431l2-1 3 2v6h-12v-1z"/>
		<path id="Path 484" class="s56" d="m404 434l2-4 4 1 8 6v1l-6 1z"/>
		<path id="Path 485" class="s4" d="m666 431v-2l16 11v1l-14-8z"/>
		<path id="Path 486" class="s72" d="m561 437l11-8v2l-10 6z"/>
		<path id="Path 487" class="s47" d="m340 431l2-2 7 1 3 1v9l-4 9 2 15h-8z"/>
		<path id="Path 488" class="s71" d="m291 432l13-3v1z"/>
		<path id="Path 489" class="s24" d="m572 431l6-3 19 13 5 7v18l-25-3-9-3 2-11-8-3-2-5 2-4z"/>
		<path id="Path 490" class="s16" d="m506 432l1-4 1 1v8h-1z"/>
		<path id="Path 491" class="s38" d="m488 438v-10l18 4 1 5 3 6 4 6v2l-14-3-1-7-7-1z"/>
		<path id="Path 492" class="s29" d="m452 432v-4h6l4 6-4 4z"/>
		<path id="Path 493" class="s29" d="m394 430l5-2h6l1 2-2 4-10 1z"/>
		<path id="Path 494" class="s70" d="m386 430l3-2 5 2v5h-2l-7-1z"/>
		<path id="Path 495" class="s69" d="m326 431l6-3 2 3-10 20v13l-17 1h-6l-4-19 19 2 10-10z"/>
		<path id="Path 496" class="s76" d="m304 429l8-1 1 2h-9z"/>
		<path id="Path 497" class="s70" d="m597 441l1-14h17l9 13h24l8 16v16l-27-12h-12l-5 8-10-1v-1-18z"/>
		<path id="Path 498" class="s37" d="m410 431l1-4h10l4 4-7 6z"/>
		<path id="Path 499" class="s64" d="m366 431l6-4 7 7h-12z"/>
		<path id="Path 500" class="s81" d="m315 430l9-3 2 4v7l-10 10-19-2-11-8v-6h5l13-2h9z"/>
		<path id="Path 501" class="s16" d="m666 431l-10-5h1l9 3z"/>
		<path id="Path 502" class="s38" d="m342 426l5-1 2 5-7-1z"/>
		<path id="Path 503" class="s8" d="m312 428l3-3h1l-1 5h-2z"/>
		<path id="Path 504" class="s60" d="m427 430l11-6v8h-8z"/>
		<path id="Path 505" class="s64" d="m389 428l9-4 1 4-5 2z"/>
		<path id="Path 506" class="s75" d="m316 425l1-1 7 3-9 3z"/>
		<path id="Path 507" class="s29" d="m372 427v-4h2l10 1 2 6-1 4h-6z"/>
		<path id="Path 508" class="s38" d="m648 440l3-18h2l3 4 10 5 2 2-8 10v13h-4z"/>
		<path id="Path 509" class="s38" d="m578 428l10-6 8 4 2 1-1 14z"/>
		<path id="Path 510" class="s64" d="m354 431l4-9 3 9z"/>
		<path id="Path 511" class="s20" d="m332 428v-6h4v9h-2z"/>
		<path id="Path 512" class="s44" d="m411 427l3-6h5l2 6z"/>
		<path id="Path 513" class="s72" d="m653 422v-2l4 6h-1z"/>
		<path id="Path 514" class="s50" d="m468 430v-10l10 3 3 13-3 9-6-1-4-2z"/>
		<path id="Path 515" class="s54" d="m336 422l2-2 4 1v5 3l-2 2h-4z"/>
		<path id="Path 516" class="s56" d="m342 421l4-2 1 6-5 1z"/>
		<path id="Path 517" class="s37" d="m398 424v-6h8l-1 10h-6z"/>
		<path id="Path 518" class="s37" d="m358 422v-4h1l6 1 7 4v4l-6 4h-5z"/>
		<path id="Path 519" class="s4" d="m315 425l3-7v1l-1 5-1 1z"/>
		<path id="Path 520" class="s9" d="m588 422l7-6h2l-1 10z"/>
		<path id="Path 521" class="s16" d="m572 429l23-14v1l-7 6-10 6-6 3z"/>
		<path id="Path 522" class="s5" d="m502 417l3-2v9l7-2-4 7-1-1z"/>
		<path id="Path 523" class="s64" d="m374 423l5-9h3l2 10z"/>
		<path id="Path 524" class="s54" d="m346 419l3-5h5l4 4v4l-4 9h-2l-3-1-2-5z"/>
		<path id="Path 525" class="s40" d="m359 418l5-5 1 6z"/>
		<path id="Path 526" class="s38" d="m446 420l2-10 18 4 2 6v10l-6 4-4-6h-6z"/>
		<path id="Path 527" class="s46" d="m441 414l4-4h3l-2 10z"/>
		<path id="Path 528" class="s46" d="m398 418l1-6 7-2v8z"/>
		<path id="Path 529" class="s25" d="m318 419l6-9 8 12v6l-6 3-2-4-7-3z"/>
		<path id="Path 530" class="s8" d="m497 412l7-3 1 4v2l-3 2-6-5z"/>
		<path id="Path 531" class="s31" d="m349 414l5-5v5z"/>
		<path id="Path 532" class="s6" d="m494 409v-1l3 4h-1z"/>
		<path id="Path 533" class="s46" d="m430 414l-8 1 1-7h5z"/>
		<path id="Path 534" class="s9" d="m379 414l-3-8h7v4l-1 4z"/>
		<path id="Path 535" class="s54" d="m364 413v-7h3 7 2l3 8-5 9h-2l-7-4z"/>
		<path id="Path 536" class="s16" d="m318 418l5-12h2l-1 4-6 9z"/>
		<path id="Path 537" class="s4" d="m595 415l12-10 1 1-6 6-5 4h-2z"/>
		<path id="Path 538" class="s16" d="m651 422l-12-18h2l12 16v2z"/>
		<path id="Path 539" class="s41" d="m608 406l4-2 2 2-2 8-10-2z"/>
		<path id="Path 540" class="s22" d="m354 405l8-1 2 2v7l-5 5h-1l-4-4v-5z"/>
		<path id="Path 541" class="s25" d="m338 420l-4-8 3-9 13 1 4 1v4l-5 5-3 5-4 2z"/>
		<path id="Path 542" class="s54" d="m418 404v-2h4v5z"/>
		<path id="Path 543" class="s46" d="m384 404l5-2 3 7-9 1v-4z"/>
		<path id="Path 544" class="s40" d="m367 406l5-4 2 4z"/>
		<path id="Path 545" class="s19" d="m614 406l19-5 6 3 12 18-3 18h-24l-9-13h-17l-2-1 1-10 5-4 10 2z"/>
		<path id="Path 546" class="s72" d="m607 405l7-5h1l-3 4-4 2z"/>
		<path id="Path 547" class="s2" d="m486 402l9-4-1 10v1l-2-5-7-1z"/>
		<path id="Path 548" class="s19" d="m422 402l1-4h7l4 5 6-3h4l1 10-4 4h-11l-2-6h-5l-1-1z"/>
		<path id="Path 549" class="s46" d="m408 401l8-3 2 4v2h-11z"/>
		<path id="Path 550" class="s41" d="m391 398l9-1 8 4-1 3h11l4 3 1 1-1 7 8-1h11l5 6 6 8v4l-11 6-3-6v-8l-11 6-2 1-4-4-2-6h-5l-3 6-1 4-4-1-1-2 1-10v-8l-7 2-1 6v6l-9 4-3 2-2-6-2-10 1-4 9-1-3-7v-4z"/>
		<path id="Path 551" class="s55" d="m384 404l-2-7 7 1v4z"/>
		<path id="Path 552" class="s4" d="m485 403l-6-7h3l4 6z"/>
		<path id="Path 553" class="s31" d="m430 398l7-2 3 4-6 3z"/>
		<path id="Path 554" class="s72" d="m633 401l-2-6h1l9 9h-2z"/>
		<path id="Path 555" class="s4" d="m614 400l5-5v1l-4 4z"/>
		<path id="Path 556" class="s54" d="m619 396l11-2 1 1 2 6-19 5-2-2 3-4z"/>
		<path id="Path 557" class="s22" d="m372 402v-5l6-3h4v3l2 7-1 2h-7-2z"/>
		<path id="Path 558" class="s2" d="m323 406l6-12h1l-5 12z"/>
		<path id="Path 559" class="s4" d="m630 394v-1l2 2h-1z"/>
		<path id="Path 560" class="s54" d="m468 395l3-2 5 1 3 2 6 7 7 1 2 5 2 3 6 5 5 11-1 4-18-4-2-16-6-1z"/>
		<path id="Path 561" class="s31" d="m391 398l8-5 1 4z"/>
		<path id="Path 562" class="s2" d="m619 395l11-2v1l-11 2z"/>
		<path id="Path 563" class="s67" d="m350 404v-12h2l10 5v7l-8 1z"/>
		<path id="Path 564" class="s27" d="m337 403l4-11h9v12z"/>
		<path id="Path 565" class="s0" d="m476 392l6-4v8h-3l-3-2z"/>
		<path id="Path 566" class="s40" d="m378 394v-6h4v6z"/>
		<path id="Path 567" class="s22" d="m468 395l-12-5v-8l10 1 5 10z"/>
		<path id="Path 568" class="s59" d="m400 386l3-6 6 1-1 6z"/>
		<path id="Path 569" class="s4" d="m455 380v-1h12l3 2-1 6 7 5v2l-5-1-5-10-10-1z"/>
		<path id="Path 570" class="s20" d="m444 400l4-21 7 1 1 2v8l12 5 12 16 6 1 2 16v10l-7-2-3-13-10-3-2-6-18-4h-3z"/>
		<path id="Path 571" class="s0" d="m329 394l8-15v3l-7 12z"/>
		<path id="Path 572" class="s5" d="m467 379l3-2v4z"/>
		<path id="Path 573" class="s26" d="m445 376l7-2 3 2v3 1l-7-1z"/>
		<path id="Path 574" class="s8" d="m337 379l3-5h1l-4 8z"/>
		<path id="Path 575" class="s6" d="m452 373l4-1-1 4-3-2z"/>
		<path id="Path 576" class="s40" d="m374 370l6 1-2 4z"/>
		<path id="Path 577" class="s2" d="m340 374l3-5h1l-3 5z"/>
		<path id="Path 578" class="s75" d="m344 369l2-1h4l-4 14 6 4v6h-2-9l-4 11-3 9 4 8-2 2h-4l-8-12 1-4 5-12 7-12 4-8z"/>
		<path id="Path 579" class="s4" d="m445 376l-7-9h1l8 8 5-2v1z"/>
		<path id="Path 580" class="s6" d="m431 367v-2h3 1z"/>
		<path id="Path 581" class="s22" d="m409 381l12-16 10 2 4-2 3 2 7 9 3 3-4 21h-4l-3-4-7 2h-7l-1 4h-4l-2-4-8 3-8-4-1-4 1-7 8 1z"/>
		<path id="Path 582" class="s85" d="m346 368v-4l6 1v1l-2 2z"/>
		<path id="Path 583" class="s21" d="m343 369l3-6v1 4l-2 1z"/>
		<path id="Path 584" class="s5" d="m434 365l5-3v5h-1l-3-2z"/>
		<path id="Path 585" class="s16" d="m346 363l2-3 4 5-6-1z"/>
		<path id="Path 586" class="s59" d="m362 360h5l1 6h-5z"/>
		<path id="Path 587" class="s27" d="m356 363l4-4 2 1 1 6h5l6 4 4 5v13 6l-6 3v5l-5 4h-3l-2-2v-7l-10-5v-6l-6-4 4-14 2-2z"/>
		<path id="Path 588" class="s6" d="m348 360l4-3 4 5v1l-4 3v-1z"/>
		<path id="Path 589" class="s16" d="m415 359l5-3 2 3 3 6h6v2l-10-2-6-4z"/>
		<path id="Path 590" class="s12" d="m420 356l4-2-2 5z"/>
		<path id="Path 591" class="s52" d="m389 358l13-6 5 8 8 1 6 4-12 16-6-1-3 6-1 7-8 5h-2l-7-1v-3-6h-4v-13l2-4z"/>
		<path id="Path 592" class="s35" d="m387 374l5 2-6 4z"/>
		<path id="Path 593" class="s4" d="m356 362l6-10v2l-2 5-4 4z"/>
		<path id="Path 594" class="s25" d="m362 354l7-5 2 3 3 7 7-5h6l2 4-9 13-6-1-6-4-1-6h-5l-2-1z"/>
		<path id="Path 595" class="s4" d="m372 352l4 4 6-8h1l-2 6-7 5-3-7z"/>
		<path id="Path 596" class="s4" d="m389 348v8h4l11-10 1 10 10 3v2l-8-1-5-8-13 6-2-4 1-6z"/>
		<path id="Path 597" class="s86" d="m383 348h5l-1 6h-6z"/>
		<path id="Path 598" class="s16" d="m362 352l5-6 2 3-7 5z"/>
		<path id="Path 599" class="s5" d="m382 348l6-5 1 5h-1-5z"/>
		<path id="Path 600" class="s6" d="m367 346l5-2v8h-1l-2-3z"/>
	</g>
</svg>