<svg version="1.2" xmlns="http://www.w3.org/2000/svg" viewBox="0 0 1000 1000" width="1000" height="1000">
	<title>Sander_canadense</title>
	<style>
		.s0 { opacity: .8;fill: #dad4d0 } 
		.s1 { opacity: .4;fill: #dfdcd9 } 
		.s2 { opacity: .1;fill: #d9d4d1 } 
		.s3 { opacity: 1;fill: #bb985f } 
		.s4 { opacity: 1;fill: #967d51 } 
		.s5 { opacity: .9;fill: #bcb6b1 } 
		.s6 { opacity: .6;fill: #d9d5d1 } 
		.s7 { fill: #8b795f } 
		.s8 { fill: #a08b6b } 
		.s9 { fill: #c6b194 } 
		.s10 { fill: #ae997c } 
		.s11 { fill: #c1b7ac } 
		.s12 { opacity: .2;fill: #b4aeac } 
		.s13 { fill: #b3a99e } 
		.s14 { fill: #94897b } 
		.s15 { fill: #251e1e } 
		.s16 { fill: #555e6d } 
		.s17 { fill: #3c3028 } 
		.s18 { fill: #322e31 } 
		.s19 { opacity: .7;fill: #f2eff1 } 
		.s20 { opacity: 1;fill: #72706f } 
		.s21 { fill: #504e55 } 
		.s22 { fill: #a2988c } 
		.s23 { fill: #a0a2ae } 
		.s24 { fill: #abacb6 } 
		.s25 { opacity: .7;fill: #bab3af } 
		.s26 { fill: #726a63 } 
		.s27 { fill: #31475e } 
		.s28 { fill: #7c869a } 
		.s29 { fill: #826940 } 
		.s30 { fill: #6a5a49 } 
		.s31 { fill: #7b787b } 
		.s32 { opacity: .3;fill: #f7f5f5 } 
		.s33 { opacity: .5;fill: #b4b0ac } 
		.s34 { fill: #39373c } 
		.s35 { fill: #786752 } 
		.s36 { fill: #98969c } 
		.s37 { fill: #1a1618 } 
		.s38 { fill: #554634 } 
		.s39 { opacity: .1;fill: #f5f2f3 } 
		.s40 { opacity: 1;fill: #858484 } 
		.s41 { fill: #4f617a } 
		.s42 { fill: #302625 } 
		.s43 { fill: #242934 } 
		.s44 { fill: #717887 } 
		.s45 { fill: #636e7d } 
		.s46 { fill: #6a7a93 } 
		.s47 { fill: #696972 } 
		.s48 { fill: #5c5044 } 
		.s49 { fill: #8e95a6 } 
		.s50 { opacity: .5;fill: #9a9082 } 
		.s51 { fill: #5b6e8a } 
		.s52 { opacity: .6;fill: #f3f0f0 } 
		.s53 { fill: #85796a } 
		.s54 { fill: #463d37 } 
		.s55 { fill: #3e4e60 } 
		.s56 { fill: #5e5b5f } 
		.s57 { fill: #3d4351 } 
		.s58 { fill: #181b23 } 
		.s59 { fill: #b6b6c0 } 
		.s60 { opacity: .3;fill: #8e8c8f } 
		.s61 { opacity: .2;fill: #968d82 } 
		.s62 { fill: #233248 } 
		.s63 { opacity: .8;fill: #9d9288 } 
		.s64 { opacity: .8;fill: #7c797c } 
		.s65 { opacity: .2;fill: #504845 } 
		.s66 { opacity: .4;fill: #777578 } 
		.s67 { opacity: .7;fill: #928f93 } 
		.s68 { fill: #474347 } 
		.s69 { fill: #102137 } 
		.s70 { fill: #304153 } 
		.s71 { fill: #475363 } 
		.s72 { fill: #213852 } 
		.s73 { fill: #19293e } 
		.s74 { fill: #3a526e } 
		.s75 { fill: #88878d } 
		.s76 { opacity: .6;fill: #6e6a6f } 
		.s77 { fill: #c1c0c9 } 
		.s78 { fill: #d6d4dd } 
		.s79 { fill: #fdfdfc } 
		.s80 { fill: #dfdde7 } 
		.s81 { fill: #cbcbd3 } 
		.s82 { fill: #fcfaec } 
		.s83 { fill: #eae6ee } 
		.s84 { fill: #ddd4cc } 
		.s85 { fill: #ede3d4 } 
		.s86 { fill: #f4f1f4 } 
		.s87 { fill: #f1ebe0 } 
		.s88 { fill: #c9ab7d } 
		.s89 { fill: #e7d3ba } 
		.s90 { fill: #cfc4b5 } 
		.s91 { fill: #dec4a2 } 
		.s92 { opacity: .9;fill: #dfdad7 } 
		.s93 { fill: #df9e47 } 
		.s94 { fill: #efb36c } 
		.s95 { opacity: .9;fill: #f4f1f2 } 
	</style>
	<g id="Background">
		<path id="Path 0" class="s0" d="m338 338v-1h8l1 1v1h-4-5z"/>
		<path id="Path 1" class="s1" d="m346 337h1v1h-1z"/>
		<path id="Path 2" class="s2" d="m331 340l7-2v1z"/>
		<path id="Path 3" class="s1" d="m347 339v-1l5 4z"/>
		<path id="Path 4" class="s2" d="m363 341v-3h7l2 4-3-3z"/>
		<path id="Path 5" class="s3" d="m331 340l7-1h5v7l-1 1h-11l-2-5z"/>
		<path id="Path 6" class="s4" d="m343 346v-7h4l5 3 5 4 1 3-1 4h-8v-6l-4-1z"/>
		<path id="Path 7" class="s3" d="m363 341l6-2 3 3 2 5 1 7-4 2v4h-1l-7-5-1-5-1-4v-1z"/>
		<path id="Path 8" class="s2" d="m321 342l6-1-5 1z"/>
		<path id="Path 9" class="s2" d="m328 342l3-2-2 2z"/>
		<path id="Path 10" class="s5" d="m322 342l5-1v1l-2 1z"/>
		<path id="Path 11" class="s6" d="m311 348l2-5 7-1-9 7z"/>
		<path id="Path 12" class="s7" d="m311 349l9-7h1 1l3 1v7l-3 6-3 7h-8l-1-3-5 1z"/>
		<path id="Path 13" class="s8" d="m325 343l2-1h1 1l2 5-1 3h-5z"/>
		<path id="Path 14" class="s1" d="m357 346l-5-4 9 3v1z"/>
		<path id="Path 15" class="s9" d="m342 347l1-1h2v3h-3z"/>
		<path id="Path 16" class="s10" d="m345 349v-3l4 1v6h-4z"/>
		<path id="Path 17" class="s11" d="m358 349l-1-3h4l1 4z"/>
		<path id="Path 18" class="s7" d="m330 350l1-3h11v2 6l-4 8-3 8-5 5-5 1-4-4v-10l4-5 7-2z"/>
		<path id="Path 19" class="s12" d="m375 354l-1-7 2 10h-1z"/>
		<path id="Path 20" class="s1" d="m303 364l1-7 7-9v1l-6 12z"/>
		<path id="Path 21" class="s13" d="m342 355v-6h3v4l-1 2z"/>
		<path id="Path 22" class="s14" d="m349 353h8l1-4 4 1 1 5-4 4 3 8-3 2-11-3-4-5v-6l1-2z"/>
		<path id="Path 23" class="s15" d="m322 356l3-6h5l2 6-7 2z"/>
		<path id="Path 24" class="s11" d="m371 360v-4l4-2v3l1 4z"/>
		<path id="Path 25" class="s16" d="m338 363l4-8h2v6l-1 4h-1z"/>
		<path id="Path 26" class="s17" d="m362 367l-3-8 4-4 7 5 2 6-3 1z"/>
		<path id="Path 27" class="s18" d="m319 363l3-7 3 2-4 5z"/>
		<path id="Path 28" class="s0" d="m376 361l-1-4h1l4 5v2z"/>
		<path id="Path 29" class="s0" d="m423 362l3-5h6l7 6v1h-2l-4-5-6 2z"/>
		<path id="Path 30" class="s19" d="m390 362l8 3 5-7h4l9 9h-5l-2-1-2-4-7 4-5 2z"/>
		<path id="Path 31" class="s20" d="m427 361l6-2 4 5-2 2-7 1z"/>
		<path id="Path 32" class="s21" d="m305 361l5-1 1 3-2 4-2 2-4-2v-2-1z"/>
		<path id="Path 33" class="s22" d="m369 367l3-1-2-6h1l5 1 4 3 3-1 3-1h4l5 6v3h-4l-1-5h-6l-9 10-2 1-7-4z"/>
		<path id="Path 34" class="s23" d="m343 365l1-4 4 5h-1z"/>
		<path id="Path 35" class="s24" d="m423 362l4-1 1 6h-3l-2-3z"/>
		<path id="Path 36" class="s12" d="m380 364v-2l3 1z"/>
		<path id="Path 37" class="s10" d="m400 366l7-4 2 4-8 3z"/>
		<path id="Path 38" class="s25" d="m418 367l5-5v2l-2 2z"/>
		<path id="Path 39" class="s26" d="m309 367l2-4h8 2v10l4 4-2 4h-4l-1-7-5-1v-4z"/>
		<path id="Path 40" class="s27" d="m335 371l3-8 4 2z"/>
		<path id="Path 41" class="s19" d="m439 364v-1l6 4 1 3-5-3z"/>
		<path id="Path 42" class="s14" d="m421 366l2-2 2 3-2 2z"/>
		<path id="Path 43" class="s11" d="m435 366l2-2h2l2 3-6 2z"/>
		<path id="Path 44" class="s1" d="m298 376l5-11v2z"/>
		<path id="Path 45" class="s28" d="m335 371l7-6h1l4 1 1 12 3 2-1 4-5 3v5 5h-4l-1 3-3 1-6-7v-5l5-2v-3h-5l-1-8z"/>
		<path id="Path 46" class="s22" d="m351 380l-3-2-1-12h1l11 3v5l3 1v5l-3 2-3-4z"/>
		<path id="Path 47" class="s29" d="m375 376l9-10h6l1 5-3 5-3 5h-2v-4z"/>
		<path id="Path 48" class="s11" d="m395 368l5-2 1 3-4 5-2-3z"/>
		<path id="Path 49" class="s7" d="m401 369l8-3 2 1v10l-5 2-7-4h-2v-1z"/>
		<path id="Path 50" class="s22" d="m418 367l3-1 2 3v6l-3 6h-6l-3-4v-10h5z"/>
		<path id="Path 51" class="s30" d="m428 367l7-1v3l-1 6h-5-6v-6l2-2z"/>
		<path id="Path 52" class="s20" d="m298 376l5-9 4 2 2-2 4 2v4l-1 9 5 1 3 8-3 1v7h-2-10l-2-5-9-3 2-9v-1l2-4z"/>
		<path id="Path 53" class="s20" d="m359 369l3-2h7l-3 6-4 2-3-1z"/>
		<path id="Path 54" class="s31" d="m435 369l6-2 5 3 1 2v8l-8 1-5-6z"/>
		<path id="Path 55" class="s32" d="m446 370l-1-3 14 10-9-3-3-2z"/>
		<path id="Path 56" class="s2" d="m599 372l12-2v2l-5-1z"/>
		<path id="Path 57" class="s23" d="m388 376l3-5h4l2 3v1l-4 3z"/>
		<path id="Path 58" class="s14" d="m599 372l7-1v4l-8-1z"/>
		<path id="Path 59" class="s22" d="m606 375v-4l5 1h1l5 3 2 2h1l4 3 1 1 14 15h-8l-6-12-14-6z"/>
		<path id="Path 60" class="s14" d="m447 380v-8l3 2 5 5v5l-4 1h-4z"/>
		<path id="Path 61" class="s33" d="m568 387l20-12 11-3-1 2-20 10-10 4z"/>
		<path id="Path 62" class="s34" d="m317 383l-5-1 1-9 5 1 1 7z"/>
		<path id="Path 63" class="s28" d="m362 375l4-2 7 4-4 6h-2l-5-3z"/>
		<path id="Path 64" class="s11" d="m455 384v-5l-5-5 9 3 4 1-1 7z"/>
		<path id="Path 65" class="s30" d="m578 384l20-10 8 1 5 3-10 11-4 3-7 1-4-4h-5l-3-1z"/>
		<path id="Path 66" class="s18" d="m393 378l4-3h2v8l-2 1h-4l-1-3z"/>
		<path id="Path 67" class="s17" d="m399 383v-8l7 4v2z"/>
		<path id="Path 68" class="s4" d="m420 381l3-6h6l2 7-2 6h-6z"/>
		<path id="Path 69" class="s35" d="m431 382l-2-7h5l5 6-2 2z"/>
		<path id="Path 70" class="s36" d="m325 377l5-1 1 8-3 4 3 1v5h-5l-6-3-3-8 2-2h4z"/>
		<path id="Path 71" class="s37" d="m373 377l2-1 8 1v4l-4 4-8 1-2-3z"/>
		<path id="Path 72" class="s36" d="m385 381l3-5 5 2-1 3-4 3z"/>
		<path id="Path 73" class="s36" d="m406 379l5-2 3 4v3h-1l-5 1-2-4z"/>
		<path id="Path 74" class="s38" d="m351 380l5-2 3 4-2 7h-2l-5-5z"/>
		<path id="Path 75" class="s39" d="m462 385l1-7 1 9h-1z"/>
		<path id="Path 76" class="s7" d="m601 389l10-11 14 6 6 12h8l4 3 5 2 5 4-1 6-1 7-7-1-1 4v1l-8 9h-14l-8-6v-6l2-12h3l1-4-6-6-7 1-3-4z"/>
		<path id="Path 77" class="s23" d="m359 382l3-2 5 3v3l-5 6-5 1v-4z"/>
		<path id="Path 78" class="s15" d="m439 381l8-1v5l-3 4h-6l-1-6z"/>
		<path id="Path 79" class="s2" d="m625 381l-1-1 3 1z"/>
		<path id="Path 80" class="s22" d="m379 385l4-4h2l3 3-2 5h-3z"/>
		<path id="Path 81" class="s29" d="m388 384l4-3 1 3h4v9l-5 4h-2l-8-4 1-4h3z"/>
		<path id="Path 82" class="s14" d="m399 383l7-2 2 4-1 6 6 2 3 6v3l-9 7-5-3-2-4h-5l-3-5 5-4v-9z"/>
		<path id="Path 83" class="s14" d="m414 384v-3h6l3 7-2 9-4-5v-6z"/>
		<path id="Path 84" class="s0" d="m639 396l-14-15h2l15 12 2 2 2 2v2h-3z"/>
		<path id="Path 85" class="s2" d="m293 391l3-9-2 9z"/>
		<path id="Path 86" class="s7" d="m429 388l2-6 6 1 1 6h6l-1 8-4 3-6-1v-9z"/>
		<path id="Path 87" class="s40" d="m367 386v-3h2l2 3-2 1z"/>
		<path id="Path 88" class="s41" d="m331 389l-3-1 3-4h5v3z"/>
		<path id="Path 89" class="s42" d="m345 392v-5l5-3 5 5-3 3z"/>
		<path id="Path 90" class="s34" d="m408 385l5-1 1 8-1 1-6-2z"/>
		<path id="Path 91" class="s43" d="m414 392l-1-8h1l3 2v6z"/>
		<path id="Path 92" class="s13" d="m451 385l4-1 7 1 1 2v1l-2 5v4h-6z"/>
		<path id="Path 93" class="s26" d="m568 388l10-4v4l3 1 1 12h-1-14v-6l-5-3z"/>
		<path id="Path 94" class="s36" d="m371 386l8-1 4 4-1 4-2 3-4 3-7-3-1-4 1-5z"/>
		<path id="Path 95" class="s22" d="m444 389l3-4h4l4 12-1 1h-3l-8-1z"/>
		<path id="Path 96" class="s44" d="m362 392l5-6 2 1-1 5-5 2z"/>
		<path id="Path 97" class="s25" d="m463 388v-1h1l5 4-1 1h-3z"/>
		<path id="Path 98" class="s1" d="m551 397l2-4 15-6v1l-6 4z"/>
		<path id="Path 99" class="s29" d="m421 397l2-9h6l4 2v9l-4 2-7-2h-1z"/>
		<path id="Path 100" class="s40" d="m461 393l2-5 2 4z"/>
		<path id="Path 101" class="s45" d="m352 392l3-3h2v4l5-1 1 2v7l-9 1-3-4z"/>
		<path id="Path 102" class="s7" d="m582 401l-1-12h5l4 4 7-1 2 2 2 6h5l1 2 4 8-6 4h-6l-8-7v-2l2-4h-4z"/>
		<path id="Path 103" class="s8" d="m597 392l4-3 2 5h-4z"/>
		<path id="Path 104" class="s46" d="m293 393v-2h1l9 3 2 5-2 6h-6l-6-1z"/>
		<path id="Path 105" class="s47" d="m317 399v-7l3-1 6 3-2 7h-1z"/>
		<path id="Path 106" class="s6" d="m468 392l1-1 17 14 3 9-5-6-5-6z"/>
		<path id="Path 107" class="s48" d="m345 397v-5h7l-1 6h-4z"/>
		<path id="Path 108" class="s49" d="m363 394l5-2 1 4v7h-4l-2-2z"/>
		<path id="Path 109" class="s40" d="m413 393l1-1h3l4 5v2h-5z"/>
		<path id="Path 110" class="s24" d="m461 393l4-1h3l11 10-4 2-6-4h-5l-3-3z"/>
		<path id="Path 111" class="s30" d="m551 397l11-5 5 3v6 6h-14l-6-1-1-5z"/>
		<path id="Path 112" class="s50" d="m288 415l1-15 4-7-2 11z"/>
		<path id="Path 113" class="s42" d="m380 396l2-3 8 4-1 3h-4z"/>
		<path id="Path 114" class="s51" d="m324 401l2-7h5l6 7-2 6h-8v-5z"/>
		<path id="Path 115" class="s30" d="m606 400h-5l-2-6h4l3 4z"/>
		<path id="Path 116" class="s45" d="m369 403v-7l7 3-4 5z"/>
		<path id="Path 117" class="s38" d="m376 399l4-3 5 4v10l-1 5-13 4-2-8 3-7z"/>
		<path id="Path 118" class="s38" d="m340 400l1-3h4l2 1v2z"/>
		<path id="Path 119" class="s20" d="m385 400h4l1-3h2l3 5-2 7-1 1h-7z"/>
		<path id="Path 120" class="s18" d="m439 400l4-3 8 1v5l-8 1h-3z"/>
		<path id="Path 121" class="s44" d="m454 398l1-1h6l3 3-4 4-5-1z"/>
		<path id="Path 122" class="s1" d="m531 408l10-8 10-3-5 4-10 6-5 2z"/>
		<path id="Path 123" class="s10" d="m606 398l7-1 6 6-1 4h-3l-2-4-6-1-1-2z"/>
		<path id="Path 124" class="s52" d="m646 399v-2l11 10-4-2-5-4z"/>
		<path id="Path 125" class="s31" d="m347 400v-2h4l3 4-2 5h-6z"/>
		<path id="Path 126" class="s20" d="m451 403v-5h3l1 5 5 1v4 1h-7z"/>
		<path id="Path 127" class="s16" d="m297 405h6l2-6h10v8 5l-2 4h-8l-1 3-4-2-3-2z"/>
		<path id="Path 128" class="s45" d="m315 407v-8h2l6 2v6z"/>
		<path id="Path 129" class="s38" d="m407 409l9-7v-3h5 1l1 6-3 4 1 7-4 2-4-6h-6z"/>
		<path id="Path 130" class="s37" d="m423 405l-1-6 7 2-1 3z"/>
		<path id="Path 131" class="s53" d="m429 401l4-2 6 1 1 4h3v5l-12-2-3-3z"/>
		<path id="Path 132" class="s13" d="m648 401l-5-2h3z"/>
		<path id="Path 133" class="s54" d="m337 401l3-1h7l-1 7 1 7-1 6h-5l-7-6 1-7z"/>
		<path id="Path 134" class="s34" d="m460 404l4-4h5v5l-4 3h-5z"/>
		<path id="Path 135" class="s31" d="m465 408l4-3v-5l6 4v5 6h-9z"/>
		<path id="Path 136" class="s28" d="m323 407v-6h1l3 1v5z"/>
		<path id="Path 137" class="s55" d="m354 402l9-1 2 2-4 6h-4-4l-1-2z"/>
		<path id="Path 138" class="s48" d="m536 407l10-6 1 5-8 3z"/>
		<path id="Path 139" class="s53" d="m567 407v-6h14v8z"/>
		<path id="Path 140" class="s14" d="m581 409v-8h1 7l2 4v2l-2 2h-4z"/>
		<path id="Path 141" class="s54" d="m591 405l-2-4h4z"/>
		<path id="Path 142" class="s34" d="m393 409l2-7h5l2 4-2 3z"/>
		<path id="Path 143" class="s13" d="m475 404l4-2 5 6-3 1h-6z"/>
		<path id="Path 144" class="s30" d="m605 414l6-4-4-8 6 1 2 4-2 12h-5z"/>
		<path id="Path 145" class="s55" d="m291 404l6 1v10l-2 2-3 3h-7v-1l3-4z"/>
		<path id="Path 146" class="s31" d="m361 409l4-6h4l3 1-3 7z"/>
		<path id="Path 147" class="s31" d="m443 404l8-1 2 6-3 2h-6l-1-2z"/>
		<path id="Path 148" class="s26" d="m423 405l5-1 3 3-1 6-9 3-1-7z"/>
		<path id="Path 149" class="s14" d="m652 411l1-6 4 2h1v1l-1 4z"/>
		<path id="Path 150" class="s56" d="m393 409h7l2-3 5 3v3l-2 6-10 1-3-9z"/>
		<path id="Path 151" class="s38" d="m431 407l12 2 1 2-9 7-5-5z"/>
		<path id="Path 152" class="s57" d="m539 409l8-3 6 1v6l12 9v7l-26-6 2-4-2-4z"/>
		<path id="Path 153" class="s56" d="m315 412v-5h8 4 8l-1 7-11 1z"/>
		<path id="Path 154" class="s48" d="m347 414l-1-7h6l1 2v6z"/>
		<path id="Path 155" class="s54" d="m531 409l5-2 3 2v6h-4-6l-2-3z"/>
		<path id="Path 156" class="s48" d="m565 429v-7l-12-9v-6h14l14 2h4v5l4 4-6 13z"/>
		<path id="Path 157" class="s22" d="m589 409l2-2 8 7h6l3 5v3h-6l-2-4-6-1z"/>
		<path id="Path 158" class="s39" d="m658 408v-1l4 3z"/>
		<path id="Path 159" class="s47" d="m460 409v-1h5l1 7-5 1z"/>
		<path id="Path 160" class="s31" d="m481 409l3-1 5 6 8 5-7 2-11-2v-1z"/>
		<path id="Path 161" class="s12" d="m519 415l12-7v1l-4 3-7 3z"/>
		<path id="Path 162" class="s22" d="m652 411l5 1 1-4 4 2 2 2 1 2-2 6 4 4v4l-15-1-1-4v-5z"/>
		<path id="Path 163" class="s54" d="m353 415v-6h4v6z"/>
		<path id="Path 164" class="s21" d="m357 415v-6h4l8 2 2 8-4 1-1-3h-7z"/>
		<path id="Path 165" class="s54" d="m385 410h7l3 9-10-1-1-3z"/>
		<path id="Path 166" class="s7" d="m450 411l3-2h7l1 7-4 1-7-2z"/>
		<path id="Path 167" class="s49" d="m475 415v-6h6l-2 9z"/>
		<path id="Path 168" class="s26" d="m589 418l-4-4v-5h4l5 8z"/>
		<path id="Path 169" class="s30" d="m435 418l9-7h6v4l-1 6-14-1z"/>
		<path id="Path 170" class="s43" d="m313 416l2-4 8 3-1 3-9 1z"/>
		<path id="Path 171" class="s15" d="m395 419l10-1 2-6h6l4 6 4-2 9-3 5 5v2l-10 8v8l-22 2-27-3-11-2v-9l2-4 4-1 13-4 1 3z"/>
		<path id="Path 172" class="s34" d="m520 415l7-3 2 3v5l-8 1-7-2 2-2z"/>
		<path id="Path 173" class="s39" d="m665 414l-1-2 3 3z"/>
		<path id="Path 174" class="s37" d="m323 415l11-1 7 6h5l3 3v4 5l-23 5-28-1-41 1-13 4-4 5-27 1-4-4v-10l1-1h3l7-1 8-2h1 5l11-3 11-2h2l5-1 3-1h2l7-1h3l7-1h7l3-3h5l4 2 5 2 4-2 9-1z"/>
		<path id="Path 175" class="s58" d="m346 420l1-6 6 1h4l2 2v6h-6-4z"/>
		<path id="Path 176" class="s59" d="m667 424l-4-4 2-6 2 1 5 7 1 3z"/>
		<path id="Path 177" class="s60" d="m285 418l3-3-3 4z"/>
		<path id="Path 178" class="s43" d="m295 417l2-2 3 2z"/>
		<path id="Path 179" class="s38" d="m449 421l1-6 7 2v6z"/>
		<path id="Path 180" class="s56" d="m461 416l5-1h9l4 3v1l-22 4v-6z"/>
		<path id="Path 181" class="s61" d="m516 417l3-2h1z"/>
		<path id="Path 182" class="s57" d="m529 420v-5h6v8z"/>
		<path id="Path 183" class="s62" d="m535 423v-8h4l2 4-2 4h-3z"/>
		<path id="Path 184" class="s58" d="m304 419l1-3h8v3l-4 2z"/>
		<path id="Path 185" class="s18" d="m359 423v-6h7l1 3-2 4z"/>
		<path id="Path 186" class="s61" d="m513 419l3-2-2 2z"/>
		<path id="Path 187" class="s56" d="m589 418l5-1 6 1 2 4h6l5 3 8 6v7l-7 1v-3l-17-3-1-2-11 2-2-2z"/>
		<path id="Path 188" class="s10" d="m643 421l1-4 7 1v5l-7-1z"/>
		<path id="Path 189" class="s30" d="m643 421h1v1h-1z"/>
		<path id="Path 190" class="s61" d="m278 419l7-1v1z"/>
		<path id="Path 191" class="s63" d="m278 421v-2h7v1z"/>
		<path id="Path 192" class="s42" d="m457 423l22-4 11 2 7-2h4l10 2 1-2h1 1l7 2 2 8h9l4-6h3l26 6 18 2 2 2 2 16h-2-6l-7-4-11 1-14-4-1-1-1-1-2-3h-17l-5 3v5h-28l-27-2v-5l-6-3h-16l-1 4h-9-7l-2-3v-8l10-8 14 1z"/>
		<path id="Path 193" class="s34" d="m545 440h1v1h-1z"/>
		<path id="Path 194" class="s64" d="m512 419l-1 2-10-2z"/>
		<path id="Path 195" class="s53" d="m608 422v-3h5v6z"/>
		<path id="Path 196" class="s15" d="m521 421l8-1 6 3h1l-4 6h-9z"/>
		<path id="Path 197" class="s12" d="m258 424l5-2v1z"/>
		<path id="Path 198" class="s65" d="m263 423v-1h3z"/>
		<path id="Path 199" class="s53" d="m635 431l8-9h1l7 1 1 4-2 9-11 1z"/>
		<path id="Path 200" class="s52" d="m673 425l-1-3 5 6v1l-2-1z"/>
		<path id="Path 201" class="s66" d="m244 425l12-1-11 2z"/>
		<path id="Path 202" class="s15" d="m349 427v-4h4v4z"/>
		<path id="Path 203" class="s42" d="m353 427v-4h6l6 1v9l-12-1z"/>
		<path id="Path 204" class="s40" d="m667 428v-4l6 1 2 3-2 11h-5z"/>
		<path id="Path 205" class="s67" d="m234 427l10-2 1 1-11 3z"/>
		<path id="Path 206" class="s25" d="m229 429l5-2v2z"/>
		<path id="Path 207" class="s43" d="m349 432v-5h4v5z"/>
		<path id="Path 208" class="s14" d="m650 436l2-9 15 1 1 11-13 2v-3z"/>
		<path id="Path 209" class="s12" d="m213 432l7-4 8 1-8 2z"/>
		<path id="Path 210" class="s24" d="m673 439l2-11 2 1 5 5v1l10 12 4 8h-5l-6-5-3-1v-5l-6-1z"/>
		<path id="Path 211" class="s32" d="m677 429v-1l5 6z"/>
		<path id="Path 212" class="s2" d="m919 432l17-2v2h-1-15z"/>
		<path id="Path 213" class="s18" d="m585 433l11-2 1 2-2 16h-8z"/>
		<path id="Path 214" class="s16" d="m621 438v-7h14l4 6-2 7-5 1v-4l-8 1z"/>
		<path id="Path 215" class="s13" d="m920 432h15l-3 1h-9-3z"/>
		<path id="Path 216" class="s12" d="m204 433l6-1-1 1-5 1z"/>
		<path id="Path 217" class="s62" d="m298 436l28 1 23-5h4l12 1 11 2 3 9 9 3v9l-3 1v9l-2 15-4-1-6-9-15 6h-3v-6l2-14-8-1-2 5-24-4-9 15-5 1-4-4v-11l-6-8z"/>
		<path id="Path 218" class="s60" d="m900 434l13-2v1l-6 1h-2z"/>
		<path id="Path 219" class="s66" d="m913 433v-1h6 1v1z"/>
		<path id="Path 220" class="s7" d="m932 433l3-1h1 5l4 2 2 3v7l-2 6-1 3-2 3-7 5-2-18z"/>
		<path id="Path 221" class="s32" d="m945 434l-4-2 6 1v1z"/>
		<path id="Path 222" class="s66" d="m192 435l12-2v1l-12 3z"/>
		<path id="Path 223" class="s15" d="m204 434l5-1v10l4 4v2h-18l-7-10 4-2z"/>
		<path id="Path 224" class="s15" d="m595 449l2-16 17 3v3l7-1 3 4 8-1v4l-3 3v7l-2 4h-13l-1-4h-10l-8-2z"/>
		<path id="Path 225" class="s48" d="m907 434l6-1h7 3v8l-12 2-4-1z"/>
		<path id="Path 226" class="s38" d="m923 441v-8h9l1 10h-10z"/>
		<path id="Path 227" class="s60" d="m893 436l7-2v2h-1z"/>
		<path id="Path 228" class="s63" d="m900 436v-2h5z"/>
		<path id="Path 229" class="s68" d="m900 436l5-2h2v8l-3 3h-7l-3-7 5-2z"/>
		<path id="Path 230" class="s25" d="m947 437l-2-3h2z"/>
		<path id="Path 231" class="s6" d="m183 438l9-3v2l-4 2h-5z"/>
		<path id="Path 232" class="s69" d="m240 446l4-5 13-4 41-1 1 14-6 7h-14l-6 6-6-2-3-7-20-3z"/>
		<path id="Path 233" class="s70" d="m388 456v-9l-9-3-3-9 27 3 22-2 2 3v10 10h-13l-1 3h-4l-3-1-1-4h-6z"/>
		<path id="Path 234" class="s34" d="m443 439l1-4h16l6 3v5l-1 8h-14v-5z"/>
		<path id="Path 235" class="s52" d="m692 447l-10-12 9 7z"/>
		<path id="Path 236" class="s56" d="m639 437l11-1 5 2v3 8h-6l-7-1-5-4z"/>
		<path id="Path 237" class="s63" d="m888 437l5-1h6l-5 2-7 1z"/>
		<path id="Path 238" class="s68" d="m521 445v-5l5-3h17l2 3 1 1 1 1-2 1-10 2z"/>
		<path id="Path 239" class="s2" d="m873 442l15-5-1 2z"/>
		<path id="Path 240" class="s60" d="m163 445l20-7v1l-4 2-5 2-7 2z"/>
		<path id="Path 241" class="s47" d="m887 439l7-1 3 7v4h-9l-2-4h-6l-4 10-9-2-1-8v-1l5-2h2z"/>
		<path id="Path 242" class="s37" d="m179 441l4-2h5l7 10-13 4-3 4-12 2h-13l-2 3-14 1-2-7 1-2 12-3 8-4h1l5-1 4-1 7-2z"/>
		<path id="Path 243" class="s62" d="m427 449v-10h7l-1 10z"/>
		<path id="Path 244" class="s70" d="m433 449l1-10h9l8 7v5l-8 3z"/>
		<path id="Path 245" class="s47" d="m655 441l13-2h5l3 4v6l-1 5h-9l-1-3-10-2z"/>
		<path id="Path 246" class="s7" d="m911 443l12-2v2l-1 19 9 2-9 9-5 5-6 3v-6l-5-1-3-5h-4v-3l11-10z"/>
		<path id="Path 247" class="s71" d="m545 443l2-1 14 4 2 7 8 6 1 10-8 4h-6l-1-5v-8l-12-9z"/>
		<path id="Path 248" class="s32" d="m866 443l5-1-5 2z"/>
		<path id="Path 249" class="s21" d="m897 445h7l3-3 4 1-1 13-11 10-2-2v-15z"/>
		<path id="Path 250" class="s70" d="m465 451l1-8 27 2-1 12-6 7h-2l-2-6-11-1z"/>
		<path id="Path 251" class="s57" d="m535 445l10-2v8h-10z"/>
		<path id="Path 252" class="s49" d="m676 449v-6l6 1v5z"/>
		<path id="Path 253" class="s50" d="m853 447l13-4v1 1z"/>
		<path id="Path 254" class="s35" d="m931 464l-9-2 1-19h10l2 18-1 2z"/>
		<path id="Path 255" class="s43" d="m632 445l5-1 5 4-3 9-10-2v-7z"/>
		<path id="Path 256" class="s0" d="m945 450l2-6v5l-1 1z"/>
		<path id="Path 257" class="s39" d="m946 449h1v1h-1z"/>
		<path id="Path 258" class="s47" d="m163 446v-1h4z"/>
		<path id="Path 259" class="s71" d="m492 457l1-12h28 14v6l-2 7h-11l-3 8h-2l-8-1-6-3-8 3v-6z"/>
		<path id="Path 260" class="s57" d="m561 446l11-1 7 4v8l-8 2-8-6z"/>
		<path id="Path 261" class="s45" d="m853 447l13-2 1 8h-7l-1 4h-6l-3-9 1-1z"/>
		<path id="Path 262" class="s56" d="m876 455l4-10h6l2 4-3 14h-6z"/>
		<path id="Path 263" class="s62" d="m213 447l27-1 4 5 1 15-3 2h-9l-5 2h-8v-3l-7-4v-14z"/>
		<path id="Path 264" class="s12" d="m146 449l9-2-5 2z"/>
		<path id="Path 265" class="s47" d="m150 449l5-2h2l-8 4z"/>
		<path id="Path 266" class="s0" d="m696 455l-4-8 13 10v2h-3z"/>
		<path id="Path 267" class="s2" d="m839 450l12-3-1 1-5 1-5 1z"/>
		<path id="Path 268" class="s17" d="m639 457l3-9 7 1-2 12h-8z"/>
		<path id="Path 269" class="s51" d="m845 449l5-1 3 9-7 2-2-3z"/>
		<path id="Path 270" class="s33" d="m131 455l15-6h4l-1 2-12 3-4 2h-2z"/>
		<path id="Path 271" class="s72" d="m179 457l3-4 13-4h18v14l-8 3-15 1-1 4h-6z"/>
		<path id="Path 272" class="s21" d="m427 459v-10h6l10 5v7h-8z"/>
		<path id="Path 273" class="s71" d="m579 457v-8h6l1 6-2 2z"/>
		<path id="Path 274" class="s43" d="m586 455l-1-6h2 8v4 2z"/>
		<path id="Path 275" class="s42" d="m647 461l2-12h6l10 2 1 3h9l8 3 19 2h3l7 2 5 2v12l-3 3-10 3-18-4-3-4h-19l-1-4h-6l-8-2z"/>
		<path id="Path 276" class="s31" d="m675 454l1-5h6l3 1-2 7z"/>
		<path id="Path 277" class="s31" d="m840 450l5-1-1 7-9 3-1-7z"/>
		<path id="Path 278" class="s26" d="m885 463l3-14h9v15l-3 1v4h-5z"/>
		<path id="Path 279" class="s72" d="m293 457l6-7 6 8v11h-8l-4-2z"/>
		<path id="Path 280" class="s47" d="m683 457l2-7 6 5h5l6 4z"/>
		<path id="Path 281" class="s12" d="m833 452l6-2h1l-6 2z"/>
		<path id="Path 282" class="s2" d="m944 453l1-3h1z"/>
		<path id="Path 283" class="s0" d="m650 526l14-3-12 2 5 7-6-2z"/>
		<path id="Path 284" class="s2" d="m729 521l10-1-35 3z"/>
		<path id="Path 285" class="s70" d="m242 468l3-2-1-15 20 3 3 7 6 2 3 12-1 4h-12l-11-2-6 3-6-3v-4z"/>
		<path id="Path 286" class="s71" d="m443 454l8-3h14l6 6v6h-10-6-8l-4-2z"/>
		<path id="Path 287" class="s16" d="m533 458l2-7h10l12 9v8l-12-2-6-1h-6z"/>
		<path id="Path 288" class="s12" d="m826 453l5-1-4 2h-1z"/>
		<path id="Path 289" class="s16" d="m827 454l4-2h2 1l1 7-8 1z"/>
		<path id="Path 290" class="s72" d="m595 455v-2l8 2v6h-6z"/>
		<path id="Path 291" class="s67" d="m809 457l13-4 1 1z"/>
		<path id="Path 292" class="s66" d="m823 454l-1-1h4v1z"/>
		<path id="Path 293" class="s16" d="m859 457l1-4h7l9 2 3 8v4l-16-4z"/>
		<path id="Path 294" class="s64" d="m133 456l4-2-1 2z"/>
		<path id="Path 295" class="s21" d="m809 457l14-3h3 1v6l-2 8-2 1h-7l-2 3-13-3h-2v-7l-3-1 1-2h2z"/>
		<path id="Path 296" class="s64" d="m123 457l8-2v1l-8 3z"/>
		<path id="Path 297" class="s27" d="m584 457l2-2h9l2 6h6v5l-17-1z"/>
		<path id="Path 298" class="s62" d="m603 461v-6h10l1 4z"/>
		<path id="Path 299" class="s18" d="m627 459l2-4 10 2v4 6h-10z"/>
		<path id="Path 300" class="s58" d="m123 459l8-3h2 3l2 7-3 9-6 3-10 1-8-2-1-10 1-1 4-2z"/>
		<path id="Path 301" class="s71" d="m347 461l2-5 8 1-2 14z"/>
		<path id="Path 302" class="s16" d="m385 466v-9l3-1 11 1v4l-2 2h-9z"/>
		<path id="Path 303" class="s41" d="m835 459l9-3 2 3 7-2h6l4 6v20l-1 1h-10l-6-1-11-4-1-6-9-5 2-8z"/>
		<path id="Path 304" class="s39" d="m935 461l7-5-1 4-7 3z"/>
		<path id="Path 305" class="s0" d="m114 460l9-3v2l-8 2z"/>
		<path id="Path 306" class="s70" d="m167 459l12-2 4 14-16 2z"/>
		<path id="Path 307" class="s73" d="m273 463l6-6h14v10l4 2-3 12-14-1-4-5z"/>
		<path id="Path 308" class="s70" d="m305 469l4 4 5-1 9-15 24 4 8 10v6l-2 4h-20l-2 6-4 2-4-4-5 2-4-3-12 1-7-4h-1l3-12z"/>
		<path id="Path 309" class="s45" d="m399 461v-4h6l1 4z"/>
		<path id="Path 310" class="s45" d="m471 463v-6l11 1 2 6v1h-13z"/>
		<path id="Path 311" class="s44" d="m486 464l6-7 3 2v6z"/>
		<path id="Path 312" class="s74" d="m571 459l8-2h5l2 8v5l-3 4h-7v-4l-4-1z"/>
		<path id="Path 313" class="s33" d="m705 459v-2l7 3v1z"/>
		<path id="Path 314" class="s44" d="m519 466l3-8h11v7 2z"/>
		<path id="Path 315" class="s12" d="m783 462l13-4v1l-4 2h-2l-6 1z"/>
		<path id="Path 316" class="s61" d="m796 459v-1l3 1h-2z"/>
		<path id="Path 317" class="s27" d="m152 462l2-3h13v14h-2l-12-2z"/>
		<path id="Path 318" class="s44" d="m413 462l1-3h13l8 2v6l-4 4v11h-2l-5-7-7 1-4-5z"/>
		<path id="Path 319" class="s70" d="m603 461l11-2h13l2 8-2 9h-2l-8 1-2-4-9-1-3-6z"/>
		<path id="Path 320" class="s5" d="m792 461l4-2h1l-1 2z"/>
		<path id="Path 321" class="s67" d="m111 462l3-2 1 1-4 2z"/>
		<path id="Path 322" class="s12" d="m712 461v-1l9 2h-1z"/>
		<path id="Path 323" class="s55" d="m397 463l2-2h7l3 1v9l-4 2z"/>
		<path id="Path 324" class="s75" d="m435 467v-6h8l4 2 3 9 6 9-10-1-5-3-3-9z"/>
		<path id="Path 325" class="s34" d="m639 467v-6h8l2 6v2h-10z"/>
		<path id="Path 326" class="s13" d="m717 463l-5-2 8 1v1z"/>
		<path id="Path 327" class="s34" d="m784 462l6-1h2 4l3 1v7l-7 6-9-2-3-9v-1l1-1h2z"/>
		<path id="Path 328" class="s50" d="m103 466v-3l8-1v1l-1 1z"/>
		<path id="Path 329" class="s72" d="m138 463l14-1 1 9-4 2 2 16h-5v7l-8 7 3 5-2 7-6-3-2-15-1-6 3-6v-6l-3-2-1-2 6-3z"/>
		<path id="Path 330" class="s71" d="m409 471v-9h4v9z"/>
		<path id="Path 331" class="s36" d="m495 465l8-3 6 3v9l-4 8-6 1-10-6-5-12v-1h2z"/>
		<path id="Path 332" class="s20" d="m720 463v-1h1 4l7 2z"/>
		<path id="Path 333" class="s12" d="m773 463l8-1-1 1z"/>
		<path id="Path 334" class="s71" d="m205 466l8-3 7 4v3l-7 3z"/>
		<path id="Path 335" class="s57" d="m385 466l3-3h9l8 10v12l-18 2-3-3-1-3z"/>
		<path id="Path 336" class="s44" d="m450 472l-3-9h8v7z"/>
		<path id="Path 337" class="s75" d="m455 470v-7h6l-2 7z"/>
		<path id="Path 338" class="s40" d="m459 470l2-7h10v2 8l-8 2z"/>
		<path id="Path 339" class="s15" d="m717 475v-12h3l12 1h3l3 1 18 1h2 3l10-2h2 7l3 9-1 1-4 1-9-1-4 4-5 3-4-2-8 2h-6l-16-4z"/>
		<path id="Path 340" class="s66" d="m735 464l4-1v2h-1z"/>
		<path id="Path 341" class="s33" d="m739 465v-2h8v2z"/>
		<path id="Path 342" class="s1" d="m747 465v-2l9 2z"/>
		<path id="Path 343" class="s1" d="m758 466v-3h9l-6 3z"/>
		<path id="Path 344" class="s76" d="m761 466l6-3 4 1z"/>
		<path id="Path 345" class="s22" d="m773 464v-1h7v1z"/>
		<path id="Path 346" class="s47" d="m863 483v-20l16 4 4 8 1 8 1 7v6l-3 1h-9l-2-8-2-6z"/>
		<path id="Path 347" class="s53" d="m879 467v-4h6l4 6-2 6h-4z"/>
		<path id="Path 348" class="s39" d="m931 464l3-1-7 9-5 1z"/>
		<path id="Path 349" class="s37" d="m103 466l7-2 1 10-2 2-4 3-5 2v4l-5 4h-4-13l-1 4h-9l-2 8h-11l-2-3v-5-2l6-7 12-5 11-5h1l19-8z"/>
		<path id="Path 350" class="s68" d="m894 469v-4l3-1 2 2v3z"/>
		<path id="Path 351" class="s64" d="m97 467l5-1-19 8 3-2 3-2z"/>
		<path id="Path 352" class="s23" d="m471 473v-8h13l5 12 10 6v4l-16-1-3-5-9 2-1-4 3-2z"/>
		<path id="Path 353" class="s23" d="m509 474v-9l8 1 1 4z"/>
		<path id="Path 354" class="s31" d="m533 467v-2h6v5h-1-4z"/>
		<path id="Path 355" class="s75" d="m539 470v-5l6 1v4z"/>
		<path id="Path 356" class="s28" d="m545 466l12 2 1 5-3 1-9-2-1-2z"/>
		<path id="Path 357" class="s41" d="m586 470v-5l17 1 3 6-1 6h-6l-9-1v-5z"/>
		<path id="Path 358" class="s26" d="m756 466l-18-1h1 8 9z"/>
		<path id="Path 359" class="s70" d="m189 471l1-4 15-1 8 7-4 18h-8l-10-4z"/>
		<path id="Path 360" class="s36" d="m518 470l-1-4h2l14 1 1 3-3 3h-10z"/>
		<path id="Path 361" class="s45" d="m431 482v-11l4-4 3 1 3 9v1l-6 4z"/>
		<path id="Path 362" class="s27" d="m627 476l2-9h10v2l-2 11z"/>
		<path id="Path 363" class="s21" d="m649 469v-2l8 2v6h-4z"/>
		<path id="Path 364" class="s41" d="m228 470l5-2v5l-4 2z"/>
		<path id="Path 365" class="s45" d="m233 473v-5h9l-2 5z"/>
		<path id="Path 366" class="s46" d="m823 469l2-1 9 5 1 6 11 4-1 10-4 2-1-6-13-1-4-3v-10z"/>
		<path id="Path 367" class="s49" d="m564 473l8-4 4 1v4h7v3l-6 6-9 1-4-1v-4h3z"/>
		<path id="Path 368" class="s71" d="m637 480l2-11h10l4 6-4 6-10 2z"/>
		<path id="Path 369" class="s57" d="m657 475v-6h6l1 4-1 2z"/>
		<path id="Path 370" class="s75" d="m792 475l7-6h2l-3 7-6 2h-2z"/>
		<path id="Path 371" class="s24" d="m798 476l3-7 13 3 9 3v10l-6 8h-6l-2-3 3-3-2-9h-10z"/>
		<path id="Path 372" class="s28" d="m814 472l2-3h7v6z"/>
		<path id="Path 373" class="s56" d="m883 475h4l2-6h5 5v7l-4 2 1 4v6l-2 8h-9v-6l3-1 1-6h-5z"/>
		<path id="Path 374" class="s14" d="m899 476v-7h4l3 5-2 6 7 1-7 7-2 2-3 3-4 3h-1l2-8 4-1-1-5z"/>
		<path id="Path 375" class="s27" d="m213 473l7-3h8l1 5 2 20-2 8-5 4-13 2-14 2-5 1v5h-2l-3-2 2-12 12-4h8v-8z"/>
		<path id="Path 376" class="s59" d="m450 472l5-2h4l4 5-1 6-1 1h-4l-1-1z"/>
		<path id="Path 377" class="s77" d="m509 474l9-4 3 3v4l-3 1v4h-4l-6 6-9-1v-4l6-1z"/>
		<path id="Path 378" class="s59" d="m531 473l3-3h4l1 5v3l-2 3h-6v-1z"/>
		<path id="Path 379" class="s11" d="m539 475l-1-5h1 6l1 2-1 3z"/>
		<path id="Path 380" class="s28" d="m583 474l3-4 4 2v5h-7z"/>
		<path id="Path 381" class="s55" d="m151 489l-2-16 4-2 12 2 4 16h-10l-6 5z"/>
		<path id="Path 382" class="s71" d="m167 473l16-2h6l2 16 10 4v8l-12 4-2-10h-11l-7-4-4-16z"/>
		<path id="Path 383" class="s16" d="m358 477l15-6 6 9-1 5-5 4-9-2-3 7-2 2-10-1h-3v-6l-15-2 2-6h20l5 2z"/>
		<path id="Path 384" class="s34" d="m405 473l4-2h4l4 5-1 5h-4l-2 4h-5z"/>
		<path id="Path 385" class="s78" d="m521 473h10v7l-10-3z"/>
		<path id="Path 386" class="s23" d="m539 475h6l1-3 9 2-1 5-15-1z"/>
		<path id="Path 387" class="s44" d="m605 478l1-6 9 1 2 4 8-1v6z"/>
		<path id="Path 388" class="s64" d="m71 477l7-4 4 1-11 5z"/>
		<path id="Path 389" class="s71" d="m229 475l4-2h7v4l6 3v3l-2 5-1 5-8 2h-4z"/>
		<path id="Path 390" class="s78" d="m463 475l8-2 2 4-3 2 1 4v4h-4l-5-6z"/>
		<path id="Path 391" class="s77" d="m555 474l3-1h6l3 6h-3v4h-9l-1-4z"/>
		<path id="Path 392" class="s56" d="m663 475l1-2h19l3 4-8 5-13 1z"/>
		<path id="Path 393" class="s21" d="m782 474l1-1 9 2-2 3-5 1z"/>
		<path id="Path 394" class="s74" d="m109 476l2-2 8 2-1 11-3 2h-4l-2-4z"/>
		<path id="Path 395" class="s16" d="m417 476l7-1 5 7v3l-3 2h-4l-4-2-2-4z"/>
		<path id="Path 396" class="s21" d="m765 478l4-4 9 1v5l-5 3h-2-6z"/>
		<path id="Path 397" class="s47" d="m778 475l4-1 3 5-6 1h-1z"/>
		<path id="Path 398" class="s35" d="m911 481l-7-1 2-6 5 1z"/>
		<path id="Path 399" class="s62" d="m119 476l10-1 1 2-2 14h2l1 6h-6l-7-10z"/>
		<path id="Path 400" class="s45" d="m275 479l1-4 4 5h-3z"/>
		<path id="Path 401" class="s31" d="m649 481l4-6h4 6l2 8v4h-8l-8-3z"/>
		<path id="Path 402" class="s70" d="m714 478l3-3 9 2v4h-9z"/>
		<path id="Path 403" class="s27" d="m105 479l4-3v9h-4z"/>
		<path id="Path 404" class="s41" d="m625 482v-6h2l10 4 2 3v6z"/>
		<path id="Path 405" class="s78" d="m792 478l6-2 2 2-9 8z"/>
		<path id="Path 406" class="s8" d="m896 482l-1-4 4-2v6z"/>
		<path id="Path 407" class="s25" d="m59 483l12-6v2l-12 5z"/>
		<path id="Path 408" class="s24" d="m130 491h-2l2-14 3 2v6z"/>
		<path id="Path 409" class="s47" d="m246 480l6-3 11 2v4l-4 1-13-1z"/>
		<path id="Path 410" class="s34" d="m353 481l2-4h3v6z"/>
		<path id="Path 411" class="s56" d="m441 478v-1l5 3-2 3h-3z"/>
		<path id="Path 412" class="s24" d="m518 482v-4l3-1 10 3v1l2 13-6 1 1-6-3-5z"/>
		<path id="Path 413" class="s24" d="m568 484l9-1 6-6h7l9 1 2 19-1 6h-9l-6 2-2-5-7 3-2-3-5 2z"/>
		<path id="Path 414" class="s44" d="m678 482l8-5 18 4 4 8h-5-12l-2 7-6 2-4-3v-6z"/>
		<path id="Path 415" class="s71" d="m726 481v-4l16 4-3 4-10 1z"/>
		<path id="Path 416" class="s79" d="m800 478h10l2 9-3 3-6 6-14-1v-9h2z"/>
		<path id="Path 417" class="s68" d="m435 482l6-4v5l-4 3-2-1z"/>
		<path id="Path 418" class="s49" d="m531 481h6l2-3 15 1 1 4v2h-8l5 16-1 4h-7l-5-4-1-5-5-2z"/>
		<path id="Path 419" class="s23" d="m601 497l-2-19h6l20 4 14 7 1 1-3 3h-10-9v4l-7 2z"/>
		<path id="Path 420" class="s16" d="m704 481l10-3 3 3h9l3 5v1l-7-2-3 5h-9l-2-1z"/>
		<path id="Path 421" class="s16" d="m760 481l5-3v5h-3z"/>
		<path id="Path 422" class="s59" d="m785 479l5-1h2l-1 8h-2l-12-1v-1l2-4z"/>
		<path id="Path 423" class="s2" d="m911 481l6-3-8 9-5 1z"/>
		<path id="Path 424" class="s55" d="m100 485v-4l5-2v6z"/>
		<path id="Path 425" class="s31" d="m263 483v-4h12l2 1v3h-4l-2 4-8-1z"/>
		<path id="Path 426" class="s44" d="m748 481l8-2 4 2 2 2-10 2h-4z"/>
		<path id="Path 427" class="s30" d="m277 483v-3h3l14 1h1v13l-3 2-9 1-5-2z"/>
		<path id="Path 428" class="s36" d="m378 485l1-5 4 1 1 3z"/>
		<path id="Path 429" class="s16" d="m444 483l2-3 10 1 1 1v5h5v6l-7 12h-4l-8-14z"/>
		<path id="Path 430" class="s44" d="m773 483l5-3h1l-2 4z"/>
		<path id="Path 431" class="s35" d="m295 494v-13l7 4 12-1 4 3v5l-5 2-2 2-12 1z"/>
		<path id="Path 432" class="s36" d="m410 485l2-4h4l2 4-3 2-5 1z"/>
		<path id="Path 433" class="s36" d="m461 482l1-1 5 6h4v2l-1 2-7 2h-1v-6z"/>
		<path id="Path 434" class="s59" d="m471 483l9-2 3 5v1l-12 2v-2z"/>
		<path id="Path 435" class="s44" d="m639 483l10-2v3l-6 1-1 5h-2l-1-1z"/>
		<path id="Path 436" class="s75" d="m739 485l3-4h6v4l-9 2z"/>
		<path id="Path 437" class="s21" d="m429 485v-3h2 4v3z"/>
		<path id="Path 438" class="s45" d="m462 487h-5v-5h4z"/>
		<path id="Path 439" class="s80" d="m508 488l6-6h4l7 2 3 5-1 6v6h-9l-4-7-6-1z"/>
		<path id="Path 440" class="s51" d="m665 483l13-1 1 7-9 2v-3l-5-1z"/>
		<path id="Path 441" class="s48" d="m896 488v-6h3l1 5z"/>
		<path id="Path 442" class="s6" d="m53 490l1-5 5-2v1l-6 7z"/>
		<path id="Path 443" class="s36" d="m244 488l2-5 13 1 2 4-5 3-8-1z"/>
		<path id="Path 444" class="s75" d="m259 484l4-1v3l-2 2z"/>
		<path id="Path 445" class="s48" d="m263 486l8 1 2-4h4l1 12 5 2-4 6h-9l-1 3-12-3-2-7 1-5 5-3z"/>
		<path id="Path 446" class="s31" d="m437 486l4-3h3l-1 8-6-2z"/>
		<path id="Path 447" class="s59" d="m555 485v-2h9l4 1 1 18-5 2-5-5-4-5z"/>
		<path id="Path 448" class="s24" d="m752 485l10-2h3 6v4l-15 2z"/>
		<path id="Path 449" class="s81" d="m771 487v-4h2l4 1v1l-2 3z"/>
		<path id="Path 450" class="s49" d="m845 493l1-10 6 1-1 9z"/>
		<path id="Path 451" class="s23" d="m862 484l1-1h6l2 6h-8z"/>
		<path id="Path 452" class="s14" d="m885 490l-1-7h5l-1 6z"/>
		<path id="Path 453" class="s68" d="m378 485l6-1 3 3 2 4 5 18-3 7-6-2-1-3h-5l-2-5-2-9-2-8z"/>
		<path id="Path 454" class="s24" d="m642 490l1-5 6-1 8 3v4z"/>
		<path id="Path 455" class="s59" d="m851 493l1-9h10l1 5-1 3 4 4-4 5-10-1z"/>
		<path id="Path 456" class="s42" d="m95 489l5-4h5 4l2 4h4v11h-2l-14-2z"/>
		<path id="Path 457" class="s8" d="m318 487l5-2 4 4-8 4-1-1z"/>
		<path id="Path 458" class="s14" d="m387 487l18-2h5v3l-1 1h-8l-12 2z"/>
		<path id="Path 459" class="s68" d="m415 487l3-2 4 2-5 4h-2z"/>
		<path id="Path 460" class="s75" d="m426 487l3-2h6l2 1v3l-2 1h-3-6z"/>
		<path id="Path 461" class="s82" d="m483 486l16 1 9 1v5l6 1 4 7v4l-9 1-2 3h-6l-2-5h-7l1 8v1l-4-1-6 4h-4l-2-10-1-4h-4l1-3 14-6-4-6z"/>
		<path id="Path 462" class="s24" d="m552 501l-5-16h8v9l4 5z"/>
		<path id="Path 463" class="s23" d="m710 490h9l3-5 7 2v5 6h-9l-8 1z"/>
		<path id="Path 464" class="s49" d="m729 486l10-1v2l-1 5h-9v-5z"/>
		<path id="Path 465" class="s77" d="m739 487l9-2h4l4 4 3 6v4h-20l-1-7z"/>
		<path id="Path 466" class="s83" d="m775 488l2-3 12 1v9 1l-14-1z"/>
		<path id="Path 467" class="s49" d="m817 493l6-8 4 3 13 1 1 6v6h-6l-8 1-10-3z"/>
		<path id="Path 468" class="s43" d="m115 489l3-2 7 10h6l2 15 6 3v5l-2 3-8 1-2-10-7-2-4-5-1-7z"/>
		<path id="Path 469" class="s22" d="m327 489l4-2 15 2v6h3l1 8h-6l-1 3h-12l-1-6h-8l-1 6-4 1-6-1v-10l2-2 6-1z"/>
		<path id="Path 470" class="s18" d="m361 494l3-7 9 2 2 8-10 3v-4z"/>
		<path id="Path 471" class="s17" d="m410 488l5-1v4l-6 1v-3z"/>
		<path id="Path 472" class="s36" d="m417 491l5-4h4v3l-1 3-7 2z"/>
		<path id="Path 473" class="s84" d="m471 489l12-2 4 6-14 6v-1l-2-3-1-4z"/>
		<path id="Path 474" class="s23" d="m657 491v-4h8l5 1v3 3l-5-1z"/>
		<path id="Path 475" class="s78" d="m756 489l15-2 4 1v7h-16z"/>
		<path id="Path 476" class="s28" d="m243 493l1-5 4 2-2 4z"/>
		<path id="Path 477" class="s56" d="m389 491l12-2v11l5 7v5l7 8-2 5h-9l-9-2-2-7 3-7z"/>
		<path id="Path 478" class="s54" d="m401 489h8v3l-3 2 2 9-2 4-5-7z"/>
		<path id="Path 479" class="s73" d="m77 493l1-4h13v10h-12z"/>
		<path id="Path 480" class="s62" d="m91 499v-10h4l4 9 14 2v7l-4 1-4-4-11-1z"/>
		<path id="Path 481" class="s16" d="m139 515l2-7-3-5 8-7v-7h5l2 5v9l4 2v6l-2 10h-8l-8-1z"/>
		<path id="Path 482" class="s41" d="m153 494l6-5h10l7 4h11l2 10-2 12-3 1-6 2v4h-3l-8-5-2-6h-8v-6l-4-2z"/>
		<path id="Path 483" class="s21" d="m248 490l8 1-1 5-9-1v-1z"/>
		<path id="Path 484" class="s68" d="m435 490l2-1 6 2 8 14-5 2h-5l-4-6-1-4z"/>
		<path id="Path 485" class="s28" d="m670 491l9-2v6l-4 2-5-3z"/>
		<path id="Path 486" class="s24" d="m689 496l2-7h12l-1 10-12-2z"/>
		<path id="Path 487" class="s81" d="m702 499l1-10h5l2 1 2 9-5 2z"/>
		<path id="Path 488" class="s40" d="m862 501l4-5-4-4 1-3h8l2 8h9l-3 8-10 2h-3z"/>
		<path id="Path 489" class="s39" d="m51 491v-1h2v1z"/>
		<path id="Path 490" class="s68" d="m418 495l7-2 1-3h6l-5 7-8 2z"/>
		<path id="Path 491" class="s31" d="m419 499l8-2 5-7h3l1 7-9 5 1 3v4l-9-6z"/>
		<path id="Path 492" class="s84" d="m637 493l3-3h2l15 1 8 2v4h-2l-26-2z"/>
		<path id="Path 493" class="s81" d="m789 495l14 1 6-6 2 3h6v6l10 3v4l-6 3-2 9-10-2-7-1 3-12-16-4v-3z"/>
		<path id="Path 494" class="s19" d="m51 493v-2h2v2z"/>
		<path id="Path 495" class="s72" d="m201 499v-8h8v8z"/>
		<path id="Path 496" class="s30" d="m409 492l6-1h2l1 4 1 4v4h-11l-2-9z"/>
		<path id="Path 497" class="s85" d="m463 493l7-2 1 4z"/>
		<path id="Path 498" class="s13" d="m313 494l5-2 1 1z"/>
		<path id="Path 499" class="s86" d="m618 497v-4h9v4z"/>
		<path id="Path 500" class="s87" d="m627 493h10v2 4l-10-2z"/>
		<path id="Path 501" class="s59" d="m729 498v-6h9l1 7-6 1z"/>
		<path id="Path 502" class="s25" d="m51 502v-9h2v5 4z"/>
		<path id="Path 503" class="s72" d="m66 501l2-8h9l2 6h12l3 4 11 1 4 4v5l-3 4-5-1-2 3-14-5-8-1-7-2z"/>
		<path id="Path 504" class="s55" d="m235 495l8-2 3 1v1l-5 4 4 5 2 5v5l-2-1-5-2-1 4-3-1-1-2-2-9z"/>
		<path id="Path 505" class="s59" d="m455 505l7-12h1l8 2 2 3-6 2v7l-6 4-6-1z"/>
		<path id="Path 506" class="s87" d="m665 497v-4l5 1 5 3-2 4h-6z"/>
		<path id="Path 507" class="s23" d="m841 495l4-2h6l1 7 10 1 4 6-5 5 2 4 1 7-5 2-7-4-7 4v-10-8l-4-6z"/>
		<path id="Path 508" class="s1" d="m895 496l4-3-3 14 3 2h-2l-2-1z"/>
		<path id="Path 509" class="s8" d="m292 496l3-2 4 3-1 3h-4z"/>
		<path id="Path 510" class="s13" d="m349 495l10 1-1 5-1 4-7-2z"/>
		<path id="Path 511" class="s68" d="m359 496l2-2 4 2v4l-1 1h-6z"/>
		<path id="Path 512" class="s87" d="m527 495l6-1 5 2 1 5-5 4h-7v-4z"/>
		<path id="Path 513" class="s16" d="m229 503l2-8h4l-2 8z"/>
		<path id="Path 514" class="s43" d="m245 504l-4-5 5-4 9 1 2 7v3l-7-1z"/>
		<path id="Path 515" class="s82" d="m637 499v-4l26 2 3 4 2 11-3 3-24 2v-13z"/>
		<path id="Path 516" class="s82" d="m675 497l4-2 4 3 6-2 1 1-3 14h-12l-2-10z"/>
		<path id="Path 517" class="s23" d="m759 499v-4h16l14 1v3l-9 2z"/>
		<path id="Path 518" class="s4" d="m283 497l9-1 2 4-5 4-6 3h-4v-4z"/>
		<path id="Path 519" class="s14" d="m299 497l12-1v10l-13 3-4 2h-3-2v-7l5-4h4z"/>
		<path id="Path 520" class="s31" d="m882 497l3-1h9 1v12 3h-14l-2-6z"/>
		<path id="Path 521" class="s30" d="m365 500l10-3 2 9-5 1-8-6z"/>
		<path id="Path 522" class="s34" d="m428 505l-1-3 9-5 1 4z"/>
		<path id="Path 523" class="s49" d="m591 503h9l1-6 10 2v6l-5 1v7h-10l-6-2z"/>
		<path id="Path 524" class="s79" d="m611 499l7-2h9l10 2 4 5v13l24-2 3-3 7-1h12l3-14 12 2 5 2 5-2 8-1v4l9 7v12l-25 2h-40l-14 3-18 1-11 2-8 1-6 1-20 4-9 1-5 2h-4l-6 2v5l-5 4-4-1-1-1-3-3-26 2-10-1-5 1-23 2-51 1h-25l-16 4h-2l-13 5-7 2-7 1v-6l10-3 9-1 2-5-3-3h-10l-18-1-38-1-9-1-7 1-5 1-3 1v8l-5-1-7-2-32-3-2-8 3-6-7-2v-5l-4-1 2-10h4l2 1 6 2 2 7-1 4h7l2-4 3-2h19l4-1 17 3h9l8-3 5 11 8-2h17 11l9 6 22 2 20-4 8 6 47-3 2-5 9-1 12-3 4-2h8l3 4h11l4-7-6-5 4-4v-6l6-2h7l5-4 5 4h7l5 5v7l-1 8 4 4h8l10-4v-8l1-4h5l7-2 6 2 3 10h10l1-7-4-3v-7l5-1z"/>
		<path id="Path 525" class="s79" d="m666 501l-3-4h2l2 4z"/>
		<path id="Path 526" class="s82" d="m720 498h9l4 2v9h-4l-9-7z"/>
		<path id="Path 527" class="s21" d="m53 502v-4l2 3-2 2z"/>
		<path id="Path 528" class="s77" d="m467 507v-7l6-2v1l-1 3h4l1 4z"/>
		<path id="Path 529" class="s46" d="m552 501l7-2 5 5 5-2 5-2 2 3v7l-2 5-11-2-7-3-5-5z"/>
		<path id="Path 530" class="s79" d="m733 500l6-1h20l21 2 9-2 16 4-3 12-2 6-5 5 2 7-4-1-5-2-7-2-18-5-13-1v-5l-6-8h-11z"/>
		<path id="Path 531" class="s71" d="m113 507v-7h2l1 7z"/>
		<path id="Path 532" class="s11" d="m321 506l1-6h8l1 6-6 1z"/>
		<path id="Path 533" class="s28" d="m576 503l7-3 2 5 6-2-1 8-7 2-7-3z"/>
		<path id="Path 534" class="s78" d="m827 502l8-1v6h-4l-4-1z"/>
		<path id="Path 535" class="s68" d="m53 503l2-2h11l4 10v4l4 2v4l-3 4h-5l-5-2-3-4v-3l2-4-7-4z"/>
		<path id="Path 536" class="s22" d="m357 505l1-4h6l8 6 5-1 2 5h5l1 3-1 4-4 1-7-2-4-10-9 2h-3z"/>
		<path id="Path 537" class="s16" d="m428 505l9-4 4 6 1 8-2 3-9 1-2-2 2-6-3-2z"/>
		<path id="Path 538" class="s78" d="m518 505v-4h9v4l-6 2z"/>
		<path id="Path 539" class="s86" d="m668 512l-2-11h1 6l2 10z"/>
		<path id="Path 540" class="s36" d="m835 507v-6h6l4 6v8h-4l-2-6z"/>
		<path id="Path 541" class="s0" d="m51 508v-6h2v1 5 1z"/>
		<path id="Path 542" class="s20" d="m224 507l5-4h4l2 9-6 1-7-2z"/>
		<path id="Path 543" class="s15" d="m257 506v-3l12 3 2 7-5 4h-7z"/>
		<path id="Path 544" class="s29" d="m269 506l1-3h9v4l-8 6z"/>
		<path id="Path 545" class="s75" d="m343 506l1-3h6l7 2v4l-8 4-3-3z"/>
		<path id="Path 546" class="s21" d="m406 507l2-4h11l9 6 3 2-2 6-3 7-3-1-10-3-7-8z"/>
		<path id="Path 547" class="s75" d="m247 509l-2-5 5 1z"/>
		<path id="Path 548" class="s10" d="m283 507l6-3v7h-4z"/>
		<path id="Path 549" class="s24" d="m493 512l-1-8h7l2 5v1z"/>
		<path id="Path 550" class="s38" d="m247 509l3-4 7 1 2 11-6-1-6-2z"/>
		<path id="Path 551" class="s22" d="m446 507l5-2h4v5l-6 1h-2z"/>
		<path id="Path 552" class="s80" d="m507 509l2-3 9-1 3 2v6l-4 4-7 2-3-4z"/>
		<path id="Path 553" class="s36" d="m869 507l10-2 2 6-7 6h-2z"/>
		<path id="Path 554" class="s23" d="m298 509l13-3 6 1-1 8-2 2-7 2z"/>
		<path id="Path 555" class="s77" d="m317 507l4-1 4 1 2 10-4 2-2-4h-5z"/>
		<path id="Path 556" class="s36" d="m325 507l6-1h12l3 4-1 3-10 4h-8z"/>
		<path id="Path 557" class="s79" d="m467 507l10-1 2 10-5 2-8 3-1 6h-6l-1-6 3-3v-7z"/>
		<path id="Path 558" class="s23" d="m819 518l2-9 6-3 4 1 2 10h-7l-1 5h-3z"/>
		<path id="Path 559" class="s41" d="m109 508l4-1h3l4 5-1 2-10-1z"/>
		<path id="Path 560" class="s73" d="m211 509l13-2-2 4-9 5z"/>
		<path id="Path 561" class="s88" d="m271 513l8-6h4l2 4-1 6 1 4h-19v-4z"/>
		<path id="Path 562" class="s89" d="m360 509l9-2 4 10h-6l2 5-4 2-1 5h-11v-8l6-2z"/>
		<path id="Path 563" class="s40" d="m442 515l-1-8h5l1 4-1 4z"/>
		<path id="Path 564" class="s81" d="m833 517l-2-10h4l4 2 2 6-2 6z"/>
		<path id="Path 565" class="s11" d="m863 516l-2-4 5-5h3l3 10h-4z"/>
		<path id="Path 566" class="s32" d="m51 510v-2l2 1v1z"/>
		<path id="Path 567" class="s67" d="m53 509v-1l7 4-2 4-5-6z"/>
		<path id="Path 568" class="s75" d="m895 511v-3l2 1 5 6v2l-3-1h-2z"/>
		<path id="Path 569" class="s71" d="m197 511l14-2 2 7-2 4-7-1z"/>
		<path id="Path 570" class="s81" d="m294 511l4-2 9 10-1 4-17-3v-3l2-2z"/>
		<path id="Path 571" class="s11" d="m349 513l8-4h3l-1 10-6 2-6-6z"/>
		<path id="Path 572" class="s49" d="m501 510v-1h6v6h-4z"/>
		<path id="Path 573" class="s86" d="m729 521v-12h4 11l6 8v5l-7-2h-4z"/>
		<path id="Path 574" class="s52" d="m902 515l-5-6h2z"/>
		<path id="Path 575" class="s39" d="m365 561l7-1-15 2z"/>
		<path id="Path 576" class="s90" d="m345 513l1-3 3 3-2 2z"/>
		<path id="Path 577" class="s84" d="m449 511l6-1 6 1v7l-3 3-8-5z"/>
		<path id="Path 578" class="s46" d="m493 512l8-2 2 5 2 10h-8l-4-2v-10z"/>
		<path id="Path 579" class="s86" d="m556 517v-7l7 3v3z"/>
		<path id="Path 580" class="s80" d="m563 513l11 2 2-5 7 3h-5l-1 4-14-1z"/>
		<path id="Path 581" class="s31" d="m74 517l-4-2v-4l7 2v4z"/>
		<path id="Path 582" class="s44" d="m155 521l2-10h8l2 6 8 5-2 8-5 1v4l-3-1-1-6h-7z"/>
		<path id="Path 583" class="s49" d="m192 517v-5l5-1 7 8-5 1 1 6-2 3h-3l-2-4z"/>
		<path id="Path 584" class="s75" d="m213 516l9-5 7 2v3l-9 7h-2l-7-3z"/>
		<path id="Path 585" class="s84" d="m229 513l6-1 1 2v4l-3 1-4-3z"/>
		<path id="Path 586" class="s59" d="m236 514l3 1 1-4 5 2h-4l-2 10-3 2-4-2 1-4 3-1z"/>
		<path id="Path 587" class="s91" d="m284 517l1-6h4 2v4l-2 2z"/>
		<path id="Path 588" class="s24" d="m291 515v-4h3z"/>
		<path id="Path 589" class="s82" d="m442 515h4l1-4h2l1 5 8 5 1 6h6l1-6 8-3 2 3-4 4v6l-2 5-47 3-8-6-20 4-22-2-9-6 1-5 4-2 11 1h7 6l9 2 12 4 2-5 6-1 9 1-1 7 3 2 7-15z"/>
		<path id="Path 590" class="s90" d="m423 523l3 1 3-7 2 2v5l-9-1z"/>
		<path id="Path 591" class="s47" d="m874 517l7-6h14l2 5-2 5-16 1z"/>
		<path id="Path 592" class="s26" d="m119 514l1-2 7 2 2 10 8-1v2l-8 5-8-1z"/>
		<path id="Path 593" class="s51" d="m483 516l6-4 4 1v10 2l-2 2-10-2-1-1z"/>
		<path id="Path 594" class="s44" d="m77 517v-4l8 1v5h-6z"/>
		<path id="Path 595" class="s70" d="m106 517l3-4 10 1 2 15h-6l-4-4z"/>
		<path id="Path 596" class="s85" d="m335 517l10-4 2 2 6 6v8h-17z"/>
		<path id="Path 597" class="s82" d="m606 513l4 3-1 7h-10l-3-10z"/>
		<path id="Path 598" class="s47" d="m85 519v-5l14 5 6 7-2 5h-4l-15-3 5-5z"/>
		<path id="Path 599" class="s40" d="m384 518l1-4 6 2 2 7h-6z"/>
		<path id="Path 600" class="s43" d="m184 516l3-1 3 2-3 2z"/>
		<path id="Path 601" class="s84" d="m314 517l2-2h5l2 4v1l-8 3z"/>
		<path id="Path 602" class="s82" d="m505 525l-2-10h4l3 4 7-2 6 5-4 7h-11z"/>
		<path id="Path 603" class="s24" d="m800 521l2-6 7 1-5 6z"/>
		<path id="Path 604" class="s24" d="m839 521l2-6h4v10 2h-7z"/>
		<path id="Path 605" class="s0" d="m902 517v-2l3 2v3z"/>
		<path id="Path 606" class="s56" d="m99 519l2-3 5 1 5 8-6 1z"/>
		<path id="Path 607" class="s34" d="m178 522v-4l6-2 3 3v7l-6 4h-3z"/>
		<path id="Path 608" class="s85" d="m220 523l9-7 4 3-1 4-5 5-4 1z"/>
		<path id="Path 609" class="s13" d="m255 523l-2-7 6 1h7v4l-3 2z"/>
		<path id="Path 610" class="s49" d="m474 518l5-2h4l-3 8-4-3z"/>
		<path id="Path 611" class="s82" d="m556 517l7-1 14 1v8l-10 4h-8l-4-4z"/>
		<path id="Path 612" class="s44" d="m804 522l5-6 10 2 3 4-5 9h-12z"/>
		<path id="Path 613" class="s45" d="m864 523l-1-7 5 1-1 6z"/>
		<path id="Path 614" class="s57" d="m895 521l2-5h2v5z"/>
		<path id="Path 615" class="s21" d="m899 521v-5l3 1 3 3 2 3 5 6 3 4-3 16h-8v-6l-5-5z"/>
		<path id="Path 616" class="s34" d="m74 521v-4h3l2 2z"/>
		<path id="Path 617" class="s48" d="m187 519l3-2h2l1 8-3 1h-3z"/>
		<path id="Path 618" class="s85" d="m285 521l-1-4h5v3z"/>
		<path id="Path 619" class="s82" d="m307 519l7-2 1 6h-9z"/>
		<path id="Path 620" class="s87" d="m323 519l4-2h8l1 12-8 2-5-11z"/>
		<path id="Path 621" class="s13" d="m369 522l-2-5h6l7 2v4z"/>
		<path id="Path 622" class="s28" d="m825 522l1-5h7l6 4-1 6h7l-1 8h-7l-6-10z"/>
		<path id="Path 623" class="s31" d="m867 523l1-6h4 2l5 5v8h-6l-1-3h-5z"/>
		<path id="Path 624" class="s19" d="m905 520v-3l4 6h-2z"/>
		<path id="Path 625" class="s85" d="m380 519l4-1 3 5h-7z"/>
		<path id="Path 626" class="s22" d="m431 519l9-1-7 15-3-2 1-7z"/>
		<path id="Path 627" class="s21" d="m74 521l5-2h6l4 4-5 5h-1-3l-9-3z"/>
		<path id="Path 628" class="s81" d="m200 526l-1-6 5-1 7 1 7 3v9h4l2 7h5l1 1-1 4h-21l-5-1h-17l-1-2 10-4h6l2-5 5-2-2-6z"/>
		<path id="Path 629" class="s21" d="m137 523l2-3 8 1v5h-4l-6-1z"/>
		<path id="Path 630" class="s14" d="m402 525h9l2-5 10 3h-1l-6 1-2 5z"/>
		<path id="Path 631" class="s56" d="m147 526v-5h8l2 7-6 4h-2z"/>
		<path id="Path 632" class="s13" d="m472 531v-6l4-4 4 3 1 1v5z"/>
		<path id="Path 633" class="s59" d="m797 533l-2-7 5-5 4 1 1 9v4h-2z"/>
		<path id="Path 634" class="s45" d="m845 525l7-4 7 4 2 7-6 7h-6l-5-4 1-8z"/>
		<path id="Path 635" class="s56" d="m879 522l16-1h4v17l5 5v6l-1 8h-6l-5-4v-11l-6-2-2 4-5-6v-8z"/>
		<path id="Path 636" class="s53" d="m173 530l2-8h3v8h3v3z"/>
		<path id="Path 637" class="s71" d="m817 531l5-9h3l6 3 6 10h7l5 4v9l-12-1v-8l-3-2h-12z"/>
		<path id="Path 638" class="s83" d="m222 532h-4v-9h2l3 6z"/>
		<path id="Path 639" class="s40" d="m227 528l5-5 4 2v3l-7 8z"/>
		<path id="Path 640" class="s83" d="m236 525l3-2 4 1v5h-1l-6-1z"/>
		<path id="Path 641" class="s77" d="m263 523l-2 4h-7l1-4z"/>
		<path id="Path 642" class="s90" d="m493 525v-2l4 2-4 2z"/>
		<path id="Path 643" class="s49" d="m859 525l5-2h3v4 1l-6 4z"/>
		<path id="Path 644" class="s63" d="m912 529l-5-6h2l3 4z"/>
		<path id="Path 645" class="s40" d="m200 526l6-2 2 6-5 2-2 5h-6v-2h4l-1-6z"/>
		<path id="Path 646" class="s22" d="m481 525l10 2 2-2v2l-12 3z"/>
		<path id="Path 647" class="s1" d="m80 528l-14-3h5z"/>
		<path id="Path 648" class="s49" d="m105 526l6-1 4 4v5l-6-1h-4l-2-2z"/>
		<path id="Path 649" class="s36" d="m121 529l8 1 8-5 6 1 2 5 4 1h2v5l-2 1h-1-6l-22-3-5-1v-5z"/>
		<path id="Path 650" class="s36" d="m190 526l3-1 2 4v6 2l-10 4h-4l-12-2-1-4v-4l5-1 8 3 7-1z"/>
		<path id="Path 651" class="s59" d="m632 527l18-1 1 4v6l5 4-1 5-1 6h-5l-16-16z"/>
		<path id="Path 652" class="s54" d="m149 532l-4-1-2-5h4z"/>
		<path id="Path 653" class="s30" d="m181 530l6-4h3l-2 6-7 1z"/>
		<path id="Path 654" class="s81" d="m621 529l11-2 1 8 16 16v4l6 5-6 9-18-2h-5v-3l3-11-4-7h3v-3l-7-8z"/>
		<path id="Path 655" class="s34" d="m867 528v-1h5l1 3-2 6h-4z"/>
		<path id="Path 656" class="s0" d="m912 529v-2l7 8-4-2z"/>
		<path id="Path 657" class="s61" d="m99 532l-16-4h1l15 3z"/>
		<path id="Path 658" class="s13" d="m151 532l6-4h7l1 6 3 1 1 4h-4-12l-2-2z"/>
		<path id="Path 659" class="s23" d="m223 529l4-1 2 8v3h-5l-2-7z"/>
		<path id="Path 660" class="s49" d="m229 536l7-8 6 1v8l-12 3-1-1z"/>
		<path id="Path 661" class="s55" d="m861 532l6-4v8l-2 12-3 7-7-2-6-5v-9h6z"/>
		<path id="Path 662" class="s17" d="m195 535v-6h3l1 6z"/>
		<path id="Path 663" class="s77" d="m242 537v-8h1l7 2-3 6h-4z"/>
		<path id="Path 664" class="s77" d="m613 530l8-1v6l-8-1z"/>
		<path id="Path 665" class="s81" d="m607 531l6-1v4l-6 1z"/>
		<path id="Path 666" class="s90" d="m656 540l-5-4v-6l6 2 3 4-2 4z"/>
		<path id="Path 667" class="s53" d="m871 536l2-6h6v8h-6z"/>
		<path id="Path 668" class="s0" d="m99 532v-1h4l2 2z"/>
		<path id="Path 669" class="s77" d="m587 535l20-4v4l-1 4-7-1-1 3-9-4z"/>
		<path id="Path 670" class="s22" d="m805 535v-4h12l5 6-1 5-10-4h-2z"/>
		<path id="Path 671" class="s19" d="m660 536l-3-4 5 1 7 9v5l-7 6 1-6 2-8z"/>
		<path id="Path 672" class="s33" d="m119 535l-10-2 6 1 5 1z"/>
		<path id="Path 673" class="s26" d="m912 549l3-16 4 2v8l4 3-1 8h6l1 3-8 3-4 6h-6l-2-2 4-2z"/>
		<path id="Path 674" class="s86" d="m607 535l6-1 8 1 7 8v3h-3l4 7-3 11-4-1-5-6-16 4-1 5 5 7v3l-7-3-6-2-2-4 3-10-2-12-2-8 9 4 1-3 7 1z"/>
		<path id="Path 675" class="s1" d="m142 538l-23-3h1z"/>
		<path id="Path 676" class="s81" d="m578 536l9-1 2 2 2 8-6 2-7-4z"/>
		<path id="Path 677" class="s1" d="m809 538l-6-3h2z"/>
		<path id="Path 678" class="s11" d="m923 546l-4-3v-8l5 7 1 3v1z"/>
		<path id="Path 679" class="s59" d="m573 538l5-2v7h-3z"/>
		<path id="Path 680" class="s80" d="m658 540l2-4 5 3-2 8-4-2z"/>
		<path id="Path 681" class="s71" d="m865 548l2-12h4l2 2-2 11z"/>
		<path id="Path 682" class="s84" d="m149 538l2-1 2 2h-2z"/>
		<path id="Path 683" class="s83" d="m230 540l12-3h1v8h-12l-2-1z"/>
		<path id="Path 684" class="s86" d="m243 545v-8h4l2 8z"/>
		<path id="Path 685" class="s8" d="m821 542l1-5h12l3 2v8l12 1 6 5-6 2h-1l-5-2-10-5h-1l-9-5h-2z"/>
		<path id="Path 686" class="s39" d="m151 540l-3-2h1l2 1z"/>
		<path id="Path 687" class="s78" d="m563 545v-5l6-2v7z"/>
		<path id="Path 688" class="s77" d="m569 545v-7h4l2 5z"/>
		<path id="Path 689" class="s1" d="m821 543l-10-5 10 4z"/>
		<path id="Path 690" class="s48" d="m871 549l2-11h6l5 6v8l8 1 5 4v6h-5l-13-5-8-4z"/>
		<path id="Path 691" class="s2" d="m151 540v-1h2 12v2z"/>
		<path id="Path 692" class="s92" d="m165 541v-2h4l12 2h-11z"/>
		<path id="Path 693" class="s8" d="m301 541l7-1 1 7-4 2-4-4z"/>
		<path id="Path 694" class="s88" d="m309 547l-1-7 9 1-2 6z"/>
		<path id="Path 695" class="s81" d="m655 545l1-5h2l1 5z"/>
		<path id="Path 696" class="s43" d="m884 544l2-4 6 2v11l-8-1z"/>
		<path id="Path 697" class="s39" d="m170 542l-5-1h5z"/>
		<path id="Path 698" class="s2" d="m170 542v-1h11 4l1 2z"/>
		<path id="Path 699" class="s9" d="m296 542l5-1v4z"/>
		<path id="Path 700" class="s93" d="m315 547l2-6 38 1v8l-5 7h-4-12l-4-4h-7-3z"/>
		<path id="Path 701" class="s85" d="m293 551v-8l3-1 5 3 4 4 4 4v3l-6-1-9-2z"/>
		<path id="Path 702" class="s94" d="m350 557l5-7v-8l18 1 2 9-10 3z"/>
		<path id="Path 703" class="s2" d="m925 545l-1-3 2 3z"/>
		<path id="Path 704" class="s52" d="m208 545l-5-2 5 1z"/>
		<path id="Path 705" class="s91" d="m375 552l-2-9h10l3 3-2 5z"/>
		<path id="Path 706" class="s86" d="m569 545l6-2h3l7 4 2 10-5 6h-1l-19-10-4-3v-1l5-4z"/>
		<path id="Path 707" class="s1" d="m832 548l-6-1-3-4z"/>
		<path id="Path 708" class="s6" d="m208 545v-1h21l2 1z"/>
		<path id="Path 709" class="s32" d="m524 546l26-2 3 3-4-2-25 2z"/>
		<path id="Path 710" class="s32" d="m281 548l-50-3h12 6z"/>
		<path id="Path 711" class="s1" d="m509 546l5-1v2h-5z"/>
		<path id="Path 712" class="s33" d="m514 547v-2l10 1v1z"/>
		<path id="Path 713" class="s83" d="m585 547l6-2 2 12h-6z"/>
		<path id="Path 714" class="s83" d="m649 551h5l1-6h4l4 2-1 6-7 7-6-5z"/>
		<path id="Path 715" class="s52" d="m925 546v-1h1l3 7z"/>
		<path id="Path 716" class="s32" d="m486 548l23-2v1z"/>
		<path id="Path 717" class="s36" d="m929 557l-1-3h-6l1-8h2l4 6 2 2 1 4z"/>
		<path id="Path 718" class="s91" d="m305 549l4-2h6l5 6h-11z"/>
		<path id="Path 719" class="s2" d="m435 549l51-1-51 2z"/>
		<path id="Path 720" class="s39" d="m558 550l-4-2 4 1z"/>
		<path id="Path 721" class="s1" d="m843 553l-7-1-3-4z"/>
		<path id="Path 722" class="s43" d="m862 555l3-7 6 1v5l-5 3z"/>
		<path id="Path 723" class="s39" d="m394 553l16-4h25v1z"/>
		<path id="Path 724" class="s34" d="m903 557l1-8h8l1 13-4 2h-2z"/>
		<path id="Path 725" class="s39" d="m294 553l-6-3 5 1z"/>
		<path id="Path 726" class="s87" d="m309 556v-3h11 3l4 7-14-2z"/>
		<path id="Path 727" class="s91" d="m327 560l-4-7h7l4 4h12l-14 4-4-1z"/>
		<path id="Path 728" class="s32" d="m379 558l13-5-3 4z"/>
		<path id="Path 729" class="s52" d="m655 560l7-7-6 12-9 8 2-4z"/>
		<path id="Path 730" class="s13" d="m849 555l6-2 7 2 4 2 7 6-1 1h-3l-6-3-9-3z"/>
		<path id="Path 731" class="s30" d="m866 557l5-3 8 4-2 5h-4z"/>
		<path id="Path 732" class="s32" d="m313 558l-10-3 6 1z"/>
		<path id="Path 733" class="s95" d="m350 557l15-2v6l-8 1h-4l-21-1 14-4z"/>
		<path id="Path 734" class="s2" d="m854 558l-6-3h1z"/>
		<path id="Path 735" class="s87" d="m582 563l5-6h6l-3 10-7-2z"/>
		<path id="Path 736" class="s89" d="m605 573l-5-7 1-5 16-4 5 6 1 5-2 11-7 2-5-2v-5z"/>
		<path id="Path 737" class="s30" d="m897 563v-6h6l4 7h-8z"/>
		<path id="Path 738" class="s31" d="m917 566l4-6 8-3 3 1-9 11z"/>
		<path id="Path 739" class="s2" d="m863 562l-9-4 9 3z"/>
		<path id="Path 740" class="s10" d="m877 563l2-5 13 5v2h-3l-6-1z"/>
		<path id="Path 741" class="s84" d="m923 569l9-11 2 9-3 1-4 2-4 2z"/>
		<path id="Path 742" class="s39" d="m353 562l-25-2 4 1z"/>
		<path id="Path 743" class="s52" d="m863 562v-1l6 3v1z"/>
		<path id="Path 744" class="s1" d="m583 565l-2-2h1z"/>
		<path id="Path 745" class="s90" d="m623 568l-1-5 4 1v3z"/>
		<path id="Path 746" class="s90" d="m872 564l1-1h4l6 1v5l-4-1h-1z"/>
		<path id="Path 747" class="s75" d="m892 565v-2h5l2 1v1z"/>
		<path id="Path 748" class="s32" d="m869 565v-1h3l6 4z"/>
		<path id="Path 749" class="s81" d="m883 569v-5l6 1v4z"/>
		<path id="Path 750" class="s24" d="m899 565v-1h8 2l2 2v2l-10-1z"/>
		<path id="Path 751" class="s1" d="m598 573l-7-1-8-7 7 2 2 4z"/>
		<path id="Path 752" class="s83" d="m889 569v-4h3 7l2 2v4h-8z"/>
		<path id="Path 753" class="s78" d="m911 568v-2h6l6 3v3l-10 1z"/>
		<path id="Path 754" class="s84" d="m623 568l3-1h5v11l-6 3-4-2z"/>
		<path id="Path 755" class="s80" d="m631 578v-11l18 2-2 4-3 5-2 3h-9z"/>
		<path id="Path 756" class="s95" d="m901 571v-4l10 1 2 5-10-1z"/>
		<path id="Path 757" class="s39" d="m893 572l-14-4 4 1h6l4 2z"/>
		<path id="Path 758" class="s2" d="m893 572v-1h8l2 1z"/>
		<path id="Path 759" class="s32" d="m606 578l-8-5 7 3z"/>
		<path id="Path 760" class="s87" d="m605 576v-3l4 1v5l-3-1z"/>
		<path id="Path 761" class="s32" d="m615 583l-9-5 3 1 5 2z"/>
		<path id="Path 762" class="s86" d="m621 579l4 2 6-3 2 3-1 11h-1l-3-2-5-2-5-3-3-2-1-2z"/>
		<path id="Path 763" class="s83" d="m632 592l1-11h9v8l-2 2h-1z"/>
		<path id="Path 764" class="s32" d="m629 593l-1-3 3 2v1z"/>
		<path id="Path 765" class="s52" d="m632 592l7-1v1 1h-8v-1z"/>
		<path id="Path 766" class="s39" d="m639 591h1v1h-1z"/>
	</g>
</svg>