<svg version="1.2" xmlns="http://www.w3.org/2000/svg" viewBox="0 0 1000 1000" width="1000" height="1000">
	<title>Umbra_limi</title>
	<style>
		.s0 { opacity: .5;fill: #f5f4eb } 
		.s1 { opacity: .1;fill: #fbfbf2 } 
		.s2 { opacity: 1;fill: #faf8ee } 
		.s3 { fill: #f6eed1 } 
		.s4 { opacity: .3;fill: #fcfcf5 } 
		.s5 { fill: #f5e3b6 } 
		.s6 { opacity: .7;fill: #fbfaf2 } 
		.s7 { fill: #dec597 } 
		.s8 { opacity: 1;fill: #d3cab4 } 
		.s9 { fill: #b89b71 } 
		.s10 { fill: #f3d9a0 } 
		.s11 { fill: #b49360 } 
		.s12 { fill: #c4b698 } 
		.s13 { fill: #c0a678 } 
		.s14 { fill: #cfb484 } 
		.s15 { opacity: 1;fill: #e8e3d4 } 
		.s16 { opacity: 1;fill: #ded6c2 } 
		.s17 { opacity: .7;fill: #e6e3d8 } 
		.s18 { opacity: .1;fill: #e1ded3 } 
		.s19 { fill: #caa66d } 
		.s20 { fill: #918368 } 
		.s21 { fill: #7b705a } 
		.s22 { fill: #b68f52 } 
		.s23 { opacity: 1;fill: #c6beab } 
		.s24 { fill: #77684b } 
		.s25 { opacity: .8;fill: #a69b85 } 
		.s26 { opacity: 1;fill: #9b8463 } 
		.s27 { opacity: .3;fill: #e9e7db } 
		.s28 { fill: #9f814e } 
		.s29 { fill: #a5895c } 
		.s30 { opacity: .5;fill: #dedcd1 } 
		.s31 { fill: #89785a } 
		.s32 { fill: #ac9168 } 
		.s33 { fill: #806740 } 
		.s34 { fill: #937b58 } 
		.s35 { fill: #c29e61 } 
		.s36 { fill: #787467 } 
		.s37 { fill: #957441 } 
		.s38 { opacity: .7;fill: #bbb8ac } 
		.s39 { fill: #666458 } 
		.s40 { opacity: .2;fill: #b2ad9d } 
		.s41 { opacity: .1;fill: #8f8472 } 
		.s42 { fill: #585951 } 
		.s43 { fill: #4f5046 } 
		.s44 { fill: #444338 } 
		.s45 { opacity: 1;fill: #b3aa95 } 
		.s46 { fill: #9d8e74 } 
		.s47 { opacity: .3;fill: #c5c0b1 } 
		.s48 { opacity: 1;fill: #95998f } 
		.s49 { fill: #87714d } 
		.s50 { opacity: .4;fill: #999381 } 
		.s51 { fill: #2b2c25 } 
		.s52 { fill: #32352f } 
		.s53 { fill: #1e1b0f } 
		.s54 { fill: #2f2716 } 
		.s55 { opacity: 1;fill: #9da099 } 
		.s56 { opacity: .5;fill: #c9c4b5 } 
		.s57 { fill: #24241b } 
		.s58 { opacity: .5;fill: #b1aea0 } 
		.s59 { fill: #393b32 } 
		.s60 { fill: #181c1c } 
		.s61 { fill: #564d39 } 
		.s62 { fill: #6a5f48 } 
		.s63 { fill: #767f79 } 
		.s64 { fill: #6f7772 } 
		.s65 { opacity: 1;fill: #857d6e } 
		.s66 { opacity: 1;fill: #82877f } 
		.s67 { fill: #646b66 } 
		.s68 { fill: #3c4542 } 
		.s69 { fill: #635641 } 
		.s70 { fill: #483f29 } 
		.s71 { fill: #aa9c82 } 
		.s72 { fill: #59625c } 
		.s73 { fill: #8c9187 } 
		.s74 { fill: #4f5a58 } 
		.s75 { fill: #596667 } 
		.s76 { fill: #544529 } 
		.s77 { fill: #65512c } 
		.s78 { fill: #67716e } 
		.s79 { fill: #46514d } 
		.s80 { fill: #76613c } 
		.s81 { fill: #42351e } 
		.s82 { fill: #0e100f } 
		.s83 { fill: #574015 } 
		.s84 { fill: #7a6134 } 
		.s85 { fill: #e2bd82 } 
		.s86 { fill: #885d26 } 
		.s87 { fill: #efcc8a } 
		.s88 { fill: #d6af73 } 
		.s89 { fill: #69450e } 
		.s90 { fill: #73562a } 
		.s91 { fill: #926828 } 
		.s92 { fill: #7f5110 } 
		.s93 { fill: #a1660e } 
		.s94 { fill: #ad7422 } 
		.s95 { fill: #bc8532 } 
		.s96 { opacity: .7;fill: #8d7959 } 
		.s97 { opacity: .3;fill: #544a39 } 
	</style>
	<g id="Background">
		<path id="Path 0" class="s0" d="m569 360l7-2h6v1z"/>
		<path id="Path 1" class="s1" d="m582 359v-1h7v2z"/>
		<path id="Path 2" class="s1" d="m896 412h1v1h-1z"/>
		<path id="Path 3" class="s1" d="m891 407h1v1h-1z"/>
		<path id="Path 4" class="s1" d="m886 402h1v1h-1z"/>
		<path id="Path 5" class="s2" d="m569 360l13-1 7 1 10 2-5 8-7 3-3-4-15-2h-6l-5 5-8 2v-4l3-3 3-2 7-3z"/>
		<path id="Path 6" class="s3" d="m594 370l5-8 8 1 7 2 2 1h11l12 1 4 2 2 1 1 12-22-4-9 4h-2l-4-2 3-6h-13z"/>
		<path id="Path 7" class="s1" d="m616 366l-2-1h2z"/>
		<path id="Path 8" class="s4" d="m616 366v-1l11 1z"/>
		<path id="Path 9" class="s0" d="m548 370l5-3-3 3z"/>
		<path id="Path 10" class="s5" d="m558 372l5-5h6l15 2 3 4-7 11-7 8-5 3-4-1-1-7-8-2z"/>
		<path id="Path 11" class="s4" d="m643 369l-4-2 4 1z"/>
		<path id="Path 12" class="s0" d="m643 369v-1l14 4-12-2z"/>
		<path id="Path 13" class="s6" d="m528 383l16-13h4l-5 5-6 7h-3l-6 2z"/>
		<path id="Path 14" class="s3" d="m543 375l5-5h2v4l-3 1z"/>
		<path id="Path 15" class="s7" d="m587 373l7-3 5 4h13l-3 6-5 3v5l3 1v4h4l4 2v4l-5 7-5 4h-1l-4-2v-6l-8-4v-6l-7-2-5-6z"/>
		<path id="Path 16" class="s2" d="m646 382l-1-12 12 2 5 1 5 2 4 2 6 3 10 7 5 3 7 12 3 15-4 1-7-4-3-16-7-6h-7-2v-5-5h-6l-5 4-5 2-9-3z"/>
		<path id="Path 17" class="s7" d="m550 374l8-2-3 13 8 2 1 7 4 1v3l-3 3-3 1-4-3v-5l-6-1-6-8 1-10z"/>
		<path id="Path 18" class="s8" d="m537 382l6-7h4l-1 10-4 3z"/>
		<path id="Path 19" class="s6" d="m677 380l-6-3h5z"/>
		<path id="Path 20" class="s9" d="m615 382l9-4v4l-6 4z"/>
		<path id="Path 21" class="s5" d="m618 386l6-4v-4l22 4 1 3 9 3-1 3-4 3-9 3-8 2-3-2v-12l-14 8-2-3z"/>
		<path id="Path 22" class="s10" d="m607 389l-3-1v-5l5-3 4 2z"/>
		<path id="Path 23" class="s0" d="m687 387l-10-7 7 2z"/>
		<path id="Path 24" class="s3" d="m528 384l6-2-5 8h-2l-2-2 1-3z"/>
		<path id="Path 25" class="s7" d="m529 390l5-8h3l5 6-5 8h-4z"/>
		<path id="Path 26" class="s11" d="m607 389l6-7h2l3 4-3 4-4 3h-4z"/>
		<path id="Path 27" class="s12" d="m661 386l5-4h6v5l-6 3z"/>
		<path id="Path 28" class="s4" d="m526 385l2-2v1z"/>
		<path id="Path 29" class="s13" d="m573 392l7-8 5 6 7 2v6l8 4v6l4 2-5 7-1 1h-6l-2-7-7-3-2-4-7 1v-7z"/>
		<path id="Path 30" class="s4" d="m518 392l8-7-1 3z"/>
		<path id="Path 31" class="s13" d="m542 388l4-3 6 8 6 1v5l4 3v3l-13 5v-4l-8-3-4-7z"/>
		<path id="Path 32" class="s14" d="m617 393l14-8v12l3 2-3 5-8 4h-3v-8l-5-1v-4z"/>
		<path id="Path 33" class="s14" d="m656 388l5-2 5 4v2 10h-6l-5-11z"/>
		<path id="Path 34" class="s15" d="m666 390l6-3v5h-6z"/>
		<path id="Path 35" class="s15" d="m518 392l7-4 2 2-5 4h-5z"/>
		<path id="Path 36" class="s9" d="m522 394l5-4h2l4 6h4l4 7 8 3v4l-4 5-8 1-5-4h-8l-4-11z"/>
		<path id="Path 37" class="s10" d="m611 393l4-3 2 3-2 2z"/>
		<path id="Path 38" class="s13" d="m651 394l4-3 5 11-3 3z"/>
		<path id="Path 39" class="s0" d="m513 397l5-5-1 2z"/>
		<path id="Path 40" class="s14" d="m568 395l5-3 1 6h-6z"/>
		<path id="Path 41" class="s8" d="m666 402v-10h6 2v13l-5 2z"/>
		<path id="Path 42" class="s16" d="m674 405v-13h7l7 6 3 16h-10l-3-1v-7z"/>
		<path id="Path 43" class="s17" d="m866 393h9l11 9v1l-4-1-11-8h-5z"/>
		<path id="Path 44" class="s18" d="m854 397l12-4v1h-1l-5 2z"/>
		<path id="Path 45" class="s14" d="m513 397l4-3h5l-2 7-8 1-1-1z"/>
		<path id="Path 46" class="s19" d="m642 397l9-3 6 11-6 5-9-2z"/>
		<path id="Path 47" class="s8" d="m860 396l5-2-3 2z"/>
		<path id="Path 48" class="s20" d="m862 396l3-2h1 5l11 8v4l-12 3-10-2v-4z"/>
		<path id="Path 49" class="s21" d="m854 397l6-1h2l-2 7h-6l-1-4v-1z"/>
		<path id="Path 50" class="s0" d="m504 407v-3l9-7-2 4-6 6z"/>
		<path id="Path 51" class="s11" d="m634 399l8-2v11 1h-7l-4-5z"/>
		<path id="Path 52" class="s0" d="m843 400l11-3-1 1-6 2z"/>
		<path id="Path 53" class="s22" d="m565 401l3-3h6v7 3h-6l-2-3z"/>
		<path id="Path 54" class="s23" d="m847 400l6-2v1z"/>
		<path id="Path 55" class="s9" d="m610 406l5-7 5 1v8l-6 1z"/>
		<path id="Path 56" class="s24" d="m847 400l6-1 1 4-2 5-18 7-4-4v-5l1-2h3z"/>
		<path id="Path 57" class="s25" d="m834 402l9-2h4l-13 4z"/>
		<path id="Path 58" class="s12" d="m505 407l6-6 1 1v6h-7z"/>
		<path id="Path 59" class="s11" d="m512 402l8-1 4 11-2 2h-6l-4-6z"/>
		<path id="Path 60" class="s26" d="m562 402l3-1 1 4h-4z"/>
		<path id="Path 61" class="s7" d="m657 405l3-3h6l3 5-3 5-2 2h-13v-4z"/>
		<path id="Path 62" class="s17" d="m828 403l6-1v2h-3-3z"/>
		<path id="Path 63" class="s16" d="m882 406v-4l4 1h1l2 2 2 2 1 1 2 2 2 2 1 1 2 4 1 4-6-7h-4v-3z"/>
		<path id="Path 64" class="s27" d="m823 405l5-2v1z"/>
		<path id="Path 65" class="s26" d="m852 408l2-5h6v4z"/>
		<path id="Path 66" class="s28" d="m574 405l7-1 2 4-7 4-2-4z"/>
		<path id="Path 67" class="s28" d="m623 408l8-4 4 5-4 7h-1-4l-3-2z"/>
		<path id="Path 68" class="s8" d="m823 405l5-1h3l-1 2-8 2v-2z"/>
		<path id="Path 69" class="s29" d="m549 410l13-5h4l2 3v10l4 4v6l-7 4-18-4-3-6h-5l-2 7-4 1-3-4h-6l-2-12 2-2h8l5 4 8-1z"/>
		<path id="Path 70" class="s13" d="m669 407l5-2 4 1v7l3 1-1 6h-10l-4-8z"/>
		<path id="Path 71" class="s27" d="m819 407l4-2-1 1z"/>
		<path id="Path 72" class="s29" d="m605 410l5-4 4 3 6-1h3v6l3 2v4l-4 5-12-5z"/>
		<path id="Path 73" class="s17" d="m819 407l3-1v2l-2 1-7 4-8 3h-2v-1l3-2z"/>
		<path id="Path 74" class="s21" d="m822 408l8-2v5l4 4 2 12-2 13 2 2 2 14-1 2h-9l-3-7-10-1-1-4h-8l-4-1-4-13-6-2v-7l5-3 8-4 8-3 6 2 1-6z"/>
		<path id="Path 75" class="s26" d="m870 409l12-3 8 5v3l-4 8h-9l-7-4z"/>
		<path id="Path 76" class="s30" d="m486 422l18-15h1v1l-6 8-6 4-6 2z"/>
		<path id="Path 77" class="s31" d="m852 408l8-1 10 2v9h-12l-2 3-20 6-2-12z"/>
		<path id="Path 78" class="s32" d="m499 416l6-8h7l4 6h6l2 12-10 1-14-5z"/>
		<path id="Path 79" class="s33" d="m572 422l-4-4v-10h6l2 4v10z"/>
		<path id="Path 80" class="s34" d="m576 412l7-4 7 3 2 7h6l-1 18h-10l-2-7h-9v-7z"/>
		<path id="Path 81" class="s35" d="m642 409v-1l9 2v4l-2 2-7-2z"/>
		<path id="Path 82" class="s13" d="m631 416l4-7h7v5l-4 2z"/>
		<path id="Path 83" class="s36" d="m813 413l7-4-1 6z"/>
		<path id="Path 84" class="s37" d="m599 417l5-7h1l5 10-4 2z"/>
		<path id="Path 85" class="s17" d="m291 413l12-1v2h-12z"/>
		<path id="Path 86" class="s38" d="m303 414v-2h9v2z"/>
		<path id="Path 87" class="s25" d="m312 414v-2h7l-5 2z"/>
		<path id="Path 88" class="s39" d="m314 414l5-2h12l14 2v4h-5-12-4-8-2z"/>
		<path id="Path 89" class="s38" d="m345 414l-14-2h16v2z"/>
		<path id="Path 90" class="s17" d="m347 414v-2l14 1v1z"/>
		<path id="Path 91" class="s19" d="m664 414l2-2 4 8-1 1-5-3z"/>
		<path id="Path 92" class="s1" d="m268 415l10-2v1z"/>
		<path id="Path 93" class="s40" d="m278 414v-1h13v1h-3z"/>
		<path id="Path 94" class="s41" d="m361 414v-1h14v1h-8-3z"/>
		<path id="Path 95" class="s40" d="m375 414v-1h9v1h-2z"/>
		<path id="Path 96" class="s18" d="m384 414v-1h9v1h-3z"/>
		<path id="Path 97" class="s1" d="m393 414v-1l11 2z"/>
		<path id="Path 98" class="s15" d="m268 415l10-1v2h-10z"/>
		<path id="Path 99" class="s25" d="m278 416v-2h10z"/>
		<path id="Path 100" class="s42" d="m278 416l10-2h3 12 9 2v4l-16 1-10 2-31-1v-2l7-2h4z"/>
		<path id="Path 101" class="s43" d="m345 418v-4h2 14 3v6h-14z"/>
		<path id="Path 102" class="s44" d="m364 420v-6h3l15 2h2v5l-2 1z"/>
		<path id="Path 103" class="s25" d="m382 416l-15-2h8 7z"/>
		<path id="Path 104" class="s38" d="m382 416v-2h2 6v2h-6z"/>
		<path id="Path 105" class="s15" d="m390 416v-2h3l11 1v1z"/>
		<path id="Path 106" class="s11" d="m638 416l4-2 7 2 2-2h13v4l5 3v4l5 3v12h-4l-1-4h-4l-4-4h-9-6-5l-1-2-2-8z"/>
		<path id="Path 107" class="s23" d="m680 420l1-6h10v7l7 1v4l-1 12h-9l-2-9-6-2z"/>
		<path id="Path 108" class="s8" d="m698 422l-7-1v-7l7 4z"/>
		<path id="Path 109" class="s20" d="m886 422l4-8h4l6 7 2 4 1 1v2h-3-14z"/>
		<path id="Path 110" class="s18" d="m246 417l9-2v1z"/>
		<path id="Path 111" class="s40" d="m255 416v-1h13v1h-4z"/>
		<path id="Path 112" class="s40" d="m404 416v-1h7v1h-4z"/>
		<path id="Path 113" class="s18" d="m411 416v-1l11 1z"/>
		<path id="Path 114" class="s27" d="m796 418l7-3v1l-6 2z"/>
		<path id="Path 115" class="s45" d="m246 417l9-1h9l-7 2z"/>
		<path id="Path 116" class="s43" d="m384 421v-5h6 14 3l13 2v6h-8l-22-2z"/>
		<path id="Path 117" class="s8" d="m420 418l-13-2h4 11v1 1z"/>
		<path id="Path 118" class="s46" d="m493 420l6-4 1 6h-7z"/>
		<path id="Path 119" class="s9" d="m626 420v-4h4v4z"/>
		<path id="Path 120" class="s29" d="m630 420v-4h1 7v6h-6z"/>
		<path id="Path 121" class="s23" d="m797 418l6-2h2l-8 4z"/>
		<path id="Path 122" class="s27" d="m228 418l6-1v1l-6 1z"/>
		<path id="Path 123" class="s47" d="m234 418v-1h5l-4 1z"/>
		<path id="Path 124" class="s48" d="m235 418l4-1h4l-1 3h-7z"/>
		<path id="Path 125" class="s43" d="m242 420l1-3h3l11 1v2l-3 2h-10z"/>
		<path id="Path 126" class="s47" d="m422 418v-1h9v1h-8z"/>
		<path id="Path 127" class="s4" d="m431 418v-1l6 1z"/>
		<path id="Path 128" class="s49" d="m598 418l1-1 7 5 4-2 12 5 4-5h4l2 2-2 8v6h-11l-1 8h-10l-5-1-6-7z"/>
		<path id="Path 129" class="s3" d="m698 418l4-1 2 9h-6v-4z"/>
		<path id="Path 130" class="s27" d="m900 421l-1-4 3 8z"/>
		<path id="Path 131" class="s0" d="m216 420l7-2v2h-6z"/>
		<path id="Path 132" class="s50" d="m223 420v-2h5v1 1h-4z"/>
		<path id="Path 133" class="s45" d="m228 419l6-1h1v2h-2-5z"/>
		<path id="Path 134" class="s51" d="m298 419l16-1h2v9l-7 1h-11z"/>
		<path id="Path 135" class="s52" d="m316 427v-9h8l1 8-7 1z"/>
		<path id="Path 136" class="s53" d="m325 426l-1-8h4l-1 8z"/>
		<path id="Path 137" class="s54" d="m327 426l1-8h12l2 8-7 1-1 5z"/>
		<path id="Path 138" class="s53" d="m342 426l-2-8h5l5 2v3l-6 3z"/>
		<path id="Path 139" class="s42" d="m420 424v-6h2 1l3 2v5z"/>
		<path id="Path 140" class="s55" d="m426 420l-3-2h8l1 2z"/>
		<path id="Path 141" class="s8" d="m432 420l-1-2h6v2h-1z"/>
		<path id="Path 142" class="s56" d="m437 420v-2h6v2h-4z"/>
		<path id="Path 143" class="s0" d="m443 420v-2l9 2z"/>
		<path id="Path 144" class="s30" d="m785 422l11-4h1v2l-5 3-6 1h-1z"/>
		<path id="Path 145" class="s49" d="m836 427l20-6 2-3h12l7 4-1 6h-23l-1 14h-16l-2-2z"/>
		<path id="Path 146" class="s57" d="m288 421l10-2v9l-2 1-8-3z"/>
		<path id="Path 147" class="s58" d="m205 422l11-2h1v1h-1l-1 1h-1l-9 1z"/>
		<path id="Path 148" class="s48" d="m215 421h1v1h-1z"/>
		<path id="Path 149" class="s48" d="m217 421v-1h6 1v1z"/>
		<path id="Path 150" class="s42" d="m224 421v-1h4 5l-1 4h-8z"/>
		<path id="Path 151" class="s59" d="m232 424l1-4h2 7l2 2 1 8h-13z"/>
		<path id="Path 152" class="s51" d="m254 422l3-2 31 1v5l-2 2-24 1h-8z"/>
		<path id="Path 153" class="s51" d="m350 423v-3h14l18 2 2 10-1 2-2 1-5 2-8-2-1-5h-5l-8-2v-4z"/>
		<path id="Path 154" class="s43" d="m426 425v-5h6 4v6z"/>
		<path id="Path 155" class="s42" d="m436 426v-6h1 2l5 2v4l-4 1z"/>
		<path id="Path 156" class="s55" d="m444 422l-5-2h4 9 1l14 2-1 1h-12z"/>
		<path id="Path 157" class="s55" d="m487 422l6-2v2l-1 2h-6z"/>
		<path id="Path 158" class="s14" d="m669 421l1-1h10v7l-6 1-5-3z"/>
		<path id="Path 159" class="s43" d="m215 422l1-1h1 7v3 6l-9 4-1-12z"/>
		<path id="Path 160" class="s60" d="m382 422l2-1 6 1v10h-6z"/>
		<path id="Path 161" class="s47" d="m190 425l15-3v1l-15 3z"/>
		<path id="Path 162" class="s42" d="m205 423l9-1 1 12-9 6h-4v-6l-7-1-2 7 2 2-8 3-12-1-1-7 2-5 3-2 6-2 2-1 3-1z"/>
		<path id="Path 163" class="s57" d="m245 430l-1-8h10v7z"/>
		<path id="Path 164" class="s51" d="m390 432v-10l22 2v7h-6l-10 1z"/>
		<path id="Path 165" class="s43" d="m444 426v-4l10 1v5z"/>
		<path id="Path 166" class="s39" d="m466 423l1-1h3l2 2v4h-6z"/>
		<path id="Path 167" class="s17" d="m472 424l-2-2h16 1l-1 2z"/>
		<path id="Path 168" class="s61" d="m492 424l1-2h7l14 5v2l-1 5h-13l-8-5z"/>
		<path id="Path 169" class="s49" d="m533 430l4-1 2-7h5l3 6v6l-9-1-5-1z"/>
		<path id="Path 170" class="s31" d="m572 428v-6h4v7z"/>
		<path id="Path 171" class="s32" d="m630 430l2-8h6l2 8z"/>
		<path id="Path 172" class="s27" d="m781 425l4-3v2z"/>
		<path id="Path 173" class="s31" d="m876 428l1-6h9v6l-2 8v1l-6 1z"/>
		<path id="Path 174" class="s17" d="m903 424l2-2h4l3 5-1 1-8-2-1-1z"/>
		<path id="Path 175" class="s52" d="m344 426l6-3 4 1v4l-1 4h-5z"/>
		<path id="Path 176" class="s42" d="m454 428v-5h12v5z"/>
		<path id="Path 177" class="s20" d="m786 424l6-1v7l-12 4v-5z"/>
		<path id="Path 178" class="s51" d="m224 430v-6h8v6z"/>
		<path id="Path 179" class="s57" d="m412 431v-7h8l6 1 10 1 4 1v5l-5 1-12-3-1 4h-4z"/>
		<path id="Path 180" class="s42" d="m472 428v-4h14 6v5l-4 2h-8z"/>
		<path id="Path 181" class="s17" d="m781 425l4-1h1l-6 5-15 5 1-2 12-6z"/>
		<path id="Path 182" class="s27" d="m186 427l4-2v1l-3 1z"/>
		<path id="Path 183" class="s62" d="m514 427l10-1h6l3 4v2h-5l-9-1-5-2z"/>
		<path id="Path 184" class="s63" d="m286 428l2-2 8 3v5h-10z"/>
		<path id="Path 185" class="s63" d="m318 427l7-1h2l7 6v12l-6 13h-3v-10l-6-6z"/>
		<path id="Path 186" class="s64" d="m334 432l1-5 7-1h2l4 6-6 6v6h-8z"/>
		<path id="Path 187" class="s52" d="m440 427l4-1 10 2h12 6l8 3 2 9-2 2h-8l-8-1-18-3-1-1-5-5z"/>
		<path id="Path 188" class="s15" d="m697 438l1-12h6l-2 18h-2z"/>
		<path id="Path 189" class="s65" d="m903 428v-2l8 2 1 10-12 4 1-8 4-2z"/>
		<path id="Path 190" class="s0" d="m173 430l10-3v1l-5 2z"/>
		<path id="Path 191" class="s47" d="m183 428v-1h3 1l-2 1z"/>
		<path id="Path 192" class="s66" d="m262 429l24-1v6l2 10v6l-2 4h-8l-6-5v-8l-6-6h-4z"/>
		<path id="Path 193" class="s67" d="m309 428l7-1h2l1 14 6 6v10h-1l-10-1v-20l-5-4z"/>
		<path id="Path 194" class="s32" d="m674 428l6-1 6 2 2 9-6 3h-4l-4-1z"/>
		<path id="Path 195" class="s6" d="m911 428l1-1 5 15-3-2-2-2z"/>
		<path id="Path 196" class="s8" d="m178 430l5-2h2l-6 2z"/>
		<path id="Path 197" class="s64" d="m296 429l2-1h11v4l5 4v20l-2 11-5 3-4-1v-7l-15-12v-6l8-2v-8z"/>
		<path id="Path 198" class="s68" d="m353 432l1-4 8 2v7l-3 2z"/>
		<path id="Path 199" class="s69" d="m547 434v-6l18 4 1 4z"/>
		<path id="Path 200" class="s24" d="m565 432l7-4 4 1h9l2 7v2l-7 1-6-1-8-2z"/>
		<path id="Path 201" class="s26" d="m852 442l1-14h23l2 10-3 3-7 3-13 1z"/>
		<path id="Path 202" class="s21" d="m884 436l2-8h14l1 6-1 8-1 3-12 3v-7l3-1v-4z"/>
		<path id="Path 203" class="s69" d="m901 434l-1-6h3l2 4z"/>
		<path id="Path 204" class="s63" d="m245 430l9-1h8v6l-31 1-1 5-7 4-1 5 1 6h5l4 6v9l-2 5h-5l-1-6-4-2v-8l-8-1v-8l-6-4v-7l9-6 9-4h8z"/>
		<path id="Path 205" class="s44" d="m488 431l4-2 8 5v7l5 7h-1l-16-1v-6z"/>
		<path id="Path 206" class="s70" d="m513 434l1-5 5 2-2 7h-3z"/>
		<path id="Path 207" class="s71" d="m765 434l15-5v5l-8 4h-14v-1z"/>
		<path id="Path 208" class="s23" d="m165 432l8-2h5 1l-3 2-4 1-8 1z"/>
		<path id="Path 209" class="s63" d="m359 439l3-2v-7h5l1 5-4 3v5l7 2-3 3 2 12 2 12-2 3-5-2-6-21z"/>
		<path id="Path 210" class="s59" d="m422 434l1-4 12 3v3l-5 4z"/>
		<path id="Path 211" class="s33" d="m630 436v-6h10l1 2-1 5-6 1z"/>
		<path id="Path 212" class="s65" d="m780 434l12-4 6 2 4 13-18 3h-11l-3 3-12-3v-10h14z"/>
		<path id="Path 213" class="s36" d="m396 432l10-1 2 10v15l-2 7 2 7h-2l-8-8-2-24z"/>
		<path id="Path 214" class="s42" d="m408 441l-2-10h6l6 3z"/>
		<path id="Path 215" class="s57" d="m482 440l-2-9h8v10z"/>
		<path id="Path 216" class="s59" d="m517 438l2-7 9 1v6l-2 2h-9z"/>
		<path id="Path 217" class="s18" d="m153 437l12-5-1 2-5 2z"/>
		<path id="Path 218" class="s67" d="m172 433l4-1-2 5z"/>
		<path id="Path 219" class="s72" d="m342 444v-6l6-6h5l6 7v13h-13z"/>
		<path id="Path 220" class="s72" d="m383 434l1-2h6v4z"/>
		<path id="Path 221" class="s43" d="m390 436v-4h6v6h-6z"/>
		<path id="Path 222" class="s44" d="m435 433l5-1 5 5-10-1z"/>
		<path id="Path 223" class="s44" d="m528 438v-6h5l5 1v5z"/>
		<path id="Path 224" class="s29" d="m640 437l1-5h5v5z"/>
		<path id="Path 225" class="s32" d="m646 437v-5h6v6z"/>
		<path id="Path 226" class="s9" d="m652 438v-6h9l4 4 1 4v4h-8l-1-4z"/>
		<path id="Path 227" class="s27" d="m758 437l8-5-1 2z"/>
		<path id="Path 228" class="s39" d="m164 434l8-1 2 4 1 7-3 5h-8l-5-13z"/>
		<path id="Path 229" class="s57" d="m195 442l-2-2 2-7 7 1v6l-6 2z"/>
		<path id="Path 230" class="s59" d="m538 438v-5l9 1 19 2 8 2v12l-7 6-6-5h-6l-3-2-2-7h-8z"/>
		<path id="Path 231" class="s73" d="m288 444l-2-10h10v8z"/>
		<path id="Path 232" class="s74" d="m381 435l2-1 7 2v2l-4 3-4-1z"/>
		<path id="Path 233" class="s72" d="m408 441l10-7h4l8 6 1 10 3 2 2 8h6l1-5 5-1 4 1 2 5 1 10h-3l-2 9h-7v5h-5v-6l-16-12-2-8-12-2z"/>
		<path id="Path 234" class="s51" d="m505 448l-5-7v-7h13l1 4v3 5z"/>
		<path id="Path 235" class="s73" d="m230 441l1-5 31-1h4l6 6v8l-12 5h-17l-3 4-8-4 1-12z"/>
		<path id="Path 236" class="s68" d="m371 445l-7-2v-5l4-3 8 2-1 8z"/>
		<path id="Path 237" class="s75" d="m376 437l5-2 1 5 4 1v11l8 10-2 14h-9l-11-4-2-12 8-2v-9l-3-4z"/>
		<path id="Path 238" class="s72" d="m153 437l6-1 5 13-4 5h-9l-2 3-5 1-10 4h-6l-4-1v-6l-5-3 1-2 2-1 24-9z"/>
		<path id="Path 239" class="s64" d="m430 440l5-4 10 1 1 1v8l-6 1v5h-6l-3-2z"/>
		<path id="Path 240" class="s70" d="m587 438v-2h10l6 7 5 1-2 10h-8v-5l-8-4z"/>
		<path id="Path 241" class="s31" d="m618 444l1-8h11l4 2v12l-7-1-4-5z"/>
		<path id="Path 242" class="s37" d="m666 440l-1-4h4l1 4z"/>
		<path id="Path 243" class="s76" d="m884 437v-1h6v4l-3 1z"/>
		<path id="Path 244" class="s0" d="m143 440l10-3-7 3z"/>
		<path id="Path 245" class="s20" d="m634 438l6-1h6l6 1 5 2 1 4v6l-6 1-10-1h-6-2z"/>
		<path id="Path 246" class="s0" d="m746 442l4-4 8-1v1z"/>
		<path id="Path 247" class="s77" d="m878 438l6-1 3 4v7l-8 3-4-10z"/>
		<path id="Path 248" class="s72" d="m386 441l4-3h6l2 24h-4l-8-10z"/>
		<path id="Path 249" class="s78" d="m446 446v-8l18 3v7l4 3v7l-3 1-5 2-6-1-2-5-4-1z"/>
		<path id="Path 250" class="s44" d="m514 441v-3h3v2z"/>
		<path id="Path 251" class="s51" d="m526 440l2-2h10l4 4h8l2 7-1 3h-4l-2-4-11 1-8-3z"/>
		<path id="Path 252" class="s52" d="m574 450v-12l6 1v13l-2 1z"/>
		<path id="Path 253" class="s59" d="m580 439l7-1 3 7 8 4v5l-6 1-2-3h-8-2z"/>
		<path id="Path 254" class="s8" d="m682 441l6-3h9l3 6 7 2h7l-16 2-12-2-4-1z"/>
		<path id="Path 255" class="s66" d="m746 442l12-4v10h-3l-3-4h-6-2l1-2z"/>
		<path id="Path 256" class="s46" d="m900 442l12-4 2 2 3 7 7 21 1 13 3 2v4l-1 4-3 1-1-8-9-2-2-12 4-2-1-7-12-1-1 4-6 1-2 8-4 1h-14l-3-17 6-6 8-3 12-3z"/>
		<path id="Path 257" class="s30" d="m126 445l17-5h3l-24 9v-2l2-1z"/>
		<path id="Path 258" class="s66" d="m196 442l6-2h4v7l6 4v8l-7 3-9-6z"/>
		<path id="Path 259" class="s79" d="m480 442l2-2 6 1v6h-5z"/>
		<path id="Path 260" class="s52" d="m514 441l3-1h9v6l-1 6-3 1-8-7z"/>
		<path id="Path 261" class="s13" d="m666 444v-4h4v4z"/>
		<path id="Path 262" class="s14" d="m670 444v-4h4l4 1v3z"/>
		<path id="Path 263" class="s8" d="m917 447l-3-7 3 2 2 5z"/>
		<path id="Path 264" class="s55" d="m228 456h-5l-1-6 1-5 7-4 3 1-1 12z"/>
		<path id="Path 265" class="s63" d="m468 451l-4-3v-7l8 1v8z"/>
		<path id="Path 266" class="s12" d="m678 444v-3h4v4z"/>
		<path id="Path 267" class="s80" d="m868 444l7-3 4 10-6 6h-5z"/>
		<path id="Path 268" class="s63" d="m187 445l8-3h1v14h-4l-5-5z"/>
		<path id="Path 269" class="s72" d="m472 450v-8h8l3 5-1 3z"/>
		<path id="Path 270" class="s38" d="m733 443l12-1-1 2h-11z"/>
		<path id="Path 271" class="s24" d="m838 456l-2-14h16l3 3-12 11z"/>
		<path id="Path 272" class="s18" d="m716 445l17-2v1h-4z"/>
		<path id="Path 273" class="s66" d="m172 449l3-5 12 1v6l5 5 2 17-2 4-6-1-12-12z"/>
		<path id="Path 274" class="s79" d="m328 457l6-13h8l4 8v8l14 18v9l-4 3h-7v-4l-5-2-2-8h-7l-3-4-4-10z"/>
		<path id="Path 275" class="s44" d="m606 454l2-10h10 5l4 5-3 2v7l-9 2z"/>
		<path id="Path 276" class="s31" d="m658 450v-6h8 4 8l4 1 4 1v4h-8z"/>
		<path id="Path 277" class="s1" d="m707 446l-7-2h2l5 1z"/>
		<path id="Path 278" class="s38" d="m716 445l13-1-1 2h-6-6z"/>
		<path id="Path 279" class="s42" d="m728 446l1-2h4 11 2v6l-16 2z"/>
		<path id="Path 280" class="s43" d="m746 450v-6h6l3 4-1 2z"/>
		<path id="Path 281" class="s77" d="m855 445l13-1v13l-10 4-14 1-1-6z"/>
		<path id="Path 282" class="s72" d="m370 460l-2-12 3-3h4l3 4v9z"/>
		<path id="Path 283" class="s40" d="m707 446v-1h9v1h-2z"/>
		<path id="Path 284" class="s67" d="m784 448l18-3 4 1 2 7v5l-2 6-12 1-1 16h-6l2 5 1 11v5 4h-18l-3-2-1-19 8-5v-4l-6-5 1-7 9-2z"/>
		<path id="Path 285" class="s67" d="m440 452v-5l6-1 2 8-5 1z"/>
		<path id="Path 286" class="s67" d="m505 448l9-2v8h-10v-6z"/>
		<path id="Path 287" class="s66" d="m514 454v-8l8 7v5h-8z"/>
		<path id="Path 288" class="s67" d="m525 452l1-6 8 3v3z"/>
		<path id="Path 289" class="s65" d="m686 450v-4l12 2v1l-4 1z"/>
		<path id="Path 290" class="s43" d="m698 448l16-2h2 6v6l-2 4h-10-12v-7z"/>
		<path id="Path 291" class="s79" d="m722 452v-6h6l2 6z"/>
		<path id="Path 292" class="s36" d="m808 453l-2-7h8l1 4z"/>
		<path id="Path 293" class="s0" d="m116 450l6-3v2l-2 1z"/>
		<path id="Path 294" class="s63" d="m482 450l1-3h5l16 1v6 6l-5 4v4l-3 6h-5l-1-10z"/>
		<path id="Path 295" class="s16" d="m924 468l-7-21h2l3 8 2 7z"/>
		<path id="Path 296" class="s79" d="m534 449l11-1 2 4-2 4h-6l-5-4z"/>
		<path id="Path 297" class="s72" d="m754 450l1-2h3l12 3 1 13-1 7 6 5v4l-8 5h-2v-10l-3-3h-8z"/>
		<path id="Path 298" class="s64" d="m770 451l3-3h11l-4 14-9 2z"/>
		<path id="Path 299" class="s63" d="m160 454l4-5h8l2 15 12 12 1 6h5l2 8-2 4-12 3-2-4h-4l-1-5-7 1-12-3-3-4-1-5-4-1v-8l9-2 7-4-2-4z"/>
		<path id="Path 300" class="s78" d="m240 458l3-4h17l12-5 6 5h8v24l-9 5-5 2-2 5-7 4-11-2-2-11v-6l-8-5-2-8z"/>
		<path id="Path 301" class="s67" d="m551 452l1-3 3 2-4 3z"/>
		<path id="Path 302" class="s52" d="m624 458v-7l3-2 7 1h2v9l-6 3z"/>
		<path id="Path 303" class="s79" d="m694 450l4-1v7h-4z"/>
		<path id="Path 304" class="s38" d="m107 453l9-3h4l-1 2-11 4h-4z"/>
		<path id="Path 305" class="s75" d="m286 454l2-4 15 12v7l4 1-5 9h-4l-3 5h-6l-3-6z"/>
		<path id="Path 306" class="s75" d="m468 451l4-1h10l8 14 1 10v3h-2l-7-5v-7l-6 2h-4l-1-8-3-1z"/>
		<path id="Path 307" class="s67" d="m567 456l7-6 4 3v3l-2 6h-6z"/>
		<path id="Path 308" class="s59" d="m636 459v-9h6l-2 10z"/>
		<path id="Path 309" class="s61" d="m640 460l2-10 10 1v7l-11 4z"/>
		<path id="Path 310" class="s44" d="m652 451l6-1h20v10l-8 1-3-3-7 3-8-3z"/>
		<path id="Path 311" class="s43" d="m678 460v-10h8l1 7-5 4z"/>
		<path id="Path 312" class="s44" d="m687 457l-1-7h8v6z"/>
		<path id="Path 313" class="s67" d="m730 452l16-2h8l1 22-2 15-9 1-4-7-20-1-2-12 2-12 2-4z"/>
		<path id="Path 314" class="s43" d="m808 453l7-3 10 1 3 7h9l2 6-1 8v2h-10-8v-10l-6-1-6-5z"/>
		<path id="Path 315" class="s63" d="m551 454l4-3h6l6 5 3 6v13l-2 1h-11l-7-12v-6z"/>
		<path id="Path 316" class="s42" d="m108 456l11-4 5 3v6h-6l-2 3-3 2h-5z"/>
		<path id="Path 317" class="s74" d="m360 487v-9l-14-18v-8h13l6 21 5 2v1l-5 10z"/>
		<path id="Path 318" class="s39" d="m443 455l-1 5h-6l-2-8h6z"/>
		<path id="Path 319" class="s64" d="m522 453l3-1h9l5 4h6l5 2v6l7 12-2 3-3-2-8 2h-6l-2-2-2-7-12-12z"/>
		<path id="Path 320" class="s78" d="m545 456l2-4h4v2l-1 4z"/>
		<path id="Path 321" class="s42" d="m578 453l2-1h2v5l-4-1z"/>
		<path id="Path 322" class="s72" d="m582 457v-5h8l2 3-4 5h-4z"/>
		<path id="Path 323" class="s27" d="m98 457l9-4-3 3-4 2h-2z"/>
		<path id="Path 324" class="s55" d="m149 457l2-3h9v4l-7 4h-3z"/>
		<path id="Path 325" class="s79" d="m228 456l4-2 8 4v4h-4-4z"/>
		<path id="Path 326" class="s64" d="m504 460v-6h10v4z"/>
		<path id="Path 327" class="s63" d="m592 455l6-1h8l9 6 1 9-13 1-12 7-4-4-3-4v-9h4z"/>
		<path id="Path 328" class="s36" d="m100 458l4-2h4v10l1 4h-7v-5h-4l-2-2z"/>
		<path id="Path 329" class="s78" d="m192 477l2-4-2-17h4l9 6 7-3 8 1v8l-6 4 2 14-10 11-5-1 1-6h-8l-2-8z"/>
		<path id="Path 330" class="s72" d="m307 470l5-3 2-11 10 1v5 8l8 2 3 4-1 16-8 2-2-6-6 2h-11l-7-6 2-5z"/>
		<path id="Path 331" class="s79" d="m408 470l-2-7 2-7 12 2 2 8 16 12v6l-1 2-17-4v-4z"/>
		<path id="Path 332" class="s66" d="m576 462l2-6 4 1 2 3v9l3 4-2 1-8-5z"/>
		<path id="Path 333" class="s64" d="m687 457l7-1h4 12v12l1 12-2 12-9-2v-10l-10-5-8-14z"/>
		<path id="Path 334" class="s36" d="m710 468v-12h10l-2 12z"/>
		<path id="Path 335" class="s81" d="m837 458l1-2h5l1 6-5 2z"/>
		<path id="Path 336" class="s0" d="m81 467l10-9 7-1v1l-7 4-10 6z"/>
		<path id="Path 337" class="s48" d="m144 458l5-1 1 5-4 2h-2z"/>
		<path id="Path 338" class="s64" d="m324 462v-5h1 3v5z"/>
		<path id="Path 339" class="s20" d="m858 461l10-4h5l3 17-8 2h-2v-9l-6-2z"/>
		<path id="Path 340" class="s45" d="m91 462l7-4h2l-4 5h-5z"/>
		<path id="Path 341" class="s45" d="m134 462l10-4v6l-6 2h-4z"/>
		<path id="Path 342" class="s42" d="m153 462l7-4 2 4-7 4z"/>
		<path id="Path 343" class="s72" d="m465 459l3-1 3 1 1 8h-3z"/>
		<path id="Path 344" class="s67" d="m504 460l10-2h8l12 12-7 8h-3l-5-8-10 3-3-1-7-4v-4z"/>
		<path id="Path 345" class="s75" d="m615 460l9-2 6 4v4h-9l-3 3h-2z"/>
		<path id="Path 346" class="s64" d="m641 462l11-4 8 3 3 5-3 3v7l-5 2-3 6h-7l-1-2v-8l-5-3v-7z"/>
		<path id="Path 347" class="s63" d="m660 461l7-3 3 3-2 5h-5z"/>
		<path id="Path 348" class="s42" d="m806 464l2-6 6 5z"/>
		<path id="Path 349" class="s79" d="m460 461l5-2 4 8-4 4 1 4-1 2h-5l-3-5 3-2z"/>
		<path id="Path 350" class="s67" d="m630 462l6-3 3 5v7l5 3v8h-10l-4-4v-12z"/>
		<path id="Path 351" class="s66" d="m639 464l-3-5 4 1 1 2z"/>
		<path id="Path 352" class="s63" d="m455 470l-1-10 6 1v9l-3 2z"/>
		<path id="Path 353" class="s75" d="m670 461l8-1 4 1 8 14 10 5v10h-2l-8-4h-9l-5-2-2-7-14-1v-7l3-3h5z"/>
		<path id="Path 354" class="s65" d="m902 464l1-4 12 1 1 7-4 2h-4z"/>
		<path id="Path 355" class="s20" d="m116 464l2-3h6l4 1v6l-5 3z"/>
		<path id="Path 356" class="s65" d="m844 462l14-1 2 4 6 2v9h-22l-1-4h-5l1-8z"/>
		<path id="Path 357" class="s55" d="m81 468l10-6v1l-1 3-8 4-6 3z"/>
		<path id="Path 358" class="s46" d="m128 468v-6h6v4l-2 1z"/>
		<path id="Path 359" class="s43" d="m146 464l4-2h3l2 4-9 2z"/>
		<path id="Path 360" class="s78" d="m232 471v-9h4v8l-2 1z"/>
		<path id="Path 361" class="s63" d="m236 470v-8h4l2 8z"/>
		<path id="Path 362" class="s67" d="m332 472l-8-2v-8h4z"/>
		<path id="Path 363" class="s67" d="m392 476l2-14h4l8 8 1 10-2 8-3 1v5l-6-1v-13z"/>
		<path id="Path 364" class="s64" d="m570 475v-13h6l1 7 8 5-1 6h-6l-4-5z"/>
		<path id="Path 365" class="s0" d="m924 468v-6l3 10z"/>
		<path id="Path 366" class="s72" d="m90 466l1-3h5l2 2v7l-1 4h-5l-2-2z"/>
		<path id="Path 367" class="s59" d="m806 464l8-1 6 1v10l-2 2h-9l-3-4z"/>
		<path id="Path 368" class="s63" d="m113 466l3-2 7 7-1 4-3 4-3 1-2 8-4 6h-5l1-8-6-1-3-9 1-4 4-2h7 4z"/>
		<path id="Path 369" class="s36" d="m138 466l6-2h2v4 8h-2-4z"/>
		<path id="Path 370" class="s68" d="m793 481l1-16 12-1v8l-4 1v9z"/>
		<path id="Path 371" class="s31" d="m894 473l2-8 6-1 6 6h4l2 12h-11z"/>
		<path id="Path 372" class="s43" d="m98 472v-7h4v5z"/>
		<path id="Path 373" class="s52" d="m476 467l6-2v7h-6z"/>
		<path id="Path 374" class="s67" d="m82 470l8-4v8h-6z"/>
		<path id="Path 375" class="s79" d="m109 470l-1-4h5v4z"/>
		<path id="Path 376" class="s43" d="m132 467l2-1h4l2 10-6 2-3-4z"/>
		<path id="Path 377" class="s78" d="m618 469l3-3h9v12l-7 3-5-3z"/>
		<path id="Path 378" class="s27" d="m73 473l3-5 5-1v1l-5 5-3 1z"/>
		<path id="Path 379" class="s52" d="m128 468l4-1-1 7-3 2-6-1 1-4z"/>
		<path id="Path 380" class="s60" d="m466 475l-1-4 4-4h3 4v5z"/>
		<path id="Path 381" class="s75" d="m216 486l-2-14 6-4 4 2 1 6 3 12-1 2-5-1-1 3-4-1z"/>
		<path id="Path 382" class="s51" d="m496 474l3-6 7 4-5 9h-3z"/>
		<path id="Path 383" class="s75" d="m711 480l-1-12h8l2 12z"/>
		<path id="Path 384" class="s15" d="m928 483l-3-2-1-13 3 4 2 10z"/>
		<path id="Path 385" class="s67" d="m591 477l12-7 13-1h2v9l-2 11-4 3-6-3-1 5h-3l-3-10-9 2z"/>
		<path id="Path 386" class="s39" d="m76 473l6-3 2 4v12l-8 2h-12l-1-5v-1l10-8z"/>
		<path id="Path 387" class="s64" d="m234 471l2-1h6l8 5v6h-8l-6 6-2-11z"/>
		<path id="Path 388" class="s43" d="m407 480l-1-10h2l12 8v4l-1 3h-3l-3-5z"/>
		<path id="Path 389" class="s54" d="m450 479l2-9h3l2 2 3 5v3h-4z"/>
		<path id="Path 390" class="s60" d="m509 473l10-3 5 8v6h4l2 6v6l-4 1v5l-4 3-5-3 1-8h-3l-6-11z"/>
		<path id="Path 391" class="s51" d="m527 478l7-8 2 7-8 6z"/>
		<path id="Path 392" class="s43" d="m230 476l2-5h2v5z"/>
		<path id="Path 393" class="s68" d="m370 475l2-3 11 4v9l-4-1-3-8h-6z"/>
		<path id="Path 394" class="s68" d="m466 475l10-3h6l7 5-1 11-1 2h-5l-2-8h-10l-1 5h-5v-4l1-6z"/>
		<path id="Path 395" class="s82" d="m501 481l5-9 3 1v10l6 11-1 2-12-4z"/>
		<path id="Path 396" class="s75" d="m753 487l2-15h8l3 3v10l-6 5h-6z"/>
		<path id="Path 397" class="s52" d="m802 482v-9l4-1 3 4h9l2 18-10 2-8-5-1-4z"/>
		<path id="Path 398" class="s76" d="m838 474v-2h5l1 4-6 2z"/>
		<path id="Path 399" class="s47" d="m63 482l10-9v1z"/>
		<path id="Path 400" class="s55" d="m585 474l2-1 4 4-1 9-1 4h-4l-1-10z"/>
		<path id="Path 401" class="s80" d="m890 474l4-1 9 9-1 6h-8l-4-2z"/>
		<path id="Path 402" class="s74" d="m84 486v-12h6l2 2v8l4 2 1 10-5 6h-4l-4-6z"/>
		<path id="Path 403" class="s74" d="m128 476l3-2 3 4-5 5-1-1z"/>
		<path id="Path 404" class="s36" d="m491 477v-3h5l2 7h-4z"/>
		<path id="Path 405" class="s44" d="m818 476l2-2h8v6l-2 14h-6z"/>
		<path id="Path 406" class="s77" d="m828 480v-6h10v4 2z"/>
		<path id="Path 407" class="s83" d="m868 476l8-2h14v12l4 2v6l-5 4-4 2h-5l-1-7-11-1z"/>
		<path id="Path 408" class="s79" d="m119 479l3-4 6 1v6l-7 2z"/>
		<path id="Path 409" class="s75" d="m568 476l2-1h4l4 5v8h-4l-4-6z"/>
		<path id="Path 410" class="s78" d="m96 486l-4-2v-8h5l3 9z"/>
		<path id="Path 411" class="s45" d="m134 478l6-2h4v4l-6 1-6 3 1 6 4-1v4l5 2 5 7v6h-3-4v-5l-8-7-1-2-9 2-4-1 11-12z"/>
		<path id="Path 412" class="s71" d="m144 480v-4h2l4 1 1 5z"/>
		<path id="Path 413" class="s8" d="m192 482h-5l-1-6 6 1z"/>
		<path id="Path 414" class="s46" d="m228 488l-3-12h5 4l2 11v1z"/>
		<path id="Path 415" class="s75" d="m334 492l1-16h7l2 8v6l-3 2z"/>
		<path id="Path 416" class="s82" d="m360 487l5-1 5-10h6l3 8 4 1v-9h9l4 4v13l-3 1v23l-3 2v6h-6l-8 6h-2l-10-1-6-5v-5l3-1v-4l-6-7v-7-3l1-8z"/>
		<path id="Path 417" class="s68" d="m555 479l2-3h11l2 6-6 4v8l5 7 6 17h-3l-9-2-1-16-6-14z"/>
		<path id="Path 418" class="s72" d="m652 484l3-6 5-2 14 1 2 7v6h-14l-10-2z"/>
		<path id="Path 419" class="s70" d="m838 478l6-2h22 2v16l-4 1v5h-14l-1-3-12-1h-1l2-14z"/>
		<path id="Path 420" class="s51" d="m460 480v-3h5l-1 6z"/>
		<path id="Path 421" class="s76" d="m488 488l1-11h2l3 4v7z"/>
		<path id="Path 422" class="s76" d="m528 483l8-6 2 2 1 7-3 4h-6l-2-6z"/>
		<path id="Path 423" class="s51" d="m544 479l8-2 3 2 1 7-4 3 1 7 3 4h6l1 16-3 8-2 2-4 1 2-16-2-3h-6v-6-4l-5-4 1-8z"/>
		<path id="Path 424" class="s43" d="m277 483l9-5 3 6-5 10-4-1z"/>
		<path id="Path 425" class="s39" d="m528 484h-4v-6h3l1 5z"/>
		<path id="Path 426" class="s46" d="m612 492l4-3 2-11 5 3-3 18h-3z"/>
		<path id="Path 427" class="s75" d="m623 481l7-3 4 4-2 20-1 8-7-1-4-10z"/>
		<path id="Path 428" class="s43" d="m114 488l2-8 3-1 2 5z"/>
		<path id="Path 429" class="s68" d="m295 484l3-5h4l-2 5z"/>
		<path id="Path 430" class="s52" d="m443 484v-5h7l6 1 2 8v12l-6 2v-6l-8-6z"/>
		<path id="Path 431" class="s66" d="m539 486l-1-7h6v7z"/>
		<path id="Path 432" class="s8" d="m138 481l6-1 7 2 3 4-2 9-8-1v-8l-6-1z"/>
		<path id="Path 433" class="s82" d="m405 488l2-8h6l3 5v6h-4-6z"/>
		<path id="Path 434" class="s76" d="m458 488l-2-8h4l4 3v4z"/>
		<path id="Path 435" class="s24" d="m578 488v-8h6l1 10 1 4 4-2 4 2 2 16v1h-11l1-9-3-4v-4h-3z"/>
		<path id="Path 436" class="s74" d="m709 492l2-12h9l20 1 4 7v5l-3 7h-7l-3-4-21-2z"/>
		<path id="Path 437" class="s59" d="m826 494l2-14h10l-2 14z"/>
		<path id="Path 438" class="s3" d="m137 489l-4 1-1-6 6-3v4z"/>
		<path id="Path 439" class="s51" d="m236 487l6-6h8l2 11-8 12-8-4v-4-8z"/>
		<path id="Path 440" class="s81" d="m494 488v-7h4 3l1 11v2h-9z"/>
		<path id="Path 441" class="s60" d="m789 486l-2-5h6l9 1-1 5-7 1z"/>
		<path id="Path 442" class="s17" d="m58 485l3-3h2v1l-6 4z"/>
		<path id="Path 443" class="s36" d="m121 484l7-2 1 1-11 12-5 5-3-6 4-6z"/>
		<path id="Path 444" class="s82" d="m419 485l1-3 17 4 4 4-2 18-1 12-8 1-7-1-3-10 2-2-2-11 1-6z"/>
		<path id="Path 445" class="s60" d="m469 487l1-5h10l2 8v8l-4 5-5-3z"/>
		<path id="Path 446" class="s60" d="m569 501l-5-7v-8l6-4 4 6 1 10z"/>
		<path id="Path 447" class="s74" d="m632 502l2-20h10l1 2 1 22z"/>
		<path id="Path 448" class="s77" d="m902 488l1-6h11l9 2 1 8-6 3-10 1-4-2z"/>
		<path id="Path 449" class="s40" d="m928 483l1-1v5h-1z"/>
		<path id="Path 450" class="s36" d="m57 487l6-4 1 5-8 4-2-1v-1z"/>
		<path id="Path 451" class="s52" d="m270 490l2-5 5-2 3 10 4 1 7 12 5 2 1 7h7v3 4h-19l-4-24z"/>
		<path id="Path 452" class="s59" d="m284 494l5-10h6 5l7 6-6 9 4 4-2 4-7 1-5-2z"/>
		<path id="Path 453" class="s59" d="m344 490v-6l5 2v4z"/>
		<path id="Path 454" class="s57" d="m437 486l1-2h5l1 6h-3z"/>
		<path id="Path 455" class="s51" d="m590 486l9-2 3 10 4 6v10h-10l-2-16-4-2-1-2z"/>
		<path id="Path 456" class="s65" d="m646 506l-1-22h7v4l-1 16 4 3v5l-3 2h-6z"/>
		<path id="Path 457" class="s39" d="m676 490v-6l5 2-1 4z"/>
		<path id="Path 458" class="s0" d="m49 493l2-5 7-3-1 2-3 3z"/>
		<path id="Path 459" class="s52" d="m96 486l4-1 6 1-1 8-8 2z"/>
		<path id="Path 460" class="s46" d="m137 489l1-4 6 1v8l-2 1-5-2z"/>
		<path id="Path 461" class="s51" d="m416 491v-6h3l2 6h-4z"/>
		<path id="Path 462" class="s79" d="m754 490h6l6-5h2l1 19 3 2-3 20h-1l-11-1-4-7v-10l1-12z"/>
		<path id="Path 463" class="s79" d="m76 488l8-2v10h-8z"/>
		<path id="Path 464" class="s36" d="m152 495l2-9 12 3 1 6h-5l-6 2v5 1l-2-2z"/>
		<path id="Path 465" class="s60" d="m206 497l10-11 1 5 4 1 4 4v8l-5 9-4 5h-4l-6-4z"/>
		<path id="Path 466" class="s24" d="m536 490l3-4h5l-1 8 5 4v4l-10 3-2-9z"/>
		<path id="Path 467" class="s82" d="m562 500h-6l-3-4-1-7 4-3z"/>
		<path id="Path 468" class="s79" d="m680 490l1-4h9l8 4 4 16v15l-10 1-4-2-1-13-5-1-1-8z"/>
		<path id="Path 469" class="s72" d="m790 497l-1-11 5 2v8z"/>
		<path id="Path 470" class="s82" d="m458 488l6-1h5l4 13-5 3v4l-2 7-2 7-9 3-5-4v-8l-4-3 6-7 6-2z"/>
		<path id="Path 471" class="s73" d="m744 488l9-1 1 3v6h-4l-6-3z"/>
		<path id="Path 472" class="s68" d="m794 488l7-1 1 4 8 5v6h-20v-5l4-1z"/>
		<path id="Path 473" class="s27" d="m927 491l1-4h1l-2 5z"/>
		<path id="Path 474" class="s74" d="m56 492l8-4h12v8l-1 2-7 4h-10l-4-2z"/>
		<path id="Path 475" class="s71" d="m166 489l7-1 1 5-7 2z"/>
		<path id="Path 476" class="s32" d="m227 490l1-2h8v8l-9-1z"/>
		<path id="Path 477" class="s64" d="m318 490l6-2 2 6-1 2-7 1z"/>
		<path id="Path 478" class="s51" d="m402 494v-5l3-1 1 3h6v7 6h-8z"/>
		<path id="Path 479" class="s24" d="m487 490l1-2h6l-1 6-1 1h-4z"/>
		<path id="Path 480" class="s42" d="m575 498l-1-10h4l2 6v4l-1 2z"/>
		<path id="Path 481" class="s79" d="m655 512v-5l-4-3 1-16 10 2v12l-3 10z"/>
		<path id="Path 482" class="s76" d="m894 494v-6h8l2 6z"/>
		<path id="Path 483" class="s57" d="m221 492l1-3 5 1v5l-2 1z"/>
		<path id="Path 484" class="s54" d="m605 494l1-5 6 3 5 7-3 5z"/>
		<path id="Path 485" class="s6" d="m49 493l5-3v1l-5 8-3 3z"/>
		<path id="Path 486" class="s59" d="m192 494l2-4h8l-1 6 5 1v17h-5l-4 8h-3l-3-13v-5z"/>
		<path id="Path 487" class="s51" d="m263 494l7-4 11 8 4 24-1 6h-14l-4-8v-8l1-9-6-3z"/>
		<path id="Path 488" class="s36" d="m305 503l-4-4 6-9h11v7z"/>
		<path id="Path 489" class="s44" d="m341 492l3-2h5 7l-1 8-4-1-1 4v1h-6z"/>
		<path id="Path 490" class="s77" d="m439 508l2-18h3l8 6v6l-6 7z"/>
		<path id="Path 491" class="s54" d="m482 498v-8h5l1 5-1 4z"/>
		<path id="Path 492" class="s52" d="m530 496v-6h6v6z"/>
		<path id="Path 493" class="s46" d="m590 492l-4 2-1-4h4z"/>
		<path id="Path 494" class="s42" d="m662 502v-12h14l-1 5 6 3 1 8-2 4h-5l-7-8z"/>
		<path id="Path 495" class="s45" d="m681 498l-6-3 1-5h4z"/>
		<path id="Path 496" class="s67" d="m702 506l-4-16h2l9 2 1 2v10l-2 2z"/>
		<path id="Path 497" class="s64" d="m49 499l5-8 2 1-2 8h-5z"/>
		<path id="Path 498" class="s81" d="m412 498v-7h4 1l-1 7z"/>
		<path id="Path 499" class="s21" d="m416 498l1-7h4l-1 6z"/>
		<path id="Path 500" class="s8" d="m924 492l3-1v1 5l3 4-1 2-1 1h-3z"/>
		<path id="Path 501" class="s74" d="m244 504l8-12 11 2-2 6-3 1-4 11-2 2h-5v-4l-3-1z"/>
		<path id="Path 502" class="s60" d="m326 494l8-2h7l3 10-1 1-15 4-6 1 3-12z"/>
		<path id="Path 503" class="s52" d="m502 494v-2l12 4-1 6-1 4h-10z"/>
		<path id="Path 504" class="s69" d="m864 498v-5l4-1 11 1 1 7v7l-12-1v-6z"/>
		<path id="Path 505" class="s31" d="m918 495l6-3 1 12-3 5-4-4z"/>
		<path id="Path 506" class="s78" d="m167 495l7-2h4l2 4-1 2-9-1z"/>
		<path id="Path 507" class="s80" d="m390 525v-6l3-2v-23l3-1 6 1 2 10-4 4v13l-4 7h-6z"/>
		<path id="Path 508" class="s39" d="m741 500l3-7 6 3-2 10h-4z"/>
		<path id="Path 509" class="s64" d="m97 496l8-2h5l3 6-4 6-2 3-9 2-6-9z"/>
		<path id="Path 510" class="s46" d="m122 496l9-2 1 2-2 6h-10z"/>
		<path id="Path 511" class="s3" d="m142 495l2-1 8 1 2 6-7 1z"/>
		<path id="Path 512" class="s70" d="m180 497l12-3-1 10h-5-6l-1-5z"/>
		<path id="Path 513" class="s53" d="m492 495l1-1h9v12h-8z"/>
		<path id="Path 514" class="s42" d="m514 496l1-2h3l-1 8h-4z"/>
		<path id="Path 515" class="s54" d="m580 498v-4h3v4z"/>
		<path id="Path 516" class="s43" d="m606 510v-10l-4-6h3l9 10 5 5h5l-2 10-14-3z"/>
		<path id="Path 517" class="s79" d="m710 504v-10l21 2 3 4v12h-8l-1-3-7 3-2-6z"/>
		<path id="Path 518" class="s43" d="m810 496l10-2h6 10 1l4 6v5l-7 1h-4l-18-2-2-2z"/>
		<path id="Path 519" class="s42" d="m841 500l-4-6 12 1 1 3v2z"/>
		<path id="Path 520" class="s24" d="m889 498l5-4h10l4 2v14l-16-2z"/>
		<path id="Path 521" class="s16" d="m113 500l5-5 4 1-2 6v5l-6 3-5-4z"/>
		<path id="Path 522" class="s81" d="m156 502v-5l6-2v7z"/>
		<path id="Path 523" class="s60" d="m162 502v-7h5l3 3 1 11 4 1 2 13-5 4-6-1-2-15-1-2z"/>
		<path id="Path 524" class="s22" d="m225 496l2-1 9 1v4 3l-5-1-2 4h-3l-1-2z"/>
		<path id="Path 525" class="s44" d="m487 499l1-4h4l2 11h-4z"/>
		<path id="Path 526" class="s21" d="m908 496l10-1v10l4 4v2l-3 2-9-1-2-2z"/>
		<path id="Path 527" class="s63" d="m75 498l1-2h8l4 6v9l-5 1-3-2v-7z"/>
		<path id="Path 528" class="s66" d="m130 502l2-6 8 7v5h-10z"/>
		<path id="Path 529" class="s53" d="m318 497l7-1-3 12-3 3-9 2-6 2h-7l-1-7 7-1 2-4z"/>
		<path id="Path 530" class="s57" d="m526 502v-5l4-1h6l2 9 10-3v6l-4 1-4 17-6 3-9-3-3 4-4-8 7-14z"/>
		<path id="Path 531" class="s36" d="m748 506l2-10h4l-1 12h-5z"/>
		<path id="Path 532" class="s55" d="m350 501l1-4 4 1v3z"/>
		<path id="Path 533" class="s76" d="m416 498l4-1 2 11-2 2h-6l-2-6v-6z"/>
		<path id="Path 534" class="s27" d="m930 501l-3-4 4 2v2z"/>
		<path id="Path 535" class="s65" d="m68 502l7-4 5 5v7h-5l-1 4h-4z"/>
		<path id="Path 536" class="s51" d="m175 510l-4-1-1-11 9 1 1 5v1z"/>
		<path id="Path 537" class="s84" d="m478 503l4-5 5 1 3 7-4 6-3 3h-1l-1-3-3-6z"/>
		<path id="Path 538" class="s82" d="m569 501l6-3 4 2 1 8 4 3v7h-9z"/>
		<path id="Path 539" class="s43" d="m579 500l1-2h3l3 4-1 9h-1l-4-3z"/>
		<path id="Path 540" class="s61" d="m850 500v-2h14l4 2v6h-16l-2-1z"/>
		<path id="Path 541" class="s80" d="m885 500l4-2 3 10h-6z"/>
		<path id="Path 542" class="s48" d="m46 502l3-3v1l1 20v3h-1l-1-1-2-4v-3-1-8-1z"/>
		<path id="Path 543" class="s49" d="m614 504l3-5h3l4 10h-5z"/>
		<path id="Path 544" class="s42" d="m50 520l-1-20h5l4 2v8l6 4v6z"/>
		<path id="Path 545" class="s61" d="m236 503v-3l8 4v5l-2 7 5-2h5l2 6h7l1 10v4l-6 4-6-5-5 1-5 1-7-1-4-2v-3l1-9 3-2 2-10z"/>
		<path id="Path 546" class="s54" d="m254 512l4-11 3-1 6 3-1 9z"/>
		<path id="Path 547" class="s70" d="m468 507v-4l5-3 5 3v3l-4 2z"/>
		<path id="Path 548" class="s72" d="m734 512v-12h7l3 6-2 6z"/>
		<path id="Path 549" class="s76" d="m841 505v-5h9v5l-4 1z"/>
		<path id="Path 550" class="s77" d="m880 507v-7h5l1 8z"/>
		<path id="Path 551" class="s5" d="m147 502l7-1 2 2 1 5 5 1v2l-5 7-6-2-3-6-1-2z"/>
		<path id="Path 552" class="s42" d="m350 502v-1h5v7l6 7v4l-3 1h-4v-10l-4-2z"/>
		<path id="Path 553" class="s4" d="m929 503l1-2h1v2z"/>
		<path id="Path 554" class="s46" d="m64 514l-6-4v-8h10l2 12z"/>
		<path id="Path 555" class="s72" d="m88 511v-9h4l6 9 1 5h6l-1 6-4 2h-8l-2-3 2-6z"/>
		<path id="Path 556" class="s64" d="m120 507v-5h10v6 8h-10z"/>
		<path id="Path 557" class="s69" d="m156 503v-1h6l1 7h-1l-5-1z"/>
		<path id="Path 558" class="s85" d="m229 506l2-4 5 1-1 5z"/>
		<path id="Path 559" class="s74" d="m343 503l1-1h6v6h-4z"/>
		<path id="Path 560" class="s49" d="m512 506l1-4h4l5 3 3 3-7 14h-1l-1-6-4 2h-3-2z"/>
		<path id="Path 561" class="s52" d="m522 505l4-3-1 6z"/>
		<path id="Path 562" class="s52" d="m631 510l1-8 14 4v8 4h-6z"/>
		<path id="Path 563" class="s68" d="m659 512l3-10h6l7 8h5l4 12-3 4h-17v-6l-4-1z"/>
		<path id="Path 564" class="s79" d="m790 506v-4h20l2 2 2 8v8 9l-6-1-11-2-5-8z"/>
		<path id="Path 565" class="s75" d="m328 507l15-4 3 5-2 12h-5l2-2-2-4-11-2z"/>
		<path id="Path 566" class="s4" d="m928 504l1-1-2 5z"/>
		<path id="Path 567" class="s13" d="m180 505v-1h6v2l-4 1v4z"/>
		<path id="Path 568" class="s9" d="m186 506v-2h5v5h-4z"/>
		<path id="Path 569" class="s31" d="m220 513l5-9 1 2-2 8-2 1z"/>
		<path id="Path 570" class="s53" d="m400 521v-13l4-4h8l2 6h6l3 10 7 1-1 9h-7-10l-7-8z"/>
		<path id="Path 571" class="s24" d="m708 506l2-2 6 2 2 6-1 4h-5l-4-4z"/>
		<path id="Path 572" class="s39" d="m814 512l-2-8 18 2v8h-4z"/>
		<path id="Path 573" class="s16" d="m922 509l3-5h3l-1 4v1l-3 4-2 2v-4z"/>
		<path id="Path 574" class="s1" d="m44 507v-2h2v1z"/>
		<path id="Path 575" class="s77" d="m175 510l5-5 2 6v7l4-1 4 5h4 3l1 4h6v2l-12 4h-11l-1-8-3-1z"/>
		<path id="Path 576" class="s31" d="m834 506l7-1 5 1v4h-6z"/>
		<path id="Path 577" class="s34" d="m846 506l4-1 2 1v4h-4-2z"/>
		<path id="Path 578" class="s30" d="m44 507l2-1v8l-2-1z"/>
		<path id="Path 579" class="s3" d="m107 509l2-3 5 4-2 4h-4z"/>
		<path id="Path 580" class="s5" d="m182 511v-4l4-1 1 3-1 4z"/>
		<path id="Path 581" class="s19" d="m224 514l2-8h3l6 2-2 10-3 2h-3l1-6z"/>
		<path id="Path 582" class="s29" d="m474 508l4-2 3 6-7 2-2-1z"/>
		<path id="Path 583" class="s60" d="m486 512l4-6h4 8l1 14v2h-6l-5-10z"/>
		<path id="Path 584" class="s59" d="m503 520l-1-14h10l-5 12-1 2z"/>
		<path id="Path 585" class="s62" d="m680 510l2-4 5 1 1 13-4 2z"/>
		<path id="Path 586" class="s43" d="m702 521v-15h6v6l4 4v6z"/>
		<path id="Path 587" class="s67" d="m742 512l2-6h4v2 5l-4 2z"/>
		<path id="Path 588" class="s75" d="m769 526l3-20h18l2 12 5 8-8 9h-5l-6-8z"/>
		<path id="Path 589" class="s62" d="m830 514v-8h4l6 4v4h-7z"/>
		<path id="Path 590" class="s26" d="m852 510v-4h16l12 1 6 1h6l16 2 2 2v16h-10l-2-6-6-1-3-4h-8l-6-3h-16l-1-3z"/>
		<path id="Path 591" class="s46" d="m114 510l6-3v9h-7l-1-2z"/>
		<path id="Path 592" class="s66" d="m322 508l6-1v5l-9 2v-3z"/>
		<path id="Path 593" class="s80" d="m466 514l2-7 6 1-2 5z"/>
		<path id="Path 594" class="s67" d="m130 516v-8h10 4v5l1 7-4 5h-5z"/>
		<path id="Path 595" class="s84" d="m144 513v-5h3l1 2z"/>
		<path id="Path 596" class="s63" d="m344 520l2-12h4l4 2v10l-8 2z"/>
		<path id="Path 597" class="s34" d="m438 520l1-12 7 1 4 3v8l-10 8-3-1z"/>
		<path id="Path 598" class="s82" d="m540 526l4-17 4-1h6l2 3-2 16-8 2z"/>
		<path id="Path 599" class="s73" d="m744 515l4-2v-5h5v10h-7z"/>
		<path id="Path 600" class="s48" d="m98 511l9-2 1 5v2h-3-6z"/>
		<path id="Path 601" class="s84" d="m162 511v-2h1l1 2z"/>
		<path id="Path 602" class="s26" d="m186 513l1-4h4l3 13h-4l-4-5z"/>
		<path id="Path 603" class="s65" d="m247 514l-5 2 2-7 3 1z"/>
		<path id="Path 604" class="s59" d="m622 519l2-10 7 1 9 8-1 8v3l-1 5v2h-5v-2-8l-5-4h-6z"/>
		<path id="Path 605" class="s20" d="m718 512l7-3 1 3-1 4-5 1 1 5h-1l-3-1v-5z"/>
		<path id="Path 606" class="s66" d="m74 514l1-4h5l3 2-3 4z"/>
		<path id="Path 607" class="s28" d="m144 513l4-3 3 6-6 4z"/>
		<path id="Path 608" class="s52" d="m596 511v-1h10l2 6v6l-8-1-6-1z"/>
		<path id="Path 609" class="s69" d="m840 514v-4h6 2v4z"/>
		<path id="Path 610" class="s61" d="m848 514v-4h4l6 1 1 3-3 5-6 1z"/>
		<path id="Path 611" class="s42" d="m83 512l5-1 4 4-2 6-4 1h-4l-2-6z"/>
		<path id="Path 612" class="s86" d="m157 518l5-7h2l2 15h-2l-7-2z"/>
		<path id="Path 613" class="s32" d="m186 517l-4 1v-7l4 2z"/>
		<path id="Path 614" class="s78" d="m310 513l9-2v3l-9 2z"/>
		<path id="Path 615" class="s61" d="m584 518v-7h1 11l-2 9-8 2z"/>
		<path id="Path 616" class="s23" d="m919 513l3-2v4l-3 2-1 1-1 4z"/>
		<path id="Path 617" class="s40" d="m918 517h1v1h-1z"/>
		<path id="Path 618" class="s81" d="m252 514l2-2h12v8h-5-7z"/>
		<path id="Path 619" class="s54" d="m319 514l9-2 11 2 2 4-2 2-15 5-17 4h-3v-7-4l6-2z"/>
		<path id="Path 620" class="s5" d="m474 514l7-2 1 3-1 4-5 1z"/>
		<path id="Path 621" class="s82" d="m483 515l3-3h6l5 10h6l1 12-12 6h-6l-4-2v-6l5-3v-8z"/>
		<path id="Path 622" class="s70" d="m652 514l3-2h4l1 7-2 6-4 1-2-2z"/>
		<path id="Path 623" class="s42" d="m725 516l1-4h8 8l2 3 2 3-2 6-18-2h-1z"/>
		<path id="Path 624" class="s52" d="m814 520v-8l12 2v4l-4 2z"/>
		<path id="Path 625" class="s46" d="m910 528v-16l9 1-2 9v1 6l-3 4-4 1z"/>
		<path id="Path 626" class="s1" d="m44 515v-2l2 1v1z"/>
		<path id="Path 627" class="s65" d="m212 518h4l4-5 2 2-2 7-2 3-6 1-3-4z"/>
		<path id="Path 628" class="s36" d="m304 515l6-2v3l-6 2z"/>
		<path id="Path 629" class="s49" d="m466 514l6-1 2 1 2 6 5-1 1-4h1l4 6v8l-5 3h-2l-8-2-1-8h-4l-3 5v-6z"/>
		<path id="Path 630" class="s72" d="m64 520v-6h6 4l6 2 2 6h-12z"/>
		<path id="Path 631" class="s13" d="m108 516v-2h4l1 2-1 1h-4z"/>
		<path id="Path 632" class="s51" d="m197 522l4-8h5l6 4-3 4-5 4h-6z"/>
		<path id="Path 633" class="s5" d="m222 515l2-1h4l-1 6-2 2h-5z"/>
		<path id="Path 634" class="s39" d="m646 518v-4h6v10h-6z"/>
		<path id="Path 635" class="s81" d="m826 518v-4h4 3l-1 4z"/>
		<path id="Path 636" class="s76" d="m826 518h6l1-4h7 8l2 6v4l-6 1-14-2-8-1v-2z"/>
		<path id="Path 637" class="s77" d="m850 520l6-1 3-5h16l6 3 1 10 18 1v8h-10l-1-3-15-2-24-7z"/>
		<path id="Path 638" class="s44" d="m104 522l1-6h3v1 5z"/>
		<path id="Path 639" class="s16" d="m112 517l1-1h7v4l-5 1h-3z"/>
		<path id="Path 640" class="s36" d="m120 520v-4h10l6 9h5l-3 8-8 3-5-1-5-7z"/>
		<path id="Path 641" class="s87" d="m145 520l6-4 6 2v6l1 10-2 7-8 1-8-2-2-7 3-8z"/>
		<path id="Path 642" class="s5" d="m512 518l4-2 1 6-4 2-1-3z"/>
		<path id="Path 643" class="s33" d="m560 524l3-8 9 2-1 5-4 3 2 19-3 2-6-3-1-12h1l5 2v-8l-4-1z"/>
		<path id="Path 644" class="s80" d="m608 522v-6l14 3v3l-4 6-4 5v-4l-6-2z"/>
		<path id="Path 645" class="s70" d="m712 522v-6h5v5l3 1-1 4z"/>
		<path id="Path 646" class="s23" d="m721 522l-1-5 5-1v6z"/>
		<path id="Path 647" class="s29" d="m108 522v-5h4v4 3h-4z"/>
		<path id="Path 648" class="s33" d="m900 528l-18-1-1-10h8l3 4 6 1z"/>
		<path id="Path 649" class="s28" d="m506 520l1-2h2l3 3 1 3 4-2h1l4 8v3l-6 5v-4l-6-2v-7z"/>
		<path id="Path 650" class="s88" d="m512 521l-3-3h3z"/>
		<path id="Path 651" class="s52" d="m571 523l1-5h3 9l2 4-1 14 5 2v4h-8l-5-3 1-10z"/>
		<path id="Path 652" class="s80" d="m639 526l1-8h6v6l-2 5-3-2z"/>
		<path id="Path 653" class="s20" d="m744 524l2-6h7l4 7-5 9h-6z"/>
		<path id="Path 654" class="s4" d="m917 522l1-4h1l-2 5z"/>
		<path id="Path 655" class="s21" d="m658 525l2-6 4 1v6l-2 3h-2z"/>
		<path id="Path 656" class="s65" d="m50 523v-3h14l6 2v2l-8 2z"/>
		<path id="Path 657" class="s66" d="m115 521l5-1v8h-3z"/>
		<path id="Path 658" class="s28" d="m225 522l2-2h3l-1 9h-4z"/>
		<path id="Path 659" class="s70" d="m262 530l-1-10h5l4 8v2z"/>
		<path id="Path 660" class="s46" d="m324 525l15-5h5l2 2-2 3-14 4h-5z"/>
		<path id="Path 661" class="s61" d="m346 522l8-2h4v5l-2 6 3 2-7 5h-4v-10l-4-3z"/>
		<path id="Path 662" class="s54" d="m430 521l8-1-1 7 3 1v9l-10-3-1-4z"/>
		<path id="Path 663" class="s81" d="m440 528l10-8 5 4 9-3v6l1 4v9l-8 4-3-11h-5l-4 5-5-1z"/>
		<path id="Path 664" class="s83" d="m503 522v-2h3l4 5v7l-1 5-4 2v6l-10 1h-3v-6l12-6z"/>
		<path id="Path 665" class="s51" d="m586 522l8-2 6 1 1 10-7 7h-4l-5-2z"/>
		<path id="Path 666" class="s69" d="m600 521l8 1v5l-2 4h-4-1z"/>
		<path id="Path 667" class="s24" d="m684 522l4-2 4 2-2 7-3-4-3 8v1l-3-2v-6z"/>
		<path id="Path 668" class="s42" d="m814 529v-9h8v2 5l-2 3h-6z"/>
		<path id="Path 669" class="s7" d="m86 522l4-1 2 3v2h-7z"/>
		<path id="Path 670" class="s8" d="m108 524h4v-3h3l2 7-3 2-6-2z"/>
		<path id="Path 671" class="s53" d="m285 522h19v7l-6 1h-14v-2z"/>
		<path id="Path 672" class="s70" d="m396 528l4-7 5 1 7 8v3l-2 7-12 1-2-7z"/>
		<path id="Path 673" class="s52" d="m692 522l10-1 10 1 7 4v6h-1l-8 1v7l-8 1h-1-4-1l-3 1-3-1v-2-9-1z"/>
		<path id="Path 674" class="s0" d="m60 533l-7-1-5-5v-5l1 1z"/>
		<path id="Path 675" class="s46" d="m70 524v-2h12 4l-1 4v7l-1 1h-10z"/>
		<path id="Path 676" class="s20" d="m100 524l4-2h4v2 4l6 2-2 3-12-3z"/>
		<path id="Path 677" class="s46" d="m204 526l5-4 3 4-3 2h-5z"/>
		<path id="Path 678" class="s10" d="m218 525l2-3h5v7l-1 3h-6z"/>
		<path id="Path 679" class="s14" d="m464 527l3-5h4l1 8v2l-7-1z"/>
		<path id="Path 680" class="s54" d="m618 528l4-6h6l5 4v8h-7z"/>
		<path id="Path 681" class="s24" d="m719 526l1-4h1 4 1v10h-7z"/>
		<path id="Path 682" class="s61" d="m726 532v-10l18 2 2 10-2 9h-1-2l-11-1v-2l3-6z"/>
		<path id="Path 683" class="s36" d="m822 527v-5l8 1v5z"/>
		<path id="Path 684" class="s45" d="m60 533l-11-10h1l12 3v7h-1z"/>
		<path id="Path 685" class="s81" d="m172 527l5-4 3 1 1 8-2 7-6-2-1-5z"/>
		<path id="Path 686" class="s53" d="m566 547l3-2-2-19 4-3 7 6-1 10-5 13-6-2z"/>
		<path id="Path 687" class="s65" d="m830 528v-5l14 2-1 4-9 1h-3z"/>
		<path id="Path 688" class="s71" d="m62 526l8-2 4 10v4h-2l-10-5z"/>
		<path id="Path 689" class="s26" d="m92 526v-2h8v6h-5z"/>
		<path id="Path 690" class="s35" d="m158 534l-1-10 7 2-1 5-2 3z"/>
		<path id="Path 691" class="s31" d="m558 526l2-2 1 1z"/>
		<path id="Path 692" class="s81" d="m644 529l2-5h6l2 2-2 8 3 4v5l-3 7h-10l1-8 1-9z"/>
		<path id="Path 693" class="s62" d="m844 525l6-1 24 7v6l-4 5h-16l-8-2-2-3h-7l-3-3v-4l9-1z"/>
		<path id="Path 694" class="s13" d="m212 526l6-1v7l-6 2-3-1v-5z"/>
		<path id="Path 695" class="s21" d="m307 529l17-4 1 4-4 4h-10-4z"/>
		<path id="Path 696" class="s81" d="m330 529l14-4 4 3v10h-2-6-7z"/>
		<path id="Path 697" class="s53" d="m359 533l-3-2 2-6 6 5v4z"/>
		<path id="Path 698" class="s81" d="m376 531l8-6h6v3l-1 4 3 2-1 3-6 1z"/>
		<path id="Path 699" class="s12" d="m558 526l3-1 4 1v8l-5-2z"/>
		<path id="Path 700" class="s46" d="m654 526l4-1 2 4v8 1h-5l-3-4z"/>
		<path id="Path 701" class="s8" d="m684 533l3-8 3 4v1z"/>
		<path id="Path 702" class="s39" d="m752 534l5-9 11 1-2 12-3 4-9-2z"/>
		<path id="Path 703" class="s10" d="m85 533v-7h7l3 4-1 5z"/>
		<path id="Path 704" class="s76" d="m163 531l1-5h2l6 1v5l-4 1z"/>
		<path id="Path 705" class="s82" d="m522 530l3-4 9 3v5l-8 1-4-2z"/>
		<path id="Path 706" class="s53" d="m534 529l6-3 6 3-1 2-11 3z"/>
		<path id="Path 707" class="s20" d="m554 527l4-1 2 6h-1-4z"/>
		<path id="Path 708" class="s20" d="m639 529v-3l2 1z"/>
		<path id="Path 709" class="s51" d="m662 529l2-3h17v6l3 2v2 6h-10l-10-5z"/>
		<path id="Path 710" class="s36" d="m766 538l2-12h1l9 1 6 8v7l-2 11h-1-3l-6-3v-10z"/>
		<path id="Path 711" class="s42" d="m789 535l8-9 11 2v4l-4 3v13h-12l-2-6z"/>
		<path id="Path 712" class="s61" d="m546 529l8-2 1 5-9 3-1-4z"/>
		<path id="Path 713" class="s13" d="m606 531l2-4 6 2v4l-2 1-6-2z"/>
		<path id="Path 714" class="s12" d="m639 529l2-2 3 2v4l-6 1z"/>
		<path id="Path 715" class="s61" d="m820 530l2-3 8 1 1 2v3h-7z"/>
		<path id="Path 716" class="s7" d="m114 530l3-2h3l5 7 5 1v6h-6l-7-1-5-3v-5z"/>
		<path id="Path 717" class="s19" d="m192 532l12-4h5v5l3 1v9l-3 3h-11l-8-4z"/>
		<path id="Path 718" class="s81" d="m270 530v-2h14v2l-1 4h-13z"/>
		<path id="Path 719" class="s84" d="m392 534l-3-2 1-4h6v6z"/>
		<path id="Path 720" class="s53" d="m614 533l4-5 8 6h7v2l-3 4h-13l-3-3z"/>
		<path id="Path 721" class="s36" d="m808 532v-4l6 1v1l-1 2z"/>
		<path id="Path 722" class="s69" d="m900 536v-8h10v6l-2 2z"/>
		<path id="Path 723" class="s11" d="m224 532l1-3h4v3l3 4v4l-7 1z"/>
		<path id="Path 724" class="s69" d="m298 530l6-1h3v4l-9 1z"/>
		<path id="Path 725" class="s83" d="m311 533h10l4-4h5l3 9-1 6h-14-3l-3-2z"/>
		<path id="Path 726" class="s59" d="m660 537v-8h2l2 8z"/>
		<path id="Path 727" class="s14" d="m94 535l1-5h5l12 3v5h-2-7z"/>
		<path id="Path 728" class="s77" d="m262 534v-4h8v4z"/>
		<path id="Path 729" class="s76" d="m283 534l1-4h14v4l-6 3z"/>
		<path id="Path 730" class="s52" d="m364 534v-4l10 1-3 4z"/>
		<path id="Path 731" class="s81" d="m412 533v-3h10v7z"/>
		<path id="Path 732" class="s76" d="m422 537v-7h7l1 4z"/>
		<path id="Path 733" class="s29" d="m472 532v-2l8 2-2 6h-4z"/>
		<path id="Path 734" class="s46" d="m684 533l6-3v9l-6-3v-2z"/>
		<path id="Path 735" class="s21" d="m813 532l1-2h6l4 3v5h-7z"/>
		<path id="Path 736" class="s76" d="m831 533v-3h3v4z"/>
		<path id="Path 737" class="s34" d="m161 534l2-3 5 2v3z"/>
		<path id="Path 738" class="s49" d="m364 534l7 1 3-4h2l9 7v2l-16-2-9-1-2 3h-6v-2l7-5z"/>
		<path id="Path 739" class="s28" d="m465 540v-9l7 1 2 6 2 7 8 3v6 1l-7 1h-3v-5l-4-2v-7z"/>
		<path id="Path 740" class="s69" d="m534 534l11-3 1 4-11 9h-6l-6-2 3-7z"/>
		<path id="Path 741" class="s54" d="m590 538h4l7-7h1v8l-2 3h-10z"/>
		<path id="Path 742" class="s37" d="m602 539v-8h4v1l1 4 5-2 2-1v4 9h-5l-1-5z"/>
		<path id="Path 743" class="s49" d="m874 537v-6l15 2 1 3v11l3 3-1 2v5l-8 6h-3v-2l-1-9v-13z"/>
		<path id="Path 744" class="s77" d="m168 533l4-1 1 5-5-1z"/>
		<path id="Path 745" class="s33" d="m179 539l2-7h11l-2 10-4 1z"/>
		<path id="Path 746" class="s85" d="m212 534l6-2h6l1 9 7-1h9l3 9-3 4-23-1v-6l-6-3z"/>
		<path id="Path 747" class="s37" d="m232 536l-3-4 4 2z"/>
		<path id="Path 748" class="s83" d="m474 538h4l2-6h2v6l4 2v6l-2 2-8-3z"/>
		<path id="Path 749" class="s35" d="m505 545v-6l4-2 1-5 6 2v4l-2 4-2 4h-7z"/>
		<path id="Path 750" class="s54" d="m546 535l9-3h4l1 12-5 3-3 1-6 1-4 1-5-1-2-5z"/>
		<path id="Path 751" class="s7" d="m612 534l-5 2-1-4z"/>
		<path id="Path 752" class="s51" d="m710 540v-7l8-1-2 8z"/>
		<path id="Path 753" class="s76" d="m716 540l2-8h1 7v5l4 3v2h-7z"/>
		<path id="Path 754" class="s54" d="m730 540l-4-3v-5l7 2z"/>
		<path id="Path 755" class="s69" d="m804 548v-13l4-3h5l4 6h7l3 4h10l9 2 8 1 3 3-10 4-1 6-6 2h-10l-5-6h-15z"/>
		<path id="Path 756" class="s18" d="m72 538l-11-5h1z"/>
		<path id="Path 757" class="s21" d="m84 534l1-1 9 2v7l-10-1z"/>
		<path id="Path 758" class="s85" d="m130 536l8-3 2 7-1 3-7 1-2-2z"/>
		<path id="Path 759" class="s49" d="m245 534l5-1 6 5v6h-6z"/>
		<path id="Path 760" class="s89" d="m298 534l9-1h4l1 9 3 2-21 1-1-3-1-5z"/>
		<path id="Path 761" class="s33" d="m410 540l2-7 10 4 8-3 10 3 5 1v4l-10 1-4 1-7-1-5 3-3-6z"/>
		<path id="Path 762" class="s22" d="m445 538l4-5h5l3 11 8-4 5 2v7l-8 1h-12v-6l-5-2z"/>
		<path id="Path 763" class="s54" d="m516 538l6-5 4 2-3 7h-9z"/>
		<path id="Path 764" class="s49" d="m638 534l6-1-1 9-5-6z"/>
		<path id="Path 765" class="s31" d="m824 538v-5h7l3 1 3 3v5h-10z"/>
		<path id="Path 766" class="s40" d="m910 534l4-1-3 3h-1z"/>
		<path id="Path 767" class="s36" d="m74 538v-4h10v7l-8-3z"/>
		<path id="Path 768" class="s22" d="m156 541l2-7h3l7 2 5 1 6 2 7 4-9 3-13-1z"/>
		<path id="Path 769" class="s88" d="m232 536l1-2 7 1 1 5h-9z"/>
		<path id="Path 770" class="s37" d="m240 535l5-1 5 10v6l-6-1-3-9z"/>
		<path id="Path 771" class="s86" d="m256 538l6-4h8 13l9 3 1 5v3l-7 4-7-3h-15-6l-2-2z"/>
		<path id="Path 772" class="s28" d="m385 538l6-1 1-3h4l2 7-1 5h-7v-4l-5-2z"/>
		<path id="Path 773" class="s77" d="m744 543l2-9h6l2 6-5 4z"/>
		<path id="Path 774" class="s46" d="m908 536l2-2v2l-2 1z"/>
		<path id="Path 775" class="s80" d="m94 542v-7l9 3-1 4z"/>
		<path id="Path 776" class="s69" d="m784 542v-7h5l1 7z"/>
		<path id="Path 777" class="s76" d="m614 537l3 3h13l3-4h5l5 6-1 8v1l-18 1h-6-4v-6z"/>
		<path id="Path 778" class="s77" d="m684 542v-6l6 3v2l-4 1z"/>
		<path id="Path 779" class="s31" d="m893 550l-3-3v-11h10 8v1l-3 10-2 2z"/>
		<path id="Path 780" class="s27" d="m908 537l2-1h1l-5 14-11 3v-1h6l2-3 2-2z"/>
		<path id="Path 781" class="s19" d="m358 540l2-3 9 1-7 6h-4z"/>
		<path id="Path 782" class="s81" d="m660 538v-1h4l10 5v8l-7 4-10-1v-1l3-9z"/>
		<path id="Path 783" class="s49" d="m837 542v-5h7l2 3v4z"/>
		<path id="Path 784" class="s24" d="m870 542l4-5 6 2v13h-6l-4-4z"/>
		<path id="Path 785" class="s27" d="m86 543l-10-5 8 3z"/>
		<path id="Path 786" class="s43" d="m102 542l1-4h7l4 5-4 2z"/>
		<path id="Path 787" class="s34" d="m114 543l-4-5h2l5 3z"/>
		<path id="Path 788" class="s33" d="m332 544l1-6h7v6h-2z"/>
		<path id="Path 789" class="s90" d="m340 544v-6h6v7z"/>
		<path id="Path 790" class="s91" d="m346 545v-7h2 4v2l-4 5z"/>
		<path id="Path 791" class="s10" d="m362 544l7-6 16 2 5 2v4 12l-8 2-5-4h-7l-8-4z"/>
		<path id="Path 792" class="s83" d="m655 543v-5h5v5z"/>
		<path id="Path 793" class="s65" d="m763 542l3-4 6 2v10l-7-2z"/>
		<path id="Path 794" class="s77" d="m566 550l6 2 5-13 5 3v10l-4 3v5l4 2-1 4-11-1-2 8h-1l-6-3-3-2-1-12-5-4v-4l3-1 1 3z"/>
		<path id="Path 795" class="s81" d="m600 542l2-3 6 2 1 5-1 6-8-2z"/>
		<path id="Path 796" class="s22" d="m139 543l1-3 8 2v4z"/>
		<path id="Path 797" class="s35" d="m348 545l4-5h6v4l-2 14v4h-10v-6z"/>
		<path id="Path 798" class="s37" d="m398 541l12-1h6l3 6-5 2v6l-13-2-4-6z"/>
		<path id="Path 799" class="s77" d="m486 546v-6h6v6z"/>
		<path id="Path 800" class="s65" d="m702 541l8-1h6l7 2v1h-8l-8-1z"/>
		<path id="Path 801" class="s29" d="m749 544l5-4 9 2 2 6h-2-3z"/>
		<path id="Path 802" class="s34" d="m846 544v-4l8 2v3z"/>
		<path id="Path 803" class="s71" d="m86 543l-2-2 10 1h8l8 3v3h-2-5l-12-3z"/>
		<path id="Path 804" class="s46" d="m114 543l3-2 7 1-1 3 4 2v3l-13-1-4-1v-3z"/>
		<path id="Path 805" class="s19" d="m148 542l8-1 8 4v11h-10l-4-1v-1l-2-8z"/>
		<path id="Path 806" class="s81" d="m686 542l4-1 3 1-1 5-6 1z"/>
		<path id="Path 807" class="s20" d="m693 542l3-1 1 6v1l-2 3-11 2v-4l2-1 6-1z"/>
		<path id="Path 808" class="s40" d="m697 547l-1-6h1z"/>
		<path id="Path 809" class="s27" d="m707 543l-6-2h1l5 1z"/>
		<path id="Path 810" class="s33" d="m127 547l-4-2 1-3h6l2 2-1 3z"/>
		<path id="Path 811" class="s88" d="m186 543l4-1 8 4v6h-17l-2 4h-13-2v-11l13 1z"/>
		<path id="Path 812" class="s92" d="m293 545v-3l1 3z"/>
		<path id="Path 813" class="s28" d="m435 543l10-1 5 2v6l-4 6h-8z"/>
		<path id="Path 814" class="s37" d="m512 546l2-4h9l6 2-3 3-14 3z"/>
		<path id="Path 815" class="s76" d="m582 562l-4-2v-5l4-3v-10h8 10v8l8 2 2 1v6l-3 4-5 4-5-1-7-3z"/>
		<path id="Path 816" class="s54" d="m674 550v-8h10 2v6l-2 1z"/>
		<path id="Path 817" class="s40" d="m707 543v-1l8 1z"/>
		<path id="Path 818" class="s41" d="m723 543v-1h7l11 1z"/>
		<path id="Path 819" class="s21" d="m782 553l2-11h6l2 6v8l-5-1z"/>
		<path id="Path 820" class="s31" d="m854 545v-3h16v6h-13z"/>
		<path id="Path 821" class="s9" d="m132 544l7-1 9 3 2 8h-8l-3-1h-1l-11-3v-3h4z"/>
		<path id="Path 822" class="s88" d="m209 546l3-3 6 3v6l-5 2h-3z"/>
		<path id="Path 823" class="s35" d="m419 546l5-3 7 1 1 16v8h-47l-3-6v-2l8-2h6l5-6 13 2v-6z"/>
		<path id="Path 824" class="s85" d="m431 544l4-1 3 13v4h-6z"/>
		<path id="Path 825" class="s54" d="m652 550l3-7h5l-3 9z"/>
		<path id="Path 826" class="s40" d="m760 548l-12-1-5-4h1l5 1z"/>
		<path id="Path 827" class="s34" d="m250 550v-6h6l2 2v4h-2z"/>
		<path id="Path 828" class="s93" d="m294 545l21-1h3l2 24h-21-3v-5l-8-3-2-11 7-4z"/>
		<path id="Path 829" class="s94" d="m320 568l-2-24h14 6l1 12-1 8-4 4h-4z"/>
		<path id="Path 830" class="s95" d="m339 556l-1-12h2l6 1h2l-2 11z"/>
		<path id="Path 831" class="s87" d="m356 558l2-14h4v8l8 4v5l-4 1z"/>
		<path id="Path 832" class="s83" d="m526 547l3-3h6l2 5-4 3h-5z"/>
		<path id="Path 833" class="s49" d="m555 547l5-3 6 3v3h-10z"/>
		<path id="Path 834" class="s28" d="m495 546l10-1v1 5l-9 1z"/>
		<path id="Path 835" class="s85" d="m198 552v-6h11l1 8h-6-4z"/>
		<path id="Path 836" class="s37" d="m258 550v-4h6v4z"/>
		<path id="Path 837" class="s95" d="m264 550v-4h15l7 3 2 11v8h-4-5l-3-3v-7l-8-2z"/>
		<path id="Path 838" class="s87" d="m390 558v-12h7l4 6-5 6z"/>
		<path id="Path 839" class="s29" d="m484 548l2-2h6 3l1 6-4 2h-8z"/>
		<path id="Path 840" class="s22" d="m505 551v-5h7v4z"/>
		<path id="Path 841" class="s83" d="m608 552l1-6h5v6l-4 1z"/>
		<path id="Path 842" class="s92" d="m512 550l14-3 2 5h5l8 2-4 7-16 2-7 7h-4-4l-10-3-4-13 4-2 9-1z"/>
		<path id="Path 843" class="s40" d="m697 548v-1l5 3-3-1z"/>
		<path id="Path 844" class="s30" d="m114 550l-6-2h2l4 1z"/>
		<path id="Path 845" class="s33" d="m546 549l6-1v4h-6z"/>
		<path id="Path 846" class="s46" d="m684 553l11-2 2-3 2 1-1 11h-4-11z"/>
		<path id="Path 847" class="s47" d="m778 553l-15-5h2l7 2z"/>
		<path id="Path 848" class="s39" d="m792 556v-8h12l6 6h15l5 6h10v6h-7-2l-6-1-7-2h-1l-14-4-4-1h-1z"/>
		<path id="Path 849" class="s61" d="m846 558l1-6 10-4h13l4 4v8h-6l-2 4-11 2-5-8z"/>
		<path id="Path 850" class="s58" d="m114 550v-1l13 1 11 3z"/>
		<path id="Path 851" class="s9" d="m218 552l23 1 3-4 6 1h6v14h-5l-5-1h-2l-10-2-13-1h-7l-1-6z"/>
		<path id="Path 852" class="s9" d="m462 550l8-1 4 2v5h-12z"/>
		<path id="Path 853" class="s37" d="m533 552l4-3 5 1v3l-1 1z"/>
		<path id="Path 854" class="s84" d="m542 550l4-1v3l-4 1z"/>
		<path id="Path 855" class="s24" d="m674 550l10-1v4l-1 7-6 1-1 5-14-2h-4v4l-14 1-2 7-8-2v-7l-9-4-1-11 18-1 3 7h7l5-5 10 1z"/>
		<path id="Path 856" class="s23" d="m698 560l1-11 3 1 2 2 3 3 2 5-4 2z"/>
		<path id="Path 857" class="s23" d="m893 550l10-1-2 3h-6-3z"/>
		<path id="Path 858" class="s11" d="m256 564v-14h2 6l4 6-1 9h-2l-6-1z"/>
		<path id="Path 859" class="s13" d="m446 556l4-6h12v6l-3 7-5 2-3 1h-1v-7z"/>
		<path id="Path 860" class="s77" d="m642 551v-1h10l5 2v1l-5 5h-7z"/>
		<path id="Path 861" class="s9" d="m179 556l2-4h17l2 2v4h-4z"/>
		<path id="Path 862" class="s76" d="m542 553l4-1h6l5 4 1 12-11 2-3 1h-20-5-4l-1-1 7-7 16-2 4-7z"/>
		<path id="Path 863" class="s69" d="m610 553l4-1h4v8l-8-1z"/>
		<path id="Path 864" class="s80" d="m618 560v-8h6l1 11 9 4v7h-7l-5-6v-6z"/>
		<path id="Path 865" class="s77" d="m874 560v-8h6l1 9z"/>
		<path id="Path 866" class="s17" d="m884 563l8-6v-5h3v1l-1 7z"/>
		<path id="Path 867" class="s18" d="m142 555l-3-2 3 1z"/>
		<path id="Path 868" class="s47" d="m786 555l-5-2h1l5 2z"/>
		<path id="Path 869" class="s47" d="m142 555v-1h8v1h-1z"/>
		<path id="Path 870" class="s29" d="m200 558v-4h4v4h-1z"/>
		<path id="Path 871" class="s20" d="m204 558v-4h6 3l1 6h-4z"/>
		<path id="Path 872" class="s90" d="m484 555v-1h8l4 13h-7l-5-1z"/>
		<path id="Path 873" class="s18" d="m154 557l-5-2h1l4 1z"/>
		<path id="Path 874" class="s91" d="m477 556l7-1v11l-6-1h-1z"/>
		<path id="Path 875" class="s18" d="m709 560l-2-5 5 10-2-1z"/>
		<path id="Path 876" class="s18" d="m792 557l-6-2h1l5 1z"/>
		<path id="Path 877" class="s40" d="m154 557v-1h10 2v1z"/>
		<path id="Path 878" class="s41" d="m166 557v-1h13v1z"/>
		<path id="Path 879" class="s17" d="m179 557v-1l17 2z"/>
		<path id="Path 880" class="s35" d="m267 565l1-9 8 2v7l3 3h-1-3z"/>
		<path id="Path 881" class="s22" d="m338 564l1-8h7v6l-2 2z"/>
		<path id="Path 882" class="s85" d="m370 561v-5h7l5 4v2h-4z"/>
		<path id="Path 883" class="s11" d="m438 560v-4h8l4 3v7h-3-7z"/>
		<path id="Path 884" class="s37" d="m459 563l3-7h12 3v9h-2l-6-2h-2-6z"/>
		<path id="Path 885" class="s30" d="m792 557v-1l6 2z"/>
		<path id="Path 886" class="s30" d="m210 560l-7-2h1z"/>
		<path id="Path 887" class="s19" d="m356 562v-4l10 4v6l-1 1h-8z"/>
		<path id="Path 888" class="s30" d="m803 560l-4-2 4 1z"/>
		<path id="Path 889" class="s62" d="m840 560l6-2h4l5 8h-15z"/>
		<path id="Path 890" class="s26" d="m607 563l3-4 8 1 4 2v6l-8-1z"/>
		<path id="Path 891" class="s58" d="m803 560v-1l14 4z"/>
		<path id="Path 892" class="s30" d="m221 562l-7-2h7z"/>
		<path id="Path 893" class="s50" d="m221 562v-2l13 1v1z"/>
		<path id="Path 894" class="s94" d="m288 568v-8l8 3v5z"/>
		<path id="Path 895" class="s19" d="m432 568v-8h6l2 6-2 2z"/>
		<path id="Path 896" class="s13" d="m676 566l1-5 6-1h11v12l-2 5h-5l-11-6z"/>
		<path id="Path 897" class="s12" d="m694 572v-12h4l7 2 1 2v8h-4z"/>
		<path id="Path 898" class="s15" d="m705 562l4-2 1 4h-4z"/>
		<path id="Path 899" class="s46" d="m866 564l2-4h6l7 1v2h-10-2l-2 1z"/>
		<path id="Path 900" class="s27" d="m234 562v-1l10 2z"/>
		<path id="Path 901" class="s32" d="m366 562l4-1 8 1v6h-12z"/>
		<path id="Path 902" class="s28" d="m344 564l2-2h10l1 7h-13z"/>
		<path id="Path 903" class="s29" d="m378 568v-6h4l3 6h-6z"/>
		<path id="Path 904" class="s31" d="m581 566l1-4 8 1-2 8z"/>
		<path id="Path 905" class="s18" d="m251 565l-5-2 5 1z"/>
		<path id="Path 906" class="s49" d="m588 571l2-8 7 3-3 10-5-1z"/>
		<path id="Path 907" class="s90" d="m602 567l5-4 7 4-3 11-9-2z"/>
		<path id="Path 908" class="s40" d="m824 565l-6-2 7 2z"/>
		<path id="Path 909" class="s18" d="m867 564l2-1-2 2z"/>
		<path id="Path 910" class="s40" d="m251 565v-1h5 3v1z"/>
		<path id="Path 911" class="s41" d="m259 565v-1l6 1h-1z"/>
		<path id="Path 912" class="s49" d="m334 568l4-4h6v5z"/>
		<path id="Path 913" class="s46" d="m658 568v-4h4v4z"/>
		<path id="Path 914" class="s9" d="m662 568v-4l14 2v5z"/>
		<path id="Path 915" class="s16" d="m706 572v-8h4l2 1v7z"/>
		<path id="Path 916" class="s25" d="m855 566l11-2h1v1l-5 3-29-2h7z"/>
		<path id="Path 917" class="s18" d="m275 568l-11-3h1 2z"/>
		<path id="Path 918" class="s18" d="m451 566l3-1-3 2z"/>
		<path id="Path 919" class="s40" d="m489 568l-11-3 6 1 5 1z"/>
		<path id="Path 920" class="s9" d="m568 573l2-8 11 1 7 5 1 4 5 1 2 2 1 8-4-1-4-2h-1l-5-3-6-2z"/>
		<path id="Path 921" class="s18" d="m831 566l-7-1h1z"/>
		<path id="Path 922" class="s18" d="m862 568l5-3-1 3z"/>
		<path id="Path 923" class="s17" d="m438 568l2-2h7v1z"/>
		<path id="Path 924" class="s40" d="m447 567v-1h3 1v1z"/>
		<path id="Path 925" class="s33" d="m594 576l3-10 5 1v9l-6 2z"/>
		<path id="Path 926" class="s96" d="m489 568v-1h7l10 3h-5z"/>
		<path id="Path 927" class="s84" d="m611 578l3-11 8 1 5 6h7l8 2 8 9v8l1 5-1 5h-1-1-1l-7-2-10-4-3-7-6-3z"/>
		<path id="Path 928" class="s30" d="m284 570l-6-2h1 5z"/>
		<path id="Path 929" class="s58" d="m284 570v-2h4 8 3v2z"/>
		<path id="Path 930" class="s56" d="m299 570v-2h21 10v2z"/>
		<path id="Path 931" class="s58" d="m330 570v-2h4l10 1h13v1z"/>
		<path id="Path 932" class="s30" d="m365 569l1-1h12 1l-14 2z"/>
		<path id="Path 933" class="s58" d="m547 570l11-2 3 2h-2-10z"/>
		<path id="Path 934" class="s33" d="m642 576l2-7 14-1h4l14 3 11 6-1 7-8 1v8l8 5-3 8h-13-5-1-3-1l-5-2-5-1 1-5h5l3-5h-9v-8z"/>
		<path id="Path 935" class="s56" d="m357 570v-1h8v1z"/>
		<path id="Path 936" class="s47" d="m510 572l-9-2h5 4z"/>
		<path id="Path 937" class="s50" d="m510 572v-2h4l1 1v1z"/>
		<path id="Path 938" class="s47" d="m544 571l3-1h2l-3 3h-20z"/>
		<path id="Path 939" class="s47" d="m567 573l-8-3h2z"/>
		<path id="Path 940" class="s97" d="m515 572v-1h4z"/>
		<path id="Path 941" class="s73" d="m526 573l-2-2h20z"/>
		<path id="Path 942" class="s14" d="m692 577l2-5h8l5 20v1 2l-3 3-2 2-2 1-2-14-3-2z"/>
		<path id="Path 943" class="s8" d="m707 592l-5-20h4 6v15z"/>
		<path id="Path 944" class="s47" d="m577 578l-6-1-3-4z"/>
		<path id="Path 945" class="s28" d="m596 578l6-2 9 2 10 9-3 6-19-6-2-1z"/>
		<path id="Path 946" class="s37" d="m686 584l1-7h5l3 8z"/>
		<path id="Path 947" class="s9" d="m683 606l3-8-8-5v-8l8-1 9 1 3 2 2 14-3 4h-1l-8 1z"/>
		<path id="Path 948" class="s18" d="m599 588l-6-3 4 1 2 1z"/>
		<path id="Path 949" class="s58" d="m599 588v-1l19 6 1 2h-1z"/>
		<path id="Path 950" class="s34" d="m618 593l3-6 6 3 3 7h-4l-7-2z"/>
		<path id="Path 951" class="s1" d="m707 592l5-5-5 6z"/>
		<path id="Path 952" class="s37" d="m651 598l-1-5h9l-3 5z"/>
		<path id="Path 953" class="s18" d="m626 598l-8-3h1l7 2z"/>
		<path id="Path 954" class="s25" d="m626 598v-1h4l10 4h-5z"/>
		<path id="Path 955" class="s1" d="m700 601l2-1-1 5h-4z"/>
		<path id="Path 956" class="s50" d="m647 603l-12-2h5z"/>
		<path id="Path 957" class="s18" d="m649 605l-1-2h1z"/>
		<path id="Path 958" class="s56" d="m649 605v-2h1l5 1v1h-1z"/>
		<path id="Path 959" class="s23" d="m655 605v-1l5 2h-2z"/>
		<path id="Path 960" class="s1" d="m658 607l-4-2h1l3 1z"/>
		<path id="Path 961" class="s17" d="m688 606l8-1-2 2-1 1h-5z"/>
		<path id="Path 962" class="s4" d="m693 607h1v1h-1z"/>
		<path id="Path 963" class="s18" d="m694 607l2-2h1z"/>
		<path id="Path 964" class="s40" d="m658 607v-1h2 1v1z"/>
		<path id="Path 965" class="s41" d="m661 607v-1h3v1z"/>
		<path id="Path 966" class="s47" d="m664 606h1v1h-1z"/>
		<path id="Path 967" class="s17" d="m665 607v-1h5v2h-5z"/>
		<path id="Path 968" class="s38" d="m670 608v-2h13 5v2z"/>
		<path id="Path 969" class="s18" d="m664 607h1v1h-1z"/>
	</g>
</svg>